<?xml version="1.0" encoding="utf-8" standalone="no"?>
<!DOCTYPE svg PUBLIC "-//W3C//DTD SVG 1.1//EN"
  "http://www.w3.org/Graphics/SVG/1.1/DTD/svg11.dtd">
<svg xmlns:xlink="http://www.w3.org/1999/xlink" width="453.6pt" height="338.4pt" viewBox="0 0 453.6 338.4" xmlns="http://www.w3.org/2000/svg" version="1.1">
 <metadata>
  <rdf:RDF xmlns:dc="http://purl.org/dc/elements/1.1/" xmlns:cc="http://creativecommons.org/ns#" xmlns:rdf="http://www.w3.org/1999/02/22-rdf-syntax-ns#">
   <cc:Work>
    <dc:type rdf:resource="http://purl.org/dc/dcmitype/StillImage"/>
    <dc:date>2025-05-14T16:27:43.155371</dc:date>
    <dc:format>image/svg+xml</dc:format>
    <dc:creator>
     <cc:Agent>
      <dc:title>Matplotlib v3.10.1, https://matplotlib.org/</dc:title>
     </cc:Agent>
    </dc:creator>
   </cc:Work>
  </rdf:RDF>
 </metadata>
 <defs>
  <style type="text/css">*{stroke-linejoin: round; stroke-linecap: butt}</style>
 </defs>
 <g id="figure_1">
  <g id="patch_1">
   <path d="M 0 338.4 
L 453.6 338.4 
L 453.6 0 
L 0 0 
z
" style="fill: #ffffff"/>
  </g>
  <g id="axes_1">
   <g id="patch_2">
    <path d="M 7.2 331.2 
L 446.4 331.2 
L 446.4 7.2 
L 7.2 7.2 
z
" style="fill: #ffffff"/>
   </g>
   <g id="matplotlib.axis_1"/>
   <g id="matplotlib.axis_2"/>
   <g id="line2d_1">
    <path d="M 27.163636 151.210171 
L 30.091636 159.201244 
L 32.753455 165.867204 
L 35.415273 171.962989 
L 38.077091 177.488626 
L 40.472727 181.974176 
L 42.868364 185.997899 
L 45.264 189.559804 
L 47.393455 192.338217 
L 49.522909 194.751722 
L 51.652364 196.800337 
L 53.515636 198.293525 
L 55.378909 199.50734 
L 57.242182 200.441764 
L 59.105455 201.096806 
L 60.702545 201.435914 
L 62.299636 201.569746 
L 63.896727 201.498336 
L 65.493818 201.221658 
L 67.090909 200.739729 
L 68.688 200.052524 
L 70.551273 198.991378 
L 72.414545 197.650843 
L 74.277818 196.030925 
L 76.141091 194.131617 
L 78.270545 191.618901 
L 80.4 188.74126 
L 82.529455 185.49873 
L 84.925091 181.414683 
L 87.320727 176.868819 
L 89.716364 171.861119 
L 92.378182 165.755353 
L 95.04 159.079403 
L 97.701818 151.833313 
L 100.629818 143.204034 
L 103.557818 133.884846 
L 106.752 122.931713 
L 109.946182 111.157473 
L 113.140364 98.562231 
L 116.600727 83.990837 
L 120.061091 68.455849 
L 123.787636 50.648271 
L 125.118545 44.017599 
L 126.183273 46.620651 
L 132.571636 62.327216 
L 138.96 77.448613 
L 145.348364 91.984754 
L 151.470545 105.366131 
L 157.592727 118.21004 
L 163.448727 129.992584 
L 169.304727 141.28343 
L 175.160727 152.082542 
L 180.750545 161.93207 
L 186.340364 171.333553 
L 191.664 179.870819 
L 196.987636 188.001649 
L 202.311273 195.726139 
L 207.368727 202.687949 
L 212.426182 209.283009 
L 217.483636 215.511291 
L 222.274909 221.073462 
L 227.066182 226.306462 
L 231.857455 231.210281 
L 236.648727 235.784911 
L 241.173818 239.803148 
L 245.698909 243.527774 
L 250.224 246.958784 
L 254.482909 249.919733 
L 258.741818 252.620617 
L 263.000727 255.061388 
L 267.259636 257.242101 
L 271.518545 259.162692 
L 275.511273 260.727044 
L 279.504 262.062809 
L 283.496727 263.169974 
L 287.489455 264.048542 
L 289.618909 264.42365 
L 289.885091 264.641119 
L 292.014545 267.394527 
L 294.144 269.797929 
L 296.273455 271.851324 
L 298.136727 273.36091 
L 300 274.602503 
L 301.863273 275.576108 
L 303.726545 276.281756 
L 305.589818 276.719412 
L 307.186909 276.881259 
L 308.784 276.846208 
L 310.381091 276.61429 
L 311.978182 276.185469 
L 313.841455 275.43636 
L 315.704727 274.419255 
L 317.568 273.134179 
L 319.431273 271.581107 
L 321.294545 269.760051 
L 323.424 267.350729 
L 325.553455 264.591356 
L 327.682909 261.482008 
L 330.078545 257.565597 
L 332.474182 253.206154 
L 334.869818 248.403771 
L 337.531636 242.548221 
L 340.193455 236.145702 
L 342.855273 229.196339 
L 345.783273 220.92045 
L 348.711273 211.982708 
L 351.905455 201.477734 
L 355.099636 190.185211 
L 356.962909 183.726573 
L 360.157091 182.869116 
L 363.351273 182.236651 
L 366.545455 181.829178 
L 369.739636 181.646725 
L 372.933818 181.689228 
L 376.128 181.956742 
L 379.322182 182.449257 
L 382.516364 183.166782 
L 385.710545 184.109273 
L 388.904727 185.276775 
L 392.098909 186.669268 
L 395.559273 188.431699 
L 399.019636 190.458176 
L 402.48 192.748744 
L 405.940364 195.303349 
L 409.400727 198.122 
L 413.127273 201.452795 
L 416.853818 205.089823 
L 420.580364 209.033086 
L 424.573091 213.597859 
L 426.436364 215.848398 
L 426.436364 215.848398 
" clip-path="url(#pc2c464a8ab)" style="fill: none; stroke-dasharray: 11.1,4.8; stroke-dashoffset: 0; stroke: #000000; stroke-width: 3"/>
   </g>
   <g id="line2d_2">
    <path d="M 27.163636 184.283704 
L 28.494545 186.468126 
L 30.890182 190.955984 
L 32.753455 194.835527 
L 34.084364 198.11252 
L 36.48 204.820563 
L 38.343273 209.690569 
L 40.206545 213.864661 
L 44.997818 223.91434 
L 46.062545 225.643738 
L 47.127273 227.007124 
L 48.192 228.043734 
L 49.522909 229.013604 
L 54.048 231.908345 
L 55.645091 233.380553 
L 60.968727 238.693749 
L 62.033455 239.291067 
L 62.832 239.507834 
L 63.630545 239.519605 
L 64.695273 239.256709 
L 66.026182 238.622146 
L 68.421818 237.15143 
L 71.083636 235.304071 
L 74.011636 232.937134 
L 76.939636 230.647909 
L 79.069091 228.938507 
L 80.4 227.56127 
L 81.730909 225.813648 
L 83.061818 223.678901 
L 84.392727 221.146127 
L 85.723636 218.118196 
L 86.788364 215.213782 
L 88.119273 210.831209 
L 89.450182 205.601352 
L 91.845818 194.965733 
L 94.241455 184.722813 
L 98.766545 167.024531 
L 103.557818 147.427952 
L 107.284364 132.527342 
L 111.543273 115.741505 
L 114.205091 104.178273 
L 116.334545 93.973108 
L 117.931636 85.267652 
L 122.456727 59.228902 
L 123.521455 54.950156 
L 124.32 52.591207 
L 125.118545 50.996324 
L 125.650909 50.358417 
L 126.183273 50.055115 
L 126.715636 50.07706 
L 127.248 50.410384 
L 127.780364 51.035001 
L 128.578909 52.459289 
L 129.643636 55.07779 
L 131.240727 59.835436 
L 133.370182 66.047496 
L 134.701091 69.291159 
L 136.298182 72.546813 
L 140.823273 81.222089 
L 148.010182 96.787046 
L 150.672 103.038748 
L 155.197091 113.980241 
L 156.794182 117.081997 
L 158.923636 120.633702 
L 161.053091 124.3323 
L 162.916364 128.114976 
L 167.441455 137.641117 
L 169.570909 141.476777 
L 171.700364 144.870722 
L 175.426909 150.685589 
L 177.024 153.681849 
L 178.887273 157.695442 
L 184.743273 170.837421 
L 186.606545 174.300371 
L 188.469818 177.341399 
L 190.599273 180.390371 
L 192.728727 183.065237 
L 195.124364 185.690734 
L 199.117091 189.604766 
L 202.311273 192.908172 
L 204.440727 195.410389 
L 206.570182 198.267603 
L 209.764364 202.602722 
L 211.627636 204.693675 
L 213.757091 206.695161 
L 218.282182 210.513519 
L 231.058909 221.308295 
L 232.656 223.145164 
L 233.986909 225.013714 
L 235.850182 228.045156 
L 238.778182 232.785386 
L 240.907636 235.727985 
L 243.569455 238.994234 
L 247.029818 242.878731 
L 249.425455 245.24925 
L 251.288727 246.799799 
L 253.152 248.080358 
L 255.281455 249.262093 
L 257.410909 250.174124 
L 259.274182 250.748157 
L 261.137455 251.103654 
L 263.000727 251.225021 
L 264.864 251.12398 
L 269.122909 250.785319 
L 270.453818 250.9841 
L 271.784727 251.436539 
L 273.381818 252.250759 
L 280.834909 256.639701 
L 283.496727 258.303865 
L 285.093818 259.017256 
L 286.957091 259.548373 
L 289.618909 260.248131 
L 291.216 260.930837 
L 292.546909 261.738667 
L 293.877818 262.800212 
L 295.208727 264.142069 
L 296.805818 266.10774 
L 300.532364 270.953365 
L 301.597091 271.897164 
L 302.395636 272.371965 
L 303.194182 272.639794 
L 303.992727 272.717955 
L 305.057455 272.597484 
L 307.985455 272.085793 
L 309.050182 272.175615 
L 312.244364 272.665958 
L 313.309091 272.478606 
L 314.373818 272.039506 
L 315.704727 271.217056 
L 317.568 269.778385 
L 320.229818 267.436114 
L 321.826909 265.789023 
L 323.157818 264.140063 
L 324.488727 262.158416 
L 326.085818 259.350856 
L 329.013818 253.582943 
L 331.409455 249.114107 
L 333.272727 246.146622 
L 334.869818 244.005076 
L 336.733091 241.898156 
L 341.790545 236.497152 
L 343.121455 234.582359 
L 344.452364 232.29963 
L 346.049455 229.053282 
L 347.380364 225.883276 
L 348.711273 222.206132 
L 350.308364 217.060966 
L 352.704 208.321083 
L 354.833455 200.800167 
L 356.164364 196.797581 
L 357.229091 194.135637 
L 358.293818 192.010722 
L 359.358545 190.448055 
L 360.157091 189.640352 
L 360.955636 189.120528 
L 361.754182 188.847862 
L 362.818909 188.774336 
L 364.149818 188.956746 
L 368.941091 189.849351 
L 370.804364 189.902274 
L 372.401455 189.711964 
L 373.732364 189.34797 
L 375.595636 188.570209 
L 377.725091 187.703754 
L 379.056 187.422046 
L 380.386909 187.367385 
L 385.178182 187.449311 
L 386.775273 187.08788 
L 388.904727 186.524675 
L 389.703273 186.506583 
L 390.501818 186.68456 
L 391.300364 187.066786 
L 392.631273 188.028159 
L 394.494545 189.391413 
L 395.559273 189.874307 
L 396.624 190.072193 
L 397.688727 190.001318 
L 398.753455 189.687605 
L 400.084364 189.013637 
L 402.746182 187.516587 
L 403.544727 187.304683 
L 404.343273 187.295869 
L 405.141818 187.515744 
L 405.940364 187.974463 
L 406.738909 188.667304 
L 407.803636 189.913194 
L 409.666909 192.596864 
L 411.264 194.725668 
L 412.328727 195.762156 
L 413.393455 196.436624 
L 414.458182 196.801997 
L 415.789091 196.957484 
L 417.12 196.895949 
L 418.717091 196.580744 
L 421.911273 195.698005 
L 422.709818 195.755247 
L 423.508364 196.0398 
L 424.306909 196.548106 
L 425.637818 197.729609 
L 426.436364 198.487022 
L 426.436364 198.487022 
" clip-path="url(#pc2c464a8ab)" style="fill: none; stroke: #0000ff; stroke-width: 3; stroke-linecap: square"/>
   </g>
   <g id="patch_3">
    <path d="M 7.2 331.2 
L 7.2 7.2 
" style="fill: none; stroke: #000000; stroke-width: 0.8; stroke-linejoin: miter; stroke-linecap: square"/>
   </g>
   <g id="patch_4">
    <path d="M 446.4 331.2 
L 446.4 7.2 
" style="fill: none; stroke: #000000; stroke-width: 0.8; stroke-linejoin: miter; stroke-linecap: square"/>
   </g>
   <g id="patch_5">
    <path d="M 7.2 331.2 
L 446.4 331.2 
" style="fill: none; stroke: #000000; stroke-width: 0.8; stroke-linejoin: miter; stroke-linecap: square"/>
   </g>
   <g id="patch_6">
    <path d="M 7.2 7.2 
L 446.4 7.2 
" style="fill: none; stroke: #000000; stroke-width: 0.8; stroke-linejoin: miter; stroke-linecap: square"/>
   </g>
  </g>
 </g>
 <defs>
  <clipPath id="pc2c464a8ab">
   <rect x="7.2" y="7.2" width="439.2" height="324"/>
  </clipPath>
 </defs>
</svg>
