<?xml version="1.0" encoding="utf-8" standalone="no"?>
<!DOCTYPE svg PUBLIC "-//W3C//DTD SVG 1.1//EN"
  "http://www.w3.org/Graphics/SVG/1.1/DTD/svg11.dtd">
<svg xmlns:xlink="http://www.w3.org/1999/xlink" width="453.6pt" height="338.4pt" viewBox="0 0 453.6 338.4" xmlns="http://www.w3.org/2000/svg" version="1.1">
 <metadata>
  <rdf:RDF xmlns:dc="http://purl.org/dc/elements/1.1/" xmlns:cc="http://creativecommons.org/ns#" xmlns:rdf="http://www.w3.org/1999/02/22-rdf-syntax-ns#">
   <cc:Work>
    <dc:type rdf:resource="http://purl.org/dc/dcmitype/StillImage"/>
    <dc:date>2025-05-14T16:28:22.653156</dc:date>
    <dc:format>image/svg+xml</dc:format>
    <dc:creator>
     <cc:Agent>
      <dc:title>Matplotlib v3.10.1, https://matplotlib.org/</dc:title>
     </cc:Agent>
    </dc:creator>
   </cc:Work>
  </rdf:RDF>
 </metadata>
 <defs>
  <style type="text/css">*{stroke-linejoin: round; stroke-linecap: butt}</style>
 </defs>
 <g id="figure_1">
  <g id="patch_1">
   <path d="M 0 338.4 
L 453.6 338.4 
L 453.6 0 
L 0 0 
z
" style="fill: #ffffff"/>
  </g>
  <g id="axes_1">
   <g id="patch_2">
    <path d="M 7.2 331.2 
L 446.4 331.2 
L 446.4 7.2 
L 7.2 7.2 
z
" style="fill: #ffffff"/>
   </g>
   <g id="matplotlib.axis_1"/>
   <g id="matplotlib.axis_2"/>
   <g id="line2d_1">
    <path d="M 27.163636 268.633347 
L 128.578909 220.747249 
L 228.663273 218.987846 
L 229.195636 219.420091 
L 303.194182 289.224507 
L 314.373818 265.780715 
L 348.445091 194.314167 
L 348.711273 194.14294 
L 426.436364 196.808106 
L 426.436364 196.808106 
" clip-path="url(#p2c1a48e412)" style="fill: none; stroke-dasharray: 11.1,4.8; stroke-dashoffset: 0; stroke: #000000; stroke-width: 3"/>
   </g>
   <g id="line2d_2">
    <path d="M 27.163636 252.058597 
L 27.962182 249.062065 
L 29.026909 243.899032 
L 30.624 234.617419 
L 32.221091 225.544379 
L 33.285818 220.629156 
L 34.084364 217.798268 
L 34.882909 215.777427 
L 35.415273 214.894346 
L 35.947636 214.38531 
L 36.48 214.247818 
L 37.012364 214.473329 
L 37.544727 215.04375 
L 38.077091 215.92798 
L 38.875636 217.737023 
L 40.472727 222.219308 
L 41.537455 224.973352 
L 42.336 226.541733 
L 43.134545 227.581846 
L 43.666909 227.993076 
L 44.199273 228.212626 
L 44.997818 228.272361 
L 46.062545 228.061931 
L 47.925818 227.416141 
L 49.256727 226.735853 
L 50.321455 225.941396 
L 51.652364 224.599491 
L 53.249455 222.604413 
L 55.645091 219.203481 
L 57.242182 216.612254 
L 58.573091 214.005831 
L 59.904 210.871202 
L 66.824727 193.02752 
L 71.349818 178.940451 
L 72.414545 176.560425 
L 73.479273 174.641963 
L 74.544 173.167332 
L 75.342545 172.38003 
L 76.141091 171.918985 
L 76.673455 171.82074 
L 77.205818 171.903544 
L 77.738182 172.168126 
L 78.536727 172.87193 
L 79.867636 174.541603 
L 80.932364 175.815846 
L 81.730909 176.449268 
L 82.263273 176.659416 
L 82.795636 176.696829 
L 83.594182 176.480957 
L 86.256 175.322313 
L 87.054545 175.412728 
L 87.853091 175.812739 
L 88.651636 176.47289 
L 92.378182 180.004607 
L 93.442909 180.470788 
L 94.507636 180.670148 
L 95.838545 180.64736 
L 97.169455 180.368514 
L 98.500364 179.815078 
L 99.831273 179.004373 
L 101.694545 177.57919 
L 106.219636 173.892942 
L 107.284364 173.505431 
L 108.349091 173.417659 
L 109.946182 173.616826 
L 112.075636 173.86221 
L 115.536 174.059639 
L 116.600727 174.39269 
L 117.665455 174.971942 
L 118.730182 175.843093 
L 119.794909 177.063053 
L 120.859636 178.701466 
L 121.924364 180.801311 
L 123.255273 183.974538 
L 125.384727 189.125383 
L 126.183273 190.594176 
L 126.981818 191.637704 
L 127.780364 192.234863 
L 128.312727 192.405668 
L 129.111273 192.38525 
L 129.909818 192.123977 
L 131.240727 191.384121 
L 132.571636 190.402813 
L 133.636364 189.390289 
L 134.701091 188.066239 
L 135.765818 186.35624 
L 136.830545 184.251269 
L 138.161455 181.146766 
L 140.024727 176.213908 
L 143.751273 166.132304 
L 145.082182 163.157674 
L 146.413091 160.77088 
L 147.477818 159.313481 
L 148.542545 158.26495 
L 149.341091 157.750604 
L 150.139636 157.46865 
L 150.938182 157.410819 
L 151.736727 157.560364 
L 152.801455 158.046023 
L 153.866182 158.819254 
L 154.930909 159.854197 
L 156.261818 161.484806 
L 157.858909 163.820739 
L 160.786909 168.568466 
L 166.376727 177.860994 
L 168.24 180.086393 
L 169.570909 181.760744 
L 170.635636 183.411051 
L 171.966545 185.887742 
L 174.096 189.956295 
L 175.160727 191.542733 
L 175.959273 192.424997 
L 176.757818 193.046024 
L 177.556364 193.44255 
L 178.621091 193.715893 
L 180.218182 193.846415 
L 182.88 194.051007 
L 185.009455 194.456057 
L 188.203636 195.323345 
L 190.865455 196.267478 
L 197.52 198.864596 
L 201.246545 199.813232 
L 203.109818 200.422996 
L 204.440727 201.06984 
L 205.771636 201.961128 
L 207.368727 203.341982 
L 211.095273 206.788621 
L 212.692364 207.851768 
L 214.555636 208.758875 
L 217.483636 209.862366 
L 220.677818 210.827531 
L 224.138182 211.64115 
L 231.591273 213.204019 
L 233.188364 213.901117 
L 234.519273 214.702763 
L 235.850182 215.756429 
L 237.181091 217.09844 
L 238.778182 219.074522 
L 243.569455 225.400742 
L 244.900364 226.625398 
L 246.231273 227.535418 
L 247.562182 228.196404 
L 249.159273 228.761856 
L 251.288727 229.280012 
L 254.749091 229.858807 
L 258.475636 230.468063 
L 259.806545 230.928371 
L 260.871273 231.493156 
L 261.936 232.271417 
L 263.000727 233.284055 
L 264.331636 234.895203 
L 265.662545 236.900806 
L 266.993455 239.308869 
L 268.590545 242.708062 
L 270.72 247.851341 
L 273.381818 254.244077 
L 274.978909 257.53307 
L 276.309818 259.813534 
L 277.640727 261.644434 
L 278.971636 263.059141 
L 280.568727 264.381458 
L 282.964364 266.320404 
L 284.295273 267.696693 
L 285.626182 269.371961 
L 287.223273 271.769819 
L 288.820364 274.590104 
L 290.417455 277.841785 
L 293.079273 283.898299 
L 295.208727 288.578103 
L 296.805818 291.598526 
L 298.136727 293.698564 
L 299.467636 295.368961 
L 300.532364 296.34852 
L 301.330909 296.84484 
L 302.129455 297.116791 
L 302.928 297.15276 
L 303.726545 296.94982 
L 304.525091 296.513325 
L 305.323636 295.854106 
L 306.388364 294.648826 
L 307.453091 293.087127 
L 308.517818 291.172049 
L 309.848727 288.269461 
L 311.179636 284.795469 
L 312.776727 279.93245 
L 314.906182 272.633005 
L 318.898909 258.789753 
L 320.496 254.075309 
L 321.826909 250.900888 
L 322.891636 248.914663 
L 324.222545 246.970757 
L 326.352 244.074968 
L 327.416727 242.211211 
L 328.481455 239.867834 
L 329.546182 237.024042 
L 330.877091 232.860948 
L 332.740364 226.195067 
L 334.869818 217.637277 
L 338.596364 202.220689 
L 339.661091 198.760118 
L 340.725818 195.924806 
L 343.653818 188.679655 
L 344.718545 184.957417 
L 345.783273 180.370489 
L 347.646545 171.067435 
L 350.840727 153.980253 
L 354.833455 131.011217 
L 355.632 128.214906 
L 356.164364 126.960387 
L 356.696727 126.17894 
L 357.229091 125.823162 
L 357.761455 125.824794 
L 358.293818 126.106011 
L 359.092364 126.887177 
L 360.423273 128.660906 
L 365.746909 136.129486 
L 367.610182 138.320633 
L 369.207273 139.863707 
L 370.538182 140.872385 
L 371.869091 141.603674 
L 372.933818 141.956257 
L 373.998545 142.043652 
L 374.797091 141.888016 
L 375.595636 141.504657 
L 376.394182 140.869874 
L 377.192727 139.983476 
L 378.257455 138.475655 
L 380.653091 134.834395 
L 381.451636 133.981248 
L 382.250182 133.450679 
L 383.048727 133.2294 
L 384.113455 133.245095 
L 385.444364 133.244218 
L 386.242909 132.985649 
L 387.041455 132.476394 
L 389.437091 130.585934 
L 389.969455 130.441182 
L 390.501818 130.492499 
L 391.034182 130.751771 
L 391.832727 131.502214 
L 392.897455 132.983261 
L 395.026909 136.102415 
L 396.091636 137.158969 
L 396.890182 137.657866 
L 397.688727 137.934254 
L 398.753455 138.038468 
L 400.084364 137.910255 
L 404.875636 137.172031 
L 405.674182 137.294486 
L 406.472727 137.62867 
L 407.271273 138.201092 
L 408.602182 139.542989 
L 409.933091 140.80927 
L 410.731636 141.216312 
L 411.264 141.2779 
L 411.796364 141.172088 
L 412.594909 140.761061 
L 414.724364 139.424501 
L 415.522909 139.307892 
L 416.055273 139.416267 
L 416.853818 139.853331 
L 417.652364 140.586042 
L 418.717091 141.9673 
L 419.781818 143.825052 
L 420.846545 146.281632 
L 421.911273 149.515867 
L 422.976 153.66589 
L 424.306909 160.072333 
L 426.436364 171.260334 
L 426.436364 171.260334 
" clip-path="url(#p2c1a48e412)" style="fill: none; stroke: #ffa500; stroke-width: 3; stroke-linecap: square"/>
   </g>
   <g id="patch_3">
    <path d="M 7.2 331.2 
L 7.2 7.2 
" style="fill: none; stroke: #000000; stroke-width: 0.8; stroke-linejoin: miter; stroke-linecap: square"/>
   </g>
   <g id="patch_4">
    <path d="M 446.4 331.2 
L 446.4 7.2 
" style="fill: none; stroke: #000000; stroke-width: 0.8; stroke-linejoin: miter; stroke-linecap: square"/>
   </g>
   <g id="patch_5">
    <path d="M 7.2 331.2 
L 446.4 331.2 
" style="fill: none; stroke: #000000; stroke-width: 0.8; stroke-linejoin: miter; stroke-linecap: square"/>
   </g>
   <g id="patch_6">
    <path d="M 7.2 7.2 
L 446.4 7.2 
" style="fill: none; stroke: #000000; stroke-width: 0.8; stroke-linejoin: miter; stroke-linecap: square"/>
   </g>
  </g>
 </g>
 <defs>
  <clipPath id="p2c1a48e412">
   <rect x="7.2" y="7.2" width="439.2" height="324"/>
  </clipPath>
 </defs>
</svg>
