<?xml version="1.0" encoding="utf-8" standalone="no"?>
<!DOCTYPE svg PUBLIC "-//W3C//DTD SVG 1.1//EN"
  "http://www.w3.org/Graphics/SVG/1.1/DTD/svg11.dtd">
<svg xmlns:xlink="http://www.w3.org/1999/xlink" width="453.6pt" height="338.4pt" viewBox="0 0 453.6 338.4" xmlns="http://www.w3.org/2000/svg" version="1.1">
 <metadata>
  <rdf:RDF xmlns:dc="http://purl.org/dc/elements/1.1/" xmlns:cc="http://creativecommons.org/ns#" xmlns:rdf="http://www.w3.org/1999/02/22-rdf-syntax-ns#">
   <cc:Work>
    <dc:type rdf:resource="http://purl.org/dc/dcmitype/StillImage"/>
    <dc:date>2025-05-14T16:23:17.382064</dc:date>
    <dc:format>image/svg+xml</dc:format>
    <dc:creator>
     <cc:Agent>
      <dc:title>Matplotlib v3.10.1, https://matplotlib.org/</dc:title>
     </cc:Agent>
    </dc:creator>
   </cc:Work>
  </rdf:RDF>
 </metadata>
 <defs>
  <style type="text/css">*{stroke-linejoin: round; stroke-linecap: butt}</style>
 </defs>
 <g id="figure_1">
  <g id="patch_1">
   <path d="M 0 338.4 
L 453.6 338.4 
L 453.6 0 
L 0 0 
z
" style="fill: #ffffff"/>
  </g>
  <g id="axes_1">
   <g id="patch_2">
    <path d="M 7.2 331.2 
L 446.4 331.2 
L 446.4 7.2 
L 7.2 7.2 
z
" style="fill: #ffffff"/>
   </g>
   <g id="matplotlib.axis_1"/>
   <g id="matplotlib.axis_2"/>
   <g id="line2d_1">
    <path d="M 27.163636 91.326201 
L 27.962182 89.707301 
L 28.760727 88.518267 
L 29.559273 87.737452 
L 30.357818 87.342892 
L 30.890182 87.283675 
L 31.422545 87.379971 
L 32.221091 87.801901 
L 33.019636 88.537386 
L 33.818182 89.564604 
L 34.882909 91.350323 
L 35.947636 93.564222 
L 37.278545 96.854795 
L 38.875636 101.43751 
L 41.005091 108.337285 
L 44.731636 121.421031 
L 47.659636 131.379776 
L 49.522909 137.026805 
L 51.12 141.187608 
L 52.450909 144.042452 
L 53.515636 145.852679 
L 54.580364 147.185868 
L 55.378909 147.841595 
L 56.177455 148.178043 
L 56.709818 148.214192 
L 57.242182 148.092299 
L 57.774545 147.805868 
L 58.573091 147.053634 
L 59.371636 145.894832 
L 60.170182 144.307692 
L 60.968727 142.270339 
L 62.033455 138.815895 
L 63.098182 134.470611 
L 64.429091 128.147683 
L 66.558545 144.623758 
L 68.421818 157.48359 
L 70.285091 168.964237 
L 72.148364 179.136142 
L 74.011636 188.06961 
L 75.874909 195.835085 
L 77.472 201.614918 
L 79.069091 206.632652 
L 80.666182 210.932649 
L 82.263273 214.559188 
L 83.594182 217.098861 
L 84.925091 219.227332 
L 86.256 220.970187 
L 87.586909 222.353139 
L 88.917818 223.401828 
L 90.248727 224.14186 
L 91.579636 224.598964 
L 92.910545 224.798746 
L 94.241455 224.766846 
L 95.572364 224.528959 
L 97.169455 224.007669 
L 99.032727 223.130382 
L 101.162182 221.859088 
L 104.090182 219.828933 
L 109.147636 216.293774 
L 111.277091 215.075219 
L 113.140364 214.262294 
L 114.737455 213.809702 
L 116.068364 213.638589 
L 117.399273 213.682173 
L 118.730182 213.966093 
L 120.061091 214.515999 
L 121.392 215.357542 
L 122.722909 216.516388 
L 124.053818 218.018178 
L 125.384727 219.888545 
L 126.183273 221.05106 
L 126.981818 221.354011 
L 127.514182 221.355688 
L 128.312727 221.07254 
L 129.111273 220.464382 
L 129.909818 219.551227 
L 130.974545 217.893827 
L 132.039273 215.777137 
L 133.370182 212.557676 
L 134.967273 207.975215 
L 136.830545 201.839779 
L 139.226182 193.093531 
L 146.413091 166.224088 
L 148.276364 160.366928 
L 149.873455 156.09517 
L 151.204364 153.185445 
L 152.269091 151.349831 
L 153.333818 150.003089 
L 154.132364 149.342358 
L 154.930909 149.003241 
L 155.463273 148.965741 
L 155.995636 149.086019 
L 156.528 149.369992 
L 157.326545 150.115818 
L 158.125091 151.263296 
L 158.923636 152.832388 
L 159.722182 154.843126 
L 160.786909 158.245691 
L 161.851636 162.516343 
L 162.916364 167.70252 
L 163.981091 173.851536 
L 165.312 182.964165 
L 166.642909 193.747959 
L 167.973818 206.295711 
L 169.304727 220.699706 
L 169.570909 221.496568 
L 170.635636 219.163523 
L 171.700364 217.340602 
L 172.765091 215.995239 
L 173.563636 215.28011 
L 174.362182 214.801649 
L 175.160727 214.546143 
L 175.959273 214.499883 
L 176.757818 214.649164 
L 177.822545 215.128705 
L 178.887273 215.899021 
L 179.952 216.927626 
L 181.282909 218.527082 
L 182.88 220.822793 
L 185.009455 224.342344 
L 192.462545 237.20625 
L 194.059636 239.34823 
L 195.390545 240.786054 
L 196.455273 241.663359 
L 197.52 242.26287 
L 198.318545 242.510642 
L 199.117091 242.570167 
L 199.915636 242.427741 
L 200.714182 242.069646 
L 201.512727 241.482187 
L 202.311273 240.651643 
L 203.376 239.142453 
L 204.440727 237.144259 
L 205.505455 234.624608 
L 206.570182 231.550943 
L 207.634909 227.890845 
L 208.965818 222.4415 
L 210.296727 215.961574 
L 210.829091 213.06679 
L 211.361455 207.595104 
L 212.958545 190.224529 
L 214.555636 175.292265 
L 216.152727 162.631003 
L 217.483636 153.694173 
L 218.814545 146.121659 
L 220.145455 139.816691 
L 221.476364 134.682568 
L 222.541091 131.353213 
L 223.605818 128.661766 
L 224.670545 126.558629 
L 225.735273 124.994365 
L 226.533818 124.144905 
L 227.332364 123.549834 
L 228.130909 123.188175 
L 228.929455 123.039105 
L 229.728 123.081591 
L 230.792727 123.400273 
L 231.857455 123.972993 
L 233.188364 124.970594 
L 235.051636 126.719813 
L 239.576727 131.154283 
L 240.907636 132.097319 
L 241.972364 132.612789 
L 243.037091 132.862193 
L 243.835636 132.844847 
L 244.634182 132.629081 
L 245.432727 132.193984 
L 246.231273 131.518681 
L 247.029818 130.582317 
L 247.828364 129.363947 
L 248.893091 127.264585 
L 249.957818 124.577351 
L 251.022545 121.252438 
L 252.087273 117.240547 
L 253.418182 111.183965 
L 254.749091 103.879711 
L 256.08 95.23105 
L 257.410909 85.141019 
L 257.677091 84.836242 
L 260.072727 100.768985 
L 262.202182 113.567774 
L 264.331636 125.144296 
L 266.461091 135.55724 
L 268.590545 144.865016 
L 270.72 153.126105 
L 272.583273 159.542222 
L 274.446545 165.240989 
L 276.309818 170.261935 
L 278.173091 174.644052 
L 280.036364 178.426772 
L 281.899636 181.649182 
L 283.496727 183.995079 
L 285.093818 185.982976 
L 286.690909 187.637418 
L 288.288 188.983256 
L 289.885091 190.045103 
L 291.482182 190.84775 
L 293.079273 191.415827 
L 294.676364 191.774116 
L 296.539636 191.959905 
L 298.402909 191.932921 
L 300.532364 191.691996 
L 303.194182 191.161402 
L 307.719273 189.980689 
L 311.712 189.031764 
L 314.107636 188.673072 
L 316.237091 188.569849 
L 318.100364 188.694016 
L 319.963636 189.059503 
L 321.560727 189.594574 
L 323.157818 190.360493 
L 324.754909 191.381926 
L 326.352 192.68361 
L 327.949091 194.290255 
L 329.546182 196.226554 
L 331.143273 198.517245 
L 332.740364 201.18701 
L 334.337455 204.260561 
L 335.934545 207.762556 
L 337.797818 212.422852 
L 339.661091 217.739235 
L 341.524364 223.75097 
L 343.387636 230.497198 
L 344.984727 236.481342 
L 346.848 239.202864 
L 348.445091 241.180815 
L 350.042182 242.848846 
L 351.639273 244.223533 
L 353.236364 245.32142 
L 354.833455 246.159113 
L 356.430545 246.753204 
L 358.027636 247.120253 
L 359.624727 247.276873 
L 361.488 247.215751 
L 363.351273 246.917079 
L 365.214545 246.407231 
L 367.344 245.599735 
L 369.739636 244.451638 
L 372.667636 242.782633 
L 376.660364 240.210269 
L 384.379636 235.165078 
L 387.307636 233.536259 
L 389.703273 232.433005 
L 391.832727 231.67439 
L 393.696 231.214301 
L 395.559273 230.971893 
L 397.422545 230.973543 
L 399.019636 231.189143 
L 400.616727 231.619965 
L 402.213818 232.282601 
L 403.810909 233.193622 
L 405.408 234.369638 
L 407.005091 235.827213 
L 408.602182 237.582929 
L 410.199273 239.653393 
L 411.796364 242.055118 
L 413.659636 245.298061 
L 415.522909 249.040875 
L 417.386182 253.309824 
L 419.249455 258.131379 
L 421.112727 263.531822 
L 423.242182 270.446269 
L 425.371636 278.190602 
L 426.436364 282.386179 
L 426.436364 282.386179 
" clip-path="url(#pfa4260ce5f)" style="fill: none; stroke-dasharray: 11.1,4.8; stroke-dashoffset: 0; stroke: #000000; stroke-width: 3"/>
   </g>
   <g id="line2d_2">
    <path d="M 27.163636 65.650145 
L 27.962182 70.992836 
L 28.494545 76.241935 
L 29.559273 79.323694 
L 29.825455 78.928449 
L 30.091636 78.783592 
L 30.357818 79.029451 
L 30.624 79.781281 
L 30.890182 80.002858 
L 31.156364 80.680671 
L 31.422545 80.24531 
L 31.688727 80.972808 
L 32.221091 80.016026 
L 32.753455 79.817236 
L 33.019636 79.015441 
L 33.285818 78.834506 
L 33.552 79.347886 
L 34.350545 81.889544 
L 34.616727 82.13103 
L 34.882909 81.760645 
L 35.149091 81.13896 
L 35.415273 81.078303 
L 35.681455 78.794337 
L 35.947636 79.48472 
L 36.213818 79.382525 
L 36.48 79.778454 
L 37.012364 81.602253 
L 37.544727 84.299898 
L 38.077091 86.964519 
L 38.609455 89.116866 
L 38.875636 90.351757 
L 39.141818 91.054956 
L 39.674182 91.822604 
L 39.940364 91.479414 
L 41.803636 98.234666 
L 42.069818 99.611745 
L 42.868364 101.233998 
L 43.400727 103.046754 
L 43.933091 106.006918 
L 44.199273 112.289695 
L 44.465455 113.290912 
L 44.997818 116.343176 
L 45.264 116.821707 
L 45.530182 116.67685 
L 45.796364 116.779326 
L 46.062545 117.274378 
L 46.861091 119.724725 
L 48.192 124.265481 
L 48.458182 124.758005 
L 48.724364 124.623366 
L 48.990545 124.814396 
L 50.587636 129.159328 
L 51.652364 132.970831 
L 52.717091 135.017718 
L 53.249455 135.142789 
L 53.515636 135.606748 
L 54.846545 139.554277 
L 55.112727 140.061408 
L 55.645091 140.486077 
L 56.443636 140.080088 
L 56.709818 140.103367 
L 56.976 140.489272 
L 58.040727 142.778242 
L 58.306909 143.002576 
L 58.573091 142.902312 
L 58.839273 142.469883 
L 60.170182 138.062784 
L 60.702545 139.319673 
L 60.968727 139.649169 
L 61.234909 142.68163 
L 61.501091 142.053747 
L 62.033455 139.652224 
L 62.565818 136.453365 
L 63.098182 134.628688 
L 63.364364 134.520366 
L 63.896727 136.243286 
L 64.162909 136.452048 
L 64.429091 136.453101 
L 64.961455 136.971538 
L 65.227636 137.033389 
L 65.76 138.155165 
L 66.292364 140.125348 
L 67.090909 145.186015 
L 67.623273 146.734847 
L 68.155636 148.042913 
L 68.421818 148.556504 
L 68.954182 150.603022 
L 69.486545 152.641832 
L 70.018909 159.41773 
L 70.551273 164.232767 
L 70.817455 166.253986 
L 71.083636 167.294319 
L 71.349818 167.627695 
L 71.616 168.237161 
L 72.148364 175.471515 
L 72.680727 178.063058 
L 73.479273 183.870201 
L 73.745455 184.778931 
L 74.011636 186.09222 
L 74.544 186.874791 
L 74.810182 187.238337 
L 75.342545 188.824161 
L 75.608727 189.220239 
L 75.874909 189.891223 
L 76.407273 192.53461 
L 76.939636 194.156819 
L 77.205818 195.354367 
L 77.472 195.929669 
L 77.738182 196.222701 
L 78.004364 196.796089 
L 78.270545 199.946598 
L 78.802909 201.62209 
L 79.601455 207.124789 
L 80.133818 208.091227 
L 80.4 208.792434 
L 80.666182 208.889133 
L 80.932364 208.430309 
L 81.198545 208.425033 
L 81.730909 209.534432 
L 81.997091 209.968774 
L 82.795636 212.673521 
L 83.061818 212.695712 
L 83.328 213.081959 
L 83.594182 213.682146 
L 83.860364 213.842031 
L 84.126545 213.402343 
L 84.392727 213.317371 
L 84.925091 213.873018 
L 85.191273 213.873571 
L 85.723636 215.107286 
L 85.989818 215.329759 
L 86.256 215.217048 
L 86.788364 215.815225 
L 87.054545 215.907852 
L 87.320727 215.497843 
L 87.586909 215.434596 
L 87.853091 215.61655 
L 88.119273 215.452899 
L 88.385455 214.982768 
L 89.184 215.587152 
L 89.450182 215.354268 
L 89.982545 215.673423 
L 90.248727 215.404724 
L 90.781091 214.292561 
L 91.313455 213.916689 
L 91.579636 213.633437 
L 91.845818 213.831928 
L 92.112 214.247836 
L 92.378182 214.378051 
L 92.644364 213.996184 
L 93.176727 213.779435 
L 93.442909 213.33606 
L 93.975273 212.003468 
L 94.507636 211.759146 
L 94.773818 211.793425 
L 95.04 212.470395 
L 95.306182 214.846452 
L 95.572364 215.064519 
L 96.104727 214.841177 
L 96.370909 215.094233 
L 96.637091 214.850411 
L 96.903273 214.186837 
L 97.169455 213.867532 
L 98.234182 214.753229 
L 98.500364 215.31179 
L 98.766545 215.309438 
L 99.298909 214.494572 
L 100.363636 212.218875 
L 100.629818 212.319955 
L 100.896 212.596159 
L 101.162182 212.668877 
L 101.694545 213.265545 
L 101.960727 213.277729 
L 102.493091 212.410501 
L 102.759273 212.24714 
L 103.291636 211.630643 
L 103.824 211.557811 
L 104.090182 212.024342 
L 104.888727 212.502382 
L 105.154909 212.188669 
L 105.687273 210.82114 
L 106.485818 209.96212 
L 106.752 210.115922 
L 107.018182 210.61201 
L 107.284364 210.837512 
L 107.816727 210.316108 
L 108.349091 209.106849 
L 108.881455 207.269023 
L 109.68 205.886931 
L 109.946182 205.984123 
L 110.478545 206.738999 
L 111.010909 206.755361 
L 111.277091 206.702139 
L 111.809455 205.955234 
L 112.341818 205.931348 
L 112.874182 205.797438 
L 113.672727 206.533467 
L 113.938909 206.285248 
L 114.471273 206.158939 
L 115.269818 205.465414 
L 115.802182 205.488939 
L 116.068364 205.42327 
L 116.866909 206.111125 
L 117.931636 205.541195 
L 118.197818 205.188709 
L 118.464 205.203816 
L 118.996364 205.52069 
L 119.262545 205.667732 
L 119.794909 206.264215 
L 120.061091 206.235265 
L 121.392 205.568021 
L 122.456727 206.205481 
L 122.989091 206.854212 
L 124.053818 207.099859 
L 124.586182 207.136139 
L 125.384727 208.19013 
L 126.183273 209.379752 
L 127.780364 210.080353 
L 128.578909 210.908781 
L 129.111273 212.135754 
L 129.377455 212.933512 
L 130.442182 214.441034 
L 130.974545 214.494853 
L 131.773091 215.209165 
L 132.571636 216.190456 
L 133.104 216.264315 
L 133.370182 216.189955 
L 134.434909 215.032294 
L 135.233455 214.848068 
L 135.499636 215.051404 
L 135.765818 215.056864 
L 136.564364 214.524014 
L 137.895273 212.031049 
L 138.161455 211.90905 
L 138.427636 211.952818 
L 138.693818 212.204356 
L 139.226182 212.292751 
L 139.758545 212.388819 
L 140.290909 211.847788 
L 140.557091 211.746699 
L 140.823273 211.901352 
L 141.089455 211.906698 
L 141.621818 212.332499 
L 141.888 212.656342 
L 142.952727 213.149305 
L 143.485091 212.800813 
L 144.283636 212.791894 
L 144.816 212.749636 
L 145.082182 212.70715 
L 145.880727 211.65071 
L 146.146909 210.860932 
L 146.413091 208.810455 
L 147.477818 206.178795 
L 148.542545 204.034656 
L 149.074909 201.685433 
L 150.405818 193.48336 
L 150.938182 192.444423 
L 151.470545 191.429468 
L 151.736727 190.749558 
L 152.801455 185.801602 
L 153.333818 184.874885 
L 153.6 185.157436 
L 154.664727 187.748962 
L 154.930909 187.842783 
L 155.729455 186.074058 
L 155.995636 185.994423 
L 156.261818 186.181748 
L 156.528 186.984017 
L 157.060364 191.262965 
L 157.592727 195.342771 
L 157.858909 196.494823 
L 158.125091 196.374519 
L 158.657455 194.663774 
L 158.923636 194.646937 
L 159.189818 194.843181 
L 159.456 195.711269 
L 159.722182 197.56228 
L 160.254545 202.36832 
L 161.319273 207.013974 
L 162.650182 209.665419 
L 162.916364 210.512861 
L 163.714909 213.882595 
L 164.513455 216.948158 
L 165.844364 218.831025 
L 167.441455 221.066694 
L 167.707636 221.066036 
L 168.506182 221.809974 
L 169.038545 222.190726 
L 169.570909 222.537761 
L 169.837091 222.565078 
L 170.635636 222.941476 
L 170.901818 222.88405 
L 171.434182 223.027599 
L 171.700364 222.993048 
L 171.966545 222.715509 
L 172.498909 222.970233 
L 173.297455 223.20885 
L 174.362182 222.919873 
L 175.160727 222.241823 
L 176.491636 222.184485 
L 177.822545 221.041176 
L 178.354909 221.026253 
L 179.153455 221.612879 
L 179.685818 221.844121 
L 180.218182 221.597929 
L 180.484364 220.980291 
L 180.750545 221.271084 
L 181.016727 221.384823 
L 181.549091 222.032149 
L 181.815273 222.452569 
L 184.477091 223.793711 
L 184.743273 223.704841 
L 185.009455 223.79328 
L 186.340364 223.189836 
L 187.405091 223.672493 
L 187.937455 224.161971 
L 188.203636 224.292239 
L 188.736 224.259558 
L 189.002182 223.738637 
L 189.534545 223.392005 
L 191.131636 224.051015 
L 191.397818 224.018317 
L 192.462545 223.305207 
L 192.728727 223.189108 
L 193.261091 223.422966 
L 194.059636 223.415978 
L 194.325818 223.354619 
L 195.656727 222.575603 
L 195.922909 222.418106 
L 196.455273 222.510224 
L 198.318545 221.465239 
L 198.584727 221.496182 
L 199.383273 220.949401 
L 199.649455 220.907186 
L 200.181818 220.35771 
L 200.980364 219.618793 
L 201.512727 219.235267 
L 201.778909 219.183713 
L 203.109818 218.075772 
L 203.642182 217.513576 
L 204.440727 217.349319 
L 204.706909 217.440401 
L 204.973091 217.669168 
L 205.239273 217.675971 
L 205.771636 217.395676 
L 206.037818 217.343684 
L 206.836364 216.82271 
L 207.368727 216.87889 
L 207.634909 216.81854 
L 208.433455 217.058341 
L 208.965818 216.570461 
L 209.498182 216.460972 
L 210.030545 215.848609 
L 210.562909 215.76605 
L 211.361455 215.141731 
L 211.627636 214.945953 
L 212.16 214.358739 
L 212.692364 214.008281 
L 213.224727 213.183171 
L 213.757091 213.09445 
L 214.289455 212.622792 
L 214.555636 212.643833 
L 214.821818 212.510827 
L 215.354182 212.04239 
L 215.620364 211.999649 
L 215.886545 211.815045 
L 216.418909 211.16936 
L 216.951273 211.325488 
L 217.483636 210.992349 
L 218.016 211.141604 
L 218.548364 210.905252 
L 218.814545 211.338647 
L 219.080727 211.470486 
L 219.346909 211.159678 
L 219.613091 211.033668 
L 220.145455 212.181524 
L 220.677818 212.083761 
L 221.210182 213.53678 
L 221.476364 213.678547 
L 221.742545 213.982157 
L 222.274909 215.876453 
L 222.541091 215.882773 
L 222.807273 216.593267 
L 223.073455 218.341802 
L 223.339636 219.263269 
L 223.872 219.019114 
L 224.138182 219.651992 
L 224.404364 219.978942 
L 224.670545 219.633285 
L 224.936727 219.682417 
L 225.202909 220.455964 
L 225.469091 220.850102 
L 225.735273 220.89545 
L 226.001455 221.653284 
L 226.533818 223.757343 
L 227.066182 223.983494 
L 227.332364 224.430275 
L 227.598545 224.551387 
L 227.864727 224.268599 
L 228.130909 224.295135 
L 228.397091 224.858376 
L 228.929455 225.334809 
L 229.728 227.837009 
L 230.526545 228.764332 
L 230.792727 228.797855 
L 231.058909 228.619852 
L 231.325091 228.659055 
L 231.591273 228.94445 
L 231.857455 229.042019 
L 232.922182 230.301717 
L 233.454545 230.23826 
L 233.720727 230.149785 
L 234.253091 229.665987 
L 234.519273 229.538476 
L 235.051636 229.590574 
L 235.850182 231.040371 
L 236.382545 231.358535 
L 237.713455 230.484355 
L 237.979636 230.570381 
L 238.245818 231.026563 
L 238.778182 232.654039 
L 239.842909 233.351006 
L 241.173818 232.728065 
L 241.44 233.245413 
L 241.706182 234.083831 
L 241.972364 234.479102 
L 242.238545 234.637933 
L 242.770909 235.116122 
L 243.037091 235.044308 
L 243.569455 234.4488 
L 244.101818 234.475678 
L 244.368 234.570122 
L 245.166545 236.476787 
L 245.432727 236.62073 
L 245.698909 236.895688 
L 245.965091 236.974893 
L 246.231273 236.653087 
L 246.497455 236.091356 
L 246.763636 235.829425 
L 247.562182 236.061466 
L 248.360727 237.851285 
L 249.159273 237.641277 
L 249.957818 236.110194 
L 250.490182 235.896262 
L 250.756364 236.006682 
L 251.288727 237.398579 
L 251.554909 237.641742 
L 252.087273 237.613599 
L 252.353455 237.413546 
L 253.152 235.706303 
L 253.684364 235.617161 
L 253.950545 235.840003 
L 254.749091 237.577109 
L 255.015273 237.498992 
L 255.281455 237.304723 
L 255.547636 236.754097 
L 255.813818 234.994431 
L 256.346182 229.884475 
L 256.612364 228.785303 
L 256.878545 228.655957 
L 257.144727 229.292609 
L 257.677091 231.697994 
L 257.943273 232.232855 
L 258.209455 232.154747 
L 258.475636 231.733467 
L 258.741818 230.902151 
L 259.274182 228.230471 
L 259.540364 227.567081 
L 259.806545 227.460655 
L 260.072727 227.755557 
L 260.871273 229.909694 
L 261.137455 230.117885 
L 261.669818 229.753312 
L 261.936 229.422271 
L 262.468364 228.10131 
L 262.734545 227.938361 
L 263.000727 227.959604 
L 263.266909 227.824281 
L 263.533091 227.94232 
L 264.065455 228.536872 
L 264.331636 228.358 
L 264.597818 228.004285 
L 265.130182 227.624841 
L 265.662545 226.399097 
L 265.928727 226.161148 
L 266.461091 226.263396 
L 267.259636 227.502746 
L 267.792 227.205238 
L 268.058182 227.003121 
L 268.324364 226.604119 
L 268.856727 225.046632 
L 269.122909 224.666767 
L 269.921455 225.3111 
L 270.453818 225.857679 
L 270.72 225.84711 
L 271.252364 225.256508 
L 271.518545 224.649614 
L 272.050909 222.892793 
L 272.317091 222.464288 
L 272.849455 222.492018 
L 273.648 222.493133 
L 273.914182 222.178524 
L 275.245091 218.934317 
L 275.511273 218.502582 
L 276.576 217.771161 
L 276.842182 217.888025 
L 277.374545 217.707055 
L 278.173091 216.893304 
L 278.705455 215.952893 
L 279.504 215.415688 
L 279.770182 215.468831 
L 280.036364 215.719342 
L 281.101091 215.933282 
L 281.633455 215.490768 
L 282.165818 215.403408 
L 282.432 215.254917 
L 282.964364 215.354022 
L 283.496727 215.686661 
L 284.029091 215.798547 
L 284.295273 215.681455 
L 285.093818 214.622733 
L 285.626182 214.448381 
L 285.892364 214.568159 
L 286.424727 215.095497 
L 287.489455 215.277951 
L 288.288 214.540157 
L 288.820364 214.279595 
L 290.417455 215.04914 
L 290.683636 214.78928 
L 291.216 213.671683 
L 292.014545 212.750891 
L 292.546909 212.955334 
L 293.079273 213.137612 
L 293.345455 213.254186 
L 293.611636 213.153483 
L 293.877818 212.862575 
L 294.410182 212.058112 
L 295.208727 211.247574 
L 295.741091 211.29121 
L 296.539636 211.177831 
L 296.805818 211.127682 
L 297.338182 210.456558 
L 297.870545 210.294268 
L 298.402909 209.905343 
L 298.669091 209.929729 
L 298.935273 210.325948 
L 299.467636 209.910514 
L 299.733818 209.849804 
L 300.532364 209.050072 
L 301.064727 209.076055 
L 301.597091 208.806566 
L 301.863273 208.932243 
L 302.395636 208.807865 
L 302.661818 208.692784 
L 302.928 208.711833 
L 303.194182 208.613798 
L 303.460364 208.30321 
L 303.726545 208.190078 
L 303.992727 208.263875 
L 304.791273 207.950786 
L 305.057455 208.046099 
L 306.122182 207.658351 
L 306.920727 206.803237 
L 307.453091 206.655194 
L 307.985455 206.473776 
L 308.251636 206.494334 
L 309.050182 206.128865 
L 309.316364 206.047518 
L 309.848727 205.540063 
L 310.114909 205.433997 
L 310.381091 205.466142 
L 310.647273 205.294644 
L 311.712 205.344697 
L 312.510545 205.099576 
L 312.776727 204.653383 
L 313.042909 204.543402 
L 313.309091 204.573309 
L 313.575273 204.722836 
L 313.841455 204.678559 
L 314.64 205.213112 
L 315.438545 204.964656 
L 315.704727 204.868702 
L 315.970909 205.032221 
L 316.237091 204.844404 
L 317.301818 204.855693 
L 317.834182 205.159478 
L 318.366545 204.904982 
L 318.898909 204.808519 
L 319.165091 204.306497 
L 319.431273 204.043908 
L 319.697455 203.957312 
L 319.963636 204.025509 
L 320.229818 203.933558 
L 320.496 204.009717 
L 321.028364 204.648933 
L 321.294545 204.462257 
L 321.826909 204.313301 
L 322.093091 204.204083 
L 322.359273 203.682293 
L 322.891636 203.476445 
L 323.157818 203.635321 
L 323.424 203.249697 
L 323.956364 203.453482 
L 324.754909 203.961719 
L 325.287273 203.859383 
L 325.553455 203.479009 
L 325.819636 203.463656 
L 326.618182 203.736129 
L 327.416727 205.008757 
L 327.682909 205.044484 
L 328.215273 205.274928 
L 328.481455 205.209829 
L 328.747636 204.899487 
L 329.013818 204.839506 
L 329.812364 205.033626 
L 330.877091 206.238768 
L 331.409455 206.513567 
L 331.675636 206.535056 
L 331.941818 206.300891 
L 332.208 206.306588 
L 333.006545 206.761497 
L 333.272727 207.054678 
L 333.805091 207.810151 
L 334.337455 207.957861 
L 334.869818 208.422883 
L 335.402182 208.460409 
L 335.934545 208.795111 
L 336.200727 208.673683 
L 336.466909 208.845497 
L 336.999273 209.751858 
L 337.265455 209.984189 
L 337.531636 210.40934 
L 338.064 211.658408 
L 338.330182 211.835349 
L 338.596364 212.249782 
L 339.128727 213.436771 
L 339.394909 213.563071 
L 339.661091 214.046492 
L 340.193455 215.839585 
L 340.459636 216.238674 
L 341.258182 218.752215 
L 341.524364 217.564884 
L 341.790545 217.905046 
L 342.322909 218.874064 
L 342.589091 219.076014 
L 342.855273 219.506178 
L 343.387636 220.916325 
L 344.452364 222.93319 
L 344.984727 223.333762 
L 345.517091 224.344986 
L 346.049455 224.840223 
L 346.581818 225.716887 
L 347.114182 225.819292 
L 348.178909 226.996441 
L 348.711273 228.05167 
L 349.776 228.852236 
L 350.308364 228.596994 
L 350.840727 228.674382 
L 351.373091 229.056872 
L 351.905455 229.460947 
L 352.437818 229.667426 
L 353.236364 229.302115 
L 354.567273 228.872768 
L 354.833455 228.856274 
L 355.365818 228.382851 
L 355.898182 227.728432 
L 357.229091 225.438751 
L 357.761455 223.906457 
L 358.293818 222.644503 
L 358.56 223.839761 
L 358.826182 223.759581 
L 360.157091 224.105536 
L 361.221818 223.696098 
L 362.020364 222.415262 
L 362.552727 222.653386 
L 363.085091 223.229575 
L 363.351273 223.397632 
L 363.883636 223.27049 
L 364.416 222.913061 
L 365.214545 221.35625 
L 365.746909 221.373244 
L 366.545455 221.835835 
L 366.811636 221.753575 
L 367.077818 222.431124 
L 367.344 222.53827 
L 367.610182 222.462918 
L 368.142545 221.717058 
L 368.408727 221.64929 
L 369.739636 222.216472 
L 371.070545 220.64113 
L 371.336727 220.885443 
L 372.933818 223.911961 
L 373.466182 224.145635 
L 373.998545 224.675931 
L 374.264727 224.736913 
L 374.530909 225.085949 
L 375.329455 226.77661 
L 375.595636 228.395615 
L 376.128 229.245453 
L 376.926545 228.95113 
L 377.192727 228.775611 
L 377.725091 228.094042 
L 378.257455 228.171737 
L 378.789818 228.104663 
L 379.322182 228.439295 
L 379.588364 228.340295 
L 379.854545 228.411117 
L 380.919273 228.082639 
L 381.717818 228.479191 
L 381.984 228.558528 
L 382.516364 229.103826 
L 383.314909 229.272024 
L 383.581091 229.447165 
L 383.847273 229.486272 
L 385.178182 231.318199 
L 385.710545 231.759318 
L 386.242909 231.817061 
L 386.775273 232.129712 
L 387.307636 232.218547 
L 389.170909 234.497861 
L 389.437091 234.702909 
L 390.235636 236.620414 
L 390.501818 237.695254 
L 391.832727 245.104968 
L 392.365091 244.932697 
L 392.631273 240.674378 
L 392.897455 240.300746 
L 393.429818 239.081252 
L 395.026909 236.866589 
L 395.825455 235.515405 
L 396.357818 235.151744 
L 396.624 234.940489 
L 396.890182 234.387177 
L 397.156364 234.116775 
L 397.688727 233.834462 
L 398.221091 233.277225 
L 399.019636 232.475606 
L 399.285818 232.46832 
L 399.552 232.621261 
L 399.818182 232.622402 
L 400.350545 232.911756 
L 400.616727 233.137153 
L 400.882909 233.136766 
L 401.149091 232.985598 
L 401.415273 232.987476 
L 401.681455 233.100618 
L 401.947636 233.058298 
L 402.213818 233.162311 
L 403.012364 233.119298 
L 403.278545 233.133571 
L 403.544727 233.279297 
L 404.077091 233.990616 
L 404.609455 234.485071 
L 404.875636 234.653084 
L 405.141818 234.574608 
L 405.674182 233.974798 
L 405.940364 233.842731 
L 406.472727 233.359002 
L 407.537455 232.519681 
L 407.803636 232.335419 
L 408.069818 232.356065 
L 408.868364 231.725075 
L 409.134545 231.415874 
L 409.933091 229.205819 
L 410.199273 229.074595 
L 410.731636 229.569208 
L 411.530182 230.325629 
L 411.796364 230.335065 
L 412.062545 230.071695 
L 412.861091 230.045325 
L 413.127273 230.08251 
L 413.659636 230.455607 
L 413.925818 229.570639 
L 414.192 229.481128 
L 414.458182 229.636905 
L 414.724364 229.56294 
L 414.990545 229.323859 
L 415.256727 228.825682 
L 416.055273 228.175459 
L 416.321455 228.105638 
L 416.853818 228.696415 
L 417.652364 229.412027 
L 417.918545 229.215537 
L 418.184727 227.344441 
L 418.450909 226.364169 
L 418.983273 225.36742 
L 419.515636 225.144965 
L 419.781818 225.301373 
L 420.314182 225.079541 
L 420.580364 225.049634 
L 420.846545 225.402024 
L 421.112727 225.430316 
L 421.378909 225.792844 
L 421.645091 225.758319 
L 421.911273 225.994118 
L 422.177455 225.759118 
L 422.443636 224.628239 
L 422.709818 224.356617 
L 422.976 224.675255 
L 423.242182 224.779004 
L 423.508364 225.427471 
L 423.774545 225.492474 
L 424.040727 225.437391 
L 424.306909 224.888441 
L 424.839273 223.253258 
L 425.105455 222.575928 
L 425.371636 221.520418 
L 425.637818 217.835777 
L 425.904 215.871045 
L 426.436364 208.70323 
L 426.436364 208.70323 
" clip-path="url(#pfa4260ce5f)" style="fill: none; stroke: #0000ff; stroke-width: 3; stroke-linecap: square"/>
   </g>
   <g id="patch_3">
    <path d="M 7.2 331.2 
L 7.2 7.2 
" style="fill: none; stroke: #000000; stroke-width: 0.8; stroke-linejoin: miter; stroke-linecap: square"/>
   </g>
   <g id="patch_4">
    <path d="M 446.4 331.2 
L 446.4 7.2 
" style="fill: none; stroke: #000000; stroke-width: 0.8; stroke-linejoin: miter; stroke-linecap: square"/>
   </g>
   <g id="patch_5">
    <path d="M 7.2 331.2 
L 446.4 331.2 
" style="fill: none; stroke: #000000; stroke-width: 0.8; stroke-linejoin: miter; stroke-linecap: square"/>
   </g>
   <g id="patch_6">
    <path d="M 7.2 7.2 
L 446.4 7.2 
" style="fill: none; stroke: #000000; stroke-width: 0.8; stroke-linejoin: miter; stroke-linecap: square"/>
   </g>
  </g>
 </g>
 <defs>
  <clipPath id="pfa4260ce5f">
   <rect x="7.2" y="7.2" width="439.2" height="324"/>
  </clipPath>
 </defs>
</svg>
