<?xml version="1.0" encoding="utf-8" standalone="no"?>
<!DOCTYPE svg PUBLIC "-//W3C//DTD SVG 1.1//EN"
  "http://www.w3.org/Graphics/SVG/1.1/DTD/svg11.dtd">
<svg xmlns:xlink="http://www.w3.org/1999/xlink" width="453.6pt" height="338.4pt" viewBox="0 0 453.6 338.4" xmlns="http://www.w3.org/2000/svg" version="1.1">
 <metadata>
  <rdf:RDF xmlns:dc="http://purl.org/dc/elements/1.1/" xmlns:cc="http://creativecommons.org/ns#" xmlns:rdf="http://www.w3.org/1999/02/22-rdf-syntax-ns#">
   <cc:Work>
    <dc:type rdf:resource="http://purl.org/dc/dcmitype/StillImage"/>
    <dc:date>2025-05-14T16:26:06.239830</dc:date>
    <dc:format>image/svg+xml</dc:format>
    <dc:creator>
     <cc:Agent>
      <dc:title>Matplotlib v3.10.1, https://matplotlib.org/</dc:title>
     </cc:Agent>
    </dc:creator>
   </cc:Work>
  </rdf:RDF>
 </metadata>
 <defs>
  <style type="text/css">*{stroke-linejoin: round; stroke-linecap: butt}</style>
 </defs>
 <g id="figure_1">
  <g id="patch_1">
   <path d="M 0 338.4 
L 453.6 338.4 
L 453.6 0 
L 0 0 
z
" style="fill: #ffffff"/>
  </g>
  <g id="axes_1">
   <g id="patch_2">
    <path d="M 7.2 331.2 
L 446.4 331.2 
L 446.4 7.2 
L 7.2 7.2 
z
" style="fill: #ffffff"/>
   </g>
   <g id="matplotlib.axis_1"/>
   <g id="matplotlib.axis_2"/>
   <g id="line2d_1">
    <path d="M 27.163636 172.131617 
L 29.825455 166.308938 
L 32.221091 161.612809 
L 34.350545 157.890931 
L 36.48 154.61205 
L 38.343273 152.119287 
L 40.206545 149.989219 
L 41.803636 148.460489 
L 43.400727 147.213186 
L 44.997818 146.254332 
L 46.328727 145.680575 
L 47.659636 145.315931 
L 48.990545 145.164333 
L 50.321455 145.229871 
L 51.652364 145.516547 
L 52.983273 146.028312 
L 54.314182 146.769205 
L 55.645091 147.743245 
L 57.242182 149.225451 
L 58.839273 151.056079 
L 60.436364 153.242011 
L 62.033455 155.790217 
L 63.896727 159.230194 
L 65.76 163.183657 
L 67.623273 167.661596 
L 69.486545 172.675002 
L 71.616 179.074396 
L 72.680727 182.54687 
L 72.946909 182.618219 
L 75.076364 180.665083 
L 76.939636 179.239232 
L 78.802909 178.065929 
L 80.666182 177.133919 
L 82.529455 176.431922 
L 84.392727 175.948738 
L 86.256 175.673131 
L 88.385455 175.59785 
L 90.514909 175.76222 
L 92.644364 176.149442 
L 95.04 176.83052 
L 97.435636 177.748511 
L 100.097455 179.017312 
L 103.025455 180.677601 
L 106.219636 182.755254 
L 109.946182 185.456999 
L 114.737455 189.2318 
L 128.845091 200.566642 
L 132.571636 203.180087 
L 135.765818 205.158907 
L 138.693818 206.709846 
L 141.355636 207.863627 
L 143.751273 208.66544 
L 146.146909 209.218314 
L 148.276364 209.481456 
L 150.405818 209.512267 
L 152.269091 209.335432 
L 154.132364 208.95662 
L 155.995636 208.364587 
L 157.858909 207.548088 
L 159.722182 206.495888 
L 161.585455 205.196724 
L 163.448727 203.639376 
L 165.312 201.812602 
L 167.175273 199.705138 
L 169.304727 196.938514 
L 171.434182 193.77382 
L 173.563636 190.194297 
L 175.693091 186.183135 
L 176.225455 180.12765 
L 177.822545 161.093652 
L 179.419636 144.963243 
L 180.750545 133.60593 
L 182.081455 124.029788 
L 183.412364 116.127971 
L 184.477091 110.940319 
L 185.541818 106.701163 
L 186.606545 103.355832 
L 187.671273 100.849463 
L 188.469818 99.487535 
L 189.268364 98.543709 
L 190.066909 97.994865 
L 190.599273 97.837086 
L 191.131636 97.837771 
L 191.930182 98.120954 
L 192.728727 98.722274 
L 193.527273 99.61861 
L 194.592 101.232786 
L 195.656727 103.275723 
L 196.987636 106.348967 
L 198.584727 110.657909 
L 200.714182 117.153784 
L 207.901091 139.890901 
L 209.498182 143.957409 
L 210.829091 137.798316 
L 211.893818 133.88906 
L 212.958545 130.837147 
L 213.757091 129.080343 
L 214.555636 127.755792 
L 215.354182 126.842093 
L 216.152727 126.31788 
L 216.685091 126.174199 
L 217.217455 126.187683 
L 218.016 126.488896 
L 218.814545 127.108141 
L 219.613091 128.024069 
L 220.677818 129.669637 
L 221.742545 131.753777 
L 223.073455 134.898212 
L 224.670545 139.331699 
L 226.533818 145.197602 
L 229.461818 155.296341 
L 233.720727 169.965331 
L 235.584 175.651809 
L 237.181091 179.872619 
L 238.512 182.798355 
L 239.576727 184.680362 
L 240.641455 186.099734 
L 241.44 186.830101 
L 242.238545 187.250276 
L 243.037091 187.338803 
L 243.569455 187.203014 
L 244.101818 186.903952 
L 244.900364 186.135399 
L 245.698909 184.963781 
L 246.497455 183.367775 
L 247.296 181.325901 
L 247.828364 179.706335 
L 248.094545 179.387662 
L 249.957818 180.208058 
L 251.821091 180.767059 
L 253.684364 181.076427 
L 255.547636 181.147968 
L 257.410909 180.993552 
L 259.274182 180.624932 
L 261.403636 179.956555 
L 263.533091 179.04154 
L 265.662545 177.897494 
L 268.058182 176.358642 
L 270.72 174.365575 
L 273.648 171.868668 
L 276.842182 168.833197 
L 280.568727 164.958193 
L 285.093818 159.900036 
L 292.280727 151.46665 
L 299.467636 143.13711 
L 303.726545 138.526621 
L 307.186909 135.080183 
L 310.381091 132.207906 
L 313.309091 129.887879 
L 315.970909 128.078301 
L 318.366545 126.723044 
L 320.496 125.756852 
L 322.625455 125.033498 
L 324.488727 124.613657 
L 326.352 124.405036 
L 328.215273 124.419485 
L 330.078545 124.668819 
L 331.941818 125.164836 
L 333.805091 125.919388 
L 335.668364 126.944253 
L 337.531636 128.251248 
L 339.394909 129.852275 
L 341.258182 131.759027 
L 343.121455 133.98339 
L 344.984727 136.537196 
L 347.114182 139.874328 
L 349.243636 143.674823 
L 351.373091 147.95629 
L 352.970182 151.406713 
L 354.833455 151.676167 
L 356.962909 151.751185 
L 359.358545 151.58907 
L 362.020364 151.173285 
L 365.480727 150.393628 
L 373.466182 148.502747 
L 376.128 148.135505 
L 378.523636 148.032748 
L 380.653091 148.172987 
L 382.516364 148.509155 
L 384.379636 149.074204 
L 386.242909 149.896452 
L 387.84 150.827338 
L 389.437091 151.985807 
L 391.034182 153.389659 
L 392.631273 155.056716 
L 394.494545 157.358045 
L 396.357818 160.070174 
L 398.221091 163.221456 
L 400.084364 166.840155 
L 401.947636 170.954522 
L 403.810909 175.592952 
L 405.674182 180.783711 
L 407.803636 187.428568 
L 409.933091 194.874089 
L 412.062545 203.162355 
L 414.192 212.335843 
L 416.321455 222.436575 
L 418.717091 234.960986 
L 421.112727 248.772773 
L 423.508364 263.93189 
L 425.904 280.498563 
L 426.436364 284.377342 
L 426.436364 284.377342 
" clip-path="url(#pe3a4e7a84e)" style="fill: none; stroke-dasharray: 11.1,4.8; stroke-dashoffset: 0; stroke: #000000; stroke-width: 3"/>
   </g>
   <g id="line2d_2">
    <path d="M 27.163636 101.562564 
L 29.559273 114.982951 
L 30.357818 118.277895 
L 31.156364 120.60117 
L 31.688727 121.567046 
L 32.221091 122.081901 
L 32.753455 122.187941 
L 33.285818 121.948228 
L 33.818182 121.442326 
L 34.882909 120.004625 
L 35.947636 118.680408 
L 36.48 118.306687 
L 37.012364 118.236427 
L 37.544727 118.534076 
L 38.077091 119.243613 
L 38.609455 120.383841 
L 39.408 122.874058 
L 40.472727 127.476384 
L 43.400727 141.441033 
L 43.666909 142.312597 
L 43.933091 144.723653 
L 44.731636 159.094396 
L 45.796364 182.537398 
L 46.062545 184.095641 
L 46.328727 183.889197 
L 46.594909 183.865662 
L 46.861091 184.005481 
L 47.393455 184.716273 
L 47.925818 185.858818 
L 48.990545 188.925355 
L 51.12 195.378604 
L 51.918545 197.138708 
L 52.450909 197.956234 
L 52.983273 198.461153 
L 53.515636 198.640033 
L 54.048 198.448266 
L 54.580364 197.898395 
L 55.112727 196.985688 
L 55.911273 194.950046 
L 56.709818 192.136179 
L 57.774545 187.261863 
L 58.839273 181.383424 
L 60.436364 171.161045 
L 61.767273 156.890206 
L 63.098182 140.130597 
L 64.429091 121.049979 
L 66.026182 95.214337 
L 67.623273 66.183031 
L 68.155636 55.755656 
L 68.421818 54.331982 
L 70.551273 60.397886 
L 74.277818 70.131403 
L 76.673455 76.64738 
L 76.939636 77.419031 
L 77.472 80.147996 
L 79.601455 93.160954 
L 81.198545 104.344356 
L 82.529455 115.233268 
L 83.860364 128.118101 
L 84.925091 140.338692 
L 85.989818 154.782083 
L 87.054545 172.079826 
L 88.119273 193.035473 
L 89.184 215.227529 
L 89.450182 215.789356 
L 89.716364 215.959512 
L 89.982545 215.742051 
L 90.248727 215.124184 
L 90.781091 212.678129 
L 91.313455 208.735683 
L 92.112 200.199909 
L 92.910545 189.001084 
L 93.709091 175.973387 
L 95.04 170.193088 
L 97.169455 159.601737 
L 99.032727 150.657833 
L 100.097455 146.424277 
L 100.896 143.903757 
L 101.694545 142.052939 
L 102.226909 141.240031 
L 102.759273 140.762869 
L 103.291636 140.62593 
L 103.824 140.82558 
L 104.356364 141.349617 
L 105.154909 142.728926 
L 105.953455 144.598038 
L 107.550545 149.325715 
L 108.881455 153.17937 
L 109.946182 155.447396 
L 110.212364 155.83553 
L 110.478545 157.814508 
L 111.277091 171.024246 
L 112.075636 187.79819 
L 112.608 199.350817 
L 113.406545 202.517267 
L 114.205091 204.899347 
L 115.003636 206.63827 
L 115.802182 207.855279 
L 116.600727 208.630995 
L 117.399273 209.034473 
L 118.197818 209.137265 
L 118.996364 208.986852 
L 120.061091 208.486094 
L 121.658182 207.389064 
L 122.989091 206.570818 
L 123.787636 206.369255 
L 124.32 206.465059 
L 124.852364 206.812963 
L 125.384727 207.512221 
L 125.917091 208.641511 
L 126.449455 210.333208 
L 128.046545 217.146772 
L 128.578909 220.079908 
L 128.845091 218.122261 
L 130.442182 175.829865 
L 131.240727 161.884668 
L 131.773091 155.411089 
L 132.305455 151.164278 
L 132.837818 148.872833 
L 133.104 148.40689 
L 133.370182 148.396865 
L 133.636364 148.798008 
L 134.168727 150.66647 
L 134.701091 153.777934 
L 135.499636 160.323125 
L 136.830545 174.030004 
L 138.693818 193.320692 
L 139.758545 201.847249 
L 140.557091 206.402612 
L 141.089455 208.503624 
L 141.621818 209.851446 
L 142.154182 210.468558 
L 142.420364 210.560061 
L 142.686545 210.472262 
L 143.218909 209.930528 
L 143.485091 209.466691 
L 143.751273 208.614035 
L 144.283636 205.026191 
L 144.816 200.821067 
L 145.614545 211.60631 
L 146.413091 219.451876 
L 146.945455 222.995435 
L 147.477818 225.189619 
L 147.744 225.768906 
L 148.010182 226.019241 
L 148.276364 225.903466 
L 148.542545 225.480965 
L 149.074909 223.606411 
L 149.607273 220.452066 
L 150.139636 216.077411 
L 150.938182 207.388958 
L 152.002909 192.383643 
L 153.333818 169.520209 
L 155.729455 124.935481 
L 155.995636 132.562121 
L 157.060364 173.600604 
L 157.858909 196.861363 
L 158.657455 213.942357 
L 159.189818 222.11124 
L 159.722182 227.790775 
L 160.254545 231.166338 
L 162.650182 231.911373 
L 164.247273 232.199402 
L 165.578182 232.294486 
L 166.909091 232.245618 
L 168.24 232.029106 
L 169.304727 231.712847 
L 170.635636 231.106699 
L 171.700364 230.419467 
L 172.765091 229.521999 
L 173.829818 228.381096 
L 174.894545 226.942824 
L 176.225455 224.668988 
L 176.757818 223.585467 
L 177.290182 221.721508 
L 178.088727 217.782134 
L 178.887273 212.639435 
L 179.685818 206.147299 
L 180.484364 198.136897 
L 181.549091 184.916766 
L 182.081455 177.187404 
L 182.88 175.982201 
L 183.412364 174.011737 
L 183.944727 171.029215 
L 184.743273 165.058983 
L 186.872727 147.968948 
L 187.405091 145.803592 
L 187.671273 145.404871 
L 187.937455 145.605698 
L 188.203636 146.452086 
L 188.469818 148.033292 
L 189.002182 153.881042 
L 189.534545 163.916315 
L 190.066909 178.979654 
L 190.599273 200.114831 
L 191.131636 228.220947 
L 191.930182 285.733586 
L 192.196364 306.871476 
L 192.462545 309.872178 
L 192.728727 308.436971 
L 193.261091 303.645298 
L 193.527273 300.297886 
L 194.592 293.240824 
L 196.189091 280.769119 
L 198.052364 264.152976 
L 199.915636 245.505629 
L 201.512727 227.603853 
L 203.109818 207.326458 
L 204.706909 183.829031 
L 206.037818 161.045074 
L 207.368727 134.590398 
L 208.699636 103.657168 
L 210.030545 67.395345 
L 210.562909 52.520262 
L 210.829091 48.941784 
L 216.685091 201.037668 
L 218.016 228.462232 
L 219.080727 246.784191 
L 220.145455 261.539671 
L 220.944 270.19898 
L 221.742545 276.763088 
L 222.541091 281.365718 
L 223.073455 283.403656 
L 223.605818 284.678347 
L 224.138182 285.258154 
L 224.404364 285.312964 
L 224.670545 285.226574 
L 224.936727 283.833539 
L 225.202909 279.859897 
L 226.267636 256.380944 
L 226.8 246.52858 
L 227.864727 202.056406 
L 228.929455 168.230033 
L 229.728 149.77584 
L 230.526545 136.929684 
L 231.058909 131.311166 
L 231.591273 127.891063 
L 231.857455 126.975872 
L 232.123636 126.54404 
L 232.389818 126.578626 
L 232.656 127.061862 
L 232.922182 127.97507 
L 233.454545 131.012148 
L 233.986909 135.522162 
L 234.785455 144.648108 
L 235.850182 160.17897 
L 237.447273 188.16422 
L 240.641455 245.50907 
L 241.972364 265.0277 
L 243.037091 277.439725 
L 243.303273 280.040312 
L 243.835636 303.892026 
L 244.634182 245.328188 
L 245.432727 206.00009 
L 245.965091 187.926912 
L 246.497455 174.970511 
L 247.029818 166.171823 
L 247.562182 160.716789 
L 248.094545 158.040159 
L 248.360727 157.5203 
L 248.626909 157.513892 
L 248.893091 157.968003 
L 249.425455 160.002407 
L 249.957818 163.319525 
L 250.756364 170.231396 
L 251.821091 182.239047 
L 253.152 200.653879 
L 254.482909 222.238813 
L 256.08 252.183172 
L 257.410909 280.497585 
L 257.677091 276.646378 
L 259.008 215.148096 
L 260.072727 175.610859 
L 261.137455 172.981192 
L 261.936 170.510032 
L 263.266909 165.393009 
L 264.864 157.825393 
L 268.856727 137.790416 
L 269.655273 135.202761 
L 270.187636 134.06608 
L 270.72 133.607229 
L 270.986182 133.610968 
L 271.252364 133.861268 
L 271.784727 135.018595 
L 272.317091 137.146328 
L 272.849455 140.434988 
L 273.381818 145.036593 
L 274.180364 154.659575 
L 274.978909 168.044709 
L 275.777455 185.637266 
L 276.576 207.924258 
L 277.374545 238.134959 
L 278.439273 286.315042 
L 278.705455 299.487221 
L 278.971636 298.584652 
L 280.036364 240.543382 
L 280.834909 206.522451 
L 281.633455 180.787073 
L 282.165818 168.245079 
L 282.698182 159.419644 
L 283.230545 154.284924 
L 283.496727 153.093678 
L 283.762909 152.79243 
L 284.029091 153.408462 
L 284.295273 154.950307 
L 284.827636 160.653078 
L 285.36 169.897818 
L 285.892364 182.565453 
L 286.690909 207.872897 
L 287.489455 240.417697 
L 288.288 279.889115 
L 288.554182 284.589558 
L 289.618909 209.314663 
L 290.417455 168.216901 
L 291.216 139.170321 
L 291.748364 125.875076 
L 292.280727 117.008295 
L 292.813091 112.139764 
L 293.079273 111.077785 
L 293.345455 110.908876 
L 293.877818 111.371712 
L 294.410182 112.443997 
L 294.942545 114.088967 
L 295.474909 116.352112 
L 296.273455 120.903436 
L 297.072 126.901609 
L 297.870545 134.380565 
L 298.935273 146.705862 
L 300 161.774467 
L 301.330909 184.343325 
L 302.129455 199.689381 
L 302.395636 197.605495 
L 303.194182 187.294368 
L 303.726545 182.35045 
L 304.258909 179.05296 
L 304.791273 177.379355 
L 305.057455 177.137289 
L 305.323636 177.320621 
L 305.589818 177.895484 
L 306.122182 180.218004 
L 306.654545 184.031587 
L 307.453091 192.294229 
L 308.517818 207.050649 
L 310.114909 230.33884 
L 310.913455 231.179013 
L 311.712 232.323445 
L 312.776727 234.358903 
L 313.841455 236.942537 
L 315.172364 240.762686 
L 317.568 247.700655 
L 318.366545 249.175646 
L 318.898909 249.591479 
L 319.165091 249.561401 
L 319.431273 249.347188 
L 319.697455 247.242875 
L 322.359273 204.148438 
L 323.157818 194.919279 
L 323.956364 187.913991 
L 324.754909 183.103702 
L 325.287273 180.990682 
L 325.819636 179.572547 
L 326.618182 178.176191 
L 328.215273 177.735678 
L 329.546182 177.17062 
L 330.610909 176.495476 
L 331.409455 175.782366 
L 332.208 174.817087 
L 333.006545 173.506801 
L 333.805091 171.742693 
L 334.603636 169.40137 
L 335.402182 166.347175 
L 336.200727 162.370187 
L 336.999273 157.35571 
L 337.797818 161.66532 
L 338.330182 163.581465 
L 338.862545 164.763388 
L 339.394909 165.25514 
L 339.661091 165.259669 
L 339.927273 165.111547 
L 340.459636 164.396076 
L 340.992 163.206076 
L 341.790545 160.72706 
L 343.121455 155.584475 
L 344.452364 148.903697 
L 344.984727 147.765805 
L 345.250909 147.658764 
L 345.517091 147.855394 
L 345.783273 148.352272 
L 346.315636 150.343364 
L 346.848 153.599071 
L 347.380364 158.086613 
L 348.178909 167.092913 
L 348.977455 178.773535 
L 350.042182 198.454016 
L 351.106909 222.997876 
L 352.171636 253.268817 
L 352.970182 278.716465 
L 353.236364 281.149162 
L 355.365818 255.98914 
L 357.761455 230.292518 
L 359.890909 208.938774 
L 365.746909 173.134529 
L 367.610182 159.764396 
L 368.941091 149.794046 
L 369.473455 147.578268 
L 370.005818 146.090672 
L 370.538182 145.295233 
L 371.070545 145.034768 
L 371.336727 145.069985 
L 371.869091 145.504503 
L 372.401455 146.24213 
L 373.2 147.812083 
L 376.660364 155.540181 
L 377.458909 159.21097 
L 378.257455 163.869809 
L 379.322182 171.860215 
L 380.386909 182.093936 
L 381.451636 194.720674 
L 382.782545 213.882209 
L 384.113455 236.425549 
L 386.509091 281.869401 
L 387.307636 296.774301 
L 387.573818 296.812861 
L 389.170909 205.945718 
L 389.969455 177.453504 
L 390.501818 164.822851 
L 391.034182 156.791118 
L 391.566545 152.933091 
L 391.832727 152.346009 
L 392.098909 152.537443 
L 392.365091 153.409252 
L 392.897455 156.758551 
L 393.962182 164.964864 
L 394.760727 169.939031 
L 395.026909 170.959692 
L 395.293091 171.522011 
L 395.559273 171.535266 
L 395.825455 170.850422 
L 396.091636 169.408586 
L 396.624 163.880957 
L 396.890182 159.544469 
L 397.954909 188.284279 
L 398.753455 202.771956 
L 399.285818 208.926941 
L 399.818182 212.360738 
L 400.084364 213.125814 
L 400.350545 213.283909 
L 400.616727 212.854772 
L 400.882909 211.834971 
L 401.415273 208.161794 
L 401.947636 202.485262 
L 402.746182 190.519553 
L 403.544727 175.03597 
L 404.609455 149.993099 
L 406.472727 104.317284 
L 407.271273 122.616806 
L 407.803636 130.495308 
L 408.336 135.674902 
L 408.868364 138.780765 
L 409.400727 140.348032 
L 409.933091 140.887957 
L 410.199273 140.860394 
L 411.264 140.18855 
L 411.530182 140.208371 
L 411.796364 140.376051 
L 412.062545 140.745716 
L 412.594909 142.118512 
L 413.127273 144.438381 
L 413.659636 147.692876 
L 414.458182 154.203551 
L 415.522909 165.379877 
L 417.12 185.292812 
L 419.781818 218.559833 
L 421.112727 232.590169 
L 422.443636 244.232254 
L 423.774545 253.766186 
L 425.637818 264.752185 
L 426.436364 269.188568 
L 426.436364 269.188568 
" clip-path="url(#pe3a4e7a84e)" style="fill: none; stroke: #ff0000; stroke-width: 3; stroke-linecap: square"/>
   </g>
   <g id="patch_3">
    <path d="M 7.2 331.2 
L 7.2 7.2 
" style="fill: none; stroke: #000000; stroke-width: 0.8; stroke-linejoin: miter; stroke-linecap: square"/>
   </g>
   <g id="patch_4">
    <path d="M 446.4 331.2 
L 446.4 7.2 
" style="fill: none; stroke: #000000; stroke-width: 0.8; stroke-linejoin: miter; stroke-linecap: square"/>
   </g>
   <g id="patch_5">
    <path d="M 7.2 331.2 
L 446.4 331.2 
" style="fill: none; stroke: #000000; stroke-width: 0.8; stroke-linejoin: miter; stroke-linecap: square"/>
   </g>
   <g id="patch_6">
    <path d="M 7.2 7.2 
L 446.4 7.2 
" style="fill: none; stroke: #000000; stroke-width: 0.8; stroke-linejoin: miter; stroke-linecap: square"/>
   </g>
  </g>
 </g>
 <defs>
  <clipPath id="pe3a4e7a84e">
   <rect x="7.2" y="7.2" width="439.2" height="324"/>
  </clipPath>
 </defs>
</svg>
