<?xml version="1.0" encoding="utf-8" standalone="no"?>
<!DOCTYPE svg PUBLIC "-//W3C//DTD SVG 1.1//EN"
  "http://www.w3.org/Graphics/SVG/1.1/DTD/svg11.dtd">
<svg xmlns:xlink="http://www.w3.org/1999/xlink" width="453.6pt" height="338.4pt" viewBox="0 0 453.6 338.4" xmlns="http://www.w3.org/2000/svg" version="1.1">
 <metadata>
  <rdf:RDF xmlns:dc="http://purl.org/dc/elements/1.1/" xmlns:cc="http://creativecommons.org/ns#" xmlns:rdf="http://www.w3.org/1999/02/22-rdf-syntax-ns#">
   <cc:Work>
    <dc:type rdf:resource="http://purl.org/dc/dcmitype/StillImage"/>
    <dc:date>2025-05-14T16:18:40.314372</dc:date>
    <dc:format>image/svg+xml</dc:format>
    <dc:creator>
     <cc:Agent>
      <dc:title>Matplotlib v3.10.1, https://matplotlib.org/</dc:title>
     </cc:Agent>
    </dc:creator>
   </cc:Work>
  </rdf:RDF>
 </metadata>
 <defs>
  <style type="text/css">*{stroke-linejoin: round; stroke-linecap: butt}</style>
 </defs>
 <g id="figure_1">
  <g id="patch_1">
   <path d="M 0 338.4 
L 453.6 338.4 
L 453.6 0 
L 0 0 
z
" style="fill: #ffffff"/>
  </g>
  <g id="axes_1">
   <g id="patch_2">
    <path d="M 7.2 331.2 
L 446.4 331.2 
L 446.4 7.2 
L 7.2 7.2 
z
" style="fill: #ffffff"/>
   </g>
   <g id="matplotlib.axis_1"/>
   <g id="matplotlib.axis_2"/>
   <g id="line2d_1">
    <path d="M 27.163636 51.123748 
L 31.688727 61.056633 
L 36.213818 71.544437 
L 40.738909 82.587125 
L 45.530182 94.884138 
L 50.321455 107.803241 
L 55.112727 121.34445 
L 60.170182 136.312739 
L 65.227636 151.974237 
L 70.551273 169.208796 
L 75.874909 187.211353 
L 81.198545 205.981911 
L 86.788364 226.517558 
L 92.378182 247.899928 
L 95.04 258.379612 
L 95.306182 258.782743 
L 97.701818 255.830546 
L 100.097455 253.223996 
L 102.493091 250.96309 
L 104.622545 249.243571 
L 106.752 247.797149 
L 108.881455 246.623841 
L 111.010909 245.723638 
L 112.874182 245.159981 
L 114.737455 244.805423 
L 116.600727 244.659956 
L 118.464 244.723598 
L 120.327273 244.996317 
L 122.190545 245.478144 
L 124.053818 246.169072 
L 126.183273 247.214724 
L 128.312727 248.53349 
L 130.442182 250.125352 
L 132.571636 251.990321 
L 134.701091 254.128394 
L 137.096727 256.860186 
L 139.492364 259.9376 
L 141.888 263.360679 
L 144.549818 267.569476 
L 147.211636 272.204996 
L 149.873455 277.267243 
L 152.801455 283.328589 
L 155.729455 289.906279 
L 158.923636 297.670795 
L 162.117818 306.049835 
L 162.384 306.775828 
L 169.038545 256.029559 
L 171.700364 238.251112 
L 174.362182 221.948274 
L 176.757818 208.537297 
L 179.153455 196.32156 
L 181.549091 185.301108 
L 183.678545 176.508503 
L 185.808 168.66032 
L 187.671273 162.567783 
L 189.534545 157.198336 
L 191.397818 152.551944 
L 192.994909 149.14478 
L 194.592 146.268833 
L 195.922909 144.277987 
L 197.253818 142.656068 
L 198.584727 141.403041 
L 199.649455 140.666204 
L 200.714182 140.165481 
L 201.778909 139.900838 
L 202.843636 139.872309 
L 203.908364 140.079842 
L 204.973091 140.523507 
L 206.037818 141.203251 
L 207.102545 142.119091 
L 208.433455 143.595908 
L 209.764364 145.441617 
L 211.095273 147.656201 
L 212.692364 150.800688 
L 214.289455 154.476358 
L 215.886545 158.683246 
L 217.749818 164.262718 
L 219.613091 170.565176 
L 221.742545 178.653388 
L 223.605818 186.505205 
L 223.872 185.36661 
L 225.469091 174.5945 
L 227.066182 165.361373 
L 228.397091 158.842709 
L 229.728 153.39282 
L 230.792727 149.80242 
L 231.857455 146.895909 
L 232.922182 144.673512 
L 233.720727 143.45551 
L 234.519273 142.622289 
L 235.317818 142.173779 
L 235.850182 142.088543 
L 236.382545 142.174306 
L 236.914909 142.431066 
L 237.713455 143.136846 
L 238.512 144.227319 
L 239.310545 145.702538 
L 240.375273 148.268072 
L 241.44 151.517458 
L 242.504727 155.450977 
L 243.835636 161.329661 
L 245.166545 168.277084 
L 246.763636 178.024759 
L 248.360727 189.3114 
L 249.957818 202.136831 
L 251.821091 219.045194 
L 252.087273 221.631699 
L 252.353455 222.302103 
L 254.749091 205.18497 
L 257.144727 189.657628 
L 259.274182 177.190099 
L 261.403636 165.978739 
L 263.533091 156.023645 
L 265.396364 148.343301 
L 267.259636 141.624707 
L 268.856727 136.631438 
L 270.453818 132.344704 
L 271.784727 129.312191 
L 273.115636 126.77034 
L 274.446545 124.719205 
L 275.511273 123.431575 
L 276.576 122.457957 
L 277.640727 121.798403 
L 278.705455 121.452878 
L 279.504 121.399823 
L 280.302545 121.523436 
L 281.101091 121.823666 
L 282.165818 122.49874 
L 283.230545 123.487896 
L 284.295273 124.791063 
L 285.36 126.408277 
L 285.892364 127.693414 
L 287.489455 131.679234 
L 289.086545 135.065295 
L 290.417455 137.428862 
L 291.748364 139.375923 
L 293.079273 140.906497 
L 294.144 141.831045 
L 295.208727 142.489055 
L 296.273455 142.880507 
L 297.338182 143.005402 
L 298.402909 142.863723 
L 299.467636 142.455505 
L 300.532364 141.780729 
L 301.597091 140.839379 
L 302.661818 139.63149 
L 303.992727 137.746753 
L 305.323636 135.445547 
L 306.654545 132.727747 
L 308.251636 128.916736 
L 309.848727 124.505932 
L 311.445818 119.495335 
L 313.309091 112.891612 
L 315.172364 105.471627 
L 317.301818 95.991939 
L 319.431273 85.446129 
L 321.560727 73.834074 
L 323.956364 59.495863 
L 326.352 43.808328 
L 327.150545 38.279154 
L 327.416727 37.682732 
L 330.610909 65.30527 
L 333.538909 88.722412 
L 336.466909 110.318774 
L 339.128727 128.371789 
L 341.790545 144.920037 
L 344.186182 158.52696 
L 346.581818 170.914915 
L 348.977455 182.084025 
L 351.106909 190.988867 
L 353.236364 198.930721 
L 355.099636 205.08985 
L 356.962909 210.511571 
L 358.826182 215.196007 
L 360.423273 218.62437 
L 362.020364 221.511017 
L 363.351273 223.502742 
L 364.682182 225.11827 
L 366.013091 226.357603 
L 367.077818 227.078218 
L 368.142545 227.558066 
L 369.207273 227.797165 
L 370.272 227.795488 
L 371.336727 227.553045 
L 372.401455 227.069844 
L 373.466182 226.345875 
L 374.530909 225.381149 
L 375.861818 223.83668 
L 377.192727 221.916005 
L 378.523636 219.619135 
L 380.120727 216.366317 
L 381.717818 212.571791 
L 383.314909 208.235531 
L 385.178182 202.49196 
L 387.041455 196.010981 
L 388.106182 191.976548 
L 389.170909 183.267854 
L 390.768 170.986878 
L 392.365091 160.283623 
L 393.962182 151.158116 
L 395.293091 144.758783 
L 396.624 139.455084 
L 397.688727 136.000992 
L 398.753455 133.248098 
L 399.818182 131.196453 
L 400.616727 130.117901 
L 401.415273 129.433751 
L 401.947636 129.196829 
L 402.48 129.135136 
L 403.012364 129.248813 
L 403.544727 129.537754 
L 404.343273 130.299907 
L 405.141818 131.456427 
L 405.940364 133.007471 
L 407.005091 135.689017 
L 408.069818 139.071796 
L 409.134545 143.155789 
L 410.465455 149.24687 
L 411.796364 156.433584 
L 413.393455 166.503953 
L 414.990545 178.152042 
L 416.587636 191.377897 
L 418.450909 208.802195 
L 420.314182 228.373739 
L 422.443636 253.3711 
L 424.573091 281.173021 
L 426.436364 307.800822 
L 426.436364 307.800822 
" clip-path="url(#p4a0d5c408a)" style="fill: none; stroke-dasharray: 11.1,4.8; stroke-dashoffset: 0; stroke: #000000; stroke-width: 3"/>
   </g>
   <g id="line2d_2">
    <path d="M 27.163636 79.161965 
L 28.760727 79.08621 
L 30.357818 79.215161 
L 32.221091 79.596272 
L 34.084364 80.195854 
L 36.213818 81.109764 
L 38.609455 82.37652 
L 41.537455 84.179216 
L 42.868364 85.062437 
L 43.134545 85.640319 
L 44.199273 90.71519 
L 46.328727 101.644393 
L 49.522909 119.387399 
L 55.378909 152.12487 
L 57.774545 164.083153 
L 59.637818 172.255916 
L 60.170182 174.199475 
L 61.234909 176.087977 
L 62.299636 177.578777 
L 63.364364 178.708374 
L 64.429091 179.516437 
L 65.493818 180.042704 
L 66.558545 180.326905 
L 67.623273 180.40877 
L 68.954182 180.287123 
L 70.551273 179.914868 
L 75.342545 178.615695 
L 76.673455 178.550508 
L 76.939636 178.842829 
L 77.738182 181.111442 
L 82.529455 195.009466 
L 87.320727 208.238419 
L 92.378182 221.555338 
L 93.709091 224.799264 
L 94.773818 225.708091 
L 95.838545 226.340608 
L 96.903273 226.721878 
L 97.968 226.87676 
L 99.032727 226.83006 
L 100.363636 226.525722 
L 101.694545 225.992731 
L 103.291636 225.118209 
L 105.421091 223.68696 
L 110.212364 220.347993 
L 111.010909 220.483659 
L 116.866909 221.915821 
L 118.730182 222.658759 
L 120.327273 223.523528 
L 121.924364 224.659823 
L 123.255273 225.856477 
L 124.586182 227.316325 
L 125.917091 229.073945 
L 126.449455 229.868209 
L 126.981818 231.456666 
L 128.845091 237.41998 
L 130.708364 242.636995 
L 132.571636 247.210993 
L 134.434909 251.2464 
L 136.564364 255.330951 
L 138.96 259.438018 
L 147.211636 272.669245 
L 148.808727 274.773224 
L 150.139636 276.236202 
L 151.470545 277.383119 
L 152.535273 278.04018 
L 153.6 278.437966 
L 154.664727 278.550348 
L 155.463273 278.432848 
L 156.261818 278.13045 
L 157.060364 277.632334 
L 158.125091 276.644939 
L 159.189818 275.264225 
L 159.456 274.854514 
L 159.722182 273.973277 
L 170.103273 215.814962 
L 173.297455 199.653399 
L 175.959273 187.106657 
L 176.225455 186.235646 
L 176.491636 186.12864 
L 177.556364 187.710531 
L 178.621091 189.643784 
L 179.685818 191.96892 
L 181.016727 195.503666 
L 182.347636 199.829146 
L 183.678545 205.044985 
L 185.009455 211.251041 
L 186.340364 218.548202 
L 187.671273 227.038014 
L 189.002182 236.822707 
L 190.599273 250.420359 
L 192.196364 266.21378 
L 192.994909 274.992691 
L 194.059636 277.788752 
L 195.390545 280.717565 
L 196.721455 283.09364 
L 198.052364 284.968199 
L 199.383273 286.392831 
L 200.448 287.243189 
L 201.512727 287.864958 
L 202.843636 288.360892 
L 204.174545 288.592459 
L 205.505455 288.611251 
L 207.102545 288.425576 
L 209.498182 287.890704 
L 209.764364 287.600394 
L 210.829091 285.404481 
L 211.893818 282.740731 
L 213.224727 278.777693 
L 214.555636 274.152417 
L 216.152727 267.795083 
L 218.016 259.369 
L 220.145455 248.571122 
L 222.541091 235.174795 
L 225.469091 217.411363 
L 227.864727 202.951364 
L 229.195636 196.264634 
L 230.526545 190.578375 
L 231.857455 185.82532 
L 233.188364 181.93571 
L 234.253091 179.397669 
L 235.317818 177.32903 
L 236.382545 175.691829 
L 237.447273 174.447343 
L 238.512 173.556309 
L 239.576727 172.979059 
L 240.641455 172.675423 
L 241.706182 172.604821 
L 243.303273 172.618014 
L 244.368 171.73086 
L 245.432727 170.549569 
L 246.763636 168.695204 
L 248.094545 166.462573 
L 249.691636 163.345614 
L 251.554909 159.200875 
L 253.950545 153.249402 
L 257.144727 144.633712 
L 260.072727 136.772661 
L 261.936 132.647954 
L 263.799273 129.101937 
L 265.396364 126.502274 
L 266.993455 124.290183 
L 268.590545 122.449811 
L 270.187636 120.965586 
L 271.784727 119.822268 
L 273.115636 119.119877 
L 274.446545 118.635622 
L 278.439273 117.678576 
L 280.302545 117.498835 
L 281.899636 117.577136 
L 283.230545 117.835354 
L 284.561455 118.292063 
L 285.892364 118.968717 
L 287.223273 119.886489 
L 288.554182 121.06678 
L 289.885091 122.532062 
L 291.216 124.302419 
L 292.280727 125.953025 
L 293.079273 127.798401 
L 294.942545 132.770725 
L 297.072 139.22694 
L 299.733818 148.152833 
L 304.258909 164.35222 
L 307.985455 177.369164 
L 309.848727 183.229247 
L 313.309091 192.046045 
L 315.438545 198.039389 
L 317.301818 203.940388 
L 319.165091 210.678074 
L 320.762182 217.278488 
L 322.359273 224.779803 
L 323.956364 233.310819 
L 325.553455 242.997363 
L 326.884364 252.382914 
L 328.481455 263.636448 
L 330.078545 273.200858 
L 331.409455 279.947801 
L 332.740364 285.638758 
L 334.071273 290.327134 
L 335.136 293.391744 
L 336.200727 295.875988 
L 337.265455 297.807444 
L 338.330182 299.213831 
L 339.128727 299.940743 
L 339.927273 300.399839 
L 340.725818 300.603099 
L 341.524364 300.56261 
L 342.322909 300.2906 
L 342.855273 299.986721 
L 343.121455 299.634756 
L 343.92 297.544671 
L 345.517091 292.732019 
L 347.912727 284.692697 
L 352.970182 267.395844 
L 354.833455 261.951094 
L 356.164364 258.67522 
L 357.229091 256.518892 
L 358.293818 254.846859 
L 359.092364 253.973605 
L 360.955636 253.01857 
L 362.818909 251.815473 
L 365.214545 249.98255 
L 368.142545 247.445317 
L 375.329455 240.839074 
L 380.919273 233.894829 
L 383.314909 230.504852 
L 385.444364 227.10601 
L 387.307636 223.752155 
L 389.170909 219.974606 
L 391.034182 215.707649 
L 391.832727 213.675352 
L 393.962182 205.598244 
L 396.091636 198.464646 
L 398.221091 192.157554 
L 400.084364 187.318745 
L 401.947636 183.120232 
L 403.544727 180.030968 
L 405.141818 177.414213 
L 406.472727 175.596831 
L 407.803636 174.112975 
L 408.868364 173.167789 
L 409.134545 173.127243 
L 409.666909 173.572672 
L 410.731636 174.827937 
L 411.796364 176.408142 
L 413.127273 178.820857 
L 414.458182 181.697418 
L 416.055273 185.722476 
L 417.652364 190.327154 
L 419.515636 196.373395 
L 421.645091 204.085675 
L 424.040727 213.654004 
L 426.436364 224.026551 
L 426.436364 224.026551 
" clip-path="url(#p4a0d5c408a)" style="fill: none; stroke: #ffa500; stroke-width: 3; stroke-linecap: square"/>
   </g>
   <g id="patch_3">
    <path d="M 7.2 331.2 
L 7.2 7.2 
" style="fill: none; stroke: #000000; stroke-width: 0.8; stroke-linejoin: miter; stroke-linecap: square"/>
   </g>
   <g id="patch_4">
    <path d="M 446.4 331.2 
L 446.4 7.2 
" style="fill: none; stroke: #000000; stroke-width: 0.8; stroke-linejoin: miter; stroke-linecap: square"/>
   </g>
   <g id="patch_5">
    <path d="M 7.2 331.2 
L 446.4 331.2 
" style="fill: none; stroke: #000000; stroke-width: 0.8; stroke-linejoin: miter; stroke-linecap: square"/>
   </g>
   <g id="patch_6">
    <path d="M 7.2 7.2 
L 446.4 7.2 
" style="fill: none; stroke: #000000; stroke-width: 0.8; stroke-linejoin: miter; stroke-linecap: square"/>
   </g>
  </g>
 </g>
 <defs>
  <clipPath id="p4a0d5c408a">
   <rect x="7.2" y="7.2" width="439.2" height="324"/>
  </clipPath>
 </defs>
</svg>
