<?xml version="1.0" encoding="utf-8" standalone="no"?>
<!DOCTYPE svg PUBLIC "-//W3C//DTD SVG 1.1//EN"
  "http://www.w3.org/Graphics/SVG/1.1/DTD/svg11.dtd">
<svg xmlns:xlink="http://www.w3.org/1999/xlink" width="453.6pt" height="338.4pt" viewBox="0 0 453.6 338.4" xmlns="http://www.w3.org/2000/svg" version="1.1">
 <metadata>
  <rdf:RDF xmlns:dc="http://purl.org/dc/elements/1.1/" xmlns:cc="http://creativecommons.org/ns#" xmlns:rdf="http://www.w3.org/1999/02/22-rdf-syntax-ns#">
   <cc:Work>
    <dc:type rdf:resource="http://purl.org/dc/dcmitype/StillImage"/>
    <dc:date>2025-05-14T16:28:50.783311</dc:date>
    <dc:format>image/svg+xml</dc:format>
    <dc:creator>
     <cc:Agent>
      <dc:title>Matplotlib v3.10.1, https://matplotlib.org/</dc:title>
     </cc:Agent>
    </dc:creator>
   </cc:Work>
  </rdf:RDF>
 </metadata>
 <defs>
  <style type="text/css">*{stroke-linejoin: round; stroke-linecap: butt}</style>
 </defs>
 <g id="figure_1">
  <g id="patch_1">
   <path d="M 0 338.4 
L 453.6 338.4 
L 453.6 0 
L 0 0 
z
" style="fill: #ffffff"/>
  </g>
  <g id="axes_1">
   <g id="patch_2">
    <path d="M 7.2 331.2 
L 446.4 331.2 
L 446.4 7.2 
L 7.2 7.2 
z
" style="fill: #ffffff"/>
   </g>
   <g id="matplotlib.axis_1"/>
   <g id="matplotlib.axis_2"/>
   <g id="line2d_1">
    <path d="M 27.163636 190.937831 
L 29.293091 194.372919 
L 31.422545 197.378158 
L 33.285818 199.655146 
L 35.149091 201.603041 
L 37.012364 203.221844 
L 38.609455 204.347439 
L 40.206545 205.231274 
L 41.803636 205.873325 
L 43.400727 206.273591 
L 44.997818 206.432062 
L 46.594909 206.348767 
L 48.192 206.023694 
L 49.789091 205.45682 
L 51.386182 204.648178 
L 52.983273 203.597733 
L 54.580364 202.305521 
L 56.443636 200.492352 
L 58.306909 198.350092 
L 60.170182 195.878747 
L 62.299636 192.651341 
L 64.429091 188.99415 
L 66.558545 184.907101 
L 68.954182 179.795389 
L 71.349818 174.139643 
L 73.745455 167.939916 
L 76.407273 160.413259 
L 79.069091 152.215004 
L 81.997091 142.421217 
L 84.925091 131.81475 
L 87.853091 120.395639 
L 91.047273 107.011576 
L 94.241455 92.660407 
L 97.701818 76.02192 
L 99.565091 66.885756 
L 101.162182 65.282552 
L 102.759273 63.993746 
L 104.356364 63.01939 
L 105.687273 62.447687 
L 107.018182 62.094314 
L 108.349091 61.959377 
L 109.68 62.042769 
L 111.010909 62.344579 
L 112.341818 62.864737 
L 113.672727 63.603294 
L 115.269818 64.777826 
L 116.866909 66.266809 
L 118.464 68.070278 
L 120.061091 70.18818 
L 121.924364 73.056542 
L 123.787636 76.352908 
L 125.650909 80.07735 
L 127.780364 84.857924 
L 129.909818 90.197525 
L 132.305455 96.872808 
L 134.701091 104.255679 
L 137.096727 112.346138 
L 139.758545 122.165294 
L 142.420364 132.857997 
L 145.082182 144.424213 
L 148.010182 158.15596 
L 150.938182 172.944666 
L 154.132364 190.283237 
L 157.326545 208.879732 
L 160.520727 228.734012 
L 163.981091 251.662326 
L 165.844364 264.619832 
L 166.110545 264.408415 
L 168.772364 257.300818 
L 171.168 251.513124 
L 173.563636 246.302548 
L 175.693091 242.155417 
L 177.822545 238.464254 
L 179.952 235.229088 
L 181.815273 232.772386 
L 183.678545 230.664781 
L 185.541818 228.906283 
L 187.138909 227.676861 
L 188.736 226.703944 
L 190.333091 225.987499 
L 191.930182 225.527569 
L 193.527273 225.324109 
L 195.124364 225.377146 
L 196.721455 225.68669 
L 198.318545 226.252704 
L 199.915636 227.075216 
L 201.512727 228.154225 
L 203.109818 229.489731 
L 204.973091 231.371983 
L 206.836364 233.603342 
L 208.699636 236.183834 
L 210.829091 239.56045 
L 212.958545 243.393042 
L 215.088 247.681598 
L 217.483636 253.051308 
L 219.879273 258.998119 
L 222.274909 265.522001 
L 224.936727 273.447629 
L 227.598545 282.085726 
L 229.728 289.377749 
L 233.986909 269.414974 
L 237.979636 251.702244 
L 241.972364 234.959538 
L 245.965091 219.186847 
L 249.691636 205.340764 
L 253.418182 192.33977 
L 256.878545 181.023986 
L 260.338909 170.436857 
L 263.799273 160.57827 
L 266.993455 152.124765 
L 270.187636 144.292032 
L 273.115636 137.657374 
L 276.043636 131.544384 
L 278.971636 125.953061 
L 281.633455 121.322733 
L 284.295273 117.123517 
L 286.957091 113.355378 
L 289.352727 110.332732 
L 291.748364 107.659244 
L 294.144 105.334969 
L 296.273455 103.562118 
L 298.402909 102.065182 
L 300.532364 100.844161 
L 300.798545 101.569516 
L 303.194182 117.245744 
L 305.589818 131.384376 
L 307.719273 142.660948 
L 309.848727 152.722486 
L 311.712 160.529516 
L 313.575273 167.40631 
L 315.172364 172.560271 
L 316.769455 177.030749 
L 318.366545 180.817735 
L 319.697455 183.451413 
L 321.028364 185.610484 
L 322.359273 187.294895 
L 323.424 188.300685 
L 324.488727 189.002717 
L 325.553455 189.400964 
L 326.352 189.500297 
L 327.150545 189.428764 
L 328.215273 189.067596 
L 329.28 188.402652 
L 330.344727 187.433914 
L 331.409455 186.161418 
L 332.474182 184.58518 
L 333.805091 182.187677 
L 335.136 179.315541 
L 336.733091 175.242432 
L 338.330182 170.485839 
L 339.927273 165.045851 
L 341.790545 157.835225 
L 343.653818 149.694309 
L 345.517091 140.623051 
L 347.646545 129.116912 
L 348.178909 126.193072 
L 351.106909 120.203099 
L 354.034909 114.705351 
L 356.962909 109.700003 
L 359.624727 105.576929 
L 362.286545 101.860722 
L 364.682182 98.864006 
L 367.077818 96.196926 
L 369.473455 93.859413 
L 371.869091 91.851432 
L 373.998545 90.343312 
L 376.128 89.095535 
L 378.257455 88.108205 
L 380.386909 87.38127 
L 382.516364 86.914765 
L 384.379636 86.720171 
L 386.242909 86.724946 
L 388.106182 86.929091 
L 389.969455 87.332622 
L 392.098909 88.037963 
L 394.228364 89.003681 
L 396.357818 90.229811 
L 398.487273 91.716354 
L 400.616727 93.463326 
L 403.012364 95.739936 
L 405.408 98.346096 
L 407.803636 101.281856 
L 410.199273 104.547219 
L 412.861091 108.5619 
L 415.522909 112.983501 
L 418.184727 117.811969 
L 421.112727 123.593269 
L 424.040727 129.866881 
L 426.436364 135.366034 
L 426.436364 135.366034 
" clip-path="url(#pd099694eb5)" style="fill: none; stroke-dasharray: 11.1,4.8; stroke-dashoffset: 0; stroke: #000000; stroke-width: 3"/>
   </g>
   <g id="line2d_2">
    <path d="M 27.163636 213.799949 
L 27.962182 232.070266 
L 28.760727 246.048017 
L 29.559273 255.798216 
L 30.091636 260.00441 
L 30.624 262.388684 
L 30.890182 262.940597 
L 31.156364 263.040395 
L 31.422545 262.699022 
L 31.688727 261.957967 
L 32.221091 259.211191 
L 32.753455 254.880782 
L 33.552 245.482481 
L 34.350545 232.890531 
L 35.415273 211.564385 
L 36.48 185.684431 
L 37.810909 148.202798 
L 39.674182 89.153506 
L 41.005091 44.764935 
L 41.271273 41.067407 
L 41.537455 43.372283 
L 42.602182 69.737018 
L 43.933091 99.412376 
L 45.264 149.666008 
L 46.328727 182.939771 
L 47.393455 210.27442 
L 48.458182 232.222778 
L 49.522909 249.551534 
L 50.587636 263.137635 
L 51.652364 273.877565 
L 52.717091 282.614955 
L 54.048 291.74416 
L 54.314182 293.411017 
L 55.378909 260.827457 
L 56.177455 242.146999 
L 56.976 227.597603 
L 57.774545 216.401368 
L 58.573091 208.03574 
L 59.371636 202.011822 
L 60.170182 198.025555 
L 60.436364 197.118677 
L 61.767273 186.768619 
L 66.026182 151.988247 
L 67.357091 140.802283 
L 68.155636 132.671251 
L 68.954182 122.491086 
L 69.752727 109.199527 
L 70.551273 91.611332 
L 71.083636 77.431408 
L 71.349818 78.093894 
L 72.680727 94.648112 
L 74.544 114.425609 
L 76.141091 132.025794 
L 77.205818 146.459495 
L 78.270545 165.756547 
L 79.335273 188.972854 
L 80.4 216.699579 
L 80.666182 217.4065 
L 81.464727 188.071611 
L 82.263273 166.780569 
L 83.061818 151.722515 
L 83.860364 141.369456 
L 84.658909 134.442328 
L 85.457455 129.846727 
L 86.256 126.587264 
L 87.586909 121.498542 
L 88.119273 118.715046 
L 88.651636 115.009162 
L 89.184 110.006378 
L 89.716364 103.288047 
L 90.248727 94.383503 
L 90.781091 82.760739 
L 91.313455 70.868275 
L 92.910545 149.206192 
L 93.442909 163.671669 
L 93.975273 172.072453 
L 94.241455 173.988457 
L 94.507636 174.589523 
L 94.773818 174.115266 
L 95.04 172.746947 
L 95.572364 168.156648 
L 96.370909 158.656472 
L 97.968 138.818722 
L 98.766545 130.925244 
L 99.565091 124.956373 
L 100.363636 120.915533 
L 100.896 119.184466 
L 101.428364 118.182371 
L 101.960727 117.767938 
L 102.226909 117.795326 
L 102.759273 118.164008 
L 103.291636 119.021245 
L 104.090182 120.968447 
L 104.622545 122.679622 
L 105.421091 133.88618 
L 107.018182 154.817915 
L 109.946182 188.691137 
L 110.744727 198.702016 
L 112.608 223.543253 
L 113.406545 231.841692 
L 113.938909 235.927082 
L 114.471273 238.539395 
L 114.737455 239.198299 
L 115.003636 239.415813 
L 115.269818 239.169524 
L 115.536 238.389736 
L 116.068364 235.199207 
L 116.600727 229.669972 
L 117.133091 221.669111 
L 117.931636 204.689848 
L 118.730182 181.497865 
L 119.528727 151.800746 
L 120.593455 102.18158 
L 121.392 57.640954 
L 121.658182 61.575316 
L 122.456727 105.433354 
L 123.255273 135.439016 
L 123.787636 148.795322 
L 124.32 157.509135 
L 124.852364 162.191534 
L 125.118545 163.286291 
L 125.384727 163.53078 
L 125.650909 163.125581 
L 125.917091 162.129683 
L 126.449455 158.44355 
L 126.981818 153.13727 
L 127.514182 150.883273 
L 128.046545 147.883028 
L 128.845091 141.763155 
L 129.643636 133.556948 
L 130.442182 123.172041 
L 131.506909 106.362327 
L 134.967273 46.893703 
L 135.765818 38.388495 
L 136.032 36.468277 
L 136.298182 35.733196 
L 137.895273 84.220789 
L 139.226182 117.502592 
L 140.290909 138.730747 
L 141.355636 155.031891 
L 142.154182 164.214175 
L 142.952727 171.087001 
L 143.751273 176.663489 
L 144.283636 181.373523 
L 144.816 184.51327 
L 145.082182 185.476644 
L 145.348364 185.97806 
L 145.614545 186.061646 
L 145.880727 185.697888 
L 146.146909 184.829739 
L 146.679273 181.731091 
L 147.211636 176.630536 
L 147.744 169.55864 
L 148.542545 155.221201 
L 149.341091 136.492182 
L 150.405818 105.165972 
L 150.672 104.449606 
L 151.470545 116.580115 
L 152.269091 125.058516 
L 153.067636 130.527946 
L 153.6 132.853432 
L 154.132364 134.331425 
L 154.664727 135.103287 
L 155.197091 135.333889 
L 155.729455 135.186872 
L 156.528 134.433392 
L 159.189818 131.119504 
L 159.722182 130.762129 
L 160.254545 130.594203 
L 161.053091 122.657115 
L 162.916364 102.094045 
L 163.448727 97.862139 
L 163.981091 95.065705 
L 164.247273 94.303377 
L 164.513455 94.025443 
L 164.779636 94.274391 
L 165.045818 95.065775 
L 165.312 97.252445 
L 168.24 176.143604 
L 169.304727 199.307304 
L 170.103273 213.20739 
L 170.901818 223.44025 
L 171.434182 227.89433 
L 171.966545 230.246406 
L 172.232727 230.583566 
L 172.498909 230.294238 
L 172.765091 229.375694 
L 173.031273 227.824351 
L 173.563636 222.565693 
L 174.096 214.291876 
L 174.628364 202.754224 
L 175.426909 180.215405 
L 175.693091 179.388206 
L 176.225455 181.591501 
L 177.290182 187.071307 
L 179.419636 194.209523 
L 182.88 206.662813 
L 185.541818 217.021649 
L 187.937455 227.335584 
L 190.865455 241.174741 
L 192.994909 250.846867 
L 194.059636 254.75335 
L 194.592 256.126891 
L 195.124364 256.983918 
L 195.656727 257.305567 
L 195.922909 257.25878 
L 196.189091 257.070712 
L 196.455273 256.739592 
L 196.721455 251.152895 
L 197.52 226.071523 
L 198.318545 207.187535 
L 199.117091 193.446184 
L 199.915636 183.849915 
L 200.714182 177.534254 
L 201.246545 174.76369 
L 201.778909 172.843884 
L 202.311273 171.657194 
L 202.843636 170.984903 
L 203.376 170.72859 
L 203.908364 170.730802 
L 204.706909 171.062142 
L 207.634909 172.647948 
L 208.699636 172.913223 
L 210.829091 173.158466 
L 212.16 173.113347 
L 212.958545 172.864013 
L 213.757091 172.396401 
L 214.821818 171.32215 
L 215.620364 170.184986 
L 216.418909 168.724664 
L 217.217455 166.929429 
L 218.282182 164.012787 
L 219.879273 158.619481 
L 222.541091 148.004078 
L 224.138182 141.682607 
L 225.202909 138.126882 
L 226.001455 135.873832 
L 226.8 134.238465 
L 227.598545 110.556908 
L 228.663273 70.934918 
L 229.728 27.182147 
L 229.994182 25.951207 
L 231.325091 47.355697 
L 232.656 65.768668 
L 233.986909 81.557906 
L 235.317818 95.126432 
L 236.914909 109.026527 
L 238.512 120.947696 
L 240.375273 133.12099 
L 243.037091 148.833911 
L 243.569455 152.19334 
L 245.432727 166.168523 
L 247.296 178.433347 
L 248.893091 187.697101 
L 250.490182 195.843757 
L 252.087273 202.799212 
L 253.418182 207.628663 
L 254.482909 210.760817 
L 255.547636 213.156617 
L 256.346182 214.394835 
L 257.144727 215.083673 
L 257.677091 215.186368 
L 258.209455 215.0102 
L 258.741818 214.505597 
L 259.008 214.124591 
L 259.806545 218.856578 
L 260.072727 220.447001 
L 260.605091 221.299683 
L 261.137455 222.604764 
L 261.936 225.202391 
L 263.799273 232.686395 
L 264.864 236.471722 
L 265.662545 238.398304 
L 266.194909 239.069673 
L 266.461091 239.191171 
L 266.727273 239.132217 
L 266.993455 238.908024 
L 267.525818 237.922643 
L 268.058182 236.141506 
L 268.590545 233.514806 
L 269.122909 230.009783 
L 269.921455 223.049816 
L 270.72 213.993472 
L 271.784727 198.750954 
L 272.849455 180.12636 
L 273.914182 158.568726 
L 274.180364 157.59962 
L 274.712727 168.780897 
L 275.245091 176.496152 
L 275.777455 181.312005 
L 276.309818 183.755471 
L 276.576 184.241569 
L 276.842182 184.322292 
L 277.108364 183.976925 
L 277.374545 183.300693 
L 277.906909 181.013935 
L 278.705455 175.833903 
L 281.367273 155.618201 
L 281.899636 153.476861 
L 282.165818 152.950823 
L 282.432 152.822767 
L 282.698182 153.213921 
L 282.964364 154.087188 
L 283.496727 157.733363 
L 284.029091 164.240597 
L 284.561455 174.148325 
L 285.093818 188.044425 
L 285.892364 212.763637 
L 286.424727 212.867816 
L 286.957091 213.200911 
L 288.021818 214.269386 
L 289.086545 215.322166 
L 289.618909 215.595658 
L 290.151273 215.54923 
L 290.683636 215.038492 
L 291.216 213.917892 
L 291.748364 212.018162 
L 292.280727 209.14858 
L 292.813091 205.096662 
L 293.611636 197.936466 
L 294.410182 191.849696 
L 295.208727 184.007816 
L 295.741091 177.063702 
L 296.805818 157.933452 
L 297.604364 147.359745 
L 298.402909 139.900996 
L 299.201455 135.030428 
L 300 131.992876 
L 301.597091 127.205227 
L 302.129455 124.621241 
L 302.661818 120.862091 
L 303.194182 115.446752 
L 303.726545 107.941022 
L 304.258909 97.864773 
L 305.057455 76.890288 
L 305.589818 58.358304 
L 305.856 54.874471 
L 306.654545 76.367533 
L 307.453091 93.267346 
L 308.251636 106.412871 
L 309.050182 116.585347 
L 309.848727 124.601772 
L 310.381091 127.759584 
L 311.445818 132.323303 
L 312.776727 137.114569 
L 315.172364 144.715524 
L 317.301818 151.671304 
L 318.632727 156.704513 
L 319.963636 162.782619 
L 321.028364 168.805704 
L 322.093091 176.366569 
L 322.359273 178.569952 
L 322.891636 186.736123 
L 323.690182 200.106615 
L 324.488727 209.827042 
L 325.021091 213.930787 
L 325.287273 215.197938 
L 325.553455 215.912566 
L 325.819636 216.055255 
L 326.085818 215.524713 
L 326.352 214.373916 
L 326.618182 212.599951 
L 327.682909 211.880214 
L 329.013818 210.676731 
L 329.812364 209.720318 
L 330.877091 208.209679 
L 332.208 205.730268 
L 333.538909 202.493777 
L 334.603636 199.286561 
L 335.934545 194.37047 
L 336.999273 189.642073 
L 338.330182 182.571106 
L 339.661091 174.171446 
L 340.992 164.384998 
L 342.589091 150.822019 
L 343.121455 145.8942 
L 343.387636 140.667363 
L 344.452364 111.726314 
L 345.250909 94.321618 
L 346.049455 81.143051 
L 346.848 72.324392 
L 347.380364 68.753077 
L 347.912727 66.982561 
L 348.178909 66.758315 
L 348.445091 66.96741 
L 348.711273 67.605107 
L 350.840727 75.753555 
L 352.704 81.40715 
L 354.833455 87.216329 
L 356.696727 91.692161 
L 357.761455 93.774634 
L 358.56 94.941951 
L 359.092364 95.44766 
L 359.624727 95.67087 
L 360.955636 95.501136 
L 361.754182 95.20354 
L 362.552727 94.669249 
L 363.351273 93.799845 
L 364.149818 92.510091 
L 364.948364 90.687451 
L 365.480727 89.429438 
L 366.013091 88.805312 
L 366.279273 88.724132 
L 366.545455 88.80677 
L 367.077818 89.474101 
L 367.610182 90.807922 
L 368.142545 92.788481 
L 368.941091 96.905217 
L 369.739636 102.247873 
L 370.804364 110.864845 
L 374.797091 145.21091 
L 375.595636 149.714604 
L 375.861818 150.872862 
L 376.394182 136.705596 
L 376.660364 133.285422 
L 377.458909 130.443008 
L 379.588364 121.584795 
L 380.120727 120.011261 
L 380.653091 119.059922 
L 380.919273 118.791311 
L 381.185455 118.772087 
L 381.451636 118.920156 
L 381.717818 119.250039 
L 382.250182 120.524747 
L 382.782545 122.661013 
L 383.581091 127.323837 
L 384.379636 133.627576 
L 385.444364 144.016135 
L 389.703273 188.883817 
L 390.768 196.67136 
L 391.566545 201.121376 
L 392.365091 204.409755 
L 393.163636 206.680229 
L 393.696 211.552833 
L 393.962182 212.87533 
L 394.228364 213.536535 
L 394.494545 213.396576 
L 394.760727 212.594228 
L 395.026909 211.045474 
L 395.559273 205.902389 
L 396.091636 197.34747 
L 397.156364 170.72816 
L 397.954909 158.306558 
L 398.487273 152.906844 
L 399.019636 149.327418 
L 399.552 147.223316 
L 400.084364 146.309055 
L 400.350545 146.255772 
L 400.616727 146.420695 
L 401.149091 147.301599 
L 401.681455 148.793883 
L 402.48 152.02982 
L 403.544727 157.616228 
L 404.875636 165.986288 
L 409.400727 196.140757 
L 409.933091 198.140312 
L 410.731636 199.303775 
L 411.530182 200.004104 
L 412.328727 200.336101 
L 413.127273 200.340122 
L 413.925818 200.057246 
L 414.724364 199.528399 
L 416.055273 198.137994 
L 416.853818 197.079175 
L 418.184727 194.960712 
L 419.515636 192.469388 
L 420.580364 190.197466 
L 421.911273 186.999063 
L 423.242182 183.322954 
L 424.306909 179.951763 
L 425.637818 175.060724 
L 426.436364 171.68984 
L 426.436364 171.68984 
" clip-path="url(#pd099694eb5)" style="fill: none; stroke: #ff0000; stroke-width: 3; stroke-linecap: square"/>
   </g>
   <g id="patch_3">
    <path d="M 7.2 331.2 
L 7.2 7.2 
" style="fill: none; stroke: #000000; stroke-width: 0.8; stroke-linejoin: miter; stroke-linecap: square"/>
   </g>
   <g id="patch_4">
    <path d="M 446.4 331.2 
L 446.4 7.2 
" style="fill: none; stroke: #000000; stroke-width: 0.8; stroke-linejoin: miter; stroke-linecap: square"/>
   </g>
   <g id="patch_5">
    <path d="M 7.2 331.2 
L 446.4 331.2 
" style="fill: none; stroke: #000000; stroke-width: 0.8; stroke-linejoin: miter; stroke-linecap: square"/>
   </g>
   <g id="patch_6">
    <path d="M 7.2 7.2 
L 446.4 7.2 
" style="fill: none; stroke: #000000; stroke-width: 0.8; stroke-linejoin: miter; stroke-linecap: square"/>
   </g>
  </g>
 </g>
 <defs>
  <clipPath id="pd099694eb5">
   <rect x="7.2" y="7.2" width="439.2" height="324"/>
  </clipPath>
 </defs>
</svg>
