<?xml version="1.0" encoding="utf-8" standalone="no"?>
<!DOCTYPE svg PUBLIC "-//W3C//DTD SVG 1.1//EN"
  "http://www.w3.org/Graphics/SVG/1.1/DTD/svg11.dtd">
<svg xmlns:xlink="http://www.w3.org/1999/xlink" width="453.6pt" height="338.4pt" viewBox="0 0 453.6 338.4" xmlns="http://www.w3.org/2000/svg" version="1.1">
 <metadata>
  <rdf:RDF xmlns:dc="http://purl.org/dc/elements/1.1/" xmlns:cc="http://creativecommons.org/ns#" xmlns:rdf="http://www.w3.org/1999/02/22-rdf-syntax-ns#">
   <cc:Work>
    <dc:type rdf:resource="http://purl.org/dc/dcmitype/StillImage"/>
    <dc:date>2025-05-14T16:22:27.155995</dc:date>
    <dc:format>image/svg+xml</dc:format>
    <dc:creator>
     <cc:Agent>
      <dc:title>Matplotlib v3.10.1, https://matplotlib.org/</dc:title>
     </cc:Agent>
    </dc:creator>
   </cc:Work>
  </rdf:RDF>
 </metadata>
 <defs>
  <style type="text/css">*{stroke-linejoin: round; stroke-linecap: butt}</style>
 </defs>
 <g id="figure_1">
  <g id="patch_1">
   <path d="M 0 338.4 
L 453.6 338.4 
L 453.6 0 
L 0 0 
z
" style="fill: #ffffff"/>
  </g>
  <g id="axes_1">
   <g id="patch_2">
    <path d="M 7.2 331.2 
L 446.4 331.2 
L 446.4 7.2 
L 7.2 7.2 
z
" style="fill: #ffffff"/>
   </g>
   <g id="matplotlib.axis_1"/>
   <g id="matplotlib.axis_2"/>
   <g id="line2d_1">
    <path d="M 27.163636 202.533103 
L 30.890182 191.544717 
L 34.616727 181.239647 
L 38.077091 172.303713 
L 41.537455 163.997408 
L 44.731636 156.905708 
L 47.659636 150.903954 
L 50.587636 145.391564 
L 53.249455 140.814906 
L 55.911273 136.661319 
L 58.573091 132.939651 
L 60.968727 129.966794 
L 63.364364 127.357422 
L 65.493818 125.34837 
L 67.623273 123.636176 
L 69.752727 122.225371 
L 71.616 121.241763 
L 73.479273 120.495358 
L 75.342545 119.989263 
L 77.205818 119.726569 
L 79.069091 119.710206 
L 80.932364 119.943301 
L 82.795636 120.428873 
L 84.658909 121.169941 
L 86.522182 122.169525 
L 88.385455 123.430715 
L 90.248727 124.956549 
L 92.112 126.750028 
L 94.241455 129.131414 
L 96.370909 131.870843 
L 98.500364 134.972984 
L 100.629818 138.44228 
L 103.025455 142.789811 
L 105.421091 147.614241 
L 107.816727 152.922083 
L 110.478545 159.394468 
L 113.140364 166.480462 
L 115.802182 174.188941 
L 118.730182 183.39777 
L 121.658182 193.382359 
L 124.586182 204.154416 
L 127.780364 216.817803 
L 130.974545 230.447698 
L 134.168727 245.059519 
L 137.362909 260.668494 
L 140.823273 278.721263 
L 144.283636 297.981785 
L 144.549818 299.513977 
L 144.816 300.123891 
L 154.664727 272.418493 
L 161.319273 254.327101 
L 166.909091 239.734442 
L 171.966545 227.137734 
L 176.491636 216.447567 
L 180.750545 206.959874 
L 184.477091 199.166695 
L 188.203636 191.893964 
L 191.664 185.644781 
L 194.858182 180.338194 
L 197.786182 175.887423 
L 200.714182 171.854114 
L 203.376 168.5675 
L 205.771636 165.932636 
L 208.167273 163.615857 
L 210.562909 161.628715 
L 212.692364 160.14851 
L 214.821818 158.946081 
L 216.685091 158.128239 
L 218.548364 157.534732 
L 220.411636 157.171036 
L 222.274909 157.042612 
L 224.138182 157.154919 
L 226.001455 157.513383 
L 227.864727 158.123464 
L 229.728 158.990639 
L 231.591273 160.120297 
L 233.454545 161.518005 
L 235.317818 163.189099 
L 237.181091 165.13911 
L 239.310545 167.716161 
L 241.44 170.672726 
L 243.569455 174.016986 
L 245.698909 177.757061 
L 248.094545 182.447853 
L 250.490182 187.661479 
L 252.885818 193.40958 
L 255.281455 199.703619 
L 257.144727 204.647581 
L 259.806545 183.706638 
L 262.468364 164.587474 
L 264.864 148.893444 
L 267.259636 134.592522 
L 269.655273 121.645944 
L 271.784727 111.242726 
L 273.914182 101.851066 
L 276.043636 93.443523 
L 278.173091 85.992551 
L 280.036364 80.236006 
L 281.899636 75.172477 
L 283.762909 70.783513 
L 285.36 67.544538 
L 286.957091 64.776036 
L 288.554182 62.466472 
L 289.885091 60.884072 
L 291.216 59.605572 
L 292.546909 58.624369 
L 293.877818 57.933687 
L 295.208727 57.526838 
L 296.539636 57.397132 
L 297.870545 57.537864 
L 299.201455 57.942325 
L 300.532364 58.603811 
L 301.863273 59.515613 
L 303.194182 60.671027 
L 304.791273 62.369737 
L 306.388364 64.397944 
L 308.251636 67.165287 
L 310.114909 70.347099 
L 312.244364 74.467276 
L 314.373818 79.077309 
L 316.769455 84.814841 
L 318.100364 88.240825 
L 318.366545 89.189356 
L 319.963636 111.60105 
L 321.560727 130.737445 
L 323.157818 146.887885 
L 324.488727 158.273236 
L 325.819636 167.952152 
L 327.150545 176.091629 
L 328.481455 182.85867 
L 329.812364 188.420323 
L 331.143273 192.943548 
L 332.474182 196.595403 
L 333.805091 199.542926 
L 335.136 201.953096 
L 336.733091 204.371219 
L 341.258182 210.85175 
L 342.589091 213.339422 
L 343.92 216.392046 
L 344.984727 219.353157 
L 346.049455 222.868275 
L 347.114182 227.022889 
L 348.445091 233.245791 
L 349.776 240.768541 
L 351.106909 249.75818 
L 352.437818 260.381962 
L 353.236364 266.907367 
L 356.164364 253.282476 
L 358.56 243.084144 
L 360.689455 234.922722 
L 362.552727 228.602814 
L 364.149818 223.876234 
L 365.746909 219.853889 
L 367.077818 217.085791 
L 368.142545 215.279908 
L 369.207273 213.857665 
L 370.272 212.837795 
L 371.070545 212.348317 
L 371.869091 212.103749 
L 372.667636 212.111983 
L 373.466182 212.380972 
L 374.264727 212.918668 
L 375.063273 213.733051 
L 375.861818 214.831942 
L 376.926545 216.753564 
L 377.991273 219.214033 
L 379.056 222.232229 
L 380.386909 226.817814 
L 381.717818 232.340931 
L 383.048727 238.838299 
L 384.379636 246.346702 
L 385.976727 256.743112 
L 387.573818 268.711854 
L 389.170909 282.316213 
L 391.034182 300.34048 
L 392.365091 314.686894 
L 392.631273 314.688484 
L 394.494545 302.007288 
L 396.357818 290.675097 
L 398.487273 279.12069 
L 400.616727 268.77219 
L 403.012364 258.202113 
L 406.206545 245.169281 
L 411.530182 223.608097 
L 413.925818 212.938164 
L 416.055273 202.463984 
L 417.918545 192.291534 
L 419.781818 180.970694 
L 421.645091 168.302997 
L 423.508364 154.089453 
L 425.371636 138.131587 
L 426.436364 128.153283 
L 426.436364 128.153283 
" clip-path="url(#p4a3b624b39)" style="fill: none; stroke-dasharray: 11.1,4.8; stroke-dashoffset: 0; stroke: #000000; stroke-width: 3"/>
   </g>
   <g id="line2d_2">
    <path d="M 27.163636 227.047161 
L 27.429818 225.513032 
L 27.962182 218.028141 
L 28.228364 210.17736 
L 28.760727 206.716228 
L 29.026909 204.350151 
L 29.825455 205.116474 
L 30.091636 202.999354 
L 30.357818 198.983382 
L 30.624 197.27419 
L 30.890182 194.320873 
L 31.156364 189.575104 
L 32.487273 179.639393 
L 32.753455 180.285604 
L 33.019636 180.495919 
L 33.285818 180.036647 
L 33.552 180.182285 
L 33.818182 180.472227 
L 34.084364 180.385218 
L 34.616727 177.842104 
L 34.882909 177.453952 
L 35.149091 176.656853 
L 35.415273 176.340182 
L 35.681455 174.054644 
L 36.213818 175.862028 
L 36.48 175.947378 
L 36.746182 177.414292 
L 37.012364 178.214271 
L 37.278545 177.7751 
L 37.544727 176.569476 
L 37.810909 176.863728 
L 38.609455 175.897922 
L 38.875636 177.200308 
L 39.141818 177.568551 
L 39.674182 177.151686 
L 39.940364 184.977133 
L 40.206545 184.942301 
L 40.738909 183.336323 
L 41.005091 183.545954 
L 41.537455 183.116124 
L 41.803636 183.35186 
L 42.602182 186.871815 
L 43.400727 194.598859 
L 43.666909 194.610192 
L 43.933091 194.476396 
L 44.465455 192.960569 
L 44.731636 192.438472 
L 44.997818 192.947446 
L 46.328727 197.559822 
L 46.594909 197.38892 
L 47.393455 196.426073 
L 47.925818 194.840952 
L 48.192 195.120149 
L 48.724364 195.191392 
L 48.990545 195.928888 
L 49.256727 197.139876 
L 49.522909 196.958932 
L 50.321455 195.654931 
L 50.853818 193.330954 
L 51.12 193.482579 
L 51.386182 194.009004 
L 51.652364 193.795581 
L 51.918545 193.766332 
L 52.717091 196.879587 
L 53.249455 195.411188 
L 53.515636 194.894507 
L 54.048 193.189933 
L 54.314182 193.530534 
L 54.580364 194.373086 
L 54.846545 194.717557 
L 55.112727 194.734359 
L 55.645091 196.980439 
L 55.911273 196.922986 
L 56.177455 195.797137 
L 56.709818 194.719085 
L 56.976 194.734666 
L 57.242182 193.496782 
L 58.040727 193.321149 
L 58.306909 193.029012 
L 58.839273 194.806015 
L 59.105455 194.444294 
L 59.371636 193.451776 
L 59.637818 193.70126 
L 59.904 193.537117 
L 60.170182 192.676473 
L 60.436364 191.096531 
L 60.702545 191.217336 
L 60.968727 190.605974 
L 61.234909 175.862256 
L 61.501091 174.726909 
L 61.767273 175.62702 
L 62.033455 175.426246 
L 62.565818 171.658695 
L 62.832 171.265882 
L 63.098182 170.434996 
L 63.630545 167.259066 
L 63.896727 168.031998 
L 64.162909 168.279507 
L 64.429091 167.916531 
L 64.695273 167.877293 
L 64.961455 169.885142 
L 65.227636 170.681012 
L 65.76 168.768484 
L 66.026182 169.390644 
L 66.292364 168.818116 
L 66.558545 167.367581 
L 66.824727 166.643508 
L 67.889455 171.476426 
L 68.155636 174.830658 
L 68.421818 176.531598 
L 68.954182 177.034445 
L 69.220364 178.362805 
L 69.486545 178.566862 
L 69.752727 178.203868 
L 70.018909 178.578493 
L 70.817455 184.476621 
L 71.349818 194.746569 
L 71.616 196.629901 
L 71.882182 196.938435 
L 72.148364 196.820211 
L 72.414545 197.096494 
L 72.680727 196.907826 
L 72.946909 196.244515 
L 73.213091 195.883856 
L 73.479273 196.27688 
L 73.745455 196.343839 
L 74.011636 195.54049 
L 74.277818 195.748936 
L 74.544 196.447263 
L 74.810182 195.868415 
L 75.076364 194.320803 
L 75.342545 193.611731 
L 75.608727 193.689497 
L 75.874909 192.867767 
L 76.141091 191.262333 
L 76.407273 190.90084 
L 76.673455 192.193825 
L 76.939636 191.949117 
L 77.738182 188.292627 
L 78.004364 186.559147 
L 78.270545 186.116052 
L 78.536727 186.395856 
L 78.802909 187.060738 
L 79.335273 185.657649 
L 79.601455 186.720796 
L 79.867636 188.791023 
L 80.666182 192.616369 
L 80.932364 194.089438 
L 81.198545 193.595097 
L 81.464727 192.204991 
L 81.730909 191.910923 
L 81.997091 192.066665 
L 82.529455 189.317764 
L 82.795636 190.562127 
L 83.061818 192.922955 
L 83.594182 194.106221 
L 83.860364 195.660628 
L 84.126545 196.420314 
L 84.658909 194.175946 
L 84.925091 193.86168 
L 85.191273 193.743456 
L 85.723636 191.012981 
L 85.989818 191.893112 
L 86.256 193.432052 
L 86.522182 193.62015 
L 86.788364 193.088774 
L 87.054545 194.639467 
L 87.320727 195.232764 
L 87.853091 192.172081 
L 88.119273 192.010011 
L 88.385455 191.130108 
L 88.651636 189.58182 
L 88.917818 188.801978 
L 89.450182 190.500461 
L 89.716364 190.674873 
L 89.982545 190.530982 
L 90.248727 191.858131 
L 90.514909 191.692374 
L 91.047273 187.986902 
L 91.313455 188.266047 
L 91.579636 187.822198 
L 91.845818 186.449788 
L 92.112 186.190833 
L 92.644364 188.139045 
L 93.176727 189.671883 
L 93.442909 190.944195 
L 93.709091 190.585784 
L 94.241455 188.727812 
L 94.507636 188.757789 
L 95.04 186.562868 
L 95.306182 186.570716 
L 95.838545 188.881798 
L 96.104727 189.121204 
L 96.370909 189.52398 
L 96.637091 190.363522 
L 97.169455 189.624648 
L 97.968 187.80774 
L 98.500364 186.660358 
L 98.766545 187.423793 
L 99.032727 188.656735 
L 99.565091 192.694723 
L 99.831273 193.678463 
L 100.097455 193.763137 
L 100.363636 193.308868 
L 100.629818 193.443384 
L 100.896 193.273457 
L 101.162182 192.724068 
L 101.428364 192.565807 
L 102.493091 192.94641 
L 102.759273 192.406431 
L 103.025455 192.211214 
L 103.557818 192.274654 
L 103.824 191.505487 
L 104.622545 190.711189 
L 104.888727 191.052026 
L 105.154909 190.927561 
L 105.421091 191.033671 
L 105.687273 191.276948 
L 105.953455 191.02743 
L 106.219636 190.32725 
L 106.485818 190.219569 
L 106.752 190.777648 
L 107.284364 190.108666 
L 107.550545 190.615507 
L 107.816727 191.507787 
L 108.082909 191.835572 
L 108.615273 191.96332 
L 109.147636 191.165861 
L 109.413818 189.580468 
L 109.68 189.449138 
L 109.946182 190.604815 
L 110.212364 190.994837 
L 110.478545 190.771257 
L 110.744727 191.814232 
L 111.010909 193.518859 
L 111.543273 193.780904 
L 111.809455 194.152631 
L 112.075636 193.780026 
L 112.341818 195.125346 
L 112.608 194.155151 
L 113.406545 195.215199 
L 113.672727 195.129998 
L 114.471273 198.135545 
L 115.003636 198.76758 
L 115.269818 198.741956 
L 115.536 198.395957 
L 115.802182 198.37733 
L 116.068364 198.99719 
L 116.600727 199.568085 
L 116.866909 199.716198 
L 117.133091 200.370126 
L 117.665455 200.868513 
L 117.931636 200.857189 
L 118.197818 200.957172 
L 118.730182 200.797068 
L 118.996364 200.8898 
L 119.262545 201.310457 
L 119.528727 201.448748 
L 119.794909 201.449459 
L 120.061091 201.749733 
L 120.327273 202.35962 
L 120.593455 202.524799 
L 120.859636 203.164339 
L 121.392 203.306948 
L 121.658182 202.880489 
L 122.190545 202.718023 
L 122.456727 203.102655 
L 122.722909 203.29077 
L 123.255273 204.076932 
L 123.521455 204.849575 
L 124.32 205.677195 
L 124.586182 205.790705 
L 124.852364 205.361331 
L 125.118545 205.63743 
L 126.449455 207.809264 
L 126.715636 208.68613 
L 127.248 209.307912 
L 127.780364 209.48322 
L 128.046545 209.239671 
L 128.312727 209.324178 
L 129.111273 212.157366 
L 129.643636 215.562353 
L 129.909818 216.814002 
L 130.176 217.230156 
L 130.442182 217.312249 
L 130.708364 216.794014 
L 131.240727 216.414087 
L 131.506909 216.79886 
L 131.773091 217.911813 
L 132.571636 223.056303 
L 132.837818 225.210221 
L 133.104 226.363853 
L 133.370182 226.802093 
L 133.636364 226.9144 
L 134.168727 226.64966 
L 134.434909 226.578882 
L 134.701091 227.034213 
L 135.233455 228.748048 
L 135.765818 231.075905 
L 136.298182 233.979801 
L 136.830545 235.225454 
L 137.362909 236.126504 
L 137.895273 236.510767 
L 138.693818 239.541744 
L 139.492364 243.094897 
L 140.557091 245.978547 
L 141.089455 247.950292 
L 141.621818 250.580038 
L 142.420364 253.31819 
L 142.952727 254.928355 
L 143.485091 256.016287 
L 144.017455 256.845246 
L 145.614545 261.177819 
L 145.880727 261.374142 
L 146.146909 261.214494 
L 146.413091 260.715136 
L 147.211636 259.984532 
L 147.477818 259.944249 
L 148.010182 260.086113 
L 148.542545 260.087877 
L 148.808727 260.163847 
L 149.341091 259.997888 
L 149.607273 260.150158 
L 149.873455 261.043329 
L 150.405818 264.904999 
L 150.672 265.673178 
L 151.204364 266.058591 
L 151.470545 266.212147 
L 152.002909 266.894354 
L 152.269091 266.835048 
L 153.866182 264.184854 
L 154.132364 264.110986 
L 155.197091 263.197212 
L 155.463273 262.490664 
L 155.995636 260.531476 
L 156.794182 259.731643 
L 157.592727 260.612511 
L 158.125091 260.633851 
L 158.391273 260.49603 
L 159.189818 258.184118 
L 159.456 257.913984 
L 159.988364 256.580168 
L 160.520727 253.760915 
L 160.786909 252.439498 
L 161.585455 251.922444 
L 162.650182 247.331403 
L 162.916364 245.310425 
L 163.182545 244.151719 
L 163.448727 243.548696 
L 163.981091 241.416965 
L 164.247273 241.492053 
L 164.513455 241.724156 
L 164.779636 241.560672 
L 165.045818 240.72329 
L 165.312 240.661738 
L 165.578182 240.885159 
L 165.844364 240.718032 
L 166.110545 240.302958 
L 166.642909 242.09634 
L 166.909091 241.991073 
L 167.175273 241.124653 
L 167.441455 240.952136 
L 167.707636 240.227562 
L 168.24 236.914236 
L 168.772364 236.283 
L 169.304727 234.717911 
L 169.570909 234.95514 
L 169.837091 234.961443 
L 170.369455 234.305567 
L 170.635636 234.728603 
L 170.901818 234.756991 
L 172.498909 230.561945 
L 172.765091 231.072859 
L 173.031273 230.949728 
L 173.297455 230.246898 
L 173.563636 229.166405 
L 173.829818 228.692605 
L 174.096 227.209872 
L 174.628364 222.981083 
L 175.160727 222.156412 
L 175.426909 221.693848 
L 175.693091 222.015084 
L 175.959273 223.038124 
L 176.225455 222.723252 
L 176.757818 221.663107 
L 177.024 221.672596 
L 177.290182 219.849842 
L 178.354909 209.624039 
L 178.621091 207.836573 
L 178.887273 207.570122 
L 179.153455 208.785235 
L 179.419636 208.811561 
L 179.685818 209.051555 
L 180.218182 208.975616 
L 180.484364 207.348 
L 181.016727 203.23344 
L 181.282909 202.676906 
L 181.549091 201.269525 
L 181.815273 201.118076 
L 182.081455 201.133674 
L 182.347636 201.548196 
L 182.613818 200.700877 
L 183.146182 200.064901 
L 183.412364 199.950171 
L 183.944727 197.626185 
L 185.009455 194.998168 
L 185.541818 195.833022 
L 185.808 195.480904 
L 186.074182 195.555036 
L 186.340364 195.147151 
L 186.606545 194.103123 
L 187.138909 189.446022 
L 187.405091 188.428767 
L 187.937455 187.081367 
L 188.736 190.510468 
L 189.002182 190.177618 
L 189.534545 189.901993 
L 190.599273 186.241922 
L 191.131636 184.745522 
L 191.397818 185.206383 
L 191.664 185.939471 
L 191.930182 186.280072 
L 192.196364 186.031405 
L 192.728727 187.367385 
L 192.994909 186.718461 
L 193.261091 185.402162 
L 194.059636 183.753715 
L 194.325818 183.613616 
L 194.858182 185.073359 
L 195.124364 185.064107 
L 195.390545 184.789544 
L 195.656727 185.252336 
L 195.922909 185.066205 
L 196.189091 184.384986 
L 196.455273 183.338728 
L 196.721455 183.340598 
L 197.52 182.857721 
L 197.786182 183.434928 
L 198.052364 183.615354 
L 198.584727 182.732256 
L 198.850909 182.65916 
L 199.383273 181.225102 
L 199.649455 180.321823 
L 200.181818 179.690297 
L 200.448 179.668545 
L 200.714182 179.51491 
L 200.980364 179.891474 
L 201.246545 179.936278 
L 201.512727 179.734047 
L 202.311273 178.497427 
L 202.843636 177.050395 
L 203.376 176.280341 
L 203.642182 176.219728 
L 203.908364 176.035949 
L 204.440727 176.250039 
L 204.706909 176.232184 
L 205.505455 174.295701 
L 206.570182 170.613087 
L 207.102545 169.55634 
L 207.901091 167.179711 
L 208.699636 161.712704 
L 208.965818 160.397037 
L 209.498182 156.717083 
L 210.296727 154.437576 
L 210.562909 153.075507 
L 210.829091 152.497274 
L 211.095273 151.491422 
L 211.627636 148.313139 
L 212.16 146.686216 
L 212.692364 143.55753 
L 213.224727 142.756226 
L 213.757091 141.536118 
L 214.289455 141.547406 
L 214.821818 139.53242 
L 215.088 139.680542 
L 215.354182 139.513775 
L 215.620364 138.750463 
L 215.886545 138.640052 
L 216.418909 140.546189 
L 216.685091 140.349401 
L 216.951273 141.014714 
L 217.217455 138.769161 
L 217.483636 134.713485 
L 217.749818 133.160544 
L 218.016 133.398485 
L 218.282182 134.693559 
L 218.548364 135.105675 
L 219.080727 132.74439 
L 219.346909 132.418107 
L 219.613091 131.798634 
L 219.879273 130.403858 
L 220.145455 129.90217 
L 220.677818 132.625622 
L 221.210182 133.50226 
L 221.476364 134.590099 
L 221.742545 135.174513 
L 222.274909 134.695542 
L 222.541091 135.101742 
L 222.807273 135.804151 
L 223.073455 135.938615 
L 223.339636 135.945005 
L 224.138182 137.59749 
L 224.404364 137.660604 
L 224.936727 138.794547 
L 225.202909 138.642562 
L 225.469091 138.324144 
L 225.735273 138.705484 
L 226.001455 139.321779 
L 226.267636 139.253398 
L 226.533818 138.974832 
L 226.8 139.416601 
L 227.066182 140.170573 
L 227.332364 140.324067 
L 227.598545 140.196205 
L 227.864727 140.571839 
L 228.130909 141.154128 
L 228.663273 140.696857 
L 229.195636 142.291354 
L 229.728 142.500958 
L 230.260364 144.714155 
L 230.792727 145.343793 
L 231.325091 146.942924 
L 231.857455 146.947348 
L 232.123636 147.633255 
L 232.389818 148.657172 
L 232.656 148.780329 
L 232.922182 149.118761 
L 233.454545 151.327166 
L 233.986909 151.852906 
L 234.519273 153.536957 
L 234.785455 153.213991 
L 235.051636 153.104563 
L 235.584 155.265618 
L 235.850182 155.376258 
L 236.116364 155.908248 
L 236.648727 158.528856 
L 236.914909 158.721255 
L 237.181091 159.271241 
L 237.713455 160.786681 
L 237.979636 160.499829 
L 238.245818 160.468105 
L 238.778182 161.522271 
L 239.044364 161.289264 
L 239.310545 161.394778 
L 239.842909 162.506968 
L 240.109091 162.521048 
L 240.375273 162.65272 
L 240.907636 163.201898 
L 241.173818 162.798472 
L 241.44 162.698875 
L 241.972364 163.14326 
L 242.238545 162.938835 
L 242.504727 162.92414 
L 243.037091 163.880746 
L 243.569455 163.790103 
L 244.101818 164.507049 
L 244.368 164.292617 
L 244.634182 164.343231 
L 245.166545 165.196607 
L 245.432727 165.255526 
L 245.698909 165.583512 
L 246.231273 167.164367 
L 246.497455 167.453344 
L 246.763636 167.452395 
L 247.296 168.294008 
L 247.828364 167.736684 
L 248.094545 168.060527 
L 248.360727 168.666026 
L 248.893091 168.787129 
L 249.425455 170.249286 
L 249.691636 170.522918 
L 249.957818 170.466062 
L 250.224 171.021236 
L 250.490182 170.903582 
L 251.288727 170.01843 
L 251.554909 170.031378 
L 251.821091 169.755744 
L 252.087273 169.669709 
L 252.353455 170.165595 
L 252.619636 171.147026 
L 253.418182 172.663265 
L 253.950545 173.608609 
L 254.216727 173.936192 
L 254.749091 175.425386 
L 255.281455 176.098713 
L 255.813818 178.158231 
L 256.346182 177.729507 
L 256.612364 178.034485 
L 256.878545 178.682909 
L 257.410909 177.540698 
L 257.677091 177.4419 
L 257.943273 177.156206 
L 259.008 172.746702 
L 259.806545 166.092434 
L 260.338909 164.503977 
L 260.871273 162.837535 
L 261.137455 162.329491 
L 261.936 159.210584 
L 262.734545 155.873609 
L 264.331636 152.661969 
L 265.130182 151.438894 
L 265.396364 151.296425 
L 265.662545 150.98861 
L 266.194909 151.154921 
L 266.461091 150.942929 
L 266.993455 150.084216 
L 267.259636 150.009462 
L 268.590545 146.944399 
L 269.122909 144.56598 
L 269.655273 142.945342 
L 269.921455 141.730132 
L 270.187636 141.193015 
L 270.453818 141.226372 
L 270.72 140.826405 
L 270.986182 140.222013 
L 271.252364 140.034915 
L 271.518545 140.200102 
L 272.050909 139.851505 
L 272.317091 139.867429 
L 272.583273 140.112286 
L 272.849455 140.112742 
L 273.115636 139.838074 
L 273.381818 139.300975 
L 273.648 139.444392 
L 273.914182 139.455664 
L 274.180364 139.225957 
L 274.446545 139.20805 
L 274.712727 139.489354 
L 275.511273 139.746799 
L 275.777455 139.965235 
L 276.043636 139.814373 
L 277.108364 138.666948 
L 277.640727 137.371347 
L 277.906909 137.29668 
L 278.173091 137.625755 
L 278.705455 137.614431 
L 278.971636 137.88845 
L 279.237818 137.873861 
L 280.036364 137.469961 
L 280.302545 137.380564 
L 281.101091 135.753168 
L 281.367273 135.992442 
L 281.633455 135.500954 
L 281.899636 134.46078 
L 282.165818 134.501984 
L 282.432 134.82581 
L 282.964364 134.802232 
L 283.496727 135.511611 
L 283.762909 135.356448 
L 284.029091 135.45285 
L 284.295273 135.72032 
L 284.561455 136.209613 
L 284.827636 136.30921 
L 285.36 136.048078 
L 285.626182 136.357016 
L 285.892364 136.214617 
L 286.158545 135.790141 
L 286.424727 135.94511 
L 286.690909 136.462476 
L 286.957091 136.5672 
L 287.223273 136.883265 
L 287.755636 138.394545 
L 288.820364 139.760739 
L 289.086545 139.682596 
L 289.618909 139.098253 
L 290.151273 138.957961 
L 290.417455 137.680794 
L 291.482182 140.170836 
L 291.748364 140.632215 
L 292.014545 140.677019 
L 292.813091 139.250747 
L 293.079273 139.091669 
L 293.611636 139.08491 
L 294.942545 139.724608 
L 295.208727 139.832088 
L 295.741091 139.444638 
L 296.273455 139.220866 
L 296.539636 139.145058 
L 296.805818 139.266354 
L 297.604364 139.915234 
L 298.136727 140.147644 
L 298.402909 140.069975 
L 298.669091 139.674327 
L 298.935273 138.725779 
L 299.201455 138.597653 
L 299.733818 138.666439 
L 300.266182 139.56374 
L 300.532364 140.169397 
L 300.798545 140.368555 
L 301.064727 140.812448 
L 301.330909 140.884973 
L 301.597091 140.682444 
L 302.129455 139.47092 
L 302.395636 139.049025 
L 302.928 138.816387 
L 303.194182 138.937947 
L 303.992727 140.617942 
L 304.525091 142.188684 
L 304.791273 142.542619 
L 305.057455 141.610029 
L 305.323636 141.430411 
L 305.589818 141.084816 
L 305.856 141.048878 
L 306.122182 140.661429 
L 307.186909 143.920822 
L 307.453091 143.874719 
L 307.719273 145.088911 
L 308.784 153.912204 
L 309.050182 154.828203 
L 309.316364 154.850991 
L 309.848727 157.794617 
L 310.114909 158.91397 
L 310.381091 159.318783 
L 310.647273 160.838051 
L 310.913455 161.296673 
L 311.179636 161.107223 
L 311.445818 160.446616 
L 312.510545 163.166171 
L 313.042909 165.736463 
L 313.309091 166.720351 
L 313.575273 167.146653 
L 313.841455 167.891232 
L 314.107636 167.93112 
L 314.373818 167.694198 
L 314.64 167.24697 
L 315.172364 167.694479 
L 315.704727 168.357492 
L 316.237091 169.978796 
L 316.769455 170.949623 
L 317.035636 171.456938 
L 317.301818 171.440436 
L 317.834182 170.963642 
L 318.100364 171.11187 
L 318.366545 171.077073 
L 318.632727 171.235782 
L 318.898909 171.556807 
L 319.431273 172.693471 
L 319.963636 173.522549 
L 320.229818 174.377785 
L 320.762182 174.874066 
L 321.028364 176.282834 
L 321.560727 183.411719 
L 321.826909 186.979093 
L 323.424 199.010524 
L 323.956364 198.384037 
L 324.222545 198.838683 
L 324.488727 189.265262 
L 324.754909 190.554938 
L 325.021091 191.260428 
L 326.085818 198.662804 
L 326.352 199.969395 
L 326.618182 200.626228 
L 326.884364 199.628856 
L 327.150545 199.333735 
L 327.416727 199.660826 
L 328.215273 202.528161 
L 329.013818 208.181861 
L 329.546182 211.639324 
L 329.812364 212.202661 
L 330.078545 211.444643 
L 330.877091 211.329991 
L 331.143273 211.030464 
L 331.675636 212.98525 
L 332.740364 217.879405 
L 333.272727 215.12076 
L 333.805091 213.586825 
L 334.071273 213.452554 
L 334.337455 213.671262 
L 335.668364 220.723802 
L 335.934545 221.374131 
L 336.200727 221.402862 
L 336.466909 220.912471 
L 336.733091 220.845336 
L 337.265455 221.066773 
L 337.797818 223.879175 
L 338.596364 227.068299 
L 338.862545 227.759094 
L 339.128727 227.77342 
L 339.394909 227.637385 
L 339.661091 227.340711 
L 340.193455 227.694601 
L 340.992 229.223577 
L 341.258182 229.442276 
L 341.524364 229.197392 
L 342.056727 229.357786 
L 342.589091 228.665885 
L 342.855273 228.166848 
L 343.121455 228.025818 
L 343.387636 227.682795 
L 343.92 227.622875 
L 344.452364 228.087449 
L 344.984727 229.527643 
L 345.250909 229.964496 
L 345.517091 229.936046 
L 346.581818 230.586234 
L 347.114182 232.123076 
L 348.445091 237.699046 
L 348.711273 238.342641 
L 349.243636 240.322867 
L 349.776 241.916485 
L 351.373091 247.614392 
L 351.639273 247.802161 
L 352.437818 247.913665 
L 352.704 247.757371 
L 352.970182 247.949502 
L 353.502545 248.959954 
L 354.034909 248.863618 
L 354.567273 248.128585 
L 355.632 244.883821 
L 356.164364 243.512219 
L 356.962909 242.618596 
L 357.761455 241.100671 
L 358.293818 238.707399 
L 358.56 232.34554 
L 359.092364 230.634137 
L 359.358545 230.087864 
L 359.624727 229.864039 
L 360.157091 229.740531 
L 360.955636 228.915798 
L 361.754182 226.810651 
L 362.552727 225.864421 
L 362.818909 225.898805 
L 363.617455 226.673932 
L 364.149818 226.765839 
L 364.416 226.384964 
L 365.214545 224.600053 
L 365.746909 223.822389 
L 366.013091 223.902998 
L 366.279273 224.297295 
L 366.545455 224.478555 
L 367.344 224.322918 
L 367.610182 224.119283 
L 368.142545 223.226652 
L 368.408727 223.360079 
L 368.674909 223.341996 
L 369.207273 223.671194 
L 369.473455 224.300613 
L 370.005818 224.887906 
L 370.538182 225.319746 
L 370.804364 224.996043 
L 371.336727 223.643587 
L 371.869091 223.938462 
L 372.135273 224.260409 
L 372.401455 224.785412 
L 372.933818 226.367496 
L 373.2 226.690847 
L 373.466182 226.68314 
L 373.732364 226.505743 
L 373.998545 225.778527 
L 375.595636 219.602808 
L 375.861818 220.534168 
L 376.394182 223.280725 
L 376.926545 225.164566 
L 377.192727 225.300768 
L 377.458909 224.880348 
L 377.725091 224.202228 
L 378.257455 223.682887 
L 378.523636 223.65865 
L 378.789818 224.227921 
L 379.322182 227.809806 
L 379.588364 228.694835 
L 379.854545 228.672372 
L 380.653091 230.991732 
L 380.919273 231.433202 
L 381.717818 233.545169 
L 381.984 233.832399 
L 382.516364 234.697037 
L 382.782545 234.628251 
L 383.048727 234.229443 
L 383.581091 234.641769 
L 383.847273 234.60412 
L 384.113455 234.997477 
L 384.379636 235.596611 
L 384.912 238.406687 
L 385.444364 242.037456 
L 385.710545 243.990417 
L 385.976727 245.060042 
L 386.509091 245.193983 
L 387.041455 245.950378 
L 387.307636 246.702932 
L 387.573818 249.367075 
L 388.106182 258.383606 
L 388.638545 267.904103 
L 389.170909 274.09485 
L 389.969455 279.307287 
L 391.034182 283.96157 
L 391.566545 285.529385 
L 392.098909 286.539913 
L 392.365091 286.737189 
L 392.631273 284.196185 
L 392.897455 284.250329 
L 393.163636 284.097225 
L 393.696 283.229298 
L 394.760727 280.735786 
L 395.559273 277.320504 
L 397.156364 266.760364 
L 398.221091 261.951932 
L 399.019636 259.018849 
L 399.552 256.613332 
L 400.084364 254.459896 
L 400.882909 251.348915 
L 401.149091 254.957898 
L 401.681455 252.806679 
L 402.213818 249.193382 
L 402.746182 245.916797 
L 403.278545 243.934816 
L 403.544727 243.229532 
L 403.810909 242.999589 
L 404.077091 243.006677 
L 404.609455 242.002985 
L 404.875636 241.14048 
L 405.141818 239.851832 
L 405.408 241.640377 
L 405.940364 239.168559 
L 406.472727 237.679585 
L 406.738909 237.892472 
L 407.803636 241.562893 
L 408.069818 241.557134 
L 408.336 240.957693 
L 408.868364 237.182786 
L 409.400727 232.713063 
L 409.666909 241.304298 
L 409.933091 241.02704 
L 410.465455 240.869543 
L 410.731636 240.464344 
L 411.530182 240.254599 
L 412.594909 238.322241 
L 413.393455 235.574517 
L 413.659636 234.578181 
L 413.925818 236.395255 
L 414.724364 233.179525 
L 414.990545 231.82102 
L 415.256727 231.132305 
L 415.522909 231.043961 
L 415.789091 231.08923 
L 416.055273 231.469148 
L 416.321455 231.401653 
L 416.853818 231.895722 
L 417.12 231.308491 
L 417.652364 228.529464 
L 417.918545 226.404276 
L 418.184727 239.585161 
L 418.983273 235.957876 
L 419.249455 235.268599 
L 419.515636 235.222268 
L 420.048 236.979098 
L 420.314182 238.307994 
L 421.112727 238.879284 
L 421.378909 238.708857 
L 422.177455 235.494425 
L 422.443636 245.26261 
L 422.709818 244.908505 
L 422.976 244.827158 
L 423.242182 244.909233 
L 423.508364 245.117574 
L 423.774545 245.676943 
L 424.573091 248.627828 
L 425.105455 248.665043 
L 425.371636 248.536128 
L 425.637818 247.921478 
L 426.170182 244.329367 
L 426.436364 240.914092 
L 426.436364 240.914092 
" clip-path="url(#p4a3b624b39)" style="fill: none; stroke: #ffa500; stroke-width: 3; stroke-linecap: square"/>
   </g>
   <g id="patch_3">
    <path d="M 7.2 331.2 
L 7.2 7.2 
" style="fill: none; stroke: #000000; stroke-width: 0.8; stroke-linejoin: miter; stroke-linecap: square"/>
   </g>
   <g id="patch_4">
    <path d="M 446.4 331.2 
L 446.4 7.2 
" style="fill: none; stroke: #000000; stroke-width: 0.8; stroke-linejoin: miter; stroke-linecap: square"/>
   </g>
   <g id="patch_5">
    <path d="M 7.2 331.2 
L 446.4 331.2 
" style="fill: none; stroke: #000000; stroke-width: 0.8; stroke-linejoin: miter; stroke-linecap: square"/>
   </g>
   <g id="patch_6">
    <path d="M 7.2 7.2 
L 446.4 7.2 
" style="fill: none; stroke: #000000; stroke-width: 0.8; stroke-linejoin: miter; stroke-linecap: square"/>
   </g>
  </g>
 </g>
 <defs>
  <clipPath id="p4a3b624b39">
   <rect x="7.2" y="7.2" width="439.2" height="324"/>
  </clipPath>
 </defs>
</svg>
