<?xml version="1.0" encoding="utf-8" standalone="no"?>
<!DOCTYPE svg PUBLIC "-//W3C//DTD SVG 1.1//EN"
  "http://www.w3.org/Graphics/SVG/1.1/DTD/svg11.dtd">
<svg xmlns:xlink="http://www.w3.org/1999/xlink" width="453.6pt" height="338.4pt" viewBox="0 0 453.6 338.4" xmlns="http://www.w3.org/2000/svg" version="1.1">
 <metadata>
  <rdf:RDF xmlns:dc="http://purl.org/dc/elements/1.1/" xmlns:cc="http://creativecommons.org/ns#" xmlns:rdf="http://www.w3.org/1999/02/22-rdf-syntax-ns#">
   <cc:Work>
    <dc:type rdf:resource="http://purl.org/dc/dcmitype/StillImage"/>
    <dc:date>2025-05-14T16:17:21.893146</dc:date>
    <dc:format>image/svg+xml</dc:format>
    <dc:creator>
     <cc:Agent>
      <dc:title>Matplotlib v3.10.1, https://matplotlib.org/</dc:title>
     </cc:Agent>
    </dc:creator>
   </cc:Work>
  </rdf:RDF>
 </metadata>
 <defs>
  <style type="text/css">*{stroke-linejoin: round; stroke-linecap: butt}</style>
 </defs>
 <g id="figure_1">
  <g id="patch_1">
   <path d="M 0 338.4 
L 453.6 338.4 
L 453.6 0 
L 0 0 
z
" style="fill: #ffffff"/>
  </g>
  <g id="axes_1">
   <g id="patch_2">
    <path d="M 7.2 331.2 
L 446.4 331.2 
L 446.4 7.2 
L 7.2 7.2 
z
" style="fill: #ffffff"/>
   </g>
   <g id="matplotlib.axis_1"/>
   <g id="matplotlib.axis_2"/>
   <g id="line2d_1">
    <path d="M 27.163636 247.814042 
L 32.753455 249.967201 
L 38.343273 251.879545 
L 43.933091 253.551052 
L 49.522909 254.981752 
L 54.846545 256.120426 
L 60.170182 257.040678 
L 65.493818 257.742503 
L 70.817455 258.22588 
L 76.141091 258.490831 
L 81.464727 258.537355 
L 86.788364 258.365453 
L 92.112 257.975111 
L 97.435636 257.366342 
L 102.759273 256.539143 
L 108.082909 255.493513 
L 113.406545 254.229453 
L 118.996364 252.667102 
L 124.586182 250.863927 
L 130.176 248.819942 
L 135.765818 246.535133 
L 141.089455 244.13275 
L 145.348364 230.160617 
L 149.607273 216.933112 
L 153.866182 204.450239 
L 157.858909 193.423818 
L 161.851636 183.051841 
L 165.578182 173.961789 
L 169.304727 165.441833 
L 173.031273 157.492017 
L 176.491636 150.62049 
L 179.952 144.240522 
L 183.146182 138.787647 
L 186.340364 133.753578 
L 189.534545 129.138419 
L 192.462545 125.275775 
L 195.390545 121.765081 
L 198.318545 118.606356 
L 200.980364 116.040154 
L 203.642182 113.764861 
L 206.304 111.78044 
L 208.965818 110.086891 
L 211.361455 108.811357 
L 213.757091 107.771464 
L 216.152727 106.967141 
L 218.548364 106.39844 
L 220.944 106.065345 
L 223.339636 105.967837 
L 225.735273 106.105935 
L 228.130909 106.479655 
L 230.526545 107.088964 
L 232.922182 107.933877 
L 235.317818 109.014413 
L 237.713455 110.330537 
L 240.109091 111.882249 
L 240.375273 112.08218 
L 243.835636 117.381823 
L 247.029818 121.882866 
L 250.224 126.008609 
L 253.418182 129.758963 
L 256.346182 132.867126 
L 259.274182 135.659874 
L 262.202182 138.137222 
L 264.864 140.115692 
L 267.525818 141.833538 
L 270.187636 143.290692 
L 272.849455 144.487222 
L 275.511273 145.42313 
L 277.906909 146.042568 
L 280.302545 146.450892 
L 282.698182 146.648084 
L 285.093818 146.634144 
L 287.489455 146.409091 
L 289.885091 145.972922 
L 292.280727 145.325622 
L 294.676364 144.467191 
L 297.338182 143.26578 
L 300 141.80371 
L 302.661818 140.081001 
L 305.323636 138.09765 
L 307.985455 135.853607 
L 310.913455 133.084175 
L 313.841455 129.999344 
L 316.769455 126.599114 
L 319.963636 122.530078 
L 323.157818 118.085724 
L 326.352 113.266052 
L 329.812364 107.621165 
L 333.272727 101.535825 
L 336.733091 95.009911 
L 340.459636 87.489469 
L 344.186182 79.458087 
L 347.912727 70.91587 
L 351.905455 61.196627 
L 352.970182 58.505794 
L 353.236364 59.15025 
L 356.696727 72.548217 
L 360.157091 85.083153 
L 363.617455 96.755234 
L 366.811636 106.763453 
L 370.005818 116.03645 
L 372.933818 123.89076 
L 375.861818 131.127212 
L 378.789818 137.74584 
L 381.451636 143.226594 
L 384.113455 148.196723 
L 386.509091 152.233245 
L 388.904727 155.856229 
L 391.300364 159.065569 
L 393.429818 161.57113 
L 395.559273 163.749847 
L 397.688727 165.601788 
L 399.552 166.954166 
L 401.415273 168.056349 
L 403.278545 168.90832 
L 405.141818 169.510079 
L 407.005091 169.861643 
L 408.868364 169.963013 
L 410.731636 169.814171 
L 412.594909 169.415117 
L 414.458182 168.765868 
L 416.321455 167.866425 
L 418.184727 166.716752 
L 420.048 165.316903 
L 422.177455 163.410695 
L 424.306909 161.177677 
L 426.436364 158.617901 
L 426.436364 158.617901 
" clip-path="url(#p84eb078e2b)" style="fill: none; stroke-dasharray: 11.1,4.8; stroke-dashoffset: 0; stroke: #000000; stroke-width: 3"/>
   </g>
   <g id="line2d_2">
    <path d="M 27.163636 281.969207 
L 27.429818 286.785589 
L 27.696 288.205005 
L 27.962182 288.938309 
L 28.228364 288.769367 
L 28.494545 289.040057 
L 29.026909 289.956457 
L 29.293091 289.777778 
L 29.559273 289.975947 
L 30.091636 290.69357 
L 30.357818 290.003942 
L 30.624 289.969703 
L 30.890182 290.173049 
L 31.156364 290.134559 
L 31.422545 288.314515 
L 32.221091 288.529068 
L 32.487273 288.172303 
L 33.818182 289.508528 
L 34.350545 290.263624 
L 35.415273 290.220071 
L 35.681455 289.614307 
L 36.213818 289.52378 
L 36.48 289.30484 
L 37.012364 288.089191 
L 37.544727 287.525793 
L 37.810909 286.934093 
L 38.077091 286.676001 
L 38.343273 286.593403 
L 38.609455 286.333515 
L 39.141818 284.994445 
L 39.674182 283.91455 
L 39.940364 283.959246 
L 40.738909 283.273111 
L 41.005091 283.354601 
L 41.271273 283.280562 
L 41.803636 282.802162 
L 42.602182 282.518253 
L 43.134545 282.918742 
L 43.400727 282.935287 
L 43.933091 282.564422 
L 44.199273 283.913036 
L 44.731636 283.753886 
L 44.997818 283.472195 
L 45.796364 281.580004 
L 46.594909 280.374901 
L 47.127273 280.020664 
L 47.659636 279.122643 
L 48.192 278.591991 
L 48.458182 278.004909 
L 48.990545 277.494627 
L 50.587636 275.047339 
L 51.652364 274.466986 
L 51.918545 274.535934 
L 52.450909 274.533831 
L 52.717091 276.760696 
L 52.983273 276.898881 
L 53.249455 276.871283 
L 54.580364 275.99472 
L 55.112727 275.723322 
L 55.911273 275.082316 
L 56.443636 274.475812 
L 56.709818 274.091663 
L 56.976 274.475115 
L 57.774545 274.382514 
L 58.040727 274.526651 
L 58.573091 273.888717 
L 58.839273 273.487025 
L 60.170182 273.561157 
L 60.436364 273.302632 
L 61.234909 272.103841 
L 61.501091 272.139906 
L 61.767273 271.947037 
L 65.227636 267.08232 
L 65.493818 265.754381 
L 66.026182 264.572224 
L 67.357091 262.63855 
L 67.889455 261.832585 
L 68.421818 261.768219 
L 68.954182 261.857901 
L 69.486545 261.498322 
L 69.752727 262.386718 
L 70.817455 261.997794 
L 71.616 261.091486 
L 72.148364 261.033915 
L 73.213091 260.81993 
L 73.745455 260.529264 
L 74.011636 260.982655 
L 74.277818 260.992179 
L 75.874909 260.305461 
L 76.141091 260.426915 
L 76.407273 260.396613 
L 76.939636 260.060226 
L 77.472 260.327617 
L 78.004364 260.139106 
L 78.270545 257.508412 
L 79.069091 256.750029 
L 79.867636 256.787841 
L 80.666182 256.255798 
L 81.198545 256.313295 
L 81.464727 256.637845 
L 81.730909 256.597939 
L 82.263273 255.83278 
L 82.529455 255.001227 
L 83.061818 254.608914 
L 83.594182 254.519531 
L 84.392727 253.786732 
L 84.658909 253.699187 
L 85.457455 253.782887 
L 85.989818 253.717169 
L 86.522182 253.874539 
L 87.054545 254.351245 
L 87.853091 254.721669 
L 89.184 255.87236 
L 89.716364 255.987797 
L 90.248727 256.454364 
L 90.514909 256.540758 
L 90.781091 256.477503 
L 91.047273 255.811756 
L 91.579636 255.687089 
L 92.644364 256.128721 
L 93.442909 255.992322 
L 93.709091 256.101922 
L 94.241455 256.771193 
L 94.773818 257.193238 
L 95.04 257.410668 
L 95.306182 255.415278 
L 96.370909 257.40781 
L 96.637091 257.597739 
L 97.169455 258.303176 
L 97.435636 258.383623 
L 97.968 259.066843 
L 98.500364 259.938447 
L 100.896 261.937141 
L 101.960727 263.629773 
L 102.226909 264.043341 
L 103.557818 267.535816 
L 104.356364 268.824706 
L 105.687273 271.875596 
L 106.219636 272.815871 
L 107.284364 275.165735 
L 107.816727 275.542712 
L 108.349091 275.957229 
L 108.881455 276.665765 
L 110.212364 277.557984 
L 111.010909 278.224661 
L 111.809455 278.471261 
L 112.075636 278.538058 
L 112.608 278.475624 
L 113.672727 278.5254 
L 114.471273 278.752087 
L 115.003636 278.555944 
L 115.802182 278.6572 
L 116.068364 278.525343 
L 116.334545 278.259273 
L 116.866909 277.534182 
L 118.464 276.874768 
L 118.996364 276.614347 
L 119.528727 276.504273 
L 119.794909 276.51658 
L 120.327273 276.183766 
L 120.593455 275.944386 
L 120.859636 275.94921 
L 121.392 275.792634 
L 121.658182 275.724086 
L 121.924364 275.829801 
L 122.456727 275.761577 
L 122.989091 275.856973 
L 123.521455 275.520586 
L 123.787636 275.326107 
L 124.32 275.247121 
L 125.118545 274.436684 
L 125.917091 273.497634 
L 126.183273 273.498353 
L 128.845091 270.834724 
L 129.111273 270.228343 
L 129.377455 271.057706 
L 129.643636 270.199762 
L 129.909818 269.768035 
L 130.708364 267.432989 
L 131.506909 265.432293 
L 132.039273 264.074166 
L 133.370182 260.715672 
L 133.636364 259.593409 
L 134.168727 258.684204 
L 134.701091 257.767964 
L 135.233455 256.623308 
L 136.032 255.807788 
L 137.629091 253.089431 
L 137.895273 252.149973 
L 138.96 250.695106 
L 139.492364 249.932462 
L 139.758545 249.72341 
L 140.290909 248.615434 
L 140.823273 247.266651 
L 141.355636 245.930754 
L 141.888 243.857029 
L 142.420364 241.496232 
L 144.816 234.241793 
L 145.614545 232.05918 
L 146.146909 230.26951 
L 146.413091 230.402657 
L 147.211636 228.325565 
L 148.010182 226.152607 
L 149.074909 223.93596 
L 151.470545 218.3768 
L 152.801455 216.156642 
L 153.6 215.091608 
L 154.930909 213.678653 
L 155.463273 213.504881 
L 155.995636 213.045187 
L 162.916364 209.855255 
L 163.981091 209.417463 
L 164.513455 209.00655 
L 165.844364 208.821744 
L 166.110545 208.669004 
L 166.642909 208.662833 
L 166.909091 208.75323 
L 167.175273 208.671883 
L 168.24 207.78049 
L 168.506182 207.604216 
L 170.369455 207.433709 
L 171.168 207.550739 
L 171.700364 207.527539 
L 172.232727 207.823529 
L 172.498909 207.859818 
L 173.031273 207.609676 
L 174.362182 208.082888 
L 174.894545 207.794903 
L 175.160727 207.778532 
L 175.959273 208.116394 
L 176.225455 208.22117 
L 177.290182 208.054289 
L 177.822545 208.300858 
L 178.088727 208.380642 
L 178.354909 208.299322 
L 180.218182 208.783067 
L 180.484364 209.265847 
L 180.750545 209.41461 
L 181.016727 209.346264 
L 181.549091 208.910605 
L 182.081455 208.758322 
L 182.88 208.9758 
L 183.678545 208.715476 
L 184.477091 209.299634 
L 185.009455 210.053238 
L 185.808 210.037419 
L 186.074182 210.350316 
L 186.340364 210.490011 
L 186.872727 211.164919 
L 187.138909 211.363594 
L 187.671273 211.413586 
L 188.203636 212.007532 
L 188.736 212.966403 
L 189.002182 213.866593 
L 189.268364 214.311592 
L 189.800727 214.140848 
L 190.066909 214.244465 
L 190.333091 214.502376 
L 190.599273 214.455334 
L 191.397818 215.073174 
L 191.930182 214.661488 
L 192.462545 214.729089 
L 192.994909 214.842406 
L 193.261091 215.253644 
L 193.527273 215.35188 
L 194.059636 214.776464 
L 194.592 214.443079 
L 194.858182 213.928988 
L 195.656727 213.374938 
L 196.987636 211.273074 
L 197.253818 211.056544 
L 197.52 211.098565 
L 197.786182 210.863828 
L 198.584727 208.984438 
L 199.383273 207.9856 
L 199.915636 207.424484 
L 200.448 206.608301 
L 201.246545 205.868725 
L 203.109818 203.786472 
L 203.642182 202.818261 
L 204.174545 201.46246 
L 205.505455 196.331936 
L 206.037818 194.113621 
L 206.570182 191.59872 
L 207.102545 187.245141 
L 207.901091 179.880423 
L 208.699636 175.36709 
L 209.232 172.860826 
L 210.030545 170.746313 
L 210.562909 169.792103 
L 211.361455 167.343073 
L 211.893818 166.883098 
L 212.16 166.556709 
L 212.692364 165.156315 
L 213.224727 163.503392 
L 213.490909 163.102406 
L 213.757091 162.96782 
L 214.023273 162.682811 
L 215.088 160.636452 
L 215.354182 160.569194 
L 215.886545 160.814314 
L 216.152727 160.774585 
L 217.483636 159.970332 
L 218.548364 158.874398 
L 218.814545 158.866112 
L 219.879273 158.114949 
L 220.944 157.207886 
L 221.476364 156.064271 
L 222.008727 154.437594 
L 222.541091 153.780287 
L 223.073455 153.485605 
L 224.404364 151.502167 
L 225.202909 151.180518 
L 226.267636 149.234247 
L 226.8 148.922395 
L 227.066182 148.877661 
L 227.332364 148.655644 
L 227.598545 148.155097 
L 227.864727 147.902427 
L 228.130909 147.877059 
L 228.397091 147.722212 
L 229.195636 146.698225 
L 229.728 145.955471 
L 230.526545 144.41001 
L 231.058909 143.353368 
L 231.591273 143.185126 
L 232.389818 142.56639 
L 232.922182 141.894318 
L 233.188364 141.845881 
L 233.720727 142.055467 
L 234.253091 141.729324 
L 235.051636 141.16266 
L 235.317818 141.12746 
L 235.584 141.221614 
L 236.116364 141.000844 
L 236.382545 140.91775 
L 236.914909 140.919682 
L 237.447273 140.893224 
L 237.979636 140.949071 
L 238.512 140.964275 
L 238.778182 141.043313 
L 239.310545 140.96524 
L 240.641455 141.441507 
L 240.907636 141.615876 
L 241.706182 141.677762 
L 242.504727 142.162666 
L 243.037091 142.699818 
L 243.835636 143.026487 
L 244.101818 143.18474 
L 244.634182 143.327701 
L 245.166545 143.607811 
L 245.698909 143.468028 
L 247.029818 143.649051 
L 247.296 143.601034 
L 247.562182 143.363041 
L 248.360727 143.290165 
L 248.626909 143.201822 
L 249.425455 143.40228 
L 250.756364 143.315113 
L 251.022545 143.360899 
L 252.087273 144.043839 
L 252.619636 143.844241 
L 252.885818 143.661164 
L 253.152 143.715501 
L 253.418182 143.938273 
L 253.684364 144.424441 
L 254.482909 144.898935 
L 255.281455 144.718772 
L 255.813818 144.890595 
L 256.08 144.612188 
L 256.346182 144.780377 
L 256.612364 144.60348 
L 256.878545 144.771827 
L 257.144727 144.634818 
L 257.677091 145.218371 
L 257.943273 145.786984 
L 258.741818 146.088092 
L 259.008 146.074257 
L 259.806545 145.66481 
L 260.072727 145.76955 
L 260.338909 145.742075 
L 260.871273 146.416534 
L 261.137455 146.622926 
L 261.669818 145.72192 
L 261.936 145.571059 
L 262.202182 145.778346 
L 262.468364 145.809175 
L 263.000727 146.193798 
L 263.266909 146.020746 
L 263.799273 145.308505 
L 264.597818 145.64857 
L 264.864 146.194623 
L 265.396364 145.994622 
L 265.662545 145.40201 
L 265.928727 145.574781 
L 266.194909 145.532383 
L 266.727273 146.085967 
L 266.993455 146.270589 
L 267.259636 146.256298 
L 267.525818 146.072642 
L 267.792 146.2195 
L 268.856727 145.867321 
L 269.655273 146.657529 
L 270.453818 146.100925 
L 270.986182 145.537456 
L 271.784727 146.013758 
L 272.317091 145.987775 
L 272.583273 145.966953 
L 272.849455 145.731348 
L 273.115636 145.697763 
L 273.381818 147.450582 
L 273.914182 147.99444 
L 274.180364 147.62855 
L 274.446545 147.615242 
L 274.712727 147.124913 
L 274.978909 147.187097 
L 275.245091 147.089712 
L 275.777455 147.877708 
L 276.309818 148.298918 
L 276.576 148.365176 
L 276.842182 148.564615 
L 277.374545 148.577238 
L 277.640727 149.182895 
L 279.237818 150.948705 
L 279.504 150.741453 
L 280.036364 151.173513 
L 281.101091 154.147371 
L 281.367273 154.403183 
L 281.633455 154.269879 
L 281.899636 155.220551 
L 282.165818 155.627172 
L 282.964364 157.774217 
L 283.496727 158.66906 
L 283.762909 158.290336 
L 284.295273 159.237954 
L 285.093818 162.619767 
L 285.626182 163.79379 
L 286.158545 164.876977 
L 286.424727 165.629194 
L 286.690909 166.737205 
L 286.957091 167.36256 
L 287.489455 167.868725 
L 287.755636 168.3537 
L 288.021818 168.307334 
L 289.086545 168.956512 
L 289.618909 170.401876 
L 289.885091 171.267787 
L 290.151273 171.551224 
L 290.417455 173.205983 
L 290.949818 172.578153 
L 291.216 172.559078 
L 292.014545 173.887412 
L 292.813091 171.440541 
L 293.345455 171.725172 
L 293.611636 172.291608 
L 293.877818 172.531514 
L 294.144 172.269645 
L 294.676364 170.835297 
L 294.942545 170.935183 
L 295.474909 171.449293 
L 295.741091 171.338741 
L 296.273455 170.431169 
L 296.539636 169.65282 
L 297.338182 168.43818 
L 298.402909 164.846429 
L 298.669091 164.475536 
L 298.935273 164.336016 
L 299.467636 161.885914 
L 300 159.578072 
L 300.266182 159.787009 
L 300.798545 160.313048 
L 301.064727 159.66336 
L 301.597091 157.205534 
L 301.863273 156.23088 
L 302.661818 155.278803 
L 303.460364 153.183461 
L 303.726545 153.592557 
L 304.258909 155.802138 
L 304.791273 157.718107 
L 305.856 161.118582 
L 306.122182 161.444005 
L 306.388364 161.316582 
L 306.654545 161.058312 
L 306.920727 161.37443 
L 307.186909 162.512674 
L 307.453091 165.883514 
L 309.050182 171.235685 
L 309.582545 173.250461 
L 310.114909 174.441251 
L 310.381091 174.69407 
L 310.647273 174.767701 
L 310.913455 174.644044 
L 311.179636 174.867675 
L 311.445818 175.591073 
L 311.978182 177.473018 
L 312.244364 178.153894 
L 312.510545 179.191646 
L 313.309091 180.646631 
L 314.107636 182.918589 
L 314.906182 184.022914 
L 315.172364 184.496828 
L 315.438545 185.480858 
L 316.237091 189.926054 
L 316.503273 191.160015 
L 317.035636 194.622859 
L 317.301818 196.102993 
L 317.568 196.951076 
L 318.366545 200.924605 
L 318.632727 201.985294 
L 319.165091 205.046863 
L 319.697455 206.168314 
L 320.762182 211.10542 
L 321.028364 213.372752 
L 321.294545 214.556317 
L 321.560727 215.207813 
L 321.826909 215.224887 
L 322.625455 218.608561 
L 323.157818 219.199198 
L 323.424 218.650187 
L 323.956364 216.718426 
L 324.222545 216.679775 
L 324.488727 215.913382 
L 324.754909 215.619727 
L 325.021091 214.789403 
L 325.287273 214.583433 
L 325.819636 213.905366 
L 326.618182 210.793322 
L 327.416727 205.827187 
L 327.682909 204.711451 
L 329.013818 197.082028 
L 329.28 196.643156 
L 329.546182 196.572018 
L 329.812364 196.197437 
L 331.143273 192.440341 
L 331.675636 191.740215 
L 331.941818 191.131582 
L 333.006545 187.673689 
L 333.538909 186.417116 
L 334.071273 185.199246 
L 334.337455 184.838649 
L 334.603636 184.221195 
L 334.869818 184.195633 
L 335.402182 183.82028 
L 335.668364 183.69369 
L 336.200727 183.82265 
L 336.466909 183.118889 
L 337.531636 179.135404 
L 338.330182 177.712925 
L 339.661091 173.222933 
L 340.193455 171.849506 
L 340.459636 170.887299 
L 341.258182 166.605726 
L 341.524364 168.682739 
L 342.322909 165.272081 
L 342.855273 164.124779 
L 344.186182 159.662728 
L 344.718545 158.342268 
L 344.984727 156.790521 
L 346.315636 145.338877 
L 346.581818 144.479708 
L 346.848 144.023017 
L 347.380364 142.448131 
L 347.646545 141.467244 
L 348.445091 139.792147 
L 348.977455 137.372629 
L 349.776 133.750523 
L 350.042182 133.840201 
L 350.574545 132.728941 
L 350.840727 132.786877 
L 351.106909 134.140325 
L 351.905455 141.889438 
L 352.437818 141.524864 
L 352.704 141.772618 
L 353.236364 142.77524 
L 353.502545 143.028559 
L 354.034909 142.871992 
L 354.301091 143.072081 
L 354.567273 143.881303 
L 355.099636 146.592712 
L 355.632 149.553086 
L 356.164364 151.581503 
L 357.495273 158.765374 
L 358.027636 160.679833 
L 358.293818 161.934458 
L 358.56 163.847899 
L 358.826182 164.720937 
L 359.092364 165.10542 
L 359.358545 165.697751 
L 359.890909 167.869989 
L 360.423273 169.5396 
L 362.552727 174.216197 
L 362.818909 174.515005 
L 363.351273 177.138044 
L 363.883636 180.975785 
L 364.682182 187.551234 
L 365.214545 189.433346 
L 365.746909 190.778798 
L 366.811636 191.843437 
L 367.077818 191.210612 
L 367.344 191.300412 
L 368.142545 191.296927 
L 369.207273 191.392925 
L 369.473455 191.28513 
L 370.538182 191.306197 
L 372.401455 190.940254 
L 373.732364 190.358018 
L 373.998545 189.913036 
L 374.264727 187.223292 
L 374.797091 175.331881 
L 375.063273 174.432815 
L 375.329455 174.308148 
L 375.595636 173.05089 
L 376.128 173.104937 
L 378.257455 174.762224 
L 378.523636 175.127087 
L 379.588364 175.766487 
L 379.854545 175.573657 
L 380.386909 176.047238 
L 381.185455 177.037903 
L 382.782545 179.059122 
L 383.847273 178.903232 
L 384.113455 176.856187 
L 384.379636 176.864368 
L 384.645818 177.026606 
L 384.912 177.371394 
L 385.444364 177.651258 
L 385.710545 177.955447 
L 386.242909 178.832418 
L 387.041455 179.92391 
L 387.84 179.024703 
L 388.106182 178.978267 
L 388.372364 178.119783 
L 388.638545 178.15213 
L 388.904727 178.334417 
L 390.235636 181.113593 
L 391.566545 185.019672 
L 392.365091 185.588557 
L 392.631273 188.681771 
L 393.429818 190.004943 
L 394.494545 191.168863 
L 395.293091 193.160842 
L 395.559273 194.000928 
L 396.624 194.544856 
L 396.890182 194.005106 
L 397.422545 194.947492 
L 398.221091 196.323 
L 398.753455 196.823986 
L 399.818182 198.196158 
L 400.084364 197.892794 
L 400.882909 196.009884 
L 401.149091 192.031447 
L 401.415273 191.34792 
L 401.681455 191.074094 
L 401.947636 191.104212 
L 402.213818 191.315932 
L 402.746182 192.150382 
L 403.012364 192.156658 
L 403.544727 191.359156 
L 404.077091 191.389493 
L 404.343273 191.001534 
L 404.609455 190.3945 
L 404.875636 189.362823 
L 405.141818 187.846188 
L 405.408 182.814498 
L 405.674182 182.482079 
L 405.940364 182.851059 
L 406.738909 184.716036 
L 407.271273 185.325414 
L 407.803636 186.545734 
L 408.069818 186.927126 
L 408.602182 186.59698 
L 408.868364 185.86915 
L 409.134545 185.520227 
L 409.400727 185.442339 
L 409.666909 188.872247 
L 410.465455 187.023203 
L 411.264 186.366686 
L 411.796364 185.386238 
L 412.861091 181.459627 
L 413.393455 177.742691 
L 413.659636 175.185075 
L 413.925818 169.242267 
L 414.192 167.656364 
L 414.458182 167.035276 
L 414.724364 166.972003 
L 414.990545 168.017216 
L 415.522909 168.772312 
L 415.789091 169.141941 
L 416.055273 170.843522 
L 416.587636 172.636527 
L 416.853818 173.764334 
L 417.12 176.946365 
L 417.652364 180.373535 
L 417.918545 182.585547 
L 418.184727 189.628721 
L 418.450909 189.939257 
L 418.717091 189.967724 
L 418.983273 189.874211 
L 419.249455 190.258491 
L 420.048 190.668079 
L 420.314182 191.994974 
L 421.112727 193.818325 
L 421.378909 195.369176 
L 421.645091 195.657696 
L 422.177455 195.686857 
L 422.443636 197.875089 
L 422.709818 198.005778 
L 423.508364 196.981132 
L 424.306909 192.996559 
L 424.573091 192.547119 
L 424.839273 190.878008 
L 425.371636 186.535015 
L 425.904 182.627743 
L 426.170182 180.00789 
L 426.436364 180.457629 
L 426.436364 180.457629 
" clip-path="url(#p84eb078e2b)" style="fill: none; stroke: #ffa500; stroke-width: 3; stroke-linecap: square"/>
   </g>
   <g id="patch_3">
    <path d="M 7.2 331.2 
L 7.2 7.2 
" style="fill: none; stroke: #000000; stroke-width: 0.8; stroke-linejoin: miter; stroke-linecap: square"/>
   </g>
   <g id="patch_4">
    <path d="M 446.4 331.2 
L 446.4 7.2 
" style="fill: none; stroke: #000000; stroke-width: 0.8; stroke-linejoin: miter; stroke-linecap: square"/>
   </g>
   <g id="patch_5">
    <path d="M 7.2 331.2 
L 446.4 331.2 
" style="fill: none; stroke: #000000; stroke-width: 0.8; stroke-linejoin: miter; stroke-linecap: square"/>
   </g>
   <g id="patch_6">
    <path d="M 7.2 7.2 
L 446.4 7.2 
" style="fill: none; stroke: #000000; stroke-width: 0.8; stroke-linejoin: miter; stroke-linecap: square"/>
   </g>
  </g>
 </g>
 <defs>
  <clipPath id="p84eb078e2b">
   <rect x="7.2" y="7.2" width="439.2" height="324"/>
  </clipPath>
 </defs>
</svg>
