<?xml version="1.0" encoding="utf-8" standalone="no"?>
<!DOCTYPE svg PUBLIC "-//W3C//DTD SVG 1.1//EN"
  "http://www.w3.org/Graphics/SVG/1.1/DTD/svg11.dtd">
<svg xmlns:xlink="http://www.w3.org/1999/xlink" width="453.6pt" height="338.4pt" viewBox="0 0 453.6 338.4" xmlns="http://www.w3.org/2000/svg" version="1.1">
 <metadata>
  <rdf:RDF xmlns:dc="http://purl.org/dc/elements/1.1/" xmlns:cc="http://creativecommons.org/ns#" xmlns:rdf="http://www.w3.org/1999/02/22-rdf-syntax-ns#">
   <cc:Work>
    <dc:type rdf:resource="http://purl.org/dc/dcmitype/StillImage"/>
    <dc:date>2025-05-14T16:25:46.758420</dc:date>
    <dc:format>image/svg+xml</dc:format>
    <dc:creator>
     <cc:Agent>
      <dc:title>Matplotlib v3.10.1, https://matplotlib.org/</dc:title>
     </cc:Agent>
    </dc:creator>
   </cc:Work>
  </rdf:RDF>
 </metadata>
 <defs>
  <style type="text/css">*{stroke-linejoin: round; stroke-linecap: butt}</style>
 </defs>
 <g id="figure_1">
  <g id="patch_1">
   <path d="M 0 338.4 
L 453.6 338.4 
L 453.6 0 
L 0 0 
z
" style="fill: #ffffff"/>
  </g>
  <g id="axes_1">
   <g id="patch_2">
    <path d="M 7.2 331.2 
L 446.4 331.2 
L 446.4 7.2 
L 7.2 7.2 
z
" style="fill: #ffffff"/>
   </g>
   <g id="matplotlib.axis_1"/>
   <g id="matplotlib.axis_2"/>
   <g id="line2d_1">
    <path d="M 27.163636 149.46613 
L 31.422545 149.130507 
L 35.681455 149.006788 
L 39.940364 149.095025 
L 44.199273 149.395185 
L 48.458182 149.907284 
L 52.717091 150.631305 
L 57.242182 151.632803 
L 61.767273 152.873522 
L 66.292364 154.353517 
L 70.817455 156.07275 
L 75.342545 158.031258 
L 79.867636 160.229006 
L 84.392727 162.665975 
L 89.184 165.507107 
L 93.975273 168.616447 
L 98.766545 171.994011 
L 103.557818 175.639818 
L 108.349091 179.553832 
L 113.406545 183.976285 
L 118.464 188.697598 
L 123.521455 193.717771 
L 128.845091 199.325027 
L 134.168727 205.263437 
L 139.492364 211.532977 
L 145.082182 218.472377 
L 150.672 225.776859 
L 156.261818 233.44645 
L 162.117818 241.872822 
L 167.973818 250.699895 
L 173.829818 259.92761 
L 175.959273 263.382501 
L 176.491636 262.832968 
L 182.347636 255.4921 
L 188.203636 248.508823 
L 193.793455 242.176564 
L 199.383273 236.170131 
L 204.973091 230.489508 
L 210.562909 225.134729 
L 215.886545 220.337854 
L 221.210182 215.836495 
L 226.533818 211.630687 
L 231.591273 207.908914 
L 236.648727 204.453839 
L 241.706182 201.265478 
L 246.763636 198.343841 
L 251.821091 195.688929 
L 256.612364 193.419771 
L 261.403636 191.390011 
L 266.194909 189.599613 
L 270.986182 188.048621 
L 275.777455 186.737 
L 280.568727 185.664742 
L 285.36 184.831872 
L 289.885091 184.265077 
L 294.410182 183.911809 
L 298.935273 183.77207 
L 303.460364 183.845841 
L 307.985455 184.133124 
L 312.510545 184.633952 
L 317.035636 185.348299 
L 321.560727 186.276139 
L 326.352 187.491323 
L 331.143273 188.945879 
L 335.934545 190.639813 
L 340.725818 192.573128 
L 345.517091 194.74584 
L 350.308364 197.157906 
L 355.099636 199.809378 
L 360.157091 202.86784 
L 365.214545 206.193025 
L 370.272 209.784934 
L 375.329455 213.643531 
L 380.653091 217.993397 
L 385.976727 222.638762 
L 391.300364 227.57966 
L 396.624 232.81611 
L 402.213818 238.63246 
L 407.803636 244.774594 
L 413.393455 251.24259 
L 419.249455 258.368042 
L 425.105455 265.851094 
L 426.436364 267.601652 
L 426.436364 267.601652 
" clip-path="url(#peb6bf8e2c7)" style="fill: none; stroke-dasharray: 11.1,4.8; stroke-dashoffset: 0; stroke: #000000; stroke-width: 3"/>
   </g>
   <g id="line2d_2">
    <path d="M 27.163636 297.042164 
L 27.962182 274.389778 
L 28.760727 256.475664 
L 29.559273 242.294103 
L 30.357818 231.127705 
L 31.156364 222.315999 
L 31.954909 215.400994 
L 32.753455 209.951771 
L 33.552 205.690731 
L 34.350545 202.355512 
L 35.149091 199.767173 
L 35.947636 197.782708 
L 36.746182 196.291346 
L 37.544727 195.212302 
L 38.343273 194.491064 
L 39.141818 194.109136 
L 39.940364 194.045468 
L 40.738909 194.297927 
L 41.537455 194.886475 
L 42.336 195.842967 
L 43.134545 197.207924 
L 43.666909 198.377479 
L 43.933091 199.394514 
L 44.997818 205.876485 
L 45.796364 211.883181 
L 47.393455 243.998945 
L 48.192 254.500096 
L 48.990545 261.537907 
L 49.522909 264.579299 
L 50.055273 266.383141 
L 50.321455 266.858609 
L 50.587636 267.068393 
L 50.853818 267.021571 
L 51.12 266.726551 
L 51.652364 265.421812 
L 52.184727 263.207553 
L 52.717091 260.125829 
L 53.515636 253.942245 
L 54.314182 245.933958 
L 55.378909 232.417635 
L 56.443636 215.517251 
L 57.508364 194.920359 
L 58.573091 170.142114 
L 59.637818 140.52916 
L 60.436364 114.659107 
L 61.234909 103.645949 
L 62.299636 86.185986 
L 63.630545 81.135431 
L 64.429091 78.699006 
L 65.227636 76.904158 
L 65.76 76.125853 
L 66.292364 75.732627 
L 66.824727 75.761648 
L 67.357091 76.214021 
L 67.889455 77.110023 
L 68.421818 78.459697 
L 69.220364 81.333413 
L 70.018909 85.190264 
L 71.083636 91.720076 
L 72.414545 101.69543 
L 76.673455 136.00726 
L 77.205818 138.738033 
L 78.536727 141.969845 
L 79.069091 143.013127 
L 79.335273 143.179245 
L 79.601455 141.76061 
L 80.932364 128.306567 
L 81.730909 122.723338 
L 82.263273 120.140037 
L 82.795636 118.4977 
L 83.061818 118.030773 
L 83.328 117.815322 
L 83.594182 117.830947 
L 83.860364 118.071451 
L 84.392727 119.208852 
L 84.925091 121.181721 
L 85.457455 123.930472 
L 86.256 129.350446 
L 87.320727 138.55155 
L 88.917818 155.025079 
L 91.579636 182.954887 
L 92.644364 192.18143 
L 94.507636 205.984412 
L 94.773818 207.199456 
L 95.04 207.885977 
L 95.306182 208.137198 
L 95.572364 207.962935 
L 95.838545 207.30676 
L 96.104727 206.246993 
L 96.370909 206.693888 
L 97.169455 211.540605 
L 97.968 214.73756 
L 98.766545 216.731303 
L 99.298909 217.571915 
L 99.831273 218.112552 
L 100.363636 218.401572 
L 100.896 218.506725 
L 101.694545 218.392812 
L 102.493091 218.048278 
L 103.557818 217.350144 
L 104.888727 216.241105 
L 106.752 214.388304 
L 108.615273 212.187695 
L 110.212364 209.907354 
L 110.478545 209.092971 
L 113.406545 195.937306 
L 114.205091 193.261668 
L 115.003636 191.402651 
L 115.536 190.724602 
L 115.802182 190.589129 
L 116.068364 190.58725 
L 116.334545 190.1345 
L 119.528727 177.827418 
L 120.859636 173.3999 
L 121.924364 170.462647 
L 122.722909 168.742799 
L 123.521455 167.539949 
L 124.053818 167.083169 
L 124.586182 166.943913 
L 125.118545 167.162085 
L 125.650909 167.780856 
L 126.183273 168.847031 
L 126.715636 170.414333 
L 127.780364 173.973973 
L 128.312727 174.249299 
L 128.845091 174.092785 
L 129.377455 173.59955 
L 130.176 172.453424 
L 131.506909 169.971607 
L 134.168727 164.86985 
L 135.499636 162.737429 
L 136.830545 160.987858 
L 137.895273 159.885342 
L 138.96 159.069326 
L 139.758545 158.670623 
L 140.557091 158.49039 
L 141.089455 158.515057 
L 141.888 158.810968 
L 142.686545 159.492889 
L 143.485091 160.697969 
L 144.816 162.864642 
L 145.614545 164.773729 
L 146.413091 167.344266 
L 147.211636 170.7051 
L 148.010182 174.982994 
L 148.276364 176.651815 
L 148.542545 177.45217 
L 148.808727 177.371464 
L 149.341091 176.741036 
L 149.873455 176.56492 
L 150.139636 176.652376 
L 150.672 177.193654 
L 151.204364 178.213858 
L 151.736727 179.697846 
L 152.535273 182.761118 
L 153.333818 186.760175 
L 154.398545 193.36317 
L 155.729455 203.215076 
L 158.125091 223.28895 
L 160.520727 244.127505 
L 162.117818 266.330674 
L 165.045818 311.180804 
L 165.312 308.463699 
L 166.376727 274.71345 
L 167.175273 255.575602 
L 167.973818 241.047546 
L 168.772364 230.382397 
L 169.570909 222.624173 
L 170.635636 214.984594 
L 171.966545 205.755996 
L 172.765091 198.047746 
L 173.563636 186.996078 
L 174.362182 171.143647 
L 175.160727 148.996938 
L 175.959273 122.545651 
L 176.225455 123.785931 
L 177.024 128.682237 
L 177.822545 128.997038 
L 178.621091 129.622516 
L 179.419636 130.55191 
L 180.218182 131.80053 
L 181.282909 133.977052 
L 182.347636 136.74041 
L 183.412364 140.08625 
L 184.743273 145.019388 
L 186.606545 152.937217 
L 189.002182 163.105163 
L 190.066909 166.633711 
L 190.865455 168.439339 
L 191.397818 169.102054 
L 191.664 169.240722 
L 191.930182 169.220971 
L 192.196364 169.040747 
L 192.728727 168.164636 
L 193.261091 166.490926 
L 193.793455 164.529258 
L 194.592 161.525818 
L 195.390545 157.469475 
L 196.189091 152.116408 
L 197.253818 143.575385 
L 198.584727 162.735305 
L 199.649455 174.883406 
L 200.448 181.948772 
L 201.246545 187.172923 
L 201.778909 189.613675 
L 202.311273 191.218784 
L 202.843636 191.995035 
L 203.109818 192.076382 
L 203.376 191.956306 
L 203.642182 191.637668 
L 204.174545 190.418394 
L 204.706909 188.450124 
L 205.505455 184.179288 
L 206.304 178.454019 
L 207.368727 168.846539 
L 208.699636 154.430606 
L 210.030545 138.325847 
L 210.296727 132.95489 
L 211.361455 99.044028 
L 212.426182 57.918133 
L 212.958545 34.833981 
L 213.224727 31.572867 
L 214.023273 68.698108 
L 214.821818 97.552411 
L 215.620364 119.155569 
L 216.418909 134.502072 
L 217.217455 144.686082 
L 217.749818 149.08328 
L 218.282182 151.908261 
L 218.814545 153.430794 
L 219.080727 153.762959 
L 219.346909 153.874529 
L 219.613091 153.780638 
L 220.145455 153.05616 
L 220.677818 151.821357 
L 221.742545 148.452167 
L 223.605818 142.374605 
L 224.404364 140.413218 
L 225.202909 139.030064 
L 225.735273 138.415682 
L 226.533818 137.943348 
L 226.8 137.901722 
L 227.066182 137.98271 
L 227.864727 139.00617 
L 229.195636 141.272054 
L 230.792727 144.605078 
L 237.181091 158.679296 
L 238.778182 161.376853 
L 240.109091 163.235272 
L 241.44 164.740477 
L 242.770909 165.896014 
L 243.569455 166.530392 
L 244.368 167.397936 
L 245.166545 167.980646 
L 245.965091 168.323678 
L 247.029818 168.391393 
L 247.828364 168.212723 
L 249.159273 167.505679 
L 250.490182 166.413854 
L 251.821091 165.106649 
L 255.015273 161.659316 
L 257.144727 159.747735 
L 258.741818 158.714197 
L 259.806545 158.294532 
L 260.072727 158.223675 
L 260.871273 146.330351 
L 261.669818 130.669958 
L 262.734545 104.923485 
L 263.000727 97.779783 
L 263.266909 96.08116 
L 265.130182 150.162113 
L 266.194909 170.809849 
L 267.259636 186.18461 
L 268.324364 197.941074 
L 269.389091 207.016871 
L 270.453818 214.118078 
L 271.518545 219.692775 
L 272.583273 224.09976 
L 275.511273 234.988286 
L 276.043636 238.237049 
L 276.842182 245.188229 
L 277.640727 253.325287 
L 278.439273 263.712103 
L 278.705455 267.733105 
L 278.971636 268.652509 
L 280.036364 235.448217 
L 280.834909 216.447839 
L 281.633455 201.622187 
L 282.432 190.210062 
L 283.230545 181.609795 
L 284.029091 175.323875 
L 284.827636 170.935096 
L 285.626182 168.048414 
L 286.158545 166.798196 
L 286.690909 165.988571 
L 287.223273 165.543203 
L 287.755636 165.403718 
L 288.288 165.480984 
L 289.086545 165.862675 
L 290.683636 166.785503 
L 291.216 166.889664 
L 291.748364 166.773652 
L 292.280727 166.358446 
L 292.813091 165.557547 
L 293.345455 164.271584 
L 293.877818 162.545381 
L 294.676364 158.948135 
L 295.474909 153.981218 
L 296.539636 146.407984 
L 296.805818 147.473229 
L 297.604364 153.42637 
L 298.402909 158.039194 
L 299.201455 161.512633 
L 300 164.026762 
L 300.798545 165.753826 
L 301.597091 166.892052 
L 302.661818 167.914775 
L 303.460364 168.705001 
L 303.992727 169.450958 
L 304.525091 170.532153 
L 305.057455 172.135252 
L 305.589818 174.425213 
L 306.122182 177.666181 
L 306.654545 182.084122 
L 307.186909 188.063228 
L 307.719273 195.917432 
L 308.251636 206.085308 
L 309.050182 226.790216 
L 309.848727 255.908838 
L 310.913455 292.889049 
L 311.179636 297.967257 
L 312.244364 274.690859 
L 313.309091 256.861731 
L 314.373818 242.867535 
L 315.438545 231.596115 
L 316.769455 220.072719 
L 318.366545 208.591704 
L 322.359273 181.742011 
L 323.424 172.166976 
L 324.222545 163.034165 
L 325.021091 151.261839 
L 325.819636 135.597812 
L 327.949091 86.359793 
L 328.215273 83.082071 
L 328.481455 84.025159 
L 329.28 90.801215 
L 330.078545 95.735547 
L 330.877091 99.099119 
L 331.409455 100.581308 
L 331.941818 101.556805 
L 332.474182 102.107862 
L 333.006545 102.305264 
L 333.538909 102.204158 
L 334.071273 101.868447 
L 334.869818 101.07313 
L 336.733091 98.62977 
L 338.064 97.074512 
L 339.128727 96.205529 
L 339.927273 95.826454 
L 340.725818 95.676646 
L 341.524364 95.727033 
L 342.589091 96.040974 
L 343.121455 96.253721 
L 343.387636 96.649492 
L 343.92 98.687583 
L 344.452364 101.905385 
L 344.984727 106.305936 
L 345.783273 115.174419 
L 346.581818 126.724589 
L 347.646545 146.136442 
L 347.912727 151.702712 
L 348.178909 149.912217 
L 348.977455 142.571745 
L 349.509818 139.392601 
L 350.042182 137.385322 
L 350.574545 136.414179 
L 350.840727 136.282244 
L 351.106909 136.370429 
L 351.373091 136.66864 
L 351.905455 137.86043 
L 352.437818 139.797941 
L 353.236364 143.999966 
L 354.034909 149.643606 
L 355.099636 159.194941 
L 356.430545 173.850482 
L 359.358545 208.321091 
L 359.890909 212.530788 
L 360.423273 214.598417 
L 360.689455 215.17917 
L 360.955636 215.386817 
L 361.221818 215.196191 
L 361.488 214.605457 
L 361.754182 213.582506 
L 362.552727 208.76178 
L 363.085091 210.008171 
L 363.351273 210.205257 
L 363.617455 210.071733 
L 363.883636 209.681361 
L 364.416 208.133169 
L 364.948364 205.719076 
L 365.746909 200.863 
L 368.408727 182.817237 
L 368.941091 180.739144 
L 369.207273 180.106828 
L 369.473455 179.825243 
L 369.739636 179.894652 
L 370.005818 180.380838 
L 370.272 181.314112 
L 370.804364 184.687358 
L 371.336727 190.347159 
L 371.869091 198.632976 
L 372.401455 209.901788 
L 373.2 233.252743 
L 373.466182 242.952393 
L 373.732364 245.380461 
L 374.264727 243.047267 
L 375.063273 238.295529 
L 375.861818 232.182495 
L 377.458909 217.431395 
L 379.588364 195.216349 
L 382.782545 161.963689 
L 384.379636 147.62 
L 384.645818 145.453099 
L 384.912 145.278905 
L 385.444364 155.782194 
L 386.509091 176.875209 
L 387.573818 194.178922 
L 388.638545 207.92834 
L 389.703273 218.454469 
L 390.501818 224.488026 
L 391.300364 229.075139 
L 392.098909 232.450228 
L 392.897455 234.798134 
L 393.163636 235.406073 
L 393.696 237.339283 
L 393.962182 237.644297 
L 394.228364 237.549449 
L 394.494545 236.964667 
L 394.760727 235.956208 
L 395.293091 232.480671 
L 395.825455 227.047372 
L 396.357818 219.583865 
L 397.156364 204.436186 
L 397.954909 184.326576 
L 398.753455 159.111057 
L 399.019636 149.487285 
L 399.285818 147.24591 
L 401.415273 156.774914 
L 402.48 162.777896 
L 403.544727 170.374743 
L 404.609455 180.090229 
L 405.674182 192.39279 
L 406.738909 207.705674 
L 407.803636 226.353486 
L 408.868364 248.571341 
L 409.933091 275.484061 
L 410.199273 284.496141 
L 410.465455 286.718421 
L 411.530182 234.011639 
L 412.594909 192.187812 
L 413.393455 167.701958 
L 414.192 148.698886 
L 414.990545 134.824739 
L 415.789091 125.648529 
L 416.321455 121.905707 
L 416.853818 119.884979 
L 417.12 119.477954 
L 417.386182 119.432396 
L 417.652364 119.73166 
L 417.918545 120.366407 
L 418.450909 122.589383 
L 418.983273 125.875795 
L 419.781818 132.448023 
L 420.846545 143.373909 
L 424.306909 181.166218 
L 425.105455 187.433695 
L 425.904 191.911178 
L 426.436364 193.803279 
L 426.436364 193.803279 
" clip-path="url(#peb6bf8e2c7)" style="fill: none; stroke: #0000ff; stroke-width: 3; stroke-linecap: square"/>
   </g>
   <g id="patch_3">
    <path d="M 7.2 331.2 
L 7.2 7.2 
" style="fill: none; stroke: #000000; stroke-width: 0.8; stroke-linejoin: miter; stroke-linecap: square"/>
   </g>
   <g id="patch_4">
    <path d="M 446.4 331.2 
L 446.4 7.2 
" style="fill: none; stroke: #000000; stroke-width: 0.8; stroke-linejoin: miter; stroke-linecap: square"/>
   </g>
   <g id="patch_5">
    <path d="M 7.2 331.2 
L 446.4 331.2 
" style="fill: none; stroke: #000000; stroke-width: 0.8; stroke-linejoin: miter; stroke-linecap: square"/>
   </g>
   <g id="patch_6">
    <path d="M 7.2 7.2 
L 446.4 7.2 
" style="fill: none; stroke: #000000; stroke-width: 0.8; stroke-linejoin: miter; stroke-linecap: square"/>
   </g>
  </g>
 </g>
 <defs>
  <clipPath id="peb6bf8e2c7">
   <rect x="7.2" y="7.2" width="439.2" height="324"/>
  </clipPath>
 </defs>
</svg>
