<?xml version="1.0" encoding="utf-8" standalone="no"?>
<!DOCTYPE svg PUBLIC "-//W3C//DTD SVG 1.1//EN"
  "http://www.w3.org/Graphics/SVG/1.1/DTD/svg11.dtd">
<svg xmlns:xlink="http://www.w3.org/1999/xlink" width="453.6pt" height="338.4pt" viewBox="0 0 453.6 338.4" xmlns="http://www.w3.org/2000/svg" version="1.1">
 <metadata>
  <rdf:RDF xmlns:dc="http://purl.org/dc/elements/1.1/" xmlns:cc="http://creativecommons.org/ns#" xmlns:rdf="http://www.w3.org/1999/02/22-rdf-syntax-ns#">
   <cc:Work>
    <dc:type rdf:resource="http://purl.org/dc/dcmitype/StillImage"/>
    <dc:date>2025-05-14T16:27:30.577501</dc:date>
    <dc:format>image/svg+xml</dc:format>
    <dc:creator>
     <cc:Agent>
      <dc:title>Matplotlib v3.10.1, https://matplotlib.org/</dc:title>
     </cc:Agent>
    </dc:creator>
   </cc:Work>
  </rdf:RDF>
 </metadata>
 <defs>
  <style type="text/css">*{stroke-linejoin: round; stroke-linecap: butt}</style>
 </defs>
 <g id="figure_1">
  <g id="patch_1">
   <path d="M 0 338.4 
L 453.6 338.4 
L 453.6 0 
L 0 0 
z
" style="fill: #ffffff"/>
  </g>
  <g id="axes_1">
   <g id="patch_2">
    <path d="M 7.2 331.2 
L 446.4 331.2 
L 446.4 7.2 
L 7.2 7.2 
z
" style="fill: #ffffff"/>
   </g>
   <g id="matplotlib.axis_1"/>
   <g id="matplotlib.axis_2"/>
   <g id="line2d_1">
    <path d="M 27.163636 37.028919 
L 41.005091 37.372144 
L 54.846545 37.492967 
L 68.688 37.391474 
L 82.529455 37.067578 
L 96.370909 36.521367 
L 109.946182 35.769695 
L 123.787636 34.783032 
L 137.629091 33.574019 
L 151.470545 32.142638 
L 165.312 30.488907 
L 179.153455 28.612826 
L 188.203636 27.30685 
L 197.253818 40.850411 
L 206.304 53.994673 
L 215.088 66.370479 
L 223.872 78.37023 
L 232.656 89.99382 
L 241.173818 100.906029 
L 249.691636 111.46448 
L 258.209455 121.669311 
L 266.727273 131.520419 
L 274.978909 140.726405 
L 283.230545 149.600471 
L 291.482182 158.142635 
L 299.467636 166.093241 
L 307.453091 173.732952 
L 315.438545 181.061837 
L 323.157818 187.850946 
L 330.877091 194.34956 
L 338.596364 200.557706 
L 346.315636 206.475391 
L 353.768727 211.913404 
L 361.221818 217.080629 
L 368.674909 221.977048 
L 376.128 226.602706 
L 383.314909 230.806715 
L 390.501818 234.758905 
L 397.688727 238.45932 
L 404.875636 241.907961 
L 412.062545 245.104797 
L 418.983273 247.945258 
L 425.904 250.552242 
L 426.436364 250.743114 
L 426.436364 250.743114 
" clip-path="url(#pc331913a63)" style="fill: none; stroke-dasharray: 11.1,4.8; stroke-dashoffset: 0; stroke: #000000; stroke-width: 3"/>
   </g>
   <g id="line2d_2">
    <path d="M 27.163636 52.496789 
L 27.962182 89.864939 
L 28.760727 117.79127 
L 29.559273 137.877231 
L 30.357818 151.159363 
L 30.890182 156.819524 
L 31.422545 160.244122 
L 31.688727 161.193091 
L 31.954909 161.670903 
L 32.221091 161.699765 
L 32.487273 161.280363 
L 32.753455 160.474425 
L 33.285818 157.80796 
L 33.818182 153.910853 
L 34.616727 146.198643 
L 36.213818 127.324522 
L 37.278545 115.689292 
L 37.810909 111.449188 
L 38.343273 108.976878 
L 38.609455 108.61873 
L 38.875636 108.959638 
L 39.141818 110.147285 
L 39.408 112.212272 
L 39.940364 119.68963 
L 40.472727 132.416632 
L 41.803636 167.536929 
L 43.134545 196.49621 
L 43.666909 206.27848 
L 43.933091 209.197079 
L 45.264 214.700735 
L 46.328727 218.267714 
L 47.659636 221.910598 
L 48.990545 224.8577 
L 50.321455 227.271346 
L 51.652364 229.300807 
L 53.515636 231.68035 
L 55.645091 234.020303 
L 60.436364 239.037809 
L 66.026182 254.70636 
L 68.421818 218.706911 
L 69.486545 206.371432 
L 70.285091 198.994723 
L 71.083636 193.356191 
L 71.882182 189.532443 
L 72.414545 188.002018 
L 72.946909 187.318833 
L 73.213091 187.269781 
L 73.479273 187.448995 
L 74.011636 188.379197 
L 74.544 190.115109 
L 75.076364 192.584549 
L 75.874909 197.662193 
L 76.673455 204.189186 
L 78.004364 217.283711 
L 79.069091 230.234722 
L 79.335273 233.846251 
L 79.601455 235.38821 
L 80.133818 234.914269 
L 80.666182 234.764172 
L 81.198545 234.91376 
L 81.730909 235.338727 
L 82.263273 236.017751 
L 83.061818 237.458077 
L 84.126545 240.000753 
L 85.723636 244.629237 
L 87.586909 249.906645 
L 88.385455 251.581523 
L 88.917818 252.331119 
L 89.450182 252.685984 
L 89.716364 252.678509 
L 89.982545 252.544634 
L 90.514909 251.807051 
L 91.047273 250.35333 
L 91.579636 248.050499 
L 92.112 244.751846 
L 92.378182 242.662978 
L 93.442909 253.188471 
L 93.709091 253.734932 
L 93.975273 253.65319 
L 94.241455 253.405598 
L 94.507636 252.9996 
L 95.04 251.608568 
L 95.572364 249.676412 
L 96.370909 245.723002 
L 97.435636 238.973912 
L 98.766545 228.751498 
L 100.896 210.296559 
L 104.090182 182.823759 
L 105.687273 170.838185 
L 107.284364 160.578674 
L 108.615273 153.480162 
L 109.946182 147.70506 
L 110.212364 146.684127 
L 110.478545 143.214603 
L 111.010909 133.149712 
L 111.543273 126.472604 
L 111.809455 124.498663 
L 112.075636 123.471077 
L 112.341818 123.482366 
L 112.608 124.513341 
L 112.874182 126.548657 
L 113.140364 129.667758 
L 113.938909 148.784016 
L 115.003636 172.415134 
L 116.068364 191.988329 
L 117.133091 207.827584 
L 118.197818 220.185211 
L 118.996364 227.327096 
L 119.794909 232.699185 
L 120.593455 236.375741 
L 121.125818 237.900434 
L 121.658182 238.670417 
L 121.924364 238.769382 
L 122.190545 238.683496 
L 122.456727 238.410953 
L 122.989091 237.270638 
L 123.521455 235.322848 
L 124.053818 232.565529 
L 124.852364 226.740119 
L 125.650909 218.798072 
L 125.917091 215.634615 
L 127.780364 169.195997 
L 128.312727 161.898555 
L 128.845091 156.988626 
L 129.377455 154.135239 
L 129.643636 153.428301 
L 129.909818 153.111673 
L 130.176 153.133162 
L 130.442182 153.478459 
L 130.974545 154.905784 
L 131.773091 158.141371 
L 132.837818 162.446083 
L 133.370182 163.749584 
L 133.636364 164.047812 
L 133.902545 164.070934 
L 134.168727 163.76412 
L 134.434909 163.087923 
L 134.967273 160.612487 
L 135.499636 156.492538 
L 136.032 150.533165 
L 136.830545 138.24637 
L 137.629091 122.095279 
L 138.693818 95.529718 
L 140.557091 47.040474 
L 140.823273 46.924128 
L 141.621818 56.232168 
L 142.420364 63.32357 
L 143.218909 68.210289 
L 143.485091 69.335577 
L 144.549818 71.937733 
L 145.082182 74.110937 
L 145.880727 78.573672 
L 146.679273 84.33429 
L 147.744 93.78645 
L 149.074909 107.847553 
L 150.938182 130.254542 
L 155.463273 186.122785 
L 157.060364 203.139532 
L 158.657455 217.789868 
L 159.988364 228.041724 
L 160.520727 232.4653 
L 161.319273 238.739562 
L 161.851636 236.02056 
L 162.117818 235.402 
L 162.384 235.177956 
L 162.650182 235.287893 
L 162.916364 235.689642 
L 163.448727 237.080679 
L 165.045818 242.232577 
L 165.578182 243.031449 
L 165.844364 243.090978 
L 166.110545 242.857822 
L 166.376727 242.344726 
L 166.909091 240.26817 
L 167.441455 236.679895 
L 167.973818 231.440865 
L 168.772364 220.34945 
L 169.570909 205.224103 
L 170.635636 178.997834 
L 171.700364 146.539797 
L 172.765091 111.329981 
L 173.297455 103.583238 
L 173.829818 98.418024 
L 174.362182 94.723674 
L 174.894545 92.280735 
L 175.426909 90.815998 
L 175.959273 90.128389 
L 176.225455 89.995171 
L 176.491636 89.993504 
L 177.024 90.275545 
L 177.556364 90.966683 
L 178.088727 92.149906 
L 178.621091 93.844666 
L 179.153455 96.08569 
L 179.952 100.665965 
L 180.750545 106.723986 
L 181.549091 114.260246 
L 182.613818 126.625519 
L 183.944727 145.370479 
L 185.541818 171.567903 
L 190.066909 248.77524 
L 191.397818 266.627134 
L 192.196364 275.385223 
L 192.462545 277.275709 
L 193.527273 245.977046 
L 194.592 227.308477 
L 195.656727 213.012655 
L 196.721455 201.809916 
L 197.786182 192.875526 
L 198.850909 185.650925 
L 199.915636 179.779263 
L 200.980364 175.069362 
L 201.778909 172.232092 
L 202.577455 170.067368 
L 203.376 168.559565 
L 203.908364 167.943796 
L 204.440727 167.697306 
L 204.706909 167.690125 
L 205.239273 168.003347 
L 205.771636 168.668905 
L 206.304 169.709834 
L 207.102545 171.916237 
L 208.433455 176.668651 
L 209.232 179.332974 
L 209.764364 180.496516 
L 210.030545 180.737845 
L 210.296727 180.672711 
L 210.562909 180.077035 
L 210.829091 178.913528 
L 211.361455 174.68042 
L 211.893818 167.615318 
L 212.692364 153.462378 
L 216.418909 119.157956 
L 217.217455 114.103592 
L 218.016 110.478238 
L 218.548364 108.943275 
L 219.080727 108.125732 
L 219.346909 107.992322 
L 219.613091 108.044727 
L 219.879273 108.283967 
L 220.411636 109.338748 
L 220.944 111.131244 
L 221.476364 113.644109 
L 222.274909 118.723754 
L 223.073455 125.313327 
L 224.138182 136.15331 
L 225.469091 152.619185 
L 226.8 171.655316 
L 227.598545 175.246373 
L 228.397091 180.019161 
L 229.195636 186.212059 
L 229.994182 194.032942 
L 230.526545 200.263831 
L 231.591273 190.030251 
L 233.188364 172.126965 
L 237.181091 125.244156 
L 237.979636 118.723596 
L 238.512 115.715785 
L 239.044364 114.106963 
L 239.310545 113.930733 
L 239.576727 114.246114 
L 239.842909 115.045486 
L 240.375273 118.496804 
L 240.907636 124.702158 
L 241.44 134.209339 
L 241.972364 147.601741 
L 242.504727 165.468571 
L 243.835636 215.831579 
L 244.634182 230.263251 
L 245.432727 248.499281 
L 246.231273 270.903444 
L 246.497455 279.392421 
L 246.763636 284.063436 
L 247.029818 282.241246 
L 248.360727 243.413298 
L 249.425455 217.79244 
L 250.490182 198.036036 
L 251.288727 187.227312 
L 252.087273 179.724093 
L 252.619636 176.42396 
L 253.152 174.356507 
L 253.684364 173.391175 
L 253.950545 173.277384 
L 254.216727 173.384644 
L 254.482909 173.693801 
L 255.015273 174.840867 
L 255.547636 176.565016 
L 256.346182 179.909075 
L 261.137455 202.962196 
L 262.468364 209.950683 
L 263.266909 212.863357 
L 263.799273 213.851582 
L 264.065455 213.976881 
L 264.331636 213.818322 
L 264.597818 213.325175 
L 264.864 211.553852 
L 266.461091 182.113449 
L 267.792 161.65375 
L 269.122909 144.639786 
L 270.453818 130.518974 
L 271.784727 118.614712 
L 273.381818 106.373932 
L 274.978909 95.706685 
L 277.906909 77.181389 
L 279.237818 66.376343 
L 280.568727 54.718361 
L 280.834909 54.42252 
L 281.633455 56.471706 
L 282.432 59.342754 
L 283.230545 63.049745 
L 284.295273 69.30459 
L 285.36 77.062129 
L 286.424727 86.313971 
L 287.755636 99.916171 
L 289.086545 115.681304 
L 290.683636 137.233864 
L 292.546909 165.587287 
L 293.877818 185.654796 
L 295.208727 205.521199 
L 296.539636 229.038613 
L 297.870545 256.678084 
L 298.669091 275.481313 
L 299.201455 258.270473 
L 300.532364 215.321034 
L 301.597091 187.550769 
L 302.661818 165.989993 
L 303.460364 154.042139 
L 304.258909 145.7179 
L 304.791273 142.105222 
L 305.323636 139.967412 
L 305.589818 139.463353 
L 305.856 139.27975 
L 306.122182 139.416162 
L 306.388364 139.887443 
L 306.920727 141.674075 
L 307.453091 144.49256 
L 308.251636 150.258936 
L 310.114909 165.906758 
L 310.913455 167.720392 
L 313.309091 174.080171 
L 313.575273 174.133191 
L 314.64 172.703399 
L 315.172364 172.380416 
L 315.704727 172.349666 
L 316.237091 172.575001 
L 316.769455 173.018894 
L 317.568 173.982892 
L 319.697455 176.831591 
L 320.496 177.422553 
L 321.028364 177.551205 
L 321.560727 177.437414 
L 322.093091 177.058716 
L 322.625455 176.459459 
L 323.424 175.135426 
L 324.754909 172.275368 
L 325.819636 169.968596 
L 326.618182 168.64789 
L 327.150545 163.139029 
L 327.949091 151.72234 
L 328.747636 136.067127 
L 329.546182 115.642645 
L 330.344727 89.907197 
L 331.409455 49.432657 
L 334.071273 106.109025 
L 336.999273 167.321777 
L 338.596364 196.029064 
L 339.661091 211.794636 
L 340.459636 221.21702 
L 341.258182 228.130357 
L 341.790545 231.090521 
L 342.322909 232.553196 
L 342.589091 232.674773 
L 342.855273 232.346953 
L 343.121455 228.633739 
L 343.387636 222.319519 
L 345.517091 204.415408 
L 347.646545 188.505672 
L 349.509818 176.028286 
L 351.639273 163.22595 
L 353.768727 151.805205 
L 355.898182 141.599127 
L 358.293818 131.376212 
L 359.890909 125.181111 
L 360.955636 109.203354 
L 362.286545 93.537853 
L 364.149818 71.979622 
L 365.214545 56.844356 
L 366.013091 43.100477 
L 366.279273 48.530264 
L 367.077818 87.715436 
L 367.876364 117.934442 
L 368.674909 140.709129 
L 369.473455 157.220176 
L 370.272 168.742009 
L 371.070545 176.390323 
L 371.869091 181.334372 
L 372.933818 185.89853 
L 373.732364 189.661762 
L 374.264727 193.264108 
L 374.797091 198.430859 
L 375.329455 205.794155 
L 375.861818 216.213744 
L 376.660364 235.755838 
L 377.192727 239.368042 
L 377.725091 239.328303 
L 378.789818 229.962337 
L 381.185455 206.841677 
L 385.976727 159.772823 
L 387.573818 146.479561 
L 388.638545 139.151413 
L 389.437091 134.718927 
L 390.235636 131.452459 
L 390.768 129.983034 
L 391.300364 129.178763 
L 391.566545 129.058871 
L 391.832727 129.128008 
L 392.098909 129.395934 
L 392.631273 130.568676 
L 393.696 134.464449 
L 394.228364 136.981493 
L 394.760727 140.485603 
L 395.293091 145.096829 
L 396.091636 154.691405 
L 396.890182 168.325873 
L 397.688727 186.925686 
L 398.487273 211.512059 
L 399.019636 231.739137 
L 400.084364 185.866745 
L 400.882909 159.965925 
L 401.681455 142.335367 
L 402.213818 135.184994 
L 402.746182 131.681042 
L 403.012364 131.282058 
L 403.278545 131.703426 
L 403.544727 133.040863 
L 404.077091 138.039961 
L 404.609455 146.082754 
L 405.408 163.105549 
L 406.206545 185.060165 
L 407.537455 229.060919 
L 409.400727 294.596728 
L 409.666909 293.156775 
L 410.199273 286.367991 
L 412.328727 264.08376 
L 414.458182 243.874616 
L 416.587636 225.579667 
L 418.717091 209.070657 
L 420.846545 194.269188 
L 422.976 181.120616 
L 424.839273 170.981155 
L 426.436364 163.321035 
L 426.436364 163.321035 
" clip-path="url(#pc331913a63)" style="fill: none; stroke: #ffa500; stroke-width: 3; stroke-linecap: square"/>
   </g>
   <g id="patch_3">
    <path d="M 7.2 331.2 
L 7.2 7.2 
" style="fill: none; stroke: #000000; stroke-width: 0.8; stroke-linejoin: miter; stroke-linecap: square"/>
   </g>
   <g id="patch_4">
    <path d="M 446.4 331.2 
L 446.4 7.2 
" style="fill: none; stroke: #000000; stroke-width: 0.8; stroke-linejoin: miter; stroke-linecap: square"/>
   </g>
   <g id="patch_5">
    <path d="M 7.2 331.2 
L 446.4 331.2 
" style="fill: none; stroke: #000000; stroke-width: 0.8; stroke-linejoin: miter; stroke-linecap: square"/>
   </g>
   <g id="patch_6">
    <path d="M 7.2 7.2 
L 446.4 7.2 
" style="fill: none; stroke: #000000; stroke-width: 0.8; stroke-linejoin: miter; stroke-linecap: square"/>
   </g>
  </g>
 </g>
 <defs>
  <clipPath id="pc331913a63">
   <rect x="7.2" y="7.2" width="439.2" height="324"/>
  </clipPath>
 </defs>
</svg>
