<?xml version="1.0" encoding="utf-8" standalone="no"?>
<!DOCTYPE svg PUBLIC "-//W3C//DTD SVG 1.1//EN"
  "http://www.w3.org/Graphics/SVG/1.1/DTD/svg11.dtd">
<svg xmlns:xlink="http://www.w3.org/1999/xlink" width="453.6pt" height="338.4pt" viewBox="0 0 453.6 338.4" xmlns="http://www.w3.org/2000/svg" version="1.1">
 <metadata>
  <rdf:RDF xmlns:dc="http://purl.org/dc/elements/1.1/" xmlns:cc="http://creativecommons.org/ns#" xmlns:rdf="http://www.w3.org/1999/02/22-rdf-syntax-ns#">
   <cc:Work>
    <dc:type rdf:resource="http://purl.org/dc/dcmitype/StillImage"/>
    <dc:date>2025-05-14T16:27:43.117137</dc:date>
    <dc:format>image/svg+xml</dc:format>
    <dc:creator>
     <cc:Agent>
      <dc:title>Matplotlib v3.10.1, https://matplotlib.org/</dc:title>
     </cc:Agent>
    </dc:creator>
   </cc:Work>
  </rdf:RDF>
 </metadata>
 <defs>
  <style type="text/css">*{stroke-linejoin: round; stroke-linecap: butt}</style>
 </defs>
 <g id="figure_1">
  <g id="patch_1">
   <path d="M 0 338.4 
L 453.6 338.4 
L 453.6 0 
L 0 0 
z
" style="fill: #ffffff"/>
  </g>
  <g id="axes_1">
   <g id="patch_2">
    <path d="M 7.2 331.2 
L 446.4 331.2 
L 446.4 7.2 
L 7.2 7.2 
z
" style="fill: #ffffff"/>
   </g>
   <g id="matplotlib.axis_1"/>
   <g id="matplotlib.axis_2"/>
   <g id="line2d_1">
    <path d="M 27.163636 283.988032 
L 30.357818 282.513263 
L 33.818182 280.653177 
L 37.278545 278.531361 
L 41.005091 275.966779 
L 44.731636 273.126288 
L 48.724364 269.792991 
L 52.983273 265.926336 
L 57.242182 261.759454 
L 61.767273 257.027089 
L 66.558545 251.701748 
L 71.882182 245.441575 
L 77.472 238.523822 
L 83.860364 230.246748 
L 91.047273 220.548169 
L 99.565091 208.659489 
L 112.075636 190.765508 
L 128.845091 166.829077 
L 137.362909 155.068092 
L 144.549818 145.522025 
L 150.672 137.744629 
L 156.261818 130.985339 
L 161.585455 124.89698 
L 166.376727 119.743721 
L 170.901818 115.189026 
L 175.160727 111.202856 
L 179.153455 107.74994 
L 183.146182 104.589986 
L 186.872727 101.920554 
L 190.333091 99.696577 
L 193.793455 97.72973 
L 196.987636 96.152298 
L 200.181818 94.812754 
L 203.376 93.720087 
L 206.304 92.943081 
L 209.232 92.388075 
L 212.16 92.062002 
L 215.088 91.971833 
L 217.749818 92.100397 
L 220.411636 92.434897 
L 223.073455 92.980529 
L 225.735273 93.742489 
L 228.397091 94.726079 
L 229.461818 95.891289 
L 235.051636 102.074382 
L 240.375273 107.645691 
L 245.698909 112.907816 
L 251.022545 117.861285 
L 256.346182 122.506676 
L 261.403636 126.634894 
L 266.461091 130.485881 
L 271.518545 134.060181 
L 276.576 137.358198 
L 281.367273 140.228228 
L 286.158545 142.85103 
L 290.949818 145.227009 
L 295.741091 147.356568 
L 300.532364 149.240058 
L 305.323636 150.877883 
L 310.114909 152.270412 
L 314.64 153.360674 
L 319.165091 154.232782 
L 323.690182 154.887069 
L 328.215273 155.323835 
L 332.740364 155.543393 
L 337.265455 155.546062 
L 341.790545 155.332191 
L 346.315636 154.902045 
L 350.840727 154.255992 
L 355.365818 153.394312 
L 359.890909 152.31734 
L 364.682182 150.942701 
L 369.473455 149.327435 
L 374.264727 147.47193 
L 379.056 145.376483 
L 383.847273 143.041586 
L 388.638545 140.467537 
L 393.696 137.491485 
L 398.753455 134.249841 
L 403.810909 130.74308 
L 408.868364 126.971623 
L 414.192 122.716192 
L 419.515636 118.16852 
L 424.839273 113.329061 
L 426.436364 111.820415 
L 426.436364 111.820415 
" clip-path="url(#p72d84a58ed)" style="fill: none; stroke-dasharray: 11.1,4.8; stroke-dashoffset: 0; stroke: #000000; stroke-width: 3"/>
   </g>
   <g id="line2d_2">
    <path d="M 27.163636 168.441534 
L 30.091636 166.352407 
L 31.156364 165.896541 
L 32.221091 165.66457 
L 33.552 165.636409 
L 35.415273 165.891467 
L 37.278545 166.126598 
L 38.609455 166.089765 
L 41.005091 165.92744 
L 42.069818 166.147332 
L 43.134545 166.650916 
L 46.861091 168.836374 
L 47.925818 169.052685 
L 49.522909 169.102405 
L 52.184727 169.176755 
L 55.378909 169.328925 
L 58.306909 169.37846 
L 59.637818 169.660422 
L 62.832 170.526131 
L 63.896727 170.495627 
L 64.961455 170.239376 
L 66.558545 169.567023 
L 69.220364 168.140777 
L 71.083636 166.935346 
L 73.213091 165.270062 
L 76.673455 162.515096 
L 79.601455 160.567912 
L 82.529455 158.830508 
L 84.126545 158.135578 
L 85.723636 157.704905 
L 87.853091 157.411083 
L 89.982545 157.062643 
L 91.579636 156.57665 
L 94.241455 155.688057 
L 95.306182 155.582702 
L 96.370909 155.730139 
L 97.435636 156.116307 
L 99.298909 157.118402 
L 101.694545 158.388809 
L 103.824 159.276911 
L 105.687273 159.822157 
L 107.018182 159.977968 
L 108.349091 159.873754 
L 109.68 159.523542 
L 111.543273 158.77884 
L 113.938909 157.609012 
L 115.269818 156.712694 
L 116.334545 155.723696 
L 117.399273 154.415034 
L 118.464 152.75665 
L 119.794909 150.217486 
L 121.658182 146.052084 
L 123.787636 141.379182 
L 124.852364 139.612564 
L 125.650909 138.734803 
L 126.183273 138.4065 
L 126.715636 138.299232 
L 127.248 138.415033 
L 127.780364 138.744617 
L 128.578909 139.590513 
L 129.643636 141.187099 
L 132.039273 145.068353 
L 133.104 146.352401 
L 134.168727 147.285974 
L 135.499636 148.097091 
L 137.096727 148.791899 
L 138.96 149.367657 
L 140.557091 149.623364 
L 142.420364 149.666114 
L 145.082182 149.711303 
L 146.945455 150.001912 
L 152.269091 151.053691 
L 154.132364 151.129745 
L 155.995636 150.968438 
L 157.858909 150.585079 
L 160.520727 149.775946 
L 165.312 148.248813 
L 167.175273 147.899162 
L 169.304727 147.746036 
L 171.700364 147.811679 
L 174.894545 148.123531 
L 178.354909 148.683928 
L 181.282909 149.373608 
L 184.210909 150.283515 
L 189.002182 152.050677 
L 193.793455 153.736378 
L 203.642182 157.037626 
L 205.239273 157.854203 
L 206.570182 158.753471 
L 207.901091 159.88643 
L 209.232 161.267495 
L 210.562909 162.956321 
L 211.627636 164.627099 
L 212.692364 166.675407 
L 214.023273 169.77201 
L 216.685091 176.267464 
L 217.749818 178.137532 
L 218.548364 179.079681 
L 219.346909 179.629192 
L 220.145455 179.834004 
L 220.944 179.76255 
L 222.008727 179.358176 
L 223.339636 178.550017 
L 229.195636 174.618798 
L 232.922182 172.634122 
L 236.116364 171.147851 
L 238.512 170.255431 
L 240.907636 169.58967 
L 243.303273 169.143679 
L 245.698909 168.929633 
L 248.626909 168.907653 
L 252.885818 169.11587 
L 263.799273 169.955947 
L 266.727273 170.168474 
L 269.122909 170.118439 
L 271.518545 169.849793 
L 273.914182 169.359499 
L 280.036364 167.92006 
L 281.899636 167.767812 
L 283.230545 167.852591 
L 284.561455 168.166848 
L 285.892364 168.719467 
L 288.288 170.046081 
L 290.417455 171.137309 
L 292.546909 171.979115 
L 298.402909 174.116925 
L 302.129455 175.732928 
L 305.856 177.177915 
L 307.186909 177.639329 
L 307.985455 177.704375 
L 308.784 177.517813 
L 309.582545 177.060902 
L 310.647273 176.133843 
L 312.244364 174.691226 
L 313.042909 174.242277 
L 313.841455 174.075343 
L 314.64 174.179039 
L 315.704727 174.617358 
L 318.366545 175.924037 
L 319.697455 176.28667 
L 323.424 177.126993 
L 326.085818 177.948749 
L 327.150545 178.056255 
L 328.215273 177.960021 
L 329.28 177.663609 
L 330.344727 177.174623 
L 331.409455 176.477489 
L 332.474182 175.538123 
L 333.538909 174.328329 
L 334.869818 172.431215 
L 336.200727 170.132783 
L 337.797818 166.885486 
L 339.927273 161.917762 
L 344.984727 149.896031 
L 347.114182 145.327782 
L 348.445091 142.966919 
L 349.509818 141.459678 
L 350.574545 140.287656 
L 351.639273 139.401099 
L 352.970182 138.599128 
L 354.567273 137.945543 
L 356.696727 137.353703 
L 359.358545 136.822082 
L 360.955636 136.700961 
L 362.552727 136.793307 
L 365.480727 137.259005 
L 374.797091 138.671776 
L 378.257455 138.795232 
L 380.919273 139.002185 
L 383.314909 139.429101 
L 387.84 140.32642 
L 388.904727 140.216096 
L 389.703273 139.888356 
L 390.501818 139.291425 
L 391.300364 138.414559 
L 392.365091 136.899277 
L 394.494545 133.750488 
L 395.293091 132.920217 
L 396.091636 132.390684 
L 396.890182 132.150707 
L 397.688727 132.145686 
L 398.753455 132.377815 
L 401.149091 133.243059 
L 405.408 134.742593 
L 406.738909 134.941892 
L 407.803636 134.855866 
L 408.868364 134.539625 
L 413.127273 132.935245 
L 414.458182 132.838369 
L 416.055273 132.937018 
L 417.12 133.186229 
L 417.918545 133.571063 
L 418.717091 134.230442 
L 419.515636 135.261329 
L 420.314182 136.733282 
L 421.112727 138.663524 
L 422.177455 141.851323 
L 425.637818 152.925191 
L 426.436364 154.714526 
L 426.436364 154.714526 
" clip-path="url(#p72d84a58ed)" style="fill: none; stroke: #ff0000; stroke-width: 3; stroke-linecap: square"/>
   </g>
   <g id="patch_3">
    <path d="M 7.2 331.2 
L 7.2 7.2 
" style="fill: none; stroke: #000000; stroke-width: 0.8; stroke-linejoin: miter; stroke-linecap: square"/>
   </g>
   <g id="patch_4">
    <path d="M 446.4 331.2 
L 446.4 7.2 
" style="fill: none; stroke: #000000; stroke-width: 0.8; stroke-linejoin: miter; stroke-linecap: square"/>
   </g>
   <g id="patch_5">
    <path d="M 7.2 331.2 
L 446.4 331.2 
" style="fill: none; stroke: #000000; stroke-width: 0.8; stroke-linejoin: miter; stroke-linecap: square"/>
   </g>
   <g id="patch_6">
    <path d="M 7.2 7.2 
L 446.4 7.2 
" style="fill: none; stroke: #000000; stroke-width: 0.8; stroke-linejoin: miter; stroke-linecap: square"/>
   </g>
  </g>
 </g>
 <defs>
  <clipPath id="p72d84a58ed">
   <rect x="7.2" y="7.2" width="439.2" height="324"/>
  </clipPath>
 </defs>
</svg>
