<?xml version="1.0" encoding="utf-8" standalone="no"?>
<!DOCTYPE svg PUBLIC "-//W3C//DTD SVG 1.1//EN"
  "http://www.w3.org/Graphics/SVG/1.1/DTD/svg11.dtd">
<svg xmlns:xlink="http://www.w3.org/1999/xlink" width="453.6pt" height="338.4pt" viewBox="0 0 453.6 338.4" xmlns="http://www.w3.org/2000/svg" version="1.1">
 <metadata>
  <rdf:RDF xmlns:dc="http://purl.org/dc/elements/1.1/" xmlns:cc="http://creativecommons.org/ns#" xmlns:rdf="http://www.w3.org/1999/02/22-rdf-syntax-ns#">
   <cc:Work>
    <dc:type rdf:resource="http://purl.org/dc/dcmitype/StillImage"/>
    <dc:date>2025-05-14T16:17:02.881707</dc:date>
    <dc:format>image/svg+xml</dc:format>
    <dc:creator>
     <cc:Agent>
      <dc:title>Matplotlib v3.10.1, https://matplotlib.org/</dc:title>
     </cc:Agent>
    </dc:creator>
   </cc:Work>
  </rdf:RDF>
 </metadata>
 <defs>
  <style type="text/css">*{stroke-linejoin: round; stroke-linecap: butt}</style>
 </defs>
 <g id="figure_1">
  <g id="patch_1">
   <path d="M 0 338.4 
L 453.6 338.4 
L 453.6 0 
L 0 0 
z
" style="fill: #ffffff"/>
  </g>
  <g id="axes_1">
   <g id="patch_2">
    <path d="M 7.2 331.2 
L 446.4 331.2 
L 446.4 7.2 
L 7.2 7.2 
z
" style="fill: #ffffff"/>
   </g>
   <g id="matplotlib.axis_1"/>
   <g id="matplotlib.axis_2"/>
   <g id="line2d_1">
    <path d="M 27.163636 177.918711 
L 31.156364 182.625487 
L 34.882909 186.689037 
L 38.609455 190.434519 
L 42.336 193.861908 
L 46.062545 196.97123 
L 49.522909 199.573641 
L 52.983273 201.901797 
L 56.443636 203.955714 
L 59.904 205.73535 
L 63.098182 207.134673 
L 66.292364 208.300314 
L 69.486545 209.232262 
L 72.680727 209.930528 
L 75.874909 210.395102 
L 79.069091 210.625985 
L 82.263273 210.623185 
L 85.457455 210.386693 
L 88.651636 209.916518 
L 91.845818 209.212652 
L 95.04 208.275094 
L 98.234182 207.103853 
L 101.428364 205.69893 
L 104.622545 204.060306 
L 108.082909 202.021425 
L 111.543273 199.708298 
L 115.003636 197.120889 
L 118.464 194.259251 
L 121.924364 191.123331 
L 125.650909 187.43948 
L 129.377455 183.437561 
L 133.104 179.117541 
L 137.096727 174.136 
L 141.089455 168.789324 
L 145.082182 163.077529 
L 149.341091 156.582462 
L 153.6 149.671942 
L 157.858909 142.345989 
L 162.384 134.106968 
L 166.909091 125.398932 
L 171.434182 116.221897 
L 176.225455 105.993873 
L 181.016727 95.240004 
L 186.074182 83.318326 
L 191.131636 70.81076 
L 196.189091 57.717412 
L 201.512727 43.301952 
L 204.174545 35.904633 
L 208.699636 42.752581 
L 212.958545 48.809339 
L 217.217455 54.489585 
L 221.476364 59.793283 
L 225.469091 64.423541 
L 229.461818 68.722792 
L 233.454545 72.69116 
L 237.181091 76.096358 
L 240.907636 79.213247 
L 244.634182 82.041862 
L 248.360727 84.582203 
L 251.821091 86.682969 
L 255.281455 88.535121 
L 258.741818 90.138694 
L 262.202182 91.493705 
L 265.662545 92.600102 
L 269.122909 93.457972 
L 272.317091 94.029183 
L 275.511273 94.388612 
L 278.705455 94.536225 
L 281.899636 94.472022 
L 285.093818 94.19602 
L 288.288 93.708219 
L 291.482182 93.008619 
L 294.676364 92.09722 
L 298.136727 90.870826 
L 301.597091 89.39587 
L 305.057455 87.672336 
L 308.517818 85.700204 
L 311.978182 83.47951 
L 315.704727 80.810008 
L 319.431273 77.852197 
L 323.157818 74.606094 
L 326.884364 71.071699 
L 330.877091 66.96497 
L 334.869818 62.527235 
L 336.733091 60.529067 
L 339.661091 62.388435 
L 342.589091 64.500139 
L 345.783273 67.091674 
L 348.977455 69.983526 
L 352.171636 73.175749 
L 355.365818 76.668307 
L 358.826182 80.790819 
L 362.286545 85.265862 
L 365.746909 90.093311 
L 369.473455 95.686337 
L 373.2 101.688214 
L 376.926545 108.098818 
L 380.919273 115.420997 
L 384.912 123.212491 
L 388.904727 131.473246 
L 393.163636 140.801967 
L 397.422545 150.664627 
L 401.947636 161.728716 
L 406.472727 173.395599 
L 410.997818 185.665277 
L 415.789091 199.313712 
L 420.580364 213.637843 
L 425.637818 229.490977 
L 426.436364 232.062884 
L 426.436364 232.062884 
" clip-path="url(#p883bcc1f88)" style="fill: none; stroke-dasharray: 11.1,4.8; stroke-dashoffset: 0; stroke: #000000; stroke-width: 3"/>
   </g>
   <g id="line2d_2">
    <path d="M 27.163636 142.189229 
L 27.962182 145.133803 
L 29.026909 150.041274 
L 31.688727 163.057603 
L 32.753455 166.816876 
L 33.552 168.852193 
L 34.350545 170.319362 
L 35.415273 171.692122 
L 37.810909 174.374932 
L 38.875636 176.011186 
L 40.206545 178.572164 
L 43.933091 186.271452 
L 44.997818 187.761032 
L 45.796364 188.536686 
L 46.594909 189.032159 
L 47.393455 189.293826 
L 48.458182 189.403351 
L 50.587636 189.522874 
L 51.652364 189.844084 
L 52.717091 190.460669 
L 53.781818 191.400966 
L 54.846545 192.644143 
L 56.443636 194.898045 
L 59.371636 199.078712 
L 61.501091 201.656606 
L 63.098182 203.281676 
L 64.162909 204.084981 
L 64.961455 204.473502 
L 65.76 204.656192 
L 66.558545 204.64026 
L 67.623273 204.364021 
L 68.954182 203.753238 
L 71.083636 202.51013 
L 73.213091 201.037519 
L 75.076364 199.477424 
L 79.069091 195.957347 
L 80.133818 195.386987 
L 80.932364 195.163057 
L 81.730909 195.134466 
L 82.529455 195.309151 
L 83.328 195.686242 
L 84.392727 196.487248 
L 85.457455 197.592292 
L 86.788364 199.351466 
L 87.853091 201.090653 
L 88.917818 203.239471 
L 89.982545 205.927644 
L 91.313455 210.067283 
L 93.975273 218.877189 
L 94.773818 220.860812 
L 95.572364 222.290437 
L 96.104727 222.917775 
L 96.637091 223.29333 
L 97.169455 223.437652 
L 97.701818 223.378592 
L 98.500364 222.976624 
L 99.298909 222.285618 
L 100.363636 221.037489 
L 101.694545 219.049803 
L 103.025455 216.579748 
L 104.622545 213.011725 
L 107.816727 205.533988 
L 109.147636 203.020404 
L 110.478545 200.960701 
L 112.075636 198.924208 
L 113.672727 197.236304 
L 115.003636 196.123841 
L 116.334545 195.328753 
L 117.665455 194.804127 
L 120.061091 193.950743 
L 121.125818 193.326064 
L 122.190545 192.400243 
L 122.989091 191.447701 
L 124.053818 189.768574 
L 125.118545 187.617772 
L 129.111273 178.871499 
L 129.909818 177.781798 
L 130.708364 176.983813 
L 131.773091 176.271221 
L 133.104 175.730707 
L 134.967273 175.269486 
L 137.629091 174.61871 
L 138.96 174.055592 
L 140.290909 173.221107 
L 141.621818 172.085225 
L 143.485091 170.112979 
L 145.614545 167.911633 
L 146.945455 166.905412 
L 148.010182 166.369717 
L 149.074909 166.053266 
L 150.405818 165.905986 
L 151.736727 165.974877 
L 153.067636 166.243312 
L 154.398545 166.733448 
L 156.261818 167.725659 
L 157.858909 168.499645 
L 158.657455 168.68618 
L 159.456 168.646609 
L 160.254545 168.311775 
L 161.053091 167.609278 
L 161.851636 166.466874 
L 162.650182 164.828294 
L 163.448727 162.678422 
L 164.513455 159.107563 
L 166.376727 151.792793 
L 168.772364 142.593901 
L 171.700364 131.445068 
L 173.829818 122.119454 
L 176.225455 111.722329 
L 177.556364 106.912049 
L 178.887273 102.89117 
L 181.815273 95.093181 
L 184.210909 89.040988 
L 185.541818 86.331721 
L 186.606545 84.700427 
L 187.405091 83.80553 
L 188.203636 83.168554 
L 189.268364 82.642901 
L 190.599273 82.308296 
L 194.592 81.692281 
L 195.656727 81.763419 
L 196.455273 82.006082 
L 197.52 82.610773 
L 198.850909 83.717082 
L 200.714182 85.322832 
L 201.778909 85.918393 
L 202.577455 86.113865 
L 203.376 86.081315 
L 204.174545 85.840057 
L 205.239273 85.260156 
L 206.570182 84.260993 
L 208.433455 82.581717 
L 211.095273 79.845642 
L 219.080727 71.428724 
L 220.145455 70.657301 
L 221.210182 70.187196 
L 222.008727 70.067357 
L 222.807273 70.157614 
L 223.605818 70.449768 
L 224.670545 71.106566 
L 226.267636 72.4423 
L 228.397091 74.224315 
L 229.728 75.064242 
L 231.058909 75.647532 
L 232.389818 76.007945 
L 233.720727 76.17171 
L 235.051636 76.139477 
L 236.648727 75.851255 
L 238.512 75.258836 
L 240.375273 74.470647 
L 241.706182 73.715534 
L 243.037091 72.681557 
L 244.368 71.321841 
L 248.626909 66.570919 
L 249.691636 65.855325 
L 250.756364 65.417595 
L 251.821091 65.227548 
L 252.885818 65.24758 
L 253.950545 65.456377 
L 255.015273 65.85838 
L 256.08 66.478415 
L 257.144727 67.341219 
L 258.475636 68.757975 
L 260.072727 70.830511 
L 265.130182 77.65339 
L 267.259636 80.132073 
L 268.590545 81.387926 
L 269.921455 82.340547 
L 271.252364 83.02389 
L 273.381818 83.812096 
L 276.576 84.753429 
L 278.439273 85.077448 
L 280.302545 85.151605 
L 282.698182 84.971917 
L 286.690909 84.405463 
L 289.352727 83.831654 
L 291.748364 83.08021 
L 293.345455 82.37271 
L 294.676364 81.548495 
L 295.741091 80.664151 
L 296.805818 79.533983 
L 298.136727 77.751283 
L 299.733818 75.14063 
L 303.460364 68.726303 
L 304.791273 66.986248 
L 305.856 65.922584 
L 306.920727 65.134324 
L 307.985455 64.583988 
L 309.050182 64.240095 
L 310.114909 64.096696 
L 311.179636 64.179368 
L 312.244364 64.53943 
L 313.042909 65.030883 
L 313.841455 65.745265 
L 314.64 66.711773 
L 315.704727 68.433711 
L 316.769455 70.677052 
L 317.834182 73.420887 
L 319.431273 78.256869 
L 322.359273 87.38903 
L 323.690182 90.707272 
L 324.754909 92.774067 
L 325.819636 94.331818 
L 326.884364 95.445342 
L 327.949091 96.185532 
L 329.013818 96.609587 
L 330.078545 96.766979 
L 331.409455 96.680637 
L 333.805091 96.18074 
L 338.596364 95.050958 
L 339.661091 94.472654 
L 340.992 93.469331 
L 345.783273 89.461759 
L 347.646545 88.298744 
L 348.977455 87.689576 
L 350.042182 87.444402 
L 350.840727 87.446685 
L 351.905455 87.712733 
L 352.970182 88.242423 
L 354.301091 89.165462 
L 355.898182 90.559149 
L 356.962909 91.756452 
L 358.027636 93.351475 
L 358.826182 94.914879 
L 359.890909 97.575463 
L 360.955636 100.86802 
L 363.351273 109.378882 
L 364.682182 113.664755 
L 365.746909 116.490473 
L 367.077818 119.33459 
L 368.674909 122.166031 
L 370.538182 125.067469 
L 372.135273 127.165954 
L 377.192727 133.091373 
L 377.991273 133.755421 
L 378.789818 134.146084 
L 379.588364 134.245961 
L 380.653091 134.049032 
L 381.717818 133.831282 
L 382.250182 133.876612 
L 382.782545 134.111463 
L 383.314909 134.587747 
L 383.847273 135.33912 
L 384.645818 136.999453 
L 385.444364 139.236579 
L 386.775273 143.792819 
L 388.904727 151.210662 
L 390.235636 155.076168 
L 391.566545 158.27508 
L 392.897455 160.890509 
L 393.962182 162.565676 
L 395.026909 163.859328 
L 396.091636 164.807929 
L 397.422545 165.664306 
L 399.552 166.948004 
L 400.616727 167.849799 
L 401.681455 169.048121 
L 403.012364 170.973509 
L 404.875636 174.217961 
L 408.868364 181.34437 
L 410.465455 183.748746 
L 412.062545 185.753428 
L 414.192 188.401283 
L 414.990545 189.717679 
L 415.789091 191.401642 
L 416.587636 193.571132 
L 417.386182 196.314397 
L 418.450909 200.915301 
L 419.781818 207.959011 
L 422.709818 224.088744 
L 423.774545 228.387407 
L 424.573091 230.730398 
L 425.371636 232.338131 
L 426.170182 233.315322 
L 426.436364 233.526428 
L 426.436364 233.526428 
" clip-path="url(#p883bcc1f88)" style="fill: none; stroke: #ff0000; stroke-width: 3; stroke-linecap: square"/>
   </g>
   <g id="patch_3">
    <path d="M 7.2 331.2 
L 7.2 7.2 
" style="fill: none; stroke: #000000; stroke-width: 0.8; stroke-linejoin: miter; stroke-linecap: square"/>
   </g>
   <g id="patch_4">
    <path d="M 446.4 331.2 
L 446.4 7.2 
" style="fill: none; stroke: #000000; stroke-width: 0.8; stroke-linejoin: miter; stroke-linecap: square"/>
   </g>
   <g id="patch_5">
    <path d="M 7.2 331.2 
L 446.4 331.2 
" style="fill: none; stroke: #000000; stroke-width: 0.8; stroke-linejoin: miter; stroke-linecap: square"/>
   </g>
   <g id="patch_6">
    <path d="M 7.2 7.2 
L 446.4 7.2 
" style="fill: none; stroke: #000000; stroke-width: 0.8; stroke-linejoin: miter; stroke-linecap: square"/>
   </g>
  </g>
 </g>
 <defs>
  <clipPath id="p883bcc1f88">
   <rect x="7.2" y="7.2" width="439.2" height="324"/>
  </clipPath>
 </defs>
</svg>
