<?xml version="1.0" encoding="utf-8" standalone="no"?>
<!DOCTYPE svg PUBLIC "-//W3C//DTD SVG 1.1//EN"
  "http://www.w3.org/Graphics/SVG/1.1/DTD/svg11.dtd">
<svg xmlns:xlink="http://www.w3.org/1999/xlink" width="453.6pt" height="338.4pt" viewBox="0 0 453.6 338.4" xmlns="http://www.w3.org/2000/svg" version="1.1">
 <metadata>
  <rdf:RDF xmlns:dc="http://purl.org/dc/elements/1.1/" xmlns:cc="http://creativecommons.org/ns#" xmlns:rdf="http://www.w3.org/1999/02/22-rdf-syntax-ns#">
   <cc:Work>
    <dc:type rdf:resource="http://purl.org/dc/dcmitype/StillImage"/>
    <dc:date>2025-05-14T16:19:48.123313</dc:date>
    <dc:format>image/svg+xml</dc:format>
    <dc:creator>
     <cc:Agent>
      <dc:title>Matplotlib v3.10.1, https://matplotlib.org/</dc:title>
     </cc:Agent>
    </dc:creator>
   </cc:Work>
  </rdf:RDF>
 </metadata>
 <defs>
  <style type="text/css">*{stroke-linejoin: round; stroke-linecap: butt}</style>
 </defs>
 <g id="figure_1">
  <g id="patch_1">
   <path d="M 0 338.4 
L 453.6 338.4 
L 453.6 0 
L 0 0 
z
" style="fill: #ffffff"/>
  </g>
  <g id="axes_1">
   <g id="patch_2">
    <path d="M 7.2 331.2 
L 446.4 331.2 
L 446.4 7.2 
L 7.2 7.2 
z
" style="fill: #ffffff"/>
   </g>
   <g id="matplotlib.axis_1"/>
   <g id="matplotlib.axis_2"/>
   <g id="line2d_1">
    <path d="M 27.163636 41.648572 
L 29.026909 50.048408 
L 30.890182 57.477979 
L 32.753455 63.999978 
L 34.616727 69.677099 
L 36.48 74.572 
L 38.077091 78.19249 
L 39.674182 81.323898 
L 41.271273 84.005444 
L 42.868364 86.276822 
L 44.465455 88.177377 
L 46.062545 89.746592 
L 47.659636 91.023952 
L 49.256727 92.048887 
L 51.12 92.978264 
L 53.249455 93.765944 
L 55.911273 94.475762 
L 62.832 96.146786 
L 64.961455 96.974634 
L 66.824727 97.951237 
L 68.421818 99.025506 
L 70.018909 100.360433 
L 71.616 101.995449 
L 73.213091 103.970003 
L 74.810182 106.323598 
L 76.407273 109.095699 
L 78.004364 112.32572 
L 79.601455 116.053181 
L 81.198545 120.317496 
L 82.795636 125.158183 
L 84.658909 131.586712 
L 86.522182 138.916107 
L 88.385455 147.209025 
L 90.248727 156.528107 
L 92.112 166.936083 
L 93.975273 178.495566 
L 96.370909 194.450913 
L 98.766545 189.653572 
L 100.896 185.859476 
L 103.025455 182.531219 
L 104.888727 180.018713 
L 106.752 177.894939 
L 108.349091 176.395335 
L 109.946182 175.201833 
L 111.277091 174.447835 
L 112.608 173.918381 
L 113.938909 173.61895 
L 115.269818 173.555001 
L 116.600727 173.731969 
L 117.931636 174.155294 
L 119.262545 174.830518 
L 120.593455 175.763028 
L 121.924364 176.958321 
L 123.255273 178.421847 
L 124.852364 180.539819 
L 126.449455 183.061322 
L 128.046545 185.995809 
L 129.643636 189.352719 
L 131.506909 193.81556 
L 133.370182 198.881222 
L 135.233455 204.564592 
L 137.362909 211.835542 
L 139.492364 219.955268 
L 141.621818 228.946171 
L 142.952727 234.992842 
L 144.816 237.645648 
L 146.679273 239.888691 
L 148.276364 241.496425 
L 149.873455 242.823319 
L 151.470545 243.878737 
L 153.067636 244.672004 
L 154.664727 245.21243 
L 156.261818 245.509377 
L 157.858909 245.572158 
L 159.456 245.410127 
L 161.053091 245.032584 
L 162.650182 244.448886 
L 164.513455 243.519799 
L 166.376727 242.337625 
L 168.506182 240.695665 
L 170.635636 238.764624 
L 173.031273 236.274205 
L 175.693091 233.149091 
L 178.621091 229.326185 
L 181.815273 224.760912 
L 185.541818 219.011117 
L 190.066909 211.57901 
L 197.253818 199.256303 
L 204.706909 186.603186 
L 208.965818 179.790333 
L 212.426182 174.63322 
L 215.620364 170.262436 
L 218.548364 166.650056 
L 221.210182 163.743158 
L 223.605818 161.470919 
L 224.404364 160.791632 
L 224.670545 161.307172 
L 226.001455 172.234234 
L 227.332364 181.144001 
L 228.397091 186.915679 
L 229.461818 191.561685 
L 230.526545 195.155578 
L 231.325091 197.204632 
L 232.123636 198.734214 
L 232.922182 199.775345 
L 233.720727 200.359004 
L 234.253091 200.509277 
L 234.785455 200.479194 
L 235.317818 200.277973 
L 236.116364 199.675318 
L 236.914909 198.739235 
L 237.979636 197.026129 
L 239.044364 194.848869 
L 240.375273 191.586729 
L 241.972364 187.068849 
L 244.634182 178.71947 
L 247.828364 168.76313 
L 249.425455 164.389668 
L 250.756364 161.295251 
L 251.821091 159.283161 
L 252.885818 157.762665 
L 253.684364 156.989153 
L 254.482909 156.564502 
L 255.015273 156.490554 
L 255.547636 156.594663 
L 256.08 156.885957 
L 256.612364 157.373688 
L 257.410909 158.493691 
L 258.209455 160.10727 
L 259.008 162.245467 
L 259.806545 164.93932 
L 260.871273 169.449176 
L 261.936 175.075393 
L 263.000727 181.8916 
L 264.065455 189.971464 
L 265.396364 201.959943 
L 266.461091 213.105941 
L 268.856727 201.845125 
L 270.986182 192.805819 
L 273.115636 184.651148 
L 275.245091 177.353951 
L 277.374545 170.887 
L 279.237818 165.887903 
L 281.101091 161.48521 
L 282.964364 157.660645 
L 284.561455 154.82873 
L 286.158545 152.396554 
L 287.755636 150.352652 
L 289.352727 148.685525 
L 290.683636 147.57574 
L 292.014545 146.712867 
L 293.345455 146.090356 
L 294.676364 145.701397 
L 296.007273 145.539511 
L 297.338182 145.597868 
L 298.669091 145.869867 
L 300 146.348873 
L 301.597091 147.187466 
L 303.194182 148.303009 
L 304.791273 149.683968 
L 306.654545 151.615194 
L 308.517818 153.873704 
L 310.647273 156.832129 
L 312.776727 160.166839 
L 315.172364 164.334208 
L 317.834182 169.435438 
L 320.762182 175.557453 
L 323.956364 182.765393 
L 327.682909 191.753022 
L 332.208 203.302638 
L 338.596364 220.314583 
L 348.977455 247.976666 
L 353.236364 258.713716 
L 353.502545 257.625561 
L 355.632 240.920833 
L 357.761455 225.86586 
L 359.890909 212.370306 
L 362.020364 200.34315 
L 364.149818 189.694022 
L 366.013091 181.43497 
L 367.876364 174.100712 
L 369.739636 167.630557 
L 371.602909 161.963583 
L 373.466182 157.039171 
L 375.329455 152.796608 
L 377.192727 149.175012 
L 378.789818 146.519046 
L 380.386909 144.236466 
L 381.984 142.289054 
L 383.847273 140.389605 
L 385.710545 138.833522 
L 387.573818 137.560007 
L 389.703273 136.372658 
L 392.365091 135.157799 
L 399.552 132.045528 
L 401.681455 130.798488 
L 403.544727 129.455345 
L 405.408 127.813359 
L 407.005091 126.12204 
L 408.602182 124.128261 
L 410.199273 121.793803 
L 411.796364 119.080445 
L 413.393455 115.949827 
L 414.990545 112.36373 
L 416.587636 108.283932 
L 418.450909 102.849105 
L 420.314182 96.629566 
L 422.177455 89.564376 
L 424.040727 81.59286 
L 425.904 72.654433 
L 426.436364 69.914372 
L 426.436364 69.914372 
" clip-path="url(#pd34b250328)" style="fill: none; stroke-dasharray: 11.1,4.8; stroke-dashoffset: 0; stroke: #000000; stroke-width: 3"/>
   </g>
   <g id="line2d_2">
    <path d="M 27.163636 55.557024 
L 27.429818 48.281545 
L 27.696 46.948883 
L 27.962182 46.964245 
L 28.494545 48.042762 
L 29.026909 49.557201 
L 30.091636 53.615844 
L 31.156364 57.924734 
L 31.422545 57.839094 
L 32.487273 60.654191 
L 33.285818 62.301198 
L 34.616727 64.633093 
L 35.415273 66.577415 
L 35.681455 65.374968 
L 36.213818 66.878453 
L 37.012364 70.144078 
L 38.077091 74.486465 
L 38.875636 77.055194 
L 39.408 78.522302 
L 39.674182 79.054503 
L 39.940364 78.318492 
L 40.738909 80.058196 
L 41.803636 81.520616 
L 43.666909 82.48184 
L 43.933091 82.412949 
L 44.199273 83.608883 
L 45.264 84.200547 
L 47.393455 85.31372 
L 48.192 85.85017 
L 48.458182 85.711335 
L 49.256727 86.291587 
L 51.918545 87.7009 
L 52.450909 88.195179 
L 52.983273 88.844358 
L 54.580364 90.531147 
L 57.242182 93.795052 
L 57.774545 94.470723 
L 59.371636 96.028439 
L 60.968727 97.611085 
L 61.234909 101.421534 
L 61.501091 101.988338 
L 62.565818 103.240364 
L 63.364364 104.400869 
L 64.429091 106.198562 
L 66.026182 109.568542 
L 67.090909 112.423228 
L 68.155636 115.811379 
L 68.954182 119.323126 
L 73.479273 143.910481 
L 75.608727 154.440087 
L 76.939636 161.866866 
L 77.472 163.93496 
L 79.069091 167.982226 
L 79.601455 169.564969 
L 80.133818 170.698507 
L 80.932364 171.732695 
L 82.263273 172.857157 
L 84.126545 174.072376 
L 84.925091 174.303978 
L 85.457455 174.292146 
L 86.256 173.990801 
L 87.054545 173.341464 
L 88.385455 172.252018 
L 88.917818 171.035658 
L 89.716364 170.379317 
L 90.514909 169.97015 
L 91.047273 169.844017 
L 91.579636 169.915594 
L 91.845818 170.082747 
L 92.378182 170.831162 
L 93.442909 173.276067 
L 93.975273 174.368866 
L 94.507636 174.929193 
L 95.04 175.292608 
L 95.306182 175.228378 
L 95.838545 176.017164 
L 96.903273 177.016213 
L 97.701818 177.453741 
L 98.234182 177.542875 
L 99.032727 177.387493 
L 100.363636 176.490876 
L 101.694545 175.469101 
L 103.824 173.540114 
L 104.622545 173.484724 
L 107.550545 174.045094 
L 107.816727 174.124378 
L 108.349091 174.080469 
L 109.946182 174.023368 
L 111.010909 173.623638 
L 112.075636 172.888188 
L 112.341818 173.062328 
L 113.140364 172.776187 
L 115.003636 172.296269 
L 116.068364 172.196251 
L 116.334545 172.201869 
L 116.600727 172.046917 
L 117.665455 172.13871 
L 118.996364 172.585061 
L 119.794909 173.13251 
L 120.327273 173.785463 
L 120.859636 174.486976 
L 121.392 176.066199 
L 121.924364 176.850789 
L 122.722909 177.564583 
L 123.787636 178.695462 
L 124.586182 179.564331 
L 126.183273 181.032983 
L 128.312727 183.553968 
L 129.111273 184.755933 
L 129.377455 184.69029 
L 129.909818 185.755877 
L 130.708364 187.909128 
L 131.773091 192.055789 
L 132.571636 195.384582 
L 133.370182 197.763571 
L 136.830545 205.443179 
L 137.362909 207.027325 
L 137.629091 208.615493 
L 138.161455 212.920116 
L 139.492364 217.546854 
L 140.823273 222.864395 
L 141.621818 224.789634 
L 142.686545 226.71116 
L 144.283636 229.50216 
L 144.816 230.193246 
L 145.880727 231.001826 
L 146.413091 231.224071 
L 146.945455 231.500469 
L 148.010182 232.444417 
L 148.808727 233.571056 
L 149.341091 234.620623 
L 150.405818 237.034269 
L 151.470545 238.548752 
L 152.269091 239.250749 
L 153.067636 239.772925 
L 154.664727 240.29561 
L 155.197091 240.35697 
L 157.592727 241.1657 
L 159.988364 241.854476 
L 161.319273 242.404111 
L 163.714909 243.244104 
L 165.045818 243.449648 
L 166.110545 243.358325 
L 168.24 242.873723 
L 169.570909 242.511353 
L 170.635636 241.93405 
L 172.498909 240.391634 
L 174.894545 238.379299 
L 176.757818 236.872356 
L 177.822545 236.141901 
L 179.419636 234.876883 
L 180.218182 234.182093 
L 180.750545 233.48467 
L 182.613818 231.524126 
L 183.944727 229.820508 
L 184.477091 229.028176 
L 185.275636 227.4673 
L 186.074182 225.630106 
L 188.469818 219.498067 
L 189.534545 217.705527 
L 190.599273 216.515615 
L 192.196364 215.099947 
L 194.059636 212.930597 
L 195.124364 211.256176 
L 196.721455 208.40566 
L 200.714182 201.621748 
L 201.512727 200.034774 
L 202.577455 197.285259 
L 203.642182 194.529231 
L 205.239273 191.581839 
L 206.570182 189.59331 
L 208.433455 187.701384 
L 209.498182 186.757155 
L 210.296727 186.235549 
L 212.426182 185.118461 
L 217.217455 182.735819 
L 218.282182 182.438205 
L 220.944 181.86796 
L 221.476364 181.906812 
L 222.008727 182.15368 
L 222.541091 182.552804 
L 223.339636 183.610956 
L 224.404364 185.392734 
L 224.936727 186.440528 
L 225.735273 188.470744 
L 227.332364 193.490532 
L 228.397091 196.978323 
L 228.929455 199.179871 
L 229.461818 200.509865 
L 230.260364 201.657053 
L 231.325091 202.686808 
L 233.188364 204.587968 
L 234.519273 205.938081 
L 235.051636 206.265532 
L 236.116364 206.485732 
L 237.181091 206.461232 
L 237.979636 206.142129 
L 238.778182 205.556153 
L 240.109091 204.270481 
L 240.641455 203.571785 
L 241.173818 202.509902 
L 242.770909 198.417639 
L 245.432727 193.189986 
L 247.828364 189.311593 
L 249.159273 187.860137 
L 250.756364 186.438061 
L 251.554909 185.864208 
L 252.353455 185.482798 
L 253.418182 185.253732 
L 256.612364 185.069198 
L 257.144727 185.293471 
L 257.943273 185.94444 
L 260.605091 188.41165 
L 261.403636 189.2461 
L 262.202182 190.30103 
L 263.000727 191.697799 
L 263.533091 193.129188 
L 264.065455 195.359336 
L 264.597818 198.0896 
L 265.130182 199.553092 
L 265.662545 200.582767 
L 266.194909 201.263802 
L 266.727273 201.590655 
L 267.259636 201.450337 
L 267.792 200.901888 
L 268.324364 199.792331 
L 268.856727 197.967751 
L 270.72 188.631735 
L 271.784727 184.823252 
L 273.381818 179.995074 
L 274.978909 176.764736 
L 276.043636 175.092001 
L 277.108364 172.81676 
L 279.770182 166.758203 
L 281.633455 162.778019 
L 281.899636 162.823718 
L 283.496727 160.169876 
L 285.892364 156.143309 
L 286.690909 154.828186 
L 288.288 151.599973 
L 290.417455 146.531791 
L 291.216 145.087788 
L 292.014545 144.071525 
L 292.813091 143.348996 
L 293.877818 142.898801 
L 294.410182 143.018675 
L 297.072 144.780272 
L 298.669091 145.839811 
L 298.935273 146.505773 
L 299.733818 147.554234 
L 303.194182 151.817758 
L 304.258909 153.278019 
L 307.186909 157.187346 
L 307.453091 157.979362 
L 308.251636 159.395205 
L 309.316364 161.630453 
L 310.381091 164.291353 
L 310.913455 166.009445 
L 312.244364 170.625675 
L 313.309091 173.338181 
L 313.841455 174.139985 
L 314.64 174.716174 
L 315.438545 175.033617 
L 316.237091 175.143844 
L 318.100364 175.251403 
L 319.431273 175.322673 
L 320.762182 175.564984 
L 321.294545 175.952109 
L 321.826909 176.602464 
L 322.359273 177.791463 
L 322.891636 179.881704 
L 323.424 182.081348 
L 323.690182 182.73941 
L 324.222545 183.261498 
L 324.488727 183.008565 
L 325.553455 183.787739 
L 325.819636 184.095632 
L 326.352 185.270094 
L 326.884364 186.910053 
L 327.416727 187.656379 
L 328.215273 188.510623 
L 328.747636 189.452579 
L 329.546182 191.419593 
L 330.344727 193.441585 
L 331.675636 196.213817 
L 335.668364 207.028598 
L 339.394909 218.818929 
L 340.193455 222.56744 
L 340.992 226.292153 
L 341.258182 227.214867 
L 341.524364 227.004648 
L 342.322909 229.261876 
L 343.92 233.611532 
L 345.250909 236.648171 
L 346.049455 237.76202 
L 346.848 238.795822 
L 348.178909 240.123734 
L 350.042182 242.09397 
L 350.840727 242.731044 
L 351.373091 242.981023 
L 352.171636 243.107143 
L 352.970182 242.773231 
L 353.502545 242.3294 
L 354.567273 240.847457 
L 355.365818 239.000247 
L 355.898182 236.733363 
L 356.430545 232.487298 
L 356.962909 229.091537 
L 358.293818 221.344057 
L 358.826182 218.22148 
L 359.358545 216.112023 
L 360.423273 208.384066 
L 361.221818 205.541652 
L 363.351273 194.624746 
L 364.416 190.751937 
L 366.279273 183.644041 
L 366.811636 179.859215 
L 367.610182 173.101189 
L 368.408727 169.451432 
L 369.473455 165.720065 
L 370.005818 163.982748 
L 373.998545 150.610413 
L 375.329455 146.986306 
L 375.595636 146.67161 
L 378.523636 140.234126 
L 379.056 139.001834 
L 380.120727 137.314816 
L 381.984 135.809506 
L 382.782545 135.276409 
L 383.581091 134.652424 
L 383.847273 134.435042 
L 384.113455 134.02958 
L 387.041455 133.603402 
L 387.573818 133.611372 
L 388.106182 133.753157 
L 388.372364 133.570062 
L 390.235636 135.111626 
L 391.300364 135.659821 
L 391.832727 135.84353 
L 392.365091 136.283683 
L 392.631273 135.449883 
L 393.429818 136.227538 
L 394.228364 137.03841 
L 395.293091 138.313277 
L 397.954909 142.038859 
L 398.753455 143.189814 
L 399.818182 144.154777 
L 400.084364 144.18299 
L 400.882909 144.73603 
L 401.149091 145.599061 
L 401.681455 146.054155 
L 403.012364 146.621346 
L 405.141818 146.778141 
L 405.408 146.653386 
L 406.206545 146.701455 
L 406.738909 146.575173 
L 407.271273 146.488059 
L 408.336 145.846465 
L 408.868364 145.059592 
L 409.400727 144.408044 
L 409.666909 144.577585 
L 410.199273 144.081953 
L 410.997818 142.858509 
L 412.062545 140.846261 
L 413.659636 137.705794 
L 413.925818 137.875599 
L 414.990545 136.171481 
L 416.587636 133.156068 
L 417.12 131.519665 
L 417.918545 129.023302 
L 418.184727 128.541558 
L 418.983273 125.17293 
L 420.048 119.609732 
L 421.645091 111.908688 
L 422.177455 109.690892 
L 422.443636 109.322456 
L 424.839273 99.250156 
L 425.371636 97.398425 
L 425.904 96.96468 
L 426.170182 98.435615 
L 426.436364 106.167909 
L 426.436364 106.167909 
" clip-path="url(#pd34b250328)" style="fill: none; stroke: #0000ff; stroke-width: 3; stroke-linecap: square"/>
   </g>
   <g id="patch_3">
    <path d="M 7.2 331.2 
L 7.2 7.2 
" style="fill: none; stroke: #000000; stroke-width: 0.8; stroke-linejoin: miter; stroke-linecap: square"/>
   </g>
   <g id="patch_4">
    <path d="M 446.4 331.2 
L 446.4 7.2 
" style="fill: none; stroke: #000000; stroke-width: 0.8; stroke-linejoin: miter; stroke-linecap: square"/>
   </g>
   <g id="patch_5">
    <path d="M 7.2 331.2 
L 446.4 331.2 
" style="fill: none; stroke: #000000; stroke-width: 0.8; stroke-linejoin: miter; stroke-linecap: square"/>
   </g>
   <g id="patch_6">
    <path d="M 7.2 7.2 
L 446.4 7.2 
" style="fill: none; stroke: #000000; stroke-width: 0.8; stroke-linejoin: miter; stroke-linecap: square"/>
   </g>
  </g>
 </g>
 <defs>
  <clipPath id="pd34b250328">
   <rect x="7.2" y="7.2" width="439.2" height="324"/>
  </clipPath>
 </defs>
</svg>
