<?xml version="1.0" encoding="utf-8" standalone="no"?>
<!DOCTYPE svg PUBLIC "-//W3C//DTD SVG 1.1//EN"
  "http://www.w3.org/Graphics/SVG/1.1/DTD/svg11.dtd">
<svg xmlns:xlink="http://www.w3.org/1999/xlink" width="453.6pt" height="338.4pt" viewBox="0 0 453.6 338.4" xmlns="http://www.w3.org/2000/svg" version="1.1">
 <metadata>
  <rdf:RDF xmlns:dc="http://purl.org/dc/elements/1.1/" xmlns:cc="http://creativecommons.org/ns#" xmlns:rdf="http://www.w3.org/1999/02/22-rdf-syntax-ns#">
   <cc:Work>
    <dc:type rdf:resource="http://purl.org/dc/dcmitype/StillImage"/>
    <dc:date>2025-05-14T16:19:54.817805</dc:date>
    <dc:format>image/svg+xml</dc:format>
    <dc:creator>
     <cc:Agent>
      <dc:title>Matplotlib v3.10.1, https://matplotlib.org/</dc:title>
     </cc:Agent>
    </dc:creator>
   </cc:Work>
  </rdf:RDF>
 </metadata>
 <defs>
  <style type="text/css">*{stroke-linejoin: round; stroke-linecap: butt}</style>
 </defs>
 <g id="figure_1">
  <g id="patch_1">
   <path d="M 0 338.4 
L 453.6 338.4 
L 453.6 0 
L 0 0 
z
" style="fill: #ffffff"/>
  </g>
  <g id="axes_1">
   <g id="patch_2">
    <path d="M 7.2 331.2 
L 446.4 331.2 
L 446.4 7.2 
L 7.2 7.2 
z
" style="fill: #ffffff"/>
   </g>
   <g id="matplotlib.axis_1"/>
   <g id="matplotlib.axis_2"/>
   <g id="line2d_1">
    <path d="M 27.163636 41.648572 
L 29.026909 50.048408 
L 30.890182 57.477979 
L 32.753455 63.999978 
L 34.616727 69.677099 
L 36.48 74.572 
L 38.077091 78.19249 
L 39.674182 81.323898 
L 41.271273 84.005444 
L 42.868364 86.276822 
L 44.465455 88.177377 
L 46.062545 89.746592 
L 47.659636 91.023952 
L 49.256727 92.048887 
L 51.12 92.978264 
L 53.249455 93.765944 
L 55.911273 94.475762 
L 62.832 96.146786 
L 64.961455 96.974634 
L 66.824727 97.951237 
L 68.421818 99.025506 
L 70.018909 100.360433 
L 71.616 101.995449 
L 73.213091 103.970003 
L 74.810182 106.323598 
L 76.407273 109.095699 
L 78.004364 112.32572 
L 79.601455 116.053181 
L 81.198545 120.317496 
L 82.795636 125.158183 
L 84.658909 131.586712 
L 86.522182 138.916107 
L 88.385455 147.209025 
L 90.248727 156.528107 
L 92.112 166.936083 
L 93.975273 178.495566 
L 96.370909 194.450913 
L 98.766545 189.653572 
L 100.896 185.859476 
L 103.025455 182.531219 
L 104.888727 180.018713 
L 106.752 177.894939 
L 108.349091 176.395335 
L 109.946182 175.201833 
L 111.277091 174.447835 
L 112.608 173.918381 
L 113.938909 173.61895 
L 115.269818 173.555001 
L 116.600727 173.731969 
L 117.931636 174.155294 
L 119.262545 174.830518 
L 120.593455 175.763028 
L 121.924364 176.958321 
L 123.255273 178.421847 
L 124.852364 180.539819 
L 126.449455 183.061322 
L 128.046545 185.995809 
L 129.643636 189.352719 
L 131.506909 193.81556 
L 133.370182 198.881222 
L 135.233455 204.564592 
L 137.362909 211.835542 
L 139.492364 219.955268 
L 141.621818 228.946171 
L 142.952727 234.992842 
L 144.816 237.645648 
L 146.679273 239.888691 
L 148.276364 241.496425 
L 149.873455 242.823319 
L 151.470545 243.878737 
L 153.067636 244.672004 
L 154.664727 245.21243 
L 156.261818 245.509377 
L 157.858909 245.572158 
L 159.456 245.410127 
L 161.053091 245.032584 
L 162.650182 244.448886 
L 164.513455 243.519799 
L 166.376727 242.337625 
L 168.506182 240.695665 
L 170.635636 238.764624 
L 173.031273 236.274205 
L 175.693091 233.149091 
L 178.621091 229.326185 
L 181.815273 224.760912 
L 185.541818 219.011117 
L 190.066909 211.57901 
L 197.253818 199.256303 
L 204.706909 186.603186 
L 208.965818 179.790333 
L 212.426182 174.63322 
L 215.620364 170.262436 
L 218.548364 166.650056 
L 221.210182 163.743158 
L 223.605818 161.470919 
L 224.404364 160.791632 
L 224.670545 161.307172 
L 226.001455 172.234234 
L 227.332364 181.144001 
L 228.397091 186.915679 
L 229.461818 191.561685 
L 230.526545 195.155578 
L 231.325091 197.204632 
L 232.123636 198.734214 
L 232.922182 199.775345 
L 233.720727 200.359004 
L 234.253091 200.509277 
L 234.785455 200.479194 
L 235.317818 200.277973 
L 236.116364 199.675318 
L 236.914909 198.739235 
L 237.979636 197.026129 
L 239.044364 194.848869 
L 240.375273 191.586729 
L 241.972364 187.068849 
L 244.634182 178.71947 
L 247.828364 168.76313 
L 249.425455 164.389668 
L 250.756364 161.295251 
L 251.821091 159.283161 
L 252.885818 157.762665 
L 253.684364 156.989153 
L 254.482909 156.564502 
L 255.015273 156.490554 
L 255.547636 156.594663 
L 256.08 156.885957 
L 256.612364 157.373688 
L 257.410909 158.493691 
L 258.209455 160.10727 
L 259.008 162.245467 
L 259.806545 164.93932 
L 260.871273 169.449176 
L 261.936 175.075393 
L 263.000727 181.8916 
L 264.065455 189.971464 
L 265.396364 201.959943 
L 266.461091 213.105941 
L 268.856727 201.845125 
L 270.986182 192.805819 
L 273.115636 184.651148 
L 275.245091 177.353951 
L 277.374545 170.887 
L 279.237818 165.887903 
L 281.101091 161.48521 
L 282.964364 157.660645 
L 284.561455 154.82873 
L 286.158545 152.396554 
L 287.755636 150.352652 
L 289.352727 148.685525 
L 290.683636 147.57574 
L 292.014545 146.712867 
L 293.345455 146.090356 
L 294.676364 145.701397 
L 296.007273 145.539511 
L 297.338182 145.597868 
L 298.669091 145.869867 
L 300 146.348873 
L 301.597091 147.187466 
L 303.194182 148.303009 
L 304.791273 149.683968 
L 306.654545 151.615194 
L 308.517818 153.873704 
L 310.647273 156.832129 
L 312.776727 160.166839 
L 315.172364 164.334208 
L 317.834182 169.435438 
L 320.762182 175.557453 
L 323.956364 182.765393 
L 327.682909 191.753022 
L 332.208 203.302638 
L 338.596364 220.314583 
L 348.977455 247.976666 
L 353.236364 258.713716 
L 353.502545 257.625561 
L 355.632 240.920833 
L 357.761455 225.86586 
L 359.890909 212.370306 
L 362.020364 200.34315 
L 364.149818 189.694022 
L 366.013091 181.43497 
L 367.876364 174.100712 
L 369.739636 167.630557 
L 371.602909 161.963583 
L 373.466182 157.039171 
L 375.329455 152.796608 
L 377.192727 149.175012 
L 378.789818 146.519046 
L 380.386909 144.236466 
L 381.984 142.289054 
L 383.847273 140.389605 
L 385.710545 138.833522 
L 387.573818 137.560007 
L 389.703273 136.372658 
L 392.365091 135.157799 
L 399.552 132.045528 
L 401.681455 130.798488 
L 403.544727 129.455345 
L 405.408 127.813359 
L 407.005091 126.12204 
L 408.602182 124.128261 
L 410.199273 121.793803 
L 411.796364 119.080445 
L 413.393455 115.949827 
L 414.990545 112.36373 
L 416.587636 108.283932 
L 418.450909 102.849105 
L 420.314182 96.629566 
L 422.177455 89.564376 
L 424.040727 81.59286 
L 425.904 72.654433 
L 426.436364 69.914372 
L 426.436364 69.914372 
" clip-path="url(#p94adaab69f)" style="fill: none; stroke-dasharray: 11.1,4.8; stroke-dashoffset: 0; stroke: #000000; stroke-width: 3"/>
   </g>
   <g id="line2d_2">
    <path d="M 27.163636 48.746874 
L 28.228364 48.033615 
L 29.026909 47.751679 
L 29.559273 47.733877 
L 30.091636 47.869604 
L 30.890182 48.366921 
L 31.688727 49.192733 
L 32.753455 50.710245 
L 34.084364 53.055395 
L 37.544727 59.852237 
L 39.940364 64.821331 
L 41.271273 68.113098 
L 42.868364 72.723095 
L 45.796364 81.341384 
L 47.127273 84.480552 
L 48.458182 87.001335 
L 49.789091 89.017023 
L 51.12 90.630393 
L 52.450909 91.913511 
L 54.314182 93.353389 
L 56.443636 95.020498 
L 57.508364 96.115413 
L 58.573091 97.517299 
L 59.904 99.719769 
L 63.630545 106.32107 
L 65.493818 109.36445 
L 66.558545 111.604561 
L 67.623273 114.510353 
L 68.688 118.16334 
L 70.018909 123.683034 
L 71.882182 132.616405 
L 76.141091 153.520524 
L 77.738182 160.139644 
L 79.069091 164.633525 
L 80.133818 167.444407 
L 81.198545 169.590618 
L 82.263273 171.192155 
L 83.328 172.395822 
L 84.658909 173.52548 
L 86.256 174.530463 
L 88.385455 175.54267 
L 91.047273 176.787015 
L 92.378182 177.681385 
L 93.709091 178.849062 
L 96.370909 181.272671 
L 97.169455 181.726219 
L 97.968 181.951089 
L 98.766545 181.926774 
L 99.565091 181.662859 
L 100.629818 181.00578 
L 102.226909 179.666578 
L 104.090182 178.149198 
L 108.615273 174.826576 
L 111.543273 172.132662 
L 112.608 171.542534 
L 113.406545 171.340391 
L 114.205091 171.344727 
L 115.269818 171.62346 
L 116.600727 172.273376 
L 118.197818 173.313892 
L 119.528727 174.415671 
L 120.593455 175.545822 
L 121.924364 177.347447 
L 123.521455 179.990255 
L 126.449455 185.375169 
L 128.312727 189.168053 
L 129.909818 192.913501 
L 132.039273 198.552401 
L 134.434909 205.487956 
L 136.830545 213.17319 
L 140.290909 224.43275 
L 141.888 228.813814 
L 143.485091 232.493004 
L 145.082182 235.593706 
L 146.945455 238.70833 
L 149.074909 241.807425 
L 150.938182 244.12585 
L 152.535273 245.754779 
L 154.132364 247.038015 
L 156.261818 248.398675 
L 161.053091 251.154185 
L 162.650182 251.78687 
L 164.247273 252.170527 
L 166.110545 252.353477 
L 167.973818 252.289269 
L 169.304727 252.029296 
L 170.369455 251.619071 
L 171.434182 250.974049 
L 172.498909 250.068312 
L 173.829818 248.591461 
L 175.693091 246.085631 
L 182.613818 236.077399 
L 184.477091 232.738511 
L 190.865455 220.779561 
L 193.793455 215.617041 
L 195.656727 211.803756 
L 198.850909 205.113182 
L 200.448 202.338807 
L 202.045091 200.051892 
L 203.908364 197.798974 
L 207.368727 194.057415 
L 211.095273 189.96459 
L 213.224727 187.3213 
L 215.354182 184.322143 
L 218.548364 179.687646 
L 219.613091 178.586797 
L 220.411636 178.106545 
L 220.944 177.997784 
L 221.476364 178.082467 
L 222.008727 178.37585 
L 222.541091 178.885816 
L 223.339636 180.053001 
L 224.138182 181.661024 
L 225.202909 184.327489 
L 228.397091 192.768582 
L 229.461818 194.795586 
L 230.260364 195.936981 
L 231.058909 196.774196 
L 231.857455 197.345758 
L 232.656 197.695207 
L 233.720727 197.883885 
L 234.785455 197.821972 
L 235.850182 197.556688 
L 237.181091 196.966631 
L 238.245818 196.271121 
L 239.310545 195.325645 
L 240.375273 194.054325 
L 241.44 192.373303 
L 242.504727 190.222606 
L 243.835636 186.880426 
L 245.698909 181.346758 
L 248.094545 174.225239 
L 249.425455 170.957533 
L 250.490182 168.896838 
L 251.554909 167.384979 
L 252.353455 166.620333 
L 253.152 166.171718 
L 253.950545 166.040133 
L 254.749091 166.234078 
L 255.547636 166.772634 
L 256.346182 167.684068 
L 257.144727 169.000034 
L 257.943273 170.745576 
L 259.008 173.751166 
L 260.072727 177.472676 
L 261.669818 184.001495 
L 263.799273 192.759032 
L 264.864 196.21394 
L 265.662545 198.064091 
L 266.194909 198.87556 
L 266.727273 199.326133 
L 267.259636 199.412229 
L 267.792 199.145444 
L 268.324364 198.551559 
L 269.122909 197.132318 
L 270.187636 194.507848 
L 272.050909 188.980605 
L 277.906909 170.735955 
L 281.367273 159.252947 
L 282.698182 155.596817 
L 284.029091 152.557299 
L 285.36 150.084339 
L 286.690909 148.083538 
L 288.021818 146.473347 
L 289.352727 145.216774 
L 290.417455 144.473564 
L 291.482182 143.983305 
L 292.546909 143.75876 
L 293.611636 143.793398 
L 294.676364 144.057831 
L 296.007273 144.642578 
L 297.870545 145.770428 
L 300.798545 147.873547 
L 303.460364 150.009128 
L 304.791273 151.30608 
L 306.122182 152.945872 
L 307.186909 154.616773 
L 308.251636 156.665117 
L 309.582545 159.728792 
L 314.107636 170.863308 
L 315.438545 173.3022 
L 317.035636 175.723368 
L 319.697455 179.669317 
L 321.028364 182.147035 
L 322.359273 185.162395 
L 324.222545 190.073843 
L 326.352 195.602929 
L 327.682909 198.461328 
L 329.013818 200.744241 
L 330.344727 202.557278 
L 334.603636 207.869772 
L 335.668364 209.807906 
L 336.999273 212.799434 
L 338.596364 217.050801 
L 342.855273 228.828763 
L 343.92 231.066372 
L 344.984727 232.757998 
L 345.783273 233.670038 
L 346.848 234.493708 
L 347.912727 235.007791 
L 349.243636 235.396321 
L 350.308364 235.522146 
L 351.106909 235.436858 
L 351.905455 235.099383 
L 352.437818 234.681464 
L 353.236364 233.687489 
L 354.034909 232.1803 
L 354.833455 230.11907 
L 355.898182 226.540548 
L 357.229091 220.990096 
L 359.358545 210.769815 
L 363.085091 192.787973 
L 364.948364 185.000105 
L 367.077818 177.24009 
L 370.804364 163.817948 
L 374.797091 149.276276 
L 376.394182 144.123456 
L 377.725091 140.527825 
L 378.789818 138.270229 
L 379.854545 136.594131 
L 380.919273 135.432643 
L 381.984 134.662519 
L 383.048727 134.159497 
L 384.379636 133.789235 
L 385.710545 133.672117 
L 387.041455 133.803912 
L 390.501818 134.353722 
L 391.832727 134.20437 
L 393.696 133.955422 
L 394.760727 134.089904 
L 395.559273 134.406461 
L 396.624 135.123371 
L 397.688727 136.127661 
L 399.285818 137.989153 
L 402.48 141.826253 
L 404.077091 143.314972 
L 405.408 144.284114 
L 406.738909 144.971109 
L 407.537455 145.182047 
L 408.336 145.175042 
L 409.134545 144.893404 
L 409.933091 144.294981 
L 410.731636 143.363919 
L 411.530182 142.116563 
L 412.594909 140.043957 
L 414.192 136.389302 
L 417.652364 127.785234 
L 419.249455 123.18742 
L 420.580364 118.670102 
L 422.709818 110.434488 
L 424.306909 104.608367 
L 425.371636 101.545481 
L 426.170182 99.828355 
L 426.436364 99.368959 
L 426.436364 99.368959 
" clip-path="url(#p94adaab69f)" style="fill: none; stroke: #0000ff; stroke-width: 3; stroke-linecap: square"/>
   </g>
   <g id="patch_3">
    <path d="M 7.2 331.2 
L 7.2 7.2 
" style="fill: none; stroke: #000000; stroke-width: 0.8; stroke-linejoin: miter; stroke-linecap: square"/>
   </g>
   <g id="patch_4">
    <path d="M 446.4 331.2 
L 446.4 7.2 
" style="fill: none; stroke: #000000; stroke-width: 0.8; stroke-linejoin: miter; stroke-linecap: square"/>
   </g>
   <g id="patch_5">
    <path d="M 7.2 331.2 
L 446.4 331.2 
" style="fill: none; stroke: #000000; stroke-width: 0.8; stroke-linejoin: miter; stroke-linecap: square"/>
   </g>
   <g id="patch_6">
    <path d="M 7.2 7.2 
L 446.4 7.2 
" style="fill: none; stroke: #000000; stroke-width: 0.8; stroke-linejoin: miter; stroke-linecap: square"/>
   </g>
  </g>
 </g>
 <defs>
  <clipPath id="p94adaab69f">
   <rect x="7.2" y="7.2" width="439.2" height="324"/>
  </clipPath>
 </defs>
</svg>
