<?xml version="1.0" encoding="utf-8" standalone="no"?>
<!DOCTYPE svg PUBLIC "-//W3C//DTD SVG 1.1//EN"
  "http://www.w3.org/Graphics/SVG/1.1/DTD/svg11.dtd">
<svg xmlns:xlink="http://www.w3.org/1999/xlink" width="453.6pt" height="338.4pt" viewBox="0 0 453.6 338.4" xmlns="http://www.w3.org/2000/svg" version="1.1">
 <metadata>
  <rdf:RDF xmlns:dc="http://purl.org/dc/elements/1.1/" xmlns:cc="http://creativecommons.org/ns#" xmlns:rdf="http://www.w3.org/1999/02/22-rdf-syntax-ns#">
   <cc:Work>
    <dc:type rdf:resource="http://purl.org/dc/dcmitype/StillImage"/>
    <dc:date>2025-05-14T16:19:45.174579</dc:date>
    <dc:format>image/svg+xml</dc:format>
    <dc:creator>
     <cc:Agent>
      <dc:title>Matplotlib v3.10.1, https://matplotlib.org/</dc:title>
     </cc:Agent>
    </dc:creator>
   </cc:Work>
  </rdf:RDF>
 </metadata>
 <defs>
  <style type="text/css">*{stroke-linejoin: round; stroke-linecap: butt}</style>
 </defs>
 <g id="figure_1">
  <g id="patch_1">
   <path d="M 0 338.4 
L 453.6 338.4 
L 453.6 0 
L 0 0 
z
" style="fill: #ffffff"/>
  </g>
  <g id="axes_1">
   <g id="patch_2">
    <path d="M 7.2 331.2 
L 446.4 331.2 
L 446.4 7.2 
L 7.2 7.2 
z
" style="fill: #ffffff"/>
   </g>
   <g id="matplotlib.axis_1"/>
   <g id="matplotlib.axis_2"/>
   <g id="line2d_1">
    <path d="M 27.163636 142.379697 
L 237.713455 207.551047 
L 426.436364 168.900332 
L 426.436364 168.900332 
" clip-path="url(#p8e8d53c4d8)" style="fill: none; stroke-dasharray: 11.1,4.8; stroke-dashoffset: 0; stroke: #000000; stroke-width: 3"/>
   </g>
   <g id="line2d_2">
    <path d="M 27.163636 137.827301 
L 27.962182 137.730794 
L 29.026909 137.327176 
L 30.091636 136.6399 
L 31.156364 135.702834 
L 32.487273 134.232882 
L 34.084364 132.121107 
L 36.213818 128.915314 
L 41.271273 121.15026 
L 42.868364 119.143016 
L 43.933091 118.079141 
L 44.465455 117.991008 
L 52.450909 117.822854 
L 61.234909 117.501662 
L 63.896727 117.008383 
L 66.292364 116.773796 
L 68.688 116.774358 
L 70.817455 117.001905 
L 72.946909 117.469358 
L 74.810182 118.095433 
L 76.673455 118.942418 
L 78.004364 119.569458 
L 80.4 119.761225 
L 83.061818 119.741105 
L 86.522182 119.470388 
L 94.507636 118.66926 
L 95.572364 119.916791 
L 96.903273 121.908761 
L 98.234182 124.343396 
L 99.831273 127.792256 
L 101.694545 132.451464 
L 103.824 138.467456 
L 106.485818 146.750455 
L 110.744727 160.469772 
L 111.010909 160.144507 
L 116.068364 146.032192 
L 118.464 140.043307 
L 120.327273 135.965897 
L 121.924364 132.9916 
L 123.255273 130.946926 
L 124.32 129.631803 
L 125.384727 128.630182 
L 126.449455 127.968556 
L 127.248 127.710637 
L 130.442182 128.264661 
L 132.039273 128.134955 
L 133.636364 127.783338 
L 135.765818 127.058211 
L 138.96 125.670036 
L 142.686545 124.097485 
L 143.485091 123.863512 
L 143.751273 123.984001 
L 144.816 125.101932 
L 146.146909 126.872149 
L 147.477818 129.045599 
L 148.808727 131.611466 
L 150.405818 135.195317 
L 152.002909 139.309192 
L 153.866182 144.75485 
L 155.729455 150.870088 
L 157.858909 158.6478 
L 159.988364 166.458026 
L 161.585455 169.679111 
L 163.448727 172.91935 
L 165.578182 176.128102 
L 168.24 179.689358 
L 173.031273 186.001138 
L 175.160727 189.236479 
L 176.225455 190.952877 
L 177.024 191.626116 
L 178.088727 192.256395 
L 179.153455 192.595003 
L 179.952 192.64086 
L 180.750545 192.495284 
L 181.549091 192.146493 
L 182.347636 191.582603 
L 183.146182 190.79171 
L 184.210909 189.363595 
L 185.275636 187.482177 
L 186.340364 185.118856 
L 187.405091 182.244472 
L 188.736 177.888303 
L 190.066909 172.630172 
L 191.397818 166.411168 
L 194.592 150.552828 
L 195.922909 145.55891 
L 197.253818 141.340804 
L 198.584727 137.804057 
L 199.915636 134.854146 
L 201.246545 132.394669 
L 202.843636 129.953171 
L 204.706909 127.589727 
L 209.232 122.472915 
L 209.498182 122.760662 
L 213.757091 132.113418 
L 218.548364 142.744463 
L 221.210182 149.154102 
L 223.605818 155.472308 
L 225.202909 159.830566 
L 226.001455 160.677639 
L 226.8 161.874082 
L 227.864727 163.94955 
L 229.195636 167.123022 
L 231.058909 172.274613 
L 235.850182 185.984837 
L 237.447273 189.699728 
L 238.512 191.706103 
L 239.576727 193.247237 
L 240.375273 194.05271 
L 240.907636 194.405266 
L 241.173818 194.300113 
L 241.706182 193.288143 
L 245.965091 184.459021 
L 247.562182 181.713904 
L 248.893091 179.906555 
L 249.957818 178.863905 
L 250.756364 178.358074 
L 251.554909 178.117781 
L 252.353455 178.168554 
L 253.152 178.535489 
L 253.950545 179.243411 
L 254.749091 180.318654 
L 255.547636 181.784656 
L 256.346182 183.663388 
L 257.410909 186.849922 
L 258.475636 190.1475 
L 260.072727 193.49004 
L 261.669818 196.249132 
L 263.266909 198.533353 
L 264.864 200.41277 
L 266.461091 201.955308 
L 268.324364 203.420213 
L 270.453818 204.788514 
L 275.777455 207.995256 
L 277.374545 209.307596 
L 278.971636 210.333594 
L 280.568727 211.105534 
L 282.165818 211.651772 
L 284.029091 212.041091 
L 285.892364 212.206094 
L 288.021818 212.178662 
L 290.683636 211.918601 
L 294.410182 211.318106 
L 297.338182 210.605505 
L 299.733818 209.800901 
L 301.863273 208.876739 
L 303.992727 207.720553 
L 306.122182 206.299152 
L 308.251636 204.578751 
L 309.848727 203.252568 
L 312.510545 202.932315 
L 314.906182 202.857868 
L 317.301818 202.987679 
L 319.697455 203.3231 
L 322.093091 203.865765 
L 324.488727 204.617595 
L 326.618182 205.291756 
L 328.747636 203.937623 
L 331.143273 202.70547 
L 334.337455 201.350881 
L 339.661091 199.135533 
L 342.056727 197.873614 
L 343.121455 197.259618 
L 344.186182 197.219941 
L 345.517091 197.051963 
L 347.114182 196.600723 
L 348.711273 195.900332 
L 350.574545 194.801055 
L 352.437818 193.435247 
L 354.567273 191.598413 
L 357.229091 188.974302 
L 359.890909 186.234241 
L 368.142545 184.486584 
L 370.272 183.668093 
L 372.135273 182.691121 
L 373.732364 181.613183 
L 375.329455 180.273991 
L 376.394182 179.21734 
L 376.926545 177.931263 
L 379.056 172.173831 
L 381.717818 165.649155 
L 385.710545 156.570506 
L 389.703273 147.32702 
L 392.098909 141.2266 
L 393.696 137.144555 
L 395.559273 133.496378 
L 397.156364 130.824225 
L 398.753455 128.545596 
L 400.350545 126.635122 
L 401.947636 125.067575 
L 403.544727 123.817269 
L 405.141818 122.858591 
L 406.738909 122.165733 
L 408.336 121.712833 
L 409.400727 121.531389 
L 409.666909 121.612482 
L 410.199273 122.426145 
L 412.062545 125.492243 
L 413.659636 127.717431 
L 414.990545 129.239403 
L 416.321455 130.418377 
L 417.386182 131.09022 
L 418.450909 131.499615 
L 419.515636 131.626407 
L 420.314182 131.523773 
L 421.112727 131.241749 
L 421.911273 130.771381 
L 422.976 129.835122 
L 424.040727 128.525003 
L 425.105455 126.817848 
L 426.170182 124.689676 
L 426.436364 124.0889 
L 426.436364 124.0889 
" clip-path="url(#p8e8d53c4d8)" style="fill: none; stroke: #ff0000; stroke-width: 3; stroke-linecap: square"/>
   </g>
   <g id="patch_3">
    <path d="M 7.2 331.2 
L 7.2 7.2 
" style="fill: none; stroke: #000000; stroke-width: 0.8; stroke-linejoin: miter; stroke-linecap: square"/>
   </g>
   <g id="patch_4">
    <path d="M 446.4 331.2 
L 446.4 7.2 
" style="fill: none; stroke: #000000; stroke-width: 0.8; stroke-linejoin: miter; stroke-linecap: square"/>
   </g>
   <g id="patch_5">
    <path d="M 7.2 331.2 
L 446.4 331.2 
" style="fill: none; stroke: #000000; stroke-width: 0.8; stroke-linejoin: miter; stroke-linecap: square"/>
   </g>
   <g id="patch_6">
    <path d="M 7.2 7.2 
L 446.4 7.2 
" style="fill: none; stroke: #000000; stroke-width: 0.8; stroke-linejoin: miter; stroke-linecap: square"/>
   </g>
  </g>
 </g>
 <defs>
  <clipPath id="p8e8d53c4d8">
   <rect x="7.2" y="7.2" width="439.2" height="324"/>
  </clipPath>
 </defs>
</svg>
