<?xml version="1.0" encoding="utf-8" standalone="no"?>
<!DOCTYPE svg PUBLIC "-//W3C//DTD SVG 1.1//EN"
  "http://www.w3.org/Graphics/SVG/1.1/DTD/svg11.dtd">
<svg xmlns:xlink="http://www.w3.org/1999/xlink" width="453.6pt" height="338.4pt" viewBox="0 0 453.6 338.4" xmlns="http://www.w3.org/2000/svg" version="1.1">
 <metadata>
  <rdf:RDF xmlns:dc="http://purl.org/dc/elements/1.1/" xmlns:cc="http://creativecommons.org/ns#" xmlns:rdf="http://www.w3.org/1999/02/22-rdf-syntax-ns#">
   <cc:Work>
    <dc:type rdf:resource="http://purl.org/dc/dcmitype/StillImage"/>
    <dc:date>2025-05-14T16:26:17.873357</dc:date>
    <dc:format>image/svg+xml</dc:format>
    <dc:creator>
     <cc:Agent>
      <dc:title>Matplotlib v3.10.1, https://matplotlib.org/</dc:title>
     </cc:Agent>
    </dc:creator>
   </cc:Work>
  </rdf:RDF>
 </metadata>
 <defs>
  <style type="text/css">*{stroke-linejoin: round; stroke-linecap: butt}</style>
 </defs>
 <g id="figure_1">
  <g id="patch_1">
   <path d="M 0 338.4 
L 453.6 338.4 
L 453.6 0 
L 0 0 
z
" style="fill: #ffffff"/>
  </g>
  <g id="axes_1">
   <g id="patch_2">
    <path d="M 7.2 331.2 
L 446.4 331.2 
L 446.4 7.2 
L 7.2 7.2 
z
" style="fill: #ffffff"/>
   </g>
   <g id="matplotlib.axis_1"/>
   <g id="matplotlib.axis_2"/>
   <g id="line2d_1">
    <path d="M 27.163636 81.434801 
L 32.487273 85.918358 
L 37.810909 90.123806 
L 43.400727 94.252235 
L 48.990545 98.098956 
L 54.580364 101.676609 
L 60.170182 104.998116 
L 66.026182 108.216884 
L 71.882182 111.183105 
L 78.004364 114.030101 
L 84.126545 116.633908 
L 90.514909 119.109782 
L 97.169455 121.447154 
L 104.090182 123.639354 
L 111.277091 125.683853 
L 118.996364 127.647154 
L 127.248 129.516493 
L 136.564364 131.39261 
L 147.211636 133.305401 
L 161.851636 135.688403 
L 188.736 140.028859 
L 199.649455 142.041071 
L 208.965818 143.981303 
L 217.217455 145.921166 
L 224.936727 147.962136 
L 232.123636 150.08915 
L 239.044364 152.370061 
L 245.698909 154.801342 
L 252.087273 157.37525 
L 258.209455 160.080286 
L 264.065455 162.901721 
L 269.921455 165.966854 
L 275.777455 169.290336 
L 281.367273 172.71726 
L 286.957091 176.405746 
L 292.546909 180.368496 
L 297.870545 184.409249 
L 303.194182 188.721422 
L 308.517818 193.316022 
L 313.841455 198.204067 
L 318.366545 202.597894 
L 318.898909 201.382631 
L 321.028364 196.000078 
L 323.157818 191.245242 
L 325.021091 187.579473 
L 326.884364 184.357168 
L 328.747636 181.561138 
L 330.610909 179.173984 
L 332.474182 177.178468 
L 334.071273 175.766601 
L 335.668364 174.618868 
L 337.265455 173.724323 
L 338.862545 173.072125 
L 340.459636 172.65131 
L 342.056727 172.45108 
L 343.653818 172.460438 
L 345.250909 172.668515 
L 347.114182 173.147959 
L 348.977455 173.865739 
L 351.106909 174.955773 
L 353.236364 176.308677 
L 355.632 178.112786 
L 358.293818 180.424553 
L 361.221818 183.282715 
L 364.682182 186.997035 
L 368.941091 191.912951 
L 382.250182 207.533025 
L 385.710545 211.114216 
L 388.638545 213.825493 
L 391.300364 215.976515 
L 393.696 217.613796 
L 395.825455 218.800793 
L 397.688727 219.611024 
L 399.552 220.189951 
L 401.415273 220.52029 
L 403.012364 220.592455 
L 404.609455 220.458369 
L 406.206545 220.107147 
L 407.803636 219.527878 
L 409.400727 218.70965 
L 410.997818 217.641605 
L 412.594909 216.312823 
L 414.192 214.712401 
L 415.789091 212.829456 
L 417.652364 210.261095 
L 419.515636 207.276019 
L 421.378909 203.85696 
L 423.242182 199.986653 
L 425.105455 195.647706 
L 426.436364 192.251989 
L 426.436364 192.251989 
" clip-path="url(#pef525d4631)" style="fill: none; stroke-dasharray: 11.1,4.8; stroke-dashoffset: 0; stroke: #000000; stroke-width: 3"/>
   </g>
   <g id="line2d_2">
    <path d="M 27.163636 248.476726 
L 28.760727 229.849046 
L 29.825455 220.154408 
L 30.624 214.714526 
L 31.422545 210.908439 
L 31.954909 209.292665 
L 32.487273 208.404089 
L 32.753455 208.216623 
L 33.019636 208.215218 
L 33.285818 208.391 
L 33.818182 209.238205 
L 34.350545 210.791435 
L 34.882909 213.010829 
L 35.681455 217.620774 
L 36.48 223.819957 
L 37.278545 231.670835 
L 38.077091 241.361101 
L 38.875636 253.10173 
L 39.141818 252.811077 
L 41.005091 192.444572 
L 41.803636 176.184396 
L 42.336 168.514656 
L 42.868364 163.355164 
L 43.400727 160.405464 
L 43.666909 159.698964 
L 43.933091 159.487692 
L 44.199273 159.851195 
L 44.465455 160.743176 
L 44.997818 163.6338 
L 46.062545 170.051436 
L 46.328727 171.002178 
L 46.594909 171.421326 
L 46.861091 171.172553 
L 47.127273 170.118264 
L 47.393455 168.11971 
L 47.925818 160.599601 
L 48.458182 147.56324 
L 48.990545 127.88239 
L 49.789091 93.150877 
L 50.853818 134.65425 
L 51.652364 157.635487 
L 52.450909 173.469397 
L 52.983273 179.921294 
L 53.515636 183.043256 
L 53.781818 183.354468 
L 54.048 182.827288 
L 54.314182 181.454773 
L 54.846545 176.091014 
L 55.378909 167.327605 
L 55.911273 155.129697 
L 56.709818 130.325469 
L 57.508364 97.788824 
L 58.839273 30.917877 
L 59.371636 56.454115 
L 60.170182 90.574494 
L 60.968727 115.138359 
L 61.501091 125.242892 
L 62.033455 131.185498 
L 62.565818 134.293978 
L 63.098182 135.591176 
L 63.364364 135.839492 
L 63.896727 135.952537 
L 64.429091 136.02292 
L 64.695273 136.195287 
L 64.961455 136.502821 
L 65.493818 137.747666 
L 66.026182 140.018342 
L 66.558545 143.505353 
L 67.090909 148.477729 
L 67.623273 154.971427 
L 68.421818 168.106349 
L 69.220364 185.597493 
L 70.285091 212.316707 
L 70.817455 220.915903 
L 71.349818 226.898126 
L 71.882182 230.53411 
L 72.148364 231.536275 
L 72.414545 232.018423 
L 72.680727 231.976489 
L 72.946909 231.402487 
L 73.213091 230.357888 
L 73.745455 226.914936 
L 74.277818 221.659482 
L 75.076364 210.788064 
L 75.874909 196.791568 
L 77.205818 171.128522 
L 78.004364 166.352934 
L 79.069091 158.484983 
L 80.932364 142.354837 
L 81.997091 133.791535 
L 82.795636 129.080079 
L 83.328 127.381123 
L 83.594182 127.111476 
L 83.860364 127.335354 
L 84.126545 128.116608 
L 84.392727 129.492582 
L 84.925091 134.295733 
L 85.457455 142.594463 
L 85.723636 143.833813 
L 86.256 134.121347 
L 86.788364 127.485144 
L 87.320727 123.953085 
L 87.586909 123.336455 
L 87.853091 123.460175 
L 88.119273 124.331932 
L 88.385455 125.863664 
L 88.917818 130.949015 
L 89.450182 138.322687 
L 90.248727 152.744466 
L 92.378182 195.23775 
L 92.910545 202.047654 
L 93.176727 204.133805 
L 93.442909 205.129325 
L 93.709091 204.866446 
L 93.975273 203.19271 
L 94.241455 200.066525 
L 94.773818 189.409838 
L 95.838545 161.28721 
L 96.637091 147.569859 
L 97.435636 138.633047 
L 98.234182 132.919743 
L 98.766545 130.343622 
L 99.565091 127.701016 
L 100.363636 125.996653 
L 101.162182 124.793363 
L 103.025455 122.57683 
L 104.356364 120.862162 
L 105.953455 118.373278 
L 107.550545 115.432953 
L 109.147636 112.044416 
L 110.212364 109.51324 
L 110.478545 108.094886 
L 111.277091 100.335924 
L 112.075636 90.247385 
L 112.341818 89.507528 
L 114.737455 130.627226 
L 116.068364 148.282117 
L 117.665455 166.438995 
L 121.658182 209.915912 
L 122.989091 227.739264 
L 124.053818 244.584104 
L 125.118545 264.48231 
L 125.917091 281.870975 
L 126.449455 267.090606 
L 126.981818 251.749418 
L 128.046545 240.829927 
L 129.111273 231.964779 
L 130.176 224.666907 
L 131.506909 217.228708 
L 132.837818 211.189058 
L 134.168727 206.050371 
L 136.032 199.840479 
L 138.427636 192.564192 
L 143.485091 177.661968 
L 144.549818 171.002363 
L 144.816 170.223434 
L 145.082182 169.795702 
L 145.348364 169.655164 
L 145.614545 169.791594 
L 145.880727 170.1374 
L 146.413091 171.368753 
L 147.211636 174.14764 
L 148.808727 181.139892 
L 150.672 189.118141 
L 150.938182 189.739194 
L 151.204364 189.115823 
L 152.002909 183.758639 
L 152.801455 179.897435 
L 153.6 177.227406 
L 154.398545 175.361349 
L 155.197091 174.113651 
L 155.995636 173.279043 
L 156.794182 172.753698 
L 157.858909 172.407699 
L 158.923636 172.340599 
L 159.988364 172.481303 
L 162.384 173.108835 
L 165.312 174.043663 
L 176.757818 177.767007 
L 177.290182 178.314043 
L 180.750545 182.83654 
L 182.88 185.492875 
L 184.210909 186.796551 
L 185.009455 187.321221 
L 185.808 187.537049 
L 186.340364 187.468026 
L 186.872727 187.184422 
L 187.405091 186.623482 
L 187.937455 185.724767 
L 188.469818 184.457967 
L 189.268364 181.662288 
L 190.066909 177.493094 
L 190.865455 171.602401 
L 191.664 163.547651 
L 192.462545 152.742377 
L 193.261091 138.475374 
L 193.793455 129.196232 
L 194.059636 125.516576 
L 195.656727 135.626429 
L 199.117091 158.608754 
L 202.843636 183.876556 
L 203.908364 189.434628 
L 204.440727 191.423333 
L 204.973091 192.613367 
L 205.239273 192.839817 
L 205.505455 192.785401 
L 205.771636 192.417711 
L 206.037818 191.660509 
L 206.570182 188.867156 
L 207.102545 183.961932 
L 207.634909 176.462031 
L 208.167273 165.760655 
L 208.699636 151.075338 
L 209.232 131.608868 
L 210.296727 82.217986 
L 212.16 73.368675 
L 213.224727 73.647082 
L 214.023273 74.070171 
L 214.821818 74.779725 
L 215.620364 75.804924 
L 216.418909 77.213833 
L 217.217455 79.055785 
L 218.282182 82.231399 
L 219.346909 86.273838 
L 220.411636 91.172109 
L 221.742545 98.410703 
L 223.339636 108.473539 
L 225.735273 125.23931 
L 226.8 132.839967 
L 228.130909 147.830306 
L 229.195636 157.642457 
L 230.260364 165.430615 
L 230.526545 167.067281 
L 230.792727 162.400805 
L 231.857455 135.787139 
L 232.922182 115.037972 
L 233.986909 99.086093 
L 235.051636 87.067592 
L 235.850182 80.310532 
L 236.648727 75.333468 
L 237.181091 72.96941 
L 237.713455 71.36273 
L 238.245818 70.524259 
L 238.512 70.41218 
L 238.778182 70.500857 
L 239.044364 70.794363 
L 239.576727 72.014559 
L 240.109091 74.118029 
L 240.641455 77.216976 
L 241.173818 81.315611 
L 241.972364 89.613937 
L 242.770909 100.753096 
L 243.569455 113.436804 
L 247.562182 142.168477 
L 248.626909 147.573335 
L 249.691636 151.956067 
L 250.490182 154.589368 
L 251.288727 156.609797 
L 252.087273 157.936191 
L 252.619636 158.379943 
L 253.152 158.485264 
L 253.684364 158.142653 
L 254.216727 157.381676 
L 254.749091 156.157933 
L 255.281455 154.440824 
L 256.08 150.929042 
L 256.878545 146.357932 
L 258.209455 137.029737 
L 259.540364 127.846926 
L 260.072727 125.314135 
L 260.605091 124.314621 
L 260.871273 124.139954 
L 261.137455 124.254649 
L 261.403636 124.64819 
L 261.669818 125.345649 
L 262.202182 127.839974 
L 262.734545 131.951865 
L 263.266909 138.049318 
L 263.533091 141.870301 
L 263.799273 142.939812 
L 264.331636 130.954949 
L 264.864 122.685153 
L 265.396364 117.963357 
L 265.662545 116.82973 
L 265.928727 116.443036 
L 266.194909 116.783768 
L 266.461091 117.816709 
L 266.993455 121.731478 
L 267.525818 127.792906 
L 268.324364 139.949662 
L 271.252364 189.62571 
L 271.784727 194.520848 
L 272.050909 195.929695 
L 272.317091 196.592111 
L 272.583273 196.299044 
L 272.849455 195.092568 
L 273.115636 192.850781 
L 273.648 184.850578 
L 274.180364 171.621204 
L 274.446545 163.372194 
L 274.712727 167.452343 
L 275.777455 200.049486 
L 276.576 218.924029 
L 276.842182 221.666785 
L 277.374545 222.070659 
L 277.906909 222.926896 
L 278.439273 224.209355 
L 279.237818 226.739145 
L 280.302545 230.997683 
L 284.029091 247.111809 
L 285.093818 250.416084 
L 285.892364 252.217982 
L 286.690909 253.411686 
L 287.223273 253.871041 
L 287.755636 254.052349 
L 288.288 253.997425 
L 288.820364 253.691392 
L 289.352727 253.194523 
L 290.151273 252.098972 
L 291.216 250.156243 
L 293.345455 245.690861 
L 294.410182 233.560452 
L 295.474909 221.231504 
L 295.741091 220.604297 
L 296.007273 220.296816 
L 296.273455 220.280954 
L 296.539636 220.448344 
L 297.072 221.21723 
L 299.201455 225.039004 
L 299.733818 225.520098 
L 300.266182 225.701472 
L 300.798545 225.593642 
L 301.330909 225.227251 
L 302.129455 224.173637 
L 302.928 222.628299 
L 303.992727 219.871542 
L 305.057455 216.444188 
L 306.122182 212.317857 
L 307.186909 207.340591 
L 308.251636 201.20325 
L 309.050182 195.561856 
L 309.848727 188.649002 
L 310.647273 179.150319 
L 311.978182 160.271773 
L 313.309091 137.721419 
L 314.64 110.897956 
L 315.704727 85.825222 
L 317.035636 48.671241 
L 317.301818 40.415683 
L 317.568 37.029393 
L 317.834182 36.617733 
L 318.898909 45.337708 
L 319.963636 55.955516 
L 321.028364 68.563873 
L 322.359273 87.213766 
L 323.690182 109.054758 
L 325.287273 138.916651 
L 327.682909 184.768011 
L 328.747636 199.928436 
L 329.812364 211.423549 
L 330.610909 217.885295 
L 331.409455 222.617431 
L 332.208 225.839728 
L 332.740364 227.176112 
L 333.272727 227.911922 
L 333.538909 228.042742 
L 333.805091 228.047518 
L 334.071273 227.908709 
L 334.603636 227.13036 
L 335.136 225.776806 
L 335.668364 223.795431 
L 336.200727 221.117502 
L 336.466909 218.624923 
L 337.531636 203.975404 
L 338.330182 195.342403 
L 339.128727 188.660089 
L 339.927273 184.073696 
L 340.459636 182.196491 
L 340.725818 181.663526 
L 340.992 181.398944 
L 341.258182 181.401244 
L 341.524364 181.679142 
L 341.790545 182.240522 
L 342.322909 184.241235 
L 342.855273 187.447793 
L 343.387636 191.041097 
L 343.92 192.777589 
L 344.452364 195.0575 
L 345.250909 199.613626 
L 346.049455 205.653345 
L 346.848 213.194424 
L 347.912727 225.393588 
L 349.776 250.207937 
L 351.106909 266.945552 
L 351.905455 274.77013 
L 352.437818 278.520094 
L 352.970182 280.745078 
L 353.236364 281.220473 
L 353.502545 281.248021 
L 353.768727 280.781863 
L 354.034909 279.756025 
L 354.301091 275.59467 
L 356.164364 199.653496 
L 356.962909 177.246779 
L 357.761455 160.489664 
L 358.56 148.678555 
L 359.092364 143.162022 
L 359.624727 139.235806 
L 359.890909 137.785921 
L 360.689455 135.643634 
L 361.221818 134.754777 
L 361.754182 134.358532 
L 362.020364 134.435306 
L 362.286545 134.653214 
L 362.818909 135.591334 
L 363.351273 137.395364 
L 363.883636 140.055878 
L 364.416 143.684479 
L 365.214545 151.166227 
L 366.013091 161.298078 
L 366.811636 174.324923 
L 367.876364 196.407525 
L 368.941091 224.107055 
L 370.005818 257.35925 
L 370.538182 274.37094 
L 371.869091 242.984688 
L 373.466182 198.713243 
L 376.394182 113.918443 
L 376.660364 109.327213 
L 379.322182 85.817778 
L 380.386909 78.388172 
L 381.185455 74.378371 
L 381.717818 72.672603 
L 381.984 72.1637 
L 382.250182 71.915752 
L 382.516364 71.930289 
L 382.782545 72.22225 
L 383.048727 73.250591 
L 386.242909 98.24369 
L 387.573818 106.053126 
L 388.638545 111.123203 
L 389.703273 115.193415 
L 390.768 118.335866 
L 391.566545 120.137895 
L 392.365091 121.518661 
L 393.163636 122.523951 
L 394.760727 123.152097 
L 396.624 123.598852 
L 398.221091 123.77524 
L 399.818182 123.740531 
L 400.350545 123.724783 
L 401.415273 129.950414 
L 402.48 137.593575 
L 403.544727 146.840817 
L 404.875636 160.785048 
L 406.206545 177.259446 
L 409.666909 222.834339 
L 410.199273 226.40957 
L 410.997818 229.928005 
L 411.530182 231.358052 
L 411.796364 231.736908 
L 412.062545 231.822012 
L 412.328727 231.629946 
L 412.594909 231.13981 
L 412.861091 230.293492 
L 413.393455 227.488526 
L 413.925818 222.987965 
L 415.256727 209.251469 
L 416.321455 201.303918 
L 417.386182 195.195404 
L 418.450909 190.477787 
L 419.781818 185.738505 
L 421.911273 178.434584 
L 422.976 174.001466 
L 424.040727 168.688796 
L 425.371636 160.749356 
L 426.436364 153.527301 
L 426.436364 153.527301 
" clip-path="url(#pef525d4631)" style="fill: none; stroke: #ffa500; stroke-width: 3; stroke-linecap: square"/>
   </g>
   <g id="patch_3">
    <path d="M 7.2 331.2 
L 7.2 7.2 
" style="fill: none; stroke: #000000; stroke-width: 0.8; stroke-linejoin: miter; stroke-linecap: square"/>
   </g>
   <g id="patch_4">
    <path d="M 446.4 331.2 
L 446.4 7.2 
" style="fill: none; stroke: #000000; stroke-width: 0.8; stroke-linejoin: miter; stroke-linecap: square"/>
   </g>
   <g id="patch_5">
    <path d="M 7.2 331.2 
L 446.4 331.2 
" style="fill: none; stroke: #000000; stroke-width: 0.8; stroke-linejoin: miter; stroke-linecap: square"/>
   </g>
   <g id="patch_6">
    <path d="M 7.2 7.2 
L 446.4 7.2 
" style="fill: none; stroke: #000000; stroke-width: 0.8; stroke-linejoin: miter; stroke-linecap: square"/>
   </g>
  </g>
 </g>
 <defs>
  <clipPath id="pef525d4631">
   <rect x="7.2" y="7.2" width="439.2" height="324"/>
  </clipPath>
 </defs>
</svg>
