<?xml version="1.0" encoding="utf-8" standalone="no"?>
<!DOCTYPE svg PUBLIC "-//W3C//DTD SVG 1.1//EN"
  "http://www.w3.org/Graphics/SVG/1.1/DTD/svg11.dtd">
<svg xmlns:xlink="http://www.w3.org/1999/xlink" width="453.6pt" height="338.4pt" viewBox="0 0 453.6 338.4" xmlns="http://www.w3.org/2000/svg" version="1.1">
 <metadata>
  <rdf:RDF xmlns:dc="http://purl.org/dc/elements/1.1/" xmlns:cc="http://creativecommons.org/ns#" xmlns:rdf="http://www.w3.org/1999/02/22-rdf-syntax-ns#">
   <cc:Work>
    <dc:type rdf:resource="http://purl.org/dc/dcmitype/StillImage"/>
    <dc:date>2025-05-14T16:22:19.816562</dc:date>
    <dc:format>image/svg+xml</dc:format>
    <dc:creator>
     <cc:Agent>
      <dc:title>Matplotlib v3.10.1, https://matplotlib.org/</dc:title>
     </cc:Agent>
    </dc:creator>
   </cc:Work>
  </rdf:RDF>
 </metadata>
 <defs>
  <style type="text/css">*{stroke-linejoin: round; stroke-linecap: butt}</style>
 </defs>
 <g id="figure_1">
  <g id="patch_1">
   <path d="M 0 338.4 
L 453.6 338.4 
L 453.6 0 
L 0 0 
z
" style="fill: #ffffff"/>
  </g>
  <g id="axes_1">
   <g id="patch_2">
    <path d="M 7.2 331.2 
L 446.4 331.2 
L 446.4 7.2 
L 7.2 7.2 
z
" style="fill: #ffffff"/>
   </g>
   <g id="matplotlib.axis_1"/>
   <g id="matplotlib.axis_2"/>
   <g id="line2d_1">
    <path d="M 27.163636 164.989197 
L 30.091636 171.161124 
L 33.019636 176.805581 
L 35.947636 181.944505 
L 38.609455 186.195986 
L 41.271273 190.064266 
L 43.933091 193.565795 
L 46.594909 196.717033 
L 49.256727 199.534499 
L 51.918545 202.034592 
L 54.580364 204.233867 
L 57.242182 206.148722 
L 59.904 207.795667 
L 62.565818 209.191128 
L 65.227636 210.351668 
L 68.155636 211.376489 
L 71.083636 212.158815 
L 74.011636 212.720615 
L 77.205818 213.107705 
L 80.666182 213.293301 
L 84.392727 213.261779 
L 88.651636 212.988603 
L 93.709091 212.425064 
L 101.694545 211.268948 
L 109.68 210.177115 
L 114.471273 209.737865 
L 118.464 209.581097 
L 121.924364 209.64508 
L 122.190545 209.102767 
L 124.852364 198.844318 
L 127.248 190.4422 
L 129.643636 182.797091 
L 132.039273 175.880216 
L 134.434909 169.66288 
L 136.564364 164.700396 
L 138.693818 160.247791 
L 140.823273 156.284812 
L 142.952727 152.791342 
L 145.082182 149.747188 
L 146.945455 147.436308 
L 148.808727 145.440458 
L 150.672 143.746172 
L 152.535273 142.339897 
L 154.398545 141.208131 
L 156.261818 140.337393 
L 158.125091 139.714092 
L 159.988364 139.324764 
L 161.851636 139.155908 
L 163.714909 139.193952 
L 165.844364 139.473501 
L 167.973818 139.985495 
L 170.369455 140.814239 
L 172.765091 141.882907 
L 175.426909 143.316833 
L 178.354909 145.148269 
L 181.815273 147.586327 
L 186.074182 150.872037 
L 200.448 162.222995 
L 203.908364 164.541179 
L 206.836364 166.241855 
L 209.498182 167.533558 
L 211.893818 168.455245 
L 212.692364 168.706563 
L 213.224727 168.264988 
L 218.548364 162.948385 
L 229.195636 152.235088 
L 233.188364 148.563632 
L 236.648727 145.683893 
L 239.576727 143.528404 
L 242.238545 141.835715 
L 244.634182 140.560603 
L 247.029818 139.548027 
L 249.159273 138.889807 
L 251.288727 138.478429 
L 253.152 138.335573 
L 255.015273 138.408379 
L 256.878545 138.709241 
L 258.741818 139.250624 
L 260.605091 140.044922 
L 262.468364 141.104532 
L 264.331636 142.441951 
L 266.194909 144.069559 
L 268.058182 145.999801 
L 269.921455 148.245108 
L 271.784727 150.81784 
L 273.914182 154.175075 
L 276.043636 157.994759 
L 278.173091 162.295485 
L 280.302545 167.09588 
L 282.432 172.414379 
L 284.827636 179.040065 
L 287.223273 186.371417 
L 289.618909 194.434884 
L 291.216 199.77028 
L 293.079273 194.617232 
L 294.676364 190.811277 
L 296.273455 187.535434 
L 297.870545 184.757767 
L 299.467636 182.446176 
L 301.064727 180.568787 
L 302.395636 179.312837 
L 303.726545 178.317624 
L 305.057455 177.564627 
L 306.388364 177.03534 
L 307.719273 176.71126 
L 309.316364 176.567176 
L 310.913455 176.659855 
L 312.776727 177.024613 
L 314.64 177.617383 
L 317.035636 178.632672 
L 320.229818 180.255284 
L 325.819636 183.115641 
L 328.215273 184.06964 
L 330.078545 184.596522 
L 331.941818 184.879573 
L 333.538909 184.889553 
L 335.136 184.65106 
L 336.466909 184.239409 
L 337.797818 183.614458 
L 339.128727 182.757686 
L 340.459636 181.650569 
L 341.790545 180.274587 
L 343.121455 178.611244 
L 344.718545 176.209826 
L 346.315636 173.335925 
L 347.912727 169.957527 
L 349.509818 166.042662 
L 351.106909 161.559368 
L 352.704 156.475474 
L 354.567273 149.742799 
L 356.430545 142.098357 
L 358.293818 133.491515 
L 360.157091 123.871272 
L 362.020364 113.186908 
L 364.149818 99.608129 
L 366.279273 84.497125 
L 368.408727 67.77837 
L 370.272 51.862621 
L 372.667636 69.851907 
L 374.797091 84.269332 
L 376.926545 97.313242 
L 379.056 109.086921 
L 381.185455 119.693089 
L 383.314909 129.234908 
L 385.444364 137.815275 
L 387.573818 145.537351 
L 389.703273 152.50384 
L 392.098909 159.566484 
L 394.494545 165.95 
L 397.156364 172.424632 
L 400.350545 179.609687 
L 409.933091 200.698876 
L 412.594909 207.327397 
L 414.990545 213.894735 
L 417.12 220.334071 
L 419.249455 227.446865 
L 421.378909 235.336252 
L 423.508364 244.105068 
L 425.637818 253.856478 
L 426.436364 257.7875 
L 426.436364 257.7875 
" clip-path="url(#p6fbdc3c578)" style="fill: none; stroke-dasharray: 11.1,4.8; stroke-dashoffset: 0; stroke: #000000; stroke-width: 3"/>
   </g>
   <g id="line2d_2">
    <path d="M 27.163636 92.259984 
L 28.760727 93.111463 
L 30.091636 94.056939 
L 31.422545 95.300573 
L 32.487273 96.563466 
L 33.552 98.109121 
L 34.616727 99.98148 
L 35.681455 102.229965 
L 36.746182 104.913442 
L 37.810909 108.107684 
L 38.875636 111.920609 
L 39.940364 116.497495 
L 41.005091 122.053618 
L 42.069818 128.887294 
L 43.134545 137.441537 
L 43.933091 144.318033 
L 46.062545 151.212541 
L 47.393455 156.233179 
L 48.724364 162.220309 
L 49.789091 168.005067 
L 50.853818 174.993765 
L 51.918545 183.548289 
L 52.983273 194.161892 
L 54.048 207.430848 
L 55.112727 224.158486 
L 55.378909 228.595186 
L 55.645091 226.241591 
L 56.709818 200.7135 
L 57.508364 187.279103 
L 58.040727 181.552158 
L 58.306909 179.716113 
L 58.573091 178.694136 
L 58.839273 178.393687 
L 59.105455 178.861553 
L 59.371636 180.161981 
L 59.904 185.110271 
L 60.436364 193.181181 
L 61.234909 196.969325 
L 62.033455 201.755676 
L 63.098182 209.793115 
L 64.162909 219.774947 
L 65.493818 234.724082 
L 67.623273 262.112721 
L 69.220364 281.765234 
L 70.285091 291.95913 
L 70.551273 293.930441 
L 71.083636 290.898059 
L 71.616 286.177159 
L 72.414545 276.301779 
L 73.479273 259.122479 
L 76.939636 196.566918 
L 77.472 192.438507 
L 78.536727 186.997044 
L 79.335273 183.855269 
L 80.133818 181.802036 
L 80.666182 181.204482 
L 80.932364 181.138488 
L 81.198545 181.23654 
L 81.464727 181.600552 
L 81.997091 182.921328 
L 82.529455 185.184938 
L 83.061818 188.567576 
L 83.594182 193.08341 
L 84.392727 202.489949 
L 85.191273 215.261808 
L 85.989818 232.021732 
L 86.788364 253.221446 
L 87.320727 268.998403 
L 87.586909 273.343274 
L 88.119273 274.575203 
L 88.385455 274.707248 
L 88.651636 274.54322 
L 88.917818 274.094714 
L 89.450182 272.385114 
L 89.982545 269.667341 
L 90.781091 263.921589 
L 91.845818 253.749363 
L 93.442909 235.264218 
L 93.709091 232.043019 
L 95.04 225.466174 
L 96.370909 219.934323 
L 97.968 214.294808 
L 99.831273 208.578651 
L 102.226909 202.154458 
L 103.291636 199.753488 
L 104.356364 198.002995 
L 104.888727 197.532619 
L 105.421091 197.447953 
L 105.687273 197.559936 
L 106.219636 198.266805 
L 106.752 199.729049 
L 107.284364 202.061603 
L 107.816727 205.698342 
L 108.349091 210.785466 
L 108.881455 217.746688 
L 109.413818 227.093808 
L 109.946182 239.381683 
L 110.212364 246.846314 
L 110.478545 251.187261 
L 110.744727 251.867506 
L 111.277091 254.257718 
L 111.809455 258.134478 
L 112.341818 263.479693 
L 113.140364 274.804137 
L 113.938909 290.649559 
L 114.737455 311.944563 
L 118.464 285.332884 
L 120.061091 276.09584 
L 122.722909 261.304189 
L 123.521455 255.542043 
L 124.32 248.305908 
L 125.118545 239.028995 
L 125.917091 227.043307 
L 126.715636 211.677167 
L 127.248 202.087524 
L 128.046545 190.354032 
L 128.312727 191.576827 
L 129.643636 216.120529 
L 130.708364 231.853262 
L 131.506909 240.67717 
L 132.039273 244.93832 
L 132.571636 247.813072 
L 133.104 249.280321 
L 133.370182 249.440741 
L 133.636364 249.243281 
L 133.902545 248.69804 
L 134.434909 246.4622 
L 134.967273 242.812224 
L 135.765818 234.714566 
L 136.564364 223.677233 
L 137.629091 205.031361 
L 138.96 176.879835 
L 142.686545 91.808682 
L 143.218909 89.358177 
L 144.017455 86.742028 
L 144.283636 86.176137 
L 144.549818 85.87538 
L 144.816 85.852891 
L 145.082182 86.03121 
L 145.614545 86.917381 
L 146.146909 88.531259 
L 146.945455 91.884912 
L 148.010182 97.680239 
L 149.607273 107.927838 
L 153.333818 132.295301 
L 154.930909 141.139837 
L 156.261818 147.360764 
L 157.326545 151.5298 
L 158.391273 154.937737 
L 159.456 157.489963 
L 160.786909 160.038836 
L 161.053091 159.724754 
L 161.319273 158.738741 
L 161.851636 155.079609 
L 162.384 149.278313 
L 163.182545 136.923118 
L 163.981091 120.919395 
L 165.312 88.504099 
L 167.175273 40.869004 
L 167.441455 39.216203 
L 167.973818 40.260608 
L 168.506182 41.654822 
L 169.304727 44.209752 
L 170.901818 50.582839 
L 172.232727 56.685331 
L 173.563636 63.504891 
L 174.894545 71.28011 
L 176.225455 80.425807 
L 178.354909 97.153269 
L 179.419636 109.075895 
L 180.484364 124.01009 
L 181.815273 146.480843 
L 185.541818 213.582436 
L 186.074182 219.67126 
L 186.606545 223.569903 
L 186.872727 224.533734 
L 187.138909 224.665915 
L 187.405091 223.950866 
L 187.671273 222.25938 
L 187.937455 219.506986 
L 188.469818 210.404144 
L 189.002182 195.941353 
L 190.066909 214.714824 
L 190.865455 225.589867 
L 191.664 233.932215 
L 192.462545 240.095004 
L 193.261091 244.562247 
L 194.059636 247.913262 
L 196.189091 255.850691 
L 196.987636 259.948765 
L 197.786182 265.167549 
L 198.850909 272.80668 
L 199.117091 272.083835 
L 199.383273 270.808626 
L 199.915636 266.612742 
L 200.448 260.634579 
L 201.246545 248.838714 
L 202.311273 229.121716 
L 203.642182 200.012969 
L 205.771636 147.774899 
L 208.433455 83.181457 
L 209.498182 62.208009 
L 210.030545 53.942952 
L 210.562909 48.669451 
L 211.095273 45.409443 
L 211.627636 43.749725 
L 211.893818 43.54451 
L 212.16 49.982994 
L 213.224727 86.352665 
L 214.289455 115.577178 
L 215.354182 138.894073 
L 216.418909 157.334432 
L 217.483636 171.839867 
L 218.548364 183.265369 
L 219.613091 192.38496 
L 220.944 201.596563 
L 222.807273 212.519631 
L 224.670545 223.676496 
L 226.001455 233.107877 
L 227.066182 242.405427 
L 228.130909 254.837966 
L 228.929455 266.198142 
L 229.195636 267.227137 
L 229.461818 261.441242 
L 230.526545 226.107558 
L 231.591273 198.318376 
L 232.389818 182.128759 
L 233.188364 169.644314 
L 233.986909 160.581799 
L 234.519273 156.289816 
L 235.051636 153.286745 
L 235.584 151.474972 
L 235.850182 150.984713 
L 236.116364 150.762679 
L 236.382545 150.791629 
L 236.648727 151.056009 
L 237.181091 152.240671 
L 237.713455 154.21642 
L 238.512 158.448431 
L 239.576727 165.961394 
L 240.907636 177.427152 
L 243.303273 200.123039 
L 244.101818 210.362246 
L 246.231273 238.685998 
L 246.497455 241.092648 
L 247.029818 242.924865 
L 247.562182 244.140488 
L 248.094545 244.767054 
L 248.360727 244.848142 
L 248.626909 244.787472 
L 249.159273 244.189518 
L 249.691636 242.992456 
L 250.224 241.202015 
L 251.022545 237.434025 
L 251.821091 232.422454 
L 252.885818 223.984284 
L 254.216727 211.060257 
L 256.08 190.063581 
L 257.144727 177.596483 
L 257.410909 177.951681 
L 257.943273 182.699127 
L 258.475636 186.095968 
L 259.008 188.461922 
L 259.806545 190.881642 
L 260.072727 191.579724 
L 261.137455 193.225932 
L 261.936 194.805778 
L 262.734545 196.87525 
L 263.533091 199.581603 
L 264.331636 203.048292 
L 265.130182 207.398843 
L 266.194909 214.713025 
L 267.259636 223.880746 
L 268.324364 235.067448 
L 269.389091 248.330719 
L 270.72 267.896224 
L 272.050909 290.813706 
L 273.115636 308.611077 
L 274.446545 296.719828 
L 276.576 275.31369 
L 277.108364 264.983923 
L 280.834909 181.086302 
L 281.633455 169.946546 
L 282.165818 165.363673 
L 282.432 164.042141 
L 282.698182 163.453269 
L 282.964364 163.5746 
L 283.230545 164.536315 
L 283.496727 166.247614 
L 284.029091 172.342126 
L 284.561455 182.060719 
L 285.093818 195.560583 
L 286.158545 227.381301 
L 287.489455 182.628726 
L 288.288 164.435806 
L 289.086545 152.023044 
L 289.618909 146.444765 
L 290.151273 142.716514 
L 290.683636 140.574876 
L 290.949818 140.001875 
L 291.216 139.719341 
L 291.482182 139.696097 
L 291.748364 139.901172 
L 292.280727 140.896314 
L 293.079273 143.44919 
L 293.877818 146.852299 
L 294.942545 152.32294 
L 297.338182 166.384289 
L 301.863273 194.556092 
L 303.726545 207.643718 
L 305.323636 220.659915 
L 306.654545 233.427007 
L 307.985455 248.572614 
L 309.316364 266.691846 
L 310.114909 278.779005 
L 310.913455 252.99443 
L 311.712 233.536198 
L 312.510545 219.999483 
L 313.042909 213.878022 
L 313.575273 209.801463 
L 314.107636 207.384692 
L 314.64 206.233316 
L 314.906182 205.996605 
L 315.438545 205.918208 
L 315.970909 205.958034 
L 316.237091 205.864924 
L 316.503273 205.611807 
L 316.769455 205.133626 
L 317.035636 204.364697 
L 317.568 201.701023 
L 318.100364 197.112725 
L 318.632727 190.109631 
L 319.165091 180.227747 
L 319.697455 167.041157 
L 320.496 140.237023 
L 321.560727 94.491755 
L 321.826909 100.812893 
L 322.891636 138.747496 
L 323.956364 169.586335 
L 325.021091 193.505015 
L 325.819636 207.162219 
L 326.618182 217.470826 
L 327.416727 223.713575 
L 328.215273 228.051538 
L 329.013818 230.794083 
L 329.546182 231.842079 
L 330.078545 232.416002 
L 330.610909 232.561526 
L 331.143273 232.293494 
L 331.675636 231.716762 
L 332.208 230.875974 
L 333.006545 229.225544 
L 334.337455 225.670907 
L 336.466909 218.839443 
L 340.992 202.565845 
L 342.589091 196.149272 
L 343.121455 193.852788 
L 343.387636 190.655614 
L 344.186182 173.082615 
L 345.250909 144.129935 
L 345.517091 135.881065 
L 345.783273 132.130412 
L 346.848 147.912259 
L 347.646545 156.846455 
L 348.445091 163.671318 
L 349.243636 168.755721 
L 350.042182 172.445524 
L 350.840727 175.079931 
L 351.639273 176.97399 
L 352.704 178.820217 
L 356.962909 185.33076 
L 358.56 187.898067 
L 359.624727 189.161364 
L 359.890909 189.381213 
L 360.423273 195.330772 
L 360.955636 203.551542 
L 361.488 214.469826 
L 362.286545 236.717343 
L 362.552727 245.873472 
L 362.818909 243.655873 
L 363.617455 225.203199 
L 364.416 211.556669 
L 365.214545 201.827788 
L 366.013091 195.210687 
L 366.811636 190.965684 
L 367.344 189.122732 
L 367.876364 187.871355 
L 368.408727 187.060001 
L 368.941091 186.555372 
L 369.739636 186.133538 
L 371.602909 185.363608 
L 372.401455 184.763368 
L 373.466182 183.605786 
L 374.797091 181.767617 
L 375.329455 180.911863 
L 375.861818 179.811014 
L 377.192727 177.89206 
L 377.725091 177.599318 
L 378.257455 177.71016 
L 378.789818 178.235689 
L 379.322182 179.119156 
L 379.854545 180.353626 
L 380.653091 182.803429 
L 381.451636 185.914743 
L 382.516364 190.929097 
L 384.113455 199.785423 
L 386.242909 211.56967 
L 387.041455 214.788253 
L 387.573818 216.120143 
L 387.84 216.471663 
L 388.106182 216.573261 
L 388.372364 216.34596 
L 388.638545 215.797406 
L 388.904727 214.891976 
L 389.437091 211.6969 
L 389.969455 206.377585 
L 390.501818 198.416665 
L 391.034182 187.217814 
L 391.832727 164.508225 
L 392.098909 165.499839 
L 393.163636 178.289078 
L 395.559273 185.58832 
L 397.954909 192.695408 
L 399.019636 195.229288 
L 399.818182 196.630718 
L 400.350545 197.223918 
L 400.882909 197.485945 
L 401.415273 197.358048 
L 401.947636 196.763346 
L 402.48 195.617088 
L 403.012364 193.82626 
L 403.544727 191.289931 
L 404.077091 187.898471 
L 404.875636 180.947493 
L 405.674182 171.303347 
L 406.472727 158.453294 
L 407.271273 141.708678 
L 408.069818 120.383332 
L 408.868364 96.38692 
L 410.731636 181.116148 
L 411.530182 208.22239 
L 412.328727 226.761696 
L 412.861091 234.478856 
L 413.393455 238.571935 
L 413.659636 239.28673 
L 413.925818 239.128952 
L 414.192 238.106088 
L 414.458182 236.224801 
L 414.990545 229.971545 
L 415.522909 220.483369 
L 416.321455 200.433793 
L 417.12 173.755292 
L 417.652364 153.521841 
L 417.918545 159.498015 
L 418.717091 184.140041 
L 419.249455 194.586061 
L 419.781818 200.772594 
L 420.048 202.404635 
L 420.314182 203.135011 
L 420.580364 203.017814 
L 420.846545 202.106924 
L 421.378909 198.118568 
L 421.911273 191.574475 
L 422.709818 177.923258 
L 423.774545 154.734119 
L 426.436364 90.826426 
L 426.436364 90.826426 
" clip-path="url(#p6fbdc3c578)" style="fill: none; stroke: #ff0000; stroke-width: 3; stroke-linecap: square"/>
   </g>
   <g id="patch_3">
    <path d="M 7.2 331.2 
L 7.2 7.2 
" style="fill: none; stroke: #000000; stroke-width: 0.8; stroke-linejoin: miter; stroke-linecap: square"/>
   </g>
   <g id="patch_4">
    <path d="M 446.4 331.2 
L 446.4 7.2 
" style="fill: none; stroke: #000000; stroke-width: 0.8; stroke-linejoin: miter; stroke-linecap: square"/>
   </g>
   <g id="patch_5">
    <path d="M 7.2 331.2 
L 446.4 331.2 
" style="fill: none; stroke: #000000; stroke-width: 0.8; stroke-linejoin: miter; stroke-linecap: square"/>
   </g>
   <g id="patch_6">
    <path d="M 7.2 7.2 
L 446.4 7.2 
" style="fill: none; stroke: #000000; stroke-width: 0.8; stroke-linejoin: miter; stroke-linecap: square"/>
   </g>
  </g>
 </g>
 <defs>
  <clipPath id="p6fbdc3c578">
   <rect x="7.2" y="7.2" width="439.2" height="324"/>
  </clipPath>
 </defs>
</svg>
