<?xml version="1.0" encoding="utf-8" standalone="no"?>
<!DOCTYPE svg PUBLIC "-//W3C//DTD SVG 1.1//EN"
  "http://www.w3.org/Graphics/SVG/1.1/DTD/svg11.dtd">
<svg xmlns:xlink="http://www.w3.org/1999/xlink" width="453.6pt" height="338.4pt" viewBox="0 0 453.6 338.4" xmlns="http://www.w3.org/2000/svg" version="1.1">
 <metadata>
  <rdf:RDF xmlns:dc="http://purl.org/dc/elements/1.1/" xmlns:cc="http://creativecommons.org/ns#" xmlns:rdf="http://www.w3.org/1999/02/22-rdf-syntax-ns#">
   <cc:Work>
    <dc:type rdf:resource="http://purl.org/dc/dcmitype/StillImage"/>
    <dc:date>2025-05-14T16:19:42.627148</dc:date>
    <dc:format>image/svg+xml</dc:format>
    <dc:creator>
     <cc:Agent>
      <dc:title>Matplotlib v3.10.1, https://matplotlib.org/</dc:title>
     </cc:Agent>
    </dc:creator>
   </cc:Work>
  </rdf:RDF>
 </metadata>
 <defs>
  <style type="text/css">*{stroke-linejoin: round; stroke-linecap: butt}</style>
 </defs>
 <g id="figure_1">
  <g id="patch_1">
   <path d="M 0 338.4 
L 453.6 338.4 
L 453.6 0 
L 0 0 
z
" style="fill: #ffffff"/>
  </g>
  <g id="axes_1">
   <g id="patch_2">
    <path d="M 7.2 331.2 
L 446.4 331.2 
L 446.4 7.2 
L 7.2 7.2 
z
" style="fill: #ffffff"/>
   </g>
   <g id="matplotlib.axis_1"/>
   <g id="matplotlib.axis_2"/>
   <g id="line2d_1">
    <path d="M 27.163636 114.285949 
L 33.552 124.69798 
L 39.674182 134.26048 
L 45.796364 143.416061 
L 51.918545 152.16474 
L 57.774545 160.15232 
L 63.630545 167.767654 
L 69.486545 175.010671 
L 75.076364 181.577202 
L 80.666182 187.804536 
L 86.256 193.692639 
L 91.579636 198.985023 
L 96.903273 203.969733 
L 102.226909 208.646795 
L 107.284364 212.805 
L 112.341818 216.685543 
L 117.399273 220.288424 
L 122.456727 223.613645 
L 127.248 226.507718 
L 132.039273 229.15258 
L 136.830545 231.548213 
L 141.621818 233.694652 
L 146.413091 235.591889 
L 151.204364 237.239905 
L 155.729455 238.567555 
L 160.254545 239.672898 
L 164.779636 240.555961 
L 169.304727 241.216727 
L 173.829818 241.655212 
L 178.354909 241.871409 
L 182.88 241.865308 
L 187.405091 241.636928 
L 191.930182 241.186258 
L 196.455273 240.513299 
L 200.980364 239.618043 
L 205.505455 238.500507 
L 210.030545 237.160674 
L 214.555636 235.59856 
L 219.346909 233.702272 
L 224.138182 231.556763 
L 228.929455 229.16206 
L 233.720727 226.518138 
L 238.512 223.624995 
L 243.303273 220.482667 
L 248.360727 216.895393 
L 253.418182 213.030449 
L 255.547636 211.470442 
L 263.266909 206.851886 
L 270.986182 201.97261 
L 278.705455 196.832562 
L 286.424727 191.431742 
L 294.410182 185.570333 
L 302.395636 179.429876 
L 310.381091 173.010397 
L 318.632727 166.083726 
L 326.884364 158.85916 
L 335.136 151.336593 
L 343.387636 143.516132 
L 351.905455 135.13085 
L 360.423273 126.428063 
L 368.941091 117.407788 
L 377.458909 108.070061 
L 386.242909 98.107962 
L 395.026909 87.808274 
L 403.810909 77.170908 
L 412.861091 65.858047 
L 421.911273 54.186809 
L 426.436364 48.21678 
L 426.436364 48.21678 
" clip-path="url(#p6dbc9749f0)" style="fill: none; stroke-dasharray: 11.1,4.8; stroke-dashoffset: 0; stroke: #000000; stroke-width: 3"/>
   </g>
   <g id="line2d_2">
    <path d="M 27.163636 120.165125 
L 29.293091 124.893487 
L 31.422545 129.106712 
L 33.818182 133.369008 
L 36.746182 138.106113 
L 45.530182 151.910648 
L 47.659636 155.779139 
L 50.055273 159.637271 
L 52.450909 163.066592 
L 55.112727 166.488538 
L 58.306909 170.228315 
L 66.026182 179.076968 
L 68.421818 182.359553 
L 71.349818 186.780742 
L 75.608727 193.683931 
L 81.198545 202.746043 
L 81.730909 203.148363 
L 85.989818 205.590098 
L 93.176727 209.678077 
L 96.637091 211.948956 
L 98.234182 213.124778 
L 98.766545 213.923361 
L 101.694545 218.964014 
L 104.356364 223.105355 
L 106.752 226.437984 
L 108.881455 229.058821 
L 111.010909 231.336054 
L 112.874182 233.029164 
L 114.737455 234.422649 
L 115.802182 235.040367 
L 119.794909 236.029602 
L 126.449455 237.787003 
L 130.708364 239.139249 
L 134.701091 240.438685 
L 137.895273 241.158975 
L 141.089455 241.648471 
L 144.283636 241.905618 
L 147.477818 241.926992 
L 154.132364 241.797857 
L 156.528 242.082717 
L 158.923636 242.575275 
L 161.319273 243.284347 
L 163.714909 244.216542 
L 168.772364 246.355493 
L 170.901818 246.871033 
L 172.765091 247.108359 
L 174.628364 247.140267 
L 176.491636 246.960706 
L 178.354909 246.561542 
L 180.218182 245.937289 
L 181.815273 245.219119 
L 182.613818 244.546336 
L 184.477091 243.046468 
L 186.340364 241.84712 
L 188.203636 240.933421 
L 190.066909 240.291836 
L 191.930182 239.906634 
L 193.793455 239.762769 
L 195.656727 239.846407 
L 197.52 240.142072 
L 198.052364 240.331487 
L 204.440727 244.618984 
L 207.368727 246.323058 
L 209.764364 247.492271 
L 211.893818 248.31261 
L 213.757091 248.823511 
L 215.088 248.875508 
L 217.483636 248.772229 
L 219.613091 248.455869 
L 221.476364 247.96733 
L 223.339636 247.248581 
L 225.202909 246.266439 
L 226.8 245.190801 
L 228.397091 243.884719 
L 232.123636 240.631725 
L 234.519273 238.96042 
L 236.914909 237.568111 
L 239.310545 236.427884 
L 241.972364 235.424376 
L 244.634182 234.665883 
L 247.029818 234.201116 
L 250.490182 233.481896 
L 253.950545 232.528345 
L 257.144727 231.423379 
L 260.338909 230.089418 
L 262.468364 229.031959 
L 269.655273 224.335524 
L 273.115636 221.797044 
L 276.043636 219.387225 
L 278.705455 216.910219 
L 281.899636 213.919516 
L 286.158545 210.242784 
L 296.539636 201.468429 
L 299.733818 198.126179 
L 302.928 194.46092 
L 305.856 190.778341 
L 308.784 186.750756 
L 311.445818 182.757879 
L 313.309091 178.656741 
L 315.970909 173.190612 
L 318.366545 168.814569 
L 320.496 165.408985 
L 322.359273 162.839642 
L 323.956364 160.966668 
L 325.553455 159.418836 
L 327.150545 158.212404 
L 328.747636 157.340717 
L 331.409455 155.84494 
L 333.805091 154.243702 
L 336.200727 152.371782 
L 338.596364 150.201176 
L 340.992 147.703287 
L 343.387636 144.851463 
L 347.646545 139.60735 
L 356.164364 129.365369 
L 359.358545 125.08866 
L 361.754182 121.858182 
L 368.674909 114.296746 
L 372.933818 109.967491 
L 376.394182 106.75327 
L 378.523636 104.740548 
L 381.185455 101.727751 
L 384.113455 98.036807 
L 387.307636 93.622667 
L 391.034182 88.053553 
L 397.422545 78.346125 
L 403.544727 69.511139 
L 407.005091 64.893487 
L 409.933091 61.354282 
L 411.264 59.690228 
L 417.652364 51.500225 
L 422.976 45.038145 
L 426.436364 41.06839 
L 426.436364 41.06839 
" clip-path="url(#p6dbc9749f0)" style="fill: none; stroke: #0000ff; stroke-width: 3; stroke-linecap: square"/>
   </g>
   <g id="patch_3">
    <path d="M 7.2 331.2 
L 7.2 7.2 
" style="fill: none; stroke: #000000; stroke-width: 0.8; stroke-linejoin: miter; stroke-linecap: square"/>
   </g>
   <g id="patch_4">
    <path d="M 446.4 331.2 
L 446.4 7.2 
" style="fill: none; stroke: #000000; stroke-width: 0.8; stroke-linejoin: miter; stroke-linecap: square"/>
   </g>
   <g id="patch_5">
    <path d="M 7.2 331.2 
L 446.4 331.2 
" style="fill: none; stroke: #000000; stroke-width: 0.8; stroke-linejoin: miter; stroke-linecap: square"/>
   </g>
   <g id="patch_6">
    <path d="M 7.2 7.2 
L 446.4 7.2 
" style="fill: none; stroke: #000000; stroke-width: 0.8; stroke-linejoin: miter; stroke-linecap: square"/>
   </g>
  </g>
 </g>
 <defs>
  <clipPath id="p6dbc9749f0">
   <rect x="7.2" y="7.2" width="439.2" height="324"/>
  </clipPath>
 </defs>
</svg>
