<?xml version="1.0" encoding="utf-8" standalone="no"?>
<!DOCTYPE svg PUBLIC "-//W3C//DTD SVG 1.1//EN"
  "http://www.w3.org/Graphics/SVG/1.1/DTD/svg11.dtd">
<svg xmlns:xlink="http://www.w3.org/1999/xlink" width="453.6pt" height="338.4pt" viewBox="0 0 453.6 338.4" xmlns="http://www.w3.org/2000/svg" version="1.1">
 <metadata>
  <rdf:RDF xmlns:dc="http://purl.org/dc/elements/1.1/" xmlns:cc="http://creativecommons.org/ns#" xmlns:rdf="http://www.w3.org/1999/02/22-rdf-syntax-ns#">
   <cc:Work>
    <dc:type rdf:resource="http://purl.org/dc/dcmitype/StillImage"/>
    <dc:date>2025-05-14T16:26:17.908533</dc:date>
    <dc:format>image/svg+xml</dc:format>
    <dc:creator>
     <cc:Agent>
      <dc:title>Matplotlib v3.10.1, https://matplotlib.org/</dc:title>
     </cc:Agent>
    </dc:creator>
   </cc:Work>
  </rdf:RDF>
 </metadata>
 <defs>
  <style type="text/css">*{stroke-linejoin: round; stroke-linecap: butt}</style>
 </defs>
 <g id="figure_1">
  <g id="patch_1">
   <path d="M 0 338.4 
L 453.6 338.4 
L 453.6 0 
L 0 0 
z
" style="fill: #ffffff"/>
  </g>
  <g id="axes_1">
   <g id="patch_2">
    <path d="M 7.2 331.2 
L 446.4 331.2 
L 446.4 7.2 
L 7.2 7.2 
z
" style="fill: #ffffff"/>
   </g>
   <g id="matplotlib.axis_1"/>
   <g id="matplotlib.axis_2"/>
   <g id="line2d_1">
    <path d="M 27.163636 118.477194 
L 30.091636 129.796604 
L 33.019636 140.191623 
L 35.681455 148.839529 
L 38.343273 156.723456 
L 40.738909 163.165837 
L 43.134545 168.989395 
L 45.530182 174.194164 
L 47.659636 178.301139 
L 49.789091 181.919172 
L 51.652364 184.683908 
L 53.515636 187.0743 
L 55.378909 189.090349 
L 56.976 190.520448 
L 58.573091 191.675529 
L 60.170182 192.555598 
L 61.767273 193.160632 
L 63.364364 193.490646 
L 64.695273 193.555578 
L 66.026182 193.429523 
L 67.357091 193.112475 
L 68.954182 192.479922 
L 70.551273 191.572341 
L 72.148364 190.389742 
L 73.745455 188.932114 
L 75.342545 187.199485 
L 77.205818 184.830459 
L 79.069091 182.087115 
L 80.932364 178.969436 
L 83.061818 174.948004 
L 85.191273 170.43763 
L 87.320727 165.438339 
L 89.450182 159.948983 
L 91.845818 153.22909 
L 93.975273 147.889875 
L 96.104727 143.147398 
L 97.968 139.487247 
L 99.831273 136.283982 
L 101.694545 133.53753 
L 103.291636 131.547105 
L 104.888727 129.892338 
L 106.485818 128.57323 
L 107.816727 127.73037 
L 109.147636 127.120658 
L 110.478545 126.744006 
L 111.809455 126.600448 
L 113.140364 126.689985 
L 114.471273 127.012635 
L 115.802182 127.568414 
L 117.133091 128.357235 
L 118.464 129.379168 
L 120.061091 130.9132 
L 121.658182 132.782891 
L 123.255273 134.988223 
L 125.118545 137.985378 
L 126.981818 141.4394 
L 128.845091 145.350289 
L 130.974545 150.37932 
L 133.104 156.005088 
L 135.233455 162.227577 
L 137.629091 169.941191 
L 140.024727 178.409988 
L 142.686545 188.70563 
L 145.348364 199.933615 
L 148.010182 212.09397 
L 150.938182 226.547316 
L 153.866182 242.128863 
L 154.398545 244.548408 
L 158.125091 230.415069 
L 162.117818 214.356702 
L 166.110545 197.351201 
L 170.103273 179.398547 
L 174.362182 159.205211 
L 178.621091 137.934202 
L 183.146182 114.152995 
L 187.671273 89.155244 
L 192.196364 62.941071 
L 196.987636 33.858887 
L 198.052364 27.210922 
L 198.318545 26.790432 
L 201.778909 34.268159 
L 205.505455 42.877389 
L 209.232 52.063377 
L 212.958545 61.826265 
L 216.951273 72.926502 
L 220.944 84.68891 
L 225.202909 97.96537 
L 229.461818 111.995258 
L 233.720727 126.778451 
L 238.245818 143.311163 
L 242.770909 160.694317 
L 247.562182 180.027219 
L 252.353455 200.313436 
L 257.144727 221.553196 
L 262.202182 245.007505 
L 266.194909 264.274457 
L 266.461091 264.393282 
L 269.122909 254.26004 
L 271.784727 243.288684 
L 274.712727 230.252147 
L 277.640727 216.201472 
L 280.834909 199.716953 
L 284.029091 182.025405 
L 287.223273 163.126985 
L 290.683636 141.291857 
L 294.144 118.040166 
L 297.870545 91.415948 
L 301.330909 66.329801 
L 305.057455 91.099093 
L 308.517818 112.68673 
L 311.978182 132.914107 
L 315.438545 151.781083 
L 318.632727 167.989565 
L 321.826909 183.039008 
L 324.754909 195.816036 
L 327.682909 207.619244 
L 330.344727 217.504403 
L 333.006545 226.584588 
L 335.668364 234.859897 
L 338.064 241.619485 
L 340.459636 247.72713 
L 342.589091 252.608872 
L 344.718545 256.975443 
L 346.848 260.82693 
L 348.711273 263.774375 
L 350.574545 266.32747 
L 352.437818 268.486172 
L 354.034909 270.022584 
L 355.632 271.269215 
L 357.229091 272.226112 
L 358.826182 272.89325 
L 360.157091 273.227851 
L 361.488 273.361239 
L 362.552727 273.27969 
L 365.746909 272.888233 
L 368.941091 272.723845 
L 372.135273 272.786534 
L 375.329455 273.076296 
L 378.523636 273.593149 
L 381.717818 274.337069 
L 384.912 275.308076 
L 388.106182 276.506152 
L 391.300364 277.931318 
L 394.760727 279.731501 
L 398.221091 281.798171 
L 401.681455 284.131361 
L 405.141818 286.731031 
L 408.602182 289.597229 
L 412.328727 292.981917 
L 416.055273 296.67569 
L 419.781818 300.678565 
L 423.774545 305.310326 
L 426.436364 308.595278 
L 426.436364 308.595278 
" clip-path="url(#pdccf53d481)" style="fill: none; stroke-dasharray: 11.1,4.8; stroke-dashoffset: 0; stroke: #000000; stroke-width: 3"/>
   </g>
   <g id="line2d_2">
    <path d="M 27.163636 266.08989 
L 27.962182 210.315713 
L 28.760727 173.186188 
L 29.293091 156.602722 
L 29.825455 145.116808 
L 30.357818 137.82781 
L 30.890182 133.821345 
L 31.156364 132.795514 
L 31.422545 132.31672 
L 31.688727 132.306045 
L 31.954909 132.65222 
L 32.487273 134.216993 
L 34.350545 141.521335 
L 34.616727 141.973971 
L 34.882909 142.128484 
L 35.149091 141.885944 
L 35.415273 141.228163 
L 35.681455 140.060688 
L 36.213818 136.023956 
L 36.746182 129.278536 
L 37.012364 124.708812 
L 37.278545 124.749437 
L 38.077091 156.76847 
L 38.609455 171.916342 
L 39.141818 182.202161 
L 39.674182 187.991572 
L 39.940364 189.345284 
L 40.206545 189.743355 
L 40.472727 189.283969 
L 40.738909 187.963166 
L 41.271273 183.101806 
L 41.803636 175.738537 
L 42.602182 161.429135 
L 43.933091 136.851857 
L 44.731636 130.788288 
L 45.530182 126.299534 
L 46.062545 124.226752 
L 46.594909 122.924796 
L 46.861091 122.597951 
L 47.127273 122.461732 
L 47.393455 122.512259 
L 47.659636 122.744528 
L 48.192 123.88939 
L 48.724364 125.755658 
L 49.522909 130.079628 
L 50.321455 136.066214 
L 50.853818 140.230703 
L 51.918545 146.166235 
L 52.983273 150.641505 
L 53.781818 153.24231 
L 54.846545 155.787706 
L 55.645091 157.124722 
L 56.443636 158.043056 
L 57.242182 158.579523 
L 58.040727 158.811442 
L 58.839273 158.717726 
L 59.637818 158.381927 
L 60.436364 157.824814 
L 61.234909 156.57184 
L 62.033455 154.856978 
L 63.098182 151.921533 
L 64.429091 147.286149 
L 66.026182 140.593626 
L 67.889455 131.716664 
L 73.479273 104.030362 
L 75.076364 97.437927 
L 76.407273 92.846838 
L 76.939636 91.289403 
L 77.205818 87.811469 
L 79.601455 33.09633 
L 80.4 43.763946 
L 81.198545 51.60637 
L 81.997091 57.128241 
L 82.795636 60.859265 
L 83.594182 63.23779 
L 84.126545 64.261672 
L 84.658909 64.943172 
L 85.191273 65.357903 
L 85.989818 65.620703 
L 86.788364 65.598442 
L 88.119273 65.266681 
L 90.781091 64.537657 
L 92.644364 64.294256 
L 93.975273 64.121836 
L 94.507636 63.998609 
L 95.04 64.055035 
L 95.572364 64.307178 
L 96.104727 64.759234 
L 96.903273 65.79344 
L 97.701818 67.190217 
L 98.766545 69.508313 
L 99.565091 71.478478 
L 101.428364 65.473406 
L 102.226909 63.659685 
L 103.291636 61.836904 
L 104.356364 60.515654 
L 105.421091 59.563893 
L 106.485818 58.874721 
L 108.082909 58.179282 
L 110.212364 57.62719 
L 111.010909 55.885642 
L 111.277091 55.890874 
L 111.543273 56.313313 
L 111.809455 57.125958 
L 112.341818 59.966423 
L 112.874182 64.408881 
L 113.672727 74.119188 
L 114.471273 87.402039 
L 115.269818 104.156117 
L 116.334545 131.785941 
L 117.399273 165.11332 
L 118.730182 214.128883 
L 119.262545 235.838388 
L 119.528727 240.211507 
L 121.924364 213.616732 
L 124.32 187.637128 
L 125.917091 172.302387 
L 126.981818 163.269051 
L 128.312727 143.925913 
L 129.111273 134.698264 
L 129.909818 127.720785 
L 130.442182 124.505826 
L 130.974545 122.554622 
L 131.240727 122.081901 
L 131.506909 121.955988 
L 131.773091 122.219314 
L 132.039273 121.820524 
L 132.837818 107.589879 
L 133.636364 98.083225 
L 134.168727 94.223636 
L 134.701091 92.217691 
L 134.967273 91.889248 
L 135.233455 91.9804 
L 135.499636 92.524873 
L 135.765818 93.460166 
L 136.298182 96.550791 
L 136.830545 101.167512 
L 137.629091 110.808454 
L 138.427636 123.479943 
L 139.492364 144.685011 
L 140.557091 170.324848 
L 141.888 207.822721 
L 142.154182 215.968465 
L 142.420364 215.24886 
L 143.485091 188.983853 
L 144.017455 182.209316 
L 145.880727 165.664657 
L 147.477818 153.242117 
L 148.808727 144.30541 
L 150.139636 136.915832 
L 151.204364 132.38252 
L 152.002909 129.919129 
L 152.535273 128.790576 
L 153.067636 128.119523 
L 153.333818 127.968855 
L 153.6 127.948858 
L 153.866182 128.065327 
L 154.398545 128.731693 
L 154.930909 130.050046 
L 155.463273 132.050127 
L 155.995636 134.79075 
L 156.794182 140.500051 
L 157.592727 148.323409 
L 158.391273 158.552311 
L 159.189818 148.152201 
L 159.722182 144.275511 
L 159.988364 143.452771 
L 160.254545 143.341061 
L 161.053091 143.514499 
L 161.851636 144.12005 
L 162.384 144.90759 
L 162.916364 146.145904 
L 163.448727 147.92037 
L 163.981091 150.29505 
L 164.779636 155.184315 
L 165.578182 161.800345 
L 166.376727 170.123162 
L 167.441455 183.678662 
L 168.772364 203.667247 
L 172.498909 261.802414 
L 173.563636 274.851942 
L 174.628364 285.225773 
L 175.426909 291.202369 
L 176.225455 295.678359 
L 176.757818 297.915413 
L 177.290182 302.573514 
L 177.822545 306.988874 
L 178.088727 302.888265 
L 178.887273 278.782038 
L 179.685818 260.570714 
L 180.484364 247.334299 
L 181.282909 238.061021 
L 182.081455 231.941289 
L 182.613818 229.259629 
L 183.146182 227.435839 
L 183.678545 226.287167 
L 184.210909 225.647636 
L 184.743273 225.3718 
L 185.541818 225.346572 
L 186.872727 225.445484 
L 187.405091 225.286951 
L 187.937455 224.932964 
L 188.469818 224.339869 
L 189.268364 222.947419 
L 190.066909 220.890508 
L 191.131636 217.150547 
L 192.196364 212.480288 
L 193.527273 205.670348 
L 194.325818 195.154314 
L 195.390545 177.804024 
L 196.721455 151.112242 
L 196.987636 145.104694 
L 197.253818 145.922711 
L 198.052364 154.22116 
L 198.850909 160.751287 
L 199.649455 165.79403 
L 200.448 169.59707 
L 201.246545 172.334638 
L 202.045091 174.122008 
L 202.577455 174.821713 
L 203.109818 175.173234 
L 203.642182 175.12311 
L 204.174545 174.749645 
L 204.706909 173.990423 
L 205.239273 172.905217 
L 206.037818 170.584049 
L 206.836364 167.504134 
L 207.901091 162.25816 
L 209.232 154.288453 
L 211.095273 142.803049 
L 211.627636 140.514483 
L 212.16 139.05826 
L 212.426182 138.660417 
L 212.692364 138.512382 
L 212.958545 138.643089 
L 213.224727 139.03821 
L 213.757091 140.664835 
L 214.289455 143.53353 
L 215.088 148.568794 
L 215.620364 144.326372 
L 216.685091 135.910788 
L 217.749818 128.975233 
L 218.814545 123.244355 
L 220.145455 117.405506 
L 221.476364 112.664451 
L 222.807273 108.715079 
L 224.404364 104.688195 
L 226.267636 100.650515 
L 226.8 99.596419 
L 228.663273 87.899268 
L 229.728 79.89875 
L 230.526545 73.728842 
L 233.720727 161.613423 
L 235.584 206.783837 
L 236.914909 234.626381 
L 237.979636 253.447461 
L 239.044364 268.378921 
L 239.842909 276.399757 
L 240.375273 279.92464 
L 240.641455 281.085255 
L 240.907636 281.748463 
L 241.173818 281.971634 
L 241.44 281.625336 
L 241.706182 280.769549 
L 241.972364 279.2721 
L 242.238545 276.513631 
L 243.037091 243.505302 
L 243.569455 225.61743 
L 245.698909 206.336574 
L 247.828364 185.288213 
L 253.152 131.731446 
L 254.216727 123.615916 
L 255.015273 119.01489 
L 255.547636 116.876658 
L 256.08 115.633586 
L 256.346182 115.390923 
L 256.612364 115.425088 
L 256.878545 115.754777 
L 257.144727 116.443808 
L 257.677091 118.871368 
L 258.209455 122.903781 
L 258.741818 128.751479 
L 259.274182 136.720606 
L 261.137455 170.285399 
L 262.468364 140.733023 
L 263.533091 122.175564 
L 264.331636 111.302224 
L 265.130182 102.882041 
L 265.928727 96.691996 
L 266.727273 92.450487 
L 267.259636 90.549897 
L 267.792 89.276997 
L 268.324364 88.532558 
L 268.856727 88.220881 
L 269.389091 88.277167 
L 269.921455 88.587369 
L 270.72 89.381773 
L 274.180364 93.454899 
L 275.245091 94.179412 
L 276.043636 94.5025 
L 276.842182 94.729854 
L 279.237818 96.393732 
L 279.770182 96.460481 
L 280.302545 96.277299 
L 280.834909 95.699048 
L 281.367273 94.635173 
L 281.899636 92.95688 
L 282.432 90.521649 
L 283.230545 85.814952 
L 283.496727 85.797887 
L 284.029091 87.69005 
L 284.561455 90.797248 
L 285.093818 95.114389 
L 285.892364 103.60866 
L 286.957091 118.15767 
L 288.288 140.069888 
L 292.280727 208.752054 
L 293.611636 229.369698 
L 294.942545 256.498101 
L 295.741091 269.018624 
L 296.539636 277.905431 
L 297.072 281.465346 
L 297.338182 282.502264 
L 297.604364 281.255059 
L 298.402909 266.636105 
L 299.201455 255.489576 
L 300 247.414093 
L 300.798545 241.992995 
L 301.330909 239.634643 
L 301.863273 238.179131 
L 302.395636 237.48198 
L 302.661818 237.382445 
L 302.928 237.434973 
L 303.460364 237.946493 
L 303.992727 238.905917 
L 304.791273 240.964452 
L 306.122182 245.290196 
L 307.719273 250.358447 
L 308.517818 252.274855 
L 309.050182 253.17396 
L 309.582545 253.716787 
L 309.848727 253.841656 
L 310.114909 253.673805 
L 310.913455 248.751201 
L 311.445818 246.717925 
L 311.978182 245.50598 
L 312.776727 244.435135 
L 313.309091 243.696542 
L 313.841455 242.545658 
L 314.373818 240.662282 
L 314.906182 237.710694 
L 315.438545 233.403288 
L 315.970909 227.4594 
L 316.503273 219.606345 
L 317.301818 203.636866 
L 318.100364 181.968505 
L 318.898909 153.835554 
L 319.697455 118.512921 
L 320.496 75.512402 
L 321.560727 108.133141 
L 322.359273 124.958603 
L 323.157818 136.303487 
L 323.690182 141.394754 
L 324.222545 144.893053 
L 324.754909 147.105443 
L 325.287273 148.301464 
L 325.819636 148.783577 
L 326.352 148.810754 
L 327.150545 148.655293 
L 329.28 148.421479 
L 330.078545 148.482838 
L 330.877091 148.755715 
L 331.675636 149.361179 
L 332.208 150.027703 
L 332.740364 150.980482 
L 333.272727 152.274081 
L 333.805091 154.031464 
L 334.603636 157.718862 
L 335.136 161.077465 
L 335.934545 167.902591 
L 336.733091 177.418971 
L 337.531636 190.450504 
L 337.797818 190.636039 
L 338.862545 168.049625 
L 339.661091 155.226432 
L 340.193455 148.970867 
L 340.725818 144.730131 
L 341.258182 142.509402 
L 341.524364 142.154906 
L 341.790545 142.378011 
L 342.056727 143.083335 
L 342.589091 146.126206 
L 343.653818 154.810594 
L 345.517091 164.963916 
L 347.380364 176.455834 
L 348.977455 187.606457 
L 350.574545 200.367782 
L 352.171636 215.061508 
L 354.034909 234.475327 
L 356.164364 256.76087 
L 356.696727 260.584663 
L 357.229091 262.758077 
L 357.495273 263.203989 
L 357.761455 263.193192 
L 358.027636 262.690643 
L 358.293818 261.741253 
L 358.826182 258.317059 
L 359.358545 252.907224 
L 359.890909 245.575384 
L 360.689455 241.164813 
L 361.754182 233.819047 
L 362.818909 224.844463 
L 364.149818 211.735656 
L 367.344 178.832822 
L 368.142545 172.612256 
L 368.674909 169.516092 
L 369.207273 167.425973 
L 369.473455 166.811433 
L 369.739636 166.553549 
L 370.005818 166.648125 
L 370.272 167.106993 
L 370.538182 167.951362 
L 370.804364 169.352819 
L 371.336727 177.311281 
L 372.401455 193.346974 
L 373.466182 206.118296 
L 374.264727 213.309901 
L 375.063273 218.323561 
L 375.595636 220.401829 
L 376.128 221.461719 
L 376.394182 221.594655 
L 376.926545 221.363105 
L 377.458909 220.6726 
L 377.991273 219.46356 
L 378.523636 217.660372 
L 379.056 215.154969 
L 379.854545 209.914736 
L 380.653091 202.700116 
L 381.451636 193.286343 
L 382.250182 181.481766 
L 383.314909 161.75433 
L 384.379636 137.382548 
L 385.444364 108.361197 
L 386.242909 86.64575 
L 386.775273 85.261964 
L 387.041455 85.050165 
L 387.307636 85.139228 
L 387.573818 85.514125 
L 388.106182 87.058006 
L 388.638545 89.552086 
L 389.437091 94.776483 
L 390.501818 103.777867 
L 392.365091 122.156955 
L 393.163636 130.008859 
L 394.760727 174.233174 
L 397.688727 255.837823 
L 399.285818 293.806533 
L 400.084364 310.162804 
L 400.350545 311.177982 
L 401.149091 287.64299 
L 403.012364 234.588135 
L 404.343273 202.749405 
L 405.408 182.806606 
L 406.206545 172.232952 
L 406.738909 167.868181 
L 407.005091 166.62093 
L 407.271273 166.079424 
L 407.537455 166.293787 
L 407.803636 167.321829 
L 408.069818 169.268794 
L 408.602182 176.112679 
L 409.134545 187.469281 
L 409.933091 209.763559 
L 415.256727 225.160265 
L 416.587636 229.725634 
L 418.184727 236.045859 
L 419.515636 242.308806 
L 420.846545 249.846137 
L 421.911273 256.99501 
L 422.976 265.335295 
L 424.040727 275.123964 
L 425.105455 286.650015 
L 426.170182 300.224056 
L 426.436364 304.02949 
L 426.436364 304.02949 
" clip-path="url(#pdccf53d481)" style="fill: none; stroke: #ff0000; stroke-width: 3; stroke-linecap: square"/>
   </g>
   <g id="patch_3">
    <path d="M 7.2 331.2 
L 7.2 7.2 
" style="fill: none; stroke: #000000; stroke-width: 0.8; stroke-linejoin: miter; stroke-linecap: square"/>
   </g>
   <g id="patch_4">
    <path d="M 446.4 331.2 
L 446.4 7.2 
" style="fill: none; stroke: #000000; stroke-width: 0.8; stroke-linejoin: miter; stroke-linecap: square"/>
   </g>
   <g id="patch_5">
    <path d="M 7.2 331.2 
L 446.4 331.2 
" style="fill: none; stroke: #000000; stroke-width: 0.8; stroke-linejoin: miter; stroke-linecap: square"/>
   </g>
   <g id="patch_6">
    <path d="M 7.2 7.2 
L 446.4 7.2 
" style="fill: none; stroke: #000000; stroke-width: 0.8; stroke-linejoin: miter; stroke-linecap: square"/>
   </g>
  </g>
 </g>
 <defs>
  <clipPath id="pdccf53d481">
   <rect x="7.2" y="7.2" width="439.2" height="324"/>
  </clipPath>
 </defs>
</svg>
