<?xml version="1.0" encoding="utf-8" standalone="no"?>
<!DOCTYPE svg PUBLIC "-//W3C//DTD SVG 1.1//EN"
  "http://www.w3.org/Graphics/SVG/1.1/DTD/svg11.dtd">
<svg xmlns:xlink="http://www.w3.org/1999/xlink" width="453.6pt" height="338.4pt" viewBox="0 0 453.6 338.4" xmlns="http://www.w3.org/2000/svg" version="1.1">
 <metadata>
  <rdf:RDF xmlns:dc="http://purl.org/dc/elements/1.1/" xmlns:cc="http://creativecommons.org/ns#" xmlns:rdf="http://www.w3.org/1999/02/22-rdf-syntax-ns#">
   <cc:Work>
    <dc:type rdf:resource="http://purl.org/dc/dcmitype/StillImage"/>
    <dc:date>2025-05-14T16:26:38.347317</dc:date>
    <dc:format>image/svg+xml</dc:format>
    <dc:creator>
     <cc:Agent>
      <dc:title>Matplotlib v3.10.1, https://matplotlib.org/</dc:title>
     </cc:Agent>
    </dc:creator>
   </cc:Work>
  </rdf:RDF>
 </metadata>
 <defs>
  <style type="text/css">*{stroke-linejoin: round; stroke-linecap: butt}</style>
 </defs>
 <g id="figure_1">
  <g id="patch_1">
   <path d="M 0 338.4 
L 453.6 338.4 
L 453.6 0 
L 0 0 
z
" style="fill: #ffffff"/>
  </g>
  <g id="axes_1">
   <g id="patch_2">
    <path d="M 7.2 331.2 
L 446.4 331.2 
L 446.4 7.2 
L 7.2 7.2 
z
" style="fill: #ffffff"/>
   </g>
   <g id="matplotlib.axis_1"/>
   <g id="matplotlib.axis_2"/>
   <g id="line2d_1">
    <path d="M 27.163636 100.838929 
L 30.357818 119.24881 
L 33.552 136.369569 
L 36.48 150.937609 
L 39.408 164.434805 
L 42.336 176.867028 
L 44.997818 187.249933 
L 47.659636 196.762091 
L 50.321455 205.407961 
L 52.717091 212.452259 
L 55.112727 218.801724 
L 57.242182 223.865015 
L 59.371636 228.384142 
L 61.501091 232.361385 
L 63.364364 235.398805 
L 65.227636 238.024627 
L 67.090909 240.24037 
L 68.688 241.814378 
L 70.285091 243.0892 
L 71.882182 244.065803 
L 73.479273 244.745179 
L 74.810182 245.084928 
L 76.141091 245.219479 
L 77.472 245.149386 
L 78.802909 244.875218 
L 80.133818 244.397512 
L 81.730909 243.556399 
L 83.328 242.423984 
L 84.925091 241.001197 
L 86.522182 239.289039 
L 88.385455 236.927044 
L 90.248727 234.174009 
L 92.112 231.031453 
L 94.241455 226.964954 
L 96.370909 222.393992 
L 98.500364 217.320825 
L 100.896 211.016085 
L 103.291636 204.081891 
L 105.953455 195.642949 
L 108.615273 186.435392 
L 111.277091 176.463673 
L 114.205091 164.617496 
L 117.133091 151.85798 
L 120.327273 136.903911 
L 123.521455 120.877681 
L 126.981818 102.315008 
L 130.442182 82.512897 
L 133.370182 64.796471 
L 134.967273 76.52805 
L 137.362909 93.074946 
L 139.758545 108.057579 
L 142.154182 121.557671 
L 144.283636 132.379308 
L 146.413091 142.151711 
L 148.542545 150.932342 
L 150.672 158.778682 
L 152.801455 165.74812 
L 154.930909 171.898172 
L 156.794182 176.652499 
L 158.657455 180.862064 
L 160.520727 184.565192 
L 162.384 187.800498 
L 164.247273 190.606465 
L 166.110545 193.021568 
L 167.973818 195.084326 
L 169.837091 196.833238 
L 171.700364 198.306789 
L 173.829818 199.703075 
L 176.225455 200.975642 
L 178.887273 202.115237 
L 182.613818 203.432853 
L 187.937455 205.312621 
L 190.599273 206.498311 
L 192.728727 207.667217 
L 194.858182 209.094252 
L 196.721455 210.599835 
L 198.584727 212.385528 
L 200.448 214.48984 
L 202.311273 216.951283 
L 204.174545 219.808339 
L 206.037818 222.928248 
L 207.901091 214.641211 
L 209.764364 207.446806 
L 211.361455 202.114842 
L 212.958545 197.522752 
L 214.555636 193.641586 
L 215.886545 190.929395 
L 217.217455 188.673949 
L 218.548364 186.858437 
L 219.879273 185.46618 
L 220.944 184.645811 
L 222.008727 184.076891 
L 223.073455 183.75095 
L 224.138182 183.659306 
L 225.202909 183.793436 
L 226.267636 184.144676 
L 227.332364 184.70451 
L 228.663273 185.684466 
L 229.994182 186.960088 
L 231.591273 188.857483 
L 233.188364 191.127527 
L 235.051636 194.20803 
L 236.914909 197.710262 
L 239.044364 202.170021 
L 241.44 207.687942 
L 244.368 215.014492 
L 248.094545 224.999195 
L 261.403636 261.324519 
L 264.331636 268.329614 
L 266.727273 273.514633 
L 268.856727 277.625343 
L 270.72 280.781283 
L 272.583273 283.477425 
L 274.180364 285.387499 
L 275.511273 286.674434 
L 276.842182 287.666366 
L 277.108364 287.827892 
L 277.374545 286.023649 
L 280.302545 256.652552 
L 283.230545 229.536079 
L 285.892364 206.891168 
L 288.554182 186.203237 
L 290.949818 169.293944 
L 293.345455 154.038715 
L 295.474909 141.892844 
L 297.604364 131.102124 
L 299.467636 122.789911 
L 301.330909 115.548105 
L 302.928 110.204185 
L 304.525091 105.66752 
L 305.856 102.51055 
L 307.186909 99.926424 
L 308.251636 98.275309 
L 309.316364 96.997177 
L 310.381091 96.09496 
L 311.179636 95.666674 
L 311.978182 95.452628 
L 312.776727 95.454033 
L 313.575273 95.672081 
L 314.373818 96.107986 
L 315.172364 96.762941 
L 316.237091 97.979064 
L 317.301818 99.589642 
L 318.366545 101.597465 
L 319.697455 104.670288 
L 321.028364 108.37389 
L 322.359273 112.713854 
L 323.956364 118.769646 
L 325.553455 125.75945 
L 327.150545 133.692886 
L 329.013818 144.153969 
L 330.877091 155.927981 
L 332.740364 169.030073 
L 334.869818 185.6496 
L 335.934545 193.856053 
L 342.056727 185.617322 
L 351.106909 173.855205 
L 362.552727 158.924504 
L 368.674909 150.561536 
L 373.998545 142.904436 
L 378.789818 135.61033 
L 383.314909 128.295279 
L 387.573818 120.969992 
L 391.566545 113.662789 
L 395.559273 105.882163 
L 399.285818 98.151677 
L 403.012364 89.929651 
L 406.738909 81.178128 
L 410.465455 71.858852 
L 414.192 61.933604 
L 417.918545 51.364427 
L 421.645091 40.113083 
L 425.371636 28.141352 
L 426.436364 24.583257 
L 426.436364 24.583257 
" clip-path="url(#pab10cef309)" style="fill: none; stroke-dasharray: 11.1,4.8; stroke-dashoffset: 0; stroke: #000000; stroke-width: 3"/>
   </g>
   <g id="line2d_2">
    <path d="M 27.163636 109.497334 
L 27.696 110.18259 
L 28.228364 111.140408 
L 29.026909 113.127182 
L 29.825455 115.76489 
L 30.890182 120.149061 
L 32.487273 127.948735 
L 35.415273 143.752615 
L 38.609455 160.938279 
L 40.206545 168.41455 
L 42.069818 175.983561 
L 43.933091 182.604499 
L 45.264 186.687132 
L 46.594909 190.05274 
L 47.659636 192.183607 
L 48.724364 193.85414 
L 49.789091 195.137117 
L 50.853818 196.103977 
L 51.918545 196.812557 
L 53.249455 197.415729 
L 55.112727 197.95892 
L 56.976 198.530219 
L 58.306909 199.178019 
L 59.637818 200.12245 
L 61.234909 201.601233 
L 64.162909 204.409237 
L 65.227636 205.13396 
L 66.292364 205.575658 
L 67.090909 205.694014 
L 67.889455 205.623008 
L 68.954182 205.250016 
L 70.018909 204.614417 
L 71.616 203.369861 
L 76.141091 199.728733 
L 79.601455 197.134293 
L 81.198545 196.260447 
L 82.795636 195.688033 
L 84.925091 195.218657 
L 87.054545 194.707936 
L 88.651636 194.08123 
L 92.112 192.523216 
L 93.176727 192.333002 
L 94.507636 192.350717 
L 96.637091 192.446109 
L 97.435636 192.289954 
L 98.234182 191.94572 
L 99.032727 191.388369 
L 100.097455 190.314654 
L 101.162182 188.915752 
L 102.759273 186.423674 
L 109.68 174.870502 
L 111.010909 171.928421 
L 112.608 167.698499 
L 115.536 159.615677 
L 116.600727 157.306377 
L 117.665455 155.535177 
L 118.730182 154.240244 
L 121.392 151.458329 
L 122.190545 150.140677 
L 122.989091 148.36809 
L 123.787636 146.101575 
L 124.852364 142.405048 
L 127.248 132.866003 
L 129.377455 124.93915 
L 130.708364 120.701188 
L 131.506909 118.657831 
L 132.305455 117.214863 
L 132.837818 116.683434 
L 133.370182 116.550024 
L 133.902545 116.840247 
L 134.434909 117.556437 
L 134.967273 118.676826 
L 135.765818 121.015761 
L 136.830545 125.025861 
L 140.823273 141.26317 
L 142.154182 145.419391 
L 143.218909 148.076305 
L 144.283636 150.15165 
L 145.348364 151.726062 
L 146.413091 152.935496 
L 148.542545 154.903239 
L 150.672 157.021439 
L 152.801455 159.130509 
L 153.866182 159.8434 
L 154.664727 160.133447 
L 155.463273 160.213012 
L 156.528 160.075704 
L 158.391273 159.755004 
L 159.189818 159.818979 
L 159.988364 160.077161 
L 161.053091 160.703113 
L 165.045818 163.537047 
L 167.441455 164.796605 
L 168.506182 165.710181 
L 169.304727 166.67072 
L 170.369455 168.363338 
L 171.434182 170.496865 
L 173.031273 174.276082 
L 177.024 183.994394 
L 178.887273 187.921777 
L 180.218182 190.284668 
L 181.282909 191.778628 
L 182.347636 192.871892 
L 183.412364 193.606666 
L 184.743273 194.202544 
L 187.937455 195.504596 
L 190.865455 196.802743 
L 192.728727 197.329036 
L 196.189091 198.213837 
L 198.052364 198.978905 
L 200.181818 200.099267 
L 203.376 202.082538 
L 204.973091 202.926644 
L 205.771636 203.157562 
L 206.570182 203.171993 
L 207.368727 202.90146 
L 208.167273 202.289711 
L 208.965818 201.30649 
L 209.764364 199.961056 
L 210.829091 197.706066 
L 214.289455 189.879556 
L 215.354182 188.218987 
L 216.418909 187.048642 
L 217.483636 186.292546 
L 218.548364 185.839708 
L 219.879273 185.533123 
L 223.073455 185.142127 
L 228.929455 184.520617 
L 229.994182 184.749639 
L 230.792727 185.131786 
L 231.591273 185.720308 
L 232.656 186.813993 
L 233.986909 188.556068 
L 241.173818 198.99223 
L 244.368 203.484881 
L 246.497455 206.029067 
L 248.893091 208.850852 
L 250.490182 211.139049 
L 252.353455 214.304376 
L 258.741818 225.695644 
L 259.806545 227.110504 
L 260.871273 228.132622 
L 261.669818 228.600066 
L 262.468364 228.811839 
L 263.266909 228.800234 
L 264.331636 228.537943 
L 267.259636 227.642029 
L 268.590545 227.592801 
L 270.187636 227.803503 
L 272.849455 228.187362 
L 274.446545 228.216786 
L 275.777455 228.046139 
L 276.842182 227.686297 
L 277.640727 227.215745 
L 278.439273 226.515548 
L 279.237818 225.534591 
L 280.036364 224.224858 
L 280.834909 222.541764 
L 281.899636 219.64733 
L 282.964364 215.942227 
L 284.029091 211.405413 
L 285.36 204.689365 
L 287.489455 192.481353 
L 293.345455 158.522992 
L 295.741091 144.177126 
L 297.870545 129.856242 
L 300.266182 113.670689 
L 301.597091 106.168945 
L 302.661818 101.291266 
L 303.726545 97.353183 
L 304.791273 94.175971 
L 306.122182 90.988787 
L 307.453091 88.475939 
L 308.517818 86.943136 
L 309.316364 86.109458 
L 310.114909 85.577082 
L 310.913455 85.363176 
L 311.712 85.471305 
L 312.510545 85.891901 
L 313.309091 86.605318 
L 314.373818 87.966298 
L 315.438545 89.726297 
L 316.769455 92.366059 
L 318.366545 96.010584 
L 320.229818 100.841668 
L 321.560727 104.851153 
L 322.625455 108.633302 
L 323.690182 113.164893 
L 324.754909 118.626563 
L 326.085818 126.784403 
L 328.215273 141.723987 
L 330.344727 156.28325 
L 331.941818 165.791888 
L 333.272727 172.504188 
L 334.337455 176.906108 
L 335.402182 180.323104 
L 336.200727 182.222878 
L 336.999273 183.589502 
L 337.797818 184.484802 
L 338.596364 184.981794 
L 339.394909 185.15058 
L 340.193455 185.051659 
L 340.992 184.736814 
L 342.056727 184.063065 
L 343.653818 182.734424 
L 348.445091 178.353237 
L 349.776 176.751754 
L 351.373091 174.393164 
L 355.099636 168.542658 
L 356.164364 167.307609 
L 357.229091 166.390171 
L 358.293818 165.754317 
L 359.624727 165.218289 
L 365.746909 163.067733 
L 367.077818 162.240305 
L 368.142545 161.312158 
L 369.207273 160.110466 
L 370.538182 158.252028 
L 372.667636 154.77248 
L 376.394182 148.249814 
L 377.991273 144.934749 
L 379.588364 141.012677 
L 381.717818 135.026952 
L 386.509091 121.237251 
L 388.106182 117.327521 
L 389.437091 114.631193 
L 390.501818 112.918929 
L 391.566545 111.574715 
L 393.429818 109.695632 
L 395.026909 107.956841 
L 396.624 105.815221 
L 399.285818 102.14401 
L 400.616727 100.750884 
L 401.681455 99.971333 
L 402.746182 99.508023 
L 403.810909 99.329107 
L 407.005091 99.158302 
L 408.069818 98.682123 
L 409.400727 97.732767 
L 411.796364 95.661302 
L 412.594909 94.737473 
L 413.393455 93.422596 
L 414.192 91.481275 
L 414.990545 88.706383 
L 415.789091 84.978658 
L 416.853818 78.561067 
L 418.184727 68.834801 
L 420.580364 51.059931 
L 421.645091 44.865795 
L 422.443636 41.315934 
L 423.242182 38.758037 
L 423.774545 37.581801 
L 424.306909 36.789908 
L 424.839273 36.334533 
L 425.371636 36.158409 
L 425.904 36.198928 
L 426.436364 36.392785 
L 426.436364 36.392785 
" clip-path="url(#pab10cef309)" style="fill: none; stroke: #0000ff; stroke-width: 3; stroke-linecap: square"/>
   </g>
   <g id="patch_3">
    <path d="M 7.2 331.2 
L 7.2 7.2 
" style="fill: none; stroke: #000000; stroke-width: 0.8; stroke-linejoin: miter; stroke-linecap: square"/>
   </g>
   <g id="patch_4">
    <path d="M 446.4 331.2 
L 446.4 7.2 
" style="fill: none; stroke: #000000; stroke-width: 0.8; stroke-linejoin: miter; stroke-linecap: square"/>
   </g>
   <g id="patch_5">
    <path d="M 7.2 331.2 
L 446.4 331.2 
" style="fill: none; stroke: #000000; stroke-width: 0.8; stroke-linejoin: miter; stroke-linecap: square"/>
   </g>
   <g id="patch_6">
    <path d="M 7.2 7.2 
L 446.4 7.2 
" style="fill: none; stroke: #000000; stroke-width: 0.8; stroke-linejoin: miter; stroke-linecap: square"/>
   </g>
  </g>
 </g>
 <defs>
  <clipPath id="pab10cef309">
   <rect x="7.2" y="7.2" width="439.2" height="324"/>
  </clipPath>
 </defs>
</svg>
