<?xml version="1.0" encoding="utf-8" standalone="no"?>
<!DOCTYPE svg PUBLIC "-//W3C//DTD SVG 1.1//EN"
  "http://www.w3.org/Graphics/SVG/1.1/DTD/svg11.dtd">
<svg xmlns:xlink="http://www.w3.org/1999/xlink" width="453.6pt" height="338.4pt" viewBox="0 0 453.6 338.4" xmlns="http://www.w3.org/2000/svg" version="1.1">
 <metadata>
  <rdf:RDF xmlns:dc="http://purl.org/dc/elements/1.1/" xmlns:cc="http://creativecommons.org/ns#" xmlns:rdf="http://www.w3.org/1999/02/22-rdf-syntax-ns#">
   <cc:Work>
    <dc:type rdf:resource="http://purl.org/dc/dcmitype/StillImage"/>
    <dc:date>2025-05-14T16:24:27.268320</dc:date>
    <dc:format>image/svg+xml</dc:format>
    <dc:creator>
     <cc:Agent>
      <dc:title>Matplotlib v3.10.1, https://matplotlib.org/</dc:title>
     </cc:Agent>
    </dc:creator>
   </cc:Work>
  </rdf:RDF>
 </metadata>
 <defs>
  <style type="text/css">*{stroke-linejoin: round; stroke-linecap: butt}</style>
 </defs>
 <g id="figure_1">
  <g id="patch_1">
   <path d="M 0 338.4 
L 453.6 338.4 
L 453.6 0 
L 0 0 
z
" style="fill: #ffffff"/>
  </g>
  <g id="axes_1">
   <g id="patch_2">
    <path d="M 7.2 331.2 
L 446.4 331.2 
L 446.4 7.2 
L 7.2 7.2 
z
" style="fill: #ffffff"/>
   </g>
   <g id="matplotlib.axis_1"/>
   <g id="matplotlib.axis_2"/>
   <g id="line2d_1">
    <path d="M 27.163636 25.971537 
L 129.909818 112.096505 
L 199.649455 59.094895 
L 200.181818 60.1962 
L 286.690909 267.86867 
L 287.223273 267.783114 
L 337.265455 251.469707 
L 337.531636 251.040557 
L 426.436364 24.804027 
L 426.436364 24.804027 
" clip-path="url(#p11eccff14c)" style="fill: none; stroke-dasharray: 11.1,4.8; stroke-dashoffset: 0; stroke: #000000; stroke-width: 3"/>
   </g>
   <g id="line2d_2">
    <path d="M 27.163636 259.893016 
L 27.429818 261.650583 
L 29.026909 248.733557 
L 29.293091 247.831217 
L 30.091636 242.768166 
L 30.357818 242.247061 
L 32.221091 231.558202 
L 33.285818 228.899023 
L 33.552 228.884513 
L 34.084364 228.10785 
L 34.350545 227.949554 
L 34.616727 228.494509 
L 35.149091 227.795418 
L 35.681455 226.742972 
L 36.48 223.661995 
L 37.012364 222.468826 
L 37.544727 221.068976 
L 37.810909 220.902288 
L 38.609455 219.174988 
L 38.875636 219.423699 
L 39.674182 218.228792 
L 39.940364 218.698256 
L 40.738909 217.315251 
L 41.005091 217.160256 
L 41.803636 216.079904 
L 42.069818 216.028727 
L 42.602182 215.513064 
L 42.868364 215.398053 
L 43.134545 215.739883 
L 43.933091 215.595693 
L 44.199273 218.523615 
L 45.530182 216.028797 
L 46.062545 215.205522 
L 46.328727 215.086078 
L 47.127273 213.731427 
L 47.393455 213.652415 
L 49.256727 210.236964 
L 50.853818 208.474489 
L 51.386182 208.07921 
L 51.652364 208.236058 
L 52.983273 206.979643 
L 54.314182 205.101876 
L 55.911273 203.07618 
L 56.709818 201.613645 
L 56.976 200.334908 
L 57.508364 199.08742 
L 59.904 194.649053 
L 60.436364 193.798398 
L 60.702545 193.317084 
L 61.234909 191.679101 
L 61.501091 191.444172 
L 61.767273 191.365801 
L 62.299636 190.638576 
L 62.832 190.075388 
L 63.098182 189.987361 
L 63.364364 189.576368 
L 63.630545 189.511752 
L 63.896727 189.223268 
L 64.162909 189.18977 
L 64.429091 188.82108 
L 64.961455 188.605085 
L 65.227636 188.577785 
L 65.493818 187.365278 
L 65.76 187.153865 
L 66.558545 187.989641 
L 67.090909 188.051764 
L 67.889455 188.151975 
L 68.155636 188.078835 
L 68.421818 188.235516 
L 69.220364 187.578376 
L 69.486545 187.213258 
L 69.752727 183.598421 
L 70.018909 182.473555 
L 70.551273 181.889791 
L 70.817455 182.085193 
L 72.148364 179.383694 
L 72.414545 178.979628 
L 72.946909 178.844532 
L 73.213091 178.854293 
L 73.479273 178.486103 
L 73.745455 178.351482 
L 74.011636 177.979271 
L 74.544 177.902392 
L 74.810182 178.000268 
L 75.076364 178.306143 
L 75.342545 178.315368 
L 75.608727 178.525192 
L 75.874909 178.436331 
L 76.141091 178.814423 
L 76.407273 178.71997 
L 77.205818 179.317762 
L 78.004364 180.09547 
L 79.069091 180.34153 
L 79.867636 180.793665 
L 80.133818 180.764487 
L 80.4 181.08301 
L 80.666182 180.982228 
L 80.932364 181.092148 
L 81.198545 180.894324 
L 81.464727 181.068289 
L 81.997091 180.851223 
L 82.263273 180.853277 
L 82.529455 180.088851 
L 82.795636 180.128493 
L 83.061818 180.04654 
L 83.328 180.124701 
L 83.860364 180.015185 
L 84.392727 179.578077 
L 84.658909 179.65615 
L 84.925091 179.416972 
L 85.191273 179.360968 
L 85.457455 179.005435 
L 85.723636 179.077188 
L 85.989818 178.646278 
L 86.256 178.431099 
L 86.522182 177.994624 
L 86.788364 178.06175 
L 87.853091 177.642006 
L 88.119273 177.409447 
L 89.184 175.47248 
L 89.716364 174.995037 
L 89.982545 175.09409 
L 90.248727 175.001972 
L 90.514909 175.192423 
L 90.781091 175.082055 
L 91.047273 175.641679 
L 91.313455 175.756067 
L 91.845818 176.596969 
L 92.378182 177.912522 
L 92.910545 178.746059 
L 93.709091 179.759232 
L 95.04 182.181708 
L 95.306182 182.04268 
L 95.572364 182.183982 
L 96.104727 183.415002 
L 100.629818 199.659035 
L 102.226909 202.580399 
L 104.356364 205.775203 
L 106.219636 209.256033 
L 107.284364 211.123819 
L 109.147636 213.812827 
L 110.212364 214.930029 
L 111.809455 215.479953 
L 112.075636 215.362247 
L 112.341818 215.912724 
L 113.140364 215.818587 
L 114.737455 215.347833 
L 115.802182 215.261228 
L 116.068364 215.226923 
L 116.600727 214.90179 
L 117.665455 214.512049 
L 118.197818 214.148889 
L 119.528727 213.242493 
L 119.794909 213.236805 
L 120.593455 212.76728 
L 121.125818 212.276169 
L 122.190545 211.452754 
L 123.255273 210.323095 
L 124.053818 209.300486 
L 124.586182 208.683681 
L 125.384727 207.118908 
L 125.917091 205.446286 
L 127.514182 200.115094 
L 128.312727 197.033222 
L 129.111273 194.231038 
L 129.377455 196.927796 
L 130.176 193.474511 
L 132.837818 181.911289 
L 133.902545 175.819831 
L 134.434909 173.145255 
L 134.701091 171.802499 
L 135.499636 166.512906 
L 135.765818 165.221519 
L 136.564364 160.181305 
L 138.427636 150.266889 
L 138.96 148.539755 
L 139.492364 147.232023 
L 140.024727 146.353981 
L 140.557091 145.629258 
L 140.823273 145.270373 
L 142.952727 143.972297 
L 144.017455 144.361677 
L 144.283636 144.562627 
L 145.082182 144.65564 
L 145.348364 144.849514 
L 145.880727 144.612627 
L 146.146909 144.279163 
L 146.413091 146.67563 
L 146.679273 146.2297 
L 147.211636 144.710942 
L 148.276364 139.196691 
L 149.341091 133.080839 
L 150.139636 129.293529 
L 150.405818 128.390767 
L 150.672 128.473931 
L 150.938182 128.355075 
L 151.204364 128.752918 
L 151.736727 130.451769 
L 152.002909 130.636303 
L 152.269091 130.519659 
L 152.535273 130.199959 
L 153.067636 129.000269 
L 153.333818 128.952393 
L 153.6 129.017807 
L 153.866182 129.200498 
L 154.398545 130.237723 
L 155.197091 131.860204 
L 155.729455 133.431929 
L 156.528 134.883904 
L 157.060364 135.572145 
L 157.592727 136.189178 
L 158.391273 137.025822 
L 159.189818 137.459532 
L 159.722182 137.497208 
L 160.254545 137.055159 
L 160.786909 136.124729 
L 161.585455 133.703191 
L 162.384 129.477325 
L 162.916364 126.906033 
L 163.182545 126.118704 
L 163.448727 125.700075 
L 165.045818 124.592958 
L 165.578182 123.939637 
L 165.844364 123.725029 
L 166.376727 123.74032 
L 166.909091 123.911388 
L 167.175273 124.015971 
L 167.973818 124.882005 
L 168.24 125.272632 
L 168.772364 126.247708 
L 170.103273 129.203079 
L 171.168 133.004838 
L 172.232727 134.65432 
L 172.498909 134.399912 
L 173.031273 134.882657 
L 173.297455 135.931592 
L 173.829818 137.084636 
L 174.628364 137.574228 
L 174.894545 137.507373 
L 175.160727 137.594066 
L 175.426909 137.865627 
L 176.491636 139.61044 
L 177.556364 140.035056 
L 177.822545 139.971186 
L 178.088727 140.044554 
L 179.419636 139.032329 
L 179.952 138.649093 
L 180.218182 138.316472 
L 180.484364 138.264207 
L 180.750545 137.71366 
L 181.815273 133.790973 
L 182.081455 132.127322 
L 182.347636 131.255109 
L 183.146182 126.82329 
L 184.210909 123.250763 
L 184.743273 122.146017 
L 185.275636 119.9321 
L 186.872727 113.242298 
L 187.405091 111.74164 
L 188.736 109.582798 
L 189.800727 103.703552 
L 190.333091 100.857802 
L 190.599273 99.845349 
L 192.462545 96.691048 
L 192.994909 96.261375 
L 193.527273 96.044099 
L 194.325818 95.603419 
L 195.124364 95.365777 
L 195.656727 95.583615 
L 196.455273 96.083074 
L 197.253818 96.482778 
L 198.318545 97.859559 
L 199.117091 99.487377 
L 200.181818 101.795149 
L 200.980364 103.142137 
L 201.512727 103.791263 
L 202.045091 104.228467 
L 202.577455 104.396498 
L 203.376 104.392109 
L 203.908364 104.241406 
L 204.706909 103.830975 
L 205.505455 103.378199 
L 207.901091 102.282371 
L 208.699636 102.347821 
L 210.030545 102.652159 
L 211.361455 103.557308 
L 212.16 103.627884 
L 213.224727 103.963876 
L 213.757091 103.758117 
L 214.289455 103.397458 
L 217.217455 102.037777 
L 218.814545 101.961425 
L 219.613091 102.64863 
L 221.210182 104.820535 
L 221.742545 105.585883 
L 222.274909 105.926949 
L 222.807273 105.930126 
L 223.073455 106.022666 
L 224.670545 108.020429 
L 224.936727 108.142849 
L 226.267636 109.326599 
L 227.066182 109.843087 
L 227.332364 110.16686 
L 228.397091 112.486536 
L 229.195636 114.328435 
L 231.591273 119.537751 
L 232.123636 120.684685 
L 232.656 123.039105 
L 233.986909 134.81496 
L 235.317818 149.539498 
L 236.116364 154.124126 
L 236.914909 157.069719 
L 238.778182 170.725746 
L 239.576727 175.142124 
L 241.173818 179.953931 
L 241.972364 184.411426 
L 243.303273 189.40422 
L 244.101818 191.660825 
L 245.166545 195.130832 
L 245.965091 197.40056 
L 246.763636 198.568632 
L 247.562182 199.111156 
L 248.094545 199.872142 
L 248.893091 201.438557 
L 251.022545 207.485246 
L 251.554909 209.425574 
L 252.353455 213.298076 
L 253.152 217.671635 
L 253.684364 219.359961 
L 254.749091 220.929615 
L 255.281455 222.513252 
L 257.677091 230.67305 
L 258.741818 234.178898 
L 260.072727 244.048392 
L 261.669818 254.113445 
L 261.936 254.729925 
L 262.202182 254.953276 
L 262.468364 254.753393 
L 263.266909 253.05381 
L 263.799273 252.726899 
L 264.597818 253.350739 
L 264.864 253.199505 
L 265.130182 252.85017 
L 266.461091 247.660851 
L 266.727273 247.003456 
L 267.259636 246.446097 
L 267.525818 246.354062 
L 268.058182 246.676365 
L 268.324364 247.039626 
L 268.590545 247.066509 
L 268.856727 246.96445 
L 269.389091 246.191329 
L 269.921455 245.074337 
L 270.72 243.654701 
L 272.050909 242.687978 
L 272.317091 242.749311 
L 273.115636 243.332197 
L 273.381818 243.199221 
L 274.180364 244.744248 
L 275.245091 246.880878 
L 275.511273 247.277193 
L 277.640727 251.833328 
L 278.439273 253.027344 
L 278.971636 253.961724 
L 280.302545 256.248881 
L 281.633455 259.341959 
L 281.899636 259.13282 
L 282.698182 259.945351 
L 282.964364 259.963438 
L 283.230545 260.10305 
L 284.029091 260.102493 
L 284.295273 260.321086 
L 284.561455 260.087039 
L 284.827636 260.085766 
L 285.093818 259.756915 
L 285.626182 260.058584 
L 285.892364 260.188909 
L 286.158545 260.498106 
L 286.424727 260.293097 
L 286.690909 260.336395 
L 286.957091 260.088215 
L 287.223273 260.185771 
L 288.021818 258.915859 
L 288.288 258.634125 
L 288.554182 258.644268 
L 288.820364 258.479924 
L 289.618909 258.739783 
L 290.151273 258.308904 
L 290.417455 257.765862 
L 291.216 257.118224 
L 291.482182 257.139739 
L 291.748364 256.989392 
L 292.280727 256.987697 
L 292.813091 257.120208 
L 293.345455 257.489149 
L 293.611636 257.711508 
L 293.877818 258.097276 
L 294.144 258.242243 
L 294.410182 258.529942 
L 294.676364 258.497511 
L 295.208727 259.162841 
L 296.007273 260.740707 
L 297.072 263.136626 
L 298.136727 265.382929 
L 298.669091 266.290198 
L 299.467636 266.876525 
L 299.733818 267.119671 
L 300 267.194992 
L 300.532364 267.509666 
L 300.798545 267.59739 
L 301.597091 267.076412 
L 302.928 265.195753 
L 303.460364 264.061192 
L 304.791273 261.674622 
L 305.589818 260.796865 
L 307.186909 259.791334 
L 307.453091 259.67264 
L 308.251636 259.71618 
L 309.050182 259.560004 
L 309.848727 259.643488 
L 310.647273 259.991682 
L 311.445818 260.365069 
L 311.712 260.65315 
L 312.244364 260.941661 
L 313.309091 261.514693 
L 316.503273 263.333366 
L 317.035636 263.494602 
L 318.366545 264.341991 
L 319.165091 264.595118 
L 322.891636 266.726884 
L 323.956364 267.596447 
L 325.287273 269.294384 
L 326.618182 270.30994 
L 328.215273 272.065564 
L 330.877091 275.618019 
L 333.272727 277.866351 
L 335.934545 278.811054 
L 336.999273 278.934361 
L 339.394909 277.887475 
L 341.258182 276.913291 
L 341.524364 277.010285 
L 342.322909 276.634554 
L 343.92 275.503798 
L 344.718545 274.890575 
L 347.380364 272.228644 
L 349.776 269.424705 
L 350.840727 267.733298 
L 352.171636 265.753779 
L 354.034909 262.794555 
L 354.301091 262.657638 
L 356.696727 258.812532 
L 358.293818 255.774471 
L 358.56 256.085068 
L 359.624727 254.003639 
L 360.689455 251.609815 
L 361.488 250.08837 
L 362.818909 246.423295 
L 364.149818 243.670506 
L 366.279273 241.08746 
L 366.811636 240.868393 
L 367.077818 241.150285 
L 367.344 241.118956 
L 367.876364 240.630944 
L 369.207273 238.569662 
L 370.538182 236.138872 
L 371.070545 235.456389 
L 371.336727 235.438816 
L 371.869091 234.241442 
L 372.135273 233.530176 
L 372.667636 231.73423 
L 373.2 230.721216 
L 373.466182 230.405194 
L 373.732364 230.304895 
L 375.063273 230.526841 
L 375.329455 230.727966 
L 375.595636 231.558308 
L 376.128 231.028705 
L 376.394182 230.505695 
L 377.725091 226.244874 
L 378.523636 224.549666 
L 379.588364 220.541243 
L 380.120727 218.915102 
L 380.653091 217.219912 
L 381.185455 214.918424 
L 382.250182 211.045992 
L 383.581091 207.861749 
L 383.847273 207.293926 
L 384.113455 208.074013 
L 385.710545 204.259526 
L 387.041455 201.673749 
L 388.106182 199.697957 
L 388.638545 198.843028 
L 389.969455 196.178766 
L 390.235636 195.952115 
L 390.768 195.317368 
L 391.300364 194.71768 
L 391.832727 194.033222 
L 392.365091 193.992966 
L 392.631273 195.516842 
L 393.163636 195.509951 
L 393.429818 195.271432 
L 393.696 194.587755 
L 394.494545 193.902525 
L 394.760727 193.625223 
L 395.559273 193.888524 
L 395.825455 193.422966 
L 396.624 192.864018 
L 396.890182 193.620369 
L 397.688727 193.524582 
L 398.487273 193.139968 
L 398.753455 192.898859 
L 399.019636 192.5063 
L 400.350545 191.836326 
L 400.882909 191.505154 
L 401.149091 187.995197 
L 401.415273 188.003747 
L 401.681455 188.434578 
L 401.947636 188.412896 
L 402.213818 187.760716 
L 402.746182 188.107979 
L 403.012364 188.0066 
L 403.278545 187.483985 
L 403.810909 188.053414 
L 404.077091 188.157479 
L 404.343273 187.241568 
L 405.141818 186.858025 
L 405.408 188.207505 
L 406.206545 189.216754 
L 406.472727 189.789888 
L 407.803636 194.174937 
L 408.336 196.894474 
L 408.602182 197.569259 
L 409.400727 202.354134 
L 409.666909 201.37028 
L 410.465455 205.34884 
L 410.731636 205.597762 
L 411.264 207.473527 
L 411.530182 208.112312 
L 412.328727 211.310056 
L 412.861091 212.251485 
L 413.127273 212.447352 
L 413.393455 212.098719 
L 413.659636 211.226778 
L 413.925818 208.420276 
L 414.192 208.131396 
L 414.724364 207.020628 
L 414.990545 205.6393 
L 416.055273 207.718498 
L 416.853818 212.187265 
L 417.12 212.05367 
L 417.652364 213.302185 
L 417.918545 214.109168 
L 418.184727 210.901495 
L 418.450909 212.915552 
L 418.983273 218.909361 
L 419.249455 218.224903 
L 419.781818 223.06423 
L 420.048 224.442898 
L 420.314182 224.210549 
L 421.112727 237.098033 
L 421.378909 237.117319 
L 422.177455 249.393383 
L 422.443636 264.243114 
L 422.976 270.072953 
L 423.242182 276.17181 
L 423.508364 287.787026 
L 424.040727 294.524609 
L 424.573091 298.881944 
L 425.637818 303.385487 
L 425.904 303.671523 
L 426.170182 303.600993 
L 426.436364 300.725594 
L 426.436364 300.725594 
" clip-path="url(#p11eccff14c)" style="fill: none; stroke: #ffa500; stroke-width: 3; stroke-linecap: square"/>
   </g>
   <g id="patch_3">
    <path d="M 7.2 331.2 
L 7.2 7.2 
" style="fill: none; stroke: #000000; stroke-width: 0.8; stroke-linejoin: miter; stroke-linecap: square"/>
   </g>
   <g id="patch_4">
    <path d="M 446.4 331.2 
L 446.4 7.2 
" style="fill: none; stroke: #000000; stroke-width: 0.8; stroke-linejoin: miter; stroke-linecap: square"/>
   </g>
   <g id="patch_5">
    <path d="M 7.2 331.2 
L 446.4 331.2 
" style="fill: none; stroke: #000000; stroke-width: 0.8; stroke-linejoin: miter; stroke-linecap: square"/>
   </g>
   <g id="patch_6">
    <path d="M 7.2 7.2 
L 446.4 7.2 
" style="fill: none; stroke: #000000; stroke-width: 0.8; stroke-linejoin: miter; stroke-linecap: square"/>
   </g>
  </g>
 </g>
 <defs>
  <clipPath id="p11eccff14c">
   <rect x="7.2" y="7.2" width="439.2" height="324"/>
  </clipPath>
 </defs>
</svg>
