<?xml version="1.0" encoding="utf-8" standalone="no"?>
<!DOCTYPE svg PUBLIC "-//W3C//DTD SVG 1.1//EN"
  "http://www.w3.org/Graphics/SVG/1.1/DTD/svg11.dtd">
<svg xmlns:xlink="http://www.w3.org/1999/xlink" width="453.6pt" height="338.4pt" viewBox="0 0 453.6 338.4" xmlns="http://www.w3.org/2000/svg" version="1.1">
 <metadata>
  <rdf:RDF xmlns:dc="http://purl.org/dc/elements/1.1/" xmlns:cc="http://creativecommons.org/ns#" xmlns:rdf="http://www.w3.org/1999/02/22-rdf-syntax-ns#">
   <cc:Work>
    <dc:type rdf:resource="http://purl.org/dc/dcmitype/StillImage"/>
    <dc:date>2025-05-14T16:28:04.219083</dc:date>
    <dc:format>image/svg+xml</dc:format>
    <dc:creator>
     <cc:Agent>
      <dc:title>Matplotlib v3.10.1, https://matplotlib.org/</dc:title>
     </cc:Agent>
    </dc:creator>
   </cc:Work>
  </rdf:RDF>
 </metadata>
 <defs>
  <style type="text/css">*{stroke-linejoin: round; stroke-linecap: butt}</style>
 </defs>
 <g id="figure_1">
  <g id="patch_1">
   <path d="M 0 338.4 
L 453.6 338.4 
L 453.6 0 
L 0 0 
z
" style="fill: #ffffff"/>
  </g>
  <g id="axes_1">
   <g id="patch_2">
    <path d="M 7.2 331.2 
L 446.4 331.2 
L 446.4 7.2 
L 7.2 7.2 
z
" style="fill: #ffffff"/>
   </g>
   <g id="matplotlib.axis_1"/>
   <g id="matplotlib.axis_2"/>
   <g id="line2d_1">
    <path d="M 27.163636 37.028919 
L 41.005091 37.372144 
L 54.846545 37.492967 
L 68.688 37.391474 
L 82.529455 37.067578 
L 96.370909 36.521367 
L 109.946182 35.769695 
L 123.787636 34.783032 
L 137.629091 33.574019 
L 151.470545 32.142638 
L 165.312 30.488907 
L 179.153455 28.612826 
L 188.203636 27.30685 
L 197.253818 40.850411 
L 206.304 53.994673 
L 215.088 66.370479 
L 223.872 78.37023 
L 232.656 89.99382 
L 241.173818 100.906029 
L 249.691636 111.46448 
L 258.209455 121.669311 
L 266.727273 131.520419 
L 274.978909 140.726405 
L 283.230545 149.600471 
L 291.482182 158.142635 
L 299.467636 166.093241 
L 307.453091 173.732952 
L 315.438545 181.061837 
L 323.157818 187.850946 
L 330.877091 194.34956 
L 338.596364 200.557706 
L 346.315636 206.475391 
L 353.768727 211.913404 
L 361.221818 217.080629 
L 368.674909 221.977048 
L 376.128 226.602706 
L 383.314909 230.806715 
L 390.501818 234.758905 
L 397.688727 238.45932 
L 404.875636 241.907961 
L 412.062545 245.104797 
L 418.983273 247.945258 
L 425.904 250.552242 
L 426.436364 250.743114 
L 426.436364 250.743114 
" clip-path="url(#p99affb8edc)" style="fill: none; stroke-dasharray: 11.1,4.8; stroke-dashoffset: 0; stroke: #000000; stroke-width: 3"/>
   </g>
   <g id="line2d_2">
    <path d="M 27.163636 282.584376 
L 27.696 282.243003 
L 28.228364 281.613196 
L 28.760727 280.631967 
L 29.293091 279.250672 
L 30.091636 276.374875 
L 30.890182 272.557363 
L 31.954909 266.269591 
L 35.947636 241.072871 
L 37.278545 234.878446 
L 38.875636 228.669686 
L 42.602182 215.399537 
L 44.199273 210.492311 
L 46.062545 205.597068 
L 49.522909 197.179421 
L 50.587636 195.189944 
L 51.386182 194.112278 
L 52.184727 193.404199 
L 52.983273 193.007988 
L 54.048 192.783953 
L 55.645091 192.49035 
L 56.443636 192.076637 
L 56.976 191.606971 
L 57.508364 190.932301 
L 58.306909 189.451666 
L 59.105455 187.333466 
L 59.904 184.57728 
L 61.234909 178.917768 
L 63.630545 168.43409 
L 64.961455 163.827217 
L 66.292364 160.125073 
L 67.623273 157.028584 
L 68.954182 154.418528 
L 70.018909 152.713989 
L 71.083636 151.38475 
L 72.148364 150.420366 
L 73.213091 149.779071 
L 74.277818 149.408475 
L 75.342545 149.261178 
L 76.673455 149.320009 
L 80.4 149.715745 
L 81.730909 149.479543 
L 83.328 148.921675 
L 85.191273 148.310242 
L 85.989818 148.24244 
L 86.788364 148.38993 
L 87.586909 148.805505 
L 88.385455 149.50888 
L 89.450182 150.846264 
L 91.313455 153.759237 
L 92.910545 156.118344 
L 94.241455 157.724533 
L 95.838545 159.29366 
L 97.968 161.037859 
L 100.097455 162.491641 
L 103.824 164.928452 
L 106.219636 166.8828 
L 108.881455 169.041379 
L 110.212364 169.807245 
L 111.277091 170.126269 
L 112.075636 170.167044 
L 113.140364 169.977471 
L 114.737455 169.370164 
L 116.334545 168.784548 
L 117.399273 168.593817 
L 118.464 168.600629 
L 121.658182 168.827614 
L 122.456727 168.568553 
L 123.255273 168.075204 
L 124.32 167.08324 
L 126.449455 164.877223 
L 127.248 164.434981 
L 127.780364 164.352554 
L 128.312727 164.448411 
L 129.111273 164.889565 
L 130.176 165.838359 
L 132.039273 167.526149 
L 133.104 168.180507 
L 134.967273 168.982074 
L 136.564364 169.762538 
L 137.895273 170.678177 
L 138.96 171.669826 
L 140.024727 172.958053 
L 141.355636 174.971538 
L 143.751273 178.740362 
L 144.816 179.897277 
L 145.614545 180.451326 
L 146.679273 180.867875 
L 148.542545 181.434838 
L 149.607273 182.040749 
L 150.938182 183.136989 
L 153.067636 184.976852 
L 154.664727 186.012865 
L 156.528 187.190426 
L 158.125091 188.517549 
L 160.520727 190.601953 
L 162.117818 191.634148 
L 164.247273 192.91839 
L 165.312 193.812417 
L 166.376727 195.006657 
L 167.441455 196.556007 
L 168.506182 198.500277 
L 169.570909 200.874614 
L 170.901818 204.467146 
L 172.498909 209.536635 
L 174.894545 217.279533 
L 175.959273 220.039748 
L 176.757818 221.619094 
L 177.556364 222.716062 
L 178.088727 223.169339 
L 178.621091 223.401258 
L 179.153455 223.417532 
L 179.685818 223.227117 
L 180.218182 222.841414 
L 181.016727 221.928049 
L 181.815273 220.667315 
L 183.146182 218.019793 
L 185.541818 213.019827 
L 186.606545 211.353052 
L 187.405091 210.469716 
L 188.203636 209.900428 
L 189.002182 209.599188 
L 190.066909 209.482562 
L 193.261091 209.376724 
L 194.592 209.029426 
L 196.987636 208.116078 
L 199.383273 207.017748 
L 200.980364 206.034272 
L 202.577455 204.769202 
L 204.706909 202.76323 
L 208.699636 198.64832 
L 211.361455 195.588893 
L 215.620364 190.241295 
L 219.879273 184.999982 
L 222.274909 182.412363 
L 224.138182 180.732718 
L 228.397091 177.249386 
L 229.461818 175.868629 
L 230.526545 174.038563 
L 231.857455 171.140188 
L 234.785455 164.395602 
L 235.584 163.097754 
L 236.382545 162.188813 
L 237.181091 161.662493 
L 237.979636 161.458893 
L 239.044364 161.513476 
L 240.641455 161.686019 
L 241.44 161.533718 
L 242.238545 161.069548 
L 243.037091 160.205796 
L 243.835636 158.885108 
L 244.634182 157.085624 
L 245.698909 153.97165 
L 247.029818 149.122624 
L 249.159273 140.18611 
L 250.756364 133.755614 
L 251.821091 130.278453 
L 252.619636 128.387519 
L 253.152 127.559232 
L 253.684364 127.121835 
L 254.216727 127.099889 
L 254.749091 127.502894 
L 255.281455 128.323562 
L 255.813818 129.53793 
L 256.612364 132.008607 
L 257.677091 136.21416 
L 260.072727 146.325435 
L 260.871273 148.618214 
L 261.403636 149.501067 
L 261.669818 149.71169 
L 261.936 149.756757 
L 262.202182 149.630948 
L 262.468364 149.332053 
L 263.000727 148.224603 
L 263.533091 146.489639 
L 264.331636 142.965444 
L 266.727273 131.175123 
L 267.525818 128.529286 
L 268.058182 127.323486 
L 268.590545 126.542829 
L 269.122909 126.137647 
L 269.655273 126.045547 
L 270.187636 126.203202 
L 270.986182 126.789284 
L 271.784727 127.677754 
L 272.849455 129.198567 
L 274.180364 131.493716 
L 277.108364 137.187164 
L 282.964364 148.268687 
L 288.820364 159.490027 
L 293.611636 170.039611 
L 295.208727 172.747228 
L 298.402909 177.490785 
L 301.863273 182.904676 
L 304.525091 187.369342 
L 306.654545 191.425018 
L 309.050182 195.965967 
L 310.114909 197.57241 
L 311.179636 198.759846 
L 311.978182 199.36186 
L 312.776727 199.743963 
L 313.841455 200.004007 
L 316.503273 200.446443 
L 317.568 200.91487 
L 318.632727 201.641858 
L 319.963636 202.851029 
L 325.553455 208.348409 
L 328.481455 210.940567 
L 330.078545 212.030224 
L 332.740364 213.654759 
L 333.805091 214.685848 
L 334.603636 215.750408 
L 335.668364 217.60859 
L 336.733091 219.933998 
L 338.330182 224.028175 
L 342.322909 234.588249 
L 343.92 238.196556 
L 345.250909 240.732893 
L 346.315636 242.387344 
L 347.380364 243.684797 
L 348.445091 244.637054 
L 349.509818 245.284547 
L 350.574545 245.686327 
L 351.905455 245.94551 
L 354.034909 246.075172 
L 358.293818 246.049996 
L 360.423273 246.123632 
L 362.286545 246.407596 
L 365.746909 246.990157 
L 372.667636 247.411047 
L 373.998545 247.187367 
L 377.192727 246.392431 
L 377.991273 246.465966 
L 378.789818 246.719781 
L 379.854545 247.314641 
L 381.185455 248.370932 
L 382.516364 249.686814 
L 383.847273 251.297848 
L 384.912 252.888965 
L 386.242909 255.343315 
L 387.84 258.87437 
L 390.235636 264.230513 
L 391.300364 266.144481 
L 392.365091 267.648615 
L 393.429818 268.800171 
L 395.026909 270.132354 
L 397.156364 271.604022 
L 398.487273 272.317435 
L 399.818182 272.777014 
L 403.810909 273.793246 
L 405.408 274.663331 
L 408.336 276.330378 
L 410.465455 277.181792 
L 413.925818 278.539178 
L 416.853818 279.722749 
L 418.184727 280.047554 
L 419.249455 280.127022 
L 420.314182 279.999722 
L 421.378909 279.611146 
L 422.177455 279.105732 
L 422.976 278.384011 
L 424.040727 277.065943 
L 425.371636 274.954041 
L 426.436364 273.137945 
L 426.436364 273.137945 
" clip-path="url(#p99affb8edc)" style="fill: none; stroke: #ffa500; stroke-width: 3; stroke-linecap: square"/>
   </g>
   <g id="patch_3">
    <path d="M 7.2 331.2 
L 7.2 7.2 
" style="fill: none; stroke: #000000; stroke-width: 0.8; stroke-linejoin: miter; stroke-linecap: square"/>
   </g>
   <g id="patch_4">
    <path d="M 446.4 331.2 
L 446.4 7.2 
" style="fill: none; stroke: #000000; stroke-width: 0.8; stroke-linejoin: miter; stroke-linecap: square"/>
   </g>
   <g id="patch_5">
    <path d="M 7.2 331.2 
L 446.4 331.2 
" style="fill: none; stroke: #000000; stroke-width: 0.8; stroke-linejoin: miter; stroke-linecap: square"/>
   </g>
   <g id="patch_6">
    <path d="M 7.2 7.2 
L 446.4 7.2 
" style="fill: none; stroke: #000000; stroke-width: 0.8; stroke-linejoin: miter; stroke-linecap: square"/>
   </g>
  </g>
 </g>
 <defs>
  <clipPath id="p99affb8edc">
   <rect x="7.2" y="7.2" width="439.2" height="324"/>
  </clipPath>
 </defs>
</svg>
