<?xml version="1.0" encoding="utf-8" standalone="no"?>
<!DOCTYPE svg PUBLIC "-//W3C//DTD SVG 1.1//EN"
  "http://www.w3.org/Graphics/SVG/1.1/DTD/svg11.dtd">
<svg xmlns:xlink="http://www.w3.org/1999/xlink" width="453.6pt" height="338.4pt" viewBox="0 0 453.6 338.4" xmlns="http://www.w3.org/2000/svg" version="1.1">
 <metadata>
  <rdf:RDF xmlns:dc="http://purl.org/dc/elements/1.1/" xmlns:cc="http://creativecommons.org/ns#" xmlns:rdf="http://www.w3.org/1999/02/22-rdf-syntax-ns#">
   <cc:Work>
    <dc:type rdf:resource="http://purl.org/dc/dcmitype/StillImage"/>
    <dc:date>2025-05-14T16:23:07.207941</dc:date>
    <dc:format>image/svg+xml</dc:format>
    <dc:creator>
     <cc:Agent>
      <dc:title>Matplotlib v3.10.1, https://matplotlib.org/</dc:title>
     </cc:Agent>
    </dc:creator>
   </cc:Work>
  </rdf:RDF>
 </metadata>
 <defs>
  <style type="text/css">*{stroke-linejoin: round; stroke-linecap: butt}</style>
 </defs>
 <g id="figure_1">
  <g id="patch_1">
   <path d="M 0 338.4 
L 453.6 338.4 
L 453.6 0 
L 0 0 
z
" style="fill: #ffffff"/>
  </g>
  <g id="axes_1">
   <g id="patch_2">
    <path d="M 7.2 331.2 
L 446.4 331.2 
L 446.4 7.2 
L 7.2 7.2 
z
" style="fill: #ffffff"/>
   </g>
   <g id="matplotlib.axis_1"/>
   <g id="matplotlib.axis_2"/>
   <g id="line2d_1">
    <path d="M 27.163636 254.306406 
L 31.156364 236.412004 
L 35.149091 219.519135 
L 39.141818 203.627789 
L 42.868364 189.699455 
L 46.594909 176.643546 
L 50.055273 165.301418 
L 53.515636 154.711507 
L 56.709818 145.603907 
L 59.904 137.137269 
L 63.098182 129.311612 
L 66.026182 122.701182 
L 68.954182 116.629343 
L 71.882182 111.096061 
L 74.544 106.53322 
L 77.205818 102.4155 
L 79.601455 99.090113 
L 81.997091 96.125279 
L 84.392727 93.520999 
L 86.522182 91.508768 
L 88.651636 89.781406 
L 90.781091 88.338912 
L 92.910545 87.181322 
L 94.773818 86.402104 
L 96.637091 85.841005 
L 98.500364 85.497991 
L 100.363636 85.373095 
L 102.226909 85.466319 
L 104.090182 85.777662 
L 105.953455 86.307089 
L 107.816727 87.054635 
L 109.68 88.020283 
L 111.809455 89.390972 
L 113.938909 91.046529 
L 116.068364 92.986972 
L 118.197818 95.212265 
L 120.859636 98.215933 
L 123.255273 98.946889 
L 125.650909 99.422822 
L 127.780364 99.631777 
L 129.909818 99.639203 
L 132.039273 99.445083 
L 134.168727 99.049523 
L 136.564364 98.363599 
L 138.96 97.422618 
L 141.355636 96.226632 
L 143.751273 94.77557 
L 146.146909 93.069486 
L 148.542545 91.108362 
L 151.204364 88.630206 
L 153.866182 85.837178 
L 156.528 82.729295 
L 159.456 78.946936 
L 162.384 74.78364 
L 165.312 70.239321 
L 168.506182 64.847349 
L 171.700364 59.002022 
L 172.765091 57.132436 
L 175.959273 55.902584 
L 179.153455 54.909935 
L 182.347636 54.154558 
L 185.541818 53.636473 
L 188.736 53.355607 
L 191.930182 53.312033 
L 195.124364 53.505713 
L 198.318545 53.936667 
L 201.512727 54.604859 
L 204.706909 55.510324 
L 207.901091 56.653062 
L 211.095273 58.033021 
L 214.289455 59.65027 
L 217.483636 61.504757 
L 220.944 63.781543 
L 224.404364 66.336789 
L 227.864727 69.170512 
L 231.325091 72.282608 
L 235.051636 75.945568 
L 238.778182 79.931439 
L 242.504727 84.240276 
L 246.497455 89.215234 
L 250.756364 94.576991 
L 255.547636 99.439869 
L 260.605091 104.900328 
L 265.662545 110.697147 
L 270.72 116.830363 
L 275.777455 123.299851 
L 281.101091 130.473258 
L 286.424727 138.019297 
L 291.748364 145.938021 
L 297.338182 154.653782 
L 302.928 163.78043 
L 308.784 173.782381 
L 314.64 184.235266 
L 320.496 195.139075 
L 326.618182 207.020636 
L 332.740364 219.395135 
L 338.862545 232.262429 
L 345.250909 246.2147 
L 351.639273 260.703571 
L 358.293818 276.366838 
L 364.948364 292.612452 
L 371.602909 309.440337 
L 373.466182 314.256508 
L 373.732364 312.840592 
L 377.192727 283.13251 
L 380.653091 255.390972 
L 383.847273 231.529243 
L 387.041455 209.34313 
L 389.969455 190.478041 
L 392.897455 173.021097 
L 395.825455 156.972299 
L 398.487273 143.604458 
L 401.149091 131.400352 
L 403.544727 121.411673 
L 405.940364 112.365573 
L 408.069818 105.116024 
L 410.199273 98.611195 
L 412.328727 92.851262 
L 414.192 88.422234 
L 416.055273 84.563488 
L 417.652364 81.70982 
L 419.249455 79.275098 
L 420.846545 77.259339 
L 422.177455 75.89957 
L 423.508364 74.830761 
L 424.839273 74.05286 
L 426.170182 73.565902 
L 426.436364 73.503437 
L 426.436364 73.503437 
" clip-path="url(#p47e33ea6cf)" style="fill: none; stroke-dasharray: 11.1,4.8; stroke-dashoffset: 0; stroke: #000000; stroke-width: 3"/>
   </g>
   <g id="line2d_2">
    <path d="M 27.163636 164.593514 
L 28.494545 173.468923 
L 29.825455 180.955973 
L 31.156364 187.003724 
L 32.221091 190.835689 
L 33.285818 193.804859 
L 34.084364 195.536505 
L 35.149091 197.140069 
L 35.947636 197.918523 
L 36.746182 198.319649 
L 37.278545 198.426224 
L 38.077091 198.343403 
L 38.875636 198.026459 
L 39.940364 197.264561 
L 41.005091 196.234701 
L 42.602182 194.356512 
L 44.997818 191.181723 
L 48.724364 185.583483 
L 49.256727 185.208946 
L 49.789091 185.141258 
L 50.055273 185.228811 
L 50.587636 185.779815 
L 51.12 186.856313 
L 51.652364 188.578829 
L 52.184727 191.148612 
L 52.717091 194.663677 
L 53.249455 199.300834 
L 54.048 208.788791 
L 54.846545 221.963934 
L 55.645091 239.628112 
L 55.911273 246.66307 
L 56.177455 248.832618 
L 56.709818 230.416781 
L 58.040727 182.58703 
L 59.105455 151.115823 
L 60.170182 125.788716 
L 60.436364 120.406682 
L 61.234909 100.600357 
L 61.767273 91.890038 
L 62.299636 85.930595 
L 62.832 82.130205 
L 63.364364 79.961864 
L 63.896727 79.003608 
L 64.162909 78.879415 
L 64.429091 78.917582 
L 64.961455 79.390214 
L 65.76 80.610762 
L 66.824727 82.156118 
L 67.357091 82.534368 
L 67.623273 85.064596 
L 69.486545 134.111603 
L 71.083636 170.951397 
L 72.680727 203.089584 
L 74.011636 225.879967 
L 75.076364 240.924178 
L 75.874909 249.860806 
L 76.673455 256.353964 
L 77.205818 258.931217 
L 77.738182 260.012837 
L 78.004364 260.172533 
L 78.270545 260.051303 
L 78.536727 259.688134 
L 79.069091 258.239829 
L 79.601455 255.794467 
L 80.133818 251.824826 
L 80.932364 245.850689 
L 81.730909 241.165269 
L 82.529455 237.487809 
L 83.594182 233.755704 
L 84.658909 230.936991 
L 85.989818 228.127047 
L 89.450182 221.219442 
L 90.781091 217.924393 
L 92.112 214.05915 
L 94.773818 205.909149 
L 97.169455 199.472456 
L 98.500364 195.232149 
L 99.565091 191.12384 
L 100.629818 186.001296 
L 101.694545 179.401558 
L 102.493091 173.135731 
L 103.291636 166.603655 
L 104.356364 176.934523 
L 105.154909 182.4154 
L 105.687273 184.57591 
L 105.953455 185.130443 
L 106.219636 185.303899 
L 106.485818 185.07594 
L 106.752 184.426489 
L 107.284364 181.666458 
L 107.816727 176.982197 
L 108.349091 170.278307 
L 109.147636 156.548894 
L 110.744727 124.493081 
L 112.341818 106.034112 
L 113.140364 98.653436 
L 113.938909 93.210428 
L 114.471273 90.941595 
L 114.737455 90.274878 
L 115.003636 89.949648 
L 115.269818 89.988974 
L 115.536 90.416417 
L 115.802182 91.256081 
L 116.334545 94.354834 
L 116.866909 99.449385 
L 117.133091 104.469269 
L 120.061091 193.963375 
L 121.392 226.223675 
L 122.722909 252.698844 
L 123.787636 269.603572 
L 124.852364 282.552446 
L 125.650909 289.614318 
L 126.183273 293.03741 
L 126.715636 295.416306 
L 127.248 296.713232 
L 127.514182 296.960338 
L 127.780364 297.006551 
L 128.046545 296.868381 
L 128.578909 296.074536 
L 129.111273 294.711408 
L 129.909818 291.8312 
L 130.176 290.685005 
L 130.442182 286.292267 
L 132.039273 250.33256 
L 133.902545 213.531285 
L 136.830545 160.668896 
L 139.492364 115.844297 
L 140.557091 100.851605 
L 141.355636 92.267042 
L 141.888 88.528783 
L 142.154182 87.422756 
L 142.420364 86.939572 
L 142.686545 87.129706 
L 142.952727 88.092247 
L 143.218909 89.949034 
L 143.751273 94.702132 
L 144.283636 95.192778 
L 144.816 96.143626 
L 145.348364 97.563981 
L 145.880727 99.563764 
L 146.679273 103.983978 
L 147.477818 109.085902 
L 147.744 109.239116 
L 148.276364 107.662053 
L 148.542545 107.216334 
L 148.808727 107.011154 
L 149.074909 107.076077 
L 149.341091 107.43635 
L 149.607273 108.112969 
L 150.139636 110.479362 
L 150.672 114.263933 
L 151.204364 119.560873 
L 152.002909 130.174134 
L 153.067636 148.689844 
L 155.995636 204.572703 
L 156.528 210.477318 
L 156.794182 212.284895 
L 157.060364 213.202439 
L 157.326545 213.11392 
L 157.592727 211.877229 
L 157.858909 209.345404 
L 158.391273 199.998047 
L 158.923636 184.041102 
L 159.189818 175.426773 
L 159.722182 183.947229 
L 159.988364 186.188534 
L 160.254545 187.231025 
L 160.520727 187.23106 
L 160.786909 186.495233 
L 161.319273 183.347349 
L 162.117818 175.944007 
L 163.714909 159.677721 
L 164.513455 153.934694 
L 165.045818 151.782523 
L 165.312 151.269563 
L 165.578182 151.235364 
L 165.844364 151.648305 
L 166.110545 152.522906 
L 166.642909 155.904965 
L 167.175273 161.486474 
L 167.707636 169.617339 
L 168.24 180.365002 
L 169.038545 202.176149 
L 169.837091 231.517604 
L 170.635636 269.609656 
L 170.901818 270.876872 
L 171.966545 235.888827 
L 173.031273 208.974466 
L 173.829818 193.706535 
L 174.628364 182.418156 
L 175.160727 177.004617 
L 175.693091 173.18179 
L 176.225455 170.852362 
L 176.491636 170.213304 
L 176.757818 169.886696 
L 177.290182 169.87783 
L 178.088727 170.068992 
L 179.419636 170.718539 
L 181.282909 171.991378 
L 183.412364 173.780283 
L 185.808 176.147704 
L 188.469818 178.825457 
L 189.268364 179.383817 
L 189.800727 179.583397 
L 190.333091 179.599118 
L 190.865455 179.320808 
L 191.397818 178.686692 
L 192.196364 177.016573 
L 193.527273 193.87935 
L 194.059636 194.958078 
L 194.592 196.762486 
L 195.390545 200.674156 
L 196.189091 205.845463 
L 197.253818 214.269974 
L 198.850909 229.065448 
L 206.836364 306.654384 
L 207.634909 314.014466 
L 207.901091 312.288708 
L 209.498182 254.950875 
L 210.030545 240.074217 
L 210.296727 235.972526 
L 210.829091 232.797289 
L 211.627636 226.564785 
L 212.692364 216.110039 
L 214.555636 194.329353 
L 216.951273 166.323299 
L 218.282182 153.378599 
L 219.346909 145.076534 
L 220.411636 138.636944 
L 221.476364 133.860127 
L 222.541091 130.258351 
L 224.404364 124.448295 
L 224.936727 122.807397 
L 226.533818 118.918541 
L 226.8 118.43922 
L 230.792727 117.637565 
L 231.591273 117.753454 
L 232.389818 118.098049 
L 233.188364 118.756058 
L 233.986909 119.797689 
L 234.785455 121.310321 
L 235.584 123.381294 
L 236.382545 126.116439 
L 237.181091 129.590932 
L 237.979636 133.870327 
L 239.044364 140.958955 
L 240.109091 149.729141 
L 241.44 163.161273 
L 242.770909 179.247264 
L 243.569455 190.693781 
L 244.634182 213.087498 
L 245.698909 239.738875 
L 246.231273 254.731479 
L 246.497455 256.802663 
L 251.554909 191.446542 
L 252.619636 180.823467 
L 253.418182 174.391927 
L 254.216727 169.548633 
L 254.749091 167.319916 
L 255.281455 165.976123 
L 255.547636 165.658916 
L 255.813818 165.590289 
L 256.08 165.779265 
L 256.346182 166.234885 
L 256.878545 167.982016 
L 257.410909 170.940406 
L 257.943273 175.149524 
L 258.741818 183.959606 
L 259.540364 195.971251 
L 260.072727 205.869743 
L 261.137455 239.21877 
L 261.669818 258.166465 
L 263.533091 224.842751 
L 264.331636 214.873629 
L 265.130182 207.05826 
L 265.928727 200.947069 
L 266.727273 196.215564 
L 267.525818 192.566755 
L 268.324364 189.744268 
L 269.389091 187.021684 
L 270.187636 185.522492 
L 271.252364 184.12022 
L 272.050909 183.37284 
L 272.849455 182.846459 
L 273.648 182.514891 
L 274.446545 182.371123 
L 275.245091 182.428093 
L 275.777455 182.590427 
L 276.576 183.075972 
L 276.842182 183.36918 
L 277.374545 184.472083 
L 277.906909 185.985469 
L 278.705455 189.201867 
L 279.504 193.716147 
L 280.302545 199.662028 
L 281.101091 207.336957 
L 281.899636 216.914275 
L 282.698182 228.680887 
L 283.762909 248.313264 
L 284.827636 273.173927 
L 285.626182 295.759818 
L 285.892364 291.264924 
L 286.957091 241.921102 
L 287.755636 213.699308 
L 288.554182 192.937298 
L 289.086545 183.16867 
L 289.618909 176.455272 
L 290.151273 172.617242 
L 290.417455 171.669325 
L 290.683636 171.394043 
L 290.949818 171.634678 
L 291.216 172.442706 
L 291.748364 175.335076 
L 292.546909 181.980601 
L 293.345455 189.393932 
L 294.144 193.301889 
L 294.676364 194.988222 
L 294.942545 195.464805 
L 295.208727 195.654158 
L 295.474909 195.50421 
L 295.741091 194.969209 
L 296.007273 194.037998 
L 296.539636 190.84732 
L 297.072 185.568946 
L 297.604364 177.870466 
L 298.136727 167.642618 
L 299.201455 163.985698 
L 300 162.029437 
L 300.532364 161.102501 
L 301.064727 160.486416 
L 301.597091 160.185958 
L 302.129455 160.199757 
L 302.661818 160.545212 
L 303.194182 161.21214 
L 303.726545 162.214744 
L 304.525091 164.352624 
L 305.323636 167.264649 
L 306.122182 170.968953 
L 307.186909 177.169101 
L 308.251636 184.836147 
L 309.316364 194.00788 
L 310.114909 200.608592 
L 312.510545 202.270356 
L 313.841455 203.491263 
L 314.906182 204.793667 
L 315.970909 207.018793 
L 316.769455 209.437697 
L 318.100364 214.332554 
L 319.697455 221.189579 
L 323.157818 236.549496 
L 323.956364 239.257534 
L 324.754909 241.228832 
L 325.287273 242.04102 
L 325.819636 242.382999 
L 326.085818 242.366575 
L 326.352 242.219699 
L 327.949091 240.388132 
L 328.747636 238.736727 
L 329.546182 236.475031 
L 330.610909 232.519365 
L 331.941818 226.359929 
L 334.337455 214.830169 
L 335.934545 208.663702 
L 336.733091 203.258985 
L 337.531636 195.939966 
L 338.596364 183.255362 
L 339.661091 167.464808 
L 340.992 143.873911 
L 342.589091 111.042549 
L 343.653818 89.275785 
L 345.517091 54.096043 
L 346.581818 33.621017 
L 346.848 33.630954 
L 347.380364 37.685454 
L 347.912727 43.491121 
L 348.711273 55.152369 
L 349.509818 70.078295 
L 350.574545 94.359416 
L 352.171636 137.502879 
L 354.833455 211.497057 
L 355.632 228.712971 
L 356.164364 237.340231 
L 356.696727 242.91919 
L 356.962909 244.329968 
L 357.229091 244.651494 
L 357.495273 243.818615 
L 358.027636 238.866126 
L 358.56 245.112403 
L 359.092364 248.210603 
L 359.358545 248.687893 
L 359.624727 248.512132 
L 359.890909 247.736522 
L 360.955636 246.356985 
L 362.552727 243.645642 
L 369.739636 230.256431 
L 371.602909 227.447514 
L 373.466182 225.022106 
L 375.329455 222.99605 
L 376.926545 221.6531 
L 379.588364 219.6936 
L 380.120727 219.617801 
L 380.653091 219.801966 
L 381.185455 220.317796 
L 381.717818 221.332645 
L 382.250182 222.887385 
L 382.782545 225.178901 
L 383.314909 228.314303 
L 383.847273 232.436552 
L 384.645818 240.836695 
L 385.444364 252.419203 
L 385.710545 257.090568 
L 385.976727 258.556711 
L 386.242909 252.029563 
L 387.307636 215.278916 
L 388.372364 186.114472 
L 389.170909 169.049859 
L 389.969455 156.039358 
L 390.768 146.636304 
L 391.566545 140.522839 
L 392.098909 137.993577 
L 392.631273 136.579419 
L 392.897455 136.218146 
L 393.163636 136.062351 
L 393.429818 136.105575 
L 393.962182 136.783458 
L 394.494545 137.977969 
L 395.559273 141.199318 
L 397.156364 146.034194 
L 397.954909 147.793017 
L 398.487273 148.570795 
L 399.019636 148.967444 
L 399.285818 149.005295 
L 399.552 148.926327 
L 400.084364 148.385734 
L 400.616727 147.258042 
L 401.149091 145.462579 
L 402.48 132.923394 
L 403.012364 129.768127 
L 403.544727 127.740781 
L 404.077091 126.796956 
L 404.343273 126.716671 
L 404.609455 126.888652 
L 404.875636 127.305333 
L 405.408 128.86584 
L 405.940364 131.297297 
L 406.738909 136.30282 
L 409.134545 153.601072 
L 409.400727 154.629343 
L 409.666909 155.141969 
L 409.933091 155.06983 
L 410.199273 154.251286 
L 410.465455 152.591516 
L 410.997818 146.298293 
L 411.530182 135.679308 
L 412.062545 120.022094 
L 412.594909 98.897661 
L 413.127273 71.705674 
L 413.393455 70.278278 
L 414.192 105.030859 
L 414.724364 120.506085 
L 415.256727 130.817905 
L 415.789091 136.654033 
L 416.055273 138.167279 
L 416.321455 138.849902 
L 416.587636 138.824779 
L 416.853818 138.102812 
L 417.12 136.854561 
L 417.652364 132.885104 
L 418.450909 124.428351 
L 421.378909 89.930143 
L 422.177455 83.776721 
L 422.709818 80.929654 
L 423.242182 79.124606 
L 423.508364 78.606871 
L 423.774545 78.335644 
L 424.040727 78.29918 
L 424.306909 78.481958 
L 424.839273 79.424765 
L 425.371636 81.076986 
L 426.170182 84.49012 
L 426.436364 85.785352 
L 426.436364 85.785352 
" clip-path="url(#p47e33ea6cf)" style="fill: none; stroke: #ff0000; stroke-width: 3; stroke-linecap: square"/>
   </g>
   <g id="patch_3">
    <path d="M 7.2 331.2 
L 7.2 7.2 
" style="fill: none; stroke: #000000; stroke-width: 0.8; stroke-linejoin: miter; stroke-linecap: square"/>
   </g>
   <g id="patch_4">
    <path d="M 446.4 331.2 
L 446.4 7.2 
" style="fill: none; stroke: #000000; stroke-width: 0.8; stroke-linejoin: miter; stroke-linecap: square"/>
   </g>
   <g id="patch_5">
    <path d="M 7.2 331.2 
L 446.4 331.2 
" style="fill: none; stroke: #000000; stroke-width: 0.8; stroke-linejoin: miter; stroke-linecap: square"/>
   </g>
   <g id="patch_6">
    <path d="M 7.2 7.2 
L 446.4 7.2 
" style="fill: none; stroke: #000000; stroke-width: 0.8; stroke-linejoin: miter; stroke-linecap: square"/>
   </g>
  </g>
 </g>
 <defs>
  <clipPath id="p47e33ea6cf">
   <rect x="7.2" y="7.2" width="439.2" height="324"/>
  </clipPath>
 </defs>
</svg>
