<?xml version="1.0" encoding="utf-8" standalone="no"?>
<!DOCTYPE svg PUBLIC "-//W3C//DTD SVG 1.1//EN"
  "http://www.w3.org/Graphics/SVG/1.1/DTD/svg11.dtd">
<svg xmlns:xlink="http://www.w3.org/1999/xlink" width="453.6pt" height="338.4pt" viewBox="0 0 453.6 338.4" xmlns="http://www.w3.org/2000/svg" version="1.1">
 <metadata>
  <rdf:RDF xmlns:dc="http://purl.org/dc/elements/1.1/" xmlns:cc="http://creativecommons.org/ns#" xmlns:rdf="http://www.w3.org/1999/02/22-rdf-syntax-ns#">
   <cc:Work>
    <dc:type rdf:resource="http://purl.org/dc/dcmitype/StillImage"/>
    <dc:date>2025-05-14T16:25:46.618992</dc:date>
    <dc:format>image/svg+xml</dc:format>
    <dc:creator>
     <cc:Agent>
      <dc:title>Matplotlib v3.10.1, https://matplotlib.org/</dc:title>
     </cc:Agent>
    </dc:creator>
   </cc:Work>
  </rdf:RDF>
 </metadata>
 <defs>
  <style type="text/css">*{stroke-linejoin: round; stroke-linecap: butt}</style>
 </defs>
 <g id="figure_1">
  <g id="patch_1">
   <path d="M 0 338.4 
L 453.6 338.4 
L 453.6 0 
L 0 0 
z
" style="fill: #ffffff"/>
  </g>
  <g id="axes_1">
   <g id="patch_2">
    <path d="M 7.2 331.2 
L 446.4 331.2 
L 446.4 7.2 
L 7.2 7.2 
z
" style="fill: #ffffff"/>
   </g>
   <g id="matplotlib.axis_1"/>
   <g id="matplotlib.axis_2"/>
   <g id="line2d_1">
    <path d="M 27.163636 81.434801 
L 32.487273 85.918358 
L 37.810909 90.123806 
L 43.400727 94.252235 
L 48.990545 98.098956 
L 54.580364 101.676609 
L 60.170182 104.998116 
L 66.026182 108.216884 
L 71.882182 111.183105 
L 78.004364 114.030101 
L 84.126545 116.633908 
L 90.514909 119.109782 
L 97.169455 121.447154 
L 104.090182 123.639354 
L 111.277091 125.683853 
L 118.996364 127.647154 
L 127.248 129.516493 
L 136.564364 131.39261 
L 147.211636 133.305401 
L 161.851636 135.688403 
L 188.736 140.028859 
L 199.649455 142.041071 
L 208.965818 143.981303 
L 217.217455 145.921166 
L 224.936727 147.962136 
L 232.123636 150.08915 
L 239.044364 152.370061 
L 245.698909 154.801342 
L 252.087273 157.37525 
L 258.209455 160.080286 
L 264.065455 162.901721 
L 269.921455 165.966854 
L 275.777455 169.290336 
L 281.367273 172.71726 
L 286.957091 176.405746 
L 292.546909 180.368496 
L 297.870545 184.409249 
L 303.194182 188.721422 
L 308.517818 193.316022 
L 313.841455 198.204067 
L 318.366545 202.597894 
L 318.898909 201.382631 
L 321.028364 196.000078 
L 323.157818 191.245242 
L 325.021091 187.579473 
L 326.884364 184.357168 
L 328.747636 181.561138 
L 330.610909 179.173984 
L 332.474182 177.178468 
L 334.071273 175.766601 
L 335.668364 174.618868 
L 337.265455 173.724323 
L 338.862545 173.072125 
L 340.459636 172.65131 
L 342.056727 172.45108 
L 343.653818 172.460438 
L 345.250909 172.668515 
L 347.114182 173.147959 
L 348.977455 173.865739 
L 351.106909 174.955773 
L 353.236364 176.308677 
L 355.632 178.112786 
L 358.293818 180.424553 
L 361.221818 183.282715 
L 364.682182 186.997035 
L 368.941091 191.912951 
L 382.250182 207.533025 
L 385.710545 211.114216 
L 388.638545 213.825493 
L 391.300364 215.976515 
L 393.696 217.613796 
L 395.825455 218.800793 
L 397.688727 219.611024 
L 399.552 220.189951 
L 401.415273 220.52029 
L 403.012364 220.592455 
L 404.609455 220.458369 
L 406.206545 220.107147 
L 407.803636 219.527878 
L 409.400727 218.70965 
L 410.997818 217.641605 
L 412.594909 216.312823 
L 414.192 214.712401 
L 415.789091 212.829456 
L 417.652364 210.261095 
L 419.515636 207.276019 
L 421.378909 203.85696 
L 423.242182 199.986653 
L 425.105455 195.647706 
L 426.436364 192.251989 
L 426.436364 192.251989 
" clip-path="url(#p620081d48b)" style="fill: none; stroke-dasharray: 11.1,4.8; stroke-dashoffset: 0; stroke: #000000; stroke-width: 3"/>
   </g>
   <g id="line2d_2">
    <path d="M 27.163636 249.447202 
L 27.696 255.092905 
L 27.962182 256.863491 
L 28.228364 256.301098 
L 28.494545 256.182531 
L 29.293091 254.194125 
L 29.559273 254.403321 
L 29.825455 255.317437 
L 30.357818 258.312459 
L 30.624 259.017436 
L 30.890182 259.138078 
L 31.156364 258.480723 
L 31.422545 258.645036 
L 31.688727 259.146979 
L 32.221091 260.685857 
L 32.753455 261.252446 
L 33.019636 261.10389 
L 33.285818 260.461826 
L 33.818182 257.885956 
L 34.350545 256.127119 
L 34.616727 255.471234 
L 34.882909 255.277303 
L 35.415273 255.176895 
L 35.681455 253.896235 
L 35.947636 253.202775 
L 36.213818 253.077634 
L 36.48 252.676315 
L 36.746182 251.066294 
L 37.278545 249.800083 
L 37.544727 249.580243 
L 37.810909 248.583617 
L 38.077091 248.282488 
L 38.609455 248.025069 
L 39.674182 246.242659 
L 40.206545 246.074088 
L 40.472727 246.091087 
L 40.738909 245.880947 
L 41.271273 244.498851 
L 41.803636 243.44461 
L 42.069818 242.540031 
L 43.666909 239.939402 
L 43.933091 239.670704 
L 44.199273 240.635403 
L 44.997818 241.58806 
L 45.264 241.107281 
L 45.796364 240.732955 
L 46.062545 240.673483 
L 46.328727 240.080976 
L 47.127273 239.383904 
L 47.659636 238.669162 
L 48.192 238.792319 
L 48.458182 241.028436 
L 48.990545 241.675165 
L 49.256727 241.499427 
L 50.055273 239.622538 
L 50.853818 238.517519 
L 51.652364 238.584444 
L 52.450909 237.472429 
L 52.717091 238.409838 
L 52.983273 238.630503 
L 53.515636 238.73671 
L 53.781818 238.373128 
L 54.048 238.204482 
L 54.314182 237.88868 
L 54.580364 237.814908 
L 55.112727 237.036586 
L 56.177455 236.438918 
L 56.709818 237.05524 
L 56.976 238.369099 
L 57.508364 238.896542 
L 57.774545 239.087695 
L 58.040727 238.828318 
L 58.306909 238.846191 
L 59.105455 238.465175 
L 59.371636 238.400779 
L 59.637818 238.572892 
L 60.968727 238.556345 
L 61.234909 243.730198 
L 61.501091 244.238171 
L 62.299636 244.145267 
L 63.098182 244.618207 
L 64.429091 244.481619 
L 64.695273 244.598176 
L 65.227636 245.416496 
L 65.493818 247.560854 
L 65.76 248.048282 
L 66.292364 248.435947 
L 66.558545 248.305087 
L 66.824727 248.361206 
L 69.486545 246.108902 
L 69.752727 247.070284 
L 70.018909 246.976349 
L 70.551273 246.191105 
L 71.083636 245.540373 
L 71.882182 244.356228 
L 72.680727 243.019344 
L 73.213091 242.386651 
L 73.745455 242.33048 
L 74.011636 242.539162 
L 74.277818 242.479014 
L 75.076364 241.495424 
L 75.342545 241.402235 
L 76.141091 240.554715 
L 76.939636 239.519447 
L 77.472 238.955426 
L 77.738182 238.789115 
L 78.004364 238.841327 
L 78.270545 241.126839 
L 78.536727 241.226155 
L 79.069091 240.544409 
L 79.867636 240.362315 
L 80.133818 240.199683 
L 80.4 239.82605 
L 80.666182 238.995498 
L 81.198545 235.801247 
L 81.730909 233.00455 
L 82.263273 231.735433 
L 82.529455 231.700628 
L 83.594182 230.138663 
L 83.860364 229.98178 
L 85.457455 227.377131 
L 86.256 225.097852 
L 86.522182 224.252061 
L 86.788364 225.79431 
L 87.054545 223.741972 
L 87.586909 217.898602 
L 88.119273 215.604769 
L 88.917818 212.729051 
L 89.450182 209.258131 
L 90.248727 203.129217 
L 90.781091 199.937548 
L 91.047273 199.012665 
L 91.579636 193.56576 
L 92.112 187.966308 
L 93.176727 179.861787 
L 93.709091 175.774677 
L 94.773818 167.451447 
L 95.04 165.78311 
L 95.306182 174.583878 
L 96.370909 170.521663 
L 96.637091 169.572439 
L 97.169455 168.560513 
L 97.701818 167.039156 
L 98.234182 164.623693 
L 98.766545 159.921648 
L 99.298909 154.668388 
L 100.097455 150.235639 
L 100.363636 149.281245 
L 101.162182 147.995265 
L 101.694545 147.43378 
L 101.960727 147.364415 
L 102.759273 146.838903 
L 103.025455 146.84008 
L 103.291636 146.619064 
L 103.557818 146.640166 
L 103.824 147.778199 
L 104.356364 147.287589 
L 104.622545 146.921541 
L 104.888727 147.243892 
L 106.219636 147.638346 
L 106.485818 147.395034 
L 107.018182 147.549143 
L 107.284364 147.86175 
L 107.816727 147.965823 
L 108.082909 148.324112 
L 108.349091 148.103851 
L 108.881455 148.037242 
L 109.946182 148.394495 
L 110.212364 148.134644 
L 110.478545 148.097109 
L 112.075636 147.076264 
L 112.341818 149.017128 
L 112.608 148.898184 
L 112.874182 148.627958 
L 113.140364 148.580626 
L 113.406545 148.923571 
L 113.672727 149.035176 
L 115.003636 148.851748 
L 115.536 149.530913 
L 116.334545 150.158128 
L 116.600727 150.511343 
L 117.133091 150.106197 
L 117.399273 150.475282 
L 117.665455 151.117157 
L 118.464 152.051573 
L 118.730182 151.860297 
L 118.996364 152.10217 
L 119.262545 152.092461 
L 119.794909 153.262534 
L 120.593455 156.0632 
L 120.859636 157.6739 
L 121.658182 159.511182 
L 122.190545 161.557191 
L 122.989091 163.275775 
L 123.521455 164.396181 
L 124.053818 166.398615 
L 125.384727 172.798484 
L 126.449455 179.130612 
L 127.248 181.590185 
L 128.046545 183.203089 
L 129.111273 185.558254 
L 129.377455 187.436074 
L 129.643636 187.218736 
L 130.176 187.561777 
L 130.442182 188.608526 
L 131.240727 189.904934 
L 131.506909 189.916767 
L 131.773091 190.086712 
L 132.305455 189.99283 
L 132.571636 190.304875 
L 133.370182 191.870851 
L 133.636364 192.643968 
L 134.434909 192.718986 
L 134.701091 193.015064 
L 135.499636 193.340847 
L 136.298182 193.292541 
L 136.564364 193.382666 
L 137.096727 193.798232 
L 137.362909 193.967035 
L 137.629091 193.956598 
L 137.895273 194.074743 
L 138.427636 193.280532 
L 138.693818 192.717362 
L 138.96 192.78182 
L 139.492364 191.511377 
L 140.290909 188.902251 
L 140.823273 187.844178 
L 141.355636 187.578833 
L 142.154182 186.910746 
L 142.952727 185.348747 
L 143.218909 185.154232 
L 143.751273 184.581511 
L 144.549818 183.664231 
L 145.614545 182.31884 
L 146.146909 181.386093 
L 146.413091 181.517124 
L 147.211636 179.625734 
L 147.477818 179.336731 
L 147.744 178.852827 
L 148.010182 178.61156 
L 148.542545 177.668218 
L 149.341091 175.657541 
L 149.873455 175.134627 
L 150.139636 175.177526 
L 150.405818 175.350113 
L 150.672 175.244977 
L 150.938182 175.014753 
L 151.204364 174.53753 
L 153.6 167.364263 
L 153.866182 167.386805 
L 154.398545 168.37705 
L 154.664727 169.153687 
L 154.930909 169.399869 
L 155.197091 169.475677 
L 155.463273 169.174508 
L 156.794182 165.967328 
L 157.060364 165.591219 
L 157.592727 165.7691 
L 158.391273 166.241592 
L 158.923636 165.852984 
L 159.189818 165.862095 
L 159.722182 166.229215 
L 159.988364 166.566523 
L 160.254545 167.143756 
L 160.520727 167.310664 
L 161.053091 167.104044 
L 161.319273 167.47334 
L 161.851636 169.077703 
L 162.384 171.122632 
L 162.916364 172.47393 
L 163.182545 172.762669 
L 163.714909 173.483468 
L 165.578182 176.436706 
L 167.707636 181.824078 
L 168.506182 183.668216 
L 169.038545 185.554743 
L 169.570909 187.401321 
L 172.232727 198.064249 
L 172.498909 198.796671 
L 172.765091 198.938727 
L 173.031273 199.488467 
L 173.563636 199.1885 
L 174.362182 197.875791 
L 175.160727 196.963971 
L 176.225455 195.834303 
L 178.621091 186.316291 
L 179.153455 181.453772 
L 179.685818 175.773105 
L 180.218182 172.209515 
L 181.549091 156.775704 
L 181.815273 155.173904 
L 182.081455 154.285802 
L 182.347636 154.308028 
L 182.88 154.657328 
L 183.146182 154.616404 
L 183.944727 154.036889 
L 184.477091 153.132197 
L 184.743273 153.264764 
L 185.009455 153.578635 
L 185.541818 156.41429 
L 186.074182 162.177542 
L 186.872727 172.386166 
L 187.405091 174.635968 
L 187.671273 174.121797 
L 187.937455 173.939106 
L 188.203636 173.438788 
L 188.469818 173.177471 
L 189.002182 172.009592 
L 190.066909 174.841341 
L 190.599273 176.80861 
L 190.865455 176.855538 
L 191.131636 176.021535 
L 191.664 175.230511 
L 191.930182 174.502382 
L 192.196364 174.372694 
L 192.462545 174.07436 
L 192.728727 174.171841 
L 192.994909 173.366877 
L 193.261091 173.239541 
L 193.527273 173.430457 
L 194.059636 174.664251 
L 195.124364 179.510328 
L 195.390545 179.774927 
L 195.922909 179.057349 
L 196.189091 178.153894 
L 196.455273 177.890901 
L 196.721455 177.189572 
L 196.987636 176.837832 
L 197.52 175.842628 
L 197.786182 176.184949 
L 198.318545 177.735651 
L 198.584727 179.274389 
L 199.117091 180.060436 
L 200.181818 176.006507 
L 200.448 175.415449 
L 200.714182 175.321979 
L 201.246545 174.439153 
L 202.577455 169.997485 
L 202.843636 169.816726 
L 203.376 168.597065 
L 203.642182 167.866408 
L 203.908364 167.560191 
L 204.174545 167.688001 
L 204.440727 168.176943 
L 204.973091 169.367382 
L 205.239273 168.982372 
L 205.505455 168.199626 
L 207.634909 155.224835 
L 208.167273 152.701014 
L 208.965818 150.509096 
L 209.498182 148.64641 
L 209.764364 148.174427 
L 210.030545 147.320332 
L 210.562909 146.747997 
L 211.095273 147.260184 
L 211.893818 148.918778 
L 212.16 148.922324 
L 213.224727 151.393651 
L 213.490909 151.193913 
L 214.023273 149.326206 
L 214.555636 146.143183 
L 215.354182 143.022572 
L 215.620364 142.627012 
L 215.886545 141.932222 
L 216.152727 142.141388 
L 216.418909 141.606343 
L 216.685091 141.702814 
L 216.951273 142.060734 
L 217.217455 142.137227 
L 217.483636 141.983083 
L 217.749818 141.448687 
L 218.548364 138.510925 
L 218.814545 137.269661 
L 219.080727 136.776716 
L 219.613091 136.529612 
L 219.879273 136.759511 
L 220.145455 136.272956 
L 220.411636 136.045076 
L 221.210182 133.051854 
L 221.742545 129.9396 
L 222.541091 122.168507 
L 223.073455 117.435931 
L 223.605818 114.985145 
L 224.138182 113.38022 
L 225.469091 108.842625 
L 226.001455 108.056947 
L 226.8 106.802235 
L 227.332364 105.337936 
L 227.598545 104.884404 
L 228.130909 105.005771 
L 229.195636 106.544069 
L 229.461818 106.573845 
L 230.792727 107.559946 
L 231.058909 108.060598 
L 231.857455 108.149696 
L 232.123636 108.537111 
L 232.389818 109.16689 
L 233.454545 116.047914 
L 235.584 130.74991 
L 236.648727 137.863485 
L 237.447273 146.203384 
L 238.512 153.147453 
L 239.576727 158.896695 
L 240.109091 161.351712 
L 240.907636 166.208797 
L 241.706182 171.777657 
L 242.770909 175.522296 
L 243.835636 179.614445 
L 244.101818 180.021005 
L 244.900364 181.818478 
L 245.166545 182.237651 
L 245.698909 183.735825 
L 245.965091 184.480668 
L 246.231273 184.644977 
L 246.763636 185.68415 
L 247.562182 187.431413 
L 247.828364 187.661795 
L 248.360727 187.674681 
L 248.626909 188.598492 
L 249.159273 191.831753 
L 249.691636 192.634373 
L 249.957818 192.504808 
L 250.224 192.624138 
L 252.353455 187.663875 
L 253.152 185.092267 
L 253.418182 183.996202 
L 253.950545 181.099732 
L 255.015273 175.215334 
L 255.813818 167.412929 
L 256.346182 162.341711 
L 256.878545 159.493485 
L 257.144727 158.751399 
L 257.410909 158.357858 
L 257.943273 156.637272 
L 258.209455 155.831685 
L 258.475636 155.847486 
L 258.741818 156.530144 
L 259.008 156.596191 
L 260.338909 163.716999 
L 260.871273 164.995711 
L 261.137455 165.745873 
L 261.669818 165.93139 
L 261.936 165.399417 
L 262.202182 165.626121 
L 262.468364 166.307042 
L 262.734545 166.677426 
L 263.000727 167.477448 
L 263.266909 167.204518 
L 263.533091 168.05986 
L 264.065455 168.722768 
L 264.597818 168.529719 
L 264.864 168.627911 
L 265.396364 167.308364 
L 265.662545 166.612591 
L 265.928727 166.435799 
L 266.194909 166.089853 
L 267.259636 165.812235 
L 267.525818 164.791355 
L 267.792 164.261612 
L 268.058182 162.81652 
L 268.590545 158.111824 
L 269.655273 148.38505 
L 270.187636 145.549553 
L 270.72 141.018207 
L 272.583273 124.136548 
L 273.115636 119.91256 
L 273.381818 118.981287 
L 273.914182 116.591053 
L 274.978909 113.595057 
L 275.511273 112.650722 
L 276.309818 112.169171 
L 277.108364 112.542242 
L 277.374545 112.798809 
L 277.640727 112.781973 
L 278.173091 113.756943 
L 279.237818 117.327627 
L 280.302545 121.595154 
L 280.834909 125.516612 
L 282.698182 145.261998 
L 283.230545 153.463238 
L 284.029091 158.679524 
L 286.158545 169.880604 
L 286.690909 174.725803 
L 287.489455 182.808362 
L 288.021818 185.760784 
L 288.288 186.363245 
L 288.554182 186.361796 
L 289.086545 184.354675 
L 289.618909 181.740308 
L 290.151273 180.747624 
L 290.417455 177.47954 
L 290.949818 179.415269 
L 291.216 180.386974 
L 291.482182 180.518549 
L 291.748364 179.887463 
L 292.280727 174.187791 
L 292.546909 169.130916 
L 293.345455 149.51455 
L 293.611636 146.907443 
L 293.877818 146.730353 
L 294.144 148.284154 
L 294.410182 151.753783 
L 294.676364 153.574632 
L 295.208727 160.031357 
L 295.474909 162.502298 
L 295.741091 163.24614 
L 296.007273 162.820137 
L 296.273455 161.919078 
L 296.539636 161.740829 
L 296.805818 161.207557 
L 297.072 161.526028 
L 297.338182 163.091364 
L 297.870545 169.378012 
L 298.669091 179.845345 
L 298.935273 179.058877 
L 299.201455 180.689504 
L 299.733818 181.19566 
L 300 180.261596 
L 300.798545 175.466327 
L 301.863273 172.005774 
L 302.395636 167.899975 
L 303.194182 161.400448 
L 303.726545 159.787307 
L 303.992727 159.598981 
L 304.525091 157.494932 
L 305.856 149.531878 
L 306.122182 148.902661 
L 306.388364 148.788387 
L 306.654545 149.002258 
L 307.186909 150.465697 
L 307.453091 151.273426 
L 307.985455 153.873142 
L 308.517818 156.687694 
L 308.784 157.089961 
L 309.582545 156.916154 
L 309.848727 157.522354 
L 310.114909 158.93337 
L 311.445818 170.862149 
L 311.712 171.480964 
L 312.244364 175.825792 
L 313.042909 184.641097 
L 313.841455 190.335019 
L 314.64 195.129919 
L 315.438545 199.248815 
L 315.704727 199.974363 
L 315.970909 198.46189 
L 316.237091 198.59422 
L 316.503273 198.337205 
L 317.035636 198.285844 
L 317.568 198.712866 
L 317.834182 198.733951 
L 318.100364 198.595239 
L 319.963636 195.936779 
L 320.229818 194.156169 
L 320.762182 193.196007 
L 321.028364 193.000194 
L 322.625455 189.342159 
L 323.157818 188.920027 
L 324.222545 187.686619 
L 324.488727 190.475961 
L 325.287273 188.699538 
L 326.085818 186.486727 
L 327.949091 181.232625 
L 328.481455 179.171491 
L 328.747636 177.219637 
L 329.812364 172.709702 
L 330.877091 166.052476 
L 331.143273 164.991743 
L 331.409455 164.709965 
L 331.941818 164.854172 
L 332.474182 165.548365 
L 334.869818 171.404234 
L 335.402182 172.234286 
L 335.934545 173.037355 
L 336.466909 173.391693 
L 336.999273 173.07345 
L 337.265455 172.192836 
L 338.596364 170.893909 
L 339.128727 169.402336 
L 339.661091 167.12232 
L 340.725818 162.020378 
L 341.258182 160.567473 
L 341.790545 159.718926 
L 342.056727 159.205053 
L 343.387636 158.141968 
L 343.653818 158.210596 
L 343.92 158.590162 
L 344.186182 159.913765 
L 344.718545 165.546609 
L 344.984727 166.589382 
L 345.250909 166.721651 
L 345.517091 166.66447 
L 345.783273 165.891133 
L 346.315636 165.637937 
L 346.848 165.592097 
L 347.380364 165.412233 
L 348.178909 165.162407 
L 348.711273 165.137337 
L 349.243636 164.897957 
L 350.042182 163.988665 
L 350.574545 163.506482 
L 351.373091 163.771546 
L 352.171636 164.492003 
L 353.502545 166.18657 
L 354.034909 166.980606 
L 354.301091 166.560379 
L 356.430545 169.342294 
L 357.229091 170.242501 
L 358.293818 171.811049 
L 358.56 173.750824 
L 359.358545 175.039964 
L 360.423273 176.071527 
L 360.955636 176.337496 
L 361.488 176.533503 
L 362.020364 176.558512 
L 362.552727 176.200337 
L 362.818909 175.362253 
L 363.351273 174.73057 
L 364.149818 174.482412 
L 364.682182 174.14153 
L 364.948364 173.911833 
L 365.746909 172.918771 
L 366.811636 172.366468 
L 367.077818 171.021648 
L 368.142545 170.876677 
L 368.408727 170.976994 
L 368.674909 170.920954 
L 370.005818 170.058388 
L 370.804364 170.56644 
L 371.070545 170.854662 
L 371.336727 169.112447 
L 371.869091 169.418075 
L 372.401455 170.56522 
L 373.2 173.708522 
L 373.998545 178.62902 
L 374.530909 182.932608 
L 375.063273 186.767197 
L 375.329455 188.31581 
L 375.595636 185.470605 
L 377.458909 195.576639 
L 378.789818 202.215457 
L 379.588364 207.915278 
L 379.854545 206.461688 
L 380.653091 210.256355 
L 380.919273 211.288243 
L 382.250182 219.93039 
L 383.847273 227.997702 
L 384.113455 226.527679 
L 385.710545 233.859058 
L 386.509091 239.12135 
L 388.106182 251.163165 
L 388.372364 250.239328 
L 390.501818 264.128195 
L 392.897455 280.469912 
L 393.696 284.185658 
L 394.494545 286.820581 
L 395.293091 288.746996 
L 396.091636 290.095988 
L 396.624 290.623574 
L 396.890182 290.252344 
L 398.221091 291.411653 
L 399.285818 292.026191 
L 399.818182 292.094899 
L 400.616727 292.015332 
L 400.882909 291.860997 
L 401.149091 291.156854 
L 402.213818 290.69666 
L 402.746182 290.33452 
L 404.609455 288.443861 
L 404.875636 288.051022 
L 405.141818 287.42922 
L 405.408 285.479701 
L 405.940364 284.352162 
L 406.738909 283.433477 
L 408.069818 282.152788 
L 408.336 281.677786 
L 408.602182 281.580531 
L 409.134545 280.512589 
L 409.400727 279.581432 
L 409.666909 273.648569 
L 410.199273 271.599383 
L 410.465455 271.117867 
L 410.997818 270.621999 
L 411.530182 270.070258 
L 411.796364 270.178773 
L 412.861091 269.410844 
L 413.659636 267.643445 
L 413.925818 266.669853 
L 414.458182 265.693456 
L 414.724364 265.355182 
L 414.990545 265.316865 
L 415.789091 264.351669 
L 416.055273 264.407744 
L 416.853818 263.752364 
L 417.12 264.263401 
L 417.386182 264.273996 
L 417.918545 264.150487 
L 418.184727 264.606933 
L 418.717091 264.79152 
L 418.983273 264.997143 
L 419.249455 265.808344 
L 419.781818 266.839604 
L 420.580364 268.850522 
L 420.846545 269.026467 
L 421.112727 269.006672 
L 421.378909 269.228715 
L 421.911273 268.439679 
L 422.177455 268.378732 
L 422.443636 269.257714 
L 422.976 269.899549 
L 423.242182 270.509915 
L 423.774545 272.055723 
L 424.306909 273.565045 
L 424.839273 276.061342 
L 425.105455 276.53555 
L 425.371636 276.589667 
L 425.637818 277.007844 
L 425.904 275.634816 
L 426.436364 270.757753 
L 426.436364 270.757753 
" clip-path="url(#p620081d48b)" style="fill: none; stroke: #ffa500; stroke-width: 3; stroke-linecap: square"/>
   </g>
   <g id="patch_3">
    <path d="M 7.2 331.2 
L 7.2 7.2 
" style="fill: none; stroke: #000000; stroke-width: 0.8; stroke-linejoin: miter; stroke-linecap: square"/>
   </g>
   <g id="patch_4">
    <path d="M 446.4 331.2 
L 446.4 7.2 
" style="fill: none; stroke: #000000; stroke-width: 0.8; stroke-linejoin: miter; stroke-linecap: square"/>
   </g>
   <g id="patch_5">
    <path d="M 7.2 331.2 
L 446.4 331.2 
" style="fill: none; stroke: #000000; stroke-width: 0.8; stroke-linejoin: miter; stroke-linecap: square"/>
   </g>
   <g id="patch_6">
    <path d="M 7.2 7.2 
L 446.4 7.2 
" style="fill: none; stroke: #000000; stroke-width: 0.8; stroke-linejoin: miter; stroke-linecap: square"/>
   </g>
  </g>
 </g>
 <defs>
  <clipPath id="p620081d48b">
   <rect x="7.2" y="7.2" width="439.2" height="324"/>
  </clipPath>
 </defs>
</svg>
