<?xml version="1.0" encoding="utf-8" standalone="no"?>
<!DOCTYPE svg PUBLIC "-//W3C//DTD SVG 1.1//EN"
  "http://www.w3.org/Graphics/SVG/1.1/DTD/svg11.dtd">
<svg xmlns:xlink="http://www.w3.org/1999/xlink" width="453.6pt" height="338.4pt" viewBox="0 0 453.6 338.4" xmlns="http://www.w3.org/2000/svg" version="1.1">
 <metadata>
  <rdf:RDF xmlns:dc="http://purl.org/dc/elements/1.1/" xmlns:cc="http://creativecommons.org/ns#" xmlns:rdf="http://www.w3.org/1999/02/22-rdf-syntax-ns#">
   <cc:Work>
    <dc:type rdf:resource="http://purl.org/dc/dcmitype/StillImage"/>
    <dc:date>2025-05-14T16:24:11.638258</dc:date>
    <dc:format>image/svg+xml</dc:format>
    <dc:creator>
     <cc:Agent>
      <dc:title>Matplotlib v3.10.1, https://matplotlib.org/</dc:title>
     </cc:Agent>
    </dc:creator>
   </cc:Work>
  </rdf:RDF>
 </metadata>
 <defs>
  <style type="text/css">*{stroke-linejoin: round; stroke-linecap: butt}</style>
 </defs>
 <g id="figure_1">
  <g id="patch_1">
   <path d="M 0 338.4 
L 453.6 338.4 
L 453.6 0 
L 0 0 
z
" style="fill: #ffffff"/>
  </g>
  <g id="axes_1">
   <g id="patch_2">
    <path d="M 7.2 331.2 
L 446.4 331.2 
L 446.4 7.2 
L 7.2 7.2 
z
" style="fill: #ffffff"/>
   </g>
   <g id="matplotlib.axis_1"/>
   <g id="matplotlib.axis_2"/>
   <g id="line2d_1">
    <path d="M 27.163636 268.569512 
L 29.559273 233.662735 
L 31.954909 202.026499 
L 34.084364 176.651024 
L 36.213818 153.859711 
L 38.077091 136.03707 
L 39.940364 120.192934 
L 41.803636 106.327249 
L 43.400727 96.017097 
L 44.997818 87.160535 
L 46.328727 80.890416 
L 47.659636 75.629713 
L 48.990545 71.37846 
L 50.055273 68.704253 
L 51.12 66.676046 
L 51.918545 65.578849 
L 52.717091 64.845067 
L 53.515636 64.474682 
L 54.048 64.429633 
L 54.580364 64.546101 
L 55.378909 65.023614 
L 56.177455 65.864525 
L 56.976 67.068833 
L 57.774545 68.636538 
L 58.306909 69.883561 
L 58.573091 71.210025 
L 61.234909 90.491874 
L 63.896727 108.191357 
L 66.292364 122.768036 
L 68.688 136.063001 
L 71.083636 148.07627 
L 73.213091 157.678763 
L 75.342545 166.268558 
L 77.205818 172.953953 
L 79.069091 178.863941 
L 80.932364 183.998599 
L 82.529455 187.782652 
L 84.126545 190.997075 
L 85.457455 193.240583 
L 86.788364 195.08853 
L 88.119273 196.540882 
L 89.184 197.417959 
L 90.248727 198.041865 
L 91.313455 198.412592 
L 92.378182 198.53014 
L 93.442909 198.394526 
L 94.507636 198.005725 
L 95.572364 197.36378 
L 96.637091 196.468638 
L 97.701818 195.320326 
L 99.032727 193.528918 
L 100.363636 191.341924 
L 101.694545 188.759352 
L 103.291636 185.138098 
L 104.888727 180.947186 
L 106.752 175.337868 
L 108.615273 168.953194 
L 110.478545 161.793165 
L 112.608 152.660881 
L 114.737455 142.515916 
L 117.133091 129.892356 
L 119.794909 114.972013 
L 122.456727 119.109764 
L 125.118545 122.811733 
L 127.514182 125.770914 
L 129.909818 128.377091 
L 132.305455 130.630316 
L 134.434909 132.336804 
L 136.564364 133.764393 
L 138.693818 134.913082 
L 140.823273 135.782855 
L 142.686545 136.315162 
L 144.549818 136.633896 
L 146.413091 136.739093 
L 148.276364 136.630788 
L 150.139636 136.308912 
L 152.002909 135.773515 
L 153.866182 135.024565 
L 155.995636 133.907143 
L 158.125091 132.510857 
L 160.254545 130.835619 
L 162.384 128.881518 
L 164.513455 126.6485 
L 166.909091 123.802961 
L 169.304727 120.604435 
L 171.700364 117.052941 
L 174.362182 112.692804 
L 177.024 107.896886 
L 179.685818 102.665186 
L 180.750545 100.626375 
L 182.347636 98.630437 
L 183.944727 96.95764 
L 185.541818 95.607966 
L 187.138909 94.581433 
L 188.469818 93.972845 
L 189.800727 93.588555 
L 191.131636 93.428723 
L 192.462545 93.493295 
L 193.793455 93.782236 
L 195.124364 94.295546 
L 196.455273 95.033314 
L 197.786182 95.995398 
L 199.383273 97.446143 
L 200.980364 99.220012 
L 202.577455 101.316969 
L 204.440727 104.171848 
L 206.304 107.466511 
L 208.167273 111.20103 
L 210.296727 116.007552 
L 212.426182 121.388516 
L 214.555636 127.343939 
L 216.951273 134.730444 
L 219.346909 142.843937 
L 222.008727 152.711654 
L 224.670545 163.476899 
L 227.332364 175.139798 
L 230.260364 189.005491 
L 233.188364 203.957487 
L 236.382545 221.507295 
L 239.576727 240.349464 
L 242.770909 260.484083 
L 244.634182 272.826304 
L 245.166545 268.712192 
L 247.828364 245.818087 
L 250.224 227.085442 
L 252.619636 210.126816 
L 254.749091 196.541207 
L 256.878545 184.357036 
L 258.741818 174.845511 
L 260.605091 166.40706 
L 262.468364 159.041534 
L 264.065455 153.582076 
L 265.662545 148.911053 
L 266.993455 145.620673 
L 268.324364 142.877698 
L 269.655273 140.682198 
L 270.72 139.319883 
L 271.784727 138.307957 
L 272.849455 137.646384 
L 273.648 137.380143 
L 274.446545 137.310954 
L 275.245091 137.438834 
L 276.043636 137.7638 
L 276.842182 138.285819 
L 277.906909 139.288458 
L 278.971636 140.641415 
L 280.036364 142.344725 
L 281.367273 144.966579 
L 282.698182 148.135821 
L 284.029091 151.85252 
L 285.626182 157.03515 
L 287.223273 163.006075 
L 289.086545 170.968532 
L 290.949818 180.00394 
L 292.813091 190.112177 
L 294.942545 202.978453 
L 297.072 217.245992 
L 297.604364 221.031915 
L 299.733818 215.58472 
L 301.597091 211.385671 
L 303.460364 207.72057 
L 305.323636 204.589434 
L 306.920727 202.330538 
L 308.517818 200.463911 
L 309.848727 199.208049 
L 311.179636 198.224599 
L 312.510545 197.513552 
L 313.841455 197.074926 
L 315.172364 196.908704 
L 316.503273 197.014902 
L 317.834182 197.39352 
L 319.165091 198.044533 
L 320.496 198.967967 
L 321.826909 200.163804 
L 323.157818 201.632071 
L 324.754909 203.753519 
L 325.287273 204.54787 
L 329.013818 214.460495 
L 330.344727 217.117787 
L 331.675636 219.288708 
L 332.740364 220.675259 
L 333.805091 221.750546 
L 334.869818 222.514569 
L 335.934545 222.967319 
L 336.733091 223.102625 
L 337.531636 223.062834 
L 338.330182 222.847963 
L 339.394909 222.289103 
L 340.459636 221.418978 
L 341.524364 220.237564 
L 342.589091 218.744903 
L 343.92 216.441361 
L 345.250909 213.651467 
L 346.581818 210.375211 
L 348.178909 205.801713 
L 349.776 200.52793 
L 351.639273 193.489935 
L 353.502545 185.498651 
L 355.365818 176.554123 
L 357.495273 165.164672 
L 358.826182 157.885769 
L 364.948364 143.167201 
L 371.070545 129.023495 
L 377.192727 115.45474 
L 383.048727 103.013818 
L 388.904727 91.098864 
L 394.494545 80.216185 
L 400.084364 69.812756 
L 405.674182 59.888579 
L 410.997818 50.882542 
L 416.321455 42.311199 
L 421.378909 34.57104 
L 426.436364 27.223212 
L 426.436364 27.223212 
" clip-path="url(#pbde52e5389)" style="fill: none; stroke-dasharray: 11.1,4.8; stroke-dashoffset: 0; stroke: #000000; stroke-width: 3"/>
   </g>
   <g id="line2d_2">
    <path d="M 27.163636 299.986489 
L 29.293091 295.867138 
L 31.688727 290.68781 
L 34.084364 284.980422 
L 36.746182 278.080415 
L 39.674182 269.888168 
L 43.134545 259.502805 
L 44.465455 255.539463 
L 46.062545 253.085165 
L 47.925818 250.589422 
L 49.256727 249.122613 
L 50.587636 247.992203 
L 51.652364 247.373125 
L 52.717091 247.045038 
L 53.515636 247.011352 
L 54.314182 247.180419 
L 55.112727 247.564857 
L 55.911273 248.180907 
L 56.709818 249.045308 
L 57.508364 250.175274 
L 58.573091 252.12582 
L 59.637818 254.623775 
L 60.702545 257.711056 
L 61.767273 261.408491 
L 64.162909 262.743211 
L 66.824727 263.974534 
L 69.752727 265.090889 
L 73.479273 266.270882 
L 78.802909 267.766826 
L 80.666182 267.811318 
L 83.328 267.650116 
L 86.256 267.226343 
L 89.450182 266.530482 
L 93.442909 265.421487 
L 95.572364 264.718253 
L 98.234182 261.031202 
L 100.896 256.977221 
L 103.557818 252.531361 
L 106.219636 247.669497 
L 108.881455 242.366514 
L 111.543273 236.585416 
L 112.608 233.990423 
L 114.205091 229.619129 
L 115.536 226.555717 
L 116.866909 223.967693 
L 118.197818 221.807288 
L 119.528727 220.026037 
L 120.859636 218.574466 
L 122.190545 217.403621 
L 123.787636 216.29998 
L 125.650909 215.320252 
L 128.312727 214.234484 
L 129.111273 213.928479 
L 129.643636 213.375798 
L 130.974545 211.959998 
L 132.571636 210.588801 
L 134.434909 209.313916 
L 137.629091 207.491865 
L 140.024727 205.999739 
L 141.621818 204.744772 
L 142.952727 203.446494 
L 144.283636 201.851884 
L 145.348364 200.326928 
L 145.614545 199.821641 
L 146.146909 197.947912 
L 148.276364 190.097658 
L 150.405818 183.024831 
L 152.801455 175.8322 
L 155.463273 168.577314 
L 158.657455 160.571897 
L 162.384 151.65366 
L 163.182545 150.51833 
L 164.513455 149.037704 
L 165.844364 147.891279 
L 167.175273 147.06157 
L 168.506182 146.531089 
L 169.837091 146.282317 
L 171.168 146.297608 
L 172.498909 146.559811 
L 173.829818 147.050544 
L 175.426909 147.915542 
L 177.024 149.053452 
L 178.887273 150.703391 
L 180.484364 152.420922 
L 182.081455 153.934097 
L 183.678545 155.143461 
L 185.275636 156.068765 
L 186.872727 156.730321 
L 188.469818 157.148862 
L 190.066909 157.344825 
L 191.930182 157.322055 
L 193.793455 157.062784 
L 195.922909 156.67091 
L 198.850909 157.709013 
L 202.045091 159.075137 
L 206.037818 161.039281 
L 211.627636 164.069231 
L 212.692364 164.782367 
L 213.490909 165.580703 
L 214.555636 166.992052 
L 215.620364 168.777034 
L 216.951273 171.496519 
L 218.282182 174.714901 
L 219.879273 179.170175 
L 221.742545 185.087 
L 223.872 192.646909 
L 226.533818 203.027856 
L 229.195636 214.238873 
L 231.325091 224.408505 
L 237.713455 255.801802 
L 239.310545 262.412008 
L 240.641455 267.149758 
L 241.972364 271.027145 
L 243.037091 273.409361 
L 243.835636 274.737691 
L 244.634182 275.632003 
L 245.166545 275.962961 
L 245.432727 275.103783 
L 246.231273 267.862635 
L 252.885818 205.144897 
L 255.547636 182.268928 
L 257.677091 165.767204 
L 259.540364 153.017203 
L 261.137455 143.564851 
L 261.936 139.413739 
L 262.202182 139.242179 
L 263.266909 139.412932 
L 264.331636 139.843675 
L 265.396364 140.512938 
L 266.727273 141.652656 
L 268.058182 143.089831 
L 269.655273 145.1479 
L 271.518545 147.917719 
L 273.914182 151.887228 
L 278.439273 159.837501 
L 278.971636 161.213 
L 280.302545 165.531616 
L 281.633455 170.605125 
L 283.230545 177.574941 
L 285.093818 186.741003 
L 287.489455 199.798133 
L 290.949818 220.187976 
L 294.942545 243.71161 
L 295.741091 244.653267 
L 296.539636 245.237544 
L 297.338182 245.481708 
L 298.136727 245.402907 
L 298.935273 245.018179 
L 299.733818 244.344329 
L 300.532364 243.395566 
L 301.597091 241.735989 
L 302.661818 239.660986 
L 303.992727 236.541499 
L 305.589818 232.123831 
L 307.453091 226.198166 
L 309.582545 218.645455 
L 311.179636 213.052043 
L 311.712 213.153571 
L 315.172364 214.286293 
L 319.431273 215.429417 
L 325.819636 216.86941 
L 327.416727 217.219455 
L 327.682909 217.458405 
L 329.28 219.803678 
L 330.877091 221.78479 
L 332.474182 223.431516 
L 334.071273 224.773483 
L 335.668364 225.840255 
L 337.265455 226.661256 
L 339.128727 227.349023 
L 340.992 227.79117 
L 343.121455 228.056893 
L 343.653818 228.090662 
L 343.92 227.977933 
L 344.452364 227.228043 
L 346.049455 224.43922 
L 347.646545 221.141703 
L 349.243636 217.229041 
L 350.574545 213.418539 
L 352.171636 208.085872 
L 353.768727 201.808968 
L 355.365818 194.457479 
L 356.962909 185.893105 
L 358.56 175.965557 
L 360.423273 163.076283 
L 361.754182 169.265309 
L 363.351273 177.955983 
L 369.473455 212.855492 
L 370.804364 218.465986 
L 371.869091 221.895543 
L 372.667636 223.730736 
L 373.2 224.56085 
L 373.732364 225.050117 
L 374.264727 225.175899 
L 374.797091 224.915811 
L 375.329455 224.2474 
L 375.861818 223.148421 
L 376.394182 221.596253 
L 376.660364 220.627181 
L 376.926545 218.263088 
L 379.322182 184.225478 
L 380.653091 168.699506 
L 381.984 155.556683 
L 383.314909 144.684169 
L 384.379636 137.545909 
L 385.444364 131.729602 
L 386.509091 127.181315 
L 387.307636 124.558478 
L 388.106182 122.58201 
L 388.904727 121.225366 
L 389.437091 120.651978 
L 389.969455 120.333999 
L 390.501818 120.263457 
L 391.034182 120.432296 
L 391.566545 120.832404 
L 392.098909 121.455774 
L 393.163636 122.923971 
L 394.228364 123.141001 
L 395.293091 123.586334 
L 396.357818 124.256668 
L 397.688727 125.405954 
L 399.019636 126.894762 
L 400.350545 128.716436 
L 401.947636 131.332041 
L 403.544727 134.404828 
L 405.408 138.551164 
L 407.271273 143.283547 
L 409.666909 149.860005 
L 409.933091 149.869029 
L 410.997818 149.454244 
L 411.796364 149.358422 
L 412.594909 149.457001 
L 413.393455 149.758881 
L 414.192 150.272894 
L 414.990545 151.007729 
L 416.055273 152.346465 
L 417.12 154.114154 
L 418.184727 156.331459 
L 419.249455 159.018729 
L 420.580364 163.074018 
L 421.911273 167.936914 
L 423.242182 173.646601 
L 424.573091 180.243109 
L 426.170182 189.385031 
L 426.436364 191.043257 
L 426.436364 191.043257 
" clip-path="url(#pbde52e5389)" style="fill: none; stroke: #ffa500; stroke-width: 3; stroke-linecap: square"/>
   </g>
   <g id="patch_3">
    <path d="M 7.2 331.2 
L 7.2 7.2 
" style="fill: none; stroke: #000000; stroke-width: 0.8; stroke-linejoin: miter; stroke-linecap: square"/>
   </g>
   <g id="patch_4">
    <path d="M 446.4 331.2 
L 446.4 7.2 
" style="fill: none; stroke: #000000; stroke-width: 0.8; stroke-linejoin: miter; stroke-linecap: square"/>
   </g>
   <g id="patch_5">
    <path d="M 7.2 331.2 
L 446.4 331.2 
" style="fill: none; stroke: #000000; stroke-width: 0.8; stroke-linejoin: miter; stroke-linecap: square"/>
   </g>
   <g id="patch_6">
    <path d="M 7.2 7.2 
L 446.4 7.2 
" style="fill: none; stroke: #000000; stroke-width: 0.8; stroke-linejoin: miter; stroke-linecap: square"/>
   </g>
  </g>
 </g>
 <defs>
  <clipPath id="pbde52e5389">
   <rect x="7.2" y="7.2" width="439.2" height="324"/>
  </clipPath>
 </defs>
</svg>
