<?xml version="1.0" encoding="utf-8" standalone="no"?>
<!DOCTYPE svg PUBLIC "-//W3C//DTD SVG 1.1//EN"
  "http://www.w3.org/Graphics/SVG/1.1/DTD/svg11.dtd">
<svg xmlns:xlink="http://www.w3.org/1999/xlink" width="453.6pt" height="338.4pt" viewBox="0 0 453.6 338.4" xmlns="http://www.w3.org/2000/svg" version="1.1">
 <metadata>
  <rdf:RDF xmlns:dc="http://purl.org/dc/elements/1.1/" xmlns:cc="http://creativecommons.org/ns#" xmlns:rdf="http://www.w3.org/1999/02/22-rdf-syntax-ns#">
   <cc:Work>
    <dc:type rdf:resource="http://purl.org/dc/dcmitype/StillImage"/>
    <dc:date>2025-05-14T16:23:27.382887</dc:date>
    <dc:format>image/svg+xml</dc:format>
    <dc:creator>
     <cc:Agent>
      <dc:title>Matplotlib v3.10.1, https://matplotlib.org/</dc:title>
     </cc:Agent>
    </dc:creator>
   </cc:Work>
  </rdf:RDF>
 </metadata>
 <defs>
  <style type="text/css">*{stroke-linejoin: round; stroke-linecap: butt}</style>
 </defs>
 <g id="figure_1">
  <g id="patch_1">
   <path d="M 0 338.4 
L 453.6 338.4 
L 453.6 0 
L 0 0 
z
" style="fill: #ffffff"/>
  </g>
  <g id="axes_1">
   <g id="patch_2">
    <path d="M 7.2 331.2 
L 446.4 331.2 
L 446.4 7.2 
L 7.2 7.2 
z
" style="fill: #ffffff"/>
   </g>
   <g id="matplotlib.axis_1"/>
   <g id="matplotlib.axis_2"/>
   <g id="line2d_1">
    <path d="M 27.163636 164.989197 
L 30.091636 171.161124 
L 33.019636 176.805581 
L 35.947636 181.944505 
L 38.609455 186.195986 
L 41.271273 190.064266 
L 43.933091 193.565795 
L 46.594909 196.717033 
L 49.256727 199.534499 
L 51.918545 202.034592 
L 54.580364 204.233867 
L 57.242182 206.148722 
L 59.904 207.795667 
L 62.565818 209.191128 
L 65.227636 210.351668 
L 68.155636 211.376489 
L 71.083636 212.158815 
L 74.011636 212.720615 
L 77.205818 213.107705 
L 80.666182 213.293301 
L 84.392727 213.261779 
L 88.651636 212.988603 
L 93.709091 212.425064 
L 101.694545 211.268948 
L 109.68 210.177115 
L 114.471273 209.737865 
L 118.464 209.581097 
L 121.924364 209.64508 
L 122.190545 209.102767 
L 124.852364 198.844318 
L 127.248 190.4422 
L 129.643636 182.797091 
L 132.039273 175.880216 
L 134.434909 169.66288 
L 136.564364 164.700396 
L 138.693818 160.247791 
L 140.823273 156.284812 
L 142.952727 152.791342 
L 145.082182 149.747188 
L 146.945455 147.436308 
L 148.808727 145.440458 
L 150.672 143.746172 
L 152.535273 142.339897 
L 154.398545 141.208131 
L 156.261818 140.337393 
L 158.125091 139.714092 
L 159.988364 139.324764 
L 161.851636 139.155908 
L 163.714909 139.193952 
L 165.844364 139.473501 
L 167.973818 139.985495 
L 170.369455 140.814239 
L 172.765091 141.882907 
L 175.426909 143.316833 
L 178.354909 145.148269 
L 181.815273 147.586327 
L 186.074182 150.872037 
L 200.448 162.222995 
L 203.908364 164.541179 
L 206.836364 166.241855 
L 209.498182 167.533558 
L 211.893818 168.455245 
L 212.692364 168.706563 
L 213.224727 168.264988 
L 218.548364 162.948385 
L 229.195636 152.235088 
L 233.188364 148.563632 
L 236.648727 145.683893 
L 239.576727 143.528404 
L 242.238545 141.835715 
L 244.634182 140.560603 
L 247.029818 139.548027 
L 249.159273 138.889807 
L 251.288727 138.478429 
L 253.152 138.335573 
L 255.015273 138.408379 
L 256.878545 138.709241 
L 258.741818 139.250624 
L 260.605091 140.044922 
L 262.468364 141.104532 
L 264.331636 142.441951 
L 266.194909 144.069559 
L 268.058182 145.999801 
L 269.921455 148.245108 
L 271.784727 150.81784 
L 273.914182 154.175075 
L 276.043636 157.994759 
L 278.173091 162.295485 
L 280.302545 167.09588 
L 282.432 172.414379 
L 284.827636 179.040065 
L 287.223273 186.371417 
L 289.618909 194.434884 
L 291.216 199.77028 
L 293.079273 194.617232 
L 294.676364 190.811277 
L 296.273455 187.535434 
L 297.870545 184.757767 
L 299.467636 182.446176 
L 301.064727 180.568787 
L 302.395636 179.312837 
L 303.726545 178.317624 
L 305.057455 177.564627 
L 306.388364 177.03534 
L 307.719273 176.71126 
L 309.316364 176.567176 
L 310.913455 176.659855 
L 312.776727 177.024613 
L 314.64 177.617383 
L 317.035636 178.632672 
L 320.229818 180.255284 
L 325.819636 183.115641 
L 328.215273 184.06964 
L 330.078545 184.596522 
L 331.941818 184.879573 
L 333.538909 184.889553 
L 335.136 184.65106 
L 336.466909 184.239409 
L 337.797818 183.614458 
L 339.128727 182.757686 
L 340.459636 181.650569 
L 341.790545 180.274587 
L 343.121455 178.611244 
L 344.718545 176.209826 
L 346.315636 173.335925 
L 347.912727 169.957527 
L 349.509818 166.042662 
L 351.106909 161.559368 
L 352.704 156.475474 
L 354.567273 149.742799 
L 356.430545 142.098357 
L 358.293818 133.491515 
L 360.157091 123.871272 
L 362.020364 113.186908 
L 364.149818 99.608129 
L 366.279273 84.497125 
L 368.408727 67.77837 
L 370.272 51.862621 
L 372.667636 69.851907 
L 374.797091 84.269332 
L 376.926545 97.313242 
L 379.056 109.086921 
L 381.185455 119.693089 
L 383.314909 129.234908 
L 385.444364 137.815275 
L 387.573818 145.537351 
L 389.703273 152.50384 
L 392.098909 159.566484 
L 394.494545 165.95 
L 397.156364 172.424632 
L 400.350545 179.609687 
L 409.933091 200.698876 
L 412.594909 207.327397 
L 414.990545 213.894735 
L 417.12 220.334071 
L 419.249455 227.446865 
L 421.378909 235.336252 
L 423.508364 244.105068 
L 425.637818 253.856478 
L 426.436364 257.7875 
L 426.436364 257.7875 
" clip-path="url(#pe175a9f803)" style="fill: none; stroke-dasharray: 11.1,4.8; stroke-dashoffset: 0; stroke: #000000; stroke-width: 3"/>
   </g>
   <g id="line2d_2">
    <path d="M 27.163636 137.531338 
L 27.429818 137.372488 
L 28.228364 137.198804 
L 29.293091 136.901787 
L 30.091636 136.811091 
L 31.156364 136.743798 
L 31.422545 136.820186 
L 33.285818 136.415636 
L 33.818182 136.187124 
L 34.616727 135.531256 
L 35.415273 134.554127 
L 35.681455 134.495857 
L 36.746182 131.885379 
L 37.810909 128.338959 
L 39.141818 122.368332 
L 40.472727 115.863538 
L 42.602182 105.596013 
L 43.666909 102.386216 
L 43.933091 102.072187 
L 44.199273 105.680617 
L 46.062545 101.251589 
L 46.861091 99.893839 
L 47.925818 98.791569 
L 48.192 98.644149 
L 48.458182 98.784335 
L 50.055273 97.758663 
L 52.450909 96.824037 
L 52.717091 97.204955 
L 56.709818 96.252826 
L 57.242182 96.285761 
L 60.702545 96.070416 
L 60.968727 96.175859 
L 61.234909 98.288406 
L 63.630545 98.048798 
L 65.227636 97.847058 
L 65.76 97.956961 
L 69.220364 98.176168 
L 69.486545 98.219164 
L 69.752727 98.613197 
L 71.349818 98.803437 
L 73.745455 99.219889 
L 74.277818 99.434637 
L 78.802909 100.39846 
L 81.730909 100.880186 
L 83.061818 101.101378 
L 84.925091 101.433086 
L 86.256 101.431032 
L 89.184 101.324062 
L 92.112 101.104204 
L 93.176727 101.207839 
L 94.241455 101.065739 
L 95.04 100.926658 
L 95.306182 104.74973 
L 96.370909 104.641917 
L 99.831273 102.842276 
L 102.759273 101.934248 
L 103.291636 101.875188 
L 103.557818 101.877646 
L 104.090182 101.606999 
L 105.154909 101.52387 
L 105.953455 101.365846 
L 106.752 101.156434 
L 107.816727 101.101904 
L 109.413818 101.334736 
L 110.212364 101.439459 
L 111.543273 101.432156 
L 112.075636 101.577522 
L 112.341818 101.963005 
L 114.205091 101.497799 
L 116.068364 100.420721 
L 117.133091 100.441192 
L 118.197818 100.574286 
L 119.528727 101.037139 
L 120.061091 101.480102 
L 120.593455 102.242746 
L 120.859636 101.822748 
L 121.392 102.803248 
L 123.255273 106.853499 
L 124.053818 109.071225 
L 124.852364 112.001333 
L 125.384727 114.096639 
L 129.111273 132.794145 
L 129.377455 132.553905 
L 130.442182 136.043812 
L 130.974545 137.113375 
L 131.506909 137.502036 
L 132.837818 137.423437 
L 134.168727 138.053532 
L 135.233455 138.597513 
L 135.765818 138.683995 
L 136.564364 138.494493 
L 137.629091 137.903671 
L 138.161455 137.459603 
L 138.693818 137.20128 
L 139.492364 136.485686 
L 140.024727 135.784909 
L 142.686545 130.923488 
L 144.283636 128.619982 
L 145.348364 125.740419 
L 145.880727 124.311198 
L 146.146909 123.63802 
L 146.413091 122.169244 
L 146.945455 121.21183 
L 147.744 119.811664 
L 148.276364 118.987608 
L 148.808727 117.898592 
L 149.607273 116.189418 
L 150.405818 114.470342 
L 151.204364 113.263928 
L 152.002909 112.353178 
L 152.801455 111.714972 
L 153.866182 110.321267 
L 154.664727 109.011341 
L 154.930909 109.094277 
L 155.729455 108.00333 
L 157.060364 106.358131 
L 158.657455 104.034558 
L 159.189818 103.438961 
L 159.988364 102.823473 
L 161.319273 102.150646 
L 163.182545 100.924516 
L 163.448727 101.741989 
L 166.110545 100.832363 
L 167.441455 100.045034 
L 168.772364 99.743874 
L 169.837091 99.683182 
L 170.901818 99.723965 
L 171.700364 99.880936 
L 171.966545 100.154006 
L 173.031273 100.637769 
L 173.829818 101.202361 
L 176.757818 104.008276 
L 177.556364 104.810089 
L 178.621091 106.160114 
L 180.218182 108.766009 
L 180.484364 108.928054 
L 183.944727 114.566797 
L 186.074182 117.263371 
L 187.671273 119.249091 
L 188.736 120.796694 
L 189.002182 122.096069 
L 190.865455 125.669018 
L 194.059636 132.54367 
L 195.922909 135.828063 
L 196.987636 138.048001 
L 197.52 138.950728 
L 198.052364 140.063234 
L 199.117091 141.990878 
L 202.311273 146.598242 
L 203.109818 147.595579 
L 204.174545 148.357943 
L 205.771636 149.2797 
L 207.634909 150.607183 
L 208.433455 150.846843 
L 209.232 150.780235 
L 209.498182 150.86368 
L 210.030545 150.839786 
L 211.893818 151.132186 
L 212.426182 151.099285 
L 212.958545 151.149391 
L 214.023273 151.230817 
L 214.821818 151.465158 
L 215.620364 151.608926 
L 216.152727 151.576254 
L 217.483636 151.10248 
L 220.411636 148.885755 
L 222.541091 145.995236 
L 223.605818 144.260659 
L 224.670545 142.036349 
L 225.469091 139.978823 
L 226.267636 138.463734 
L 227.332364 137.172259 
L 228.397091 136.181348 
L 230.792727 133.676945 
L 231.857455 132.977468 
L 233.188364 132.138365 
L 234.253091 131.583236 
L 235.317818 131.207549 
L 236.116364 130.739253 
L 236.648727 130.24241 
L 238.512 127.97909 
L 239.044364 127.685321 
L 239.576727 127.619485 
L 240.109091 127.801385 
L 240.375273 128.271613 
L 241.173818 130.505491 
L 241.706182 131.198314 
L 244.634182 133.478647 
L 245.166545 133.635723 
L 245.965091 133.616007 
L 247.029818 133.2488 
L 248.360727 132.383416 
L 249.691636 130.773523 
L 250.756364 129.436437 
L 252.619636 127.503438 
L 253.950545 125.600337 
L 254.749091 124.813167 
L 255.015273 124.640413 
L 256.08 124.715993 
L 256.346182 124.99124 
L 257.943273 125.210623 
L 258.475636 125.262836 
L 259.540364 125.698933 
L 260.338909 126.224884 
L 260.605091 126.594514 
L 261.137455 126.679223 
L 262.202182 126.382434 
L 262.734545 126.127535 
L 263.533091 125.89502 
L 264.597818 126.516055 
L 264.864 127.221396 
L 267.259636 128.109586 
L 267.792 128.347438 
L 268.856727 129.177885 
L 269.122909 129.69957 
L 271.518545 130.440024 
L 272.050909 130.853263 
L 273.115636 132.555678 
L 273.381818 133.817869 
L 275.777455 137.70978 
L 276.309818 138.387627 
L 278.439273 141.359747 
L 278.971636 141.888384 
L 281.101091 143.105087 
L 281.633455 143.268747 
L 281.899636 143.845066 
L 283.762909 144.51519 
L 284.295273 144.63689 
L 285.093818 144.016925 
L 286.690909 142.175307 
L 287.489455 140.9957 
L 288.021818 140.336427 
L 289.352727 139.546623 
L 290.151273 139.517391 
L 290.417455 140.421241 
L 290.949818 140.634884 
L 292.014545 141.249336 
L 293.079273 142.165212 
L 294.676364 143.433898 
L 296.805818 145.851205 
L 297.338182 146.411601 
L 298.402909 147.10834 
L 298.669091 147.189116 
L 298.935273 147.744561 
L 300 148.86158 
L 301.597091 151.40882 
L 302.129455 151.76997 
L 302.661818 151.876396 
L 303.194182 151.594548 
L 304.258909 152.022131 
L 304.791273 152.402452 
L 305.589818 152.758564 
L 305.856 152.762655 
L 306.654545 152.31346 
L 307.186909 151.833418 
L 307.453091 152.353804 
L 308.251636 152.687795 
L 309.050182 153.664363 
L 310.114909 155.098517 
L 310.647273 154.997709 
L 311.179636 154.519617 
L 311.445818 154.120264 
L 312.510545 153.703004 
L 313.042909 153.93494 
L 313.575273 153.597666 
L 313.841455 153.313009 
L 314.373818 152.144726 
L 315.704727 148.235189 
L 316.237091 147.797142 
L 316.769455 147.454778 
L 317.301818 147.771423 
L 318.366545 148.34151 
L 318.632727 148.459313 
L 319.697455 147.868386 
L 320.229818 147.083954 
L 320.762182 147.479707 
L 321.028364 147.781851 
L 322.093091 150.898002 
L 322.359273 151.827151 
L 322.625455 152.221412 
L 322.891636 152.409089 
L 323.157818 151.99462 
L 323.424 151.838176 
L 323.690182 151.486436 
L 323.956364 151.499972 
L 324.222545 153.287763 
L 324.488727 168.436495 
L 324.754909 169.466618 
L 326.085818 172.224016 
L 326.884364 173.080543 
L 328.747636 173.675587 
L 329.812364 174.680025 
L 330.344727 175.035566 
L 330.877091 175.222488 
L 331.143273 175.238587 
L 331.675636 174.947776 
L 332.208 174.528672 
L 333.006545 173.225057 
L 333.805091 173.03602 
L 334.869818 173.645706 
L 335.402182 173.722462 
L 335.668364 173.55113 
L 336.200727 172.42709 
L 336.466909 171.764726 
L 336.999273 168.761725 
L 337.265455 166.419209 
L 337.797818 165.735795 
L 338.064 165.71629 
L 338.596364 166.946002 
L 339.394909 167.965267 
L 339.661091 167.796885 
L 339.927273 167.317054 
L 340.992 162.37986 
L 341.258182 162.423804 
L 341.524364 165.704106 
L 342.056727 166.952463 
L 343.121455 169.89436 
L 343.387636 170.191912 
L 343.92 170.162681 
L 344.186182 169.629119 
L 344.718545 167.165842 
L 345.250909 163.791596 
L 345.783273 159.934762 
L 346.581818 158.173605 
L 346.848 158.072498 
L 347.114182 157.590297 
L 347.646545 155.91434 
L 350.042182 145.836756 
L 350.574545 144.877428 
L 351.106909 144.240996 
L 351.639273 143.893873 
L 351.905455 143.696277 
L 352.437818 142.977769 
L 352.970182 142.181644 
L 353.236364 141.570932 
L 354.034909 140.666099 
L 354.301091 139.480418 
L 354.567273 139.574748 
L 355.099636 139.487634 
L 355.365818 139.191091 
L 355.632 139.147217 
L 356.164364 138.631677 
L 357.229091 134.926127 
L 358.293818 127.67893 
L 358.56 128.904885 
L 359.624727 125.668368 
L 359.890909 125.139239 
L 361.221818 121.387235 
L 362.286545 118.974458 
L 362.552727 118.603494 
L 362.818909 117.744887 
L 363.085091 117.582737 
L 363.351273 117.275572 
L 363.617455 117.144637 
L 363.883636 116.679958 
L 364.149818 116.50989 
L 365.746909 114.080804 
L 366.013091 113.408697 
L 367.077818 112.501617 
L 367.344 112.442663 
L 367.610182 112.260165 
L 367.876364 112.284094 
L 368.142545 111.888674 
L 368.408727 111.872593 
L 368.674909 111.694414 
L 368.941091 111.679298 
L 369.207273 111.265304 
L 369.473455 111.242621 
L 369.739636 111.033227 
L 370.005818 111.03493 
L 370.272 110.69246 
L 371.070545 110.914266 
L 371.336727 110.198531 
L 372.135273 110.877854 
L 372.401455 110.842004 
L 373.2 111.727806 
L 373.466182 111.704684 
L 373.732364 112.08304 
L 373.998545 112.241152 
L 374.264727 112.543243 
L 374.530909 112.408129 
L 375.595636 113.575007 
L 376.394182 115.007389 
L 376.660364 115.1724 
L 377.458909 116.50213 
L 377.725091 116.638736 
L 378.257455 117.435808 
L 378.523636 117.869975 
L 378.789818 117.990236 
L 379.588364 119.758908 
L 379.854545 119.73691 
L 381.451636 125.028547 
L 383.581091 136.34513 
L 383.847273 138.440823 
L 384.113455 139.451889 
L 384.912 145.856946 
L 385.178182 146.837165 
L 385.710545 150.247156 
L 385.976727 152.093058 
L 386.242909 152.442358 
L 387.041455 156.134829 
L 387.307636 156.334971 
L 388.106182 160.894757 
L 388.372364 159.067798 
L 389.170909 166.195963 
L 389.437091 167.184276 
L 389.969455 169.661563 
L 390.235636 170.799201 
L 390.501818 171.068585 
L 391.034182 172.476388 
L 391.300364 173.093807 
L 391.566545 172.934229 
L 391.832727 173.108765 
L 392.098909 172.538352 
L 392.365091 168.933127 
L 392.631273 136.53235 
L 392.897455 136.046603 
L 393.163636 136.059858 
L 393.429818 136.418831 
L 393.696 136.451328 
L 394.494545 137.574192 
L 394.760727 137.730127 
L 396.091636 140.513693 
L 396.624 141.821091 
L 396.890182 141.545282 
L 397.422545 143.040533 
L 397.688727 143.742643 
L 397.954909 143.800087 
L 398.753455 145.35064 
L 399.019636 145.393477 
L 399.285818 145.920534 
L 399.552 146.167007 
L 399.818182 146.594467 
L 400.084364 146.512515 
L 400.350545 146.977229 
L 400.882909 147.360535 
L 401.149091 146.22812 
L 401.681455 147.481165 
L 401.947636 148.139771 
L 402.213818 148.07174 
L 402.48 148.378799 
L 402.746182 148.480872 
L 403.012364 148.939442 
L 403.278545 148.790284 
L 403.544727 149.026573 
L 403.810909 148.914003 
L 404.077091 149.107806 
L 404.343273 148.764002 
L 404.609455 148.953452 
L 405.141818 148.712702 
L 405.408 147.096998 
L 405.674182 147.058848 
L 405.940364 146.744854 
L 406.206545 146.774437 
L 406.472727 145.986564 
L 407.005091 145.371234 
L 407.271273 145.4847 
L 407.537455 144.96312 
L 407.803636 144.833502 
L 408.069818 144.442471 
L 408.336 144.29549 
L 408.602182 143.604545 
L 408.868364 143.246924 
L 409.134545 142.474202 
L 409.400727 141.177689 
L 409.666909 134.688783 
L 410.199273 134.09431 
L 410.465455 134.063411 
L 410.731636 133.498029 
L 411.264 132.889124 
L 411.530182 132.991811 
L 411.796364 132.637473 
L 412.062545 132.590053 
L 412.328727 132.307169 
L 412.594909 132.25982 
L 412.861091 131.848616 
L 413.659636 131.375053 
L 413.925818 130.159527 
L 414.724364 129.301569 
L 414.990545 128.643086 
L 415.522909 128.178916 
L 415.789091 128.49607 
L 416.055273 128.540277 
L 416.587636 129.122337 
L 417.12 129.95928 
L 417.652364 130.793677 
L 417.918545 131.401458 
L 418.184727 130.675822 
L 419.249455 131.542558 
L 419.515636 131.678356 
L 419.781818 131.970299 
L 421.112727 135.877677 
L 421.378909 136.579489 
L 422.177455 137.813678 
L 422.443636 137.538518 
L 423.242182 138.106288 
L 423.508364 138.034887 
L 424.573091 136.566023 
L 425.105455 134.291976 
L 425.904 130.40621 
L 426.170182 130.396431 
L 426.436364 133.94696 
L 426.436364 133.94696 
" clip-path="url(#pe175a9f803)" style="fill: none; stroke: #ff0000; stroke-width: 3; stroke-linecap: square"/>
   </g>
   <g id="patch_3">
    <path d="M 7.2 331.2 
L 7.2 7.2 
" style="fill: none; stroke: #000000; stroke-width: 0.8; stroke-linejoin: miter; stroke-linecap: square"/>
   </g>
   <g id="patch_4">
    <path d="M 446.4 331.2 
L 446.4 7.2 
" style="fill: none; stroke: #000000; stroke-width: 0.8; stroke-linejoin: miter; stroke-linecap: square"/>
   </g>
   <g id="patch_5">
    <path d="M 7.2 331.2 
L 446.4 331.2 
" style="fill: none; stroke: #000000; stroke-width: 0.8; stroke-linejoin: miter; stroke-linecap: square"/>
   </g>
   <g id="patch_6">
    <path d="M 7.2 7.2 
L 446.4 7.2 
" style="fill: none; stroke: #000000; stroke-width: 0.8; stroke-linejoin: miter; stroke-linecap: square"/>
   </g>
  </g>
 </g>
 <defs>
  <clipPath id="pe175a9f803">
   <rect x="7.2" y="7.2" width="439.2" height="324"/>
  </clipPath>
 </defs>
</svg>
