<?xml version="1.0" encoding="utf-8" standalone="no"?>
<!DOCTYPE svg PUBLIC "-//W3C//DTD SVG 1.1//EN"
  "http://www.w3.org/Graphics/SVG/1.1/DTD/svg11.dtd">
<svg xmlns:xlink="http://www.w3.org/1999/xlink" width="453.6pt" height="338.4pt" viewBox="0 0 453.6 338.4" xmlns="http://www.w3.org/2000/svg" version="1.1">
 <metadata>
  <rdf:RDF xmlns:dc="http://purl.org/dc/elements/1.1/" xmlns:cc="http://creativecommons.org/ns#" xmlns:rdf="http://www.w3.org/1999/02/22-rdf-syntax-ns#">
   <cc:Work>
    <dc:type rdf:resource="http://purl.org/dc/dcmitype/StillImage"/>
    <dc:date>2025-05-14T16:21:17.026501</dc:date>
    <dc:format>image/svg+xml</dc:format>
    <dc:creator>
     <cc:Agent>
      <dc:title>Matplotlib v3.10.1, https://matplotlib.org/</dc:title>
     </cc:Agent>
    </dc:creator>
   </cc:Work>
  </rdf:RDF>
 </metadata>
 <defs>
  <style type="text/css">*{stroke-linejoin: round; stroke-linecap: butt}</style>
 </defs>
 <g id="figure_1">
  <g id="patch_1">
   <path d="M 0 338.4 
L 453.6 338.4 
L 453.6 0 
L 0 0 
z
" style="fill: #ffffff"/>
  </g>
  <g id="axes_1">
   <g id="patch_2">
    <path d="M 7.2 331.2 
L 446.4 331.2 
L 446.4 7.2 
L 7.2 7.2 
z
" style="fill: #ffffff"/>
   </g>
   <g id="matplotlib.axis_1"/>
   <g id="matplotlib.axis_2"/>
   <g id="line2d_1">
    <path d="M 27.163636 91.326201 
L 27.962182 89.707301 
L 28.760727 88.518267 
L 29.559273 87.737452 
L 30.357818 87.342892 
L 30.890182 87.283675 
L 31.422545 87.379971 
L 32.221091 87.801901 
L 33.019636 88.537386 
L 33.818182 89.564604 
L 34.882909 91.350323 
L 35.947636 93.564222 
L 37.278545 96.854795 
L 38.875636 101.43751 
L 41.005091 108.337285 
L 44.731636 121.421031 
L 47.659636 131.379776 
L 49.522909 137.026805 
L 51.12 141.187608 
L 52.450909 144.042452 
L 53.515636 145.852679 
L 54.580364 147.185868 
L 55.378909 147.841595 
L 56.177455 148.178043 
L 56.709818 148.214192 
L 57.242182 148.092299 
L 57.774545 147.805868 
L 58.573091 147.053634 
L 59.371636 145.894832 
L 60.170182 144.307692 
L 60.968727 142.270339 
L 62.033455 138.815895 
L 63.098182 134.470611 
L 64.429091 128.147683 
L 66.558545 144.623758 
L 68.421818 157.48359 
L 70.285091 168.964237 
L 72.148364 179.136142 
L 74.011636 188.06961 
L 75.874909 195.835085 
L 77.472 201.614918 
L 79.069091 206.632652 
L 80.666182 210.932649 
L 82.263273 214.559188 
L 83.594182 217.098861 
L 84.925091 219.227332 
L 86.256 220.970187 
L 87.586909 222.353139 
L 88.917818 223.401828 
L 90.248727 224.14186 
L 91.579636 224.598964 
L 92.910545 224.798746 
L 94.241455 224.766846 
L 95.572364 224.528959 
L 97.169455 224.007669 
L 99.032727 223.130382 
L 101.162182 221.859088 
L 104.090182 219.828933 
L 109.147636 216.293774 
L 111.277091 215.075219 
L 113.140364 214.262294 
L 114.737455 213.809702 
L 116.068364 213.638589 
L 117.399273 213.682173 
L 118.730182 213.966093 
L 120.061091 214.515999 
L 121.392 215.357542 
L 122.722909 216.516388 
L 124.053818 218.018178 
L 125.384727 219.888545 
L 126.183273 221.05106 
L 126.981818 221.354011 
L 127.514182 221.355688 
L 128.312727 221.07254 
L 129.111273 220.464382 
L 129.909818 219.551227 
L 130.974545 217.893827 
L 132.039273 215.777137 
L 133.370182 212.557676 
L 134.967273 207.975215 
L 136.830545 201.839779 
L 139.226182 193.093531 
L 146.413091 166.224088 
L 148.276364 160.366928 
L 149.873455 156.09517 
L 151.204364 153.185445 
L 152.269091 151.349831 
L 153.333818 150.003089 
L 154.132364 149.342358 
L 154.930909 149.003241 
L 155.463273 148.965741 
L 155.995636 149.086019 
L 156.528 149.369992 
L 157.326545 150.115818 
L 158.125091 151.263296 
L 158.923636 152.832388 
L 159.722182 154.843126 
L 160.786909 158.245691 
L 161.851636 162.516343 
L 162.916364 167.70252 
L 163.981091 173.851536 
L 165.312 182.964165 
L 166.642909 193.747959 
L 167.973818 206.295711 
L 169.304727 220.699706 
L 169.570909 221.496568 
L 170.635636 219.163523 
L 171.700364 217.340602 
L 172.765091 215.995239 
L 173.563636 215.28011 
L 174.362182 214.801649 
L 175.160727 214.546143 
L 175.959273 214.499883 
L 176.757818 214.649164 
L 177.822545 215.128705 
L 178.887273 215.899021 
L 179.952 216.927626 
L 181.282909 218.527082 
L 182.88 220.822793 
L 185.009455 224.342344 
L 192.462545 237.20625 
L 194.059636 239.34823 
L 195.390545 240.786054 
L 196.455273 241.663359 
L 197.52 242.26287 
L 198.318545 242.510642 
L 199.117091 242.570167 
L 199.915636 242.427741 
L 200.714182 242.069646 
L 201.512727 241.482187 
L 202.311273 240.651643 
L 203.376 239.142453 
L 204.440727 237.144259 
L 205.505455 234.624608 
L 206.570182 231.550943 
L 207.634909 227.890845 
L 208.965818 222.4415 
L 210.296727 215.961574 
L 210.829091 213.06679 
L 211.361455 207.595104 
L 212.958545 190.224529 
L 214.555636 175.292265 
L 216.152727 162.631003 
L 217.483636 153.694173 
L 218.814545 146.121659 
L 220.145455 139.816691 
L 221.476364 134.682568 
L 222.541091 131.353213 
L 223.605818 128.661766 
L 224.670545 126.558629 
L 225.735273 124.994365 
L 226.533818 124.144905 
L 227.332364 123.549834 
L 228.130909 123.188175 
L 228.929455 123.039105 
L 229.728 123.081591 
L 230.792727 123.400273 
L 231.857455 123.972993 
L 233.188364 124.970594 
L 235.051636 126.719813 
L 239.576727 131.154283 
L 240.907636 132.097319 
L 241.972364 132.612789 
L 243.037091 132.862193 
L 243.835636 132.844847 
L 244.634182 132.629081 
L 245.432727 132.193984 
L 246.231273 131.518681 
L 247.029818 130.582317 
L 247.828364 129.363947 
L 248.893091 127.264585 
L 249.957818 124.577351 
L 251.022545 121.252438 
L 252.087273 117.240547 
L 253.418182 111.183965 
L 254.749091 103.879711 
L 256.08 95.23105 
L 257.410909 85.141019 
L 257.677091 84.836242 
L 260.072727 100.768985 
L 262.202182 113.567774 
L 264.331636 125.144296 
L 266.461091 135.55724 
L 268.590545 144.865016 
L 270.72 153.126105 
L 272.583273 159.542222 
L 274.446545 165.240989 
L 276.309818 170.261935 
L 278.173091 174.644052 
L 280.036364 178.426772 
L 281.899636 181.649182 
L 283.496727 183.995079 
L 285.093818 185.982976 
L 286.690909 187.637418 
L 288.288 188.983256 
L 289.885091 190.045103 
L 291.482182 190.84775 
L 293.079273 191.415827 
L 294.676364 191.774116 
L 296.539636 191.959905 
L 298.402909 191.932921 
L 300.532364 191.691996 
L 303.194182 191.161402 
L 307.719273 189.980689 
L 311.712 189.031764 
L 314.107636 188.673072 
L 316.237091 188.569849 
L 318.100364 188.694016 
L 319.963636 189.059503 
L 321.560727 189.594574 
L 323.157818 190.360493 
L 324.754909 191.381926 
L 326.352 192.68361 
L 327.949091 194.290255 
L 329.546182 196.226554 
L 331.143273 198.517245 
L 332.740364 201.18701 
L 334.337455 204.260561 
L 335.934545 207.762556 
L 337.797818 212.422852 
L 339.661091 217.739235 
L 341.524364 223.75097 
L 343.387636 230.497198 
L 344.984727 236.481342 
L 346.848 239.202864 
L 348.445091 241.180815 
L 350.042182 242.848846 
L 351.639273 244.223533 
L 353.236364 245.32142 
L 354.833455 246.159113 
L 356.430545 246.753204 
L 358.027636 247.120253 
L 359.624727 247.276873 
L 361.488 247.215751 
L 363.351273 246.917079 
L 365.214545 246.407231 
L 367.344 245.599735 
L 369.739636 244.451638 
L 372.667636 242.782633 
L 376.660364 240.210269 
L 384.379636 235.165078 
L 387.307636 233.536259 
L 389.703273 232.433005 
L 391.832727 231.67439 
L 393.696 231.214301 
L 395.559273 230.971893 
L 397.422545 230.973543 
L 399.019636 231.189143 
L 400.616727 231.619965 
L 402.213818 232.282601 
L 403.810909 233.193622 
L 405.408 234.369638 
L 407.005091 235.827213 
L 408.602182 237.582929 
L 410.199273 239.653393 
L 411.796364 242.055118 
L 413.659636 245.298061 
L 415.522909 249.040875 
L 417.386182 253.309824 
L 419.249455 258.131379 
L 421.112727 263.531822 
L 423.242182 270.446269 
L 425.371636 278.190602 
L 426.436364 282.386179 
L 426.436364 282.386179 
" clip-path="url(#pc4c1364681)" style="fill: none; stroke-dasharray: 11.1,4.8; stroke-dashoffset: 0; stroke: #000000; stroke-width: 3"/>
   </g>
   <g id="line2d_2">
    <path d="M 27.163636 78.201268 
L 27.429818 76.408421 
L 27.962182 80.284233 
L 28.228364 81.661172 
L 29.026909 90.107532 
L 29.293091 89.688709 
L 30.357818 100.595757 
L 30.624 98.286439 
L 31.422545 88.480855 
L 32.487273 104.025077 
L 33.019636 99.796104 
L 33.285818 99.903987 
L 34.350545 86.913518 
L 34.616727 87.780219 
L 34.882909 91.438912 
L 35.681455 106.195437 
L 35.947636 103.253163 
L 36.213818 101.688144 
L 36.48 100.951289 
L 37.012364 92.568342 
L 37.544727 87.37509 
L 37.810909 90.78006 
L 38.343273 110.398515 
L 38.609455 113.993953 
L 38.875636 111.622205 
L 39.141818 107.609016 
L 39.674182 104.193705 
L 39.940364 99.68197 
L 40.738909 92.970276 
L 41.005091 99.834622 
L 41.537455 118.207108 
L 41.803636 118.664853 
L 42.336 110.658488 
L 42.602182 109.882378 
L 43.666909 101.818113 
L 43.933091 103.196597 
L 44.465455 129.010363 
L 44.731636 132.710542 
L 44.997818 129.351622 
L 45.530182 116.388453 
L 45.796364 114.435247 
L 46.328727 109.610923 
L 46.861091 108.659829 
L 47.127273 115.938574 
L 47.659636 137.903232 
L 47.925818 139.649818 
L 48.192 135.32339 
L 48.458182 128.219804 
L 49.256727 119.679659 
L 49.789091 117.052765 
L 50.055273 117.043109 
L 50.853818 145.21421 
L 51.12 144.898689 
L 51.918545 129.3344 
L 52.450909 124.463814 
L 52.717091 125.60255 
L 52.983273 124.154402 
L 53.249455 124.871348 
L 53.781818 147.37379 
L 54.048 150.601143 
L 54.314182 148.710244 
L 54.846545 134.43348 
L 55.378909 128.00934 
L 55.911273 123.325061 
L 56.177455 121.435971 
L 56.443636 127.530281 
L 56.976 150.632674 
L 57.242182 152.422958 
L 57.508364 149.623259 
L 58.040727 136.57359 
L 58.573091 128.172806 
L 59.105455 122.050335 
L 59.371636 121.213182 
L 60.170182 149.454069 
L 60.436364 150.268066 
L 60.702545 145.588124 
L 60.968727 138.470458 
L 61.234909 138.843617 
L 62.299636 122.161607 
L 62.565818 122.940105 
L 63.098182 147.189379 
L 63.364364 153.156284 
L 63.630545 152.136844 
L 64.429091 133.243287 
L 64.961455 128.8269 
L 65.227636 126.872676 
L 65.493818 126.388843 
L 65.76 132.078112 
L 66.292364 156.05788 
L 66.558545 159.359198 
L 66.824727 157.919319 
L 67.357091 147.271069 
L 67.889455 145.373147 
L 68.155636 144.93812 
L 68.421818 144.875269 
L 68.688 146.875719 
L 68.954182 154.356326 
L 69.220364 166.177336 
L 69.486545 172.412175 
L 69.752727 174.377083 
L 70.018909 174.122587 
L 70.551273 163.897741 
L 70.817455 161.273025 
L 71.083636 159.918909 
L 71.349818 160.193068 
L 71.616 161.610386 
L 71.882182 165.553245 
L 72.414545 183.351931 
L 72.946909 189.192158 
L 73.213091 189.298944 
L 74.011636 174.837215 
L 74.277818 172.074972 
L 74.544 172.276887 
L 74.810182 174.020313 
L 75.076364 179.314751 
L 75.608727 195.39372 
L 75.874909 199.966595 
L 76.141091 202.559385 
L 76.407273 201.638874 
L 76.939636 188.569841 
L 77.205818 185.188115 
L 77.472 183.766689 
L 77.738182 184.264866 
L 78.004364 185.741059 
L 78.270545 191.753742 
L 78.802909 210.933887 
L 79.069091 213.940408 
L 79.335273 214.698444 
L 79.601455 211.841037 
L 80.133818 198.507247 
L 80.4 195.736243 
L 80.666182 194.998607 
L 80.932364 195.081596 
L 81.198545 196.206804 
L 81.464727 202.468311 
L 81.730909 212.627242 
L 81.997091 218.346498 
L 82.263273 220.553094 
L 82.529455 221.067265 
L 83.061818 209.565033 
L 83.328 204.287045 
L 83.594182 201.577936 
L 83.860364 200.614799 
L 84.126545 200.247495 
L 84.392727 202.658894 
L 84.925091 219.978503 
L 85.191273 223.684809 
L 85.457455 225.011124 
L 85.723636 223.888839 
L 86.522182 206.958066 
L 86.788364 203.830003 
L 87.054545 203.13286 
L 87.320727 203.076066 
L 87.586909 206.083746 
L 88.119273 222.296959 
L 88.385455 225.235239 
L 88.651636 225.682511 
L 88.917818 221.978444 
L 89.450182 210.417048 
L 89.716364 207.283638 
L 89.982545 205.706005 
L 90.248727 204.996687 
L 90.514909 204.831676 
L 90.781091 209.18594 
L 91.313455 223.922767 
L 91.579636 225.988754 
L 91.845818 225.414594 
L 92.644364 210.375378 
L 93.176727 206.858794 
L 93.442909 205.477589 
L 93.709091 206.100099 
L 93.975273 211.981654 
L 94.241455 220.322852 
L 94.507636 224.489361 
L 94.773818 225.587269 
L 95.04 223.292303 
L 95.306182 212.646914 
L 95.572364 207.497667 
L 96.370909 202.858666 
L 96.637091 202.307145 
L 96.903273 203.970839 
L 97.435636 218.197077 
L 97.701818 222.088987 
L 97.968 222.117806 
L 98.766545 205.741214 
L 99.565091 202.030379 
L 99.831273 201.556561 
L 100.097455 204.32638 
L 100.629818 217.725787 
L 100.896 220.846126 
L 101.162182 218.860054 
L 101.694545 206.586426 
L 102.226909 203.151049 
L 102.759273 201.257516 
L 103.025455 201.303566 
L 103.291636 205.111532 
L 103.824 216.049654 
L 104.090182 218.18556 
L 104.356364 214.404587 
L 104.888727 204.752989 
L 105.687273 201.573863 
L 105.953455 200.615913 
L 106.219636 201.314697 
L 107.018182 214.978326 
L 107.284364 215.335166 
L 108.082909 203.695662 
L 109.147636 200.484838 
L 109.413818 202.218178 
L 109.946182 212.274115 
L 110.212364 215.071471 
L 110.478545 213.957736 
L 111.010909 205.633734 
L 111.277091 203.545898 
L 111.809455 202.13181 
L 112.075636 201.863225 
L 112.341818 202.043801 
L 112.608 204.305198 
L 113.140364 212.406911 
L 113.406545 214.13494 
L 113.672727 212.051572 
L 113.938909 207.545824 
L 114.205091 204.983968 
L 114.737455 202.799537 
L 115.003636 202.322006 
L 115.269818 202.103035 
L 115.536 202.335542 
L 115.802182 204.861996 
L 116.334545 212.733001 
L 116.600727 213.051613 
L 116.866909 210.356303 
L 117.133091 206.139311 
L 117.665455 203.152023 
L 118.197818 202.070249 
L 118.464 202.039306 
L 118.730182 203.165164 
L 119.528727 213.902372 
L 119.794909 213.05544 
L 120.327273 205.208381 
L 120.859636 202.437605 
L 121.125818 202.029826 
L 121.392 201.997522 
L 121.658182 202.247085 
L 121.924364 204.065704 
L 122.722909 214.789482 
L 122.989091 212.710301 
L 123.255273 208.072723 
L 123.521455 205.475904 
L 124.053818 203.280403 
L 124.32 203.017112 
L 124.586182 202.920236 
L 124.852364 203.710594 
L 125.118545 206.09722 
L 125.650909 213.5666 
L 125.917091 214.470371 
L 126.183273 211.569003 
L 126.449455 207.227774 
L 126.715636 204.746905 
L 126.981818 203.956452 
L 127.248 203.547303 
L 127.780364 203.725481 
L 128.046545 204.873793 
L 128.845091 213.118599 
L 129.111273 212.295385 
L 129.643636 204.908941 
L 129.909818 203.176303 
L 130.176 202.503231 
L 130.442182 202.363606 
L 130.974545 202.862783 
L 131.240727 203.733206 
L 131.506909 205.221987 
L 132.039273 209.232113 
L 132.305455 208.673183 
L 132.837818 203.781626 
L 133.104 202.79872 
L 133.636364 202.232653 
L 134.434909 202.836932 
L 134.701091 203.478701 
L 135.233455 205.366923 
L 135.499636 204.570228 
L 135.765818 202.935414 
L 136.032 202.121478 
L 136.298182 201.849681 
L 136.830545 202.27377 
L 137.096727 202.512711 
L 137.362909 202.185848 
L 137.629091 201.576874 
L 137.895273 201.874365 
L 138.427636 202.893674 
L 139.226182 199.738556 
L 139.492364 199.621069 
L 140.024727 201.079425 
L 140.290909 201.197184 
L 140.823273 199.1214 
L 141.089455 199.954235 
L 141.355636 200.395477 
L 141.621818 199.936108 
L 142.686545 195.618554 
L 142.952727 195.500427 
L 143.218909 195.832513 
L 143.485091 195.574909 
L 143.751273 194.399683 
L 144.017455 193.98561 
L 144.283636 194.656979 
L 144.549818 194.424376 
L 144.816 193.475117 
L 145.082182 193.292479 
L 145.348364 192.704792 
L 145.880727 192.174416 
L 146.413091 193.795063 
L 146.679273 193.697309 
L 147.211636 190.175116 
L 147.477818 190.302347 
L 147.744 190.08069 
L 148.010182 188.992657 
L 148.542545 184.581265 
L 148.808727 184.102786 
L 149.074909 183.936862 
L 149.341091 184.178559 
L 149.607273 182.978851 
L 149.873455 180.722044 
L 150.139636 179.875165 
L 150.405818 181.150619 
L 150.672 180.942156 
L 150.938182 181.139252 
L 151.470545 181.943935 
L 152.002909 181.089638 
L 152.535273 179.315462 
L 153.067636 172.890391 
L 153.333818 173.211767 
L 153.6 173.190568 
L 153.866182 172.536579 
L 154.398545 174.56562 
L 154.664727 175.988573 
L 154.930909 176.179656 
L 155.197091 176.011713 
L 155.463273 174.842184 
L 155.729455 172.778557 
L 155.995636 167.762 
L 156.528 170.360022 
L 157.060364 169.686397 
L 157.592727 171.874479 
L 157.858909 174.252029 
L 158.391273 175.207609 
L 158.657455 174.951129 
L 159.189818 171.384229 
L 159.722182 174.033972 
L 159.988364 174.764286 
L 160.254545 176.543229 
L 160.786909 186.335401 
L 161.053091 188.595359 
L 161.585455 190.642587 
L 161.851636 190.982775 
L 162.117818 189.605617 
L 162.384 189.7181 
L 163.448727 195.467395 
L 163.714909 196.721536 
L 163.981091 196.804674 
L 164.513455 195.554632 
L 164.779636 195.688305 
L 165.045818 196.091406 
L 165.312 195.987104 
L 165.578182 197.328659 
L 166.110545 203.347942 
L 166.376727 204.592691 
L 166.642909 204.166311 
L 166.909091 202.73708 
L 167.175273 200.30565 
L 167.441455 199.080819 
L 167.707636 198.636566 
L 167.973818 199.723818 
L 168.506182 204.669096 
L 169.038545 217.861585 
L 169.304727 218.413151 
L 169.570909 218.003633 
L 169.837091 216.825352 
L 170.369455 212.896845 
L 170.635636 212.538847 
L 170.901818 213.398182 
L 171.434182 220.178917 
L 172.232727 227.566247 
L 172.498909 226.239467 
L 173.031273 221.086866 
L 173.297455 218.388396 
L 173.563636 217.053592 
L 173.829818 217.839306 
L 174.362182 224.237858 
L 174.628364 224.946131 
L 175.426909 231.924944 
L 175.693091 231.445412 
L 176.491636 226.979613 
L 176.757818 226.299992 
L 177.024 226.374791 
L 177.556364 229.146576 
L 177.822545 230.108247 
L 178.354909 236.03989 
L 178.621091 237.277423 
L 178.887273 236.508651 
L 179.685818 231.486257 
L 179.952 230.768574 
L 180.218182 231.639383 
L 180.750545 236.415234 
L 181.016727 237.954867 
L 181.549091 241.802817 
L 181.815273 241.936719 
L 182.081455 240.883149 
L 182.347636 238.522716 
L 182.613818 237.686677 
L 182.88 237.764276 
L 183.146182 238.007957 
L 183.678545 243.433027 
L 183.944727 243.763879 
L 184.210909 244.407896 
L 184.743273 247.01769 
L 185.009455 246.707277 
L 185.275636 245.37706 
L 185.541818 243.461767 
L 185.808 243.170135 
L 186.074182 243.900235 
L 186.872727 248.590855 
L 187.138909 248.602385 
L 187.405091 249.24311 
L 187.937455 251.578323 
L 188.203636 251.741992 
L 188.469818 250.331665 
L 188.736 248.039263 
L 189.002182 247.63625 
L 189.534545 249.178564 
L 189.800727 250.197583 
L 190.066909 249.973407 
L 190.333091 250.075923 
L 190.865455 254.240768 
L 191.131636 254.471185 
L 191.397818 253.678664 
L 191.930182 248.847242 
L 192.196364 247.964912 
L 192.462545 247.982187 
L 192.728727 248.26002 
L 192.994909 248.300048 
L 193.261091 247.76941 
L 193.527273 249.360588 
L 193.793455 253.179069 
L 194.059636 253.792165 
L 194.325818 253.215591 
L 194.592 251.776797 
L 195.124364 245.891239 
L 195.390545 244.586466 
L 195.656727 244.406518 
L 196.455273 245.591277 
L 196.987636 251.85939 
L 197.253818 251.915724 
L 197.52 250.995029 
L 197.786182 248.857399 
L 198.318545 242.255786 
L 198.584727 241.297767 
L 198.850909 241.998903 
L 199.649455 245.544683 
L 199.915636 249.377442 
L 200.181818 250.467265 
L 200.448 249.989972 
L 200.714182 248.245997 
L 200.980364 244.842862 
L 201.512727 236.357641 
L 201.778909 236.171404 
L 202.311273 240.162692 
L 202.577455 241.659672 
L 203.109818 246.366826 
L 203.376 246.714343 
L 203.642182 245.947345 
L 203.908364 243.0845 
L 204.440727 231.676128 
L 204.706909 229.387307 
L 204.973091 228.786303 
L 206.304 241.699305 
L 206.836364 239.58373 
L 207.102545 235.067097 
L 207.368727 228.604763 
L 207.634909 225.078619 
L 207.901091 223.790805 
L 208.167273 223.301933 
L 208.433455 224.219494 
L 208.699636 225.747206 
L 209.232 233.082746 
L 209.498182 233.237847 
L 209.764364 232.084706 
L 210.030545 229.981473 
L 210.562909 218.513915 
L 210.829091 215.820308 
L 211.095273 214.590429 
L 211.361455 214.179384 
L 211.627636 214.342666 
L 211.893818 214.76184 
L 212.426182 221.228124 
L 212.692364 220.541551 
L 212.958545 218.603575 
L 213.224727 213.405547 
L 213.757091 198.243297 
L 214.023273 194.760263 
L 214.289455 193.855913 
L 214.555636 193.780614 
L 214.821818 192.064619 
L 215.088 189.183292 
L 215.354182 191.989479 
L 215.620364 191.891155 
L 215.886545 190.283632 
L 216.152727 187.585399 
L 216.685091 174.262519 
L 216.951273 170.622892 
L 217.217455 168.526787 
L 217.749818 166.081935 
L 218.016 163.740191 
L 218.282182 165.375049 
L 218.548364 170.90173 
L 218.814545 172.252185 
L 219.080727 170.299532 
L 219.346909 165.6872 
L 219.879273 153.05904 
L 220.677818 149.136985 
L 220.944 145.861493 
L 221.210182 140.379686 
L 221.476364 139.35942 
L 221.742545 146.774086 
L 222.008727 150.861661 
L 222.274909 150.308427 
L 223.073455 136.57273 
L 223.339636 136.619833 
L 223.605818 138.217753 
L 223.872 137.396453 
L 224.404364 127.158527 
L 224.670545 132.327938 
L 224.936727 141.274073 
L 225.202909 144.928096 
L 225.469091 142.158891 
L 226.001455 131.740997 
L 226.267636 130.189583 
L 226.533818 130.357808 
L 226.8 131.884607 
L 227.066182 130.742992 
L 227.332364 125.486766 
L 227.598545 124.285917 
L 228.130909 141.644212 
L 228.397091 143.829231 
L 229.195636 131.719841 
L 229.461818 130.076609 
L 229.728 130.204454 
L 229.994182 130.494202 
L 230.260364 128.273544 
L 230.526545 124.888606 
L 230.792727 128.419384 
L 231.325091 146.825367 
L 231.591273 146.980372 
L 232.389818 133.941167 
L 232.922182 131.059725 
L 233.188364 129.985948 
L 233.454545 127.442289 
L 233.720727 126.263894 
L 234.519273 149.618238 
L 234.785455 148.429888 
L 235.584 136.731684 
L 235.850182 134.848914 
L 236.116364 134.200842 
L 236.382545 133.055259 
L 236.648727 131.411922 
L 236.914909 131.480988 
L 237.713455 151.326867 
L 237.979636 148.936808 
L 238.512 140.433812 
L 238.778182 137.928109 
L 239.044364 137.004 
L 239.576727 136.231313 
L 239.842909 136.827015 
L 240.109091 137.150086 
L 240.641455 150.172507 
L 240.907636 151.175321 
L 241.706182 140.654073 
L 241.972364 139.151343 
L 242.504727 139.153309 
L 242.770909 138.957645 
L 243.037091 139.772765 
L 243.303273 141.232956 
L 243.835636 151.499709 
L 244.101818 150.613924 
L 244.634182 143.662306 
L 245.166545 140.513517 
L 245.432727 140.083476 
L 245.698909 140.199242 
L 245.965091 139.537827 
L 246.231273 140.112514 
L 246.497455 141.934136 
L 246.763636 147.073824 
L 247.029818 149.388584 
L 247.296 147.095488 
L 247.828364 141.403146 
L 248.094545 139.950856 
L 248.360727 139.397974 
L 248.626909 138.07732 
L 248.893091 137.696068 
L 249.159273 135.654677 
L 249.425455 132.615264 
L 249.691636 136.407525 
L 249.957818 141.925182 
L 250.224 141.94309 
L 251.022545 131.849213 
L 251.554909 129.963213 
L 251.821091 127.627508 
L 252.087273 123.011717 
L 252.353455 114.055874 
L 252.619636 113.056588 
L 253.152 124.298083 
L 253.418182 121.80216 
L 253.950545 108.891238 
L 254.482909 106.394824 
L 254.749091 104.13117 
L 255.015273 99.202842 
L 255.281455 91.161224 
L 255.547636 87.58164 
L 255.813818 91.591529 
L 256.346182 104.937653 
L 256.612364 102.084845 
L 256.878545 95.745203 
L 257.144727 92.258685 
L 257.410909 92.668571 
L 257.677091 92.465059 
L 258.475636 81.812226 
L 258.741818 83.447593 
L 259.540364 106.012957 
L 260.072727 99.63499 
L 260.338909 99.673104 
L 260.871273 106.458009 
L 261.137455 104.731981 
L 261.669818 96.118819 
L 261.936 100.674813 
L 262.468364 122.356991 
L 262.734545 123.555839 
L 263.000727 121.38971 
L 263.266909 121.07217 
L 264.065455 131.837468 
L 264.331636 132.45573 
L 264.597818 130.803632 
L 264.864 127.663692 
L 265.130182 132.36449 
L 265.396364 141.263574 
L 265.662545 145.155836 
L 265.928727 143.377279 
L 266.194909 140.727598 
L 266.461091 141.343508 
L 266.727273 143.509338 
L 266.993455 143.902072 
L 267.525818 142.551538 
L 267.792 142.458156 
L 268.058182 144.613979 
L 268.590545 158.975207 
L 268.856727 160.866421 
L 269.122909 159.046784 
L 269.655273 154.428166 
L 269.921455 152.93432 
L 270.453818 150.927813 
L 270.72 150.990226 
L 270.986182 152.776471 
L 271.252364 158.419866 
L 271.784727 178.65043 
L 272.050909 179.630887 
L 272.317091 175.843673 
L 272.849455 162.185547 
L 273.115636 158.64255 
L 273.648 156.075507 
L 273.914182 157.02251 
L 274.180364 160.671125 
L 274.978909 191.404556 
L 275.245091 191.392785 
L 275.511273 187.067146 
L 276.309818 165.037775 
L 276.576 162.72758 
L 276.842182 162.189568 
L 277.108364 164.275394 
L 277.374545 170.863808 
L 277.906909 201.077828 
L 278.173091 204.400441 
L 278.439273 202.240405 
L 279.237818 183.905164 
L 279.504 181.757865 
L 279.770182 180.683728 
L 280.036364 181.471267 
L 280.302545 185.254232 
L 280.568727 193.7588 
L 280.834909 207.792832 
L 281.101091 212.488548 
L 281.367273 211.896603 
L 281.633455 208.564869 
L 282.432 192.02503 
L 282.698182 189.818654 
L 282.964364 189.295327 
L 283.230545 190.287319 
L 283.496727 194.159742 
L 284.029091 212.755781 
L 284.295273 215.101036 
L 284.561455 213.688493 
L 284.827636 210.015676 
L 285.36 199.446551 
L 285.892364 193.245446 
L 286.158545 192.297258 
L 286.424727 193.193155 
L 286.690909 197.49733 
L 287.223273 213.690433 
L 287.489455 214.993495 
L 287.755636 213.56408 
L 288.021818 210.163605 
L 288.554182 199.078124 
L 289.086545 194.047838 
L 289.352727 193.235816 
L 289.618909 194.404985 
L 289.885091 199.578917 
L 290.151273 208.922324 
L 290.417455 213.35531 
L 290.683636 213.96963 
L 290.949818 212.794624 
L 292.014545 195.189821 
L 292.280727 193.178662 
L 292.546909 192.707223 
L 292.813091 194.653784 
L 293.345455 210.283909 
L 293.611636 213.322963 
L 293.877818 213.211638 
L 294.144 211.398786 
L 294.676364 200.0491 
L 295.474909 193.192347 
L 295.741091 192.922252 
L 296.007273 196.690418 
L 296.539636 212.108033 
L 296.805818 213.99255 
L 297.072 213.322875 
L 297.338182 210.732227 
L 297.870545 199.226633 
L 298.669091 192.853678 
L 298.935273 194.168748 
L 299.201455 200.271714 
L 299.467636 209.218182 
L 299.733818 213.520137 
L 300 214.2269 
L 300.266182 213.149234 
L 300.532364 208.75632 
L 301.064727 196.754542 
L 301.597091 191.665969 
L 301.863273 191.223244 
L 302.129455 194.445479 
L 302.928 212.990297 
L 303.194182 213.226912 
L 303.460364 211.42922 
L 304.258909 192.594854 
L 304.791273 188.097945 
L 305.057455 188.71576 
L 305.323636 192.984314 
L 305.856 207.318523 
L 306.122182 210.482638 
L 306.388364 209.703157 
L 306.654545 205.967988 
L 307.186909 190.202557 
L 307.719273 180.804892 
L 307.985455 178.303764 
L 308.251636 178.136189 
L 308.517818 183.768532 
L 309.050182 201.488961 
L 309.316364 205.984175 
L 309.582545 204.801944 
L 310.114909 191.53909 
L 310.647273 179.306236 
L 310.913455 175.240623 
L 311.179636 173.977932 
L 311.445818 176.421248 
L 312.244364 200.448506 
L 312.510545 203.930767 
L 312.776727 201.602287 
L 313.841455 177.344831 
L 314.107636 174.115126 
L 314.373818 173.856434 
L 314.64 178.191948 
L 315.438545 199.626951 
L 315.704727 201.240891 
L 315.970909 198.676182 
L 316.769455 180.922028 
L 317.301818 174.028459 
L 317.568 174.706105 
L 317.834182 179.696038 
L 318.366545 194.080019 
L 318.632727 198.166137 
L 318.898909 198.942914 
L 319.165091 196.781122 
L 319.963636 181.411997 
L 320.229818 177.569569 
L 320.496 175.551466 
L 320.762182 175.621946 
L 321.028364 180.255012 
L 321.560727 194.383374 
L 321.826909 197.5334 
L 322.093091 198.204471 
L 322.359273 195.071079 
L 322.891636 186.352228 
L 323.424 180.124253 
L 323.690182 178.395618 
L 323.956364 177.693007 
L 324.222545 181.58907 
L 324.488727 193.216013 
L 325.021091 202.624571 
L 325.287273 201.961172 
L 325.819636 193.720238 
L 326.618182 186.923782 
L 326.884364 186.024128 
L 327.150545 187.489884 
L 327.949091 205.255581 
L 328.215273 206.967669 
L 329.013818 196.070901 
L 329.812364 191.526932 
L 330.078545 192.097222 
L 331.409455 214.162038 
L 331.675636 212.679104 
L 331.941818 209.273054 
L 332.740364 204.851076 
L 333.006545 204.820817 
L 333.538909 209.019664 
L 334.071273 216.711543 
L 334.337455 218.759703 
L 334.603636 218.091546 
L 335.136 212.258025 
L 335.668364 210.114298 
L 335.934545 209.817237 
L 336.466909 212.500135 
L 336.733091 214.929695 
L 337.265455 223.611933 
L 337.531636 224.173848 
L 337.797818 222.128059 
L 338.330182 215.941472 
L 338.596364 215.191784 
L 338.862545 214.854432 
L 339.128727 215.221217 
L 339.394909 216.293915 
L 339.661091 218.085796 
L 340.193455 228.262143 
L 340.459636 229.886933 
L 340.725818 229.27205 
L 340.992 226.268487 
L 341.258182 221.675616 
L 341.524364 219.206835 
L 341.790545 218.530198 
L 342.056727 218.605717 
L 342.322909 219.286654 
L 342.589091 221.07154 
L 343.387636 234.597861 
L 343.653818 236.004637 
L 343.92 234.882282 
L 344.186182 231.903727 
L 344.452364 227.264464 
L 344.718545 224.83708 
L 344.984727 224.184092 
L 345.250909 224.699202 
L 345.517091 226.424993 
L 345.783273 229.152676 
L 346.315636 237.786924 
L 346.581818 239.029118 
L 346.848 239.304164 
L 347.114182 237.893464 
L 347.912727 229.415994 
L 348.178909 229.157583 
L 348.711273 232.684754 
L 348.977455 234.632447 
L 349.509818 240.413378 
L 349.776 240.532014 
L 350.042182 240.145478 
L 350.308364 238.335935 
L 350.840727 233.423206 
L 351.106909 232.528968 
L 351.373091 233.125548 
L 352.171636 237.837679 
L 352.704 241.558934 
L 352.970182 241.75545 
L 353.236364 241.076522 
L 354.034909 234.844228 
L 354.301091 233.771268 
L 354.567273 234.213712 
L 355.099636 236.78604 
L 355.898182 242.432438 
L 356.164364 242.457771 
L 356.430545 241.122037 
L 357.229091 233.220984 
L 357.495273 232.004667 
L 357.761455 232.266071 
L 358.56 237.461009 
L 358.826182 240.796438 
L 359.092364 241.646259 
L 359.358545 241.259239 
L 359.624727 239.833433 
L 360.157091 233.475796 
L 360.423273 231.364899 
L 360.689455 230.296758 
L 360.955636 230.819066 
L 361.488 233.696065 
L 361.754182 237.629312 
L 362.020364 239.728262 
L 362.286545 239.778394 
L 362.552727 239.439417 
L 362.818909 237.487879 
L 363.351273 231.774101 
L 363.617455 230.221037 
L 363.883636 229.508498 
L 364.149818 230.339323 
L 364.416 232.00328 
L 365.214545 239.067435 
L 365.480727 239.374661 
L 365.746909 238.428342 
L 366.811636 227.485322 
L 367.077818 226.687354 
L 367.610182 230.185539 
L 368.142545 236.042488 
L 368.674909 237.149411 
L 368.941091 235.482636 
L 369.739636 227.417423 
L 370.005818 225.864298 
L 370.272 226.932641 
L 371.070545 234.569903 
L 371.336727 236.011299 
L 371.602909 236.400584 
L 371.869091 236.235081 
L 372.135273 234.058128 
L 372.667636 228.056155 
L 372.933818 226.081074 
L 373.2 225.355341 
L 373.732364 229.357901 
L 374.264727 233.080156 
L 374.530909 233.592352 
L 374.797091 233.663367 
L 375.063273 232.090105 
L 375.861818 222.434574 
L 376.128 221.254976 
L 376.394182 221.09625 
L 376.926545 224.459269 
L 377.458909 228.732642 
L 377.725091 230.407257 
L 377.991273 230.844847 
L 378.257455 228.814841 
L 378.789818 222.99971 
L 379.056 221.26745 
L 379.322182 220.467648 
L 379.588364 221.257039 
L 380.386909 228.147957 
L 380.653091 229.937152 
L 380.919273 230.775877 
L 381.185455 230.572707 
L 381.451636 228.959048 
L 381.717818 225.835953 
L 381.984 224.361384 
L 382.250182 223.656895 
L 382.516364 223.667621 
L 382.782545 225.260897 
L 383.314909 229.871667 
L 383.581091 231.103433 
L 383.847273 231.168681 
L 384.379636 230.325919 
L 384.912 225.839947 
L 385.178182 225.791334 
L 385.444364 226.756087 
L 385.710545 228.494413 
L 386.509091 236.513549 
L 386.775273 238.326612 
L 387.307636 237.759615 
L 387.573818 236.209211 
L 388.106182 229.782613 
L 388.372364 229.110998 
L 388.638545 229.783078 
L 388.904727 232.260682 
L 389.437091 240.411491 
L 389.703273 242.641076 
L 389.969455 242.646809 
L 390.501818 240.176491 
L 390.768 237.77826 
L 391.034182 236.715929 
L 391.566545 239.60902 
L 392.365091 247.570063 
L 392.631273 250.347694 
L 392.897455 250.790332 
L 393.163636 250.750479 
L 394.228364 244.703377 
L 394.494545 244.191024 
L 394.760727 244.23437 
L 395.026909 245.00581 
L 395.293091 246.647507 
L 395.825455 248.265761 
L 396.091636 250.849961 
L 396.357818 252.031718 
L 396.624 250.001554 
L 397.422545 240.893121 
L 397.688727 239.469702 
L 397.954909 239.266698 
L 398.487273 242.259886 
L 398.753455 241.974614 
L 399.019636 242.322895 
L 399.285818 243.246509 
L 399.552 242.274001 
L 399.818182 240.86475 
L 400.350545 234.991569 
L 400.616727 231.978921 
L 401.149091 229.189922 
L 401.681455 233.328586 
L 401.947636 232.560078 
L 402.213818 232.373428 
L 402.48 234.018785 
L 402.746182 234.288546 
L 403.012364 233.866985 
L 403.278545 232.519057 
L 403.544727 230.55322 
L 403.810909 227.322215 
L 404.077091 225.486144 
L 404.343273 225.3644 
L 404.609455 226.735871 
L 404.875636 227.042693 
L 405.141818 225.894697 
L 405.408 227.247961 
L 405.674182 230.523356 
L 405.940364 231.544307 
L 406.206545 232.02024 
L 406.472727 231.541796 
L 407.537455 224.548551 
L 407.803636 224.858034 
L 408.069818 224.195565 
L 408.336 225.105112 
L 408.868364 229.654128 
L 409.134545 230.630818 
L 409.400727 230.695654 
L 410.199273 223.441224 
L 410.731636 217.461644 
L 410.997818 216.819857 
L 411.264 218.493927 
L 412.062545 231.558782 
L 412.328727 232.969683 
L 412.594909 232.449148 
L 413.393455 226.1482 
L 413.659636 223.800759 
L 413.925818 223.079433 
L 414.192 224.849791 
L 415.256727 235.811553 
L 415.522909 235.892593 
L 415.789091 234.16042 
L 416.321455 227.775773 
L 416.587636 224.126112 
L 416.853818 222.214883 
L 417.12 222.52354 
L 417.918545 229.363782 
L 418.184727 228.860312 
L 418.450909 229.540898 
L 418.717091 229.146409 
L 418.983273 227.47585 
L 419.515636 220.470746 
L 419.781818 218.32996 
L 420.048 217.406175 
L 420.314182 218.588547 
L 421.112727 228.731975 
L 421.645091 231.462626 
L 421.911273 232.050226 
L 422.177455 231.07328 
L 422.709818 226.813847 
L 422.976 226.321639 
L 423.242182 227.864248 
L 423.508364 227.558022 
L 424.306909 230.171502 
L 425.105455 227.270521 
L 425.371636 224.374104 
L 425.904 209.46627 
L 426.436364 195.157184 
L 426.436364 195.157184 
" clip-path="url(#pc4c1364681)" style="fill: none; stroke: #0000ff; stroke-width: 3; stroke-linecap: square"/>
   </g>
   <g id="patch_3">
    <path d="M 7.2 331.2 
L 7.2 7.2 
" style="fill: none; stroke: #000000; stroke-width: 0.8; stroke-linejoin: miter; stroke-linecap: square"/>
   </g>
   <g id="patch_4">
    <path d="M 446.4 331.2 
L 446.4 7.2 
" style="fill: none; stroke: #000000; stroke-width: 0.8; stroke-linejoin: miter; stroke-linecap: square"/>
   </g>
   <g id="patch_5">
    <path d="M 7.2 331.2 
L 446.4 331.2 
" style="fill: none; stroke: #000000; stroke-width: 0.8; stroke-linejoin: miter; stroke-linecap: square"/>
   </g>
   <g id="patch_6">
    <path d="M 7.2 7.2 
L 446.4 7.2 
" style="fill: none; stroke: #000000; stroke-width: 0.8; stroke-linejoin: miter; stroke-linecap: square"/>
   </g>
  </g>
 </g>
 <defs>
  <clipPath id="pc4c1364681">
   <rect x="7.2" y="7.2" width="439.2" height="324"/>
  </clipPath>
 </defs>
</svg>
