<?xml version="1.0" encoding="utf-8" standalone="no"?>
<!DOCTYPE svg PUBLIC "-//W3C//DTD SVG 1.1//EN"
  "http://www.w3.org/Graphics/SVG/1.1/DTD/svg11.dtd">
<svg xmlns:xlink="http://www.w3.org/1999/xlink" width="453.6pt" height="338.4pt" viewBox="0 0 453.6 338.4" xmlns="http://www.w3.org/2000/svg" version="1.1">
 <metadata>
  <rdf:RDF xmlns:dc="http://purl.org/dc/elements/1.1/" xmlns:cc="http://creativecommons.org/ns#" xmlns:rdf="http://www.w3.org/1999/02/22-rdf-syntax-ns#">
   <cc:Work>
    <dc:type rdf:resource="http://purl.org/dc/dcmitype/StillImage"/>
    <dc:date>2025-05-14T16:24:28.816776</dc:date>
    <dc:format>image/svg+xml</dc:format>
    <dc:creator>
     <cc:Agent>
      <dc:title>Matplotlib v3.10.1, https://matplotlib.org/</dc:title>
     </cc:Agent>
    </dc:creator>
   </cc:Work>
  </rdf:RDF>
 </metadata>
 <defs>
  <style type="text/css">*{stroke-linejoin: round; stroke-linecap: butt}</style>
 </defs>
 <g id="figure_1">
  <g id="patch_1">
   <path d="M 0 338.4 
L 453.6 338.4 
L 453.6 0 
L 0 0 
z
" style="fill: #ffffff"/>
  </g>
  <g id="axes_1">
   <g id="patch_2">
    <path d="M 7.2 331.2 
L 446.4 331.2 
L 446.4 7.2 
L 7.2 7.2 
z
" style="fill: #ffffff"/>
   </g>
   <g id="matplotlib.axis_1"/>
   <g id="matplotlib.axis_2"/>
   <g id="line2d_1">
    <path d="M 27.163636 81.434801 
L 32.487273 85.918358 
L 37.810909 90.123806 
L 43.400727 94.252235 
L 48.990545 98.098956 
L 54.580364 101.676609 
L 60.170182 104.998116 
L 66.026182 108.216884 
L 71.882182 111.183105 
L 78.004364 114.030101 
L 84.126545 116.633908 
L 90.514909 119.109782 
L 97.169455 121.447154 
L 104.090182 123.639354 
L 111.277091 125.683853 
L 118.996364 127.647154 
L 127.248 129.516493 
L 136.564364 131.39261 
L 147.211636 133.305401 
L 161.851636 135.688403 
L 188.736 140.028859 
L 199.649455 142.041071 
L 208.965818 143.981303 
L 217.217455 145.921166 
L 224.936727 147.962136 
L 232.123636 150.08915 
L 239.044364 152.370061 
L 245.698909 154.801342 
L 252.087273 157.37525 
L 258.209455 160.080286 
L 264.065455 162.901721 
L 269.921455 165.966854 
L 275.777455 169.290336 
L 281.367273 172.71726 
L 286.957091 176.405746 
L 292.546909 180.368496 
L 297.870545 184.409249 
L 303.194182 188.721422 
L 308.517818 193.316022 
L 313.841455 198.204067 
L 318.366545 202.597894 
L 318.898909 201.382631 
L 321.028364 196.000078 
L 323.157818 191.245242 
L 325.021091 187.579473 
L 326.884364 184.357168 
L 328.747636 181.561138 
L 330.610909 179.173984 
L 332.474182 177.178468 
L 334.071273 175.766601 
L 335.668364 174.618868 
L 337.265455 173.724323 
L 338.862545 173.072125 
L 340.459636 172.65131 
L 342.056727 172.45108 
L 343.653818 172.460438 
L 345.250909 172.668515 
L 347.114182 173.147959 
L 348.977455 173.865739 
L 351.106909 174.955773 
L 353.236364 176.308677 
L 355.632 178.112786 
L 358.293818 180.424553 
L 361.221818 183.282715 
L 364.682182 186.997035 
L 368.941091 191.912951 
L 382.250182 207.533025 
L 385.710545 211.114216 
L 388.638545 213.825493 
L 391.300364 215.976515 
L 393.696 217.613796 
L 395.825455 218.800793 
L 397.688727 219.611024 
L 399.552 220.189951 
L 401.415273 220.52029 
L 403.012364 220.592455 
L 404.609455 220.458369 
L 406.206545 220.107147 
L 407.803636 219.527878 
L 409.400727 218.70965 
L 410.997818 217.641605 
L 412.594909 216.312823 
L 414.192 214.712401 
L 415.789091 212.829456 
L 417.652364 210.261095 
L 419.515636 207.276019 
L 421.378909 203.85696 
L 423.242182 199.986653 
L 425.105455 195.647706 
L 426.436364 192.251989 
L 426.436364 192.251989 
" clip-path="url(#p949c4827fb)" style="fill: none; stroke-dasharray: 11.1,4.8; stroke-dashoffset: 0; stroke: #000000; stroke-width: 3"/>
   </g>
   <g id="line2d_2">
    <path d="M 27.163636 219.444687 
L 27.429818 221.21242 
L 27.962182 220.308017 
L 28.228364 218.962179 
L 28.494545 220.232376 
L 29.026909 221.701713 
L 29.293091 220.883459 
L 29.559273 221.011207 
L 30.091636 218.825583 
L 30.357818 215.999531 
L 30.624 214.701227 
L 31.156364 210.614099 
L 31.422545 206.442868 
L 32.221091 206.557818 
L 32.487273 205.530679 
L 33.019636 205.324823 
L 33.552 204.501916 
L 33.818182 204.082356 
L 34.616727 201.582334 
L 35.149091 202.50489 
L 35.415273 202.622139 
L 35.681455 193.887988 
L 36.213818 193.085938 
L 36.48 192.508354 
L 36.746182 191.045056 
L 37.012364 190.945442 
L 37.544727 191.241924 
L 37.810909 191.076333 
L 38.077091 191.298586 
L 38.343273 191.215203 
L 38.609455 190.874594 
L 38.875636 189.414728 
L 39.141818 189.03136 
L 39.674182 187.746846 
L 39.940364 185.541313 
L 40.206545 185.310992 
L 40.472727 185.232269 
L 40.738909 184.99152 
L 41.005091 184.44696 
L 42.336 185.450722 
L 42.602182 185.255014 
L 42.868364 184.717677 
L 43.134545 183.651098 
L 43.666909 183.21342 
L 43.933091 182.726725 
L 44.199273 184.61873 
L 44.731636 184.850122 
L 44.997818 184.764403 
L 45.264 183.969701 
L 45.530182 183.972914 
L 46.594909 185.675565 
L 47.127273 186.35911 
L 47.393455 186.135733 
L 48.192 187.799322 
L 48.458182 187.138881 
L 49.256727 188.654313 
L 49.522909 188.871466 
L 50.853818 191.374219 
L 51.12 191.664907 
L 51.386182 191.778944 
L 51.652364 191.496595 
L 52.184727 191.764934 
L 52.450909 191.613019 
L 52.717091 188.485641 
L 53.781818 187.309151 
L 54.048 187.592386 
L 54.580364 187.769318 
L 55.378909 186.747183 
L 56.443636 184.055367 
L 56.709818 183.214711 
L 56.976 181.090682 
L 57.774545 180.116906 
L 58.040727 179.586144 
L 58.306909 179.403928 
L 58.839273 178.692916 
L 59.371636 178.335865 
L 59.637818 178.101998 
L 60.436364 176.357378 
L 60.702545 176.087608 
L 60.968727 176.118613 
L 61.234909 189.378465 
L 61.767273 190.525847 
L 62.033455 191.149235 
L 62.832 190.799593 
L 63.098182 190.589453 
L 63.364364 190.631817 
L 63.630545 190.362574 
L 63.896727 190.482141 
L 64.961455 189.802291 
L 65.227636 190.109403 
L 65.493818 188.429645 
L 65.76 188.380285 
L 66.026182 187.905309 
L 66.292364 187.66937 
L 66.824727 187.018524 
L 67.090909 187.086168 
L 67.357091 186.881954 
L 67.623273 187.126258 
L 68.155636 186.745796 
L 68.421818 186.221864 
L 68.688 185.347465 
L 68.954182 185.244173 
L 69.220364 184.710751 
L 69.486545 184.593616 
L 69.752727 184.250716 
L 70.018909 184.292842 
L 70.285091 183.775485 
L 70.551273 183.674756 
L 70.817455 183.730426 
L 71.083636 183.407505 
L 71.349818 183.591047 
L 71.616 182.903657 
L 71.882182 182.789331 
L 72.148364 181.858322 
L 72.680727 181.19149 
L 72.946909 180.486702 
L 73.213091 180.421138 
L 73.479273 179.451101 
L 73.745455 179.257824 
L 74.011636 178.466774 
L 74.277818 178.373427 
L 74.544 178.156528 
L 74.810182 177.570517 
L 75.076364 177.337905 
L 75.342545 176.239979 
L 75.608727 175.766232 
L 75.874909 174.476056 
L 76.141091 174.214687 
L 76.673455 172.824546 
L 76.939636 172.029352 
L 77.205818 170.798069 
L 77.472 170.410795 
L 77.738182 169.536765 
L 78.004364 169.30733 
L 78.270545 168.366779 
L 78.802909 168.300767 
L 79.069091 167.679837 
L 79.335273 167.568126 
L 79.601455 166.388362 
L 79.867636 165.76148 
L 80.133818 164.398481 
L 80.666182 163.127301 
L 81.464727 160.073229 
L 81.730909 159.677949 
L 82.263273 158.061192 
L 82.529455 157.659978 
L 83.061818 155.571993 
L 83.328 153.60669 
L 83.594182 152.535652 
L 84.126545 149.574645 
L 84.658909 147.4276 
L 84.925091 146.71141 
L 85.989818 142.367372 
L 86.522182 141.409783 
L 87.054545 139.61453 
L 87.320727 138.987297 
L 87.853091 137.125542 
L 89.184 133.419131 
L 91.313455 124.414235 
L 91.845818 121.828161 
L 92.910545 115.969087 
L 93.709091 114.002222 
L 94.507636 110.583014 
L 95.04 109.64521 
L 95.306182 114.796924 
L 95.572364 115.094749 
L 95.838545 114.927543 
L 96.104727 114.44076 
L 96.637091 114.178329 
L 96.903273 114.506491 
L 97.435636 114.600557 
L 97.968 114.20375 
L 98.234182 114.382947 
L 99.032727 116.132378 
L 99.298909 116.272845 
L 99.565091 116.64316 
L 99.831273 116.688894 
L 100.097455 117.06574 
L 100.363636 117.212492 
L 100.629818 117.537512 
L 100.896 117.488723 
L 101.162182 117.304838 
L 101.428364 117.451626 
L 102.226909 118.436147 
L 102.759273 118.411446 
L 103.025455 118.350666 
L 103.557818 119.622443 
L 103.824 120.760616 
L 104.090182 121.217501 
L 104.356364 120.852751 
L 104.622545 120.921976 
L 104.888727 121.175488 
L 105.421091 122.947566 
L 105.953455 123.776591 
L 106.219636 123.252449 
L 106.485818 123.134734 
L 106.752 122.880185 
L 107.284364 123.039737 
L 107.550545 122.718053 
L 107.816727 122.641227 
L 108.082909 122.190505 
L 108.349091 122.088871 
L 109.147636 121.082089 
L 109.413818 120.480769 
L 110.212364 119.868055 
L 110.478545 119.867054 
L 111.010909 119.084711 
L 111.543273 117.927086 
L 111.809455 117.397395 
L 112.075636 117.168848 
L 112.341818 115.316379 
L 113.406545 112.339642 
L 113.672727 111.907723 
L 114.205091 111.659863 
L 115.269818 111.442622 
L 115.536 111.41871 
L 116.600727 112.743349 
L 116.866909 112.824196 
L 117.133091 113.31147 
L 117.399273 113.476324 
L 118.464 115.309603 
L 118.730182 115.441029 
L 119.262545 116.225531 
L 119.528727 116.59941 
L 120.061091 117.607649 
L 120.327273 118.053175 
L 120.593455 118.061075 
L 120.859636 118.523701 
L 121.392 118.967822 
L 121.658182 119.318701 
L 121.924364 119.294614 
L 122.190545 119.450795 
L 122.456727 119.160291 
L 122.722909 119.083886 
L 122.989091 118.854724 
L 123.521455 118.752336 
L 123.787636 118.501457 
L 124.053818 118.419399 
L 124.32 118.094432 
L 124.586182 118.140166 
L 124.852364 117.974452 
L 125.384727 118.319837 
L 125.917091 118.26838 
L 126.183273 118.075138 
L 126.981818 118.579951 
L 128.046545 119.662875 
L 128.578909 121.247803 
L 129.111273 123.806595 
L 129.377455 127.576858 
L 129.909818 128.542137 
L 130.708364 130.894766 
L 131.240727 131.923354 
L 131.506909 132.300691 
L 131.773091 132.451429 
L 132.039273 132.893496 
L 132.305455 132.949395 
L 132.571636 133.277768 
L 133.104 133.595308 
L 133.636364 134.103791 
L 133.902545 134.522789 
L 134.168727 134.492574 
L 134.434909 134.956183 
L 134.701091 135.084958 
L 135.499636 136.368585 
L 137.629091 141.937191 
L 137.895273 143.136039 
L 138.161455 143.777282 
L 138.427636 143.901563 
L 138.96 144.371948 
L 139.492364 144.30397 
L 139.758545 143.876457 
L 140.024727 144.011166 
L 140.290909 143.848121 
L 141.355636 144.886558 
L 141.621818 144.969722 
L 142.154182 146.038355 
L 142.686545 147.581657 
L 143.218909 148.414544 
L 143.485091 148.585507 
L 144.017455 150.003054 
L 145.614545 156.716978 
L 146.146909 159.327912 
L 146.413091 162.831022 
L 146.945455 164.508506 
L 147.477818 165.848594 
L 148.276364 167.866408 
L 148.542545 168.2797 
L 149.607273 168.824524 
L 150.139636 169.227484 
L 150.405818 169.050315 
L 150.672 169.161991 
L 151.736727 167.661789 
L 152.269091 167.265316 
L 152.535273 167.275656 
L 153.067636 166.48034 
L 153.6 164.510367 
L 154.132364 163.342927 
L 154.398545 163.573529 
L 154.664727 163.638628 
L 154.930909 165.39322 
L 155.197091 165.533793 
L 155.463273 165.308405 
L 155.729455 165.272011 
L 155.995636 164.999854 
L 156.261818 164.993674 
L 156.528 164.819147 
L 156.794182 164.807472 
L 157.326545 165.658214 
L 157.858909 167.303483 
L 158.391273 168.523557 
L 158.923636 169.458341 
L 159.456 171.02379 
L 160.786909 173.973183 
L 162.384 180.355996 
L 162.916364 181.046985 
L 163.182545 180.852918 
L 163.448727 184.635558 
L 163.714909 184.84906 
L 164.247273 184.388883 
L 164.513455 183.976135 
L 165.045818 182.436854 
L 167.175273 175.232776 
L 167.707636 174.12242 
L 169.038545 169.189291 
L 170.369455 166.158937 
L 170.635636 165.820171 
L 171.168 166.141556 
L 171.700364 165.71313 
L 171.966545 165.839044 
L 173.031273 164.276605 
L 174.096 161.097427 
L 174.362182 159.9332 
L 174.628364 159.345188 
L 174.894545 158.415969 
L 175.160727 157.002618 
L 175.426909 156.267432 
L 176.225455 152.680245 
L 176.491636 152.24478 
L 177.024 150.973196 
L 177.290182 150.669227 
L 177.822545 148.335084 
L 178.354909 145.327238 
L 179.153455 142.292021 
L 179.685818 140.027033 
L 179.952 138.501585 
L 180.218182 137.875774 
L 180.484364 138.034869 
L 181.016727 138.658363 
L 181.549091 137.247277 
L 182.081455 134.366011 
L 182.347636 133.413811 
L 182.88 133.721415 
L 183.412364 134.267731 
L 183.678545 133.920275 
L 183.944727 133.854421 
L 184.210909 133.450873 
L 184.743273 133.633072 
L 185.541818 132.951063 
L 185.808 133.182841 
L 186.074182 132.948886 
L 186.872727 134.016729 
L 187.138909 134.658762 
L 188.203636 135.975272 
L 188.736 136.273641 
L 189.002182 137.378756 
L 189.268364 137.712273 
L 189.534545 138.319018 
L 189.800727 138.642352 
L 190.066909 139.745588 
L 190.333091 140.144502 
L 191.131636 141.934838 
L 191.397818 142.452871 
L 191.664 142.380855 
L 191.930182 142.976136 
L 192.196364 142.937003 
L 192.994909 144.523107 
L 193.261091 145.583349 
L 193.527273 145.5222 
L 193.793455 146.461672 
L 194.059636 146.465534 
L 195.124364 149.496853 
L 195.390545 149.435213 
L 195.656727 150.121155 
L 195.922909 150.00416 
L 196.189091 150.724704 
L 196.721455 152.803403 
L 196.987636 153.469909 
L 197.253818 153.460464 
L 197.52 154.829538 
L 197.786182 154.725218 
L 198.318545 155.837408 
L 198.584727 156.199542 
L 198.850909 155.657386 
L 199.117091 154.327674 
L 199.649455 153.345523 
L 200.181818 155.149325 
L 200.448 155.339828 
L 200.714182 155.034841 
L 200.980364 153.178071 
L 201.246545 152.470764 
L 201.512727 151.330238 
L 201.778909 151.998535 
L 202.045091 151.937878 
L 202.577455 150.741734 
L 202.843636 148.835947 
L 203.109818 148.118598 
L 203.376 146.934287 
L 203.642182 147.074175 
L 203.908364 146.862797 
L 204.440727 145.154589 
L 204.706909 143.749718 
L 204.973091 143.219589 
L 205.239273 141.905151 
L 205.505455 141.210712 
L 206.037818 139.122094 
L 206.304 138.770109 
L 206.570182 138.141418 
L 206.836364 138.118244 
L 207.634909 134.862819 
L 207.901091 133.56857 
L 208.167273 133.074185 
L 208.433455 132.299479 
L 208.699636 132.096757 
L 209.498182 129.392423 
L 209.764364 128.531762 
L 210.030545 128.169049 
L 210.562909 126.683384 
L 211.095273 123.841602 
L 211.627636 121.4941 
L 211.893818 120.81411 
L 212.16 119.807574 
L 212.426182 119.354709 
L 212.692364 117.865094 
L 212.958545 117.449467 
L 213.224727 116.697584 
L 213.757091 116.328832 
L 214.023273 115.571349 
L 214.289455 115.465344 
L 214.555636 114.706387 
L 214.821818 114.939464 
L 215.088 114.808143 
L 216.152727 117.137685 
L 216.418909 116.764579 
L 216.685091 117.053749 
L 216.951273 116.815264 
L 218.016 118.780531 
L 218.282182 118.556461 
L 218.548364 118.589484 
L 218.814545 117.819817 
L 219.080727 118.012514 
L 219.613091 118.975125 
L 219.879273 119.900868 
L 220.145455 119.989018 
L 220.411636 120.403715 
L 220.677818 119.78145 
L 220.944 119.92808 
L 221.210182 119.933241 
L 221.476364 120.280645 
L 221.742545 120.944764 
L 222.008727 120.705647 
L 222.274909 121.138726 
L 222.541091 120.189861 
L 222.807273 120.102607 
L 223.073455 119.285643 
L 223.339636 119.39314 
L 224.138182 120.731771 
L 224.404364 120.048112 
L 224.670545 119.875516 
L 224.936727 119.067225 
L 225.202909 118.726335 
L 225.469091 119.13429 
L 225.735273 119.851359 
L 226.001455 120.986916 
L 226.267636 120.688196 
L 226.533818 120.087421 
L 226.8 118.493118 
L 227.332364 116.965002 
L 227.864727 117.702471 
L 228.130909 117.385439 
L 228.397091 116.774305 
L 228.663273 115.190834 
L 229.195636 113.820883 
L 230.260364 115.003913 
L 230.526545 114.19578 
L 230.792727 114.061755 
L 231.058909 113.368791 
L 231.325091 113.416106 
L 231.591273 113.021546 
L 231.857455 113.566106 
L 232.389818 115.312745 
L 232.656 116.68935 
L 232.922182 116.974394 
L 233.188364 118.005474 
L 233.454545 118.268941 
L 233.720727 119.074441 
L 234.519273 122.920161 
L 234.785455 122.787365 
L 235.051636 123.349201 
L 235.317818 122.977658 
L 235.850182 124.393888 
L 236.914909 129.308908 
L 237.181091 129.874378 
L 237.713455 131.340204 
L 238.512 132.74339 
L 238.778182 133.808424 
L 239.044364 134.08109 
L 239.310545 135.135801 
L 239.576727 135.441403 
L 239.842909 136.018303 
L 240.375273 136.759177 
L 241.44 140.216588 
L 242.238545 141.675918 
L 242.770909 143.720329 
L 243.037091 145.50043 
L 243.569455 147.067978 
L 243.835636 147.097665 
L 244.101818 147.41963 
L 244.368 148.022811 
L 244.634182 149.017479 
L 246.231273 160.663155 
L 246.763636 165.393571 
L 247.828364 174.830272 
L 248.626909 179.536864 
L 249.425455 186.714283 
L 249.957818 190.588453 
L 250.224 191.241836 
L 250.490182 191.45877 
L 250.756364 191.158364 
L 251.022545 191.281996 
L 251.288727 191.207583 
L 251.554909 191.825766 
L 251.821091 192.114699 
L 252.087273 192.074363 
L 252.619636 190.587259 
L 252.885818 190.088423 
L 253.152 190.021841 
L 253.418182 190.160624 
L 253.684364 190.546958 
L 253.950545 190.527085 
L 254.216727 190.10828 
L 255.015273 187.107842 
L 255.281455 186.458277 
L 255.813818 186.015727 
L 256.08 186.135233 
L 256.346182 186.553599 
L 256.612364 186.39374 
L 256.878545 186.703266 
L 257.144727 186.505029 
L 257.410909 186.608638 
L 257.677091 186.300806 
L 258.475636 187.011914 
L 258.741818 187.137775 
L 259.274182 186.379906 
L 259.540364 186.128149 
L 259.806545 186.234891 
L 260.072727 186.916882 
L 260.605091 187.448091 
L 260.871273 187.17998 
L 261.137455 187.159071 
L 261.403636 186.953583 
L 261.936 188.407111 
L 262.468364 190.479867 
L 263.000727 191.68392 
L 263.533091 193.530095 
L 264.065455 196.237123 
L 264.864 200.170686 
L 265.130182 200.835165 
L 265.662545 203.092621 
L 266.194909 206.887007 
L 266.727273 211.699428 
L 266.993455 212.875488 
L 267.259636 213.06923 
L 267.792 211.716493 
L 268.058182 211.215586 
L 268.324364 211.340183 
L 268.590545 212.019216 
L 268.856727 212.327803 
L 269.122909 212.442296 
L 269.655273 210.801038 
L 269.921455 210.194118 
L 270.72 210.246005 
L 270.986182 210.408287 
L 272.050909 206.944688 
L 273.115636 205.022004 
L 273.648 202.723501 
L 274.446545 200.610594 
L 275.245091 199.869412 
L 275.777455 197.868224 
L 278.705455 182.074475 
L 279.237818 180.487931 
L 279.504 179.978158 
L 281.101091 175.24956 
L 281.899636 173.760998 
L 282.698182 172.082802 
L 282.964364 171.746757 
L 284.029091 171.532237 
L 285.093818 170.333486 
L 285.626182 169.754612 
L 285.892364 169.687775 
L 286.158545 169.473808 
L 286.690909 169.258506 
L 286.957091 169.088254 
L 287.223273 169.052053 
L 287.489455 168.613796 
L 287.755636 168.568588 
L 288.288 168.134352 
L 288.554182 167.956226 
L 290.151273 163.306937 
L 290.417455 162.98643 
L 290.683636 161.942446 
L 290.949818 161.758684 
L 291.482182 160.132077 
L 292.014545 159.742802 
L 292.280727 160.252004 
L 292.546909 160.081884 
L 292.813091 160.451619 
L 293.345455 159.890152 
L 293.611636 159.740871 
L 293.877818 160.006357 
L 294.144 160.999498 
L 294.942545 165.173608 
L 295.741091 168.861217 
L 296.273455 172.376554 
L 296.805818 177.176352 
L 297.072 179.276241 
L 297.338182 180.212561 
L 297.870545 183.374333 
L 298.935273 187.843186 
L 299.201455 188.148402 
L 299.733818 188.939927 
L 300 189.397628 
L 300.532364 190.823162 
L 300.798545 191.344531 
L 301.064727 190.796433 
L 301.330909 190.740938 
L 301.597091 190.04175 
L 302.129455 189.309759 
L 302.661818 187.593641 
L 302.928 186.204457 
L 303.460364 184.779519 
L 303.726545 184.721812 
L 303.992727 184.421582 
L 304.525091 183.270908 
L 304.791273 182.091829 
L 305.589818 180.48356 
L 305.856 180.012393 
L 307.186909 176.297643 
L 307.453091 172.371761 
L 308.251636 170.981225 
L 308.517818 170.33971 
L 308.784 170.05205 
L 309.582545 168.002363 
L 310.114909 166.935012 
L 310.381091 166.78545 
L 310.647273 167.171302 
L 310.913455 167.328483 
L 311.179636 168.328032 
L 311.445818 168.716518 
L 312.510545 171.67224 
L 312.776727 171.886681 
L 313.042909 172.528969 
L 313.309091 172.877303 
L 314.906182 177.56899 
L 315.172364 178.101129 
L 315.704727 179.831722 
L 315.970909 179.81772 
L 316.237091 180.384121 
L 316.503273 180.586975 
L 317.568 182.881036 
L 318.100364 183.98939 
L 318.632727 184.096852 
L 318.898909 183.708095 
L 319.431273 183.376483 
L 319.963636 182.722275 
L 320.229818 182.013177 
L 320.762182 181.429536 
L 321.560727 181.647655 
L 321.826909 181.590483 
L 322.093091 181.375638 
L 322.625455 181.273592 
L 323.424 182.232112 
L 323.956364 182.328777 
L 324.222545 182.023017 
L 324.488727 174.289451 
L 325.553455 176.049696 
L 325.819636 176.15973 
L 326.352 176.662726 
L 326.884364 176.898112 
L 327.416727 176.706494 
L 328.215273 176.313163 
L 328.481455 176.444703 
L 328.747636 176.28078 
L 329.013818 176.427832 
L 329.546182 177.128239 
L 329.812364 177.551152 
L 330.078545 177.744842 
L 330.344727 178.083274 
L 331.409455 180.54082 
L 332.740364 184.424716 
L 333.006545 186.661034 
L 334.071273 190.664893 
L 336.733091 199.731182 
L 337.265455 201.098009 
L 337.531636 201.583019 
L 338.596364 204.151247 
L 339.394909 205.199383 
L 339.661091 205.419241 
L 339.927273 205.388324 
L 340.459636 205.776239 
L 340.725818 205.581145 
L 340.992 205.544162 
L 341.258182 204.477452 
L 341.524364 205.928048 
L 341.790545 205.33095 
L 342.322909 204.63207 
L 342.855273 203.875719 
L 343.121455 203.185196 
L 343.387636 202.885624 
L 344.186182 201.289004 
L 344.452364 200.82852 
L 344.718545 200.625798 
L 344.984727 200.250199 
L 345.250909 200.274856 
L 345.517091 200.156966 
L 345.783273 200.220502 
L 346.315636 200.10859 
L 346.848 199.977752 
L 347.114182 199.836511 
L 347.380364 199.494752 
L 347.646545 199.388484 
L 348.178909 198.741403 
L 348.711273 198.322642 
L 348.977455 198.375364 
L 349.243636 198.110808 
L 349.509818 198.071789 
L 349.776 197.819383 
L 350.042182 197.098408 
L 350.574545 196.454681 
L 350.840727 196.334447 
L 352.171636 195.135168 
L 352.704 194.801152 
L 352.970182 194.511394 
L 353.236364 194.41867 
L 353.768727 193.844668 
L 354.301091 193.247386 
L 354.833455 192.321055 
L 355.099636 192.082316 
L 356.430545 191.91138 
L 356.696727 191.526871 
L 357.229091 191.392144 
L 357.761455 192.200154 
L 358.027636 193.310062 
L 358.293818 193.042794 
L 359.092364 195.074933 
L 360.689455 201.461854 
L 361.221818 202.528354 
L 362.020364 204.599819 
L 364.149818 210.396761 
L 364.948364 213.827003 
L 365.746909 217.995689 
L 366.279273 220.583141 
L 368.142545 227.953802 
L 369.473455 232.777697 
L 371.070545 238.86861 
L 371.336727 239.433659 
L 372.135273 241.919768 
L 373.732364 246.206589 
L 375.329455 250.6394 
L 375.595636 244.424285 
L 376.394182 246.084468 
L 377.991273 250.236532 
L 378.789818 252.060919 
L 379.854545 254.88018 
L 381.984 259.453507 
L 382.782545 261.026427 
L 383.048727 261.302934 
L 384.113455 263.346261 
L 384.379636 263.71248 
L 388.106182 272.373286 
L 388.904727 274.193051 
L 389.437091 275.59847 
L 390.768 279.757182 
L 392.365091 285.548613 
L 392.631273 282.444106 
L 393.696 284.86168 
L 395.026909 287.476804 
L 396.357818 289.358275 
L 396.624 289.61337 
L 397.422545 289.966515 
L 398.221091 290.240735 
L 399.285818 290.336076 
L 400.084364 290.17281 
L 400.882909 289.960789 
L 401.149091 289.568459 
L 402.48 289.466402 
L 403.012364 289.338454 
L 406.206545 289.2184 
L 406.738909 289.488086 
L 408.069818 289.891038 
L 408.868364 289.967989 
L 409.134545 289.708964 
L 409.400727 289.170368 
L 409.666909 286.096646 
L 410.465455 285.726158 
L 411.530182 285.559922 
L 412.062545 285.262661 
L 413.925818 284.078929 
L 414.458182 284.285022 
L 414.724364 284.459023 
L 414.990545 284.987594 
L 415.789091 285.380258 
L 416.321455 286.353481 
L 416.853818 287.45023 
L 417.12 288.485331 
L 417.918545 290.249991 
L 418.184727 291.943586 
L 418.450909 291.895627 
L 418.983273 291.526546 
L 419.515636 291.992368 
L 420.314182 292.802736 
L 422.177455 293.004282 
L 422.709818 293.806323 
L 423.508364 294.933659 
L 424.040727 295.107232 
L 424.306909 295.34501 
L 424.839273 295.985364 
L 425.105455 295.699646 
L 425.904 294.051617 
L 426.170182 292.550019 
L 426.436364 287.073931 
L 426.436364 287.073931 
" clip-path="url(#p949c4827fb)" style="fill: none; stroke: #ffa500; stroke-width: 3; stroke-linecap: square"/>
   </g>
   <g id="patch_3">
    <path d="M 7.2 331.2 
L 7.2 7.2 
" style="fill: none; stroke: #000000; stroke-width: 0.8; stroke-linejoin: miter; stroke-linecap: square"/>
   </g>
   <g id="patch_4">
    <path d="M 446.4 331.2 
L 446.4 7.2 
" style="fill: none; stroke: #000000; stroke-width: 0.8; stroke-linejoin: miter; stroke-linecap: square"/>
   </g>
   <g id="patch_5">
    <path d="M 7.2 331.2 
L 446.4 331.2 
" style="fill: none; stroke: #000000; stroke-width: 0.8; stroke-linejoin: miter; stroke-linecap: square"/>
   </g>
   <g id="patch_6">
    <path d="M 7.2 7.2 
L 446.4 7.2 
" style="fill: none; stroke: #000000; stroke-width: 0.8; stroke-linejoin: miter; stroke-linecap: square"/>
   </g>
  </g>
 </g>
 <defs>
  <clipPath id="p949c4827fb">
   <rect x="7.2" y="7.2" width="439.2" height="324"/>
  </clipPath>
 </defs>
</svg>
