<?xml version="1.0" encoding="utf-8" standalone="no"?>
<!DOCTYPE svg PUBLIC "-//W3C//DTD SVG 1.1//EN"
  "http://www.w3.org/Graphics/SVG/1.1/DTD/svg11.dtd">
<svg xmlns:xlink="http://www.w3.org/1999/xlink" width="453.6pt" height="338.4pt" viewBox="0 0 453.6 338.4" xmlns="http://www.w3.org/2000/svg" version="1.1">
 <metadata>
  <rdf:RDF xmlns:dc="http://purl.org/dc/elements/1.1/" xmlns:cc="http://creativecommons.org/ns#" xmlns:rdf="http://www.w3.org/1999/02/22-rdf-syntax-ns#">
   <cc:Work>
    <dc:type rdf:resource="http://purl.org/dc/dcmitype/StillImage"/>
    <dc:date>2025-05-14T16:18:33.848690</dc:date>
    <dc:format>image/svg+xml</dc:format>
    <dc:creator>
     <cc:Agent>
      <dc:title>Matplotlib v3.10.1, https://matplotlib.org/</dc:title>
     </cc:Agent>
    </dc:creator>
   </cc:Work>
  </rdf:RDF>
 </metadata>
 <defs>
  <style type="text/css">*{stroke-linejoin: round; stroke-linecap: butt}</style>
 </defs>
 <g id="figure_1">
  <g id="patch_1">
   <path d="M 0 338.4 
L 453.6 338.4 
L 453.6 0 
L 0 0 
z
" style="fill: #ffffff"/>
  </g>
  <g id="axes_1">
   <g id="patch_2">
    <path d="M 7.2 331.2 
L 446.4 331.2 
L 446.4 7.2 
L 7.2 7.2 
z
" style="fill: #ffffff"/>
   </g>
   <g id="matplotlib.axis_1"/>
   <g id="matplotlib.axis_2"/>
   <g id="line2d_1">
    <path d="M 27.163636 51.123748 
L 31.688727 61.056633 
L 36.213818 71.544437 
L 40.738909 82.587125 
L 45.530182 94.884138 
L 50.321455 107.803241 
L 55.112727 121.34445 
L 60.170182 136.312739 
L 65.227636 151.974237 
L 70.551273 169.208796 
L 75.874909 187.211353 
L 81.198545 205.981911 
L 86.788364 226.517558 
L 92.378182 247.899928 
L 95.04 258.379612 
L 95.306182 258.782743 
L 97.701818 255.830546 
L 100.097455 253.223996 
L 102.493091 250.96309 
L 104.622545 249.243571 
L 106.752 247.797149 
L 108.881455 246.623841 
L 111.010909 245.723638 
L 112.874182 245.159981 
L 114.737455 244.805423 
L 116.600727 244.659956 
L 118.464 244.723598 
L 120.327273 244.996317 
L 122.190545 245.478144 
L 124.053818 246.169072 
L 126.183273 247.214724 
L 128.312727 248.53349 
L 130.442182 250.125352 
L 132.571636 251.990321 
L 134.701091 254.128394 
L 137.096727 256.860186 
L 139.492364 259.9376 
L 141.888 263.360679 
L 144.549818 267.569476 
L 147.211636 272.204996 
L 149.873455 277.267243 
L 152.801455 283.328589 
L 155.729455 289.906279 
L 158.923636 297.670795 
L 162.117818 306.049835 
L 162.384 306.775828 
L 169.038545 256.029559 
L 171.700364 238.251112 
L 174.362182 221.948274 
L 176.757818 208.537297 
L 179.153455 196.32156 
L 181.549091 185.301108 
L 183.678545 176.508503 
L 185.808 168.66032 
L 187.671273 162.567783 
L 189.534545 157.198336 
L 191.397818 152.551944 
L 192.994909 149.14478 
L 194.592 146.268833 
L 195.922909 144.277987 
L 197.253818 142.656068 
L 198.584727 141.403041 
L 199.649455 140.666204 
L 200.714182 140.165481 
L 201.778909 139.900838 
L 202.843636 139.872309 
L 203.908364 140.079842 
L 204.973091 140.523507 
L 206.037818 141.203251 
L 207.102545 142.119091 
L 208.433455 143.595908 
L 209.764364 145.441617 
L 211.095273 147.656201 
L 212.692364 150.800688 
L 214.289455 154.476358 
L 215.886545 158.683246 
L 217.749818 164.262718 
L 219.613091 170.565176 
L 221.742545 178.653388 
L 223.605818 186.505205 
L 223.872 185.36661 
L 225.469091 174.5945 
L 227.066182 165.361373 
L 228.397091 158.842709 
L 229.728 153.39282 
L 230.792727 149.80242 
L 231.857455 146.895909 
L 232.922182 144.673512 
L 233.720727 143.45551 
L 234.519273 142.622289 
L 235.317818 142.173779 
L 235.850182 142.088543 
L 236.382545 142.174306 
L 236.914909 142.431066 
L 237.713455 143.136846 
L 238.512 144.227319 
L 239.310545 145.702538 
L 240.375273 148.268072 
L 241.44 151.517458 
L 242.504727 155.450977 
L 243.835636 161.329661 
L 245.166545 168.277084 
L 246.763636 178.024759 
L 248.360727 189.3114 
L 249.957818 202.136831 
L 251.821091 219.045194 
L 252.087273 221.631699 
L 252.353455 222.302103 
L 254.749091 205.18497 
L 257.144727 189.657628 
L 259.274182 177.190099 
L 261.403636 165.978739 
L 263.533091 156.023645 
L 265.396364 148.343301 
L 267.259636 141.624707 
L 268.856727 136.631438 
L 270.453818 132.344704 
L 271.784727 129.312191 
L 273.115636 126.77034 
L 274.446545 124.719205 
L 275.511273 123.431575 
L 276.576 122.457957 
L 277.640727 121.798403 
L 278.705455 121.452878 
L 279.504 121.399823 
L 280.302545 121.523436 
L 281.101091 121.823666 
L 282.165818 122.49874 
L 283.230545 123.487896 
L 284.295273 124.791063 
L 285.36 126.408277 
L 285.892364 127.693414 
L 287.489455 131.679234 
L 289.086545 135.065295 
L 290.417455 137.428862 
L 291.748364 139.375923 
L 293.079273 140.906497 
L 294.144 141.831045 
L 295.208727 142.489055 
L 296.273455 142.880507 
L 297.338182 143.005402 
L 298.402909 142.863723 
L 299.467636 142.455505 
L 300.532364 141.780729 
L 301.597091 140.839379 
L 302.661818 139.63149 
L 303.992727 137.746753 
L 305.323636 135.445547 
L 306.654545 132.727747 
L 308.251636 128.916736 
L 309.848727 124.505932 
L 311.445818 119.495335 
L 313.309091 112.891612 
L 315.172364 105.471627 
L 317.301818 95.991939 
L 319.431273 85.446129 
L 321.560727 73.834074 
L 323.956364 59.495863 
L 326.352 43.808328 
L 327.150545 38.279154 
L 327.416727 37.682732 
L 330.610909 65.30527 
L 333.538909 88.722412 
L 336.466909 110.318774 
L 339.128727 128.371789 
L 341.790545 144.920037 
L 344.186182 158.52696 
L 346.581818 170.914915 
L 348.977455 182.084025 
L 351.106909 190.988867 
L 353.236364 198.930721 
L 355.099636 205.08985 
L 356.962909 210.511571 
L 358.826182 215.196007 
L 360.423273 218.62437 
L 362.020364 221.511017 
L 363.351273 223.502742 
L 364.682182 225.11827 
L 366.013091 226.357603 
L 367.077818 227.078218 
L 368.142545 227.558066 
L 369.207273 227.797165 
L 370.272 227.795488 
L 371.336727 227.553045 
L 372.401455 227.069844 
L 373.466182 226.345875 
L 374.530909 225.381149 
L 375.861818 223.83668 
L 377.192727 221.916005 
L 378.523636 219.619135 
L 380.120727 216.366317 
L 381.717818 212.571791 
L 383.314909 208.235531 
L 385.178182 202.49196 
L 387.041455 196.010981 
L 388.106182 191.976548 
L 389.170909 183.267854 
L 390.768 170.986878 
L 392.365091 160.283623 
L 393.962182 151.158116 
L 395.293091 144.758783 
L 396.624 139.455084 
L 397.688727 136.000992 
L 398.753455 133.248098 
L 399.818182 131.196453 
L 400.616727 130.117901 
L 401.415273 129.433751 
L 401.947636 129.196829 
L 402.48 129.135136 
L 403.012364 129.248813 
L 403.544727 129.537754 
L 404.343273 130.299907 
L 405.141818 131.456427 
L 405.940364 133.007471 
L 407.005091 135.689017 
L 408.069818 139.071796 
L 409.134545 143.155789 
L 410.465455 149.24687 
L 411.796364 156.433584 
L 413.393455 166.503953 
L 414.990545 178.152042 
L 416.587636 191.377897 
L 418.450909 208.802195 
L 420.314182 228.373739 
L 422.443636 253.3711 
L 424.573091 281.173021 
L 426.436364 307.800822 
L 426.436364 307.800822 
" clip-path="url(#p9f0ffa120b)" style="fill: none; stroke-dasharray: 11.1,4.8; stroke-dashoffset: 0; stroke: #000000; stroke-width: 3"/>
   </g>
   <g id="line2d_2">
    <path d="M 27.163636 85.418268 
L 28.228364 83.83204 
L 29.825455 80.882761 
L 32.487273 75.905416 
L 33.818182 73.827824 
L 34.882909 72.534734 
L 35.681455 71.937101 
L 36.213818 71.798266 
L 36.746182 71.920668 
L 37.278545 72.339772 
L 37.810909 73.070815 
L 38.609455 74.717172 
L 39.674182 77.617592 
L 41.005091 81.185203 
L 41.803636 82.610317 
L 42.336 83.109705 
L 42.868364 83.24078 
L 43.400727 83.052981 
L 44.199273 82.385772 
L 45.264 81.457519 
L 45.796364 81.273845 
L 46.328727 81.420124 
L 46.861091 81.966458 
L 47.393455 82.949205 
L 47.925818 84.374371 
L 48.724364 87.292295 
L 49.789091 92.398117 
L 51.12 100.074283 
L 53.249455 113.763772 
L 54.580364 123.48851 
L 55.645091 132.70064 
L 56.976 146.461443 
L 60.436364 184.62462 
L 61.501091 193.251029 
L 62.565818 199.786081 
L 63.364364 203.508126 
L 64.162909 206.41606 
L 64.961455 208.659945 
L 65.76 210.347024 
L 66.558545 211.551683 
L 67.357091 212.333956 
L 68.155636 212.752419 
L 68.954182 212.867597 
L 69.752727 212.739761 
L 70.817455 212.288784 
L 72.148364 211.419748 
L 73.479273 210.293328 
L 74.544 209.161642 
L 75.608727 207.739891 
L 76.939636 205.535683 
L 79.069091 201.869318 
L 79.867636 200.906672 
L 80.4 200.503228 
L 80.932364 200.324181 
L 81.464727 200.387418 
L 81.997091 200.70129 
L 82.529455 201.266391 
L 83.328 202.572499 
L 84.126545 204.399932 
L 85.191273 207.579988 
L 86.256 211.513051 
L 87.586909 217.280218 
L 91.047273 233.0802 
L 91.845818 235.70589 
L 92.644364 237.48004 
L 93.176727 238.120116 
L 93.709091 238.311163 
L 94.241455 238.070528 
L 94.773818 237.441065 
L 95.572364 235.911202 
L 96.637091 233.190585 
L 99.032727 226.777839 
L 100.363636 223.83955 
L 101.694545 221.431048 
L 103.025455 219.510699 
L 104.356364 217.974963 
L 106.219636 216.173602 
L 108.082909 214.616527 
L 109.68 213.5763 
L 111.010909 212.967896 
L 112.341818 212.623415 
L 113.406545 212.590875 
L 114.205091 212.750417 
L 115.003636 213.101271 
L 115.802182 213.672727 
L 116.600727 214.49329 
L 117.399273 215.59119 
L 118.464 217.5282 
L 119.528727 220.02853 
L 120.859636 223.868887 
L 124.852364 236.16281 
L 125.917091 238.406739 
L 126.981818 240.019678 
L 128.046545 241.167122 
L 130.708364 243.707032 
L 132.039273 245.43726 
L 138.693818 255.243767 
L 140.290909 257.970603 
L 141.888 261.093913 
L 143.485091 264.714829 
L 145.082182 268.907848 
L 148.276364 277.534252 
L 149.607273 280.411717 
L 150.938182 282.766685 
L 152.801455 285.531013 
L 155.197091 288.696572 
L 156.794182 290.488298 
L 157.858909 291.385821 
L 158.657455 291.832154 
L 159.456 292.040714 
L 160.254545 291.975661 
L 161.053091 291.598245 
L 161.851636 290.858795 
L 162.650182 289.691476 
L 163.448727 288.017777 
L 164.247273 285.762212 
L 165.045818 282.87731 
L 166.110545 278.070372 
L 167.441455 270.821789 
L 171.966545 244.960901 
L 173.563636 237.604812 
L 175.160727 231.220955 
L 177.024 224.623174 
L 178.621091 219.690703 
L 179.685818 217.063863 
L 180.484364 215.641339 
L 181.016727 215.016037 
L 181.549091 214.674454 
L 182.081455 214.623523 
L 182.613818 214.855819 
L 183.146182 215.349817 
L 183.944727 216.507013 
L 185.009455 218.610694 
L 186.606545 222.411031 
L 187.937455 226.03958 
L 189.002182 229.546446 
L 190.066909 233.982347 
L 191.131636 239.596388 
L 192.462545 248.139404 
L 195.390545 267.92496 
L 196.455273 273.548538 
L 197.52 277.855435 
L 198.318545 280.24558 
L 199.117091 281.98804 
L 199.915636 283.161868 
L 200.714182 283.844448 
L 201.246545 284.063096 
L 202.045091 284.091183 
L 202.843636 283.828601 
L 203.908364 283.172073 
L 207.102545 280.898057 
L 208.699636 280.187308 
L 211.627636 279.005121 
L 213.757091 277.806664 
L 216.152727 276.494683 
L 218.814545 275.092889 
L 219.613091 274.418092 
L 220.411636 273.455604 
L 221.210182 272.100804 
L 222.008727 270.271633 
L 222.807273 267.929423 
L 223.872 264.045216 
L 225.202909 258.227403 
L 227.066182 249.002791 
L 228.929455 238.717099 
L 230.792727 226.996467 
L 236.382545 190.309018 
L 237.713455 183.307733 
L 238.778182 178.806101 
L 239.576727 176.171018 
L 240.375273 174.165617 
L 241.173818 172.730989 
L 241.972364 171.784433 
L 242.770909 171.248633 
L 243.569455 171.073255 
L 244.101818 171.146938 
L 244.900364 171.547827 
L 245.698909 172.309893 
L 246.497455 173.434021 
L 247.562182 175.421637 
L 249.957818 180.325861 
L 250.490182 181.052655 
L 251.022545 181.488955 
L 251.554909 181.569222 
L 252.087273 181.238761 
L 252.619636 180.456418 
L 253.152 179.196448 
L 253.684364 177.449721 
L 254.482909 173.939967 
L 255.547636 167.784947 
L 256.878545 158.449642 
L 259.274182 141.314873 
L 260.338909 135.135099 
L 261.403636 130.265479 
L 262.468364 126.632067 
L 263.266909 124.577403 
L 264.331636 122.505534 
L 265.396364 120.959318 
L 266.727273 119.455131 
L 268.856727 117.446447 
L 276.576 110.355765 
L 278.439273 108.140198 
L 281.899636 103.775567 
L 282.698182 103.175705 
L 283.230545 102.994173 
L 283.762909 103.02465 
L 284.295273 103.284483 
L 284.827636 103.773566 
L 285.626182 104.88939 
L 286.957091 107.36321 
L 288.288 109.70362 
L 289.086545 110.630907 
L 289.618909 110.963371 
L 290.151273 111.050941 
L 290.683636 110.903943 
L 291.482182 110.320688 
L 293.611636 108.261302 
L 294.144 108.090637 
L 294.676364 108.216796 
L 295.208727 108.694784 
L 295.741091 109.559606 
L 296.273455 110.825115 
L 297.072 113.455748 
L 297.870545 116.875868 
L 299.201455 123.87122 
L 302.661818 143.078243 
L 303.992727 148.990846 
L 306.122182 157.254393 
L 309.848727 170.916468 
L 311.978182 177.804709 
L 314.107636 184.05355 
L 315.704727 188.15438 
L 319.431273 197.239683 
L 320.496 200.98442 
L 321.560727 205.735245 
L 322.891636 213.044722 
L 324.488727 223.24678 
L 326.884364 240.134128 
L 332.474182 280.70975 
L 333.538909 286.405373 
L 334.603636 290.860234 
L 335.402182 293.353998 
L 336.200727 295.152389 
L 336.999273 296.324847 
L 337.531636 296.803883 
L 338.064 297.074845 
L 338.596364 297.166017 
L 339.394909 297.022224 
L 340.193455 296.610543 
L 341.258182 295.763362 
L 342.855273 294.143585 
L 348.445091 288.271423 
L 350.042182 286.899029 
L 351.639273 285.843083 
L 355.099636 283.770452 
L 356.430545 282.593666 
L 357.761455 281.116639 
L 360.157091 278.024493 
L 363.617455 273.604306 
L 367.610182 268.892727 
L 369.207273 267.300127 
L 371.070545 265.764238 
L 372.933818 264.195436 
L 373.998545 263.036089 
L 375.063273 261.552136 
L 376.128 259.683117 
L 377.458909 256.806521 
L 379.322182 252.070606 
L 381.717818 245.998666 
L 383.048727 243.172584 
L 384.379636 240.859983 
L 385.710545 238.980505 
L 389.170909 234.437441 
L 389.969455 232.914477 
L 390.768 230.979732 
L 391.566545 228.560644 
L 392.631273 224.588808 
L 394.494545 216.385462 
L 396.091636 209.640288 
L 397.422545 205.029921 
L 398.753455 201.284772 
L 400.616727 196.768385 
L 402.48 192.71292 
L 403.810909 190.34507 
L 404.875636 188.957782 
L 405.674182 188.271893 
L 406.472727 187.908338 
L 407.271273 187.854852 
L 408.069818 188.060507 
L 410.997818 189.220222 
L 411.796364 189.148092 
L 412.861091 188.755928 
L 413.925818 188.36991 
L 414.458182 188.350677 
L 414.990545 188.547448 
L 415.522909 189.030219 
L 416.055273 189.859867 
L 416.587636 191.085752 
L 417.386182 193.748038 
L 418.184727 197.470566 
L 418.983273 202.290589 
L 420.048 210.375869 
L 421.378909 222.663288 
L 424.040727 248.391372 
L 425.105455 256.318557 
L 425.904 260.783408 
L 426.436364 263.052408 
L 426.436364 263.052408 
" clip-path="url(#p9f0ffa120b)" style="fill: none; stroke: #ffa500; stroke-width: 3; stroke-linecap: square"/>
   </g>
   <g id="patch_3">
    <path d="M 7.2 331.2 
L 7.2 7.2 
" style="fill: none; stroke: #000000; stroke-width: 0.8; stroke-linejoin: miter; stroke-linecap: square"/>
   </g>
   <g id="patch_4">
    <path d="M 446.4 331.2 
L 446.4 7.2 
" style="fill: none; stroke: #000000; stroke-width: 0.8; stroke-linejoin: miter; stroke-linecap: square"/>
   </g>
   <g id="patch_5">
    <path d="M 7.2 331.2 
L 446.4 331.2 
" style="fill: none; stroke: #000000; stroke-width: 0.8; stroke-linejoin: miter; stroke-linecap: square"/>
   </g>
   <g id="patch_6">
    <path d="M 7.2 7.2 
L 446.4 7.2 
" style="fill: none; stroke: #000000; stroke-width: 0.8; stroke-linejoin: miter; stroke-linecap: square"/>
   </g>
  </g>
 </g>
 <defs>
  <clipPath id="p9f0ffa120b">
   <rect x="7.2" y="7.2" width="439.2" height="324"/>
  </clipPath>
 </defs>
</svg>
