<?xml version="1.0" encoding="utf-8" standalone="no"?>
<!DOCTYPE svg PUBLIC "-//W3C//DTD SVG 1.1//EN"
  "http://www.w3.org/Graphics/SVG/1.1/DTD/svg11.dtd">
<svg xmlns:xlink="http://www.w3.org/1999/xlink" width="453.6pt" height="338.4pt" viewBox="0 0 453.6 338.4" xmlns="http://www.w3.org/2000/svg" version="1.1">
 <metadata>
  <rdf:RDF xmlns:dc="http://purl.org/dc/elements/1.1/" xmlns:cc="http://creativecommons.org/ns#" xmlns:rdf="http://www.w3.org/1999/02/22-rdf-syntax-ns#">
   <cc:Work>
    <dc:type rdf:resource="http://purl.org/dc/dcmitype/StillImage"/>
    <dc:date>2025-05-14T16:29:08.827620</dc:date>
    <dc:format>image/svg+xml</dc:format>
    <dc:creator>
     <cc:Agent>
      <dc:title>Matplotlib v3.10.1, https://matplotlib.org/</dc:title>
     </cc:Agent>
    </dc:creator>
   </cc:Work>
  </rdf:RDF>
 </metadata>
 <defs>
  <style type="text/css">*{stroke-linejoin: round; stroke-linecap: butt}</style>
 </defs>
 <g id="figure_1">
  <g id="patch_1">
   <path d="M 0 338.4 
L 453.6 338.4 
L 453.6 0 
L 0 0 
z
" style="fill: #ffffff"/>
  </g>
  <g id="axes_1">
   <g id="patch_2">
    <path d="M 7.2 331.2 
L 446.4 331.2 
L 446.4 7.2 
L 7.2 7.2 
z
" style="fill: #ffffff"/>
   </g>
   <g id="matplotlib.axis_1"/>
   <g id="matplotlib.axis_2"/>
   <g id="line2d_1">
    <path d="M 27.163636 149.46613 
L 31.422545 149.130507 
L 35.681455 149.006788 
L 39.940364 149.095025 
L 44.199273 149.395185 
L 48.458182 149.907284 
L 52.717091 150.631305 
L 57.242182 151.632803 
L 61.767273 152.873522 
L 66.292364 154.353517 
L 70.817455 156.07275 
L 75.342545 158.031258 
L 79.867636 160.229006 
L 84.392727 162.665975 
L 89.184 165.507107 
L 93.975273 168.616447 
L 98.766545 171.994011 
L 103.557818 175.639818 
L 108.349091 179.553832 
L 113.406545 183.976285 
L 118.464 188.697598 
L 123.521455 193.717771 
L 128.845091 199.325027 
L 134.168727 205.263437 
L 139.492364 211.532977 
L 145.082182 218.472377 
L 150.672 225.776859 
L 156.261818 233.44645 
L 162.117818 241.872822 
L 167.973818 250.699895 
L 173.829818 259.92761 
L 175.959273 263.382501 
L 176.491636 262.832968 
L 182.347636 255.4921 
L 188.203636 248.508823 
L 193.793455 242.176564 
L 199.383273 236.170131 
L 204.973091 230.489508 
L 210.562909 225.134729 
L 215.886545 220.337854 
L 221.210182 215.836495 
L 226.533818 211.630687 
L 231.591273 207.908914 
L 236.648727 204.453839 
L 241.706182 201.265478 
L 246.763636 198.343841 
L 251.821091 195.688929 
L 256.612364 193.419771 
L 261.403636 191.390011 
L 266.194909 189.599613 
L 270.986182 188.048621 
L 275.777455 186.737 
L 280.568727 185.664742 
L 285.36 184.831872 
L 289.885091 184.265077 
L 294.410182 183.911809 
L 298.935273 183.77207 
L 303.460364 183.845841 
L 307.985455 184.133124 
L 312.510545 184.633952 
L 317.035636 185.348299 
L 321.560727 186.276139 
L 326.352 187.491323 
L 331.143273 188.945879 
L 335.934545 190.639813 
L 340.725818 192.573128 
L 345.517091 194.74584 
L 350.308364 197.157906 
L 355.099636 199.809378 
L 360.157091 202.86784 
L 365.214545 206.193025 
L 370.272 209.784934 
L 375.329455 213.643531 
L 380.653091 217.993397 
L 385.976727 222.638762 
L 391.300364 227.57966 
L 396.624 232.81611 
L 402.213818 238.63246 
L 407.803636 244.774594 
L 413.393455 251.24259 
L 419.249455 258.368042 
L 425.105455 265.851094 
L 426.436364 267.601652 
L 426.436364 267.601652 
" clip-path="url(#pe6949014ee)" style="fill: none; stroke-dasharray: 11.1,4.8; stroke-dashoffset: 0; stroke: #000000; stroke-width: 3"/>
   </g>
   <g id="line2d_2">
    <path d="M 27.163636 151.651132 
L 29.026909 156.316993 
L 30.890182 160.405727 
L 32.753455 163.986435 
L 34.616727 167.11937 
L 36.746182 170.237699 
L 38.875636 172.951934 
L 41.271273 175.639528 
L 44.465455 178.861746 
L 48.192 182.391585 
L 49.522909 183.141369 
L 50.587636 183.522973 
L 51.652364 183.707331 
L 52.717091 183.691162 
L 53.781818 183.471164 
L 54.846545 183.042247 
L 55.911273 182.402215 
L 57.242182 181.301507 
L 58.573091 179.860979 
L 59.904 178.074171 
L 61.234909 175.915987 
L 62.565818 173.620723 
L 65.227636 172.185287 
L 68.421818 170.750474 
L 79.601455 166.172596 
L 82.529455 167.384505 
L 84.392727 167.944919 
L 85.989818 168.223748 
L 87.586909 168.26497 
L 88.917818 168.082455 
L 90.248727 167.672499 
L 91.579636 167.006835 
L 92.910545 166.057251 
L 94.241455 164.810544 
L 95.572364 163.26029 
L 96.370909 162.128279 
L 98.500364 158.439933 
L 100.363636 155.648415 
L 101.960727 153.60985 
L 103.557818 151.924026 
L 104.888727 150.807184 
L 106.219636 149.968292 
L 107.550545 149.424662 
L 108.615273 149.212284 
L 109.68 149.206455 
L 110.744727 149.41792 
L 111.809455 149.861901 
L 112.874182 150.545507 
L 113.406545 151.068088 
L 113.938909 152.256156 
L 116.068364 157.887156 
L 118.996364 166.381059 
L 126.183273 187.627393 
L 128.046545 192.441158 
L 129.909818 196.718648 
L 131.240727 199.293575 
L 132.837818 201.814428 
L 134.434909 203.856188 
L 136.032 205.489255 
L 137.629091 206.784908 
L 139.492364 207.966841 
L 141.621818 209.027538 
L 146.679273 211.385425 
L 147.477818 211.907488 
L 149.873455 213.977004 
L 157.326545 220.12279 
L 159.189818 222.048134 
L 161.053091 224.294038 
L 162.650182 226.535729 
L 163.981091 228.573556 
L 165.312 229.246699 
L 166.642909 229.693638 
L 167.973818 229.931842 
L 169.570909 229.966849 
L 171.168 229.756577 
L 172.765091 229.330846 
L 174.628364 228.601427 
L 176.757818 227.518916 
L 179.419636 225.896558 
L 181.016727 224.749597 
L 183.146182 222.502016 
L 185.808 219.338445 
L 190.333091 213.528994 
L 194.325818 208.544943 
L 196.721455 205.875941 
L 197.52 205.07282 
L 199.117091 205.080448 
L 210.296727 205.202789 
L 214.289455 205.123145 
L 215.620364 205.957446 
L 217.217455 207.271735 
L 219.080727 209.129303 
L 221.742545 212.13478 
L 225.735273 216.64914 
L 227.864727 218.690496 
L 229.461818 219.896577 
L 230.526545 220.491041 
L 230.792727 220.41835 
L 232.389818 217.734012 
L 233.986909 215.473396 
L 235.584 213.567232 
L 237.447273 211.698893 
L 239.576727 209.897505 
L 243.303273 207.124973 
L 245.965091 205.040429 
L 247.029818 204.095568 
L 247.562182 203.240024 
L 249.425455 200.045844 
L 251.022545 197.711385 
L 252.619636 195.716167 
L 254.216727 194.028298 
L 256.08 192.404913 
L 257.943273 191.104739 
L 259.806545 190.075537 
L 261.936 189.159266 
L 263.533091 188.611072 
L 264.597818 188.741673 
L 266.194909 189.174444 
L 267.792 189.835446 
L 269.921455 190.991273 
L 272.583273 192.719635 
L 278.173091 196.422869 
L 279.504 197.14337 
L 279.770182 197.159539 
L 280.302545 196.767218 
L 282.165818 194.9868 
L 284.295273 192.630248 
L 287.223273 189.035661 
L 293.345455 181.40896 
L 295.741091 178.803424 
L 296.539636 178.16377 
L 298.935273 177.936741 
L 300.798545 177.964884 
L 302.395636 178.200752 
L 303.992727 178.68829 
L 305.323636 179.32503 
L 306.654545 180.20352 
L 307.985455 181.353947 
L 309.316364 182.806308 
L 310.647273 184.594766 
L 311.978182 186.75252 
L 313.309091 188.97496 
L 314.64 190.699838 
L 315.970909 192.121317 
L 317.301818 193.267936 
L 318.632727 194.167335 
L 320.229818 194.959439 
L 321.826909 195.483511 
L 323.424 195.787393 
L 325.287273 195.927106 
L 327.949091 195.870741 
L 329.013818 195.870311 
L 334.071273 198.485608 
L 338.596364 200.581354 
L 342.589091 202.196259 
L 344.984727 203.049977 
L 345.250909 203.027444 
L 346.049455 202.277088 
L 355.632 192.578448 
L 358.027636 190.558984 
L 360.157091 189.045879 
L 361.488 188.317311 
L 371.070545 185.600811 
L 373.2 185.385738 
L 375.063273 185.441935 
L 376.660364 185.70987 
L 377.458909 186.016017 
L 381.185455 188.330794 
L 383.581091 190.07408 
L 385.710545 191.893858 
L 387.573818 193.753884 
L 389.437091 195.912455 
L 391.300364 198.413531 
L 393.163636 201.298422 
L 394.228364 202.856876 
L 395.825455 204.86534 
L 397.688727 206.83691 
L 399.552 208.494354 
L 401.947636 210.30891 
L 409.134545 215.495192 
L 410.465455 216.778354 
L 414.192 220.943739 
L 416.055273 222.73361 
L 417.652364 223.992167 
L 418.983273 224.790222 
L 420.314182 225.315831 
L 421.378909 225.512251 
L 422.443636 225.486733 
L 423.508364 225.218438 
L 424.573091 224.686755 
L 425.637818 223.871371 
L 426.436364 223.061579 
L 426.436364 223.061579 
" clip-path="url(#pe6949014ee)" style="fill: none; stroke: #0000ff; stroke-width: 3; stroke-linecap: square"/>
   </g>
   <g id="patch_3">
    <path d="M 7.2 331.2 
L 7.2 7.2 
" style="fill: none; stroke: #000000; stroke-width: 0.8; stroke-linejoin: miter; stroke-linecap: square"/>
   </g>
   <g id="patch_4">
    <path d="M 446.4 331.2 
L 446.4 7.2 
" style="fill: none; stroke: #000000; stroke-width: 0.8; stroke-linejoin: miter; stroke-linecap: square"/>
   </g>
   <g id="patch_5">
    <path d="M 7.2 331.2 
L 446.4 331.2 
" style="fill: none; stroke: #000000; stroke-width: 0.8; stroke-linejoin: miter; stroke-linecap: square"/>
   </g>
   <g id="patch_6">
    <path d="M 7.2 7.2 
L 446.4 7.2 
" style="fill: none; stroke: #000000; stroke-width: 0.8; stroke-linejoin: miter; stroke-linecap: square"/>
   </g>
  </g>
 </g>
 <defs>
  <clipPath id="pe6949014ee">
   <rect x="7.2" y="7.2" width="439.2" height="324"/>
  </clipPath>
 </defs>
</svg>
