<?xml version="1.0" encoding="utf-8" standalone="no"?>
<!DOCTYPE svg PUBLIC "-//W3C//DTD SVG 1.1//EN"
  "http://www.w3.org/Graphics/SVG/1.1/DTD/svg11.dtd">
<svg xmlns:xlink="http://www.w3.org/1999/xlink" width="453.6pt" height="338.4pt" viewBox="0 0 453.6 338.4" xmlns="http://www.w3.org/2000/svg" version="1.1">
 <metadata>
  <rdf:RDF xmlns:dc="http://purl.org/dc/elements/1.1/" xmlns:cc="http://creativecommons.org/ns#" xmlns:rdf="http://www.w3.org/1999/02/22-rdf-syntax-ns#">
   <cc:Work>
    <dc:type rdf:resource="http://purl.org/dc/dcmitype/StillImage"/>
    <dc:date>2025-05-14T16:25:18.203328</dc:date>
    <dc:format>image/svg+xml</dc:format>
    <dc:creator>
     <cc:Agent>
      <dc:title>Matplotlib v3.10.1, https://matplotlib.org/</dc:title>
     </cc:Agent>
    </dc:creator>
   </cc:Work>
  </rdf:RDF>
 </metadata>
 <defs>
  <style type="text/css">*{stroke-linejoin: round; stroke-linecap: butt}</style>
 </defs>
 <g id="figure_1">
  <g id="patch_1">
   <path d="M 0 338.4 
L 453.6 338.4 
L 453.6 0 
L 0 0 
z
" style="fill: #ffffff"/>
  </g>
  <g id="axes_1">
   <g id="patch_2">
    <path d="M 7.2 331.2 
L 446.4 331.2 
L 446.4 7.2 
L 7.2 7.2 
z
" style="fill: #ffffff"/>
   </g>
   <g id="matplotlib.axis_1"/>
   <g id="matplotlib.axis_2"/>
   <g id="line2d_1">
    <path d="M 27.163636 172.131617 
L 29.825455 166.308938 
L 32.221091 161.612809 
L 34.350545 157.890931 
L 36.48 154.61205 
L 38.343273 152.119287 
L 40.206545 149.989219 
L 41.803636 148.460489 
L 43.400727 147.213186 
L 44.997818 146.254332 
L 46.328727 145.680575 
L 47.659636 145.315931 
L 48.990545 145.164333 
L 50.321455 145.229871 
L 51.652364 145.516547 
L 52.983273 146.028312 
L 54.314182 146.769205 
L 55.645091 147.743245 
L 57.242182 149.225451 
L 58.839273 151.056079 
L 60.436364 153.242011 
L 62.033455 155.790217 
L 63.896727 159.230194 
L 65.76 163.183657 
L 67.623273 167.661596 
L 69.486545 172.675002 
L 71.616 179.074396 
L 72.680727 182.54687 
L 72.946909 182.618219 
L 75.076364 180.665083 
L 76.939636 179.239232 
L 78.802909 178.065929 
L 80.666182 177.133919 
L 82.529455 176.431922 
L 84.392727 175.948738 
L 86.256 175.673131 
L 88.385455 175.59785 
L 90.514909 175.76222 
L 92.644364 176.149442 
L 95.04 176.83052 
L 97.435636 177.748511 
L 100.097455 179.017312 
L 103.025455 180.677601 
L 106.219636 182.755254 
L 109.946182 185.456999 
L 114.737455 189.2318 
L 128.845091 200.566642 
L 132.571636 203.180087 
L 135.765818 205.158907 
L 138.693818 206.709846 
L 141.355636 207.863627 
L 143.751273 208.66544 
L 146.146909 209.218314 
L 148.276364 209.481456 
L 150.405818 209.512267 
L 152.269091 209.335432 
L 154.132364 208.95662 
L 155.995636 208.364587 
L 157.858909 207.548088 
L 159.722182 206.495888 
L 161.585455 205.196724 
L 163.448727 203.639376 
L 165.312 201.812602 
L 167.175273 199.705138 
L 169.304727 196.938514 
L 171.434182 193.77382 
L 173.563636 190.194297 
L 175.693091 186.183135 
L 176.225455 180.12765 
L 177.822545 161.093652 
L 179.419636 144.963243 
L 180.750545 133.60593 
L 182.081455 124.029788 
L 183.412364 116.127971 
L 184.477091 110.940319 
L 185.541818 106.701163 
L 186.606545 103.355832 
L 187.671273 100.849463 
L 188.469818 99.487535 
L 189.268364 98.543709 
L 190.066909 97.994865 
L 190.599273 97.837086 
L 191.131636 97.837771 
L 191.930182 98.120954 
L 192.728727 98.722274 
L 193.527273 99.61861 
L 194.592 101.232786 
L 195.656727 103.275723 
L 196.987636 106.348967 
L 198.584727 110.657909 
L 200.714182 117.153784 
L 207.901091 139.890901 
L 209.498182 143.957409 
L 210.829091 137.798316 
L 211.893818 133.88906 
L 212.958545 130.837147 
L 213.757091 129.080343 
L 214.555636 127.755792 
L 215.354182 126.842093 
L 216.152727 126.31788 
L 216.685091 126.174199 
L 217.217455 126.187683 
L 218.016 126.488896 
L 218.814545 127.108141 
L 219.613091 128.024069 
L 220.677818 129.669637 
L 221.742545 131.753777 
L 223.073455 134.898212 
L 224.670545 139.331699 
L 226.533818 145.197602 
L 229.461818 155.296341 
L 233.720727 169.965331 
L 235.584 175.651809 
L 237.181091 179.872619 
L 238.512 182.798355 
L 239.576727 184.680362 
L 240.641455 186.099734 
L 241.44 186.830101 
L 242.238545 187.250276 
L 243.037091 187.338803 
L 243.569455 187.203014 
L 244.101818 186.903952 
L 244.900364 186.135399 
L 245.698909 184.963781 
L 246.497455 183.367775 
L 247.296 181.325901 
L 247.828364 179.706335 
L 248.094545 179.387662 
L 249.957818 180.208058 
L 251.821091 180.767059 
L 253.684364 181.076427 
L 255.547636 181.147968 
L 257.410909 180.993552 
L 259.274182 180.624932 
L 261.403636 179.956555 
L 263.533091 179.04154 
L 265.662545 177.897494 
L 268.058182 176.358642 
L 270.72 174.365575 
L 273.648 171.868668 
L 276.842182 168.833197 
L 280.568727 164.958193 
L 285.093818 159.900036 
L 292.280727 151.46665 
L 299.467636 143.13711 
L 303.726545 138.526621 
L 307.186909 135.080183 
L 310.381091 132.207906 
L 313.309091 129.887879 
L 315.970909 128.078301 
L 318.366545 126.723044 
L 320.496 125.756852 
L 322.625455 125.033498 
L 324.488727 124.613657 
L 326.352 124.405036 
L 328.215273 124.419485 
L 330.078545 124.668819 
L 331.941818 125.164836 
L 333.805091 125.919388 
L 335.668364 126.944253 
L 337.531636 128.251248 
L 339.394909 129.852275 
L 341.258182 131.759027 
L 343.121455 133.98339 
L 344.984727 136.537196 
L 347.114182 139.874328 
L 349.243636 143.674823 
L 351.373091 147.95629 
L 352.970182 151.406713 
L 354.833455 151.676167 
L 356.962909 151.751185 
L 359.358545 151.58907 
L 362.020364 151.173285 
L 365.480727 150.393628 
L 373.466182 148.502747 
L 376.128 148.135505 
L 378.523636 148.032748 
L 380.653091 148.172987 
L 382.516364 148.509155 
L 384.379636 149.074204 
L 386.242909 149.896452 
L 387.84 150.827338 
L 389.437091 151.985807 
L 391.034182 153.389659 
L 392.631273 155.056716 
L 394.494545 157.358045 
L 396.357818 160.070174 
L 398.221091 163.221456 
L 400.084364 166.840155 
L 401.947636 170.954522 
L 403.810909 175.592952 
L 405.674182 180.783711 
L 407.803636 187.428568 
L 409.933091 194.874089 
L 412.062545 203.162355 
L 414.192 212.335843 
L 416.321455 222.436575 
L 418.717091 234.960986 
L 421.112727 248.772773 
L 423.508364 263.93189 
L 425.904 280.498563 
L 426.436364 284.377342 
L 426.436364 284.377342 
" clip-path="url(#p4f6d8d8b41)" style="fill: none; stroke-dasharray: 11.1,4.8; stroke-dashoffset: 0; stroke: #000000; stroke-width: 3"/>
   </g>
   <g id="line2d_2">
    <path d="M 27.163636 145.515774 
L 29.825455 142.486035 
L 31.954909 140.384777 
L 33.818182 138.86507 
L 35.415273 137.850967 
L 36.746182 137.239974 
L 38.077091 136.865884 
L 39.408 136.750592 
L 40.472727 136.858897 
L 41.537455 137.156739 
L 42.602182 137.654038 
L 43.400727 138.163627 
L 43.933091 138.911489 
L 46.062545 142.198867 
L 48.724364 145.8761 
L 54.580364 153.805199 
L 56.709818 157.163048 
L 58.573091 160.531658 
L 60.170182 163.839542 
L 61.501091 166.790489 
L 68.421818 166.170875 
L 71.616 166.101967 
L 74.277818 166.243997 
L 76.673455 166.576214 
L 79.335273 166.971389 
L 81.198545 167.220951 
L 82.795636 167.63721 
L 84.392727 168.277663 
L 85.989818 169.177668 
L 87.586909 170.372119 
L 89.184 171.895933 
L 90.781091 173.782522 
L 92.378182 176.064794 
L 93.975273 178.77644 
L 95.306182 181.040752 
L 96.903273 183.106055 
L 98.500364 184.855424 
L 100.363636 186.557979 
L 102.226909 187.964114 
L 104.356364 189.298531 
L 107.284364 190.841149 
L 112.075636 193.133683 
L 113.140364 193.297342 
L 114.205091 193.208648 
L 115.269818 192.863061 
L 116.334545 192.2555 
L 117.399273 191.380776 
L 118.464 190.233579 
L 119.794909 188.408226 
L 121.125818 186.138138 
L 122.456727 183.412368 
L 123.787636 180.21975 
L 125.384727 175.756611 
L 126.981818 170.58462 
L 128.312727 165.881232 
L 129.377455 165.491623 
L 130.176 165.412268 
L 130.974545 165.516324 
L 131.773091 165.804651 
L 132.837818 166.477653 
L 133.902545 167.483101 
L 134.967273 168.82412 
L 136.032 170.504493 
L 137.362909 173.088408 
L 138.693818 176.217771 
L 140.024727 179.902517 
L 141.621818 185.072683 
L 143.218909 191.079344 
L 144.816 197.574148 
L 145.082182 197.906585 
L 146.413091 197.693645 
L 148.010182 197.159539 
L 149.873455 196.262545 
L 156.528 192.721128 
L 157.858909 192.340903 
L 159.189818 192.201804 
L 160.254545 192.3045 
L 161.585455 192.543142 
L 163.448727 192.191341 
L 165.312 191.603074 
L 167.441455 190.674996 
L 169.837091 189.35379 
L 172.498909 187.60788 
L 175.693091 185.233832 
L 177.822545 183.682586 
L 185.275636 179.380841 
L 189.534545 177.167837 
L 193.261091 175.481882 
L 193.793455 175.266844 
L 195.656727 173.379535 
L 198.052364 171.191672 
L 200.448 169.288299 
L 203.109818 167.450763 
L 206.304 165.539727 
L 210.296727 163.427795 
L 210.829091 163.233025 
L 211.893818 163.263626 
L 213.224727 163.547318 
L 214.555636 164.076903 
L 216.152727 164.998713 
L 217.749818 166.188273 
L 219.613091 167.850818 
L 222.008727 170.304184 
L 227.332364 176.193675 
L 227.598545 176.159422 
L 229.461818 174.481218 
L 231.857455 171.970144 
L 238.512 164.755119 
L 240.375273 163.170455 
L 241.972364 162.126646 
L 243.303273 161.5327 
L 244.101818 161.352959 
L 246.497455 161.649256 
L 249.159273 162.208932 
L 252.353455 163.12523 
L 256.612364 164.608437 
L 260.871273 166.120541 
L 264.065455 166.256304 
L 267.259636 166.177353 
L 270.72 165.870628 
L 274.446545 165.309283 
L 277.374545 164.714477 
L 277.906909 164.442284 
L 280.568727 162.747752 
L 282.698182 161.652714 
L 284.561455 160.944705 
L 286.158545 160.558993 
L 287.755636 160.405078 
L 289.352727 160.506939 
L 290.683636 160.802675 
L 292.014545 161.301606 
L 293.345455 162.012794 
L 294.144 162.434794 
L 304.791273 155.024447 
L 309.316364 151.593301 
L 311.978182 149.558213 
L 316.237091 148.62292 
L 318.898909 147.799565 
L 321.028364 146.914185 
L 322.891636 145.921044 
L 324.754909 144.677445 
L 326.618182 143.136407 
L 328.215273 141.494193 
L 330.877091 138.607292 
L 332.740364 136.953508 
L 334.603636 135.592756 
L 336.466909 134.502827 
L 338.330182 133.66146 
L 340.193455 133.046955 
L 342.322909 132.594899 
L 344.452364 132.376955 
L 345.250909 132.262646 
L 348.178909 131.284288 
L 351.106909 130.550365 
L 353.768727 130.119323 
L 356.164364 129.941882 
L 358.56 129.978768 
L 361.221818 130.086686 
L 363.617455 129.98651 
L 365.746909 130.113284 
L 367.876364 130.467025 
L 370.005818 131.068503 
L 371.869091 131.813715 
L 373.732364 132.775728 
L 375.595636 133.964762 
L 375.861818 134.359568 
L 378.257455 140.085987 
L 380.919273 145.805453 
L 383.048727 149.916097 
L 385.178182 153.535271 
L 387.041455 156.241466 
L 388.638545 158.180539 
L 389.969455 159.50437 
L 391.300364 160.543316 
L 392.631273 161.27931 
L 393.962182 161.656805 
L 396.091636 162.061512 
L 398.221091 162.257914 
L 400.350545 162.238971 
L 402.48 161.998661 
L 404.609455 161.530681 
L 406.738909 160.828833 
L 408.868364 159.885956 
L 409.933091 159.27175 
L 411.264 157.723514 
L 414.458182 154.14709 
L 417.386182 151.212962 
L 419.781818 149.10268 
L 422.177455 147.291469 
L 424.306909 145.96137 
L 426.170182 145.034346 
L 426.436364 144.921003 
L 426.436364 144.921003 
" clip-path="url(#p4f6d8d8b41)" style="fill: none; stroke: #ff0000; stroke-width: 3; stroke-linecap: square"/>
   </g>
   <g id="patch_3">
    <path d="M 7.2 331.2 
L 7.2 7.2 
" style="fill: none; stroke: #000000; stroke-width: 0.8; stroke-linejoin: miter; stroke-linecap: square"/>
   </g>
   <g id="patch_4">
    <path d="M 446.4 331.2 
L 446.4 7.2 
" style="fill: none; stroke: #000000; stroke-width: 0.8; stroke-linejoin: miter; stroke-linecap: square"/>
   </g>
   <g id="patch_5">
    <path d="M 7.2 331.2 
L 446.4 331.2 
" style="fill: none; stroke: #000000; stroke-width: 0.8; stroke-linejoin: miter; stroke-linecap: square"/>
   </g>
   <g id="patch_6">
    <path d="M 7.2 7.2 
L 446.4 7.2 
" style="fill: none; stroke: #000000; stroke-width: 0.8; stroke-linejoin: miter; stroke-linecap: square"/>
   </g>
  </g>
 </g>
 <defs>
  <clipPath id="p4f6d8d8b41">
   <rect x="7.2" y="7.2" width="439.2" height="324"/>
  </clipPath>
 </defs>
</svg>
