<?xml version="1.0" encoding="utf-8" standalone="no"?>
<!DOCTYPE svg PUBLIC "-//W3C//DTD SVG 1.1//EN"
  "http://www.w3.org/Graphics/SVG/1.1/DTD/svg11.dtd">
<svg xmlns:xlink="http://www.w3.org/1999/xlink" width="453.6pt" height="338.4pt" viewBox="0 0 453.6 338.4" xmlns="http://www.w3.org/2000/svg" version="1.1">
 <metadata>
  <rdf:RDF xmlns:dc="http://purl.org/dc/elements/1.1/" xmlns:cc="http://creativecommons.org/ns#" xmlns:rdf="http://www.w3.org/1999/02/22-rdf-syntax-ns#">
   <cc:Work>
    <dc:type rdf:resource="http://purl.org/dc/dcmitype/StillImage"/>
    <dc:date>2025-05-14T16:21:59.031420</dc:date>
    <dc:format>image/svg+xml</dc:format>
    <dc:creator>
     <cc:Agent>
      <dc:title>Matplotlib v3.10.1, https://matplotlib.org/</dc:title>
     </cc:Agent>
    </dc:creator>
   </cc:Work>
  </rdf:RDF>
 </metadata>
 <defs>
  <style type="text/css">*{stroke-linejoin: round; stroke-linecap: butt}</style>
 </defs>
 <g id="figure_1">
  <g id="patch_1">
   <path d="M 0 338.4 
L 453.6 338.4 
L 453.6 0 
L 0 0 
z
" style="fill: #ffffff"/>
  </g>
  <g id="axes_1">
   <g id="patch_2">
    <path d="M 7.2 331.2 
L 446.4 331.2 
L 446.4 7.2 
L 7.2 7.2 
z
" style="fill: #ffffff"/>
   </g>
   <g id="matplotlib.axis_1"/>
   <g id="matplotlib.axis_2"/>
   <g id="line2d_1">
    <path d="M 27.163636 233.740509 
L 157.592727 141.155989 
L 163.981091 144.740349 
L 321.294545 233.109949 
L 426.436364 132.089243 
L 426.436364 132.089243 
" clip-path="url(#p58ea21abb0)" style="fill: none; stroke-dasharray: 11.1,4.8; stroke-dashoffset: 0; stroke: #000000; stroke-width: 3"/>
   </g>
   <g id="line2d_2">
    <path d="M 27.163636 292.021001 
L 27.962182 269.251503 
L 28.760727 252.504785 
L 29.559273 240.798677 
L 30.091636 235.374753 
L 30.624 231.58056 
L 31.156364 229.265976 
L 31.688727 228.22071 
L 31.954909 228.118015 
L 32.221091 228.306157 
L 32.487273 228.735408 
L 33.019636 230.250049 
L 33.552 232.564291 
L 34.350545 237.301396 
L 35.415273 245.415056 
L 37.012364 259.953909 
L 39.674182 284.457794 
L 40.472727 290.328514 
L 40.738909 282.283475 
L 41.537455 242.597203 
L 42.336 212.087361 
L 43.134545 190.132191 
L 43.666909 179.984593 
L 44.199273 173.193193 
L 44.731636 169.491487 
L 44.997818 168.617764 
L 45.264 168.237776 
L 45.530182 168.289022 
L 45.796364 168.723909 
L 46.328727 170.536858 
L 47.127273 174.761987 
L 48.990545 187.064618 
L 50.321455 194.928364 
L 51.12 198.651243 
L 51.918545 201.467367 
L 52.717091 203.296669 
L 53.249455 203.94375 
L 53.515636 204.127371 
L 54.048 204.086061 
L 54.314182 203.936938 
L 54.846545 203.183361 
L 55.378909 201.959232 
L 55.911273 200.244993 
L 56.709818 196.657675 
L 57.508364 191.773572 
L 58.306909 185.420824 
L 59.105455 176.845232 
L 60.702545 156.844594 
L 61.501091 144.18557 
L 62.299636 135.15269 
L 63.098182 128.950532 
L 63.630545 126.109768 
L 64.162909 124.137074 
L 64.695273 122.881625 
L 65.227636 122.231902 
L 65.76 122.088327 
L 66.292364 122.362223 
L 66.824727 122.974006 
L 67.623273 124.370204 
L 68.688 126.794077 
L 70.817455 131.869947 
L 71.616 133.269165 
L 72.148364 133.87979 
L 72.680727 134.147488 
L 72.946909 134.127421 
L 73.213091 133.990079 
L 73.745455 133.315847 
L 74.277818 132.021704 
L 74.810182 129.992268 
L 75.076364 128.661906 
L 75.342545 128.918193 
L 76.939636 146.675454 
L 77.205818 147.846563 
L 77.738182 148.54727 
L 78.536727 150.027053 
L 80.4 153.827531 
L 80.932364 154.493493 
L 81.464727 154.808347 
L 81.730909 154.798375 
L 81.997091 154.662437 
L 82.529455 153.983536 
L 83.061818 152.734863 
L 83.594182 150.91282 
L 84.392727 147.166837 
L 85.457455 140.637148 
L 87.586909 126.931577 
L 88.119273 124.71601 
L 88.651636 123.573939 
L 88.917818 123.500027 
L 89.184 123.840724 
L 89.450182 124.626333 
L 89.716364 125.883257 
L 90.248727 130.111107 
L 90.514909 126.287473 
L 91.047273 114.943765 
L 91.579636 107.113788 
L 92.112 102.729512 
L 92.378182 101.727294 
L 92.644364 101.479558 
L 92.910545 102.003595 
L 93.176727 103.228321 
L 93.709091 107.619743 
L 94.507636 114.663918 
L 95.306182 124.169659 
L 96.370909 140.287024 
L 97.701818 164.908544 
L 99.565091 204.492831 
L 101.960727 256.03397 
L 102.226909 258.651734 
L 102.493091 253.404698 
L 103.557818 225.10814 
L 104.622545 201.943923 
L 105.687273 183.404766 
L 106.752 168.912095 
L 107.816727 157.915053 
L 108.615273 151.611015 
L 109.413818 146.690676 
L 110.212364 142.96878 
L 110.478545 142.348657 
L 111.277091 141.545703 
L 112.075636 140.354089 
L 115.269818 134.967647 
L 115.802182 134.485148 
L 116.334545 134.242116 
L 116.866909 134.271593 
L 117.399273 134.633112 
L 117.931636 135.333063 
L 118.464 136.393182 
L 119.262545 138.689402 
L 120.061091 141.845126 
L 120.859636 145.841408 
L 121.658182 149.933671 
L 122.456727 144.679797 
L 123.255273 140.770611 
L 124.053818 138.071983 
L 124.586182 136.850119 
L 125.118545 136.014001 
L 125.650909 135.502903 
L 126.183273 135.255693 
L 126.715636 135.212118 
L 127.248 135.358503 
L 128.312727 136.087351 
L 128.845091 136.376293 
L 129.377455 136.410229 
L 129.909818 136.028591 
L 130.442182 135.0654 
L 130.974545 133.336441 
L 131.506909 130.671451 
L 132.039273 126.889758 
L 132.571636 121.805478 
L 133.370182 111.295325 
L 133.902545 103.128882 
L 134.967273 98.899996 
L 136.032 95.170306 
L 136.564364 94.056764 
L 136.830545 93.796369 
L 137.096727 93.798318 
L 137.362909 94.073337 
L 137.629091 94.660103 
L 138.161455 96.958307 
L 138.693818 100.950464 
L 139.226182 106.918018 
L 139.758545 115.213429 
L 140.290909 126.064315 
L 141.089455 147.862101 
L 141.888 177.213413 
L 142.686545 215.161245 
L 143.751273 273.378887 
L 144.283636 279.752035 
L 145.348364 282.305491 
L 148.010182 288.962822 
L 148.808727 290.374362 
L 149.341091 291.027098 
L 149.873455 291.419814 
L 150.405818 291.525266 
L 150.938182 291.323395 
L 151.470545 290.801452 
L 152.002909 289.954122 
L 152.801455 288.079638 
L 153.6 285.518781 
L 154.664727 281.170738 
L 155.995636 274.634078 
L 158.923636 259.831731 
L 159.988364 255.869073 
L 160.254545 255.098313 
L 164.779636 198.582633 
L 165.578182 193.441023 
L 166.376727 189.616054 
L 167.175273 186.768531 
L 167.973818 184.665009 
L 168.772364 183.088069 
L 169.837091 181.616993 
L 170.635636 180.826574 
L 171.700364 180.068933 
L 172.765091 179.545203 
L 174.362182 179.032463 
L 176.491636 178.618486 
L 176.757818 178.578721 
L 178.088727 177.61669 
L 178.887273 177.533798 
L 180.218182 177.746185 
L 181.549091 177.905315 
L 182.347636 177.827137 
L 183.146182 177.567892 
L 183.944727 177.106961 
L 185.009455 176.140514 
L 185.808 175.17362 
L 187.138909 173.03308 
L 188.203636 170.887027 
L 189.268364 168.343219 
L 190.599273 164.560964 
L 191.664 161.022321 
L 192.994909 155.825698 
L 193.527273 153.483428 
L 194.325818 138.252901 
L 194.858182 125.156497 
L 195.390545 120.945115 
L 196.189091 116.487436 
L 196.721455 114.432895 
L 197.253818 113.236013 
L 197.52 112.996739 
L 197.786182 112.997546 
L 198.052364 113.281308 
L 198.318545 113.819005 
L 198.850909 115.800652 
L 199.383273 119.022193 
L 199.915636 123.56574 
L 200.714182 133.009104 
L 201.512727 145.853083 
L 202.311273 162.208687 
L 203.376 189.771928 
L 204.440727 224.03482 
L 205.505455 264.932106 
L 205.771636 276.152327 
L 206.037818 272.754283 
L 206.836364 229.281566 
L 207.634909 195.800499 
L 208.433455 170.950861 
L 209.232 153.520436 
L 209.764364 145.366213 
L 210.296727 139.577926 
L 210.829091 135.655923 
L 211.095273 134.523508 
L 211.361455 133.896188 
L 211.627636 133.755193 
L 211.893818 134.107302 
L 212.16 134.990541 
L 212.692364 138.086116 
L 213.224727 142.99055 
L 214.023273 153.228229 
L 214.821818 166.367663 
L 216.152727 192.615158 
L 218.548364 242.410861 
L 218.814545 244.832047 
L 219.346909 247.068177 
L 219.613091 247.502471 
L 219.879273 247.452646 
L 220.145455 247.027877 
L 220.677818 245.160442 
L 221.210182 242.086079 
L 222.008727 235.884684 
L 223.339636 223.083779 
L 225.469091 202.439958 
L 226.533818 193.98812 
L 227.066182 190.809144 
L 229.461818 179.447441 
L 230.526545 175.352852 
L 231.325091 173.031622 
L 231.857455 171.95077 
L 232.389818 171.308614 
L 232.656 171.180366 
L 232.922182 171.217717 
L 233.188364 171.394824 
L 233.720727 172.212982 
L 234.253091 173.846953 
L 234.785455 176.295229 
L 235.317818 179.685513 
L 236.116364 186.903469 
L 236.914909 196.929016 
L 237.181091 200.29976 
L 237.447273 199.173419 
L 238.512 177.993597 
L 239.310545 166.272649 
L 240.109091 157.976922 
L 240.641455 154.249864 
L 241.173818 151.872622 
L 241.706182 150.748405 
L 241.972364 150.621491 
L 242.238545 150.772493 
L 242.504727 151.18417 
L 243.037091 152.69113 
L 243.569455 155.199817 
L 246.231273 173.458573 
L 246.763636 175.499429 
L 247.296 176.632854 
L 247.562182 176.853668 
L 247.828364 176.840062 
L 248.094545 176.591596 
L 248.360727 176.109694 
L 248.893091 174.438495 
L 249.425455 171.813357 
L 250.224 166.25418 
L 251.022545 158.731069 
L 251.821091 149.369553 
L 252.885818 133.935268 
L 253.950545 115.011497 
L 254.216727 110.065174 
L 255.281455 125.197438 
L 256.346182 137.243432 
L 257.144727 144.432833 
L 257.943273 150.102843 
L 258.741818 154.251444 
L 259.274182 156.06945 
L 259.806545 157.190558 
L 260.072727 157.469089 
L 260.338909 157.531888 
L 260.605091 157.383133 
L 261.137455 156.553582 
L 261.669818 155.083314 
L 262.202182 153.019994 
L 263.000727 148.945797 
L 264.065455 142.020039 
L 265.396364 131.456497 
L 267.259636 114.347308 
L 269.655273 92.188354 
L 270.72 84.385239 
L 271.252364 81.552955 
L 271.784727 79.706491 
L 272.050909 79.229329 
L 272.317091 79.094497 
L 272.583273 79.383859 
L 272.849455 80.118168 
L 273.115636 84.603217 
L 275.245091 178.241149 
L 276.043636 202.904032 
L 276.576 215.248746 
L 277.108364 221.763819 
L 277.640727 225.73885 
L 278.173091 228.334299 
L 278.705455 229.665996 
L 278.971636 229.889031 
L 279.237818 229.831025 
L 279.504 229.501397 
L 279.770182 228.907749 
L 280.302545 226.898345 
L 280.834909 223.900391 
L 281.633455 217.626945 
L 282.432 209.238442 
L 283.230545 198.672521 
L 284.295273 181.185109 
L 285.36 159.515115 
L 286.424727 133.222272 
L 287.489455 101.771044 
L 288.554182 64.558303 
L 288.820364 63.025324 
L 292.014545 91.271197 
L 296.007273 125.093066 
L 300.798545 161.284226 
L 301.330909 164.977031 
L 301.597091 166.010095 
L 302.129455 166.946985 
L 302.661818 167.446321 
L 303.194182 167.563 
L 303.726545 167.379151 
L 304.258909 166.914682 
L 305.057455 165.815852 
L 306.122182 163.737698 
L 307.453091 160.479867 
L 309.316364 155.155329 
L 311.445818 148.512859 
L 312.510545 144.379585 
L 313.841455 138.2167 
L 315.172364 130.919117 
L 316.769455 120.706244 
L 318.366545 109.041257 
L 320.496 91.733401 
L 323.956364 62.091172 
L 324.222545 62.956661 
L 325.287273 75.365666 
L 326.085818 82.512124 
L 326.618182 86.389569 
L 328.481455 90.817788 
L 330.610909 95.889165 
L 334.337455 104.335683 
L 335.402182 107.600782 
L 336.466909 111.757266 
L 337.531636 117.021831 
L 338.596364 123.489318 
L 339.927273 133.09678 
L 343.121455 159.086092 
L 343.653818 165.13667 
L 344.452364 177.05007 
L 345.250909 191.762063 
L 346.049455 209.705974 
L 347.114182 239.746705 
L 347.912727 266.429999 
L 348.178909 268.180755 
L 349.243636 247.890631 
L 350.042182 236.332606 
L 350.840727 227.941214 
L 351.373091 224.090973 
L 351.905455 221.556576 
L 352.437818 220.262432 
L 352.704 220.052951 
L 352.970182 220.118523 
L 353.236364 220.445878 
L 353.768727 221.828654 
L 354.301091 224.081642 
L 355.099636 228.832099 
L 356.164364 236.964333 
L 359.624727 265.259513 
L 359.890909 266.942774 
L 361.488 268.29441 
L 365.746909 271.854199 
L 367.876364 273.997452 
L 369.473455 275.446512 
L 370.272 275.888474 
L 370.804364 275.98502 
L 371.070545 275.978327 
L 371.602909 275.688661 
L 372.135273 275.025894 
L 372.667636 273.895621 
L 373.2 272.187404 
L 373.466182 271.023831 
L 373.732364 268.862096 
L 375.861818 241.369396 
L 376.926545 227.961264 
L 379.056 203.194062 
L 380.919273 179.13084 
L 382.250182 159.516168 
L 383.581091 136.280154 
L 384.645818 113.723551 
L 385.710545 86.278472 
L 386.775273 52.481252 
L 387.041455 43.628622 
L 387.307636 52.464415 
L 388.106182 93.365432 
L 388.904727 123.333664 
L 389.703273 143.737306 
L 390.235636 152.792412 
L 390.768 158.798327 
L 391.300364 162.322012 
L 391.832727 163.850093 
L 392.098909 164.068915 
L 392.365091 163.999023 
L 392.897455 163.300354 
L 393.696 161.996308 
L 394.228364 161.519849 
L 394.494545 161.485175 
L 394.760727 161.655857 
L 395.026909 162.025452 
L 395.293091 162.628229 
L 395.825455 164.673676 
L 396.357818 167.920376 
L 396.890182 172.523394 
L 397.422545 178.586165 
L 397.954909 186.230712 
L 398.221091 186.525702 
L 398.753455 183.092651 
L 399.285818 180.854524 
L 399.818182 179.571204 
L 400.084364 179.236801 
L 400.350545 179.08206 
L 400.616727 179.089196 
L 400.882909 179.241234 
L 401.415273 179.916676 
L 401.947636 180.988434 
L 402.746182 183.105397 
L 405.674182 191.666118 
L 406.472727 193.17975 
L 407.005091 193.786074 
L 407.537455 193.999944 
L 407.803636 193.946214 
L 408.336 193.483974 
L 408.868364 192.503158 
L 409.400727 190.942721 
L 409.666909 189.907445 
L 409.933091 188.127642 
L 410.465455 181.687455 
L 410.997818 172.425615 
L 411.530182 159.990065 
L 412.328727 134.805269 
L 412.861091 114.289917 
L 413.127273 112.985731 
L 414.458182 121.98485 
L 415.522909 127.944504 
L 416.587636 132.607609 
L 417.386182 135.187223 
L 418.184727 136.948803 
L 418.717091 137.659323 
L 419.249455 138.014118 
L 419.781818 138.014012 
L 420.314182 137.67163 
L 420.846545 137.000243 
L 421.645091 135.433204 
L 422.443636 133.240145 
L 423.508364 129.533505 
L 424.839273 123.997765 
L 426.436364 116.79065 
L 426.436364 116.79065 
" clip-path="url(#p58ea21abb0)" style="fill: none; stroke: #0000ff; stroke-width: 3; stroke-linecap: square"/>
   </g>
   <g id="patch_3">
    <path d="M 7.2 331.2 
L 7.2 7.2 
" style="fill: none; stroke: #000000; stroke-width: 0.8; stroke-linejoin: miter; stroke-linecap: square"/>
   </g>
   <g id="patch_4">
    <path d="M 446.4 331.2 
L 446.4 7.2 
" style="fill: none; stroke: #000000; stroke-width: 0.8; stroke-linejoin: miter; stroke-linecap: square"/>
   </g>
   <g id="patch_5">
    <path d="M 7.2 331.2 
L 446.4 331.2 
" style="fill: none; stroke: #000000; stroke-width: 0.8; stroke-linejoin: miter; stroke-linecap: square"/>
   </g>
   <g id="patch_6">
    <path d="M 7.2 7.2 
L 446.4 7.2 
" style="fill: none; stroke: #000000; stroke-width: 0.8; stroke-linejoin: miter; stroke-linecap: square"/>
   </g>
  </g>
 </g>
 <defs>
  <clipPath id="p58ea21abb0">
   <rect x="7.2" y="7.2" width="439.2" height="324"/>
  </clipPath>
 </defs>
</svg>
