<?xml version="1.0" encoding="utf-8" standalone="no"?>
<!DOCTYPE svg PUBLIC "-//W3C//DTD SVG 1.1//EN"
  "http://www.w3.org/Graphics/SVG/1.1/DTD/svg11.dtd">
<svg xmlns:xlink="http://www.w3.org/1999/xlink" width="453.6pt" height="338.4pt" viewBox="0 0 453.6 338.4" xmlns="http://www.w3.org/2000/svg" version="1.1">
 <metadata>
  <rdf:RDF xmlns:dc="http://purl.org/dc/elements/1.1/" xmlns:cc="http://creativecommons.org/ns#" xmlns:rdf="http://www.w3.org/1999/02/22-rdf-syntax-ns#">
   <cc:Work>
    <dc:type rdf:resource="http://purl.org/dc/dcmitype/StillImage"/>
    <dc:date>2025-05-14T16:27:10.956539</dc:date>
    <dc:format>image/svg+xml</dc:format>
    <dc:creator>
     <cc:Agent>
      <dc:title>Matplotlib v3.10.1, https://matplotlib.org/</dc:title>
     </cc:Agent>
    </dc:creator>
   </cc:Work>
  </rdf:RDF>
 </metadata>
 <defs>
  <style type="text/css">*{stroke-linejoin: round; stroke-linecap: butt}</style>
 </defs>
 <g id="figure_1">
  <g id="patch_1">
   <path d="M 0 338.4 
L 453.6 338.4 
L 453.6 0 
L 0 0 
z
" style="fill: #ffffff"/>
  </g>
  <g id="axes_1">
   <g id="patch_2">
    <path d="M 7.2 331.2 
L 446.4 331.2 
L 446.4 7.2 
L 7.2 7.2 
z
" style="fill: #ffffff"/>
   </g>
   <g id="matplotlib.axis_1"/>
   <g id="matplotlib.axis_2"/>
   <g id="line2d_1">
    <path d="M 27.163636 266.667553 
L 80.932364 88.22204 
L 81.198545 87.983327 
L 124.053818 234.57481 
L 124.586182 234.922924 
L 211.893818 279.524278 
L 212.16 278.277238 
L 246.763636 33.033813 
L 247.562182 34.247267 
L 343.121455 187.824954 
L 426.436364 283.219997 
L 426.436364 283.219997 
" clip-path="url(#p81dd668546)" style="fill: none; stroke-dasharray: 11.1,4.8; stroke-dashoffset: 0; stroke: #000000; stroke-width: 3"/>
   </g>
   <g id="line2d_2">
    <path d="M 27.163636 103.20864 
L 29.293091 161.002307 
L 30.890182 197.88629 
L 32.221091 223.24247 
L 33.285818 239.825313 
L 34.350545 253.202511 
L 35.415273 263.575383 
L 36.213818 269.562815 
L 37.012364 274.157276 
L 37.810909 277.559871 
L 38.609455 279.923602 
L 39.408 281.40901 
L 39.940364 282.01191 
L 40.472727 282.346434 
L 41.271273 282.465341 
L 41.803636 282.364458 
L 42.602182 282.034272 
L 43.666909 281.451878 
L 43.933091 280.944778 
L 44.199273 279.854222 
L 44.465455 276.986417 
L 45.796364 246.577075 
L 48.724364 178.113901 
L 49.789091 157.957943 
L 50.587636 146.022308 
L 51.386182 137.413553 
L 51.918545 133.788181 
L 52.450909 131.895299 
L 52.717091 131.687994 
L 52.983273 131.942104 
L 53.249455 132.663842 
L 53.781818 135.527482 
L 54.314182 140.392098 
L 54.846545 147.164239 
L 55.645091 160.760399 
L 56.443636 178.225173 
L 57.508364 206.72807 
L 58.573091 237.76446 
L 59.371636 236.439558 
L 60.436364 234.145023 
L 61.234909 229.311253 
L 62.299636 221.022786 
L 63.630545 208.623726 
L 65.76 186.131581 
L 70.551273 134.387377 
L 71.882182 122.278742 
L 72.414545 118.275262 
L 72.680727 117.172921 
L 72.946909 116.768126 
L 73.213091 117.094023 
L 73.479273 118.045643 
L 74.011636 121.978829 
L 74.544 128.406708 
L 75.342545 142.273727 
L 76.141091 160.414576 
L 79.069091 234.044285 
L 79.867636 246.620303 
L 80.4 252.416254 
L 80.932364 256.106021 
L 81.198545 257.105737 
L 81.464727 257.595096 
L 81.730909 257.572449 
L 81.997091 256.994369 
L 82.263273 255.861998 
L 82.795636 252.0534 
L 83.328 246.176125 
L 84.392727 204.387537 
L 85.457455 171.85838 
L 86.522182 146.975228 
L 87.320727 132.649499 
L 88.119273 121.718662 
L 88.917818 113.976449 
L 89.450182 110.550781 
L 89.982545 108.51513 
L 90.248727 108.035967 
L 90.514909 107.943726 
L 90.781091 108.213426 
L 91.047273 108.849823 
L 91.579636 111.257789 
L 92.112 115.311709 
L 92.644364 121.013795 
L 93.442909 132.889054 
L 93.709091 137.753056 
L 95.306182 151.647497 
L 97.169455 169.807833 
L 100.363636 203.525094 
L 101.694545 216.70884 
L 101.960727 216.333381 
L 102.226909 214.844372 
L 103.824 195.750376 
L 105.421091 179.777648 
L 106.752 168.639042 
L 108.082909 159.322084 
L 109.413818 151.646637 
L 110.212364 147.755183 
L 110.478545 144.799338 
L 111.543273 128.870422 
L 112.341818 119.940492 
L 113.140364 113.407275 
L 113.672727 110.303132 
L 114.205091 108.129085 
L 114.737455 106.840156 
L 115.003636 106.514013 
L 115.269818 106.393191 
L 115.536 106.47258 
L 115.802182 106.747178 
L 116.334545 107.863143 
L 116.866909 109.703883 
L 117.399273 112.254249 
L 118.197818 117.316496 
L 118.996364 123.762775 
L 120.061091 134.359287 
L 121.125818 147.141732 
L 122.456727 165.894522 
L 124.053818 192.208151 
L 124.32 191.897422 
L 125.384727 171.952333 
L 126.449455 155.782773 
L 126.981818 149.008859 
L 127.780364 134.594927 
L 128.312727 127.825086 
L 128.845091 123.091897 
L 129.377455 120.218373 
L 129.643636 119.422196 
L 129.909818 119.007727 
L 130.176 118.93069 
L 130.442182 119.219526 
L 130.974545 120.667322 
L 131.506909 123.179309 
L 132.305455 128.468419 
L 133.370182 137.483602 
L 137.362909 173.710313 
L 138.427636 180.937723 
L 139.492364 186.622296 
L 139.758545 187.808688 
L 140.290909 191.888486 
L 141.089455 199.773783 
L 141.888 205.572007 
L 142.420364 208.365693 
L 142.952727 210.262061 
L 143.485091 211.376323 
L 143.751273 212.702998 
L 145.348364 227.865266 
L 146.945455 242.968519 
L 148.010182 251.054733 
L 148.808727 255.267419 
L 149.341091 256.909958 
L 149.607273 257.329185 
L 149.873455 257.45846 
L 150.139636 257.282138 
L 150.405818 256.755077 
L 150.938182 254.646998 
L 151.470545 251.067958 
L 152.002909 245.792156 
L 152.535273 238.788527 
L 153.333818 224.721007 
L 154.132364 206.10182 
L 154.930909 182.637425 
L 155.995636 143.344344 
L 157.326545 85.925767 
L 158.125091 118.143116 
L 158.923636 140.886728 
L 159.456 151.379115 
L 159.988364 158.580928 
L 160.520727 162.702878 
L 161.053091 164.701678 
L 161.319273 165.21311 
L 161.585455 165.471556 
L 161.851636 165.503965 
L 162.117818 165.378332 
L 162.650182 164.763265 
L 164.513455 161.957017 
L 165.045818 161.735106 
L 165.312 161.822642 
L 165.578182 162.059002 
L 166.110545 163.040907 
L 166.642909 164.805734 
L 167.175273 167.480082 
L 167.707636 171.239179 
L 168.506182 179.170719 
L 169.304727 190.350451 
L 169.837091 199.931192 
L 170.103273 198.544027 
L 171.434182 162.353859 
L 172.498909 138.804536 
L 173.563636 120.261965 
L 174.362182 109.908063 
L 174.894545 104.84097 
L 175.426909 101.333542 
L 175.959273 99.489518 
L 176.225455 99.200858 
L 176.491636 99.411691 
L 177.024 100.688472 
L 177.822545 101.70261 
L 178.354909 102.719698 
L 178.887273 104.08914 
L 179.419636 105.86889 
L 180.218182 109.480971 
L 181.016727 114.43774 
L 181.815273 120.891674 
L 182.613818 129.032625 
L 183.678545 142.704137 
L 184.743273 159.674473 
L 186.606545 191.036304 
L 187.937455 208.723121 
L 189.002182 219.830636 
L 189.800727 225.920013 
L 190.333091 228.782046 
L 190.865455 230.602272 
L 191.131636 231.082489 
L 191.397818 231.30462 
L 191.664 231.219164 
L 191.930182 230.848358 
L 192.196364 230.181887 
L 192.728727 227.933858 
L 193.261091 224.42751 
L 193.527273 222.211434 
L 194.325818 220.050256 
L 195.124364 217.228181 
L 195.922909 213.590292 
L 196.721455 209.023132 
L 197.52 203.351524 
L 198.584727 193.798899 
L 199.649455 181.564368 
L 200.714182 166.230918 
L 202.311273 140.479844 
L 203.908364 124.008966 
L 205.239273 112.261728 
L 206.304 104.524079 
L 207.368727 98.469551 
L 208.167273 95.133964 
L 208.699636 93.537256 
L 209.232 92.447485 
L 209.764364 91.872412 
L 210.296727 91.791951 
L 213.224727 91.900291 
L 214.555636 92.163653 
L 215.354182 92.485635 
L 216.152727 92.994029 
L 216.951273 93.769086 
L 217.749818 94.907488 
L 218.548364 96.509569 
L 219.346909 98.708598 
L 220.145455 101.662529 
L 220.944 105.543221 
L 221.742545 110.592371 
L 222.541091 117.027958 
L 223.339636 125.13076 
L 224.138182 135.236785 
L 224.404364 139.110753 
L 224.670545 138.711839 
L 225.469091 130.538725 
L 226.001455 126.862528 
L 226.533818 124.734146 
L 226.8 124.274242 
L 227.066182 124.239129 
L 227.332364 124.540412 
L 227.598545 125.120173 
L 228.130909 127.079945 
L 228.929455 131.405426 
L 229.994182 138.886682 
L 231.857455 153.999881 
L 241.706182 236.042005 
L 242.238545 239.223861 
L 242.770909 240.993622 
L 243.037091 241.300962 
L 243.303273 241.181325 
L 243.835636 240.811124 
L 244.634182 240.26494 
L 245.432727 239.346667 
L 246.231273 237.971186 
L 247.029818 236.002381 
L 247.828364 233.427665 
L 248.626909 230.214208 
L 249.691636 224.854619 
L 251.022545 216.585937 
L 252.619636 204.865314 
L 257.410909 167.652607 
L 258.475636 161.206013 
L 259.540364 156.131371 
L 260.338909 152.76132 
L 261.137455 147.432323 
L 261.936 140.598683 
L 263.000727 129.244213 
L 264.065455 115.550756 
L 265.662545 91.604731 
L 268.590545 46.300038 
L 269.389091 36.839487 
L 269.655273 34.253061 
L 270.72 89.025012 
L 271.784727 130.836585 
L 272.583273 153.966699 
L 273.381818 170.677826 
L 274.180364 182.172518 
L 274.978909 189.85108 
L 277.640727 210.231337 
L 278.173091 216.394056 
L 278.705455 224.359628 
L 279.504 240.808912 
L 280.302545 264.090972 
L 281.367273 299.179702 
L 283.230545 190.059745 
L 284.029091 155.821274 
L 284.827636 129.809402 
L 285.626182 111.804193 
L 286.158545 104.08591 
L 286.690909 99.675931 
L 286.957091 98.669675 
L 287.223273 98.433701 
L 287.489455 98.892201 
L 287.755636 100.053918 
L 288.288 104.462404 
L 288.820364 111.238091 
L 289.618909 125.535713 
L 290.683636 150.395419 
L 292.280727 194.956226 
L 293.611636 236.070675 
L 294.676364 286.0881 
L 295.208727 315.873881 
L 295.474909 315.729489 
L 296.007273 314.463082 
L 296.539636 312.605857 
L 297.338182 308.596611 
L 298.136727 303.095023 
L 298.935273 296.064428 
L 300 284.30379 
L 301.064727 269.932388 
L 302.395636 248.61072 
L 303.992727 218.929779 
L 306.122182 174.766042 
L 306.654545 165.623576 
L 307.719273 170.476499 
L 308.251636 172.216748 
L 308.784 173.34178 
L 309.050182 173.626534 
L 309.316364 173.726684 
L 309.582545 173.611357 
L 310.381091 172.480584 
L 311.179636 170.983999 
L 311.978182 168.930195 
L 312.776727 166.33083 
L 313.841455 161.992762 
L 314.906182 156.536534 
L 315.970909 149.735917 
L 317.035636 141.238679 
L 318.100364 130.543395 
L 319.165091 116.973868 
L 320.229818 99.513834 
L 321.028364 83.144238 
L 321.826909 63.185542 
L 322.625455 38.754438 
L 322.891636 29.465183 
L 324.488727 73.769309 
L 325.287273 90.571509 
L 326.085818 102.585831 
L 326.618182 107.538738 
L 327.150545 109.136956 
L 327.682909 109.901339 
L 327.949091 110.000058 
L 328.215273 109.924689 
L 328.481455 109.685976 
L 329.013818 108.760216 
L 329.546182 107.302711 
L 330.344727 104.26839 
L 331.409455 98.953473 
L 332.740364 90.940068 
L 334.869818 76.565638 
L 337.797818 57.014897 
L 339.661091 46.131375 
L 341.258182 38.239337 
L 342.589091 32.812516 
L 342.855273 31.860263 
L 343.653818 30.887207 
L 343.92 30.943492 
L 344.718545 32.868503 
L 345.517091 35.393587 
L 346.315636 38.58602 
L 347.380364 43.944389 
L 348.445091 50.623183 
L 349.509818 58.643523 
L 350.840727 70.468325 
L 352.437818 86.922876 
L 354.833455 114.473748 
L 357.761455 147.825654 
L 359.358545 163.473055 
L 359.890909 168.061475 
L 360.423273 168.58697 
L 361.221818 169.880069 
L 362.020364 171.72073 
L 362.286545 172.44368 
L 362.552727 171.921758 
L 365.746909 159.838343 
L 366.545455 157.661927 
L 367.344 156.052543 
L 367.876364 155.302644 
L 368.408727 154.804801 
L 368.941091 154.523971 
L 369.473455 154.430571 
L 370.272 154.550112 
L 372.135273 155.080645 
L 372.667636 155.021498 
L 373.2 154.757557 
L 373.732364 154.233871 
L 374.264727 153.402405 
L 374.797091 152.223835 
L 375.595636 149.749137 
L 376.660364 145.183627 
L 377.458909 141.544808 
L 378.257455 136.629998 
L 379.056 130.117673 
L 379.854545 121.534743 
L 380.653091 110.477659 
L 381.451636 96.398929 
L 382.250182 80.905128 
L 382.516364 81.098317 
L 383.581091 88.282399 
L 384.645818 93.867998 
L 385.444364 97.058746 
L 386.242909 99.480846 
L 387.041455 101.245796 
L 387.84 102.506442 
L 388.904727 103.7318 
L 390.235636 105.281703 
L 391.034182 106.666823 
L 391.566545 107.944393 
L 392.365091 110.602027 
L 393.163636 114.391023 
L 393.962182 121.120924 
L 394.494545 126.820727 
L 396.091636 183.634086 
L 396.890182 200.835121 
L 397.422545 208.897657 
L 397.954909 214.732407 
L 398.487273 218.686045 
L 399.019636 221.071408 
L 399.552 222.212487 
L 399.818182 222.355105 
L 400.084364 222.275277 
L 400.350545 221.994815 
L 400.882909 220.905247 
L 401.415273 219.224417 
L 402.213818 215.955421 
L 403.810909 208.077981 
L 405.408 200.440658 
L 406.472727 196.454944 
L 407.271273 194.426641 
L 407.803636 193.661196 
L 408.069818 193.482219 
L 408.336 191.128808 
L 410.731636 143.24717 
L 412.062545 123.697483 
L 413.393455 107.300095 
L 414.724364 93.605093 
L 416.055273 82.281681 
L 417.386182 73.129611 
L 418.450909 67.317324 
L 419.515636 62.828167 
L 420.314182 60.367163 
L 421.112727 58.718137 
L 421.645091 58.113569 
L 422.177455 57.91197 
L 422.709818 58.138394 
L 423.242182 58.820543 
L 423.774545 59.988439 
L 424.306909 61.674333 
L 425.105455 65.251442 
L 425.904 70.198906 
L 426.436364 74.352932 
L 426.436364 74.352932 
" clip-path="url(#p81dd668546)" style="fill: none; stroke: #ffa500; stroke-width: 3; stroke-linecap: square"/>
   </g>
   <g id="patch_3">
    <path d="M 7.2 331.2 
L 7.2 7.2 
" style="fill: none; stroke: #000000; stroke-width: 0.8; stroke-linejoin: miter; stroke-linecap: square"/>
   </g>
   <g id="patch_4">
    <path d="M 446.4 331.2 
L 446.4 7.2 
" style="fill: none; stroke: #000000; stroke-width: 0.8; stroke-linejoin: miter; stroke-linecap: square"/>
   </g>
   <g id="patch_5">
    <path d="M 7.2 331.2 
L 446.4 331.2 
" style="fill: none; stroke: #000000; stroke-width: 0.8; stroke-linejoin: miter; stroke-linecap: square"/>
   </g>
   <g id="patch_6">
    <path d="M 7.2 7.2 
L 446.4 7.2 
" style="fill: none; stroke: #000000; stroke-width: 0.8; stroke-linejoin: miter; stroke-linecap: square"/>
   </g>
  </g>
 </g>
 <defs>
  <clipPath id="p81dd668546">
   <rect x="7.2" y="7.2" width="439.2" height="324"/>
  </clipPath>
 </defs>
</svg>
