<?xml version="1.0" encoding="utf-8" standalone="no"?>
<!DOCTYPE svg PUBLIC "-//W3C//DTD SVG 1.1//EN"
  "http://www.w3.org/Graphics/SVG/1.1/DTD/svg11.dtd">
<svg xmlns:xlink="http://www.w3.org/1999/xlink" width="453.6pt" height="338.4pt" viewBox="0 0 453.6 338.4" xmlns="http://www.w3.org/2000/svg" version="1.1">
 <metadata>
  <rdf:RDF xmlns:dc="http://purl.org/dc/elements/1.1/" xmlns:cc="http://creativecommons.org/ns#" xmlns:rdf="http://www.w3.org/1999/02/22-rdf-syntax-ns#">
   <cc:Work>
    <dc:type rdf:resource="http://purl.org/dc/dcmitype/StillImage"/>
    <dc:date>2025-05-14T16:26:39.827689</dc:date>
    <dc:format>image/svg+xml</dc:format>
    <dc:creator>
     <cc:Agent>
      <dc:title>Matplotlib v3.10.1, https://matplotlib.org/</dc:title>
     </cc:Agent>
    </dc:creator>
   </cc:Work>
  </rdf:RDF>
 </metadata>
 <defs>
  <style type="text/css">*{stroke-linejoin: round; stroke-linecap: butt}</style>
 </defs>
 <g id="figure_1">
  <g id="patch_1">
   <path d="M 0 338.4 
L 453.6 338.4 
L 453.6 0 
L 0 0 
z
" style="fill: #ffffff"/>
  </g>
  <g id="axes_1">
   <g id="patch_2">
    <path d="M 7.2 331.2 
L 446.4 331.2 
L 446.4 7.2 
L 7.2 7.2 
z
" style="fill: #ffffff"/>
   </g>
   <g id="matplotlib.axis_1"/>
   <g id="matplotlib.axis_2"/>
   <g id="line2d_1">
    <path d="M 27.163636 271.099951 
L 28.494545 270.031888 
L 29.825455 269.212067 
L 31.422545 268.487669 
L 33.285818 267.894249 
L 39.674182 266.137309 
L 41.271273 265.334549 
L 42.602182 264.43001 
L 43.933091 263.259577 
L 45.264 261.77475 
L 46.594909 259.927026 
L 47.925818 257.667915 
L 49.256727 254.948891 
L 50.587636 251.721464 
L 51.918545 247.937129 
L 53.249455 243.547388 
L 54.846545 237.412264 
L 56.443636 230.251682 
L 58.040727 221.981841 
L 59.637818 212.518938 
L 61.234909 201.779122 
L 62.832 189.678616 
L 64.961455 171.550074 
L 66.824727 173.069869 
L 68.954182 175.098172 
L 71.349818 177.713372 
L 74.011636 180.979867 
L 76.939636 184.939501 
L 80.4 190.00389 
L 85.191273 197.46084 
L 95.572364 213.772166 
L 99.298909 219.13172 
L 102.226909 222.97615 
L 104.888727 226.114765 
L 107.284364 228.596028 
L 109.413818 230.490254 
L 111.277091 231.881168 
L 113.140364 233.000898 
L 114.737455 233.728615 
L 116.334545 234.227915 
L 117.931636 234.485334 
L 119.528727 234.487406 
L 120.859636 234.284367 
L 122.190545 233.886841 
L 123.521455 233.287066 
L 124.852364 232.47723 
L 126.449455 231.217189 
L 128.046545 229.62997 
L 129.643636 227.702115 
L 131.240727 225.42015 
L 132.837818 222.77061 
L 134.701091 219.196977 
L 136.564364 215.083304 
L 138.427636 210.408217 
L 140.290909 205.150375 
L 142.420364 198.400346 
L 144.549818 190.829281 
L 146.679273 182.405217 
L 148.808727 173.0963 
L 149.341091 171.053697 
L 154.398545 186.733068 
L 158.923636 200.062557 
L 163.182545 211.950202 
L 167.175273 222.471416 
L 170.901818 231.710687 
L 174.628364 240.356065 
L 178.088727 247.823663 
L 181.282909 254.21485 
L 184.477091 260.102984 
L 187.405091 265.041021 
L 190.333091 269.523318 
L 192.994909 273.18935 
L 195.390545 276.145774 
L 197.786182 278.768234 
L 200.181818 281.048106 
L 202.311273 282.780037 
L 204.440727 284.228344 
L 206.570182 285.386949 
L 208.433455 286.158297 
L 210.296727 286.699111 
L 210.562909 286.194474 
L 215.088 264.676947 
L 221.210182 234.344972 
L 232.389818 178.800229 
L 236.914909 157.533222 
L 240.641455 141.035413 
L 243.835636 127.832495 
L 246.763636 116.635418 
L 249.425455 107.315159 
L 251.821091 99.705724 
L 253.950545 93.617909 
L 256.08 88.216089 
L 257.943273 84.089521 
L 259.540364 81.023545 
L 261.137455 78.413647 
L 262.468364 76.601523 
L 263.799273 75.131641 
L 265.130182 74.015571 
L 266.194909 73.385265 
L 267.259636 72.994779 
L 268.324364 72.850062 
L 269.389091 72.95705 
L 270.453818 73.321677 
L 271.518545 73.94991 
L 272.583273 74.847686 
L 273.648 76.020849 
L 274.978909 77.883833 
L 276.309818 80.198102 
L 276.576 81.082429 
L 278.173091 97.888439 
L 279.770182 112.566996 
L 281.367273 125.259201 
L 282.964364 136.107488 
L 284.561455 145.253642 
L 285.892364 151.677519 
L 287.223273 157.100091 
L 288.554182 161.603346 
L 289.885091 165.269518 
L 291.216 168.180718 
L 292.280727 170.0213 
L 293.345455 171.473231 
L 294.410182 172.578679 
L 295.474909 173.379605 
L 296.539636 173.9181 
L 297.604364 174.236229 
L 298.935273 174.387994 
L 300.532364 174.317927 
L 305.589818 173.84145 
L 306.920727 174.045936 
L 307.985455 174.418884 
L 309.050182 175.023426 
L 310.114909 175.901696 
L 311.179636 177.095681 
L 312.244364 178.647428 
L 313.309091 180.599045 
L 314.373818 182.992527 
L 315.438545 185.869913 
L 316.769455 190.21123 
L 318.100364 195.456536 
L 319.431273 201.687908 
L 320.762182 208.987493 
L 322.093091 217.437425 
L 323.690182 229.211464 
L 325.287273 242.902182 
L 326.884364 258.651501 
L 327.682909 266.219973 
L 328.747636 266.152636 
L 329.812364 265.889871 
L 331.143273 265.304066 
L 332.474182 264.45325 
L 333.805091 263.359818 
L 335.402182 261.759028 
L 337.265455 259.542412 
L 339.394909 256.624098 
L 341.790545 252.959906 
L 345.250909 247.211182 
L 352.437818 235.131309 
L 355.099636 231.162168 
L 357.229091 228.377031 
L 359.092364 226.302941 
L 360.689455 224.84376 
L 362.020364 223.881984 
L 363.351273 223.175229 
L 364.682182 222.745926 
L 365.746909 222.6173 
L 366.811636 222.692045 
L 367.876364 222.981654 
L 368.941091 223.497615 
L 370.005818 224.251376 
L 371.070545 225.254437 
L 372.135273 226.51826 
L 373.466182 228.48222 
L 374.797091 230.893987 
L 376.128 233.775955 
L 377.458909 237.150544 
L 378.523636 240.21996 
L 378.789818 240.162859 
L 380.919273 213.710807 
L 383.048727 190.256718 
L 384.912 172.10444 
L 386.775273 156.084443 
L 388.638545 142.120074 
L 390.235636 131.729146 
L 391.832727 122.744581 
L 393.429818 115.118274 
L 394.760727 109.76605 
L 396.091636 105.295906 
L 397.422545 101.680138 
L 398.487273 99.38397 
L 399.552 97.60257 
L 400.616727 96.321664 
L 401.415273 95.680877 
L 402.213818 95.307683 
L 403.012364 95.196008 
L 403.810909 95.339864 
L 404.609455 95.73323 
L 405.408 96.370137 
L 406.472727 97.587787 
L 407.537455 99.213481 
L 408.602182 101.232997 
L 409.933091 104.289457 
L 411.264 107.911212 
L 412.861091 112.9644 
L 414.458182 118.743523 
L 416.321455 126.339246 
L 418.450909 136.052274 
L 420.846545 148.159135 
L 423.508364 162.886236 
L 426.436364 180.379434 
L 426.436364 180.379434 
" clip-path="url(#p5c58da96a6)" style="fill: none; stroke-dasharray: 11.1,4.8; stroke-dashoffset: 0; stroke: #000000; stroke-width: 3"/>
   </g>
   <g id="line2d_2">
    <path d="M 27.163636 87.098632 
L 27.696 88.454994 
L 28.494545 91.283416 
L 29.825455 97.205798 
L 33.552 114.497695 
L 35.149091 120.704331 
L 36.746182 126.058785 
L 38.609455 131.4605 
L 41.271273 138.335485 
L 43.666909 144.547721 
L 43.933091 146.407704 
L 44.997818 156.717522 
L 45.796364 162.462182 
L 46.594909 166.570702 
L 47.127273 168.757213 
L 47.659636 177.660317 
L 48.724364 195.146369 
L 49.789091 208.499121 
L 50.587636 216.208512 
L 51.386182 222.317078 
L 52.184727 227.039963 
L 52.983273 230.65315 
L 53.781818 233.333151 
L 54.580364 235.269714 
L 55.378909 236.62102 
L 56.177455 237.424948 
L 56.709818 237.725134 
L 57.242182 237.842393 
L 57.774545 237.782289 
L 58.573091 237.309332 
L 59.105455 236.768212 
L 59.904 235.53311 
L 60.436364 234.388766 
L 60.968727 231.85579 
L 61.501091 228.333062 
L 62.033455 223.605463 
L 62.832 213.770358 
L 63.630545 199.959037 
L 64.429091 181.384829 
L 65.227636 156.988942 
L 66.026182 125.850251 
L 66.824727 86.889361 
L 67.090909 71.940314 
L 67.357091 65.484607 
L 67.889455 71.272315 
L 68.688 83.381353 
L 69.486545 99.047434 
L 70.817455 130.758951 
L 73.213091 190.047254 
L 74.011636 205.105466 
L 74.544 212.468709 
L 75.076364 217.108447 
L 75.342545 218.239528 
L 75.608727 218.51323 
L 75.874909 217.868836 
L 76.141091 216.240052 
L 76.673455 209.678832 
L 77.205818 201.043751 
L 78.802909 190.561793 
L 80.4 177.970651 
L 83.328 154.226234 
L 84.392727 147.213028 
L 85.191273 143.042077 
L 85.989818 139.92798 
L 86.522182 138.499795 
L 87.054545 137.590063 
L 87.586909 137.152895 
L 88.119273 137.229633 
L 88.651636 137.69598 
L 89.184 138.539963 
L 89.982545 140.310233 
L 92.378182 146.442746 
L 92.910545 147.304952 
L 93.442909 147.863646 
L 93.709091 147.987137 
L 94.507636 155.800593 
L 95.572364 168.637304 
L 96.903273 187.845407 
L 98.234182 210.346875 
L 99.565091 236.757476 
L 100.896 267.431211 
L 103.557818 208.708637 
L 105.421091 171.781773 
L 106.752 149.845451 
L 107.550545 139.936916 
L 108.082909 135.251743 
L 108.615273 132.517476 
L 108.881455 132.002304 
L 109.147636 132.174285 
L 109.413818 133.017197 
L 109.68 134.698966 
L 110.212364 140.653967 
L 112.075636 163.698741 
L 112.874182 178.520039 
L 113.672727 197.079948 
L 114.737455 228.24787 
L 115.802182 264.775241 
L 116.068364 263.7428 
L 117.931636 226.552214 
L 121.924364 145.628328 
L 123.255273 123.020741 
L 124.32 107.75863 
L 125.384727 95.390725 
L 126.183273 88.118827 
L 127.514182 78.389314 
L 128.046545 76.065108 
L 128.312727 75.564579 
L 128.578909 75.425305 
L 129.111273 76.034841 
L 133.104 81.694441 
L 134.434909 82.983721 
L 135.499636 83.727019 
L 136.564364 84.183377 
L 137.362909 84.311818 
L 138.161455 84.199616 
L 138.96 83.791169 
L 139.492364 83.307424 
L 140.024727 82.610475 
L 140.557091 81.653025 
L 141.355636 79.600644 
L 142.154182 76.548591 
L 142.952727 72.155712 
L 143.751273 65.849637 
L 144.017455 63.158962 
L 144.283636 62.85573 
L 147.477818 156.819893 
L 148.808727 187.583643 
L 150.139636 213.303466 
L 151.470545 234.296622 
L 152.535273 247.955304 
L 153.6 259.089131 
L 154.664727 267.974495 
L 154.930909 267.681344 
L 155.463273 262.899352 
L 155.995636 259.448385 
L 156.528 257.091516 
L 157.060364 255.674255 
L 157.592727 254.988555 
L 157.858909 254.873689 
L 158.125091 254.887493 
L 158.657455 255.235458 
L 159.189818 255.909382 
L 159.988364 257.301779 
L 160.254545 257.833462 
L 161.053091 258.183596 
L 161.851636 258.802226 
L 162.650182 259.719836 
L 163.448727 260.952137 
L 164.247273 262.500641 
L 165.312 265.057186 
L 166.642909 268.885341 
L 169.837091 278.505316 
L 170.901818 280.814469 
L 171.700364 281.942207 
L 172.232727 282.364989 
L 172.765091 282.505729 
L 173.297455 282.337619 
L 173.829818 281.901729 
L 174.628364 280.697344 
L 175.426909 278.952369 
L 176.757818 275.293149 
L 177.822545 271.939097 
L 178.621091 267.892191 
L 179.685818 260.819311 
L 181.282909 248.098011 
L 187.138909 199.077957 
L 188.736 188.006451 
L 190.066909 180.237421 
L 191.131636 175.292564 
L 191.930182 172.521279 
L 192.462545 171.200871 
L 192.994909 170.381002 
L 193.261091 170.190271 
L 193.793455 170.159275 
L 194.325818 170.378272 
L 194.858182 170.820559 
L 195.390545 171.543745 
L 195.922909 172.607331 
L 196.721455 175.032722 
L 197.52 178.626913 
L 198.318545 183.676827 
L 198.850909 188.124166 
L 200.181818 208.288586 
L 201.246545 221.753838 
L 202.045091 229.958878 
L 202.843636 236.319912 
L 203.642182 240.711615 
L 204.174545 242.474555 
L 204.440727 242.994379 
L 204.706909 243.268863 
L 204.973091 243.29546 
L 205.239273 243.072048 
L 205.505455 242.597054 
L 206.037818 240.888424 
L 206.570182 238.165867 
L 207.102545 234.43263 
L 207.901091 226.960977 
L 208.699636 217.298318 
L 209.764364 201.137598 
L 210.829091 181.022169 
L 211.893818 156.280406 
L 213.224727 119.182517 
L 214.555636 76.050449 
L 214.821818 76.38221 
L 216.418909 108.548136 
L 217.749818 131.287939 
L 219.080727 150.804568 
L 220.677818 170.917899 
L 222.807273 194.568066 
L 225.469091 224.263209 
L 225.735273 223.866183 
L 229.461818 150.561975 
L 230.526545 135.598585 
L 231.591273 123.724572 
L 232.656 114.690761 
L 233.454545 109.627198 
L 234.253091 105.919066 
L 234.785455 104.154818 
L 235.317818 102.949316 
L 235.850182 102.278719 
L 236.116364 102.138848 
L 236.382545 102.128122 
L 236.648727 102.245942 
L 237.181091 102.866732 
L 237.713455 104.003325 
L 238.245818 105.662779 
L 238.512 108.168218 
L 239.310545 127.525085 
L 240.109091 144.118295 
L 240.907636 156.561973 
L 241.706182 165.306878 
L 242.238545 169.283621 
L 242.770909 171.913568 
L 243.303273 173.282186 
L 243.835636 173.524673 
L 244.900364 173.524058 
L 245.432727 173.320388 
L 245.965091 172.896694 
L 246.497455 172.217494 
L 247.296 170.665896 
L 248.094545 168.528999 
L 250.756364 160.598794 
L 251.288727 159.790134 
L 251.554909 159.600807 
L 251.821091 159.587201 
L 252.087273 159.758234 
L 252.353455 160.129304 
L 252.885818 161.524694 
L 253.418182 163.859275 
L 253.950545 167.181607 
L 254.749091 174.000597 
L 255.547636 182.975094 
L 256.612364 197.389868 
L 259.008 231.098482 
L 259.274182 234.043855 
L 259.540364 235.577572 
L 260.072727 236.285309 
L 260.871273 236.805019 
L 261.669818 237.525783 
L 263.533091 239.555499 
L 264.331636 240.09726 
L 264.864 240.242371 
L 265.396364 240.141791 
L 265.928727 239.753631 
L 266.461091 239.030584 
L 266.993455 237.905701 
L 267.525818 236.404911 
L 268.324364 233.316104 
L 269.122909 229.257382 
L 270.187636 222.368975 
L 271.518545 211.815107 
L 274.712727 184.756591 
L 275.511273 179.936708 
L 276.043636 177.73293 
L 276.576 176.559899 
L 276.842182 176.42123 
L 277.906909 176.555079 
L 278.439273 176.773585 
L 279.237818 177.377995 
L 280.036364 178.325288 
L 280.568727 179.169824 
L 281.367273 180.827162 
L 282.165818 182.982871 
L 282.964364 185.777269 
L 283.762909 189.275954 
L 284.561455 193.58193 
L 285.36 199.24447 
L 289.885091 237.831596 
L 291.216 246.701361 
L 292.280727 252.436671 
L 293.079273 255.7586 
L 294.144 259.063174 
L 294.410182 259.25251 
L 294.676364 259.06026 
L 294.942545 258.529165 
L 295.208727 257.648125 
L 295.741091 254.690933 
L 296.273455 250.138581 
L 296.805818 243.928733 
L 297.604364 231.394569 
L 298.402909 214.867564 
L 299.467636 186.592609 
L 300.532364 151.299251 
L 301.330909 123.964812 
L 302.129455 144.250388 
L 302.928 159.9832 
L 303.726545 171.916825 
L 304.525091 180.79406 
L 305.323636 187.319272 
L 306.122182 192.126198 
L 306.920727 195.730397 
L 307.985455 199.411202 
L 309.316364 203.139927 
L 310.114909 205.463544 
L 310.913455 209.710697 
L 311.712 215.293821 
L 312.510545 222.787411 
L 313.309091 232.745235 
L 314.107636 245.675574 
L 314.64 254.947307 
L 314.906182 255.533234 
L 315.172364 254.744168 
L 315.704727 251.83238 
L 316.237091 247.287424 
L 317.035636 238.26226 
L 318.366545 219.859577 
L 320.229818 193.914568 
L 321.294545 181.841924 
L 322.093091 174.787426 
L 322.891636 169.58982 
L 323.424 167.190719 
L 323.956364 165.541869 
L 324.488727 164.597587 
L 325.021091 164.249586 
L 325.553455 164.441863 
L 326.085818 165.001609 
L 327.150545 166.515417 
L 327.682909 167.728047 
L 328.215273 169.550028 
L 328.747636 172.243381 
L 329.28 176.074125 
L 329.812364 181.276419 
L 330.344727 188.305013 
L 330.877091 197.526395 
L 331.675636 216.408584 
L 332.474182 241.533249 
L 333.538909 236.426962 
L 334.603636 232.454196 
L 335.668364 229.319759 
L 337.531636 224.053535 
L 338.330182 220.962427 
L 339.128727 216.762711 
L 339.927273 211.037767 
L 340.725818 203.382203 
L 341.524364 193.402417 
L 342.322909 180.833562 
L 343.121455 165.475857 
L 343.92 150.086902 
L 344.186182 149.224959 
L 344.452364 148.770322 
L 344.718545 148.651308 
L 344.984727 148.867215 
L 345.250909 149.390164 
L 345.783273 151.225919 
L 346.315636 153.926232 
L 347.380364 160.94021 
L 348.977455 171.684643 
L 349.776 175.404441 
L 350.308364 176.794424 
L 350.574545 177.108295 
L 350.840727 177.116231 
L 351.106909 176.842809 
L 351.373091 176.236837 
L 351.905455 174.060771 
L 352.437818 170.52772 
L 352.970182 165.577016 
L 353.768727 155.627997 
L 354.567273 142.861195 
L 354.833455 138.030147 
L 355.099636 136.684212 
L 356.164364 149.190953 
L 356.962909 156.377422 
L 357.761455 162.003787 
L 358.56 166.292329 
L 359.358545 169.451037 
L 360.955636 174.774434 
L 362.818909 181.142008 
L 363.883636 184.032851 
L 364.682182 185.608228 
L 365.214545 186.332723 
L 365.746909 186.777977 
L 366.279273 186.933613 
L 366.811636 186.801081 
L 367.344 186.385489 
L 367.876364 185.697247 
L 368.674909 184.187469 
L 369.473455 182.154803 
L 370.538182 178.798561 
L 372.135273 172.859966 
L 372.933818 169.709281 
L 373.2 170.908068 
L 374.797091 191.180275 
L 375.595636 197.690959 
L 376.394182 202.230555 
L 377.192727 204.87863 
L 378.257455 207.816067 
L 378.789818 208.856619 
L 379.322182 209.423801 
L 379.588364 209.508554 
L 379.854545 209.433878 
L 380.120727 209.167067 
L 380.653091 208.096266 
L 381.185455 206.245667 
L 381.717818 203.565781 
L 382.516364 197.948878 
L 383.314909 190.451733 
L 384.379636 177.733597 
L 385.710545 158.390091 
L 388.106182 118.824387 
L 389.969455 89.405913 
L 391.034182 74.895966 
L 391.300364 74.207426 
L 392.098909 91.312823 
L 392.897455 104.708824 
L 393.163636 108.447784 
L 393.696 108.693923 
L 394.228364 109.367189 
L 394.760727 110.473252 
L 395.293091 112.049823 
L 396.091636 115.330003 
L 396.890182 119.561715 
L 397.954909 126.74822 
L 399.019636 135.326954 
L 400.882909 152.70033 
L 403.278545 175.205467 
L 404.343273 183.610464 
L 405.408 190.317577 
L 406.206545 194.112454 
L 407.005091 196.948583 
L 408.336 200.506713 
L 409.134545 203.103164 
L 410.465455 209.477067 
L 411.264 213.948291 
L 412.062545 219.690054 
L 412.328727 217.902509 
L 413.127273 202.847264 
L 413.925818 191.891216 
L 414.724364 184.617624 
L 415.256727 181.598454 
L 415.789091 179.911295 
L 416.055273 179.535126 
L 416.321455 179.453919 
L 416.587636 179.655781 
L 416.853818 180.129046 
L 417.386182 181.843785 
L 417.918545 184.505036 
L 418.717091 190.079435 
L 419.781818 199.897651 
L 421.378909 217.645704 
L 422.976 234.734721 
L 423.774545 240.843463 
L 424.306909 243.186892 
L 424.573091 243.688005 
L 424.839273 243.624035 
L 425.105455 242.947232 
L 425.371636 241.59567 
L 425.904 236.452638 
L 426.436364 227.449077 
L 426.436364 227.449077 
" clip-path="url(#p5c58da96a6)" style="fill: none; stroke: #0000ff; stroke-width: 3; stroke-linecap: square"/>
   </g>
   <g id="patch_3">
    <path d="M 7.2 331.2 
L 7.2 7.2 
" style="fill: none; stroke: #000000; stroke-width: 0.8; stroke-linejoin: miter; stroke-linecap: square"/>
   </g>
   <g id="patch_4">
    <path d="M 446.4 331.2 
L 446.4 7.2 
" style="fill: none; stroke: #000000; stroke-width: 0.8; stroke-linejoin: miter; stroke-linecap: square"/>
   </g>
   <g id="patch_5">
    <path d="M 7.2 331.2 
L 446.4 331.2 
" style="fill: none; stroke: #000000; stroke-width: 0.8; stroke-linejoin: miter; stroke-linecap: square"/>
   </g>
   <g id="patch_6">
    <path d="M 7.2 7.2 
L 446.4 7.2 
" style="fill: none; stroke: #000000; stroke-width: 0.8; stroke-linejoin: miter; stroke-linecap: square"/>
   </g>
  </g>
 </g>
 <defs>
  <clipPath id="p5c58da96a6">
   <rect x="7.2" y="7.2" width="439.2" height="324"/>
  </clipPath>
 </defs>
</svg>
