<?xml version="1.0" encoding="utf-8" standalone="no"?>
<!DOCTYPE svg PUBLIC "-//W3C//DTD SVG 1.1//EN"
  "http://www.w3.org/Graphics/SVG/1.1/DTD/svg11.dtd">
<svg xmlns:xlink="http://www.w3.org/1999/xlink" width="453.6pt" height="338.4pt" viewBox="0 0 453.6 338.4" xmlns="http://www.w3.org/2000/svg" version="1.1">
 <metadata>
  <rdf:RDF xmlns:dc="http://purl.org/dc/elements/1.1/" xmlns:cc="http://creativecommons.org/ns#" xmlns:rdf="http://www.w3.org/1999/02/22-rdf-syntax-ns#">
   <cc:Work>
    <dc:type rdf:resource="http://purl.org/dc/dcmitype/StillImage"/>
    <dc:date>2025-05-14T16:27:34.290536</dc:date>
    <dc:format>image/svg+xml</dc:format>
    <dc:creator>
     <cc:Agent>
      <dc:title>Matplotlib v3.10.1, https://matplotlib.org/</dc:title>
     </cc:Agent>
    </dc:creator>
   </cc:Work>
  </rdf:RDF>
 </metadata>
 <defs>
  <style type="text/css">*{stroke-linejoin: round; stroke-linecap: butt}</style>
 </defs>
 <g id="figure_1">
  <g id="patch_1">
   <path d="M 0 338.4 
L 453.6 338.4 
L 453.6 0 
L 0 0 
z
" style="fill: #ffffff"/>
  </g>
  <g id="axes_1">
   <g id="patch_2">
    <path d="M 7.2 331.2 
L 446.4 331.2 
L 446.4 7.2 
L 7.2 7.2 
z
" style="fill: #ffffff"/>
   </g>
   <g id="matplotlib.axis_1"/>
   <g id="matplotlib.axis_2"/>
   <g id="line2d_1">
    <path d="M 27.163636 283.988032 
L 30.357818 282.513263 
L 33.818182 280.653177 
L 37.278545 278.531361 
L 41.005091 275.966779 
L 44.731636 273.126288 
L 48.724364 269.792991 
L 52.983273 265.926336 
L 57.242182 261.759454 
L 61.767273 257.027089 
L 66.558545 251.701748 
L 71.882182 245.441575 
L 77.472 238.523822 
L 83.860364 230.246748 
L 91.047273 220.548169 
L 99.565091 208.659489 
L 112.075636 190.765508 
L 128.845091 166.829077 
L 137.362909 155.068092 
L 144.549818 145.522025 
L 150.672 137.744629 
L 156.261818 130.985339 
L 161.585455 124.89698 
L 166.376727 119.743721 
L 170.901818 115.189026 
L 175.160727 111.202856 
L 179.153455 107.74994 
L 183.146182 104.589986 
L 186.872727 101.920554 
L 190.333091 99.696577 
L 193.793455 97.72973 
L 196.987636 96.152298 
L 200.181818 94.812754 
L 203.376 93.720087 
L 206.304 92.943081 
L 209.232 92.388075 
L 212.16 92.062002 
L 215.088 91.971833 
L 217.749818 92.100397 
L 220.411636 92.434897 
L 223.073455 92.980529 
L 225.735273 93.742489 
L 228.397091 94.726079 
L 229.461818 95.891289 
L 235.051636 102.074382 
L 240.375273 107.645691 
L 245.698909 112.907816 
L 251.022545 117.861285 
L 256.346182 122.506676 
L 261.403636 126.634894 
L 266.461091 130.485881 
L 271.518545 134.060181 
L 276.576 137.358198 
L 281.367273 140.228228 
L 286.158545 142.85103 
L 290.949818 145.227009 
L 295.741091 147.356568 
L 300.532364 149.240058 
L 305.323636 150.877883 
L 310.114909 152.270412 
L 314.64 153.360674 
L 319.165091 154.232782 
L 323.690182 154.887069 
L 328.215273 155.323835 
L 332.740364 155.543393 
L 337.265455 155.546062 
L 341.790545 155.332191 
L 346.315636 154.902045 
L 350.840727 154.255992 
L 355.365818 153.394312 
L 359.890909 152.31734 
L 364.682182 150.942701 
L 369.473455 149.327435 
L 374.264727 147.47193 
L 379.056 145.376483 
L 383.847273 143.041586 
L 388.638545 140.467537 
L 393.696 137.491485 
L 398.753455 134.249841 
L 403.810909 130.74308 
L 408.868364 126.971623 
L 414.192 122.716192 
L 419.515636 118.16852 
L 424.839273 113.329061 
L 426.436364 111.820415 
L 426.436364 111.820415 
" clip-path="url(#p27fd2d60d7)" style="fill: none; stroke-dasharray: 11.1,4.8; stroke-dashoffset: 0; stroke: #000000; stroke-width: 3"/>
   </g>
   <g id="line2d_2">
    <path d="M 27.163636 174.624767 
L 27.429818 172.695262 
L 27.696 172.01845 
L 27.962182 172.376484 
L 28.228364 173.444098 
L 28.494545 173.029972 
L 28.760727 172.19834 
L 29.026909 171.94862 
L 29.559273 173.386882 
L 29.825455 173.681134 
L 30.357818 174.601829 
L 30.624 173.49078 
L 30.890182 173.907391 
L 31.156364 175.881103 
L 31.422545 176.893801 
L 31.688727 177.18276 
L 31.954909 176.945382 
L 32.487273 174.90105 
L 32.753455 175.352545 
L 33.552 177.896993 
L 33.818182 176.792414 
L 34.084364 175.084768 
L 34.350545 174.779938 
L 34.882909 176.426787 
L 35.149091 177.539495 
L 35.415273 178.11621 
L 35.681455 182.34643 
L 35.947636 181.900571 
L 36.48 185.223939 
L 36.746182 185.897064 
L 37.012364 185.021699 
L 37.278545 183.284795 
L 37.544727 182.336932 
L 37.810909 182.85242 
L 38.077091 184.794398 
L 38.343273 185.622607 
L 38.609455 185.471377 
L 39.408 181.01555 
L 39.940364 184.682582 
L 40.206545 185.285087 
L 40.472727 184.600612 
L 41.005091 180.518005 
L 41.271273 180.471639 
L 41.803636 183.791549 
L 42.069818 184.021439 
L 42.868364 179.182508 
L 43.134545 180.338668 
L 43.400727 182.30728 
L 43.666909 183.265238 
L 43.933091 183.762186 
L 44.199273 188.230961 
L 44.465455 187.053312 
L 44.731636 187.470554 
L 45.264 191.638099 
L 45.530182 190.703534 
L 46.062545 186.978206 
L 46.328727 186.372479 
L 46.594909 187.725278 
L 46.861091 190.307912 
L 47.127273 190.848303 
L 47.925818 185.372957 
L 48.192 185.492936 
L 48.724364 189.651457 
L 48.990545 189.222855 
L 49.522909 185.376854 
L 49.789091 184.413269 
L 50.055273 185.578453 
L 50.321455 188.148402 
L 50.587636 188.852611 
L 50.853818 187.553034 
L 51.386182 183.922747 
L 51.652364 183.518347 
L 52.184727 187.884452 
L 52.450909 187.938368 
L 53.249455 183.603284 
L 53.515636 184.435021 
L 53.781818 186.950177 
L 54.048 188.140484 
L 54.314182 187.026187 
L 54.846545 183.22219 
L 55.112727 182.727199 
L 55.645091 187.171114 
L 55.911273 187.148247 
L 56.709818 182.140574 
L 56.976 182.834714 
L 57.242182 185.322675 
L 57.508364 186.713159 
L 57.774545 185.66454 
L 58.306909 181.937018 
L 58.573091 181.26556 
L 59.105455 185.035797 
L 59.371636 185.083269 
L 59.637818 183.854374 
L 60.170182 180.952137 
L 60.436364 181.149074 
L 60.968727 184.476243 
L 61.234909 180.863609 
L 61.767273 178.567564 
L 62.033455 178.013585 
L 62.299636 179.271975 
L 62.565818 181.234731 
L 63.098182 179.284589 
L 63.630545 177.359306 
L 63.896727 177.733123 
L 64.162909 179.553121 
L 64.429091 179.894766 
L 64.695273 178.472646 
L 65.493818 176.539077 
L 66.026182 179.043225 
L 66.558545 176.764262 
L 67.090909 175.655373 
L 67.357091 176.096738 
L 67.623273 177.288809 
L 67.889455 177.166424 
L 68.155636 175.294785 
L 68.421818 175.283347 
L 68.688 174.851989 
L 68.954182 174.764919 
L 69.486545 176.585188 
L 69.752727 176.350751 
L 70.018909 175.515528 
L 70.551273 175.207477 
L 70.817455 175.558585 
L 71.083636 176.521766 
L 71.349818 176.130191 
L 71.616 174.564838 
L 72.414545 174.556464 
L 72.946909 175.82006 
L 73.479273 173.157159 
L 73.745455 173.591422 
L 74.011636 173.524269 
L 74.277818 173.840282 
L 74.544 174.695966 
L 74.810182 174.01049 
L 75.076364 171.764182 
L 75.342545 172.359173 
L 75.874909 172.492592 
L 76.141091 172.885598 
L 76.407273 173.86185 
L 76.939636 170.683128 
L 77.205818 171.840131 
L 77.472 171.803306 
L 77.738182 171.938437 
L 78.270545 174.458579 
L 78.536727 172.70555 
L 78.802909 172.785817 
L 79.335273 172.57537 
L 79.601455 172.73048 
L 79.867636 173.501569 
L 80.4 171.192866 
L 80.666182 171.944222 
L 80.932364 171.932722 
L 81.198545 172.087832 
L 81.464727 172.475615 
L 81.730909 172.33376 
L 81.997091 170.421566 
L 82.263273 170.698367 
L 82.529455 171.531913 
L 83.061818 171.691517 
L 83.328 172.127852 
L 83.594182 169.874345 
L 83.860364 169.105354 
L 84.126545 170.816275 
L 84.392727 171.203759 
L 84.658909 171.23788 
L 84.925091 171.112133 
L 85.457455 164.864144 
L 85.989818 170.623358 
L 86.256 170.953082 
L 86.522182 170.781408 
L 86.788364 169.028826 
L 87.054545 162.865643 
L 87.320727 163.043523 
L 87.586909 169.273561 
L 87.853091 170.906786 
L 88.119273 170.815107 
L 88.385455 169.658895 
L 88.917818 158.879156 
L 89.184 161.466899 
L 89.450182 169.257558 
L 89.716364 170.387436 
L 89.982545 169.899477 
L 90.248727 167.256819 
L 90.514909 159.305194 
L 90.781091 156.643224 
L 91.313455 169.656691 
L 91.579636 169.936714 
L 91.845818 168.705053 
L 92.378182 155.614286 
L 92.644364 156.571682 
L 92.910545 164.751836 
L 93.176727 168.714709 
L 93.442909 168.277067 
L 93.709091 165.826105 
L 93.975273 157.177655 
L 94.241455 153.770069 
L 94.507636 158.227889 
L 94.773818 167.058591 
L 95.04 168.051152 
L 95.306182 170.735138 
L 95.838545 157.422775 
L 96.104727 157.957118 
L 96.637091 170.312497 
L 96.903273 169.607666 
L 97.169455 166.174088 
L 97.435636 158.534614 
L 97.701818 155.67654 
L 97.968 158.347306 
L 98.234182 166.026422 
L 98.500364 168.140742 
L 98.766545 166.668701 
L 99.298909 155.660459 
L 99.565091 155.206804 
L 99.831273 159.634761 
L 100.097455 166.103371 
L 100.363636 166.359886 
L 100.629818 163.246315 
L 100.896 157.313049 
L 101.162182 154.082904 
L 101.428364 155.779279 
L 101.960727 165.396468 
L 102.226909 164.255784 
L 102.759273 154.22676 
L 103.025455 153.052842 
L 103.291636 156.805181 
L 103.557818 162.893329 
L 103.824 164.044459 
L 104.090182 161.670657 
L 104.622545 152.585161 
L 104.888727 153.515643 
L 105.421091 162.849614 
L 105.687273 162.453035 
L 106.485818 151.832962 
L 106.752 154.515614 
L 107.018182 160.1687 
L 107.284364 162.04903 
L 107.550545 160.481483 
L 108.082909 152.152135 
L 108.349091 152.027169 
L 108.881455 160.586504 
L 109.147636 160.774743 
L 109.413818 158.031697 
L 109.946182 151.148425 
L 110.212364 152.973295 
L 110.744727 159.651896 
L 111.010909 158.789444 
L 111.809455 150.575687 
L 112.341818 158.160034 
L 112.608 158.837794 
L 112.874182 157.394826 
L 113.406545 150.51991 
L 113.672727 151.709822 
L 113.938909 155.825049 
L 114.205091 157.619318 
L 114.471273 157.081587 
L 114.737455 154.853186 
L 115.003636 151.299181 
L 115.269818 150.186078 
L 115.802182 155.344586 
L 116.068364 155.563337 
L 116.334545 154.11677 
L 116.866909 149.594238 
L 117.133091 150.172823 
L 117.399273 152.23709 
L 117.665455 152.989587 
L 117.931636 152.144656 
L 118.464 149.549329 
L 118.730182 149.369009 
L 118.996364 150.805516 
L 119.262545 151.106834 
L 119.794909 149.017567 
L 120.593455 149.669133 
L 120.859636 152.211124 
L 121.125818 151.668934 
L 121.392 148.287472 
L 121.658182 147.249808 
L 121.924364 149.425312 
L 122.190545 147.216433 
L 122.456727 149.625172 
L 122.722909 154.155886 
L 123.255273 144.337432 
L 123.521455 147.227898 
L 123.787636 143.7954 
L 124.053818 143.327578 
L 124.586182 153.535675 
L 124.852364 145.773185 
L 125.118545 143.058651 
L 125.384727 142.91576 
L 125.650909 139.839391 
L 125.917091 142.793112 
L 126.183273 150.669244 
L 126.449455 149.613023 
L 126.715636 142.089878 
L 126.981818 143.968768 
L 127.248 141.117822 
L 127.514182 140.009213 
L 128.046545 152.715218 
L 128.578909 142.55935 
L 128.845091 143.512989 
L 129.111273 140.493292 
L 129.377455 146.480492 
L 129.643636 156.450193 
L 129.909818 155.115845 
L 130.176 148.6393 
L 130.442182 149.867607 
L 130.974545 145.483243 
L 131.506909 153.513273 
L 131.773091 151.234574 
L 132.039273 149.938025 
L 132.305455 150.985977 
L 132.571636 147.179214 
L 132.837818 148.040139 
L 133.104 153.249508 
L 133.370182 153.424456 
L 133.636364 150.961732 
L 133.902545 151.975677 
L 134.168727 150.885678 
L 134.434909 147.937171 
L 134.967273 155.010315 
L 135.499636 151.224128 
L 135.765818 153.697948 
L 136.032 149.5948 
L 136.298182 149.019375 
L 136.564364 154.333625 
L 136.830545 154.83426 
L 137.096727 152.404349 
L 137.362909 152.009086 
L 137.629091 152.822697 
L 137.895273 149.323362 
L 138.427636 156.535744 
L 138.96 152.771345 
L 139.226182 154.75559 
L 139.492364 151.414368 
L 139.758545 149.821504 
L 140.024727 154.90201 
L 140.290909 156.55927 
L 140.557091 154.167701 
L 140.823273 152.976016 
L 141.089455 153.932113 
L 141.355636 149.346273 
L 141.621818 151.465509 
L 141.888 157.055726 
L 142.420364 153.550387 
L 142.686545 153.471173 
L 142.952727 151.870585 
L 143.218909 148.473639 
L 143.751273 157.318263 
L 144.283636 153.598316 
L 144.549818 154.365771 
L 144.816 148.857507 
L 145.082182 149.533651 
L 145.348364 156.42679 
L 145.614545 156.86575 
L 145.880727 154.931961 
L 146.146909 153.923423 
L 146.413091 152.327944 
L 146.679273 148.132959 
L 147.211636 157.980485 
L 147.477818 157.044648 
L 147.744 155.651961 
L 148.010182 155.119128 
L 148.276364 149.803772 
L 148.542545 148.651484 
L 148.808727 155.512354 
L 149.074909 158.742024 
L 149.607273 156.124331 
L 149.873455 153.637449 
L 150.139636 148.046723 
L 150.405818 151.543406 
L 150.672 158.309859 
L 150.938182 158.544147 
L 151.204364 157.534679 
L 151.470545 155.615866 
L 152.002909 147.565961 
L 152.535273 158.924171 
L 152.801455 158.383068 
L 153.067636 157.429271 
L 153.333818 153.726564 
L 153.6 147.557218 
L 153.866182 149.970732 
L 154.132364 157.869003 
L 154.398545 159.115692 
L 154.664727 158.337159 
L 154.930909 156.668224 
L 155.463273 146.900385 
L 155.995636 158.197446 
L 156.261818 158.524309 
L 156.528 157.910243 
L 156.794182 153.741926 
L 157.060364 147.433622 
L 157.326545 148.455591 
L 157.592727 156.615731 
L 157.858909 158.79313 
L 158.125091 158.190599 
L 158.391273 157.269333 
L 158.923636 145.862248 
L 159.456 157.660786 
L 159.722182 158.179767 
L 159.988364 157.815773 
L 160.254545 154.837122 
L 160.520727 145.983807 
L 160.786909 145.723255 
L 161.053091 154.947235 
L 161.319273 157.95157 
L 161.585455 157.901254 
L 161.851636 157.440051 
L 162.384 141.681273 
L 162.916364 156.545067 
L 163.182545 157.750586 
L 163.448727 157.585768 
L 163.714909 156.107248 
L 163.981091 144.612153 
L 164.247273 141.347177 
L 164.513455 152.511266 
L 164.779636 157.101917 
L 165.045818 157.545827 
L 165.312 157.202778 
L 165.578182 151.227095 
L 165.844364 139.651416 
L 166.110545 143.495749 
L 166.376727 155.409404 
L 166.642909 157.249425 
L 166.909091 157.488717 
L 167.175273 156.287007 
L 167.441455 144.704095 
L 167.707636 138.852623 
L 168.24 156.138727 
L 168.506182 157.306061 
L 168.772364 156.995859 
L 169.038545 152.059227 
L 169.304727 139.924522 
L 169.570909 140.230633 
L 169.837091 152.495659 
L 170.103273 156.599228 
L 170.369455 157.332554 
L 170.635636 156.110215 
L 171.168 138.841826 
L 171.434182 144.467665 
L 171.700364 154.997305 
L 171.966545 157.040961 
L 172.232727 156.979409 
L 172.498909 153.199437 
L 172.765091 141.907117 
L 173.031273 139.651311 
L 173.563636 155.8583 
L 173.829818 157.218034 
L 174.096 156.144415 
L 174.628364 139.946116 
L 174.894545 143.588587 
L 175.160727 153.732762 
L 175.426909 156.70281 
L 175.693091 157.036204 
L 175.959273 154.063522 
L 176.225455 144.683484 
L 176.491636 140.136759 
L 177.024 154.90143 
L 177.290182 156.999142 
L 177.556364 156.173892 
L 177.822545 150.199807 
L 178.088727 141.263872 
L 178.354909 142.946027 
L 178.621091 152.099923 
L 178.887273 156.197031 
L 179.153455 157.096632 
L 179.419636 154.539789 
L 179.952 140.922087 
L 180.750545 157.535803 
L 181.016727 156.909816 
L 181.282909 151.188541 
L 181.549091 142.870096 
L 181.815273 142.535035 
L 182.347636 156.439553 
L 182.613818 158.448694 
L 182.88 155.521185 
L 183.412364 142.110857 
L 183.678545 146.249943 
L 184.210909 158.567866 
L 184.477091 158.258559 
L 185.009455 144.864876 
L 185.275636 143.091428 
L 185.808 156.970789 
L 186.074182 159.372084 
L 186.340364 157.01633 
L 186.872727 143.544907 
L 187.138909 146.701701 
L 187.405091 154.841265 
L 187.671273 159.108037 
L 187.937455 159.377965 
L 188.203636 154.830082 
L 188.469818 147.282515 
L 188.736 145.091597 
L 189.268364 158.193812 
L 189.534545 160.139486 
L 189.800727 159.085214 
L 190.066909 154.811981 
L 190.333091 147.72302 
L 190.599273 151.157379 
L 190.865455 157.960103 
L 191.397818 160.501286 
L 191.664 159.41773 
L 192.196364 152.457509 
L 192.462545 157.441139 
L 192.994909 160.094103 
L 193.261091 160.038924 
L 193.527273 159.85123 
L 193.793455 156.717083 
L 194.059636 156.627283 
L 194.325818 158.98481 
L 194.592 159.27433 
L 194.858182 160.310678 
L 195.390545 159.554388 
L 195.656727 157.36268 
L 196.189091 158.952629 
L 196.455273 159.629336 
L 196.987636 160.018576 
L 197.52 157.871777 
L 197.786182 158.893254 
L 198.052364 159.317923 
L 198.318545 160.246386 
L 198.584727 159.927564 
L 198.850909 160.123756 
L 199.117091 158.491443 
L 199.383273 158.391513 
L 200.181818 160.3427 
L 200.448 160.227338 
L 200.714182 159.745155 
L 200.980364 158.326169 
L 201.246545 158.850575 
L 201.778909 161.039509 
L 202.045091 159.877863 
L 202.311273 160.179234 
L 202.577455 158.87324 
L 202.843636 158.777927 
L 203.109818 160.117488 
L 203.376 162.190849 
L 203.642182 161.840812 
L 203.908364 160.446159 
L 204.174545 160.224494 
L 204.440727 159.069027 
L 204.706909 160.274424 
L 204.973091 162.514289 
L 205.239273 163.50901 
L 205.771636 160.650462 
L 206.037818 159.851107 
L 206.304 159.971841 
L 206.836364 164.352624 
L 207.102545 163.919792 
L 207.634909 160.87304 
L 207.901091 160.181902 
L 208.167273 161.914092 
L 208.433455 164.605189 
L 208.699636 164.744024 
L 208.965818 163.732888 
L 209.232 161.653803 
L 209.498182 160.688805 
L 209.764364 161.10459 
L 210.030545 164.528959 
L 210.296727 165.184493 
L 210.829091 164.453748 
L 211.095273 161.831613 
L 211.361455 161.102676 
L 211.893818 165.656985 
L 212.426182 164.974819 
L 212.692364 165.089918 
L 212.958545 161.975223 
L 213.224727 162.167745 
L 213.490909 165.204753 
L 213.757091 165.906618 
L 214.023273 165.594222 
L 214.289455 165.532757 
L 214.821818 162.201752 
L 215.088 164.02462 
L 215.354182 166.626671 
L 215.886545 165.47354 
L 216.152727 166.721773 
L 216.418909 163.962682 
L 216.685091 163.24463 
L 216.951273 165.608267 
L 217.217455 166.768368 
L 217.483636 165.963132 
L 217.749818 165.780862 
L 218.016 166.555656 
L 218.282182 163.5621 
L 218.548364 164.128992 
L 218.814545 166.654006 
L 219.080727 166.909942 
L 219.346909 166.089344 
L 219.613091 166.978604 
L 219.879273 165.636497 
L 220.145455 163.577479 
L 220.677818 167.077341 
L 221.210182 166.073385 
L 221.476364 167.586192 
L 221.742545 164.781963 
L 222.008727 163.966491 
L 222.274909 166.225528 
L 222.541091 167.330941 
L 222.807273 166.563381 
L 223.073455 166.988471 
L 223.339636 166.538837 
L 223.605818 163.988191 
L 223.872 165.147362 
L 224.138182 167.205115 
L 224.404364 167.182169 
L 224.670545 166.564136 
L 224.936727 167.775291 
L 225.469091 163.998567 
L 226.001455 167.625939 
L 226.267636 167.209294 
L 226.8 167.057011 
L 227.066182 164.350359 
L 227.332364 164.517091 
L 227.598545 166.851479 
L 227.864727 167.662491 
L 228.130909 167.148953 
L 228.397091 167.968392 
L 228.663273 166.42437 
L 228.929455 163.897846 
L 229.461818 167.111488 
L 229.728 167.416932 
L 229.994182 167.137243 
L 230.260364 167.025638 
L 230.526545 164.889214 
L 230.792727 163.960996 
L 231.058909 166.179917 
L 231.325091 167.143212 
L 231.857455 167.067404 
L 232.123636 166.408587 
L 232.389818 164.146601 
L 232.656 165.207 
L 232.922182 166.894334 
L 233.188364 166.793737 
L 233.454545 166.453988 
L 233.720727 166.609185 
L 234.253091 164.287841 
L 234.519273 166.421368 
L 234.785455 167.0101 
L 235.051636 166.609642 
L 235.317818 166.637907 
L 235.584 166.413731 
L 235.850182 164.857666 
L 236.116364 165.85825 
L 236.382545 167.305449 
L 236.648727 166.532411 
L 236.914909 166.20669 
L 237.181091 166.761819 
L 237.447273 166.382902 
L 237.713455 165.351682 
L 237.979636 167.231011 
L 238.245818 167.052832 
L 238.512 166.187009 
L 238.778182 166.353671 
L 239.044364 166.838435 
L 239.310545 166.084129 
L 239.842909 167.734367 
L 240.109091 166.516277 
L 240.375273 166.073596 
L 240.641455 166.83912 
L 240.907636 167.217405 
L 241.173818 167.169634 
L 241.44 168.193551 
L 241.972364 166.048104 
L 242.238545 166.111412 
L 242.504727 167.402799 
L 243.037091 168.460196 
L 243.303273 168.242691 
L 243.569455 166.610712 
L 243.835636 166.03908 
L 244.101818 166.84637 
L 244.368 168.120763 
L 244.634182 168.520186 
L 244.900364 168.673013 
L 245.432727 166.175352 
L 245.698909 166.171911 
L 246.231273 168.427155 
L 246.497455 168.830388 
L 246.763636 168.427331 
L 247.029818 166.753059 
L 247.296 166.174035 
L 247.562182 166.788066 
L 247.828364 167.981665 
L 248.094545 168.509793 
L 248.360727 168.731915 
L 248.893091 166.149123 
L 249.159273 166.045277 
L 249.957818 169.091344 
L 250.224 168.72728 
L 250.490182 166.788996 
L 250.756364 166.018943 
L 251.022545 166.514206 
L 251.554909 169.243689 
L 251.821091 169.742937 
L 252.353455 166.490136 
L 252.619636 166.373158 
L 252.885818 167.322848 
L 253.418182 170.229281 
L 253.684364 170.128385 
L 253.950545 167.563228 
L 254.216727 166.461905 
L 254.482909 166.789716 
L 255.281455 171.996943 
L 256.08 167.056677 
L 256.346182 167.821762 
L 256.878545 172.729207 
L 257.144727 172.5462 
L 257.410909 168.823892 
L 257.677091 166.71217 
L 257.943273 166.907694 
L 258.209455 168.96457 
L 258.741818 174.050922 
L 259.008 172.290686 
L 259.274182 168.563743 
L 259.540364 167.204782 
L 259.806545 168.278576 
L 260.338909 174.450091 
L 260.605091 174.450872 
L 261.137455 167.350674 
L 261.403636 167.106958 
L 261.669818 169.220014 
L 262.202182 175.073602 
L 262.468364 173.687797 
L 262.734545 169.580945 
L 263.000727 167.329835 
L 263.266909 168.329542 
L 263.799273 174.938568 
L 264.065455 175.697798 
L 264.597818 168.642009 
L 264.864 167.325429 
L 265.130182 169.392092 
L 265.662545 175.491239 
L 265.928727 174.304057 
L 266.461091 167.328202 
L 266.727273 167.862703 
L 267.259636 174.162449 
L 267.525818 175.940759 
L 268.324364 167.672937 
L 268.590545 169.4434 
L 269.122909 175.498543 
L 269.389091 174.545404 
L 269.921455 167.827204 
L 270.187636 167.803152 
L 270.986182 176.047817 
L 271.784727 168.141076 
L 272.050909 169.456822 
L 272.583273 175.775493 
L 272.849455 175.441669 
L 273.381818 168.965799 
L 273.648 168.824735 
L 273.914182 170.624042 
L 274.446545 176.389401 
L 275.245091 169.118556 
L 275.511273 169.976558 
L 276.309818 176.484029 
L 276.842182 170.325243 
L 277.108364 170.029762 
L 277.374545 171.270552 
L 277.906909 176.526981 
L 278.173091 175.39899 
L 278.439273 171.850998 
L 278.705455 170.331967 
L 278.971636 170.699578 
L 279.237818 172.5082 
L 279.504 175.476352 
L 279.770182 176.630492 
L 280.302545 171.607615 
L 280.568727 171.234606 
L 280.834909 172.111454 
L 281.367273 176.457467 
L 281.633455 175.845156 
L 282.165818 171.766438 
L 282.432 171.973549 
L 283.230545 176.790228 
L 283.762909 172.995544 
L 284.029091 172.59857 
L 284.295273 173.146186 
L 284.827636 176.698584 
L 285.093818 176.71622 
L 285.36 174.533931 
L 285.626182 173.321292 
L 285.892364 173.558434 
L 286.158545 174.453584 
L 286.690909 177.367856 
L 287.223273 174.637978 
L 287.489455 174.546483 
L 288.021818 176.00814 
L 288.288 177.691041 
L 288.554182 178.337384 
L 288.820364 176.467368 
L 289.086545 176.142753 
L 289.352727 177.109217 
L 289.885091 177.904429 
L 290.151273 179.196588 
L 290.417455 179.66003 
L 290.683636 178.985869 
L 291.216 181.583856 
L 291.748364 180.745061 
L 292.014545 181.469915 
L 292.280727 181.665896 
L 292.813091 186.194187 
L 293.079273 186.529634 
L 293.345455 184.814325 
L 293.611636 184.202497 
L 293.877818 184.803212 
L 294.410182 190.119595 
L 294.676364 190.726524 
L 294.942545 190.07537 
L 295.208727 188.122322 
L 295.474909 187.64308 
L 295.741091 189.260285 
L 296.007273 191.703074 
L 296.273455 192.582872 
L 296.539636 192.866265 
L 296.805818 191.934861 
L 297.072 190.23077 
L 297.338182 190.888314 
L 297.604364 193.430946 
L 297.870545 194.339026 
L 298.136727 194.494391 
L 298.402909 194.811949 
L 298.935273 192.834901 
L 299.467636 195.362549 
L 299.733818 195.156938 
L 300.266182 195.967354 
L 300.532364 195.14493 
L 300.798545 195.231904 
L 301.064727 196.377468 
L 301.597091 195.781793 
L 301.863273 196.674468 
L 302.129455 196.571658 
L 302.395636 196.157119 
L 302.661818 196.529365 
L 302.928 196.35547 
L 303.194182 195.391323 
L 303.726545 196.286105 
L 303.992727 195.555984 
L 304.258909 195.353525 
L 304.525091 195.844065 
L 304.791273 195.237478 
L 305.057455 194.99959 
L 305.323636 195.244132 
L 305.856 192.739711 
L 306.122182 193.401662 
L 306.388364 194.42033 
L 306.654545 194.138314 
L 306.920727 193.669869 
L 307.453091 190.319982 
L 307.719273 190.202987 
L 308.251636 193.365759 
L 308.517818 193.527452 
L 308.784 191.288948 
L 309.050182 187.30305 
L 309.316364 185.703339 
L 309.582545 186.840424 
L 310.114909 190.966123 
L 310.381091 189.976046 
L 310.913455 182.222412 
L 311.179636 182.051046 
L 311.445818 183.911379 
L 311.712 186.980067 
L 311.978182 187.472266 
L 312.776727 179.15354 
L 313.042909 180.040413 
L 313.575273 183.70238 
L 313.841455 182.910145 
L 314.373818 177.724038 
L 314.64 178.134258 
L 314.906182 178.936185 
L 315.172364 180.092134 
L 315.438545 180.621973 
L 315.970909 177.179583 
L 316.237091 177.359368 
L 316.503273 178.449182 
L 316.769455 178.622621 
L 317.035636 178.640037 
L 317.301818 178.280984 
L 317.568 176.957864 
L 317.834182 176.913816 
L 318.366545 178.835359 
L 318.898909 177.396403 
L 319.431273 176.547039 
L 319.697455 177.501828 
L 319.963636 178.899676 
L 320.229818 179.258281 
L 320.762182 176.78368 
L 321.028364 176.139935 
L 321.560727 179.297537 
L 321.826909 179.864025 
L 322.093091 179.199818 
L 322.359273 177.392505 
L 322.625455 176.8104 
L 322.891636 177.311764 
L 323.424 181.325392 
L 323.690182 180.959941 
L 324.222545 178.003033 
L 324.488727 175.53944 
L 325.021091 180.099042 
L 325.287273 180.440977 
L 325.819636 176.250934 
L 326.085818 175.485305 
L 326.352 176.653535 
L 326.618182 180.145268 
L 326.884364 182.082779 
L 327.150545 181.51902 
L 327.682909 175.921631 
L 327.949091 175.903548 
L 328.481455 182.037914 
L 328.747636 182.84437 
L 329.013818 180.814619 
L 329.28 177.584606 
L 329.546182 176.025275 
L 329.812364 177.539978 
L 330.344727 183.621569 
L 330.610909 183.613704 
L 331.143273 177.83243 
L 331.409455 177.164739 
L 332.208 184.532011 
L 332.474182 183.3482 
L 333.006545 177.427635 
L 333.272727 178.313033 
L 333.538909 181.519626 
L 333.805091 183.221584 
L 334.071273 183.831709 
L 334.337455 182.007506 
L 334.869818 177.25841 
L 335.668364 182.87871 
L 335.934545 182.9198 
L 336.733091 176.229762 
L 336.999273 178.736429 
L 337.531636 181.077225 
L 337.797818 180.060059 
L 338.330182 173.788693 
L 338.596364 174.635046 
L 339.128727 179.940509 
L 339.394909 180.121936 
L 339.661091 178.487315 
L 339.927273 173.932259 
L 340.193455 172.231109 
L 340.992 178.64741 
L 341.258182 177.366144 
L 341.790545 169.612327 
L 342.056727 168.874173 
L 342.855273 173.824622 
L 343.121455 172.655295 
L 343.653818 165.76766 
L 343.92 165.691571 
L 344.452364 163.036448 
L 344.718545 161.135577 
L 345.250909 161.271778 
L 345.517091 159.052156 
L 345.783273 153.195171 
L 346.049455 150.571298 
L 346.315636 152.358281 
L 346.848 158.080152 
L 347.114182 157.376392 
L 347.646545 142.047304 
L 347.912727 142.766532 
L 348.711273 157.021369 
L 348.977455 153.820649 
L 349.509818 136.424291 
L 350.042182 148.421057 
L 350.308364 154.557942 
L 350.574545 153.786396 
L 350.840727 146.113425 
L 351.106909 130.756124 
L 351.373091 129.229237 
L 352.171636 152.751313 
L 352.437818 149.496678 
L 352.704 133.921732 
L 352.970182 125.249054 
L 353.236364 129.193036 
L 353.768727 151.822253 
L 354.034909 152.284597 
L 354.301091 145.960054 
L 354.567273 127.921295 
L 354.833455 123.474729 
L 355.099636 132.066209 
L 355.365818 146.223328 
L 355.632 151.09997 
L 355.898182 148.141878 
L 356.164364 130.49192 
L 356.430545 121.081071 
L 356.696727 123.26235 
L 357.229091 150.694894 
L 357.495273 151.002638 
L 357.761455 145.0081 
L 358.027636 124.64568 
L 358.293818 119.446371 
L 358.56 125.522335 
L 358.826182 142.973889 
L 359.092364 150.848985 
L 359.358545 149.233299 
L 359.890909 121.213375 
L 360.157091 120.534737 
L 360.423273 131.280425 
L 360.689455 148.277201 
L 360.955636 151.286821 
L 361.221818 146.9589 
L 361.488 129.362051 
L 361.754182 120.802769 
L 362.020364 124.976721 
L 362.286545 141.375039 
L 362.552727 150.589082 
L 362.818909 149.849717 
L 363.351273 123.387614 
L 363.617455 120.509456 
L 363.883636 128.795492 
L 364.149818 146.307914 
L 364.416 150.385306 
L 364.682182 147.174298 
L 364.948364 129.649675 
L 365.214545 120.47566 
L 365.480727 123.047216 
L 366.013091 149.973383 
L 366.279273 150.440907 
L 366.545455 142.222463 
L 366.811636 125.362555 
L 367.077818 120.317583 
L 367.344 126.695322 
L 367.610182 142.351765 
L 367.876364 149.190549 
L 368.142545 147.074386 
L 368.674909 120.979964 
L 368.941091 121.757374 
L 369.473455 147.905324 
L 369.739636 149.838235 
L 370.005818 144.204127 
L 370.272 127.514428 
L 370.538182 120.83207 
L 370.804364 125.64235 
L 371.070545 141.465489 
L 371.336727 148.987985 
L 371.602909 148.002393 
L 372.135273 122.492613 
L 372.401455 120.918781 
L 372.667636 130.885936 
L 372.933818 147.041433 
L 373.2 150.618893 
L 373.466182 147.166732 
L 373.732364 131.194663 
L 373.998545 122.471019 
L 374.264727 126.14237 
L 374.797091 150.430777 
L 375.063273 150.719508 
L 375.329455 141.209781 
L 375.595636 125.991052 
L 375.861818 121.418151 
L 376.128 130.065917 
L 376.394182 146.645117 
L 376.660364 150.693349 
L 376.926545 148.69885 
L 377.458909 122.127864 
L 377.725091 124.339516 
L 378.257455 150.921545 
L 378.523636 151.613772 
L 378.789818 146.154191 
L 379.056 129.417441 
L 379.322182 120.942446 
L 379.588364 128.410062 
L 379.854545 144.857906 
L 380.120727 150.861801 
L 380.386909 149.172326 
L 380.919273 122.34356 
L 381.185455 122.392332 
L 381.717818 150.600898 
L 381.984 151.856206 
L 382.250182 148.335962 
L 382.516364 130.537672 
L 382.782545 121.144186 
L 383.048727 128.24742 
L 383.314909 147.063676 
L 383.581091 152.12796 
L 383.847273 151.346583 
L 384.379636 124.457775 
L 384.645818 121.006404 
L 384.912 132.282801 
L 385.178182 148.66272 
L 385.444364 150.925759 
L 385.710545 148.634138 
L 386.242909 121.853845 
L 386.509091 126.178905 
L 386.775273 145.141124 
L 387.041455 151.253394 
L 387.307636 150.423825 
L 387.573818 143.676719 
L 387.84 124.970278 
L 388.106182 120.552293 
L 388.372364 129.13317 
L 388.638545 147.88201 
L 388.904727 150.942806 
L 389.170909 148.752222 
L 389.703273 120.855578 
L 389.969455 123.665899 
L 390.235636 142.582331 
L 390.501818 150.725547 
L 390.768 150.576494 
L 391.034182 146.262373 
L 391.300364 127.21239 
L 391.566545 119.698935 
L 391.832727 127.759426 
L 392.098909 144.51368 
L 392.365091 147.379444 
L 392.631273 145.058574 
L 393.163636 118.271364 
L 393.429818 118.732234 
L 393.962182 146.57505 
L 394.228364 147.417383 
L 394.494545 144.183973 
L 394.760727 125.979974 
L 395.026909 118.670594 
L 395.293091 124.186653 
L 395.559273 142.954173 
L 395.825455 147.274123 
L 396.091636 146.011845 
L 396.357818 135.993022 
L 396.624 120.297973 
L 396.890182 117.976331 
L 397.422545 145.771324 
L 397.688727 147.425178 
L 397.954909 144.443051 
L 398.487273 119.383853 
L 398.753455 124.205877 
L 399.019636 142.919693 
L 399.285818 148.164701 
L 399.552 147.133357 
L 399.818182 141.454288 
L 400.084364 122.404639 
L 400.350545 119.024072 
L 400.882909 145.724606 
L 401.149091 146.06885 
L 401.415273 143.986131 
L 401.947636 117.620535 
L 402.213818 120.386913 
L 402.48 139.198921 
L 402.746182 147.034603 
L 403.012364 146.937728 
L 403.278545 142.628645 
L 403.544727 125.786645 
L 403.810909 119.156868 
L 404.077091 128.526512 
L 404.343273 143.468835 
L 404.609455 147.02909 
L 404.875636 145.520093 
L 405.141818 135.589964 
L 405.408 118.935185 
L 405.674182 120.051114 
L 405.940364 136.44241 
L 406.206545 145.827153 
L 406.472727 146.814851 
L 406.738909 144.055408 
L 407.271273 120.128678 
L 407.537455 127.136125 
L 407.803636 141.996004 
L 408.069818 146.241533 
L 408.336 145.721499 
L 408.602182 138.111134 
L 408.868364 122.253339 
L 409.134545 120.121778 
L 409.400727 133.390374 
L 409.933091 143.063303 
L 410.199273 140.010653 
L 410.465455 125.905957 
L 410.731636 119.14428 
L 410.997818 122.382781 
L 411.264 135.623532 
L 411.530182 142.895605 
L 411.796364 143.622628 
L 412.062545 136.822643 
L 412.328727 122.687979 
L 412.594909 119.69962 
L 412.861091 125.974883 
L 413.127273 138.288821 
L 413.393455 143.945225 
L 413.659636 143.086688 
L 414.192 121.31722 
L 414.458182 123.407857 
L 414.724364 135.235398 
L 414.990545 141.319754 
L 415.256727 143.799596 
L 415.522909 139.387598 
L 415.789091 127.690623 
L 416.055273 121.000751 
L 416.321455 128.802111 
L 416.587636 140.045748 
L 416.853818 144.420807 
L 417.12 141.353445 
L 417.652364 119.628429 
L 417.918545 119.523548 
L 418.450909 140.242992 
L 418.717091 144.177495 
L 418.983273 143.113058 
L 419.249455 136.395236 
L 419.515636 133.407895 
L 419.781818 134.706568 
L 420.314182 144.514768 
L 420.580364 142.515266 
L 421.112727 131.070031 
L 421.378909 133.252908 
L 421.645091 140.961378 
L 421.911273 144.883766 
L 422.177455 146.012301 
L 422.443636 143.141235 
L 422.976 132.144457 
L 423.242182 136.637337 
L 423.508364 155.39801 
L 423.774545 157.929397 
L 424.040727 156.680917 
L 424.306909 153.034356 
L 424.573091 145.09337 
L 425.105455 150.637871 
L 425.371636 156.241747 
L 425.637818 155.02687 
L 425.904 154.491685 
L 426.170182 153.228704 
L 426.436364 153.823142 
L 426.436364 153.823142 
" clip-path="url(#p27fd2d60d7)" style="fill: none; stroke: #ff0000; stroke-width: 3; stroke-linecap: square"/>
   </g>
   <g id="patch_3">
    <path d="M 7.2 331.2 
L 7.2 7.2 
" style="fill: none; stroke: #000000; stroke-width: 0.8; stroke-linejoin: miter; stroke-linecap: square"/>
   </g>
   <g id="patch_4">
    <path d="M 446.4 331.2 
L 446.4 7.2 
" style="fill: none; stroke: #000000; stroke-width: 0.8; stroke-linejoin: miter; stroke-linecap: square"/>
   </g>
   <g id="patch_5">
    <path d="M 7.2 331.2 
L 446.4 331.2 
" style="fill: none; stroke: #000000; stroke-width: 0.8; stroke-linejoin: miter; stroke-linecap: square"/>
   </g>
   <g id="patch_6">
    <path d="M 7.2 7.2 
L 446.4 7.2 
" style="fill: none; stroke: #000000; stroke-width: 0.8; stroke-linejoin: miter; stroke-linecap: square"/>
   </g>
  </g>
 </g>
 <defs>
  <clipPath id="p27fd2d60d7">
   <rect x="7.2" y="7.2" width="439.2" height="324"/>
  </clipPath>
 </defs>
</svg>
