<?xml version="1.0" encoding="utf-8" standalone="no"?>
<!DOCTYPE svg PUBLIC "-//W3C//DTD SVG 1.1//EN"
  "http://www.w3.org/Graphics/SVG/1.1/DTD/svg11.dtd">
<svg xmlns:xlink="http://www.w3.org/1999/xlink" width="453.6pt" height="338.4pt" viewBox="0 0 453.6 338.4" xmlns="http://www.w3.org/2000/svg" version="1.1">
 <metadata>
  <rdf:RDF xmlns:dc="http://purl.org/dc/elements/1.1/" xmlns:cc="http://creativecommons.org/ns#" xmlns:rdf="http://www.w3.org/1999/02/22-rdf-syntax-ns#">
   <cc:Work>
    <dc:type rdf:resource="http://purl.org/dc/dcmitype/StillImage"/>
    <dc:date>2025-05-14T16:25:07.529975</dc:date>
    <dc:format>image/svg+xml</dc:format>
    <dc:creator>
     <cc:Agent>
      <dc:title>Matplotlib v3.10.1, https://matplotlib.org/</dc:title>
     </cc:Agent>
    </dc:creator>
   </cc:Work>
  </rdf:RDF>
 </metadata>
 <defs>
  <style type="text/css">*{stroke-linejoin: round; stroke-linecap: butt}</style>
 </defs>
 <g id="figure_1">
  <g id="patch_1">
   <path d="M 0 338.4 
L 453.6 338.4 
L 453.6 0 
L 0 0 
z
" style="fill: #ffffff"/>
  </g>
  <g id="axes_1">
   <g id="patch_2">
    <path d="M 7.2 331.2 
L 446.4 331.2 
L 446.4 7.2 
L 7.2 7.2 
z
" style="fill: #ffffff"/>
   </g>
   <g id="matplotlib.axis_1"/>
   <g id="matplotlib.axis_2"/>
   <g id="line2d_1">
    <path d="M 27.163636 66.014614 
L 141.355636 33.181759 
L 141.621818 33.218645 
L 353.236364 243.45064 
L 426.436364 229.685343 
L 426.436364 229.685343 
" clip-path="url(#p05626dad85)" style="fill: none; stroke-dasharray: 11.1,4.8; stroke-dashoffset: 0; stroke: #000000; stroke-width: 3"/>
   </g>
   <g id="line2d_2">
    <path d="M 27.163636 81.944196 
L 28.494545 84.246667 
L 30.624 88.466862 
L 34.084364 95.390005 
L 35.681455 98.037404 
L 36.746182 99.434655 
L 37.810909 100.456395 
L 38.609455 100.923462 
L 39.408 101.101413 
L 39.940364 101.044197 
L 40.472727 100.834628 
L 41.271273 100.209747 
L 42.069818 99.172364 
L 42.868364 97.69532 
L 43.666909 95.740516 
L 44.465455 93.24928 
L 45.264 90.785976 
L 46.062545 91.0226 
L 48.724364 91.798816 
L 52.184727 92.559512 
L 58.573091 93.911433 
L 61.234909 94.728414 
L 62.565818 95.250748 
L 63.098182 93.410886 
L 64.695273 87.574758 
L 66.292364 82.569568 
L 67.889455 78.341912 
L 69.220364 75.373707 
L 70.551273 72.876326 
L 71.882182 70.818187 
L 73.213091 69.167844 
L 74.544 67.892977 
L 75.874909 66.960563 
L 77.205818 66.337684 
L 78.536727 65.991088 
L 80.133818 65.681501 
L 84.126545 64.335496 
L 86.788364 63.648063 
L 89.184 63.26135 
L 91.313455 63.158611 
L 93.176727 63.293935 
L 95.04 63.673344 
L 96.903273 64.125628 
L 101.162182 64.486217 
L 105.687273 64.648841 
L 111.010909 64.609883 
L 115.802182 64.56838 
L 117.665455 64.864888 
L 119.528727 65.379111 
L 121.392 66.111489 
L 123.255273 67.0626 
L 125.384727 68.418279 
L 127.514182 70.059632 
L 129.111273 71.381866 
L 132.571636 72.08115 
L 142.952727 73.997962 
L 145.348364 74.700705 
L 146.413091 75.311049 
L 151.470545 78.245405 
L 155.197091 80.167168 
L 158.391273 81.578271 
L 161.319273 82.62919 
L 162.650182 83.098012 
L 164.247273 84.346457 
L 165.844364 85.88156 
L 167.441455 87.72978 
L 169.038545 89.919574 
L 170.635636 92.477945 
L 172.232727 95.432228 
L 173.829818 98.811161 
L 175.693091 103.329462 
L 177.290182 107.746411 
L 179.153455 113.620373 
L 179.685818 115.293574 
L 181.016727 118.115166 
L 182.88 121.605547 
L 184.743273 124.668117 
L 186.872727 127.74431 
L 189.268364 130.805686 
L 192.728727 134.814047 
L 196.189091 138.820653 
L 202.045091 147.312185 
L 205.239273 151.250901 
L 210.030545 156.72781 
L 213.224727 160.227004 
L 215.088 161.72775 
L 216.951273 162.976212 
L 219.080727 164.132556 
L 221.210182 165.041708 
L 223.605818 165.821962 
L 226.267636 166.457657 
L 229.195636 166.954061 
L 237.181091 167.545145 
L 244.101818 167.844427 
L 245.698909 167.810386 
L 248.094545 166.972161 
L 250.224 166.437836 
L 252.353455 166.122788 
L 254.482909 166.047595 
L 256.346182 166.19519 
L 258.209455 166.557254 
L 260.072727 167.148988 
L 261.936 167.98967 
L 263.000727 168.436355 
L 271.252364 171.016408 
L 273.648 172.060497 
L 275.777455 173.216262 
L 277.906909 174.644904 
L 279.237818 175.712878 
L 279.504 176.200917 
L 281.367273 181.035064 
L 283.496727 185.933994 
L 285.892364 190.843923 
L 288.820364 196.310631 
L 294.676364 207.115116 
L 296.539636 210.670595 
L 301.330909 217.432483 
L 304.791273 222.130324 
L 307.186909 225.003865 
L 309.050182 226.904525 
L 310.647273 228.241532 
L 311.978182 229.110734 
L 313.042909 229.602635 
L 315.970909 230.426323 
L 319.165091 231.071147 
L 322.625455 231.527461 
L 326.618182 231.822609 
L 336.200727 232.402177 
L 339.927273 232.938152 
L 343.121455 233.615535 
L 354.034909 236.256622 
L 356.962909 236.675761 
L 359.358545 236.788165 
L 361.488 236.662032 
L 363.883636 235.44561 
L 366.013091 234.690321 
L 368.674909 234.020409 
L 374.264727 232.713686 
L 376.394182 231.935057 
L 378.257455 230.993724 
L 379.322182 230.200716 
L 380.653091 228.896302 
L 382.250182 226.967622 
L 384.379636 223.983318 
L 389.703273 216.261164 
L 391.300364 214.368983 
L 392.631273 213.100366 
L 393.696 212.336967 
L 394.228364 211.97982 
L 395.293091 210.6531 
L 396.624 208.622708 
L 398.221091 205.741354 
L 400.350545 201.359992 
L 407.803636 185.449476 
L 409.400727 182.805211 
L 410.465455 181.435215 
L 410.731636 181.470082 
L 411.530182 181.993768 
L 412.328727 182.266575 
L 413.127273 182.320403 
L 413.925818 182.187028 
L 414.990545 181.773349 
L 416.321455 180.98444 
L 420.846545 178.005825 
L 421.911273 177.687477 
L 422.709818 177.649617 
L 423.508364 177.822362 
L 424.306909 178.240596 
L 425.105455 178.940117 
L 425.904 179.960251 
L 426.436364 180.834404 
L 426.436364 180.834404 
" clip-path="url(#p05626dad85)" style="fill: none; stroke: #ff0000; stroke-width: 3; stroke-linecap: square"/>
   </g>
   <g id="patch_3">
    <path d="M 7.2 331.2 
L 7.2 7.2 
" style="fill: none; stroke: #000000; stroke-width: 0.8; stroke-linejoin: miter; stroke-linecap: square"/>
   </g>
   <g id="patch_4">
    <path d="M 446.4 331.2 
L 446.4 7.2 
" style="fill: none; stroke: #000000; stroke-width: 0.8; stroke-linejoin: miter; stroke-linecap: square"/>
   </g>
   <g id="patch_5">
    <path d="M 7.2 331.2 
L 446.4 331.2 
" style="fill: none; stroke: #000000; stroke-width: 0.8; stroke-linejoin: miter; stroke-linecap: square"/>
   </g>
   <g id="patch_6">
    <path d="M 7.2 7.2 
L 446.4 7.2 
" style="fill: none; stroke: #000000; stroke-width: 0.8; stroke-linejoin: miter; stroke-linecap: square"/>
   </g>
  </g>
 </g>
 <defs>
  <clipPath id="p05626dad85">
   <rect x="7.2" y="7.2" width="439.2" height="324"/>
  </clipPath>
 </defs>
</svg>
