<?xml version="1.0" encoding="utf-8" standalone="no"?>
<!DOCTYPE svg PUBLIC "-//W3C//DTD SVG 1.1//EN"
  "http://www.w3.org/Graphics/SVG/1.1/DTD/svg11.dtd">
<svg xmlns:xlink="http://www.w3.org/1999/xlink" width="453.6pt" height="338.4pt" viewBox="0 0 453.6 338.4" xmlns="http://www.w3.org/2000/svg" version="1.1">
 <metadata>
  <rdf:RDF xmlns:dc="http://purl.org/dc/elements/1.1/" xmlns:cc="http://creativecommons.org/ns#" xmlns:rdf="http://www.w3.org/1999/02/22-rdf-syntax-ns#">
   <cc:Work>
    <dc:type rdf:resource="http://purl.org/dc/dcmitype/StillImage"/>
    <dc:date>2025-05-14T16:21:28.671199</dc:date>
    <dc:format>image/svg+xml</dc:format>
    <dc:creator>
     <cc:Agent>
      <dc:title>Matplotlib v3.10.1, https://matplotlib.org/</dc:title>
     </cc:Agent>
    </dc:creator>
   </cc:Work>
  </rdf:RDF>
 </metadata>
 <defs>
  <style type="text/css">*{stroke-linejoin: round; stroke-linecap: butt}</style>
 </defs>
 <g id="figure_1">
  <g id="patch_1">
   <path d="M 0 338.4 
L 453.6 338.4 
L 453.6 0 
L 0 0 
z
" style="fill: #ffffff"/>
  </g>
  <g id="axes_1">
   <g id="patch_2">
    <path d="M 7.2 331.2 
L 446.4 331.2 
L 446.4 7.2 
L 7.2 7.2 
z
" style="fill: #ffffff"/>
   </g>
   <g id="matplotlib.axis_1"/>
   <g id="matplotlib.axis_2"/>
   <g id="line2d_1">
    <path d="M 27.163636 125.112115 
L 180.750545 244.811361 
L 181.016727 244.864654 
L 290.417455 57.397448 
L 426.436364 169.349966 
L 426.436364 169.349966 
" clip-path="url(#p4ccd7f07c4)" style="fill: none; stroke-dasharray: 11.1,4.8; stroke-dashoffset: 0; stroke: #000000; stroke-width: 3"/>
   </g>
   <g id="line2d_2">
    <path d="M 27.163636 258.195824 
L 27.696 250.20519 
L 28.760727 229.35029 
L 30.624 191.716707 
L 31.688727 174.229751 
L 32.753455 160.593913 
L 33.552 152.772275 
L 34.350545 146.729317 
L 35.149091 142.199692 
L 35.947636 138.872865 
L 36.746182 136.505735 
L 37.544727 134.842243 
L 38.343273 133.72073 
L 39.141818 132.997833 
L 39.674182 132.668495 
L 40.738909 132.290666 
L 42.069818 132.221775 
L 43.134545 132.426815 
L 43.666909 132.66163 
L 43.933091 133.447309 
L 44.199273 135.843477 
L 44.731636 144.510678 
L 45.264 158.559176 
L 45.796364 178.143887 
L 46.328727 200.432845 
L 46.594909 201.280919 
L 48.724364 196.712161 
L 49.789091 193.759652 
L 50.853818 189.938958 
L 51.918545 185.007014 
L 52.983273 178.722929 
L 54.048 170.869356 
L 55.112727 161.181767 
L 56.177455 149.365374 
L 57.242182 135.078375 
L 58.306909 120.520885 
L 58.573091 119.915088 
L 58.839273 119.735751 
L 59.105455 119.973322 
L 59.371636 120.674836 
L 59.904 123.225394 
L 60.702545 128.22393 
L 61.501091 131.726811 
L 62.299636 136.42926 
L 63.098182 142.455048 
L 64.162909 152.69947 
L 65.227636 165.317798 
L 66.824727 187.488936 
L 68.688 213.293486 
L 69.486545 221.917699 
L 70.018909 226.009322 
L 70.551273 228.315137 
L 70.817455 228.67001 
L 71.083636 228.402979 
L 71.349818 227.498568 
L 71.616 225.811559 
L 71.882182 223.119699 
L 72.680727 211.37167 
L 73.213091 206.744362 
L 73.745455 204.500055 
L 74.011636 204.08822 
L 74.277818 204.066284 
L 74.544 204.367725 
L 75.076364 205.635806 
L 75.874909 207.920009 
L 76.141091 208.434575 
L 76.407273 208.670654 
L 76.673455 208.526421 
L 77.472 206.824103 
L 78.270545 205.443503 
L 79.069091 203.599392 
L 79.867636 201.293164 
L 80.932364 197.422049 
L 81.997091 192.597259 
L 83.328 185.102125 
L 84.392727 177.91843 
L 85.723636 167.347409 
L 87.054545 154.954573 
L 88.651636 137.411867 
L 89.982545 120.589126 
L 91.579636 97.451358 
L 92.378182 84.701761 
L 92.644364 86.205035 
L 93.709091 103.761417 
L 94.507636 134.543874 
L 95.306182 158.729103 
L 96.104727 177.097639 
L 96.903273 190.625514 
L 97.701818 199.897309 
L 98.234182 204.074965 
L 98.766545 206.85516 
L 99.298909 208.38432 
L 99.565091 208.708453 
L 99.831273 208.779696 
L 100.097455 208.615615 
L 100.363636 208.233652 
L 100.896 206.88526 
L 101.428364 204.864418 
L 102.226909 200.883998 
L 104.888727 186.11837 
L 105.421091 184.304174 
L 105.953455 183.44634 
L 106.219636 183.432602 
L 106.485818 183.791092 
L 106.752 184.530422 
L 107.018182 185.672853 
L 107.284364 187.878334 
L 108.881455 223.181541 
L 109.413818 230.508504 
L 109.946182 235.374709 
L 110.212364 236.897014 
L 110.478545 237.678909 
L 110.744727 238.023477 
L 111.010909 238.13812 
L 111.277091 238.014076 
L 111.543273 237.644613 
L 112.075636 236.151741 
L 112.608 233.632319 
L 113.140364 230.059748 
L 113.938909 222.887025 
L 115.003636 210.208321 
L 116.334545 190.641227 
L 119.528727 141.178988 
L 120.593455 128.65915 
L 122.190545 111.97089 
L 123.255273 102.608584 
L 124.32 95.206647 
L 125.118545 91.102586 
L 125.917091 88.295232 
L 126.449455 87.128407 
L 126.981818 86.49143 
L 127.248 86.344695 
L 127.514182 86.420784 
L 127.780364 86.748665 
L 128.312727 88.044423 
L 128.845091 90.153915 
L 129.643636 94.729239 
L 130.442182 100.768423 
L 131.506909 110.794058 
L 132.837818 125.969037 
L 134.168727 143.747945 
L 135.499636 162.546347 
L 136.298182 167.505907 
L 137.096727 171.139828 
L 137.895273 173.776228 
L 138.693818 175.527625 
L 139.226182 176.235722 
L 139.758545 176.601173 
L 140.290909 176.631432 
L 140.823273 176.35808 
L 141.355636 175.755883 
L 141.888 174.870923 
L 142.686545 173.031517 
L 143.485091 170.637736 
L 144.017455 167.979207 
L 145.082182 162.392027 
L 145.614545 160.304515 
L 146.146909 159.043992 
L 146.413091 158.794833 
L 146.679273 158.866832 
L 146.945455 159.244643 
L 147.211636 160.021929 
L 147.744 162.751527 
L 148.276364 167.292949 
L 148.808727 173.878564 
L 149.341091 182.737285 
L 150.139636 199.397648 
L 150.938182 187.810979 
L 151.736727 179.237284 
L 152.535273 173.40062 
L 153.067636 170.872323 
L 153.6 169.341205 
L 153.866182 168.911937 
L 154.132364 168.726507 
L 154.398545 168.728298 
L 154.664727 168.949156 
L 155.197091 169.931535 
L 155.729455 171.597099 
L 156.528 175.208706 
L 157.326545 179.93691 
L 158.391273 187.528788 
L 160.786909 205.60869 
L 161.585455 209.886163 
L 162.117818 215.508456 
L 162.916364 222.990976 
L 163.448727 226.346938 
L 163.981091 228.523056 
L 164.513455 229.61941 
L 164.779636 229.79219 
L 165.045818 229.729584 
L 165.312 229.442364 
L 165.844364 228.235177 
L 166.376727 226.249167 
L 167.175273 221.96949 
L 167.973818 216.295214 
L 169.038545 206.959962 
L 170.369455 193.066126 
L 172.232727 170.808164 
L 177.822545 101.565443 
L 179.153455 87.949883 
L 179.952 80.956568 
L 180.218182 81.334941 
L 181.282909 103.994758 
L 182.081455 117.056663 
L 182.88 126.916075 
L 183.678545 133.773083 
L 184.210909 136.797468 
L 184.743273 138.682836 
L 185.275636 139.52466 
L 185.541818 139.586669 
L 185.808 139.427925 
L 186.074182 139.063158 
L 186.606545 137.777459 
L 187.138909 135.84992 
L 187.937455 132.082729 
L 190.333091 119.977097 
L 190.865455 118.42456 
L 191.131636 117.963866 
L 191.397818 117.762127 
L 191.664 117.880614 
L 191.930182 118.317204 
L 192.196364 119.103163 
L 192.728727 121.957849 
L 193.261091 126.692584 
L 193.527273 129.924765 
L 194.059636 142.186771 
L 194.325818 150.299737 
L 194.592 154.761823 
L 196.455273 164.856893 
L 197.786182 170.968426 
L 198.850909 174.883775 
L 199.649455 177.120119 
L 200.448 178.656057 
L 200.980364 179.252575 
L 201.512727 179.473723 
L 202.045091 179.301197 
L 202.577455 178.698323 
L 203.109818 177.653137 
L 203.642182 176.124951 
L 203.908364 177.690128 
L 205.771636 193.47402 
L 206.570182 198.40147 
L 207.102545 200.417053 
L 207.368727 200.949132 
L 207.634909 201.1253 
L 207.901091 200.913843 
L 208.167273 200.250866 
L 208.433455 199.131328 
L 208.965818 195.393439 
L 209.498182 189.379369 
L 210.296727 177.399062 
L 211.361455 169.836073 
L 212.692364 158.80693 
L 214.023273 145.905366 
L 215.354182 130.892853 
L 216.685091 113.429799 
L 218.016 93.031653 
L 219.080727 75.490333 
L 219.346909 73.051099 
L 219.613091 72.741284 
L 220.411636 72.965267 
L 221.210182 72.977802 
L 222.008727 72.771832 
L 222.807273 72.33993 
L 223.605818 71.674775 
L 224.404364 70.769661 
L 225.469091 69.175569 
L 226.533818 67.129472 
L 229.195636 61.027367 
L 231.058909 55.738468 
L 234.519273 45.743873 
L 235.850182 42.518714 
L 237.181091 39.886747 
L 238.245818 38.24341 
L 239.310545 37.005868 
L 240.375273 36.132373 
L 241.44 35.561179 
L 242.504727 35.239127 
L 243.303273 35.130647 
L 243.569455 35.474153 
L 244.368 64.914836 
L 245.166545 84.939403 
L 245.965091 98.343778 
L 246.763636 107.270373 
L 247.562182 113.197547 
L 248.360727 117.098447 
L 249.159273 119.743089 
L 249.957818 121.578967 
L 250.756364 122.916966 
L 251.821091 124.235021 
L 253.152 125.477918 
L 254.749091 126.672815 
L 257.943273 128.670983 
L 260.072727 130.114285 
L 261.403636 131.782938 
L 262.468364 133.437758 
L 263.266909 134.954164 
L 264.065455 136.784213 
L 264.864 139.019092 
L 265.662545 141.795476 
L 266.727273 146.629931 
L 267.525818 151.422514 
L 268.324364 157.468755 
L 269.122909 165.222151 
L 269.921455 175.196698 
L 270.72 188.055547 
L 271.518545 204.636819 
L 272.317091 225.935989 
L 273.115636 253.401288 
L 273.381818 264.218658 
L 273.648 269.375244 
L 276.842182 249.073082 
L 277.640727 248.863148 
L 278.439273 248.412097 
L 279.237818 247.738274 
L 280.302545 246.520553 
L 281.367273 244.967533 
L 282.698182 242.586002 
L 284.029091 239.730509 
L 285.626182 235.655741 
L 287.223273 230.841301 
L 288.820364 225.265085 
L 290.683636 217.900305 
L 293.345455 206.464339 
L 294.144 191.910221 
L 294.942545 173.888483 
L 295.741091 151.840423 
L 296.805818 114.984285 
L 297.604364 80.855848 
L 297.870545 90.200141 
L 298.669091 128.788733 
L 299.467636 155.477382 
L 300 167.262524 
L 300.532364 174.620167 
L 300.798545 176.702649 
L 301.064727 177.868149 
L 301.330909 178.043123 
L 301.597091 177.356945 
L 301.863273 175.849659 
L 302.395636 170.453264 
L 302.928 162.278859 
L 303.726545 145.736562 
L 304.791273 117.964744 
L 307.453091 44.683789 
L 307.719273 40.983137 
L 308.517818 96.160409 
L 309.316364 142.39548 
L 309.848727 165.452894 
L 310.114909 172.238131 
L 311.179636 186.516028 
L 311.978182 194.992173 
L 312.510545 199.189747 
L 313.042909 202.065544 
L 313.575273 203.535707 
L 313.841455 203.701921 
L 314.107636 203.512603 
L 314.373818 202.97244 
L 314.906182 200.87062 
L 315.438545 197.409444 
L 316.237091 190.050309 
L 317.301818 176.966125 
L 319.165091 149.551225 
L 320.762182 126.895956 
L 321.294545 121.187637 
L 321.826909 122.188942 
L 322.625455 124.361321 
L 324.222545 129.892198 
L 325.553455 134.107196 
L 326.352 135.883207 
L 326.618182 136.305014 
L 327.416727 147.04303 
L 328.481455 164.489142 
L 329.812364 190.208544 
L 331.675636 231.120516 
L 334.869818 306.994969 
L 335.136 307.156596 
L 336.200727 261.599108 
L 336.999273 234.962961 
L 337.797818 214.434889 
L 338.596364 199.383112 
L 339.394909 189.152007 
L 339.927273 184.701148 
L 340.459636 182.010069 
L 340.725818 181.23395 
L 340.992 180.869061 
L 341.258182 180.83379 
L 341.524364 181.13208 
L 342.056727 182.686609 
L 342.589091 185.375652 
L 343.387636 191.232654 
L 344.718545 203.73469 
L 346.848 223.909793 
L 348.178909 234.559992 
L 348.445091 235.533189 
L 348.977455 234.405558 
L 349.776 232.0803 
L 351.106909 227.267913 
L 354.833455 213.439238 
L 356.696727 207.678628 
L 358.826182 201.875401 
L 359.890909 199.061059 
L 361.221818 180.938619 
L 362.818909 155.774504 
L 366.013091 104.594304 
L 367.077818 90.772563 
L 367.876364 82.399817 
L 368.674909 76.142356 
L 369.207273 73.250029 
L 369.739636 71.442856 
L 370.005818 70.959076 
L 370.272 70.76004 
L 370.538182 70.847839 
L 370.804364 71.22328 
L 371.070545 70.953493 
L 371.602909 69.485261 
L 371.869091 69.284874 
L 372.135273 69.409524 
L 372.401455 69.827995 
L 372.933818 71.42451 
L 373.466182 73.840903 
L 374.264727 78.535926 
L 375.861818 89.780634 
L 376.394182 93.541153 
L 376.926545 100.609644 
L 379.056 132.816406 
L 379.854545 142.226852 
L 380.653091 148.912739 
L 381.185455 151.442949 
L 381.451636 152.083069 
L 381.717818 152.275117 
L 381.984 151.947622 
L 382.250182 151.096388 
L 382.782545 147.801567 
L 383.314909 142.183576 
L 383.847273 133.964481 
L 384.645818 116.565403 
L 385.444364 92.198519 
L 386.242909 60.417585 
L 387.307636 100.26454 
L 388.372364 130.695678 
L 389.170909 148.041737 
L 389.969455 161.263369 
L 390.768 171.001564 
L 391.566545 177.71037 
L 392.098909 180.840891 
L 392.631273 183.05415 
L 393.163636 184.582468 
L 396.357818 186.556452 
L 397.422545 187.239057 
L 398.221091 187.992897 
L 398.753455 188.702935 
L 399.552 190.223326 
L 400.350545 192.521583 
L 401.149091 195.776087 
L 401.947636 200.281721 
L 402.746182 206.130744 
L 403.544727 213.564941 
L 405.141818 230.856092 
L 405.940364 234.12055 
L 406.738909 236.571661 
L 407.537455 238.334908 
L 408.336 239.54249 
L 409.134545 240.326755 
L 409.933091 240.733209 
L 413.925818 241.102804 
L 414.990545 240.786335 
L 415.789091 240.301351 
L 416.587636 239.585283 
L 417.652364 238.264367 
L 418.983273 236.139443 
L 420.846545 233.029138 
L 421.645091 232.081853 
L 422.177455 231.752006 
L 422.709818 231.755509 
L 423.242182 232.182495 
L 423.774545 233.159853 
L 424.306909 234.790164 
L 424.839273 237.212737 
L 425.371636 240.557243 
L 425.904 245.005644 
L 426.436364 250.687281 
L 426.436364 250.687281 
" clip-path="url(#p4ccd7f07c4)" style="fill: none; stroke: #0000ff; stroke-width: 3; stroke-linecap: square"/>
   </g>
   <g id="patch_3">
    <path d="M 7.2 331.2 
L 7.2 7.2 
" style="fill: none; stroke: #000000; stroke-width: 0.8; stroke-linejoin: miter; stroke-linecap: square"/>
   </g>
   <g id="patch_4">
    <path d="M 446.4 331.2 
L 446.4 7.2 
" style="fill: none; stroke: #000000; stroke-width: 0.8; stroke-linejoin: miter; stroke-linecap: square"/>
   </g>
   <g id="patch_5">
    <path d="M 7.2 331.2 
L 446.4 331.2 
" style="fill: none; stroke: #000000; stroke-width: 0.8; stroke-linejoin: miter; stroke-linecap: square"/>
   </g>
   <g id="patch_6">
    <path d="M 7.2 7.2 
L 446.4 7.2 
" style="fill: none; stroke: #000000; stroke-width: 0.8; stroke-linejoin: miter; stroke-linecap: square"/>
   </g>
  </g>
 </g>
 <defs>
  <clipPath id="p4ccd7f07c4">
   <rect x="7.2" y="7.2" width="439.2" height="324"/>
  </clipPath>
 </defs>
</svg>
