<?xml version="1.0" encoding="utf-8" standalone="no"?>
<!DOCTYPE svg PUBLIC "-//W3C//DTD SVG 1.1//EN"
  "http://www.w3.org/Graphics/SVG/1.1/DTD/svg11.dtd">
<svg xmlns:xlink="http://www.w3.org/1999/xlink" width="453.6pt" height="338.4pt" viewBox="0 0 453.6 338.4" xmlns="http://www.w3.org/2000/svg" version="1.1">
 <metadata>
  <rdf:RDF xmlns:dc="http://purl.org/dc/elements/1.1/" xmlns:cc="http://creativecommons.org/ns#" xmlns:rdf="http://www.w3.org/1999/02/22-rdf-syntax-ns#">
   <cc:Work>
    <dc:type rdf:resource="http://purl.org/dc/dcmitype/StillImage"/>
    <dc:date>2025-05-14T16:25:36.609645</dc:date>
    <dc:format>image/svg+xml</dc:format>
    <dc:creator>
     <cc:Agent>
      <dc:title>Matplotlib v3.10.1, https://matplotlib.org/</dc:title>
     </cc:Agent>
    </dc:creator>
   </cc:Work>
  </rdf:RDF>
 </metadata>
 <defs>
  <style type="text/css">*{stroke-linejoin: round; stroke-linecap: butt}</style>
 </defs>
 <g id="figure_1">
  <g id="patch_1">
   <path d="M 0 338.4 
L 453.6 338.4 
L 453.6 0 
L 0 0 
z
" style="fill: #ffffff"/>
  </g>
  <g id="axes_1">
   <g id="patch_2">
    <path d="M 7.2 331.2 
L 446.4 331.2 
L 446.4 7.2 
L 7.2 7.2 
z
" style="fill: #ffffff"/>
   </g>
   <g id="matplotlib.axis_1"/>
   <g id="matplotlib.axis_2"/>
   <g id="line2d_1">
    <path d="M 27.163636 298.401349 
L 83.594182 228.735188 
L 165.045818 59.24321 
L 168.506182 65.868686 
L 250.490182 223.275116 
L 250.756364 223.075097 
L 307.719273 125.648336 
L 344.984727 93.212236 
L 345.250909 93.412764 
L 426.436364 311.244205 
L 426.436364 311.244205 
" clip-path="url(#p5262ba62ed)" style="fill: none; stroke-dasharray: 11.1,4.8; stroke-dashoffset: 0; stroke: #000000; stroke-width: 3"/>
   </g>
   <g id="line2d_2">
    <path d="M 27.163636 256.602214 
L 27.429818 259.708038 
L 27.696 260.540579 
L 27.962182 260.845571 
L 28.228364 262.1498 
L 28.760727 262.546998 
L 29.026909 262.391173 
L 29.293091 262.843238 
L 30.091636 262.385752 
L 30.357818 263.077667 
L 31.156364 262.120832 
L 31.422545 262.308878 
L 32.221091 261.497172 
L 32.487273 261.367084 
L 34.084364 258.853649 
L 34.882909 258.074936 
L 35.415273 257.797968 
L 35.681455 258.192291 
L 36.48 257.861732 
L 36.746182 257.913062 
L 39.940364 255.702925 
L 41.271273 254.667903 
L 42.868364 253.46115 
L 43.666909 252.981956 
L 43.933091 252.802597 
L 44.199273 252.199894 
L 46.062545 250.823491 
L 46.861091 250.193155 
L 49.789091 247.553327 
L 52.450909 245.019715 
L 52.983273 244.585131 
L 58.040727 240.030941 
L 59.904 238.619864 
L 60.702545 237.807754 
L 60.968727 237.373895 
L 61.234909 235.847262 
L 64.162909 232.727477 
L 64.695273 232.019336 
L 66.026182 230.649753 
L 67.357091 229.731472 
L 68.688 228.960602 
L 69.486545 228.564541 
L 69.752727 228.222905 
L 72.680727 226.745842 
L 73.745455 226.18829 
L 76.141091 225.108764 
L 78.004364 224.116123 
L 78.270545 224.583181 
L 79.601455 223.592726 
L 80.666182 222.605353 
L 81.464727 221.700958 
L 82.263273 220.75284 
L 83.061818 219.552939 
L 84.126545 217.679202 
L 85.989818 213.614959 
L 86.522182 212.822609 
L 86.788364 212.904052 
L 88.651636 210.376422 
L 89.184 209.683932 
L 90.248727 208.508338 
L 91.047273 207.513968 
L 92.112 205.810939 
L 96.903273 197.441343 
L 98.234182 194.137393 
L 101.960727 183.728487 
L 107.816727 165.469168 
L 108.082909 164.424201 
L 108.615273 161.809053 
L 109.147636 160.314347 
L 110.478545 157.539823 
L 112.075636 153.98192 
L 112.341818 152.356631 
L 113.406545 150.633816 
L 114.471273 149.260248 
L 115.269818 148.579696 
L 116.334545 148.066473 
L 118.197818 147.424475 
L 120.593455 146.677631 
L 120.859636 146.287566 
L 121.658182 145.708894 
L 125.118545 141.57123 
L 127.780364 138.64818 
L 129.111273 137.502844 
L 129.377455 136.279329 
L 130.708364 134.841944 
L 132.039273 133.017285 
L 132.837818 131.587028 
L 133.370182 130.341954 
L 136.032 121.807321 
L 136.298182 120.608947 
L 136.830545 117.401942 
L 137.895273 114.158122 
L 139.226182 111.277207 
L 140.024727 109.994405 
L 141.089455 108.832021 
L 144.549818 106.075212 
L 146.146909 104.563107 
L 146.413091 103.867615 
L 147.477818 102.239727 
L 148.542545 100.558836 
L 150.672 97.754783 
L 153.333818 93.070206 
L 153.866182 91.858086 
L 154.930909 88.598956 
L 157.326545 80.044361 
L 158.125091 77.101227 
L 159.988364 71.648142 
L 162.384 65.118243 
L 163.448727 63.027711 
L 164.247273 62.092541 
L 165.045818 61.590519 
L 165.312 61.618627 
L 165.844364 62.028408 
L 166.376727 62.696389 
L 167.707636 65.11833 
L 168.506182 66.809439 
L 169.570909 69.036751 
L 170.901818 71.501688 
L 171.966545 73.070288 
L 177.556364 80.943102 
L 180.218182 84.369631 
L 183.412364 91.531504 
L 186.074182 96.586816 
L 186.606545 97.320054 
L 187.671273 98.289775 
L 190.333091 100.689086 
L 191.131636 100.90717 
L 192.196364 100.946689 
L 192.994909 100.970935 
L 194.592 101.739039 
L 195.124364 102.157932 
L 195.922909 103.146087 
L 196.455273 103.872092 
L 196.987636 104.263562 
L 197.253818 104.382049 
L 197.52 104.630909 
L 198.318545 104.968973 
L 199.915636 105.841731 
L 200.980364 106.416576 
L 202.045091 107.135084 
L 203.376 108.4379 
L 205.239273 110.468968 
L 206.037818 111.831353 
L 207.368727 114.5991 
L 208.433455 116.685909 
L 210.562909 120.331049 
L 212.692364 124.874315 
L 214.289455 127.809409 
L 216.951273 133.831738 
L 220.411636 141.114468 
L 222.274909 144.515716 
L 223.339636 147.292909 
L 226.001455 155.800997 
L 227.598545 161.121865 
L 228.663273 165.010388 
L 229.461818 167.418143 
L 231.058909 171.834477 
L 231.857455 174.386879 
L 232.389818 176.732784 
L 234.253091 186.053245 
L 235.850182 191.819121 
L 237.181091 196.112518 
L 237.979636 198.008596 
L 239.044364 199.847475 
L 241.706182 203.044552 
L 242.238545 203.414779 
L 242.770909 203.634048 
L 244.101818 204.669377 
L 244.900364 206.018612 
L 246.231273 209.903518 
L 246.763636 211.282827 
L 247.562182 212.767262 
L 249.425455 215.201783 
L 250.490182 216.305871 
L 251.022545 216.523665 
L 251.821091 216.617038 
L 252.353455 216.540756 
L 254.482909 216.821305 
L 255.015273 216.884736 
L 256.08 216.413736 
L 256.878545 215.789321 
L 258.209455 214.486768 
L 258.741818 213.82415 
L 259.540364 212.372694 
L 261.669818 207.924328 
L 262.468364 206.796258 
L 263.799273 205.338622 
L 266.461091 201.143058 
L 266.993455 199.27902 
L 268.058182 195.04701 
L 268.590545 193.820563 
L 269.389091 192.621856 
L 270.453818 191.483937 
L 272.050909 190.035491 
L 273.648 188.902857 
L 275.777455 187.841808 
L 276.576 187.087318 
L 277.906909 185.102283 
L 280.568727 180.514959 
L 281.899636 177.102361 
L 283.496727 171.55614 
L 284.295273 169.298631 
L 285.36 166.310816 
L 286.424727 164.175148 
L 287.223273 163.25088 
L 287.755636 162.847823 
L 288.288 162.408056 
L 288.820364 161.626117 
L 289.618909 159.835324 
L 290.151273 158.393321 
L 290.417455 158.879033 
L 290.949818 156.86115 
L 291.482182 154.023704 
L 292.014545 149.895328 
L 292.813091 143.651754 
L 293.877818 137.388201 
L 294.676364 133.99064 
L 297.072 124.626403 
L 298.136727 121.099996 
L 298.669091 119.74488 
L 298.935273 119.569809 
L 299.733818 118.069941 
L 300.532364 116.532959 
L 301.597091 114.008841 
L 304.791273 105.088408 
L 306.122182 102.294028 
L 307.453091 100.521353 
L 307.985455 100.616983 
L 308.517818 101.050851 
L 309.316364 101.943746 
L 310.381091 103.559801 
L 310.913455 104.41207 
L 311.712 105.548277 
L 313.841455 107.577063 
L 315.172364 108.232123 
L 315.704727 108.338145 
L 317.035636 108.459477 
L 318.366545 108.909883 
L 319.431273 109.735151 
L 320.496 110.443916 
L 321.294545 110.792917 
L 323.157818 111.843397 
L 323.690182 112.190045 
L 324.222545 112.291802 
L 324.488727 111.407825 
L 324.754909 111.819573 
L 325.553455 112.344067 
L 326.618182 112.945457 
L 327.949091 113.208467 
L 328.747636 112.843683 
L 330.078545 111.481211 
L 333.538909 107.652415 
L 335.402182 105.109476 
L 338.064 101.716111 
L 339.661091 100.250583 
L 340.992 99.291097 
L 341.790545 98.75693 
L 342.322909 98.889656 
L 342.855273 99.156564 
L 343.92 100.124037 
L 344.984727 101.560176 
L 346.049455 103.611364 
L 346.848 105.755652 
L 347.646545 108.418027 
L 348.445091 111.647995 
L 349.243636 116.145791 
L 349.776 119.248968 
L 350.042182 119.843529 
L 351.106909 124.47814 
L 352.437818 129.151481 
L 354.034909 133.484932 
L 356.696727 139.514302 
L 358.027636 143.091375 
L 358.293818 143.886043 
L 359.092364 147.6621 
L 361.221818 158.456752 
L 362.286545 161.954805 
L 363.617455 165.167253 
L 364.682182 167.180695 
L 365.746909 170.623375 
L 366.545455 171.922443 
L 368.408727 174.295042 
L 369.207273 175.863854 
L 369.739636 177.251528 
L 370.538182 180.072796 
L 372.667636 189.188252 
L 373.998545 194.21608 
L 375.063273 197.199848 
L 375.329455 197.845559 
L 375.595636 197.404168 
L 377.725091 202.812941 
L 379.056 206.834628 
L 380.919273 212.040801 
L 383.048727 217.313575 
L 383.847273 219.679186 
L 384.113455 221.528644 
L 384.912 223.881343 
L 386.242909 228.048545 
L 388.106182 233.224521 
L 388.638545 234.863575 
L 389.969455 238.131738 
L 391.566545 241.642335 
L 392.365091 243.71251 
L 392.631273 241.211653 
L 393.962182 243.772899 
L 395.293091 246.426815 
L 399.818182 254.573301 
L 400.616727 255.549755 
L 400.882909 255.838244 
L 401.415273 256.584491 
L 402.48 257.875474 
L 403.810909 260.058053 
L 405.141818 262.432105 
L 405.408 262.481373 
L 406.206545 264.051321 
L 406.738909 265.318937 
L 407.803636 267.245909 
L 408.868364 268.58109 
L 409.400727 268.992539 
L 409.666909 270.947418 
L 410.731636 272.756228 
L 411.264 274.17039 
L 411.796364 274.704386 
L 413.127273 275.09321 
L 414.990545 275.205829 
L 416.055273 275.647795 
L 417.12 276.040827 
L 417.918545 275.884414 
L 418.184727 276.180509 
L 420.048 276.786477 
L 421.112727 277.328927 
L 421.645091 277.197641 
L 422.177455 276.879776 
L 422.443636 276.492493 
L 423.242182 276.359983 
L 423.508364 276.047068 
L 424.306909 275.793819 
L 424.839273 275.338976 
L 425.371636 274.85929 
L 425.904 273.272176 
L 426.170182 271.434661 
L 426.436364 265.748034 
L 426.436364 265.748034 
" clip-path="url(#p5262ba62ed)" style="fill: none; stroke: #0000ff; stroke-width: 3; stroke-linecap: square"/>
   </g>
   <g id="patch_3">
    <path d="M 7.2 331.2 
L 7.2 7.2 
" style="fill: none; stroke: #000000; stroke-width: 0.8; stroke-linejoin: miter; stroke-linecap: square"/>
   </g>
   <g id="patch_4">
    <path d="M 446.4 331.2 
L 446.4 7.2 
" style="fill: none; stroke: #000000; stroke-width: 0.8; stroke-linejoin: miter; stroke-linecap: square"/>
   </g>
   <g id="patch_5">
    <path d="M 7.2 331.2 
L 446.4 331.2 
" style="fill: none; stroke: #000000; stroke-width: 0.8; stroke-linejoin: miter; stroke-linecap: square"/>
   </g>
   <g id="patch_6">
    <path d="M 7.2 7.2 
L 446.4 7.2 
" style="fill: none; stroke: #000000; stroke-width: 0.8; stroke-linejoin: miter; stroke-linecap: square"/>
   </g>
  </g>
 </g>
 <defs>
  <clipPath id="p5262ba62ed">
   <rect x="7.2" y="7.2" width="439.2" height="324"/>
  </clipPath>
 </defs>
</svg>
