<?xml version="1.0" encoding="utf-8" standalone="no"?>
<!DOCTYPE svg PUBLIC "-//W3C//DTD SVG 1.1//EN"
  "http://www.w3.org/Graphics/SVG/1.1/DTD/svg11.dtd">
<svg xmlns:xlink="http://www.w3.org/1999/xlink" width="453.6pt" height="338.4pt" viewBox="0 0 453.6 338.4" xmlns="http://www.w3.org/2000/svg" version="1.1">
 <metadata>
  <rdf:RDF xmlns:dc="http://purl.org/dc/elements/1.1/" xmlns:cc="http://creativecommons.org/ns#" xmlns:rdf="http://www.w3.org/1999/02/22-rdf-syntax-ns#">
   <cc:Work>
    <dc:type rdf:resource="http://purl.org/dc/dcmitype/StillImage"/>
    <dc:date>2025-05-14T16:22:57.705768</dc:date>
    <dc:format>image/svg+xml</dc:format>
    <dc:creator>
     <cc:Agent>
      <dc:title>Matplotlib v3.10.1, https://matplotlib.org/</dc:title>
     </cc:Agent>
    </dc:creator>
   </cc:Work>
  </rdf:RDF>
 </metadata>
 <defs>
  <style type="text/css">*{stroke-linejoin: round; stroke-linecap: butt}</style>
 </defs>
 <g id="figure_1">
  <g id="patch_1">
   <path d="M 0 338.4 
L 453.6 338.4 
L 453.6 0 
L 0 0 
z
" style="fill: #ffffff"/>
  </g>
  <g id="axes_1">
   <g id="patch_2">
    <path d="M 7.2 331.2 
L 446.4 331.2 
L 446.4 7.2 
L 7.2 7.2 
z
" style="fill: #ffffff"/>
   </g>
   <g id="matplotlib.axis_1"/>
   <g id="matplotlib.axis_2"/>
   <g id="line2d_1">
    <path d="M 27.163636 268.569512 
L 29.559273 233.662735 
L 31.954909 202.026499 
L 34.084364 176.651024 
L 36.213818 153.859711 
L 38.077091 136.03707 
L 39.940364 120.192934 
L 41.803636 106.327249 
L 43.400727 96.017097 
L 44.997818 87.160535 
L 46.328727 80.890416 
L 47.659636 75.629713 
L 48.990545 71.37846 
L 50.055273 68.704253 
L 51.12 66.676046 
L 51.918545 65.578849 
L 52.717091 64.845067 
L 53.515636 64.474682 
L 54.048 64.429633 
L 54.580364 64.546101 
L 55.378909 65.023614 
L 56.177455 65.864525 
L 56.976 67.068833 
L 57.774545 68.636538 
L 58.306909 69.883561 
L 58.573091 71.210025 
L 61.234909 90.491874 
L 63.896727 108.191357 
L 66.292364 122.768036 
L 68.688 136.063001 
L 71.083636 148.07627 
L 73.213091 157.678763 
L 75.342545 166.268558 
L 77.205818 172.953953 
L 79.069091 178.863941 
L 80.932364 183.998599 
L 82.529455 187.782652 
L 84.126545 190.997075 
L 85.457455 193.240583 
L 86.788364 195.08853 
L 88.119273 196.540882 
L 89.184 197.417959 
L 90.248727 198.041865 
L 91.313455 198.412592 
L 92.378182 198.53014 
L 93.442909 198.394526 
L 94.507636 198.005725 
L 95.572364 197.36378 
L 96.637091 196.468638 
L 97.701818 195.320326 
L 99.032727 193.528918 
L 100.363636 191.341924 
L 101.694545 188.759352 
L 103.291636 185.138098 
L 104.888727 180.947186 
L 106.752 175.337868 
L 108.615273 168.953194 
L 110.478545 161.793165 
L 112.608 152.660881 
L 114.737455 142.515916 
L 117.133091 129.892356 
L 119.794909 114.972013 
L 122.456727 119.109764 
L 125.118545 122.811733 
L 127.514182 125.770914 
L 129.909818 128.377091 
L 132.305455 130.630316 
L 134.434909 132.336804 
L 136.564364 133.764393 
L 138.693818 134.913082 
L 140.823273 135.782855 
L 142.686545 136.315162 
L 144.549818 136.633896 
L 146.413091 136.739093 
L 148.276364 136.630788 
L 150.139636 136.308912 
L 152.002909 135.773515 
L 153.866182 135.024565 
L 155.995636 133.907143 
L 158.125091 132.510857 
L 160.254545 130.835619 
L 162.384 128.881518 
L 164.513455 126.6485 
L 166.909091 123.802961 
L 169.304727 120.604435 
L 171.700364 117.052941 
L 174.362182 112.692804 
L 177.024 107.896886 
L 179.685818 102.665186 
L 180.750545 100.626375 
L 182.347636 98.630437 
L 183.944727 96.95764 
L 185.541818 95.607966 
L 187.138909 94.581433 
L 188.469818 93.972845 
L 189.800727 93.588555 
L 191.131636 93.428723 
L 192.462545 93.493295 
L 193.793455 93.782236 
L 195.124364 94.295546 
L 196.455273 95.033314 
L 197.786182 95.995398 
L 199.383273 97.446143 
L 200.980364 99.220012 
L 202.577455 101.316969 
L 204.440727 104.171848 
L 206.304 107.466511 
L 208.167273 111.20103 
L 210.296727 116.007552 
L 212.426182 121.388516 
L 214.555636 127.343939 
L 216.951273 134.730444 
L 219.346909 142.843937 
L 222.008727 152.711654 
L 224.670545 163.476899 
L 227.332364 175.139798 
L 230.260364 189.005491 
L 233.188364 203.957487 
L 236.382545 221.507295 
L 239.576727 240.349464 
L 242.770909 260.484083 
L 244.634182 272.826304 
L 245.166545 268.712192 
L 247.828364 245.818087 
L 250.224 227.085442 
L 252.619636 210.126816 
L 254.749091 196.541207 
L 256.878545 184.357036 
L 258.741818 174.845511 
L 260.605091 166.40706 
L 262.468364 159.041534 
L 264.065455 153.582076 
L 265.662545 148.911053 
L 266.993455 145.620673 
L 268.324364 142.877698 
L 269.655273 140.682198 
L 270.72 139.319883 
L 271.784727 138.307957 
L 272.849455 137.646384 
L 273.648 137.380143 
L 274.446545 137.310954 
L 275.245091 137.438834 
L 276.043636 137.7638 
L 276.842182 138.285819 
L 277.906909 139.288458 
L 278.971636 140.641415 
L 280.036364 142.344725 
L 281.367273 144.966579 
L 282.698182 148.135821 
L 284.029091 151.85252 
L 285.626182 157.03515 
L 287.223273 163.006075 
L 289.086545 170.968532 
L 290.949818 180.00394 
L 292.813091 190.112177 
L 294.942545 202.978453 
L 297.072 217.245992 
L 297.604364 221.031915 
L 299.733818 215.58472 
L 301.597091 211.385671 
L 303.460364 207.72057 
L 305.323636 204.589434 
L 306.920727 202.330538 
L 308.517818 200.463911 
L 309.848727 199.208049 
L 311.179636 198.224599 
L 312.510545 197.513552 
L 313.841455 197.074926 
L 315.172364 196.908704 
L 316.503273 197.014902 
L 317.834182 197.39352 
L 319.165091 198.044533 
L 320.496 198.967967 
L 321.826909 200.163804 
L 323.157818 201.632071 
L 324.754909 203.753519 
L 325.287273 204.54787 
L 329.013818 214.460495 
L 330.344727 217.117787 
L 331.675636 219.288708 
L 332.740364 220.675259 
L 333.805091 221.750546 
L 334.869818 222.514569 
L 335.934545 222.967319 
L 336.733091 223.102625 
L 337.531636 223.062834 
L 338.330182 222.847963 
L 339.394909 222.289103 
L 340.459636 221.418978 
L 341.524364 220.237564 
L 342.589091 218.744903 
L 343.92 216.441361 
L 345.250909 213.651467 
L 346.581818 210.375211 
L 348.178909 205.801713 
L 349.776 200.52793 
L 351.639273 193.489935 
L 353.502545 185.498651 
L 355.365818 176.554123 
L 357.495273 165.164672 
L 358.826182 157.885769 
L 364.948364 143.167201 
L 371.070545 129.023495 
L 377.192727 115.45474 
L 383.048727 103.013818 
L 388.904727 91.098864 
L 394.494545 80.216185 
L 400.084364 69.812756 
L 405.674182 59.888579 
L 410.997818 50.882542 
L 416.321455 42.311199 
L 421.378909 34.57104 
L 426.436364 27.223212 
L 426.436364 27.223212 
" clip-path="url(#p5610fedf6b)" style="fill: none; stroke-dasharray: 11.1,4.8; stroke-dashoffset: 0; stroke: #000000; stroke-width: 3"/>
   </g>
   <g id="line2d_2">
    <path d="M 27.163636 107.989969 
L 31.156364 138.378516 
L 32.221091 144.649987 
L 33.019636 148.523007 
L 34.084364 152.407596 
L 34.882909 154.456291 
L 35.681455 155.784265 
L 36.213818 156.332302 
L 36.746182 156.63413 
L 37.278545 156.719278 
L 37.810909 156.619084 
L 38.609455 156.192045 
L 39.674182 155.280523 
L 42.868364 152.094094 
L 43.666909 151.527219 
L 43.933091 150.775284 
L 44.997818 145.652819 
L 45.530182 143.934551 
L 45.796364 143.450436 
L 46.062545 143.334161 
L 46.328727 143.562059 
L 46.594909 144.262098 
L 46.861091 145.405117 
L 47.393455 149.367148 
L 47.925818 155.810617 
L 48.458182 165.065672 
L 48.990545 177.423027 
L 49.789091 202.284172 
L 50.055273 202.009618 
L 50.853818 175.929742 
L 51.386182 164.362895 
L 51.918545 156.94944 
L 52.450909 152.940693 
L 52.717091 152.106928 
L 52.983273 151.919339 
L 53.249455 152.324678 
L 53.515636 153.315098 
L 54.048 156.736061 
L 54.846545 164.589423 
L 55.911273 178.295898 
L 58.839273 218.134497 
L 59.904 229.42975 
L 60.436364 234.08858 
L 61.234909 234.798108 
L 62.033455 235.872921 
L 62.832 237.39634 
L 63.630545 239.436301 
L 64.429091 242.036517 
L 65.493818 246.480257 
L 66.558545 252.094838 
L 67.623273 258.810772 
L 69.220364 270.485837 
L 71.083636 283.687451 
L 71.616 286.439094 
L 72.148364 288.21726 
L 72.414545 288.62987 
L 72.680727 288.648975 
L 72.946909 288.211651 
L 73.213091 287.249957 
L 74.810182 232.222857 
L 75.608727 212.925796 
L 76.141091 203.716782 
L 76.673455 197.458057 
L 76.939636 195.423258 
L 77.205818 194.417538 
L 77.738182 193.644711 
L 78.270545 193.210456 
L 78.802909 193.080584 
L 79.335273 193.288037 
L 79.867636 193.787347 
L 80.666182 195.00031 
L 81.997091 197.308039 
L 82.529455 197.853424 
L 82.795636 197.93471 
L 83.061818 197.843988 
L 83.328 197.522919 
L 83.594182 196.942113 
L 84.126545 194.838169 
L 84.658909 191.141177 
L 85.191273 185.317277 
L 85.723636 176.928335 
L 86.256 165.364375 
L 86.788364 149.917344 
L 87.586909 118.091061 
L 87.853091 120.73365 
L 88.651636 154.333889 
L 89.450182 177.682131 
L 89.982545 187.888789 
L 90.514909 194.101894 
L 90.781091 195.780037 
L 91.047273 196.626355 
L 91.313455 196.608948 
L 91.579636 195.83354 
L 91.845818 194.374631 
L 92.378182 189.547866 
L 93.176727 178.76552 
L 93.709091 170.133652 
L 95.306182 161.50245 
L 98.234182 145.398674 
L 99.032727 142.057135 
L 99.831273 139.73365 
L 100.363636 138.99065 
L 100.629818 138.899691 
L 100.896 139.01472 
L 101.162182 139.354926 
L 101.694545 140.792416 
L 102.226909 143.421258 
L 102.759273 147.414626 
L 103.025455 146.960182 
L 103.824 143.532477 
L 104.356364 141.985664 
L 104.888727 140.981796 
L 105.421091 140.469029 
L 105.953455 140.385936 
L 106.485818 140.661955 
L 107.018182 141.217822 
L 108.082909 142.809931 
L 109.147636 144.334904 
L 109.68 144.778815 
L 110.212364 144.826287 
L 110.744727 144.482447 
L 111.277091 143.830372 
L 111.809455 142.825661 
L 112.608 140.745207 
L 113.406545 137.932973 
L 114.471273 133.143322 
L 115.536 127.15226 
L 116.600727 119.954642 
L 117.665455 111.368183 
L 118.730182 101.135893 
L 119.794909 88.916689 
L 120.859636 74.001473 
L 121.924364 55.725564 
L 122.989091 32.93799 
L 123.255273 32.897348 
L 123.521455 37.291192 
L 127.514182 134.67911 
L 129.111273 159.781865 
L 130.442182 177.448676 
L 131.773091 192.254921 
L 132.837818 201.845529 
L 133.636364 207.497878 
L 134.434909 211.573883 
L 134.967273 213.234742 
L 135.233455 213.703574 
L 135.499636 213.912441 
L 135.765818 213.835562 
L 136.032 213.451527 
L 136.298182 212.741156 
L 136.830545 210.249192 
L 137.362909 206.161599 
L 137.895273 200.216017 
L 138.427636 192.094386 
L 138.96 181.503966 
L 139.758545 160.138134 
L 140.823273 127.990888 
L 142.154182 99.607268 
L 142.952727 86.65049 
L 143.485091 80.868049 
L 143.751273 79.774153 
L 145.614545 78.240717 
L 146.146909 78.138189 
L 146.679273 78.486224 
L 146.945455 78.851202 
L 147.477818 80.202895 
L 148.010182 82.476204 
L 148.542545 85.931508 
L 149.074909 90.85025 
L 149.607273 97.521864 
L 150.139636 106.309465 
L 150.938182 124.18574 
L 151.736727 148.945288 
L 152.535273 182.008375 
L 153.333818 224.8646 
L 154.132364 279.273947 
L 154.398545 279.824446 
L 155.197091 251.596367 
L 155.995636 230.879933 
L 156.528 221.277132 
L 157.060364 214.897971 
L 157.592727 211.672102 
L 157.858909 211.1912 
L 158.125091 211.423233 
L 158.391273 212.341444 
L 158.923636 216.115745 
L 159.456 222.246581 
L 160.520727 236.678359 
L 163.448727 253.848416 
L 166.642909 272.310992 
L 168.772364 283.373707 
L 170.635636 291.841615 
L 172.232727 298.066381 
L 172.498909 298.188873 
L 173.829818 286.160851 
L 175.160727 276.293739 
L 176.225455 269.909082 
L 177.024 265.550469 
L 177.556364 260.597602 
L 178.354909 250.631605 
L 179.419636 233.582239 
L 181.016727 203.12956 
L 183.146182 162.724666 
L 184.210909 146.872541 
L 185.009455 138.400777 
L 185.541818 134.784851 
L 186.074182 133.063458 
L 186.340364 132.991583 
L 186.606545 133.449644 
L 186.872727 134.460095 
L 187.405091 138.28459 
L 187.937455 144.643842 
L 188.469818 153.659991 
L 189.268364 172.460332 
L 190.066909 197.78197 
L 191.131636 236.31907 
L 192.728727 241.019798 
L 193.527273 242.773723 
L 194.858182 243.611043 
L 195.656727 243.917198 
L 196.455273 243.949708 
L 196.987636 243.771512 
L 197.52 243.38081 
L 198.052364 242.75722 
L 198.584727 241.868732 
L 199.383273 239.976999 
L 200.181818 237.344427 
L 200.980364 233.918038 
L 202.045091 228.091312 
L 203.109818 220.906581 
L 204.440727 210.348473 
L 208.167273 179.566157 
L 208.965818 174.750145 
L 209.764364 171.262582 
L 210.030545 170.453904 
L 210.296727 171.63071 
L 211.361455 192.749095 
L 212.16 204.715647 
L 212.958545 213.81366 
L 213.757091 220.385221 
L 214.555636 224.733129 
L 215.088 226.524976 
L 215.620364 227.534664 
L 215.886545 227.769567 
L 216.152727 227.846138 
L 216.418909 227.745453 
L 216.951273 227.134442 
L 217.483636 225.995988 
L 218.282182 223.523089 
L 219.346909 219.270977 
L 220.944 212.730631 
L 221.742545 210.451414 
L 222.008727 209.986445 
L 222.274909 208.774816 
L 224.404364 168.669572 
L 225.469091 154.034712 
L 226.8 138.77908 
L 228.663273 133.941342 
L 230.260364 129.185768 
L 231.857455 123.656594 
L 233.188364 118.219661 
L 234.519273 111.755791 
L 235.850182 103.914596 
L 236.914909 96.363711 
L 237.979636 87.391224 
L 239.044364 76.640726 
L 239.310545 76.93769 
L 240.907636 109.146893 
L 242.238545 132.424568 
L 243.303273 148.350745 
L 243.569455 150.232356 
L 244.900364 151.095581 
L 245.965091 152.027503 
L 247.029818 153.279213 
L 247.828364 154.487067 
L 248.893091 156.547437 
L 249.957818 159.14796 
L 251.022545 162.274312 
L 252.353455 166.872494 
L 256.346182 180.953664 
L 256.878545 182.060939 
L 257.410909 182.752656 
L 257.677091 182.904474 
L 257.943273 182.906142 
L 258.209455 182.741701 
L 258.475636 182.395236 
L 259.008 181.090691 
L 259.540364 178.860096 
L 260.072727 175.565853 
L 260.871273 165.685672 
L 261.936 148.784929 
L 263.533091 122.041048 
L 263.799273 123.439089 
L 264.864 131.048033 
L 266.194909 138.794705 
L 267.525818 145.125779 
L 268.856727 150.455444 
L 270.453818 155.992448 
L 275.245091 171.808635 
L 277.108364 178.90231 
L 278.439273 182.458913 
L 279.770182 186.68693 
L 281.367273 192.541176 
L 283.230545 200.291149 
L 285.626182 211.249487 
L 289.352727 228.499223 
L 290.949818 234.890805 
L 292.280727 239.221605 
L 293.345455 241.817424 
L 294.144 255.500962 
L 294.676364 247.324924 
L 295.474909 236.070499 
L 296.273455 228.225512 
L 297.072 222.807759 
L 297.870545 219.080912 
L 298.669091 216.554266 
L 299.467636 214.817265 
L 300.266182 213.60022 
L 301.330909 212.418209 
L 302.928 210.740724 
L 303.726545 209.544281 
L 304.525091 207.823125 
L 305.057455 206.232799 
L 305.589818 204.142206 
L 306.122182 201.40893 
L 306.654545 197.842601 
L 307.186909 193.207691 
L 307.985455 183.653504 
L 308.784 169.768235 
L 309.582545 149.861076 
L 310.381091 128.105811 
L 310.647273 123.786089 
L 310.913455 123.565407 
L 312.510545 139.139422 
L 313.575273 147.774337 
L 314.64 154.745513 
L 315.438545 158.742024 
L 316.237091 161.573378 
L 316.769455 162.761323 
L 317.301818 163.326477 
L 317.568 163.375758 
L 317.834182 163.264398 
L 318.100364 162.988659 
L 318.632727 161.915549 
L 319.165091 160.103075 
L 319.697455 157.551147 
L 320.496 152.192497 
L 321.294545 144.925655 
L 322.093091 135.612981 
L 323.157818 119.757591 
L 324.222545 99.695752 
L 325.021091 81.681151 
L 325.287273 82.008505 
L 326.085818 86.041059 
L 326.618182 88.087067 
L 327.416727 88.354572 
L 328.215273 88.884386 
L 329.28 89.877334 
L 331.143273 92.014196 
L 332.474182 93.819104 
L 333.272727 95.188775 
L 334.071273 96.983746 
L 334.869818 99.445751 
L 335.668364 102.888185 
L 336.466909 107.629188 
L 337.265455 114.021235 
L 338.064 122.419702 
L 338.862545 133.157016 
L 339.661091 146.481984 
L 340.725818 168.54954 
L 341.524364 188.424282 
L 341.790545 191.019029 
L 342.855273 174.589207 
L 343.92 163.816403 
L 344.186182 163.096666 
L 344.452364 163.337573 
L 344.718545 164.446357 
L 345.250909 168.910936 
L 345.783273 175.809087 
L 346.581818 189.220064 
L 349.243636 237.246252 
L 350.042182 246.444539 
L 350.574545 250.069976 
L 350.840727 251.041856 
L 351.106909 251.391261 
L 351.373091 251.099489 
L 351.639273 242.659677 
L 352.437818 210.008478 
L 352.970182 194.695577 
L 353.502545 183.803759 
L 354.034909 176.719468 
L 354.567273 172.869078 
L 354.833455 172.047646 
L 355.099636 171.808863 
L 355.365818 172.118433 
L 355.632 172.991261 
L 356.164364 175.997554 
L 356.696727 180.469761 
L 357.495273 189.154868 
L 358.826182 206.553367 
L 359.890909 221.17564 
L 362.286545 295.710062 
L 362.552727 301.93252 
L 362.818909 303.755728 
L 363.883636 235.316396 
L 364.682182 202.70483 
L 365.214545 188.433446 
L 365.746909 178.58412 
L 366.279273 171.816851 
L 367.344 162.386023 
L 367.876364 157.222563 
L 368.408727 150.145295 
L 368.941091 139.98395 
L 369.473455 125.607465 
L 370.005818 105.920611 
L 370.538182 79.827717 
L 371.070545 46.340136 
L 373.2 149.020306 
L 373.998545 172.533323 
L 374.530909 183.624448 
L 375.063273 191.234875 
L 375.595636 195.465797 
L 375.861818 196.361457 
L 376.128 196.479628 
L 376.394182 195.838771 
L 377.192727 192.143263 
L 377.725091 188.34764 
L 378.523636 180.519006 
L 379.322182 170.148645 
L 380.120727 157.122387 
L 381.185455 135.656222 
L 382.250182 112.092924 
L 382.516364 113.04874 
L 383.314909 119.953238 
L 384.113455 129.038787 
L 385.178182 144.332411 
L 386.242909 162.890467 
L 387.573818 189.898149 
L 389.703273 238.401156 
L 391.566545 279.679517 
L 392.631273 298.825918 
L 393.163636 306.148784 
L 393.962182 309.918112 
L 394.494545 301.512534 
L 396.091636 269.82048 
L 399.019636 210.972511 
L 400.084364 193.819361 
L 400.882909 183.669849 
L 401.681455 176.254604 
L 402.213818 172.957667 
L 402.746182 170.995401 
L 403.012364 170.50336 
L 403.278545 170.332213 
L 403.544727 170.475367 
L 403.810909 170.923719 
L 404.343273 172.686378 
L 404.875636 175.494039 
L 405.674182 181.276305 
L 407.005091 193.208727 
L 408.336 204.631938 
L 409.134545 209.618491 
L 409.666909 211.724894 
L 409.933091 216.713255 
L 410.731636 247.215443 
L 410.997818 241.091296 
L 412.062545 205.812422 
L 413.127273 178.525403 
L 414.192 157.548689 
L 415.256727 141.38566 
L 416.321455 128.785731 
L 417.386182 118.729109 
L 418.717091 108.552156 
L 420.048 100.053268 
L 421.645091 91.237875 
L 423.242182 83.635445 
L 424.573091 78.355009 
L 425.637818 75.027532 
L 426.436364 73.165935 
L 426.436364 73.165935 
" clip-path="url(#p5610fedf6b)" style="fill: none; stroke: #ffa500; stroke-width: 3; stroke-linecap: square"/>
   </g>
   <g id="patch_3">
    <path d="M 7.2 331.2 
L 7.2 7.2 
" style="fill: none; stroke: #000000; stroke-width: 0.8; stroke-linejoin: miter; stroke-linecap: square"/>
   </g>
   <g id="patch_4">
    <path d="M 446.4 331.2 
L 446.4 7.2 
" style="fill: none; stroke: #000000; stroke-width: 0.8; stroke-linejoin: miter; stroke-linecap: square"/>
   </g>
   <g id="patch_5">
    <path d="M 7.2 331.2 
L 446.4 331.2 
" style="fill: none; stroke: #000000; stroke-width: 0.8; stroke-linejoin: miter; stroke-linecap: square"/>
   </g>
   <g id="patch_6">
    <path d="M 7.2 7.2 
L 446.4 7.2 
" style="fill: none; stroke: #000000; stroke-width: 0.8; stroke-linejoin: miter; stroke-linecap: square"/>
   </g>
  </g>
 </g>
 <defs>
  <clipPath id="p5610fedf6b">
   <rect x="7.2" y="7.2" width="439.2" height="324"/>
  </clipPath>
 </defs>
</svg>
