<?xml version="1.0" encoding="utf-8" standalone="no"?>
<!DOCTYPE svg PUBLIC "-//W3C//DTD SVG 1.1//EN"
  "http://www.w3.org/Graphics/SVG/1.1/DTD/svg11.dtd">
<svg xmlns:xlink="http://www.w3.org/1999/xlink" width="453.6pt" height="338.4pt" viewBox="0 0 453.6 338.4" xmlns="http://www.w3.org/2000/svg" version="1.1">
 <metadata>
  <rdf:RDF xmlns:dc="http://purl.org/dc/elements/1.1/" xmlns:cc="http://creativecommons.org/ns#" xmlns:rdf="http://www.w3.org/1999/02/22-rdf-syntax-ns#">
   <cc:Work>
    <dc:type rdf:resource="http://purl.org/dc/dcmitype/StillImage"/>
    <dc:date>2025-05-14T16:19:31.720193</dc:date>
    <dc:format>image/svg+xml</dc:format>
    <dc:creator>
     <cc:Agent>
      <dc:title>Matplotlib v3.10.1, https://matplotlib.org/</dc:title>
     </cc:Agent>
    </dc:creator>
   </cc:Work>
  </rdf:RDF>
 </metadata>
 <defs>
  <style type="text/css">*{stroke-linejoin: round; stroke-linecap: butt}</style>
 </defs>
 <g id="figure_1">
  <g id="patch_1">
   <path d="M 0 338.4 
L 453.6 338.4 
L 453.6 0 
L 0 0 
z
" style="fill: #ffffff"/>
  </g>
  <g id="axes_1">
   <g id="patch_2">
    <path d="M 7.2 331.2 
L 446.4 331.2 
L 446.4 7.2 
L 7.2 7.2 
z
" style="fill: #ffffff"/>
   </g>
   <g id="matplotlib.axis_1"/>
   <g id="matplotlib.axis_2"/>
   <g id="line2d_1">
    <path d="M 27.163636 114.285949 
L 33.552 124.69798 
L 39.674182 134.26048 
L 45.796364 143.416061 
L 51.918545 152.16474 
L 57.774545 160.15232 
L 63.630545 167.767654 
L 69.486545 175.010671 
L 75.076364 181.577202 
L 80.666182 187.804536 
L 86.256 193.692639 
L 91.579636 198.985023 
L 96.903273 203.969733 
L 102.226909 208.646795 
L 107.284364 212.805 
L 112.341818 216.685543 
L 117.399273 220.288424 
L 122.456727 223.613645 
L 127.248 226.507718 
L 132.039273 229.15258 
L 136.830545 231.548213 
L 141.621818 233.694652 
L 146.413091 235.591889 
L 151.204364 237.239905 
L 155.729455 238.567555 
L 160.254545 239.672898 
L 164.779636 240.555961 
L 169.304727 241.216727 
L 173.829818 241.655212 
L 178.354909 241.871409 
L 182.88 241.865308 
L 187.405091 241.636928 
L 191.930182 241.186258 
L 196.455273 240.513299 
L 200.980364 239.618043 
L 205.505455 238.500507 
L 210.030545 237.160674 
L 214.555636 235.59856 
L 219.346909 233.702272 
L 224.138182 231.556763 
L 228.929455 229.16206 
L 233.720727 226.518138 
L 238.512 223.624995 
L 243.303273 220.482667 
L 248.360727 216.895393 
L 253.418182 213.030449 
L 255.547636 211.470442 
L 263.266909 206.851886 
L 270.986182 201.97261 
L 278.705455 196.832562 
L 286.424727 191.431742 
L 294.410182 185.570333 
L 302.395636 179.429876 
L 310.381091 173.010397 
L 318.632727 166.083726 
L 326.884364 158.85916 
L 335.136 151.336593 
L 343.387636 143.516132 
L 351.905455 135.13085 
L 360.423273 126.428063 
L 368.941091 117.407788 
L 377.458909 108.070061 
L 386.242909 98.107962 
L 395.026909 87.808274 
L 403.810909 77.170908 
L 412.861091 65.858047 
L 421.911273 54.186809 
L 426.436364 48.21678 
L 426.436364 48.21678 
" clip-path="url(#p2d2eb827e6)" style="fill: none; stroke-dasharray: 11.1,4.8; stroke-dashoffset: 0; stroke: #000000; stroke-width: 3"/>
   </g>
   <g id="line2d_2">
    <path d="M 27.163636 109.442225 
L 27.696 110.03726 
L 28.494545 111.351575 
L 29.293091 113.16965 
L 30.357818 116.217297 
L 33.285818 125.08485 
L 34.350545 127.544168 
L 35.415273 129.527993 
L 37.012364 131.958607 
L 40.472727 136.983722 
L 41.537455 138.971163 
L 42.602182 141.389979 
L 43.933091 145.022706 
L 48.724364 158.945817 
L 50.321455 162.589149 
L 51.652364 165.103998 
L 52.983273 167.126305 
L 54.314182 168.726542 
L 56.177455 170.568275 
L 59.105455 173.469897 
L 62.565818 177.061429 
L 63.896727 178.117825 
L 65.493818 179.064214 
L 67.357091 179.882363 
L 72.946909 182.167891 
L 74.277818 183.006827 
L 75.608727 184.113408 
L 76.939636 185.517278 
L 78.802909 187.844521 
L 83.594182 194.30236 
L 85.457455 197.22218 
L 87.853091 201.465541 
L 91.845818 208.5857 
L 95.04 214.300514 
L 97.435636 219.097547 
L 103.291636 231.156181 
L 104.888727 233.74941 
L 106.219636 235.531249 
L 107.550545 236.996312 
L 109.147636 238.406625 
L 110.744727 239.502558 
L 112.341818 240.327379 
L 114.205091 241.01885 
L 116.866909 241.72355 
L 126.715636 244.117669 
L 131.506909 245.508319 
L 133.902545 245.883989 
L 139.226182 246.449766 
L 140.557091 246.346008 
L 141.888 246.028722 
L 143.485091 245.392869 
L 146.945455 243.634582 
L 149.341091 242.580349 
L 151.204364 242.004275 
L 153.067636 241.652737 
L 156.528 241.28941 
L 161.585455 240.904848 
L 164.513455 240.981675 
L 167.973818 241.055516 
L 170.369455 240.871254 
L 172.498909 240.484121 
L 175.426909 239.68682 
L 178.887273 238.523085 
L 181.282909 237.500985 
L 187.138909 234.775373 
L 188.469818 234.56123 
L 189.534545 234.593955 
L 190.865455 234.878937 
L 192.462545 235.501957 
L 194.858182 236.738182 
L 199.649455 239.229769 
L 203.642182 241.028699 
L 206.037818 241.866256 
L 208.167273 242.36173 
L 210.562909 242.680218 
L 213.757091 242.871485 
L 218.016 242.90626 
L 221.742545 242.721704 
L 224.670545 242.366417 
L 227.066182 241.852738 
L 229.195636 241.146783 
L 231.058909 240.268223 
L 232.389818 239.419982 
L 233.720727 238.28309 
L 234.785455 237.08297 
L 235.850182 235.573051 
L 237.181091 233.267446 
L 240.907636 226.381971 
L 241.972364 224.99212 
L 243.037091 223.989709 
L 244.101818 223.31532 
L 245.432727 222.775973 
L 252.087273 220.782353 
L 254.482909 220.198466 
L 257.410909 219.754573 
L 261.936 219.073969 
L 265.396364 218.320848 
L 274.180364 215.997451 
L 275.511273 215.4128 
L 276.842182 214.605844 
L 278.439273 213.350701 
L 280.302545 211.578738 
L 285.892364 206.020754 
L 288.288 204.131637 
L 290.949818 202.324596 
L 297.338182 198.196869 
L 299.733818 196.136113 
L 303.460364 192.947885 
L 306.654545 190.238354 
L 308.251636 188.584246 
L 309.848727 186.58879 
L 311.712 183.871482 
L 314.64 179.160097 
L 317.035636 174.926454 
L 321.826909 166.198351 
L 323.424 163.931168 
L 324.754909 162.439727 
L 326.085818 161.317548 
L 327.416727 160.495018 
L 330.344727 158.849346 
L 331.409455 157.969267 
L 332.740364 156.522208 
L 334.603636 154.045492 
L 336.466909 151.661841 
L 337.797818 150.306742 
L 339.927273 148.551272 
L 341.524364 147.111359 
L 343.121455 145.350868 
L 345.783273 142.316055 
L 346.848 141.41224 
L 347.912727 140.808972 
L 348.977455 140.497541 
L 350.308364 140.387621 
L 352.171636 140.270626 
L 353.236364 139.963391 
L 354.034909 139.532209 
L 354.833455 138.893301 
L 355.898182 137.686202 
L 356.962909 136.066898 
L 358.293818 133.536407 
L 362.020364 125.887681 
L 363.085091 124.392395 
L 363.883636 123.598623 
L 364.948364 122.904448 
L 367.610182 121.49403 
L 368.408727 120.698168 
L 369.207273 119.610961 
L 370.272 117.744342 
L 373.732364 111.087072 
L 374.530909 110.064454 
L 375.329455 109.34944 
L 376.128 108.918556 
L 376.926545 108.71248 
L 378.523636 108.622118 
L 379.588364 108.497592 
L 380.653091 108.120535 
L 381.717818 107.433488 
L 383.048727 106.244823 
L 385.178182 104.282768 
L 386.775273 103.151336 
L 388.372364 102.019325 
L 389.437091 100.938087 
L 390.235636 99.829987 
L 391.300364 97.88735 
L 392.365091 95.42373 
L 393.696 91.758015 
L 398.487273 77.852829 
L 399.818182 75.002795 
L 400.882909 73.206806 
L 401.947636 71.800285 
L 403.278545 70.456299 
L 406.738909 67.294449 
L 407.803636 65.883486 
L 409.134545 63.71137 
L 413.393455 56.286715 
L 416.587636 51.20319 
L 421.112727 43.283483 
L 421.911273 42.359531 
L 422.709818 41.75556 
L 423.242182 41.558017 
L 423.774545 41.53551 
L 424.306909 41.687126 
L 425.105455 42.212656 
L 426.170182 43.323371 
L 426.436364 43.642474 
L 426.436364 43.642474 
" clip-path="url(#p2d2eb827e6)" style="fill: none; stroke: #0000ff; stroke-width: 3; stroke-linecap: square"/>
   </g>
   <g id="patch_3">
    <path d="M 7.2 331.2 
L 7.2 7.2 
" style="fill: none; stroke: #000000; stroke-width: 0.8; stroke-linejoin: miter; stroke-linecap: square"/>
   </g>
   <g id="patch_4">
    <path d="M 446.4 331.2 
L 446.4 7.2 
" style="fill: none; stroke: #000000; stroke-width: 0.8; stroke-linejoin: miter; stroke-linecap: square"/>
   </g>
   <g id="patch_5">
    <path d="M 7.2 331.2 
L 446.4 331.2 
" style="fill: none; stroke: #000000; stroke-width: 0.8; stroke-linejoin: miter; stroke-linecap: square"/>
   </g>
   <g id="patch_6">
    <path d="M 7.2 7.2 
L 446.4 7.2 
" style="fill: none; stroke: #000000; stroke-width: 0.8; stroke-linejoin: miter; stroke-linecap: square"/>
   </g>
  </g>
 </g>
 <defs>
  <clipPath id="p2d2eb827e6">
   <rect x="7.2" y="7.2" width="439.2" height="324"/>
  </clipPath>
 </defs>
</svg>
