<?xml version="1.0" encoding="utf-8" standalone="no"?>
<!DOCTYPE svg PUBLIC "-//W3C//DTD SVG 1.1//EN"
  "http://www.w3.org/Graphics/SVG/1.1/DTD/svg11.dtd">
<svg xmlns:xlink="http://www.w3.org/1999/xlink" width="453.6pt" height="338.4pt" viewBox="0 0 453.6 338.4" xmlns="http://www.w3.org/2000/svg" version="1.1">
 <metadata>
  <rdf:RDF xmlns:dc="http://purl.org/dc/elements/1.1/" xmlns:cc="http://creativecommons.org/ns#" xmlns:rdf="http://www.w3.org/1999/02/22-rdf-syntax-ns#">
   <cc:Work>
    <dc:type rdf:resource="http://purl.org/dc/dcmitype/StillImage"/>
    <dc:date>2025-05-14T16:19:50.803397</dc:date>
    <dc:format>image/svg+xml</dc:format>
    <dc:creator>
     <cc:Agent>
      <dc:title>Matplotlib v3.10.1, https://matplotlib.org/</dc:title>
     </cc:Agent>
    </dc:creator>
   </cc:Work>
  </rdf:RDF>
 </metadata>
 <defs>
  <style type="text/css">*{stroke-linejoin: round; stroke-linecap: butt}</style>
 </defs>
 <g id="figure_1">
  <g id="patch_1">
   <path d="M 0 338.4 
L 453.6 338.4 
L 453.6 0 
L 0 0 
z
" style="fill: #ffffff"/>
  </g>
  <g id="axes_1">
   <g id="patch_2">
    <path d="M 7.2 331.2 
L 446.4 331.2 
L 446.4 7.2 
L 7.2 7.2 
z
" style="fill: #ffffff"/>
   </g>
   <g id="matplotlib.axis_1"/>
   <g id="matplotlib.axis_2"/>
   <g id="line2d_1">
    <path d="M 27.163636 41.648572 
L 29.026909 50.048408 
L 30.890182 57.477979 
L 32.753455 63.999978 
L 34.616727 69.677099 
L 36.48 74.572 
L 38.077091 78.19249 
L 39.674182 81.323898 
L 41.271273 84.005444 
L 42.868364 86.276822 
L 44.465455 88.177377 
L 46.062545 89.746592 
L 47.659636 91.023952 
L 49.256727 92.048887 
L 51.12 92.978264 
L 53.249455 93.765944 
L 55.911273 94.475762 
L 62.832 96.146786 
L 64.961455 96.974634 
L 66.824727 97.951237 
L 68.421818 99.025506 
L 70.018909 100.360433 
L 71.616 101.995449 
L 73.213091 103.970003 
L 74.810182 106.323598 
L 76.407273 109.095699 
L 78.004364 112.32572 
L 79.601455 116.053181 
L 81.198545 120.317496 
L 82.795636 125.158183 
L 84.658909 131.586712 
L 86.522182 138.916107 
L 88.385455 147.209025 
L 90.248727 156.528107 
L 92.112 166.936083 
L 93.975273 178.495566 
L 96.370909 194.450913 
L 98.766545 189.653572 
L 100.896 185.859476 
L 103.025455 182.531219 
L 104.888727 180.018713 
L 106.752 177.894939 
L 108.349091 176.395335 
L 109.946182 175.201833 
L 111.277091 174.447835 
L 112.608 173.918381 
L 113.938909 173.61895 
L 115.269818 173.555001 
L 116.600727 173.731969 
L 117.931636 174.155294 
L 119.262545 174.830518 
L 120.593455 175.763028 
L 121.924364 176.958321 
L 123.255273 178.421847 
L 124.852364 180.539819 
L 126.449455 183.061322 
L 128.046545 185.995809 
L 129.643636 189.352719 
L 131.506909 193.81556 
L 133.370182 198.881222 
L 135.233455 204.564592 
L 137.362909 211.835542 
L 139.492364 219.955268 
L 141.621818 228.946171 
L 142.952727 234.992842 
L 144.816 237.645648 
L 146.679273 239.888691 
L 148.276364 241.496425 
L 149.873455 242.823319 
L 151.470545 243.878737 
L 153.067636 244.672004 
L 154.664727 245.21243 
L 156.261818 245.509377 
L 157.858909 245.572158 
L 159.456 245.410127 
L 161.053091 245.032584 
L 162.650182 244.448886 
L 164.513455 243.519799 
L 166.376727 242.337625 
L 168.506182 240.695665 
L 170.635636 238.764624 
L 173.031273 236.274205 
L 175.693091 233.149091 
L 178.621091 229.326185 
L 181.815273 224.760912 
L 185.541818 219.011117 
L 190.066909 211.57901 
L 197.253818 199.256303 
L 204.706909 186.603186 
L 208.965818 179.790333 
L 212.426182 174.63322 
L 215.620364 170.262436 
L 218.548364 166.650056 
L 221.210182 163.743158 
L 223.605818 161.470919 
L 224.404364 160.791632 
L 224.670545 161.307172 
L 226.001455 172.234234 
L 227.332364 181.144001 
L 228.397091 186.915679 
L 229.461818 191.561685 
L 230.526545 195.155578 
L 231.325091 197.204632 
L 232.123636 198.734214 
L 232.922182 199.775345 
L 233.720727 200.359004 
L 234.253091 200.509277 
L 234.785455 200.479194 
L 235.317818 200.277973 
L 236.116364 199.675318 
L 236.914909 198.739235 
L 237.979636 197.026129 
L 239.044364 194.848869 
L 240.375273 191.586729 
L 241.972364 187.068849 
L 244.634182 178.71947 
L 247.828364 168.76313 
L 249.425455 164.389668 
L 250.756364 161.295251 
L 251.821091 159.283161 
L 252.885818 157.762665 
L 253.684364 156.989153 
L 254.482909 156.564502 
L 255.015273 156.490554 
L 255.547636 156.594663 
L 256.08 156.885957 
L 256.612364 157.373688 
L 257.410909 158.493691 
L 258.209455 160.10727 
L 259.008 162.245467 
L 259.806545 164.93932 
L 260.871273 169.449176 
L 261.936 175.075393 
L 263.000727 181.8916 
L 264.065455 189.971464 
L 265.396364 201.959943 
L 266.461091 213.105941 
L 268.856727 201.845125 
L 270.986182 192.805819 
L 273.115636 184.651148 
L 275.245091 177.353951 
L 277.374545 170.887 
L 279.237818 165.887903 
L 281.101091 161.48521 
L 282.964364 157.660645 
L 284.561455 154.82873 
L 286.158545 152.396554 
L 287.755636 150.352652 
L 289.352727 148.685525 
L 290.683636 147.57574 
L 292.014545 146.712867 
L 293.345455 146.090356 
L 294.676364 145.701397 
L 296.007273 145.539511 
L 297.338182 145.597868 
L 298.669091 145.869867 
L 300 146.348873 
L 301.597091 147.187466 
L 303.194182 148.303009 
L 304.791273 149.683968 
L 306.654545 151.615194 
L 308.517818 153.873704 
L 310.647273 156.832129 
L 312.776727 160.166839 
L 315.172364 164.334208 
L 317.834182 169.435438 
L 320.762182 175.557453 
L 323.956364 182.765393 
L 327.682909 191.753022 
L 332.208 203.302638 
L 338.596364 220.314583 
L 348.977455 247.976666 
L 353.236364 258.713716 
L 353.502545 257.625561 
L 355.632 240.920833 
L 357.761455 225.86586 
L 359.890909 212.370306 
L 362.020364 200.34315 
L 364.149818 189.694022 
L 366.013091 181.43497 
L 367.876364 174.100712 
L 369.739636 167.630557 
L 371.602909 161.963583 
L 373.466182 157.039171 
L 375.329455 152.796608 
L 377.192727 149.175012 
L 378.789818 146.519046 
L 380.386909 144.236466 
L 381.984 142.289054 
L 383.847273 140.389605 
L 385.710545 138.833522 
L 387.573818 137.560007 
L 389.703273 136.372658 
L 392.365091 135.157799 
L 399.552 132.045528 
L 401.681455 130.798488 
L 403.544727 129.455345 
L 405.408 127.813359 
L 407.005091 126.12204 
L 408.602182 124.128261 
L 410.199273 121.793803 
L 411.796364 119.080445 
L 413.393455 115.949827 
L 414.990545 112.36373 
L 416.587636 108.283932 
L 418.450909 102.849105 
L 420.314182 96.629566 
L 422.177455 89.564376 
L 424.040727 81.59286 
L 425.904 72.654433 
L 426.436364 69.914372 
L 426.436364 69.914372 
" clip-path="url(#p17b1257e78)" style="fill: none; stroke-dasharray: 11.1,4.8; stroke-dashoffset: 0; stroke: #000000; stroke-width: 3"/>
   </g>
   <g id="line2d_2">
    <path d="M 27.163636 49.3868 
L 29.825455 50.871745 
L 31.954909 52.341644 
L 33.818182 53.922306 
L 35.415273 55.551476 
L 37.012364 57.480788 
L 38.609455 59.75494 
L 40.206545 62.41886 
L 41.803636 65.517753 
L 43.666909 69.238473 
L 46.062545 72.035065 
L 49.256727 75.394774 
L 56.976 83.311163 
L 59.371636 86.148275 
L 60.170182 87.479568 
L 61.767273 90.675073 
L 63.364364 94.361751 
L 65.227636 99.213007 
L 67.357091 105.380826 
L 70.018909 113.853116 
L 73.213091 124.851229 
L 76.673455 136.919045 
L 79.601455 143.387392 
L 82.529455 150.498176 
L 85.989818 159.563605 
L 90.248727 171.405999 
L 94.507636 183.318793 
L 95.838545 184.887763 
L 97.169455 186.08094 
L 98.234182 186.779574 
L 99.298909 187.265831 
L 100.363636 187.554596 
L 101.694545 187.657783 
L 103.025455 187.495317 
L 104.356364 187.097378 
L 105.953455 186.345715 
L 107.550545 185.335492 
L 109.413818 183.895473 
L 111.543273 181.979706 
L 112.075636 181.587341 
L 112.608 181.685691 
L 113.672727 182.128583 
L 115.003636 182.965394 
L 116.334545 184.097045 
L 117.665455 185.503189 
L 119.262545 187.521494 
L 121.125818 190.282631 
L 123.255273 193.898575 
L 125.650909 198.440498 
L 128.578909 204.51058 
L 129.111273 205.657321 
L 130.708364 207.464064 
L 132.305455 209.602357 
L 134.168727 212.450521 
L 136.564364 216.54116 
L 140.024727 222.952739 
L 145.082182 232.318951 
L 146.413091 234.429031 
L 148.010182 236.505008 
L 149.607273 238.192772 
L 151.204364 239.517999 
L 152.535273 240.362956 
L 153.866182 240.98882 
L 155.463273 241.471504 
L 157.060364 241.685602 
L 158.657455 241.656731 
L 160.254545 241.410469 
L 162.384 240.818586 
L 164.513455 240.381382 
L 166.642909 240.179836 
L 169.038545 240.185269 
L 171.700364 240.412667 
L 175.426909 240.976118 
L 178.088727 241.391851 
L 179.419636 240.904778 
L 181.016727 240.075911 
L 182.613818 238.983946 
L 184.210909 237.617049 
L 185.808 235.963652 
L 187.405091 234.012702 
L 189.268364 231.346711 
L 191.131636 228.246202 
L 192.994909 224.697007 
L 195.124364 220.528024 
L 198.318545 215.700697 
L 201.512727 211.260714 
L 205.239273 206.479807 
L 209.232 201.723399 
L 211.627636 199.038543 
L 212.692364 198.486767 
L 213.757091 198.143621 
L 214.821818 198.001231 
L 215.886545 198.057393 
L 216.951273 198.309949 
L 218.016 198.756739 
L 219.346909 199.585211 
L 220.677818 200.709866 
L 222.008727 202.126763 
L 223.605818 204.207322 
L 225.202909 206.696591 
L 226.8 209.589392 
L 229.728 215.220866 
L 231.058909 217.045473 
L 232.123636 218.173665 
L 233.188364 219.00988 
L 234.253091 219.556723 
L 235.317818 219.816863 
L 236.382545 219.793179 
L 237.447273 219.488034 
L 238.512 218.904366 
L 239.576727 218.046058 
L 240.641455 216.91632 
L 241.972364 215.127397 
L 243.303273 212.926138 
L 244.634182 210.225939 
L 245.965091 206.996777 
L 247.296 204.072139 
L 248.360727 202.248147 
L 249.425455 200.86861 
L 250.224 200.119422 
L 251.022545 199.61007 
L 251.821091 199.336263 
L 252.619636 199.293864 
L 253.418182 199.478732 
L 254.216727 199.886863 
L 255.015273 200.514254 
L 256.08 201.685143 
L 257.144727 203.229841 
L 258.209455 205.139534 
L 259.540364 208.0264 
L 260.871273 211.442878 
L 261.669818 213.738195 
L 262.468364 213.445953 
L 263.266909 212.950682 
L 264.331636 211.991433 
L 265.396364 210.706586 
L 266.727273 208.669706 
L 268.058182 206.186705 
L 269.655273 202.667689 
L 271.252364 198.617421 
L 273.115636 193.30282 
L 275.245091 186.570374 
L 277.906909 177.357586 
L 281.899636 162.82205 
L 283.762909 157.346335 
L 285.36 153.284181 
L 286.957091 149.763305 
L 288.554182 146.745715 
L 290.151273 144.193576 
L 291.748364 142.069758 
L 293.345455 140.33727 
L 294.676364 139.158805 
L 294.942545 139.119601 
L 296.273455 140.415641 
L 297.870545 142.316389 
L 299.733818 144.948443 
L 301.863273 148.404502 
L 304.525091 153.218047 
L 308.784 161.494339 
L 311.712 167.419987 
L 321.826909 195.54832 
L 324.754909 202.860167 
L 327.150545 208.266799 
L 328.481455 210.900934 
L 330.344727 213.837941 
L 331.941818 215.975198 
L 333.805091 218.073875 
L 335.668364 219.800035 
L 337.531636 221.209084 
L 339.394909 222.356703 
L 341.524364 223.420385 
L 345.783273 225.42892 
L 347.114182 225.998191 
L 348.445091 226.308595 
L 349.776 226.359007 
L 351.106909 226.147542 
L 352.437818 225.674444 
L 353.768727 224.939003 
L 355.099636 223.940437 
L 356.430545 222.678299 
L 358.027636 220.815007 
L 359.624727 218.570744 
L 360.689455 216.910553 
L 361.488 213.509252 
L 363.883636 202.136647 
L 367.077818 185.788988 
L 373.732364 151.344318 
L 376.128 140.170959 
L 377.458909 134.59879 
L 379.056 129.603537 
L 380.653091 125.322386 
L 381.984 122.292138 
L 383.314909 119.747303 
L 384.645818 117.68602 
L 385.710545 116.382993 
L 386.775273 115.386183 
L 387.84 114.693904 
L 388.904727 114.304488 
L 389.969455 114.216321 
L 390.768 114.346746 
L 391.832727 114.781334 
L 392.897455 115.511956 
L 393.962182 116.535944 
L 400.084364 123.118494 
L 402.746182 125.622055 
L 404.875636 127.318746 
L 406.738909 128.512625 
L 408.336 129.278623 
L 409.933091 129.772358 
L 410.199273 129.78988 
L 410.731636 129.469899 
L 412.062545 128.269559 
L 413.659636 126.474552 
L 415.256727 124.314498 
L 417.12 121.362831 
L 418.983273 117.982019 
L 421.112727 113.639527 
L 423.508364 108.209739 
L 426.170182 101.593814 
L 426.436364 100.9025 
L 426.436364 100.9025 
" clip-path="url(#p17b1257e78)" style="fill: none; stroke: #0000ff; stroke-width: 3; stroke-linecap: square"/>
   </g>
   <g id="patch_3">
    <path d="M 7.2 331.2 
L 7.2 7.2 
" style="fill: none; stroke: #000000; stroke-width: 0.8; stroke-linejoin: miter; stroke-linecap: square"/>
   </g>
   <g id="patch_4">
    <path d="M 446.4 331.2 
L 446.4 7.2 
" style="fill: none; stroke: #000000; stroke-width: 0.8; stroke-linejoin: miter; stroke-linecap: square"/>
   </g>
   <g id="patch_5">
    <path d="M 7.2 331.2 
L 446.4 331.2 
" style="fill: none; stroke: #000000; stroke-width: 0.8; stroke-linejoin: miter; stroke-linecap: square"/>
   </g>
   <g id="patch_6">
    <path d="M 7.2 7.2 
L 446.4 7.2 
" style="fill: none; stroke: #000000; stroke-width: 0.8; stroke-linejoin: miter; stroke-linecap: square"/>
   </g>
  </g>
 </g>
 <defs>
  <clipPath id="p17b1257e78">
   <rect x="7.2" y="7.2" width="439.2" height="324"/>
  </clipPath>
 </defs>
</svg>
