<?xml version="1.0" encoding="utf-8" standalone="no"?>
<!DOCTYPE svg PUBLIC "-//W3C//DTD SVG 1.1//EN"
  "http://www.w3.org/Graphics/SVG/1.1/DTD/svg11.dtd">
<svg xmlns:xlink="http://www.w3.org/1999/xlink" width="453.6pt" height="338.4pt" viewBox="0 0 453.6 338.4" xmlns="http://www.w3.org/2000/svg" version="1.1">
 <metadata>
  <rdf:RDF xmlns:dc="http://purl.org/dc/elements/1.1/" xmlns:cc="http://creativecommons.org/ns#" xmlns:rdf="http://www.w3.org/1999/02/22-rdf-syntax-ns#">
   <cc:Work>
    <dc:type rdf:resource="http://purl.org/dc/dcmitype/StillImage"/>
    <dc:date>2025-05-14T16:28:50.994098</dc:date>
    <dc:format>image/svg+xml</dc:format>
    <dc:creator>
     <cc:Agent>
      <dc:title>Matplotlib v3.10.1, https://matplotlib.org/</dc:title>
     </cc:Agent>
    </dc:creator>
   </cc:Work>
  </rdf:RDF>
 </metadata>
 <defs>
  <style type="text/css">*{stroke-linejoin: round; stroke-linecap: butt}</style>
 </defs>
 <g id="figure_1">
  <g id="patch_1">
   <path d="M 0 338.4 
L 453.6 338.4 
L 453.6 0 
L 0 0 
z
" style="fill: #ffffff"/>
  </g>
  <g id="axes_1">
   <g id="patch_2">
    <path d="M 7.2 331.2 
L 446.4 331.2 
L 446.4 7.2 
L 7.2 7.2 
z
" style="fill: #ffffff"/>
   </g>
   <g id="matplotlib.axis_1"/>
   <g id="matplotlib.axis_2"/>
   <g id="line2d_1">
    <path d="M 27.163636 298.415973 
L 30.091636 297.769896 
L 33.019636 296.898595 
L 35.947636 295.809204 
L 39.141818 294.380426 
L 42.336 292.709852 
L 45.796364 290.63793 
L 49.256727 288.304872 
L 52.983273 285.513797 
L 56.709818 282.448212 
L 60.702545 278.875745 
L 64.961455 274.756748 
L 69.486545 270.055594 
L 74.277818 264.741919 
L 79.335273 258.792039 
L 84.658909 252.190357 
L 90.514909 244.577665 
L 97.169455 235.551044 
L 104.888727 224.685526 
L 114.737455 210.405671 
L 142.952727 169.235955 
L 150.672 158.506752 
L 157.326545 149.634495 
L 163.182545 142.185946 
L 168.506182 135.756416 
L 173.563636 129.99032 
L 178.354909 124.868978 
L 182.88 120.365723 
L 187.138909 116.447407 
L 191.131636 113.075777 
L 194.858182 110.208749 
L 198.584727 107.626941 
L 202.045091 105.497786 
L 205.505455 103.639032 
L 208.699636 102.173382 
L 211.893818 100.957416 
L 214.821818 100.070017 
L 217.749818 99.407337 
L 220.677818 98.976471 
L 223.605818 98.784581 
L 226.267636 98.823521 
L 228.929455 99.07117 
L 231.591273 99.532953 
L 234.253091 100.214171 
L 236.914909 101.120216 
L 239.576727 102.25644 
L 242.238545 103.6282 
L 244.900364 105.240849 
L 247.562182 107.099743 
L 250.224 109.210271 
L 253.152 111.828807 
L 253.950545 112.59786 
L 259.274182 124.377947 
L 262.468364 130.764165 
L 265.662545 136.652049 
L 268.856727 142.061436 
L 272.050909 147.012061 
L 275.245091 151.523673 
L 278.173091 155.290565 
L 281.101091 158.720447 
L 284.029091 161.828558 
L 286.957091 164.630136 
L 289.885091 167.140403 
L 292.813091 169.374606 
L 295.741091 171.348011 
L 298.935273 173.221195 
L 302.129455 174.821906 
L 305.323636 176.169912 
L 308.517818 177.284964 
L 311.978182 178.253017 
L 315.438545 178.996043 
L 319.165091 179.573469 
L 323.157818 179.9706 
L 327.682909 180.191362 
L 333.006545 180.212579 
L 339.927273 179.998462 
L 354.034909 179.506553 
L 359.358545 179.577393 
L 363.883636 179.856072 
L 367.876364 180.31631 
L 371.602909 180.962811 
L 375.063273 181.7788 
L 378.523636 182.82828 
L 381.717818 184.025995 
L 384.912 185.463872 
L 388.106182 187.161652 
L 391.034182 188.963224 
L 393.962182 191.015044 
L 396.890182 193.332376 
L 399.818182 195.93045 
L 402.746182 198.824524 
L 405.674182 202.029799 
L 408.602182 205.561525 
L 411.530182 209.434932 
L 414.458182 213.665284 
L 417.386182 218.267723 
L 420.314182 223.257638 
L 423.508364 229.160884 
L 426.436364 235.010021 
L 426.436364 235.010021 
" clip-path="url(#pbabce4e32d)" style="fill: none; stroke-dasharray: 11.1,4.8; stroke-dashoffset: 0; stroke: #000000; stroke-width: 3"/>
   </g>
   <g id="line2d_2">
    <path d="M 27.163636 289.250337 
L 27.429818 294.288912 
L 27.696 295.172491 
L 27.962182 295.333126 
L 28.494545 295.28473 
L 29.026909 295.250798 
L 29.293091 295.131879 
L 31.422545 295.284798 
L 32.221091 295.258376 
L 33.818182 294.716425 
L 35.149091 294.538917 
L 35.415273 294.540985 
L 35.681455 294.674138 
L 36.48 294.473558 
L 37.278545 294.114084 
L 38.875636 293.737355 
L 41.271273 292.980416 
L 42.602182 292.561618 
L 43.666909 292.364423 
L 43.933091 292.296426 
L 44.199273 292.606992 
L 46.062545 291.701584 
L 46.594909 291.557445 
L 50.321455 289.946456 
L 50.587636 289.935578 
L 52.717091 288.647202 
L 54.048 287.441264 
L 54.580364 287.096972 
L 54.846545 287.019461 
L 56.709818 285.561776 
L 56.976 285.493226 
L 58.040727 284.701538 
L 58.839273 284.23249 
L 59.105455 284.202124 
L 60.170182 283.468515 
L 60.436364 283.390886 
L 60.702545 283.505998 
L 60.968727 283.862162 
L 61.234909 284.530595 
L 62.033455 283.137636 
L 66.026182 279.531919 
L 67.357091 278.848831 
L 67.623273 278.835716 
L 68.954182 277.850682 
L 69.486545 277.304186 
L 69.752727 276.643429 
L 70.551273 276.139862 
L 75.342545 274.832214 
L 77.205818 274.411438 
L 78.004364 274.126438 
L 78.270545 273.330366 
L 79.601455 273.104044 
L 84.925091 272.294261 
L 86.522182 272.020097 
L 87.054545 271.786805 
L 88.917818 271.471253 
L 93.709091 270.953154 
L 94.773818 270.78274 
L 95.04 270.760241 
L 95.306182 269.520931 
L 96.104727 269.691621 
L 96.370909 269.619487 
L 97.169455 269.774092 
L 97.435636 269.674956 
L 98.234182 269.744655 
L 98.500364 269.615691 
L 99.298909 269.720335 
L 99.565091 269.455792 
L 102.493091 269.464158 
L 103.025455 269.323572 
L 103.557818 269.400613 
L 103.824 269.010495 
L 107.816727 268.626451 
L 108.082909 268.306638 
L 112.075636 267.747246 
L 112.608 267.481984 
L 113.406545 267.181276 
L 115.003636 266.869362 
L 118.197818 265.742793 
L 119.794909 265.285167 
L 120.593455 265.048495 
L 120.859636 264.664662 
L 122.722909 263.994522 
L 123.255273 263.851328 
L 129.111273 262.089253 
L 129.377455 261.802489 
L 130.176 261.619223 
L 131.773091 261.459294 
L 135.499636 261.019422 
L 136.298182 260.977884 
L 137.629091 260.828168 
L 138.161455 260.855442 
L 138.96 260.76964 
L 146.146909 260.26268 
L 146.413091 260.943258 
L 154.664727 259.920675 
L 154.930909 260.126663 
L 156.528 259.85879 
L 157.326545 259.722873 
L 160.786909 259.20448 
L 161.585455 259.038393 
L 163.182545 258.67285 
L 163.448727 258.908569 
L 165.312 258.199467 
L 165.844364 258.111716 
L 167.441455 257.6108 
L 167.707636 257.673968 
L 169.038545 257.277894 
L 173.297455 256.237382 
L 174.628364 255.645353 
L 178.621091 253.356533 
L 179.952 252.429473 
L 180.218182 252.265533 
L 180.484364 252.644187 
L 183.678545 250.432122 
L 187.937455 247.5102 
L 188.736 246.941131 
L 189.002182 246.957493 
L 191.131636 245.567506 
L 193.261091 244.392355 
L 197.253818 242.286878 
L 197.786182 242.051501 
L 200.980364 240.164333 
L 203.908364 238.204912 
L 205.505455 237.045294 
L 212.692364 231.850795 
L 214.289455 230.837737 
L 218.016 228.741956 
L 224.138182 226.042635 
L 231.325091 223.807062 
L 232.389818 223.559387 
L 235.584 222.709918 
L 237.713455 222.180807 
L 238.512 221.998687 
L 246.497455 220.371509 
L 247.828364 220.211975 
L 249.425455 219.965477 
L 250.224 219.753651 
L 251.022545 219.717187 
L 252.885818 219.691098 
L 255.015273 219.798007 
L 256.08 220.007577 
L 257.677091 220.31008 
L 260.871273 220.895705 
L 261.403636 220.995547 
L 262.202182 221.151298 
L 263.533091 221.325298 
L 264.065455 221.375843 
L 264.597818 221.355363 
L 265.130182 221.547999 
L 266.727273 221.684025 
L 267.259636 221.824739 
L 268.058182 221.940251 
L 272.317091 221.8756 
L 273.115636 221.550545 
L 273.381818 221.697386 
L 275.511273 221.895219 
L 276.576 222.026619 
L 277.374545 221.958799 
L 278.439273 221.833807 
L 280.036364 221.978295 
L 280.834909 221.76776 
L 281.633455 221.465046 
L 281.899636 221.567996 
L 283.762909 221.429117 
L 284.561455 221.464203 
L 285.093818 221.39447 
L 286.424727 221.202799 
L 286.957091 221.050542 
L 287.223273 221.126701 
L 287.755636 221.097058 
L 288.554182 221.115869 
L 289.885091 220.516463 
L 292.280727 220.21108 
L 293.345455 220.238591 
L 294.410182 220.049764 
L 294.676364 220.097544 
L 295.474909 219.841714 
L 296.007273 219.866292 
L 297.072 219.794426 
L 298.935273 218.404258 
L 299.467636 217.568992 
L 301.330909 212.094559 
L 301.863273 210.342899 
L 302.395636 209.351083 
L 302.928 208.816591 
L 303.194182 208.781364 
L 303.992727 208.299076 
L 305.057455 208.109407 
L 308.784 206.193323 
L 310.381091 205.552958 
L 311.445818 204.881132 
L 313.042909 204.160245 
L 314.373818 203.771382 
L 314.906182 203.601016 
L 315.704727 203.33718 
L 316.769455 203.039716 
L 317.568 202.886914 
L 318.898909 202.387939 
L 319.963636 201.97642 
L 320.229818 201.99574 
L 321.028364 201.743931 
L 322.093091 201.496686 
L 323.157818 201.172404 
L 323.956364 201.221315 
L 324.222545 201.040345 
L 324.488727 202.790206 
L 325.021091 202.899537 
L 326.618182 202.565336 
L 327.416727 202.585385 
L 328.215273 202.426211 
L 328.481455 202.286156 
L 328.747636 202.439414 
L 330.344727 201.944467 
L 332.740364 201.435897 
L 333.006545 201.82418 
L 333.805091 201.464259 
L 334.869818 200.888562 
L 336.466909 200.145949 
L 336.999273 199.808957 
L 337.265455 199.904542 
L 337.797818 199.629382 
L 339.394909 198.49077 
L 339.927273 198.196158 
L 340.992 197.119695 
L 341.524364 196.508499 
L 342.589091 195.681932 
L 343.387636 195.507695 
L 343.653818 195.552964 
L 343.92 195.478034 
L 344.718545 194.819682 
L 345.250909 194.058381 
L 345.517091 193.740094 
L 346.049455 192.892249 
L 346.848 192.18359 
L 347.646545 191.900723 
L 347.912727 191.898537 
L 348.445091 191.525782 
L 348.977455 190.81779 
L 349.509818 189.863966 
L 349.776 189.447532 
L 350.308364 189.059108 
L 350.840727 188.690759 
L 351.106909 188.581946 
L 352.171636 188.628637 
L 353.236364 187.89007 
L 353.502545 187.524443 
L 354.034909 187.203313 
L 354.301091 186.595707 
L 355.898182 185.843658 
L 356.430545 185.602575 
L 357.229091 184.779001 
L 358.56 181.668609 
L 358.826182 181.50817 
L 359.358545 180.886705 
L 359.624727 180.674151 
L 359.890909 180.767111 
L 360.423273 180.563959 
L 360.689455 180.416073 
L 361.488 178.904083 
L 362.286545 177.605603 
L 362.552727 177.339029 
L 362.818909 176.621231 
L 363.085091 176.639876 
L 363.617455 176.202593 
L 363.883636 175.732234 
L 364.149818 175.642592 
L 364.416 175.382522 
L 364.948364 173.820996 
L 365.214545 172.857842 
L 366.013091 171.591613 
L 366.279273 171.545519 
L 366.811636 172.28994 
L 367.077818 171.728323 
L 367.344 171.81571 
L 367.610182 171.524653 
L 368.142545 171.400504 
L 368.674909 171.880115 
L 368.941091 171.725304 
L 369.207273 171.192181 
L 369.739636 169.170189 
L 370.272 167.457838 
L 370.538182 166.949917 
L 370.804364 167.09574 
L 371.070545 167.375078 
L 371.336727 167.134996 
L 371.602909 167.580188 
L 371.869091 167.612421 
L 372.135273 167.523007 
L 372.401455 166.935907 
L 372.933818 166.604831 
L 373.732364 164.789898 
L 373.998545 164.917129 
L 374.264727 164.90275 
L 374.530909 165.124802 
L 375.063273 166.41022 
L 375.329455 167.314719 
L 375.595636 167.450219 
L 375.861818 167.736509 
L 376.394182 167.163788 
L 376.660364 166.792332 
L 376.926545 166.626197 
L 377.192727 166.279496 
L 378.257455 163.11912 
L 378.789818 161.154941 
L 379.056 160.395896 
L 379.322182 159.993049 
L 379.588364 159.865222 
L 379.854545 159.498858 
L 380.120727 159.538851 
L 380.653091 158.621764 
L 381.984 155.931721 
L 382.250182 155.516515 
L 382.782545 155.523959 
L 383.048727 155.691059 
L 383.581091 156.957657 
L 384.113455 158.495797 
L 384.379636 158.923591 
L 385.178182 159.061882 
L 385.710545 159.258091 
L 385.976727 159.057791 
L 386.242909 159.037356 
L 387.041455 157.989983 
L 387.307636 157.611382 
L 387.84 157.617825 
L 388.372364 158.254574 
L 388.638545 158.490285 
L 389.170909 158.27278 
L 389.703273 157.883592 
L 389.969455 157.766088 
L 390.501818 157.018103 
L 390.768 157.116278 
L 391.566545 157.957557 
L 392.365091 162.112268 
L 392.631273 169.206706 
L 392.897455 170.509224 
L 393.163636 171.217875 
L 393.429818 171.528867 
L 393.696 171.484116 
L 394.228364 170.991969 
L 394.760727 169.756982 
L 395.293091 169.766322 
L 395.825455 169.570034 
L 396.357818 170.620285 
L 396.624 171.118322 
L 396.890182 171.278646 
L 397.422545 172.280855 
L 397.688727 172.233075 
L 398.221091 171.552524 
L 398.487273 171.505622 
L 399.019636 171.041917 
L 399.818182 173.448619 
L 400.084364 173.852914 
L 400.616727 175.454871 
L 400.882909 176.032807 
L 401.149091 172.538423 
L 401.415273 171.476882 
L 401.681455 170.981119 
L 401.947636 170.780995 
L 402.48 171.677586 
L 403.278545 172.653065 
L 403.544727 172.448183 
L 403.810909 172.639099 
L 404.609455 175.053114 
L 405.141818 177.176414 
L 405.408 177.410193 
L 405.674182 177.358815 
L 406.206545 178.177894 
L 406.472727 179.268262 
L 407.271273 180.52429 
L 407.537455 180.581269 
L 407.803636 180.472148 
L 408.069818 180.879024 
L 408.602182 183.324797 
L 409.400727 188.167723 
L 409.666909 197.762018 
L 409.933091 198.995592 
L 410.199273 199.370146 
L 410.465455 198.884101 
L 411.264 196.548791 
L 411.796364 193.325968 
L 412.062545 193.22056 
L 412.861091 195.3754 
L 413.393455 198.318622 
L 413.659636 199.256627 
L 413.925818 202.339062 
L 414.192 202.592294 
L 414.724364 202.509305 
L 414.990545 203.804432 
L 415.522909 204.994712 
L 415.789091 205.128237 
L 416.055273 204.844325 
L 416.321455 203.68267 
L 416.587636 203.216709 
L 417.12 205.422638 
L 417.652364 207.744236 
L 418.184727 211.515289 
L 418.450909 211.763263 
L 418.983273 211.253148 
L 419.249455 212.180698 
L 419.515636 212.464662 
L 419.781818 212.429594 
L 420.048 211.931996 
L 420.314182 212.820002 
L 420.580364 212.694079 
L 420.846545 212.311115 
L 421.112727 212.591445 
L 421.378909 212.602435 
L 421.645091 212.456332 
L 421.911273 211.751368 
L 422.177455 211.995339 
L 422.443636 214.469387 
L 422.976 211.411154 
L 423.242182 211.612059 
L 423.508364 213.143011 
L 423.774545 213.319794 
L 424.040727 213.215422 
L 424.306909 213.968059 
L 424.573091 216.135777 
L 425.371636 211.918996 
L 425.637818 214.485021 
L 425.904 215.789997 
L 426.436364 220.544052 
L 426.436364 220.544052 
" clip-path="url(#pbabce4e32d)" style="fill: none; stroke: #ffa500; stroke-width: 3; stroke-linecap: square"/>
   </g>
   <g id="patch_3">
    <path d="M 7.2 331.2 
L 7.2 7.2 
" style="fill: none; stroke: #000000; stroke-width: 0.8; stroke-linejoin: miter; stroke-linecap: square"/>
   </g>
   <g id="patch_4">
    <path d="M 446.4 331.2 
L 446.4 7.2 
" style="fill: none; stroke: #000000; stroke-width: 0.8; stroke-linejoin: miter; stroke-linecap: square"/>
   </g>
   <g id="patch_5">
    <path d="M 7.2 331.2 
L 446.4 331.2 
" style="fill: none; stroke: #000000; stroke-width: 0.8; stroke-linejoin: miter; stroke-linecap: square"/>
   </g>
   <g id="patch_6">
    <path d="M 7.2 7.2 
L 446.4 7.2 
" style="fill: none; stroke: #000000; stroke-width: 0.8; stroke-linejoin: miter; stroke-linecap: square"/>
   </g>
  </g>
 </g>
 <defs>
  <clipPath id="pbabce4e32d">
   <rect x="7.2" y="7.2" width="439.2" height="324"/>
  </clipPath>
 </defs>
</svg>
