<?xml version="1.0" encoding="utf-8" standalone="no"?>
<!DOCTYPE svg PUBLIC "-//W3C//DTD SVG 1.1//EN"
  "http://www.w3.org/Graphics/SVG/1.1/DTD/svg11.dtd">
<svg xmlns:xlink="http://www.w3.org/1999/xlink" width="453.6pt" height="338.4pt" viewBox="0 0 453.6 338.4" xmlns="http://www.w3.org/2000/svg" version="1.1">
 <metadata>
  <rdf:RDF xmlns:dc="http://purl.org/dc/elements/1.1/" xmlns:cc="http://creativecommons.org/ns#" xmlns:rdf="http://www.w3.org/1999/02/22-rdf-syntax-ns#">
   <cc:Work>
    <dc:type rdf:resource="http://purl.org/dc/dcmitype/StillImage"/>
    <dc:date>2025-05-14T16:26:49.021187</dc:date>
    <dc:format>image/svg+xml</dc:format>
    <dc:creator>
     <cc:Agent>
      <dc:title>Matplotlib v3.10.1, https://matplotlib.org/</dc:title>
     </cc:Agent>
    </dc:creator>
   </cc:Work>
  </rdf:RDF>
 </metadata>
 <defs>
  <style type="text/css">*{stroke-linejoin: round; stroke-linecap: butt}</style>
 </defs>
 <g id="figure_1">
  <g id="patch_1">
   <path d="M 0 338.4 
L 453.6 338.4 
L 453.6 0 
L 0 0 
z
" style="fill: #ffffff"/>
  </g>
  <g id="axes_1">
   <g id="patch_2">
    <path d="M 7.2 331.2 
L 446.4 331.2 
L 446.4 7.2 
L 7.2 7.2 
z
" style="fill: #ffffff"/>
   </g>
   <g id="matplotlib.axis_1"/>
   <g id="matplotlib.axis_2"/>
   <g id="line2d_1">
    <path d="M 27.163636 37.028919 
L 41.005091 37.372144 
L 54.846545 37.492967 
L 68.688 37.391474 
L 82.529455 37.067578 
L 96.370909 36.521367 
L 109.946182 35.769695 
L 123.787636 34.783032 
L 137.629091 33.574019 
L 151.470545 32.142638 
L 165.312 30.488907 
L 179.153455 28.612826 
L 188.203636 27.30685 
L 197.253818 40.850411 
L 206.304 53.994673 
L 215.088 66.370479 
L 223.872 78.37023 
L 232.656 89.99382 
L 241.173818 100.906029 
L 249.691636 111.46448 
L 258.209455 121.669311 
L 266.727273 131.520419 
L 274.978909 140.726405 
L 283.230545 149.600471 
L 291.482182 158.142635 
L 299.467636 166.093241 
L 307.453091 173.732952 
L 315.438545 181.061837 
L 323.157818 187.850946 
L 330.877091 194.34956 
L 338.596364 200.557706 
L 346.315636 206.475391 
L 353.768727 211.913404 
L 361.221818 217.080629 
L 368.674909 221.977048 
L 376.128 226.602706 
L 383.314909 230.806715 
L 390.501818 234.758905 
L 397.688727 238.45932 
L 404.875636 241.907961 
L 412.062545 245.104797 
L 418.983273 247.945258 
L 425.904 250.552242 
L 426.436364 250.743114 
L 426.436364 250.743114 
" clip-path="url(#p45a18c35a3)" style="fill: none; stroke-dasharray: 11.1,4.8; stroke-dashoffset: 0; stroke: #000000; stroke-width: 3"/>
   </g>
   <g id="line2d_2">
    <path d="M 27.163636 271.858764 
L 27.429818 273.34898 
L 27.962182 267.818819 
L 29.026909 263.061085 
L 29.293091 262.949287 
L 30.091636 259.270062 
L 30.357818 258.996899 
L 30.624 257.485058 
L 30.890182 255.025564 
L 31.422545 252.993162 
L 31.688727 252.235481 
L 32.487273 248.72728 
L 33.285818 244.333774 
L 33.552 244.32604 
L 34.084364 240.558314 
L 34.350545 240.660992 
L 34.616727 242.180119 
L 34.882909 241.880433 
L 35.681455 239.393964 
L 36.48 232.94212 
L 36.746182 231.987761 
L 37.012364 229.736923 
L 37.278545 229.32141 
L 37.810909 231.902621 
L 38.343273 230.341017 
L 38.875636 229.514336 
L 39.408 226.38737 
L 39.674182 225.819108 
L 39.940364 226.255469 
L 40.206545 224.659692 
L 41.005091 229.096707 
L 41.537455 228.60586 
L 41.803636 228.069884 
L 42.336 225.135309 
L 42.602182 223.650811 
L 42.868364 224.159425 
L 43.400727 222.142007 
L 43.933091 226.119873 
L 44.199273 222.559557 
L 44.731636 219.114936 
L 45.530182 208.198873 
L 45.796364 207.789224 
L 46.062545 209.731923 
L 46.328727 210.836274 
L 47.127273 222.892924 
L 47.393455 224.236155 
L 47.659636 223.408271 
L 47.925818 220.594518 
L 48.724364 207.201624 
L 48.990545 208.548647 
L 49.522909 215.059612 
L 50.055273 226.538757 
L 50.321455 228.521809 
L 50.587636 228.857213 
L 50.853818 226.576855 
L 51.652364 214.464287 
L 51.918545 212.059534 
L 52.450909 216.460085 
L 53.249455 228.263679 
L 53.515636 229.318961 
L 53.781818 228.682862 
L 54.580364 214.372766 
L 54.846545 209.698285 
L 55.112727 207.226949 
L 55.645091 211.023266 
L 56.177455 223.437283 
L 56.443636 225.388997 
L 56.709818 225.706046 
L 56.976 222.951913 
L 58.040727 204.47093 
L 58.306909 203.946594 
L 58.573091 205.004904 
L 58.839273 208.694355 
L 59.371636 222.233396 
L 59.637818 223.14297 
L 59.904 223.624767 
L 60.170182 222.210406 
L 60.968727 207.535079 
L 61.234909 216.054702 
L 61.501091 212.610028 
L 61.767273 214.622425 
L 62.299636 238.265789 
L 62.565818 243.954777 
L 63.098182 244.986503 
L 63.364364 243.639418 
L 63.630545 237.787889 
L 64.162909 217.715499 
L 64.429091 207.234647 
L 64.961455 218.57142 
L 65.493818 239.719958 
L 65.76 242.460308 
L 66.026182 240.801152 
L 66.292364 240.716232 
L 66.558545 237.669604 
L 67.090909 219.362427 
L 67.357091 206.370624 
L 67.623273 202.939847 
L 68.688 239.292146 
L 68.954182 238.956216 
L 69.486545 236.18954 
L 70.018909 218.181566 
L 70.551273 197.890538 
L 70.817455 199.285622 
L 71.349818 218.118714 
L 71.616 229.602951 
L 71.882182 234.233033 
L 72.680727 228.315909 
L 73.213091 210.376931 
L 73.479273 198.553428 
L 73.745455 192.277805 
L 74.277818 204.3715 
L 74.810182 225.14313 
L 75.076364 227.23834 
L 75.874909 218.427187 
L 76.939636 187.512365 
L 78.004364 221.974643 
L 78.270545 215.08463 
L 78.802909 209.160501 
L 79.069091 205.399613 
L 79.601455 191.560272 
L 79.867636 173.918925 
L 80.133818 173.295932 
L 80.4 188.071523 
L 81.198545 210.167643 
L 81.997091 206.43653 
L 82.263273 202.320189 
L 82.529455 195.397494 
L 82.795636 185.491365 
L 83.061818 166.773336 
L 83.328 175.841794 
L 83.594182 190.184228 
L 84.126545 205.500395 
L 84.392727 208.852616 
L 84.658909 207.750793 
L 84.925091 208.045572 
L 85.191273 206.292069 
L 85.723636 196.018644 
L 86.256 173.482476 
L 86.522182 190.89775 
L 87.320727 211.201541 
L 87.586909 210.930481 
L 87.853091 209.627375 
L 88.119273 209.861655 
L 88.385455 207.038079 
L 88.917818 193.628699 
L 89.184 180.924556 
L 89.450182 178.203561 
L 89.716364 194.822676 
L 90.514909 212.895573 
L 90.781091 211.457968 
L 91.313455 210.356944 
L 92.112 192.2708 
L 92.378182 178.929698 
L 92.910545 198.030032 
L 93.709091 214.701429 
L 93.975273 212.933108 
L 94.241455 211.927792 
L 94.507636 208.989591 
L 95.04 197.941873 
L 95.306182 195.011695 
L 95.572364 188.322622 
L 96.104727 204.027239 
L 96.637091 218.314361 
L 96.903273 218.533709 
L 97.169455 217.1146 
L 97.435636 214.519853 
L 97.968 203.338629 
L 98.234182 198.216874 
L 98.500364 190.397282 
L 98.766545 189.938976 
L 99.032727 197.368748 
L 99.298909 201.496984 
L 99.831273 214.481097 
L 100.097455 214.140304 
L 100.629818 208.961132 
L 101.428364 193.918088 
L 101.694545 182.414373 
L 102.226909 197.261032 
L 103.025455 213.658507 
L 103.291636 213.171074 
L 103.557818 210.568655 
L 104.356364 198.904668 
L 104.888727 183.633946 
L 105.421091 199.451107 
L 105.953455 211.852291 
L 106.219636 214.661207 
L 106.485818 213.395821 
L 107.018182 206.857302 
L 107.284364 203.308607 
L 107.550545 197.483917 
L 107.816727 188.742322 
L 108.082909 185.572378 
L 108.615273 200.436567 
L 109.147636 211.807724 
L 109.413818 213.271277 
L 109.68 212.013966 
L 110.212364 205.004763 
L 110.478545 201.238599 
L 111.010909 185.008594 
L 111.277091 187.705413 
L 112.075636 208.236891 
L 112.341818 209.863551 
L 112.608 209.97714 
L 112.874182 208.199681 
L 113.672727 196.799776 
L 114.205091 181.081202 
L 114.471273 187.185809 
L 115.003636 204.255154 
L 115.269818 209.286932 
L 115.536 211.879872 
L 115.802182 211.391851 
L 116.068364 209.23666 
L 116.866909 196.233823 
L 117.133091 187.827087 
L 117.399273 186.335093 
L 118.197818 208.544012 
L 118.464 212.37567 
L 118.730182 212.747564 
L 118.996364 211.760278 
L 119.262545 209.355261 
L 120.061091 195.95883 
L 120.327273 190.162116 
L 120.593455 192.243737 
L 121.392 211.794583 
L 121.658182 213.403326 
L 121.924364 213.173067 
L 122.190545 212.311361 
L 122.456727 210.317091 
L 123.521455 193.76979 
L 123.787636 198.575927 
L 124.32 213.126938 
L 124.586182 216.241149 
L 124.852364 217.011484 
L 125.118545 216.336831 
L 125.384727 215.259613 
L 125.650909 213.046627 
L 126.449455 198.956003 
L 126.715636 199.4564 
L 127.514182 219.539772 
L 127.780364 222.202146 
L 128.046545 222.23416 
L 128.312727 221.912915 
L 128.845091 219.547707 
L 129.377455 215.955518 
L 129.643636 211.877089 
L 129.909818 215.058901 
L 130.176 221.855015 
L 130.708364 226.700855 
L 130.974545 227.26219 
L 131.240727 226.856043 
L 131.506909 226.72115 
L 131.773091 226.012754 
L 132.305455 222.283283 
L 132.571636 216.054157 
L 132.837818 214.656204 
L 133.370182 224.786255 
L 133.902545 229.691961 
L 134.168727 229.547368 
L 134.434909 229.092371 
L 134.701091 228.871767 
L 134.967273 227.937782 
L 135.499636 223.44305 
L 135.765818 217.468087 
L 136.032 219.053858 
L 136.564364 228.242585 
L 136.830545 232.921237 
L 137.096727 235.144432 
L 137.629091 233.598101 
L 137.895273 233.154946 
L 138.427636 227.574508 
L 138.96 219.592678 
L 139.492364 228.759969 
L 140.024727 241.380255 
L 140.290909 243.199221 
L 141.089455 238.96653 
L 141.888 224.174454 
L 142.154182 223.170665 
L 142.420364 227.569346 
L 142.686545 238.926756 
L 142.952727 245.442431 
L 143.218909 248.052066 
L 143.485091 248.629751 
L 143.751273 248.291099 
L 144.017455 247.741214 
L 144.283636 245.563973 
L 144.549818 240.202913 
L 145.082182 225.749594 
L 145.348364 226.462423 
L 145.614545 237.60907 
L 145.880727 244.061261 
L 146.146909 246.648872 
L 146.413091 246.657584 
L 146.679273 246.936514 
L 146.945455 246.702967 
L 147.211636 245.375467 
L 147.477818 242.963743 
L 147.744 238.013242 
L 148.010182 227.867715 
L 148.276364 223.041644 
L 148.808727 231.372211 
L 149.341091 238.329299 
L 149.607273 239.511319 
L 149.873455 239.693263 
L 150.139636 238.613201 
L 150.405818 236.241076 
L 150.938182 227.242439 
L 151.204364 219.674683 
L 151.470545 216.146503 
L 151.736727 219.604028 
L 152.269091 231.472194 
L 152.535273 234.136666 
L 152.801455 235.353053 
L 153.067636 235.551571 
L 153.333818 234.343822 
L 154.132364 225.715113 
L 154.398545 218.205846 
L 154.664727 215.725416 
L 154.930909 218.583956 
L 155.463273 227.92285 
L 155.995636 232.341441 
L 156.261818 232.787054 
L 156.528 232.119257 
L 156.794182 230.919891 
L 157.060364 228.933627 
L 157.326545 225.647443 
L 157.592727 220.188854 
L 157.858909 219.293422 
L 158.125091 221.590354 
L 158.657455 228.326127 
L 159.189818 231.891315 
L 159.456 232.445778 
L 159.988364 230.373408 
L 160.254545 228.918168 
L 160.786909 222.405018 
L 161.053091 222.296564 
L 161.319273 224.259303 
L 161.851636 230.672558 
L 162.117818 232.860624 
L 162.384 233.810304 
L 162.650182 233.59416 
L 163.448727 230.839405 
L 163.981091 225.274881 
L 164.247273 225.366077 
L 165.312 237.233585 
L 165.578182 237.520103 
L 165.844364 236.843932 
L 166.642909 233.612269 
L 167.175273 228.437732 
L 167.441455 228.868361 
L 168.24 236.874436 
L 168.506182 237.440328 
L 168.772364 236.920548 
L 169.570909 233.065576 
L 169.837091 230.135565 
L 170.369455 220.390101 
L 170.635636 223.527961 
L 171.168 231.522028 
L 171.434182 233.538428 
L 171.700364 234.157848 
L 171.966545 232.998827 
L 172.232727 230.939897 
L 172.498909 227.911851 
L 172.765091 222.735734 
L 173.297455 208.82436 
L 173.563636 208.79706 
L 174.628364 225.935164 
L 174.894545 227.393125 
L 175.160727 225.636084 
L 175.693091 217.765052 
L 176.491636 202.20243 
L 176.757818 202.831305 
L 177.556364 212.774601 
L 177.822545 213.918612 
L 178.088727 213.448586 
L 178.621091 208.158713 
L 178.887273 204.613372 
L 179.153455 198.645397 
L 179.419636 190.019936 
L 179.685818 188.229819 
L 179.952 191.481154 
L 180.484364 200.377657 
L 180.750545 202.04179 
L 181.016727 202.199814 
L 181.282909 200.559303 
L 181.815273 194.008266 
L 182.613818 175.673842 
L 182.88 175.492222 
L 183.678545 189.210697 
L 183.944727 190.985374 
L 184.210909 190.676638 
L 185.275636 175.421602 
L 185.541818 167.422743 
L 185.808 163.231638 
L 186.074182 166.73473 
L 186.606545 176.264909 
L 186.872727 179.096605 
L 187.138909 180.269707 
L 187.405091 177.579831 
L 187.937455 168.829053 
L 188.203636 162.341939 
L 188.736 142.1357 
L 189.002182 140.491782 
L 189.268364 144.632711 
L 189.800727 159.522137 
L 190.066909 162.316324 
L 190.333091 160.89402 
L 190.865455 148.015999 
L 191.397818 135.806047 
L 191.930182 127.685935 
L 192.196364 127.857214 
L 192.462545 130.477752 
L 192.994909 137.306442 
L 193.261091 137.392819 
L 193.527273 135.994233 
L 193.793455 133.415409 
L 194.325818 126.356662 
L 194.858182 122.249125 
L 195.124364 121.962449 
L 195.390545 122.581746 
L 196.189091 125.803727 
L 196.455273 125.45283 
L 196.721455 125.320719 
L 196.987636 124.61601 
L 198.052364 119.743212 
L 199.117091 124.342694 
L 199.649455 125.165223 
L 199.915636 125.477654 
L 200.181818 124.747331 
L 200.980364 121.386164 
L 201.246545 121.031176 
L 202.311273 125.432763 
L 203.109818 125.525934 
L 203.908364 122.914736 
L 204.174545 121.930408 
L 204.440727 121.635954 
L 204.706909 122.162309 
L 204.973091 122.953132 
L 205.505455 124.981321 
L 205.771636 124.969435 
L 206.037818 125.193997 
L 206.304 124.933252 
L 207.634909 120.347201 
L 207.901091 120.597711 
L 208.167273 121.408917 
L 208.433455 122.584608 
L 208.699636 123.086366 
L 209.232 122.981239 
L 210.030545 122.15792 
L 210.562909 119.651674 
L 210.829091 119.662506 
L 211.893818 122.852604 
L 212.426182 123.454399 
L 212.692364 123.311052 
L 212.958545 123.346498 
L 213.224727 122.940263 
L 213.490909 122.131463 
L 213.757091 122.68517 
L 214.289455 128.43766 
L 214.821818 135.786261 
L 215.354182 147.254812 
L 215.620364 147.392435 
L 216.152727 141.956977 
L 216.418909 136.342743 
L 216.685091 133.789779 
L 216.951273 137.256459 
L 217.749818 158.482595 
L 218.282182 162.732478 
L 218.548364 162.904582 
L 218.814545 160.6851 
L 219.080727 157.404517 
L 219.346909 150.951163 
L 219.613091 141.678938 
L 219.879273 139.010665 
L 220.145455 144.062624 
L 220.944 164.70856 
L 221.210182 166.167855 
L 221.476364 166.565013 
L 221.742545 165.701596 
L 222.274909 157.594581 
L 222.807273 143.778089 
L 223.073455 143.937658 
L 223.872 168.089056 
L 224.138182 170.615343 
L 224.404364 170.903635 
L 224.936727 167.479643 
L 225.469091 157.965668 
L 225.735273 148.424937 
L 226.001455 143.302841 
L 226.267636 146.62254 
L 226.8 166.262045 
L 227.066182 171.304866 
L 227.332364 172.445462 
L 227.598545 171.99675 
L 228.130909 167.98486 
L 228.397091 163.92332 
L 228.663273 156.944138 
L 228.929455 146.068183 
L 229.195636 143.49373 
L 230.260364 170.576921 
L 230.526545 170.617432 
L 230.792727 170.414622 
L 231.058909 169.067626 
L 231.325091 166.749161 
L 231.591273 162.664377 
L 232.123636 144.095401 
L 232.389818 145.419057 
L 232.922182 163.544561 
L 233.454545 170.447496 
L 233.720727 170.442818 
L 234.253091 167.442125 
L 234.519273 164.683244 
L 234.785455 158.543586 
L 235.051636 146.672803 
L 235.317818 142.718305 
L 235.584 148.686508 
L 235.850182 160.050669 
L 236.382545 169.398781 
L 236.648727 171.79911 
L 236.914909 172.225026 
L 237.181091 170.947122 
L 237.447273 169.082355 
L 237.713455 165.731178 
L 237.979636 159.601808 
L 238.245818 147.79637 
L 238.512 146.923612 
L 239.044364 164.502256 
L 239.842909 177.124157 
L 240.109091 177.750802 
L 240.375273 176.194438 
L 240.907636 169.934941 
L 241.44 155.687565 
L 241.706182 156.862045 
L 242.238545 169.968359 
L 243.037091 183.774616 
L 243.303273 183.711782 
L 243.569455 181.387015 
L 244.634182 160.016048 
L 244.900364 162.788869 
L 245.698909 181.441659 
L 245.965091 185.288151 
L 246.231273 186.437956 
L 246.497455 186.23044 
L 246.763636 183.562676 
L 247.562182 164.988758 
L 247.828364 162.210811 
L 248.094545 166.447035 
L 248.893091 184.718608 
L 249.159273 187.347924 
L 249.425455 188.307919 
L 249.691636 187.706765 
L 249.957818 185.226853 
L 250.756364 166.482236 
L 251.022545 165.900438 
L 251.288727 170.029797 
L 251.821091 182.209438 
L 252.087273 186.676282 
L 252.353455 188.597738 
L 252.619636 189.691538 
L 252.885818 189.156984 
L 253.152 187.169043 
L 253.418182 183.812362 
L 253.950545 170.82141 
L 254.216727 172.228765 
L 254.749091 184.005814 
L 255.281455 191.052167 
L 255.813818 193.770642 
L 256.346182 192.15657 
L 256.612364 191.271032 
L 257.144727 184.598628 
L 257.410909 187.360652 
L 257.943273 194.899774 
L 258.475636 199.13728 
L 259.008 201.948409 
L 259.274182 201.35527 
L 259.540364 200.30163 
L 259.806545 198.274916 
L 260.072727 193.745536 
L 260.338909 192.749016 
L 260.605091 195.286021 
L 261.403636 205.475272 
L 261.936 207.38406 
L 262.202182 206.842888 
L 262.734545 201.349581 
L 263.266909 191.20301 
L 263.533091 192.447311 
L 264.597818 205.289631 
L 264.864 206.270852 
L 265.130182 206.816878 
L 265.396364 204.964919 
L 265.928727 196.504172 
L 266.194909 190.219262 
L 266.461091 188.134322 
L 266.993455 196.952041 
L 267.525818 205.751686 
L 268.058182 208.273172 
L 268.324364 207.565434 
L 268.590545 204.810099 
L 269.122909 194.846271 
L 269.389091 188.318777 
L 269.655273 189.153587 
L 270.72 210.388001 
L 270.986182 211.363708 
L 271.252364 211.818635 
L 271.518545 210.471612 
L 272.050909 202.642549 
L 272.583273 189.635314 
L 272.849455 193.629481 
L 273.648 211.616001 
L 273.914182 213.680031 
L 274.180364 214.296458 
L 274.446545 214.044104 
L 274.712727 212.108762 
L 275.245091 203.988667 
L 275.511273 194.68801 
L 275.777455 192.533741 
L 276.842182 214.774577 
L 277.108364 215.870396 
L 277.374545 216.355063 
L 277.640727 215.604524 
L 277.906909 212.934196 
L 278.439273 203.40428 
L 278.705455 193.506262 
L 278.971636 194.764029 
L 279.504 207.863408 
L 280.036364 214.753255 
L 280.302545 215.408244 
L 280.568727 215.373676 
L 280.834909 214.244044 
L 281.367273 206.680492 
L 281.899636 192.141174 
L 282.165818 195.902852 
L 282.698182 208.351674 
L 282.964364 212.305954 
L 283.230545 214.195826 
L 283.496727 214.765544 
L 283.762909 213.988644 
L 284.029091 212.187765 
L 284.295273 207.917789 
L 284.561455 201.519535 
L 284.827636 192.104586 
L 285.093818 189.710428 
L 285.892364 208.456652 
L 286.158545 211.896673 
L 286.424727 212.854596 
L 286.690909 213.030282 
L 286.957091 211.673348 
L 287.223273 208.871446 
L 287.755636 196.798582 
L 288.021818 188.248763 
L 288.288 189.879276 
L 289.086545 207.673756 
L 289.352727 210.492777 
L 289.618909 211.41269 
L 289.885091 211.32921 
L 290.151273 209.679473 
L 290.683636 199.66776 
L 291.216 186.314754 
L 291.748364 197.45028 
L 292.280727 208.210583 
L 292.546909 210.553837 
L 292.813091 211.296073 
L 293.079273 210.580505 
L 293.345455 208.733497 
L 293.877818 200.34136 
L 294.144 192.534109 
L 294.410182 190.006322 
L 295.474909 210.73838 
L 295.741091 212.060008 
L 296.007273 212.538697 
L 296.273455 211.448163 
L 296.805818 205.755812 
L 297.072 201.613479 
L 297.338182 193.0314 
L 297.604364 193.389627 
L 298.402909 208.925528 
L 298.669091 212.681281 
L 298.935273 213.492574 
L 299.201455 213.456302 
L 299.733818 209.105936 
L 300 206.274688 
L 300.532364 193.447466 
L 300.798545 195.837463 
L 301.597091 211.847077 
L 301.863273 214.817283 
L 302.129455 215.740409 
L 302.395636 215.09677 
L 302.661818 212.676137 
L 303.194182 205.991988 
L 303.460364 197.654029 
L 303.726545 193.790744 
L 303.992727 197.854355 
L 304.791273 215.494095 
L 305.057455 217.148493 
L 305.323636 217.653903 
L 305.589818 216.271645 
L 306.122182 208.421417 
L 306.388364 203.135898 
L 306.654545 194.333084 
L 306.920727 194.105545 
L 307.985455 216.791363 
L 308.251636 217.396677 
L 308.517818 217.677736 
L 308.784 215.502627 
L 309.316364 206.306746 
L 309.848727 192.295449 
L 310.114909 194.664836 
L 310.913455 217.250003 
L 311.179636 220.261704 
L 311.445818 220.595229 
L 311.712 220.571344 
L 311.978182 216.716363 
L 313.042909 192.108317 
L 313.309091 196.564978 
L 314.107636 220.378111 
L 314.373818 221.66905 
L 314.64 221.876811 
L 314.906182 220.572125 
L 315.438545 209.380586 
L 315.704727 203.277787 
L 315.970909 194.41357 
L 316.237091 194.173901 
L 316.769455 209.729517 
L 317.035636 219.403983 
L 317.301818 224.479775 
L 317.834182 223.842675 
L 318.100364 222.019087 
L 318.632727 208.991996 
L 319.165091 195.00024 
L 319.431273 197.553642 
L 320.229818 226.284551 
L 320.496 228.789709 
L 321.028364 226.884502 
L 321.294545 223.785521 
L 321.826909 208.637297 
L 322.093091 199.137262 
L 322.359273 196.080706 
L 322.625455 202.277387 
L 323.157818 223.115099 
L 323.424 230.055473 
L 323.690182 230.962474 
L 323.956364 230.040884 
L 324.222545 228.619088 
L 325.287273 196.676803 
L 325.553455 196.641005 
L 326.618182 228.860549 
L 326.884364 227.258301 
L 327.416727 225.798813 
L 327.682909 220.584537 
L 328.481455 195.213908 
L 328.747636 198.725058 
L 329.546182 225.713182 
L 329.812364 227.051225 
L 330.078545 225.298354 
L 330.344727 225.580466 
L 330.610909 223.294454 
L 330.877091 217.122422 
L 331.409455 197.695576 
L 331.675636 194.040245 
L 331.941818 199.885572 
L 332.474182 219.261663 
L 332.740364 225.300926 
L 333.006545 225.363198 
L 333.272727 224.359479 
L 333.538909 224.371593 
L 333.805091 220.422616 
L 334.603636 193.964007 
L 334.869818 193.733256 
L 335.668364 223.807229 
L 335.934545 227.675184 
L 336.733091 224.070986 
L 336.999273 218.502319 
L 337.797818 194.262244 
L 338.064 197.29222 
L 338.862545 224.179861 
L 339.128727 225.429174 
L 339.927273 219.679915 
L 340.992 191.363948 
L 341.258182 198.281367 
L 341.790545 216.202174 
L 342.056727 221.198199 
L 342.322909 220.57065 
L 342.855273 218.228915 
L 343.121455 213.993525 
L 343.92 189.09271 
L 344.186182 189.823332 
L 344.984727 217.149371 
L 345.250909 220.336932 
L 345.517091 219.03107 
L 345.783273 218.446332 
L 346.049455 216.780162 
L 346.581818 202.661079 
L 347.114182 186.612184 
L 347.380364 190.632563 
L 347.912727 211.607969 
L 348.178909 218.282242 
L 348.445091 219.786122 
L 349.243636 214.639789 
L 350.042182 191.196137 
L 350.308364 189.627756 
L 351.106909 217.411618 
L 351.373091 222.277524 
L 351.639273 221.494523 
L 351.905455 220.050414 
L 352.171636 219.525402 
L 352.437818 215.82008 
L 353.236364 195.033667 
L 353.502545 199.161859 
L 354.034909 216.374024 
L 354.301091 222.909664 
L 354.567273 225.678254 
L 354.833455 223.598213 
L 355.365818 222.854213 
L 355.898182 209.240882 
L 356.164364 201.476891 
L 356.430545 197.226955 
L 357.495273 225.745108 
L 357.761455 226.825715 
L 358.027636 224.90605 
L 358.293818 224.65697 
L 358.826182 215.780148 
L 359.358545 202.098278 
L 359.624727 202.430618 
L 360.157091 216.523375 
L 360.689455 225.3042 
L 361.221818 222.678413 
L 361.488 222.395845 
L 361.754182 220.24212 
L 362.552727 200.221898 
L 362.818909 204.39801 
L 363.351273 218.819534 
L 363.617455 223.738022 
L 363.883636 225.976167 
L 364.149818 224.329783 
L 364.416 223.686222 
L 364.682182 223.474239 
L 364.948364 219.598287 
L 365.746909 200.400454 
L 366.545455 222.697874 
L 366.811636 227.941425 
L 367.077818 229.087104 
L 367.344 227.327737 
L 367.610182 227.709357 
L 367.876364 227.301665 
L 368.408727 215.575486 
L 368.674909 204.443831 
L 368.941091 203.635426 
L 369.473455 223.895414 
L 370.005818 235.344459 
L 370.538182 233.028391 
L 370.804364 234.621825 
L 371.070545 231.901182 
L 371.602909 217.385678 
L 371.869091 206.087222 
L 372.135273 210.31875 
L 372.401455 223.406893 
L 372.933818 237.126852 
L 373.2 239.661399 
L 373.466182 238.288138 
L 373.732364 238.240499 
L 373.998545 238.011363 
L 374.530909 227.136277 
L 375.063273 209.672073 
L 375.329455 218.544261 
L 375.595636 231.12221 
L 376.128 242.176704 
L 376.394182 242.048561 
L 376.660364 240.831463 
L 376.926545 241.574445 
L 377.192727 240.604338 
L 377.725091 228.912489 
L 377.991273 216.576746 
L 378.257455 215.197595 
L 378.789818 235.50739 
L 379.322182 244.595239 
L 379.854545 242.328908 
L 380.120727 243.06492 
L 380.386909 240.441714 
L 380.919273 226.339099 
L 381.185455 215.225949 
L 381.451636 219.733848 
L 381.717818 231.933064 
L 382.250182 244.256851 
L 382.516364 246.151436 
L 382.782545 244.755173 
L 383.048727 244.785018 
L 383.314909 245.153204 
L 383.847273 235.248005 
L 384.379636 218.685642 
L 385.178182 243.324766 
L 385.444364 248.592799 
L 385.710545 249.059103 
L 385.976727 248.4767 
L 386.242909 248.89051 
L 386.509091 248.705331 
L 387.041455 237.272121 
L 387.307636 226.038008 
L 387.573818 224.885307 
L 388.106182 242.855039 
L 388.372364 249.773213 
L 388.638545 253.402829 
L 388.904727 252.688582 
L 389.170909 252.518782 
L 389.437091 253.154293 
L 389.703273 251.76427 
L 390.235636 238.640607 
L 390.501818 228.222861 
L 390.768 231.927077 
L 391.300364 249.547575 
L 391.566545 254.99495 
L 391.832727 256.85901 
L 392.098909 256.48909 
L 392.365091 257.100312 
L 393.163636 242.027818 
L 393.429818 231.302074 
L 393.696 225.547943 
L 394.494545 251.681216 
L 394.760727 255.240194 
L 395.026909 255.731116 
L 395.293091 255.956837 
L 395.559273 256.492869 
L 395.825455 255.798391 
L 396.357818 244.977479 
L 396.624 233.426594 
L 396.890182 233.102461 
L 397.422545 252.899775 
L 397.688727 257.252424 
L 397.954909 259.265067 
L 398.221091 259.458427 
L 398.753455 260.776851 
L 399.019636 259.348626 
L 399.285818 254.408369 
L 399.818182 236.499381 
L 400.084364 240.651406 
L 400.616727 258.56322 
L 400.882909 261.950817 
L 401.149091 261.80492 
L 401.415273 262.229958 
L 401.681455 263.232698 
L 401.947636 263.334998 
L 402.213818 260.417281 
L 402.48 254.655917 
L 402.746182 243.191962 
L 403.012364 237.894816 
L 403.810909 262.718014 
L 404.077091 265.239661 
L 404.343273 265.849465 
L 404.609455 265.954913 
L 404.875636 265.732308 
L 405.141818 264.417154 
L 405.408 260.378183 
L 405.674182 253.350471 
L 405.940364 242.413231 
L 406.206545 242.124658 
L 406.738909 261.436682 
L 407.005091 266.297993 
L 407.271273 268.439815 
L 407.537455 268.817293 
L 407.803636 268.858212 
L 408.069818 267.726741 
L 408.336 264.599731 
L 409.134545 242.473159 
L 409.666909 253.538481 
L 410.199273 267.095983 
L 410.465455 269.068773 
L 410.731636 269.383412 
L 410.997818 269.148421 
L 411.264 267.228182 
L 411.530182 262.223287 
L 412.328727 236.989404 
L 412.861091 259.802491 
L 413.127273 266.683402 
L 413.393455 269.707589 
L 413.659636 270.14952 
L 413.925818 270.360226 
L 414.192 268.688886 
L 414.458182 265.583747 
L 414.990545 250.978236 
L 415.256727 239.672205 
L 415.522909 243.844507 
L 416.055273 262.737299 
L 416.321455 267.375874 
L 416.587636 269.461064 
L 416.853818 270.153167 
L 417.12 269.976994 
L 417.386182 268.630972 
L 417.652364 266.05167 
L 417.918545 260.093131 
L 418.450909 237.392057 
L 418.717091 245.464837 
L 418.983273 257.856571 
L 419.515636 269.164999 
L 419.781818 270.767071 
L 420.048 271.667067 
L 420.314182 272.139695 
L 420.580364 271.713341 
L 420.846545 270.094222 
L 421.112727 265.852415 
L 421.645091 251.6703 
L 421.911273 253.324374 
L 422.443636 271.239418 
L 422.709818 271.565548 
L 422.976 271.559544 
L 423.508364 273.34205 
L 423.774545 273.161743 
L 424.040727 271.648163 
L 424.573091 267.211385 
L 424.839273 267.083852 
L 425.371636 268.501635 
L 425.637818 271.74047 
L 425.904 273.221035 
L 426.170182 276.110464 
L 426.436364 275.370436 
L 426.436364 275.370436 
" clip-path="url(#p45a18c35a3)" style="fill: none; stroke: #ffa500; stroke-width: 3; stroke-linecap: square"/>
   </g>
   <g id="patch_3">
    <path d="M 7.2 331.2 
L 7.2 7.2 
" style="fill: none; stroke: #000000; stroke-width: 0.8; stroke-linejoin: miter; stroke-linecap: square"/>
   </g>
   <g id="patch_4">
    <path d="M 446.4 331.2 
L 446.4 7.2 
" style="fill: none; stroke: #000000; stroke-width: 0.8; stroke-linejoin: miter; stroke-linecap: square"/>
   </g>
   <g id="patch_5">
    <path d="M 7.2 331.2 
L 446.4 331.2 
" style="fill: none; stroke: #000000; stroke-width: 0.8; stroke-linejoin: miter; stroke-linecap: square"/>
   </g>
   <g id="patch_6">
    <path d="M 7.2 7.2 
L 446.4 7.2 
" style="fill: none; stroke: #000000; stroke-width: 0.8; stroke-linejoin: miter; stroke-linecap: square"/>
   </g>
  </g>
 </g>
 <defs>
  <clipPath id="p45a18c35a3">
   <rect x="7.2" y="7.2" width="439.2" height="324"/>
  </clipPath>
 </defs>
</svg>
