<?xml version="1.0" encoding="utf-8" standalone="no"?>
<!DOCTYPE svg PUBLIC "-//W3C//DTD SVG 1.1//EN"
  "http://www.w3.org/Graphics/SVG/1.1/DTD/svg11.dtd">
<svg xmlns:xlink="http://www.w3.org/1999/xlink" width="453.6pt" height="338.4pt" viewBox="0 0 453.6 338.4" xmlns="http://www.w3.org/2000/svg" version="1.1">
 <metadata>
  <rdf:RDF xmlns:dc="http://purl.org/dc/elements/1.1/" xmlns:cc="http://creativecommons.org/ns#" xmlns:rdf="http://www.w3.org/1999/02/22-rdf-syntax-ns#">
   <cc:Work>
    <dc:type rdf:resource="http://purl.org/dc/dcmitype/StillImage"/>
    <dc:date>2025-05-14T16:28:23.072900</dc:date>
    <dc:format>image/svg+xml</dc:format>
    <dc:creator>
     <cc:Agent>
      <dc:title>Matplotlib v3.10.1, https://matplotlib.org/</dc:title>
     </cc:Agent>
    </dc:creator>
   </cc:Work>
  </rdf:RDF>
 </metadata>
 <defs>
  <style type="text/css">*{stroke-linejoin: round; stroke-linecap: butt}</style>
 </defs>
 <g id="figure_1">
  <g id="patch_1">
   <path d="M 0 338.4 
L 453.6 338.4 
L 453.6 0 
L 0 0 
z
" style="fill: #ffffff"/>
  </g>
  <g id="axes_1">
   <g id="patch_2">
    <path d="M 7.2 331.2 
L 446.4 331.2 
L 446.4 7.2 
L 7.2 7.2 
z
" style="fill: #ffffff"/>
   </g>
   <g id="matplotlib.axis_1"/>
   <g id="matplotlib.axis_2"/>
   <g id="line2d_1">
    <path d="M 27.163636 314.525771 
L 30.624 300.348994 
L 34.084364 287.097239 
L 37.544727 274.745622 
L 40.738909 264.121559 
L 43.933091 254.223721 
L 47.127273 245.032531 
L 50.321455 236.528428 
L 53.515636 228.691868 
L 56.443636 222.078032 
L 59.371636 215.993588 
L 62.299636 210.423464 
L 65.227636 205.352597 
L 67.889455 201.163274 
L 70.551273 197.362779 
L 73.213091 193.939779 
L 75.874909 190.88295 
L 78.536727 188.181004 
L 81.198545 185.822573 
L 83.594182 183.98436 
L 85.989818 182.406973 
L 88.385455 181.082185 
L 90.781091 180.001728 
L 93.176727 179.157306 
L 95.572364 178.540747 
L 97.968 178.143747 
L 100.363636 177.958037 
L 103.025455 177.98948 
L 105.687273 178.260303 
L 108.349091 178.759173 
L 111.010909 179.47475 
L 113.938909 180.498667 
L 116.866909 181.756065 
L 120.061091 183.376316 
L 123.521455 185.402153 
L 126.981818 187.685197 
L 130.708364 190.402927 
L 134.967273 193.798943 
L 139.492364 197.696419 
L 144.816 202.589204 
L 151.204364 208.777765 
L 162.117818 219.723016 
L 171.434182 228.936954 
L 177.556364 234.677619 
L 177.822545 234.918895 
L 178.088727 235.000971 
L 181.016727 232.578872 
L 184.477091 229.399114 
L 188.469818 225.406878 
L 194.059636 219.470706 
L 203.376 209.559476 
L 207.368727 205.642653 
L 210.829091 202.554039 
L 213.757091 200.22777 
L 216.418909 198.386661 
L 218.814545 196.985065 
L 221.210182 195.854142 
L 223.339636 195.098572 
L 225.469091 194.59828 
L 227.332364 194.385217 
L 229.195636 194.395575 
L 231.058909 194.642364 
L 232.922182 195.138645 
L 234.785455 195.89748 
L 236.648727 196.931895 
L 238.512 198.254954 
L 240.375273 199.8797 
L 242.238545 201.819142 
L 244.101818 204.086386 
L 245.965091 206.694415 
L 247.828364 209.656352 
L 249.957818 213.491415 
L 252.087273 217.825243 
L 254.216727 222.677263 
L 256.346182 228.066873 
L 258.475636 234.013632 
L 259.274182 236.391314 
L 259.540364 236.405754 
L 262.734545 230.052005 
L 265.928727 224.192054 
L 269.122909 218.80261 
L 272.317091 213.860466 
L 275.511273 209.342349 
L 278.705455 205.225059 
L 281.899636 201.485414 
L 285.093818 198.10009 
L 288.288 195.045886 
L 291.482182 192.299593 
L 294.676364 189.837983 
L 298.136727 187.465454 
L 301.597091 185.370227 
L 305.323636 183.390063 
L 309.050182 181.660296 
L 313.042909 180.042915 
L 317.568 178.448937 
L 322.891636 176.812551 
L 331.143273 174.545658 
L 340.459636 171.934847 
L 345.783273 170.206484 
L 350.308364 168.500681 
L 354.301091 166.758993 
L 358.027636 164.891461 
L 361.488 162.915134 
L 364.948364 160.675269 
L 368.142545 158.348254 
L 371.336727 155.748275 
L 374.530909 152.852104 
L 377.725091 149.636514 
L 380.919273 146.078295 
L 383.847273 142.495744 
L 386.775273 138.587822 
L 389.969455 133.932547 
L 393.163636 128.845563 
L 396.357818 123.30366 
L 399.552 117.28356 
L 402.746182 110.762 
L 405.940364 103.715823 
L 409.134545 96.121786 
L 412.328727 87.956607 
L 415.522909 79.197043 
L 418.717091 69.819954 
L 422.177455 58.937538 
L 425.637818 47.273428 
L 426.436364 44.467654 
L 426.436364 44.467654 
" clip-path="url(#pf37b5dd159)" style="fill: none; stroke-dasharray: 11.1,4.8; stroke-dashoffset: 0; stroke: #000000; stroke-width: 3"/>
   </g>
   <g id="line2d_2">
    <path d="M 27.163636 203.017884 
L 27.962182 191.514546 
L 29.825455 163.026072 
L 30.624 153.416731 
L 31.422545 146.166831 
L 32.221091 141.262363 
L 32.753455 139.211789 
L 33.285818 138.020631 
L 33.818182 137.553423 
L 34.084364 137.600773 
L 34.616727 138.055603 
L 35.149091 138.990036 
L 35.681455 140.247943 
L 36.48 142.527661 
L 38.875636 149.941396 
L 39.940364 152.548363 
L 40.738909 154.093017 
L 41.537455 155.187422 
L 42.336 155.957458 
L 43.134545 156.408567 
L 43.666909 156.554723 
L 43.933091 159.119712 
L 44.731636 177.967868 
L 45.530182 202.376905 
L 46.594909 243.11298 
L 47.925818 297.245022 
L 48.458182 274.544984 
L 49.522909 228.878763 
L 50.853818 182.049843 
L 52.184727 144.351056 
L 53.249455 119.692597 
L 54.314182 99.412201 
L 55.378909 83.233126 
L 56.177455 73.736198 
L 56.976 66.537931 
L 57.508364 63.01005 
L 58.040727 60.487634 
L 58.573091 59.000653 
L 58.839273 58.61531 
L 59.105455 58.493873 
L 59.371636 58.587395 
L 59.637818 58.935203 
L 60.170182 60.258771 
L 60.436364 61.217554 
L 61.234909 61.423173 
L 62.033455 61.867698 
L 62.832 62.57878 
L 63.630545 63.576292 
L 64.429091 64.863431 
L 65.493818 67.02668 
L 65.76 67.612814 
L 66.558545 65.006567 
L 67.090909 64.116078 
L 67.357091 63.957422 
L 67.623273 63.989357 
L 67.889455 64.222311 
L 68.155636 64.664817 
L 68.688 66.263667 
L 69.220364 68.717806 
L 70.018909 73.989904 
L 70.817455 81.054532 
L 71.882182 92.846767 
L 73.479273 113.967337 
L 76.407273 153.631585 
L 76.939636 159.832006 
L 77.472 171.586442 
L 78.004364 182.380691 
L 78.536727 189.223162 
L 78.802909 190.964289 
L 79.069091 191.492917 
L 79.335273 190.747328 
L 79.601455 188.671667 
L 80.133818 181.670224 
L 80.666182 187.33725 
L 82.529455 208.261374 
L 85.457455 240.666118 
L 87.054545 261.284961 
L 88.385455 281.271992 
L 89.716364 304.521066 
L 90.248727 314.900428 
L 90.514909 312.676079 
L 91.579636 298.228111 
L 92.910545 276.204544 
L 93.709091 261.321864 
L 95.572364 214.40924 
L 96.903273 186.784279 
L 97.968 168.840851 
L 99.032727 154.382923 
L 100.097455 142.981789 
L 101.162182 134.138903 
L 102.226909 127.340639 
L 103.291636 122.159939 
L 104.356364 118.182073 
L 105.154909 116.506713 
L 107.284364 114.072798 
L 110.212364 110.793795 
L 111.010909 109.464258 
L 112.341818 106.809485 
L 114.205091 102.503492 
L 116.334545 97.548672 
L 117.133091 96.083197 
L 117.665455 95.385967 
L 118.197818 94.98923 
L 118.730182 94.988651 
L 118.996364 95.171078 
L 119.528727 95.978456 
L 120.061091 97.490596 
L 120.593455 99.86754 
L 121.125818 103.334536 
L 121.658182 108.046781 
L 122.190545 114.317076 
L 122.989091 127.198749 
L 123.787636 145.292108 
L 124.586182 170.017034 
L 125.384727 202.967217 
L 125.650909 216.111575 
L 126.981818 155.729016 
L 129.643636 127.366394 
L 130.442182 121.198276 
L 130.974545 118.234391 
L 131.506909 116.37181 
L 131.773091 115.888433 
L 132.039273 115.703583 
L 132.305455 115.820122 
L 132.571636 116.238435 
L 133.104 118.055229 
L 133.636364 121.055614 
L 134.434909 127.612129 
L 135.499636 139.210824 
L 137.362909 160.524232 
L 137.895273 164.69994 
L 138.427636 167.262068 
L 139.492364 195.336486 
L 140.024727 202.513027 
L 140.290909 204.311045 
L 140.557091 205.026068 
L 140.823273 204.750812 
L 141.089455 203.585215 
L 141.621818 199.017994 
L 142.420364 188.381032 
L 143.485091 172.804945 
L 143.751273 171.067014 
L 144.549818 170.306467 
L 145.348364 169.264528 
L 147.211636 166.408025 
L 148.010182 165.325751 
L 148.808727 164.67487 
L 149.341091 164.554275 
L 149.873455 164.779259 
L 150.405818 165.474979 
L 150.938182 166.711152 
L 151.470545 168.537215 
L 152.269091 172.67616 
L 153.067636 178.823096 
L 153.866182 187.235318 
L 154.664727 198.179761 
L 155.463273 210.259164 
L 156.794182 194.995157 
L 157.858909 184.844486 
L 158.923636 176.526691 
L 159.988364 169.978814 
L 161.053091 164.88479 
L 161.851636 161.760686 
L 162.650182 159.443187 
L 163.182545 158.412387 
L 163.714909 157.84079 
L 163.981091 157.744318 
L 164.247273 157.771601 
L 164.779636 158.202098 
L 165.312 159.138884 
L 165.844364 160.579095 
L 166.642909 163.65406 
L 167.441455 167.753012 
L 168.506182 174.597748 
L 169.837091 184.834409 
L 174.096 219.169036 
L 175.160727 225.299512 
L 175.959273 228.590129 
L 176.491636 230.053173 
L 176.757818 230.548014 
L 177.024 231.574398 
L 177.556364 234.350765 
L 177.822545 234.299299 
L 178.088727 233.914018 
L 181.016727 213.63111 
L 182.613818 204.050439 
L 183.944727 197.342467 
L 185.009455 192.983138 
L 186.074182 189.647182 
L 186.872727 187.86385 
L 187.405091 187.031568 
L 187.937455 186.502668 
L 188.469818 186.293213 
L 189.002182 186.371891 
L 189.534545 186.80008 
L 190.066909 187.530658 
L 190.865455 189.236101 
L 191.664 191.689521 
L 192.462545 194.88342 
L 193.261091 198.801639 
L 193.527273 200.260337 
L 194.325818 212.103618 
L 195.656727 235.670874 
L 198.584727 292.440837 
L 198.850909 289.791171 
L 200.181818 264.2666 
L 201.778909 237.84399 
L 203.908364 206.84905 
L 208.433455 145.679487 
L 210.030545 126.39597 
L 210.829091 117.460879 
L 211.361455 113.534171 
L 211.893818 111.513163 
L 212.16 111.215444 
L 212.426182 111.44055 
L 212.692364 112.122067 
L 213.224727 115.042326 
L 213.757091 119.970074 
L 214.289455 126.669251 
L 214.555636 126.68126 
L 215.088 124.361426 
L 215.354182 123.733175 
L 215.620364 123.444058 
L 215.886545 123.410385 
L 216.152727 123.614336 
L 216.685091 124.589587 
L 217.483636 126.993077 
L 219.346909 133.252715 
L 219.879273 134.484217 
L 220.411636 135.240753 
L 220.677818 135.42562 
L 220.944 135.472495 
L 221.210182 135.376322 
L 221.742545 134.743015 
L 222.274909 133.517393 
L 222.807273 131.717629 
L 223.605818 128.036956 
L 224.670545 121.574666 
L 226.8 106.105742 
L 227.598545 92.820047 
L 228.397091 76.228663 
L 229.195636 55.910028 
L 229.994182 31.381047 
L 230.260364 28.825696 
L 231.325091 60.796976 
L 232.389818 85.255644 
L 233.188364 98.866604 
L 233.986909 108.763218 
L 234.519273 113.353956 
L 235.051636 116.435697 
L 235.584 118.1257 
L 235.850182 118.436551 
L 236.116364 118.440449 
L 236.382545 118.1507 
L 236.648727 117.567937 
L 237.181091 115.568207 
L 237.713455 112.622597 
L 238.512 106.779921 
L 241.44 83.11606 
L 241.972364 81.318526 
L 242.238545 81.125424 
L 242.504727 81.455816 
L 242.770909 82.398342 
L 243.303273 94.198829 
L 244.101818 111.383949 
L 244.634182 118.018378 
L 245.166545 121.540554 
L 245.432727 122.392454 
L 245.698909 122.727955 
L 245.965091 122.656764 
L 246.231273 122.249546 
L 246.763636 120.612968 
L 247.562182 116.900798 
L 250.224 103.291049 
L 251.022545 100.392701 
L 251.821091 98.261861 
L 252.619636 96.865505 
L 253.152 96.299174 
L 253.684364 95.977227 
L 254.216727 95.89545 
L 254.749091 95.991764 
L 255.281455 96.236375 
L 256.08 96.805322 
L 257.677091 98.377311 
L 260.072727 101.101044 
L 261.137455 105.948157 
L 261.936 108.702561 
L 262.734545 110.659173 
L 263.533091 111.882161 
L 264.065455 112.360815 
L 264.864 112.722211 
L 266.727273 113.201656 
L 267.259636 113.610155 
L 267.792 114.277539 
L 268.324364 115.263956 
L 269.122909 117.468639 
L 269.921455 120.64629 
L 270.72 124.80969 
L 271.784727 131.770754 
L 273.381818 143.010336 
L 273.648 141.809241 
L 274.446545 133.497783 
L 275.245091 127.441921 
L 276.043636 123.298165 
L 276.576 121.436463 
L 276.842182 118.742136 
L 277.374545 110.920972 
L 277.906909 105.33999 
L 278.439273 101.688811 
L 278.971636 99.723807 
L 279.237818 99.280458 
L 279.504 99.18353 
L 279.770182 99.373559 
L 280.036364 99.824404 
L 280.568727 101.451836 
L 281.101091 103.831414 
L 281.899636 108.400031 
L 284.827636 126.475676 
L 285.626182 129.448691 
L 286.690909 164.262929 
L 288.021818 202.142809 
L 289.086545 226.484008 
L 290.151273 245.696615 
L 290.949818 256.826052 
L 291.748364 265.158494 
L 292.280727 269.192216 
L 292.813091 272.009454 
L 293.345455 273.613369 
L 293.611636 273.947377 
L 293.877818 274.022242 
L 294.144 273.804004 
L 294.410182 273.340035 
L 294.942545 271.593195 
L 295.474909 268.812263 
L 296.007273 265.018057 
L 296.805818 257.440399 
L 297.072 252.156008 
L 298.136727 208.797139 
L 298.935273 186.240728 
L 299.733818 171.428594 
L 300.266182 165.103559 
L 300.798545 161.038543 
L 301.330909 158.929104 
L 301.597091 158.432788 
L 301.863273 158.274395 
L 302.129455 158.40389 
L 302.661818 159.283126 
L 303.460364 161.576222 
L 304.525091 164.689722 
L 305.057455 165.600454 
L 305.323636 165.780494 
L 305.589818 165.703861 
L 305.856 165.365779 
L 306.122182 164.739143 
L 306.654545 162.511778 
L 307.186909 158.787811 
L 307.719273 153.332286 
L 308.251636 146.033474 
L 309.050182 131.29454 
L 310.647273 97.485066 
L 311.712 79.279487 
L 313.309091 101.523325 
L 314.64 117.066688 
L 315.704727 127.531194 
L 317.035636 138.213961 
L 318.100364 144.967562 
L 319.165091 150.346226 
L 320.229818 154.477183 
L 321.028364 156.908253 
L 322.093091 159.411568 
L 323.157818 161.286438 
L 324.488727 163.077319 
L 326.884364 166.088922 
L 327.949091 168.19083 
L 329.013818 170.825738 
L 330.078545 174.161983 
L 331.143273 178.327096 
L 332.208 183.591372 
L 333.006545 188.391047 
L 334.071273 196.349431 
L 334.869818 203.784365 
L 335.668364 212.867184 
L 336.466909 224.056695 
L 337.265455 237.92934 
L 338.064 252.847611 
L 338.330182 250.387784 
L 339.661091 207.317952 
L 340.725818 178.968357 
L 341.524364 162.331352 
L 342.322909 150.131267 
L 342.855273 144.671844 
L 343.387636 141.355358 
L 343.653818 140.567029 
L 343.92 140.481793 
L 344.186182 140.958902 
L 344.718545 143.193325 
L 345.783273 150.001403 
L 346.581818 154.745935 
L 347.114182 156.90339 
L 347.380364 157.551147 
L 347.646545 157.899621 
L 347.912727 157.882118 
L 348.178909 157.501796 
L 348.445091 156.764152 
L 348.977455 154.127918 
L 349.509818 149.913411 
L 350.308364 140.801019 
L 351.106909 128.579006 
L 351.373091 128.776391 
L 352.171636 134.186674 
L 352.704 136.617481 
L 353.236364 138.260959 
L 353.768727 139.348009 
L 354.301091 139.950259 
L 354.833455 140.192852 
L 355.365818 140.181019 
L 355.898182 139.987127 
L 356.696727 139.493708 
L 359.358545 137.7934 
L 359.890909 137.631672 
L 360.423273 134.247875 
L 361.221818 127.37784 
L 362.818909 110.556925 
L 364.149818 97.394054 
L 364.948364 91.327851 
L 365.480727 88.377009 
L 366.013091 86.483951 
L 366.279273 85.940128 
L 366.545455 85.709245 
L 366.811636 85.788126 
L 367.077818 86.165656 
L 367.344 86.848332 
L 367.876364 89.242762 
L 368.408727 92.914166 
L 368.674909 95.227627 
L 368.941091 101.597465 
L 369.739636 128.55397 
L 370.538182 149.541113 
L 371.336727 165.597382 
L 372.135273 177.677487 
L 372.933818 186.571717 
L 373.732364 193.001221 
L 374.530909 197.520171 
L 375.329455 200.641519 
L 376.128 202.718076 
L 376.394182 203.233633 
L 377.192727 205.555091 
L 377.725091 206.284335 
L 377.991273 206.399697 
L 378.523636 206.239961 
L 379.056 205.734999 
L 380.919273 203.5678 
L 381.451636 203.490368 
L 381.717818 203.656476 
L 381.984 203.979591 
L 382.516364 205.18303 
L 383.048727 207.282418 
L 383.581091 210.548641 
L 384.113455 215.135437 
L 384.645818 221.343583 
L 386.242909 243.213042 
L 386.775273 246.396469 
L 387.041455 247.103149 
L 387.307636 247.194034 
L 387.573818 246.67187 
L 387.84 245.605401 
L 388.372364 241.666097 
L 388.904727 235.487841 
L 389.703273 222.225777 
L 390.501818 204.561959 
L 391.566545 175.312692 
L 393.429818 120.856052 
L 395.026909 101.23319 
L 396.357818 87.529287 
L 397.422545 78.426656 
L 398.487273 71.048086 
L 399.285818 66.618918 
L 399.552 65.536345 
L 399.818182 67.95855 
L 400.084364 71.770105 
L 401.415273 98.499274 
L 402.746182 121.102507 
L 404.077091 140.184249 
L 405.408 156.407092 
L 406.738909 170.212751 
L 408.069818 181.987264 
L 412.328727 215.411879 
L 413.393455 221.415994 
L 414.724364 227.516054 
L 416.055273 232.556444 
L 417.652364 237.752127 
L 422.177455 251.753557 
L 423.242182 256.048498 
L 424.306909 261.414377 
L 425.105455 266.51218 
L 425.904 272.89487 
L 426.436364 278.092985 
L 426.436364 278.092985 
" clip-path="url(#pf37b5dd159)" style="fill: none; stroke: #0000ff; stroke-width: 3; stroke-linecap: square"/>
   </g>
   <g id="patch_3">
    <path d="M 7.2 331.2 
L 7.2 7.2 
" style="fill: none; stroke: #000000; stroke-width: 0.8; stroke-linejoin: miter; stroke-linecap: square"/>
   </g>
   <g id="patch_4">
    <path d="M 446.4 331.2 
L 446.4 7.2 
" style="fill: none; stroke: #000000; stroke-width: 0.8; stroke-linejoin: miter; stroke-linecap: square"/>
   </g>
   <g id="patch_5">
    <path d="M 7.2 331.2 
L 446.4 331.2 
" style="fill: none; stroke: #000000; stroke-width: 0.8; stroke-linejoin: miter; stroke-linecap: square"/>
   </g>
   <g id="patch_6">
    <path d="M 7.2 7.2 
L 446.4 7.2 
" style="fill: none; stroke: #000000; stroke-width: 0.8; stroke-linejoin: miter; stroke-linecap: square"/>
   </g>
  </g>
 </g>
 <defs>
  <clipPath id="pf37b5dd159">
   <rect x="7.2" y="7.2" width="439.2" height="324"/>
  </clipPath>
 </defs>
</svg>
