<?xml version="1.0" encoding="utf-8" standalone="no"?>
<!DOCTYPE svg PUBLIC "-//W3C//DTD SVG 1.1//EN"
  "http://www.w3.org/Graphics/SVG/1.1/DTD/svg11.dtd">
<svg xmlns:xlink="http://www.w3.org/1999/xlink" width="453.6pt" height="338.4pt" viewBox="0 0 453.6 338.4" xmlns="http://www.w3.org/2000/svg" version="1.1">
 <metadata>
  <rdf:RDF xmlns:dc="http://purl.org/dc/elements/1.1/" xmlns:cc="http://creativecommons.org/ns#" xmlns:rdf="http://www.w3.org/1999/02/22-rdf-syntax-ns#">
   <cc:Work>
    <dc:type rdf:resource="http://purl.org/dc/dcmitype/StillImage"/>
    <dc:date>2025-05-14T16:18:17.441898</dc:date>
    <dc:format>image/svg+xml</dc:format>
    <dc:creator>
     <cc:Agent>
      <dc:title>Matplotlib v3.10.1, https://matplotlib.org/</dc:title>
     </cc:Agent>
    </dc:creator>
   </cc:Work>
  </rdf:RDF>
 </metadata>
 <defs>
  <style type="text/css">*{stroke-linejoin: round; stroke-linecap: butt}</style>
 </defs>
 <g id="figure_1">
  <g id="patch_1">
   <path d="M 0 338.4 
L 453.6 338.4 
L 453.6 0 
L 0 0 
z
" style="fill: #ffffff"/>
  </g>
  <g id="axes_1">
   <g id="patch_2">
    <path d="M 7.2 331.2 
L 446.4 331.2 
L 446.4 7.2 
L 7.2 7.2 
z
" style="fill: #ffffff"/>
   </g>
   <g id="matplotlib.axis_1"/>
   <g id="matplotlib.axis_2"/>
   <g id="line2d_1">
    <path d="M 27.163636 51.123748 
L 31.688727 61.056633 
L 36.213818 71.544437 
L 40.738909 82.587125 
L 45.530182 94.884138 
L 50.321455 107.803241 
L 55.112727 121.34445 
L 60.170182 136.312739 
L 65.227636 151.974237 
L 70.551273 169.208796 
L 75.874909 187.211353 
L 81.198545 205.981911 
L 86.788364 226.517558 
L 92.378182 247.899928 
L 95.04 258.379612 
L 95.306182 258.782743 
L 97.701818 255.830546 
L 100.097455 253.223996 
L 102.493091 250.96309 
L 104.622545 249.243571 
L 106.752 247.797149 
L 108.881455 246.623841 
L 111.010909 245.723638 
L 112.874182 245.159981 
L 114.737455 244.805423 
L 116.600727 244.659956 
L 118.464 244.723598 
L 120.327273 244.996317 
L 122.190545 245.478144 
L 124.053818 246.169072 
L 126.183273 247.214724 
L 128.312727 248.53349 
L 130.442182 250.125352 
L 132.571636 251.990321 
L 134.701091 254.128394 
L 137.096727 256.860186 
L 139.492364 259.9376 
L 141.888 263.360679 
L 144.549818 267.569476 
L 147.211636 272.204996 
L 149.873455 277.267243 
L 152.801455 283.328589 
L 155.729455 289.906279 
L 158.923636 297.670795 
L 162.117818 306.049835 
L 162.384 306.775828 
L 169.038545 256.029559 
L 171.700364 238.251112 
L 174.362182 221.948274 
L 176.757818 208.537297 
L 179.153455 196.32156 
L 181.549091 185.301108 
L 183.678545 176.508503 
L 185.808 168.66032 
L 187.671273 162.567783 
L 189.534545 157.198336 
L 191.397818 152.551944 
L 192.994909 149.14478 
L 194.592 146.268833 
L 195.922909 144.277987 
L 197.253818 142.656068 
L 198.584727 141.403041 
L 199.649455 140.666204 
L 200.714182 140.165481 
L 201.778909 139.900838 
L 202.843636 139.872309 
L 203.908364 140.079842 
L 204.973091 140.523507 
L 206.037818 141.203251 
L 207.102545 142.119091 
L 208.433455 143.595908 
L 209.764364 145.441617 
L 211.095273 147.656201 
L 212.692364 150.800688 
L 214.289455 154.476358 
L 215.886545 158.683246 
L 217.749818 164.262718 
L 219.613091 170.565176 
L 221.742545 178.653388 
L 223.605818 186.505205 
L 223.872 185.36661 
L 225.469091 174.5945 
L 227.066182 165.361373 
L 228.397091 158.842709 
L 229.728 153.39282 
L 230.792727 149.80242 
L 231.857455 146.895909 
L 232.922182 144.673512 
L 233.720727 143.45551 
L 234.519273 142.622289 
L 235.317818 142.173779 
L 235.850182 142.088543 
L 236.382545 142.174306 
L 236.914909 142.431066 
L 237.713455 143.136846 
L 238.512 144.227319 
L 239.310545 145.702538 
L 240.375273 148.268072 
L 241.44 151.517458 
L 242.504727 155.450977 
L 243.835636 161.329661 
L 245.166545 168.277084 
L 246.763636 178.024759 
L 248.360727 189.3114 
L 249.957818 202.136831 
L 251.821091 219.045194 
L 252.087273 221.631699 
L 252.353455 222.302103 
L 254.749091 205.18497 
L 257.144727 189.657628 
L 259.274182 177.190099 
L 261.403636 165.978739 
L 263.533091 156.023645 
L 265.396364 148.343301 
L 267.259636 141.624707 
L 268.856727 136.631438 
L 270.453818 132.344704 
L 271.784727 129.312191 
L 273.115636 126.77034 
L 274.446545 124.719205 
L 275.511273 123.431575 
L 276.576 122.457957 
L 277.640727 121.798403 
L 278.705455 121.452878 
L 279.504 121.399823 
L 280.302545 121.523436 
L 281.101091 121.823666 
L 282.165818 122.49874 
L 283.230545 123.487896 
L 284.295273 124.791063 
L 285.36 126.408277 
L 285.892364 127.693414 
L 287.489455 131.679234 
L 289.086545 135.065295 
L 290.417455 137.428862 
L 291.748364 139.375923 
L 293.079273 140.906497 
L 294.144 141.831045 
L 295.208727 142.489055 
L 296.273455 142.880507 
L 297.338182 143.005402 
L 298.402909 142.863723 
L 299.467636 142.455505 
L 300.532364 141.780729 
L 301.597091 140.839379 
L 302.661818 139.63149 
L 303.992727 137.746753 
L 305.323636 135.445547 
L 306.654545 132.727747 
L 308.251636 128.916736 
L 309.848727 124.505932 
L 311.445818 119.495335 
L 313.309091 112.891612 
L 315.172364 105.471627 
L 317.301818 95.991939 
L 319.431273 85.446129 
L 321.560727 73.834074 
L 323.956364 59.495863 
L 326.352 43.808328 
L 327.150545 38.279154 
L 327.416727 37.682732 
L 330.610909 65.30527 
L 333.538909 88.722412 
L 336.466909 110.318774 
L 339.128727 128.371789 
L 341.790545 144.920037 
L 344.186182 158.52696 
L 346.581818 170.914915 
L 348.977455 182.084025 
L 351.106909 190.988867 
L 353.236364 198.930721 
L 355.099636 205.08985 
L 356.962909 210.511571 
L 358.826182 215.196007 
L 360.423273 218.62437 
L 362.020364 221.511017 
L 363.351273 223.502742 
L 364.682182 225.11827 
L 366.013091 226.357603 
L 367.077818 227.078218 
L 368.142545 227.558066 
L 369.207273 227.797165 
L 370.272 227.795488 
L 371.336727 227.553045 
L 372.401455 227.069844 
L 373.466182 226.345875 
L 374.530909 225.381149 
L 375.861818 223.83668 
L 377.192727 221.916005 
L 378.523636 219.619135 
L 380.120727 216.366317 
L 381.717818 212.571791 
L 383.314909 208.235531 
L 385.178182 202.49196 
L 387.041455 196.010981 
L 388.106182 191.976548 
L 389.170909 183.267854 
L 390.768 170.986878 
L 392.365091 160.283623 
L 393.962182 151.158116 
L 395.293091 144.758783 
L 396.624 139.455084 
L 397.688727 136.000992 
L 398.753455 133.248098 
L 399.818182 131.196453 
L 400.616727 130.117901 
L 401.415273 129.433751 
L 401.947636 129.196829 
L 402.48 129.135136 
L 403.012364 129.248813 
L 403.544727 129.537754 
L 404.343273 130.299907 
L 405.141818 131.456427 
L 405.940364 133.007471 
L 407.005091 135.689017 
L 408.069818 139.071796 
L 409.134545 143.155789 
L 410.465455 149.24687 
L 411.796364 156.433584 
L 413.393455 166.503953 
L 414.990545 178.152042 
L 416.587636 191.377897 
L 418.450909 208.802195 
L 420.314182 228.373739 
L 422.443636 253.3711 
L 424.573091 281.173021 
L 426.436364 307.800822 
L 426.436364 307.800822 
" clip-path="url(#p854b7e480d)" style="fill: none; stroke-dasharray: 11.1,4.8; stroke-dashoffset: 0; stroke: #000000; stroke-width: 3"/>
   </g>
   <g id="line2d_2">
    <path d="M 27.163636 78.34523 
L 28.760727 79.500942 
L 29.559273 79.741656 
L 30.091636 79.685687 
L 30.624 79.449414 
L 31.422545 78.823568 
L 32.753455 77.641715 
L 33.285818 77.394399 
L 33.818182 77.42026 
L 34.350545 77.799001 
L 34.882909 78.589683 
L 35.415273 79.827471 
L 36.213818 82.541285 
L 37.012364 86.223346 
L 38.077091 92.323696 
L 40.738909 108.393079 
L 41.537455 111.656405 
L 42.069818 113.099548 
L 42.602182 113.916196 
L 42.868364 114.094024 
L 43.134545 114.127065 
L 43.400727 114.025361 
L 43.933091 113.472303 
L 44.731636 112.025297 
L 46.062545 109.29261 
L 46.594909 108.546714 
L 47.127273 108.201926 
L 47.393455 108.213443 
L 47.659636 108.362496 
L 48.192 109.108954 
L 48.724364 110.499042 
L 49.256727 112.568962 
L 50.055273 116.972428 
L 50.853818 122.875305 
L 51.918545 132.722603 
L 53.781818 152.886497 
L 55.645091 172.162473 
L 56.976 183.65403 
L 58.306909 193.390671 
L 60.170182 205.334453 
L 62.033455 216.033125 
L 63.098182 221.209541 
L 63.896727 224.340676 
L 64.695273 226.655191 
L 65.227636 227.701562 
L 65.76 228.350153 
L 66.292364 228.625409 
L 66.824727 228.57202 
L 67.357091 228.249933 
L 68.155636 227.413947 
L 71.083636 223.789488 
L 72.148364 222.987421 
L 73.213091 222.482283 
L 75.342545 221.584666 
L 76.141091 220.996443 
L 77.205818 219.907778 
L 78.802909 218.141739 
L 79.335273 217.759759 
L 79.867636 217.600374 
L 80.4 217.726674 
L 80.932364 218.185797 
L 81.464727 219.004455 
L 81.997091 220.186949 
L 82.795636 222.599638 
L 83.860364 226.785625 
L 85.723636 235.488394 
L 87.853091 245.206351 
L 89.184 250.407232 
L 90.514909 254.725457 
L 91.579636 257.416966 
L 92.378182 258.900647 
L 93.176727 259.871527 
L 93.709091 260.226392 
L 94.241455 260.356712 
L 94.773818 260.282528 
L 95.572364 259.851824 
L 96.370909 259.139202 
L 97.701818 257.590681 
L 99.298909 255.350535 
L 100.629818 253.04181 
L 101.960727 250.199076 
L 104.356364 244.290186 
L 105.953455 240.650107 
L 107.284364 238.125839 
L 109.147636 235.131273 
L 113.938909 227.822824 
L 115.003636 226.82 
L 115.802182 226.355803 
L 116.600727 226.123051 
L 117.399273 226.086385 
L 118.464 226.266723 
L 120.061091 226.816717 
L 122.456727 227.664799 
L 126.183273 228.735171 
L 126.981818 229.268969 
L 127.780364 230.053147 
L 128.578909 231.133902 
L 129.643636 233.061485 
L 130.708364 235.479669 
L 135.233455 246.481086 
L 136.564364 248.867292 
L 137.895273 250.842026 
L 139.226182 252.42163 
L 140.557091 253.600517 
L 141.888 254.459159 
L 144.816 256.176356 
L 146.146909 257.301986 
L 147.211636 258.482935 
L 148.542545 260.357568 
L 149.873455 262.66509 
L 151.204364 265.374994 
L 152.535273 268.520534 
L 153.866182 272.207366 
L 155.463273 277.381385 
L 158.125091 286.243651 
L 158.923636 288.178158 
L 159.456 289.061631 
L 159.988364 289.53235 
L 160.254545 289.591157 
L 160.520727 289.521961 
L 160.786909 289.318216 
L 161.319273 288.486782 
L 161.851636 287.07053 
L 162.384 285.0688 
L 163.182545 281.036385 
L 164.247273 274.09593 
L 167.973818 247.516332 
L 169.038545 242.276555 
L 169.837091 239.34715 
L 170.635636 237.179635 
L 171.434182 235.62514 
L 172.232727 234.513775 
L 173.297455 233.441587 
L 175.693091 231.254461 
L 176.491636 230.217061 
L 177.290182 228.848795 
L 178.088727 227.035407 
L 178.887273 224.668373 
L 179.685818 221.664643 
L 180.750545 216.617802 
L 182.081455 208.805785 
L 183.944727 196.055346 
L 186.074182 179.874963 
L 187.671273 165.959691 
L 191.664 129.199848 
L 192.728727 122.013871 
L 193.793455 116.453096 
L 194.858182 112.244084 
L 195.922909 109.051422 
L 196.987636 106.62762 
L 198.052364 104.84097 
L 198.850909 103.879062 
L 199.649455 103.216014 
L 200.448 102.823649 
L 201.246545 102.665414 
L 202.311273 102.744066 
L 203.376 103.061045 
L 204.706909 103.695809 
L 205.771636 104.405013 
L 206.836364 105.380615 
L 207.901091 106.726795 
L 208.965818 108.499119 
L 210.296727 111.244657 
L 212.692364 116.89367 
L 214.821818 122.266365 
L 216.152727 126.295566 
L 217.217455 130.228839 
L 218.548364 136.132787 
L 221.742545 151.233836 
L 222.541091 153.812783 
L 223.073455 154.995462 
L 223.605818 155.695676 
L 224.138182 155.892535 
L 224.404364 155.802138 
L 224.936727 155.255295 
L 225.469091 154.249724 
L 226.267636 151.990213 
L 227.332364 147.895212 
L 228.929455 140.442678 
L 231.325091 129.095757 
L 232.656 123.938846 
L 233.720727 120.836319 
L 234.519273 119.185221 
L 235.317818 118.109618 
L 235.850182 117.691691 
L 236.382545 117.49162 
L 236.914909 117.488372 
L 237.447273 117.661354 
L 238.245818 118.212603 
L 239.044364 119.07725 
L 239.842909 120.23779 
L 240.907636 122.261204 
L 241.972364 124.887395 
L 243.037091 128.187466 
L 244.101818 132.206905 
L 245.432727 138.248002 
L 247.029818 146.826035 
L 250.224 164.838968 
L 251.022545 168.261354 
L 251.821091 170.736201 
L 252.353455 171.750392 
L 252.885818 172.196207 
L 253.152 172.19468 
L 253.418182 172.039781 
L 253.950545 171.266953 
L 254.482909 169.887302 
L 255.015273 167.937317 
L 255.813818 164.092809 
L 257.144727 156.109355 
L 259.008 144.827726 
L 260.072727 139.560966 
L 261.403636 134.153457 
L 263.533091 125.812013 
L 265.130182 118.460726 
L 267.525818 107.314369 
L 268.856727 102.287533 
L 269.921455 99.040271 
L 271.252364 95.730807 
L 272.849455 92.388584 
L 274.712727 88.950819 
L 276.043636 86.852212 
L 277.374545 85.177237 
L 278.439273 84.177934 
L 279.504 83.478984 
L 280.568727 83.076366 
L 281.367273 82.979911 
L 282.165818 83.082317 
L 282.964364 83.412814 
L 283.762909 83.99714 
L 284.561455 84.841298 
L 285.626182 86.316025 
L 288.820364 91.125111 
L 290.151273 92.528788 
L 292.014545 94.407257 
L 293.079273 95.819186 
L 295.741091 99.63592 
L 296.273455 100.024739 
L 296.805818 100.147914 
L 297.338182 99.96661 
L 297.870545 99.464606 
L 298.402909 98.650995 
L 299.201455 96.927864 
L 300.532364 93.25539 
L 302.129455 88.934983 
L 303.194182 86.712499 
L 304.258909 85.058961 
L 305.589818 83.48641 
L 307.985455 81.09995 
L 309.316364 80.034723 
L 310.647273 79.263388 
L 313.841455 77.636413 
L 317.035636 75.687701 
L 318.366545 75.244317 
L 321.294545 74.463467 
L 322.359273 73.810794 
L 323.424 72.880698 
L 326.352 70.070588 
L 327.416727 69.454836 
L 328.215273 69.218634 
L 329.013818 69.182591 
L 329.812364 69.359752 
L 330.610909 69.785719 
L 331.409455 70.527665 
L 332.208 71.687731 
L 333.006545 73.400697 
L 333.805091 75.826325 
L 334.603636 79.128942 
L 335.402182 83.44575 
L 336.200727 88.848308 
L 337.265455 97.667107 
L 338.862545 113.382766 
L 341.524364 139.859897 
L 342.855273 150.829357 
L 344.186182 159.936272 
L 345.517091 167.494847 
L 347.114182 175.153167 
L 354.833455 209.127249 
L 355.898182 212.35534 
L 356.696727 214.070825 
L 357.495273 215.21021 
L 358.293818 215.892447 
L 359.358545 216.400964 
L 360.689455 216.998843 
L 361.488 217.56175 
L 362.552727 218.637265 
L 363.617455 220.042786 
L 365.214545 222.585979 
L 370.272 231.150274 
L 371.336727 232.313684 
L 372.135273 232.904865 
L 372.933818 233.232799 
L 373.732364 233.291621 
L 374.530909 233.09177 
L 375.329455 232.661316 
L 376.394182 231.803674 
L 377.991273 230.157852 
L 381.451636 226.483929 
L 387.84 220.205752 
L 388.638545 219.00614 
L 389.437091 217.383475 
L 390.235636 215.162509 
L 391.034182 212.220569 
L 392.098909 207.172902 
L 393.696 198.042997 
L 395.293091 189.171064 
L 396.357818 184.381299 
L 397.422545 180.676854 
L 398.487273 177.865419 
L 399.552 175.654548 
L 400.882909 173.414209 
L 402.213818 171.638102 
L 403.278545 170.569451 
L 404.343273 169.79924 
L 405.674182 169.120628 
L 407.537455 168.405842 
L 408.336 168.275785 
L 408.868364 168.345922 
L 409.400727 168.610724 
L 409.933091 169.132637 
L 410.465455 169.968254 
L 410.997818 171.161027 
L 411.796364 173.669012 
L 412.594909 177.029178 
L 413.659636 182.670194 
L 414.990545 191.145583 
L 416.587636 202.853356 
L 418.450909 218.251457 
L 421.911273 247.51494 
L 423.242182 256.689056 
L 424.306909 262.539839 
L 425.105455 265.961918 
L 425.904 268.555682 
L 426.436364 269.853499 
L 426.436364 269.853499 
" clip-path="url(#p854b7e480d)" style="fill: none; stroke: #ffa500; stroke-width: 3; stroke-linecap: square"/>
   </g>
   <g id="patch_3">
    <path d="M 7.2 331.2 
L 7.2 7.2 
" style="fill: none; stroke: #000000; stroke-width: 0.8; stroke-linejoin: miter; stroke-linecap: square"/>
   </g>
   <g id="patch_4">
    <path d="M 446.4 331.2 
L 446.4 7.2 
" style="fill: none; stroke: #000000; stroke-width: 0.8; stroke-linejoin: miter; stroke-linecap: square"/>
   </g>
   <g id="patch_5">
    <path d="M 7.2 331.2 
L 446.4 331.2 
" style="fill: none; stroke: #000000; stroke-width: 0.8; stroke-linejoin: miter; stroke-linecap: square"/>
   </g>
   <g id="patch_6">
    <path d="M 7.2 7.2 
L 446.4 7.2 
" style="fill: none; stroke: #000000; stroke-width: 0.8; stroke-linejoin: miter; stroke-linecap: square"/>
   </g>
  </g>
 </g>
 <defs>
  <clipPath id="p854b7e480d">
   <rect x="7.2" y="7.2" width="439.2" height="324"/>
  </clipPath>
 </defs>
</svg>
