<?xml version="1.0" encoding="utf-8" standalone="no"?>
<!DOCTYPE svg PUBLIC "-//W3C//DTD SVG 1.1//EN"
  "http://www.w3.org/Graphics/SVG/1.1/DTD/svg11.dtd">
<svg xmlns:xlink="http://www.w3.org/1999/xlink" width="453.6pt" height="338.4pt" viewBox="0 0 453.6 338.4" xmlns="http://www.w3.org/2000/svg" version="1.1">
 <metadata>
  <rdf:RDF xmlns:dc="http://purl.org/dc/elements/1.1/" xmlns:cc="http://creativecommons.org/ns#" xmlns:rdf="http://www.w3.org/1999/02/22-rdf-syntax-ns#">
   <cc:Work>
    <dc:type rdf:resource="http://purl.org/dc/dcmitype/StillImage"/>
    <dc:date>2025-05-14T16:19:40.796312</dc:date>
    <dc:format>image/svg+xml</dc:format>
    <dc:creator>
     <cc:Agent>
      <dc:title>Matplotlib v3.10.1, https://matplotlib.org/</dc:title>
     </cc:Agent>
    </dc:creator>
   </cc:Work>
  </rdf:RDF>
 </metadata>
 <defs>
  <style type="text/css">*{stroke-linejoin: round; stroke-linecap: butt}</style>
 </defs>
 <g id="figure_1">
  <g id="patch_1">
   <path d="M 0 338.4 
L 453.6 338.4 
L 453.6 0 
L 0 0 
z
" style="fill: #ffffff"/>
  </g>
  <g id="axes_1">
   <g id="patch_2">
    <path d="M 7.2 331.2 
L 446.4 331.2 
L 446.4 7.2 
L 7.2 7.2 
z
" style="fill: #ffffff"/>
   </g>
   <g id="matplotlib.axis_1"/>
   <g id="matplotlib.axis_2"/>
   <g id="line2d_1">
    <path d="M 27.163636 43.503551 
L 30.357818 60.988743 
L 33.285818 75.876694 
L 36.213818 89.674137 
L 39.141818 102.381037 
L 41.803636 112.986381 
L 44.465455 122.690507 
L 46.861091 130.653578 
L 49.256727 137.886659 
L 51.652364 144.38968 
L 53.781818 149.557265 
L 55.911273 154.148038 
L 57.774545 157.691825 
L 59.637818 160.793967 
L 61.501091 163.454463 
L 63.098182 165.383406 
L 64.695273 166.987909 
L 66.292364 168.267937 
L 67.623273 169.086762 
L 68.954182 169.680287 
L 70.285091 170.048477 
L 71.616 170.191368 
L 72.946909 170.108915 
L 74.277818 169.801162 
L 75.608727 169.268083 
L 76.939636 168.509687 
L 78.270545 167.525974 
L 79.867636 166.048086 
L 81.464727 164.245759 
L 83.061818 162.118956 
L 84.925091 159.227613 
L 86.788364 155.894642 
L 88.651636 152.120042 
L 90.781091 147.265433 
L 92.910545 141.83403 
L 95.04 135.825798 
L 97.435636 128.377091 
L 99.831273 120.198324 
L 102.493091 110.254571 
L 105.154909 99.409585 
L 107.816727 87.663294 
L 110.744727 73.701419 
L 113.672727 58.648965 
L 113.938909 59.446547 
L 116.866909 79.748345 
L 119.794909 98.570465 
L 122.722909 115.912977 
L 125.384727 130.394904 
L 128.046545 143.653966 
L 130.442182 154.541632 
L 132.837818 164.438825 
L 135.233455 173.345441 
L 137.362909 180.430926 
L 139.492364 186.733788 
L 141.355636 191.606813 
L 143.218909 195.880661 
L 145.082182 199.555286 
L 146.679273 202.228071 
L 148.276364 204.460624 
L 149.607273 205.984807 
L 150.938182 207.203274 
L 152.269091 208.116034 
L 153.6 208.723086 
L 154.664727 208.988616 
L 155.729455 209.05849 
L 156.794182 208.932717 
L 157.858909 208.611279 
L 158.923636 208.094194 
L 160.254545 207.172683 
L 161.585455 205.945481 
L 162.916364 204.412555 
L 164.247273 202.57393 
L 165.844364 199.964031 
L 167.441455 196.913935 
L 169.038545 193.423581 
L 170.901818 188.795132 
L 172.765091 183.567478 
L 174.894545 176.859312 
L 177.024 169.368531 
L 179.153455 161.095145 
L 181.549091 150.852093 
L 183.412364 142.262649 
L 185.275636 142.810458 
L 187.138909 143.567063 
L 189.268364 144.687434 
L 191.397818 146.080577 
L 193.527273 147.746493 
L 195.656727 149.685145 
L 198.052364 152.192163 
L 200.448 155.044356 
L 202.843636 158.241811 
L 205.505455 162.199329 
L 208.167273 166.583061 
L 210.829091 171.392972 
L 213.757091 177.17608 
L 216.685091 183.474886 
L 219.613091 190.289338 
L 222.807273 198.31145 
L 226.001455 206.947216 
L 229.195636 216.196732 
L 232.656 226.909502 
L 236.116364 238.342466 
L 239.842909 251.460499 
L 242.238545 260.334543 
L 242.504727 260.046506 
L 245.432727 238.780196 
L 248.094545 220.947399 
L 250.756364 204.54334 
L 253.418182 189.568003 
L 255.813818 177.311808 
L 258.209455 166.212782 
L 260.338909 157.318614 
L 262.468364 149.338865 
L 264.597818 142.273411 
L 266.461091 136.841253 
L 268.324364 132.109222 
L 269.921455 128.610308 
L 271.518545 125.625864 
L 273.115636 123.155714 
L 274.446545 121.49015 
L 275.777455 120.181786 
L 277.108364 119.230569 
L 278.173091 118.726809 
L 279.237818 118.451632 
L 280.302545 118.405038 
L 281.367273 118.587079 
L 282.432 118.997685 
L 283.496727 119.636891 
L 284.561455 120.504716 
L 285.892364 121.910938 
L 287.223273 123.674361 
L 288.554182 125.794949 
L 290.151273 128.811152 
L 291.748364 132.34172 
L 293.345455 136.386563 
L 295.208727 141.755711 
L 297.072 147.824934 
L 298.402909 152.588707 
L 298.669091 152.799101 
L 309.582545 143.194852 
L 320.496 133.887006 
L 331.409455 124.875614 
L 342.056727 116.369703 
L 352.704 108.145939 
L 363.351273 100.20434 
L 373.998545 92.54487 
L 384.379636 85.348534 
L 394.760727 78.420423 
L 405.141818 71.760555 
L 415.256727 65.529411 
L 425.371636 59.552903 
L 426.436364 58.938609 
L 426.436364 58.938609 
" clip-path="url(#pc8d432eb77)" style="fill: none; stroke-dasharray: 11.1,4.8; stroke-dashoffset: 0; stroke: #000000; stroke-width: 3"/>
   </g>
   <g id="line2d_2">
    <path d="M 27.163636 223.143733 
L 27.429818 223.14476 
L 27.696 223.005126 
L 28.228364 222.281975 
L 28.760727 220.91952 
L 29.293091 218.880367 
L 29.825455 216.127121 
L 30.624 210.558648 
L 31.422545 203.146344 
L 32.221091 193.762566 
L 33.285818 177.946072 
L 34.350545 158.005626 
L 35.415273 133.541832 
L 36.746182 99.541503 
L 37.810909 127.236021 
L 39.141818 158.513845 
L 40.206545 179.238205 
L 41.271273 195.653026 
L 42.069818 204.799425 
L 42.602182 209.21741 
L 43.134545 212.208639 
L 43.400727 213.119722 
L 43.666909 213.6263 
L 43.933091 213.74046 
L 44.731636 213.640977 
L 45.264 213.401518 
L 45.796364 212.980194 
L 46.328727 212.341365 
L 46.861091 211.439534 
L 47.659636 209.453252 
L 48.192 207.642787 
L 48.990545 204.028011 
L 49.789091 199.136358 
L 50.055273 197.164016 
L 51.652364 155.737232 
L 52.717091 133.656773 
L 53.515636 120.99903 
L 54.314182 112.155846 
L 54.846545 108.577157 
L 55.112727 107.504521 
L 55.378909 106.953377 
L 55.645091 106.892737 
L 55.911273 107.356205 
L 56.177455 108.318114 
L 56.709818 111.810444 
L 57.242182 117.381489 
L 57.774545 124.944733 
L 58.573091 139.847537 
L 59.637818 165.52512 
L 60.968727 202.048111 
L 61.234909 204.019584 
L 62.299636 162.560216 
L 63.098182 139.413845 
L 63.896727 122.073545 
L 64.695273 109.384184 
L 65.493818 100.421827 
L 66.292364 94.38719 
L 66.824727 91.702783 
L 67.357091 89.873278 
L 67.889455 88.76021 
L 68.421818 88.241686 
L 68.954182 88.207925 
L 69.486545 88.596182 
L 70.018909 89.292148 
L 70.817455 90.787943 
L 71.882182 93.336008 
L 74.011636 99.192905 
L 76.141091 104.814583 
L 76.939636 106.704341 
L 77.205818 107.061874 
L 78.270545 107.624658 
L 79.069091 108.247555 
L 79.867636 109.115871 
L 80.666182 110.261365 
L 81.464727 111.768186 
L 82.263273 113.689545 
L 83.061818 116.106535 
L 83.860364 119.104287 
L 84.658909 122.791842 
L 84.925091 125.330234 
L 86.788364 156.635236 
L 87.853091 170.94419 
L 88.651636 178.473445 
L 89.184 181.550402 
L 89.450182 182.476443 
L 89.716364 182.98777 
L 89.982545 183.045898 
L 90.248727 182.661671 
L 90.514909 181.888834 
L 91.047273 179.147343 
L 91.845818 172.841005 
L 92.910545 163.917123 
L 93.176727 162.498313 
L 93.442909 161.781929 
L 93.709091 162.009511 
L 93.975273 162.548594 
L 94.507636 164.543794 
L 95.04 167.818918 
L 95.572364 172.418873 
L 96.370909 181.833831 
L 97.169455 194.246847 
L 98.234182 215.461115 
L 99.298909 241.524444 
L 99.831273 256.179126 
L 100.097455 258.477427 
L 100.363636 256.655067 
L 101.428364 233.518396 
L 102.493091 215.543884 
L 103.557818 201.61419 
L 104.622545 190.960918 
L 105.687273 182.929834 
L 106.752 176.941335 
L 107.550545 173.493651 
L 108.349091 170.775676 
L 109.147636 168.660513 
L 109.946182 167.03108 
L 111.809455 163.905343 
L 112.874182 162.552175 
L 113.406545 162.073977 
L 113.938909 161.780858 
L 114.471273 161.709825 
L 115.003636 161.894868 
L 115.536 162.366518 
L 116.068364 163.161992 
L 116.600727 164.338825 
L 117.399273 166.795334 
L 118.197818 170.136092 
L 119.262545 175.845797 
L 121.924364 191.542671 
L 122.456727 193.211878 
L 122.722909 193.540778 
L 122.989091 193.493499 
L 123.255273 192.916889 
L 123.521455 191.808254 
L 124.053818 187.463365 
L 124.852364 177.870642 
L 125.384727 174.398361 
L 125.650909 173.591571 
L 125.917091 173.382388 
L 126.183273 173.741317 
L 126.449455 174.628006 
L 127.248 178.142263 
L 128.046545 179.556246 
L 128.845091 181.458723 
L 129.909818 184.689061 
L 132.837818 194.460007 
L 133.370182 195.474356 
L 133.902545 195.913561 
L 134.168727 195.869038 
L 134.434909 195.62239 
L 134.701091 195.154112 
L 135.233455 193.476346 
L 135.765818 190.658827 
L 136.298182 186.547533 
L 136.830545 181.049118 
L 137.629091 169.978103 
L 138.427636 155.200467 
L 139.492364 132.92587 
L 139.758545 133.977982 
L 140.823273 142.986828 
L 141.888 150.294839 
L 142.952727 155.865217 
L 143.485091 158.013246 
L 143.751273 158.556507 
L 144.549818 159.06269 
L 145.348364 159.779635 
L 146.945455 161.618725 
L 149.074909 164.1798 
L 149.873455 164.945412 
L 150.938182 165.60616 
L 151.736727 165.763324 
L 152.269091 165.680739 
L 152.801455 165.43158 
L 153.333818 165.005911 
L 153.866182 164.396251 
L 154.664727 163.130391 
L 155.463273 161.429434 
L 156.528 158.522465 
L 157.858909 153.948616 
L 159.189818 148.664229 
L 160.254545 144.167136 
L 161.053091 132.875483 
L 162.117818 113.73189 
L 163.182545 89.618273 
L 164.247273 59.981013 
L 165.045818 33.622001 
L 165.312 34.123566 
L 167.707636 106.157199 
L 169.304727 147.551916 
L 170.369455 169.810563 
L 171.168 182.424424 
L 171.700364 188.351923 
L 172.232727 191.873713 
L 172.498909 192.583364 
L 172.765091 192.581915 
L 173.031273 191.739758 
L 173.297455 190.019146 
L 173.829818 183.675572 
L 174.362182 172.976741 
L 174.894545 157.112468 
L 175.426909 135.476832 
L 175.959273 107.073795 
L 176.491636 77.656286 
L 177.024 104.489774 
L 182.88 172.547526 
L 184.210909 185.567419 
L 185.275636 194.604512 
L 186.340364 202.0928 
L 187.138909 206.618677 
L 187.937455 210.119978 
L 188.736 212.508474 
L 189.268364 213.480091 
L 189.800727 213.938082 
L 190.066909 213.985343 
L 190.333091 213.909851 
L 190.599273 213.711246 
L 191.131636 212.91542 
L 191.664 211.653993 
L 192.462545 208.935851 
L 193.261091 205.330766 
L 193.527273 203.959989 
L 194.059636 203.504579 
L 194.592 202.716373 
L 195.390545 200.911552 
L 196.189091 198.392279 
L 197.253818 194.045178 
L 200.448 179.785873 
L 200.714182 181.599735 
L 201.512727 192.523128 
L 202.311273 199.940866 
L 202.843636 203.116752 
L 203.376 204.985829 
L 203.642182 205.466212 
L 203.908364 205.687176 
L 204.174545 205.66983 
L 204.440727 205.436051 
L 204.973091 204.407797 
L 205.505455 202.767821 
L 206.570182 198.464962 
L 208.433455 190.703025 
L 209.232 188.131425 
L 211.361455 182.5075 
L 211.627636 182.177038 
L 211.893818 182.042785 
L 212.16 182.124317 
L 212.426182 182.441787 
L 212.692364 183.015737 
L 213.224727 185.017749 
L 213.757091 188.371104 
L 214.289455 193.232358 
L 214.821818 199.777101 
L 215.620364 213.398999 
L 216.152727 225.240181 
L 216.418909 223.848337 
L 217.217455 204.875321 
L 218.016 190.631931 
L 218.814545 180.881122 
L 219.346909 176.766913 
L 219.879273 174.511704 
L 220.145455 174.046586 
L 220.411636 174.031926 
L 220.677818 174.410282 
L 220.944 175.208768 
L 221.476364 177.978964 
L 222.008727 182.249914 
L 222.807273 191.160656 
L 223.605818 202.738783 
L 224.670545 221.466503 
L 226.533818 259.4712 
L 226.8 265.051217 
L 228.929455 291.602716 
L 229.728 276.05277 
L 233.188364 207.116766 
L 234.785455 179.833135 
L 236.116364 160.961576 
L 237.181091 148.911211 
L 237.979636 141.846372 
L 238.778182 136.541006 
L 239.310545 133.991571 
L 239.842909 132.253552 
L 240.375273 131.307198 
L 240.641455 131.120733 
L 240.907636 131.121541 
L 241.173818 131.32788 
L 241.44 131.709465 
L 241.706182 132.885648 
L 242.238545 136.718464 
L 242.770909 139.275958 
L 243.303273 140.716854 
L 243.835636 141.256341 
L 244.101818 141.315962 
L 244.368 141.253356 
L 244.900364 140.793189 
L 245.432727 139.957422 
L 246.497455 137.617346 
L 247.562182 135.419107 
L 248.094545 134.85922 
L 248.360727 134.804883 
L 248.626909 134.932289 
L 248.893091 135.287944 
L 249.425455 136.787671 
L 249.957818 139.522623 
L 250.490182 143.736253 
L 251.022545 149.698944 
L 251.554909 157.561575 
L 252.353455 173.492001 
L 253.152 194.885044 
L 253.950545 222.161468 
L 255.015273 268.060354 
L 255.281455 281.221884 
L 255.813818 266.345404 
L 256.612364 244.399022 
L 257.410909 227.80812 
L 258.209455 215.559351 
L 259.008 206.612392 
L 259.806545 200.133862 
L 260.072727 198.404762 
L 260.871273 190.803701 
L 261.936 183.663792 
L 262.734545 178.062944 
L 263.533091 170.408486 
L 264.065455 163.494772 
L 264.864 149.522134 
L 265.662545 130.289373 
L 266.461091 104.871132 
L 267.259636 72.566388 
L 267.792 46.935452 
L 268.058182 42.450385 
L 268.856727 50.094634 
L 269.921455 63.243197 
L 271.518545 86.793223 
L 274.978909 139.446008 
L 276.309818 156.119415 
L 277.374545 166.914489 
L 278.173091 173.398803 
L 278.705455 176.600849 
L 279.237818 178.744769 
L 279.504 179.349574 
L 279.770182 179.58646 
L 280.036364 179.469228 
L 280.302545 178.977951 
L 280.568727 178.064761 
L 281.101091 174.880263 
L 281.633455 169.805937 
L 282.432 162.80639 
L 285.626182 136.456753 
L 286.424727 131.566487 
L 287.223273 127.991028 
L 287.755636 126.404011 
L 288.288 125.502795 
L 288.554182 125.316926 
L 288.820364 125.301091 
L 289.086545 125.45304 
L 289.618909 126.244846 
L 290.151273 127.64538 
L 290.683636 129.601852 
L 291.482182 133.405402 
L 292.813091 141.08536 
L 293.877818 148.012716 
L 295.208727 158.348342 
L 296.539636 170.485409 
L 297.870545 185.164941 
L 298.935273 199.469506 
L 300 217.008973 
L 300.532364 226.589319 
L 300.798545 228.427962 
L 301.064727 227.212962 
L 302.395636 216.491502 
L 303.992727 201.609186 
L 306.920727 173.030946 
L 307.719273 167.552695 
L 308.251636 165.420151 
L 308.517818 164.999415 
L 308.784 165.099082 
L 309.050182 165.791098 
L 309.316364 167.168282 
L 309.848727 172.391696 
L 310.114909 174.937655 
L 310.913455 179.587672 
L 311.712 185.695369 
L 312.510545 193.535879 
L 313.309091 203.230491 
L 314.373818 219.392247 
L 315.438545 239.459809 
L 315.704727 245.105591 
L 315.970909 245.70915 
L 316.769455 235.05191 
L 317.568 226.82711 
L 318.366545 220.705166 
L 319.165091 216.402158 
L 319.963636 213.578319 
L 320.496 212.377706 
L 321.028364 211.576245 
L 321.560727 211.13509 
L 322.093091 210.935203 
L 322.891636 210.98056 
L 323.690182 211.251137 
L 326.085818 212.252653 
L 326.618182 212.381358 
L 328.215273 214.114277 
L 329.013818 214.633626 
L 329.546182 214.786875 
L 330.078545 214.730765 
L 330.610909 214.47641 
L 331.143273 214.01116 
L 331.941818 212.834679 
L 332.740364 211.063926 
L 333.538909 208.642371 
L 334.337455 205.499324 
L 335.136 201.53969 
L 336.200727 194.689941 
L 336.999273 188.224035 
L 337.797818 180.358866 
L 338.596364 170.809173 
L 339.394909 159.223277 
L 340.193455 145.169968 
L 341.258182 124.883357 
L 341.524364 125.671739 
L 343.387636 162.648401 
L 344.186182 188.95075 
L 344.984727 208.903811 
L 345.783273 223.483658 
L 346.581818 233.617492 
L 347.114182 238.288471 
L 347.646545 241.530449 
L 348.178909 243.520953 
L 348.711273 244.428288 
L 348.977455 244.514037 
L 349.243636 244.40291 
L 349.509818 244.084988 
L 350.042182 242.931141 
L 350.574545 241.145554 
L 351.373091 237.554119 
L 352.437818 231.497036 
L 352.970182 228.084289 
L 353.236364 223.361984 
L 354.034909 200.526069 
L 354.833455 182.645519 
L 355.632 168.852772 
L 356.430545 158.413634 
L 357.229091 150.749353 
L 358.027636 145.285963 
L 358.826182 141.576321 
L 359.358545 139.875785 
L 359.890909 138.706678 
L 360.955636 137.738642 
L 361.488 137.53592 
L 362.020364 137.582514 
L 362.552727 137.92035 
L 363.085091 138.623619 
L 363.617455 139.692076 
L 364.149818 141.142207 
L 364.948364 144.103846 
L 365.746909 148.027656 
L 366.811636 154.761753 
L 367.876364 163.092961 
L 369.207273 175.438816 
L 371.070545 195.239532 
L 375.329455 241.691773 
L 375.861818 246.797139 
L 376.128 247.769493 
L 376.394182 247.407948 
L 376.926545 239.554024 
L 378.257455 219.558882 
L 379.588364 203.371547 
L 380.653091 192.828274 
L 381.717818 184.147327 
L 382.782545 177.058962 
L 383.847273 171.246061 
L 385.178182 165.190287 
L 387.307636 155.775645 
L 388.106182 151.316017 
L 388.904727 145.704188 
L 389.703273 138.4032 
L 390.501818 128.773055 
L 391.300364 118.238516 
L 391.832727 125.916298 
L 392.365091 131.134726 
L 392.897455 133.956195 
L 393.163636 134.500545 
L 394.228364 134.535552 
L 395.026909 134.331215 
L 395.559273 134.025384 
L 396.091636 133.529858 
L 396.890182 132.331239 
L 397.688727 130.502735 
L 398.487273 127.919978 
L 399.285818 124.477842 
L 400.084364 120.113527 
L 401.149091 112.799634 
L 402.213818 103.829781 
L 403.544727 90.68171 
L 407.005091 55.001175 
L 407.803636 49.332779 
L 408.336 46.844054 
L 408.602182 46.051248 
L 408.868364 45.656653 
L 409.134545 48.571943 
L 409.933091 74.063517 
L 410.731636 92.043375 
L 411.530182 104.835475 
L 412.062545 110.800642 
L 412.594909 115.014253 
L 413.127273 117.603014 
L 413.659636 118.856023 
L 413.925818 119.024054 
L 414.192 118.943155 
L 414.458182 118.636658 
L 414.990545 117.401942 
L 415.789091 114.445026 
L 417.12 108.009632 
L 418.450909 101.688969 
L 419.249455 98.63983 
L 420.048 96.407584 
L 420.580364 95.409088 
L 421.112727 94.810964 
L 421.645091 94.600446 
L 422.177455 94.724095 
L 422.709818 95.122166 
L 423.508364 96.175789 
L 426.170182 100.163486 
L 426.436364 100.398073 
L 426.436364 100.398073 
" clip-path="url(#pc8d432eb77)" style="fill: none; stroke: #0000ff; stroke-width: 3; stroke-linecap: square"/>
   </g>
   <g id="patch_3">
    <path d="M 7.2 331.2 
L 7.2 7.2 
" style="fill: none; stroke: #000000; stroke-width: 0.8; stroke-linejoin: miter; stroke-linecap: square"/>
   </g>
   <g id="patch_4">
    <path d="M 446.4 331.2 
L 446.4 7.2 
" style="fill: none; stroke: #000000; stroke-width: 0.8; stroke-linejoin: miter; stroke-linecap: square"/>
   </g>
   <g id="patch_5">
    <path d="M 7.2 331.2 
L 446.4 331.2 
" style="fill: none; stroke: #000000; stroke-width: 0.8; stroke-linejoin: miter; stroke-linecap: square"/>
   </g>
   <g id="patch_6">
    <path d="M 7.2 7.2 
L 446.4 7.2 
" style="fill: none; stroke: #000000; stroke-width: 0.8; stroke-linejoin: miter; stroke-linecap: square"/>
   </g>
  </g>
 </g>
 <defs>
  <clipPath id="pc8d432eb77">
   <rect x="7.2" y="7.2" width="439.2" height="324"/>
  </clipPath>
 </defs>
</svg>
