<?xml version="1.0" encoding="utf-8" standalone="no"?>
<!DOCTYPE svg PUBLIC "-//W3C//DTD SVG 1.1//EN"
  "http://www.w3.org/Graphics/SVG/1.1/DTD/svg11.dtd">
<svg xmlns:xlink="http://www.w3.org/1999/xlink" width="453.6pt" height="338.4pt" viewBox="0 0 453.6 338.4" xmlns="http://www.w3.org/2000/svg" version="1.1">
 <metadata>
  <rdf:RDF xmlns:dc="http://purl.org/dc/elements/1.1/" xmlns:cc="http://creativecommons.org/ns#" xmlns:rdf="http://www.w3.org/1999/02/22-rdf-syntax-ns#">
   <cc:Work>
    <dc:type rdf:resource="http://purl.org/dc/dcmitype/StillImage"/>
    <dc:date>2025-05-14T16:23:19.416772</dc:date>
    <dc:format>image/svg+xml</dc:format>
    <dc:creator>
     <cc:Agent>
      <dc:title>Matplotlib v3.10.1, https://matplotlib.org/</dc:title>
     </cc:Agent>
    </dc:creator>
   </cc:Work>
  </rdf:RDF>
 </metadata>
 <defs>
  <style type="text/css">*{stroke-linejoin: round; stroke-linecap: butt}</style>
 </defs>
 <g id="figure_1">
  <g id="patch_1">
   <path d="M 0 338.4 
L 453.6 338.4 
L 453.6 0 
L 0 0 
z
" style="fill: #ffffff"/>
  </g>
  <g id="axes_1">
   <g id="patch_2">
    <path d="M 7.2 331.2 
L 446.4 331.2 
L 446.4 7.2 
L 7.2 7.2 
z
" style="fill: #ffffff"/>
   </g>
   <g id="matplotlib.axis_1"/>
   <g id="matplotlib.axis_2"/>
   <g id="line2d_1">
    <path d="M 27.163636 268.569512 
L 29.559273 233.662735 
L 31.954909 202.026499 
L 34.084364 176.651024 
L 36.213818 153.859711 
L 38.077091 136.03707 
L 39.940364 120.192934 
L 41.803636 106.327249 
L 43.400727 96.017097 
L 44.997818 87.160535 
L 46.328727 80.890416 
L 47.659636 75.629713 
L 48.990545 71.37846 
L 50.055273 68.704253 
L 51.12 66.676046 
L 51.918545 65.578849 
L 52.717091 64.845067 
L 53.515636 64.474682 
L 54.048 64.429633 
L 54.580364 64.546101 
L 55.378909 65.023614 
L 56.177455 65.864525 
L 56.976 67.068833 
L 57.774545 68.636538 
L 58.306909 69.883561 
L 58.573091 71.210025 
L 61.234909 90.491874 
L 63.896727 108.191357 
L 66.292364 122.768036 
L 68.688 136.063001 
L 71.083636 148.07627 
L 73.213091 157.678763 
L 75.342545 166.268558 
L 77.205818 172.953953 
L 79.069091 178.863941 
L 80.932364 183.998599 
L 82.529455 187.782652 
L 84.126545 190.997075 
L 85.457455 193.240583 
L 86.788364 195.08853 
L 88.119273 196.540882 
L 89.184 197.417959 
L 90.248727 198.041865 
L 91.313455 198.412592 
L 92.378182 198.53014 
L 93.442909 198.394526 
L 94.507636 198.005725 
L 95.572364 197.36378 
L 96.637091 196.468638 
L 97.701818 195.320326 
L 99.032727 193.528918 
L 100.363636 191.341924 
L 101.694545 188.759352 
L 103.291636 185.138098 
L 104.888727 180.947186 
L 106.752 175.337868 
L 108.615273 168.953194 
L 110.478545 161.793165 
L 112.608 152.660881 
L 114.737455 142.515916 
L 117.133091 129.892356 
L 119.794909 114.972013 
L 122.456727 119.109764 
L 125.118545 122.811733 
L 127.514182 125.770914 
L 129.909818 128.377091 
L 132.305455 130.630316 
L 134.434909 132.336804 
L 136.564364 133.764393 
L 138.693818 134.913082 
L 140.823273 135.782855 
L 142.686545 136.315162 
L 144.549818 136.633896 
L 146.413091 136.739093 
L 148.276364 136.630788 
L 150.139636 136.308912 
L 152.002909 135.773515 
L 153.866182 135.024565 
L 155.995636 133.907143 
L 158.125091 132.510857 
L 160.254545 130.835619 
L 162.384 128.881518 
L 164.513455 126.6485 
L 166.909091 123.802961 
L 169.304727 120.604435 
L 171.700364 117.052941 
L 174.362182 112.692804 
L 177.024 107.896886 
L 179.685818 102.665186 
L 180.750545 100.626375 
L 182.347636 98.630437 
L 183.944727 96.95764 
L 185.541818 95.607966 
L 187.138909 94.581433 
L 188.469818 93.972845 
L 189.800727 93.588555 
L 191.131636 93.428723 
L 192.462545 93.493295 
L 193.793455 93.782236 
L 195.124364 94.295546 
L 196.455273 95.033314 
L 197.786182 95.995398 
L 199.383273 97.446143 
L 200.980364 99.220012 
L 202.577455 101.316969 
L 204.440727 104.171848 
L 206.304 107.466511 
L 208.167273 111.20103 
L 210.296727 116.007552 
L 212.426182 121.388516 
L 214.555636 127.343939 
L 216.951273 134.730444 
L 219.346909 142.843937 
L 222.008727 152.711654 
L 224.670545 163.476899 
L 227.332364 175.139798 
L 230.260364 189.005491 
L 233.188364 203.957487 
L 236.382545 221.507295 
L 239.576727 240.349464 
L 242.770909 260.484083 
L 244.634182 272.826304 
L 245.166545 268.712192 
L 247.828364 245.818087 
L 250.224 227.085442 
L 252.619636 210.126816 
L 254.749091 196.541207 
L 256.878545 184.357036 
L 258.741818 174.845511 
L 260.605091 166.40706 
L 262.468364 159.041534 
L 264.065455 153.582076 
L 265.662545 148.911053 
L 266.993455 145.620673 
L 268.324364 142.877698 
L 269.655273 140.682198 
L 270.72 139.319883 
L 271.784727 138.307957 
L 272.849455 137.646384 
L 273.648 137.380143 
L 274.446545 137.310954 
L 275.245091 137.438834 
L 276.043636 137.7638 
L 276.842182 138.285819 
L 277.906909 139.288458 
L 278.971636 140.641415 
L 280.036364 142.344725 
L 281.367273 144.966579 
L 282.698182 148.135821 
L 284.029091 151.85252 
L 285.626182 157.03515 
L 287.223273 163.006075 
L 289.086545 170.968532 
L 290.949818 180.00394 
L 292.813091 190.112177 
L 294.942545 202.978453 
L 297.072 217.245992 
L 297.604364 221.031915 
L 299.733818 215.58472 
L 301.597091 211.385671 
L 303.460364 207.72057 
L 305.323636 204.589434 
L 306.920727 202.330538 
L 308.517818 200.463911 
L 309.848727 199.208049 
L 311.179636 198.224599 
L 312.510545 197.513552 
L 313.841455 197.074926 
L 315.172364 196.908704 
L 316.503273 197.014902 
L 317.834182 197.39352 
L 319.165091 198.044533 
L 320.496 198.967967 
L 321.826909 200.163804 
L 323.157818 201.632071 
L 324.754909 203.753519 
L 325.287273 204.54787 
L 329.013818 214.460495 
L 330.344727 217.117787 
L 331.675636 219.288708 
L 332.740364 220.675259 
L 333.805091 221.750546 
L 334.869818 222.514569 
L 335.934545 222.967319 
L 336.733091 223.102625 
L 337.531636 223.062834 
L 338.330182 222.847963 
L 339.394909 222.289103 
L 340.459636 221.418978 
L 341.524364 220.237564 
L 342.589091 218.744903 
L 343.92 216.441361 
L 345.250909 213.651467 
L 346.581818 210.375211 
L 348.178909 205.801713 
L 349.776 200.52793 
L 351.639273 193.489935 
L 353.502545 185.498651 
L 355.365818 176.554123 
L 357.495273 165.164672 
L 358.826182 157.885769 
L 364.948364 143.167201 
L 371.070545 129.023495 
L 377.192727 115.45474 
L 383.048727 103.013818 
L 388.904727 91.098864 
L 394.494545 80.216185 
L 400.084364 69.812756 
L 405.674182 59.888579 
L 410.997818 50.882542 
L 416.321455 42.311199 
L 421.378909 34.57104 
L 426.436364 27.223212 
L 426.436364 27.223212 
" clip-path="url(#p90307d63be)" style="fill: none; stroke-dasharray: 11.1,4.8; stroke-dashoffset: 0; stroke: #000000; stroke-width: 3"/>
   </g>
   <g id="line2d_2">
    <path d="M 27.163636 293.178512 
L 27.429818 298.535887 
L 27.696 299.63823 
L 27.962182 299.827845 
L 28.228364 299.771001 
L 28.494545 299.596638 
L 29.293091 298.345061 
L 29.559273 297.598094 
L 30.091636 296.969803 
L 30.624 296.227744 
L 31.156364 294.823952 
L 31.422545 292.938871 
L 32.487273 290.276936 
L 33.019636 288.429081 
L 34.350545 283.039014 
L 34.882909 282.532052 
L 35.415273 281.646382 
L 35.681455 276.868118 
L 36.213818 274.904278 
L 36.48 274.232105 
L 36.746182 273.126095 
L 38.077091 270.355565 
L 38.609455 269.36101 
L 39.141818 267.862582 
L 39.674182 266.792132 
L 39.940364 265.196293 
L 41.005091 264.461488 
L 42.069818 263.96278 
L 42.602182 263.488703 
L 42.868364 262.9498 
L 43.400727 260.893249 
L 45.264 251.728385 
L 46.062545 249.052554 
L 46.328727 248.448851 
L 48.192 242.455875 
L 48.458182 244.416872 
L 48.990545 243.850107 
L 49.256727 243.3603 
L 49.522909 243.108859 
L 50.321455 241.452121 
L 50.587636 241.360811 
L 51.386182 240.045618 
L 52.450909 237.31186 
L 52.717091 239.661118 
L 52.983273 239.757019 
L 53.249455 239.499626 
L 53.515636 238.927801 
L 54.314182 234.813048 
L 55.378909 232.519777 
L 56.177455 231.127924 
L 56.709818 230.538165 
L 56.976 231.816315 
L 57.508364 231.60786 
L 57.774545 231.323668 
L 58.040727 231.336879 
L 58.839273 230.751421 
L 59.105455 230.94555 
L 60.170182 230.57369 
L 60.436364 230.449892 
L 60.702545 230.519512 
L 60.968727 230.36449 
L 61.234909 233.500541 
L 62.565818 235.319152 
L 63.098182 235.556697 
L 63.364364 236.022009 
L 64.695273 236.335511 
L 65.227636 236.687102 
L 65.493818 238.723314 
L 66.824727 239.432755 
L 67.357091 239.585591 
L 67.623273 239.826182 
L 68.155636 239.89818 
L 68.954182 240.27119 
L 69.486545 240.635175 
L 69.752727 242.146657 
L 70.551273 243.084838 
L 71.083636 243.749518 
L 72.148364 244.993653 
L 72.946909 245.733066 
L 73.479273 246.379778 
L 73.745455 246.691933 
L 74.011636 247.700431 
L 75.342545 249.358007 
L 76.141091 250.146064 
L 78.004364 252.464204 
L 78.270545 253.829371 
L 78.536727 254.286137 
L 79.601455 255.115004 
L 80.666182 255.699102 
L 80.932364 255.768572 
L 81.198545 255.707419 
L 82.263273 256.244878 
L 82.529455 257.599788 
L 83.328 257.585849 
L 83.594182 257.792855 
L 84.392727 257.899658 
L 84.658909 258.157077 
L 85.457455 258.050001 
L 86.256 257.872139 
L 86.522182 257.797191 
L 86.788364 259.366235 
L 87.054545 259.377116 
L 87.586909 258.957718 
L 88.119273 259.036247 
L 89.184 258.524631 
L 89.716364 257.856474 
L 90.781091 257.469565 
L 91.047273 258.111602 
L 92.112 257.115964 
L 92.378182 257.022358 
L 92.644364 257.178833 
L 93.176727 256.836986 
L 94.773818 254.158955 
L 95.04 253.702905 
L 95.306182 254.812426 
L 97.169455 251.739384 
L 98.500364 250.035504 
L 99.298909 249.507968 
L 99.565091 249.831895 
L 100.363636 249.2208 
L 101.694545 247.7841 
L 103.025455 246.31022 
L 103.557818 245.842415 
L 103.824 247.009236 
L 105.154909 246.004451 
L 106.485818 244.49598 
L 107.284364 243.618404 
L 107.816727 243.080923 
L 108.082909 243.456039 
L 109.68 241.299944 
L 112.075636 237.283138 
L 112.341818 238.357503 
L 113.672727 235.239842 
L 115.802182 229.281636 
L 116.600727 227.661587 
L 117.399273 225.268508 
L 117.931636 223.528681 
L 119.528727 217.274178 
L 120.061091 216.227289 
L 120.593455 215.670913 
L 120.859636 216.37283 
L 121.392 216.524666 
L 122.456727 217.696407 
L 123.255273 219.167474 
L 124.32 222.02194 
L 125.118545 224.207898 
L 126.715636 227.561498 
L 127.514182 230.998052 
L 129.111273 233.400979 
L 129.377455 233.421134 
L 130.442182 234.586529 
L 131.773091 236.329691 
L 132.571636 237.349702 
L 133.370182 238.80172 
L 133.636364 239.548687 
L 134.434909 240.878567 
L 135.233455 242.678972 
L 136.830545 246.150361 
L 137.629091 246.983793 
L 137.895273 248.530233 
L 138.427636 248.958839 
L 138.693818 248.919943 
L 138.96 249.02561 
L 139.492364 248.688613 
L 139.758545 248.400198 
L 140.290909 248.140751 
L 141.888 246.513684 
L 142.154182 246.773249 
L 142.686545 245.75502 
L 143.485091 244.292565 
L 144.017455 243.388768 
L 144.816 242.448888 
L 145.614545 241.113197 
L 146.146909 239.939973 
L 146.413091 241.933436 
L 147.211636 239.841921 
L 147.744 238.722094 
L 148.276364 237.473421 
L 148.542545 237.212702 
L 149.341091 236.104471 
L 150.405818 234.701039 
L 150.672 234.67661 
L 150.938182 234.423606 
L 151.204364 234.35059 
L 153.067636 232.991857 
L 153.866182 232.632102 
L 154.664727 232.51243 
L 154.930909 233.237118 
L 156.261818 233.54337 
L 156.794182 233.387882 
L 157.060364 233.381887 
L 157.326545 233.542536 
L 157.858909 233.391903 
L 159.722182 230.263655 
L 159.988364 229.713336 
L 160.520727 229.225157 
L 160.786909 229.121224 
L 161.053091 228.848926 
L 161.585455 229.120838 
L 161.851636 229.159304 
L 162.117818 228.894827 
L 162.384 228.932573 
L 162.650182 228.627638 
L 162.916364 228.84287 
L 163.182545 228.049229 
L 163.448727 231.198492 
L 163.714909 230.956935 
L 163.981091 231.069594 
L 164.247273 230.682364 
L 164.513455 230.79827 
L 164.779636 230.385074 
L 165.045818 230.412655 
L 165.312 229.856718 
L 165.578182 230.133265 
L 165.844364 229.709368 
L 166.110545 229.667146 
L 167.441455 224.959948 
L 167.707636 224.878267 
L 168.506182 222.53813 
L 168.772364 221.876802 
L 169.038545 221.59728 
L 169.304727 221.048734 
L 169.837091 220.427733 
L 170.103273 219.712043 
L 171.168 214.202751 
L 171.434182 213.395224 
L 171.700364 213.130642 
L 171.966545 215.686775 
L 172.232727 215.680525 
L 173.297455 213.639669 
L 174.894545 208.755557 
L 175.160727 208.279808 
L 175.426909 207.525924 
L 175.693091 207.214063 
L 175.959273 206.548083 
L 176.225455 207.207795 
L 177.556364 203.899016 
L 177.822545 203.514341 
L 178.088727 202.925328 
L 178.354909 202.96533 
L 178.621091 202.617663 
L 178.887273 202.478371 
L 180.218182 199.574616 
L 180.484364 203.59998 
L 181.016727 202.575352 
L 182.347636 199.875583 
L 182.88 199.598597 
L 183.146182 199.342952 
L 184.210909 197.477132 
L 184.477091 196.821765 
L 185.009455 195.980415 
L 185.275636 195.539885 
L 186.074182 193.61641 
L 186.340364 193.082164 
L 186.606545 192.159897 
L 186.872727 191.781358 
L 187.671273 189.467151 
L 187.937455 188.926874 
L 188.736 186.319372 
L 189.002182 187.075889 
L 190.333091 183.220926 
L 192.994909 171.493201 
L 193.261091 171.193515 
L 194.059636 169.331663 
L 194.325818 168.808969 
L 195.922909 162.992768 
L 196.455273 160.430903 
L 196.987636 158.441162 
L 197.253818 157.587032 
L 197.52 157.716615 
L 197.786182 156.938714 
L 198.052364 156.512675 
L 199.383273 152.355858 
L 199.649455 151.918373 
L 200.448 150.031179 
L 201.512727 148.781769 
L 201.778909 148.992848 
L 202.577455 148.818584 
L 202.843636 148.679942 
L 203.642182 147.83603 
L 203.908364 147.71914 
L 204.174545 147.332375 
L 204.440727 147.187255 
L 204.706909 146.678369 
L 204.973091 146.512989 
L 205.239273 146.026013 
L 205.505455 145.876784 
L 205.771636 145.448095 
L 206.037818 145.872799 
L 206.304 145.618812 
L 206.570182 145.616828 
L 206.836364 145.244881 
L 207.102545 145.113683 
L 207.901091 143.520662 
L 208.167273 143.271433 
L 208.433455 142.785615 
L 208.699636 142.70433 
L 208.965818 142.288334 
L 209.232 142.271146 
L 209.498182 142.024709 
L 210.030545 142.091932 
L 210.296727 142.520551 
L 211.095273 142.822554 
L 211.361455 142.859036 
L 212.16 142.599115 
L 212.692364 142.690425 
L 213.490909 143.394941 
L 214.023273 144.440224 
L 214.555636 146.110967 
L 215.886545 151.228692 
L 216.951273 154.622496 
L 218.016 159.338358 
L 219.613091 168.053329 
L 220.411636 170.703291 
L 220.677818 171.173282 
L 221.476364 173.939071 
L 221.742545 174.528172 
L 223.073455 179.583686 
L 224.404364 186.101138 
L 226.001455 192.108703 
L 226.533818 196.165511 
L 227.066182 199.975004 
L 227.598545 202.295031 
L 228.397091 204.77489 
L 229.461818 206.888859 
L 230.260364 208.109521 
L 231.325091 210.227036 
L 233.188364 215.62682 
L 233.720727 217.295088 
L 234.253091 219.107308 
L 234.519273 219.881838 
L 235.317818 223.645184 
L 236.648727 231.053732 
L 238.245818 235.653239 
L 239.044364 240.108452 
L 240.907636 254.219731 
L 241.44 255.78504 
L 242.238545 257.377908 
L 242.504727 257.998083 
L 243.303273 261.017908 
L 244.368 263.647228 
L 244.634182 263.479131 
L 245.166545 261.870173 
L 247.296 250.77644 
L 247.828364 247.92462 
L 248.893091 239.520887 
L 249.691636 228.883521 
L 250.490182 217.576708 
L 251.022545 212.752217 
L 251.554909 209.979343 
L 253.950545 200.302034 
L 254.216727 197.822815 
L 254.749091 191.00358 
L 255.281455 187.965641 
L 258.209455 179.02839 
L 258.741818 176.313663 
L 260.338909 164.595305 
L 261.137455 160.331095 
L 262.202182 156.351087 
L 262.468364 155.72719 
L 262.734545 154.729081 
L 263.000727 154.294914 
L 263.266909 153.2362 
L 263.533091 152.695151 
L 263.799273 151.898324 
L 264.065455 151.972833 
L 264.331636 151.730328 
L 264.597818 152.11704 
L 264.864 151.96876 
L 265.130182 152.375346 
L 265.396364 152.482808 
L 265.662545 153.171084 
L 265.928727 153.110128 
L 266.194909 153.59728 
L 266.461091 153.443557 
L 266.727273 153.626072 
L 266.993455 153.270558 
L 267.259636 153.495506 
L 267.525818 153.231916 
L 268.058182 153.412202 
L 268.856727 155.688461 
L 269.122909 155.599012 
L 269.655273 156.318995 
L 269.921455 156.607427 
L 270.187636 156.320206 
L 270.453818 156.236375 
L 272.317091 150.650441 
L 272.583273 151.356379 
L 272.849455 151.604941 
L 273.115636 152.514128 
L 273.381818 150.896229 
L 273.648 151.537455 
L 273.914182 151.564421 
L 274.180364 152.005768 
L 274.446545 151.622058 
L 274.712727 151.624902 
L 274.978909 150.748827 
L 275.245091 150.425159 
L 275.511273 149.622521 
L 275.777455 149.706423 
L 276.043636 149.378208 
L 276.576 150.103511 
L 277.374545 153.027526 
L 277.640727 153.649545 
L 278.173091 155.162405 
L 278.439273 155.705438 
L 278.971636 155.743324 
L 280.036364 153.175719 
L 280.302545 152.862234 
L 280.568727 153.329266 
L 280.834909 154.051373 
L 281.633455 157.595599 
L 281.899636 157.523232 
L 282.165818 158.650854 
L 282.432 158.944483 
L 282.698182 159.755741 
L 282.964364 159.680618 
L 283.230545 160.277689 
L 283.496727 159.901388 
L 283.762909 160.179918 
L 284.029091 159.599051 
L 284.295273 159.870349 
L 284.561455 159.395258 
L 284.827636 159.854653 
L 285.093818 159.881971 
L 285.36 161.068406 
L 285.626182 161.495919 
L 285.892364 162.667889 
L 286.158545 162.687464 
L 286.424727 163.445526 
L 286.690909 163.073474 
L 286.957091 163.078934 
L 287.223273 162.062057 
L 287.489455 161.556453 
L 288.288 158.535246 
L 289.352727 155.621519 
L 289.618909 155.562898 
L 290.151273 154.86997 
L 290.417455 153.636062 
L 290.683636 153.240256 
L 290.949818 152.603595 
L 291.482182 152.282262 
L 292.014545 153.312465 
L 292.546909 155.206313 
L 293.611636 162.04529 
L 294.144 165.814219 
L 295.474909 173.923332 
L 296.539636 179.914745 
L 297.338182 182.994344 
L 298.136727 185.718929 
L 299.201455 187.427664 
L 299.733818 187.504772 
L 300 187.244544 
L 300.266182 187.226496 
L 300.532364 187.061958 
L 302.395636 186.981472 
L 302.928 186.607655 
L 305.057455 183.686 
L 305.856 183.377721 
L 306.388364 183.271514 
L 307.186909 182.772547 
L 307.453091 182.194024 
L 307.719273 181.905864 
L 308.784 179.682493 
L 309.316364 178.589018 
L 309.848727 178.22814 
L 310.114909 178.266764 
L 310.647273 178.483777 
L 311.445818 178.713606 
L 311.712 178.262173 
L 311.978182 178.251253 
L 313.841455 177.401055 
L 314.373818 177.5539 
L 315.438545 178.319714 
L 315.704727 178.545979 
L 315.970909 177.903744 
L 316.237091 178.066262 
L 316.769455 177.865375 
L 317.568 176.57318 
L 318.632727 175.584814 
L 318.898909 175.680171 
L 319.165091 175.579152 
L 319.431273 175.757849 
L 319.963636 175.610332 
L 320.229818 175.150955 
L 320.496 174.997627 
L 321.560727 173.320502 
L 322.093091 172.449693 
L 322.891636 171.883819 
L 323.157818 171.94409 
L 323.956364 172.874502 
L 324.222545 172.858456 
L 324.488727 176.655133 
L 325.021091 178.997035 
L 325.553455 184.483635 
L 325.819636 185.299519 
L 327.150545 186.570488 
L 328.481455 188.741576 
L 329.546182 189.555134 
L 329.812364 189.517686 
L 330.078545 189.609207 
L 330.344727 189.522383 
L 331.143273 189.612025 
L 331.409455 189.611814 
L 331.941818 189.936009 
L 332.740364 190.852876 
L 333.006545 190.950902 
L 333.272727 191.335104 
L 333.805091 191.787169 
L 334.869818 191.619577 
L 335.668364 191.570674 
L 335.934545 191.644182 
L 336.466909 192.290428 
L 337.797818 194.490669 
L 338.064 194.76036 
L 339.128727 194.77271 
L 339.927273 195.264804 
L 340.459636 196.287905 
L 341.258182 198.601357 
L 341.524364 198.599215 
L 341.790545 199.045557 
L 342.322909 199.406795 
L 342.589091 199.297718 
L 342.855273 199.380627 
L 343.387636 199.309902 
L 343.92 199.524326 
L 344.186182 199.680884 
L 344.984727 200.839607 
L 346.049455 202.483647 
L 346.581818 202.829347 
L 347.380364 202.72889 
L 347.912727 202.645138 
L 348.445091 202.706901 
L 348.977455 202.978427 
L 349.776 203.559539 
L 350.042182 203.157106 
L 350.308364 203.2486 
L 350.840727 203.134186 
L 351.639273 202.553257 
L 351.905455 202.456926 
L 352.171636 202.482909 
L 353.236364 201.884741 
L 353.768727 201.760425 
L 354.034909 201.676049 
L 354.301091 201.077547 
L 354.567273 200.906628 
L 354.833455 200.416193 
L 355.099636 199.4008 
L 355.365818 196.533034 
L 355.632 190.423871 
L 356.430545 181.516606 
L 357.229091 174.647449 
L 358.293818 168.835321 
L 358.56 170.7186 
L 359.092364 163.40692 
L 360.423273 136.73179 
L 360.689455 135.009414 
L 360.955636 134.035602 
L 361.488 135.158466 
L 361.754182 136.168005 
L 362.286545 137.147961 
L 362.552727 137.330108 
L 363.085091 137.295171 
L 363.351273 136.851717 
L 363.883636 136.689742 
L 364.416 137.88852 
L 364.948364 140.715133 
L 365.746909 147.56461 
L 366.279273 150.581779 
L 366.811636 151.289665 
L 367.077818 150.642436 
L 367.344 150.531287 
L 367.610182 149.737111 
L 367.876364 149.792097 
L 368.142545 148.808226 
L 368.408727 148.774536 
L 369.207273 146.061722 
L 369.739636 143.826984 
L 370.005818 143.097239 
L 370.272 143.075276 
L 371.070545 144.816824 
L 371.336727 144.193401 
L 371.869091 143.468291 
L 372.135273 142.945114 
L 372.667636 141.4917 
L 372.933818 140.851317 
L 373.2 139.732614 
L 373.732364 138.517456 
L 373.998545 138.530167 
L 374.264727 138.075407 
L 374.530909 137.89628 
L 374.797091 137.918805 
L 375.063273 137.649 
L 375.329455 137.167343 
L 375.595636 132.701202 
L 376.394182 129.250428 
L 376.926545 127.009632 
L 377.458909 125.568771 
L 377.725091 125.270683 
L 377.991273 125.264293 
L 379.056 126.26572 
L 379.322182 126.173954 
L 379.588364 125.891421 
L 379.854545 124.335636 
L 380.919273 122.2437 
L 381.185455 122.264434 
L 381.451636 122.812085 
L 381.717818 123.748923 
L 382.516364 129.507487 
L 383.581091 137.310813 
L 383.847273 138.611593 
L 384.113455 137.744927 
L 384.645818 140.091131 
L 385.178182 143.516448 
L 385.710545 148.426728 
L 385.976727 151.26858 
L 386.775273 162.7714 
L 387.307636 166.803568 
L 387.573818 166.846809 
L 387.84 166.460905 
L 388.106182 165.379263 
L 388.372364 162.252068 
L 388.904727 160.795564 
L 389.170909 160.577375 
L 389.703273 160.771916 
L 390.235636 161.287755 
L 390.501818 162.094062 
L 390.768 162.505423 
L 391.034182 162.434004 
L 391.300364 162.136144 
L 391.566545 162.044114 
L 391.832727 161.490407 
L 392.365091 159.146802 
L 392.897455 154.776904 
L 393.696 150.156601 
L 394.228364 148.912229 
L 394.494545 148.912668 
L 395.293091 150.180021 
L 395.559273 150.503039 
L 395.825455 150.336289 
L 396.091636 149.776665 
L 396.624 147.583131 
L 396.890182 145.279906 
L 397.422545 142.872835 
L 397.688727 141.960067 
L 397.954909 141.476953 
L 398.221091 141.249336 
L 398.753455 141.819107 
L 399.285818 144.064292 
L 399.552 144.940912 
L 399.818182 145.147426 
L 400.084364 145.803539 
L 400.616727 144.464311 
L 400.882909 143.348768 
L 401.415273 139.435175 
L 401.947636 137.357127 
L 402.213818 137.220469 
L 402.48 136.841042 
L 403.012364 137.299665 
L 403.544727 139.14641 
L 403.810909 139.474624 
L 404.077091 139.431085 
L 404.343273 139.94587 
L 405.408 136.588864 
L 405.940364 134.403371 
L 406.206545 133.770414 
L 406.738909 133.672837 
L 407.005091 133.568429 
L 407.271273 133.839253 
L 407.803636 135.697549 
L 408.336 136.517937 
L 408.602182 137.848158 
L 408.868364 137.672262 
L 409.134545 136.839006 
L 409.400727 134.135708 
L 409.666909 121.411076 
L 410.465455 119.153655 
L 410.731636 118.96403 
L 411.264 118.223453 
L 411.530182 118.193643 
L 412.062545 118.517907 
L 412.594909 117.941587 
L 412.861091 118.178544 
L 413.659636 117.200888 
L 413.925818 118.168133 
L 414.192 117.783528 
L 414.724364 116.579536 
L 415.256727 115.740838 
L 415.789091 114.933407 
L 416.321455 115.373297 
L 416.853818 115.36954 
L 417.12 115.500159 
L 417.386182 115.107986 
L 417.918545 113.770935 
L 418.184727 113.86444 
L 418.450909 112.834993 
L 419.515636 106.757589 
L 419.781818 105.62254 
L 420.048 105.447838 
L 420.314182 106.079407 
L 420.580364 107.374236 
L 420.846545 107.926117 
L 421.378909 108.137354 
L 422.177455 104.140914 
L 422.443636 108.027101 
L 422.709818 109.160359 
L 423.242182 109.400406 
L 423.774545 111.031103 
L 424.040727 111.542131 
L 424.306909 113.110135 
L 425.105455 121.228649 
L 425.637818 120.829858 
L 425.904 118.844524 
L 426.170182 119.110519 
L 426.436364 126.881858 
L 426.436364 126.881858 
" clip-path="url(#p90307d63be)" style="fill: none; stroke: #ffa500; stroke-width: 3; stroke-linecap: square"/>
   </g>
   <g id="patch_3">
    <path d="M 7.2 331.2 
L 7.2 7.2 
" style="fill: none; stroke: #000000; stroke-width: 0.8; stroke-linejoin: miter; stroke-linecap: square"/>
   </g>
   <g id="patch_4">
    <path d="M 446.4 331.2 
L 446.4 7.2 
" style="fill: none; stroke: #000000; stroke-width: 0.8; stroke-linejoin: miter; stroke-linecap: square"/>
   </g>
   <g id="patch_5">
    <path d="M 7.2 331.2 
L 446.4 331.2 
" style="fill: none; stroke: #000000; stroke-width: 0.8; stroke-linejoin: miter; stroke-linecap: square"/>
   </g>
   <g id="patch_6">
    <path d="M 7.2 7.2 
L 446.4 7.2 
" style="fill: none; stroke: #000000; stroke-width: 0.8; stroke-linejoin: miter; stroke-linecap: square"/>
   </g>
  </g>
 </g>
 <defs>
  <clipPath id="p90307d63be">
   <rect x="7.2" y="7.2" width="439.2" height="324"/>
  </clipPath>
 </defs>
</svg>
