<?xml version="1.0" encoding="utf-8" standalone="no"?>
<!DOCTYPE svg PUBLIC "-//W3C//DTD SVG 1.1//EN"
  "http://www.w3.org/Graphics/SVG/1.1/DTD/svg11.dtd">
<svg xmlns:xlink="http://www.w3.org/1999/xlink" width="453.6pt" height="338.4pt" viewBox="0 0 453.6 338.4" xmlns="http://www.w3.org/2000/svg" version="1.1">
 <metadata>
  <rdf:RDF xmlns:dc="http://purl.org/dc/elements/1.1/" xmlns:cc="http://creativecommons.org/ns#" xmlns:rdf="http://www.w3.org/1999/02/22-rdf-syntax-ns#">
   <cc:Work>
    <dc:type rdf:resource="http://purl.org/dc/dcmitype/StillImage"/>
    <dc:date>2025-05-14T16:29:47.787192</dc:date>
    <dc:format>image/svg+xml</dc:format>
    <dc:creator>
     <cc:Agent>
      <dc:title>Matplotlib v3.10.1, https://matplotlib.org/</dc:title>
     </cc:Agent>
    </dc:creator>
   </cc:Work>
  </rdf:RDF>
 </metadata>
 <defs>
  <style type="text/css">*{stroke-linejoin: round; stroke-linecap: butt}</style>
 </defs>
 <g id="figure_1">
  <g id="patch_1">
   <path d="M 0 338.4 
L 453.6 338.4 
L 453.6 0 
L 0 0 
z
" style="fill: #ffffff"/>
  </g>
  <g id="axes_1">
   <g id="patch_2">
    <path d="M 7.2 331.2 
L 446.4 331.2 
L 446.4 7.2 
L 7.2 7.2 
z
" style="fill: #ffffff"/>
   </g>
   <g id="matplotlib.axis_1"/>
   <g id="matplotlib.axis_2"/>
   <g id="line2d_1">
    <path d="M 27.163636 134.046329 
L 66.292364 302.013575 
L 66.558545 301.914573 
L 145.082182 168.594115 
L 223.605818 61.966522 
L 223.872 62.048036 
L 302.129455 157.697092 
L 339.661091 192.652544 
L 339.927273 192.642063 
L 426.436364 132.041613 
L 426.436364 132.041613 
" clip-path="url(#p87ba8172d3)" style="fill: none; stroke-dasharray: 11.1,4.8; stroke-dashoffset: 0; stroke: #000000; stroke-width: 3"/>
   </g>
   <g id="line2d_2">
    <path d="M 27.163636 149.565007 
L 28.760727 150.707183 
L 30.624 152.320482 
L 33.019636 154.729414 
L 36.48 158.582859 
L 41.005091 163.589066 
L 43.400727 165.894609 
L 44.465455 166.785731 
L 44.731636 166.84012 
L 45.530182 166.278706 
L 48.458182 164.140685 
L 51.12 162.470925 
L 53.249455 161.370901 
L 55.378909 160.520212 
L 57.242182 160.011519 
L 59.105455 159.75065 
L 60.702545 159.745471 
L 61.767273 159.863905 
L 62.299636 160.210396 
L 66.026182 163.246912 
L 68.954182 165.360899 
L 71.616 167.006519 
L 74.011636 168.2159 
L 76.141091 169.041379 
L 78.270545 169.608815 
L 79.335273 169.863645 
L 81.464727 170.89347 
L 85.457455 173.15966 
L 88.119273 174.545061 
L 89.982545 175.271891 
L 91.579636 175.642469 
L 92.910545 175.720752 
L 94.241455 175.543601 
L 95.306182 175.166984 
L 97.169455 173.660172 
L 99.032727 172.415502 
L 101.162182 171.279945 
L 103.291636 170.410619 
L 105.687273 169.700784 
L 108.082909 169.219452 
L 110.744727 168.883548 
L 112.341818 168.941958 
L 118.996364 169.175737 
L 122.456727 169.059374 
L 125.384727 168.730457 
L 126.981818 168.387706 
L 133.370182 165.825508 
L 136.564364 164.774466 
L 139.226182 164.109961 
L 141.621818 163.724197 
L 146.146909 163.339416 
L 148.808727 163.32904 
L 151.736727 163.559168 
L 154.930909 164.048128 
L 158.657455 164.858227 
L 160.786909 165.357563 
L 163.981091 162.507688 
L 174.894545 152.481701 
L 177.556364 150.471139 
L 178.088727 150.169698 
L 180.484364 149.802175 
L 183.678545 149.536478 
L 192.196364 148.94908 
L 194.592 148.521462 
L 194.858182 148.363684 
L 207.901091 134.256513 
L 210.562909 131.841664 
L 211.627636 131.345945 
L 214.821818 130.10505 
L 217.749818 129.195126 
L 220.411636 128.582745 
L 223.073455 128.197139 
L 225.469091 128.060095 
L 226.267636 128.153073 
L 228.929455 128.582359 
L 231.857455 128.827287 
L 235.317818 128.876602 
L 239.576727 128.694596 
L 241.972364 128.614803 
L 245.965091 128.961662 
L 252.619636 129.260453 
L 257.144727 129.518846 
L 259.806545 131.230091 
L 263.000727 133.560529 
L 266.993455 136.766042 
L 272.849455 141.776252 
L 273.381818 142.494392 
L 275.245091 145.586526 
L 278.173091 151.039822 
L 281.899636 158.496658 
L 285.892364 166.371368 
L 288.021818 170.140806 
L 289.885091 173.012258 
L 290.949818 174.203767 
L 296.007273 179.479464 
L 299.467636 182.799645 
L 302.661818 185.552426 
L 305.323636 187.563032 
L 306.920727 188.599511 
L 310.381091 189.94311 
L 314.107636 191.168503 
L 317.568 192.06505 
L 320.762182 192.654203 
L 323.424 192.948481 
L 324.222545 192.478465 
L 325.819636 191.23081 
L 327.416727 189.681381 
L 329.013818 187.840132 
L 330.877091 185.332718 
L 332.740364 182.44715 
L 334.869818 178.698692 
L 336.999273 174.483957 
L 339.394909 169.203002 
L 340.992 165.696943 
L 343.121455 161.982088 
L 345.517091 158.30626 
L 347.646545 155.404576 
L 349.776 152.855194 
L 351.905455 150.66252 
L 353.768727 149.041514 
L 355.632 147.699178 
L 357.495273 146.635795 
L 358.027636 146.415428 
L 361.221818 146.265708 
L 372.667636 145.478573 
L 376.926545 145.514826 
L 378.789818 145.070231 
L 380.919273 144.324915 
L 384.912 142.618954 
L 387.84 141.475092 
L 389.703273 140.951265 
L 391.300364 140.699807 
L 392.631273 140.665993 
L 394.228364 141.019893 
L 396.890182 141.449793 
L 400.882909 141.823602 
L 405.141818 142.272358 
L 407.537455 142.732999 
L 409.666909 143.362848 
L 410.199273 143.886499 
L 414.990545 150.04719 
L 417.12 152.421975 
L 418.717091 153.922668 
L 420.314182 155.105136 
L 421.645091 155.794431 
L 422.709818 156.118906 
L 423.774545 156.214464 
L 424.839273 156.053193 
L 425.904 155.606912 
L 426.436364 155.267514 
L 426.436364 155.267514 
" clip-path="url(#p87ba8172d3)" style="fill: none; stroke: #ff0000; stroke-width: 3; stroke-linecap: square"/>
   </g>
   <g id="patch_3">
    <path d="M 7.2 331.2 
L 7.2 7.2 
" style="fill: none; stroke: #000000; stroke-width: 0.8; stroke-linejoin: miter; stroke-linecap: square"/>
   </g>
   <g id="patch_4">
    <path d="M 446.4 331.2 
L 446.4 7.2 
" style="fill: none; stroke: #000000; stroke-width: 0.8; stroke-linejoin: miter; stroke-linecap: square"/>
   </g>
   <g id="patch_5">
    <path d="M 7.2 331.2 
L 446.4 331.2 
" style="fill: none; stroke: #000000; stroke-width: 0.8; stroke-linejoin: miter; stroke-linecap: square"/>
   </g>
   <g id="patch_6">
    <path d="M 7.2 7.2 
L 446.4 7.2 
" style="fill: none; stroke: #000000; stroke-width: 0.8; stroke-linejoin: miter; stroke-linecap: square"/>
   </g>
  </g>
 </g>
 <defs>
  <clipPath id="p87ba8172d3">
   <rect x="7.2" y="7.2" width="439.2" height="324"/>
  </clipPath>
 </defs>
</svg>
