<?xml version="1.0" encoding="utf-8" standalone="no"?>
<!DOCTYPE svg PUBLIC "-//W3C//DTD SVG 1.1//EN"
  "http://www.w3.org/Graphics/SVG/1.1/DTD/svg11.dtd">
<svg xmlns:xlink="http://www.w3.org/1999/xlink" width="453.6pt" height="338.4pt" viewBox="0 0 453.6 338.4" xmlns="http://www.w3.org/2000/svg" version="1.1">
 <metadata>
  <rdf:RDF xmlns:dc="http://purl.org/dc/elements/1.1/" xmlns:cc="http://creativecommons.org/ns#" xmlns:rdf="http://www.w3.org/1999/02/22-rdf-syntax-ns#">
   <cc:Work>
    <dc:type rdf:resource="http://purl.org/dc/dcmitype/StillImage"/>
    <dc:date>2025-05-14T16:25:56.397149</dc:date>
    <dc:format>image/svg+xml</dc:format>
    <dc:creator>
     <cc:Agent>
      <dc:title>Matplotlib v3.10.1, https://matplotlib.org/</dc:title>
     </cc:Agent>
    </dc:creator>
   </cc:Work>
  </rdf:RDF>
 </metadata>
 <defs>
  <style type="text/css">*{stroke-linejoin: round; stroke-linecap: butt}</style>
 </defs>
 <g id="figure_1">
  <g id="patch_1">
   <path d="M 0 338.4 
L 453.6 338.4 
L 453.6 0 
L 0 0 
z
" style="fill: #ffffff"/>
  </g>
  <g id="axes_1">
   <g id="patch_2">
    <path d="M 7.2 331.2 
L 446.4 331.2 
L 446.4 7.2 
L 7.2 7.2 
z
" style="fill: #ffffff"/>
   </g>
   <g id="matplotlib.axis_1"/>
   <g id="matplotlib.axis_2"/>
   <g id="line2d_1">
    <path d="M 27.163636 90.172402 
L 29.559273 112.428354 
L 31.688727 130.231596 
L 33.818182 146.273942 
L 35.947636 160.653938 
L 38.077091 173.469985 
L 40.206545 184.820531 
L 42.069818 193.627576 
L 43.933091 201.453927 
L 45.796364 208.36557 
L 47.659636 214.428481 
L 49.522909 219.708619 
L 51.386182 224.271935 
L 53.249455 228.184377 
L 55.112727 231.511942 
L 56.709818 233.948595 
L 58.573091 236.3649 
L 60.436364 238.384768 
L 62.299636 240.074138 
L 64.429091 241.684795 
L 66.824727 243.206397 
L 71.083636 245.57534 
L 74.277818 247.468157 
L 76.407273 248.969939 
L 78.270545 250.532289 
L 80.133818 252.395489 
L 81.730909 254.281968 
L 83.328 256.479461 
L 84.925091 259.029536 
L 86.522182 261.973698 
L 88.119273 265.353501 
L 89.184 267.869232 
L 89.450182 267.478078 
L 91.845818 248.574466 
L 93.975273 233.402244 
L 96.104727 219.738228 
L 98.234182 207.556682 
L 100.097455 198.0937 
L 101.960727 189.728722 
L 103.824 182.444552 
L 105.421091 177.048112 
L 107.018182 172.422174 
L 108.349091 169.147981 
L 109.68 166.395034 
L 111.010909 164.157012 
L 112.075636 162.73318 
L 113.140364 161.631682 
L 114.205091 160.849251 
L 115.269818 160.382728 
L 116.068364 160.238205 
L 116.866909 160.268174 
L 117.665455 160.471317 
L 118.730182 161.009224 
L 119.794909 161.84931 
L 120.859636 162.988378 
L 121.924364 164.423218 
L 123.255273 166.627777 
L 124.586182 169.283208 
L 126.183273 173.055911 
L 127.780364 177.457902 
L 129.377455 182.478251 
L 131.240727 189.102489 
L 133.104 196.536344 
L 135.233455 206.001503 
L 137.362909 216.475886 
L 139.758545 229.433902 
L 142.154182 243.599904 
L 144.816 260.712257 
L 147.477818 279.220387 
L 150.405818 301.131537 
L 151.736727 311.537581 
L 155.463273 284.911452 
L 158.923636 261.716152 
L 162.384 240.059707 
L 165.578182 221.491275 
L 168.506182 205.714318 
L 171.434182 191.167819 
L 174.096 179.0447 
L 176.757818 168.000538 
L 179.153455 159.007738 
L 181.282909 151.785349 
L 183.412364 145.304572 
L 185.541818 139.580524 
L 187.405091 135.204657 
L 189.268364 131.429847 
L 190.865455 128.680376 
L 192.462545 126.386332 
L 193.793455 124.827159 
L 195.124364 123.592373 
L 196.455273 122.685679 
L 197.52 122.199019 
L 198.584727 121.926599 
L 199.649455 121.870331 
L 200.714182 122.032042 
L 201.778909 122.413662 
L 202.843636 123.017089 
L 203.908364 123.844201 
L 205.239273 125.195507 
L 206.570182 126.902996 
L 207.901091 128.9703 
L 209.498182 131.931271 
L 211.095273 135.422126 
L 213.490909 140.939257 
L 214.821818 142.915567 
L 216.152727 144.443648 
L 217.217455 145.357505 
L 218.282182 146.008579 
L 219.346909 146.407686 
L 220.411636 146.565447 
L 221.476364 146.492658 
L 222.541091 146.19996 
L 223.605818 145.698132 
L 224.936727 144.793053 
L 226.267636 143.59891 
L 227.864727 141.813717 
L 229.461818 139.678558 
L 231.325091 136.79343 
L 233.454545 133.04678 
L 235.850182 128.36136 
L 238.778182 122.130322 
L 243.303273 111.900402 
L 248.893091 99.349051 
L 251.821091 93.293768 
L 254.216727 88.81086 
L 256.346182 85.28865 
L 258.209455 82.634105 
L 259.806545 80.722051 
L 261.403636 79.183454 
L 262.734545 78.212697 
L 264.065455 77.547367 
L 265.130182 77.249068 
L 265.396364 77.208373 
L 265.662545 77.665661 
L 267.259636 88.65626 
L 268.590545 96.379599 
L 269.921455 102.879109 
L 271.252364 108.230789 
L 272.317091 111.73669 
L 273.381818 114.595642 
L 274.446545 116.846339 
L 275.511273 118.527809 
L 276.309818 119.438699 
L 277.108364 120.06767 
L 277.906909 120.431085 
L 278.705455 120.545376 
L 279.504 120.427047 
L 280.302545 120.092371 
L 281.367273 119.338084 
L 282.432 118.267326 
L 283.762909 116.543212 
L 285.36 114.008858 
L 287.223273 110.576237 
L 290.151273 104.628276 
L 293.611636 97.705871 
L 295.474909 94.466123 
L 296.805818 92.512952 
L 298.136727 90.946704 
L 299.201455 90.023367 
L 300.266182 89.435126 
L 301.064727 89.237302 
L 301.863273 89.26627 
L 302.661818 89.53848 
L 303.460364 90.07033 
L 304.258909 90.878217 
L 305.057455 91.978539 
L 306.122182 93.928989 
L 306.920727 95.775506 
L 307.453091 95.724013 
L 309.316364 95.43702 
L 311.179636 95.392849 
L 313.042909 95.574363 
L 314.906182 95.964499 
L 317.035636 96.643927 
L 319.165091 97.54811 
L 321.560727 98.802208 
L 324.222545 100.447389 
L 327.416727 102.703406 
L 331.409455 105.831794 
L 345.783273 117.427715 
L 348.711273 119.379762 
L 351.373091 120.903366 
L 353.768727 122.027688 
L 355.898182 122.800287 
L 358.027636 123.332892 
L 359.890909 123.581998 
L 361.754182 123.610825 
L 363.617455 123.402292 
L 365.480727 122.939333 
L 367.077818 122.327092 
L 368.674909 121.504634 
L 370.272 120.461246 
L 372.135273 118.950336 
L 372.401455 118.707761 
L 373.2 126.218476 
L 375.329455 145.718216 
L 377.192727 160.89883 
L 379.056 174.354567 
L 380.919273 186.11528 
L 382.516364 194.869797 
L 384.113455 202.420067 
L 385.444364 207.805648 
L 386.775273 212.379014 
L 388.106182 216.151103 
L 389.170909 218.599212 
L 390.235636 220.547125 
L 391.300364 222.000363 
L 392.098909 222.769109 
L 392.897455 223.265109 
L 393.696 223.490803 
L 394.494545 223.448466 
L 395.293091 223.140538 
L 396.091636 222.569327 
L 396.890182 221.737256 
L 397.954909 220.226073 
L 399.019636 218.26085 
L 400.084364 215.847186 
L 401.415273 212.208095 
L 402.746182 207.888066 
L 404.343273 201.820537 
L 405.940364 194.807094 
L 407.803636 185.454514 
L 409.666909 174.870081 
L 411.796364 161.303889 
L 413.925818 146.212759 
L 416.321455 127.468536 
L 418.717091 106.914963 
L 421.378909 82.032908 
L 424.040727 55.083566 
L 426.436364 29.133844 
L 426.436364 29.133844 
" clip-path="url(#p70bb522e5a)" style="fill: none; stroke-dasharray: 11.1,4.8; stroke-dashoffset: 0; stroke: #000000; stroke-width: 3"/>
   </g>
   <g id="line2d_2">
    <path d="M 27.163636 149.951719 
L 27.962182 155.39499 
L 28.760727 162.343062 
L 30.091636 176.470739 
L 31.954909 196.779279 
L 32.753455 203.670469 
L 33.552 208.755706 
L 34.084364 211.094456 
L 34.616727 212.662144 
L 35.149091 213.586263 
L 35.681455 214.03393 
L 36.213818 214.189031 
L 37.544727 214.387979 
L 38.077091 214.702377 
L 38.609455 215.23406 
L 39.408 216.416168 
L 40.738909 218.988716 
L 42.336 222.013302 
L 44.997818 226.761116 
L 46.062545 229.474079 
L 47.127273 232.864556 
L 50.321455 243.632809 
L 51.386182 246.327539 
L 55.911273 256.773186 
L 57.242182 259.93318 
L 58.040727 261.27656 
L 58.573091 261.828275 
L 59.105455 262.077749 
L 59.637818 262.033556 
L 60.170182 261.732694 
L 60.968727 260.937912 
L 62.832 258.845643 
L 63.630545 258.357697 
L 64.162909 258.23447 
L 64.961455 258.317827 
L 66.026182 258.75353 
L 68.155636 259.710852 
L 69.486545 260.008672 
L 71.349818 260.164725 
L 73.213091 260.139269 
L 74.544 259.881542 
L 75.608727 259.463817 
L 77.205818 258.5528 
L 79.601455 257.162479 
L 80.932364 256.66604 
L 82.263273 256.44035 
L 83.594182 256.466043 
L 85.457455 256.540952 
L 86.256 256.273429 
L 86.788364 255.868731 
L 87.320727 255.220215 
L 87.853091 254.282718 
L 88.651636 252.274364 
L 89.450182 249.541703 
L 90.514909 244.976246 
L 93.442909 231.51102 
L 94.507636 227.803538 
L 95.572364 224.941672 
L 96.637091 222.705257 
L 98.234182 219.933831 
L 101.428364 214.502727 
L 102.493091 212.181725 
L 103.291636 209.963815 
L 104.090182 207.152054 
L 104.888727 203.632784 
L 105.953455 197.858621 
L 109.413818 177.414714 
L 110.212364 174.185553 
L 111.010909 171.822671 
L 111.809455 170.231677 
L 112.608 169.244549 
L 113.406545 168.677929 
L 114.205091 168.376453 
L 115.269818 168.211406 
L 116.600727 168.249819 
L 117.665455 168.488655 
L 118.464 168.846259 
L 119.262545 169.437607 
L 120.061091 170.379255 
L 120.859636 171.830255 
L 121.658182 173.971463 
L 122.456727 176.956056 
L 123.255273 180.841488 
L 124.32 187.233053 
L 127.248 205.773614 
L 128.312727 210.584245 
L 129.377455 214.126127 
L 130.442182 216.841829 
L 132.571636 221.444057 
L 135.233455 226.745404 
L 137.629091 230.923306 
L 139.492364 234.222877 
L 140.557091 236.544431 
L 141.355636 238.722937 
L 142.154182 241.408652 
L 143.218909 245.859111 
L 144.549818 252.53417 
L 146.413091 261.956892 
L 147.477818 266.143972 
L 148.276364 268.3822 
L 149.074909 269.825361 
L 149.607273 270.386315 
L 150.139636 270.67178 
L 150.672 270.723654 
L 151.204364 270.578336 
L 152.002909 270.041751 
L 152.801455 269.138673 
L 153.6 267.826513 
L 154.398545 266.029457 
L 155.197091 263.690149 
L 156.261818 259.75964 
L 158.125091 251.604451 
L 159.722182 244.946927 
L 161.319273 239.294674 
L 163.714909 230.970488 
L 166.909091 219.378693 
L 168.24 215.626829 
L 169.837091 211.160609 
L 170.635636 208.240798 
L 171.434182 204.514908 
L 172.498909 198.211353 
L 174.362182 185.043803 
L 175.693091 176.171887 
L 176.757818 170.296109 
L 177.822545 165.481019 
L 179.685818 158.32278 
L 182.081455 148.886474 
L 184.210909 140.668908 
L 185.275636 137.436902 
L 186.074182 135.617001 
L 186.872727 134.353967 
L 187.671273 133.617763 
L 188.203636 133.382649 
L 189.002182 133.337652 
L 189.800727 133.565972 
L 190.865455 134.131442 
L 192.728727 135.446231 
L 195.656727 137.552879 
L 196.721455 138.054936 
L 197.786182 138.317525 
L 199.117091 138.384713 
L 200.980364 138.436697 
L 202.045091 138.66075 
L 203.376 139.205522 
L 205.771636 140.567573 
L 207.634909 141.48782 
L 210.030545 142.344057 
L 213.490909 143.629511 
L 215.354182 144.231621 
L 216.951273 144.4996 
L 218.548364 144.504322 
L 220.411636 144.254198 
L 223.872 143.48885 
L 231.591273 141.576497 
L 232.922182 140.880478 
L 234.253091 139.88667 
L 235.584 138.564946 
L 236.914909 136.933441 
L 238.778182 134.266274 
L 241.44 130.051977 
L 242.770909 127.529685 
L 243.835636 124.900948 
L 244.634182 122.381657 
L 245.698909 118.199103 
L 247.296 110.645251 
L 249.159273 102.030491 
L 250.224 98.051203 
L 251.288727 94.801501 
L 252.619636 91.422848 
L 253.950545 88.542512 
L 255.015273 86.685743 
L 255.813818 85.682244 
L 256.612364 85.096531 
L 257.144727 84.95889 
L 257.677091 85.026078 
L 258.209455 85.291546 
L 259.008 86.032632 
L 259.806545 87.135675 
L 260.871273 89.090058 
L 261.936 91.589229 
L 263.000727 94.765036 
L 264.065455 98.806509 
L 265.396364 105.062741 
L 267.525818 115.522578 
L 268.324364 118.534147 
L 269.122909 120.726996 
L 269.921455 122.153022 
L 270.72 123.03842 
L 272.583273 124.734673 
L 273.381818 125.858994 
L 274.446545 127.868766 
L 278.439273 136.230453 
L 279.504 137.639239 
L 280.302545 138.354709 
L 281.101091 138.769108 
L 281.899636 138.886893 
L 282.698182 138.72922 
L 283.496727 138.338365 
L 284.561455 137.564659 
L 287.223273 135.4535 
L 288.288 134.883746 
L 289.618909 134.453792 
L 292.014545 133.833441 
L 293.079273 133.264952 
L 294.144 132.38626 
L 295.208727 131.212693 
L 297.072 128.751882 
L 298.669091 126.736018 
L 299.733818 125.69077 
L 300.798545 124.99505 
L 301.597091 124.725578 
L 302.395636 124.667116 
L 303.194182 124.7977 
L 304.258909 125.20432 
L 305.856 126.101007 
L 309.582545 128.262536 
L 312.244364 129.531118 
L 314.373818 130.535934 
L 315.438545 131.291731 
L 316.237091 132.117386 
L 317.035636 133.248396 
L 317.834182 134.728776 
L 318.898909 137.230757 
L 320.496 141.750199 
L 322.625455 147.800285 
L 323.956364 150.969456 
L 325.287273 153.557006 
L 326.618182 155.647484 
L 328.215273 157.68152 
L 330.078545 159.644575 
L 331.675636 161.032363 
L 332.740364 161.707771 
L 333.538909 161.999802 
L 334.337455 162.047081 
L 335.136 161.810317 
L 335.934545 161.277607 
L 336.733091 160.470457 
L 337.797818 159.060706 
L 340.992 154.509732 
L 341.790545 153.895263 
L 342.322909 153.738784 
L 342.855273 153.822632 
L 343.387636 154.166437 
L 343.92 154.773235 
L 344.718545 156.135549 
L 345.783273 158.558649 
L 347.646545 162.942785 
L 348.445091 164.312771 
L 349.243636 165.205052 
L 349.776 165.533881 
L 350.308364 165.673049 
L 351.106909 165.598365 
L 352.171636 165.170887 
L 354.567273 164.050832 
L 355.898182 163.699057 
L 358.027636 163.430024 
L 362.818909 162.891924 
L 364.416 162.474857 
L 366.279273 161.726942 
L 368.408727 160.659661 
L 369.473455 159.943365 
L 370.538182 158.96053 
L 371.602909 157.662331 
L 374.264727 154.152111 
L 374.797091 153.756691 
L 375.329455 153.582673 
L 375.861818 153.67214 
L 376.394182 154.055376 
L 376.926545 154.747901 
L 377.725091 156.356477 
L 378.523636 158.565794 
L 379.854545 163.089432 
L 381.717818 169.369102 
L 382.782545 172.113526 
L 383.581091 173.64596 
L 384.379636 174.783993 
L 385.444364 175.89168 
L 387.041455 177.421166 
L 387.84 178.474156 
L 388.638545 179.903018 
L 389.437091 181.792652 
L 390.501818 185.043645 
L 392.098909 190.99187 
L 393.696 196.819009 
L 394.760727 199.83961 
L 395.559273 201.458035 
L 396.357818 202.507673 
L 396.890182 202.915584 
L 397.422545 203.116989 
L 397.954909 203.137381 
L 398.753455 202.881727 
L 399.552 202.342292 
L 400.616727 201.257867 
L 401.681455 199.8006 
L 402.746182 197.979917 
L 404.077091 195.187337 
L 405.408 191.861344 
L 407.803636 185.090309 
L 411.264 174.719097 
L 413.659636 167.49346 
L 414.724364 165.075434 
L 415.522909 163.776866 
L 416.587636 162.584251 
L 417.652364 161.483244 
L 418.450909 160.242629 
L 418.983273 159.034722 
L 419.781818 156.478967 
L 420.580364 152.956423 
L 421.645091 146.94087 
L 424.573091 128.908502 
L 425.371636 125.33996 
L 426.170182 122.720195 
L 426.436364 122.052319 
L 426.436364 122.052319 
" clip-path="url(#p70bb522e5a)" style="fill: none; stroke: #ff0000; stroke-width: 3; stroke-linecap: square"/>
   </g>
   <g id="patch_3">
    <path d="M 7.2 331.2 
L 7.2 7.2 
" style="fill: none; stroke: #000000; stroke-width: 0.8; stroke-linejoin: miter; stroke-linecap: square"/>
   </g>
   <g id="patch_4">
    <path d="M 446.4 331.2 
L 446.4 7.2 
" style="fill: none; stroke: #000000; stroke-width: 0.8; stroke-linejoin: miter; stroke-linecap: square"/>
   </g>
   <g id="patch_5">
    <path d="M 7.2 331.2 
L 446.4 331.2 
" style="fill: none; stroke: #000000; stroke-width: 0.8; stroke-linejoin: miter; stroke-linecap: square"/>
   </g>
   <g id="patch_6">
    <path d="M 7.2 7.2 
L 446.4 7.2 
" style="fill: none; stroke: #000000; stroke-width: 0.8; stroke-linejoin: miter; stroke-linecap: square"/>
   </g>
  </g>
 </g>
 <defs>
  <clipPath id="p70bb522e5a">
   <rect x="7.2" y="7.2" width="439.2" height="324"/>
  </clipPath>
 </defs>
</svg>
