<?xml version="1.0" encoding="utf-8" standalone="no"?>
<!DOCTYPE svg PUBLIC "-//W3C//DTD SVG 1.1//EN"
  "http://www.w3.org/Graphics/SVG/1.1/DTD/svg11.dtd">
<svg xmlns:xlink="http://www.w3.org/1999/xlink" width="453.6pt" height="338.4pt" viewBox="0 0 453.6 338.4" xmlns="http://www.w3.org/2000/svg" version="1.1">
 <metadata>
  <rdf:RDF xmlns:dc="http://purl.org/dc/elements/1.1/" xmlns:cc="http://creativecommons.org/ns#" xmlns:rdf="http://www.w3.org/1999/02/22-rdf-syntax-ns#">
   <cc:Work>
    <dc:type rdf:resource="http://purl.org/dc/dcmitype/StillImage"/>
    <dc:date>2025-05-14T16:26:28.169959</dc:date>
    <dc:format>image/svg+xml</dc:format>
    <dc:creator>
     <cc:Agent>
      <dc:title>Matplotlib v3.10.1, https://matplotlib.org/</dc:title>
     </cc:Agent>
    </dc:creator>
   </cc:Work>
  </rdf:RDF>
 </metadata>
 <defs>
  <style type="text/css">*{stroke-linejoin: round; stroke-linecap: butt}</style>
 </defs>
 <g id="figure_1">
  <g id="patch_1">
   <path d="M 0 338.4 
L 453.6 338.4 
L 453.6 0 
L 0 0 
z
" style="fill: #ffffff"/>
  </g>
  <g id="axes_1">
   <g id="patch_2">
    <path d="M 7.2 331.2 
L 446.4 331.2 
L 446.4 7.2 
L 7.2 7.2 
z
" style="fill: #ffffff"/>
   </g>
   <g id="matplotlib.axis_1"/>
   <g id="matplotlib.axis_2"/>
   <g id="line2d_1">
    <path d="M 27.163636 186.911088 
L 30.890182 179.253356 
L 34.616727 172.132258 
L 38.343273 165.513603 
L 42.069818 159.363148 
L 45.796364 153.646754 
L 49.522909 148.330151 
L 53.249455 143.37914 
L 57.242182 138.44135 
L 61.501091 133.546308 
L 65.76 128.985223 
L 70.551273 124.189568 
L 75.874909 119.192507 
L 82.263273 113.520583 
L 95.572364 102.118694 
L 99.298909 98.862707 
L 101.694545 122.52281 
L 103.291636 135.889527 
L 104.888727 147.358411 
L 106.219636 155.524819 
L 107.550545 162.477052 
L 108.881455 168.262144 
L 109.946182 172.081626 
L 111.010909 175.208531 
L 112.075636 177.666954 
L 113.140364 179.481052 
L 113.938909 180.433349 
L 114.737455 181.046914 
L 115.536 181.332055 
L 116.334545 181.298847 
L 117.133091 180.957588 
L 117.931636 180.31832 
L 118.730182 179.391393 
L 119.794909 177.725434 
L 120.859636 175.590186 
L 122.190545 172.297946 
L 123.521455 168.357316 
L 125.118545 162.839097 
L 126.715636 156.536534 
L 128.578909 148.300937 
L 130.708364 137.883464 
L 133.370182 123.636387 
L 136.564364 105.240885 
L 142.686545 68.299054 
L 146.945455 43.296159 
L 149.873455 27.371334 
L 150.139636 28.497429 
L 151.736727 71.930377 
L 153.067636 102.478422 
L 154.398545 128.324808 
L 155.729455 149.873734 
L 157.060364 167.529362 
L 158.125091 179.122325 
L 159.189818 188.689057 
L 160.254545 196.436633 
L 161.319273 202.571876 
L 162.384 207.301783 
L 163.448727 210.833237 
L 164.247273 212.819826 
L 165.045818 214.336004 
L 165.844364 215.469051 
L 166.909091 216.534673 
L 168.24 217.442367 
L 170.103273 218.64528 
L 170.901818 219.379053 
L 171.700364 220.369877 
L 172.498909 221.705058 
L 173.297455 223.471869 
L 174.096 225.757635 
L 174.894545 228.649645 
L 175.693091 232.235164 
L 176.757818 238.245564 
L 177.822545 245.851084 
L 178.887273 254.95307 
L 180.218182 258.938595 
L 181.549091 262.284654 
L 182.88 265.024114 
L 184.210909 267.189786 
L 185.275636 268.531288 
L 186.340364 269.543398 
L 187.405091 270.242941 
L 188.469818 270.646727 
L 189.534545 270.771574 
L 190.599273 270.634293 
L 191.664 270.251702 
L 192.728727 269.640612 
L 194.059636 268.581051 
L 195.390545 267.223551 
L 196.987636 265.24757 
L 198.850909 262.535516 
L 200.980364 259.010044 
L 203.908364 253.65854 
L 211.893818 238.736358 
L 214.023273 235.328527 
L 215.886545 232.75095 
L 217.483636 230.913606 
L 218.814545 229.688178 
L 220.145455 228.775673 
L 221.210182 228.293033 
L 222.274909 228.048501 
L 223.339636 228.058876 
L 224.404364 228.340988 
L 225.469091 228.911646 
L 226.533818 229.787652 
L 227.598545 230.985833 
L 228.663273 232.523034 
L 229.461818 233.908461 
L 229.994182 235.548033 
L 231.857455 241.571056 
L 233.454545 246.045177 
L 235.051636 249.913637 
L 236.648727 253.204443 
L 238.245818 255.945719 
L 239.576727 257.830609 
L 240.907636 259.369667 
L 242.238545 260.579176 
L 243.569455 261.475385 
L 244.900364 262.074585 
L 246.231273 262.393016 
L 247.562182 262.446975 
L 248.893091 262.252711 
L 250.224 261.826484 
L 251.554909 261.184604 
L 253.152 260.15255 
L 254.749091 258.861448 
L 256.612364 257.065252 
L 258.741818 254.684849 
L 261.137455 251.668887 
L 264.331636 247.249257 
L 275.777455 230.957576 
L 278.173091 228.10742 
L 280.302545 225.913578 
L 282.165818 224.310892 
L 283.762909 223.20806 
L 285.36 222.38503 
L 285.892364 222.155394 
L 290.151273 217.595441 
L 294.410182 212.69889 
L 298.402909 207.76432 
L 302.395636 202.46056 
L 306.122182 197.145889 
L 309.848727 191.449807 
L 313.575273 185.343383 
L 317.301818 178.797753 
L 321.028364 171.784091 
L 324.754909 164.273498 
L 328.481455 156.237042 
L 332.208 147.645983 
L 335.934545 138.471353 
L 339.661091 128.68422 
L 343.387636 118.255897 
L 347.114182 107.157345 
L 350.840727 95.359738 
L 354.567273 82.834247 
L 358.293818 69.551993 
L 362.020364 55.48399 
L 366.013091 39.506566 
L 370.005818 22.558596 
L 370.272 23.941241 
L 372.401455 54.87491 
L 374.530909 82.778014 
L 376.660364 107.753083 
L 378.789818 129.902468 
L 380.653091 147.045312 
L 382.516364 162.170976 
L 384.379636 175.348401 
L 385.976727 185.144304 
L 387.573818 193.602031 
L 389.170909 200.76458 
L 390.501818 205.775343 
L 391.832727 209.941536 
L 393.163636 213.288166 
L 394.228364 215.392172 
L 395.293091 217.000388 
L 396.091636 217.888911 
L 396.890182 218.511088 
L 397.688727 218.872396 
L 398.487273 218.978147 
L 399.285818 218.833773 
L 400.084364 218.444638 
L 400.882909 217.816141 
L 401.947636 216.615116 
L 403.012364 215.010876 
L 404.077091 213.016228 
L 405.408 209.993362 
L 406.738909 206.405333 
L 408.336 201.388837 
L 409.933091 195.637541 
L 411.796364 188.056618 
L 413.925818 178.327544 
L 416.055273 167.560454 
L 418.450909 154.33366 
L 421.112727 138.42497 
L 424.306909 117.922064 
L 426.436364 103.557167 
L 426.436364 103.557167 
" clip-path="url(#pa541b08e72)" style="fill: none; stroke-dasharray: 11.1,4.8; stroke-dashoffset: 0; stroke: #000000; stroke-width: 3"/>
   </g>
   <g id="line2d_2">
    <path d="M 27.163636 180.159998 
L 29.825455 191.694042 
L 30.624 194.116299 
L 31.422545 195.713481 
L 31.954909 196.32645 
L 32.487273 196.618788 
L 33.019636 196.64564 
L 33.552 196.472966 
L 34.616727 195.810032 
L 35.681455 195.161898 
L 36.48 194.937476 
L 37.012364 194.973703 
L 37.544727 195.172651 
L 38.343273 195.757126 
L 39.408 196.910038 
L 40.738909 198.375618 
L 41.537455 198.912279 
L 42.069818 199.021637 
L 42.602182 198.895372 
L 43.134545 198.521142 
L 43.666909 197.904891 
L 44.465455 196.579752 
L 45.530182 194.279651 
L 48.458182 187.633415 
L 49.789091 185.318945 
L 51.652364 182.642675 
L 54.048 179.160326 
L 56.443636 175.642934 
L 57.508364 174.521176 
L 58.306909 174.028143 
L 58.839273 173.895172 
L 59.371636 173.924719 
L 60.170182 174.259649 
L 60.968727 174.890797 
L 62.299636 176.349768 
L 64.429091 178.722103 
L 65.493818 179.572661 
L 66.558545 180.113649 
L 67.623273 180.36667 
L 68.954182 180.398429 
L 72.414545 180.308208 
L 75.076364 180.336544 
L 76.407273 180.104019 
L 77.738182 179.637058 
L 79.069091 178.947026 
L 80.4 178.031325 
L 81.730909 176.842932 
L 83.061818 175.334549 
L 84.925091 172.783798 
L 87.054545 169.88157 
L 88.385455 168.470835 
L 89.450182 167.638738 
L 91.047273 166.737258 
L 93.176727 165.568449 
L 96.104727 163.737891 
L 96.903273 163.564646 
L 97.435636 163.618631 
L 97.968 163.825479 
L 98.766545 164.420268 
L 99.831273 165.641518 
L 102.226909 168.688375 
L 103.025455 169.355013 
L 103.824 169.738135 
L 104.622545 169.82639 
L 105.421091 169.61733 
L 106.219636 169.101755 
L 107.018182 168.264426 
L 107.816727 167.101165 
L 108.881455 165.097221 
L 110.744727 160.920109 
L 112.341818 157.512172 
L 113.938909 154.657188 
L 115.802182 151.83463 
L 117.133091 150.150421 
L 118.197818 149.153189 
L 118.996364 148.688984 
L 119.794909 148.499341 
L 120.593455 148.579345 
L 121.392 148.890038 
L 122.722909 149.706493 
L 123.787636 150.316117 
L 124.586182 150.528847 
L 125.118545 150.475089 
L 125.650909 150.222296 
L 126.183273 149.743782 
L 126.715636 149.024203 
L 127.514182 147.493103 
L 128.312727 145.472498 
L 129.643636 141.33401 
L 134.967273 123.676187 
L 136.032 120.985266 
L 136.830545 119.561136 
L 137.362909 118.952916 
L 137.895273 118.619611 
L 138.427636 118.532321 
L 139.226182 118.73636 
L 140.823273 119.354586 
L 141.355636 119.336662 
L 141.888 119.120737 
L 142.420364 118.693645 
L 143.218909 117.69464 
L 144.549818 115.48513 
L 145.614545 113.858805 
L 146.146909 113.300533 
L 146.679273 113.007922 
L 147.211636 113.047722 
L 147.744 113.481397 
L 148.276364 114.363723 
L 148.808727 115.74017 
L 149.341091 117.641533 
L 150.139636 121.493608 
L 150.938182 126.461227 
L 152.269091 136.476644 
L 154.132364 150.661256 
L 155.197091 157.011081 
L 155.995636 160.597828 
L 156.794182 163.280339 
L 157.592727 165.293307 
L 158.657455 167.397813 
L 161.319273 172.348095 
L 162.650182 175.299393 
L 163.981091 178.754425 
L 165.578182 183.544207 
L 168.506182 192.489517 
L 169.837091 195.840281 
L 171.168 198.569545 
L 172.232727 200.299804 
L 173.297455 201.621107 
L 174.362182 202.561474 
L 175.693091 203.382598 
L 177.024 204.2212 
L 177.822545 204.961347 
L 178.621091 206.020745 
L 179.419636 207.493761 
L 180.218182 209.443078 
L 181.282909 212.804412 
L 182.613818 218.019907 
L 185.541818 230.042859 
L 186.606545 233.444317 
L 187.671273 236.121316 
L 188.736 238.185162 
L 189.800727 239.792641 
L 190.865455 241.064207 
L 191.930182 242.058822 
L 192.994909 242.789488 
L 194.059636 243.254857 
L 195.124364 243.46767 
L 196.455273 243.454415 
L 199.383273 243.247861 
L 200.980364 243.46343 
L 202.045091 243.570782 
L 202.843636 243.441274 
L 203.376 243.178119 
L 203.908364 242.730929 
L 204.706909 241.663596 
L 205.505455 240.108241 
L 206.570182 237.404425 
L 209.498182 229.318961 
L 210.562909 227.154245 
L 211.627636 225.541403 
L 212.692364 224.356609 
L 214.023273 223.256234 
L 215.620364 222.236627 
L 218.016 220.998663 
L 221.210182 219.376981 
L 222.807273 218.284928 
L 224.404364 216.907814 
L 228.663273 212.72863 
L 232.123636 209.202908 
L 233.720727 207.652891 
L 234.785455 206.88634 
L 235.584 206.540499 
L 236.382545 206.430631 
L 237.181091 206.56915 
L 237.979636 206.945785 
L 239.044364 207.768376 
L 240.109091 208.880241 
L 241.44 210.594796 
L 242.770909 212.701426 
L 243.835636 214.774691 
L 244.900364 217.288188 
L 246.231273 221.080397 
L 248.094545 227.269941 
L 251.554909 238.940933 
L 253.684364 245.398378 
L 255.281455 249.58573 
L 256.612364 252.432743 
L 257.943273 254.716723 
L 259.806545 257.37193 
L 263.533091 262.256055 
L 265.130182 264.02988 
L 266.727273 265.451017 
L 268.324364 266.559775 
L 270.453818 267.732078 
L 272.050909 268.367628 
L 272.849455 268.50379 
L 273.648 268.416075 
L 274.180364 268.186021 
L 274.712727 267.786752 
L 275.511273 266.824523 
L 276.309818 265.39794 
L 277.108364 263.529158 
L 278.173091 260.490087 
L 280.036364 254.36008 
L 281.899636 247.504516 
L 282.964364 242.818667 
L 284.029091 237.237131 
L 285.626182 227.411436 
L 287.223273 217.68158 
L 288.021818 213.772465 
L 288.820364 210.914461 
L 289.352727 209.673074 
L 289.885091 208.972745 
L 290.417455 208.787728 
L 290.949818 209.066785 
L 291.482182 209.738717 
L 292.280727 211.29638 
L 295.208727 218.050622 
L 295.741091 218.784115 
L 296.273455 219.225637 
L 296.805818 219.344028 
L 297.338182 219.120695 
L 297.870545 218.549589 
L 298.402909 217.637277 
L 299.201455 215.673748 
L 300.266182 212.137291 
L 302.129455 204.658325 
L 303.460364 199.608736 
L 304.525091 196.443287 
L 305.323636 194.782507 
L 305.856 194.054483 
L 306.388364 193.640488 
L 306.920727 193.54263 
L 307.453091 193.758958 
L 307.985455 194.285023 
L 308.517818 195.114593 
L 309.316364 196.910249 
L 310.114909 199.329688 
L 311.179636 203.395406 
L 313.042909 211.834761 
L 314.64 218.656217 
L 315.704727 222.162021 
L 316.503273 224.086479 
L 317.301818 225.41606 
L 318.100364 226.212966 
L 318.632727 226.486519 
L 319.165091 226.578566 
L 319.697455 226.505848 
L 320.496 226.113702 
L 321.294545 225.404341 
L 322.093091 224.395364 
L 323.157818 222.615465 
L 324.222545 220.393209 
L 325.553455 217.111186 
L 327.416727 211.877431 
L 334.071273 192.438858 
L 335.402182 189.409636 
L 336.733091 186.870498 
L 338.330182 184.339252 
L 340.725818 181.078191 
L 342.322909 178.768373 
L 343.92 176.00548 
L 347.380364 169.666602 
L 348.445091 168.248028 
L 349.509818 167.210716 
L 350.574545 166.525003 
L 351.639273 166.141416 
L 352.704 166.014782 
L 353.768727 166.10367 
L 355.099636 166.443068 
L 359.624727 167.885017 
L 360.955636 167.974695 
L 362.286545 167.82731 
L 363.883636 167.372883 
L 366.811636 166.397562 
L 367.610182 166.355128 
L 368.408727 166.521105 
L 369.207273 166.939489 
L 370.005818 167.631031 
L 370.804364 168.591587 
L 371.869091 170.244906 
L 373.2 172.789618 
L 374.797091 176.420765 
L 376.128 180.027641 
L 377.458909 184.407572 
L 378.789818 189.740283 
L 380.386909 197.288226 
L 384.113455 215.622747 
L 385.444364 220.825638 
L 386.509091 224.179448 
L 387.573818 226.786819 
L 388.372364 228.23702 
L 389.170909 229.231864 
L 389.703273 229.632244 
L 390.235636 229.820201 
L 390.768 229.80117 
L 391.300364 229.589371 
L 392.098909 228.963411 
L 393.163636 227.731259 
L 396.624 223.384807 
L 398.221091 221.451844 
L 399.285818 219.857312 
L 400.350545 217.882257 
L 401.681455 214.892265 
L 406.206545 203.54675 
L 407.537455 199.933993 
L 408.602182 196.481586 
L 409.666909 192.333055 
L 410.997818 186.126621 
L 413.127273 174.685942 
L 414.458182 167.989863 
L 415.256727 164.851749 
L 415.789091 163.325652 
L 416.321455 162.342167 
L 416.853818 161.951645 
L 417.12 161.986547 
L 417.386182 162.175137 
L 417.918545 163.002792 
L 418.450909 164.395584 
L 419.249455 167.397515 
L 420.314182 172.622052 
L 422.976 186.541441 
L 423.774545 189.672348 
L 424.573091 192.000302 
L 425.371636 193.529515 
L 425.904 194.157942 
L 426.436364 194.533058 
L 426.436364 194.533058 
" clip-path="url(#pa541b08e72)" style="fill: none; stroke: #ffa500; stroke-width: 3; stroke-linecap: square"/>
   </g>
   <g id="patch_3">
    <path d="M 7.2 331.2 
L 7.2 7.2 
" style="fill: none; stroke: #000000; stroke-width: 0.8; stroke-linejoin: miter; stroke-linecap: square"/>
   </g>
   <g id="patch_4">
    <path d="M 446.4 331.2 
L 446.4 7.2 
" style="fill: none; stroke: #000000; stroke-width: 0.8; stroke-linejoin: miter; stroke-linecap: square"/>
   </g>
   <g id="patch_5">
    <path d="M 7.2 331.2 
L 446.4 331.2 
" style="fill: none; stroke: #000000; stroke-width: 0.8; stroke-linejoin: miter; stroke-linecap: square"/>
   </g>
   <g id="patch_6">
    <path d="M 7.2 7.2 
L 446.4 7.2 
" style="fill: none; stroke: #000000; stroke-width: 0.8; stroke-linejoin: miter; stroke-linecap: square"/>
   </g>
  </g>
 </g>
 <defs>
  <clipPath id="pa541b08e72">
   <rect x="7.2" y="7.2" width="439.2" height="324"/>
  </clipPath>
 </defs>
</svg>
