<?xml version="1.0" encoding="utf-8" standalone="no"?>
<!DOCTYPE svg PUBLIC "-//W3C//DTD SVG 1.1//EN"
  "http://www.w3.org/Graphics/SVG/1.1/DTD/svg11.dtd">
<svg xmlns:xlink="http://www.w3.org/1999/xlink" width="453.6pt" height="338.4pt" viewBox="0 0 453.6 338.4" xmlns="http://www.w3.org/2000/svg" version="1.1">
 <metadata>
  <rdf:RDF xmlns:dc="http://purl.org/dc/elements/1.1/" xmlns:cc="http://creativecommons.org/ns#" xmlns:rdf="http://www.w3.org/1999/02/22-rdf-syntax-ns#">
   <cc:Work>
    <dc:type rdf:resource="http://purl.org/dc/dcmitype/StillImage"/>
    <dc:date>2025-05-14T16:20:48.584236</dc:date>
    <dc:format>image/svg+xml</dc:format>
    <dc:creator>
     <cc:Agent>
      <dc:title>Matplotlib v3.10.1, https://matplotlib.org/</dc:title>
     </cc:Agent>
    </dc:creator>
   </cc:Work>
  </rdf:RDF>
 </metadata>
 <defs>
  <style type="text/css">*{stroke-linejoin: round; stroke-linecap: butt}</style>
 </defs>
 <g id="figure_1">
  <g id="patch_1">
   <path d="M 0 338.4 
L 453.6 338.4 
L 453.6 0 
L 0 0 
z
" style="fill: #ffffff"/>
  </g>
  <g id="axes_1">
   <g id="patch_2">
    <path d="M 7.2 331.2 
L 446.4 331.2 
L 446.4 7.2 
L 7.2 7.2 
z
" style="fill: #ffffff"/>
   </g>
   <g id="matplotlib.axis_1"/>
   <g id="matplotlib.axis_2"/>
   <g id="line2d_1">
    <path d="M 27.163636 248.84112 
L 60.436364 124.418396 
L 60.702545 124.483548 
L 113.140364 205.343854 
L 203.642182 268.408999 
L 203.908364 268.352271 
L 237.181091 159.362937 
L 237.447273 159.374436 
L 333.805091 315.654012 
L 334.071273 315.335298 
L 386.509091 201.219226 
L 426.436364 88.94104 
L 426.436364 88.94104 
" clip-path="url(#pba5d3df903)" style="fill: none; stroke-dasharray: 11.1,4.8; stroke-dashoffset: 0; stroke: #000000; stroke-width: 3"/>
   </g>
   <g id="line2d_2">
    <path d="M 27.163636 238.69899 
L 27.429818 247.126631 
L 27.696 250.257858 
L 28.228364 252.442465 
L 28.494545 252.507327 
L 29.293091 251.466828 
L 29.825455 250.679538 
L 30.624 249.837627 
L 30.890182 249.812702 
L 31.156364 250.110886 
L 31.422545 251.02581 
L 31.954909 250.141596 
L 32.221091 249.399659 
L 32.487273 249.178872 
L 33.019636 247.73158 
L 34.350545 243.591086 
L 35.149091 241.712542 
L 35.415273 241.593801 
L 35.681455 241.001355 
L 36.213818 239.172702 
L 37.810909 229.26932 
L 39.408 222.503087 
L 39.674182 221.703618 
L 41.005091 215.657868 
L 42.336 210.197612 
L 43.134545 208.386945 
L 43.933091 204.778375 
L 44.731636 199.713091 
L 46.062545 193.678586 
L 47.659636 189.587069 
L 48.990545 186.517029 
L 49.256727 186.162822 
L 50.321455 184.150961 
L 51.652364 182.335097 
L 52.450909 180.868938 
L 52.717091 178.178201 
L 53.249455 176.773093 
L 53.781818 175.528713 
L 55.112727 172.45812 
L 56.709818 168.535477 
L 57.242182 166.63013 
L 57.508364 166.040555 
L 57.774545 165.733373 
L 58.306909 164.592671 
L 59.105455 163.141206 
L 59.904 161.104081 
L 60.436364 160.693071 
L 60.702545 160.591806 
L 60.968727 160.719107 
L 61.234909 170.743873 
L 61.501091 170.889344 
L 62.299636 169.489758 
L 62.832 169.004546 
L 63.098182 168.58869 
L 63.364364 168.523609 
L 64.162909 167.108644 
L 64.961455 167.072337 
L 65.493818 167.45617 
L 65.76 167.259715 
L 66.292364 166.383798 
L 67.357091 163.568438 
L 67.623273 162.827177 
L 68.954182 157.378639 
L 69.220364 157.069192 
L 69.486545 157.216963 
L 69.752727 155.090915 
L 70.285091 154.421196 
L 70.817455 153.631111 
L 71.349818 153.451774 
L 71.616 153.412535 
L 71.882182 153.585939 
L 73.479273 153.356197 
L 74.011636 153.771544 
L 74.544 154.013136 
L 74.810182 153.911695 
L 75.076364 153.999863 
L 75.608727 153.924073 
L 75.874909 153.873967 
L 76.141091 154.084484 
L 76.673455 154.230184 
L 76.939636 154.425954 
L 77.472 154.318861 
L 77.738182 154.251216 
L 78.004364 154.395494 
L 78.270545 152.472028 
L 79.069091 152.54292 
L 79.335273 152.73467 
L 80.133818 152.448906 
L 81.464727 153.272577 
L 82.263273 153.57709 
L 82.795636 153.975284 
L 83.594182 154.948481 
L 84.392727 154.974201 
L 85.457455 155.847486 
L 86.256 156.084443 
L 86.522182 156.208846 
L 86.788364 154.877168 
L 87.054545 154.967881 
L 88.119273 155.770203 
L 88.385455 155.697116 
L 88.651636 155.444815 
L 89.450182 155.481859 
L 89.716364 155.787162 
L 89.982545 155.909371 
L 90.248727 156.22542 
L 90.781091 156.455442 
L 91.047273 156.223875 
L 91.313455 156.310357 
L 91.845818 157.028057 
L 92.112 157.589683 
L 92.378182 157.870302 
L 92.644364 157.98505 
L 93.176727 157.899358 
L 93.709091 157.724006 
L 94.773818 159.213287 
L 95.04 159.36076 
L 95.306182 159.678827 
L 95.838545 159.369222 
L 96.104727 159.478299 
L 96.370909 159.931005 
L 97.169455 160.546809 
L 97.435636 160.485538 
L 97.968 160.031814 
L 98.500364 160.579534 
L 99.032727 161.449307 
L 99.565091 161.918639 
L 100.097455 161.847378 
L 100.363636 161.906754 
L 101.162182 163.341821 
L 101.428364 163.668965 
L 101.694545 163.647388 
L 101.960727 163.432342 
L 102.226909 163.070981 
L 102.759273 163.390347 
L 103.291636 164.306434 
L 103.557818 164.524834 
L 103.824 163.916087 
L 104.622545 163.301108 
L 105.687273 164.770481 
L 106.219636 164.608191 
L 106.485818 164.31702 
L 107.018182 164.222234 
L 108.082909 165.413954 
L 108.615273 165.243956 
L 108.881455 164.941988 
L 109.147636 165.190673 
L 109.413818 165.227208 
L 109.946182 165.685163 
L 110.478545 165.34343 
L 111.277091 164.148515 
L 111.809455 164.224147 
L 112.075636 164.294127 
L 112.341818 162.162285 
L 112.874182 161.18017 
L 113.140364 160.329392 
L 114.737455 157.669336 
L 115.802182 154.884138 
L 116.068364 154.629817 
L 116.334545 154.597391 
L 116.600727 154.706573 
L 117.133091 154.184485 
L 117.931636 152.908846 
L 118.730182 152.570255 
L 118.996364 152.566446 
L 119.528727 151.925659 
L 119.794909 151.207537 
L 120.327273 150.574089 
L 120.593455 150.448333 
L 120.859636 149.281578 
L 121.392 148.822973 
L 121.924364 147.860995 
L 122.456727 146.682723 
L 122.989091 146.102417 
L 123.255273 146.059124 
L 123.787636 145.298709 
L 124.32 144.087712 
L 124.852364 143.202998 
L 125.384727 142.825117 
L 125.917091 142.328467 
L 126.449455 141.150968 
L 127.248 139.337211 
L 127.780364 138.503815 
L 128.578909 136.685546 
L 129.111273 135.247968 
L 129.377455 140.691538 
L 129.909818 140.463218 
L 130.442182 139.888777 
L 133.370182 134.982184 
L 133.636364 135.027479 
L 133.902545 134.686483 
L 134.701091 134.229177 
L 134.967273 133.975208 
L 135.499636 133.741429 
L 135.765818 133.549504 
L 136.830545 133.65593 
L 137.362909 133.733142 
L 138.161455 133.736092 
L 138.96 134.221751 
L 139.758545 134.550282 
L 140.024727 134.591012 
L 141.355636 136.057313 
L 142.420364 137.044221 
L 142.952727 137.845103 
L 143.751273 139.300255 
L 144.816 140.378773 
L 146.146909 142.345831 
L 147.211636 143.509847 
L 148.542545 145.172725 
L 149.873455 146.832162 
L 150.938182 148.45775 
L 151.470545 149.143305 
L 153.067636 151.243247 
L 153.866182 152.105558 
L 154.664727 153.395945 
L 154.930909 153.503284 
L 155.995636 154.508503 
L 156.528 155.243655 
L 157.326545 155.707211 
L 158.125091 156.056089 
L 159.189818 157.101917 
L 160.254545 157.389471 
L 161.319273 158.372306 
L 161.851636 158.34534 
L 162.117818 158.264177 
L 162.650182 158.582385 
L 163.182545 159.309741 
L 163.448727 160.377655 
L 163.714909 160.551005 
L 164.513455 160.687892 
L 165.045818 161.547465 
L 165.578182 162.326998 
L 165.844364 162.462094 
L 166.110545 162.398646 
L 166.376727 162.2175 
L 166.642909 162.184986 
L 166.909091 162.315534 
L 167.175273 162.747717 
L 167.973818 164.618637 
L 168.24 164.705593 
L 168.506182 164.667408 
L 168.772364 164.447937 
L 169.038545 164.503784 
L 169.570909 165.244975 
L 170.103273 166.161395 
L 170.369455 166.21208 
L 171.168 166.04698 
L 171.434182 166.32465 
L 172.232727 168.458616 
L 172.498909 168.79589 
L 172.765091 168.92542 
L 173.031273 168.83741 
L 173.297455 168.945294 
L 173.563636 169.228187 
L 173.829818 169.728611 
L 174.628364 171.919195 
L 174.894545 172.329406 
L 175.693091 172.710975 
L 177.024 176.003075 
L 177.556364 176.470239 
L 177.822545 176.677631 
L 178.088727 177.036332 
L 179.153455 179.505561 
L 179.685818 179.893476 
L 179.952 180.004572 
L 180.218182 180.483138 
L 180.484364 182.880202 
L 181.282909 186.001015 
L 181.549091 186.701686 
L 182.081455 187.100907 
L 182.347636 187.321861 
L 182.88 189.301771 
L 183.678545 192.783303 
L 184.477091 194.38225 
L 185.009455 196.469735 
L 185.808 199.766365 
L 186.340364 200.498383 
L 186.606545 200.616976 
L 187.138909 201.863436 
L 187.937455 204.217628 
L 188.203636 204.634905 
L 189.268364 205.559665 
L 190.066909 207.106785 
L 190.333091 207.338212 
L 190.599273 207.372043 
L 190.865455 207.2819 
L 191.397818 207.488739 
L 192.196364 208.565124 
L 192.462545 208.907058 
L 192.728727 208.990275 
L 192.994909 208.93787 
L 193.261091 208.706285 
L 193.527273 208.690774 
L 194.059636 209.105093 
L 194.592 209.643193 
L 195.124364 209.665147 
L 195.656727 209.523661 
L 195.922909 209.597424 
L 196.455273 210.114992 
L 196.987636 210.702592 
L 197.253818 210.775073 
L 197.52 210.667663 
L 197.786182 210.716136 
L 198.052364 210.882851 
L 198.584727 211.622742 
L 199.117091 212.382622 
L 199.383273 212.621484 
L 200.448 212.864428 
L 201.512727 213.768822 
L 202.045091 213.356416 
L 202.577455 212.817131 
L 203.376 212.458325 
L 203.642182 212.166434 
L 204.174545 210.597693 
L 204.973091 207.751434 
L 205.771636 205.34546 
L 207.901091 196.966516 
L 208.433455 193.016819 
L 208.965818 187.13257 
L 209.232 185.420991 
L 209.498182 184.76026 
L 210.296727 183.702696 
L 210.829091 182.413109 
L 212.16 178.172662 
L 212.692364 175.451615 
L 213.224727 171.335546 
L 213.757091 167.167246 
L 214.555636 162.584075 
L 214.821818 160.52525 
L 215.620364 151.390895 
L 216.418909 148.172689 
L 217.217455 144.581342 
L 218.016 140.983288 
L 220.145455 134.293433 
L 220.677818 133.224116 
L 221.742545 131.105951 
L 222.274909 129.591775 
L 222.807273 128.724337 
L 223.339636 128.393576 
L 224.404364 126.955664 
L 224.670545 126.544602 
L 225.469091 126.419829 
L 225.735273 126.375746 
L 226.8 125.32358 
L 227.066182 125.256305 
L 228.130909 126.349411 
L 228.663273 126.155362 
L 228.929455 125.890701 
L 229.461818 126.087261 
L 229.994182 126.727099 
L 230.526545 126.702345 
L 231.325091 126.480486 
L 232.389818 127.931583 
L 232.656 127.886955 
L 232.922182 127.676262 
L 233.188364 127.244044 
L 233.986909 126.841514 
L 234.253091 126.987933 
L 235.051636 126.693093 
L 235.317818 126.320513 
L 235.584 125.646598 
L 235.850182 125.433307 
L 236.116364 125.489083 
L 236.914909 126.162999 
L 237.447273 125.992861 
L 237.979636 125.621967 
L 238.245818 125.796968 
L 239.576727 128.289099 
L 239.842909 128.168136 
L 240.109091 128.297543 
L 240.375273 128.575354 
L 240.641455 129.041087 
L 241.173818 130.515586 
L 241.706182 131.406743 
L 241.972364 131.39879 
L 242.504727 131.205302 
L 242.770909 131.610641 
L 243.037091 132.483715 
L 243.835636 136.664058 
L 244.101818 137.140763 
L 244.634182 137.271645 
L 244.900364 137.117343 
L 245.698909 137.651159 
L 245.965091 137.682023 
L 246.497455 137.21622 
L 247.029818 136.549889 
L 247.296 136.358385 
L 247.828364 136.654103 
L 248.360727 136.611986 
L 248.893091 136.318901 
L 249.159273 135.928871 
L 249.691636 135.891529 
L 249.957818 136.030381 
L 250.490182 135.89885 
L 250.756364 135.825025 
L 251.554909 135.131184 
L 252.087273 135.226128 
L 252.619636 135.409416 
L 253.152 135.341368 
L 253.418182 135.048248 
L 253.950545 135.018157 
L 254.482909 135.402973 
L 255.015273 135.463226 
L 255.547636 135.198161 
L 255.813818 134.852425 
L 256.346182 135.145211 
L 257.144727 136.028608 
L 257.410909 136.100747 
L 257.677091 135.782768 
L 258.209455 136.093233 
L 259.274182 138.395721 
L 259.540364 138.597162 
L 259.806545 138.603851 
L 260.072727 138.221545 
L 260.338909 138.632713 
L 260.871273 140.496084 
L 261.403636 142.547061 
L 261.669818 142.751609 
L 262.202182 142.386983 
L 262.468364 142.432682 
L 262.734545 142.81899 
L 263.799273 146.174047 
L 264.065455 146.278595 
L 264.331636 145.937336 
L 264.597818 146.042989 
L 264.864 145.422638 
L 265.130182 145.717285 
L 265.662545 147.114625 
L 266.194909 147.475564 
L 266.993455 146.480738 
L 267.259636 146.61399 
L 267.525818 146.552525 
L 268.058182 147.504795 
L 268.324364 147.467014 
L 268.590545 147.30741 
L 268.856727 146.877071 
L 269.122909 146.790729 
L 269.389091 146.203419 
L 269.655273 146.284318 
L 270.187636 145.965426 
L 270.453818 145.971202 
L 270.72 145.469619 
L 270.986182 145.250798 
L 271.252364 144.543209 
L 271.518545 144.30009 
L 271.784727 143.743205 
L 272.050909 143.877475 
L 273.115636 143.394608 
L 273.381818 142.49843 
L 273.648 142.421744 
L 273.914182 142.683613 
L 274.180364 142.769745 
L 274.712727 143.195958 
L 274.978909 143.324611 
L 275.777455 144.0059 
L 276.043636 143.84705 
L 276.309818 144.023263 
L 276.576 144.014871 
L 276.842182 144.131023 
L 277.108364 144.0855 
L 277.374545 144.264574 
L 278.705455 144.541594 
L 278.971636 144.648828 
L 279.237818 145.012805 
L 279.504 145.170952 
L 280.036364 145.952838 
L 280.302545 146.17036 
L 281.633455 149.396326 
L 281.899636 150.24907 
L 282.698182 151.147354 
L 283.230545 152.091706 
L 283.496727 152.673012 
L 283.762909 152.902771 
L 284.029091 153.511904 
L 284.295273 153.727741 
L 284.561455 154.103673 
L 285.093818 155.462933 
L 286.158545 159.453229 
L 286.690909 160.615419 
L 287.489455 161.679628 
L 288.288 163.390119 
L 288.554182 163.542349 
L 288.820364 163.875936 
L 289.618909 164.301325 
L 289.885091 164.565652 
L 290.417455 165.440885 
L 291.216 166.005583 
L 291.482182 166.16861 
L 292.280727 167.430081 
L 292.813091 168.597346 
L 293.345455 169.50296 
L 293.877818 170.331485 
L 294.676364 173.565711 
L 295.741091 179.245307 
L 296.805818 184.528886 
L 297.870545 188.48902 
L 298.402909 190.03521 
L 299.733818 193.579621 
L 300.532364 195.189251 
L 301.597091 197.577756 
L 302.661818 199.935818 
L 304.258909 204.520438 
L 304.791273 206.176487 
L 305.856 211.129437 
L 306.654545 214.835085 
L 307.453091 217.675936 
L 309.582545 223.531683 
L 310.114909 226.409385 
L 310.647273 228.181209 
L 311.978182 232.187507 
L 313.841455 239.305287 
L 316.503273 247.887287 
L 317.834182 251.251267 
L 318.898909 253.570526 
L 319.963636 256.043727 
L 321.028364 258.583308 
L 322.359273 262.065298 
L 323.424 264.963773 
L 323.956364 266.643659 
L 324.222545 267.373087 
L 324.488727 269.218524 
L 328.215273 275.01799 
L 329.546182 277.209557 
L 331.143273 278.737366 
L 332.740364 279.910358 
L 333.006545 280.561325 
L 333.805091 280.184655 
L 334.337455 279.705904 
L 335.668364 277.87663 
L 337.265455 275.316223 
L 339.661091 268.905451 
L 340.459636 266.701213 
L 341.258182 264.88057 
L 341.524364 265.504849 
L 346.315636 250.54644 
L 348.178909 243.779403 
L 348.711273 241.306185 
L 348.977455 240.582612 
L 349.509818 239.661794 
L 349.776 239.270526 
L 350.042182 240.343917 
L 350.840727 238.943821 
L 351.373091 238.697032 
L 351.639273 238.693346 
L 351.905455 238.412858 
L 352.171636 238.410233 
L 353.236364 237.639205 
L 353.502545 237.668559 
L 353.768727 237.562282 
L 354.034909 237.705682 
L 355.898182 236.575031 
L 356.164364 236.304577 
L 356.430545 236.331974 
L 356.962909 236.170754 
L 357.761455 235.208978 
L 358.027636 234.641172 
L 358.293818 233.799805 
L 358.56 237.130714 
L 359.092364 235.993559 
L 360.423273 232.606382 
L 361.754182 229.96145 
L 362.818909 226.830183 
L 365.214545 222.35773 
L 366.013091 221.38951 
L 366.545455 220.807818 
L 366.811636 220.602629 
L 367.077818 221.23986 
L 368.142545 219.676685 
L 368.408727 219.489982 
L 369.207273 218.224306 
L 369.739636 217.161853 
L 370.272 215.853788 
L 371.336727 212.830526 
L 372.667636 208.123434 
L 373.466182 204.337835 
L 375.063273 199.706393 
L 375.329455 198.919521 
L 375.861818 196.406533 
L 377.458909 191.234023 
L 380.919273 183.808376 
L 381.185455 183.447595 
L 382.250182 181.182493 
L 382.782545 180.773897 
L 383.581091 181.539921 
L 383.847273 181.743109 
L 384.113455 183.39102 
L 384.379636 182.993563 
L 385.178182 181.133274 
L 385.444364 180.782552 
L 386.242909 179.184676 
L 386.775273 178.01017 
L 387.307636 176.631581 
L 387.573818 176.125855 
L 388.372364 173.315226 
L 388.638545 171.833389 
L 389.170909 167.567231 
L 390.235636 154.882716 
L 390.768 151.579081 
L 391.034182 150.547632 
L 391.300364 148.867584 
L 391.566545 148.4265 
L 391.832727 148.66056 
L 392.098909 148.361875 
L 392.365091 146.847787 
L 392.631273 168.575032 
L 392.897455 167.907946 
L 393.429818 164.930752 
L 395.293091 146.151066 
L 395.825455 142.450606 
L 396.357818 139.51237 
L 399.019636 120.362387 
L 399.818182 118.252561 
L 400.084364 118.991909 
L 400.350545 120.081522 
L 400.882909 120.764742 
L 401.149091 122.330498 
L 401.681455 118.743891 
L 402.213818 114.947803 
L 402.746182 112.095452 
L 403.012364 110.542599 
L 403.810909 109.701583 
L 404.077091 109.698195 
L 404.343273 109.915278 
L 404.609455 110.657769 
L 404.875636 110.562157 
L 405.141818 110.192176 
L 405.940364 108.159721 
L 406.472727 107.349534 
L 407.005091 107.127412 
L 407.271273 106.707431 
L 407.537455 107.141422 
L 407.803636 107.346707 
L 408.336 109.04231 
L 409.134545 114.61871 
L 409.400727 115.642399 
L 409.666909 122.142874 
L 409.933091 122.338065 
L 410.199273 121.254527 
L 411.530182 113.07288 
L 411.796364 112.609974 
L 412.062545 112.571666 
L 412.328727 113.258608 
L 412.594909 113.45652 
L 412.861091 113.923306 
L 413.127273 114.745888 
L 413.925818 113.054552 
L 414.192 111.825156 
L 414.724364 107.941935 
L 414.990545 107.128781 
L 415.256727 107.687562 
L 415.789091 107.89046 
L 416.055273 109.242364 
L 416.321455 109.822757 
L 416.853818 112.726161 
L 417.386182 117.897644 
L 417.918545 121.395012 
L 418.184727 128.765629 
L 418.450909 129.332135 
L 419.249455 123.073462 
L 419.515636 122.111554 
L 420.048 117.965464 
L 420.314182 119.91407 
L 420.580364 120.788934 
L 420.846545 120.924293 
L 421.112727 120.750469 
L 421.378909 121.413411 
L 421.645091 123.6179 
L 421.911273 122.729921 
L 422.177455 122.932608 
L 422.443636 127.814465 
L 422.709818 126.975626 
L 422.976 124.551754 
L 423.508364 123.431611 
L 423.774545 124.905126 
L 424.040727 124.745856 
L 424.306909 125.369191 
L 424.573091 129.793637 
L 424.839273 131.630673 
L 425.105455 131.914646 
L 425.371636 131.665645 
L 426.436364 151.613772 
L 426.436364 151.613772 
" clip-path="url(#pba5d3df903)" style="fill: none; stroke: #ffa500; stroke-width: 3; stroke-linecap: square"/>
   </g>
   <g id="patch_3">
    <path d="M 7.2 331.2 
L 7.2 7.2 
" style="fill: none; stroke: #000000; stroke-width: 0.8; stroke-linejoin: miter; stroke-linecap: square"/>
   </g>
   <g id="patch_4">
    <path d="M 446.4 331.2 
L 446.4 7.2 
" style="fill: none; stroke: #000000; stroke-width: 0.8; stroke-linejoin: miter; stroke-linecap: square"/>
   </g>
   <g id="patch_5">
    <path d="M 7.2 331.2 
L 446.4 331.2 
" style="fill: none; stroke: #000000; stroke-width: 0.8; stroke-linejoin: miter; stroke-linecap: square"/>
   </g>
   <g id="patch_6">
    <path d="M 7.2 7.2 
L 446.4 7.2 
" style="fill: none; stroke: #000000; stroke-width: 0.8; stroke-linejoin: miter; stroke-linecap: square"/>
   </g>
  </g>
 </g>
 <defs>
  <clipPath id="pba5d3df903">
   <rect x="7.2" y="7.2" width="439.2" height="324"/>
  </clipPath>
 </defs>
</svg>
