<?xml version="1.0" encoding="utf-8" standalone="no"?>
<!DOCTYPE svg PUBLIC "-//W3C//DTD SVG 1.1//EN"
  "http://www.w3.org/Graphics/SVG/1.1/DTD/svg11.dtd">
<svg xmlns:xlink="http://www.w3.org/1999/xlink" width="453.6pt" height="338.4pt" viewBox="0 0 453.6 338.4" xmlns="http://www.w3.org/2000/svg" version="1.1">
 <metadata>
  <rdf:RDF xmlns:dc="http://purl.org/dc/elements/1.1/" xmlns:cc="http://creativecommons.org/ns#" xmlns:rdf="http://www.w3.org/1999/02/22-rdf-syntax-ns#">
   <cc:Work>
    <dc:type rdf:resource="http://purl.org/dc/dcmitype/StillImage"/>
    <dc:date>2025-05-14T16:28:59.320059</dc:date>
    <dc:format>image/svg+xml</dc:format>
    <dc:creator>
     <cc:Agent>
      <dc:title>Matplotlib v3.10.1, https://matplotlib.org/</dc:title>
     </cc:Agent>
    </dc:creator>
   </cc:Work>
  </rdf:RDF>
 </metadata>
 <defs>
  <style type="text/css">*{stroke-linejoin: round; stroke-linecap: butt}</style>
 </defs>
 <g id="figure_1">
  <g id="patch_1">
   <path d="M 0 338.4 
L 453.6 338.4 
L 453.6 0 
L 0 0 
z
" style="fill: #ffffff"/>
  </g>
  <g id="axes_1">
   <g id="patch_2">
    <path d="M 7.2 331.2 
L 446.4 331.2 
L 446.4 7.2 
L 7.2 7.2 
z
" style="fill: #ffffff"/>
   </g>
   <g id="matplotlib.axis_1"/>
   <g id="matplotlib.axis_2"/>
   <g id="line2d_1">
    <path d="M 27.163636 151.210171 
L 30.091636 159.201244 
L 32.753455 165.867204 
L 35.415273 171.962989 
L 38.077091 177.488626 
L 40.472727 181.974176 
L 42.868364 185.997899 
L 45.264 189.559804 
L 47.393455 192.338217 
L 49.522909 194.751722 
L 51.652364 196.800337 
L 53.515636 198.293525 
L 55.378909 199.50734 
L 57.242182 200.441764 
L 59.105455 201.096806 
L 60.702545 201.435914 
L 62.299636 201.569746 
L 63.896727 201.498336 
L 65.493818 201.221658 
L 67.090909 200.739729 
L 68.688 200.052524 
L 70.551273 198.991378 
L 72.414545 197.650843 
L 74.277818 196.030925 
L 76.141091 194.131617 
L 78.270545 191.618901 
L 80.4 188.74126 
L 82.529455 185.49873 
L 84.925091 181.414683 
L 87.320727 176.868819 
L 89.716364 171.861119 
L 92.378182 165.755353 
L 95.04 159.079403 
L 97.701818 151.833313 
L 100.629818 143.204034 
L 103.557818 133.884846 
L 106.752 122.931713 
L 109.946182 111.157473 
L 113.140364 98.562231 
L 116.600727 83.990837 
L 120.061091 68.455849 
L 123.787636 50.648271 
L 125.118545 44.017599 
L 126.183273 46.620651 
L 132.571636 62.327216 
L 138.96 77.448613 
L 145.348364 91.984754 
L 151.470545 105.366131 
L 157.592727 118.21004 
L 163.448727 129.992584 
L 169.304727 141.28343 
L 175.160727 152.082542 
L 180.750545 161.93207 
L 186.340364 171.333553 
L 191.664 179.870819 
L 196.987636 188.001649 
L 202.311273 195.726139 
L 207.368727 202.687949 
L 212.426182 209.283009 
L 217.483636 215.511291 
L 222.274909 221.073462 
L 227.066182 226.306462 
L 231.857455 231.210281 
L 236.648727 235.784911 
L 241.173818 239.803148 
L 245.698909 243.527774 
L 250.224 246.958784 
L 254.482909 249.919733 
L 258.741818 252.620617 
L 263.000727 255.061388 
L 267.259636 257.242101 
L 271.518545 259.162692 
L 275.511273 260.727044 
L 279.504 262.062809 
L 283.496727 263.169974 
L 287.489455 264.048542 
L 289.618909 264.42365 
L 289.885091 264.641119 
L 292.014545 267.394527 
L 294.144 269.797929 
L 296.273455 271.851324 
L 298.136727 273.36091 
L 300 274.602503 
L 301.863273 275.576108 
L 303.726545 276.281756 
L 305.589818 276.719412 
L 307.186909 276.881259 
L 308.784 276.846208 
L 310.381091 276.61429 
L 311.978182 276.185469 
L 313.841455 275.43636 
L 315.704727 274.419255 
L 317.568 273.134179 
L 319.431273 271.581107 
L 321.294545 269.760051 
L 323.424 267.350729 
L 325.553455 264.591356 
L 327.682909 261.482008 
L 330.078545 257.565597 
L 332.474182 253.206154 
L 334.869818 248.403771 
L 337.531636 242.548221 
L 340.193455 236.145702 
L 342.855273 229.196339 
L 345.783273 220.92045 
L 348.711273 211.982708 
L 351.905455 201.477734 
L 355.099636 190.185211 
L 356.962909 183.726573 
L 360.157091 182.869116 
L 363.351273 182.236651 
L 366.545455 181.829178 
L 369.739636 181.646725 
L 372.933818 181.689228 
L 376.128 181.956742 
L 379.322182 182.449257 
L 382.516364 183.166782 
L 385.710545 184.109273 
L 388.904727 185.276775 
L 392.098909 186.669268 
L 395.559273 188.431699 
L 399.019636 190.458176 
L 402.48 192.748744 
L 405.940364 195.303349 
L 409.400727 198.122 
L 413.127273 201.452795 
L 416.853818 205.089823 
L 420.580364 209.033086 
L 424.573091 213.597859 
L 426.436364 215.848398 
L 426.436364 215.848398 
" clip-path="url(#pff4a9a770c)" style="fill: none; stroke-dasharray: 11.1,4.8; stroke-dashoffset: 0; stroke: #000000; stroke-width: 3"/>
   </g>
   <g id="line2d_2">
    <path d="M 27.163636 223.586239 
L 27.429818 225.28222 
L 27.696 225.37899 
L 27.962182 225.238496 
L 28.228364 224.724939 
L 28.494545 224.496515 
L 29.026909 225.308229 
L 29.293091 225.863209 
L 29.825455 226.370735 
L 30.091636 226.31301 
L 30.357818 225.82915 
L 30.624 225.8502 
L 30.890182 226.050333 
L 31.156364 226.00754 
L 31.422545 224.651976 
L 31.954909 224.814828 
L 32.221091 224.948843 
L 32.487273 224.862142 
L 32.753455 224.999941 
L 33.552 226.225799 
L 34.350545 227.258696 
L 34.616727 227.213278 
L 35.415273 227.762992 
L 35.681455 226.441847 
L 36.746182 227.118755 
L 37.012364 227.183845 
L 37.810909 227.942092 
L 38.077091 228.003126 
L 38.609455 228.240321 
L 39.141818 228.104031 
L 39.674182 228.258641 
L 39.940364 228.696362 
L 40.738909 229.169109 
L 41.803636 230.184669 
L 42.868364 230.655643 
L 43.400727 230.786086 
L 43.933091 230.978204 
L 44.199273 229.990901 
L 44.997818 230.14199 
L 45.530182 230.379114 
L 46.062545 230.611805 
L 46.594909 230.871392 
L 47.393455 231.137027 
L 48.458182 231.237124 
L 50.853818 232.20997 
L 52.184727 232.458207 
L 52.450909 232.544426 
L 52.717091 232.433242 
L 54.314182 232.740907 
L 54.846545 232.738871 
L 56.709818 232.59799 
L 56.976 232.993393 
L 57.508364 233.057631 
L 58.040727 232.972492 
L 58.573091 232.820604 
L 59.105455 232.551554 
L 59.637818 232.370566 
L 60.436364 232.161146 
L 60.702545 232.095565 
L 60.968727 232.213473 
L 61.234909 235.668627 
L 63.896727 234.020479 
L 65.227636 232.971211 
L 65.493818 232.934228 
L 68.954182 230.05837 
L 69.486545 229.507805 
L 69.752727 229.680234 
L 71.349818 227.558049 
L 72.946909 225.312048 
L 73.745455 223.914164 
L 74.011636 224.013454 
L 78.004364 217.658547 
L 78.270545 219.681337 
L 79.867636 216.450113 
L 80.932364 214.182632 
L 81.730909 211.928301 
L 81.997091 211.316798 
L 82.263273 210.416214 
L 82.529455 210.132917 
L 84.658909 204.762785 
L 85.723636 202.607076 
L 86.522182 201.034464 
L 86.788364 201.388451 
L 87.853091 199.385245 
L 89.184 196.524133 
L 89.982545 194.039192 
L 90.781091 191.264993 
L 91.047273 190.815183 
L 92.644364 186.402703 
L 93.442909 184.311171 
L 95.572364 177.339187 
L 98.766545 170.114928 
L 100.896 163.661943 
L 102.226909 157.651534 
L 103.291636 152.667464 
L 104.622545 148.145441 
L 105.687273 145.251096 
L 107.018182 141.487645 
L 107.284364 140.57377 
L 108.349091 135.025671 
L 109.413818 130.997892 
L 110.212364 127.354578 
L 111.277091 123.257733 
L 112.075636 119.526814 
L 112.874182 114.692043 
L 113.672727 109.736573 
L 114.737455 103.007235 
L 116.068364 96.481022 
L 118.197818 88.563369 
L 118.730182 86.976738 
L 120.061091 82.145778 
L 120.593455 79.868167 
L 122.722909 65.802797 
L 123.521455 60.711494 
L 124.32 57.014827 
L 125.118545 54.835356 
L 125.384727 54.576541 
L 125.650909 54.661373 
L 125.917091 54.967063 
L 126.715636 56.607802 
L 127.780364 59.628096 
L 128.845091 63.316126 
L 129.111273 64.450349 
L 129.377455 67.194975 
L 130.974545 73.902596 
L 131.773091 75.84662 
L 133.636364 79.225695 
L 134.967273 82.39706 
L 135.499636 83.446856 
L 138.161455 90.334885 
L 142.686545 102.826019 
L 145.082182 107.757507 
L 149.607273 115.795894 
L 152.269091 119.62397 
L 152.801455 120.356207 
L 153.866182 121.866644 
L 154.664727 123.048796 
L 159.988364 132.743337 
L 161.585455 134.901232 
L 162.117818 135.593318 
L 162.650182 136.703471 
L 163.714909 138.508555 
L 165.578182 141.830677 
L 166.376727 143.376507 
L 167.175273 144.74602 
L 168.24 145.929927 
L 169.038545 146.704826 
L 170.369455 148.133573 
L 171.700364 149.340866 
L 171.966545 149.391849 
L 177.822545 154.286592 
L 180.218182 155.932827 
L 180.750545 156.519786 
L 186.074182 160.643035 
L 188.203636 162.897613 
L 190.333091 165.903581 
L 190.865455 166.55685 
L 191.397818 167.099321 
L 192.462545 168.431228 
L 193.793455 170.096345 
L 197.52 174.013053 
L 198.850909 175.693663 
L 199.383273 176.343087 
L 199.915636 176.920943 
L 200.714182 177.916797 
L 201.512727 178.993278 
L 202.577455 181.047704 
L 203.376 182.500162 
L 204.973091 184.931241 
L 208.965818 192.310223 
L 210.829091 194.945578 
L 211.361455 195.527463 
L 211.893818 196.279469 
L 212.692364 197.033204 
L 214.023273 198.523311 
L 215.886545 200.463033 
L 217.217455 201.777463 
L 218.282182 202.737458 
L 219.080727 203.519221 
L 220.677818 204.896283 
L 222.274909 206.089662 
L 224.670545 207.721053 
L 225.202909 207.90686 
L 226.267636 208.650868 
L 227.066182 209.165101 
L 229.461818 211.515298 
L 230.526545 213.253343 
L 232.922182 218.492733 
L 233.454545 219.610445 
L 233.986909 220.527813 
L 234.519273 221.571937 
L 240.109091 229.705945 
L 240.641455 230.400471 
L 242.238545 232.854593 
L 244.368 236.177803 
L 244.900364 236.907925 
L 246.231273 238.726167 
L 247.562182 240.750722 
L 248.094545 241.314085 
L 248.626909 241.923946 
L 249.159273 242.303039 
L 249.957818 243.04822 
L 251.288727 244.552038 
L 252.087273 245.226278 
L 252.885818 245.649718 
L 253.152 245.667801 
L 255.813818 246.986764 
L 256.612364 247.227527 
L 258.209455 247.546028 
L 259.806545 248.259761 
L 261.936 248.654768 
L 262.734545 248.952027 
L 263.266909 249.202845 
L 267.792 250.812444 
L 268.590545 251.257588 
L 269.389091 251.583081 
L 271.252364 252.606357 
L 272.317091 253.28661 
L 273.115636 253.685059 
L 273.381818 254.303733 
L 277.374545 255.292222 
L 277.640727 255.551603 
L 278.439273 255.645265 
L 279.237818 255.980972 
L 280.036364 256.263567 
L 281.633455 256.981087 
L 281.899636 257.394213 
L 285.892364 259.407058 
L 286.690909 260.138922 
L 286.957091 260.347455 
L 288.021818 261.933191 
L 288.820364 263.137385 
L 289.885091 264.697093 
L 290.151273 265.159587 
L 290.417455 266.093081 
L 291.748364 268.199022 
L 292.546909 269.160074 
L 295.741091 272.147828 
L 300.532364 274.140325 
L 302.661818 274.475826 
L 303.460364 274.371862 
L 304.258909 274.009715 
L 305.856 272.614917 
L 307.186909 271.259099 
L 307.453091 271.45716 
L 307.985455 270.951706 
L 308.517818 270.491942 
L 309.848727 269.169151 
L 311.445818 267.653878 
L 311.712 267.533775 
L 313.042909 266.20329 
L 314.373818 265.080224 
L 315.172364 264.588196 
L 315.704727 264.343707 
L 315.970909 264.595728 
L 317.035636 264.014409 
L 317.834182 263.545836 
L 318.632727 262.907367 
L 319.431273 262.029878 
L 320.229818 260.941002 
L 321.028364 258.568324 
L 321.560727 256.487238 
L 322.891636 250.476877 
L 323.424 249.170607 
L 324.222545 248.095706 
L 324.488727 250.454581 
L 325.021091 249.79554 
L 325.819636 248.870978 
L 326.618182 247.865447 
L 328.215273 245.700767 
L 328.747636 245.201326 
L 330.610909 242.87572 
L 332.740364 240.223779 
L 333.006545 240.174437 
L 334.337455 238.527667 
L 339.128727 232.295215 
L 340.193455 230.843706 
L 342.056727 228.05885 
L 343.387636 225.818573 
L 344.186182 224.42219 
L 345.517091 222.06224 
L 345.783273 221.875977 
L 346.848 219.918066 
L 347.646545 217.743695 
L 347.912727 216.938616 
L 349.509818 209.536346 
L 349.776 208.113787 
L 350.042182 207.846431 
L 350.574545 205.628125 
L 351.373091 203.104683 
L 352.970182 198.590288 
L 354.567273 194.935773 
L 356.164364 191.683578 
L 356.430545 191.276527 
L 357.229091 189.456134 
L 357.495273 189.278122 
L 358.293818 188.077879 
L 358.56 189.925536 
L 359.358545 188.819043 
L 359.624727 188.792077 
L 360.157091 188.485175 
L 360.955636 188.415258 
L 362.286545 188.575064 
L 362.552727 188.402433 
L 362.818909 188.944588 
L 365.746909 187.01848 
L 366.811636 185.693148 
L 367.077818 186.244231 
L 367.876364 185.11509 
L 368.142545 185.067249 
L 368.408727 184.861744 
L 370.005818 184.459951 
L 370.272 184.349505 
L 371.070545 183.628486 
L 371.336727 184.279666 
L 371.869091 183.779075 
L 372.135273 183.64254 
L 372.401455 183.657138 
L 372.667636 183.502792 
L 373.466182 183.840873 
L 374.530909 183.549676 
L 375.063273 182.877499 
L 375.329455 182.582351 
L 375.595636 183.354775 
L 376.394182 182.674706 
L 376.660364 182.674811 
L 376.926545 182.508948 
L 377.458909 182.740244 
L 377.725091 182.80299 
L 378.523636 182.542815 
L 378.789818 182.506043 
L 379.588364 182.030101 
L 379.854545 183.146908 
L 380.386909 182.713137 
L 380.653091 182.701471 
L 380.919273 182.817246 
L 381.185455 182.699847 
L 381.984 183.205459 
L 382.250182 183.185418 
L 383.048727 183.417398 
L 383.847273 183.180696 
L 384.113455 184.95323 
L 384.379636 184.908295 
L 384.645818 184.688868 
L 385.710545 184.835076 
L 386.242909 185.118399 
L 386.775273 185.075773 
L 388.106182 185.401942 
L 388.372364 186.456003 
L 388.638545 186.49461 
L 388.904727 186.366774 
L 389.170909 186.415931 
L 389.437091 186.705978 
L 389.703273 186.736719 
L 390.235636 187.150205 
L 390.501818 187.480456 
L 390.768 187.492587 
L 391.300364 188.005503 
L 391.832727 188.578689 
L 392.098909 188.883484 
L 392.365091 189.667986 
L 392.631273 188.252274 
L 395.026909 188.089887 
L 395.559273 187.99317 
L 396.091636 188.157523 
L 397.156364 189.074979 
L 397.422545 189.087154 
L 397.688727 189.241869 
L 398.221091 189.843961 
L 399.552 191.393013 
L 400.350545 192.838483 
L 400.882909 193.862584 
L 401.149091 194.667548 
L 403.810909 198.110483 
L 404.343273 198.818633 
L 405.141818 199.536817 
L 405.408 198.288566 
L 406.206545 198.819775 
L 407.271273 200.031702 
L 408.602182 202.302606 
L 410.465455 205.513781 
L 410.731636 205.46781 
L 412.062545 206.643756 
L 413.127273 208.218905 
L 413.393455 208.485708 
L 413.659636 208.993813 
L 413.925818 206.753219 
L 414.724364 207.705577 
L 414.990545 206.739894 
L 415.522909 207.070373 
L 415.789091 207.381216 
L 416.055273 207.200773 
L 416.587636 208.148118 
L 416.853818 208.930593 
L 417.12 208.604818 
L 417.386182 208.628089 
L 417.652364 208.406608 
L 417.918545 208.404475 
L 418.184727 207.687485 
L 418.717091 208.60811 
L 418.983273 209.342349 
L 419.249455 208.528624 
L 419.781818 209.726226 
L 420.846545 214.269536 
L 421.112727 215.876497 
L 421.645091 216.515115 
L 421.911273 216.495417 
L 422.177455 216.75525 
L 422.443636 214.255877 
L 422.976 215.644376 
L 423.242182 216.411138 
L 423.508364 213.953338 
L 423.774545 214.351839 
L 424.040727 214.469414 
L 424.306909 214.946198 
L 424.573091 213.957999 
L 425.371636 216.152183 
L 425.637818 214.360126 
L 425.904 213.555373 
L 426.170182 211.436005 
L 426.436364 210.690355 
L 426.436364 210.690355 
" clip-path="url(#pff4a9a770c)" style="fill: none; stroke: #0000ff; stroke-width: 3; stroke-linecap: square"/>
   </g>
   <g id="patch_3">
    <path d="M 7.2 331.2 
L 7.2 7.2 
" style="fill: none; stroke: #000000; stroke-width: 0.8; stroke-linejoin: miter; stroke-linecap: square"/>
   </g>
   <g id="patch_4">
    <path d="M 446.4 331.2 
L 446.4 7.2 
" style="fill: none; stroke: #000000; stroke-width: 0.8; stroke-linejoin: miter; stroke-linecap: square"/>
   </g>
   <g id="patch_5">
    <path d="M 7.2 331.2 
L 446.4 331.2 
" style="fill: none; stroke: #000000; stroke-width: 0.8; stroke-linejoin: miter; stroke-linecap: square"/>
   </g>
   <g id="patch_6">
    <path d="M 7.2 7.2 
L 446.4 7.2 
" style="fill: none; stroke: #000000; stroke-width: 0.8; stroke-linejoin: miter; stroke-linecap: square"/>
   </g>
  </g>
 </g>
 <defs>
  <clipPath id="pff4a9a770c">
   <rect x="7.2" y="7.2" width="439.2" height="324"/>
  </clipPath>
 </defs>
</svg>
