<?xml version="1.0" encoding="utf-8" standalone="no"?>
<!DOCTYPE svg PUBLIC "-//W3C//DTD SVG 1.1//EN"
  "http://www.w3.org/Graphics/SVG/1.1/DTD/svg11.dtd">
<svg xmlns:xlink="http://www.w3.org/1999/xlink" width="453.6pt" height="338.4pt" viewBox="0 0 453.6 338.4" xmlns="http://www.w3.org/2000/svg" version="1.1">
 <metadata>
  <rdf:RDF xmlns:dc="http://purl.org/dc/elements/1.1/" xmlns:cc="http://creativecommons.org/ns#" xmlns:rdf="http://www.w3.org/1999/02/22-rdf-syntax-ns#">
   <cc:Work>
    <dc:type rdf:resource="http://purl.org/dc/dcmitype/StillImage"/>
    <dc:date>2025-05-14T16:29:17.323439</dc:date>
    <dc:format>image/svg+xml</dc:format>
    <dc:creator>
     <cc:Agent>
      <dc:title>Matplotlib v3.10.1, https://matplotlib.org/</dc:title>
     </cc:Agent>
    </dc:creator>
   </cc:Work>
  </rdf:RDF>
 </metadata>
 <defs>
  <style type="text/css">*{stroke-linejoin: round; stroke-linecap: butt}</style>
 </defs>
 <g id="figure_1">
  <g id="patch_1">
   <path d="M 0 338.4 
L 453.6 338.4 
L 453.6 0 
L 0 0 
z
" style="fill: #ffffff"/>
  </g>
  <g id="axes_1">
   <g id="patch_2">
    <path d="M 7.2 331.2 
L 446.4 331.2 
L 446.4 7.2 
L 7.2 7.2 
z
" style="fill: #ffffff"/>
   </g>
   <g id="matplotlib.axis_1"/>
   <g id="matplotlib.axis_2"/>
   <g id="line2d_1">
    <path d="M 27.163636 151.210171 
L 30.091636 159.201244 
L 32.753455 165.867204 
L 35.415273 171.962989 
L 38.077091 177.488626 
L 40.472727 181.974176 
L 42.868364 185.997899 
L 45.264 189.559804 
L 47.393455 192.338217 
L 49.522909 194.751722 
L 51.652364 196.800337 
L 53.515636 198.293525 
L 55.378909 199.50734 
L 57.242182 200.441764 
L 59.105455 201.096806 
L 60.702545 201.435914 
L 62.299636 201.569746 
L 63.896727 201.498336 
L 65.493818 201.221658 
L 67.090909 200.739729 
L 68.688 200.052524 
L 70.551273 198.991378 
L 72.414545 197.650843 
L 74.277818 196.030925 
L 76.141091 194.131617 
L 78.270545 191.618901 
L 80.4 188.74126 
L 82.529455 185.49873 
L 84.925091 181.414683 
L 87.320727 176.868819 
L 89.716364 171.861119 
L 92.378182 165.755353 
L 95.04 159.079403 
L 97.701818 151.833313 
L 100.629818 143.204034 
L 103.557818 133.884846 
L 106.752 122.931713 
L 109.946182 111.157473 
L 113.140364 98.562231 
L 116.600727 83.990837 
L 120.061091 68.455849 
L 123.787636 50.648271 
L 125.118545 44.017599 
L 126.183273 46.620651 
L 132.571636 62.327216 
L 138.96 77.448613 
L 145.348364 91.984754 
L 151.470545 105.366131 
L 157.592727 118.21004 
L 163.448727 129.992584 
L 169.304727 141.28343 
L 175.160727 152.082542 
L 180.750545 161.93207 
L 186.340364 171.333553 
L 191.664 179.870819 
L 196.987636 188.001649 
L 202.311273 195.726139 
L 207.368727 202.687949 
L 212.426182 209.283009 
L 217.483636 215.511291 
L 222.274909 221.073462 
L 227.066182 226.306462 
L 231.857455 231.210281 
L 236.648727 235.784911 
L 241.173818 239.803148 
L 245.698909 243.527774 
L 250.224 246.958784 
L 254.482909 249.919733 
L 258.741818 252.620617 
L 263.000727 255.061388 
L 267.259636 257.242101 
L 271.518545 259.162692 
L 275.511273 260.727044 
L 279.504 262.062809 
L 283.496727 263.169974 
L 287.489455 264.048542 
L 289.618909 264.42365 
L 289.885091 264.641119 
L 292.014545 267.394527 
L 294.144 269.797929 
L 296.273455 271.851324 
L 298.136727 273.36091 
L 300 274.602503 
L 301.863273 275.576108 
L 303.726545 276.281756 
L 305.589818 276.719412 
L 307.186909 276.881259 
L 308.784 276.846208 
L 310.381091 276.61429 
L 311.978182 276.185469 
L 313.841455 275.43636 
L 315.704727 274.419255 
L 317.568 273.134179 
L 319.431273 271.581107 
L 321.294545 269.760051 
L 323.424 267.350729 
L 325.553455 264.591356 
L 327.682909 261.482008 
L 330.078545 257.565597 
L 332.474182 253.206154 
L 334.869818 248.403771 
L 337.531636 242.548221 
L 340.193455 236.145702 
L 342.855273 229.196339 
L 345.783273 220.92045 
L 348.711273 211.982708 
L 351.905455 201.477734 
L 355.099636 190.185211 
L 356.962909 183.726573 
L 360.157091 182.869116 
L 363.351273 182.236651 
L 366.545455 181.829178 
L 369.739636 181.646725 
L 372.933818 181.689228 
L 376.128 181.956742 
L 379.322182 182.449257 
L 382.516364 183.166782 
L 385.710545 184.109273 
L 388.904727 185.276775 
L 392.098909 186.669268 
L 395.559273 188.431699 
L 399.019636 190.458176 
L 402.48 192.748744 
L 405.940364 195.303349 
L 409.400727 198.122 
L 413.127273 201.452795 
L 416.853818 205.089823 
L 420.580364 209.033086 
L 424.573091 213.597859 
L 426.436364 215.848398 
L 426.436364 215.848398 
" clip-path="url(#p99783c1f72)" style="fill: none; stroke-dasharray: 11.1,4.8; stroke-dashoffset: 0; stroke: #000000; stroke-width: 3"/>
   </g>
   <g id="line2d_2">
    <path d="M 27.163636 235.551316 
L 30.357818 239.069375 
L 34.084364 242.845054 
L 36.746182 245.708408 
L 38.077091 246.797371 
L 39.141818 247.421774 
L 40.206545 247.824515 
L 41.271273 248.016277 
L 42.336 248.01403 
L 43.666909 247.78166 
L 45.530182 247.179519 
L 48.192 246.079412 
L 49.789091 245.220919 
L 51.386182 244.080366 
L 55.378909 240.9103 
L 56.443636 240.49167 
L 57.242182 240.416125 
L 58.040727 240.56969 
L 58.839273 240.953251 
L 59.904 241.773112 
L 63.364364 244.823212 
L 64.162909 245.119465 
L 64.961455 245.165744 
L 65.76 244.967327 
L 66.558545 244.547583 
L 67.623273 243.699083 
L 68.954182 242.284965 
L 70.817455 239.884539 
L 73.745455 235.667881 
L 76.407273 231.564373 
L 77.738182 229.179274 
L 79.069091 226.278837 
L 80.4 222.729379 
L 82.529455 216.161663 
L 84.126545 211.480484 
L 85.457455 208.304553 
L 86.522182 206.327901 
L 87.586909 204.791305 
L 88.917818 203.305623 
L 91.845818 200.274418 
L 92.910545 198.684547 
L 93.975273 196.577838 
L 95.04 193.876217 
L 96.104727 190.570844 
L 97.435636 185.648415 
L 99.032727 178.787272 
L 102.226909 164.665214 
L 103.557818 159.917628 
L 106.219636 151.077884 
L 107.284364 146.491939 
L 108.349091 140.870401 
L 109.68 132.515316 
L 111.543273 119.193806 
L 117.931636 71.864857 
L 119.262545 64.299541 
L 120.327273 59.269474 
L 121.392 55.165747 
L 122.456727 51.96968 
L 123.255273 50.135681 
L 124.053818 48.742379 
L 124.852364 47.74276 
L 125.650909 47.090141 
L 126.449455 46.74523 
L 127.248 46.680237 
L 128.046545 46.877183 
L 128.845091 47.322796 
L 129.643636 48.004805 
L 130.708364 49.260184 
L 131.773091 50.892093 
L 132.837818 52.899776 
L 134.168727 55.959238 
L 135.499636 59.616316 
L 137.629091 66.303976 
L 140.557091 75.44553 
L 142.952727 82.116599 
L 152.002909 105.889712 
L 153.866182 109.952375 
L 156.794182 116.175917 
L 158.125091 119.560434 
L 159.988364 125.02012 
L 162.384 132.023582 
L 163.714909 135.206922 
L 165.045818 137.762571 
L 166.376727 139.849802 
L 168.24 142.354977 
L 170.901818 145.556575 
L 174.628364 149.631422 
L 178.354909 153.766119 
L 179.685818 155.524204 
L 180.750545 157.243052 
L 181.815273 159.344661 
L 183.146182 162.496697 
L 186.074182 169.70038 
L 187.138909 171.640033 
L 188.203636 173.0514 
L 189.268364 174.036781 
L 190.865455 175.110066 
L 192.728727 176.375549 
L 194.325818 177.756043 
L 195.922909 179.461881 
L 197.253818 181.177507 
L 198.584727 183.237051 
L 200.181818 186.173374 
L 203.376 192.279763 
L 204.706909 194.247593 
L 206.037818 195.754238 
L 207.634909 197.158407 
L 210.829091 199.875767 
L 214.023273 202.754628 
L 215.620364 203.887921 
L 218.016 205.26536 
L 222.008727 207.300501 
L 223.872 208.000602 
L 225.735273 208.434786 
L 228.130909 208.957313 
L 229.461818 209.506623 
L 230.526545 210.176175 
L 231.591273 211.071633 
L 232.922182 212.485247 
L 234.785455 214.842695 
L 237.979636 218.910011 
L 239.576727 220.583501 
L 241.706182 222.442913 
L 244.900364 225.183746 
L 247.296 227.597594 
L 250.756364 231.1036 
L 252.619636 232.673456 
L 255.281455 234.572536 
L 261.669818 238.864686 
L 263.533091 239.695897 
L 265.662545 240.374096 
L 267.525818 240.75095 
L 272.583273 241.55731 
L 274.180364 242.199141 
L 276.842182 243.555478 
L 283.762909 247.303822 
L 284.827636 248.195575 
L 285.892364 249.385417 
L 286.957091 250.970117 
L 288.021818 252.98728 
L 289.618909 256.646307 
L 292.014545 262.268261 
L 293.345455 264.857483 
L 294.676364 266.972874 
L 296.007273 268.69342 
L 297.338182 270.082038 
L 298.669091 271.156939 
L 300 271.919702 
L 301.064727 272.305545 
L 302.129455 272.48989 
L 303.194182 272.47071 
L 304.258909 272.252095 
L 305.589818 271.720052 
L 306.920727 270.93806 
L 308.517818 269.725826 
L 310.647273 267.779115 
L 318.100364 260.429794 
L 319.431273 258.640858 
L 320.762182 256.497057 
L 322.625455 253.011683 
L 325.287273 248.000981 
L 326.884364 245.521465 
L 328.215273 243.840749 
L 329.812364 242.183779 
L 332.208 240.082846 
L 336.733091 236.18537 
L 338.330182 234.534571 
L 339.661091 232.897939 
L 340.992 230.9495 
L 342.589091 228.200942 
L 345.250909 223.053819 
L 348.711273 215.987777 
L 350.308364 212.191013 
L 351.639273 208.467563 
L 353.236364 203.2986 
L 355.898182 194.570322 
L 356.962909 191.836467 
L 357.761455 190.242655 
L 358.56 189.049847 
L 359.358545 188.228432 
L 360.157091 187.727666 
L 360.955636 187.48833 
L 361.754182 187.450856 
L 362.818909 187.618615 
L 364.682182 188.199122 
L 367.344 189.013488 
L 369.473455 189.438964 
L 371.336727 189.594697 
L 372.667636 189.490931 
L 373.998545 189.127542 
L 375.329455 188.492663 
L 377.192727 187.290576 
L 380.386909 185.187887 
L 382.250182 184.249372 
L 384.379636 183.439774 
L 386.775273 182.75981 
L 388.106182 182.603068 
L 389.170909 182.707993 
L 390.235636 183.081801 
L 391.300364 183.747131 
L 392.365091 184.692993 
L 393.696 186.211444 
L 395.825455 189.081352 
L 397.688727 191.478951 
L 399.285818 193.156339 
L 401.149091 194.763713 
L 405.141818 197.848842 
L 410.731636 202.079607 
L 413.659636 204.671247 
L 415.522909 206.539287 
L 416.853818 208.204658 
L 418.184727 210.326782 
L 421.112727 215.495113 
L 421.645091 216.025813 
L 422.177455 216.254668 
L 422.709818 216.121705 
L 423.242182 215.58896 
L 423.774545 214.648181 
L 424.573091 212.538021 
L 425.637818 208.807602 
L 426.436364 205.780136 
L 426.436364 205.780136 
" clip-path="url(#p99783c1f72)" style="fill: none; stroke: #0000ff; stroke-width: 3; stroke-linecap: square"/>
   </g>
   <g id="patch_3">
    <path d="M 7.2 331.2 
L 7.2 7.2 
" style="fill: none; stroke: #000000; stroke-width: 0.8; stroke-linejoin: miter; stroke-linecap: square"/>
   </g>
   <g id="patch_4">
    <path d="M 446.4 331.2 
L 446.4 7.2 
" style="fill: none; stroke: #000000; stroke-width: 0.8; stroke-linejoin: miter; stroke-linecap: square"/>
   </g>
   <g id="patch_5">
    <path d="M 7.2 331.2 
L 446.4 331.2 
" style="fill: none; stroke: #000000; stroke-width: 0.8; stroke-linejoin: miter; stroke-linecap: square"/>
   </g>
   <g id="patch_6">
    <path d="M 7.2 7.2 
L 446.4 7.2 
" style="fill: none; stroke: #000000; stroke-width: 0.8; stroke-linejoin: miter; stroke-linecap: square"/>
   </g>
  </g>
 </g>
 <defs>
  <clipPath id="p99783c1f72">
   <rect x="7.2" y="7.2" width="439.2" height="324"/>
  </clipPath>
 </defs>
</svg>
