<?xml version="1.0" encoding="utf-8" standalone="no"?>
<!DOCTYPE svg PUBLIC "-//W3C//DTD SVG 1.1//EN"
  "http://www.w3.org/Graphics/SVG/1.1/DTD/svg11.dtd">
<svg xmlns:xlink="http://www.w3.org/1999/xlink" width="453.6pt" height="338.4pt" viewBox="0 0 453.6 338.4" xmlns="http://www.w3.org/2000/svg" version="1.1">
 <metadata>
  <rdf:RDF xmlns:dc="http://purl.org/dc/elements/1.1/" xmlns:cc="http://creativecommons.org/ns#" xmlns:rdf="http://www.w3.org/1999/02/22-rdf-syntax-ns#">
   <cc:Work>
    <dc:type rdf:resource="http://purl.org/dc/dcmitype/StillImage"/>
    <dc:date>2025-05-14T16:28:33.748584</dc:date>
    <dc:format>image/svg+xml</dc:format>
    <dc:creator>
     <cc:Agent>
      <dc:title>Matplotlib v3.10.1, https://matplotlib.org/</dc:title>
     </cc:Agent>
    </dc:creator>
   </cc:Work>
  </rdf:RDF>
 </metadata>
 <defs>
  <style type="text/css">*{stroke-linejoin: round; stroke-linecap: butt}</style>
 </defs>
 <g id="figure_1">
  <g id="patch_1">
   <path d="M 0 338.4 
L 453.6 338.4 
L 453.6 0 
L 0 0 
z
" style="fill: #ffffff"/>
  </g>
  <g id="axes_1">
   <g id="patch_2">
    <path d="M 7.2 331.2 
L 446.4 331.2 
L 446.4 7.2 
L 7.2 7.2 
z
" style="fill: #ffffff"/>
   </g>
   <g id="matplotlib.axis_1"/>
   <g id="matplotlib.axis_2"/>
   <g id="line2d_1">
    <path d="M 27.163636 266.667553 
L 80.932364 88.22204 
L 81.198545 87.983327 
L 124.053818 234.57481 
L 124.586182 234.922924 
L 211.893818 279.524278 
L 212.16 278.277238 
L 246.763636 33.033813 
L 247.562182 34.247267 
L 343.121455 187.824954 
L 426.436364 283.219997 
L 426.436364 283.219997 
" clip-path="url(#pace8d9e37f)" style="fill: none; stroke-dasharray: 11.1,4.8; stroke-dashoffset: 0; stroke: #000000; stroke-width: 3"/>
   </g>
   <g id="line2d_2">
    <path d="M 27.163636 277.758977 
L 28.494545 274.53208 
L 30.091636 270.085273 
L 31.954909 264.222885 
L 34.350545 255.851455 
L 37.544727 243.759038 
L 43.666909 220.27358 
L 44.199273 218.903401 
L 47.659636 211.70473 
L 50.587636 206.099116 
L 53.249455 201.485985 
L 55.645091 197.797964 
L 57.774545 194.940724 
L 59.637818 192.802009 
L 60.702545 191.741689 
L 61.234909 191.802469 
L 62.565818 192.047923 
L 63.896727 192.076812 
L 65.227636 191.873985 
L 66.558545 191.424483 
L 67.889455 190.713585 
L 69.220364 189.726747 
L 70.551273 188.449914 
L 71.882182 186.869269 
L 73.213091 184.971488 
L 74.810182 182.257525 
L 76.407273 179.047263 
L 77.472 176.801798 
L 81.464727 172.627293 
L 83.594182 169.869456 
L 85.989818 166.385097 
L 88.651636 162.120888 
L 92.112 156.113972 
L 93.975273 152.742342 
L 94.241455 153.629057 
L 97.169455 175.863994 
L 99.298909 190.519597 
L 101.162182 201.824496 
L 102.759273 210.097286 
L 104.090182 215.814216 
L 105.154909 219.518783 
L 106.219636 222.373996 
L 107.018182 223.914717 
L 107.816727 224.906542 
L 108.349091 225.247484 
L 108.881455 225.321467 
L 109.413818 225.119113 
L 109.946182 224.631101 
L 111.010909 223.393787 
L 111.809455 223.299659 
L 112.608 223.524985 
L 113.406545 224.039086 
L 114.205091 224.81301 
L 115.269818 226.200106 
L 116.600727 228.411775 
L 118.197818 231.598476 
L 120.593455 237.019671 
L 124.32 245.477622 
L 125.917091 248.568988 
L 127.248 250.662689 
L 129.377455 252.031775 
L 131.773091 253.861126 
L 134.967273 256.60447 
L 142.154182 262.896227 
L 144.283636 264.483144 
L 144.816 264.636493 
L 147.211636 264.945677 
L 149.607273 265.048487 
L 152.269091 264.927401 
L 154.930909 264.564337 
L 157.592727 263.966897 
L 160.254545 263.140225 
L 162.117818 262.367081 
L 163.448727 261.765581 
L 164.779636 261.37319 
L 166.110545 261.191311 
L 167.441455 261.220169 
L 168.772364 261.459795 
L 170.103273 261.91057 
L 171.434182 262.572766 
L 173.031273 263.646714 
L 174.628364 265.02544 
L 176.225455 266.70881 
L 178.088727 269.044984 
L 178.887273 270.077425 
L 181.549091 271.964953 
L 184.743273 273.977069 
L 188.469818 276.066227 
L 193.793455 278.772975 
L 196.721455 280.086726 
L 199.649455 281.362381 
L 206.037818 284.227622 
L 208.433455 285.008738 
L 210.296727 285.394526 
L 211.893818 285.525531 
L 212.692364 285.50185 
L 212.958545 285.210221 
L 213.490909 283.64496 
L 215.088 278.038881 
L 216.951273 270.639524 
L 219.346909 260.162715 
L 228.130909 220.711399 
L 229.728 214.773129 
L 234.253091 202.739328 
L 239.842909 188.004845 
L 242.770909 180.924222 
L 245.166545 175.69498 
L 246.497455 173.178235 
L 249.691636 168.446555 
L 252.353455 164.907525 
L 254.482909 162.418256 
L 256.346182 160.537311 
L 258.209455 158.973732 
L 259.806545 157.916879 
L 261.403636 157.149301 
L 262.202182 156.880269 
L 262.468364 156.999423 
L 266.727273 161.472605 
L 269.921455 164.670006 
L 272.050909 166.486607 
L 273.648 167.591757 
L 275.245091 168.416744 
L 276.576 168.851596 
L 277.906909 169.023226 
L 278.439273 168.946452 
L 279.770182 167.954452 
L 283.762909 164.916532 
L 285.36 164.001604 
L 286.690909 163.498617 
L 287.755636 163.313837 
L 288.820364 163.359149 
L 289.885091 163.668263 
L 290.949818 164.274973 
L 292.014545 165.213092 
L 293.079273 166.516576 
L 293.877818 167.787668 
L 294.676364 169.329864 
L 295.474909 171.731879 
L 298.136727 179.6369 
L 300.798545 186.802503 
L 303.460364 193.309921 
L 306.122182 199.239931 
L 309.050182 205.194362 
L 310.913455 208.587912 
L 311.445818 208.868022 
L 312.510545 209.17107 
L 313.841455 209.293218 
L 315.172364 209.154031 
L 316.503273 208.778863 
L 317.834182 208.192895 
L 319.431273 207.246612 
L 321.294545 205.861501 
L 323.424 203.989414 
L 326.352 201.083095 
L 327.416727 199.951838 
L 332.474182 208.477579 
L 334.603636 211.441202 
L 336.466909 213.693198 
L 338.330182 215.609764 
L 339.927273 216.973387 
L 341.524364 218.068784 
L 343.121455 218.88609 
L 343.92 219.130237 
L 344.718545 218.8955 
L 345.783273 218.372367 
L 347.114182 217.437829 
L 348.445091 216.216895 
L 350.042182 214.411223 
L 351.905455 211.895295 
L 354.034909 208.571962 
L 356.430545 204.395938 
L 359.890909 197.860675 
L 360.157091 197.343432 
L 360.423273 197.526298 
L 362.020364 200.741063 
L 363.883636 204.98539 
L 366.279273 211.061328 
L 369.473455 219.884542 
L 376.660364 240.102983 
L 377.458909 241.258168 
L 378.523636 242.395376 
L 379.322182 242.976331 
L 380.120727 243.330485 
L 380.919273 243.462135 
L 381.717818 243.375763 
L 382.516364 243.075735 
L 383.314909 242.566611 
L 384.379636 241.570337 
L 385.444364 240.221172 
L 386.509091 238.527395 
L 387.84 235.945569 
L 389.170909 232.868287 
L 390.768 228.552208 
L 392.897455 222.558855 
L 393.696 222.174293 
L 394.494545 222.046141 
L 395.293091 222.160547 
L 396.091636 222.512866 
L 396.890182 223.099298 
L 397.954909 224.235453 
L 399.019636 225.765386 
L 400.084364 227.677475 
L 401.415273 230.586032 
L 402.746182 234.047709 
L 404.343273 238.896647 
L 405.940364 244.462624 
L 407.803636 251.80249 
L 409.666909 259.46028 
L 410.997818 262.132828 
L 412.594909 264.814966 
L 414.192 267.043828 
L 416.055273 269.238722 
L 418.983273 272.255281 
L 421.645091 275.085239 
L 423.508364 277.42327 
L 425.105455 279.822509 
L 426.436364 282.188289 
L 426.436364 282.188289 
" clip-path="url(#pace8d9e37f)" style="fill: none; stroke: #ffa500; stroke-width: 3; stroke-linecap: square"/>
   </g>
   <g id="patch_3">
    <path d="M 7.2 331.2 
L 7.2 7.2 
" style="fill: none; stroke: #000000; stroke-width: 0.8; stroke-linejoin: miter; stroke-linecap: square"/>
   </g>
   <g id="patch_4">
    <path d="M 446.4 331.2 
L 446.4 7.2 
" style="fill: none; stroke: #000000; stroke-width: 0.8; stroke-linejoin: miter; stroke-linecap: square"/>
   </g>
   <g id="patch_5">
    <path d="M 7.2 331.2 
L 446.4 331.2 
" style="fill: none; stroke: #000000; stroke-width: 0.8; stroke-linejoin: miter; stroke-linecap: square"/>
   </g>
   <g id="patch_6">
    <path d="M 7.2 7.2 
L 446.4 7.2 
" style="fill: none; stroke: #000000; stroke-width: 0.8; stroke-linejoin: miter; stroke-linecap: square"/>
   </g>
  </g>
 </g>
 <defs>
  <clipPath id="pace8d9e37f">
   <rect x="7.2" y="7.2" width="439.2" height="324"/>
  </clipPath>
 </defs>
</svg>
