<?xml version="1.0" encoding="utf-8" standalone="no"?>
<!DOCTYPE svg PUBLIC "-//W3C//DTD SVG 1.1//EN"
  "http://www.w3.org/Graphics/SVG/1.1/DTD/svg11.dtd">
<svg xmlns:xlink="http://www.w3.org/1999/xlink" width="453.6pt" height="338.4pt" viewBox="0 0 453.6 338.4" xmlns="http://www.w3.org/2000/svg" version="1.1">
 <metadata>
  <rdf:RDF xmlns:dc="http://purl.org/dc/elements/1.1/" xmlns:cc="http://creativecommons.org/ns#" xmlns:rdf="http://www.w3.org/1999/02/22-rdf-syntax-ns#">
   <cc:Work>
    <dc:type rdf:resource="http://purl.org/dc/dcmitype/StillImage"/>
    <dc:date>2025-05-14T16:29:57.039488</dc:date>
    <dc:format>image/svg+xml</dc:format>
    <dc:creator>
     <cc:Agent>
      <dc:title>Matplotlib v3.10.1, https://matplotlib.org/</dc:title>
     </cc:Agent>
    </dc:creator>
   </cc:Work>
  </rdf:RDF>
 </metadata>
 <defs>
  <style type="text/css">*{stroke-linejoin: round; stroke-linecap: butt}</style>
 </defs>
 <g id="figure_1">
  <g id="patch_1">
   <path d="M 0 338.4 
L 453.6 338.4 
L 453.6 0 
L 0 0 
z
" style="fill: #ffffff"/>
  </g>
  <g id="axes_1">
   <g id="patch_2">
    <path d="M 7.2 331.2 
L 446.4 331.2 
L 446.4 7.2 
L 7.2 7.2 
z
" style="fill: #ffffff"/>
   </g>
   <g id="matplotlib.axis_1"/>
   <g id="matplotlib.axis_2"/>
   <g id="line2d_1">
    <path d="M 27.163636 122.802815 
L 29.293091 122.004496 
L 31.688727 120.865971 
L 34.616727 119.213399 
L 38.875636 116.510768 
L 44.997818 112.621456 
L 47.925818 111.016461 
L 50.321455 109.932466 
L 52.450909 109.194418 
L 54.314182 108.757284 
L 56.177455 108.544555 
L 57.774545 108.562322 
L 59.371636 108.783513 
L 60.968727 109.225966 
L 62.565818 109.907519 
L 64.162909 110.845989 
L 65.76 112.059093 
L 67.357091 113.564737 
L 68.954182 115.380688 
L 70.551273 117.524766 
L 72.148364 120.01479 
L 74.011636 123.380768 
L 75.874909 127.270115 
L 77.738182 131.711133 
L 79.601455 136.732053 
L 81.464727 142.36121 
L 83.594182 149.575506 
L 85.723636 157.663384 
L 87.853091 166.667015 
L 89.982545 176.628588 
L 92.112 187.590376 
L 94.507636 201.170437 
L 96.903273 216.129904 
L 99.298909 232.528889 
L 101.694545 250.427435 
L 104.090182 269.88568 
L 106.752 293.408289 
L 107.550545 287.599999 
L 109.946182 270.305477 
L 112.075636 256.449295 
L 114.205091 243.96169 
L 116.334545 232.786018 
L 118.464 222.865721 
L 120.327273 215.170743 
L 122.190545 208.355686 
L 124.053818 202.382566 
L 125.917091 197.213516 
L 127.514182 193.39413 
L 129.111273 190.113713 
L 130.708364 187.348424 
L 132.305455 185.074395 
L 133.636364 183.537404 
L 134.967273 182.311151 
L 136.298182 181.381783 
L 137.629091 180.735554 
L 138.96 180.358629 
L 140.290909 180.23714 
L 141.621818 180.357321 
L 142.952727 180.705322 
L 144.283636 181.267325 
L 145.880727 182.204795 
L 147.477818 183.406689 
L 149.341091 185.111184 
L 151.470545 187.411434 
L 153.866182 190.380674 
L 156.528 194.059013 
L 159.988364 199.261289 
L 171.700364 217.299696 
L 174.362182 220.82548 
L 176.757818 223.618499 
L 178.621091 225.488172 
L 180.484364 227.05148 
L 182.081455 228.118866 
L 183.678545 228.909452 
L 184.477091 229.154098 
L 186.606545 211.642511 
L 188.736 195.91982 
L 190.865455 181.888062 
L 192.994909 169.449159 
L 194.858182 159.794681 
L 196.721455 151.218984 
L 198.584727 143.656389 
L 200.448 137.041272 
L 202.311273 131.307813 
L 203.908364 127.045482 
L 205.505455 123.341354 
L 207.102545 120.154064 
L 208.699636 117.442269 
L 210.296727 115.16457 
L 211.893818 113.279605 
L 213.490909 111.7461 
L 215.088 110.522603 
L 216.685091 109.567752 
L 218.548364 108.738183 
L 220.411636 108.152382 
L 222.807273 107.651555 
L 231.325091 106.160992 
L 233.188364 105.477034 
L 234.785455 104.676591 
L 236.382545 103.634643 
L 237.979636 102.309934 
L 239.576727 100.661066 
L 241.173818 98.646659 
L 242.770909 96.225368 
L 244.368 93.355812 
L 245.965091 89.996716 
L 247.562182 86.106579 
L 249.159273 81.644212 
L 250.756364 76.56806 
L 252.619636 69.815214 
L 254.482909 62.104971 
L 255.281455 58.491222 
L 255.547636 57.897153 
L 258.475636 79.196428 
L 261.403636 98.806614 
L 264.065455 115.164149 
L 266.727273 130.118726 
L 269.122909 142.375641 
L 271.518545 153.491135 
L 273.648 162.411532 
L 275.777455 170.426719 
L 277.906909 177.534957 
L 279.770182 183.009355 
L 281.633455 187.786971 
L 283.230545 191.32672 
L 284.827636 194.353071 
L 286.424727 196.865348 
L 287.755636 198.565691 
L 289.086545 199.908167 
L 290.417455 200.892363 
L 291.482182 201.421466 
L 292.546909 201.720809 
L 293.611636 201.790209 
L 294.676364 201.629402 
L 295.741091 201.23824 
L 296.805818 200.616458 
L 297.870545 199.763934 
L 299.201455 198.373389 
L 300.532364 196.621509 
L 301.863273 194.5079 
L 303.460364 191.493461 
L 305.057455 187.956933 
L 306.654545 183.897457 
L 308.517818 178.499753 
L 310.381091 172.388343 
L 312.244364 165.562058 
L 313.042909 161.67408 
L 314.64 154.232782 
L 316.237091 147.83373 
L 317.834182 142.435824 
L 319.165091 138.67311 
L 320.496 135.553816 
L 321.826909 133.054346 
L 322.891636 131.485307 
L 323.956364 130.285669 
L 325.021091 129.443582 
L 326.085818 128.946792 
L 326.884364 128.793578 
L 327.682909 128.822792 
L 328.481455 129.029254 
L 329.546182 129.57155 
L 330.610909 130.407808 
L 331.675636 131.526108 
L 333.006545 133.302013 
L 334.337455 135.476112 
L 335.934545 138.577148 
L 337.531636 142.176799 
L 339.394909 146.952036 
L 341.524364 153.089447 
L 343.92 160.745301 
L 346.581818 170.023512 
L 349.776 181.972183 
L 354.567273 200.88262 
L 362.020364 230.303991 
L 365.480727 242.976849 
L 368.142545 251.930366 
L 370.538182 259.2255 
L 372.667636 264.987584 
L 374.530909 269.392445 
L 376.128 272.643323 
L 377.725091 275.366807 
L 379.056 277.204093 
L 380.386909 278.623237 
L 381.451636 279.44164 
L 382.516364 279.965254 
L 383.314909 280.157252 
L 384.113455 280.171538 
L 384.912 280.003018 
L 385.178182 279.90535 
L 385.444364 277.467257 
L 387.307636 245.948034 
L 389.170909 218.312931 
L 390.768 197.581127 
L 392.365091 179.458949 
L 393.962182 163.833783 
L 395.559273 150.593225 
L 396.890182 141.299775 
L 398.221091 133.519026 
L 399.552 127.185757 
L 400.616727 123.117704 
L 401.681455 119.900991 
L 402.746182 117.502434 
L 403.544727 116.220299 
L 404.343273 115.365537 
L 405.141818 114.924049 
L 405.674182 114.852367 
L 406.206545 114.954 
L 406.738909 115.224701 
L 407.537455 115.938714 
L 408.336 117.009753 
L 409.134545 118.423735 
L 410.199273 120.818306 
L 411.264 123.764179 
L 412.594909 128.171103 
L 413.925818 133.322378 
L 415.522909 140.394714 
L 417.386182 149.731686 
L 419.515636 161.616039 
L 422.177455 177.900663 
L 425.637818 200.640264 
L 426.436364 206.031384 
L 426.436364 206.031384 
" clip-path="url(#p239c8f1955)" style="fill: none; stroke-dasharray: 11.1,4.8; stroke-dashoffset: 0; stroke: #000000; stroke-width: 3"/>
   </g>
   <g id="line2d_2">
    <path d="M 27.163636 134.962205 
L 27.962182 158.255733 
L 28.760727 173.296775 
L 29.293091 179.925744 
L 29.825455 184.463199 
L 30.357818 187.369992 
L 30.890182 189.010644 
L 31.156364 189.448269 
L 31.422545 189.659585 
L 31.688727 189.691309 
L 31.954909 189.566502 
L 32.487273 188.930368 
L 33.019636 187.899963 
L 33.818182 185.875338 
L 35.415273 181.034063 
L 37.810909 173.848762 
L 39.674182 168.966905 
L 41.803636 164.041966 
L 43.666909 160.042066 
L 43.933091 158.671975 
L 44.731636 153.466837 
L 44.997818 152.466779 
L 45.796364 152.564374 
L 46.328727 152.127802 
L 47.127273 150.974688 
L 48.192 149.433809 
L 48.724364 149.043041 
L 48.990545 149.019024 
L 49.256727 149.134545 
L 49.522909 149.407088 
L 50.055273 150.497421 
L 50.587636 152.47194 
L 51.12 155.450661 
L 51.652364 159.610568 
L 52.450909 168.344728 
L 53.249455 180.548044 
L 54.314182 201.588443 
L 56.177455 158.412861 
L 57.508364 132.559909 
L 58.573091 115.886537 
L 59.371636 106.176265 
L 60.170182 99.184864 
L 60.436364 97.503113 
L 60.968727 95.773188 
L 61.501091 94.74971 
L 61.767273 94.489087 
L 62.033455 94.396425 
L 62.299636 94.459452 
L 62.832 95.014792 
L 63.364364 96.100033 
L 63.896727 97.662542 
L 64.695273 100.804185 
L 65.76 106.218927 
L 67.357091 114.859407 
L 69.220364 123.131679 
L 70.817455 129.20127 
L 72.414545 134.32112 
L 73.745455 137.918945 
L 75.076364 140.985676 
L 76.673455 144.064274 
L 76.939636 144.52402 
L 77.205818 145.524096 
L 78.802909 154.116331 
L 79.867636 158.765392 
L 80.666182 161.456734 
L 81.464727 163.300828 
L 81.997091 163.971811 
L 82.263273 164.11974 
L 82.529455 164.135822 
L 82.795636 164.013525 
L 83.328 163.327021 
L 83.860364 162.005648 
L 84.392727 159.993084 
L 84.925091 157.194421 
L 85.723636 151.442317 
L 86.522182 143.615659 
L 87.320727 133.449889 
L 87.853091 125.778744 
L 89.716364 159.163779 
L 91.047273 179.093717 
L 92.112 191.405987 
L 92.910545 197.902652 
L 93.442909 200.711226 
L 93.975273 202.211208 
L 94.241455 202.260296 
L 94.507636 201.820011 
L 94.773818 200.825228 
L 95.306182 197.325551 
L 95.838545 191.79844 
L 96.370909 184.283809 
L 97.169455 169.253836 
L 97.968 149.771925 
L 99.032727 116.867424 
L 100.097455 75.747656 
L 100.629818 53.531942 
L 100.896 53.679643 
L 105.421091 162.382599 
L 106.752 188.13987 
L 107.550545 200.194677 
L 108.082909 206.245395 
L 108.615273 210.335086 
L 108.881455 211.552096 
L 109.147636 212.061772 
L 109.413818 211.923876 
L 109.68 210.961643 
L 109.946182 209.194736 
L 110.478545 204.455866 
L 111.010909 202.764793 
L 111.543273 200.419467 
L 112.075636 197.258723 
L 112.608 193.132173 
L 113.406545 184.776877 
L 114.205091 173.298732 
L 115.003636 158.063737 
L 115.802182 138.583766 
L 116.068364 131.030564 
L 116.600727 142.926013 
L 117.665455 167.31191 
L 118.464 181.730565 
L 119.262545 192.702448 
L 120.061091 200.327455 
L 120.593455 203.678044 
L 121.125818 205.77465 
L 121.658182 206.759171 
L 121.924364 206.848269 
L 122.190545 206.713156 
L 122.722909 205.878399 
L 123.255273 204.421061 
L 124.053818 201.394289 
L 126.183273 192.48604 
L 126.981818 190.270034 
L 127.780364 171.756247 
L 129.111273 133.809828 
L 132.571636 30.402741 
L 132.837818 26.279281 
L 133.104 28.448376 
L 134.168727 45.389798 
L 135.233455 59.469581 
L 136.564364 73.922031 
L 137.895273 85.734368 
L 139.226182 95.563882 
L 140.557091 103.852745 
L 141.888 110.89146 
L 143.218909 116.756029 
L 143.751273 119.233922 
L 144.283636 122.357131 
L 144.816 124.311022 
L 145.082182 124.865484 
L 145.348364 125.119348 
L 145.614545 125.089169 
L 145.880727 124.782285 
L 146.146909 124.198855 
L 146.679273 122.174107 
L 147.211636 119.07883 
L 148.010182 112.465767 
L 148.276364 112.959537 
L 150.405818 151.614035 
L 151.736727 171.800831 
L 152.801455 184.38093 
L 153.6 191.354407 
L 154.132364 194.764801 
L 154.664727 197.164867 
L 155.197091 198.538663 
L 155.463273 198.856537 
L 155.729455 198.915123 
L 155.995636 198.74538 
L 156.261818 198.351522 
L 156.794182 196.860266 
L 157.326545 194.542381 
L 158.125091 189.699473 
L 159.189818 181.185135 
L 160.254545 171.214741 
L 160.786909 170.9383 
L 161.319273 170.469688 
L 162.117818 169.390529 
L 162.384 168.926561 
L 162.916364 168.58862 
L 163.714909 168.172501 
L 163.981091 168.418904 
L 165.045818 170.791898 
L 166.110545 173.684093 
L 167.441455 177.966701 
L 169.038545 183.917146 
L 171.168 192.847199 
L 174.628364 208.540677 
L 176.757818 219.083265 
L 177.822545 225.997164 
L 179.153455 235.975432 
L 180.218182 245.491255 
L 180.484364 246.091688 
L 181.282909 214.120246 
L 181.815273 200.175479 
L 182.347636 191.136129 
L 182.88 186.245609 
L 183.146182 185.151511 
L 183.412364 184.761129 
L 183.678545 185.05855 
L 183.944727 185.916683 
L 184.477091 189.051076 
L 185.275636 196.178327 
L 187.937455 222.874789 
L 188.736 228.256218 
L 189.268364 230.826193 
L 189.800727 232.624527 
L 190.333091 233.741229 
L 190.865455 234.256646 
L 191.397818 234.324606 
L 191.930182 234.11071 
L 193.527273 233.137258 
L 194.059636 231.094559 
L 194.592 227.937563 
L 195.124364 223.504752 
L 195.656727 217.614682 
L 196.189091 211.786955 
L 196.455273 211.196432 
L 196.987636 210.68924 
L 197.52 210.660869 
L 198.052364 211.053041 
L 198.584727 211.797076 
L 199.383273 213.394847 
L 201.246545 217.474372 
L 201.778909 218.089386 
L 202.045091 218.19827 
L 202.311273 218.144513 
L 202.577455 217.899787 
L 202.843636 217.403076 
L 203.376 215.627022 
L 203.908364 212.496044 
L 204.440727 207.725424 
L 204.973091 200.938317 
L 205.505455 191.662993 
L 206.037818 179.47518 
L 206.836364 154.53856 
L 207.634909 119.813034 
L 208.433455 72.810315 
L 208.965818 33.199421 
L 209.232 38.896819 
L 210.030545 95.023184 
L 210.296727 103.876639 
L 210.829091 105.086091 
L 211.361455 106.889208 
L 212.16 110.687 
L 212.958545 115.740785 
L 214.023273 124.409249 
L 215.354182 138.020666 
L 216.685091 154.134643 
L 221.476364 215.768552 
L 222.274909 222.867845 
L 222.807273 226.391987 
L 223.339636 228.730861 
L 223.605818 229.389238 
L 223.872 229.670718 
L 224.138182 229.547377 
L 224.404364 228.99093 
L 224.670545 227.972605 
L 225.202909 224.402202 
L 225.735273 218.515741 
L 226.267636 210.139325 
L 226.8 198.823935 
L 227.598545 170.293739 
L 228.663273 122.536258 
L 229.728 70.372801 
L 229.994182 68.011781 
L 231.591273 64.876826 
L 232.389818 63.736177 
L 233.188364 63.026114 
L 233.720727 62.831222 
L 234.253091 62.884119 
L 234.785455 63.20675 
L 235.317818 63.82417 
L 235.850182 64.765923 
L 236.382545 66.071584 
L 237.181091 68.816964 
L 237.979636 72.670567 
L 238.778182 77.891856 
L 239.576727 84.828377 
L 240.375273 93.967771 
L 241.173818 105.851071 
L 241.972364 121.323786 
L 242.770909 141.345544 
L 243.303273 157.865123 
L 243.835636 181.14185 
L 244.368 206.13702 
L 245.166545 229.765241 
L 245.965091 246.346645 
L 246.497455 254.078179 
L 247.029818 259.54541 
L 247.562182 263.036441 
L 248.094545 264.820681 
L 248.360727 265.135364 
L 248.626909 265.13478 
L 248.893091 264.799034 
L 249.425455 263.311376 
L 249.957818 260.866862 
L 250.756364 255.778667 
L 251.821091 247.131432 
L 253.684364 229.490766 
L 256.08 207.334824 
L 257.410909 197.080088 
L 258.475636 190.404296 
L 259.540364 185.32207 
L 260.072727 183.413255 
L 260.871273 164.246707 
L 261.137455 165.779914 
L 262.202182 173.850535 
L 263.000727 178.589483 
L 263.799273 182.209956 
L 264.597818 184.733548 
L 265.130182 185.823056 
L 265.662545 186.459374 
L 266.194909 186.65345 
L 266.727273 186.440273 
L 267.259636 185.836916 
L 267.792 184.858988 
L 268.590545 182.774575 
L 269.389091 180.039017 
L 270.453818 175.549702 
L 272.050909 167.591406 
L 276.043636 146.898419 
L 276.842182 143.032018 
L 277.640727 136.197183 
L 278.971636 123.799924 
L 279.770182 119.262012 
L 280.302545 117.346991 
L 280.834909 116.359977 
L 281.101091 116.21124 
L 281.367273 116.288997 
L 281.633455 116.59474 
L 282.165818 117.806843 
L 282.698182 119.729747 
L 283.496727 123.664863 
L 285.093818 133.435528 
L 286.424727 140.934446 
L 287.223273 144.2276 
L 287.755636 145.747219 
L 288.288 146.686497 
L 288.820364 147.049824 
L 289.086545 147.005864 
L 289.618909 146.555053 
L 290.151273 145.688282 
L 290.949818 143.805284 
L 292.546909 139.731051 
L 293.079273 138.785857 
L 293.345455 138.47432 
L 293.877818 133.882178 
L 294.676364 124.327174 
L 295.474909 110.901924 
L 296.273455 92.752086 
L 296.539636 86.496697 
L 296.805818 85.281416 
L 297.604364 93.144768 
L 298.402909 103.627059 
L 299.467636 121.305405 
L 300.798545 148.402184 
L 302.661818 192.369844 
L 305.323636 255.928396 
L 306.654545 282.470434 
L 307.719273 298.929102 
L 308.517818 307.75289 
L 309.050182 311.719572 
L 309.316364 313.105409 
L 309.582545 313.438284 
L 310.114909 310.326272 
L 311.179636 302.046124 
L 313.309091 283.057942 
L 315.438545 264.637582 
L 317.035636 252.770043 
L 318.100364 246.178003 
L 319.165091 240.865654 
L 319.963636 237.847089 
L 320.762182 235.77996 
L 321.294545 234.997574 
L 321.560727 234.802822 
L 321.826909 234.747844 
L 322.093091 234.84386 
L 322.359273 235.103535 
L 322.891636 236.126504 
L 323.424 237.884466 
L 323.690182 239.064643 
L 323.956364 239.271386 
L 324.488727 235.742627 
L 325.287273 228.817632 
L 326.352 217.166532 
L 326.618182 213.8743 
L 328.481455 201.629797 
L 333.538909 167.051603 
L 334.869818 159.762114 
L 335.934545 155.058805 
L 336.733091 152.323537 
L 337.531636 150.327353 
L 338.064 149.42338 
L 338.596364 148.897026 
L 339.128727 148.745673 
L 339.661091 148.944199 
L 340.193455 149.565727 
L 340.725818 150.544507 
L 341.524364 152.705456 
L 342.322909 155.66174 
L 343.121455 159.34984 
L 343.653818 163.293015 
L 344.452364 171.216251 
L 345.250909 181.039909 
L 347.114182 156.262112 
L 347.912727 149.751577 
L 348.445091 146.658284 
L 348.977455 144.543209 
L 349.509818 143.215674 
L 350.042182 142.611001 
L 350.308364 142.579224 
L 350.574545 142.689073 
L 351.106909 143.295766 
L 351.639273 144.379234 
L 352.437818 146.711076 
L 353.502545 150.688802 
L 356.164364 161.166967 
L 356.962909 163.472229 
L 357.761455 165.000082 
L 358.293818 165.457335 
L 358.56 165.512199 
L 358.826182 165.450383 
L 359.092364 165.236583 
L 359.624727 164.351869 
L 360.157091 162.808251 
L 360.689455 160.371317 
L 361.488 155.203276 
L 362.286545 147.884924 
L 363.085091 138.26505 
L 363.883636 126.114736 
L 364.948364 105.217816 
L 366.013091 81.677745 
L 366.279273 83.765801 
L 367.344 115.150648 
L 368.408727 140.78111 
L 369.473455 160.630641 
L 370.272 171.85005 
L 371.070545 179.898769 
L 371.602909 183.50582 
L 372.135273 185.721861 
L 372.401455 186.316133 
L 372.667636 186.573762 
L 372.933818 186.500482 
L 373.2 186.103008 
L 373.732364 184.368062 
L 374.264727 181.446276 
L 375.063273 174.986251 
L 375.861818 166.53522 
L 376.660364 157.504658 
L 378.523636 145.348727 
L 379.854545 138.190787 
L 380.919273 133.67475 
L 381.717818 131.121032 
L 382.516364 129.328606 
L 383.048727 128.567015 
L 383.581091 128.169242 
L 384.113455 128.194014 
L 384.645818 128.62 
L 385.178182 129.456451 
L 385.710545 130.719449 
L 385.976727 132.644829 
L 387.041455 149.637953 
L 388.106182 163.514891 
L 389.170909 174.545527 
L 390.235636 182.835495 
L 391.034182 187.457106 
L 391.832727 190.662286 
L 392.365091 192.112697 
L 392.897455 192.989212 
L 393.429818 193.216461 
L 393.696 192.900219 
L 393.962182 192.240103 
L 394.494545 189.97501 
L 395.026909 186.586499 
L 395.825455 179.714753 
L 396.890182 167.880997 
L 398.221091 150.002948 
L 400.350545 117.79048 
L 402.746182 82.038421 
L 404.077091 65.192295 
L 405.141818 54.64099 
L 405.940364 49.108796 
L 406.472727 46.896811 
L 406.738909 47.643655 
L 409.134545 65.769054 
L 409.933091 71.319488 
L 411.264 77.19331 
L 412.594909 84.086027 
L 413.925818 92.276592 
L 415.256727 102.118079 
L 416.587636 114.034718 
L 417.918545 128.493875 
L 419.249455 145.847307 
L 420.580364 166.34477 
L 422.177455 195.217191 
L 423.774545 228.375504 
L 426.170182 283.78063 
L 426.436364 290.135832 
L 426.436364 290.135832 
" clip-path="url(#p239c8f1955)" style="fill: none; stroke: #0000ff; stroke-width: 3; stroke-linecap: square"/>
   </g>
   <g id="patch_3">
    <path d="M 7.2 331.2 
L 7.2 7.2 
" style="fill: none; stroke: #000000; stroke-width: 0.8; stroke-linejoin: miter; stroke-linecap: square"/>
   </g>
   <g id="patch_4">
    <path d="M 446.4 331.2 
L 446.4 7.2 
" style="fill: none; stroke: #000000; stroke-width: 0.8; stroke-linejoin: miter; stroke-linecap: square"/>
   </g>
   <g id="patch_5">
    <path d="M 7.2 331.2 
L 446.4 331.2 
" style="fill: none; stroke: #000000; stroke-width: 0.8; stroke-linejoin: miter; stroke-linecap: square"/>
   </g>
   <g id="patch_6">
    <path d="M 7.2 7.2 
L 446.4 7.2 
" style="fill: none; stroke: #000000; stroke-width: 0.8; stroke-linejoin: miter; stroke-linecap: square"/>
   </g>
  </g>
 </g>
 <defs>
  <clipPath id="p239c8f1955">
   <rect x="7.2" y="7.2" width="439.2" height="324"/>
  </clipPath>
 </defs>
</svg>
