<?xml version="1.0" encoding="utf-8" standalone="no"?>
<!DOCTYPE svg PUBLIC "-//W3C//DTD SVG 1.1//EN"
  "http://www.w3.org/Graphics/SVG/1.1/DTD/svg11.dtd">
<svg xmlns:xlink="http://www.w3.org/1999/xlink" width="453.6pt" height="338.4pt" viewBox="0 0 453.6 338.4" xmlns="http://www.w3.org/2000/svg" version="1.1">
 <metadata>
  <rdf:RDF xmlns:dc="http://purl.org/dc/elements/1.1/" xmlns:cc="http://creativecommons.org/ns#" xmlns:rdf="http://www.w3.org/1999/02/22-rdf-syntax-ns#">
   <cc:Work>
    <dc:type rdf:resource="http://purl.org/dc/dcmitype/StillImage"/>
    <dc:date>2025-05-14T16:25:08.046956</dc:date>
    <dc:format>image/svg+xml</dc:format>
    <dc:creator>
     <cc:Agent>
      <dc:title>Matplotlib v3.10.1, https://matplotlib.org/</dc:title>
     </cc:Agent>
    </dc:creator>
   </cc:Work>
  </rdf:RDF>
 </metadata>
 <defs>
  <style type="text/css">*{stroke-linejoin: round; stroke-linecap: butt}</style>
 </defs>
 <g id="figure_1">
  <g id="patch_1">
   <path d="M 0 338.4 
L 453.6 338.4 
L 453.6 0 
L 0 0 
z
" style="fill: #ffffff"/>
  </g>
  <g id="axes_1">
   <g id="patch_2">
    <path d="M 7.2 331.2 
L 446.4 331.2 
L 446.4 7.2 
L 7.2 7.2 
z
" style="fill: #ffffff"/>
   </g>
   <g id="matplotlib.axis_1"/>
   <g id="matplotlib.axis_2"/>
   <g id="line2d_1">
    <path d="M 27.163636 215.84989 
L 31.156364 208.354229 
L 35.149091 201.34981 
L 38.875636 195.255552 
L 42.602182 189.58922 
L 46.062545 184.710795 
L 49.522909 180.201334 
L 52.983273 176.060844 
L 56.177455 172.566355 
L 59.371636 169.386263 
L 62.565818 166.520526 
L 65.76 163.969248 
L 68.688 161.906701 
L 71.616 160.108359 
L 74.544 158.574186 
L 77.472 157.3042 
L 80.133818 156.378897 
L 82.795636 155.67194 
L 85.457455 155.183279 
L 88.119273 154.912983 
L 90.781091 154.860981 
L 93.442909 155.027344 
L 96.104727 155.41202 
L 98.766545 156.015008 
L 101.428364 156.836343 
L 104.090182 157.875991 
L 107.018182 159.271785 
L 109.946182 160.931731 
L 112.874182 162.855864 
L 115.802182 165.044201 
L 118.730182 167.496672 
L 121.924364 170.473418 
L 125.118545 173.764553 
L 128.312727 177.370068 
L 131.773091 181.630836 
L 135.233455 186.260567 
L 138.427636 190.861663 
L 138.693818 191.346489 
L 140.823273 199.721509 
L 142.686545 206.192911 
L 144.549818 211.864598 
L 146.146909 216.089586 
L 147.744 219.727054 
L 149.341091 222.777053 
L 150.672 224.86991 
L 152.002909 226.554786 
L 153.333818 227.831672 
L 154.398545 228.559423 
L 155.463273 229.026069 
L 156.528 229.231609 
L 157.592727 229.176017 
L 158.657455 228.85932 
L 159.722182 228.281508 
L 160.786909 227.442581 
L 161.851636 226.34254 
L 163.182545 224.600307 
L 164.513455 222.450085 
L 165.844364 219.891837 
L 167.441455 216.283434 
L 169.038545 212.08751 
L 170.635636 207.304083 
L 172.498909 200.980891 
L 174.362182 193.858055 
L 176.491636 184.738464 
L 178.621091 174.574407 
L 180.750545 163.365909 
L 183.146182 149.507879 
L 185.541818 134.327932 
L 188.203636 115.911046 
L 190.865455 95.862198 
L 193.527273 74.181355 
L 194.325818 67.985429 
L 200.714182 90.03383 
L 207.102545 111.289707 
L 213.224727 130.916238 
L 219.346909 149.814938 
L 225.469091 167.985825 
L 231.325091 184.685576 
L 237.181091 200.719434 
L 243.037091 216.087321 
L 248.626909 230.135407 
L 254.216727 243.576835 
L 259.540364 255.81403 
L 264.864 267.500861 
L 270.187636 278.637335 
L 275.245091 288.707251 
L 280.302545 298.280434 
L 283.230545 303.595796 
L 283.496727 303.820533 
L 286.424727 295.733317 
L 289.618909 286.211707 
L 292.813091 275.96052 
L 296.007273 264.979604 
L 299.467636 252.260205 
L 302.928 238.684567 
L 306.654545 223.106865 
L 310.381091 206.536232 
L 314.107636 188.972248 
L 318.100364 169.05172 
L 322.093091 147.991104 
L 326.352 124.2698 
L 330.610909 99.25135 
L 334.869818 72.935719 
L 339.394909 43.554078 
L 339.661091 41.780104 
L 339.927273 42.49561 
L 343.121455 59.455676 
L 346.049455 73.853597 
L 348.977455 87.152652 
L 351.639273 98.28909 
L 354.301091 108.517448 
L 356.962909 117.837636 
L 359.358545 125.449371 
L 361.754182 132.325445 
L 363.883636 137.820051 
L 366.013091 142.733333 
L 368.142545 147.065432 
L 370.005818 150.379267 
L 371.869091 153.248121 
L 373.732364 155.671975 
L 375.329455 157.395352 
L 376.926545 158.791814 
L 378.523636 159.861377 
L 379.854545 160.502901 
L 381.185455 160.917405 
L 382.516364 161.104871 
L 383.847273 161.065299 
L 385.178182 160.798689 
L 386.509091 160.305059 
L 387.84 159.584374 
L 389.170909 158.636669 
L 390.768 157.199723 
L 392.365091 155.435826 
L 393.962182 153.344996 
L 395.825455 150.492505 
L 397.688727 147.19505 
L 399.552 143.452561 
L 401.681455 138.630519 
L 403.810909 133.227328 
L 405.940364 127.24285 
L 408.336 119.815649 
L 410.731636 111.652876 
L 413.393455 101.720324 
L 416.055273 90.879639 
L 418.717091 79.130838 
L 421.645091 65.158201 
L 424.573091 50.086716 
L 426.436364 39.92358 
L 426.436364 39.92358 
" clip-path="url(#p6b2135ec28)" style="fill: none; stroke-dasharray: 11.1,4.8; stroke-dashoffset: 0; stroke: #000000; stroke-width: 3"/>
   </g>
   <g id="line2d_2">
    <path d="M 27.163636 144.189924 
L 28.494545 162.435163 
L 29.559273 174.588425 
L 30.624 184.265726 
L 31.422545 189.909911 
L 32.221091 194.243749 
L 33.019636 197.379616 
L 33.552 198.861769 
L 34.084364 199.888136 
L 34.616727 200.540755 
L 35.149091 200.790519 
L 35.681455 200.738667 
L 36.213818 200.390517 
L 37.012364 199.382585 
L 37.810909 197.858007 
L 38.609455 195.936621 
L 39.674182 192.825526 
L 41.005091 188.177528 
L 42.336 182.768 
L 43.666909 176.526129 
L 43.933091 174.183033 
L 44.731636 162.883936 
L 45.796364 144.129109 
L 46.861091 120.940743 
L 47.393455 108.465622 
L 47.659636 107.262981 
L 48.990545 121.738483 
L 50.321455 133.649768 
L 51.386182 141.417595 
L 52.450909 147.713996 
L 53.515636 152.604315 
L 54.314182 155.453716 
L 55.112727 157.623584 
L 55.911273 159.209794 
L 56.709818 160.2631 
L 57.508364 160.833591 
L 58.040727 160.982591 
L 58.573091 160.981204 
L 59.371636 160.713699 
L 60.170182 160.201829 
L 60.436364 159.993699 
L 60.968727 157.914281 
L 61.501091 154.883067 
L 62.299636 148.772499 
L 63.364364 138.244087 
L 64.162909 128.880675 
L 64.429091 132.774131 
L 65.493818 158.755068 
L 66.558545 179.146965 
L 67.357091 190.899541 
L 68.155636 199.672922 
L 68.688 203.872717 
L 69.220364 206.65644 
L 69.752727 208.047977 
L 70.018909 208.162874 
L 70.285091 207.908694 
L 70.551273 207.274369 
L 71.083636 204.670887 
L 71.616 200.300752 
L 72.148364 193.952358 
L 72.680727 185.390311 
L 73.479273 167.94139 
L 74.277818 143.939309 
L 75.076364 112.169891 
L 75.874909 70.927632 
L 76.141091 54.737286 
L 76.407273 52.519542 
L 77.205818 96.631427 
L 78.536727 130.163477 
L 79.867636 157.438839 
L 80.932364 175.165904 
L 81.997091 189.532285 
L 83.061818 200.545179 
L 83.860364 206.496432 
L 84.392727 209.323801 
L 84.925091 211.19257 
L 85.191273 211.749666 
L 85.457455 212.036719 
L 85.723636 212.054337 
L 85.989818 211.794847 
L 86.256 211.250339 
L 86.788364 209.272457 
L 87.320727 206.05067 
L 87.853091 201.4404 
L 88.651636 191.810765 
L 89.450182 178.551307 
L 90.248727 161.278678 
L 91.313455 134.077842 
L 92.112 158.238457 
L 92.644364 168.830546 
L 93.176727 175.07512 
L 93.442909 176.526647 
L 93.709091 176.907873 
L 93.975273 176.850121 
L 94.507636 176.444343 
L 95.04 175.71517 
L 95.838545 173.976089 
L 96.637091 171.570089 
L 97.701818 167.304923 
L 98.766545 162.012741 
L 100.097455 154.253218 
L 102.226909 140.244011 
L 105.421091 119.370844 
L 107.018182 110.534172 
L 108.349091 104.506664 
L 109.413818 100.712576 
L 110.212364 98.520465 
L 110.478545 96.671824 
L 112.341818 76.591094 
L 113.672727 64.738606 
L 114.737455 57.242462 
L 115.536 52.898881 
L 116.334545 49.73164 
L 116.866909 48.292658 
L 117.133091 47.775713 
L 117.399273 47.829032 
L 117.665455 48.127629 
L 118.730182 49.950005 
L 120.061091 51.760058 
L 121.392 53.228359 
L 122.989091 54.690727 
L 124.586182 55.891787 
L 126.183273 56.802852 
L 127.248 57.18723 
L 128.312727 57.585476 
L 129.377455 58.253651 
L 130.442182 59.255464 
L 131.240727 60.280909 
L 132.039273 61.624491 
L 132.837818 63.361228 
L 133.636364 65.635802 
L 134.434909 68.633501 
L 135.233455 72.581486 
L 136.032 77.808394 
L 136.830545 84.731466 
L 137.629091 93.895088 
L 138.427636 105.994716 
L 139.226182 121.898473 
L 140.024727 142.733561 
L 140.823273 169.827777 
L 141.621818 204.838769 
L 142.154182 233.551884 
L 142.686545 241.079955 
L 143.751273 251.786431 
L 144.549818 257.20428 
L 145.082182 259.707261 
L 145.614545 261.244937 
L 145.880727 261.634032 
L 146.146909 261.771858 
L 146.413091 261.632483 
L 146.679273 261.25001 
L 147.211636 259.649817 
L 147.744 256.995997 
L 148.276364 253.272745 
L 149.074909 245.703128 
L 149.873455 235.852222 
L 150.938182 219.182423 
L 152.002909 198.762366 
L 153.333818 168.18444 
L 154.664727 132.241333 
L 155.197091 119.496037 
L 155.463273 119.935015 
L 156.261818 130.269201 
L 157.060364 137.665643 
L 157.858909 142.613265 
L 158.391273 144.723969 
L 158.923636 145.906086 
L 159.189818 146.205736 
L 159.456 146.322099 
L 159.722182 146.262777 
L 159.988364 146.034808 
L 160.520727 145.06356 
L 161.319273 142.809861 
L 162.384 138.688928 
L 163.714909 132.559382 
L 166.110545 120.276976 
L 168.772364 105.544117 
L 171.168 90.991157 
L 175.426909 64.469187 
L 176.225455 61.099646 
L 176.757818 59.683557 
L 177.024 59.321511 
L 177.290182 59.195404 
L 177.556364 59.273512 
L 177.822545 59.542404 
L 178.354909 60.670676 
L 178.887273 67.079542 
L 179.685818 76.273747 
L 180.484364 83.464587 
L 181.282909 89.128804 
L 182.347636 94.877256 
L 183.412364 99.176104 
L 184.477091 102.434795 
L 185.541818 104.983808 
L 186.872727 107.492003 
L 188.203636 109.498387 
L 190.066909 111.866272 
L 193.527273 115.989487 
L 194.592 123.723413 
L 195.124364 129.107327 
L 195.656727 136.341847 
L 196.189091 146.006999 
L 196.721455 158.692112 
L 197.52 184.565184 
L 198.318545 220.331832 
L 199.117091 267.892599 
L 199.383273 286.67523 
L 199.649455 290.647474 
L 200.980364 257.758668 
L 202.577455 211.999834 
L 208.433455 36.480601 
L 208.965818 24.034763 
L 209.232 24.475988 
L 209.764364 31.544408 
L 210.829091 48.166463 
L 211.893818 67.17101 
L 213.224727 96.369891 
L 216.951273 183.74362 
L 218.016 201.487223 
L 218.814545 210.531945 
L 219.346909 214.249425 
L 219.879273 215.972293 
L 220.145455 216.039568 
L 220.411636 214.979836 
L 222.008727 198.737839 
L 222.807273 192.770312 
L 223.605818 188.327634 
L 224.404364 185.268655 
L 224.936727 183.900749 
L 225.469091 183.018511 
L 226.001455 182.503989 
L 226.533818 182.307675 
L 226.8 182.282797 
L 227.066182 182.549424 
L 227.332364 183.284181 
L 227.864727 185.998144 
L 228.397091 190.258087 
L 229.195636 199.105433 
L 230.260364 214.729203 
L 231.325091 233.778053 
L 232.656 261.507535 
L 233.986909 293.302982 
L 234.519273 307.281816 
L 234.785455 306.743801 
L 235.584 299.835045 
L 236.648727 288.400824 
L 237.713455 274.675322 
L 239.044364 254.716512 
L 241.972364 208.287357 
L 242.504727 202.361227 
L 243.037091 198.678666 
L 243.303273 198.022061 
L 243.569455 198.148098 
L 243.835636 198.655404 
L 244.368 200.653106 
L 244.900364 203.927036 
L 245.432727 208.432363 
L 246.231273 217.512233 
L 247.029818 229.191265 
L 248.094545 248.759312 
L 249.159273 272.943141 
L 249.691636 284.671515 
L 249.957818 287.160381 
L 251.554909 289.076806 
L 253.418182 290.929994 
L 255.547636 292.689399 
L 257.943273 294.34742 
L 263.799273 298.168098 
L 265.130182 299.465932 
L 266.194909 300.754239 
L 266.727273 301.631204 
L 266.993455 301.788589 
L 267.259636 301.753771 
L 267.525818 301.535408 
L 268.058182 300.584261 
L 268.590545 298.998687 
L 269.389091 295.621729 
L 270.453818 289.744002 
L 272.317091 277.579762 
L 274.180364 265.858125 
L 275.245091 260.42896 
L 276.043636 257.275239 
L 276.576 255.685066 
L 276.842182 252.606853 
L 280.568727 173.989581 
L 280.834909 175.408224 
L 281.633455 203.500129 
L 282.432 224.694339 
L 283.230545 239.831686 
L 283.762909 246.90971 
L 284.295273 251.789749 
L 284.827636 254.708814 
L 285.093818 255.491938 
L 285.36 255.84707 
L 285.626182 255.791413 
L 285.892364 255.361644 
L 286.424727 253.465794 
L 286.957091 250.307306 
L 287.755636 243.581492 
L 288.820364 231.720256 
L 289.885091 217.547284 
L 291.216 193.277398 
L 293.877818 142.656612 
L 294.942545 127.668449 
L 295.741091 119.209642 
L 296.539636 112.99558 
L 297.338182 108.830301 
L 297.870545 107.055677 
L 298.402909 105.985007 
L 298.935273 105.531195 
L 299.201455 105.507564 
L 299.733818 105.866116 
L 300.266182 106.624337 
L 300.798545 107.754171 
L 301.597091 109.96484 
L 302.661818 113.591844 
L 304.258909 119.885962 
L 304.791273 123.858263 
L 305.323636 129.051761 
L 306.388364 139.21135 
L 307.719273 149.088003 
L 308.784 155.589549 
L 310.114909 163.036588 
L 310.913455 169.29584 
L 311.712 173.905732 
L 312.510545 177.374808 
L 313.309091 179.8484 
L 314.107636 181.624174 
L 314.906182 182.861637 
L 315.704727 183.674799 
L 316.503273 184.150153 
L 317.301818 184.349434 
L 318.100364 184.312479 
L 319.165091 183.909053 
L 319.963636 183.365484 
L 320.762182 182.595194 
L 321.826909 181.169949 
L 322.625455 179.764244 
L 323.424 178.024408 
L 324.488727 175.068063 
L 325.553455 171.319341 
L 326.618182 166.682921 
L 328.215273 142.556752 
L 328.747636 137.341133 
L 329.013818 135.823323 
L 329.28 135.186346 
L 329.546182 135.552289 
L 329.812364 137.043694 
L 330.078545 139.782491 
L 330.610909 149.495291 
L 330.877091 156.713326 
L 331.675636 187.189461 
L 332.208 200.058809 
L 332.740364 207.039817 
L 333.006545 208.617828 
L 333.272727 209.073044 
L 333.538909 208.519846 
L 333.805091 207.072858 
L 334.337455 201.953561 
L 335.136 190.420009 
L 336.733091 164.667338 
L 337.265455 158.530366 
L 337.797818 155.043408 
L 338.064 154.57369 
L 338.330182 155.075659 
L 338.596364 156.6467 
L 338.862545 159.383355 
L 339.394909 168.724558 
L 339.927273 184.503078 
L 340.459636 198.761892 
L 340.992 207.061148 
L 341.258182 209.286309 
L 341.524364 210.343083 
L 341.790545 210.400009 
L 342.056727 209.583177 
L 342.589091 205.783797 
L 343.92 192.965116 
L 345.517091 181.512533 
L 346.581818 175.250437 
L 347.646545 170.3637 
L 348.445091 167.693268 
L 348.977455 166.4174 
L 349.509818 165.600085 
L 349.776 165.372626 
L 350.042182 165.307036 
L 350.308364 165.364708 
L 350.574545 165.554913 
L 351.106909 166.549511 
L 351.639273 168.290269 
L 352.171636 171.084385 
L 352.704 175.045652 
L 353.236364 180.449992 
L 353.768727 187.719748 
L 354.301091 197.245205 
L 355.099636 216.915644 
L 355.632 233.266832 
L 356.430545 243.554244 
L 357.229091 250.678349 
L 357.761455 253.298553 
L 358.027636 253.86818 
L 358.293818 253.958608 
L 358.56 253.461651 
L 358.826182 252.40227 
L 359.358545 248.467504 
L 360.157091 240.763231 
L 360.955636 236.638647 
L 361.754182 231.369903 
L 362.552727 224.842005 
L 363.617455 214.028751 
L 364.682182 200.677431 
L 366.013091 180.534385 
L 367.610182 152.165636 
L 370.538182 97.859365 
L 371.070545 92.984918 
L 371.336727 91.70201 
L 371.602909 91.190455 
L 371.869091 91.396654 
L 372.135273 92.300943 
L 372.667636 96.088903 
L 373.2 102.313849 
L 373.998545 115.408725 
L 375.063273 137.847368 
L 376.926545 178.92767 
L 377.725091 191.273305 
L 378.257455 197.316132 
L 378.789818 201.463311 
L 379.322182 203.609671 
L 379.588364 203.967556 
L 379.854545 203.796128 
L 380.120727 203.114374 
L 380.653091 200.314446 
L 384.912 163.724039 
L 386.242909 155.050132 
L 387.307636 149.505614 
L 388.372364 145.294917 
L 389.170909 143.103612 
L 389.703273 142.110331 
L 390.235636 141.533379 
L 390.768 141.404568 
L 391.300364 141.722776 
L 391.832727 142.564564 
L 392.365091 143.960622 
L 392.897455 145.939952 
L 393.163636 147.167539 
L 393.696 147.470859 
L 394.228364 148.115297 
L 394.760727 149.122308 
L 395.293091 150.564416 
L 396.091636 153.75023 
L 396.624 156.646682 
L 397.422545 162.43367 
L 398.221091 170.275269 
L 399.019636 180.616531 
L 399.818182 193.753577 
L 400.616727 210.064807 
L 401.415273 227.950993 
L 401.947636 233.484855 
L 402.746182 239.517174 
L 403.278545 242.34348 
L 403.810909 244.296212 
L 404.343273 245.46636 
L 404.875636 245.957519 
L 405.141818 245.983318 
L 405.674182 245.667208 
L 406.206545 244.956828 
L 407.005091 243.372392 
L 409.666909 237.182944 
L 410.199273 236.725998 
L 410.731636 236.273283 
L 411.530182 235.222171 
L 412.328727 233.765316 
L 413.393455 231.293384 
L 416.853818 222.52527 
L 417.386182 221.701959 
L 417.918545 221.199393 
L 418.450909 221.031301 
L 418.983273 221.277738 
L 419.515636 221.932684 
L 420.048 223.008734 
L 420.846545 225.397345 
L 421.645091 228.623293 
L 422.976 235.186971 
L 424.573091 243.028412 
L 425.371636 245.970875 
L 425.904 247.253444 
L 426.436364 247.935347 
L 426.436364 247.935347 
" clip-path="url(#p6b2135ec28)" style="fill: none; stroke: #ffa500; stroke-width: 3; stroke-linecap: square"/>
   </g>
   <g id="patch_3">
    <path d="M 7.2 331.2 
L 7.2 7.2 
" style="fill: none; stroke: #000000; stroke-width: 0.8; stroke-linejoin: miter; stroke-linecap: square"/>
   </g>
   <g id="patch_4">
    <path d="M 446.4 331.2 
L 446.4 7.2 
" style="fill: none; stroke: #000000; stroke-width: 0.8; stroke-linejoin: miter; stroke-linecap: square"/>
   </g>
   <g id="patch_5">
    <path d="M 7.2 331.2 
L 446.4 331.2 
" style="fill: none; stroke: #000000; stroke-width: 0.8; stroke-linejoin: miter; stroke-linecap: square"/>
   </g>
   <g id="patch_6">
    <path d="M 7.2 7.2 
L 446.4 7.2 
" style="fill: none; stroke: #000000; stroke-width: 0.8; stroke-linejoin: miter; stroke-linecap: square"/>
   </g>
  </g>
 </g>
 <defs>
  <clipPath id="p6b2135ec28">
   <rect x="7.2" y="7.2" width="439.2" height="324"/>
  </clipPath>
 </defs>
</svg>
