<?xml version="1.0" encoding="utf-8" standalone="no"?>
<!DOCTYPE svg PUBLIC "-//W3C//DTD SVG 1.1//EN"
  "http://www.w3.org/Graphics/SVG/1.1/DTD/svg11.dtd">
<svg xmlns:xlink="http://www.w3.org/1999/xlink" width="453.6pt" height="338.4pt" viewBox="0 0 453.6 338.4" xmlns="http://www.w3.org/2000/svg" version="1.1">
 <metadata>
  <rdf:RDF xmlns:dc="http://purl.org/dc/elements/1.1/" xmlns:cc="http://creativecommons.org/ns#" xmlns:rdf="http://www.w3.org/1999/02/22-rdf-syntax-ns#">
   <cc:Work>
    <dc:type rdf:resource="http://purl.org/dc/dcmitype/StillImage"/>
    <dc:date>2025-05-14T16:22:54.634796</dc:date>
    <dc:format>image/svg+xml</dc:format>
    <dc:creator>
     <cc:Agent>
      <dc:title>Matplotlib v3.10.1, https://matplotlib.org/</dc:title>
     </cc:Agent>
    </dc:creator>
   </cc:Work>
  </rdf:RDF>
 </metadata>
 <defs>
  <style type="text/css">*{stroke-linejoin: round; stroke-linecap: butt}</style>
 </defs>
 <g id="figure_1">
  <g id="patch_1">
   <path d="M 0 338.4 
L 453.6 338.4 
L 453.6 0 
L 0 0 
z
" style="fill: #ffffff"/>
  </g>
  <g id="axes_1">
   <g id="patch_2">
    <path d="M 7.2 331.2 
L 446.4 331.2 
L 446.4 7.2 
L 7.2 7.2 
z
" style="fill: #ffffff"/>
   </g>
   <g id="matplotlib.axis_1"/>
   <g id="matplotlib.axis_2"/>
   <g id="line2d_1">
    <path d="M 27.163636 91.326201 
L 27.962182 89.707301 
L 28.760727 88.518267 
L 29.559273 87.737452 
L 30.357818 87.342892 
L 30.890182 87.283675 
L 31.422545 87.379971 
L 32.221091 87.801901 
L 33.019636 88.537386 
L 33.818182 89.564604 
L 34.882909 91.350323 
L 35.947636 93.564222 
L 37.278545 96.854795 
L 38.875636 101.43751 
L 41.005091 108.337285 
L 44.731636 121.421031 
L 47.659636 131.379776 
L 49.522909 137.026805 
L 51.12 141.187608 
L 52.450909 144.042452 
L 53.515636 145.852679 
L 54.580364 147.185868 
L 55.378909 147.841595 
L 56.177455 148.178043 
L 56.709818 148.214192 
L 57.242182 148.092299 
L 57.774545 147.805868 
L 58.573091 147.053634 
L 59.371636 145.894832 
L 60.170182 144.307692 
L 60.968727 142.270339 
L 62.033455 138.815895 
L 63.098182 134.470611 
L 64.429091 128.147683 
L 66.558545 144.623758 
L 68.421818 157.48359 
L 70.285091 168.964237 
L 72.148364 179.136142 
L 74.011636 188.06961 
L 75.874909 195.835085 
L 77.472 201.614918 
L 79.069091 206.632652 
L 80.666182 210.932649 
L 82.263273 214.559188 
L 83.594182 217.098861 
L 84.925091 219.227332 
L 86.256 220.970187 
L 87.586909 222.353139 
L 88.917818 223.401828 
L 90.248727 224.14186 
L 91.579636 224.598964 
L 92.910545 224.798746 
L 94.241455 224.766846 
L 95.572364 224.528959 
L 97.169455 224.007669 
L 99.032727 223.130382 
L 101.162182 221.859088 
L 104.090182 219.828933 
L 109.147636 216.293774 
L 111.277091 215.075219 
L 113.140364 214.262294 
L 114.737455 213.809702 
L 116.068364 213.638589 
L 117.399273 213.682173 
L 118.730182 213.966093 
L 120.061091 214.515999 
L 121.392 215.357542 
L 122.722909 216.516388 
L 124.053818 218.018178 
L 125.384727 219.888545 
L 126.183273 221.05106 
L 126.981818 221.354011 
L 127.514182 221.355688 
L 128.312727 221.07254 
L 129.111273 220.464382 
L 129.909818 219.551227 
L 130.974545 217.893827 
L 132.039273 215.777137 
L 133.370182 212.557676 
L 134.967273 207.975215 
L 136.830545 201.839779 
L 139.226182 193.093531 
L 146.413091 166.224088 
L 148.276364 160.366928 
L 149.873455 156.09517 
L 151.204364 153.185445 
L 152.269091 151.349831 
L 153.333818 150.003089 
L 154.132364 149.342358 
L 154.930909 149.003241 
L 155.463273 148.965741 
L 155.995636 149.086019 
L 156.528 149.369992 
L 157.326545 150.115818 
L 158.125091 151.263296 
L 158.923636 152.832388 
L 159.722182 154.843126 
L 160.786909 158.245691 
L 161.851636 162.516343 
L 162.916364 167.70252 
L 163.981091 173.851536 
L 165.312 182.964165 
L 166.642909 193.747959 
L 167.973818 206.295711 
L 169.304727 220.699706 
L 169.570909 221.496568 
L 170.635636 219.163523 
L 171.700364 217.340602 
L 172.765091 215.995239 
L 173.563636 215.28011 
L 174.362182 214.801649 
L 175.160727 214.546143 
L 175.959273 214.499883 
L 176.757818 214.649164 
L 177.822545 215.128705 
L 178.887273 215.899021 
L 179.952 216.927626 
L 181.282909 218.527082 
L 182.88 220.822793 
L 185.009455 224.342344 
L 192.462545 237.20625 
L 194.059636 239.34823 
L 195.390545 240.786054 
L 196.455273 241.663359 
L 197.52 242.26287 
L 198.318545 242.510642 
L 199.117091 242.570167 
L 199.915636 242.427741 
L 200.714182 242.069646 
L 201.512727 241.482187 
L 202.311273 240.651643 
L 203.376 239.142453 
L 204.440727 237.144259 
L 205.505455 234.624608 
L 206.570182 231.550943 
L 207.634909 227.890845 
L 208.965818 222.4415 
L 210.296727 215.961574 
L 210.829091 213.06679 
L 211.361455 207.595104 
L 212.958545 190.224529 
L 214.555636 175.292265 
L 216.152727 162.631003 
L 217.483636 153.694173 
L 218.814545 146.121659 
L 220.145455 139.816691 
L 221.476364 134.682568 
L 222.541091 131.353213 
L 223.605818 128.661766 
L 224.670545 126.558629 
L 225.735273 124.994365 
L 226.533818 124.144905 
L 227.332364 123.549834 
L 228.130909 123.188175 
L 228.929455 123.039105 
L 229.728 123.081591 
L 230.792727 123.400273 
L 231.857455 123.972993 
L 233.188364 124.970594 
L 235.051636 126.719813 
L 239.576727 131.154283 
L 240.907636 132.097319 
L 241.972364 132.612789 
L 243.037091 132.862193 
L 243.835636 132.844847 
L 244.634182 132.629081 
L 245.432727 132.193984 
L 246.231273 131.518681 
L 247.029818 130.582317 
L 247.828364 129.363947 
L 248.893091 127.264585 
L 249.957818 124.577351 
L 251.022545 121.252438 
L 252.087273 117.240547 
L 253.418182 111.183965 
L 254.749091 103.879711 
L 256.08 95.23105 
L 257.410909 85.141019 
L 257.677091 84.836242 
L 260.072727 100.768985 
L 262.202182 113.567774 
L 264.331636 125.144296 
L 266.461091 135.55724 
L 268.590545 144.865016 
L 270.72 153.126105 
L 272.583273 159.542222 
L 274.446545 165.240989 
L 276.309818 170.261935 
L 278.173091 174.644052 
L 280.036364 178.426772 
L 281.899636 181.649182 
L 283.496727 183.995079 
L 285.093818 185.982976 
L 286.690909 187.637418 
L 288.288 188.983256 
L 289.885091 190.045103 
L 291.482182 190.84775 
L 293.079273 191.415827 
L 294.676364 191.774116 
L 296.539636 191.959905 
L 298.402909 191.932921 
L 300.532364 191.691996 
L 303.194182 191.161402 
L 307.719273 189.980689 
L 311.712 189.031764 
L 314.107636 188.673072 
L 316.237091 188.569849 
L 318.100364 188.694016 
L 319.963636 189.059503 
L 321.560727 189.594574 
L 323.157818 190.360493 
L 324.754909 191.381926 
L 326.352 192.68361 
L 327.949091 194.290255 
L 329.546182 196.226554 
L 331.143273 198.517245 
L 332.740364 201.18701 
L 334.337455 204.260561 
L 335.934545 207.762556 
L 337.797818 212.422852 
L 339.661091 217.739235 
L 341.524364 223.75097 
L 343.387636 230.497198 
L 344.984727 236.481342 
L 346.848 239.202864 
L 348.445091 241.180815 
L 350.042182 242.848846 
L 351.639273 244.223533 
L 353.236364 245.32142 
L 354.833455 246.159113 
L 356.430545 246.753204 
L 358.027636 247.120253 
L 359.624727 247.276873 
L 361.488 247.215751 
L 363.351273 246.917079 
L 365.214545 246.407231 
L 367.344 245.599735 
L 369.739636 244.451638 
L 372.667636 242.782633 
L 376.660364 240.210269 
L 384.379636 235.165078 
L 387.307636 233.536259 
L 389.703273 232.433005 
L 391.832727 231.67439 
L 393.696 231.214301 
L 395.559273 230.971893 
L 397.422545 230.973543 
L 399.019636 231.189143 
L 400.616727 231.619965 
L 402.213818 232.282601 
L 403.810909 233.193622 
L 405.408 234.369638 
L 407.005091 235.827213 
L 408.602182 237.582929 
L 410.199273 239.653393 
L 411.796364 242.055118 
L 413.659636 245.298061 
L 415.522909 249.040875 
L 417.386182 253.309824 
L 419.249455 258.131379 
L 421.112727 263.531822 
L 423.242182 270.446269 
L 425.371636 278.190602 
L 426.436364 282.386179 
L 426.436364 282.386179 
" clip-path="url(#pb53ab6866c)" style="fill: none; stroke-dasharray: 11.1,4.8; stroke-dashoffset: 0; stroke: #000000; stroke-width: 3"/>
   </g>
   <g id="line2d_2">
    <path d="M 27.163636 189.479028 
L 27.962182 206.071061 
L 28.760727 217.378384 
L 29.559273 224.612807 
L 30.091636 227.725334 
L 30.624 229.728514 
L 31.156364 230.838105 
L 31.688727 231.258411 
L 31.954909 231.243225 
L 32.487273 230.808225 
L 33.019636 229.982474 
L 33.818182 228.138354 
L 34.882909 224.908622 
L 36.48 218.929577 
L 38.343273 210.706515 
L 39.940364 202.472086 
L 41.271273 194.326649 
L 42.336 186.656417 
L 43.400727 177.619078 
L 44.199273 171.104057 
L 44.997818 164.67415 
L 46.062545 153.882921 
L 47.127273 140.513429 
L 48.458182 120.205732 
L 49.789091 96.174033 
L 50.853818 77.388746 
L 51.12 79.564671 
L 54.580364 132.665457 
L 55.645091 146.085651 
L 56.709818 156.581988 
L 57.508364 162.013865 
L 58.040727 164.242283 
L 58.306909 164.929436 
L 58.573091 165.297766 
L 58.839273 165.323679 
L 59.105455 165.030103 
L 59.371636 164.408629 
L 59.904 162.055438 
L 60.436364 158.271797 
L 60.968727 152.03528 
L 61.501091 143.621487 
L 62.299636 126.602871 
L 63.098182 103.735381 
L 63.896727 74.524668 
L 64.162909 75.991425 
L 65.493818 99.852881 
L 66.824727 120.101992 
L 68.155636 136.852349 
L 69.220364 147.855868 
L 70.285091 156.821561 
L 71.349818 163.848022 
L 72.148364 167.899659 
L 72.946909 170.970322 
L 73.745455 173.10794 
L 74.277818 174.034753 
L 74.544 174.358526 
L 74.810182 176.051759 
L 76.407273 223.627567 
L 77.205818 239.320377 
L 78.004364 249.503474 
L 78.536727 254.107757 
L 79.069091 257.22325 
L 79.601455 259.062977 
L 80.133818 259.824959 
L 80.4 259.848405 
L 80.666182 259.68769 
L 81.198545 258.822368 
L 81.730909 257.401613 
L 82.529455 254.553989 
L 85.191273 244.274552 
L 85.723636 242.992351 
L 86.256 242.216882 
L 86.522182 240.985476 
L 87.320727 234.167996 
L 87.853091 230.943294 
L 88.385455 228.719624 
L 88.917818 227.355493 
L 89.450182 226.814979 
L 89.716364 226.810362 
L 89.982545 226.994132 
L 90.514909 227.832918 
L 91.047273 229.256776 
L 91.845818 232.328063 
L 92.910545 237.820605 
L 93.709091 242.678252 
L 96.903273 248.924323 
L 98.766545 253.153516 
L 100.363636 257.34351 
L 102.226909 262.868129 
L 104.622545 269.975902 
L 105.421091 271.756981 
L 105.687273 272.206422 
L 105.953455 270.319394 
L 108.615273 221.980911 
L 110.744727 183.173497 
L 112.608 162.735357 
L 114.205091 142.949433 
L 115.802182 120.255908 
L 117.133091 98.408982 
L 118.464 73.193533 
L 119.794909 43.812296 
L 120.327273 31.005395 
L 121.392 64.175997 
L 122.190545 83.500227 
L 122.989091 98.505296 
L 123.787636 109.621422 
L 124.586182 117.44104 
L 125.384727 122.478744 
L 125.917091 124.597435 
L 126.449455 125.941544 
L 126.981818 126.700484 
L 127.514182 127.020939 
L 128.578909 127.280245 
L 129.377455 127.608249 
L 129.909818 128.120014 
L 130.442182 129.010293 
L 130.974545 130.401558 
L 131.506909 132.433785 
L 132.039273 135.208063 
L 132.837818 140.999492 
L 133.636364 149.046447 
L 134.434909 159.643451 
L 135.233455 173.404096 
L 136.564364 200.621154 
L 137.629091 217.99604 
L 138.693818 231.706298 
L 139.758545 242.10683 
L 140.557091 248.044626 
L 141.355636 252.527666 
L 142.154182 255.793634 
L 142.952727 258.001173 
L 144.017455 259.950425 
L 144.283636 259.921834 
L 144.549818 259.504214 
L 144.816 258.65913 
L 145.348364 255.843458 
L 145.880727 251.587685 
L 146.679273 242.733045 
L 147.477818 231.292839 
L 148.542545 212.578927 
L 149.873455 185.164713 
L 150.405818 183.570884 
L 150.938182 180.974082 
L 151.736727 175.636201 
L 152.801455 166.70269 
L 156.261818 135.806135 
L 157.326545 128.613346 
L 158.125091 124.453667 
L 158.923636 121.455213 
L 159.456 120.1176 
L 159.988364 119.302813 
L 160.520727 118.989714 
L 160.786909 119.076197 
L 161.053091 119.353129 
L 161.585455 120.509438 
L 162.117818 122.518368 
L 162.650182 125.435923 
L 163.448727 131.626898 
L 164.247273 140.134582 
L 164.513455 143.408495 
L 164.779636 144.574565 
L 165.312 143.033984 
L 165.844364 142.058856 
L 166.376727 141.603779 
L 166.642909 141.556904 
L 167.175273 141.795933 
L 167.707636 142.447323 
L 168.24 143.461497 
L 169.038545 145.563229 
L 170.103273 149.223274 
L 171.434182 154.753536 
L 177.024 179.728482 
L 178.354909 189.562183 
L 179.685818 197.629845 
L 180.750545 202.788169 
L 181.815273 206.859119 
L 182.613818 209.235493 
L 183.412364 211.078103 
L 183.678545 211.567115 
L 183.944727 212.906888 
L 185.009455 220.663049 
L 185.808 225.251663 
L 186.606545 228.915105 
L 187.405091 231.715305 
L 188.203636 233.644213 
L 188.736 234.460018 
L 189.268364 234.879552 
L 189.800727 234.910091 
L 190.333091 234.481797 
L 190.865455 233.603737 
L 191.397818 232.241975 
L 191.930182 230.356818 
L 192.728727 226.462107 
L 193.527273 221.175482 
L 194.592 210.467539 
L 196.189091 191.464379 
L 200.448 138.352954 
L 200.714182 139.568392 
L 201.512727 145.332961 
L 202.843636 156.92911 
L 204.973091 175.900766 
L 205.771636 181.595671 
L 206.570182 185.680183 
L 207.102545 187.256245 
L 207.368727 187.600752 
L 207.634909 187.639955 
L 207.901091 187.35039 
L 208.167273 186.707927 
L 208.699636 184.142428 
L 209.232 179.807327 
L 209.764364 173.318281 
L 211.893818 139.099219 
L 213.224727 111.737093 
L 214.555636 79.761091 
L 216.152727 34.796252 
L 216.418909 26.496364 
L 216.685091 30.224194 
L 218.016 67.778774 
L 219.346909 98.132243 
L 220.411636 118.005913 
L 221.476364 134.101262 
L 222.541091 146.385828 
L 223.339636 153.087656 
L 224.138182 157.645178 
L 224.670545 159.582706 
L 225.202909 160.767896 
L 225.735273 161.369707 
L 227.066182 162.121221 
L 227.332364 162.54575 
L 227.864727 164.115316 
L 228.397091 166.879165 
L 228.929455 171.200994 
L 229.461818 177.233006 
L 230.260364 190.098325 
L 231.058909 207.875329 
L 231.857455 231.182015 
L 232.922182 267.240181 
L 233.188364 268.335166 
L 234.253091 267.244154 
L 235.051636 266.173098 
L 235.850182 264.748994 
L 236.648727 262.852354 
L 237.447273 260.357353 
L 238.245818 257.127415 
L 239.044364 253.008471 
L 239.842909 247.823918 
L 240.641455 241.366991 
L 241.44 233.396564 
L 242.238545 223.630534 
L 243.037091 211.702597 
L 244.101818 192.117104 
L 245.166545 168.001626 
L 246.231273 138.79395 
L 247.296 104.031924 
L 248.094545 74.062148 
L 248.360727 74.501634 
L 249.159273 98.162211 
L 249.957818 116.218842 
L 250.756364 129.266018 
L 251.554909 137.860412 
L 252.087273 141.451777 
L 252.619636 143.476894 
L 252.885818 143.971103 
L 253.152 144.153162 
L 253.418182 144.043646 
L 253.684364 143.662903 
L 254.216727 142.167617 
L 254.749091 139.824819 
L 255.547636 135.051671 
L 256.612364 127.078102 
L 260.338909 97.155253 
L 261.669818 89.512198 
L 262.734545 84.503708 
L 263.799273 80.478072 
L 264.864 77.35395 
L 265.662545 75.558013 
L 266.461091 74.289361 
L 266.993455 73.699453 
L 267.259636 73.525786 
L 267.792 74.256408 
L 269.122909 78.881872 
L 270.453818 84.38717 
L 271.784727 90.850847 
L 273.115636 98.345815 
L 274.712727 108.691571 
L 276.576 122.210378 
L 278.439273 140.463183 
L 278.971636 143.450472 
L 279.504 145.326676 
L 279.770182 145.811703 
L 280.036364 146.015005 
L 280.302545 145.935264 
L 280.568727 145.570866 
L 281.101091 143.981444 
L 281.633455 141.213697 
L 282.165818 137.243257 
L 282.964364 128.99825 
L 283.762909 117.838602 
L 284.561455 103.478989 
L 285.36 85.503626 
L 286.158545 63.341793 
L 286.424727 61.872614 
L 288.288 88.997167 
L 290.151273 119.687787 
L 292.014545 154.106991 
L 293.611636 184.180306 
L 295.474909 209.358685 
L 296.805818 224.759148 
L 297.870545 234.976857 
L 298.669091 241.162531 
L 298.935273 241.925992 
L 299.467636 238.414736 
L 300.266182 231.573906 
L 301.330909 220.453058 
L 302.661818 204.161588 
L 306.920727 149.286389 
L 307.985455 139.220532 
L 308.784 133.827349 
L 309.316364 131.529549 
L 309.582545 130.805422 
L 309.848727 130.424925 
L 311.978182 167.26737 
L 312.776727 176.548548 
L 313.575273 183.422419 
L 314.373818 188.182479 
L 314.906182 190.352865 
L 315.438545 191.877338 
L 315.970909 192.885156 
L 316.503273 193.510756 
L 317.301818 194.058205 
L 318.100364 194.580671 
L 318.632727 195.153401 
L 319.165091 196.080679 
L 319.697455 197.484163 
L 320.229818 199.48047 
L 320.762182 202.195232 
L 321.560727 207.810555 
L 322.359273 214.925306 
L 322.625455 215.695333 
L 322.891636 215.894711 
L 323.157818 215.925242 
L 323.424 215.8195 
L 323.956364 215.254864 
L 324.488727 214.294457 
L 325.287273 212.368858 
L 326.618182 208.60919 
L 327.682909 203.722391 
L 328.481455 201.089687 
L 329.013818 200.088426 
L 329.28 199.858738 
L 329.546182 199.799643 
L 329.812364 199.952699 
L 330.078545 200.298224 
L 330.610909 201.617639 
L 331.143273 203.781056 
L 331.675636 206.860321 
L 332.474182 213.138595 
L 333.272727 221.522095 
L 334.071273 231.996117 
L 335.136 249.462875 
L 335.402182 254.462429 
L 335.668364 252.908312 
L 336.999273 211.128533 
L 338.330182 176.336442 
L 339.661091 147.298983 
L 340.992 123.159295 
L 342.322909 103.393508 
L 343.387636 90.868877 
L 344.452364 82.931333 
L 345.517091 76.856686 
L 346.581818 72.293212 
L 347.646545 68.890753 
L 348.711273 66.387614 
L 349.776 64.560761 
L 350.840727 63.22529 
L 351.905455 62.2371 
L 353.236364 61.323805 
L 354.301091 60.757158 
L 354.833455 61.216659 
L 356.164364 63.572781 
L 357.229091 65.070806 
L 358.56 66.566004 
L 359.890909 67.741098 
L 360.955636 68.550846 
L 362.286545 69.915232 
L 363.883636 71.938277 
L 365.214545 73.985637 
L 366.279273 76.002362 
L 367.344 78.548549 
L 368.408727 81.832135 
L 369.473455 86.072678 
L 370.538182 91.434751 
L 371.602909 98.052221 
L 372.933818 108.012301 
L 374.530909 121.971894 
L 376.394182 139.219145 
L 376.926545 147.532815 
L 379.056 184.88606 
L 379.588364 184.364656 
L 380.386909 183.076332 
L 381.451636 180.829146 
L 383.581091 175.517819 
L 387.84 164.10343 
L 389.969455 158.644622 
L 391.034182 156.59354 
L 391.566545 155.951033 
L 392.098909 155.703542 
L 392.365091 155.766639 
L 392.631273 155.98216 
L 392.897455 156.373946 
L 393.163636 156.968155 
L 393.962182 157.969969 
L 395.026909 159.682707 
L 396.091636 161.75584 
L 397.422545 165.011178 
L 398.487273 168.27108 
L 399.552 172.39296 
L 400.350545 176.236749 
L 401.415273 182.791052 
L 402.213818 189.170687 
L 403.012364 197.14308 
L 403.810909 207.228011 
L 404.609455 220.061114 
L 405.408 236.385643 
L 406.472727 261.003582 
L 406.738909 257.592761 
L 408.336 215.773696 
L 409.933091 173.582907 
L 412.594909 154.162101 
L 417.12 120.987829 
L 418.184727 114.531017 
L 419.249455 109.466558 
L 420.048 106.967141 
L 420.580364 106.053459 
L 420.846545 105.906232 
L 421.112727 105.961043 
L 421.378909 106.236396 
L 421.645091 106.751901 
L 422.177455 108.585759 
L 422.709818 111.638234 
L 423.242182 116.100689 
L 423.774545 122.181305 
L 424.573091 134.832797 
L 425.371636 152.574715 
L 426.170182 176.411539 
L 426.436364 185.972969 
L 426.436364 185.972969 
" clip-path="url(#pb53ab6866c)" style="fill: none; stroke: #0000ff; stroke-width: 3; stroke-linecap: square"/>
   </g>
   <g id="patch_3">
    <path d="M 7.2 331.2 
L 7.2 7.2 
" style="fill: none; stroke: #000000; stroke-width: 0.8; stroke-linejoin: miter; stroke-linecap: square"/>
   </g>
   <g id="patch_4">
    <path d="M 446.4 331.2 
L 446.4 7.2 
" style="fill: none; stroke: #000000; stroke-width: 0.8; stroke-linejoin: miter; stroke-linecap: square"/>
   </g>
   <g id="patch_5">
    <path d="M 7.2 331.2 
L 446.4 331.2 
" style="fill: none; stroke: #000000; stroke-width: 0.8; stroke-linejoin: miter; stroke-linecap: square"/>
   </g>
   <g id="patch_6">
    <path d="M 7.2 7.2 
L 446.4 7.2 
" style="fill: none; stroke: #000000; stroke-width: 0.8; stroke-linejoin: miter; stroke-linecap: square"/>
   </g>
  </g>
 </g>
 <defs>
  <clipPath id="pb53ab6866c">
   <rect x="7.2" y="7.2" width="439.2" height="324"/>
  </clipPath>
 </defs>
</svg>
