<?xml version="1.0" encoding="utf-8" standalone="no"?>
<!DOCTYPE svg PUBLIC "-//W3C//DTD SVG 1.1//EN"
  "http://www.w3.org/Graphics/SVG/1.1/DTD/svg11.dtd">
<svg xmlns:xlink="http://www.w3.org/1999/xlink" width="453.6pt" height="338.4pt" viewBox="0 0 453.6 338.4" xmlns="http://www.w3.org/2000/svg" version="1.1">
 <metadata>
  <rdf:RDF xmlns:dc="http://purl.org/dc/elements/1.1/" xmlns:cc="http://creativecommons.org/ns#" xmlns:rdf="http://www.w3.org/1999/02/22-rdf-syntax-ns#">
   <cc:Work>
    <dc:type rdf:resource="http://purl.org/dc/dcmitype/StillImage"/>
    <dc:date>2025-05-14T16:18:24.696083</dc:date>
    <dc:format>image/svg+xml</dc:format>
    <dc:creator>
     <cc:Agent>
      <dc:title>Matplotlib v3.10.1, https://matplotlib.org/</dc:title>
     </cc:Agent>
    </dc:creator>
   </cc:Work>
  </rdf:RDF>
 </metadata>
 <defs>
  <style type="text/css">*{stroke-linejoin: round; stroke-linecap: butt}</style>
 </defs>
 <g id="figure_1">
  <g id="patch_1">
   <path d="M 0 338.4 
L 453.6 338.4 
L 453.6 0 
L 0 0 
z
" style="fill: #ffffff"/>
  </g>
  <g id="axes_1">
   <g id="patch_2">
    <path d="M 7.2 331.2 
L 446.4 331.2 
L 446.4 7.2 
L 7.2 7.2 
z
" style="fill: #ffffff"/>
   </g>
   <g id="matplotlib.axis_1"/>
   <g id="matplotlib.axis_2"/>
   <g id="line2d_1">
    <path d="M 27.163636 46.81793 
L 65.227636 293.430258 
L 65.493818 293.639558 
L 140.024727 47.512106 
L 193.261091 152.097588 
L 272.849455 69.145354 
L 273.381818 70.438216 
L 315.438545 190.22782 
L 391.832727 269.744418 
L 392.098909 269.758072 
L 426.436364 252.836753 
L 426.436364 252.836753 
" clip-path="url(#pcf4668b5e5)" style="fill: none; stroke-dasharray: 11.1,4.8; stroke-dashoffset: 0; stroke: #000000; stroke-width: 3"/>
   </g>
   <g id="line2d_2">
    <path d="M 27.163636 64.064252 
L 27.696 64.67205 
L 28.494545 66.035242 
L 29.293091 67.996928 
L 30.091636 70.569783 
L 31.156364 74.879989 
L 32.487273 81.412224 
L 34.616727 93.340345 
L 40.738909 129.096933 
L 42.336 141.103584 
L 44.997818 161.336912 
L 46.328727 169.596746 
L 47.659636 176.448416 
L 50.587636 190.913656 
L 51.918545 199.065448 
L 53.515636 210.353933 
L 56.177455 229.309454 
L 57.508364 236.991106 
L 58.573091 241.961403 
L 59.637818 246.050997 
L 60.968727 250.262823 
L 62.299636 253.693802 
L 63.364364 255.859838 
L 64.162909 257.107642 
L 64.961455 258.024299 
L 65.76 258.630337 
L 66.558545 258.967462 
L 67.357091 259.086212 
L 68.421818 258.983315 
L 69.486545 258.643333 
L 70.551273 258.075076 
L 71.616 257.224198 
L 72.414545 256.341446 
L 73.213091 255.198164 
L 74.277818 253.217987 
L 75.342545 250.736135 
L 77.472 244.953861 
L 79.069091 240.928462 
L 80.133818 238.757768 
L 81.198545 237.030283 
L 82.529455 235.355458 
L 84.658909 233.184967 
L 86.256 231.455086 
L 87.586909 229.698334 
L 88.917818 227.589843 
L 90.514909 224.642214 
L 92.112 221.206934 
L 93.442909 217.763937 
L 94.773818 213.605794 
L 96.370909 207.761941 
L 100.896 189.781487 
L 107.550545 162.185688 
L 109.68 152.636372 
L 115.003636 127.940133 
L 117.133091 119.486996 
L 120.593455 106.845089 
L 122.722909 99.65446 
L 124.586182 94.101392 
L 128.046545 84.013871 
L 130.974545 75.186065 
L 132.571636 71.173613 
L 134.434909 67.221292 
L 136.564364 63.23937 
L 137.895273 61.157898 
L 138.96 59.891967 
L 139.758545 59.237838 
L 140.557091 58.86187 
L 141.355636 58.773193 
L 142.154182 58.975091 
L 142.952727 59.471319 
L 143.751273 60.268602 
L 144.549818 61.372295 
L 145.614545 63.309876 
L 146.945455 66.377414 
L 148.808727 71.39254 
L 152.535273 81.531185 
L 156.528 91.878363 
L 157.858909 96.354863 
L 159.988364 103.868194 
L 160.786909 105.930881 
L 161.319273 106.854412 
L 161.851636 107.36321 
L 162.384 107.447287 
L 162.916364 107.130607 
L 163.448727 106.46698 
L 164.247273 104.991743 
L 166.909091 99.374542 
L 167.707636 98.239669 
L 168.506182 97.456712 
L 169.304727 96.970895 
L 170.369455 96.648649 
L 171.700364 96.530338 
L 174.096 96.592329 
L 175.426909 96.799791 
L 176.225455 97.088715 
L 177.024 97.595653 
L 177.822545 98.410229 
L 178.621091 99.611938 
L 179.419636 101.247148 
L 180.484364 104.082293 
L 181.815273 108.401875 
L 184.477091 117.299765 
L 185.808 120.989392 
L 187.138909 124.069307 
L 188.469818 126.660491 
L 189.800727 128.847792 
L 191.131636 130.626208 
L 192.196364 131.710905 
L 193.261091 132.458083 
L 194.059636 132.788369 
L 194.858182 132.925115 
L 195.656727 132.877607 
L 196.455273 132.654678 
L 197.52 132.093035 
L 198.584727 131.230372 
L 199.649455 130.071219 
L 200.980364 128.247929 
L 202.843636 125.209991 
L 206.570182 118.94765 
L 207.901091 117.116372 
L 208.965818 115.939926 
L 210.030545 115.05846 
L 211.095273 114.483 
L 212.16 114.204417 
L 213.224727 114.193217 
L 214.555636 114.466164 
L 217.483636 115.262148 
L 218.548364 115.292029 
L 219.613091 115.0974 
L 220.677818 114.681825 
L 221.742545 114.059332 
L 223.073455 112.994966 
L 224.404364 111.602647 
L 226.001455 109.537397 
L 229.994182 104.05624 
L 231.325091 102.706689 
L 232.656 101.684229 
L 234.253091 100.765526 
L 237.447273 99.286901 
L 241.173818 97.478236 
L 243.303273 96.184163 
L 248.360727 92.867923 
L 249.691636 92.395799 
L 252.619636 91.522023 
L 253.684364 90.928955 
L 254.749091 90.080969 
L 256.08 88.683665 
L 258.209455 85.992007 
L 260.605091 83.049136 
L 262.202182 81.415946 
L 264.065455 79.814971 
L 268.590545 76.341936 
L 270.187636 75.274268 
L 271.252364 74.778637 
L 272.050909 74.598948 
L 272.849455 74.63364 
L 273.648 74.914874 
L 274.446545 75.455589 
L 275.245091 76.24729 
L 276.309818 77.643611 
L 277.640727 79.800891 
L 279.504 83.303105 
L 281.367273 87.287221 
L 282.964364 91.302078 
L 284.295273 95.274555 
L 285.626182 99.925019 
L 287.223273 106.322896 
L 290.949818 121.631267 
L 292.546909 126.925046 
L 294.144 131.412957 
L 297.072 139.470112 
L 298.402909 143.891362 
L 300.532364 151.922815 
L 302.395636 158.659545 
L 303.726545 162.669416 
L 305.057455 165.911463 
L 306.388364 168.532142 
L 308.517818 172.075165 
L 311.179636 176.564753 
L 314.64 182.469289 
L 316.769455 185.575152 
L 319.165091 188.653514 
L 320.762182 190.40542 
L 322.093091 191.569734 
L 323.424 192.458696 
L 326.618182 194.385085 
L 327.949091 195.539077 
L 329.546182 197.24445 
L 332.740364 200.730486 
L 334.603636 202.392266 
L 338.862545 206.045025 
L 341.524364 208.745514 
L 343.121455 210.611185 
L 344.452364 212.512547 
L 345.517091 214.417553 
L 346.581818 216.761667 
L 347.912727 220.323063 
L 350.042182 226.91735 
L 351.905455 232.405837 
L 353.236364 235.559225 
L 354.301091 237.487036 
L 355.365818 238.883954 
L 356.164364 239.612583 
L 356.962909 240.106608 
L 358.027636 240.480197 
L 359.358545 240.661343 
L 367.876364 241.286179 
L 371.602909 241.778001 
L 375.329455 242.505208 
L 378.789818 243.1229 
L 381.451636 243.350688 
L 384.379636 243.357781 
L 388.106182 243.139525 
L 389.703273 242.823934 
L 391.034182 242.307586 
L 392.365091 241.533372 
L 394.228364 240.158707 
L 396.624 238.123829 
L 398.221091 236.45406 
L 401.681455 232.547955 
L 402.48 232.05314 
L 403.278545 231.873943 
L 403.810909 231.947794 
L 404.609455 232.351272 
L 405.408 233.082772 
L 406.472727 234.483658 
L 407.803636 236.715104 
L 410.199273 241.31786 
L 412.328727 245.28341 
L 413.659636 247.373226 
L 414.990545 249.02162 
L 416.321455 250.238977 
L 417.652364 251.143274 
L 419.781818 252.280469 
L 421.645091 253.055552 
L 422.709818 253.297864 
L 423.774545 253.307735 
L 424.839273 253.06577 
L 426.170182 252.497065 
L 426.436364 252.365191 
L 426.436364 252.365191 
" clip-path="url(#pcf4668b5e5)" style="fill: none; stroke: #0000ff; stroke-width: 3; stroke-linecap: square"/>
   </g>
   <g id="patch_3">
    <path d="M 7.2 331.2 
L 7.2 7.2 
" style="fill: none; stroke: #000000; stroke-width: 0.8; stroke-linejoin: miter; stroke-linecap: square"/>
   </g>
   <g id="patch_4">
    <path d="M 446.4 331.2 
L 446.4 7.2 
" style="fill: none; stroke: #000000; stroke-width: 0.8; stroke-linejoin: miter; stroke-linecap: square"/>
   </g>
   <g id="patch_5">
    <path d="M 7.2 331.2 
L 446.4 331.2 
" style="fill: none; stroke: #000000; stroke-width: 0.8; stroke-linejoin: miter; stroke-linecap: square"/>
   </g>
   <g id="patch_6">
    <path d="M 7.2 7.2 
L 446.4 7.2 
" style="fill: none; stroke: #000000; stroke-width: 0.8; stroke-linejoin: miter; stroke-linecap: square"/>
   </g>
  </g>
 </g>
 <defs>
  <clipPath id="pcf4668b5e5">
   <rect x="7.2" y="7.2" width="439.2" height="324"/>
  </clipPath>
 </defs>
</svg>
