<?xml version="1.0" encoding="utf-8" standalone="no"?>
<!DOCTYPE svg PUBLIC "-//W3C//DTD SVG 1.1//EN"
  "http://www.w3.org/Graphics/SVG/1.1/DTD/svg11.dtd">
<svg xmlns:xlink="http://www.w3.org/1999/xlink" width="453.6pt" height="338.4pt" viewBox="0 0 453.6 338.4" xmlns="http://www.w3.org/2000/svg" version="1.1">
 <metadata>
  <rdf:RDF xmlns:dc="http://purl.org/dc/elements/1.1/" xmlns:cc="http://creativecommons.org/ns#" xmlns:rdf="http://www.w3.org/1999/02/22-rdf-syntax-ns#">
   <cc:Work>
    <dc:type rdf:resource="http://purl.org/dc/dcmitype/StillImage"/>
    <dc:date>2025-05-14T00:15:04.512025</dc:date>
    <dc:format>image/svg+xml</dc:format>
    <dc:creator>
     <cc:Agent>
      <dc:title>Matplotlib v3.10.1, https://matplotlib.org/</dc:title>
     </cc:Agent>
    </dc:creator>
   </cc:Work>
  </rdf:RDF>
 </metadata>
 <defs>
  <style type="text/css">*{stroke-linejoin: round; stroke-linecap: butt}</style>
 </defs>
 <g id="figure_1">
  <g id="patch_1">
   <path d="M 0 338.4 
L 453.6 338.4 
L 453.6 0 
L 0 0 
z
" style="fill: #ffffff"/>
  </g>
  <g id="axes_1">
   <g id="patch_2">
    <path d="M 7.2 331.2 
L 446.4 331.2 
L 446.4 7.2 
L 7.2 7.2 
z
" style="fill: #ffffff"/>
   </g>
   <g id="matplotlib.axis_1"/>
   <g id="matplotlib.axis_2"/>
   <g id="line2d_1">
    <path d="M 27.163636 316.472727 
L 32.221091 292.626243 
L 37.278545 269.839422 
L 42.069818 249.229422 
L 46.861091 229.57049 
L 51.652364 210.862657 
L 56.177455 194.067426 
L 60.702545 178.120538 
L 64.961455 163.886662 
L 69.220364 150.404236 
L 73.479273 137.6733 
L 77.472 126.420501 
L 81.464727 115.82824 
L 85.191273 106.53797 
L 88.917818 97.823064 
L 92.644364 89.683502 
L 96.104727 82.640483 
L 99.565091 76.093576 
L 103.025455 70.042781 
L 106.219636 64.897681 
L 109.413818 60.175322 
L 112.341818 56.217818 
L 115.269818 52.615525 
L 118.197818 49.368405 
L 120.859636 46.724674 
L 123.521455 44.374506 
L 126.183273 42.317902 
L 128.845091 40.55482 
L 131.240727 39.218982 
L 133.636364 38.12098 
L 136.032 37.260732 
L 138.427636 36.638279 
L 140.823273 36.2535 
L 143.218909 36.106597 
L 145.614545 36.197408 
L 148.010182 36.526013 
L 150.405818 37.092373 
L 152.801455 37.896488 
L 155.197091 38.938398 
L 157.592727 40.218102 
L 159.988364 41.735521 
L 162.650182 43.700382 
L 165.312 45.958887 
L 167.973818 48.510874 
L 170.635636 51.356424 
L 173.563636 54.825563 
L 176.491636 58.649873 
L 179.419636 62.829355 
L 182.613818 67.79395 
L 185.808 73.181205 
L 189.002182 78.991183 
L 192.462545 85.762278 
L 195.922909 93.029525 
L 199.383273 100.792805 
L 203.109818 109.708111 
L 206.836364 119.198679 
L 210.829091 130.005698 
L 214.821818 141.473173 
L 218.814545 153.601064 
L 223.073455 167.265517 
L 227.332364 181.68144 
L 231.857455 197.821772 
L 236.382545 214.810428 
L 240.907636 232.647346 
L 245.698909 252.45821 
L 250.490182 273.220102 
L 253.152 285.16549 
L 253.418182 285.310973 
L 258.741818 267.843392 
L 264.065455 251.134165 
L 269.122909 235.962767 
L 274.180364 221.475745 
L 279.237818 207.672947 
L 284.029091 195.227989 
L 288.820364 183.39719 
L 293.345455 172.787671 
L 297.870545 162.725957 
L 302.395636 153.212107 
L 306.654545 144.758318 
L 310.913455 136.789934 
L 315.172364 129.306793 
L 319.165091 122.732062 
L 323.157818 116.583927 
L 326.884364 111.230498 
L 330.610909 106.248625 
L 334.337455 101.638249 
L 338.064 97.39947 
L 341.524364 93.796144 
L 344.984727 90.51323 
L 348.445091 87.550668 
L 351.639273 85.100321 
L 354.833455 82.922994 
L 358.027636 81.018646 
L 361.221818 79.387258 
L 364.149818 78.131665 
L 367.077818 77.105391 
L 370.005818 76.308536 
L 372.933818 75.741061 
L 375.861818 75.402924 
L 378.789818 75.294227 
L 381.717818 75.414868 
L 384.645818 75.764909 
L 387.573818 76.344329 
L 390.501818 77.153149 
L 393.429818 78.191327 
L 396.357818 79.458824 
L 399.285818 80.95576 
L 402.48 82.850394 
L 405.674182 85.018027 
L 408.868364 87.4586 
L 412.062545 90.172193 
L 415.522909 93.419942 
L 418.983273 96.988064 
L 422.443636 100.876558 
L 425.904 105.085405 
L 426.436364 105.761395 
L 426.436364 105.761395 
" clip-path="url(#p25a714506c)" style="fill: none; stroke-dasharray: 11.1,4.8; stroke-dashoffset: 0; stroke: #000000; stroke-width: 3"/>
   </g>
   <g id="line2d_2">
    <path d="M 27.163636 201.008542 
L 31.954909 201.117746 
L 35.947636 200.96409 
L 38.343273 200.670101 
L 39.940364 200.244175 
L 41.271273 199.663112 
L 42.602182 198.853441 
L 44.465455 197.426894 
L 47.659636 194.929661 
L 51.386182 192.255896 
L 52.450909 191.157975 
L 53.515636 189.728224 
L 54.580364 187.902641 
L 55.645091 185.670073 
L 56.976 182.378521 
L 58.839273 177.079784 
L 60.436364 171.928843 
L 61.767273 167.00215 
L 63.364364 160.154704 
L 65.493818 149.799751 
L 71.349818 120.390777 
L 72.680727 115.35119 
L 74.011636 111.283406 
L 76.673455 103.662974 
L 78.004364 98.875235 
L 79.335273 93.120701 
L 80.666182 86.365546 
L 81.997091 78.431373 
L 83.328 69.108312 
L 85.457455 52.120427 
L 86.788364 42.10574 
L 87.853091 35.819564 
L 88.651636 32.552772 
L 89.184 31.115173 
L 89.716364 30.232658 
L 90.248727 29.82399 
L 90.781091 29.770534 
L 91.579636 30.036598 
L 92.378182 30.262672 
L 92.910545 30.174984 
L 93.442909 29.799736 
L 93.975273 29.110808 
L 94.773818 27.563457 
L 96.903273 22.876222 
L 97.435636 22.219335 
L 97.968 21.929138 
L 98.500364 22.018813 
L 99.032727 22.4622 
L 99.565091 23.201705 
L 100.363636 24.695315 
L 103.025455 30.065111 
L 104.356364 32.065744 
L 106.752 35.493635 
L 110.212364 41.089301 
L 111.010909 41.883722 
L 111.809455 42.402345 
L 113.140364 42.929769 
L 114.205091 43.431722 
L 115.003636 44.034504 
L 115.802182 44.876257 
L 116.866909 46.316208 
L 118.996364 49.695875 
L 125.384727 59.865982 
L 126.183273 60.716982 
L 126.981818 61.255357 
L 127.780364 61.444806 
L 128.578909 61.29843 
L 129.377455 60.876864 
L 130.708364 59.810863 
L 134.701091 56.398466 
L 136.830545 54.771052 
L 137.895273 54.2053 
L 138.693818 53.988718 
L 139.492364 53.982593 
L 140.290909 54.182831 
L 141.355636 54.701859 
L 144.017455 56.16059 
L 144.816 56.337019 
L 145.614545 56.319701 
L 146.413091 56.115367 
L 147.477818 55.610575 
L 149.341091 54.399089 
L 152.002909 52.666751 
L 153.333818 52.060846 
L 154.132364 51.930247 
L 154.664727 51.998508 
L 155.197091 52.226285 
L 155.729455 52.640793 
L 156.528 53.652 
L 157.326545 55.140744 
L 158.391273 57.760504 
L 161.585455 66.393482 
L 162.650182 68.383469 
L 163.714909 69.85463 
L 166.909091 73.756103 
L 168.24 75.909176 
L 170.635636 80.313231 
L 175.693091 89.673586 
L 177.290182 92.18327 
L 178.354909 93.520122 
L 179.419636 94.538325 
L 180.750545 95.452617 
L 182.88 96.820294 
L 183.944727 97.813715 
L 185.009455 99.119601 
L 186.340364 101.150653 
L 188.203636 104.505741 
L 190.333091 108.821317 
L 192.196364 113.079908 
L 193.793455 117.224855 
L 195.390545 121.927583 
L 196.987636 127.265073 
L 198.850909 134.344819 
L 200.980364 143.412543 
L 204.174545 157.163163 
L 205.505455 162.016181 
L 206.836364 166.090292 
L 208.433455 170.155236 
L 210.562909 174.860641 
L 212.692364 179.047342 
L 214.289455 181.681116 
L 215.886545 183.892695 
L 218.548364 187.141742 
L 221.210182 190.085403 
L 223.073455 191.838163 
L 225.202909 193.5428 
L 228.663273 195.990917 
L 231.325091 197.666412 
L 233.454545 198.750037 
L 235.317818 199.470296 
L 237.447273 200.048601 
L 240.109091 200.505636 
L 243.835636 200.887819 
L 248.094545 201.087712 
L 255.547636 201.174021 
L 260.338909 201.03817 
L 263.533091 200.742214 
L 265.928727 200.29828 
L 268.058182 199.66372 
L 269.655273 198.979517 
L 271.252364 198.031257 
L 272.583273 196.982534 
L 274.180364 195.404663 
L 276.309818 192.903698 
L 281.899636 186.134956 
L 285.626182 181.849961 
L 287.223273 179.593849 
L 288.554182 177.3409 
L 290.151273 174.194304 
L 296.007273 162.014863 
L 297.072 160.426061 
L 298.136727 159.255946 
L 298.935273 158.700253 
L 299.733818 158.445382 
L 300.532364 158.499974 
L 301.330909 158.858979 
L 302.129455 159.504874 
L 302.928 160.410527 
L 303.992727 161.964043 
L 305.323636 164.337248 
L 307.719273 169.230034 
L 309.848727 173.387228 
L 311.179636 175.529959 
L 312.244364 176.902928 
L 313.309091 177.947941 
L 314.373818 178.653964 
L 315.172364 178.956369 
L 315.970909 179.062328 
L 316.769455 178.973505 
L 317.568 178.695801 
L 318.632727 178.050148 
L 319.697455 177.119734 
L 321.028364 175.605946 
L 322.359273 173.74745 
L 323.956364 171.113027 
L 326.085818 167.071546 
L 330.610909 157.790706 
L 333.272727 151.935627 
L 335.934545 145.515952 
L 339.927273 135.269859 
L 342.056727 129.288338 
L 343.92 123.347397 
L 345.517091 117.528314 
L 347.380364 109.789897 
L 349.509818 99.815485 
L 353.502545 80.706 
L 354.833455 75.499291 
L 356.430545 70.216737 
L 358.56 63.236725 
L 359.890909 57.870743 
L 361.488 50.209833 
L 364.149818 37.178114 
L 365.214545 32.982328 
L 366.279273 29.705234 
L 367.077818 27.877218 
L 367.876364 26.579789 
L 368.674909 25.798469 
L 369.207273 25.558686 
L 369.739636 25.5408 
L 370.272 25.742498 
L 370.804364 26.160008 
L 371.602909 27.177461 
L 372.401455 28.635785 
L 373.466182 31.187813 
L 374.797091 35.17233 
L 376.394182 40.804296 
L 378.257455 48.208145 
L 381.717818 63.206306 
L 383.581091 70.687237 
L 385.178182 76.237295 
L 389.969455 92.068571 
L 392.365091 101.742363 
L 394.228364 108.96816 
L 395.825455 114.249334 
L 397.688727 119.505484 
L 399.818182 124.865424 
L 401.415273 128.417464 
L 402.746182 130.913359 
L 404.077091 132.931818 
L 405.408 134.528265 
L 407.271273 136.326674 
L 408.868364 137.892093 
L 409.933091 139.227343 
L 410.997818 140.966678 
L 412.062545 143.174302 
L 413.393455 146.534845 
L 414.990545 151.2061 
L 417.12 158.133872 
L 419.781818 166.80828 
L 420.846545 169.439661 
L 421.645091 170.714721 
L 422.177455 171.136409 
L 422.709818 171.17206 
L 423.242182 170.804741 
L 423.774545 170.041205 
L 424.306909 168.914873 
L 425.105455 166.682407 
L 426.436364 162.269186 
L 426.436364 162.269186 
" clip-path="url(#p25a714506c)" style="fill: none; stroke-dasharray: 3,4.95; stroke-dashoffset: 0; stroke: #ffa500; stroke-width: 3"/>
   </g>
   <g id="line2d_3">
    <path d="M 27.163636 257.461883 
L 29.825455 270.471416 
L 30.624 273.218734 
L 31.422545 275.132856 
L 31.954909 275.959683 
L 32.487273 276.462934 
L 33.019636 276.684019 
L 33.552 276.666295 
L 34.084364 276.451902 
L 34.882909 275.841739 
L 35.947636 274.637473 
L 37.012364 273.100019 
L 38.077091 271.208204 
L 38.875636 269.439078 
L 39.674182 267.216265 
L 40.472727 264.396064 
L 41.537455 259.566509 
L 42.868364 252.010687 
L 45.530182 236.036077 
L 46.594909 230.914014 
L 47.659636 226.745564 
L 49.256727 221.543924 
L 50.587636 217.093714 
L 51.652364 212.780348 
L 52.717091 207.450585 
L 53.781818 201.029511 
L 55.378909 189.843492 
L 58.040727 170.869493 
L 59.637818 161.176801 
L 62.033455 148.414695 
L 64.961455 132.45491 
L 67.357091 119.677798 
L 68.954182 112.306132 
L 70.551273 105.999615 
L 72.148364 100.596096 
L 74.277818 94.301869 
L 76.407273 87.937536 
L 78.536727 80.731512 
L 80.666182 73.668699 
L 81.997091 69.910277 
L 83.328 66.710609 
L 84.925091 63.441932 
L 86.522182 60.66746 
L 87.853091 58.731802 
L 89.184 57.164577 
L 90.514909 55.942344 
L 92.378182 54.581279 
L 94.773818 52.796214 
L 97.701818 50.564883 
L 99.032727 49.867965 
L 100.363636 49.436908 
L 101.960727 49.179118 
L 104.090182 49.083805 
L 105.687273 49.189257 
L 107.284364 49.528733 
L 109.413818 50.290423 
L 111.809455 51.101919 
L 114.737455 52.009458 
L 116.068364 52.656449 
L 117.665455 53.712879 
L 119.528727 55.277386 
L 124.32 59.592211 
L 125.650909 60.372924 
L 126.715636 60.731218 
L 127.780364 60.846364 
L 129.111273 60.736126 
L 132.305455 60.34575 
L 139.492364 60.170415 
L 141.089455 60.426826 
L 145.880727 61.423675 
L 148.542545 61.835385 
L 150.139636 62.353887 
L 152.002909 63.245486 
L 154.132364 64.530585 
L 156.261818 66.063071 
L 159.722182 68.641665 
L 161.053091 69.3079 
L 162.117818 69.606574 
L 163.448727 69.705172 
L 165.045818 69.559749 
L 169.304727 69.047129 
L 171.168 69.08712 
L 172.765091 69.357727 
L 174.362182 69.88 
L 176.757818 70.979523 
L 179.153455 72.001822 
L 181.815273 73.107977 
L 182.88 73.797392 
L 183.944727 74.736262 
L 185.009455 75.943185 
L 186.340364 77.797361 
L 187.937455 80.420914 
L 190.066909 84.37566 
L 192.462545 89.294485 
L 194.592 94.171818 
L 196.455273 98.995045 
L 198.318545 104.494263 
L 200.181818 110.719155 
L 203.109818 121.43291 
L 206.836364 134.831664 
L 210.829091 149.081235 
L 217.217455 172.518889 
L 221.742545 188.298331 
L 223.073455 192.225376 
L 224.404364 195.463087 
L 225.735273 198.01763 
L 228.929455 203.570466 
L 229.994182 206.298355 
L 231.058909 209.739022 
L 234.785455 222.769808 
L 236.116364 226.104941 
L 239.044364 232.968347 
L 240.375273 236.781666 
L 241.706182 241.177365 
L 243.037091 246.25887 
L 244.900364 254.453409 
L 246.763636 262.612135 
L 247.828364 266.44046 
L 248.893091 269.356947 
L 249.691636 270.949724 
L 250.490182 272.10974 
L 251.288727 272.935026 
L 252.353455 273.683211 
L 253.684364 274.303108 
L 255.547636 274.902037 
L 256.878545 275.119106 
L 257.677091 275.048697 
L 258.475636 274.698351 
L 259.008 274.241337 
L 259.540364 273.555978 
L 260.072727 272.603865 
L 260.871273 270.61329 
L 261.669818 267.915779 
L 262.734545 263.297048 
L 264.065455 256.301299 
L 266.727273 240.704776 
L 276.309818 183.998796 
L 277.640727 178.092897 
L 278.971636 173.245983 
L 283.762909 157.001213 
L 285.626182 149.435271 
L 287.489455 140.820018 
L 291.482182 121.648661 
L 292.813091 116.63568 
L 293.877818 113.391216 
L 294.942545 110.833814 
L 295.741091 109.364295 
L 296.539636 108.278643 
L 297.338182 107.575094 
L 298.136727 107.245981 
L 298.669091 107.226614 
L 299.467636 107.477794 
L 300.266182 108.033507 
L 301.064727 108.850945 
L 302.129455 110.270678 
L 303.460364 112.455691 
L 304.791273 115.036556 
L 306.122182 118.068169 
L 307.453091 121.629639 
L 309.582545 128.160607 
L 311.445818 133.680185 
L 312.776727 136.869145 
L 313.841455 138.823765 
L 314.906182 140.252603 
L 315.704727 141.001761 
L 316.503273 141.490289 
L 317.301818 141.726705 
L 318.100364 141.716626 
L 318.898909 141.467718 
L 319.697455 140.993832 
L 320.762182 140.050317 
L 321.826909 138.808616 
L 323.157818 136.917491 
L 324.754909 134.196699 
L 326.352 130.984296 
L 330.610909 121.957799 
L 331.941818 119.841066 
L 333.272727 118.148333 
L 334.869818 116.481253 
L 340.459636 111.007446 
L 342.056727 109.018594 
L 343.653818 106.661734 
L 345.250909 103.871222 
L 346.848 100.637932 
L 349.776 94.040894 
L 351.905455 89.496629 
L 353.502545 86.594398 
L 355.099636 84.130463 
L 361.221818 75.551368 
L 363.351273 72.834673 
L 365.214545 70.84061 
L 366.811636 69.490576 
L 368.142545 68.665756 
L 369.473455 68.125841 
L 370.804364 67.844729 
L 372.401455 67.778152 
L 374.264727 67.963849 
L 376.128 68.363271 
L 377.991273 68.984588 
L 380.120727 69.969857 
L 384.912 72.563275 
L 386.509091 73.693217 
L 387.84 74.925549 
L 389.170909 76.479552 
L 390.501818 78.362099 
L 392.098909 81.019924 
L 393.962182 84.612746 
L 395.825455 88.700443 
L 398.221091 94.566169 
L 402.48 105.247254 
L 404.077091 108.530512 
L 405.408 110.771618 
L 407.005091 112.980114 
L 409.134545 115.864702 
L 410.199273 117.779007 
L 411.264 120.271291 
L 412.328727 123.353988 
L 416.321455 135.640767 
L 417.386182 137.955527 
L 418.450909 139.792263 
L 419.515636 141.195023 
L 420.314182 141.901391 
L 420.846545 142.139936 
L 421.378909 142.127079 
L 421.911273 141.796263 
L 422.443636 141.079674 
L 422.976 139.918786 
L 423.508364 138.276487 
L 424.306909 134.909293 
L 425.371636 129.023268 
L 426.436364 122.385084 
L 426.436364 122.385084 
" clip-path="url(#p25a714506c)" style="fill: none; stroke: #ffa500; stroke-width: 3; stroke-linecap: square"/>
   </g>
   <g id="patch_3">
    <path d="M 7.2 331.2 
L 7.2 7.2 
" style="fill: none; stroke: #000000; stroke-width: 0.8; stroke-linejoin: miter; stroke-linecap: square"/>
   </g>
   <g id="patch_4">
    <path d="M 446.4 331.2 
L 446.4 7.2 
" style="fill: none; stroke: #000000; stroke-width: 0.8; stroke-linejoin: miter; stroke-linecap: square"/>
   </g>
   <g id="patch_5">
    <path d="M 7.2 331.2 
L 446.4 331.2 
" style="fill: none; stroke: #000000; stroke-width: 0.8; stroke-linejoin: miter; stroke-linecap: square"/>
   </g>
   <g id="patch_6">
    <path d="M 7.2 7.2 
L 446.4 7.2 
" style="fill: none; stroke: #000000; stroke-width: 0.8; stroke-linejoin: miter; stroke-linecap: square"/>
   </g>
  </g>
 </g>
 <defs>
  <clipPath id="p25a714506c">
   <rect x="7.2" y="7.2" width="439.2" height="324"/>
  </clipPath>
 </defs>
</svg>
