<?xml version="1.0" encoding="utf-8" standalone="no"?>
<!DOCTYPE svg PUBLIC "-//W3C//DTD SVG 1.1//EN"
  "http://www.w3.org/Graphics/SVG/1.1/DTD/svg11.dtd">
<svg xmlns:xlink="http://www.w3.org/1999/xlink" width="453.6pt" height="338.4pt" viewBox="0 0 453.6 338.4" xmlns="http://www.w3.org/2000/svg" version="1.1">
 <metadata>
  <rdf:RDF xmlns:dc="http://purl.org/dc/elements/1.1/" xmlns:cc="http://creativecommons.org/ns#" xmlns:rdf="http://www.w3.org/1999/02/22-rdf-syntax-ns#">
   <cc:Work>
    <dc:type rdf:resource="http://purl.org/dc/dcmitype/StillImage"/>
    <dc:date>2025-05-14T09:02:48.688679</dc:date>
    <dc:format>image/svg+xml</dc:format>
    <dc:creator>
     <cc:Agent>
      <dc:title>Matplotlib v3.10.1, https://matplotlib.org/</dc:title>
     </cc:Agent>
    </dc:creator>
   </cc:Work>
  </rdf:RDF>
 </metadata>
 <defs>
  <style type="text/css">*{stroke-linejoin: round; stroke-linecap: butt}</style>
 </defs>
 <g id="figure_1">
  <g id="patch_1">
   <path d="M 0 338.4 
L 453.6 338.4 
L 453.6 0 
L 0 0 
z
" style="fill: #ffffff"/>
  </g>
  <g id="axes_1">
   <g id="patch_2">
    <path d="M 7.2 331.2 
L 446.4 331.2 
L 446.4 7.2 
L 7.2 7.2 
z
" style="fill: #ffffff"/>
   </g>
   <g id="matplotlib.axis_1"/>
   <g id="matplotlib.axis_2"/>
   <g id="line2d_1">
    <path d="M 27.163636 178.737653 
L 28.760727 190.846539 
L 30.357818 201.414604 
L 31.954909 210.441885 
L 33.285818 216.787615 
L 34.616727 222.063359 
L 35.681455 225.513531 
L 36.746182 228.278923 
L 37.810909 230.359503 
L 38.609455 231.47054 
L 39.408 232.196378 
L 40.206545 232.53701 
L 40.738909 232.550121 
L 41.271273 232.391995 
L 41.803636 232.062684 
L 42.602182 231.247725 
L 43.400727 230.047561 
L 44.199273 228.462204 
L 45.264 225.749184 
L 46.328727 222.351359 
L 47.393455 218.268735 
L 48.724364 212.202488 
L 50.055273 205.066193 
L 51.652364 195.090272 
L 53.249455 183.573542 
L 54.846545 170.516028 
L 56.709818 153.334833 
L 58.573091 134.056437 
L 60.702545 109.455985 
L 62.033455 93.664428 
L 67.889455 119.091794 
L 73.479273 142.409751 
L 79.069091 164.796278 
L 84.658909 186.251399 
L 89.982545 205.818886 
L 95.306182 224.541538 
L 100.363636 241.545526 
L 105.421091 257.787035 
L 110.478545 273.266098 
L 115.269818 287.22712 
L 120.061091 300.503883 
L 124.586182 312.41465 
L 126.183273 316.472727 
L 126.715636 312.29025 
L 130.708364 278.630684 
L 134.434909 249.08543 
L 138.161455 221.34586 
L 141.621818 197.204593 
L 145.082182 174.620355 
L 148.276364 155.15529 
L 151.470545 137.016964 
L 154.664727 120.205274 
L 157.592727 105.960085 
L 160.520727 92.829644 
L 163.182545 81.860269 
L 165.844364 71.812132 
L 168.24 63.556595 
L 170.635636 56.047278 
L 173.031273 49.284283 
L 175.160727 43.899149 
L 177.290182 39.103722 
L 179.153455 35.391352 
L 181.016727 32.130451 
L 182.88 29.321019 
L 184.477091 27.272174 
L 186.074182 25.555065 
L 187.671273 24.169615 
L 189.268364 23.115849 
L 190.599273 22.491038 
L 191.930182 22.09658 
L 193.261091 21.932451 
L 194.592 21.998651 
L 195.922909 22.295154 
L 197.253818 22.822011 
L 198.584727 23.579172 
L 199.915636 24.566687 
L 201.512727 26.055727 
L 203.109818 27.876426 
L 204.706909 30.028784 
L 206.570182 32.959091 
L 206.836364 33.414545 
L 213.224727 65.810461 
L 216.418909 80.317188 
L 219.346909 92.603529 
L 222.274909 103.922485 
L 224.936727 113.372894 
L 227.598545 122.023739 
L 229.994182 129.125944 
L 232.389818 135.580468 
L 234.785455 141.387321 
L 236.914909 146.005357 
L 239.044364 150.111651 
L 241.173818 153.706166 
L 243.037091 156.431668 
L 244.900364 158.765352 
L 246.497455 160.453854 
L 248.094545 161.854509 
L 249.691636 162.967329 
L 251.288727 163.792302 
L 252.885818 164.329439 
L 254.216727 164.557179 
L 255.547636 164.58505 
L 256.878545 164.413001 
L 258.209455 164.041084 
L 259.540364 163.469285 
L 261.137455 162.519274 
L 262.734545 161.281403 
L 264.331636 159.755723 
L 265.928727 157.942195 
L 267.792 155.462594 
L 269.655273 152.591277 
L 271.518545 149.32813 
L 273.648 145.119122 
L 275.777455 140.398347 
L 277.906909 135.165868 
L 280.568727 128.389154 
L 284.029091 127.898696 
L 287.489455 127.199029 
L 291.216 126.211565 
L 294.942545 124.981423 
L 298.669091 123.508654 
L 302.395636 121.793232 
L 306.122182 119.835184 
L 309.848727 117.634458 
L 313.841455 115.007279 
L 317.834182 112.101567 
L 321.826909 108.917299 
L 325.819636 105.454498 
L 330.078545 101.453824 
L 334.337455 97.136188 
L 338.596364 92.501666 
L 342.855273 87.550156 
L 347.380364 81.941978 
L 351.106909 77.05484 
L 351.639273 78.391478 
L 371.070545 135.585468 
L 390.235636 192.674612 
L 409.933091 252.052004 
L 426.436364 302.348785 
L 426.436364 302.348785 
" clip-path="url(#p5c85ed1107)" style="fill: none; stroke-dasharray: 11.1,4.8; stroke-dashoffset: 0; stroke: #000000; stroke-width: 3"/>
   </g>
   <g id="line2d_2">
    <path d="M 27.163636 148.436234 
L 31.954909 148.536257 
L 33.552 148.776003 
L 34.882909 149.204576 
L 35.947636 149.773976 
L 37.012364 150.60782 
L 38.077091 151.769135 
L 39.141818 153.300755 
L 40.206545 155.224523 
L 41.537455 158.130819 
L 43.933091 163.696264 
L 46.594909 165.774299 
L 47.659636 166.32588 
L 49.256727 166.86336 
L 50.321455 166.966125 
L 51.386182 166.808189 
L 52.450909 166.356124 
L 53.515636 165.606223 
L 54.580364 164.570949 
L 55.911273 162.935498 
L 58.306909 159.4877 
L 59.904 157.321546 
L 60.436364 156.71251 
L 61.501091 152.850898 
L 62.832 147.055772 
L 64.162909 140.08919 
L 64.695273 141.92338 
L 65.76 145.647121 
L 66.824727 148.588776 
L 67.889455 150.817779 
L 68.688 152.064128 
L 69.486545 152.974401 
L 70.285091 153.575416 
L 71.083636 153.892505 
L 71.882182 153.959365 
L 72.680727 153.812218 
L 73.745455 153.364391 
L 75.342545 152.448356 
L 75.608727 152.521206 
L 76.141091 153.404281 
L 76.673455 153.811951 
L 77.205818 153.81317 
L 77.738182 153.531617 
L 78.536727 152.811008 
L 79.867636 151.510339 
L 80.666182 151.056408 
L 81.198545 151.013218 
L 81.730909 151.232353 
L 82.263273 151.755682 
L 82.795636 152.619745 
L 83.328 153.85575 
L 84.126545 156.468068 
L 84.925091 160.049764 
L 85.989818 166.186881 
L 87.320727 164.770145 
L 88.651636 163.019403 
L 90.248727 160.571544 
L 92.378182 156.872476 
L 93.975273 153.733694 
L 96.370909 148.28283 
L 98.766545 143.444047 
L 101.428364 138.394862 
L 101.694545 138.308851 
L 101.960727 138.561504 
L 103.557818 140.951451 
L 105.421091 143.35169 
L 107.284364 145.407807 
L 109.68 147.652662 
L 111.010909 148.753869 
L 112.874182 150.277164 
L 114.205091 151.660913 
L 115.536 153.406693 
L 116.866909 155.214662 
L 120.061091 156.112256 
L 121.924364 156.387844 
L 123.787636 156.421972 
L 125.917091 156.212736 
L 126.981818 156.045435 
L 127.780364 155.495301 
L 128.578909 154.705725 
L 129.643636 153.294536 
L 130.708364 151.488687 
L 131.773091 149.298393 
L 133.104 146.017934 
L 133.370182 145.340313 
L 133.636364 145.623426 
L 134.701091 149.376041 
L 135.765818 152.416995 
L 136.830545 154.844509 
L 137.895273 156.719084 
L 138.96 158.090396 
L 139.758545 158.792919 
L 140.557091 159.22601 
L 141.355636 159.381648 
L 142.154182 159.261673 
L 142.952727 158.86648 
L 143.751273 158.205078 
L 145.348364 156.531399 
L 147.477818 154.293118 
L 148.276364 153.829834 
L 149.341091 153.473933 
L 150.672 153.298077 
L 152.801455 153.312927 
L 162.117818 153.654003 
L 164.247273 153.524599 
L 165.312 153.25405 
L 166.110545 152.878604 
L 166.909091 152.287552 
L 167.707636 151.412651 
L 168.506182 150.172749 
L 169.304727 148.489742 
L 170.103273 146.268557 
L 170.901818 143.77228 
L 171.434182 143.872417 
L 172.498909 144.055596 
L 173.563636 143.983444 
L 174.894545 143.636771 
L 177.290182 142.697053 
L 179.153455 141.965796 
L 180.218182 141.754022 
L 181.016727 141.776258 
L 181.815273 142.003896 
L 182.613818 142.484911 
L 183.146182 142.959669 
L 183.944727 144.133929 
L 184.743273 145.767515 
L 186.074182 149.191732 
L 189.800727 159.463268 
L 191.131636 162.261912 
L 192.196364 163.975595 
L 193.261091 165.2273 
L 193.793455 165.819304 
L 194.592 166.644708 
L 195.390545 167.157147 
L 195.922909 167.303914 
L 196.189091 167.0406 
L 197.253818 165.216169 
L 198.318545 163.782529 
L 199.649455 162.405265 
L 200.980364 161.375563 
L 202.577455 160.464287 
L 204.440727 159.694688 
L 210.296727 157.545541 
L 212.426182 156.446796 
L 214.555636 155.093507 
L 219.080727 152.042095 
L 220.944 151.288412 
L 222.807273 150.776873 
L 224.936727 150.412787 
L 226.8 150.236195 
L 227.598545 149.561479 
L 228.130909 149.345416 
L 228.663273 149.299942 
L 229.461818 149.525524 
L 230.260364 150.059412 
L 231.058909 150.864827 
L 232.123636 152.288187 
L 233.454545 154.503382 
L 235.317818 158.138827 
L 236.382545 160.348437 
L 236.648727 160.397465 
L 238.778182 156.995331 
L 240.375273 154.892966 
L 241.706182 153.498568 
L 243.037091 152.430144 
L 243.303273 152.252638 
L 243.569455 151.781306 
L 244.368 149.750459 
L 245.166545 148.278286 
L 245.698909 147.628332 
L 246.231273 147.248343 
L 246.763636 147.13757 
L 247.296 147.289959 
L 247.828364 147.694456 
L 248.626909 148.759885 
L 249.425455 150.331154 
L 250.490182 153.108273 
L 251.554909 156.564626 
L 252.353455 159.427833 
L 253.418182 159.35318 
L 254.749091 158.981377 
L 256.346182 158.272699 
L 258.741818 156.925565 
L 262.734545 154.385019 
L 264.065455 153.003757 
L 265.396364 151.310737 
L 267.259636 148.548416 
L 271.518545 142.009087 
L 273.115636 140.048906 
L 274.180364 139.053383 
L 274.712727 139.295388 
L 275.511273 140.132557 
L 276.309818 140.71607 
L 277.640727 141.551742 
L 281.633455 144.559621 
L 282.698182 144.99284 
L 283.762909 145.196237 
L 285.093818 145.181603 
L 286.957091 144.861684 
L 289.618909 144.404186 
L 291.482182 144.314151 
L 293.877818 144.414263 
L 294.942545 144.752979 
L 295.741091 145.215579 
L 296.539636 145.89829 
L 297.338182 146.835927 
L 297.870545 147.394234 
L 299.733818 147.192284 
L 306.654545 146.700227 
L 313.042909 145.708613 
L 314.906182 145.088053 
L 316.237091 144.44447 
L 317.568 143.57066 
L 318.898909 142.391843 
L 319.963636 141.169418 
L 321.028364 139.637036 
L 322.093091 137.723497 
L 322.359273 137.907463 
L 323.157818 141.425891 
L 324.488727 146.788079 
L 325.553455 150.183842 
L 327.150545 154.208376 
L 327.682909 155.168947 
L 328.215273 155.76708 
L 328.747636 156.089107 
L 329.546182 156.239516 
L 331.941818 156.235264 
L 332.740364 156.598995 
L 333.538909 157.324211 
L 334.337455 158.199366 
L 339.394909 158.299225 
L 340.992 157.967197 
L 342.322909 157.471371 
L 343.653818 156.918115 
L 344.984727 156.511321 
L 346.049455 155.987116 
L 347.114182 155.23172 
L 348.178909 154.182117 
L 349.243636 152.758236 
L 350.308364 150.875323 
L 351.639273 148.097379 
L 352.704 148.704245 
L 353.502545 148.849856 
L 354.301091 148.751508 
L 355.365818 148.345895 
L 358.293818 147.00564 
L 359.092364 146.9467 
L 359.890909 147.149043 
L 360.423273 147.551839 
L 360.955636 148.18702 
L 361.754182 149.605634 
L 362.552727 151.605057 
L 363.351273 154.214988 
L 364.149818 156.80257 
L 365.746909 153.969328 
L 367.077818 152.017283 
L 368.408727 150.433817 
L 369.473455 149.446759 
L 370.538182 148.737484 
L 371.336727 148.413338 
L 372.135273 148.296905 
L 372.933818 148.422933 
L 373.732364 148.83455 
L 374.530909 149.587447 
L 375.329455 150.75017 
L 376.394182 152.92154 
L 380.653091 152.543544 
L 385.710545 151.963026 
L 387.84 151.992991 
L 389.703273 152.248424 
L 391.832727 152.7782 
L 395.026909 153.598134 
L 396.091636 153.47137 
L 396.624 153.306213 
L 397.422545 153.677254 
L 403.012364 156.707598 
L 404.609455 157.209859 
L 405.940364 157.409398 
L 407.005091 157.358479 
L 407.803636 157.148228 
L 408.602182 156.733743 
L 409.400727 156.043378 
L 409.933091 155.495466 
L 410.997818 154.748306 
L 411.796364 153.944084 
L 412.594909 152.878274 
L 413.393455 151.491035 
L 413.925818 150.513051 
L 414.192 150.470318 
L 415.789091 151.609144 
L 417.386182 152.44064 
L 420.846545 154.025984 
L 421.911273 154.836437 
L 422.976 155.993982 
L 424.040727 157.606664 
L 425.105455 159.762652 
L 426.170182 162.51666 
L 426.436364 163.304357 
L 426.436364 163.304357 
" clip-path="url(#p5c85ed1107)" style="fill: none; stroke-dasharray: 3,4.95; stroke-dashoffset: 0; stroke: #ff0000; stroke-width: 3"/>
   </g>
   <g id="line2d_3">
    <path d="M 27.163636 115.237277 
L 27.962182 112.428708 
L 28.760727 110.290108 
L 29.559273 108.797286 
L 30.091636 108.12851 
L 30.624 107.719356 
L 31.156364 107.551749 
L 31.688727 107.619675 
L 32.221091 107.915061 
L 32.753455 108.4324 
L 33.552 109.607625 
L 34.350545 111.24795 
L 35.149091 113.33195 
L 36.213818 116.775332 
L 37.278545 120.928738 
L 38.609455 127.019936 
L 40.472727 136.81726 
L 42.602182 148.836314 
L 43.933091 157.656149 
L 44.731636 161.176773 
L 45.796364 167.094336 
L 47.127273 176.126465 
L 47.393455 176.474979 
L 48.458182 171.559831 
L 49.256727 168.872048 
L 49.789091 167.598856 
L 50.321455 166.736367 
L 50.853818 166.284175 
L 51.386182 166.199052 
L 51.918545 166.424177 
L 52.450909 166.909761 
L 53.249455 167.98198 
L 55.112727 170.631726 
L 55.645091 171.050424 
L 56.177455 171.18422 
L 56.709818 170.945096 
L 57.242182 170.299736 
L 57.774545 169.198453 
L 58.306909 167.595442 
L 59.105455 164.26065 
L 59.904 159.842267 
L 60.968727 152.494313 
L 63.364364 134.249477 
L 64.162909 127.684092 
L 64.429091 127.880687 
L 65.227636 129.29647 
L 66.026182 130.26713 
L 68.155636 145.778887 
L 68.688 145.986853 
L 69.486545 146.0198 
L 70.285091 145.819855 
L 71.349818 145.288074 
L 72.680727 144.246162 
L 74.011636 142.853985 
L 75.608727 140.963711 
L 75.874909 141.238257 
L 76.141091 141.351239 
L 76.407273 141.323977 
L 76.673455 141.13746 
L 78.004364 139.395145 
L 79.069091 137.401661 
L 80.666182 134.353575 
L 81.464727 133.231629 
L 81.997091 132.749726 
L 82.529455 132.531937 
L 83.061818 132.634993 
L 83.594182 133.117607 
L 84.126545 134.032551 
L 84.658909 135.448563 
L 85.191273 137.446438 
L 85.989818 141.508387 
L 86.522182 140.735869 
L 87.054545 140.37045 
L 87.320727 140.408449 
L 87.586909 140.618497 
L 87.853091 141.010518 
L 88.385455 142.520448 
L 88.917818 145.177301 
L 89.450182 149.280574 
L 89.982545 154.959952 
L 90.248727 156.249377 
L 90.781091 156.869189 
L 91.047273 156.895435 
L 91.313455 156.761614 
L 91.845818 156.040371 
L 92.378182 154.821435 
L 95.306182 146.91497 
L 96.903273 143.515552 
L 97.968 141.72374 
L 98.766545 140.773208 
L 99.032727 140.54689 
L 99.298909 140.84352 
L 99.831273 142.779155 
L 100.896 148.076387 
L 101.428364 151.228799 
L 101.960727 156.039558 
L 103.291636 171.995397 
L 104.356364 187.421827 
L 105.421091 205.886838 
L 105.687273 211.042722 
L 105.953455 212.462744 
L 106.219636 212.904872 
L 106.485818 213.108091 
L 106.752 213.079624 
L 107.018182 212.813821 
L 107.550545 211.631667 
L 108.082909 209.661739 
L 108.881455 205.447616 
L 109.946182 198.048235 
L 112.874182 174.866561 
L 114.471273 159.881231 
L 116.334545 140.180202 
L 117.133091 130.171283 
L 117.399273 126.545648 
L 119.262545 143.121983 
L 120.859636 155.376773 
L 122.456727 165.633485 
L 123.787636 172.765021 
L 126.981818 188.545714 
L 127.248 188.234514 
L 127.780364 187.050176 
L 128.312727 185.172365 
L 129.111273 181.321224 
L 130.176 174.45068 
L 131.240727 165.878967 
L 132.305455 155.614514 
L 133.902545 139.67784 
L 134.168727 137.891028 
L 134.434909 137.981925 
L 134.701091 140.563618 
L 135.765818 155.404263 
L 136.830545 167.151284 
L 137.895273 176.083174 
L 138.693818 181.050536 
L 139.492364 184.614032 
L 140.024727 186.257428 
L 140.557091 187.366047 
L 141.089455 187.982343 
L 141.621818 188.150558 
L 142.154182 187.965831 
L 142.952727 187.235475 
L 143.751273 186.455609 
L 144.283636 186.326255 
L 144.549818 186.373874 
L 144.816 185.955366 
L 145.614545 181.626535 
L 146.146909 179.914223 
L 146.413091 179.434833 
L 146.679273 179.201331 
L 146.945455 179.228657 
L 147.211636 179.509942 
L 147.477818 180.089724 
L 147.744 180.985643 
L 148.010182 181.09252 
L 148.542545 180.345766 
L 149.074909 179.146656 
L 149.873455 176.71904 
L 150.938182 172.703986 
L 154.398545 159.012713 
L 155.197091 156.801593 
L 155.729455 155.756559 
L 156.261818 155.134006 
L 156.528 155.015415 
L 156.794182 155.045342 
L 157.060364 155.223914 
L 157.326545 155.563595 
L 157.858909 156.845582 
L 158.391273 158.998676 
L 158.923636 162.170101 
L 159.456 166.57154 
L 159.988364 172.401252 
L 160.520727 177.952114 
L 161.851636 156.30088 
L 162.650182 140.360348 
L 163.448727 129.733546 
L 163.981091 125.219925 
L 164.513455 122.474256 
L 165.045818 121.175084 
L 165.312 120.972905 
L 165.578182 121.013595 
L 166.110545 121.639016 
L 167.707636 124.477969 
L 167.973818 124.56346 
L 168.24 124.406134 
L 168.506182 123.919788 
L 168.772364 123.086858 
L 169.304727 120.134645 
L 169.837091 115.075027 
L 170.103273 111.614257 
L 170.635636 119.014324 
L 172.232727 142.86358 
L 172.765091 148.23983 
L 173.297455 151.592061 
L 173.829818 153.55181 
L 174.096 154.07321 
L 174.362182 154.321865 
L 174.628364 154.320545 
L 174.894545 154.09042 
L 175.426909 153.022465 
L 175.959273 151.304873 
L 177.024 147.114001 
L 178.088727 145.966774 
L 180.484364 143.204174 
L 181.282909 142.588399 
L 182.081455 142.292581 
L 182.613818 142.314614 
L 183.146182 142.556137 
L 183.678545 143.161962 
L 184.210909 144.131886 
L 184.743273 145.474514 
L 185.009455 146.495282 
L 185.275636 148.002191 
L 186.340364 157.735269 
L 187.405091 169.583341 
L 188.469818 183.774375 
L 189.534545 200.241866 
L 189.800727 199.318825 
L 190.599273 188.971342 
L 191.397818 181.584196 
L 191.930182 178.301592 
L 192.462545 176.317678 
L 192.728727 175.760792 
L 192.994909 175.518229 
L 193.261091 175.53917 
L 193.527273 175.782038 
L 193.793455 175.817905 
L 194.059636 176.173577 
L 194.592 177.528821 
L 195.922909 181.840251 
L 196.189091 182.170958 
L 196.455273 182.139635 
L 196.721455 181.970252 
L 197.253818 181.139669 
L 197.786182 179.453997 
L 198.318545 176.745388 
L 198.850909 172.867696 
L 199.383273 167.70553 
L 200.181818 157.292634 
L 200.714182 150.244356 
L 202.577455 140.644895 
L 204.706909 129.601705 
L 205.771636 122.888538 
L 207.102545 113.059054 
L 208.433455 117.751247 
L 209.764364 123.222126 
L 210.296727 125.387227 
L 214.821818 137.152727 
L 216.418909 142.672773 
L 217.749818 148.257066 
L 219.080727 154.06628 
L 219.346909 154.403574 
L 221.476364 154.651291 
L 224.404364 154.76148 
L 224.936727 154.781152 
L 225.202909 155.3372 
L 225.469091 156.431605 
L 226.8 164.840534 
L 227.598545 163.31451 
L 228.130909 162.676194 
L 228.663273 162.32815 
L 229.195636 162.261227 
L 229.728 162.414238 
L 230.260364 162.776154 
L 231.058909 163.603322 
L 234.253091 167.691772 
L 234.785455 168.034663 
L 235.317818 168.15479 
L 235.850182 167.99886 
L 236.382545 167.515205 
L 236.648727 166.586351 
L 237.447273 161.619408 
L 238.512 153.404713 
L 239.576727 143.065429 
L 240.641455 130.125389 
L 240.907636 126.430763 
L 241.173818 127.671959 
L 243.303273 155.691476 
L 243.569455 157.120586 
L 244.900364 154.518002 
L 245.432727 153.811685 
L 245.965091 153.458272 
L 246.497455 153.501221 
L 247.029818 153.994673 
L 247.562182 154.94886 
L 248.094545 156.372563 
L 248.626909 158.24809 
L 249.159273 161.581816 
L 251.288727 175.900249 
L 252.353455 182.228464 
L 252.885818 182.925327 
L 253.418182 183.254701 
L 253.950545 183.223226 
L 254.482909 182.841739 
L 255.015273 182.112932 
L 255.547636 181.056602 
L 256.346182 178.877186 
L 257.144727 176.048183 
L 258.209455 171.397415 
L 258.741818 168.602096 
L 259.540364 161.813743 
L 260.072727 157.54332 
L 260.871273 154.446396 
L 262.202182 151.373078 
L 263.000727 148.593015 
L 264.597818 141.872156 
L 266.194909 135.467347 
L 266.993455 133.076004 
L 267.525818 131.959389 
L 268.058182 131.321302 
L 268.324364 131.210478 
L 268.590545 131.239314 
L 268.856727 131.442355 
L 269.122909 131.79163 
L 269.655273 133.061891 
L 270.187636 135.112233 
L 270.72 138.010685 
L 271.518545 144.102644 
L 272.050909 147.997952 
L 272.849455 151.826451 
L 273.648 154.630299 
L 274.712727 157.814262 
L 275.511273 160.268898 
L 276.043636 161.343009 
L 276.576 162.01912 
L 276.842182 162.00106 
L 277.374545 161.381642 
L 277.906909 160.44365 
L 278.439273 159.064749 
L 278.971636 157.112285 
L 279.504 154.454798 
L 280.302545 148.90391 
L 280.568727 146.579986 
L 280.834909 145.56328 
L 281.367273 145.92347 
L 281.899636 146.006499 
L 282.432 145.886715 
L 284.561455 145.044749 
L 285.093818 145.178697 
L 285.626182 145.604731 
L 286.424727 146.518939 
L 287.489455 146.041655 
L 288.820364 145.439536 
L 289.618909 145.309802 
L 290.151273 145.379758 
L 290.949818 145.757945 
L 291.748364 146.480712 
L 292.546909 147.545062 
L 293.345455 148.895432 
L 293.611636 151.34871 
L 293.877818 152.451796 
L 294.410182 146.177431 
L 294.942545 142.724073 
L 295.208727 141.915765 
L 295.474909 141.641726 
L 295.741091 141.843803 
L 296.007273 142.468158 
L 296.539636 144.803302 
L 297.072 148.241455 
L 299.467636 166.087974 
L 300.266182 170.873274 
L 300.798545 173.282867 
L 301.330909 174.875268 
L 301.597091 175.325226 
L 301.863273 175.506984 
L 302.129455 175.415616 
L 302.395636 175.025042 
L 302.661818 174.32488 
L 303.194182 171.900869 
L 303.726545 168.003962 
L 303.992727 165.408715 
L 305.323636 145.347039 
L 306.654545 128.741589 
L 307.719273 117.804374 
L 307.985455 116.702304 
L 308.517818 115.58503 
L 309.050182 114.998039 
L 309.316364 114.901227 
L 309.582545 114.9342 
L 309.848727 115.084241 
L 310.114909 115.709992 
L 310.913455 119.517905 
L 311.712 124.517973 
L 313.042909 134.608703 
L 314.64 146.799044 
L 315.704727 140.798008 
L 316.503273 137.834905 
L 317.301818 135.703945 
L 318.898909 131.939412 
L 319.697455 129.360766 
L 320.496 125.729649 
L 321.560727 119.367305 
L 322.093091 118.894895 
L 322.359273 119.508259 
L 323.157818 124.913624 
L 325.287273 139.555339 
L 326.618182 147.224318 
L 327.150545 149.766082 
L 327.682909 151.200827 
L 327.949091 151.535862 
L 328.215273 151.639883 
L 329.546182 145.220198 
L 330.344727 142.592435 
L 331.143273 140.835931 
L 331.675636 140.109636 
L 332.208 139.721397 
L 332.740364 139.658726 
L 333.272727 139.909234 
L 333.805091 140.455358 
L 334.071273 140.84215 
L 334.337455 140.994348 
L 335.668364 141.203304 
L 336.999273 141.431577 
L 337.797818 141.381699 
L 338.330182 141.215793 
L 338.862545 140.882662 
L 339.394909 140.355398 
L 339.927273 139.577448 
L 340.459636 138.482283 
L 340.992 137.364322 
L 341.790545 140.765517 
L 342.855273 146.345037 
L 344.186182 153.463679 
L 346.049455 162.542018 
L 346.848 165.504157 
L 347.380364 166.605592 
L 347.646545 166.829727 
L 347.912727 166.846023 
L 348.178909 166.582975 
L 348.445091 166.087314 
L 348.977455 164.231231 
L 349.509818 161.185632 
L 350.042182 156.871879 
L 350.840727 147.920609 
L 351.905455 132.457183 
L 352.171636 131.307163 
L 353.502545 138.350517 
L 354.567273 142.995345 
L 355.632 146.620092 
L 356.430545 148.698584 
L 357.229091 150.299793 
L 358.293818 151.861784 
L 359.624727 153.289828 
L 359.890909 153.546936 
L 360.955636 157.191202 
L 361.754182 159.27156 
L 362.286545 160.237233 
L 362.818909 160.804577 
L 363.085091 160.912989 
L 363.351273 160.89352 
L 363.617455 160.735077 
L 363.883636 160.439221 
L 364.149818 159.291093 
L 364.416 156.833373 
L 364.948364 156.550729 
L 365.480727 155.901727 
L 366.013091 154.871821 
L 366.811636 152.765839 
L 367.876364 149.079766 
L 369.207273 143.524284 
L 370.538182 137.188923 
L 372.135273 127.806161 
L 373.732364 118.134409 
L 373.998545 117.967539 
L 376.926545 143.820559 
L 377.725091 148.408046 
L 378.523636 151.347314 
L 379.056 152.62524 
L 379.854545 153.879864 
L 381.984 156.43828 
L 382.516364 157.55756 
L 383.048727 159.07871 
L 383.581091 161.102882 
L 384.379636 165.281824 
L 384.912 168.935329 
L 385.178182 168.346232 
L 385.976727 161.820191 
L 388.106182 147.777904 
L 388.638545 145.720809 
L 389.170909 144.342619 
L 389.703273 143.576802 
L 390.235636 143.38201 
L 390.501818 143.464709 
L 391.034182 143.996161 
L 391.566545 144.930625 
L 392.365091 147.024677 
L 393.163636 149.773925 
L 394.494545 156.842003 
L 396.091636 165.246338 
L 397.422545 171.20143 
L 397.688727 170.641041 
L 398.221091 168.510703 
L 398.753455 165.543298 
L 399.552 159.560588 
L 400.350545 151.816374 
L 400.616727 148.865023 
L 400.882909 148.66358 
L 401.681455 155.149795 
L 402.48 159.895014 
L 403.278545 163.234146 
L 404.077091 165.415467 
L 404.609455 166.33498 
L 405.141818 166.890774 
L 405.674182 167.131282 
L 406.206545 167.093131 
L 406.738909 166.814472 
L 407.271273 166.320511 
L 408.069818 165.21339 
L 408.868364 163.696644 
L 409.666909 161.777318 
L 410.199273 158.808174 
L 410.997818 154.514449 
L 411.796364 151.513753 
L 412.328727 150.208489 
L 412.594909 149.755218 
L 412.861091 148.53976 
L 413.659636 141.736888 
L 414.192 139.133747 
L 414.724364 138.36128 
L 414.990545 138.24774 
L 415.256727 138.297669 
L 415.789091 138.803941 
L 416.321455 139.790263 
L 417.12 142.04027 
L 417.918545 145.041956 
L 418.983273 150.08472 
L 420.048 156.282604 
L 421.112727 163.721545 
L 422.177455 172.577869 
L 423.242182 183.076738 
L 424.306909 195.395444 
L 425.637818 213.526574 
L 426.436364 225.810783 
L 426.436364 225.810783 
" clip-path="url(#p5c85ed1107)" style="fill: none; stroke: #ff0000; stroke-width: 3; stroke-linecap: square"/>
   </g>
   <g id="patch_3">
    <path d="M 7.2 331.2 
L 7.2 7.2 
" style="fill: none; stroke: #000000; stroke-width: 0.8; stroke-linejoin: miter; stroke-linecap: square"/>
   </g>
   <g id="patch_4">
    <path d="M 446.4 331.2 
L 446.4 7.2 
" style="fill: none; stroke: #000000; stroke-width: 0.8; stroke-linejoin: miter; stroke-linecap: square"/>
   </g>
   <g id="patch_5">
    <path d="M 7.2 331.2 
L 446.4 331.2 
" style="fill: none; stroke: #000000; stroke-width: 0.8; stroke-linejoin: miter; stroke-linecap: square"/>
   </g>
   <g id="patch_6">
    <path d="M 7.2 7.2 
L 446.4 7.2 
" style="fill: none; stroke: #000000; stroke-width: 0.8; stroke-linejoin: miter; stroke-linecap: square"/>
   </g>
  </g>
 </g>
 <defs>
  <clipPath id="p5c85ed1107">
   <rect x="7.2" y="7.2" width="439.2" height="324"/>
  </clipPath>
 </defs>
</svg>
