<?xml version="1.0" encoding="utf-8" standalone="no"?>
<!DOCTYPE svg PUBLIC "-//W3C//DTD SVG 1.1//EN"
  "http://www.w3.org/Graphics/SVG/1.1/DTD/svg11.dtd">
<svg xmlns:xlink="http://www.w3.org/1999/xlink" width="453.6pt" height="338.4pt" viewBox="0 0 453.6 338.4" xmlns="http://www.w3.org/2000/svg" version="1.1">
 <metadata>
  <rdf:RDF xmlns:dc="http://purl.org/dc/elements/1.1/" xmlns:cc="http://creativecommons.org/ns#" xmlns:rdf="http://www.w3.org/1999/02/22-rdf-syntax-ns#">
   <cc:Work>
    <dc:type rdf:resource="http://purl.org/dc/dcmitype/StillImage"/>
    <dc:date>2025-05-14T09:03:58.883516</dc:date>
    <dc:format>image/svg+xml</dc:format>
    <dc:creator>
     <cc:Agent>
      <dc:title>Matplotlib v3.10.1, https://matplotlib.org/</dc:title>
     </cc:Agent>
    </dc:creator>
   </cc:Work>
  </rdf:RDF>
 </metadata>
 <defs>
  <style type="text/css">*{stroke-linejoin: round; stroke-linecap: butt}</style>
 </defs>
 <g id="figure_1">
  <g id="patch_1">
   <path d="M 0 338.4 
L 453.6 338.4 
L 453.6 0 
L 0 0 
z
" style="fill: #ffffff"/>
  </g>
  <g id="axes_1">
   <g id="patch_2">
    <path d="M 7.2 331.2 
L 446.4 331.2 
L 446.4 7.2 
L 7.2 7.2 
z
" style="fill: #ffffff"/>
   </g>
   <g id="matplotlib.axis_1"/>
   <g id="matplotlib.axis_2"/>
   <g id="line2d_1">
    <path d="M 27.163636 166.911395 
L 28.494545 166.424333 
L 29.825455 166.176798 
L 31.156364 166.15707 
L 32.487273 166.353545 
L 33.818182 166.754503 
L 35.415273 167.489227 
L 37.012364 168.48146 
L 38.875636 169.937675 
L 40.738909 171.685037 
L 42.868364 173.997443 
L 45.264 176.943912 
L 47.925818 180.566503 
L 51.386182 185.675847 
L 57.242182 194.813659 
L 62.299636 202.548252 
L 65.493818 207.051574 
L 68.155636 210.438383 
L 70.551273 213.119588 
L 72.680727 215.153994 
L 74.544 216.625526 
L 76.141091 217.632167 
L 77.738182 218.38243 
L 79.335273 218.856153 
L 80.666182 219.025157 
L 81.997091 218.976467 
L 83.328 218.698436 
L 84.658909 218.179375 
L 85.989818 217.407639 
L 87.320727 216.37156 
L 88.651636 215.059491 
L 89.982545 213.459744 
L 91.579636 211.14389 
L 93.176727 208.376866 
L 94.773818 205.138487 
L 96.370909 201.408614 
L 97.968 197.167107 
L 99.565091 192.393771 
L 99.831273 192.917338 
L 101.694545 205.351855 
L 103.291636 214.570588 
L 104.888727 222.509177 
L 106.485818 229.21354 
L 107.816727 233.890891 
L 109.147636 237.769691 
L 110.478545 240.876554 
L 111.543273 242.824125 
L 112.608 244.308297 
L 113.672727 245.342705 
L 114.471273 245.831534 
L 115.269818 246.080772 
L 116.068364 246.096194 
L 116.866909 245.883493 
L 117.665455 245.448453 
L 118.464 244.79683 
L 119.528727 243.600981 
L 120.593455 242.043895 
L 121.924364 239.610319 
L 123.255273 236.6602 
L 124.852364 232.475698 
L 126.449455 227.631701 
L 128.312727 221.208098 
L 130.442182 212.937954 
L 132.571636 203.781377 
L 135.233455 191.25517 
L 138.161455 176.32728 
L 141.621818 157.509642 
L 146.679273 128.64343 
L 154.930909 81.533878 
L 158.657455 61.68398 
L 158.923636 61.450397 
L 159.988364 64.302067 
L 160.786909 65.910805 
L 161.585455 67.131755 
L 162.384 68.02462 
L 163.182545 68.649333 
L 164.247273 69.168393 
L 165.578182 69.51224 
L 167.707636 70.010166 
L 168.772364 70.536229 
L 169.570909 71.168389 
L 170.369455 72.070625 
L 171.168 73.302682 
L 171.966545 74.924453 
L 172.765091 76.995744 
L 173.563636 79.576343 
L 174.628364 83.912692 
L 175.693091 89.402653 
L 176.757818 96.187821 
L 177.822545 104.410152 
L 178.887273 114.211202 
L 180.218182 128.898782 
L 181.549091 146.551723 
L 182.88 167.44683 
L 184.210909 191.861076 
L 185.541818 220.071571 
L 187.138909 259.32427 
L 188.736 304.920745 
L 189.002182 313.170606 
L 189.268364 316.472727 
L 191.664 305.424399 
L 194.059636 295.344699 
L 196.721455 285.142184 
L 199.383273 275.838134 
L 202.311273 266.454517 
L 205.505455 256.996892 
L 209.498182 245.916559 
L 219.080727 219.668836 
L 222.274909 210.081303 
L 224.936727 201.438656 
L 227.598545 192.035401 
L 229.994182 182.792708 
L 232.389818 172.693138 
L 234.785455 161.622522 
L 237.181091 149.466586 
L 239.842909 134.694932 
L 241.44 134.205384 
L 243.037091 133.932029 
L 244.900364 133.847151 
L 247.029818 134.001526 
L 249.425455 134.412247 
L 253.152 135.323559 
L 257.677091 136.397412 
L 260.072727 136.738805 
L 262.202182 136.805341 
L 264.065455 136.623336 
L 265.662545 136.251733 
L 267.259636 135.650101 
L 268.856727 134.788907 
L 270.453818 133.638808 
L 272.050909 132.170354 
L 273.648 130.354161 
L 275.245091 128.160673 
L 276.842182 125.560632 
L 278.439273 122.524462 
L 280.036364 119.022883 
L 281.633455 115.026361 
L 283.496727 109.699026 
L 285.36 103.611241 
L 287.223273 96.716295 
L 289.086545 88.967496 
L 290.949818 80.318133 
L 293.079273 69.270513 
L 295.208727 56.91588 
L 297.338182 43.184294 
L 299.467636 28.00615 
L 300.266182 21.927273 
L 300.532364 23.019637 
L 302.661818 47.986306 
L 304.791273 70.332899 
L 306.920727 90.23774 
L 309.050182 107.879617 
L 310.913455 121.600308 
L 312.776727 133.844485 
L 314.64 144.731849 
L 316.503273 154.381846 
L 318.366545 162.914175 
L 320.229818 170.448326 
L 322.093091 177.103935 
L 323.956364 183.000534 
L 326.085818 188.963435 
L 328.215273 194.269688 
L 330.877091 200.250846 
L 335.402182 209.690627 
L 338.596364 216.590365 
L 340.992 222.310893 
L 343.121455 228.017532 
L 344.984727 233.637358 
L 346.848 239.967156 
L 348.711273 247.126403 
L 350.574545 255.234821 
L 352.437818 264.411945 
L 354.301091 274.77716 
L 355.099636 279.612889 
L 355.365818 278.597649 
L 357.495273 259.18005 
L 359.624727 241.868755 
L 361.488 228.376294 
L 363.351273 216.363626 
L 365.214545 205.768743 
L 367.077818 196.529721 
L 368.674909 189.642561 
L 370.272 183.666871 
L 371.869091 178.563598 
L 373.2 174.949131 
L 374.530909 171.890779 
L 375.861818 169.365979 
L 377.192727 167.352115 
L 378.257455 166.093677 
L 379.322182 165.136181 
L 380.386909 164.468162 
L 381.451636 164.077909 
L 382.516364 163.953914 
L 383.581091 164.084637 
L 384.645818 164.45843 
L 385.710545 165.063764 
L 387.041455 166.128457 
L 388.372364 167.514254 
L 389.703273 169.198551 
L 391.300364 171.581945 
L 393.163636 174.812654 
L 395.293091 179.022417 
L 397.688727 184.307684 
L 400.616727 191.371665 
L 404.609455 201.66422 
L 411.796364 220.298225 
L 414.724364 227.262044 
L 417.12 232.434486 
L 419.249455 236.52054 
L 421.112727 239.624948 
L 422.709818 241.886696 
L 424.306909 243.738738 
L 425.637818 244.940986 
L 426.436364 245.503342 
L 426.436364 245.503342 
" clip-path="url(#pac2ceb5591)" style="fill: none; stroke-dasharray: 11.1,4.8; stroke-dashoffset: 0; stroke: #000000; stroke-width: 3"/>
   </g>
   <g id="line2d_2">
    <path d="M 27.163636 192.269523 
L 27.696 191.664559 
L 28.494545 190.297802 
L 29.825455 187.38735 
L 32.753455 180.777523 
L 34.350545 177.71569 
L 35.947636 175.103104 
L 37.544727 172.878316 
L 39.141818 171.006081 
L 40.472727 169.742046 
L 41.537455 169.00105 
L 42.336 168.674582 
L 43.134545 168.631636 
L 43.666909 168.631065 
L 44.731636 168.048335 
L 45.796364 167.748069 
L 46.861091 167.714495 
L 47.925818 167.925144 
L 48.990545 168.359338 
L 50.055273 169.00892 
L 51.386182 170.12628 
L 52.717091 171.606824 
L 54.048 173.503621 
L 55.112727 175.377411 
L 56.177455 177.633161 
L 57.242182 180.355631 
L 58.306909 183.642616 
L 58.839273 185.240353 
L 59.637818 185.891236 
L 60.436364 186.238066 
L 60.968727 186.281742 
L 61.501091 186.083353 
L 62.033455 185.679232 
L 62.832 184.772183 
L 63.896727 183.191233 
L 66.824727 178.57956 
L 67.889455 177.374731 
L 68.688 176.677908 
L 69.486545 174.712005 
L 70.018909 173.974213 
L 70.551273 173.692734 
L 71.083636 173.76678 
L 71.616 174.126557 
L 72.414545 175.031153 
L 73.745455 177.043027 
L 75.608727 179.824406 
L 76.673455 180.996635 
L 77.205818 181.370206 
L 78.004364 181.793832 
L 79.069091 182.679366 
L 80.133818 183.905975 
L 81.464727 185.862464 
L 83.061818 188.680739 
L 87.054545 196.035985 
L 88.385455 197.896055 
L 89.450182 198.993952 
L 90.514909 199.724476 
L 91.313455 200.043825 
L 92.112 200.184015 
L 92.378182 199.817499 
L 93.442909 196.829924 
L 93.709091 196.246285 
L 94.773818 190.70133 
L 95.572364 187.507283 
L 96.370909 185.047051 
L 97.169455 183.237617 
L 97.968 181.996336 
L 98.766545 181.240827 
L 99.565091 180.888655 
L 100.363636 180.85728 
L 101.162182 181.063752 
L 102.493091 181.709388 
L 104.090182 182.492855 
L 104.888727 182.685469 
L 105.687273 182.6271 
L 106.219636 182.404 
L 106.752 182.001699 
L 107.284364 181.39243 
L 108.082909 180.028667 
L 108.881455 178.033093 
L 109.413818 176.624934 
L 110.478545 175.151657 
L 111.543273 174.215539 
L 112.608 173.574345 
L 113.938909 173.045585 
L 115.536 172.648943 
L 117.931636 172.306218 
L 122.456727 171.939131 
L 126.981818 171.589529 
L 128.046545 171.047144 
L 128.845091 170.415524 
L 129.643636 169.501514 
L 130.442182 168.216546 
L 131.240727 166.466835 
L 132.039273 164.155382 
L 132.571636 162.248145 
L 134.701091 169.046524 
L 135.499636 170.605747 
L 136.830545 172.623112 
L 138.161455 174.716395 
L 138.96 176.382815 
L 139.758545 178.566846 
L 140.557091 181.429157 
L 141.355636 185.100533 
L 142.154182 189.677986 
L 143.218909 197.304123 
L 143.751273 202.408972 
L 144.017455 204.988745 
L 145.614545 194.55562 
L 146.413091 191.146746 
L 147.211636 188.648169 
L 148.010182 186.817082 
L 148.808727 185.479901 
L 149.607273 184.495834 
L 150.672 183.572896 
L 151.736727 182.946903 
L 153.067636 182.425875 
L 154.930909 181.974419 
L 157.858909 181.549174 
L 163.448727 180.788365 
L 166.376727 180.384615 
L 169.837091 180.352733 
L 173.031273 180.53827 
L 175.959273 180.935547 
L 177.024 181.228683 
L 178.088727 182.245437 
L 179.153455 183.56546 
L 180.750545 185.972094 
L 183.412364 190.556094 
L 186.074182 195.032136 
L 187.671273 197.350137 
L 189.002182 198.969125 
L 189.534545 199.477174 
L 190.333091 199.056584 
L 191.664 197.218664 
L 192.462545 196.485082 
L 193.261091 196.001352 
L 193.527273 195.893965 
L 194.325818 190.72513 
L 195.124364 186.696208 
L 195.922909 183.616266 
L 196.721455 181.307351 
L 197.52 179.645819 
L 198.318545 178.53654 
L 199.117091 177.910346 
L 199.649455 177.737978 
L 200.181818 177.751687 
L 200.714182 177.947379 
L 201.246545 178.326599 
L 202.045091 179.242693 
L 202.843636 180.592451 
L 203.642182 182.413668 
L 204.440727 184.757575 
L 205.239273 187.675568 
L 206.304 192.59379 
L 207.368727 198.855296 
L 207.901091 202.547564 
L 208.167273 201.699561 
L 209.498182 187.655005 
L 210.562909 178.619207 
L 211.361455 173.825064 
L 212.16 170.465272 
L 212.692364 168.903299 
L 213.224727 167.811209 
L 213.757091 167.138303 
L 214.289455 166.84011 
L 214.821818 166.877969 
L 215.354182 167.21841 
L 215.886545 167.832788 
L 216.685091 169.217348 
L 217.483636 171.099949 
L 218.548364 174.305304 
L 219.346909 176.604306 
L 220.411636 179.049349 
L 221.476364 181.02383 
L 222.807273 182.980234 
L 224.404364 184.865301 
L 226.267636 187.068541 
L 227.864727 189.460324 
L 228.929455 191.460912 
L 229.461818 192.399505 
L 229.994182 192.552684 
L 230.526545 192.406708 
L 231.058909 192.013208 
L 231.857455 191.062292 
L 232.922182 189.331748 
L 236.116364 183.655055 
L 236.914909 182.675727 
L 237.713455 182.074856 
L 238.245818 181.940146 
L 238.778182 182.051384 
L 239.310545 182.442821 
L 239.842909 183.160218 
L 240.375273 184.23916 
L 240.907636 185.719228 
L 241.706182 188.096645 
L 242.770909 190.248519 
L 243.303273 191.082041 
L 243.835636 191.502621 
L 245.432727 192.280069 
L 246.497455 192.596223 
L 247.562182 192.694926 
L 248.626909 192.536404 
L 249.425455 192.22226 
L 250.224 191.724271 
L 251.288727 190.748909 
L 252.353455 189.393154 
L 253.418182 187.633436 
L 254.482909 185.445777 
L 255.547636 182.818677 
L 256.878545 178.904018 
L 257.144727 179.334689 
L 258.741818 185.731953 
L 259.806545 189.247929 
L 261.137455 192.989681 
L 261.669818 193.857094 
L 262.202182 194.347478 
L 262.734545 194.492935 
L 263.266909 194.317384 
L 263.799273 193.844401 
L 264.331636 193.096973 
L 265.130182 191.511728 
L 265.928727 189.399426 
L 266.993455 185.821961 
L 268.058182 181.390399 
L 269.122909 176.036238 
L 270.187636 169.638679 
L 271.252364 162.63625 
L 271.518545 162.661848 
L 276.043636 177.542963 
L 276.842182 179.583356 
L 278.173091 181.409439 
L 278.971636 182.240454 
L 279.770182 182.742209 
L 280.302545 182.835655 
L 280.834909 182.690832 
L 281.367273 182.284808 
L 281.899636 181.562312 
L 282.432 180.508874 
L 283.230545 178.211722 
L 284.029091 174.964596 
L 284.827636 170.674652 
L 285.36 167.297681 
L 286.158545 168.381911 
L 286.957091 168.98403 
L 287.489455 169.151394 
L 288.288 169.100504 
L 289.086545 168.758941 
L 290.151273 167.983217 
L 292.014545 166.216846 
L 293.345455 164.977861 
L 296.539636 164.383221 
L 309.582545 162.402371 
L 310.114909 162.457673 
L 310.381091 162.59398 
L 310.913455 163.420267 
L 312.776727 166.589667 
L 313.841455 168.015131 
L 314.906182 169.066697 
L 315.704727 169.599857 
L 316.503273 169.924463 
L 317.301818 170.046152 
L 318.100364 169.980114 
L 318.898909 169.738746 
L 319.963636 169.152103 
L 321.028364 168.282574 
L 322.093091 167.11409 
L 323.157818 165.629632 
L 324.222545 163.781155 
L 325.553455 161.334103 
L 326.618182 167.23635 
L 328.481455 171.992697 
L 330.610909 177.410844 
L 331.941818 180.196105 
L 333.006545 181.855935 
L 333.805091 182.724005 
L 334.603636 183.255039 
L 335.402182 183.474532 
L 336.200727 183.441307 
L 338.596364 183.048007 
L 339.128727 183.273762 
L 339.661091 183.791236 
L 340.193455 184.71264 
L 340.725818 186.15596 
L 340.992 187.114661 
L 341.258182 187.488571 
L 342.056727 183.661741 
L 342.855273 180.995735 
L 343.387636 179.825454 
L 343.92 179.104492 
L 344.452364 178.700297 
L 345.250909 178.455418 
L 346.315636 178.442671 
L 347.912727 178.433712 
L 348.977455 178.205185 
L 350.042182 177.724079 
L 351.106909 176.972504 
L 352.171636 175.921891 
L 353.236364 174.546153 
L 354.301091 172.780882 
L 355.099636 171.144567 
L 355.898182 171.174302 
L 358.293818 171.533646 
L 361.488 172.04381 
L 362.552727 171.842141 
L 363.617455 171.339054 
L 364.682182 170.541571 
L 365.746909 169.474075 
L 367.077818 167.823681 
L 368.674909 165.493113 
L 370.804364 162.222779 
L 371.070545 162.095589 
L 371.869091 162.355257 
L 373.2 163.118266 
L 375.063273 164.573539 
L 376.394182 165.725987 
L 376.660364 166.177391 
L 377.725091 169.326809 
L 379.056 174.212926 
L 381.451636 183.360999 
L 382.250182 185.674853 
L 382.782545 186.793864 
L 383.314909 187.487608 
L 383.847273 187.685427 
L 384.113455 187.570201 
L 384.379636 187.321429 
L 384.912 186.336145 
L 385.444364 184.679002 
L 386.242909 181.384941 
L 387.041455 186.025682 
L 387.84 189.477523 
L 388.638545 191.93382 
L 389.437091 193.586658 
L 390.235636 194.618771 
L 391.034182 195.180587 
L 391.832727 195.420866 
L 392.897455 195.430925 
L 393.696 195.228992 
L 396.624 193.999632 
L 397.422545 194.0739 
L 397.954909 194.32464 
L 398.487273 194.75749 
L 399.285818 195.800614 
L 399.552 195.703667 
L 401.149091 192.062216 
L 404.077091 185.215368 
L 405.408 182.611233 
L 406.738909 180.503204 
L 407.803636 179.194605 
L 408.868364 178.205418 
L 409.933091 177.509706 
L 412.062545 176.646989 
L 413.659636 176.224685 
L 414.990545 176.086939 
L 416.321455 176.179972 
L 417.652364 176.522116 
L 418.983273 177.116502 
L 420.314182 177.928984 
L 422.177455 179.345542 
L 426.436364 182.606737 
L 426.436364 182.606737 
" clip-path="url(#pac2ceb5591)" style="fill: none; stroke-dasharray: 3,4.95; stroke-dashoffset: 0; stroke: #ff0000; stroke-width: 3"/>
   </g>
   <g id="line2d_3">
    <path d="M 27.163636 203.845966 
L 27.696 204.55708 
L 27.962182 204.635791 
L 28.228364 204.560116 
L 28.760727 204.01387 
L 29.293091 203.043988 
L 30.091636 200.968709 
L 31.156364 197.485609 
L 33.019636 190.411769 
L 37.278545 173.836785 
L 38.875636 168.541564 
L 39.940364 165.782378 
L 40.738909 164.382332 
L 41.271273 163.896931 
L 41.537455 163.823097 
L 41.803636 163.879773 
L 42.069818 164.08195 
L 42.602182 164.98938 
L 43.134545 166.689999 
L 43.933091 170.034347 
L 44.465455 170.760069 
L 44.997818 171.849482 
L 45.796364 174.283026 
L 46.594909 177.78981 
L 47.393455 182.571354 
L 47.925818 185.670749 
L 48.458182 186.890557 
L 49.522909 188.620095 
L 50.321455 189.562655 
L 51.12 190.188891 
L 51.918545 190.520362 
L 52.717091 190.622312 
L 54.048 190.502189 
L 55.378909 190.425139 
L 56.177455 190.612284 
L 56.976 191.107354 
L 57.774545 192.010521 
L 58.839273 193.722564 
L 60.170182 193.453302 
L 60.702545 193.219466 
L 61.501091 192.544327 
L 62.832 191.259507 
L 63.630545 190.804359 
L 64.162909 190.774444 
L 64.695273 191.063995 
L 65.227636 191.757962 
L 65.76 192.941889 
L 66.292364 194.701289 
L 66.824727 196.73999 
L 67.889455 190.380733 
L 70.018909 179.451544 
L 70.551273 177.78395 
L 71.083636 176.639478 
L 71.616 175.956068 
L 72.148364 175.637724 
L 72.680727 175.622757 
L 73.213091 175.846216 
L 74.011636 176.466444 
L 75.608727 178.222925 
L 76.939636 179.547042 
L 78.802909 180.702514 
L 79.867636 181.772083 
L 81.198545 183.470618 
L 83.061818 186.266203 
L 83.594182 188.733131 
L 84.658909 193.581898 
L 85.457455 196.140495 
L 85.989818 197.271469 
L 86.522182 197.922405 
L 87.054545 198.122825 
L 87.586909 197.88846 
L 88.119273 197.266497 
L 88.651636 196.293579 
L 89.450182 194.311079 
L 90.781091 190.226104 
L 92.644364 184.032424 
L 93.442909 181.061382 
L 93.709091 180.423024 
L 94.507636 176.657038 
L 95.306182 173.985299 
L 95.838545 172.804566 
L 96.370909 172.11793 
L 96.903273 171.926532 
L 97.968 168.632683 
L 98.766545 166.890916 
L 99.565091 165.777396 
L 100.097455 165.353823 
L 100.629818 165.166783 
L 101.162182 165.198168 
L 101.694545 165.432533 
L 102.493091 166.113341 
L 103.291636 167.106527 
L 104.622545 169.21208 
L 106.219636 171.745691 
L 107.284364 173.007473 
L 108.082909 173.52922 
L 108.615273 173.590297 
L 109.413818 173.415644 
L 110.212364 174.050555 
L 110.478545 175.077135 
L 111.543273 183.655267 
L 112.608 194.22782 
L 113.938909 209.86071 
L 114.205091 210.264375 
L 115.269818 203.310849 
L 116.600727 192.939552 
L 119.528727 167.580821 
L 121.392 152.237609 
L 122.722909 142.991585 
L 123.521455 138.599764 
L 124.32 135.40941 
L 124.852364 134.138299 
L 125.118545 133.806235 
L 125.384727 133.708855 
L 125.650909 133.859929 
L 125.917091 134.888043 
L 127.248 142.450099 
L 129.643636 150.819676 
L 130.708364 153.735236 
L 131.506909 155.274731 
L 132.039273 155.885016 
L 132.571636 156.103662 
L 134.168727 165.725733 
L 134.967273 168.889664 
L 135.499636 170.353315 
L 136.032 171.310292 
L 136.564364 171.754958 
L 136.830545 171.784661 
L 137.096727 171.690517 
L 137.629091 171.116726 
L 138.161455 170.024658 
L 138.427636 169.292145 
L 138.693818 169.369247 
L 139.226182 170.942951 
L 139.758545 173.270293 
L 140.557091 178.090764 
L 141.355636 184.363715 
L 142.420364 194.568631 
L 144.017455 212.513842 
L 144.549818 210.070333 
L 145.348364 206.647433 
L 148.010182 196.56283 
L 148.808727 191.898384 
L 149.607273 185.607091 
L 150.405818 177.20889 
L 151.204364 180.469376 
L 152.269091 184.225144 
L 153.067636 186.185451 
L 153.6 187.030958 
L 154.132364 187.477189 
L 154.664727 187.504523 
L 155.197091 187.092024 
L 155.729455 186.216466 
L 156.261818 184.849212 
L 156.794182 182.982403 
L 157.592727 179.190237 
L 158.391273 174.143292 
L 159.189818 167.789006 
L 160.786909 153.350262 
L 161.851636 149.066168 
L 162.650182 146.557732 
L 163.448727 144.752117 
L 163.981091 143.956189 
L 164.513455 143.516399 
L 165.045818 143.470258 
L 165.312 143.609105 
L 165.844364 144.248648 
L 166.376727 145.330012 
L 166.909091 146.866672 
L 167.707636 150.025038 
L 168.506182 154.220934 
L 169.304727 159.427659 
L 170.369455 167.899398 
L 171.168 175.307777 
L 171.434182 176.349568 
L 172.232727 168.92785 
L 173.031273 163.134831 
L 173.829818 158.811979 
L 174.628364 155.820448 
L 175.160727 154.46355 
L 175.693091 153.561969 
L 176.225455 153.065926 
L 176.757818 152.922616 
L 177.024 153.030744 
L 177.556364 153.601594 
L 178.088727 154.470912 
L 178.887273 156.340884 
L 179.685818 158.817691 
L 180.750545 163.023974 
L 181.815273 168.165878 
L 183.146182 175.641236 
L 184.743273 185.971353 
L 186.606545 199.529186 
L 190.066909 226.632624 
L 190.333091 226.716422 
L 190.599273 225.725299 
L 191.664 218.602314 
L 192.728727 212.843356 
L 193.527273 209.288823 
L 194.592 197.896616 
L 195.656727 189.084869 
L 196.721455 182.481854 
L 197.52 178.777918 
L 198.318545 175.9971 
L 199.117091 174.013542 
L 199.915636 172.70983 
L 200.448 172.167287 
L 200.980364 171.853248 
L 201.512727 171.739979 
L 202.045091 171.801057 
L 202.843636 172.178859 
L 203.642182 172.861211 
L 204.440727 173.826249 
L 205.505455 175.549547 
L 206.570182 177.855372 
L 207.368727 180.053853 
L 207.901091 181.801437 
L 208.167273 180.202685 
L 208.965818 169.740005 
L 210.030545 167.508859 
L 210.296727 167.382326 
L 210.829091 168.177016 
L 211.893818 170.365194 
L 214.023273 174.891788 
L 215.088 176.609839 
L 216.152727 177.940303 
L 218.548364 180.302213 
L 219.080727 180.691598 
L 219.879273 180.832877 
L 220.677818 180.736173 
L 223.605818 180.168539 
L 224.670545 180.346503 
L 225.469091 180.723565 
L 226.267636 181.348426 
L 228.130909 183.339462 
L 228.663273 184.384765 
L 229.461818 186.276189 
L 229.994182 186.712297 
L 230.526545 186.818013 
L 231.058909 186.643117 
L 231.591273 186.240456 
L 232.389818 185.33144 
L 234.785455 182.267693 
L 235.317818 181.924671 
L 235.850182 181.844215 
L 236.382545 182.097779 
L 236.914909 182.743828 
L 237.447273 183.844909 
L 237.979636 185.454303 
L 238.512 187.638588 
L 239.310545 192.152774 
L 240.109091 198.210919 
L 240.907636 205.918019 
L 241.972364 216.698736 
L 242.770909 215.100755 
L 243.303273 213.808446 
L 243.835636 211.84211 
L 246.763636 199.964321 
L 247.828364 196.503858 
L 248.626909 194.451089 
L 249.425455 192.919908 
L 250.224 191.940749 
L 250.756364 191.594744 
L 251.288727 191.48541 
L 251.821091 191.593834 
L 252.353455 191.877197 
L 253.152 192.592394 
L 254.216727 193.948467 
L 256.08 196.524538 
L 256.878545 197.289346 
L 257.144727 198.640511 
L 258.475636 207.761525 
L 259.540364 213.542548 
L 260.338909 216.634634 
L 262.734545 224.615047 
L 263.533091 227.742876 
L 263.799273 227.748218 
L 264.065455 227.214676 
L 264.331636 225.448929 
L 265.928727 209.315374 
L 269.921455 167.294994 
L 270.986182 157.679461 
L 271.252364 155.989209 
L 271.518545 155.704577 
L 272.050909 157.057371 
L 272.849455 159.980294 
L 273.648 163.856491 
L 274.712727 170.161261 
L 276.842182 183.337801 
L 277.906909 186.887616 
L 278.705455 188.786846 
L 279.237818 189.638731 
L 279.770182 190.148864 
L 280.302545 190.275842 
L 280.568727 189.584466 
L 282.698182 177.905512 
L 284.029091 169.198752 
L 285.36 158.636068 
L 286.158545 157.642248 
L 287.223273 155.839594 
L 288.288 153.568993 
L 289.885091 149.552034 
L 294.410182 137.622911 
L 295.208727 136.241387 
L 296.007273 135.273652 
L 296.805818 134.683402 
L 297.604364 134.43757 
L 298.402909 134.497251 
L 299.201455 134.82466 
L 300 135.385038 
L 300.266182 135.619128 
L 300.532364 136.432256 
L 301.330909 145.822331 
L 302.395636 156.683504 
L 303.194182 162.936558 
L 303.992727 167.690525 
L 304.791273 171.088525 
L 305.323636 172.669327 
L 305.856 173.7364 
L 306.388364 174.338138 
L 306.920727 174.522004 
L 307.453091 174.315733 
L 307.985455 173.782435 
L 308.784 172.455811 
L 309.848727 169.980484 
L 310.381091 168.958897 
L 310.913455 168.593544 
L 314.906182 166.823048 
L 315.172364 167.223064 
L 316.237091 172.592764 
L 317.301818 176.774104 
L 318.366545 179.946233 
L 319.431273 182.252947 
L 320.229818 183.484983 
L 321.028364 184.32501 
L 321.826909 184.7745 
L 322.359273 184.869511 
L 322.891636 184.802129 
L 323.424 184.561026 
L 324.222545 183.882852 
L 325.021091 182.785589 
L 325.287273 182.32585 
L 325.553455 182.271966 
L 326.618182 187.724206 
L 330.078545 195.447723 
L 331.675636 199.728179 
L 333.272727 204.388605 
L 333.805091 204.655899 
L 334.337455 204.455236 
L 334.869818 203.847786 
L 335.402182 202.904359 
L 336.466909 200.339944 
L 339.128727 193.264358 
L 339.661091 192.414303 
L 340.193455 191.998187 
L 340.459636 191.986192 
L 340.725818 192.132231 
L 340.992 192.446894 
L 341.258182 192.259749 
L 342.056727 187.389159 
L 342.855273 183.780679 
L 343.653818 181.348447 
L 344.452364 179.825496 
L 345.250909 178.881085 
L 346.049455 178.321014 
L 346.848 178.044517 
L 347.646545 177.993753 
L 348.445091 178.176307 
L 348.977455 178.442999 
L 349.776 179.123754 
L 350.574545 180.214204 
L 351.373091 181.855427 
L 352.171636 184.162258 
L 352.970182 187.295989 
L 353.768727 191.504768 
L 354.567273 196.974768 
L 354.833455 199.13063 
L 355.099636 200.094726 
L 357.229091 191.398184 
L 359.358545 183.498893 
L 359.890909 181.714264 
L 361.754182 178.574525 
L 364.416 173.523328 
L 366.279273 170.168803 
L 367.344 168.585548 
L 368.408727 167.413044 
L 369.207273 166.881809 
L 369.739636 166.720854 
L 370.272 166.742825 
L 370.538182 167.534945 
L 371.602909 173.833379 
L 372.135273 175.927698 
L 372.667636 177.181461 
L 372.933818 177.497583 
L 373.2 177.604907 
L 373.466182 177.5129 
L 373.732364 177.220377 
L 374.264727 176.057458 
L 374.797091 174.158249 
L 375.595636 170.0602 
L 376.660364 163.798746 
L 379.322182 167.172184 
L 380.120727 167.80299 
L 380.653091 167.987681 
L 381.185455 167.919612 
L 381.717818 167.542169 
L 382.250182 166.801448 
L 382.782545 165.644494 
L 383.314909 164.020831 
L 384.113455 160.608053 
L 384.912 155.935579 
L 385.710545 149.904556 
L 386.242909 145.597359 
L 386.775273 146.249913 
L 387.307636 146.48064 
L 387.84 146.363605 
L 388.372364 146.012946 
L 388.638545 148.191624 
L 389.703273 161.0445 
L 390.768 171.311297 
L 391.832727 179.407857 
L 392.897455 185.75094 
L 393.163636 187.095452 
L 394.494545 188.596919 
L 395.559273 190.239242 
L 396.357818 191.830675 
L 397.156364 193.787851 
L 398.221091 197.055361 
L 399.552 201.750959 
L 400.616727 202.469182 
L 401.681455 202.904888 
L 403.012364 203.20087 
L 405.674182 203.752055 
L 406.472727 204.168658 
L 407.271273 204.845414 
L 408.069818 205.885714 
L 408.868364 207.413742 
L 409.666909 209.592992 
L 410.199273 211.978047 
L 410.465455 213.42764 
L 410.731636 212.95014 
L 412.328727 203.633328 
L 416.587636 178.000184 
L 417.918545 171.415955 
L 418.983273 167.056282 
L 420.048 163.56271 
L 421.112727 160.923826 
L 421.911273 159.486747 
L 422.709818 158.463372 
L 423.508364 157.811199 
L 424.306909 157.485313 
L 425.105455 157.437014 
L 425.904 157.630591 
L 426.436364 157.884229 
L 426.436364 157.884229 
" clip-path="url(#pac2ceb5591)" style="fill: none; stroke: #ff0000; stroke-width: 3; stroke-linecap: square"/>
   </g>
   <g id="patch_3">
    <path d="M 7.2 331.2 
L 7.2 7.2 
" style="fill: none; stroke: #000000; stroke-width: 0.8; stroke-linejoin: miter; stroke-linecap: square"/>
   </g>
   <g id="patch_4">
    <path d="M 446.4 331.2 
L 446.4 7.2 
" style="fill: none; stroke: #000000; stroke-width: 0.8; stroke-linejoin: miter; stroke-linecap: square"/>
   </g>
   <g id="patch_5">
    <path d="M 7.2 331.2 
L 446.4 331.2 
" style="fill: none; stroke: #000000; stroke-width: 0.8; stroke-linejoin: miter; stroke-linecap: square"/>
   </g>
   <g id="patch_6">
    <path d="M 7.2 7.2 
L 446.4 7.2 
" style="fill: none; stroke: #000000; stroke-width: 0.8; stroke-linejoin: miter; stroke-linecap: square"/>
   </g>
  </g>
 </g>
 <defs>
  <clipPath id="pac2ceb5591">
   <rect x="7.2" y="7.2" width="439.2" height="324"/>
  </clipPath>
 </defs>
</svg>
