<?xml version="1.0" encoding="utf-8" standalone="no"?>
<!DOCTYPE svg PUBLIC "-//W3C//DTD SVG 1.1//EN"
  "http://www.w3.org/Graphics/SVG/1.1/DTD/svg11.dtd">
<svg xmlns:xlink="http://www.w3.org/1999/xlink" width="453.6pt" height="338.4pt" viewBox="0 0 453.6 338.4" xmlns="http://www.w3.org/2000/svg" version="1.1">
 <metadata>
  <rdf:RDF xmlns:dc="http://purl.org/dc/elements/1.1/" xmlns:cc="http://creativecommons.org/ns#" xmlns:rdf="http://www.w3.org/1999/02/22-rdf-syntax-ns#">
   <cc:Work>
    <dc:type rdf:resource="http://purl.org/dc/dcmitype/StillImage"/>
    <dc:date>2025-05-14T00:22:53.887335</dc:date>
    <dc:format>image/svg+xml</dc:format>
    <dc:creator>
     <cc:Agent>
      <dc:title>Matplotlib v3.10.1, https://matplotlib.org/</dc:title>
     </cc:Agent>
    </dc:creator>
   </cc:Work>
  </rdf:RDF>
 </metadata>
 <defs>
  <style type="text/css">*{stroke-linejoin: round; stroke-linecap: butt}</style>
 </defs>
 <g id="figure_1">
  <g id="patch_1">
   <path d="M 0 338.4 
L 453.6 338.4 
L 453.6 0 
L 0 0 
z
" style="fill: #ffffff"/>
  </g>
  <g id="axes_1">
   <g id="patch_2">
    <path d="M 7.2 331.2 
L 446.4 331.2 
L 446.4 7.2 
L 7.2 7.2 
z
" style="fill: #ffffff"/>
   </g>
   <g id="matplotlib.axis_1"/>
   <g id="matplotlib.axis_2"/>
   <g id="line2d_1">
    <path d="M 27.163636 109.106233 
L 32.753455 107.913986 
L 38.609455 106.432182 
L 44.465455 104.712132 
L 50.321455 102.753924 
L 56.177455 100.557428 
L 62.033455 98.122773 
L 67.889455 95.449874 
L 73.745455 92.538772 
L 79.867636 89.240648 
L 85.989818 85.682164 
L 92.112 81.86334 
L 93.176727 81.17262 
L 95.572364 112.813836 
L 97.169455 130.604873 
L 98.500364 143.352166 
L 99.831273 154.209796 
L 101.162182 163.177826 
L 102.226909 168.991733 
L 103.291636 173.596278 
L 104.090182 176.256041 
L 104.888727 178.235565 
L 105.687273 179.53481 
L 106.219636 180.023051 
L 106.752 180.208959 
L 107.284364 180.092513 
L 107.816727 179.673735 
L 108.349091 178.952624 
L 109.147636 177.304063 
L 109.946182 174.975265 
L 110.744727 171.966176 
L 111.809455 166.89588 
L 112.874182 160.616233 
L 113.938909 153.127213 
L 115.269818 142.065334 
L 116.600727 129.113813 
L 118.197818 111.077664 
L 119.794909 90.320523 
L 121.392 66.842219 
L 123.255273 36.011943 
L 123.521455 31.305167 
L 123.787636 29.360138 
L 125.917091 27.28798 
L 128.046545 25.553727 
L 129.909818 24.313345 
L 131.773091 23.331681 
L 133.636364 22.60863 
L 135.499636 22.144254 
L 137.362909 21.938533 
L 139.226182 21.99151 
L 141.089455 22.303141 
L 142.952727 22.873427 
L 144.816 23.702367 
L 146.679273 24.790005 
L 148.542545 26.136254 
L 150.405818 27.741222 
L 152.535273 29.892163 
L 154.132364 31.727101 
L 154.398545 34.015666 
L 156.528 62.230604 
L 158.657455 87.28694 
L 160.520727 106.620116 
L 162.384 123.535101 
L 163.981091 136.108813 
L 165.578182 146.905831 
L 166.909091 154.546124 
L 168.24 160.952603 
L 169.304727 165.189416 
L 170.369455 168.636574 
L 171.434182 171.294128 
L 172.232727 172.769012 
L 173.031273 173.799771 
L 173.829818 174.38635 
L 174.362182 174.530638 
L 174.894545 174.477502 
L 175.426909 174.226952 
L 175.959273 173.779019 
L 176.757818 172.736915 
L 177.556364 171.250653 
L 178.354909 169.320202 
L 179.419636 166.055359 
L 180.484364 162.000807 
L 181.549091 157.156684 
L 182.88 149.991025 
L 184.210909 141.591532 
L 185.808 129.883485 
L 187.405091 116.398681 
L 189.002182 101.137183 
L 190.865455 81.086587 
L 192.728727 58.617693 
L 194.325818 37.433797 
L 194.592 39.021277 
L 197.253818 75.073741 
L 199.915636 108.228304 
L 202.577455 138.484882 
L 204.973091 163.238182 
L 207.368727 185.644033 
L 209.498182 203.589766 
L 211.627636 219.680876 
L 213.490909 232.239179 
L 215.354182 243.377451 
L 217.217455 253.095736 
L 218.814545 260.295523 
L 220.411636 266.452055 
L 221.742545 270.785533 
L 223.073455 274.394542 
L 224.138182 276.760134 
L 225.202909 278.662034 
L 226.267636 280.100278 
L 227.066182 280.874674 
L 227.864727 281.388256 
L 228.663273 281.641009 
L 229.461818 281.632963 
L 230.260364 281.364109 
L 231.058909 280.834414 
L 231.857455 280.04391 
L 232.922182 278.584243 
L 233.986909 276.660846 
L 235.051636 274.273814 
L 236.382545 270.637907 
L 237.979636 265.724658 
L 239.842909 267.395271 
L 241.44 268.561344 
L 243.037091 269.482023 
L 244.634182 270.157265 
L 246.231273 270.58709 
L 247.828364 270.771489 
L 249.425455 270.710483 
L 251.022545 270.40404 
L 252.619636 269.852197 
L 254.216727 269.054911 
L 255.813818 268.012242 
L 257.410909 266.724103 
L 259.274182 264.911137 
L 261.137455 262.764136 
L 263.000727 260.283074 
L 265.130182 257.038518 
L 267.259636 253.357654 
L 269.389091 249.240549 
L 271.784727 244.087269 
L 274.180364 238.38181 
L 276.576 232.124077 
L 279.237818 224.523473 
L 281.899636 216.241161 
L 284.827636 206.343186 
L 287.755636 195.620354 
L 290.683636 184.072729 
L 293.877818 170.534426 
L 297.072 156.014449 
L 300.532364 139.176732 
L 303.992727 121.186842 
L 307.453091 102.044821 
L 311.179636 80.142011 
L 313.575273 65.356043 
L 313.841455 65.163289 
L 315.172364 67.13376 
L 316.769455 69.934089 
L 318.366545 73.209926 
L 319.963636 76.961186 
L 321.826909 81.93856 
L 323.690182 87.563019 
L 325.819636 94.783446 
L 327.949091 102.849021 
L 330.078545 111.759853 
L 332.474182 122.794945 
L 334.869818 134.899653 
L 337.531636 149.604046 
L 340.193455 165.629202 
L 342.855273 182.974908 
L 345.783273 203.580446 
L 348.711273 225.784127 
L 351.905455 251.828898 
L 355.099636 279.775456 
L 358.293818 309.623541 
L 359.092364 316.472727 
L 367.344 298.446234 
L 375.861818 279.289945 
L 384.379636 259.576668 
L 392.897455 239.306403 
L 401.681455 217.819311 
L 410.465455 195.739934 
L 419.249455 173.068167 
L 426.436364 154.077931 
L 426.436364 154.077931 
" clip-path="url(#p46d6cf5804)" style="fill: none; stroke-dasharray: 11.1,4.8; stroke-dashoffset: 0; stroke: #000000; stroke-width: 3"/>
   </g>
   <g id="line2d_2">
    <path d="M 27.163636 168.441602 
L 27.696 168.624236 
L 28.228364 168.564328 
L 28.760727 168.302101 
L 29.559273 167.602723 
L 30.624 166.271018 
L 32.221091 163.831991 
L 34.882909 159.790235 
L 36.213818 158.133336 
L 37.544727 156.815217 
L 38.343273 156.191336 
L 38.609455 156.331497 
L 40.472727 159.395471 
L 41.537455 160.503306 
L 42.602182 161.261696 
L 43.666909 161.760963 
L 44.199273 162.68709 
L 44.731636 163.478111 
L 45.264 163.93193 
L 46.062545 164.211336 
L 47.393455 164.471462 
L 47.925818 164.786911 
L 48.458182 165.354125 
L 48.990545 166.252784 
L 49.522909 167.545204 
L 50.055273 168.823559 
L 50.587636 166.715613 
L 51.12 165.429175 
L 51.652364 164.80329 
L 52.184727 164.699171 
L 52.717091 164.971838 
L 53.515636 165.846226 
L 56.443636 169.695142 
L 57.242182 170.266281 
L 58.040727 170.564263 
L 58.839273 170.632243 
L 60.170182 170.451123 
L 60.436364 170.403169 
L 60.702545 170.021916 
L 61.234909 168.658242 
L 62.299636 164.747178 
L 62.832 163.740647 
L 63.364364 163.29039 
L 63.896727 163.266696 
L 64.429091 163.554803 
L 65.227636 164.338722 
L 66.824727 166.04766 
L 67.357091 166.373175 
L 67.889455 166.467377 
L 68.421818 166.269717 
L 68.954182 165.732851 
L 69.486545 164.810733 
L 70.018909 163.455675 
L 70.817455 160.740441 
L 72.946909 159.862534 
L 74.544 159.424327 
L 76.141091 159.227265 
L 78.802909 159.270346 
L 82.795636 159.502235 
L 85.723636 159.89862 
L 88.385455 160.489912 
L 91.047273 161.331265 
L 91.845818 161.744349 
L 93.442909 163.003094 
L 93.975273 163.241658 
L 97.169455 163.953811 
L 99.831273 164.383658 
L 101.694545 164.507505 
L 103.291636 164.397884 
L 104.888727 164.053494 
L 107.284364 163.472716 
L 108.082909 163.562609 
L 108.615273 163.834401 
L 109.147636 164.366853 
L 109.68 165.257833 
L 111.277091 168.669918 
L 112.075636 170.547468 
L 112.874182 173.005135 
L 113.140364 173.976231 
L 113.406545 174.351907 
L 114.471273 169.699376 
L 115.536 166.060733 
L 116.334545 164.066653 
L 117.133091 162.730427 
L 117.665455 162.207018 
L 118.197818 161.958003 
L 118.730182 161.97144 
L 119.262545 162.22907 
L 119.794909 162.708972 
L 120.593455 163.773491 
L 121.658182 165.646562 
L 124.053818 170.050409 
L 124.852364 170.980087 
L 125.118545 171.168544 
L 125.384727 171.519481 
L 125.917091 172.508268 
L 126.449455 173.02466 
L 126.981818 173.111525 
L 127.514182 172.915678 
L 128.312727 172.283608 
L 129.377455 171.016557 
L 130.708364 169.028075 
L 133.370182 164.531754 
L 138.96 155.03093 
L 140.557091 152.770944 
L 141.621818 151.672728 
L 141.888 151.858572 
L 143.485091 158.082321 
L 143.751273 158.693555 
L 145.082182 160.440839 
L 147.211636 163.32654 
L 148.276364 164.431047 
L 149.074909 165.002122 
L 149.873455 165.313113 
L 150.672 165.346661 
L 151.470545 165.100696 
L 152.269091 164.582875 
L 153.067636 163.822053 
L 154.132364 162.494848 
L 155.729455 160.0677 
L 158.391273 155.985274 
L 159.456 154.751802 
L 160.254545 154.097104 
L 160.520727 153.444751 
L 160.786909 153.087587 
L 161.053091 153.655377 
L 162.117818 157.900082 
L 162.916364 160.342244 
L 163.714909 162.154916 
L 164.513455 163.368874 
L 165.045818 163.868738 
L 165.578182 164.150724 
L 166.110545 164.238251 
L 166.642909 164.156568 
L 167.441455 163.774302 
L 168.506182 162.919449 
L 173.031273 158.73188 
L 174.096 158.152679 
L 175.160727 157.771671 
L 176.491636 157.535709 
L 177.024 157.413313 
L 177.822545 156.950409 
L 178.354909 156.804425 
L 178.887273 156.852539 
L 179.419636 157.176092 
L 179.952 157.75429 
L 180.750545 156.451931 
L 181.282909 155.913252 
L 181.815273 155.653617 
L 182.347636 155.676501 
L 182.88 155.985828 
L 183.412364 156.564432 
L 184.210909 157.905499 
L 185.009455 159.731799 
L 186.340364 163.507607 
L 188.203636 168.972475 
L 189.002182 170.769994 
L 189.534545 168.781512 
L 190.333091 165.925413 
L 191.131636 163.860889 
L 191.930182 162.47382 
L 192.728727 161.63106 
L 193.527273 161.200253 
L 199.649455 161.010442 
L 203.642182 160.893399 
L 204.706909 160.779598 
L 204.973091 161.085215 
L 206.304 163.29199 
L 207.634909 165.034838 
L 208.965818 166.33854 
L 212.692364 169.225051 
L 213.757091 169.663653 
L 215.088 169.960792 
L 216.418909 170.023995 
L 217.749818 169.875015 
L 219.080727 169.498805 
L 220.145455 169.003229 
L 221.210182 168.284944 
L 222.274909 167.288511 
L 223.339636 165.927098 
L 224.404364 164.094677 
L 225.469091 161.646159 
L 226.267636 159.302507 
L 226.8 157.448289 
L 227.864727 151.562936 
L 231.591273 162.374436 
L 232.389818 163.873003 
L 233.188364 164.815382 
L 233.720727 165.10044 
L 234.253091 165.089499 
L 234.785455 164.771427 
L 235.317818 164.140743 
L 235.850182 163.191198 
L 236.648727 161.181165 
L 237.447273 158.496024 
L 238.512 153.968267 
L 239.044364 151.346467 
L 239.310545 151.510643 
L 240.109091 154.821307 
L 240.907636 157.246066 
L 241.706182 158.971895 
L 242.504727 160.149276 
L 243.303273 160.917307 
L 244.368 161.42937 
L 245.432727 161.742771 
L 246.231273 161.784252 
L 247.029818 161.605105 
L 247.828364 161.171696 
L 248.626909 160.484901 
L 249.691636 159.206023 
L 251.022545 157.167476 
L 253.950545 152.438263 
L 255.015273 151.182078 
L 255.813818 150.539088 
L 256.612364 150.184056 
L 257.410909 150.127177 
L 257.943273 150.479778 
L 263.000727 155.934878 
L 265.662545 159.481611 
L 269.921455 165.183743 
L 271.784727 167.311822 
L 273.381818 168.824017 
L 274.712727 169.819927 
L 276.043636 170.546455 
L 276.842182 170.946679 
L 278.173091 172.590921 
L 279.770182 174.924059 
L 282.432 179.073815 
L 282.698182 178.978387 
L 284.029091 177.489843 
L 285.36 176.344665 
L 286.424727 175.734892 
L 287.489455 175.435962 
L 288.288 175.428028 
L 289.086545 175.611195 
L 289.885091 175.986466 
L 290.949818 176.775994 
L 292.014545 177.873634 
L 292.280727 178.192005 
L 292.546909 177.620098 
L 293.345455 174.153981 
L 294.676364 172.0768 
L 296.007273 170.43709 
L 297.338182 169.120186 
L 298.935273 167.838717 
L 301.064727 166.454602 
L 304.258909 164.699875 
L 307.719273 162.741986 
L 309.582545 161.452253 
L 310.114909 161.09703 
L 315.438545 159.342196 
L 317.035636 158.576576 
L 319.431273 157.347732 
L 320.496 157.013324 
L 321.560727 156.918653 
L 322.359273 157.056234 
L 323.157818 157.401967 
L 323.956364 157.983428 
L 324.754909 158.799892 
L 325.819636 160.199672 
L 327.416727 162.404763 
L 328.215273 163.082686 
L 328.747636 163.30227 
L 329.28 163.330827 
L 329.812364 163.150272 
L 330.344727 162.770629 
L 331.143273 161.831342 
L 331.941818 160.462443 
L 332.740364 158.688735 
L 333.805091 155.730394 
L 335.136 151.627856 
L 335.402182 151.451865 
L 336.999273 151.365277 
L 338.596364 151.509022 
L 340.193455 151.866421 
L 341.790545 152.451998 
L 343.121455 153.14389 
L 343.92 153.821494 
L 344.984727 155.010371 
L 346.049455 156.503116 
L 347.380364 158.809212 
L 348.711273 161.60278 
L 350.308364 165.527685 
L 352.437818 171.483726 
L 353.502545 174.453541 
L 354.301091 174.627495 
L 355.099636 174.568003 
L 356.164364 174.246402 
L 358.027636 173.391933 
L 359.624727 172.746875 
L 363.085091 171.690428 
L 364.416 170.891815 
L 365.746909 169.7806 
L 367.077818 168.305695 
L 368.408727 166.427047 
L 369.739636 164.147696 
L 371.602909 160.44199 
L 373.732364 156.250497 
L 374.530909 155.063475 
L 375.063273 154.514986 
L 375.595636 154.241104 
L 376.926545 154.099748 
L 381.717818 154.124509 
L 384.113455 154.347803 
L 385.710545 154.713114 
L 387.041455 155.263502 
L 388.106182 155.958359 
L 389.170909 156.98161 
L 389.969455 158.043741 
L 390.768 159.436035 
L 391.566545 161.254488 
L 392.365091 163.60665 
L 393.163636 166.634058 
L 394.760727 167.089018 
L 396.091636 167.701638 
L 397.156364 168.425105 
L 398.221091 169.430719 
L 399.285818 170.812691 
L 400.350545 172.682446 
L 401.149091 174.494617 
L 401.947636 176.749911 
L 402.213818 177.619682 
L 402.48 177.973413 
L 407.005091 175.970834 
L 408.069818 175.196907 
L 408.868364 174.307717 
L 409.666909 172.959996 
L 410.465455 170.873996 
L 411.530182 167.237934 
L 412.594909 162.780823 
L 413.127273 160.854563 
L 414.192 163.685346 
L 414.990545 165.029783 
L 415.789091 165.821167 
L 416.587636 166.200127 
L 417.386182 166.258478 
L 418.184727 166.067451 
L 418.983273 165.668614 
L 420.048 164.855179 
L 421.112727 163.737043 
L 422.177455 162.309815 
L 423.242182 160.54933 
L 424.573091 157.836847 
L 425.904 154.550538 
L 426.436364 153.096608 
L 426.436364 153.096608 
" clip-path="url(#p46d6cf5804)" style="fill: none; stroke-dasharray: 3,4.95; stroke-dashoffset: 0; stroke: #ff0000; stroke-width: 3"/>
   </g>
   <g id="line2d_3">
    <path d="M 27.163636 96.778102 
L 27.962182 114.584025 
L 28.760727 128.319913 
L 29.559273 138.558972 
L 30.357818 145.657643 
L 30.890182 148.797499 
L 31.422545 150.753233 
L 31.688727 151.293512 
L 31.954909 151.574922 
L 32.221091 151.614249 
L 32.487273 151.422818 
L 32.753455 151.010075 
L 33.285818 149.538913 
L 33.818182 147.414439 
L 34.882909 141.753511 
L 36.48 133.046225 
L 37.012364 131.118685 
L 37.278545 130.509413 
L 37.544727 130.198891 
L 37.810909 130.197953 
L 38.077091 130.342849 
L 38.343273 128.840698 
L 39.940364 115.975701 
L 40.206545 114.272458 
L 40.472727 114.287899 
L 41.537455 132.203038 
L 42.069818 138.082611 
L 42.602182 141.941722 
L 43.134545 144.09535 
L 43.400727 144.632835 
L 43.666909 144.889378 
L 43.933091 144.925506 
L 44.465455 144.695153 
L 45.264 143.922068 
L 46.328727 142.828949 
L 46.861091 142.554768 
L 47.393455 142.667802 
L 47.659636 142.892845 
L 48.192 143.813321 
L 48.724364 145.434541 
L 49.256727 147.901698 
L 49.789091 151.349325 
L 50.055273 153.444453 
L 50.321455 154.621493 
L 51.12 152.943011 
L 51.918545 151.856568 
L 52.717091 151.250836 
L 53.515636 150.993973 
L 54.580364 150.969959 
L 56.443636 151.002632 
L 57.242182 150.785096 
L 58.040727 150.328825 
L 58.839273 149.599652 
L 59.637818 148.581754 
L 62.299636 144.700314 
L 63.098182 144.005265 
L 63.896727 143.578468 
L 64.961455 143.335595 
L 66.026182 143.297206 
L 66.292364 143.371147 
L 66.824727 144.778968 
L 68.421818 152.650148 
L 70.018909 161.772927 
L 71.349818 170.493148 
L 73.745455 186.145123 
L 75.076364 193.58862 
L 75.874909 197.242341 
L 76.673455 199.908618 
L 77.205818 200.89813 
L 78.536727 202.064635 
L 79.601455 202.678705 
L 80.4 202.875906 
L 81.198545 202.751026 
L 81.730909 202.437443 
L 82.263273 201.936833 
L 83.061818 200.710825 
L 83.860364 198.843182 
L 84.658909 196.23726 
L 85.457455 192.794123 
L 87.054545 184.945955 
L 87.853091 182.559318 
L 88.385455 181.583339 
L 88.917818 181.049234 
L 89.450182 180.945457 
L 89.982545 181.199515 
L 90.514909 181.756845 
L 91.313455 183.051579 
L 92.378182 185.29717 
L 94.241455 189.691558 
L 95.04 191.472954 
L 95.572364 192.227068 
L 95.838545 192.429004 
L 96.104727 192.485926 
L 96.370909 192.384228 
L 96.637091 192.104662 
L 97.169455 190.932377 
L 97.701818 188.804938 
L 98.500364 183.982591 
L 100.363636 172.77541 
L 101.162182 169.424886 
L 101.960727 166.939195 
L 102.759273 165.154269 
L 103.557818 163.949354 
L 104.356364 163.232424 
L 105.154909 162.913029 
L 105.953455 162.888717 
L 107.816727 163.031053 
L 108.349091 162.739043 
L 108.881455 162.068478 
L 109.413818 160.804444 
L 109.946182 158.699975 
L 110.478545 156.232369 
L 111.010909 155.32486 
L 111.543273 153.973748 
L 112.075636 152.093639 
L 112.608 153.183068 
L 113.140364 154.138649 
L 113.406545 154.371114 
L 113.672727 154.349659 
L 113.938909 154.09672 
L 114.205091 153.623579 
L 114.737455 151.872392 
L 115.269818 148.805816 
L 115.802182 144.268462 
L 116.334545 138.057808 
L 117.133091 125.185751 
L 117.399273 126.087801 
L 118.730182 139.261827 
L 120.061091 150.224535 
L 121.392 159.432197 
L 124.852364 182.024926 
L 125.384727 186.154262 
L 125.650909 185.377637 
L 127.514182 165.843539 
L 128.312727 153.054402 
L 129.377455 131.438079 
L 130.176 112.491222 
L 130.442182 114.549369 
L 131.240727 135.590586 
L 132.039273 151.424737 
L 132.837818 163.116362 
L 133.636364 171.4494 
L 134.434909 177.037933 
L 134.967273 179.448766 
L 135.499636 180.916953 
L 135.765818 181.31465 
L 136.032 181.502189 
L 136.298182 181.476394 
L 136.564364 181.240389 
L 137.096727 180.141245 
L 137.629091 178.195886 
L 138.161455 175.36972 
L 138.693818 171.596418 
L 139.492364 163.921757 
L 140.290909 153.513979 
L 141.089455 139.748553 
L 141.888 121.855424 
L 142.686545 99.030091 
L 143.751273 64.918966 
L 144.283636 62.799653 
L 145.082182 58.412526 
L 145.348364 58.82753 
L 147.477818 76.646057 
L 150.672 103.167776 
L 152.801455 122.719874 
L 154.664727 142.066677 
L 155.995636 157.988632 
L 157.060364 172.722754 
L 157.326545 173.837498 
L 158.125091 171.52477 
L 158.657455 170.555028 
L 159.189818 170.149142 
L 159.456 170.199975 
L 159.722182 170.41941 
L 160.254545 171.499071 
L 160.786909 172.709936 
L 161.319273 174.862903 
L 161.851636 177.840471 
L 162.916364 184.638035 
L 164.513455 174.805096 
L 165.312 171.612254 
L 165.844364 170.209701 
L 166.376727 169.405265 
L 166.642909 169.226736 
L 166.909091 169.208054 
L 167.175273 169.331068 
L 167.707636 170.036994 
L 168.24 171.334554 
L 168.506182 171.159896 
L 169.038545 170.315589 
L 169.570909 169.017176 
L 170.369455 166.35349 
L 171.434182 161.742472 
L 172.765091 154.755001 
L 174.628364 143.595124 
L 177.024 129.082889 
L 177.556364 128.168939 
L 178.088727 127.755641 
L 178.354909 127.736554 
L 178.621091 127.838412 
L 179.153455 128.424309 
L 179.685818 129.500238 
L 180.484364 131.872042 
L 181.282909 135.238157 
L 182.081455 139.54665 
L 183.146182 146.709153 
L 183.412364 148.756167 
L 183.678545 148.72793 
L 185.009455 138.023194 
L 186.074182 130.989059 
L 187.405091 123.890132 
L 188.736 117.899104 
L 190.865455 109.746557 
L 192.196364 105.76055 
L 193.261091 103.120728 
L 193.793455 102.095963 
L 194.325818 101.468137 
L 194.858182 101.139231 
L 195.390545 101.148081 
L 195.922909 101.483983 
L 196.455273 102.159731 
L 196.987636 103.189018 
L 197.786182 105.432454 
L 198.584727 108.543561 
L 199.383273 112.578535 
L 200.448 119.45421 
L 201.512727 128.136393 
L 202.577455 138.704082 
L 203.642182 151.507571 
L 205.505455 192.279053 
L 206.304 203.431295 
L 207.102545 210.749698 
L 207.634909 213.65035 
L 207.901091 214.561858 
L 208.167273 214.80248 
L 208.433455 214.76181 
L 208.699636 214.441264 
L 209.232 213.015571 
L 209.764364 210.696509 
L 210.296727 207.600501 
L 211.095273 201.516956 
L 214.289455 175.021939 
L 214.821818 172.725313 
L 215.354182 171.59034 
L 216.152727 164.446979 
L 216.685091 161.395737 
L 217.217455 159.469156 
L 217.749818 158.440381 
L 218.016 158.189852 
L 218.548364 158.116274 
L 219.080727 158.424386 
L 220.677818 159.826662 
L 221.210182 159.933724 
L 221.742545 159.656152 
L 222.274909 158.912371 
L 222.807273 157.624685 
L 223.339636 155.76938 
L 224.138182 151.88489 
L 224.936727 146.775864 
L 226.001455 138.342076 
L 226.8 131.202799 
L 227.598545 114.451243 
L 227.864727 115.204941 
L 228.663273 119.992355 
L 229.728 128.097194 
L 230.792727 137.931893 
L 232.123636 152.215715 
L 233.986909 174.767614 
L 235.317818 190.438528 
L 236.648727 204.411274 
L 236.914909 204.415869 
L 237.181091 203.682314 
L 237.447273 203.399283 
L 237.713455 203.546162 
L 237.979636 204.078593 
L 238.512 206.187839 
L 239.044364 209.521195 
L 239.842909 216.687622 
L 241.173818 231.682617 
L 243.303273 256.163399 
L 244.101818 263.722948 
L 244.634182 267.062745 
L 245.166545 268.836858 
L 245.432727 269.154375 
L 245.698909 269.048764 
L 245.965091 268.565748 
L 246.231273 267.489265 
L 246.763636 263.899152 
L 247.562182 255.842576 
L 248.626909 241.611432 
L 250.224 216.353608 
L 251.821091 190.706875 
L 254.216727 173.091072 
L 255.281455 166.726756 
L 256.08 163.052295 
L 256.612364 161.330433 
L 257.144727 160.303919 
L 257.410909 160.087407 
L 257.677091 160.102165 
L 257.943273 160.396351 
L 258.209455 160.964504 
L 258.741818 163.006207 
L 259.274182 166.513656 
L 259.806545 171.695216 
L 260.871273 182.545893 
L 262.202182 193.939813 
L 263.533091 203.447994 
L 264.864 211.38437 
L 266.194909 218.038692 
L 267.525818 223.652508 
L 269.122909 229.362147 
L 269.921455 232.079727 
L 270.986182 237.786529 
L 272.583273 247.574905 
L 274.180364 258.850546 
L 274.446545 256.865956 
L 275.511273 235.436479 
L 276.576 218.111801 
L 277.108364 213.656577 
L 280.036364 195.789328 
L 281.633455 186.975204 
L 282.432 178.699802 
L 283.230545 172.672262 
L 283.762909 169.841649 
L 284.295273 167.874376 
L 284.827636 166.733645 
L 285.093818 166.448929 
L 285.36 166.345962 
L 285.626182 166.418602 
L 285.892364 166.665537 
L 286.424727 167.655209 
L 286.957091 169.251689 
L 287.755636 172.687159 
L 288.554182 177.263958 
L 289.618909 184.872004 
L 289.885091 187.012612 
L 290.151273 188.133253 
L 290.949818 189.024554 
L 292.014545 190.654016 
L 293.079273 192.248257 
L 293.611636 192.780559 
L 294.144 193.002297 
L 294.676364 192.955196 
L 295.208727 192.51797 
L 295.741091 191.576582 
L 296.273455 190.020752 
L 296.805818 187.736772 
L 297.338182 184.638419 
L 298.136727 178.21411 
L 298.935273 169.406843 
L 299.733818 157.940155 
L 300.798545 139.471856 
L 301.064727 139.717885 
L 302.129455 142.601134 
L 303.460364 145.355268 
L 305.323636 149.042035 
L 306.388364 151.681216 
L 307.453091 155.043257 
L 308.517818 159.312914 
L 309.582545 164.640458 
L 310.114909 168.232895 
L 311.978182 187.557838 
L 312.776727 177.169031 
L 313.575273 169.500874 
L 314.107636 166.404355 
L 314.64 164.520749 
L 315.172364 163.598439 
L 315.438545 163.431234 
L 315.704727 163.420016 
L 316.237091 163.782576 
L 316.769455 164.547066 
L 317.568 166.191746 
L 319.963636 171.798588 
L 320.496 172.571875 
L 321.028364 172.909206 
L 321.294545 172.863768 
L 321.560727 172.638853 
L 321.826909 172.189471 
L 322.359273 170.541699 
L 322.891636 167.630597 
L 323.424 163.000961 
L 323.956364 156.184767 
L 324.488727 146.549029 
L 325.021091 133.295794 
L 325.819636 106.255871 
L 326.085818 106.316845 
L 327.150545 114.273077 
L 327.682909 116.905348 
L 328.215273 118.345373 
L 328.481455 118.724995 
L 328.747636 118.900367 
L 329.013818 118.922249 
L 329.546182 118.541049 
L 330.078545 117.748066 
L 330.877091 116.033477 
L 332.208 112.395229 
L 334.603636 104.938434 
L 337.797818 94.129174 
L 339.128727 88.713955 
L 340.193455 84.418791 
L 341.258182 88.11266 
L 342.589091 93.560189 
L 344.186182 100.333814 
L 346.315636 109.236392 
L 346.581818 110.783286 
L 348.178909 127.64425 
L 350.308364 153.048878 
L 352.970182 184.777472 
L 354.301091 198.275317 
L 355.365818 207.130858 
L 355.898182 210.293694 
L 357.229091 213.069848 
L 358.826182 216.16367 
L 359.890909 217.815163 
L 360.423273 222.433773 
L 360.955636 225.527072 
L 361.488 227.026386 
L 361.754182 227.16514 
L 362.020364 226.896184 
L 362.286545 226.202841 
L 362.552727 225.06709 
L 362.818909 219.99095 
L 363.883636 189.919299 
L 364.948364 166.5772 
L 365.746909 153.216338 
L 366.545455 143.084511 
L 367.344 135.77739 
L 368.142545 130.820895 
L 368.941091 127.64135 
L 369.739636 125.641809 
L 370.804364 123.706912 
L 371.070545 124.104448 
L 373.998545 197.47358 
L 375.329455 227.791942 
L 375.595636 231.964603 
L 376.660364 221.813326 
L 378.789818 207.267884 
L 386.775273 150.606887 
L 387.041455 150.346611 
L 389.437091 173.319773 
L 390.768 184.002446 
L 391.034182 183.677347 
L 392.098909 173.091541 
L 392.897455 166.847233 
L 393.163636 165.132793 
L 395.825455 165.144864 
L 396.890182 165.421561 
L 397.688727 165.829356 
L 397.954909 166.008546 
L 398.487273 167.156347 
L 399.285818 168.666293 
L 399.818182 169.316928 
L 400.350545 169.728615 
L 400.882909 169.91528 
L 401.415273 169.902036 
L 401.947636 169.715723 
L 402.48 169.350454 
L 403.278545 168.43467 
L 404.343273 166.860552 
L 408.069818 160.75055 
L 408.602182 160.247701 
L 409.134545 159.969596 
L 410.199273 159.903994 
L 410.465455 160.106516 
L 410.731636 160.546024 
L 411.264 162.199746 
L 411.796364 164.430493 
L 413.127273 156.547498 
L 413.659636 155.081582 
L 414.192 154.384145 
L 414.458182 154.283566 
L 414.724364 154.342621 
L 415.256727 154.836577 
L 415.789091 155.767098 
L 416.587636 157.759131 
L 417.918545 162.004944 
L 420.314182 169.852163 
L 421.645091 173.380523 
L 422.709818 175.641618 
L 424.040727 177.833721 
L 425.371636 179.580023 
L 426.436364 180.822474 
L 426.436364 180.822474 
" clip-path="url(#p46d6cf5804)" style="fill: none; stroke: #ff0000; stroke-width: 3; stroke-linecap: square"/>
   </g>
   <g id="patch_3">
    <path d="M 7.2 331.2 
L 7.2 7.2 
" style="fill: none; stroke: #000000; stroke-width: 0.8; stroke-linejoin: miter; stroke-linecap: square"/>
   </g>
   <g id="patch_4">
    <path d="M 446.4 331.2 
L 446.4 7.2 
" style="fill: none; stroke: #000000; stroke-width: 0.8; stroke-linejoin: miter; stroke-linecap: square"/>
   </g>
   <g id="patch_5">
    <path d="M 7.2 331.2 
L 446.4 331.2 
" style="fill: none; stroke: #000000; stroke-width: 0.8; stroke-linejoin: miter; stroke-linecap: square"/>
   </g>
   <g id="patch_6">
    <path d="M 7.2 7.2 
L 446.4 7.2 
" style="fill: none; stroke: #000000; stroke-width: 0.8; stroke-linejoin: miter; stroke-linecap: square"/>
   </g>
  </g>
 </g>
 <defs>
  <clipPath id="p46d6cf5804">
   <rect x="7.2" y="7.2" width="439.2" height="324"/>
  </clipPath>
 </defs>
</svg>
