<?xml version="1.0" encoding="utf-8" standalone="no"?>
<!DOCTYPE svg PUBLIC "-//W3C//DTD SVG 1.1//EN"
  "http://www.w3.org/Graphics/SVG/1.1/DTD/svg11.dtd">
<svg xmlns:xlink="http://www.w3.org/1999/xlink" width="453.6pt" height="338.4pt" viewBox="0 0 453.6 338.4" xmlns="http://www.w3.org/2000/svg" version="1.1">
 <metadata>
  <rdf:RDF xmlns:dc="http://purl.org/dc/elements/1.1/" xmlns:cc="http://creativecommons.org/ns#" xmlns:rdf="http://www.w3.org/1999/02/22-rdf-syntax-ns#">
   <cc:Work>
    <dc:type rdf:resource="http://purl.org/dc/dcmitype/StillImage"/>
    <dc:date>2025-05-14T00:09:44.936539</dc:date>
    <dc:format>image/svg+xml</dc:format>
    <dc:creator>
     <cc:Agent>
      <dc:title>Matplotlib v3.10.1, https://matplotlib.org/</dc:title>
     </cc:Agent>
    </dc:creator>
   </cc:Work>
  </rdf:RDF>
 </metadata>
 <defs>
  <style type="text/css">*{stroke-linejoin: round; stroke-linecap: butt}</style>
 </defs>
 <g id="figure_1">
  <g id="patch_1">
   <path d="M 0 338.4 
L 453.6 338.4 
L 453.6 0 
L 0 0 
z
" style="fill: #ffffff"/>
  </g>
  <g id="axes_1">
   <g id="patch_2">
    <path d="M 7.2 331.2 
L 446.4 331.2 
L 446.4 7.2 
L 7.2 7.2 
z
" style="fill: #ffffff"/>
   </g>
   <g id="matplotlib.axis_1"/>
   <g id="matplotlib.axis_2"/>
   <g id="line2d_1">
    <path d="M 27.163636 191.607418 
L 29.293091 192.771433 
L 31.422545 193.689477 
L 33.552 194.36156 
L 35.681455 194.787684 
L 37.810909 194.967849 
L 39.940364 194.902054 
L 42.069818 194.590299 
L 44.199273 194.03256 
L 46.328727 193.228874 
L 48.458182 192.179203 
L 50.587636 190.883598 
L 52.717091 189.342021 
L 55.112727 187.313745 
L 57.508364 184.974169 
L 59.904 182.323291 
L 62.299636 179.3611 
L 64.961455 175.704702 
L 67.623273 171.663987 
L 70.285091 167.238945 
L 73.213091 161.927507 
L 76.141091 156.151041 
L 79.335273 149.319107 
L 82.529455 141.933749 
L 85.723636 133.994966 
L 89.184 124.770114 
L 92.644364 114.895718 
L 96.104727 104.371877 
L 99.831273 92.312147 
L 103.557818 79.49913 
L 105.154909 74.237332 
L 112.341818 81.482324 
L 119.528727 89.041731 
L 126.715636 96.915429 
L 134.168727 105.412907 
L 141.621818 114.248406 
L 149.074909 123.422073 
L 156.794182 133.279726 
L 164.513455 143.500134 
L 172.232727 154.0832 
L 180.218182 165.41286 
L 188.203636 177.130647 
L 196.189091 189.236538 
L 204.440727 202.153738 
L 205.505455 203.85066 
L 206.037818 205.447001 
L 209.764364 217.991799 
L 213.490909 229.784783 
L 217.217455 240.82589 
L 220.677818 250.4052 
L 224.138182 259.33623 
L 227.332364 267.004907 
L 230.526545 274.121213 
L 233.720727 280.685113 
L 236.648727 286.216808 
L 239.576727 291.28437 
L 242.504727 295.8878 
L 245.166545 299.669967 
L 247.828364 303.068547 
L 250.490182 306.083547 
L 252.885818 308.469087 
L 255.281455 310.543914 
L 257.677091 312.30804 
L 259.806545 313.615308 
L 261.936 314.677095 
L 264.065455 315.493387 
L 266.194909 316.064173 
L 268.324364 316.389472 
L 270.453818 316.469277 
L 272.317091 316.33773 
L 272.583273 315.94017 
L 277.374545 293.686622 
L 282.165818 270.354147 
L 286.957091 245.942517 
L 292.014545 219.004552 
L 297.072 190.864183 
L 302.395636 159.94419 
L 307.719273 127.692163 
L 313.309091 92.393851 
L 318.898909 55.627258 
L 323.956364 21.927273 
L 326.352 22.399189 
L 328.747636 23.097122 
L 331.143273 24.021024 
L 333.538909 25.17092 
L 336.200727 26.7136 
L 338.862545 28.535297 
L 341.524364 30.635962 
L 344.186182 33.015594 
L 347.114182 35.95544 
L 350.042182 39.232867 
L 352.970182 42.847874 
L 355.898182 46.800486 
L 359.092364 51.497362 
L 362.286545 56.596045 
L 365.480727 62.096387 
L 368.941091 68.50857 
L 372.401455 75.392204 
L 376.128 83.332555 
L 379.854545 91.819786 
L 383.581091 100.853847 
L 387.573818 111.140002 
L 391.566545 122.053858 
L 395.559273 133.595439 
L 399.818182 146.598365 
L 404.077091 160.315501 
L 408.602182 175.672527 
L 413.127273 191.835826 
L 417.652364 208.805348 
L 422.443636 227.651981 
L 426.436364 244.047965 
L 426.436364 244.047965 
" clip-path="url(#p3fde85c350)" style="fill: none; stroke-dasharray: 11.1,4.8; stroke-dashoffset: 0; stroke: #000000; stroke-width: 3"/>
   </g>
   <g id="line2d_2">
    <path d="M 27.163636 181.211049 
L 27.696 180.066829 
L 28.228364 178.188505 
L 29.293091 173.225911 
L 31.688727 161.417325 
L 32.753455 157.201851 
L 33.818182 153.854609 
L 34.882909 151.331056 
L 35.681455 149.90413 
L 36.48 148.814048 
L 37.544727 147.779613 
L 38.609455 147.098398 
L 39.674182 146.668254 
L 41.005091 146.359575 
L 42.868364 146.16295 
L 44.997818 145.954068 
L 46.594909 145.817427 
L 47.925818 145.982577 
L 48.724364 146.265638 
L 49.789091 146.975461 
L 50.587636 147.775201 
L 51.652364 149.31114 
L 52.717091 151.43823 
L 53.781818 154.218271 
L 54.846545 157.69708 
L 56.709818 164.417745 
L 56.976 164.604835 
L 58.040727 164.154712 
L 59.105455 163.924576 
L 60.436364 163.87067 
L 60.968727 164.058004 
L 62.033455 164.847375 
L 63.364364 165.790079 
L 64.162909 166.094884 
L 64.961455 166.157296 
L 65.76 165.993764 
L 66.824727 165.479636 
L 67.889455 164.721349 
L 69.486545 163.343352 
L 75.076364 158.037307 
L 76.673455 156.094953 
L 76.939636 155.724524 
L 77.205818 154.400949 
L 78.004364 146.217787 
L 78.802909 135.489207 
L 79.601455 121.977546 
L 80.4 105.538614 
L 81.198545 121.173835 
L 81.997091 134.703539 
L 82.795636 145.154034 
L 83.594182 152.987407 
L 84.392727 158.614338 
L 85.191273 162.408198 
L 85.723636 164.087642 
L 86.256 165.211454 
L 86.788364 165.876319 
L 87.320727 166.17779 
L 87.853091 166.224783 
L 89.716364 166.056299 
L 90.248727 166.456586 
L 90.781091 167.340775 
L 91.313455 168.892256 
L 91.845818 171.315229 
L 92.112 171.193395 
L 93.709091 158.1574 
L 94.773818 153.478934 
L 95.838545 149.850028 
L 96.637091 147.760002 
L 97.435636 146.165524 
L 98.234182 145.037887 
L 99.032727 144.377362 
L 99.565091 144.182501 
L 100.097455 144.206378 
L 100.629818 144.451173 
L 101.162182 144.923971 
L 101.694545 145.661544 
L 102.493091 147.320444 
L 103.291636 149.745133 
L 104.090182 153.119193 
L 104.888727 157.681709 
L 105.687273 163.733196 
L 106.485818 171.642243 
L 107.284364 181.941403 
L 107.816727 188.603406 
L 108.881455 178.141193 
L 109.946182 169.777623 
L 110.478545 166.784998 
L 113.140364 159.38927 
L 114.471273 155.243024 
L 115.536 151.143059 
L 116.334545 147.210843 
L 117.133091 142.190899 
L 117.931636 135.736111 
L 118.730182 127.518851 
L 119.528727 117.237672 
L 120.593455 101.70938 
L 121.125818 105.751222 
L 122.989091 121.159004 
L 124.32 130.668683 
L 125.650909 138.64583 
L 126.715636 143.838572 
L 127.514182 147.687833 
L 128.578909 152.394981 
L 129.643636 156.268045 
L 130.708364 159.446191 
L 131.773091 162.062455 
L 133.104 164.690094 
L 134.168727 166.366693 
L 135.233455 167.713263 
L 136.298182 168.742526 
L 137.362909 169.433301 
L 137.629091 169.544324 
L 138.161455 171.775378 
L 138.96 174.966332 
L 139.758545 177.250201 
L 140.290909 178.254313 
L 140.823273 178.808791 
L 141.089455 178.908979 
L 141.355636 178.887223 
L 141.888 178.468465 
L 142.420364 177.53868 
L 142.952727 176.07361 
L 143.751273 173.290137 
L 150.938182 161.242002 
L 153.333818 156.662301 
L 156.794182 149.93389 
L 157.592727 148.836993 
L 158.125091 148.34277 
L 158.657455 148.15112 
L 159.189818 148.334141 
L 159.722182 149.003246 
L 160.520727 150.559507 
L 162.117818 152.443028 
L 163.981091 154.9883 
L 164.513455 155.227237 
L 164.779636 155.148523 
L 171.966545 149.399635 
L 173.829818 148.140089 
L 175.160727 147.482211 
L 176.225455 147.191453 
L 177.024 147.165468 
L 177.556364 147.364643 
L 178.088727 147.768852 
L 178.887273 148.705746 
L 179.952 150.440125 
L 181.282909 153.156871 
L 183.678545 158.74561 
L 184.210909 160.003856 
L 185.808 169.771102 
L 186.606545 173.088315 
L 187.405091 175.500134 
L 188.203636 177.208908 
L 189.002182 178.366831 
L 189.800727 179.120043 
L 190.599273 179.567593 
L 191.397818 179.819374 
L 192.462545 179.967462 
L 194.059636 180.009847 
L 194.592 179.753702 
L 195.124364 179.198684 
L 195.656727 178.297236 
L 196.189091 176.998714 
L 196.987636 174.259978 
L 197.786182 170.501296 
L 198.584727 165.715998 
L 199.649455 157.849972 
L 200.980364 146.089776 
L 201.778909 138.396892 
L 202.045091 140.597401 
L 202.843636 152.219339 
L 203.376 157.424118 
L 203.908364 160.910403 
L 204.440727 162.958926 
L 204.973091 163.88577 
L 205.239273 164.035623 
L 205.771636 163.952816 
L 206.570182 163.604474 
L 206.836364 163.630213 
L 207.102545 163.812449 
L 207.368727 164.202759 
L 207.634909 164.852645 
L 208.167273 167.134614 
L 208.699636 171.058103 
L 209.232 177.014537 
L 209.764364 185.375105 
L 210.296727 194.689592 
L 211.361455 204.928349 
L 212.16 204.637015 
L 213.224727 204.002057 
L 214.555636 202.860619 
L 215.886545 201.403578 
L 217.483636 199.328273 
L 219.613091 196.196287 
L 226.267636 186.194713 
L 226.8 185.506168 
L 233.188364 161.647926 
L 235.051636 155.606294 
L 235.584 154.799887 
L 236.648727 154.465494 
L 237.713455 154.35398 
L 239.044364 154.43213 
L 241.44 154.899781 
L 243.303273 155.324655 
L 243.569455 155.540254 
L 244.368 156.911362 
L 245.432727 159.20196 
L 247.296 163.828334 
L 251.022545 173.144378 
L 253.152 177.893751 
L 255.281455 182.10654 
L 256.612364 184.430673 
L 257.410909 176.373831 
L 259.008 160.805165 
L 260.338909 148.353605 
L 261.137455 140.342408 
L 261.936 134.987777 
L 262.468364 132.620499 
L 263.000727 131.045902 
L 263.533091 130.191153 
L 264.065455 129.924026 
L 264.331636 129.996293 
L 264.864 130.524395 
L 265.396364 131.501247 
L 265.928727 132.894711 
L 266.727273 135.722971 
L 267.525818 139.416643 
L 268.324364 144.003354 
L 269.389091 151.660424 
L 270.453818 161.371337 
L 271.518545 171.961021 
L 272.583273 175.866542 
L 273.381818 177.991941 
L 274.180364 179.384143 
L 274.712727 179.896103 
L 275.245091 180.083633 
L 275.777455 179.957816 
L 276.309818 179.564921 
L 277.640727 178.295913 
L 278.705455 177.466389 
L 279.504 177.154144 
L 280.036364 177.192679 
L 280.568727 177.492226 
L 281.101091 178.11109 
L 281.633455 179.109821 
L 282.165818 180.64348 
L 283.230545 185.675976 
L 284.029091 188.650522 
L 284.827636 190.827437 
L 285.36 191.77774 
L 285.892364 192.29068 
L 286.158545 192.364908 
L 286.424727 192.318148 
L 286.690909 192.142653 
L 287.223273 191.366508 
L 287.755636 190.006027 
L 288.288 187.998245 
L 288.820364 185.303341 
L 289.618909 179.818479 
L 290.417455 172.439826 
L 291.216 162.911713 
L 291.748364 155.82535 
L 292.014545 155.742714 
L 292.280727 156.027761 
L 292.546909 156.023642 
L 292.813091 155.752151 
L 293.611636 154.331329 
L 294.410182 153.661685 
L 295.208727 152.720255 
L 296.273455 150.988083 
L 297.338182 148.723445 
L 298.935273 144.602423 
L 300.532364 140.466742 
L 301.330909 138.855252 
L 301.863273 138.095175 
L 302.395636 137.689766 
L 302.928 137.690599 
L 303.460364 138.202791 
L 303.992727 139.268016 
L 304.525091 140.985602 
L 305.057455 143.397985 
L 305.856 148.448964 
L 306.388364 152.842922 
L 306.654545 153.581794 
L 307.186909 153.96774 
L 307.719273 154.149731 
L 308.517818 154.118941 
L 309.582545 153.754126 
L 310.114909 153.575322 
L 313.309091 153.42971 
L 316.237091 153.069406 
L 318.632727 152.800538 
L 319.697455 152.901388 
L 320.496 153.211856 
L 321.028364 153.594885 
L 321.560727 154.175544 
L 322.093091 155.01453 
L 322.625455 156.196171 
L 323.157818 157.809721 
L 323.690182 159.973239 
L 324.222545 162.822213 
L 324.754909 166.529808 
L 325.553455 174.143489 
L 326.618182 187.301317 
L 327.682909 183.10011 
L 330.078545 173.169578 
L 330.877091 170.644555 
L 331.675636 168.874459 
L 332.208 168.197068 
L 332.740364 167.975218 
L 333.006545 168.04947 
L 333.272727 168.247665 
L 333.805091 169.051449 
L 334.337455 170.423758 
L 334.869818 172.379865 
L 335.668364 176.455597 
L 336.466909 181.950804 
L 337.265455 188.897646 
L 337.797818 194.340846 
L 338.064 192.872455 
L 339.927273 178.701151 
L 341.258182 170.032076 
L 342.322909 164.310669 
L 344.186182 155.920341 
L 344.718545 154.602477 
L 344.984727 154.341429 
L 345.250909 154.366801 
L 345.517091 154.690996 
L 345.783273 155.350468 
L 346.315636 157.753952 
L 346.848 161.725292 
L 347.380364 167.455941 
L 347.912727 175.096293 
L 348.711273 190.543701 
L 349.243636 203.721815 
L 349.509818 202.88001 
L 350.308364 188.425338 
L 351.106909 179.013506 
L 351.639273 174.919082 
L 352.171636 172.202556 
L 352.704 170.471855 
L 353.236364 169.396163 
L 354.567273 167.327709 
L 355.099636 165.920738 
L 355.632 163.726136 
L 356.164364 160.505214 
L 356.696727 156.023029 
L 357.495273 146.476114 
L 358.293818 133.063097 
L 359.092364 117.944161 
L 359.890909 132.484031 
L 360.955636 140.982391 
L 362.020364 147.462845 
L 362.818909 151.17027 
L 363.617455 154.013189 
L 364.416 156.080392 
L 365.214545 157.449784 
L 366.013091 158.221553 
L 366.545455 158.437594 
L 367.077818 158.459215 
L 367.610182 158.304312 
L 368.408727 157.751647 
L 369.207273 156.905111 
L 370.272 155.425848 
L 371.602909 153.191779 
L 376.394182 144.61723 
L 376.660364 143.274803 
L 377.725091 132.952441 
L 379.056 117.740893 
L 380.386909 102.568149 
L 380.919273 108.645326 
L 381.717818 117.662105 
L 382.516364 124.781464 
L 383.314909 130.395035 
L 384.379636 136.172776 
L 385.444364 140.693594 
L 387.307636 147.354077 
L 392.365091 164.646386 
L 393.163636 166.54084 
L 393.962182 174.897681 
L 394.760727 185.607165 
L 395.026909 189.769248 
L 395.293091 191.090103 
L 396.091636 175.460139 
L 396.890182 164.510849 
L 397.422545 159.493772 
L 397.954909 156.059678 
L 398.487273 153.950703 
L 399.019636 152.916562 
L 399.285818 152.7218 
L 399.552 152.699884 
L 400.084364 153.042097 
L 401.947636 155.028895 
L 402.213818 155.029876 
L 402.48 154.887769 
L 402.746182 154.578747 
L 403.278545 153.393136 
L 403.810909 151.34145 
L 404.343273 148.317447 
L 404.875636 144.290117 
L 405.674182 136.328365 
L 406.206545 129.75341 
L 406.472727 128.239288 
L 407.005091 133.285388 
L 407.803636 140.433894 
L 408.602182 145.822159 
L 409.400727 149.829117 
L 410.997818 156.092257 
L 412.062545 159.187546 
L 413.127273 161.529868 
L 414.192 163.356051 
L 415.789091 165.557369 
L 417.918545 168.41002 
L 419.249455 170.651541 
L 420.314182 172.920616 
L 421.378909 175.757014 
L 422.443636 179.290133 
L 423.508364 183.63868 
L 424.573091 188.923643 
L 425.637818 195.266195 
L 426.436364 200.803945 
L 426.436364 200.803945 
" clip-path="url(#p3fde85c350)" style="fill: none; stroke-dasharray: 3,4.95; stroke-dashoffset: 0; stroke: #ffa500; stroke-width: 3"/>
   </g>
   <g id="line2d_3">
    <path d="M 27.163636 238.828564 
L 27.962182 229.060325 
L 28.760727 221.751806 
L 29.559273 216.359018 
L 30.357818 212.408 
L 31.156364 209.487421 
L 32.221091 206.600953 
L 33.818182 203.198984 
L 35.415273 199.725642 
L 36.746182 196.301573 
L 38.343273 191.430771 
L 40.738909 183.19808 
L 42.868364 176.062567 
L 43.933091 172.534425 
L 44.997818 165.928729 
L 45.264 165.030248 
L 46.328727 164.156182 
L 47.659636 162.74144 
L 51.12 158.678001 
L 51.918545 158.193779 
L 52.450909 158.100577 
L 52.983273 158.250602 
L 53.515636 158.696435 
L 54.048 159.49262 
L 54.580364 160.699755 
L 55.378909 163.355266 
L 55.645091 163.273096 
L 56.177455 162.355763 
L 56.709818 161.927923 
L 57.242182 161.7791 
L 57.508364 162.011368 
L 57.774545 162.495174 
L 58.306909 164.236539 
L 58.839273 167.105639 
L 59.371636 171.117132 
L 60.170182 179.447695 
L 60.436364 182.89048 
L 60.702545 182.8315 
L 60.968727 182.953628 
L 61.234909 183.245478 
L 61.767273 184.306915 
L 62.033455 185.027413 
L 62.832 179.700911 
L 64.162909 169.152005 
L 65.76 154.154462 
L 67.623273 135.134443 
L 70.817455 120.550228 
L 71.882182 116.572024 
L 72.946909 113.350611 
L 74.011636 110.943254 
L 74.810182 109.634901 
L 75.608727 108.656701 
L 77.205818 106.938967 
L 77.738182 105.117858 
L 78.536727 101.302401 
L 79.335273 96.084631 
L 80.133818 89.317757 
L 80.4 86.706273 
L 82.529455 103.372375 
L 82.795636 106.667672 
L 84.658909 141.303473 
L 85.723636 157.377934 
L 87.054545 172.868646 
L 88.119273 182.620791 
L 88.917818 188.287166 
L 89.716364 192.478726 
L 90.248727 194.45046 
L 90.781091 195.788107 
L 91.313455 196.510517 
L 91.579636 196.656154 
L 91.845818 196.650945 
L 92.112 195.72513 
L 92.910545 188.546228 
L 93.709091 178.97676 
L 94.507636 164.605325 
L 95.838545 136.089992 
L 98.234182 83.221728 
L 99.032727 89.18499 
L 99.831273 96.72123 
L 100.629818 106.143027 
L 101.428364 117.790778 
L 102.226909 132.100634 
L 102.759273 140.710557 
L 106.219636 162.412145 
L 107.284364 171.239996 
L 107.816727 175.739523 
L 108.349091 174.860849 
L 108.881455 174.360142 
L 109.413818 174.284272 
L 109.946182 174.660682 
L 110.212364 175.016855 
L 110.478545 175.162492 
L 111.010909 174.989792 
L 111.543273 175.067329 
L 112.075636 175.373949 
L 113.140364 176.248774 
L 113.938909 175.269851 
L 114.737455 173.874008 
L 115.536 171.917632 
L 116.334545 169.204416 
L 116.866909 166.753105 
L 117.399273 162.779534 
L 118.464 152.532822 
L 119.528727 139.8348 
L 120.593455 125.858111 
L 121.125818 124.34497 
L 121.924364 122.940106 
L 122.456727 122.442843 
L 122.722909 122.368419 
L 122.989091 122.424286 
L 123.255273 122.630717 
L 123.787636 123.546285 
L 124.32 125.223644 
L 124.852364 127.770583 
L 125.384727 131.290182 
L 126.183273 138.563439 
L 126.981818 148.412536 
L 127.514182 149.240516 
L 128.046545 150.615154 
L 128.578909 152.490095 
L 129.377455 156.323496 
L 130.176 161.421933 
L 130.974545 167.890376 
L 131.773091 175.785046 
L 132.837818 188.728807 
L 133.104 188.498316 
L 134.168727 174.349478 
L 136.032 159.904208 
L 137.096727 152.941762 
L 137.895273 149.030898 
L 138.693818 147.125241 
L 139.492364 145.817624 
L 140.024727 145.313153 
L 140.557091 145.070098 
L 141.089455 145.035387 
L 141.621818 145.205439 
L 142.420364 145.748715 
L 143.485091 146.788715 
L 144.017455 147.686779 
L 145.082182 149.918887 
L 145.880727 152.065907 
L 146.679273 154.823567 
L 147.477818 158.312647 
L 148.542545 164.174519 
L 149.873455 173.288054 
L 151.736727 188.107798 
L 153.067636 198.280318 
L 153.333818 197.253556 
L 154.664727 180.476174 
L 156.261818 163.353942 
L 158.125091 144.218243 
L 158.391273 143.819206 
L 159.722182 147.488144 
L 160.254545 148.766295 
L 161.053091 146.50308 
L 162.117818 144.333139 
L 163.714909 141.461024 
L 164.513455 139.112598 
L 165.312 135.556007 
L 166.110545 130.839912 
L 166.909091 124.675368 
L 167.707636 116.718126 
L 168.506182 106.590919 
L 169.304727 93.890985 
L 170.103273 78.182001 
L 170.369455 77.342182 
L 170.635636 77.42847 
L 170.901818 77.775366 
L 171.434182 79.293238 
L 171.966545 81.773058 
L 172.498909 85.111083 
L 172.765091 87.431711 
L 176.757818 141.422169 
L 177.024 143.523716 
L 177.822545 146.518817 
L 178.621091 148.688586 
L 179.419636 150.237886 
L 180.218182 151.310391 
L 181.016727 152.027421 
L 182.081455 152.60482 
L 183.146182 152.905433 
L 183.944727 152.987039 
L 184.210909 152.981156 
L 185.009455 154.410607 
L 185.275636 155.278789 
L 186.340364 164.664354 
L 186.872727 167.88008 
L 187.405091 169.938997 
L 187.671273 170.542651 
L 187.937455 170.864542 
L 188.203636 170.868366 
L 188.469818 170.570425 
L 188.736 169.957211 
L 189.268364 167.69804 
L 190.066909 163.291579 
L 190.599273 162.378757 
L 191.131636 160.90778 
L 191.930182 157.730394 
L 192.728727 153.5689 
L 193.793455 146.645162 
L 196.189091 129.273135 
L 197.253818 123.117489 
L 197.786182 120.994173 
L 198.318545 119.71661 
L 198.850909 119.194269 
L 199.117091 119.160342 
L 199.383273 119.291099 
L 199.915636 119.958954 
L 200.448 121.118606 
L 201.246545 123.711974 
L 201.778909 125.931702 
L 202.311273 133.847344 
L 203.109818 148.531428 
L 203.908364 163.673162 
L 204.706909 175.411737 
L 205.505455 184.26263 
L 206.304 190.753197 
L 207.102545 195.466179 
L 207.901091 198.903399 
L 208.699636 201.558174 
L 209.764364 204.440267 
L 210.296727 205.667773 
L 210.562909 205.826536 
L 210.829091 205.403832 
L 211.095273 206.129442 
L 212.16 228.88993 
L 212.958545 240.8676 
L 213.490909 246.531045 
L 214.023273 250.480115 
L 214.555636 252.787124 
L 214.821818 253.352879 
L 215.088 253.548304 
L 215.354182 253.348577 
L 215.620364 252.802041 
L 216.152727 250.611619 
L 216.685091 247.035638 
L 217.217455 242.0923 
L 218.016 232.14956 
L 218.814545 220.821616 
L 219.080727 222.727175 
L 219.879273 230.491799 
L 220.677818 235.942562 
L 221.210182 238.407796 
L 221.742545 240.013783 
L 222.274909 240.82513 
L 222.541091 240.955936 
L 222.807273 240.906737 
L 223.073455 240.697364 
L 223.605818 239.810196 
L 224.138182 238.362568 
L 224.404364 237.44439 
L 224.936727 233.903709 
L 228.397091 208.013833 
L 229.994182 197.838787 
L 232.922182 181.777466 
L 233.986909 177.411073 
L 235.051636 174.049576 
L 235.584 173.118369 
L 236.116364 172.70965 
L 236.648727 172.578133 
L 237.181091 172.727594 
L 237.713455 173.169186 
L 238.245818 173.920878 
L 238.778182 175.010139 
L 239.310545 176.477378 
L 240.109091 179.51615 
L 240.907636 183.843284 
L 241.706182 189.881215 
L 242.504727 198.241072 
L 243.303273 209.847578 
L 244.900364 237.69258 
L 245.432727 229.461127 
L 246.231273 217.729072 
L 247.029818 209.038695 
L 247.828364 202.878379 
L 248.360727 199.969751 
L 248.893091 197.906372 
L 249.425455 196.593398 
L 249.957818 195.939982 
L 250.224 195.829523 
L 250.490182 195.859454 
L 251.022545 196.270686 
L 251.554909 197.084913 
L 252.353455 198.860598 
L 254.482909 204.241324 
L 254.749091 204.304803 
L 255.015273 204.105506 
L 255.281455 203.644229 
L 255.813818 201.932819 
L 256.346182 199.207714 
L 256.612364 197.469903 
L 257.410909 186.379817 
L 257.943273 177.536719 
L 258.209455 175.763155 
L 258.741818 179.38179 
L 259.274182 181.364947 
L 259.540364 181.731368 
L 259.806545 181.773716 
L 260.072727 181.447412 
L 261.137455 175.067048 
L 262.468364 165.667412 
L 264.864 148.373951 
L 265.662545 143.933882 
L 266.194909 141.732 
L 266.727273 140.311864 
L 266.993455 139.93185 
L 267.259636 139.80428 
L 267.525818 139.930527 
L 267.792 140.344345 
L 268.324364 142.069114 
L 268.856727 145.165016 
L 269.389091 150.013952 
L 270.453818 167.486633 
L 272.050909 194.079835 
L 274.978909 236.094891 
L 276.576 255.303617 
L 276.842182 262.340842 
L 277.108364 265.072358 
L 277.906909 231.320232 
L 278.705455 205.23302 
L 279.504 185.445288 
L 280.302545 170.997064 
L 281.101091 161.058908 
L 281.633455 156.636807 
L 282.165818 153.772806 
L 282.698182 152.662035 
L 282.964364 152.508014 
L 283.496727 153.651806 
L 284.029091 155.419057 
L 284.827636 159.048675 
L 285.892364 165.287202 
L 287.223273 174.750905 
L 289.086545 189.965003 
L 290.683636 203.082175 
L 290.949818 202.73604 
L 291.216 202.075122 
L 291.748364 200.072023 
L 292.280727 200.531902 
L 292.546909 200.42485 
L 292.813091 200.007147 
L 293.345455 198.240226 
L 294.144 195.543765 
L 294.942545 192.02256 
L 296.007273 186.178902 
L 297.338182 177.425585 
L 301.064727 150.680532 
L 301.330909 150.496703 
L 302.661818 162.869819 
L 303.460364 168.093252 
L 304.258909 171.824259 
L 305.057455 174.361735 
L 305.856 176.063719 
L 306.388364 176.878167 
L 306.654545 176.430679 
L 307.186909 174.697134 
L 307.985455 171.218938 
L 309.316364 163.972132 
L 310.114909 159.680862 
L 311.445818 154.77753 
L 312.776727 149.169622 
L 313.309091 146.028688 
L 316.769455 122.72637 
L 317.035636 122.554553 
L 318.366545 127.483869 
L 319.697455 131.545421 
L 320.762182 134.15183 
L 321.826909 136.226338 
L 323.157818 138.291311 
L 324.488727 140.288282 
L 325.287273 141.863002 
L 325.819636 143.241268 
L 326.352 145.033573 
L 326.618182 145.126652 
L 328.481455 137.212162 
L 330.344727 129.538154 
L 331.143273 126.931229 
L 331.409455 126.947408 
L 332.208 129.990777 
L 333.006545 134.058187 
L 333.805091 139.263873 
L 334.869818 148.052379 
L 335.934545 159.049998 
L 336.200727 159.258072 
L 336.999273 156.649211 
L 337.531636 155.594282 
L 337.797818 155.257413 
L 340.459636 134.083461 
L 341.524364 127.819684 
L 342.589091 122.959252 
L 343.92 118.171797 
L 344.186182 117.86606 
L 344.452364 117.961444 
L 344.718545 118.454834 
L 344.984727 119.377633 
L 345.517091 122.577792 
L 346.049455 127.643062 
L 346.581818 134.688683 
L 347.380364 149.240712 
L 348.178909 168.869777 
L 348.977455 193.914845 
L 349.509818 210.032719 
L 350.042182 220.023335 
L 350.308364 218.457685 
L 351.106909 207.314061 
L 351.905455 198.779432 
L 352.970182 190.063524 
L 355.365818 172.735928 
L 355.898182 166.318646 
L 356.962909 150.326013 
L 358.027636 130.317841 
L 359.092364 106.525296 
L 359.624727 102.986331 
L 360.423273 95.520028 
L 361.221818 85.965244 
L 361.488 85.850396 
L 362.286545 88.361864 
L 363.085091 91.725016 
L 363.883636 96.076026 
L 364.682182 101.43132 
L 365.746909 110.193375 
L 366.811636 120.82922 
L 368.142545 136.666068 
L 369.473455 155.18951 
L 371.070545 180.498162 
L 373.2 218.402688 
L 374.530909 241.364949 
L 374.797091 235.56826 
L 375.861818 201.835217 
L 376.394182 187.88683 
L 376.660364 183.806416 
L 377.192727 179.621548 
L 377.991273 171.234284 
L 379.056 157.130271 
L 380.386909 137.74502 
L 380.919273 135.482441 
L 381.984 131.513111 
L 383.847273 122.165739 
L 384.379636 120.80299 
L 384.645818 120.441068 
L 384.912 120.334677 
L 385.178182 120.459575 
L 385.444364 120.820223 
L 385.710545 121.41939 
L 386.242909 123.416386 
L 386.775273 126.400946 
L 387.573818 132.71929 
L 388.372364 141.051103 
L 389.437091 154.771868 
L 390.768 174.808206 
L 391.034182 173.247974 
L 391.832727 164.121667 
L 392.631273 157.465228 
L 393.163636 154.282253 
L 393.962182 159.42332 
L 394.760727 166.281508 
L 395.026909 168.9783 
L 395.293091 170.473448 
L 395.825455 167.577702 
L 396.357818 165.975158 
L 396.624 165.638976 
L 396.890182 165.585658 
L 397.156364 165.260825 
L 397.954909 159.283615 
L 398.753455 154.638194 
L 399.818182 149.883195 
L 402.48 139.325206 
L 403.278545 134.967479 
L 404.077091 129.498907 
L 404.875636 122.721982 
L 405.940364 111.459515 
L 406.472727 105.817704 
L 407.803636 101.748382 
L 408.602182 97.733579 
L 408.868364 97.54541 
L 409.400727 100.677617 
L 410.199273 105.775932 
L 414.724364 122.069694 
L 420.580364 142.70542 
L 421.645091 145.534317 
L 422.443636 147.061652 
L 422.976 147.729507 
L 423.508364 148.010338 
L 423.774545 148.006121 
L 424.040727 147.890367 
L 424.573091 147.255311 
L 425.105455 146.072567 
L 425.637818 144.225057 
L 426.170182 141.673142 
L 426.436364 140.08163 
L 426.436364 140.08163 
" clip-path="url(#p3fde85c350)" style="fill: none; stroke: #ffa500; stroke-width: 3; stroke-linecap: square"/>
   </g>
   <g id="patch_3">
    <path d="M 7.2 331.2 
L 7.2 7.2 
" style="fill: none; stroke: #000000; stroke-width: 0.8; stroke-linejoin: miter; stroke-linecap: square"/>
   </g>
   <g id="patch_4">
    <path d="M 446.4 331.2 
L 446.4 7.2 
" style="fill: none; stroke: #000000; stroke-width: 0.8; stroke-linejoin: miter; stroke-linecap: square"/>
   </g>
   <g id="patch_5">
    <path d="M 7.2 331.2 
L 446.4 331.2 
" style="fill: none; stroke: #000000; stroke-width: 0.8; stroke-linejoin: miter; stroke-linecap: square"/>
   </g>
   <g id="patch_6">
    <path d="M 7.2 7.2 
L 446.4 7.2 
" style="fill: none; stroke: #000000; stroke-width: 0.8; stroke-linejoin: miter; stroke-linecap: square"/>
   </g>
  </g>
 </g>
 <defs>
  <clipPath id="p3fde85c350">
   <rect x="7.2" y="7.2" width="439.2" height="324"/>
  </clipPath>
 </defs>
</svg>
