<?xml version="1.0" encoding="utf-8" standalone="no"?>
<!DOCTYPE svg PUBLIC "-//W3C//DTD SVG 1.1//EN"
  "http://www.w3.org/Graphics/SVG/1.1/DTD/svg11.dtd">
<svg xmlns:xlink="http://www.w3.org/1999/xlink" width="453.6pt" height="338.4pt" viewBox="0 0 453.6 338.4" xmlns="http://www.w3.org/2000/svg" version="1.1">
 <metadata>
  <rdf:RDF xmlns:dc="http://purl.org/dc/elements/1.1/" xmlns:cc="http://creativecommons.org/ns#" xmlns:rdf="http://www.w3.org/1999/02/22-rdf-syntax-ns#">
   <cc:Work>
    <dc:type rdf:resource="http://purl.org/dc/dcmitype/StillImage"/>
    <dc:date>2025-05-14T00:23:25.213685</dc:date>
    <dc:format>image/svg+xml</dc:format>
    <dc:creator>
     <cc:Agent>
      <dc:title>Matplotlib v3.10.1, https://matplotlib.org/</dc:title>
     </cc:Agent>
    </dc:creator>
   </cc:Work>
  </rdf:RDF>
 </metadata>
 <defs>
  <style type="text/css">*{stroke-linejoin: round; stroke-linecap: butt}</style>
 </defs>
 <g id="figure_1">
  <g id="patch_1">
   <path d="M 0 338.4 
L 453.6 338.4 
L 453.6 0 
L 0 0 
z
" style="fill: #ffffff"/>
  </g>
  <g id="axes_1">
   <g id="patch_2">
    <path d="M 7.2 331.2 
L 446.4 331.2 
L 446.4 7.2 
L 7.2 7.2 
z
" style="fill: #ffffff"/>
   </g>
   <g id="matplotlib.axis_1"/>
   <g id="matplotlib.axis_2"/>
   <g id="line2d_1">
    <path d="M 27.163636 287.617499 
L 28.494545 290.286799 
L 29.825455 292.402642 
L 30.890182 293.696835 
L 31.954909 294.636804 
L 33.019636 295.222574 
L 33.818182 295.429444 
L 34.616727 295.437075 
L 35.415273 295.245455 
L 36.213818 294.854596 
L 37.278545 294.023508 
L 38.343273 292.838215 
L 39.408 291.298709 
L 40.472727 289.404993 
L 41.803636 286.539733 
L 43.134545 283.121022 
L 44.731636 278.288005 
L 46.328727 272.658008 
L 47.925818 266.231042 
L 49.789091 257.725625 
L 51.652364 248.135432 
L 53.515636 237.460445 
L 55.645091 223.932193 
L 57.774545 208.987083 
L 60.170182 190.480272 
L 62.565818 170.180296 
L 64.961455 148.087052 
L 67.623273 121.435911 
L 70.285091 92.57099 
L 73.213091 58.262532 
L 76.141091 21.927273 
L 81.464727 43.535749 
L 86.788364 64.201536 
L 91.845818 82.960833 
L 96.903273 100.869282 
L 101.694545 117.050319 
L 106.485818 132.467723 
L 111.277091 147.12156 
L 115.802182 160.260071 
L 120.327273 172.717443 
L 124.586182 183.819852 
L 128.845091 194.318887 
L 133.104 204.21456 
L 137.096727 212.943819 
L 141.089455 221.14274 
L 144.816 228.316644 
L 148.542545 235.028574 
L 152.269091 241.278583 
L 155.995636 247.36717 
L 157.592727 251.458576 
L 159.189818 254.982483 
L 160.786909 257.938868 
L 162.117818 259.968982 
L 163.448727 261.60498 
L 164.779636 262.846873 
L 165.844364 263.556612 
L 166.909091 264.014128 
L 167.973818 264.219401 
L 169.038545 264.172442 
L 170.103273 263.873261 
L 171.168 263.321836 
L 172.232727 262.518174 
L 173.297455 261.462289 
L 174.628364 259.787719 
L 175.959273 257.719039 
L 177.290182 255.256237 
L 178.887273 251.780621 
L 180.484364 247.737507 
L 182.081455 243.126881 
L 183.944727 237.030472 
L 185.808 230.161646 
L 187.937455 221.365651 
L 190.066909 211.560725 
L 192.196364 200.746869 
L 194.592 187.375265 
L 196.987636 172.726756 
L 199.649455 154.953033 
L 202.311273 135.602701 
L 204.973091 114.676018 
L 207.901091 89.8358 
L 210.829091 63.088076 
L 213.224727 39.784834 
L 213.490909 40.433982 
L 216.152727 67.690336 
L 218.814545 92.754154 
L 221.476364 115.625368 
L 223.872 134.334952 
L 226.267636 151.268538 
L 228.397091 164.829629 
L 230.526545 176.987544 
L 232.389818 186.474511 
L 234.253091 194.887233 
L 236.116364 202.22553 
L 237.713455 207.660509 
L 239.310545 212.30605 
L 240.641455 215.574411 
L 241.972364 218.294655 
L 243.303273 220.466748 
L 244.368 221.80978 
L 245.432727 222.801992 
L 246.497455 223.443385 
L 247.296 223.694223 
L 248.094545 223.747718 
L 248.893091 223.603894 
L 249.691636 223.262748 
L 250.490182 222.72426 
L 251.554909 221.6993 
L 252.619636 220.3236 
L 253.684364 218.597013 
L 255.015273 215.945493 
L 256.346182 212.745844 
L 257.677091 208.998055 
L 259.274182 203.777148 
L 260.871273 197.766925 
L 261.936 193.426001 
L 276.309818 212.091718 
L 290.683636 231.123436 
L 305.323636 250.883897 
L 319.963636 271.024104 
L 334.603636 291.543983 
L 349.243636 312.443624 
L 352.171636 316.472727 
L 356.164364 289.292403 
L 359.890909 265.369933 
L 363.617455 242.843284 
L 367.344 221.712734 
L 370.804364 203.341496 
L 374.264727 186.173778 
L 377.458909 171.395013 
L 380.653091 157.641851 
L 383.847273 144.914416 
L 386.775273 134.148468 
L 389.703273 124.244318 
L 392.365091 115.988402 
L 395.026909 108.444713 
L 397.422545 102.264296 
L 399.818182 96.660849 
L 402.213818 91.634237 
L 404.343273 87.650488 
L 406.472727 84.122562 
L 408.602182 81.05046 
L 410.465455 78.736303 
L 412.328727 76.771092 
L 414.192 75.154916 
L 415.789091 74.047348 
L 417.386182 73.196206 
L 418.983273 72.601491 
L 420.580364 72.263157 
L 422.177455 72.181203 
L 423.774545 72.355653 
L 425.371636 72.78653 
L 426.436364 73.216209 
L 426.436364 73.216209 
" clip-path="url(#p695cae914f)" style="fill: none; stroke-dasharray: 11.1,4.8; stroke-dashoffset: 0; stroke: #000000; stroke-width: 3"/>
   </g>
   <g id="line2d_2">
    <path d="M 27.163636 240.125411 
L 27.429818 253.846434 
L 27.696 255.502402 
L 27.962182 256.271025 
L 28.228364 256.11607 
L 28.760727 256.696088 
L 29.026909 256.658284 
L 29.293091 256.209747 
L 29.825455 256.310298 
L 30.091636 256.179522 
L 30.357818 255.85137 
L 30.890182 255.511771 
L 31.156364 255.138894 
L 31.422545 254.348721 
L 33.019636 254.647253 
L 33.285818 254.640423 
L 33.552 254.388659 
L 34.350545 254.556031 
L 34.616727 254.369175 
L 35.415273 254.229369 
L 35.947636 253.437017 
L 36.48 253.056611 
L 36.746182 252.751702 
L 37.278545 252.725084 
L 37.544727 252.751126 
L 37.810909 252.560116 
L 38.343273 252.685337 
L 38.609455 252.712734 
L 38.875636 252.503775 
L 39.674182 252.470362 
L 39.940364 252.081681 
L 40.206545 251.986171 
L 40.738909 252.001783 
L 41.005091 251.907378 
L 41.537455 252.076658 
L 41.803636 252.180466 
L 42.069818 252.034395 
L 42.868364 252.017259 
L 43.400727 251.528225 
L 43.933091 251.011941 
L 44.465455 249.579415 
L 44.997818 248.356187 
L 45.530182 246.846348 
L 46.062545 245.651464 
L 47.659636 240.522501 
L 48.724364 236.702444 
L 50.853818 228.336568 
L 52.184727 221.009289 
L 52.450909 219.327753 
L 52.983273 214.999348 
L 53.781818 209.926149 
L 55.645091 197.704015 
L 55.911273 196.597982 
L 56.709818 191.684852 
L 56.976 191.19417 
L 58.839273 182.899264 
L 59.105455 182.424228 
L 59.904 179.469976 
L 60.170182 179.210604 
L 60.968727 176.517711 
L 61.234909 172.876586 
L 62.033455 169.626964 
L 63.630545 161.962422 
L 65.76 150.977276 
L 66.824727 141.250218 
L 67.357091 135.436582 
L 67.889455 131.537969 
L 68.421818 126.834159 
L 68.688 125.508771 
L 70.551273 109.529433 
L 74.011636 89.531059 
L 75.076364 84.626542 
L 75.608727 82.688287 
L 76.673455 80.044578 
L 77.472 78.416662 
L 77.738182 78.360762 
L 78.004364 78.75222 
L 78.270545 78.515932 
L 78.536727 78.609987 
L 78.802909 79.022305 
L 79.069091 79.998363 
L 79.335273 80.479089 
L 79.867636 82.216863 
L 80.133818 83.531911 
L 80.666182 84.53093 
L 81.198545 85.383922 
L 81.464727 85.334908 
L 81.730909 85.165583 
L 81.997091 85.261512 
L 82.263273 85.729143 
L 82.529455 86.851318 
L 83.061818 87.133504 
L 83.594182 88.486345 
L 83.860364 88.671677 
L 84.126545 88.683417 
L 84.658909 89.001703 
L 84.925091 88.638805 
L 85.457455 87.245191 
L 85.989818 86.398768 
L 86.522182 85.313393 
L 86.788364 83.148829 
L 87.853091 80.838239 
L 88.119273 80.623851 
L 89.184 78.787146 
L 90.514909 75.189345 
L 91.579636 71.41434 
L 91.845818 70.720626 
L 92.378182 70.388929 
L 92.910545 69.973021 
L 93.442909 69.416506 
L 93.975273 68.257756 
L 94.241455 67.701647 
L 94.507636 67.434745 
L 95.04 66.289565 
L 95.306182 61.696154 
L 96.104727 57.648242 
L 96.370909 56.416028 
L 97.701818 54.45917 
L 98.500364 53.827474 
L 98.766545 54.136933 
L 99.032727 54.24065 
L 100.629818 54.146009 
L 101.162182 54.53925 
L 101.428364 54.454452 
L 101.960727 54.765671 
L 102.226909 54.904541 
L 102.493091 54.851373 
L 102.759273 54.988097 
L 103.291636 55.538562 
L 104.090182 56.158157 
L 105.154909 57.048785 
L 105.421091 57.300516 
L 105.953455 57.380437 
L 107.018182 58.34146 
L 107.816727 59.878572 
L 108.082909 60.913917 
L 108.615273 61.74212 
L 108.881455 61.612508 
L 109.413818 61.844686 
L 109.68 62.199118 
L 109.946182 61.978115 
L 110.478545 62.00331 
L 111.010909 63.040258 
L 111.543273 63.979155 
L 112.075636 65.706883 
L 112.341818 63.273882 
L 112.608 63.699769 
L 113.406545 66.890015 
L 113.938909 69.365956 
L 116.334545 86.365964 
L 116.600727 89.687832 
L 117.399273 94.370601 
L 117.931636 98.864019 
L 118.464 103.088346 
L 122.722909 156.065026 
L 123.521455 162.700409 
L 124.586182 169.577656 
L 125.118545 172.198495 
L 127.780364 188.911101 
L 128.312727 192.555681 
L 128.845091 194.995206 
L 129.111273 195.382058 
L 129.377455 188.096082 
L 129.643636 188.679329 
L 130.708364 192.318095 
L 131.773091 197.450456 
L 132.305455 199.189844 
L 133.104 200.139759 
L 133.370182 200.048797 
L 133.636364 199.584417 
L 134.434909 200.108468 
L 134.967273 200.794438 
L 135.499636 201.920643 
L 136.298182 203.704304 
L 136.564364 203.965945 
L 137.362909 204.028866 
L 137.629091 203.615984 
L 137.895273 202.415693 
L 138.161455 202.269001 
L 138.427636 202.280877 
L 138.693818 202.139919 
L 138.96 202.232156 
L 139.758545 203.199805 
L 140.290909 203.51449 
L 140.557091 203.643053 
L 141.355636 202.907211 
L 141.621818 202.824941 
L 142.420364 201.847032 
L 142.686545 201.722002 
L 143.485091 200.546286 
L 143.751273 200.392426 
L 144.283636 199.251659 
L 144.549818 198.60942 
L 144.816 198.261152 
L 145.348364 196.913164 
L 145.614545 196.198657 
L 146.146909 195.428137 
L 146.413091 194.081053 
L 146.679273 193.453195 
L 147.744 192.605146 
L 148.542545 192.475082 
L 148.808727 192.255478 
L 149.074909 192.246267 
L 149.607273 192.463387 
L 150.139636 192.489531 
L 150.672 192.759368 
L 151.470545 192.44528 
L 151.736727 192.458894 
L 152.002909 192.35696 
L 153.866182 190.558252 
L 154.664727 190.655738 
L 154.930909 190.172055 
L 155.463273 189.964428 
L 155.729455 189.972906 
L 155.995636 189.771319 
L 156.261818 189.82408 
L 157.060364 191.275424 
L 157.326545 192.002032 
L 158.657455 197.708 
L 158.923636 198.638984 
L 159.456 199.155268 
L 159.722182 199.699129 
L 159.988364 200.496967 
L 160.520727 201.121145 
L 161.053091 202.555421 
L 161.851636 203.330569 
L 162.117818 203.691458 
L 162.384 203.561179 
L 162.650182 203.0594 
L 163.182545 202.741453 
L 163.448727 199.682648 
L 163.981091 197.902159 
L 164.247273 197.612455 
L 164.513455 197.005593 
L 165.045818 195.331915 
L 165.578182 194.559848 
L 166.110545 193.027635 
L 166.642909 192.316627 
L 167.441455 190.04891 
L 167.973818 188.729923 
L 168.24 187.829971 
L 168.506182 187.357689 
L 168.772364 187.154927 
L 169.304727 186.466925 
L 169.570909 186.459023 
L 169.837091 186.784873 
L 170.369455 186.969595 
L 171.168 187.315007 
L 171.434182 187.205206 
L 171.700364 186.920897 
L 171.966545 186.407661 
L 172.498909 186.55818 
L 172.765091 186.422675 
L 173.563636 187.345192 
L 173.829818 187.2395 
L 174.096 187.441979 
L 174.362182 187.462016 
L 174.628364 187.662847 
L 175.160727 187.284393 
L 175.426909 186.937785 
L 175.693091 186.851316 
L 176.225455 185.889932 
L 176.491636 185.679111 
L 176.757818 185.675555 
L 177.024 185.379157 
L 177.290182 185.356467 
L 177.556364 185.653599 
L 177.822545 186.208489 
L 178.621091 186.707773 
L 179.153455 187.646174 
L 179.685818 188.048378 
L 179.952 188.516822 
L 180.484364 188.859039 
L 180.750545 188.816776 
L 181.016727 189.07695 
L 181.282909 189.180644 
L 181.815273 189.044033 
L 182.081455 189.333184 
L 182.347636 189.430433 
L 182.613818 189.33324 
L 182.88 188.983651 
L 183.412364 188.943499 
L 183.678545 188.6379 
L 184.210909 187.542501 
L 184.477091 187.006576 
L 186.340364 181.76702 
L 187.138909 180.118503 
L 187.671273 178.865598 
L 187.937455 178.492247 
L 188.469818 176.960011 
L 189.800727 172.680507 
L 190.865455 170.83782 
L 191.930182 170.323726 
L 192.196364 170.372695 
L 192.728727 170.159841 
L 193.793455 168.890828 
L 194.325818 168.492642 
L 195.390545 167.827781 
L 196.721455 165.99523 
L 197.52 164.044197 
L 198.318545 161.445032 
L 200.181818 157.45995 
L 200.714182 156.256161 
L 201.246545 155.038486 
L 201.778909 153.86145 
L 202.311273 152.851526 
L 202.577455 152.25444 
L 203.109818 151.652546 
L 203.376 151.15263 
L 204.440727 147.907297 
L 205.239273 141.897537 
L 206.836364 126.119064 
L 207.368727 123.39593 
L 207.634909 122.544585 
L 208.433455 118.649563 
L 208.699636 117.700528 
L 209.232 114.67428 
L 210.562909 110.50924 
L 210.829091 110.28266 
L 211.361455 109.463374 
L 211.893818 109.387155 
L 212.426182 108.80804 
L 212.692364 108.921556 
L 213.224727 109.711831 
L 213.490909 110.443564 
L 214.289455 114.930774 
L 215.354182 123.754629 
L 216.418909 134.264332 
L 218.548364 157.548745 
L 219.346909 161.9037 
L 220.145455 165.607949 
L 221.210182 171.831827 
L 224.138182 194.473662 
L 224.936727 197.395425 
L 225.735273 200.089616 
L 226.8 204.328617 
L 228.397091 212.434985 
L 230.792727 224.901614 
L 232.922182 231.830505 
L 236.116364 239.352102 
L 237.713455 241.719213 
L 238.512 242.687144 
L 242.504727 246.23137 
L 243.569455 246.977699 
L 245.698909 247.975171 
L 247.029818 248.32835 
L 247.562182 248.330326 
L 248.094545 248.438818 
L 248.626909 248.333735 
L 249.159273 248.38364 
L 249.691636 248.230085 
L 250.224 248.296359 
L 250.756364 248.093056 
L 251.288727 248.085921 
L 251.821091 247.815261 
L 252.353455 247.72203 
L 253.152 247.342877 
L 253.684364 247.147431 
L 255.015273 246.651341 
L 255.813818 246.362642 
L 256.346182 246.162657 
L 256.878545 245.964389 
L 258.209455 245.421905 
L 259.008 245.118643 
L 259.540364 244.831953 
L 260.072727 244.57862 
L 260.605091 244.238265 
L 260.871273 244.190876 
L 261.936 243.629213 
L 264.065455 242.986996 
L 265.928727 242.935803 
L 266.727273 243.086176 
L 271.252364 243.511679 
L 271.784727 243.624088 
L 272.583273 243.663688 
L 273.115636 243.687371 
L 273.381818 243.522346 
L 274.180364 243.734048 
L 274.712727 243.842427 
L 275.511273 243.966927 
L 276.309818 244.102105 
L 277.374545 244.189126 
L 278.439273 244.335243 
L 280.036364 244.398379 
L 281.367273 244.395534 
L 285.892364 244.490695 
L 286.424727 244.55935 
L 289.885091 244.465894 
L 290.151273 244.410751 
L 290.417455 244.194895 
L 292.014545 244.430381 
L 293.079273 244.561224 
L 294.410182 244.779496 
L 295.474909 245.020649 
L 297.870545 245.20229 
L 298.402909 245.17215 
L 298.669091 245.240817 
L 299.201455 245.136479 
L 300.532364 245.299618 
L 301.064727 245.436794 
L 301.863273 245.4669 
L 302.395636 245.473142 
L 303.726545 245.458332 
L 304.791273 245.539552 
L 307.186909 245.562851 
L 307.453091 245.07069 
L 307.985455 245.157802 
L 308.517818 245.33232 
L 310.114909 245.728293 
L 310.647273 245.901942 
L 311.179636 246.045925 
L 311.445818 246.235219 
L 312.244364 246.450036 
L 312.776727 246.768074 
L 313.042909 246.773628 
L 313.841455 247.19255 
L 314.373818 247.196354 
L 314.906182 247.441515 
L 315.438545 247.400606 
L 315.970909 247.613752 
L 316.503273 247.427856 
L 317.035636 247.597655 
L 317.568 247.38759 
L 318.366545 247.484659 
L 318.898909 247.270835 
L 319.431273 247.341218 
L 319.963636 247.093224 
L 320.229818 247.271783 
L 320.496 247.29971 
L 321.028364 247.096543 
L 321.560727 247.13411 
L 322.359273 246.914823 
L 322.891636 246.853008 
L 323.157818 246.740327 
L 324.222545 246.90779 
L 324.488727 243.32568 
L 325.819636 243.933626 
L 326.352 244.563719 
L 328.481455 247.527001 
L 328.747636 248.542693 
L 330.610909 251.098726 
L 334.071273 255.466776 
L 334.869818 256.185336 
L 337.531636 257.889984 
L 338.330182 258.490959 
L 339.128727 259.074115 
L 340.992 260.412405 
L 341.258182 260.596829 
L 341.524364 260.126336 
L 342.855273 261.071786 
L 346.315636 263.491602 
L 347.912727 264.392237 
L 349.243636 264.853462 
L 350.574545 264.963846 
L 351.373091 264.879341 
L 352.437818 264.414825 
L 353.502545 263.372329 
L 355.365818 260.362375 
L 358.293818 254.589626 
L 358.826182 252.732568 
L 359.624727 249.897521 
L 360.423273 245.962176 
L 361.754182 238.674835 
L 362.818909 233.258888 
L 363.883636 226.956613 
L 365.214545 219.175451 
L 366.811636 210.499755 
L 367.344 206.03449 
L 367.876364 202.720434 
L 369.473455 195.393154 
L 370.272 192.511058 
L 371.070545 190.032362 
L 371.336727 188.478238 
L 372.667636 185.188745 
L 373.466182 183.63934 
L 374.530909 181.999176 
L 375.329455 180.842956 
L 375.595636 182.330106 
L 376.394182 180.692098 
L 376.926545 179.694456 
L 378.257455 178.144882 
L 378.789818 177.613517 
L 379.854545 175.863551 
L 380.386909 174.609687 
L 381.717818 173.001232 
L 382.250182 172.561438 
L 383.847273 170.29029 
L 384.113455 168.517567 
L 385.444364 167.339379 
L 386.242909 167.072748 
L 386.775273 167.122146 
L 388.106182 166.737507 
L 388.372364 166.136899 
L 389.437091 166.080999 
L 391.034182 167.418578 
L 391.300364 167.553135 
L 391.832727 167.40431 
L 392.365091 167.371619 
L 392.631273 168.304646 
L 394.228364 167.083946 
L 394.494545 167.16362 
L 394.760727 167.06943 
L 395.293091 167.214891 
L 395.825455 167.453911 
L 396.091636 167.457343 
L 396.357818 167.58253 
L 396.624 167.843494 
L 397.156364 168.822059 
L 397.422545 169.191888 
L 399.285818 172.907674 
L 399.818182 173.369142 
L 400.084364 173.822595 
L 400.882909 174.02495 
L 401.149091 175.425609 
L 401.681455 175.462905 
L 401.947636 175.347448 
L 402.213818 175.075105 
L 402.746182 175.137552 
L 403.012364 175.012478 
L 403.278545 174.750859 
L 403.810909 174.782173 
L 404.343273 174.639127 
L 404.609455 174.816354 
L 405.141818 175.492345 
L 405.408 173.053587 
L 406.472727 175.123171 
L 407.271273 176.508861 
L 407.537455 176.692816 
L 407.803636 177.019637 
L 408.868364 179.96812 
L 409.400727 181.801833 
L 409.666909 181.79628 
L 409.933091 181.576066 
L 410.199273 181.550318 
L 410.465455 181.294648 
L 410.731636 179.99353 
L 411.264 179.392674 
L 411.530182 179.289047 
L 411.796364 178.564244 
L 412.062545 178.579912 
L 412.328727 178.973345 
L 412.594909 179.636987 
L 412.861091 179.730895 
L 413.393455 181.112296 
L 413.659636 182.255907 
L 413.925818 178.75101 
L 414.724364 180.922335 
L 414.990545 180.321479 
L 415.522909 181.462257 
L 416.055273 182.786787 
L 417.386182 189.725759 
L 417.918545 191.665459 
L 418.184727 187.253802 
L 418.983273 185.91278 
L 419.249455 184.006313 
L 419.515636 184.213477 
L 419.781818 184.671671 
L 420.314182 186.019895 
L 421.112727 190.594002 
L 421.378909 190.481424 
L 421.645091 191.045706 
L 421.911273 191.0135 
L 422.177455 190.796538 
L 422.443636 185.904675 
L 422.709818 186.517339 
L 422.976 187.48729 
L 423.242182 187.525953 
L 423.508364 185.711802 
L 423.774545 186.001484 
L 424.306909 187.750794 
L 424.573091 188.539274 
L 425.105455 192.614425 
L 425.371636 192.878877 
L 425.904 190.778646 
L 426.170182 186.694735 
L 426.436364 173.873551 
L 426.436364 173.873551 
" clip-path="url(#p695cae914f)" style="fill: none; stroke-dasharray: 3,4.95; stroke-dashoffset: 0; stroke: #ffa500; stroke-width: 3"/>
   </g>
   <g id="line2d_3">
    <path d="M 27.163636 214.943798 
L 27.429818 213.330512 
L 27.696 208.449814 
L 28.494545 201.711029 
L 28.760727 201.694752 
L 29.026909 201.408976 
L 29.293091 199.98985 
L 29.559273 199.900536 
L 29.825455 200.083746 
L 30.091636 200.053967 
L 30.357818 199.492214 
L 30.624 199.835109 
L 31.156364 200.673314 
L 31.422545 201.003927 
L 32.221091 204.829188 
L 33.285818 207.304768 
L 33.552 207.45181 
L 34.350545 208.777108 
L 34.616727 208.706082 
L 35.415273 209.246049 
L 35.681455 208.377681 
L 35.947636 208.099084 
L 36.48 208.124257 
L 36.746182 207.725734 
L 37.544727 208.403102 
L 37.810909 208.21838 
L 38.609455 208.64684 
L 38.875636 208.311057 
L 39.674182 208.242763 
L 39.940364 209.121245 
L 40.472727 209.349111 
L 40.738909 209.477956 
L 41.005091 209.365863 
L 41.803636 209.936241 
L 42.069818 209.92931 
L 42.602182 210.061361 
L 42.868364 210.009706 
L 43.933091 209.106728 
L 44.199273 214.04274 
L 46.062545 210.31282 
L 46.861091 208.65402 
L 47.393455 207.170663 
L 48.192 204.577277 
L 48.458182 206.391586 
L 50.055273 200.499699 
L 50.853818 197.97147 
L 52.983273 186.982351 
L 56.709818 157.954606 
L 56.976 157.801107 
L 58.839273 145.831482 
L 59.105455 145.342042 
L 60.968727 138.864425 
L 61.234909 135.684451 
L 62.299636 130.754287 
L 63.098182 126.836665 
L 65.493818 117.635756 
L 66.292364 111.846638 
L 66.824727 107.322674 
L 67.357091 102.391832 
L 67.889455 99.10629 
L 68.421818 95.433693 
L 68.688 94.435373 
L 71.083636 77.842243 
L 71.616 75.093304 
L 72.148364 72.896275 
L 73.479273 65.378504 
L 73.745455 63.985161 
L 74.011636 63.867762 
L 74.810182 60.103503 
L 75.608727 57.378902 
L 75.874909 56.853091 
L 76.141091 56.651616 
L 76.673455 55.483949 
L 76.939636 55.109627 
L 77.205818 54.988707 
L 77.472 54.427585 
L 77.738182 54.40406 
L 78.270545 55.121909 
L 78.536727 55.1206 
L 78.802909 55.503907 
L 79.069091 56.460346 
L 79.601455 57.528269 
L 80.4 60.353563 
L 81.464727 61.74203 
L 81.730909 61.655019 
L 81.997091 61.776979 
L 82.263273 62.243143 
L 82.529455 63.931519 
L 83.061818 64.131909 
L 83.594182 65.704602 
L 84.126545 66.069261 
L 84.658909 66.949933 
L 84.925091 66.723263 
L 85.457455 66.005324 
L 85.723636 66.293267 
L 85.989818 66.239264 
L 86.522182 65.790213 
L 86.788364 65.101534 
L 87.586909 64.360566 
L 88.119273 64.718001 
L 88.385455 64.70617 
L 89.184 65.571174 
L 89.716364 65.719955 
L 89.982545 65.972272 
L 90.248727 66.411479 
L 90.514909 66.16887 
L 90.781091 65.508637 
L 91.047273 65.312851 
L 91.845818 63.779984 
L 92.644364 65.194279 
L 92.910545 65.565349 
L 93.442909 66.56938 
L 93.709091 66.855653 
L 93.975273 66.908618 
L 94.507636 67.474164 
L 95.04 67.229162 
L 95.306182 61.04152 
L 96.104727 58.235462 
L 96.370909 57.433086 
L 96.637091 57.581325 
L 97.435636 57.549085 
L 97.968 58.012449 
L 98.500364 58.322202 
L 99.032727 59.409225 
L 99.831273 60.057447 
L 100.097455 60.357446 
L 100.363636 60.439625 
L 100.896 61.43282 
L 101.162182 62.142044 
L 101.428364 62.452067 
L 102.226909 64.136831 
L 102.759273 65.085549 
L 103.557818 67.126393 
L 104.888727 69.775859 
L 105.421091 71.393389 
L 106.219636 73.002431 
L 107.284364 76.19455 
L 108.349091 80.611998 
L 108.615273 81.652062 
L 108.881455 81.802738 
L 109.413818 82.90035 
L 109.68 84.014533 
L 109.946182 84.117708 
L 110.212364 84.682645 
L 110.478545 84.849374 
L 111.010909 87.036447 
L 111.809455 89.833271 
L 112.075636 91.617779 
L 112.341818 88.389762 
L 112.608 88.939595 
L 113.672727 94.493396 
L 113.938909 96.098035 
L 114.471273 100.768906 
L 115.003636 104.116511 
L 115.536 110.16411 
L 116.068364 113.362709 
L 116.334545 115.865065 
L 116.600727 119.844028 
L 117.399273 124.485098 
L 117.931636 129.263209 
L 118.464 133.763039 
L 120.327273 159.416199 
L 120.593455 163.177432 
L 121.125818 173.114545 
L 123.255273 201.735548 
L 124.586182 212.660278 
L 124.852364 213.846955 
L 127.248 232.048201 
L 128.312727 241.776185 
L 128.845091 244.917439 
L 129.111273 245.642558 
L 129.377455 235.147575 
L 129.643636 236.064393 
L 130.442182 240.805342 
L 132.039273 251.91642 
L 132.305455 253.168027 
L 132.571636 253.777576 
L 132.837818 254.672855 
L 133.104 255.161369 
L 133.370182 255.328256 
L 133.636364 254.950322 
L 135.233455 258.127564 
L 136.298182 260.658435 
L 136.564364 261.000878 
L 137.096727 261.19287 
L 137.362909 261.063664 
L 137.629091 260.726707 
L 137.895273 259.464127 
L 138.693818 258.856092 
L 138.96 258.787097 
L 139.492364 259.241137 
L 140.557091 259.055579 
L 142.154182 256.744402 
L 142.952727 255.331304 
L 143.485091 254.133068 
L 143.751273 253.657784 
L 144.283636 251.774616 
L 145.880727 245.877311 
L 146.146909 245.114895 
L 146.679273 242.303035 
L 147.477818 240.582397 
L 148.010182 239.602523 
L 148.276364 239.455955 
L 148.808727 238.637753 
L 149.074909 238.41097 
L 149.607273 238.614837 
L 150.405818 238.655024 
L 150.672 238.905129 
L 150.938182 238.754136 
L 151.204364 238.388167 
L 152.002909 238.583636 
L 152.801455 237.725496 
L 153.333818 237.383527 
L 153.866182 236.987531 
L 154.664727 237.495236 
L 155.197091 237.059528 
L 155.463273 236.992588 
L 155.729455 237.167016 
L 155.995636 237.034581 
L 156.261818 237.147555 
L 157.060364 239.392808 
L 157.326545 240.378145 
L 158.657455 247.844035 
L 158.923636 249.066157 
L 159.722182 250.530775 
L 159.988364 251.55815 
L 160.520727 252.569293 
L 161.053091 254.430629 
L 161.319273 254.829311 
L 161.585455 255.021845 
L 162.117818 255.918456 
L 162.384 255.797987 
L 162.650182 255.207426 
L 163.182545 254.729364 
L 163.448727 251.907073 
L 163.981091 249.604476 
L 164.247273 249.181795 
L 164.513455 248.486206 
L 165.045818 246.415787 
L 165.578182 245.521457 
L 166.110545 243.624562 
L 166.642909 242.766151 
L 167.441455 239.619004 
L 167.973818 237.790743 
L 168.24 236.418373 
L 168.506182 235.662572 
L 168.772364 235.340471 
L 169.304727 234.208226 
L 169.570909 234.100919 
L 169.837091 234.430314 
L 170.103273 234.406111 
L 170.635636 233.931662 
L 170.901818 233.87899 
L 171.434182 232.836805 
L 171.966545 231.190015 
L 172.498909 230.566221 
L 172.765091 229.985774 
L 173.297455 230.084931 
L 173.563636 230.19515 
L 173.829818 229.71027 
L 174.096 229.69625 
L 174.362182 229.40413 
L 174.628364 229.277001 
L 175.693091 226.626767 
L 176.491636 223.737898 
L 176.757818 223.242836 
L 177.024 222.291815 
L 177.290182 221.754715 
L 177.556364 221.677886 
L 177.822545 221.858455 
L 178.621091 220.75915 
L 178.887273 220.878649 
L 179.153455 220.694536 
L 179.685818 220.006895 
L 179.952 220.113795 
L 180.484364 219.494516 
L 180.750545 218.952269 
L 181.016727 218.860608 
L 181.549091 217.851023 
L 181.815273 217.213615 
L 182.081455 217.184852 
L 182.347636 216.792334 
L 182.613818 216.08128 
L 182.88 215.048193 
L 183.412364 214.081346 
L 184.477091 209.735963 
L 185.009455 205.879614 
L 186.340364 195.344129 
L 187.138909 190.967184 
L 187.405091 189.137613 
L 188.469818 184.818013 
L 189.800727 177.728974 
L 191.131636 173.785231 
L 192.728727 171.546119 
L 193.793455 169.104855 
L 194.325818 168.218403 
L 195.124364 167.181907 
L 195.922909 165.480481 
L 196.987636 162.825326 
L 202.577455 144.720257 
L 203.376 142.794396 
L 203.908364 140.928003 
L 204.440727 138.396703 
L 204.973091 134.043238 
L 205.505455 128.191583 
L 206.304 118.174165 
L 207.368727 109.399324 
L 207.634909 108.146407 
L 208.433455 102.945051 
L 208.965818 99.644293 
L 209.498182 96.668683 
L 210.030545 94.31732 
L 210.296727 93.136784 
L 211.627636 90.672763 
L 211.893818 90.421259 
L 212.426182 89.383137 
L 212.692364 89.266867 
L 213.224727 89.789517 
L 213.490909 90.401233 
L 214.023273 93.367879 
L 214.555636 96.975275 
L 216.418909 112.982878 
L 218.548364 134.560515 
L 220.677818 146.448639 
L 221.210182 150.828022 
L 223.073455 168.853283 
L 223.872 175.14051 
L 224.670545 179.042509 
L 226.8 187.921903 
L 228.929455 199.976258 
L 229.461818 203.513824 
L 231.325091 212.56952 
L 231.857455 214.678951 
L 233.720727 221.475938 
L 235.051636 224.942207 
L 236.382545 227.617681 
L 238.512 230.594803 
L 243.303273 234.321629 
L 243.835636 234.622825 
L 244.368 234.646892 
L 244.900364 234.913071 
L 245.166545 234.842903 
L 245.432727 234.914629 
L 245.965091 235.241652 
L 246.231273 235.121454 
L 246.497455 235.136129 
L 247.029818 235.459337 
L 247.562182 235.261633 
L 248.094545 235.516163 
L 248.626909 235.221491 
L 249.159273 235.44333 
L 249.691636 235.136851 
L 250.224 235.405266 
L 250.756364 235.067022 
L 251.022545 235.08567 
L 251.288727 235.226187 
L 252.087273 234.694506 
L 252.353455 234.742549 
L 253.152 234.037795 
L 253.418182 234.079675 
L 254.216727 233.587074 
L 254.482909 233.633943 
L 255.281455 233.228962 
L 255.547636 233.267794 
L 256.346182 232.824117 
L 256.612364 232.86787 
L 257.410909 232.473862 
L 257.677091 232.562724 
L 258.475636 232.184745 
L 258.741818 232.297244 
L 259.540364 231.782315 
L 259.806545 231.854651 
L 260.605091 231.133867 
L 260.871273 231.249031 
L 261.137455 231.072955 
L 261.403636 230.678111 
L 261.669818 230.498107 
L 261.936 230.662059 
L 262.202182 230.585276 
L 262.734545 230.130716 
L 263.000727 230.335148 
L 263.266909 230.301374 
L 263.799273 229.944188 
L 264.065455 230.11042 
L 264.331636 230.121618 
L 264.864 229.786963 
L 265.396364 230.133922 
L 265.928727 229.972137 
L 266.194909 230.257688 
L 266.727273 230.300583 
L 266.993455 230.260036 
L 267.259636 230.532288 
L 267.792 230.463136 
L 268.058182 230.386578 
L 268.324364 230.564957 
L 268.856727 230.42681 
L 269.122909 230.323589 
L 269.655273 230.578277 
L 270.187636 230.351539 
L 270.72 230.621827 
L 271.252364 230.408071 
L 271.784727 230.638466 
L 272.317091 230.450628 
L 272.849455 230.686126 
L 273.115636 230.616477 
L 273.381818 230.42024 
L 273.914182 230.702945 
L 274.446545 230.529308 
L 274.978909 230.775236 
L 275.777455 230.843327 
L 276.309818 230.912502 
L 276.576 230.859424 
L 277.108364 231.004096 
L 277.906909 231.012201 
L 278.173091 231.078283 
L 278.971636 230.944087 
L 279.504 230.95393 
L 279.770182 230.874777 
L 280.568727 230.948896 
L 281.101091 230.95673 
L 281.633455 230.992153 
L 282.165818 230.984409 
L 282.698182 231.018455 
L 283.230545 230.993733 
L 285.892364 231.250001 
L 286.424727 231.363833 
L 287.755636 231.441836 
L 288.288 231.433256 
L 288.820364 231.525076 
L 289.352727 231.497735 
L 289.885091 231.59179 
L 290.417455 231.541196 
L 291.216 231.824872 
L 291.748364 231.977468 
L 292.280727 232.112544 
L 293.611636 232.488853 
L 294.410182 232.780995 
L 295.208727 233.140032 
L 296.539636 233.530451 
L 297.870545 233.988375 
L 298.136727 234.004652 
L 301.330909 235.744887 
L 301.597091 235.8363 
L 302.129455 236.317816 
L 302.395636 236.348701 
L 302.661818 236.501455 
L 303.194182 237.113758 
L 303.460364 237.166723 
L 303.992727 237.611055 
L 304.258909 237.880372 
L 304.791273 238.204415 
L 307.985455 241.081681 
L 308.517818 241.895842 
L 309.050182 242.526138 
L 309.582545 243.291646 
L 310.114909 243.788808 
L 310.647273 244.566169 
L 311.179636 245.249136 
L 311.712 246.367112 
L 311.978182 246.635775 
L 313.309091 249.30477 
L 313.841455 250.686261 
L 314.107636 250.965986 
L 314.64 252.143451 
L 314.906182 252.772348 
L 315.172364 252.979015 
L 315.438545 253.460508 
L 315.970909 254.83333 
L 316.237091 255.025751 
L 316.503273 255.467261 
L 317.035636 257.059438 
L 317.568 257.985082 
L 318.366545 260.202092 
L 318.898909 261.086737 
L 319.431273 262.482361 
L 319.697455 262.860137 
L 319.963636 263.442955 
L 320.229818 264.635704 
L 321.560727 267.432213 
L 322.625455 269.210828 
L 323.424 269.867877 
L 323.956364 270.128887 
L 324.222545 270.128142 
L 324.488727 267.524484 
L 325.021091 267.775356 
L 326.352 269.378121 
L 326.884364 270.328171 
L 328.481455 272.428798 
L 328.747636 273.825054 
L 329.28 274.617903 
L 329.546182 274.896657 
L 330.078545 275.840002 
L 334.603636 281.9145 
L 335.402182 282.383509 
L 335.668364 282.753722 
L 336.733091 283.469866 
L 336.999273 283.731383 
L 337.531636 283.980596 
L 338.064 284.679977 
L 340.992 287.670464 
L 341.258182 287.992679 
L 341.524364 287.199853 
L 342.056727 287.537104 
L 342.855273 288.151111 
L 343.387636 288.489694 
L 343.92 289.010222 
L 344.452364 289.374757 
L 344.984727 289.938757 
L 345.517091 290.341593 
L 345.783273 290.143256 
L 347.114182 291.034348 
L 347.646545 291.177631 
L 348.178909 291.621488 
L 348.711273 291.707822 
L 349.243636 292.085361 
L 349.776 292.096581 
L 350.308364 291.860135 
L 350.840727 291.378507 
L 351.106909 291.290446 
L 351.639273 290.483657 
L 352.704 288.591492 
L 355.099636 282.504407 
L 355.898182 280.181185 
L 356.430545 278.657055 
L 356.962909 277.128657 
L 358.293818 272.416855 
L 359.092364 268.47327 
L 359.624727 264.681806 
L 360.955636 252.779256 
L 361.754182 247.754857 
L 363.085091 239.942957 
L 365.746909 220.42366 
L 366.545455 214.907924 
L 366.811636 212.787136 
L 367.344 207.055206 
L 367.876364 202.726259 
L 369.473455 192.579296 
L 370.272 188.841407 
L 372.667636 179.653818 
L 373.466182 177.67488 
L 374.797091 175.140284 
L 375.329455 174.11555 
L 375.595636 175.519121 
L 376.660364 172.81231 
L 377.192727 171.756714 
L 378.257455 170.12548 
L 378.789818 169.348886 
L 379.588364 167.435082 
L 379.854545 167.377195 
L 380.653091 164.893668 
L 381.717818 162.226502 
L 381.984 161.8499 
L 383.314909 158.540087 
L 383.847273 156.776215 
L 384.113455 154.32714 
L 384.912 152.469122 
L 385.444364 151.641731 
L 386.242909 151.123506 
L 386.509091 151.147302 
L 388.106182 150.110218 
L 388.372364 150.838317 
L 389.703273 150.032103 
L 389.969455 150.164425 
L 390.235636 149.994603 
L 390.768 150.029777 
L 391.034182 150.17481 
L 392.365091 149.327032 
L 392.631273 151.219953 
L 393.962182 149.91204 
L 394.760727 149.879371 
L 395.559273 150.155959 
L 395.825455 150.361768 
L 396.091636 150.279769 
L 396.624 150.532493 
L 396.890182 153.461233 
L 397.688727 154.244464 
L 397.954909 154.731082 
L 398.221091 154.854102 
L 398.753455 155.363139 
L 399.019636 155.92259 
L 399.818182 155.85793 
L 400.084364 156.276051 
L 400.882909 155.942954 
L 401.149091 156.782807 
L 401.415273 156.759757 
L 402.213818 156.402683 
L 402.48 156.32739 
L 403.012364 155.868316 
L 403.544727 155.771597 
L 404.077091 155.276806 
L 404.343273 155.466676 
L 404.609455 155.46505 
L 405.141818 155.846822 
L 405.408 154.318922 
L 406.472727 156.308381 
L 407.005091 156.665138 
L 407.271273 156.512474 
L 407.537455 156.538437 
L 407.803636 156.358727 
L 408.336 156.995186 
L 409.400727 159.962442 
L 409.666909 157.50463 
L 409.933091 157.124573 
L 410.199273 156.985907 
L 410.465455 156.593118 
L 410.731636 155.388019 
L 411.264 154.324114 
L 411.530182 154.03301 
L 411.796364 153.402398 
L 412.062545 153.228151 
L 412.328727 153.45674 
L 412.594909 153.952389 
L 412.861091 154.077283 
L 413.127273 154.536335 
L 413.393455 155.263937 
L 413.659636 156.374101 
L 413.925818 151.373385 
L 414.724364 154.074145 
L 414.990545 153.692779 
L 415.256727 154.030075 
L 416.055273 156.131786 
L 416.587636 159.277172 
L 417.386182 163.890517 
L 417.918545 166.241316 
L 418.184727 161.09051 
L 418.717091 160.059906 
L 418.983273 159.228587 
L 419.249455 157.367679 
L 419.515636 157.413149 
L 419.781818 157.658174 
L 420.314182 159.424033 
L 421.112727 163.779891 
L 421.378909 164.030086 
L 421.645091 164.642299 
L 422.177455 164.548764 
L 422.443636 160.473601 
L 423.242182 163.628944 
L 423.508364 162.897617 
L 423.774545 163.381864 
L 424.306909 165.706745 
L 424.573091 168.01738 
L 425.105455 174.272842 
L 425.637818 178.749667 
L 425.904 179.695495 
L 426.170182 177.709829 
L 426.436364 170.789302 
L 426.436364 170.789302 
" clip-path="url(#p695cae914f)" style="fill: none; stroke: #ffa500; stroke-width: 3; stroke-linecap: square"/>
   </g>
   <g id="patch_3">
    <path d="M 7.2 331.2 
L 7.2 7.2 
" style="fill: none; stroke: #000000; stroke-width: 0.8; stroke-linejoin: miter; stroke-linecap: square"/>
   </g>
   <g id="patch_4">
    <path d="M 446.4 331.2 
L 446.4 7.2 
" style="fill: none; stroke: #000000; stroke-width: 0.8; stroke-linejoin: miter; stroke-linecap: square"/>
   </g>
   <g id="patch_5">
    <path d="M 7.2 331.2 
L 446.4 331.2 
" style="fill: none; stroke: #000000; stroke-width: 0.8; stroke-linejoin: miter; stroke-linecap: square"/>
   </g>
   <g id="patch_6">
    <path d="M 7.2 7.2 
L 446.4 7.2 
" style="fill: none; stroke: #000000; stroke-width: 0.8; stroke-linejoin: miter; stroke-linecap: square"/>
   </g>
  </g>
 </g>
 <defs>
  <clipPath id="p695cae914f">
   <rect x="7.2" y="7.2" width="439.2" height="324"/>
  </clipPath>
 </defs>
</svg>
