<?xml version="1.0" encoding="utf-8" standalone="no"?>
<!DOCTYPE svg PUBLIC "-//W3C//DTD SVG 1.1//EN"
  "http://www.w3.org/Graphics/SVG/1.1/DTD/svg11.dtd">
<svg xmlns:xlink="http://www.w3.org/1999/xlink" width="453.6pt" height="338.4pt" viewBox="0 0 453.6 338.4" xmlns="http://www.w3.org/2000/svg" version="1.1">
 <metadata>
  <rdf:RDF xmlns:dc="http://purl.org/dc/elements/1.1/" xmlns:cc="http://creativecommons.org/ns#" xmlns:rdf="http://www.w3.org/1999/02/22-rdf-syntax-ns#">
   <cc:Work>
    <dc:type rdf:resource="http://purl.org/dc/dcmitype/StillImage"/>
    <dc:date>2025-05-14T08:51:54.668548</dc:date>
    <dc:format>image/svg+xml</dc:format>
    <dc:creator>
     <cc:Agent>
      <dc:title>Matplotlib v3.10.1, https://matplotlib.org/</dc:title>
     </cc:Agent>
    </dc:creator>
   </cc:Work>
  </rdf:RDF>
 </metadata>
 <defs>
  <style type="text/css">*{stroke-linejoin: round; stroke-linecap: butt}</style>
 </defs>
 <g id="figure_1">
  <g id="patch_1">
   <path d="M 0 338.4 
L 453.6 338.4 
L 453.6 0 
L 0 0 
z
" style="fill: #ffffff"/>
  </g>
  <g id="axes_1">
   <g id="patch_2">
    <path d="M 7.2 331.2 
L 446.4 331.2 
L 446.4 7.2 
L 7.2 7.2 
z
" style="fill: #ffffff"/>
   </g>
   <g id="matplotlib.axis_1"/>
   <g id="matplotlib.axis_2"/>
   <g id="line2d_1">
    <path d="M 27.163636 276.033393 
L 117.399273 39.809482 
L 117.665455 39.510649 
L 198.850909 21.927273 
L 202.577455 26.947748 
L 279.770182 131.221831 
L 280.568727 131.362383 
L 336.466909 138.338338 
L 336.999273 140.171858 
L 374.530909 284.252354 
L 374.797091 284.781832 
L 426.436364 316.472727 
L 426.436364 316.472727 
" clip-path="url(#pf345d74ec4)" style="fill: none; stroke-dasharray: 11.1,4.8; stroke-dashoffset: 0; stroke: #000000; stroke-width: 3"/>
   </g>
   <g id="line2d_2">
    <path d="M 27.163636 126.203397 
L 29.026909 134.866509 
L 30.890182 142.434142 
L 32.487273 148.062532 
L 34.084364 152.94491 
L 35.681455 157.098238 
L 37.012364 159.954104 
L 38.077091 161.767677 
L 38.875636 162.780579 
L 39.674182 163.438891 
L 40.206545 163.631569 
L 40.738909 163.603013 
L 41.271273 163.303424 
L 41.537455 163.046635 
L 41.803636 162.37832 
L 42.336 160.116488 
L 43.134545 155.542563 
L 43.933091 150.667803 
L 44.731636 150.290439 
L 45.530182 149.564314 
L 46.328727 148.487742 
L 47.127273 147.046253 
L 48.192 144.543171 
L 49.256727 141.361281 
L 50.321455 137.497636 
L 51.652364 131.775283 
L 53.249455 123.855454 
L 56.709818 106.309891 
L 57.508364 103.255399 
L 58.306909 101.058041 
L 58.839273 100.206541 
L 59.105455 100.018693 
L 59.371636 99.988243 
L 59.637818 100.125084 
L 59.904 100.476867 
L 60.436364 101.78766 
L 60.702545 101.844164 
L 60.968727 101.105789 
L 61.234909 100.72972 
L 61.501091 100.655939 
L 61.767273 100.851032 
L 62.299636 101.83635 
L 63.098182 104.29565 
L 66.292364 115.610014 
L 67.357091 118.181202 
L 68.155636 119.596481 
L 68.954182 120.611583 
L 69.752727 121.273331 
L 70.551273 121.639308 
L 71.349818 121.74564 
L 72.148364 121.641389 
L 73.213091 121.212763 
L 74.277818 120.463177 
L 75.076364 119.706563 
L 76.141091 118.358193 
L 77.472 116.230375 
L 78.270545 114.789376 
L 79.069091 112.862718 
L 79.867636 110.270699 
L 80.666182 106.875477 
L 81.464727 102.412498 
L 82.263273 96.579238 
L 82.529455 94.284757 
L 82.795636 93.388003 
L 83.061818 93.77752 
L 84.925091 100.558383 
L 86.256 104.680083 
L 87.586909 108.070553 
L 88.917818 110.849026 
L 90.514909 114.111216 
L 91.313455 116.237463 
L 92.112 119.170192 
L 92.910545 123.414459 
L 93.442909 127.288509 
L 93.709091 129.623651 
L 95.04 135.176395 
L 95.306182 134.759921 
L 96.637091 129.287574 
L 97.968 124.758157 
L 99.565091 120.146577 
L 101.428364 115.533897 
L 103.025455 112.193215 
L 104.090182 110.465575 
L 104.888727 109.594933 
L 105.421091 109.311178 
L 105.953455 109.341904 
L 106.485818 109.76572 
L 107.018182 110.696066 
L 107.550545 112.24589 
L 108.082909 114.585547 
L 108.615273 117.881682 
L 109.147636 122.353181 
L 109.68 128.285057 
L 110.478545 140.302555 
L 111.543273 157.260563 
L 112.608 140.157173 
L 113.406545 130.623949 
L 114.205091 123.546785 
L 115.003636 118.438825 
L 115.802182 114.882162 
L 116.600727 112.459084 
L 117.399273 110.833399 
L 118.197818 109.683183 
L 120.327273 106.950318 
L 121.125818 105.421285 
L 121.924364 103.335069 
L 122.722909 100.547467 
L 122.989091 102.143625 
L 124.053818 111.727914 
L 125.118545 119.718873 
L 126.449455 127.897052 
L 127.780364 134.518868 
L 129.111273 140.122815 
L 130.708364 145.916063 
L 133.104 153.579623 
L 135.765818 162.14993 
L 137.362909 167.985016 
L 137.629091 169.035898 
L 137.895273 168.602118 
L 140.823273 142.281771 
L 141.888 135.789826 
L 142.952727 130.783309 
L 144.549818 124.986626 
L 145.082182 123.771916 
L 145.614545 122.996533 
L 146.146909 122.614614 
L 146.679273 122.578705 
L 147.211636 122.841511 
L 147.744 123.366339 
L 148.542545 124.584406 
L 149.341091 126.230392 
L 150.405818 128.951556 
L 151.736727 133.031418 
L 153.333818 138.677124 
L 155.197091 146.059933 
L 156.261818 150.306891 
L 158.923636 151.437905 
L 160.254545 152.103108 
L 163.714909 156.902399 
L 165.312 158.732091 
L 166.909091 160.265698 
L 168.772364 161.731955 
L 170.635636 162.927247 
L 171.434182 163.372365 
L 171.700364 163.270107 
L 171.966545 162.753986 
L 173.297455 158.248473 
L 174.894545 151.900653 
L 177.556364 140.91096 
L 180.218182 132.924085 
L 181.016727 131.276214 
L 181.549091 130.602922 
L 182.081455 130.366384 
L 182.347636 130.451886 
L 182.613818 130.677252 
L 183.146182 131.603809 
L 183.678545 133.257059 
L 184.210909 135.723938 
L 184.743273 139.074534 
L 185.541818 145.971546 
L 186.340364 155.297466 
L 186.872727 162.926825 
L 187.671273 159.229629 
L 188.469818 156.407473 
L 189.268364 154.383258 
L 190.066909 153.072465 
L 190.599273 152.541669 
L 191.131636 152.250061 
L 191.664 152.162616 
L 192.196364 152.257737 
L 192.994909 152.662294 
L 193.793455 153.11175 
L 194.858182 153.455504 
L 195.656727 153.916053 
L 196.455273 154.593272 
L 197.253818 155.533473 
L 198.052364 156.780557 
L 199.117091 158.96855 
L 200.181818 161.785965 
L 201.512727 166.130832 
L 202.577455 169.832082 
L 202.843636 169.194591 
L 204.174545 163.438096 
L 206.304 152.82348 
L 207.901091 145.182105 
L 208.965818 141.002528 
L 209.764364 138.640293 
L 210.296727 137.567216 
L 210.829091 136.959046 
L 211.361455 136.639775 
L 211.893818 136.590968 
L 212.426182 136.789457 
L 212.958545 137.24822 
L 214.023273 138.352435 
L 215.354182 139.388308 
L 217.483636 140.700691 
L 219.346909 141.897378 
L 220.677818 143.029589 
L 221.742545 144.28488 
L 222.541091 145.553561 
L 223.339636 147.231784 
L 224.138182 149.482131 
L 224.936727 152.524313 
L 225.735273 156.657616 
L 226.267636 159.508024 
L 226.8 152.127748 
L 227.598545 149.785008 
L 228.663273 145.753365 
L 232.123636 131.617042 
L 233.188364 128.596239 
L 233.986909 127.042999 
L 234.519273 126.365133 
L 235.051636 125.980092 
L 235.584 125.87533 
L 236.116364 126.039344 
L 236.648727 126.452126 
L 237.447273 127.482483 
L 238.245818 128.916413 
L 239.576727 131.913106 
L 242.504727 138.791113 
L 243.569455 137.279063 
L 248.094545 125.320641 
L 249.691636 121.918744 
L 251.288727 118.964694 
L 252.885818 116.438681 
L 254.216727 114.769213 
L 255.015273 114.057264 
L 255.547636 113.754485 
L 256.08 113.647486 
L 256.612364 113.776297 
L 257.144727 114.205473 
L 257.677091 115.02293 
L 258.209455 116.329934 
L 258.741818 118.229793 
L 259.274182 120.911024 
L 259.806545 124.529571 
L 260.871273 132.739064 
L 261.137455 133.328602 
L 261.669818 133.603483 
L 262.202182 133.690358 
L 262.734545 133.588463 
L 263.266909 133.297601 
L 263.799273 132.82274 
L 264.597818 131.775597 
L 265.396364 130.34467 
L 266.461091 127.908007 
L 267.792 124.154248 
L 269.655273 118.017228 
L 272.849455 107.257711 
L 274.180364 103.537799 
L 275.245091 101.19129 
L 276.043636 99.894201 
L 276.576 99.278316 
L 276.842182 98.64692 
L 278.173091 93.094903 
L 278.971636 89.98479 
L 279.504 90.378784 
L 280.036364 90.99834 
L 280.834909 92.329414 
L 281.633455 94.100207 
L 282.698182 97.058518 
L 284.029091 101.503199 
L 286.690909 111.469172 
L 288.554182 118.065427 
L 289.885091 122.063458 
L 290.949818 124.668572 
L 292.014545 126.659529 
L 292.813091 127.710441 
L 293.345455 128.186971 
L 295.741091 135.803942 
L 297.604364 141.009694 
L 299.201455 144.762883 
L 300.532364 147.320957 
L 301.863273 149.336317 
L 302.928 150.583126 
L 303.992727 151.532614 
L 304.525091 151.906386 
L 305.323636 151.048348 
L 306.388364 148.878575 
L 307.453091 147.287699 
L 308.517818 146.220138 
L 309.316364 145.751225 
L 309.848727 145.587683 
L 310.114909 145.132356 
L 311.445818 141.246683 
L 312.510545 138.706397 
L 313.575273 136.652105 
L 314.64 135.059481 
L 315.704727 133.877971 
L 316.769455 133.052327 
L 317.834182 132.499444 
L 321.028364 131.120485 
L 321.826909 130.384172 
L 322.625455 129.248053 
L 323.424 127.545406 
L 324.222545 125.079195 
L 325.021091 121.621226 
L 325.819636 116.87251 
L 326.618182 110.542635 
L 327.682909 95.050068 
L 328.481455 96.31174 
L 329.546182 98.446586 
L 331.675636 103.406671 
L 334.603636 110.131207 
L 336.466909 113.905089 
L 338.330182 117.202461 
L 339.927273 119.638555 
L 341.524364 121.684758 
L 342.855273 123.036486 
L 343.387636 123.590115 
L 343.653818 124.175707 
L 344.718545 131.976324 
L 345.517091 135.927139 
L 346.315636 138.68537 
L 347.380364 141.366228 
L 348.977455 145.222962 
L 349.776 147.789929 
L 350.574545 151.110389 
L 351.373091 155.359506 
L 352.171636 160.670863 
L 352.970182 166.315666 
L 353.768727 160.38169 
L 354.567273 156.156171 
L 355.365818 153.321057 
L 355.898182 152.058738 
L 356.430545 151.216328 
L 356.962909 150.715492 
L 357.495273 150.514333 
L 358.027636 150.544764 
L 358.56 150.762061 
L 359.358545 151.350617 
L 359.890909 151.866276 
L 360.955636 152.077782 
L 362.020364 152.505073 
L 363.085091 153.167528 
L 364.149818 154.097383 
L 365.214545 155.29668 
L 366.545455 157.142707 
L 368.941091 160.988033 
L 370.538182 163.335524 
L 371.602909 164.489509 
L 371.869091 164.565272 
L 372.135273 164.226653 
L 373.2 162.169494 
L 373.998545 161.020702 
L 374.797091 160.182376 
L 375.595636 159.622248 
L 376.394182 159.306669 
L 377.725091 159.194839 
L 379.056 159.277278 
L 380.120727 159.526479 
L 381.185455 159.971214 
L 382.250182 160.626159 
L 383.581091 161.738227 
L 384.912 163.140785 
L 386.775273 165.439723 
L 389.703273 169.103386 
L 390.501818 169.942518 
L 390.768 168.274209 
L 391.832727 159.136706 
L 392.897455 152.132617 
L 393.163636 150.686278 
L 393.962182 149.90096 
L 395.026909 148.482716 
L 396.624 145.907699 
L 398.221091 143.344659 
L 399.552 141.655461 
L 400.350545 140.959846 
L 401.149091 140.549125 
L 401.947636 140.442282 
L 402.746182 140.662643 
L 403.544727 141.189551 
L 404.343273 142.017629 
L 405.408 143.514896 
L 406.738909 145.878014 
L 409.666909 151.723623 
L 411.264 155.45928 
L 411.530182 155.735751 
L 412.062545 155.315567 
L 412.861091 154.26069 
L 413.925818 152.363834 
L 416.853818 146.825029 
L 417.652364 145.803252 
L 418.450909 145.183813 
L 418.983273 145.022117 
L 419.515636 145.088633 
L 420.048 145.393434 
L 420.580364 145.940997 
L 421.378909 147.227347 
L 422.177455 149.069466 
L 422.976 151.443402 
L 424.040727 155.349846 
L 425.371636 161.213547 
L 426.436364 166.419976 
L 426.436364 166.419976 
" clip-path="url(#pf345d74ec4)" style="fill: none; stroke-dasharray: 3,4.95; stroke-dashoffset: 0; stroke: #ffa500; stroke-width: 3"/>
   </g>
   <g id="line2d_3">
    <path d="M 27.163636 119.769075 
L 29.026909 129.314294 
L 30.890182 137.6932 
L 32.753455 144.985737 
L 34.616727 151.321796 
L 36.213818 156.0316 
L 37.544727 159.379114 
L 38.609455 161.559087 
L 39.408 162.803569 
L 40.206545 163.604652 
L 40.738909 163.831609 
L 41.271273 163.744046 
L 41.537455 163.572572 
L 41.803636 162.950453 
L 42.336 160.670097 
L 43.134545 155.828988 
L 43.933091 150.396103 
L 44.465455 149.866563 
L 44.997818 149.026863 
L 45.796364 147.163638 
L 46.594909 144.585382 
L 47.393455 141.282945 
L 48.192 137.797628 
L 49.256727 135.509644 
L 50.321455 132.74036 
L 51.652364 128.52189 
L 52.983273 123.521459 
L 56.976 107.813244 
L 57.774545 105.820639 
L 58.306909 105.017553 
L 58.839273 104.720311 
L 59.105455 104.816021 
L 59.371636 105.071976 
L 59.637818 105.499935 
L 60.170182 107.000912 
L 60.436364 108.076915 
L 60.702545 108.566815 
L 60.968727 108.204725 
L 61.234909 108.22422 
L 61.501091 108.559512 
L 62.033455 110.005988 
L 62.832 113.391649 
L 65.76 127.552337 
L 66.026182 127.854959 
L 66.824727 127.108887 
L 67.889455 126.450713 
L 68.688 126.174733 
L 69.486545 126.063316 
L 70.285091 126.112064 
L 71.349818 126.396526 
L 73.213091 127.244178 
L 74.810182 127.817028 
L 75.608727 127.856038 
L 76.141091 127.722692 
L 76.673455 127.430612 
L 77.205818 127.071114 
L 77.738182 126.802044 
L 78.270545 126.201963 
L 78.802909 125.231272 
L 79.335273 123.841181 
L 79.867636 121.977034 
L 80.666182 118.279838 
L 81.464727 113.980028 
L 82.263273 108.121854 
L 82.529455 105.764685 
L 82.795636 104.887289 
L 83.061818 105.372104 
L 84.658909 111.880796 
L 85.989818 116.480106 
L 87.320727 120.194167 
L 88.651636 123.134376 
L 90.781091 127.58854 
L 91.579636 129.977122 
L 92.378182 133.393332 
L 92.910545 136.522135 
L 93.442909 140.579458 
L 93.709091 143.032731 
L 95.04 147.970689 
L 95.306182 147.305054 
L 96.637091 140.304086 
L 98.234182 133.201066 
L 99.831273 127.209015 
L 101.428364 122.162978 
L 104.622545 113.383639 
L 105.421091 112.119336 
L 105.953455 111.723654 
L 106.219636 111.688747 
L 106.485818 111.778469 
L 106.752 112.00519 
L 107.284364 112.964534 
L 107.816727 114.68544 
L 108.349091 117.354969 
L 108.881455 121.191304 
L 109.413818 126.443213 
L 109.946182 133.424371 
L 111.010909 152.029288 
L 111.277091 157.401861 
L 111.543273 160.11907 
L 112.608 141.620475 
L 113.406545 131.234906 
L 114.205091 123.44065 
L 115.003636 117.709206 
L 115.802182 113.581205 
L 116.600727 110.592326 
L 117.665455 107.7129 
L 119.528727 103.271851 
L 120.327273 100.765962 
L 121.125818 97.509977 
L 122.190545 92.745829 
L 122.722909 91.210651 
L 122.989091 93.274446 
L 124.586182 111.095125 
L 125.917091 123.80058 
L 126.981818 132.26968 
L 128.046545 139.003699 
L 128.845091 142.946856 
L 129.643636 145.853238 
L 130.176 147.168821 
L 130.708364 147.95461 
L 130.974545 148.135253 
L 131.240727 148.179976 
L 131.506909 148.069678 
L 131.773091 147.817435 
L 132.305455 146.83406 
L 132.571636 146.091994 
L 132.837818 147.191929 
L 134.701091 159.310281 
L 136.298182 168.33297 
L 137.629091 174.838403 
L 137.895273 174.407165 
L 138.693818 165.307927 
L 141.089455 138.364372 
L 142.952727 117.693834 
L 143.485091 116.012626 
L 144.549818 113.14341 
L 145.082182 112.355422 
L 145.614545 112.006231 
L 146.146909 112.046184 
L 146.679273 112.430459 
L 147.211636 113.109897 
L 148.010182 114.608773 
L 148.808727 116.606758 
L 149.873455 119.88644 
L 151.204364 124.802783 
L 152.801455 131.680338 
L 155.995636 146.144748 
L 156.261818 147.060231 
L 160.254545 148.751138 
L 160.786909 149.173796 
L 161.319273 149.362979 
L 161.851636 149.275691 
L 162.384 148.864341 
L 162.916364 148.07761 
L 163.448727 146.873836 
L 163.714909 146.102713 
L 163.981091 146.376809 
L 164.779636 150.559645 
L 165.844364 155.059456 
L 166.909091 158.547051 
L 167.707636 160.564158 
L 168.506182 162.12481 
L 169.304727 163.292253 
L 170.103273 164.135625 
L 171.168 164.882913 
L 171.434182 165.021463 
L 171.700364 164.887459 
L 171.966545 164.306039 
L 173.297455 159.364291 
L 174.894545 152.614546 
L 176.225455 144.471589 
L 177.024 139.439962 
L 178.621091 132.162366 
L 180.484364 123.783873 
L 181.282909 121.001905 
L 181.815273 119.643934 
L 182.347636 118.830149 
L 182.613818 118.65787 
L 182.88 118.65359 
L 183.146182 118.850528 
L 183.412364 119.257048 
L 183.944727 120.725081 
L 184.477091 123.203857 
L 185.009455 126.786338 
L 185.541818 131.563974 
L 186.074182 138.003224 
L 186.872727 154.796944 
L 187.405091 154.600457 
L 188.203636 154.002674 
L 189.268364 152.821595 
L 192.462545 149.047674 
L 193.261091 148.458018 
L 194.325818 147.970198 
L 195.124364 147.861432 
L 195.922909 148.018299 
L 196.721455 148.495635 
L 197.52 149.337534 
L 198.318545 150.591765 
L 199.117091 152.291447 
L 200.181818 155.155893 
L 201.246545 158.826251 
L 202.577455 164.359598 
L 202.843636 163.893894 
L 205.239273 156.580439 
L 207.634909 148.723357 
L 208.699636 145.939662 
L 209.498182 144.364178 
L 210.296727 143.234734 
L 210.829091 142.672702 
L 211.361455 142.414607 
L 211.893818 142.434672 
L 212.426182 142.712655 
L 212.958545 143.260846 
L 214.023273 144.517805 
L 215.088 145.419232 
L 216.418909 146.130533 
L 217.749818 146.614446 
L 219.613091 147.054263 
L 222.008727 147.619672 
L 223.073455 148.154022 
L 223.872 148.856881 
L 224.138182 149.699566 
L 225.469091 159.76871 
L 226.267636 166.228339 
L 226.8 159.263044 
L 227.332364 158.155059 
L 228.130909 155.702493 
L 229.195636 151.383463 
L 232.123636 138.505847 
L 233.188364 135.685281 
L 233.986909 134.284804 
L 234.519273 133.750631 
L 235.051636 133.563373 
L 235.584 133.722615 
L 236.116364 134.224806 
L 236.648727 135.059913 
L 237.447273 136.870384 
L 238.245818 139.242887 
L 239.576727 144.027159 
L 241.972364 152.797035 
L 242.504727 154.316781 
L 243.569455 153.266281 
L 244.634182 151.969918 
L 245.166545 150.505851 
L 247.828364 140.360766 
L 249.691636 135.196479 
L 252.087273 129.259362 
L 254.216727 124.542863 
L 255.281455 122.578293 
L 256.08 121.462788 
L 256.612364 120.977776 
L 257.144727 120.774261 
L 257.410909 120.803691 
L 257.677091 120.945853 
L 257.943273 121.271897 
L 258.475636 122.874887 
L 259.008 125.196522 
L 259.540364 128.351377 
L 260.871273 137.700935 
L 261.137455 137.911224 
L 261.936 137.079494 
L 262.734545 135.946595 
L 264.065455 133.578647 
L 267.259636 127.513503 
L 268.058182 126.419732 
L 269.389091 118.193688 
L 270.453818 112.746746 
L 271.252364 109.477116 
L 272.583273 105.01345 
L 273.648 102.116296 
L 274.712727 99.750409 
L 275.777455 97.838829 
L 276.576 96.657947 
L 276.842182 95.893205 
L 278.173091 89.370181 
L 278.971636 85.529429 
L 279.504 85.530175 
L 280.036364 85.707598 
L 280.834909 86.25359 
L 281.899636 87.369349 
L 283.230545 89.095182 
L 284.295273 90.644928 
L 284.827636 91.142152 
L 285.36 91.357662 
L 285.892364 91.20908 
L 286.424727 90.617383 
L 286.690909 91.157721 
L 287.755636 99.251399 
L 290.417455 119.193476 
L 291.748364 127.838055 
L 292.813091 133.636976 
L 293.611636 137.911695 
L 294.676364 144.547078 
L 295.741091 149.674278 
L 296.539636 152.407654 
L 297.072 153.66057 
L 297.604364 154.453505 
L 297.870545 154.678518 
L 298.136727 154.041056 
L 298.669091 151.358627 
L 299.201455 149.480266 
L 299.733818 148.276099 
L 300.266182 147.61712 
L 300.798545 147.382329 
L 301.330909 147.464061 
L 302.129455 147.995407 
L 303.992727 149.502451 
L 304.525091 149.871354 
L 305.323636 148.887606 
L 306.654545 145.811714 
L 307.719273 143.885821 
L 308.784 142.44816 
L 309.582545 141.771746 
L 309.848727 141.627385 
L 310.114909 140.918381 
L 311.445818 133.789662 
L 312.776727 125.369802 
L 314.107636 116.032259 
L 314.373818 115.484775 
L 319.697455 118.178787 
L 320.496 118.30487 
L 321.028364 118.244852 
L 321.560727 118.028536 
L 322.093091 117.619582 
L 322.625455 116.966571 
L 323.157818 116.021284 
L 323.690182 114.719444 
L 324.488727 111.953438 
L 325.287273 107.970661 
L 326.085818 102.573861 
L 326.618182 97.947124 
L 327.682909 81.163162 
L 328.481455 82.186293 
L 329.812364 84.373147 
L 331.941818 88.254873 
L 332.208 89.397078 
L 333.272727 96.710072 
L 334.337455 102.527233 
L 335.402182 107.017718 
L 336.200727 109.600705 
L 336.999273 111.549903 
L 337.797818 112.888712 
L 338.330182 113.450076 
L 338.862545 113.754446 
L 339.394909 113.806395 
L 339.927273 113.609241 
L 340.459636 113.171465 
L 341.258182 112.098624 
L 342.056727 110.577287 
L 343.387636 107.614461 
L 343.653818 107.603309 
L 344.718545 113.545453 
L 345.517091 116.268875 
L 346.315636 118.107677 
L 347.114182 119.741765 
L 347.380364 120.544556 
L 349.509818 130.96458 
L 350.574545 136.969294 
L 351.639273 144.289553 
L 352.970182 155.013534 
L 353.768727 148.969201 
L 354.567273 144.649699 
L 355.365818 141.746341 
L 355.898182 140.455535 
L 356.430545 139.598439 
L 356.962909 139.097466 
L 357.495273 138.91054 
L 358.027636 138.967908 
L 358.56 139.223077 
L 359.358545 139.884275 
L 359.890909 140.455122 
L 360.689455 140.776357 
L 361.488 141.320817 
L 362.286545 142.118346 
L 363.085091 143.183963 
L 364.149818 145.044361 
L 364.416 145.585601 
L 368.941091 162.870341 
L 370.272 167.022216 
L 371.336727 169.778347 
L 371.869091 170.744307 
L 372.135273 170.678164 
L 372.933818 169.817485 
L 373.732364 169.258879 
L 374.530909 168.969205 
L 375.329455 168.886089 
L 378.789818 168.932776 
L 379.588364 168.676645 
L 380.386909 168.217666 
L 381.185455 167.489991 
L 381.984 166.425572 
L 382.782545 164.96868 
L 383.581091 163.055175 
L 384.379636 160.62505 
L 384.645818 160.668821 
L 386.775273 172.542429 
L 387.84 177.072611 
L 388.638545 179.749405 
L 389.437091 181.775701 
L 390.235636 183.171426 
L 390.501818 183.49859 
L 390.768 181.706583 
L 392.098909 169.130666 
L 393.163636 160.931402 
L 393.696 159.199414 
L 394.494545 155.75507 
L 395.293091 151.308681 
L 396.357818 143.86715 
L 397.422545 135.144688 
L 398.487273 126.464613 
L 400.084364 136.302619 
L 401.681455 144.762569 
L 403.278545 152.080805 
L 404.875636 158.303936 
L 406.206545 162.57142 
L 407.271273 165.313425 
L 408.336 167.378554 
L 408.868364 168.341098 
L 409.400727 169.4059 
L 409.933091 166.353047 
L 410.731636 162.597875 
L 411.796364 158.240482 
L 413.127273 151.941726 
L 414.192 147.793423 
L 415.256727 144.468802 
L 416.055273 142.569629 
L 416.853818 141.24152 
L 417.386182 140.704245 
L 417.918545 140.461503 
L 418.450909 140.536697 
L 418.983273 140.936836 
L 419.515636 141.678568 
L 420.048 142.784845 
L 420.846545 145.112919 
L 421.645091 148.282107 
L 422.443636 152.285734 
L 423.508364 158.9124 
L 424.573091 166.928695 
L 425.904 178.746908 
L 426.436364 183.966069 
L 426.436364 183.966069 
" clip-path="url(#pf345d74ec4)" style="fill: none; stroke: #ffa500; stroke-width: 3; stroke-linecap: square"/>
   </g>
   <g id="patch_3">
    <path d="M 7.2 331.2 
L 7.2 7.2 
" style="fill: none; stroke: #000000; stroke-width: 0.8; stroke-linejoin: miter; stroke-linecap: square"/>
   </g>
   <g id="patch_4">
    <path d="M 446.4 331.2 
L 446.4 7.2 
" style="fill: none; stroke: #000000; stroke-width: 0.8; stroke-linejoin: miter; stroke-linecap: square"/>
   </g>
   <g id="patch_5">
    <path d="M 7.2 331.2 
L 446.4 331.2 
" style="fill: none; stroke: #000000; stroke-width: 0.8; stroke-linejoin: miter; stroke-linecap: square"/>
   </g>
   <g id="patch_6">
    <path d="M 7.2 7.2 
L 446.4 7.2 
" style="fill: none; stroke: #000000; stroke-width: 0.8; stroke-linejoin: miter; stroke-linecap: square"/>
   </g>
  </g>
 </g>
 <defs>
  <clipPath id="pf345d74ec4">
   <rect x="7.2" y="7.2" width="439.2" height="324"/>
  </clipPath>
 </defs>
</svg>
