<?xml version="1.0" encoding="utf-8" standalone="no"?>
<!DOCTYPE svg PUBLIC "-//W3C//DTD SVG 1.1//EN"
  "http://www.w3.org/Graphics/SVG/1.1/DTD/svg11.dtd">
<svg xmlns:xlink="http://www.w3.org/1999/xlink" width="453.6pt" height="338.4pt" viewBox="0 0 453.6 338.4" xmlns="http://www.w3.org/2000/svg" version="1.1">
 <metadata>
  <rdf:RDF xmlns:dc="http://purl.org/dc/elements/1.1/" xmlns:cc="http://creativecommons.org/ns#" xmlns:rdf="http://www.w3.org/1999/02/22-rdf-syntax-ns#">
   <cc:Work>
    <dc:type rdf:resource="http://purl.org/dc/dcmitype/StillImage"/>
    <dc:date>2025-05-14T00:16:00.873336</dc:date>
    <dc:format>image/svg+xml</dc:format>
    <dc:creator>
     <cc:Agent>
      <dc:title>Matplotlib v3.10.1, https://matplotlib.org/</dc:title>
     </cc:Agent>
    </dc:creator>
   </cc:Work>
  </rdf:RDF>
 </metadata>
 <defs>
  <style type="text/css">*{stroke-linejoin: round; stroke-linecap: butt}</style>
 </defs>
 <g id="figure_1">
  <g id="patch_1">
   <path d="M 0 338.4 
L 453.6 338.4 
L 453.6 0 
L 0 0 
z
" style="fill: #ffffff"/>
  </g>
  <g id="axes_1">
   <g id="patch_2">
    <path d="M 7.2 331.2 
L 446.4 331.2 
L 446.4 7.2 
L 7.2 7.2 
z
" style="fill: #ffffff"/>
   </g>
   <g id="matplotlib.axis_1"/>
   <g id="matplotlib.axis_2"/>
   <g id="line2d_1">
    <path d="M 27.163636 249.783795 
L 30.624 227.13625 
L 33.818182 207.64665 
L 37.012364 189.516241 
L 39.940364 174.090757 
L 42.868364 159.807368 
L 45.796364 146.666039 
L 48.458182 135.710514 
L 51.12 125.698875 
L 53.515636 117.495381 
L 55.911273 110.056477 
L 58.306909 103.38214 
L 60.436364 98.091192 
L 62.565818 93.404367 
L 64.429091 89.798942 
L 66.292364 86.656023 
L 68.155636 83.97561 
L 69.752727 82.046246 
L 71.349818 80.456647 
L 72.946909 79.206885 
L 74.277818 78.424963 
L 75.608727 77.879037 
L 76.939636 77.569059 
L 78.270545 77.495052 
L 79.601455 77.657017 
L 80.932364 78.054954 
L 82.263273 78.688911 
L 83.594182 79.558791 
L 84.925091 80.664643 
L 86.522182 82.30317 
L 88.119273 84.281509 
L 89.716364 86.599662 
L 91.579636 89.733577 
L 93.442909 93.330022 
L 95.306182 97.388998 
L 97.435636 102.594159 
L 99.565091 108.403395 
L 100.097455 109.824343 
L 109.946182 111.719527 
L 120.061091 113.894977 
L 130.176 116.302536 
L 140.290909 118.94218 
L 150.405818 121.81391 
L 160.520727 124.917726 
L 170.635636 128.253627 
L 172.498909 128.887342 
L 175.959273 128.022362 
L 179.419636 126.928965 
L 182.88 125.607296 
L 186.340364 124.057235 
L 190.066909 122.132554 
L 193.793455 119.943081 
L 197.52 117.488791 
L 201.246545 114.769612 
L 204.973091 111.785593 
L 208.965818 108.294557 
L 212.958545 104.499482 
L 216.951273 100.400438 
L 220.944 95.997353 
L 225.202909 90.965646 
L 229.461818 85.588044 
L 233.720727 79.864521 
L 238.245818 73.404239 
L 242.770909 66.553502 
L 244.101818 64.464225 
L 244.634182 65.328602 
L 247.296 70.615133 
L 249.957818 76.372545 
L 252.885818 83.24964 
L 255.813818 90.696292 
L 259.008 99.469778 
L 262.202182 108.921321 
L 265.396364 119.050873 
L 268.856727 130.789672 
L 272.317091 143.3242 
L 276.043636 157.71295 
L 279.770182 173.024587 
L 283.496727 189.258919 
L 287.489455 207.677184 
L 291.482182 227.154764 
L 295.741091 249.098593 
L 300 272.24782 
L 304.258909 296.602455 
L 307.719273 316.472727 
L 309.582545 314.918762 
L 311.712 312.837559 
L 313.841455 310.43067 
L 315.970909 307.698143 
L 318.366545 304.234842 
L 320.762182 300.359417 
L 323.157818 296.071796 
L 325.819636 290.824453 
L 328.481455 285.068297 
L 331.143273 278.803326 
L 334.071273 271.324172 
L 336.999273 263.229358 
L 340.193455 253.696482 
L 343.387636 243.430998 
L 346.581818 232.432737 
L 350.042182 219.691227 
L 353.502545 206.089733 
L 356.430545 193.909163 
L 358.027636 175.60046 
L 359.890909 156.116592 
L 361.754182 139.136594 
L 363.351273 126.575442 
L 364.948364 115.85403 
L 366.279273 108.324923 
L 367.610182 102.073361 
L 368.674909 97.99201 
L 369.739636 94.728353 
L 370.804364 92.282367 
L 371.602909 90.984377 
L 372.401455 90.146407 
L 372.933818 89.843284 
L 373.466182 89.744584 
L 373.998545 89.85026 
L 374.530909 90.160359 
L 375.063273 90.674906 
L 375.861818 91.829999 
L 376.660364 93.444991 
L 377.458909 95.519954 
L 378.523636 99.002035 
L 379.588364 103.301712 
L 380.919273 109.826201 
L 382.250182 117.628453 
L 383.581091 126.7082 
L 385.178182 139.290111 
L 386.775273 153.711978 
L 388.638545 172.862791 
L 390.768 197.360323 
L 391.832727 199.494617 
L 392.897455 201.175252 
L 393.962182 202.402324 
L 394.760727 203.024924 
L 395.559273 203.392375 
L 396.357818 203.504689 
L 397.156364 203.361829 
L 397.954909 202.963856 
L 398.753455 202.310685 
L 399.552 201.402389 
L 400.616727 199.794445 
L 401.681455 197.73283 
L 402.746182 195.217665 
L 404.077091 191.435804 
L 405.408 186.945184 
L 406.738909 181.745827 
L 408.336 174.57098 
L 409.933091 166.375547 
L 411.796364 155.524394 
L 413.659636 143.283962 
L 415.522909 129.654299 
L 417.652364 112.376705 
L 419.781818 93.284498 
L 422.177455 69.637163 
L 424.573091 43.693472 
L 426.436364 21.927273 
L 426.436364 21.927273 
" clip-path="url(#p2b8c0ee4d0)" style="fill: none; stroke-dasharray: 11.1,4.8; stroke-dashoffset: 0; stroke: #000000; stroke-width: 3"/>
   </g>
   <g id="line2d_2">
    <path d="M 27.163636 146.173602 
L 28.494545 145.774434 
L 30.091636 145.549566 
L 32.221091 145.491176 
L 35.149091 145.642931 
L 38.343273 146.022016 
L 40.738909 146.502094 
L 42.868364 147.146696 
L 44.465455 147.653784 
L 48.192 148.583551 
L 53.515636 150.015964 
L 54.314182 149.616941 
L 56.177455 148.698857 
L 57.774545 148.145304 
L 59.105455 147.911384 
L 60.170182 147.911142 
L 61.501091 147.960021 
L 63.896727 148.128311 
L 65.493818 148.421006 
L 66.824727 148.84255 
L 68.155636 149.475252 
L 69.486545 150.356646 
L 70.817455 151.512753 
L 72.148364 152.953591 
L 73.745455 155.033261 
L 75.608727 157.835232 
L 78.270545 161.897997 
L 79.867636 161.912552 
L 81.198545 161.681432 
L 82.529455 161.183903 
L 83.860364 160.405143 
L 85.191273 159.365187 
L 87.054545 157.607202 
L 89.450182 155.380532 
L 90.514909 154.69142 
L 91.313455 154.41859 
L 91.845818 154.39228 
L 92.378182 154.517314 
L 92.910545 154.81853 
L 93.176727 155.041854 
L 93.442909 154.324452 
L 93.975273 151.961138 
L 94.773818 149.420579 
L 95.572364 147.703363 
L 96.370909 146.658797 
L 96.903273 146.273823 
L 97.435636 146.098871 
L 97.968 146.102782 
L 98.766545 146.389539 
L 99.565091 146.935997 
L 100.629818 147.938611 
L 103.557818 150.903924 
L 104.356364 151.358512 
L 104.888727 151.47155 
L 105.421091 151.384098 
L 105.953455 151.045154 
L 106.752 151.246464 
L 107.284364 151.10422 
L 107.816727 150.750624 
L 108.615273 149.91012 
L 111.010909 146.940462 
L 111.543273 146.691939 
L 112.075636 146.756073 
L 112.608 147.204217 
L 113.140364 148.093576 
L 113.672727 149.484086 
L 114.205091 151.438191 
L 115.003636 155.528666 
L 116.068364 161.60856 
L 116.866909 155.439163 
L 117.665455 150.649124 
L 118.464 147.032572 
L 119.262545 144.400169 
L 120.061091 142.575467 
L 120.859636 141.398939 
L 121.658182 140.707414 
L 122.456727 140.352877 
L 123.521455 140.163925 
L 124.852364 139.938454 
L 125.650909 139.58691 
L 126.449455 138.923963 
L 126.715636 138.614806 
L 127.780364 139.627461 
L 129.643636 141.062482 
L 131.240727 142.02942 
L 133.104 142.883273 
L 135.499636 143.688512 
L 137.895273 144.519531 
L 139.226182 145.226577 
L 140.290909 145.961985 
L 141.355636 143.803312 
L 141.888 143.349762 
L 142.420364 143.339431 
L 142.952727 143.712892 
L 144.283636 145.171688 
L 145.880727 146.710187 
L 148.542545 149.339838 
L 149.607273 150.084178 
L 150.405818 150.393673 
L 151.204364 150.410232 
L 151.736727 150.219905 
L 152.269091 149.839613 
L 152.801455 149.243311 
L 153.333818 148.403748 
L 154.132364 146.611294 
L 154.930909 144.531551 
L 157.592727 143.108045 
L 158.923636 142.602381 
L 159.988364 142.380313 
L 161.053091 142.380264 
L 161.851636 142.570519 
L 162.650182 142.965342 
L 163.448727 143.602002 
L 164.247273 144.516683 
L 165.045818 145.745734 
L 165.844364 147.321768 
L 166.909091 150.004233 
L 167.441455 151.562694 
L 167.707636 151.629484 
L 169.038545 150.398332 
L 170.103273 149.690151 
L 171.168 149.274883 
L 171.966545 149.171428 
L 172.765091 149.250383 
L 173.563636 149.50709 
L 174.628364 150.111236 
L 175.693091 150.968999 
L 177.290182 152.363323 
L 178.621091 153.227073 
L 179.685818 154.168401 
L 180.750545 155.382343 
L 181.815273 156.917607 
L 182.88 158.830509 
L 184.210909 161.399454 
L 185.275636 156.911742 
L 186.340364 153.404462 
L 187.138909 151.433436 
L 187.937455 150.011185 
L 188.736 149.101549 
L 189.268364 148.763571 
L 189.800727 148.607037 
L 190.599273 148.664388 
L 191.397818 148.988343 
L 194.059636 150.41506 
L 195.124364 150.574514 
L 195.922909 150.513783 
L 196.721455 150.191712 
L 197.253818 149.776299 
L 197.786182 149.154435 
L 198.318545 148.28021 
L 199.117091 146.398253 
L 199.915636 144.331304 
L 200.714182 144.903999 
L 201.246545 145.082522 
L 201.778909 145.099612 
L 202.311273 144.961447 
L 203.109818 144.481031 
L 203.908364 143.703043 
L 204.973091 142.279658 
L 206.304 140.059022 
L 210.030545 133.554206 
L 211.095273 132.143058 
L 211.893818 131.427829 
L 212.16 131.421167 
L 215.088 135.016574 
L 216.685091 136.680614 
L 218.016 137.795542 
L 219.080727 138.453927 
L 220.145455 138.860891 
L 220.944 138.973518 
L 221.742545 138.900163 
L 222.541091 138.620381 
L 222.807273 139.060487 
L 223.605818 142.842939 
L 224.404364 145.536435 
L 224.936727 146.765704 
L 225.469091 147.580719 
L 226.001455 148.004001 
L 226.533818 148.060821 
L 227.066182 147.78466 
L 227.598545 147.224396 
L 228.397091 146.051996 
L 230.260364 142.704001 
L 232.123636 139.553286 
L 233.454545 137.719918 
L 234.785455 136.27044 
L 236.116364 135.170453 
L 237.447273 134.362221 
L 238.245818 133.990594 
L 239.842909 134.343224 
L 243.037091 134.881716 
L 243.303273 134.924681 
L 243.569455 135.299349 
L 246.763636 143.862908 
L 247.828364 145.886434 
L 248.626909 146.975365 
L 249.425455 147.688132 
L 250.224 148.032821 
L 250.756364 148.066711 
L 251.554909 147.83716 
L 252.353455 147.291934 
L 253.152 146.458115 
L 254.216727 144.942643 
L 255.281455 142.994935 
L 256.612364 139.995612 
L 257.144727 138.788671 
L 257.410909 138.489844 
L 258.741818 139.167635 
L 261.936 141.18544 
L 263.266909 142.390112 
L 264.864 144.206511 
L 267.525818 147.364251 
L 268.324364 148.023263 
L 269.122909 148.361748 
L 269.655273 148.339662 
L 270.187636 148.06939 
L 270.72 147.502367 
L 271.252364 146.584284 
L 271.784727 145.257739 
L 272.317091 143.462099 
L 273.115636 139.756261 
L 273.381818 138.209434 
L 273.648 137.79646 
L 275.511273 138.745898 
L 277.906909 139.956147 
L 279.770182 140.611466 
L 281.367273 140.911017 
L 282.698182 140.937906 
L 284.029091 140.754169 
L 285.093818 140.463911 
L 285.626182 139.974298 
L 286.424727 139.25598 
L 287.223273 138.847108 
L 288.021818 138.677178 
L 289.086545 138.716812 
L 290.417455 139.022011 
L 293.345455 139.849433 
L 294.676364 141.334274 
L 297.338182 144.807954 
L 301.064727 149.563258 
L 305.856 155.206691 
L 307.186909 156.745528 
L 307.453091 156.763101 
L 309.050182 154.306228 
L 310.114909 152.650805 
L 311.712 151.941297 
L 313.309091 150.98802 
L 315.172364 149.613586 
L 317.834182 147.319571 
L 321.294545 144.346293 
L 322.891636 143.288307 
L 323.956364 142.807046 
L 325.021091 142.566584 
L 325.819636 142.584012 
L 327.682909 143.008476 
L 328.747636 143.41363 
L 329.812364 144.125504 
L 330.610909 144.939168 
L 331.409455 146.076206 
L 332.208 147.631722 
L 333.006545 149.704513 
L 334.337455 153.74133 
L 336.999273 154.581641 
L 340.725818 155.693286 
L 342.056727 156.365309 
L 343.653818 157.358075 
L 345.517091 157.820822 
L 347.380364 158.51312 
L 348.711273 159.092743 
L 350.840727 152.966432 
L 352.437818 149.091894 
L 353.768727 146.445081 
L 354.833455 144.728082 
L 355.898182 143.359031 
L 356.962909 142.314826 
L 358.027636 141.559987 
L 359.092364 141.048844 
L 360.689455 140.6056 
L 362.020364 140.533573 
L 363.351273 140.697276 
L 364.948364 141.122199 
L 366.811636 141.853962 
L 368.941091 142.94468 
L 371.070545 144.295821 
L 372.933818 145.721959 
L 373.998545 146.655828 
L 374.530909 146.531639 
L 376.128 144.683717 
L 376.926545 143.746202 
L 377.725091 142.88909 
L 378.789818 142.109075 
L 379.854545 141.639087 
L 381.185455 141.349481 
L 383.048727 141.242985 
L 385.178182 141.103033 
L 386.242909 140.827572 
L 387.041455 140.439845 
L 387.84 139.824547 
L 388.638545 138.900598 
L 389.437091 137.569829 
L 390.235636 135.707134 
L 391.034182 133.356613 
L 392.365091 138.425589 
L 393.163636 141.015533 
L 396.357818 142.235896 
L 398.487273 143.298517 
L 400.616727 144.613017 
L 405.940364 148.119211 
L 407.271273 148.690119 
L 408.868364 149.118422 
L 410.731636 149.436269 
L 410.997818 149.3955 
L 411.264 148.910715 
L 412.062545 146.748011 
L 412.861091 145.111415 
L 413.659636 144.018549 
L 414.192 143.583416 
L 414.724364 143.366755 
L 415.256727 143.367865 
L 415.789091 143.556237 
L 416.587636 144.156763 
L 417.386182 145.063236 
L 418.717091 147.032862 
L 421.645091 151.643991 
L 422.709818 152.910818 
L 423.774545 153.805585 
L 424.573091 154.221335 
L 425.371636 154.419845 
L 426.170182 154.438504 
L 426.436364 154.411566 
L 426.436364 154.411566 
" clip-path="url(#p2b8c0ee4d0)" style="fill: none; stroke-dasharray: 3,4.95; stroke-dashoffset: 0; stroke: #ffa500; stroke-width: 3"/>
   </g>
   <g id="line2d_3">
    <path d="M 27.163636 153.080194 
L 28.228364 151.423057 
L 29.293091 150.194102 
L 30.091636 149.580614 
L 30.890182 149.246256 
L 31.688727 149.19279 
L 32.487273 149.408342 
L 33.285818 149.873671 
L 34.350545 150.810921 
L 35.681455 152.334913 
L 38.343273 155.475249 
L 39.408 156.317805 
L 40.206545 156.650522 
L 41.005091 156.658318 
L 41.537455 156.467533 
L 41.803636 156.276675 
L 43.400727 154.024612 
L 44.199273 153.494061 
L 44.997818 153.25331 
L 45.796364 153.270714 
L 46.594909 153.505261 
L 47.659636 154.073515 
L 50.587636 155.881127 
L 51.386182 156.050479 
L 51.918545 155.996796 
L 52.450909 155.775645 
L 52.983273 155.363225 
L 53.249455 155.075695 
L 53.781818 153.989974 
L 54.580364 151.537422 
L 55.378909 148.505175 
L 55.645091 148.728064 
L 56.443636 150.150871 
L 56.976 150.684535 
L 57.508364 150.93091 
L 58.040727 150.936099 
L 58.573091 150.731893 
L 59.371636 150.129074 
L 60.702545 148.689468 
L 61.767273 147.305234 
L 62.832 145.833475 
L 63.630545 146.712021 
L 64.429091 147.338206 
L 65.227636 147.750119 
L 66.292364 148.022225 
L 67.623273 148.077597 
L 70.018909 148.074435 
L 70.817455 148.29322 
L 71.616 148.768326 
L 72.414545 149.605017 
L 73.479273 151.377702 
L 74.810182 153.976433 
L 76.141091 157.121041 
L 78.270545 162.773912 
L 79.601455 164.214894 
L 79.867636 164.554104 
L 80.133818 164.696445 
L 80.4 164.591131 
L 81.730909 163.143101 
L 83.328 161.028334 
L 85.457455 157.967411 
L 87.586909 155.900003 
L 89.450182 154.147208 
L 90.514909 153.450662 
L 91.313455 153.213435 
L 91.845818 153.241748 
L 92.378182 153.454451 
L 92.910545 153.886471 
L 93.176727 154.192394 
L 93.442909 153.293741 
L 94.241455 148.946126 
L 95.04 146.002416 
L 95.306182 145.56178 
L 95.838545 145.748172 
L 96.370909 146.126244 
L 97.169455 146.973628 
L 98.500364 148.829154 
L 100.363636 151.502253 
L 101.428364 152.635695 
L 102.226909 153.094025 
L 102.759273 153.148866 
L 103.291636 152.957018 
L 103.824 152.466682 
L 104.356364 151.629194 
L 104.888727 150.38817 
L 105.421091 148.677037 
L 105.953455 146.991031 
L 106.752 148.347555 
L 107.018182 148.538823 
L 107.284364 148.585675 
L 107.550545 148.495496 
L 108.082909 147.914715 
L 108.615273 146.872176 
L 109.413818 144.596579 
L 110.212364 141.888962 
L 110.478545 141.86089 
L 111.543273 145.082305 
L 112.874182 148.871443 
L 113.672727 151.845566 
L 114.471273 155.875431 
L 115.269818 161.365588 
L 115.802182 166.039234 
L 116.068364 166.404295 
L 116.866909 157.931349 
L 117.665455 151.412919 
L 118.464 146.78248 
L 118.996364 144.723665 
L 119.528727 143.491813 
L 120.061091 142.786842 
L 120.327273 142.642281 
L 120.593455 142.638539 
L 120.859636 142.777863 
L 121.392 143.461592 
L 121.924364 144.674158 
L 122.456727 146.389588 
L 123.255273 149.890882 
L 123.787636 152.60166 
L 124.586182 153.085383 
L 125.118545 153.255652 
L 125.650909 153.241314 
L 126.183273 152.990352 
L 126.715636 152.454275 
L 127.514182 153.583589 
L 128.845091 155.001423 
L 129.909818 155.813203 
L 130.708364 156.197358 
L 131.506909 156.230354 
L 132.837818 156.031023 
L 136.032 155.380025 
L 136.830545 155.450846 
L 137.362909 155.490456 
L 138.693818 154.398387 
L 139.492364 154.11257 
L 140.290909 154.009405 
L 141.355636 150.244212 
L 141.888 149.150284 
L 142.420364 148.581113 
L 142.952727 148.431748 
L 143.751273 148.557627 
L 144.549818 147.789898 
L 145.348364 146.772221 
L 146.413091 144.971392 
L 147.477818 142.613967 
L 148.542545 139.646168 
L 149.607273 136.00852 
L 149.873455 134.986571 
L 150.139636 134.666358 
L 150.938182 139.102873 
L 151.736727 142.369547 
L 152.269091 143.888543 
L 152.801455 144.869409 
L 153.333818 145.300318 
L 153.6 145.302032 
L 153.866182 145.146777 
L 154.398545 144.392566 
L 154.664727 143.788805 
L 154.930909 143.582064 
L 155.729455 144.004839 
L 156.528 144.112228 
L 157.326545 143.974087 
L 158.391273 143.532509 
L 160.786909 142.147817 
L 161.585455 141.724052 
L 162.916364 141.354164 
L 163.182545 141.330943 
L 163.714909 141.617001 
L 164.247273 142.340437 
L 164.779636 143.488989 
L 165.578182 145.993244 
L 166.376727 149.4543 
L 167.175273 153.87474 
L 167.441455 155.50168 
L 167.707636 156.267164 
L 167.973818 156.645477 
L 168.24 156.42756 
L 169.570909 151.898187 
L 170.635636 149.138939 
L 171.700364 147.040634 
L 172.765091 145.411039 
L 174.894545 142.384513 
L 175.426909 141.619777 
L 176.757818 145.978472 
L 177.024 146.345633 
L 177.556364 146.426712 
L 178.088727 146.731839 
L 178.621091 147.253651 
L 179.419636 148.408189 
L 180.218182 149.981157 
L 181.282909 152.664178 
L 182.347636 155.927207 
L 183.944727 161.073858 
L 184.210909 161.338675 
L 185.275636 155.565404 
L 186.340364 150.981865 
L 187.405091 147.519602 
L 188.203636 145.5899 
L 189.002182 144.170063 
L 189.800727 143.192021 
L 190.599273 142.566995 
L 191.397818 142.209272 
L 192.462545 141.978972 
L 193.527273 141.808993 
L 194.059636 142.286754 
L 195.390545 144.134725 
L 196.189091 144.759196 
L 196.721455 144.878654 
L 197.253818 144.705585 
L 197.786182 144.180442 
L 198.318545 143.248045 
L 198.850909 141.848145 
L 199.383273 139.911974 
L 199.649455 138.72625 
L 199.915636 138.209652 
L 200.448 138.566313 
L 200.980364 138.631243 
L 201.512727 138.383734 
L 201.778909 138.152107 
L 202.045091 138.145059 
L 203.376 139.18178 
L 203.908364 139.151414 
L 204.440727 138.86065 
L 204.973091 138.334468 
L 205.771636 137.170154 
L 206.836364 135.085077 
L 210.296727 127.642311 
L 211.095273 126.702552 
L 211.627636 126.339398 
L 211.893818 126.24526 
L 212.16 126.411932 
L 213.224727 129.144918 
L 214.821818 133.392965 
L 216.152727 136.378553 
L 217.217455 138.283538 
L 218.016 139.367255 
L 218.814545 140.111691 
L 219.346909 140.39869 
L 219.879273 140.502314 
L 220.411636 140.408273 
L 220.944 140.104522 
L 221.476364 139.579041 
L 222.008727 138.813219 
L 222.541091 137.795977 
L 222.807273 137.934214 
L 223.605818 141.510963 
L 224.404364 143.906743 
L 224.936727 144.902502 
L 225.469091 145.470563 
L 226.001455 145.640735 
L 226.533818 145.443094 
L 227.066182 144.905013 
L 227.598545 143.976381 
L 228.397091 142.070503 
L 229.461818 139.422145 
L 230.792727 136.831741 
L 231.857455 135.264084 
L 232.922182 134.12147 
L 233.986909 133.299575 
L 237.447273 130.999985 
L 238.778182 129.842816 
L 239.310545 129.40061 
L 240.109091 128.378709 
L 240.375273 127.942804 
L 241.706182 130.27288 
L 242.770909 131.759048 
L 243.303273 132.374709 
L 243.569455 133.028821 
L 245.432727 140.564252 
L 247.562182 151.22404 
L 248.360727 153.525899 
L 248.893091 154.497304 
L 249.425455 155.020106 
L 249.957818 155.136281 
L 250.490182 154.874627 
L 251.022545 154.266497 
L 251.554909 153.345783 
L 252.353455 151.457815 
L 253.418182 148.185131 
L 254.749091 143.207348 
L 256.346182 136.336698 
L 257.144727 132.79618 
L 257.410909 132.040568 
L 257.677091 131.830883 
L 257.943273 132.001489 
L 258.475636 133.110141 
L 259.806545 136.060006 
L 260.338909 137.207568 
L 261.669818 140.702127 
L 262.734545 144.164052 
L 263.799273 148.548865 
L 264.864 154.154353 
L 265.130182 155.771445 
L 265.396364 155.786386 
L 267.259636 151.394453 
L 269.655273 145.8531 
L 270.72 142.617105 
L 271.518545 139.473051 
L 272.317091 135.42979 
L 273.115636 130.206839 
L 273.381818 128.140589 
L 273.648 127.560846 
L 274.446545 128.097407 
L 275.245091 128.969484 
L 276.309818 130.566928 
L 276.842182 131.283388 
L 277.640727 131.470963 
L 278.439273 131.833152 
L 279.237818 131.581225 
L 280.036364 131.551487 
L 280.834909 131.73438 
L 281.633455 132.101275 
L 282.698182 132.868449 
L 283.762909 133.960639 
L 284.827636 135.418494 
L 285.36 136.182554 
L 285.892364 136.712573 
L 286.424727 137.58885 
L 287.223273 139.587972 
L 288.288 142.710639 
L 288.554182 142.214147 
L 289.885091 138.621685 
L 290.949818 136.411791 
L 291.748364 135.199032 
L 292.546909 134.408734 
L 293.079273 134.135276 
L 293.345455 134.075294 
L 294.144 135.623738 
L 294.410182 136.226702 
L 297.604364 148.349462 
L 299.201455 153.261759 
L 300.532364 156.788759 
L 301.597091 159.072926 
L 302.928 155.696955 
L 303.992727 153.534227 
L 305.057455 151.904824 
L 305.856 151.052541 
L 306.122182 151.049716 
L 307.186909 152.393278 
L 307.453091 152.396054 
L 310.114909 147.461671 
L 313.309091 145.855803 
L 316.237091 144.312862 
L 316.769455 144.865233 
L 318.100364 146.320071 
L 319.165091 147.204386 
L 320.229818 147.836942 
L 321.294545 148.218055 
L 322.359273 148.317938 
L 323.157818 148.186 
L 324.488727 147.861515 
L 325.819636 149.249997 
L 326.618182 149.822378 
L 327.682909 150.090116 
L 328.747636 150.558173 
L 329.812364 151.331236 
L 330.610909 152.178886 
L 331.409455 153.332652 
L 332.208 154.878634 
L 333.006545 156.9094 
L 334.071273 160.367487 
L 334.337455 160.517215 
L 335.136 159.559376 
L 335.934545 158.227521 
L 336.733091 156.46355 
L 338.064 153.244669 
L 338.862545 152.878618 
L 339.394909 152.829425 
L 339.927273 152.950549 
L 340.459636 153.247252 
L 341.258182 154.04496 
L 342.056727 155.285912 
L 342.855273 156.992483 
L 343.387636 158.153828 
L 345.517091 160.457884 
L 346.848 161.751891 
L 347.646545 162.264193 
L 348.178909 162.42133 
L 348.445091 162.431709 
L 348.711273 162.291903 
L 349.776 156.605963 
L 350.840727 150.774038 
L 351.905455 146.550684 
L 352.970182 142.364188 
L 354.034909 139.166814 
L 354.833455 137.347833 
L 355.632 135.989161 
L 356.430545 135.061881 
L 357.229091 134.506975 
L 358.027636 134.270666 
L 358.826182 134.2949 
L 359.624727 134.518562 
L 359.890909 134.625903 
L 360.955636 134.1843 
L 362.020364 134.014973 
L 363.085091 133.999429 
L 363.351273 134.111959 
L 364.416 139.009677 
L 365.214545 141.769045 
L 366.013091 143.928998 
L 366.811636 145.590649 
L 367.077818 145.751286 
L 367.610182 145.433125 
L 368.408727 144.692648 
L 371.070545 141.824635 
L 371.602909 141.52588 
L 372.135273 141.429884 
L 372.667636 141.58637 
L 373.2 142.037603 
L 373.732364 142.835456 
L 374.264727 143.697878 
L 374.530909 143.979881 
L 374.797091 144.090215 
L 375.329455 144.580865 
L 376.128 144.441734 
L 376.394182 144.536862 
L 376.660364 144.413059 
L 377.458909 143.412279 
L 378.257455 142.769391 
L 379.056 142.419464 
L 379.854545 142.311085 
L 380.653091 142.413478 
L 381.451636 142.689446 
L 382.516364 143.2836 
L 383.847273 144.311487 
L 385.976727 146.314157 
L 387.573818 147.689508 
L 388.106182 148.008032 
L 388.638545 147.188672 
L 389.437091 145.288418 
L 390.235636 142.525502 
L 391.034182 138.858984 
L 391.832727 141.821521 
L 392.365091 143.255045 
L 392.897455 144.16707 
L 393.163636 144.408352 
L 394.760727 143.016587 
L 396.091636 141.528608 
L 397.156364 140.036888 
L 398.221091 138.199489 
L 401.415273 142.645926 
L 403.012364 144.488948 
L 404.343273 145.693259 
L 405.674182 146.563332 
L 407.005091 147.153986 
L 408.868364 147.951766 
L 409.400727 148.430565 
L 409.933091 148.944822 
L 410.997818 149.348576 
L 411.264 148.858312 
L 412.062545 146.61226 
L 412.861091 144.807496 
L 413.659636 142.051507 
L 414.192 140.846713 
L 414.724364 140.097474 
L 415.256727 139.785902 
L 415.789091 139.847913 
L 416.321455 140.245415 
L 416.853818 140.930158 
L 417.652364 142.375799 
L 418.717091 144.828061 
L 421.911273 152.544574 
L 423.242182 154.955368 
L 424.839273 157.267172 
L 425.904 158.872557 
L 426.436364 159.861027 
L 426.436364 159.861027 
" clip-path="url(#p2b8c0ee4d0)" style="fill: none; stroke: #ffa500; stroke-width: 3; stroke-linecap: square"/>
   </g>
   <g id="patch_3">
    <path d="M 7.2 331.2 
L 7.2 7.2 
" style="fill: none; stroke: #000000; stroke-width: 0.8; stroke-linejoin: miter; stroke-linecap: square"/>
   </g>
   <g id="patch_4">
    <path d="M 446.4 331.2 
L 446.4 7.2 
" style="fill: none; stroke: #000000; stroke-width: 0.8; stroke-linejoin: miter; stroke-linecap: square"/>
   </g>
   <g id="patch_5">
    <path d="M 7.2 331.2 
L 446.4 331.2 
" style="fill: none; stroke: #000000; stroke-width: 0.8; stroke-linejoin: miter; stroke-linecap: square"/>
   </g>
   <g id="patch_6">
    <path d="M 7.2 7.2 
L 446.4 7.2 
" style="fill: none; stroke: #000000; stroke-width: 0.8; stroke-linejoin: miter; stroke-linecap: square"/>
   </g>
  </g>
 </g>
 <defs>
  <clipPath id="p2b8c0ee4d0">
   <rect x="7.2" y="7.2" width="439.2" height="324"/>
  </clipPath>
 </defs>
</svg>
