<?xml version="1.0" encoding="utf-8" standalone="no"?>
<!DOCTYPE svg PUBLIC "-//W3C//DTD SVG 1.1//EN"
  "http://www.w3.org/Graphics/SVG/1.1/DTD/svg11.dtd">
<svg xmlns:xlink="http://www.w3.org/1999/xlink" width="453.6pt" height="338.4pt" viewBox="0 0 453.6 338.4" xmlns="http://www.w3.org/2000/svg" version="1.1">
 <metadata>
  <rdf:RDF xmlns:dc="http://purl.org/dc/elements/1.1/" xmlns:cc="http://creativecommons.org/ns#" xmlns:rdf="http://www.w3.org/1999/02/22-rdf-syntax-ns#">
   <cc:Work>
    <dc:type rdf:resource="http://purl.org/dc/dcmitype/StillImage"/>
    <dc:date>2025-05-14T00:09:44.951436</dc:date>
    <dc:format>image/svg+xml</dc:format>
    <dc:creator>
     <cc:Agent>
      <dc:title>Matplotlib v3.10.1, https://matplotlib.org/</dc:title>
     </cc:Agent>
    </dc:creator>
   </cc:Work>
  </rdf:RDF>
 </metadata>
 <defs>
  <style type="text/css">*{stroke-linejoin: round; stroke-linecap: butt}</style>
 </defs>
 <g id="figure_1">
  <g id="patch_1">
   <path d="M 0 338.4 
L 453.6 338.4 
L 453.6 0 
L 0 0 
z
" style="fill: #ffffff"/>
  </g>
  <g id="axes_1">
   <g id="patch_2">
    <path d="M 7.2 331.2 
L 446.4 331.2 
L 446.4 7.2 
L 7.2 7.2 
z
" style="fill: #ffffff"/>
   </g>
   <g id="matplotlib.axis_1"/>
   <g id="matplotlib.axis_2"/>
   <g id="line2d_1">
    <path d="M 27.163636 283.934599 
L 91.047273 31.542678 
L 91.313455 31.00307 
L 140.024727 21.927273 
L 140.290909 21.98755 
L 203.908364 307.487676 
L 243.303273 316.472727 
L 243.569455 316.350827 
L 311.978182 173.894687 
L 312.244364 173.641353 
L 366.545455 302.593473 
L 367.077818 302.591066 
L 426.436364 293.494251 
L 426.436364 293.494251 
" clip-path="url(#pbbdef996bb)" style="fill: none; stroke-dasharray: 11.1,4.8; stroke-dashoffset: 0; stroke: #000000; stroke-width: 3"/>
   </g>
   <g id="line2d_2">
    <path d="M 27.163636 268.602518 
L 27.962182 258.582622 
L 28.760727 251.728743 
L 29.559273 247.169677 
L 30.357818 244.208366 
L 31.156364 242.290598 
L 31.954909 240.980716 
L 35.149091 236.515271 
L 36.213818 234.304578 
L 37.278545 231.590778 
L 38.609455 227.602807 
L 41.271273 218.647285 
L 43.134545 212.713603 
L 43.666909 211.210442 
L 43.933091 210.074971 
L 45.264 202.556067 
L 46.328727 201.33096 
L 47.393455 199.750253 
L 48.724364 197.367612 
L 52.184727 190.777684 
L 52.983273 189.716487 
L 53.515636 189.235788 
L 54.048 188.986054 
L 54.580364 189.015163 
L 55.112727 189.387627 
L 55.645091 190.142086 
L 56.177455 191.337777 
L 56.709818 193.058175 
L 57.242182 195.337337 
L 58.040727 200.013232 
L 58.839273 206.390563 
L 59.637818 214.741491 
L 60.436364 225.354871 
L 61.234909 227.335977 
L 62.033455 230.100689 
L 62.565818 227.321576 
L 63.896727 218.645851 
L 65.493818 206.436613 
L 70.018909 170.25656 
L 71.349818 161.592559 
L 72.414545 155.861088 
L 73.479273 151.278718 
L 74.277818 148.595095 
L 75.076364 146.503541 
L 75.874909 144.921563 
L 76.939636 143.354775 
L 77.205818 143.169766 
L 79.069091 142.847664 
L 80.932364 142.29943 
L 82.263273 141.747385 
L 82.529455 143.008262 
L 82.795636 144.993142 
L 84.925091 178.251003 
L 86.522182 201.643243 
L 87.853091 218.102335 
L 88.917818 228.450107 
L 89.716364 234.159545 
L 90.248727 236.867088 
L 90.781091 238.630909 
L 91.047273 239.143603 
L 91.313455 239.402848 
L 91.579636 239.403647 
L 91.845818 239.123264 
L 92.112 238.562199 
L 92.644364 236.618259 
L 93.176727 233.554441 
L 93.709091 229.277559 
L 94.507636 217.563111 
L 95.572364 197.987828 
L 97.435636 158.264039 
L 98.234182 141.165596 
L 109.413818 189.175511 
L 110.212364 192.721538 
L 110.478545 193.362449 
L 111.010909 193.713487 
L 111.809455 194.543431 
L 112.874182 196.109372 
L 114.471273 199.0363 
L 116.068364 201.882081 
L 116.600727 202.627761 
L 116.866909 202.856588 
L 117.133091 202.698396 
L 117.931636 201.252374 
L 118.730182 199.294967 
L 121.658182 191.287722 
L 122.190545 190.483671 
L 122.722909 190.1515 
L 122.989091 190.198436 
L 123.255273 190.40649 
L 123.787636 191.361591 
L 124.32 193.124305 
L 124.852364 195.793778 
L 125.384727 199.468291 
L 126.183273 207.011722 
L 126.981818 217.141554 
L 127.780364 219.293414 
L 128.578909 222.208136 
L 129.377455 225.954526 
L 130.176 230.597809 
L 131.240727 238.388442 
L 132.305455 248.274749 
L 132.837818 254.064168 
L 133.104 253.402176 
L 134.967273 226.655118 
L 136.298182 210.013366 
L 137.362909 198.708692 
L 138.427636 189.384509 
L 139.492364 182.143543 
L 140.290909 178.091848 
L 141.089455 175.144591 
L 141.621818 173.788475 
L 142.154182 172.8816 
L 142.686545 172.374739 
L 143.218909 172.291802 
L 143.751273 172.501801 
L 144.283636 172.880522 
L 144.816 173.503298 
L 145.348364 174.408441 
L 146.146909 176.40464 
L 146.945455 179.297068 
L 147.744 183.100453 
L 148.542545 187.860421 
L 149.607273 195.583182 
L 150.938182 207.0694 
L 153.067636 227.384 
L 153.333818 227.120838 
L 154.132364 219.532974 
L 154.930909 213.551865 
L 155.729455 208.975829 
L 156.528 205.536803 
L 157.326545 203.019612 
L 158.125091 201.26046 
L 158.923636 200.090875 
L 159.456 199.585284 
L 159.988364 199.294274 
L 160.254545 199.217998 
L 161.053091 196.416304 
L 161.851636 194.659616 
L 162.384 193.918364 
L 163.182545 193.214538 
L 164.513455 192.306989 
L 165.045818 191.727394 
L 165.578182 190.849397 
L 166.110545 189.572137 
L 166.642909 187.742484 
L 167.175273 185.266126 
L 167.973818 180.023516 
L 168.772364 172.541382 
L 169.570909 162.337989 
L 170.103273 153.777967 
L 170.369455 153.880136 
L 170.901818 156.042998 
L 171.700364 160.977253 
L 172.498909 167.613443 
L 173.563636 178.414239 
L 177.024 216.01802 
L 177.822545 216.750146 
L 178.887273 218.0955 
L 179.952 219.857848 
L 181.282909 222.551963 
L 185.275636 231.288216 
L 185.808 232.01424 
L 186.340364 232.457811 
L 186.872727 232.555139 
L 187.405091 232.186091 
L 187.937455 231.276126 
L 188.469818 229.692435 
L 189.002182 227.287039 
L 190.066909 221.023506 
L 190.599273 220.160043 
L 191.131636 218.954929 
L 191.930182 216.489612 
L 192.728727 213.293294 
L 193.793455 208.069512 
L 196.189091 195.980193 
L 197.253818 191.946672 
L 198.052364 189.890119 
L 198.584727 189.067971 
L 199.117091 188.714854 
L 199.383273 188.733028 
L 199.915636 189.142764 
L 200.448 190.063096 
L 200.980364 191.503919 
L 201.778909 194.572983 
L 202.577455 198.681566 
L 202.843636 200.556672 
L 203.908364 213.516345 
L 204.973091 223.996445 
L 206.037818 232.255504 
L 207.102545 238.544295 
L 207.901091 242.085971 
L 208.699636 244.753057 
L 209.498182 246.599188 
L 210.030545 247.413337 
L 210.296727 248.955608 
L 211.095273 256.268172 
L 211.893818 261.725824 
L 212.426182 264.3439 
L 212.958545 266.125235 
L 213.490909 267.059323 
L 213.757091 267.219883 
L 214.023273 267.148449 
L 214.289455 266.878211 
L 214.821818 265.66349 
L 215.354182 263.56826 
L 215.886545 260.573585 
L 216.685091 254.321911 
L 217.483636 245.90029 
L 218.282182 235.209759 
L 218.814545 228.302301 
L 219.080727 230.301312 
L 219.879273 238.509767 
L 220.677818 244.753846 
L 221.476364 249.175002 
L 222.008727 251.162846 
L 222.541091 252.439086 
L 223.073455 253.046133 
L 223.339636 253.108682 
L 223.605818 253.028306 
L 224.138182 252.432145 
L 224.670545 251.304327 
L 225.469091 248.733529 
L 226.267636 245.286235 
L 228.929455 232.618795 
L 230.260364 227.602749 
L 232.389818 219.840387 
L 233.720727 215.723159 
L 235.051636 212.331705 
L 236.116364 210.234992 
L 236.914909 209.111323 
L 237.447273 208.621903 
L 237.979636 208.384721 
L 238.512 208.450043 
L 239.044364 208.880282 
L 239.576727 209.75158 
L 240.109091 211.16135 
L 240.641455 213.250459 
L 241.173818 216.126369 
L 241.706182 220.019852 
L 242.238545 225.112183 
L 243.037091 235.599877 
L 243.569455 245.191459 
L 244.900364 275.953825 
L 245.166545 274.106505 
L 245.965091 265.979711 
L 246.763636 260.202497 
L 247.562182 256.152526 
L 248.360727 253.305012 
L 249.159273 251.265978 
L 250.224 249.268508 
L 252.353455 245.638456 
L 253.152 243.803183 
L 253.950545 241.425211 
L 254.749091 238.283298 
L 255.547636 234.164646 
L 256.346182 228.760687 
L 257.144727 221.746199 
L 257.943273 212.696623 
L 258.209455 212.110714 
L 258.741818 217.808456 
L 259.274182 221.839974 
L 259.806545 224.254881 
L 260.072727 224.896755 
L 260.605091 225.223227 
L 260.871273 225.200741 
L 261.403636 224.811171 
L 261.936 224.019085 
L 262.734545 222.242298 
L 263.799273 219.1533 
L 265.928727 212.793537 
L 266.727273 211.121364 
L 267.259636 210.400269 
L 267.792 210.055604 
L 268.058182 210.037989 
L 268.324364 210.13471 
L 268.856727 210.707277 
L 269.389091 211.767358 
L 269.921455 213.322922 
L 270.72 216.696607 
L 271.518545 221.208246 
L 272.583273 228.934473 
L 273.914182 240.790816 
L 276.576 268.060522 
L 276.842182 274.796532 
L 277.108364 277.418574 
L 277.906909 245.126801 
L 278.705455 220.545041 
L 279.504 202.202931 
L 280.302545 189.021535 
L 281.101091 180.07074 
L 281.633455 176.094667 
L 282.165818 173.430604 
L 282.698182 172.002891 
L 282.964364 171.686584 
L 283.230545 171.614948 
L 283.496727 171.775546 
L 283.762909 172.157675 
L 284.295273 173.580325 
L 284.827636 175.757741 
L 285.626182 180.303764 
L 286.424727 186.238881 
L 287.489455 196.132763 
L 288.554182 208.090438 
L 289.885091 225.798066 
L 290.683636 237.144555 
L 291.482182 241.694409 
L 292.014545 243.853363 
L 292.546909 245.310974 
L 293.079273 246.08711 
L 293.611636 246.211197 
L 294.410182 245.974631 
L 295.208727 245.451319 
L 296.007273 244.681613 
L 297.072 243.297602 
L 298.136727 241.550367 
L 299.467636 238.867003 
L 300.798545 235.620005 
L 302.129455 231.768924 
L 303.460364 227.266728 
L 305.057455 220.958175 
L 306.654545 213.690632 
L 309.316364 200.252166 
L 310.114909 196.616137 
L 312.244364 191.566334 
L 312.776727 190.369122 
L 313.309091 188.559223 
L 316.237091 177.662225 
L 317.834182 172.4941 
L 319.165091 168.855222 
L 320.229818 166.455158 
L 321.294545 164.548518 
L 322.359273 163.157788 
L 323.157818 162.44861 
L 323.956364 162.014693 
L 324.754909 161.835883 
L 325.553455 161.882645 
L 326.618182 162.258094 
L 327.150545 162.732285 
L 327.949091 163.802627 
L 328.747636 165.368356 
L 329.546182 167.455828 
L 330.344727 170.095095 
L 331.409455 174.565285 
L 332.474182 180.159761 
L 333.538909 186.911076 
L 334.869818 196.994243 
L 335.934545 206.342029 
L 336.200727 206.056756 
L 337.531636 199.015989 
L 338.596364 194.395809 
L 339.661091 190.654107 
L 340.725818 187.749261 
L 341.790545 185.639438 
L 342.589091 184.51367 
L 343.92 183.063278 
L 344.186182 183.259511 
L 344.452364 183.754571 
L 344.984727 185.627636 
L 345.517091 188.755033 
L 346.049455 193.133719 
L 346.848 202.137341 
L 347.646545 214.136465 
L 348.445091 229.209234 
L 349.509818 254.189276 
L 350.042182 268.522055 
L 350.308364 268.948636 
L 351.639273 258.679334 
L 355.632 230.671254 
L 356.696727 220.825405 
L 357.761455 208.992289 
L 358.826182 194.810512 
L 361.488 157.075626 
L 362.020364 156.717235 
L 362.286545 156.729652 
L 362.552727 156.869844 
L 363.085091 157.539325 
L 363.617455 158.772903 
L 364.149818 160.539717 
L 364.948364 164.249288 
L 365.746909 169.208685 
L 366.545455 175.407648 
L 367.610182 185.559908 
L 368.674909 197.759559 
L 370.005818 215.65212 
L 371.602909 240.515409 
L 373.466182 273.167677 
L 374.530909 290.773612 
L 374.797091 285.266 
L 375.861818 253.162568 
L 376.394182 239.965992 
L 376.660364 236.522029 
L 377.192727 234.307957 
L 377.991273 229.293673 
L 379.056 220.267757 
L 382.250182 190.147727 
L 383.048727 184.836022 
L 383.581091 182.246463 
L 384.113455 180.503155 
L 384.645818 179.651898 
L 384.912 179.601651 
L 385.178182 179.781501 
L 385.444364 180.190602 
L 385.976727 181.719849 
L 386.509091 184.166887 
L 387.307636 189.453892 
L 388.106182 196.447338 
L 389.170909 207.862824 
L 390.768 227.509002 
L 391.034182 225.285507 
L 392.098909 210.706045 
L 393.163636 199.406724 
L 394.760727 193.975292 
L 400.084364 174.88475 
L 403.810909 162.51755 
L 405.141818 157.151574 
L 406.472727 150.678235 
L 407.803636 142.783459 
L 408.602182 137.281142 
L 408.868364 136.678965 
L 409.400727 138.995572 
L 409.933091 142.06196 
L 412.328727 159.958428 
L 413.925818 170.342134 
L 415.256727 177.731435 
L 416.587636 183.932881 
L 417.918545 188.987017 
L 418.983273 192.236219 
L 420.048 194.805179 
L 420.846545 196.297347 
L 421.645091 197.418649 
L 422.443636 198.138762 
L 422.976 198.403282 
L 423.508364 198.468834 
L 424.040727 198.348395 
L 424.573091 197.994412 
L 425.105455 197.424366 
L 425.637818 196.594094 
L 426.436364 194.826106 
L 426.436364 194.826106 
" clip-path="url(#pbbdef996bb)" style="fill: none; stroke-dasharray: 3,4.95; stroke-dashoffset: 0; stroke: #ff0000; stroke-width: 3"/>
   </g>
   <g id="line2d_3">
    <path d="M 27.163636 270.348044 
L 28.228364 256.501859 
L 29.293091 245.486569 
L 30.357818 236.872161 
L 31.422545 230.178129 
L 32.487273 224.886147 
L 33.818182 219.565375 
L 35.681455 213.335725 
L 41.005091 196.876768 
L 42.868364 191.76713 
L 43.933091 188.923216 
L 45.264 182.479814 
L 46.594909 180.745593 
L 48.458182 177.904625 
L 49.789091 175.993518 
L 50.587636 175.069028 
L 51.386182 174.450082 
L 51.918545 174.238197 
L 52.450909 174.228052 
L 52.983273 174.451276 
L 53.515636 174.939194 
L 54.048 175.724301 
L 54.580364 176.84104 
L 55.112727 178.335807 
L 55.378909 179.279415 
L 55.911273 183.530846 
L 56.709818 190.386969 
L 58.573091 204.043422 
L 59.637818 214.521462 
L 60.436364 224.199109 
L 61.501091 228.487687 
L 62.033455 230.950261 
L 62.565818 229.537343 
L 63.364364 226.556741 
L 64.429091 221.551919 
L 65.76 214.161357 
L 67.623273 202.651209 
L 69.752727 182.321371 
L 71.349818 169.329914 
L 72.680727 160.455163 
L 73.745455 154.677622 
L 74.810182 149.993276 
L 75.874909 146.197476 
L 77.205818 141.576718 
L 78.004364 134.509615 
L 78.802909 125.497984 
L 79.867636 110.224149 
L 80.4 101.098278 
L 81.198545 113.036028 
L 81.997091 123.464148 
L 82.529455 130.268002 
L 83.061818 140.048607 
L 84.392727 166.325267 
L 85.989818 193.159535 
L 87.054545 208.187795 
L 88.119273 220.288588 
L 89.184 229.626036 
L 89.982545 234.999077 
L 91.047273 240.445256 
L 91.845818 243.704373 
L 92.112 243.352315 
L 92.910545 235.942193 
L 93.709091 226.521125 
L 94.773818 210.307629 
L 96.370909 181.174176 
L 98.234182 144.359007 
L 98.766545 144.670905 
L 99.298909 144.758077 
L 99.831273 144.559764 
L 100.363636 144.032053 
L 100.896 143.095723 
L 101.428364 141.693057 
L 101.960727 139.788323 
L 102.493091 137.315102 
L 102.759273 137.619723 
L 103.557818 142.321589 
L 104.356364 148.202993 
L 105.154909 155.426902 
L 106.219636 167.480509 
L 107.284364 182.884833 
L 107.816727 190.674302 
L 108.615273 188.160345 
L 109.413818 186.326611 
L 110.744727 184.049682 
L 112.341818 181.521286 
L 112.874182 180.738989 
L 113.140364 180.560814 
L 113.938909 180.799729 
L 115.003636 181.180125 
L 115.536 181.188423 
L 116.068364 180.918031 
L 116.600727 180.264664 
L 116.866909 179.6889 
L 117.399273 177.379551 
L 118.197818 172.343532 
L 118.996364 165.528743 
L 119.794909 156.836769 
L 120.593455 147.767152 
L 121.125818 151.059228 
L 122.722909 163.423328 
L 124.053818 175.755912 
L 125.118545 187.719998 
L 126.183273 202.047916 
L 127.248 216.76033 
L 132.571636 261.104136 
L 132.837818 263.767689 
L 133.104 263.444451 
L 134.434909 247.426053 
L 136.032 226.358159 
L 137.362909 211.388078 
L 137.895273 206.780604 
L 139.226182 199.404375 
L 140.823273 191.78153 
L 143.751273 179.077405 
L 144.549818 177.563637 
L 145.082182 176.936933 
L 145.614545 176.680422 
L 146.146909 176.772292 
L 146.679273 177.274533 
L 147.211636 178.161213 
L 147.744 179.441592 
L 148.542545 182.108947 
L 149.341091 185.604438 
L 150.405818 191.420867 
L 151.736727 200.157043 
L 153.067636 209.645598 
L 153.333818 209.359459 
L 154.132364 203.238216 
L 154.930909 198.788472 
L 155.463273 196.740466 
L 155.995636 195.381539 
L 156.528 194.755105 
L 156.794182 194.687242 
L 157.060364 194.839774 
L 157.326545 195.161761 
L 157.858909 196.390295 
L 158.125091 197.169473 
L 158.391273 196.594171 
L 158.923636 194.478688 
L 159.456 193.197827 
L 159.722182 192.917502 
L 159.988364 192.902004 
L 160.254545 193.159689 
L 160.786909 191.829467 
L 161.319273 191.10818 
L 161.851636 190.9332 
L 162.117818 191.015001 
L 162.650182 191.519802 
L 163.182545 192.361163 
L 164.247273 194.248147 
L 164.779636 194.853193 
L 165.312 195.003723 
L 165.844364 194.955208 
L 166.376727 194.594121 
L 166.909091 193.812364 
L 167.441455 192.466066 
L 167.973818 190.452656 
L 168.506182 187.624298 
L 169.038545 183.856875 
L 169.837091 176.169326 
L 170.103273 173.0051 
L 170.369455 173.49117 
L 170.901818 175.991362 
L 171.700364 180.964774 
L 173.297455 191.979612 
L 174.362182 199.065332 
L 177.024 218.525431 
L 177.556364 218.021573 
L 177.822545 218.021053 
L 178.088727 218.170755 
L 178.621091 218.890426 
L 179.153455 220.138212 
L 179.952 222.823549 
L 181.016727 227.64416 
L 182.347636 234.969102 
L 184.210909 246.030856 
L 185.275636 255.050948 
L 185.541818 255.572566 
L 186.074182 255.93629 
L 186.606545 256.117748 
L 187.138909 255.994045 
L 187.671273 255.523926 
L 188.203636 254.61681 
L 188.736 253.167025 
L 189.268364 251.040635 
L 189.800727 248.299141 
L 190.066909 247.629256 
L 190.599273 247.243084 
L 191.131636 246.625814 
L 191.930182 245.236412 
L 192.728727 243.313042 
L 194.325818 238.539771 
L 195.124364 235.524227 
L 196.189091 230.410816 
L 197.52 222.525444 
L 198.584727 214.437717 
L 201.778909 188.629857 
L 202.045091 190.61027 
L 203.908364 216.133858 
L 204.706909 223.225314 
L 205.505455 228.033643 
L 207.634909 238.704277 
L 208.167273 242.943195 
L 208.699636 248.579418 
L 209.232 256.013124 
L 210.030545 271.384989 
L 211.095273 297.637329 
L 211.361455 298.41541 
L 214.555636 281.125748 
L 215.620364 273.573254 
L 216.685091 264.21499 
L 217.749818 252.59954 
L 218.814545 239.515895 
L 219.080727 240.804379 
L 219.879273 246.58525 
L 220.677818 250.945974 
L 221.476364 253.952989 
L 222.008727 255.227073 
L 222.541091 255.948957 
L 223.073455 256.141475 
L 223.339636 256.045611 
L 223.872 255.490823 
L 224.670545 254.12743 
L 224.936727 253.955444 
L 225.469091 253.189973 
L 226.001455 251.907332 
L 226.8 249.152111 
L 228.929455 235.230599 
L 231.058909 223.038524 
L 233.720727 208.386165 
L 235.317818 200.574403 
L 235.850182 198.952978 
L 236.914909 196.44857 
L 237.713455 195.042939 
L 238.245818 194.406744 
L 238.778182 194.078096 
L 239.310545 194.126399 
L 239.842909 194.633626 
L 240.375273 195.719177 
L 240.907636 197.500661 
L 241.44 200.124373 
L 241.972364 203.755415 
L 242.504727 208.642772 
L 243.303273 218.841603 
L 243.835636 229.831568 
L 244.900364 256.955384 
L 245.166545 257.205426 
L 245.698909 255.996817 
L 246.231273 255.562016 
L 246.763636 255.682089 
L 247.296 256.171162 
L 248.360727 257.618088 
L 249.425455 258.92464 
L 249.957818 259.309946 
L 250.490182 259.434418 
L 251.022545 259.255203 
L 251.554909 258.737888 
L 252.087273 257.8617 
L 252.619636 256.602335 
L 253.418182 253.973155 
L 254.216727 250.357254 
L 256.346182 240.180245 
L 256.612364 238.627752 
L 257.410909 225.851779 
L 258.209455 213.929989 
L 258.475636 214.390107 
L 258.741818 214.546952 
L 259.008 214.419697 
L 259.274182 214.040495 
L 259.806545 212.457785 
L 260.072727 211.286987 
L 260.871273 205.082037 
L 261.669818 200.843581 
L 262.202182 198.900844 
L 262.734545 197.570564 
L 263.266909 196.752921 
L 263.799273 196.394453 
L 264.331636 196.4375 
L 264.864 196.863234 
L 265.396364 197.625451 
L 265.928727 198.708423 
L 266.727273 200.906727 
L 267.525818 203.757167 
L 268.590545 208.535963 
L 269.389091 212.654115 
L 269.921455 214.304071 
L 270.453818 216.963148 
L 270.986182 220.815663 
L 271.518545 224.623476 
L 272.317091 228.274194 
L 273.381818 234.43627 
L 275.245091 247.120797 
L 276.576 256.357923 
L 276.842182 261.447145 
L 277.108364 263.289292 
L 277.906909 236.718715 
L 278.705455 216.702748 
L 279.504 202.127849 
L 280.302545 192.219894 
L 280.834909 187.899059 
L 281.367273 185.192911 
L 281.633455 184.420298 
L 281.899636 184.006674 
L 282.165818 184.011217 
L 282.698182 185.498861 
L 284.029091 190.606189 
L 285.093818 196.664575 
L 286.424727 205.765149 
L 289.885091 230.350933 
L 290.417455 233.56143 
L 290.683636 234.44732 
L 290.949818 233.770889 
L 291.482182 231.435521 
L 291.748364 230.210154 
L 292.546909 233.854943 
L 292.813091 234.558153 
L 293.079273 234.937875 
L 293.345455 235.008741 
L 294.410182 236.303232 
L 295.474909 237.243682 
L 296.273455 237.665566 
L 297.072 237.803005 
L 297.604364 237.721223 
L 298.136727 237.489816 
L 298.935273 236.854238 
L 299.733818 235.882503 
L 300.798545 234.090103 
L 301.064727 233.575695 
L 301.330909 232.051415 
L 302.661818 216.234564 
L 303.460364 209.156622 
L 304.258909 204.097924 
L 304.791273 201.866083 
L 305.323636 200.562313 
L 305.589818 200.240018 
L 305.856 200.152057 
L 306.122182 200.29889 
L 306.388364 200.659091 
L 306.654545 199.85325 
L 309.848727 186.204035 
L 310.114909 185.470118 
L 311.179636 184.083642 
L 311.978182 183.431911 
L 313.042909 182.813159 
L 314.373818 180.927118 
L 315.704727 179.474166 
L 316.769455 178.514156 
L 317.035636 177.282618 
L 318.366545 167.768246 
L 319.431273 161.443724 
L 320.229818 157.633793 
L 321.028364 154.77084 
L 321.560727 153.461949 
L 322.093091 152.709608 
L 322.359273 152.554727 
L 322.625455 152.580043 
L 322.891636 152.768056 
L 323.157818 153.139096 
L 323.690182 154.49242 
L 324.222545 156.7418 
L 324.754909 160.022749 
L 325.287273 164.476382 
L 326.085818 173.757461 
L 326.618182 180.276773 
L 327.416727 180.313602 
L 327.949091 180.556867 
L 328.481455 181.09534 
L 329.013818 181.977611 
L 329.546182 183.301673 
L 330.078545 185.102178 
L 330.877091 188.851041 
L 331.409455 191.522902 
L 331.941818 193.258182 
L 332.740364 196.983712 
L 333.538909 202.18083 
L 334.337455 208.900246 
L 335.402182 220.355526 
L 335.934545 227.156685 
L 336.200727 228.577448 
L 336.733091 229.847855 
L 337.265455 231.813194 
L 337.797818 234.448245 
L 338.330182 230.190132 
L 339.661091 219.323457 
L 340.992 210.324513 
L 342.056727 204.630121 
L 342.855273 201.269508 
L 343.387636 199.062617 
L 343.92 196.680361 
L 344.186182 196.091449 
L 344.452364 195.927289 
L 344.718545 196.189171 
L 344.984727 196.916928 
L 345.517091 199.840659 
L 346.049455 204.832515 
L 346.581818 212.039213 
L 347.380364 227.382566 
L 348.178909 248.569494 
L 348.977455 276.06575 
L 349.243636 286.720685 
L 349.509818 291.604481 
L 350.042182 295.289395 
L 350.308364 292.409321 
L 351.106909 280.057297 
L 351.905455 271.168589 
L 352.704 264.535768 
L 354.833455 248.777895 
L 355.898182 238.139507 
L 356.696727 227.867153 
L 357.495273 213.742997 
L 358.293818 195.231163 
L 359.092364 173.926318 
L 359.358545 174.594683 
L 359.624727 174.726481 
L 359.890909 174.32741 
L 360.423273 171.614505 
L 360.955636 167.884065 
L 361.221818 165.610024 
L 361.488 165.845069 
L 363.351273 171.97871 
L 364.416 176.121369 
L 365.480727 181.044612 
L 366.545455 186.947039 
L 367.876364 195.891731 
L 369.207273 206.700959 
L 370.538182 219.407414 
L 372.135273 237.009648 
L 373.998545 260.345066 
L 374.264727 263.883518 
L 374.530909 265.621343 
L 374.797091 260.73814 
L 375.861818 233.228691 
L 376.660364 217.992657 
L 377.458909 208.773338 
L 378.523636 192.87251 
L 380.386909 160.609293 
L 380.653091 160.379889 
L 381.185455 161.2112 
L 381.717818 161.569938 
L 381.984 161.650064 
L 382.516364 162.446376 
L 383.581091 165.045253 
L 384.379636 167.721715 
L 385.178182 171.446918 
L 385.976727 176.425721 
L 386.775273 182.742119 
L 387.84 193.131351 
L 389.170909 208.514324 
L 390.768 228.269227 
L 391.034182 226.975679 
L 392.365091 214.151154 
L 393.163636 207.373155 
L 393.696 208.414542 
L 394.228364 209.855058 
L 394.760727 211.843499 
L 395.026909 213.082852 
L 395.293091 212.025813 
L 396.357818 187.608588 
L 397.156364 173.27682 
L 397.954909 166.69415 
L 398.487273 163.746912 
L 399.019636 161.710631 
L 399.552 160.376385 
L 400.084364 159.536564 
L 401.149091 158.498892 
L 401.681455 157.889958 
L 402.213818 156.97259 
L 402.746182 155.580397 
L 403.278545 153.56922 
L 403.810909 150.814191 
L 404.609455 145.087726 
L 405.408 137.26986 
L 406.472727 125.20193 
L 406.738909 125.93706 
L 407.271273 128.100346 
L 407.803636 129.323162 
L 408.069818 129.616425 
L 408.336 129.710701 
L 408.602182 129.610707 
L 408.868364 130.428446 
L 409.666909 136.626023 
L 410.199273 142.426531 
L 411.796364 162.393742 
L 413.127273 176.264988 
L 414.458182 187.662647 
L 415.522909 195.129187 
L 416.587636 201.330671 
L 417.918545 207.642334 
L 419.249455 212.827689 
L 422.976 226.37229 
L 424.040727 231.396739 
L 425.105455 237.530842 
L 426.170182 245.095912 
L 426.436364 247.253018 
L 426.436364 247.253018 
" clip-path="url(#pbbdef996bb)" style="fill: none; stroke: #ff0000; stroke-width: 3; stroke-linecap: square"/>
   </g>
   <g id="patch_3">
    <path d="M 7.2 331.2 
L 7.2 7.2 
" style="fill: none; stroke: #000000; stroke-width: 0.8; stroke-linejoin: miter; stroke-linecap: square"/>
   </g>
   <g id="patch_4">
    <path d="M 446.4 331.2 
L 446.4 7.2 
" style="fill: none; stroke: #000000; stroke-width: 0.8; stroke-linejoin: miter; stroke-linecap: square"/>
   </g>
   <g id="patch_5">
    <path d="M 7.2 331.2 
L 446.4 331.2 
" style="fill: none; stroke: #000000; stroke-width: 0.8; stroke-linejoin: miter; stroke-linecap: square"/>
   </g>
   <g id="patch_6">
    <path d="M 7.2 7.2 
L 446.4 7.2 
" style="fill: none; stroke: #000000; stroke-width: 0.8; stroke-linejoin: miter; stroke-linecap: square"/>
   </g>
  </g>
 </g>
 <defs>
  <clipPath id="pbbdef996bb">
   <rect x="7.2" y="7.2" width="439.2" height="324"/>
  </clipPath>
 </defs>
</svg>
