<?xml version="1.0" encoding="utf-8" standalone="no"?>
<!DOCTYPE svg PUBLIC "-//W3C//DTD SVG 1.1//EN"
  "http://www.w3.org/Graphics/SVG/1.1/DTD/svg11.dtd">
<svg xmlns:xlink="http://www.w3.org/1999/xlink" width="453.6pt" height="338.4pt" viewBox="0 0 453.6 338.4" xmlns="http://www.w3.org/2000/svg" version="1.1">
 <metadata>
  <rdf:RDF xmlns:dc="http://purl.org/dc/elements/1.1/" xmlns:cc="http://creativecommons.org/ns#" xmlns:rdf="http://www.w3.org/1999/02/22-rdf-syntax-ns#">
   <cc:Work>
    <dc:type rdf:resource="http://purl.org/dc/dcmitype/StillImage"/>
    <dc:date>2025-05-14T00:03:19.189007</dc:date>
    <dc:format>image/svg+xml</dc:format>
    <dc:creator>
     <cc:Agent>
      <dc:title>Matplotlib v3.10.1, https://matplotlib.org/</dc:title>
     </cc:Agent>
    </dc:creator>
   </cc:Work>
  </rdf:RDF>
 </metadata>
 <defs>
  <style type="text/css">*{stroke-linejoin: round; stroke-linecap: butt}</style>
 </defs>
 <g id="figure_1">
  <g id="patch_1">
   <path d="M 0 338.4 
L 453.6 338.4 
L 453.6 0 
L 0 0 
z
" style="fill: #ffffff"/>
  </g>
  <g id="axes_1">
   <g id="patch_2">
    <path d="M 7.2 331.2 
L 446.4 331.2 
L 446.4 7.2 
L 7.2 7.2 
z
" style="fill: #ffffff"/>
   </g>
   <g id="matplotlib.axis_1"/>
   <g id="matplotlib.axis_2"/>
   <g id="line2d_1">
    <path d="M 27.163636 213.251533 
L 75.608727 159.426701 
L 132.571636 316.109435 
L 132.837818 316.472727 
L 186.074182 183.593509 
L 238.778182 24.989376 
L 239.044364 25.333282 
L 305.057455 206.001221 
L 305.589818 204.43464 
L 358.826182 21.927273 
L 359.092364 22.209724 
L 426.436364 293.503776 
L 426.436364 293.503776 
" clip-path="url(#p9148ea5f89)" style="fill: none; stroke-dasharray: 11.1,4.8; stroke-dashoffset: 0; stroke: #000000; stroke-width: 3"/>
   </g>
   <g id="line2d_2">
    <path d="M 27.163636 180.342504 
L 29.026909 182.67548 
L 30.624 184.363678 
L 32.221091 185.740128 
L 33.552 186.632421 
L 34.882909 187.278959 
L 36.213818 187.666407 
L 37.544727 187.781516 
L 38.609455 187.668591 
L 39.674182 187.366043 
L 40.738909 186.867154 
L 41.803636 186.165118 
L 43.134545 184.991582 
L 43.666909 184.520208 
L 45.264 184.073638 
L 53.781818 181.903595 
L 55.645091 181.108327 
L 57.508364 180.069105 
L 59.105455 178.939747 
L 60.170182 178.045905 
L 62.033455 178.0115 
L 64.162909 178.215897 
L 66.558545 178.673873 
L 70.285091 179.641338 
L 74.544 180.705892 
L 76.939636 181.076889 
L 78.536727 181.266087 
L 80.133818 181.685672 
L 81.997091 182.417874 
L 84.126545 183.503966 
L 87.054545 185.280562 
L 93.975273 189.817223 
L 95.838545 191.994028 
L 97.968 194.817657 
L 100.896 199.103189 
L 110.212364 213.095691 
L 110.744727 213.742928 
L 111.809455 214.423924 
L 114.205091 215.676829 
L 116.600727 216.669434 
L 118.996364 217.407815 
L 121.392 217.896582 
L 123.787636 218.139551 
L 126.183273 218.138448 
L 130.974545 217.756417 
L 144.816 216.799531 
L 146.146909 216.469489 
L 147.744 215.851548 
L 149.074909 215.1249 
L 150.405818 214.171279 
L 151.736727 212.958535 
L 153.067636 211.454756 
L 154.398545 209.628301 
L 155.729455 207.447944 
L 157.060364 204.882949 
L 158.657455 201.254481 
L 160.254545 196.977027 
L 161.585455 192.919752 
L 164.247273 179.832147 
L 172.232727 141.225471 
L 178.354909 111.407185 
L 180.750545 96.143453 
L 182.88 84.113914 
L 185.009455 73.453301 
L 186.872727 65.174462 
L 188.736 57.801866 
L 190.599273 51.266871 
L 192.462545 45.503189 
L 194.059636 41.132048 
L 194.325818 40.801539 
L 194.858182 41.361608 
L 195.656727 42.593165 
L 196.455273 44.26911 
L 197.52 47.146361 
L 198.584727 50.696882 
L 199.915636 55.982936 
L 201.512727 63.402275 
L 203.376 73.262576 
L 205.771636 87.32744 
L 209.764364 112.458448 
L 211.361455 122.02608 
L 213.757091 134.821589 
L 215.886545 145.028446 
L 217.749818 152.989135 
L 219.613091 159.984395 
L 221.210182 165.168251 
L 222.807273 169.563644 
L 224.138182 172.597596 
L 225.469091 175.03682 
L 226.533818 176.545464 
L 227.598545 177.905825 
L 229.195636 180.329361 
L 230.792727 182.33946 
L 232.123636 183.686486 
L 233.454545 184.724669 
L 234.785455 185.444131 
L 235.850182 185.783606 
L 236.914909 185.907767 
L 237.979636 185.811609 
L 239.044364 185.490132 
L 240.109091 184.938352 
L 241.173818 184.151288 
L 242.238545 183.124022 
L 243.569455 181.494694 
L 244.101818 180.544019 
L 246.231273 175.504017 
L 248.094545 171.622691 
L 249.957818 168.2124 
L 251.821091 165.251371 
L 253.684364 162.717983 
L 255.547636 160.590613 
L 257.144727 159.073977 
L 258.741818 157.825821 
L 260.338909 156.832855 
L 260.871273 156.619151 
L 264.597818 155.842475 
L 268.590545 155.245054 
L 272.849455 154.830832 
L 277.374545 154.596863 
L 279.237818 154.796872 
L 282.165818 155.30458 
L 285.36 156.086407 
L 288.820364 157.170486 
L 292.546909 158.574091 
L 294.676364 159.322276 
L 297.338182 159.651873 
L 300 159.769674 
L 302.661818 159.682018 
L 305.589818 159.356025 
L 308.517818 158.797779 
L 311.978182 157.883778 
L 314.906182 157.230393 
L 317.834182 156.796838 
L 320.762182 156.587353 
L 323.690182 156.606432 
L 326.618182 156.858696 
L 327.949091 156.970455 
L 329.812364 156.757642 
L 331.675636 156.308273 
L 333.538909 155.619486 
L 335.402182 154.68842 
L 337.265455 153.512 
L 339.128727 152.087154 
L 341.258182 150.15055 
L 343.387636 147.879856 
L 344.452364 146.533593 
L 347.912727 141.726543 
L 351.106909 137.665983 
L 354.301091 133.978307 
L 357.229091 130.934392 
L 360.157091 128.220921 
L 360.689455 127.888484 
L 362.020364 128.13583 
L 363.351273 128.59601 
L 364.948364 129.405587 
L 366.545455 130.468784 
L 368.408727 131.991102 
L 370.538182 134.046651 
L 372.933818 136.680161 
L 376.128 140.55695 
L 380.919273 146.426031 
L 387.307636 154.194873 
L 390.235636 158.114907 
L 392.897455 162.05118 
L 394.228364 163.966902 
L 399.818182 171.232636 
L 404.077091 176.935774 
L 407.005091 181.22157 
L 409.666909 185.528374 
L 410.731636 187.677664 
L 412.861091 191.900584 
L 414.990545 195.641575 
L 416.853818 198.513304 
L 418.717091 201.003669 
L 420.580364 203.107254 
L 422.177455 204.598432 
L 423.774545 205.79818 
L 425.371636 206.703363 
L 426.436364 207.141613 
L 426.436364 207.141613 
" clip-path="url(#p9148ea5f89)" style="fill: none; stroke-dasharray: 3,4.95; stroke-dashoffset: 0; stroke: #ffa500; stroke-width: 3"/>
   </g>
   <g id="line2d_3">
    <path d="M 27.163636 165.41759 
L 30.091636 166.194309 
L 33.019636 166.750031 
L 36.213818 167.136589 
L 39.940364 167.34724 
L 45.264 167.37289 
L 59.371636 167.339291 
L 65.227636 167.382175 
L 84.392727 167.532495 
L 111.010909 167.471146 
L 129.111273 167.77647 
L 136.298182 167.610591 
L 139.758545 167.389044 
L 146.413091 166.022154 
L 163.448727 162.074095 
L 173.563636 159.61238 
L 177.024 159.040504 
L 182.347636 158.507548 
L 187.138909 158.242438 
L 191.930182 158.201016 
L 193.793455 158.336666 
L 197.52 158.839901 
L 201.512727 159.599661 
L 205.771636 160.63265 
L 212.958545 162.667255 
L 225.735273 166.685397 
L 227.598545 167.074986 
L 228.929455 167.222316 
L 235.317818 167.482254 
L 244.101818 167.600373 
L 253.418182 167.444224 
L 284.827636 166.707634 
L 301.064727 166.685248 
L 313.042909 166.899397 
L 332.740364 167.567982 
L 341.790545 167.491603 
L 345.517091 167.309612 
L 359.092364 166.294154 
L 360.955636 166.241772 
L 367.344 166.406189 
L 387.041455 167.11202 
L 416.321455 167.525945 
L 422.976 167.350717 
L 426.436364 167.144538 
L 426.436364 167.144538 
" clip-path="url(#p9148ea5f89)" style="fill: none; stroke: #ffa500; stroke-width: 3; stroke-linecap: square"/>
   </g>
   <g id="patch_3">
    <path d="M 7.2 331.2 
L 7.2 7.2 
" style="fill: none; stroke: #000000; stroke-width: 0.8; stroke-linejoin: miter; stroke-linecap: square"/>
   </g>
   <g id="patch_4">
    <path d="M 446.4 331.2 
L 446.4 7.2 
" style="fill: none; stroke: #000000; stroke-width: 0.8; stroke-linejoin: miter; stroke-linecap: square"/>
   </g>
   <g id="patch_5">
    <path d="M 7.2 331.2 
L 446.4 331.2 
" style="fill: none; stroke: #000000; stroke-width: 0.8; stroke-linejoin: miter; stroke-linecap: square"/>
   </g>
   <g id="patch_6">
    <path d="M 7.2 7.2 
L 446.4 7.2 
" style="fill: none; stroke: #000000; stroke-width: 0.8; stroke-linejoin: miter; stroke-linecap: square"/>
   </g>
  </g>
 </g>
 <defs>
  <clipPath id="p9148ea5f89">
   <rect x="7.2" y="7.2" width="439.2" height="324"/>
  </clipPath>
 </defs>
</svg>
