<?xml version="1.0" encoding="utf-8" standalone="no"?>
<!DOCTYPE svg PUBLIC "-//W3C//DTD SVG 1.1//EN"
  "http://www.w3.org/Graphics/SVG/1.1/DTD/svg11.dtd">
<svg xmlns:xlink="http://www.w3.org/1999/xlink" width="453.6pt" height="338.4pt" viewBox="0 0 453.6 338.4" xmlns="http://www.w3.org/2000/svg" version="1.1">
 <metadata>
  <rdf:RDF xmlns:dc="http://purl.org/dc/elements/1.1/" xmlns:cc="http://creativecommons.org/ns#" xmlns:rdf="http://www.w3.org/1999/02/22-rdf-syntax-ns#">
   <cc:Work>
    <dc:type rdf:resource="http://purl.org/dc/dcmitype/StillImage"/>
    <dc:date>2025-05-14T00:09:40.257306</dc:date>
    <dc:format>image/svg+xml</dc:format>
    <dc:creator>
     <cc:Agent>
      <dc:title>Matplotlib v3.10.1, https://matplotlib.org/</dc:title>
     </cc:Agent>
    </dc:creator>
   </cc:Work>
  </rdf:RDF>
 </metadata>
 <defs>
  <style type="text/css">*{stroke-linejoin: round; stroke-linecap: butt}</style>
 </defs>
 <g id="figure_1">
  <g id="patch_1">
   <path d="M 0 338.4 
L 453.6 338.4 
L 453.6 0 
L 0 0 
z
" style="fill: #ffffff"/>
  </g>
  <g id="axes_1">
   <g id="patch_2">
    <path d="M 7.2 331.2 
L 446.4 331.2 
L 446.4 7.2 
L 7.2 7.2 
z
" style="fill: #ffffff"/>
   </g>
   <g id="matplotlib.axis_1"/>
   <g id="matplotlib.axis_2"/>
   <g id="line2d_1">
    <path d="M 27.163636 316.472727 
L 33.285818 291.935816 
L 39.141818 269.378741 
L 44.997818 247.721393 
L 50.587636 227.893977 
L 56.177455 208.898442 
L 61.501091 191.586394 
L 66.824727 175.039325 
L 71.882182 160.032982 
L 76.939636 145.726104 
L 81.730909 132.821398 
L 86.522182 120.55227 
L 91.047273 109.551596 
L 95.572364 99.124255 
L 100.097455 89.273353 
L 104.356364 80.531342 
L 108.615273 72.305393 
L 112.608 65.064553 
L 116.600727 58.281823 
L 120.327273 52.366328 
L 124.053818 46.853542 
L 127.780364 41.745132 
L 131.240727 37.36525 
L 134.701091 33.336969 
L 138.161455 29.661728 
L 141.355636 26.583784 
L 144.549818 23.808906 
L 146.945455 21.927323 
L 147.211636 22.049212 
L 150.139636 39.259308 
L 153.067636 55.079945 
L 155.729455 68.292869 
L 158.391273 80.425564 
L 161.053091 91.510476 
L 163.714909 101.57998 
L 166.110545 109.80108 
L 168.506182 117.249613 
L 170.901818 123.949114 
L 173.031273 129.29461 
L 175.160727 134.083589 
L 177.290182 138.332643 
L 179.419636 142.058413 
L 181.282909 144.902175 
L 183.146182 147.369086 
L 185.009455 149.470332 
L 186.872727 151.216946 
L 188.469818 152.440225 
L 190.066909 153.418136 
L 191.664 154.157725 
L 193.261091 154.665935 
L 194.858182 154.949836 
L 196.455273 155.016348 
L 198.052364 154.872516 
L 199.649455 154.52531 
L 201.512727 153.872586 
L 203.376 152.963763 
L 205.239273 151.809874 
L 207.368727 150.205451 
L 209.498182 148.3121 
L 211.893818 145.857461 
L 214.289455 143.081776 
L 216.951273 139.650009 
L 219.879273 135.489663 
L 223.073455 130.539959 
L 226.533818 124.75673 
L 230.526545 117.63048 
L 235.317818 108.585528 
L 241.706182 95.998586 
L 254.749091 70.18877 
L 259.540364 61.262903 
L 263.533091 54.271849 
L 266.993455 48.632301 
L 270.187636 43.836933 
L 273.115636 39.836504 
L 275.777455 36.565336 
L 278.173091 33.946689 
L 280.568727 31.660781 
L 282.698182 29.927373 
L 284.827636 28.492108 
L 286.690909 27.493945 
L 288.554182 26.747918 
L 290.417455 26.265161 
L 292.014545 26.069311 
L 293.611636 26.082063 
L 295.208727 26.310361 
L 296.805818 26.76125 
L 298.402909 27.441725 
L 300 28.358806 
L 301.597091 29.519461 
L 303.194182 30.930662 
L 305.057455 32.9032 
L 306.920727 35.23744 
L 308.784 37.944568 
L 309.582545 39.253702 
L 311.978182 48.570132 
L 314.107636 56.032857 
L 316.237091 62.757761 
L 318.366545 68.776232 
L 320.496 74.119454 
L 322.625455 78.818463 
L 324.488727 82.426435 
L 326.352 85.586067 
L 328.215273 88.318522 
L 330.078545 90.644505 
L 331.941818 92.585025 
L 333.538909 93.957464 
L 335.136 95.075217 
L 336.733091 95.951517 
L 338.330182 96.599569 
L 339.927273 97.032479 
L 341.524364 97.263529 
L 343.387636 97.295472 
L 345.250909 97.091492 
L 347.114182 96.672445 
L 349.243636 95.957097 
L 351.639273 94.888256 
L 354.301091 93.424886 
L 357.229091 91.550273 
L 360.955636 88.887764 
L 372.667636 80.293272 
L 375.595636 78.515472 
L 378.257455 77.16692 
L 380.386909 76.313953 
L 382.516364 75.695748 
L 384.379636 75.371823 
L 386.242909 75.272509 
L 388.106182 75.418589 
L 389.703273 75.755038 
L 391.300364 76.300418 
L 392.897455 77.067859 
L 394.494545 78.070567 
L 396.091636 79.321749 
L 397.688727 80.834485 
L 399.285818 82.622057 
L 401.149091 85.072454 
L 403.012364 87.935812 
L 404.875636 91.232938 
L 406.738909 94.984868 
L 408.602182 99.212534 
L 410.731636 104.653404 
L 412.861091 110.774294 
L 414.990545 117.606214 
L 417.12 125.180651 
L 419.249455 133.528589 
L 421.645091 143.883736 
L 424.040727 155.302119 
L 426.436364 167.828078 
L 426.436364 167.828078 
" clip-path="url(#p33f6bed45d)" style="fill: none; stroke-dasharray: 11.1,4.8; stroke-dashoffset: 0; stroke: #000000; stroke-width: 3"/>
   </g>
   <g id="line2d_2">
    <path d="M 27.163636 316.472708 
L 33.285818 291.935797 
L 39.141818 269.378716 
L 44.997818 247.721368 
L 50.587636 227.893951 
L 56.177455 208.898405 
L 61.501091 191.586356 
L 66.824727 175.039287 
L 71.882182 160.032944 
L 76.939636 145.726078 
L 81.730909 132.821373 
L 86.522182 120.552245 
L 91.047273 109.551571 
L 95.572364 99.12423 
L 100.097455 89.273328 
L 104.356364 80.531317 
L 108.615273 72.305368 
L 112.608 65.064527 
L 116.600727 58.281798 
L 120.327273 52.366277 
L 124.053818 46.853491 
L 127.780364 41.745081 
L 131.240727 37.3652 
L 134.701091 33.336919 
L 138.161455 29.661677 
L 141.355636 26.583733 
L 144.549818 23.808856 
L 146.945455 21.927273 
L 147.211636 22.049161 
L 150.139636 39.259257 
L 153.067636 55.079919 
L 155.729455 68.292844 
L 158.391273 80.425538 
L 161.053091 91.510451 
L 163.714909 101.579954 
L 166.110545 109.801055 
L 168.506182 117.249588 
L 170.901818 123.949089 
L 173.031273 129.294584 
L 175.160727 134.083564 
L 177.290182 138.332618 
L 179.419636 142.058387 
L 181.282909 144.90215 
L 183.146182 147.369061 
L 185.009455 149.470306 
L 186.872727 151.216921 
L 188.469818 152.4402 
L 190.066909 153.418111 
L 191.664 154.1577 
L 193.261091 154.665909 
L 194.858182 154.949811 
L 196.455273 155.016323 
L 198.052364 154.872491 
L 199.649455 154.525284 
L 201.512727 153.872561 
L 203.376 152.963737 
L 205.239273 151.809849 
L 207.368727 150.205425 
L 209.498182 148.312075 
L 211.893818 145.857436 
L 214.289455 143.081751 
L 216.951273 139.649984 
L 219.879273 135.489638 
L 223.073455 130.539933 
L 226.533818 124.756705 
L 230.526545 117.630455 
L 235.317818 108.585502 
L 241.706182 95.99856 
L 254.749091 70.188745 
L 259.540364 61.262878 
L 263.533091 54.271824 
L 266.993455 48.632251 
L 270.187636 43.836882 
L 273.115636 39.836454 
L 275.777455 36.565286 
L 278.173091 33.946639 
L 280.568727 31.66073 
L 282.698182 29.927322 
L 284.827636 28.492058 
L 286.690909 27.493895 
L 288.554182 26.747867 
L 290.417455 26.265111 
L 292.014545 26.069261 
L 293.611636 26.082013 
L 295.208727 26.310311 
L 296.805818 26.7612 
L 298.402909 27.441675 
L 300 28.358755 
L 301.597091 29.519411 
L 303.194182 30.930611 
L 305.057455 32.90315 
L 306.920727 35.23739 
L 308.784 37.944517 
L 309.582545 39.253651 
L 311.978182 48.570082 
L 314.107636 56.032832 
L 316.237091 62.757736 
L 318.366545 68.776206 
L 320.496 74.119429 
L 322.625455 78.818438 
L 324.488727 82.426409 
L 326.352 85.586042 
L 328.215273 88.318497 
L 330.078545 90.644479 
L 331.941818 92.584999 
L 333.538909 93.957439 
L 335.136 95.075192 
L 336.733091 95.951492 
L 338.330182 96.599544 
L 339.927273 97.032454 
L 341.524364 97.263504 
L 343.387636 97.295447 
L 345.250909 97.091466 
L 347.114182 96.672419 
L 349.243636 95.957072 
L 351.639273 94.888231 
L 354.301091 93.424861 
L 357.229091 91.550247 
L 360.955636 88.887739 
L 372.667636 80.293246 
L 375.595636 78.515446 
L 378.257455 77.166895 
L 380.386909 76.313928 
L 382.516364 75.695723 
L 384.379636 75.371798 
L 386.242909 75.272484 
L 388.106182 75.418563 
L 389.703273 75.755013 
L 391.300364 76.300393 
L 392.897455 77.067834 
L 394.494545 78.070542 
L 396.091636 79.321724 
L 397.688727 80.83446 
L 399.285818 82.622032 
L 401.149091 85.072428 
L 403.012364 87.935786 
L 404.875636 91.232913 
L 406.738909 94.984843 
L 408.602182 99.212509 
L 410.731636 104.653379 
L 412.861091 110.774269 
L 414.990545 117.606188 
L 417.12 125.180625 
L 419.249455 133.528563 
L 421.645091 143.883711 
L 424.040727 155.302093 
L 426.436364 167.828041 
L 426.436364 167.828041 
" clip-path="url(#p33f6bed45d)" style="fill: none; stroke-dasharray: 3,4.95; stroke-dashoffset: 0; stroke: #0000ff; stroke-width: 3"/>
   </g>
   <g id="line2d_3">
    <path d="M 27.163636 316.472721 
L 33.285818 291.935803 
L 39.141818 269.378735 
L 44.997818 247.721381 
L 50.587636 227.893964 
L 56.177455 208.89843 
L 61.501091 191.586381 
L 66.824727 175.039312 
L 71.882182 160.032969 
L 76.939636 145.726104 
L 81.730909 132.821398 
L 86.522182 120.55227 
L 91.047273 109.551571 
L 95.572364 99.12423 
L 100.097455 89.273328 
L 104.356364 80.531317 
L 108.615273 72.305368 
L 112.608 65.064527 
L 116.600727 58.281798 
L 120.327273 52.366328 
L 124.053818 46.853542 
L 127.780364 41.745132 
L 131.240727 37.36525 
L 134.701091 33.336969 
L 138.161455 29.661728 
L 141.355636 26.583784 
L 144.549818 23.808932 
L 146.945455 21.927348 
L 147.211636 22.049237 
L 150.139636 39.259333 
L 153.067636 55.079945 
L 155.729455 68.292869 
L 158.391273 80.425564 
L 161.053091 91.510476 
L 163.714909 101.57998 
L 166.110545 109.80108 
L 168.506182 117.249613 
L 170.901818 123.949114 
L 173.031273 129.29461 
L 175.160727 134.083589 
L 177.290182 138.332643 
L 179.419636 142.058413 
L 181.282909 144.902175 
L 183.146182 147.369086 
L 185.009455 149.470332 
L 186.872727 151.216946 
L 188.469818 152.440225 
L 190.066909 153.418162 
L 191.664 154.15775 
L 193.261091 154.66596 
L 194.858182 154.949861 
L 196.455273 155.016374 
L 198.052364 154.872542 
L 199.649455 154.525335 
L 201.512727 153.872611 
L 203.376 152.963788 
L 205.239273 151.8099 
L 207.368727 150.205476 
L 209.498182 148.312125 
L 211.893818 145.857487 
L 214.289455 143.081802 
L 216.951273 139.650035 
L 219.879273 135.489689 
L 223.073455 130.539984 
L 226.533818 124.756755 
L 230.526545 117.630505 
L 235.317818 108.585553 
L 241.706182 95.998611 
L 254.749091 70.188795 
L 259.540364 61.262928 
L 263.533091 54.271874 
L 266.993455 48.632352 
L 270.187636 43.836983 
L 273.115636 39.836555 
L 275.777455 36.565387 
L 278.173091 33.94674 
L 280.568727 31.660806 
L 282.698182 29.927398 
L 284.827636 28.492133 
L 286.690909 27.49397 
L 288.554182 26.747943 
L 290.417455 26.265187 
L 292.014545 26.069337 
L 293.611636 26.082089 
L 295.208727 26.310387 
L 296.805818 26.761276 
L 298.402909 27.441751 
L 300 28.358831 
L 301.597091 29.519487 
L 303.194182 30.930687 
L 305.057455 32.903226 
L 306.920727 35.237466 
L 308.784 37.944593 
L 309.582545 39.253727 
L 311.978182 48.570157 
L 314.107636 56.032857 
L 316.237091 62.757761 
L 318.366545 68.776232 
L 320.496 74.119454 
L 322.625455 78.818463 
L 324.488727 82.426435 
L 326.352 85.586067 
L 328.215273 88.318522 
L 330.078545 90.644505 
L 331.941818 92.585025 
L 333.538909 93.957464 
L 335.136 95.075217 
L 336.733091 95.951517 
L 338.330182 96.599569 
L 339.927273 97.032479 
L 341.524364 97.263555 
L 343.387636 97.295498 
L 345.250909 97.091517 
L 347.114182 96.67247 
L 349.243636 95.957123 
L 351.639273 94.888281 
L 354.301091 93.424912 
L 357.229091 91.550298 
L 360.955636 88.88779 
L 372.667636 80.293297 
L 375.595636 78.515497 
L 378.257455 77.166945 
L 380.386909 76.313978 
L 382.516364 75.695773 
L 384.379636 75.371848 
L 386.242909 75.272534 
L 388.106182 75.418614 
L 389.703273 75.755064 
L 391.300364 76.300443 
L 392.897455 77.067884 
L 394.494545 78.070592 
L 396.091636 79.321774 
L 397.688727 80.83451 
L 399.285818 82.622082 
L 401.149091 85.072479 
L 403.012364 87.935837 
L 404.875636 91.232963 
L 406.738909 94.984893 
L 408.602182 99.212559 
L 410.731636 104.653429 
L 412.861091 110.774319 
L 414.990545 117.606239 
L 417.12 125.180676 
L 419.249455 133.528614 
L 421.645091 143.883761 
L 424.040727 155.302144 
L 426.436364 167.828091 
L 426.436364 167.828091 
" clip-path="url(#p33f6bed45d)" style="fill: none; stroke: #0000ff; stroke-width: 3; stroke-linecap: square"/>
   </g>
   <g id="patch_3">
    <path d="M 7.2 331.2 
L 7.2 7.2 
" style="fill: none; stroke: #000000; stroke-width: 0.8; stroke-linejoin: miter; stroke-linecap: square"/>
   </g>
   <g id="patch_4">
    <path d="M 446.4 331.2 
L 446.4 7.2 
" style="fill: none; stroke: #000000; stroke-width: 0.8; stroke-linejoin: miter; stroke-linecap: square"/>
   </g>
   <g id="patch_5">
    <path d="M 7.2 331.2 
L 446.4 331.2 
" style="fill: none; stroke: #000000; stroke-width: 0.8; stroke-linejoin: miter; stroke-linecap: square"/>
   </g>
   <g id="patch_6">
    <path d="M 7.2 7.2 
L 446.4 7.2 
" style="fill: none; stroke: #000000; stroke-width: 0.8; stroke-linejoin: miter; stroke-linecap: square"/>
   </g>
  </g>
 </g>
 <defs>
  <clipPath id="p33f6bed45d">
   <rect x="7.2" y="7.2" width="439.2" height="324"/>
  </clipPath>
 </defs>
</svg>
