<?xml version="1.0" encoding="utf-8" standalone="no"?>
<!DOCTYPE svg PUBLIC "-//W3C//DTD SVG 1.1//EN"
  "http://www.w3.org/Graphics/SVG/1.1/DTD/svg11.dtd">
<svg xmlns:xlink="http://www.w3.org/1999/xlink" width="453.6pt" height="338.4pt" viewBox="0 0 453.6 338.4" xmlns="http://www.w3.org/2000/svg" version="1.1">
 <metadata>
  <rdf:RDF xmlns:dc="http://purl.org/dc/elements/1.1/" xmlns:cc="http://creativecommons.org/ns#" xmlns:rdf="http://www.w3.org/1999/02/22-rdf-syntax-ns#">
   <cc:Work>
    <dc:type rdf:resource="http://purl.org/dc/dcmitype/StillImage"/>
    <dc:date>2025-05-14T08:48:59.045531</dc:date>
    <dc:format>image/svg+xml</dc:format>
    <dc:creator>
     <cc:Agent>
      <dc:title>Matplotlib v3.10.1, https://matplotlib.org/</dc:title>
     </cc:Agent>
    </dc:creator>
   </cc:Work>
  </rdf:RDF>
 </metadata>
 <defs>
  <style type="text/css">*{stroke-linejoin: round; stroke-linecap: butt}</style>
 </defs>
 <g id="figure_1">
  <g id="patch_1">
   <path d="M 0 338.4 
L 453.6 338.4 
L 453.6 0 
L 0 0 
z
" style="fill: #ffffff"/>
  </g>
  <g id="axes_1">
   <g id="patch_2">
    <path d="M 7.2 331.2 
L 446.4 331.2 
L 446.4 7.2 
L 7.2 7.2 
z
" style="fill: #ffffff"/>
   </g>
   <g id="matplotlib.axis_1"/>
   <g id="matplotlib.axis_2"/>
   <g id="line2d_1">
    <path d="M 27.163636 315.573307 
L 159.456 21.927273 
L 297.870545 316.216528 
L 298.136727 316.472727 
L 426.436364 151.816428 
L 426.436364 151.816428 
" clip-path="url(#pc24ec13785)" style="fill: none; stroke-dasharray: 11.1,4.8; stroke-dashoffset: 0; stroke: #000000; stroke-width: 3"/>
   </g>
   <g id="line2d_2">
    <path d="M 27.163636 192.29147 
L 28.760727 189.814311 
L 30.091636 188.162316 
L 31.156364 187.140741 
L 32.221091 186.374534 
L 33.552 185.691361 
L 35.947636 184.576552 
L 36.746182 183.963421 
L 37.544727 183.061171 
L 38.343273 181.749591 
L 39.141818 179.881643 
L 39.940364 177.303004 
L 40.206545 176.257305 
L 40.472727 177.415224 
L 41.271273 183.40854 
L 41.803636 186.276809 
L 42.336 188.284239 
L 42.868364 189.510862 
L 43.400727 190.01296 
L 43.666909 190.021837 
L 44.465455 189.615977 
L 45.264 188.834419 
L 46.062545 187.696884 
L 47.127273 185.727365 
L 48.990545 181.613533 
L 50.321455 178.799549 
L 51.12 177.454368 
L 51.918545 176.55021 
L 52.450909 176.270509 
L 52.717091 176.246055 
L 53.249455 176.762032 
L 54.846545 178.804416 
L 58.040727 182.995906 
L 59.105455 184.044232 
L 59.904 184.605392 
L 60.436364 184.848803 
L 62.565818 184.985492 
L 63.630545 184.866167 
L 64.695273 184.52087 
L 65.76 183.877547 
L 66.558545 183.161059 
L 67.623273 181.854225 
L 68.421818 180.786987 
L 68.688 180.840386 
L 70.551273 182.384427 
L 72.414545 183.637411 
L 74.011636 184.459375 
L 75.608727 185.031996 
L 77.205818 185.466621 
L 79.069091 187.347817 
L 81.464727 189.421564 
L 84.925091 192.158807 
L 85.989818 193.864681 
L 87.054545 195.129802 
L 88.119273 196.029439 
L 89.184 196.637388 
L 90.248727 197.014018 
L 91.579636 197.249017 
L 93.442909 197.304113 
L 93.975273 197.241356 
L 94.773818 196.852229 
L 95.572364 196.208456 
L 96.903273 194.781246 
L 99.565091 191.42563 
L 102.226909 188.212711 
L 103.291636 187.279097 
L 104.622545 186.43379 
L 106.219636 185.747343 
L 107.816727 185.300491 
L 109.68 185.011162 
L 111.010909 184.961083 
L 112.075636 185.17609 
L 114.205091 185.948756 
L 115.802182 186.402352 
L 116.866909 186.494339 
L 117.931636 186.364605 
L 118.996364 185.994449 
L 119.794909 185.561627 
L 120.061091 185.985587 
L 120.859636 187.968519 
L 121.658182 189.397981 
L 122.456727 190.40054 
L 123.255273 191.067506 
L 124.32 191.584714 
L 125.384727 191.821576 
L 127.248 191.900781 
L 128.578909 191.766345 
L 130.176 191.368326 
L 131.773091 190.768218 
L 133.636364 189.861596 
L 136.032 188.437556 
L 140.024727 185.714192 
L 142.154182 184.387802 
L 143.485091 183.79229 
L 144.549818 183.688737 
L 146.945455 183.552319 
L 147.744 183.721632 
L 148.542545 184.15815 
L 149.074909 184.666286 
L 150.139636 186.004453 
L 150.938182 186.427392 
L 151.736727 187.066073 
L 152.801455 188.26656 
L 153.866182 189.851337 
L 155.197091 192.290328 
L 159.722182 201.213003 
L 160.254545 201.914786 
L 163.981091 202.709218 
L 164.513455 201.572915 
L 167.175273 195.476931 
L 168.506182 192.991211 
L 169.570909 191.44762 
L 170.369455 190.597402 
L 171.168 190.032863 
L 171.966545 189.755595 
L 172.765091 189.749887 
L 173.563636 189.988116 
L 174.628364 190.58498 
L 176.491636 191.766135 
L 177.290182 191.957274 
L 177.822545 191.776905 
L 178.354909 191.259441 
L 179.153455 190.159758 
L 179.952 192.446334 
L 180.484364 193.479925 
L 181.016727 194.166778 
L 181.549091 194.547494 
L 182.081455 194.662492 
L 182.613818 194.550918 
L 183.412364 194.043939 
L 184.210909 193.243409 
L 185.541818 191.539081 
L 188.203636 188.0712 
L 189.534545 186.745756 
L 190.599273 185.956537 
L 191.664 185.404179 
L 192.728727 185.066889 
L 193.527273 184.943599 
L 195.124364 183.530764 
L 197.786182 181.308026 
L 198.850909 180.671643 
L 199.649455 180.392107 
L 200.448 180.33665 
L 201.246545 180.561826 
L 202.045091 181.117008 
L 202.843636 182.055413 
L 203.642182 183.428848 
L 204.440727 185.278651 
L 205.505455 188.396144 
L 205.771636 188.165621 
L 206.570182 186.807611 
L 207.368727 185.889725 
L 208.167273 185.384998 
L 208.699636 185.256075 
L 209.232 185.280799 
L 210.030545 185.579712 
L 211.627636 186.444575 
L 212.692364 187.279277 
L 214.023273 188.635724 
L 215.354182 190.339496 
L 216.685091 192.385184 
L 218.282182 195.277681 
L 219.613091 198.034887 
L 220.145455 196.106735 
L 221.210182 192.187737 
L 222.274909 189.150049 
L 223.073455 187.440945 
L 223.872 186.214803 
L 224.670545 185.460117 
L 225.202909 185.208369 
L 225.735273 185.153138 
L 226.267636 185.290427 
L 227.066182 185.792405 
L 228.130909 186.755835 
L 229.461818 188.340852 
L 231.325091 190.979634 
L 235.317818 196.936976 
L 235.584 196.673468 
L 236.648727 194.162647 
L 237.713455 192.139821 
L 238.778182 190.547503 
L 239.842909 189.34236 
L 240.907636 188.492652 
L 241.972364 187.975804 
L 243.037091 187.782201 
L 243.835636 187.840031 
L 244.634182 188.093927 
L 245.698909 188.71197 
L 247.029818 189.836917 
L 251.554909 194.079778 
L 252.619636 194.625256 
L 253.418182 194.843086 
L 254.749091 192.650721 
L 255.813818 191.295881 
L 256.878545 190.25903 
L 257.943273 189.498515 
L 259.008 188.98006 
L 261.403636 188.00218 
L 263.533091 187.14364 
L 265.662545 186.535 
L 267.525818 186.244694 
L 269.122909 186.232993 
L 270.453818 186.452611 
L 271.518545 186.819147 
L 272.583273 187.400149 
L 273.648 188.245951 
L 274.712727 189.413092 
L 275.777455 190.96945 
L 276.842182 193.018263 
L 277.374545 194.126973 
L 277.640727 194.209722 
L 278.439273 194.148528 
L 279.504 194.29516 
L 281.101091 194.763777 
L 286.957091 196.661481 
L 294.410182 198.744451 
L 297.072 199.801174 
L 298.402909 200.098675 
L 299.467636 200.09908 
L 300.266182 199.904262 
L 301.064727 199.499062 
L 302.395636 196.071166 
L 303.460364 193.9112 
L 304.258909 192.680176 
L 305.057455 191.800277 
L 305.856 191.284946 
L 306.388364 191.14644 
L 306.920727 191.178314 
L 307.453091 191.377443 
L 308.251636 191.988607 
L 309.050182 192.971368 
L 310.381091 194.906579 
L 311.445818 196.056686 
L 312.510545 197.644032 
L 313.575273 199.758786 
L 314.64 202.483276 
L 315.704727 205.616375 
L 315.970909 205.165918 
L 318.632727 195.983761 
L 319.963636 192.178724 
L 320.762182 190.392309 
L 321.560727 189.102989 
L 322.093091 188.575041 
L 322.625455 188.344878 
L 323.157818 188.445562 
L 323.690182 188.913653 
L 324.222545 189.76982 
L 324.754909 191.05609 
L 325.287273 192.789032 
L 326.085818 196.298325 
L 326.352 197.722275 
L 326.884364 199.084821 
L 327.682909 200.307959 
L 328.215273 200.789223 
L 328.747636 201.034527 
L 329.28 201.070411 
L 329.812364 200.922727 
L 330.610909 200.410746 
L 331.409455 199.626363 
L 332.740364 197.927278 
L 335.136 194.716462 
L 335.934545 193.917719 
L 336.733091 193.407014 
L 337.265455 193.272188 
L 337.531636 193.275808 
L 337.797818 192.724307 
L 338.596364 190.538896 
L 339.394909 189.179385 
L 339.927273 188.661575 
L 340.459636 188.410368 
L 340.992 188.387056 
L 341.790545 188.674313 
L 342.855273 189.412897 
L 343.92 190.118135 
L 344.718545 190.41146 
L 345.517091 190.42235 
L 346.315636 190.099164 
L 347.114182 189.411365 
L 347.912727 188.35754 
L 348.711273 186.92994 
L 349.776 184.828074 
L 350.574545 183.891367 
L 351.373091 183.264642 
L 352.171636 182.881057 
L 353.236364 182.652442 
L 354.301091 182.659426 
L 355.632 182.885608 
L 357.761455 183.529487 
L 360.423273 184.588103 
L 362.552727 185.928343 
L 364.149818 186.879636 
L 365.214545 187.269544 
L 366.013091 187.333157 
L 366.811636 187.138984 
L 367.610182 186.626536 
L 368.408727 185.757843 
L 368.941091 185.113093 
L 369.473455 185.028105 
L 370.272 185.182473 
L 371.070545 185.593966 
L 372.135273 186.426611 
L 374.264727 188.501018 
L 375.861818 189.92563 
L 376.394182 190.312759 
L 376.660364 190.704214 
L 378.257455 194.08876 
L 379.588364 196.346556 
L 380.653091 197.737927 
L 381.717818 198.786163 
L 382.782545 199.53361 
L 383.847273 200.019591 
L 384.912 200.27269 
L 385.976727 200.305015 
L 387.041455 200.099516 
L 387.307636 200.004195 
L 387.573818 199.632942 
L 388.904727 196.065879 
L 390.235636 193.139345 
L 391.300364 191.289692 
L 392.365091 189.927222 
L 393.163636 189.258078 
L 395.293091 188.906203 
L 397.422545 188.785661 
L 403.544727 188.65079 
L 404.609455 188.331179 
L 405.674182 187.766069 
L 406.472727 187.121184 
L 407.271273 186.23424 
L 408.069818 185.030283 
L 408.868364 183.460407 
L 409.666909 181.416175 
L 410.199273 178.8184 
L 410.465455 177.205444 
L 410.731636 177.250882 
L 411.796364 182.03554 
L 412.861091 185.968523 
L 413.925818 189.17961 
L 414.990545 191.783063 
L 416.055273 193.882165 
L 417.12 195.561573 
L 418.184727 196.880724 
L 419.249455 197.871867 
L 420.314182 198.536684 
L 421.112727 198.808289 
L 421.911273 198.85622 
L 422.709818 198.631645 
L 423.508364 198.080715 
L 424.306909 197.114521 
L 425.105455 195.629332 
L 425.904 193.479444 
L 426.436364 191.591549 
L 426.436364 191.591549 
" clip-path="url(#pc24ec13785)" style="fill: none; stroke-dasharray: 3,4.95; stroke-dashoffset: 0; stroke: #ffa500; stroke-width: 3"/>
   </g>
   <g id="line2d_3">
    <path d="M 27.163636 168.286675 
L 27.962182 177.904268 
L 28.760727 184.486548 
L 29.293091 187.377318 
L 29.825455 189.205731 
L 30.357818 190.105112 
L 30.624 190.240494 
L 30.890182 190.186134 
L 31.156364 189.959381 
L 31.688727 189.026624 
L 32.221091 187.561622 
L 33.019636 184.599294 
L 34.350545 178.401755 
L 35.947636 170.251582 
L 37.278545 159.521628 
L 39.674182 143.351871 
L 40.206545 141.412439 
L 40.472727 143.241018 
L 41.537455 154.923346 
L 42.336 161.344093 
L 42.868364 164.455592 
L 43.400727 166.611638 
L 43.666909 167.337094 
L 43.933091 167.662774 
L 44.199273 167.652019 
L 44.465455 167.509818 
L 44.997818 166.797715 
L 45.530182 165.542553 
L 46.328727 162.944732 
L 47.393455 170.395706 
L 48.458182 176.455204 
L 49.789091 182.695281 
L 51.12 188.220401 
L 51.386182 188.972369 
L 51.918545 188.136901 
L 52.450909 187.693729 
L 52.717091 187.637056 
L 53.249455 188.263751 
L 54.314182 190.075491 
L 55.645091 192.847853 
L 59.105455 200.379127 
L 60.170182 202.149996 
L 60.436364 202.521969 
L 64.162909 203.575268 
L 64.961455 203.533195 
L 65.76 203.294561 
L 66.558545 202.820356 
L 67.357091 202.076289 
L 68.421818 200.863621 
L 68.688 201.061534 
L 70.551273 204.133664 
L 75.076364 212.646873 
L 77.205818 216.445195 
L 78.802909 222.713256 
L 79.069091 223.230007 
L 79.335273 222.456567 
L 80.4 218.214938 
L 81.198545 215.764246 
L 81.997091 213.882148 
L 82.795636 212.464972 
L 83.860364 211.045784 
L 84.925091 209.818049 
L 85.457455 209.717681 
L 85.989818 209.34063 
L 86.522182 208.643398 
L 87.054545 207.590415 
L 87.853091 205.281758 
L 88.651636 202.039323 
L 89.450182 197.843282 
L 90.514909 190.779468 
L 91.845818 179.945526 
L 92.112 180.003701 
L 92.644364 180.859687 
L 93.176727 181.302108 
L 93.709091 181.36138 
L 95.04 187.966611 
L 95.572364 189.674798 
L 96.104727 190.868661 
L 96.637091 191.583002 
L 97.169455 191.885189 
L 97.701818 191.817596 
L 98.234182 191.41812 
L 98.766545 190.718244 
L 99.565091 189.177297 
L 100.363636 187.121845 
L 101.428364 183.683269 
L 103.025455 177.504642 
L 104.622545 170.372138 
L 105.953455 163.437202 
L 107.284364 155.326773 
L 108.615273 146.316948 
L 108.881455 146.461268 
L 110.478545 153.887412 
L 111.277091 156.222279 
L 112.608 161.069379 
L 115.003636 169.957115 
L 116.068364 173.02513 
L 116.866909 174.730688 
L 117.665455 175.844521 
L 118.197818 176.253821 
L 118.730182 176.371072 
L 119.262545 176.219363 
L 119.794909 175.794351 
L 120.061091 176.209329 
L 120.593455 177.569877 
L 121.125818 178.44171 
L 121.658182 178.86151 
L 122.190545 178.933594 
L 122.722909 178.684776 
L 123.255273 178.187259 
L 124.053818 177.055312 
L 125.118545 175.161693 
L 126.981818 171.695224 
L 127.780364 163.139851 
L 128.578909 151.944991 
L 128.845091 147.833441 
L 129.377455 147.425583 
L 129.909818 147.346815 
L 130.442182 147.508047 
L 131.240727 148.069567 
L 132.571636 149.403558 
L 134.168727 150.989252 
L 135.233455 151.753221 
L 136.032 152.092119 
L 136.564364 152.186524 
L 136.830545 152.528561 
L 137.895273 156.314987 
L 138.96 159.304698 
L 140.024727 161.535562 
L 140.823273 162.750379 
L 141.621818 163.626148 
L 142.420364 164.218776 
L 143.485091 164.687482 
L 144.549818 165.20762 
L 145.348364 165.252322 
L 147.477818 165.085607 
L 148.010182 165.224804 
L 148.542545 165.54829 
L 149.074909 166.095631 
L 149.873455 167.388255 
L 150.405818 168.698708 
L 150.938182 170.879974 
L 153.333818 182.704008 
L 154.930909 191.593727 
L 155.729455 195.762941 
L 156.794182 198.773982 
L 158.125091 202.00063 
L 158.923636 203.543439 
L 159.722182 204.662033 
L 160.520727 205.396442 
L 160.786909 205.507039 
L 161.053091 205.449209 
L 161.585455 204.882688 
L 162.117818 203.799648 
L 162.916364 201.443571 
L 163.981091 197.503498 
L 166.376727 182.940344 
L 166.909091 180.992816 
L 167.441455 179.85815 
L 167.707636 179.634086 
L 168.506182 179.528415 
L 169.038545 179.708574 
L 169.570909 180.110844 
L 169.837091 180.390184 
L 170.103273 180.906357 
L 171.168 185.057005 
L 172.232727 188.158125 
L 173.031273 189.905352 
L 173.829818 191.187702 
L 174.362182 191.778677 
L 174.894545 192.139039 
L 175.426909 192.243208 
L 175.959273 192.05261 
L 176.491636 191.520666 
L 176.757818 191.115106 
L 177.024 191.149774 
L 177.822545 193.7766 
L 178.088727 194.207349 
L 178.354909 194.376753 
L 178.621091 194.278187 
L 178.887273 193.914685 
L 179.153455 193.862548 
L 179.685818 195.831045 
L 180.218182 196.958261 
L 180.484364 197.231067 
L 180.750545 197.335792 
L 181.016727 197.271773 
L 181.549091 196.736134 
L 182.081455 195.719756 
L 182.88 193.521878 
L 184.210909 188.872902 
L 185.808 183.327729 
L 186.606545 181.170647 
L 187.138909 180.121133 
L 187.671273 179.465073 
L 188.203636 179.256495 
L 188.469818 179.337156 
L 189.002182 179.907523 
L 189.534545 181.069782 
L 190.066909 182.897925 
L 190.599273 185.443579 
L 191.397818 190.731522 
L 191.664 192.919036 
L 192.728727 191.272554 
L 193.261091 190.847076 
L 193.527273 190.74112 
L 194.059636 190.254328 
L 195.124364 189.737119 
L 196.987636 189.101667 
L 198.052364 188.888598 
L 199.383273 188.856259 
L 200.448 189.050717 
L 201.512727 189.483945 
L 203.109818 190.470717 
L 204.174545 191.072673 
L 204.706909 191.207108 
L 205.239273 191.145538 
L 205.505455 190.812409 
L 206.037818 186.898877 
L 206.836364 179.989702 
L 207.102545 179.942086 
L 208.433455 181.967722 
L 209.232 182.793561 
L 209.764364 183.102778 
L 210.829091 183.510411 
L 211.893818 184.22729 
L 212.958545 185.202271 
L 214.023273 186.435638 
L 215.354182 188.327048 
L 216.951273 191.03793 
L 219.613091 196.109634 
L 220.145455 193.290694 
L 222.008727 182.889934 
L 222.274909 181.477655 
L 223.073455 179.578644 
L 223.872 178.158554 
L 224.670545 177.146743 
L 225.469091 176.509774 
L 226.001455 176.282901 
L 226.533818 176.216404 
L 226.8 176.243051 
L 227.864727 175.010269 
L 228.663273 174.360683 
L 229.461818 174.035935 
L 229.994182 174.040967 
L 230.526545 174.256093 
L 231.058909 174.70996 
L 231.591273 175.430805 
L 232.123636 176.208954 
L 232.389818 176.415729 
L 232.922182 177.324303 
L 233.454545 178.815802 
L 234.253091 181.951334 
L 235.584 187.644101 
L 235.850182 187.893009 
L 236.382545 189.337072 
L 237.181091 191.446494 
L 237.979636 192.967418 
L 238.512 193.599866 
L 239.044364 193.901332 
L 239.576727 193.847903 
L 240.109091 193.448967 
L 240.641455 192.690721 
L 241.173818 191.588875 
L 241.972364 189.30631 
L 242.770909 186.359783 
L 243.835636 181.410362 
L 244.900364 175.070052 
L 245.432727 171.674766 
L 245.698909 171.543049 
L 248.094545 185.02776 
L 252.885818 212.624027 
L 253.418182 214.804451 
L 255.547636 218.150469 
L 257.943273 221.905517 
L 259.008 223.20339 
L 259.806545 223.843987 
L 260.072727 223.971498 
L 260.871273 223.691887 
L 261.403636 223.301611 
L 262.202182 222.358827 
L 263.000727 220.914253 
L 263.533091 219.442342 
L 269.655273 199.85582 
L 270.986182 196.591304 
L 272.050909 194.540118 
L 272.849455 193.40036 
L 273.648 192.674258 
L 274.180364 192.445718 
L 274.712727 192.445823 
L 275.245091 192.689985 
L 275.777455 193.203589 
L 276.309818 194.004224 
L 276.576 194.51628 
L 276.842182 194.698407 
L 277.108364 194.502281 
L 277.374545 194.143211 
L 278.439273 191.063916 
L 279.504 189.297958 
L 280.568727 187.090181 
L 281.633455 184.394801 
L 282.698182 181.133981 
L 283.496727 178.514846 
L 283.762909 179.19174 
L 285.093818 189.39663 
L 286.158545 195.677563 
L 286.957091 199.354848 
L 287.755636 202.134179 
L 288.554182 203.986085 
L 289.086545 204.689311 
L 289.618909 204.963559 
L 290.151273 204.812075 
L 290.683636 204.228625 
L 291.216 203.256063 
L 292.014545 201.170164 
L 293.877818 195.708821 
L 294.676364 193.609118 
L 294.942545 193.359564 
L 295.474909 193.652618 
L 296.007273 194.251435 
L 296.539636 195.188939 
L 297.072 196.465896 
L 297.870545 199.087194 
L 298.669091 202.624291 
L 299.467636 207.142662 
L 300.532364 214.805232 
L 301.597091 223.112582 
L 301.863273 223.988734 
L 303.194182 214.295609 
L 304.258909 207.987322 
L 305.589818 201.522099 
L 306.654545 197.063856 
L 307.186909 195.735994 
L 307.719273 194.84552 
L 308.251636 194.297939 
L 308.784 194.068813 
L 309.316364 194.149204 
L 309.848727 194.503182 
L 310.114909 194.437812 
L 310.647273 193.913228 
L 311.179636 193.775097 
L 311.712 194.094468 
L 312.244364 194.8708 
L 312.776727 196.152819 
L 313.309091 197.955848 
L 314.107636 201.65981 
L 314.906182 206.586789 
L 315.704727 212.398025 
L 315.970909 212.986101 
L 316.503273 213.153553 
L 317.301818 213.711873 
L 317.834182 212.595427 
L 318.898909 209.498153 
L 320.496 204.520117 
L 322.093091 201.998452 
L 322.891636 201.141414 
L 323.424 200.871687 
L 323.956364 200.928105 
L 324.488727 201.37745 
L 325.021091 202.292543 
L 325.553455 203.755307 
L 326.085818 205.831427 
L 326.352 207.121362 
L 326.618182 207.681395 
L 327.150545 206.070572 
L 327.682909 203.756448 
L 328.481455 199.163034 
L 329.546182 191.406388 
L 330.877091 179.922168 
L 331.143273 177.459324 
L 331.409455 177.66278 
L 332.208 183.271191 
L 333.006545 187.107305 
L 333.805091 189.649954 
L 334.603636 191.267567 
L 335.402182 192.254369 
L 335.934545 192.764803 
L 336.733091 194.031892 
L 337.531636 195.032964 
L 337.797818 194.603371 
L 338.862545 191.595529 
L 339.927273 189.240489 
L 342.056727 184.846204 
L 342.855273 182.659246 
L 344.718545 176.485846 
L 345.783273 171.143453 
L 347.114182 163.052641 
L 350.042182 144.047016 
L 350.308364 143.037773 
L 350.574545 143.290316 
L 350.840727 144.145642 
L 352.171636 150.189819 
L 353.502545 155.071511 
L 354.833455 159.043969 
L 356.164364 162.354267 
L 359.624727 170.410756 
L 359.890909 171.197407 
L 360.955636 176.924676 
L 362.818909 187.535456 
L 364.149818 192.82068 
L 364.948364 195.242803 
L 365.480727 196.380323 
L 366.013091 197.040034 
L 366.279273 197.159779 
L 366.545455 197.132081 
L 366.811636 196.948377 
L 367.077818 196.59515 
L 367.610182 195.308759 
L 368.142545 193.24823 
L 368.941091 188.657009 
L 369.739636 182.171718 
L 370.272 179.149562 
L 370.804364 177.221456 
L 371.336727 176.227129 
L 371.602909 176.063493 
L 371.869091 176.087045 
L 372.135273 176.284613 
L 372.667636 177.183844 
L 373.2 178.612781 
L 373.998545 181.542365 
L 375.329455 187.526053 
L 376.660364 194.036759 
L 377.458909 199.743705 
L 377.991273 202.397748 
L 378.523636 203.761856 
L 378.789818 203.873084 
L 379.056 203.561795 
L 379.322182 202.799192 
L 379.854545 199.804329 
L 380.653091 193.510537 
L 381.185455 191.710498 
L 381.717818 190.712581 
L 382.250182 190.351287 
L 382.782545 190.488772 
L 383.314909 191.00155 
L 384.113455 192.179896 
L 384.912 193.676652 
L 385.710545 198.426357 
L 387.573818 209.772266 
L 391.034182 219.581134 
L 392.365091 222.750741 
L 392.631273 221.96581 
L 393.429818 216.345458 
L 393.962182 212.531784 
L 394.494545 210.01461 
L 395.026909 208.63739 
L 395.293091 208.327677 
L 395.559273 208.250801 
L 395.825455 208.399566 
L 396.091636 208.73887 
L 396.624 209.976338 
L 396.890182 210.593104 
L 397.954909 210.735801 
L 399.285818 211.17397 
L 400.616727 211.824533 
L 401.947636 212.728481 
L 403.012364 213.700367 
L 404.077091 214.964091 
L 405.408 216.969209 
L 407.005091 219.894075 
L 409.134545 223.823746 
L 409.400727 224.221308 
L 409.666909 223.566494 
L 410.199273 218.970616 
L 410.465455 216.353749 
L 410.731636 215.819131 
L 412.594909 222.948105 
L 412.861091 223.652322 
L 413.127273 224.037987 
L 414.192 223.106657 
L 415.522909 221.66143 
L 416.587636 220.22725 
L 417.652364 218.473114 
L 418.717091 216.297391 
L 419.781818 213.60111 
L 420.846545 210.250992 
L 421.911273 206.096423 
L 422.976 200.916794 
L 424.040727 194.423888 
L 425.105455 186.191566 
L 425.904 178.520179 
L 426.436364 172.512742 
L 426.436364 172.512742 
" clip-path="url(#pc24ec13785)" style="fill: none; stroke: #ffa500; stroke-width: 3; stroke-linecap: square"/>
   </g>
   <g id="patch_3">
    <path d="M 7.2 331.2 
L 7.2 7.2 
" style="fill: none; stroke: #000000; stroke-width: 0.8; stroke-linejoin: miter; stroke-linecap: square"/>
   </g>
   <g id="patch_4">
    <path d="M 446.4 331.2 
L 446.4 7.2 
" style="fill: none; stroke: #000000; stroke-width: 0.8; stroke-linejoin: miter; stroke-linecap: square"/>
   </g>
   <g id="patch_5">
    <path d="M 7.2 331.2 
L 446.4 331.2 
" style="fill: none; stroke: #000000; stroke-width: 0.8; stroke-linejoin: miter; stroke-linecap: square"/>
   </g>
   <g id="patch_6">
    <path d="M 7.2 7.2 
L 446.4 7.2 
" style="fill: none; stroke: #000000; stroke-width: 0.8; stroke-linejoin: miter; stroke-linecap: square"/>
   </g>
  </g>
 </g>
 <defs>
  <clipPath id="pc24ec13785">
   <rect x="7.2" y="7.2" width="439.2" height="324"/>
  </clipPath>
 </defs>
</svg>
