<?xml version="1.0" encoding="utf-8" standalone="no"?>
<!DOCTYPE svg PUBLIC "-//W3C//DTD SVG 1.1//EN"
  "http://www.w3.org/Graphics/SVG/1.1/DTD/svg11.dtd">
<svg xmlns:xlink="http://www.w3.org/1999/xlink" width="453.6pt" height="338.4pt" viewBox="0 0 453.6 338.4" xmlns="http://www.w3.org/2000/svg" version="1.1">
 <metadata>
  <rdf:RDF xmlns:dc="http://purl.org/dc/elements/1.1/" xmlns:cc="http://creativecommons.org/ns#" xmlns:rdf="http://www.w3.org/1999/02/22-rdf-syntax-ns#">
   <cc:Work>
    <dc:type rdf:resource="http://purl.org/dc/dcmitype/StillImage"/>
    <dc:date>2025-05-14T08:52:51.945511</dc:date>
    <dc:format>image/svg+xml</dc:format>
    <dc:creator>
     <cc:Agent>
      <dc:title>Matplotlib v3.10.1, https://matplotlib.org/</dc:title>
     </cc:Agent>
    </dc:creator>
   </cc:Work>
  </rdf:RDF>
 </metadata>
 <defs>
  <style type="text/css">*{stroke-linejoin: round; stroke-linecap: butt}</style>
 </defs>
 <g id="figure_1">
  <g id="patch_1">
   <path d="M 0 338.4 
L 453.6 338.4 
L 453.6 0 
L 0 0 
z
" style="fill: #ffffff"/>
  </g>
  <g id="axes_1">
   <g id="patch_2">
    <path d="M 7.2 331.2 
L 446.4 331.2 
L 446.4 7.2 
L 7.2 7.2 
z
" style="fill: #ffffff"/>
   </g>
   <g id="matplotlib.axis_1"/>
   <g id="matplotlib.axis_2"/>
   <g id="line2d_1">
    <path d="M 27.163636 316.472727 
L 29.026909 293.214979 
L 30.890182 272.790511 
L 32.753455 255.00866 
L 34.350545 241.725841 
L 35.947636 230.124375 
L 37.544727 220.084197 
L 39.141818 211.485217 
L 40.738909 204.207416 
L 42.069818 199.065139 
L 43.400727 194.687463 
L 44.731636 191.004908 
L 46.062545 187.947937 
L 47.393455 185.44713 
L 48.724364 183.432957 
L 50.055273 181.835981 
L 51.386182 180.586663 
L 52.717091 179.615562 
L 54.314182 178.719611 
L 56.709818 177.676529 
L 59.371636 176.500896 
L 60.968727 175.564767 
L 62.299636 174.545447 
L 63.630545 173.23453 
L 64.961455 171.562546 
L 66.292364 169.460016 
L 67.623273 166.857432 
L 68.954182 163.685305 
L 70.285091 159.874186 
L 71.616 155.354565 
L 72.946909 150.056954 
L 74.277818 143.911873 
L 75.608727 136.849844 
L 77.205818 127.06718 
L 78.802909 115.743973 
L 80.4 102.760214 
L 81.997091 87.995651 
L 83.328 75.799669 
L 85.191273 72.96748 
L 87.054545 70.516809 
L 88.917818 68.410788 
L 90.781091 66.612792 
L 92.910545 64.887947 
L 95.04 63.46263 
L 97.435636 62.148928 
L 100.097455 60.957494 
L 103.824 59.56614 
L 109.413818 57.494022 
L 112.075636 56.26463 
L 114.471273 54.902295 
L 116.600727 53.422291 
L 118.464 51.874604 
L 120.327273 50.052593 
L 122.190545 47.919593 
L 124.053818 45.438834 
L 125.917091 42.573611 
L 127.780364 39.287135 
L 129.643636 35.54282 
L 131.506909 31.303819 
L 133.370182 26.533465 
L 134.967273 21.993805 
L 135.233455 21.927273 
L 152.269091 39.044251 
L 167.175273 53.712778 
L 180.750545 66.766239 
L 193.261091 78.496734 
L 205.239273 89.42458 
L 216.418909 99.327475 
L 227.066182 108.468321 
L 237.447273 117.086028 
L 247.296 124.973873 
L 256.612364 132.160996 
L 265.662545 138.872765 
L 274.446545 145.119571 
L 280.302545 149.131348 
L 280.834909 149.118716 
L 284.827636 148.477645 
L 289.086545 147.559405 
L 293.345455 146.415637 
L 297.870545 144.971855 
L 302.661818 143.208548 
L 307.719273 141.111225 
L 313.309091 138.544339 
L 319.431273 135.476672 
L 326.352 131.746928 
L 334.603636 127.032915 
L 347.114182 119.591467 
L 361.754182 110.94123 
L 369.739636 106.478436 
L 376.394182 103.000252 
L 382.250182 100.174783 
L 387.84 97.72506 
L 392.897455 95.748897 
L 397.688727 94.113589 
L 402.213818 92.802631 
L 406.472727 91.794289 
L 410.731636 91.021767 
L 414.724364 90.526536 
L 418.450909 90.276731 
L 422.177455 90.243515 
L 425.904 90.438068 
L 426.436364 90.485107 
L 426.436364 90.485107 
" clip-path="url(#p95e3007d73)" style="fill: none; stroke-dasharray: 11.1,4.8; stroke-dashoffset: 0; stroke: #000000; stroke-width: 3"/>
   </g>
   <g id="line2d_2">
    <path d="M 27.163636 96.321518 
L 28.228364 91.567973 
L 29.026909 89.001914 
L 29.559273 87.95628 
L 30.091636 87.480038 
L 30.357818 87.449041 
L 30.624 87.547034 
L 31.156364 88.089466 
L 31.688727 89.012731 
L 32.487273 90.893646 
L 33.818182 94.707137 
L 35.415273 99.948224 
L 36.48 104.10913 
L 37.810909 110.381322 
L 39.940364 122.034247 
L 41.537455 130.097757 
L 42.602182 134.337282 
L 43.400727 136.817294 
L 44.199273 138.74422 
L 44.997818 140.20927 
L 46.062545 141.628795 
L 47.127273 142.630842 
L 48.192 143.357152 
L 49.522909 143.989182 
L 50.853818 144.387288 
L 52.717091 144.697249 
L 56.443636 145.252112 
L 57.774545 145.72222 
L 58.839273 146.35425 
L 59.904 147.25798 
L 61.767273 149.246413 
L 63.098182 150.527263 
L 64.162909 151.202559 
L 64.961455 151.457792 
L 65.76 151.512358 
L 66.824727 151.342525 
L 68.155636 150.883073 
L 69.486545 150.227311 
L 70.551273 149.463225 
L 71.349818 148.597755 
L 72.148364 147.304636 
L 72.946909 145.382554 
L 73.745455 142.629389 
L 74.544 138.894357 
L 75.342545 134.139359 
L 76.407273 126.436825 
L 79.601455 102.00995 
L 80.666182 96.287131 
L 81.464727 93.143286 
L 82.263273 90.862973 
L 83.061818 89.262153 
L 83.860364 88.148714 
L 84.658909 87.364448 
L 85.723636 86.645726 
L 86.788364 86.175941 
L 88.119273 85.847898 
L 89.450182 85.747 
L 94.773818 85.638029 
L 98.234182 85.155975 
L 100.097455 85.191975 
L 102.759273 85.510816 
L 109.946182 86.538046 
L 111.809455 86.462009 
L 114.205091 86.102809 
L 118.996364 85.36988 
L 121.392 84.917692 
L 123.787636 84.213822 
L 127.248 83.152851 
L 129.377455 82.783481 
L 132.837818 82.501771 
L 136.032 82.156132 
L 137.895273 81.745111 
L 140.024727 81.025904 
L 144.549818 79.337907 
L 145.880727 79.123195 
L 147.211636 79.16307 
L 148.542545 79.454304 
L 150.405818 80.133636 
L 157.592727 83.15608 
L 159.456 84.341197 
L 161.585455 85.976565 
L 164.247273 88.329848 
L 167.973818 91.708747 
L 169.570909 92.783279 
L 171.168 93.539293 
L 172.765091 94.026837 
L 174.362182 94.268671 
L 175.693091 94.243648 
L 176.757818 94.025706 
L 177.822545 93.584496 
L 178.887273 92.887568 
L 179.952 91.934115 
L 181.282909 90.447108 
L 185.808 85.10722 
L 187.138909 83.970051 
L 188.469818 83.105227 
L 189.800727 82.507906 
L 191.131636 82.182931 
L 192.462545 82.137728 
L 193.793455 82.362934 
L 195.124364 82.813185 
L 197.253818 83.804254 
L 200.714182 85.416213 
L 202.843636 86.441506 
L 203.908364 87.156677 
L 204.973091 88.126436 
L 206.037818 89.429241 
L 207.102545 91.124341 
L 208.167273 93.247413 
L 209.498182 96.510562 
L 211.095273 101.199047 
L 213.490909 109.112581 
L 219.346909 128.582499 
L 220.411636 131.35649 
L 221.476364 133.516047 
L 222.274909 134.71085 
L 223.073455 135.570347 
L 223.872 136.150232 
L 224.936727 136.599999 
L 226.001455 136.804379 
L 227.332364 136.835053 
L 228.663273 136.641327 
L 229.728 136.28923 
L 230.792727 135.735498 
L 232.123636 134.779784 
L 236.116364 131.599292 
L 237.181091 131.103355 
L 238.245818 130.856354 
L 239.310545 130.848121 
L 240.641455 131.116108 
L 242.238545 131.705519 
L 244.634182 132.847047 
L 246.763636 134.055412 
L 248.360727 135.180474 
L 250.224 136.782424 
L 254.216727 140.344071 
L 256.08 141.626697 
L 258.475636 142.98875 
L 261.669818 144.552762 
L 263.533091 145.2463 
L 265.396364 145.700748 
L 267.525818 145.976646 
L 271.518545 146.214606 
L 274.978909 146.222516 
L 279.504 145.94 
L 290.683636 145.059032 
L 292.014545 144.683688 
L 293.345455 144.048107 
L 294.410182 143.283536 
L 295.474909 142.228215 
L 296.539636 140.827578 
L 297.604364 139.046916 
L 298.935273 136.298271 
L 300.532364 132.383074 
L 306.388364 117.328004 
L 309.316364 110.193247 
L 314.107636 97.876489 
L 315.438545 95.27443 
L 316.769455 93.181708 
L 318.100364 91.51712 
L 319.697455 89.939547 
L 321.826909 88.242994 
L 326.085818 85.178092 
L 327.949091 84.128906 
L 329.546182 83.474274 
L 331.409455 82.954605 
L 333.805091 82.55553 
L 337.797818 81.938514 
L 339.927273 81.318268 
L 344.984727 79.443972 
L 347.912727 78.1875 
L 349.509818 77.572582 
L 350.574545 77.352219 
L 351.639273 77.359645 
L 352.704 77.607452 
L 354.034909 78.184432 
L 358.56 80.644264 
L 359.890909 81.605467 
L 360.955636 82.633182 
L 362.286545 84.2248 
L 365.480727 88.212321 
L 366.811636 89.474282 
L 368.142545 90.447915 
L 369.739636 91.339699 
L 377.991273 95.486237 
L 379.588364 96.540266 
L 380.919273 97.67905 
L 382.250182 99.130702 
L 383.847273 101.25329 
L 386.509091 105.266318 
L 393.429818 116.118348 
L 395.293091 119.618487 
L 398.221091 125.190523 
L 399.818182 127.68232 
L 401.415273 129.755831 
L 403.278545 131.794633 
L 404.343273 132.715314 
L 405.408 133.330393 
L 406.206545 133.528316 
L 407.005091 133.487795 
L 408.069818 133.128918 
L 410.199273 132.224542 
L 410.997818 132.131877 
L 411.796364 132.233906 
L 414.192 132.814114 
L 414.990545 132.650739 
L 415.789091 132.158998 
L 416.587636 131.357458 
L 417.918545 129.591648 
L 422.177455 123.439243 
L 424.040727 119.896807 
L 425.105455 118.045434 
L 425.904 117.035801 
L 426.436364 116.598142 
L 426.436364 116.598142 
" clip-path="url(#p95e3007d73)" style="fill: none; stroke-dasharray: 3,4.95; stroke-dashoffset: 0; stroke: #ff0000; stroke-width: 3"/>
   </g>
   <g id="line2d_3">
    <path d="M 27.163636 61.670123 
L 29.026909 82.463752 
L 30.624 99.082351 
L 31.954909 110.657382 
L 34.616727 131.107713 
L 36.213818 142.387312 
L 37.278545 148.528014 
L 38.077091 152.068109 
L 38.875636 154.635782 
L 39.674182 156.302549 
L 40.206545 156.983737 
L 40.738909 157.381117 
L 41.271273 157.546349 
L 41.803636 157.528026 
L 42.602182 157.254146 
L 43.933091 156.466651 
L 45.264 155.72339 
L 46.328727 155.414559 
L 47.393455 155.398577 
L 49.256727 155.524256 
L 50.055273 155.322539 
L 50.853818 154.825956 
L 51.652364 154.012227 
L 52.717091 152.523849 
L 56.709818 146.393964 
L 58.306909 143.943333 
L 59.371636 141.89985 
L 60.702545 138.813154 
L 68.155636 119.883811 
L 71.616 109.762288 
L 72.680727 107.364287 
L 73.745455 105.509121 
L 74.810182 104.113892 
L 77.205818 101.250223 
L 78.004364 99.867747 
L 78.802909 98.107749 
L 79.867636 95.196133 
L 81.997091 88.398782 
L 83.594182 83.712315 
L 84.658909 81.160786 
L 85.723636 79.119562 
L 86.788364 77.570645 
L 87.853091 76.483763 
L 88.651636 75.946416 
L 89.450182 75.61571 
L 90.514909 75.427877 
L 91.845818 75.443052 
L 96.370909 75.885069 
L 100.363636 76.288907 
L 101.960727 76.177353 
L 104.622545 75.697801 
L 106.485818 75.457178 
L 108.082909 75.452738 
L 110.212364 75.687873 
L 112.341818 75.892818 
L 113.672727 75.816378 
L 115.003636 75.499878 
L 116.334545 74.912163 
L 117.665455 74.022962 
L 118.996364 72.802328 
L 120.327273 71.272137 
L 122.989091 67.754886 
L 125.917091 63.692377 
L 127.248 61.38131 
L 128.845091 58.073524 
L 130.708364 54.268105 
L 131.773091 52.609571 
L 132.571636 51.724971 
L 133.370182 51.151059 
L 134.168727 50.861035 
L 134.967273 50.819788 
L 135.765818 50.998338 
L 136.564364 51.375135 
L 137.629091 52.154396 
L 138.96 53.485373 
L 145.348364 60.544657 
L 146.945455 61.852225 
L 148.010182 62.463106 
L 149.074909 62.814638 
L 150.139636 62.927322 
L 151.736727 62.815687 
L 154.930909 62.294565 
L 156.261818 61.8607 
L 157.592727 61.158687 
L 160.786909 59.189223 
L 161.851636 58.90041 
L 162.916364 58.851171 
L 165.578182 58.877001 
L 167.175273 58.56817 
L 169.304727 58.160136 
L 170.901818 58.133175 
L 173.031273 58.377431 
L 175.693091 58.641463 
L 177.290182 58.590287 
L 178.887273 58.320847 
L 180.218182 57.871081 
L 181.282909 57.314926 
L 182.347636 56.551405 
L 183.412364 55.561386 
L 184.743273 53.975822 
L 186.074182 51.971326 
L 187.937455 48.605583 
L 189.268364 46.294597 
L 190.066909 45.262685 
L 190.599273 44.828174 
L 191.131636 44.651238 
L 191.664 44.767958 
L 192.196364 45.203114 
L 192.728727 45.965506 
L 193.527273 47.702337 
L 194.325818 50.061594 
L 195.656727 54.926531 
L 198.318545 65.045632 
L 199.649455 69.213237 
L 200.980364 72.725565 
L 202.843636 76.961619 
L 204.706909 80.711261 
L 206.304 83.453691 
L 207.634909 85.311117 
L 209.232 87.138596 
L 210.829091 88.983026 
L 211.893818 90.546716 
L 212.958545 92.554118 
L 214.289455 95.701837 
L 218.282182 105.848625 
L 219.613091 108.318789 
L 221.210182 110.73689 
L 225.469091 116.844497 
L 227.066182 119.634712 
L 228.663273 122.954686 
L 230.526545 127.44436 
L 233.720727 135.215425 
L 235.051636 137.915073 
L 236.382545 140.155108 
L 237.713455 141.985574 
L 241.706182 147.106793 
L 243.303273 149.764307 
L 246.231273 154.703182 
L 247.562182 156.453817 
L 248.626909 157.541748 
L 249.957818 158.553319 
L 251.288727 159.274544 
L 253.152 159.992056 
L 256.346182 160.90741 
L 261.403636 162.177443 
L 263.000727 162.336379 
L 264.597818 162.266072 
L 266.727273 161.917931 
L 270.453818 161.287354 
L 275.777455 160.483796 
L 282.964364 159.089939 
L 285.093818 158.287431 
L 291.216 155.634276 
L 292.813091 154.560552 
L 294.676364 152.989598 
L 297.072 150.987362 
L 298.402909 150.170323 
L 299.733818 149.655659 
L 301.330909 149.34489 
L 303.194182 148.988758 
L 304.258909 148.556427 
L 305.323636 147.866602 
L 306.654545 146.684471 
L 310.647273 142.872353 
L 312.510545 141.095323 
L 313.575273 139.787352 
L 314.906182 137.733213 
L 316.503273 134.760735 
L 322.359273 123.377654 
L 323.956364 120.771882 
L 325.021091 119.412896 
L 325.819636 118.663823 
L 326.618182 118.160863 
L 327.416727 117.884723 
L 328.481455 117.794237 
L 329.812364 117.959792 
L 331.409455 118.375333 
L 332.740364 118.905415 
L 334.071273 119.695816 
L 335.402182 120.800698 
L 336.733091 122.195039 
L 338.330182 124.168216 
L 340.193455 126.832671 
L 342.322909 130.326111 
L 345.250909 135.178456 
L 346.581818 136.989307 
L 347.646545 138.1268 
L 348.711273 138.909451 
L 349.509818 139.203511 
L 350.042182 139.229018 
L 350.574545 139.096074 
L 351.106909 138.784983 
L 351.639273 138.278794 
L 352.437818 137.128547 
L 353.236364 135.503915 
L 354.301091 132.678264 
L 355.898182 127.549053 
L 358.293818 119.903103 
L 359.890909 115.628383 
L 361.488 111.984645 
L 362.818909 109.439735 
L 363.883636 107.822771 
L 364.948364 106.648955 
L 365.746909 106.063257 
L 366.545455 105.704622 
L 367.610182 105.508556 
L 368.941091 105.57184 
L 370.804364 105.950493 
L 374.264727 106.706588 
L 376.394182 106.896923 
L 379.056 106.92461 
L 380.919273 106.727494 
L 382.782545 106.274015 
L 387.307636 105.070171 
L 389.437091 104.416669 
L 392.631273 103.119999 
L 396.890182 101.490927 
L 398.753455 100.963428 
L 400.350545 100.712714 
L 402.213818 100.663718 
L 403.810909 100.84808 
L 405.141818 101.233191 
L 406.206545 101.757945 
L 407.271273 102.507906 
L 408.602182 103.722243 
L 411.530182 106.542163 
L 413.127273 107.701531 
L 415.789091 109.541279 
L 420.048 112.825657 
L 420.846545 113.08533 
L 421.378909 113.054979 
L 421.911273 112.77779 
L 422.443636 112.167151 
L 422.976 111.133785 
L 423.508364 109.601254 
L 424.306909 106.274418 
L 425.105455 101.764887 
L 426.436364 92.555167 
L 426.436364 92.555167 
" clip-path="url(#p95e3007d73)" style="fill: none; stroke: #ff0000; stroke-width: 3; stroke-linecap: square"/>
   </g>
   <g id="patch_3">
    <path d="M 7.2 331.2 
L 7.2 7.2 
" style="fill: none; stroke: #000000; stroke-width: 0.8; stroke-linejoin: miter; stroke-linecap: square"/>
   </g>
   <g id="patch_4">
    <path d="M 446.4 331.2 
L 446.4 7.2 
" style="fill: none; stroke: #000000; stroke-width: 0.8; stroke-linejoin: miter; stroke-linecap: square"/>
   </g>
   <g id="patch_5">
    <path d="M 7.2 331.2 
L 446.4 331.2 
" style="fill: none; stroke: #000000; stroke-width: 0.8; stroke-linejoin: miter; stroke-linecap: square"/>
   </g>
   <g id="patch_6">
    <path d="M 7.2 7.2 
L 446.4 7.2 
" style="fill: none; stroke: #000000; stroke-width: 0.8; stroke-linejoin: miter; stroke-linecap: square"/>
   </g>
  </g>
 </g>
 <defs>
  <clipPath id="p95e3007d73">
   <rect x="7.2" y="7.2" width="439.2" height="324"/>
  </clipPath>
 </defs>
</svg>
