<?xml version="1.0" encoding="utf-8" standalone="no"?>
<!DOCTYPE svg PUBLIC "-//W3C//DTD SVG 1.1//EN"
  "http://www.w3.org/Graphics/SVG/1.1/DTD/svg11.dtd">
<svg xmlns:xlink="http://www.w3.org/1999/xlink" width="453.6pt" height="338.4pt" viewBox="0 0 453.6 338.4" xmlns="http://www.w3.org/2000/svg" version="1.1">
 <metadata>
  <rdf:RDF xmlns:dc="http://purl.org/dc/elements/1.1/" xmlns:cc="http://creativecommons.org/ns#" xmlns:rdf="http://www.w3.org/1999/02/22-rdf-syntax-ns#">
   <cc:Work>
    <dc:type rdf:resource="http://purl.org/dc/dcmitype/StillImage"/>
    <dc:date>2025-05-14T00:23:00.699215</dc:date>
    <dc:format>image/svg+xml</dc:format>
    <dc:creator>
     <cc:Agent>
      <dc:title>Matplotlib v3.10.1, https://matplotlib.org/</dc:title>
     </cc:Agent>
    </dc:creator>
   </cc:Work>
  </rdf:RDF>
 </metadata>
 <defs>
  <style type="text/css">*{stroke-linejoin: round; stroke-linecap: butt}</style>
 </defs>
 <g id="figure_1">
  <g id="patch_1">
   <path d="M 0 338.4 
L 453.6 338.4 
L 453.6 0 
L 0 0 
z
" style="fill: #ffffff"/>
  </g>
  <g id="axes_1">
   <g id="patch_2">
    <path d="M 7.2 331.2 
L 446.4 331.2 
L 446.4 7.2 
L 7.2 7.2 
z
" style="fill: #ffffff"/>
   </g>
   <g id="matplotlib.axis_1"/>
   <g id="matplotlib.axis_2"/>
   <g id="line2d_1">
    <path d="M 27.163636 74.490443 
L 27.696 74.345342 
L 28.228364 74.425566 
L 28.760727 74.731142 
L 29.293091 75.262093 
L 30.091636 76.481008 
L 30.890182 78.20708 
L 31.688727 80.440087 
L 32.753455 84.206229 
L 33.818182 88.873725 
L 34.882909 94.442726 
L 36.213818 102.671593 
L 37.544727 112.308823 
L 39.141818 125.732775 
L 40.738909 141.184886 
L 42.336 158.665183 
L 44.199273 181.622248 
L 46.062545 207.339932 
L 48.192 240.111867 
L 50.321455 276.489457 
L 52.450909 316.472715 
L 52.717091 314.650784 
L 54.580364 294.74899 
L 56.443636 277.266426 
L 58.040727 264.206873 
L 59.637818 252.924717 
L 60.968727 244.88064 
L 62.299636 238.070875 
L 63.630545 232.495372 
L 64.695273 228.923687 
L 65.76 226.141965 
L 66.558545 224.574049 
L 67.357091 223.450507 
L 68.155636 222.77129 
L 68.688 222.565372 
L 69.220364 222.556901 
L 69.752727 222.745939 
L 70.285091 223.13245 
L 71.083636 224.082512 
L 71.882182 225.476936 
L 72.680727 227.315722 
L 73.745455 230.458591 
L 74.810182 234.391436 
L 75.874909 239.11423 
L 77.205818 246.128605 
L 78.536727 254.377241 
L 79.601455 261.864866 
L 79.867636 261.893455 
L 82.795636 240.834722 
L 85.457455 223.23491 
L 88.119273 207.105935 
L 90.514909 193.847416 
L 92.910545 181.78038 
L 95.306182 170.904752 
L 97.435636 162.237665 
L 99.565091 154.511971 
L 101.428364 148.524208 
L 103.291636 143.257195 
L 105.154909 138.710882 
L 106.752 135.387694 
L 108.349091 132.594013 
L 109.68 130.670468 
L 111.010909 129.114611 
L 112.341818 127.926467 
L 113.406545 127.240746 
L 114.471273 126.790343 
L 115.536 126.575282 
L 116.600727 126.595562 
L 117.665455 126.851184 
L 118.730182 127.342123 
L 119.794909 128.068404 
L 120.859636 129.030052 
L 122.190545 130.563037 
L 123.521455 132.463785 
L 124.852364 134.73222 
L 126.449455 137.93973 
L 126.715636 138.525818 
L 126.981818 138.364621 
L 129.909818 125.229403 
L 132.837818 113.092607 
L 135.765818 101.954331 
L 138.427636 92.694953 
L 141.089455 84.260742 
L 143.485091 77.375511 
L 145.880727 71.15861 
L 148.010182 66.19361 
L 150.139636 61.756672 
L 152.269091 57.84787 
L 154.132364 54.860852 
L 155.995636 52.278121 
L 157.858909 50.099777 
L 159.456 48.554409 
L 161.053091 47.306145 
L 162.650182 46.354887 
L 163.981091 45.789105 
L 165.312 45.429565 
L 166.642909 45.276366 
L 167.973818 45.329434 
L 169.304727 45.588793 
L 170.635636 46.054469 
L 171.966545 46.726386 
L 173.563636 47.805057 
L 175.160727 49.180733 
L 175.426909 49.648053 
L 177.556364 56.01023 
L 179.685818 61.642663 
L 181.549091 65.97237 
L 183.412364 69.74347 
L 185.009455 72.531097 
L 186.606545 74.908283 
L 188.203636 76.87498 
L 189.534545 78.200328 
L 190.865455 79.240606 
L 192.196364 79.995887 
L 193.527273 80.466098 
L 194.592 80.636986 
L 195.656727 80.625525 
L 196.721455 80.431566 
L 198.052364 79.93263 
L 199.383273 79.148597 
L 200.714182 78.079493 
L 202.045091 76.725368 
L 203.376 75.086197 
L 204.973091 72.742894 
L 206.570182 69.989101 
L 208.167273 66.824892 
L 210.030545 62.614476 
L 211.893818 57.845353 
L 214.023273 51.71082 
L 216.152727 44.846517 
L 218.282182 37.252495 
L 220.677818 27.836954 
L 222.008727 22.207062 
L 222.274909 21.927273 
L 225.735273 33.804436 
L 228.929455 44.023792 
L 232.123636 53.528876 
L 235.317818 62.319564 
L 238.245818 69.750197 
L 241.173818 76.580541 
L 243.835636 82.269081 
L 246.497455 87.461525 
L 249.159273 92.157922 
L 251.554909 95.960564 
L 253.950545 99.361311 
L 256.346182 102.360262 
L 258.475636 104.688691 
L 260.605091 106.69966 
L 262.734545 108.393095 
L 264.597818 109.614426 
L 266.461091 110.592667 
L 268.324364 111.327842 
L 270.187636 111.819952 
L 272.050909 112.068997 
L 273.914182 112.074926 
L 275.777455 111.837791 
L 277.640727 111.35759 
L 279.504 110.634324 
L 281.367273 109.667967 
L 283.230545 108.45852 
L 285.093818 107.006033 
L 287.223273 105.048381 
L 289.352727 102.773269 
L 291.482182 100.180622 
L 293.877818 96.884416 
L 296.273455 93.186391 
L 298.669091 89.08657 
L 301.330909 84.059931 
L 302.928 80.805806 
L 303.194182 80.742 
L 305.856 84.48385 
L 308.517818 88.59578 
L 311.445818 93.546454 
L 314.373818 98.945065 
L 317.301818 104.791588 
L 320.496 111.680406 
L 323.690182 119.102244 
L 327.150545 127.744143 
L 330.610909 137.011543 
L 334.071273 146.904645 
L 337.797818 158.258231 
L 341.524364 170.337475 
L 345.250909 183.142153 
L 349.243636 197.666551 
L 353.236364 213.023863 
L 357.495273 230.322982 
L 360.689455 243.919242 
L 361.488 241.136162 
L 364.416 230.879421 
L 367.077818 222.326206 
L 369.739636 214.507344 
L 372.135273 208.098153 
L 374.530909 202.28387 
L 376.926545 197.064394 
L 379.056 192.924136 
L 381.185455 189.253965 
L 383.314909 186.053705 
L 385.178182 183.639072 
L 387.041455 181.584253 
L 388.904727 179.889199 
L 390.501818 178.722705 
L 392.098909 177.820628 
L 393.696 177.182868 
L 395.293091 176.8095 
L 396.890182 176.700474 
L 398.487273 176.855816 
L 400.084364 177.275525 
L 401.681455 177.959625 
L 403.278545 178.908068 
L 404.875636 180.120854 
L 406.472727 181.598031 
L 408.336 183.655515 
L 410.199273 186.072839 
L 412.062545 188.849977 
L 414.192 192.464465 
L 416.321455 196.548939 
L 418.450909 201.103398 
L 420.846545 206.788924 
L 423.242182 213.069257 
L 425.637818 219.944485 
L 426.436364 222.368349 
L 426.436364 222.368349 
" clip-path="url(#p928b8590ec)" style="fill: none; stroke-dasharray: 11.1,4.8; stroke-dashoffset: 0; stroke: #000000; stroke-width: 3"/>
   </g>
   <g id="line2d_2">
    <path d="M 27.163636 74.490493 
L 27.696 74.345391 
L 28.228364 74.425616 
L 28.760727 74.731192 
L 29.293091 75.262143 
L 30.091636 76.481057 
L 30.890182 78.20713 
L 31.688727 80.440137 
L 32.753455 84.206279 
L 33.818182 88.873775 
L 34.882909 94.442776 
L 36.213818 102.671643 
L 37.544727 112.308873 
L 39.141818 125.7328 
L 40.738909 141.184911 
L 42.336 158.665208 
L 44.199273 181.622273 
L 46.062545 207.339957 
L 48.192 240.111891 
L 50.321455 276.489469 
L 52.450909 316.472727 
L 52.717091 314.650796 
L 54.580364 294.749003 
L 56.443636 277.266439 
L 58.040727 264.206898 
L 59.637818 252.924742 
L 60.968727 244.880665 
L 62.299636 238.0709 
L 63.630545 232.495397 
L 64.695273 228.923712 
L 65.76 226.14199 
L 66.558545 224.574074 
L 67.357091 223.450532 
L 68.155636 222.771315 
L 68.688 222.565397 
L 69.220364 222.556926 
L 69.752727 222.745964 
L 70.285091 223.132475 
L 71.083636 224.082537 
L 71.882182 225.476961 
L 72.680727 227.315747 
L 73.745455 230.458616 
L 74.810182 234.391461 
L 75.874909 239.114255 
L 77.205818 246.12863 
L 78.536727 254.377266 
L 79.601455 261.864891 
L 79.867636 261.89348 
L 82.795636 240.834747 
L 85.457455 223.234935 
L 88.119273 207.10596 
L 90.514909 193.847441 
L 92.910545 181.780405 
L 95.306182 170.904777 
L 97.435636 162.23769 
L 99.565091 154.511996 
L 101.428364 148.524233 
L 103.291636 143.25722 
L 105.154909 138.710907 
L 106.752 135.387719 
L 108.349091 132.594038 
L 109.68 130.670493 
L 111.010909 129.114636 
L 112.341818 127.926491 
L 113.406545 127.240771 
L 114.471273 126.790368 
L 115.536 126.575306 
L 116.600727 126.595587 
L 117.665455 126.851209 
L 118.730182 127.342148 
L 119.794909 128.068429 
L 120.859636 129.030077 
L 122.190545 130.563062 
L 123.521455 132.46381 
L 124.852364 134.732245 
L 126.449455 137.939755 
L 126.715636 138.525843 
L 126.981818 138.364646 
L 129.909818 125.229428 
L 132.837818 113.092657 
L 135.765818 101.954381 
L 138.427636 92.695003 
L 141.089455 84.260791 
L 143.485091 77.375561 
L 145.880727 71.15866 
L 148.010182 66.19366 
L 150.139636 61.756722 
L 152.269091 57.84792 
L 154.132364 54.860902 
L 155.995636 52.278171 
L 157.858909 50.099827 
L 159.456 48.554459 
L 161.053091 47.306195 
L 162.650182 46.354937 
L 163.981091 45.789155 
L 165.312 45.429615 
L 166.642909 45.276416 
L 167.973818 45.329483 
L 169.304727 45.588843 
L 170.635636 46.054519 
L 171.966545 46.726436 
L 173.563636 47.805107 
L 175.160727 49.180783 
L 175.426909 49.648103 
L 177.556364 56.01028 
L 179.685818 61.642713 
L 181.549091 65.97242 
L 183.412364 69.743519 
L 185.009455 72.531147 
L 186.606545 74.908333 
L 188.203636 76.87503 
L 189.534545 78.200378 
L 190.865455 79.240656 
L 192.196364 79.995937 
L 193.527273 80.466147 
L 194.592 80.637036 
L 195.656727 80.625575 
L 196.721455 80.431616 
L 198.052364 79.932679 
L 199.383273 79.148647 
L 200.714182 78.079543 
L 202.045091 76.725418 
L 203.376 75.086247 
L 204.973091 72.742944 
L 206.570182 69.989151 
L 208.167273 66.824942 
L 210.030545 62.614526 
L 211.893818 57.845403 
L 214.023273 51.710869 
L 216.152727 44.846567 
L 218.282182 37.252545 
L 220.677818 27.837003 
L 222.008727 22.207112 
L 222.274909 21.927323 
L 225.735273 33.804486 
L 228.929455 44.023842 
L 232.123636 53.528926 
L 235.317818 62.319614 
L 238.245818 69.750246 
L 241.173818 76.580591 
L 243.835636 82.269131 
L 246.497455 87.461575 
L 249.159273 92.157972 
L 251.554909 95.960614 
L 253.950545 99.36136 
L 256.346182 102.360312 
L 258.475636 104.688741 
L 260.605091 106.69971 
L 262.734545 108.393145 
L 264.597818 109.614476 
L 266.461091 110.592716 
L 268.324364 111.327892 
L 270.187636 111.820002 
L 272.050909 112.069047 
L 273.914182 112.074976 
L 275.777455 111.837841 
L 277.640727 111.35764 
L 279.504 110.634373 
L 281.367273 109.668017 
L 283.230545 108.45857 
L 285.093818 107.006083 
L 287.223273 105.048431 
L 289.352727 102.773319 
L 291.482182 100.180672 
L 293.877818 96.884466 
L 296.273455 93.18644 
L 298.669091 89.086619 
L 301.330909 84.059981 
L 302.928 80.805856 
L 303.194182 80.74205 
L 305.856 84.4839 
L 308.517818 88.59583 
L 311.445818 93.546504 
L 314.373818 98.945115 
L 317.301818 104.791638 
L 320.496 111.680456 
L 323.690182 119.102269 
L 327.150545 127.744168 
L 330.610909 137.011568 
L 334.071273 146.904669 
L 337.797818 158.258256 
L 341.524364 170.3375 
L 345.250909 183.142178 
L 349.243636 197.666576 
L 353.236364 213.023888 
L 357.495273 230.323007 
L 360.689455 243.919267 
L 361.488 241.136186 
L 364.416 230.879446 
L 367.077818 222.326231 
L 369.739636 214.507369 
L 372.135273 208.098178 
L 374.530909 202.283895 
L 376.926545 197.064419 
L 379.056 192.924161 
L 381.185455 189.25399 
L 383.314909 186.05373 
L 385.178182 183.639097 
L 387.041455 181.584278 
L 388.904727 179.889224 
L 390.501818 178.72273 
L 392.098909 177.820653 
L 393.696 177.182893 
L 395.293091 176.809525 
L 396.890182 176.700499 
L 398.487273 176.855841 
L 400.084364 177.275549 
L 401.681455 177.95965 
L 403.278545 178.908093 
L 404.875636 180.120878 
L 406.472727 181.598056 
L 408.336 183.65554 
L 410.199273 186.072864 
L 412.062545 188.850002 
L 414.192 192.46449 
L 416.321455 196.548964 
L 418.450909 201.103423 
L 420.846545 206.788949 
L 423.242182 213.069282 
L 425.637818 219.94451 
L 426.436364 222.368374 
L 426.436364 222.368374 
" clip-path="url(#p928b8590ec)" style="fill: none; stroke-dasharray: 3,4.95; stroke-dashoffset: 0; stroke: #ff0000; stroke-width: 3"/>
   </g>
   <g id="line2d_3">
    <path d="M 27.163636 74.490493 
L 27.696 74.345391 
L 28.228364 74.425616 
L 28.760727 74.731192 
L 29.293091 75.262143 
L 30.091636 76.481057 
L 30.890182 78.20713 
L 31.688727 80.440137 
L 32.753455 84.206279 
L 33.818182 88.873775 
L 34.882909 94.442776 
L 36.213818 102.671643 
L 37.544727 112.308873 
L 39.141818 125.7328 
L 40.738909 141.184911 
L 42.336 158.665208 
L 44.199273 181.622273 
L 46.062545 207.339957 
L 48.192 240.111891 
L 50.321455 276.489469 
L 52.450909 316.472727 
L 52.717091 314.650796 
L 54.580364 294.749003 
L 56.443636 277.266439 
L 58.040727 264.206898 
L 59.637818 252.924742 
L 60.968727 244.880665 
L 62.299636 238.0709 
L 63.630545 232.495397 
L 64.695273 228.923712 
L 65.76 226.14199 
L 66.558545 224.574074 
L 67.357091 223.450532 
L 68.155636 222.771315 
L 68.688 222.565397 
L 69.220364 222.556926 
L 69.752727 222.745964 
L 70.285091 223.132475 
L 71.083636 224.082537 
L 71.882182 225.476961 
L 72.680727 227.315747 
L 73.745455 230.458616 
L 74.810182 234.391461 
L 75.874909 239.114255 
L 77.205818 246.12863 
L 78.536727 254.377266 
L 79.601455 261.864891 
L 79.867636 261.89348 
L 82.795636 240.834747 
L 85.457455 223.234935 
L 88.119273 207.10596 
L 90.514909 193.847416 
L 92.910545 181.78038 
L 95.306182 170.904752 
L 97.435636 162.237665 
L 99.565091 154.511971 
L 101.428364 148.524208 
L 103.291636 143.257195 
L 105.154909 138.710882 
L 106.752 135.387694 
L 108.349091 132.594013 
L 109.68 130.670468 
L 111.010909 129.114611 
L 112.341818 127.926467 
L 113.406545 127.240746 
L 114.471273 126.790343 
L 115.536 126.575282 
L 116.600727 126.595562 
L 117.665455 126.851184 
L 118.730182 127.342123 
L 119.794909 128.068404 
L 120.859636 129.030052 
L 122.190545 130.563037 
L 123.521455 132.463785 
L 124.852364 134.732245 
L 126.449455 137.939755 
L 126.715636 138.525843 
L 126.981818 138.364646 
L 129.909818 125.229428 
L 132.837818 113.092657 
L 135.765818 101.954381 
L 138.427636 92.695003 
L 141.089455 84.260791 
L 143.485091 77.375561 
L 145.880727 71.15866 
L 148.010182 66.19366 
L 150.139636 61.756722 
L 152.269091 57.84792 
L 154.132364 54.860902 
L 155.995636 52.278171 
L 157.858909 50.099827 
L 159.456 48.554459 
L 161.053091 47.306195 
L 162.650182 46.354937 
L 163.981091 45.789155 
L 165.312 45.429615 
L 166.642909 45.276416 
L 167.973818 45.329483 
L 169.304727 45.588843 
L 170.635636 46.054519 
L 171.966545 46.726436 
L 173.563636 47.805107 
L 175.160727 49.180783 
L 175.426909 49.648103 
L 177.556364 56.01028 
L 179.685818 61.642713 
L 181.549091 65.97242 
L 183.412364 69.743519 
L 185.009455 72.531147 
L 186.606545 74.908333 
L 188.203636 76.87503 
L 189.534545 78.200378 
L 190.865455 79.240656 
L 192.196364 79.995937 
L 193.527273 80.466147 
L 194.592 80.637036 
L 195.656727 80.625575 
L 196.721455 80.431616 
L 198.052364 79.932679 
L 199.383273 79.148647 
L 200.714182 78.079543 
L 202.045091 76.725418 
L 203.376 75.086247 
L 204.973091 72.742944 
L 206.570182 69.989151 
L 208.167273 66.824942 
L 210.030545 62.614526 
L 211.893818 57.845403 
L 214.023273 51.710869 
L 216.152727 44.846567 
L 218.282182 37.252545 
L 220.677818 27.837003 
L 222.008727 22.207112 
L 222.274909 21.927323 
L 225.735273 33.804486 
L 228.929455 44.023842 
L 232.123636 53.528926 
L 235.317818 62.319614 
L 238.245818 69.750246 
L 241.173818 76.580591 
L 243.835636 82.269131 
L 246.497455 87.461575 
L 249.159273 92.157972 
L 251.554909 95.960614 
L 253.950545 99.36136 
L 256.346182 102.360312 
L 258.475636 104.688741 
L 260.605091 106.69971 
L 262.734545 108.393145 
L 264.597818 109.614476 
L 266.461091 110.592716 
L 268.324364 111.327892 
L 270.187636 111.820002 
L 272.050909 112.069047 
L 273.914182 112.074976 
L 275.777455 111.837841 
L 277.640727 111.35764 
L 279.504 110.634373 
L 281.367273 109.668017 
L 283.230545 108.45857 
L 285.093818 107.006083 
L 287.223273 105.048431 
L 289.352727 102.773319 
L 291.482182 100.180672 
L 293.877818 96.884466 
L 296.273455 93.18644 
L 298.669091 89.086619 
L 301.330909 84.059981 
L 302.928 80.805856 
L 303.194182 80.74205 
L 305.856 84.4839 
L 308.517818 88.59583 
L 311.445818 93.546504 
L 314.373818 98.945115 
L 317.301818 104.791638 
L 320.496 111.680456 
L 323.690182 119.102269 
L 327.150545 127.744168 
L 330.610909 137.011568 
L 334.071273 146.904669 
L 337.797818 158.258256 
L 341.524364 170.3375 
L 345.250909 183.142178 
L 349.243636 197.666576 
L 353.236364 213.023888 
L 357.495273 230.323007 
L 360.689455 243.919267 
L 361.488 241.136186 
L 364.416 230.879446 
L 367.077818 222.326231 
L 369.739636 214.507369 
L 372.135273 208.098178 
L 374.530909 202.283895 
L 376.926545 197.064419 
L 379.056 192.924161 
L 381.185455 189.25399 
L 383.314909 186.05373 
L 385.178182 183.639097 
L 387.041455 181.584278 
L 388.904727 179.889224 
L 390.501818 178.72273 
L 392.098909 177.820653 
L 393.696 177.182893 
L 395.293091 176.809525 
L 396.890182 176.700499 
L 398.487273 176.855841 
L 400.084364 177.275549 
L 401.681455 177.95965 
L 403.278545 178.908093 
L 404.875636 180.120878 
L 406.472727 181.598056 
L 408.336 183.65554 
L 410.199273 186.072864 
L 412.062545 188.850002 
L 414.192 192.46449 
L 416.321455 196.548964 
L 418.450909 201.103423 
L 420.846545 206.788949 
L 423.242182 213.069282 
L 425.637818 219.94451 
L 426.436364 222.368374 
L 426.436364 222.368374 
" clip-path="url(#p928b8590ec)" style="fill: none; stroke: #ff0000; stroke-width: 3; stroke-linecap: square"/>
   </g>
   <g id="patch_3">
    <path d="M 7.2 331.2 
L 7.2 7.2 
" style="fill: none; stroke: #000000; stroke-width: 0.8; stroke-linejoin: miter; stroke-linecap: square"/>
   </g>
   <g id="patch_4">
    <path d="M 446.4 331.2 
L 446.4 7.2 
" style="fill: none; stroke: #000000; stroke-width: 0.8; stroke-linejoin: miter; stroke-linecap: square"/>
   </g>
   <g id="patch_5">
    <path d="M 7.2 331.2 
L 446.4 331.2 
" style="fill: none; stroke: #000000; stroke-width: 0.8; stroke-linejoin: miter; stroke-linecap: square"/>
   </g>
   <g id="patch_6">
    <path d="M 7.2 7.2 
L 446.4 7.2 
" style="fill: none; stroke: #000000; stroke-width: 0.8; stroke-linejoin: miter; stroke-linecap: square"/>
   </g>
  </g>
 </g>
 <defs>
  <clipPath id="p928b8590ec">
   <rect x="7.2" y="7.2" width="439.2" height="324"/>
  </clipPath>
 </defs>
</svg>
