<?xml version="1.0" encoding="utf-8" standalone="no"?>
<!DOCTYPE svg PUBLIC "-//W3C//DTD SVG 1.1//EN"
  "http://www.w3.org/Graphics/SVG/1.1/DTD/svg11.dtd">
<svg xmlns:xlink="http://www.w3.org/1999/xlink" width="453.6pt" height="338.4pt" viewBox="0 0 453.6 338.4" xmlns="http://www.w3.org/2000/svg" version="1.1">
 <metadata>
  <rdf:RDF xmlns:dc="http://purl.org/dc/elements/1.1/" xmlns:cc="http://creativecommons.org/ns#" xmlns:rdf="http://www.w3.org/1999/02/22-rdf-syntax-ns#">
   <cc:Work>
    <dc:type rdf:resource="http://purl.org/dc/dcmitype/StillImage"/>
    <dc:date>2025-05-14T08:47:52.469143</dc:date>
    <dc:format>image/svg+xml</dc:format>
    <dc:creator>
     <cc:Agent>
      <dc:title>Matplotlib v3.10.1, https://matplotlib.org/</dc:title>
     </cc:Agent>
    </dc:creator>
   </cc:Work>
  </rdf:RDF>
 </metadata>
 <defs>
  <style type="text/css">*{stroke-linejoin: round; stroke-linecap: butt}</style>
 </defs>
 <g id="figure_1">
  <g id="patch_1">
   <path d="M 0 338.4 
L 453.6 338.4 
L 453.6 0 
L 0 0 
z
" style="fill: #ffffff"/>
  </g>
  <g id="axes_1">
   <g id="patch_2">
    <path d="M 7.2 331.2 
L 446.4 331.2 
L 446.4 7.2 
L 7.2 7.2 
z
" style="fill: #ffffff"/>
   </g>
   <g id="matplotlib.axis_1"/>
   <g id="matplotlib.axis_2"/>
   <g id="line2d_1">
    <path d="M 27.163636 316.472727 
L 260.871273 37.672178 
L 426.436364 42.03214 
L 426.436364 42.03214 
" clip-path="url(#p1e9ac7e3eb)" style="fill: none; stroke-dasharray: 11.1,4.8; stroke-dashoffset: 0; stroke: #000000; stroke-width: 3"/>
   </g>
   <g id="line2d_2">
    <path d="M 27.163636 133.605732 
L 28.228364 131.397134 
L 29.559273 129.211045 
L 30.890182 127.468003 
L 32.487273 125.759504 
L 34.616727 123.858244 
L 41.005091 118.471116 
L 42.336 116.973103 
L 43.400727 115.467841 
L 44.199273 114.339872 
L 45.796364 112.276262 
L 47.393455 109.985637 
L 47.925818 110.195072 
L 49.522909 111.230176 
L 51.12 112.579359 
L 52.450909 113.978636 
L 53.781818 115.662849 
L 55.112727 117.67169 
L 56.443636 120.04735 
L 57.774545 122.833616 
L 59.105455 126.075795 
L 60.968727 130.905952 
L 61.234909 131.333158 
L 62.299636 129.111185 
L 63.364364 127.326205 
L 64.695273 125.576348 
L 66.026182 124.23967 
L 67.357091 123.209134 
L 68.954182 122.272259 
L 70.817455 121.468375 
L 72.946909 120.811617 
L 75.342545 120.302492 
L 78.004364 119.954304 
L 79.335273 120.015634 
L 81.198545 120.365961 
L 83.594182 121.08771 
L 86.522182 122.088596 
L 90.248727 121.983516 
L 92.644364 122.111794 
L 94.241455 122.412426 
L 95.838545 123.027899 
L 97.435636 123.901849 
L 98.766545 124.812517 
L 99.032727 124.654118 
L 99.831273 122.32228 
L 100.629818 120.821186 
L 101.428364 119.964816 
L 102.226909 119.572624 
L 103.025455 119.484327 
L 104.622545 119.662408 
L 105.687273 119.689811 
L 106.485818 119.528439 
L 107.284364 119.155821 
L 108.082909 118.549518 
L 109.147636 117.38505 
L 110.478545 115.450478 
L 110.744727 115.739946 
L 111.809455 118.137463 
L 112.874182 119.968441 
L 113.938909 121.352711 
L 115.003636 122.388648 
L 116.334545 123.316171 
L 117.665455 123.945381 
L 119.262545 124.442544 
L 121.392 124.831438 
L 124.586182 125.141893 
L 128.046545 125.407945 
L 128.578909 125.15447 
L 129.111273 124.687392 
L 129.909818 123.566021 
L 130.708364 121.926355 
L 131.506909 119.751249 
L 131.773091 118.90463 
L 132.039273 118.854283 
L 133.104 120.53875 
L 134.168727 121.771109 
L 134.967273 122.363892 
L 135.765818 122.64582 
L 136.298182 122.651294 
L 136.830545 122.50685 
L 137.629091 121.993375 
L 138.427636 121.113989 
L 139.226182 119.858866 
L 140.024727 118.221882 
L 141.089455 115.443483 
L 141.888 113.33199 
L 142.952727 115.023091 
L 143.485091 115.581729 
L 144.017455 115.704968 
L 145.880727 115.920456 
L 148.542545 116.291407 
L 149.873455 116.286695 
L 151.204364 116.070265 
L 152.535273 115.641246 
L 154.664727 114.666385 
L 156.794182 113.758979 
L 157.858909 113.514602 
L 158.923636 113.4984 
L 160.254545 113.613339 
L 163.448727 112.686287 
L 164.513455 112.630757 
L 165.578182 112.799269 
L 166.642909 113.217196 
L 167.707636 113.89592 
L 168.772364 114.832722 
L 170.103273 116.353244 
L 171.434182 118.223224 
L 173.563636 121.429482 
L 174.628364 121.512451 
L 175.959273 121.356626 
L 177.822545 120.878782 
L 179.419636 120.274437 
L 181.282909 119.302548 
L 183.678545 117.752013 
L 186.340364 116.078674 
L 187.671273 115.532288 
L 188.736 115.380812 
L 189.534545 115.499955 
L 190.333091 115.871414 
L 191.131636 116.558148 
L 191.930182 117.610034 
L 192.462545 118.630422 
L 193.261091 120.929274 
L 193.527273 121.537135 
L 196.189091 121.793437 
L 198.318545 122.24859 
L 200.980364 123.134139 
L 202.843636 123.732866 
L 204.174545 123.917689 
L 204.973091 123.853278 
L 205.771636 123.615172 
L 206.570182 123.175279 
L 207.634909 122.267982 
L 208.965818 120.752099 
L 210.030545 119.570123 
L 210.562909 119.22063 
L 211.095273 119.054438 
L 211.627636 119.088184 
L 212.16 119.370475 
L 212.692364 119.955102 
L 213.224727 120.897848 
L 213.757091 122.243443 
L 214.023273 123.069873 
L 214.289455 123.294097 
L 215.354182 122.602686 
L 216.685091 121.458443 
L 218.548364 119.510171 
L 222.807273 114.893037 
L 224.404364 113.506773 
L 226.001455 112.436111 
L 227.332364 111.626717 
L 228.929455 110.431366 
L 230.526545 115.746906 
L 231.591273 118.617989 
L 232.656 120.857215 
L 233.454545 122.111142 
L 234.253091 123.011479 
L 235.051636 123.580882 
L 235.850182 123.865058 
L 236.648727 123.91381 
L 237.713455 123.720832 
L 240.641455 122.95874 
L 241.173818 124.034585 
L 241.972364 125.524805 
L 242.770909 126.515289 
L 243.303273 126.920819 
L 243.835636 127.135836 
L 244.634182 127.186147 
L 245.432727 126.980047 
L 246.231273 126.562374 
L 247.296 125.743193 
L 248.626909 124.377989 
L 249.957818 122.696747 
L 251.554909 120.291655 
L 253.152 117.443516 
L 254.749091 114.077771 
L 255.813818 111.491734 
L 256.08 111.396114 
L 257.144727 115.536021 
L 258.209455 118.753407 
L 259.008 120.531863 
L 259.806545 121.741169 
L 260.072727 122.018313 
L 261.669818 122.426744 
L 262.734545 122.452769 
L 263.533091 122.276573 
L 264.331636 121.915118 
L 265.396364 121.14788 
L 266.727273 119.832841 
L 268.590545 117.944303 
L 269.389091 117.449098 
L 269.921455 117.343438 
L 270.453818 117.478929 
L 271.252364 117.935568 
L 272.317091 118.897453 
L 274.446545 121.047331 
L 275.245091 121.504078 
L 275.777455 121.571715 
L 276.309818 121.395011 
L 277.108364 120.671667 
L 277.906909 119.540437 
L 278.705455 117.980732 
L 279.770182 115.271382 
L 280.834909 111.88494 
L 281.367273 109.950405 
L 282.698182 114.601322 
L 284.029091 118.328267 
L 285.36 121.281268 
L 286.424727 123.140772 
L 287.489455 124.558136 
L 288.288 125.313268 
L 289.086545 125.776468 
L 289.618909 125.905035 
L 290.151273 125.864185 
L 290.683636 125.642354 
L 291.216 125.213879 
L 291.748364 124.553822 
L 292.546909 123.055809 
L 293.611636 120.571626 
L 294.410182 119.584839 
L 295.208727 118.2984 
L 296.007273 116.677183 
L 297.072 113.943186 
L 297.604364 112.308703 
L 297.870545 111.932496 
L 298.136727 112.188291 
L 299.733818 115.025193 
L 301.064727 116.954835 
L 302.395636 118.451072 
L 303.460364 119.351989 
L 304.791273 120.160223 
L 306.122182 120.691929 
L 307.719273 121.075821 
L 314.107636 122.253737 
L 314.64 122.438125 
L 315.438545 120.880087 
L 316.503273 118.981111 
L 317.568 117.445183 
L 318.632727 116.226598 
L 319.697455 115.283018 
L 320.762182 114.574173 
L 322.093091 113.962651 
L 323.424 113.60319 
L 325.021091 113.422898 
L 326.884364 113.4702 
L 328.747636 113.742342 
L 330.344727 114.207317 
L 331.675636 114.81565 
L 333.006545 115.694384 
L 334.071273 116.65065 
L 335.136 117.893739 
L 336.200727 119.492881 
L 336.999273 120.902162 
L 337.265455 120.799547 
L 338.330182 118.81452 
L 339.128727 117.743495 
L 339.927273 117.086121 
L 340.459636 116.89336 
L 340.992 116.902422 
L 341.524364 117.119613 
L 342.056727 117.545478 
L 342.855273 118.559776 
L 343.387636 119.362863 
L 345.783273 122.032196 
L 348.711273 125.244689 
L 350.308364 126.704462 
L 351.639273 127.628831 
L 352.437818 128.006524 
L 353.768727 124.998137 
L 354.833455 123.134538 
L 355.898182 121.735297 
L 356.962909 120.772398 
L 357.761455 120.30764 
L 358.826182 119.985259 
L 360.157091 119.912222 
L 363.617455 119.842809 
L 364.682182 119.57904 
L 365.480727 119.197142 
L 366.279273 118.594537 
L 367.077818 117.723016 
L 367.876364 116.53611 
L 368.674909 115.270839 
L 369.473455 114.973106 
L 370.272 114.912211 
L 371.336727 115.11784 
L 372.667636 115.672563 
L 379.854545 119.2045 
L 380.653091 119.368699 
L 381.451636 119.321143 
L 382.250182 118.984663 
L 383.048727 118.299922 
L 383.847273 117.206642 
L 384.645818 115.647879 
L 384.912 115.025991 
L 385.710545 115.189682 
L 386.509091 115.6585 
L 387.573818 116.644488 
L 389.170909 118.572426 
L 391.566545 121.522564 
L 392.897455 122.813825 
L 393.429818 123.335346 
L 396.890182 127.19191 
L 398.753455 128.93372 
L 400.084364 129.922971 
L 401.415273 130.631961 
L 402.48 130.955393 
L 403.544727 131.028249 
L 404.077091 130.865682 
L 404.343273 130.524815 
L 405.408 128.553744 
L 406.472727 127.042899 
L 407.537455 125.94208 
L 408.602182 125.204419 
L 409.666909 124.773805 
L 410.731636 124.60156 
L 412.062545 124.602901 
L 413.925818 124.872977 
L 416.853818 125.351255 
L 418.184727 125.343643 
L 419.249455 125.150773 
L 420.314182 124.759161 
L 421.378909 124.150757 
L 422.709818 123.079841 
L 424.040727 121.701588 
L 425.637818 119.745885 
L 426.436364 118.697805 
L 426.436364 118.697805 
" clip-path="url(#p1e9ac7e3eb)" style="fill: none; stroke-dasharray: 3,4.95; stroke-dashoffset: 0; stroke: #ff0000; stroke-width: 3"/>
   </g>
   <g id="line2d_3">
    <path d="M 27.163636 112.307145 
L 27.696 113.78939 
L 28.494545 117.082823 
L 31.422545 130.65911 
L 32.221091 132.824973 
L 32.753455 133.595583 
L 33.019636 133.743978 
L 33.285818 133.726471 
L 33.552 133.557922 
L 34.084364 132.631451 
L 34.616727 130.950499 
L 35.149091 128.439856 
L 35.681455 125.076358 
L 36.48 118.286547 
L 37.278545 109.297562 
L 38.077091 97.967714 
L 39.408 76.554333 
L 39.940364 84.229584 
L 40.738909 94.755294 
L 41.537455 102.139699 
L 42.069818 105.478839 
L 42.602182 107.680514 
L 43.134545 108.86597 
L 43.400727 109.105526 
L 44.199273 109.146195 
L 44.465455 108.966084 
L 44.997818 108.061215 
L 45.796364 105.793028 
L 47.127273 101.639782 
L 47.393455 101.472973 
L 47.659636 101.973942 
L 48.192 103.942984 
L 48.724364 107.128256 
L 49.256727 111.790155 
L 49.789091 118.166823 
L 50.587636 131.395503 
L 51.386182 149.482214 
L 51.652364 156.703436 
L 51.918545 157.702365 
L 52.983273 148.939144 
L 54.314182 139.165214 
L 54.580364 140.541473 
L 55.645091 157.628367 
L 56.709818 171.162246 
L 57.508364 178.857795 
L 58.306909 184.598131 
L 59.105455 188.69909 
L 59.904 191.651185 
L 61.234909 195.460647 
L 62.033455 192.569592 
L 62.565818 191.30606 
L 63.098182 190.611605 
L 63.364364 190.480355 
L 63.630545 190.483201 
L 64.162909 190.890507 
L 64.695273 191.763859 
L 65.227636 193.024998 
L 65.76 194.526781 
L 66.824727 191.598827 
L 67.889455 187.988451 
L 68.688 184.705132 
L 69.752727 179.250186 
L 70.551273 174.167279 
L 71.349818 167.975089 
L 72.148364 160.416118 
L 72.946909 151.185203 
L 73.745455 139.840095 
L 74.544 127.822716 
L 75.608727 118.767725 
L 76.407273 113.830313 
L 76.939636 111.505362 
L 77.738182 109.67685 
L 78.802909 107.043837 
L 80.4 103.062872 
L 81.198545 101.605057 
L 81.730909 100.992085 
L 82.263273 100.743939 
L 82.795636 100.909044 
L 83.328 101.50777 
L 83.860364 102.575859 
L 84.392727 104.105407 
L 85.191273 107.238809 
L 86.788364 115.183773 
L 88.119273 125.168027 
L 88.917818 130.671652 
L 89.450182 133.394195 
L 89.982545 135.111357 
L 90.248727 135.533742 
L 90.514909 135.598624 
L 90.781091 135.324598 
L 91.047273 137.049372 
L 91.579636 146.313072 
L 92.112 152.464502 
L 92.644364 155.731728 
L 92.910545 156.420655 
L 93.176727 156.475986 
L 93.442909 155.991999 
L 93.709091 155.018824 
L 94.507636 153.643398 
L 95.306182 151.772222 
L 96.370909 148.638603 
L 97.968 142.959107 
L 98.766545 139.92292 
L 99.032727 138.306125 
L 100.097455 128.148249 
L 100.896 122.472451 
L 101.694545 118.476517 
L 102.226909 116.809557 
L 102.759273 116.021947 
L 103.025455 115.993059 
L 103.291636 116.218877 
L 103.557818 116.751163 
L 104.090182 118.769066 
L 104.622545 122.207124 
L 105.154909 127.407906 
L 105.687273 134.605277 
L 106.219636 142.788856 
L 106.485818 142.914705 
L 108.615273 138.38431 
L 110.478545 134.001549 
L 110.744727 134.714707 
L 111.809455 139.662848 
L 112.874182 143.516513 
L 113.672727 145.701351 
L 114.471273 147.278799 
L 115.003636 147.996398 
L 115.536 148.44537 
L 116.068364 148.626714 
L 116.600727 148.532617 
L 117.133091 148.176019 
L 117.665455 147.547316 
L 118.197818 146.659991 
L 118.996364 144.836553 
L 119.794909 141.751251 
L 120.859636 136.296015 
L 122.456727 126.549216 
L 124.053818 116.895498 
L 125.118545 122.738032 
L 126.715636 130.705035 
L 126.981818 131.982196 
L 127.780364 146.956201 
L 128.578909 158.18628 
L 129.377455 166.015381 
L 129.909818 169.505181 
L 130.442182 171.739514 
L 130.974545 172.855829 
L 131.240727 173.036883 
L 131.506909 172.960057 
L 131.773091 172.665062 
L 132.039273 173.619769 
L 133.104 179.913306 
L 134.168727 185.130163 
L 134.701091 186.749749 
L 135.233455 186.449153 
L 135.765818 185.783079 
L 136.564364 184.167391 
L 137.362909 181.966731 
L 137.895273 180.082017 
L 138.693818 176.353712 
L 139.758545 170.150648 
L 140.823273 162.652481 
L 141.888 154.703892 
L 142.686545 154.756523 
L 143.485091 154.450091 
L 143.751273 153.862855 
L 144.283636 152.238158 
L 144.816 151.370824 
L 145.082182 151.23372 
L 145.348364 151.318719 
L 145.614545 151.607842 
L 146.146909 152.850025 
L 146.679273 154.968658 
L 147.211636 158.01494 
L 148.010182 164.329899 
L 148.808727 172.827357 
L 149.074909 176.158831 
L 149.341091 176.332308 
L 150.139636 168.847716 
L 150.672 165.780301 
L 151.204364 164.047209 
L 151.470545 163.655579 
L 151.736727 163.524456 
L 152.002909 163.657373 
L 152.269091 164.000251 
L 152.801455 165.316649 
L 153.6 168.460019 
L 154.930909 175.198631 
L 156.261818 181.66628 
L 157.060364 184.530385 
L 157.326545 185.233141 
L 157.592727 185.042518 
L 160.254545 164.364351 
L 161.053091 124.130205 
L 161.585455 102.952501 
L 162.117818 88.435714 
L 162.650182 78.241555 
L 163.182545 71.998347 
L 163.448727 70.21025 
L 163.714909 69.281893 
L 163.981091 69.171812 
L 164.247273 69.804973 
L 164.513455 71.151184 
L 165.045818 75.90776 
L 165.578182 83.056089 
L 166.376727 97.691512 
L 167.441455 123.055121 
L 168.772364 161.137052 
L 169.570909 185.873352 
L 169.837091 184.773639 
L 170.635636 163.762979 
L 171.434182 148.931188 
L 171.966545 141.949594 
L 172.498909 136.903876 
L 173.031273 133.55205 
L 174.362182 127.242366 
L 175.959273 121.797207 
L 176.225455 122.138979 
L 177.822545 130.730553 
L 178.354909 132.074372 
L 178.621091 132.26822 
L 178.887273 132.079664 
L 179.153455 131.521171 
L 179.419636 130.564796 
L 179.685818 128.414628 
L 180.484364 118.390612 
L 181.282909 111.374584 
L 181.815273 108.17369 
L 182.347636 105.994887 
L 182.88 104.717835 
L 183.412364 104.225819 
L 183.678545 104.248836 
L 183.944727 104.413506 
L 184.477091 105.176612 
L 185.009455 106.409914 
L 185.808 108.958798 
L 186.872727 113.276822 
L 187.937455 118.229422 
L 190.333091 131.562819 
L 192.994909 143.950243 
L 193.527273 146.383192 
L 194.059636 144.445268 
L 194.858182 140.593125 
L 195.656727 135.798309 
L 198.318545 117.988271 
L 199.117091 114.327331 
L 199.649455 112.66675 
L 200.181818 111.713601 
L 200.448 111.547046 
L 200.714182 111.59105 
L 200.980364 111.865113 
L 201.246545 111.883237 
L 202.577455 103.667181 
L 203.642182 98.539981 
L 204.440727 95.910628 
L 204.973091 94.876793 
L 205.239273 94.606391 
L 205.505455 94.533934 
L 205.771636 94.641152 
L 206.037818 94.970673 
L 206.570182 96.287596 
L 207.102545 98.596779 
L 207.634909 102.039078 
L 208.167273 106.738166 
L 208.965818 116.476411 
L 209.232 114.256142 
L 210.030545 97.077961 
L 210.829091 84.901384 
L 211.361455 79.852187 
L 211.893818 77.19014 
L 212.16 76.698885 
L 212.426182 76.752966 
L 212.692364 77.348503 
L 212.958545 78.463313 
L 213.490909 82.11356 
L 214.289455 88.890758 
L 215.354182 94.254723 
L 216.685091 102.292988 
L 218.814545 116.727893 
L 222.541091 143.578223 
L 224.404364 158.256834 
L 225.735273 170.451661 
L 226.001455 170.842548 
L 226.267636 169.165402 
L 227.066182 153.929386 
L 228.130909 131.537337 
L 228.929455 118.107995 
L 229.461818 114.545538 
L 229.728 113.181239 
L 229.994182 114.909493 
L 231.058909 129.812092 
L 232.123636 141.371093 
L 232.922182 148.082067 
L 233.720727 153.272881 
L 234.519273 157.011444 
L 235.051636 158.743467 
L 235.584 159.856411 
L 236.116364 160.371625 
L 236.382545 160.405806 
L 236.648727 160.291338 
L 237.181091 159.808257 
L 237.447273 160.042467 
L 237.713455 159.893963 
L 237.979636 159.407946 
L 238.512 157.605876 
L 239.310545 153.365474 
L 240.641455 145.047511 
L 240.907636 144.363531 
L 241.44 143.881411 
L 241.706182 143.801522 
L 241.972364 143.880559 
L 242.238545 144.207941 
L 242.504727 144.800198 
L 243.037091 146.982698 
L 243.303273 148.674777 
L 243.569455 149.243781 
L 244.101818 148.048883 
L 244.368 147.901014 
L 244.634182 148.057347 
L 244.900364 148.498073 
L 245.432727 150.248764 
L 247.029818 157.8185 
L 247.828364 160.760029 
L 248.094545 160.609586 
L 248.893091 159.607214 
L 249.957818 158.753417 
L 251.554909 157.608703 
L 252.353455 156.761032 
L 253.152 155.532787 
L 253.950545 153.791593 
L 254.749091 151.348206 
L 255.547636 148.00236 
L 255.813818 146.635525 
L 256.08 146.136115 
L 256.612364 148.739804 
L 257.144727 150.337424 
L 257.410909 150.696123 
L 257.677091 150.740091 
L 257.943273 150.408286 
L 258.209455 149.69569 
L 258.475636 148.568139 
L 259.008 144.804384 
L 259.540364 138.710496 
L 260.072727 129.770118 
L 260.871273 113.406188 
L 261.669818 92.80858 
L 262.202182 76.599859 
L 262.468364 76.068406 
L 263.799273 100.204548 
L 264.864 115.135638 
L 265.662545 123.356623 
L 266.194909 127.311271 
L 266.727273 129.998474 
L 267.259636 131.420622 
L 267.525818 131.615558 
L 267.792 131.494965 
L 268.058182 131.053876 
L 268.590545 129.167549 
L 269.122909 125.980284 
L 269.655273 121.45732 
L 270.453818 112.220188 
L 271.518545 96.727852 
L 271.784727 96.731802 
L 272.050909 96.539295 
L 272.317091 96.139963 
L 272.849455 94.722816 
L 273.381818 92.391378 
L 273.914182 89.1542 
L 274.712727 82.554976 
L 275.511273 73.657442 
L 276.309818 62.50292 
L 276.842182 52.946163 
L 278.173091 21.927273 
L 278.705455 23.951483 
L 279.237818 25.760712 
L 279.770182 26.917134 
L 280.302545 27.46642 
L 280.568727 27.537283 
L 280.834909 27.48226 
L 281.367273 27.000719 
L 282.698182 40.948248 
L 284.029091 52.459548 
L 285.093818 60.145927 
L 285.892364 64.478015 
L 286.957091 69.038967 
L 288.021818 72.528893 
L 288.820364 74.447081 
L 289.618909 75.73903 
L 290.151273 76.208319 
L 290.683636 76.340584 
L 291.216 76.096751 
L 291.748364 75.435644 
L 292.280727 74.298215 
L 292.813091 72.634626 
L 294.410182 66.767879 
L 297.604364 55.076395 
L 297.870545 55.198837 
L 298.136727 56.533304 
L 298.935273 62.781731 
L 299.733818 70.585514 
L 300.798545 83.78719 
L 301.863273 100.539542 
L 302.928 121.157304 
L 303.726545 139.250575 
L 304.258909 137.665859 
L 305.323636 134.673639 
L 306.122182 133.17472 
L 306.654545 132.616263 
L 307.186909 132.460075 
L 307.453091 132.555042 
L 307.985455 133.107011 
L 308.517818 134.185465 
L 309.050182 135.863082 
L 309.582545 138.20641 
L 310.114909 140.627306 
L 310.913455 142.012084 
L 311.712 143.949047 
L 312.510545 146.655116 
L 313.309091 150.320061 
L 313.575273 151.802652 
L 313.841455 150.114052 
L 315.172364 131.86269 
L 316.237091 117.243868 
L 317.035636 108.559647 
L 317.834182 102.132269 
L 318.366545 99.182167 
L 318.898909 97.32676 
L 319.165091 96.807051 
L 319.431273 96.556186 
L 319.697455 96.56938 
L 319.963636 96.841522 
L 320.229818 97.36877 
L 320.762182 99.176585 
L 321.294545 101.952412 
L 322.625455 110.514625 
L 323.424 113.941845 
L 323.956364 115.218317 
L 324.222545 115.507096 
L 324.488727 115.513186 
L 324.754909 115.248293 
L 325.021091 114.647174 
L 325.553455 112.416429 
L 326.085818 108.586578 
L 326.618182 102.916471 
L 327.416727 90.650619 
L 328.215273 76.368893 
L 328.481455 76.012078 
L 330.078545 95.854735 
L 330.877091 106.899501 
L 331.675636 120.877478 
L 332.208 132.493024 
L 332.474182 134.285616 
L 333.538909 126.696342 
L 334.603636 120.531501 
L 335.668364 115.51971 
L 336.999273 110.197356 
L 337.531636 105.298656 
L 340.992 67.75394 
L 342.322909 53.423245 
L 343.387636 66.112534 
L 344.452364 65.355626 
L 348.178909 63.138256 
L 349.243636 62.071908 
L 350.574545 60.418069 
L 351.373091 59.374593 
L 351.639273 61.416926 
L 352.437818 83.454951 
L 353.502545 102.885697 
L 354.301091 114.269481 
L 355.099636 122.905022 
L 355.898182 128.719755 
L 356.430545 131.086752 
L 356.962909 132.211131 
L 357.229091 132.343288 
L 357.495273 132.190181 
L 357.761455 131.727162 
L 358.293818 130.014785 
L 358.826182 127.260163 
L 359.624727 121.373372 
L 360.157091 115.872284 
L 361.221818 101.155523 
L 362.552727 78.941592 
L 363.617455 60.494043 
L 364.948364 55.798253 
L 367.610182 46.720789 
L 368.674909 42.64272 
L 369.473455 41.366538 
L 370.272 40.561095 
L 371.070545 40.106196 
L 371.869091 39.936596 
L 372.667636 39.974221 
L 373.2 40.107537 
L 373.732364 40.609919 
L 374.530909 42.07212 
L 375.329455 44.062729 
L 376.128 46.657103 
L 376.394182 47.670567 
L 376.660364 49.778109 
L 377.458909 60.93785 
L 378.789818 83.898794 
L 381.717818 136.556921 
L 382.782545 152.087969 
L 383.048727 155.241996 
L 383.314909 155.674059 
L 384.113455 152.051305 
L 385.178182 146.471616 
L 386.242909 143.176082 
L 387.307636 139.060859 
L 387.84 136.586172 
L 388.106182 136.237259 
L 389.437091 144.820279 
L 390.501818 150.358429 
L 391.300364 153.617282 
L 392.098909 156.080913 
L 392.897455 157.750573 
L 394.494545 159.853983 
L 395.026909 160.129006 
L 395.559273 160.057672 
L 396.091636 159.590015 
L 396.624 158.620065 
L 397.156364 157.086421 
L 397.688727 154.903468 
L 398.221091 151.972305 
L 399.019636 145.990801 
L 399.552 141.250971 
L 400.882909 136.023946 
L 402.213818 129.917788 
L 403.544727 122.766196 
L 404.077091 119.414225 
L 404.875636 112.29145 
L 410.997818 54.846119 
L 413.127273 33.950524 
L 413.393455 37.745397 
L 414.458182 64.114857 
L 415.256727 78.996433 
L 416.055273 86.080388 
L 416.587636 89.301544 
L 417.12 91.437177 
L 417.652364 92.611759 
L 417.918545 92.878065 
L 418.184727 92.961433 
L 418.450909 92.866067 
L 418.983273 92.175563 
L 419.515636 91.025376 
L 421.645091 85.491702 
L 421.911273 85.193172 
L 422.177455 85.104512 
L 422.443636 85.263419 
L 422.709818 85.705269 
L 422.976 86.51459 
L 423.508364 89.330614 
L 424.040727 94.193684 
L 424.573091 101.606145 
L 425.105455 112.107569 
L 425.637818 126.371098 
L 426.170182 145.084881 
L 426.436364 156.358365 
L 426.436364 156.358365 
" clip-path="url(#p1e9ac7e3eb)" style="fill: none; stroke: #ff0000; stroke-width: 3; stroke-linecap: square"/>
   </g>
   <g id="patch_3">
    <path d="M 7.2 331.2 
L 7.2 7.2 
" style="fill: none; stroke: #000000; stroke-width: 0.8; stroke-linejoin: miter; stroke-linecap: square"/>
   </g>
   <g id="patch_4">
    <path d="M 446.4 331.2 
L 446.4 7.2 
" style="fill: none; stroke: #000000; stroke-width: 0.8; stroke-linejoin: miter; stroke-linecap: square"/>
   </g>
   <g id="patch_5">
    <path d="M 7.2 331.2 
L 446.4 331.2 
" style="fill: none; stroke: #000000; stroke-width: 0.8; stroke-linejoin: miter; stroke-linecap: square"/>
   </g>
   <g id="patch_6">
    <path d="M 7.2 7.2 
L 446.4 7.2 
" style="fill: none; stroke: #000000; stroke-width: 0.8; stroke-linejoin: miter; stroke-linecap: square"/>
   </g>
  </g>
 </g>
 <defs>
  <clipPath id="p1e9ac7e3eb">
   <rect x="7.2" y="7.2" width="439.2" height="324"/>
  </clipPath>
 </defs>
</svg>
