<?xml version="1.0" encoding="utf-8" standalone="no"?>
<!DOCTYPE svg PUBLIC "-//W3C//DTD SVG 1.1//EN"
  "http://www.w3.org/Graphics/SVG/1.1/DTD/svg11.dtd">
<svg xmlns:xlink="http://www.w3.org/1999/xlink" width="453.6pt" height="338.4pt" viewBox="0 0 453.6 338.4" xmlns="http://www.w3.org/2000/svg" version="1.1">
 <metadata>
  <rdf:RDF xmlns:dc="http://purl.org/dc/elements/1.1/" xmlns:cc="http://creativecommons.org/ns#" xmlns:rdf="http://www.w3.org/1999/02/22-rdf-syntax-ns#">
   <cc:Work>
    <dc:type rdf:resource="http://purl.org/dc/dcmitype/StillImage"/>
    <dc:date>2025-05-14T08:47:59.579278</dc:date>
    <dc:format>image/svg+xml</dc:format>
    <dc:creator>
     <cc:Agent>
      <dc:title>Matplotlib v3.10.1, https://matplotlib.org/</dc:title>
     </cc:Agent>
    </dc:creator>
   </cc:Work>
  </rdf:RDF>
 </metadata>
 <defs>
  <style type="text/css">*{stroke-linejoin: round; stroke-linecap: butt}</style>
 </defs>
 <g id="figure_1">
  <g id="patch_1">
   <path d="M 0 338.4 
L 453.6 338.4 
L 453.6 0 
L 0 0 
z
" style="fill: #ffffff"/>
  </g>
  <g id="axes_1">
   <g id="patch_2">
    <path d="M 7.2 331.2 
L 446.4 331.2 
L 446.4 7.2 
L 7.2 7.2 
z
" style="fill: #ffffff"/>
   </g>
   <g id="matplotlib.axis_1"/>
   <g id="matplotlib.axis_2"/>
   <g id="line2d_1">
    <path d="M 27.163636 182.196011 
L 29.026909 201.34706 
L 30.890182 218.229201 
L 32.753455 232.90429 
L 34.350545 243.773328 
L 35.947636 253.105425 
L 37.278545 259.736217 
L 38.609455 265.349377 
L 39.940364 269.967432 
L 41.005091 272.960611 
L 42.069818 275.342916 
L 43.134545 277.125943 
L 43.933091 278.076891 
L 44.731636 278.702083 
L 45.530182 279.006443 
L 46.328727 278.994836 
L 47.127273 278.672149 
L 47.925818 278.043222 
L 48.724364 277.112968 
L 49.522909 275.886238 
L 50.587636 273.797863 
L 51.652364 271.202666 
L 52.983273 267.263558 
L 54.314182 262.573195 
L 55.911273 255.984849 
L 57.508364 248.386163 
L 59.371636 238.29615 
L 61.234909 226.946048 
L 63.364364 212.510944 
L 65.493818 196.603381 
L 67.889455 177.062439 
L 70.551273 153.46188 
L 73.479273 125.414153 
L 76.673455 92.596917 
L 79.069091 66.64608 
L 79.335273 68.107918 
L 81.464727 88.854302 
L 83.594182 107.444784 
L 85.723636 123.993797 
L 87.586909 136.889391 
L 89.450182 148.38613 
L 91.313455 158.56063 
L 93.176727 167.489572 
L 95.04 175.249549 
L 96.637091 181.028638 
L 98.234182 186.053486 
L 99.831273 190.37233 
L 101.428364 194.033384 
L 103.025455 197.084968 
L 104.356364 199.197152 
L 105.687273 200.947521 
L 107.018182 202.363977 
L 108.349091 203.474514 
L 109.68 204.30695 
L 111.010909 204.889257 
L 112.341818 205.24943 
L 113.938909 205.427608 
L 115.536 205.374316 
L 117.399273 205.083882 
L 119.794909 204.467384 
L 126.183273 202.665649 
L 128.046545 202.420111 
L 129.643636 202.417768 
L 131.240727 202.658442 
L 132.571636 203.079471 
L 133.902545 203.730697 
L 135.233455 204.640067 
L 136.564364 205.835483 
L 137.895273 207.344917 
L 139.226182 209.19622 
L 140.557091 211.417414 
L 141.888 214.036337 
L 143.485091 217.743428 
L 145.082182 222.111747 
L 146.679273 227.189613 
L 148.276364 233.025228 
L 149.873455 239.666818 
L 151.470545 247.162739 
L 153.333818 257.052013 
L 155.197091 268.246438 
L 156.528 277.059522 
L 158.391273 259.37464 
L 160.254545 244.014169 
L 162.117818 230.723437 
L 163.981091 219.247403 
L 165.844364 209.331168 
L 167.707636 200.719976 
L 169.570909 193.158907 
L 171.700364 185.476495 
L 174.362182 176.754582 
L 179.419636 160.354824 
L 181.549091 152.527296 
L 183.412364 144.78768 
L 185.009455 137.289393 
L 186.606545 128.823722 
L 188.203636 119.230233 
L 189.800727 108.348494 
L 191.397818 96.017831 
L 192.994909 82.077788 
L 194.592 66.367883 
L 196.455273 45.588747 
L 198.318545 21.927273 
L 199.915636 29.011976 
L 209.498182 71.553926 
L 215.886545 98.942721 
L 221.210182 120.822012 
L 226.001455 139.568028 
L 230.260364 155.332997 
L 233.986909 168.333723 
L 237.447273 179.667294 
L 240.641455 189.439721 
L 243.835636 198.49732 
L 246.763636 206.12807 
L 249.425455 212.472816 
L 252.087273 218.222589 
L 254.482909 222.864013 
L 256.612364 226.547259 
L 258.741818 229.798119 
L 260.605091 232.275875 
L 262.468364 234.400665 
L 264.331636 236.162214 
L 265.928727 237.375267 
L 267.525818 238.307472 
L 269.122909 238.95237 
L 270.453818 239.265674 
L 271.784727 239.371282 
L 273.115636 239.265413 
L 274.446545 238.944355 
L 275.777455 238.404398 
L 277.108364 237.641761 
L 278.439273 236.652756 
L 280.036364 235.161876 
L 281.633455 233.333168 
L 283.230545 231.160176 
L 284.827636 228.63649 
L 286.690909 225.240312 
L 288.554182 221.347706 
L 290.417455 216.948466 
L 292.546909 211.287306 
L 294.676364 204.935674 
L 296.805818 197.878348 
L 298.935273 190.100128 
L 301.330909 180.46882 
L 303.726545 169.883853 
L 306.122182 158.323416 
L 308.784 144.308139 
L 310.913455 132.635671 
L 312.510545 130.18038 
L 314.107636 128.089794 
L 315.704727 126.354302 
L 317.301818 124.964391 
L 318.898909 123.910381 
L 320.229818 123.281751 
L 321.560727 122.874185 
L 322.891636 122.682093 
L 324.222545 122.700003 
L 325.553455 122.922375 
L 326.884364 123.343594 
L 328.481455 124.103686 
L 330.078545 125.132579 
L 331.675636 126.420735 
L 333.538909 128.238335 
L 335.402182 130.380417 
L 337.531636 133.206335 
L 339.661091 136.413489 
L 342.056727 140.448856 
L 344.718545 145.425372 
L 347.380364 150.877576 
L 350.308364 157.371493 
L 353.502545 164.981596 
L 357.229091 174.453826 
L 361.488 185.913008 
L 366.811636 200.921167 
L 376.394182 228.777372 
L 383.581091 249.334589 
L 388.372364 262.394316 
L 392.365091 272.663398 
L 395.825455 280.987878 
L 399.019636 288.108854 
L 401.947636 294.09417 
L 404.609455 299.034003 
L 407.005091 303.033561 
L 409.134545 306.20663 
L 411.264 308.99643 
L 413.127273 311.105182 
L 414.990545 312.887823 
L 416.587636 314.144725 
L 418.184727 315.141252 
L 419.781818 315.867818 
L 421.112727 316.26015 
L 422.443636 316.452795 
L 423.774545 316.440212 
L 425.105455 316.216836 
L 426.436364 315.77713 
L 426.436364 315.77713 
" clip-path="url(#p1d364bb08e)" style="fill: none; stroke-dasharray: 11.1,4.8; stroke-dashoffset: 0; stroke: #000000; stroke-width: 3"/>
   </g>
   <g id="line2d_2">
    <path d="M 27.163636 182.196082 
L 29.026909 201.347119 
L 30.890182 218.229249 
L 32.753455 232.904338 
L 34.350545 243.773376 
L 35.947636 253.105461 
L 37.278545 259.736252 
L 38.609455 265.349413 
L 39.940364 269.967468 
L 41.005091 272.960646 
L 42.069818 275.342951 
L 43.134545 277.125978 
L 43.933091 278.076926 
L 44.731636 278.702119 
L 45.530182 279.006479 
L 46.328727 278.994872 
L 47.127273 278.672184 
L 47.925818 278.043258 
L 48.724364 277.113003 
L 49.522909 275.886274 
L 50.587636 273.797899 
L 51.652364 271.202701 
L 52.983273 267.263594 
L 54.314182 262.573231 
L 55.911273 255.984885 
L 57.508364 248.38621 
L 59.371636 238.296197 
L 61.234909 226.946096 
L 63.364364 212.510992 
L 65.493818 196.603441 
L 67.889455 177.06251 
L 70.551273 153.461951 
L 73.479273 125.414224 
L 76.673455 92.597012 
L 79.069091 66.646175 
L 79.335273 68.108013 
L 81.464727 88.854397 
L 83.594182 107.444879 
L 85.723636 123.993868 
L 87.586909 136.889462 
L 89.450182 148.386202 
L 91.313455 158.560701 
L 93.176727 167.489644 
L 95.04 175.24962 
L 96.637091 181.028709 
L 98.234182 186.053557 
L 99.831273 190.372402 
L 101.428364 194.033443 
L 103.025455 197.085027 
L 104.356364 199.197211 
L 105.687273 200.947581 
L 107.018182 202.364036 
L 108.349091 203.474573 
L 109.68 204.30701 
L 111.010909 204.889316 
L 112.341818 205.24949 
L 113.938909 205.427667 
L 115.536 205.374376 
L 117.399273 205.083942 
L 119.794909 204.467443 
L 126.183273 202.665709 
L 128.046545 202.42017 
L 129.643636 202.417827 
L 131.240727 202.658502 
L 132.571636 203.07953 
L 133.902545 203.730756 
L 135.233455 204.640127 
L 136.564364 205.835543 
L 137.895273 207.344976 
L 139.226182 209.19628 
L 140.557091 211.417473 
L 141.888 214.036385 
L 143.485091 217.743476 
L 145.082182 222.111794 
L 146.679273 227.18966 
L 148.276364 233.025276 
L 149.873455 239.666866 
L 151.470545 247.162787 
L 153.333818 257.052049 
L 155.197091 268.246474 
L 156.528 277.059557 
L 158.391273 259.374676 
L 160.254545 244.014217 
L 162.117818 230.723485 
L 163.981091 219.24745 
L 165.844364 209.331227 
L 167.707636 200.720036 
L 169.570909 193.158966 
L 171.700364 185.476567 
L 174.362182 176.754653 
L 179.419636 160.354895 
L 181.549091 152.527368 
L 183.412364 144.787752 
L 185.009455 137.289464 
L 186.606545 128.823793 
L 188.203636 119.230305 
L 189.800727 108.348589 
L 191.397818 96.017926 
L 192.994909 82.077883 
L 194.592 66.367979 
L 196.455273 45.588842 
L 198.318545 21.927392 
L 199.915636 29.012095 
L 209.498182 71.554022 
L 215.886545 98.942816 
L 221.210182 120.822084 
L 226.001455 139.5681 
L 230.260364 155.333068 
L 233.986909 168.333794 
L 237.447273 179.667365 
L 240.641455 189.439792 
L 243.835636 198.49738 
L 246.763636 206.128129 
L 249.425455 212.472863 
L 252.087273 218.222637 
L 254.482909 222.864061 
L 256.612364 226.547307 
L 258.741818 229.798166 
L 260.605091 232.275923 
L 262.468364 234.400713 
L 264.331636 236.162262 
L 265.928727 237.375315 
L 267.525818 238.307519 
L 269.122909 238.952418 
L 270.453818 239.265722 
L 271.784727 239.37133 
L 273.115636 239.26546 
L 274.446545 238.944402 
L 275.777455 238.404446 
L 277.108364 237.641808 
L 278.439273 236.652804 
L 280.036364 235.161923 
L 281.633455 233.333216 
L 283.230545 231.160224 
L 284.827636 228.636537 
L 286.690909 225.24036 
L 288.554182 221.347753 
L 290.417455 216.948514 
L 292.546909 211.287366 
L 294.676364 204.935734 
L 296.805818 197.878407 
L 298.935273 190.100199 
L 301.330909 180.468892 
L 303.726545 169.883925 
L 306.122182 158.323487 
L 308.784 144.30821 
L 310.913455 132.635743 
L 312.510545 130.180452 
L 314.107636 128.089865 
L 315.704727 126.354373 
L 317.301818 124.964463 
L 318.898909 123.910452 
L 320.229818 123.281823 
L 321.560727 122.874257 
L 322.891636 122.682164 
L 324.222545 122.700075 
L 325.553455 122.922446 
L 326.884364 123.343665 
L 328.481455 124.103757 
L 330.078545 125.132651 
L 331.675636 126.420807 
L 333.538909 128.238406 
L 335.402182 130.380488 
L 337.531636 133.206407 
L 339.661091 136.41356 
L 342.056727 140.448928 
L 344.718545 145.425443 
L 347.380364 150.877647 
L 350.308364 157.371564 
L 353.502545 164.981668 
L 357.229091 174.453897 
L 361.488 185.91308 
L 366.811636 200.921226 
L 376.394182 228.77742 
L 383.581091 249.334637 
L 388.372364 262.394351 
L 392.365091 272.663434 
L 395.825455 280.987913 
L 399.019636 288.10889 
L 401.947636 294.0942 
L 404.609455 299.034033 
L 407.005091 303.033585 
L 409.134545 306.206654 
L 411.264 308.996453 
L 413.127273 311.105206 
L 414.990545 312.887847 
L 416.587636 314.144749 
L 418.184727 315.141276 
L 419.781818 315.867842 
L 421.112727 316.260173 
L 422.443636 316.452819 
L 423.774545 316.440236 
L 425.105455 316.21686 
L 426.436364 315.777153 
L 426.436364 315.777153 
" clip-path="url(#p1d364bb08e)" style="fill: none; stroke-dasharray: 3,4.95; stroke-dashoffset: 0; stroke: #0000ff; stroke-width: 3"/>
   </g>
   <g id="line2d_3">
    <path d="M 27.163636 182.196035 
L 29.026909 201.347072 
L 30.890182 218.229213 
L 32.753455 232.904302 
L 34.350545 243.77334 
L 35.947636 253.105437 
L 37.278545 259.736229 
L 38.609455 265.349389 
L 39.940364 269.967444 
L 41.005091 272.960623 
L 42.069818 275.342928 
L 43.134545 277.125955 
L 43.933091 278.076902 
L 44.731636 278.702095 
L 45.530182 279.006455 
L 46.328727 278.994848 
L 47.127273 278.672161 
L 47.925818 278.043234 
L 48.724364 277.11298 
L 49.522909 275.88625 
L 50.587636 273.797875 
L 51.652364 271.202677 
L 52.983273 267.26357 
L 54.314182 262.573207 
L 55.911273 255.984861 
L 57.508364 248.386174 
L 59.371636 238.296162 
L 61.234909 226.94606 
L 63.364364 212.510956 
L 65.493818 196.603393 
L 67.889455 177.062463 
L 70.551273 153.461903 
L 73.479273 125.414177 
L 76.673455 92.59694 
L 79.069091 66.646103 
L 79.335273 68.107942 
L 81.464727 88.854326 
L 83.594182 107.444808 
L 85.723636 123.99382 
L 87.586909 136.889414 
L 89.450182 148.386154 
L 91.313455 158.560653 
L 93.176727 167.489596 
L 95.04 175.249573 
L 96.637091 181.028662 
L 98.234182 186.05351 
L 99.831273 190.372354 
L 101.428364 194.033396 
L 103.025455 197.08498 
L 104.356364 199.197164 
L 105.687273 200.947533 
L 107.018182 202.363989 
L 108.349091 203.474526 
L 109.68 204.306962 
L 111.010909 204.889269 
L 112.341818 205.249442 
L 113.938909 205.42762 
L 115.536 205.374328 
L 117.399273 205.083894 
L 119.794909 204.467396 
L 126.183273 202.665661 
L 128.046545 202.420123 
L 129.643636 202.41778 
L 131.240727 202.658454 
L 132.571636 203.079483 
L 133.902545 203.730709 
L 135.233455 204.640079 
L 136.564364 205.835495 
L 137.895273 207.344928 
L 139.226182 209.196232 
L 140.557091 211.417425 
L 141.888 214.036349 
L 143.485091 217.74344 
L 145.082182 222.111758 
L 146.679273 227.189625 
L 148.276364 233.02524 
L 149.873455 239.66683 
L 151.470545 247.162751 
L 153.333818 257.052025 
L 155.197091 268.24645 
L 156.528 277.059533 
L 158.391273 259.374652 
L 160.254545 244.014181 
L 162.117818 230.723449 
L 163.981091 219.247415 
L 165.844364 209.33118 
L 167.707636 200.719988 
L 169.570909 193.158919 
L 171.700364 185.476519 
L 174.362182 176.754606 
L 179.419636 160.354848 
L 181.549091 152.52732 
L 183.412364 144.787704 
L 185.009455 137.289417 
L 186.606545 128.823746 
L 188.203636 119.230257 
L 189.800727 108.348517 
L 191.397818 96.017855 
L 192.994909 82.077812 
L 194.592 66.367907 
L 196.455273 45.588771 
L 198.318545 21.927297 
L 199.915636 29.012 
L 209.498182 71.55395 
L 215.886545 98.942745 
L 221.210182 120.822036 
L 226.001455 139.568052 
L 230.260364 155.33302 
L 233.986909 168.333747 
L 237.447273 179.667317 
L 240.641455 189.439745 
L 243.835636 198.497332 
L 246.763636 206.128082 
L 249.425455 212.472828 
L 252.087273 218.222601 
L 254.482909 222.864025 
L 256.612364 226.547271 
L 258.741818 229.79813 
L 260.605091 232.275887 
L 262.468364 234.400677 
L 264.331636 236.162226 
L 265.928727 237.375279 
L 267.525818 238.307484 
L 269.122909 238.952382 
L 270.453818 239.265686 
L 271.784727 239.371294 
L 273.115636 239.265424 
L 274.446545 238.944367 
L 275.777455 238.40441 
L 277.108364 237.641773 
L 278.439273 236.652768 
L 280.036364 235.161887 
L 281.633455 233.33318 
L 283.230545 231.160188 
L 284.827636 228.636502 
L 286.690909 225.240324 
L 288.554182 221.347718 
L 290.417455 216.948478 
L 292.546909 211.287318 
L 294.676364 204.935686 
L 296.805818 197.87836 
L 298.935273 190.100152 
L 301.330909 180.468844 
L 303.726545 169.883877 
L 306.122182 158.32344 
L 308.784 144.308163 
L 310.913455 132.635695 
L 312.510545 130.180404 
L 314.107636 128.089817 
L 315.704727 126.354326 
L 317.301818 124.964415 
L 318.898909 123.910404 
L 320.229818 123.281775 
L 321.560727 122.874209 
L 322.891636 122.682117 
L 324.222545 122.700027 
L 325.553455 122.922399 
L 326.884364 123.343618 
L 328.481455 124.10371 
L 330.078545 125.132603 
L 331.675636 126.420759 
L 333.538909 128.238358 
L 335.402182 130.380441 
L 337.531636 133.206359 
L 339.661091 136.413512 
L 342.056727 140.44888 
L 344.718545 145.425396 
L 347.380364 150.877599 
L 350.308364 157.371517 
L 353.502545 164.98162 
L 357.229091 174.45385 
L 361.488 185.913032 
L 366.811636 200.921179 
L 376.394182 228.777384 
L 383.581091 249.334601 
L 388.372364 262.394327 
L 392.365091 272.66341 
L 395.825455 280.98789 
L 399.019636 288.108866 
L 401.947636 294.094176 
L 404.609455 299.034009 
L 407.005091 303.033567 
L 409.134545 306.206636 
L 411.264 308.996436 
L 413.127273 311.105188 
L 414.990545 312.887829 
L 416.587636 314.144731 
L 418.184727 315.141258 
L 419.781818 315.867824 
L 421.112727 316.260155 
L 422.443636 316.452801 
L 423.774545 316.440218 
L 425.105455 316.216842 
L 426.436364 315.777136 
L 426.436364 315.777136 
" clip-path="url(#p1d364bb08e)" style="fill: none; stroke: #0000ff; stroke-width: 3; stroke-linecap: square"/>
   </g>
   <g id="patch_3">
    <path d="M 7.2 331.2 
L 7.2 7.2 
" style="fill: none; stroke: #000000; stroke-width: 0.8; stroke-linejoin: miter; stroke-linecap: square"/>
   </g>
   <g id="patch_4">
    <path d="M 446.4 331.2 
L 446.4 7.2 
" style="fill: none; stroke: #000000; stroke-width: 0.8; stroke-linejoin: miter; stroke-linecap: square"/>
   </g>
   <g id="patch_5">
    <path d="M 7.2 331.2 
L 446.4 331.2 
" style="fill: none; stroke: #000000; stroke-width: 0.8; stroke-linejoin: miter; stroke-linecap: square"/>
   </g>
   <g id="patch_6">
    <path d="M 7.2 7.2 
L 446.4 7.2 
" style="fill: none; stroke: #000000; stroke-width: 0.8; stroke-linejoin: miter; stroke-linecap: square"/>
   </g>
  </g>
 </g>
 <defs>
  <clipPath id="p1d364bb08e">
   <rect x="7.2" y="7.2" width="439.2" height="324"/>
  </clipPath>
 </defs>
</svg>
