<?xml version="1.0" encoding="utf-8" standalone="no"?>
<!DOCTYPE svg PUBLIC "-//W3C//DTD SVG 1.1//EN"
  "http://www.w3.org/Graphics/SVG/1.1/DTD/svg11.dtd">
<svg xmlns:xlink="http://www.w3.org/1999/xlink" width="453.6pt" height="338.4pt" viewBox="0 0 453.6 338.4" xmlns="http://www.w3.org/2000/svg" version="1.1">
 <metadata>
  <rdf:RDF xmlns:dc="http://purl.org/dc/elements/1.1/" xmlns:cc="http://creativecommons.org/ns#" xmlns:rdf="http://www.w3.org/1999/02/22-rdf-syntax-ns#">
   <cc:Work>
    <dc:type rdf:resource="http://purl.org/dc/dcmitype/StillImage"/>
    <dc:date>2025-05-14T08:57:41.440956</dc:date>
    <dc:format>image/svg+xml</dc:format>
    <dc:creator>
     <cc:Agent>
      <dc:title>Matplotlib v3.10.1, https://matplotlib.org/</dc:title>
     </cc:Agent>
    </dc:creator>
   </cc:Work>
  </rdf:RDF>
 </metadata>
 <defs>
  <style type="text/css">*{stroke-linejoin: round; stroke-linecap: butt}</style>
 </defs>
 <g id="figure_1">
  <g id="patch_1">
   <path d="M 0 338.4 
L 453.6 338.4 
L 453.6 0 
L 0 0 
z
" style="fill: #ffffff"/>
  </g>
  <g id="axes_1">
   <g id="patch_2">
    <path d="M 7.2 331.2 
L 446.4 331.2 
L 446.4 7.2 
L 7.2 7.2 
z
" style="fill: #ffffff"/>
   </g>
   <g id="matplotlib.axis_1"/>
   <g id="matplotlib.axis_2"/>
   <g id="line2d_1">
    <path d="M 27.163636 218.853865 
L 31.422545 220.590879 
L 35.681455 222.579218 
L 39.940364 224.818942 
L 44.199273 227.310011 
L 48.458182 230.052364 
L 52.983273 233.241588 
L 57.508364 236.714555 
L 62.033455 240.471243 
L 66.558545 244.511694 
L 71.349818 249.099072 
L 76.141091 254.004574 
L 80.932364 259.228188 
L 85.723636 264.769926 
L 90.781091 270.964659 
L 95.838545 277.513799 
L 100.896 284.417397 
L 106.219636 292.067255 
L 111.543273 300.109839 
L 116.866909 308.545157 
L 121.658182 316.472727 
L 122.456727 309.668676 
L 124.586182 291.857334 
L 126.715636 276.017171 
L 128.578909 263.773983 
L 130.442182 253.040007 
L 132.039273 245.04061 
L 133.636364 238.150075 
L 134.967273 233.254852 
L 136.298182 229.129651 
L 137.629091 225.774473 
L 138.693818 223.644704 
L 139.758545 222.007707 
L 140.557091 221.103386 
L 141.355636 220.476257 
L 142.154182 220.126317 
L 142.952727 220.053569 
L 143.751273 220.25803 
L 144.549818 220.739663 
L 145.348364 221.498506 
L 146.146909 222.534559 
L 147.211636 224.347107 
L 148.276364 226.652487 
L 149.341091 229.450639 
L 150.672 233.641336 
L 152.002909 238.601995 
L 153.6 245.571249 
L 155.197091 253.649245 
L 156.794182 262.835963 
L 158.657455 274.955301 
L 160.254545 286.544461 
L 160.520727 286.621818 
L 163.714909 282.833073 
L 166.642909 279.69508 
L 169.570909 276.877513 
L 172.498909 274.380394 
L 175.160727 272.388349 
L 177.822545 270.661132 
L 180.484364 269.198764 
L 183.146182 268.001214 
L 185.808 267.068484 
L 188.203636 266.455469 
L 190.599273 266.056974 
L 192.994909 265.872968 
L 195.390545 265.903492 
L 197.786182 266.148526 
L 200.181818 266.608059 
L 202.577455 267.282112 
L 204.973091 268.170684 
L 207.634909 269.409567 
L 208.433455 269.832866 
L 208.699636 269.680296 
L 210.829091 257.485865 
L 212.958545 246.571178 
L 214.821818 238.070614 
L 216.685091 230.549864 
L 218.548364 224.008869 
L 220.145455 219.182186 
L 221.742545 215.075318 
L 223.073455 212.202855 
L 224.404364 209.830276 
L 225.735273 207.957582 
L 226.8 206.819327 
L 227.864727 206.001039 
L 228.929455 205.502717 
L 229.728 205.338907 
L 230.526545 205.355056 
L 231.325091 205.551183 
L 232.123636 205.927248 
L 233.188364 206.708651 
L 234.253091 207.80996 
L 235.317818 209.231236 
L 236.648727 211.457716 
L 237.979636 214.184101 
L 239.310545 217.410371 
L 240.907636 221.94177 
L 242.504727 227.193044 
L 244.101818 233.164151 
L 245.965091 241.04021 
L 247.828364 249.896143 
L 249.957818 261.216878 
L 251.821091 271.732308 
L 253.684364 273.363424 
L 255.547636 274.674745 
L 257.144727 275.544194 
L 258.741818 276.178747 
L 260.338909 276.578324 
L 261.936 276.742965 
L 263.533091 276.672671 
L 265.130182 276.367431 
L 266.727273 275.827255 
L 268.324364 275.052133 
L 269.921455 274.042055 
L 271.518545 272.797042 
L 273.381818 271.047596 
L 275.245091 268.978354 
L 277.108364 266.589346 
L 279.237818 263.467481 
L 281.367273 259.927957 
L 283.496727 255.970753 
L 285.892364 251.019611 
L 288.288 245.539813 
L 290.683636 239.53154 
L 293.345455 232.235608 
L 296.007273 224.287001 
L 298.935273 214.789793 
L 301.863273 204.503028 
L 304.791273 193.426405 
L 307.985455 180.442286 
L 311.179636 167.321125 
L 314.64 168.016716 
L 318.100364 168.953734 
L 321.560727 170.1321 
L 325.021091 171.551872 
L 328.481455 173.213012 
L 331.941818 175.115499 
L 335.402182 177.259393 
L 339.128727 179.838137 
L 342.855273 182.696856 
L 346.581818 185.835511 
L 350.308364 189.254081 
L 354.301091 193.227473 
L 358.293818 197.522274 
L 362.286545 202.138443 
L 366.545455 207.416544 
L 367.610182 208.807926 
L 369.739636 214.742229 
L 371.602909 219.294806 
L 373.466182 223.250046 
L 375.063273 226.164844 
L 376.660364 228.640706 
L 378.257455 230.677771 
L 379.588364 232.040042 
L 380.919273 233.097613 
L 382.250182 233.850406 
L 383.314909 234.233163 
L 384.379636 234.420895 
L 385.444364 234.413602 
L 386.509091 234.211244 
L 387.573818 233.813821 
L 388.904727 233.042796 
L 390.235636 231.966992 
L 391.566545 230.586429 
L 392.897455 228.901087 
L 394.494545 226.476395 
L 396.091636 223.612828 
L 397.688727 220.310483 
L 399.552 215.903003 
L 401.415273 210.898166 
L 403.278545 205.295991 
L 405.408 198.162126 
L 407.537455 190.24812 
L 409.933091 180.412113 
L 412.328727 169.588818 
L 414.724364 157.778096 
L 417.386182 143.496922 
L 420.048 127.99655 
L 422.976 109.538423 
L 425.904 89.605106 
L 426.436364 85.822312 
L 426.436364 85.822312 
" clip-path="url(#p38fcb85df1)" style="fill: none; stroke-dasharray: 11.1,4.8; stroke-dashoffset: 0; stroke: #000000; stroke-width: 3"/>
   </g>
   <g id="line2d_2">
    <path d="M 27.163636 214.040747 
L 27.429818 219.706234 
L 27.962182 223.367133 
L 28.228364 222.794259 
L 28.494545 222.485072 
L 28.760727 222.368926 
L 29.026909 222.746595 
L 29.293091 221.863231 
L 29.559273 221.491513 
L 29.825455 221.344914 
L 30.091636 221.62531 
L 30.357818 221.009621 
L 30.890182 220.531114 
L 31.156364 220.604564 
L 31.422545 218.943364 
L 31.954909 217.826066 
L 32.221091 217.508725 
L 32.487273 216.548465 
L 33.019636 215.548295 
L 33.285818 215.307108 
L 33.552 214.529813 
L 34.350545 213.877719 
L 34.616727 213.14927 
L 35.149091 212.5336 
L 35.415273 212.280031 
L 35.681455 212.622998 
L 35.947636 212.172541 
L 36.213818 211.966476 
L 36.48 212.000597 
L 36.746182 211.594839 
L 37.278545 211.416623 
L 37.544727 211.524234 
L 37.810909 211.102227 
L 38.609455 211.190062 
L 38.875636 210.68599 
L 39.674182 210.38091 
L 39.940364 209.441828 
L 40.472727 209.393723 
L 40.738909 209.576787 
L 41.005091 209.186416 
L 41.537455 209.046789 
L 41.803636 209.077884 
L 42.069818 208.44244 
L 42.868364 207.838932 
L 43.134545 207.201163 
L 43.933091 206.825478 
L 44.199273 205.645089 
L 44.997818 206.045918 
L 45.264 205.843079 
L 45.796364 205.793572 
L 46.062545 205.853738 
L 46.328727 205.595982 
L 46.594909 205.670474 
L 46.861091 205.6062 
L 47.127273 205.670414 
L 47.393455 205.615717 
L 47.659636 205.93376 
L 47.925818 206.055255 
L 48.192 206.36907 
L 48.458182 205.894731 
L 48.724364 206.319442 
L 50.055273 206.979491 
L 50.321455 207.102068 
L 50.587636 207.05821 
L 51.652364 208.682364 
L 51.918545 209.265516 
L 52.450909 210.00224 
L 52.717091 211.19445 
L 52.983273 211.343614 
L 53.515636 211.829634 
L 53.781818 211.773335 
L 54.314182 211.961027 
L 55.911273 212.815719 
L 56.177455 213.034166 
L 56.709818 213.240211 
L 56.976 213.066784 
L 57.242182 213.264574 
L 58.040727 213.435656 
L 58.573091 213.9011 
L 60.170182 214.706926 
L 60.702545 215.214825 
L 60.968727 215.424136 
L 61.234909 213.940109 
L 62.565818 213.945058 
L 63.098182 213.964853 
L 63.364364 213.811782 
L 64.162909 214.074427 
L 64.429091 213.959544 
L 64.961455 214.11548 
L 65.227636 214.283797 
L 65.493818 214.236854 
L 66.026182 214.60148 
L 67.090909 215.046848 
L 67.623273 215.334036 
L 69.220364 215.973107 
L 69.486545 216.211168 
L 69.752727 216.169054 
L 70.817455 216.60731 
L 71.083636 216.716142 
L 72.414545 216.555297 
L 72.946909 216.807163 
L 74.810182 218.027964 
L 75.608727 218.146213 
L 76.141091 218.447787 
L 76.673455 218.829683 
L 77.205818 219.132398 
L 77.738182 219.676461 
L 78.004364 219.946158 
L 78.270545 219.91901 
L 78.536727 220.039604 
L 79.069091 220.008469 
L 79.335273 220.056894 
L 79.867636 220.402706 
L 80.133818 220.53446 
L 80.4 220.538547 
L 81.464727 221.078502 
L 81.997091 221.464305 
L 82.529455 221.809817 
L 83.061818 222.279528 
L 84.126545 222.777349 
L 86.256 223.604833 
L 86.788364 223.866436 
L 87.054545 223.999993 
L 88.385455 224.134892 
L 89.982545 224.380727 
L 90.781091 224.917757 
L 91.579636 225.29214 
L 92.378182 225.486063 
L 93.176727 225.463703 
L 95.04 226.277964 
L 95.306182 225.766599 
L 95.572364 225.864112 
L 96.903273 225.783269 
L 97.968 226.034974 
L 98.500364 226.292951 
L 99.298909 226.769334 
L 100.097455 227.025387 
L 101.428364 227.46226 
L 102.226909 228.043769 
L 103.557818 229.051433 
L 104.888727 229.748767 
L 108.349091 232.416628 
L 109.147636 232.825872 
L 109.68 233.181822 
L 110.478545 233.605252 
L 112.075636 234.362833 
L 112.341818 234.299861 
L 115.269818 235.815363 
L 116.600727 236.883153 
L 119.262545 238.796399 
L 120.061091 239.423649 
L 121.125818 239.531279 
L 121.924364 239.389048 
L 122.456727 239.307143 
L 123.787636 238.980525 
L 124.32 238.947526 
L 124.852364 238.800767 
L 126.183273 239.128266 
L 127.780364 240.067248 
L 129.643636 240.665306 
L 142.154182 241.871441 
L 149.607273 243.02332 
L 150.938182 243.426613 
L 158.657455 245.086952 
L 167.175273 245.502247 
L 167.973818 245.551494 
L 179.952 246.128094 
L 180.750545 246.160431 
L 206.304 246.408791 
L 208.699636 246.281025 
L 212.958545 245.620636 
L 215.354182 245.301131 
L 220.145455 244.946483 
L 221.742545 244.89407 
L 223.872 244.739016 
L 226.001455 244.673199 
L 227.598545 244.538842 
L 229.994182 244.519828 
L 232.389818 244.346541 
L 233.454545 244.312461 
L 235.850182 244.192148 
L 243.835636 244.825108 
L 248.626909 245.087473 
L 252.087273 245.43643 
L 253.684364 245.635963 
L 256.346182 245.676435 
L 257.144727 245.784326 
L 260.605091 245.776993 
L 261.669818 245.785788 
L 263.533091 245.614585 
L 264.331636 245.686473 
L 268.058182 245.277749 
L 268.856727 245.229824 
L 270.187636 245.034058 
L 272.583273 244.7412 
L 282.964364 243.681805 
L 284.827636 243.394376 
L 286.424727 243.166293 
L 288.554182 242.67869 
L 289.885091 242.332297 
L 291.748364 241.74636 
L 293.345455 241.277911 
L 294.410182 240.962492 
L 295.741091 240.683979 
L 297.072 240.490277 
L 306.122182 239.252867 
L 306.654545 239.128647 
L 307.985455 238.879145 
L 309.316364 238.652965 
L 310.647273 238.577511 
L 314.373818 238.817236 
L 315.704727 239.183464 
L 316.237091 239.401249 
L 317.568 239.630335 
L 327.150545 241.181219 
L 333.006545 241.816544 
L 335.402182 241.069081 
L 336.733091 240.702873 
L 337.531636 240.519869 
L 340.459636 239.547548 
L 343.653818 239.033358 
L 345.250909 239.106187 
L 347.114182 238.790909 
L 352.437818 238.06268 
L 353.502545 238.053143 
L 354.833455 237.990232 
L 356.430545 237.44074 
L 357.229091 237.34505 
L 358.293818 237.20935 
L 358.56 237.750167 
L 360.423273 237.201336 
L 361.754182 237.343447 
L 362.552727 237.216463 
L 362.818909 237.18667 
L 364.149818 236.561484 
L 364.682182 236.453613 
L 368.142545 236.507528 
L 368.674909 236.425683 
L 370.272 236.53141 
L 370.804364 236.47493 
L 371.336727 236.574066 
L 372.135273 236.469962 
L 372.667636 236.280386 
L 373.2 236.172796 
L 373.998545 236.006221 
L 375.595636 235.650772 
L 376.660364 235.185989 
L 377.458909 234.581119 
L 378.257455 234.268486 
L 381.717818 233.696032 
L 382.782545 234.084099 
L 383.581091 234.415185 
L 384.379636 234.679753 
L 385.710545 234.648117 
L 388.372364 235.334713 
L 392.098909 234.207578 
L 392.365091 234.238713 
L 392.631273 235.46905 
L 396.091636 234.042766 
L 397.156364 233.739249 
L 398.221091 232.855825 
L 400.882909 230.650603 
L 401.149091 229.996325 
L 403.012364 227.802623 
L 403.544727 227.393118 
L 405.408 224.93663 
L 406.206545 223.375948 
L 406.472727 223.067482 
L 407.005091 222.081918 
L 407.803636 220.992711 
L 409.134545 218.273959 
L 409.400727 217.843878 
L 409.666909 218.338393 
L 412.861091 212.005285 
L 413.659636 209.328428 
L 413.925818 209.960887 
L 414.724364 206.622859 
L 414.990545 205.890964 
L 415.522909 203.167504 
L 416.587636 197.639661 
L 417.386182 192.910432 
L 417.652364 190.708635 
L 417.918545 189.761058 
L 418.184727 176.642702 
L 418.983273 167.192858 
L 419.249455 165.661808 
L 420.048 158.683619 
L 420.580364 154.880207 
L 422.177455 141.629557 
L 422.443636 141.416961 
L 422.976 135.566747 
L 423.242182 133.071391 
L 423.508364 135.106453 
L 423.774545 133.309252 
L 424.040727 133.239509 
L 424.306909 133.409489 
L 424.573091 135.230632 
L 424.839273 134.209585 
L 425.105455 133.713948 
L 425.371636 134.002058 
L 425.637818 135.494379 
L 425.904 133.553424 
L 426.170182 127.963471 
L 426.436364 99.290467 
L 426.436364 99.290467 
" clip-path="url(#p38fcb85df1)" style="fill: none; stroke-dasharray: 3,4.95; stroke-dashoffset: 0; stroke: #ffa500; stroke-width: 3"/>
   </g>
   <g id="line2d_3">
    <path d="M 27.163636 235.844655 
L 27.429818 254.498227 
L 27.962182 262.817831 
L 28.228364 262.792747 
L 28.760727 262.011604 
L 29.026909 262.352608 
L 29.825455 253.660104 
L 30.091636 249.299988 
L 30.357818 237.702343 
L 30.624 236.505184 
L 30.890182 237.572433 
L 31.156364 241.5429 
L 31.422545 238.53718 
L 31.954909 240.176 
L 32.221091 239.217264 
L 32.487273 233.501548 
L 33.019636 234.608788 
L 33.285818 234.602296 
L 33.552 231.775934 
L 33.818182 233.076316 
L 34.084364 233.774271 
L 34.350545 234.110466 
L 34.616727 232.648919 
L 34.882909 233.60437 
L 35.149091 233.792303 
L 35.415273 234.460125 
L 35.681455 236.998217 
L 36.48 233.093626 
L 37.012364 221.843957 
L 37.544727 211.396989 
L 37.810909 200.884784 
L 38.077091 200.898088 
L 38.343273 202.394015 
L 38.609455 205.853017 
L 38.875636 207.664463 
L 39.141818 215.845341 
L 39.940364 230.268066 
L 40.206545 230.237852 
L 40.738909 230.838034 
L 41.005091 229.60946 
L 41.271273 229.527716 
L 41.803636 229.916163 
L 42.069818 228.614259 
L 42.336 228.487314 
L 42.868364 227.641978 
L 43.134545 226.284536 
L 43.400727 226.036898 
L 43.666909 225.257839 
L 43.933091 225.500909 
L 44.199273 227.867818 
L 44.731636 228.04429 
L 44.997818 228.355802 
L 45.264 227.602388 
L 45.796364 227.275329 
L 46.062545 227.266193 
L 46.328727 226.263619 
L 46.594909 226.237252 
L 46.861091 225.957477 
L 47.127273 225.926703 
L 47.393455 225.362264 
L 47.659636 225.814504 
L 47.925818 225.864833 
L 48.192 226.463012 
L 48.458182 226.430474 
L 48.724364 227.216986 
L 49.256727 228.01015 
L 49.522909 227.687579 
L 50.321455 228.398116 
L 50.587636 228.017042 
L 51.652364 230.491581 
L 51.918545 231.533906 
L 52.184727 232.047856 
L 52.450909 232.893672 
L 52.717091 236.261553 
L 52.983273 236.545495 
L 53.515636 237.512567 
L 53.781818 237.19216 
L 54.048 237.245374 
L 54.580364 237.676537 
L 54.846545 237.400288 
L 55.645091 238.403343 
L 55.911273 238.454474 
L 56.177455 238.91008 
L 56.443636 238.963695 
L 57.242182 239.948798 
L 58.040727 240.086642 
L 58.573091 240.892869 
L 58.839273 241.094025 
L 59.105455 241.077836 
L 59.637818 241.779959 
L 60.170182 242.048514 
L 60.436364 242.684119 
L 61.234909 243.175389 
L 61.767273 243.109272 
L 62.033455 243.10831 
L 62.299636 242.774679 
L 62.832 243.10831 
L 63.098182 243.045399 
L 63.364364 242.649258 
L 63.896727 243.084187 
L 64.162909 243.181079 
L 64.429091 242.963814 
L 65.493818 243.776132 
L 66.026182 244.466073 
L 66.292364 244.616419 
L 66.558545 244.609767 
L 67.889455 245.903737 
L 68.688 246.242176 
L 69.220364 246.880105 
L 69.752727 247.441098 
L 70.285091 247.747801 
L 71.083636 248.182089 
L 71.349818 248.173514 
L 72.148364 247.862884 
L 72.414545 247.826019 
L 72.680727 247.934291 
L 73.745455 248.846225 
L 74.277818 249.993054 
L 74.810182 250.205671 
L 75.076364 250.221218 
L 76.141091 250.821801 
L 76.407273 251.332865 
L 77.205818 251.903075 
L 77.472 252.431049 
L 78.004364 253.012318 
L 78.270545 253.389706 
L 78.536727 253.554317 
L 79.335273 253.240161 
L 79.867636 253.766292 
L 80.133818 253.821109 
L 80.4 253.608092 
L 80.932364 253.964964 
L 81.464727 254.215086 
L 81.730909 254.627416 
L 82.529455 255.07068 
L 83.061818 255.56796 
L 83.860364 255.880674 
L 84.126545 256.105792 
L 84.658909 256.079826 
L 85.191273 256.682573 
L 85.723636 256.656767 
L 85.989818 256.897273 
L 86.256 256.94632 
L 86.788364 256.799019 
L 87.320727 256.859286 
L 87.853091 256.667186 
L 88.385455 257.325391 
L 88.917818 256.979579 
L 89.184 257.263521 
L 89.982545 257.082 
L 90.248727 257.383894 
L 90.514909 257.236513 
L 90.781091 256.937584 
L 91.579636 257.119346 
L 91.845818 257.026943 
L 92.112 257.075909 
L 92.644364 257.755592 
L 92.910545 257.450813 
L 93.176727 257.44929 
L 93.442909 257.987042 
L 93.709091 258.089784 
L 93.975273 257.939037 
L 94.241455 258.038493 
L 94.507636 258.412755 
L 95.04 258.496503 
L 95.306182 261.441074 
L 95.572364 261.635418 
L 96.370909 261.481145 
L 96.903273 261.933065 
L 97.169455 261.85685 
L 97.435636 261.94116 
L 97.701818 262.263169 
L 98.234182 262.365671 
L 99.032727 263.17863 
L 99.298909 263.098087 
L 99.565091 263.361113 
L 100.097455 263.459767 
L 100.363636 263.440132 
L 101.162182 264.355352 
L 101.428364 264.33155 
L 101.694545 264.681129 
L 102.226909 265.603962 
L 102.493091 265.912107 
L 103.025455 266.911235 
L 104.622545 267.562788 
L 105.687273 269.344422 
L 106.219636 270.524991 
L 106.752 271.168129 
L 107.284364 272.31592 
L 107.816727 272.739149 
L 108.349091 273.336767 
L 108.615273 273.363374 
L 108.881455 273.591137 
L 109.413818 274.373642 
L 109.68 273.719284 
L 109.946182 271.37762 
L 110.212364 266.347598 
L 110.744727 241.823797 
L 111.010909 240.426925 
L 111.543273 241.276909 
L 112.075636 241.250141 
L 112.341818 240.42981 
L 112.608 240.233382 
L 113.406545 238.993187 
L 113.672727 239.041673 
L 113.938909 238.710687 
L 114.737455 235.503571 
L 116.334545 225.302879 
L 116.866909 223.609001 
L 117.133091 223.173029 
L 117.399273 222.980128 
L 118.197818 223.531343 
L 118.464 223.706533 
L 120.061091 226.014458 
L 121.125818 226.397937 
L 121.658182 226.318356 
L 122.190545 226.426467 
L 122.722909 226.239176 
L 123.255273 226.367723 
L 123.787636 226.130423 
L 124.32 226.238935 
L 124.852364 226.03273 
L 125.917091 226.585549 
L 127.248 228.506869 
L 127.780364 229.420566 
L 128.312727 230.044791 
L 128.845091 230.757732 
L 129.111273 231.059707 
L 129.377455 232.722089 
L 130.974545 235.089318 
L 131.506909 235.826864 
L 132.039273 236.617623 
L 132.305455 236.809402 
L 132.837818 237.478587 
L 133.370182 237.522985 
L 133.902545 238.152179 
L 134.168727 238.218937 
L 135.233455 239.191137 
L 135.499636 239.298367 
L 136.564364 240.126072 
L 137.362909 240.649158 
L 137.629091 240.68442 
L 139.492364 241.709675 
L 140.024727 241.847919 
L 140.557091 242.303526 
L 141.089455 242.68468 
L 141.355636 242.960689 
L 142.686545 243.395699 
L 143.485091 243.91646 
L 145.880727 245.287687 
L 146.146909 245.363822 
L 146.679273 245.80372 
L 147.744 246.622129 
L 148.010182 246.86015 
L 148.542545 247.070121 
L 148.808727 247.364082 
L 149.607273 247.727204 
L 149.873455 248.051859 
L 150.672 248.578871 
L 151.204364 248.960908 
L 151.470545 249.00739 
L 152.269091 249.57247 
L 152.535273 249.559968 
L 154.398545 250.795034 
L 154.664727 250.828853 
L 155.197091 251.181157 
L 155.995636 251.592044 
L 156.528 252.070331 
L 157.060364 252.378957 
L 157.592727 252.837047 
L 157.858909 252.944277 
L 158.657455 253.565857 
L 158.923636 253.601761 
L 159.456 254.003592 
L 161.851636 254.564344 
L 162.384 254.502956 
L 162.916364 254.633346 
L 163.182545 254.518663 
L 163.981091 254.5278 
L 164.513455 254.294186 
L 164.779636 254.254276 
L 166.642909 252.9232 
L 167.175273 252.993645 
L 167.441455 252.80467 
L 167.973818 253.170117 
L 168.24 253.101676 
L 168.506182 252.818054 
L 169.038545 252.90084 
L 169.304727 252.734706 
L 169.570909 252.421031 
L 170.103273 252.440185 
L 170.635636 252.003172 
L 170.901818 251.915897 
L 171.434182 252.15504 
L 171.700364 251.794562 
L 172.232727 252.280783 
L 172.498909 252.222039 
L 172.765091 251.807866 
L 173.297455 251.84938 
L 173.563636 251.609916 
L 173.829818 251.155592 
L 174.362182 250.836547 
L 174.894545 250.113027 
L 175.160727 249.994417 
L 175.693091 250.269944 
L 175.959273 249.86659 
L 176.225455 250.022546 
L 176.491636 250.314583 
L 176.757818 250.306489 
L 177.024 249.921327 
L 177.556364 250.146766 
L 177.822545 249.975503 
L 178.088727 249.564856 
L 178.621091 249.476781 
L 179.153455 248.996811 
L 179.419636 248.857685 
L 179.952 248.980783 
L 180.218182 248.620225 
L 180.750545 249.223773 
L 181.016727 249.201814 
L 181.282909 248.950569 
L 181.815273 249.109971 
L 182.613818 248.649797 
L 182.88 248.530786 
L 183.146182 248.174957 
L 183.678545 247.993916 
L 184.210909 248.09185 
L 184.477091 247.914416 
L 185.009455 248.248687 
L 185.275636 248.192187 
L 185.541818 248.013711 
L 186.074182 248.173434 
L 186.606545 247.784666 
L 186.872727 247.819928 
L 187.138909 247.74187 
L 187.405091 247.54376 
L 189.002182 247.494392 
L 189.268364 247.659164 
L 190.599273 247.744114 
L 190.865455 247.657801 
L 191.131636 247.732494 
L 192.462545 247.458889 
L 192.728727 247.546324 
L 192.994909 247.451997 
L 193.793455 247.584792 
L 194.059636 247.523323 
L 194.592 247.654836 
L 195.656727 247.384438 
L 195.922909 247.224154 
L 198.318545 247.143291 
L 198.850909 247.219426 
L 200.181818 246.927309 
L 202.045091 246.813187 
L 203.908364 246.638798 
L 205.239273 246.250351 
L 208.167273 245.829285 
L 212.16 243.934652 
L 213.224727 243.015987 
L 214.023273 242.368681 
L 215.620364 241.552597 
L 216.685091 241.17016 
L 218.814545 240.318332 
L 219.613091 240.193071 
L 220.944 240.217434 
L 221.476364 240.107319 
L 223.073455 239.422186 
L 224.138182 239.45817 
L 224.670545 239.555623 
L 225.735273 239.224957 
L 226.8 238.632709 
L 227.598545 238.414403 
L 229.195636 238.61043 
L 229.728 238.365436 
L 231.591273 237.206505 
L 232.123636 237.052072 
L 232.922182 237.232231 
L 233.454545 236.941556 
L 233.986909 236.552468 
L 234.519273 236.001813 
L 235.051636 235.83616 
L 235.584 235.88136 
L 237.447273 237.513609 
L 237.979636 237.722218 
L 238.512 237.907345 
L 239.044364 238.068431 
L 240.907636 239.303496 
L 241.706182 239.868015 
L 242.238545 239.915059 
L 242.770909 240.075342 
L 243.303273 240.026776 
L 244.900364 240.590895 
L 245.432727 240.822344 
L 245.965091 241.213677 
L 246.497455 241.071345 
L 247.029818 241.11943 
L 247.562182 240.959788 
L 248.626909 241.143793 
L 250.224 242.491058 
L 250.756364 242.491458 
L 251.022545 242.676185 
L 251.288727 242.725553 
L 251.554909 242.623612 
L 251.821091 242.643648 
L 252.353455 242.903467 
L 252.619636 242.915409 
L 254.482909 244.439225 
L 255.015273 244.231337 
L 255.547636 244.435779 
L 255.813818 244.304026 
L 256.08 244.310758 
L 256.612364 244.570578 
L 256.878545 244.529625 
L 257.677091 244.890103 
L 258.209455 244.923923 
L 258.741818 245.198168 
L 259.274182 245.06329 
L 259.806545 245.341702 
L 260.338909 245.277669 
L 260.871273 245.453901 
L 261.403636 245.43098 
L 261.669818 245.520419 
L 262.468364 245.338737 
L 263.000727 245.591344 
L 263.533091 245.367188 
L 264.065455 245.573954 
L 264.597818 245.292095 
L 265.130182 245.309085 
L 265.662545 244.99557 
L 266.194909 244.836809 
L 266.727273 244.535876 
L 267.259636 244.574184 
L 267.792 244.297855 
L 268.324364 244.336964 
L 269.122909 244.007662 
L 269.655273 243.809791 
L 270.986182 243.195745 
L 275.245091 242.105655 
L 275.777455 241.677458 
L 276.309818 241.614226 
L 276.842182 241.279954 
L 277.108364 241.371156 
L 278.439273 241.064613 
L 278.971636 240.6845 
L 279.237818 240.631286 
L 280.036364 239.91586 
L 280.302545 239.918024 
L 281.367273 239.57662 
L 281.899636 239.293318 
L 282.698182 238.88195 
L 283.230545 238.44678 
L 284.029091 238.00584 
L 285.626182 237.634943 
L 286.957091 237.133656 
L 288.021818 236.712511 
L 288.820364 236.571461 
L 289.618909 236.154724 
L 291.216 235.514471 
L 291.482182 235.284704 
L 292.014545 235.092604 
L 292.813091 234.452271 
L 293.079273 234.281008 
L 293.877818 233.361781 
L 295.474909 232.244283 
L 295.741091 231.965309 
L 296.273455 231.697636 
L 297.072 230.862959 
L 297.338182 230.720547 
L 298.136727 229.91993 
L 298.402909 229.838105 
L 299.733818 228.679334 
L 300 228.271733 
L 300.532364 227.974487 
L 301.064727 227.368775 
L 301.597091 227.302017 
L 302.129455 226.716741 
L 302.661818 226.600295 
L 303.194182 225.90274 
L 303.460364 225.748387 
L 303.726545 225.451542 
L 304.258909 224.491523 
L 304.525091 224.470365 
L 304.791273 224.334445 
L 305.323636 223.449839 
L 305.856 223.403918 
L 306.122182 223.027412 
L 306.388364 222.391166 
L 306.920727 222.02091 
L 307.186909 221.519783 
L 307.453091 220.542935 
L 307.985455 220.104559 
L 308.517818 219.126748 
L 309.050182 218.891692 
L 309.582545 218.309542 
L 309.848727 218.275241 
L 310.114909 218.431358 
L 310.913455 218.077131 
L 311.179636 218.296559 
L 312.776727 218.186444 
L 313.841455 218.908282 
L 314.107636 219.119455 
L 314.64 220.039804 
L 315.172364 220.921445 
L 315.704727 221.959922 
L 316.769455 223.255655 
L 317.035636 223.34838 
L 318.366545 224.677532 
L 318.632727 225.219852 
L 319.431273 225.943532 
L 319.697455 226.471747 
L 321.294545 227.882965 
L 322.093091 228.966643 
L 323.157818 229.706191 
L 323.424 229.619318 
L 323.690182 229.723181 
L 323.956364 230.112751 
L 324.222545 230.28714 
L 324.488727 231.843895 
L 324.754909 231.955853 
L 325.287273 232.333721 
L 325.819636 232.500256 
L 326.085818 232.70013 
L 326.884364 232.750379 
L 327.416727 233.100118 
L 327.949091 233.166075 
L 328.481455 233.722579 
L 329.28 234.263938 
L 330.877091 234.918456 
L 331.143273 234.797041 
L 331.675636 235.08491 
L 333.006545 235.349058 
L 333.272727 235.137724 
L 333.805091 234.964457 
L 334.337455 234.280527 
L 335.136 233.337979 
L 335.402182 232.770254 
L 336.999273 231.170703 
L 337.265455 230.973073 
L 339.927273 226.679074 
L 341.790545 224.650204 
L 342.322909 223.884849 
L 342.855273 223.359519 
L 343.121455 223.293082 
L 343.653818 223.673996 
L 344.186182 224.222006 
L 344.718545 224.861377 
L 344.984727 225.073513 
L 347.114182 225.390153 
L 348.178909 225.594274 
L 348.711273 225.132737 
L 349.776 223.665581 
L 350.308364 223.533267 
L 351.639273 222.805659 
L 352.171636 222.792836 
L 352.970182 222.735375 
L 353.502545 222.479402 
L 354.034909 222.390605 
L 354.301091 222.264622 
L 354.833455 222.411602 
L 355.365818 221.780886 
L 355.632 221.411031 
L 356.164364 221.068905 
L 356.696727 220.454298 
L 356.962909 220.374076 
L 358.027636 219.39338 
L 358.293818 218.927916 
L 358.56 220.990126 
L 359.358545 220.007667 
L 359.890909 219.117452 
L 360.157091 218.983375 
L 360.955636 219.47801 
L 361.754182 220.24641 
L 362.020364 220.089412 
L 362.552727 219.978335 
L 362.818909 219.849307 
L 363.617455 218.888006 
L 363.883636 218.696146 
L 364.149818 218.269471 
L 364.416 218.191493 
L 364.682182 218.250077 
L 365.746909 218.819965 
L 366.013091 218.859155 
L 366.279273 218.735416 
L 366.545455 218.734694 
L 366.811636 218.96927 
L 367.077818 218.747677 
L 367.344 218.761382 
L 367.610182 219.030979 
L 368.142545 219.225243 
L 368.408727 219.112323 
L 369.207273 219.710902 
L 369.473455 219.673476 
L 370.005818 219.977053 
L 370.272 219.906208 
L 370.538182 219.579229 
L 370.804364 219.637172 
L 371.336727 219.991238 
L 371.602909 219.836084 
L 372.135273 219.977294 
L 372.401455 219.99204 
L 372.667636 219.552542 
L 372.933818 219.39891 
L 373.466182 219.450682 
L 373.998545 218.996678 
L 374.264727 218.834231 
L 374.530909 218.891853 
L 375.329455 217.854256 
L 375.861818 212.919523 
L 376.128 212.155771 
L 376.660364 211.254015 
L 377.192727 209.998353 
L 377.991273 208.672487 
L 378.523636 208.413789 
L 379.056 207.876518 
L 379.588364 208.065893 
L 380.120727 207.766003 
L 380.386909 207.930694 
L 380.653091 207.891825 
L 381.185455 207.271768 
L 382.250182 208.33517 
L 382.782545 209.297112 
L 383.048727 209.728355 
L 383.314909 209.861631 
L 383.847273 210.583869 
L 384.113455 210.65784 
L 384.379636 210.509498 
L 384.912 210.509097 
L 385.178182 210.678998 
L 385.444364 210.48802 
L 385.976727 210.763387 
L 386.242909 211.18317 
L 386.775273 211.59574 
L 387.041455 211.846264 
L 387.307636 212.272859 
L 388.106182 212.264604 
L 388.372364 212.807244 
L 389.170909 212.241363 
L 389.437091 212.221167 
L 389.703273 212.038524 
L 390.501818 211.970884 
L 390.768 211.859247 
L 391.034182 211.622427 
L 391.300364 211.101105 
L 391.566545 210.961017 
L 391.832727 210.50509 
L 392.098909 210.525847 
L 392.365091 209.895211 
L 392.631273 215.108196 
L 393.696 213.750995 
L 393.962182 213.248265 
L 395.559273 211.990759 
L 395.825455 211.990439 
L 396.091636 211.84995 
L 396.357818 211.981383 
L 396.890182 211.64086 
L 397.688727 211.043964 
L 398.221091 210.663611 
L 399.019636 212.866629 
L 399.285818 213.888277 
L 399.552 215.813284 
L 400.084364 218.283496 
L 400.350545 217.711764 
L 400.616727 217.842716 
L 400.882909 214.272317 
L 401.149091 203.771734 
L 402.213818 200.158459 
L 402.48 198.867695 
L 402.746182 198.803181 
L 403.012364 198.293478 
L 403.278545 198.319525 
L 403.544727 198.054095 
L 403.810909 198.619335 
L 404.077091 198.571731 
L 404.343273 199.857526 
L 404.609455 199.371546 
L 404.875636 200.706629 
L 405.141818 200.830849 
L 405.408 196.432986 
L 405.674182 195.506546 
L 405.940364 198.144575 
L 406.206545 202.717869 
L 407.005091 236.937068 
L 407.537455 245.744415 
L 407.803636 245.617711 
L 408.069818 247.270396 
L 408.336 247.869376 
L 408.602182 249.621517 
L 408.868364 248.266158 
L 409.134545 247.517713 
L 409.400727 244.812446 
L 409.666909 218.749761 
L 409.933091 217.324439 
L 410.465455 221.204425 
L 410.997818 225.055801 
L 411.264 229.456149 
L 411.796364 233.038328 
L 412.062545 233.328442 
L 412.328727 234.651023 
L 412.861091 234.346884 
L 413.127273 232.825872 
L 413.393455 232.145629 
L 413.659636 230.828738 
L 414.192 225.414276 
L 414.458182 225.408986 
L 414.724364 224.595947 
L 414.990545 224.790532 
L 415.256727 222.219021 
L 415.522909 222.065469 
L 415.789091 221.029155 
L 416.055273 220.743369 
L 416.587636 216.458907 
L 417.12 212.435226 
L 417.918545 203.66234 
L 418.184727 173.386359 
L 418.983273 150.897118 
L 419.249455 147.257798 
L 420.048 128.036581 
L 420.314182 124.121011 
L 421.112727 100.791243 
L 421.378909 95.805219 
L 422.177455 65.534767 
L 422.443636 63.043278 
L 422.709818 45.481758 
L 423.242182 27.269928 
L 423.508364 39.862574 
L 423.774545 34.28342 
L 424.040727 39.579192 
L 424.306909 48.708269 
L 424.573091 70.718221 
L 424.839273 71.049888 
L 425.371636 82.901823 
L 425.637818 92.27433 
L 425.904 89.293775 
L 426.170182 79.177472 
L 426.436364 21.927273 
L 426.436364 21.927273 
" clip-path="url(#p38fcb85df1)" style="fill: none; stroke: #ffa500; stroke-width: 3; stroke-linecap: square"/>
   </g>
   <g id="patch_3">
    <path d="M 7.2 331.2 
L 7.2 7.2 
" style="fill: none; stroke: #000000; stroke-width: 0.8; stroke-linejoin: miter; stroke-linecap: square"/>
   </g>
   <g id="patch_4">
    <path d="M 446.4 331.2 
L 446.4 7.2 
" style="fill: none; stroke: #000000; stroke-width: 0.8; stroke-linejoin: miter; stroke-linecap: square"/>
   </g>
   <g id="patch_5">
    <path d="M 7.2 331.2 
L 446.4 331.2 
" style="fill: none; stroke: #000000; stroke-width: 0.8; stroke-linejoin: miter; stroke-linecap: square"/>
   </g>
   <g id="patch_6">
    <path d="M 7.2 7.2 
L 446.4 7.2 
" style="fill: none; stroke: #000000; stroke-width: 0.8; stroke-linejoin: miter; stroke-linecap: square"/>
   </g>
  </g>
 </g>
 <defs>
  <clipPath id="p38fcb85df1">
   <rect x="7.2" y="7.2" width="439.2" height="324"/>
  </clipPath>
 </defs>
</svg>
