<?xml version="1.0" encoding="utf-8" standalone="no"?>
<!DOCTYPE svg PUBLIC "-//W3C//DTD SVG 1.1//EN"
  "http://www.w3.org/Graphics/SVG/1.1/DTD/svg11.dtd">
<svg xmlns:xlink="http://www.w3.org/1999/xlink" width="453.6pt" height="338.4pt" viewBox="0 0 453.6 338.4" xmlns="http://www.w3.org/2000/svg" version="1.1">
 <metadata>
  <rdf:RDF xmlns:dc="http://purl.org/dc/elements/1.1/" xmlns:cc="http://creativecommons.org/ns#" xmlns:rdf="http://www.w3.org/1999/02/22-rdf-syntax-ns#">
   <cc:Work>
    <dc:type rdf:resource="http://purl.org/dc/dcmitype/StillImage"/>
    <dc:date>2025-05-14T08:49:33.844009</dc:date>
    <dc:format>image/svg+xml</dc:format>
    <dc:creator>
     <cc:Agent>
      <dc:title>Matplotlib v3.10.1, https://matplotlib.org/</dc:title>
     </cc:Agent>
    </dc:creator>
   </cc:Work>
  </rdf:RDF>
 </metadata>
 <defs>
  <style type="text/css">*{stroke-linejoin: round; stroke-linecap: butt}</style>
 </defs>
 <g id="figure_1">
  <g id="patch_1">
   <path d="M 0 338.4 
L 453.6 338.4 
L 453.6 0 
L 0 0 
z
" style="fill: #ffffff"/>
  </g>
  <g id="axes_1">
   <g id="patch_2">
    <path d="M 7.2 331.2 
L 446.4 331.2 
L 446.4 7.2 
L 7.2 7.2 
z
" style="fill: #ffffff"/>
   </g>
   <g id="matplotlib.axis_1"/>
   <g id="matplotlib.axis_2"/>
   <g id="line2d_1">
    <path d="M 27.163636 212.976227 
L 29.825455 215.482615 
L 32.487273 217.698611 
L 35.415273 219.834425 
L 38.343273 221.690337 
L 41.537455 223.439793 
L 44.997818 225.065795 
L 48.990545 226.672797 
L 54.048 228.43666 
L 66.558545 232.67329 
L 70.551273 234.34056 
L 74.011636 236.036882 
L 77.205818 237.86607 
L 80.133818 239.807672 
L 82.795636 241.825039 
L 85.457455 244.111781 
L 88.119273 246.695986 
L 90.781091 249.605805 
L 93.442909 252.869337 
L 96.104727 256.514734 
L 98.766545 260.570095 
L 101.428364 265.063596 
L 104.090182 270.0233 
L 106.752 275.47737 
L 109.413818 281.453944 
L 112.075636 287.981096 
L 114.737455 295.087022 
L 117.399273 302.799802 
L 120.061091 311.147581 
L 121.658182 316.472727 
L 122.190545 309.100731 
L 124.32 277.867038 
L 126.449455 249.789577 
L 128.578909 224.847201 
L 130.442182 205.578014 
L 132.305455 188.679007 
L 133.902545 176.069726 
L 135.499636 165.18264 
L 136.830545 157.41911 
L 138.161455 150.840175 
L 139.492364 145.440679 
L 140.557091 141.966801 
L 141.621818 139.241856 
L 142.420364 137.688064 
L 143.218909 136.55291 
L 144.017455 135.835344 
L 144.549818 135.588386 
L 145.082182 135.526203 
L 145.614545 135.648467 
L 146.146909 135.954805 
L 146.945455 136.758788 
L 147.744 137.975176 
L 148.542545 139.602842 
L 149.607273 142.410899 
L 150.672 145.945459 
L 151.736727 150.203994 
L 153.067636 156.541128 
L 153.6 159.093915 
L 155.197091 161.93036 
L 157.060364 165.705194 
L 159.189818 170.547339 
L 161.585455 176.542012 
L 164.779636 185.186065 
L 171.168 203.375198 
L 175.160727 214.331602 
L 177.822545 221.040412 
L 180.218182 226.471826 
L 182.081455 230.199258 
L 183.944727 233.414713 
L 185.541818 235.709842 
L 186.872727 237.263484 
L 188.203636 238.463425 
L 189.268364 239.151451 
L 190.333091 239.583496 
L 191.397818 239.746428 
L 192.462545 239.627067 
L 193.527273 239.212296 
L 194.592 238.488959 
L 195.656727 237.443877 
L 196.721455 236.063918 
L 197.786182 234.335941 
L 199.117091 231.666509 
L 200.448 228.407032 
L 201.778909 224.531839 
L 203.109818 220.015206 
L 204.706909 213.712493 
L 206.304 206.404702 
L 207.901091 198.047536 
L 209.498182 188.596646 
L 211.361455 176.128868 
L 213.224727 162.04151 
L 213.757091 158.62173 
L 215.088 162.601915 
L 216.418909 165.81011 
L 217.483636 167.84818 
L 218.548364 169.439197 
L 219.613091 170.604016 
L 220.411636 171.210507 
L 221.210182 171.597804 
L 222.008727 171.774767 
L 222.807273 171.750209 
L 223.605818 171.532867 
L 224.670545 170.958568 
L 225.735273 170.078133 
L 226.8 168.912538 
L 228.130909 167.086304 
L 229.461818 164.887918 
L 231.058909 161.815981 
L 232.922182 157.723094 
L 235.051636 152.511326 
L 237.979636 144.710321 
L 246.231273 122.312934 
L 248.360727 117.28271 
L 250.224 113.396276 
L 251.821091 110.53685 
L 253.152 108.540437 
L 254.482909 106.938905 
L 255.547636 105.969349 
L 256.612364 105.299522 
L 257.410909 105.006403 
L 258.209455 104.902463 
L 259.008 104.996489 
L 259.806545 105.297294 
L 260.605091 105.81369 
L 261.403636 106.554487 
L 262.468364 107.906458 
L 263.533091 109.694015 
L 264.597818 111.937912 
L 265.662545 114.659052 
L 266.993455 118.763529 
L 268.324364 123.687184 
L 269.655273 129.470798 
L 270.986182 136.1552 
L 272.583273 145.423156 
L 274.180364 156.117182 
L 274.712727 159.767222 
L 276.043636 157.620907 
L 277.374545 155.953061 
L 278.439273 154.945529 
L 279.504 154.214044 
L 280.568727 153.745012 
L 281.633455 153.525116 
L 282.698182 153.540787 
L 283.762909 153.778733 
L 284.827636 154.225509 
L 286.158545 155.056979 
L 287.489455 156.167424 
L 289.086545 157.83134 
L 290.683636 159.81381 
L 292.546909 162.468835 
L 294.942545 166.313187 
L 297.870545 171.461796 
L 306.388364 186.751073 
L 308.784 190.463385 
L 310.647273 192.984204 
L 312.244364 194.829564 
L 313.841455 196.336056 
L 315.172364 197.299866 
L 316.503273 197.970594 
L 317.568 198.278509 
L 318.632727 198.368643 
L 319.697455 198.22754 
L 320.762182 197.841733 
L 321.826909 197.197829 
L 322.891636 196.282434 
L 323.956364 195.081992 
L 324.222545 194.735776 
L 324.488727 195.605247 
L 326.352 206.978976 
L 328.215273 217.047034 
L 330.078545 225.876111 
L 331.941818 233.533323 
L 333.538909 239.214636 
L 335.136 244.126288 
L 336.733091 248.31046 
L 338.330182 251.809272 
L 339.661091 254.23186 
L 340.992 256.232166 
L 342.322909 257.834674 
L 343.653818 259.063691 
L 344.984727 259.943702 
L 346.049455 260.412746 
L 347.114182 260.686527 
L 348.445091 260.773169 
L 349.776 260.598608 
L 351.106909 260.187229 
L 352.437818 259.563414 
L 354.034909 258.568838 
L 355.898182 257.122552 
L 358.027636 255.174542 
L 360.955636 252.158943 
L 367.876364 244.887576 
L 370.005818 243.007845 
L 371.869091 241.641179 
L 373.466182 240.729627 
L 374.797091 240.185469 
L 376.128 239.863185 
L 377.458909 239.78722 
L 378.523636 239.920161 
L 379.588364 240.238841 
L 380.653091 240.755749 
L 381.717818 241.483367 
L 382.782545 242.43421 
L 384.113455 243.955671 
L 385.444364 245.869849 
L 386.775273 248.201088 
L 388.106182 250.973822 
L 389.437091 254.212446 
L 391.034182 258.748129 
L 392.631273 264.031982 
L 394.228364 270.106174 
L 395.293091 274.615522 
L 395.559273 274.39102 
L 397.422545 249.493078 
L 399.285818 227.856478 
L 401.149091 209.064847 
L 403.012364 192.702538 
L 404.875636 178.353865 
L 406.738909 165.60258 
L 409.134545 150.886388 
L 412.861091 129.794935 
L 416.055273 111.254667 
L 418.184727 97.558072 
L 420.048 84.123781 
L 421.911273 68.90083 
L 423.508364 54.113467 
L 425.105455 37.444444 
L 426.436364 21.927273 
L 426.436364 21.927273 
" clip-path="url(#p22e5f1859b)" style="fill: none; stroke-dasharray: 11.1,4.8; stroke-dashoffset: 0; stroke: #000000; stroke-width: 3"/>
   </g>
   <g id="line2d_2">
    <path d="M 27.163636 224.687698 
L 29.293091 225.224659 
L 31.422545 225.530371 
L 33.818182 225.642021 
L 36.48 225.536391 
L 39.674182 225.183691 
L 44.199273 224.450216 
L 45.530182 223.751287 
L 47.127273 222.683212 
L 48.990545 221.166907 
L 51.12 219.114718 
L 53.515636 216.447427 
L 56.177455 213.099268 
L 59.105455 209.019211 
L 61.234909 205.805783 
L 61.767273 204.576953 
L 63.364364 200.701109 
L 64.961455 197.376795 
L 66.558545 194.566047 
L 68.155636 192.231053 
L 69.752727 190.334323 
L 71.083636 189.061409 
L 72.414545 188.045153 
L 73.745455 187.263939 
L 75.342545 186.606341 
L 76.939636 186.218844 
L 78.536727 186.07286 
L 82.795636 186.083762 
L 89.716364 186.373627 
L 95.838545 186.549126 
L 107.816727 186.408124 
L 122.456727 186.16029 
L 136.032 186.278099 
L 142.420364 186.569566 
L 144.283636 186.74529 
L 144.816 187.273664 
L 149.607273 193.068268 
L 152.002909 196.358273 
L 153.866182 199.262747 
L 155.729455 202.564268 
L 157.592727 206.346874 
L 159.456 210.6916 
L 160.786909 214.257215 
L 161.319273 215.548241 
L 163.182545 217.40613 
L 165.045818 218.917666 
L 166.909091 220.110898 
L 168.772364 221.013601 
L 170.635636 221.653763 
L 172.498909 222.059622 
L 174.628364 222.272221 
L 176.757818 222.256499 
L 177.556364 222.16803 
L 178.354909 221.711616 
L 179.685818 220.693269 
L 181.282909 219.151092 
L 182.88 217.291914 
L 184.743273 214.763359 
L 186.872727 211.454227 
L 189.268364 207.272496 
L 191.930182 202.152877 
L 194.592 196.66998 
L 197.253818 195.015565 
L 202.045091 191.712705 
L 205.771636 189.250038 
L 208.433455 187.759669 
L 210.562909 186.824685 
L 211.361455 186.614714 
L 216.418909 186.579029 
L 220.145455 186.774617 
L 223.339636 187.170125 
L 226.267636 187.76957 
L 227.864727 188.240241 
L 229.994182 189.480248 
L 232.123636 190.455937 
L 234.253091 191.200227 
L 236.648727 191.80205 
L 239.310545 192.233744 
L 242.504727 192.51138 
L 249.691636 192.79341 
L 255.281455 192.796364 
L 260.338909 192.580235 
L 269.122909 192.096271 
L 277.640727 191.616638 
L 280.568727 190.541552 
L 289.352727 187.136379 
L 291.748364 186.523617 
L 293.611636 186.23817 
L 295.474909 186.394731 
L 297.604364 186.799275 
L 300 187.496915 
L 302.661818 188.509216 
L 306.122182 190.077515 
L 310.114909 191.960789 
L 312.244364 192.132895 
L 314.107636 192.491754 
L 315.704727 193.000889 
L 317.301818 193.734728 
L 318.898909 194.729342 
L 320.496 196.020343 
L 322.093091 197.642515 
L 323.690182 199.630117 
L 325.287273 202.016455 
L 326.618182 204.415361 
L 328.481455 208.239473 
L 330.344727 211.609562 
L 332.208 214.553151 
L 334.071273 217.098816 
L 335.934545 219.279102 
L 337.797818 221.127429 
L 339.661091 222.678893 
L 341.524364 223.969694 
L 342.855273 224.7072 
L 346.581818 225.285491 
L 351.373091 225.822827 
L 356.962909 226.217571 
L 359.358545 226.257775 
L 363.617455 225.549021 
L 368.408727 224.520573 
L 374.530909 222.960097 
L 382.250182 220.758495 
L 390.501818 218.501493 
L 392.631273 218.038394 
L 395.559273 217.71964 
L 398.221091 217.203445 
L 400.616727 216.525306 
L 403.012364 215.619361 
L 405.408 214.460038 
L 407.537455 213.198289 
L 409.666909 211.682535 
L 411.796364 209.914341 
L 413.925818 208.462937 
L 416.587636 206.957422 
L 424.306909 202.855811 
L 426.436364 201.344989 
L 426.436364 201.344989 
" clip-path="url(#p22e5f1859b)" style="fill: none; stroke-dasharray: 3,4.95; stroke-dashoffset: 0; stroke: #ff0000; stroke-width: 3"/>
   </g>
   <g id="line2d_3">
    <path d="M 27.163636 223.068055 
L 30.357818 223.603576 
L 33.818182 224.420038 
L 37.810909 225.591353 
L 42.868364 227.26184 
L 43.134545 227.434685 
L 44.199273 228.688674 
L 44.731636 228.60988 
L 45.264 228.314257 
L 46.062545 227.608206 
L 47.127273 226.305026 
L 48.192 224.616916 
L 49.522909 222.007915 
L 50.853818 218.890642 
L 52.450909 214.546241 
L 54.314182 208.743615 
L 56.443636 201.275382 
L 59.637818 189.749961 
L 61.234909 186.057289 
L 61.501091 184.899993 
L 62.565818 177.438094 
L 63.098182 174.795711 
L 63.896727 172.477814 
L 64.429091 171.53154 
L 64.961455 171.044985 
L 65.493818 171.002077 
L 66.026182 171.386219 
L 66.558545 172.180364 
L 67.090909 173.368326 
L 67.889455 175.851357 
L 68.688 179.125341 
L 69.752727 184.622281 
L 70.817455 191.286994 
L 72.148364 201.050893 
L 73.745455 214.512671 
L 75.874909 234.648112 
L 76.673455 241.481514 
L 79.335273 258.645766 
L 80.666182 259.00296 
L 81.997091 259.136239 
L 83.328 259.04001 
L 84.658909 258.710391 
L 85.989818 258.141049 
L 87.320727 257.329494 
L 88.651636 256.269378 
L 89.982545 254.955008 
L 91.579636 253.036963 
L 93.176727 250.73813 
L 95.306182 247.557434 
L 100.629818 247.336374 
L 102.226909 246.987854 
L 103.557818 246.491911 
L 104.888727 245.758636 
L 106.219636 244.742581 
L 107.550545 243.39837 
L 108.881455 241.682159 
L 110.212364 239.551052 
L 111.809455 236.461867 
L 118.464 222.682047 
L 121.924364 215.147075 
L 124.852364 208.22255 
L 127.248 202.019772 
L 136.032 174.853088 
L 138.427636 166.173725 
L 140.823273 156.606941 
L 143.218909 146.07999 
L 144.283636 141.043583 
L 144.549818 140.590473 
L 145.348364 140.64815 
L 146.413091 140.473891 
L 146.945455 140.393908 
L 147.477818 140.921218 
L 148.808727 142.743021 
L 149.873455 144.582048 
L 150.938182 146.868427 
L 152.002909 149.700491 
L 153.067636 153.176472 
L 154.132364 157.391848 
L 155.197091 162.44285 
L 156.261818 168.424831 
L 157.592727 177.349963 
L 158.923636 188.04852 
L 160.254545 200.695752 
L 161.319273 212.002353 
L 162.650182 215.961747 
L 163.981091 219.336179 
L 165.312 222.13471 
L 166.642909 224.427798 
L 167.973818 226.2854 
L 169.304727 227.775131 
L 170.635636 228.971229 
L 172.232727 230.113255 
L 174.362182 231.338417 
L 177.556364 232.944881 
L 178.887273 231.816799 
L 179.685818 230.654534 
L 180.484364 229.043664 
L 181.549091 226.243857 
L 182.613818 222.753018 
L 183.944727 217.504237 
L 185.275636 211.36701 
L 186.872727 202.974909 
L 188.736 191.977461 
L 191.131636 176.314731 
L 194.325818 154.770118 
L 194.592 153.393564 
L 195.390545 154.51167 
L 196.721455 155.951133 
L 198.318545 157.334872 
L 202.311273 160.582195 
L 203.642182 162.046341 
L 204.706909 163.502678 
L 205.771636 165.282349 
L 206.836364 167.449242 
L 207.901091 170.066642 
L 208.965818 173.197058 
L 210.296727 177.178457 
L 211.095273 178.141416 
L 211.893818 179.888068 
L 213.224727 181.987896 
L 214.555636 183.729642 
L 215.886545 185.13959 
L 217.217455 186.243602 
L 218.548364 187.067574 
L 219.879273 187.637442 
L 221.210182 187.978889 
L 222.541091 188.117951 
L 224.138182 188.054691 
L 226.001455 187.720491 
L 227.066182 187.422264 
L 227.332364 187.258969 
L 227.864727 186.32406 
L 228.397091 186.063272 
L 229.994182 184.490691 
L 232.123636 182.024145 
L 239.044364 173.618 
L 240.641455 172.145191 
L 241.972364 171.19769 
L 243.037091 170.661819 
L 243.835636 170.414836 
L 244.368 170.457569 
L 245.166545 170.751314 
L 247.562182 171.69133 
L 249.957818 172.385089 
L 252.353455 172.859929 
L 255.015273 173.163037 
L 257.943273 173.26356 
L 260.605091 173.233795 
L 261.936 174.503379 
L 264.597818 176.949887 
L 266.993455 178.853788 
L 269.122909 180.277731 
L 271.252364 181.420682 
L 273.115636 182.167338 
L 274.978909 182.658637 
L 276.576 182.862248 
L 277.108364 182.838604 
L 279.504 181.604029 
L 283.496727 179.80552 
L 285.093818 179.316949 
L 286.424727 179.107505 
L 287.755636 179.131499 
L 288.820364 179.352372 
L 289.885091 179.779948 
L 290.949818 180.439786 
L 292.014545 181.356971 
L 293.079273 182.556812 
L 293.611636 183.224474 
L 294.942545 182.326076 
L 305.057455 167.911039 
L 309.848727 160.925407 
L 311.179636 158.368038 
L 311.978182 157.01772 
L 312.776727 154.469663 
L 314.107636 150.59104 
L 315.172364 148.128524 
L 316.237091 146.267668 
L 317.035636 145.284644 
L 317.834182 144.668239 
L 318.366545 144.466893 
L 318.898909 144.437053 
L 319.431273 144.581697 
L 319.963636 144.903981 
L 320.762182 145.72724 
L 321.560727 146.966584 
L 322.359273 148.631126 
L 323.424 151.526249 
L 324.488727 155.210536 
L 325.553455 159.701358 
L 326.352 163.60449 
L 328.215273 176.917443 
L 329.812364 188.953739 
L 331.409455 199.289959 
L 332.740364 206.656792 
L 334.071273 212.937325 
L 335.402182 218.1821 
L 336.733091 222.442087 
L 337.797818 225.176719 
L 338.862545 227.3438 
L 339.927273 228.972356 
L 340.725818 229.857723 
L 341.524364 230.469735 
L 342.322909 230.821033 
L 342.589091 230.882165 
L 342.855273 230.687791 
L 343.653818 229.277129 
L 343.92 229.079388 
L 345.517091 229.136177 
L 347.114182 229.407968 
L 348.711273 229.883708 
L 350.574545 230.684199 
L 352.437818 231.735702 
L 354.567273 233.225058 
L 356.696727 234.999848 
L 359.092364 237.202577 
L 360.689455 237.537653 
L 363.085091 238.467255 
L 364.948364 238.915746 
L 366.811636 239.144755 
L 368.941091 239.171378 
L 371.070545 238.983913 
L 373.732364 238.505932 
L 376.394182 237.796414 
L 377.991273 237.187657 
L 381.185455 235.610958 
L 384.912 233.513233 
L 389.969455 230.386623 
L 392.365091 228.909959 
L 393.163636 229.044065 
L 393.962182 228.88793 
L 394.760727 228.774327 
L 401.681455 228.24564 
L 403.544727 227.777935 
L 405.141818 227.139625 
L 406.738909 226.226971 
L 408.069818 225.217249 
L 409.400727 223.943997 
L 409.933091 222.97717 
L 413.925818 213.787081 
L 415.789091 210.404701 
L 417.918545 207.053751 
L 425.105455 196.272821 
L 426.436364 193.782279 
L 426.436364 193.782279 
" clip-path="url(#p22e5f1859b)" style="fill: none; stroke: #ff0000; stroke-width: 3; stroke-linecap: square"/>
   </g>
   <g id="patch_3">
    <path d="M 7.2 331.2 
L 7.2 7.2 
" style="fill: none; stroke: #000000; stroke-width: 0.8; stroke-linejoin: miter; stroke-linecap: square"/>
   </g>
   <g id="patch_4">
    <path d="M 446.4 331.2 
L 446.4 7.2 
" style="fill: none; stroke: #000000; stroke-width: 0.8; stroke-linejoin: miter; stroke-linecap: square"/>
   </g>
   <g id="patch_5">
    <path d="M 7.2 331.2 
L 446.4 331.2 
" style="fill: none; stroke: #000000; stroke-width: 0.8; stroke-linejoin: miter; stroke-linecap: square"/>
   </g>
   <g id="patch_6">
    <path d="M 7.2 7.2 
L 446.4 7.2 
" style="fill: none; stroke: #000000; stroke-width: 0.8; stroke-linejoin: miter; stroke-linecap: square"/>
   </g>
  </g>
 </g>
 <defs>
  <clipPath id="p22e5f1859b">
   <rect x="7.2" y="7.2" width="439.2" height="324"/>
  </clipPath>
 </defs>
</svg>
