<?xml version="1.0" encoding="utf-8" standalone="no"?>
<!DOCTYPE svg PUBLIC "-//W3C//DTD SVG 1.1//EN"
  "http://www.w3.org/Graphics/SVG/1.1/DTD/svg11.dtd">
<svg xmlns:xlink="http://www.w3.org/1999/xlink" width="453.6pt" height="338.4pt" viewBox="0 0 453.6 338.4" xmlns="http://www.w3.org/2000/svg" version="1.1">
 <metadata>
  <rdf:RDF xmlns:dc="http://purl.org/dc/elements/1.1/" xmlns:cc="http://creativecommons.org/ns#" xmlns:rdf="http://www.w3.org/1999/02/22-rdf-syntax-ns#">
   <cc:Work>
    <dc:type rdf:resource="http://purl.org/dc/dcmitype/StillImage"/>
    <dc:date>2025-05-14T00:02:52.823068</dc:date>
    <dc:format>image/svg+xml</dc:format>
    <dc:creator>
     <cc:Agent>
      <dc:title>Matplotlib v3.10.1, https://matplotlib.org/</dc:title>
     </cc:Agent>
    </dc:creator>
   </cc:Work>
  </rdf:RDF>
 </metadata>
 <defs>
  <style type="text/css">*{stroke-linejoin: round; stroke-linecap: butt}</style>
 </defs>
 <g id="figure_1">
  <g id="patch_1">
   <path d="M 0 338.4 
L 453.6 338.4 
L 453.6 0 
L 0 0 
z
" style="fill: #ffffff"/>
  </g>
  <g id="axes_1">
   <g id="patch_2">
    <path d="M 7.2 331.2 
L 446.4 331.2 
L 446.4 7.2 
L 7.2 7.2 
z
" style="fill: #ffffff"/>
   </g>
   <g id="matplotlib.axis_1"/>
   <g id="matplotlib.axis_2"/>
   <g id="line2d_1">
    <path d="M 27.163636 140.407379 
L 32.221091 152.62013 
L 37.012364 163.615854 
L 41.803636 174.052774 
L 46.328727 183.396848 
L 50.853818 192.242475 
L 55.378909 200.589724 
L 59.637818 207.990671 
L 63.896727 214.950121 
L 68.155636 221.468082 
L 72.148364 227.177722 
L 76.141091 232.499304 
L 79.867636 237.116054 
L 83.594182 241.394753 
L 87.320727 245.335471 
L 91.047273 248.938151 
L 94.507636 251.980849 
L 97.968 254.732087 
L 101.428364 257.19187 
L 104.622545 259.203747 
L 107.816727 260.967293 
L 111.010909 262.482499 
L 114.205091 263.74937 
L 117.399273 264.767902 
L 120.593455 265.538095 
L 123.521455 266.025947 
L 126.449455 266.305122 
L 129.377455 266.375622 
L 132.305455 266.237454 
L 135.233455 265.890611 
L 138.161455 265.335095 
L 141.355636 264.491087 
L 144.549818 263.398732 
L 147.744 262.05805 
L 150.938182 260.469024 
L 154.132364 258.631664 
L 157.326545 256.545955 
L 160.786909 254.006201 
L 164.247273 251.174996 
L 165.045818 250.480248 
L 165.312 250.440858 
L 167.973818 252.285841 
L 170.635636 253.843296 
L 173.031273 254.999191 
L 175.426909 255.922206 
L 177.822545 256.61234 
L 180.218182 257.06959 
L 182.613818 257.293959 
L 185.009455 257.285448 
L 187.405091 257.044052 
L 189.800727 256.56978 
L 192.196364 255.86262 
L 194.592 254.922583 
L 196.987636 253.74967 
L 199.383273 252.343864 
L 202.045091 250.508736 
L 204.706909 248.386098 
L 207.368727 245.975945 
L 210.030545 243.278277 
L 212.958545 239.978785 
L 215.886545 236.33141 
L 218.814545 232.336149 
L 222.008727 227.580902 
L 225.202909 222.411669 
L 228.397091 216.828399 
L 231.857455 210.312653 
L 235.317818 203.311068 
L 238.778182 195.823584 
L 242.504727 187.216713 
L 246.231273 178.046292 
L 250.224 167.595572 
L 254.216727 156.497961 
L 258.209455 144.753457 
L 262.468364 131.513024 
L 266.727273 117.536421 
L 270.986182 102.823963 
L 275.511273 86.385427 
L 280.036364 69.115943 
L 284.827636 49.924978 
L 289.352727 31.021812 
L 291.748364 33.10313 
L 294.144 35.468499 
L 296.805818 38.429869 
L 299.467636 41.741873 
L 302.129455 45.404634 
L 305.057455 49.838659 
L 307.985455 54.697099 
L 310.913455 59.979829 
L 314.107636 66.226812 
L 317.301818 72.978766 
L 320.496 80.235778 
L 323.956364 88.667314 
L 327.416727 97.691577 
L 331.143273 108.072895 
L 334.869818 119.141523 
L 338.596364 130.89748 
L 342.589091 144.256051 
L 346.581818 158.403576 
L 350.840727 174.364031 
L 355.099636 191.222279 
L 359.358545 208.978302 
L 363.883636 228.827813 
L 368.408727 249.690717 
L 371.070545 262.419003 
L 373.2 258.663374 
L 375.329455 255.374504 
L 377.192727 252.879617 
L 379.056 250.742102 
L 380.919273 248.961985 
L 382.516364 247.720599 
L 384.113455 246.741759 
L 385.710545 246.025492 
L 387.307636 245.571779 
L 388.904727 245.380623 
L 390.501818 245.452029 
L 392.098909 245.786 
L 393.696 246.382518 
L 395.293091 247.241599 
L 396.890182 248.363248 
L 398.487273 249.747457 
L 400.350545 251.694209 
L 402.213818 253.998307 
L 404.077091 256.659812 
L 405.940364 259.678693 
L 408.069818 263.566392 
L 410.199273 267.920924 
L 412.594909 273.377654 
L 414.990545 279.425152 
L 417.386182 286.063393 
L 420.048 294.132182 
L 422.709818 302.930218 
L 425.371636 312.457584 
L 426.436364 316.472727 
L 426.436364 316.472727 
" clip-path="url(#peae8725ef9)" style="fill: none; stroke-dasharray: 11.1,4.8; stroke-dashoffset: 0; stroke: #000000; stroke-width: 3"/>
   </g>
   <g id="line2d_2">
    <path d="M 27.163636 216.897713 
L 27.429818 215.16034 
L 27.962182 218.271108 
L 28.228364 222.658113 
L 29.026909 224.469844 
L 29.293091 226.240351 
L 29.825455 226.981022 
L 30.091636 227.445977 
L 30.357818 228.283947 
L 30.890182 228.672513 
L 31.156364 229.009032 
L 31.422545 231.008322 
L 32.221091 231.564411 
L 32.487273 232.142427 
L 34.084364 233.381081 
L 35.415273 233.723064 
L 35.681455 234.324266 
L 36.746182 234.471931 
L 39.674182 233.685167 
L 39.940364 233.52006 
L 41.537455 233.469344 
L 45.530182 233.699632 
L 48.724364 233.978255 
L 51.918545 234.175025 
L 58.573091 234.16175 
L 60.968727 234.008482 
L 61.234909 235.325942 
L 63.098182 235.321003 
L 65.76 235.495673 
L 68.954182 235.29519 
L 69.752727 235.140625 
L 70.817455 234.64737 
L 72.414545 233.397508 
L 74.544 231.204111 
L 76.141091 229.0056 
L 77.738182 226.553264 
L 78.004364 226.264694 
L 78.270545 225.423747 
L 78.802909 225.040575 
L 79.069091 224.94198 
L 81.464727 225.247747 
L 82.263273 225.397933 
L 82.529455 225.793714 
L 84.925091 226.785619 
L 86.256 227.457536 
L 87.853091 228.286539 
L 88.651636 228.628487 
L 91.313455 230.42169 
L 93.975273 231.800374 
L 95.04 232.379195 
L 95.306182 232.825412 
L 96.903273 233.669441 
L 97.701818 234.156427 
L 99.298909 235.243949 
L 99.831273 235.537632 
L 103.025455 237.289016 
L 103.557818 237.479691 
L 104.090182 237.91498 
L 105.953455 238.716945 
L 107.284364 239.093952 
L 108.615273 239.443816 
L 110.744727 240.127676 
L 112.075636 240.495507 
L 112.341818 240.489588 
L 113.938909 241.071141 
L 117.399273 241.800254 
L 120.061091 242.2395 
L 125.650909 242.751494 
L 128.046545 242.596124 
L 129.111273 242.503063 
L 129.377455 242.939648 
L 131.240727 243.104335 
L 132.837818 243.152949 
L 134.701091 243.191056 
L 147.211636 244.011934 
L 153.866182 244.162996 
L 155.463273 243.937296 
L 158.125091 243.201669 
L 159.189818 242.817061 
L 159.988364 242.374451 
L 162.117818 240.480271 
L 163.182545 239.312507 
L 163.448727 237.410727 
L 164.247273 235.898073 
L 164.779636 234.803441 
L 165.578182 233.724115 
L 166.110545 233.510778 
L 166.642909 233.529096 
L 167.441455 233.967748 
L 167.707636 233.9219 
L 168.506182 234.507026 
L 169.038545 234.880391 
L 171.434182 237.015857 
L 172.765091 238.184216 
L 175.959273 239.288761 
L 176.491636 239.666434 
L 179.419636 240.891814 
L 180.750545 241.431512 
L 185.541818 243.043461 
L 186.872727 243.208814 
L 187.671273 243.14013 
L 189.268364 242.877654 
L 190.865455 242.999645 
L 193.527273 243.241912 
L 194.592 242.828899 
L 196.455273 241.847677 
L 197.52 240.910657 
L 198.584727 239.483008 
L 200.448 236.977925 
L 201.512727 236.149587 
L 202.843636 235.438757 
L 204.440727 234.751919 
L 204.973091 234.321324 
L 205.771636 233.460868 
L 206.836364 233.190406 
L 207.368727 233.666254 
L 208.965818 236.160129 
L 211.095273 239.161235 
L 212.426182 240.761276 
L 213.490909 241.592766 
L 215.088 242.67528 
L 215.620364 242.875552 
L 216.152727 242.923081 
L 216.685091 242.612585 
L 217.483636 241.561419 
L 220.677818 236.805217 
L 221.476364 235.982343 
L 222.541091 235.192252 
L 223.339636 234.900985 
L 224.404364 234.948059 
L 226.533818 235.348358 
L 227.598545 236.064126 
L 228.397091 237.141526 
L 229.461818 238.835924 
L 231.857455 241.25933 
L 236.914909 246.148521 
L 237.713455 247.335023 
L 238.512 248.282376 
L 239.576727 248.875837 
L 240.641455 249.009947 
L 241.706182 248.724285 
L 242.770909 248.079547 
L 243.835636 246.806953 
L 244.368 245.627771 
L 244.900364 243.522321 
L 245.432727 239.23836 
L 246.497455 226.44311 
L 246.763636 225.223755 
L 248.626909 220.418098 
L 251.821091 210.848253 
L 252.619636 209.297107 
L 254.482909 205.87178 
L 255.281455 203.643078 
L 256.346182 199.94165 
L 258.475636 192.399605 
L 259.008 189.928531 
L 259.540364 186.267066 
L 260.072727 181.37819 
L 260.605091 173.902623 
L 261.669818 157.639946 
L 262.468364 150.355369 
L 264.864 131.296308 
L 265.662545 127.345153 
L 266.194909 125.314201 
L 267.525818 120.948946 
L 269.122909 114.141198 
L 270.453818 108.060181 
L 271.252364 103.248745 
L 272.583273 94.237757 
L 273.115636 91.462982 
L 273.381818 90.825109 
L 274.446545 86.054337 
L 275.245091 83.089132 
L 275.777455 81.507374 
L 277.108364 78.641709 
L 277.640727 77.427817 
L 278.439273 75.513988 
L 279.237818 72.794973 
L 280.302545 67.67101 
L 281.367273 62.633488 
L 282.698182 58.183684 
L 284.029091 53.751427 
L 285.626182 48.57174 
L 286.158545 47.462537 
L 286.690909 46.616266 
L 287.223273 46.11436 
L 288.021818 45.7342 
L 289.352727 45.337333 
L 290.151273 45.179932 
L 290.417455 45.480235 
L 291.216 45.124382 
L 292.280727 44.647869 
L 294.410182 43.717433 
L 295.208727 43.435063 
L 296.539636 43.242706 
L 298.136727 43.182884 
L 298.669091 43.237733 
L 299.201455 43.368516 
L 304.791273 43.713405 
L 306.388364 44.180147 
L 307.186909 44.46658 
L 307.453091 44.930029 
L 309.316364 45.728281 
L 311.978182 47.163985 
L 312.776727 47.841471 
L 313.575273 48.843358 
L 314.373818 50.204144 
L 315.172364 52.019097 
L 318.100364 59.897696 
L 323.157818 70.38232 
L 323.956364 72.655469 
L 324.222545 73.841691 
L 325.021091 90.831168 
L 325.553455 95.375855 
L 325.819636 96.72743 
L 326.085818 100.154017 
L 326.352 106.597577 
L 326.884364 112.386137 
L 328.215273 123.46065 
L 329.812364 136.598898 
L 330.344727 140.542417 
L 331.143273 149.82821 
L 331.675636 153.380642 
L 333.006545 159.764625 
L 333.805091 162.408127 
L 334.869818 164.563137 
L 335.136 164.776753 
L 335.934545 166.065038 
L 336.200727 166.540816 
L 336.733091 168.439058 
L 339.661091 182.107023 
L 340.459636 184.608849 
L 341.258182 186.947634 
L 341.524364 190.917738 
L 342.322909 193.356554 
L 342.589091 193.917513 
L 343.387636 196.178788 
L 343.653818 196.621958 
L 344.452364 198.686359 
L 344.718545 199.01195 
L 345.783273 201.122793 
L 346.049455 202.209755 
L 346.581818 205.868313 
L 347.646545 213.89314 
L 348.178909 216.215954 
L 348.711273 217.642132 
L 349.776 218.828704 
L 350.042182 219.34455 
L 351.373091 219.35835 
L 351.639273 219.479641 
L 351.905455 219.777178 
L 352.171636 219.85059 
L 353.236364 220.882913 
L 354.034909 221.668801 
L 354.301091 222.45728 
L 354.833455 222.67482 
L 356.164364 223.60445 
L 356.696727 223.958341 
L 357.229091 224.250449 
L 358.027636 225.088313 
L 358.293818 225.840788 
L 358.56 228.441384 
L 359.092364 229.335674 
L 362.552727 234.756963 
L 364.948364 241.024173 
L 365.746909 242.390528 
L 367.876364 244.881391 
L 368.408727 245.26761 
L 369.207273 245.925272 
L 369.739636 246.267535 
L 370.005818 246.36592 
L 370.538182 246.366025 
L 371.336727 246.404342 
L 372.135273 245.964991 
L 373.466182 244.495837 
L 374.264727 242.659974 
L 375.329455 238.690781 
L 375.595636 239.978435 
L 378.257455 225.856584 
L 379.588364 215.897298 
L 380.120727 210.940159 
L 381.451636 203.238716 
L 383.581091 194.042972 
L 385.710545 187.157118 
L 387.041455 182.725982 
L 387.573818 180.884409 
L 388.106182 179.859652 
L 388.372364 180.568345 
L 388.638545 180.171548 
L 389.437091 180.07558 
L 389.703273 179.863995 
L 390.501818 180.38576 
L 390.768 180.295221 
L 391.300364 180.346533 
L 391.566545 180.768442 
L 391.832727 180.851136 
L 392.365091 181.721259 
L 392.631273 180.805078 
L 392.897455 181.129934 
L 393.429818 182.116689 
L 394.494545 182.962785 
L 395.293091 182.783773 
L 395.825455 182.136023 
L 396.624 181.691242 
L 396.890182 184.075525 
L 397.156364 184.373377 
L 398.487273 187.198693 
L 399.019636 188.485856 
L 400.616727 193.144969 
L 400.882909 193.709395 
L 401.149091 199.383318 
L 402.48 205.399575 
L 403.278545 207.909212 
L 405.141818 211.345992 
L 405.408 214.944096 
L 406.472727 216.783847 
L 408.336 218.839842 
L 409.134545 219.47719 
L 409.666909 219.5768 
L 412.594909 225.381086 
L 413.659636 227.938322 
L 414.192 230.311747 
L 415.256727 235.071101 
L 416.853818 241.987076 
L 417.652364 244.622172 
L 417.918545 245.253671 
L 418.983273 249.036776 
L 419.515636 250.418858 
L 420.048 251.323725 
L 420.846545 252.044432 
L 421.378909 252.219206 
L 422.177455 252.346311 
L 422.709818 252.213462 
L 423.242182 252.166493 
L 423.774545 251.914455 
L 424.306909 251.720067 
L 425.371636 250.277252 
L 425.637818 248.885924 
L 425.904 248.301745 
L 426.170182 248.7184 
L 426.436364 254.686673 
L 426.436364 254.686673 
" clip-path="url(#peae8725ef9)" style="fill: none; stroke-dasharray: 3,4.95; stroke-dashoffset: 0; stroke: #ff0000; stroke-width: 3"/>
   </g>
   <g id="line2d_3">
    <path d="M 27.163636 222.499345 
L 27.429818 219.777003 
L 27.696 220.700398 
L 27.962182 222.468594 
L 28.228364 226.061479 
L 29.026909 228.099752 
L 29.293091 229.598676 
L 30.091636 230.805317 
L 30.357818 231.465641 
L 30.890182 231.704196 
L 31.156364 232.042991 
L 31.422545 233.098571 
L 32.221091 232.896792 
L 32.753455 233.253345 
L 33.285818 233.56286 
L 33.818182 233.962179 
L 34.616727 234.177477 
L 35.149091 234.242798 
L 35.415273 234.334388 
L 35.681455 234.659069 
L 37.544727 234.093277 
L 37.810909 234.101227 
L 39.141818 233.412814 
L 39.674182 233.060709 
L 39.940364 233.312047 
L 41.537455 232.690846 
L 41.803636 232.604685 
L 42.069818 232.677817 
L 43.933091 232.095914 
L 44.199273 230.75898 
L 44.997818 230.296686 
L 45.530182 230.099041 
L 47.659636 229.300474 
L 48.192 229.157993 
L 48.458182 229.444776 
L 50.055273 228.989593 
L 51.386182 228.782526 
L 52.450909 228.94963 
L 55.112727 228.820703 
L 56.177455 228.931347 
L 56.709818 229.046614 
L 56.976 229.204261 
L 57.774545 229.129588 
L 59.371636 228.890508 
L 59.637818 228.776082 
L 60.436364 228.863539 
L 60.702545 228.513956 
L 60.968727 229.220933 
L 61.234909 228.687189 
L 61.767273 228.673494 
L 62.832 228.591115 
L 63.630545 228.715173 
L 64.162909 228.873381 
L 65.76 229.779859 
L 66.824727 229.693488 
L 67.889455 229.51353 
L 68.688 229.510868 
L 70.285091 229.709705 
L 71.083636 229.27431 
L 73.745455 227.456029 
L 74.011636 227.405594 
L 74.810182 226.750769 
L 75.608727 225.844991 
L 76.673455 224.378359 
L 77.205818 223.64662 
L 77.738182 223.169511 
L 78.004364 223.029307 
L 78.270545 222.437842 
L 78.802909 222.252875 
L 79.601455 222.347407 
L 80.666182 222.812538 
L 81.730909 223.42113 
L 82.263273 223.871655 
L 82.529455 224.37146 
L 85.457455 226.99258 
L 86.522182 228.44324 
L 87.320727 229.489118 
L 89.184 231.708889 
L 91.313455 234.53424 
L 92.378182 235.374802 
L 93.709091 236.147485 
L 94.773818 236.406074 
L 95.04 236.357144 
L 95.306182 234.948234 
L 95.838545 235.264789 
L 96.637091 235.543481 
L 97.701818 236.105385 
L 101.162182 239.026775 
L 102.226909 239.91448 
L 103.824 240.89353 
L 104.622545 241.352951 
L 105.687273 241.792233 
L 106.752 241.94354 
L 107.816727 241.891774 
L 112.874182 243.328143 
L 114.737455 243.955544 
L 116.600727 244.359205 
L 119.794909 245.329464 
L 120.859636 245.661955 
L 122.989091 246.166278 
L 125.118545 246.563145 
L 125.917091 246.646364 
L 129.111273 246.512324 
L 129.377455 247.11927 
L 130.442182 247.253275 
L 131.773091 247.171982 
L 133.370182 246.946422 
L 133.902545 246.968243 
L 135.233455 246.950345 
L 136.564364 246.922535 
L 137.629091 246.883833 
L 138.693818 246.96495 
L 140.557091 247.128937 
L 143.485091 247.59834 
L 145.880727 248.119475 
L 146.146909 248.304126 
L 146.413091 248.85892 
L 148.808727 249.545723 
L 151.736727 250.728863 
L 152.801455 251.188599 
L 153.6 251.42162 
L 155.729455 251.620771 
L 156.794182 251.617689 
L 158.657455 251.374931 
L 159.722182 251.041845 
L 160.520727 250.605785 
L 161.585455 249.797096 
L 162.916364 248.463034 
L 163.182545 248.124098 
L 163.448727 246.305012 
L 164.247273 244.737614 
L 164.779636 243.62582 
L 165.578182 242.471715 
L 166.110545 242.171692 
L 166.642909 242.069315 
L 167.441455 242.279569 
L 167.707636 242.166579 
L 168.506182 242.525058 
L 169.038545 242.763718 
L 171.168 244.005139 
L 172.498909 244.896207 
L 173.563636 245.018198 
L 175.160727 245.123693 
L 178.354909 245.982993 
L 179.419636 245.899389 
L 180.750545 245.64707 
L 182.347636 244.939427 
L 186.074182 243.13985 
L 187.937455 241.789991 
L 189.268364 240.681384 
L 190.333091 240.134751 
L 191.930182 239.623283 
L 193.261091 239.235593 
L 193.793455 238.832316 
L 194.325818 238.205021 
L 195.124364 236.780735 
L 195.656727 235.897723 
L 197.253818 233.744324 
L 199.117091 229.951516 
L 199.915636 228.46366 
L 201.246545 226.55582 
L 203.109818 224.593727 
L 204.973091 223.018974 
L 205.771636 222.029101 
L 206.570182 221.591536 
L 207.102545 221.818742 
L 207.634909 222.494722 
L 211.361455 228.274736 
L 212.426182 229.586417 
L 213.224727 230.27385 
L 214.821818 231.349078 
L 215.620364 231.592817 
L 216.152727 231.538073 
L 216.685091 231.11189 
L 217.217455 230.331501 
L 218.282182 228.146335 
L 219.879273 224.504379 
L 220.944 222.942795 
L 222.008727 222.115683 
L 222.807273 221.73062 
L 223.339636 221.594863 
L 224.404364 221.694089 
L 226.267636 222.178377 
L 226.8 222.542216 
L 227.332364 223.031688 
L 227.864727 223.760311 
L 228.397091 224.744544 
L 229.461818 226.954088 
L 230.526545 228.821579 
L 231.325091 230.249368 
L 233.720727 233.423671 
L 235.317818 235.115863 
L 236.116364 235.912083 
L 237.181091 237.349048 
L 237.979636 238.439302 
L 238.778182 239.267395 
L 239.842909 239.836935 
L 241.173818 239.96453 
L 241.706182 239.894376 
L 243.037091 239.19591 
L 243.835636 238.406449 
L 244.368 237.390833 
L 244.900364 235.44338 
L 245.432727 231.307819 
L 246.497455 218.760126 
L 246.763636 217.606441 
L 249.425455 211.703771 
L 250.756364 208.478996 
L 251.821091 206.659244 
L 252.619636 205.733152 
L 254.216727 203.953258 
L 254.749091 203.026185 
L 255.813818 200.443486 
L 258.209455 193.064167 
L 259.008 189.87095 
L 259.540364 186.591817 
L 260.072727 182.207719 
L 260.605091 175.408342 
L 261.669818 160.548797 
L 262.468364 154.290763 
L 264.864 138.476055 
L 265.662545 135.142248 
L 266.461091 132.559269 
L 267.525818 129.238212 
L 268.856727 124.115369 
L 270.187636 118.008924 
L 271.252364 111.381168 
L 272.583273 102.767433 
L 273.115636 100.178395 
L 273.381818 99.654563 
L 274.712727 94.104662 
L 275.777455 90.730402 
L 278.173091 84.557584 
L 278.971636 81.653182 
L 279.770182 77.777856 
L 281.633455 68.260093 
L 285.626182 54.002661 
L 286.424727 52.108341 
L 286.957091 51.056159 
L 293.877818 41.198673 
L 294.144 40.302264 
L 294.676364 36.940034 
L 295.208727 33.48646 
L 295.741091 31.140039 
L 296.273455 29.604759 
L 297.338182 27.481621 
L 298.136727 26.382103 
L 299.733818 24.623627 
L 301.330909 22.988526 
L 302.129455 22.273248 
L 302.928 21.927273 
L 303.194182 22.029545 
L 303.726545 22.033398 
L 304.791273 22.461962 
L 305.323636 22.836939 
L 306.122182 23.58521 
L 306.920727 24.968657 
L 307.186909 25.559807 
L 307.453091 25.073014 
L 307.985455 26.513814 
L 309.582545 31.80411 
L 313.575273 44.82597 
L 315.172364 51.439541 
L 318.100364 64.903275 
L 318.632727 67.1573 
L 319.165091 70.943138 
L 319.431273 72.667395 
L 320.229818 74.888129 
L 321.560727 77.702307 
L 322.891636 80.479359 
L 323.690182 82.658571 
L 324.222545 84.679611 
L 324.488727 88.796959 
L 325.021091 100.441571 
L 325.553455 105.03848 
L 325.819636 106.392927 
L 326.085818 109.848901 
L 326.352 116.36906 
L 326.884364 122.266757 
L 328.215273 133.646161 
L 329.812364 147.233883 
L 330.344727 151.247523 
L 331.143273 160.422987 
L 331.675636 163.753362 
L 333.006545 169.361018 
L 333.805091 171.534311 
L 334.603636 172.694019 
L 334.869818 173.007842 
L 335.402182 173.211302 
L 335.668364 173.395673 
L 336.200727 173.996384 
L 336.733091 175.44172 
L 337.797818 180.129238 
L 338.862545 184.726777 
L 339.927273 188.349329 
L 340.725818 190.527596 
L 341.258182 192.008167 
L 341.524364 195.939989 
L 342.322909 198.309911 
L 342.855273 199.642432 
L 344.452364 203.148106 
L 344.984727 203.821985 
L 345.517091 204.657048 
L 345.783273 205.245781 
L 346.049455 206.234393 
L 346.581818 209.756913 
L 347.646545 217.414715 
L 348.178909 219.511619 
L 348.711273 220.744319 
L 349.776 221.65402 
L 350.042182 222.182265 
L 351.373091 222.047139 
L 351.639273 222.135682 
L 351.905455 222.380646 
L 352.171636 222.419208 
L 354.034909 223.92174 
L 354.301091 224.71057 
L 354.833455 224.968073 
L 356.164364 226.029747 
L 356.696727 226.429416 
L 357.229091 226.762607 
L 358.027636 227.670942 
L 358.293818 228.449335 
L 358.56 230.970215 
L 359.092364 231.958406 
L 362.552727 237.605676 
L 364.416 243.275536 
L 364.948364 244.378819 
L 365.746909 245.655476 
L 366.811636 246.636697 
L 367.077818 247.298107 
L 368.408727 248.100247 
L 368.941091 248.347837 
L 369.739636 248.35169 
L 370.272 248.125605 
L 371.070545 247.87339 
L 371.336727 248.05594 
L 372.401455 247.609583 
L 373.2 247.10477 
L 373.732364 246.329704 
L 374.264727 245.27374 
L 375.329455 241.845506 
L 375.595636 243.516087 
L 377.991273 232.170832 
L 378.523636 228.84354 
L 380.386909 214.904658 
L 381.451636 208.962725 
L 383.847273 198.684923 
L 384.113455 198.30767 
L 385.178182 194.44117 
L 386.509091 190.06814 
L 387.041455 188.420395 
L 387.573818 186.56814 
L 388.106182 185.538969 
L 388.372364 186.115058 
L 388.638545 185.710241 
L 389.437091 185.431443 
L 389.703273 185.188265 
L 390.501818 185.433439 
L 391.034182 185.233447 
L 391.300364 185.128933 
L 391.566545 185.295196 
L 391.832727 185.248053 
L 392.365091 185.783723 
L 392.631273 185.607233 
L 392.897455 185.99023 
L 393.429818 187.050747 
L 394.494545 188.069726 
L 395.293091 188.026575 
L 396.091636 187.396373 
L 396.357818 187.393186 
L 396.624 187.235784 
L 396.890182 189.440004 
L 397.156364 189.77295 
L 399.019636 193.791388 
L 400.616727 197.886566 
L 400.882909 198.402692 
L 401.149091 203.488618 
L 402.48 208.932253 
L 403.278545 211.169361 
L 405.141818 214.045919 
L 405.408 216.957501 
L 406.206545 218.205122 
L 407.005091 219.098151 
L 408.336 220.088304 
L 409.400727 220.52762 
L 410.199273 221.83002 
L 413.393455 226.829435 
L 413.925818 227.805823 
L 414.990545 232.227642 
L 416.587636 239.394255 
L 417.652364 243.231965 
L 419.781818 248.941649 
L 420.048 249.280725 
L 421.112727 249.71027 
L 421.645091 249.615527 
L 422.177455 249.750478 
L 422.443636 249.573392 
L 423.242182 249.707958 
L 424.306909 250.037752 
L 425.105455 249.790967 
L 425.371636 249.681619 
L 425.637818 249.064726 
L 425.904 249.256207 
L 426.170182 251.691556 
L 426.436364 265.315949 
L 426.436364 265.315949 
" clip-path="url(#peae8725ef9)" style="fill: none; stroke: #ff0000; stroke-width: 3; stroke-linecap: square"/>
   </g>
   <g id="patch_3">
    <path d="M 7.2 331.2 
L 7.2 7.2 
" style="fill: none; stroke: #000000; stroke-width: 0.8; stroke-linejoin: miter; stroke-linecap: square"/>
   </g>
   <g id="patch_4">
    <path d="M 446.4 331.2 
L 446.4 7.2 
" style="fill: none; stroke: #000000; stroke-width: 0.8; stroke-linejoin: miter; stroke-linecap: square"/>
   </g>
   <g id="patch_5">
    <path d="M 7.2 331.2 
L 446.4 331.2 
" style="fill: none; stroke: #000000; stroke-width: 0.8; stroke-linejoin: miter; stroke-linecap: square"/>
   </g>
   <g id="patch_6">
    <path d="M 7.2 7.2 
L 446.4 7.2 
" style="fill: none; stroke: #000000; stroke-width: 0.8; stroke-linejoin: miter; stroke-linecap: square"/>
   </g>
  </g>
 </g>
 <defs>
  <clipPath id="peae8725ef9">
   <rect x="7.2" y="7.2" width="439.2" height="324"/>
  </clipPath>
 </defs>
</svg>
