<?xml version="1.0" encoding="utf-8" standalone="no"?>
<!DOCTYPE svg PUBLIC "-//W3C//DTD SVG 1.1//EN"
  "http://www.w3.org/Graphics/SVG/1.1/DTD/svg11.dtd">
<svg xmlns:xlink="http://www.w3.org/1999/xlink" width="453.6pt" height="338.4pt" viewBox="0 0 453.6 338.4" xmlns="http://www.w3.org/2000/svg" version="1.1">
 <metadata>
  <rdf:RDF xmlns:dc="http://purl.org/dc/elements/1.1/" xmlns:cc="http://creativecommons.org/ns#" xmlns:rdf="http://www.w3.org/1999/02/22-rdf-syntax-ns#">
   <cc:Work>
    <dc:type rdf:resource="http://purl.org/dc/dcmitype/StillImage"/>
    <dc:date>2025-05-14T00:22:35.141174</dc:date>
    <dc:format>image/svg+xml</dc:format>
    <dc:creator>
     <cc:Agent>
      <dc:title>Matplotlib v3.10.1, https://matplotlib.org/</dc:title>
     </cc:Agent>
    </dc:creator>
   </cc:Work>
  </rdf:RDF>
 </metadata>
 <defs>
  <style type="text/css">*{stroke-linejoin: round; stroke-linecap: butt}</style>
 </defs>
 <g id="figure_1">
  <g id="patch_1">
   <path d="M 0 338.4 
L 453.6 338.4 
L 453.6 0 
L 0 0 
z
" style="fill: #ffffff"/>
  </g>
  <g id="axes_1">
   <g id="patch_2">
    <path d="M 7.2 331.2 
L 446.4 331.2 
L 446.4 7.2 
L 7.2 7.2 
z
" style="fill: #ffffff"/>
   </g>
   <g id="matplotlib.axis_1"/>
   <g id="matplotlib.axis_2"/>
   <g id="line2d_1">
    <path d="M 27.163636 196.460882 
L 29.825455 200.990559 
L 32.487273 205.056501 
L 34.882909 208.31934 
L 37.278545 211.206568 
L 39.408 213.457635 
L 41.537455 215.411908 
L 43.666909 217.069399 
L 45.796364 218.430106 
L 47.659636 219.377255 
L 49.522909 220.097174 
L 51.386182 220.589863 
L 53.249455 220.855301 
L 55.112727 220.893519 
L 56.976 220.704528 
L 58.839273 220.288264 
L 60.702545 219.644803 
L 62.565818 218.77409 
L 64.429091 217.676157 
L 66.558545 216.143129 
L 68.688 214.313307 
L 70.817455 212.186692 
L 72.946909 209.763283 
L 75.342545 206.682197 
L 77.738182 203.225478 
L 80.133818 199.393128 
L 82.795636 194.694409 
L 85.457455 189.531945 
L 88.119273 183.905766 
L 91.047273 177.18133 
L 93.975273 169.89577 
L 97.169455 161.307943 
L 100.363636 152.052307 
L 103.557818 142.128903 
L 107.018182 130.624989 
L 110.478545 118.337326 
L 114.205091 104.228041 
L 117.931636 89.209793 
L 121.658182 73.282625 
L 124.586182 60.130767 
L 124.852364 59.811444 
L 126.981818 78.256078 
L 128.845091 92.650844 
L 130.708364 105.417638 
L 132.571636 116.556397 
L 134.168727 124.808189 
L 135.765818 131.863866 
L 137.096727 136.829944 
L 138.427636 140.965376 
L 139.492364 143.675677 
L 140.557091 145.85437 
L 141.621818 147.50152 
L 142.420364 148.387984 
L 143.218909 148.975471 
L 144.017455 149.263899 
L 144.816 149.253328 
L 145.614545 148.943719 
L 146.413091 148.335112 
L 147.211636 147.427465 
L 148.010182 146.22078 
L 149.074909 144.146786 
L 150.139636 141.541144 
L 151.204364 138.403937 
L 152.535273 133.73483 
L 153.866182 128.235139 
L 155.463273 120.539166 
L 157.060364 111.647014 
L 158.657455 101.558789 
L 160.520727 88.277518 
L 162.384 73.36817 
L 164.513455 54.335568 
L 165.045818 49.24509 
L 165.312 48.801284 
L 167.441455 49.286954 
L 169.570909 49.977428 
L 171.966545 50.999113 
L 174.362182 52.280062 
L 176.757818 53.820297 
L 179.153455 55.619776 
L 181.549091 57.678541 
L 184.210909 60.270082 
L 186.872727 63.181762 
L 189.534545 66.413538 
L 192.462545 70.33817 
L 195.390545 74.650122 
L 198.318545 79.349331 
L 201.512727 84.917478 
L 204.706909 90.94654 
L 207.901091 97.436559 
L 211.361455 104.987515 
L 214.821818 113.079394 
L 218.548364 122.398745 
L 222.274909 132.34542 
L 226.001455 142.919503 
L 229.994182 154.94506 
L 233.986909 167.690776 
L 237.979636 181.156651 
L 242.238545 196.31412 
L 246.497455 212.290995 
L 251.022545 230.164279 
L 255.547636 248.96259 
L 260.072727 268.685964 
L 264.864 290.577712 
L 267.792 304.345134 
L 271.252364 283.506159 
L 274.446545 265.596234 
L 277.640727 248.959039 
L 280.568727 234.826472 
L 283.496727 221.763553 
L 286.158545 210.816125 
L 288.820364 200.752717 
L 291.482182 191.573245 
L 293.877818 184.067506 
L 296.273455 177.277664 
L 298.402909 171.84339 
L 300.532364 166.974816 
L 302.661818 162.67193 
L 304.525091 159.370987 
L 306.388364 156.503156 
L 308.251636 154.068456 
L 309.848727 152.32632 
L 311.445818 150.902358 
L 313.042909 149.796654 
L 314.373818 149.118296 
L 315.704727 148.660911 
L 317.035636 148.424541 
L 318.366545 148.409125 
L 319.697455 148.614702 
L 321.028364 149.041254 
L 322.359273 149.688779 
L 323.690182 150.557298 
L 325.287273 151.891225 
L 326.884364 153.543367 
L 328.481455 155.513746 
L 330.344727 158.214667 
L 332.208 161.348699 
L 334.071273 164.915884 
L 336.200727 169.523 
L 338.330182 174.695878 
L 340.459636 180.434403 
L 342.855273 187.566558 
L 345.250909 195.4146 
L 347.912727 204.974404 
L 350.574545 215.418134 
L 353.236364 226.7458 
L 356.164364 240.227175 
L 357.495273 246.484564 
L 359.890909 236.738913 
L 362.286545 227.869991 
L 364.682182 219.877934 
L 366.811636 213.509964 
L 368.941091 207.834715 
L 370.804364 203.437219 
L 372.667636 199.570076 
L 374.530909 196.233349 
L 376.128 193.795463 
L 377.725091 191.747258 
L 379.322182 190.088776 
L 380.653091 189.004349 
L 381.984 188.19055 
L 383.314909 187.64737 
L 384.645818 187.374799 
L 385.976727 187.372845 
L 387.307636 187.641511 
L 388.638545 188.180774 
L 389.969455 188.990676 
L 391.300364 190.071176 
L 392.631273 191.422316 
L 394.228364 193.400873 
L 395.825455 195.769122 
L 397.422545 198.527073 
L 399.285818 202.237145 
L 401.149091 206.477664 
L 403.012364 211.248609 
L 405.141818 217.350535 
L 407.271273 224.145297 
L 409.666909 232.617435 
L 412.062545 241.966345 
L 414.458182 252.192172 
L 417.12 264.582426 
L 419.781818 278.055163 
L 422.709818 294.125432 
L 425.637818 311.505456 
L 426.436364 316.472727 
L 426.436364 316.472727 
" clip-path="url(#p38f2189ef1)" style="fill: none; stroke-dasharray: 11.1,4.8; stroke-dashoffset: 0; stroke: #000000; stroke-width: 3"/>
   </g>
   <g id="line2d_2">
    <path d="M 27.163636 202.21826 
L 35.415273 202.467634 
L 46.861091 202.600138 
L 58.040727 202.276501 
L 71.616 201.709152 
L 77.472 201.215262 
L 79.069091 200.962191 
L 83.860364 199.620149 
L 88.385455 198.125757 
L 92.644364 196.487725 
L 95.572364 195.187923 
L 95.838545 194.933578 
L 100.629818 186.41475 
L 105.154909 178.528239 
L 107.816727 174.322283 
L 109.946182 171.339786 
L 111.809455 169.081397 
L 112.075636 168.951869 
L 112.608 169.26924 
L 114.205091 170.60327 
L 116.068364 172.456771 
L 118.464 175.197184 
L 121.924364 179.574908 
L 127.248 186.326678 
L 128.312727 187.554849 
L 129.909818 188.265493 
L 131.506909 188.751894 
L 133.104 189.017039 
L 134.701091 189.060072 
L 136.298182 188.879886 
L 137.895273 188.475144 
L 139.492364 187.844206 
L 141.089455 186.985202 
L 142.686545 185.89599 
L 144.283636 184.568081 
L 144.549818 184.322749 
L 144.816 183.81715 
L 146.146909 179.460118 
L 148.010182 172.630408 
L 149.873455 164.919017 
L 151.736727 156.242512 
L 153.6 146.514033 
L 155.463273 135.645234 
L 157.326545 123.549968 
L 159.189818 110.13638 
L 160.786909 97.383729 
L 162.384 81.850774 
L 163.981091 68.705747 
L 165.312 59.408895 
L 166.642909 51.482756 
L 167.973818 44.780349 
L 169.304727 39.167185 
L 170.635636 34.509337 
L 171.966545 30.676642 
L 173.297455 27.527527 
L 174.628364 24.928904 
L 176.225455 22.349792 
L 176.491636 21.977033 
L 176.757818 21.927273 
L 178.354909 23.426668 
L 179.952 25.257419 
L 181.282909 27.127193 
L 182.613818 29.391953 
L 183.944727 32.122935 
L 185.275636 35.392668 
L 186.606545 39.273577 
L 187.937455 43.844606 
L 189.268364 49.171558 
L 190.599273 55.325082 
L 192.196364 63.899769 
L 192.462545 65.569146 
L 194.059636 82.457627 
L 195.656727 96.9887 
L 197.253818 109.552611 
L 198.850909 120.431541 
L 200.448 129.903889 
L 202.311273 139.539785 
L 204.440727 149.208624 
L 207.368727 161.241471 
L 208.965818 167.360026 
L 210.829091 171.03518 
L 212.692364 174.205863 
L 214.555636 176.911693 
L 216.152727 178.879754 
L 217.749818 180.540012 
L 219.346909 181.908041 
L 220.944 182.999299 
L 222.541091 183.829392 
L 224.138182 184.413088 
L 225.735273 184.766472 
L 227.864727 184.623314 
L 232.922182 184.359724 
L 236.116364 184.40844 
L 238.778182 184.659317 
L 241.173818 185.097097 
L 242.770909 185.532934 
L 243.835636 186.191771 
L 247.562182 188.461284 
L 251.022545 190.308057 
L 254.216727 191.753828 
L 257.144727 192.831863 
L 259.806545 193.585927 
L 260.338909 193.545672 
L 261.936 193.030015 
L 263.533091 192.296037 
L 265.130182 191.335737 
L 266.727273 190.140489 
L 268.324364 188.701298 
L 270.187636 186.701297 
L 272.050909 184.340255 
L 273.914182 181.602474 
L 275.777455 178.472024 
L 277.374545 175.398459 
L 280.302545 169.299258 
L 282.698182 164.767941 
L 284.827636 161.145357 
L 286.957091 157.954024 
L 288.820364 155.553019 
L 290.417455 153.811468 
L 292.014545 152.383391 
L 293.345455 151.447523 
L 293.611636 151.288926 
L 294.410182 151.360307 
L 296.539636 151.819154 
L 298.669091 152.508146 
L 300.798545 153.444098 
L 302.928 154.643096 
L 305.057455 156.121309 
L 307.186909 157.894571 
L 309.316364 159.978508 
L 310.381091 161.246944 
L 314.373818 167.02092 
L 318.366545 172.400598 
L 322.359273 177.416477 
L 326.618182 182.398338 
L 329.28 185.30351 
L 331.941818 187.85745 
L 334.603636 190.085256 
L 337.265455 192.011913 
L 339.927273 193.662133 
L 342.589091 195.060411 
L 343.387636 195.352609 
L 347.912727 196.172183 
L 351.905455 196.674962 
L 355.632 196.913003 
L 359.092364 196.899278 
L 362.020364 196.673729 
L 370.272 195.827102 
L 381.185455 194.630872 
L 384.379636 194.635092 
L 387.307636 194.842926 
L 390.235636 195.269624 
L 392.897455 195.866282 
L 393.962182 196.251565 
L 399.552 198.360027 
L 404.609455 200.038574 
L 409.400727 201.402738 
L 410.731636 201.639536 
L 416.321455 202.196649 
L 422.177455 202.549345 
L 426.436364 202.668292 
L 426.436364 202.668292 
" clip-path="url(#p38f2189ef1)" style="fill: none; stroke-dasharray: 3,4.95; stroke-dashoffset: 0; stroke: #ffa500; stroke-width: 3"/>
   </g>
   <g id="line2d_3">
    <path d="M 27.163636 199.942209 
L 30.357818 201.25583 
L 33.552 202.331619 
L 36.746182 203.174486 
L 39.940364 203.78913 
L 43.134545 204.181777 
L 44.731636 204.247643 
L 52.983273 202.650212 
L 55.378909 201.885327 
L 57.508364 200.976218 
L 59.371636 199.960174 
L 62.299636 198.22748 
L 65.493818 198.329256 
L 69.220364 198.683445 
L 73.213091 199.290673 
L 77.738182 200.046345 
L 82.263273 199.63026 
L 84.392727 199.222718 
L 86.256 198.660695 
L 88.119273 197.878075 
L 89.982545 196.848014 
L 91.845818 195.544044 
L 96.104727 192.127622 
L 97.435636 190.223234 
L 101.694545 184.252141 
L 104.888727 180.136241 
L 107.550545 177.033482 
L 109.68 174.831913 
L 111.543273 173.425938 
L 112.075636 173.18468 
L 112.874182 173.622637 
L 114.737455 174.94334 
L 116.866909 176.739226 
L 119.528727 179.309439 
L 123.255273 183.266868 
L 128.046545 188.344227 
L 128.578909 188.564449 
L 130.708364 188.954672 
L 132.571636 189.080701 
L 134.434909 188.996118 
L 136.298182 188.691418 
L 138.161455 188.15651 
L 140.024727 187.380825 
L 141.621818 186.515711 
L 142.154182 185.913935 
L 142.952727 184.422436 
L 144.017455 181.813368 
L 144.816 179.35007 
L 146.146909 173.341062 
L 147.744 165.143751 
L 149.873455 152.964674 
L 152.801455 134.743709 
L 159.189818 94.24391 
L 160.786909 86.16797 
L 162.650182 75.350206 
L 164.513455 65.944412 
L 166.376727 57.729366 
L 168.24 50.477073 
L 170.369455 43.077173 
L 173.031273 34.674305 
L 176.757818 23.48493 
L 177.290182 22.620526 
L 177.556364 22.683028 
L 178.621091 24.214866 
L 180.218182 27.152052 
L 181.815273 30.523059 
L 183.678545 35.011155 
L 185.541818 40.099669 
L 187.405091 45.795182 
L 189.534545 53.050587 
L 191.664 61.099642 
L 192.462545 64.377271 
L 194.059636 74.496476 
L 196.189091 86.142045 
L 205.505455 138.674838 
L 210.030545 164.572516 
L 212.16 174.805446 
L 212.692364 175.801728 
L 214.289455 177.890491 
L 215.886545 179.645788 
L 217.483636 181.091224 
L 219.080727 182.250552 
L 220.677818 183.147064 
L 222.274909 183.80376 
L 223.872 184.244161 
L 225.735273 184.516148 
L 228.130909 184.392501 
L 238.245818 183.650804 
L 241.44 183.761562 
L 243.037091 183.952872 
L 246.763636 185.163485 
L 249.957818 186.606728 
L 256.612364 189.632926 
L 259.274182 190.592798 
L 260.072727 190.811202 
L 261.137455 190.625052 
L 262.734545 190.149137 
L 264.065455 189.590436 
L 265.928727 188.373327 
L 268.058182 186.677232 
L 270.453818 184.448778 
L 273.381818 181.380487 
L 276.842182 177.408121 
L 278.705455 174.789883 
L 281.101091 171.517852 
L 288.554182 163.374897 
L 292.280727 159.633386 
L 293.611636 159.19006 
L 294.676364 159.319431 
L 296.539636 159.781537 
L 298.136727 160.393236 
L 300 161.399232 
L 301.863273 162.677695 
L 303.726545 164.21346 
L 305.856 166.263618 
L 314.107636 174.980629 
L 321.826909 184.317652 
L 324.488727 187.218657 
L 325.553455 188.026575 
L 326.618182 188.497162 
L 327.416727 188.651497 
L 328.215273 188.62881 
L 329.28 188.33913 
L 330.344727 187.775917 
L 330.877091 187.325467 
L 332.474182 185.479905 
L 334.337455 182.966534 
L 337.265455 178.577853 
L 339.927273 174.537094 
L 340.193455 174.364042 
L 340.459636 174.772649 
L 342.855273 181.280508 
L 344.718545 185.72557 
L 346.848 190.346276 
L 348.445091 193.268087 
L 350.042182 195.774084 
L 351.639273 197.848015 
L 352.970182 199.232641 
L 354.301091 200.29293 
L 355.365818 200.900242 
L 356.430545 201.28729 
L 358.56 201.678454 
L 361.221818 201.990758 
L 363.883636 202.091385 
L 369.473455 202.001141 
L 372.933818 201.732747 
L 373.998545 201.527524 
L 379.056 197.880561 
L 380.653091 197.144379 
L 381.984 196.757164 
L 383.314909 196.60214 
L 384.645818 196.703999 
L 385.710545 196.986619 
L 386.775273 197.461071 
L 387.84 198.139387 
L 389.170909 199.291717 
L 391.034182 201.077138 
L 393.163636 201.622135 
L 395.026909 202.382779 
L 397.422545 203.447016 
L 399.552 204.145575 
L 401.415273 204.53724 
L 403.278545 204.702542 
L 405.141818 204.623557 
L 407.005091 204.288316 
L 408.069818 204.038577 
L 411.796364 204.409791 
L 413.925818 204.248019 
L 416.055273 203.868512 
L 418.184727 203.274632 
L 420.314182 202.468448 
L 422.709818 201.311961 
L 425.105455 199.894371 
L 426.436364 198.994391 
L 426.436364 198.994391 
" clip-path="url(#p38f2189ef1)" style="fill: none; stroke: #ffa500; stroke-width: 3; stroke-linecap: square"/>
   </g>
   <g id="patch_3">
    <path d="M 7.2 331.2 
L 7.2 7.2 
" style="fill: none; stroke: #000000; stroke-width: 0.8; stroke-linejoin: miter; stroke-linecap: square"/>
   </g>
   <g id="patch_4">
    <path d="M 446.4 331.2 
L 446.4 7.2 
" style="fill: none; stroke: #000000; stroke-width: 0.8; stroke-linejoin: miter; stroke-linecap: square"/>
   </g>
   <g id="patch_5">
    <path d="M 7.2 331.2 
L 446.4 331.2 
" style="fill: none; stroke: #000000; stroke-width: 0.8; stroke-linejoin: miter; stroke-linecap: square"/>
   </g>
   <g id="patch_6">
    <path d="M 7.2 7.2 
L 446.4 7.2 
" style="fill: none; stroke: #000000; stroke-width: 0.8; stroke-linejoin: miter; stroke-linecap: square"/>
   </g>
  </g>
 </g>
 <defs>
  <clipPath id="p38f2189ef1">
   <rect x="7.2" y="7.2" width="439.2" height="324"/>
  </clipPath>
 </defs>
</svg>
