<?xml version="1.0" encoding="utf-8" standalone="no"?>
<!DOCTYPE svg PUBLIC "-//W3C//DTD SVG 1.1//EN"
  "http://www.w3.org/Graphics/SVG/1.1/DTD/svg11.dtd">
<svg xmlns:xlink="http://www.w3.org/1999/xlink" width="453.6pt" height="338.4pt" viewBox="0 0 453.6 338.4" xmlns="http://www.w3.org/2000/svg" version="1.1">
 <metadata>
  <rdf:RDF xmlns:dc="http://purl.org/dc/elements/1.1/" xmlns:cc="http://creativecommons.org/ns#" xmlns:rdf="http://www.w3.org/1999/02/22-rdf-syntax-ns#">
   <cc:Work>
    <dc:type rdf:resource="http://purl.org/dc/dcmitype/StillImage"/>
    <dc:date>2025-05-14T00:23:40.946689</dc:date>
    <dc:format>image/svg+xml</dc:format>
    <dc:creator>
     <cc:Agent>
      <dc:title>Matplotlib v3.10.1, https://matplotlib.org/</dc:title>
     </cc:Agent>
    </dc:creator>
   </cc:Work>
  </rdf:RDF>
 </metadata>
 <defs>
  <style type="text/css">*{stroke-linejoin: round; stroke-linecap: butt}</style>
 </defs>
 <g id="figure_1">
  <g id="patch_1">
   <path d="M 0 338.4 
L 453.6 338.4 
L 453.6 0 
L 0 0 
z
" style="fill: #ffffff"/>
  </g>
  <g id="axes_1">
   <g id="patch_2">
    <path d="M 7.2 331.2 
L 446.4 331.2 
L 446.4 7.2 
L 7.2 7.2 
z
" style="fill: #ffffff"/>
   </g>
   <g id="matplotlib.axis_1"/>
   <g id="matplotlib.axis_2"/>
   <g id="line2d_1">
    <path d="M 27.163636 316.472727 
L 32.753455 314.122801 
L 38.343273 311.534565 
L 43.933091 308.708022 
L 49.789091 305.491279 
L 55.645091 302.012991 
L 61.501091 298.27316 
L 67.357091 294.271779 
L 73.213091 290.008857 
L 79.335273 285.272516 
L 85.457455 280.250312 
L 91.579636 274.942242 
L 97.701818 269.348323 
L 104.090182 263.206395 
L 110.478545 256.753218 
L 116.866909 249.988777 
L 123.521455 242.611501 
L 130.176 234.89649 
L 136.830545 226.843742 
L 143.751273 218.11059 
L 150.672 209.012158 
L 157.592727 199.548423 
L 162.384 192.950334 
L 164.513455 196.316428 
L 166.376727 198.871374 
L 168.24 201.061913 
L 170.103273 202.888066 
L 171.700364 204.1633 
L 173.297455 205.170844 
L 174.894545 205.910638 
L 176.491636 206.382743 
L 178.088727 206.587149 
L 179.419636 206.552952 
L 181.016727 206.266536 
L 182.613818 205.71238 
L 184.210909 204.890535 
L 185.808 203.80096 
L 187.405091 202.443654 
L 189.002182 200.81865 
L 190.865455 198.584459 
L 192.728727 195.985872 
L 194.592 193.022869 
L 196.721455 189.1904 
L 198.850909 184.882019 
L 200.980364 180.097677 
L 203.376 174.14642 
L 205.771636 167.592775 
L 208.433455 159.604497 
L 211.095273 150.872567 
L 213.757091 141.396966 
L 216.685091 130.114894 
L 219.613091 117.932987 
L 222.807273 103.617361 
L 226.001455 88.230938 
L 229.195636 71.773534 
L 232.656 52.736392 
L 233.720727 46.847696 
L 237.447273 51.327822 
L 241.173818 56.164223 
L 244.900364 61.356857 
L 248.893091 67.315798 
L 252.885818 73.683713 
L 256.878545 80.460622 
L 261.137455 88.140094 
L 265.396364 96.284984 
L 269.655273 104.89515 
L 274.180364 114.553377 
L 278.705455 124.736947 
L 283.496727 136.092093 
L 288.288 148.036315 
L 293.079273 160.569367 
L 297.870545 173.238004 
L 300.798545 175.882156 
L 303.726545 178.242395 
L 306.654545 180.318804 
L 309.582545 182.111341 
L 312.244364 183.494599 
L 314.906182 184.643244 
L 317.568 185.557308 
L 320.229818 186.23678 
L 322.891636 186.68164 
L 325.553455 186.891928 
L 328.215273 186.867603 
L 330.877091 186.608677 
L 333.538909 186.115149 
L 336.200727 185.387038 
L 338.862545 184.424346 
L 341.524364 183.227011 
L 344.186182 181.795105 
L 346.848 180.128616 
L 349.776 178.024535 
L 352.704 175.636521 
L 355.632 172.964717 
L 358.56 170.009022 
L 361.754182 166.460892 
L 364.948364 162.57493 
L 368.142545 158.351165 
L 371.602909 153.394171 
L 375.063273 148.040712 
L 378.523636 142.290837 
L 382.250182 135.655213 
L 385.976727 128.559809 
L 389.703273 121.004605 
L 393.696 112.399487 
L 397.688727 103.266542 
L 401.947636 92.942908 
L 406.206545 82.018719 
L 410.465455 70.493954 
L 414.990545 57.590827 
L 419.515636 44.009734 
L 424.306909 28.890756 
L 426.436364 21.927273 
L 426.436364 21.927273 
" clip-path="url(#pefca01d21a)" style="fill: none; stroke-dasharray: 11.1,4.8; stroke-dashoffset: 0; stroke: #000000; stroke-width: 3"/>
   </g>
   <g id="line2d_2">
    <path d="M 27.163636 179.487809 
L 27.962182 180.31971 
L 28.760727 180.872736 
L 29.825455 181.283216 
L 30.890182 181.435258 
L 32.221091 181.390253 
L 34.350545 181.042884 
L 43.933091 179.04125 
L 45.264 177.197896 
L 47.127273 174.14469 
L 47.925818 172.752842 
L 48.192 173.433209 
L 49.256727 179.104757 
L 50.321455 183.477969 
L 51.12 185.83373 
L 51.652364 186.944281 
L 52.184727 187.665236 
L 52.717091 187.986449 
L 53.249455 187.897162 
L 53.781818 187.385232 
L 54.314182 186.438936 
L 54.846545 185.046834 
L 55.645091 182.092034 
L 56.443636 178.077183 
L 57.242182 172.963252 
L 58.306909 164.384535 
L 58.573091 161.912424 
L 58.839273 162.688816 
L 59.637818 167.633414 
L 60.436364 171.166328 
L 61.234909 173.362465 
L 62.033455 174.76272 
L 62.832 175.660357 
L 63.896727 176.429727 
L 65.493818 177.205713 
L 68.688 178.695122 
L 71.083636 180.127599 
L 72.680727 181.330175 
L 74.011636 182.587954 
L 75.342545 184.233202 
L 76.407273 185.9616 
L 76.939636 187.017193 
L 77.205818 187.982175 
L 78.270545 194.244294 
L 79.069091 199.486961 
L 79.335273 199.215038 
L 80.4 194.746738 
L 81.464727 191.448996 
L 82.529455 188.999001 
L 83.594182 187.156645 
L 84.658909 185.754701 
L 85.989818 184.42343 
L 87.586909 183.202351 
L 90.514909 181.08625 
L 91.579636 179.99008 
L 92.378182 178.884414 
L 93.176727 177.402983 
L 95.04 173.03708 
L 96.104727 169.736987 
L 96.370909 170.009887 
L 97.701818 175.08782 
L 98.766545 178.30802 
L 99.831273 180.798012 
L 100.629818 182.195519 
L 101.428364 183.213414 
L 102.226909 183.870241 
L 103.025455 184.183068 
L 103.824 184.174691 
L 104.622545 183.877864 
L 105.421091 183.313927 
L 106.485818 182.213116 
L 107.816727 180.386403 
L 109.68 177.319345 
L 110.478545 176.097818 
L 112.075636 175.211304 
L 112.608 175.266772 
L 113.140364 175.609174 
L 115.536 177.519506 
L 117.931636 179.193627 
L 119.794909 180.248457 
L 121.392 180.889112 
L 122.722909 181.163437 
L 123.787636 181.169309 
L 124.852364 180.950228 
L 125.917091 180.473787 
L 127.248 179.688672 
L 130.176 179.237289 
L 132.305455 178.68183 
L 133.902545 178.055923 
L 135.499636 177.178864 
L 136.830545 176.212691 
L 138.161455 175.007052 
L 139.758545 173.24175 
L 140.290909 172.725281 
L 140.823273 172.566451 
L 141.355636 172.786041 
L 141.888 173.422574 
L 142.420364 174.503396 
L 142.952727 176.040427 
L 144.017455 179.433308 
L 147.477818 187.0887 
L 152.269091 197.609391 
L 153.866182 200.569117 
L 154.930909 202.054079 
L 155.729455 202.74035 
L 155.995636 202.854613 
L 156.261818 202.804448 
L 156.794182 201.306947 
L 158.125091 197.37598 
L 159.189818 194.919145 
L 159.988364 193.513426 
L 160.254545 193.129631 
L 163.714909 192.95472 
L 166.376727 192.565868 
L 172.498909 191.450482 
L 175.959273 191.157827 
L 176.757818 190.763051 
L 177.556364 190.196987 
L 179.685818 193.562563 
L 181.016727 195.164933 
L 182.347636 196.425338 
L 183.678545 197.406614 
L 185.275636 198.3105 
L 187.405091 199.234416 
L 191.131636 200.589065 
L 191.930182 199.964379 
L 192.994909 198.740114 
L 193.527273 198.021316 
L 195.124364 194.48081 
L 196.987636 190.468615 
L 198.052364 188.634076 
L 198.850909 187.587236 
L 199.649455 186.866097 
L 200.448 186.50621 
L 200.980364 186.482252 
L 201.512727 186.640645 
L 202.045091 186.989021 
L 202.843636 187.883931 
L 203.642182 189.24776 
L 204.440727 191.106573 
L 205.239273 193.489325 
L 206.304 197.539665 
L 206.570182 198.489574 
L 207.901091 196.870136 
L 209.232 195.58271 
L 210.296727 194.758625 
L 213.757091 193.489101 
L 216.951273 192.260817 
L 218.814545 191.324484 
L 220.411636 190.247437 
L 221.742545 189.034327 
L 222.807273 187.751074 
L 223.872 186.075558 
L 224.936727 183.858954 
L 225.735273 181.722396 
L 226.533818 179.060231 
L 226.8 178.034316 
L 227.598545 176.913068 
L 228.397091 175.417725 
L 229.195636 173.51578 
L 229.994182 171.154451 
L 230.792727 168.807738 
L 231.058909 168.749533 
L 232.389818 169.576833 
L 233.720727 170.148067 
L 235.584 170.652882 
L 237.181091 171.134829 
L 238.245818 171.704781 
L 239.044364 172.366096 
L 239.842909 173.288902 
L 240.641455 174.53683 
L 241.44 176.145367 
L 242.504727 178.918386 
L 243.303273 181.486166 
L 243.835636 184.289433 
L 244.900364 191.677817 
L 245.166545 193.450854 
L 245.698909 193.474242 
L 246.231273 193.264219 
L 247.029818 192.61188 
L 248.094545 191.318429 
L 249.691636 188.92385 
L 252.619636 184.472394 
L 254.216727 182.432401 
L 255.547636 181.041968 
L 256.878545 179.9746 
L 257.943273 179.377138 
L 259.008 179.030797 
L 260.072727 178.971187 
L 260.605091 179.274641 
L 260.871273 179.969012 
L 261.669818 182.623657 
L 262.202182 183.76759 
L 262.734545 184.471875 
L 263.266909 184.793963 
L 263.799273 184.785445 
L 264.331636 184.49105 
L 264.864 183.952536 
L 265.662545 182.770814 
L 266.727273 180.682335 
L 268.324364 176.917902 
L 271.518545 169.237769 
L 272.583273 167.177929 
L 273.115636 166.663048 
L 273.648 166.435082 
L 274.180364 166.443702 
L 274.712727 166.646846 
L 275.511273 167.23358 
L 276.576 168.371478 
L 277.108364 169.483352 
L 279.237818 174.571871 
L 280.036364 175.783892 
L 280.568727 176.215938 
L 281.101091 176.30718 
L 281.633455 176.036417 
L 282.165818 175.368751 
L 282.698182 174.319641 
L 283.496727 171.995349 
L 284.295273 168.835115 
L 285.36 163.38843 
L 285.892364 160.381999 
L 286.158545 159.957342 
L 287.223273 161.916963 
L 288.288 163.336819 
L 289.352727 164.364108 
L 290.417455 165.115617 
L 291.748364 165.783904 
L 293.877818 166.718394 
L 296.273455 168.63875 
L 297.338182 169.834915 
L 298.136727 171.042753 
L 298.935273 172.620218 
L 299.733818 174.664303 
L 300.532364 177.270024 
L 301.330909 180.525143 
L 302.395636 186.012223 
L 303.194182 191.051309 
L 304.525091 186.710676 
L 305.323636 185.030601 
L 306.122182 183.931988 
L 306.920727 183.283629 
L 307.719273 182.953704 
L 308.784 182.827421 
L 313.042909 182.970039 
L 315.172364 182.953928 
L 316.503273 182.719743 
L 317.301818 182.396434 
L 318.100364 181.852211 
L 318.898909 181.003151 
L 319.697455 179.734644 
L 320.496 177.911117 
L 321.294545 175.376536 
L 322.093091 171.949692 
L 322.625455 169.324451 
L 322.891636 168.809712 
L 323.424 168.426284 
L 323.956364 168.242977 
L 324.488727 168.254711 
L 325.021091 168.437724 
L 325.819636 168.987982 
L 326.884364 170.075562 
L 328.481455 171.744269 
L 329.28 172.28149 
L 329.812364 172.433359 
L 330.344727 172.374716 
L 330.877091 172.066571 
L 331.409455 171.470769 
L 331.941818 170.550069 
L 332.474182 169.267823 
L 333.272727 166.592203 
L 334.071273 162.900346 
L 334.337455 163.204959 
L 335.136 169.976331 
L 335.934545 174.883741 
L 336.733091 178.202856 
L 337.265455 179.66618 
L 337.797818 180.615051 
L 338.330182 181.114106 
L 338.862545 181.243015 
L 339.394909 181.073477 
L 339.927273 180.673175 
L 340.725818 179.781675 
L 342.589091 177.483895 
L 343.121455 177.049508 
L 343.653818 176.840919 
L 344.186182 176.803609 
L 344.718545 176.959803 
L 345.250909 177.364329 
L 345.783273 178.059973 
L 346.315636 179.099658 
L 347.114182 181.022244 
L 347.912727 181.906294 
L 348.711273 182.434212 
L 349.509818 182.65539 
L 350.308364 182.6353 
L 351.373091 182.366369 
L 352.970182 181.907963 
L 353.768727 181.903831 
L 354.301091 182.073613 
L 354.833455 182.432961 
L 355.365818 183.028702 
L 355.898182 183.910086 
L 356.430545 185.129018 
L 357.229091 187.710262 
L 358.027636 191.368553 
L 358.293818 192.865901 
L 358.56 193.633419 
L 359.358545 188.379434 
L 359.890909 185.87386 
L 360.423273 184.137421 
L 360.955636 183.041444 
L 361.488 182.465498 
L 362.020364 182.296816 
L 362.552727 182.44669 
L 363.085091 182.830841 
L 363.883636 183.695819 
L 367.077818 187.651843 
L 367.876364 188.262698 
L 368.674909 188.610759 
L 369.473455 188.672954 
L 370.272 188.441985 
L 371.070545 187.924397 
L 371.869091 187.107844 
L 372.667636 186.327065 
L 374.530909 185.119654 
L 379.322182 182.565849 
L 380.120727 182.453733 
L 380.919273 182.56134 
L 381.717818 182.927741 
L 382.516364 183.591265 
L 383.314909 184.589466 
L 384.113455 185.962679 
L 384.912 187.736622 
L 385.976727 190.78306 
L 386.509091 192.611982 
L 387.573818 189.609775 
L 388.372364 188.081426 
L 389.170909 187.093809 
L 389.969455 186.565728 
L 390.768 186.406032 
L 391.566545 186.52743 
L 392.631273 186.987902 
L 393.429818 187.317857 
L 395.026909 187.560449 
L 396.890182 188.088744 
L 401.947636 189.766895 
L 403.544727 189.771526 
L 404.343273 189.620594 
L 405.141818 189.190909 
L 405.940364 188.507488 
L 407.005091 187.268649 
L 408.336 185.339957 
L 409.666909 183.190372 
L 410.199273 181.78796 
L 412.594909 174.938425 
L 414.192 171.106352 
L 415.522909 168.499003 
L 416.853818 166.411165 
L 418.184727 164.791503 
L 419.515636 163.574475 
L 420.846545 162.692429 
L 422.177455 162.082826 
L 423.774545 161.631087 
L 425.637818 161.376251 
L 426.436364 161.327226 
L 426.436364 161.327226 
" clip-path="url(#pefca01d21a)" style="fill: none; stroke-dasharray: 3,4.95; stroke-dashoffset: 0; stroke: #0000ff; stroke-width: 3"/>
   </g>
   <g id="line2d_3">
    <path d="M 27.163636 166.045975 
L 27.962182 166.815386 
L 29.026909 167.507264 
L 31.156364 168.711377 
L 32.221091 169.630581 
L 33.019636 170.573528 
L 34.084364 172.241279 
L 35.149091 174.412989 
L 36.213818 177.084234 
L 37.544727 181.063951 
L 39.141818 185.971106 
L 39.674182 186.417309 
L 40.472727 187.416722 
L 41.537455 189.069867 
L 43.933091 188.365063 
L 47.925818 181.240623 
L 48.192 182.019733 
L 49.256727 188.369837 
L 50.055273 192.143195 
L 50.853818 194.984322 
L 51.386182 196.321446 
L 51.918545 197.186311 
L 52.450909 197.56234 
L 52.717091 197.560325 
L 52.983273 197.431651 
L 53.515636 196.769216 
L 54.048 195.561083 
L 54.580364 193.797562 
L 55.378909 190.094042 
L 56.177455 185.080868 
L 56.976 178.767036 
L 58.040727 168.308683 
L 58.573091 162.216264 
L 58.839273 162.686333 
L 59.637818 166.990754 
L 60.436364 169.802703 
L 60.702545 169.439559 
L 60.968727 169.344368 
L 61.234909 169.043032 
L 61.767273 167.877868 
L 62.299636 166.032133 
L 63.098182 162.142487 
L 63.364364 162.338669 
L 65.227636 165.45288 
L 66.824727 168.644999 
L 68.688 172.934388 
L 71.616 180.372083 
L 74.544 188.449812 
L 76.141091 193.513884 
L 76.939636 196.41228 
L 77.472 199.29544 
L 78.536727 206.687581 
L 79.069091 210.587201 
L 79.335273 210.340559 
L 80.133818 206.774934 
L 81.198545 203.280593 
L 82.529455 199.896372 
L 85.989818 191.706945 
L 87.320727 187.676218 
L 88.651636 182.811422 
L 89.982545 177.04332 
L 91.579636 168.951679 
L 93.176727 159.702842 
L 93.975273 155.288606 
L 95.306182 149.162031 
L 96.104727 145.004797 
L 96.370909 144.912507 
L 96.637091 146.181868 
L 99.032727 164.569725 
L 100.097455 170.231299 
L 100.896 173.474347 
L 101.694545 175.953673 
L 102.493091 177.779145 
L 103.291636 179.0774 
L 104.090182 180.005753 
L 106.219636 181.9823 
L 107.284364 181.794453 
L 107.816727 181.9823 
L 108.349091 182.427058 
L 109.147636 184.35064 
L 109.68 184.88266 
L 109.946182 184.926159 
L 111.277091 184.480974 
L 112.075636 184.324586 
L 112.874182 184.835854 
L 114.205091 186.369414 
L 115.269818 187.224621 
L 116.068364 187.606838 
L 116.866909 187.772151 
L 117.665455 187.737782 
L 118.464 187.552887 
L 118.730182 187.210749 
L 120.593455 183.578899 
L 121.924364 181.503783 
L 122.989091 180.280302 
L 124.053818 179.449674 
L 125.118545 178.943047 
L 127.248 178.322126 
L 127.780364 178.375619 
L 128.312727 178.670665 
L 128.845091 179.206329 
L 129.643636 180.439102 
L 130.442182 182.152336 
L 131.506909 184.888645 
L 131.773091 185.221735 
L 133.370182 183.809583 
L 138.161455 179.021322 
L 140.557091 176.603244 
L 141.089455 176.683504 
L 141.355636 176.889334 
L 141.888 176.226472 
L 142.154182 176.092892 
L 142.420364 176.142202 
L 142.686545 176.371573 
L 143.218909 177.360818 
L 143.751273 178.767291 
L 147.211636 184.65158 
L 148.808727 187.793127 
L 149.873455 190.349762 
L 150.938182 193.495788 
L 152.002909 197.451365 
L 153.333818 203.054285 
L 154.132364 205.62807 
L 154.930909 207.474303 
L 155.463273 208.243744 
L 155.995636 208.584814 
L 156.261818 208.468525 
L 156.528 207.689436 
L 160.254545 192.267493 
L 161.585455 188.019994 
L 163.182545 181.988325 
L 163.981091 178.659674 
L 164.247273 178.765357 
L 165.045818 180.339301 
L 165.844364 181.386915 
L 166.376727 181.810279 
L 166.909091 182.089744 
L 168.506182 183.857651 
L 172.498909 188.037907 
L 174.096 189.475452 
L 175.160727 190.135078 
L 175.959273 190.322548 
L 176.491636 190.224701 
L 177.024 189.992847 
L 177.556364 189.928881 
L 180.484364 197.073076 
L 182.347636 200.816899 
L 184.210909 204.209424 
L 185.009455 206.854451 
L 185.275636 207.01719 
L 186.606545 205.408479 
L 187.937455 204.109308 
L 189.268364 203.134993 
L 190.333091 202.595676 
L 191.131636 202.205439 
L 192.196364 200.519502 
L 193.527273 198.046282 
L 194.858182 194.224886 
L 197.253818 187.21025 
L 198.318545 184.735789 
L 199.117091 183.315108 
L 199.915636 182.332498 
L 200.181818 182.074121 
L 202.045091 178.927852 
L 202.577455 178.500314 
L 203.109818 178.321627 
L 203.642182 178.402478 
L 204.174545 178.755597 
L 204.706909 179.390115 
L 204.973091 179.817082 
L 205.239273 181.247096 
L 206.570182 194.727157 
L 207.368727 197.099263 
L 208.167273 198.896339 
L 209.232 200.651545 
L 209.764364 201.354649 
L 210.829091 200.566512 
L 211.893818 199.771484 
L 212.958545 198.7003 
L 214.555636 196.720354 
L 218.548364 191.465494 
L 219.613091 190.551257 
L 220.411636 190.205079 
L 220.944 190.196825 
L 221.476364 190.39778 
L 222.008727 190.880215 
L 222.541091 191.551565 
L 222.807273 191.647804 
L 223.339636 191.427175 
L 223.872 190.741363 
L 224.404364 189.556536 
L 224.936727 187.854844 
L 225.735273 184.287886 
L 226.533818 179.435313 
L 226.8 177.52432 
L 227.598545 174.88544 
L 228.663273 170.487172 
L 229.728 165.14333 
L 230.792727 159.534588 
L 231.058909 158.999219 
L 231.325091 158.762225 
L 231.857455 157.629904 
L 232.922182 155.117796 
L 233.720727 153.720249 
L 234.253091 153.110157 
L 234.785455 152.805646 
L 235.317818 152.850386 
L 235.850182 153.191883 
L 236.382545 153.127082 
L 236.914909 153.279816 
L 237.447273 153.657667 
L 237.979636 154.254783 
L 238.778182 155.577159 
L 239.576727 157.409531 
L 240.375273 159.761699 
L 241.44 163.703007 
L 242.504727 168.559559 
L 243.569455 174.501442 
L 244.634182 183.428109 
L 245.166545 188.258464 
L 245.698909 188.964113 
L 246.231273 189.425175 
L 246.497455 189.576036 
L 247.296 188.100845 
L 249.159273 184.138734 
L 251.554909 178.588329 
L 253.152 174.338795 
L 254.482909 170.726201 
L 255.281455 169.502211 
L 256.08 168.754703 
L 256.612364 168.516488 
L 257.144727 168.47704 
L 257.677091 168.63642 
L 258.209455 168.989091 
L 259.008 169.855891 
L 259.806545 171.118871 
L 260.605091 172.704956 
L 261.137455 175.402326 
L 261.936 179.18232 
L 262.734545 181.90263 
L 263.533091 183.7521 
L 264.331636 184.888777 
L 264.864 185.325749 
L 265.396364 185.546856 
L 265.928727 185.58435 
L 266.727273 185.36076 
L 267.525818 184.863974 
L 267.792 184.650888 
L 269.122909 185.172781 
L 269.655273 185.056798 
L 270.187636 184.773903 
L 270.986182 184.074809 
L 272.050909 182.755894 
L 272.583273 182.112847 
L 273.115636 181.796794 
L 273.648 181.674949 
L 274.446545 181.775564 
L 275.245091 182.128419 
L 276.309818 182.872681 
L 276.576 183.096566 
L 276.842182 183.591305 
L 279.237818 190.507595 
L 279.770182 191.181999 
L 280.302545 191.506031 
L 280.834909 191.455103 
L 281.367273 190.990641 
L 281.899636 190.10599 
L 282.432 188.79712 
L 283.230545 186.031845 
L 284.029091 182.379325 
L 284.827636 177.911829 
L 285.36 173.87414 
L 285.892364 168.242916 
L 286.158545 166.644698 
L 287.755636 164.030458 
L 288.820364 162.725557 
L 289.618909 162.051296 
L 290.417455 161.639412 
L 291.216 161.470302 
L 292.014545 161.503745 
L 293.079273 161.767272 
L 293.345455 161.859216 
L 293.877818 162.702576 
L 295.474909 166.713407 
L 296.273455 169.76987 
L 297.072 173.756692 
L 298.136727 180.348838 
L 299.467636 190.363492 
L 300.532364 199.653038 
L 301.597091 198.331547 
L 301.863273 198.331975 
L 302.129455 198.48822 
L 302.661818 199.296967 
L 303.194182 200.73729 
L 304.525091 190.992432 
L 305.323636 186.749412 
L 306.122182 183.518292 
L 306.920727 181.114696 
L 307.719273 179.352621 
L 308.517818 178.079585 
L 309.316364 177.24457 
L 311.179636 176.591244 
L 311.712 176.798632 
L 312.244364 177.314704 
L 312.776727 178.166278 
L 313.309091 179.377505 
L 314.107636 181.899628 
L 314.906182 185.316864 
L 315.704727 189.672356 
L 316.769455 196.983188 
L 317.301818 201.267804 
L 317.568 201.633605 
L 319.165091 194.134998 
L 320.496 186.860947 
L 321.560727 180.001804 
L 322.891636 171.098159 
L 323.424 169.886932 
L 323.956364 169.12148 
L 324.488727 168.70295 
L 325.021091 168.52582 
L 325.553455 168.595597 
L 326.085818 168.875103 
L 326.618182 169.328491 
L 329.28 173.003758 
L 329.812364 173.411643 
L 330.344727 173.594981 
L 330.877091 173.506976 
L 331.409455 173.101972 
L 331.941818 172.336581 
L 332.474182 171.174654 
L 333.006545 169.568538 
L 333.805091 166.246492 
L 334.071273 164.87847 
L 334.337455 165.33194 
L 335.136 173.160533 
L 335.934545 178.926651 
L 336.733091 182.938 
L 337.265455 184.791134 
L 337.797818 186.077828 
L 338.330182 186.880264 
L 338.862545 187.278786 
L 339.394909 187.367188 
L 339.927273 187.211472 
L 340.725818 186.700489 
L 342.322909 185.626719 
L 343.121455 185.425041 
L 343.387636 185.74258 
L 344.186182 187.273514 
L 345.250909 188.745367 
L 346.315636 190.16961 
L 346.848 191.064479 
L 347.114182 191.220551 
L 347.646545 190.959416 
L 348.178909 190.374076 
L 348.977455 189.050856 
L 351.905455 183.44424 
L 352.437818 182.978578 
L 352.970182 182.876864 
L 353.236364 182.981397 
L 353.768727 183.558086 
L 354.301091 184.431704 
L 354.833455 183.780658 
L 355.365818 183.251783 
L 355.898182 183.108412 
L 356.164364 183.194596 
L 356.430545 183.499555 
L 356.962909 184.894202 
L 357.761455 188.060949 
L 358.56 191.536716 
L 359.358545 185.183773 
L 360.157091 180.822601 
L 360.955636 178.06781 
L 361.754182 176.343025 
L 362.552727 175.306627 
L 363.351273 174.717247 
L 364.416 174.325351 
L 366.279273 174.009064 
L 367.344 173.826438 
L 367.876364 176.056792 
L 368.674909 178.846411 
L 369.473455 180.989971 
L 370.272 182.507857 
L 370.804364 183.17991 
L 371.336727 183.583113 
L 371.869091 183.725282 
L 372.933818 183.855982 
L 373.732364 183.869182 
L 374.530909 183.69015 
L 375.329455 183.315637 
L 376.128 182.73907 
L 376.660364 182.136062 
L 377.458909 180.455213 
L 378.523636 177.604692 
L 381.717818 168.447016 
L 381.984 167.824334 
L 382.250182 167.903648 
L 383.048727 170.033834 
L 384.113455 173.605617 
L 385.178182 177.97952 
L 386.509091 184.530783 
L 387.307636 182.97472 
L 388.106182 181.987277 
L 388.638545 181.625608 
L 389.170909 181.462493 
L 389.969455 181.526978 
L 390.768 181.879588 
L 393.163636 183.332583 
L 394.760727 187.492056 
L 398.487273 197.613604 
L 399.285818 199.234935 
L 400.084364 200.372854 
L 400.616727 200.784026 
L 400.882909 200.463077 
L 401.681455 198.267032 
L 402.213818 197.314182 
L 402.746182 196.701617 
L 403.278545 196.465681 
L 404.077091 196.598091 
L 405.674182 196.984705 
L 406.206545 196.874462 
L 406.738909 196.515673 
L 407.271273 195.81548 
L 407.803636 194.691617 
L 408.336 193.049035 
L 408.868364 190.798622 
L 409.666909 186.07624 
L 411.796364 172.276615 
L 412.062545 171.574915 
L 413.925818 169.557832 
L 417.386182 165.411671 
L 421.378909 160.920756 
L 422.443636 159.991691 
L 423.242182 159.527331 
L 423.774545 159.383736 
L 424.306909 159.4178 
L 424.839273 159.67692 
L 425.371636 160.217082 
L 425.904 161.100288 
L 426.436364 162.407764 
L 426.436364 162.407764 
" clip-path="url(#pefca01d21a)" style="fill: none; stroke: #0000ff; stroke-width: 3; stroke-linecap: square"/>
   </g>
   <g id="patch_3">
    <path d="M 7.2 331.2 
L 7.2 7.2 
" style="fill: none; stroke: #000000; stroke-width: 0.8; stroke-linejoin: miter; stroke-linecap: square"/>
   </g>
   <g id="patch_4">
    <path d="M 446.4 331.2 
L 446.4 7.2 
" style="fill: none; stroke: #000000; stroke-width: 0.8; stroke-linejoin: miter; stroke-linecap: square"/>
   </g>
   <g id="patch_5">
    <path d="M 7.2 331.2 
L 446.4 331.2 
" style="fill: none; stroke: #000000; stroke-width: 0.8; stroke-linejoin: miter; stroke-linecap: square"/>
   </g>
   <g id="patch_6">
    <path d="M 7.2 7.2 
L 446.4 7.2 
" style="fill: none; stroke: #000000; stroke-width: 0.8; stroke-linejoin: miter; stroke-linecap: square"/>
   </g>
  </g>
 </g>
 <defs>
  <clipPath id="pefca01d21a">
   <rect x="7.2" y="7.2" width="439.2" height="324"/>
  </clipPath>
 </defs>
</svg>
