<?xml version="1.0" encoding="utf-8" standalone="no"?>
<!DOCTYPE svg PUBLIC "-//W3C//DTD SVG 1.1//EN"
  "http://www.w3.org/Graphics/SVG/1.1/DTD/svg11.dtd">
<svg xmlns:xlink="http://www.w3.org/1999/xlink" width="453.6pt" height="338.4pt" viewBox="0 0 453.6 338.4" xmlns="http://www.w3.org/2000/svg" version="1.1">
 <metadata>
  <rdf:RDF xmlns:dc="http://purl.org/dc/elements/1.1/" xmlns:cc="http://creativecommons.org/ns#" xmlns:rdf="http://www.w3.org/1999/02/22-rdf-syntax-ns#">
   <cc:Work>
    <dc:type rdf:resource="http://purl.org/dc/dcmitype/StillImage"/>
    <dc:date>2025-05-14T00:15:40.551177</dc:date>
    <dc:format>image/svg+xml</dc:format>
    <dc:creator>
     <cc:Agent>
      <dc:title>Matplotlib v3.10.1, https://matplotlib.org/</dc:title>
     </cc:Agent>
    </dc:creator>
   </cc:Work>
  </rdf:RDF>
 </metadata>
 <defs>
  <style type="text/css">*{stroke-linejoin: round; stroke-linecap: butt}</style>
 </defs>
 <g id="figure_1">
  <g id="patch_1">
   <path d="M 0 338.4 
L 453.6 338.4 
L 453.6 0 
L 0 0 
z
" style="fill: #ffffff"/>
  </g>
  <g id="axes_1">
   <g id="patch_2">
    <path d="M 7.2 331.2 
L 446.4 331.2 
L 446.4 7.2 
L 7.2 7.2 
z
" style="fill: #ffffff"/>
   </g>
   <g id="matplotlib.axis_1"/>
   <g id="matplotlib.axis_2"/>
   <g id="line2d_1">
    <path d="M 27.163636 233.128585 
L 37.278545 187.634441 
L 45.530182 150.942583 
L 50.853818 128.206309 
L 55.378909 109.803904 
L 59.371636 94.473236 
L 62.832 82.006687 
L 66.026182 71.272255 
L 68.954182 62.158194 
L 71.616 54.53096 
L 74.277818 47.581145 
L 76.673455 41.945509 
L 78.802909 37.458319 
L 80.932364 33.488457 
L 82.795636 30.458849 
L 84.658909 27.861002 
L 86.256 25.990637 
L 87.853091 24.46029 
L 89.184 23.45222 
L 90.514909 22.693653 
L 91.845818 22.1906 
L 93.176727 21.949196 
L 94.507636 21.975414 
L 95.838545 22.27543 
L 97.169455 22.855297 
L 98.500364 23.720946 
L 99.831273 24.878594 
L 101.162182 26.334254 
L 102.493091 28.094102 
L 104.090182 30.615749 
L 105.687273 33.594597 
L 107.284364 37.041078 
L 108.881455 40.965662 
L 110.744727 46.162624 
L 112.608 52.041299 
L 114.471273 58.618334 
L 116.600727 67.011498 
L 118.730182 76.363444 
L 120.859636 86.699042 
L 123.255273 99.533299 
L 125.650909 113.679405 
L 128.046545 129.172617 
L 130.442182 146.04854 
L 133.104 166.464221 
L 135.765818 188.679118 
L 138.427636 212.741863 
L 141.089455 238.700884 
L 143.485091 263.72549 
L 143.751273 264.414708 
L 146.413091 240.951249 
L 149.074909 219.364626 
L 151.736727 199.618142 
L 154.132364 183.389615 
L 156.528 168.595357 
L 158.923636 155.208677 
L 161.053091 144.469602 
L 163.182545 134.802956 
L 165.312 126.189924 
L 167.175273 119.50319 
L 169.038545 113.596313 
L 170.901818 108.456655 
L 172.498909 104.652445 
L 174.096 101.394809 
L 175.693091 98.675953 
L 177.024 96.815978 
L 178.354909 95.320091 
L 179.685818 94.183671 
L 180.750545 93.530242 
L 181.815273 93.101609 
L 182.88 92.895464 
L 183.944727 92.909391 
L 185.009455 93.1411 
L 186.074182 93.588281 
L 187.138909 94.248541 
L 188.469818 95.369868 
L 189.800727 96.815957 
L 191.131636 98.582206 
L 192.728727 101.117862 
L 194.325818 104.100003 
L 195.922909 107.520797 
L 197.786182 112.055516 
L 199.649455 117.163925 
L 201.778909 123.688564 
L 203.908364 130.927393 
L 206.304 139.901528 
L 208.699636 149.729205 
L 211.361455 161.617482 
L 214.023273 174.490024 
L 216.951273 189.743039 
L 220.145455 207.63327 
L 223.339636 226.767145 
L 226.8 248.825407 
L 230.526545 274.037559 
L 234.519273 302.615788 
L 236.382545 316.472727 
L 236.914909 311.44193 
L 239.576727 284.88573 
L 241.972364 263.130377 
L 244.368 243.333951 
L 246.763636 225.42644 
L 248.893091 211.037008 
L 251.022545 198.034787 
L 253.152 186.369957 
L 255.281455 175.993028 
L 257.144727 167.930925 
L 259.008 160.783737 
L 260.871273 154.518314 
L 262.734545 149.101606 
L 264.331636 145.109084 
L 265.928727 141.694629 
L 267.525818 138.837586 
L 268.856727 136.86738 
L 270.187636 135.257602 
L 271.518545 133.996165 
L 272.849455 133.070922 
L 273.914182 132.564699 
L 274.978909 132.259836 
L 276.043636 132.149973 
L 277.108364 132.229016 
L 278.439273 132.584025 
L 279.770182 133.212361 
L 281.101091 134.10204 
L 282.432 135.240873 
L 284.029091 136.919326 
L 285.626182 138.918429 
L 287.489455 141.627857 
L 289.618909 145.181133 
L 291.748364 149.174268 
L 294.144 154.130583 
L 296.805818 160.131228 
L 300 167.885708 
L 303.992727 178.186948 
L 318.898909 217.294047 
L 322.093091 224.715482 
L 324.754909 230.36484 
L 327.150545 234.947905 
L 329.28 238.56374 
L 331.143273 241.333396 
L 333.006545 243.700371 
L 334.603636 245.383487 
L 336.200727 246.725521 
L 337.531636 247.568245 
L 337.797818 247.080857 
L 340.992 235.339111 
L 343.92 225.41149 
L 346.848 216.284075 
L 349.509818 208.681587 
L 352.171636 201.741752 
L 354.567273 196.063128 
L 356.962909 190.922366 
L 359.358545 186.319811 
L 361.488 182.681091 
L 363.617455 179.468304 
L 365.746909 176.682021 
L 367.610182 174.594079 
L 369.473455 172.833127 
L 371.336727 171.399268 
L 372.933818 170.430893 
L 374.530909 169.703145 
L 376.128 169.216269 
L 377.725091 168.970428 
L 379.322182 168.965662 
L 380.919273 169.202219 
L 382.516364 169.680158 
L 384.113455 170.399665 
L 385.710545 171.360902 
L 387.307636 172.563971 
L 389.170909 174.273387 
L 391.034182 176.312452 
L 392.897455 178.681371 
L 395.026909 181.792844 
L 397.156364 185.335812 
L 399.285818 189.310522 
L 401.681455 194.298679 
L 404.077091 199.834227 
L 406.472727 205.917658 
L 409.134545 213.320217 
L 411.796364 221.40048 
L 414.458182 230.159165 
L 417.386182 240.577896 
L 420.314182 251.819185 
L 423.508364 265.02155 
L 426.436364 277.985518 
L 426.436364 277.985518 
" clip-path="url(#pb62abbd5c5)" style="fill: none; stroke-dasharray: 11.1,4.8; stroke-dashoffset: 0; stroke: #000000; stroke-width: 3"/>
   </g>
   <g id="line2d_2">
    <path d="M 27.163636 156.534432 
L 27.696 156.475697 
L 28.228364 156.22914 
L 28.760727 155.747642 
L 29.293091 155.002409 
L 30.091636 153.381219 
L 31.156364 150.435623 
L 34.084364 141.536339 
L 34.882909 139.798169 
L 35.681455 138.55524 
L 36.213818 138.021061 
L 36.746182 137.727057 
L 37.278545 137.666195 
L 37.810909 137.819659 
L 38.609455 138.366764 
L 40.472727 139.928074 
L 41.005091 140.057978 
L 41.537455 139.901242 
L 42.069818 139.4114 
L 42.602182 138.575691 
L 43.400727 136.738048 
L 44.731636 132.739636 
L 46.062545 128.938045 
L 46.861091 127.338124 
L 47.393455 126.671422 
L 47.925818 126.35484 
L 48.458182 126.398033 
L 48.990545 126.80149 
L 49.522909 127.560794 
L 50.055273 128.671855 
L 50.853818 130.981997 
L 51.652364 134.028866 
L 52.717091 139.104963 
L 54.314182 148.207939 
L 56.177455 158.679658 
L 56.976 161.9883 
L 57.508364 163.451444 
L 58.040727 164.163302 
L 58.306909 164.20175 
L 58.573091 164.015401 
L 58.839273 163.596728 
L 59.371636 162.055706 
L 59.904 159.599134 
L 60.702545 154.39526 
L 61.767273 145.462599 
L 63.896727 126.72803 
L 64.961455 119.371894 
L 65.76 115.136251 
L 66.558545 111.949498 
L 67.357091 109.684347 
L 68.155636 108.19069 
L 68.688 107.550247 
L 69.220364 107.145645 
L 69.752727 106.938681 
L 70.551273 106.918475 
L 71.349818 107.14499 
L 74.544 108.426449 
L 75.342545 108.379084 
L 76.141091 108.050069 
L 76.939636 107.420997 
L 77.738182 106.510928 
L 78.802909 104.944138 
L 80.932364 101.232121 
L 82.795636 98.185089 
L 83.860364 96.787305 
L 84.925091 95.719273 
L 85.989818 94.987537 
L 87.054545 94.548414 
L 88.385455 94.30292 
L 90.781091 94.221607 
L 92.112 94.062662 
L 93.176727 93.73422 
L 94.507636 93.048048 
L 97.435636 91.360843 
L 98.500364 91.033136 
L 99.565091 90.906095 
L 100.896 90.968838 
L 102.226909 91.225212 
L 103.557818 91.686177 
L 104.888727 92.409323 
L 106.219636 93.438335 
L 107.816727 95.022059 
L 111.010909 98.348615 
L 112.608 99.658214 
L 117.133091 103.100523 
L 118.197818 104.27629 
L 119.262545 105.772811 
L 120.327273 107.675161 
L 121.392 110.035613 
L 122.722909 113.61388 
L 125.118545 121.037586 
L 126.715636 125.560688 
L 128.046545 128.59774 
L 129.909818 132.645725 
L 130.708364 134.999551 
L 131.506909 138.183523 
L 132.305455 142.503261 
L 133.104 148.197468 
L 133.902545 155.397358 
L 134.967273 167.265143 
L 136.564364 188.49964 
L 138.427636 213.291463 
L 139.492364 224.833177 
L 140.290909 231.60376 
L 141.089455 236.686238 
L 141.888 240.186791 
L 142.420364 241.736157 
L 142.952727 242.731056 
L 143.485091 243.232187 
L 144.017455 243.294031 
L 144.549818 242.965016 
L 145.082182 242.290788 
L 145.880727 240.725224 
L 146.945455 237.840327 
L 148.808727 231.756897 
L 150.405818 226.905761 
L 151.470545 224.422849 
L 152.269091 223.092881 
L 153.067636 222.272551 
L 153.6 222.019123 
L 154.132364 222.002271 
L 154.664727 222.217579 
L 155.197091 222.652612 
L 155.995636 223.674016 
L 157.060364 225.547326 
L 159.189818 229.517433 
L 159.988364 230.437073 
L 160.520727 230.704899 
L 161.053091 230.626694 
L 161.585455 230.148796 
L 162.117818 229.218195 
L 162.650182 227.788098 
L 163.182545 225.814661 
L 163.981091 221.763076 
L 164.779636 216.346348 
L 165.844364 207.076001 
L 167.175273 192.919342 
L 169.837091 163.614725 
L 170.901818 154.445815 
L 171.700364 149.048065 
L 172.498909 144.884082 
L 173.297455 141.798602 
L 174.096 139.583352 
L 174.894545 138.02237 
L 175.693091 136.928324 
L 176.491636 136.152332 
L 177.556364 135.420514 
L 179.419636 134.48435 
L 181.549091 133.34793 
L 183.412364 132.064754 
L 189.002182 127.917622 
L 190.333091 127.378207 
L 191.397818 127.196112 
L 192.462545 127.270226 
L 193.527273 127.621001 
L 194.592 128.251382 
L 195.656727 129.147626 
L 196.987636 130.590484 
L 198.584727 132.669776 
L 201.778909 137.308712 
L 204.973091 142.21842 
L 206.570182 145.05178 
L 208.167273 148.334244 
L 210.030545 152.719261 
L 212.692364 159.606988 
L 214.555636 164.997538 
L 215.620364 168.675606 
L 216.685091 173.093181 
L 217.749818 178.4088 
L 219.080727 186.238907 
L 222.274909 207.163368 
L 224.670545 223.363488 
L 226.267636 235.930533 
L 230.792727 273.902439 
L 231.857455 280.320611 
L 232.922182 285.20954 
L 233.720727 287.923631 
L 234.519273 289.910975 
L 235.317818 291.274155 
L 236.116364 292.113954 
L 236.648727 292.423828 
L 237.181091 292.552423 
L 237.713455 292.505304 
L 238.245818 292.276417 
L 238.778182 291.849073 
L 239.310545 291.197096 
L 239.842909 290.284492 
L 240.641455 288.34443 
L 241.44 285.619051 
L 242.238545 282.049618 
L 243.303273 276.057154 
L 244.900364 265.315155 
L 247.029818 251.042171 
L 248.360727 243.538788 
L 249.957818 235.84513 
L 252.353455 224.42154 
L 253.418182 218.332056 
L 254.482909 211.097154 
L 255.547636 202.504471 
L 257.144727 187.385798 
L 259.540364 164.378119 
L 260.605091 156.380805 
L 261.403636 151.78048 
L 262.202182 148.364184 
L 263.000727 145.969784 
L 263.799273 144.361028 
L 264.597818 143.286452 
L 265.662545 142.317075 
L 269.122909 139.579589 
L 270.453818 138.047074 
L 271.784727 136.084762 
L 273.115636 133.637189 
L 274.446545 130.674087 
L 276.043636 126.499633 
L 278.971636 118.629933 
L 279.770182 117.052426 
L 280.568727 116.005172 
L 281.101091 115.668304 
L 281.633455 115.652761 
L 282.165818 115.970488 
L 282.698182 116.618538 
L 283.496727 118.154325 
L 284.561455 121.009772 
L 287.489455 129.653174 
L 288.554182 131.938612 
L 289.618909 133.648969 
L 290.949818 135.25298 
L 294.144 138.811123 
L 295.474909 140.75462 
L 296.805818 143.168818 
L 298.136727 146.136827 
L 299.467636 149.698406 
L 301.064727 154.738018 
L 302.928 161.474407 
L 308.517818 183.02974 
L 310.114909 190.204107 
L 312.244364 201.091717 
L 314.373818 211.69236 
L 315.438545 215.937492 
L 316.237091 218.307843 
L 316.769455 219.40107 
L 317.301818 220.049612 
L 317.834182 220.213874 
L 318.100364 220.104257 
L 318.632727 219.4904 
L 319.165091 218.344491 
L 319.697455 216.671437 
L 320.496 213.21833 
L 321.294545 208.737929 
L 322.359273 201.428259 
L 323.690182 190.677097 
L 325.819636 171.302821 
L 328.215273 149.802788 
L 329.28 141.892513 
L 330.344727 135.665108 
L 331.143273 132.179934 
L 331.941818 129.635505 
L 332.740364 127.875739 
L 333.538909 126.706925 
L 334.337455 125.943858 
L 335.136 125.444854 
L 336.200727 125.060048 
L 336.999273 124.967937 
L 337.797818 125.080663 
L 338.596364 125.4424 
L 339.394909 126.072781 
L 340.459636 127.274316 
L 343.121455 130.589666 
L 343.92 131.227736 
L 344.718545 131.615978 
L 345.517091 131.784494 
L 346.581818 131.769278 
L 348.178909 131.487055 
L 349.776 130.987233 
L 350.840727 130.396445 
L 351.639273 129.719436 
L 352.437818 128.784253 
L 353.502545 127.096966 
L 354.567273 124.949122 
L 358.027636 117.371461 
L 358.826182 116.159782 
L 359.624727 115.29266 
L 360.423273 114.753245 
L 361.221818 114.485256 
L 362.286545 114.419813 
L 363.617455 114.588656 
L 365.214545 115.018944 
L 366.279273 115.546743 
L 367.077818 116.165345 
L 367.876364 117.039992 
L 368.674909 118.212079 
L 369.739636 120.254886 
L 371.070545 123.47796 
L 375.063273 133.900925 
L 376.128 135.976126 
L 377.458909 138.066053 
L 380.386909 142.345216 
L 381.717818 144.913368 
L 383.847273 149.759596 
L 385.444364 153.105212 
L 386.509091 154.821949 
L 387.307636 155.770875 
L 388.106182 156.41369 
L 388.904727 156.745323 
L 389.703273 156.773791 
L 390.501818 156.540977 
L 392.897455 155.509593 
L 393.429818 155.559657 
L 393.962182 155.823556 
L 394.494545 156.329595 
L 395.026909 157.084482 
L 395.825455 158.650209 
L 396.890182 161.348757 
L 403.012364 178.76841 
L 404.609455 184.180884 
L 406.206545 190.448864 
L 407.803636 197.68033 
L 409.666909 207.213432 
L 413.925818 229.379185 
L 415.522909 236.381436 
L 416.853818 241.343335 
L 418.450909 246.474895 
L 420.846545 253.472565 
L 421.911273 255.992126 
L 422.443636 256.852049 
L 422.976 257.310478 
L 423.242182 257.35956 
L 423.508364 257.275466 
L 424.040727 256.682224 
L 424.573091 255.507847 
L 425.105455 253.780802 
L 425.904 250.343893 
L 426.436364 247.686738 
L 426.436364 247.686738 
" clip-path="url(#pb62abbd5c5)" style="fill: none; stroke-dasharray: 3,4.95; stroke-dashoffset: 0; stroke: #ff0000; stroke-width: 3"/>
   </g>
   <g id="line2d_3">
    <path d="M 27.163636 153.61526 
L 27.962182 152.605554 
L 28.760727 151.171286 
L 29.559273 149.281452 
L 30.624 146.148525 
L 33.818182 136.103659 
L 34.882909 133.768157 
L 35.681455 132.564249 
L 36.213818 132.04054 
L 36.746182 131.744083 
L 37.278545 131.668577 
L 37.810909 131.796928 
L 38.609455 132.292251 
L 40.472727 133.728073 
L 41.005091 133.837445 
L 41.537455 133.672364 
L 42.069818 133.187758 
L 42.602182 132.37111 
L 43.400727 130.584921 
L 44.731636 126.713714 
L 46.062545 123.051271 
L 46.861091 121.524892 
L 47.393455 120.899337 
L 47.925818 120.616377 
L 48.458182 120.684029 
L 48.990545 121.101638 
L 49.522909 121.863069 
L 50.055273 122.962677 
L 50.853818 125.226601 
L 51.652364 128.190111 
L 52.717091 133.097037 
L 54.314182 141.851038 
L 56.177455 151.899586 
L 56.976 155.083558 
L 57.508364 156.501302 
L 58.040727 157.206288 
L 58.306909 157.257415 
L 58.573091 157.095444 
L 58.839273 156.71301 
L 59.371636 155.280542 
L 59.904 152.97997 
L 60.702545 148.089487 
L 61.767273 139.684216 
L 63.896727 122.102673 
L 64.961455 115.256503 
L 65.76 111.350448 
L 66.558545 108.444936 
L 67.357091 106.4126 
L 68.155636 105.104064 
L 68.688 104.561622 
L 69.220364 104.235061 
L 70.018909 104.069245 
L 70.817455 104.189169 
L 71.882182 104.606615 
L 73.745455 105.405593 
L 74.544 105.547196 
L 75.342545 105.46212 
L 76.141091 105.105455 
L 76.939636 104.464194 
L 77.738182 103.560424 
L 78.802909 102.033718 
L 83.328 94.970277 
L 84.392727 93.819868 
L 85.457455 92.973934 
L 86.522182 92.41006 
L 87.586909 92.073927 
L 89.184 91.848312 
L 92.378182 91.507272 
L 93.709091 91.065285 
L 95.838545 90.017295 
L 97.435636 89.360001 
L 98.766545 89.088493 
L 100.097455 89.045464 
L 101.960727 89.221506 
L 103.557818 89.575963 
L 104.888727 90.105234 
L 106.219636 90.926464 
L 107.550545 92.037361 
L 110.212364 94.680691 
L 112.608 96.881953 
L 117.133091 100.859913 
L 118.464 102.397009 
L 119.528727 103.919462 
L 120.593455 105.786227 
L 121.658182 108.045488 
L 122.989091 111.406729 
L 127.248 122.796452 
L 130.442182 129.657919 
L 131.240727 132.409721 
L 132.039273 136.163457 
L 132.837818 141.171411 
L 133.636364 147.595146 
L 134.701091 158.383774 
L 136.032 174.746193 
L 138.693818 208.520904 
L 139.758545 218.916136 
L 140.557091 224.86459 
L 141.355636 229.229974 
L 142.154182 232.153319 
L 142.686545 233.40132 
L 143.218909 234.159969 
L 143.751273 234.48653 
L 144.283636 234.431558 
L 144.816 234.039881 
L 145.348364 233.354528 
L 146.146909 231.86406 
L 147.211636 229.246171 
L 150.672 220.07677 
L 151.470545 218.629659 
L 152.269091 217.626252 
L 152.801455 217.229176 
L 153.333818 217.058369 
L 153.866182 217.118086 
L 154.398545 217.403255 
L 154.930909 217.90504 
L 155.729455 219.0197 
L 156.794182 221.01228 
L 158.923636 225.286535 
L 159.722182 226.388761 
L 160.254545 226.812669 
L 160.786909 226.925231 
L 161.319273 226.674911 
L 161.851636 226.014099 
L 162.384 224.896494 
L 162.916364 223.281848 
L 163.714909 219.84592 
L 164.513455 215.121498 
L 165.312 209.101875 
L 166.376727 199.277961 
L 168.24 179.269295 
L 169.837091 162.998742 
L 170.901818 154.275499 
L 171.700364 149.147211 
L 172.498909 145.196409 
L 173.297455 142.272001 
L 174.096 140.172013 
L 174.894545 138.687599 
L 175.693091 137.637319 
L 176.757818 136.669087 
L 178.088727 135.826589 
L 182.081455 133.548759 
L 185.009455 131.444598 
L 187.405091 129.82668 
L 188.736 129.150489 
L 190.066909 128.730672 
L 191.131636 128.627599 
L 192.196364 128.766175 
L 193.261091 129.170695 
L 194.325818 129.855639 
L 195.390545 130.819698 
L 196.721455 132.38428 
L 198.318545 134.676099 
L 204.973091 145.172605 
L 206.836364 148.386271 
L 208.433455 151.626197 
L 210.030545 155.369545 
L 212.16 160.983911 
L 214.023273 166.460438 
L 215.354182 171.020843 
L 216.418909 175.367903 
L 217.483636 180.53292 
L 218.814545 188.160972 
L 221.210182 203.739137 
L 225.469091 232.426381 
L 227.066182 245.379213 
L 230.260364 271.921312 
L 231.325091 279.01093 
L 232.389818 284.672906 
L 233.188364 287.969604 
L 233.986909 290.508471 
L 234.785455 292.375236 
L 235.584 293.671828 
L 236.382545 294.489377 
L 237.181091 294.895615 
L 237.713455 294.952714 
L 238.245818 294.832953 
L 238.778182 294.520135 
L 239.310545 293.988573 
L 239.842909 293.202928 
L 240.641455 291.46754 
L 241.44 288.965976 
L 242.238545 285.640483 
L 243.303273 279.998794 
L 244.900364 269.800954 
L 247.029818 256.171113 
L 248.360727 248.989547 
L 249.957818 241.631939 
L 252.353455 230.722569 
L 253.418182 224.900257 
L 254.482909 217.973101 
L 255.547636 209.735937 
L 257.144727 195.222695 
L 259.540364 173.065941 
L 260.605091 165.314774 
L 261.403636 160.823085 
L 262.202182 157.451045 
L 263.000727 155.044047 
L 263.799273 153.37721 
L 264.597818 152.210686 
L 265.662545 151.083756 
L 268.856727 148.056111 
L 270.187636 146.403835 
L 271.518545 144.39604 
L 272.849455 141.976935 
L 274.180364 139.078704 
L 275.511273 135.662654 
L 279.770182 124.084945 
L 280.568727 122.869503 
L 281.101091 122.42089 
L 281.633455 122.293031 
L 282.165818 122.496804 
L 282.698182 123.026893 
L 283.230545 123.857694 
L 284.029091 125.573286 
L 285.36 129.167014 
L 286.957091 133.411901 
L 288.021818 135.614226 
L 289.086545 137.21022 
L 290.151273 138.346886 
L 294.410182 142.259076 
L 295.741091 144.01467 
L 297.072 146.197035 
L 298.402909 148.896728 
L 299.733818 152.184918 
L 301.064727 156.075349 
L 302.928 162.365906 
L 308.517818 182.741135 
L 310.114909 189.512618 
L 312.244364 199.766739 
L 314.107636 208.531047 
L 315.172364 212.649875 
L 315.970909 214.993311 
L 316.503273 216.103554 
L 317.035636 216.794143 
L 317.568 217.024503 
L 317.834182 216.957096 
L 318.366545 216.441732 
L 318.898909 215.412475 
L 319.431273 213.870553 
L 320.229818 210.637498 
L 321.028364 206.401364 
L 322.093091 199.453267 
L 323.424 189.212807 
L 325.287273 173.069295 
L 328.481455 145.136693 
L 329.546182 137.571303 
L 330.610909 131.601498 
L 331.409455 128.223978 
L 332.208 125.708671 
L 333.006545 123.909803 
L 333.805091 122.657712 
L 334.603636 121.798853 
L 335.402182 121.219518 
L 336.200727 120.86498 
L 336.999273 120.732375 
L 337.797818 120.853363 
L 338.596364 121.267291 
L 339.394909 121.988884 
L 340.459636 123.364416 
L 343.387636 127.602596 
L 344.186182 128.369426 
L 344.984727 128.897715 
L 346.049455 129.307635 
L 347.646545 129.583805 
L 349.509818 129.681642 
L 350.574545 129.529323 
L 351.373091 129.214378 
L 352.171636 128.664001 
L 352.970182 127.842199 
L 354.034909 126.323264 
L 355.365818 123.908167 
L 357.495273 119.977652 
L 358.56 118.551892 
L 359.358545 117.850914 
L 360.157091 117.464554 
L 360.955636 117.344139 
L 362.020364 117.477316 
L 363.351273 117.899915 
L 364.948364 118.611036 
L 366.013091 119.268494 
L 367.077818 120.196723 
L 368.142545 121.511476 
L 369.207273 123.29292 
L 370.272 125.552508 
L 371.602909 128.921684 
L 375.063273 138.034149 
L 376.394182 140.746604 
L 377.725091 142.94173 
L 380.386909 147.124201 
L 381.717818 149.803524 
L 383.581091 154.229771 
L 385.178182 157.902685 
L 386.242909 159.901318 
L 387.307636 161.400947 
L 388.106182 162.174976 
L 388.904727 162.64723 
L 389.703273 162.83268 
L 390.501818 162.777789 
L 392.897455 162.360671 
L 393.429818 162.53794 
L 393.962182 162.914729 
L 394.494545 163.515824 
L 395.293091 164.84252 
L 396.091636 166.61881 
L 397.422545 170.205912 
L 400.350545 178.247155 
L 403.012364 185.364751 
L 404.609455 190.304644 
L 406.206545 195.924655 
L 408.069818 203.397524 
L 410.731636 215.310302 
L 413.393455 226.987075 
L 414.990545 233.149364 
L 416.321455 237.524073 
L 417.652364 241.214248 
L 420.048 247.053739 
L 421.645091 250.563782 
L 422.443636 251.750593 
L 422.976 252.127054 
L 423.242182 252.157322 
L 423.508364 252.069628 
L 424.040727 251.51647 
L 424.573091 250.443857 
L 425.105455 248.875349 
L 425.904 245.761074 
L 426.436364 243.355384 
L 426.436364 243.355384 
" clip-path="url(#pb62abbd5c5)" style="fill: none; stroke: #ff0000; stroke-width: 3; stroke-linecap: square"/>
   </g>
   <g id="patch_3">
    <path d="M 7.2 331.2 
L 7.2 7.2 
" style="fill: none; stroke: #000000; stroke-width: 0.8; stroke-linejoin: miter; stroke-linecap: square"/>
   </g>
   <g id="patch_4">
    <path d="M 446.4 331.2 
L 446.4 7.2 
" style="fill: none; stroke: #000000; stroke-width: 0.8; stroke-linejoin: miter; stroke-linecap: square"/>
   </g>
   <g id="patch_5">
    <path d="M 7.2 331.2 
L 446.4 331.2 
" style="fill: none; stroke: #000000; stroke-width: 0.8; stroke-linejoin: miter; stroke-linecap: square"/>
   </g>
   <g id="patch_6">
    <path d="M 7.2 7.2 
L 446.4 7.2 
" style="fill: none; stroke: #000000; stroke-width: 0.8; stroke-linejoin: miter; stroke-linecap: square"/>
   </g>
  </g>
 </g>
 <defs>
  <clipPath id="pb62abbd5c5">
   <rect x="7.2" y="7.2" width="439.2" height="324"/>
  </clipPath>
 </defs>
</svg>
