<?xml version="1.0" encoding="utf-8" standalone="no"?>
<!DOCTYPE svg PUBLIC "-//W3C//DTD SVG 1.1//EN"
  "http://www.w3.org/Graphics/SVG/1.1/DTD/svg11.dtd">
<svg xmlns:xlink="http://www.w3.org/1999/xlink" width="453.6pt" height="338.4pt" viewBox="0 0 453.6 338.4" xmlns="http://www.w3.org/2000/svg" version="1.1">
 <metadata>
  <rdf:RDF xmlns:dc="http://purl.org/dc/elements/1.1/" xmlns:cc="http://creativecommons.org/ns#" xmlns:rdf="http://www.w3.org/1999/02/22-rdf-syntax-ns#">
   <cc:Work>
    <dc:type rdf:resource="http://purl.org/dc/dcmitype/StillImage"/>
    <dc:date>2025-05-14T00:04:23.669816</dc:date>
    <dc:format>image/svg+xml</dc:format>
    <dc:creator>
     <cc:Agent>
      <dc:title>Matplotlib v3.10.1, https://matplotlib.org/</dc:title>
     </cc:Agent>
    </dc:creator>
   </cc:Work>
  </rdf:RDF>
 </metadata>
 <defs>
  <style type="text/css">*{stroke-linejoin: round; stroke-linecap: butt}</style>
 </defs>
 <g id="figure_1">
  <g id="patch_1">
   <path d="M 0 338.4 
L 453.6 338.4 
L 453.6 0 
L 0 0 
z
" style="fill: #ffffff"/>
  </g>
  <g id="axes_1">
   <g id="patch_2">
    <path d="M 7.2 331.2 
L 446.4 331.2 
L 446.4 7.2 
L 7.2 7.2 
z
" style="fill: #ffffff"/>
   </g>
   <g id="matplotlib.axis_1"/>
   <g id="matplotlib.axis_2"/>
   <g id="line2d_1">
    <path d="M 27.163636 29.774901 
L 31.688727 49.40239 
L 35.947636 66.896377 
L 40.206545 83.441051 
L 44.199273 98.089488 
L 48.192 111.903559 
L 51.918545 124.043936 
L 55.645091 135.457489 
L 59.371636 146.144218 
L 62.832 155.416809 
L 66.292364 164.062675 
L 69.486545 171.487286 
L 72.680727 178.377865 
L 75.874909 184.734467 
L 78.802909 190.092257 
L 81.730909 195.001348 
L 84.658909 199.46174 
L 87.320727 203.127277 
L 89.982545 206.421977 
L 92.644364 209.345877 
L 95.04 211.660299 
L 97.435636 213.674369 
L 99.831273 215.38805 
L 101.960727 216.659179 
L 104.090182 217.69298 
L 106.219636 218.489444 
L 108.349091 219.048579 
L 110.478545 219.370395 
L 112.608 219.454864 
L 114.737455 219.302015 
L 116.866909 218.911827 
L 118.996364 218.284321 
L 121.125818 217.419486 
L 123.255273 216.317314 
L 125.384727 214.977832 
L 127.780364 213.187216 
L 130.176 211.096229 
L 132.571636 208.704882 
L 134.967273 206.013146 
L 137.629091 202.670069 
L 140.290909 198.956146 
L 142.952727 194.871405 
L 145.880727 189.949882 
L 148.808727 184.579669 
L 151.736727 178.760738 
L 154.930909 171.901115 
L 158.125091 164.507451 
L 159.189818 161.92423 
L 159.456 161.705527 
L 162.117818 168.471418 
L 164.513455 173.999351 
L 166.909091 178.99554 
L 169.304727 183.45991 
L 171.434182 186.981804 
L 173.563636 190.0835 
L 175.693091 192.765028 
L 177.556364 194.766666 
L 179.419636 196.446626 
L 181.282909 197.80488 
L 182.88 198.713047 
L 184.477091 199.38486 
L 186.074182 199.82031 
L 187.671273 200.019423 
L 189.268364 199.982173 
L 190.865455 199.708578 
L 192.462545 199.198611 
L 194.059636 198.452316 
L 195.656727 197.469667 
L 197.253818 196.250655 
L 199.117091 194.529751 
L 200.980364 192.487142 
L 202.843636 190.122845 
L 204.973091 187.026855 
L 207.102545 183.510685 
L 209.232 179.574347 
L 211.627636 174.643718 
L 214.023273 169.181281 
L 216.418909 163.187035 
L 219.080727 155.90308 
L 221.742545 147.962593 
L 224.670545 138.469755 
L 227.598545 128.182539 
L 230.526545 117.100781 
L 233.720727 104.105749 
L 236.914909 90.165191 
L 240.375273 73.996085 
L 243.835636 56.717493 
L 247.296 38.329397 
L 248.626909 30.961589 
L 248.893091 30.247959 
L 256.346182 54.854684 
L 263.799273 78.690516 
L 270.986182 100.944815 
L 278.173091 122.48236 
L 285.093818 142.544701 
L 292.014545 161.942166 
L 298.935273 180.675012 
L 305.589818 198.060383 
L 312.244364 214.831166 
L 318.898909 230.987325 
L 325.287273 245.919087 
L 331.675636 260.284419 
L 337.797818 273.519622 
L 343.92 286.234686 
L 350.042182 298.429492 
L 355.898182 309.607355 
L 359.624727 316.472727 
L 360.689455 315.650744 
L 362.552727 313.89393 
L 364.416 311.79677 
L 366.279273 309.359218 
L 368.142545 306.581331 
L 370.272 302.98978 
L 372.401455 298.953665 
L 374.530909 294.473031 
L 376.926545 288.900922 
L 379.322182 282.766159 
L 381.984 275.289785 
L 384.645818 267.118852 
L 387.307636 258.253281 
L 390.235636 247.698843 
L 393.163636 236.303924 
L 396.357818 222.91457 
L 399.552 208.524862 
L 402.746182 193.134881 
L 406.206545 175.333743 
L 409.666909 156.358551 
L 413.393455 134.610995 
L 417.12 111.501803 
L 420.846545 87.031343 
L 424.839273 59.302092 
L 426.436364 47.772746 
L 426.436364 47.772746 
" clip-path="url(#p1909a764e2)" style="fill: none; stroke-dasharray: 11.1,4.8; stroke-dashoffset: 0; stroke: #000000; stroke-width: 3"/>
   </g>
   <g id="line2d_2">
    <path d="M 27.163636 166.058423 
L 29.293091 174.921797 
L 30.091636 177.421936 
L 30.890182 179.177756 
L 31.422545 179.932246 
L 31.954909 180.385264 
L 32.487273 180.579085 
L 33.019636 180.560745 
L 33.818182 180.232295 
L 34.616727 179.650115 
L 35.947636 178.33139 
L 38.077091 175.773456 
L 39.940364 173.603256 
L 41.271273 172.391374 
L 42.336 171.694394 
L 43.666909 171.09075 
L 48.724364 169.272026 
L 49.522909 169.305766 
L 50.321455 169.572819 
L 51.12 170.085258 
L 52.184727 171.11622 
L 53.515636 172.82584 
L 55.378909 175.660695 
L 59.904 182.764777 
L 61.234909 184.290941 
L 62.299636 185.167536 
L 63.364364 185.758519 
L 64.695273 186.222985 
L 66.824727 186.906909 
L 67.889455 187.46575 
L 69.220364 188.464699 
L 70.817455 189.997129 
L 74.810182 193.951909 
L 76.939636 195.745419 
L 78.270545 196.59094 
L 79.335273 196.985932 
L 80.133818 197.069244 
L 80.932364 196.949877 
L 81.730909 196.622566 
L 82.529455 196.089536 
L 83.594182 195.063701 
L 84.658909 193.670632 
L 85.723636 191.88982 
L 87.054545 189.121875 
L 89.184 183.917651 
L 90.781091 180.30142 
L 91.845818 178.46227 
L 92.644364 177.485612 
L 93.442909 176.889512 
L 93.975273 176.716061 
L 94.507636 176.73215 
L 95.04 176.948915 
L 95.572364 177.378732 
L 96.104727 178.03385 
L 96.903273 179.459556 
L 97.701818 181.426278 
L 98.766545 184.848789 
L 100.097455 190.18619 
L 102.493091 201.236782 
L 104.356364 209.366275 
L 105.687273 214.237933 
L 107.018182 218.246446 
L 108.349091 221.578093 
L 109.946182 225.005814 
L 111.543273 227.984634 
L 113.140364 230.481584 
L 114.471273 232.151878 
L 115.802182 233.472523 
L 117.133091 234.506692 
L 118.730182 235.457714 
L 120.327273 236.16222 
L 122.190545 236.750574 
L 132.571636 239.358594 
L 134.168727 239.495971 
L 135.765818 239.415103 
L 137.362909 239.115817 
L 139.226182 238.541227 
L 141.621818 237.543702 
L 143.751273 236.42194 
L 145.880727 235.041377 
L 147.477818 233.783506 
L 148.808727 232.493844 
L 150.139636 230.853909 
L 151.204364 229.199199 
L 152.535273 226.639427 
L 154.132364 222.955918 
L 158.125091 213.429295 
L 161.319273 205.978313 
L 163.981091 199.803642 
L 169.304727 188.522742 
L 170.369455 186.703164 
L 171.434182 185.327452 
L 172.498909 184.391572 
L 173.563636 183.780927 
L 178.088727 181.61375 
L 179.952 180.61119 
L 181.016727 180.274451 
L 181.815273 180.240822 
L 182.613818 180.478297 
L 183.146182 180.832282 
L 183.678545 181.377928 
L 184.477091 182.620583 
L 185.275636 184.442191 
L 186.074182 186.871202 
L 187.138909 190.946709 
L 190.333091 204.05383 
L 191.131636 206.144274 
L 191.664 207.085768 
L 192.196364 207.654671 
L 192.728727 207.861502 
L 193.261091 207.730163 
L 193.793455 207.293657 
L 194.325818 206.590162 
L 195.124364 205.122832 
L 196.189091 202.609903 
L 200.448 191.796465 
L 201.512727 189.876292 
L 202.843636 187.949999 
L 205.505455 184.322053 
L 206.570182 182.309535 
L 207.368727 180.378373 
L 208.433455 177.113002 
L 209.498182 172.9916 
L 210.562909 168.033277 
L 211.893818 160.812778 
L 213.757091 149.35093 
L 217.483636 126.002692 
L 219.080727 117.654844 
L 220.677818 110.638181 
L 222.541091 103.548985 
L 228.663273 81.036252 
L 229.994182 75.036456 
L 231.058909 69.264717 
L 232.389818 60.687783 
L 235.584 38.992546 
L 236.382545 35.060737 
L 237.181091 32.204271 
L 237.713455 30.928437 
L 238.245818 30.147824 
L 238.778182 29.840342 
L 239.310545 29.976257 
L 239.842909 30.523925 
L 240.375273 31.45284 
L 241.173818 33.50201 
L 241.972364 36.264938 
L 243.037091 40.904293 
L 244.368 47.820067 
L 247.296 63.418772 
L 248.360727 67.972123 
L 249.425455 71.681829 
L 250.490182 74.660465 
L 251.821091 77.645349 
L 253.152 80.10447 
L 254.749091 82.609093 
L 256.878545 85.499409 
L 260.072727 89.853629 
L 263.799273 95.035359 
L 271.252364 104.767869 
L 272.849455 107.160723 
L 274.180364 109.538361 
L 275.511273 112.368751 
L 277.374545 116.930427 
L 279.770182 122.79405 
L 281.101091 125.484978 
L 282.165818 127.18201 
L 283.230545 128.447902 
L 284.295273 129.305716 
L 285.36 129.80814 
L 286.424727 130.035279 
L 289.352727 130.374075 
L 290.151273 130.782777 
L 290.949818 131.506734 
L 291.748364 132.634322 
L 292.546909 134.237742 
L 293.345455 136.362698 
L 294.410182 140.011778 
L 295.741091 145.667614 
L 298.935273 159.962626 
L 300 163.615694 
L 301.330909 167.258985 
L 303.726545 173.316613 
L 305.057455 177.535643 
L 306.654545 183.529108 
L 309.316364 193.66431 
L 310.647273 197.936459 
L 311.978182 201.550301 
L 313.309091 204.589994 
L 314.64 207.118543 
L 315.970909 209.176001 
L 317.568 211.16053 
L 322.359273 216.664334 
L 326.085818 221.619395 
L 330.078545 226.867825 
L 331.941818 228.932854 
L 334.071273 230.921922 
L 336.999273 233.303098 
L 339.128727 234.752134 
L 340.992 235.741894 
L 346.848 238.606575 
L 349.509818 239.873184 
L 351.373091 240.526969 
L 353.502545 241.020627 
L 356.164364 241.364229 
L 358.56 241.49261 
L 360.157091 241.386033 
L 361.488 241.099703 
L 362.818909 240.609399 
L 364.416 239.769988 
L 366.013091 238.681562 
L 367.610182 237.306015 
L 368.941091 235.848297 
L 370.272 233.998534 
L 371.602909 231.68244 
L 373.2 228.322566 
L 375.595636 222.613107 
L 378.789818 214.483329 
L 384.113455 200.271242 
L 385.710545 196.980125 
L 389.969455 188.701669 
L 392.098909 184.332086 
L 393.163636 182.606809 
L 393.962182 181.670838 
L 394.760727 181.086986 
L 395.559273 180.856852 
L 396.357818 180.94654 
L 397.156364 181.291502 
L 398.487273 182.194 
L 400.350545 183.471019 
L 401.681455 184.108421 
L 404.343273 185.265099 
L 405.674182 186.208991 
L 407.803636 188.147348 
L 409.134545 189.238228 
L 410.199273 189.851253 
L 411.264 190.190527 
L 412.594909 190.324936 
L 414.192 190.462937 
L 414.990545 190.70927 
L 415.789091 191.157381 
L 416.587636 191.830389 
L 417.652364 193.043061 
L 420.580364 196.707817 
L 421.112727 197.024616 
L 421.645091 197.078019 
L 422.177455 196.79801 
L 422.709818 196.123156 
L 423.242182 195.01038 
L 423.774545 193.444835 
L 424.573091 190.303674 
L 425.637818 185.039817 
L 426.436364 180.806683 
L 426.436364 180.806683 
" clip-path="url(#p1909a764e2)" style="fill: none; stroke-dasharray: 3,4.95; stroke-dashoffset: 0; stroke: #ffa500; stroke-width: 3"/>
   </g>
   <g id="line2d_3">
    <path d="M 27.163636 162.69062 
L 28.760727 168.115807 
L 29.559273 170.167917 
L 30.091636 171.139724 
L 30.624 171.767037 
L 31.156364 172.056069 
L 31.688727 172.03398 
L 32.221091 171.740685 
L 33.019636 170.891305 
L 33.818182 169.675637 
L 35.149091 167.124926 
L 39.674182 157.69354 
L 40.738909 156.219015 
L 41.537455 155.423149 
L 42.602182 154.719792 
L 44.199273 154.069067 
L 45.530182 153.459726 
L 46.861091 152.590021 
L 48.724364 151.324111 
L 49.522909 150.991232 
L 50.321455 150.876487 
L 51.12 151.001009 
L 51.918545 151.355315 
L 52.983273 152.132327 
L 54.048 153.184293 
L 55.378909 154.825276 
L 56.709818 156.885619 
L 57.774545 158.936442 
L 59.105455 162.056691 
L 62.299636 170.068903 
L 63.098182 171.500499 
L 63.896727 172.565734 
L 64.695273 173.315768 
L 66.026182 174.173932 
L 67.357091 175.065505 
L 68.421818 176.090273 
L 69.486545 177.456742 
L 70.817455 179.541489 
L 73.213091 183.797209 
L 75.342545 188.021945 
L 77.472 192.873369 
L 79.867636 198.310281 
L 81.464727 201.386351 
L 83.061818 203.989327 
L 84.392727 205.779897 
L 85.457455 206.845058 
L 86.256 207.350166 
L 87.054545 207.563815 
L 87.853091 207.484207 
L 88.651636 207.147211 
L 89.716364 206.414341 
L 92.910545 203.983336 
L 93.975273 203.487969 
L 95.04 203.258625 
L 95.838545 203.300267 
L 96.637091 203.552141 
L 97.435636 204.022479 
L 98.500364 204.956209 
L 100.097455 206.768353 
L 102.226909 209.193919 
L 103.824 210.647788 
L 105.421091 211.781935 
L 108.881455 213.835846 
L 112.608 215.921917 
L 114.737455 217.164378 
L 116.600727 218.560544 
L 120.061091 221.267018 
L 121.924364 222.341956 
L 124.32 223.412483 
L 126.183273 224.015612 
L 127.514182 224.218898 
L 128.845091 224.186811 
L 130.708364 223.86393 
L 133.104 223.475222 
L 134.967273 223.438174 
L 137.096727 223.626059 
L 138.96 223.99617 
L 140.557091 224.569859 
L 142.154182 225.396268 
L 144.549818 226.929635 
L 146.679273 228.549999 
L 148.808727 230.195024 
L 149.607273 230.60799 
L 150.405818 230.786245 
L 151.204364 230.671059 
L 152.002909 230.250339 
L 153.067636 229.316352 
L 154.664727 227.782065 
L 155.463273 227.309449 
L 156.261818 227.166513 
L 157.060364 227.319887 
L 158.657455 227.822127 
L 159.189818 227.790151 
L 159.722182 227.556581 
L 160.254545 227.090874 
L 161.053091 225.958233 
L 162.117818 223.820009 
L 164.779636 218.008429 
L 166.376727 215.256527 
L 168.24 212.456404 
L 169.304727 211.161238 
L 170.103273 210.509851 
L 170.635636 210.279735 
L 171.168 210.228096 
L 171.700364 210.350045 
L 172.498909 210.804542 
L 174.628364 212.392122 
L 175.160727 212.521091 
L 175.693091 212.413439 
L 176.225455 212.018225 
L 176.757818 211.298035 
L 177.290182 210.23236 
L 178.088727 207.988579 
L 178.887273 205.050041 
L 180.218182 199.128898 
L 182.081455 190.84978 
L 182.88 188.100414 
L 183.678545 186.159337 
L 184.210909 185.387434 
L 184.743273 185.062678 
L 185.009455 185.071021 
L 185.541818 185.42496 
L 186.074182 186.210829 
L 186.606545 187.389192 
L 187.405091 189.758781 
L 189.002182 195.598955 
L 190.066909 199.242614 
L 190.865455 201.354045 
L 191.397818 202.364185 
L 191.930182 203.028179 
L 192.462545 203.345732 
L 192.994909 203.332905 
L 193.527273 203.018256 
L 194.059636 202.437473 
L 194.858182 201.154068 
L 195.922909 198.882684 
L 199.915636 189.517272 
L 200.980364 187.899518 
L 201.778909 187.070647 
L 202.577455 186.542716 
L 203.376 186.249678 
L 205.771636 185.591087 
L 206.304 185.191647 
L 206.836364 184.591936 
L 207.368727 183.747444 
L 208.167273 181.946583 
L 208.965818 179.442879 
L 209.764364 176.223249 
L 210.829091 170.896855 
L 212.16 162.880196 
L 214.023273 150.050373 
L 217.483636 125.978636 
L 219.080727 116.594038 
L 220.677818 108.575247 
L 222.807273 99.15566 
L 229.195636 71.580737 
L 230.526545 64.547058 
L 231.857455 56.105267 
L 235.850182 29.092788 
L 236.648727 25.677407 
L 237.447273 23.381656 
L 237.979636 22.461489 
L 238.512 21.998244 
L 239.044364 21.95719 
L 239.576727 22.303778 
L 240.109091 23.009194 
L 240.641455 24.051567 
L 241.44 26.215005 
L 242.238545 29.06254 
L 243.303273 33.814619 
L 244.900364 42.351859 
L 247.029818 53.717889 
L 248.094545 58.322475 
L 249.159273 61.945074 
L 250.224 64.694918 
L 251.288727 66.807892 
L 252.619636 68.895617 
L 254.216727 70.916817 
L 255.813818 72.578602 
L 259.274182 76.002804 
L 261.137455 78.312705 
L 265.928727 84.832347 
L 268.058182 88.060284 
L 270.187636 91.676414 
L 272.050909 95.268691 
L 273.381818 98.291689 
L 274.712727 101.879959 
L 276.043636 106.120316 
L 277.640727 112.030322 
L 282.964364 132.735854 
L 284.295273 136.510577 
L 285.892364 140.301324 
L 287.755636 144.662674 
L 288.820364 147.69067 
L 289.885091 151.453815 
L 290.949818 156.111327 
L 292.280727 163.183414 
L 293.877818 173.093224 
L 297.870545 198.781575 
L 298.935273 204.056072 
L 299.733818 207.164853 
L 300.532364 209.493168 
L 301.330909 211.066744 
L 301.863273 211.735111 
L 302.395636 212.138043 
L 302.928 212.314902 
L 303.460364 212.307845 
L 304.258909 212.047996 
L 305.856 211.148411 
L 306.920727 210.637901 
L 307.985455 210.376508 
L 309.050182 210.372355 
L 310.381091 210.621141 
L 312.776727 211.369154 
L 314.64 211.884184 
L 315.970909 212.029399 
L 319.963636 212.184867 
L 321.294545 212.636203 
L 325.021091 214.055083 
L 326.618182 214.670194 
L 327.949091 215.449778 
L 329.28 216.513138 
L 332.740364 219.470126 
L 334.603636 220.643674 
L 336.733091 222.009591 
L 340.193455 224.386458 
L 341.258182 224.793249 
L 342.589091 225.052142 
L 344.186182 225.338969 
L 345.250909 225.765055 
L 346.315636 226.492082 
L 347.380364 227.503325 
L 350.574545 230.803703 
L 351.639273 231.470527 
L 352.704 231.847253 
L 354.301091 232.10203 
L 357.495273 232.597692 
L 359.358545 232.752609 
L 362.020364 232.868935 
L 363.085091 233.185201 
L 364.149818 233.752863 
L 365.746909 234.937915 
L 367.344 236.054347 
L 368.142545 236.398142 
L 368.941091 236.522627 
L 369.739636 236.398399 
L 370.538182 236.019762 
L 371.336727 235.40579 
L 372.401455 234.302405 
L 374.797091 231.645916 
L 375.595636 231.084539 
L 376.394182 230.80657 
L 377.192727 230.800873 
L 378.257455 231.074468 
L 379.588364 231.441418 
L 380.386909 231.45917 
L 381.185455 231.23986 
L 381.984 230.775991 
L 383.048727 229.836381 
L 384.379636 228.291767 
L 385.710545 226.371566 
L 386.775273 224.38734 
L 387.573818 222.467286 
L 388.372364 220.048006 
L 389.437091 215.93162 
L 390.501818 210.863165 
L 394.228364 192.007744 
L 395.293091 188.266651 
L 396.091636 186.169003 
L 396.890182 184.622735 
L 397.688727 183.536624 
L 398.487273 182.801365 
L 399.552 182.178793 
L 400.882909 181.690887 
L 402.48 181.325591 
L 403.544727 181.302289 
L 404.343273 181.487381 
L 405.141818 181.890166 
L 405.940364 182.514723 
L 407.271273 183.922245 
L 409.134545 185.905773 
L 409.933091 186.466782 
L 410.731636 186.766583 
L 411.530182 186.820501 
L 412.861091 186.587812 
L 413.925818 186.439621 
L 414.724364 186.531432 
L 415.522909 186.871405 
L 416.321455 187.46586 
L 417.386182 188.578838 
L 419.249455 190.963092 
L 421.112727 193.247045 
L 421.911273 193.94408 
L 422.443636 194.21683 
L 422.976 194.282288 
L 423.508364 194.099953 
L 424.040727 193.643838 
L 424.573091 192.908873 
L 425.371636 191.335665 
L 426.436364 188.653926 
L 426.436364 188.653926 
" clip-path="url(#p1909a764e2)" style="fill: none; stroke: #ffa500; stroke-width: 3; stroke-linecap: square"/>
   </g>
   <g id="patch_3">
    <path d="M 7.2 331.2 
L 7.2 7.2 
" style="fill: none; stroke: #000000; stroke-width: 0.8; stroke-linejoin: miter; stroke-linecap: square"/>
   </g>
   <g id="patch_4">
    <path d="M 446.4 331.2 
L 446.4 7.2 
" style="fill: none; stroke: #000000; stroke-width: 0.8; stroke-linejoin: miter; stroke-linecap: square"/>
   </g>
   <g id="patch_5">
    <path d="M 7.2 331.2 
L 446.4 331.2 
" style="fill: none; stroke: #000000; stroke-width: 0.8; stroke-linejoin: miter; stroke-linecap: square"/>
   </g>
   <g id="patch_6">
    <path d="M 7.2 7.2 
L 446.4 7.2 
" style="fill: none; stroke: #000000; stroke-width: 0.8; stroke-linejoin: miter; stroke-linecap: square"/>
   </g>
  </g>
 </g>
 <defs>
  <clipPath id="p1909a764e2">
   <rect x="7.2" y="7.2" width="439.2" height="324"/>
  </clipPath>
 </defs>
</svg>
