<?xml version="1.0" encoding="utf-8" standalone="no"?>
<!DOCTYPE svg PUBLIC "-//W3C//DTD SVG 1.1//EN"
  "http://www.w3.org/Graphics/SVG/1.1/DTD/svg11.dtd">
<svg xmlns:xlink="http://www.w3.org/1999/xlink" width="453.6pt" height="338.4pt" viewBox="0 0 453.6 338.4" xmlns="http://www.w3.org/2000/svg" version="1.1">
 <metadata>
  <rdf:RDF xmlns:dc="http://purl.org/dc/elements/1.1/" xmlns:cc="http://creativecommons.org/ns#" xmlns:rdf="http://www.w3.org/1999/02/22-rdf-syntax-ns#">
   <cc:Work>
    <dc:type rdf:resource="http://purl.org/dc/dcmitype/StillImage"/>
    <dc:date>2025-05-14T00:03:57.228120</dc:date>
    <dc:format>image/svg+xml</dc:format>
    <dc:creator>
     <cc:Agent>
      <dc:title>Matplotlib v3.10.1, https://matplotlib.org/</dc:title>
     </cc:Agent>
    </dc:creator>
   </cc:Work>
  </rdf:RDF>
 </metadata>
 <defs>
  <style type="text/css">*{stroke-linejoin: round; stroke-linecap: butt}</style>
 </defs>
 <g id="figure_1">
  <g id="patch_1">
   <path d="M 0 338.4 
L 453.6 338.4 
L 453.6 0 
L 0 0 
z
" style="fill: #ffffff"/>
  </g>
  <g id="axes_1">
   <g id="patch_2">
    <path d="M 7.2 331.2 
L 446.4 331.2 
L 446.4 7.2 
L 7.2 7.2 
z
" style="fill: #ffffff"/>
   </g>
   <g id="matplotlib.axis_1"/>
   <g id="matplotlib.axis_2"/>
   <g id="line2d_1">
    <path d="M 27.163636 316.472712 
L 29.026909 293.214971 
L 30.890182 272.790509 
L 32.753455 255.008664 
L 34.350545 241.72585 
L 35.947636 230.124388 
L 37.544727 220.084213 
L 39.141818 211.485236 
L 40.738909 204.207438 
L 42.069818 199.065162 
L 43.400727 194.687487 
L 44.731636 191.004934 
L 46.062545 187.947963 
L 47.393455 185.447157 
L 48.724364 183.432985 
L 50.055273 181.83601 
L 51.386182 180.586691 
L 52.717091 179.615591 
L 54.314182 178.71964 
L 56.709818 177.676559 
L 59.371636 176.500927 
L 60.968727 175.564798 
L 62.299636 174.545478 
L 63.630545 173.234561 
L 64.961455 171.562577 
L 66.292364 169.460049 
L 67.623273 166.857466 
L 68.954182 163.685339 
L 70.285091 159.874221 
L 71.616 155.354602 
L 72.946909 150.056992 
L 74.277818 143.911914 
L 75.608727 136.849887 
L 77.205818 127.067227 
L 78.802909 115.744023 
L 80.4 102.760268 
L 81.997091 87.99571 
L 83.328 75.799732 
L 85.191273 72.967544 
L 87.054545 70.516874 
L 88.917818 68.410854 
L 90.781091 66.612858 
L 92.910545 64.888014 
L 95.04 63.462697 
L 97.435636 62.148995 
L 100.097455 60.957562 
L 103.824 59.566209 
L 109.413818 57.494091 
L 112.075636 56.2647 
L 114.471273 54.902365 
L 116.600727 53.422361 
L 118.464 51.874675 
L 120.327273 50.052665 
L 122.190545 47.919665 
L 124.053818 45.438907 
L 125.917091 42.573685 
L 127.780364 39.28721 
L 129.643636 35.542896 
L 131.506909 31.303897 
L 133.370182 26.533544 
L 134.967273 21.993886 
L 135.233455 21.927353 
L 152.269091 39.044326 
L 167.175273 53.712849 
L 180.750545 66.766305 
L 193.261091 78.496796 
L 205.239273 89.424638 
L 216.418909 99.32753 
L 227.066182 108.468374 
L 237.447273 117.086078 
L 247.296 124.97392 
L 256.612364 132.161041 
L 265.662545 138.872807 
L 274.446545 145.119612 
L 280.302545 149.131387 
L 280.834909 149.118755 
L 284.827636 148.477684 
L 289.086545 147.559445 
L 293.345455 146.415677 
L 297.870545 144.971896 
L 302.661818 143.208589 
L 307.719273 141.111267 
L 313.309091 138.544382 
L 319.431273 135.476716 
L 326.352 131.746972 
L 334.603636 127.032961 
L 347.114182 119.591515 
L 361.754182 110.941282 
L 369.739636 106.478489 
L 376.394182 103.000306 
L 382.250182 100.174838 
L 387.84 97.725116 
L 392.897455 95.748953 
L 397.688727 94.113646 
L 402.213818 92.802689 
L 406.472727 91.794347 
L 410.731636 91.021825 
L 414.724364 90.526594 
L 418.450909 90.276789 
L 422.177455 90.243573 
L 425.904 90.438126 
L 426.436364 90.485165 
L 426.436364 90.485165 
" clip-path="url(#pb48aee6729)" style="fill: none; stroke-dasharray: 11.1,4.8; stroke-dashoffset: 0; stroke: #000000; stroke-width: 3"/>
   </g>
   <g id="line2d_2">
    <path d="M 27.163636 316.472679 
L 29.026909 293.214936 
L 30.890182 272.790474 
L 32.753455 255.008629 
L 34.350545 241.725809 
L 35.947636 230.124347 
L 37.544727 220.084173 
L 39.141818 211.485196 
L 40.738909 204.207397 
L 42.069818 199.065121 
L 43.400727 194.687446 
L 44.731636 191.004883 
L 46.062545 187.947913 
L 47.393455 185.447106 
L 48.724364 183.432935 
L 50.055273 181.835959 
L 51.386182 180.586641 
L 52.717091 179.615541 
L 54.314182 178.71959 
L 56.709818 177.676508 
L 59.371636 176.500876 
L 60.968727 175.564747 
L 62.299636 174.545428 
L 63.630545 173.23451 
L 64.961455 171.562527 
L 66.292364 169.459998 
L 67.623273 166.857415 
L 68.954182 163.685289 
L 70.285091 159.874171 
L 71.616 155.354551 
L 72.946909 150.056942 
L 74.277818 143.911853 
L 75.608727 136.849827 
L 77.205818 127.067166 
L 78.802909 115.743963 
L 80.4 102.760207 
L 81.997091 87.995649 
L 83.328 75.799671 
L 85.191273 72.967483 
L 87.054545 70.516813 
L 88.917818 68.410793 
L 90.781091 66.612797 
L 92.910545 64.887953 
L 95.04 63.462617 
L 97.435636 62.148915 
L 100.097455 60.957482 
L 103.824 59.566128 
L 109.413818 57.49401 
L 112.075636 56.264619 
L 114.471273 54.902284 
L 116.600727 53.42228 
L 118.464 51.874594 
L 120.327273 50.052584 
L 122.190545 47.919584 
L 124.053818 45.438826 
L 125.917091 42.573604 
L 127.780364 39.287129 
L 129.643636 35.542816 
L 131.506909 31.303816 
L 133.370182 26.533463 
L 134.967273 21.993805 
L 135.233455 21.927273 
L 152.269091 39.044245 
L 167.175273 53.712768 
L 180.750545 66.766244 
L 193.261091 78.496736 
L 205.239273 89.424578 
L 216.418909 99.32747 
L 227.066182 108.468313 
L 237.447273 117.086017 
L 247.296 124.97386 
L 256.612364 132.16098 
L 265.662545 138.872746 
L 274.446545 145.119551 
L 280.302545 149.131327 
L 280.834909 149.118694 
L 284.827636 148.477624 
L 289.086545 147.559384 
L 293.345455 146.415616 
L 297.870545 144.971835 
L 302.661818 143.208528 
L 307.719273 141.111206 
L 313.309091 138.544321 
L 319.431273 135.476655 
L 326.352 131.746912 
L 334.603636 127.032901 
L 347.114182 119.591455 
L 361.754182 110.941221 
L 369.739636 106.478428 
L 376.394182 103.000245 
L 382.250182 100.174777 
L 387.84 97.725056 
L 392.897455 95.748893 
L 397.688727 94.113586 
L 402.213818 92.802628 
L 406.472727 91.794286 
L 410.731636 91.021765 
L 414.724364 90.526534 
L 418.450909 90.276728 
L 422.177455 90.243512 
L 425.904 90.438065 
L 426.436364 90.485104 
L 426.436364 90.485104 
" clip-path="url(#pb48aee6729)" style="fill: none; stroke-dasharray: 3,4.95; stroke-dashoffset: 0; stroke: #ff0000; stroke-width: 3"/>
   </g>
   <g id="line2d_3">
    <path d="M 27.163636 316.472727 
L 29.026909 293.214986 
L 30.890182 272.790524 
L 32.753455 255.008679 
L 34.350545 241.725865 
L 35.947636 230.124408 
L 37.544727 220.084233 
L 39.141818 211.485256 
L 40.738909 204.207458 
L 42.069818 199.065182 
L 43.400727 194.687507 
L 44.731636 191.004954 
L 46.062545 187.947983 
L 47.393455 185.447177 
L 48.724364 183.433005 
L 50.055273 181.83603 
L 51.386182 180.586711 
L 52.717091 179.615611 
L 54.314182 178.71966 
L 56.709818 177.676579 
L 59.371636 176.500947 
L 60.968727 175.564818 
L 62.299636 174.545498 
L 63.630545 173.234581 
L 64.961455 171.562597 
L 66.292364 169.460069 
L 67.623273 166.857486 
L 68.954182 163.685359 
L 70.285091 159.874241 
L 71.616 155.354622 
L 72.946909 150.057012 
L 74.277818 143.911914 
L 75.608727 136.849887 
L 77.205818 127.067227 
L 78.802909 115.744023 
L 80.4 102.760268 
L 81.997091 87.99571 
L 83.328 75.799732 
L 85.191273 72.967544 
L 87.054545 70.516874 
L 88.917818 68.410854 
L 90.781091 66.612858 
L 92.910545 64.888014 
L 95.04 63.462697 
L 97.435636 62.148995 
L 100.097455 60.957562 
L 103.824 59.566209 
L 109.413818 57.494091 
L 112.075636 56.2647 
L 114.471273 54.902365 
L 116.600727 53.422361 
L 118.464 51.874675 
L 120.327273 50.052665 
L 122.190545 47.919665 
L 124.053818 45.438907 
L 125.917091 42.573685 
L 127.780364 39.28721 
L 129.643636 35.542896 
L 131.506909 31.303897 
L 133.370182 26.533544 
L 134.967273 21.993886 
L 135.233455 21.927353 
L 152.269091 39.044326 
L 167.175273 53.712869 
L 180.750545 66.766325 
L 193.261091 78.496817 
L 205.239273 89.424638 
L 216.418909 99.32753 
L 227.066182 108.468374 
L 237.447273 117.086078 
L 247.296 124.97392 
L 256.612364 132.161041 
L 265.662545 138.872807 
L 274.446545 145.119612 
L 280.302545 149.131387 
L 280.834909 149.118755 
L 284.827636 148.477684 
L 289.086545 147.559445 
L 293.345455 146.415677 
L 297.870545 144.971896 
L 302.661818 143.208589 
L 307.719273 141.111267 
L 313.309091 138.544382 
L 319.431273 135.476716 
L 326.352 131.746972 
L 334.603636 127.032961 
L 347.114182 119.591515 
L 361.754182 110.941282 
L 369.739636 106.478489 
L 376.394182 103.000306 
L 382.250182 100.174838 
L 387.84 97.725116 
L 392.897455 95.748953 
L 397.688727 94.113646 
L 402.213818 92.802689 
L 406.472727 91.794347 
L 410.731636 91.021825 
L 414.724364 90.526594 
L 418.450909 90.276789 
L 422.177455 90.243573 
L 425.904 90.438126 
L 426.436364 90.485165 
L 426.436364 90.485165 
" clip-path="url(#pb48aee6729)" style="fill: none; stroke: #ff0000; stroke-width: 3; stroke-linecap: square"/>
   </g>
   <g id="patch_3">
    <path d="M 7.2 331.2 
L 7.2 7.2 
" style="fill: none; stroke: #000000; stroke-width: 0.8; stroke-linejoin: miter; stroke-linecap: square"/>
   </g>
   <g id="patch_4">
    <path d="M 446.4 331.2 
L 446.4 7.2 
" style="fill: none; stroke: #000000; stroke-width: 0.8; stroke-linejoin: miter; stroke-linecap: square"/>
   </g>
   <g id="patch_5">
    <path d="M 7.2 331.2 
L 446.4 331.2 
" style="fill: none; stroke: #000000; stroke-width: 0.8; stroke-linejoin: miter; stroke-linecap: square"/>
   </g>
   <g id="patch_6">
    <path d="M 7.2 7.2 
L 446.4 7.2 
" style="fill: none; stroke: #000000; stroke-width: 0.8; stroke-linejoin: miter; stroke-linecap: square"/>
   </g>
  </g>
 </g>
 <defs>
  <clipPath id="pb48aee6729">
   <rect x="7.2" y="7.2" width="439.2" height="324"/>
  </clipPath>
 </defs>
</svg>
