<?xml version="1.0" encoding="utf-8" standalone="no"?>
<!DOCTYPE svg PUBLIC "-//W3C//DTD SVG 1.1//EN"
  "http://www.w3.org/Graphics/SVG/1.1/DTD/svg11.dtd">
<svg xmlns:xlink="http://www.w3.org/1999/xlink" width="453.6pt" height="338.4pt" viewBox="0 0 453.6 338.4" xmlns="http://www.w3.org/2000/svg" version="1.1">
 <metadata>
  <rdf:RDF xmlns:dc="http://purl.org/dc/elements/1.1/" xmlns:cc="http://creativecommons.org/ns#" xmlns:rdf="http://www.w3.org/1999/02/22-rdf-syntax-ns#">
   <cc:Work>
    <dc:type rdf:resource="http://purl.org/dc/dcmitype/StillImage"/>
    <dc:date>2025-05-14T00:10:37.679061</dc:date>
    <dc:format>image/svg+xml</dc:format>
    <dc:creator>
     <cc:Agent>
      <dc:title>Matplotlib v3.10.1, https://matplotlib.org/</dc:title>
     </cc:Agent>
    </dc:creator>
   </cc:Work>
  </rdf:RDF>
 </metadata>
 <defs>
  <style type="text/css">*{stroke-linejoin: round; stroke-linecap: butt}</style>
 </defs>
 <g id="figure_1">
  <g id="patch_1">
   <path d="M 0 338.4 
L 453.6 338.4 
L 453.6 0 
L 0 0 
z
" style="fill: #ffffff"/>
  </g>
  <g id="axes_1">
   <g id="patch_2">
    <path d="M 7.2 331.2 
L 446.4 331.2 
L 446.4 7.2 
L 7.2 7.2 
z
" style="fill: #ffffff"/>
   </g>
   <g id="matplotlib.axis_1"/>
   <g id="matplotlib.axis_2"/>
   <g id="line2d_1">
    <path d="M 27.163636 246.259557 
L 200.714182 316.472727 
L 200.980364 316.363178 
L 426.436364 21.927273 
L 426.436364 21.927273 
" clip-path="url(#p51b783813c)" style="fill: none; stroke-dasharray: 11.1,4.8; stroke-dashoffset: 0; stroke: #000000; stroke-width: 3"/>
   </g>
   <g id="line2d_2">
    <path d="M 27.163636 210.111035 
L 27.696 209.463288 
L 28.228364 209.086732 
L 28.760727 208.946936 
L 29.293091 209.011563 
L 30.091636 209.432943 
L 30.890182 210.156363 
L 31.954909 211.450908 
L 33.818182 214.162897 
L 36.213818 217.570068 
L 37.544727 219.116161 
L 38.875636 220.307389 
L 39.940364 220.990369 
L 41.005091 221.43518 
L 43.400727 221.992923 
L 44.199273 222.27025 
L 44.997818 222.4843 
L 46.062545 222.502042 
L 47.393455 222.2515 
L 50.587636 221.486541 
L 51.652364 221.474831 
L 52.717091 221.713903 
L 53.515636 222.101929 
L 54.314182 222.704416 
L 54.846545 223.242437 
L 56.709818 225.741888 
L 57.774545 226.68927 
L 58.573091 227.139519 
L 59.371636 227.351783 
L 60.170182 227.310988 
L 63.630545 226.26797 
L 65.227636 225.414803 
L 66.824727 224.266832 
L 68.155636 223.03593 
L 69.486545 221.497598 
L 70.817455 219.577101 
L 71.882182 217.701589 
L 72.946909 215.613961 
L 73.213091 215.626953 
L 74.544 217.465779 
L 75.874909 218.881611 
L 77.205818 219.899057 
L 78.004364 220.379433 
L 79.335273 220.8553 
L 81.198545 221.476411 
L 81.997091 221.939411 
L 82.795636 222.618006 
L 83.594182 223.563603 
L 84.392727 224.814044 
L 85.457455 226.992866 
L 86.256 224.147239 
L 87.054545 222.057505 
L 87.853091 220.603705 
L 88.651636 219.675518 
L 89.450182 219.15762 
L 90.248727 218.949637 
L 91.047273 218.971305 
L 92.112 219.215895 
L 93.709091 219.765454 
L 94.773818 220.7844 
L 96.104727 222.394147 
L 99.032727 226.425153 
L 101.162182 229.187176 
L 102.759273 230.958422 
L 103.824 231.962007 
L 104.090182 231.958962 
L 104.356364 231.833817 
L 105.687273 230.479614 
L 107.018182 229.412478 
L 108.615273 228.422354 
L 110.212364 227.669608 
L 112.874182 226.950903 
L 114.471273 226.138807 
L 116.334545 224.939658 
L 117.931636 223.67278 
L 119.262545 222.354473 
L 120.593455 220.680282 
L 121.658182 219.009182 
L 122.989091 216.442632 
L 124.32 213.33861 
L 126.183273 208.285315 
L 126.981818 205.999136 
L 127.780364 202.507295 
L 128.578909 204.572911 
L 129.377455 206.147586 
L 130.176 207.348761 
L 131.240727 208.535158 
L 132.305455 209.385085 
L 133.636364 210.140247 
L 135.233455 210.768214 
L 137.362909 211.354059 
L 143.751273 212.913029 
L 145.082182 214.030942 
L 146.146909 215.205606 
L 147.211636 216.683501 
L 148.542545 218.986278 
L 149.873455 221.797921 
L 151.470545 225.573292 
L 151.736727 225.739564 
L 153.067636 225.000565 
L 154.930909 223.696211 
L 157.858909 221.312325 
L 160.254545 219.252123 
L 165.312 218.160972 
L 168.506182 217.327322 
L 171.168 216.411406 
L 174.894545 215.059824 
L 176.225455 214.841378 
L 177.024 214.921229 
L 177.556364 215.319866 
L 178.088727 216.086416 
L 178.621091 217.254785 
L 179.153455 218.854654 
L 180.484364 223.317103 
L 181.282909 224.907551 
L 181.815273 225.563688 
L 182.347636 225.922331 
L 182.88 226.001186 
L 183.412364 225.827199 
L 183.944727 225.421534 
L 184.743273 224.423787 
L 185.541818 223.020214 
L 186.606545 220.629071 
L 187.937455 217.029907 
L 190.066909 210.541836 
L 190.333091 210.575821 
L 191.397818 216.700682 
L 192.196364 220.200204 
L 192.994909 222.799915 
L 193.527273 224.053721 
L 194.059636 224.827482 
L 194.592 225.320827 
L 195.124364 225.578466 
L 195.656727 225.616903 
L 196.189091 225.471796 
L 196.987636 224.951586 
L 197.786182 224.116447 
L 198.850909 222.586746 
L 199.915636 220.646538 
L 201.246545 217.704908 
L 202.577455 214.202456 
L 203.908364 210.088394 
L 204.973091 206.623956 
L 206.304 206.203159 
L 207.634909 206.00051 
L 208.965818 206.001025 
L 210.296727 206.187889 
L 213.224727 206.868396 
L 214.555636 206.895536 
L 215.886545 206.660825 
L 217.217455 206.177748 
L 218.548364 205.534762 
L 218.814545 205.634381 
L 221.742545 209.190792 
L 223.073455 210.447368 
L 224.404364 211.396376 
L 225.469091 211.922069 
L 226.533818 212.238691 
L 226.8 212.285325 
L 228.130909 213.68109 
L 229.728 215.723504 
L 233.720727 221.051172 
L 234.785455 222.060767 
L 235.584 222.586071 
L 236.382545 222.875221 
L 237.181091 222.901251 
L 237.979636 222.636344 
L 238.778182 222.081737 
L 239.576727 221.246164 
L 240.641455 219.708725 
L 241.706182 217.780742 
L 243.303273 214.755735 
L 244.634182 215.119368 
L 245.965091 215.754833 
L 247.296 216.680605 
L 248.893091 218.105479 
L 251.554909 220.549906 
L 252.353455 221.031507 
L 253.152 221.248636 
L 253.684364 221.196349 
L 254.216727 220.939294 
L 254.749091 220.444129 
L 255.281455 219.670333 
L 255.813818 218.573459 
L 256.612364 216.217559 
L 257.410909 212.859356 
L 257.943273 210.29149 
L 258.209455 210.834719 
L 259.008 213.63361 
L 259.806545 215.740205 
L 260.605091 217.182089 
L 261.403636 218.0785 
L 262.202182 218.58977 
L 263.000727 218.832459 
L 264.065455 218.905602 
L 266.993455 218.915 
L 268.058182 219.229928 
L 268.856727 219.68139 
L 269.655273 220.366991 
L 270.72 221.357996 
L 271.784727 222.013687 
L 272.849455 222.435663 
L 273.914182 222.585647 
L 274.712727 222.490492 
L 275.511273 222.187629 
L 276.309818 221.644354 
L 276.842182 221.107295 
L 277.640727 219.931382 
L 278.705455 217.885798 
L 279.770182 215.321525 
L 281.101091 211.416911 
L 282.432 206.732183 
L 282.698182 206.659188 
L 283.496727 208.407919 
L 284.295273 209.649855 
L 285.093818 210.484489 
L 285.892364 210.998747 
L 286.690909 211.272605 
L 287.755636 211.402764 
L 289.618909 211.594974 
L 290.417455 211.959957 
L 290.949818 212.407768 
L 291.482182 213.084315 
L 292.014545 214.057875 
L 292.546909 215.410511 
L 293.079273 217.22649 
L 293.345455 218.344769 
L 294.144 219.463059 
L 294.942545 220.920327 
L 295.741091 222.768002 
L 297.072 222.280059 
L 298.669091 221.423036 
L 300.266182 220.281405 
L 302.129455 218.659605 
L 308.251636 213.052985 
L 313.042909 209.581245 
L 313.309091 209.840188 
L 314.64 212.993692 
L 315.970909 215.573292 
L 317.301818 217.638644 
L 318.632727 219.290194 
L 320.762182 221.483908 
L 322.359273 223.259012 
L 323.424 224.792296 
L 324.222545 226.257015 
L 324.754909 227.433683 
L 325.021091 227.173905 
L 325.819636 225.696697 
L 326.618182 224.660054 
L 327.682909 223.862369 
L 330.344727 222.135261 
L 331.409455 221.052477 
L 332.474182 219.541708 
L 333.538909 217.535317 
L 334.603636 215.025049 
L 335.934545 211.263242 
L 337.797818 205.524518 
L 338.064 205.559521 
L 339.128727 208.726647 
L 340.193455 211.129203 
L 340.992 212.473414 
L 341.790545 213.459257 
L 342.589091 214.103295 
L 343.121455 214.345664 
L 343.387636 215.071602 
L 344.452364 219.905364 
L 345.250909 222.725615 
L 346.049455 224.839982 
L 346.848 226.241242 
L 347.380364 226.7775 
L 347.912727 227.001131 
L 348.445091 226.915808 
L 348.977455 226.520102 
L 349.509818 225.826649 
L 350.042182 224.843656 
L 350.840727 222.843148 
L 351.639273 220.246974 
L 352.171636 218.344586 
L 354.567273 214.77025 
L 355.632 213.631985 
L 356.430545 213.107643 
L 356.962909 212.94271 
L 357.495273 212.932373 
L 358.027636 213.090393 
L 358.56 213.407473 
L 359.358545 214.195417 
L 359.890909 214.910756 
L 360.423273 216.44436 
L 361.221818 219.595805 
L 362.020364 223.779119 
L 363.085091 230.933033 
L 363.351273 233.003846 
L 363.617455 233.733836 
L 364.416 229.922603 
L 365.214545 227.11025 
L 366.013091 225.066177 
L 366.811636 223.594074 
L 367.610182 222.529674 
L 368.674909 221.519461 
L 370.272 220.411575 
L 372.135273 219.094161 
L 373.466182 217.855888 
L 374.797091 216.249335 
L 376.128 214.214693 
L 379.056 208.92268 
L 380.386909 206.211332 
L 381.984 210.01659 
L 383.581091 213.212195 
L 385.178182 215.890097 
L 386.775273 218.098165 
L 388.106182 219.55565 
L 389.170909 220.428825 
L 390.235636 221.001643 
L 391.034182 221.209604 
L 391.832727 221.201339 
L 392.631273 220.954083 
L 393.163636 220.647648 
L 393.962182 219.590265 
L 395.026909 217.685197 
L 397.954909 211.832191 
L 398.221091 212.110055 
L 399.019636 215.524896 
L 399.818182 218.094674 
L 400.616727 219.95344 
L 401.415273 221.249529 
L 402.213818 222.095175 
L 403.012364 222.592847 
L 403.810909 222.831919 
L 404.875636 222.878426 
L 406.472727 222.630083 
L 408.868364 222.188544 
L 409.933091 222.053636 
L 410.997818 221.389612 
L 412.328727 220.251713 
L 413.659636 218.780641 
L 415.256727 216.656522 
L 417.652364 213.035655 
L 420.580364 208.693704 
L 422.177455 206.728051 
L 423.508364 205.452416 
L 424.573091 204.723113 
L 425.637818 204.289381 
L 426.436364 204.1774 
L 426.436364 204.1774 
" clip-path="url(#p51b783813c)" style="fill: none; stroke-dasharray: 3,4.95; stroke-dashoffset: 0; stroke: #ff0000; stroke-width: 3"/>
   </g>
   <g id="line2d_3">
    <path d="M 27.163636 173.560397 
L 27.962182 186.168384 
L 28.760727 195.884236 
L 29.559273 203.144065 
L 30.357818 208.298387 
L 31.156364 211.728291 
L 31.688727 213.199272 
L 32.221091 214.123922 
L 32.753455 214.560504 
L 33.285818 214.590379 
L 33.818182 214.265504 
L 34.350545 213.648605 
L 35.149091 212.262477 
L 36.213818 209.776247 
L 37.544727 205.990425 
L 39.674182 199.128168 
L 42.336 190.43876 
L 42.602182 190.121989 
L 43.134545 190.723538 
L 43.666909 191.412836 
L 43.933091 193.551801 
L 44.997818 206.860796 
L 46.062545 217.030903 
L 46.861091 222.96313 
L 47.659636 227.642708 
L 48.458182 231.185555 
L 49.256727 233.650391 
L 49.789091 234.705577 
L 50.321455 235.290884 
L 50.587636 235.399854 
L 50.853818 235.386554 
L 51.386182 234.9953 
L 51.918545 234.09035 
L 52.450909 232.883154 
L 53.515636 236.947401 
L 54.580364 240.154876 
L 56.443636 245.017175 
L 58.839273 250.221346 
L 59.371636 251.789325 
L 60.436364 255.960277 
L 61.234909 256.622526 
L 62.033455 257.004062 
L 63.098182 257.218753 
L 64.429091 257.272357 
L 64.695273 257.210225 
L 65.227636 256.72337 
L 66.292364 255.292555 
L 67.357091 253.514957 
L 68.421818 251.335013 
L 69.486545 248.655691 
L 70.551273 245.369956 
L 71.616 241.345268 
L 73.213091 234.441037 
L 74.011636 233.022389 
L 74.810182 231.085489 
L 75.608727 228.611519 
L 76.673455 224.477436 
L 76.939636 223.292916 
L 77.472 218.390166 
L 80.666182 184.22971 
L 80.932364 182.534709 
L 81.198545 181.852439 
L 82.263273 185.037731 
L 83.328 188.942185 
L 84.658909 194.871391 
L 85.457455 199.017228 
L 85.989818 198.600987 
L 86.522182 198.590216 
L 87.054545 198.986495 
L 87.586909 199.743144 
L 88.119273 200.836824 
L 88.917818 203.064855 
L 89.716364 205.92581 
L 90.781091 210.634977 
L 92.112 217.822281 
L 93.442909 226.331727 
L 93.709091 228.17876 
L 94.507636 230.669901 
L 95.572364 234.800034 
L 96.903273 241.017303 
L 98.766545 250.10331 
L 100.363636 253.555992 
L 100.629818 253.510252 
L 101.694545 251.821123 
L 103.025455 249.241559 
L 103.824 247.508372 
L 104.356364 245.706496 
L 105.953455 239.219695 
L 107.284364 234.590208 
L 108.349091 231.545262 
L 109.147636 229.72467 
L 109.946182 228.356937 
L 110.478545 227.843411 
L 111.010909 227.97626 
L 111.543273 228.426165 
L 112.075636 229.2066 
L 112.608 230.320278 
L 113.406545 232.63995 
L 113.672727 231.866382 
L 115.003636 226.669617 
L 115.536 224.909108 
L 115.802182 224.865302 
L 116.600727 226.816006 
L 117.399273 228.485069 
L 118.197818 229.661405 
L 118.730182 230.14082 
L 119.262545 230.37948 
L 119.794909 230.343595 
L 120.327273 230.059229 
L 120.859636 229.477036 
L 121.392 228.632225 
L 122.190545 226.811393 
L 122.989091 224.346007 
L 123.787636 221.230001 
L 125.118545 215.322796 
L 125.650909 214.913938 
L 126.183273 214.18476 
L 126.981818 212.569725 
L 127.780364 210.120559 
L 128.578909 213.069068 
L 129.377455 215.104053 
L 129.909818 216.021949 
L 130.442182 216.611205 
L 130.974545 216.913473 
L 131.506909 216.918521 
L 132.039273 216.664786 
L 132.571636 216.145732 
L 133.370182 214.886684 
L 134.168727 213.059659 
L 134.967273 210.675555 
L 136.032 206.614444 
L 137.096727 202.273534 
L 137.629091 202.073632 
L 138.161455 201.596759 
L 138.693818 200.853456 
L 139.492364 199.265389 
L 140.290909 197.17142 
L 141.355636 193.737819 
L 141.888 191.823938 
L 142.154182 191.501077 
L 142.952727 191.241195 
L 143.485091 191.258846 
L 143.751273 191.454272 
L 144.283636 192.358696 
L 145.082182 194.312342 
L 146.413091 198.438904 
L 148.808727 206.100014 
L 150.139636 209.630739 
L 151.204364 211.941311 
L 151.470545 212.167998 
L 151.736727 212.04726 
L 152.535273 210.459444 
L 153.333818 208.420613 
L 154.664727 204.82929 
L 155.729455 202.297778 
L 157.060364 198.815964 
L 157.326545 198.471561 
L 160.254545 199.196241 
L 161.851636 206.192823 
L 163.182545 211.661718 
L 164.247273 215.08243 
L 165.045818 216.966196 
L 165.844364 218.28163 
L 166.642909 219.08165 
L 167.175273 219.37048 
L 167.973818 219.498738 
L 168.772364 219.385074 
L 169.304727 219.191262 
L 170.103273 217.750019 
L 171.168 215.37023 
L 173.031273 210.51963 
L 175.426909 204.339952 
L 176.491636 202.113913 
L 176.757818 201.647089 
L 177.024 200.168107 
L 177.822545 191.041854 
L 178.354909 183.347916 
L 178.621091 181.759745 
L 179.153455 184.718316 
L 180.218182 193.085104 
L 182.613818 211.87088 
L 183.678545 218.716094 
L 184.210909 221.440617 
L 184.743273 223.227969 
L 185.275636 224.28723 
L 185.541818 224.541445 
L 185.808 224.576609 
L 186.074182 224.399165 
L 186.340364 223.995149 
L 186.872727 222.432516 
L 187.405091 219.808275 
L 187.937455 215.988869 
L 189.268364 205.011084 
L 190.066909 200.21062 
L 190.333091 199.792352 
L 193.261091 214.891983 
L 194.325818 219.127963 
L 195.390545 222.433237 
L 196.189091 224.183707 
L 196.721455 224.951815 
L 197.253818 225.364656 
L 197.786182 225.392437 
L 198.052364 225.249836 
L 199.383273 219.274707 
L 200.181818 217.457503 
L 200.714182 216.690449 
L 201.246545 216.218555 
L 201.778909 215.993242 
L 202.311273 215.965953 
L 203.109818 216.183872 
L 204.706909 216.96821 
L 204.973091 217.402342 
L 207.634909 227.385413 
L 208.433455 229.637688 
L 208.965818 230.722806 
L 209.232 231.048139 
L 209.498182 231.068743 
L 209.764364 230.886423 
L 210.296727 230.045848 
L 210.829091 228.857424 
L 211.893818 225.731345 
L 212.958545 224.466986 
L 214.023273 222.834094 
L 215.354182 220.346651 
L 217.217455 216.263666 
L 218.814545 212.791307 
L 220.677818 212.100326 
L 224.404364 210.758725 
L 224.936727 210.560105 
L 226.533818 211.595122 
L 226.8 211.709141 
L 227.332364 212.91802 
L 227.864727 214.763027 
L 228.397091 217.339719 
L 229.195636 221.350339 
L 229.994182 224.380977 
L 230.792727 226.695165 
L 231.857455 228.99397 
L 232.922182 230.672602 
L 233.986909 231.921108 
L 235.051636 232.812369 
L 236.116364 233.366792 
L 236.914909 233.543618 
L 237.713455 233.489407 
L 238.512 233.190951 
L 239.310545 232.642949 
L 240.109091 231.824603 
L 241.173818 230.349616 
L 242.238545 228.496081 
L 243.037091 226.913187 
L 243.303273 226.695532 
L 243.569455 227.20766 
L 244.101818 229.46892 
L 244.900364 234.248563 
L 245.432727 238.487954 
L 245.698909 238.961325 
L 246.497455 227.05715 
L 247.296 218.683815 
L 247.828364 214.889957 
L 248.360727 212.540857 
L 248.626909 211.999162 
L 248.893091 211.726093 
L 249.159273 211.671551 
L 249.425455 211.803357 
L 249.957818 212.57657 
L 250.490182 213.851174 
L 251.554909 217.181837 
L 252.619636 220.345598 
L 253.152 221.412619 
L 253.684364 221.903171 
L 253.950545 221.863715 
L 254.216727 221.626509 
L 254.482909 221.146797 
L 255.015273 219.412729 
L 255.547636 216.486117 
L 255.813818 214.508937 
L 256.08 214.187484 
L 256.612364 214.898542 
L 256.878545 215.070915 
L 257.144727 215.106617 
L 257.410909 215.001813 
L 257.677091 214.746647 
L 257.943273 214.660935 
L 258.475636 218.550543 
L 259.540364 226.269835 
L 260.072727 229.53895 
L 260.871273 231.495641 
L 261.669818 232.958552 
L 262.468364 234.044999 
L 263.266909 234.845683 
L 264.331636 235.579427 
L 265.396364 236.027547 
L 266.461091 236.263803 
L 267.792 236.315049 
L 268.324364 236.268989 
L 268.856727 237.450785 
L 271.518545 244.407155 
L 272.849455 247.034761 
L 273.914182 248.683541 
L 274.712727 249.610926 
L 275.511273 250.219068 
L 276.043636 250.419611 
L 276.309818 249.399028 
L 276.842182 244.384331 
L 277.906909 233.33101 
L 279.237818 221.927964 
L 280.834909 210.528558 
L 282.432 200.485634 
L 282.698182 199.882791 
L 283.762909 200.513518 
L 285.093818 200.942293 
L 287.755636 201.669387 
L 288.021818 201.309474 
L 288.554182 199.818073 
L 288.820364 200.223268 
L 289.618909 206.802224 
L 290.417455 211.821718 
L 291.216 215.646 
L 292.280727 219.635913 
L 293.345455 223.489739 
L 295.208727 224.370286 
L 295.741091 225.028747 
L 296.273455 224.426808 
L 296.805818 224.17384 
L 297.072 224.223404 
L 297.338182 224.4144 
L 297.870545 225.300292 
L 298.402909 226.988837 
L 298.935273 229.64293 
L 299.467636 233.430939 
L 300.266182 241.032549 
L 300.532364 241.107295 
L 301.863273 237.93432 
L 303.194182 234.227559 
L 307.186909 220.736931 
L 307.985455 218.891615 
L 308.784 217.601111 
L 309.316364 217.119831 
L 309.848727 216.997468 
L 310.381091 216.891198 
L 310.913455 216.78051 
L 311.978182 214.751935 
L 312.776727 213.635625 
L 313.042909 213.345055 
L 313.309091 213.536086 
L 317.035636 223.044023 
L 321.028364 233.667927 
L 321.560727 234.900786 
L 322.093091 235.262485 
L 322.891636 235.84074 
L 323.690182 236.744019 
L 324.488727 238.049357 
L 324.754909 238.58866 
L 325.021091 238.230968 
L 325.819636 236.46184 
L 326.618182 235.20943 
L 328.747636 232.375707 
L 329.546182 230.911926 
L 330.344727 229.008885 
L 331.143273 226.571257 
L 331.941818 223.527902 
L 332.474182 221.428141 
L 333.006545 220.463153 
L 334.071273 218.673101 
L 335.136 216.459493 
L 336.200727 213.713221 
L 337.797818 208.914897 
L 338.064 208.929491 
L 338.330182 209.784855 
L 339.661091 216.7521 
L 340.725818 220.864892 
L 341.524364 223.137953 
L 342.322909 224.768098 
L 343.121455 225.784766 
L 343.387636 226.8374 
L 344.186182 231.651772 
L 344.984727 235.001882 
L 345.517091 236.401516 
L 346.049455 237.126482 
L 346.315636 237.239241 
L 346.581818 237.180349 
L 346.848 236.962236 
L 347.380364 236.022946 
L 347.912727 234.435874 
L 348.445091 232.228001 
L 349.243636 227.778922 
L 350.042182 222.052331 
L 351.106909 212.614755 
L 352.437818 200.449406 
L 352.970182 201.699652 
L 353.768727 202.933712 
L 354.567273 203.615936 
L 355.365818 203.96778 
L 358.027636 204.650152 
L 358.826182 205.106846 
L 359.358545 205.554576 
L 359.890909 206.472393 
L 360.955636 210.645405 
L 362.020364 215.911284 
L 363.085091 222.35247 
L 363.351273 224.172833 
L 363.617455 224.570897 
L 364.682182 217.919771 
L 365.480727 214.089422 
L 366.279273 211.174795 
L 367.077818 209.15841 
L 367.610182 208.323821 
L 368.142545 207.90133 
L 368.674909 207.894268 
L 369.207273 208.331422 
L 369.739636 209.199778 
L 370.272 210.498683 
L 370.804364 212.084484 
L 371.070545 211.622823 
L 372.401455 205.348115 
L 373.998545 198.855077 
L 377.192727 187.160809 
L 380.386909 175.434696 
L 382.250182 183.01235 
L 383.314909 186.233332 
L 384.379636 188.726635 
L 385.444364 190.608844 
L 386.509091 192.01276 
L 387.573818 193.020076 
L 388.638545 193.684592 
L 388.904727 194.840142 
L 389.969455 202.079447 
L 390.768 206.160498 
L 391.566545 209.095798 
L 392.098909 210.41177 
L 392.631273 211.227987 
L 393.163636 211.548649 
L 393.696 211.053725 
L 394.494545 209.881945 
L 395.293091 208.290878 
L 396.357818 205.669499 
L 397.954909 201.051161 
L 398.221091 201.012242 
L 399.019636 203.44789 
L 399.552 204.453078 
L 400.084364 205.014335 
L 400.616727 205.186216 
L 401.149091 205.020173 
L 401.681455 204.576906 
L 402.48 203.494924 
L 403.544727 201.540476 
L 407.005091 194.587929 
L 408.069818 193.036239 
L 408.868364 192.167929 
L 409.666909 191.581913 
L 409.933091 191.095035 
L 410.199273 192.586001 
L 410.997818 199.824803 
L 411.796364 205.503376 
L 412.594909 209.894524 
L 413.393455 213.232066 
L 414.192 215.730807 
L 414.990545 217.570641 
L 415.789091 218.912894 
L 416.587636 219.892292 
L 417.652364 220.836699 
L 421.112727 223.556633 
L 422.177455 224.868965 
L 423.242182 226.586068 
L 424.306909 228.783079 
L 425.371636 231.509388 
L 426.436364 234.785531 
L 426.436364 234.785531 
" clip-path="url(#p51b783813c)" style="fill: none; stroke: #ff0000; stroke-width: 3; stroke-linecap: square"/>
   </g>
   <g id="patch_3">
    <path d="M 7.2 331.2 
L 7.2 7.2 
" style="fill: none; stroke: #000000; stroke-width: 0.8; stroke-linejoin: miter; stroke-linecap: square"/>
   </g>
   <g id="patch_4">
    <path d="M 446.4 331.2 
L 446.4 7.2 
" style="fill: none; stroke: #000000; stroke-width: 0.8; stroke-linejoin: miter; stroke-linecap: square"/>
   </g>
   <g id="patch_5">
    <path d="M 7.2 331.2 
L 446.4 331.2 
" style="fill: none; stroke: #000000; stroke-width: 0.8; stroke-linejoin: miter; stroke-linecap: square"/>
   </g>
   <g id="patch_6">
    <path d="M 7.2 7.2 
L 446.4 7.2 
" style="fill: none; stroke: #000000; stroke-width: 0.8; stroke-linejoin: miter; stroke-linecap: square"/>
   </g>
  </g>
 </g>
 <defs>
  <clipPath id="p51b783813c">
   <rect x="7.2" y="7.2" width="439.2" height="324"/>
  </clipPath>
 </defs>
</svg>
