<?xml version="1.0" encoding="utf-8" standalone="no"?>
<!DOCTYPE svg PUBLIC "-//W3C//DTD SVG 1.1//EN"
  "http://www.w3.org/Graphics/SVG/1.1/DTD/svg11.dtd">
<svg xmlns:xlink="http://www.w3.org/1999/xlink" width="453.6pt" height="338.4pt" viewBox="0 0 453.6 338.4" xmlns="http://www.w3.org/2000/svg" version="1.1">
 <metadata>
  <rdf:RDF xmlns:dc="http://purl.org/dc/elements/1.1/" xmlns:cc="http://creativecommons.org/ns#" xmlns:rdf="http://www.w3.org/1999/02/22-rdf-syntax-ns#">
   <cc:Work>
    <dc:type rdf:resource="http://purl.org/dc/dcmitype/StillImage"/>
    <dc:date>2025-05-14T00:06:59.400186</dc:date>
    <dc:format>image/svg+xml</dc:format>
    <dc:creator>
     <cc:Agent>
      <dc:title>Matplotlib v3.10.1, https://matplotlib.org/</dc:title>
     </cc:Agent>
    </dc:creator>
   </cc:Work>
  </rdf:RDF>
 </metadata>
 <defs>
  <style type="text/css">*{stroke-linejoin: round; stroke-linecap: butt}</style>
 </defs>
 <g id="figure_1">
  <g id="patch_1">
   <path d="M 0 338.4 
L 453.6 338.4 
L 453.6 0 
L 0 0 
z
" style="fill: #ffffff"/>
  </g>
  <g id="axes_1">
   <g id="patch_2">
    <path d="M 7.2 331.2 
L 446.4 331.2 
L 446.4 7.2 
L 7.2 7.2 
z
" style="fill: #ffffff"/>
   </g>
   <g id="matplotlib.axis_1"/>
   <g id="matplotlib.axis_2"/>
   <g id="line2d_1">
    <path d="M 27.163636 227.008244 
L 55.112727 311.956221 
L 55.378909 312.166863 
L 109.946182 123.947804 
L 110.212364 123.659801 
L 135.233455 211.567626 
L 135.499636 211.12094 
L 180.750545 21.927273 
L 214.821818 186.516426 
L 215.088 186.722232 
L 277.108364 90.221505 
L 355.365818 211.404135 
L 426.436364 316.472727 
L 426.436364 316.472727 
" clip-path="url(#pe05b679515)" style="fill: none; stroke-dasharray: 11.1,4.8; stroke-dashoffset: 0; stroke: #000000; stroke-width: 3"/>
   </g>
   <g id="line2d_2">
    <path d="M 27.163636 180.27385 
L 28.760727 180.308659 
L 30.890182 180.615964 
L 35.149091 181.323157 
L 37.278545 181.405535 
L 39.408 181.262732 
L 43.933091 180.695727 
L 44.731636 180.14541 
L 45.796364 180.20581 
L 47.127273 180.02744 
L 51.12 179.313391 
L 52.450909 179.356971 
L 53.781818 179.655179 
L 54.846545 180.113818 
L 55.911273 180.799443 
L 56.976 181.646282 
L 58.306909 181.680007 
L 59.637818 181.507215 
L 62.299636 181.061252 
L 66.026182 180.340082 
L 74.544 178.55111 
L 77.205818 178.289229 
L 78.270545 178.278915 
L 79.867636 178.654935 
L 81.730909 179.373418 
L 88.119273 182.167406 
L 89.450182 182.408972 
L 90.781091 182.44395 
L 91.579636 182.290231 
L 93.442909 181.829858 
L 96.903273 181.318543 
L 100.097455 180.797323 
L 101.694545 180.33754 
L 103.291636 179.634239 
L 104.622545 178.823715 
L 105.687273 178.186007 
L 107.550545 177.75372 
L 109.946182 177.446101 
L 111.809455 177.398448 
L 121.392 177.31042 
L 125.118545 177.449017 
L 126.981818 177.073865 
L 130.708364 176.976149 
L 134.701091 177.077769 
L 137.629091 177.355024 
L 140.024727 177.806722 
L 141.621818 178.132089 
L 144.549818 177.450981 
L 147.744 177.183509 
L 149.873455 177.227223 
L 151.470545 177.468789 
L 152.801455 177.871352 
L 154.132364 178.521482 
L 155.729455 179.426927 
L 157.592727 179.955846 
L 159.456 180.252777 
L 161.585455 180.357047 
L 168.506182 180.452124 
L 171.434182 179.895204 
L 174.096 179.172287 
L 176.491636 178.307531 
L 177.024 178.130354 
L 178.887273 178.069411 
L 183.412364 179.233905 
L 186.074182 179.705206 
L 188.203636 179.844262 
L 190.066909 179.741822 
L 192.462545 179.353164 
L 194.059636 179.15831 
L 202.843636 179.115597 
L 205.505455 179.735232 
L 208.433455 180.656822 
L 210.562909 181.295059 
L 214.023273 181.703936 
L 216.418909 181.770927 
L 218.548364 181.614305 
L 220.411636 181.272745 
L 222.274909 180.717066 
L 223.872 180.083961 
L 226.267636 180.707427 
L 230.260364 181.459984 
L 232.656 181.554663 
L 235.317818 181.41962 
L 237.447273 181.104001 
L 239.310545 180.615181 
L 240.907636 179.977943 
L 242.238545 179.409974 
L 243.037091 179.311511 
L 247.562182 179.63401 
L 259.540364 180.659545 
L 260.338909 180.808155 
L 261.669818 181.312241 
L 263.000727 181.562555 
L 264.065455 181.549916 
L 265.130182 181.346954 
L 266.727273 180.942391 
L 276.576 181.776 
L 280.568727 182.111355 
L 285.36 182.475783 
L 288.021818 182.443998 
L 289.885091 182.242024 
L 301.597091 180.735247 
L 305.057455 180.592601 
L 308.517818 180.673907 
L 309.316364 180.610072 
L 313.042909 180.113721 
L 317.568 179.892698 
L 322.625455 179.574031 
L 325.021091 179.221735 
L 326.618182 178.814859 
L 327.949091 177.905571 
L 330.078545 176.330513 
L 331.409455 177.159364 
L 333.006545 177.860159 
L 335.136 178.51506 
L 342.322909 180.43569 
L 343.653818 181.168222 
L 344.718545 181.987963 
L 345.783273 183.0061 
L 347.646545 182.05234 
L 350.574545 180.882231 
L 353.768727 179.537776 
L 356.696727 178.019613 
L 359.890909 176.354479 
L 360.423273 176.583008 
L 362.818909 178.28741 
L 365.480727 180.151169 
L 367.077818 181.027419 
L 368.408727 181.539783 
L 369.739636 181.822087 
L 372.135273 182.000735 
L 373.732364 181.702815 
L 377.725091 180.800913 
L 384.645818 179.97857 
L 385.976727 180.0492 
L 387.041455 180.281838 
L 388.106182 180.753839 
L 389.170909 181.477141 
L 389.703273 180.995056 
L 390.768 180.018234 
L 391.566545 179.536462 
L 392.365091 179.286666 
L 393.163636 179.268931 
L 395.026909 179.433819 
L 396.624 179.794464 
L 398.221091 180.397266 
L 400.616727 181.6151 
L 402.213818 182.347391 
L 402.746182 182.509448 
L 403.012364 182.338824 
L 404.077091 180.975621 
L 405.141818 179.977401 
L 406.206545 179.336199 
L 407.271273 179.021725 
L 408.336 178.989928 
L 409.400727 179.180986 
L 410.199273 179.305137 
L 412.594909 179.485604 
L 414.990545 179.906831 
L 416.321455 180.204919 
L 417.12 179.916687 
L 418.450909 179.542595 
L 419.781818 179.429264 
L 421.378909 179.561958 
L 424.040727 179.84784 
L 425.105455 179.705556 
L 425.904 179.399961 
L 426.436364 179.076897 
L 426.436364 179.076897 
" clip-path="url(#pe05b679515)" style="fill: none; stroke-dasharray: 3,4.95; stroke-dashoffset: 0; stroke: #0000ff; stroke-width: 3"/>
   </g>
   <g id="line2d_3">
    <path d="M 27.163636 246.872482 
L 27.962182 236.767893 
L 28.760727 229.002636 
L 29.559273 223.420245 
L 30.091636 220.762222 
L 30.624 218.906071 
L 31.156364 217.733945 
L 31.688727 217.148276 
L 32.221091 217.102617 
L 32.753455 217.454846 
L 33.285818 218.136176 
L 34.350545 220.119893 
L 36.48 224.425417 
L 37.278545 225.5373 
L 37.810909 226.005246 
L 38.343273 226.264097 
L 38.875636 226.277037 
L 39.408 226.050212 
L 39.674182 225.670096 
L 39.940364 223.862515 
L 41.005091 211.998166 
L 42.069818 202.629537 
L 42.868364 197.138048 
L 43.666909 192.902395 
L 43.933091 189.92212 
L 44.731636 177.255983 
L 45.530182 170.373796 
L 46.062545 167.227296 
L 46.594909 165.262278 
L 46.861091 164.722576 
L 47.127273 164.463153 
L 47.393455 164.482889 
L 47.659636 164.794905 
L 47.925818 165.376911 
L 48.458182 167.350073 
L 48.990545 170.358771 
L 49.789091 176.678098 
L 50.587636 184.946188 
L 51.652364 198.574267 
L 52.184727 205.791339 
L 52.717091 204.834831 
L 53.249455 204.464138 
L 53.515636 204.472403 
L 54.048 204.875436 
L 54.580364 205.766325 
L 55.112727 207.107383 
L 55.911273 209.957554 
L 57.242182 215.475671 
L 59.105455 219.215624 
L 60.170182 220.864739 
L 60.436364 221.151043 
L 61.234909 222.422332 
L 61.767273 222.852065 
L 62.033455 222.866837 
L 62.565818 222.698563 
L 63.098182 222.924556 
L 63.630545 223.523768 
L 64.429091 224.907749 
L 67.357091 230.878974 
L 67.889455 231.457263 
L 68.421818 231.722463 
L 68.954182 231.617277 
L 69.486545 231.117553 
L 70.018909 230.179408 
L 70.551273 228.783046 
L 71.349818 225.848081 
L 72.148364 221.883545 
L 73.213091 215.182066 
L 74.544 205.006563 
L 76.407273 189.211469 
L 76.673455 188.821497 
L 76.939636 189.110705 
L 77.205818 189.809476 
L 78.536727 195.002732 
L 78.802909 196.892782 
L 80.133818 209.74335 
L 81.198545 217.896772 
L 81.997091 222.621655 
L 82.795636 226.09066 
L 83.328 227.690092 
L 83.860364 228.696951 
L 84.392727 229.114196 
L 84.658909 229.100436 
L 84.925091 228.928289 
L 85.457455 228.122434 
L 85.989818 226.695462 
L 86.522182 224.620457 
L 87.320727 220.259714 
L 88.119273 214.313563 
L 88.917818 206.66548 
L 89.450182 199.685348 
L 91.845818 165.075437 
L 92.910545 152.203964 
L 93.709091 144.679081 
L 94.773818 138.98928 
L 97.169455 128.516365 
L 97.701818 127.209659 
L 98.234182 126.342819 
L 98.766545 125.896953 
L 99.298909 125.851239 
L 99.831273 126.202065 
L 100.363636 126.908125 
L 100.896 127.942709 
L 101.694545 130.076277 
L 102.493091 132.797418 
L 103.557818 137.161029 
L 105.154909 144.831125 
L 105.687273 148.260338 
L 106.752 155.569632 
L 108.615273 168.28764 
L 110.478545 182.47753 
L 111.543273 191.3744 
L 113.140364 202.365969 
L 113.672727 205.604341 
L 113.938909 206.390526 
L 115.269818 206.086149 
L 115.802182 206.126946 
L 116.334545 206.343403 
L 116.866909 206.78621 
L 117.399273 207.47698 
L 118.197818 209.035169 
L 118.996364 211.259477 
L 119.794909 214.121685 
L 120.859636 218.825037 
L 121.392 221.340583 
L 121.658182 220.322651 
L 122.722909 210.410662 
L 124.852364 192.108956 
L 125.917091 179.653854 
L 127.248 162.652456 
L 128.046545 156.77155 
L 128.578909 152.303789 
L 131.773091 180.049935 
L 132.571636 185.200286 
L 133.370182 188.841787 
L 133.902545 190.211942 
L 134.168727 190.544815 
L 134.434909 190.600951 
L 134.701091 190.365625 
L 134.967273 189.83808 
L 135.499636 187.808975 
L 136.032 184.335795 
L 136.564364 179.310812 
L 137.096727 172.534221 
L 138.161455 156.416664 
L 138.96 150.708055 
L 139.492364 147.989204 
L 140.024727 146.087961 
L 140.557091 144.939552 
L 141.089455 144.475396 
L 141.355636 144.39985 
L 141.888 143.824735 
L 142.154182 145.39913 
L 142.952727 152.027425 
L 144.017455 159.037908 
L 144.549818 161.204382 
L 144.816 161.725372 
L 145.082182 161.888369 
L 145.348364 161.690154 
L 145.614545 161.150584 
L 146.146909 159.092513 
L 146.679273 155.758076 
L 147.477818 148.438565 
L 148.542545 136.745827 
L 149.074909 139.924787 
L 149.873455 146.711222 
L 150.672 155.96446 
L 151.470545 167.653257 
L 152.535273 186.994342 
L 153.333818 202.963964 
L 154.398545 198.582363 
L 155.197091 195.770302 
L 156.261818 190.115275 
L 157.060364 184.844773 
L 157.858909 178.322086 
L 158.657455 170.110541 
L 159.189818 163.478656 
L 159.456 162.465917 
L 160.254545 167.401473 
L 160.520727 167.638546 
L 160.786909 168.124944 
L 161.319273 169.852998 
L 161.851636 172.434926 
L 162.650182 177.690837 
L 163.714909 186.807321 
L 165.045818 200.866951 
L 166.110545 213.222181 
L 166.376727 214.010631 
L 167.175273 213.727063 
L 167.707636 213.648131 
L 169.304727 212.216201 
L 170.369455 210.966968 
L 171.168 209.72706 
L 171.966545 208.112025 
L 172.765091 206.004145 
L 173.563636 203.250075 
L 174.362182 199.643274 
L 175.160727 194.920114 
L 175.959273 188.712913 
L 176.757818 180.538466 
L 177.556364 170.057358 
L 178.621091 152.509197 
L 179.685818 135.386793 
L 181.016727 142.228569 
L 183.146182 153.212426 
L 184.210909 157.490262 
L 185.009455 159.744896 
L 185.541818 160.677547 
L 186.074182 161.042445 
L 186.340364 161.016661 
L 186.606545 160.807012 
L 186.872727 160.43186 
L 187.405091 159.09955 
L 187.937455 157.172824 
L 188.469818 154.363088 
L 189.002182 150.197884 
L 189.534545 144.502843 
L 190.333091 132.645507 
L 191.131636 116.07689 
L 191.397818 114.961483 
L 192.196364 130.003298 
L 192.994909 140.633233 
L 193.527273 145.621901 
L 194.325818 149.517379 
L 195.124364 152.012014 
L 195.922909 153.68298 
L 197.52 156.585203 
L 198.318545 158.705529 
L 198.850909 160.636497 
L 199.649455 164.558242 
L 200.448 170.04308 
L 201.246545 177.349048 
L 202.045091 186.821719 
L 202.843636 198.836666 
L 203.642182 213.918193 
L 203.908364 215.647511 
L 204.973091 208.105157 
L 206.037818 202.084545 
L 206.570182 199.774003 
L 207.634909 196.610695 
L 209.498182 191.917561 
L 210.296727 189.734243 
L 211.627636 185.530676 
L 213.224727 180.508597 
L 214.555636 175.4229 
L 215.886545 169.268317 
L 217.483636 160.584265 
L 218.282182 155.82979 
L 218.548364 155.146345 
L 218.814545 154.964348 
L 219.613091 155.899216 
L 220.145455 156.241354 
L 220.677818 156.37236 
L 221.210182 156.309586 
L 222.008727 155.896902 
L 222.807273 155.172142 
L 223.872 153.940042 
L 226.8 158.953096 
L 227.066182 158.891925 
L 227.332364 158.687914 
L 227.864727 157.85563 
L 228.397091 156.465968 
L 228.929455 154.527241 
L 229.994182 149.905255 
L 230.526545 150.653257 
L 231.325091 152.261895 
L 232.656 155.611683 
L 236.116364 164.82822 
L 237.181091 166.986054 
L 237.979636 168.226914 
L 238.778182 169.095272 
L 239.310545 169.453387 
L 239.842909 169.617178 
L 240.375273 169.592442 
L 240.907636 169.359791 
L 242.238545 168.554304 
L 242.770909 168.67919 
L 243.303273 169.119803 
L 243.569455 170.02144 
L 244.368 173.902557 
L 245.166545 176.846468 
L 245.965091 178.901767 
L 246.497455 179.823309 
L 247.029818 180.397712 
L 247.562182 180.642435 
L 247.828364 180.636122 
L 248.094545 180.389711 
L 249.159273 176.751957 
L 252.885818 165.235686 
L 253.684364 161.69907 
L 254.482909 157.250177 
L 255.281455 151.563003 
L 256.08 145.557741 
L 256.612364 145.250327 
L 257.144727 144.663429 
L 257.677091 143.68121 
L 258.209455 142.147396 
L 258.741818 139.862518 
L 259.274182 136.585373 
L 259.806545 131.991449 
L 260.072727 129.103118 
L 260.871273 126.022718 
L 261.669818 122.03715 
L 262.468364 117.114944 
L 262.734545 117.931733 
L 265.662545 149.230184 
L 268.856727 174.109242 
L 269.921455 179.932531 
L 270.72 183.301139 
L 271.518545 185.798654 
L 272.317091 187.434979 
L 272.849455 188.059819 
L 273.381818 188.327544 
L 273.914182 188.23078 
L 274.446545 187.797998 
L 274.978909 187.055237 
L 275.777455 185.349872 
L 276.309818 183.888627 
L 276.576 183.830636 
L 276.842182 184.43315 
L 277.906909 187.793335 
L 278.971636 190.286284 
L 281.101091 194.52666 
L 281.899636 191.525878 
L 282.964364 186.584321 
L 285.36 174.928079 
L 286.158545 172.070281 
L 286.690909 170.768732 
L 287.223273 170.080925 
L 287.489455 169.994644 
L 287.755636 170.121807 
L 288.021818 170.449715 
L 288.554182 171.81128 
L 288.820364 170.72579 
L 289.885091 162.909879 
L 290.683636 158.360957 
L 291.482182 154.886886 
L 292.280727 152.409228 
L 293.079273 150.856437 
L 293.345455 150.518311 
L 293.877818 150.404955 
L 294.410182 150.718225 
L 294.942545 151.478794 
L 295.474909 152.72428 
L 296.007273 154.461599 
L 296.805818 158.02988 
L 297.604364 162.801729 
L 298.136727 167.105868 
L 299.467636 179.834381 
L 300.798545 190.238534 
L 301.064727 191.716852 
L 301.330909 192.357367 
L 301.863273 192.928011 
L 302.395636 193.214977 
L 302.928 193.251051 
L 303.460364 193.084055 
L 304.258909 192.541557 
L 305.589818 191.194307 
L 306.654545 190.145746 
L 307.453091 189.62896 
L 307.985455 189.498906 
L 308.517818 189.601995 
L 309.050182 189.797078 
L 309.582545 190.028764 
L 310.114909 190.442231 
L 310.647273 190.371143 
L 311.445818 190.556382 
L 311.978182 190.885001 
L 312.776727 191.731623 
L 313.575273 192.731025 
L 314.906182 187.64728 
L 315.970909 184.415896 
L 317.035636 181.921718 
L 318.100364 180.107143 
L 319.165091 178.855102 
L 320.229818 178.015456 
L 322.093091 176.929532 
L 322.359273 176.148914 
L 323.424 169.95534 
L 324.222545 166.471955 
L 324.488727 165.546666 
L 324.754909 163.778551 
L 325.819636 148.244289 
L 326.618182 139.716161 
L 327.682909 131.682903 
L 328.747636 125.366238 
L 329.546182 121.498099 
L 329.812364 120.519337 
L 330.078545 120.634813 
L 331.675636 126.136073 
L 333.272727 132.694111 
L 334.603636 139.1273 
L 335.934545 146.608747 
L 337.265455 155.318896 
L 338.596364 165.40543 
L 340.193455 179.39807 
L 342.056727 197.982911 
L 343.387636 211.146375 
L 344.186182 214.763875 
L 344.718545 217.752283 
L 345.783273 219.797377 
L 347.114182 212.596257 
L 348.445091 204.117096 
L 350.042182 192.19984 
L 351.905455 176.313404 
L 355.632 143.995937 
L 359.092364 206.218566 
L 359.890909 218.177961 
L 360.157091 219.844114 
L 360.423273 220.111537 
L 360.689455 218.594212 
L 362.286545 204.629833 
L 364.149818 186.13384 
L 366.811636 158.166345 
L 367.077818 158.20031 
L 367.876364 162.183071 
L 368.674909 165.152538 
L 369.473455 167.210789 
L 370.538182 169.025919 
L 371.070545 169.820177 
L 371.602909 170.30919 
L 372.135273 170.589843 
L 373.2 170.8013 
L 374.530909 171.045083 
L 375.329455 171.417127 
L 376.394182 172.191263 
L 377.192727 173.778008 
L 377.458909 173.896375 
L 377.725091 173.772984 
L 377.991273 173.386964 
L 378.789818 175.021458 
L 379.056 175.044278 
L 379.322182 174.733371 
L 379.588364 174.138063 
L 380.120727 172.158551 
L 380.653091 169.237894 
L 381.451636 163.465836 
L 382.516364 153.933632 
L 384.912 129.406532 
L 386.509091 114.037267 
L 386.775273 111.717508 
L 387.041455 111.09003 
L 389.437091 140.466706 
L 389.969455 143.879823 
L 391.566545 156.716077 
L 392.897455 165.769606 
L 395.026909 178.575991 
L 396.091636 182.799125 
L 397.156364 186.132984 
L 400.084364 194.660245 
L 401.149091 198.629643 
L 402.213818 203.424493 
L 402.746182 206.164081 
L 403.012364 206.689445 
L 403.278545 206.51593 
L 403.544727 206.581886 
L 403.810909 206.906083 
L 404.077091 207.481631 
L 404.343273 206.756328 
L 404.609455 206.384285 
L 404.875636 206.403346 
L 405.141818 206.815536 
L 405.408 207.63241 
L 405.940364 210.036137 
L 406.206545 210.723751 
L 406.738909 211.578048 
L 407.271273 212.837342 
L 408.069818 215.376329 
L 409.134545 219.648297 
L 409.933091 222.969252 
L 410.997818 225.994565 
L 412.594909 230.64348 
L 413.393455 232.206127 
L 413.925818 232.699646 
L 414.192 232.735944 
L 414.458182 232.610666 
L 414.724364 232.300156 
L 415.256727 231.084274 
L 415.789091 228.953308 
L 416.321455 225.648487 
L 416.853818 220.417505 
L 417.12 219.707872 
L 417.918545 218.501641 
L 420.580364 213.88189 
L 421.112727 213.406757 
L 421.645091 213.226723 
L 422.177455 213.414601 
L 422.709818 214.00868 
L 423.242182 215.06712 
L 423.774545 216.630502 
L 424.573091 220.021039 
L 425.371636 224.801045 
L 426.170182 231.08678 
L 426.436364 233.536955 
L 426.436364 233.536955 
" clip-path="url(#pe05b679515)" style="fill: none; stroke: #0000ff; stroke-width: 3; stroke-linecap: square"/>
   </g>
   <g id="patch_3">
    <path d="M 7.2 331.2 
L 7.2 7.2 
" style="fill: none; stroke: #000000; stroke-width: 0.8; stroke-linejoin: miter; stroke-linecap: square"/>
   </g>
   <g id="patch_4">
    <path d="M 446.4 331.2 
L 446.4 7.2 
" style="fill: none; stroke: #000000; stroke-width: 0.8; stroke-linejoin: miter; stroke-linecap: square"/>
   </g>
   <g id="patch_5">
    <path d="M 7.2 331.2 
L 446.4 331.2 
" style="fill: none; stroke: #000000; stroke-width: 0.8; stroke-linejoin: miter; stroke-linecap: square"/>
   </g>
   <g id="patch_6">
    <path d="M 7.2 7.2 
L 446.4 7.2 
" style="fill: none; stroke: #000000; stroke-width: 0.8; stroke-linejoin: miter; stroke-linecap: square"/>
   </g>
  </g>
 </g>
 <defs>
  <clipPath id="pe05b679515">
   <rect x="7.2" y="7.2" width="439.2" height="324"/>
  </clipPath>
 </defs>
</svg>
