<?xml version="1.0" encoding="utf-8" standalone="no"?>
<!DOCTYPE svg PUBLIC "-//W3C//DTD SVG 1.1//EN"
  "http://www.w3.org/Graphics/SVG/1.1/DTD/svg11.dtd">
<svg xmlns:xlink="http://www.w3.org/1999/xlink" width="453.6pt" height="338.4pt" viewBox="0 0 453.6 338.4" xmlns="http://www.w3.org/2000/svg" version="1.1">
 <metadata>
  <rdf:RDF xmlns:dc="http://purl.org/dc/elements/1.1/" xmlns:cc="http://creativecommons.org/ns#" xmlns:rdf="http://www.w3.org/1999/02/22-rdf-syntax-ns#">
   <cc:Work>
    <dc:type rdf:resource="http://purl.org/dc/dcmitype/StillImage"/>
    <dc:date>2025-05-14T08:49:17.989814</dc:date>
    <dc:format>image/svg+xml</dc:format>
    <dc:creator>
     <cc:Agent>
      <dc:title>Matplotlib v3.10.1, https://matplotlib.org/</dc:title>
     </cc:Agent>
    </dc:creator>
   </cc:Work>
  </rdf:RDF>
 </metadata>
 <defs>
  <style type="text/css">*{stroke-linejoin: round; stroke-linecap: butt}</style>
 </defs>
 <g id="figure_1">
  <g id="patch_1">
   <path d="M 0 338.4 
L 453.6 338.4 
L 453.6 0 
L 0 0 
z
" style="fill: #ffffff"/>
  </g>
  <g id="axes_1">
   <g id="patch_2">
    <path d="M 7.2 331.2 
L 446.4 331.2 
L 446.4 7.2 
L 7.2 7.2 
z
" style="fill: #ffffff"/>
   </g>
   <g id="matplotlib.axis_1"/>
   <g id="matplotlib.axis_2"/>
   <g id="line2d_1">
    <path d="M 27.163636 234.574527 
L 29.026909 218.640975 
L 30.624 206.565078 
L 32.221091 196.190499 
L 33.552 189.009716 
L 34.616727 184.319138 
L 35.681455 180.638967 
L 36.48 178.582663 
L 37.278545 177.161496 
L 37.810909 176.580966 
L 38.343273 176.303912 
L 38.875636 176.338761 
L 39.408 176.694035 
L 39.940364 177.378177 
L 40.472727 178.399663 
L 41.271273 180.58297 
L 42.069818 183.572972 
L 42.868364 187.398281 
L 43.933091 193.847518 
L 44.997818 201.900403 
L 46.062545 211.624743 
L 47.393455 226.233926 
L 48.724364 243.693074 
L 50.055273 264.134696 
L 51.386182 287.691163 
L 52.983273 316.472726 
L 55.645091 281.770179 
L 58.040727 253.214686 
L 60.436364 227.150493 
L 62.832 203.53471 
L 64.961455 184.56353 
L 67.090909 167.462753 
L 69.220364 152.202107 
L 71.083636 140.334937 
L 72.946909 129.833271 
L 74.810182 120.676991 
L 76.407273 113.884181 
L 78.004364 108.052215 
L 79.335273 103.917024 
L 80.666182 100.432897 
L 81.997091 97.592398 
L 83.061818 95.778475 
L 84.126545 94.368062 
L 85.191273 93.357284 
L 85.989818 92.859247 
L 86.788364 92.582305 
L 87.586909 92.52488 
L 88.385455 92.685398 
L 89.184 93.062226 
L 89.982545 93.653826 
L 91.047273 94.773872 
L 92.112 96.269132 
L 93.176727 98.135752 
L 94.507636 100.98554 
L 95.838545 104.402378 
L 97.169455 108.378887 
L 98.766545 113.879063 
L 100.363636 120.161858 
L 102.226909 128.463799 
L 104.090182 137.793446 
L 106.219636 149.688206 
L 108.349091 162.868611 
L 109.68 171.481852 
L 112.608 158.430222 
L 115.269818 147.506522 
L 117.931636 137.521417 
L 120.327273 129.370927 
L 122.722909 122.043218 
L 124.852364 116.24448 
L 126.715636 111.739395 
L 128.578909 107.779908 
L 130.442182 104.379905 
L 132.039273 101.921501 
L 133.636364 99.893251 
L 134.967273 98.537834 
L 136.298182 97.492308 
L 137.629091 96.761718 
L 138.693818 96.407418 
L 139.758545 96.260473 
L 140.823273 96.32359 
L 141.888 96.599328 
L 142.952727 97.090245 
L 144.017455 97.799011 
L 145.348364 98.995227 
L 146.679273 100.540885 
L 148.010182 102.441158 
L 149.341091 104.701071 
L 150.938182 107.894831 
L 152.535273 111.622618 
L 154.132364 115.893091 
L 155.995636 121.573124 
L 157.858909 128.017753 
L 159.722182 135.240997 
L 161.851636 144.467439 
L 163.981091 154.749846 
L 166.110545 166.10905 
L 168.506182 180.201154 
L 170.901818 195.712014 
L 173.297455 212.671372 
L 175.959273 233.249834 
L 178.621091 255.693718 
L 181.282909 280.043772 
L 181.549091 282.585092 
L 182.081455 283.815256 
L 182.88 285.020601 
L 183.678545 285.727087 
L 184.210909 285.933786 
L 184.743273 285.938058 
L 185.275636 285.747618 
L 185.808 285.370182 
L 186.606545 284.470271 
L 187.405091 283.193008 
L 188.469818 280.948027 
L 189.534545 278.140171 
L 190.865455 273.932907 
L 192.462545 268.020344 
L 194.325818 260.194603 
L 196.987636 247.910183 
L 202.311273 223.01024 
L 204.174545 215.314946 
L 205.771636 209.553486 
L 207.102545 205.499842 
L 208.167273 202.833045 
L 209.232 200.745155 
L 210.030545 199.596342 
L 210.829091 198.833933 
L 211.361455 198.553189 
L 211.893818 198.463465 
L 212.426182 198.57251 
L 212.958545 198.888011 
L 213.490909 199.417671 
L 214.289455 200.630612 
L 215.088 202.368819 
L 215.886545 204.65838 
L 216.685091 207.525273 
L 217.749818 212.290975 
L 218.814545 218.191026 
L 219.879273 225.287294 
L 221.210182 235.93368 
L 222.541091 248.666009 
L 224.138182 264.373011 
L 226.8 260.972795 
L 229.461818 257.184696 
L 232.123636 252.992757 
L 234.785455 248.38101 
L 237.447273 243.333471 
L 240.109091 237.834222 
L 243.037091 231.244159 
L 245.965091 224.067057 
L 248.893091 216.281446 
L 251.821091 207.866269 
L 254.749091 198.800168 
L 257.943273 188.142527 
L 261.137455 176.657451 
L 264.331636 164.31722 
L 267.525818 151.094336 
L 270.72 136.961208 
L 274.180364 120.591216 
L 277.640727 103.08538 
L 281.101091 84.408749 
L 284.561455 64.526389 
L 285.36 59.763256 
L 285.892364 58.443569 
L 286.690909 57.09542 
L 287.489455 56.13237 
L 288.288 55.542476 
L 289.086545 55.313557 
L 289.618909 55.355647 
L 290.417455 55.701733 
L 291.216 56.376623 
L 292.014545 57.368377 
L 293.079273 59.162756 
L 294.144 61.470285 
L 295.474909 65.03277 
L 296.805818 69.296698 
L 298.402909 75.260312 
L 300.266182 83.264079 
L 302.395636 93.602798 
L 304.791273 106.480023 
L 307.719273 123.55157 
L 312.244364 151.507525 
L 317.568 184.196474 
L 320.496 200.864371 
L 322.891636 213.27317 
L 325.021091 223.091843 
L 326.884364 230.560081 
L 328.481455 236.00515 
L 329.546182 239.094139 
L 329.812364 237.544838 
L 331.409455 215.734207 
L 332.740364 200.257029 
L 334.071273 187.06422 
L 335.402182 175.997784 
L 336.733091 166.899744 
L 337.797818 160.932292 
L 338.862545 156.042611 
L 339.927273 152.149652 
L 340.992 149.172536 
L 341.790545 147.492152 
L 342.589091 146.247263 
L 343.387636 145.40379 
L 344.186182 144.927595 
L 344.984727 144.784525 
L 345.783273 144.940482 
L 346.581818 145.361366 
L 347.380364 146.012912 
L 348.445091 147.181611 
L 349.776 149.010683 
L 351.905455 152.415877 
L 354.567273 156.628351 
L 355.898182 158.352791 
L 356.962909 159.404936 
L 357.761455 159.950014 
L 358.56 160.247946 
L 359.358545 160.264615 
L 360.157091 159.965885 
L 360.955636 159.317659 
L 361.754182 158.285724 
L 362.552727 156.836002 
L 363.351273 154.934376 
L 364.149818 152.546728 
L 365.214545 148.547969 
L 366.279273 143.543605 
L 367.344 137.452645 
L 368.408727 130.19419 
L 369.739636 119.356025 
L 371.070545 106.408878 
L 372.401455 91.195255 
L 373.732364 73.556899 
L 374.530909 62.703233 
L 376.926545 79.65446 
L 379.322182 95.031327 
L 381.451636 107.347528 
L 383.581091 118.363214 
L 385.444364 126.914173 
L 387.307636 134.431343 
L 388.904727 140.038302 
L 390.501818 144.8614 
L 391.832727 148.27377 
L 393.163636 151.127526 
L 394.494545 153.416123 
L 395.559273 154.835751 
L 396.624 155.886265 
L 397.422545 156.429896 
L 398.221091 156.762576 
L 399.019636 156.882932 
L 399.818182 156.789555 
L 400.616727 156.481072 
L 401.415273 155.956057 
L 402.213818 155.213136 
L 403.278545 153.881063 
L 404.343273 152.155752 
L 405.408 150.033921 
L 406.738909 146.818819 
L 408.069818 142.972401 
L 409.400727 138.488139 
L 410.997818 132.255926 
L 412.594909 125.084637 
L 414.192 116.963129 
L 416.055273 106.272112 
L 417.918545 94.254456 
L 419.781818 80.892507 
L 421.911273 63.952849 
L 424.040727 45.207316 
L 426.436364 21.927273 
L 426.436364 21.927273 
" clip-path="url(#p0b2a75a58e)" style="fill: none; stroke-dasharray: 11.1,4.8; stroke-dashoffset: 0; stroke: #000000; stroke-width: 3"/>
   </g>
   <g id="line2d_2">
    <path d="M 27.163636 234.574536 
L 29.026909 218.640984 
L 30.624 206.565087 
L 32.221091 196.190517 
L 33.552 189.009735 
L 34.616727 184.319156 
L 35.681455 180.638985 
L 36.48 178.582682 
L 37.278545 177.161515 
L 37.810909 176.580984 
L 38.343273 176.30393 
L 38.875636 176.33878 
L 39.408 176.694053 
L 39.940364 177.378196 
L 40.472727 178.399682 
L 41.271273 180.582988 
L 42.069818 183.572991 
L 42.868364 187.398299 
L 43.933091 193.847536 
L 44.997818 201.900421 
L 46.062545 211.624753 
L 47.393455 226.233936 
L 48.724364 243.693083 
L 50.055273 264.1347 
L 51.386182 287.691168 
L 52.983273 316.472726 
L 55.645091 281.770184 
L 58.040727 253.214695 
L 60.436364 227.150502 
L 62.832 203.534728 
L 64.961455 184.563549 
L 67.090909 167.462771 
L 69.220364 152.202125 
L 71.083636 140.334955 
L 72.946909 129.833289 
L 74.810182 120.677009 
L 76.407273 113.884199 
L 78.004364 108.052233 
L 79.335273 103.917042 
L 80.666182 100.432915 
L 81.997091 97.592417 
L 83.061818 95.778494 
L 84.126545 94.368081 
L 85.191273 93.357303 
L 85.989818 92.859266 
L 86.788364 92.582323 
L 87.586909 92.524899 
L 88.385455 92.685416 
L 89.184 93.062245 
L 89.982545 93.653844 
L 91.047273 94.77389 
L 92.112 96.269151 
L 93.176727 98.13577 
L 94.507636 100.985558 
L 95.838545 104.402397 
L 97.169455 108.378906 
L 98.766545 113.879082 
L 100.363636 120.161877 
L 102.226909 128.463817 
L 104.090182 137.793464 
L 106.219636 149.688225 
L 108.349091 162.868629 
L 109.68 171.481871 
L 112.608 158.43024 
L 115.269818 147.506541 
L 117.931636 137.521435 
L 120.327273 129.370945 
L 122.722909 122.043237 
L 124.852364 116.244498 
L 126.715636 111.739413 
L 128.578909 107.779926 
L 130.442182 104.379924 
L 132.039273 101.921519 
L 133.636364 99.89327 
L 134.967273 98.537853 
L 136.298182 97.492327 
L 137.629091 96.761737 
L 138.693818 96.407437 
L 139.758545 96.260492 
L 140.823273 96.323609 
L 141.888 96.599346 
L 142.952727 97.090263 
L 144.017455 97.79903 
L 145.348364 98.995246 
L 146.679273 100.540904 
L 148.010182 102.441176 
L 149.341091 104.701089 
L 150.938182 107.894849 
L 152.535273 111.622636 
L 154.132364 115.893109 
L 155.995636 121.573142 
L 157.858909 128.017772 
L 159.722182 135.241015 
L 161.851636 144.467458 
L 163.981091 154.749865 
L 166.110545 166.109069 
L 168.506182 180.201172 
L 170.901818 195.712033 
L 173.297455 212.671381 
L 175.959273 233.249843 
L 178.621091 255.693728 
L 181.282909 280.043777 
L 181.549091 282.585096 
L 182.081455 283.81526 
L 182.88 285.020606 
L 183.678545 285.727092 
L 184.210909 285.933791 
L 184.743273 285.938062 
L 185.275636 285.747622 
L 185.808 285.370187 
L 186.606545 284.470276 
L 187.405091 283.193013 
L 188.469818 280.948031 
L 189.534545 278.140176 
L 190.865455 273.932912 
L 192.462545 268.020349 
L 194.325818 260.194612 
L 196.987636 247.910193 
L 202.311273 223.010249 
L 204.174545 215.314955 
L 205.771636 209.553495 
L 207.102545 205.499852 
L 208.167273 202.833063 
L 209.232 200.745174 
L 210.030545 199.59636 
L 210.829091 198.833952 
L 211.361455 198.553208 
L 211.893818 198.463483 
L 212.426182 198.572529 
L 212.958545 198.888029 
L 213.490909 199.41769 
L 214.289455 200.630631 
L 215.088 202.368838 
L 215.886545 204.65839 
L 216.685091 207.525283 
L 217.749818 212.290984 
L 218.814545 218.191036 
L 219.879273 225.287304 
L 221.210182 235.93369 
L 222.541091 248.666018 
L 224.138182 264.373015 
L 226.8 260.972805 
L 229.461818 257.184705 
L 232.123636 252.992767 
L 234.785455 248.381019 
L 237.447273 243.33348 
L 240.109091 237.834231 
L 243.037091 231.244168 
L 245.965091 224.067067 
L 248.893091 216.281455 
L 251.821091 207.866279 
L 254.749091 198.800187 
L 257.943273 188.142546 
L 261.137455 176.65747 
L 264.331636 164.317239 
L 267.525818 151.094355 
L 270.72 136.961227 
L 274.180364 120.591234 
L 277.640727 103.085398 
L 281.101091 84.408786 
L 284.561455 64.526427 
L 285.36 59.763293 
L 285.892364 58.443606 
L 286.690909 57.095458 
L 287.489455 56.132407 
L 288.288 55.542513 
L 289.086545 55.313594 
L 289.618909 55.355684 
L 290.417455 55.70177 
L 291.216 56.37666 
L 292.014545 57.368414 
L 293.079273 59.162793 
L 294.144 61.470322 
L 295.474909 65.032807 
L 296.805818 69.296735 
L 298.402909 75.260349 
L 300.266182 83.264116 
L 302.395636 93.602817 
L 304.791273 106.480042 
L 307.719273 123.551588 
L 312.244364 151.507544 
L 317.568 184.196492 
L 320.496 200.864389 
L 322.891636 213.273179 
L 325.021091 223.091852 
L 326.884364 230.56009 
L 328.481455 236.00516 
L 329.546182 239.094148 
L 329.812364 237.544847 
L 331.409455 215.734217 
L 332.740364 200.257047 
L 334.071273 187.064238 
L 335.402182 175.997803 
L 336.733091 166.899763 
L 337.797818 160.932311 
L 338.862545 156.042629 
L 339.927273 152.14967 
L 340.992 149.172554 
L 341.790545 147.492171 
L 342.589091 146.247282 
L 343.387636 145.403808 
L 344.186182 144.927614 
L 344.984727 144.784544 
L 345.783273 144.9405 
L 346.581818 145.361384 
L 347.380364 146.01293 
L 348.445091 147.18163 
L 349.776 149.010702 
L 351.905455 152.415896 
L 354.567273 156.62837 
L 355.898182 158.352809 
L 356.962909 159.404954 
L 357.761455 159.950032 
L 358.56 160.247964 
L 359.358545 160.264634 
L 360.157091 159.965904 
L 360.955636 159.317677 
L 361.754182 158.285743 
L 362.552727 156.836021 
L 363.351273 154.934395 
L 364.149818 152.546746 
L 365.214545 148.547987 
L 366.279273 143.543623 
L 367.344 137.452663 
L 368.408727 130.194209 
L 369.739636 119.356043 
L 371.070545 106.408896 
L 372.401455 91.195273 
L 373.732364 73.556936 
L 374.530909 62.70327 
L 376.926545 79.654497 
L 379.322182 95.031345 
L 381.451636 107.347546 
L 383.581091 118.363232 
L 385.444364 126.914191 
L 387.307636 134.431362 
L 388.904727 140.038321 
L 390.501818 144.861419 
L 391.832727 148.273789 
L 393.163636 151.127545 
L 394.494545 153.416142 
L 395.559273 154.83577 
L 396.624 155.886283 
L 397.422545 156.429915 
L 398.221091 156.762595 
L 399.019636 156.882951 
L 399.818182 156.789573 
L 400.616727 156.481091 
L 401.415273 155.956075 
L 402.213818 155.213154 
L 403.278545 153.881081 
L 404.343273 152.155771 
L 405.408 150.03394 
L 406.738909 146.818838 
L 408.069818 142.972419 
L 409.400727 138.488157 
L 410.997818 132.255945 
L 412.594909 125.084656 
L 414.192 116.963147 
L 416.055273 106.272131 
L 417.918545 94.254474 
L 419.781818 80.892544 
L 421.911273 63.952887 
L 424.040727 45.207354 
L 426.436364 21.92731 
L 426.436364 21.92731 
" clip-path="url(#p0b2a75a58e)" style="fill: none; stroke-dasharray: 3,4.95; stroke-dashoffset: 0; stroke: #ff0000; stroke-width: 3"/>
   </g>
   <g id="line2d_3">
    <path d="M 27.163636 234.574536 
L 29.026909 218.640984 
L 30.624 206.565087 
L 32.221091 196.190517 
L 33.552 189.009735 
L 34.616727 184.319156 
L 35.681455 180.638985 
L 36.48 178.582682 
L 37.278545 177.161515 
L 37.810909 176.580984 
L 38.343273 176.30393 
L 38.875636 176.33878 
L 39.408 176.694053 
L 39.940364 177.378196 
L 40.472727 178.399682 
L 41.271273 180.582988 
L 42.069818 183.572991 
L 42.868364 187.398299 
L 43.933091 193.847536 
L 44.997818 201.900421 
L 46.062545 211.624753 
L 47.393455 226.233936 
L 48.724364 243.693083 
L 50.055273 264.1347 
L 51.386182 287.69117 
L 52.983273 316.472727 
L 55.645091 281.770186 
L 58.040727 253.214695 
L 60.436364 227.150502 
L 62.832 203.534728 
L 64.961455 184.563549 
L 67.090909 167.462771 
L 69.220364 152.202125 
L 71.083636 140.334955 
L 72.946909 129.833289 
L 74.810182 120.677009 
L 76.407273 113.884199 
L 78.004364 108.052233 
L 79.335273 103.917042 
L 80.666182 100.432915 
L 81.997091 97.592417 
L 83.061818 95.778494 
L 84.126545 94.368081 
L 85.191273 93.357303 
L 85.989818 92.859266 
L 86.788364 92.582323 
L 87.586909 92.524899 
L 88.385455 92.685416 
L 89.184 93.062245 
L 89.982545 93.653844 
L 91.047273 94.77389 
L 92.112 96.269151 
L 93.176727 98.13577 
L 94.507636 100.985558 
L 95.838545 104.402397 
L 97.169455 108.378906 
L 98.766545 113.879082 
L 100.363636 120.161877 
L 102.226909 128.463817 
L 104.090182 137.793464 
L 106.219636 149.688225 
L 108.349091 162.868629 
L 109.68 171.481871 
L 112.608 158.43024 
L 115.269818 147.506541 
L 117.931636 137.521435 
L 120.327273 129.370945 
L 122.722909 122.043237 
L 124.852364 116.244498 
L 126.715636 111.739413 
L 128.578909 107.779926 
L 130.442182 104.379924 
L 132.039273 101.921519 
L 133.636364 99.89327 
L 134.967273 98.537853 
L 136.298182 97.492327 
L 137.629091 96.761737 
L 138.693818 96.407437 
L 139.758545 96.260492 
L 140.823273 96.323609 
L 141.888 96.599346 
L 142.952727 97.090263 
L 144.017455 97.79903 
L 145.348364 98.995246 
L 146.679273 100.540904 
L 148.010182 102.441176 
L 149.341091 104.701089 
L 150.938182 107.894849 
L 152.535273 111.622636 
L 154.132364 115.893109 
L 155.995636 121.573142 
L 157.858909 128.017772 
L 159.722182 135.241015 
L 161.851636 144.467458 
L 163.981091 154.749865 
L 166.110545 166.109069 
L 168.506182 180.201172 
L 170.901818 195.712033 
L 173.297455 212.671381 
L 175.959273 233.249843 
L 178.621091 255.693728 
L 181.282909 280.043777 
L 181.549091 282.585096 
L 182.081455 283.81526 
L 182.88 285.020606 
L 183.678545 285.727092 
L 184.210909 285.933791 
L 184.743273 285.938062 
L 185.275636 285.747622 
L 185.808 285.370187 
L 186.606545 284.470276 
L 187.405091 283.193013 
L 188.469818 280.948031 
L 189.534545 278.140176 
L 190.865455 273.932912 
L 192.462545 268.020349 
L 194.325818 260.194612 
L 196.987636 247.910193 
L 202.311273 223.010249 
L 204.174545 215.314955 
L 205.771636 209.553495 
L 207.102545 205.499852 
L 208.167273 202.833063 
L 209.232 200.745174 
L 210.030545 199.59636 
L 210.829091 198.833952 
L 211.361455 198.553208 
L 211.893818 198.463483 
L 212.426182 198.572529 
L 212.958545 198.888029 
L 213.490909 199.41769 
L 214.289455 200.630631 
L 215.088 202.368838 
L 215.886545 204.65839 
L 216.685091 207.525283 
L 217.749818 212.290984 
L 218.814545 218.191036 
L 219.879273 225.287304 
L 221.210182 235.93369 
L 222.541091 248.666018 
L 224.138182 264.373015 
L 226.8 260.972805 
L 229.461818 257.184705 
L 232.123636 252.992767 
L 234.785455 248.381019 
L 237.447273 243.33348 
L 240.109091 237.834231 
L 243.037091 231.244168 
L 245.965091 224.067067 
L 248.893091 216.281455 
L 251.821091 207.866279 
L 254.749091 198.800187 
L 257.943273 188.142546 
L 261.137455 176.65747 
L 264.331636 164.317239 
L 267.525818 151.094355 
L 270.72 136.961227 
L 274.180364 120.591234 
L 277.640727 103.085398 
L 281.101091 84.408786 
L 284.561455 64.526427 
L 285.36 59.763293 
L 285.892364 58.443606 
L 286.690909 57.095458 
L 287.489455 56.132407 
L 288.288 55.542513 
L 289.086545 55.313594 
L 289.618909 55.355684 
L 290.417455 55.70177 
L 291.216 56.37666 
L 292.014545 57.368414 
L 293.079273 59.162793 
L 294.144 61.470322 
L 295.474909 65.032807 
L 296.805818 69.296735 
L 298.402909 75.260349 
L 300.266182 83.264116 
L 302.395636 93.602817 
L 304.791273 106.480042 
L 307.719273 123.551588 
L 312.244364 151.507544 
L 317.568 184.196492 
L 320.496 200.864389 
L 322.891636 213.273179 
L 325.021091 223.091852 
L 326.884364 230.56009 
L 328.481455 236.00516 
L 329.546182 239.094148 
L 329.812364 237.544847 
L 331.409455 215.734217 
L 332.740364 200.257047 
L 334.071273 187.064238 
L 335.402182 175.997803 
L 336.733091 166.899763 
L 337.797818 160.932311 
L 338.862545 156.042629 
L 339.927273 152.14967 
L 340.992 149.172554 
L 341.790545 147.492171 
L 342.589091 146.247282 
L 343.387636 145.403808 
L 344.186182 144.927614 
L 344.984727 144.784544 
L 345.783273 144.9405 
L 346.581818 145.361384 
L 347.380364 146.01293 
L 348.445091 147.18163 
L 349.776 149.010702 
L 351.905455 152.415896 
L 354.567273 156.62837 
L 355.898182 158.352809 
L 356.962909 159.404954 
L 357.761455 159.950032 
L 358.56 160.247964 
L 359.358545 160.264634 
L 360.157091 159.965904 
L 360.955636 159.317677 
L 361.754182 158.285743 
L 362.552727 156.836021 
L 363.351273 154.934395 
L 364.149818 152.546746 
L 365.214545 148.547987 
L 366.279273 143.543623 
L 367.344 137.452663 
L 368.408727 130.194209 
L 369.739636 119.356043 
L 371.070545 106.408896 
L 372.401455 91.195273 
L 373.732364 73.556936 
L 374.530909 62.70327 
L 376.926545 79.654497 
L 379.322182 95.031345 
L 381.451636 107.347546 
L 383.581091 118.363232 
L 385.444364 126.914191 
L 387.307636 134.431362 
L 388.904727 140.038321 
L 390.501818 144.861419 
L 391.832727 148.273789 
L 393.163636 151.127545 
L 394.494545 153.416142 
L 395.559273 154.83577 
L 396.624 155.886283 
L 397.422545 156.429915 
L 398.221091 156.762595 
L 399.019636 156.882951 
L 399.818182 156.789573 
L 400.616727 156.481091 
L 401.415273 155.956075 
L 402.213818 155.213154 
L 403.278545 153.881081 
L 404.343273 152.155771 
L 405.408 150.03394 
L 406.738909 146.818838 
L 408.069818 142.972419 
L 409.400727 138.488157 
L 410.997818 132.255945 
L 412.594909 125.084656 
L 414.192 116.963147 
L 416.055273 106.272131 
L 417.918545 94.254474 
L 419.781818 80.892544 
L 421.911273 63.952887 
L 424.040727 45.207354 
L 426.436364 21.92731 
L 426.436364 21.92731 
" clip-path="url(#p0b2a75a58e)" style="fill: none; stroke: #ff0000; stroke-width: 3; stroke-linecap: square"/>
   </g>
   <g id="patch_3">
    <path d="M 7.2 331.2 
L 7.2 7.2 
" style="fill: none; stroke: #000000; stroke-width: 0.8; stroke-linejoin: miter; stroke-linecap: square"/>
   </g>
   <g id="patch_4">
    <path d="M 446.4 331.2 
L 446.4 7.2 
" style="fill: none; stroke: #000000; stroke-width: 0.8; stroke-linejoin: miter; stroke-linecap: square"/>
   </g>
   <g id="patch_5">
    <path d="M 7.2 331.2 
L 446.4 331.2 
" style="fill: none; stroke: #000000; stroke-width: 0.8; stroke-linejoin: miter; stroke-linecap: square"/>
   </g>
   <g id="patch_6">
    <path d="M 7.2 7.2 
L 446.4 7.2 
" style="fill: none; stroke: #000000; stroke-width: 0.8; stroke-linejoin: miter; stroke-linecap: square"/>
   </g>
  </g>
 </g>
 <defs>
  <clipPath id="p0b2a75a58e">
   <rect x="7.2" y="7.2" width="439.2" height="324"/>
  </clipPath>
 </defs>
</svg>
