<?xml version="1.0" encoding="utf-8" standalone="no"?>
<!DOCTYPE svg PUBLIC "-//W3C//DTD SVG 1.1//EN"
  "http://www.w3.org/Graphics/SVG/1.1/DTD/svg11.dtd">
<svg xmlns:xlink="http://www.w3.org/1999/xlink" width="453.6pt" height="338.4pt" viewBox="0 0 453.6 338.4" xmlns="http://www.w3.org/2000/svg" version="1.1">
 <metadata>
  <rdf:RDF xmlns:dc="http://purl.org/dc/elements/1.1/" xmlns:cc="http://creativecommons.org/ns#" xmlns:rdf="http://www.w3.org/1999/02/22-rdf-syntax-ns#">
   <cc:Work>
    <dc:type rdf:resource="http://purl.org/dc/dcmitype/StillImage"/>
    <dc:date>2025-05-14T00:11:46.186734</dc:date>
    <dc:format>image/svg+xml</dc:format>
    <dc:creator>
     <cc:Agent>
      <dc:title>Matplotlib v3.10.1, https://matplotlib.org/</dc:title>
     </cc:Agent>
    </dc:creator>
   </cc:Work>
  </rdf:RDF>
 </metadata>
 <defs>
  <style type="text/css">*{stroke-linejoin: round; stroke-linecap: butt}</style>
 </defs>
 <g id="figure_1">
  <g id="patch_1">
   <path d="M 0 338.4 
L 453.6 338.4 
L 453.6 0 
L 0 0 
z
" style="fill: #ffffff"/>
  </g>
  <g id="axes_1">
   <g id="patch_2">
    <path d="M 7.2 331.2 
L 446.4 331.2 
L 446.4 7.2 
L 7.2 7.2 
z
" style="fill: #ffffff"/>
   </g>
   <g id="matplotlib.axis_1"/>
   <g id="matplotlib.axis_2"/>
   <g id="line2d_1">
    <path d="M 27.163636 244.445161 
L 117.399273 79.351348 
L 117.665455 79.142497 
L 198.850909 66.853705 
L 203.109818 70.865044 
L 279.770182 143.238247 
L 280.834909 143.359707 
L 336.466909 148.211882 
L 336.999273 149.493305 
L 374.530909 250.189286 
L 374.797091 250.559331 
L 426.436364 272.707685 
L 426.436364 272.707685 
" clip-path="url(#pc42aa26090)" style="fill: none; stroke-dasharray: 11.1,4.8; stroke-dashoffset: 0; stroke: #000000; stroke-width: 3"/>
   </g>
   <g id="line2d_2">
    <path d="M 27.163636 169.292316 
L 27.429818 174.433933 
L 27.696 175.53923 
L 27.962182 176.075057 
L 28.228364 176.348116 
L 29.026909 177.598927 
L 30.624 179.07017 
L 31.688727 179.607581 
L 33.285818 179.914573 
L 36.213818 180.357616 
L 40.206545 180.161383 
L 41.803636 179.792975 
L 43.400727 179.306154 
L 43.933091 179.127044 
L 44.199273 179.340066 
L 45.264 178.947022 
L 47.393455 178.160694 
L 52.450909 176.661117 
L 52.983273 176.547986 
L 58.040727 174.625673 
L 59.904 173.484192 
L 60.968727 172.602735 
L 61.234909 173.445148 
L 61.767273 172.89711 
L 62.832 171.324228 
L 63.630545 169.754947 
L 65.76 164.761911 
L 66.558545 162.415139 
L 67.623273 158.33094 
L 68.688 153.167706 
L 71.882182 134.777561 
L 73.213091 125.306267 
L 74.277818 116.863486 
L 75.608727 105.129634 
L 76.939636 94.083105 
L 77.738182 89.145914 
L 78.004364 87.705585 
L 78.270545 88.721819 
L 78.802909 87.607904 
L 79.069091 87.457739 
L 79.335273 87.521378 
L 79.601455 88.167029 
L 80.4 91.366567 
L 81.198545 95.830582 
L 82.263273 103.096344 
L 83.061818 109.280024 
L 84.392727 117.441725 
L 85.191273 121.201253 
L 87.054545 129.710265 
L 88.651636 136.551617 
L 90.781091 145.013771 
L 91.845818 148.343784 
L 92.910545 150.863642 
L 93.975273 152.722577 
L 95.04 154.207595 
L 95.306182 154.147949 
L 98.234182 157.167163 
L 100.097455 158.447406 
L 101.428364 158.992989 
L 103.291636 159.432671 
L 106.485818 160.251346 
L 109.147636 160.987626 
L 110.478545 161.210706 
L 112.075636 161.318129 
L 113.406545 161.251773 
L 115.802182 160.950058 
L 119.262545 160.280079 
L 121.924364 159.772902 
L 126.183273 159.459372 
L 128.845091 159.323409 
L 129.111273 159.29266 
L 129.377455 158.50262 
L 132.837818 158.131544 
L 138.161455 157.076164 
L 140.557091 156.685206 
L 141.888 156.45119 
L 142.420364 156.523638 
L 143.485091 156.668274 
L 145.082182 157.113966 
L 146.146909 157.553168 
L 146.413091 157.360659 
L 150.672 159.664724 
L 153.866182 161.479298 
L 154.930909 161.720764 
L 155.729455 161.716661 
L 156.528 161.502116 
L 157.326545 161.018334 
L 158.125091 160.277321 
L 159.189818 158.995472 
L 160.786909 156.526081 
L 161.851636 154.380606 
L 165.312 146.329058 
L 166.376727 144.533845 
L 167.973818 142.106605 
L 168.772364 139.841495 
L 170.369455 136.83452 
L 171.434182 134.269108 
L 174.096 127.518879 
L 175.160727 125.523062 
L 176.757818 123.092639 
L 177.822545 121.394832 
L 178.887273 119.249686 
L 179.685818 117.100397 
L 180.750545 113.673334 
L 181.282909 111.36304 
L 182.347636 105.262785 
L 184.477091 90.836284 
L 186.872727 73.72575 
L 187.671273 64.057488 
L 188.469818 54.112579 
L 189.002182 49.744681 
L 189.800727 45.850494 
L 193.261091 31.56329 
L 194.592 26.721077 
L 195.390545 24.751865 
L 196.189091 23.545716 
L 196.987636 22.798761 
L 197.786182 22.327959 
L 198.850909 22.030758 
L 199.915636 21.927273 
L 200.980364 22.042311 
L 201.512727 22.291433 
L 202.045091 22.853015 
L 202.577455 23.873763 
L 203.109818 24.987513 
L 203.642182 25.514599 
L 206.304 26.497504 
L 207.102545 27.05453 
L 208.433455 28.288615 
L 209.232 29.288561 
L 210.030545 30.69375 
L 210.829091 32.687578 
L 211.627636 35.208108 
L 212.426182 38.476526 
L 213.224727 42.612344 
L 214.023273 48.180519 
L 214.821818 55.223503 
L 215.886545 65.875081 
L 216.685091 71.802175 
L 217.483636 75.92482 
L 218.282182 79.06736 
L 219.346909 82.082704 
L 221.742545 88.241179 
L 223.339636 93.440102 
L 224.138182 96.590271 
L 225.202909 101.97716 
L 228.397091 118.272819 
L 229.195636 121.122548 
L 231.058909 126.505678 
L 232.656 130.710788 
L 233.986909 133.56672 
L 235.317818 135.969988 
L 236.648727 137.769771 
L 238.512 140.081136 
L 240.375273 141.947754 
L 242.770909 144.049267 
L 247.828364 148.437074 
L 250.224 151.063834 
L 253.418182 154.504783 
L 255.281455 156.190117 
L 258.741818 158.800274 
L 262.468364 161.397739 
L 264.331636 162.52119 
L 266.461091 163.53964 
L 269.122909 164.522277 
L 274.180364 166.182865 
L 277.906909 166.936056 
L 280.834909 167.31354 
L 284.827636 167.595394 
L 288.021818 167.763959 
L 289.352727 167.674429 
L 290.949818 167.333319 
L 292.014545 166.882969 
L 292.813091 166.345839 
L 293.345455 165.755155 
L 294.942545 163.460647 
L 297.338182 161.360555 
L 298.669091 160.093594 
L 301.064727 156.924682 
L 302.395636 154.502944 
L 307.186909 145.397622 
L 309.582545 142.490799 
L 310.647273 141.638725 
L 311.978182 140.866496 
L 313.575273 140.280903 
L 316.503273 139.54336 
L 316.769455 140.140576 
L 317.035636 141.085157 
L 317.301818 141.377515 
L 317.834182 141.237106 
L 321.028364 139.740767 
L 322.891636 138.952306 
L 324.222545 138.48584 
L 324.488727 137.193398 
L 325.021091 137.108341 
L 327.949091 136.35174 
L 329.28 136.276959 
L 330.078545 136.531927 
L 330.610909 136.875025 
L 331.143273 137.422913 
L 331.941818 138.697119 
L 333.272727 141.162339 
L 333.805091 141.775046 
L 334.869818 142.526776 
L 336.466909 143.584228 
L 338.064 145.119603 
L 339.661091 147.139364 
L 341.258182 149.299068 
L 341.790545 150.207219 
L 344.186182 153.061545 
L 346.848 156.262414 
L 347.912727 157.715133 
L 349.509818 160.291097 
L 350.574545 161.905506 
L 352.704 165.007527 
L 354.034909 166.603139 
L 354.301091 166.698007 
L 355.632 167.978538 
L 357.229091 169.227195 
L 358.293818 169.915334 
L 358.56 169.021453 
L 362.552727 172.107496 
L 363.351273 172.747363 
L 366.013091 175.240492 
L 368.142545 177.26745 
L 369.473455 178.037725 
L 370.804364 178.545629 
L 372.667636 178.987314 
L 373.466182 179.180248 
L 373.998545 179.440182 
L 375.329455 179.714524 
L 375.861818 179.982266 
L 383.314909 181.772156 
L 385.976727 182.125731 
L 389.969455 182.443006 
L 392.365091 182.466833 
L 392.631273 182.275457 
L 400.084364 182.498042 
L 409.400727 182.748927 
L 410.997818 182.767856 
L 421.911273 182.931275 
L 425.904 182.832544 
L 426.170182 182.782373 
L 426.436364 182.445627 
L 426.436364 182.445627 
" clip-path="url(#pc42aa26090)" style="fill: none; stroke-dasharray: 3,4.95; stroke-dashoffset: 0; stroke: #ffa500; stroke-width: 3"/>
   </g>
   <g id="line2d_3">
    <path d="M 27.163636 163.217747 
L 27.429818 194.463563 
L 27.962182 213.628901 
L 28.494545 225.516843 
L 29.293091 237.852424 
L 29.825455 243.487778 
L 30.091636 245.476145 
L 30.624 246.544862 
L 30.890182 246.887233 
L 31.156364 246.693161 
L 31.422545 247.056169 
L 31.954909 246.673073 
L 32.221091 246.33158 
L 32.487273 245.360667 
L 32.753455 244.901501 
L 33.285818 244.362642 
L 33.552 243.976472 
L 34.616727 243.403036 
L 35.149091 243.654847 
L 35.415273 243.513354 
L 35.681455 245.332676 
L 35.947636 245.282841 
L 36.48 244.777461 
L 36.746182 244.057153 
L 38.077091 242.766482 
L 38.343273 242.5959 
L 38.875636 241.953528 
L 39.674182 241.710498 
L 39.940364 243.130807 
L 40.738909 241.883934 
L 41.271273 240.845403 
L 45.264 231.671736 
L 46.861091 226.47096 
L 48.724364 218.894551 
L 52.717091 200.160058 
L 53.515636 197.60989 
L 54.048 196.232391 
L 54.580364 195.449623 
L 55.378909 194.866088 
L 55.911273 194.559392 
L 56.177455 194.644573 
L 56.709818 194.980139 
L 56.976 197.540406 
L 58.040727 198.491889 
L 58.573091 198.666752 
L 59.105455 198.422953 
L 59.637818 196.448856 
L 60.170182 194.114386 
L 60.436364 193.312079 
L 60.702545 193.361915 
L 60.968727 195.316144 
L 61.501091 204.071589 
L 61.767273 202.579929 
L 63.896727 181.628859 
L 64.961455 169.649369 
L 65.493818 165.781088 
L 65.76 164.850131 
L 66.026182 164.413468 
L 66.292364 164.490307 
L 66.824727 165.463634 
L 67.090909 165.472635 
L 67.357091 164.943216 
L 67.623273 163.847935 
L 68.421818 158.205776 
L 69.486545 150.985459 
L 69.752727 150.096654 
L 70.285091 147.750438 
L 70.817455 146.768 
L 71.083636 146.54363 
L 71.349818 146.541216 
L 71.616 146.740008 
L 73.745455 149.369979 
L 74.011636 149.286444 
L 74.544 148.417837 
L 74.810182 148.123545 
L 75.342545 146.336495 
L 75.874909 143.773704 
L 77.205818 135.961509 
L 78.004364 131.554368 
L 78.270545 125.224722 
L 78.802909 123.761053 
L 79.335273 123.145136 
L 79.601455 123.356442 
L 81.464727 126.319564 
L 82.263273 126.522638 
L 82.529455 127.68422 
L 82.795636 127.849204 
L 85.457455 131.833622 
L 86.522182 133.901023 
L 87.320727 136.468864 
L 88.385455 141.127816 
L 91.579636 158.678334 
L 93.176727 164.214126 
L 95.04 170.790535 
L 95.306182 162.286132 
L 95.838545 160.752431 
L 98.234182 148.121349 
L 98.500364 147.359438 
L 99.032727 144.609929 
L 99.298909 143.224965 
L 99.565091 142.925075 
L 100.363636 139.395761 
L 100.629818 138.714641 
L 101.162182 136.02298 
L 102.493091 127.5649 
L 104.356364 118.757754 
L 105.154909 116.719551 
L 105.687273 115.666531 
L 106.752 114.439965 
L 107.816727 113.776847 
L 108.082909 113.290677 
L 108.615273 113.148965 
L 109.68 113.271687 
L 111.010909 113.572017 
L 113.406545 113.724926 
L 115.269818 112.97959 
L 116.334545 112.347427 
L 117.133091 111.693419 
L 119.262545 110.368719 
L 121.392 109.617346 
L 122.722909 109.831946 
L 125.384727 110.836667 
L 126.715636 111.767623 
L 128.312727 112.802861 
L 129.111273 113.189799 
L 129.377455 106.608341 
L 130.974545 107.349615 
L 131.773091 107.395609 
L 133.370182 106.762238 
L 133.636364 106.983643 
L 135.499636 106.006474 
L 136.032 105.785288 
L 137.629091 104.899008 
L 137.895273 104.921292 
L 140.290909 102.997579 
L 143.218909 99.191097 
L 144.283636 98.523039 
L 145.082182 98.331601 
L 145.880727 98.443566 
L 146.146909 98.550592 
L 146.413091 98.323149 
L 147.477818 99.48528 
L 150.405818 103.401092 
L 154.664727 111.819105 
L 155.197091 112.663234 
L 156.261818 113.874981 
L 157.060364 114.716036 
L 158.657455 117.565216 
L 158.923636 118.141397 
L 159.456 119.633715 
L 160.520727 122.60463 
L 161.319273 124.61089 
L 161.851636 125.50639 
L 162.384 125.879937 
L 162.650182 125.901232 
L 163.182545 125.591791 
L 163.448727 123.122194 
L 163.981091 121.829876 
L 165.045818 118.666535 
L 165.578182 118.457534 
L 165.844364 118.736458 
L 166.110545 119.352595 
L 167.175273 124.034819 
L 169.038545 136.702124 
L 170.103273 144.203452 
L 170.635636 146.789514 
L 170.901818 147.452633 
L 171.168 147.648133 
L 171.434182 147.443522 
L 171.966545 146.196429 
L 172.498909 143.911465 
L 173.297455 139.260745 
L 175.426909 126.294646 
L 178.887273 107.762459 
L 179.952 99.686597 
L 180.218182 97.605475 
L 180.750545 91.741032 
L 181.549091 84.040144 
L 184.477091 53.658654 
L 185.275636 48.221545 
L 185.808 46.062047 
L 186.872727 43.202329 
L 187.405091 40.014948 
L 188.203636 33.963458 
L 188.736 31.523608 
L 189.002182 30.757855 
L 189.268364 30.56499 
L 189.534545 30.540182 
L 190.066909 30.661258 
L 190.599273 30.556867 
L 190.865455 30.646988 
L 191.664 32.157199 
L 192.196364 33.501767 
L 192.728727 35.409453 
L 193.261091 38.061488 
L 193.793455 41.218352 
L 194.059636 43.247334 
L 195.124364 59.811791 
L 196.189091 75.842877 
L 196.987636 83.402602 
L 197.786182 89.232687 
L 198.318545 91.728189 
L 198.850909 92.945096 
L 199.117091 93.210848 
L 199.383273 93.308872 
L 199.649455 93.089333 
L 199.915636 92.721714 
L 200.448 91.454095 
L 202.311273 84.693164 
L 203.109818 82.5363 
L 203.642182 80.54914 
L 205.771636 70.367458 
L 208.965818 47.212433 
L 209.764364 43.017257 
L 210.030545 42.23899 
L 210.296727 41.998485 
L 210.562909 41.994533 
L 210.829091 42.135697 
L 211.361455 42.981033 
L 211.893818 44.56907 
L 212.426182 46.719018 
L 212.958545 49.560295 
L 213.757091 55.628251 
L 214.555636 63.718053 
L 216.418909 85.767698 
L 216.951273 89.58834 
L 217.749818 93.498664 
L 218.282182 95.059039 
L 218.548364 95.513485 
L 218.814545 95.693288 
L 219.080727 95.73533 
L 219.346909 95.581213 
L 219.879273 94.705581 
L 220.411636 93.262769 
L 220.944 91.080878 
L 222.807273 82.524774 
L 223.339636 81.005563 
L 223.605818 80.675815 
L 223.872 80.582071 
L 224.138182 80.721808 
L 224.404364 81.124004 
L 224.936727 82.62686 
L 226.001455 87.527196 
L 227.598545 95.957064 
L 228.663273 100.30943 
L 229.728 103.414264 
L 230.792727 106.362018 
L 233.986909 111.102968 
L 234.253091 111.355109 
L 235.051636 112.616692 
L 236.116364 113.770041 
L 237.447273 114.764993 
L 237.979636 115.102205 
L 238.778182 115.588595 
L 239.310545 115.697376 
L 239.576727 115.575861 
L 240.375273 115.640516 
L 241.44 114.872897 
L 242.238545 113.826792 
L 242.770909 113.027669 
L 243.569455 110.07794 
L 248.094545 86.674725 
L 248.893091 84.548377 
L 249.691636 83.412371 
L 250.224 82.977684 
L 251.022545 82.764401 
L 251.554909 82.911493 
L 252.353455 83.245083 
L 255.281455 85.251781 
L 256.612364 86.63916 
L 257.410909 87.896461 
L 260.072727 92.636753 
L 260.871273 93.875942 
L 263.799273 99.001525 
L 266.461091 104.824475 
L 268.058182 107.916466 
L 270.187636 111.38321 
L 273.115636 115.332392 
L 273.381818 115.05248 
L 274.180364 115.612744 
L 276.043636 116.290132 
L 277.374545 116.521636 
L 277.640727 116.312855 
L 278.705455 115.980801 
L 279.504 115.701328 
L 280.302545 115.467409 
L 281.367273 114.821524 
L 281.633455 114.649735 
L 281.899636 114.152698 
L 282.964364 114.027231 
L 284.295273 114.155552 
L 285.093818 114.426244 
L 285.892364 114.844466 
L 286.424727 115.520428 
L 286.957091 116.563129 
L 287.489455 118.291672 
L 288.021818 121.280699 
L 288.554182 126.034163 
L 289.352727 136.343727 
L 290.151273 145.637153 
L 290.683636 149.391164 
L 291.216 150.96109 
L 292.546909 153.323991 
L 294.676364 158.77065 
L 295.474909 161.659677 
L 295.741091 162.019721 
L 297.072 162.741127 
L 297.604364 162.491731 
L 297.870545 162.240688 
L 298.402909 161.255835 
L 299.201455 159.000727 
L 300.266182 154.902368 
L 301.064727 150.351319 
L 304.525091 127.74635 
L 305.856 121.525156 
L 306.654545 118.392989 
L 307.186909 116.917685 
L 307.453091 116.731406 
L 308.251636 114.956541 
L 309.050182 113.808131 
L 309.582545 113.452258 
L 309.848727 113.404838 
L 310.381091 113.683213 
L 310.913455 114.477945 
L 311.445818 115.75292 
L 311.978182 117.980585 
L 315.438545 131.609582 
L 316.503273 134.87457 
L 317.568 140.762503 
L 318.898909 144.344835 
L 319.697455 146.237373 
L 319.963636 146.855486 
L 320.229818 146.723762 
L 321.028364 148.477223 
L 321.560727 149.386774 
L 322.093091 150.33683 
L 323.424 151.716195 
L 324.222545 152.454725 
L 324.488727 146.443301 
L 325.021091 147.627606 
L 327.416727 151.500717 
L 330.610909 156.207419 
L 331.409455 158.078553 
L 332.208 160.629818 
L 333.006545 163.112807 
L 333.538909 164.313248 
L 334.071273 165.024006 
L 334.869818 165.710725 
L 335.934545 166.221264 
L 336.999273 166.269014 
L 337.265455 165.976807 
L 338.330182 165.605456 
L 339.128727 164.957157 
L 339.927273 163.967035 
L 340.992 162.000731 
L 341.258182 161.398974 
L 341.524364 161.333442 
L 344.718545 154.085133 
L 345.517091 152.845505 
L 345.783273 152.856702 
L 346.315636 152.485131 
L 346.848 152.342321 
L 347.114182 152.370642 
L 347.912727 152.916855 
L 348.445091 153.596439 
L 349.243636 154.859997 
L 349.776 156.053852 
L 350.042182 155.810493 
L 351.373091 158.664613 
L 351.905455 159.547929 
L 352.704 160.431135 
L 353.768727 161.654847 
L 354.034909 162.105891 
L 354.301091 161.875484 
L 355.898182 166.738389 
L 357.229091 171.2216 
L 357.761455 173.795149 
L 358.826182 179.739613 
L 360.955636 189.019099 
L 363.085091 198.671252 
L 364.416 205.692996 
L 366.013091 213.520888 
L 366.811636 216.864361 
L 367.077818 217.142627 
L 368.408727 221.547902 
L 370.005818 226.215307 
L 370.272 226.796537 
L 371.602909 227.132871 
L 372.135273 226.792915 
L 372.667636 226.274143 
L 373.998545 224.657566 
L 375.063273 222.436377 
L 375.329455 221.705861 
L 375.595636 223.319364 
L 376.128 221.590932 
L 377.192727 217.183462 
L 378.789818 209.003429 
L 379.588364 204.363027 
L 379.854545 203.852269 
L 380.919273 198.079814 
L 381.717818 194.834474 
L 382.250182 193.606482 
L 382.516364 193.314824 
L 382.782545 193.298578 
L 383.314909 193.99781 
L 384.113455 195.628987 
L 384.379636 195.68969 
L 384.912 195.95643 
L 385.444364 195.834805 
L 386.242909 195.55621 
L 386.775273 195.230194 
L 387.573818 195.205935 
L 388.372364 195.337329 
L 388.638545 195.368065 
L 389.170909 195.735793 
L 389.703273 196.309888 
L 390.501818 197.689802 
L 391.034182 198.990462 
L 391.832727 201.621311 
L 392.365091 205.25282 
L 392.631273 202.801664 
L 392.897455 202.030532 
L 393.429818 202.755451 
L 395.293091 206.262701 
L 397.156364 210.267755 
L 398.221091 213.557002 
L 399.285818 217.9895 
L 400.084364 222.5209 
L 401.415273 232.538477 
L 403.278545 254.313259 
L 404.077091 259.7114 
L 404.875636 263.40899 
L 406.472727 269.302412 
L 408.069818 274.02997 
L 409.400727 277.401654 
L 409.666909 272.153897 
L 411.264 276.054232 
L 412.594909 278.935904 
L 413.659636 280.926467 
L 413.925818 281.754898 
L 415.256727 282.685306 
L 415.789091 282.968182 
L 417.652364 283.227897 
L 417.918545 283.096393 
L 418.184727 283.626361 
L 419.249455 284.156658 
L 420.580364 284.439424 
L 421.378909 284.058853 
L 421.911273 282.855888 
L 422.177455 281.742823 
L 422.443636 282.507698 
L 422.709818 282.336787 
L 423.242182 281.790793 
L 423.508364 282.481683 
L 423.774545 282.709674 
L 424.040727 283.160059 
L 424.306909 283.9459 
L 425.105455 289.717258 
L 425.371636 293.540315 
L 426.170182 316.472727 
L 426.436364 282.248532 
L 426.436364 282.248532 
" clip-path="url(#pc42aa26090)" style="fill: none; stroke: #ffa500; stroke-width: 3; stroke-linecap: square"/>
   </g>
   <g id="patch_3">
    <path d="M 7.2 331.2 
L 7.2 7.2 
" style="fill: none; stroke: #000000; stroke-width: 0.8; stroke-linejoin: miter; stroke-linecap: square"/>
   </g>
   <g id="patch_4">
    <path d="M 446.4 331.2 
L 446.4 7.2 
" style="fill: none; stroke: #000000; stroke-width: 0.8; stroke-linejoin: miter; stroke-linecap: square"/>
   </g>
   <g id="patch_5">
    <path d="M 7.2 331.2 
L 446.4 331.2 
" style="fill: none; stroke: #000000; stroke-width: 0.8; stroke-linejoin: miter; stroke-linecap: square"/>
   </g>
   <g id="patch_6">
    <path d="M 7.2 7.2 
L 446.4 7.2 
" style="fill: none; stroke: #000000; stroke-width: 0.8; stroke-linejoin: miter; stroke-linecap: square"/>
   </g>
  </g>
 </g>
 <defs>
  <clipPath id="pc42aa26090">
   <rect x="7.2" y="7.2" width="439.2" height="324"/>
  </clipPath>
 </defs>
</svg>
