<?xml version="1.0" encoding="utf-8" standalone="no"?>
<!DOCTYPE svg PUBLIC "-//W3C//DTD SVG 1.1//EN"
  "http://www.w3.org/Graphics/SVG/1.1/DTD/svg11.dtd">
<svg xmlns:xlink="http://www.w3.org/1999/xlink" width="453.6pt" height="338.4pt" viewBox="0 0 453.6 338.4" xmlns="http://www.w3.org/2000/svg" version="1.1">
 <metadata>
  <rdf:RDF xmlns:dc="http://purl.org/dc/elements/1.1/" xmlns:cc="http://creativecommons.org/ns#" xmlns:rdf="http://www.w3.org/1999/02/22-rdf-syntax-ns#">
   <cc:Work>
    <dc:type rdf:resource="http://purl.org/dc/dcmitype/StillImage"/>
    <dc:date>2025-05-14T08:57:24.823008</dc:date>
    <dc:format>image/svg+xml</dc:format>
    <dc:creator>
     <cc:Agent>
      <dc:title>Matplotlib v3.10.1, https://matplotlib.org/</dc:title>
     </cc:Agent>
    </dc:creator>
   </cc:Work>
  </rdf:RDF>
 </metadata>
 <defs>
  <style type="text/css">*{stroke-linejoin: round; stroke-linecap: butt}</style>
 </defs>
 <g id="figure_1">
  <g id="patch_1">
   <path d="M 0 338.4 
L 453.6 338.4 
L 453.6 0 
L 0 0 
z
" style="fill: #ffffff"/>
  </g>
  <g id="axes_1">
   <g id="patch_2">
    <path d="M 7.2 331.2 
L 446.4 331.2 
L 446.4 7.2 
L 7.2 7.2 
z
" style="fill: #ffffff"/>
   </g>
   <g id="matplotlib.axis_1"/>
   <g id="matplotlib.axis_2"/>
   <g id="line2d_1">
    <path d="M 27.163636 316.472727 
L 426.436364 59.411739 
L 426.436364 59.411739 
" clip-path="url(#pf6a831185d)" style="fill: none; stroke-dasharray: 11.1,4.8; stroke-dashoffset: 0; stroke: #000000; stroke-width: 3"/>
   </g>
   <g id="line2d_2">
    <path d="M 27.163636 164.136355 
L 30.890182 212.964862 
L 31.688727 220.046438 
L 32.487273 225.493635 
L 33.285818 229.523782 
L 34.084364 232.408262 
L 34.882909 234.395054 
L 35.681455 235.665354 
L 36.213818 236.166788 
L 36.746182 236.406741 
L 37.278545 236.385525 
L 37.810909 236.097699 
L 38.343273 235.538488 
L 38.875636 234.708597 
L 39.674182 232.990059 
L 40.738909 230.005918 
L 43.400727 222.087248 
L 44.199273 220.353679 
L 44.997818 219.06412 
L 45.796364 218.18111 
L 46.594909 217.614658 
L 47.659636 217.146574 
L 49.256727 216.499916 
L 50.321455 215.812665 
L 51.386182 214.814728 
L 52.450909 213.517732 
L 54.048 211.186826 
L 57.774545 205.589472 
L 59.105455 203.944055 
L 60.170182 202.938916 
L 60.968727 202.441357 
L 61.767273 202.19659 
L 62.565818 202.194359 
L 63.630545 202.466018 
L 65.493818 203.004208 
L 66.292364 202.990743 
L 67.090909 202.750164 
L 67.889455 202.29488 
L 69.220364 201.232552 
L 70.817455 199.974582 
L 71.882182 199.443398 
L 72.680727 199.284043 
L 73.479273 199.342015 
L 74.277818 199.605924 
L 75.342545 200.228626 
L 76.673455 201.302894 
L 80.932364 205.185311 
L 81.997091 206.489823 
L 82.795636 207.793434 
L 83.594182 209.472124 
L 84.658909 212.377585 
L 85.723636 216.038917 
L 87.054545 221.474763 
L 89.184 231.246586 
L 92.378182 246.945786 
L 96.637091 268.643409 
L 97.701818 272.646154 
L 98.500364 274.803809 
L 99.032727 275.762015 
L 99.565091 276.294099 
L 100.097455 276.36949 
L 100.629818 275.966738 
L 101.162182 275.075664 
L 101.694545 273.704568 
L 102.493091 270.819775 
L 103.557818 265.786956 
L 105.953455 253.796217 
L 106.752 250.894591 
L 107.550545 248.846735 
L 108.082909 247.929435 
L 108.615273 247.312135 
L 109.413818 246.798722 
L 110.478545 246.516573 
L 112.075636 246.141769 
L 113.406545 245.56142 
L 115.269818 244.442333 
L 116.600727 243.429796 
L 117.665455 242.361283 
L 118.730182 240.933663 
L 119.794909 239.074794 
L 121.125818 236.172503 
L 122.989091 231.4243 
L 125.917091 223.953202 
L 128.046545 219.151294 
L 129.909818 215.432773 
L 131.240727 213.155924 
L 132.305455 211.658119 
L 133.370182 210.510731 
L 134.434909 209.743861 
L 135.233455 209.418536 
L 136.032 209.295937 
L 136.830545 209.359389 
L 137.895273 209.69775 
L 138.96 210.277315 
L 140.557091 211.460833 
L 142.686545 213.104606 
L 143.751273 213.633872 
L 144.549818 213.782189 
L 145.348364 213.676108 
L 146.146909 213.311052 
L 146.945455 212.714106 
L 148.010182 211.647707 
L 153.333818 205.798736 
L 154.930909 204.554858 
L 156.261818 203.805055 
L 157.326545 203.433461 
L 158.391273 203.284009 
L 159.456 203.349106 
L 160.786909 203.67267 
L 163.448727 204.657023 
L 166.110545 205.752663 
L 167.175273 206.406211 
L 168.24 207.31212 
L 169.304727 208.496421 
L 170.901818 210.657638 
L 173.563636 214.29654 
L 175.160727 216.111177 
L 176.757818 217.61591 
L 177.822545 218.387712 
L 178.887273 218.879791 
L 179.685818 219.017656 
L 180.484364 218.939564 
L 181.282909 218.652286 
L 182.347636 217.994941 
L 183.944727 216.654104 
L 186.872727 214.163725 
L 188.203636 212.983926 
L 189.268364 211.70333 
L 190.066909 210.409348 
L 191.131636 208.173914 
L 192.462545 204.741183 
L 194.592 199.2229 
L 195.656727 197.081412 
L 196.721455 195.486021 
L 197.786182 194.348653 
L 198.850909 193.527765 
L 200.181818 192.775809 
L 201.512727 192.244391 
L 202.843636 191.940947 
L 204.174545 191.896792 
L 205.505455 192.11455 
L 206.836364 192.563688 
L 208.433455 193.349543 
L 210.296727 194.532904 
L 212.426182 196.159806 
L 214.555636 198.07379 
L 216.418909 200.060229 
L 218.548364 202.685537 
L 222.274909 207.317131 
L 227.598545 213.572259 
L 229.461818 215.638592 
L 230.792727 216.811189 
L 232.123636 217.688092 
L 233.454545 218.282219 
L 234.785455 218.615452 
L 236.116364 218.7038 
L 237.447273 218.538573 
L 238.512 218.186708 
L 239.576727 217.584047 
L 240.641455 216.6817 
L 241.706182 215.468472 
L 243.303273 213.211313 
L 245.432727 210.207248 
L 246.497455 209.118106 
L 247.296 208.584182 
L 248.094545 208.30348 
L 248.893091 208.250166 
L 249.957818 208.440954 
L 253.418182 209.344436 
L 254.482909 209.317466 
L 255.547636 209.101 
L 256.878545 208.598978 
L 258.475636 207.717965 
L 260.338909 206.377401 
L 262.734545 204.327666 
L 269.921455 197.963717 
L 270.986182 197.352836 
L 272.050909 196.973766 
L 273.115636 196.815272 
L 274.446545 196.842438 
L 279.504 197.177862 
L 281.899636 197.290401 
L 283.230545 197.596155 
L 284.295273 198.066979 
L 285.36 198.793765 
L 286.424727 199.803288 
L 287.755636 201.446826 
L 289.352727 203.835979 
L 295.208727 212.995943 
L 297.072 215.42604 
L 298.669091 217.166733 
L 300.266182 218.59036 
L 303.194182 220.801056 
L 306.122182 223.162925 
L 309.582545 225.941286 
L 311.712 227.389848 
L 313.309091 228.226511 
L 314.64 228.662105 
L 315.704727 228.773196 
L 316.769455 228.617325 
L 317.568 228.300571 
L 318.632727 227.604278 
L 319.697455 226.632568 
L 321.826909 224.267568 
L 323.690182 222.306885 
L 327.150545 218.902299 
L 328.215273 217.480316 
L 329.28 215.727683 
L 330.610909 213.037435 
L 331.941818 209.775529 
L 333.272727 205.875771 
L 334.603636 201.208831 
L 335.934545 195.663226 
L 337.531636 187.893342 
L 343.387636 157.654191 
L 344.718545 152.303679 
L 346.049455 147.831011 
L 347.380364 144.160558 
L 348.977455 140.47394 
L 351.905455 133.888944 
L 353.502545 129.60906 
L 356.164364 121.597267 
L 357.761455 117.102364 
L 358.826182 114.616996 
L 359.890909 112.697023 
L 360.689455 111.657828 
L 361.488 110.944312 
L 362.286545 110.506917 
L 363.351273 110.225629 
L 366.013091 109.759463 
L 366.811636 109.377848 
L 367.610182 108.805407 
L 368.674909 107.743196 
L 370.005818 106.035814 
L 376.394182 96.903838 
L 378.523636 93.399278 
L 381.717818 88.001324 
L 383.048727 86.238357 
L 384.113455 85.179082 
L 385.178182 84.414796 
L 386.509091 83.743908 
L 388.638545 82.69802 
L 389.703273 81.852588 
L 390.501818 80.964411 
L 391.566545 79.395208 
L 392.897455 76.896648 
L 396.357818 70.001985 
L 397.688727 67.977537 
L 399.019636 66.380541 
L 400.350545 65.173654 
L 401.681455 64.325639 
L 403.544727 63.502989 
L 404.875636 62.833235 
L 406.206545 61.876791 
L 408.336 60.227578 
L 409.134545 59.898064 
L 409.933091 59.850386 
L 410.731636 60.074916 
L 412.062545 60.790624 
L 413.127273 61.283056 
L 413.925818 61.424679 
L 414.724364 61.354963 
L 416.587636 61.037232 
L 417.386182 61.238353 
L 418.184727 61.778697 
L 420.048 63.482164 
L 420.580364 63.578772 
L 420.846545 63.465685 
L 421.112727 63.217199 
L 421.645091 62.235507 
L 422.177455 60.495792 
L 422.709818 57.903365 
L 423.508364 52.363631 
L 424.306909 45.050049 
L 426.170182 24.734639 
L 426.436364 21.927273 
L 426.436364 21.927273 
" clip-path="url(#pf6a831185d)" style="fill: none; stroke-dasharray: 3,4.95; stroke-dashoffset: 0; stroke: #0000ff; stroke-width: 3"/>
   </g>
   <g id="line2d_3">
    <path d="M 27.163636 208.462992 
L 28.760727 221.091465 
L 30.357818 233.348539 
L 31.422545 239.921596 
L 32.487273 244.965845 
L 33.552 248.702372 
L 34.616727 251.443703 
L 35.415273 252.994431 
L 36.213818 254.167497 
L 37.012364 254.969792 
L 37.810909 255.392547 
L 38.343273 255.463319 
L 38.875636 255.370313 
L 39.674182 254.960711 
L 40.738909 254.062591 
L 42.602182 252.359046 
L 43.400727 251.865832 
L 44.199273 251.586813 
L 45.264 251.507586 
L 46.861091 251.721782 
L 48.458182 251.894955 
L 49.789091 251.807898 
L 51.12 251.469695 
L 52.450909 250.894748 
L 54.048 249.945272 
L 56.709818 248.292456 
L 57.508364 248.029096 
L 58.306909 248.003417 
L 59.105455 248.277112 
L 59.904 248.868969 
L 60.702545 249.744854 
L 62.033455 251.591824 
L 63.630545 253.760713 
L 64.695273 254.814156 
L 65.493818 255.333361 
L 66.292364 255.626472 
L 67.090909 255.723549 
L 68.155636 255.60643 
L 69.486545 255.179917 
L 71.882182 254.060399 
L 73.745455 253.294743 
L 75.076364 252.992552 
L 76.141091 252.945579 
L 77.472 253.113741 
L 79.867636 253.73754 
L 81.730909 254.367914 
L 82.795636 254.920001 
L 83.860364 255.733256 
L 84.925091 256.844945 
L 86.522182 258.959033 
L 87.853091 260.705794 
L 88.651636 261.450156 
L 89.184 261.701303 
L 89.716364 261.692222 
L 90.248727 261.374686 
L 90.781091 260.713622 
L 91.313455 259.700576 
L 92.112 257.568326 
L 93.176727 253.900379 
L 95.04 247.32012 
L 95.838545 245.212608 
L 96.637091 243.74925 
L 97.169455 243.119189 
L 97.701818 242.726496 
L 98.500364 242.47253 
L 99.298909 242.481925 
L 100.629818 242.785056 
L 101.960727 243.348729 
L 103.025455 244.091525 
L 104.090182 245.174717 
L 105.421091 246.946217 
L 108.615273 251.461553 
L 109.946182 252.844744 
L 111.010909 253.6342 
L 112.075636 254.135556 
L 113.140364 254.372299 
L 114.205091 254.384511 
L 115.536 254.149961 
L 116.866909 253.658312 
L 117.931636 253.019483 
L 118.996364 252.059673 
L 119.794909 251.048819 
L 120.593455 249.716671 
L 121.392 247.984941 
L 122.190545 245.768766 
L 122.989091 242.977644 
L 123.787636 239.528903 
L 124.852364 233.814822 
L 125.917091 226.863166 
L 127.780364 212.75004 
L 129.643636 199.101006 
L 130.708364 192.864275 
L 131.506909 189.211359 
L 132.305455 186.44435 
L 133.104 184.475251 
L 133.902545 183.173166 
L 134.701091 182.389034 
L 135.499636 181.991018 
L 136.298182 181.876091 
L 137.096727 181.972855 
L 138.161455 182.34989 
L 139.226182 182.957718 
L 140.557091 183.995189 
L 144.283636 187.186833 
L 145.082182 187.48965 
L 145.880727 187.547897 
L 146.679273 187.369713 
L 147.744 186.8408 
L 149.341091 185.693099 
L 152.002909 183.475044 
L 153.866182 181.667219 
L 157.060364 178.452716 
L 158.125091 177.68111 
L 159.189818 177.178814 
L 160.254545 176.947395 
L 161.319273 176.938001 
L 162.916364 177.19729 
L 164.513455 177.670463 
L 165.578182 178.185284 
L 166.376727 178.787788 
L 167.175273 179.702191 
L 167.973818 181.074109 
L 168.772364 183.060118 
L 169.570909 185.800196 
L 170.369455 189.397684 
L 171.434182 195.554562 
L 172.765091 205.090034 
L 176.225455 231.325892 
L 177.290182 237.346862 
L 178.088727 240.853222 
L 178.887273 243.507497 
L 179.685818 245.403005 
L 180.484364 246.667512 
L 181.282909 247.454149 
L 182.081455 247.899451 
L 182.88 248.111141 
L 183.678545 248.137133 
L 184.477091 247.953939 
L 185.009455 247.663961 
L 185.541818 247.18202 
L 186.074182 246.437658 
L 186.606545 245.355092 
L 187.138909 243.851964 
L 187.671273 241.853429 
L 188.469818 237.787779 
L 189.268364 232.345201 
L 190.333091 223.050856 
L 191.930182 206.192642 
L 193.793455 186.791948 
L 194.858182 177.919731 
L 195.656727 172.709199 
L 196.455273 168.698037 
L 197.253818 165.718398 
L 198.052364 163.548569 
L 198.850909 161.975608 
L 199.649455 160.827906 
L 200.448 159.986154 
L 201.512727 159.215174 
L 202.577455 158.758286 
L 203.642182 158.558808 
L 204.706909 158.5729 
L 206.037818 158.843463 
L 207.368727 159.349517 
L 208.699636 160.074463 
L 210.030545 161.021747 
L 211.361455 162.212663 
L 212.692364 163.735208 
L 213.757091 165.308482 
L 214.821818 167.31328 
L 215.886545 169.821 
L 217.217455 173.645836 
L 218.814545 179.05428 
L 220.411636 185.293204 
L 221.742545 191.383067 
L 223.073455 198.511654 
L 225.202909 211.441066 
L 227.066182 222.36474 
L 228.397091 229.078401 
L 229.728 234.806887 
L 231.058909 239.64383 
L 232.123636 242.842989 
L 233.188364 245.353527 
L 233.986909 246.750497 
L 234.785455 247.730975 
L 235.584 248.328469 
L 236.382545 248.577111 
L 237.181091 248.501642 
L 237.713455 248.265525 
L 238.245818 247.865004 
L 239.044364 246.901123 
L 239.842909 245.405197 
L 240.641455 243.261986 
L 241.44 240.396334 
L 242.504727 235.448222 
L 243.835636 227.871828 
L 245.965091 215.443772 
L 247.029818 210.597748 
L 247.828364 207.941908 
L 248.626909 206.15475 
L 249.159273 205.400368 
L 249.691636 204.934085 
L 250.224 204.695776 
L 251.022545 204.606215 
L 252.885818 204.557676 
L 253.684364 204.256424 
L 254.482909 203.703711 
L 255.547636 202.615195 
L 256.878545 200.863424 
L 259.008 197.637334 
L 260.871273 194.478259 
L 262.734545 190.886095 
L 265.928727 184.10354 
L 270.72 173.997505 
L 272.050909 171.67705 
L 273.115636 170.164527 
L 274.180364 168.98144 
L 275.245091 168.091149 
L 276.576 167.280399 
L 278.439273 166.459628 
L 280.302545 165.868084 
L 281.633455 165.699296 
L 282.432 165.782594 
L 283.230545 166.061612 
L 284.029091 166.58896 
L 284.827636 167.403781 
L 285.626182 168.53144 
L 286.690909 170.512439 
L 288.021818 173.608257 
L 291.748364 182.779534 
L 293.079273 185.318256 
L 294.410182 187.406039 
L 296.007273 189.506974 
L 298.402909 192.266155 
L 302.395636 196.754246 
L 303.726545 198.652573 
L 304.791273 200.501108 
L 305.856 202.724485 
L 306.920727 205.401933 
L 308.251636 209.447228 
L 311.445818 219.785309 
L 312.244364 221.436245 
L 313.042909 222.470585 
L 313.841455 222.993862 
L 314.906182 223.27288 
L 315.970909 223.580395 
L 316.769455 224.023192 
L 318.100364 225.111081 
L 319.697455 226.375588 
L 321.028364 227.070785 
L 323.424 228.205021 
L 325.021091 229.317336 
L 326.618182 230.372345 
L 327.682909 230.791968 
L 328.481455 230.887793 
L 329.28 230.781008 
L 330.078545 230.448441 
L 330.877091 229.843744 
L 331.675636 228.871408 
L 332.474182 227.38519 
L 333.272727 225.20033 
L 334.071273 222.126745 
L 334.869818 218.006293 
L 335.668364 212.746909 
L 336.733091 203.997761 
L 338.064 190.781502 
L 341.790545 151.627506 
L 342.855273 142.878045 
L 343.92 135.842777 
L 344.984727 130.409593 
L 346.049455 126.274737 
L 347.114182 123.076204 
L 348.445091 119.906169 
L 350.042182 116.747406 
L 357.761455 102.65307 
L 358.826182 101.394826 
L 359.624727 100.755057 
L 360.423273 100.363304 
L 361.221818 100.186373 
L 362.286545 100.203597 
L 363.883636 100.538043 
L 366.013091 101.000568 
L 367.344 101.022802 
L 368.408727 100.818627 
L 369.739636 100.292845 
L 371.336727 99.35934 
L 373.466182 97.797652 
L 375.861818 95.751205 
L 378.789818 92.936909 
L 384.379636 87.364999 
L 389.703273 82.824925 
L 394.228364 78.343722 
L 398.753455 73.538408 
L 400.084364 72.504068 
L 401.415273 71.729643 
L 405.940364 69.456161 
L 408.336 67.809922 
L 409.400727 67.41034 
L 410.199273 67.333305 
L 411.264 67.46295 
L 413.127273 67.756686 
L 414.192 67.662741 
L 416.587636 67.187063 
L 417.386182 67.351468 
L 418.184727 67.822761 
L 418.983273 68.57182 
L 420.580364 70.195826 
L 421.112727 70.457307 
L 421.645091 70.408769 
L 422.177455 69.961275 
L 422.709818 69.050629 
L 423.242182 67.648023 
L 424.040727 64.666817 
L 425.105455 59.482903 
L 426.436364 52.521851 
L 426.436364 52.521851 
" clip-path="url(#pf6a831185d)" style="fill: none; stroke: #0000ff; stroke-width: 3; stroke-linecap: square"/>
   </g>
   <g id="patch_3">
    <path d="M 7.2 331.2 
L 7.2 7.2 
" style="fill: none; stroke: #000000; stroke-width: 0.8; stroke-linejoin: miter; stroke-linecap: square"/>
   </g>
   <g id="patch_4">
    <path d="M 446.4 331.2 
L 446.4 7.2 
" style="fill: none; stroke: #000000; stroke-width: 0.8; stroke-linejoin: miter; stroke-linecap: square"/>
   </g>
   <g id="patch_5">
    <path d="M 7.2 331.2 
L 446.4 331.2 
" style="fill: none; stroke: #000000; stroke-width: 0.8; stroke-linejoin: miter; stroke-linecap: square"/>
   </g>
   <g id="patch_6">
    <path d="M 7.2 7.2 
L 446.4 7.2 
" style="fill: none; stroke: #000000; stroke-width: 0.8; stroke-linejoin: miter; stroke-linecap: square"/>
   </g>
  </g>
 </g>
 <defs>
  <clipPath id="pf6a831185d">
   <rect x="7.2" y="7.2" width="439.2" height="324"/>
  </clipPath>
 </defs>
</svg>
