<?xml version="1.0" encoding="utf-8" standalone="no"?>
<!DOCTYPE svg PUBLIC "-//W3C//DTD SVG 1.1//EN"
  "http://www.w3.org/Graphics/SVG/1.1/DTD/svg11.dtd">
<svg xmlns:xlink="http://www.w3.org/1999/xlink" width="453.6pt" height="338.4pt" viewBox="0 0 453.6 338.4" xmlns="http://www.w3.org/2000/svg" version="1.1">
 <metadata>
  <rdf:RDF xmlns:dc="http://purl.org/dc/elements/1.1/" xmlns:cc="http://creativecommons.org/ns#" xmlns:rdf="http://www.w3.org/1999/02/22-rdf-syntax-ns#">
   <cc:Work>
    <dc:type rdf:resource="http://purl.org/dc/dcmitype/StillImage"/>
    <dc:date>2025-05-14T08:57:33.184695</dc:date>
    <dc:format>image/svg+xml</dc:format>
    <dc:creator>
     <cc:Agent>
      <dc:title>Matplotlib v3.10.1, https://matplotlib.org/</dc:title>
     </cc:Agent>
    </dc:creator>
   </cc:Work>
  </rdf:RDF>
 </metadata>
 <defs>
  <style type="text/css">*{stroke-linejoin: round; stroke-linecap: butt}</style>
 </defs>
 <g id="figure_1">
  <g id="patch_1">
   <path d="M 0 338.4 
L 453.6 338.4 
L 453.6 0 
L 0 0 
z
" style="fill: #ffffff"/>
  </g>
  <g id="axes_1">
   <g id="patch_2">
    <path d="M 7.2 331.2 
L 446.4 331.2 
L 446.4 7.2 
L 7.2 7.2 
z
" style="fill: #ffffff"/>
   </g>
   <g id="matplotlib.axis_1"/>
   <g id="matplotlib.axis_2"/>
   <g id="line2d_1">
    <path d="M 27.163636 74.490446 
L 27.696 74.345344 
L 28.228364 74.425568 
L 28.760727 74.731144 
L 29.293091 75.262096 
L 30.091636 76.48101 
L 30.890182 78.207083 
L 31.688727 80.440089 
L 32.753455 84.206231 
L 33.818182 88.873728 
L 34.882909 94.442729 
L 36.213818 102.671596 
L 37.544727 112.308827 
L 39.141818 125.732779 
L 40.738909 141.184892 
L 42.336 158.665189 
L 44.199273 181.622254 
L 46.062545 207.33994 
L 48.192 240.111876 
L 50.321455 276.489467 
L 52.450909 316.472727 
L 52.717091 314.650796 
L 54.580364 294.749002 
L 56.443636 277.266437 
L 58.040727 264.206883 
L 59.637818 252.924726 
L 60.968727 244.88065 
L 62.299636 238.070885 
L 63.630545 232.495381 
L 64.695273 228.923696 
L 65.76 226.141973 
L 66.558545 224.574058 
L 67.357091 223.450516 
L 68.155636 222.771298 
L 68.688 222.565381 
L 69.220364 222.55691 
L 69.752727 222.745948 
L 70.285091 223.132458 
L 71.083636 224.082521 
L 71.882182 225.476945 
L 72.680727 227.31573 
L 73.745455 230.4586 
L 74.810182 234.391445 
L 75.874909 239.114239 
L 77.205818 246.128614 
L 78.536727 254.377251 
L 79.601455 261.864876 
L 79.867636 261.893465 
L 82.795636 240.834731 
L 85.457455 223.234919 
L 88.119273 207.105943 
L 90.514909 193.847423 
L 92.910545 181.780386 
L 95.306182 170.904758 
L 97.435636 162.237671 
L 99.565091 154.511976 
L 101.428364 148.524213 
L 103.291636 143.2572 
L 105.154909 138.710887 
L 106.752 135.387699 
L 108.349091 132.594018 
L 109.68 130.670473 
L 111.010909 129.114616 
L 112.341818 127.926471 
L 113.406545 127.240751 
L 114.471273 126.790347 
L 115.536 126.575286 
L 116.600727 126.595566 
L 117.665455 126.851189 
L 118.730182 127.342128 
L 119.794909 128.068409 
L 120.859636 129.030056 
L 122.190545 130.563042 
L 123.521455 132.46379 
L 124.852364 134.732225 
L 126.449455 137.939735 
L 126.715636 138.525823 
L 126.981818 138.364626 
L 129.909818 125.229408 
L 132.837818 113.092611 
L 135.765818 101.954334 
L 138.427636 92.694956 
L 141.089455 84.260744 
L 143.485091 77.375513 
L 145.880727 71.158612 
L 148.010182 66.193612 
L 150.139636 61.756673 
L 152.269091 57.847871 
L 154.132364 54.860854 
L 155.995636 52.278123 
L 157.858909 50.099778 
L 159.456 48.55441 
L 161.053091 47.306147 
L 162.650182 46.354888 
L 163.981091 45.789106 
L 165.312 45.429566 
L 166.642909 45.276367 
L 167.973818 45.329435 
L 169.304727 45.588794 
L 170.635636 46.05447 
L 171.966545 46.726387 
L 173.563636 47.805058 
L 175.160727 49.180734 
L 175.426909 49.648054 
L 177.556364 56.010232 
L 179.685818 61.642665 
L 181.549091 65.972372 
L 183.412364 69.743472 
L 185.009455 72.531099 
L 186.606545 74.908286 
L 188.203636 76.874982 
L 189.534545 78.200331 
L 190.865455 79.240608 
L 192.196364 79.99589 
L 193.527273 80.4661 
L 194.592 80.636988 
L 195.656727 80.625528 
L 196.721455 80.431569 
L 198.052364 79.932632 
L 199.383273 79.148599 
L 200.714182 78.079496 
L 202.045091 76.725371 
L 203.376 75.0862 
L 204.973091 72.742897 
L 206.570182 69.989103 
L 208.167273 66.824894 
L 210.030545 62.614478 
L 211.893818 57.845355 
L 214.023273 51.710821 
L 216.152727 44.846518 
L 218.282182 37.252496 
L 220.677818 27.836954 
L 222.008727 22.207062 
L 222.274909 21.927273 
L 225.735273 33.804436 
L 228.929455 44.023793 
L 232.123636 53.528878 
L 235.317818 62.319565 
L 238.245818 69.750199 
L 241.173818 76.580543 
L 243.835636 82.269084 
L 246.497455 87.461528 
L 249.159273 92.157925 
L 251.554909 95.960567 
L 253.950545 99.361314 
L 256.346182 102.360265 
L 258.475636 104.688695 
L 260.605091 106.699664 
L 262.734545 108.393099 
L 264.597818 109.61443 
L 266.461091 110.59267 
L 268.324364 111.327846 
L 270.187636 111.819956 
L 272.050909 112.069001 
L 273.914182 112.07493 
L 275.777455 111.837795 
L 277.640727 111.357594 
L 279.504 110.634327 
L 281.367273 109.667971 
L 283.230545 108.458524 
L 285.093818 107.006037 
L 287.223273 105.048384 
L 289.352727 102.773272 
L 291.482182 100.180625 
L 293.877818 96.88442 
L 296.273455 93.186394 
L 298.669091 89.086572 
L 301.330909 84.059934 
L 302.928 80.805809 
L 303.194182 80.742003 
L 305.856 84.483853 
L 308.517818 88.595783 
L 311.445818 93.546457 
L 314.373818 98.945068 
L 317.301818 104.791591 
L 320.496 111.68041 
L 323.690182 119.102248 
L 327.150545 127.744147 
L 330.610909 137.011548 
L 334.071273 146.90465 
L 337.797818 158.258237 
L 341.524364 170.337481 
L 345.250909 183.14216 
L 349.243636 197.666558 
L 353.236364 213.023871 
L 357.495273 230.322991 
L 360.689455 243.919251 
L 361.488 241.136171 
L 364.416 230.87943 
L 367.077818 222.326214 
L 369.739636 214.507352 
L 372.135273 208.098161 
L 374.530909 202.283877 
L 376.926545 197.064401 
L 379.056 192.924144 
L 381.185455 189.253972 
L 383.314909 186.053712 
L 385.178182 183.639079 
L 387.041455 181.58426 
L 388.904727 179.889206 
L 390.501818 178.722711 
L 392.098909 177.820634 
L 393.696 177.182874 
L 395.293091 176.809506 
L 396.890182 176.700481 
L 398.487273 176.855822 
L 400.084364 177.275531 
L 401.681455 177.959632 
L 403.278545 178.908075 
L 404.875636 180.12086 
L 406.472727 181.598038 
L 408.336 183.655522 
L 410.199273 186.072846 
L 412.062545 188.849984 
L 414.192 192.464472 
L 416.321455 196.548946 
L 418.450909 201.103406 
L 420.846545 206.788932 
L 423.242182 213.069265 
L 425.637818 219.944493 
L 426.436364 222.368357 
L 426.436364 222.368357 
" clip-path="url(#pc508407e45)" style="fill: none; stroke-dasharray: 11.1,4.8; stroke-dashoffset: 0; stroke: #000000; stroke-width: 3"/>
   </g>
   <g id="line2d_2">
    <path d="M 27.163636 117.641066 
L 28.228364 119.859647 
L 29.293091 121.531556 
L 30.624 123.128472 
L 32.221091 125.050696 
L 33.019636 126.363987 
L 33.818182 128.134233 
L 34.616727 130.530828 
L 35.415273 133.716762 
L 36.213818 137.841423 
L 37.278545 144.882519 
L 37.544727 144.082391 
L 38.343273 139.471326 
L 39.141818 136.235164 
L 39.674182 134.729609 
L 40.206545 133.669076 
L 40.738909 132.990431 
L 41.271273 132.63271 
L 41.803636 132.53786 
L 42.336 132.651769 
L 43.134545 133.112363 
L 43.933091 133.697204 
L 46.594909 134.339847 
L 50.055273 135.439421 
L 56.443636 137.535623 
L 59.371636 138.201088 
L 60.436364 138.376535 
L 60.968727 138.987288 
L 61.234909 139.164455 
L 61.767273 138.733136 
L 62.299636 138.413683 
L 62.832 138.352842 
L 63.364364 138.484465 
L 64.162909 138.912769 
L 66.558545 140.428364 
L 67.357091 140.628178 
L 68.155636 140.54474 
L 68.954182 140.13856 
L 69.752727 139.379591 
L 70.551273 138.26305 
L 71.882182 135.931183 
L 72.680727 135.648952 
L 73.745455 135.026415 
L 78.004364 131.983589 
L 79.867636 130.730193 
L 80.932364 130.296956 
L 81.730909 130.218027 
L 82.529455 130.412135 
L 83.328 130.933046 
L 84.126545 131.838462 
L 84.925091 133.157408 
L 85.723636 134.910089 
L 86.788364 137.935126 
L 88.119273 142.425407 
L 89.184 138.688489 
L 90.248727 135.820338 
L 91.313455 133.673237 
L 92.378182 132.115461 
L 93.442909 131.033576 
L 93.709091 130.82716 
L 94.241455 129.141125 
L 94.773818 127.966558 
L 95.306182 127.180981 
L 95.838545 126.673274 
L 96.637091 126.273497 
L 97.435636 126.134076 
L 99.032727 126.166016 
L 101.162182 126.178648 
L 102.759273 125.931198 
L 103.824 125.717731 
L 104.090182 125.933116 
L 105.421091 128.008664 
L 106.752 129.701202 
L 108.349091 131.339376 
L 109.68 132.403372 
L 110.478545 132.857762 
L 114.205091 133.713349 
L 117.399273 134.533159 
L 118.464 135.05113 
L 119.262545 135.643894 
L 120.061091 136.487298 
L 120.859636 137.659747 
L 122.989091 141.304904 
L 124.053818 142.600306 
L 125.118545 143.57319 
L 126.183273 144.212644 
L 126.981818 144.472203 
L 129.111273 144.537354 
L 130.442182 144.380493 
L 131.773091 143.987144 
L 132.837818 143.459281 
L 133.902545 142.716457 
L 134.967273 141.738316 
L 136.564364 140.185125 
L 137.895273 140.240534 
L 142.952727 140.793112 
L 148.010182 140.284957 
L 150.672 139.794641 
L 152.269091 139.323733 
L 153.6 138.750501 
L 154.930909 137.920078 
L 155.995636 136.980604 
L 157.060364 135.692776 
L 157.858909 134.420645 
L 158.923636 132.490224 
L 159.722182 131.712121 
L 160.254545 131.430364 
L 160.786909 131.348943 
L 161.585455 131.50431 
L 162.650182 132.052552 
L 164.513455 133.402342 
L 166.376727 134.698939 
L 167.707636 135.388546 
L 169.038545 135.794303 
L 170.103273 135.880108 
L 171.168 135.725315 
L 172.232727 135.300548 
L 173.031273 134.782278 
L 174.096 133.784206 
L 174.894545 132.771757 
L 175.959273 131.001437 
L 177.024 128.897163 
L 178.354909 127.909081 
L 178.887273 127.493657 
L 179.952 127.174329 
L 183.146182 127.612773 
L 185.009455 127.646582 
L 186.606545 127.435233 
L 187.937455 127.03411 
L 189.268364 126.406117 
L 190.865455 125.384998 
L 193.527273 123.616222 
L 197.253818 123.345178 
L 199.383273 123.405371 
L 200.980364 123.689845 
L 202.045091 124.066202 
L 203.109818 124.664871 
L 204.174545 125.566724 
L 204.706909 126.097153 
L 205.771636 126.587644 
L 206.836364 127.371103 
L 207.901091 128.469556 
L 208.965818 129.891025 
L 214.821818 138.623986 
L 215.886545 139.839835 
L 216.685091 140.407935 
L 217.217455 140.558767 
L 217.749818 140.480336 
L 218.016 140.338 
L 218.282182 140.065211 
L 220.145455 132.460725 
L 220.944 130.483341 
L 221.476364 129.640311 
L 222.008727 129.172691 
L 222.541091 129.075002 
L 223.073455 129.33907 
L 223.605818 129.948951 
L 224.138182 130.887528 
L 224.936727 132.868176 
L 225.735273 135.460325 
L 226.8 139.691046 
L 227.066182 139.908948 
L 229.728 133.237657 
L 231.058909 130.445521 
L 232.123636 128.597168 
L 233.188364 127.140196 
L 234.253091 126.114493 
L 235.051636 125.658634 
L 235.850182 125.50678 
L 236.382545 125.596148 
L 236.914909 125.848781 
L 237.447273 126.290713 
L 237.979636 126.938489 
L 239.044364 128.67363 
L 240.375273 127.72738 
L 241.44 127.306425 
L 242.504727 127.132772 
L 247.562182 126.726566 
L 248.626909 126.31341 
L 249.691636 125.628861 
L 250.490182 124.880954 
L 251.288727 123.884177 
L 251.821091 123.177928 
L 253.152 123.607851 
L 256.878545 124.535291 
L 257.943273 125.170709 
L 258.741818 125.88695 
L 259.540364 126.86083 
L 260.072727 127.677949 
L 260.871273 129.68715 
L 261.936 132.996934 
L 262.734545 135.690235 
L 263.000727 135.634078 
L 263.799273 134.973098 
L 264.597818 134.607902 
L 265.662545 134.443766 
L 266.727273 134.530443 
L 268.058182 134.865168 
L 269.921455 135.603857 
L 272.849455 137.085544 
L 274.446545 137.798745 
L 275.511273 138.019287 
L 276.043636 137.976011 
L 276.309818 137.255311 
L 277.374545 133.318355 
L 277.906909 132.047768 
L 278.439273 131.24211 
L 278.971636 130.825192 
L 279.504 130.73104 
L 280.036364 130.907484 
L 280.568727 131.301506 
L 281.367273 132.204206 
L 282.432 133.810391 
L 284.561455 137.6006 
L 286.690909 141.270074 
L 288.288 143.583679 
L 288.820364 144.203251 
L 289.352727 144.294538 
L 290.949818 143.479587 
L 292.546909 142.929251 
L 297.338182 141.682881 
L 299.467636 140.756936 
L 301.597091 139.589321 
L 303.992727 138.01129 
L 306.920727 135.798364 
L 309.848727 133.479427 
L 310.114909 132.975308 
L 310.913455 131.010206 
L 311.445818 130.164535 
L 311.978182 129.693927 
L 312.510545 129.603662 
L 313.042909 129.871442 
L 313.575273 130.470933 
L 314.373818 131.933984 
L 315.172364 133.971687 
L 316.237091 137.346946 
L 316.769455 139.244953 
L 317.301818 139.981349 
L 318.100364 140.652968 
L 319.165091 141.202979 
L 320.496 141.535936 
L 322.093091 141.65139 
L 324.754909 141.55375 
L 330.344727 141.066224 
L 332.474182 140.617066 
L 334.603636 139.917942 
L 338.064 138.658741 
L 338.862545 138.574007 
L 339.661091 138.716194 
L 340.193455 138.990353 
L 340.725818 139.46445 
L 341.258182 140.184626 
L 341.790545 141.215736 
L 342.322909 142.365712 
L 342.855273 139.228983 
L 343.653818 134.708805 
L 344.186182 132.657699 
L 344.718545 131.30629 
L 345.250909 130.480376 
L 345.783273 130.050676 
L 346.315636 129.909586 
L 347.114182 130.059098 
L 348.178909 130.603154 
L 350.308364 131.748695 
L 351.373091 132.045626 
L 352.437818 132.075996 
L 353.502545 131.821695 
L 354.567273 131.282397 
L 355.632 130.444449 
L 356.696727 129.29973 
L 357.761455 127.819065 
L 358.027636 127.383087 
L 358.293818 127.175126 
L 359.890909 129.349459 
L 360.955636 129.525679 
L 362.020364 129.926976 
L 363.351273 130.704008 
L 364.948364 131.967843 
L 366.811636 133.755105 
L 371.869091 138.75242 
L 373.466182 139.899082 
L 374.797091 140.550943 
L 375.861818 140.835516 
L 376.660364 140.896009 
L 377.192727 140.758705 
L 377.725091 140.405244 
L 378.257455 139.847634 
L 379.056 138.63719 
L 379.588364 137.593425 
L 380.120727 135.269331 
L 380.919273 131.875834 
L 381.717818 129.306856 
L 382.516364 127.409322 
L 383.314909 126.054674 
L 384.113455 125.128205 
L 384.912 124.53285 
L 385.710545 124.188084 
L 386.775273 123.998809 
L 388.106182 124.023001 
L 395.559273 124.603158 
L 397.422545 124.350601 
L 398.753455 124.178143 
L 400.084364 124.187984 
L 401.415273 124.415129 
L 402.48 124.8022 
L 403.544727 125.43555 
L 404.609455 126.395553 
L 405.408 127.384657 
L 406.206545 128.65756 
L 407.271273 130.873376 
L 408.336 133.774738 
L 409.400727 137.431157 
L 409.666909 138.465704 
L 409.933091 139.011779 
L 410.731636 139.199858 
L 411.530182 139.591962 
L 412.594909 140.421314 
L 413.659636 141.589726 
L 414.724364 143.080432 
L 415.256727 143.871391 
L 415.789091 144.218275 
L 416.587636 144.369954 
L 417.386182 144.217777 
L 418.184727 143.722901 
L 418.983273 142.859516 
L 419.781818 141.62954 
L 420.846545 139.477231 
L 422.177455 136.188051 
L 424.306909 130.833762 
L 425.105455 129.339793 
L 425.637818 128.669544 
L 426.170182 128.338157 
L 426.436364 128.32286 
L 426.436364 128.32286 
" clip-path="url(#pc508407e45)" style="fill: none; stroke-dasharray: 3,4.95; stroke-dashoffset: 0; stroke: #ff0000; stroke-width: 3"/>
   </g>
   <g id="line2d_3">
    <path d="M 27.163636 103.039284 
L 28.494545 107.976579 
L 29.825455 112.0328 
L 33.552 122.501924 
L 34.616727 126.717273 
L 35.681455 132.17102 
L 36.746182 139.214583 
L 37.278545 143.284033 
L 37.544727 142.646024 
L 38.343273 138.465056 
L 39.141818 135.574807 
L 39.674182 134.254067 
L 40.206545 133.348626 
L 40.738909 132.788176 
L 41.271273 132.523036 
L 41.803636 132.489651 
L 42.336 132.659343 
L 43.134545 133.293092 
L 44.465455 134.508219 
L 45.796364 135.411443 
L 46.594909 135.686149 
L 47.127273 135.676482 
L 47.659636 135.463863 
L 48.192 134.990961 
L 48.724364 134.210317 
L 49.256727 133.063107 
L 49.789091 131.494369 
L 50.587636 128.19916 
L 51.386182 123.594123 
L 51.652364 121.717966 
L 51.918545 121.436956 
L 52.983273 128.831613 
L 54.048 134.473588 
L 54.846545 137.609769 
L 55.645091 139.901972 
L 56.443636 141.464182 
L 57.242182 142.439857 
L 58.040727 142.991886 
L 59.105455 143.360695 
L 60.436364 143.805866 
L 61.234909 145.015911 
L 61.501091 145.049819 
L 61.767273 144.76567 
L 62.299636 143.720908 
L 62.832 143.074378 
L 63.364364 142.741297 
L 63.896727 142.659602 
L 64.429091 142.761353 
L 65.227636 143.150691 
L 66.824727 144.098312 
L 67.889455 144.341527 
L 68.688 144.330315 
L 69.486545 144.094575 
L 70.285091 143.60234 
L 71.083636 142.840805 
L 71.616 142.1872 
L 71.882182 142.119507 
L 72.946909 142.682897 
L 74.810182 143.335481 
L 76.407273 143.927623 
L 76.673455 143.350081 
L 77.205818 140.619907 
L 78.004364 136.104712 
L 78.802909 132.620452 
L 79.601455 129.987643 
L 80.4 128.0709 
L 81.198545 126.780133 
L 81.730909 126.238991 
L 82.263273 125.940566 
L 82.795636 125.873122 
L 83.328 126.031628 
L 83.860364 126.418375 
L 84.392727 127.027981 
L 85.191273 128.34618 
L 85.989818 130.134464 
L 87.054545 133.214288 
L 88.119273 136.664714 
L 89.184 132.700776 
L 90.248727 129.530064 
L 91.313455 126.984431 
L 92.378182 124.913742 
L 93.709091 122.791305 
L 94.773818 118.228225 
L 95.306182 116.338489 
L 95.838545 115.141026 
L 96.370909 114.53847 
L 96.903273 114.439062 
L 97.435636 114.781486 
L 97.968 115.484273 
L 98.766545 117.056922 
L 100.097455 120.36414 
L 101.694545 124.192518 
L 102.493091 125.561492 
L 103.025455 126.146658 
L 103.557818 126.407886 
L 104.090182 126.742512 
L 104.622545 127.362782 
L 105.154909 127.525672 
L 105.687273 127.211028 
L 105.953455 127.022899 
L 106.219636 127.707299 
L 107.018182 130.494577 
L 107.816727 132.563996 
L 108.615273 134.032005 
L 109.413818 135.000105 
L 110.212364 135.565962 
L 110.744727 135.562349 
L 111.543273 135.140274 
L 112.341818 134.442595 
L 113.672727 132.907541 
L 117.665455 127.948969 
L 118.464 127.290679 
L 119.262545 126.897878 
L 119.794909 126.824704 
L 120.061091 126.854826 
L 120.593455 127.532001 
L 121.392 129.05821 
L 122.190545 130.691476 
L 123.787636 133.397035 
L 125.118545 135.238935 
L 126.183273 136.343741 
L 126.981818 136.892731 
L 128.046545 137.077546 
L 129.111273 137.024628 
L 129.909818 136.889641 
L 130.708364 136.552748 
L 131.506909 135.976876 
L 132.305455 135.131853 
L 133.104 133.992964 
L 134.168727 131.98466 
L 134.967273 130.093355 
L 135.233455 129.90834 
L 136.032 131.445063 
L 136.564364 132.744102 
L 138.427636 137.854154 
L 139.758545 140.968186 
L 141.089455 143.542371 
L 142.154182 145.170953 
L 143.218909 146.396918 
L 143.751273 146.777985 
L 146.146909 147.117942 
L 153.6 147.772146 
L 154.930909 147.604646 
L 155.995636 147.195102 
L 156.794182 146.637069 
L 157.592727 145.786714 
L 158.391273 144.543084 
L 158.923636 143.761967 
L 159.722182 143.041067 
L 161.851636 141.537132 
L 162.650182 140.647836 
L 163.448727 140.170176 
L 164.247273 139.988475 
L 165.045818 140.19656 
L 166.376727 140.84461 
L 168.506182 141.906812 
L 169.570909 142.179476 
L 170.369455 142.188047 
L 171.168 141.988631 
L 171.966545 141.54346 
L 172.765091 140.814862 
L 173.563636 139.760956 
L 174.096 138.966235 
L 174.894545 138.189851 
L 175.693091 137.085419 
L 176.491636 135.605626 
L 177.024 134.612187 
L 178.088727 133.658986 
L 179.419636 132.317417 
L 179.952 131.937846 
L 181.016727 131.383026 
L 182.081455 130.560152 
L 183.146182 129.418871 
L 184.743273 127.417145 
L 185.541818 127.748133 
L 187.937455 128.281128 
L 188.736 128.177036 
L 189.534545 127.863761 
L 190.599273 127.148493 
L 191.930182 125.898236 
L 193.527273 124.232182 
L 194.858182 123.822987 
L 196.189091 123.154483 
L 197.52 122.228563 
L 199.117091 120.812899 
L 199.915636 120.123168 
L 203.109818 117.820649 
L 204.174545 117.360978 
L 204.706909 117.191834 
L 205.771636 116.270697 
L 206.836364 115.664379 
L 207.634909 115.458362 
L 208.167273 115.493067 
L 208.965818 116.149837 
L 209.764364 117.084203 
L 210.030545 117.449524 
L 210.296727 117.625021 
L 210.829091 117.752832 
L 211.361455 118.144961 
L 212.16 119.08735 
L 213.490909 121.183576 
L 215.354182 124.1615 
L 216.152727 125.111313 
L 216.951273 125.68462 
L 217.483636 125.786146 
L 217.749818 125.711303 
L 218.282182 125.135655 
L 220.411636 115.892147 
L 221.210182 113.750377 
L 222.008727 112.359428 
L 222.541091 111.830544 
L 222.807273 111.679588 
L 223.073455 112.058113 
L 223.605818 115.240435 
L 225.202909 127.547622 
L 227.066182 143.141896 
L 227.598545 144.660855 
L 228.130909 145.50239 
L 228.663273 145.807567 
L 229.195636 145.685337 
L 229.728 145.232517 
L 230.526545 144.102024 
L 231.591273 142.060709 
L 234.253091 136.596722 
L 235.584 134.238221 
L 236.116364 133.595628 
L 236.914909 133.938974 
L 237.713455 134.633589 
L 238.512 135.764306 
L 239.044364 136.525342 
L 240.907636 134.809086 
L 242.504727 133.775261 
L 244.101818 132.855619 
L 247.296 128.88204 
L 249.159273 126.337602 
L 249.425455 126.281794 
L 250.224 127.324389 
L 250.756364 127.728526 
L 251.288727 127.882348 
L 251.821091 127.89336 
L 252.619636 129.019119 
L 253.418182 129.789747 
L 254.216727 130.269475 
L 255.281455 130.582226 
L 258.475636 131.159419 
L 259.008 131.392344 
L 259.540364 131.781757 
L 260.072727 132.356683 
L 260.605091 132.164841 
L 261.137455 131.796407 
L 261.669818 131.228283 
L 262.468364 129.970103 
L 262.734545 129.236547 
L 263.533091 123.545117 
L 264.065455 119.329443 
L 265.396364 125.503417 
L 266.194909 128.007293 
L 266.993455 129.774101 
L 267.792 131.011502 
L 268.590545 131.898705 
L 269.921455 132.99083 
L 272.849455 135.280044 
L 274.446545 136.537127 
L 275.245091 136.958854 
L 275.777455 137.090277 
L 276.043636 137.089829 
L 276.309818 136.422246 
L 277.108364 133.783358 
L 277.640727 132.82622 
L 277.906909 132.591526 
L 278.173091 132.506668 
L 278.439273 132.563248 
L 278.971636 133.079401 
L 279.504 134.101416 
L 280.036364 135.606448 
L 281.101091 139.55018 
L 281.367273 139.254321 
L 282.165818 136.953896 
L 282.964364 135.312383 
L 283.762909 134.252223 
L 284.295273 133.830222 
L 284.827636 133.610751 
L 285.36 133.56583 
L 286.158545 133.775834 
L 286.957091 134.239567 
L 288.288 135.309044 
L 288.820364 135.713206 
L 289.352727 135.613897 
L 292.813091 132.346966 
L 293.345455 131.610894 
L 294.144 129.518479 
L 295.474909 132.991752 
L 296.539636 135.286571 
L 297.604364 137.075678 
L 298.669091 138.363605 
L 299.467636 139.026454 
L 300.266182 139.454459 
L 301.064727 139.673507 
L 301.863273 139.706194 
L 302.928 139.49933 
L 303.992727 139.039957 
L 305.323636 138.159456 
L 306.654545 136.978138 
L 309.316364 134.394236 
L 309.848727 133.770079 
L 310.114909 133.019133 
L 311.712 126.530191 
L 312.776727 123.02129 
L 313.309091 121.583428 
L 313.575273 121.607745 
L 314.373818 123.784594 
L 315.438545 127.545853 
L 317.035636 133.739808 
L 317.834182 135.406335 
L 318.898909 137.475978 
L 320.229818 139.586456 
L 322.093091 142.083929 
L 326.884364 148.050116 
L 328.215273 148.856647 
L 331.941818 151.448621 
L 333.006545 151.854253 
L 333.805091 151.986997 
L 334.869818 149.82542 
L 336.733091 146.202561 
L 337.797818 144.495323 
L 338.596364 143.504302 
L 339.394909 142.83505 
L 339.927273 142.636357 
L 340.459636 142.674277 
L 340.992 142.995898 
L 341.524364 143.654785 
L 342.322909 145.143722 
L 342.855273 141.908457 
L 343.653818 137.283364 
L 344.186182 135.138081 
L 344.718545 133.672115 
L 345.250909 132.720658 
L 345.783273 132.162998 
L 346.315636 131.901047 
L 346.848 131.86816 
L 347.646545 132.116159 
L 348.445091 132.614074 
L 349.509818 133.55589 
L 350.574545 134.778342 
L 351.639273 136.312573 
L 352.704 138.189926 
L 352.970182 137.913401 
L 354.301091 135.213323 
L 356.962909 129.096877 
L 358.027636 126.747569 
L 358.293818 126.437659 
L 359.092364 127.479606 
L 360.423273 129.400783 
L 360.955636 130.152477 
L 361.754182 131.782654 
L 362.552727 134.056595 
L 363.351273 137.020343 
L 364.149818 140.212481 
L 365.214545 142.951625 
L 366.279273 145.08739 
L 367.344 146.700526 
L 368.408727 147.875142 
L 369.473455 148.694827 
L 370.538182 149.244988 
L 371.869091 149.650545 
L 373.466182 149.860225 
L 375.329455 149.865059 
L 376.394182 149.788522 
L 376.660364 149.537185 
L 377.725091 147.059867 
L 379.056 143.232934 
L 379.588364 141.799979 
L 379.854545 141.359915 
L 380.919273 138.512195 
L 381.984 136.285989 
L 383.048727 134.571004 
L 384.113455 133.244409 
L 385.444364 131.931343 
L 387.573818 129.970676 
L 390.501818 126.011173 
L 392.365091 123.026298 
L 393.962182 120.040526 
L 396.357818 115.441868 
L 398.487273 114.924918 
L 400.616727 114.297025 
L 401.415273 114.280905 
L 402.213818 114.515748 
L 402.746182 114.86343 
L 403.278545 115.404123 
L 403.810909 116.179485 
L 404.609455 117.872671 
L 405.408 120.338852 
L 406.206545 123.762196 
L 407.005091 128.327967 
L 407.803636 134.246244 
L 408.069818 136.563686 
L 408.336 137.624518 
L 408.868364 136.940691 
L 409.134545 136.868414 
L 409.400727 136.970439 
L 409.933091 137.460207 
L 410.731636 137.323526 
L 411.530182 137.429438 
L 412.328727 137.790822 
L 413.127273 138.436704 
L 413.925818 139.377473 
L 414.724364 140.626036 
L 415.522909 141.898815 
L 416.853818 142.882686 
L 417.652364 143.257948 
L 418.450909 143.413787 
L 419.249455 143.313756 
L 420.048 142.941111 
L 420.846545 142.301183 
L 421.911273 141.076289 
L 423.508364 138.731193 
L 425.105455 136.473421 
L 425.904 135.719036 
L 426.436364 135.460997 
L 426.436364 135.460997 
" clip-path="url(#pc508407e45)" style="fill: none; stroke: #ff0000; stroke-width: 3; stroke-linecap: square"/>
   </g>
   <g id="patch_3">
    <path d="M 7.2 331.2 
L 7.2 7.2 
" style="fill: none; stroke: #000000; stroke-width: 0.8; stroke-linejoin: miter; stroke-linecap: square"/>
   </g>
   <g id="patch_4">
    <path d="M 446.4 331.2 
L 446.4 7.2 
" style="fill: none; stroke: #000000; stroke-width: 0.8; stroke-linejoin: miter; stroke-linecap: square"/>
   </g>
   <g id="patch_5">
    <path d="M 7.2 331.2 
L 446.4 331.2 
" style="fill: none; stroke: #000000; stroke-width: 0.8; stroke-linejoin: miter; stroke-linecap: square"/>
   </g>
   <g id="patch_6">
    <path d="M 7.2 7.2 
L 446.4 7.2 
" style="fill: none; stroke: #000000; stroke-width: 0.8; stroke-linejoin: miter; stroke-linecap: square"/>
   </g>
  </g>
 </g>
 <defs>
  <clipPath id="pc508407e45">
   <rect x="7.2" y="7.2" width="439.2" height="324"/>
  </clipPath>
 </defs>
</svg>
