<?xml version="1.0" encoding="utf-8" standalone="no"?>
<!DOCTYPE svg PUBLIC "-//W3C//DTD SVG 1.1//EN"
  "http://www.w3.org/Graphics/SVG/1.1/DTD/svg11.dtd">
<svg xmlns:xlink="http://www.w3.org/1999/xlink" width="453.6pt" height="338.4pt" viewBox="0 0 453.6 338.4" xmlns="http://www.w3.org/2000/svg" version="1.1">
 <metadata>
  <rdf:RDF xmlns:dc="http://purl.org/dc/elements/1.1/" xmlns:cc="http://creativecommons.org/ns#" xmlns:rdf="http://www.w3.org/1999/02/22-rdf-syntax-ns#">
   <cc:Work>
    <dc:type rdf:resource="http://purl.org/dc/dcmitype/StillImage"/>
    <dc:date>2025-05-14T08:49:10.933103</dc:date>
    <dc:format>image/svg+xml</dc:format>
    <dc:creator>
     <cc:Agent>
      <dc:title>Matplotlib v3.10.1, https://matplotlib.org/</dc:title>
     </cc:Agent>
    </dc:creator>
   </cc:Work>
  </rdf:RDF>
 </metadata>
 <defs>
  <style type="text/css">*{stroke-linejoin: round; stroke-linecap: butt}</style>
 </defs>
 <g id="figure_1">
  <g id="patch_1">
   <path d="M 0 338.4 
L 453.6 338.4 
L 453.6 0 
L 0 0 
z
" style="fill: #ffffff"/>
  </g>
  <g id="axes_1">
   <g id="patch_2">
    <path d="M 7.2 331.2 
L 446.4 331.2 
L 446.4 7.2 
L 7.2 7.2 
z
" style="fill: #ffffff"/>
   </g>
   <g id="matplotlib.axis_1"/>
   <g id="matplotlib.axis_2"/>
   <g id="line2d_1">
    <path d="M 27.163636 230.489513 
L 68.421818 316.472727 
L 194.059636 288.311265 
L 298.402909 112.698598 
L 298.669091 112.724822 
L 378.257455 254.629687 
L 426.436364 21.927273 
L 426.436364 21.927273 
" clip-path="url(#pf2233e72ea)" style="fill: none; stroke-dasharray: 11.1,4.8; stroke-dashoffset: 0; stroke: #000000; stroke-width: 3"/>
   </g>
   <g id="line2d_2">
    <path d="M 27.163636 226.887105 
L 28.228364 228.145507 
L 29.293091 229.090259 
L 30.357818 229.775803 
L 31.422545 230.242204 
L 32.753455 230.563616 
L 34.084364 230.634783 
L 35.415273 230.482772 
L 36.746182 230.12321 
L 38.077091 229.564065 
L 39.674182 228.633255 
L 41.271273 227.426077 
L 42.336 226.56863 
L 43.400727 226.567864 
L 44.465455 226.805699 
L 46.062545 227.464252 
L 47.925818 228.249716 
L 48.990545 228.452951 
L 49.789091 228.374507 
L 50.587636 228.022784 
L 51.386182 227.325673 
L 52.184727 226.207434 
L 52.450909 225.830023 
L 53.515636 227.184846 
L 54.580364 228.117597 
L 55.645091 228.739763 
L 57.242182 229.349748 
L 59.105455 230.07002 
L 60.170182 230.727169 
L 60.436364 230.938933 
L 62.033455 231.143777 
L 63.364364 231.510386 
L 65.227636 232.151448 
L 68.954182 232.313954 
L 70.817455 232.148664 
L 72.414545 231.75223 
L 74.011636 231.076338 
L 75.608727 230.142208 
L 77.205818 228.989548 
L 79.335273 226.47775 
L 80.666182 224.967571 
L 82.795636 225.531465 
L 90.781091 227.352587 
L 92.112 227.944749 
L 93.176727 228.607541 
L 93.975273 229.132111 
L 95.572364 229.876897 
L 96.903273 230.703038 
L 98.234182 231.766708 
L 99.565091 233.121914 
L 100.363636 234.004463 
L 100.629818 234.034492 
L 102.493091 233.117496 
L 107.284364 230.60317 
L 108.615273 230.23748 
L 109.68 230.180051 
L 110.478545 230.329126 
L 111.277091 230.848385 
L 112.075636 231.735045 
L 112.874182 232.993344 
L 113.406545 234.038552 
L 113.672727 233.846834 
L 114.737455 232.580491 
L 116.068364 231.379875 
L 117.399273 230.483129 
L 118.996364 229.670164 
L 121.658182 228.615687 
L 123.787636 227.712429 
L 124.852364 227.116973 
L 125.118545 227.272636 
L 126.449455 229.244875 
L 127.248 230.109472 
L 128.312727 230.825173 
L 129.377455 231.315731 
L 130.442182 231.587732 
L 131.506909 231.647561 
L 132.571636 231.498512 
L 133.636364 231.141376 
L 134.701091 230.575133 
L 135.765818 229.799628 
L 136.830545 228.809423 
L 137.096727 228.856305 
L 138.161455 230.023521 
L 139.226182 230.920982 
L 140.290909 231.559924 
L 141.355636 231.956154 
L 142.420364 232.125172 
L 143.751273 232.064424 
L 146.945455 231.941523 
L 149.341091 231.650983 
L 151.470545 231.187237 
L 154.398545 230.368476 
L 156.261818 230.77732 
L 158.391273 231.012423 
L 165.312 231.527341 
L 167.175273 232.009574 
L 168.772364 232.659956 
L 169.304727 232.919139 
L 170.635636 232.790135 
L 171.966545 232.432361 
L 173.297455 231.854524 
L 174.894545 230.893582 
L 177.290182 229.313616 
L 179.419636 228.695765 
L 182.88 227.661512 
L 185.275636 227.155123 
L 186.872727 226.813283 
L 188.736 226.673529 
L 191.930182 226.731034 
L 195.124364 226.695412 
L 197.786182 226.441566 
L 199.383273 226.245916 
L 201.512727 226.937384 
L 203.908364 227.96962 
L 207.368727 229.523541 
L 208.433455 229.762959 
L 209.232 229.740539 
L 210.030545 229.453472 
L 210.829091 228.90758 
L 211.893818 228.033918 
L 214.289455 228.606903 
L 216.418909 229.033903 
L 218.016 229.118603 
L 219.346909 228.986995 
L 220.944 228.592731 
L 223.073455 227.780302 
L 224.936727 227.002575 
L 233.986909 227.808774 
L 236.648727 227.694759 
L 239.842909 227.315893 
L 244.900364 226.464421 
L 248.360727 225.734215 
L 255.813818 228.091627 
L 258.475636 228.592986 
L 263.799273 229.254246 
L 265.130182 229.071695 
L 266.194909 228.729983 
L 267.259636 228.176966 
L 268.590545 227.37562 
L 270.187636 227.745727 
L 272.317091 227.991274 
L 276.043636 228.373792 
L 277.374545 228.549831 
L 281.101091 228.883245 
L 283.496727 229.307972 
L 285.36 229.876872 
L 286.690909 230.500748 
L 287.755636 231.168035 
L 288.021818 231.142015 
L 289.618909 230.072676 
L 290.683636 229.577037 
L 291.748364 229.300976 
L 292.813091 229.264588 
L 295.741091 229.692533 
L 301.863273 230.685496 
L 303.194182 230.707609 
L 304.258909 230.311175 
L 308.251636 228.742827 
L 309.582545 228.49442 
L 312.244364 228.511299 
L 314.64 228.667472 
L 316.503273 229.004435 
L 318.100364 229.51634 
L 319.697455 230.265773 
L 321.560727 231.279905 
L 322.359273 230.980045 
L 323.956364 230.46431 
L 325.819636 230.116264 
L 327.150545 229.872607 
L 328.481455 229.642586 
L 330.344727 229.564218 
L 334.603636 229.486413 
L 336.200727 229.225519 
L 337.797818 228.730417 
L 338.330182 228.502796 
L 340.459636 229.990478 
L 341.790545 230.536421 
L 343.121455 230.817385 
L 344.452364 230.867204 
L 346.049455 230.692212 
L 348.711273 230.147417 
L 354.833455 228.619619 
L 359.890909 227.274092 
L 363.085091 227.472424 
L 367.077818 227.495788 
L 370.804364 227.310684 
L 373.732364 226.947624 
L 376.128 226.423768 
L 380.386909 225.124051 
L 382.516364 227.071342 
L 383.581091 227.595452 
L 384.645818 227.861734 
L 385.976727 227.936833 
L 388.106182 227.770037 
L 391.300364 227.543948 
L 394.494545 227.566215 
L 396.890182 227.834743 
L 399.552 228.37254 
L 404.609455 229.476071 
L 414.192 231.34959 
L 416.853818 231.435644 
L 419.781818 231.315169 
L 422.443636 230.987373 
L 424.306909 230.563029 
L 425.904 229.988461 
L 426.436364 229.737526 
L 426.436364 229.737526 
" clip-path="url(#pf2233e72ea)" style="fill: none; stroke-dasharray: 3,4.95; stroke-dashoffset: 0; stroke: #0000ff; stroke-width: 3"/>
   </g>
   <g id="line2d_3">
    <path d="M 27.163636 225.894066 
L 27.962182 217.192094 
L 28.494545 213.271798 
L 29.026909 210.654718 
L 29.559273 209.17222 
L 29.825455 208.814752 
L 30.091636 208.668129 
L 30.357818 208.752165 
L 30.624 209.013161 
L 31.156364 210.058164 
L 31.688727 211.680647 
L 32.487273 214.95577 
L 33.552 220.364004 
L 37.278545 240.51486 
L 38.343273 245.013376 
L 39.408 248.567305 
L 40.206545 250.578651 
L 41.005091 252.028797 
L 41.803636 252.9265 
L 42.336 253.370941 
L 42.602182 253.724144 
L 43.400727 253.904525 
L 43.666909 253.962464 
L 43.933091 253.074681 
L 44.997818 246.650324 
L 46.062545 241.371733 
L 47.127273 237.031472 
L 48.192 233.466869 
L 49.256727 230.568749 
L 50.321455 228.264807 
L 51.386182 226.510129 
L 52.184727 225.529678 
L 52.450909 225.335125 
L 53.249455 226.623301 
L 54.048 228.414137 
L 54.846545 230.783679 
L 56.443636 237.122097 
L 57.242182 239.389842 
L 58.040727 240.927012 
L 58.573091 241.495017 
L 59.105455 241.666908 
L 59.371636 241.587429 
L 59.904 240.911039 
L 60.702545 239.83856 
L 62.033455 238.659509 
L 64.961455 236.361466 
L 66.292364 234.661178 
L 67.357091 232.965434 
L 68.421818 230.880457 
L 69.486545 228.309392 
L 70.551273 225.139168 
L 71.616 221.249208 
L 72.946909 215.566215 
L 73.213091 215.869523 
L 74.810182 223.45872 
L 76.407273 229.887086 
L 77.205818 233.207866 
L 78.536727 241.487625 
L 80.133818 249.746509 
L 81.198545 254.961492 
L 81.997091 255.500885 
L 82.529455 256.076705 
L 83.061818 256.895211 
L 83.594182 258.002533 
L 84.392727 260.28085 
L 85.191273 263.3694 
L 85.457455 264.577586 
L 86.522182 253.206877 
L 87.320727 246.897454 
L 88.119273 242.094738 
L 88.917818 238.519014 
L 89.716364 235.849791 
L 90.514909 233.838075 
L 91.579636 231.793827 
L 93.442909 228.958548 
L 93.709091 228.570821 
L 94.507636 230.138021 
L 95.838545 233.383931 
L 97.701818 238.672519 
L 98.500364 241.113904 
L 100.896 253.333149 
L 102.759273 260.429657 
L 103.824 263.953467 
L 104.090182 264.151557 
L 104.356364 264.021608 
L 105.421091 261.86443 
L 106.485818 260.212684 
L 107.550545 258.987772 
L 108.615273 258.123736 
L 109.68 257.583104 
L 110.212364 257.426599 
L 110.744727 257.635796 
L 113.406545 259.072076 
L 113.938909 258.245105 
L 115.536 255.272728 
L 116.068364 252.870757 
L 117.931636 243.194872 
L 122.456727 220.986782 
L 124.053818 211.482392 
L 125.650909 201.767387 
L 126.981818 194.231532 
L 127.780364 185.365293 
L 128.578909 191.368778 
L 129.377455 196.050458 
L 130.176 199.725079 
L 131.240727 203.529369 
L 132.305455 206.475291 
L 133.636364 209.437735 
L 135.499636 212.957026 
L 136.830545 215.362699 
L 137.362909 216.966899 
L 142.154182 233.050364 
L 142.952727 233.966977 
L 143.751273 234.680303 
L 146.413091 238.935583 
L 147.211636 240.961689 
L 148.010182 243.587221 
L 148.808727 246.870834 
L 149.873455 252.333317 
L 150.938182 259.047397 
L 151.470545 262.162745 
L 151.736727 262.643357 
L 154.664727 259.608852 
L 156.794182 258.274956 
L 157.326545 257.425616 
L 159.988364 249.773602 
L 161.053091 246.321686 
L 162.916364 240.211847 
L 163.981091 237.425136 
L 164.779636 235.798734 
L 165.578182 234.583282 
L 166.376727 233.745203 
L 167.175273 233.238201 
L 167.973818 233.02248 
L 168.772364 233.02225 
L 169.570909 233.062519 
L 171.434182 232.67709 
L 172.498909 232.255657 
L 173.563636 231.635815 
L 176.757818 229.631427 
L 177.024 230.48987 
L 177.556364 235.125536 
L 178.088727 241.741483 
L 178.621091 248.765905 
L 179.419636 253.78908 
L 179.952 257.359824 
L 180.484364 259.328322 
L 180.750545 259.85205 
L 181.016727 260.110466 
L 181.282909 260.084918 
L 181.549091 259.82691 
L 182.081455 258.63702 
L 182.613818 256.675353 
L 183.412364 252.578991 
L 184.477091 245.595464 
L 187.138909 226.575626 
L 187.937455 222.286781 
L 189.002182 217.233972 
L 190.066909 210.425438 
L 190.333091 210.810356 
L 191.131636 223.983648 
L 191.930182 234.049073 
L 192.728727 241.211691 
L 193.261091 244.475974 
L 193.793455 246.402837 
L 194.325818 247.226527 
L 194.592 247.357931 
L 194.858182 247.32614 
L 195.124364 247.140422 
L 195.656727 246.3474 
L 196.189091 245.107894 
L 196.987636 242.588053 
L 198.318545 237.801972 
L 198.850909 236.539804 
L 199.649455 233.654604 
L 200.448 229.679816 
L 201.512727 222.770163 
L 202.577455 214.224211 
L 203.908364 201.427181 
L 204.973091 190.445373 
L 206.304 187.102454 
L 207.368727 184.942174 
L 208.167273 183.682777 
L 208.965818 182.766317 
L 209.232 182.575544 
L 209.764364 182.576846 
L 210.296727 182.830564 
L 211.627636 183.954523 
L 212.426182 185.352576 
L 214.023273 188.172329 
L 215.088 189.631923 
L 215.886545 190.393562 
L 216.685091 190.831747 
L 217.483636 190.93828 
L 218.548364 190.682161 
L 218.814545 191.188193 
L 220.677818 198.656277 
L 221.742545 202.139282 
L 222.807273 204.934751 
L 223.872 207.034027 
L 224.670545 208.181274 
L 226.267636 209.905234 
L 226.8 210.205579 
L 227.598545 211.782405 
L 228.130909 212.560949 
L 228.929455 213.411016 
L 229.461818 214.428621 
L 230.260364 216.535762 
L 231.591273 220.977819 
L 233.720727 228.215524 
L 234.519273 230.350984 
L 235.317818 231.92804 
L 235.850182 232.612767 
L 236.382545 232.972329 
L 236.914909 232.983922 
L 237.447273 232.626377 
L 237.979636 231.88509 
L 238.512 230.773184 
L 239.310545 228.426292 
L 240.109091 225.288421 
L 241.173818 220.079209 
L 242.770909 210.728515 
L 243.037091 209.06081 
L 243.303273 208.262936 
L 243.569455 208.028982 
L 244.368 206.161004 
L 245.166545 203.519742 
L 245.432727 202.447109 
L 245.698909 202.493889 
L 246.763636 213.535296 
L 247.562182 219.687218 
L 248.360727 224.342239 
L 249.159273 227.981851 
L 249.957818 230.605034 
L 250.756364 232.412137 
L 251.554909 233.564644 
L 252.087273 234.0289 
L 252.619636 234.278009 
L 253.152 234.319554 
L 253.684364 234.165258 
L 254.216727 233.790196 
L 254.749091 233.185752 
L 255.281455 232.320772 
L 255.813818 231.151846 
L 256.346182 226.457296 
L 257.144727 216.485483 
L 257.943273 204.38559 
L 258.209455 205.220413 
L 259.008 210.898325 
L 259.806545 214.794975 
L 260.338909 216.992077 
L 260.871273 218.983569 
L 261.403636 220.374524 
L 261.936 221.271832 
L 262.468364 221.771735 
L 263.000727 221.955768 
L 263.533091 221.897292 
L 264.331636 221.48426 
L 265.662545 220.369877 
L 266.993455 219.303628 
L 267.792 218.929179 
L 268.324364 218.855689 
L 268.856727 219.349183 
L 269.389091 220.150989 
L 270.72 222.526225 
L 271.518545 223.276833 
L 272.317091 223.68463 
L 272.849455 223.754724 
L 273.381818 223.663181 
L 273.914182 223.396797 
L 274.446545 222.954067 
L 275.245091 221.925253 
L 276.043636 220.426488 
L 276.309818 220.464076 
L 277.374545 223.123213 
L 277.640727 223.402925 
L 277.906909 223.495746 
L 278.173091 223.415182 
L 278.439273 223.156255 
L 278.971636 222.162373 
L 279.504 220.5654 
L 280.302545 217.118961 
L 281.101091 212.519301 
L 282.165818 204.725898 
L 282.432 202.497464 
L 282.698182 202.727154 
L 283.496727 208.574287 
L 284.295273 212.922783 
L 285.093818 216.087951 
L 285.892364 218.346593 
L 286.690909 219.955261 
L 287.755636 221.521005 
L 288.288 221.821759 
L 288.554182 221.929313 
L 288.820364 221.367385 
L 289.618909 216.756846 
L 290.151273 214.73083 
L 290.683636 213.664939 
L 290.949818 213.515966 
L 291.216 213.660215 
L 291.482182 214.096535 
L 292.014545 215.952155 
L 292.546909 219.265121 
L 293.079273 224.211703 
L 293.345455 227.3735 
L 294.144 231.100188 
L 294.942545 235.966883 
L 295.741091 241.846076 
L 296.273455 241.847659 
L 296.805818 241.530996 
L 297.338182 240.801378 
L 297.870545 239.563992 
L 298.402909 237.719021 
L 298.935273 235.16366 
L 299.733818 229.763189 
L 300.266182 225.341994 
L 300.532364 224.658033 
L 302.129455 222.701652 
L 303.460364 220.758165 
L 306.122182 215.872766 
L 309.848727 208.532511 
L 311.445818 205.155273 
L 313.042909 202.899874 
L 313.309091 203.669812 
L 314.64 212.313614 
L 315.704727 217.961777 
L 316.769455 222.633932 
L 318.100364 227.393035 
L 319.697455 232.128364 
L 322.891636 241.392876 
L 323.690182 244.546171 
L 324.488727 248.589163 
L 324.754909 250.176561 
L 325.021091 249.435745 
L 325.819636 245.372759 
L 326.618182 242.526564 
L 327.416727 240.632361 
L 328.215273 239.336486 
L 329.28 238.126308 
L 330.610909 236.699348 
L 331.409455 235.534942 
L 332.208 233.950328 
L 332.740364 231.965832 
L 333.538909 227.537743 
L 334.603636 220.267838 
L 335.934545 209.318996 
L 337.797818 192.544394 
L 338.064 192.428643 
L 339.661091 204.243333 
L 340.459636 208.53366 
L 341.258182 211.797752 
L 342.056727 214.080295 
L 342.589091 215.082961 
L 343.121455 215.677651 
L 343.387636 217.498083 
L 344.452364 229.838314 
L 345.517091 239.479049 
L 346.315636 244.95167 
L 347.114182 248.910779 
L 347.646545 250.732628 
L 348.178909 251.887229 
L 348.711273 252.394589 
L 348.977455 252.408774 
L 349.243636 252.262508 
L 349.776 251.49497 
L 350.308364 250.097657 
L 350.840727 248.093167 
L 351.639273 243.985749 
L 352.171636 240.920858 
L 352.437818 240.055392 
L 353.768727 230.981807 
L 354.833455 225.156353 
L 355.632 221.835369 
L 356.430545 219.527572 
L 356.962909 218.592829 
L 357.495273 218.142771 
L 357.761455 218.110979 
L 358.293818 218.41084 
L 358.826182 219.201283 
L 359.358545 220.469898 
L 359.890909 222.284202 
L 360.423273 226.268948 
L 361.221818 234.743056 
L 362.020364 246.235351 
L 362.818909 260.683081 
L 363.351273 271.89085 
L 363.617455 274.085079 
L 364.416 264.639101 
L 365.214545 257.872968 
L 366.013091 253.068425 
L 366.811636 249.586799 
L 367.876364 246.07416 
L 369.739636 240.263977 
L 371.070545 235.6546 
L 371.602909 235.920345 
L 372.135273 235.954001 
L 372.667636 235.738573 
L 373.2 235.2628 
L 373.732364 234.520708 
L 374.530909 232.902847 
L 375.329455 230.650027 
L 376.128 227.798687 
L 378.789818 216.49151 
L 380.386909 208.186739 
L 381.984 219.923521 
L 383.314909 227.932696 
L 384.645818 234.586947 
L 385.976727 240.096989 
L 387.307636 244.597369 
L 388.372364 247.472635 
L 388.638545 248.085494 
L 388.904727 248.017353 
L 390.501818 244.396598 
L 393.163636 238.722709 
L 393.962182 235.751889 
L 395.293091 229.351714 
L 397.156364 220.207192 
L 397.954909 216.930205 
L 398.221091 217.983252 
L 399.285818 231.091685 
L 400.084364 238.554419 
L 400.882909 244.359329 
L 401.681455 248.843392 
L 402.48 252.242948 
L 403.278545 254.817486 
L 404.077091 256.722708 
L 404.875636 258.139645 
L 405.940364 259.467374 
L 407.005091 260.396806 
L 408.602182 261.436575 
L 409.933091 262.299818 
L 410.199273 261.055768 
L 411.530182 251.697796 
L 413.393455 240.17251 
L 417.918545 214.110248 
L 420.846545 198.066694 
L 422.976 187.607746 
L 424.573091 180.773344 
L 425.904 175.867082 
L 426.436364 174.122107 
L 426.436364 174.122107 
" clip-path="url(#pf2233e72ea)" style="fill: none; stroke: #0000ff; stroke-width: 3; stroke-linecap: square"/>
   </g>
   <g id="patch_3">
    <path d="M 7.2 331.2 
L 7.2 7.2 
" style="fill: none; stroke: #000000; stroke-width: 0.8; stroke-linejoin: miter; stroke-linecap: square"/>
   </g>
   <g id="patch_4">
    <path d="M 446.4 331.2 
L 446.4 7.2 
" style="fill: none; stroke: #000000; stroke-width: 0.8; stroke-linejoin: miter; stroke-linecap: square"/>
   </g>
   <g id="patch_5">
    <path d="M 7.2 331.2 
L 446.4 331.2 
" style="fill: none; stroke: #000000; stroke-width: 0.8; stroke-linejoin: miter; stroke-linecap: square"/>
   </g>
   <g id="patch_6">
    <path d="M 7.2 7.2 
L 446.4 7.2 
" style="fill: none; stroke: #000000; stroke-width: 0.8; stroke-linejoin: miter; stroke-linecap: square"/>
   </g>
  </g>
 </g>
 <defs>
  <clipPath id="pf2233e72ea">
   <rect x="7.2" y="7.2" width="439.2" height="324"/>
  </clipPath>
 </defs>
</svg>
