<?xml version="1.0" encoding="utf-8" standalone="no"?>
<!DOCTYPE svg PUBLIC "-//W3C//DTD SVG 1.1//EN"
  "http://www.w3.org/Graphics/SVG/1.1/DTD/svg11.dtd">
<svg xmlns:xlink="http://www.w3.org/1999/xlink" width="453.6pt" height="338.4pt" viewBox="0 0 453.6 338.4" xmlns="http://www.w3.org/2000/svg" version="1.1">
 <metadata>
  <rdf:RDF xmlns:dc="http://purl.org/dc/elements/1.1/" xmlns:cc="http://creativecommons.org/ns#" xmlns:rdf="http://www.w3.org/1999/02/22-rdf-syntax-ns#">
   <cc:Work>
    <dc:type rdf:resource="http://purl.org/dc/dcmitype/StillImage"/>
    <dc:date>2025-05-14T09:02:46.374078</dc:date>
    <dc:format>image/svg+xml</dc:format>
    <dc:creator>
     <cc:Agent>
      <dc:title>Matplotlib v3.10.1, https://matplotlib.org/</dc:title>
     </cc:Agent>
    </dc:creator>
   </cc:Work>
  </rdf:RDF>
 </metadata>
 <defs>
  <style type="text/css">*{stroke-linejoin: round; stroke-linecap: butt}</style>
 </defs>
 <g id="figure_1">
  <g id="patch_1">
   <path d="M 0 338.4 
L 453.6 338.4 
L 453.6 0 
L 0 0 
z
" style="fill: #ffffff"/>
  </g>
  <g id="axes_1">
   <g id="patch_2">
    <path d="M 7.2 331.2 
L 446.4 331.2 
L 446.4 7.2 
L 7.2 7.2 
z
" style="fill: #ffffff"/>
   </g>
   <g id="matplotlib.axis_1"/>
   <g id="matplotlib.axis_2"/>
   <g id="line2d_1">
    <path d="M 27.163636 168.370471 
L 29.026909 169.501625 
L 30.890182 170.901149 
L 32.753455 172.569027 
L 34.882909 174.80377 
L 37.012364 177.388992 
L 39.141818 180.324731 
L 41.537455 184.046413 
L 43.933091 188.211672 
L 46.328727 192.820557 
L 48.990545 198.46182 
L 51.652364 204.650732 
L 54.314182 211.387302 
L 57.242182 219.430103 
L 60.170182 228.13555 
L 63.364364 238.388183 
L 66.558545 249.429447 
L 68.155636 255.24582 
L 68.421818 255.056747 
L 71.083636 247.583599 
L 73.745455 240.795518 
L 76.141091 235.271978 
L 78.536727 230.303339 
L 80.666182 226.352621 
L 82.795636 222.840342 
L 84.925091 219.766513 
L 86.788364 217.436575 
L 88.651636 215.442314 
L 90.514909 213.783739 
L 92.112 212.629269 
L 93.709091 211.72143 
L 95.306182 211.060232 
L 96.903273 210.645627 
L 98.500364 210.477654 
L 100.097455 210.556331 
L 101.694545 210.881602 
L 103.291636 211.453513 
L 104.888727 212.272056 
L 106.485818 213.337202 
L 108.082909 214.64898 
L 109.946182 216.491099 
L 111.809455 218.668896 
L 113.672727 221.18238 
L 115.802182 224.465964 
L 117.931636 228.188007 
L 120.061091 232.34849 
L 122.456727 237.553085 
L 124.852364 243.312599 
L 127.248 249.627034 
L 129.909818 257.29387 
L 132.571636 265.645762 
L 135.499636 275.62413 
L 138.427636 286.43141 
L 141.355636 298.067571 
L 144.549818 311.707047 
L 145.614545 316.472727 
L 145.880727 315.711349 
L 149.607273 279.271957 
L 153.067636 247.474103 
L 156.528 217.639448 
L 159.988364 189.767957 
L 163.182545 165.78292 
L 166.376727 143.470584 
L 169.304727 124.487101 
L 172.232727 106.909283 
L 175.160727 90.737 
L 177.822545 77.254603 
L 180.484364 64.933911 
L 182.88 54.83852 
L 185.275636 45.683986 
L 187.405091 38.336597 
L 189.534545 31.732627 
L 191.664 25.87213 
L 193.261091 21.964631 
L 193.527273 22.651177 
L 197.52 45.001781 
L 201.512727 68.625941 
L 205.771636 95.228931 
L 210.030545 123.281101 
L 214.289455 152.782397 
L 218.814545 185.715329 
L 223.339636 220.28427 
L 228.130909 258.669758 
L 232.922182 298.889204 
L 233.454545 303.471331 
L 233.720727 303.003142 
L 237.979636 286.858581 
L 242.238545 269.854339 
L 246.763636 250.84537 
L 251.288727 230.866004 
L 256.08 208.653444 
L 260.871273 185.352848 
L 265.396364 162.921991 
L 267.792 158.771237 
L 270.187636 155.043276 
L 272.583273 151.738054 
L 274.712727 149.155085 
L 276.842182 146.906133 
L 278.971636 144.991217 
L 280.834909 143.589726 
L 282.698182 142.443955 
L 284.561455 141.553961 
L 286.424727 140.919705 
L 288.288 140.541263 
L 290.151273 140.418541 
L 292.014545 140.551595 
L 293.877818 140.940406 
L 295.741091 141.584957 
L 297.604364 142.48532 
L 299.467636 143.641386 
L 301.330909 145.053246 
L 303.194182 146.720826 
L 305.323636 148.939858 
L 307.453091 151.492944 
L 309.582545 154.380047 
L 311.978182 158.027392 
L 314.373818 162.097475 
L 316.769455 166.590352 
L 319.431273 172.078287 
L 322.093091 178.088207 
L 324.754909 184.620077 
L 327.682909 192.408002 
L 330.610909 200.827502 
L 333.805091 210.732726 
L 336.999273 221.389584 
L 338.064 225.108854 
L 338.330182 224.558404 
L 341.258182 215.731061 
L 344.186182 207.601477 
L 346.848 200.816614 
L 349.509818 194.60855 
L 352.171636 188.977248 
L 354.567273 184.402253 
L 356.962909 180.294394 
L 359.358545 176.653717 
L 361.488 173.809797 
L 363.617455 171.334998 
L 365.746909 169.229358 
L 367.610182 167.689712 
L 369.473455 166.432683 
L 371.336727 165.458289 
L 372.933818 164.848018 
L 374.530909 164.445387 
L 376.128 164.250416 
L 377.725091 164.263067 
L 379.322182 164.483376 
L 380.919273 164.91129 
L 382.516364 165.546862 
L 384.379636 166.550805 
L 386.242909 167.837365 
L 388.106182 169.406522 
L 389.969455 171.258325 
L 392.098909 173.720742 
L 394.228364 176.552262 
L 396.357818 179.752931 
L 398.753455 183.794949 
L 401.149091 188.304122 
L 403.544727 193.280458 
L 406.206545 199.357685 
L 408.868364 206.011692 
L 411.530182 213.242536 
L 414.458182 221.862572 
L 417.386182 231.180451 
L 420.580364 242.141444 
L 423.774545 253.932976 
L 426.436364 264.3937 
L 426.436364 264.3937 
" clip-path="url(#p8c84343a20)" style="fill: none; stroke-dasharray: 11.1,4.8; stroke-dashoffset: 0; stroke: #000000; stroke-width: 3"/>
   </g>
   <g id="line2d_2">
    <path d="M 27.163636 185.754968 
L 29.293091 207.998302 
L 30.091636 214.45232 
L 30.890182 219.243136 
L 31.688727 222.438861 
L 32.221091 223.83271 
L 32.753455 224.779094 
L 33.285818 225.402146 
L 34.084364 225.967658 
L 35.681455 226.651236 
L 39.940364 228.361925 
L 41.005091 228.414438 
L 41.803636 228.258884 
L 42.868364 227.800828 
L 44.199273 226.936376 
L 48.990545 223.568457 
L 51.386182 222.167022 
L 55.112727 220.13339 
L 56.177455 219.148961 
L 57.242182 217.854666 
L 60.170182 214.000107 
L 60.968727 213.3591 
L 61.767273 213.024118 
L 62.565818 212.990154 
L 63.364364 213.213692 
L 64.429091 213.799052 
L 68.421818 216.415891 
L 69.486545 216.772817 
L 70.817455 216.970886 
L 72.148364 216.955638 
L 73.479273 216.749574 
L 74.810182 216.336408 
L 78.802909 214.834658 
L 79.867636 214.85317 
L 80.932364 215.139404 
L 82.263273 215.758245 
L 85.457455 217.3589 
L 90.514909 219.556025 
L 91.313455 220.239325 
L 92.112 221.181016 
L 92.910545 222.431831 
L 93.975273 224.588092 
L 95.572364 228.557694 
L 97.701818 233.828287 
L 99.032727 236.496304 
L 100.363636 238.679629 
L 103.557818 243.645086 
L 104.622545 245.851783 
L 105.687273 248.563317 
L 107.018182 252.5999 
L 109.68 260.875068 
L 110.744727 263.328767 
L 111.543273 264.660457 
L 112.341818 265.568889 
L 113.140364 266.116687 
L 113.938909 266.389769 
L 115.003636 266.47146 
L 116.334545 266.325514 
L 118.464 265.827652 
L 123.787636 264.383145 
L 125.118545 264.382663 
L 126.981818 264.655374 
L 128.578909 264.851774 
L 129.643636 264.744337 
L 130.442182 264.415681 
L 131.240727 263.772243 
L 132.039273 262.716455 
L 132.837818 261.166922 
L 133.636364 259.086806 
L 134.701091 255.560551 
L 137.895273 243.922657 
L 138.693818 242.051165 
L 139.226182 241.238317 
L 139.758545 240.798179 
L 140.290909 240.729899 
L 140.823273 241.012053 
L 141.355636 241.603218 
L 142.154182 242.933869 
L 144.549818 247.443608 
L 145.082182 248.000976 
L 145.614545 248.266046 
L 146.146909 248.221305 
L 146.679273 247.874656 
L 147.211636 247.254591 
L 148.010182 245.906614 
L 149.074909 243.569665 
L 150.405818 240.124432 
L 151.736727 236.161026 
L 153.067636 231.559673 
L 154.930909 224.248993 
L 157.858909 211.899494 
L 159.189818 205.359926 
L 160.520727 197.627547 
L 162.117818 186.731087 
L 163.981091 172.354634 
L 169.038545 132.041704 
L 170.635636 121.694618 
L 172.232727 112.842289 
L 175.160727 98.287688 
L 178.621091 81.706282 
L 180.218182 75.062059 
L 181.815273 69.300875 
L 183.412364 64.359718 
L 185.009455 60.112489 
L 186.872727 55.757785 
L 188.736 51.911481 
L 189.800727 50.089218 
L 190.599273 49.021837 
L 191.397818 48.297988 
L 191.930182 48.042768 
L 192.462545 47.991239 
L 192.994909 48.157737 
L 193.527273 48.551946 
L 194.059636 49.17843 
L 194.858182 50.551225 
L 195.656727 52.422773 
L 196.721455 55.622264 
L 198.052364 60.575071 
L 199.649455 67.595491 
L 201.512727 76.895192 
L 203.642182 88.786617 
L 205.771636 101.968144 
L 213.224727 149.444825 
L 215.620364 163.006854 
L 217.483636 172.296723 
L 219.080727 179.154188 
L 222.008727 191.245203 
L 223.605818 199.137959 
L 226.8 215.679448 
L 227.864727 220.094733 
L 228.929455 223.679623 
L 229.994182 226.503788 
L 231.058909 228.664074 
L 231.857455 229.876177 
L 232.656 230.733395 
L 233.454545 231.22573 
L 233.986909 231.351439 
L 234.785455 231.253239 
L 235.584 230.852407 
L 236.648727 229.957497 
L 237.979636 228.474816 
L 240.907636 224.719755 
L 243.037091 222.164555 
L 245.166545 219.639552 
L 246.231273 217.972751 
L 247.296 215.824188 
L 248.626909 212.544545 
L 251.022545 206.518292 
L 252.353455 203.8231 
L 255.547636 197.844444 
L 256.878545 194.73091 
L 259.540364 187.724568 
L 261.936 181.67626 
L 263.799273 177.474848 
L 265.396364 174.380345 
L 266.727273 172.271292 
L 268.058182 170.594196 
L 269.655273 169.00699 
L 273.914182 165.098841 
L 275.511273 163.210821 
L 280.036364 157.507845 
L 281.367273 156.323752 
L 282.964364 155.226487 
L 285.093818 154.037979 
L 286.690909 153.339617 
L 288.288 152.902949 
L 292.280727 152.084109 
L 293.877818 151.35937 
L 296.007273 150.391562 
L 297.338182 150.077059 
L 298.402909 150.038105 
L 299.733818 150.213433 
L 301.597091 150.734816 
L 307.186909 152.53853 
L 310.913455 153.389552 
L 312.244364 154.007484 
L 313.309091 154.737287 
L 314.64 155.939948 
L 316.769455 158.270276 
L 320.229818 162.037709 
L 323.157818 164.8485 
L 324.754909 166.474196 
L 326.085818 168.168562 
L 327.416727 170.286259 
L 329.812364 174.726308 
L 331.409455 177.488741 
L 332.740364 179.372216 
L 333.805091 180.557627 
L 334.869818 181.461812 
L 335.934545 182.097347 
L 336.999273 182.466051 
L 337.797818 182.555069 
L 338.596364 182.460375 
L 339.394909 182.150658 
L 340.193455 181.586982 
L 340.992 180.728744 
L 341.790545 179.540421 
L 342.589091 178.000942 
L 343.653818 175.412743 
L 344.984727 171.469852 
L 348.711273 159.879204 
L 350.042182 156.773831 
L 351.106909 154.816845 
L 352.171636 153.252937 
L 353.502545 151.700659 
L 355.099636 150.200022 
L 356.962909 148.740212 
L 358.56 147.767154 
L 359.624727 147.344564 
L 360.689455 147.174245 
L 361.488 147.248664 
L 362.286545 147.522006 
L 363.085091 148.010038 
L 364.149818 148.99673 
L 365.214545 150.316233 
L 367.610182 153.818616 
L 369.473455 156.325978 
L 371.602909 159.160363 
L 372.933818 161.404548 
L 374.264727 164.136375 
L 381.451636 180.167127 
L 384.113455 187.623734 
L 385.710545 191.685081 
L 387.041455 194.407633 
L 388.372364 196.560685 
L 392.365091 202.470356 
L 393.696 205.234366 
L 395.559273 209.831954 
L 397.422545 214.350336 
L 399.019636 217.65272 
L 401.947636 223.533269 
L 404.343273 229.178131 
L 405.940364 232.628816 
L 407.005091 234.397453 
L 408.069818 235.668097 
L 409.400727 236.786044 
L 410.731636 237.941776 
L 411.530182 238.917152 
L 412.328727 240.206235 
L 413.393455 242.41282 
L 414.990545 246.408558 
L 418.450909 255.212084 
L 419.781818 258.153555 
L 420.580364 259.417169 
L 421.112727 259.852854 
L 421.378909 259.904124 
L 421.645091 259.82362 
L 421.911273 259.596689 
L 422.443636 258.649859 
L 422.976 256.977122 
L 423.508364 254.536408 
L 424.306909 249.487293 
L 425.371636 240.746093 
L 426.436364 231.112042 
L 426.436364 231.112042 
" clip-path="url(#p8c84343a20)" style="fill: none; stroke-dasharray: 3,4.95; stroke-dashoffset: 0; stroke: #0000ff; stroke-width: 3"/>
   </g>
   <g id="line2d_3">
    <path d="M 27.163636 182.72793 
L 29.825455 208.139184 
L 30.624 213.642032 
L 31.422545 217.639022 
L 32.221091 220.277638 
L 32.753455 221.435995 
L 33.552 222.543628 
L 34.350545 223.190423 
L 35.681455 223.869707 
L 38.343273 224.954088 
L 39.408 225.174064 
L 40.206545 225.165374 
L 41.005091 224.980567 
L 42.069818 224.471807 
L 43.666909 223.351709 
L 45.796364 221.883394 
L 49.522909 219.582152 
L 56.177455 214.380386 
L 57.242182 212.991407 
L 58.839273 210.419391 
L 60.170182 208.357416 
L 60.968727 207.421345 
L 61.767273 206.828491 
L 62.299636 206.645354 
L 62.832 206.631099 
L 63.630545 206.898348 
L 64.429091 207.446238 
L 65.76 208.728439 
L 68.155636 211.106623 
L 69.486545 212.119396 
L 70.817455 212.8782 
L 71.882182 213.284309 
L 72.946909 213.451586 
L 73.745455 213.379884 
L 74.544 213.125861 
L 75.608727 212.541503 
L 78.270545 210.8792 
L 79.069091 210.666004 
L 79.867636 210.671504 
L 80.666182 210.881973 
L 81.730909 211.393905 
L 85.989818 213.715654 
L 88.385455 214.967582 
L 89.716364 215.907047 
L 90.781091 216.920404 
L 91.845818 218.29754 
L 92.910545 220.139455 
L 93.975273 222.450381 
L 96.104727 227.832927 
L 97.701818 231.592524 
L 99.032727 234.148392 
L 100.363636 236.232691 
L 104.090182 241.666276 
L 105.421091 244.287948 
L 106.752 247.457733 
L 109.68 254.743677 
L 110.744727 256.720817 
L 111.543273 257.808835 
L 112.341818 258.562622 
L 113.140364 259.025037 
L 113.938909 259.259017 
L 115.003636 259.328893 
L 116.600727 259.161467 
L 119.528727 258.567667 
L 122.722909 257.914825 
L 124.053818 257.84789 
L 125.384727 257.97985 
L 129.111273 258.582071 
L 129.909818 258.45511 
L 130.708364 258.112839 
L 131.506909 257.492263 
L 132.305455 256.536057 
L 133.104 255.207048 
L 134.168727 252.865275 
L 135.499636 249.272817 
L 137.362909 244.285361 
L 138.161455 242.675728 
L 138.96 241.597412 
L 139.492364 241.212478 
L 140.024727 241.101098 
L 140.557091 241.252312 
L 141.089455 241.640391 
L 141.888 242.576953 
L 144.816 246.566996 
L 145.348364 246.865705 
L 145.880727 246.937648 
L 146.413091 246.779655 
L 146.945455 246.404551 
L 147.744 245.490294 
L 148.808727 243.772464 
L 150.139636 241.06323 
L 151.470545 237.761412 
L 152.801455 233.712669 
L 154.132364 228.868821 
L 155.729455 222.219813 
L 157.592727 213.564913 
L 159.456 203.746148 
L 161.319273 192.679248 
L 163.981091 175.464439 
L 167.973818 147.839923 
L 170.369455 132.226306 
L 174.362182 107.106443 
L 176.491636 91.453614 
L 178.887273 74.100836 
L 180.218182 65.955104 
L 181.549091 59.141545 
L 182.88 53.475909 
L 184.477091 47.684137 
L 187.405091 37.288693 
L 190.599273 25.356812 
L 191.397818 23.335274 
L 191.930182 22.44439 
L 192.462545 21.983644 
L 192.728727 21.927273 
L 192.994909 21.99149 
L 193.527273 22.4885 
L 194.059636 23.475989 
L 194.592 24.936708 
L 195.390545 27.935793 
L 196.455273 33.164668 
L 198.052364 42.630329 
L 202.045091 68.358275 
L 203.642182 79.945714 
L 205.239273 93.247478 
L 210.030545 134.846615 
L 211.627636 145.806439 
L 213.224727 155.257595 
L 215.354182 166.404562 
L 217.217455 175.047952 
L 219.080727 182.581502 
L 222.274909 195.104965 
L 224.138182 203.702845 
L 226.8 215.985715 
L 228.130909 221.047146 
L 229.461818 225.167451 
L 230.526545 227.800309 
L 231.591273 229.805829 
L 232.389818 230.84393 
L 233.188364 231.439659 
L 233.720727 231.582284 
L 234.253091 231.525301 
L 234.785455 231.281239 
L 235.584 230.609829 
L 236.648727 229.289157 
L 238.512 226.452332 
L 240.641455 223.338594 
L 242.238545 221.402856 
L 246.231273 216.977693 
L 247.296 215.245246 
L 248.626909 212.62542 
L 251.554909 206.653804 
L 253.684364 203.00324 
L 255.547636 199.633235 
L 257.144727 196.229822 
L 263.799273 181.254217 
L 265.396364 178.435589 
L 266.727273 176.513856 
L 268.058182 175.006393 
L 269.389091 173.845699 
L 271.252364 172.549884 
L 273.648 170.871563 
L 275.245091 169.467142 
L 277.108364 167.499267 
L 279.504 164.954157 
L 280.834909 163.831833 
L 282.165818 162.972704 
L 284.029091 162.073342 
L 285.892364 161.39954 
L 287.489455 161.033154 
L 289.618909 160.822435 
L 291.482182 160.597413 
L 293.079273 160.16195 
L 296.273455 159.149827 
L 297.604364 159.032318 
L 298.935273 159.148436 
L 300.798545 159.57839 
L 307.186909 161.309205 
L 310.913455 162.050286 
L 312.244364 162.567885 
L 313.575273 163.337272 
L 315.172364 164.565383 
L 323.424 171.477346 
L 325.287273 173.093609 
L 326.618182 174.558344 
L 328.215273 176.701806 
L 331.675636 181.567802 
L 333.272727 183.341596 
L 334.603636 184.489147 
L 335.668364 185.172948 
L 336.733091 185.621163 
L 337.797818 185.793709 
L 338.596364 185.711276 
L 339.394909 185.420386 
L 340.193455 184.8961 
L 340.992 184.115193 
L 341.790545 183.058877 
L 342.855273 181.207186 
L 343.92 178.872564 
L 345.517091 174.686724 
L 348.445091 166.801703 
L 349.776 163.927232 
L 350.840727 162.075754 
L 351.905455 160.587341 
L 353.236364 159.140219 
L 354.567273 158.040191 
L 355.898182 157.203544 
L 357.229091 156.58986 
L 358.56 156.190327 
L 359.890909 156.020508 
L 360.955636 156.084484 
L 362.020364 156.375115 
L 363.085091 156.940163 
L 364.149818 157.799013 
L 365.480727 159.219665 
L 369.739636 164.110462 
L 371.336727 165.906941 
L 372.667636 167.780548 
L 373.998545 170.077116 
L 377.458909 176.322872 
L 380.386909 181.158753 
L 381.717818 183.954659 
L 383.314909 187.920013 
L 385.976727 194.601139 
L 387.307636 197.266226 
L 388.638545 199.355199 
L 392.897455 205.374135 
L 394.494545 208.515613 
L 397.954909 215.646467 
L 401.947636 223.197425 
L 403.810909 227.568387 
L 405.674182 231.811034 
L 406.738909 233.662364 
L 407.537455 234.677696 
L 408.602182 235.631296 
L 410.465455 237.122686 
L 411.264 238.073568 
L 412.062545 239.322844 
L 413.127273 241.400048 
L 417.652364 250.853615 
L 419.515636 254.079891 
L 420.314182 255.070376 
L 420.846545 255.412166 
L 421.378909 255.37119 
L 421.911273 254.831146 
L 422.443636 253.686071 
L 422.976 251.857956 
L 423.508364 249.313218 
L 424.306909 244.220141 
L 425.371636 235.644939 
L 426.436364 226.401711 
L 426.436364 226.401711 
" clip-path="url(#p8c84343a20)" style="fill: none; stroke: #0000ff; stroke-width: 3; stroke-linecap: square"/>
   </g>
   <g id="patch_3">
    <path d="M 7.2 331.2 
L 7.2 7.2 
" style="fill: none; stroke: #000000; stroke-width: 0.8; stroke-linejoin: miter; stroke-linecap: square"/>
   </g>
   <g id="patch_4">
    <path d="M 446.4 331.2 
L 446.4 7.2 
" style="fill: none; stroke: #000000; stroke-width: 0.8; stroke-linejoin: miter; stroke-linecap: square"/>
   </g>
   <g id="patch_5">
    <path d="M 7.2 331.2 
L 446.4 331.2 
" style="fill: none; stroke: #000000; stroke-width: 0.8; stroke-linejoin: miter; stroke-linecap: square"/>
   </g>
   <g id="patch_6">
    <path d="M 7.2 7.2 
L 446.4 7.2 
" style="fill: none; stroke: #000000; stroke-width: 0.8; stroke-linejoin: miter; stroke-linecap: square"/>
   </g>
  </g>
 </g>
 <defs>
  <clipPath id="p8c84343a20">
   <rect x="7.2" y="7.2" width="439.2" height="324"/>
  </clipPath>
 </defs>
</svg>
