<?xml version="1.0" encoding="utf-8" standalone="no"?>
<!DOCTYPE svg PUBLIC "-//W3C//DTD SVG 1.1//EN"
  "http://www.w3.org/Graphics/SVG/1.1/DTD/svg11.dtd">
<svg xmlns:xlink="http://www.w3.org/1999/xlink" width="453.6pt" height="338.4pt" viewBox="0 0 453.6 338.4" xmlns="http://www.w3.org/2000/svg" version="1.1">
 <metadata>
  <rdf:RDF xmlns:dc="http://purl.org/dc/elements/1.1/" xmlns:cc="http://creativecommons.org/ns#" xmlns:rdf="http://www.w3.org/1999/02/22-rdf-syntax-ns#">
   <cc:Work>
    <dc:type rdf:resource="http://purl.org/dc/dcmitype/StillImage"/>
    <dc:date>2025-05-14T00:15:48.831270</dc:date>
    <dc:format>image/svg+xml</dc:format>
    <dc:creator>
     <cc:Agent>
      <dc:title>Matplotlib v3.10.1, https://matplotlib.org/</dc:title>
     </cc:Agent>
    </dc:creator>
   </cc:Work>
  </rdf:RDF>
 </metadata>
 <defs>
  <style type="text/css">*{stroke-linejoin: round; stroke-linecap: butt}</style>
 </defs>
 <g id="figure_1">
  <g id="patch_1">
   <path d="M 0 338.4 
L 453.6 338.4 
L 453.6 0 
L 0 0 
z
" style="fill: #ffffff"/>
  </g>
  <g id="axes_1">
   <g id="patch_2">
    <path d="M 7.2 331.2 
L 446.4 331.2 
L 446.4 7.2 
L 7.2 7.2 
z
" style="fill: #ffffff"/>
   </g>
   <g id="matplotlib.axis_1"/>
   <g id="matplotlib.axis_2"/>
   <g id="line2d_1">
    <path d="M 27.163636 316.472727 
L 426.436364 21.927273 
L 426.436364 21.927273 
" clip-path="url(#pf58e6fda10)" style="fill: none; stroke-dasharray: 11.1,4.8; stroke-dashoffset: 0; stroke: #000000; stroke-width: 3"/>
   </g>
   <g id="line2d_2">
    <path d="M 27.163636 155.465822 
L 27.696 155.241388 
L 28.228364 155.250149 
L 28.760727 155.473766 
L 29.559273 156.181668 
L 30.357818 157.274938 
L 31.422545 159.183313 
L 34.616727 165.371358 
L 35.415273 166.252237 
L 35.947636 166.506774 
L 36.48 166.425228 
L 37.012364 165.944609 
L 37.544727 164.999195 
L 38.077091 163.518807 
L 38.875636 160.895493 
L 39.674182 159.834024 
L 40.472727 159.124871 
L 41.005091 158.879913 
L 41.537455 158.840104 
L 42.069818 159.022813 
L 42.602182 159.455692 
L 43.134545 160.151167 
L 44.199273 161.857573 
L 45.530182 163.484247 
L 46.861091 165.42625 
L 48.724364 168.610121 
L 51.12 173.277572 
L 56.177455 183.38002 
L 56.976 184.601886 
L 58.040727 185.495473 
L 59.105455 186.101968 
L 60.170182 186.490888 
L 60.436364 186.562728 
L 61.501091 187.240539 
L 62.299636 187.498256 
L 62.832 187.44095 
L 63.364364 187.159938 
L 63.896727 186.608858 
L 64.429091 185.75927 
L 65.227636 183.90235 
L 66.026182 181.368296 
L 67.090909 177.070568 
L 68.688 169.410015 
L 70.551273 160.681084 
L 71.616 156.836031 
L 72.414545 154.825776 
L 72.946909 153.974834 
L 73.479273 153.524253 
L 74.011636 153.471788 
L 74.544 153.804895 
L 76.141091 155.789032 
L 79.069091 159.636895 
L 82.529455 164.034356 
L 84.392727 166.07327 
L 86.256 167.77679 
L 87.853091 168.95416 
L 89.450182 169.870532 
L 91.047273 170.542711 
L 92.644364 170.984058 
L 93.709091 171.157648 
L 95.572364 173.569185 
L 96.637091 174.640871 
L 97.435636 175.187659 
L 98.234182 175.421046 
L 98.766545 175.367623 
L 99.298909 175.117058 
L 99.831273 174.638406 
L 100.363636 173.891309 
L 100.896 172.853812 
L 101.694545 170.677962 
L 102.493091 167.650913 
L 103.291636 163.646905 
L 104.090182 158.536128 
L 106.485818 169.224496 
L 107.284364 171.39018 
L 108.082909 172.846801 
L 108.615273 173.462708 
L 109.147636 173.81413 
L 109.68 173.908078 
L 110.212364 173.779596 
L 110.744727 173.301046 
L 111.543273 172.023802 
L 113.140364 168.748832 
L 114.737455 165.644478 
L 115.802182 163.968876 
L 116.866909 162.684697 
L 117.665455 161.996426 
L 118.197818 161.675234 
L 118.464 161.815044 
L 118.730182 162.580111 
L 119.794909 166.980714 
L 120.859636 170.263627 
L 121.658182 172.043534 
L 122.456727 173.226575 
L 122.989091 173.667538 
L 123.521455 173.811116 
L 124.053818 173.629799 
L 124.586182 173.121964 
L 125.118545 172.248262 
L 125.650909 171.00628 
L 126.449455 168.424422 
L 126.981818 166.222837 
L 128.046545 164.629446 
L 129.111273 162.624875 
L 130.442182 159.568631 
L 132.039273 155.274556 
L 134.701091 147.959767 
L 134.967273 147.33391 
L 135.233455 147.485304 
L 136.032 148.643402 
L 136.830545 150.237598 
L 137.895273 152.975869 
L 139.226182 157.16993 
L 143.218909 170.53515 
L 143.751273 171.590438 
L 145.614545 172.603566 
L 148.010182 173.85809 
L 149.074909 174.160827 
L 149.873455 174.211325 
L 150.672 174.068041 
L 151.470545 173.699276 
L 151.736727 173.514612 
L 152.002909 173.683963 
L 152.269091 174.205783 
L 153.067636 176.591227 
L 153.866182 178.431249 
L 154.664727 179.753194 
L 155.463273 180.591365 
L 155.995636 180.922135 
L 156.794182 181.122636 
L 157.592727 181.025419 
L 158.657455 180.553484 
L 159.722182 179.846247 
L 160.254545 179.448171 
L 161.319273 177.763706 
L 162.650182 175.164619 
L 165.045818 170.434357 
L 166.110545 168.903496 
L 166.909091 168.174368 
L 167.441455 167.924965 
L 167.973818 167.880239 
L 168.506182 168.055452 
L 169.038545 168.457743 
L 169.837091 169.454422 
L 170.635636 170.929459 
L 171.700364 173.496553 
L 173.297455 177.613602 
L 174.362182 179.265806 
L 175.426909 180.504774 
L 176.225455 181.174424 
L 177.290182 181.9705 
L 179.153455 184.115546 
L 181.282909 186.949131 
L 185.009455 191.988886 
L 186.340364 193.402466 
L 187.405091 194.20973 
L 188.203636 194.554549 
L 189.002182 194.62607 
L 189.534545 194.493884 
L 190.066909 194.200586 
L 190.865455 193.418558 
L 191.664 192.174686 
L 191.930182 191.64634 
L 192.196364 190.154521 
L 192.994909 182.468923 
L 193.527273 178.63166 
L 194.325818 176.785163 
L 195.124364 175.435287 
L 195.922909 174.444534 
L 196.721455 173.721562 
L 197.786182 173.066062 
L 199.117091 172.567372 
L 200.448 172.286257 
L 202.577455 172.074032 
L 206.570182 171.989817 
L 211.361455 171.912958 
L 211.893818 171.433207 
L 212.426182 170.482085 
L 212.958545 168.939371 
L 213.490909 166.690072 
L 214.289455 162.042288 
L 214.821818 163.125839 
L 215.354182 163.785694 
L 215.886545 164.118125 
L 216.418909 164.22916 
L 217.217455 164.163451 
L 218.548364 164.000958 
L 219.346909 164.142097 
L 220.145455 164.578794 
L 220.944 165.345215 
L 221.742545 166.41782 
L 223.073455 168.708129 
L 225.202909 172.529159 
L 226.001455 173.597372 
L 226.8 174.277086 
L 227.598545 181.055777 
L 228.397091 189.520107 
L 228.663273 190.182095 
L 229.461818 184.230439 
L 230.260364 180.006811 
L 231.058909 177.029853 
L 231.857455 174.938078 
L 232.656 173.455097 
L 233.454545 172.385211 
L 234.519273 171.354892 
L 235.850182 170.406988 
L 243.303273 165.715564 
L 243.569455 165.304116 
L 244.368 163.004969 
L 245.166545 159.810677 
L 245.965091 155.46134 
L 246.497455 151.992536 
L 247.296 157.002406 
L 248.094545 160.552232 
L 248.626909 162.174793 
L 249.159273 163.279468 
L 249.691636 163.941328 
L 250.224 164.241702 
L 250.756364 164.265163 
L 251.554909 163.967867 
L 253.152 163.183796 
L 253.684364 163.124843 
L 254.216727 163.261767 
L 254.749091 163.635105 
L 255.281455 164.258663 
L 256.08 165.712486 
L 256.878545 167.733137 
L 257.943273 171.164698 
L 259.008 174.793312 
L 259.274182 174.990403 
L 260.072727 173.653707 
L 261.403636 172.586248 
L 264.065455 170.330282 
L 265.130182 169.68597 
L 266.194909 169.302632 
L 267.259636 169.195836 
L 268.324364 169.331726 
L 271.252364 169.918578 
L 272.050909 169.705523 
L 272.583273 169.348546 
L 273.115636 168.770442 
L 273.648 167.91568 
L 274.180364 166.743329 
L 274.978909 164.244895 
L 275.777455 160.697981 
L 276.842182 155.454392 
L 278.705455 169.893048 
L 280.036364 178.683692 
L 281.101091 184.563699 
L 282.165818 189.257805 
L 282.964364 191.919511 
L 283.762909 193.789699 
L 284.295273 194.575201 
L 284.827636 194.976789 
L 285.36 194.980276 
L 285.892364 194.585418 
L 286.424727 193.769393 
L 286.957091 192.540029 
L 287.223273 191.761233 
L 289.086545 181.75811 
L 289.618909 180.160031 
L 290.151273 179.073607 
L 290.683636 178.426958 
L 291.216 178.156048 
L 291.748364 178.177645 
L 292.280727 178.420291 
L 294.942545 180.097936 
L 295.741091 180.257325 
L 296.273455 180.208461 
L 296.805818 180.010962 
L 297.338182 179.640383 
L 297.870545 179.084488 
L 299.201455 179.373227 
L 300 179.157976 
L 300.798545 178.691099 
L 301.863273 177.784025 
L 303.460364 176.062229 
L 306.654545 172.504229 
L 308.251636 171.082948 
L 309.582545 170.184712 
L 309.848727 170.038593 
L 310.114909 169.702637 
L 311.712 166.734632 
L 312.776727 165.207819 
L 313.575273 164.437681 
L 314.107636 164.142595 
L 314.373818 164.572217 
L 315.438545 170.810875 
L 315.970909 172.978897 
L 316.503273 174.52101 
L 317.035636 175.497344 
L 317.568 175.959865 
L 318.100364 175.981768 
L 318.632727 175.623769 
L 319.165091 174.942497 
L 319.963636 173.431776 
L 321.028364 170.795077 
L 325.021091 160.026887 
L 326.085818 157.931127 
L 326.618182 157.075076 
L 327.150545 155.471902 
L 327.416727 155.267902 
L 328.481455 161.093771 
L 329.28 164.442049 
L 330.078545 166.934953 
L 330.877091 168.591551 
L 331.409455 169.242849 
L 331.941818 169.541882 
L 332.474182 169.497385 
L 333.006545 169.118607 
L 333.538909 168.41317 
L 334.071273 167.389518 
L 334.869818 165.288637 
L 335.668364 162.533916 
L 336.200727 160.712745 
L 336.733091 160.462499 
L 337.531636 159.778659 
L 338.862545 158.188563 
L 340.459636 156.296778 
L 341.258182 155.614445 
L 342.056727 155.21891 
L 342.589091 155.148143 
L 343.121455 155.250251 
L 343.92 155.622568 
L 344.718545 156.267607 
L 345.517091 157.237977 
L 346.315636 158.581416 
L 347.114182 160.33698 
L 347.912727 162.539229 
L 351.106909 153.85777 
L 352.171636 151.872177 
L 353.236364 150.310958 
L 354.301091 149.132246 
L 355.365818 148.291571 
L 356.430545 147.750339 
L 357.495273 147.461753 
L 358.56 147.38377 
L 359.890909 147.52109 
L 363.351273 148.054583 
L 368.408727 148.917709 
L 369.473455 149.989549 
L 371.070545 152.263523 
L 372.933818 154.495938 
L 375.861818 157.522604 
L 376.394182 158.047629 
L 376.660364 158.609092 
L 378.523636 164.09018 
L 379.588364 166.654554 
L 380.653091 168.63468 
L 381.451636 169.718627 
L 382.250182 170.470322 
L 383.048727 170.926764 
L 383.847273 171.141224 
L 384.912 171.18945 
L 386.775273 171.227317 
L 387.573818 171.478827 
L 388.372364 172.015947 
L 389.170909 172.913353 
L 389.969455 174.23904 
L 390.768 176.05297 
L 391.832727 178.647752 
L 392.365091 179.454416 
L 392.897455 179.96312 
L 393.163636 180.119661 
L 397.156364 180.130491 
L 397.954909 179.873732 
L 399.019636 179.240301 
L 399.818182 178.530995 
L 400.882909 177.272474 
L 402.213818 175.257392 
L 404.343273 171.452033 
L 406.472727 167.746917 
L 407.803636 165.845527 
L 408.868364 164.648042 
L 409.666909 163.949515 
L 410.199273 162.658081 
L 410.731636 161.565782 
L 411.264 161.067896 
L 411.530182 161.061689 
L 411.796364 161.206148 
L 412.328727 161.99133 
L 412.861091 163.422586 
L 413.127273 164.578117 
L 413.925818 169.437538 
L 414.724364 172.891207 
L 415.256727 174.494432 
L 415.789091 175.629746 
L 416.321455 176.354481 
L 416.853818 176.72027 
L 417.386182 176.779237 
L 417.918545 176.555964 
L 418.450909 176.084439 
L 419.249455 174.971092 
L 420.048 173.418774 
L 421.112727 170.746175 
L 422.177455 167.466301 
L 423.508364 162.623011 
L 425.371636 154.818624 
L 426.436364 150.160739 
L 426.436364 150.160739 
" clip-path="url(#pf58e6fda10)" style="fill: none; stroke-dasharray: 3,4.95; stroke-dashoffset: 0; stroke: #ffa500; stroke-width: 3"/>
   </g>
   <g id="line2d_3">
    <path d="M 27.163636 185.016464 
L 27.962182 181.728671 
L 28.760727 179.629144 
L 29.293091 178.822825 
L 29.825455 178.432731 
L 30.357818 178.434621 
L 30.890182 178.763284 
L 31.422545 179.369856 
L 32.221091 180.679297 
L 35.149091 186.196452 
L 35.681455 186.671324 
L 36.213818 186.77697 
L 36.746182 186.418716 
L 37.278545 185.500492 
L 37.810909 183.92737 
L 38.343273 181.598721 
L 38.609455 180.210786 
L 39.141818 178.98934 
L 39.940364 177.893771 
L 40.472727 177.445669 
L 41.005091 177.257544 
L 41.537455 177.348286 
L 42.069818 177.739759 
L 42.602182 178.471633 
L 43.134545 179.555222 
L 44.199273 182.116824 
L 45.264 184.172494 
L 46.328727 186.682027 
L 47.659636 190.378802 
L 51.386182 201.368323 
L 52.184727 202.809694 
L 52.717091 203.390072 
L 53.249455 203.588555 
L 54.048 203.341055 
L 54.580364 203.568874 
L 55.112727 204.118025 
L 55.645091 204.953475 
L 56.443636 206.642155 
L 56.976 207.750815 
L 58.573091 210.346555 
L 59.371636 211.225621 
L 59.904 211.478638 
L 60.702545 211.594259 
L 61.767273 212.177459 
L 62.299636 212.227242 
L 62.832 211.988976 
L 63.364364 211.430476 
L 63.896727 210.47164 
L 64.429091 209.076182 
L 65.227636 206.117129 
L 66.026182 202.121921 
L 67.090909 195.286474 
L 68.421818 184.828364 
L 70.551273 165.80379 
L 72.946909 144.452955 
L 73.479273 141.291231 
L 74.011636 139.218817 
L 74.277818 138.596255 
L 74.544 138.275255 
L 74.810182 138.256047 
L 75.076364 138.443176 
L 75.342545 138.83046 
L 75.874909 140.283913 
L 76.407273 142.658195 
L 80.4 166.051239 
L 83.594182 185.579191 
L 85.191273 194.11227 
L 86.522182 200.254223 
L 87.853091 205.430058 
L 89.184 209.610275 
L 90.248727 212.250537 
L 91.313455 214.262439 
L 91.579636 214.351419 
L 92.644364 213.861042 
L 93.709091 213.640695 
L 95.04 203.044435 
L 96.637091 190.802549 
L 97.701818 184.497134 
L 98.500364 181.069659 
L 99.298909 178.675186 
L 100.097455 176.998984 
L 101.428364 174.359118 
L 101.960727 172.768639 
L 102.493091 170.520144 
L 103.025455 167.364639 
L 103.557818 163.053029 
L 104.090182 157.343891 
L 104.888727 159.942212 
L 105.154909 160.211053 
L 105.421091 160.045061 
L 105.687273 159.490175 
L 105.953455 158.493126 
L 106.485818 155.137172 
L 107.018182 151.390971 
L 107.550545 151.149614 
L 108.082909 151.141823 
L 108.881455 151.396795 
L 110.212364 151.933455 
L 110.478545 151.850976 
L 111.010909 151.148388 
L 111.809455 149.618433 
L 113.938909 145.266068 
L 114.737455 144.07926 
L 115.536 143.271817 
L 116.068364 142.948594 
L 116.600727 142.837048 
L 117.133091 142.997254 
L 117.665455 143.385662 
L 118.197818 143.998288 
L 118.464 144.739676 
L 118.996364 148.581383 
L 120.061091 156.602516 
L 121.125818 163.244436 
L 122.190545 168.466096 
L 122.989091 171.349835 
L 123.521455 172.723261 
L 124.053818 173.604511 
L 124.586182 173.982217 
L 124.852364 173.955639 
L 125.118545 173.793824 
L 125.650909 173.027582 
L 126.183273 171.657757 
L 126.715636 169.676609 
L 126.981818 168.460349 
L 127.514182 168.598102 
L 128.046545 168.49298 
L 128.578909 168.152427 
L 129.111273 167.579342 
L 129.909818 166.248649 
L 130.708364 164.370312 
L 131.240727 162.667353 
L 132.039273 158.896145 
L 133.902545 148.761616 
L 134.967273 142.916512 
L 135.233455 142.533213 
L 135.765818 142.300566 
L 136.298182 142.294666 
L 136.830545 142.534004 
L 137.362909 143.015288 
L 137.895273 143.753432 
L 138.693818 145.339147 
L 139.492364 147.522826 
L 140.290909 150.361993 
L 141.089455 153.909826 
L 141.888 158.285154 
L 142.686545 163.666369 
L 143.751273 171.946509 
L 144.549818 174.79275 
L 145.348364 178.306893 
L 146.413091 184.165061 
L 147.477818 191.431076 
L 148.276364 197.823529 
L 148.542545 198.312973 
L 149.341091 196.442197 
L 150.139636 194.039779 
L 151.204364 190.025835 
L 152.002909 186.929935 
L 152.269091 186.655232 
L 152.801455 186.90231 
L 153.333818 186.787826 
L 153.866182 186.336377 
L 154.398545 185.575972 
L 155.197091 183.942785 
L 156.261818 181.054614 
L 157.858909 175.841064 
L 160.786909 165.613762 
L 165.045818 146.467437 
L 166.110545 142.964712 
L 166.909091 141.032045 
L 167.441455 140.117372 
L 167.973818 139.52232 
L 168.506182 139.259993 
L 169.038545 139.349061 
L 169.570909 139.755784 
L 170.103273 140.478552 
L 170.901818 142.133693 
L 171.700364 144.364474 
L 173.297455 149.196104 
L 174.362182 151.052474 
L 175.426909 152.463117 
L 176.491636 153.461494 
L 176.757818 153.651892 
L 177.024 153.027849 
L 177.822545 149.575904 
L 178.354909 148.100484 
L 178.887273 147.394881 
L 179.153455 147.328035 
L 179.419636 147.47598 
L 179.685818 148.09231 
L 180.484364 157.525439 
L 181.549091 168.95167 
L 182.613818 178.176917 
L 183.678545 185.380427 
L 184.477091 189.556021 
L 185.275636 192.721806 
L 186.074182 194.914758 
L 186.606545 195.850146 
L 187.138909 196.36309 
L 187.671273 196.462478 
L 188.203636 196.146229 
L 188.736 195.402107 
L 189.268364 194.239015 
L 189.800727 192.647208 
L 190.599273 189.425112 
L 191.397818 185.173873 
L 191.930182 181.746564 
L 192.196364 178.619732 
L 192.994909 165.073015 
L 193.527273 159.220338 
L 194.325818 156.413624 
L 195.124364 154.585927 
L 195.656727 153.794167 
L 196.189091 153.275566 
L 196.721455 153.004349 
L 197.253818 152.928078 
L 198.052364 153.094593 
L 198.850909 153.503129 
L 199.649455 154.073379 
L 200.181818 154.813337 
L 203.109818 159.51448 
L 204.706909 161.638196 
L 206.037818 163.034638 
L 207.102545 163.883128 
L 208.167273 164.496839 
L 209.232 164.88208 
L 210.562909 165.291319 
L 211.361455 165.669127 
L 211.627636 165.653954 
L 211.893818 165.522867 
L 212.16 165.240297 
L 212.692364 164.149875 
L 213.224727 162.193452 
L 213.757091 159.148128 
L 214.289455 155.25278 
L 214.821818 157.083658 
L 215.354182 158.15044 
L 215.886545 158.682809 
L 216.152727 158.748621 
L 216.418909 158.661813 
L 216.951273 158.06874 
L 217.483636 156.940617 
L 218.016 155.305425 
L 218.814545 151.932306 
L 219.613091 147.466172 
L 220.145455 144.168839 
L 220.677818 142.400925 
L 221.210182 141.292074 
L 221.742545 140.632679 
L 222.274909 140.385268 
L 222.807273 140.49398 
L 223.339636 140.88415 
L 224.138182 141.865184 
L 226.267636 144.900036 
L 226.8 145.343847 
L 227.598545 154.750501 
L 228.663273 168.931044 
L 229.195636 164.756063 
L 229.728 162.178969 
L 230.260364 160.983872 
L 230.526545 160.846284 
L 230.792727 160.976017 
L 231.058909 161.366673 
L 231.591273 162.877867 
L 232.123636 165.212799 
L 232.922182 170.016025 
L 233.188364 171.912217 
L 233.454545 172.134046 
L 233.986909 169.346439 
L 234.519273 167.950892 
L 234.785455 167.695205 
L 235.051636 167.691118 
L 235.317818 167.907277 
L 235.850182 168.844185 
L 236.648727 170.996676 
L 237.713455 173.796953 
L 238.245818 174.530985 
L 238.512 174.613936 
L 238.778182 174.458506 
L 239.044364 174.03928 
L 239.310545 173.313984 
L 239.842909 170.836674 
L 240.375273 166.757365 
L 240.907636 160.86419 
L 241.44 152.943659 
L 242.238545 138.778812 
L 243.569455 156.832557 
L 244.101818 159.142227 
L 244.368 159.831597 
L 244.634182 160.184028 
L 244.900364 160.226276 
L 245.166545 159.953208 
L 245.432727 159.332396 
L 245.965091 157.059788 
L 246.497455 153.64921 
L 247.296 161.539804 
L 247.828364 165.121968 
L 248.360727 167.495892 
L 248.893091 168.785895 
L 249.159273 169.073357 
L 249.425455 169.12747 
L 249.691636 168.992603 
L 250.224 168.18373 
L 250.756364 166.797838 
L 251.821091 163.04981 
L 253.950545 155.452961 
L 254.749091 153.459272 
L 255.281455 152.571956 
L 255.813818 152.098617 
L 256.346182 152.016342 
L 256.878545 152.322859 
L 257.410909 152.990658 
L 258.209455 154.556271 
L 259.008 156.192511 
L 259.274182 155.83266 
L 259.540364 154.793004 
L 260.072727 155.372616 
L 260.605091 155.169816 
L 261.137455 155.223303 
L 261.669818 155.561916 
L 262.202182 156.145358 
L 263.000727 157.485604 
L 263.799273 159.262701 
L 265.130182 162.905045 
L 266.993455 168.057508 
L 268.058182 170.408444 
L 268.856727 171.77316 
L 269.655273 172.736148 
L 270.453818 173.312566 
L 271.252364 173.582084 
L 272.849455 173.955843 
L 273.381818 174.369667 
L 273.914182 175.119549 
L 274.446545 176.380573 
L 275.245091 179.222447 
L 275.511273 179.419077 
L 275.777455 178.987425 
L 276.043636 177.914857 
L 276.842182 173.306908 
L 277.640727 180.490099 
L 278.971636 189.818591 
L 280.036364 197.680181 
L 280.834909 205.443992 
L 281.633455 215.965117 
L 282.432 230.278369 
L 283.230545 248.077309 
L 284.029091 236.077443 
L 284.827636 227.142137 
L 285.626182 220.767908 
L 286.424727 216.324559 
L 287.489455 211.84596 
L 288.021818 208.696343 
L 288.288 207.827648 
L 288.554182 207.386851 
L 288.820364 207.343364 
L 289.086545 207.672091 
L 289.352727 208.351563 
L 289.885091 210.661616 
L 290.417455 214.05139 
L 291.216 220.719887 
L 292.014545 228.134741 
L 292.280727 228.197705 
L 293.079273 227.204947 
L 293.345455 226.78908 
L 294.144 226.06994 
L 294.942545 224.879823 
L 295.741091 223.09233 
L 296.539636 220.605991 
L 297.338182 217.3571 
L 298.136727 213.89845 
L 298.935273 211.235659 
L 300 206.893001 
L 304.258909 188.281075 
L 305.323636 177.175908 
L 306.122182 170.768103 
L 306.920727 165.733776 
L 307.719273 161.842273 
L 308.517818 158.88792 
L 309.316364 156.700129 
L 310.114909 154.876658 
L 311.445818 150.36373 
L 312.510545 147.464793 
L 313.309091 145.874479 
L 313.841455 145.142721 
L 314.107636 144.881824 
L 314.373818 145.37879 
L 315.438545 153.523564 
L 315.970909 156.259357 
L 316.503273 158.086071 
L 317.035636 158.997091 
L 317.301818 159.076326 
L 317.568 158.963822 
L 317.834182 158.663128 
L 318.366545 157.525375 
L 318.898909 155.712249 
L 319.697455 151.858665 
L 320.496 146.783201 
L 320.762182 144.885655 
L 321.028364 144.207792 
L 322.625455 146.422481 
L 324.754909 149.404995 
L 326.352 152.099 
L 326.618182 152.585596 
L 327.150545 151.808447 
L 327.416727 152.206332 
L 328.481455 162.696958 
L 329.546182 170.817861 
L 330.344727 175.399871 
L 331.143273 178.714497 
L 331.675636 180.245882 
L 332.208 181.248972 
L 332.740364 181.736245 
L 333.006545 181.786079 
L 333.272727 181.716704 
L 333.805091 181.203748 
L 334.337455 180.219534 
L 334.869818 178.78262 
L 335.668364 175.728458 
L 336.200727 173.620182 
L 336.733091 173.64008 
L 337.265455 173.416475 
L 338.064 172.736327 
L 340.992 169.650223 
L 341.524364 169.372084 
L 342.056727 169.274765 
L 342.589091 169.370628 
L 343.121455 169.689763 
L 344.452364 171.598382 
L 344.984727 171.901323 
L 345.517091 171.964912 
L 346.049455 171.806366 
L 346.848 171.501816 
L 347.912727 175.080123 
L 348.711273 170.706034 
L 351.373091 155.851906 
L 352.704 149.633325 
L 353.502545 146.642943 
L 354.301091 144.499699 
L 354.833455 143.677416 
L 355.099636 143.474246 
L 355.365818 143.448805 
L 355.632 143.597364 
L 355.898182 143.932182 
L 356.430545 145.299862 
L 356.962909 147.712535 
L 357.495273 151.392376 
L 358.027636 156.602988 
L 358.56 163.676638 
L 359.092364 172.999791 
L 359.624727 184.43744 
L 359.890909 183.031407 
L 361.221818 165.436685 
L 362.286545 153.586093 
L 363.351273 143.953383 
L 364.149818 138.298806 
L 364.948364 134.085881 
L 365.480727 132.122 
L 366.013091 130.852023 
L 366.545455 130.314341 
L 366.811636 130.331915 
L 367.077818 130.545659 
L 367.344 130.949495 
L 367.876364 132.391531 
L 368.408727 134.832199 
L 369.207273 140.835363 
L 370.804364 156.420981 
L 371.869091 164.470555 
L 372.933818 170.81864 
L 373.998545 175.758535 
L 375.063273 179.623601 
L 376.660364 184.558565 
L 378.523636 194.137137 
L 379.056 188.903995 
L 380.919273 169.098109 
L 382.250182 156.98602 
L 383.314909 149.344713 
L 384.379636 143.303158 
L 385.178182 140.008763 
L 385.710545 138.476203 
L 386.242909 137.529601 
L 386.509091 137.295831 
L 386.775273 137.216085 
L 387.041455 137.30661 
L 387.307636 137.568733 
L 387.84 138.632578 
L 388.372364 140.443558 
L 390.768 159.101205 
L 391.566545 163.057831 
L 392.098909 164.436213 
L 392.365091 164.773944 
L 392.631273 164.905746 
L 392.897455 164.848057 
L 393.163636 164.607096 
L 393.962182 162.427159 
L 395.293091 157.908521 
L 397.688727 149.703466 
L 399.019636 146.290372 
L 401.681455 140.207897 
L 402.213818 139.403187 
L 403.012364 139.121089 
L 404.077091 138.521721 
L 405.408 137.390238 
L 408.602182 134.468338 
L 409.666909 133.772059 
L 410.731636 131.979368 
L 410.997818 132.048921 
L 411.264 132.380879 
L 411.796364 133.848075 
L 412.328727 136.417021 
L 412.861091 140.074051 
L 413.393455 145.891185 
L 414.458182 157.724713 
L 415.522909 166.849154 
L 416.587636 173.878882 
L 417.652364 179.175115 
L 418.450909 182.095687 
L 419.249455 184.161485 
L 419.781818 185.058124 
L 420.314182 185.557466 
L 420.846545 185.66453 
L 421.378909 185.374539 
L 421.911273 184.684071 
L 422.443636 183.593522 
L 423.242182 181.24196 
L 424.040727 178.088014 
L 425.105455 172.812905 
L 426.436364 165.119401 
L 426.436364 165.119401 
" clip-path="url(#pf58e6fda10)" style="fill: none; stroke: #ffa500; stroke-width: 3; stroke-linecap: square"/>
   </g>
   <g id="patch_3">
    <path d="M 7.2 331.2 
L 7.2 7.2 
" style="fill: none; stroke: #000000; stroke-width: 0.8; stroke-linejoin: miter; stroke-linecap: square"/>
   </g>
   <g id="patch_4">
    <path d="M 446.4 331.2 
L 446.4 7.2 
" style="fill: none; stroke: #000000; stroke-width: 0.8; stroke-linejoin: miter; stroke-linecap: square"/>
   </g>
   <g id="patch_5">
    <path d="M 7.2 331.2 
L 446.4 331.2 
" style="fill: none; stroke: #000000; stroke-width: 0.8; stroke-linejoin: miter; stroke-linecap: square"/>
   </g>
   <g id="patch_6">
    <path d="M 7.2 7.2 
L 446.4 7.2 
" style="fill: none; stroke: #000000; stroke-width: 0.8; stroke-linejoin: miter; stroke-linecap: square"/>
   </g>
  </g>
 </g>
 <defs>
  <clipPath id="pf58e6fda10">
   <rect x="7.2" y="7.2" width="439.2" height="324"/>
  </clipPath>
 </defs>
</svg>
