<?xml version="1.0" encoding="utf-8" standalone="no"?>
<!DOCTYPE svg PUBLIC "-//W3C//DTD SVG 1.1//EN"
  "http://www.w3.org/Graphics/SVG/1.1/DTD/svg11.dtd">
<svg xmlns:xlink="http://www.w3.org/1999/xlink" width="453.6pt" height="338.4pt" viewBox="0 0 453.6 338.4" xmlns="http://www.w3.org/2000/svg" version="1.1">
 <metadata>
  <rdf:RDF xmlns:dc="http://purl.org/dc/elements/1.1/" xmlns:cc="http://creativecommons.org/ns#" xmlns:rdf="http://www.w3.org/1999/02/22-rdf-syntax-ns#">
   <cc:Work>
    <dc:type rdf:resource="http://purl.org/dc/dcmitype/StillImage"/>
    <dc:date>2025-05-14T00:10:20.106938</dc:date>
    <dc:format>image/svg+xml</dc:format>
    <dc:creator>
     <cc:Agent>
      <dc:title>Matplotlib v3.10.1, https://matplotlib.org/</dc:title>
     </cc:Agent>
    </dc:creator>
   </cc:Work>
  </rdf:RDF>
 </metadata>
 <defs>
  <style type="text/css">*{stroke-linejoin: round; stroke-linecap: butt}</style>
 </defs>
 <g id="figure_1">
  <g id="patch_1">
   <path d="M 0 338.4 
L 453.6 338.4 
L 453.6 0 
L 0 0 
z
" style="fill: #ffffff"/>
  </g>
  <g id="axes_1">
   <g id="patch_2">
    <path d="M 7.2 331.2 
L 446.4 331.2 
L 446.4 7.2 
L 7.2 7.2 
z
" style="fill: #ffffff"/>
   </g>
   <g id="matplotlib.axis_1"/>
   <g id="matplotlib.axis_2"/>
   <g id="line2d_1">
    <path d="M 27.163636 191.811378 
L 30.890182 193.734758 
L 34.616727 195.903862 
L 38.343273 198.318718 
L 42.336 201.17879 
L 46.328727 204.32097 
L 50.321455 207.745258 
L 54.314182 211.451578 
L 58.573091 215.716024 
L 62.832 220.301442 
L 67.090909 225.207808 
L 71.616 230.772532 
L 76.141091 236.699575 
L 80.666182 242.989014 
L 85.457455 250.043351 
L 90.248727 257.503899 
L 95.04 265.370735 
L 100.097455 274.115289 
L 105.154909 283.312492 
L 110.212364 292.962319 
L 115.536 303.609016 
L 120.859636 314.757231 
L 121.658182 316.472727 
L 122.456727 307.78381 
L 124.586182 285.03835 
L 126.715636 264.810127 
L 128.578909 249.175318 
L 130.442182 235.467803 
L 132.039273 225.252404 
L 133.636364 216.453045 
L 134.967273 210.201742 
L 136.298182 204.933773 
L 137.629091 200.64914 
L 138.693818 197.92938 
L 139.758545 195.8389 
L 140.557091 194.684064 
L 141.355636 193.883206 
L 142.154182 193.436326 
L 142.686545 193.335032 
L 143.218909 193.391116 
L 143.751273 193.604526 
L 144.549818 194.219581 
L 145.348364 195.18864 
L 146.146909 196.511702 
L 147.211636 198.826364 
L 148.276364 201.770383 
L 149.341091 205.343682 
L 150.672 210.69529 
L 152.002909 217.030157 
L 153.333818 224.348358 
L 154.930909 234.428153 
L 156.528 245.923886 
L 158.391273 261.12512 
L 160.254545 278.253699 
L 160.520727 278.352486 
L 163.448727 273.89877 
L 166.376727 269.854284 
L 169.038545 266.532556 
L 171.700364 263.549046 
L 174.362182 260.903702 
L 176.757818 258.812057 
L 179.153455 256.994334 
L 181.549091 255.450569 
L 183.944727 254.180751 
L 186.340364 253.18484 
L 188.469818 252.529552 
L 190.599273 252.090744 
L 192.728727 251.868341 
L 194.858182 251.862405 
L 196.987636 252.072898 
L 199.117091 252.499847 
L 201.246545 253.143225 
L 203.376 254.003071 
L 205.771636 255.229112 
L 208.167273 256.729061 
L 208.433455 256.912639 
L 208.699636 256.717804 
L 210.829091 241.145257 
L 212.958545 227.206972 
L 214.821818 216.351572 
L 216.685091 206.747416 
L 218.548364 198.394426 
L 220.145455 192.230651 
L 221.742545 186.986093 
L 223.073455 183.317897 
L 224.404364 180.288063 
L 225.469091 178.323798 
L 226.533818 176.768136 
L 227.598545 175.621001 
L 228.397091 175.028794 
L 229.195636 174.666398 
L 229.994182 174.533813 
L 230.792727 174.631064 
L 231.591273 174.958101 
L 232.389818 175.514999 
L 233.188364 176.301683 
L 234.253091 177.708078 
L 235.317818 179.523076 
L 236.382545 181.746653 
L 237.713455 185.100632 
L 239.044364 189.092999 
L 240.375273 193.723705 
L 241.972364 200.123149 
L 243.569455 207.441991 
L 245.432727 217.142503 
L 247.296 228.094105 
L 249.159273 240.297053 
L 251.288727 255.775278 
L 251.821091 259.338266 
L 253.418182 261.148659 
L 255.015273 262.659034 
L 256.612364 263.869379 
L 258.209455 264.779692 
L 259.540364 265.309099 
L 260.871273 265.630161 
L 262.202182 265.742853 
L 263.533091 265.647214 
L 264.864 265.343205 
L 266.194909 264.830864 
L 267.525818 264.110166 
L 269.122909 262.970297 
L 270.72 261.530411 
L 272.317091 259.790532 
L 273.914182 257.750545 
L 275.777455 254.991447 
L 277.640727 251.823924 
L 279.504 248.248117 
L 281.633455 243.661343 
L 283.762909 238.541183 
L 286.158545 232.143503 
L 288.554182 225.070796 
L 290.949818 217.322908 
L 293.611636 207.922491 
L 296.273455 197.688695 
L 299.201455 185.468989 
L 302.129455 172.240695 
L 305.057455 158.00417 
L 308.251636 141.323187 
L 311.179636 126.002979 
L 314.107636 126.734577 
L 317.035636 127.686851 
L 319.963636 128.859853 
L 323.157818 130.391158 
L 326.352 132.185099 
L 329.546182 134.241755 
L 332.740364 136.561022 
L 335.934545 139.142901 
L 339.394909 142.236366 
L 342.855273 145.638113 
L 346.315636 149.348066 
L 350.042182 153.688117 
L 353.768727 158.385704 
L 357.495273 163.440773 
L 361.488 169.253589 
L 365.480727 175.4768 
L 367.610182 178.982502 
L 369.473455 185.667918 
L 371.336727 191.590676 
L 373.2 196.75057 
L 374.797091 200.566166 
L 376.394182 203.821409 
L 377.725091 206.105906 
L 379.056 208.001269 
L 380.386909 209.507448 
L 381.451636 210.432192 
L 382.516364 211.107808 
L 383.581091 211.534373 
L 384.645818 211.711861 
L 385.710545 211.640247 
L 386.775273 211.319581 
L 387.84 210.749787 
L 388.904727 209.930943 
L 389.969455 208.863021 
L 391.300364 207.177844 
L 392.631273 205.103458 
L 393.962182 202.639938 
L 395.559273 199.169903 
L 397.156364 195.139489 
L 398.753455 190.548621 
L 400.616727 184.484323 
L 402.48 177.657162 
L 404.609455 168.920617 
L 406.738909 159.187867 
L 408.868364 148.458758 
L 411.264 135.197483 
L 413.659636 120.67532 
L 416.321455 103.060689 
L 418.983273 83.88927 
L 421.645091 63.161115 
L 424.573091 38.562048 
L 426.436364 21.927273 
L 426.436364 21.927273 
" clip-path="url(#pa6fc2657a9)" style="fill: none; stroke-dasharray: 11.1,4.8; stroke-dashoffset: 0; stroke: #000000; stroke-width: 3"/>
   </g>
   <g id="line2d_2">
    <path d="M 27.163636 179.079625 
L 29.026909 186.403046 
L 30.357818 190.769323 
L 31.422545 193.585874 
L 32.487273 195.751602 
L 33.285818 196.946582 
L 34.084364 197.77648 
L 34.882909 198.271307 
L 35.681455 198.458518 
L 36.48 198.377309 
L 37.278545 198.071969 
L 38.343273 197.397044 
L 39.940364 196.045658 
L 42.336 193.959554 
L 42.602182 194.126372 
L 43.933091 196.753512 
L 44.731636 197.709471 
L 45.796364 199.389224 
L 46.861091 201.481469 
L 48.458182 205.216547 
L 52.450909 215.015282 
L 53.515636 217.031948 
L 54.580364 218.602807 
L 55.378909 219.467655 
L 56.177455 220.083682 
L 56.976 220.473762 
L 58.040727 220.726446 
L 59.371636 220.789208 
L 60.436364 220.780816 
L 60.702545 220.631088 
L 60.968727 220.296632 
L 61.501091 219.04283 
L 62.299636 224.079427 
L 62.832 226.422336 
L 63.364364 227.865958 
L 63.630545 228.251944 
L 63.896727 228.41518 
L 64.162909 228.356691 
L 64.429091 228.077705 
L 64.961455 226.864098 
L 65.493818 224.7881 
L 66.026182 221.866366 
L 66.824727 215.942534 
L 67.623273 208.242619 
L 68.688 195.352925 
L 70.018909 176.146403 
L 70.285091 179.10516 
L 71.083636 191.463719 
L 71.882182 200.463721 
L 72.680727 206.806877 
L 73.479273 211.11377 
L 74.277818 213.886978 
L 74.810182 215.122231 
L 75.608727 216.328162 
L 76.407273 217.047427 
L 77.738182 218.030302 
L 78.270545 218.642005 
L 78.802909 219.543491 
L 79.335273 220.867782 
L 79.867636 222.721517 
L 80.4 225.205454 
L 80.932364 228.278476 
L 81.198545 228.374192 
L 81.464727 228.31143 
L 81.997091 227.764869 
L 82.529455 226.775316 
L 83.328 224.729432 
L 86.522182 215.794239 
L 87.320727 214.395545 
L 88.119273 213.513069 
L 88.651636 213.206808 
L 89.184 213.117591 
L 89.716364 213.221622 
L 90.514909 213.664588 
L 91.579636 214.61177 
L 93.442909 216.404919 
L 93.709091 216.605101 
L 94.241455 219.359965 
L 95.04 224.918254 
L 95.838545 232.033715 
L 96.637091 239.581536 
L 96.903273 239.713174 
L 97.968 238.557225 
L 99.032727 237.762827 
L 100.363636 237.084141 
L 102.226909 236.434622 
L 107.816727 234.680262 
L 109.413818 233.905629 
L 110.212364 233.419271 
L 110.744727 232.707988 
L 111.809455 230.660786 
L 112.874182 228.036179 
L 113.938909 224.826555 
L 115.269818 220.029313 
L 116.068364 221.775153 
L 116.600727 222.46937 
L 117.133091 222.838137 
L 117.665455 222.9392 
L 118.197818 222.815161 
L 118.996364 222.316777 
L 120.061091 221.255661 
L 121.658182 219.231525 
L 124.053818 216.183193 
L 125.384727 214.805403 
L 126.449455 213.95368 
L 127.780364 213.146144 
L 128.312727 213.068185 
L 128.845091 213.229682 
L 129.377455 213.673773 
L 129.909818 214.444849 
L 130.442182 215.587865 
L 130.974545 217.147646 
L 131.773091 220.366072 
L 132.571636 224.769755 
L 133.370182 230.511814 
L 134.168727 236.767262 
L 134.434909 235.451249 
L 135.499636 224.033629 
L 136.564364 214.695359 
L 137.629091 207.286788 
L 138.693818 201.626002 
L 139.492364 198.403995 
L 140.290909 195.956057 
L 141.089455 194.185834 
L 141.888 193.002802 
L 142.686545 192.325497 
L 143.218909 192.09671 
L 143.751273 192.03863 
L 144.283636 192.39289 
L 144.816 193.174175 
L 145.614545 194.900826 
L 146.945455 198.541876 
L 149.607273 206.040125 
L 150.938182 209.732193 
L 152.002909 212.818954 
L 153.067636 215.340451 
L 154.398545 217.890655 
L 155.729455 219.986047 
L 157.592727 222.432885 
L 159.988364 225.139264 
L 160.254545 225.416817 
L 161.053091 227.049876 
L 161.851636 228.273282 
L 162.650182 229.081995 
L 163.448727 229.494859 
L 163.981091 229.556635 
L 164.513455 229.453154 
L 165.312 229.000428 
L 166.110545 228.209906 
L 166.909091 227.106574 
L 167.973818 225.204047 
L 169.304727 222.234519 
L 170.901818 218.036621 
L 171.966545 214.904061 
L 174.096 207.089881 
L 175.160727 204.472924 
L 176.225455 202.540819 
L 177.024 201.221646 
L 177.822545 199.274779 
L 178.621091 198.033105 
L 179.153455 197.518678 
L 179.685818 197.213953 
L 180.218182 197.087124 
L 181.016727 197.16795 
L 181.815273 197.498568 
L 182.88 198.203915 
L 184.743273 199.800437 
L 187.138909 201.819072 
L 188.469818 202.684662 
L 189.800727 203.272647 
L 190.865455 203.510159 
L 191.930182 203.515686 
L 192.994909 203.28654 
L 194.592 199.872768 
L 195.656727 197.959674 
L 196.455273 196.934787 
L 196.987636 196.520529 
L 197.52 196.360311 
L 198.052364 196.491899 
L 198.584727 196.933303 
L 199.117091 197.693378 
L 199.649455 198.799448 
L 200.448 201.083739 
L 201.246545 204.098554 
L 202.311273 209.127526 
L 203.642182 216.602031 
L 206.037818 230.548158 
L 206.304 231.710836 
L 206.570182 230.62031 
L 207.634909 224.508934 
L 208.699636 219.941093 
L 209.764364 216.512711 
L 210.296727 215.292862 
L 212.692364 213.059793 
L 216.152727 209.864062 
L 217.749818 208.099006 
L 219.080727 206.343034 
L 220.411636 204.203941 
L 221.476364 202.125128 
L 222.541091 199.612075 
L 223.872 196.381215 
L 225.469091 193.871462 
L 226.8 192.161109 
L 228.663273 190.169595 
L 231.325091 187.469024 
L 232.389818 186.025708 
L 233.188364 184.642238 
L 233.986909 182.914308 
L 235.051636 179.958392 
L 236.116364 176.155179 
L 236.648727 173.983976 
L 236.914909 175.16445 
L 237.713455 181.718688 
L 238.512 186.863589 
L 239.310545 190.797109 
L 240.109091 193.752923 
L 240.907636 195.908289 
L 241.706182 197.435141 
L 242.504727 198.493084 
L 244.634182 200.61176 
L 245.166545 200.680534 
L 246.231273 200.455405 
L 247.029818 200.314096 
L 247.562182 200.365062 
L 248.094545 200.60063 
L 248.626909 201.066597 
L 249.159273 201.675716 
L 250.224 198.862107 
L 251.288727 196.721044 
L 252.353455 195.162082 
L 253.152 194.330316 
L 253.950545 193.75451 
L 254.749091 193.414604 
L 255.547636 193.281967 
L 256.346182 193.34432 
L 257.410909 193.694025 
L 258.475636 194.319775 
L 259.540364 195.195573 
L 261.403636 197.081956 
L 262.468364 198.52957 
L 263.533091 200.343621 
L 263.799273 200.860018 
L 264.331636 202.803559 
L 265.396364 206.719195 
L 266.194909 208.944998 
L 266.993455 210.533077 
L 267.525818 211.242466 
L 268.058182 211.686071 
L 268.590545 211.862791 
L 269.122909 211.799108 
L 269.655273 211.511627 
L 270.453818 210.705012 
L 271.252364 209.542475 
L 272.583273 207.134835 
L 274.180364 204.300348 
L 274.978909 203.302762 
L 275.511273 202.924298 
L 275.777455 202.845571 
L 276.043636 202.531967 
L 276.576 199.887454 
L 277.108364 198.399645 
L 277.374545 198.030495 
L 277.640727 197.872043 
L 277.906909 197.876059 
L 278.439273 198.335681 
L 278.971636 199.211684 
L 279.770182 201.046563 
L 281.633455 206.220069 
L 283.496727 211.142784 
L 285.093818 214.680391 
L 286.690909 217.612615 
L 288.554182 220.488781 
L 291.482182 224.462087 
L 293.345455 226.852175 
L 295.741091 227.205463 
L 297.870545 227.753457 
L 300 228.501404 
L 302.129455 229.258677 
L 303.194182 229.491341 
L 304.258909 229.458182 
L 305.057455 229.14885 
L 305.589818 228.768442 
L 306.122182 226.888379 
L 311.445818 196.271427 
L 312.244364 193.040694 
L 313.042909 190.525722 
L 313.841455 188.625242 
L 314.64 187.225294 
L 315.438545 186.241115 
L 316.237091 185.596994 
L 317.035636 185.218505 
L 317.834182 185.045699 
L 318.898909 185.045725 
L 320.496 185.340344 
L 322.625455 185.890002 
L 324.754909 194.375014 
L 325.819636 197.605491 
L 326.884364 200.747645 
L 327.949091 204.713327 
L 329.013818 207.737327 
L 329.812364 209.297236 
L 330.344727 209.982293 
L 330.877091 210.392867 
L 331.409455 210.539192 
L 331.941818 210.436823 
L 332.474182 210.101088 
L 333.272727 209.229946 
L 334.071273 207.998915 
L 335.402182 205.430392 
L 337.265455 201.534815 
L 337.531636 201.520282 
L 338.596364 203.723851 
L 339.394909 204.649977 
L 340.193455 205.13022 
L 340.992 205.336927 
L 342.322909 205.39974 
L 343.387636 205.35279 
L 343.92 204.946617 
L 344.718545 203.846432 
L 346.049455 201.904477 
L 346.581818 201.423082 
L 347.114182 201.242933 
L 347.646545 201.429683 
L 348.178909 202.032099 
L 348.711273 203.081317 
L 349.243636 204.590362 
L 350.042182 207.745847 
L 350.840727 211.928316 
L 351.905455 218.897887 
L 352.437818 222.856891 
L 353.768727 224.911065 
L 355.099636 226.533684 
L 356.430545 227.75709 
L 357.761455 228.619201 
L 359.092364 229.155848 
L 360.955636 229.74588 
L 363.617455 230.605022 
L 367.077818 231.478864 
L 372.667636 232.648744 
L 378.789818 233.747906 
L 380.386909 233.750094 
L 382.250182 233.529571 
L 384.113455 233.08003 
L 385.710545 232.474442 
L 387.041455 231.767048 
L 388.372364 230.807213 
L 389.437091 229.795184 
L 389.969455 228.727428 
L 391.566545 223.371394 
L 393.163636 217.381295 
L 394.228364 209.297338 
L 395.026909 204.426562 
L 395.825455 200.767525 
L 396.357818 199.060063 
L 396.890182 197.97285 
L 397.422545 197.516939 
L 397.688727 197.523412 
L 397.954909 197.695399 
L 398.487273 198.510431 
L 399.019636 199.954233 
L 399.552 202.002419 
L 400.350545 206.155951 
L 400.882909 209.298848 
L 401.681455 204.724661 
L 402.48 201.333967 
L 403.278545 198.873544 
L 404.077091 197.138245 
L 404.875636 195.941166 
L 405.674182 195.142867 
L 406.472727 194.628236 
L 407.537455 194.241406 
L 408.868364 194.032882 
L 410.731636 193.970428 
L 412.328727 194.011416 
L 413.127273 193.801792 
L 413.659636 193.488265 
L 414.192 192.985941 
L 414.724364 192.247461 
L 415.522909 190.956253 
L 416.055273 196.134671 
L 416.853818 203.138629 
L 417.386182 206.43788 
L 417.918545 208.78455 
L 418.450909 210.310123 
L 418.983273 211.150101 
L 419.515636 211.444567 
L 420.048 211.337184 
L 420.846545 210.744824 
L 421.911273 209.939412 
L 422.443636 209.875243 
L 422.709818 209.992144 
L 423.242182 210.630302 
L 423.774545 211.931182 
L 424.306909 214.052339 
L 424.839273 217.147237 
L 425.371636 221.365091 
L 426.170182 230.124702 
L 426.436364 233.763309 
L 426.436364 233.763309 
" clip-path="url(#pa6fc2657a9)" style="fill: none; stroke-dasharray: 3,4.95; stroke-dashoffset: 0; stroke: #ffa500; stroke-width: 3"/>
   </g>
   <g id="line2d_3">
    <path d="M 27.163636 186.785809 
L 27.962182 190.308423 
L 29.559273 199.061701 
L 31.156364 207.273407 
L 32.221091 211.537187 
L 33.019636 213.93902 
L 33.818182 215.631821 
L 34.350545 216.375597 
L 34.882909 216.833761 
L 35.415273 217.020971 
L 35.947636 216.953323 
L 36.48 216.669935 
L 37.278545 215.877725 
L 38.077091 214.726676 
L 39.408 212.250005 
L 41.537455 207.566491 
L 42.336 205.751467 
L 42.602182 205.522014 
L 43.666909 206.097258 
L 43.933091 205.578942 
L 44.465455 203.014232 
L 44.731636 202.374333 
L 44.997818 202.165963 
L 45.264 202.104404 
L 45.530182 202.167831 
L 46.062545 202.685046 
L 46.594909 203.668509 
L 47.127273 205.075467 
L 47.925818 207.88534 
L 48.990545 212.704663 
L 50.587636 220.525803 
L 51.652364 224.704358 
L 55.378909 240.44774 
L 56.177455 242.516638 
L 56.709818 243.330839 
L 56.976 243.530894 
L 57.242182 243.585008 
L 57.508364 243.463975 
L 57.774545 243.161206 
L 58.306909 241.948098 
L 58.573091 240.017312 
L 59.637818 227.944199 
L 60.436364 216.36654 
L 61.501091 198.897952 
L 62.565818 207.730163 
L 63.364364 212.264052 
L 63.896727 214.037729 
L 64.162909 214.531508 
L 64.429091 214.7594 
L 64.695273 214.715009 
L 64.961455 214.400125 
L 65.493818 212.970754 
L 66.026182 210.491781 
L 66.558545 206.985619 
L 67.357091 199.921892 
L 68.155636 190.842038 
L 69.220364 175.936626 
L 70.018909 163.680332 
L 70.285091 166.627268 
L 71.083636 179.071591 
L 71.882182 188.158712 
L 72.680727 194.624424 
L 73.479273 199.077794 
L 74.277818 201.99981 
L 74.810182 203.312203 
L 75.342545 204.217169 
L 75.874909 204.789828 
L 76.407273 205.113078 
L 76.939636 205.198841 
L 77.205818 205.453828 
L 77.738182 206.842364 
L 78.270545 208.956255 
L 78.802909 211.9571 
L 79.335273 217.187995 
L 80.932364 234.140429 
L 81.464727 235.931774 
L 81.730909 236.409919 
L 81.997091 236.64321 
L 82.263273 236.655619 
L 82.529455 236.481188 
L 83.061818 235.666629 
L 83.860364 233.571621 
L 85.191273 228.994927 
L 86.788364 223.690704 
L 87.586909 221.64835 
L 88.385455 220.175202 
L 88.917818 219.536558 
L 89.450182 219.199031 
L 89.982545 219.143843 
L 90.514909 219.381201 
L 91.047273 219.908318 
L 91.579636 220.737755 
L 92.378182 222.585069 
L 92.644364 223.351463 
L 93.709091 228.796228 
L 94.773818 239.494365 
L 95.838545 252.719564 
L 96.637091 263.128545 
L 96.903273 264.124455 
L 97.169455 264.63292 
L 97.435636 264.354548 
L 98.234182 261.645265 
L 99.032727 259.764153 
L 99.831273 258.587479 
L 100.363636 258.125798 
L 100.896 257.869762 
L 101.694545 257.787555 
L 102.759273 257.993034 
L 104.090182 258.268464 
L 104.888727 258.19983 
L 105.687273 257.807025 
L 106.219636 257.314334 
L 107.018182 256.174261 
L 107.816727 254.481984 
L 108.615273 252.168218 
L 109.413818 249.184375 
L 110.212364 245.479309 
L 110.744727 242.072739 
L 111.809455 234.98541 
L 112.874182 235.839 
L 113.406545 235.789108 
L 113.938909 235.349737 
L 114.471273 234.536496 
L 115.003636 233.368931 
L 115.269818 232.657085 
L 116.068364 235.158331 
L 116.600727 236.103147 
L 117.133091 236.539012 
L 117.665455 236.536876 
L 118.197818 236.149483 
L 118.730182 235.432379 
L 119.528727 233.842701 
L 120.327273 231.732687 
L 121.392 228.242451 
L 122.456727 224.038234 
L 123.521455 219.058949 
L 124.053818 216.391589 
L 124.586182 214.584726 
L 125.384727 210.925587 
L 126.183273 206.009243 
L 126.981818 199.630011 
L 128.046545 197.577167 
L 128.845091 196.352533 
L 129.643636 195.527752 
L 130.176 195.25813 
L 130.442182 195.406272 
L 130.974545 197.026461 
L 131.773091 200.53119 
L 132.571636 205.52859 
L 133.370182 212.269169 
L 134.168727 220.017006 
L 134.434909 219.253733 
L 135.233455 212.449778 
L 136.032 207.60272 
L 136.564364 205.475065 
L 137.096727 204.238661 
L 137.362909 203.954429 
L 137.629091 203.885476 
L 137.895273 204.043186 
L 138.161455 204.410443 
L 138.693818 205.781888 
L 139.226182 207.631018 
L 139.492364 207.05053 
L 140.290909 204.174594 
L 141.089455 201.988833 
L 141.888 200.340654 
L 143.218909 198.240451 
L 144.549818 196.385181 
L 145.082182 196.287955 
L 145.614545 196.514798 
L 146.413091 197.263435 
L 147.477818 198.705574 
L 149.873455 202.208052 
L 150.672 203.278481 
L 151.470545 204.577492 
L 151.736727 204.861545 
L 152.002909 204.962481 
L 152.801455 201.248588 
L 153.6 196.433435 
L 154.398545 190.292048 
L 154.664727 187.964158 
L 154.930909 187.777075 
L 156.528 198.880912 
L 157.858909 206.643001 
L 158.923636 211.729029 
L 159.988364 215.773975 
L 160.520727 217.787928 
L 161.053091 219.496209 
L 161.585455 220.433951 
L 161.851636 220.651787 
L 162.117818 220.709713 
L 162.384 220.620982 
L 162.916364 220.062037 
L 163.448727 219.047461 
L 164.247273 216.816158 
L 165.312 212.843031 
L 166.642909 206.814476 
L 166.909091 205.516872 
L 167.175273 205.133521 
L 167.973818 207.123219 
L 168.506182 207.995614 
L 169.038545 208.545247 
L 169.570909 208.799748 
L 170.103273 208.787287 
L 170.635636 208.536701 
L 171.168 208.072065 
L 171.700364 207.421318 
L 172.232727 206.276562 
L 173.297455 203.114118 
L 174.362182 200.611427 
L 175.426909 198.638309 
L 176.491636 197.158022 
L 177.290182 196.467618 
L 178.088727 196.467311 
L 179.153455 196.793528 
L 182.613818 198.106049 
L 183.412364 198.073683 
L 184.210909 197.797972 
L 185.009455 197.231556 
L 185.808 196.342606 
L 186.606545 195.097401 
L 187.405091 193.480768 
L 188.469818 190.724446 
L 189.534545 187.650938 
L 189.800727 189.160085 
L 191.664 208.546219 
L 193.261091 223.468799 
L 193.527273 225.557436 
L 194.059636 226.945051 
L 194.325818 226.430702 
L 196.455273 216.58998 
L 197.253818 213.738326 
L 198.052364 211.702036 
L 198.584727 210.877383 
L 199.117091 210.513324 
L 199.383273 210.519184 
L 199.915636 210.890074 
L 200.448 211.754052 
L 200.980364 213.093463 
L 201.778909 215.938926 
L 202.577455 219.666533 
L 203.642182 225.672239 
L 206.304 241.725093 
L 206.570182 240.705759 
L 207.634909 234.837038 
L 208.699636 230.507784 
L 209.764364 227.263696 
L 210.296727 226.165225 
L 211.095273 225.897189 
L 211.893818 225.901999 
L 212.426182 226.105636 
L 214.289455 208.945228 
L 214.821818 206.126784 
L 215.354182 204.327776 
L 215.886545 203.436626 
L 216.152727 203.29634 
L 216.418909 203.342829 
L 216.685091 203.555983 
L 217.217455 204.446622 
L 217.749818 205.847183 
L 218.548364 208.65419 
L 221.476364 220.10062 
L 222.008727 221.364861 
L 222.541091 222.095179 
L 222.807273 222.231858 
L 223.073455 222.18872 
L 223.872 221.584975 
L 224.138182 220.678703 
L 224.670545 214.544582 
L 225.735273 202.463832 
L 226.8 192.818636 
L 227.864727 186.295561 
L 228.929455 181.31689 
L 229.728 178.543323 
L 230.526545 176.542291 
L 231.325091 175.250571 
L 231.857455 174.74052 
L 232.389818 174.5103 
L 232.922182 174.51598 
L 233.454545 174.768281 
L 233.986909 175.236627 
L 234.253091 175.010987 
L 235.584 166.086591 
L 236.382545 162.465293 
L 236.648727 161.619353 
L 236.914909 163.268019 
L 240.109091 201.079134 
L 241.706182 222.486564 
L 242.770909 238.15411 
L 243.569455 237.419941 
L 243.835636 237.620763 
L 244.101818 237.642357 
L 244.368 237.502838 
L 244.900364 236.815734 
L 245.432727 235.683708 
L 246.231273 233.414959 
L 246.497455 232.553821 
L 249.159273 217.645211 
L 251.022545 201.826569 
L 252.885818 187.907511 
L 255.015273 173.648906 
L 256.612364 163.764279 
L 256.878545 164.056724 
L 257.943273 175.130446 
L 259.008 183.918956 
L 260.072727 190.74952 
L 261.137455 195.582122 
L 262.468364 200.328731 
L 264.065455 205.552103 
L 264.864 209.407894 
L 267.525818 219.203969 
L 268.058182 218.134666 
L 268.590545 217.413661 
L 269.389091 216.814239 
L 270.187636 216.581946 
L 271.252364 216.558766 
L 273.115636 216.786018 
L 274.446545 217.113745 
L 275.245091 217.485403 
L 275.777455 217.864557 
L 276.043636 217.77841 
L 276.842182 211.564948 
L 277.374545 210.342386 
L 277.906909 209.905997 
L 278.439273 210.051835 
L 278.971636 210.59131 
L 279.770182 211.851226 
L 282.964364 217.479211 
L 284.029091 218.681176 
L 284.827636 219.262253 
L 285.626182 219.56222 
L 286.424727 219.576676 
L 287.223273 219.313655 
L 288.021818 218.744987 
L 288.820364 217.86141 
L 289.618909 216.638004 
L 290.417455 215.00753 
L 291.216 212.894765 
L 292.280727 210.136524 
L 293.877818 206.870662 
L 294.410182 206.375272 
L 294.942545 206.250311 
L 295.474909 206.402188 
L 296.273455 206.960161 
L 297.604364 208.320169 
L 299.201455 210.00642 
L 300.532364 211.081557 
L 301.597091 211.586517 
L 302.395636 211.69784 
L 303.194182 211.521887 
L 304.258909 211.010429 
L 304.525091 211.201298 
L 305.057455 212.316272 
L 305.589818 213.454734 
L 305.856 213.402488 
L 306.122182 213.019495 
L 307.985455 206.570619 
L 311.445818 193.420309 
L 312.244364 188.638341 
L 313.042909 182.334561 
L 313.841455 174.286988 
L 314.906182 161.316188 
L 316.237091 157.609945 
L 317.568 153.248171 
L 318.100364 151.315325 
L 319.165091 156.453369 
L 320.496 162.451886 
L 321.294545 165.279311 
L 322.093091 167.244472 
L 322.625455 167.944548 
L 323.424 171.265675 
L 323.956364 172.47529 
L 324.222545 172.729612 
L 324.488727 172.742353 
L 324.754909 172.477081 
L 325.021091 171.950732 
L 325.553455 170.063326 
L 326.085818 167.532362 
L 326.352 168.597469 
L 326.618182 170.12248 
L 327.682909 180.697563 
L 330.610909 211.313082 
L 331.409455 217.400177 
L 332.208 221.702669 
L 332.740364 223.431776 
L 333.006545 223.91179 
L 333.272727 224.159382 
L 333.538909 224.12282 
L 333.805091 223.843066 
L 334.071273 223.277699 
L 334.603636 221.341168 
L 335.136 218.323258 
L 335.668364 213.798196 
L 336.733091 199.967486 
L 337.265455 199.88945 
L 337.531636 200.409735 
L 338.596364 204.776345 
L 339.394909 207.206551 
L 340.193455 209.035827 
L 340.992 210.409319 
L 342.056727 211.733839 
L 343.121455 212.670404 
L 343.387636 212.743579 
L 343.92 212.40114 
L 344.718545 211.444925 
L 345.783273 210.098555 
L 346.315636 209.661704 
L 346.848 209.502408 
L 347.380364 209.685345 
L 347.912727 210.257826 
L 348.445091 211.25096 
L 349.243636 213.579489 
L 350.042182 216.881069 
L 351.106909 222.667199 
L 352.437818 231.5285 
L 353.236364 232.080921 
L 353.768727 232.190683 
L 354.301091 232.083224 
L 354.833455 231.752081 
L 355.365818 231.185076 
L 356.164364 229.883045 
L 356.962909 228.000743 
L 358.56 223.276062 
L 359.624727 220.956104 
L 360.157091 219.858682 
L 362.020364 215.870229 
L 366.545455 206.609228 
L 367.610182 203.69146 
L 368.142545 201.984356 
L 368.674909 202.200197 
L 369.739636 202.664833 
L 370.538182 202.81758 
L 371.336727 202.737522 
L 371.602909 204.073096 
L 372.667636 211.149718 
L 373.732364 216.709261 
L 374.797091 220.98041 
L 375.861818 224.244276 
L 377.192727 227.506862 
L 383.847273 242.398228 
L 384.113455 242.735191 
L 384.379636 242.709056 
L 385.178182 241.893089 
L 385.976727 241.389447 
L 386.775273 241.21888 
L 387.307636 241.309019 
L 387.84 241.603664 
L 388.372364 242.138661 
L 388.904727 242.963096 
L 389.969455 245.325526 
L 390.235636 245.39155 
L 392.098909 238.915399 
L 392.897455 237.316306 
L 393.163636 236.973189 
L 394.228364 229.386887 
L 395.026909 225.05785 
L 395.825455 222.053193 
L 396.357818 220.843475 
L 396.890182 220.304257 
L 397.156364 220.294073 
L 397.422545 220.45424 
L 397.688727 220.784731 
L 398.221091 221.981579 
L 398.753455 223.859467 
L 399.552 227.918767 
L 400.350545 233.343831 
L 400.882909 237.325018 
L 401.681455 233.661273 
L 402.48 230.932404 
L 404.875636 223.743308 
L 407.005091 198.415713 
L 408.868364 177.44869 
L 409.933091 167.393048 
L 410.997818 160.635762 
L 411.796364 156.763749 
L 412.594909 153.820395 
L 413.393455 151.714027 
L 414.192 150.333064 
L 414.724364 149.746179 
L 415.256727 149.396448 
L 415.522909 149.974967 
L 416.321455 160.862988 
L 417.652364 180.80318 
L 418.450909 189.459489 
L 419.249455 195.810091 
L 420.048 200.204998 
L 420.846545 203.064635 
L 421.645091 204.819866 
L 422.443636 205.942132 
L 423.508364 207.318054 
L 424.040727 208.304152 
L 424.573091 209.699776 
L 425.105455 211.675913 
L 425.637818 214.401379 
L 426.170182 218.044451 
L 426.436364 220.265545 
L 426.436364 220.265545 
" clip-path="url(#pa6fc2657a9)" style="fill: none; stroke: #ffa500; stroke-width: 3; stroke-linecap: square"/>
   </g>
   <g id="patch_3">
    <path d="M 7.2 331.2 
L 7.2 7.2 
" style="fill: none; stroke: #000000; stroke-width: 0.8; stroke-linejoin: miter; stroke-linecap: square"/>
   </g>
   <g id="patch_4">
    <path d="M 446.4 331.2 
L 446.4 7.2 
" style="fill: none; stroke: #000000; stroke-width: 0.8; stroke-linejoin: miter; stroke-linecap: square"/>
   </g>
   <g id="patch_5">
    <path d="M 7.2 331.2 
L 446.4 331.2 
" style="fill: none; stroke: #000000; stroke-width: 0.8; stroke-linejoin: miter; stroke-linecap: square"/>
   </g>
   <g id="patch_6">
    <path d="M 7.2 7.2 
L 446.4 7.2 
" style="fill: none; stroke: #000000; stroke-width: 0.8; stroke-linejoin: miter; stroke-linecap: square"/>
   </g>
  </g>
 </g>
 <defs>
  <clipPath id="pa6fc2657a9">
   <rect x="7.2" y="7.2" width="439.2" height="324"/>
  </clipPath>
 </defs>
</svg>
