<?xml version="1.0" encoding="utf-8" standalone="no"?>
<!DOCTYPE svg PUBLIC "-//W3C//DTD SVG 1.1//EN"
  "http://www.w3.org/Graphics/SVG/1.1/DTD/svg11.dtd">
<svg xmlns:xlink="http://www.w3.org/1999/xlink" width="453.6pt" height="338.4pt" viewBox="0 0 453.6 338.4" xmlns="http://www.w3.org/2000/svg" version="1.1">
 <metadata>
  <rdf:RDF xmlns:dc="http://purl.org/dc/elements/1.1/" xmlns:cc="http://creativecommons.org/ns#" xmlns:rdf="http://www.w3.org/1999/02/22-rdf-syntax-ns#">
   <cc:Work>
    <dc:type rdf:resource="http://purl.org/dc/dcmitype/StillImage"/>
    <dc:date>2025-05-14T08:58:29.258514</dc:date>
    <dc:format>image/svg+xml</dc:format>
    <dc:creator>
     <cc:Agent>
      <dc:title>Matplotlib v3.10.1, https://matplotlib.org/</dc:title>
     </cc:Agent>
    </dc:creator>
   </cc:Work>
  </rdf:RDF>
 </metadata>
 <defs>
  <style type="text/css">*{stroke-linejoin: round; stroke-linecap: butt}</style>
 </defs>
 <g id="figure_1">
  <g id="patch_1">
   <path d="M 0 338.4 
L 453.6 338.4 
L 453.6 0 
L 0 0 
z
" style="fill: #ffffff"/>
  </g>
  <g id="axes_1">
   <g id="patch_2">
    <path d="M 7.2 331.2 
L 446.4 331.2 
L 446.4 7.2 
L 7.2 7.2 
z
" style="fill: #ffffff"/>
   </g>
   <g id="matplotlib.axis_1"/>
   <g id="matplotlib.axis_2"/>
   <g id="line2d_1">
    <path d="M 27.163636 241.381735 
L 29.825455 228.94867 
L 32.487273 217.546144 
L 35.149091 207.144767 
L 37.544727 198.615189 
L 39.940364 190.851213 
L 42.336 183.831424 
L 44.731636 177.534373 
L 46.861091 172.526359 
L 48.990545 168.057383 
L 51.12 164.112327 
L 53.249455 160.676154 
L 55.112727 158.075056 
L 56.976 155.842033 
L 58.839273 153.966868 
L 60.702545 152.439489 
L 62.299636 151.399495 
L 63.896727 150.601197 
L 65.493818 150.038323 
L 67.090909 149.704506 
L 68.688 149.59333 
L 70.285091 149.698502 
L 71.882182 150.013603 
L 73.479273 150.532366 
L 75.342545 151.386397 
L 77.205818 152.498853 
L 79.069091 153.859614 
L 81.198545 155.705799 
L 83.328 157.848081 
L 85.723636 160.593232 
L 88.119273 163.672515 
L 90.781091 167.459815 
L 93.709091 172.036626 
L 96.903273 177.47565 
L 100.363636 183.835867 
L 104.090182 191.157211 
L 108.349091 200.022555 
L 113.406545 211.080357 
L 120.327273 226.794828 
L 133.902545 257.72624 
L 139.226182 269.219265 
L 143.485091 277.909517 
L 147.211636 285.042866 
L 150.672 291.199362 
L 153.866182 296.425454 
L 156.794182 300.786111 
L 159.456 304.359503 
L 161.851636 307.23213 
L 164.247273 309.75717 
L 166.376727 311.692499 
L 168.506182 313.321151 
L 170.369455 314.482828 
L 172.232727 315.388077 
L 174.096 316.026827 
L 175.693091 316.354543 
L 177.290182 316.472685 
L 178.887273 316.374892 
L 180.484364 316.054803 
L 182.081455 315.506068 
L 183.678545 314.722332 
L 185.275636 313.697228 
L 186.872727 312.424394 
L 187.138909 312.187741 
L 187.405091 311.19365 
L 190.333091 293.091456 
L 193.261091 276.440462 
L 195.922909 262.500355 
L 198.584727 249.643059 
L 201.246545 237.81313 
L 203.908364 226.955078 
L 206.570182 217.013437 
L 209.232 207.932812 
L 211.893818 199.657652 
L 214.555636 192.132599 
L 217.217455 185.302017 
L 219.879273 179.110573 
L 222.541091 173.502751 
L 225.202909 168.42311 
L 227.864727 163.816157 
L 230.526545 159.626452 
L 233.454545 155.433526 
L 236.648727 151.271881 
L 240.109091 147.141031 
L 244.368 142.420046 
L 256.612364 129.102311 
L 260.072727 124.875394 
L 263.000727 120.968566 
L 265.928727 116.680637 
L 268.590545 112.389731 
L 271.252364 107.667439 
L 273.914182 102.458295 
L 276.576 96.706855 
L 278.971636 91.021051 
L 281.367273 84.810553 
L 283.762909 78.034978 
L 286.424727 69.794633 
L 289.086545 60.751316 
L 291.748364 50.849538 
L 294.410182 40.033807 
L 297.072 28.248656 
L 298.402909 21.97521 
L 298.935273 21.942162 
L 302.129455 22.245934 
L 305.323636 22.784791 
L 308.517818 23.561808 
L 311.712 24.580133 
L 314.906182 25.842962 
L 318.100364 27.353635 
L 321.294545 29.115035 
L 324.488727 31.130525 
L 327.682909 33.403157 
L 330.877091 35.93615 
L 334.337455 38.977785 
L 337.797818 42.332683 
L 341.258182 46.005031 
L 344.718545 49.998702 
L 348.178909 54.31779 
L 351.905455 59.337583 
L 355.632 64.744601 
L 359.358545 70.543735 
L 363.085091 76.740022 
L 367.077818 83.825372 
L 371.070545 91.378691 
L 375.063273 99.406055 
L 379.056 107.91371 
L 383.314909 117.524936 
L 387.573818 127.697196 
L 391.832727 138.437972 
L 396.357818 150.481354 
L 400.882909 163.184162 
L 405.408 176.555257 
L 409.933091 190.603719 
L 414.724364 206.226795 
L 419.515636 222.630156 
L 424.306909 239.824359 
L 426.436364 247.722849 
L 426.436364 247.722849 
" clip-path="url(#pd46d298b3e)" style="fill: none; stroke-dasharray: 11.1,4.8; stroke-dashoffset: 0; stroke: #000000; stroke-width: 3"/>
   </g>
   <g id="line2d_2">
    <path d="M 27.163636 241.381723 
L 29.825455 228.948658 
L 32.487273 217.54612 
L 35.149091 207.144742 
L 37.544727 198.615164 
L 39.940364 190.851188 
L 42.336 183.8314 
L 44.731636 177.534349 
L 46.861091 172.526335 
L 48.990545 168.057359 
L 51.12 164.112302 
L 53.249455 160.67613 
L 55.112727 158.075032 
L 56.976 155.842009 
L 58.839273 153.966843 
L 60.702545 152.439465 
L 62.299636 151.399471 
L 63.896727 150.601172 
L 65.493818 150.038298 
L 67.090909 149.704482 
L 68.688 149.593306 
L 70.285091 149.698477 
L 71.882182 150.013579 
L 73.479273 150.532341 
L 75.342545 151.386373 
L 77.205818 152.498829 
L 79.069091 153.85959 
L 81.198545 155.705775 
L 83.328 157.848057 
L 85.723636 160.593208 
L 88.119273 163.672491 
L 90.781091 167.459791 
L 93.709091 172.036601 
L 96.903273 177.475626 
L 100.363636 183.835843 
L 104.090182 191.157187 
L 108.349091 200.022531 
L 113.406545 211.080333 
L 120.327273 226.794804 
L 133.902545 257.726228 
L 139.226182 269.219253 
L 143.485091 277.909505 
L 147.211636 285.042847 
L 150.672 291.199343 
L 153.866182 296.425435 
L 156.794182 300.786093 
L 159.456 304.359491 
L 161.851636 307.232118 
L 164.247273 309.757158 
L 166.376727 311.692487 
L 168.506182 313.321139 
L 170.369455 314.482816 
L 172.232727 315.388065 
L 174.096 316.026815 
L 175.693091 316.354531 
L 177.290182 316.472673 
L 178.887273 316.37488 
L 180.484364 316.054791 
L 182.081455 315.506056 
L 183.678545 314.72232 
L 185.275636 313.697216 
L 186.872727 312.424382 
L 187.138909 312.187728 
L 187.405091 311.193638 
L 190.333091 293.091438 
L 193.261091 276.44045 
L 195.922909 262.500343 
L 198.584727 249.643046 
L 201.246545 237.813118 
L 203.908364 226.955054 
L 206.570182 217.013413 
L 209.232 207.932788 
L 211.893818 199.657628 
L 214.555636 192.132575 
L 217.217455 185.301993 
L 219.879273 179.110549 
L 222.541091 173.502727 
L 225.202909 168.423086 
L 227.864727 163.816133 
L 230.526545 159.626428 
L 233.454545 155.433502 
L 236.648727 151.271856 
L 240.109091 147.141007 
L 244.368 142.420022 
L 256.612364 129.102287 
L 260.072727 124.87537 
L 263.000727 120.968542 
L 265.928727 116.680613 
L 268.590545 112.389707 
L 271.252364 107.667415 
L 273.914182 102.458271 
L 276.576 96.706831 
L 278.971636 91.021027 
L 281.367273 84.810529 
L 283.762909 78.034954 
L 286.424727 69.794584 
L 289.086545 60.751268 
L 291.748364 50.84949 
L 294.410182 40.033758 
L 297.072 28.248607 
L 298.402909 21.975161 
L 298.935273 21.942114 
L 302.129455 22.245885 
L 305.323636 22.784742 
L 308.517818 23.56176 
L 311.712 24.580085 
L 314.906182 25.842914 
L 318.100364 27.353587 
L 321.294545 29.114986 
L 324.488727 31.130476 
L 327.682909 33.403108 
L 330.877091 35.936102 
L 334.337455 38.977737 
L 337.797818 42.332634 
L 341.258182 46.004982 
L 344.718545 49.998654 
L 348.178909 54.317741 
L 351.905455 59.337534 
L 355.632 64.744552 
L 359.358545 70.543687 
L 363.085091 76.739997 
L 367.077818 83.825348 
L 371.070545 91.378667 
L 375.063273 99.406031 
L 379.056 107.913686 
L 383.314909 117.524912 
L 387.573818 127.697172 
L 391.832727 138.437947 
L 396.357818 150.481329 
L 400.882909 163.184138 
L 405.408 176.555233 
L 409.933091 190.603695 
L 414.724364 206.22677 
L 419.515636 222.630132 
L 424.306909 239.824347 
L 426.436364 247.722837 
L 426.436364 247.722837 
" clip-path="url(#pd46d298b3e)" style="fill: none; stroke-dasharray: 3,4.95; stroke-dashoffset: 0; stroke: #ffa500; stroke-width: 3"/>
   </g>
   <g id="line2d_3">
    <path d="M 27.163636 241.381735 
L 29.825455 228.94867 
L 32.487273 217.546144 
L 35.149091 207.144767 
L 37.544727 198.615176 
L 39.940364 190.851201 
L 42.336 183.831412 
L 44.731636 177.534361 
L 46.861091 172.526335 
L 48.990545 168.057359 
L 51.12 164.112302 
L 53.249455 160.67613 
L 55.112727 158.075032 
L 56.976 155.842009 
L 58.839273 153.966843 
L 60.702545 152.439465 
L 62.299636 151.399471 
L 63.896727 150.601172 
L 65.493818 150.038298 
L 67.090909 149.704482 
L 68.688 149.593306 
L 70.285091 149.698477 
L 71.882182 150.013579 
L 73.479273 150.532341 
L 75.342545 151.386373 
L 77.205818 152.498829 
L 79.069091 153.85959 
L 81.198545 155.705799 
L 83.328 157.848081 
L 85.723636 160.593232 
L 88.119273 163.672515 
L 90.781091 167.459815 
L 93.709091 172.036626 
L 96.903273 177.475638 
L 100.363636 183.835855 
L 104.090182 191.157199 
L 108.349091 200.022543 
L 113.406545 211.080357 
L 120.327273 226.79484 
L 133.902545 257.726264 
L 139.226182 269.219289 
L 143.485091 277.909541 
L 147.211636 285.042884 
L 150.672 291.199386 
L 153.866182 296.425484 
L 156.794182 300.786141 
L 159.456 304.359534 
L 161.851636 307.23216 
L 164.247273 309.757201 
L 166.376727 311.692529 
L 168.506182 313.321181 
L 170.369455 314.482858 
L 172.232727 315.388107 
L 174.096 316.026863 
L 175.693091 316.354585 
L 177.290182 316.472727 
L 178.887273 316.374934 
L 180.484364 316.054839 
L 182.081455 315.506104 
L 183.678545 314.722368 
L 185.275636 313.697264 
L 186.872727 312.42443 
L 187.138909 312.187777 
L 187.405091 311.193687 
L 190.333091 293.091498 
L 193.261091 276.440498 
L 195.922909 262.500391 
L 198.584727 249.643095 
L 201.246545 237.813166 
L 203.908364 226.955115 
L 206.570182 217.013473 
L 209.232 207.932848 
L 211.893818 199.657676 
L 214.555636 192.132623 
L 217.217455 185.302041 
L 219.879273 179.110597 
L 222.541091 173.502776 
L 225.202909 168.423134 
L 227.864727 163.816182 
L 230.526545 159.626476 
L 233.454545 155.43355 
L 236.648727 151.271905 
L 240.109091 147.14108 
L 244.368 142.420095 
L 256.612364 129.10236 
L 260.072727 124.875418 
L 263.000727 120.96859 
L 265.928727 116.680662 
L 268.590545 112.389755 
L 271.252364 107.667463 
L 273.914182 102.458319 
L 276.576 96.70688 
L 278.971636 91.021075 
L 281.367273 84.810577 
L 283.762909 78.035002 
L 286.424727 69.794657 
L 289.086545 60.751341 
L 291.748364 50.849562 
L 294.410182 40.033831 
L 297.072 28.248656 
L 298.402909 21.975186 
L 298.935273 21.942138 
L 302.129455 22.245909 
L 305.323636 22.784766 
L 308.517818 23.561784 
L 311.712 24.580133 
L 314.906182 25.842962 
L 318.100364 27.353635 
L 321.294545 29.115035 
L 324.488727 31.130501 
L 327.682909 33.403132 
L 330.877091 35.936126 
L 334.337455 38.977761 
L 337.797818 42.332659 
L 341.258182 46.005006 
L 344.718545 49.998678 
L 348.178909 54.317766 
L 351.905455 59.337558 
L 355.632 64.744577 
L 359.358545 70.543711 
L 363.085091 76.739997 
L 367.077818 83.825348 
L 371.070545 91.378667 
L 375.063273 99.406031 
L 379.056 107.913686 
L 383.314909 117.524912 
L 387.573818 127.697196 
L 391.832727 138.437972 
L 396.357818 150.481354 
L 400.882909 163.184162 
L 405.408 176.555257 
L 409.933091 190.603707 
L 414.724364 206.226807 
L 419.515636 222.630168 
L 424.306909 239.824371 
L 426.436364 247.722862 
L 426.436364 247.722862 
" clip-path="url(#pd46d298b3e)" style="fill: none; stroke: #ffa500; stroke-width: 3; stroke-linecap: square"/>
   </g>
   <g id="patch_3">
    <path d="M 7.2 331.2 
L 7.2 7.2 
" style="fill: none; stroke: #000000; stroke-width: 0.8; stroke-linejoin: miter; stroke-linecap: square"/>
   </g>
   <g id="patch_4">
    <path d="M 446.4 331.2 
L 446.4 7.2 
" style="fill: none; stroke: #000000; stroke-width: 0.8; stroke-linejoin: miter; stroke-linecap: square"/>
   </g>
   <g id="patch_5">
    <path d="M 7.2 331.2 
L 446.4 331.2 
" style="fill: none; stroke: #000000; stroke-width: 0.8; stroke-linejoin: miter; stroke-linecap: square"/>
   </g>
   <g id="patch_6">
    <path d="M 7.2 7.2 
L 446.4 7.2 
" style="fill: none; stroke: #000000; stroke-width: 0.8; stroke-linejoin: miter; stroke-linecap: square"/>
   </g>
  </g>
 </g>
 <defs>
  <clipPath id="pd46d298b3e">
   <rect x="7.2" y="7.2" width="439.2" height="324"/>
  </clipPath>
 </defs>
</svg>
