<?xml version="1.0" encoding="utf-8" standalone="no"?>
<!DOCTYPE svg PUBLIC "-//W3C//DTD SVG 1.1//EN"
  "http://www.w3.org/Graphics/SVG/1.1/DTD/svg11.dtd">
<svg xmlns:xlink="http://www.w3.org/1999/xlink" width="453.6pt" height="338.4pt" viewBox="0 0 453.6 338.4" xmlns="http://www.w3.org/2000/svg" version="1.1">
 <metadata>
  <rdf:RDF xmlns:dc="http://purl.org/dc/elements/1.1/" xmlns:cc="http://creativecommons.org/ns#" xmlns:rdf="http://www.w3.org/1999/02/22-rdf-syntax-ns#">
   <cc:Work>
    <dc:type rdf:resource="http://purl.org/dc/dcmitype/StillImage"/>
    <dc:date>2025-05-14T00:09:59.030618</dc:date>
    <dc:format>image/svg+xml</dc:format>
    <dc:creator>
     <cc:Agent>
      <dc:title>Matplotlib v3.10.1, https://matplotlib.org/</dc:title>
     </cc:Agent>
    </dc:creator>
   </cc:Work>
  </rdf:RDF>
 </metadata>
 <defs>
  <style type="text/css">*{stroke-linejoin: round; stroke-linecap: butt}</style>
 </defs>
 <g id="figure_1">
  <g id="patch_1">
   <path d="M 0 338.4 
L 453.6 338.4 
L 453.6 0 
L 0 0 
z
" style="fill: #ffffff"/>
  </g>
  <g id="axes_1">
   <g id="patch_2">
    <path d="M 7.2 331.2 
L 446.4 331.2 
L 446.4 7.2 
L 7.2 7.2 
z
" style="fill: #ffffff"/>
   </g>
   <g id="matplotlib.axis_1"/>
   <g id="matplotlib.axis_2"/>
   <g id="line2d_1">
    <path d="M 27.163636 21.927273 
L 100.896 211.577159 
L 216.685091 265.585881 
L 334.603636 300.683695 
L 426.436364 105.101283 
L 426.436364 105.101283 
" clip-path="url(#p0bfdb570da)" style="fill: none; stroke-dasharray: 11.1,4.8; stroke-dashoffset: 0; stroke: #000000; stroke-width: 3"/>
   </g>
   <g id="line2d_2">
    <path d="M 27.163636 136.230345 
L 27.429818 131.155258 
L 27.696 132.446132 
L 28.228364 142.067567 
L 28.494545 142.084 
L 28.760727 141.170316 
L 29.026909 142.42023 
L 29.293091 147.297253 
L 29.559273 148.394931 
L 29.825455 148.811192 
L 30.091636 150.435104 
L 30.357818 157.13948 
L 30.624 158.73153 
L 30.890182 159.367189 
L 31.156364 161.399181 
L 31.422545 176.595983 
L 31.688727 176.673512 
L 31.954909 175.824625 
L 32.221091 175.979101 
L 32.487273 177.403574 
L 33.019636 176.086887 
L 33.285818 176.071212 
L 33.552 178.023859 
L 33.818182 177.875942 
L 34.350545 177.184635 
L 34.616727 178.999239 
L 35.149091 176.945789 
L 35.415273 176.634015 
L 35.681455 185.613532 
L 35.947636 186.433695 
L 36.213818 186.579214 
L 36.48 187.621597 
L 36.746182 189.226853 
L 37.012364 188.982964 
L 37.278545 188.48547 
L 37.544727 188.4717 
L 37.810909 189.463442 
L 38.077091 189.376216 
L 38.609455 188.568712 
L 38.875636 189.580326 
L 39.674182 187.576987 
L 39.940364 188.116798 
L 40.472727 187.880544 
L 40.738909 188.163576 
L 41.005091 188.836493 
L 41.271273 188.769296 
L 42.069818 188.175372 
L 42.602182 186.885274 
L 42.868364 185.988516 
L 43.134545 185.514086 
L 43.933091 181.901135 
L 44.199273 180.06546 
L 44.465455 179.976276 
L 44.731636 179.59669 
L 44.997818 179.863606 
L 45.264 180.577941 
L 46.062545 179.071231 
L 46.328727 179.258221 
L 46.861091 177.850058 
L 47.127273 177.031605 
L 47.393455 177.093635 
L 48.192 174.25555 
L 48.458182 175.689774 
L 49.256727 174.440618 
L 49.522909 174.766215 
L 50.321455 173.636888 
L 50.587636 173.696837 
L 51.386182 172.054941 
L 51.652364 172.084828 
L 52.450909 170.125463 
L 52.717091 173.429691 
L 52.983273 173.526775 
L 53.249455 173.375913 
L 53.515636 173.47818 
L 53.781818 173.705389 
L 54.580364 172.594435 
L 54.846545 172.530059 
L 55.645091 171.222047 
L 55.911273 171.16268 
L 56.709818 169.786501 
L 56.976 172.369606 
L 57.242182 172.382654 
L 57.508364 172.156115 
L 58.040727 172.091704 
L 59.904 169.726216 
L 60.170182 169.744924 
L 60.436364 169.44865 
L 60.968727 168.40401 
L 61.234909 178.823234 
L 61.501091 178.963922 
L 63.098182 178.328685 
L 65.227636 176.657184 
L 65.493818 176.926023 
L 66.292364 177.142758 
L 66.824727 177.425156 
L 67.357091 177.567202 
L 68.954182 177.963045 
L 69.486545 178.156876 
L 69.752727 180.107478 
L 71.349818 181.500037 
L 73.479273 183.484175 
L 73.745455 183.788789 
L 74.011636 184.749587 
L 75.076364 185.839736 
L 76.407273 186.928297 
L 77.738182 188.013649 
L 78.004364 188.110768 
L 78.270545 190.919407 
L 80.4 191.735797 
L 81.198545 191.608986 
L 81.730909 191.314457 
L 82.529455 190.259996 
L 83.594182 188.18879 
L 84.925091 186.716093 
L 85.457455 186.532929 
L 86.522182 186.659881 
L 86.788364 187.328478 
L 87.586909 187.420783 
L 88.651636 188.184329 
L 89.716364 189.096445 
L 90.781091 189.798085 
L 91.313455 190.091996 
L 91.845818 190.530457 
L 93.176727 192.267479 
L 94.507636 193.377746 
L 95.04 193.511046 
L 95.306182 195.529408 
L 95.572364 195.821468 
L 96.104727 196.184534 
L 96.370909 196.47111 
L 96.903273 196.577574 
L 98.766545 196.744463 
L 99.298909 196.744481 
L 99.831273 197.085823 
L 101.162182 197.651342 
L 102.226909 197.630236 
L 102.759273 197.765863 
L 103.291636 197.954228 
L 103.557818 198.163276 
L 103.824 199.020608 
L 104.356364 199.987807 
L 104.888727 201.391985 
L 106.485818 206.673828 
L 107.550545 210.158733 
L 107.816727 211.683217 
L 108.082909 224.081394 
L 108.349091 227.410361 
L 108.881455 228.774355 
L 111.010909 233.734233 
L 111.277091 233.99057 
L 111.809455 233.893628 
L 112.075636 233.707996 
L 112.341818 234.744948 
L 113.406545 234.198454 
L 114.737455 233.265709 
L 115.269818 233.0312 
L 115.536 233.01251 
L 116.334545 232.660782 
L 116.600727 232.971321 
L 118.197818 232.504067 
L 119.528727 231.831327 
L 119.794909 231.92908 
L 120.327273 232.559608 
L 120.593455 232.731205 
L 120.859636 233.43318 
L 121.658182 233.555618 
L 122.190545 233.537351 
L 124.852364 232.664027 
L 125.118545 232.97178 
L 126.183273 232.947659 
L 127.780364 233.644238 
L 129.111273 233.902409 
L 129.377455 236.52665 
L 130.176 237.852665 
L 130.708364 238.755012 
L 131.240727 239.217647 
L 131.506909 239.706977 
L 132.305455 240.512488 
L 132.837818 241.411273 
L 133.370182 241.949339 
L 133.636364 243.243898 
L 134.168727 243.368593 
L 134.701091 243.468673 
L 135.499636 243.739152 
L 136.032 244.112708 
L 136.298182 244.155343 
L 136.830545 243.914945 
L 137.362909 243.282406 
L 137.629091 242.926694 
L 137.895273 243.656809 
L 138.427636 243.404668 
L 139.492364 242.916255 
L 141.888 240.199092 
L 142.154182 240.200115 
L 142.686545 239.733566 
L 143.751273 238.463022 
L 144.549818 237.493708 
L 145.348364 236.656353 
L 146.146909 235.555925 
L 146.413091 235.597537 
L 147.211636 235.169814 
L 147.744 234.916404 
L 150.405818 233.488052 
L 150.672 233.696817 
L 151.470545 233.287467 
L 153.333818 232.205236 
L 155.463273 230.706813 
L 156.528 230.252783 
L 157.592727 230.157957 
L 158.391273 230.295524 
L 159.189818 230.590017 
L 159.988364 230.899816 
L 162.117818 231.490778 
L 163.182545 231.931513 
L 163.448727 232.362762 
L 164.779636 233.331583 
L 165.312 233.604248 
L 165.844364 233.974208 
L 166.642909 234.414202 
L 167.441455 234.887698 
L 167.707636 235.236781 
L 170.901818 237.190222 
L 172.765091 238.563526 
L 174.362182 239.902941 
L 178.088727 242.021031 
L 180.218182 242.682381 
L 180.484364 242.615308 
L 181.815273 242.943127 
L 185.009455 242.91421 
L 189.800727 241.519923 
L 190.066909 241.682492 
L 190.333091 242.267812 
L 190.865455 244.503827 
L 191.664 249.287276 
L 192.196364 253.448096 
L 192.994909 260.052603 
L 193.793455 265.02038 
L 194.592 268.796746 
L 195.124364 270.050081 
L 195.656727 270.800826 
L 196.987636 271.151214 
L 197.52 270.980464 
L 198.584727 270.393628 
L 199.117091 270.323416 
L 199.649455 270.17534 
L 200.181818 270.194419 
L 201.246545 269.937799 
L 202.843636 269.418741 
L 203.376 269.440817 
L 203.908364 269.486343 
L 207.102545 270.712524 
L 208.433455 271.828821 
L 209.498182 273.187561 
L 212.16 276.528623 
L 215.088 279.552375 
L 216.152727 280.102149 
L 218.016 280.231781 
L 218.548364 280.006053 
L 219.613091 278.867151 
L 220.145455 278.082305 
L 220.677818 276.944638 
L 222.008727 272.75938 
L 222.807273 269.705018 
L 224.138182 262.975252 
L 226.001455 252.571527 
L 226.8 249.289956 
L 227.598545 247.139388 
L 228.397091 245.716501 
L 229.195636 244.922099 
L 229.994182 244.453011 
L 231.857455 243.597459 
L 233.986909 242.884553 
L 235.584 242.791349 
L 237.181091 242.901867 
L 239.842909 243.569001 
L 243.569455 244.798638 
L 246.497455 245.08629 
L 248.094545 245.790663 
L 249.159273 246.410718 
L 251.288727 247.918732 
L 254.216727 250.486092 
L 255.813818 252.698056 
L 256.612364 254.23534 
L 257.144727 255.499007 
L 258.741818 260.941056 
L 259.540364 264.725392 
L 260.605091 271.536972 
L 261.669818 278.48827 
L 262.468364 282.724309 
L 263.266909 286.018293 
L 264.065455 288.194146 
L 265.662545 291.134463 
L 266.993455 292.945646 
L 268.324364 294.3856 
L 268.856727 294.917847 
L 269.389091 295.564985 
L 270.187636 296.395252 
L 272.050909 298.862002 
L 273.115636 300.020757 
L 273.381818 300.030208 
L 274.712727 301.722762 
L 275.777455 302.637346 
L 276.043636 302.688515 
L 276.309818 302.203135 
L 276.576 299.443337 
L 276.842182 294.040573 
L 277.108364 291.598367 
L 277.374545 291.244065 
L 277.906909 291.62344 
L 279.237818 291.841057 
L 279.770182 291.835133 
L 281.367273 291.866518 
L 281.633455 291.867082 
L 282.165818 292.256931 
L 282.698182 292.452084 
L 284.029091 293.482477 
L 285.36 294.249303 
L 285.892364 294.548593 
L 286.690909 295.130774 
L 288.554182 296.208703 
L 289.618909 296.495932 
L 290.151273 296.566532 
L 290.417455 297.096521 
L 291.216 297.376345 
L 293.079273 297.911166 
L 294.410182 297.974959 
L 294.942545 298.17505 
L 295.741091 298.063085 
L 297.072 297.512501 
L 298.669091 296.344507 
L 298.935273 296.570834 
L 299.467636 296.123151 
L 300.798545 294.767761 
L 301.330909 294.281253 
L 302.928 291.796483 
L 303.194182 291.788442 
L 304.258909 289.872382 
L 305.856 285.959437 
L 306.920727 283.538284 
L 307.186909 282.956737 
L 307.453091 283.193785 
L 309.316364 280.171937 
L 310.114909 279.182804 
L 310.913455 278.265645 
L 311.445818 277.66428 
L 311.712 277.627746 
L 313.575273 275.730024 
L 314.64 274.686442 
L 315.704727 273.777924 
L 315.970909 273.78339 
L 318.632727 271.462141 
L 319.697455 270.670454 
L 319.963636 270.404277 
L 320.229818 270.335124 
L 320.762182 269.712847 
L 322.093091 267.733628 
L 322.891636 266.299986 
L 324.222545 263.15704 
L 324.488727 266.12511 
L 325.021091 264.142718 
L 326.085818 259.210805 
L 327.150545 253.635174 
L 328.481455 247.652979 
L 329.013818 245.612365 
L 329.546182 244.152205 
L 330.344727 242.700472 
L 331.143273 241.555117 
L 332.208 240.393047 
L 334.071273 238.731561 
L 335.668364 237.676131 
L 339.394909 235.424142 
L 339.661091 235.007562 
L 339.927273 234.235482 
L 340.193455 232.82314 
L 340.725818 227.637217 
L 341.258182 222.182896 
L 341.524364 220.330947 
L 342.056727 218.725497 
L 342.589091 218.086963 
L 343.653818 217.271401 
L 344.984727 216.753543 
L 346.581818 216.388344 
L 347.380364 216.170868 
L 348.445091 215.648918 
L 350.574545 214.257841 
L 351.373091 213.960773 
L 352.704 212.983065 
L 355.632 210.951091 
L 356.696727 210.396204 
L 357.229091 210.096245 
L 357.761455 209.689363 
L 358.293818 209.134935 
L 358.56 206.20347 
L 359.358545 205.254856 
L 359.890909 204.877455 
L 361.221818 204.489405 
L 362.552727 204.392922 
L 362.818909 204.175975 
L 363.351273 204.016579 
L 366.545455 202.133562 
L 366.811636 201.804121 
L 367.344 200.94321 
L 369.739636 197.38215 
L 370.804364 195.740836 
L 371.070545 195.383113 
L 371.336727 194.569685 
L 371.869091 193.971864 
L 372.933818 192.47189 
L 373.732364 191.968031 
L 374.264727 192.057603 
L 375.063273 192.100202 
L 375.329455 191.94324 
L 375.595636 185.873025 
L 376.128 185.646874 
L 376.394182 185.377242 
L 376.660364 184.788378 
L 377.458909 184.490693 
L 377.725091 183.974122 
L 378.257455 183.918439 
L 378.523636 183.628248 
L 378.789818 183.090429 
L 379.322182 182.544553 
L 379.588364 182.134268 
L 379.854545 179.804133 
L 380.386909 179.577735 
L 380.653091 179.148178 
L 380.919273 178.360159 
L 381.717818 177.082809 
L 381.984 176.360275 
L 382.782545 175.718197 
L 383.048727 175.065046 
L 383.314909 174.750893 
L 383.847273 173.44452 
L 384.113455 170.37674 
L 384.912 168.382481 
L 385.178182 167.066605 
L 385.976727 164.903994 
L 386.242909 163.752803 
L 387.041455 161.603715 
L 387.573818 159.320499 
L 388.106182 157.26719 
L 388.372364 153.38265 
L 388.904727 152.056652 
L 389.170909 151.1399 
L 389.437091 149.530852 
L 390.235636 147.302931 
L 390.501818 146.177924 
L 391.300364 145.003952 
L 391.566545 143.897441 
L 392.098909 142.615947 
L 392.365091 141.407064 
L 392.631273 141.243454 
L 393.962182 136.133738 
L 394.494545 134.781028 
L 394.760727 133.574366 
L 395.293091 132.545419 
L 395.559273 131.699283 
L 396.091636 129.310856 
L 396.624 127.009355 
L 396.890182 123.354668 
L 397.688727 121.130044 
L 397.954909 119.963619 
L 398.753455 118.178249 
L 399.019636 117.068282 
L 399.818182 115.656222 
L 400.616727 112.728954 
L 400.882909 111.644095 
L 401.149091 108.648096 
L 402.48 104.841384 
L 403.012364 103.721332 
L 403.278545 102.858251 
L 404.077091 101.476836 
L 404.609455 99.957325 
L 405.141818 98.68486 
L 405.408 96.918303 
L 406.738909 95.550412 
L 407.271273 95.347324 
L 407.537455 95.043838 
L 408.336 95.096841 
L 408.602182 94.741428 
L 408.868364 94.59508 
L 409.400727 94.04171 
L 409.666909 95.509276 
L 410.199273 95.143072 
L 410.465455 95.013052 
L 410.731636 94.424506 
L 411.530182 93.64077 
L 411.796364 93.033975 
L 412.328727 93.095652 
L 412.594909 92.89967 
L 413.127273 91.919776 
L 413.659636 90.90557 
L 413.925818 88.502719 
L 414.724364 88.412389 
L 414.990545 88.07683 
L 415.522909 87.8815 
L 416.055273 86.998143 
L 416.321455 87.042523 
L 416.587636 86.879125 
L 416.853818 86.46482 
L 417.918545 83.278869 
L 418.184727 81.69121 
L 419.249455 81.261547 
L 419.515636 81.118462 
L 419.781818 80.765235 
L 421.911273 76.02532 
L 422.177455 75.233967 
L 422.443636 73.987333 
L 422.709818 73.915005 
L 423.242182 73.365497 
L 424.573091 71.989107 
L 424.839273 71.95259 
L 425.371636 71.403029 
L 425.637818 71.452346 
L 425.904 72.09959 
L 426.170182 76.384577 
L 426.436364 102.667682 
L 426.436364 102.667682 
" clip-path="url(#p0bfdb570da)" style="fill: none; stroke-dasharray: 3,4.95; stroke-dashoffset: 0; stroke: #ff0000; stroke-width: 3"/>
   </g>
   <g id="line2d_3">
    <path d="M 27.163636 120.288176 
L 27.429818 110.922355 
L 27.696 112.557357 
L 28.228364 124.227817 
L 28.494545 123.913787 
L 28.760727 122.529374 
L 29.026909 123.85151 
L 29.293091 129.693105 
L 29.559273 130.802984 
L 29.825455 131.094445 
L 30.091636 132.77053 
L 30.357818 140.268321 
L 30.624 141.957842 
L 30.890182 142.570774 
L 31.156364 144.646617 
L 31.422545 161.545811 
L 31.688727 161.264859 
L 31.954909 159.954889 
L 32.221091 159.845146 
L 32.487273 161.130536 
L 33.019636 159.123635 
L 33.285818 158.915786 
L 33.552 160.959327 
L 33.818182 160.587534 
L 34.350545 159.307434 
L 34.616727 161.09968 
L 35.415273 157.35893 
L 35.681455 166.77384 
L 35.947636 167.587215 
L 36.213818 167.607421 
L 36.48 168.719663 
L 36.746182 170.465219 
L 37.012364 170.04409 
L 37.278545 169.360665 
L 37.544727 169.23061 
L 37.810909 170.244851 
L 38.077091 170.023179 
L 38.609455 168.828312 
L 38.875636 169.984952 
L 39.674182 167.373477 
L 39.940364 167.990781 
L 40.472727 167.669557 
L 40.738909 168.006756 
L 41.005091 168.851164 
L 41.271273 168.793119 
L 42.069818 168.246766 
L 42.602182 166.815663 
L 42.868364 165.778464 
L 43.134545 165.30183 
L 43.933091 161.292753 
L 44.199273 158.152769 
L 44.465455 158.138628 
L 44.731636 157.766165 
L 44.997818 158.176996 
L 45.264 159.14162 
L 46.062545 157.578875 
L 46.328727 157.912265 
L 46.861091 156.442336 
L 47.127273 155.563546 
L 47.393455 155.772417 
L 48.192 152.711602 
L 48.458182 154.532695 
L 49.256727 153.295053 
L 49.522909 153.79267 
L 50.321455 152.774796 
L 50.587636 152.985325 
L 51.12 152.00201 
L 51.386182 151.410942 
L 51.652364 151.589522 
L 52.450909 149.601875 
L 52.717091 153.367168 
L 52.983273 153.572937 
L 53.249455 153.501808 
L 53.515636 153.746755 
L 53.781818 154.160337 
L 54.048 153.867924 
L 54.314182 153.400811 
L 54.580364 153.26469 
L 54.846545 153.337582 
L 55.645091 152.191698 
L 55.911273 152.267164 
L 56.709818 150.957723 
L 56.976 154.075103 
L 57.242182 154.186997 
L 57.508364 154.033279 
L 57.774545 154.066251 
L 58.040727 154.227234 
L 58.839273 153.268886 
L 59.105455 153.265924 
L 59.904 152.35328 
L 60.170182 152.497018 
L 60.436364 152.260287 
L 60.968727 151.420076 
L 61.234909 159.763156 
L 61.501091 159.9356 
L 63.364364 159.211655 
L 65.227636 157.624719 
L 65.493818 157.940265 
L 66.292364 158.200023 
L 66.824727 158.533026 
L 67.357091 158.71164 
L 69.220364 159.175157 
L 69.486545 159.297736 
L 69.752727 161.478597 
L 71.616 163.000012 
L 73.745455 164.888777 
L 74.011636 166.099512 
L 75.342545 167.556746 
L 75.874909 168.023225 
L 76.673455 168.830323 
L 76.939636 169.083521 
L 77.472 169.820761 
L 78.004364 170.159229 
L 78.270545 173.010891 
L 79.335273 173.831248 
L 79.867636 174.378129 
L 80.666182 174.843092 
L 81.464727 175.076472 
L 81.730909 175.052492 
L 82.529455 174.5602 
L 83.328 173.473807 
L 84.658909 172.630352 
L 85.191273 172.469228 
L 85.723636 172.669178 
L 86.522182 172.991072 
L 86.788364 173.838618 
L 87.586909 174.056165 
L 88.119273 174.565525 
L 88.917818 175.587031 
L 91.313455 179.85375 
L 91.845818 180.978087 
L 92.910545 183.744444 
L 93.709091 185.383854 
L 94.507636 186.702322 
L 95.04 187.240211 
L 95.306182 189.465082 
L 95.838545 190.254089 
L 96.637091 191.383928 
L 97.968 191.891877 
L 98.766545 191.936699 
L 99.298909 191.874915 
L 99.565091 192.10692 
L 100.896 192.387837 
L 101.694545 191.942764 
L 102.493091 191.443137 
L 103.557818 191.202739 
L 103.824 191.914376 
L 104.356364 192.804028 
L 104.888727 194.329076 
L 106.219636 198.955704 
L 107.816727 205.779062 
L 108.082909 217.965618 
L 108.349091 221.382428 
L 108.881455 223.031959 
L 110.478545 227.917323 
L 111.010909 229.417297 
L 111.543273 230.248516 
L 112.075636 230.638471 
L 112.341818 232.006591 
L 112.874182 232.376374 
L 113.406545 232.731346 
L 113.938909 232.76915 
L 114.737455 232.726586 
L 115.269818 232.745382 
L 115.536 232.843276 
L 116.334545 232.739281 
L 116.600727 233.157623 
L 117.931636 233.286303 
L 118.730182 233.089739 
L 119.262545 232.83781 
L 119.528727 232.645654 
L 119.794909 232.715301 
L 120.593455 233.568172 
L 120.859636 234.536429 
L 121.658182 235.369834 
L 122.456727 236.30734 
L 124.852364 238.198715 
L 125.118545 238.711355 
L 126.449455 240.075914 
L 127.248 240.944865 
L 128.845091 242.197142 
L 129.111273 242.20356 
L 129.377455 244.65698 
L 130.176 246.291665 
L 130.708364 247.392692 
L 131.240727 247.989473 
L 131.506909 248.535155 
L 132.305455 249.462999 
L 132.837818 250.438626 
L 133.370182 251.032056 
L 133.636364 252.322489 
L 134.168727 252.455436 
L 134.701091 252.526953 
L 135.765818 252.991174 
L 136.298182 253.10134 
L 136.830545 252.74658 
L 137.362909 251.960817 
L 137.629091 251.51853 
L 137.895273 252.149235 
L 138.427636 251.74454 
L 139.492364 250.872379 
L 141.888 246.906783 
L 142.154182 246.730496 
L 142.686545 245.992869 
L 146.146909 240.092135 
L 146.413091 240.123274 
L 147.211636 239.508226 
L 147.744 239.1474 
L 149.074909 238.122579 
L 149.607273 237.758156 
L 150.405818 237.259305 
L 150.672 237.432736 
L 151.470545 236.885255 
L 153.333818 235.370716 
L 155.729455 232.928475 
L 156.794182 232.248047 
L 158.657455 231.687518 
L 160.520727 231.620974 
L 161.319273 231.352752 
L 162.650182 231.18976 
L 163.182545 231.024299 
L 163.448727 231.534929 
L 164.779636 231.793206 
L 165.312 231.805795 
L 165.844364 231.933382 
L 166.376727 231.881649 
L 167.441455 231.988641 
L 167.707636 232.220646 
L 170.901818 232.774933 
L 171.700364 232.915251 
L 171.966545 232.905024 
L 175.160727 234.371109 
L 177.556364 235.072414 
L 178.088727 235.005552 
L 181.549091 235.125875 
L 182.081455 235.257376 
L 185.275636 236.073008 
L 187.671273 237.146776 
L 188.469818 237.80266 
L 189.534545 238.860594 
L 189.800727 239.189153 
L 190.066909 239.711808 
L 190.599273 242.027238 
L 191.131636 245.358355 
L 191.930182 251.611875 
L 193.527273 266.292405 
L 194.592 273.520105 
L 195.390545 276.835354 
L 195.922909 278.359237 
L 197.253818 281.534909 
L 198.052364 282.459825 
L 198.584727 283.0565 
L 199.117091 283.848435 
L 199.649455 284.460026 
L 200.448 285.675205 
L 201.246545 286.750701 
L 202.311273 287.944086 
L 204.706909 290.627889 
L 205.239273 291.211163 
L 206.304 292.27012 
L 207.901091 293.065263 
L 208.167273 293.190487 
L 208.965818 293.82486 
L 210.562909 294.770618 
L 211.893818 294.950467 
L 213.224727 294.485716 
L 214.023273 294.029076 
L 214.821818 293.58418 
L 215.354182 293.084059 
L 216.152727 292.139253 
L 218.282182 288.433098 
L 218.814545 287.131592 
L 219.613091 284.814787 
L 220.411636 282.122979 
L 221.476364 277.349898 
L 222.807273 270.43457 
L 224.404364 260.112835 
L 226.001455 249.538218 
L 226.8 245.285323 
L 227.598545 242.16156 
L 228.397091 239.884463 
L 229.195636 238.477058 
L 229.728 237.843955 
L 231.058909 236.714328 
L 231.857455 236.271653 
L 233.720727 235.486983 
L 234.519273 235.474076 
L 237.181091 235.876479 
L 240.109091 237.039149 
L 241.173818 237.585783 
L 244.634182 238.906367 
L 245.698909 239.259083 
L 246.763636 239.899168 
L 248.893091 241.653928 
L 251.022545 243.719615 
L 253.950545 247.078944 
L 255.015273 248.810677 
L 256.08 250.858555 
L 256.878545 252.883406 
L 257.410909 254.662746 
L 258.741818 259.853888 
L 259.540364 264.04902 
L 260.605091 271.508161 
L 261.936 281.008058 
L 263.266909 288.24334 
L 264.065455 291.269208 
L 266.194909 297.32306 
L 268.058182 301.138394 
L 269.655273 304.186197 
L 271.252364 307.29342 
L 272.583273 310.004482 
L 274.446545 313.214325 
L 274.978909 314.180078 
L 276.043636 315.593796 
L 276.309818 315.297468 
L 276.576 312.782194 
L 276.842182 307.71737 
L 277.108364 305.51133 
L 277.374545 305.340756 
L 277.906909 306.035148 
L 280.036364 307.535793 
L 281.633455 308.471042 
L 282.165818 309.069092 
L 282.698182 309.472024 
L 284.295273 311.341217 
L 288.288 314.786909 
L 289.086545 315.210189 
L 289.885091 315.428934 
L 290.151273 315.44967 
L 290.417455 315.960334 
L 290.949818 316.161589 
L 293.079273 316.417609 
L 294.144 315.989181 
L 294.410182 315.819841 
L 294.942545 315.7491 
L 295.741091 315.17503 
L 296.805818 313.940879 
L 297.604364 312.665504 
L 298.402909 311.302532 
L 298.669091 310.69958 
L 298.935273 310.380825 
L 299.733818 308.637384 
L 302.395636 302.780343 
L 302.928 301.292676 
L 303.194182 301.002873 
L 304.525091 297.435519 
L 307.186909 289.500413 
L 307.453091 289.58406 
L 309.050182 286.150535 
L 310.381091 283.88853 
L 312.510545 281.065468 
L 313.841455 279.399892 
L 315.704727 277.053041 
L 315.970909 276.944003 
L 320.496 271.092534 
L 322.625455 266.418228 
L 324.222545 261.537378 
L 324.488727 263.732803 
L 325.021091 261.368426 
L 326.085818 255.600922 
L 327.416727 247.530858 
L 328.747636 240.188725 
L 329.812364 236.130595 
L 331.143273 232.648334 
L 332.208 230.342073 
L 333.006545 228.981287 
L 334.603636 226.327953 
L 335.668364 224.908664 
L 336.733091 223.772266 
L 339.394909 220.922932 
L 339.661091 220.39996 
L 339.927273 219.522791 
L 340.193455 218.033396 
L 340.725818 212.85569 
L 341.258182 207.379717 
L 341.524364 205.241279 
L 342.056727 203.496816 
L 342.855273 202.401819 
L 343.653818 201.589467 
L 344.718545 200.902479 
L 346.049455 200.27322 
L 347.646545 199.560631 
L 348.711273 198.741367 
L 350.042182 197.326485 
L 351.639273 196.329594 
L 353.236364 194.525322 
L 355.365818 192.415449 
L 356.164364 191.806855 
L 357.495273 191.404805 
L 358.027636 190.899218 
L 358.293818 190.614633 
L 358.56 188.025586 
L 359.092364 187.575012 
L 359.624727 187.308201 
L 360.157091 187.420342 
L 360.423273 187.349108 
L 361.488 186.631194 
L 361.754182 186.509108 
L 362.286545 186.730992 
L 362.552727 186.867043 
L 362.818909 186.793234 
L 363.617455 187.17208 
L 364.149818 187.210413 
L 364.682182 187.373899 
L 364.948364 187.365471 
L 365.746909 187.649491 
L 366.545455 187.467985 
L 366.811636 187.266695 
L 367.077818 186.746685 
L 367.876364 185.983033 
L 368.408727 185.38195 
L 368.941091 184.910746 
L 369.473455 184.266499 
L 370.005818 183.709215 
L 370.538182 183.052555 
L 371.070545 182.646132 
L 371.336727 181.960767 
L 371.869091 181.688878 
L 372.933818 180.77976 
L 373.2 180.762551 
L 373.466182 180.596702 
L 375.329455 182.242354 
L 375.595636 175.575464 
L 376.128 176.114905 
L 376.394182 176.224895 
L 376.660364 175.993912 
L 377.458909 177.359247 
L 377.725091 177.289353 
L 378.523636 178.855201 
L 378.789818 178.9471 
L 379.322182 179.852692 
L 379.588364 180.227377 
L 379.854545 177.884829 
L 380.653091 180.054264 
L 380.919273 180.044989 
L 381.717818 181.773724 
L 381.984 181.855467 
L 382.782545 184.276303 
L 383.048727 184.436545 
L 383.314909 184.990832 
L 383.581091 185.107063 
L 383.847273 185.057446 
L 384.113455 181.517422 
L 384.645818 181.575432 
L 384.912 181.294621 
L 385.178182 180.297765 
L 385.710545 180.05444 
L 385.976727 179.777826 
L 386.242909 178.975136 
L 386.775273 178.691962 
L 387.041455 178.225519 
L 387.307636 177.019826 
L 387.573818 176.495902 
L 388.106182 174.880966 
L 388.372364 171.057732 
L 388.638545 171.059249 
L 389.170909 169.802141 
L 389.437091 168.17331 
L 390.235636 166.832872 
L 390.501818 166.002394 
L 391.300364 166.453391 
L 391.566545 165.887255 
L 391.832727 165.987089 
L 392.098909 165.864651 
L 392.365091 165.516802 
L 392.631273 167.048902 
L 393.429818 165.953094 
L 393.696 164.778329 
L 393.962182 164.593649 
L 394.228364 164.661674 
L 394.494545 164.575734 
L 394.760727 163.763523 
L 395.293091 163.986606 
L 395.559273 163.732667 
L 395.825455 162.753266 
L 396.357818 161.868622 
L 396.624 161.195494 
L 396.890182 156.861419 
L 397.422545 156.343807 
L 397.688727 155.872286 
L 397.954909 154.643778 
L 398.753455 153.822785 
L 399.019636 152.722463 
L 399.552 152.902453 
L 399.818182 152.685189 
L 400.084364 151.735869 
L 400.350545 151.454177 
L 400.882909 150.156444 
L 401.149091 148.256817 
L 401.947636 146.502233 
L 402.213818 145.083367 
L 403.544727 142.043182 
L 403.810909 141.91094 
L 404.077091 141.455746 
L 404.343273 140.480895 
L 405.141818 138.89611 
L 405.408 137.153939 
L 405.940364 136.546861 
L 406.206545 136.02939 
L 406.472727 134.954035 
L 407.005091 134.453844 
L 407.271273 134.243562 
L 407.537455 133.685502 
L 408.336 134.036842 
L 408.602182 133.415446 
L 408.868364 133.345975 
L 409.400727 132.67789 
L 409.666909 136.935052 
L 410.199273 136.083486 
L 410.465455 135.626776 
L 410.997818 133.425638 
L 411.530182 131.343447 
L 411.796364 129.798264 
L 412.328727 128.529413 
L 412.594909 127.572864 
L 413.393455 122.783842 
L 413.925818 119.64139 
L 414.724364 118.131154 
L 414.990545 117.378927 
L 415.256727 116.966368 
L 415.522909 116.172001 
L 416.587636 111.063307 
L 416.853818 109.433665 
L 417.652364 101.871516 
L 417.918545 99.442358 
L 418.184727 99.323341 
L 418.717091 98.655678 
L 419.515636 98.244071 
L 419.781818 97.399205 
L 420.314182 94.315221 
L 421.112727 88.433424 
L 421.645091 83.924826 
L 422.177455 80.523127 
L 422.443636 75.913373 
L 423.508364 72.768064 
L 423.774545 72.727704 
L 424.306909 71.921046 
L 425.371636 68.674246 
L 425.904 63.295938 
L 426.170182 65.863245 
L 426.436364 92.456184 
L 426.436364 92.456184 
" clip-path="url(#p0bfdb570da)" style="fill: none; stroke: #ff0000; stroke-width: 3; stroke-linecap: square"/>
   </g>
   <g id="patch_3">
    <path d="M 7.2 331.2 
L 7.2 7.2 
" style="fill: none; stroke: #000000; stroke-width: 0.8; stroke-linejoin: miter; stroke-linecap: square"/>
   </g>
   <g id="patch_4">
    <path d="M 446.4 331.2 
L 446.4 7.2 
" style="fill: none; stroke: #000000; stroke-width: 0.8; stroke-linejoin: miter; stroke-linecap: square"/>
   </g>
   <g id="patch_5">
    <path d="M 7.2 331.2 
L 446.4 331.2 
" style="fill: none; stroke: #000000; stroke-width: 0.8; stroke-linejoin: miter; stroke-linecap: square"/>
   </g>
   <g id="patch_6">
    <path d="M 7.2 7.2 
L 446.4 7.2 
" style="fill: none; stroke: #000000; stroke-width: 0.8; stroke-linejoin: miter; stroke-linecap: square"/>
   </g>
  </g>
 </g>
 <defs>
  <clipPath id="p0bfdb570da">
   <rect x="7.2" y="7.2" width="439.2" height="324"/>
  </clipPath>
 </defs>
</svg>
