<?xml version="1.0" encoding="utf-8" standalone="no"?>
<!DOCTYPE svg PUBLIC "-//W3C//DTD SVG 1.1//EN"
  "http://www.w3.org/Graphics/SVG/1.1/DTD/svg11.dtd">
<svg xmlns:xlink="http://www.w3.org/1999/xlink" width="453.6pt" height="338.4pt" viewBox="0 0 453.6 338.4" xmlns="http://www.w3.org/2000/svg" version="1.1">
 <metadata>
  <rdf:RDF xmlns:dc="http://purl.org/dc/elements/1.1/" xmlns:cc="http://creativecommons.org/ns#" xmlns:rdf="http://www.w3.org/1999/02/22-rdf-syntax-ns#">
   <cc:Work>
    <dc:type rdf:resource="http://purl.org/dc/dcmitype/StillImage"/>
    <dc:date>2025-05-14T08:53:15.773194</dc:date>
    <dc:format>image/svg+xml</dc:format>
    <dc:creator>
     <cc:Agent>
      <dc:title>Matplotlib v3.10.1, https://matplotlib.org/</dc:title>
     </cc:Agent>
    </dc:creator>
   </cc:Work>
  </rdf:RDF>
 </metadata>
 <defs>
  <style type="text/css">*{stroke-linejoin: round; stroke-linecap: butt}</style>
 </defs>
 <g id="figure_1">
  <g id="patch_1">
   <path d="M 0 338.4 
L 453.6 338.4 
L 453.6 0 
L 0 0 
z
" style="fill: #ffffff"/>
  </g>
  <g id="axes_1">
   <g id="patch_2">
    <path d="M 7.2 331.2 
L 446.4 331.2 
L 446.4 7.2 
L 7.2 7.2 
z
" style="fill: #ffffff"/>
   </g>
   <g id="matplotlib.axis_1"/>
   <g id="matplotlib.axis_2"/>
   <g id="line2d_1">
    <path d="M 27.163636 21.927273 
L 31.688727 42.092014 
L 35.947636 60.064855 
L 40.206545 77.062398 
L 44.199273 92.111798 
L 48.192 106.303994 
L 51.918545 118.776684 
L 55.645091 130.502654 
L 59.371636 141.481906 
L 62.832 151.00831 
L 66.292364 159.890835 
L 69.486545 167.518676 
L 72.680727 174.597867 
L 75.874909 181.128465 
L 78.802909 186.632911 
L 81.730909 191.676376 
L 84.658909 196.25886 
L 87.320727 200.024731 
L 89.982545 203.409615 
L 92.644364 206.41355 
L 95.04 208.791323 
L 97.435636 210.860523 
L 99.831273 212.621113 
L 101.960727 213.927036 
L 104.090182 214.989134 
L 106.219636 215.807399 
L 108.349091 216.381839 
L 110.478545 216.712464 
L 112.608 216.799245 
L 114.737455 216.642212 
L 116.866909 216.241344 
L 118.996364 215.596661 
L 121.125818 214.708154 
L 123.255273 213.575813 
L 125.384727 212.199666 
L 127.514182 210.579675 
L 129.909818 208.465739 
L 132.305455 206.043221 
L 134.701091 203.312101 
L 137.362909 199.915605 
L 140.024727 196.138132 
L 142.686545 191.979672 
L 145.614545 186.965348 
L 148.542545 181.490053 
L 151.470545 175.553757 
L 154.664727 168.55203 
L 157.858909 161.001747 
L 159.189818 157.693855 
L 159.456 157.469166 
L 162.117818 164.420257 
L 164.513455 170.099502 
L 166.909091 175.232449 
L 169.304727 179.81902 
L 171.434182 183.437317 
L 173.563636 186.623915 
L 175.693091 189.378842 
L 177.556364 191.43527 
L 179.419636 193.161215 
L 181.282909 194.556647 
L 182.88 195.489674 
L 184.477091 196.179876 
L 186.074182 196.627245 
L 187.671273 196.831808 
L 189.268364 196.793539 
L 190.865455 196.512455 
L 192.462545 195.988528 
L 194.059636 195.221805 
L 195.656727 194.212259 
L 197.253818 192.959879 
L 199.117091 191.19187 
L 200.980364 189.09335 
L 202.843636 186.664337 
L 204.973091 183.483601 
L 207.102545 179.871185 
L 209.232 175.8271 
L 211.627636 170.761508 
L 214.023273 165.14955 
L 216.418909 158.991226 
L 219.080727 151.507892 
L 221.742545 143.350054 
L 224.670545 133.597373 
L 227.598545 123.028571 
L 230.526545 111.643477 
L 233.720727 98.29274 
L 236.914909 83.970593 
L 240.375273 67.358899 
L 243.835636 49.60735 
L 247.296 30.715926 
L 248.626909 23.146443 
L 248.893091 22.413279 
L 256.346182 47.69355 
L 263.799273 72.181828 
L 270.986182 95.045283 
L 278.173091 117.172364 
L 285.093818 137.783861 
L 292.014545 157.712282 
L 298.935273 176.957893 
L 305.589818 194.819144 
L 312.244364 212.048985 
L 318.632727 227.995616 
L 325.021091 243.360282 
L 331.409455 258.143065 
L 337.531636 271.763795 
L 343.653818 284.850138 
L 349.776 297.401984 
L 355.632 308.90805 
L 359.624727 316.472727 
L 360.689455 315.628244 
L 362.286545 314.102597 
L 364.149818 311.99799 
L 366.013091 309.543672 
L 367.876364 306.739666 
L 370.005818 303.106933 
L 372.135273 299.017432 
L 374.264727 294.471245 
L 376.660364 288.810841 
L 379.056 282.57232 
L 381.717818 274.962726 
L 384.379636 266.6395 
L 387.041455 257.602623 
L 389.969455 246.837791 
L 392.897455 235.209449 
L 396.091636 221.53915 
L 399.285818 206.841303 
L 402.48 191.11569 
L 405.940364 172.919962 
L 409.400727 153.518243 
L 413.127273 131.275164 
L 416.853818 107.633498 
L 420.580364 82.593115 
L 424.573091 54.211914 
L 426.436364 40.417763 
L 426.436364 40.417763 
" clip-path="url(#p396e83e363)" style="fill: none; stroke-dasharray: 11.1,4.8; stroke-dashoffset: 0; stroke: #000000; stroke-width: 3"/>
   </g>
   <g id="line2d_2">
    <path d="M 27.163636 195.499302 
L 29.559273 198.283881 
L 30.624 199.129087 
L 31.422545 199.513463 
L 32.221091 199.689131 
L 33.285818 199.643735 
L 34.350545 199.353532 
L 35.947636 198.655551 
L 38.343273 197.600466 
L 40.472727 196.954481 
L 42.602182 196.264996 
L 46.861091 194.692828 
L 48.458182 194.474189 
L 55.378909 193.925653 
L 58.040727 193.435219 
L 59.904 192.865536 
L 61.501091 192.160391 
L 63.364364 191.088805 
L 67.357091 188.683325 
L 72.148364 186.144686 
L 73.479273 185.083843 
L 75.076364 183.526307 
L 77.472 180.819382 
L 82.263273 175.316313 
L 83.594182 174.169708 
L 84.658909 173.573169 
L 85.457455 173.356164 
L 86.256 173.338728 
L 87.320727 173.577078 
L 88.917818 174.258076 
L 91.313455 175.526702 
L 92.378182 176.312398 
L 93.442909 177.398796 
L 94.507636 178.829373 
L 96.104727 181.425294 
L 97.968 184.373043 
L 99.032727 185.683044 
L 100.097455 186.641926 
L 101.162182 187.294029 
L 102.493091 187.815105 
L 104.356364 188.267165 
L 106.485818 188.571103 
L 111.277091 189.07784 
L 112.608 189.579894 
L 113.938909 190.35247 
L 115.269818 191.379593 
L 116.866909 192.885266 
L 119.794909 196.034642 
L 125.917091 202.579787 
L 127.514182 204.005994 
L 128.845091 204.94795 
L 130.176 205.659893 
L 131.773091 206.258159 
L 133.370182 206.633652 
L 134.967273 206.812275 
L 136.830545 206.784965 
L 138.96 206.502928 
L 141.621818 205.905662 
L 144.017455 205.153458 
L 145.880727 204.344133 
L 147.477818 203.410257 
L 149.341091 202.030514 
L 152.535273 199.570131 
L 153.866182 198.810574 
L 155.463273 198.183534 
L 157.858909 197.580132 
L 159.988364 196.951554 
L 161.585455 196.241424 
L 165.578182 194.258373 
L 166.909091 193.927229 
L 168.24 193.847443 
L 169.837091 194.020052 
L 175.160727 194.889189 
L 178.621091 195.037056 
L 179.685818 194.835881 
L 180.484364 194.403541 
L 181.016727 193.894472 
L 181.549091 193.138795 
L 182.081455 192.065576 
L 182.613818 190.595331 
L 183.146182 188.642885 
L 183.944727 184.622503 
L 184.743273 179.064287 
L 185.541818 171.801885 
L 186.606545 159.49885 
L 187.937455 140.927157 
L 190.066909 110.736147 
L 191.131636 98.922139 
L 191.930182 92.317212 
L 192.728727 87.660426 
L 193.261091 85.525467 
L 193.793455 84.042111 
L 194.325818 83.088449 
L 194.858182 82.543084 
L 195.390545 82.294586 
L 196.189091 82.276122 
L 197.253818 82.56657 
L 200.448 83.799579 
L 201.512727 84.445574 
L 202.577455 85.363213 
L 203.908364 86.865261 
L 206.304 89.68573 
L 207.368727 90.6042 
L 210.030545 92.544073 
L 210.829091 93.630366 
L 211.627636 95.308223 
L 212.426182 97.759552 
L 213.224727 101.096123 
L 214.023273 105.322182 
L 215.088 112.104657 
L 218.282182 133.414068 
L 219.346909 138.52586 
L 220.411636 142.315472 
L 221.476364 145.152594 
L 223.073455 148.637258 
L 225.735273 153.998774 
L 226.8 155.652182 
L 227.598545 156.503005 
L 228.130909 156.84594 
L 228.663273 156.992788 
L 229.195636 156.933429 
L 229.728 156.660294 
L 230.260364 156.167528 
L 231.058909 155.007282 
L 231.857455 153.335901 
L 232.656 151.161615 
L 233.720727 147.543451 
L 235.051636 142.137397 
L 237.979636 129.909316 
L 239.044364 126.489069 
L 239.842909 124.498391 
L 240.641455 122.996608 
L 241.44 121.929817 
L 242.238545 121.219272 
L 243.037091 120.784524 
L 243.835636 120.562327 
L 244.900364 120.537688 
L 245.698909 120.713687 
L 246.497455 121.066892 
L 247.296 121.61001 
L 248.360727 122.640344 
L 249.425455 124.017161 
L 250.490182 125.734043 
L 251.821091 128.377551 
L 253.152 131.618816 
L 254.749091 136.241051 
L 257.943273 145.89599 
L 259.274182 149.054164 
L 260.338909 151.014031 
L 261.403636 152.514172 
L 262.468364 153.649118 
L 263.799273 154.706242 
L 265.396364 155.634152 
L 267.259636 156.433055 
L 272.050909 158.312399 
L 274.712727 159.753238 
L 283.230545 164.774595 
L 285.36 166.274509 
L 287.223273 167.861648 
L 290.683636 171.211057 
L 293.079273 173.383889 
L 294.942545 174.807849 
L 299.201455 177.818779 
L 300.266182 178.933071 
L 301.330909 180.333894 
L 302.661818 182.449105 
L 306.388364 188.659216 
L 307.985455 190.755122 
L 310.381091 193.466597 
L 313.575273 196.802035 
L 315.704727 198.715051 
L 317.568 200.09706 
L 319.697455 201.372464 
L 322.093091 202.525828 
L 324.222545 203.299819 
L 326.085818 203.722757 
L 329.013818 204.081249 
L 331.941818 204.531072 
L 335.668364 205.111922 
L 337.797818 205.207709 
L 340.459636 205.082819 
L 347.114182 204.459045 
L 350.042182 203.991815 
L 353.236364 203.437491 
L 354.301091 203.465132 
L 355.365818 203.705435 
L 356.430545 204.166709 
L 358.027636 205.140893 
L 359.890909 206.269685 
L 361.221818 206.806885 
L 362.552727 207.052786 
L 363.883636 207.060678 
L 366.013091 206.800154 
L 369.473455 206.119533 
L 371.602909 205.498394 
L 373.732364 204.646504 
L 376.128 203.458863 
L 378.257455 202.169932 
L 380.386909 200.618061 
L 383.048727 198.386153 
L 389.170909 193.044858 
L 390.501818 192.276191 
L 391.832727 191.771805 
L 393.429818 191.423961 
L 395.825455 190.931328 
L 397.156364 190.436051 
L 398.487273 189.712479 
L 400.084364 188.560889 
L 401.947636 186.899967 
L 404.077091 184.67481 
L 407.271273 180.937702 
L 410.465455 177.298562 
L 413.127273 174.381116 
L 414.192 172.871252 
L 415.256727 170.96694 
L 416.587636 168.060303 
L 419.781818 160.816875 
L 421.378909 157.269303 
L 422.177455 154.952304 
L 422.976 151.965182 
L 423.774545 148.208552 
L 425.105455 140.573839 
L 426.436364 132.616864 
L 426.436364 132.616864 
" clip-path="url(#p396e83e363)" style="fill: none; stroke-dasharray: 3,4.95; stroke-dashoffset: 0; stroke: #ffa500; stroke-width: 3"/>
   </g>
   <g id="line2d_3">
    <path d="M 27.163636 164.023288 
L 28.494545 178.528494 
L 29.293091 185.340213 
L 29.825455 188.663379 
L 30.357818 190.918395 
L 30.890182 192.119006 
L 31.156364 192.349039 
L 31.422545 192.349643 
L 31.688727 192.139245 
L 32.221091 191.153865 
L 32.753455 189.541672 
L 33.552 186.251433 
L 34.882909 179.471583 
L 36.48 171.426477 
L 37.278545 168.357661 
L 37.810909 166.891825 
L 38.343273 165.950549 
L 38.875636 165.534435 
L 39.408 165.600893 
L 39.940364 166.061864 
L 40.738909 167.230606 
L 42.069818 169.347875 
L 42.868364 170.147929 
L 43.400727 170.382342 
L 43.933091 170.388535 
L 44.731636 170.081321 
L 46.594909 169.099113 
L 47.393455 168.968011 
L 49.789091 168.882976 
L 50.321455 168.563528 
L 50.853818 168.046822 
L 51.652364 166.912366 
L 52.983273 164.420068 
L 54.314182 162.051168 
L 55.112727 161.071376 
L 55.645091 160.676409 
L 56.177455 160.511776 
L 56.709818 160.584275 
L 57.242182 160.904629 
L 57.774545 161.477672 
L 58.306909 162.313674 
L 59.105455 164.063313 
L 59.904 166.372099 
L 61.234909 171.099477 
L 62.832 176.846823 
L 63.896727 179.816405 
L 64.695273 181.383287 
L 65.493818 182.419567 
L 66.292364 183.038526 
L 67.090909 183.373833 
L 68.155636 183.563387 
L 69.486545 183.554627 
L 70.551273 183.350573 
L 71.616 182.909387 
L 72.680727 182.186967 
L 73.745455 181.188446 
L 75.608727 179.051241 
L 76.939636 177.640685 
L 77.738182 177.040757 
L 78.536727 176.743663 
L 79.069091 176.756954 
L 79.601455 176.964935 
L 80.133818 177.383918 
L 80.666182 178.021455 
L 81.464727 179.391532 
L 82.263273 181.228018 
L 83.328 184.285204 
L 84.925091 189.702227 
L 87.320727 197.908039 
L 88.651636 201.620433 
L 89.716364 203.911547 
L 90.781091 205.611796 
L 91.845818 206.850167 
L 93.176727 208.00456 
L 95.306182 209.504531 
L 96.903273 210.420131 
L 97.968 210.808755 
L 99.032727 210.927018 
L 100.097455 210.751511 
L 101.428364 210.217285 
L 103.557818 209.287034 
L 104.622545 209.076788 
L 105.687273 209.09597 
L 108.615273 209.370408 
L 109.413818 209.166203 
L 110.212364 208.76761 
L 111.543273 207.781324 
L 113.406545 206.37681 
L 115.536 205.038149 
L 116.068364 204.45695 
L 116.600727 203.614302 
L 117.133091 202.41656 
L 117.665455 200.791227 
L 118.464 197.437853 
L 119.262545 192.968149 
L 120.327273 185.571907 
L 123.255273 163.932513 
L 124.32 158.154959 
L 125.118545 154.862455 
L 125.917091 152.329526 
L 126.981818 149.807171 
L 128.046545 147.899696 
L 129.111273 146.396704 
L 130.176 145.276748 
L 130.974545 144.712919 
L 131.773091 144.370966 
L 132.837818 144.162532 
L 134.701091 143.852901 
L 135.765818 143.383924 
L 136.830545 142.62329 
L 138.161455 141.363321 
L 141.888 137.657724 
L 143.485091 136.019401 
L 144.283636 134.93509 
L 145.082182 133.53979 
L 145.880727 131.764021 
L 146.945455 128.783412 
L 148.542545 123.389498 
L 150.139636 118.115963 
L 150.938182 116.038116 
L 151.736727 114.557025 
L 152.269091 113.956342 
L 152.801455 113.689153 
L 153.333818 113.770261 
L 153.866182 114.212957 
L 154.398545 115.036574 
L 154.930909 116.268602 
L 155.463273 117.944986 
L 156.261818 121.39578 
L 157.060364 126.124517 
L 157.858909 132.262602 
L 158.923636 142.634618 
L 160.254545 158.296332 
L 162.384 183.850664 
L 163.448727 194.01621 
L 164.247273 199.882424 
L 165.045818 204.269057 
L 165.844364 207.390132 
L 166.642909 209.549087 
L 167.441455 211.0551 
L 168.506182 212.484686 
L 170.103273 214.131769 
L 172.765091 216.81468 
L 174.096 218.48457 
L 175.426909 220.560151 
L 179.153455 226.942617 
L 179.685818 227.445729 
L 180.218182 227.696001 
L 180.750545 227.635132 
L 181.282909 227.198024 
L 181.815273 226.320637 
L 182.347636 224.934097 
L 182.88 222.972399 
L 183.678545 218.794049 
L 184.477091 212.927684 
L 185.275636 205.156111 
L 186.074182 195.326476 
L 187.138909 179.031303 
L 188.469818 154.642995 
L 190.599273 115.156651 
L 191.664 100.148937 
L 192.462545 92.197777 
L 192.994909 88.49943 
L 193.527273 85.975866 
L 194.059636 84.471062 
L 194.592 83.800146 
L 194.858182 83.717829 
L 195.124364 83.772505 
L 195.656727 84.205837 
L 196.455273 85.391042 
L 199.117091 90.379718 
L 201.512727 94.885219 
L 202.843636 98.033632 
L 206.570182 107.69652 
L 207.368727 109.065237 
L 208.433455 110.396195 
L 209.764364 111.913083 
L 210.562909 113.292826 
L 211.095273 114.624539 
L 211.627636 116.394417 
L 212.426182 120.010901 
L 213.224727 124.827543 
L 214.289455 132.786406 
L 216.418909 149.309949 
L 217.217455 153.707155 
L 217.749818 155.693019 
L 218.282182 156.871881 
L 218.548364 157.168824 
L 218.814545 157.28301 
L 219.080727 157.230448 
L 219.613091 156.697431 
L 220.145455 155.740899 
L 222.274909 151.377224 
L 222.807273 150.864748 
L 223.339636 150.713859 
L 223.872 150.906132 
L 224.404364 151.381453 
L 225.202909 152.431176 
L 226.533818 154.248027 
L 227.066182 154.737243 
L 227.598545 154.995067 
L 228.130909 154.983286 
L 228.663273 154.684228 
L 229.195636 154.093212 
L 229.728 153.213106 
L 230.526545 151.37526 
L 231.325091 148.955611 
L 232.389818 144.919691 
L 233.720727 138.826315 
L 237.181091 122.185111 
L 238.245818 118.499602 
L 239.044364 116.469635 
L 239.842909 115.033403 
L 240.641455 114.085027 
L 241.44 113.476037 
L 242.504727 112.951326 
L 245.698909 111.564031 
L 246.763636 110.860188 
L 247.562182 110.112695 
L 248.360727 109.092424 
L 249.425455 107.249141 
L 252.087273 102.005058 
L 252.619636 101.447572 
L 253.152 101.242914 
L 253.684364 101.433224 
L 254.216727 102.028469 
L 254.749091 103.002371 
L 255.547636 105.026146 
L 258.209455 112.654836 
L 259.008 114.153448 
L 259.806545 115.126292 
L 260.605091 115.654778 
L 261.403636 115.846145 
L 262.202182 115.787542 
L 263.000727 115.509629 
L 263.799273 115.002288 
L 264.597818 114.235613 
L 265.662545 112.800891 
L 266.993455 110.522011 
L 268.856727 107.347166 
L 269.655273 106.324026 
L 270.453818 105.614292 
L 271.252364 105.238356 
L 272.050909 105.175221 
L 272.849455 105.379124 
L 273.914182 105.965761 
L 275.245091 107.047806 
L 276.576 108.435857 
L 277.906909 110.154986 
L 279.504 112.638675 
L 284.295273 120.735739 
L 285.36 123.087722 
L 286.424727 125.986316 
L 287.755636 130.359507 
L 289.885091 138.347973 
L 292.014545 146.139786 
L 293.611636 151.207002 
L 295.208727 155.557688 
L 297.604364 161.319081 
L 300.532364 168.384848 
L 302.928 174.839964 
L 308.784 191.018081 
L 310.647273 195.640637 
L 311.978182 198.314485 
L 313.042909 199.897679 
L 313.841455 200.729452 
L 314.64 201.265792 
L 315.438545 201.540231 
L 316.237091 201.609105 
L 319.431273 201.590376 
L 320.229818 202.03428 
L 321.028364 202.832069 
L 321.826909 204.011384 
L 322.891636 206.118382 
L 326.352 213.755077 
L 327.150545 214.856607 
L 327.949091 215.581142 
L 328.747636 215.996047 
L 330.078545 216.336792 
L 331.143273 216.653521 
L 332.208 217.247407 
L 333.272727 218.153492 
L 335.402182 220.425122 
L 339.394909 224.867036 
L 340.725818 226.880238 
L 346.049455 235.567714 
L 348.711273 239.015487 
L 350.308364 240.743074 
L 351.639273 241.839619 
L 353.768727 243.502561 
L 354.567273 244.434171 
L 355.365818 245.671938 
L 356.430545 247.800836 
L 359.624727 254.867057 
L 360.423273 256.030814 
L 361.221818 256.812292 
L 362.020364 257.251061 
L 362.818909 257.427928 
L 363.883636 257.415391 
L 367.344 256.95155 
L 368.941091 256.591472 
L 370.272 256.054679 
L 371.869091 255.125485 
L 373.998545 253.851167 
L 375.329455 253.314071 
L 376.926545 252.951728 
L 379.322182 252.689524 
L 381.185455 252.703571 
L 383.314909 252.712935 
L 384.113455 252.527912 
L 384.912 252.146991 
L 385.710545 251.529845 
L 386.509091 250.654572 
L 387.573818 249.077269 
L 388.638545 247.053343 
L 389.969455 244.015037 
L 392.631273 237.726065 
L 393.696 235.800918 
L 394.760727 234.294906 
L 396.624 231.825716 
L 397.688727 229.912804 
L 398.753455 227.40525 
L 400.084364 223.540458 
L 404.609455 209.482781 
L 405.674182 207.130798 
L 406.472727 205.867807 
L 407.271273 205.097205 
L 407.803636 204.867021 
L 408.336 204.853126 
L 408.868364 205.039055 
L 409.666909 205.627957 
L 410.731636 206.795793 
L 412.861091 209.237946 
L 413.659636 209.862645 
L 414.458182 210.249305 
L 415.256727 210.414089 
L 416.321455 210.391735 
L 418.983273 210.042533 
L 419.515636 209.840442 
L 420.048 209.433391 
L 420.580364 208.675929 
L 421.112727 207.393908 
L 421.645091 205.389919 
L 422.177455 202.461419 
L 422.709818 198.436223 
L 423.508364 190.108371 
L 424.306909 179.053959 
L 425.637818 156.272708 
L 426.436364 141.876099 
L 426.436364 141.876099 
" clip-path="url(#p396e83e363)" style="fill: none; stroke: #ffa500; stroke-width: 3; stroke-linecap: square"/>
   </g>
   <g id="patch_3">
    <path d="M 7.2 331.2 
L 7.2 7.2 
" style="fill: none; stroke: #000000; stroke-width: 0.8; stroke-linejoin: miter; stroke-linecap: square"/>
   </g>
   <g id="patch_4">
    <path d="M 446.4 331.2 
L 446.4 7.2 
" style="fill: none; stroke: #000000; stroke-width: 0.8; stroke-linejoin: miter; stroke-linecap: square"/>
   </g>
   <g id="patch_5">
    <path d="M 7.2 331.2 
L 446.4 331.2 
" style="fill: none; stroke: #000000; stroke-width: 0.8; stroke-linejoin: miter; stroke-linecap: square"/>
   </g>
   <g id="patch_6">
    <path d="M 7.2 7.2 
L 446.4 7.2 
" style="fill: none; stroke: #000000; stroke-width: 0.8; stroke-linejoin: miter; stroke-linecap: square"/>
   </g>
  </g>
 </g>
 <defs>
  <clipPath id="p396e83e363">
   <rect x="7.2" y="7.2" width="439.2" height="324"/>
  </clipPath>
 </defs>
</svg>
