<?xml version="1.0" encoding="utf-8" standalone="no"?>
<!DOCTYPE svg PUBLIC "-//W3C//DTD SVG 1.1//EN"
  "http://www.w3.org/Graphics/SVG/1.1/DTD/svg11.dtd">
<svg xmlns:xlink="http://www.w3.org/1999/xlink" width="453.6pt" height="338.4pt" viewBox="0 0 453.6 338.4" xmlns="http://www.w3.org/2000/svg" version="1.1">
 <metadata>
  <rdf:RDF xmlns:dc="http://purl.org/dc/elements/1.1/" xmlns:cc="http://creativecommons.org/ns#" xmlns:rdf="http://www.w3.org/1999/02/22-rdf-syntax-ns#">
   <cc:Work>
    <dc:type rdf:resource="http://purl.org/dc/dcmitype/StillImage"/>
    <dc:date>2025-05-14T00:06:51.203431</dc:date>
    <dc:format>image/svg+xml</dc:format>
    <dc:creator>
     <cc:Agent>
      <dc:title>Matplotlib v3.10.1, https://matplotlib.org/</dc:title>
     </cc:Agent>
    </dc:creator>
   </cc:Work>
  </rdf:RDF>
 </metadata>
 <defs>
  <style type="text/css">*{stroke-linejoin: round; stroke-linecap: butt}</style>
 </defs>
 <g id="figure_1">
  <g id="patch_1">
   <path d="M 0 338.4 
L 453.6 338.4 
L 453.6 0 
L 0 0 
z
" style="fill: #ffffff"/>
  </g>
  <g id="axes_1">
   <g id="patch_2">
    <path d="M 7.2 331.2 
L 446.4 331.2 
L 446.4 7.2 
L 7.2 7.2 
z
" style="fill: #ffffff"/>
   </g>
   <g id="matplotlib.axis_1"/>
   <g id="matplotlib.axis_2"/>
   <g id="line2d_1">
    <path d="M 27.163636 285.021881 
L 117.399273 101.303675 
L 117.665455 101.071264 
L 198.850909 87.396161 
L 203.109818 91.860023 
L 279.770182 172.397717 
L 280.834909 172.532879 
L 336.466909 177.932432 
L 336.999273 179.358414 
L 374.530909 291.414006 
L 374.797091 291.825796 
L 426.436364 316.472727 
L 426.436364 316.472727 
" clip-path="url(#paf56f45270)" style="fill: none; stroke-dasharray: 11.1,4.8; stroke-dashoffset: 0; stroke: #000000; stroke-width: 3"/>
   </g>
   <g id="line2d_2">
    <path d="M 27.163636 196.378177 
L 30.091636 197.4733 
L 31.688727 197.799143 
L 33.818182 197.963362 
L 41.537455 198.134681 
L 46.062545 198.104479 
L 51.652364 197.810388 
L 54.314182 197.477598 
L 56.709818 196.964816 
L 59.371636 196.160981 
L 60.968727 195.465351 
L 62.299636 194.609579 
L 63.364364 193.654298 
L 64.429091 192.412675 
L 65.493818 190.865396 
L 66.558545 188.986471 
L 67.623273 186.705786 
L 68.688 183.896041 
L 69.752727 180.406638 
L 70.817455 176.134403 
L 72.148364 169.730586 
L 76.673455 146.468195 
L 77.472 143.869011 
L 78.004364 142.63545 
L 78.536727 141.837518 
L 79.069091 141.490558 
L 79.335273 141.486756 
L 79.867636 141.811194 
L 80.4 142.557456 
L 80.932364 143.688698 
L 81.730909 145.999983 
L 82.795636 149.924342 
L 85.457455 161.201951 
L 87.320727 168.494873 
L 88.917818 173.862009 
L 90.248727 177.669117 
L 91.579636 180.871949 
L 92.910545 183.47353 
L 93.975273 185.121295 
L 95.04 186.394342 
L 96.104727 187.330842 
L 97.169455 188.002499 
L 98.766545 188.716025 
L 103.557818 190.663218 
L 107.018182 192.086039 
L 108.881455 192.620946 
L 110.744727 192.916357 
L 112.608 192.968318 
L 114.737455 192.787562 
L 117.399273 192.322847 
L 125.917091 190.616021 
L 128.578909 190.488249 
L 133.104 190.335588 
L 135.765818 190.277291 
L 137.362909 190.477881 
L 138.96 190.926716 
L 140.823273 191.706937 
L 144.816 193.471099 
L 146.945455 194.130633 
L 150.672 194.996605 
L 153.6 195.515571 
L 155.197091 195.599193 
L 156.528 195.471658 
L 157.858909 195.11207 
L 158.923636 194.624161 
L 159.988364 193.917186 
L 161.053091 192.932863 
L 162.117818 191.605306 
L 163.182545 189.893013 
L 164.513455 187.247121 
L 166.909091 181.745769 
L 168.772364 177.683592 
L 170.369455 174.694634 
L 172.498909 171.261467 
L 175.160727 166.996057 
L 177.024 163.546766 
L 178.887273 159.574508 
L 180.484364 155.620604 
L 181.815273 151.726707 
L 183.146182 147.015485 
L 184.210909 142.449015 
L 185.275636 137.002234 
L 186.340364 130.556305 
L 187.671273 121.044293 
L 189.268364 107.794648 
L 192.994909 75.923917 
L 194.059636 68.717983 
L 195.124364 62.879046 
L 196.189091 58.376645 
L 196.987636 55.791005 
L 197.786182 53.801074 
L 198.584727 52.33756 
L 199.383273 51.343694 
L 200.181818 50.779501 
L 200.714182 50.631329 
L 201.246545 50.664616 
L 201.778909 50.883361 
L 202.311273 51.294497 
L 203.109818 52.289524 
L 203.908364 53.75377 
L 204.706909 55.67841 
L 205.771636 58.871394 
L 207.368727 64.541516 
L 213.490909 87.022221 
L 219.613091 109.407387 
L 221.476364 117.40707 
L 224.404364 131.283328 
L 228.130909 148.617489 
L 230.526545 158.761581 
L 232.123636 164.542037 
L 233.454545 168.54633 
L 234.785455 171.86052 
L 236.382545 175.158616 
L 237.979636 177.946449 
L 239.576727 180.302961 
L 241.173818 182.234396 
L 243.037091 184.095105 
L 249.957818 190.481744 
L 251.554909 191.502606 
L 253.152 192.275757 
L 255.281455 193.028402 
L 259.008 194.028895 
L 263.266909 194.988902 
L 267.259636 195.628914 
L 271.518545 196.112571 
L 275.511273 196.339683 
L 279.504 196.347158 
L 282.964364 196.138391 
L 285.892364 195.738478 
L 288.820364 195.121667 
L 291.748364 194.289584 
L 295.208727 193.058681 
L 297.870545 191.92243 
L 299.467636 191.027401 
L 300.798545 190.037505 
L 302.129455 188.749021 
L 303.460364 187.157324 
L 305.589818 184.189956 
L 309.316364 178.557046 
L 315.704727 168.502171 
L 317.035636 166.965611 
L 318.366545 165.78195 
L 319.697455 164.945706 
L 321.028364 164.411853 
L 322.625455 164.06358 
L 329.28 163.230268 
L 331.409455 163.126347 
L 333.006545 163.260669 
L 334.337455 163.573273 
L 335.668364 164.131252 
L 336.999273 164.985055 
L 338.330182 166.152622 
L 339.661091 167.609295 
L 341.524364 170.013126 
L 345.783273 176.06525 
L 352.970182 186.398236 
L 355.365818 189.862689 
L 356.962909 191.790978 
L 358.293818 193.06462 
L 359.624727 194.052593 
L 361.221818 194.952584 
L 363.351273 195.854401 
L 366.279273 196.807468 
L 369.207273 197.537873 
L 371.869091 197.964744 
L 375.063273 198.232029 
L 380.919273 198.447499 
L 394.228364 198.753683 
L 420.048 198.865148 
L 426.436364 198.800819 
L 426.436364 198.800819 
" clip-path="url(#paf56f45270)" style="fill: none; stroke-dasharray: 3,4.95; stroke-dashoffset: 0; stroke: #ffa500; stroke-width: 3"/>
   </g>
   <g id="line2d_3">
    <path d="M 27.163636 240.650011 
L 28.228364 243.994067 
L 29.026909 245.798265 
L 29.559273 246.469861 
L 30.091636 246.652846 
L 30.624 246.346731 
L 31.156364 245.601843 
L 31.954909 243.850904 
L 34.882909 236.335817 
L 35.681455 235.067381 
L 36.213818 234.506455 
L 36.746182 234.184216 
L 37.278545 234.102374 
L 37.810909 234.26215 
L 38.343273 234.660612 
L 39.141818 235.669839 
L 40.206545 237.593502 
L 42.336 241.691486 
L 43.134545 242.666754 
L 43.666909 243.026861 
L 44.199273 243.130447 
L 44.731636 242.980932 
L 45.264 242.590287 
L 46.062545 241.593764 
L 46.861091 240.179722 
L 47.925818 237.775021 
L 49.256727 234.080875 
L 50.587636 229.656743 
L 51.918545 224.476974 
L 53.781818 216.139797 
L 56.443636 204.075493 
L 57.508364 200.420192 
L 58.306909 198.549299 
L 58.839273 197.79244 
L 59.371636 197.448946 
L 59.904 197.510266 
L 60.436364 197.951971 
L 60.968727 198.736437 
L 61.767273 200.447798 
L 62.832 203.45227 
L 66.292364 214.158234 
L 66.824727 215.167461 
L 67.357091 215.751107 
L 67.623273 215.849074 
L 67.889455 215.804121 
L 68.155636 215.600615 
L 68.688 214.688622 
L 69.220364 213.055194 
L 69.752727 210.678588 
L 70.551273 205.765112 
L 71.616 197.083464 
L 73.213091 181.454007 
L 75.076364 163.430599 
L 76.141091 154.86744 
L 76.939636 149.774643 
L 77.738182 146.080008 
L 78.270545 144.479806 
L 78.802909 143.609345 
L 79.069091 143.448103 
L 79.335273 143.468869 
L 79.601455 143.667489 
L 80.133818 144.568977 
L 80.666182 146.092956 
L 81.464727 149.351506 
L 82.529455 154.98715 
L 87.054545 180.872071 
L 88.119273 184.998639 
L 88.917818 187.152926 
L 89.450182 188.120621 
L 89.982545 188.735539 
L 90.514909 189.046051 
L 91.047273 189.118854 
L 91.845818 188.962499 
L 93.176727 188.635862 
L 93.975273 188.686678 
L 94.773818 188.97789 
L 96.104727 189.8012 
L 97.701818 190.776713 
L 99.032727 191.293664 
L 100.363636 191.554582 
L 101.694545 191.578035 
L 102.759273 191.383324 
L 104.090182 190.84634 
L 108.082909 188.654673 
L 108.881455 188.081288 
L 109.68 187.219622 
L 110.478545 185.899394 
L 111.277091 183.989656 
L 112.075636 181.441792 
L 113.140364 177.190384 
L 116.334545 163.559104 
L 117.399273 160.352347 
L 118.464 157.999683 
L 119.528727 156.23604 
L 123.255273 150.65903 
L 127.780364 142.986854 
L 129.111273 141.328507 
L 130.176 140.298514 
L 131.240727 139.527241 
L 132.305455 139.000762 
L 133.370182 138.699533 
L 134.701091 138.599123 
L 136.032 138.743264 
L 137.629091 139.155163 
L 138.96 139.708271 
L 140.024727 140.351772 
L 141.089455 141.243977 
L 142.154182 142.430814 
L 143.485091 144.312945 
L 145.348364 147.442257 
L 148.276364 152.76128 
L 149.607273 155.560779 
L 150.938182 158.896285 
L 153.333818 165.265823 
L 154.132364 166.683285 
L 154.664727 167.192662 
L 155.197091 167.276215 
L 155.729455 166.895342 
L 156.261818 166.037096 
L 156.794182 164.720289 
L 157.592727 161.970628 
L 158.657455 157.169044 
L 159.988364 149.905835 
L 161.585455 139.749803 
L 163.182545 128.052446 
L 165.578182 110.277008 
L 166.376727 105.755154 
L 166.909091 103.530506 
L 167.441455 102.085438 
L 167.707636 101.686487 
L 167.973818 101.517427 
L 168.24 101.583146 
L 168.506182 101.889993 
L 169.038545 103.216573 
L 169.570909 105.454414 
L 170.369455 110.272855 
L 171.700364 120.600878 
L 173.031273 130.497946 
L 173.829818 134.810675 
L 174.362182 136.738491 
L 174.894545 137.867672 
L 175.160727 138.139829 
L 175.426909 138.226313 
L 175.693091 138.142027 
L 176.225455 137.503657 
L 176.757818 136.334165 
L 177.556364 133.831009 
L 178.621091 129.58351 
L 179.952 123.388406 
L 181.282909 116.242465 
L 182.347636 109.525279 
L 183.412364 101.577282 
L 184.743273 89.76559 
L 186.872727 69.89181 
L 187.671273 64.667089 
L 188.203636 62.709711 
L 188.469818 62.298056 
L 188.736 62.302698 
L 189.002182 62.743914 
L 189.268364 63.632698 
L 189.800727 66.768606 
L 190.333091 71.644459 
L 191.131636 81.740392 
L 192.462545 102.916077 
L 193.793455 123.756575 
L 194.592 133.884023 
L 195.390545 141.560597 
L 196.189091 146.780921 
L 196.721455 149.044902 
L 197.253818 150.49168 
L 197.786182 151.268573 
L 198.318545 151.517031 
L 198.850909 151.361653 
L 199.383273 150.907489 
L 200.181818 149.836208 
L 201.246545 147.950901 
L 202.577455 145.142607 
L 203.908364 141.799039 
L 204.973091 138.375339 
L 205.771636 135.014426 
L 206.570182 130.644041 
L 207.368727 124.987143 
L 208.167273 117.85928 
L 209.232 106.063956 
L 210.562909 88.41971 
L 213.490909 48.440793 
L 214.555636 37.056147 
L 215.354182 30.416896 
L 216.152727 25.621175 
L 216.685091 23.506465 
L 217.217455 22.276141 
L 217.483636 21.992747 
L 217.749818 21.927273 
L 218.016 22.076788 
L 218.282182 22.436894 
L 218.814545 23.758588 
L 219.346909 25.824437 
L 220.145455 30.116888 
L 221.210182 37.460718 
L 224.138182 59.007503 
L 224.936727 63.371047 
L 225.735273 66.588553 
L 226.267636 68.049257 
L 226.8 68.971511 
L 227.332364 69.39587 
L 227.864727 69.394404 
L 228.397091 69.064103 
L 229.461818 67.922951 
L 230.260364 67.185392 
L 230.792727 66.985061 
L 231.325091 67.12456 
L 231.857455 67.655925 
L 232.389818 68.590638 
L 233.188364 70.682139 
L 234.253091 74.410733 
L 237.447273 86.404433 
L 238.778182 90.243208 
L 240.109091 93.288967 
L 241.972364 96.79793 
L 243.303273 99.436187 
L 244.368 102.003596 
L 245.432727 105.103346 
L 246.763636 109.653296 
L 251.554909 126.8424 
L 253.152 131.360834 
L 255.281455 136.549887 
L 257.144727 141.197314 
L 258.475636 145.049771 
L 259.806545 149.54011 
L 261.137455 154.757991 
L 262.468364 160.800404 
L 264.065455 169.253381 
L 265.928727 180.555451 
L 268.324364 195.220633 
L 269.389091 200.687462 
L 270.453818 205.029019 
L 271.252364 207.47745 
L 272.050909 209.269677 
L 272.849455 210.49829 
L 273.648 211.309874 
L 274.712727 212.026178 
L 276.309818 213.053239 
L 277.374545 214.037058 
L 278.971636 215.956568 
L 280.302545 217.506688 
L 281.101091 218.171932 
L 281.899636 218.52471 
L 282.432 218.55085 
L 282.964364 218.396693 
L 283.496727 218.058086 
L 284.295273 217.177119 
L 285.093818 215.815848 
L 285.892364 213.907088 
L 286.690909 211.368751 
L 287.489455 208.111424 
L 288.554182 202.580098 
L 289.618909 195.811853 
L 293.611636 168.842947 
L 294.676364 164.001297 
L 295.474909 161.338365 
L 296.273455 159.423497 
L 297.072 158.119882 
L 297.870545 157.267743 
L 298.935273 156.559501 
L 300 156.1305 
L 300.798545 156.016409 
L 301.330909 156.118529 
L 301.863273 156.447609 
L 302.395636 157.086957 
L 302.928 158.119637 
L 303.460364 159.610146 
L 304.258909 162.762911 
L 305.057455 166.93663 
L 306.654545 176.981503 
L 307.985455 184.73259 
L 308.784 188.206128 
L 309.316364 189.882554 
L 309.848727 191.031035 
L 310.381091 191.661832 
L 310.913455 191.810126 
L 311.445818 191.526243 
L 311.978182 190.864419 
L 312.776727 189.290601 
L 313.841455 186.418543 
L 318.100364 173.776945 
L 319.165091 171.644889 
L 319.963636 170.437286 
L 320.762182 169.547281 
L 321.560727 168.943601 
L 322.359273 168.576898 
L 323.424 168.342853 
L 326.352 167.917517 
L 327.949091 167.347796 
L 330.078545 166.575546 
L 331.143273 166.380346 
L 332.208 166.391828 
L 333.272727 166.664718 
L 334.071273 167.07735 
L 334.869818 167.698619 
L 335.668364 168.548315 
L 336.733091 170.038091 
L 338.064 172.354109 
L 339.927273 175.675445 
L 340.725818 176.75039 
L 341.524364 177.423696 
L 342.056727 177.60888 
L 342.589091 177.575166 
L 343.121455 177.337212 
L 343.92 176.658531 
L 344.984727 175.379346 
L 347.114182 172.778223 
L 350.574545 169.0831 
L 352.171636 166.721641 
L 353.502545 164.823141 
L 354.301091 164.048692 
L 354.833455 163.807074 
L 355.365818 163.854469 
L 355.898182 164.247557 
L 356.430545 165.030068 
L 356.962909 166.237671 
L 357.761455 168.872753 
L 358.56 172.451098 
L 359.624727 178.389925 
L 362.552727 195.879526 
L 363.617455 200.708228 
L 364.682182 204.461496 
L 366.013091 208.217697 
L 367.876364 213.398443 
L 369.207273 217.919564 
L 370.538182 223.352923 
L 372.401455 232.074392 
L 374.797091 243.113101 
L 376.128 248.261111 
L 377.458909 252.597781 
L 379.056 257.00188 
L 380.653091 260.773227 
L 382.250182 263.944315 
L 384.113455 267.028674 
L 386.242909 270.527621 
L 388.106182 274.114272 
L 390.768 279.340216 
L 392.098909 281.426586 
L 393.429818 283.037538 
L 395.026909 284.542217 
L 401.947636 290.328353 
L 403.278545 290.969167 
L 404.609455 291.328052 
L 407.803636 292.005267 
L 409.400727 292.686147 
L 411.796364 293.753763 
L 412.861091 293.966798 
L 413.659636 293.94652 
L 414.458182 293.753519 
L 415.256727 293.382907 
L 416.321455 292.615299 
L 417.386182 291.563318 
L 418.717091 289.877365 
L 419.781818 288.20045 
L 420.846545 286.101376 
L 421.645091 284.113949 
L 422.443636 281.651592 
L 423.508364 277.511587 
L 424.839273 271.113466 
L 426.436364 262.929958 
L 426.436364 262.929958 
" clip-path="url(#paf56f45270)" style="fill: none; stroke: #ffa500; stroke-width: 3; stroke-linecap: square"/>
   </g>
   <g id="patch_3">
    <path d="M 7.2 331.2 
L 7.2 7.2 
" style="fill: none; stroke: #000000; stroke-width: 0.8; stroke-linejoin: miter; stroke-linecap: square"/>
   </g>
   <g id="patch_4">
    <path d="M 446.4 331.2 
L 446.4 7.2 
" style="fill: none; stroke: #000000; stroke-width: 0.8; stroke-linejoin: miter; stroke-linecap: square"/>
   </g>
   <g id="patch_5">
    <path d="M 7.2 331.2 
L 446.4 331.2 
" style="fill: none; stroke: #000000; stroke-width: 0.8; stroke-linejoin: miter; stroke-linecap: square"/>
   </g>
   <g id="patch_6">
    <path d="M 7.2 7.2 
L 446.4 7.2 
" style="fill: none; stroke: #000000; stroke-width: 0.8; stroke-linejoin: miter; stroke-linecap: square"/>
   </g>
  </g>
 </g>
 <defs>
  <clipPath id="paf56f45270">
   <rect x="7.2" y="7.2" width="439.2" height="324"/>
  </clipPath>
 </defs>
</svg>
