<?xml version="1.0" encoding="utf-8" standalone="no"?>
<!DOCTYPE svg PUBLIC "-//W3C//DTD SVG 1.1//EN"
  "http://www.w3.org/Graphics/SVG/1.1/DTD/svg11.dtd">
<svg xmlns:xlink="http://www.w3.org/1999/xlink" width="453.6pt" height="338.4pt" viewBox="0 0 453.6 338.4" xmlns="http://www.w3.org/2000/svg" version="1.1">
 <metadata>
  <rdf:RDF xmlns:dc="http://purl.org/dc/elements/1.1/" xmlns:cc="http://creativecommons.org/ns#" xmlns:rdf="http://www.w3.org/1999/02/22-rdf-syntax-ns#">
   <cc:Work>
    <dc:type rdf:resource="http://purl.org/dc/dcmitype/StillImage"/>
    <dc:date>2025-05-14T00:23:22.004529</dc:date>
    <dc:format>image/svg+xml</dc:format>
    <dc:creator>
     <cc:Agent>
      <dc:title>Matplotlib v3.10.1, https://matplotlib.org/</dc:title>
     </cc:Agent>
    </dc:creator>
   </cc:Work>
  </rdf:RDF>
 </metadata>
 <defs>
  <style type="text/css">*{stroke-linejoin: round; stroke-linecap: butt}</style>
 </defs>
 <g id="figure_1">
  <g id="patch_1">
   <path d="M 0 338.4 
L 453.6 338.4 
L 453.6 0 
L 0 0 
z
" style="fill: #ffffff"/>
  </g>
  <g id="axes_1">
   <g id="patch_2">
    <path d="M 7.2 331.2 
L 446.4 331.2 
L 446.4 7.2 
L 7.2 7.2 
z
" style="fill: #ffffff"/>
   </g>
   <g id="matplotlib.axis_1"/>
   <g id="matplotlib.axis_2"/>
   <g id="line2d_1">
    <path d="M 27.163636 315.573307 
L 159.456 21.927273 
L 297.870545 316.216528 
L 298.136727 316.472727 
L 426.436364 151.816428 
L 426.436364 151.816428 
" clip-path="url(#p3cfed86c01)" style="fill: none; stroke-dasharray: 11.1,4.8; stroke-dashoffset: 0; stroke: #000000; stroke-width: 3"/>
   </g>
   <g id="line2d_2">
    <path d="M 27.163636 236.645683 
L 36.746182 237.193932 
L 45.796364 237.593566 
L 50.587636 237.22724 
L 55.645091 236.615243 
L 64.961455 235.394065 
L 73.745455 234.473114 
L 78.802909 233.738991 
L 83.328 232.765332 
L 89.716364 231.161974 
L 103.557818 227.361512 
L 105.953455 226.303894 
L 108.082909 225.105638 
L 109.946182 223.817761 
L 111.543273 222.489906 
L 113.140364 220.913998 
L 114.737455 218.677486 
L 117.399273 214.596144 
L 120.859636 208.832389 
L 126.449455 198.978038 
L 133.104 187.368651 
L 135.233455 184.26726 
L 137.362909 181.577333 
L 139.492364 179.268571 
L 141.621818 177.310739 
L 143.751273 175.672669 
L 145.614545 174.476748 
L 146.146909 174.265241 
L 148.542545 173.904864 
L 151.204364 173.727679 
L 154.398545 173.753815 
L 158.657455 174.044677 
L 162.650182 174.476192 
L 167.441455 175.528394 
L 171.434182 176.173385 
L 174.894545 176.503781 
L 178.088727 176.578794 
L 179.419636 176.455399 
L 183.146182 175.848006 
L 186.340364 175.102587 
L 189.268364 174.176949 
L 191.930182 173.089899 
L 194.325818 171.878777 
L 195.124364 171.334261 
L 200.980364 165.591715 
L 205.239273 161.552461 
L 208.167273 159.061378 
L 210.562909 157.294669 
L 211.095273 156.943274 
L 211.361455 156.902027 
L 212.426182 157.4547 
L 214.023273 158.561938 
L 215.620364 159.9505 
L 217.483636 161.887258 
L 219.613091 164.462998 
L 222.008727 167.742894 
L 224.936727 172.168602 
L 228.130909 177.047681 
L 230.792727 178.928262 
L 233.454545 180.515352 
L 235.850182 181.698655 
L 238.245818 182.65522 
L 240.641455 183.390005 
L 243.037091 183.907859 
L 244.900364 184.115461 
L 248.893091 183.594872 
L 254.216727 182.657293 
L 262.202182 181.228161 
L 264.864 181.122866 
L 267.259636 181.237038 
L 269.655273 181.570138 
L 272.050909 182.142773 
L 274.180364 182.869146 
L 276.309818 183.814776 
L 278.173091 184.833467 
L 278.705455 185.321656 
L 283.496727 190.868977 
L 287.489455 195.15331 
L 290.949818 198.539103 
L 293.877818 201.118553 
L 295.474909 202.331116 
L 297.338182 202.808099 
L 299.201455 203.060433 
L 301.064727 203.104488 
L 303.194182 202.9208 
L 305.323636 202.511094 
L 307.719273 201.810513 
L 310.381091 200.775449 
L 312.244364 199.882046 
L 313.841455 198.555565 
L 315.970909 196.480857 
L 318.366545 193.792176 
L 321.028364 190.436695 
L 324.222545 186.015328 
L 328.481455 179.697023 
L 329.013818 179.034714 
L 331.143273 177.330341 
L 333.272727 175.897574 
L 335.402182 174.737718 
L 337.531636 173.852111 
L 339.394909 173.303434 
L 341.258182 172.966909 
L 343.121455 172.843589 
L 344.984727 172.935261 
L 350.042182 173.399356 
L 355.365818 173.95263 
L 358.56 174.518295 
L 361.221818 175.22095 
L 362.552727 175.546119 
L 365.214545 175.920015 
L 367.610182 176.041412 
L 370.005818 175.93831 
L 372.135273 175.642056 
L 374.264727 175.138186 
L 376.394182 174.41318 
L 378.257455 173.549113 
L 380.120727 172.251111 
L 382.516364 170.2829 
L 389.969455 163.908132 
L 391.832727 162.706083 
L 393.429818 161.935489 
L 394.760727 161.363004 
L 396.091636 160.496939 
L 397.688727 159.192148 
L 399.818182 157.120384 
L 403.278545 153.35353 
L 406.472727 149.988436 
L 408.336 148.310665 
L 409.933091 147.148917 
L 410.199273 147.023298 
L 410.465455 147.147895 
L 412.861091 150.207768 
L 415.789091 154.326302 
L 425.637818 168.529996 
L 426.436364 169.546013 
L 426.436364 169.546013 
" clip-path="url(#p3cfed86c01)" style="fill: none; stroke-dasharray: 3,4.95; stroke-dashoffset: 0; stroke: #ffa500; stroke-width: 3"/>
   </g>
   <g id="line2d_3">
    <path d="M 27.163636 225.185759 
L 29.559273 227.747334 
L 35.681455 234.089327 
L 37.544727 236.406605 
L 39.408 239.107573 
L 41.005091 241.817673 
L 42.602182 244.973108 
L 43.933091 247.777298 
L 44.199273 248.125178 
L 44.465455 248.137315 
L 46.328727 245.933113 
L 48.192 243.393889 
L 50.055273 240.516638 
L 52.184727 236.803032 
L 54.314182 232.641328 
L 56.709818 227.41868 
L 59.105455 221.635339 
L 60.170182 218.717832 
L 62.299636 211.89085 
L 63.630545 211.639944 
L 64.961455 211.59404 
L 66.292364 211.764796 
L 67.623273 212.161944 
L 68.954182 212.800505 
L 70.285091 213.688771 
L 71.616 214.841883 
L 72.946909 216.271135 
L 74.277818 217.989627 
L 75.874909 220.453147 
L 76.673455 221.73075 
L 78.004364 222.629591 
L 79.069091 223.171298 
L 81.730909 224.177808 
L 83.860364 225.193209 
L 91.313455 228.428194 
L 92.644364 229.285096 
L 94.773818 235.582027 
L 97.169455 243.008637 
L 99.032727 248.817093 
L 100.363636 251.218127 
L 101.428364 252.746637 
L 102.493091 253.870548 
L 103.291636 254.416822 
L 104.090182 254.68395 
L 104.888727 254.648622 
L 105.687273 254.289566 
L 106.485818 253.584793 
L 107.284364 252.511472 
L 108.082909 251.047732 
L 108.881455 249.137576 
L 109.946182 245.449446 
L 111.277091 240.074067 
L 112.874182 232.652023 
L 113.672727 227.693139 
L 116.866909 205.088622 
L 120.327273 181.014476 
L 122.456727 167.575969 
L 124.32 157.20854 
L 125.118545 153.262054 
L 131.773091 97.574677 
L 133.370182 86.059785 
L 134.967273 76.213996 
L 136.564364 67.585848 
L 138.161455 60.107207 
L 139.758545 53.710178 
L 141.089455 49.156974 
L 142.420364 45.393379 
L 144.017455 41.530288 
L 145.614545 38.310684 
L 145.880727 37.944659 
L 146.146909 37.843479 
L 147.477818 38.147619 
L 148.808727 38.69149 
L 152.002909 40.432092 
L 153.333818 41.594456 
L 154.664727 43.064565 
L 155.995636 44.851431 
L 157.858909 47.509981 
L 159.456 49.439964 
L 161.053091 51.687426 
L 162.117818 53.372872 
L 162.916364 55.302616 
L 165.045818 61.085597 
L 166.376727 64.734192 
L 171.700364 73.286155 
L 173.563636 76.415875 
L 176.225455 83.843927 
L 180.750545 97.397673 
L 182.613818 103.744232 
L 184.743273 111.840646 
L 186.606545 119.831074 
L 188.469818 128.732599 
L 189.800727 136.043249 
L 191.397818 146.226103 
L 192.728727 153.409377 
L 193.793455 158.256627 
L 194.858182 162.224143 
L 195.390545 163.006062 
L 196.189091 163.831361 
L 196.987636 164.347954 
L 197.786182 164.572904 
L 198.584727 164.523877 
L 199.383273 164.216372 
L 200.181818 163.672381 
L 201.246545 162.608673 
L 202.311273 161.190837 
L 203.642182 158.979905 
L 205.239273 155.781811 
L 206.304 153.306395 
L 206.836364 151.117213 
L 210.829091 133.55161 
L 211.095273 132.441038 
L 211.361455 131.994742 
L 211.893818 132.76885 
L 212.958545 134.882087 
L 214.023273 137.510474 
L 215.354182 141.458163 
L 216.685091 146.10101 
L 218.282182 152.648006 
L 220.145455 161.192279 
L 222.541091 173.27147 
L 226.267636 193.426767 
L 227.864727 201.859044 
L 228.929455 202.771103 
L 229.994182 203.408102 
L 231.058909 203.821233 
L 232.389818 204.098575 
L 233.188364 204.129578 
L 234.785455 203.87759 
L 238.245818 203.242153 
L 239.576727 203.264144 
L 239.842909 203.302356 
L 240.109091 203.65264 
L 240.907636 206.337866 
L 244.900364 220.271817 
L 249.159273 230.254955 
L 251.288727 234.279549 
L 252.885818 236.86636 
L 254.216727 238.659955 
L 255.547636 240.064333 
L 256.612364 240.870526 
L 257.144727 240.660957 
L 258.209455 239.881561 
L 259.274182 238.849697 
L 260.605091 237.208952 
L 265.396364 230.300017 
L 268.856727 224.767341 
L 272.050909 219.2307 
L 273.381818 216.790492 
L 273.648 215.539566 
L 277.640727 183.146819 
L 278.439273 177.881512 
L 279.237818 174.940213 
L 280.568727 170.886418 
L 281.899636 167.566716 
L 282.964364 165.4685 
L 284.029091 163.824992 
L 284.827636 162.90308 
L 285.626182 162.257188 
L 286.424727 161.89597 
L 287.223273 161.828316 
L 288.021818 162.06252 
L 288.820364 162.608073 
L 289.618909 163.472546 
L 289.885091 163.838691 
L 295.474909 188.610039 
L 297.870545 193.717568 
L 299.201455 196.622577 
L 301.064727 201.198733 
L 302.661818 205.64559 
L 304.258909 210.6958 
L 305.856 216.460997 
L 306.122182 218.35409 
L 308.784 246.840966 
L 310.381091 261.283098 
L 311.978182 273.394133 
L 312.776727 277.88377 
L 313.841455 282.582254 
L 314.906182 286.316768 
L 315.704727 288.521211 
L 316.503273 290.093941 
L 317.035636 290.797993 
L 317.568 291.23083 
L 318.100364 291.396779 
L 318.632727 291.299205 
L 319.165091 290.942432 
L 319.697455 290.329947 
L 320.496 288.94119 
L 321.294545 286.99895 
L 322.093091 284.516444 
L 322.891636 281.505448 
L 324.754909 271.617481 
L 326.884364 259.054262 
L 329.013818 246.194233 
L 331.143273 239.671751 
L 332.740364 235.436867 
L 334.071273 232.45435 
L 335.402182 229.990109 
L 336.466909 228.405963 
L 337.531636 227.177868 
L 338.596364 226.315678 
L 339.394909 225.916367 
L 340.193455 225.732033 
L 340.992 225.765679 
L 341.790545 226.036653 
L 342.589091 226.547959 
L 343.387636 227.300918 
L 344.452364 228.688473 
L 345.783273 230.950595 
L 346.848 232.665241 
L 349.243636 235.427854 
L 356.696727 243.639868 
L 358.56 246.184019 
L 360.157091 248.704858 
L 362.552727 252.619742 
L 363.883636 254.046351 
L 365.214545 255.152477 
L 366.279273 255.794523 
L 367.344 256.211018 
L 368.408727 256.392949 
L 369.473455 256.331544 
L 370.538182 256.017912 
L 371.602909 255.442798 
L 372.667636 254.59659 
L 373.732364 253.470876 
L 374.797091 252.056284 
L 376.128 249.856888 
L 377.458909 247.169139 
L 378.257455 245.135693 
L 379.588364 240.705779 
L 381.185455 234.587535 
L 383.581091 224.338109 
L 388.638545 202.355209 
L 390.235636 196.408442 
L 391.566545 192.171394 
L 392.631273 189.358913 
L 393.696 187.203738 
L 394.228364 186.332656 
L 395.026909 184.281425 
L 396.091636 180.884577 
L 397.422545 175.728741 
L 399.019636 168.48935 
L 401.149091 157.652433 
L 406.206545 131.317968 
L 407.803636 124.231067 
L 409.134545 119.243583 
L 410.199273 115.215264 
L 410.465455 115.7053 
L 412.328727 126.998005 
L 414.724364 143.133635 
L 418.184727 168.247576 
L 422.976 202.829143 
L 425.371636 218.455991 
L 426.436364 224.789091 
L 426.436364 224.789091 
" clip-path="url(#p3cfed86c01)" style="fill: none; stroke: #ffa500; stroke-width: 3; stroke-linecap: square"/>
   </g>
   <g id="patch_3">
    <path d="M 7.2 331.2 
L 7.2 7.2 
" style="fill: none; stroke: #000000; stroke-width: 0.8; stroke-linejoin: miter; stroke-linecap: square"/>
   </g>
   <g id="patch_4">
    <path d="M 446.4 331.2 
L 446.4 7.2 
" style="fill: none; stroke: #000000; stroke-width: 0.8; stroke-linejoin: miter; stroke-linecap: square"/>
   </g>
   <g id="patch_5">
    <path d="M 7.2 331.2 
L 446.4 331.2 
" style="fill: none; stroke: #000000; stroke-width: 0.8; stroke-linejoin: miter; stroke-linecap: square"/>
   </g>
   <g id="patch_6">
    <path d="M 7.2 7.2 
L 446.4 7.2 
" style="fill: none; stroke: #000000; stroke-width: 0.8; stroke-linejoin: miter; stroke-linecap: square"/>
   </g>
  </g>
 </g>
 <defs>
  <clipPath id="p3cfed86c01">
   <rect x="7.2" y="7.2" width="439.2" height="324"/>
  </clipPath>
 </defs>
</svg>
