<?xml version="1.0" encoding="utf-8" standalone="no"?>
<!DOCTYPE svg PUBLIC "-//W3C//DTD SVG 1.1//EN"
  "http://www.w3.org/Graphics/SVG/1.1/DTD/svg11.dtd">
<svg xmlns:xlink="http://www.w3.org/1999/xlink" width="453.6pt" height="338.4pt" viewBox="0 0 453.6 338.4" xmlns="http://www.w3.org/2000/svg" version="1.1">
 <metadata>
  <rdf:RDF xmlns:dc="http://purl.org/dc/elements/1.1/" xmlns:cc="http://creativecommons.org/ns#" xmlns:rdf="http://www.w3.org/1999/02/22-rdf-syntax-ns#">
   <cc:Work>
    <dc:type rdf:resource="http://purl.org/dc/dcmitype/StillImage"/>
    <dc:date>2025-05-14T00:22:59.679278</dc:date>
    <dc:format>image/svg+xml</dc:format>
    <dc:creator>
     <cc:Agent>
      <dc:title>Matplotlib v3.10.1, https://matplotlib.org/</dc:title>
     </cc:Agent>
    </dc:creator>
   </cc:Work>
  </rdf:RDF>
 </metadata>
 <defs>
  <style type="text/css">*{stroke-linejoin: round; stroke-linecap: butt}</style>
 </defs>
 <g id="figure_1">
  <g id="patch_1">
   <path d="M 0 338.4 
L 453.6 338.4 
L 453.6 0 
L 0 0 
z
" style="fill: #ffffff"/>
  </g>
  <g id="axes_1">
   <g id="patch_2">
    <path d="M 7.2 331.2 
L 446.4 331.2 
L 446.4 7.2 
L 7.2 7.2 
z
" style="fill: #ffffff"/>
   </g>
   <g id="matplotlib.axis_1"/>
   <g id="matplotlib.axis_2"/>
   <g id="line2d_1">
    <path d="M 27.163636 97.334065 
L 29.825455 112.368902 
L 32.487273 126.126839 
L 35.149091 138.695086 
L 37.810909 150.160768 
L 40.472727 160.610855 
L 43.134545 170.132628 
L 45.796364 178.81311 
L 48.458182 186.739457 
L 51.12 193.998742 
L 54.048 201.317508 
L 56.976 208.0505 
L 60.170182 214.863804 
L 64.162909 222.823519 
L 70.817455 235.46963 
L 75.874909 245.278448 
L 79.601455 253.004336 
L 82.795636 260.166925 
L 85.723636 267.306725 
L 88.385455 274.374634 
L 91.047273 282.082227 
L 93.709091 290.51665 
L 96.370909 299.764982 
L 99.032727 309.914357 
L 100.629818 316.472727 
L 100.896 314.598416 
L 103.025455 293.277549 
L 105.154909 274.142078 
L 107.284364 256.857326 
L 109.68 239.207472 
L 112.341818 221.267276 
L 115.802182 199.532028 
L 121.924364 161.322508 
L 124.586182 143.153621 
L 126.981818 125.212869 
L 129.111273 107.60191 
L 130.708364 93.363343 
L 133.104 98.981182 
L 135.765818 105.867941 
L 138.693818 114.116206 
L 142.154182 124.603051 
L 146.413091 138.31143 
L 153.333818 161.511753 
L 159.722182 182.674342 
L 163.714909 195.168472 
L 166.909091 204.493357 
L 169.837091 212.363689 
L 172.232727 218.228741 
L 174.628364 223.50172 
L 176.757818 227.635092 
L 178.621091 230.783905 
L 180.218182 233.109086 
L 181.815273 235.067317 
L 183.146182 236.403865 
L 184.477091 237.45916 
L 185.808 238.221169 
L 186.872727 238.611535 
L 187.937455 238.80036 
L 188.469818 238.817285 
L 188.736 238.411853 
L 191.131636 194.177687 
L 193.261091 158.579053 
L 195.124364 130.614542 
L 196.987636 105.888541 
L 198.584727 87.465374 
L 200.181818 71.768915 
L 201.512727 60.887053 
L 202.577455 53.687426 
L 203.642182 47.877696 
L 204.440727 44.461164 
L 205.239273 41.873241 
L 206.037818 40.13398 
L 206.570182 39.455831 
L 207.102545 39.169695 
L 207.634909 39.281516 
L 208.167273 39.797236 
L 208.699636 40.722798 
L 209.232 42.064082 
L 210.030545 44.868633 
L 210.829091 48.642026 
L 211.627636 53.404273 
L 212.692364 61.326987 
L 213.757091 71.090745 
L 214.289455 78.463846 
L 216.418909 109.848953 
L 218.548364 138.015845 
L 220.411636 160.032074 
L 222.274909 179.602901 
L 224.138182 196.737031 
L 225.735273 209.490301 
L 227.332364 220.465242 
L 228.663273 228.256228 
L 229.994182 234.819043 
L 231.325091 240.15682 
L 232.389818 243.547119 
L 233.454545 246.157024 
L 234.253091 247.603314 
L 235.051636 248.612174 
L 235.850182 249.18434 
L 236.382545 249.323502 
L 236.914909 249.269062 
L 237.447273 249.021239 
L 237.979636 248.580224 
L 238.778182 247.556932 
L 239.576727 246.100053 
L 240.375273 244.210301 
L 241.44 241.018581 
L 242.504727 237.060007 
L 243.569455 232.336388 
L 244.900364 225.358367 
L 246.231273 217.19035 
L 246.763636 213.590852 
L 247.029818 213.189357 
L 247.828364 215.159819 
L 248.626909 216.627466 
L 249.425455 217.607647 
L 249.957818 217.997928 
L 250.490182 218.183005 
L 251.022545 218.167444 
L 251.554909 217.955824 
L 252.087273 217.552702 
L 252.885818 216.598959 
L 253.684364 215.2401 
L 254.482909 213.491567 
L 255.547636 210.580529 
L 256.612364 207.040742 
L 257.943273 201.78747 
L 259.540364 194.362585 
L 261.137455 185.83166 
L 263.000727 174.645257 
L 265.130182 160.474297 
L 267.792 141.109598 
L 271.252364 114.075572 
L 280.568727 40.123396 
L 282.964364 22.981686 
L 283.230545 21.927273 
L 285.093818 27.394988 
L 287.223273 34.43521 
L 289.352727 42.246838 
L 291.748364 51.862677 
L 294.410182 63.447803 
L 297.604364 78.399609 
L 301.330909 96.966747 
L 306.388364 123.402715 
L 317.301818 180.807091 
L 321.028364 199.112494 
L 324.222545 213.761156 
L 326.884364 225.038065 
L 329.28 234.333226 
L 331.409455 241.825634 
L 333.538909 248.514182 
L 335.402182 253.647694 
L 336.999273 257.473218 
L 338.596364 260.734461 
L 339.927273 262.998104 
L 341.258182 264.829142 
L 342.322909 265.970072 
L 343.387636 266.81276 
L 344.452364 267.347757 
L 345.250909 267.54137 
L 346.049455 267.552552 
L 346.848 267.377314 
L 347.646545 267.011639 
L 348.445091 266.451547 
L 349.509818 265.395349 
L 350.574545 263.976914 
L 351.639273 262.186736 
L 352.171636 261.149248 
L 352.437818 260.990247 
L 353.502545 261.539393 
L 354.567273 261.836558 
L 355.632 261.892269 
L 356.696727 261.716951 
L 357.761455 261.321153 
L 358.826182 260.715336 
L 360.157091 259.678719 
L 361.488 258.350828 
L 363.085091 256.401727 
L 364.682182 254.098102 
L 366.545455 251.009672 
L 368.674909 247.020328 
L 371.070545 242.046373 
L 373.998545 235.436788 
L 378.257455 225.206143 
L 384.912 209.213479 
L 387.84 202.73652 
L 390.235636 197.912767 
L 392.365091 194.08844 
L 394.228364 191.168792 
L 395.825455 189.027889 
L 397.422545 187.258211 
L 398.753455 186.092586 
L 400.084364 185.229812 
L 401.149091 184.77143 
L 402.213818 184.530464 
L 403.278545 184.517434 
L 404.343273 184.742819 
L 405.408 185.217076 
L 406.472727 185.950736 
L 407.537455 186.954268 
L 408.602182 188.238192 
L 409.933091 190.253331 
L 411.264 192.743419 
L 412.594909 195.728931 
L 413.925818 199.230384 
L 415.522909 204.142009 
L 417.12 209.861463 
L 418.717091 216.424057 
L 420.314182 223.865406 
L 422.177455 233.704719 
L 424.040727 244.844367 
L 425.904 257.340419 
L 426.436364 261.167843 
L 426.436364 261.167843 
" clip-path="url(#p7dee9f3367)" style="fill: none; stroke-dasharray: 11.1,4.8; stroke-dashoffset: 0; stroke: #000000; stroke-width: 3"/>
   </g>
   <g id="line2d_2">
    <path d="M 27.163636 189.371248 
L 29.026909 187.264416 
L 30.357818 186.022564 
L 31.688727 185.044924 
L 33.019636 184.358102 
L 34.084364 184.038358 
L 35.149091 183.934033 
L 36.213818 184.05354 
L 37.278545 184.410117 
L 38.343273 185.002002 
L 39.408 185.836374 
L 40.472727 186.911346 
L 41.803636 188.596397 
L 43.134545 190.648767 
L 44.731636 193.559228 
L 47.127273 197.825231 
L 47.393455 197.981571 
L 47.659636 197.845359 
L 48.724364 195.444129 
L 49.789091 193.530396 
L 51.12 191.659145 
L 52.450909 190.203163 
L 53.781818 189.067053 
L 55.112727 188.216595 
L 56.443636 187.663601 
L 57.508364 187.463814 
L 58.306909 187.484352 
L 59.105455 187.668284 
L 59.904 188.037167 
L 60.702545 188.617774 
L 62.033455 189.982545 
L 65.76 194.136728 
L 66.558545 194.645865 
L 67.090909 194.820956 
L 67.357091 194.436775 
L 68.688 190.372963 
L 69.752727 187.729087 
L 70.817455 185.654028 
L 71.616 184.483331 
L 72.414545 183.656781 
L 73.213091 183.185306 
L 73.745455 183.072971 
L 74.277818 183.126036 
L 74.810182 183.351147 
L 75.608727 184.013169 
L 76.407273 185.077578 
L 77.205818 186.383478 
L 78.270545 187.398297 
L 79.335273 188.758637 
L 80.4 190.499074 
L 81.198545 192.033865 
L 81.464727 191.979593 
L 82.529455 189.667578 
L 83.328 188.377512 
L 84.126545 187.470954 
L 84.925091 186.916165 
L 85.723636 186.66535 
L 86.522182 186.660174 
L 87.586909 186.925898 
L 89.184 187.621718 
L 91.313455 188.538397 
L 92.910545 188.973795 
L 94.507636 189.160499 
L 100.363636 189.649015 
L 101.428364 189.459896 
L 102.493091 189.0193 
L 103.291636 188.45839 
L 104.090182 187.636228 
L 104.888727 186.499887 
L 105.687273 184.959615 
L 106.219636 183.856294 
L 108.082909 182.625666 
L 109.68 181.840106 
L 111.277091 181.329594 
L 112.341818 181.249587 
L 113.672727 181.387531 
L 115.269818 181.778578 
L 117.399273 182.554857 
L 119.262545 183.451471 
L 120.859636 184.430949 
L 122.190545 185.461538 
L 122.989091 186.068122 
L 123.521455 185.756178 
L 124.586182 185.113203 
L 125.650909 184.738157 
L 126.449455 184.664408 
L 127.514182 184.852477 
L 128.845091 185.363776 
L 131.240727 186.605996 
L 134.168727 188.068991 
L 135.765818 188.650281 
L 136.830545 188.892801 
L 137.895273 186.313729 
L 138.693818 184.815728 
L 139.492364 183.71603 
L 140.290909 183.00885 
L 140.823273 182.759064 
L 141.355636 182.697032 
L 141.888 182.819888 
L 142.420364 183.130299 
L 143.218909 183.949268 
L 143.751273 184.592727 
L 144.816 185.286961 
L 145.880727 186.203724 
L 147.211636 187.686795 
L 148.542545 189.539147 
L 150.139636 192.17056 
L 151.736727 195.037332 
L 152.002909 194.998589 
L 153.067636 191.757358 
L 153.866182 189.95489 
L 154.664727 188.689539 
L 155.463273 187.903706 
L 156.261818 187.522255 
L 157.060364 187.441408 
L 158.391273 187.635389 
L 159.456 187.687918 
L 159.988364 187.541679 
L 160.520727 187.218816 
L 161.053091 186.679283 
L 161.585455 185.867306 
L 162.117818 184.724087 
L 162.916364 182.379293 
L 163.714909 184.139353 
L 164.513455 185.424915 
L 165.312 186.264066 
L 166.110545 186.68572 
L 166.642909 186.750628 
L 167.175273 186.652677 
L 167.973818 186.226477 
L 168.772364 185.495525 
L 169.837091 184.112243 
L 170.901818 182.343069 
L 172.498909 179.170684 
L 172.765091 178.599947 
L 173.031273 178.571461 
L 173.829818 182.183653 
L 174.362182 183.91169 
L 174.894545 185.107859 
L 175.426909 185.841687 
L 175.959273 186.171039 
L 176.491636 186.152213 
L 177.556364 185.559027 
L 178.621091 184.705178 
L 180.484364 182.832204 
L 183.146182 180.154309 
L 184.743273 178.85914 
L 186.074182 178.029429 
L 187.671273 177.337389 
L 189.268364 176.932534 
L 191.131636 176.730217 
L 193.527273 176.694015 
L 193.793455 177.31177 
L 194.592 180.812582 
L 195.390545 183.465236 
L 196.189091 185.400609 
L 196.987636 186.749379 
L 197.786182 187.638192 
L 198.584727 188.18708 
L 199.649455 188.578632 
L 203.109818 189.474742 
L 204.174545 190.123072 
L 205.239273 191.041746 
L 206.570182 192.531012 
L 208.699636 195.370159 
L 209.232 196.085078 
L 209.498182 196.2274 
L 209.764364 196.236818 
L 210.030545 196.120304 
L 210.562909 194.937911 
L 212.426182 190.454713 
L 213.757091 187.803162 
L 214.821818 186.123812 
L 215.886545 184.90676 
L 216.685091 184.331087 
L 217.483636 184.068722 
L 218.016 184.078015 
L 218.548364 184.23932 
L 219.346909 184.776438 
L 220.145455 185.676581 
L 220.944 186.95304 
L 221.742545 188.60465 
L 222.541091 190.306448 
L 223.339636 188.459262 
L 224.138182 187.053867 
L 224.936727 186.051301 
L 225.735273 185.410321 
L 226.533818 185.09129 
L 227.332364 185.0337 
L 228.929455 185.119156 
L 230.260364 185.395097 
L 231.591273 185.892106 
L 233.188364 186.76411 
L 235.317818 188.240282 
L 239.044364 190.887098 
L 239.842909 191.231464 
L 240.907636 191.411364 
L 242.238545 191.368221 
L 243.569455 191.167584 
L 244.368 190.583281 
L 247.828364 187.600929 
L 248.626909 187.251617 
L 249.425455 187.126147 
L 250.224 187.252993 
L 251.022545 187.657648 
L 251.821091 188.369416 
L 252.619636 189.422181 
L 253.418182 190.857573 
L 254.216727 192.728152 
L 255.281455 195.666322 
L 256.878545 190.694062 
L 258.475636 186.414032 
L 259.806545 183.406995 
L 260.072727 182.873268 
L 262.202182 181.45161 
L 264.864 179.69723 
L 266.461091 178.902692 
L 268.058182 178.387434 
L 269.655273 178.156579 
L 271.252364 178.163121 
L 273.381818 178.407048 
L 276.842182 178.937509 
L 277.640727 179.66277 
L 278.971636 181.148486 
L 279.770182 181.633463 
L 280.568727 181.866891 
L 281.633455 181.905613 
L 283.496727 181.639826 
L 285.093818 181.482836 
L 286.158545 181.564145 
L 287.223273 181.852727 
L 288.288 182.365486 
L 289.618909 183.313989 
L 291.482182 184.818164 
L 293.345455 185.195992 
L 294.144 185.878299 
L 295.208727 187.101168 
L 297.338182 190.026297 
L 299.467636 192.8065 
L 300.798545 194.192176 
L 301.863273 195.033048 
L 302.928 195.613162 
L 303.992727 195.923605 
L 304.791273 195.941506 
L 305.057455 195.544652 
L 306.122182 192.968562 
L 307.186909 190.899708 
L 308.251636 189.258828 
L 309.316364 187.974432 
L 310.114909 187.092128 
L 310.913455 185.910565 
L 311.712 185.08708 
L 312.510545 184.616225 
L 313.309091 184.483468 
L 314.107636 184.666129 
L 314.906182 185.136607 
L 315.704727 185.862287 
L 316.769455 187.165111 
L 318.100364 189.198434 
L 319.697455 191.98037 
L 321.028364 190.461359 
L 322.093091 189.710669 
L 323.157818 189.269685 
L 324.488727 188.999792 
L 326.352 188.886197 
L 330.078545 188.931986 
L 331.941818 189.170694 
L 333.805091 189.648511 
L 335.934545 190.454377 
L 338.596364 191.472997 
L 339.661091 191.682727 
L 340.725818 191.64518 
L 341.524364 191.381724 
L 341.790545 191.240767 
L 342.056727 190.815553 
L 342.855273 189.059 
L 343.387636 188.200961 
L 344.186182 187.362829 
L 344.984727 186.816324 
L 345.783273 186.53084 
L 346.581818 186.457395 
L 347.646545 186.614081 
L 349.509818 187.222932 
L 350.840727 187.532366 
L 351.639273 187.495198 
L 352.437818 187.176849 
L 352.970182 186.753568 
L 353.502545 186.126353 
L 354.034909 185.258255 
L 354.833455 183.407509 
L 355.365818 181.935947 
L 356.430545 183.018698 
L 357.495273 183.766901 
L 358.56 184.192019 
L 359.624727 184.311463 
L 361.221818 184.131762 
L 362.818909 183.694527 
L 364.416 183.01285 
L 366.545455 181.820745 
L 367.610182 181.161842 
L 367.876364 181.254249 
L 370.005818 185.324067 
L 371.336727 187.440904 
L 372.667636 189.134985 
L 373.732364 190.147998 
L 374.797091 190.833277 
L 375.595636 191.128431 
L 376.394182 191.23327 
L 377.192727 191.135865 
L 377.991273 190.801263 
L 378.789818 190.220467 
L 379.588364 189.386703 
L 380.120727 188.686127 
L 380.386909 188.710958 
L 381.185455 189.037433 
L 381.984 189.095654 
L 383.048727 188.883992 
L 384.912 188.160642 
L 386.242909 187.71739 
L 387.307636 187.578082 
L 388.106182 187.657595 
L 388.904727 187.924327 
L 389.703273 188.403204 
L 390.501818 189.104242 
L 391.566545 190.39161 
L 392.631273 192.074866 
L 393.163636 193.060171 
L 394.228364 193.578642 
L 395.559273 194.48416 
L 396.890182 195.704499 
L 398.221091 197.241148 
L 398.487273 197.537647 
L 399.019636 197.699646 
L 399.818182 197.178896 
L 401.947636 195.822304 
L 403.810909 194.903263 
L 405.674182 194.229639 
L 407.537455 193.764065 
L 409.666909 193.446284 
L 411.796364 193.208163 
L 414.458182 192.569367 
L 416.853818 191.798758 
L 418.184727 191.159951 
L 419.249455 190.432968 
L 420.314182 189.434886 
L 421.378909 188.104679 
L 422.443636 186.409643 
L 423.774545 183.782587 
L 425.637818 179.436094 
L 426.436364 177.493256 
L 426.436364 177.493256 
" clip-path="url(#p7dee9f3367)" style="fill: none; stroke-dasharray: 3,4.95; stroke-dashoffset: 0; stroke: #ffa500; stroke-width: 3"/>
   </g>
   <g id="line2d_3">
    <path d="M 27.163636 208.073914 
L 35.415273 185.328435 
L 39.940364 171.303587 
L 40.206545 171.601293 
L 41.271273 178.046501 
L 42.336 182.945243 
L 43.400727 186.656268 
L 44.465455 189.521245 
L 45.530182 191.770325 
L 46.594909 193.432277 
L 47.127273 194.060553 
L 47.393455 194.027941 
L 47.659636 193.675186 
L 49.522909 187.767936 
L 50.853818 184.174055 
L 52.184727 181.251802 
L 53.249455 179.524952 
L 54.048 178.650628 
L 54.580364 178.385355 
L 54.846545 178.682652 
L 58.040727 185.007566 
L 60.170182 188.704008 
L 60.436364 189.131709 
L 63.630545 198.513565 
L 65.227636 204.045927 
L 66.824727 210.288146 
L 67.090909 210.473569 
L 67.357091 210.15079 
L 68.688 206.35392 
L 69.220364 205.062342 
L 70.817455 198.605447 
L 72.148364 193.97328 
L 73.479273 190.132175 
L 74.544 187.775926 
L 75.342545 186.560165 
L 75.874909 186.08658 
L 76.407273 185.94473 
L 76.673455 186.01281 
L 77.205818 186.340503 
L 77.738182 186.507804 
L 78.270545 186.882902 
L 79.069091 187.854347 
L 79.867636 189.322298 
L 80.666182 191.29422 
L 81.198545 192.86723 
L 81.464727 193.114108 
L 81.997091 192.549428 
L 82.529455 192.255334 
L 83.061818 192.254725 
L 83.594182 192.540167 
L 84.658909 193.590097 
L 85.989818 195.228541 
L 87.320727 197.113253 
L 88.119273 198.969878 
L 89.450182 201.813467 
L 90.514909 203.596575 
L 91.579636 204.932787 
L 92.378182 205.644913 
L 93.176727 206.12023 
L 94.773818 206.645064 
L 95.838545 206.661664 
L 97.435636 206.423889 
L 100.097455 206.013586 
L 101.428364 206.011171 
L 102.759273 206.231222 
L 103.557818 206.488525 
L 104.090182 206.812333 
L 106.485818 192.108255 
L 107.816727 186.586425 
L 109.147636 182.149278 
L 110.212364 179.316976 
L 111.010909 178.065044 
L 112.874182 175.131389 
L 116.334545 169.439906 
L 116.600727 169.235216 
L 117.133091 170.355388 
L 118.464 173.114203 
L 121.392 178.654156 
L 122.456727 181.292394 
L 122.989091 182.74218 
L 124.053818 184.757497 
L 125.118545 187.094417 
L 125.650909 187.513782 
L 126.183273 188.152893 
L 126.981818 189.596401 
L 127.780364 191.712336 
L 128.578909 194.316901 
L 129.111273 194.311935 
L 129.909818 194.573932 
L 130.708364 195.098618 
L 131.773091 196.079702 
L 135.233455 199.564618 
L 136.032 200.010652 
L 136.298182 200.100193 
L 136.830545 200.484689 
L 137.895273 197.597211 
L 138.96 194.130229 
L 140.290909 189.31624 
L 141.355636 186.476042 
L 142.154182 184.863008 
L 143.218909 183.270857 
L 143.751273 182.753982 
L 144.816 182.494326 
L 145.880727 182.452853 
L 147.211636 182.664273 
L 150.672 183.511644 
L 151.204364 183.450694 
L 151.736727 184.870042 
L 152.002909 184.916094 
L 153.067636 181.400477 
L 153.333818 181.497556 
L 154.398545 182.334291 
L 155.197091 182.694428 
L 155.995636 182.771285 
L 156.528 182.642938 
L 157.060364 182.348602 
L 157.592727 181.865841 
L 158.391273 180.750572 
L 159.189818 179.085365 
L 159.988364 176.798591 
L 160.254545 175.884841 
L 161.053091 174.229126 
L 161.851636 171.866482 
L 162.650182 168.625283 
L 162.916364 167.41915 
L 163.448727 167.917997 
L 163.981091 168.183984 
L 164.513455 168.230823 
L 165.045818 168.177201 
L 165.312 168.418965 
L 166.110545 169.843742 
L 166.642909 170.413923 
L 167.175273 170.680771 
L 167.707636 170.677222 
L 168.24 170.401271 
L 168.772364 169.890906 
L 169.304727 169.159293 
L 169.570909 169.143029 
L 170.369455 169.417132 
L 171.168 169.466911 
L 171.966545 169.341965 
L 172.765091 169.069584 
L 173.031273 169.511996 
L 174.096 175.980724 
L 174.894545 179.32904 
L 175.693091 181.5529 
L 176.225455 182.500752 
L 176.757818 183.089392 
L 177.290182 183.220742 
L 178.887273 183.430661 
L 179.685818 183.720912 
L 180.484364 184.232968 
L 181.282909 185.031505 
L 182.081455 186.173874 
L 182.88 187.701484 
L 185.275636 192.902215 
L 186.606545 195.09004 
L 187.671273 196.380674 
L 187.937455 196.625871 
L 188.203636 196.435923 
L 189.002182 193.85664 
L 190.333091 189.918771 
L 191.397818 187.352014 
L 192.462545 185.274309 
L 193.527273 183.67148 
L 193.793455 184.232201 
L 194.592 187.371796 
L 195.124364 188.782923 
L 195.656727 189.683674 
L 196.189091 190.094944 
L 196.455273 190.128931 
L 196.987636 189.871008 
L 197.52 189.199453 
L 198.052364 188.147308 
L 198.850909 185.905493 
L 199.915636 182.382873 
L 200.714182 183.617859 
L 201.512727 184.330877 
L 202.311273 184.63862 
L 203.376 184.703288 
L 204.706909 184.78089 
L 205.505455 185.106483 
L 206.037818 185.521386 
L 206.570182 186.156676 
L 207.102545 187.025655 
L 207.901091 188.871665 
L 208.699636 191.450769 
L 208.965818 192.357484 
L 209.232 192.520491 
L 209.764364 192.511094 
L 210.030545 192.42127 
L 210.562909 191.359696 
L 211.893818 188.540434 
L 212.958545 186.745893 
L 214.023273 185.376533 
L 215.088 184.394021 
L 216.152727 183.704281 
L 218.814545 182.178309 
L 219.613091 181.350058 
L 220.411636 180.113119 
L 221.210182 177.995998 
L 222.008727 175.070502 
L 222.541091 172.22938 
L 223.073455 167.425261 
L 223.605818 170.367242 
L 224.670545 176.125209 
L 225.469091 179.404458 
L 226.267636 181.898757 
L 226.8 183.191753 
L 229.195636 185.506035 
L 231.058909 187.662205 
L 232.922182 190.211731 
L 235.051636 193.549537 
L 236.648727 196.404329 
L 237.713455 198.638279 
L 238.512 200.705548 
L 239.576727 204.176342 
L 240.109091 206.284906 
L 240.375273 206.74501 
L 241.44 202.753319 
L 242.238545 200.382664 
L 243.037091 198.658523 
L 243.303273 198.243987 
L 243.835636 197.991304 
L 244.101818 197.879567 
L 244.368 197.433396 
L 245.432727 194.389202 
L 247.029818 190.054394 
L 248.626909 186.339579 
L 252.353455 178.512873 
L 252.885818 180.948867 
L 254.216727 188.440362 
L 255.281455 195.020008 
L 256.612364 194.708537 
L 257.410909 194.308743 
L 258.209455 193.651121 
L 259.008 192.686773 
L 259.806545 191.387667 
L 260.072727 190.879034 
L 260.605091 190.353476 
L 261.403636 189.120863 
L 262.202182 187.344497 
L 263.000727 185.011651 
L 263.799273 182.116036 
L 264.065455 181.028476 
L 264.597818 183.248608 
L 265.662545 187.771967 
L 265.928727 188.345288 
L 266.727273 188.397839 
L 267.525818 188.202746 
L 268.324364 187.780189 
L 269.389091 186.923378 
L 270.453818 185.763853 
L 271.784727 183.967926 
L 273.381818 181.396833 
L 275.245091 177.959859 
L 276.576 175.296884 
L 277.108364 173.582255 
L 278.439273 168.999898 
L 278.971636 171.939297 
L 280.036364 177.803614 
L 281.101091 182.511042 
L 282.165818 186.328838 
L 282.964364 188.28732 
L 283.496727 189.114689 
L 284.029091 189.573953 
L 284.561455 189.682509 
L 285.093818 189.459413 
L 285.626182 188.910063 
L 286.158545 188.081486 
L 286.957091 186.346928 
L 288.021818 183.310839 
L 289.618909 177.7842 
L 292.014545 168.652645 
L 293.079273 171.89146 
L 296.273455 180.103229 
L 297.870545 185.534468 
L 299.201455 190.72533 
L 300.532364 192.106155 
L 301.330909 193.368807 
L 302.661818 195.945055 
L 304.525091 199.666139 
L 304.791273 200.095132 
L 305.057455 200.141562 
L 307.985455 197.017675 
L 308.784 195.616197 
L 309.582545 193.69355 
L 310.114909 191.871184 
L 310.913455 187.506852 
L 311.978182 180.018308 
L 312.776727 173.965239 
L 313.309091 174.853212 
L 314.373818 176.92047 
L 315.172364 177.726116 
L 315.970909 179.089848 
L 317.035636 181.582372 
L 318.898909 186.792595 
L 319.697455 189.073856 
L 321.294545 188.674042 
L 322.625455 188.722277 
L 324.488727 189.090288 
L 327.150545 189.699108 
L 327.416727 189.50622 
L 327.682909 189.172595 
L 328.747636 186.538483 
L 329.546182 185.471807 
L 330.344727 184.740614 
L 331.143273 184.280836 
L 332.208 183.964986 
L 335.136 183.42413 
L 335.934545 182.9435 
L 336.733091 182.118482 
L 337.265455 181.31879 
L 337.531636 181.642682 
L 338.596364 189.817975 
L 339.394909 194.225628 
L 339.927273 196.300436 
L 340.992 199.098068 
L 341.524364 199.761255 
L 341.790545 199.821848 
L 342.056727 199.440439 
L 342.855273 196.893139 
L 343.387636 194.991564 
L 344.718545 192.16951 
L 346.315636 189.316702 
L 349.509818 183.835012 
L 350.574545 181.44867 
L 351.373091 179.374996 
L 352.171636 179.385286 
L 352.704 179.207958 
L 353.236364 178.850226 
L 353.768727 178.267497 
L 354.301091 177.425859 
L 354.833455 176.283721 
L 355.365818 174.985371 
L 356.696727 176.853976 
L 357.761455 178.000597 
L 358.826182 178.846204 
L 359.890909 179.399996 
L 360.955636 176.927411 
L 362.020364 173.765274 
L 362.818909 170.978414 
L 363.351273 170.797275 
L 363.883636 170.807207 
L 364.682182 171.105953 
L 365.746909 171.862922 
L 367.610182 173.511026 
L 367.876364 173.992716 
L 369.473455 179.145664 
L 370.538182 181.844327 
L 371.336727 183.382237 
L 372.135273 184.478134 
L 372.933818 185.114473 
L 373.466182 185.286247 
L 373.998545 185.263809 
L 374.530909 185.055623 
L 375.329455 184.432135 
L 376.128 183.473384 
L 376.394182 183.112292 
L 376.660364 183.37096 
L 376.926545 184.342426 
L 377.192727 184.008686 
L 380.120727 178.236103 
L 380.386909 178.200499 
L 381.451636 178.80576 
L 382.250182 179.460316 
L 383.048727 180.367493 
L 383.847273 181.575264 
L 384.645818 183.121237 
L 385.710545 185.765638 
L 386.775273 189.090215 
L 387.84 193.117352 
L 388.904727 197.307412 
L 389.703273 198.048506 
L 390.501818 199.092892 
L 391.300364 200.455216 
L 392.365091 202.775442 
L 393.163636 204.897792 
L 394.494545 205.491713 
L 395.825455 206.358172 
L 397.422545 207.600077 
L 398.487273 206.559251 
L 399.019636 205.494222 
L 400.616727 200.595848 
L 402.48 195.167139 
L 403.810909 191.845964 
L 404.875636 189.667998 
L 405.940364 187.991609 
L 406.738909 187.097 
L 407.537455 186.517127 
L 408.336 186.25722 
L 409.134545 186.292992 
L 409.933091 186.401463 
L 410.731636 185.64483 
L 410.997818 185.817034 
L 412.861091 196.107285 
L 413.127273 197.121978 
L 413.393455 197.316956 
L 414.192 197.168019 
L 414.990545 196.803063 
L 415.789091 196.211273 
L 416.587636 195.377278 
L 417.386182 194.282935 
L 418.450909 192.376772 
L 419.515636 189.885718 
L 420.580364 186.700303 
L 421.645091 182.703458 
L 422.709818 177.74868 
L 423.774545 171.675557 
L 424.839273 164.29183 
L 425.904 155.33124 
L 426.436364 150.140987 
L 426.436364 150.140987 
" clip-path="url(#p7dee9f3367)" style="fill: none; stroke: #ffa500; stroke-width: 3; stroke-linecap: square"/>
   </g>
   <g id="patch_3">
    <path d="M 7.2 331.2 
L 7.2 7.2 
" style="fill: none; stroke: #000000; stroke-width: 0.8; stroke-linejoin: miter; stroke-linecap: square"/>
   </g>
   <g id="patch_4">
    <path d="M 446.4 331.2 
L 446.4 7.2 
" style="fill: none; stroke: #000000; stroke-width: 0.8; stroke-linejoin: miter; stroke-linecap: square"/>
   </g>
   <g id="patch_5">
    <path d="M 7.2 331.2 
L 446.4 331.2 
" style="fill: none; stroke: #000000; stroke-width: 0.8; stroke-linejoin: miter; stroke-linecap: square"/>
   </g>
   <g id="patch_6">
    <path d="M 7.2 7.2 
L 446.4 7.2 
" style="fill: none; stroke: #000000; stroke-width: 0.8; stroke-linejoin: miter; stroke-linecap: square"/>
   </g>
  </g>
 </g>
 <defs>
  <clipPath id="p7dee9f3367">
   <rect x="7.2" y="7.2" width="439.2" height="324"/>
  </clipPath>
 </defs>
</svg>
