<?xml version="1.0" encoding="utf-8" standalone="no"?>
<!DOCTYPE svg PUBLIC "-//W3C//DTD SVG 1.1//EN"
  "http://www.w3.org/Graphics/SVG/1.1/DTD/svg11.dtd">
<svg xmlns:xlink="http://www.w3.org/1999/xlink" width="453.6pt" height="338.4pt" viewBox="0 0 453.6 338.4" xmlns="http://www.w3.org/2000/svg" version="1.1">
 <metadata>
  <rdf:RDF xmlns:dc="http://purl.org/dc/elements/1.1/" xmlns:cc="http://creativecommons.org/ns#" xmlns:rdf="http://www.w3.org/1999/02/22-rdf-syntax-ns#">
   <cc:Work>
    <dc:type rdf:resource="http://purl.org/dc/dcmitype/StillImage"/>
    <dc:date>2025-05-14T00:15:41.815473</dc:date>
    <dc:format>image/svg+xml</dc:format>
    <dc:creator>
     <cc:Agent>
      <dc:title>Matplotlib v3.10.1, https://matplotlib.org/</dc:title>
     </cc:Agent>
    </dc:creator>
   </cc:Work>
  </rdf:RDF>
 </metadata>
 <defs>
  <style type="text/css">*{stroke-linejoin: round; stroke-linecap: butt}</style>
 </defs>
 <g id="figure_1">
  <g id="patch_1">
   <path d="M 0 338.4 
L 453.6 338.4 
L 453.6 0 
L 0 0 
z
" style="fill: #ffffff"/>
  </g>
  <g id="axes_1">
   <g id="patch_2">
    <path d="M 7.2 331.2 
L 446.4 331.2 
L 446.4 7.2 
L 7.2 7.2 
z
" style="fill: #ffffff"/>
   </g>
   <g id="matplotlib.axis_1"/>
   <g id="matplotlib.axis_2"/>
   <g id="line2d_1">
    <path d="M 27.163636 291.069628 
L 29.026909 288.474727 
L 30.890182 286.229276 
L 33.019636 284.001754 
L 35.681455 281.573437 
L 44.465455 273.922692 
L 46.594909 271.586776 
L 48.458182 269.218569 
L 50.321455 266.474871 
L 52.184727 263.286196 
L 54.048 259.583023 
L 55.911273 255.295831 
L 57.774545 250.355084 
L 59.637818 244.691312 
L 61.501091 238.23498 
L 63.364364 230.916566 
L 65.227636 222.666574 
L 67.090909 213.415482 
L 68.954182 203.093781 
L 70.817455 191.631961 
L 71.882182 184.543693 
L 72.148364 184.174516 
L 76.407273 195.044865 
L 80.133818 203.961816 
L 83.594182 211.651254 
L 86.522182 217.651201 
L 89.450182 223.134329 
L 92.112 227.628814 
L 94.507636 231.242832 
L 96.637091 234.089752 
L 98.766545 236.572725 
L 100.629818 238.431825 
L 102.493091 239.984918 
L 104.090182 241.062928 
L 105.687273 241.898662 
L 107.284364 242.484129 
L 108.881455 242.811268 
L 110.212364 242.880777 
L 111.543273 242.760643 
L 112.874182 242.446198 
L 114.205091 241.932823 
L 115.536 241.215876 
L 117.133091 240.080213 
L 118.730182 238.636633 
L 120.327273 236.87706 
L 121.924364 234.793518 
L 123.521455 232.377883 
L 125.384727 229.12926 
L 127.248 225.404943 
L 129.111273 221.19219 
L 131.240727 215.763144 
L 133.370182 209.660337 
L 135.499636 202.864759 
L 137.629091 195.357326 
L 140.024727 186.036887 
L 142.420364 175.7642 
L 144.816 164.512069 
L 147.211636 152.253582 
L 149.873455 137.419523 
L 152.535273 121.27199 
L 155.197091 103.774014 
L 157.858909 84.8882 
L 160.786909 62.466389 
L 163.714909 38.270714 
L 165.578182 21.927273 
L 165.844364 22.543657 
L 168.24 51.064505 
L 170.635636 76.947124 
L 173.031273 100.32394 
L 175.160727 119.107331 
L 177.290182 136.108995 
L 179.419636 151.422342 
L 181.549091 165.140435 
L 183.678545 177.356609 
L 185.808 188.164039 
L 187.671273 196.538284 
L 189.534545 203.96777 
L 191.397818 210.514917 
L 193.261091 216.242307 
L 195.124364 221.212273 
L 196.987636 225.487358 
L 198.584727 228.646003 
L 200.181818 231.379279 
L 201.778909 233.726554 
L 203.376 235.727131 
L 204.973091 237.420378 
L 206.836364 239.059842 
L 208.699636 240.39698 
L 210.829091 241.635028 
L 213.490909 242.883973 
L 221.476364 246.388178 
L 223.605818 247.703973 
L 225.469091 249.130417 
L 227.066182 250.607147 
L 228.663273 252.359918 
L 230.260364 254.428033 
L 231.857455 256.85092 
L 233.454545 259.667748 
L 235.051636 262.917993 
L 236.648727 266.640924 
L 238.245818 270.875869 
L 240.109091 276.516201 
L 241.972364 282.969501 
L 242.238545 283.00702 
L 244.368 276.483924 
L 246.497455 270.690695 
L 248.626909 265.560068 
L 250.756364 261.024869 
L 252.885818 257.01796 
L 255.015273 253.472203 
L 257.144727 250.320461 
L 259.540364 247.161966 
L 262.202182 244.021358 
L 265.662545 240.309772 
L 273.115636 232.460647 
L 275.777455 229.281708 
L 278.173091 226.075921 
L 280.302545 222.871832 
L 282.432 219.264155 
L 284.561455 215.185752 
L 286.690909 210.569461 
L 288.820364 205.348044 
L 290.949818 199.454351 
L 292.813091 193.693236 
L 293.079273 191.821654 
L 296.007273 163.342506 
L 298.402909 142.24378 
L 300.532364 125.553753 
L 302.395636 112.808465 
L 303.992727 103.43694 
L 305.323636 96.826536 
L 306.654545 91.390264 
L 307.719273 87.939716 
L 308.784 85.331466 
L 309.582545 83.952365 
L 310.381091 83.086801 
L 310.913455 82.803472 
L 311.445818 82.76101 
L 311.978182 82.964508 
L 312.510545 83.418858 
L 313.042909 84.129252 
L 313.841455 85.685939 
L 314.64 87.846978 
L 315.438545 90.629394 
L 316.503273 95.335352 
L 317.568 101.216763 
L 318.632727 108.314043 
L 319.963636 118.956655 
L 321.294545 131.640834 
L 322.625455 146.445412 
L 324.222545 167.120942 
L 325.819636 191.099664 
L 327.416727 218.517414 
L 329.013818 249.511226 
L 330.877091 290.371858 
L 331.409455 303.004726 
L 331.675636 304.47936 
L 333.272727 308.036312 
L 334.603636 310.492819 
L 335.934545 312.504505 
L 337.265455 314.087028 
L 338.330182 315.054584 
L 339.394909 315.765509 
L 340.459636 316.227835 
L 341.524364 316.449562 
L 342.589091 316.43874 
L 343.653818 316.203346 
L 344.718545 315.75143 
L 345.783273 315.090993 
L 347.114182 313.984431 
L 348.445091 312.580255 
L 350.042182 310.524434 
L 351.639273 308.08962 
L 353.502545 304.806149 
L 355.365818 301.086657 
L 357.495273 296.357059 
L 359.890909 290.502508 
L 362.818909 282.707989 
L 366.279273 272.80519 
L 371.070545 258.346898 
L 379.322182 233.380356 
L 382.782545 223.625936 
L 385.710545 216.005609 
L 388.106182 210.326659 
L 390.235636 205.778192 
L 392.365091 201.766703 
L 394.228364 198.747489 
L 395.825455 196.558454 
L 397.422545 194.766129 
L 398.753455 193.595132 
L 400.084364 192.734098 
L 401.149091 192.27895 
L 402.213818 192.040192 
L 403.278545 192.025913 
L 404.343273 192.244051 
L 405.408 192.702683 
L 406.472727 193.409757 
L 407.537455 194.373325 
L 408.602182 195.601475 
L 409.933091 197.520799 
L 411.264 199.881628 
L 412.594909 202.699616 
L 413.925818 205.990414 
L 415.522909 210.585537 
L 417.12 215.911124 
L 418.717091 221.994186 
L 420.580364 230.084665 
L 422.443636 239.286056 
L 424.306909 249.641307 
L 426.170182 261.193218 
L 426.436364 262.943718 
L 426.436364 262.943718 
" clip-path="url(#pf45cb318c8)" style="fill: none; stroke-dasharray: 11.1,4.8; stroke-dashoffset: 0; stroke: #000000; stroke-width: 3"/>
   </g>
   <g id="line2d_2">
    <path d="M 27.163636 214.223869 
L 67.090909 214.254436 
L 118.197818 214.466109 
L 148.542545 214.995622 
L 154.398545 215.584534 
L 164.513455 216.673204 
L 170.103273 216.369144 
L 178.354909 215.6665 
L 182.88 215.357397 
L 191.664 215.221536 
L 199.117091 215.305923 
L 206.570182 215.817476 
L 212.16 216.409197 
L 215.354182 216.897234 
L 219.080727 218.056824 
L 222.807273 219.445098 
L 226.8 221.177999 
L 230.792727 223.139397 
L 231.591273 223.434646 
L 234.519273 224.03227 
L 237.979636 224.486296 
L 242.504727 224.821547 
L 249.957818 225.128479 
L 253.950545 225.014199 
L 257.677091 224.678922 
L 261.137455 224.151468 
L 264.065455 223.520194 
L 268.856727 221.880006 
L 273.914182 220.390456 
L 278.971636 219.136869 
L 281.633455 218.652776 
L 298.136727 216.465663 
L 305.057455 216.353804 
L 317.301818 216.206036 
L 323.956364 215.782465 
L 335.136 214.93968 
L 343.387636 214.744158 
L 348.178909 214.8003 
L 358.56 215.197347 
L 363.883636 215.584447 
L 372.135273 216.476646 
L 378.523636 217.381552 
L 388.904727 219.387584 
L 393.962182 220.583607 
L 397.954909 222.029895 
L 404.609455 224.721309 
L 410.465455 227.012118 
L 414.458182 228.236037 
L 417.652364 228.985336 
L 420.580364 229.435018 
L 423.242182 229.607848 
L 425.637818 229.544542 
L 426.436364 229.473573 
L 426.436364 229.473573 
" clip-path="url(#pf45cb318c8)" style="fill: none; stroke-dasharray: 3,4.95; stroke-dashoffset: 0; stroke: #ffa500; stroke-width: 3"/>
   </g>
   <g id="line2d_3">
    <path d="M 27.163636 243.754904 
L 28.760727 236.316992 
L 30.091636 231.082907 
L 31.422545 226.658643 
L 32.753455 222.98937 
L 34.084364 220.025811 
L 35.149091 218.123375 
L 36.213818 216.605193 
L 37.278545 215.443294 
L 38.343273 214.610319 
L 39.408 214.080894 
L 40.472727 213.823226 
L 41.537455 213.809547 
L 42.602182 214.012058 
L 45.530182 215.117753 
L 48.990545 216.561795 
L 51.652364 217.909555 
L 54.048 219.372269 
L 56.177455 220.922204 
L 58.306909 222.751348 
L 58.573091 223.001664 
L 58.839273 223.018464 
L 60.702545 222.372674 
L 63.896727 221.695929 
L 67.090909 221.233404 
L 69.752727 221.05749 
L 72.414545 221.111435 
L 74.810182 221.392118 
L 77.205818 221.774949 
L 79.867636 221.944335 
L 83.328 221.922517 
L 91.047273 221.716648 
L 92.910545 222.440335 
L 94.241455 222.979297 
L 96.903273 224.475774 
L 98.766545 225.769888 
L 100.363636 227.142224 
L 101.960727 228.837006 
L 103.291636 230.549275 
L 104.622545 232.579184 
L 105.953455 234.968845 
L 107.284364 237.799939 
L 109.946182 245.457798 
L 110.744727 247.125283 
L 111.809455 248.863501 
L 112.874182 250.226813 
L 113.938909 251.234415 
L 115.003636 251.883925 
L 115.802182 252.135002 
L 116.600727 252.188024 
L 117.399273 252.046247 
L 118.197818 251.713304 
L 119.262545 250.977759 
L 120.327273 249.917023 
L 121.392 248.539794 
L 122.722909 246.386094 
L 124.053818 243.768758 
L 125.650909 239.768252 
L 127.248 235.151824 
L 129.909818 225.747197 
L 132.305455 218.055476 
L 134.434909 211.889999 
L 136.564364 206.406821 
L 138.427636 202.210668 
L 140.024727 199.088519 
L 140.557091 198.148953 
L 140.823273 197.979218 
L 141.355636 198.575831 
L 143.751273 202.072074 
L 145.348364 204.251498 
L 146.146909 204.844505 
L 146.945455 205.078395 
L 147.744 205.09522 
L 148.542545 204.846976 
L 149.341091 204.34763 
L 150.405818 203.345632 
L 151.470545 202.026779 
L 153.067636 199.618669 
L 157.592727 192.093413 
L 161.053091 174.735129 
L 161.319273 173.602287 
L 161.585455 173.330316 
L 162.384 173.82553 
L 163.182545 174.582406 
L 165.844364 177.769595 
L 167.175273 179.85989 
L 168.772364 182.827343 
L 170.901818 187.301608 
L 174.628364 195.612359 
L 177.822545 204.918657 
L 178.354909 206.114518 
L 178.621091 206.245947 
L 180.218182 205.87385 
L 181.282909 205.815512 
L 182.613818 206.203361 
L 183.944727 206.82797 
L 185.275636 207.695244 
L 186.606545 208.814007 
L 187.937455 210.193619 
L 189.534545 212.206628 
L 191.131636 214.62496 
L 191.397818 215.068464 
L 192.462545 218.049772 
L 194.059636 223.278952 
L 195.922909 229.691973 
L 196.987636 232.224548 
L 198.052364 234.157501 
L 199.117091 235.587476 
L 199.915636 236.26794 
L 200.714182 236.582336 
L 201.246545 236.585131 
L 201.778909 236.420014 
L 202.311273 236.085411 
L 203.109818 235.261523 
L 203.908364 234.045804 
L 204.706909 232.432764 
L 205.771636 229.654517 
L 206.836364 226.148713 
L 208.433455 220.328274 
L 209.232 220.797963 
L 210.030545 220.948465 
L 210.562909 220.797139 
L 211.361455 220.332492 
L 211.893818 219.916623 
L 212.16 219.536775 
L 212.426182 218.370982 
L 213.757091 210.217883 
L 215.088 203.529097 
L 215.886545 200.579579 
L 216.685091 198.241141 
L 217.483636 196.496046 
L 218.282182 195.35951 
L 218.814545 194.946911 
L 219.346909 194.81598 
L 219.879273 194.970575 
L 220.411636 195.41524 
L 220.944 196.154204 
L 221.742545 197.823274 
L 222.541091 200.178625 
L 223.339636 203.234459 
L 224.404364 208.424847 
L 225.735273 215.981931 
L 227.066182 219.882536 
L 228.663273 225.401923 
L 231.058909 233.090324 
L 231.857455 234.667943 
L 233.188364 236.745393 
L 234.519273 238.362903 
L 235.850182 239.578284 
L 237.181091 240.449465 
L 238.512 241.033522 
L 239.842909 241.387558 
L 241.44 241.58705 
L 242.770909 241.555384 
L 243.835636 240.695674 
L 245.432727 239.492287 
L 249.159273 237.237637 
L 251.821091 235.227823 
L 254.482909 232.931061 
L 257.410909 230.095649 
L 260.338909 226.95509 
L 260.605091 226.606957 
L 262.734545 220.568629 
L 264.597818 214.830729 
L 267.259636 206.176101 
L 269.655273 199.098043 
L 271.784727 193.461455 
L 273.648 189.099237 
L 275.511273 185.325144 
L 277.374545 182.06188 
L 277.640727 182.123027 
L 278.439273 184.645105 
L 282.165818 196.611787 
L 283.762909 200.988409 
L 285.093818 203.97803 
L 286.158545 205.867921 
L 287.223273 207.258618 
L 288.021818 207.942826 
L 288.820364 208.294603 
L 289.352727 208.334344 
L 289.885091 208.21094 
L 290.417455 207.917414 
L 291.216 207.144837 
L 292.014545 205.953731 
L 292.813091 204.321195 
L 293.611636 202.224972 
L 293.877818 202.176406 
L 294.144 202.291411 
L 294.410182 202.21601 
L 296.007273 200.389786 
L 296.805818 199.629541 
L 298.136727 199.003658 
L 299.467636 198.62195 
L 300.798545 198.470325 
L 302.129455 198.534742 
L 303.460364 198.800447 
L 305.057455 199.365346 
L 306.654545 200.176316 
L 308.517818 201.402681 
L 309.582545 202.187964 
L 309.848727 202.207023 
L 310.913455 201.781868 
L 311.179636 202.238389 
L 312.510545 205.995869 
L 313.575273 208.390062 
L 314.906182 210.735502 
L 316.237091 212.584355 
L 317.568 214.072244 
L 319.431273 215.798716 
L 322.359273 218.441452 
L 323.690182 219.920717 
L 325.021091 221.745842 
L 325.819636 223.05803 
L 326.618182 224.955286 
L 327.150545 226.390129 
L 328.747636 233.126009 
L 330.610909 239.781769 
L 331.941818 243.764227 
L 333.272727 247.09539 
L 334.603636 249.84458 
L 335.934545 252.081582 
L 337.265455 253.876053 
L 338.596364 255.298252 
L 339.927273 256.420135 
L 341.524364 257.466219 
L 342.056727 257.838153 
L 342.855273 259.262949 
L 343.387636 260.194952 
L 343.92 260.618048 
L 347.912727 262.653049 
L 349.509818 263.203082 
L 351.106909 263.50557 
L 352.437818 263.541754 
L 353.768727 263.358327 
L 355.099636 262.932072 
L 356.430545 262.239152 
L 357.761455 261.252006 
L 358.293818 260.7682 
L 358.56 260.229213 
L 359.624727 255.744964 
L 359.890909 253.884927 
L 362.020364 223.427743 
L 363.883636 200.027262 
L 365.480727 182.397382 
L 367.077818 167.155416 
L 368.408727 156.362278 
L 369.739636 147.389859 
L 370.804364 141.590101 
L 371.869091 137.049373 
L 372.667636 134.500036 
L 373.466182 132.720605 
L 373.998545 131.964029 
L 374.530909 131.558581 
L 375.329455 131.354534 
L 375.861818 130.891522 
L 376.394182 130.649407 
L 376.926545 130.566106 
L 377.458909 130.697211 
L 377.725091 131.173453 
L 378.257455 133.454464 
L 383.581091 159.342425 
L 388.638545 185.045235 
L 393.429818 209.450948 
L 397.422545 227.258277 
L 399.285818 234.277261 
L 400.882909 239.520757 
L 402.48 243.994697 
L 403.810909 247.096289 
L 405.141818 249.595164 
L 406.206545 251.139194 
L 407.271273 252.263549 
L 408.069818 252.822319 
L 408.868364 253.130586 
L 409.134545 253.17658 
L 409.400727 253.089122 
L 409.933091 252.502119 
L 414.724364 246.064821 
L 416.055273 244.758013 
L 417.386182 243.75378 
L 418.450909 243.199928 
L 419.515636 242.893733 
L 420.580364 242.860208 
L 421.378909 243.028658 
L 422.177455 243.375168 
L 422.976 243.909911 
L 424.040727 244.934975 
L 425.105455 246.342996 
L 426.170182 248.157063 
L 426.436364 248.67714 
L 426.436364 248.67714 
" clip-path="url(#pf45cb318c8)" style="fill: none; stroke: #ffa500; stroke-width: 3; stroke-linecap: square"/>
   </g>
   <g id="patch_3">
    <path d="M 7.2 331.2 
L 7.2 7.2 
" style="fill: none; stroke: #000000; stroke-width: 0.8; stroke-linejoin: miter; stroke-linecap: square"/>
   </g>
   <g id="patch_4">
    <path d="M 446.4 331.2 
L 446.4 7.2 
" style="fill: none; stroke: #000000; stroke-width: 0.8; stroke-linejoin: miter; stroke-linecap: square"/>
   </g>
   <g id="patch_5">
    <path d="M 7.2 331.2 
L 446.4 331.2 
" style="fill: none; stroke: #000000; stroke-width: 0.8; stroke-linejoin: miter; stroke-linecap: square"/>
   </g>
   <g id="patch_6">
    <path d="M 7.2 7.2 
L 446.4 7.2 
" style="fill: none; stroke: #000000; stroke-width: 0.8; stroke-linejoin: miter; stroke-linecap: square"/>
   </g>
  </g>
 </g>
 <defs>
  <clipPath id="pf45cb318c8">
   <rect x="7.2" y="7.2" width="439.2" height="324"/>
  </clipPath>
 </defs>
</svg>
