<?xml version="1.0" encoding="utf-8" standalone="no"?>
<!DOCTYPE svg PUBLIC "-//W3C//DTD SVG 1.1//EN"
  "http://www.w3.org/Graphics/SVG/1.1/DTD/svg11.dtd">
<svg xmlns:xlink="http://www.w3.org/1999/xlink" width="453.6pt" height="338.4pt" viewBox="0 0 453.6 338.4" xmlns="http://www.w3.org/2000/svg" version="1.1">
 <metadata>
  <rdf:RDF xmlns:dc="http://purl.org/dc/elements/1.1/" xmlns:cc="http://creativecommons.org/ns#" xmlns:rdf="http://www.w3.org/1999/02/22-rdf-syntax-ns#">
   <cc:Work>
    <dc:type rdf:resource="http://purl.org/dc/dcmitype/StillImage"/>
    <dc:date>2025-05-14T00:03:49.149407</dc:date>
    <dc:format>image/svg+xml</dc:format>
    <dc:creator>
     <cc:Agent>
      <dc:title>Matplotlib v3.10.1, https://matplotlib.org/</dc:title>
     </cc:Agent>
    </dc:creator>
   </cc:Work>
  </rdf:RDF>
 </metadata>
 <defs>
  <style type="text/css">*{stroke-linejoin: round; stroke-linecap: butt}</style>
 </defs>
 <g id="figure_1">
  <g id="patch_1">
   <path d="M 0 338.4 
L 453.6 338.4 
L 453.6 0 
L 0 0 
z
" style="fill: #ffffff"/>
  </g>
  <g id="axes_1">
   <g id="patch_2">
    <path d="M 7.2 331.2 
L 446.4 331.2 
L 446.4 7.2 
L 7.2 7.2 
z
" style="fill: #ffffff"/>
   </g>
   <g id="matplotlib.axis_1"/>
   <g id="matplotlib.axis_2"/>
   <g id="line2d_1">
    <path d="M 27.163636 191.811378 
L 30.890182 193.734758 
L 34.616727 195.903862 
L 38.343273 198.318718 
L 42.336 201.17879 
L 46.328727 204.32097 
L 50.321455 207.745258 
L 54.314182 211.451578 
L 58.573091 215.716024 
L 62.832 220.301442 
L 67.090909 225.207808 
L 71.616 230.772532 
L 76.141091 236.699575 
L 80.666182 242.989014 
L 85.457455 250.043351 
L 90.248727 257.503899 
L 95.04 265.370735 
L 100.097455 274.115289 
L 105.154909 283.312492 
L 110.212364 292.962319 
L 115.536 303.609016 
L 120.859636 314.757231 
L 121.658182 316.472727 
L 122.456727 307.78381 
L 124.586182 285.03835 
L 126.715636 264.810127 
L 128.578909 249.175318 
L 130.442182 235.467803 
L 132.039273 225.252404 
L 133.636364 216.453045 
L 134.967273 210.201742 
L 136.298182 204.933773 
L 137.629091 200.64914 
L 138.693818 197.92938 
L 139.758545 195.8389 
L 140.557091 194.684064 
L 141.355636 193.883206 
L 142.154182 193.436326 
L 142.686545 193.335032 
L 143.218909 193.391116 
L 143.751273 193.604526 
L 144.549818 194.219581 
L 145.348364 195.18864 
L 146.146909 196.511702 
L 147.211636 198.826364 
L 148.276364 201.770383 
L 149.341091 205.343682 
L 150.672 210.69529 
L 152.002909 217.030157 
L 153.333818 224.348358 
L 154.930909 234.428153 
L 156.528 245.923886 
L 158.391273 261.12512 
L 160.254545 278.253699 
L 160.520727 278.352486 
L 163.448727 273.89877 
L 166.376727 269.854284 
L 169.038545 266.532556 
L 171.700364 263.549046 
L 174.362182 260.903702 
L 176.757818 258.812057 
L 179.153455 256.994334 
L 181.549091 255.450569 
L 183.944727 254.180751 
L 186.340364 253.18484 
L 188.469818 252.529552 
L 190.599273 252.090744 
L 192.728727 251.868341 
L 194.858182 251.862405 
L 196.987636 252.072898 
L 199.117091 252.499847 
L 201.246545 253.143225 
L 203.376 254.003071 
L 205.771636 255.229112 
L 208.167273 256.729061 
L 208.433455 256.912639 
L 208.699636 256.717804 
L 210.829091 241.145257 
L 212.958545 227.206972 
L 214.821818 216.351572 
L 216.685091 206.747416 
L 218.548364 198.394426 
L 220.145455 192.230651 
L 221.742545 186.986093 
L 223.073455 183.317897 
L 224.404364 180.288063 
L 225.469091 178.323798 
L 226.533818 176.768136 
L 227.598545 175.621001 
L 228.397091 175.028794 
L 229.195636 174.666398 
L 229.994182 174.533813 
L 230.792727 174.631064 
L 231.591273 174.958101 
L 232.389818 175.514999 
L 233.188364 176.301683 
L 234.253091 177.708078 
L 235.317818 179.523076 
L 236.382545 181.746653 
L 237.713455 185.100632 
L 239.044364 189.092999 
L 240.375273 193.723705 
L 241.972364 200.123149 
L 243.569455 207.441991 
L 245.432727 217.142503 
L 247.296 228.094105 
L 249.159273 240.297053 
L 251.288727 255.775278 
L 251.821091 259.338266 
L 253.418182 261.148659 
L 255.015273 262.659034 
L 256.612364 263.869379 
L 258.209455 264.779692 
L 259.540364 265.309099 
L 260.871273 265.630161 
L 262.202182 265.742853 
L 263.533091 265.647214 
L 264.864 265.343205 
L 266.194909 264.830864 
L 267.525818 264.110166 
L 269.122909 262.970297 
L 270.72 261.530411 
L 272.317091 259.790532 
L 273.914182 257.750545 
L 275.777455 254.991447 
L 277.640727 251.823924 
L 279.504 248.248117 
L 281.633455 243.661343 
L 283.762909 238.541183 
L 286.158545 232.143503 
L 288.554182 225.070796 
L 290.949818 217.322908 
L 293.611636 207.922491 
L 296.273455 197.688695 
L 299.201455 185.468989 
L 302.129455 172.240695 
L 305.057455 158.00417 
L 308.251636 141.323187 
L 311.179636 126.002979 
L 314.107636 126.734577 
L 317.035636 127.686851 
L 319.963636 128.859853 
L 323.157818 130.391158 
L 326.352 132.185099 
L 329.546182 134.241755 
L 332.740364 136.561022 
L 335.934545 139.142901 
L 339.394909 142.236366 
L 342.855273 145.638113 
L 346.315636 149.348066 
L 350.042182 153.688117 
L 353.768727 158.385704 
L 357.495273 163.440773 
L 361.488 169.253589 
L 365.480727 175.4768 
L 367.610182 178.982502 
L 369.473455 185.667918 
L 371.336727 191.590676 
L 373.2 196.75057 
L 374.797091 200.566166 
L 376.394182 203.821409 
L 377.725091 206.105906 
L 379.056 208.001269 
L 380.386909 209.507448 
L 381.451636 210.432192 
L 382.516364 211.107808 
L 383.581091 211.534373 
L 384.645818 211.711861 
L 385.710545 211.640247 
L 386.775273 211.319581 
L 387.84 210.749787 
L 388.904727 209.930943 
L 389.969455 208.863021 
L 391.300364 207.177844 
L 392.631273 205.103458 
L 393.962182 202.639938 
L 395.559273 199.169903 
L 397.156364 195.139489 
L 398.753455 190.548621 
L 400.616727 184.484323 
L 402.48 177.657162 
L 404.609455 168.920617 
L 406.738909 159.187867 
L 408.868364 148.458758 
L 411.264 135.197483 
L 413.659636 120.67532 
L 416.321455 103.060689 
L 418.983273 83.88927 
L 421.645091 63.161115 
L 424.573091 38.562048 
L 426.436364 21.927273 
L 426.436364 21.927273 
" clip-path="url(#pf8e26c36a6)" style="fill: none; stroke-dasharray: 11.1,4.8; stroke-dashoffset: 0; stroke: #000000; stroke-width: 3"/>
   </g>
   <g id="line2d_2">
    <path d="M 27.163636 115.473004 
L 28.760727 137.050912 
L 30.091636 152.256597 
L 31.422545 165.047069 
L 32.753455 175.522649 
L 33.818182 182.30281 
L 34.882909 187.715158 
L 35.947636 191.809638 
L 36.746182 194.045547 
L 37.544727 195.589107 
L 38.077091 196.243768 
L 38.609455 196.60619 
L 39.141818 196.682563 
L 39.674182 196.479003 
L 40.206545 196.001779 
L 40.738909 195.257005 
L 41.537455 193.651783 
L 42.336 191.47948 
L 43.400727 187.737392 
L 43.666909 186.695312 
L 43.933091 186.146754 
L 45.264 185.750074 
L 46.594909 185.105902 
L 47.925818 184.179316 
L 49.256727 182.935135 
L 50.587636 181.337998 
L 51.918545 179.352138 
L 53.249455 176.941607 
L 54.580364 174.069893 
L 55.911273 170.700205 
L 57.242182 166.795238 
L 58.839273 161.3495 
L 60.436364 155.662285 
L 61.234909 156.066257 
L 62.033455 156.705951 
L 63.098182 157.895021 
L 64.162909 159.429907 
L 65.493818 161.771562 
L 67.090909 165.095657 
L 68.954182 169.507706 
L 71.882182 177.09924 
L 75.874909 187.397716 
L 76.939636 189.667936 
L 87.586909 199.151891 
L 91.845818 202.63935 
L 96.370909 206.303965 
L 99.298909 209.080192 
L 102.493091 212.418257 
L 106.485818 216.923259 
L 110.744727 221.789328 
L 113.672727 223.514392 
L 116.068364 224.691974 
L 118.197818 225.52223 
L 120.327273 226.115461 
L 122.190545 226.414737 
L 124.053818 226.486939 
L 125.917091 226.311345 
L 128.845091 225.883322 
L 132.571636 225.764757 
L 136.032 225.880737 
L 139.226182 226.213607 
L 142.154182 226.734635 
L 144.283636 227.275107 
L 146.413091 228.382917 
L 153.333818 232.199498 
L 161.319273 236.621283 
L 163.981091 236.661836 
L 166.909091 236.466515 
L 170.103273 236.030663 
L 174.362182 235.210551 
L 178.088727 234.518343 
L 182.347636 234.538466 
L 186.606545 234.779841 
L 191.131636 235.267236 
L 195.922909 235.819888 
L 198.584727 235.790925 
L 201.246545 235.531153 
L 203.908364 235.047071 
L 206.570182 234.345179 
L 209.498182 233.329273 
L 210.829091 232.725015 
L 222.274909 225.22953 
L 225.469091 223.468645 
L 227.332364 222.631507 
L 229.461818 222.592898 
L 231.591273 222.762403 
L 233.986909 223.192857 
L 236.382545 223.867322 
L 238.778182 224.775435 
L 241.173818 225.906886 
L 246.497455 228.594818 
L 248.893091 229.418153 
L 251.288727 230.025071 
L 253.950545 230.465593 
L 256.612364 230.681728 
L 259.540364 230.687204 
L 261.403636 230.520513 
L 274.978909 228.733697 
L 278.173091 228.154411 
L 282.964364 226.893675 
L 288.288 225.251738 
L 298.402909 222.032085 
L 310.381091 218.631949 
L 317.035636 216.837112 
L 325.553455 214.285706 
L 326.884364 213.95148 
L 336.466909 214.387179 
L 344.186182 214.653066 
L 348.178909 213.772022 
L 351.905455 212.730172 
L 355.365818 211.5443 
L 358.826182 210.121761 
L 360.423273 209.476796 
L 363.351273 209.217434 
L 366.811636 209.151039 
L 371.869091 209.314941 
L 377.991273 209.493964 
L 381.185455 209.326148 
L 384.113455 208.949808 
L 387.041455 208.346087 
L 389.969455 207.500864 
L 392.631273 206.510927 
L 393.429818 206.170407 
L 394.228364 204.971436 
L 395.825455 202.08066 
L 397.422545 198.699279 
L 399.019636 194.829263 
L 400.882909 189.699918 
L 402.746182 183.911843 
L 404.875636 176.495136 
L 407.005091 168.2275 
L 409.134545 159.113591 
L 410.997818 151.119952 
L 412.594909 145.349865 
L 414.192 140.343996 
L 415.789091 135.998776 
L 417.652364 131.62705 
L 419.515636 127.851393 
L 421.645091 124.058082 
L 424.839273 118.901028 
L 426.436364 116.340539 
L 426.436364 116.340539 
" clip-path="url(#pf8e26c36a6)" style="fill: none; stroke-dasharray: 3,4.95; stroke-dashoffset: 0; stroke: #ffa500; stroke-width: 3"/>
   </g>
   <g id="line2d_3">
    <path d="M 27.163636 192.779311 
L 29.026909 195.122296 
L 30.624 196.786646 
L 32.221091 198.135217 
L 33.818182 199.170517 
L 35.149091 199.79468 
L 36.48 200.202619 
L 37.810909 200.394307 
L 39.141818 200.370179 
L 40.472727 200.129802 
L 41.803636 199.673353 
L 43.933091 198.855148 
L 51.12 198.029523 
L 53.781818 197.420685 
L 56.443636 196.597056 
L 59.105455 195.550549 
L 59.637818 195.370093 
L 63.098182 195.164666 
L 65.76 196.962624 
L 67.623273 197.915948 
L 69.752727 198.735355 
L 71.882182 199.315051 
L 74.277818 199.744967 
L 79.069091 200.504197 
L 81.997091 200.892512 
L 84.392727 200.980782 
L 86.522182 200.819797 
L 88.385455 200.471601 
L 90.514909 199.838636 
L 91.047273 199.64613 
L 92.910545 200.106084 
L 97.435636 201.170398 
L 100.896 202.214883 
L 104.090182 203.418076 
L 107.018182 204.763603 
L 108.881455 205.813691 
L 112.075636 208.054897 
L 115.003636 209.813786 
L 117.665455 211.162101 
L 120.327273 212.265382 
L 122.989091 213.118128 
L 125.384727 213.665611 
L 132.305455 214.561443 
L 142.952727 215.750027 
L 150.139636 216.180481 
L 158.657455 216.453839 
L 168.772364 216.497385 
L 215.886545 216.453276 
L 231.857455 216.27154 
L 242.238545 216.471697 
L 253.950545 216.676997 
L 263.533091 216.640102 
L 287.223273 216.232215 
L 310.114909 215.657816 
L 325.819636 214.845291 
L 343.121455 215.376066 
L 352.171636 215.031376 
L 362.020364 214.673892 
L 371.869091 214.465983 
L 376.660364 214.161871 
L 386.509091 212.989381 
L 391.566545 212.151705 
L 393.163636 211.72862 
L 395.293091 210.855329 
L 397.422545 209.758572 
L 399.818182 208.262422 
L 402.213818 206.493017 
L 404.609455 204.456037 
L 407.271273 201.885569 
L 409.134545 200.093751 
L 409.933091 199.513058 
L 413.659636 197.403108 
L 417.918545 195.257695 
L 422.443636 193.22921 
L 426.436364 191.60201 
L 426.436364 191.60201 
" clip-path="url(#pf8e26c36a6)" style="fill: none; stroke: #ffa500; stroke-width: 3; stroke-linecap: square"/>
   </g>
   <g id="patch_3">
    <path d="M 7.2 331.2 
L 7.2 7.2 
" style="fill: none; stroke: #000000; stroke-width: 0.8; stroke-linejoin: miter; stroke-linecap: square"/>
   </g>
   <g id="patch_4">
    <path d="M 446.4 331.2 
L 446.4 7.2 
" style="fill: none; stroke: #000000; stroke-width: 0.8; stroke-linejoin: miter; stroke-linecap: square"/>
   </g>
   <g id="patch_5">
    <path d="M 7.2 331.2 
L 446.4 331.2 
" style="fill: none; stroke: #000000; stroke-width: 0.8; stroke-linejoin: miter; stroke-linecap: square"/>
   </g>
   <g id="patch_6">
    <path d="M 7.2 7.2 
L 446.4 7.2 
" style="fill: none; stroke: #000000; stroke-width: 0.8; stroke-linejoin: miter; stroke-linecap: square"/>
   </g>
  </g>
 </g>
 <defs>
  <clipPath id="pf8e26c36a6">
   <rect x="7.2" y="7.2" width="439.2" height="324"/>
  </clipPath>
 </defs>
</svg>
