<?xml version="1.0" encoding="utf-8" standalone="no"?>
<!DOCTYPE svg PUBLIC "-//W3C//DTD SVG 1.1//EN"
  "http://www.w3.org/Graphics/SVG/1.1/DTD/svg11.dtd">
<svg xmlns:xlink="http://www.w3.org/1999/xlink" width="453.6pt" height="338.4pt" viewBox="0 0 453.6 338.4" xmlns="http://www.w3.org/2000/svg" version="1.1">
 <metadata>
  <rdf:RDF xmlns:dc="http://purl.org/dc/elements/1.1/" xmlns:cc="http://creativecommons.org/ns#" xmlns:rdf="http://www.w3.org/1999/02/22-rdf-syntax-ns#">
   <cc:Work>
    <dc:type rdf:resource="http://purl.org/dc/dcmitype/StillImage"/>
    <dc:date>2025-05-14T00:10:04.926072</dc:date>
    <dc:format>image/svg+xml</dc:format>
    <dc:creator>
     <cc:Agent>
      <dc:title>Matplotlib v3.10.1, https://matplotlib.org/</dc:title>
     </cc:Agent>
    </dc:creator>
   </cc:Work>
  </rdf:RDF>
 </metadata>
 <defs>
  <style type="text/css">*{stroke-linejoin: round; stroke-linecap: butt}</style>
 </defs>
 <g id="figure_1">
  <g id="patch_1">
   <path d="M 0 338.4 
L 453.6 338.4 
L 453.6 0 
L 0 0 
z
" style="fill: #ffffff"/>
  </g>
  <g id="axes_1">
   <g id="patch_2">
    <path d="M 7.2 331.2 
L 446.4 331.2 
L 446.4 7.2 
L 7.2 7.2 
z
" style="fill: #ffffff"/>
   </g>
   <g id="matplotlib.axis_1"/>
   <g id="matplotlib.axis_2"/>
   <g id="line2d_1">
    <path d="M 27.163636 316.472727 
L 30.624 287.331784 
L 34.084364 260.09011 
L 37.544727 234.692605 
L 40.738909 212.837965 
L 43.933091 192.464419 
L 47.127273 173.528588 
L 50.321455 155.987227 
L 53.249455 141.095625 
L 56.177455 127.305881 
L 59.105455 114.5847 
L 62.033455 102.898687 
L 64.695273 93.145203 
L 67.357091 84.194543 
L 70.018909 76.021718 
L 72.680727 68.601576 
L 75.076364 62.546214 
L 77.472 57.062001 
L 79.867636 52.13053 
L 82.263273 47.733633 
L 84.392727 44.259207 
L 86.522182 41.179865 
L 88.651636 38.482706 
L 90.781091 36.154953 
L 92.910545 34.183725 
L 94.773818 32.741261 
L 96.637091 31.553356 
L 98.500364 30.611424 
L 100.363636 29.906798 
L 102.226909 29.430891 
L 104.090182 29.175157 
L 105.953455 29.130928 
L 107.816727 29.289658 
L 109.946182 29.708497 
L 112.075636 30.368307 
L 114.205091 31.256289 
L 116.600727 32.511975 
L 118.996364 34.021836 
L 121.658182 35.975425 
L 124.586182 38.430843 
L 127.514182 41.175004 
L 130.442182 44.159186 
L 134.701091 42.869416 
L 138.427636 41.956181 
L 141.888 41.31962 
L 145.348364 40.915119 
L 148.542545 40.771496 
L 151.470545 40.852684 
L 154.398545 41.154652 
L 157.326545 41.69425 
L 159.988364 42.404931 
L 162.650182 43.338317 
L 165.312 44.506942 
L 167.973818 45.923465 
L 170.635636 47.600318 
L 173.297455 49.550161 
L 175.959273 51.785426 
L 178.621091 54.318872 
L 181.282909 57.162873 
L 183.944727 60.330147 
L 186.606545 63.833128 
L 189.268364 67.684452 
L 192.196364 72.338237 
L 195.124364 77.445389 
L 198.052364 83.022657 
L 200.980364 89.086788 
L 203.908364 95.654428 
L 206.836364 102.742408 
L 210.030545 111.087754 
L 213.224727 120.093882 
L 216.418909 129.782542 
L 219.613091 140.175343 
L 222.807273 151.294114 
L 226.267636 164.183746 
L 229.728 177.978422 
L 233.188364 192.705744 
L 236.648727 208.393184 
L 240.109091 225.068425 
L 243.835636 244.16294 
L 247.562182 264.46953 
L 251.288727 286.022495 
L 255.015273 308.856742 
L 255.281455 307.79611 
L 259.274182 271.954618 
L 263.000727 240.4147 
L 266.461091 212.985759 
L 269.655273 189.418015 
L 272.583273 169.417479 
L 275.245091 152.662782 
L 277.906909 137.35382 
L 280.302545 124.88086 
L 282.432 114.88284 
L 284.561455 105.954477 
L 286.424727 99.053074 
L 288.288 93.031937 
L 289.885091 88.593363 
L 291.482182 84.840541 
L 292.813091 82.250108 
L 294.144 80.15887 
L 295.208727 78.852353 
L 296.273455 77.87731 
L 297.338182 77.23919 
L 298.136727 76.984853 
L 298.935273 76.925294 
L 299.733818 77.062719 
L 300.532364 77.399419 
L 301.330909 77.937579 
L 302.395636 78.972545 
L 303.460364 80.375155 
L 304.525091 82.150653 
L 305.589818 84.304427 
L 306.920727 87.536768 
L 308.251636 91.378979 
L 309.582545 95.84145 
L 311.179636 102.029985 
L 312.776727 109.144777 
L 314.373818 117.203951 
L 315.438545 122.448509 
L 319.165091 112.610414 
L 322.891636 103.408111 
L 326.352 95.437232 
L 329.812364 88.023976 
L 333.006545 81.680072 
L 336.200727 75.818799 
L 339.394909 70.443863 
L 342.322909 65.947209 
L 345.250909 61.865019 
L 347.912727 58.515989 
L 350.574545 55.513946 
L 353.236364 52.860936 
L 355.632 50.773445 
L 358.027636 48.971842 
L 360.423273 47.45781 
L 362.552727 46.354495 
L 364.682182 45.480709 
L 366.811636 44.837404 
L 368.941091 44.425653 
L 371.070545 44.24655 
L 373.2 44.301229 
L 375.329455 44.590661 
L 377.458909 45.116022 
L 379.588364 45.878223 
L 381.717818 46.878539 
L 383.847273 48.117923 
L 385.976727 49.597448 
L 388.372364 51.550348 
L 390.768 53.810077 
L 393.163636 56.378214 
L 395.559273 59.256257 
L 398.221091 62.819364 
L 400.882909 66.76905 
L 403.544727 71.10744 
L 406.472727 76.331078 
L 409.400727 82.03034 
L 412.328727 88.20802 
L 415.522909 95.496225 
L 418.717091 103.360621 
L 421.911273 111.805057 
L 425.371636 121.611783 
L 426.436364 124.767696 
L 426.436364 124.767696 
" clip-path="url(#p58f8858a28)" style="fill: none; stroke-dasharray: 11.1,4.8; stroke-dashoffset: 0; stroke: #000000; stroke-width: 3"/>
   </g>
   <g id="line2d_2">
    <path d="M 27.163636 168.340643 
L 27.429818 198.868408 
L 27.696 211.619176 
L 28.228364 224.199165 
L 28.760727 228.409506 
L 29.559273 231.978486 
L 30.091636 232.907416 
L 30.357818 234.452393 
L 31.156364 235.415791 
L 31.422545 238.850788 
L 31.954909 238.778288 
L 32.221091 238.677679 
L 32.487273 238.742443 
L 33.285818 237.847737 
L 33.552 237.773253 
L 35.149091 235.21591 
L 35.415273 234.637936 
L 35.681455 241.470586 
L 36.213818 240.257367 
L 37.012364 238.012503 
L 38.609455 232.644634 
L 39.141818 230.892243 
L 39.674182 229.000441 
L 39.940364 222.818994 
L 42.069818 210.294757 
L 42.602182 208.635785 
L 42.868364 207.949001 
L 43.134545 206.719013 
L 43.933091 205.037056 
L 44.199273 199.46635 
L 45.264 197.614929 
L 46.062545 196.429313 
L 46.861091 195.645018 
L 47.127273 195.411459 
L 47.925818 194.118227 
L 48.192 193.529155 
L 48.458182 191.097573 
L 49.256727 188.680248 
L 50.853818 183.499381 
L 51.386182 182.125831 
L 52.184727 179.044484 
L 52.450909 177.727295 
L 52.717091 174.488493 
L 56.709818 152.484226 
L 56.976 152.110548 
L 60.968727 134.20698 
L 61.234909 129.386182 
L 61.501091 127.359385 
L 62.033455 125.387651 
L 62.832 123.225027 
L 65.227636 118.429888 
L 65.493818 118.937954 
L 65.76 117.985715 
L 66.026182 118.017833 
L 66.292364 117.620319 
L 66.558545 117.703066 
L 66.824727 117.238986 
L 67.090909 117.239229 
L 67.357091 117.081977 
L 67.623273 117.22566 
L 67.889455 117.093358 
L 68.155636 117.179913 
L 68.421818 117.123067 
L 68.688 117.319343 
L 68.954182 117.086756 
L 69.220364 117.350024 
L 69.752727 116.940683 
L 70.018909 116.543068 
L 70.285091 116.588775 
L 71.083636 116.283 
L 71.616 116.346164 
L 72.680727 116.072102 
L 73.213091 115.523715 
L 73.479273 115.573108 
L 73.745455 115.435682 
L 74.011636 114.976179 
L 74.277818 115.029055 
L 74.544 114.864351 
L 74.810182 114.906251 
L 75.608727 114.512463 
L 75.874909 114.455638 
L 77.472 112.439533 
L 78.004364 111.829602 
L 78.270545 108.160702 
L 78.536727 109.112334 
L 78.802909 107.481815 
L 79.069091 107.574486 
L 79.335273 106.383037 
L 79.601455 105.920779 
L 82.529455 93.623601 
L 83.328 89.905308 
L 84.126545 85.189938 
L 85.723636 75.455429 
L 87.054545 68.886573 
L 88.651636 62.475942 
L 89.450182 59.814122 
L 90.514909 57.303458 
L 93.176727 52.42059 
L 94.241455 51.024967 
L 95.04 50.206022 
L 95.306182 48.55835 
L 96.637091 47.027853 
L 98.766545 44.866708 
L 99.298909 44.392036 
L 99.831273 43.745713 
L 103.557818 40.088478 
L 103.824 39.459977 
L 107.018182 36.127675 
L 107.816727 35.441619 
L 108.082909 35.447269 
L 110.744727 33.007364 
L 112.075636 31.928675 
L 112.341818 30.775947 
L 113.938909 29.496404 
L 114.737455 29.10529 
L 115.536 28.789976 
L 117.133091 28.310322 
L 118.197818 28.432357 
L 120.593455 28.864582 
L 120.859636 28.750486 
L 121.658182 29.031656 
L 123.787636 29.816315 
L 124.852364 30.163343 
L 125.118545 30.471771 
L 126.715636 31.240067 
L 129.377455 31.497057 
L 130.176 31.297278 
L 131.773091 30.43305 
L 133.370182 29.771762 
L 133.636364 29.530285 
L 134.701091 29.307236 
L 135.499636 28.873614 
L 136.564364 28.186039 
L 138.161455 27.379468 
L 139.758545 26.838797 
L 141.089455 26.660787 
L 141.888 26.593431 
L 142.154182 26.815933 
L 144.017455 27.051497 
L 145.082182 27.506221 
L 146.146909 28.260807 
L 146.413091 27.086937 
L 146.679273 27.562763 
L 146.945455 27.542694 
L 147.744 27.912524 
L 148.542545 28.226542 
L 151.470545 29.928224 
L 153.067636 30.744233 
L 154.132364 31.416983 
L 155.197091 31.790277 
L 155.995636 31.722151 
L 157.858909 32.088013 
L 158.923636 32.391803 
L 159.189818 32.697883 
L 159.722182 32.835369 
L 160.520727 33.103193 
L 161.585455 33.702938 
L 162.916364 34.470687 
L 163.182545 34.563358 
L 163.448727 30.048477 
L 163.714909 31.442743 
L 163.981091 30.973883 
L 164.247273 31.20402 
L 164.513455 31.118843 
L 165.045818 31.400195 
L 167.441455 32.544013 
L 167.707636 32.475401 
L 168.24 32.882899 
L 170.369455 34.063392 
L 171.700364 34.801149 
L 171.966545 34.538651 
L 172.498909 34.848051 
L 175.160727 36.029071 
L 175.959273 36.497039 
L 176.225455 37.151381 
L 176.491636 37.206364 
L 177.290182 37.636888 
L 178.621091 38.354495 
L 179.419636 38.922424 
L 180.218182 39.585049 
L 180.484364 39.005759 
L 180.750545 39.352523 
L 181.815273 39.969582 
L 184.477091 41.803485 
L 185.009455 42.23168 
L 186.872727 43.709565 
L 188.469818 45.08684 
L 192.994909 48.584312 
L 194.858182 49.833477 
L 195.656727 50.539967 
L 197.253818 51.498687 
L 197.52 52.291325 
L 197.786182 52.300763 
L 198.850909 53.197392 
L 199.383273 53.883144 
L 201.512727 58.215438 
L 202.311273 60.419618 
L 203.109818 63.653336 
L 204.174545 68.263904 
L 206.304 78.225918 
L 206.836364 82.349825 
L 207.368727 87.308495 
L 208.167273 91.042199 
L 208.965818 93.964107 
L 210.030545 96.942699 
L 211.361455 99.486291 
L 214.555636 104.910803 
L 215.354182 106.615907 
L 216.152727 108.679481 
L 217.217455 112.148541 
L 218.548364 117.424083 
L 219.879273 123.348156 
L 221.742545 132.226781 
L 225.469091 150.572963 
L 227.598545 159.268313 
L 234.253091 183.983044 
L 236.116364 192.804763 
L 240.109091 212.577755 
L 241.44 217.553719 
L 244.634182 228.807891 
L 246.497455 236.62253 
L 248.626909 246.733228 
L 249.691636 250.662196 
L 250.490182 252.952464 
L 251.554909 255.358165 
L 252.885818 257.68849 
L 253.950545 259.197501 
L 254.749091 260.083822 
L 256.878545 261.754722 
L 257.677091 261.672745 
L 258.209455 261.315389 
L 259.008 260.423681 
L 259.540364 259.31504 
L 260.605091 256.39143 
L 261.403636 252.782677 
L 262.202182 247.870505 
L 264.065455 234.848469 
L 264.864 230.932786 
L 266.194909 225.228056 
L 268.058182 217.014749 
L 269.122909 210.54713 
L 270.453818 200.787165 
L 271.518545 192.933845 
L 272.583273 186.424144 
L 273.381818 182.866505 
L 274.446545 177.670429 
L 275.245091 172.868546 
L 276.043636 166.844958 
L 276.842182 158.677642 
L 279.237818 130.343708 
L 279.770182 125.346966 
L 280.302545 117.84677 
L 280.834909 114.51143 
L 282.165818 108.274818 
L 283.496727 101.19334 
L 284.295273 98.163026 
L 285.36 94.796256 
L 285.892364 92.154141 
L 288.288 77.781886 
L 289.352727 73.429401 
L 291.216 66.683326 
L 292.014545 64.560577 
L 293.079273 62.344875 
L 294.144 60.626931 
L 294.942545 59.775705 
L 296.539636 58.92616 
L 297.604364 58.602422 
L 298.669091 58.458495 
L 299.467636 58.578363 
L 301.064727 58.966744 
L 301.863273 59.326469 
L 303.726545 60.570794 
L 305.589818 62.188959 
L 306.654545 63.385937 
L 307.186909 64.070413 
L 307.453091 65.092439 
L 310.114909 69.156362 
L 312.510545 72.215534 
L 313.309091 73.109733 
L 314.107636 73.833132 
L 315.438545 74.58867 
L 315.704727 74.719697 
L 316.237091 75.174421 
L 317.301818 75.715173 
L 318.100364 75.803793 
L 319.165091 75.614038 
L 319.963636 75.202368 
L 320.762182 74.565037 
L 321.826909 73.629707 
L 324.222545 70.906425 
L 324.488727 72.760215 
L 325.021091 72.645531 
L 326.085818 71.890094 
L 327.682909 70.840162 
L 329.546182 69.928202 
L 331.143273 69.557987 
L 331.941818 69.51953 
L 332.740364 69.621192 
L 333.805091 69.85874 
L 335.668364 70.356762 
L 336.733091 70.852698 
L 337.797818 71.713948 
L 338.596364 72.508895 
L 339.394909 73.600201 
L 339.927273 74.479981 
L 340.725818 76.270526 
L 341.258182 77.677531 
L 341.524364 80.779089 
L 341.790545 80.290504 
L 342.056727 81.615956 
L 342.322909 81.843278 
L 342.589091 82.881161 
L 342.855273 83.40237 
L 343.387636 85.080216 
L 343.92 86.473227 
L 344.452364 87.637417 
L 345.783273 89.97722 
L 348.178909 93.045829 
L 349.776 94.226585 
L 350.308364 94.893139 
L 352.171636 96.791887 
L 353.768727 98.036698 
L 354.833455 98.950156 
L 355.898182 99.653466 
L 358.027636 100.892405 
L 358.293818 101.276775 
L 358.56 103.029066 
L 359.624727 103.340167 
L 360.689455 103.119832 
L 362.552727 101.867467 
L 363.085091 101.180581 
L 364.416 99.704378 
L 365.214545 98.485813 
L 366.013091 97.386163 
L 366.811636 96.677284 
L 367.077818 96.630058 
L 368.408727 94.25597 
L 370.005818 91.488317 
L 370.804364 90.566839 
L 371.602909 89.675779 
L 373.466182 87.319714 
L 373.998545 86.907781 
L 374.264727 86.753303 
L 375.063273 86.777079 
L 375.595636 86.696843 
L 377.192727 84.599813 
L 379.588364 82.559792 
L 379.854545 81.702328 
L 381.185455 80.622363 
L 382.250182 80.457477 
L 383.048727 80.465476 
L 383.847273 80.571796 
L 384.113455 79.5361 
L 384.645818 79.197882 
L 385.710545 78.439792 
L 385.976727 78.428411 
L 386.242909 78.290013 
L 387.041455 78.512495 
L 387.307636 78.417172 
L 388.106182 78.671934 
L 388.372364 78.565796 
L 389.703273 79.15181 
L 390.501818 80.182706 
L 392.365091 83.874733 
L 392.631273 79.591184 
L 393.429818 79.654591 
L 396.091636 80.047974 
L 396.624 79.977215 
L 397.156364 80.200163 
L 397.688727 80.318249 
L 399.019636 80.894461 
L 399.818182 81.221885 
L 400.350545 81.535234 
L 403.278545 82.480852 
L 405.141818 82.822087 
L 406.206545 83.575378 
L 407.271273 83.414764 
L 407.803636 83.148884 
L 408.336 83.135093 
L 408.868364 83.429061 
L 409.400727 83.791439 
L 409.666909 81.773816 
L 410.199273 82.251789 
L 410.997818 82.692013 
L 411.530182 83.0455 
L 412.328727 83.691317 
L 412.861091 84.447199 
L 414.458182 87.605319 
L 414.724364 87.841734 
L 414.990545 87.665344 
L 415.256727 87.802932 
L 415.789091 88.382769 
L 416.055273 88.276085 
L 416.853818 89.610589 
L 417.12 89.683008 
L 417.652364 90.632696 
L 417.918545 90.914474 
L 418.184727 89.585417 
L 418.450909 89.91675 
L 418.717091 90.026856 
L 418.983273 89.929143 
L 419.249455 89.363725 
L 419.515636 89.299346 
L 419.781818 89.365426 
L 420.048 89.564761 
L 420.314182 89.358399 
L 420.846545 89.962011 
L 421.112727 90.027201 
L 421.378909 89.360039 
L 421.645091 89.300278 
L 422.177455 88.25794 
L 422.443636 86.420918 
L 422.976 86.733923 
L 423.242182 86.876087 
L 423.508364 86.002362 
L 424.040727 86.138938 
L 424.306909 86.288413 
L 424.573091 85.601061 
L 424.839273 86.156151 
L 425.105455 86.087378 
L 425.371636 85.650211 
L 425.904 82.589723 
L 426.170182 77.344922 
L 426.436364 51.550166 
L 426.436364 51.550166 
" clip-path="url(#p58f8858a28)" style="fill: none; stroke-dasharray: 3,4.95; stroke-dashoffset: 0; stroke: #0000ff; stroke-width: 3"/>
   </g>
   <g id="line2d_3">
    <path d="M 27.163636 149.645875 
L 27.429818 191.554788 
L 27.696 207.602216 
L 28.228364 222.165097 
L 28.760727 227.261233 
L 29.559273 231.22151 
L 30.091636 232.235739 
L 30.357818 233.606655 
L 31.156364 234.436516 
L 31.422545 237.337241 
L 31.954909 237.135254 
L 32.753455 236.47996 
L 33.818182 234.838627 
L 34.882909 232.292159 
L 35.415273 230.44005 
L 35.681455 234.906894 
L 37.544727 225.041521 
L 37.810909 224.444288 
L 38.077091 224.92305 
L 38.609455 229.48374 
L 38.875636 230.209164 
L 39.141818 229.664382 
L 39.674182 227.978253 
L 39.940364 221.648161 
L 41.005091 214.860104 
L 42.336 206.725919 
L 42.868364 204.839585 
L 43.134545 203.318606 
L 43.933091 201.13158 
L 44.199273 194.911311 
L 45.796364 191.537898 
L 47.393455 188.887966 
L 47.659636 188.374614 
L 48.192 186.833505 
L 48.458182 184.072413 
L 49.522909 179.867277 
L 50.055273 177.421378 
L 50.321455 174.596028 
L 50.587636 170.113225 
L 50.853818 167.997848 
L 52.184727 161.871161 
L 52.450909 160.437445 
L 52.717091 157.151195 
L 54.580364 145.94435 
L 55.378909 141.276814 
L 56.709818 133.923421 
L 56.976 133.911351 
L 58.839273 126.110118 
L 60.702545 117.706023 
L 60.968727 117.111159 
L 61.501091 111.550822 
L 62.033455 109.792618 
L 62.832 108.091341 
L 64.429091 105.136909 
L 65.227636 103.456046 
L 65.493818 103.81087 
L 65.76 102.761687 
L 66.026182 102.783417 
L 66.292364 102.217634 
L 66.558545 102.139788 
L 66.824727 101.500168 
L 67.090909 101.300976 
L 67.357091 100.860954 
L 67.623273 100.718384 
L 67.889455 100.305763 
L 68.954182 99.538742 
L 69.220364 99.62957 
L 69.486545 99.326022 
L 69.752727 99.599294 
L 70.018909 99.051292 
L 70.285091 98.953336 
L 71.083636 98.00786 
L 73.213091 96.315109 
L 73.479273 96.252715 
L 73.745455 96.020188 
L 74.011636 95.421497 
L 74.277818 95.349382 
L 75.076364 94.249024 
L 76.141091 92.956642 
L 78.004364 90.828649 
L 78.270545 86.747836 
L 78.536727 87.938555 
L 78.802909 85.994181 
L 79.069091 86.10449 
L 79.335273 84.722415 
L 79.601455 84.312629 
L 80.4 81.232031 
L 81.198545 78.134078 
L 83.328 68.394485 
L 84.658909 60.88471 
L 85.989818 53.806087 
L 87.054545 49.326079 
L 87.853091 46.832569 
L 88.651636 44.92732 
L 89.450182 43.621876 
L 89.982545 43.250426 
L 90.514909 43.052813 
L 90.781091 43.040824 
L 91.313455 43.170271 
L 91.845818 43.376247 
L 93.442909 44.371258 
L 95.04 44.867983 
L 95.306182 44.197805 
L 96.370909 44.254488 
L 99.298909 45.155512 
L 99.565091 45.116691 
L 100.896 45.912974 
L 101.428364 46.007001 
L 103.025455 45.654911 
L 103.557818 45.567547 
L 104.090182 45.297596 
L 104.888727 44.867133 
L 105.953455 44.025851 
L 107.018182 43.208262 
L 107.816727 42.683387 
L 108.082909 42.824742 
L 109.147636 41.780176 
L 111.010909 39.785335 
L 112.075636 38.83506 
L 112.341818 37.722733 
L 114.471273 35.759485 
L 116.068364 35.001233 
L 117.931636 34.314144 
L 119.262545 34.24857 
L 120.593455 34.321131 
L 120.859636 34.174369 
L 121.924364 34.344197 
L 122.989091 34.669171 
L 124.852364 35.41752 
L 125.118545 35.756913 
L 125.917091 36.220082 
L 126.715636 36.735378 
L 128.046545 37.28826 
L 129.111273 37.763277 
L 129.377455 38.262797 
L 129.909818 38.332259 
L 131.240727 38.169377 
L 131.773091 38.033956 
L 133.902545 37.901553 
L 134.967273 38.103095 
L 135.765818 38.075877 
L 136.564364 38.110669 
L 138.161455 38.350404 
L 139.758545 38.756282 
L 141.089455 39.403354 
L 141.888 39.84127 
L 142.420364 40.310879 
L 144.017455 41.426891 
L 145.082182 42.592216 
L 146.146909 43.944156 
L 146.413091 42.76662 
L 146.679273 43.391618 
L 146.945455 43.428273 
L 147.744 44.06287 
L 148.542545 44.710671 
L 150.672 46.862055 
L 153.067636 49.11506 
L 153.866182 50.01414 
L 154.664727 50.630187 
L 156.261818 51.431209 
L 157.326545 52.17648 
L 158.923636 53.327547 
L 159.189818 53.827594 
L 159.456 53.962732 
L 162.650182 57.028121 
L 163.182545 57.41796 
L 163.448727 52.270385 
L 163.714909 54.024559 
L 163.981091 53.538425 
L 164.247273 53.899122 
L 164.513455 53.880106 
L 165.045818 54.356074 
L 166.376727 55.333 
L 166.642909 55.412547 
L 167.441455 56.098482 
L 167.707636 56.089794 
L 168.24 56.642049 
L 170.635636 58.202174 
L 171.168 58.520343 
L 171.700364 58.816803 
L 171.966545 58.578039 
L 172.232727 58.832963 
L 175.426909 59.778783 
L 175.959273 60.02824 
L 176.225455 60.669985 
L 176.491636 60.668588 
L 177.024 60.880255 
L 179.153455 61.870486 
L 180.218182 62.771652 
L 180.484364 62.180798 
L 180.750545 62.573594 
L 181.815273 63.115986 
L 184.477091 64.697355 
L 185.009455 65.054447 
L 186.872727 66.288829 
L 188.203636 67.270291 
L 190.333091 68.609838 
L 191.397818 69.131433 
L 192.462545 69.454928 
L 195.390545 69.756754 
L 197.253818 69.302658 
L 197.52 70.111761 
L 197.786182 69.959268 
L 198.850909 70.173082 
L 199.383273 70.463851 
L 200.980364 72.617017 
L 201.512727 73.756764 
L 202.577455 76.677498 
L 203.642182 81.280067 
L 206.037818 93.528602 
L 206.570182 97.205622 
L 207.634909 107.049833 
L 208.699636 111.923325 
L 209.764364 115.459235 
L 210.562909 117.114521 
L 211.095273 117.8734 
L 213.490909 120.785385 
L 215.088 123.141875 
L 215.886545 124.773326 
L 216.685091 127.109402 
L 218.548364 133.964126 
L 219.346909 137.174738 
L 222.008727 148.844265 
L 224.670545 161.490334 
L 227.598545 173.481838 
L 230.792727 185.787299 
L 234.253091 199.708496 
L 235.850182 208.116135 
L 238.245818 222.723914 
L 239.576727 230.695501 
L 240.907636 236.680955 
L 243.303273 246.070381 
L 245.166545 252.665178 
L 246.231273 258.201984 
L 249.425455 277.081485 
L 250.224 280.248921 
L 251.288727 283.434056 
L 252.087273 285.248781 
L 253.152 287.232524 
L 253.950545 288.331161 
L 254.749091 289.093747 
L 255.813818 289.595373 
L 256.08 289.574879 
L 256.346182 289.68537 
L 256.878545 289.403269 
L 257.410909 288.684102 
L 257.943273 287.600816 
L 258.741818 285.282844 
L 259.274182 283.2716 
L 260.605091 276.756045 
L 261.403636 271.259054 
L 262.202182 264.1699 
L 264.597818 240.226585 
L 266.727273 225.67391 
L 268.324364 215.150084 
L 270.453818 198.122327 
L 271.518545 188.983249 
L 272.583273 181.748245 
L 273.648 176.474363 
L 274.446545 172.504406 
L 275.245091 167.75708 
L 276.043636 161.621097 
L 276.842182 152.89784 
L 277.906909 137.918145 
L 278.439273 128.839578 
L 278.971636 124.350902 
L 279.770182 119.030827 
L 280.302545 112.354963 
L 280.568727 111.215682 
L 281.101091 110.671224 
L 281.633455 110.042398 
L 282.165818 109.022945 
L 284.295273 103.620568 
L 285.093818 102.315691 
L 285.36 101.68644 
L 285.892364 99.522217 
L 287.755636 88.224525 
L 288.554182 84.909599 
L 290.949818 76.879343 
L 292.014545 75.017068 
L 293.079273 73.598399 
L 293.877818 72.891909 
L 294.410182 72.672587 
L 294.942545 72.559827 
L 296.805818 72.325438 
L 297.870545 72.188903 
L 298.935273 72.314057 
L 300.798545 72.790531 
L 302.129455 73.075893 
L 302.928 73.376363 
L 303.194182 73.320793 
L 303.992727 73.506741 
L 305.856 73.418789 
L 307.186909 73.291671 
L 307.453091 72.509523 
L 308.784 73.00718 
L 309.582545 73.300136 
L 311.445818 74.305597 
L 314.64 75.269542 
L 315.172364 75.318347 
L 315.704727 75.266828 
L 315.970909 74.97294 
L 318.100364 75.381451 
L 319.165091 75.314479 
L 319.963636 74.930493 
L 320.229818 74.396708 
L 321.294545 73.407388 
L 322.359273 72.490082 
L 324.222545 70.202528 
L 324.488727 71.983392 
L 325.021091 71.85184 
L 326.352 71.177084 
L 329.546182 69.349661 
L 330.610909 68.958121 
L 331.409455 68.418362 
L 332.740364 67.36203 
L 333.006545 66.905038 
L 333.538909 66.609408 
L 334.603636 66.188504 
L 335.136 65.823695 
L 337.265455 64.083252 
L 338.596364 63.641043 
L 339.394909 63.396933 
L 339.927273 63.42484 
L 340.193455 63.552707 
L 340.992 64.385565 
L 341.258182 64.732916 
L 341.524364 66.173963 
L 341.790545 65.318039 
L 342.056727 66.604264 
L 342.322909 66.591992 
L 342.589091 67.516872 
L 342.855273 67.773781 
L 343.121455 68.556901 
L 343.387636 68.88307 
L 343.653818 69.509364 
L 343.92 69.760035 
L 344.452364 70.428492 
L 345.250909 71.297256 
L 346.049455 72.051397 
L 347.114182 72.439251 
L 348.178909 72.416083 
L 348.977455 72.274081 
L 350.308364 72.005709 
L 352.704 72.242934 
L 354.301091 72.884578 
L 355.632 72.779879 
L 356.164364 72.771495 
L 356.430545 72.915117 
L 356.696727 72.865623 
L 358.293818 73.418404 
L 358.56 75.053379 
L 358.826182 75.218063 
L 360.423273 75.127114 
L 361.221818 75.078612 
L 361.754182 74.997525 
L 362.552727 74.482128 
L 363.351273 73.589468 
L 365.480727 72.385119 
L 366.279273 71.629885 
L 367.876364 69.947563 
L 368.408727 69.710622 
L 369.473455 69.168857 
L 371.602909 67.471185 
L 372.135273 67.258586 
L 372.401455 67.272539 
L 373.2 66.887783 
L 373.466182 66.82061 
L 374.264727 66.183178 
L 374.530909 66.112946 
L 375.329455 65.59607 
L 375.595636 64.291295 
L 376.394182 63.948095 
L 376.926545 63.689768 
L 377.991273 62.952254 
L 378.789818 62.219701 
L 379.322182 61.862143 
L 379.588364 61.785127 
L 379.854545 61.247818 
L 380.653091 60.911159 
L 381.185455 60.747123 
L 381.717818 60.585152 
L 382.516364 60.440395 
L 382.782545 60.415689 
L 383.847273 60.945465 
L 384.113455 60.527638 
L 384.379636 60.446268 
L 385.710545 59.308587 
L 386.509091 59.18801 
L 387.573818 59.441436 
L 388.106182 59.715882 
L 388.372364 60.311455 
L 388.638545 60.498092 
L 388.904727 60.537764 
L 389.969455 61.378722 
L 390.501818 62.176849 
L 391.300364 63.768465 
L 392.098909 66.342374 
L 392.365091 67.218731 
L 392.631273 59.56343 
L 393.962182 59.851567 
L 394.494545 60.084376 
L 395.825455 61.120598 
L 396.890182 61.639925 
L 397.688727 61.505395 
L 398.753455 61.69112 
L 399.285818 62.030006 
L 399.818182 62.312635 
L 400.084364 62.532605 
L 400.882909 62.614765 
L 401.149091 62.167473 
L 401.947636 61.673522 
L 402.746182 61.582613 
L 403.544727 61.789906 
L 404.609455 61.748026 
L 405.141818 61.627369 
L 405.940364 61.21258 
L 406.738909 61.055632 
L 407.271273 60.988195 
L 407.537455 61.04178 
L 408.336 60.788658 
L 408.602182 60.95237 
L 409.134545 60.97736 
L 409.400727 61.0128 
L 409.666909 58.542194 
L 410.199273 57.96422 
L 410.997818 57.547852 
L 412.062545 57.341126 
L 413.127273 56.876053 
L 413.659636 56.842233 
L 413.925818 55.696472 
L 414.458182 55.47962 
L 414.724364 55.354062 
L 415.256727 54.832913 
L 415.522909 54.809016 
L 415.789091 54.904663 
L 416.055273 54.81414 
L 416.853818 55.323036 
L 417.386182 56.190605 
L 417.918545 57.307711 
L 418.184727 55.165683 
L 418.717091 54.297426 
L 419.515636 52.360099 
L 419.781818 52.173179 
L 420.048 52.181806 
L 420.314182 51.990836 
L 420.846545 52.151105 
L 421.112727 52.126459 
L 421.378909 51.766531 
L 421.645091 51.741906 
L 422.177455 51.433457 
L 422.709818 51.625622 
L 422.976 51.704562 
L 423.508364 52.122935 
L 423.774545 52.069937 
L 424.040727 52.331261 
L 424.573091 53.454888 
L 425.105455 55.375163 
L 425.371636 56.232606 
L 425.904 58.745984 
L 426.170182 55.405946 
L 426.436364 21.927273 
L 426.436364 21.927273 
" clip-path="url(#p58f8858a28)" style="fill: none; stroke: #0000ff; stroke-width: 3; stroke-linecap: square"/>
   </g>
   <g id="patch_3">
    <path d="M 7.2 331.2 
L 7.2 7.2 
" style="fill: none; stroke: #000000; stroke-width: 0.8; stroke-linejoin: miter; stroke-linecap: square"/>
   </g>
   <g id="patch_4">
    <path d="M 446.4 331.2 
L 446.4 7.2 
" style="fill: none; stroke: #000000; stroke-width: 0.8; stroke-linejoin: miter; stroke-linecap: square"/>
   </g>
   <g id="patch_5">
    <path d="M 7.2 331.2 
L 446.4 331.2 
" style="fill: none; stroke: #000000; stroke-width: 0.8; stroke-linejoin: miter; stroke-linecap: square"/>
   </g>
   <g id="patch_6">
    <path d="M 7.2 7.2 
L 446.4 7.2 
" style="fill: none; stroke: #000000; stroke-width: 0.8; stroke-linejoin: miter; stroke-linecap: square"/>
   </g>
  </g>
 </g>
 <defs>
  <clipPath id="p58f8858a28">
   <rect x="7.2" y="7.2" width="439.2" height="324"/>
  </clipPath>
 </defs>
</svg>
