<?xml version="1.0" encoding="utf-8" standalone="no"?>
<!DOCTYPE svg PUBLIC "-//W3C//DTD SVG 1.1//EN"
  "http://www.w3.org/Graphics/SVG/1.1/DTD/svg11.dtd">
<svg xmlns:xlink="http://www.w3.org/1999/xlink" width="453.6pt" height="338.4pt" viewBox="0 0 453.6 338.4" xmlns="http://www.w3.org/2000/svg" version="1.1">
 <metadata>
  <rdf:RDF xmlns:dc="http://purl.org/dc/elements/1.1/" xmlns:cc="http://creativecommons.org/ns#" xmlns:rdf="http://www.w3.org/1999/02/22-rdf-syntax-ns#">
   <cc:Work>
    <dc:type rdf:resource="http://purl.org/dc/dcmitype/StillImage"/>
    <dc:date>2025-05-14T00:23:26.562790</dc:date>
    <dc:format>image/svg+xml</dc:format>
    <dc:creator>
     <cc:Agent>
      <dc:title>Matplotlib v3.10.1, https://matplotlib.org/</dc:title>
     </cc:Agent>
    </dc:creator>
   </cc:Work>
  </rdf:RDF>
 </metadata>
 <defs>
  <style type="text/css">*{stroke-linejoin: round; stroke-linecap: butt}</style>
 </defs>
 <g id="figure_1">
  <g id="patch_1">
   <path d="M 0 338.4 
L 453.6 338.4 
L 453.6 0 
L 0 0 
z
" style="fill: #ffffff"/>
  </g>
  <g id="axes_1">
   <g id="patch_2">
    <path d="M 7.2 331.2 
L 446.4 331.2 
L 446.4 7.2 
L 7.2 7.2 
z
" style="fill: #ffffff"/>
   </g>
   <g id="matplotlib.axis_1"/>
   <g id="matplotlib.axis_2"/>
   <g id="line2d_1">
    <path d="M 27.163636 316.472727 
L 29.026909 293.494313 
L 30.890182 273.315149 
L 32.753455 255.746864 
L 34.350545 242.623577 
L 35.947636 231.161448 
L 37.544727 221.241856 
L 39.141818 212.746153 
L 40.738909 205.555761 
L 42.069818 200.475244 
L 43.400727 196.150145 
L 44.731636 192.51182 
L 46.062545 189.491564 
L 47.393455 187.020792 
L 48.724364 185.030811 
L 50.055273 183.453015 
L 51.386182 182.218701 
L 52.717091 181.259263 
L 54.314182 180.374073 
L 56.709818 179.343519 
L 59.371636 178.182006 
L 60.968727 177.25712 
L 62.299636 176.250043 
L 63.630545 174.954869 
L 64.961455 173.302967 
L 66.292364 171.225689 
L 67.623273 168.654363 
L 68.954182 165.520334 
L 70.285091 161.754988 
L 71.616 157.289649 
L 72.946909 152.055664 
L 74.277818 145.984388 
L 75.608727 139.007177 
L 77.205818 129.342006 
L 78.802909 118.154794 
L 80.4 105.326974 
L 81.997091 90.739739 
L 83.328 78.690235 
L 85.191273 75.892061 
L 87.054545 73.470824 
L 88.917818 71.390097 
L 90.781091 69.613695 
L 92.910545 67.909566 
L 95.04 66.501368 
L 97.435636 65.203444 
L 100.097455 64.02632 
L 103.824 62.651676 
L 109.413818 60.604445 
L 112.075636 59.389819 
L 114.471273 58.043845 
L 116.600727 56.581617 
L 118.464 55.052518 
L 120.327273 53.252391 
L 122.190545 51.145008 
L 124.053818 48.694044 
L 125.917091 45.863233 
L 127.780364 42.616229 
L 129.643636 38.916885 
L 131.506909 34.728795 
L 133.370182 30.015735 
L 134.967273 25.530598 
L 135.233455 25.464865 
L 152.269091 42.376262 
L 167.175273 56.868615 
L 181.016727 70.014975 
L 193.793455 81.84122 
L 205.771636 92.624042 
L 216.951273 102.393844 
L 227.598545 111.410312 
L 237.713455 119.695098 
L 247.562182 127.480491 
L 257.144727 134.772095 
L 266.194909 141.387403 
L 274.978909 147.542974 
L 280.302545 151.141175 
L 280.834909 151.128695 
L 284.827636 150.495323 
L 289.086545 149.588112 
L 293.345455 148.458081 
L 297.870545 147.03164 
L 302.661818 145.28951 
L 307.719273 143.217377 
L 313.309091 140.68132 
L 319.431273 137.650497 
L 326.352 133.965548 
L 334.603636 129.308152 
L 347.380364 121.798413 
L 361.754182 113.409734 
L 369.739636 109.000539 
L 376.394182 105.564129 
L 382.516364 102.651635 
L 388.106182 100.243636 
L 393.163636 98.303887 
L 397.954909 96.701598 
L 402.48 95.420202 
L 406.738909 94.438066 
L 410.997818 93.689915 
L 414.990545 93.215744 
L 418.983273 92.975379 
L 422.709818 92.974023 
L 426.436364 93.199295 
L 426.436364 93.199295 
" clip-path="url(#p6d0b34a777)" style="fill: none; stroke-dasharray: 11.1,4.8; stroke-dashoffset: 0; stroke: #000000; stroke-width: 3"/>
   </g>
   <g id="line2d_2">
    <path d="M 27.163636 141.270011 
L 28.494545 142.478218 
L 29.293091 142.964451 
L 30.091636 143.214984 
L 30.890182 143.23213 
L 31.688727 143.044559 
L 32.753455 142.547759 
L 34.350545 141.47752 
L 36.746182 139.840739 
L 38.609455 138.916681 
L 39.940364 138.16851 
L 41.005091 137.285563 
L 42.336 135.809518 
L 43.933091 134.064876 
L 44.731636 133.521263 
L 45.264 133.35028 
L 45.796364 133.343102 
L 46.594909 133.616404 
L 47.393455 134.154754 
L 49.256727 135.819127 
L 51.652364 137.806128 
L 53.515636 139.433937 
L 57.774545 143.391071 
L 62.832 147.00592 
L 64.162909 147.805649 
L 65.227636 148.17481 
L 66.292364 148.249456 
L 67.357091 148.058894 
L 68.954182 147.477201 
L 72.148364 146.272224 
L 74.011636 145.525768 
L 75.874909 144.507286 
L 78.270545 143.189424 
L 79.867636 142.615307 
L 82.795636 141.719041 
L 84.126545 141.031201 
L 85.989818 139.758557 
L 88.119273 138.033574 
L 89.184 136.92011 
L 90.248727 135.461132 
L 91.313455 133.581912 
L 92.910545 130.147138 
L 95.306182 124.980441 
L 96.903273 122.141117 
L 100.097455 116.701996 
L 101.960727 112.930279 
L 103.824 108.620532 
L 106.219636 102.456886 
L 112.075636 86.983633 
L 113.140364 84.856353 
L 114.205091 83.176826 
L 115.269818 81.943778 
L 116.334545 81.077618 
L 118.197818 79.97815 
L 119.262545 79.259328 
L 120.327273 78.249977 
L 121.125818 77.219014 
L 122.190545 75.402638 
L 123.255273 73.030805 
L 124.32 70.088405 
L 125.650909 65.685071 
L 129.909818 50.66655 
L 130.974545 47.990194 
L 132.039273 45.90881 
L 133.104 44.310907 
L 134.168727 43.113148 
L 134.967273 42.48851 
L 135.765818 42.153322 
L 136.298182 42.123695 
L 136.830545 42.269437 
L 137.362909 42.601594 
L 138.161455 43.451765 
L 138.96 44.691552 
L 140.024727 46.826049 
L 141.621818 50.687684 
L 143.218909 55.094606 
L 145.348364 61.708917 
L 146.679273 65.641169 
L 147.477818 67.530596 
L 148.276364 68.88283 
L 148.808727 69.451644 
L 149.341091 69.759398 
L 149.873455 69.832728 
L 150.405818 69.713263 
L 151.204364 69.283851 
L 154.132364 67.124033 
L 155.197091 66.22059 
L 155.995636 65.313678 
L 156.794182 64.130553 
L 157.858909 62.141279 
L 160.254545 57.418748 
L 161.053091 56.395601 
L 161.585455 55.9882 
L 162.117818 55.820008 
L 162.650182 55.890826 
L 163.182545 56.187175 
L 163.981091 56.998268 
L 165.045818 58.582813 
L 166.909091 61.964634 
L 169.837091 67.635427 
L 170.901818 70.150769 
L 171.966545 73.204859 
L 173.031273 76.903844 
L 174.362182 82.362783 
L 177.556364 95.984649 
L 178.621091 99.380227 
L 179.419636 101.346812 
L 180.218182 102.863928 
L 181.282909 104.362861 
L 182.613818 105.78049 
L 192.462545 115.204937 
L 198.850909 121.508463 
L 199.915636 123.052415 
L 200.980364 125.065574 
L 202.311273 128.167952 
L 204.706909 133.893614 
L 205.771636 135.824152 
L 206.836364 137.214825 
L 207.901091 138.136252 
L 208.965818 138.71962 
L 210.296727 139.148991 
L 211.627636 139.358374 
L 212.958545 139.364794 
L 214.023273 139.182805 
L 215.088 138.764359 
L 215.886545 138.240604 
L 216.685091 137.488685 
L 217.483636 136.47108 
L 218.548364 134.669657 
L 219.613091 132.404888 
L 223.339636 123.912036 
L 224.404364 122.306956 
L 225.202909 121.443029 
L 226.267636 120.657535 
L 227.332364 120.151046 
L 229.195636 119.556473 
L 233.720727 118.18155 
L 235.317818 117.456467 
L 236.914909 116.482764 
L 238.778182 115.06693 
L 242.504727 112.136851 
L 244.368 110.976454 
L 245.965091 110.222382 
L 247.562182 109.720678 
L 248.893091 109.513089 
L 250.224 109.511215 
L 251.554909 109.727217 
L 252.885818 110.162092 
L 254.482909 110.930718 
L 257.144727 112.518293 
L 260.338909 114.336583 
L 262.202182 115.164663 
L 263.799273 115.647348 
L 265.396364 115.895289 
L 267.259636 115.947047 
L 269.921455 115.766972 
L 273.381818 115.279263 
L 283.762909 113.693762 
L 286.690909 113.501087 
L 294.942545 113.13723 
L 296.273455 112.727436 
L 297.604364 112.074128 
L 299.467636 110.859661 
L 301.597091 109.529797 
L 302.928 108.963256 
L 304.258909 108.645175 
L 305.856 108.531731 
L 310.114909 108.435992 
L 311.445818 108.109537 
L 312.776727 107.58295 
L 314.373818 106.69143 
L 315.970909 105.502922 
L 317.834182 103.777898 
L 321.028364 100.74223 
L 322.359273 99.775307 
L 323.690182 99.061588 
L 325.287273 98.471122 
L 327.682909 97.633073 
L 329.013818 96.909426 
L 330.344727 95.909166 
L 331.675636 94.643062 
L 333.272727 92.819069 
L 335.136 90.321791 
L 337.265455 87.03539 
L 342.322909 78.929005 
L 344.452364 76.069344 
L 346.315636 73.930779 
L 347.646545 72.751363 
L 348.445091 72.278926 
L 349.243636 72.061449 
L 349.776 72.094824 
L 350.308364 72.296671 
L 350.840727 72.688002 
L 351.373091 73.286164 
L 352.171636 74.598363 
L 352.970182 76.423193 
L 354.034909 79.622667 
L 355.099636 83.569872 
L 356.962909 91.553723 
L 359.092364 100.591424 
L 360.423273 105.316268 
L 361.488 108.359871 
L 362.552727 110.736727 
L 363.617455 112.522759 
L 364.682182 113.837351 
L 365.746909 114.808422 
L 367.077818 115.706482 
L 368.941091 116.654465 
L 373.732364 118.951732 
L 375.063273 119.830851 
L 376.128 120.759216 
L 377.192727 121.978428 
L 378.257455 123.537452 
L 379.588364 125.927109 
L 383.314909 133.062344 
L 384.379636 134.541579 
L 385.444364 135.634627 
L 386.509091 136.388061 
L 387.84 136.992403 
L 389.703273 137.516916 
L 392.098909 137.956217 
L 393.962182 138.097134 
L 395.825455 138.027393 
L 398.221091 137.71637 
L 401.149091 137.100464 
L 403.810909 136.55717 
L 405.408 136.468927 
L 407.005091 136.612038 
L 411.264 137.160515 
L 413.127273 137.043363 
L 415.522909 136.902366 
L 418.717091 136.889885 
L 419.515636 136.674282 
L 420.314182 136.260422 
L 421.112727 135.600693 
L 421.911273 134.662958 
L 422.976 132.970393 
L 424.306909 130.262575 
L 426.436364 125.600813 
L 426.436364 125.600813 
" clip-path="url(#p6d0b34a777)" style="fill: none; stroke-dasharray: 3,4.95; stroke-dashoffset: 0; stroke: #ff0000; stroke-width: 3"/>
   </g>
   <g id="line2d_3">
    <path d="M 27.163636 167.431184 
L 30.091636 186.362579 
L 30.890182 189.66453 
L 31.422545 191.089217 
L 31.954909 191.879176 
L 32.221091 192.046411 
L 32.487273 192.07225 
L 33.019636 191.744639 
L 33.552 191.001532 
L 34.350545 189.382057 
L 36.213818 185.359688 
L 37.012364 184.1776 
L 37.810909 183.380702 
L 39.674182 181.892615 
L 40.472727 180.817231 
L 41.271273 179.255934 
L 42.336 176.464738 
L 46.062545 165.622783 
L 47.393455 162.78621 
L 48.724364 160.469963 
L 50.055273 158.606374 
L 51.386182 157.146598 
L 53.781818 154.668619 
L 55.112727 152.81791 
L 57.774545 148.867036 
L 58.839273 147.819406 
L 60.170182 146.927527 
L 60.968727 146.339094 
L 61.767273 145.447534 
L 62.565818 144.056342 
L 63.364364 142.043024 
L 64.162909 139.391071 
L 65.227636 135.024662 
L 69.486545 116.244792 
L 70.817455 111.956218 
L 71.882182 109.195846 
L 72.946909 106.944276 
L 74.277818 104.707419 
L 75.608727 102.950018 
L 76.939636 101.54806 
L 78.270545 100.485995 
L 79.335273 99.928585 
L 80.4 99.65002 
L 81.730909 99.594753 
L 83.328 99.552646 
L 84.126545 99.359133 
L 84.925091 98.970514 
L 85.723636 98.357 
L 86.522182 97.510777 
L 87.586909 96.026917 
L 88.651636 94.137968 
L 89.716364 91.814065 
L 90.781091 89.003849 
L 92.112 84.762368 
L 93.442909 79.761949 
L 95.306182 71.783243 
L 99.565091 53.006403 
L 100.896 48.331921 
L 102.493091 43.559028 
L 107.284364 30.396918 
L 108.615273 27.250637 
L 109.68 25.180537 
L 110.744727 23.588457 
L 111.543273 22.732106 
L 112.341818 22.176889 
L 113.140364 21.935248 
L 113.672727 21.95694 
L 114.205091 22.133027 
L 115.003636 22.703954 
L 115.802182 23.664936 
L 116.600727 25.029372 
L 117.399273 26.789804 
L 118.464 29.683837 
L 120.061091 34.799852 
L 122.190545 41.61585 
L 123.255273 44.409159 
L 124.32 46.542859 
L 125.118545 47.662304 
L 125.917091 48.370958 
L 126.715636 48.702158 
L 127.514182 48.715158 
L 128.312727 48.488031 
L 129.643636 47.801826 
L 134.434909 45.055569 
L 136.032 44.306082 
L 137.096727 44.004828 
L 138.161455 43.965153 
L 138.96 44.135418 
L 140.024727 44.625041 
L 141.089455 45.380389 
L 142.420364 46.650561 
L 143.751273 48.2749 
L 145.348364 50.632976 
L 147.211636 53.409736 
L 148.276364 54.60929 
L 149.074909 55.200713 
L 149.873455 55.511896 
L 150.672 55.57418 
L 151.736727 55.371736 
L 153.067636 54.853643 
L 154.664727 53.977912 
L 155.729455 53.166221 
L 156.794182 52.090359 
L 158.125091 50.389221 
L 161.053091 46.469728 
L 162.117818 45.42465 
L 163.182545 44.654588 
L 164.247273 44.118033 
L 165.578182 43.707841 
L 166.642909 43.581597 
L 167.707636 43.684674 
L 168.506182 43.960089 
L 169.304727 44.444448 
L 170.103273 45.166182 
L 170.901818 46.143313 
L 171.966545 47.857889 
L 173.031273 50.047095 
L 174.096 52.702517 
L 175.426909 56.616467 
L 177.822545 64.595931 
L 179.685818 70.475429 
L 181.016727 74.024166 
L 182.347636 76.958393 
L 183.678545 79.34466 
L 185.009455 81.293022 
L 186.606545 83.211199 
L 188.469818 85.074468 
L 195.124364 91.069643 
L 196.189091 91.665492 
L 197.52 92.121021 
L 199.117091 92.649881 
L 199.915636 93.128179 
L 200.714182 93.842655 
L 201.778909 95.162032 
L 204.973091 99.589689 
L 205.771636 100.279882 
L 206.836364 100.870986 
L 209.764364 102.076441 
L 210.562909 102.694221 
L 211.627636 103.855933 
L 212.692364 105.409256 
L 214.023273 107.822996 
L 218.282182 116.118827 
L 219.346909 117.574377 
L 220.944 119.313077 
L 222.274909 120.812808 
L 223.339636 122.351775 
L 224.404364 124.302689 
L 225.735273 127.249835 
L 231.058909 139.741252 
L 232.656 142.68453 
L 233.986909 144.672408 
L 235.317818 146.223338 
L 236.648727 147.400521 
L 238.245818 148.471718 
L 240.109091 149.432341 
L 241.706182 150.040831 
L 243.303273 150.420638 
L 244.900364 150.584324 
L 247.029818 150.570328 
L 249.691636 150.320154 
L 251.554909 149.960124 
L 253.152 149.43928 
L 255.015273 148.56004 
L 257.943273 147.132284 
L 259.540364 146.653906 
L 261.403636 146.374383 
L 266.194909 146.030623 
L 269.921455 145.90111 
L 272.849455 146.001235 
L 276.043636 146.349661 
L 282.432 147.123671 
L 284.827636 147.169846 
L 286.957091 146.996789 
L 289.086545 146.604182 
L 292.546909 145.694837 
L 294.676364 144.961779 
L 296.007273 144.28303 
L 297.338182 143.34374 
L 298.935273 141.900352 
L 302.661818 138.370795 
L 304.525091 137.002133 
L 309.582545 133.56361 
L 311.179636 132.069382 
L 312.776727 130.268556 
L 314.373818 128.137727 
L 315.970909 125.647586 
L 318.100364 121.876229 
L 320.762182 117.226031 
L 322.093091 115.319816 
L 323.157818 114.110015 
L 324.222545 113.20705 
L 325.287273 112.59876 
L 326.352 112.236697 
L 327.949091 111.987001 
L 332.474182 111.475288 
L 335.668364 111.057998 
L 337.797818 111.015492 
L 340.992 111.028491 
L 342.322909 110.771857 
L 343.653818 110.285664 
L 346.049455 109.091653 
L 347.646545 108.38858 
L 348.711273 108.143949 
L 349.509818 108.167594 
L 350.308364 108.434516 
L 351.106909 108.998705 
L 351.905455 109.901271 
L 352.704 111.164504 
L 353.768727 113.403474 
L 354.833455 116.198577 
L 356.962909 122.649241 
L 358.293818 126.374624 
L 359.358545 128.65287 
L 360.157091 129.789142 
L 360.689455 130.243595 
L 361.221818 130.451821 
L 361.754182 130.420918 
L 362.286545 130.166357 
L 363.085091 129.413402 
L 363.883636 128.29918 
L 365.214545 125.92344 
L 368.674909 119.413562 
L 370.005818 117.423092 
L 371.602909 115.475687 
L 373.2 113.893734 
L 374.530909 112.858066 
L 375.595636 112.327333 
L 376.394182 112.189166 
L 377.192727 112.330283 
L 377.991273 112.775844 
L 378.789818 113.51604 
L 379.854545 114.875013 
L 384.113455 120.913731 
L 385.710545 122.476942 
L 389.437091 125.90761 
L 391.566545 127.883765 
L 392.897455 128.799609 
L 394.228364 129.404071 
L 396.091636 129.927906 
L 399.285818 130.807384 
L 401.415273 131.662699 
L 404.343273 133.154415 
L 406.738909 134.547919 
L 408.069818 135.584225 
L 409.400727 136.947464 
L 410.731636 138.645014 
L 414.192 143.338476 
L 415.256727 144.345355 
L 416.321455 145.043044 
L 417.918545 145.735629 
L 420.846545 146.795541 
L 421.378909 146.634407 
L 421.911273 146.122016 
L 422.443636 145.128017 
L 422.976 143.533943 
L 423.508364 141.256613 
L 424.306909 136.514663 
L 425.371636 128.103714 
L 426.436364 118.570808 
L 426.436364 118.570808 
" clip-path="url(#p6d0b34a777)" style="fill: none; stroke: #ff0000; stroke-width: 3; stroke-linecap: square"/>
   </g>
   <g id="patch_3">
    <path d="M 7.2 331.2 
L 7.2 7.2 
" style="fill: none; stroke: #000000; stroke-width: 0.8; stroke-linejoin: miter; stroke-linecap: square"/>
   </g>
   <g id="patch_4">
    <path d="M 446.4 331.2 
L 446.4 7.2 
" style="fill: none; stroke: #000000; stroke-width: 0.8; stroke-linejoin: miter; stroke-linecap: square"/>
   </g>
   <g id="patch_5">
    <path d="M 7.2 331.2 
L 446.4 331.2 
" style="fill: none; stroke: #000000; stroke-width: 0.8; stroke-linejoin: miter; stroke-linecap: square"/>
   </g>
   <g id="patch_6">
    <path d="M 7.2 7.2 
L 446.4 7.2 
" style="fill: none; stroke: #000000; stroke-width: 0.8; stroke-linejoin: miter; stroke-linecap: square"/>
   </g>
  </g>
 </g>
 <defs>
  <clipPath id="p6d0b34a777">
   <rect x="7.2" y="7.2" width="439.2" height="324"/>
  </clipPath>
 </defs>
</svg>
