<?xml version="1.0" encoding="utf-8" standalone="no"?>
<!DOCTYPE svg PUBLIC "-//W3C//DTD SVG 1.1//EN"
  "http://www.w3.org/Graphics/SVG/1.1/DTD/svg11.dtd">
<svg xmlns:xlink="http://www.w3.org/1999/xlink" width="453.6pt" height="338.4pt" viewBox="0 0 453.6 338.4" xmlns="http://www.w3.org/2000/svg" version="1.1">
 <metadata>
  <rdf:RDF xmlns:dc="http://purl.org/dc/elements/1.1/" xmlns:cc="http://creativecommons.org/ns#" xmlns:rdf="http://www.w3.org/1999/02/22-rdf-syntax-ns#">
   <cc:Work>
    <dc:type rdf:resource="http://purl.org/dc/dcmitype/StillImage"/>
    <dc:date>2025-05-14T00:10:25.998413</dc:date>
    <dc:format>image/svg+xml</dc:format>
    <dc:creator>
     <cc:Agent>
      <dc:title>Matplotlib v3.10.1, https://matplotlib.org/</dc:title>
     </cc:Agent>
    </dc:creator>
   </cc:Work>
  </rdf:RDF>
 </metadata>
 <defs>
  <style type="text/css">*{stroke-linejoin: round; stroke-linecap: butt}</style>
 </defs>
 <g id="figure_1">
  <g id="patch_1">
   <path d="M 0 338.4 
L 453.6 338.4 
L 453.6 0 
L 0 0 
z
" style="fill: #ffffff"/>
  </g>
  <g id="axes_1">
   <g id="patch_2">
    <path d="M 7.2 331.2 
L 446.4 331.2 
L 446.4 7.2 
L 7.2 7.2 
z
" style="fill: #ffffff"/>
   </g>
   <g id="matplotlib.axis_1"/>
   <g id="matplotlib.axis_2"/>
   <g id="line2d_1">
    <path d="M 27.163636 316.472727 
L 32.753455 314.377225 
L 38.343273 312.04944 
L 44.199273 309.369896 
L 50.321455 306.314246 
L 56.443636 303.008412 
L 62.832 299.302866 
L 69.486545 295.176882 
L 76.141091 290.791972 
L 83.061818 285.970736 
L 90.248727 280.697654 
L 97.968 274.749651 
L 105.953455 268.307365 
L 114.205091 261.364531 
L 122.989091 253.68154 
L 132.305455 245.235571 
L 142.420364 235.759099 
L 153.333818 225.226657 
L 165.578182 213.097403 
L 180.218182 198.268571 
L 200.448 177.432278 
L 233.188364 143.705243 
L 248.094545 128.695034 
L 260.338909 116.670273 
L 271.252364 106.253675 
L 281.367273 96.903754 
L 290.683636 88.590638 
L 299.467636 81.047193 
L 307.719273 74.248145 
L 315.704727 67.956684 
L 323.157818 62.360095 
L 330.344727 57.232432 
L 337.265455 52.559496 
L 343.92 48.32478 
L 350.574545 44.356411 
L 356.962909 40.809254 
L 363.085091 37.661677 
L 368.941091 34.890813 
L 374.797091 32.363262 
L 380.386909 30.185647 
L 385.976727 28.245199 
L 391.300364 26.624578 
L 396.624 25.2325 
L 401.947636 24.07542 
L 407.005091 23.199839 
L 412.062545 22.547869 
L 417.12 22.125038 
L 421.911273 21.940994 
L 426.436364 21.964887 
L 426.436364 21.964887 
" clip-path="url(#p0981d856f9)" style="fill: none; stroke-dasharray: 11.1,4.8; stroke-dashoffset: 0; stroke: #000000; stroke-width: 3"/>
   </g>
   <g id="line2d_2">
    <path d="M 27.163636 202.125408 
L 27.962182 182.558202 
L 28.760727 168.735636 
L 29.293091 162.391078 
L 29.825455 158.076631 
L 30.357818 155.564968 
L 30.624 154.916215 
L 30.890182 154.635098 
L 31.156364 154.693818 
L 31.422545 155.071864 
L 31.954909 156.65187 
L 32.487273 159.138449 
L 33.285818 164.086832 
L 35.947636 182.661826 
L 36.746182 190.813552 
L 37.278545 194.394941 
L 37.810909 196.585657 
L 38.343273 197.596735 
L 38.609455 197.741569 
L 38.875636 197.673035 
L 39.408 197.011418 
L 39.940364 195.826967 
L 41.005091 192.643778 
L 42.069818 189.5326 
L 42.602182 188.396269 
L 43.134545 187.719359 
L 43.400727 187.585864 
L 43.666909 187.619571 
L 43.933091 187.807903 
L 44.465455 188.709498 
L 44.997818 190.308084 
L 45.530182 192.59704 
L 46.328727 196.883663 
L 47.393455 184.86855 
L 48.458182 174.854844 
L 49.789091 164.624887 
L 51.12 156.407486 
L 52.450909 149.774163 
L 53.781818 144.380176 
L 55.112727 139.961749 
L 56.443636 136.315089 
L 57.774545 133.261845 
L 59.371636 130.202122 
L 60.702545 128.089255 
L 62.565818 125.924551 
L 64.695273 123.846677 
L 67.623273 121.317672 
L 71.083636 118.284725 
L 73.213091 116.163948 
L 75.342545 113.733445 
L 76.939636 111.674771 
L 77.472 110.248914 
L 78.802909 106.101956 
L 79.069091 105.994521 
L 79.601455 110.420595 
L 80.666182 119.03005 
L 81.730909 125.508724 
L 82.529455 129.186137 
L 83.594182 132.950594 
L 86.522182 142.043124 
L 87.320727 145.588972 
L 88.119273 150.043203 
L 88.917818 155.538431 
L 89.982545 164.550564 
L 91.313455 178.273199 
L 91.845818 184.34879 
L 92.112 183.595722 
L 92.910545 179.521872 
L 93.975273 174.729948 
L 94.773818 170.879258 
L 95.306182 169.157205 
L 95.838545 168.034643 
L 96.370909 167.435795 
L 96.903273 167.31452 
L 97.435636 167.605475 
L 97.968 168.269474 
L 98.500364 169.276741 
L 99.298909 171.348374 
L 100.097455 174.011398 
L 101.162182 178.390734 
L 102.493091 185.045258 
L 103.824 192.992667 
L 105.154909 202.310024 
L 106.485818 213.222728 
L 107.816727 226.103548 
L 108.615273 233.965939 
L 108.881455 233.491785 
L 111.010909 213.63553 
L 113.140364 194.854528 
L 114.471273 184.659969 
L 115.536 177.77352 
L 116.600727 172.196155 
L 117.399273 168.967729 
L 118.197818 166.544372 
L 118.996364 164.961103 
L 119.528727 164.323379 
L 120.061091 164.050838 
L 120.593455 164.070157 
L 121.125818 164.389055 
L 121.658182 164.978469 
L 122.190545 165.787207 
L 122.989091 167.362234 
L 124.053818 169.918348 
L 126.981818 177.074575 
L 127.780364 190.399463 
L 128.845091 214.106242 
L 129.111273 214.301554 
L 129.377455 214.343777 
L 129.643636 214.237176 
L 130.176 213.648417 
L 130.708364 212.672476 
L 131.506909 210.687172 
L 132.837818 206.626186 
L 136.032 196.565456 
L 137.629091 192.333098 
L 138.96 189.351438 
L 140.290909 186.864574 
L 141.355636 185.222799 
L 142.420364 183.906449 
L 143.485091 182.935272 
L 144.283636 182.394644 
L 144.816 182.267319 
L 145.348364 182.30529 
L 146.146909 182.679692 
L 146.945455 183.367656 
L 148.010182 184.709971 
L 149.074909 186.411466 
L 149.873455 187.863098 
L 150.139636 187.774887 
L 150.405818 187.42221 
L 150.672 186.727076 
L 151.736727 182.580738 
L 153.067636 178.406599 
L 154.132364 175.668037 
L 155.729455 172.328531 
L 157.326545 169.654168 
L 158.657455 167.76365 
L 160.254545 165.804144 
L 160.786909 163.018225 
L 161.319273 161.310179 
L 161.851636 160.549751 
L 162.117818 160.497439 
L 162.384 160.627933 
L 162.916364 161.379881 
L 163.448727 162.658736 
L 164.513455 166.107106 
L 165.578182 169.517766 
L 166.110545 170.722584 
L 166.642909 171.312951 
L 166.909091 171.312332 
L 167.175273 171.081669 
L 167.441455 170.594639 
L 168.772364 166.432983 
L 170.369455 161.970176 
L 171.434182 159.61614 
L 172.232727 158.317657 
L 173.031273 157.503701 
L 173.563636 157.270727 
L 174.096 157.305721 
L 174.628364 157.631075 
L 175.160727 158.266417 
L 175.693091 159.222824 
L 176.491636 161.306987 
L 176.757818 162.177423 
L 177.024 162.268016 
L 178.088727 156.510728 
L 178.621091 154.755611 
L 179.153455 153.744033 
L 179.685818 153.321321 
L 179.952 153.300691 
L 180.484364 153.602605 
L 181.016727 154.25941 
L 181.815273 155.723834 
L 183.412364 159.443244 
L 184.477091 161.724577 
L 185.275636 162.944736 
L 185.808 163.40642 
L 186.340364 163.512044 
L 186.872727 163.196672 
L 187.405091 162.378405 
L 187.937455 160.993735 
L 188.469818 158.976796 
L 189.002182 156.253337 
L 189.800727 150.661798 
L 190.599273 142.959536 
L 191.397818 132.880249 
L 191.664 128.934487 
L 192.196364 129.567566 
L 192.728727 130.080252 
L 193.261091 130.285569 
L 193.793455 130.196977 
L 194.325818 129.854567 
L 195.124364 129.034061 
L 197.786182 125.986678 
L 198.584727 125.414129 
L 199.383273 125.134155 
L 199.915636 125.145995 
L 200.448 125.348072 
L 200.980364 125.765233 
L 201.512727 126.431567 
L 202.045091 127.388523 
L 202.577455 128.68684 
L 203.376 131.411871 
L 204.174545 135.313611 
L 204.973091 140.771892 
L 205.771636 148.229199 
L 206.836364 161.40618 
L 207.102545 161.386122 
L 207.901091 159.509873 
L 208.433455 158.799755 
L 208.965818 158.547343 
L 209.232 158.605134 
L 209.764364 159.073154 
L 210.296727 159.774744 
L 224.670545 163.962841 
L 226.8 164.512188 
L 229.461818 171.620057 
L 230.260364 173.206495 
L 231.058909 174.259689 
L 231.591273 174.594738 
L 231.857455 174.636663 
L 232.123636 174.966495 
L 232.656 175.776187 
L 232.922182 175.848675 
L 233.188364 175.719396 
L 233.720727 174.949368 
L 234.253091 173.615438 
L 235.051636 170.871016 
L 237.979636 159.611614 
L 238.778182 157.75971 
L 239.310545 157.068293 
L 239.842909 156.880103 
L 240.109091 156.978129 
L 240.375273 157.209292 
L 240.907636 158.113602 
L 241.44 159.577788 
L 241.972364 161.60061 
L 242.770909 165.65657 
L 243.835636 172.7506 
L 244.634182 179.44874 
L 245.432727 187.231996 
L 245.698909 187.431882 
L 248.094545 168.212827 
L 250.224 153.005687 
L 252.087273 141.401851 
L 253.684364 132.898282 
L 255.015273 126.948564 
L 256.08 123.005256 
L 257.144727 119.847531 
L 257.943273 118.030073 
L 258.741818 116.713938 
L 259.274182 116.128407 
L 259.806545 115.790714 
L 260.338909 115.703861 
L 261.137455 115.821872 
L 261.936 116.240225 
L 262.734545 117.034337 
L 263.266909 117.842932 
L 265.662545 124.185919 
L 268.590545 131.233734 
L 272.849455 141.003389 
L 274.446545 144.103514 
L 275.511273 145.695382 
L 276.309818 146.541806 
L 276.576 146.744027 
L 276.842182 147.606125 
L 278.705455 159.110006 
L 280.834909 173.581397 
L 282.964364 189.594632 
L 283.496727 193.530984 
L 283.762909 193.021038 
L 285.093818 179.169839 
L 286.158545 170.457165 
L 287.223273 163.63613 
L 288.021818 159.73327 
L 288.820364 156.857378 
L 289.352727 155.504605 
L 289.885091 154.578593 
L 290.417455 154.04778 
L 290.949818 153.872478 
L 291.482182 153.946634 
L 292.546909 154.220414 
L 292.813091 154.142923 
L 293.079273 153.921002 
L 293.345455 153.497218 
L 294.144 153.291973 
L 294.942545 152.879433 
L 295.741091 152.164456 
L 296.273455 151.456149 
L 297.072 149.901132 
L 297.870545 147.57187 
L 298.669091 144.194249 
L 299.467636 139.490846 
L 300.266182 133.150837 
L 301.064727 124.906041 
L 301.863273 116.524057 
L 303.194182 130.949306 
L 304.258909 140.485511 
L 305.323636 148.166644 
L 306.388364 154.070124 
L 307.186909 157.444457 
L 307.985455 160.017746 
L 308.784 161.903143 
L 309.582545 163.217301 
L 309.848727 163.553684 
L 310.913455 165.604163 
L 311.445818 165.984997 
L 311.712 165.967083 
L 311.978182 165.815031 
L 312.510545 165.059891 
L 313.042909 163.722792 
L 313.575273 161.793159 
L 314.373818 157.778934 
L 315.172364 152.479232 
L 316.237091 143.569579 
L 317.568 131.49496 
L 318.366545 127.968956 
L 319.165091 125.359602 
L 319.963636 123.646887 
L 320.496 122.978242 
L 321.028364 122.659059 
L 321.560727 122.662489 
L 322.093091 122.969786 
L 322.625455 123.53302 
L 323.424 124.773165 
L 324.488727 126.936153 
L 326.618182 131.576096 
L 327.416727 138.359398 
L 328.481455 149.322604 
L 330.078545 168.508022 
L 331.143273 182.355339 
L 331.409455 181.605011 
L 332.208 171.245298 
L 333.006545 163.583008 
L 333.805091 158.005238 
L 334.603636 154.084608 
L 335.402182 151.514749 
L 335.934545 150.407742 
L 336.466909 149.717706 
L 336.999273 149.435613 
L 337.531636 149.500097 
L 338.064 149.882908 
L 338.596364 150.601625 
L 339.394909 152.244067 
L 340.193455 154.576497 
L 340.992 157.629336 
L 341.790545 161.423379 
L 342.855273 167.715578 
L 343.387636 171.071259 
L 345.250909 180.315889 
L 350.574545 208.227107 
L 350.840727 208.688933 
L 351.373091 207.800107 
L 352.171636 206.021526 
L 353.236364 202.983266 
L 354.567273 198.352161 
L 356.430545 190.832871 
L 359.890909 176.118215 
L 363.883636 149.200209 
L 364.682182 145.168333 
L 365.480727 142.200942 
L 366.013091 140.957628 
L 366.545455 140.423099 
L 366.811636 140.437535 
L 367.077818 140.658145 
L 367.344 141.121663 
L 367.876364 142.735924 
L 368.408727 145.376079 
L 368.941091 149.135772 
L 370.005818 161.843875 
L 370.538182 166.04355 
L 371.070545 168.86251 
L 371.602909 170.404925 
L 371.869091 170.757006 
L 372.135273 170.860701 
L 372.401455 170.707076 
L 372.667636 170.331221 
L 373.2 169.016515 
L 373.732364 167.02416 
L 374.530909 163.153078 
L 376.394182 152.423728 
L 377.725091 142.920207 
L 377.991273 141.899457 
L 378.257455 141.338057 
L 378.523636 141.288294 
L 378.789818 141.799788 
L 379.056 142.919278 
L 379.588364 147.154875 
L 380.120727 154.364462 
L 380.386909 158.699038 
L 380.919273 162.875535 
L 381.451636 165.031353 
L 381.717818 165.541703 
L 381.984 165.717006 
L 382.250182 165.564405 
L 382.516364 165.118491 
L 383.048727 163.465163 
L 383.581091 160.930894 
L 384.379636 155.855114 
L 385.710545 145.291609 
L 388.638545 120.874617 
L 389.969455 111.881494 
L 391.034182 106.186999 
L 391.832727 102.828936 
L 392.365091 101.012026 
L 392.631273 102.418159 
L 393.163636 107.991593 
L 393.962182 121.100802 
L 394.760727 130.039374 
L 395.293091 134.053194 
L 395.825455 136.796902 
L 396.357818 138.475266 
L 396.890182 139.230978 
L 397.156364 139.3316 
L 397.422545 139.259111 
L 397.954909 138.666481 
L 398.487273 137.605449 
L 399.285818 135.35294 
L 400.350545 131.568283 
L 404.077091 117.667249 
L 405.408 113.829684 
L 406.472727 111.375097 
L 407.537455 109.470024 
L 408.602182 108.078899 
L 409.400727 107.355536 
L 409.666909 107.173398 
L 409.933091 106.793064 
L 412.594909 101.031417 
L 412.861091 100.946279 
L 413.127273 101.372349 
L 415.256727 112.870442 
L 417.652364 126.931484 
L 420.314182 143.919207 
L 422.443636 158.893397 
L 424.040727 171.533633 
L 425.371636 183.658111 
L 426.436364 194.971658 
L 426.436364 194.971658 
" clip-path="url(#p0981d856f9)" style="fill: none; stroke-dasharray: 3,4.95; stroke-dashoffset: 0; stroke: #0000ff; stroke-width: 3"/>
   </g>
   <g id="line2d_3">
    <path d="M 27.163636 193.188146 
L 27.962182 179.768853 
L 28.494545 173.982598 
L 29.026909 170.399899 
L 29.293091 169.365738 
L 29.559273 168.784042 
L 29.825455 168.622675 
L 30.091636 168.852862 
L 30.357818 169.440942 
L 30.890182 171.567317 
L 31.422545 174.763441 
L 32.221091 181.096065 
L 33.552 194.002125 
L 36.213818 221.488427 
L 37.012364 232.09437 
L 38.077091 243.034886 
L 39.408 256.474986 
L 40.206545 270.596154 
L 40.472727 262.951528 
L 41.271273 225.471839 
L 41.803636 207.455029 
L 42.336 194.955436 
L 42.868364 187.634102 
L 43.134545 185.873149 
L 43.400727 185.282901 
L 43.666909 185.83956 
L 44.199273 188.514614 
L 44.731636 192.732894 
L 45.264 198.738592 
L 46.062545 210.936225 
L 46.328727 215.365206 
L 46.594909 215.321184 
L 46.861091 215.597227 
L 47.127273 216.168822 
L 47.659636 218.094287 
L 48.458182 222.528746 
L 51.12 240.165103 
L 51.386182 240.998914 
L 51.652364 240.596391 
L 52.184727 239.025485 
L 52.717091 236.074614 
L 53.515636 226.310783 
L 56.177455 193.558355 
L 57.774545 176.731689 
L 58.839273 167.661789 
L 59.637818 162.339504 
L 60.436364 158.527023 
L 61.501091 156.056238 
L 62.299636 154.680335 
L 62.832 154.05769 
L 63.364364 153.752727 
L 63.896727 153.776644 
L 64.429091 154.211243 
L 64.961455 155.089373 
L 65.493818 156.451555 
L 66.026182 158.332664 
L 66.824727 162.236762 
L 67.623273 167.48239 
L 68.421818 173.01185 
L 68.688 172.455452 
L 70.285091 163.21561 
L 71.882182 155.65711 
L 73.213091 150.365031 
L 74.544 145.945436 
L 75.608727 143.043173 
L 76.673455 140.719533 
L 76.939636 140.232003 
L 77.205818 138.805765 
L 78.802909 125.03987 
L 79.069091 123.575851 
L 79.335273 124.207263 
L 80.133818 127.585169 
L 80.666182 129.179991 
L 81.198545 130.243834 
L 81.730909 130.815144 
L 82.263273 130.945542 
L 82.795636 130.692558 
L 83.328 130.127513 
L 84.126545 128.886702 
L 84.658909 127.934701 
L 84.925091 127.202191 
L 85.723636 121.654722 
L 86.256 119.00792 
L 86.788364 117.232221 
L 87.320727 116.357855 
L 87.586909 116.247252 
L 87.853091 116.373053 
L 88.119273 116.712366 
L 88.651636 118.038816 
L 89.184 120.205592 
L 89.716364 123.169243 
L 90.514909 128.958142 
L 91.579636 138.692994 
L 91.845818 141.392013 
L 92.112 140.170544 
L 93.176727 133.122347 
L 93.975273 129.147642 
L 94.241455 128.782626 
L 94.507636 128.801611 
L 94.773818 129.198143 
L 95.306182 130.903569 
L 95.838545 133.685153 
L 96.637091 139.431983 
L 97.701818 149.231225 
L 99.298909 166.731799 
L 101.960727 199.254803 
L 103.824 220.457161 
L 107.816727 264.2169 
L 108.615273 273.014675 
L 108.881455 272.69542 
L 109.946182 262.859696 
L 111.277091 247.185143 
L 114.205091 211.833461 
L 115.269818 201.429321 
L 116.068364 195.142077 
L 116.866909 190.381597 
L 117.399273 188.123323 
L 117.931636 186.599584 
L 118.464 185.823862 
L 118.730182 185.72748 
L 118.996364 185.807306 
L 119.262545 186.061386 
L 119.794909 187.10548 
L 120.061091 184.393241 
L 120.859636 172.581301 
L 121.392 166.905768 
L 122.190545 161.101718 
L 122.722909 158.740797 
L 123.255273 157.293787 
L 123.787636 156.614899 
L 124.32 156.577618 
L 124.852364 156.977438 
L 125.650909 158.106813 
L 126.981818 160.399604 
L 127.780364 174.217501 
L 128.578909 192.569836 
L 128.845091 199.360737 
L 129.377455 200.217381 
L 129.909818 200.611935 
L 130.442182 200.681518 
L 130.974545 200.508145 
L 131.773091 200.030811 
L 133.636364 198.72075 
L 134.434909 198.36986 
L 135.233455 198.236007 
L 136.032 198.319025 
L 136.564364 198.493327 
L 136.830545 198.879091 
L 140.557091 211.873099 
L 141.888 215.719264 
L 142.686545 217.592023 
L 143.485091 219.021108 
L 143.751273 219.164752 
L 144.283636 219.107628 
L 144.816 219.318043 
L 145.614545 220.048932 
L 146.945455 221.604462 
L 147.477818 221.952612 
L 147.744 221.98252 
L 148.010182 221.895119 
L 148.276364 221.611537 
L 148.542545 221.134417 
L 149.074909 219.457803 
L 149.607273 216.567355 
L 150.139636 213.924818 
L 150.405818 213.118962 
L 150.672 211.840702 
L 151.736727 204.005802 
L 152.801455 194.763697 
L 154.132364 181.121054 
L 155.463273 165.559808 
L 156.528 150.210906 
L 158.657455 119.547738 
L 159.722182 106.641274 
L 160.786909 96.628759 
L 161.585455 91.649861 
L 162.117818 89.520056 
L 162.650182 88.196583 
L 163.182545 87.574343 
L 163.448727 87.473745 
L 163.981091 87.633254 
L 164.513455 95.349452 
L 166.376727 124.123649 
L 167.175273 133.732557 
L 167.973818 140.466406 
L 169.038545 147.505575 
L 170.369455 154.425922 
L 170.901818 156.910761 
L 171.434182 158.547891 
L 171.966545 159.407202 
L 172.232727 159.569808 
L 172.498909 159.573405 
L 172.765091 159.432024 
L 173.297455 158.760926 
L 174.096 157.044662 
L 175.426909 153.767973 
L 175.959273 152.960878 
L 176.225455 152.80025 
L 176.491636 152.852086 
L 176.757818 153.163885 
L 177.024 152.856993 
L 177.556364 149.756297 
L 177.822545 149.038628 
L 178.088727 149.021072 
L 178.354909 149.756964 
L 178.621091 151.292376 
L 178.887273 153.645983 
L 179.153455 154.11024 
L 179.952 139.946455 
L 180.484364 133.942424 
L 181.016727 130.301124 
L 181.282909 129.259936 
L 181.549091 128.700465 
L 181.815273 128.573259 
L 182.081455 128.8261 
L 182.347636 129.457797 
L 182.88 131.599322 
L 183.678545 136.532198 
L 185.009455 147.166452 
L 186.340364 157.64775 
L 187.138909 162.602184 
L 187.671273 165.001123 
L 188.203636 166.534558 
L 188.469818 166.938355 
L 188.736 167.083047 
L 189.002182 166.953815 
L 189.268364 166.541013 
L 189.534545 165.833469 
L 190.066909 163.456397 
L 190.599273 159.741513 
L 191.131636 154.622877 
L 191.664 148.015282 
L 192.728727 150.766184 
L 193.261091 151.388591 
L 193.527273 151.494596 
L 194.325818 155.305457 
L 197.253818 166.429624 
L 198.584727 170.756863 
L 199.383273 172.681684 
L 199.915636 173.549071 
L 200.448 174.011898 
L 200.980364 174.007872 
L 201.512727 173.47856 
L 202.045091 172.376436 
L 202.577455 170.662649 
L 203.109818 168.313568 
L 203.908364 163.59237 
L 204.706909 157.483596 
L 205.505455 151.158619 
L 205.771636 155.586884 
L 206.836364 180.149282 
L 207.102545 182.137706 
L 207.634909 183.960286 
L 208.167273 185.163579 
L 208.699636 185.836463 
L 209.232 186.045902 
L 209.764364 185.866121 
L 210.030545 185.648179 
L 210.562909 184.65542 
L 211.361455 182.395669 
L 212.16 179.414676 
L 213.224727 174.301519 
L 214.289455 167.873062 
L 215.354182 160.122918 
L 216.685091 148.570036 
L 218.016 134.931705 
L 219.346909 119.177624 
L 219.613091 115.772848 
L 220.145455 126.914952 
L 221.210182 149.262264 
L 222.008727 162.286549 
L 223.339636 179.18487 
L 224.138182 185.777958 
L 224.670545 188.564211 
L 225.202909 190.1218 
L 225.469091 190.436982 
L 225.735273 190.467616 
L 226.001455 190.197624 
L 226.267636 189.629363 
L 227.066182 187.2784 
L 227.598545 186.064506 
L 228.397091 183.33795 
L 229.195636 179.626639 
L 230.260364 173.262975 
L 231.325091 165.34339 
L 233.720727 144.510956 
L 235.317818 127.092636 
L 235.584 127.749441 
L 236.914909 142.726157 
L 237.979636 151.849322 
L 239.310545 161.010172 
L 245.432727 198.777755 
L 245.698909 197.742689 
L 250.756364 130.358058 
L 251.821091 120.196254 
L 252.885818 112.267044 
L 253.418182 108.91658 
L 254.482909 114.78945 
L 255.547636 119.369673 
L 256.612364 122.894629 
L 257.677091 125.615158 
L 258.741818 127.789342 
L 260.072727 129.917885 
L 261.669818 135.098289 
L 263.533091 141.13941 
L 264.864 145.938623 
L 265.928727 148.983482 
L 266.993455 151.377109 
L 268.058182 153.148353 
L 268.856727 154.086871 
L 269.389091 154.514919 
L 269.921455 154.771833 
L 270.453818 154.822358 
L 270.986182 154.670949 
L 271.518545 154.257909 
L 272.050909 153.56611 
L 272.583273 152.550459 
L 273.115636 151.150948 
L 273.914182 148.219766 
L 274.712727 144.098773 
L 275.511273 138.560499 
L 276.309818 131.313441 
L 276.842182 125.994539 
L 277.374545 122.828691 
L 277.640727 124.059522 
L 281.367273 151.32918 
L 283.496727 165.569789 
L 283.762909 164.709882 
L 285.36 145.883262 
L 286.424727 135.876441 
L 287.489455 127.621068 
L 288.554182 121.001752 
L 289.618909 115.862178 
L 290.683636 111.891332 
L 292.280727 106.531314 
L 292.813091 104.133042 
L 294.942545 92.456884 
L 299.467636 75.211842 
L 300.532364 69.790579 
L 301.064727 66.651626 
L 301.597091 69.265935 
L 301.863273 72.072936 
L 302.928 100.34574 
L 303.992727 123.088488 
L 304.791273 136.152269 
L 305.589818 145.563411 
L 306.122182 149.757965 
L 306.654545 152.274535 
L 307.186909 153.743723 
L 307.453091 153.955043 
L 307.719273 153.843725 
L 307.985455 153.402123 
L 308.517818 151.486521 
L 309.050182 148.298186 
L 309.582545 143.896005 
L 310.114909 139.50178 
L 310.647273 137.580484 
L 311.179636 134.588248 
L 311.712 130.362679 
L 312.510545 121.645884 
L 313.309091 109.784372 
L 314.107636 94.581162 
L 315.172364 68.808587 
L 315.704727 55.13743 
L 315.970909 55.168017 
L 317.834182 75.514612 
L 319.963636 103.983133 
L 321.294545 118.771397 
L 321.826909 122.91845 
L 322.359273 125.653701 
L 322.625455 126.402267 
L 322.891636 126.719021 
L 323.157818 126.58755 
L 323.424 125.941202 
L 323.690182 124.769258 
L 324.222545 120.781952 
L 324.754909 114.34942 
L 325.287273 105.304962 
L 326.085818 86.37074 
L 326.352 78.54058 
L 326.618182 74.307174 
L 326.884364 73.142305 
L 327.150545 72.630144 
L 327.416727 72.677215 
L 327.682909 73.309675 
L 327.949091 74.446649 
L 328.481455 78.195146 
L 329.013818 83.676343 
L 329.812364 94.635761 
L 330.877091 113.251895 
L 331.143273 118.469555 
L 331.409455 119.433538 
L 331.941818 115.85022 
L 332.474182 113.986786 
L 332.740364 113.58923 
L 333.006545 113.492777 
L 333.272727 113.657598 
L 333.805091 114.635659 
L 334.337455 116.254994 
L 335.668364 121.544167 
L 336.999273 126.505604 
L 337.531636 127.382115 
L 337.797818 131.029537 
L 338.596364 145.51241 
L 339.394909 155.762948 
L 340.193455 162.594942 
L 340.725818 165.652664 
L 341.258182 167.808148 
L 342.056727 169.946552 
L 343.387636 172.843908 
L 343.92 173.407762 
L 344.452364 174.373222 
L 344.984727 175.932694 
L 345.517091 178.231988 
L 346.049455 181.423801 
L 346.848 187.99402 
L 347.646545 196.843238 
L 348.445091 208.022504 
L 350.308364 236.435628 
L 350.840727 243.100633 
L 351.373091 246.380669 
L 351.905455 248.406397 
L 352.437818 249.348858 
L 352.704 249.480138 
L 352.970182 249.359101 
L 353.236364 249.045789 
L 353.768727 247.896737 
L 354.301091 246.081245 
L 355.099636 242.401426 
L 356.164364 236.131345 
L 357.761455 225.078225 
L 360.157091 207.584094 
L 363.085091 176.903132 
L 364.149818 166.501065 
L 364.948364 160.578837 
L 365.480727 157.872862 
L 366.013091 156.381091 
L 366.279273 156.158266 
L 366.545455 156.303767 
L 366.811636 156.839893 
L 367.077818 157.797396 
L 367.610182 161.133091 
L 368.142545 166.368665 
L 369.207273 181.355672 
L 369.739636 188.000738 
L 370.272 192.287361 
L 370.804364 194.356326 
L 371.070545 194.679821 
L 371.336727 194.546207 
L 371.602909 193.986831 
L 372.135273 191.80107 
L 372.667636 188.340956 
L 373.466182 181.392357 
L 374.797091 167.127807 
L 376.660364 145.571106 
L 377.725091 123.878622 
L 378.257455 115.865227 
L 378.789818 110.435055 
L 379.056 108.821414 
L 379.322182 108.002885 
L 379.588364 108.022823 
L 379.854545 108.924846 
L 380.386909 113.078713 
L 380.653091 113.568363 
L 380.919273 113.395776 
L 381.185455 112.882138 
L 381.717818 110.914748 
L 382.250182 107.872534 
L 383.048727 101.687436 
L 384.113455 91.157233 
L 385.178182 79.969415 
L 386.775273 68.038273 
L 387.307636 64.833239 
L 387.573818 64.962542 
L 388.904727 76.51316 
L 390.501818 88.062397 
L 391.566545 94.345639 
L 392.365091 98.0883 
L 392.897455 105.983611 
L 393.163636 110.147173 
L 393.962182 126.29457 
L 394.760727 138.126782 
L 395.559273 146.438397 
L 396.357818 152.027578 
L 396.890182 154.367559 
L 397.156364 154.585525 
L 397.422545 154.518254 
L 397.688727 154.228156 
L 398.221091 153.035463 
L 398.753455 151.191516 
L 399.552 147.548239 
L 403.012364 129.919886 
L 403.810909 127.472112 
L 404.343273 126.510845 
L 404.609455 126.274727 
L 404.875636 126.191733 
L 405.141818 126.288734 
L 405.408 126.599699 
L 405.940364 127.791486 
L 406.472727 129.896088 
L 407.005091 132.968579 
L 407.537455 137.116681 
L 408.336 145.605861 
L 409.134545 157.122582 
L 409.933091 171.228814 
L 410.465455 186.592604 
L 410.731636 184.969648 
L 411.796364 152.102996 
L 412.861091 125.61411 
L 413.393455 116.997509 
L 414.192 107.754022 
L 414.990545 100.849325 
L 415.789091 95.976599 
L 416.321455 93.721351 
L 416.853818 92.173861 
L 417.386182 91.265573 
L 417.652364 91.034814 
L 417.918545 90.957609 
L 418.184727 91.028192 
L 418.717091 91.567867 
L 419.249455 92.624778 
L 419.781818 94.220005 
L 420.580364 97.647436 
L 421.378909 102.393456 
L 422.177455 108.706785 
L 422.976 116.935859 
L 423.774545 127.547578 
L 424.573091 141.243915 
L 425.371636 158.815406 
L 426.170182 181.463035 
L 426.436364 190.373021 
L 426.436364 190.373021 
" clip-path="url(#p0981d856f9)" style="fill: none; stroke: #0000ff; stroke-width: 3; stroke-linecap: square"/>
   </g>
   <g id="patch_3">
    <path d="M 7.2 331.2 
L 7.2 7.2 
" style="fill: none; stroke: #000000; stroke-width: 0.8; stroke-linejoin: miter; stroke-linecap: square"/>
   </g>
   <g id="patch_4">
    <path d="M 446.4 331.2 
L 446.4 7.2 
" style="fill: none; stroke: #000000; stroke-width: 0.8; stroke-linejoin: miter; stroke-linecap: square"/>
   </g>
   <g id="patch_5">
    <path d="M 7.2 331.2 
L 446.4 331.2 
" style="fill: none; stroke: #000000; stroke-width: 0.8; stroke-linejoin: miter; stroke-linecap: square"/>
   </g>
   <g id="patch_6">
    <path d="M 7.2 7.2 
L 446.4 7.2 
" style="fill: none; stroke: #000000; stroke-width: 0.8; stroke-linejoin: miter; stroke-linecap: square"/>
   </g>
  </g>
 </g>
 <defs>
  <clipPath id="p0981d856f9">
   <rect x="7.2" y="7.2" width="439.2" height="324"/>
  </clipPath>
 </defs>
</svg>
