<?xml version="1.0" encoding="utf-8" standalone="no"?>
<!DOCTYPE svg PUBLIC "-//W3C//DTD SVG 1.1//EN"
  "http://www.w3.org/Graphics/SVG/1.1/DTD/svg11.dtd">
<svg xmlns:xlink="http://www.w3.org/1999/xlink" width="453.6pt" height="338.4pt" viewBox="0 0 453.6 338.4" xmlns="http://www.w3.org/2000/svg" version="1.1">
 <metadata>
  <rdf:RDF xmlns:dc="http://purl.org/dc/elements/1.1/" xmlns:cc="http://creativecommons.org/ns#" xmlns:rdf="http://www.w3.org/1999/02/22-rdf-syntax-ns#">
   <cc:Work>
    <dc:type rdf:resource="http://purl.org/dc/dcmitype/StillImage"/>
    <dc:date>2025-05-14T08:58:21.062806</dc:date>
    <dc:format>image/svg+xml</dc:format>
    <dc:creator>
     <cc:Agent>
      <dc:title>Matplotlib v3.10.1, https://matplotlib.org/</dc:title>
     </cc:Agent>
    </dc:creator>
   </cc:Work>
  </rdf:RDF>
 </metadata>
 <defs>
  <style type="text/css">*{stroke-linejoin: round; stroke-linecap: butt}</style>
 </defs>
 <g id="figure_1">
  <g id="patch_1">
   <path d="M 0 338.4 
L 453.6 338.4 
L 453.6 0 
L 0 0 
z
" style="fill: #ffffff"/>
  </g>
  <g id="axes_1">
   <g id="patch_2">
    <path d="M 7.2 331.2 
L 446.4 331.2 
L 446.4 7.2 
L 7.2 7.2 
z
" style="fill: #ffffff"/>
   </g>
   <g id="matplotlib.axis_1"/>
   <g id="matplotlib.axis_2"/>
   <g id="line2d_1">
    <path d="M 27.163636 166.911395 
L 28.494545 166.424333 
L 29.825455 166.176798 
L 31.156364 166.15707 
L 32.487273 166.353545 
L 33.818182 166.754503 
L 35.415273 167.489227 
L 37.012364 168.48146 
L 38.875636 169.937675 
L 40.738909 171.685037 
L 42.868364 173.997443 
L 45.264 176.943912 
L 47.925818 180.566503 
L 51.386182 185.675847 
L 57.242182 194.813659 
L 62.299636 202.548252 
L 65.493818 207.051574 
L 68.155636 210.438383 
L 70.551273 213.119588 
L 72.680727 215.153994 
L 74.544 216.625526 
L 76.141091 217.632167 
L 77.738182 218.38243 
L 79.335273 218.856153 
L 80.666182 219.025157 
L 81.997091 218.976467 
L 83.328 218.698436 
L 84.658909 218.179375 
L 85.989818 217.407639 
L 87.320727 216.37156 
L 88.651636 215.059491 
L 89.982545 213.459744 
L 91.579636 211.14389 
L 93.176727 208.376866 
L 94.773818 205.138487 
L 96.370909 201.408614 
L 97.968 197.167107 
L 99.565091 192.393771 
L 99.831273 192.917338 
L 101.694545 205.351855 
L 103.291636 214.570588 
L 104.888727 222.509177 
L 106.485818 229.21354 
L 107.816727 233.890891 
L 109.147636 237.769691 
L 110.478545 240.876554 
L 111.543273 242.824125 
L 112.608 244.308297 
L 113.672727 245.342705 
L 114.471273 245.831534 
L 115.269818 246.080772 
L 116.068364 246.096194 
L 116.866909 245.883493 
L 117.665455 245.448453 
L 118.464 244.79683 
L 119.528727 243.600981 
L 120.593455 242.043895 
L 121.924364 239.610319 
L 123.255273 236.6602 
L 124.852364 232.475698 
L 126.449455 227.631701 
L 128.312727 221.208098 
L 130.442182 212.937954 
L 132.571636 203.781377 
L 135.233455 191.25517 
L 138.161455 176.32728 
L 141.621818 157.509642 
L 146.679273 128.64343 
L 154.930909 81.533878 
L 158.657455 61.68398 
L 158.923636 61.450397 
L 159.988364 64.302067 
L 160.786909 65.910805 
L 161.585455 67.131755 
L 162.384 68.02462 
L 163.182545 68.649333 
L 164.247273 69.168393 
L 165.578182 69.51224 
L 167.707636 70.010166 
L 168.772364 70.536229 
L 169.570909 71.168389 
L 170.369455 72.070625 
L 171.168 73.302682 
L 171.966545 74.924453 
L 172.765091 76.995744 
L 173.563636 79.576343 
L 174.628364 83.912692 
L 175.693091 89.402653 
L 176.757818 96.187821 
L 177.822545 104.410152 
L 178.887273 114.211202 
L 180.218182 128.898782 
L 181.549091 146.551723 
L 182.88 167.44683 
L 184.210909 191.861076 
L 185.541818 220.071571 
L 187.138909 259.32427 
L 188.736 304.920745 
L 189.002182 313.170606 
L 189.268364 316.472727 
L 191.664 305.424399 
L 194.059636 295.344699 
L 196.721455 285.142184 
L 199.383273 275.838134 
L 202.311273 266.454517 
L 205.505455 256.996892 
L 209.498182 245.916559 
L 219.080727 219.668836 
L 222.274909 210.081303 
L 224.936727 201.438656 
L 227.598545 192.035401 
L 229.994182 182.792708 
L 232.389818 172.693138 
L 234.785455 161.622522 
L 237.181091 149.466586 
L 239.842909 134.694932 
L 241.44 134.205384 
L 243.037091 133.932029 
L 244.900364 133.847151 
L 247.029818 134.001526 
L 249.425455 134.412247 
L 253.152 135.323559 
L 257.677091 136.397412 
L 260.072727 136.738805 
L 262.202182 136.805341 
L 264.065455 136.623336 
L 265.662545 136.251733 
L 267.259636 135.650101 
L 268.856727 134.788907 
L 270.453818 133.638808 
L 272.050909 132.170354 
L 273.648 130.354161 
L 275.245091 128.160673 
L 276.842182 125.560632 
L 278.439273 122.524462 
L 280.036364 119.022883 
L 281.633455 115.026361 
L 283.496727 109.699026 
L 285.36 103.611241 
L 287.223273 96.716295 
L 289.086545 88.967496 
L 290.949818 80.318133 
L 293.079273 69.270513 
L 295.208727 56.91588 
L 297.338182 43.184294 
L 299.467636 28.00615 
L 300.266182 21.927273 
L 300.532364 23.019637 
L 302.661818 47.986306 
L 304.791273 70.332899 
L 306.920727 90.23774 
L 309.050182 107.879617 
L 310.913455 121.600308 
L 312.776727 133.844485 
L 314.64 144.731849 
L 316.503273 154.381846 
L 318.366545 162.914175 
L 320.229818 170.448326 
L 322.093091 177.103935 
L 323.956364 183.000534 
L 326.085818 188.963435 
L 328.215273 194.269688 
L 330.877091 200.250846 
L 335.402182 209.690627 
L 338.596364 216.590365 
L 340.992 222.310893 
L 343.121455 228.017532 
L 344.984727 233.637358 
L 346.848 239.967156 
L 348.711273 247.126403 
L 350.574545 255.234821 
L 352.437818 264.411945 
L 354.301091 274.77716 
L 355.099636 279.612889 
L 355.365818 278.597649 
L 357.495273 259.18005 
L 359.624727 241.868755 
L 361.488 228.376294 
L 363.351273 216.363626 
L 365.214545 205.768743 
L 367.077818 196.529721 
L 368.674909 189.642561 
L 370.272 183.666871 
L 371.869091 178.563598 
L 373.2 174.949131 
L 374.530909 171.890779 
L 375.861818 169.365979 
L 377.192727 167.352115 
L 378.257455 166.093677 
L 379.322182 165.136181 
L 380.386909 164.468162 
L 381.451636 164.077909 
L 382.516364 163.953914 
L 383.581091 164.084637 
L 384.645818 164.45843 
L 385.710545 165.063764 
L 387.041455 166.128457 
L 388.372364 167.514254 
L 389.703273 169.198551 
L 391.300364 171.581945 
L 393.163636 174.812654 
L 395.293091 179.022417 
L 397.688727 184.307684 
L 400.616727 191.371665 
L 404.609455 201.66422 
L 411.796364 220.298225 
L 414.724364 227.262044 
L 417.12 232.434486 
L 419.249455 236.52054 
L 421.112727 239.624948 
L 422.709818 241.886696 
L 424.306909 243.738738 
L 425.637818 244.940986 
L 426.436364 245.503342 
L 426.436364 245.503342 
" clip-path="url(#p772b7b60fd)" style="fill: none; stroke-dasharray: 11.1,4.8; stroke-dashoffset: 0; stroke: #000000; stroke-width: 3"/>
   </g>
   <g id="line2d_2">
    <path d="M 27.163636 180.764406 
L 30.624 181.438423 
L 34.350545 181.927241 
L 38.609455 182.245955 
L 44.731636 182.441298 
L 58.040727 182.856726 
L 67.623273 183.064435 
L 83.594182 183.112522 
L 109.68 182.992653 
L 109.946182 182.70581 
L 110.478545 181.893095 
L 112.608 179.886446 
L 114.737455 178.204223 
L 116.866909 176.797365 
L 119.262545 175.496424 
L 121.658182 174.447556 
L 124.053818 173.612542 
L 126.981818 172.840563 
L 129.909818 172.268285 
L 132.837818 171.926659 
L 136.032 171.794667 
L 140.290909 171.896628 
L 146.945455 171.886939 
L 152.801455 171.658836 
L 157.592727 171.26394 
L 160.786909 170.820258 
L 162.384 170.532833 
L 170.369455 169.635685 
L 173.297455 169.191083 
L 174.096 169.522501 
L 174.894545 170.113745 
L 175.959273 171.225637 
L 178.088727 173.97928 
L 181.016727 177.773795 
L 182.347636 179.159772 
L 183.412364 179.984832 
L 184.210909 180.393363 
L 185.009455 180.562917 
L 189.534545 180.749988 
L 195.124364 180.745154 
L 209.498182 180.589235 
L 216.152727 180.693661 
L 222.541091 180.997766 
L 227.066182 181.201106 
L 236.648727 181.465027 
L 239.842909 181.148439 
L 244.900364 180.642685 
L 246.497455 180.616304 
L 254.749091 182.551436 
L 257.677091 182.973041 
L 261.669818 183.08795 
L 272.583273 183.165349 
L 296.539636 183.330259 
L 303.194182 183.446807 
L 304.258909 183.10021 
L 305.589818 182.394015 
L 307.186909 181.225711 
L 309.050182 179.550945 
L 314.906182 173.994185 
L 316.503273 172.81178 
L 317.834182 172.048073 
L 319.165091 171.52969 
L 319.963636 171.445076 
L 342.855273 171.685429 
L 346.315636 171.601048 
L 349.509818 171.725213 
L 352.704 172.082589 
L 355.632 172.644342 
L 358.293818 173.370307 
L 360.955636 174.327803 
L 363.085091 175.32412 
L 364.948364 176.412443 
L 366.811636 177.751232 
L 368.674909 179.400823 
L 370.272 181.113669 
L 371.336727 182.307667 
L 372.135273 182.616014 
L 376.660364 183.982115 
L 379.854545 184.657634 
L 383.048727 185.114845 
L 386.242909 185.350152 
L 389.437091 185.356731 
L 411.530182 184.637441 
L 419.781818 184.953479 
L 426.436364 185.317847 
L 426.436364 185.317847 
" clip-path="url(#p772b7b60fd)" style="fill: none; stroke-dasharray: 3,4.95; stroke-dashoffset: 0; stroke: #ff0000; stroke-width: 3"/>
   </g>
   <g id="line2d_3">
    <path d="M 27.163636 183.580058 
L 31.156364 184.073541 
L 36.213818 184.947396 
L 42.336 186.237421 
L 47.925818 187.408739 
L 51.12 187.885932 
L 54.048 188.111084 
L 56.709818 188.102516 
L 59.105455 187.891348 
L 60.968727 187.568075 
L 62.565818 187.12471 
L 67.357091 186.70155 
L 72.680727 186.465027 
L 77.738182 186.440824 
L 79.335273 186.487907 
L 82.529455 186.203878 
L 85.989818 185.677201 
L 90.248727 184.790938 
L 95.04 183.656304 
L 97.701818 185.246086 
L 103.025455 188.505219 
L 105.154909 189.523284 
L 106.752 190.076077 
L 108.349091 190.396462 
L 109.413818 190.457645 
L 109.68 190.368515 
L 109.946182 189.963538 
L 110.478545 188.797191 
L 112.075636 186.118313 
L 114.471273 181.93802 
L 117.133091 177.794062 
L 120.061091 173.662259 
L 124.053818 168.433024 
L 128.046545 163.284552 
L 130.442182 162.622308 
L 132.571636 162.311062 
L 134.434909 162.267566 
L 136.298182 162.447772 
L 138.161455 162.859402 
L 141.089455 163.835335 
L 142.952727 164.636045 
L 146.679273 166.944938 
L 149.074909 167.981821 
L 151.736727 168.869026 
L 154.664727 169.582943 
L 157.858909 170.121192 
L 159.722182 170.474718 
L 161.319273 170.760175 
L 162.117818 170.976314 
L 166.909091 172.70892 
L 169.038545 173.264337 
L 170.901818 173.512443 
L 172.498909 173.48584 
L 173.031273 173.447685 
L 173.563636 173.687223 
L 174.628364 174.49266 
L 175.426909 175.242236 
L 176.491636 176.604285 
L 179.419636 181.018108 
L 181.549091 184.546798 
L 182.88 186.337477 
L 183.944727 187.389286 
L 184.743273 187.882875 
L 188.469818 189.142107 
L 192.462545 190.605885 
L 195.656727 191.359596 
L 196.189091 191.186699 
L 197.786182 190.268353 
L 199.383273 189.118666 
L 201.512727 187.274018 
L 204.440727 184.389356 
L 211.627636 177.218981 
L 212.426182 176.731856 
L 215.354182 175.687525 
L 218.548364 174.30542 
L 222.541091 172.313918 
L 224.936727 170.943311 
L 226.267636 170.006866 
L 229.195636 167.839865 
L 234.785455 166.348743 
L 236.116364 165.929475 
L 239.044364 164.75292 
L 243.037091 163.119726 
L 244.900364 162.749413 
L 245.965091 162.729209 
L 246.763636 162.873344 
L 251.022545 164.905433 
L 255.015273 167.051532 
L 261.403636 170.771483 
L 265.396364 174.080173 
L 268.856727 176.663755 
L 271.784727 178.582374 
L 274.446545 180.069402 
L 276.842182 181.158096 
L 277.906909 181.344163 
L 280.834909 181.915129 
L 284.029091 182.773975 
L 287.755636 184.013532 
L 292.014545 185.675266 
L 293.611636 186.439618 
L 296.273455 187.982022 
L 298.935273 189.263076 
L 301.863273 190.425901 
L 303.194182 190.793146 
L 303.992727 190.689091 
L 305.057455 190.290566 
L 306.122182 189.6367 
L 307.453091 188.529146 
L 309.050182 186.890387 
L 311.712 183.767552 
L 314.64 180.421194 
L 316.237091 178.88538 
L 317.568 177.862036 
L 318.898909 177.132284 
L 319.697455 176.91404 
L 323.424 176.920513 
L 326.618182 176.721595 
L 330.344727 176.121063 
L 344.718545 173.581665 
L 348.178909 172.944618 
L 351.106909 172.617939 
L 353.768727 172.528217 
L 356.430545 172.668312 
L 358.826182 173.013767 
L 359.358545 173.120752 
L 360.423273 174.462376 
L 362.818909 177.811992 
L 365.480727 181.950343 
L 368.142545 186.558726 
L 370.272 190.650598 
L 371.336727 192.68493 
L 372.135273 193.344243 
L 373.732364 194.338402 
L 375.063273 194.939875 
L 376.128 195.21706 
L 376.926545 195.221767 
L 379.056 194.77066 
L 381.185455 194.101096 
L 383.314909 193.201684 
L 385.444364 192.063453 
L 387.573818 190.677011 
L 389.703273 189.03418 
L 392.631273 186.488584 
L 393.696 185.359968 
L 403.810909 181.196156 
L 408.069818 179.697206 
L 409.933091 179.198635 
L 410.731636 179.139885 
L 414.192 179.312772 
L 417.12 179.667059 
L 420.048 180.249651 
L 422.709818 181.007667 
L 425.371636 182.010817 
L 426.436364 182.486656 
L 426.436364 182.486656 
" clip-path="url(#p772b7b60fd)" style="fill: none; stroke: #ff0000; stroke-width: 3; stroke-linecap: square"/>
   </g>
   <g id="patch_3">
    <path d="M 7.2 331.2 
L 7.2 7.2 
" style="fill: none; stroke: #000000; stroke-width: 0.8; stroke-linejoin: miter; stroke-linecap: square"/>
   </g>
   <g id="patch_4">
    <path d="M 446.4 331.2 
L 446.4 7.2 
" style="fill: none; stroke: #000000; stroke-width: 0.8; stroke-linejoin: miter; stroke-linecap: square"/>
   </g>
   <g id="patch_5">
    <path d="M 7.2 331.2 
L 446.4 331.2 
" style="fill: none; stroke: #000000; stroke-width: 0.8; stroke-linejoin: miter; stroke-linecap: square"/>
   </g>
   <g id="patch_6">
    <path d="M 7.2 7.2 
L 446.4 7.2 
" style="fill: none; stroke: #000000; stroke-width: 0.8; stroke-linejoin: miter; stroke-linecap: square"/>
   </g>
  </g>
 </g>
 <defs>
  <clipPath id="p772b7b60fd">
   <rect x="7.2" y="7.2" width="439.2" height="324"/>
  </clipPath>
 </defs>
</svg>
