<?xml version="1.0" encoding="utf-8" standalone="no"?>
<!DOCTYPE svg PUBLIC "-//W3C//DTD SVG 1.1//EN"
  "http://www.w3.org/Graphics/SVG/1.1/DTD/svg11.dtd">
<svg xmlns:xlink="http://www.w3.org/1999/xlink" width="453.6pt" height="338.4pt" viewBox="0 0 453.6 338.4" xmlns="http://www.w3.org/2000/svg" version="1.1">
 <metadata>
  <rdf:RDF xmlns:dc="http://purl.org/dc/elements/1.1/" xmlns:cc="http://creativecommons.org/ns#" xmlns:rdf="http://www.w3.org/1999/02/22-rdf-syntax-ns#">
   <cc:Work>
    <dc:type rdf:resource="http://purl.org/dc/dcmitype/StillImage"/>
    <dc:date>2025-05-14T00:23:40.919559</dc:date>
    <dc:format>image/svg+xml</dc:format>
    <dc:creator>
     <cc:Agent>
      <dc:title>Matplotlib v3.10.1, https://matplotlib.org/</dc:title>
     </cc:Agent>
    </dc:creator>
   </cc:Work>
  </rdf:RDF>
 </metadata>
 <defs>
  <style type="text/css">*{stroke-linejoin: round; stroke-linecap: butt}</style>
 </defs>
 <g id="figure_1">
  <g id="patch_1">
   <path d="M 0 338.4 
L 453.6 338.4 
L 453.6 0 
L 0 0 
z
" style="fill: #ffffff"/>
  </g>
  <g id="axes_1">
   <g id="patch_2">
    <path d="M 7.2 331.2 
L 446.4 331.2 
L 446.4 7.2 
L 7.2 7.2 
z
" style="fill: #ffffff"/>
   </g>
   <g id="matplotlib.axis_1"/>
   <g id="matplotlib.axis_2"/>
   <g id="line2d_1">
    <path d="M 27.163636 291.069628 
L 29.026909 288.474727 
L 30.890182 286.229276 
L 33.019636 284.001754 
L 35.681455 281.573437 
L 44.465455 273.922692 
L 46.594909 271.586776 
L 48.458182 269.218569 
L 50.321455 266.474871 
L 52.184727 263.286196 
L 54.048 259.583023 
L 55.911273 255.295831 
L 57.774545 250.355084 
L 59.637818 244.691312 
L 61.501091 238.23498 
L 63.364364 230.916566 
L 65.227636 222.666574 
L 67.090909 213.415482 
L 68.954182 203.093781 
L 70.817455 191.631961 
L 71.882182 184.543693 
L 72.148364 184.174516 
L 76.407273 195.044865 
L 80.133818 203.961816 
L 83.594182 211.651254 
L 86.522182 217.651201 
L 89.450182 223.134329 
L 92.112 227.628814 
L 94.507636 231.242832 
L 96.637091 234.089752 
L 98.766545 236.572725 
L 100.629818 238.431825 
L 102.493091 239.984918 
L 104.090182 241.062928 
L 105.687273 241.898662 
L 107.284364 242.484129 
L 108.881455 242.811268 
L 110.212364 242.880777 
L 111.543273 242.760643 
L 112.874182 242.446198 
L 114.205091 241.932823 
L 115.536 241.215876 
L 117.133091 240.080213 
L 118.730182 238.636633 
L 120.327273 236.87706 
L 121.924364 234.793518 
L 123.521455 232.377883 
L 125.384727 229.12926 
L 127.248 225.404943 
L 129.111273 221.19219 
L 131.240727 215.763144 
L 133.370182 209.660337 
L 135.499636 202.864759 
L 137.629091 195.357326 
L 140.024727 186.036887 
L 142.420364 175.7642 
L 144.816 164.512069 
L 147.211636 152.253582 
L 149.873455 137.419523 
L 152.535273 121.27199 
L 155.197091 103.774014 
L 157.858909 84.8882 
L 160.786909 62.466389 
L 163.714909 38.270714 
L 165.578182 21.927273 
L 165.844364 22.543657 
L 168.24 51.064505 
L 170.635636 76.947124 
L 173.031273 100.32394 
L 175.160727 119.107331 
L 177.290182 136.108995 
L 179.419636 151.422342 
L 181.549091 165.140435 
L 183.678545 177.356609 
L 185.808 188.164039 
L 187.671273 196.538284 
L 189.534545 203.96777 
L 191.397818 210.514917 
L 193.261091 216.242307 
L 195.124364 221.212273 
L 196.987636 225.487358 
L 198.584727 228.646003 
L 200.181818 231.379279 
L 201.778909 233.726554 
L 203.376 235.727131 
L 204.973091 237.420378 
L 206.836364 239.059842 
L 208.699636 240.39698 
L 210.829091 241.635028 
L 213.490909 242.883973 
L 221.476364 246.388178 
L 223.605818 247.703973 
L 225.469091 249.130417 
L 227.066182 250.607147 
L 228.663273 252.359918 
L 230.260364 254.428033 
L 231.857455 256.85092 
L 233.454545 259.667748 
L 235.051636 262.917993 
L 236.648727 266.640924 
L 238.245818 270.875869 
L 240.109091 276.516201 
L 241.972364 282.969501 
L 242.238545 283.00702 
L 244.368 276.483924 
L 246.497455 270.690695 
L 248.626909 265.560068 
L 250.756364 261.024869 
L 252.885818 257.01796 
L 255.015273 253.472203 
L 257.144727 250.320461 
L 259.540364 247.161966 
L 262.202182 244.021358 
L 265.662545 240.309772 
L 273.115636 232.460647 
L 275.777455 229.281708 
L 278.173091 226.075921 
L 280.302545 222.871832 
L 282.432 219.264155 
L 284.561455 215.185752 
L 286.690909 210.569461 
L 288.820364 205.348044 
L 290.949818 199.454351 
L 292.813091 193.693236 
L 293.079273 191.821654 
L 296.007273 163.342506 
L 298.402909 142.24378 
L 300.532364 125.553753 
L 302.395636 112.808465 
L 303.992727 103.43694 
L 305.323636 96.826536 
L 306.654545 91.390264 
L 307.719273 87.939716 
L 308.784 85.331466 
L 309.582545 83.952365 
L 310.381091 83.086801 
L 310.913455 82.803472 
L 311.445818 82.76101 
L 311.978182 82.964508 
L 312.510545 83.418858 
L 313.042909 84.129252 
L 313.841455 85.685939 
L 314.64 87.846978 
L 315.438545 90.629394 
L 316.503273 95.335352 
L 317.568 101.216763 
L 318.632727 108.314043 
L 319.963636 118.956655 
L 321.294545 131.640834 
L 322.625455 146.445412 
L 324.222545 167.120942 
L 325.819636 191.099664 
L 327.416727 218.517414 
L 329.013818 249.511226 
L 330.877091 290.371858 
L 331.409455 303.004726 
L 331.675636 304.47936 
L 333.272727 308.036312 
L 334.603636 310.492819 
L 335.934545 312.504505 
L 337.265455 314.087028 
L 338.330182 315.054584 
L 339.394909 315.765509 
L 340.459636 316.227835 
L 341.524364 316.449562 
L 342.589091 316.43874 
L 343.653818 316.203346 
L 344.718545 315.75143 
L 345.783273 315.090993 
L 347.114182 313.984431 
L 348.445091 312.580255 
L 350.042182 310.524434 
L 351.639273 308.08962 
L 353.502545 304.806149 
L 355.365818 301.086657 
L 357.495273 296.357059 
L 359.890909 290.502508 
L 362.818909 282.707989 
L 366.279273 272.80519 
L 371.070545 258.346898 
L 379.322182 233.380356 
L 382.782545 223.625936 
L 385.710545 216.005609 
L 388.106182 210.326659 
L 390.235636 205.778192 
L 392.365091 201.766703 
L 394.228364 198.747489 
L 395.825455 196.558454 
L 397.422545 194.766129 
L 398.753455 193.595132 
L 400.084364 192.734098 
L 401.149091 192.27895 
L 402.213818 192.040192 
L 403.278545 192.025913 
L 404.343273 192.244051 
L 405.408 192.702683 
L 406.472727 193.409757 
L 407.537455 194.373325 
L 408.602182 195.601475 
L 409.933091 197.520799 
L 411.264 199.881628 
L 412.594909 202.699616 
L 413.925818 205.990414 
L 415.522909 210.585537 
L 417.12 215.911124 
L 418.717091 221.994186 
L 420.580364 230.084665 
L 422.443636 239.286056 
L 424.306909 249.641307 
L 426.170182 261.193218 
L 426.436364 262.943718 
L 426.436364 262.943718 
" clip-path="url(#p27b1b5a4d0)" style="fill: none; stroke-dasharray: 11.1,4.8; stroke-dashoffset: 0; stroke: #000000; stroke-width: 3"/>
   </g>
   <g id="line2d_2">
    <path d="M 27.163636 218.250848 
L 32.487273 218.301585 
L 35.149091 218.06732 
L 37.810909 217.596433 
L 42.602182 216.653109 
L 47.393455 216.565926 
L 53.249455 216.577896 
L 56.976 216.851976 
L 60.968727 217.309184 
L 62.299636 217.904862 
L 63.364364 218.37364 
L 66.026182 218.104453 
L 76.407273 216.756243 
L 81.464727 216.547753 
L 83.860364 216.589916 
L 85.989818 216.838509 
L 88.119273 217.320667 
L 90.514909 218.115249 
L 93.975273 219.34285 
L 96.637091 219.715422 
L 97.968 219.282839 
L 100.363636 218.627463 
L 103.025455 218.16344 
L 107.550545 217.431515 
L 108.881455 216.987687 
L 109.946182 216.711398 
L 111.277091 216.670059 
L 115.269818 216.746945 
L 118.197818 217.068592 
L 123.521455 217.73288 
L 126.715636 217.835827 
L 129.111273 217.758954 
L 130.708364 217.463867 
L 132.305455 217.144105 
L 135.499636 217.111316 
L 140.290909 217.308248 
L 150.139636 217.788997 
L 152.002909 217.604021 
L 154.132364 217.244293 
L 155.995636 217.162852 
L 157.858909 217.290912 
L 160.254545 217.698781 
L 162.916364 218.560862 
L 164.247273 218.932036 
L 166.376727 218.513233 
L 169.570909 218.151795 
L 175.426909 217.762062 
L 179.685818 217.440377 
L 183.146182 216.951354 
L 185.275636 216.624439 
L 188.203636 217.244506 
L 191.397818 217.699405 
L 194.858182 217.965072 
L 203.376 218.590543 
L 205.239273 218.665369 
L 206.570182 217.868441 
L 207.901091 217.36263 
L 209.498182 217.040346 
L 211.361455 216.912936 
L 214.289455 216.952327 
L 220.944 217.204565 
L 222.541091 216.942492 
L 223.872 216.844388 
L 225.202909 216.945587 
L 227.066182 217.351946 
L 229.994182 218.036678 
L 232.922182 218.700917 
L 234.519273 218.866059 
L 237.713455 218.818429 
L 242.238545 218.539856 
L 247.296 218.342212 
L 251.554909 218.285721 
L 253.684364 218.467339 
L 255.015273 218.560201 
L 257.144727 218.490367 
L 259.540364 218.193982 
L 269.122909 216.495905 
L 270.986182 216.185267 
L 273.115636 216.085078 
L 275.777455 216.219591 
L 278.173091 216.32099 
L 285.36 216.559012 
L 288.021818 217.442099 
L 289.885091 217.801478 
L 292.014545 217.988937 
L 294.144 217.979738 
L 295.474909 217.669437 
L 297.072 217.031297 
L 300.532364 215.298098 
L 303.460364 216.704208 
L 305.323636 217.255726 
L 307.453091 217.622394 
L 311.179636 217.930998 
L 312.776727 217.889135 
L 314.107636 217.626089 
L 315.438545 217.108445 
L 316.503273 216.484822 
L 317.568 215.837084 
L 320.229818 216.674153 
L 322.359273 217.129639 
L 324.488727 217.368871 
L 326.884364 217.395044 
L 333.006545 217.139387 
L 343.387636 216.551922 
L 344.718545 216.331911 
L 346.049455 216.316547 
L 347.912727 216.540863 
L 351.905455 217.141271 
L 353.502545 217.091271 
L 354.567273 217.016532 
L 358.027636 217.614493 
L 367.344 218.89383 
L 368.408727 218.533303 
L 370.538182 217.936764 
L 372.667636 217.580169 
L 375.063273 217.42651 
L 376.926545 217.489055 
L 378.523636 217.779086 
L 380.653091 218.427523 
L 382.250182 218.956175 
L 385.178182 218.647446 
L 391.832727 217.888361 
L 393.696 217.672183 
L 399.552 216.346515 
L 400.882909 216.306699 
L 402.213818 216.624202 
L 403.544727 216.717064 
L 405.940364 216.599639 
L 407.537455 216.593223 
L 408.602182 216.757254 
L 409.666909 217.144304 
L 411.530182 217.793627 
L 412.062545 217.852115 
L 414.990545 217.530156 
L 418.450909 217.383861 
L 426.170182 217.206999 
L 426.436364 217.158533 
L 426.436364 217.158533 
" clip-path="url(#p27b1b5a4d0)" style="fill: none; stroke-dasharray: 3,4.95; stroke-dashoffset: 0; stroke: #ffa500; stroke-width: 3"/>
   </g>
   <g id="line2d_3">
    <path d="M 27.163636 245.414538 
L 28.228364 242.661154 
L 31.954909 233.754013 
L 33.285818 229.523087 
L 34.616727 224.443584 
L 36.213818 217.270779 
L 38.077091 207.751922 
L 38.875636 203.696722 
L 39.141818 204.389568 
L 39.940364 208.911037 
L 40.738909 212.18189 
L 41.803636 215.285067 
L 42.602182 217.234133 
L 43.400727 218.645886 
L 43.666909 219.031313 
L 43.933091 219.782173 
L 45.796364 227.241614 
L 47.925818 235.490782 
L 48.192 234.109073 
L 49.256727 222.38488 
L 50.055273 215.441073 
L 50.853818 210.210632 
L 51.386182 207.738842 
L 51.918545 206.111485 
L 52.450909 205.358903 
L 52.717091 205.324042 
L 52.983273 205.511426 
L 53.515636 206.603416 
L 54.048 208.673029 
L 54.580364 211.73745 
L 55.378909 218.248127 
L 56.177455 227.173765 
L 56.976 238.568247 
L 58.040727 257.807961 
L 58.573091 269.218058 
L 58.839273 268.25721 
L 59.637818 260.112012 
L 60.170182 256.592592 
L 60.436364 255.341738 
L 60.702545 255.324913 
L 61.234909 252.267855 
L 61.767273 250.197144 
L 62.299636 248.918045 
L 62.832 248.260759 
L 63.098182 248.122938 
L 64.429091 245.317906 
L 66.558545 241.734917 
L 68.155636 238.818613 
L 69.486545 235.883362 
L 70.551273 233.085506 
L 71.616 229.79014 
L 72.946909 224.790581 
L 74.011636 219.95207 
L 75.076364 214.165405 
L 76.141091 207.226465 
L 76.939636 201.079524 
L 78.004364 189.883609 
L 79.069091 176.141714 
L 79.335273 176.870956 
L 80.133818 184.512052 
L 80.932364 190.48313 
L 81.997091 196.564133 
L 83.061818 201.122422 
L 84.126545 204.668029 
L 85.457455 208.209293 
L 87.586909 213.039129 
L 89.450182 217.463018 
L 90.514909 220.47729 
L 91.579636 224.142918 
L 92.644364 228.803494 
L 93.442909 233.270119 
L 94.241455 237.799552 
L 95.04 242.843096 
L 95.838545 249.032537 
L 96.104727 251.384792 
L 96.370909 251.278063 
L 97.968 231.55689 
L 98.766545 224.137177 
L 99.565091 218.391589 
L 100.363636 214.186112 
L 101.162182 211.344085 
L 101.694545 210.106212 
L 102.226909 209.320017 
L 102.759273 208.913372 
L 103.291636 208.818974 
L 103.824 208.941654 
L 105.953455 209.7355 
L 106.219636 209.822321 
L 108.349091 220.432232 
L 109.147636 222.475134 
L 110.212364 224.613794 
L 110.478545 224.837049 
L 111.277091 224.751314 
L 112.075636 224.500949 
L 112.608 223.521953 
L 113.140364 221.900151 
L 116.866909 209.188063 
L 118.464 204.06842 
L 118.730182 204.267999 
L 119.794909 207.980707 
L 120.859636 210.850556 
L 121.658182 212.459053 
L 122.456727 213.586566 
L 122.989091 214.082054 
L 123.521455 214.362725 
L 124.053818 214.447374 
L 124.586182 214.353226 
L 125.384727 213.924077 
L 126.715636 212.773873 
L 128.312727 211.270694 
L 129.643636 209.491013 
L 130.974545 207.681652 
L 131.240727 207.441072 
L 131.506909 208.126204 
L 133.636364 217.121002 
L 134.701091 220.243487 
L 135.499636 221.940179 
L 136.298182 223.125031 
L 137.096727 223.863895 
L 137.895273 224.241372 
L 138.693818 224.350385 
L 139.758545 224.278492 
L 140.024727 224.189973 
L 140.290909 223.913734 
L 140.823273 222.756291 
L 141.355636 220.799012 
L 142.154182 224.663994 
L 142.420364 225.189239 
L 142.686545 225.251409 
L 142.952727 224.860103 
L 143.218909 224.032557 
L 144.017455 220.590734 
L 145.880727 213.291292 
L 148.542545 201.866791 
L 151.204364 189.463221 
L 153.866182 177.029819 
L 154.664727 174.282452 
L 155.463273 172.373288 
L 155.995636 171.714667 
L 156.261818 171.819211 
L 156.528 173.120029 
L 157.858909 182.001969 
L 158.923636 187.898496 
L 159.988364 192.532635 
L 160.254545 193.485395 
L 161.319273 194.292945 
L 162.117818 195.113014 
L 162.916364 196.203818 
L 163.714909 197.65943 
L 163.981091 198.244648 
L 165.312 199.51878 
L 165.844364 200.574761 
L 166.376727 202.043704 
L 166.909091 203.703338 
L 167.175273 203.871712 
L 167.707636 203.698145 
L 168.506182 203.138502 
L 169.304727 202.260481 
L 170.369455 200.740839 
L 173.563636 195.749318 
L 174.362182 195.004512 
L 174.894545 194.781082 
L 175.426909 194.851452 
L 175.959273 195.299911 
L 176.491636 196.214028 
L 177.290182 197.92023 
L 177.556364 198.435477 
L 179.153455 193.732253 
L 179.952 192.133304 
L 180.484364 191.38011 
L 181.016727 190.902632 
L 181.549091 190.721651 
L 182.081455 190.836705 
L 182.613818 191.296771 
L 183.146182 192.096933 
L 183.678545 193.305337 
L 183.944727 194.061314 
L 184.210909 193.840205 
L 185.275636 188.758942 
L 187.405091 182.000684 
L 189.534545 175.985371 
L 190.865455 172.494109 
L 191.131636 172.053788 
L 191.664 171.98846 
L 192.196364 172.233496 
L 192.994909 172.989523 
L 193.527273 173.662198 
L 197.253818 189.216737 
L 198.052364 191.373121 
L 198.584727 192.389598 
L 199.117091 193.03102 
L 199.649455 193.262176 
L 200.181818 193.197447 
L 200.448 194.183158 
L 201.246545 198.349467 
L 202.045091 201.495106 
L 202.577455 202.947311 
L 203.109818 203.830798 
L 203.376 204.043982 
L 203.642182 204.100547 
L 203.908364 203.986592 
L 204.174545 203.704236 
L 204.706909 202.602149 
L 204.973091 201.769885 
L 205.239273 200.443943 
L 206.037818 194.063436 
L 206.570182 189.401625 
L 207.102545 190.354359 
L 207.634909 190.917735 
L 208.167273 191.074402 
L 208.699636 190.801969 
L 209.232 190.07943 
L 209.764364 188.887751 
L 210.562909 192.826062 
L 212.958545 200.45635 
L 214.555636 204.792956 
L 215.886545 207.75649 
L 216.951273 209.666091 
L 218.016 211.176784 
L 219.080727 212.31996 
L 220.411636 213.35305 
L 222.807273 214.909662 
L 223.339636 215.776537 
L 223.872 217.017505 
L 224.670545 219.701842 
L 225.469091 223.565676 
L 226.267636 228.858387 
L 226.8 233.320582 
L 227.598545 235.113555 
L 228.397091 237.468868 
L 229.195636 240.396868 
L 230.260364 245.265958 
L 230.526545 246.669872 
L 230.792727 247.040934 
L 231.058909 246.439864 
L 231.325091 245.265621 
L 231.591273 245.048606 
L 234.253091 252.180185 
L 235.051636 253.37647 
L 235.584 253.791379 
L 236.382545 254.033706 
L 236.914909 253.828723 
L 237.447273 253.227417 
L 237.979636 252.210802 
L 238.512 250.742509 
L 239.310545 247.628286 
L 240.109091 243.354249 
L 240.907636 237.854495 
L 241.972364 228.565697 
L 243.037091 217.069565 
L 243.569455 210.147737 
L 244.634182 191.624921 
L 245.166545 181.689396 
L 245.965091 178.816914 
L 246.497455 177.465772 
L 248.094545 188.318497 
L 249.957818 200.086512 
L 251.554909 208.715403 
L 252.885818 214.891639 
L 254.216727 220.18073 
L 255.281455 223.317545 
L 256.08 225.115074 
L 256.878545 226.468588 
L 257.677091 227.380633 
L 258.475636 227.858448 
L 259.008 227.942423 
L 259.540364 227.821765 
L 260.072727 227.515432 
L 260.338909 227.196169 
L 260.605091 226.658556 
L 260.871273 225.069878 
L 261.669818 219.069469 
L 262.202182 216.349123 
L 262.734545 214.523424 
L 263.266909 213.475318 
L 263.533091 213.192838 
L 263.799273 213.083126 
L 264.065455 213.104744 
L 264.597818 213.535354 
L 265.130182 214.393704 
L 265.928727 216.329078 
L 266.993455 219.74539 
L 270.453818 231.666764 
L 271.784727 235.708334 
L 272.317091 237.112573 
L 272.583273 237.505888 
L 272.849455 237.690364 
L 273.115636 237.705979 
L 273.381818 237.572814 
L 273.914182 236.913444 
L 274.446545 235.803031 
L 275.245091 233.474928 
L 276.309818 229.511092 
L 276.842182 227.007849 
L 279.237818 210.767529 
L 279.770182 209.532976 
L 280.302545 209.006645 
L 280.568727 209.015345 
L 280.834909 209.20716 
L 281.367273 210.210419 
L 281.899636 212.029354 
L 282.432 214.671054 
L 283.230545 220.193312 
L 284.029091 227.445836 
L 285.093818 239.58938 
L 285.892364 250.728592 
L 286.158545 252.182919 
L 287.223273 249.873013 
L 288.554182 247.598842 
L 292.546909 241.462884 
L 293.345455 240.452111 
L 294.144 237.502905 
L 294.410182 236.340882 
L 294.676364 236.597064 
L 295.208727 238.113823 
L 295.741091 239.118954 
L 296.273455 239.592189 
L 296.539636 239.618387 
L 296.805818 239.505143 
L 297.072 239.253916 
L 297.604364 238.287789 
L 298.136727 236.722403 
L 298.669091 234.532793 
L 299.467636 230.050778 
L 300.266182 224.086377 
L 300.798545 220.193199 
L 301.597091 214.554615 
L 302.395636 207.116679 
L 303.194182 197.875409 
L 304.525091 209.334945 
L 305.323636 214.346449 
L 306.122182 218.223089 
L 306.920727 221.222545 
L 307.985455 224.266834 
L 309.050182 226.521559 
L 309.316364 226.734018 
L 309.582545 226.580122 
L 310.114909 225.725529 
L 310.913455 224.182472 
L 311.712 222.199418 
L 313.042909 218.119555 
L 317.301818 204.043982 
L 317.568 204.036118 
L 318.100364 205.325852 
L 318.632727 207.065592 
L 319.431273 210.655146 
L 320.229818 215.58431 
L 321.028364 222.047681 
L 321.826909 230.233918 
L 322.625455 239.824331 
L 322.891636 241.280879 
L 323.424 242.621762 
L 323.690182 243.004169 
L 324.222545 243.233616 
L 325.021091 243.42221 
L 325.819636 243.340744 
L 326.618182 243.128547 
L 328.481455 238.892104 
L 329.28 237.70322 
L 329.812364 237.345327 
L 330.078545 237.332409 
L 330.344727 237.432123 
L 330.877091 238.047109 
L 331.409455 239.271677 
L 331.941818 241.186357 
L 332.474182 243.865627 
L 333.272727 249.479573 
L 334.071273 257.245334 
L 334.337455 256.598108 
L 335.136 242.301788 
L 335.934545 231.943216 
L 336.733091 224.941282 
L 337.265455 221.854568 
L 337.797818 219.853854 
L 338.330182 218.799645 
L 338.596364 218.574841 
L 338.862545 218.526888 
L 339.128727 218.624243 
L 339.661091 219.244022 
L 340.193455 220.271171 
L 341.258182 222.991891 
L 342.589091 226.27837 
L 343.121455 227.157427 
L 343.387636 227.315292 
L 344.186182 227.163418 
L 344.718545 226.807646 
L 345.250909 226.104604 
L 345.783273 224.952266 
L 346.315636 223.225032 
L 347.114182 220.115178 
L 347.646545 219.54827 
L 348.178909 219.421458 
L 348.711273 219.666707 
L 349.243636 220.244972 
L 350.042182 221.574709 
L 351.639273 225.011203 
L 352.437818 226.563959 
L 352.970182 227.327861 
L 353.502545 227.764562 
L 353.768727 227.829441 
L 354.833455 227.607907 
L 355.099636 227.403748 
L 355.632 226.507343 
L 356.164364 224.872659 
L 356.430545 223.36259 
L 356.962909 218.008183 
L 358.027636 204.339592 
L 358.56 198.061396 
L 359.358545 207.38679 
L 359.890909 211.783644 
L 360.423273 212.789213 
L 360.955636 213.191752 
L 361.488 213.190766 
L 362.020364 212.923663 
L 363.351273 211.752753 
L 365.214545 210.072399 
L 367.077818 208.453417 
L 367.344 208.169577 
L 367.876364 206.779579 
L 368.408727 207.182893 
L 369.207273 208.14379 
L 370.005818 209.491163 
L 370.804364 211.244508 
L 371.602909 213.436863 
L 372.667636 216.381014 
L 373.998545 218.797573 
L 375.329455 220.711979 
L 376.660364 222.424347 
L 377.725091 224.331101 
L 378.523636 225.38868 
L 379.322182 226.041048 
L 379.854545 226.205104 
L 380.120727 226.199962 
L 380.386909 225.585125 
L 382.782545 216.283696 
L 384.379636 207.511679 
L 385.710545 198.792559 
L 386.509091 192.784548 
L 387.573818 199.100502 
L 388.372364 202.649004 
L 389.170909 205.310737 
L 389.969455 207.21487 
L 390.768 208.50579 
L 391.300364 209.233696 
L 392.365091 210.940859 
L 393.163636 211.991198 
L 396.624 209.923558 
L 400.616727 207.296149 
L 400.882909 207.32422 
L 401.681455 207.783188 
L 402.48 207.956343 
L 403.012364 207.936498 
L 404.609455 207.065617 
L 405.141818 207.034476 
L 405.674182 207.192678 
L 406.206545 207.565799 
L 406.738909 208.174956 
L 407.271273 209.057432 
L 408.069818 210.954277 
L 408.868364 213.624759 
L 409.666909 217.168381 
L 410.731636 223.986301 
L 411.796364 230.45122 
L 412.594909 233.425738 
L 413.659636 236.905855 
L 415.256727 242.530747 
L 417.386182 249.123302 
L 420.580364 258.253873 
L 421.911273 261.524951 
L 422.709818 263.089102 
L 423.508364 264.174327 
L 424.040727 264.548933 
L 424.573091 264.573022 
L 425.105455 264.176661 
L 425.637818 263.280754 
L 426.170182 261.813796 
L 426.436364 260.840555 
L 426.436364 260.840555 
" clip-path="url(#p27b1b5a4d0)" style="fill: none; stroke: #ffa500; stroke-width: 3; stroke-linecap: square"/>
   </g>
   <g id="patch_3">
    <path d="M 7.2 331.2 
L 7.2 7.2 
" style="fill: none; stroke: #000000; stroke-width: 0.8; stroke-linejoin: miter; stroke-linecap: square"/>
   </g>
   <g id="patch_4">
    <path d="M 446.4 331.2 
L 446.4 7.2 
" style="fill: none; stroke: #000000; stroke-width: 0.8; stroke-linejoin: miter; stroke-linecap: square"/>
   </g>
   <g id="patch_5">
    <path d="M 7.2 331.2 
L 446.4 331.2 
" style="fill: none; stroke: #000000; stroke-width: 0.8; stroke-linejoin: miter; stroke-linecap: square"/>
   </g>
   <g id="patch_6">
    <path d="M 7.2 7.2 
L 446.4 7.2 
" style="fill: none; stroke: #000000; stroke-width: 0.8; stroke-linejoin: miter; stroke-linecap: square"/>
   </g>
  </g>
 </g>
 <defs>
  <clipPath id="p27b1b5a4d0">
   <rect x="7.2" y="7.2" width="439.2" height="324"/>
  </clipPath>
 </defs>
</svg>
