<?xml version="1.0" encoding="utf-8" standalone="no"?>
<!DOCTYPE svg PUBLIC "-//W3C//DTD SVG 1.1//EN"
  "http://www.w3.org/Graphics/SVG/1.1/DTD/svg11.dtd">
<svg xmlns:xlink="http://www.w3.org/1999/xlink" width="453.6pt" height="338.4pt" viewBox="0 0 453.6 338.4" xmlns="http://www.w3.org/2000/svg" version="1.1">
 <metadata>
  <rdf:RDF xmlns:dc="http://purl.org/dc/elements/1.1/" xmlns:cc="http://creativecommons.org/ns#" xmlns:rdf="http://www.w3.org/1999/02/22-rdf-syntax-ns#">
   <cc:Work>
    <dc:type rdf:resource="http://purl.org/dc/dcmitype/StillImage"/>
    <dc:date>2025-05-14T00:12:02.779807</dc:date>
    <dc:format>image/svg+xml</dc:format>
    <dc:creator>
     <cc:Agent>
      <dc:title>Matplotlib v3.10.1, https://matplotlib.org/</dc:title>
     </cc:Agent>
    </dc:creator>
   </cc:Work>
  </rdf:RDF>
 </metadata>
 <defs>
  <style type="text/css">*{stroke-linejoin: round; stroke-linecap: butt}</style>
 </defs>
 <g id="figure_1">
  <g id="patch_1">
   <path d="M 0 338.4 
L 453.6 338.4 
L 453.6 0 
L 0 0 
z
" style="fill: #ffffff"/>
  </g>
  <g id="axes_1">
   <g id="patch_2">
    <path d="M 7.2 331.2 
L 446.4 331.2 
L 446.4 7.2 
L 7.2 7.2 
z
" style="fill: #ffffff"/>
   </g>
   <g id="matplotlib.axis_1"/>
   <g id="matplotlib.axis_2"/>
   <g id="line2d_1">
    <path d="M 27.163636 168.351683 
L 29.026909 169.48298 
L 30.890182 170.882682 
L 32.753455 172.550771 
L 34.882909 174.785798 
L 37.012364 177.371348 
L 39.141818 180.30746 
L 41.537455 184.029613 
L 43.933091 188.195401 
L 46.328727 192.80487 
L 48.990545 198.446849 
L 51.652364 204.636546 
L 54.314182 211.37397 
L 57.242182 219.417792 
L 60.170182 228.124343 
L 63.364364 238.378276 
L 66.558545 249.420941 
L 68.155636 255.238052 
L 68.421818 255.048955 
L 71.083636 247.574859 
L 73.745455 240.785916 
L 76.141091 235.261676 
L 78.536727 230.292407 
L 80.666182 226.341187 
L 82.795636 222.828463 
L 84.925091 219.754244 
L 86.788364 217.424011 
L 88.651636 215.429497 
L 90.514909 213.770712 
L 92.112 212.616095 
L 93.709091 211.708141 
L 95.306182 211.046859 
L 96.903273 210.632202 
L 98.500364 210.464207 
L 100.097455 210.542894 
L 101.694545 210.868206 
L 103.291636 211.44019 
L 104.888727 212.258837 
L 106.485818 213.324118 
L 108.082909 214.636062 
L 109.946182 216.478415 
L 111.809455 218.656488 
L 113.672727 221.17029 
L 115.802182 224.454291 
L 117.931636 228.176807 
L 120.061091 232.337817 
L 122.456727 237.543072 
L 124.852364 243.303317 
L 127.248 249.618553 
L 129.909818 257.286361 
L 132.571636 265.639313 
L 135.499636 275.618946 
L 138.427636 286.427597 
L 141.355636 298.065234 
L 144.549818 311.70644 
L 145.614545 316.472725 
L 145.880727 315.71125 
L 149.607273 279.267236 
L 153.067636 247.465348 
L 156.528 217.62691 
L 159.988364 189.751883 
L 163.182545 165.763804 
L 166.376727 143.448638 
L 169.304727 124.462747 
L 172.232727 106.882699 
L 175.160727 90.708364 
L 177.822545 77.224258 
L 180.484364 64.902003 
L 182.88 54.805332 
L 185.275636 45.649637 
L 187.405091 38.301316 
L 189.534545 31.696507 
L 191.664 25.835267 
L 193.261091 21.927273 
L 193.527273 22.613906 
L 197.52 44.967345 
L 201.512727 68.594501 
L 205.771636 95.200865 
L 210.030545 123.256594 
L 214.289455 152.761632 
L 218.814545 185.698741 
L 223.339636 220.272067 
L 228.130909 258.662424 
L 232.922182 298.886971 
L 233.454545 303.46968 
L 233.720727 303.001432 
L 237.979636 286.854822 
L 242.238545 269.848424 
L 246.763636 250.837043 
L 251.288727 230.855143 
L 256.08 208.639766 
L 260.871273 185.336214 
L 265.396364 162.902512 
L 267.792 158.751231 
L 270.187636 155.022798 
L 272.583273 151.717156 
L 274.712727 149.13386 
L 276.842182 146.884623 
L 278.971636 144.969463 
L 280.834909 143.567795 
L 282.698182 142.421879 
L 284.561455 141.531771 
L 286.424727 140.897435 
L 288.288 140.518945 
L 290.151273 140.396207 
L 292.014545 140.529278 
L 293.877818 140.918139 
L 295.741091 141.562771 
L 297.604364 142.463249 
L 299.467636 143.619461 
L 301.330909 145.0315 
L 303.194182 146.699292 
L 305.323636 148.918605 
L 307.453091 151.472015 
L 309.582545 154.359484 
L 311.978182 158.007292 
L 314.373818 162.077892 
L 316.769455 166.571338 
L 319.431273 172.059969 
L 322.093091 178.070652 
L 324.754909 184.60335 
L 327.682909 192.392263 
L 330.610909 200.812831 
L 333.805091 210.719311 
L 336.999273 221.377521 
L 338.064 225.097263 
L 338.330182 224.546743 
L 341.258182 215.718281 
L 344.186182 207.587665 
L 346.848 200.801941 
L 349.509818 194.59309 
L 352.171636 188.961073 
L 354.567273 184.385498 
L 356.962909 180.277119 
L 359.358545 176.63598 
L 361.488 173.791699 
L 363.617455 171.316587 
L 365.746909 169.210679 
L 367.610182 167.670838 
L 369.473455 166.41365 
L 371.336727 165.439132 
L 372.933818 164.828783 
L 374.530909 164.426102 
L 376.128 164.231105 
L 377.725091 164.243758 
L 379.322182 164.464095 
L 380.919273 164.892063 
L 382.516364 165.527716 
L 384.379636 166.531786 
L 386.242909 167.818509 
L 388.106182 169.387866 
L 389.969455 171.239903 
L 392.098909 173.702633 
L 394.228364 176.534512 
L 396.357818 179.735587 
L 398.753455 183.778118 
L 401.149091 188.287863 
L 403.544727 193.26483 
L 406.206545 199.342828 
L 408.868364 205.997679 
L 411.530182 213.22944 
L 414.458182 221.85057 
L 417.386182 231.16963 
L 420.580364 242.132013 
L 423.774545 253.925041 
L 426.436364 264.387091 
L 426.436364 264.387091 
" clip-path="url(#p21ccfb9b57)" style="fill: none; stroke-dasharray: 11.1,4.8; stroke-dashoffset: 0; stroke: #000000; stroke-width: 3"/>
   </g>
   <g id="line2d_2">
    <path d="M 27.163636 168.351702 
L 29.026909 169.482999 
L 30.890182 170.882701 
L 32.753455 172.55079 
L 34.882909 174.785816 
L 37.012364 177.371367 
L 39.141818 180.307478 
L 41.537455 184.029632 
L 43.933091 188.19542 
L 46.328727 192.804889 
L 48.990545 198.446867 
L 51.652364 204.636564 
L 54.314182 211.37398 
L 57.242182 219.417801 
L 60.170182 228.124352 
L 63.364364 238.378285 
L 66.558545 249.42095 
L 68.155636 255.238061 
L 68.421818 255.048964 
L 71.083636 247.574868 
L 73.745455 240.785925 
L 76.141091 235.261685 
L 78.536727 230.292416 
L 80.666182 226.341197 
L 82.795636 222.828473 
L 84.925091 219.754253 
L 86.788364 217.42402 
L 88.651636 215.429506 
L 90.514909 213.770721 
L 92.112 212.616104 
L 93.709091 211.70815 
L 95.306182 211.046868 
L 96.903273 210.632211 
L 98.500364 210.464217 
L 100.097455 210.542903 
L 101.694545 210.868216 
L 103.291636 211.4402 
L 104.888727 212.258846 
L 106.485818 213.324127 
L 108.082909 214.636071 
L 109.946182 216.478425 
L 111.809455 218.656498 
L 113.672727 221.1703 
L 115.802182 224.454301 
L 117.931636 228.176816 
L 120.061091 232.337827 
L 122.456727 237.543081 
L 124.852364 243.303327 
L 127.248 249.618562 
L 129.909818 257.28637 
L 132.571636 265.639322 
L 135.499636 275.618951 
L 138.427636 286.427601 
L 141.355636 298.065236 
L 144.549818 311.706443 
L 145.614545 316.472726 
L 145.880727 315.711251 
L 149.607273 279.267241 
L 153.067636 247.465358 
L 156.528 217.626919 
L 159.988364 189.751902 
L 163.182545 165.763823 
L 166.376727 143.448656 
L 169.304727 124.462766 
L 172.232727 106.882718 
L 175.160727 90.708402 
L 177.822545 77.224295 
L 180.484364 64.90204 
L 182.88 54.805369 
L 185.275636 45.649674 
L 187.405091 38.301353 
L 189.534545 31.696545 
L 191.664 25.835304 
L 193.261091 21.92731 
L 193.527273 22.613943 
L 197.52 44.967382 
L 201.512727 68.594539 
L 205.771636 95.200884 
L 210.030545 123.256613 
L 214.289455 152.761651 
L 218.814545 185.698759 
L 223.339636 220.272076 
L 228.130909 258.662433 
L 232.922182 298.886974 
L 233.454545 303.469682 
L 233.720727 303.001434 
L 237.979636 286.854827 
L 242.238545 269.848428 
L 246.763636 250.837052 
L 251.288727 230.855152 
L 256.08 208.639784 
L 260.871273 185.336233 
L 265.396364 162.90253 
L 267.792 158.75125 
L 270.187636 155.022816 
L 272.583273 151.717175 
L 274.712727 149.133879 
L 276.842182 146.884641 
L 278.971636 144.969482 
L 280.834909 143.567813 
L 282.698182 142.421897 
L 284.561455 141.53179 
L 286.424727 140.897454 
L 288.288 140.518964 
L 290.151273 140.396226 
L 292.014545 140.529297 
L 293.877818 140.918158 
L 295.741091 141.56279 
L 297.604364 142.463268 
L 299.467636 143.61948 
L 301.330909 145.031519 
L 303.194182 146.699311 
L 305.323636 148.918624 
L 307.453091 151.472034 
L 309.582545 154.359503 
L 311.978182 158.007311 
L 314.373818 162.07791 
L 316.769455 166.571357 
L 319.431273 172.059988 
L 322.093091 178.070671 
L 324.754909 184.603369 
L 327.682909 192.392282 
L 330.610909 200.81285 
L 333.805091 210.71932 
L 336.999273 221.377531 
L 338.064 225.097272 
L 338.330182 224.546753 
L 341.258182 215.71829 
L 344.186182 207.587684 
L 346.848 200.80196 
L 349.509818 194.593108 
L 352.171636 188.961092 
L 354.567273 184.385517 
L 356.962909 180.277137 
L 359.358545 176.635999 
L 361.488 173.791718 
L 363.617455 171.316605 
L 365.746909 169.210698 
L 367.610182 167.670857 
L 369.473455 166.413668 
L 371.336727 165.439151 
L 372.933818 164.828802 
L 374.530909 164.42612 
L 376.128 164.231124 
L 377.725091 164.243776 
L 379.322182 164.464114 
L 380.919273 164.892082 
L 382.516364 165.527735 
L 384.379636 166.531805 
L 386.242909 167.818528 
L 388.106182 169.387885 
L 389.969455 171.239922 
L 392.098909 173.702651 
L 394.228364 176.534531 
L 396.357818 179.735606 
L 398.753455 183.778137 
L 401.149091 188.287881 
L 403.544727 193.264848 
L 406.206545 199.342846 
L 408.868364 205.997697 
L 411.530182 213.229449 
L 414.458182 221.850579 
L 417.386182 231.16964 
L 420.580364 242.132023 
L 423.774545 253.925051 
L 426.436364 264.387101 
L 426.436364 264.387101 
" clip-path="url(#p21ccfb9b57)" style="fill: none; stroke-dasharray: 3,4.95; stroke-dashoffset: 0; stroke: #0000ff; stroke-width: 3"/>
   </g>
   <g id="line2d_3">
    <path d="M 27.163636 168.351702 
L 29.026909 169.482999 
L 30.890182 170.882701 
L 32.753455 172.55078 
L 34.882909 174.785807 
L 37.012364 177.371358 
L 39.141818 180.307469 
L 41.537455 184.029622 
L 43.933091 188.19541 
L 46.328727 192.804879 
L 48.990545 198.446858 
L 51.652364 204.636555 
L 54.314182 211.37398 
L 57.242182 219.417801 
L 60.170182 228.124352 
L 63.364364 238.378285 
L 66.558545 249.420946 
L 68.155636 255.238056 
L 68.421818 255.04896 
L 71.083636 247.574868 
L 73.745455 240.785925 
L 76.141091 235.261685 
L 78.536727 230.292416 
L 80.666182 226.341197 
L 82.795636 222.828473 
L 84.925091 219.754253 
L 86.788364 217.42402 
L 88.651636 215.429506 
L 90.514909 213.770721 
L 92.112 212.616104 
L 93.709091 211.70815 
L 95.306182 211.046868 
L 96.903273 210.632211 
L 98.500364 210.464217 
L 100.097455 210.542903 
L 101.694545 210.868216 
L 103.291636 211.4402 
L 104.888727 212.258846 
L 106.485818 213.324127 
L 108.082909 214.636071 
L 109.946182 216.478425 
L 111.809455 218.656498 
L 113.672727 221.1703 
L 115.802182 224.454301 
L 117.931636 228.176816 
L 120.061091 232.337827 
L 122.456727 237.543081 
L 124.852364 243.303327 
L 127.248 249.618558 
L 129.909818 257.286365 
L 132.571636 265.639318 
L 135.499636 275.618951 
L 138.427636 286.427601 
L 141.355636 298.065236 
L 144.549818 311.706443 
L 145.614545 316.472727 
L 145.880727 315.711252 
L 149.607273 279.267241 
L 153.067636 247.465358 
L 156.528 217.626919 
L 159.988364 189.751893 
L 163.182545 165.763823 
L 166.376727 143.448656 
L 169.304727 124.462766 
L 172.232727 106.882718 
L 175.160727 90.708383 
L 177.822545 77.224276 
L 180.484364 64.902021 
L 182.88 54.80535 
L 185.275636 45.649655 
L 187.405091 38.301334 
L 189.534545 31.696526 
L 191.664 25.835286 
L 193.261091 21.927291 
L 193.527273 22.613924 
L 197.52 44.967363 
L 201.512727 68.59452 
L 205.771636 95.200884 
L 210.030545 123.256613 
L 214.289455 152.761651 
L 218.814545 185.69875 
L 223.339636 220.272076 
L 228.130909 258.662428 
L 232.922182 298.886974 
L 233.454545 303.469682 
L 233.720727 303.001434 
L 237.979636 286.854827 
L 242.238545 269.848428 
L 246.763636 250.837048 
L 251.288727 230.855152 
L 256.08 208.639775 
L 260.871273 185.336223 
L 265.396364 162.90253 
L 267.792 158.75125 
L 270.187636 155.022816 
L 272.583273 151.717175 
L 274.712727 149.133879 
L 276.842182 146.884641 
L 278.971636 144.969482 
L 280.834909 143.567813 
L 282.698182 142.421897 
L 284.561455 141.53179 
L 286.424727 140.897454 
L 288.288 140.518964 
L 290.151273 140.396226 
L 292.014545 140.529297 
L 293.877818 140.918158 
L 295.741091 141.56279 
L 297.604364 142.463268 
L 299.467636 143.61948 
L 301.330909 145.031519 
L 303.194182 146.699311 
L 305.323636 148.918624 
L 307.453091 151.472034 
L 309.582545 154.359503 
L 311.978182 158.007311 
L 314.373818 162.07791 
L 316.769455 166.571357 
L 319.431273 172.059978 
L 322.093091 178.070661 
L 324.754909 184.60336 
L 327.682909 192.392272 
L 330.610909 200.81284 
L 333.805091 210.71932 
L 336.999273 221.377531 
L 338.064 225.097272 
L 338.330182 224.546753 
L 341.258182 215.71829 
L 344.186182 207.587675 
L 346.848 200.801951 
L 349.509818 194.593099 
L 352.171636 188.961083 
L 354.567273 184.385508 
L 356.962909 180.277128 
L 359.358545 176.635989 
L 361.488 173.791709 
L 363.617455 171.316596 
L 365.746909 169.210698 
L 367.610182 167.670857 
L 369.473455 166.413668 
L 371.336727 165.439151 
L 372.933818 164.828802 
L 374.530909 164.42612 
L 376.128 164.231124 
L 377.725091 164.243776 
L 379.322182 164.464114 
L 380.919273 164.892082 
L 382.516364 165.527735 
L 384.379636 166.531805 
L 386.242909 167.818528 
L 388.106182 169.387885 
L 389.969455 171.239913 
L 392.098909 173.702642 
L 394.228364 176.534521 
L 396.357818 179.735596 
L 398.753455 183.778127 
L 401.149091 188.287872 
L 403.544727 193.264839 
L 406.206545 199.342837 
L 408.868364 205.997688 
L 411.530182 213.229449 
L 414.458182 221.850579 
L 417.386182 231.16964 
L 420.580364 242.132023 
L 423.774545 253.925046 
L 426.436364 264.387096 
L 426.436364 264.387096 
" clip-path="url(#p21ccfb9b57)" style="fill: none; stroke: #0000ff; stroke-width: 3; stroke-linecap: square"/>
   </g>
   <g id="patch_3">
    <path d="M 7.2 331.2 
L 7.2 7.2 
" style="fill: none; stroke: #000000; stroke-width: 0.8; stroke-linejoin: miter; stroke-linecap: square"/>
   </g>
   <g id="patch_4">
    <path d="M 446.4 331.2 
L 446.4 7.2 
" style="fill: none; stroke: #000000; stroke-width: 0.8; stroke-linejoin: miter; stroke-linecap: square"/>
   </g>
   <g id="patch_5">
    <path d="M 7.2 331.2 
L 446.4 331.2 
" style="fill: none; stroke: #000000; stroke-width: 0.8; stroke-linejoin: miter; stroke-linecap: square"/>
   </g>
   <g id="patch_6">
    <path d="M 7.2 7.2 
L 446.4 7.2 
" style="fill: none; stroke: #000000; stroke-width: 0.8; stroke-linejoin: miter; stroke-linecap: square"/>
   </g>
  </g>
 </g>
 <defs>
  <clipPath id="p21ccfb9b57">
   <rect x="7.2" y="7.2" width="439.2" height="324"/>
  </clipPath>
 </defs>
</svg>
