<?xml version="1.0" encoding="utf-8" standalone="no"?>
<!DOCTYPE svg PUBLIC "-//W3C//DTD SVG 1.1//EN"
  "http://www.w3.org/Graphics/SVG/1.1/DTD/svg11.dtd">
<svg xmlns:xlink="http://www.w3.org/1999/xlink" width="453.6pt" height="338.4pt" viewBox="0 0 453.6 338.4" xmlns="http://www.w3.org/2000/svg" version="1.1">
 <metadata>
  <rdf:RDF xmlns:dc="http://purl.org/dc/elements/1.1/" xmlns:cc="http://creativecommons.org/ns#" xmlns:rdf="http://www.w3.org/1999/02/22-rdf-syntax-ns#">
   <cc:Work>
    <dc:type rdf:resource="http://purl.org/dc/dcmitype/StillImage"/>
    <dc:date>2025-05-14T08:56:55.143798</dc:date>
    <dc:format>image/svg+xml</dc:format>
    <dc:creator>
     <cc:Agent>
      <dc:title>Matplotlib v3.10.1, https://matplotlib.org/</dc:title>
     </cc:Agent>
    </dc:creator>
   </cc:Work>
  </rdf:RDF>
 </metadata>
 <defs>
  <style type="text/css">*{stroke-linejoin: round; stroke-linecap: butt}</style>
 </defs>
 <g id="figure_1">
  <g id="patch_1">
   <path d="M 0 338.4 
L 453.6 338.4 
L 453.6 0 
L 0 0 
z
" style="fill: #ffffff"/>
  </g>
  <g id="axes_1">
   <g id="patch_2">
    <path d="M 7.2 331.2 
L 446.4 331.2 
L 446.4 7.2 
L 7.2 7.2 
z
" style="fill: #ffffff"/>
   </g>
   <g id="matplotlib.axis_1"/>
   <g id="matplotlib.axis_2"/>
   <g id="line2d_1">
    <path d="M 27.163636 282.212529 
L 117.399273 82.083671 
L 117.665455 81.830499 
L 198.850909 66.933866 
L 202.843636 71.491846 
L 279.770182 159.528198 
L 280.834909 159.675433 
L 336.466909 165.557302 
L 336.999273 167.11066 
L 374.530909 289.175632 
L 374.797091 289.624206 
L 426.436364 316.472727 
L 426.436364 316.472727 
" clip-path="url(#p73366b0a8c)" style="fill: none; stroke-dasharray: 11.1,4.8; stroke-dashoffset: 0; stroke: #000000; stroke-width: 3"/>
   </g>
   <g id="line2d_2">
    <path d="M 27.163636 184.346312 
L 31.156364 185.140879 
L 35.149091 185.720574 
L 39.141818 186.08571 
L 43.134545 186.235424 
L 46.062545 186.156417 
L 50.587636 185.591401 
L 54.846545 184.832104 
L 58.573091 183.953814 
L 62.033455 182.924471 
L 63.098182 182.560574 
L 63.630545 181.778889 
L 64.695273 179.754434 
L 66.026182 176.695039 
L 67.357091 173.076242 
L 68.954182 168.038649 
L 70.551273 162.294186 
L 72.414545 154.774214 
L 74.544 145.215599 
L 76.939636 133.408799 
L 79.601455 119.60399 
L 79.867636 119.395146 
L 81.464727 124.10452 
L 83.594182 131.127447 
L 87.054545 143.494115 
L 90.781091 156.656706 
L 92.910545 163.436658 
L 94.773818 168.611624 
L 96.104727 171.73755 
L 96.370909 172.147654 
L 98.500364 173.628276 
L 100.629818 174.823791 
L 102.759273 175.75193 
L 104.888727 176.430208 
L 107.018182 176.876006 
L 109.147636 177.106556 
L 111.543273 177.129776 
L 113.140364 176.980046 
L 116.600727 176.261117 
L 120.061091 175.762741 
L 123.521455 175.479365 
L 126.981818 175.405464 
L 130.708364 175.5444 
L 134.434909 175.885044 
L 137.895273 176.433235 
L 141.089455 177.180573 
L 144.017455 178.102292 
L 149.607273 180.002116 
L 152.269091 180.533524 
L 154.664727 180.790255 
L 157.060364 180.825151 
L 159.456 180.627118 
L 161.585455 180.241249 
L 163.182545 179.814196 
L 163.714909 179.37555 
L 167.973818 174.84222 
L 171.434182 170.836357 
L 174.362182 167.126794 
L 177.024 163.432317 
L 179.419636 159.665304 
L 179.952 158.631628 
L 180.484364 156.292709 
L 181.815273 149.032096 
L 183.412364 138.898794 
L 185.009455 127.365058 
L 186.872727 112.351977 
L 189.268364 91.019944 
L 192.196364 62.655221 
L 196.189091 22.649146 
L 197.253818 22.151353 
L 198.318545 21.932529 
L 199.117091 21.981596 
L 199.915636 22.23698 
L 200.714182 22.720269 
L 201.512727 23.45312 
L 202.311273 24.460482 
L 203.109818 25.762415 
L 204.174545 27.995331 
L 205.239273 30.846564 
L 206.304 34.3718 
L 207.368727 38.628256 
L 208.433455 43.676145 
L 209.764364 51.19946 
L 211.095273 60.124789 
L 214.023273 80.986507 
L 217.217455 101.595851 
L 220.145455 119.000977 
L 222.807273 133.472437 
L 225.202909 145.319822 
L 227.598545 156.053343 
L 228.397091 159.013638 
L 230.260364 162.527464 
L 232.123636 165.607351 
L 233.986909 168.268667 
L 235.850182 170.526134 
L 237.447273 172.150831 
L 239.044364 173.49927 
L 240.641455 174.583311 
L 242.238545 175.414113 
L 243.835636 175.999413 
L 244.634182 176.327649 
L 248.360727 178.2058 
L 251.554909 179.583064 
L 254.749091 180.714957 
L 257.677091 181.51133 
L 260.338909 182.014063 
L 261.669818 182.115591 
L 268.058182 182.203945 
L 277.374545 182.082657 
L 280.302545 181.864033 
L 283.762909 181.41085 
L 287.223273 180.739092 
L 290.683636 179.835703 
L 293.877818 178.78235 
L 295.208727 178.168176 
L 297.870545 176.710541 
L 300.532364 174.988374 
L 303.194182 172.984295 
L 305.856 170.681703 
L 308.517818 168.065428 
L 310.647273 165.692794 
L 315.970909 157.73406 
L 318.632727 154.289661 
L 321.028364 151.533569 
L 323.424 149.125241 
L 325.553455 147.294278 
L 326.884364 146.35255 
L 328.215273 146.276354 
L 329.546182 146.43169 
L 330.877091 146.808577 
L 332.208 147.398467 
L 333.805091 148.371399 
L 335.402182 149.616913 
L 337.265455 151.391723 
L 339.128727 153.488232 
L 341.258182 156.240681 
L 343.387636 159.379349 
L 352.704 173.899577 
L 355.632 177.966484 
L 358.027636 180.940002 
L 358.826182 181.746205 
L 364.149818 183.872961 
L 368.408727 185.366157 
L 372.135273 186.441482 
L 375.063273 187.065728 
L 382.782545 187.431371 
L 392.365091 187.653164 
L 426.436364 187.690846 
L 426.436364 187.690846 
" clip-path="url(#p73366b0a8c)" style="fill: none; stroke-dasharray: 3,4.95; stroke-dashoffset: 0; stroke: #ffa500; stroke-width: 3"/>
   </g>
   <g id="line2d_3">
    <path d="M 27.163636 197.84968 
L 28.760727 204.626505 
L 30.357818 210.369006 
L 31.688727 214.40421 
L 33.019636 217.792806 
L 34.350545 220.574612 
L 35.681455 222.784957 
L 36.746182 224.165764 
L 37.810909 225.21925 
L 38.875636 225.966738 
L 39.940364 226.427838 
L 41.005091 226.62133 
L 42.069818 226.566192 
L 43.134545 226.281218 
L 44.199273 225.780764 
L 44.465455 225.457085 
L 45.530182 223.144463 
L 47.393455 218.59628 
L 49.522909 212.753017 
L 51.652364 206.260217 
L 54.048 198.222609 
L 56.709818 188.47175 
L 59.637818 176.860371 
L 62.299636 165.476166 
L 67.090909 143.836373 
L 73.213091 116.648369 
L 75.076364 109.374084 
L 76.673455 103.956958 
L 78.004364 100.105033 
L 79.069091 97.54275 
L 79.335273 97.553062 
L 82.263273 104.477988 
L 84.658909 110.950262 
L 87.853091 120.268746 
L 92.378182 134.248966 
L 97.701818 150.6863 
L 99.565091 155.463653 
L 101.428364 159.609101 
L 103.291636 163.159552 
L 104.888727 165.757963 
L 106.485818 167.971319 
L 108.082909 169.824204 
L 109.68 171.341501 
L 111.277091 172.549574 
L 112.874182 173.480874 
L 113.406545 173.456656 
L 116.600727 172.890568 
L 118.996364 172.697276 
L 121.125818 172.762028 
L 122.989091 173.042427 
L 124.852364 173.562209 
L 126.715636 174.347621 
L 130.176 176.177419 
L 132.571636 178.240795 
L 134.967273 180.583008 
L 137.362909 183.218327 
L 139.758545 186.15976 
L 142.420364 189.798367 
L 144.816 193.434628 
L 146.413091 195.79833 
L 147.744 197.167643 
L 148.808727 197.973413 
L 149.873455 198.500098 
L 150.938182 198.743539 
L 152.002909 198.699977 
L 153.067636 198.365903 
L 154.132364 197.73794 
L 155.197091 196.813127 
L 156.261818 195.588787 
L 157.326545 194.062574 
L 158.657455 191.727049 
L 159.988364 188.91324 
L 161.585455 184.955912 
L 162.384 182.934318 
L 166.642909 174.05967 
L 167.707636 171.540898 
L 170.901818 163.307619 
L 175.693091 150.230854 
L 179.153455 140.492004 
L 180.484364 134.388052 
L 186.606545 106.696117 
L 189.800727 93.274916 
L 192.462545 83.031819 
L 194.592 75.605192 
L 195.922909 71.434578 
L 196.189091 70.792527 
L 197.253818 69.98195 
L 198.318545 69.410839 
L 199.383273 69.065121 
L 200.448 68.93086 
L 201.512727 68.994614 
L 203.642182 69.44808 
L 204.973091 69.97726 
L 206.570182 70.85728 
L 208.433455 72.169475 
L 210.562909 73.964644 
L 212.958545 76.268667 
L 213.490909 77.059484 
L 214.555636 79.201501 
L 215.886545 82.395889 
L 217.483636 86.868309 
L 219.346909 92.764515 
L 222.274909 102.89998 
L 227.598545 121.387749 
L 228.929455 125.054831 
L 229.994182 127.487993 
L 231.058909 129.291727 
L 234.253091 134.227044 
L 238.778182 141.202201 
L 241.706182 146.229765 
L 244.101818 150.787479 
L 246.497455 155.885666 
L 249.957818 164.003329 
L 252.353455 168.949091 
L 254.482909 172.839887 
L 256.346182 175.837773 
L 258.209455 178.439028 
L 260.072727 180.626536 
L 261.669818 182.152965 
L 263.799273 184.039765 
L 265.928727 186.343206 
L 268.590545 189.554377 
L 272.849455 195.106463 
L 277.640727 201.293015 
L 278.971636 202.815602 
L 279.504 202.953124 
L 280.834909 202.822172 
L 282.165818 202.453351 
L 283.496727 201.847893 
L 284.827636 201.008141 
L 286.158545 199.937806 
L 287.755636 198.351681 
L 289.352727 196.44063 
L 290.949818 194.209061 
L 292.813091 191.206136 
L 294.676364 187.776307 
L 296.273455 184.443449 
L 298.669091 178.856001 
L 301.064727 172.689841 
L 303.726545 165.217755 
L 306.920727 155.565281 
L 312.244364 139.01777 
L 315.172364 134.296703 
L 318.366545 129.578081 
L 321.560727 125.257321 
L 325.021091 120.961611 
L 328.747636 116.696239 
L 329.546182 116.130517 
L 333.006545 114.066625 
L 335.668364 112.733322 
L 337.797818 111.897745 
L 339.661091 111.377697 
L 340.193455 111.352116 
L 341.790545 111.65803 
L 343.387636 112.171392 
L 344.984727 112.880058 
L 345.783273 113.347779 
L 346.581818 114.300851 
L 348.445091 116.897365 
L 350.574545 120.293396 
L 352.704 124.146435 
L 354.567273 127.976754 
L 356.430545 132.399873 
L 358.293818 137.449359 
L 360.157091 143.20841 
L 362.020364 149.84096 
L 362.552727 152.075207 
L 364.682182 163.668206 
L 366.811636 174.011384 
L 368.674909 182.008591 
L 370.538182 189.006901 
L 372.135273 194.19825 
L 373.732364 198.63095 
L 375.063273 201.7452 
L 376.394182 204.332533 
L 377.725091 206.391069 
L 378.523636 207.472764 
L 380.653091 211.341189 
L 382.782545 214.682663 
L 385.178182 217.992917 
L 389.170909 223.032873 
L 392.365091 227.216377 
L 395.026909 230.751692 
L 396.624 231.751752 
L 398.753455 233.365621 
L 404.875636 238.239945 
L 406.472727 239.183819 
L 407.803636 239.754564 
L 409.134545 240.08142 
L 410.199273 240.137273 
L 410.997818 239.981605 
L 417.918545 237.75288 
L 426.436364 234.971955 
L 426.436364 234.971955 
" clip-path="url(#p73366b0a8c)" style="fill: none; stroke: #ffa500; stroke-width: 3; stroke-linecap: square"/>
   </g>
   <g id="patch_3">
    <path d="M 7.2 331.2 
L 7.2 7.2 
" style="fill: none; stroke: #000000; stroke-width: 0.8; stroke-linejoin: miter; stroke-linecap: square"/>
   </g>
   <g id="patch_4">
    <path d="M 446.4 331.2 
L 446.4 7.2 
" style="fill: none; stroke: #000000; stroke-width: 0.8; stroke-linejoin: miter; stroke-linecap: square"/>
   </g>
   <g id="patch_5">
    <path d="M 7.2 331.2 
L 446.4 331.2 
" style="fill: none; stroke: #000000; stroke-width: 0.8; stroke-linejoin: miter; stroke-linecap: square"/>
   </g>
   <g id="patch_6">
    <path d="M 7.2 7.2 
L 446.4 7.2 
" style="fill: none; stroke: #000000; stroke-width: 0.8; stroke-linejoin: miter; stroke-linecap: square"/>
   </g>
  </g>
 </g>
 <defs>
  <clipPath id="p73366b0a8c">
   <rect x="7.2" y="7.2" width="439.2" height="324"/>
  </clipPath>
 </defs>
</svg>
