<?xml version="1.0" encoding="utf-8" standalone="no"?>
<!DOCTYPE svg PUBLIC "-//W3C//DTD SVG 1.1//EN"
  "http://www.w3.org/Graphics/SVG/1.1/DTD/svg11.dtd">
<svg xmlns:xlink="http://www.w3.org/1999/xlink" width="453.6pt" height="338.4pt" viewBox="0 0 453.6 338.4" xmlns="http://www.w3.org/2000/svg" version="1.1">
 <metadata>
  <rdf:RDF xmlns:dc="http://purl.org/dc/elements/1.1/" xmlns:cc="http://creativecommons.org/ns#" xmlns:rdf="http://www.w3.org/1999/02/22-rdf-syntax-ns#">
   <cc:Work>
    <dc:type rdf:resource="http://purl.org/dc/dcmitype/StillImage"/>
    <dc:date>2025-05-14T09:02:31.528964</dc:date>
    <dc:format>image/svg+xml</dc:format>
    <dc:creator>
     <cc:Agent>
      <dc:title>Matplotlib v3.10.1, https://matplotlib.org/</dc:title>
     </cc:Agent>
    </dc:creator>
   </cc:Work>
  </rdf:RDF>
 </metadata>
 <defs>
  <style type="text/css">*{stroke-linejoin: round; stroke-linecap: butt}</style>
 </defs>
 <g id="figure_1">
  <g id="patch_1">
   <path d="M 0 338.4 
L 453.6 338.4 
L 453.6 0 
L 0 0 
z
" style="fill: #ffffff"/>
  </g>
  <g id="axes_1">
   <g id="patch_2">
    <path d="M 7.2 331.2 
L 446.4 331.2 
L 446.4 7.2 
L 7.2 7.2 
z
" style="fill: #ffffff"/>
   </g>
   <g id="matplotlib.axis_1"/>
   <g id="matplotlib.axis_2"/>
   <g id="line2d_1">
    <path d="M 27.163636 184.411778 
L 29.825455 189.396232 
L 32.221091 193.445931 
L 34.616727 197.082297 
L 37.012364 200.305317 
L 39.141818 202.823226 
L 41.271273 205.014533 
L 43.400727 206.879259 
L 45.264 208.242978 
L 47.127273 209.356676 
L 48.990545 210.220319 
L 50.853818 210.833906 
L 52.717091 211.19745 
L 54.580364 211.310938 
L 56.443636 211.174393 
L 58.306909 210.787805 
L 60.170182 210.151162 
L 62.033455 209.264474 
L 63.896727 208.127754 
L 65.76 206.740979 
L 67.889455 204.849921 
L 70.018909 202.63226 
L 72.148364 200.088019 
L 74.277818 197.217186 
L 76.673455 193.597118 
L 79.069091 189.563717 
L 81.464727 185.116982 
L 84.126545 179.691357 
L 86.788364 173.755438 
L 89.716364 166.63656 
L 92.644364 158.900187 
L 95.572364 150.546377 
L 98.766545 140.72891 
L 101.960727 130.176633 
L 105.154909 118.889499 
L 108.615273 105.832599 
L 112.075636 91.913218 
L 115.802182 75.958682 
L 119.528727 59.003971 
L 123.255273 41.049107 
L 124.586182 34.394228 
L 124.852364 34.042844 
L 126.981818 54.339305 
L 128.845091 70.179295 
L 130.708364 84.227865 
L 132.571636 96.484946 
L 134.168727 105.565212 
L 135.765818 113.329272 
L 137.096727 118.793941 
L 138.427636 123.344567 
L 139.492364 126.32698 
L 140.557091 128.724413 
L 141.621818 130.536935 
L 142.420364 131.5124 
L 143.218909 132.15887 
L 144.017455 132.476255 
L 144.816 132.464624 
L 145.614545 132.12393 
L 146.413091 131.454219 
L 147.211636 130.455445 
L 148.010182 129.12761 
L 149.074909 126.845389 
L 150.139636 123.978142 
L 151.204364 120.525962 
L 152.535273 115.38808 
L 153.866182 109.336225 
L 155.463273 100.867582 
L 157.060364 91.082665 
L 158.657455 79.98159 
L 160.520727 65.36689 
L 162.384 48.960655 
L 164.513455 28.017195 
L 165.045818 22.415637 
L 165.312 21.927273 
L 167.441455 22.461703 
L 169.570909 23.221501 
L 171.700364 24.206758 
L 173.829818 25.417428 
L 176.225455 27.048903 
L 178.621091 28.965649 
L 181.016727 31.167667 
L 183.412364 33.655049 
L 186.074182 36.753364 
L 188.736 40.203958 
L 191.397818 44.006717 
L 194.325818 48.596559 
L 197.253818 53.612586 
L 200.181818 59.054842 
L 203.376 65.477964 
L 206.570182 72.408185 
L 209.764364 79.845597 
L 213.224727 88.475197 
L 216.685091 97.700076 
L 220.411636 108.300235 
L 224.138182 119.590748 
L 227.864727 131.571661 
L 231.857455 145.17437 
L 235.850182 159.569599 
L 240.109091 175.797902 
L 244.368 192.928097 
L 248.626909 210.95975 
L 253.152 231.106529 
L 257.677091 252.271218 
L 262.468364 275.790274 
L 267.259636 300.450793 
L 267.792 303.127524 
L 271.252364 280.196333 
L 274.446545 260.488266 
L 277.640727 242.180709 
L 280.568727 226.629243 
L 283.496727 212.254817 
L 286.158545 200.208277 
L 288.820364 189.13451 
L 291.482182 179.033427 
L 293.877818 170.774117 
L 296.273455 163.30258 
L 298.402909 157.32271 
L 300.532364 151.965334 
L 302.661818 147.230442 
L 304.525091 143.598088 
L 306.388364 140.442328 
L 308.251636 137.763186 
L 309.848727 135.846141 
L 311.445818 134.279215 
L 313.042909 133.062499 
L 314.373818 132.316034 
L 315.704727 131.812728 
L 317.035636 131.552627 
L 318.366545 131.535663 
L 319.697455 131.76188 
L 321.028364 132.231257 
L 322.359273 132.943793 
L 323.690182 133.899511 
L 325.021091 135.098412 
L 326.618182 136.858063 
L 328.215273 138.96788 
L 329.812364 141.427861 
L 331.675636 144.740417 
L 333.538909 148.529521 
L 335.402182 152.795289 
L 337.531636 158.254004 
L 339.661091 164.335329 
L 342.056727 171.920825 
L 344.452364 180.294186 
L 346.848 189.455527 
L 349.509818 200.558717 
L 352.171636 212.63459 
L 355.099636 227.04152 
L 357.495273 239.457799 
L 359.890909 228.733692 
L 362.286545 218.974337 
L 364.682182 210.179884 
L 366.811636 203.172575 
L 368.941091 196.927535 
L 370.804364 192.088534 
L 372.667636 187.833133 
L 374.530909 184.161401 
L 376.128 181.478754 
L 377.725091 179.224911 
L 379.056 177.674282 
L 380.386909 176.421442 
L 381.717818 175.466379 
L 383.048727 174.809105 
L 384.113455 174.497708 
L 385.178182 174.376887 
L 386.242909 174.446619 
L 387.307636 174.706949 
L 388.372364 175.157879 
L 389.703273 175.989523 
L 391.034182 177.118956 
L 392.365091 178.546155 
L 393.696 180.271153 
L 395.293091 182.734237 
L 396.890182 185.626126 
L 398.487273 188.946831 
L 400.350545 193.362982 
L 402.213818 198.362699 
L 404.343273 204.791453 
L 406.472727 211.982464 
L 408.602182 219.935894 
L 410.997818 229.794635 
L 413.393455 240.618173 
L 416.055273 253.775958 
L 418.717091 268.124851 
L 421.378909 283.665064 
L 424.306909 302.134926 
L 426.436364 316.472719 
L 426.436364 316.472719 
" clip-path="url(#p96366e17f6)" style="fill: none; stroke-dasharray: 11.1,4.8; stroke-dashoffset: 0; stroke: #000000; stroke-width: 3"/>
   </g>
   <g id="line2d_2">
    <path d="M 27.163636 184.411813 
L 29.825455 189.396255 
L 32.221091 193.445954 
L 34.616727 197.08232 
L 37.012364 200.30534 
L 39.141818 202.823249 
L 41.271273 205.014556 
L 43.400727 206.879282 
L 45.264 208.243001 
L 47.127273 209.356699 
L 48.990545 210.220342 
L 50.853818 210.833929 
L 52.717091 211.197473 
L 54.580364 211.310961 
L 56.443636 211.174416 
L 58.306909 210.787828 
L 60.170182 210.151185 
L 62.033455 209.264497 
L 63.896727 208.127777 
L 65.76 206.741002 
L 67.889455 204.849944 
L 70.018909 202.632283 
L 72.148364 200.088042 
L 74.277818 197.217209 
L 76.673455 193.597141 
L 79.069091 189.56374 
L 81.464727 185.117016 
L 84.126545 179.691391 
L 86.788364 173.755472 
L 89.716364 166.636595 
L 92.644364 158.900222 
L 95.572364 150.546423 
L 98.766545 140.728956 
L 101.960727 130.176679 
L 105.154909 118.889545 
L 108.615273 105.832645 
L 112.075636 91.913264 
L 115.802182 75.958728 
L 119.528727 59.004017 
L 123.255273 41.049153 
L 124.586182 34.394274 
L 124.852364 34.04289 
L 126.981818 54.339351 
L 128.845091 70.179341 
L 130.708364 84.227911 
L 132.571636 96.484992 
L 134.168727 105.565257 
L 135.765818 113.329318 
L 137.096727 118.793987 
L 138.427636 123.344613 
L 139.492364 126.327026 
L 140.557091 128.724459 
L 141.621818 130.536981 
L 142.420364 131.512446 
L 143.218909 132.158916 
L 144.017455 132.476301 
L 144.816 132.46467 
L 145.614545 132.123976 
L 146.413091 131.454265 
L 147.211636 130.455491 
L 148.010182 129.127656 
L 149.074909 126.845435 
L 150.139636 123.978188 
L 151.204364 120.526008 
L 152.535273 115.388126 
L 153.866182 109.336271 
L 155.463273 100.867628 
L 157.060364 91.082711 
L 158.657455 79.981636 
L 160.520727 65.366936 
L 162.384 48.960701 
L 164.513455 28.017241 
L 165.045818 22.415706 
L 165.312 21.927342 
L 167.441455 22.461772 
L 169.570909 23.22157 
L 171.700364 24.206827 
L 173.829818 25.417474 
L 176.225455 27.048948 
L 178.621091 28.965695 
L 181.016727 31.167713 
L 183.412364 33.655095 
L 186.074182 36.75341 
L 188.736 40.204004 
L 191.397818 44.006763 
L 194.325818 48.596605 
L 197.253818 53.612632 
L 200.181818 59.054888 
L 203.376 65.47801 
L 206.570182 72.408231 
L 209.764364 79.845643 
L 213.224727 88.475243 
L 216.685091 97.700122 
L 220.411636 108.300281 
L 224.138182 119.590794 
L 227.864727 131.571707 
L 231.857455 145.174416 
L 235.850182 159.569634 
L 240.109091 175.797936 
L 244.368 192.92812 
L 248.626909 210.959773 
L 253.152 231.106552 
L 257.677091 252.271235 
L 262.468364 275.790285 
L 267.259636 300.450805 
L 267.792 303.127536 
L 271.252364 280.196345 
L 274.446545 260.488283 
L 277.640727 242.180732 
L 280.568727 226.629266 
L 283.496727 212.25484 
L 286.158545 200.2083 
L 288.820364 189.134533 
L 291.482182 179.033461 
L 293.877818 170.774152 
L 296.273455 163.302615 
L 298.402909 157.322744 
L 300.532364 151.96538 
L 302.661818 147.230488 
L 304.525091 143.598134 
L 306.388364 140.442374 
L 308.251636 137.763232 
L 309.848727 135.846187 
L 311.445818 134.279261 
L 313.042909 133.062545 
L 314.373818 132.31608 
L 315.704727 131.812774 
L 317.035636 131.552673 
L 318.366545 131.535709 
L 319.697455 131.761926 
L 321.028364 132.231303 
L 322.359273 132.943839 
L 323.690182 133.899557 
L 325.021091 135.098458 
L 326.618182 136.858109 
L 328.215273 138.967926 
L 329.812364 141.427907 
L 331.675636 144.740462 
L 333.538909 148.529567 
L 335.402182 152.795335 
L 337.531636 158.254039 
L 339.661091 164.335363 
L 342.056727 171.920859 
L 344.452364 180.294221 
L 346.848 189.45555 
L 349.509818 200.55874 
L 352.171636 212.634613 
L 355.099636 227.041543 
L 357.495273 239.457822 
L 359.890909 228.733715 
L 362.286545 218.97436 
L 364.682182 210.179907 
L 366.811636 203.172598 
L 368.941091 196.927558 
L 370.804364 192.088557 
L 372.667636 187.833156 
L 374.530909 184.161436 
L 376.128 181.478788 
L 377.725091 179.224945 
L 379.056 177.674317 
L 380.386909 176.421477 
L 381.717818 175.466414 
L 383.048727 174.809139 
L 384.113455 174.497742 
L 385.178182 174.376921 
L 386.242909 174.446653 
L 387.307636 174.706984 
L 388.372364 175.157913 
L 389.703273 175.989558 
L 391.034182 177.118991 
L 392.365091 178.546189 
L 393.696 180.271187 
L 395.293091 182.734272 
L 396.890182 185.626161 
L 398.487273 188.946854 
L 400.350545 193.363005 
L 402.213818 198.362722 
L 404.343273 204.791476 
L 406.472727 211.982487 
L 408.602182 219.935917 
L 410.997818 229.794658 
L 413.393455 240.618196 
L 416.055273 253.775975 
L 418.717091 268.124863 
L 421.378909 283.665076 
L 424.306909 302.134937 
L 426.436364 316.472727 
L 426.436364 316.472727 
" clip-path="url(#p96366e17f6)" style="fill: none; stroke-dasharray: 3,4.95; stroke-dashoffset: 0; stroke: #ffa500; stroke-width: 3"/>
   </g>
   <g id="line2d_3">
    <path d="M 27.163636 184.411824 
L 29.825455 189.396278 
L 32.221091 193.445966 
L 34.616727 197.082331 
L 37.012364 200.305352 
L 39.141818 202.823261 
L 41.271273 205.014567 
L 43.400727 206.879293 
L 45.264 208.243012 
L 47.127273 209.356711 
L 48.990545 210.220353 
L 50.853818 210.833929 
L 52.717091 211.197473 
L 54.580364 211.310961 
L 56.443636 211.174416 
L 58.306909 210.787828 
L 60.170182 210.151185 
L 62.033455 209.264497 
L 63.896727 208.127777 
L 65.76 206.741002 
L 67.889455 204.849944 
L 70.018909 202.632283 
L 72.148364 200.088053 
L 74.277818 197.217221 
L 76.673455 193.597153 
L 79.069091 189.563751 
L 81.464727 185.117016 
L 84.126545 179.691391 
L 86.788364 173.755461 
L 89.716364 166.636583 
L 92.644364 158.90021 
L 95.572364 150.5464 
L 98.766545 140.728933 
L 101.960727 130.176656 
L 105.154909 118.889522 
L 108.615273 105.832622 
L 112.075636 91.913218 
L 115.802182 75.958682 
L 119.528727 59.003971 
L 123.255273 41.049107 
L 124.586182 34.394228 
L 124.852364 34.042844 
L 126.981818 54.339305 
L 128.845091 70.179295 
L 130.708364 84.227865 
L 132.571636 96.484923 
L 134.168727 105.565212 
L 135.765818 113.329272 
L 137.096727 118.793941 
L 138.427636 123.344567 
L 139.492364 126.32698 
L 140.557091 128.724413 
L 141.621818 130.536958 
L 142.420364 131.512423 
L 143.218909 132.158893 
L 144.017455 132.476278 
L 144.816 132.464647 
L 145.614545 132.123953 
L 146.413091 131.454242 
L 147.211636 130.455468 
L 148.010182 129.127633 
L 149.074909 126.845412 
L 150.139636 123.978165 
L 151.204364 120.525985 
L 152.535273 115.388103 
L 153.866182 109.336248 
L 155.463273 100.867582 
L 157.060364 91.082665 
L 158.657455 79.98159 
L 160.520727 65.36689 
L 162.384 48.960655 
L 164.513455 28.017195 
L 165.045818 22.415637 
L 165.312 21.927273 
L 167.441455 22.461703 
L 169.570909 23.221501 
L 171.700364 24.206758 
L 173.829818 25.417428 
L 176.225455 27.048903 
L 178.621091 28.965649 
L 181.016727 31.167667 
L 183.412364 33.655049 
L 186.074182 36.753364 
L 188.736 40.203958 
L 191.397818 44.006717 
L 194.325818 48.596559 
L 197.253818 53.612586 
L 200.181818 59.054842 
L 203.376 65.477964 
L 206.570182 72.408185 
L 209.764364 79.845597 
L 213.224727 88.475174 
L 216.685091 97.700053 
L 220.411636 108.300235 
L 224.138182 119.590748 
L 227.864727 131.571684 
L 231.857455 145.174393 
L 235.850182 159.569611 
L 240.109091 175.797913 
L 244.368 192.92812 
L 248.626909 210.959773 
L 253.152 231.106563 
L 257.677091 252.271253 
L 262.468364 275.790314 
L 267.259636 300.450839 
L 267.792 303.12757 
L 271.252364 280.196373 
L 274.446545 260.4883 
L 277.640727 242.180743 
L 280.568727 226.629278 
L 283.496727 212.25484 
L 286.158545 200.2083 
L 288.820364 189.134533 
L 291.482182 179.03345 
L 293.877818 170.774129 
L 296.273455 163.302592 
L 298.402909 157.322721 
L 300.532364 151.965334 
L 302.661818 147.230442 
L 304.525091 143.598088 
L 306.388364 140.442328 
L 308.251636 137.763186 
L 309.848727 135.846141 
L 311.445818 134.279215 
L 313.042909 133.062499 
L 314.373818 132.316034 
L 315.704727 131.812728 
L 317.035636 131.552627 
L 318.366545 131.535663 
L 319.697455 131.76188 
L 321.028364 132.231257 
L 322.359273 132.943793 
L 323.690182 133.899511 
L 325.021091 135.098412 
L 326.618182 136.858063 
L 328.215273 138.96788 
L 329.812364 141.427861 
L 331.675636 144.740417 
L 333.538909 148.529521 
L 335.402182 152.795289 
L 337.531636 158.254016 
L 339.661091 164.33534 
L 342.056727 171.920836 
L 344.452364 180.294209 
L 346.848 189.455539 
L 349.509818 200.558729 
L 352.171636 212.634601 
L 355.099636 227.041543 
L 357.495273 239.457822 
L 359.890909 228.733715 
L 362.286545 218.974349 
L 364.682182 210.179896 
L 366.811636 203.172575 
L 368.941091 196.927535 
L 370.804364 192.088534 
L 372.667636 187.833133 
L 374.530909 184.161401 
L 376.128 181.478754 
L 377.725091 179.224911 
L 379.056 177.674271 
L 380.386909 176.421431 
L 381.717818 175.466368 
L 383.048727 174.809093 
L 384.113455 174.497696 
L 385.178182 174.376875 
L 386.242909 174.446596 
L 387.307636 174.706926 
L 388.372364 175.157856 
L 389.703273 175.9895 
L 391.034182 177.118933 
L 392.365091 178.546143 
L 393.696 180.271141 
L 395.293091 182.734226 
L 396.890182 185.626115 
L 398.487273 188.946819 
L 400.350545 193.36297 
L 402.213818 198.362687 
L 404.343273 204.791441 
L 406.472727 211.982441 
L 408.602182 219.935871 
L 410.997818 229.794623 
L 413.393455 240.618162 
L 416.055273 253.775941 
L 418.717091 268.12484 
L 421.378909 283.665047 
L 424.306909 302.134917 
L 426.436364 316.472716 
L 426.436364 316.472716 
" clip-path="url(#p96366e17f6)" style="fill: none; stroke: #ffa500; stroke-width: 3; stroke-linecap: square"/>
   </g>
   <g id="patch_3">
    <path d="M 7.2 331.2 
L 7.2 7.2 
" style="fill: none; stroke: #000000; stroke-width: 0.8; stroke-linejoin: miter; stroke-linecap: square"/>
   </g>
   <g id="patch_4">
    <path d="M 446.4 331.2 
L 446.4 7.2 
" style="fill: none; stroke: #000000; stroke-width: 0.8; stroke-linejoin: miter; stroke-linecap: square"/>
   </g>
   <g id="patch_5">
    <path d="M 7.2 331.2 
L 446.4 331.2 
" style="fill: none; stroke: #000000; stroke-width: 0.8; stroke-linejoin: miter; stroke-linecap: square"/>
   </g>
   <g id="patch_6">
    <path d="M 7.2 7.2 
L 446.4 7.2 
" style="fill: none; stroke: #000000; stroke-width: 0.8; stroke-linejoin: miter; stroke-linecap: square"/>
   </g>
  </g>
 </g>
 <defs>
  <clipPath id="p96366e17f6">
   <rect x="7.2" y="7.2" width="439.2" height="324"/>
  </clipPath>
 </defs>
</svg>
