<?xml version="1.0" encoding="utf-8" standalone="no"?>
<!DOCTYPE svg PUBLIC "-//W3C//DTD SVG 1.1//EN"
  "http://www.w3.org/Graphics/SVG/1.1/DTD/svg11.dtd">
<svg xmlns:xlink="http://www.w3.org/1999/xlink" width="453.6pt" height="338.4pt" viewBox="0 0 453.6 338.4" xmlns="http://www.w3.org/2000/svg" version="1.1">
 <metadata>
  <rdf:RDF xmlns:dc="http://purl.org/dc/elements/1.1/" xmlns:cc="http://creativecommons.org/ns#" xmlns:rdf="http://www.w3.org/1999/02/22-rdf-syntax-ns#">
   <cc:Work>
    <dc:type rdf:resource="http://purl.org/dc/dcmitype/StillImage"/>
    <dc:date>2025-05-14T00:24:11.469864</dc:date>
    <dc:format>image/svg+xml</dc:format>
    <dc:creator>
     <cc:Agent>
      <dc:title>Matplotlib v3.10.1, https://matplotlib.org/</dc:title>
     </cc:Agent>
    </dc:creator>
   </cc:Work>
  </rdf:RDF>
 </metadata>
 <defs>
  <style type="text/css">*{stroke-linejoin: round; stroke-linecap: butt}</style>
 </defs>
 <g id="figure_1">
  <g id="patch_1">
   <path d="M 0 338.4 
L 453.6 338.4 
L 453.6 0 
L 0 0 
z
" style="fill: #ffffff"/>
  </g>
  <g id="axes_1">
   <g id="patch_2">
    <path d="M 7.2 331.2 
L 446.4 331.2 
L 446.4 7.2 
L 7.2 7.2 
z
" style="fill: #ffffff"/>
   </g>
   <g id="matplotlib.axis_1"/>
   <g id="matplotlib.axis_2"/>
   <g id="line2d_1">
    <path d="M 27.163636 71.065129 
L 37.544727 86.670875 
L 47.925818 101.866127 
L 58.040727 116.277086 
L 68.155636 130.298393 
L 78.004364 143.576323 
L 87.853091 156.484858 
L 97.701818 169.023998 
L 107.284364 180.869691 
L 116.866909 192.365708 
L 126.449455 203.512001 
L 135.765818 214.013455 
L 145.082182 224.184338 
L 154.398545 234.024686 
L 163.448727 243.267386 
L 172.498909 252.198164 
L 181.549091 260.817021 
L 190.599273 269.123961 
L 199.383273 276.888292 
L 208.167273 284.358768 
L 216.951273 291.535417 
L 225.735273 298.418219 
L 234.253091 304.811838 
L 242.770909 310.929137 
L 250.756364 316.41318 
L 251.022545 316.472727 
L 256.346182 312.046842 
L 261.669818 307.338436 
L 267.259636 302.090518 
L 272.849455 296.531167 
L 278.439273 290.660292 
L 284.029091 284.477982 
L 289.885091 277.667169 
L 295.741091 270.514501 
L 301.597091 263.019978 
L 307.719273 254.819315 
L 313.841455 246.244991 
L 319.963636 237.297024 
L 326.352 227.561706 
L 332.740364 217.419501 
L 339.128727 206.870509 
L 345.783273 195.449348 
L 352.437818 183.586721 
L 359.358545 170.781344 
L 366.279273 157.4985 
L 373.2 143.738198 
L 380.386909 128.943303 
L 387.573818 113.633486 
L 394.760727 97.808784 
L 402.213818 80.854159 
L 409.666909 63.345778 
L 417.386182 44.628326 
L 425.105455 25.316842 
L 426.436364 21.927273 
L 426.436364 21.927273 
" clip-path="url(#pee9e3a9cc1)" style="fill: none; stroke-dasharray: 11.1,4.8; stroke-dashoffset: 0; stroke: #000000; stroke-width: 3"/>
   </g>
   <g id="line2d_2">
    <path d="M 27.163636 220.159774 
L 27.429818 220.420313 
L 27.696 220.481048 
L 27.962182 220.351395 
L 28.494545 219.582793 
L 29.026909 218.241065 
L 29.825455 215.389496 
L 30.890182 210.513613 
L 34.882909 190.791196 
L 35.947636 187.086052 
L 36.746182 185.105183 
L 37.278545 184.214664 
L 37.810909 183.693569 
L 38.077091 183.578026 
L 38.343273 183.752632 
L 39.141818 187.240592 
L 39.940364 190.100061 
L 40.738909 192.164771 
L 41.537455 193.602936 
L 42.336 194.584849 
L 43.134545 195.249845 
L 44.997818 196.594889 
L 45.796364 197.411631 
L 46.594909 198.550221 
L 47.393455 200.049522 
L 48.458182 202.611363 
L 49.522909 205.734083 
L 51.12 211.216612 
L 52.983273 218.435152 
L 54.846545 226.380984 
L 55.112727 226.270931 
L 58.839273 218.768234 
L 60.436364 215.138465 
L 63.098182 201.411398 
L 64.162909 196.929944 
L 64.961455 194.321625 
L 65.76 192.536487 
L 66.292364 191.878834 
L 66.824727 191.691734 
L 67.090909 191.789175 
L 67.623273 192.369516 
L 68.155636 193.491193 
L 68.688 195.16952 
L 69.486545 198.750427 
L 71.882182 211.590638 
L 72.680727 214.459002 
L 73.479273 216.669111 
L 74.277818 218.324623 
L 75.076364 219.511053 
L 75.874909 220.319219 
L 76.673455 220.823309 
L 77.205818 221.010856 
L 79.335273 221.28399 
L 80.666182 221.215236 
L 81.730909 220.923033 
L 82.795636 220.364894 
L 83.860364 219.502852 
L 84.925091 218.321957 
L 85.989818 216.828373 
L 87.320727 214.560105 
L 88.917818 211.37233 
L 89.982545 209.069649 
L 90.248727 208.851278 
L 91.047273 210.239365 
L 91.845818 211.294106 
L 92.644364 212.063538 
L 93.709091 212.722918 
L 97.435636 213.280409 
L 99.298909 213.242333 
L 100.629818 213.01428 
L 101.960727 212.616289 
L 103.557818 211.948982 
L 106.485818 210.441571 
L 108.615273 209.451466 
L 109.946182 209.028149 
L 111.277091 208.651894 
L 112.075636 208.101116 
L 112.874182 207.250974 
L 113.672727 206.057266 
L 114.471273 204.491339 
L 115.269818 202.510863 
L 116.334545 199.181389 
L 117.399273 195.034497 
L 118.730182 188.757767 
L 120.327273 179.948303 
L 120.859636 177.08013 
L 121.125818 179.267141 
L 122.190545 192.412204 
L 123.255273 202.981909 
L 124.32 211.047413 
L 125.118545 215.590277 
L 125.917091 219.009804 
L 126.715636 221.524993 
L 126.981818 222.202264 
L 128.312727 223.845063 
L 131.506909 227.549997 
L 132.305455 228.771927 
L 132.837818 228.789308 
L 133.370182 228.547893 
L 133.902545 228.063403 
L 134.701091 226.897861 
L 135.499636 225.244156 
L 136.564364 222.372741 
L 137.895273 217.961603 
L 141.621818 204.747987 
L 142.420364 202.718969 
L 142.686545 202.179333 
L 142.952727 202.315808 
L 143.485091 205.616796 
L 143.751273 206.387608 
L 145.082182 206.951794 
L 146.413091 207.761421 
L 148.276364 209.216792 
L 151.204364 211.556845 
L 152.269091 212.10766 
L 153.067636 212.296148 
L 153.866182 212.21311 
L 154.398545 211.978957 
L 154.930909 211.575477 
L 155.729455 210.606807 
L 156.528 209.137289 
L 157.326545 207.097621 
L 158.125091 204.417991 
L 158.923636 201.045866 
L 159.988364 195.407317 
L 161.851636 184.523407 
L 162.384 183.983032 
L 162.650182 183.97115 
L 162.916364 184.107223 
L 163.448727 184.815738 
L 163.981091 186.030901 
L 164.779636 188.659066 
L 165.844364 193.299654 
L 167.441455 201.618746 
L 169.304727 211.268423 
L 170.369455 215.728004 
L 171.168 218.14757 
L 171.700364 219.049286 
L 172.232727 214.259792 
L 173.297455 204.727255 
L 174.362182 197.367427 
L 175.160727 193.095941 
L 175.959273 189.760312 
L 176.757818 187.227879 
L 177.556364 185.616954 
L 178.354909 184.429985 
L 179.419636 183.2768 
L 180.750545 182.23986 
L 182.347636 181.059467 
L 182.613818 181.17964 
L 183.146182 181.99251 
L 183.944727 183.735289 
L 185.009455 186.730173 
L 188.736 197.980355 
L 189.800727 200.388523 
L 190.865455 202.23615 
L 191.664 203.245279 
L 192.462545 203.938835 
L 193.261091 204.321966 
L 193.527273 204.38134 
L 195.124364 206.005518 
L 196.721455 207.301955 
L 198.584727 208.524369 
L 200.714182 209.64358 
L 202.577455 210.370005 
L 203.908364 210.653184 
L 204.973091 210.651285 
L 205.771636 210.451426 
L 206.570182 210.007842 
L 207.368727 209.233085 
L 208.167273 208.021147 
L 208.433455 207.632261 
L 208.699636 207.494142 
L 209.498182 207.936136 
L 210.296727 208.188711 
L 210.829091 208.193013 
L 211.627636 207.900152 
L 212.958545 207.032923 
L 214.821818 205.837542 
L 215.886545 205.393146 
L 216.951273 205.177432 
L 218.016 205.178373 
L 219.080727 205.366423 
L 220.677818 205.922882 
L 222.541091 206.812149 
L 227.066182 209.045693 
L 227.864727 209.261178 
L 228.663273 209.708817 
L 229.461818 210.418026 
L 230.260364 211.452281 
L 231.058909 212.868435 
L 231.857455 214.772531 
L 232.656 217.276852 
L 232.922182 216.775054 
L 234.253091 211.345598 
L 235.051636 208.796078 
L 235.850182 206.916905 
L 236.382545 206.077678 
L 236.914909 205.564437 
L 237.447273 205.379867 
L 237.979636 205.503008 
L 238.512 205.897912 
L 239.310545 206.89926 
L 241.706182 210.527386 
L 242.238545 210.81546 
L 242.504727 210.795523 
L 242.770909 210.646353 
L 243.037091 210.343026 
L 243.569455 209.245881 
L 244.101818 207.595418 
L 244.634182 205.793338 
L 246.231273 213.074458 
L 246.763636 214.384385 
L 247.296 215.219987 
L 247.828364 215.676621 
L 248.360727 215.844012 
L 248.893091 215.805589 
L 249.957818 215.408457 
L 251.022545 215.021325 
L 251.821091 214.987487 
L 252.353455 215.158841 
L 252.885818 215.518619 
L 253.418182 216.090431 
L 254.216727 217.355186 
L 255.015273 219.113994 
L 256.08 222.169476 
L 257.410909 226.885394 
L 258.741818 232.060705 
L 260.072727 231.08997 
L 261.137455 228.961493 
L 262.468364 225.767681 
L 265.130182 218.611767 
L 267.792 211.68321 
L 269.655273 207.46256 
L 271.252364 204.38746 
L 272.849455 201.842378 
L 274.180364 200.115783 
L 275.511273 198.719694 
L 276.842182 197.641464 
L 277.906909 196.841235 
L 279.504 195.306799 
L 280.568727 194.356276 
L 281.101091 194.340037 
L 281.899636 194.539969 
L 282.964364 195.066307 
L 284.295273 196.051481 
L 286.158545 197.509318 
L 286.957091 197.880768 
L 287.489455 197.948389 
L 288.021818 197.820682 
L 288.554182 197.450702 
L 289.086545 196.790135 
L 289.618909 195.789645 
L 290.151273 194.401503 
L 290.949818 191.48213 
L 291.748364 187.44289 
L 292.546909 182.128455 
L 293.079273 177.828246 
L 293.345455 178.20894 
L 294.410182 182.51566 
L 298.402909 199.88257 
L 299.201455 202.320548 
L 300 204.05234 
L 300.532364 204.755476 
L 301.064727 205.044674 
L 301.597091 204.906902 
L 302.129455 204.309591 
L 302.661818 203.228045 
L 303.194182 201.663653 
L 303.992727 198.354948 
L 304.791273 193.902856 
L 305.589818 188.327956 
L 306.654545 179.214909 
L 306.920727 178.960435 
L 307.719273 184.134458 
L 308.517818 188.124353 
L 309.316364 191.125119 
L 310.647273 194.935741 
L 311.179636 195.917088 
L 311.712 196.45424 
L 312.244364 196.619621 
L 312.776727 196.478762 
L 313.309091 196.083711 
L 314.107636 195.118247 
L 315.172364 193.353631 
L 317.301818 189.172837 
L 319.165091 185.727957 
L 320.496 183.720082 
L 321.560727 182.454167 
L 322.625455 181.5137 
L 323.690182 180.875299 
L 324.754909 180.517566 
L 325.819636 180.404015 
L 327.416727 180.512735 
L 327.682909 180.546774 
L 328.215273 182.219658 
L 329.28 186.65141 
L 333.006545 203.500357 
L 333.805091 205.972218 
L 334.603636 207.729656 
L 335.136 208.485435 
L 335.668364 208.886431 
L 336.200727 208.970007 
L 336.733091 208.741964 
L 337.265455 208.248131 
L 338.064 207.111202 
L 340.725818 202.670673 
L 341.258182 202.296729 
L 341.524364 202.246516 
L 342.056727 202.495702 
L 342.322909 202.824876 
L 342.589091 203.784577 
L 343.387636 208.258131 
L 344.186182 211.105033 
L 344.718545 212.346124 
L 345.250909 213.11637 
L 345.783273 213.461727 
L 346.315636 213.432858 
L 346.848 213.08403 
L 347.380364 212.472763 
L 348.178909 211.194729 
L 351.106909 205.975698 
L 351.639273 205.458557 
L 352.171636 205.212659 
L 352.704 205.285586 
L 353.236364 205.719845 
L 353.768727 206.374658 
L 354.833455 200.960554 
L 355.898182 196.664428 
L 356.962909 193.378957 
L 357.761455 191.50341 
L 358.56 190.07174 
L 359.358545 189.032297 
L 359.890909 188.530016 
L 360.955636 188.096287 
L 362.286545 187.813947 
L 363.883636 187.727841 
L 366.279273 187.88893 
L 369.207273 188.329079 
L 371.869091 188.93735 
L 373.732364 189.553009 
L 375.329455 190.288157 
L 378.257455 191.999299 
L 379.854545 193.141534 
L 381.185455 194.341279 
L 382.250182 195.349158 
L 383.581091 196.183755 
L 384.912 197.276635 
L 386.242909 198.649279 
L 387.84 200.628595 
L 390.501818 204.01495 
L 391.300364 204.676521 
L 391.832727 204.890463 
L 392.365091 204.84329 
L 392.897455 204.452112 
L 394.760727 201.81286 
L 395.559273 199.900343 
L 396.357818 197.390277 
L 398.487273 189.871671 
L 399.285818 187.969219 
L 400.084364 186.562454 
L 400.882909 185.604734 
L 401.681455 185.023789 
L 402.48 184.766456 
L 403.278545 184.759296 
L 404.343273 185.034329 
L 405.674182 185.649495 
L 409.134545 187.362765 
L 409.666909 187.548477 
L 410.199273 188.166639 
L 411.264 189.467259 
L 412.062545 190.085923 
L 412.328727 191.046164 
L 413.127273 196.871164 
L 413.925818 201.175637 
L 414.724364 204.232499 
L 415.522909 206.266961 
L 416.055273 207.148976 
L 416.587636 207.704568 
L 417.12 207.977555 
L 417.652364 208.000908 
L 418.184727 207.812931 
L 418.717091 207.431992 
L 419.515636 206.55783 
L 420.580364 204.930027 
L 421.645091 202.879007 
L 422.976 199.850184 
L 424.573091 195.681254 
L 426.436364 190.227349 
L 426.436364 190.227349 
" clip-path="url(#pee9e3a9cc1)" style="fill: none; stroke-dasharray: 3,4.95; stroke-dashoffset: 0; stroke: #ffa500; stroke-width: 3"/>
   </g>
   <g id="line2d_3">
    <path d="M 27.163636 232.595628 
L 27.696 231.551875 
L 28.494545 229.298046 
L 29.559273 225.510266 
L 32.487273 214.677483 
L 33.552 211.71461 
L 34.350545 210.070513 
L 35.149091 208.984538 
L 35.681455 208.591598 
L 36.213818 208.467735 
L 36.746182 208.62844 
L 37.278545 209.066681 
L 37.810909 209.788704 
L 38.343273 210.941807 
L 39.674182 217.21893 
L 40.206545 217.8291 
L 40.738909 218.202679 
L 41.271273 218.379933 
L 42.069818 218.37027 
L 42.868364 218.118481 
L 43.933091 217.535281 
L 45.796364 215.780154 
L 46.861091 215.174285 
L 47.925818 214.866757 
L 49.522909 214.466583 
L 50.321455 213.969644 
L 50.853818 213.415404 
L 51.386182 212.610946 
L 52.184727 209.799316 
L 52.983273 206.39085 
L 54.048 200.898623 
L 54.314182 201.090764 
L 54.846545 202.800326 
L 55.112727 202.82588 
L 55.645091 202.547834 
L 56.177455 202.652234 
L 56.709818 203.077131 
L 57.508364 204.179427 
L 58.573091 206.1829 
L 60.436364 209.874116 
L 63.896727 201.409982 
L 64.695273 200.163256 
L 65.227636 199.64038 
L 65.76 199.412601 
L 66.292364 199.512581 
L 66.824727 199.976312 
L 67.357091 200.827768 
L 67.889455 202.092733 
L 68.688 204.806018 
L 69.486545 208.49497 
L 71.882182 220.922074 
L 72.680727 223.717301 
L 72.946909 224.184521 
L 73.745455 223.306322 
L 74.810182 221.618597 
L 76.939636 217.549702 
L 78.004364 215.503239 
L 78.802909 214.647463 
L 80.133818 213.277294 
L 80.932364 212.194424 
L 81.730909 210.812182 
L 82.795636 208.444227 
L 84.126545 204.755111 
L 87.586909 194.487573 
L 88.651636 192.288378 
L 89.450182 191.20338 
L 89.982545 190.762263 
L 90.248727 190.918849 
L 91.845818 195.920422 
L 93.975273 203.004897 
L 94.773818 200.091553 
L 95.572364 197.913985 
L 96.370909 196.376472 
L 97.169455 195.401399 
L 97.701818 195.022642 
L 98.234182 194.841342 
L 98.766545 194.835871 
L 99.298909 194.984822 
L 100.097455 195.479852 
L 100.896 196.265423 
L 101.694545 197.308564 
L 102.759273 199.081373 
L 103.824 201.294641 
L 104.888727 203.983258 
L 105.154909 204.979903 
L 106.219636 212.647552 
L 108.615273 228.625616 
L 108.881455 230.436336 
L 109.147636 230.787045 
L 110.212364 224.694173 
L 110.478545 223.989676 
L 111.010909 223.508017 
L 111.543273 222.673182 
L 112.341818 220.909845 
L 113.672727 217.233424 
L 115.269818 212.817518 
L 116.068364 211.048582 
L 116.866909 209.794668 
L 117.399273 209.313949 
L 117.931636 209.161482 
L 118.996364 203.328701 
L 120.061091 198.659635 
L 120.859636 195.965676 
L 121.125818 198.044214 
L 122.456727 212.836624 
L 123.521455 222.262094 
L 124.32 227.290582 
L 124.852364 229.411461 
L 125.384727 230.608476 
L 125.650909 230.8856 
L 125.917091 230.964866 
L 126.183273 230.859014 
L 126.715636 230.153321 
L 126.981818 229.588688 
L 127.780364 229.181024 
L 128.578909 228.514156 
L 129.377455 227.592978 
L 130.442182 225.965677 
L 131.773091 223.400831 
L 132.305455 222.166042 
L 133.104 218.964211 
L 133.636364 216.349993 
L 133.902545 215.944074 
L 134.967273 217.493515 
L 135.499636 217.758885 
L 136.032 217.652841 
L 136.564364 217.222245 
L 137.096727 216.518214 
L 137.895273 215.037919 
L 140.823273 208.820728 
L 141.355636 208.348147 
L 141.621818 208.304445 
L 142.154182 208.612512 
L 142.686545 208.317542 
L 142.952727 208.674489 
L 143.485091 211.647299 
L 143.751273 212.373341 
L 145.348364 213.342705 
L 145.880727 213.905082 
L 146.413091 214.709193 
L 147.211636 216.494834 
L 148.010182 219.067607 
L 148.808727 222.525062 
L 149.074909 222.252231 
L 150.139636 213.944418 
L 151.204364 207.695973 
L 152.269091 202.866532 
L 153.6 198.043629 
L 155.197091 193.021224 
L 155.463273 193.159699 
L 157.060364 197.297604 
L 157.592727 197.884622 
L 158.125091 198.029217 
L 158.657455 197.741608 
L 159.189818 197.016324 
L 159.722182 195.859513 
L 160.254545 194.284161 
L 160.520727 194.644616 
L 160.786909 194.734421 
L 161.053091 194.58989 
L 161.585455 193.733301 
L 162.117818 194.379081 
L 162.916364 195.683811 
L 163.714909 197.39994 
L 164.779636 200.300261 
L 166.376727 204.863794 
L 166.909091 206.055092 
L 167.441455 207.897796 
L 168.24 211.79257 
L 169.038545 216.964108 
L 170.103273 225.635928 
L 170.635636 230.636788 
L 171.168 231.660047 
L 171.700364 232.268189 
L 172.232727 228.47313 
L 173.297455 220.932778 
L 174.362182 214.842527 
L 175.693091 208.485554 
L 177.024 202.835908 
L 178.088727 199.574914 
L 179.419636 196.322486 
L 181.282909 192.546606 
L 182.613818 190.017498 
L 183.412364 189.723058 
L 184.210909 189.601177 
L 184.743273 189.326921 
L 185.009455 189.256139 
L 185.275636 189.335341 
L 185.541818 189.961403 
L 186.872727 194.853151 
L 187.937455 197.933247 
L 188.736 199.718412 
L 189.534545 201.048825 
L 190.333091 201.937133 
L 191.131636 202.43515 
L 191.930182 202.598732 
L 192.728727 202.524791 
L 193.527273 202.33739 
L 194.592 203.103699 
L 195.390545 203.913719 
L 196.189091 205.011585 
L 196.987636 206.472299 
L 197.786182 208.398178 
L 198.584727 210.876469 
L 199.383273 213.775923 
L 200.181818 212.887258 
L 200.714182 212.55381 
L 201.246545 212.390611 
L 202.045091 212.41675 
L 203.376 212.648182 
L 204.706909 212.844004 
L 206.304 213.054767 
L 207.102545 212.920009 
L 207.634909 212.675965 
L 208.433455 212.071192 
L 208.699636 212.085503 
L 209.764364 212.96804 
L 210.296727 213.210194 
L 210.829091 212.963738 
L 211.361455 212.339877 
L 211.893818 211.328811 
L 212.426182 209.904237 
L 213.224727 206.895808 
L 213.490909 205.643931 
L 213.757091 206.08513 
L 214.289455 208.558152 
L 214.821818 210.281195 
L 215.354182 211.256605 
L 215.620364 211.45777 
L 215.886545 211.476082 
L 216.152727 211.297585 
L 216.418909 210.937935 
L 216.951273 209.625368 
L 217.483636 207.534145 
L 218.016 204.659259 
L 218.548364 200.977432 
L 219.613091 197.820828 
L 220.944 193.030083 
L 223.073455 185.37838 
L 223.339636 184.609852 
L 224.936727 192.97017 
L 225.735273 195.462161 
L 226.267636 196.56127 
L 226.8 197.306162 
L 228.397091 197.238057 
L 228.929455 197.254323 
L 229.195636 197.440975 
L 229.994182 198.932741 
L 231.058909 201.441327 
L 232.123636 204.641614 
L 232.656 206.584407 
L 232.922182 206.484766 
L 233.986909 204.255158 
L 234.785455 203.187869 
L 235.317818 202.852494 
L 235.850182 202.88309 
L 236.382545 203.314682 
L 236.914909 204.175408 
L 237.447273 205.493427 
L 238.245818 208.107235 
L 241.44 212.451337 
L 241.972364 212.682029 
L 242.504727 212.516136 
L 243.037091 211.852939 
L 243.569455 210.558968 
L 244.101818 208.640268 
L 244.368 207.470149 
L 244.634182 207.931606 
L 246.497455 221.380161 
L 247.296 225.361388 
L 248.094545 228.466162 
L 248.893091 230.884751 
L 249.957818 233.369353 
L 251.288727 235.838356 
L 253.418182 239.706553 
L 253.950545 240.661195 
L 257.144727 245.288961 
L 258.741818 247.485301 
L 260.871273 241.988466 
L 262.468364 236.99451 
L 265.396364 227.358879 
L 266.727273 221.3355 
L 269.655273 207.687498 
L 269.921455 207.09226 
L 270.453818 206.63811 
L 270.986182 206.397034 
L 271.518545 206.361241 
L 272.050909 206.518978 
L 272.849455 207.076843 
L 273.914182 208.23107 
L 275.511273 210.04969 
L 276.309818 210.543204 
L 276.576 210.590075 
L 276.842182 210.920125 
L 277.906909 213.820437 
L 278.173091 213.875719 
L 278.439273 213.646142 
L 278.705455 213.172739 
L 279.237818 211.492421 
L 279.770182 208.939859 
L 280.568727 203.726034 
L 281.367273 197.512715 
L 281.633455 198.235231 
L 282.432 201.902638 
L 283.230545 204.456168 
L 284.029091 206.148121 
L 284.827636 207.164082 
L 285.36 207.528144 
L 285.892364 207.672629 
L 286.424727 207.611383 
L 286.957091 207.343858 
L 287.489455 206.878811 
L 288.288 205.776999 
L 289.086545 204.152749 
L 289.885091 201.921068 
L 290.683636 199.018318 
L 291.482182 195.33544 
L 292.280727 190.803782 
L 293.079273 185.331089 
L 293.345455 185.460541 
L 294.676364 185.099393 
L 296.007273 184.950414 
L 296.539636 184.942651 
L 296.805818 185.26872 
L 297.072 187.03045 
L 298.402909 199.429981 
L 299.467636 207.354744 
L 300.266182 211.720747 
L 300.798545 213.737555 
L 301.330909 214.944315 
L 301.597091 215.223266 
L 301.863273 215.277625 
L 302.129455 215.086251 
L 302.395636 214.641755 
L 302.928 212.976908 
L 303.460364 210.219848 
L 303.992727 206.26254 
L 304.791273 197.983789 
L 305.589818 186.64709 
L 306.654545 169.815998 
L 306.920727 169.655001 
L 307.985455 175.118468 
L 308.784 177.841078 
L 309.316364 178.811036 
L 309.582545 178.99293 
L 309.848727 178.967924 
L 310.114909 179.258986 
L 310.647273 180.496232 
L 311.179636 181.207925 
L 311.712 181.412478 
L 312.244364 181.139263 
L 312.776727 180.42998 
L 313.309091 179.309327 
L 313.841455 177.803816 
L 314.373818 177.673076 
L 314.906182 177.123156 
L 315.438545 176.175465 
L 316.237091 174.062924 
L 317.035636 171.184404 
L 318.366545 165.659179 
L 319.165091 164.071853 
L 319.963636 162.919207 
L 320.762182 162.150459 
L 321.560727 161.750376 
L 322.359273 161.653109 
L 323.157818 161.83904 
L 323.956364 162.253151 
L 325.021091 163.093611 
L 326.352 164.490513 
L 326.884364 165.227404 
L 327.682909 166.609309 
L 328.481455 170.079249 
L 330.078545 178.38329 
L 332.740364 192.315175 
L 334.071273 198.08102 
L 335.402182 202.763593 
L 336.733091 206.475203 
L 338.330182 210.138473 
L 340.193455 214.456244 
L 341.258182 217.176169 
L 341.524364 217.600993 
L 342.322909 218.106416 
L 342.589091 218.842002 
L 343.121455 221.322531 
L 343.387636 221.786417 
L 344.186182 221.256134 
L 344.984727 220.392905 
L 345.783273 219.145338 
L 346.581818 217.492218 
L 347.646545 214.712116 
L 348.977455 210.518727 
L 352.437818 199.080076 
L 353.768727 195.811482 
L 355.632 182.1008 
L 357.229091 171.845108 
L 357.761455 169.736614 
L 358.293818 168.647971 
L 358.826182 168.233513 
L 359.092364 168.277315 
L 359.358545 168.483357 
L 360.689455 170.317531 
L 361.221818 171.575436 
L 362.020364 174.246088 
L 363.085091 178.946799 
L 364.682182 187.343495 
L 366.279273 195.462563 
L 367.077818 198.619076 
L 367.610182 200.141967 
L 368.142545 201.062488 
L 368.408727 201.242848 
L 368.674909 201.237623 
L 368.941091 200.99968 
L 369.207273 200.52888 
L 369.739636 199.292812 
L 370.272 200.238577 
L 370.804364 200.830828 
L 371.336727 201.086435 
L 371.869091 201.03202 
L 372.401455 200.703632 
L 372.933818 200.123482 
L 373.732364 198.88471 
L 375.063273 196.207702 
L 376.394182 193.532237 
L 376.660364 193.693216 
L 377.725091 197.311998 
L 378.789818 201.918484 
L 379.322182 204.398602 
L 380.386909 199.61098 
L 381.451636 195.772594 
L 383.048727 191.067462 
L 384.113455 188.666454 
L 384.912 187.296231 
L 385.710545 186.277 
L 386.509091 185.578613 
L 387.307636 185.171882 
L 388.106182 185.018483 
L 388.904727 185.074569 
L 390.235636 185.445061 
L 391.566545 185.759229 
L 392.098909 185.722934 
L 392.631273 185.5068 
L 393.163636 185.04538 
L 393.962182 183.518168 
L 394.760727 181.433987 
L 395.559273 178.71692 
L 396.357818 175.333168 
L 399.019636 162.9119 
L 399.552 162.14529 
L 400.084364 161.733535 
L 400.616727 161.533101 
L 401.149091 161.523091 
L 401.681455 161.687669 
L 402.48 162.235871 
L 403.278545 163.077976 
L 404.343273 164.544726 
L 405.940364 167.171558 
L 408.602182 171.60489 
L 412.062545 176.557628 
L 412.328727 177.542053 
L 413.393455 184.47166 
L 414.458182 189.738739 
L 415.522909 193.838349 
L 416.587636 197.169742 
L 418.184727 201.368665 
L 422.177455 210.862203 
L 424.040727 214.869058 
L 425.105455 216.571433 
L 425.637818 217.127736 
L 426.170182 217.428442 
L 426.436364 217.456837 
L 426.436364 217.456837 
" clip-path="url(#pee9e3a9cc1)" style="fill: none; stroke: #ffa500; stroke-width: 3; stroke-linecap: square"/>
   </g>
   <g id="patch_3">
    <path d="M 7.2 331.2 
L 7.2 7.2 
" style="fill: none; stroke: #000000; stroke-width: 0.8; stroke-linejoin: miter; stroke-linecap: square"/>
   </g>
   <g id="patch_4">
    <path d="M 446.4 331.2 
L 446.4 7.2 
" style="fill: none; stroke: #000000; stroke-width: 0.8; stroke-linejoin: miter; stroke-linecap: square"/>
   </g>
   <g id="patch_5">
    <path d="M 7.2 331.2 
L 446.4 331.2 
" style="fill: none; stroke: #000000; stroke-width: 0.8; stroke-linejoin: miter; stroke-linecap: square"/>
   </g>
   <g id="patch_6">
    <path d="M 7.2 7.2 
L 446.4 7.2 
" style="fill: none; stroke: #000000; stroke-width: 0.8; stroke-linejoin: miter; stroke-linecap: square"/>
   </g>
  </g>
 </g>
 <defs>
  <clipPath id="pee9e3a9cc1">
   <rect x="7.2" y="7.2" width="439.2" height="324"/>
  </clipPath>
 </defs>
</svg>
