<?xml version="1.0" encoding="utf-8" standalone="no"?>
<!DOCTYPE svg PUBLIC "-//W3C//DTD SVG 1.1//EN"
  "http://www.w3.org/Graphics/SVG/1.1/DTD/svg11.dtd">
<svg xmlns:xlink="http://www.w3.org/1999/xlink" width="453.6pt" height="338.4pt" viewBox="0 0 453.6 338.4" xmlns="http://www.w3.org/2000/svg" version="1.1">
 <metadata>
  <rdf:RDF xmlns:dc="http://purl.org/dc/elements/1.1/" xmlns:cc="http://creativecommons.org/ns#" xmlns:rdf="http://www.w3.org/1999/02/22-rdf-syntax-ns#">
   <cc:Work>
    <dc:type rdf:resource="http://purl.org/dc/dcmitype/StillImage"/>
    <dc:date>2025-05-14T00:04:21.129993</dc:date>
    <dc:format>image/svg+xml</dc:format>
    <dc:creator>
     <cc:Agent>
      <dc:title>Matplotlib v3.10.1, https://matplotlib.org/</dc:title>
     </cc:Agent>
    </dc:creator>
   </cc:Work>
  </rdf:RDF>
 </metadata>
 <defs>
  <style type="text/css">*{stroke-linejoin: round; stroke-linecap: butt}</style>
 </defs>
 <g id="figure_1">
  <g id="patch_1">
   <path d="M 0 338.4 
L 453.6 338.4 
L 453.6 0 
L 0 0 
z
" style="fill: #ffffff"/>
  </g>
  <g id="axes_1">
   <g id="patch_2">
    <path d="M 7.2 331.2 
L 446.4 331.2 
L 446.4 7.2 
L 7.2 7.2 
z
" style="fill: #ffffff"/>
   </g>
   <g id="matplotlib.axis_1"/>
   <g id="matplotlib.axis_2"/>
   <g id="line2d_1">
    <path d="M 27.163636 21.927292 
L 31.688727 42.092031 
L 35.947636 60.06487 
L 40.206545 77.062411 
L 44.199273 92.11181 
L 48.192 106.304005 
L 51.918545 118.776693 
L 55.645091 130.502662 
L 59.371636 141.481913 
L 62.832 151.008316 
L 66.292364 159.89084 
L 69.486545 167.51868 
L 72.680727 174.597871 
L 75.874909 181.128467 
L 78.802909 186.632913 
L 81.730909 191.676378 
L 84.658909 196.258861 
L 87.320727 200.024732 
L 89.982545 203.409616 
L 92.644364 206.41355 
L 95.04 208.791324 
L 97.435636 210.860523 
L 99.831273 212.621112 
L 101.960727 213.927035 
L 104.090182 214.989134 
L 106.219636 215.807398 
L 108.349091 216.381838 
L 110.478545 216.712463 
L 112.608 216.799245 
L 114.737455 216.642211 
L 116.866909 216.241344 
L 118.996364 215.596661 
L 121.125818 214.708154 
L 123.255273 213.575812 
L 125.384727 212.199666 
L 127.514182 210.579675 
L 129.909818 208.46574 
L 132.305455 206.043221 
L 134.701091 203.312101 
L 137.362909 199.915606 
L 140.024727 196.138134 
L 142.686545 191.979674 
L 145.614545 186.965351 
L 148.542545 181.490055 
L 151.470545 175.55376 
L 154.664727 168.552034 
L 157.858909 161.001752 
L 159.189818 157.693861 
L 159.456 157.469171 
L 162.117818 164.420261 
L 164.513455 170.099507 
L 166.909091 175.232452 
L 169.304727 179.819023 
L 171.434182 183.437319 
L 173.563636 186.623917 
L 175.693091 189.378844 
L 177.556364 191.435272 
L 179.419636 193.161216 
L 181.282909 194.556649 
L 182.88 195.489675 
L 184.477091 196.179877 
L 186.074182 196.627246 
L 187.671273 196.83181 
L 189.268364 196.79354 
L 190.865455 196.512456 
L 192.462545 195.988529 
L 194.059636 195.221807 
L 195.656727 194.212261 
L 197.253818 192.959881 
L 199.117091 191.191872 
L 200.980364 189.093352 
L 202.843636 186.664339 
L 204.973091 183.483604 
L 207.102545 179.871189 
L 209.232 175.827103 
L 211.627636 170.761512 
L 214.023273 165.149554 
L 216.418909 158.991231 
L 219.080727 151.507897 
L 221.742545 143.35006 
L 224.670545 133.597381 
L 227.598545 123.02858 
L 230.526545 111.643487 
L 233.720727 98.292751 
L 236.914909 83.970606 
L 240.375273 67.358914 
L 243.835636 49.607366 
L 247.296 30.715944 
L 248.626909 23.146461 
L 248.893091 22.413298 
L 256.346182 47.693567 
L 263.799273 72.181842 
L 270.986182 95.045294 
L 278.173091 117.172373 
L 285.093818 137.783868 
L 292.014545 157.712287 
L 298.935273 176.957896 
L 305.589818 194.819146 
L 312.244364 212.048985 
L 318.632727 227.995614 
L 325.021091 243.360279 
L 331.409455 258.143061 
L 337.531636 271.763789 
L 343.653818 284.850131 
L 349.776 297.401976 
L 355.632 308.90804 
L 359.624727 316.472717 
L 360.689455 315.628234 
L 362.286545 314.102586 
L 364.149818 311.99798 
L 366.013091 309.543662 
L 367.876364 306.739656 
L 370.005818 303.106924 
L 372.135273 299.017423 
L 374.264727 294.471236 
L 376.660364 288.810833 
L 379.056 282.572313 
L 381.717818 274.96272 
L 384.379636 266.639495 
L 387.041455 257.602619 
L 389.969455 246.837788 
L 392.897455 235.209446 
L 396.091636 221.539149 
L 399.285818 206.841303 
L 402.48 191.115692 
L 405.940364 172.919966 
L 409.400727 153.518249 
L 413.127273 131.275172 
L 416.853818 107.633509 
L 420.580364 82.593128 
L 424.573091 54.21193 
L 426.436364 40.41778 
L 426.436364 40.41778 
" clip-path="url(#p99386fba52)" style="fill: none; stroke-dasharray: 11.1,4.8; stroke-dashoffset: 0; stroke: #000000; stroke-width: 3"/>
   </g>
   <g id="line2d_2">
    <path d="M 27.163636 21.927386 
L 31.688727 42.092107 
L 35.947636 60.064946 
L 40.206545 77.062487 
L 44.199273 92.111886 
L 48.192 106.304061 
L 51.918545 118.77675 
L 55.645091 130.502719 
L 59.371636 141.481969 
L 62.832 151.008373 
L 66.292364 159.890896 
L 69.486545 167.518737 
L 72.680727 174.597918 
L 75.874909 181.128515 
L 78.802909 186.632951 
L 81.730909 191.676416 
L 84.658909 196.258899 
L 87.320727 200.02477 
L 89.982545 203.409654 
L 92.644364 206.413588 
L 95.04 208.791361 
L 97.435636 210.860561 
L 99.831273 212.62115 
L 101.960727 213.927073 
L 104.090182 214.989172 
L 106.219636 215.807427 
L 108.349091 216.381867 
L 110.478545 216.712492 
L 112.608 216.799273 
L 114.737455 216.642239 
L 116.866909 216.241372 
L 118.996364 215.596699 
L 121.125818 214.708191 
L 123.255273 213.57585 
L 125.384727 212.199703 
L 127.514182 210.579713 
L 129.909818 208.465777 
L 132.305455 206.043259 
L 134.701091 203.312139 
L 137.362909 199.915644 
L 140.024727 196.138172 
L 142.686545 191.979712 
L 145.614545 186.965388 
L 148.542545 181.490103 
L 151.470545 175.553807 
L 154.664727 168.552081 
L 157.858909 161.001809 
L 159.189818 157.693917 
L 159.456 157.469228 
L 162.117818 164.420318 
L 164.513455 170.099554 
L 166.909091 175.2325 
L 169.304727 179.819071 
L 171.434182 183.437367 
L 173.563636 186.623955 
L 175.693091 189.378882 
L 177.556364 191.43531 
L 179.419636 193.161254 
L 181.282909 194.556687 
L 182.88 195.489713 
L 184.477091 196.179915 
L 186.074182 196.627284 
L 187.671273 196.831848 
L 189.268364 196.793578 
L 190.865455 196.512494 
L 192.462545 195.988567 
L 194.059636 195.221845 
L 195.656727 194.212298 
L 197.253818 192.959919 
L 199.117091 191.19191 
L 200.980364 189.09339 
L 202.843636 186.664377 
L 204.973091 183.483651 
L 207.102545 179.871236 
L 209.232 175.827151 
L 211.627636 170.761559 
L 214.023273 165.149611 
L 216.418909 158.991288 
L 219.080727 151.507954 
L 221.742545 143.350117 
L 224.670545 133.597438 
L 227.598545 123.028637 
L 230.526545 111.643544 
L 233.720727 98.292827 
L 236.914909 83.970682 
L 240.375273 67.358989 
L 243.835636 49.607442 
L 247.296 30.716039 
L 248.626909 23.146556 
L 248.893091 22.413393 
L 256.346182 47.693642 
L 263.799273 72.181918 
L 270.986182 95.04537 
L 278.173091 117.17243 
L 285.093818 137.783924 
L 292.014545 157.712344 
L 298.935273 176.957944 
L 305.589818 194.819184 
L 312.244364 212.049023 
L 318.632727 227.995642 
L 325.021091 243.360307 
L 331.409455 258.143075 
L 337.531636 271.763798 
L 343.653818 284.85014 
L 349.776 297.40198 
L 355.632 308.908041 
L 359.624727 316.472717 
L 360.689455 315.628234 
L 362.286545 314.102586 
L 364.149818 311.997981 
L 366.013091 309.543663 
L 367.876364 306.739658 
L 370.005818 303.106926 
L 372.135273 299.017425 
L 374.264727 294.471241 
L 376.660364 288.81084 
L 379.056 282.572322 
L 381.717818 274.962729 
L 384.379636 266.639509 
L 387.041455 257.602633 
L 389.969455 246.837816 
L 392.897455 235.209475 
L 396.091636 221.539177 
L 399.285818 206.841341 
L 402.48 191.11573 
L 405.940364 172.920013 
L 409.400727 153.518305 
L 413.127273 131.275228 
L 416.853818 107.633565 
L 420.580364 82.593204 
L 424.573091 54.212005 
L 426.436364 40.417874 
L 426.436364 40.417874 
" clip-path="url(#p99386fba52)" style="fill: none; stroke-dasharray: 3,4.95; stroke-dashoffset: 0; stroke: #ffa500; stroke-width: 3"/>
   </g>
   <g id="line2d_3">
    <path d="M 27.163636 21.927273 
L 31.688727 42.092012 
L 35.947636 60.064851 
L 40.206545 77.062392 
L 44.199273 92.11181 
L 48.192 106.304005 
L 51.918545 118.776693 
L 55.645091 130.502662 
L 59.371636 141.481913 
L 62.832 151.008316 
L 66.292364 159.89084 
L 69.486545 167.51868 
L 72.680727 174.597871 
L 75.874909 181.128467 
L 78.802909 186.632913 
L 81.730909 191.676378 
L 84.658909 196.258861 
L 87.320727 200.024732 
L 89.982545 203.409616 
L 92.644364 206.41355 
L 95.04 208.791333 
L 97.435636 210.860533 
L 99.831273 212.621122 
L 101.960727 213.927045 
L 104.090182 214.989143 
L 106.219636 215.807398 
L 108.349091 216.381838 
L 110.478545 216.712463 
L 112.608 216.799245 
L 114.737455 216.642211 
L 116.866909 216.241344 
L 118.996364 215.596661 
L 121.125818 214.708154 
L 123.255273 213.575812 
L 125.384727 212.199666 
L 127.514182 210.579675 
L 129.909818 208.46574 
L 132.305455 206.043212 
L 134.701091 203.312092 
L 137.362909 199.915597 
L 140.024727 196.138124 
L 142.686545 191.979665 
L 145.614545 186.965341 
L 148.542545 181.490055 
L 151.470545 175.55376 
L 154.664727 168.552034 
L 157.858909 161.001752 
L 159.189818 157.693861 
L 159.456 157.469171 
L 162.117818 164.420261 
L 164.513455 170.099507 
L 166.909091 175.232452 
L 169.304727 179.819023 
L 171.434182 183.437319 
L 173.563636 186.623917 
L 175.693091 189.378844 
L 177.556364 191.435272 
L 179.419636 193.161216 
L 181.282909 194.556649 
L 182.88 195.489675 
L 184.477091 196.179877 
L 186.074182 196.627246 
L 187.671273 196.8318 
L 189.268364 196.793531 
L 190.865455 196.512447 
L 192.462545 195.98852 
L 194.059636 195.221798 
L 195.656727 194.212251 
L 197.253818 192.959872 
L 199.117091 191.191863 
L 200.980364 189.093352 
L 202.843636 186.664339 
L 204.973091 183.483604 
L 207.102545 179.871189 
L 209.232 175.827103 
L 211.627636 170.761512 
L 214.023273 165.149554 
L 216.418909 158.991231 
L 219.080727 151.507897 
L 221.742545 143.35006 
L 224.670545 133.597381 
L 227.598545 123.02858 
L 230.526545 111.643487 
L 233.720727 98.292751 
L 236.914909 83.970587 
L 240.375273 67.358895 
L 243.835636 49.607347 
L 247.296 30.715925 
L 248.626909 23.146443 
L 248.893091 22.413279 
L 256.346182 47.693548 
L 263.799273 72.181823 
L 270.986182 95.045294 
L 278.173091 117.172373 
L 285.093818 137.783868 
L 292.014545 157.712287 
L 298.935273 176.957896 
L 305.589818 194.819146 
L 312.244364 212.048995 
L 318.632727 227.995623 
L 325.021091 243.360288 
L 331.409455 258.143065 
L 337.531636 271.763798 
L 343.653818 284.85014 
L 349.776 297.401985 
L 355.632 308.908047 
L 359.624727 316.472727 
L 360.689455 315.628244 
L 362.286545 314.102598 
L 364.149818 311.997991 
L 366.013091 309.543673 
L 367.876364 306.739668 
L 370.005818 303.106938 
L 372.135273 299.017437 
L 374.264727 294.471248 
L 376.660364 288.810845 
L 379.056 282.572327 
L 381.717818 274.962734 
L 384.379636 266.639504 
L 387.041455 257.602628 
L 389.969455 246.837797 
L 392.897455 235.209456 
L 396.091636 221.539158 
L 399.285818 206.841303 
L 402.48 191.115692 
L 405.940364 172.919966 
L 409.400727 153.518249 
L 413.127273 131.275172 
L 416.853818 107.633509 
L 420.580364 82.593109 
L 424.573091 54.211911 
L 426.436364 40.417761 
L 426.436364 40.417761 
" clip-path="url(#p99386fba52)" style="fill: none; stroke: #ffa500; stroke-width: 3; stroke-linecap: square"/>
   </g>
   <g id="patch_3">
    <path d="M 7.2 331.2 
L 7.2 7.2 
" style="fill: none; stroke: #000000; stroke-width: 0.8; stroke-linejoin: miter; stroke-linecap: square"/>
   </g>
   <g id="patch_4">
    <path d="M 446.4 331.2 
L 446.4 7.2 
" style="fill: none; stroke: #000000; stroke-width: 0.8; stroke-linejoin: miter; stroke-linecap: square"/>
   </g>
   <g id="patch_5">
    <path d="M 7.2 331.2 
L 446.4 331.2 
" style="fill: none; stroke: #000000; stroke-width: 0.8; stroke-linejoin: miter; stroke-linecap: square"/>
   </g>
   <g id="patch_6">
    <path d="M 7.2 7.2 
L 446.4 7.2 
" style="fill: none; stroke: #000000; stroke-width: 0.8; stroke-linejoin: miter; stroke-linecap: square"/>
   </g>
  </g>
 </g>
 <defs>
  <clipPath id="p99386fba52">
   <rect x="7.2" y="7.2" width="439.2" height="324"/>
  </clipPath>
 </defs>
</svg>
