<?xml version="1.0" encoding="utf-8" standalone="no"?>
<!DOCTYPE svg PUBLIC "-//W3C//DTD SVG 1.1//EN"
  "http://www.w3.org/Graphics/SVG/1.1/DTD/svg11.dtd">
<svg xmlns:xlink="http://www.w3.org/1999/xlink" width="453.6pt" height="338.4pt" viewBox="0 0 453.6 338.4" xmlns="http://www.w3.org/2000/svg" version="1.1">
 <metadata>
  <rdf:RDF xmlns:dc="http://purl.org/dc/elements/1.1/" xmlns:cc="http://creativecommons.org/ns#" xmlns:rdf="http://www.w3.org/1999/02/22-rdf-syntax-ns#">
   <cc:Work>
    <dc:type rdf:resource="http://purl.org/dc/dcmitype/StillImage"/>
    <dc:date>2025-05-14T00:15:27.277325</dc:date>
    <dc:format>image/svg+xml</dc:format>
    <dc:creator>
     <cc:Agent>
      <dc:title>Matplotlib v3.10.1, https://matplotlib.org/</dc:title>
     </cc:Agent>
    </dc:creator>
   </cc:Work>
  </rdf:RDF>
 </metadata>
 <defs>
  <style type="text/css">*{stroke-linejoin: round; stroke-linecap: butt}</style>
 </defs>
 <g id="figure_1">
  <g id="patch_1">
   <path d="M 0 338.4 
L 453.6 338.4 
L 453.6 0 
L 0 0 
z
" style="fill: #ffffff"/>
  </g>
  <g id="axes_1">
   <g id="patch_2">
    <path d="M 7.2 331.2 
L 446.4 331.2 
L 446.4 7.2 
L 7.2 7.2 
z
" style="fill: #ffffff"/>
   </g>
   <g id="matplotlib.axis_1"/>
   <g id="matplotlib.axis_2"/>
   <g id="line2d_1">
    <path d="M 27.163636 288.064662 
L 28.494545 290.692596 
L 29.825455 292.775651 
L 30.890182 294.049788 
L 31.954909 294.975191 
L 33.019636 295.551883 
L 33.818182 295.755547 
L 34.616727 295.76306 
L 35.415273 295.57441 
L 36.213818 295.189607 
L 37.278545 294.371399 
L 38.343273 293.204473 
L 39.408 291.688825 
L 40.472727 289.824455 
L 41.803636 287.003597 
L 43.134545 283.637866 
L 44.731636 278.879745 
L 46.328727 273.336994 
L 47.925818 267.009626 
L 49.789091 258.636016 
L 51.652364 249.194439 
L 53.515636 238.684881 
L 55.645091 225.366272 
L 57.774545 210.652763 
L 60.170182 192.432748 
L 62.565818 172.447356 
L 64.961455 150.696486 
L 67.623273 124.458352 
L 70.285091 96.040743 
L 73.213091 62.263955 
L 76.141091 26.491776 
L 81.464727 47.765391 
L 86.788364 68.110924 
L 91.845818 86.579513 
L 96.903273 104.210439 
L 101.694545 120.140722 
L 106.485818 135.319206 
L 111.277091 149.745956 
L 115.802182 162.680862 
L 120.327273 174.945185 
L 124.586182 185.875543 
L 128.845091 196.211877 
L 133.104 205.954199 
L 137.096727 214.548182 
L 141.089455 222.620046 
L 145.082182 230.169847 
L 148.808727 236.7453 
L 152.535273 242.86597 
L 155.995636 248.438082 
L 157.592727 252.466085 
L 159.189818 255.935383 
L 160.786909 258.845954 
L 162.117818 260.844607 
L 163.448727 262.455253 
L 164.779636 263.677901 
L 165.844364 264.37664 
L 166.909091 264.827067 
L 167.973818 265.029159 
L 169.038545 264.982927 
L 170.103273 264.688383 
L 171.168 264.145503 
L 172.232727 263.354295 
L 173.297455 262.314774 
L 174.628364 260.666154 
L 175.959273 258.629531 
L 177.290182 256.204894 
L 178.887273 252.78314 
L 180.484364 248.80268 
L 182.081455 244.263505 
L 183.944727 238.26157 
L 185.808 231.499189 
L 187.937455 222.839503 
L 190.066909 213.186522 
L 192.196364 202.540246 
L 194.592 189.375858 
L 196.987636 174.954354 
L 199.649455 157.456067 
L 202.311273 138.405602 
L 204.973091 117.803215 
L 207.901091 93.34794 
L 210.829091 67.014719 
L 213.224727 44.072602 
L 213.490909 44.71169 
L 216.152727 71.545659 
L 218.814545 96.221069 
L 221.476364 118.737854 
L 223.872 137.157499 
L 226.267636 153.82867 
L 228.397091 167.179607 
L 230.526545 179.149113 
L 232.389818 188.489063 
L 234.253091 196.771415 
L 236.116364 203.995992 
L 237.713455 209.346747 
L 239.310545 213.920296 
L 240.641455 217.138009 
L 241.972364 219.816098 
L 243.303273 221.954531 
L 244.368 223.276749 
L 245.432727 224.253585 
L 246.497455 224.885039 
L 247.296 225.13199 
L 248.094545 225.184656 
L 248.893091 225.04306 
L 249.691636 224.707202 
L 250.490182 224.177058 
L 251.554909 223.167982 
L 252.619636 221.813601 
L 253.684364 220.113771 
L 255.015273 217.50334 
L 256.346182 214.353275 
L 257.677091 210.663565 
L 259.274182 205.523565 
L 260.871273 199.606481 
L 261.936 195.332828 
L 276.309818 213.709286 
L 290.683636 232.446075 
L 305.323636 251.900312 
L 319.963636 271.728411 
L 334.603636 291.930298 
L 349.509818 312.883635 
L 352.171636 316.472727 
L 356.164364 289.71361 
L 359.890909 266.161861 
L 363.617455 243.984303 
L 367.344 223.181207 
L 370.804364 205.094665 
L 374.264727 188.19299 
L 377.458909 173.643249 
L 380.653091 160.103216 
L 383.847273 147.573016 
L 386.775273 136.973905 
L 389.703273 127.223237 
L 392.365091 119.095261 
L 395.026909 111.668475 
L 397.422545 105.583835 
L 399.818182 100.067223 
L 402.213818 95.118507 
L 404.343273 91.196493 
L 406.472727 87.723239 
L 408.602182 84.698745 
L 410.465455 82.42045 
L 412.328727 80.485693 
L 414.192 78.894562 
L 415.789091 77.804158 
L 417.386182 76.966207 
L 418.983273 76.380707 
L 420.580364 76.047616 
L 422.177455 75.966932 
L 423.774545 76.138679 
L 425.371636 76.562878 
L 426.436364 76.9859 
L 426.436364 76.9859 
" clip-path="url(#pd5de18e8a3)" style="fill: none; stroke-dasharray: 11.1,4.8; stroke-dashoffset: 0; stroke: #000000; stroke-width: 3"/>
   </g>
   <g id="line2d_2">
    <path d="M 27.163636 241.914751 
L 27.429818 245.741345 
L 27.962182 246.557692 
L 28.228364 246.57414 
L 29.026909 247.03807 
L 29.293091 246.920568 
L 30.091636 247.044882 
L 30.624 246.913877 
L 31.156364 246.80241 
L 31.422545 246.509793 
L 32.753455 246.015369 
L 35.415273 244.993112 
L 35.681455 244.038392 
L 36.48 243.760167 
L 37.012364 243.508648 
L 38.077091 243.020958 
L 39.674182 242.297097 
L 39.940364 241.674023 
L 41.005091 240.673838 
L 42.069818 239.484146 
L 43.400727 237.663669 
L 43.666909 237.284657 
L 43.933091 236.698335 
L 44.199273 236.700947 
L 44.997818 235.486517 
L 45.796364 233.89462 
L 46.594909 232.227151 
L 47.659636 230.354496 
L 50.055273 226.037522 
L 51.652364 222.943047 
L 52.450909 221.322122 
L 52.717091 219.574748 
L 54.048 216.168496 
L 58.306909 203.760321 
L 59.904 198.551418 
L 60.436364 197.037737 
L 60.968727 195.261424 
L 61.501091 192.852302 
L 63.098182 187.536332 
L 64.961455 177.863624 
L 66.558545 167.654261 
L 67.623273 159.17309 
L 70.551273 135.233455 
L 72.148364 124.807402 
L 72.946909 120.727689 
L 73.745455 117.700283 
L 74.011636 117.295688 
L 74.544 116.199905 
L 75.076364 115.507739 
L 75.874909 114.989431 
L 76.407273 115.152132 
L 76.939636 115.650991 
L 77.738182 117.450609 
L 78.004364 118.218012 
L 78.270545 120.170818 
L 82.263273 133.820517 
L 84.392727 138.347123 
L 86.256 141.268796 
L 86.522182 141.641096 
L 87.054545 142.596494 
L 87.586909 143.278591 
L 89.450182 144.979922 
L 90.781091 145.768352 
L 91.047273 146.200753 
L 92.644364 146.623997 
L 93.176727 146.75998 
L 93.975273 146.976648 
L 94.507636 147.359571 
L 95.04 147.737783 
L 95.306182 143.470631 
L 95.838545 143.333291 
L 96.104727 143.329535 
L 96.370909 143.129138 
L 97.169455 143.312376 
L 97.435636 143.214089 
L 98.234182 143.659626 
L 98.500364 143.740065 
L 99.298909 144.532274 
L 99.565091 144.33241 
L 100.363636 145.071052 
L 100.629818 145.181697 
L 101.428364 145.785689 
L 101.694545 145.925407 
L 103.025455 147.716912 
L 103.557818 148.581114 
L 103.824 149.941441 
L 104.888727 151.711808 
L 107.284364 155.380481 
L 107.816727 156.095251 
L 108.082909 156.827092 
L 109.413818 158.273392 
L 111.010909 159.462706 
L 111.809455 159.918978 
L 112.075636 160.003951 
L 112.341818 159.61207 
L 113.140364 159.840873 
L 113.406545 159.77277 
L 114.205091 160.046782 
L 114.471273 160.044182 
L 115.269818 160.362448 
L 115.536 160.368849 
L 116.334545 160.736659 
L 116.600727 160.445554 
L 117.399273 160.867397 
L 117.665455 160.923964 
L 119.262545 162.238548 
L 120.061091 163.034602 
L 121.392 164.794501 
L 122.722909 166.280887 
L 123.521455 167.006271 
L 126.449455 169.5024 
L 127.248 170.566043 
L 128.046545 171.72425 
L 128.845091 172.181212 
L 129.111273 172.279388 
L 129.377455 169.696407 
L 129.909818 169.63026 
L 130.176 169.640651 
L 130.442182 169.425707 
L 131.240727 169.748129 
L 131.506909 169.623681 
L 132.305455 170.006961 
L 132.571636 169.941258 
L 133.370182 170.38006 
L 133.636364 169.780113 
L 134.967273 170.314624 
L 136.298182 171.437446 
L 138.96 174.82516 
L 140.290909 176.912405 
L 141.355636 178.243614 
L 142.952727 179.793458 
L 144.816 181.197505 
L 146.146909 181.935725 
L 146.413091 180.596792 
L 146.945455 180.743978 
L 147.211636 180.726096 
L 147.477818 180.578177 
L 150.405818 180.573353 
L 150.672 180.118548 
L 151.736727 180.174248 
L 152.269091 180.411131 
L 153.6 181.247482 
L 154.132364 181.661757 
L 156.261818 184.306884 
L 157.592727 185.885256 
L 158.391273 186.60565 
L 160.520727 188.169919 
L 161.585455 188.783357 
L 162.384 189.059003 
L 163.182545 189.166015 
L 163.448727 189.424079 
L 164.247273 189.545082 
L 166.642909 189.217359 
L 167.441455 188.945069 
L 167.973818 188.569057 
L 168.772364 188.077955 
L 170.369455 186.896288 
L 171.168 186.01655 
L 172.232727 184.615581 
L 173.031273 183.215313 
L 174.628364 180.034319 
L 175.426909 177.909323 
L 176.491636 174.505205 
L 178.088727 168.809156 
L 179.153455 164.185641 
L 180.218182 158.358521 
L 180.750545 154.15596 
L 182.081455 145.901847 
L 184.210909 131.445335 
L 185.808 120.984898 
L 189.002182 103.991571 
L 190.599273 95.487428 
L 191.397818 92.858616 
L 191.930182 91.880057 
L 192.462545 91.230011 
L 192.728727 91.132747 
L 192.994909 91.162664 
L 193.527273 91.720024 
L 194.059636 92.881465 
L 194.592 94.624027 
L 195.390545 98.243822 
L 198.052364 111.948222 
L 200.181818 119.818656 
L 201.512727 123.930776 
L 202.843636 128.027426 
L 203.908364 131.769892 
L 206.570182 140.4861 
L 207.634909 143.473143 
L 208.433455 145.377582 
L 209.232 146.847732 
L 210.829091 149.108401 
L 211.627636 150.707266 
L 212.692364 153.542321 
L 213.757091 157.540484 
L 214.821818 162.779794 
L 216.418909 172.823523 
L 218.548364 185.897681 
L 222.541091 205.952598 
L 223.605818 211.959112 
L 224.404364 215.377354 
L 225.202909 217.818994 
L 226.001455 219.327363 
L 226.8 220.293141 
L 228.397091 221.714336 
L 229.994182 223.23603 
L 231.058909 224.55517 
L 232.123636 226.21966 
L 234.519273 230.154932 
L 235.584 231.357393 
L 238.245818 233.842853 
L 241.972364 237.921411 
L 243.037091 238.730434 
L 244.101818 239.275414 
L 245.432727 239.658016 
L 247.296 239.965291 
L 249.425455 240.143728 
L 252.087273 240.062077 
L 254.216727 239.806424 
L 255.547636 239.461086 
L 257.410909 238.788291 
L 260.072727 237.802797 
L 262.468364 237.201328 
L 264.864 236.889375 
L 273.115636 236.892486 
L 273.648 236.750957 
L 276.043636 236.637044 
L 279.770182 236.257655 
L 286.690909 235.227096 
L 290.151273 234.466383 
L 291.216 234.007087 
L 298.136727 230.781285 
L 307.186909 225.103473 
L 307.453091 224.455883 
L 309.848727 223.063305 
L 312.244364 221.381745 
L 313.309091 220.300987 
L 314.373818 218.995483 
L 315.172364 217.721441 
L 318.632727 211.598548 
L 319.963636 210.053616 
L 321.028364 209.193504 
L 321.560727 208.583856 
L 322.093091 208.095677 
L 322.625455 207.411546 
L 323.956364 206.408404 
L 324.222545 207.050004 
L 324.488727 202.15501 
L 325.021091 202.23815 
L 325.819636 202.683476 
L 326.618182 203.525006 
L 327.150545 204.219894 
L 328.215273 206.164765 
L 328.481455 206.689018 
L 329.28 208.745434 
L 330.344727 211.132096 
L 331.143273 212.438833 
L 331.941818 213.33453 
L 332.740364 214.0975 
L 333.006545 214.111292 
L 334.337455 215.142761 
L 336.466909 216.951459 
L 340.459636 221.447147 
L 341.524364 222.796616 
L 342.322909 223.742379 
L 344.186182 225.332187 
L 346.049455 226.949934 
L 347.114182 228.121633 
L 348.445091 230.087274 
L 349.776 231.985557 
L 350.042182 232.080954 
L 350.574545 232.532192 
L 351.106909 232.614698 
L 351.639273 232.362746 
L 352.171636 231.733049 
L 352.704 230.725606 
L 354.034909 227.819703 
L 354.833455 226.325693 
L 356.164364 224.007045 
L 356.696727 222.966085 
L 357.229091 221.993894 
L 358.293818 219.473049 
L 358.56 217.472734 
L 360.689455 213.179943 
L 362.818909 209.524162 
L 364.682182 206.780859 
L 366.545455 204.050693 
L 366.811636 203.725536 
L 367.077818 203.101329 
L 368.408727 202.045265 
L 370.005818 200.913264 
L 371.070545 200.302181 
L 371.336727 200.426496 
L 372.135273 200.086136 
L 372.401455 200.059687 
L 373.732364 199.070726 
L 374.264727 198.419302 
L 374.530909 198.325327 
L 375.329455 196.968845 
L 375.595636 197.260628 
L 377.991273 195.522211 
L 378.523636 194.883257 
L 378.789818 194.801417 
L 379.588364 193.897474 
L 379.854545 194.055096 
L 382.250182 192.226728 
L 382.782545 191.664 
L 383.048727 191.523748 
L 383.847273 190.766869 
L 384.645818 190.320065 
L 384.912 190.239604 
L 385.178182 190.33249 
L 385.710545 190.313108 
L 385.976727 190.381056 
L 386.242909 190.656779 
L 386.775273 190.918867 
L 387.041455 191.121431 
L 387.573818 191.774456 
L 388.372364 192.585324 
L 389.170909 193.660114 
L 389.703273 194.474083 
L 391.832727 196.865779 
L 392.098909 196.722883 
L 392.365091 197.861164 
L 392.631273 195.419435 
L 393.429818 195.948055 
L 393.962182 196.527653 
L 396.357818 198.163404 
L 396.624 198.280173 
L 397.156364 198.68409 
L 399.552 200.024879 
L 399.818182 200.079268 
L 400.084364 200.304582 
L 400.616727 200.338044 
L 400.882909 200.637495 
L 401.149091 199.33527 
L 401.947636 199.582032 
L 404.077091 200.962363 
L 404.609455 201.492606 
L 404.875636 201.672432 
L 405.141818 201.986475 
L 405.408 201.87643 
L 406.206545 202.656859 
L 406.472727 203.106474 
L 407.271273 203.845672 
L 407.537455 204.374137 
L 408.336 205.023372 
L 408.602182 205.523532 
L 409.134545 205.772739 
L 409.400727 206.098062 
L 409.666909 205.885729 
L 411.530182 207.221451 
L 412.062545 207.64855 
L 412.594909 207.872141 
L 412.861091 208.151444 
L 413.659636 208.505306 
L 413.925818 209.055053 
L 414.458182 209.124979 
L 415.789091 209.804198 
L 416.055273 210.239577 
L 416.587636 210.239799 
L 416.853818 210.372338 
L 417.12 210.814519 
L 417.652364 210.825721 
L 417.918545 211.129184 
L 418.184727 212.206585 
L 418.717091 212.193483 
L 419.249455 212.422363 
L 419.781818 212.461449 
L 420.580364 212.963098 
L 420.846545 212.927657 
L 421.112727 213.047693 
L 421.378909 213.448876 
L 421.911273 213.372916 
L 422.443636 214.008315 
L 422.709818 213.824654 
L 422.976 213.786235 
L 423.242182 214.081097 
L 423.508364 214.938797 
L 424.040727 214.565808 
L 424.306909 214.847467 
L 424.573091 216.020232 
L 425.105455 215.450525 
L 425.371636 215.679951 
L 425.637818 216.897059 
L 425.904 216.412236 
L 426.170182 214.963958 
L 426.436364 207.171785 
L 426.436364 207.171785 
" clip-path="url(#pd5de18e8a3)" style="fill: none; stroke-dasharray: 3,4.95; stroke-dashoffset: 0; stroke: #ffa500; stroke-width: 3"/>
   </g>
   <g id="line2d_3">
    <path d="M 27.163636 161.764383 
L 27.429818 170.249255 
L 27.696 169.27163 
L 27.962182 169.082702 
L 28.228364 166.711499 
L 28.494545 166.907451 
L 29.026909 166.507545 
L 29.293091 165.333702 
L 30.091636 165.90831 
L 30.357818 165.408117 
L 31.156364 167.919927 
L 31.422545 162.370687 
L 31.688727 163.884334 
L 32.221091 165.774104 
L 32.487273 165.451726 
L 33.285818 169.014421 
L 33.552 169.09346 
L 34.350545 171.29365 
L 34.616727 171.349706 
L 35.415273 173.78959 
L 35.681455 168.642433 
L 35.947636 169.426151 
L 36.48 171.782151 
L 36.746182 170.097313 
L 37.544727 174.198297 
L 37.810909 172.265274 
L 38.609455 173.828354 
L 38.875636 171.484089 
L 39.408 174.085296 
L 39.674182 175.662957 
L 39.940364 172.801518 
L 40.472727 177.341038 
L 40.738909 179.829199 
L 41.005091 180.552816 
L 41.803636 185.33283 
L 42.069818 185.440808 
L 42.602182 186.62781 
L 42.868364 186.999754 
L 43.134545 186.631366 
L 43.666909 186.877062 
L 43.933091 186.605183 
L 44.199273 211.060792 
L 44.465455 207.59465 
L 44.731636 211.053013 
L 44.997818 212.657923 
L 45.264 212.684151 
L 46.062545 219.42395 
L 46.328727 219.14687 
L 46.594909 220.544582 
L 47.127273 221.886283 
L 47.393455 220.901545 
L 47.925818 222.225109 
L 48.192 222.788648 
L 48.458182 216.812297 
L 48.724364 218.383423 
L 49.256727 219.875421 
L 49.522909 219.263428 
L 50.321455 221.214321 
L 50.587636 220.23354 
L 50.853818 220.369657 
L 51.386182 220.148189 
L 51.652364 218.541589 
L 52.450909 217.869138 
L 52.717091 220.995431 
L 52.983273 219.750773 
L 53.249455 219.109707 
L 53.515636 218.087139 
L 54.580364 210.379228 
L 55.645091 193.481232 
L 56.177455 181.104664 
L 56.709818 172.503368 
L 56.976 163.503411 
L 57.508364 156.927957 
L 58.040727 151.623034 
L 58.573091 146.726418 
L 59.105455 142.758972 
L 60.702545 131.378121 
L 60.968727 129.519913 
L 61.234909 189.360288 
L 61.767273 185.447298 
L 62.033455 184.252473 
L 62.565818 180.593402 
L 63.098182 177.852344 
L 63.630545 172.982667 
L 65.227636 159.556947 
L 65.493818 152.637022 
L 66.292364 143.30513 
L 67.090909 130.905934 
L 67.357091 127.797912 
L 68.155636 111.841267 
L 68.421818 107.644173 
L 69.220364 90.299463 
L 69.486545 85.997414 
L 69.752727 88.144749 
L 70.285091 78.455404 
L 70.817455 70.413913 
L 71.349818 62.542858 
L 71.616 59.583755 
L 72.414545 47.325877 
L 72.946909 40.929528 
L 73.479273 34.685165 
L 73.745455 32.528851 
L 74.011636 28.413597 
L 74.544 25.113001 
L 75.076364 23.591485 
L 75.608727 21.927273 
L 75.874909 22.043786 
L 76.141091 21.993553 
L 76.673455 22.489567 
L 77.738182 28.432045 
L 78.004364 33.664864 
L 78.270545 75.035272 
L 79.601455 95.223284 
L 80.4 102.734132 
L 81.198545 107.785758 
L 82.263273 112.644189 
L 82.529455 113.205372 
L 83.328 115.627653 
L 84.392727 118.206054 
L 86.522182 122.226622 
L 86.788364 123.316537 
L 88.385455 125.994204 
L 88.917818 126.674745 
L 89.982545 127.456952 
L 90.781091 127.774307 
L 91.047273 127.984839 
L 91.845818 128.084638 
L 92.112 128.251606 
L 92.910545 128.346114 
L 93.442909 128.682006 
L 93.709091 128.775715 
L 94.773818 129.901193 
L 95.04 130.297586 
L 95.306182 124.456952 
L 95.572364 124.403207 
L 95.838545 124.474955 
L 96.104727 124.665884 
L 96.370909 124.562796 
L 97.169455 125.525529 
L 97.435636 125.533975 
L 97.968 126.250435 
L 98.234182 126.547163 
L 98.500364 126.629225 
L 99.298909 127.816938 
L 99.565091 127.118571 
L 100.097455 127.83712 
L 101.694545 129.311648 
L 103.291636 132.491864 
L 103.557818 133.197521 
L 103.824 134.731706 
L 105.953455 140.409551 
L 107.284364 143.190662 
L 107.816727 144.201449 
L 108.349091 145.596183 
L 108.615273 146.010892 
L 111.010909 151.753194 
L 112.075636 155.339717 
L 112.341818 159.749254 
L 113.140364 164.036633 
L 113.672727 166.908517 
L 115.269818 176.4052 
L 115.802182 178.98489 
L 116.334545 181.503369 
L 116.600727 181.596366 
L 117.399273 184.676605 
L 117.931636 186.471333 
L 119.528727 192.228795 
L 120.327273 194.67308 
L 120.859636 196.204197 
L 121.924364 199.231092 
L 122.989091 201.751126 
L 124.053818 203.708066 
L 126.715636 208.408464 
L 127.248 209.684995 
L 127.780364 211.065949 
L 128.312727 211.954444 
L 128.845091 212.528385 
L 129.111273 212.701532 
L 129.377455 205.527377 
L 129.643636 205.40504 
L 130.176 205.452117 
L 130.442182 205.150854 
L 131.240727 205.731019 
L 131.506909 205.554316 
L 132.039273 205.912168 
L 132.305455 206.006232 
L 132.571636 205.836597 
L 133.370182 206.231034 
L 133.636364 205.287505 
L 134.168727 205.455495 
L 134.434909 205.567563 
L 134.701091 205.516219 
L 135.499636 206.075935 
L 135.765818 206.091138 
L 137.629091 207.819052 
L 137.895273 207.611987 
L 138.693818 208.370011 
L 138.96 208.511996 
L 139.492364 208.95471 
L 140.290909 208.571786 
L 140.557091 208.651492 
L 141.355636 208.494971 
L 141.621818 208.609617 
L 141.888 208.557784 
L 142.154182 208.380369 
L 142.420364 208.413309 
L 142.952727 208.611039 
L 143.218909 208.641356 
L 144.549818 209.488021 
L 146.146909 210.966106 
L 146.413091 209.374353 
L 146.945455 209.818579 
L 147.211636 209.932558 
L 147.477818 209.891038 
L 149.341091 210.765842 
L 149.607273 210.78589 
L 150.405818 211.229182 
L 150.672 210.85426 
L 151.736727 211.4222 
L 152.269091 211.966936 
L 153.866182 214.03572 
L 154.664727 215.512205 
L 156.794182 219.917208 
L 158.125091 222.236267 
L 162.117818 227.270289 
L 163.182545 227.882461 
L 163.448727 227.643922 
L 163.981091 227.943985 
L 165.045818 228.088815 
L 166.110545 227.941895 
L 166.642909 227.71287 
L 167.441455 227.360441 
L 167.973818 226.801436 
L 168.506182 226.414956 
L 170.103273 224.813513 
L 170.635636 224.248284 
L 171.966545 222.108329 
L 173.031273 219.687871 
L 174.628364 215.289936 
L 176.225455 208.50195 
L 178.088727 199.549114 
L 179.153455 193.607659 
L 180.218182 186.500406 
L 180.750545 181.847573 
L 182.081455 172.159874 
L 184.210909 155.260945 
L 185.541818 144.958362 
L 186.340364 140.238449 
L 187.671273 133.037221 
L 189.534545 119.633106 
L 190.865455 110.736237 
L 191.397818 108.085332 
L 194.325818 97.062644 
L 195.124364 95.54993 
L 195.390545 95.274095 
L 195.656727 95.323083 
L 196.189091 95.991888 
L 196.455273 96.506529 
L 197.253818 98.536194 
L 197.52 100.047041 
L 198.850909 103.63183 
L 199.383273 105.236429 
L 199.915636 106.690198 
L 200.448 108.239986 
L 200.980364 109.329634 
L 201.512727 110.55171 
L 202.311273 112.381023 
L 203.642182 116.287478 
L 204.440727 118.868814 
L 204.973091 120.634558 
L 205.771636 123.022032 
L 206.304 124.57342 
L 208.167273 129.50111 
L 209.232 131.219555 
L 211.361455 133.251532 
L 212.426182 135.259905 
L 212.958545 137.112289 
L 213.490909 139.231129 
L 214.555636 145.064606 
L 215.620364 152.534912 
L 218.016 170.246544 
L 218.814545 174.69729 
L 221.742545 188.797505 
L 222.807273 196.168901 
L 223.605818 201.065029 
L 224.936727 207.565444 
L 225.469091 208.729419 
L 226.001455 209.437477 
L 226.8 210.115307 
L 228.663273 211.384237 
L 229.728 212.417162 
L 230.792727 213.836435 
L 231.591273 215.350882 
L 232.389818 217.359255 
L 234.519273 223.256745 
L 235.051636 224.085717 
L 235.584 224.419431 
L 236.116364 224.481088 
L 236.648727 223.998588 
L 237.447273 222.930633 
L 237.979636 221.967544 
L 240.109091 219.521792 
L 240.907636 218.842185 
L 241.44 218.448681 
L 243.037091 217.798946 
L 248.094545 215.961187 
L 249.425455 215.827559 
L 251.821091 215.829604 
L 252.353455 215.909709 
L 253.684364 216.199458 
L 254.749091 216.237288 
L 256.346182 215.970744 
L 260.605091 214.656427 
L 261.669818 214.70906 
L 263.533091 215.045397 
L 264.331636 215.258908 
L 266.194909 216.219907 
L 266.461091 216.295567 
L 267.259636 216.792381 
L 267.525818 216.861107 
L 271.252364 219.883645 
L 271.784727 220.262613 
L 272.317091 220.889898 
L 272.849455 221.442191 
L 273.115636 221.676906 
L 273.381818 223.578012 
L 273.648 223.907591 
L 274.180364 224.236326 
L 274.712727 224.92478 
L 275.245091 225.258227 
L 277.108364 227.358485 
L 277.640727 227.979148 
L 279.504 229.858338 
L 280.834909 231.162564 
L 281.633455 232.081377 
L 281.899636 232.779566 
L 282.964364 233.948964 
L 283.496727 234.29308 
L 284.295273 234.474496 
L 284.827636 234.468894 
L 285.36 234.543354 
L 285.892364 234.429864 
L 286.158545 234.674181 
L 286.424727 234.658534 
L 286.690909 234.802786 
L 287.223273 235.38015 
L 288.021818 235.180153 
L 288.288 235.318982 
L 288.820364 235.14579 
L 289.086545 235.106004 
L 289.352727 235.413268 
L 290.151273 235.367481 
L 290.417455 238.600596 
L 290.949818 238.611176 
L 291.748364 238.43225 
L 292.813091 237.962464 
L 293.611636 237.046318 
L 294.676364 235.860428 
L 295.474909 235.308624 
L 296.007273 235.288665 
L 296.539636 235.18451 
L 297.338182 235.856293 
L 297.604364 236.01317 
L 298.669091 237.969532 
L 299.201455 239.670685 
L 303.726545 249.596301 
L 304.525091 250.708976 
L 305.323636 251.815472 
L 305.856 252.388258 
L 306.388364 252.975713 
L 306.654545 253.137702 
L 307.985455 254.518255 
L 308.517818 254.895489 
L 310.381091 255.486279 
L 313.575273 256.191936 
L 314.107636 256.530806 
L 314.64 256.619314 
L 314.906182 256.903061 
L 315.438545 257.007572 
L 315.704727 256.895593 
L 315.970909 257.411923 
L 316.503273 257.549151 
L 316.769455 257.497229 
L 317.834182 257.936609 
L 319.963636 260.023754 
L 320.229818 260.676333 
L 322.093091 262.644875 
L 322.359273 263.141956 
L 322.625455 263.264159 
L 323.157818 264.016627 
L 323.424 264.774162 
L 323.956364 265.084448 
L 324.222545 266.461312 
L 324.488727 262.210163 
L 325.287273 263.567511 
L 326.085818 265.416073 
L 328.481455 272.688782 
L 329.013818 275.083323 
L 330.610909 280.765525 
L 331.143273 282.36728 
L 332.208 284.540886 
L 332.740364 285.377238 
L 333.006545 287.172988 
L 333.805091 288.70015 
L 335.136 290.893182 
L 336.200727 292.850655 
L 338.330182 296.523862 
L 339.394909 297.201469 
L 339.927273 297.465524 
L 341.258182 298.37109 
L 341.790545 299.143561 
L 342.589091 299.753955 
L 343.653818 300.443787 
L 344.452364 301.253866 
L 344.984727 301.97326 
L 346.315636 304.407009 
L 347.646545 307.26987 
L 348.977455 310.472446 
L 349.776 311.88914 
L 350.042182 313.073786 
L 350.574545 313.513744 
L 350.840727 313.513521 
L 351.106909 313.364868 
L 351.639273 312.702153 
L 352.171636 311.537823 
L 352.970182 308.551247 
L 354.567273 301.136642 
L 355.632 295.875639 
L 356.430545 290.21313 
L 358.027636 275.983288 
L 358.293818 273.932774 
L 358.56 265.768324 
L 359.358545 261.46263 
L 360.157091 258.51793 
L 361.221818 255.817547 
L 362.286545 253.532184 
L 362.552727 253.050084 
L 362.818909 252.302329 
L 364.149818 250.106851 
L 366.545455 245.509764 
L 366.811636 245.139376 
L 367.077818 244.15326 
L 367.610182 243.819191 
L 368.142545 243.783583 
L 368.674909 244.198736 
L 369.207273 245.023085 
L 370.272 248.33146 
L 370.804364 250.640695 
L 371.070545 251.328882 
L 371.336727 252.414085 
L 371.602909 252.945351 
L 372.135273 253.379486 
L 372.401455 253.464348 
L 372.667636 253.378908 
L 373.2 252.721616 
L 373.466182 252.71317 
L 373.998545 250.983211 
L 374.264727 249.936593 
L 374.530909 249.895429 
L 375.861818 242.316034 
L 376.926545 235.583392 
L 377.991273 227.591156 
L 379.588364 214.21069 
L 379.854545 209.237347 
L 380.386909 206.211163 
L 380.653091 204.979085 
L 380.919273 204.588426 
L 381.717818 201.113527 
L 381.984 201.091301 
L 382.516364 198.806204 
L 382.782545 197.886413 
L 383.048727 198.160159 
L 383.581091 196.146897 
L 384.912 192.742235 
L 385.178182 192.456086 
L 385.710545 191.21534 
L 385.976727 190.832283 
L 386.242909 190.951641 
L 386.775273 189.865104 
L 387.041455 189.525167 
L 387.307636 189.971037 
L 387.84 189.010838 
L 388.106182 188.837246 
L 388.372364 188.813908 
L 388.638545 188.443565 
L 388.904727 188.337854 
L 389.170909 188.491041 
L 389.437091 189.735388 
L 389.703273 189.332682 
L 389.969455 189.21737 
L 390.235636 189.471511 
L 390.501818 191.252459 
L 391.034182 190.516928 
L 391.300364 190.470296 
L 391.566545 192.229639 
L 391.832727 191.633204 
L 392.098909 190.731684 
L 392.365091 191.744294 
L 392.631273 190.98138 
L 393.429818 189.965925 
L 394.760727 188.506111 
L 395.293091 187.732306 
L 396.624 185.012764 
L 396.890182 181.740573 
L 397.688727 179.802216 
L 397.954909 179.823153 
L 398.487273 178.476118 
L 398.753455 177.918491 
L 399.019636 178.672292 
L 399.818182 176.28802 
L 400.084364 177.423855 
L 400.616727 174.884751 
L 400.882909 174.097654 
L 401.149091 170.344786 
L 401.947636 165.485555 
L 402.213818 164.816528 
L 402.746182 160.28012 
L 403.012364 158.559096 
L 403.278545 159.204252 
L 404.077091 149.151677 
L 404.343273 150.85812 
L 404.875636 141.83278 
L 406.206545 128.476275 
L 406.472727 131.881515 
L 406.738909 127.972126 
L 407.005091 126.142813 
L 407.271273 125.534864 
L 407.537455 132.884612 
L 407.803636 129.300712 
L 408.336 126.332985 
L 408.602182 135.502888 
L 408.868364 130.244864 
L 409.134545 127.704826 
L 409.400727 126.320005 
L 409.666909 121.1556 
L 409.933091 121.523098 
L 410.465455 118.281892 
L 410.731636 116.817633 
L 412.328727 111.52569 
L 412.594909 110.376252 
L 412.861091 110.335265 
L 413.393455 107.888313 
L 413.659636 106.852231 
L 413.925818 102.481813 
L 414.192 102.256966 
L 414.458182 101.645195 
L 414.724364 101.367226 
L 414.990545 102.546449 
L 415.256727 101.679158 
L 415.522909 101.409991 
L 415.789091 101.487829 
L 416.055273 104.07361 
L 416.321455 103.045308 
L 416.853818 102.56543 
L 417.12 106.202585 
L 417.386182 104.264983 
L 417.652364 103.751054 
L 417.918545 103.652812 
L 418.184727 109.160621 
L 418.450909 107.419193 
L 418.983273 106.181159 
L 419.249455 106.771992 
L 419.515636 105.564586 
L 419.781818 104.892313 
L 420.048 104.631237 
L 420.314182 106.01957 
L 420.846545 103.537677 
L 421.112727 102.766983 
L 421.378909 104.090503 
L 421.911273 101.325795 
L 422.177455 100.806888 
L 422.443636 103.154664 
L 422.709818 101.776067 
L 422.976 101.04227 
L 423.242182 100.911798 
L 423.508364 103.507937 
L 423.774545 102.080041 
L 424.040727 101.294144 
L 424.306909 101.372072 
L 424.573091 105.513865 
L 424.839273 103.904597 
L 425.105455 103.04633 
L 425.371636 102.984673 
L 425.637818 108.45852 
L 425.904 106.238326 
L 426.436364 103.996127 
L 426.436364 103.996127 
" clip-path="url(#pd5de18e8a3)" style="fill: none; stroke: #ffa500; stroke-width: 3; stroke-linecap: square"/>
   </g>
   <g id="patch_3">
    <path d="M 7.2 331.2 
L 7.2 7.2 
" style="fill: none; stroke: #000000; stroke-width: 0.8; stroke-linejoin: miter; stroke-linecap: square"/>
   </g>
   <g id="patch_4">
    <path d="M 446.4 331.2 
L 446.4 7.2 
" style="fill: none; stroke: #000000; stroke-width: 0.8; stroke-linejoin: miter; stroke-linecap: square"/>
   </g>
   <g id="patch_5">
    <path d="M 7.2 331.2 
L 446.4 331.2 
" style="fill: none; stroke: #000000; stroke-width: 0.8; stroke-linejoin: miter; stroke-linecap: square"/>
   </g>
   <g id="patch_6">
    <path d="M 7.2 7.2 
L 446.4 7.2 
" style="fill: none; stroke: #000000; stroke-width: 0.8; stroke-linejoin: miter; stroke-linecap: square"/>
   </g>
  </g>
 </g>
 <defs>
  <clipPath id="pd5de18e8a3">
   <rect x="7.2" y="7.2" width="439.2" height="324"/>
  </clipPath>
 </defs>
</svg>
