<?xml version="1.0" encoding="utf-8" standalone="no"?>
<!DOCTYPE svg PUBLIC "-//W3C//DTD SVG 1.1//EN"
  "http://www.w3.org/Graphics/SVG/1.1/DTD/svg11.dtd">
<svg xmlns:xlink="http://www.w3.org/1999/xlink" width="453.6pt" height="338.4pt" viewBox="0 0 453.6 338.4" xmlns="http://www.w3.org/2000/svg" version="1.1">
 <metadata>
  <rdf:RDF xmlns:dc="http://purl.org/dc/elements/1.1/" xmlns:cc="http://creativecommons.org/ns#" xmlns:rdf="http://www.w3.org/1999/02/22-rdf-syntax-ns#">
   <cc:Work>
    <dc:type rdf:resource="http://purl.org/dc/dcmitype/StillImage"/>
    <dc:date>2025-05-14T00:07:52.406059</dc:date>
    <dc:format>image/svg+xml</dc:format>
    <dc:creator>
     <cc:Agent>
      <dc:title>Matplotlib v3.10.1, https://matplotlib.org/</dc:title>
     </cc:Agent>
    </dc:creator>
   </cc:Work>
  </rdf:RDF>
 </metadata>
 <defs>
  <style type="text/css">*{stroke-linejoin: round; stroke-linecap: butt}</style>
 </defs>
 <g id="figure_1">
  <g id="patch_1">
   <path d="M 0 338.4 
L 453.6 338.4 
L 453.6 0 
L 0 0 
z
" style="fill: #ffffff"/>
  </g>
  <g id="axes_1">
   <g id="patch_2">
    <path d="M 7.2 331.2 
L 446.4 331.2 
L 446.4 7.2 
L 7.2 7.2 
z
" style="fill: #ffffff"/>
   </g>
   <g id="matplotlib.axis_1"/>
   <g id="matplotlib.axis_2"/>
   <g id="line2d_1">
    <path d="M 27.163636 167.763498 
L 33.552 164.980744 
L 40.206545 161.835762 
L 46.861091 158.439366 
L 53.515636 154.79161 
L 60.170182 150.892441 
L 66.824727 146.741913 
L 73.479273 142.34013 
L 80.4 137.495512 
L 87.320727 132.379021 
L 94.241455 126.990659 
L 101.428364 121.107196 
L 108.615273 114.930657 
L 115.802182 108.460883 
L 122.989091 101.697927 
L 130.442182 94.374711 
L 137.895273 86.736311 
L 145.348364 78.782511 
L 153.067636 70.212193 
L 160.786909 61.303726 
L 168.506182 52.056952 
L 176.491636 42.135375 
L 184.477091 31.851834 
L 191.930182 21.927273 
L 192.196364 23.371926 
L 196.189091 55.678336 
L 199.915636 84.12953 
L 203.642182 110.937934 
L 207.368727 136.103336 
L 210.829091 158.000365 
L 214.289455 178.480818 
L 217.483636 196.128543 
L 220.677818 212.569336 
L 223.872 227.803144 
L 226.8 240.707156 
L 229.728 252.596992 
L 232.389818 262.525869 
L 235.051636 271.616462 
L 237.447273 279.081474 
L 239.842909 285.867552 
L 242.238545 291.974671 
L 244.368 296.833222 
L 246.497455 301.155409 
L 248.626909 304.941098 
L 250.490182 307.813543 
L 252.353455 310.275357 
L 253.950545 312.058585 
L 255.547636 313.539999 
L 257.144727 314.719601 
L 258.741818 315.597656 
L 260.072727 316.098751 
L 261.403636 316.390335 
L 262.734545 316.472408 
L 264.065455 316.34489 
L 265.396364 316.007834 
L 266.727273 315.461241 
L 268.058182 314.70511 
L 269.655273 313.521166 
L 271.252364 312.035463 
L 272.849455 310.248026 
L 274.712727 307.781284 
L 276.576 304.903831 
L 278.439273 301.615667 
L 280.568727 297.354935 
L 282.698182 292.557733 
L 284.827636 287.224033 
L 287.223273 280.582494 
L 289.618909 273.261969 
L 292.014545 265.262645 
L 294.676364 255.578095 
L 297.338182 245.055449 
L 300.266182 232.512333 
L 303.194182 218.955253 
L 306.122182 204.383623 
L 309.316364 187.33084 
L 312.510545 169.07123 
L 315.970909 147.927641 
L 319.431273 125.367795 
L 322.891636 101.391319 
L 324.222545 92.497131 
L 327.150545 93.700067 
L 330.078545 95.141418 
L 333.006545 96.821235 
L 335.934545 98.739466 
L 339.128727 101.104103 
L 342.322909 103.752493 
L 345.517091 106.684635 
L 348.977455 110.181457 
L 352.437818 114.01126 
L 355.898182 118.174095 
L 359.358545 122.670071 
L 363.085091 127.884271 
L 366.811636 133.484674 
L 370.538182 139.471495 
L 374.530909 146.314526 
L 378.523636 153.600874 
L 382.782545 161.861814 
L 387.041455 170.627232 
L 391.300364 179.897075 
L 395.825455 190.299156 
L 400.350545 201.270766 
L 404.875636 212.811799 
L 409.666909 225.652626 
L 414.458182 239.131975 
L 419.515636 254.052781 
L 424.573091 269.685045 
L 426.436364 275.62365 
L 426.436364 275.62365 
" clip-path="url(#pabf3718a68)" style="fill: none; stroke-dasharray: 11.1,4.8; stroke-dashoffset: 0; stroke: #000000; stroke-width: 3"/>
   </g>
   <g id="line2d_2">
    <path d="M 27.163636 161.93118 
L 41.271273 160.416628 
L 43.933091 160.385621 
L 47.659636 160.565803 
L 51.12 160.971505 
L 55.645091 161.520683 
L 57.508364 161.524678 
L 58.839273 161.531072 
L 60.702545 161.62974 
L 63.098182 161.534481 
L 71.616 160.969801 
L 75.076364 161.408961 
L 78.802909 161.656059 
L 81.198545 161.556751 
L 84.392727 161.172039 
L 86.788364 160.917802 
L 89.716364 161.176355 
L 94.241455 161.325743 
L 101.162182 161.519191 
L 104.090182 161.881367 
L 105.421091 162.025747 
L 113.406545 161.320468 
L 115.802182 161.387544 
L 118.197818 161.654993 
L 120.593455 162.006993 
L 122.989091 161.484081 
L 125.384727 161.183494 
L 127.514182 161.133946 
L 129.643636 161.305657 
L 132.039273 161.731286 
L 133.104 161.930754 
L 135.499636 161.763944 
L 140.024727 161.74274 
L 146.679273 161.594684 
L 157.858909 161.285892 
L 171.966545 160.754722 
L 176.757818 160.454348 
L 178.887273 160.56218 
L 190.599273 161.006402 
L 196.455273 160.958133 
L 199.383273 160.723342 
L 201.246545 160.542041 
L 206.037818 161.133733 
L 209.232 161.44503 
L 211.627636 161.42228 
L 222.008727 161.136717 
L 225.202909 161.34455 
L 229.728 161.733577 
L 235.317818 161.957499 
L 248.626909 161.252754 
L 251.554909 160.860317 
L 254.216727 160.382104 
L 255.813818 160.956535 
L 257.410909 161.319723 
L 259.008 161.474651 
L 261.137455 161.428088 
L 269.655273 161.087116 
L 277.640727 161.16213 
L 282.432 160.776779 
L 286.957091 160.379973 
L 291.748364 160.933253 
L 299.467636 161.673161 
L 300.266182 161.824893 
L 302.395636 161.492233 
L 305.057455 161.317964 
L 309.582545 161.292711 
L 312.244364 161.418231 
L 314.906182 161.501982 
L 320.762182 161.735974 
L 326.884364 161.869752 
L 329.28 161.817914 
L 332.474182 161.547321 
L 337.531636 161.373212 
L 344.984727 161.348652 
L 349.776 161.489409 
L 355.365818 161.500118 
L 363.351273 161.551636 
L 366.013091 161.316952 
L 369.207273 160.801979 
L 370.804364 160.559623 
L 372.667636 160.892496 
L 375.063273 161.069535 
L 379.854545 161.131762 
L 384.645818 161.095161 
L 387.307636 161.335599 
L 388.106182 161.379766 
L 397.422545 160.990579 
L 400.616727 161.167671 
L 403.278545 161.532137 
L 405.408 161.864531 
L 408.602182 161.516207 
L 411.264 161.238742 
L 413.127273 161.233467 
L 414.724364 161.436665 
L 416.321455 161.819619 
L 417.652364 161.395322 
L 418.983273 161.213755 
L 420.846545 161.225263 
L 424.573091 161.370815 
L 426.170182 161.157282 
L 426.436364 161.092817 
L 426.436364 161.092817 
" clip-path="url(#pabf3718a68)" style="fill: none; stroke-dasharray: 3,4.95; stroke-dashoffset: 0; stroke: #0000ff; stroke-width: 3"/>
   </g>
   <g id="line2d_3">
    <path d="M 27.163636 193.844727 
L 28.228364 186.391516 
L 29.293091 180.679711 
L 30.357818 176.220497 
L 31.688727 171.713333 
L 34.084364 163.947441 
L 35.149091 159.646778 
L 36.213818 154.318672 
L 36.746182 150.821477 
L 37.810909 142.815413 
L 38.875636 136.741698 
L 39.408 134.21739 
L 39.674182 134.445415 
L 43.400727 160.750886 
L 43.933091 163.550156 
L 46.328727 171.641622 
L 47.127273 173.711745 
L 47.925818 175.184316 
L 48.458182 175.759066 
L 48.724364 175.908774 
L 49.522909 176.759604 
L 49.789091 176.851081 
L 50.055273 176.818209 
L 50.321455 176.659018 
L 50.853818 175.938129 
L 51.386182 174.675363 
L 51.918545 172.848342 
L 52.717091 168.954767 
L 53.515636 163.605617 
L 54.314182 156.6856 
L 55.112727 148.079693 
L 55.378909 144.820165 
L 55.645091 145.05421 
L 56.709818 149.069789 
L 57.508364 151.309812 
L 58.306909 152.9729 
L 59.105455 154.046321 
L 59.904 154.733006 
L 61.501091 155.613352 
L 62.832 155.931041 
L 64.162909 156.31181 
L 64.961455 156.784322 
L 65.76 157.559606 
L 66.558545 158.729138 
L 67.623273 160.478642 
L 68.421818 161.235652 
L 69.486545 161.876412 
L 70.551273 162.501881 
L 71.349818 163.194 
L 71.882182 163.837531 
L 72.414545 164.728532 
L 72.946909 165.924543 
L 73.745455 168.433027 
L 74.544 171.528196 
L 76.141091 173.99928 
L 77.205818 175.682667 
L 78.270545 176.013356 
L 79.335273 176.620872 
L 80.4 177.583157 
L 81.198545 178.582417 
L 81.997091 179.874059 
L 82.795636 181.508964 
L 83.594182 183.545363 
L 84.658909 187.04778 
L 85.723636 191.666079 
L 86.788364 197.628019 
L 87.586909 203.201198 
L 88.651636 211.240879 
L 89.184 210.593726 
L 89.716364 209.492442 
L 90.248727 207.911985 
L 91.047273 204.606586 
L 91.845818 200.181949 
L 92.910545 192.738594 
L 93.709091 186.341063 
L 94.241455 185.028696 
L 94.773818 184.278665 
L 95.04 184.13631 
L 95.306182 184.160444 
L 95.838545 184.597633 
L 97.169455 174.95139 
L 98.234182 168.771282 
L 99.032727 165.217027 
L 99.831273 162.715042 
L 100.363636 161.663251 
L 100.896 161.131549 
L 101.162182 161.07369 
L 101.428364 161.137995 
L 101.694545 161.334747 
L 102.226909 162.178065 
L 102.759273 163.570401 
L 103.291636 165.511541 
L 104.090182 169.527546 
L 104.888727 174.824911 
L 105.687273 181.482965 
L 105.953455 183.932579 
L 106.219636 184.903389 
L 106.752 185.780112 
L 107.018182 185.524436 
L 107.550545 184.236949 
L 108.615273 179.122324 
L 109.413818 176.04415 
L 110.478545 172.544771 
L 111.809455 164.270991 
L 112.874182 159.055512 
L 113.672727 156.391406 
L 114.205091 155.378348 
L 114.471273 155.135938 
L 114.737455 155.073231 
L 115.003636 155.220062 
L 115.269818 155.577976 
L 115.802182 156.969512 
L 116.334545 159.34049 
L 116.600727 160.925421 
L 116.866909 161.702197 
L 117.665455 160.186685 
L 118.197818 159.504902 
L 118.730182 159.199146 
L 118.996364 159.209802 
L 119.528727 159.639532 
L 120.061091 160.689565 
L 120.593455 162.518131 
L 121.125818 165.214842 
L 121.658182 168.791846 
L 122.722909 176.709471 
L 123.255273 179.479278 
L 123.787636 181.435283 
L 124.32 182.597303 
L 124.586182 182.903485 
L 124.852364 183.015792 
L 125.118545 182.968376 
L 125.384727 182.739179 
L 125.917091 181.79879 
L 126.449455 180.226592 
L 127.248 177.4489 
L 128.046545 175.068492 
L 128.845091 171.809178 
L 129.643636 167.512191 
L 130.442182 162.022816 
L 131.240727 155.176322 
L 132.305455 143.667895 
L 133.370182 129.153378 
L 134.434909 113.257873 
L 137.362909 123.730546 
L 138.161455 125.842491 
L 138.96 127.324279 
L 139.492364 127.875427 
L 140.024727 128.012775 
L 140.290909 127.907713 
L 140.823273 127.321775 
L 141.355636 126.178455 
L 141.888 124.435717 
L 142.420364 122.030909 
L 143.218909 117.084851 
L 143.485091 115.060067 
L 143.751273 113.982863 
L 144.549818 114.237739 
L 145.348364 114.726234 
L 146.945455 116.120062 
L 148.542545 117.457256 
L 149.074909 117.780007 
L 149.341091 118.638403 
L 150.672 125.340411 
L 151.736727 129.763876 
L 152.535273 132.357337 
L 152.801455 133.053932 
L 154.930909 143.052974 
L 156.261818 148.014216 
L 157.592727 152.058724 
L 158.923636 155.290974 
L 159.988364 157.376494 
L 160.254545 157.83526 
L 161.053091 167.655932 
L 161.851636 175.218467 
L 162.650182 180.985999 
L 163.448727 185.350275 
L 164.247273 188.638359 
L 165.045818 191.114717 
L 165.844364 193.017551 
L 166.642909 194.551284 
L 166.909091 194.830081 
L 167.175273 194.941377 
L 167.973818 194.635248 
L 168.506182 194.603495 
L 169.038545 194.747342 
L 169.570909 195.108719 
L 170.103273 195.735307 
L 170.635636 196.667491 
L 171.168 197.962118 
L 171.700364 199.660635 
L 171.966545 198.377783 
L 173.563636 172.977005 
L 174.894545 155.940844 
L 175.959273 145.161776 
L 176.757818 138.734996 
L 177.290182 135.786339 
L 178.088727 132.805822 
L 178.621091 131.555522 
L 179.153455 130.816146 
L 179.685818 130.549549 
L 180.218182 130.738842 
L 180.750545 131.331972 
L 181.282909 132.301717 
L 182.081455 134.431723 
L 182.88 137.304088 
L 183.944727 142.20193 
L 185.009455 148.237605 
L 186.074182 155.584209 
L 186.872727 160.27017 
L 188.203636 167.1587 
L 188.736 168.698665 
L 189.268364 169.549815 
L 189.534545 169.727174 
L 189.800727 169.738682 
L 190.066909 169.609965 
L 190.599273 168.952529 
L 191.131636 167.785767 
L 191.930182 165.26375 
L 192.994909 160.813753 
L 195.124364 151.332508 
L 196.189091 147.318421 
L 196.987636 145.192197 
L 197.52 144.401569 
L 197.786182 144.2216 
L 198.052364 144.226182 
L 198.318545 144.406684 
L 198.584727 144.767475 
L 198.850909 145.64196 
L 200.448 158.777034 
L 201.246545 163.167735 
L 202.045091 166.3539 
L 202.843636 168.723652 
L 203.908364 171.119936 
L 204.440727 172.167464 
L 204.706909 172.442959 
L 204.973091 172.034912 
L 205.771636 170.059621 
L 206.304 169.157112 
L 206.836364 168.561637 
L 207.368727 168.25178 
L 207.901091 168.194667 
L 208.433455 168.329457 
L 209.232 168.835161 
L 210.030545 169.553065 
L 210.296727 170.162818 
L 210.829091 172.689897 
L 211.361455 176.264823 
L 212.16 183.851439 
L 212.958545 194.429014 
L 213.224727 198.211932 
L 214.289455 180.051471 
L 215.088 169.617424 
L 215.886545 161.560907 
L 216.685091 155.555866 
L 217.483636 151.316418 
L 218.282182 148.515391 
L 218.814545 147.318421 
L 219.346909 146.569615 
L 219.613091 146.343775 
L 219.879273 147.177877 
L 220.944 156.039619 
L 222.541091 171.513865 
L 224.670545 192.859799 
L 224.936727 193.343446 
L 225.735273 189.947103 
L 226.533818 187.400046 
L 226.8 186.692317 
L 227.598545 186.528171 
L 228.663273 186.5701 
L 229.994182 186.950976 
L 231.325091 187.612461 
L 232.656 188.484762 
L 234.519273 189.973742 
L 236.648727 192.042 
L 239.310545 194.856666 
L 241.173818 197.886251 
L 241.972364 198.565904 
L 242.770909 198.869208 
L 243.835636 199.033034 
L 244.900364 199.294357 
L 245.965091 199.306131 
L 247.029818 199.104532 
L 248.360727 198.608365 
L 249.957818 197.745547 
L 252.087273 196.332221 
L 254.216727 194.7182 
L 256.878545 191.848872 
L 257.144727 191.903267 
L 258.475636 192.628791 
L 259.540364 193.08825 
L 259.806545 192.869921 
L 260.072727 192.391389 
L 260.605091 190.006294 
L 261.403636 185.234877 
L 263.799273 169.510018 
L 264.331636 167.147085 
L 264.864 165.635623 
L 265.130182 165.248034 
L 265.396364 165.124645 
L 265.662545 165.285221 
L 265.928727 165.758479 
L 266.461091 167.615868 
L 266.993455 170.806136 
L 267.525818 175.317668 
L 268.058182 181.15851 
L 268.324364 181.514452 
L 269.389091 164.787562 
L 270.453818 151.824039 
L 271.518545 141.820469 
L 272.583273 133.908118 
L 273.381818 129.303032 
L 273.914182 128.597914 
L 274.446545 128.3717 
L 274.978909 128.584861 
L 275.511273 129.194507 
L 276.043636 130.15349 
L 276.576 131.415404 
L 276.842182 131.183596 
L 277.374545 129.485612 
L 277.640727 128.998236 
L 277.906909 128.749007 
L 278.173091 128.693013 
L 278.439273 128.82711 
L 278.971636 129.591526 
L 279.504 130.923872 
L 280.302545 133.758304 
L 281.367273 138.644745 
L 283.230545 148.71699 
L 283.762909 151.749452 
L 284.827636 159.40293 
L 285.892364 165.273021 
L 286.690909 168.614541 
L 287.755636 171.910723 
L 288.554182 173.700078 
L 289.352727 175.009515 
L 290.151273 175.904938 
L 290.417455 176.121561 
L 290.949818 176.119377 
L 292.546909 175.700675 
L 293.345455 175.469986 
L 297.604364 170.846413 
L 298.935273 168.929727 
L 301.064727 165.263378 
L 302.661818 162.108272 
L 305.323636 156.071159 
L 307.719273 150.769159 
L 309.050182 148.346876 
L 310.114909 146.572439 
L 310.913455 143.451697 
L 311.978182 138.162004 
L 313.042909 131.537354 
L 314.107636 123.587338 
L 315.438545 112.616846 
L 315.704727 112.408374 
L 316.237091 113.329423 
L 316.769455 114.867098 
L 317.568 118.195193 
L 318.366545 122.622015 
L 319.431273 129.87059 
L 322.625455 153.247116 
L 324.222545 163.476953 
L 325.553455 170.557439 
L 326.618182 175.063165 
L 327.682909 182.818774 
L 328.481455 187.027588 
L 329.013818 189.063667 
L 329.546182 190.43107 
L 330.078545 191.129635 
L 330.344727 191.228304 
L 330.610909 191.15963 
L 330.877091 190.924359 
L 331.409455 189.955414 
L 331.675636 189.222592 
L 331.941818 187.813048 
L 335.668364 157.25124 
L 336.733091 152.421645 
L 337.797818 148.477191 
L 338.862545 145.280796 
L 339.927273 142.692983 
L 341.258182 140.114599 
L 344.718545 134.139286 
L 346.049455 131.039483 
L 346.848 128.923595 
L 347.114182 129.011768 
L 348.445091 139.10559 
L 350.042182 149.16638 
L 353.236364 168.689715 
L 354.301091 175.216122 
L 354.567273 174.92294 
L 355.632 166.18448 
L 356.696727 159.266914 
L 357.495273 155.307596 
L 358.027636 153.353297 
L 358.826182 151.29937 
L 359.624727 149.939586 
L 359.890909 149.628822 
L 361.488 144.056336 
L 362.552727 141.040816 
L 363.351273 139.260252 
L 364.149818 137.928279 
L 364.948364 137.042872 
L 365.746909 136.570467 
L 366.545455 136.450913 
L 367.344 136.599982 
L 368.674909 137.177076 
L 369.473455 137.527904 
L 369.739636 137.407765 
L 370.272 136.808827 
L 370.804364 135.925711 
L 371.602909 134.027565 
L 372.667636 130.761911 
L 373.732364 126.947132 
L 374.530909 132.714772 
L 375.329455 136.712343 
L 376.128 139.320561 
L 376.394182 139.935056 
L 376.926545 142.550094 
L 377.725091 146.135463 
L 378.257455 147.688588 
L 378.789818 148.641443 
L 379.322182 148.990406 
L 379.588364 148.976981 
L 380.120727 148.584331 
L 380.653091 147.803399 
L 381.451636 146.108185 
L 383.048727 142.398042 
L 383.581091 141.593989 
L 384.113455 141.270652 
L 384.379636 141.33858 
L 384.645818 141.598571 
L 384.912 142.054247 
L 385.444364 143.683185 
L 385.976727 146.409519 
L 386.509091 150.403041 
L 386.775273 152.949938 
L 387.041455 153.468854 
L 387.84 145.686233 
L 388.372364 142.403317 
L 388.638545 141.480296 
L 388.904727 141.052057 
L 389.170909 140.886899 
L 389.437091 141.003629 
L 389.703273 141.342309 
L 390.235636 142.675774 
L 390.768 144.720111 
L 391.566545 148.747677 
L 394.228364 163.650636 
L 395.026909 166.666369 
L 395.559273 168.114698 
L 396.091636 169.084443 
L 396.624 169.549656 
L 396.890182 169.586363 
L 397.156364 169.489027 
L 397.688727 168.881192 
L 398.221091 167.700684 
L 398.753455 165.924383 
L 399.285818 163.516804 
L 400.350545 157.638935 
L 401.415273 155.393798 
L 402.48 153.664326 
L 403.544727 152.396339 
L 404.609455 151.539168 
L 405.141818 151.308373 
L 405.940364 151.20459 
L 407.271273 151.266551 
L 408.602182 150.320195 
L 409.400727 150.051254 
L 409.933091 149.898723 
L 410.731636 149.531645 
L 411.530182 149.427969 
L 413.127273 149.562493 
L 413.659636 149.578582 
L 413.925818 150.011456 
L 414.458182 151.465007 
L 414.990545 152.409551 
L 415.522909 152.934168 
L 416.055273 153.123301 
L 417.12 153.252497 
L 418.450909 153.22767 
L 418.983273 153.436089 
L 419.515636 153.901675 
L 420.048 154.7134 
L 420.580364 155.934238 
L 421.112727 157.62178 
L 421.911273 161.159253 
L 422.709818 166.013781 
L 423.508364 172.229905 
L 424.573091 182.590323 
L 425.904 198.589345 
L 426.436364 205.744366 
L 426.436364 205.744366 
" clip-path="url(#pabf3718a68)" style="fill: none; stroke: #0000ff; stroke-width: 3; stroke-linecap: square"/>
   </g>
   <g id="patch_3">
    <path d="M 7.2 331.2 
L 7.2 7.2 
" style="fill: none; stroke: #000000; stroke-width: 0.8; stroke-linejoin: miter; stroke-linecap: square"/>
   </g>
   <g id="patch_4">
    <path d="M 446.4 331.2 
L 446.4 7.2 
" style="fill: none; stroke: #000000; stroke-width: 0.8; stroke-linejoin: miter; stroke-linecap: square"/>
   </g>
   <g id="patch_5">
    <path d="M 7.2 331.2 
L 446.4 331.2 
" style="fill: none; stroke: #000000; stroke-width: 0.8; stroke-linejoin: miter; stroke-linecap: square"/>
   </g>
   <g id="patch_6">
    <path d="M 7.2 7.2 
L 446.4 7.2 
" style="fill: none; stroke: #000000; stroke-width: 0.8; stroke-linejoin: miter; stroke-linecap: square"/>
   </g>
  </g>
 </g>
 <defs>
  <clipPath id="pabf3718a68">
   <rect x="7.2" y="7.2" width="439.2" height="324"/>
  </clipPath>
 </defs>
</svg>
