<?xml version="1.0" encoding="utf-8" standalone="no"?>
<!DOCTYPE svg PUBLIC "-//W3C//DTD SVG 1.1//EN"
  "http://www.w3.org/Graphics/SVG/1.1/DTD/svg11.dtd">
<svg xmlns:xlink="http://www.w3.org/1999/xlink" width="453.6pt" height="338.4pt" viewBox="0 0 453.6 338.4" xmlns="http://www.w3.org/2000/svg" version="1.1">
 <metadata>
  <rdf:RDF xmlns:dc="http://purl.org/dc/elements/1.1/" xmlns:cc="http://creativecommons.org/ns#" xmlns:rdf="http://www.w3.org/1999/02/22-rdf-syntax-ns#">
   <cc:Work>
    <dc:type rdf:resource="http://purl.org/dc/dcmitype/StillImage"/>
    <dc:date>2025-05-14T00:03:20.207223</dc:date>
    <dc:format>image/svg+xml</dc:format>
    <dc:creator>
     <cc:Agent>
      <dc:title>Matplotlib v3.10.1, https://matplotlib.org/</dc:title>
     </cc:Agent>
    </dc:creator>
   </cc:Work>
  </rdf:RDF>
 </metadata>
 <defs>
  <style type="text/css">*{stroke-linejoin: round; stroke-linecap: butt}</style>
 </defs>
 <g id="figure_1">
  <g id="patch_1">
   <path d="M 0 338.4 
L 453.6 338.4 
L 453.6 0 
L 0 0 
z
" style="fill: #ffffff"/>
  </g>
  <g id="axes_1">
   <g id="patch_2">
    <path d="M 7.2 331.2 
L 446.4 331.2 
L 446.4 7.2 
L 7.2 7.2 
z
" style="fill: #ffffff"/>
   </g>
   <g id="matplotlib.axis_1"/>
   <g id="matplotlib.axis_2"/>
   <g id="line2d_1">
    <path d="M 27.163636 213.251533 
L 75.608727 159.426701 
L 132.571636 316.109435 
L 132.837818 316.472727 
L 186.074182 183.593509 
L 238.778182 24.989376 
L 239.044364 25.333282 
L 305.057455 206.001221 
L 305.589818 204.43464 
L 358.826182 21.927273 
L 359.092364 22.209724 
L 426.436364 293.503776 
L 426.436364 293.503776 
" clip-path="url(#p63fb76870e)" style="fill: none; stroke-dasharray: 11.1,4.8; stroke-dashoffset: 0; stroke: #000000; stroke-width: 3"/>
   </g>
   <g id="line2d_2">
    <path d="M 27.163636 157.175404 
L 28.228364 154.246216 
L 29.293091 151.883159 
L 30.357818 150.017359 
L 31.422545 148.577101 
L 32.487273 147.493956 
L 33.552 146.692583 
L 34.882909 145.986244 
L 36.48 145.414389 
L 41.803636 143.763225 
L 42.336 143.56841 
L 42.602182 143.608178 
L 43.933091 144.593216 
L 44.997818 144.954971 
L 46.062545 145.508553 
L 47.127273 146.266405 
L 48.458182 147.520666 
L 49.789091 149.132103 
L 51.12 151.098893 
L 52.717091 153.892601 
L 54.580364 157.637746 
L 60.436364 170.191994 
L 61.501091 170.659615 
L 62.565818 171.362774 
L 63.896727 172.540148 
L 65.227636 174.009257 
L 66.824727 176.092958 
L 68.155636 177.954688 
L 70.285091 173.375354 
L 71.882182 170.437262 
L 73.213091 168.38343 
L 74.544 166.710581 
L 75.874909 165.399232 
L 76.939636 164.588404 
L 77.738182 164.305233 
L 80.932364 163.478294 
L 84.392727 162.809816 
L 86.788364 162.584029 
L 88.651636 162.636135 
L 90.248727 162.896328 
L 91.845818 163.393563 
L 93.442909 164.138187 
L 93.975273 164.307353 
L 95.572364 164.581494 
L 97.435636 165.164965 
L 99.032727 165.818223 
L 99.298909 166.216567 
L 99.831273 167.706027 
L 101.960727 173.960585 
L 103.291636 177.135084 
L 104.356364 179.038045 
L 105.154909 180.025966 
L 105.953455 180.606703 
L 106.485818 180.76122 
L 107.018182 180.729634 
L 107.550545 180.515761 
L 108.349091 179.870113 
L 109.147636 178.864746 
L 110.212364 177.061588 
L 111.277091 174.811457 
L 112.341818 171.860604 
L 113.406545 168.108611 
L 114.471273 163.478337 
L 115.536 157.904383 
L 116.866909 149.543718 
L 117.399273 145.750684 
L 118.996364 155.709517 
L 120.327273 162.652585 
L 121.392 167.235269 
L 122.456727 170.923814 
L 123.521455 173.697976 
L 124.32 175.200325 
L 125.118545 176.222948 
L 125.917091 176.772121 
L 126.449455 176.904019 
L 126.981818 176.846146 
L 127.514182 176.319381 
L 128.046545 175.314416 
L 128.845091 173.044633 
L 129.643636 170.011275 
L 130.708364 165.048203 
L 132.039273 157.64771 
L 133.636364 147.238872 
L 134.168727 143.370796 
L 134.434909 142.614131 
L 134.701091 143.429219 
L 136.032 151.490496 
L 137.362909 158.140006 
L 138.693818 163.608285 
L 139.758545 167.175043 
L 140.823273 170.040105 
L 141.888 172.216953 
L 142.952727 173.794282 
L 145.348364 176.870927 
L 146.146909 178.472104 
L 146.945455 180.703899 
L 148.010182 184.256073 
L 148.542545 184.557348 
L 148.808727 184.511962 
L 149.341091 184.092335 
L 149.873455 183.293209 
L 150.672 181.56713 
L 151.736727 178.610171 
L 154.930909 169.261521 
L 155.729455 167.673615 
L 156.261818 166.960958 
L 156.794182 166.605202 
L 157.326545 166.656206 
L 157.858909 167.215427 
L 158.391273 168.348601 
L 158.923636 170.151123 
L 159.456 172.750269 
L 159.988364 176.265833 
L 160.520727 179.69709 
L 161.851636 168.696492 
L 162.650182 164.658381 
L 163.182545 162.940548 
L 163.714909 161.888225 
L 164.247273 161.358598 
L 164.779636 161.225873 
L 165.312 161.352217 
L 166.642909 161.79811 
L 167.175273 161.608806 
L 167.707636 160.948977 
L 168.24 159.653251 
L 168.772364 157.513522 
L 169.304727 154.365522 
L 169.837091 150.00394 
L 170.103273 147.300772 
L 170.369455 148.659013 
L 171.168 154.355982 
L 171.966545 158.331642 
L 172.498909 160.128589 
L 173.031273 161.307721 
L 173.563636 161.917268 
L 174.096 162.029091 
L 174.628364 161.704518 
L 175.160727 161.006065 
L 175.959273 159.393419 
L 177.024 156.877054 
L 178.621091 156.096837 
L 180.218182 155.087696 
L 182.081455 153.620495 
L 184.210909 151.628711 
L 185.009455 150.964346 
L 185.275636 151.069915 
L 186.606545 153.767338 
L 187.937455 156.968229 
L 189.800727 162.075685 
L 192.196364 168.64339 
L 193.261091 170.909335 
L 193.527273 171.345349 
L 195.656727 171.802795 
L 198.584727 172.376961 
L 199.649455 172.358518 
L 200.714182 172.067651 
L 201.512727 171.60003 
L 202.311273 170.839019 
L 203.109818 169.706545 
L 203.908364 168.116963 
L 204.706909 165.933798 
L 205.505455 163.056356 
L 206.304 159.326559 
L 207.102545 155.095837 
L 208.167273 155.93136 
L 208.965818 156.286056 
L 209.764364 156.397901 
L 210.562909 156.262356 
L 211.627636 155.755136 
L 213.490909 154.499222 
L 215.886545 152.945042 
L 217.483636 152.153442 
L 219.080727 151.592822 
L 220.677818 151.265557 
L 222.274909 151.175675 
L 223.605818 151.308294 
L 224.670545 151.57527 
L 224.936727 151.671724 
L 225.202909 152.113249 
L 225.469091 152.890222 
L 226.8 158.732424 
L 227.598545 158.924017 
L 228.397091 159.37663 
L 229.195636 160.079153 
L 230.260364 161.318702 
L 231.857455 163.625858 
L 235.317818 168.923 
L 236.648727 170.571937 
L 237.713455 171.613385 
L 238.778182 172.372403 
L 239.842909 172.838286 
L 240.907636 173.024495 
L 241.972364 172.947035 
L 243.037091 172.645717 
L 243.303273 172.539151 
L 243.569455 172.298844 
L 244.368 170.816655 
L 245.965091 167.029472 
L 247.296 164.075821 
L 248.360727 162.263505 
L 248.626909 161.913113 
L 248.893091 161.808413 
L 249.691636 162.147252 
L 250.490182 162.268042 
L 251.288727 162.20417 
L 252.353455 161.878283 
L 253.418182 161.310753 
L 254.749091 160.304071 
L 256.08 159.008197 
L 257.943273 156.843115 
L 260.072727 154.403616 
L 260.871273 153.862584 
L 262.202182 154.397171 
L 263.000727 154.227328 
L 264.065455 153.656617 
L 265.396364 152.901585 
L 266.194909 152.694644 
L 266.727273 152.752813 
L 267.259636 153.017626 
L 267.792 153.531715 
L 268.324364 154.337137 
L 268.856727 155.475356 
L 269.655273 157.891706 
L 270.453818 161.291399 
L 271.252364 165.791153 
L 272.050909 170.665423 
L 272.849455 174.000947 
L 273.648 176.609357 
L 274.446545 178.603197 
L 275.245091 180.086912 
L 276.043636 181.169824 
L 276.842182 181.87398 
L 279.504 182.748255 
L 281.899636 183.705968 
L 282.964364 184.334826 
L 284.029091 185.239118 
L 284.827636 186.167959 
L 285.626182 187.369753 
L 286.424727 188.619032 
L 286.957091 188.800048 
L 287.489455 188.809735 
L 288.021818 188.653692 
L 288.820364 188.152259 
L 289.618909 187.38508 
L 290.949818 185.69896 
L 294.942545 179.964723 
L 296.539636 177.143627 
L 298.402909 173.354049 
L 300.532364 168.440031 
L 302.928 162.314848 
L 306.388364 152.777997 
L 307.719273 149.029565 
L 307.985455 149.082816 
L 309.848727 151.064106 
L 310.381091 152.314467 
L 314.107636 162.687902 
L 315.172364 164.883723 
L 315.970909 166.094463 
L 316.769455 166.851912 
L 317.301818 167.066464 
L 317.834182 167.034475 
L 318.366545 166.721498 
L 318.898909 166.114962 
L 319.431273 165.186567 
L 319.963636 163.910853 
L 320.762182 161.296317 
L 321.560727 158.233217 
L 322.093091 157.946144 
L 322.625455 157.87373 
L 323.157818 157.996152 
L 323.956364 158.497394 
L 324.754909 159.304809 
L 325.819636 160.709453 
L 326.884364 162.065743 
L 329.013818 163.351844 
L 330.877091 164.232861 
L 332.740364 164.863436 
L 334.337455 165.145717 
L 335.402182 165.14807 
L 336.466909 164.926947 
L 337.265455 164.567927 
L 338.064 163.984221 
L 338.862545 163.102548 
L 339.661091 161.843263 
L 340.459636 160.089986 
L 340.992 158.801023 
L 341.790545 159.885864 
L 342.589091 161.325083 
L 343.387636 163.183315 
L 345.517091 169.517919 
L 346.315636 171.221295 
L 346.848 171.952394 
L 347.380364 172.285849 
L 347.646545 172.279913 
L 347.912727 172.158975 
L 348.445091 171.511038 
L 348.977455 170.302672 
L 349.509818 168.494384 
L 350.042182 166.055394 
L 350.840727 161.177435 
L 351.639273 154.784534 
L 351.905455 152.329942 
L 352.171636 151.469319 
L 357.229091 166.335407 
L 358.293818 168.581277 
L 359.358545 170.375129 
L 359.890909 171.107945 
L 360.689455 173.720616 
L 361.488 175.540373 
L 362.020364 176.211162 
L 362.286545 176.364428 
L 362.552727 176.387132 
L 362.818909 176.272468 
L 363.351273 175.588939 
L 363.883636 174.271887 
L 364.416 172.269823 
L 364.948364 172.781558 
L 365.480727 172.896497 
L 366.013091 172.62331 
L 366.545455 171.992926 
L 367.077818 171.044031 
L 367.876364 169.080124 
L 368.941091 165.632947 
L 370.272 160.332647 
L 372.401455 150.629958 
L 373.732364 144.458372 
L 373.998545 144.078534 
L 375.861818 152.000091 
L 376.926545 155.762662 
L 379.056 161.678825 
L 380.653091 165.577173 
L 382.250182 168.897286 
L 383.581091 171.174509 
L 384.912 172.989072 
L 385.976727 174.112876 
L 386.509091 174.570152 
L 386.775273 174.507171 
L 387.573818 173.725789 
L 388.638545 173.034289 
L 389.703273 172.615721 
L 391.300364 172.278853 
L 393.962182 171.802901 
L 394.760727 171.358005 
L 395.559273 170.590592 
L 396.357818 169.377584 
L 397.156364 167.608323 
L 397.954909 165.216839 
L 398.753455 162.127113 
L 399.818182 156.875358 
L 400.616727 152.056437 
L 400.882909 152.071975 
L 401.947636 157.881976 
L 403.012364 162.25846 
L 404.077091 165.531681 
L 405.141818 167.991573 
L 406.206545 169.859196 
L 407.271273 171.321437 
L 408.602182 172.785098 
L 409.933091 173.955222 
L 412.328727 174.930381 
L 414.724364 176.145743 
L 416.853818 177.473478 
L 418.983273 179.087183 
L 420.846545 180.753228 
L 422.976 182.931623 
L 426.436364 186.834339 
L 426.436364 186.834339 
" clip-path="url(#p63fb76870e)" style="fill: none; stroke-dasharray: 3,4.95; stroke-dashoffset: 0; stroke: #ffa500; stroke-width: 3"/>
   </g>
   <g id="line2d_3">
    <path d="M 27.163636 135.80154 
L 28.228364 132.059299 
L 29.026909 129.974877 
L 29.825455 128.462883 
L 30.624 127.485455 
L 31.156364 127.106465 
L 31.688727 126.935308 
L 32.221091 126.960492 
L 32.753455 127.169722 
L 33.552 127.809858 
L 34.350545 128.808824 
L 35.149091 130.131493 
L 36.213818 132.342873 
L 37.544727 135.698536 
L 39.408 141.158165 
L 42.602182 150.995296 
L 43.933091 156.617052 
L 44.731636 159.080654 
L 45.530182 162.19639 
L 46.594909 167.385058 
L 47.127273 170.205794 
L 47.393455 170.482458 
L 48.458182 166.820687 
L 49.256727 164.941744 
L 49.789091 164.14743 
L 50.321455 163.718666 
L 50.853818 163.658525 
L 51.386182 163.934362 
L 51.918545 164.5045 
L 52.717091 165.823989 
L 53.781818 168.14414 
L 55.645091 172.242858 
L 56.443636 173.424513 
L 56.976 173.866081 
L 57.508364 173.98261 
L 58.040727 173.726213 
L 58.573091 173.071089 
L 59.105455 172.014909 
L 59.904 169.675234 
L 63.364364 157.420948 
L 64.162909 154.806729 
L 64.695273 154.610515 
L 66.026182 154.311105 
L 68.155636 164.812813 
L 70.285091 162.160183 
L 72.414545 159.705845 
L 75.874909 156.257947 
L 76.407273 155.859009 
L 78.004364 154.29953 
L 79.335273 152.907266 
L 82.795636 148.992425 
L 83.594182 148.373276 
L 84.392727 148.04599 
L 84.925091 148.071534 
L 85.457455 148.356042 
L 85.989818 148.895781 
L 86.522182 148.552596 
L 87.054545 148.559443 
L 87.320727 148.745228 
L 87.853091 149.548148 
L 88.385455 151.082867 
L 88.917818 153.53074 
L 89.450182 157.122661 
L 90.248727 163.187046 
L 90.781091 164.157838 
L 91.313455 164.591605 
L 91.845818 164.574244 
L 92.378182 164.194131 
L 93.442909 162.899592 
L 93.975273 162.404413 
L 95.838545 161.27003 
L 96.903273 160.836666 
L 97.701818 160.685774 
L 98.500364 160.757426 
L 99.032727 160.965088 
L 99.298909 161.582626 
L 99.831273 164.07881 
L 101.162182 171.950104 
L 101.960727 177.821708 
L 103.291636 190.158564 
L 104.356364 201.951016 
L 105.421091 215.925139 
L 105.687273 219.805914 
L 105.953455 220.79446 
L 106.219636 221.016993 
L 106.485818 221.043226 
L 106.752 220.878703 
L 107.284364 219.975598 
L 107.816727 218.391094 
L 108.615273 214.869075 
L 109.413818 210.231053 
L 111.543273 195.650203 
L 112.874182 185.130369 
L 114.471273 170.523138 
L 116.068364 153.589969 
L 117.399273 137.216826 
L 119.262545 153.523765 
L 120.859636 165.410255 
L 122.190545 173.704675 
L 123.521455 180.565366 
L 124.852364 186.241137 
L 125.650909 189.542849 
L 126.449455 193.154962 
L 126.981818 195.004926 
L 127.248 194.778747 
L 127.780364 193.80823 
L 128.312727 192.205347 
L 129.111273 188.870279 
L 130.176 182.906058 
L 131.240727 175.510228 
L 132.305455 166.741319 
L 134.168727 149.109569 
L 134.434909 148.467123 
L 134.701091 150.290037 
L 135.765818 162.377936 
L 136.830545 172.074286 
L 137.895273 179.618231 
L 138.693818 183.948862 
L 139.492364 187.204022 
L 140.290909 189.462506 
L 140.823273 190.46887 
L 141.355636 191.116531 
L 141.888 191.462323 
L 142.420364 191.576022 
L 143.751273 191.604747 
L 144.283636 191.98168 
L 144.549818 192.268699 
L 144.816 192.206629 
L 145.348364 190.37161 
L 145.880727 189.306356 
L 146.146909 189.089028 
L 146.413091 189.086802 
L 146.679273 189.296223 
L 146.945455 189.732174 
L 147.477818 191.285463 
L 147.744 192.430318 
L 148.010182 192.771213 
L 148.276364 192.66257 
L 148.808727 192.029801 
L 149.341091 190.901661 
L 150.139636 188.503288 
L 151.204364 184.453221 
L 154.398545 171.492871 
L 155.197091 169.12797 
L 155.729455 167.976204 
L 156.261818 167.245402 
L 156.528 167.071954 
L 156.794182 167.046028 
L 157.060364 167.167899 
L 157.326545 167.450901 
L 157.858909 168.614559 
L 158.391273 170.641766 
L 158.923636 173.677753 
L 159.456 177.927341 
L 159.988364 183.584012 
L 160.520727 188.999061 
L 161.851636 168.648816 
L 162.650182 155.020475 
L 163.182545 148.566671 
L 163.714909 144.012225 
L 164.247273 141.095586 
L 164.779636 139.575176 
L 165.045818 139.257726 
L 165.312 139.175115 
L 165.578182 139.29705 
L 166.110545 139.992429 
L 167.441455 142.423046 
L 167.707636 142.67425 
L 167.973818 142.740793 
L 168.24 142.582905 
L 168.506182 142.123276 
L 168.772364 141.345116 
L 169.304727 138.617612 
L 169.837091 133.986129 
L 170.103273 130.826088 
L 170.635636 138.598173 
L 171.700364 154.120486 
L 172.498909 162.517444 
L 173.031273 166.271663 
L 173.563636 168.537672 
L 174.096 169.661137 
L 174.362182 169.851565 
L 174.628364 169.819809 
L 174.894545 169.584059 
L 175.426909 168.569809 
L 175.959273 166.970158 
L 177.024 163.12027 
L 178.088727 162.304631 
L 180.218182 160.24658 
L 181.815273 158.851518 
L 182.88 158.222448 
L 183.678545 158.064857 
L 184.210909 158.160844 
L 184.743273 158.44656 
L 185.009455 158.870575 
L 185.275636 159.734336 
L 186.340364 166.482822 
L 187.405091 174.875032 
L 188.469818 185.195576 
L 189.534545 197.464617 
L 189.800727 196.680712 
L 190.599273 188.567774 
L 191.397818 182.849606 
L 191.930182 180.350369 
L 192.462545 178.876532 
L 192.728727 178.477807 
L 192.994909 178.32153 
L 193.261091 178.365963 
L 193.527273 178.573031 
L 193.793455 178.441303 
L 194.059636 178.575405 
L 194.592 179.397723 
L 196.189091 182.900801 
L 196.721455 183.277395 
L 196.987636 183.266668 
L 197.253818 183.110243 
L 197.786182 182.226705 
L 198.318545 180.503572 
L 198.850909 177.829679 
L 199.383273 174.116819 
L 200.181818 166.397498 
L 200.714182 161.102603 
L 204.174545 146.832664 
L 205.239273 141.156321 
L 206.304 134.016761 
L 207.102545 128.173415 
L 208.965818 134.128945 
L 210.562909 139.303134 
L 214.289455 146.922292 
L 215.620364 150.402666 
L 216.951273 154.519996 
L 218.282182 159.408746 
L 218.814545 161.465885 
L 219.080727 162.062712 
L 219.346909 162.362461 
L 221.476364 162.845875 
L 224.936727 163.463498 
L 225.202909 164.055258 
L 225.469091 165.172385 
L 226.8 173.65206 
L 227.598545 172.880111 
L 228.130909 172.58812 
L 228.663273 172.470722 
L 229.195636 172.526877 
L 229.994182 172.843331 
L 231.058909 173.605041 
L 232.922182 175.171834 
L 233.720727 175.643737 
L 234.253091 175.806013 
L 234.785455 175.800798 
L 235.317818 175.595892 
L 235.850182 175.151526 
L 236.382545 174.434735 
L 236.914909 172.928465 
L 237.713455 169.75634 
L 238.512 165.693406 
L 239.310545 160.606173 
L 240.109091 154.336331 
L 240.907636 146.730995 
L 241.173818 147.830442 
L 243.303273 170.16204 
L 243.569455 171.4223 
L 244.101818 170.980181 
L 245.965091 169.062847 
L 246.497455 168.805474 
L 247.029818 168.788706 
L 247.562182 169.032448 
L 248.094545 169.560147 
L 248.626909 170.371271 
L 248.893091 171.214426 
L 250.224 176.904358 
L 251.288727 180.597609 
L 252.353455 183.456672 
L 252.885818 183.912167 
L 253.418182 184.097232 
L 253.950545 184.011123 
L 254.482909 183.659395 
L 255.015273 183.043489 
L 255.813818 181.643911 
L 256.612364 179.704107 
L 257.677091 176.366929 
L 258.741818 172.221659 
L 259.540364 166.928863 
L 260.072727 163.622996 
L 260.871273 161.2419 
L 262.202182 159.502486 
L 263.000727 157.659369 
L 264.597818 153.075075 
L 265.928727 149.59063 
L 266.727273 148.158343 
L 267.259636 147.639845 
L 267.792 147.555305 
L 268.058182 147.694644 
L 268.590545 148.381777 
L 269.122909 149.673983 
L 269.655273 151.645501 
L 270.187636 154.353142 
L 270.986182 159.934282 
L 272.317091 170.786977 
L 273.115636 174.949969 
L 273.914182 178.078615 
L 274.978909 181.271769 
L 275.777455 182.91617 
L 276.309818 183.604532 
L 276.576 183.84378 
L 276.842182 183.812322 
L 277.374545 183.206379 
L 277.906909 182.33609 
L 278.439273 181.11157 
L 278.971636 179.439717 
L 279.504 177.228528 
L 280.302545 172.72676 
L 280.568727 170.870436 
L 280.834909 170.028192 
L 281.367273 170.215673 
L 282.165818 170.180504 
L 284.029091 169.796787 
L 284.561455 169.920333 
L 285.093818 170.276852 
L 285.626182 170.916119 
L 286.424727 172.107844 
L 287.223273 171.992693 
L 288.288 171.585466 
L 289.885091 170.976026 
L 290.683636 170.870987 
L 291.482182 170.975793 
L 292.280727 171.325253 
L 293.079273 171.928227 
L 293.345455 172.183459 
L 293.611636 173.936228 
L 293.877818 174.637395 
L 294.410182 169.466321 
L 294.942545 166.419417 
L 295.208727 165.582176 
L 295.474909 165.142792 
L 295.741091 165.055814 
L 296.007273 165.276682 
L 296.539636 166.507264 
L 297.072 168.514947 
L 298.669091 176.40674 
L 299.733818 181.33793 
L 300.532364 184.082817 
L 301.064727 185.216627 
L 301.330909 185.525343 
L 301.597091 185.652725 
L 301.863273 185.571047 
L 302.129455 185.276492 
L 302.661818 183.98384 
L 303.194182 181.657521 
L 303.726545 178.193024 
L 303.992727 175.961272 
L 305.323636 159.337921 
L 306.654545 145.382252 
L 307.719273 136.031566 
L 307.985455 135.218492 
L 308.517818 134.573353 
L 309.050182 134.342479 
L 309.582545 134.517262 
L 309.848727 134.744511 
L 310.114909 135.410531 
L 310.913455 139.154023 
L 311.978182 145.588091 
L 313.575273 156.970476 
L 314.373818 162.885156 
L 314.64 163.991577 
L 315.704727 160.225064 
L 316.503273 158.464091 
L 317.568 156.860688 
L 318.632727 155.228816 
L 319.431273 153.432336 
L 319.963636 151.765888 
L 320.762182 148.326406 
L 321.560727 144.24081 
L 322.093091 144.291538 
L 322.359273 144.650008 
L 323.157818 147.077317 
L 324.754909 152.953734 
L 326.618182 159.831659 
L 327.150545 161.187334 
L 327.682909 161.920787 
L 327.949091 162.061758 
L 328.215273 162.063623 
L 329.28 157.916933 
L 330.078545 155.778942 
L 330.877091 154.366073 
L 331.675636 153.507697 
L 332.474182 153.104286 
L 333.272727 153.069669 
L 335.934545 153.501888 
L 336.999273 153.479206 
L 337.797818 153.261411 
L 338.596364 152.774859 
L 339.394909 151.887293 
L 339.927273 150.999578 
L 340.459636 149.802405 
L 340.992 148.5838 
L 341.790545 151.703712 
L 342.855273 156.911862 
L 344.718545 166.586844 
L 346.315636 174.079446 
L 346.848 175.918663 
L 347.380364 177.104346 
L 347.646545 177.402314 
L 347.912727 177.512187 
L 348.178909 177.371746 
L 348.445091 177.021078 
L 348.977455 175.548364 
L 349.509818 173.014001 
L 350.042182 169.353629 
L 350.840727 161.673292 
L 351.639273 151.347766 
L 351.905455 147.553969 
L 352.171636 146.291568 
L 354.301091 156.538024 
L 355.632 161.76699 
L 356.696727 165.060159 
L 357.761455 167.566498 
L 358.826182 169.372856 
L 359.890909 170.612893 
L 360.689455 173.300162 
L 361.221818 174.590016 
L 361.754182 175.386915 
L 362.020364 175.583936 
L 362.286545 175.635364 
L 362.552727 175.533356 
L 362.818909 175.267631 
L 363.351273 174.193262 
L 363.883636 172.349063 
L 364.416 168.911489 
L 364.948364 169.355664 
L 365.214545 169.413834 
L 365.746909 169.18527 
L 366.279273 168.534365 
L 366.811636 167.51685 
L 367.610182 165.393402 
L 368.674909 161.648363 
L 370.005818 155.925319 
L 371.070545 150.275177 
L 372.933818 138.710059 
L 373.732364 133.612694 
L 373.998545 133.252105 
L 376.128 149.630653 
L 377.192727 156.728536 
L 377.991273 160.573379 
L 378.789818 163.25202 
L 379.588364 165.125388 
L 380.653091 166.969183 
L 381.984 169.305784 
L 382.782545 171.252584 
L 383.581091 173.934532 
L 384.379636 177.579832 
L 384.912 180.643589 
L 385.178182 180.301273 
L 385.976727 175.56066 
L 387.041455 169.731898 
L 387.84 165.526297 
L 388.638545 162.728901 
L 389.170909 161.548581 
L 389.703273 160.849322 
L 390.235636 160.595977 
L 390.768 160.720964 
L 391.300364 161.192676 
L 391.832727 161.966131 
L 392.631273 163.613181 
L 393.163636 164.984629 
L 394.228364 168.988101 
L 396.091636 176.01554 
L 396.890182 178.311652 
L 397.422545 179.523727 
L 397.954909 177.650762 
L 398.753455 173.184545 
L 399.552 167.059574 
L 400.350545 159.336331 
L 400.616727 156.425438 
L 400.882909 156.201707 
L 401.681455 162.492366 
L 402.48 167.17445 
L 403.278545 170.563797 
L 404.077091 172.898448 
L 404.875636 174.388756 
L 405.408 174.997708 
L 405.940364 175.355923 
L 406.472727 175.501833 
L 407.005091 175.470968 
L 407.803636 175.151695 
L 408.602182 174.57524 
L 409.666909 173.507188 
L 409.933091 172.711051 
L 410.731636 169.446967 
L 411.264 167.871419 
L 411.796364 166.801459 
L 412.328727 166.215571 
L 412.594909 166.103176 
L 412.861091 165.422275 
L 413.659636 161.070445 
L 414.192 159.396896 
L 414.724364 158.688861 
L 414.990545 158.55355 
L 415.256727 158.549967 
L 415.789091 158.873586 
L 416.321455 159.591584 
L 417.12 161.302761 
L 417.918545 163.633956 
L 418.983273 167.583478 
L 420.048 172.427625 
L 421.112727 178.179415 
L 422.443636 186.772502 
L 423.774545 197.103434 
L 425.105455 209.327343 
L 426.436364 223.382498 
L 426.436364 223.382498 
" clip-path="url(#p63fb76870e)" style="fill: none; stroke: #ffa500; stroke-width: 3; stroke-linecap: square"/>
   </g>
   <g id="patch_3">
    <path d="M 7.2 331.2 
L 7.2 7.2 
" style="fill: none; stroke: #000000; stroke-width: 0.8; stroke-linejoin: miter; stroke-linecap: square"/>
   </g>
   <g id="patch_4">
    <path d="M 446.4 331.2 
L 446.4 7.2 
" style="fill: none; stroke: #000000; stroke-width: 0.8; stroke-linejoin: miter; stroke-linecap: square"/>
   </g>
   <g id="patch_5">
    <path d="M 7.2 331.2 
L 446.4 331.2 
" style="fill: none; stroke: #000000; stroke-width: 0.8; stroke-linejoin: miter; stroke-linecap: square"/>
   </g>
   <g id="patch_6">
    <path d="M 7.2 7.2 
L 446.4 7.2 
" style="fill: none; stroke: #000000; stroke-width: 0.8; stroke-linejoin: miter; stroke-linecap: square"/>
   </g>
  </g>
 </g>
 <defs>
  <clipPath id="p63fb76870e">
   <rect x="7.2" y="7.2" width="439.2" height="324"/>
  </clipPath>
 </defs>
</svg>
