<?xml version="1.0" encoding="utf-8" standalone="no"?>
<!DOCTYPE svg PUBLIC "-//W3C//DTD SVG 1.1//EN"
  "http://www.w3.org/Graphics/SVG/1.1/DTD/svg11.dtd">
<svg xmlns:xlink="http://www.w3.org/1999/xlink" width="453.6pt" height="338.4pt" viewBox="0 0 453.6 338.4" xmlns="http://www.w3.org/2000/svg" version="1.1">
 <metadata>
  <rdf:RDF xmlns:dc="http://purl.org/dc/elements/1.1/" xmlns:cc="http://creativecommons.org/ns#" xmlns:rdf="http://www.w3.org/1999/02/22-rdf-syntax-ns#">
   <cc:Work>
    <dc:type rdf:resource="http://purl.org/dc/dcmitype/StillImage"/>
    <dc:date>2025-05-14T09:02:44.941001</dc:date>
    <dc:format>image/svg+xml</dc:format>
    <dc:creator>
     <cc:Agent>
      <dc:title>Matplotlib v3.10.1, https://matplotlib.org/</dc:title>
     </cc:Agent>
    </dc:creator>
   </cc:Work>
  </rdf:RDF>
 </metadata>
 <defs>
  <style type="text/css">*{stroke-linejoin: round; stroke-linecap: butt}</style>
 </defs>
 <g id="figure_1">
  <g id="patch_1">
   <path d="M 0 338.4 
L 453.6 338.4 
L 453.6 0 
L 0 0 
z
" style="fill: #ffffff"/>
  </g>
  <g id="axes_1">
   <g id="patch_2">
    <path d="M 7.2 331.2 
L 446.4 331.2 
L 446.4 7.2 
L 7.2 7.2 
z
" style="fill: #ffffff"/>
   </g>
   <g id="matplotlib.axis_1"/>
   <g id="matplotlib.axis_2"/>
   <g id="line2d_1">
    <path d="M 27.163636 202.267848 
L 28.760727 212.308093 
L 30.357818 221.070745 
L 31.954909 228.555836 
L 33.285818 233.817483 
L 34.616727 238.191937 
L 35.681455 241.052693 
L 36.746182 243.345655 
L 37.810909 245.070796 
L 38.609455 245.992027 
L 39.408 246.593865 
L 40.206545 246.876305 
L 41.005091 246.839362 
L 41.803636 246.48301 
L 42.602182 245.807276 
L 43.400727 244.812144 
L 44.199273 243.497624 
L 45.264 241.248088 
L 46.328727 238.430736 
L 47.393455 235.045573 
L 48.724364 230.015664 
L 50.055273 224.098509 
L 51.652364 215.826841 
L 53.249455 206.27759 
L 54.846545 195.450778 
L 56.709818 181.20476 
L 58.573091 165.21982 
L 60.702545 144.822026 
L 62.033455 131.728245 
L 67.889455 152.811686 
L 73.745455 173.047492 
L 79.335273 191.572822 
L 84.925091 209.325854 
L 90.248727 225.515465 
L 95.572364 241.004559 
L 100.896 255.793162 
L 105.953455 269.193498 
L 111.010909 281.961603 
L 115.802182 293.474565 
L 120.593455 304.42009 
L 125.384727 314.798204 
L 126.183273 316.472727 
L 126.715636 313.00477 
L 130.708364 285.095491 
L 134.434909 260.597648 
L 138.161455 237.597013 
L 141.621818 217.579958 
L 145.082182 198.853935 
L 148.276364 182.714216 
L 151.470545 167.67458 
L 154.664727 153.734943 
L 157.592727 141.923354 
L 160.520727 131.036073 
L 163.182545 121.940669 
L 165.844364 113.609122 
L 168.506182 106.041538 
L 170.901818 99.883869 
L 173.297455 94.34496 
L 175.426909 89.940924 
L 177.556364 86.025831 
L 179.685818 82.599616 
L 181.549091 80.002757 
L 183.412364 77.780197 
L 185.275636 75.931979 
L 186.872727 74.645715 
L 188.469818 73.63445 
L 190.066909 72.898185 
L 191.664 72.436941 
L 192.994909 72.262651 
L 194.325818 72.279341 
L 195.656727 72.487011 
L 196.987636 72.885641 
L 198.584727 73.616118 
L 200.181818 74.621616 
L 201.778909 75.902092 
L 203.376 77.457589 
L 205.239273 79.619913 
L 206.836364 81.771249 
L 213.224727 108.632756 
L 216.418909 120.661203 
L 219.346909 130.848587 
L 222.274909 140.23385 
L 224.936727 148.069783 
L 227.598545 155.242748 
L 230.260364 161.752774 
L 232.656 167.044981 
L 235.051636 171.800175 
L 237.181091 175.576211 
L 239.310545 178.927941 
L 241.44 181.855384 
L 243.303273 184.068841 
L 245.166545 185.95748 
L 247.029818 187.521249 
L 248.626909 188.603042 
L 250.224 189.446215 
L 251.821091 190.050694 
L 253.418182 190.416512 
L 255.015273 190.543678 
L 256.612364 190.432171 
L 258.209455 190.081991 
L 259.806545 189.493171 
L 261.403636 188.665657 
L 263.000727 187.599512 
L 264.597818 186.294674 
L 266.461091 184.470733 
L 268.324364 182.321954 
L 270.187636 179.848314 
L 272.317091 176.62354 
L 274.446545 172.974427 
L 276.576 168.90104 
L 278.971636 163.811325 
L 280.302545 160.751686 
L 280.568727 160.520716 
L 284.561455 160.036089 
L 288.554182 159.320503 
L 292.546909 158.373947 
L 296.539636 157.196453 
L 300.532364 155.787969 
L 304.525091 154.148505 
L 308.517818 152.278124 
L 312.776727 150.028435 
L 317.035636 147.515996 
L 321.294545 144.740764 
L 325.553455 141.702739 
L 329.812364 138.401944 
L 334.337455 134.606902 
L 338.862545 130.515224 
L 343.387636 126.126847 
L 348.178909 121.157006 
L 351.106909 117.956184 
L 351.639273 119.064475 
L 371.070545 166.487637 
L 390.501818 214.485254 
L 410.199273 263.726795 
L 426.436364 304.761672 
L 426.436364 304.761672 
" clip-path="url(#p1cb2bde470)" style="fill: none; stroke-dasharray: 11.1,4.8; stroke-dashoffset: 0; stroke: #000000; stroke-width: 3"/>
   </g>
   <g id="line2d_2">
    <path d="M 27.163636 168.119797 
L 27.429818 170.181264 
L 27.962182 181.687956 
L 28.494545 190.177544 
L 28.760727 192.744285 
L 29.026909 193.815386 
L 29.293091 196.100056 
L 30.624 201.196431 
L 30.890182 201.819863 
L 31.422545 202.060157 
L 31.954909 202.463185 
L 32.221091 202.469436 
L 32.487273 202.679737 
L 33.019636 202.350584 
L 33.285818 202.177872 
L 33.552 202.38127 
L 33.818182 202.275299 
L 34.350545 202.600011 
L 34.616727 203.057615 
L 34.882909 203.147211 
L 35.149091 203.436018 
L 35.415273 203.52993 
L 35.681455 202.359381 
L 36.48 202.510772 
L 36.746182 202.743131 
L 37.012364 202.822457 
L 37.810909 203.857441 
L 38.343273 204.01523 
L 38.609455 203.942303 
L 38.875636 204.015083 
L 39.141818 203.871227 
L 39.408 203.899956 
L 39.674182 203.801225 
L 39.940364 202.572166 
L 40.206545 202.526473 
L 40.738909 202.852428 
L 41.005091 203.143318 
L 41.803636 203.174383 
L 42.069818 202.975805 
L 42.602182 202.437192 
L 43.400727 201.761984 
L 43.933091 201.963614 
L 44.199273 201.41593 
L 44.997818 202.198267 
L 45.264 202.356119 
L 46.861091 201.760195 
L 47.127273 201.726457 
L 47.393455 201.839879 
L 47.659636 201.769835 
L 47.925818 201.989755 
L 48.192 202.007055 
L 48.458182 200.951318 
L 49.256727 200.421061 
L 50.853818 198.727769 
L 51.652364 198.626113 
L 51.918545 198.41177 
L 52.184727 198.517026 
L 52.450909 198.464767 
L 52.717091 199.148814 
L 53.249455 199.278926 
L 54.846545 198.686623 
L 55.645091 197.942697 
L 56.177455 197.182691 
L 56.976 196.237282 
L 57.242182 196.04165 
L 58.040727 194.428169 
L 58.573091 193.118058 
L 59.105455 191.437037 
L 60.170182 188.688956 
L 60.702545 187.31179 
L 60.968727 186.307092 
L 61.234909 183.371671 
L 61.501091 183.864991 
L 61.767273 183.853099 
L 62.033455 183.648312 
L 62.299636 183.66294 
L 62.832 184.340358 
L 63.098182 184.269619 
L 63.364364 184.384662 
L 64.162909 185.360104 
L 64.429091 185.459488 
L 64.695273 185.837344 
L 64.961455 186.596403 
L 65.227636 187.012586 
L 66.026182 189.760225 
L 66.558545 190.526756 
L 67.090909 191.577168 
L 67.623273 191.424262 
L 67.889455 191.612232 
L 68.155636 191.990046 
L 68.688 192.099511 
L 68.954182 192.557472 
L 69.220364 193.256905 
L 69.486545 193.565391 
L 70.285091 194.968444 
L 71.349818 195.63075 
L 71.882182 195.414388 
L 72.680727 196.277587 
L 72.946909 196.230842 
L 73.213091 196.326963 
L 73.479273 196.546904 
L 73.745455 196.475828 
L 75.076364 195.627888 
L 75.874909 196.65357 
L 76.141091 196.837163 
L 76.673455 197.526956 
L 76.939636 197.545856 
L 77.472 197.079013 
L 77.738182 196.985796 
L 78.004364 196.744661 
L 78.270545 196.237724 
L 78.536727 196.290278 
L 79.069091 197.115824 
L 79.601455 198.342273 
L 80.133818 199.398915 
L 80.932364 200.444023 
L 81.198545 200.470143 
L 81.464727 200.268239 
L 81.730909 200.269312 
L 82.529455 201.331658 
L 83.594182 203.333519 
L 84.126545 204.164874 
L 85.723636 205.041965 
L 87.320727 206.854571 
L 87.853091 207.257032 
L 88.385455 207.50587 
L 88.917818 207.564949 
L 91.047273 208.95891 
L 91.845818 208.858664 
L 92.378182 208.79184 
L 92.910545 208.984251 
L 93.975273 209.43232 
L 94.507636 209.374735 
L 95.04 209.151953 
L 95.306182 209.15431 
L 96.637091 209.716454 
L 98.500364 209.973164 
L 99.032727 210.204764 
L 99.831273 210.34056 
L 100.629818 210.224927 
L 101.162182 210.287711 
L 101.960727 210.215246 
L 102.759273 210.087112 
L 103.291636 210.074105 
L 104.356364 210.002377 
L 104.888727 210.066781 
L 105.154909 210.395261 
L 105.687273 211.642062 
L 106.219636 212.0883 
L 107.284364 212.190041 
L 108.082909 212.175518 
L 108.349091 212.153272 
L 108.615273 211.99885 
L 110.478545 211.942739 
L 110.744727 211.968942 
L 111.543273 212.549544 
L 112.608 213.374396 
L 113.406545 213.459867 
L 114.471273 213.181142 
L 116.068364 212.885432 
L 116.334545 212.710174 
L 117.399273 211.250883 
L 117.665455 210.752386 
L 118.464 210.051164 
L 118.730182 209.969775 
L 118.996364 210.087196 
L 119.794909 209.550078 
L 120.061091 209.27089 
L 120.859636 207.684453 
L 121.658182 206.809447 
L 121.924364 206.679082 
L 122.190545 206.709621 
L 122.456727 206.532511 
L 123.255273 206.431864 
L 124.053818 205.835456 
L 125.118545 205.282637 
L 130.442182 207.346502 
L 130.974545 207.283277 
L 132.039273 206.949388 
L 133.104 206.295985 
L 133.370182 206.238842 
L 134.168727 206.512243 
L 135.233455 206.490227 
L 135.765818 206.229056 
L 137.629091 207.211212 
L 137.895273 207.114796 
L 138.161455 207.18181 
L 138.96 206.548001 
L 139.226182 206.544297 
L 139.492364 206.286072 
L 139.758545 206.379541 
L 140.024727 206.597672 
L 140.290909 207.170423 
L 141.355636 208.159294 
L 142.952727 208.754523 
L 143.218909 208.928897 
L 143.751273 209.452272 
L 144.816 210.312314 
L 145.082182 210.474376 
L 145.348364 210.491719 
L 145.880727 210.683941 
L 146.679273 210.822682 
L 147.211636 210.581147 
L 148.010182 209.818174 
L 148.542545 208.962446 
L 148.808727 208.904167 
L 149.074909 208.399061 
L 149.607273 207.952045 
L 149.873455 207.591236 
L 150.405818 205.305536 
L 151.204364 203.738547 
L 151.470545 203.669555 
L 152.002909 204.118066 
L 152.269091 203.766287 
L 152.535273 203.713291 
L 153.067636 204.063681 
L 154.132364 201.660538 
L 154.664727 199.098617 
L 154.930909 197.729259 
L 155.197091 197.14287 
L 155.463273 196.016562 
L 155.729455 195.499607 
L 155.995636 195.617596 
L 156.261818 195.87559 
L 157.060364 194.132164 
L 157.326545 193.85365 
L 157.858909 191.74607 
L 158.391273 190.49487 
L 158.923636 188.305438 
L 159.456 187.646457 
L 160.254545 184.45498 
L 160.520727 184.09535 
L 161.053091 182.803635 
L 161.585455 182.583441 
L 162.117818 180.584695 
L 162.384 180.168912 
L 162.650182 180.013249 
L 163.448727 177.172077 
L 163.714909 176.808406 
L 163.981091 175.975578 
L 164.513455 173.690445 
L 164.779636 172.90272 
L 166.110545 165.933144 
L 166.642909 161.728465 
L 166.909091 160.313604 
L 167.973818 151.762832 
L 169.038545 145.35563 
L 169.837091 140.303179 
L 170.103273 139.728913 
L 170.369455 138.732655 
L 170.901818 136.153328 
L 171.168 135.983331 
L 171.700364 134.610859 
L 171.966545 133.898103 
L 172.232727 134.004348 
L 172.498909 133.193367 
L 173.563636 125.590129 
L 174.096 117.84897 
L 174.362182 115.993133 
L 175.160727 107.835434 
L 175.426909 107.295727 
L 175.959273 101.842773 
L 176.757818 91.959454 
L 177.290182 83.610018 
L 177.556364 81.870823 
L 178.354909 74.876768 
L 178.621091 74.965397 
L 178.887273 73.378287 
L 179.685818 65.503123 
L 179.952 59.135216 
L 180.484364 41.137555 
L 181.282909 30.900184 
L 181.549091 29.61956 
L 181.815273 30.107934 
L 182.081455 29.960858 
L 182.613818 29.049861 
L 182.88 29.506138 
L 183.146182 28.792162 
L 183.678545 26.134982 
L 183.944727 25.972836 
L 184.477091 24.525584 
L 184.743273 24.429904 
L 185.009455 25.009685 
L 185.275636 24.577254 
L 185.541818 23.592088 
L 185.808 23.250075 
L 186.074182 24.101845 
L 186.340364 24.301623 
L 186.872727 23.326875 
L 187.138909 23.583416 
L 187.405091 23.214589 
L 187.671273 22.228265 
L 187.937455 21.927273 
L 188.203636 22.549884 
L 188.469818 22.687636 
L 188.736 22.268907 
L 189.002182 22.418909 
L 189.534545 24.323617 
L 189.800727 24.116326 
L 190.066909 24.229558 
L 190.333091 24.932653 
L 190.599273 25.105449 
L 191.131636 24.177362 
L 191.397818 24.550398 
L 191.664 24.394945 
L 191.930182 23.519897 
L 192.196364 23.273647 
L 192.728727 24.663294 
L 192.994909 24.754554 
L 193.261091 25.319539 
L 193.527273 26.491855 
L 193.793455 26.980944 
L 194.059636 26.616768 
L 194.325818 26.713669 
L 194.592 27.47418 
L 194.858182 27.654363 
L 195.124364 26.986269 
L 195.390545 26.730611 
L 195.922909 27.907074 
L 196.189091 27.632306 
L 196.455273 28.029167 
L 196.987636 29.702717 
L 197.253818 29.994407 
L 197.52 30.811029 
L 198.052364 33.485551 
L 198.318545 33.433818 
L 198.584727 34.216975 
L 199.383273 37.795591 
L 200.448 42.095865 
L 201.778909 53.081792 
L 202.577455 63.868131 
L 203.376 82.489161 
L 204.174545 96.489098 
L 204.440727 99.358137 
L 204.706909 100.867331 
L 205.239273 105.190925 
L 206.037818 110.641394 
L 206.836364 116.915622 
L 207.634909 126.796373 
L 208.433455 132.433508 
L 208.699636 133.709375 
L 208.965818 134.412302 
L 209.498182 137.601296 
L 209.764364 140.094835 
L 210.296727 147.10156 
L 210.829091 150.57614 
L 211.361455 152.225381 
L 211.627636 152.601637 
L 212.16 154.052152 
L 212.426182 154.426662 
L 213.224727 154.777578 
L 213.757091 155.723934 
L 215.620364 161.021055 
L 215.886545 161.317881 
L 216.951273 164.188919 
L 217.217455 166.251648 
L 217.749818 174.465626 
L 218.548364 179.458198 
L 219.346909 181.731818 
L 219.879273 183.008927 
L 220.145455 183.425088 
L 220.677818 184.735388 
L 220.944 185.041685 
L 221.210182 185.145972 
L 222.541091 186.413884 
L 223.339636 188.01259 
L 223.605818 189.036315 
L 224.670545 194.666126 
L 224.936727 195.745288 
L 225.202909 196.226316 
L 225.469091 196.29634 
L 226.8 198.278669 
L 227.332364 199.66859 
L 228.397091 199.862685 
L 228.663273 199.443977 
L 229.195636 199.306329 
L 229.728 198.776683 
L 229.994182 198.974629 
L 231.058909 200.482876 
L 231.591273 201.112517 
L 232.656 200.270028 
L 232.922182 199.992776 
L 233.720727 200.268786 
L 233.986909 200.254053 
L 234.519273 200.736071 
L 234.785455 200.888283 
L 235.051636 200.850335 
L 235.317818 201.093364 
L 235.850182 201.035969 
L 236.116364 200.928482 
L 236.648727 201.132133 
L 236.914909 201.199062 
L 237.181091 201.109234 
L 237.447273 201.317136 
L 237.713455 201.275105 
L 238.245818 200.738849 
L 238.512 200.695135 
L 239.310545 200.174033 
L 239.842909 200.416283 
L 240.641455 200.400561 
L 240.907636 200.240225 
L 241.44 199.564302 
L 241.706182 199.518504 
L 241.972364 199.352843 
L 242.238545 198.965684 
L 242.504727 198.866637 
L 242.770909 199.182384 
L 243.303273 199.329502 
L 244.101818 200.213896 
L 244.368 200.196806 
L 244.900364 200.710688 
L 245.166545 200.589268 
L 245.698909 200.008793 
L 245.965091 200.066609 
L 246.763636 198.993319 
L 247.029818 199.109162 
L 247.562182 198.429997 
L 247.828364 198.478552 
L 248.094545 198.65501 
L 248.360727 198.276102 
L 248.893091 197.242422 
L 249.159273 197.043696 
L 249.691636 195.687493 
L 249.957818 195.540459 
L 250.224 195.750402 
L 250.490182 195.443432 
L 250.756364 194.923446 
L 251.022545 194.848329 
L 251.288727 195.01479 
L 251.554909 194.62258 
L 252.087273 193.639244 
L 252.353455 193.521234 
L 252.885818 192.491048 
L 253.152 192.31017 
L 253.418182 192.309602 
L 255.281455 190.202548 
L 255.547636 189.797815 
L 256.08 188.622489 
L 257.943273 186.025315 
L 258.209455 185.699718 
L 259.540364 184.965347 
L 259.806545 185.026762 
L 260.605091 184.818524 
L 261.137455 184.875161 
L 261.403636 184.741871 
L 261.936 184.714531 
L 262.734545 184.338274 
L 263.266909 184.389334 
L 263.533091 184.227799 
L 264.331636 184.240953 
L 264.597818 184.076639 
L 265.130182 184.14399 
L 266.194909 183.938992 
L 266.461091 183.928763 
L 266.727273 183.700488 
L 269.122909 183.203737 
L 269.389091 183.202201 
L 269.655273 183.032331 
L 270.187636 182.476922 
L 270.453818 182.251131 
L 270.986182 181.335461 
L 271.252364 181.282781 
L 271.518545 181.438655 
L 272.583273 181.390604 
L 272.849455 181.00454 
L 273.115636 180.422023 
L 273.381818 180.284691 
L 273.648 179.939121 
L 274.180364 178.601944 
L 274.446545 178.508833 
L 275.245091 179.292874 
L 275.777455 180.23944 
L 276.043636 180.279956 
L 276.842182 179.949939 
L 277.374545 178.848952 
L 277.640727 178.855771 
L 278.439273 179.364371 
L 278.971636 180.24868 
L 279.237818 180.266928 
L 279.770182 180.131575 
L 280.036364 180.180383 
L 280.834909 179.200499 
L 281.101091 179.250591 
L 281.367273 179.146429 
L 281.899636 179.405917 
L 282.165818 179.8812 
L 282.964364 179.941794 
L 283.230545 180.056058 
L 283.496727 179.914118 
L 284.029091 179.457609 
L 284.295273 179.578292 
L 284.827636 179.641391 
L 285.36 180.17409 
L 285.892364 180.072959 
L 286.158545 180.139446 
L 286.424727 180.343265 
L 287.223273 180.135048 
L 287.755636 180.494361 
L 288.288 180.887477 
L 288.554182 181.25563 
L 289.086545 181.250137 
L 289.618909 181.210358 
L 290.151273 180.701463 
L 290.417455 180.745957 
L 290.683636 180.956679 
L 291.216 180.99972 
L 291.482182 181.177967 
L 291.748364 181.490956 
L 292.014545 181.549951 
L 292.546909 181.450357 
L 292.813091 181.5449 
L 293.079273 181.476097 
L 293.877818 180.977831 
L 294.410182 180.739558 
L 294.676364 180.86664 
L 294.942545 181.156036 
L 295.208727 181.183271 
L 295.741091 180.999341 
L 296.007273 181.073027 
L 296.539636 180.893706 
L 296.805818 180.781926 
L 297.338182 180.999657 
L 297.870545 181.334661 
L 298.136727 181.661142 
L 298.669091 181.756169 
L 298.935273 181.609388 
L 299.467636 181.905813 
L 300 181.849912 
L 301.863273 183.33627 
L 302.129455 183.373229 
L 302.928 183.749885 
L 303.194182 183.705013 
L 303.992727 183.984075 
L 304.258909 184.032356 
L 304.791273 184.321037 
L 305.589818 184.403078 
L 305.856 184.52073 
L 307.186909 184.484066 
L 307.453091 184.132498 
L 307.985455 184.368498 
L 308.517818 184.253434 
L 309.050182 184.46826 
L 309.848727 184.366624 
L 310.114909 184.460788 
L 310.647273 184.429428 
L 311.179636 184.703018 
L 311.978182 184.669616 
L 312.244364 184.728737 
L 312.776727 184.533274 
L 313.841455 184.89947 
L 314.64 185.246409 
L 315.172364 185.323525 
L 315.704727 185.46054 
L 315.970909 185.300331 
L 317.035636 185.524734 
L 317.834182 185.768542 
L 319.431273 185.858181 
L 321.294545 186.02965 
L 324.222545 186.083383 
L 324.488727 185.764648 
L 325.287273 185.844605 
L 326.884364 186.04211 
L 327.416727 186.147556 
L 329.013818 186.221704 
L 330.344727 186.438614 
L 335.402182 186.742616 
L 335.934545 186.946751 
L 336.466909 186.947698 
L 336.999273 187.160062 
L 337.531636 186.939574 
L 338.064 187.041189 
L 338.596364 186.90009 
L 339.128727 186.998442 
L 339.927273 186.831266 
L 340.193455 186.828846 
L 340.992 186.491547 
L 341.790545 186.328791 
L 342.589091 186.173885 
L 343.387636 185.506907 
L 344.186182 183.999292 
L 344.984727 182.449246 
L 345.783273 181.690503 
L 346.315636 181.469804 
L 346.848 181.239466 
L 347.380364 180.923951 
L 348.977455 180.451931 
L 350.042182 180.357872 
L 352.171636 179.492926 
L 352.704 179.593635 
L 353.236364 179.704153 
L 354.301091 179.666984 
L 355.099636 179.476719 
L 355.898182 179.484507 
L 356.430545 179.532746 
L 356.962909 179.505954 
L 357.495273 179.522433 
L 358.293818 179.506396 
L 358.56 177.503756 
L 359.092364 177.719108 
L 359.358545 177.905858 
L 360.689455 177.564392 
L 361.221818 177.282931 
L 361.754182 177.521035 
L 363.085091 178.744201 
L 363.617455 178.883679 
L 364.149818 178.910577 
L 364.682182 178.917754 
L 365.214545 179.118226 
L 365.746909 179.571557 
L 366.279273 179.923883 
L 367.344 180.099541 
L 368.142545 179.926872 
L 368.674909 179.921252 
L 370.804364 180.555082 
L 371.869091 180.560596 
L 373.2 181.021567 
L 373.732364 181.279497 
L 374.264727 181.403843 
L 375.063273 182.00928 
L 375.329455 182.586724 
L 375.595636 183.865286 
L 376.128 184.591006 
L 376.660364 184.906184 
L 377.458909 185.171229 
L 377.991273 185.738697 
L 379.322182 185.954407 
L 381.717818 186.203814 
L 382.782545 186.807525 
L 383.581091 187.34357 
L 383.847273 187.529163 
L 384.113455 187.369016 
L 384.912 187.921162 
L 386.509091 190.673958 
L 387.307636 191.116681 
L 388.372364 191.548081 
L 389.170909 193.110103 
L 389.703273 193.873139 
L 390.768 194.777738 
L 391.566545 194.868955 
L 392.098909 194.595155 
L 392.365091 194.66983 
L 392.897455 195.181419 
L 393.962182 196.29594 
L 394.494545 196.605856 
L 395.559273 198.109157 
L 395.825455 198.549607 
L 396.357818 198.83372 
L 396.624 199.109519 
L 396.890182 198.936745 
L 397.156364 199.039517 
L 397.688727 199.778076 
L 398.221091 200.511374 
L 399.818182 204.09241 
L 400.350545 204.491944 
L 400.616727 204.897877 
L 403.012364 210.353314 
L 405.141818 211.393181 
L 405.408 211.192625 
L 406.206545 212.008279 
L 406.472727 211.685608 
L 407.005091 211.475475 
L 407.271273 211.637831 
L 407.537455 211.639515 
L 407.803636 212.299653 
L 408.336 214.620629 
L 408.602182 214.892198 
L 408.868364 214.970871 
L 409.400727 214.818512 
L 409.666909 213.088241 
L 410.199273 211.560968 
L 410.731636 211.49547 
L 410.997818 212.274923 
L 411.264 213.678314 
L 411.530182 214.440298 
L 411.796364 214.675288 
L 412.328727 214.721401 
L 414.724364 214.29379 
L 416.321455 214.503818 
L 417.918545 214.313174 
L 418.184727 213.735162 
L 418.450909 213.743686 
L 419.249455 213.169756 
L 419.515636 213.188677 
L 419.781818 213.018555 
L 420.314182 212.879497 
L 420.580364 213.037539 
L 421.378909 212.513785 
L 421.645091 212.540683 
L 422.177455 211.731743 
L 422.443636 210.663988 
L 422.709818 210.810496 
L 423.508364 208.585537 
L 423.774545 208.700306 
L 424.839273 205.482499 
L 425.371636 200.91979 
L 425.904 188.388742 
L 426.170182 170.516647 
L 426.436364 139.986022 
L 426.436364 139.986022 
" clip-path="url(#p1cb2bde470)" style="fill: none; stroke-dasharray: 3,4.95; stroke-dashoffset: 0; stroke: #ff0000; stroke-width: 3"/>
   </g>
   <g id="line2d_3">
    <path d="M 27.163636 148.730953 
L 27.429818 177.752068 
L 27.696 190.111289 
L 28.228364 202.009749 
L 28.760727 209.057368 
L 29.026909 210.264285 
L 29.825455 217.369026 
L 30.091636 218.539995 
L 30.357818 221.167456 
L 30.624 222.377025 
L 30.890182 224.222676 
L 31.156364 224.536991 
L 31.422545 225.302132 
L 31.688727 225.709097 
L 31.954909 225.88627 
L 32.487273 225.305837 
L 33.285818 223.337398 
L 33.552 223.649356 
L 33.818182 224.193042 
L 34.616727 227.098028 
L 35.415273 228.067115 
L 35.681455 227.120296 
L 36.213818 227.61351 
L 36.48 228.001027 
L 37.544727 230.918684 
L 37.810909 231.368373 
L 38.077091 231.427473 
L 38.343273 231.293993 
L 39.674182 229.871092 
L 39.940364 228.780649 
L 40.472727 229.957721 
L 41.005091 231.194736 
L 41.271273 231.379612 
L 41.537455 231.382812 
L 41.803636 231.10074 
L 42.336 229.852571 
L 42.868364 228.243783 
L 43.134545 227.857108 
L 43.400727 227.745938 
L 43.933091 228.479214 
L 44.199273 228.348428 
L 44.731636 228.97024 
L 44.997818 228.973944 
L 45.264 228.860164 
L 45.796364 227.846374 
L 46.594909 226.026022 
L 47.127273 225.778215 
L 47.393455 225.826497 
L 48.192 225.167684 
L 48.458182 223.563274 
L 48.990545 222.178005 
L 49.789091 220.260795 
L 50.587636 219.222885 
L 51.386182 217.498212 
L 51.652364 217.233567 
L 52.450909 216.037889 
L 52.717091 216.711687 
L 52.983273 216.743215 
L 53.781818 215.919563 
L 56.709818 208.977811 
L 58.573091 201.139794 
L 59.105455 198.737493 
L 60.702545 194.217152 
L 60.968727 193.134033 
L 61.234909 192.784611 
L 61.767273 192.822622 
L 62.033455 192.7088 
L 62.299636 193.202478 
L 62.832 194.821242 
L 63.098182 195.10807 
L 63.896727 196.66643 
L 64.162909 196.591881 
L 64.429091 196.672112 
L 64.695273 196.892979 
L 65.227636 198.409792 
L 66.558545 204.723966 
L 66.824727 205.700293 
L 67.090909 206.093955 
L 67.357091 205.946542 
L 67.889455 205.279564 
L 68.155636 205.188388 
L 68.421818 204.973078 
L 68.688 205.143011 
L 68.954182 205.606255 
L 69.486545 207.154764 
L 69.752727 209.41243 
L 70.018909 210.155893 
L 70.285091 210.275188 
L 70.551273 210.001493 
L 71.083636 208.553167 
L 71.616 206.81153 
L 71.882182 206.323367 
L 72.414545 206.513674 
L 72.946909 206.86499 
L 73.213091 206.871935 
L 73.479273 206.501635 
L 73.745455 205.817145 
L 75.076364 200.626669 
L 75.608727 200.725884 
L 75.874909 200.905373 
L 76.141091 200.878012 
L 76.407273 200.994065 
L 76.939636 200.397046 
L 77.738182 198.341095 
L 78.004364 197.819382 
L 78.270545 199.569227 
L 78.802909 200.157742 
L 79.867636 202.307901 
L 80.133818 202.689693 
L 80.932364 203.13572 
L 81.198545 203.151505 
L 81.464727 203.050395 
L 81.997091 203.934073 
L 83.061818 207.434521 
L 83.328 207.968608 
L 83.860364 208.340971 
L 84.658909 207.16874 
L 85.191273 207.716129 
L 85.723636 209.628877 
L 85.989818 210.855116 
L 87.054545 213.230771 
L 87.320727 213.002033 
L 87.586909 212.938639 
L 87.853091 212.745344 
L 88.385455 213.733794 
L 89.450182 218.089926 
L 89.982545 219.22078 
L 90.248727 219.729359 
L 90.514909 219.681582 
L 90.781091 219.847559 
L 91.047273 219.706375 
L 91.313455 220.119022 
L 91.579636 220.263026 
L 92.112 222.067172 
L 92.378182 223.351415 
L 92.910545 224.489677 
L 93.176727 224.833248 
L 93.442909 225.430687 
L 94.241455 225.545688 
L 94.773818 226.694516 
L 95.306182 229.240988 
L 95.572364 230.536724 
L 96.104727 231.426716 
L 96.370909 231.570593 
L 96.637091 231.867607 
L 97.435636 231.681889 
L 97.968 232.389109 
L 99.032727 235.574189 
L 99.298909 236.078642 
L 99.565091 236.107645 
L 99.831273 236.318073 
L 100.097455 236.019248 
L 100.363636 235.905931 
L 100.629818 235.595446 
L 101.162182 236.041305 
L 102.226909 238.336898 
L 102.493091 238.703325 
L 102.759273 238.810833 
L 103.025455 239.083686 
L 103.291636 238.926802 
L 103.557818 239.00737 
L 103.824 238.597754 
L 104.356364 240.035809 
L 105.687273 249.115975 
L 106.219636 250.437262 
L 106.485818 250.403503 
L 106.752 250.603533 
L 107.550545 250.08241 
L 107.816727 250.382834 
L 108.082909 250.354126 
L 108.349091 250.769593 
L 108.615273 250.748294 
L 109.68 252.779663 
L 109.946182 253.175346 
L 110.212364 253.159855 
L 110.478545 253.365568 
L 110.744727 253.256798 
L 111.277091 253.846744 
L 112.075636 256.294843 
L 112.341818 256.056002 
L 113.140364 258.782973 
L 113.938909 260.899877 
L 114.471273 261.870732 
L 116.068364 268.934599 
L 116.334545 269.58293 
L 116.600727 269.174029 
L 116.866909 269.105669 
L 117.399273 267.667487 
L 117.665455 266.104708 
L 117.931636 265.962557 
L 118.197818 265.521244 
L 118.996364 268.733306 
L 119.528727 269.751095 
L 120.327273 266.018836 
L 120.593455 264.523323 
L 120.859636 260.656827 
L 121.392 258.967513 
L 121.924364 259.790155 
L 122.190545 261.268704 
L 122.989091 263.367255 
L 123.255273 264.473021 
L 123.787636 265.301009 
L 124.053818 265.103462 
L 124.852364 266.608993 
L 125.118545 267.502984 
L 126.183273 274.71881 
L 126.715636 280.766193 
L 127.248 284.673605 
L 127.514182 285.625054 
L 127.780364 284.983921 
L 128.046545 282.074641 
L 128.578909 262.532911 
L 128.845091 259.787714 
L 129.111273 259.704283 
L 129.377455 257.586117 
L 129.643636 258.093559 
L 130.176 258.170928 
L 130.442182 257.998806 
L 130.708364 258.374957 
L 131.240727 257.977927 
L 131.506909 257.591463 
L 131.773091 258.040899 
L 132.039273 257.941768 
L 132.305455 257.994007 
L 132.571636 257.880311 
L 132.837818 258.245644 
L 133.370182 257.64126 
L 133.636364 256.793867 
L 133.902545 257.054007 
L 134.701091 254.014909 
L 134.967273 254.336591 
L 135.233455 253.397812 
L 135.499636 253.230868 
L 135.765818 253.281338 
L 136.032 254.775884 
L 136.298182 254.540578 
L 136.564364 254.479669 
L 136.830545 254.130457 
L 137.096727 254.559058 
L 137.629091 252.581906 
L 137.895273 249.227019 
L 138.161455 249.471374 
L 138.427636 248.082148 
L 138.693818 247.850253 
L 138.96 248.16541 
L 139.226182 249.861585 
L 139.492364 249.773567 
L 140.024727 250.95085 
L 140.290909 252.612171 
L 140.557091 252.632082 
L 141.355636 253.957199 
L 141.621818 253.579111 
L 141.888 253.892416 
L 142.420364 255.28703 
L 142.686545 255.238622 
L 143.218909 255.89735 
L 143.485091 256.544839 
L 144.017455 256.278932 
L 144.283636 256.23347 
L 144.549818 256.621282 
L 145.082182 256.374948 
L 145.348364 256.399489 
L 145.614545 256.598298 
L 146.146909 255.782981 
L 146.413091 254.822987 
L 146.679273 254.413371 
L 147.744 249.143842 
L 148.542545 242.64698 
L 148.808727 242.126951 
L 149.074909 240.03383 
L 149.607273 238.275735 
L 149.873455 236.465275 
L 150.405818 226.713668 
L 150.938182 219.862333 
L 151.470545 208.140983 
L 151.736727 206.376448 
L 152.002909 206.4177 
L 152.269091 205.137076 
L 153.067636 203.308936 
L 153.6 197.522662 
L 153.866182 195.802452 
L 154.132364 195.012769 
L 154.664727 191.763034 
L 154.930909 190.209873 
L 155.197091 189.544831 
L 155.463273 188.047297 
L 155.995636 187.040557 
L 156.261818 186.834992 
L 157.326545 181.121477 
L 158.657455 167.59114 
L 159.189818 163.393743 
L 159.456 161.924475 
L 160.254545 153.088811 
L 161.319273 144.668425 
L 161.585455 144.16414 
L 162.117818 142.138559 
L 162.384 141.829147 
L 162.650182 141.90761 
L 163.182545 139.904907 
L 163.448727 138.375151 
L 163.714909 137.908518 
L 165.312 129.476157 
L 165.578182 128.23889 
L 165.844364 127.860612 
L 166.110545 126.306736 
L 166.642909 121.797023 
L 167.707636 116.927408 
L 168.24 115.203261 
L 168.506182 114.415873 
L 169.038545 113.858108 
L 169.837091 108.936022 
L 170.103273 108.237599 
L 170.369455 106.84669 
L 170.901818 102.932291 
L 171.168 102.348006 
L 171.966545 97.169715 
L 172.232727 97.466562 
L 173.031273 91.771021 
L 173.297455 90.755252 
L 174.362182 83.475359 
L 175.160727 79.85385 
L 175.426909 79.807673 
L 175.959273 77.599025 
L 176.757818 73.347012 
L 177.290182 69.458837 
L 177.822545 67.639369 
L 178.354909 65.720264 
L 178.621091 65.688441 
L 178.887273 65.057369 
L 179.952 60.174831 
L 180.484364 56.111672 
L 181.549091 53.038057 
L 182.081455 53.957094 
L 182.347636 53.800799 
L 182.613818 53.407684 
L 183.146182 54.248763 
L 183.412364 53.914684 
L 183.678545 53.981256 
L 184.477091 58.977827 
L 184.743273 59.922057 
L 185.275636 62.754094 
L 185.541818 62.733595 
L 185.808 62.927732 
L 186.340364 65.799338 
L 186.606545 65.995538 
L 186.872727 65.946246 
L 187.405091 67.560527 
L 187.671273 67.217314 
L 187.937455 67.206833 
L 188.469818 69.334934 
L 188.736 69.694332 
L 189.002182 70.344346 
L 189.534545 73.395546 
L 190.066909 74.387174 
L 190.599273 77.230261 
L 190.865455 77.418358 
L 191.131636 77.174255 
L 191.664 78.177859 
L 191.930182 77.878066 
L 192.196364 78.017775 
L 193.261091 82.855252 
L 193.793455 84.7893 
L 194.059636 84.422073 
L 194.325818 83.642072 
L 194.592 83.485146 
L 194.858182 83.157339 
L 195.390545 81.004719 
L 195.656727 80.913249 
L 195.922909 81.318382 
L 196.189091 81.076868 
L 196.455273 81.377966 
L 196.987636 83.094009 
L 197.786182 84.188009 
L 198.052364 84.321489 
L 198.318545 83.831158 
L 198.584727 83.676147 
L 198.850909 83.951715 
L 199.117091 84.632711 
L 200.181818 86.00611 
L 200.448 85.858486 
L 201.778909 84.428808 
L 202.045091 83.856688 
L 202.311273 83.815036 
L 202.843636 82.851338 
L 204.174545 82.999277 
L 204.706909 82.873016 
L 205.239273 84.037734 
L 206.304 85.861748 
L 206.570182 85.983337 
L 206.836364 85.944316 
L 207.368727 86.543481 
L 207.901091 89.179992 
L 208.433455 94.39724 
L 208.965818 102.119625 
L 210.296727 114.375737 
L 210.562909 116.979773 
L 211.095273 124.56089 
L 211.361455 127.348582 
L 211.893818 129.636492 
L 212.426182 130.627299 
L 212.692364 130.861594 
L 213.224727 132.214977 
L 213.757091 135.901374 
L 214.289455 142.026694 
L 214.555636 144.182072 
L 215.088 146.285148 
L 215.620364 147.00687 
L 215.886545 147.122523 
L 216.685091 148.798998 
L 216.951273 149.796919 
L 217.483636 154.616948 
L 218.016 159.399723 
L 218.548364 163.214549 
L 218.814545 164.069224 
L 219.080727 164.442071 
L 219.879273 167.552624 
L 220.145455 168.270515 
L 220.677818 170.601466 
L 222.008727 173.775054 
L 222.274909 174.201781 
L 222.807273 176.122675 
L 223.339636 178.397915 
L 224.936727 191.544461 
L 225.735273 194.22978 
L 226.267636 196.353209 
L 226.533818 197.269467 
L 227.066182 202.419281 
L 228.130909 213.137701 
L 228.929455 216.355656 
L 229.195636 217.076515 
L 229.461818 217.459696 
L 229.728 218.060924 
L 231.591273 224.285396 
L 231.857455 224.619748 
L 232.123636 225.188521 
L 232.389818 225.347468 
L 232.656 225.277255 
L 232.922182 225.348941 
L 233.188364 225.805786 
L 233.454545 225.915189 
L 233.720727 225.896415 
L 233.986909 226.022696 
L 234.253091 226.420021 
L 234.519273 226.35124 
L 235.051636 225.660983 
L 235.317818 225.575954 
L 236.116364 223.634371 
L 236.382545 223.487379 
L 237.181091 222.461423 
L 237.447273 222.411205 
L 237.979636 221.666943 
L 239.044364 220.276622 
L 239.310545 219.986847 
L 239.842909 219.859134 
L 240.907636 219.11584 
L 241.44 218.146964 
L 241.972364 217.149001 
L 242.770909 215.276536 
L 243.835636 214.211055 
L 244.368 213.275643 
L 246.231273 206.439546 
L 248.360727 201.555219 
L 249.425455 198.968294 
L 250.756364 196.49435 
L 252.087273 191.839224 
L 253.418182 189.426315 
L 253.950545 188.615144 
L 254.216727 187.968855 
L 254.749091 187.309453 
L 255.547636 186.117143 
L 256.346182 185.401904 
L 256.878545 185.071929 
L 257.410909 184.292771 
L 258.209455 183.078192 
L 258.741818 182.147074 
L 259.274182 181.318876 
L 260.338909 178.600113 
L 260.871273 176.216944 
L 261.403636 173.944756 
L 261.936 171.456983 
L 262.468364 169.172777 
L 262.734545 167.790012 
L 263.266909 166.03861 
L 264.065455 162.273918 
L 264.864 159.697706 
L 266.194909 157.544896 
L 266.461091 157.375237 
L 267.259636 155.674894 
L 267.525818 155.523188 
L 268.324364 154.450613 
L 268.590545 154.237387 
L 269.921455 151.381776 
L 270.453818 149.756445 
L 270.72 149.399552 
L 271.252364 148.217217 
L 271.784727 148.261353 
L 272.317091 147.315797 
L 273.115636 145.684362 
L 274.446545 142.594394 
L 274.712727 142.503113 
L 275.511273 142.73343 
L 275.777455 142.738966 
L 276.309818 142.380178 
L 276.842182 141.63259 
L 277.374545 140.650854 
L 277.640727 140.423778 
L 278.173091 140.337065 
L 278.705455 140.537663 
L 278.971636 140.50121 
L 279.504 140.062002 
L 281.367273 138.952911 
L 281.899636 139.207179 
L 282.165818 139.276319 
L 282.432 139.13301 
L 283.230545 139.087275 
L 284.029091 138.831449 
L 284.561455 138.720068 
L 285.093818 138.894842 
L 285.36 138.910817 
L 285.626182 138.789292 
L 286.424727 138.931043 
L 287.489455 138.938999 
L 287.755636 138.960109 
L 288.554182 139.356634 
L 289.352727 139.341585 
L 290.417455 139.262722 
L 292.280727 139.551676 
L 292.813091 139.394329 
L 293.345455 139.388983 
L 293.611636 139.145933 
L 294.144 139.034468 
L 294.410182 139.136062 
L 294.676364 139.087843 
L 295.208727 139.245822 
L 295.474909 139.218208 
L 296.007273 138.951501 
L 296.539636 138.989827 
L 296.805818 138.807645 
L 297.338182 138.91509 
L 297.604364 139.08959 
L 297.870545 139.074036 
L 298.669091 139.463553 
L 298.935273 139.177335 
L 300.266182 139.220986 
L 301.863273 140.637047 
L 302.129455 140.406078 
L 302.661818 140.365836 
L 302.928 140.289583 
L 303.194182 140.005428 
L 303.460364 140.023444 
L 303.992727 140.430113 
L 304.258909 140.498116 
L 304.791273 141.262058 
L 305.057455 141.295523 
L 305.323636 141.087579 
L 306.122182 141.038834 
L 306.388364 140.728391 
L 306.654545 140.754153 
L 307.186909 141.271845 
L 307.453091 140.994088 
L 308.251636 141.874104 
L 308.517818 141.753841 
L 308.784 141.8471 
L 309.050182 142.060327 
L 309.316364 141.97917 
L 309.582545 141.713642 
L 309.848727 141.812141 
L 310.381091 142.421577 
L 310.647273 142.451127 
L 310.913455 142.800949 
L 311.179636 143.401777 
L 311.445818 143.630431 
L 311.712 143.381024 
L 311.978182 143.485459 
L 312.244364 143.859632 
L 312.510545 143.810361 
L 312.776727 143.374521 
L 313.042909 143.424781 
L 313.575273 144.518718 
L 313.841455 144.471657 
L 314.107636 144.951802 
L 314.373818 145.830555 
L 314.64 146.252946 
L 314.906182 145.906324 
L 315.172364 146.078509 
L 315.438545 146.858973 
L 315.704727 147.233272 
L 315.970909 146.201886 
L 316.237091 146.219966 
L 316.769455 147.787922 
L 317.035636 147.756962 
L 317.301818 148.202884 
L 317.568 149.305977 
L 317.834182 149.701976 
L 318.100364 149.249382 
L 318.366545 149.242099 
L 318.632727 149.85223 
L 318.898909 150.131418 
L 319.165091 149.634499 
L 319.431273 149.475279 
L 319.963636 150.987398 
L 320.229818 150.984683 
L 320.496 151.525695 
L 320.762182 152.624031 
L 321.028364 153.031753 
L 321.294545 152.673555 
L 321.560727 152.523658 
L 321.826909 153.013 
L 322.093091 153.199645 
L 322.359273 152.799184 
L 322.625455 152.657706 
L 323.157818 153.80182 
L 323.424 153.98255 
L 323.690182 154.394755 
L 324.222545 155.790463 
L 324.488727 155.160359 
L 324.754909 155.110204 
L 325.021091 155.622761 
L 325.287273 155.860402 
L 325.819636 155.59199 
L 326.352 156.194881 
L 326.618182 156.261368 
L 326.884364 156.470975 
L 327.150545 157.058522 
L 327.416727 157.354021 
L 327.949091 157.255816 
L 328.215273 157.621234 
L 328.481455 157.780538 
L 329.013818 157.384918 
L 329.546182 157.852477 
L 329.812364 157.824358 
L 330.078545 157.988587 
L 330.610909 158.998252 
L 330.877091 158.875486 
L 331.143273 158.878853 
L 331.409455 159.440344 
L 331.675636 159.706146 
L 331.941818 159.408921 
L 332.208 159.293668 
L 332.740364 160.03309 
L 333.006545 160.11753 
L 333.272727 160.445779 
L 333.805091 162.288693 
L 334.337455 162.099923 
L 334.603636 162.700561 
L 334.869818 162.90619 
L 335.136 162.347225 
L 335.402182 162.05625 
L 335.934545 163.052277 
L 336.200727 163.00711 
L 336.466909 163.491717 
L 336.999273 165.809661 
L 337.531636 165.185282 
L 337.797818 165.590226 
L 338.064 165.578081 
L 338.596364 163.633847 
L 338.862545 163.497652 
L 339.128727 163.229977 
L 339.661091 161.926454 
L 339.927273 162.396622 
L 340.193455 162.44583 
L 340.725818 160.899762 
L 340.992 160.744519 
L 341.258182 160.391877 
L 341.790545 158.473089 
L 342.589091 157.23559 
L 342.855273 156.696177 
L 343.387636 156.594457 
L 344.186182 155.215881 
L 344.452364 155.160885 
L 345.250909 153.96165 
L 345.517091 154.004839 
L 346.049455 153.077867 
L 346.581818 153.031795 
L 346.848 152.326806 
L 347.380364 150.538024 
L 347.646545 150.00884 
L 348.445091 146.516433 
L 348.711273 146.414629 
L 349.243636 145.716185 
L 349.776 145.941177 
L 350.042182 145.123503 
L 350.574545 143.108529 
L 350.840727 142.477162 
L 351.639273 138.887539 
L 351.905455 138.69759 
L 352.437818 138.148475 
L 352.704 138.456518 
L 352.970182 139.110721 
L 353.236364 139.09843 
L 353.502545 138.905682 
L 354.034909 139.026891 
L 354.301091 138.688877 
L 354.833455 137.282182 
L 355.099636 137.206602 
L 355.632 136.793976 
L 355.898182 136.970645 
L 356.164364 137.41181 
L 356.430545 137.459229 
L 356.696727 137.29843 
L 356.962909 137.431405 
L 357.229091 137.787772 
L 358.027636 137.460997 
L 358.293818 137.844809 
L 358.56 136.229244 
L 358.826182 136.181909 
L 359.092364 136.341656 
L 359.358545 136.758786 
L 359.624727 136.717597 
L 360.157091 136.259278 
L 360.423273 136.225729 
L 361.221818 135.08048 
L 361.754182 135.22503 
L 362.020364 135.4343 
L 362.286545 135.842148 
L 362.818909 137.158952 
L 363.351273 137.192543 
L 363.617455 137.388869 
L 363.883636 137.282939 
L 364.416 136.50658 
L 364.948364 136.535036 
L 365.214545 136.676955 
L 365.480727 137.138747 
L 366.013091 138.863167 
L 366.811636 139.800725 
L 367.077818 139.676379 
L 367.610182 138.479986 
L 368.408727 137.72802 
L 368.674909 137.849818 
L 369.207273 138.889707 
L 369.739636 139.311888 
L 370.005818 139.771301 
L 370.272 139.980655 
L 370.804364 139.388562 
L 371.336727 139.424426 
L 371.602909 139.153215 
L 371.869091 139.322664 
L 372.401455 140.544819 
L 372.933818 141.133272 
L 373.466182 142.343493 
L 373.998545 142.508964 
L 375.063273 144.967271 
L 375.595636 148.141343 
L 376.660364 150.129818 
L 377.192727 149.819228 
L 377.991273 150.371501 
L 378.257455 150.58759 
L 379.056 153.025881 
L 379.322182 153.492219 
L 379.854545 154.882308 
L 380.386909 154.732622 
L 381.185455 155.453312 
L 381.451636 155.592727 
L 381.717818 156.564276 
L 382.782545 161.77279 
L 383.314909 163.611411 
L 383.581091 164.128387 
L 383.847273 165.056474 
L 384.113455 164.583675 
L 384.645818 165.262061 
L 384.912 166.008766 
L 385.710545 169.092293 
L 386.509091 171.206314 
L 387.307636 172.105104 
L 387.84 172.343755 
L 388.106182 172.914801 
L 388.372364 172.966156 
L 389.437091 176.520042 
L 390.501818 178.010988 
L 391.034182 178.825905 
L 392.365091 182.508935 
L 392.631273 184.551248 
L 393.163636 185.653752 
L 393.696 186.548437 
L 393.962182 186.692314 
L 394.228364 187.069686 
L 395.026909 189.1092 
L 395.825455 191.948436 
L 396.091636 192.115465 
L 396.624 193.089203 
L 397.156364 193.044247 
L 397.422545 193.649936 
L 398.487273 197.877219 
L 398.753455 199.832567 
L 399.019636 200.948856 
L 399.285818 201.564901 
L 399.818182 203.781946 
L 400.350545 204.458311 
L 400.616727 205.621493 
L 401.149091 209.537239 
L 401.681455 214.724643 
L 402.213818 219.081659 
L 403.544727 225.713264 
L 404.609455 230.392257 
L 405.141818 234.707811 
L 406.206545 237.51173 
L 407.005091 235.931987 
L 407.537455 237.41201 
L 407.803636 239.370135 
L 408.336 245.104297 
L 408.868364 248.037781 
L 409.134545 248.9271 
L 409.400727 249.361804 
L 409.666909 242.907247 
L 410.199273 240.147568 
L 410.731636 239.694343 
L 410.997818 240.702829 
L 412.062545 249.171034 
L 412.594909 252.18778 
L 413.659636 254.893115 
L 413.925818 256.344556 
L 414.458182 258.045614 
L 414.990545 259.774875 
L 415.256727 260.430783 
L 415.522909 260.670507 
L 415.789091 261.240964 
L 416.321455 260.967649 
L 416.587636 260.29343 
L 416.853818 260.322012 
L 417.386182 259.039746 
L 417.652364 257.789388 
L 417.918545 257.174312 
L 418.184727 255.759072 
L 418.717091 254.395944 
L 419.249455 254.926538 
L 419.515636 256.210024 
L 419.781818 258.091833 
L 420.048 261.567571 
L 420.846545 265.976153 
L 421.112727 267.183533 
L 421.645091 268.009964 
L 421.911273 268.174846 
L 422.177455 268.585261 
L 422.443636 266.212132 
L 422.709818 266.925329 
L 422.976 267.109659 
L 423.242182 267.097704 
L 423.508364 264.891771 
L 423.774545 264.092534 
L 424.040727 262.375017 
L 424.306909 261.667965 
L 425.105455 250.500276 
L 425.371636 246.153404 
L 425.904 231.345643 
L 426.170182 210.680679 
L 426.436364 156.268756 
L 426.436364 156.268756 
" clip-path="url(#p1cb2bde470)" style="fill: none; stroke: #ff0000; stroke-width: 3; stroke-linecap: square"/>
   </g>
   <g id="patch_3">
    <path d="M 7.2 331.2 
L 7.2 7.2 
" style="fill: none; stroke: #000000; stroke-width: 0.8; stroke-linejoin: miter; stroke-linecap: square"/>
   </g>
   <g id="patch_4">
    <path d="M 446.4 331.2 
L 446.4 7.2 
" style="fill: none; stroke: #000000; stroke-width: 0.8; stroke-linejoin: miter; stroke-linecap: square"/>
   </g>
   <g id="patch_5">
    <path d="M 7.2 331.2 
L 446.4 331.2 
" style="fill: none; stroke: #000000; stroke-width: 0.8; stroke-linejoin: miter; stroke-linecap: square"/>
   </g>
   <g id="patch_6">
    <path d="M 7.2 7.2 
L 446.4 7.2 
" style="fill: none; stroke: #000000; stroke-width: 0.8; stroke-linejoin: miter; stroke-linecap: square"/>
   </g>
  </g>
 </g>
 <defs>
  <clipPath id="p1cb2bde470">
   <rect x="7.2" y="7.2" width="439.2" height="324"/>
  </clipPath>
 </defs>
</svg>
