<?xml version="1.0" encoding="utf-8" standalone="no"?>
<!DOCTYPE svg PUBLIC "-//W3C//DTD SVG 1.1//EN"
  "http://www.w3.org/Graphics/SVG/1.1/DTD/svg11.dtd">
<svg xmlns:xlink="http://www.w3.org/1999/xlink" width="453.6pt" height="338.4pt" viewBox="0 0 453.6 338.4" xmlns="http://www.w3.org/2000/svg" version="1.1">
 <metadata>
  <rdf:RDF xmlns:dc="http://purl.org/dc/elements/1.1/" xmlns:cc="http://creativecommons.org/ns#" xmlns:rdf="http://www.w3.org/1999/02/22-rdf-syntax-ns#">
   <cc:Work>
    <dc:type rdf:resource="http://purl.org/dc/dcmitype/StillImage"/>
    <dc:date>2025-05-14T00:12:48.460483</dc:date>
    <dc:format>image/svg+xml</dc:format>
    <dc:creator>
     <cc:Agent>
      <dc:title>Matplotlib v3.10.1, https://matplotlib.org/</dc:title>
     </cc:Agent>
    </dc:creator>
   </cc:Work>
  </rdf:RDF>
 </metadata>
 <defs>
  <style type="text/css">*{stroke-linejoin: round; stroke-linecap: butt}</style>
 </defs>
 <g id="figure_1">
  <g id="patch_1">
   <path d="M 0 338.4 
L 453.6 338.4 
L 453.6 0 
L 0 0 
z
" style="fill: #ffffff"/>
  </g>
  <g id="axes_1">
   <g id="patch_2">
    <path d="M 7.2 331.2 
L 446.4 331.2 
L 446.4 7.2 
L 7.2 7.2 
z
" style="fill: #ffffff"/>
   </g>
   <g id="matplotlib.axis_1"/>
   <g id="matplotlib.axis_2"/>
   <g id="line2d_1">
    <path d="M 27.163636 280.402266 
L 28.494545 282.999077 
L 29.825455 285.057461 
L 30.890182 286.316508 
L 31.954909 287.230951 
L 33.019636 287.800813 
L 33.818182 288.002065 
L 34.616727 288.009489 
L 35.415273 287.823073 
L 36.213818 287.442828 
L 37.278545 286.63431 
L 38.343273 285.481205 
L 39.408 283.983507 
L 40.472727 282.141217 
L 41.803636 279.353768 
L 43.134545 276.027897 
L 44.731636 271.326129 
L 46.328727 265.849023 
L 47.925818 259.596591 
L 49.789091 251.322152 
L 51.652364 241.992396 
L 53.515636 231.607305 
L 55.645091 218.446433 
L 57.774545 203.907181 
L 60.170182 185.902952 
L 62.565818 166.154253 
L 64.961455 144.660986 
L 67.623273 118.733599 
L 70.285091 90.652549 
L 73.213091 57.275791 
L 76.141091 21.927273 
L 81.464727 42.948937 
L 86.788364 63.053512 
L 91.845818 81.303371 
L 96.903273 98.725488 
L 101.694545 114.467104 
L 106.485818 129.465824 
L 111.277091 143.721713 
L 115.802182 156.503427 
L 120.327273 168.6225 
L 124.586182 179.423406 
L 128.845091 189.637323 
L 133.104 199.264264 
L 137.096727 207.756466 
L 141.089455 215.732732 
L 145.082182 223.193118 
L 148.808727 229.690696 
L 152.535273 235.738877 
L 155.995636 241.244997 
L 157.592727 245.225294 
L 159.189818 248.653504 
L 160.786909 251.529604 
L 162.117818 253.504587 
L 163.448727 255.096157 
L 164.779636 256.304325 
L 165.844364 256.994789 
L 166.909091 257.439881 
L 167.973818 257.63958 
L 169.038545 257.593896 
L 170.103273 257.30284 
L 171.168 256.76639 
L 172.232727 255.984552 
L 173.297455 254.957342 
L 174.628364 253.328247 
L 175.959273 251.315745 
L 177.290182 248.919824 
L 178.887273 245.538594 
L 180.484364 241.605277 
L 182.081455 237.11986 
L 183.944727 231.189009 
L 185.808 224.506716 
L 187.937455 215.94959 
L 190.066909 206.410932 
L 192.196364 195.890743 
L 194.592 182.882266 
L 196.987636 168.63156 
L 199.649455 151.340511 
L 202.311273 132.515667 
L 204.973091 112.157281 
L 207.901091 87.991637 
L 210.829091 61.97029 
L 213.224727 39.299884 
L 213.490909 39.931403 
L 216.152727 66.447569 
L 218.814545 90.83074 
L 221.476364 113.08085 
L 223.872 131.282345 
L 226.267636 147.756074 
L 228.397091 160.948892 
L 230.526545 172.77664 
L 232.389818 182.005973 
L 234.253091 190.190235 
L 236.116364 197.329249 
L 237.713455 202.616633 
L 239.310545 207.136016 
L 240.641455 210.31562 
L 241.972364 212.961992 
L 243.303273 215.075098 
L 244.368 216.381658 
L 245.432727 217.346925 
L 246.497455 217.9709 
L 247.296 218.214926 
L 248.094545 218.266969 
L 248.893091 218.12705 
L 249.691636 217.795169 
L 250.756364 217.054029 
L 251.821091 215.971597 
L 252.885818 214.547862 
L 253.950545 212.78289 
L 255.281455 210.096731 
L 256.612364 206.877318 
L 257.943273 203.124651 
L 259.540364 197.917533 
L 261.137455 191.942633 
L 261.936 188.768685 
L 276.309818 206.927505 
L 290.683636 225.442388 
L 305.323636 244.666222 
L 319.963636 264.25949 
L 334.603636 284.222119 
L 349.509818 304.9273 
L 352.171636 308.473885 
L 356.164364 282.031685 
L 359.890909 258.758867 
L 363.617455 236.843965 
L 367.344 216.287247 
L 370.804364 198.414909 
L 374.264727 181.713407 
L 377.458909 167.335983 
L 380.653091 153.956309 
L 383.847273 141.574508 
L 386.775273 131.100926 
L 389.703273 121.465738 
L 392.365091 113.434025 
L 395.026909 106.095197 
L 397.422545 100.082619 
L 399.818182 94.631342 
L 402.213818 89.741235 
L 404.343273 85.865671 
L 406.472727 82.433552 
L 408.602182 79.444878 
L 410.465455 77.193565 
L 412.328727 75.281722 
L 414.192 73.709436 
L 415.789091 72.631946 
L 417.386182 71.803918 
L 418.983273 71.225353 
L 420.580364 70.896207 
L 422.177455 70.816479 
L 423.774545 70.986192 
L 425.371636 71.405367 
L 426.436364 71.823378 
L 426.436364 71.823378 
" clip-path="url(#p71f136930c)" style="fill: none; stroke-dasharray: 11.1,4.8; stroke-dashoffset: 0; stroke: #000000; stroke-width: 3"/>
   </g>
   <g id="line2d_2">
    <path d="M 27.163636 273.353742 
L 28.494545 272.38048 
L 30.091636 270.914844 
L 31.688727 269.137824 
L 33.552 266.694577 
L 35.415273 263.875863 
L 37.544727 260.230164 
L 39.940364 255.635237 
L 42.602182 249.986552 
L 44.731636 245.058141 
L 46.594909 239.95659 
L 49.789091 230.592543 
L 61.767273 194.497351 
L 63.364364 184.95844 
L 65.227636 172.495385 
L 67.889455 152.963884 
L 75.342545 96.912613 
L 77.472 83.155188 
L 78.270545 79.013776 
L 79.335273 77.385834 
L 80.666182 75.787675 
L 81.997091 74.591845 
L 83.328 73.745676 
L 84.658909 73.196762 
L 85.989818 72.892654 
L 87.586909 72.777213 
L 89.716364 72.898013 
L 94.241455 73.27895 
L 94.507636 73.273942 
L 94.773818 73.461291 
L 96.104727 75.940322 
L 97.435636 78.881116 
L 99.032727 82.976756 
L 100.896 88.46928 
L 102.759273 94.650538 
L 104.888727 102.449811 
L 107.550545 113.115377 
L 110.744727 126.92468 
L 111.277091 128.910013 
L 112.874182 131.106 
L 114.737455 133.314834 
L 116.600727 135.192722 
L 118.464 136.778515 
L 120.593455 138.283044 
L 122.722909 139.514696 
L 125.118545 140.645909 
L 132.571636 143.898103 
L 134.967273 145.36828 
L 137.362909 147.123896 
L 139.492364 148.950213 
L 141.621818 151.050306 
L 143.751273 153.446644 
L 144.549818 154.507881 
L 147.211636 159.228374 
L 150.139636 164.932254 
L 153.333818 171.67868 
L 157.060364 180.11247 
L 161.585455 190.462265 
L 163.182545 192.487133 
L 164.513455 193.83114 
L 165.844364 194.853842 
L 166.909091 195.434845 
L 167.973818 195.80011 
L 169.038545 195.944993 
L 170.103273 195.864837 
L 171.168 195.554766 
L 172.232727 195.009915 
L 173.297455 194.225288 
L 174.362182 193.195722 
L 175.693091 191.556447 
L 177.024 189.513427 
L 177.822545 188.069814 
L 178.354909 186.190071 
L 180.750545 175.929327 
L 183.678545 162.345601 
L 187.671273 142.668032 
L 194.325818 109.520332 
L 194.592 108.792326 
L 196.189091 108.167989 
L 197.786182 107.773523 
L 199.117091 107.644553 
L 200.448 107.717867 
L 201.778909 108.012948 
L 203.109818 108.549189 
L 204.440727 109.346029 
L 205.771636 110.422926 
L 207.102545 111.79978 
L 208.433455 113.49605 
L 209.764364 115.530867 
L 210.829091 117.505438 
L 211.361455 120.119853 
L 215.088 140.588936 
L 218.814545 159.877431 
L 222.541091 178.013178 
L 226.267636 195.026619 
L 227.598545 200.583145 
L 230.526545 207.558552 
L 233.188364 213.345784 
L 235.850182 218.592799 
L 238.245818 222.843117 
L 240.641455 226.636998 
L 242.770909 229.618633 
L 244.368 231.518616 
L 245.965091 232.220419 
L 247.828364 232.801038 
L 249.691636 233.158956 
L 251.821091 233.332787 
L 254.216727 233.280558 
L 256.878545 232.987421 
L 260.605091 232.318267 
L 261.137455 232.213138 
L 264.331636 233.135422 
L 268.324364 234.550471 
L 276.576 237.817303 
L 278.439273 238.424915 
L 295.474909 240.811238 
L 300 240.243501 
L 304.791273 239.406874 
L 310.114909 238.238433 
L 312.244364 237.654158 
L 314.373818 236.662721 
L 316.769455 235.295103 
L 319.963636 233.188805 
L 328.215273 227.537045 
L 328.481455 227.519024 
L 333.272727 233.590816 
L 337.265455 239.018701 
L 340.725818 244.098507 
L 343.92 249.176622 
L 345.517091 251.667008 
L 346.581818 252.925901 
L 347.646545 253.890394 
L 348.711273 254.562711 
L 349.776 254.94519 
L 350.840727 255.040035 
L 351.905455 254.849561 
L 352.970182 254.376042 
L 354.034909 253.621626 
L 355.099636 252.588606 
L 356.164364 251.279307 
L 357.495273 249.25724 
L 358.826182 246.810989 
L 360.157091 243.939644 
L 361.221818 241.319904 
L 368.408727 213.828236 
L 370.804364 205.951838 
L 372.933818 199.68446 
L 374.797091 194.845144 
L 376.394182 191.22718 
L 377.725091 188.69604 
L 380.386909 185.381822 
L 385.178182 179.867378 
L 388.638545 175.728207 
L 391.034182 172.5375 
L 393.163636 169.351153 
L 393.696 168.495441 
L 394.228364 168.200316 
L 395.026909 168.060056 
L 396.091636 168.13761 
L 397.156364 168.494496 
L 398.221091 169.105776 
L 399.552 170.190284 
L 400.882909 171.583555 
L 402.48 173.594432 
L 404.343273 176.300907 
L 407.005091 180.586784 
L 410.199273 185.820632 
L 412.594909 188.637529 
L 415.789091 192.877063 
L 419.515636 197.761492 
L 421.378909 199.885899 
L 422.976 201.412896 
L 424.306909 202.420235 
L 425.637818 203.140179 
L 426.436364 203.416273 
L 426.436364 203.416273 
" clip-path="url(#p71f136930c)" style="fill: none; stroke-dasharray: 3,4.95; stroke-dashoffset: 0; stroke: #ffa500; stroke-width: 3"/>
   </g>
   <g id="line2d_3">
    <path d="M 27.163636 316.472727 
L 28.228364 314.404394 
L 29.559273 311.252552 
L 30.890182 307.522562 
L 32.487273 302.386902 
L 34.350545 295.61412 
L 36.746182 285.943593 
L 39.940364 271.955814 
L 43.933091 254.479139 
L 44.731636 251.809882 
L 52.717091 230.708599 
L 56.709818 221.088698 
L 59.637818 214.408053 
L 61.501091 206.54021 
L 61.767273 204.970472 
L 62.299636 200.600683 
L 63.364364 194.622192 
L 64.695273 185.53034 
L 66.292364 172.620841 
L 68.155636 155.438259 
L 70.817455 128.437423 
L 75.608727 79.38808 
L 76.939636 67.665911 
L 78.004364 60.055086 
L 78.270545 59.033691 
L 79.069091 58.528594 
L 80.666182 56.098542 
L 81.730909 54.951471 
L 82.795636 54.150569 
L 83.860364 53.639871 
L 84.925091 53.362581 
L 86.256 53.259747 
L 88.119273 53.374705 
L 90.514909 53.525046 
L 91.845818 53.396295 
L 92.910545 53.090122 
L 93.975273 52.713908 
L 94.507636 52.615379 
L 94.773818 52.84938 
L 95.572364 55.030892 
L 96.903273 60.306789 
L 98.500364 67.704919 
L 100.097455 76.155895 
L 101.960727 87.187682 
L 104.090182 101.110735 
L 106.752 120.073027 
L 110.212364 146.459124 
L 111.010909 152.404164 
L 111.277091 153.621189 
L 112.075636 155.099097 
L 113.406545 156.860665 
L 114.737455 158.210262 
L 115.802182 159.003016 
L 116.866909 159.549251 
L 117.931636 159.856214 
L 118.996364 159.931747 
L 120.061091 159.783032 
L 121.125818 159.417975 
L 122.190545 158.84389 
L 123.521455 157.843668 
L 124.852364 156.543775 
L 126.183273 154.958816 
L 127.780364 152.894941 
L 128.312727 152.642623 
L 129.643636 152.720857 
L 130.974545 153.047192 
L 132.305455 153.612667 
L 133.636364 154.408628 
L 135.233455 155.655084 
L 136.830545 157.204747 
L 138.693818 159.374728 
L 140.557091 161.910513 
L 142.686545 165.223831 
L 144.283636 168.04365 
L 145.614545 171.641682 
L 147.744 178.042181 
L 149.873455 185.180701 
L 152.269091 194.055399 
L 154.664727 203.781143 
L 157.326545 215.533577 
L 160.254545 229.544221 
L 161.319273 234.547045 
L 162.916364 239.626675 
L 164.247273 243.137929 
L 165.578182 245.96001 
L 166.642909 247.700163 
L 167.707636 248.962982 
L 168.506182 249.586902 
L 169.304727 249.926042 
L 170.103273 249.973439 
L 170.901818 249.722154 
L 171.700364 249.164916 
L 172.498909 248.29485 
L 173.297455 247.104555 
L 174.362182 245.007119 
L 175.426909 242.310517 
L 176.491636 238.997528 
L 177.290182 235.948871 
L 178.088727 231.408535 
L 189.268364 137.341091 
L 192.196364 114.9704 
L 194.325818 99.25022 
L 194.592 98.359487 
L 195.922909 98.806336 
L 197.253818 99.480509 
L 198.850909 100.579413 
L 200.448 101.981986 
L 202.045091 103.675797 
L 203.908364 106.002774 
L 205.771636 108.694171 
L 207.901091 112.199627 
L 209.232 114.347776 
L 209.764364 114.021858 
L 210.296727 113.66014 
L 210.562909 113.592953 
L 210.829091 113.881972 
L 211.095273 115.095878 
L 213.224727 129.144541 
L 215.354182 141.70517 
L 217.217455 151.405282 
L 218.814545 158.71123 
L 220.411636 165.039667 
L 221.742545 169.537844 
L 223.073455 173.303129 
L 224.138182 175.770421 
L 225.202909 177.73815 
L 226.533818 179.935026 
L 227.332364 182.06119 
L 227.598545 182.151131 
L 228.929455 180.846164 
L 230.260364 179.825405 
L 231.591273 179.067585 
L 232.922182 178.550496 
L 234.253091 178.251406 
L 235.850182 178.146805 
L 237.447273 178.278916 
L 239.310545 178.67258 
L 241.706182 179.444688 
L 242.770909 179.876405 
L 243.303273 180.539618 
L 244.101818 181.621764 
L 244.368 181.823609 
L 246.497455 182.193213 
L 249.691636 182.529256 
L 253.684364 182.700396 
L 259.008 182.712213 
L 260.871273 182.328596 
L 261.137455 182.247133 
L 264.065455 183.505999 
L 267.259636 185.118039 
L 270.986182 187.253669 
L 274.978909 189.789366 
L 276.043636 190.983615 
L 277.374545 192.382388 
L 278.173091 192.933191 
L 282.698182 194.841059 
L 286.158545 196.534804 
L 289.352727 198.351588 
L 291.482182 199.727893 
L 292.014545 200.366199 
L 293.345455 202.552148 
L 294.942545 205.270165 
L 297.072 208.711882 
L 298.669091 211.766579 
L 300.532364 215.86257 
L 302.395636 220.534007 
L 304.258909 225.78704 
L 306.388364 232.510273 
L 309.316364 242.211505 
L 310.913455 245.730885 
L 312.244364 248.144333 
L 313.575273 249.974164 
L 314.906182 251.407574 
L 316.237091 252.480057 
L 317.568 253.226951 
L 318.898909 253.683398 
L 320.229818 253.885112 
L 321.560727 253.86842 
L 323.157818 253.611819 
L 325.021091 253.066814 
L 325.553455 252.875929 
L 326.085818 251.635161 
L 327.682909 247.576706 
L 328.481455 246.161262 
L 330.610909 247.751317 
L 338.064 252.994071 
L 339.927273 254.77679 
L 341.524364 256.617493 
L 342.322909 257.667463 
L 342.589091 258.242118 
L 343.653818 261.958842 
L 344.984727 266.607656 
L 347.114182 273.114042 
L 349.243636 278.895409 
L 351.106909 283.350835 
L 352.970182 287.24856 
L 354.833455 290.590255 
L 356.430545 293.013631 
L 358.027636 295.034962 
L 359.624727 296.66532 
L 360.157091 297.048233 
L 360.423273 297.116716 
L 360.955636 296.150735 
L 361.221818 295.550228 
L 362.286545 290.447448 
L 364.948364 276.570519 
L 368.674909 255.786896 
L 375.329455 218.514323 
L 377.725091 206.043393 
L 381.717818 192.99425 
L 388.638545 170.559777 
L 391.566545 160.258653 
L 392.897455 155.134678 
L 393.962182 150.638489 
L 394.760727 149.76537 
L 395.559273 149.192032 
L 396.357818 148.898291 
L 397.156364 148.864489 
L 397.954909 149.071013 
L 398.753455 149.4986 
L 399.818182 150.376397 
L 400.882909 151.562827 
L 402.213818 153.407373 
L 403.810909 156.030354 
L 406.206545 160.471415 
L 410.465455 168.604501 
L 412.062545 169.81822 
L 414.192 171.790375 
L 419.515636 176.947131 
L 421.112727 178.138502 
L 422.443636 178.875535 
L 423.508364 179.257064 
L 424.573091 179.422011 
L 425.637818 179.343513 
L 426.436364 179.108766 
L 426.436364 179.108766 
" clip-path="url(#p71f136930c)" style="fill: none; stroke: #ffa500; stroke-width: 3; stroke-linecap: square"/>
   </g>
   <g id="patch_3">
    <path d="M 7.2 331.2 
L 7.2 7.2 
" style="fill: none; stroke: #000000; stroke-width: 0.8; stroke-linejoin: miter; stroke-linecap: square"/>
   </g>
   <g id="patch_4">
    <path d="M 446.4 331.2 
L 446.4 7.2 
" style="fill: none; stroke: #000000; stroke-width: 0.8; stroke-linejoin: miter; stroke-linecap: square"/>
   </g>
   <g id="patch_5">
    <path d="M 7.2 331.2 
L 446.4 331.2 
" style="fill: none; stroke: #000000; stroke-width: 0.8; stroke-linejoin: miter; stroke-linecap: square"/>
   </g>
   <g id="patch_6">
    <path d="M 7.2 7.2 
L 446.4 7.2 
" style="fill: none; stroke: #000000; stroke-width: 0.8; stroke-linejoin: miter; stroke-linecap: square"/>
   </g>
  </g>
 </g>
 <defs>
  <clipPath id="p71f136930c">
   <rect x="7.2" y="7.2" width="439.2" height="324"/>
  </clipPath>
 </defs>
</svg>
