<?xml version="1.0" encoding="utf-8" standalone="no"?>
<!DOCTYPE svg PUBLIC "-//W3C//DTD SVG 1.1//EN"
  "http://www.w3.org/Graphics/SVG/1.1/DTD/svg11.dtd">
<svg xmlns:xlink="http://www.w3.org/1999/xlink" width="453.6pt" height="338.4pt" viewBox="0 0 453.6 338.4" xmlns="http://www.w3.org/2000/svg" version="1.1">
 <metadata>
  <rdf:RDF xmlns:dc="http://purl.org/dc/elements/1.1/" xmlns:cc="http://creativecommons.org/ns#" xmlns:rdf="http://www.w3.org/1999/02/22-rdf-syntax-ns#">
   <cc:Work>
    <dc:type rdf:resource="http://purl.org/dc/dcmitype/StillImage"/>
    <dc:date>2025-05-14T09:02:40.228407</dc:date>
    <dc:format>image/svg+xml</dc:format>
    <dc:creator>
     <cc:Agent>
      <dc:title>Matplotlib v3.10.1, https://matplotlib.org/</dc:title>
     </cc:Agent>
    </dc:creator>
   </cc:Work>
  </rdf:RDF>
 </metadata>
 <defs>
  <style type="text/css">*{stroke-linejoin: round; stroke-linecap: butt}</style>
 </defs>
 <g id="figure_1">
  <g id="patch_1">
   <path d="M 0 338.4 
L 453.6 338.4 
L 453.6 0 
L 0 0 
z
" style="fill: #ffffff"/>
  </g>
  <g id="axes_1">
   <g id="patch_2">
    <path d="M 7.2 331.2 
L 446.4 331.2 
L 446.4 7.2 
L 7.2 7.2 
z
" style="fill: #ffffff"/>
   </g>
   <g id="matplotlib.axis_1"/>
   <g id="matplotlib.axis_2"/>
   <g id="line2d_1">
    <path d="M 27.163636 316.472727 
L 33.285818 292.518155 
L 39.141818 270.496431 
L 44.997818 249.353081 
L 50.587636 229.996232 
L 56.177455 211.451522 
L 61.501091 194.550344 
L 66.824727 178.395989 
L 71.882182 163.745795 
L 76.939636 149.778464 
L 81.730909 137.180028 
L 86.522182 125.202085 
L 91.047273 114.462492 
L 95.572364 104.282625 
L 100.097455 94.665517 
L 104.356364 86.130981 
L 108.615273 78.10026 
L 112.608 71.031268 
L 116.600727 64.409514 
L 120.327273 58.634412 
L 124.053818 53.252462 
L 127.780364 48.265291 
L 131.240727 43.989358 
L 134.701091 40.056681 
L 138.161455 36.468665 
L 141.355636 33.46377 
L 144.549818 30.75475 
L 146.945455 28.917822 
L 147.211636 29.036818 
L 150.139636 45.838463 
L 153.067636 61.283627 
L 155.729455 74.182966 
L 158.391273 86.027713 
L 161.053091 96.849546 
L 163.714909 106.680068 
L 166.110545 114.706055 
L 168.506182 121.977811 
L 170.901818 128.518312 
L 173.031273 133.736942 
L 175.160727 138.412264 
L 177.290182 142.560474 
L 179.419636 146.197819 
L 181.282909 148.97409 
L 183.146182 151.382453 
L 185.009455 153.433829 
L 186.872727 155.138991 
L 188.736 156.508835 
L 190.333091 157.424291 
L 191.930182 158.108165 
L 193.527273 158.567335 
L 195.124364 158.80863 
L 196.721455 158.838878 
L 198.318545 158.664884 
L 199.915636 158.293524 
L 201.778909 157.619906 
L 203.642182 156.697793 
L 205.505455 155.538084 
L 207.634909 153.935549 
L 209.764364 152.053015 
L 212.16 149.620641 
L 214.555636 146.877527 
L 217.217455 143.493039 
L 220.145455 139.397584 
L 223.339636 134.532736 
L 226.8 128.856662 
L 230.792727 121.871437 
L 235.584 113.016794 
L 242.238545 100.192717 
L 254.216727 77.029989 
L 259.274182 67.790378 
L 263.266909 60.935046 
L 266.727273 55.39727 
L 269.921455 50.681444 
L 272.849455 46.740583 
L 275.511273 43.511526 
L 277.906909 40.920343 
L 280.302545 38.651461 
L 282.432 36.92394 
L 284.561455 35.485489 
L 286.424727 34.476725 
L 288.288 33.712584 
L 290.151273 33.203887 
L 291.748364 32.97943 
L 293.345455 32.95744 
L 294.942545 33.144772 
L 296.539636 33.548253 
L 298.136727 34.174786 
L 299.733818 35.031126 
L 301.330909 36.124127 
L 302.928 37.460616 
L 304.791273 39.336765 
L 306.654545 41.564502 
L 308.517818 44.15465 
L 309.582545 45.832991 
L 311.978182 54.928313 
L 314.107636 62.213923 
L 316.237091 68.779224 
L 318.366545 74.654857 
L 320.496 79.871268 
L 322.625455 84.458755 
L 324.488727 87.981097 
L 326.352 91.065742 
L 328.215273 93.733347 
L 330.078545 96.004126 
L 331.941818 97.898592 
L 333.805091 99.437229 
L 335.402182 100.488296 
L 336.999273 101.30576 
L 338.596364 101.902513 
L 340.193455 102.291474 
L 342.056727 102.499686 
L 343.92 102.462955 
L 345.783273 102.201741 
L 347.912727 101.654464 
L 350.042182 100.871217 
L 352.437818 99.745848 
L 355.099636 98.243179 
L 358.293818 96.170651 
L 362.552727 93.119361 
L 371.336727 86.766291 
L 374.530909 84.763134 
L 377.192727 83.33913 
L 379.588364 82.300758 
L 381.717818 81.607664 
L 383.847273 81.162792 
L 385.710545 81.001074 
L 387.573818 81.073157 
L 389.170909 81.336516 
L 390.768 81.799531 
L 392.365091 82.475073 
L 393.962182 83.375985 
L 395.559273 84.515183 
L 397.156364 85.905464 
L 398.753455 87.559768 
L 400.616727 89.840581 
L 402.48 92.518688 
L 404.343273 95.6145 
L 406.206545 99.148429 
L 408.069818 103.140962 
L 409.933091 107.612509 
L 412.062545 113.33557 
L 414.192 119.74147 
L 416.321455 126.860704 
L 418.450909 134.723839 
L 420.846545 144.496897 
L 423.242182 155.293387 
L 425.637818 167.156882 
L 426.436364 171.355889 
L 426.436364 171.355889 
" clip-path="url(#p14f2f41b15)" style="fill: none; stroke-dasharray: 11.1,4.8; stroke-dashoffset: 0; stroke: #000000; stroke-width: 3"/>
   </g>
   <g id="line2d_2">
    <path d="M 27.163636 153.644876 
L 28.760727 159.119567 
L 29.559273 161.143851 
L 30.357818 162.493036 
L 30.890182 163.023796 
L 31.422545 163.296276 
L 31.954909 163.355626 
L 32.753455 163.148992 
L 33.818182 162.525848 
L 35.149091 161.441624 
L 37.012364 159.598435 
L 39.141818 157.487894 
L 40.472727 156.467 
L 42.069818 155.55857 
L 43.666909 154.59662 
L 44.465455 153.898891 
L 45.264 152.959252 
L 46.062545 151.731256 
L 47.127273 149.619926 
L 48.192 147.002612 
L 49.789091 142.352484 
L 53.249455 131.820462 
L 54.314182 129.285707 
L 55.378909 127.298895 
L 56.443636 125.796078 
L 57.774545 124.346559 
L 60.436364 121.582046 
L 61.767273 119.846267 
L 63.098182 117.775662 
L 64.695273 114.885498 
L 67.090909 110.026123 
L 70.285091 103.05288 
L 76.939636 87.553531 
L 78.270545 84.023768 
L 79.601455 79.875903 
L 81.198545 74.035522 
L 84.925091 59.828117 
L 85.989818 56.787082 
L 86.788364 55.019673 
L 87.586909 53.68841 
L 88.385455 52.738564 
L 89.184 52.084495 
L 90.248727 51.513305 
L 91.579636 51.062566 
L 92.910545 50.816267 
L 94.241455 50.813802 
L 96.104727 51.122939 
L 97.701818 51.310517 
L 99.032727 51.230669 
L 103.557818 50.683811 
L 105.953455 50.846811 
L 108.615273 51.002908 
L 110.744727 50.887585 
L 116.334545 50.433272 
L 122.722909 50.20307 
L 126.715636 49.785439 
L 128.046545 49.99651 
L 129.643636 50.555866 
L 132.039273 51.452809 
L 133.370182 51.723563 
L 134.967273 51.815934 
L 136.564364 51.692723 
L 137.629091 51.438708 
L 138.693818 50.967803 
L 139.758545 50.231494 
L 141.089455 48.985453 
L 142.952727 47.171403 
L 143.751273 46.639312 
L 144.549818 46.389019 
L 145.082182 46.408815 
L 145.614545 46.58806 
L 146.413091 47.153555 
L 147.211636 48.048476 
L 148.276364 49.671299 
L 149.607273 52.232259 
L 151.204364 55.917972 
L 153.067636 60.917469 
L 157.858909 74.228795 
L 160.254545 79.953014 
L 166.642909 94.654892 
L 169.304727 101.732759 
L 176.225455 120.525457 
L 177.822545 124.263506 
L 178.887273 126.277829 
L 179.952 127.831948 
L 181.016727 128.953274 
L 182.081455 129.734844 
L 183.412364 130.410016 
L 188.469818 132.637482 
L 189.534545 133.515368 
L 190.599273 134.731112 
L 191.664 136.32386 
L 192.994909 138.749258 
L 195.390545 143.246222 
L 196.721455 145.235203 
L 198.850909 147.843446 
L 200.980364 150.622281 
L 202.577455 152.573964 
L 203.642182 153.482123 
L 204.440727 153.89051 
L 205.239273 154.080676 
L 206.304 154.075154 
L 207.901091 153.765474 
L 212.692364 152.65608 
L 214.289455 152.577021 
L 215.886545 152.764623 
L 220.145455 153.53828 
L 221.742545 153.493315 
L 224.670545 153.101051 
L 229.994182 152.210444 
L 231.857455 151.679536 
L 233.454545 150.975447 
L 235.051636 150.01081 
L 238.245818 148.003685 
L 245.698909 144.211401 
L 248.893091 143.03875 
L 249.957818 142.273992 
L 250.756364 141.456281 
L 251.821091 140.006737 
L 253.152 137.688354 
L 256.08 132.219185 
L 257.144727 130.726253 
L 258.209455 129.618338 
L 259.274182 128.81007 
L 261.403636 127.564127 
L 263.266909 126.383636 
L 264.864 125.125541 
L 266.461091 123.57194 
L 268.058182 121.66749 
L 269.655273 119.395848 
L 271.784727 115.926655 
L 274.712727 110.721066 
L 277.374545 105.51814 
L 282.964364 94.320856 
L 288.021818 84.927514 
L 289.618909 82.462279 
L 290.949818 80.84865 
L 292.014545 79.868704 
L 293.079273 79.136537 
L 294.410182 78.498417 
L 295.741091 78.091903 
L 297.338182 77.840403 
L 299.467636 77.775765 
L 302.395636 77.680928 
L 304.525091 77.364518 
L 307.453091 76.905521 
L 308.517818 76.940058 
L 309.582545 77.207608 
L 310.381091 77.604087 
L 311.445818 78.428528 
L 312.510545 79.593094 
L 313.841455 81.45948 
L 315.704727 84.547527 
L 322.093091 95.426971 
L 328.747636 106.027354 
L 330.078545 107.730469 
L 331.409455 109.117545 
L 333.272727 110.696562 
L 340.725818 116.46878 
L 345.250909 119.56013 
L 346.848 121.015048 
L 348.711273 123.098545 
L 351.106909 125.821075 
L 352.437818 126.97721 
L 353.502545 127.609339 
L 354.567273 127.953187 
L 355.632 128.00577 
L 356.696727 127.796079 
L 358.293818 127.167573 
L 360.157091 126.448102 
L 361.221818 126.259488 
L 362.286545 126.315991 
L 363.351273 126.642878 
L 364.416 127.221759 
L 367.610182 129.265024 
L 368.408727 129.455166 
L 369.207273 129.427087 
L 370.272 129.096305 
L 372.135273 128.139212 
L 373.732364 127.433718 
L 375.063273 127.085285 
L 376.660364 126.92475 
L 378.789818 126.987514 
L 383.048727 127.188059 
L 386.509091 127.048306 
L 388.638545 126.776369 
L 390.235636 126.317963 
L 392.098909 125.490244 
L 394.228364 124.567663 
L 395.559273 124.224777 
L 397.156364 124.066782 
L 399.019636 124.107039 
L 400.882909 124.358712 
L 402.48 124.817241 
L 404.077091 125.518199 
L 410.731636 129.010565 
L 412.328727 130.139435 
L 415.789091 132.987789 
L 417.918545 134.913858 
L 420.048 136.85356 
L 420.846545 137.205715 
L 421.378909 137.183233 
L 421.911273 136.890661 
L 422.443636 136.283431 
L 422.976 135.334743 
L 423.774545 133.2704 
L 424.573091 130.536038 
L 426.436364 122.980363 
L 426.436364 122.980363 
" clip-path="url(#p14f2f41b15)" style="fill: none; stroke-dasharray: 3,4.95; stroke-dashoffset: 0; stroke: #0000ff; stroke-width: 3"/>
   </g>
   <g id="line2d_3">
    <path d="M 27.163636 223.42859 
L 27.962182 226.875349 
L 28.494545 228.577725 
L 29.026909 229.677899 
L 29.559273 230.13278 
L 29.825455 230.121046 
L 30.091636 229.958933 
L 30.624 229.224399 
L 31.156364 228.032125 
L 31.954909 225.645406 
L 36.213818 211.458413 
L 37.278545 209.034518 
L 38.077091 207.814732 
L 38.609455 207.323859 
L 39.141818 207.090552 
L 39.674182 207.093214 
L 40.206545 207.292107 
L 41.271273 208.036897 
L 42.336 208.73534 
L 42.868364 208.86008 
L 43.400727 208.728142 
L 43.933091 208.266655 
L 44.465455 207.411128 
L 44.997818 206.108905 
L 45.530182 204.320936 
L 46.328727 200.67913 
L 47.127273 195.883111 
L 48.192 187.842184 
L 49.522909 175.810081 
L 52.184727 151.186371 
L 53.249455 143.785117 
L 54.048 139.804886 
L 54.580364 137.932213 
L 55.112727 136.646852 
L 55.645091 135.880369 
L 56.177455 135.543719 
L 56.709818 135.532084 
L 57.508364 135.885595 
L 58.839273 136.617072 
L 59.371636 136.706411 
L 59.904 136.576544 
L 60.436364 136.175602 
L 60.968727 135.463847 
L 61.501091 134.415442 
L 62.299636 132.186891 
L 63.098182 129.19018 
L 64.162909 124.148528 
L 65.493818 116.641369 
L 71.349818 81.868779 
L 72.414545 76.919129 
L 73.479273 73.068075 
L 74.277818 71.027373 
L 75.076364 69.697046 
L 75.874909 68.935987 
L 78.004364 67.5674 
L 78.536727 66.845981 
L 79.069091 65.808916 
L 79.867636 63.580562 
L 80.666182 60.568074 
L 81.997091 54.41402 
L 83.328 48.456789 
L 84.126545 45.828775 
L 84.658909 44.679592 
L 85.191273 44.069798 
L 85.457455 43.969612 
L 85.723636 44.002744 
L 86.256 44.442834 
L 86.788364 45.320942 
L 87.586909 47.252188 
L 89.184 52.077691 
L 92.910545 63.729658 
L 93.975273 68.585434 
L 95.306182 76.089536 
L 97.435636 88.503352 
L 98.500364 93.367904 
L 99.298909 96.152705 
L 100.097455 98.245373 
L 100.896 99.763253 
L 101.694545 100.835028 
L 102.493091 101.565026 
L 103.291636 102.022372 
L 104.090182 102.24789 
L 104.888727 102.272739 
L 105.953455 102.058463 
L 110.212364 100.796571 
L 112.075636 100.811953 
L 113.140364 100.732574 
L 113.938909 100.457555 
L 114.737455 99.874384 
L 115.536 98.87982 
L 116.334545 97.399806 
L 117.133091 95.409887 
L 118.197818 92.037676 
L 120.061091 85.026813 
L 121.658182 79.406033 
L 122.722909 76.529822 
L 123.521455 74.950017 
L 124.32 73.852308 
L 125.118545 73.185024 
L 125.917091 72.88062 
L 126.715636 72.873027 
L 127.514182 73.094995 
L 128.845091 73.748966 
L 129.909818 74.231851 
L 130.708364 74.37789 
L 131.506909 74.229682 
L 132.305455 73.748276 
L 133.104 72.967987 
L 135.765818 69.977193 
L 136.298182 69.7641 
L 136.830545 69.841508 
L 137.362909 70.273413 
L 137.895273 71.111683 
L 138.427636 72.389057 
L 139.226182 75.135401 
L 140.024727 78.76567 
L 143.218909 94.871387 
L 143.751273 96.47259 
L 144.283636 97.474255 
L 144.549818 97.732313 
L 144.816 97.822934 
L 145.082182 97.742667 
L 145.348364 97.492005 
L 145.880727 96.481465 
L 146.413091 94.817645 
L 147.211636 91.215676 
L 148.276364 84.83078 
L 150.672 69.403391 
L 151.470545 65.731705 
L 152.269091 63.281483 
L 152.801455 62.298554 
L 153.333818 61.745755 
L 153.866182 61.508503 
L 154.664727 61.462354 
L 155.729455 61.373508 
L 156.261818 61.141285 
L 157.060364 60.485638 
L 158.125091 59.178583 
L 159.456 57.520285 
L 160.254545 56.91897 
L 160.786909 56.799063 
L 161.319273 56.946285 
L 161.851636 57.382529 
L 162.384 58.114598 
L 163.182545 59.75633 
L 163.981091 62.005687 
L 165.045818 65.832779 
L 166.376727 71.736466 
L 167.707636 78.681853 
L 169.570909 89.673539 
L 172.232727 105.492304 
L 173.563636 112.173519 
L 174.628364 116.555087 
L 175.693091 119.97818 
L 176.491636 121.900946 
L 177.290182 123.287479 
L 178.088727 124.177913 
L 178.887273 124.635654 
L 179.685818 124.741658 
L 180.484364 124.587336 
L 181.549091 124.128018 
L 184.743273 122.51715 
L 185.808 122.310368 
L 186.606545 122.398031 
L 187.405091 122.773236 
L 188.203636 123.521674 
L 189.002182 124.739291 
L 189.800727 126.521047 
L 190.599273 128.940109 
L 191.397818 132.017482 
L 192.462545 137.031425 
L 195.922909 154.618832 
L 196.987636 158.459433 
L 198.052364 161.392541 
L 199.649455 164.930612 
L 201.778909 169.2257 
L 202.843636 170.88528 
L 203.642182 171.688248 
L 204.174545 171.980327 
L 204.706909 172.080217 
L 205.239273 172.004979 
L 206.037818 171.617152 
L 207.102545 170.728591 
L 208.433455 169.271454 
L 211.893818 165.255823 
L 212.958545 164.434316 
L 213.757091 164.075775 
L 214.555636 163.958234 
L 215.354182 164.06907 
L 216.418909 164.501863 
L 219.879273 166.316948 
L 220.944 166.491288 
L 222.008727 166.412302 
L 223.339636 166.053664 
L 226.8 164.737339 
L 229.728 163.503452 
L 231.058909 162.688059 
L 232.123636 161.728204 
L 232.922182 160.736894 
L 233.986909 158.988763 
L 235.317818 156.207512 
L 237.979636 150.411604 
L 239.310545 148.119549 
L 242.770909 142.501925 
L 244.368 139.940571 
L 245.432727 138.674833 
L 246.231273 138.049458 
L 247.029818 137.703146 
L 247.828364 137.609172 
L 248.626909 137.726614 
L 249.957818 138.221037 
L 251.022545 138.594171 
L 251.821091 138.612808 
L 252.353455 138.406717 
L 252.885818 137.982799 
L 253.418182 137.325672 
L 254.216727 135.928983 
L 255.547636 132.899435 
L 256.878545 129.942957 
L 257.677091 128.624957 
L 258.475636 127.798618 
L 259.008 127.535728 
L 259.540364 127.4952 
L 260.072727 127.658496 
L 260.871273 128.230424 
L 261.936 129.437885 
L 264.331636 132.443076 
L 265.130182 132.986704 
L 265.662545 133.095863 
L 266.194909 132.963334 
L 266.727273 132.564857 
L 267.259636 131.884755 
L 268.058182 130.325952 
L 268.856727 128.14286 
L 269.921455 124.37868 
L 271.252364 118.671618 
L 274.712727 102.191486 
L 277.374545 88.965431 
L 279.237818 78.519741 
L 286.158545 38.112073 
L 287.489455 32.159082 
L 288.554182 28.415609 
L 289.352727 26.25638 
L 290.151273 24.62658 
L 290.949818 23.463395 
L 291.748364 22.684487 
L 292.546909 22.209786 
L 293.345455 21.97352 
L 294.144 21.934866 
L 294.942545 22.076073 
L 295.741091 22.399311 
L 296.539636 22.916907 
L 297.338182 23.643158 
L 298.402909 24.951988 
L 299.467636 26.654068 
L 300.532364 28.744173 
L 301.863273 31.880316 
L 303.460364 36.278942 
L 306.388364 44.491842 
L 307.453091 46.713884 
L 308.251636 47.844233 
L 308.784 48.294381 
L 309.316364 48.488343 
L 309.848727 48.432432 
L 310.381091 48.151201 
L 311.179636 47.409074 
L 313.042909 45.474278 
L 313.575273 45.24097 
L 314.107636 45.276666 
L 314.64 45.621303 
L 315.172364 46.290854 
L 315.704727 47.279996 
L 316.503273 49.303934 
L 317.568 52.79201 
L 319.165091 58.964997 
L 322.625455 72.493089 
L 327.682909 91.506571 
L 329.546182 98.262136 
L 330.877091 102.229253 
L 332.208 105.384032 
L 333.538909 107.957121 
L 335.668364 111.552089 
L 337.265455 113.873923 
L 338.064 114.751834 
L 338.862545 115.329581 
L 339.394909 115.514768 
L 339.927273 115.52591 
L 340.459636 115.361826 
L 341.258182 114.809421 
L 342.056727 113.959515 
L 344.984727 110.448463 
L 345.783273 109.997724 
L 346.315636 109.904046 
L 346.848 109.973959 
L 347.646545 110.346601 
L 348.711273 111.174714 
L 350.308364 112.477036 
L 351.106909 112.901447 
L 351.905455 113.079435 
L 352.704 112.978657 
L 353.502545 112.58304 
L 354.301091 111.879074 
L 355.099636 110.857491 
L 356.164364 109.021303 
L 357.495273 106.16087 
L 359.624727 101.564139 
L 360.689455 99.863932 
L 361.488 98.993811 
L 362.286545 98.509939 
L 362.818909 98.415078 
L 363.351273 98.508756 
L 363.883636 98.791762 
L 364.682182 99.551146 
L 365.746909 101.042796 
L 367.610182 103.788351 
L 368.408727 104.506319 
L 368.941091 104.742091 
L 369.473455 104.783606 
L 370.272 104.539254 
L 371.336727 103.868421 
L 372.933818 102.852951 
L 373.732364 102.557027 
L 374.530909 102.44767 
L 375.329455 102.518964 
L 376.394182 102.860544 
L 377.725091 103.59143 
L 380.919273 105.565768 
L 382.250182 106.021832 
L 383.581091 106.229698 
L 385.710545 106.306712 
L 387.307636 106.200017 
L 388.372364 105.900839 
L 389.170909 105.459764 
L 389.969455 104.786367 
L 391.034182 103.536998 
L 393.962182 99.644725 
L 394.760727 98.986711 
L 395.559273 98.604012 
L 396.357818 98.464777 
L 397.422545 98.556088 
L 398.753455 98.961073 
L 399.818182 99.504406 
L 400.882909 100.335971 
L 401.681455 101.21684 
L 402.746182 102.785306 
L 403.810909 104.772068 
L 406.206545 109.948518 
L 407.803636 113.077364 
L 409.400727 115.632013 
L 412.594909 120.447655 
L 413.925818 123.008516 
L 414.990545 125.482503 
L 416.055273 128.433952 
L 417.386182 132.871233 
L 419.515636 141.108884 
L 420.846545 145.892774 
L 421.645091 148.130396 
L 422.177455 149.220907 
L 422.709818 149.919548 
L 423.242182 150.17662 
L 423.508364 150.128401 
L 424.040727 149.668688 
L 424.573091 148.731316 
L 425.105455 147.353165 
L 425.904 144.619048 
L 426.436364 142.503207 
L 426.436364 142.503207 
" clip-path="url(#p14f2f41b15)" style="fill: none; stroke: #0000ff; stroke-width: 3; stroke-linecap: square"/>
   </g>
   <g id="patch_3">
    <path d="M 7.2 331.2 
L 7.2 7.2 
" style="fill: none; stroke: #000000; stroke-width: 0.8; stroke-linejoin: miter; stroke-linecap: square"/>
   </g>
   <g id="patch_4">
    <path d="M 446.4 331.2 
L 446.4 7.2 
" style="fill: none; stroke: #000000; stroke-width: 0.8; stroke-linejoin: miter; stroke-linecap: square"/>
   </g>
   <g id="patch_5">
    <path d="M 7.2 331.2 
L 446.4 331.2 
" style="fill: none; stroke: #000000; stroke-width: 0.8; stroke-linejoin: miter; stroke-linecap: square"/>
   </g>
   <g id="patch_6">
    <path d="M 7.2 7.2 
L 446.4 7.2 
" style="fill: none; stroke: #000000; stroke-width: 0.8; stroke-linejoin: miter; stroke-linecap: square"/>
   </g>
  </g>
 </g>
 <defs>
  <clipPath id="p14f2f41b15">
   <rect x="7.2" y="7.2" width="439.2" height="324"/>
  </clipPath>
 </defs>
</svg>
