<?xml version="1.0" encoding="utf-8" standalone="no"?>
<!DOCTYPE svg PUBLIC "-//W3C//DTD SVG 1.1//EN"
  "http://www.w3.org/Graphics/SVG/1.1/DTD/svg11.dtd">
<svg xmlns:xlink="http://www.w3.org/1999/xlink" width="453.6pt" height="338.4pt" viewBox="0 0 453.6 338.4" xmlns="http://www.w3.org/2000/svg" version="1.1">
 <metadata>
  <rdf:RDF xmlns:dc="http://purl.org/dc/elements/1.1/" xmlns:cc="http://creativecommons.org/ns#" xmlns:rdf="http://www.w3.org/1999/02/22-rdf-syntax-ns#">
   <cc:Work>
    <dc:type rdf:resource="http://purl.org/dc/dcmitype/StillImage"/>
    <dc:date>2025-05-14T08:58:04.587122</dc:date>
    <dc:format>image/svg+xml</dc:format>
    <dc:creator>
     <cc:Agent>
      <dc:title>Matplotlib v3.10.1, https://matplotlib.org/</dc:title>
     </cc:Agent>
    </dc:creator>
   </cc:Work>
  </rdf:RDF>
 </metadata>
 <defs>
  <style type="text/css">*{stroke-linejoin: round; stroke-linecap: butt}</style>
 </defs>
 <g id="figure_1">
  <g id="patch_1">
   <path d="M 0 338.4 
L 453.6 338.4 
L 453.6 0 
L 0 0 
z
" style="fill: #ffffff"/>
  </g>
  <g id="axes_1">
   <g id="patch_2">
    <path d="M 7.2 331.2 
L 446.4 331.2 
L 446.4 7.2 
L 7.2 7.2 
z
" style="fill: #ffffff"/>
   </g>
   <g id="matplotlib.axis_1"/>
   <g id="matplotlib.axis_2"/>
   <g id="line2d_1">
    <path d="M 27.163636 316.472727 
L 32.753455 314.122802 
L 38.343273 311.534566 
L 43.933091 308.708023 
L 49.789091 305.491281 
L 55.645091 302.012993 
L 61.501091 298.273162 
L 67.357091 294.271782 
L 73.213091 290.00886 
L 79.335273 285.272521 
L 85.457455 280.250317 
L 91.579636 274.942248 
L 97.701818 269.348329 
L 104.090182 263.206403 
L 110.478545 256.753227 
L 116.866909 249.988786 
L 123.521455 242.611512 
L 130.176 234.896501 
L 136.830545 226.843754 
L 143.751273 218.110604 
L 150.672 209.012173 
L 157.592727 199.548439 
L 162.384 192.950351 
L 164.513455 196.316445 
L 166.376727 198.87139 
L 168.24 201.061929 
L 170.103273 202.888082 
L 171.700364 204.163315 
L 173.297455 205.17086 
L 174.894545 205.910654 
L 176.491636 206.382759 
L 178.088727 206.587164 
L 179.419636 206.552967 
L 181.016727 206.266552 
L 182.613818 205.712396 
L 184.210909 204.89055 
L 185.808 203.800975 
L 187.405091 202.44367 
L 189.002182 200.818666 
L 190.865455 198.584475 
L 192.728727 195.985889 
L 194.592 193.022886 
L 196.721455 189.190417 
L 198.850909 184.882037 
L 200.980364 180.097695 
L 203.376 174.146439 
L 205.771636 167.592796 
L 208.433455 159.604519 
L 211.095273 150.87259 
L 213.757091 141.39699 
L 216.685091 130.11492 
L 219.613091 117.933014 
L 222.807273 103.617391 
L 226.001455 88.23097 
L 229.195636 71.773568 
L 232.656 52.736428 
L 233.720727 46.847733 
L 237.447273 51.327859 
L 241.173818 56.164259 
L 244.900364 61.356893 
L 248.893091 67.315833 
L 252.885818 73.683747 
L 256.878545 80.460654 
L 261.137455 88.140125 
L 265.396364 96.285014 
L 269.655273 104.895179 
L 274.180364 114.553405 
L 278.705455 124.736974 
L 283.496727 136.092118 
L 288.288 148.036338 
L 293.079273 160.569389 
L 297.870545 173.238024 
L 300.798545 175.882175 
L 303.726545 178.242414 
L 306.654545 180.318823 
L 309.582545 182.111359 
L 312.244364 183.494617 
L 314.906182 184.643263 
L 317.568 185.557326 
L 320.229818 186.236798 
L 322.891636 186.681658 
L 325.553455 186.891946 
L 328.215273 186.867621 
L 330.877091 186.608695 
L 333.538909 186.115167 
L 336.200727 185.387056 
L 338.862545 184.424364 
L 341.524364 183.22703 
L 344.186182 181.795123 
L 346.848 180.128635 
L 349.776 178.024554 
L 352.704 175.636541 
L 355.632 172.964737 
L 358.56 170.009042 
L 361.754182 166.460913 
L 364.948364 162.574951 
L 368.142545 158.351187 
L 371.602909 153.394194 
L 375.063273 148.040735 
L 378.523636 142.290861 
L 382.250182 135.655238 
L 385.976727 128.559835 
L 389.703273 121.004632 
L 393.696 112.399515 
L 397.688727 103.266572 
L 401.947636 92.942939 
L 406.206545 82.018752 
L 410.465455 70.493988 
L 414.990545 57.590863 
L 419.515636 44.009772 
L 424.306909 28.890796 
L 426.436364 21.927313 
L 426.436364 21.927313 
" clip-path="url(#p63de4ebbac)" style="fill: none; stroke-dasharray: 11.1,4.8; stroke-dashoffset: 0; stroke: #000000; stroke-width: 3"/>
   </g>
   <g id="line2d_2">
    <path d="M 27.163636 316.472725 
L 32.753455 314.122799 
L 38.343273 311.534564 
L 43.933091 308.70802 
L 49.789091 305.491277 
L 55.645091 302.012989 
L 61.501091 298.273157 
L 67.357091 294.271777 
L 73.213091 290.008855 
L 79.335273 285.272513 
L 85.457455 280.25031 
L 91.579636 274.94224 
L 97.701818 269.348324 
L 104.090182 263.206397 
L 110.478545 256.753222 
L 116.866909 249.988776 
L 123.521455 242.611501 
L 130.176 234.896491 
L 136.830545 226.843744 
L 143.751273 218.110594 
L 150.672 209.012162 
L 157.592727 199.548429 
L 162.384 192.950341 
L 164.513455 196.316434 
L 166.376727 198.87138 
L 168.24 201.061919 
L 170.103273 202.888072 
L 171.700364 204.163305 
L 173.297455 205.17085 
L 174.894545 205.910644 
L 176.491636 206.382748 
L 178.088727 206.587154 
L 179.419636 206.552957 
L 181.016727 206.266541 
L 182.613818 205.712385 
L 184.210909 204.89054 
L 185.808 203.800965 
L 187.405091 202.44366 
L 189.002182 200.818655 
L 190.865455 198.584465 
L 192.728727 195.985879 
L 194.592 193.022876 
L 196.721455 189.190397 
L 198.850909 184.882017 
L 200.980364 180.097675 
L 203.376 174.146419 
L 205.771636 167.592776 
L 208.433455 159.604498 
L 211.095273 150.87257 
L 213.757091 141.396969 
L 216.685091 130.114899 
L 219.613091 117.932994 
L 222.807273 103.61737 
L 226.001455 88.230949 
L 229.195636 71.773547 
L 232.656 52.736388 
L 233.720727 46.847693 
L 237.447273 51.327818 
L 241.173818 56.164218 
L 244.900364 61.356852 
L 248.893091 67.315812 
L 252.885818 73.683726 
L 256.878545 80.460634 
L 261.137455 88.140105 
L 265.396364 96.284994 
L 269.655273 104.895159 
L 274.180364 114.553384 
L 278.705455 124.736953 
L 283.496727 136.092098 
L 288.288 148.036318 
L 293.079273 160.569368 
L 297.870545 173.238004 
L 300.798545 175.882155 
L 303.726545 178.242394 
L 306.654545 180.318802 
L 309.582545 182.111339 
L 312.244364 183.494597 
L 314.906182 184.643242 
L 317.568 185.557306 
L 320.229818 186.236778 
L 322.891636 186.681637 
L 325.553455 186.891925 
L 328.215273 186.867601 
L 330.877091 186.608675 
L 333.538909 186.115146 
L 336.200727 185.387036 
L 338.862545 184.424344 
L 341.524364 183.227009 
L 344.186182 181.795103 
L 346.848 180.128615 
L 349.776 178.024534 
L 352.704 175.63652 
L 355.632 172.964717 
L 358.56 170.009022 
L 361.754182 166.460893 
L 364.948364 162.574931 
L 368.142545 158.351167 
L 371.602909 153.394173 
L 375.063273 148.040714 
L 378.523636 142.290841 
L 382.250182 135.655218 
L 385.976727 128.559815 
L 389.703273 121.004611 
L 393.696 112.399495 
L 397.688727 103.266551 
L 401.947636 92.942919 
L 406.206545 82.018731 
L 410.465455 70.493968 
L 414.990545 57.590822 
L 419.515636 44.009731 
L 424.306909 28.890755 
L 426.436364 21.927273 
L 426.436364 21.927273 
" clip-path="url(#p63de4ebbac)" style="fill: none; stroke-dasharray: 3,4.95; stroke-dashoffset: 0; stroke: #0000ff; stroke-width: 3"/>
   </g>
   <g id="line2d_3">
    <path d="M 27.163636 316.472727 
L 32.753455 314.122802 
L 38.343273 311.534567 
L 43.933091 308.708023 
L 49.789091 305.491283 
L 55.645091 302.012996 
L 61.501091 298.273165 
L 67.357091 294.271785 
L 73.213091 290.008863 
L 79.335273 285.272523 
L 85.457455 280.250317 
L 91.579636 274.942248 
L 97.701818 269.348329 
L 104.090182 263.206403 
L 110.478545 256.753227 
L 116.866909 249.988781 
L 123.521455 242.611507 
L 130.176 234.896496 
L 136.830545 226.843744 
L 143.751273 218.110584 
L 150.672 209.012162 
L 157.592727 199.548429 
L 162.384 192.950341 
L 164.513455 196.316434 
L 166.376727 198.87138 
L 168.24 201.061919 
L 170.103273 202.888072 
L 171.700364 204.163305 
L 173.297455 205.17085 
L 174.894545 205.910644 
L 176.491636 206.382748 
L 178.088727 206.587154 
L 179.419636 206.552957 
L 181.016727 206.266541 
L 182.613818 205.712385 
L 184.210909 204.89054 
L 185.808 203.800965 
L 187.405091 202.44366 
L 189.002182 200.818655 
L 190.865455 198.584465 
L 192.728727 195.985879 
L 194.592 193.022876 
L 196.721455 189.190397 
L 198.850909 184.882017 
L 200.980364 180.097675 
L 203.376 174.146419 
L 205.771636 167.592776 
L 208.433455 159.604498 
L 211.095273 150.87257 
L 213.757091 141.396969 
L 216.685091 130.114899 
L 219.613091 117.932994 
L 222.807273 103.61737 
L 226.001455 88.230949 
L 229.195636 71.773547 
L 232.656 52.736388 
L 233.720727 46.847693 
L 237.447273 51.327818 
L 241.173818 56.164218 
L 244.900364 61.356852 
L 248.893091 67.315812 
L 252.885818 73.683726 
L 256.878545 80.460634 
L 261.137455 88.140105 
L 265.396364 96.284994 
L 269.655273 104.895159 
L 274.180364 114.553384 
L 278.705455 124.736953 
L 283.496727 136.092098 
L 288.288 148.036318 
L 293.079273 160.569368 
L 297.870545 173.238004 
L 300.798545 175.882155 
L 303.726545 178.242394 
L 306.654545 180.318802 
L 309.582545 182.111339 
L 312.244364 183.494597 
L 314.906182 184.643242 
L 317.568 185.557306 
L 320.229818 186.236778 
L 322.891636 186.681637 
L 325.553455 186.891925 
L 328.215273 186.867601 
L 330.877091 186.608675 
L 333.538909 186.115146 
L 336.200727 185.387036 
L 338.862545 184.424344 
L 341.524364 183.227009 
L 344.186182 181.795103 
L 346.848 180.128615 
L 349.776 178.024534 
L 352.704 175.63652 
L 355.632 172.964717 
L 358.56 170.009022 
L 361.754182 166.460893 
L 364.948364 162.574931 
L 368.142545 158.351167 
L 371.602909 153.394173 
L 375.063273 148.040714 
L 378.523636 142.290841 
L 382.250182 135.655218 
L 385.976727 128.559815 
L 389.703273 121.004611 
L 393.696 112.399495 
L 397.688727 103.266551 
L 401.947636 92.942919 
L 406.206545 82.018731 
L 410.465455 70.493968 
L 414.990545 57.590822 
L 419.515636 44.009731 
L 424.306909 28.890755 
L 426.436364 21.927273 
L 426.436364 21.927273 
" clip-path="url(#p63de4ebbac)" style="fill: none; stroke: #0000ff; stroke-width: 3; stroke-linecap: square"/>
   </g>
   <g id="patch_3">
    <path d="M 7.2 331.2 
L 7.2 7.2 
" style="fill: none; stroke: #000000; stroke-width: 0.8; stroke-linejoin: miter; stroke-linecap: square"/>
   </g>
   <g id="patch_4">
    <path d="M 446.4 331.2 
L 446.4 7.2 
" style="fill: none; stroke: #000000; stroke-width: 0.8; stroke-linejoin: miter; stroke-linecap: square"/>
   </g>
   <g id="patch_5">
    <path d="M 7.2 331.2 
L 446.4 331.2 
" style="fill: none; stroke: #000000; stroke-width: 0.8; stroke-linejoin: miter; stroke-linecap: square"/>
   </g>
   <g id="patch_6">
    <path d="M 7.2 7.2 
L 446.4 7.2 
" style="fill: none; stroke: #000000; stroke-width: 0.8; stroke-linejoin: miter; stroke-linecap: square"/>
   </g>
  </g>
 </g>
 <defs>
  <clipPath id="p63de4ebbac">
   <rect x="7.2" y="7.2" width="439.2" height="324"/>
  </clipPath>
 </defs>
</svg>
