<?xml version="1.0" encoding="utf-8" standalone="no"?>
<!DOCTYPE svg PUBLIC "-//W3C//DTD SVG 1.1//EN"
  "http://www.w3.org/Graphics/SVG/1.1/DTD/svg11.dtd">
<svg xmlns:xlink="http://www.w3.org/1999/xlink" width="453.6pt" height="338.4pt" viewBox="0 0 453.6 338.4" xmlns="http://www.w3.org/2000/svg" version="1.1">
 <metadata>
  <rdf:RDF xmlns:dc="http://purl.org/dc/elements/1.1/" xmlns:cc="http://creativecommons.org/ns#" xmlns:rdf="http://www.w3.org/1999/02/22-rdf-syntax-ns#">
   <cc:Work>
    <dc:type rdf:resource="http://purl.org/dc/dcmitype/StillImage"/>
    <dc:date>2025-05-14T00:15:25.966422</dc:date>
    <dc:format>image/svg+xml</dc:format>
    <dc:creator>
     <cc:Agent>
      <dc:title>Matplotlib v3.10.1, https://matplotlib.org/</dc:title>
     </cc:Agent>
    </dc:creator>
   </cc:Work>
  </rdf:RDF>
 </metadata>
 <defs>
  <style type="text/css">*{stroke-linejoin: round; stroke-linecap: butt}</style>
 </defs>
 <g id="figure_1">
  <g id="patch_1">
   <path d="M 0 338.4 
L 453.6 338.4 
L 453.6 0 
L 0 0 
z
" style="fill: #ffffff"/>
  </g>
  <g id="axes_1">
   <g id="patch_2">
    <path d="M 7.2 331.2 
L 446.4 331.2 
L 446.4 7.2 
L 7.2 7.2 
z
" style="fill: #ffffff"/>
   </g>
   <g id="matplotlib.axis_1"/>
   <g id="matplotlib.axis_2"/>
   <g id="line2d_1">
    <path d="M 27.163636 287.617497 
L 28.494545 290.286796 
L 29.825455 292.40264 
L 30.890182 293.696832 
L 31.954909 294.636802 
L 33.019636 295.222571 
L 33.818182 295.429442 
L 34.616727 295.437073 
L 35.415273 295.245453 
L 36.213818 294.854594 
L 37.278545 294.023506 
L 38.343273 292.838212 
L 39.408 291.298707 
L 40.472727 289.40499 
L 41.803636 286.53973 
L 43.134545 283.121019 
L 44.731636 278.288002 
L 46.328727 272.658005 
L 47.925818 266.23104 
L 49.789091 257.725623 
L 51.652364 248.13543 
L 53.515636 237.460443 
L 55.645091 223.932191 
L 57.774545 208.987081 
L 60.170182 190.48027 
L 62.565818 170.180294 
L 64.961455 148.087051 
L 67.623273 121.43591 
L 70.285091 92.570989 
L 73.213091 58.262531 
L 76.141091 21.927273 
L 81.464727 43.535749 
L 86.788364 64.201536 
L 91.845818 82.960832 
L 96.903273 100.869281 
L 101.694545 117.050319 
L 106.485818 132.467722 
L 111.277091 147.121558 
L 115.802182 160.26007 
L 120.327273 172.717442 
L 124.586182 183.81985 
L 128.845091 194.318885 
L 133.104 204.214558 
L 137.096727 212.943817 
L 141.089455 221.142738 
L 144.816 228.316642 
L 148.542545 235.028571 
L 152.269091 241.278581 
L 155.995636 247.367167 
L 157.592727 251.458574 
L 159.189818 254.982481 
L 160.786909 257.938866 
L 162.117818 259.96898 
L 163.448727 261.604978 
L 164.779636 262.846871 
L 165.844364 263.556609 
L 166.909091 264.014126 
L 167.973818 264.219399 
L 169.038545 264.17244 
L 170.103273 263.873259 
L 171.168 263.321834 
L 172.232727 262.518171 
L 173.297455 261.462287 
L 174.628364 259.787717 
L 175.959273 257.719036 
L 177.290182 255.256234 
L 178.887273 251.780619 
L 180.484364 247.737504 
L 182.081455 243.126879 
L 183.944727 237.03047 
L 185.808 230.161644 
L 187.937455 221.365649 
L 190.066909 211.560723 
L 192.196364 200.746867 
L 194.592 187.375263 
L 196.987636 172.726754 
L 199.649455 154.953032 
L 202.311273 135.6027 
L 204.973091 114.676017 
L 207.901091 89.835799 
L 210.829091 63.088075 
L 213.224727 39.784834 
L 213.490909 40.433981 
L 216.152727 67.690336 
L 218.814545 92.754154 
L 221.476364 115.625368 
L 223.872 134.33495 
L 226.267636 151.268537 
L 228.397091 164.829628 
L 230.526545 176.987542 
L 232.389818 186.474509 
L 234.253091 194.887231 
L 236.116364 202.225528 
L 237.713455 207.660508 
L 239.310545 212.306048 
L 240.641455 215.574409 
L 241.972364 218.294653 
L 243.303273 220.466746 
L 244.368 221.809778 
L 245.432727 222.80199 
L 246.497455 223.443383 
L 247.296 223.694221 
L 248.094545 223.747717 
L 248.893091 223.603892 
L 249.691636 223.262746 
L 250.490182 222.724258 
L 251.554909 221.699299 
L 252.619636 220.323599 
L 253.684364 218.597012 
L 255.015273 215.945491 
L 256.346182 212.745842 
L 257.677091 208.998053 
L 259.274182 203.777146 
L 260.871273 197.766923 
L 261.936 193.425999 
L 276.309818 212.091716 
L 290.683636 231.123434 
L 305.323636 250.883895 
L 319.963636 271.024101 
L 334.603636 291.54398 
L 349.243636 312.443622 
L 352.171636 316.472724 
L 356.164364 289.2924 
L 359.890909 265.36993 
L 363.617455 242.843282 
L 367.344 221.712732 
L 370.804364 203.341495 
L 374.264727 186.173776 
L 377.458909 171.395011 
L 380.653091 157.64185 
L 383.847273 144.914415 
L 386.775273 134.148467 
L 389.703273 124.244317 
L 392.365091 115.988401 
L 395.026909 108.444712 
L 397.422545 102.264295 
L 399.818182 96.660849 
L 402.213818 91.634236 
L 404.343273 87.650487 
L 406.472727 84.122562 
L 408.602182 81.05046 
L 410.465455 78.736303 
L 412.328727 76.771091 
L 414.192 75.154915 
L 415.789091 74.047348 
L 417.386182 73.196206 
L 418.983273 72.601491 
L 420.580364 72.263156 
L 422.177455 72.181203 
L 423.774545 72.355653 
L 425.371636 72.786529 
L 426.436364 73.216209 
L 426.436364 73.216209 
" clip-path="url(#pdabd1e8cac)" style="fill: none; stroke-dasharray: 11.1,4.8; stroke-dashoffset: 0; stroke: #000000; stroke-width: 3"/>
   </g>
   <g id="line2d_2">
    <path d="M 27.163636 287.617502 
L 28.494545 290.286802 
L 29.825455 292.402645 
L 30.890182 293.696838 
L 31.954909 294.636807 
L 33.019636 295.222577 
L 33.818182 295.429447 
L 34.616727 295.437078 
L 35.415273 295.245458 
L 36.213818 294.854599 
L 37.278545 294.023511 
L 38.343273 292.838218 
L 39.408 291.298712 
L 40.472727 289.404996 
L 41.803636 286.539736 
L 43.134545 283.121025 
L 44.731636 278.288014 
L 46.328727 272.658017 
L 47.925818 266.231051 
L 49.789091 257.725634 
L 51.652364 248.135441 
L 53.515636 237.460455 
L 55.645091 223.932202 
L 57.774545 208.987092 
L 60.170182 190.480293 
L 62.565818 170.180317 
L 64.961455 148.087074 
L 67.623273 121.435933 
L 70.285091 92.571011 
L 73.213091 58.262576 
L 76.141091 21.927318 
L 81.464727 43.535794 
L 86.788364 64.201581 
L 91.845818 82.960855 
L 96.903273 100.869304 
L 101.694545 117.050341 
L 106.485818 132.467744 
L 111.277091 147.121581 
L 115.802182 160.260092 
L 120.327273 172.717464 
L 124.586182 183.819873 
L 128.845091 194.318908 
L 133.104 204.214581 
L 137.096727 212.943828 
L 141.089455 221.142749 
L 144.816 228.316654 
L 148.542545 235.028583 
L 152.269091 241.278592 
L 155.995636 247.367179 
L 157.592727 251.458585 
L 159.189818 254.982492 
L 160.786909 257.938877 
L 162.117818 259.968991 
L 163.448727 261.604989 
L 164.779636 262.846882 
L 165.844364 263.55662 
L 166.909091 264.014137 
L 167.973818 264.21941 
L 169.038545 264.172451 
L 170.103273 263.87327 
L 171.168 263.321845 
L 172.232727 262.518183 
L 173.297455 261.462298 
L 174.628364 259.787728 
L 175.959273 257.719048 
L 177.290182 255.256246 
L 178.887273 251.78063 
L 180.484364 247.737516 
L 182.081455 243.126891 
L 183.944727 237.030481 
L 185.808 230.161656 
L 187.937455 221.36566 
L 190.066909 211.560734 
L 192.196364 200.74689 
L 194.592 187.375286 
L 196.987636 172.726777 
L 199.649455 154.953055 
L 202.311273 135.602723 
L 204.973091 114.67604 
L 207.901091 89.835822 
L 210.829091 63.08812 
L 213.224727 39.784879 
L 213.490909 40.434027 
L 216.152727 67.690358 
L 218.814545 92.754176 
L 221.476364 115.62539 
L 223.872 134.334973 
L 226.267636 151.26856 
L 228.397091 164.82965 
L 230.526545 176.987565 
L 232.389818 186.474532 
L 234.253091 194.887254 
L 236.116364 202.225551 
L 237.713455 207.66053 
L 239.310545 212.306059 
L 240.641455 215.57442 
L 241.972364 218.294664 
L 243.303273 220.466757 
L 244.368 221.809789 
L 245.432727 222.802001 
L 246.497455 223.443394 
L 247.296 223.694232 
L 248.094545 223.747728 
L 248.893091 223.603903 
L 249.691636 223.262758 
L 250.490182 222.724269 
L 251.554909 221.69931 
L 252.619636 220.32361 
L 253.684364 218.597023 
L 255.015273 215.945502 
L 256.346182 212.745853 
L 257.677091 208.998064 
L 259.274182 203.777168 
L 260.871273 197.766946 
L 261.936 193.426022 
L 276.309818 212.091727 
L 290.683636 231.123446 
L 305.323636 250.883906 
L 319.963636 271.024113 
L 334.603636 291.543986 
L 349.243636 312.443627 
L 352.171636 316.472727 
L 356.164364 289.292406 
L 359.890909 265.369942 
L 363.617455 242.843293 
L 367.344 221.712743 
L 370.804364 203.341517 
L 374.264727 186.173799 
L 377.458909 171.395034 
L 380.653091 157.641872 
L 383.847273 144.914438 
L 386.775273 134.148489 
L 389.703273 124.244339 
L 392.365091 115.988423 
L 395.026909 108.444735 
L 397.422545 102.264318 
L 399.818182 96.660871 
L 402.213818 91.634259 
L 404.343273 87.65051 
L 406.472727 84.122584 
L 408.602182 81.050482 
L 410.465455 78.736325 
L 412.328727 76.771114 
L 414.192 75.154938 
L 415.789091 74.04737 
L 417.386182 73.196229 
L 418.983273 72.601513 
L 420.580364 72.263179 
L 422.177455 72.181225 
L 423.774545 72.355675 
L 425.371636 72.786552 
L 426.436364 73.216232 
L 426.436364 73.216232 
" clip-path="url(#pdabd1e8cac)" style="fill: none; stroke-dasharray: 3,4.95; stroke-dashoffset: 0; stroke: #ffa500; stroke-width: 3"/>
   </g>
   <g id="line2d_3">
    <path d="M 27.163636 287.617497 
L 28.494545 290.286796 
L 29.825455 292.40264 
L 30.890182 293.696832 
L 31.954909 294.636802 
L 33.019636 295.222571 
L 33.818182 295.429442 
L 34.616727 295.437073 
L 35.415273 295.245453 
L 36.213818 294.854594 
L 37.278545 294.023506 
L 38.343273 292.838212 
L 39.408 291.298707 
L 40.472727 289.40499 
L 41.803636 286.53973 
L 43.134545 283.121019 
L 44.731636 278.288002 
L 46.328727 272.658005 
L 47.925818 266.23104 
L 49.789091 257.725623 
L 51.652364 248.13543 
L 53.515636 237.460443 
L 55.645091 223.932191 
L 57.774545 208.987081 
L 60.170182 190.48027 
L 62.565818 170.180294 
L 64.961455 148.087051 
L 67.623273 121.43591 
L 70.285091 92.570989 
L 73.213091 58.262531 
L 76.141091 21.927273 
L 81.464727 43.535749 
L 86.788364 64.201536 
L 91.845818 82.960832 
L 96.903273 100.869281 
L 101.694545 117.050319 
L 106.485818 132.467722 
L 111.277091 147.121558 
L 115.802182 160.26007 
L 120.327273 172.717442 
L 124.586182 183.81985 
L 128.845091 194.318885 
L 133.104 204.214558 
L 137.096727 212.943817 
L 141.089455 221.142738 
L 144.816 228.316642 
L 148.542545 235.028571 
L 152.269091 241.278581 
L 155.995636 247.367167 
L 157.592727 251.458574 
L 159.189818 254.982481 
L 160.786909 257.938866 
L 162.117818 259.96898 
L 163.448727 261.604978 
L 164.779636 262.846871 
L 165.844364 263.556609 
L 166.909091 264.014126 
L 167.973818 264.219399 
L 169.038545 264.17244 
L 170.103273 263.873259 
L 171.168 263.321834 
L 172.232727 262.518171 
L 173.297455 261.462287 
L 174.628364 259.787717 
L 175.959273 257.719036 
L 177.290182 255.256234 
L 178.887273 251.780619 
L 180.484364 247.737504 
L 182.081455 243.126879 
L 183.944727 237.03047 
L 185.808 230.161644 
L 187.937455 221.365649 
L 190.066909 211.560723 
L 192.196364 200.746867 
L 194.592 187.375263 
L 196.987636 172.726754 
L 199.649455 154.953032 
L 202.311273 135.6027 
L 204.973091 114.676017 
L 207.901091 89.835799 
L 210.829091 63.088075 
L 213.224727 39.784834 
L 213.490909 40.433981 
L 216.152727 67.690336 
L 218.814545 92.754154 
L 221.476364 115.625368 
L 223.872 134.33495 
L 226.267636 151.268537 
L 228.397091 164.829628 
L 230.526545 176.987542 
L 232.389818 186.474509 
L 234.253091 194.887231 
L 236.116364 202.225528 
L 237.713455 207.660508 
L 239.310545 212.306048 
L 240.641455 215.574409 
L 241.972364 218.294653 
L 243.303273 220.466746 
L 244.368 221.809778 
L 245.432727 222.80199 
L 246.497455 223.443383 
L 247.296 223.694221 
L 248.094545 223.747717 
L 248.893091 223.603892 
L 249.691636 223.262746 
L 250.490182 222.724258 
L 251.554909 221.699299 
L 252.619636 220.323599 
L 253.684364 218.597012 
L 255.015273 215.945491 
L 256.346182 212.745842 
L 257.677091 208.998053 
L 259.274182 203.777146 
L 260.871273 197.766923 
L 261.936 193.425999 
L 276.309818 212.091716 
L 290.683636 231.123434 
L 305.323636 250.883895 
L 319.963636 271.024101 
L 334.603636 291.54398 
L 349.243636 312.443622 
L 352.171636 316.472724 
L 356.164364 289.2924 
L 359.890909 265.36993 
L 363.617455 242.843282 
L 367.344 221.712732 
L 370.804364 203.341495 
L 374.264727 186.173776 
L 377.458909 171.395011 
L 380.653091 157.64185 
L 383.847273 144.914415 
L 386.775273 134.148467 
L 389.703273 124.244317 
L 392.365091 115.988401 
L 395.026909 108.444712 
L 397.422545 102.264295 
L 399.818182 96.660849 
L 402.213818 91.634236 
L 404.343273 87.650487 
L 406.472727 84.122562 
L 408.602182 81.05046 
L 410.465455 78.736303 
L 412.328727 76.771091 
L 414.192 75.154915 
L 415.789091 74.047348 
L 417.386182 73.196206 
L 418.983273 72.601491 
L 420.580364 72.263156 
L 422.177455 72.181203 
L 423.774545 72.355653 
L 425.371636 72.786529 
L 426.436364 73.216209 
L 426.436364 73.216209 
" clip-path="url(#pdabd1e8cac)" style="fill: none; stroke: #ffa500; stroke-width: 3; stroke-linecap: square"/>
   </g>
   <g id="patch_3">
    <path d="M 7.2 331.2 
L 7.2 7.2 
" style="fill: none; stroke: #000000; stroke-width: 0.8; stroke-linejoin: miter; stroke-linecap: square"/>
   </g>
   <g id="patch_4">
    <path d="M 446.4 331.2 
L 446.4 7.2 
" style="fill: none; stroke: #000000; stroke-width: 0.8; stroke-linejoin: miter; stroke-linecap: square"/>
   </g>
   <g id="patch_5">
    <path d="M 7.2 331.2 
L 446.4 331.2 
" style="fill: none; stroke: #000000; stroke-width: 0.8; stroke-linejoin: miter; stroke-linecap: square"/>
   </g>
   <g id="patch_6">
    <path d="M 7.2 7.2 
L 446.4 7.2 
" style="fill: none; stroke: #000000; stroke-width: 0.8; stroke-linejoin: miter; stroke-linecap: square"/>
   </g>
  </g>
 </g>
 <defs>
  <clipPath id="pdabd1e8cac">
   <rect x="7.2" y="7.2" width="439.2" height="324"/>
  </clipPath>
 </defs>
</svg>
