<?xml version="1.0" encoding="utf-8" standalone="no"?>
<!DOCTYPE svg PUBLIC "-//W3C//DTD SVG 1.1//EN"
  "http://www.w3.org/Graphics/SVG/1.1/DTD/svg11.dtd">
<svg xmlns:xlink="http://www.w3.org/1999/xlink" width="453.6pt" height="338.4pt" viewBox="0 0 453.6 338.4" xmlns="http://www.w3.org/2000/svg" version="1.1">
 <metadata>
  <rdf:RDF xmlns:dc="http://purl.org/dc/elements/1.1/" xmlns:cc="http://creativecommons.org/ns#" xmlns:rdf="http://www.w3.org/1999/02/22-rdf-syntax-ns#">
   <cc:Work>
    <dc:type rdf:resource="http://purl.org/dc/dcmitype/StillImage"/>
    <dc:date>2025-05-14T09:02:18.260256</dc:date>
    <dc:format>image/svg+xml</dc:format>
    <dc:creator>
     <cc:Agent>
      <dc:title>Matplotlib v3.10.1, https://matplotlib.org/</dc:title>
     </cc:Agent>
    </dc:creator>
   </cc:Work>
  </rdf:RDF>
 </metadata>
 <defs>
  <style type="text/css">*{stroke-linejoin: round; stroke-linecap: butt}</style>
 </defs>
 <g id="figure_1">
  <g id="patch_1">
   <path d="M 0 338.4 
L 453.6 338.4 
L 453.6 0 
L 0 0 
z
" style="fill: #ffffff"/>
  </g>
  <g id="axes_1">
   <g id="patch_2">
    <path d="M 7.2 331.2 
L 446.4 331.2 
L 446.4 7.2 
L 7.2 7.2 
z
" style="fill: #ffffff"/>
   </g>
   <g id="matplotlib.axis_1"/>
   <g id="matplotlib.axis_2"/>
   <g id="line2d_1">
    <path d="M 27.163636 264.748942 
L 31.688727 261.555276 
L 36.48 258.448771 
L 41.803636 255.266535 
L 48.192 251.724359 
L 57.242182 246.992963 
L 69.220364 240.700648 
L 75.342545 237.233064 
L 80.666182 233.966412 
L 85.457455 230.764198 
L 89.982545 227.462943 
L 94.241455 224.069813 
L 98.234182 220.603576 
L 102.226909 216.83039 
L 105.953455 213.005094 
L 109.68 208.861505 
L 113.406545 204.375018 
L 117.133091 199.521046 
L 120.859636 194.274967 
L 124.32 189.031029 
L 127.780364 183.408123 
L 131.240727 177.386566 
L 134.701091 170.946638 
L 138.427636 163.520926 
L 142.154182 155.562608 
L 145.880727 147.047061 
L 149.607273 137.949751 
L 153.333818 128.246073 
L 157.060364 117.911385 
L 160.786909 106.921154 
L 164.513455 95.250826 
L 168.24 82.875674 
L 172.232727 68.806634 
L 176.225455 53.870085 
L 180.218182 38.035845 
L 184.210909 21.927273 
L 192.462545 28.428324 
L 200.714182 35.215724 
L 208.965818 42.285261 
L 217.483636 49.874557 
L 226.267636 58.006647 
L 235.051636 66.444251 
L 244.101818 75.45193 
L 253.418182 85.0522 
L 262.734545 94.979084 
L 272.050909 105.226747 
L 281.633455 116.095629 
L 291.482182 127.606984 
L 301.330909 139.456574 
L 311.445818 151.971343 
L 321.826909 165.171027 
L 332.474182 179.074912 
L 343.387636 193.701802 
L 354.301091 208.699354 
L 365.480727 224.437177 
L 376.926545 240.931934 
L 388.638545 258.199355 
L 400.616727 276.254167 
L 413.127273 295.524635 
L 425.637818 315.203148 
L 426.436364 316.472727 
L 426.436364 316.472727 
" clip-path="url(#pf203baf3e6)" style="fill: none; stroke-dasharray: 11.1,4.8; stroke-dashoffset: 0; stroke: #000000; stroke-width: 3"/>
   </g>
   <g id="line2d_2">
    <path d="M 27.163636 177.471794 
L 31.156364 168.838938 
L 32.221091 167.307165 
L 33.019636 166.531152 
L 33.818182 166.114181 
L 34.350545 166.04855 
L 34.882909 166.167863 
L 35.415273 166.469925 
L 35.947636 166.972176 
L 36.746182 168.097993 
L 37.544727 169.710781 
L 38.343273 171.818947 
L 39.408 174.821922 
L 41.537455 168.724719 
L 42.336 167.414166 
L 43.134545 166.546675 
L 43.933091 166.028607 
L 44.731636 165.780866 
L 45.796364 165.783957 
L 46.861091 165.807301 
L 47.659636 165.569316 
L 48.192 165.182302 
L 48.724364 164.544594 
L 49.256727 163.600162 
L 49.789091 162.295929 
L 50.587636 159.558274 
L 51.386182 155.761726 
L 51.652364 154.231663 
L 51.918545 153.945521 
L 52.717091 154.95301 
L 53.515636 155.585659 
L 54.314182 155.950329 
L 55.378909 156.181149 
L 58.839273 156.702877 
L 61.501091 157.409099 
L 63.896727 157.808907 
L 65.76 158.349041 
L 67.357091 159.076069 
L 68.421818 159.763729 
L 69.486545 160.677133 
L 70.551273 161.893738 
L 71.616 163.510704 
L 72.680727 165.664247 
L 73.479273 167.735084 
L 74.810182 171.367978 
L 75.874909 172.964155 
L 76.673455 173.770126 
L 77.205818 174.045097 
L 80.4 174.256958 
L 81.464727 174.080027 
L 82.529455 173.648794 
L 83.594182 172.914497 
L 84.658909 171.87073 
L 85.989818 170.202793 
L 88.651636 166.684963 
L 89.450182 166.010322 
L 89.982545 165.781505 
L 90.514909 165.786996 
L 90.781091 165.890354 
L 91.047273 165.587187 
L 91.579636 163.798987 
L 92.112 162.633923 
L 92.644364 162.050104 
L 92.910545 161.949457 
L 93.442909 162.115597 
L 93.975273 162.487105 
L 95.04 163.181464 
L 96.370909 164.373068 
L 97.968 166.169158 
L 101.694545 170.622855 
L 102.493091 171.230674 
L 103.025455 171.462858 
L 103.557818 171.5077 
L 104.090182 171.313208 
L 104.622545 170.835027 
L 105.154909 169.993314 
L 105.687273 168.73135 
L 106.219636 167.24599 
L 106.485818 167.295148 
L 108.082909 168.228771 
L 109.68 168.888873 
L 110.744727 169.126513 
L 123.521455 170.349214 
L 124.053818 170.429141 
L 125.917091 166.97278 
L 126.981818 165.520054 
L 127.780364 162.433164 
L 128.578909 160.127916 
L 129.377455 158.504216 
L 130.176 157.464853 
L 130.974545 156.911527 
L 131.506909 156.764174 
L 132.305455 156.809274 
L 133.104 157.098317 
L 134.168727 157.733538 
L 139.226182 161.150704 
L 140.823273 161.980382 
L 142.420364 162.570037 
L 144.017455 163.118424 
L 144.816 163.429534 
L 145.614545 163.461494 
L 146.413091 163.225011 
L 147.211636 162.743082 
L 148.276364 161.783663 
L 149.607273 160.206272 
L 151.736727 157.248053 
L 154.132364 153.9977 
L 155.729455 152.18108 
L 157.060364 150.96059 
L 157.326545 150.753425 
L 157.592727 150.712573 
L 158.657455 151.896371 
L 159.722182 152.723753 
L 160.254545 153.029268 
L 161.053091 159.976885 
L 161.851636 164.825332 
L 162.384 167.045939 
L 162.916364 168.533077 
L 163.448727 169.373547 
L 163.714909 169.567986 
L 163.981091 169.620994 
L 164.247273 169.546265 
L 164.779636 169.031944 
L 165.312 168.079397 
L 166.110545 165.939978 
L 166.909091 163.098688 
L 167.973818 158.484273 
L 169.570909 150.4764 
L 169.837091 150.995262 
L 170.635636 156.112705 
L 171.434182 159.922012 
L 172.232727 162.600167 
L 172.765091 163.842603 
L 173.297455 164.713686 
L 173.829818 165.254494 
L 174.362182 165.527168 
L 174.894545 165.580901 
L 175.693091 165.369558 
L 177.822545 164.517934 
L 178.354909 164.559547 
L 178.887273 164.803507 
L 179.419636 165.295864 
L 179.685818 165.804539 
L 180.484364 167.987211 
L 181.282909 169.482758 
L 182.081455 170.39314 
L 182.613818 170.730547 
L 183.146182 170.88529 
L 183.944727 170.837272 
L 184.743273 170.526991 
L 185.808 169.840505 
L 187.937455 168.089325 
L 189.800727 166.66925 
L 191.131636 165.890785 
L 192.462545 165.337598 
L 193.527273 165.042839 
L 196.455273 165.063991 
L 198.052364 165.513026 
L 200.181818 166.373094 
L 202.577455 167.357687 
L 203.642182 167.594119 
L 204.440727 167.597262 
L 205.239273 167.3969 
L 206.037818 166.93336 
L 206.836364 166.154947 
L 207.634909 165.007287 
L 208.433455 163.440101 
L 208.965818 162.137888 
L 209.232 162.675864 
L 210.296727 167.77806 
L 211.095273 170.538249 
L 211.893818 172.40893 
L 212.426182 173.244755 
L 212.958545 173.788895 
L 213.490909 174.084758 
L 214.023273 174.157157 
L 214.555636 174.040901 
L 215.354182 173.56101 
L 216.152727 172.77424 
L 217.217455 171.349468 
L 218.548364 169.116568 
L 220.145455 165.930257 
L 221.742545 162.283825 
L 223.339636 158.154706 
L 224.936727 153.413139 
L 226.001455 150.276315 
L 226.267636 150.224083 
L 226.8 151.237115 
L 227.864727 154.579119 
L 228.929455 157.147285 
L 229.728 158.591568 
L 230.526545 159.659491 
L 231.325091 160.382737 
L 232.123636 160.80924 
L 232.922182 160.987535 
L 233.986909 160.943056 
L 237.979636 160.347461 
L 238.512 160.607755 
L 239.044364 161.095658 
L 239.842909 162.159782 
L 241.173818 164.486837 
L 242.770909 167.335845 
L 243.569455 168.390196 
L 244.368 168.938722 
L 244.900364 169.096366 
L 245.698909 169.036364 
L 246.497455 168.650559 
L 247.296 167.979717 
L 247.828364 167.51566 
L 251.022545 167.218156 
L 255.813818 166.160662 
L 256.612364 166.267059 
L 257.410909 166.63634 
L 257.943273 167.094648 
L 258.475636 167.787574 
L 259.008 168.789625 
L 259.540364 170.19138 
L 260.338909 173.077027 
L 261.137455 176.526412 
L 261.936 180.787552 
L 262.202182 182.403033 
L 262.468364 182.417347 
L 264.065455 175.897597 
L 265.396364 171.482957 
L 266.461091 168.730227 
L 267.259636 167.151161 
L 268.058182 166.009718 
L 268.856727 165.295588 
L 269.389091 165.060555 
L 269.921455 165.015006 
L 270.453818 165.151895 
L 270.986182 165.46613 
L 271.784727 166.255491 
L 272.583273 167.400785 
L 273.648 169.437036 
L 274.712727 171.958634 
L 276.309818 176.471418 
L 276.842182 178.293477 
L 278.173091 183.939537 
L 279.237818 182.359798 
L 280.568727 180.685161 
L 281.899636 179.372467 
L 283.496727 178.14564 
L 285.093818 177.190279 
L 286.957091 176.315898 
L 289.352727 175.454777 
L 292.014545 174.745655 
L 293.611636 174.46117 
L 297.338182 174.231801 
L 300 173.836171 
L 302.129455 173.296658 
L 303.992727 172.590523 
L 305.589818 171.737484 
L 306.920727 170.772902 
L 307.985455 169.769263 
L 309.050182 168.482313 
L 310.114909 166.971002 
L 311.179636 166.283376 
L 312.244364 165.333834 
L 313.309091 164.083265 
L 313.575273 163.716384 
L 313.841455 163.995792 
L 315.438545 167.623161 
L 316.769455 170.057805 
L 317.834182 171.463808 
L 318.632727 172.15499 
L 319.431273 172.532818 
L 320.229818 172.61872 
L 321.028364 172.448402 
L 322.093091 171.940228 
L 323.956364 170.938903 
L 324.754909 170.812822 
L 325.287273 170.954926 
L 325.819636 171.342683 
L 326.352 172.037905 
L 327.416727 174.098174 
L 328.215273 176.120215 
L 328.481455 175.954577 
L 329.28 173.459085 
L 330.078545 171.642293 
L 330.877091 170.340252 
L 331.675636 169.4384 
L 332.474182 168.84025 
L 333.272727 168.477151 
L 334.337455 168.262112 
L 335.668364 168.303328 
L 337.265455 168.663457 
L 339.128727 169.398514 
L 340.725818 170.269045 
L 342.322909 171.395726 
L 343.387636 172.384947 
L 345.783273 176.06971 
L 348.977455 180.945939 
L 350.574545 182.985799 
L 351.373091 183.804633 
L 351.639273 183.557358 
L 352.970182 177.064319 
L 354.034909 172.923441 
L 355.099636 169.746367 
L 355.898182 168.031171 
L 356.696727 166.88788 
L 357.229091 166.453435 
L 357.761455 166.275641 
L 358.293818 166.34785 
L 358.826182 166.663138 
L 359.358545 167.207882 
L 360.157091 168.149707 
L 363.351273 170.307429 
L 365.746909 171.630137 
L 368.941091 173.122317 
L 372.667636 174.669906 
L 373.732364 174.95503 
L 374.797091 174.913711 
L 375.861818 174.615292 
L 376.394182 174.348782 
L 376.926545 173.713509 
L 377.725091 172.288841 
L 379.588364 168.266982 
L 380.919273 165.58116 
L 381.984 163.883801 
L 382.782545 162.961142 
L 383.581091 162.377099 
L 384.379636 162.139079 
L 384.912 162.173302 
L 385.710545 162.510553 
L 386.509091 163.168031 
L 387.307636 164.121925 
L 388.106182 165.126151 
L 389.170909 164.380043 
L 390.235636 163.861337 
L 391.566545 163.46032 
L 393.163636 163.233161 
L 397.954909 163.225632 
L 399.818182 163.447387 
L 401.415273 163.859455 
L 402.746182 164.420257 
L 404.077091 165.226608 
L 405.408 166.32877 
L 406.738909 167.773277 
L 408.069818 169.609046 
L 409.400727 171.879812 
L 410.731636 174.633267 
L 412.328727 178.426792 
L 413.127273 180.241772 
L 413.393455 179.624525 
L 414.458182 175.009696 
L 415.256727 172.383479 
L 416.055273 170.403396 
L 416.853818 169.015265 
L 417.652364 168.151641 
L 418.184727 167.828928 
L 418.717091 167.685787 
L 419.515636 167.755493 
L 420.314182 168.075184 
L 422.709818 169.32779 
L 423.242182 169.365138 
L 423.774545 169.188898 
L 424.306909 168.725306 
L 424.839273 167.890483 
L 425.371636 166.589824 
L 425.904 164.71745 
L 426.436364 162.155655 
L 426.436364 162.155655 
" clip-path="url(#pf203baf3e6)" style="fill: none; stroke-dasharray: 3,4.95; stroke-dashoffset: 0; stroke: #ffa500; stroke-width: 3"/>
   </g>
   <g id="line2d_3">
    <path d="M 27.163636 230.519099 
L 28.228364 220.357803 
L 29.293091 211.958236 
L 30.624 203.342423 
L 31.954909 196.293226 
L 33.285818 190.438136 
L 34.616727 185.497089 
L 36.213818 180.523667 
L 37.810909 176.351916 
L 39.408 172.45094 
L 41.005091 163.099603 
L 42.602182 152.976139 
L 45.264 134.90753 
L 46.594909 125.707812 
L 47.127273 121.492877 
L 47.393455 120.515311 
L 47.659636 120.850559 
L 49.522909 126.128375 
L 51.652364 132.823002 
L 52.184727 136.384361 
L 53.249455 145.140241 
L 54.580364 157.144523 
L 55.112727 158.202517 
L 55.645091 159.970082 
L 56.177455 162.448963 
L 56.976 167.523119 
L 57.774545 174.209768 
L 58.839273 185.50978 
L 59.904 199.288603 
L 60.702545 209.685726 
L 61.234909 214.43356 
L 62.565818 200.776035 
L 64.162909 187.140162 
L 65.76 175.387956 
L 66.824727 170.950972 
L 67.889455 167.468988 
L 68.954182 164.805026 
L 70.018909 162.822008 
L 70.817455 161.732865 
L 71.616 160.984599 
L 72.414545 160.552364 
L 73.213091 160.462319 
L 73.745455 160.597896 
L 74.544 160.942918 
L 76.939636 160.817355 
L 77.472 160.682554 
L 78.004364 160.825056 
L 78.536727 161.254235 
L 79.335273 162.307221 
L 80.4 164.254947 
L 81.997091 167.7979 
L 85.989818 177.20347 
L 86.256 177.51496 
L 86.788364 177.40972 
L 87.586909 176.605804 
L 88.651636 175.079505 
L 89.450182 174.263295 
L 90.248727 173.803502 
L 91.047273 173.544641 
L 91.579636 172.647917 
L 92.112 172.133027 
L 92.644364 171.983239 
L 93.176727 172.175278 
L 93.709091 172.685593 
L 94.507636 173.849259 
L 95.306182 175.376974 
L 96.370909 177.954171 
L 97.435636 181.109626 
L 98.766545 185.777671 
L 99.032727 185.040715 
L 99.831273 173.712093 
L 100.629818 166.402499 
L 101.162182 163.307528 
L 101.694545 161.285522 
L 102.226909 160.09347 
L 102.759273 159.498082 
L 103.291636 159.253829 
L 104.356364 158.979652 
L 104.888727 158.577876 
L 105.421091 157.772112 
L 105.953455 156.423435 
L 106.485818 155.122016 
L 107.018182 153.810012 
L 107.550545 152.002665 
L 108.349091 148.288841 
L 109.147636 143.459716 
L 110.212364 135.485081 
L 110.478545 133.368678 
L 110.744727 134.664451 
L 111.809455 145.916927 
L 112.874182 154.455904 
L 113.938909 160.939948 
L 115.003636 165.912317 
L 116.068364 169.811393 
L 117.133091 173.007132 
L 118.730182 177.056601 
L 119.794909 179.805997 
L 124.053818 191.627685 
L 124.852364 192.555351 
L 125.917091 193.432097 
L 126.715636 193.813499 
L 127.248 193.956847 
L 127.514182 193.791709 
L 127.780364 193.378916 
L 128.312727 191.825094 
L 128.845091 189.232564 
L 129.377455 185.592504 
L 130.176 178.077731 
L 130.974545 167.987297 
L 131.773091 155.215532 
L 132.039273 154.542876 
L 132.837818 159.585261 
L 133.636364 163.271527 
L 134.168727 164.883192 
L 135.233455 167.271562 
L 135.765818 167.811057 
L 136.032 167.834643 
L 136.298182 167.67914 
L 136.564364 167.3523 
L 137.096727 166.151494 
L 137.629091 164.223815 
L 138.161455 161.544797 
L 138.96 156.115985 
L 139.758545 148.942762 
L 140.557091 140.004581 
L 141.888 123.178323 
L 142.952727 132.1183 
L 143.485091 135.137625 
L 143.751273 135.817014 
L 145.880727 137.094657 
L 146.413091 137.203316 
L 146.945455 137.112511 
L 147.477818 136.770131 
L 148.010182 136.106627 
L 148.542545 135.063241 
L 149.074909 133.584977 
L 149.341091 133.984371 
L 150.139636 138.101818 
L 150.672 139.911998 
L 151.204364 141.02547 
L 151.736727 141.492462 
L 152.002909 141.501407 
L 152.269091 141.383786 
L 152.801455 140.777383 
L 153.333818 139.763212 
L 154.132364 137.695328 
L 156.528 130.894546 
L 157.060364 129.904668 
L 157.592727 129.378399 
L 158.125091 129.703582 
L 158.657455 130.460342 
L 159.189818 131.696891 
L 159.988364 134.000792 
L 160.254545 134.384128 
L 161.319273 139.863392 
L 161.585455 140.840562 
L 162.117818 141.779727 
L 162.650182 142.253885 
L 163.182545 142.371333 
L 163.714909 142.227278 
L 164.513455 141.690441 
L 166.642909 139.913759 
L 167.175273 139.676689 
L 167.707636 139.626305 
L 168.24 139.778009 
L 168.772364 140.168476 
L 169.304727 140.837281 
L 169.570909 141.285056 
L 169.837091 142.740527 
L 172.498909 165.472053 
L 173.297455 172.408585 
L 173.563636 173.579434 
L 174.362182 174.71625 
L 175.959273 176.353504 
L 176.225455 176.101913 
L 177.556364 172.110252 
L 178.887273 168.264806 
L 179.685818 166.323331 
L 180.484364 164.86078 
L 181.282909 162.948141 
L 182.347636 159.784397 
L 183.944727 154.105185 
L 186.606545 144.427544 
L 187.405091 142.169987 
L 188.469818 139.928833 
L 189.002182 139.29634 
L 189.268364 139.215307 
L 189.534545 139.298256 
L 189.800727 139.550901 
L 190.333091 140.605546 
L 190.865455 142.453194 
L 191.397818 145.150135 
L 191.930182 148.750896 
L 192.462545 153.757902 
L 193.261091 165.116378 
L 193.527273 168.138881 
L 194.059636 169.096003 
L 194.858182 171.034992 
L 195.922909 174.274829 
L 198.850909 183.827805 
L 199.915636 186.416432 
L 200.714182 187.684233 
L 201.246545 188.313446 
L 202.577455 193.135077 
L 203.376 195.405015 
L 203.908364 196.503326 
L 204.440727 197.218216 
L 204.973091 197.421668 
L 205.239273 197.332745 
L 205.505455 197.099819 
L 206.037818 196.174535 
L 206.570182 194.59376 
L 207.102545 192.334079 
L 207.901091 187.695387 
L 209.764364 175.284529 
L 210.296727 173.043944 
L 210.829091 171.818447 
L 211.361455 171.16627 
L 211.627636 171.169412 
L 211.893818 171.396986 
L 212.16 171.911635 
L 212.692364 173.926475 
L 213.224727 177.505463 
L 213.757091 183.00531 
L 214.023273 186.54885 
L 214.289455 187.164802 
L 215.620364 180.653425 
L 217.217455 171.49304 
L 221.742545 144.521267 
L 223.073455 138.222132 
L 224.138182 134.122089 
L 225.202909 130.910379 
L 225.735273 129.620685 
L 226.001455 129.278944 
L 226.267636 129.195684 
L 227.066182 129.787929 
L 227.598545 129.68685 
L 228.130909 129.327325 
L 228.663273 128.709094 
L 228.929455 128.749843 
L 229.728 144.049233 
L 230.260364 150.257546 
L 231.591273 162.373525 
L 232.656 170.351976 
L 233.454545 175.037979 
L 234.253091 178.546502 
L 235.051636 180.862058 
L 235.584 181.813724 
L 236.116364 182.334312 
L 236.648727 182.482184 
L 237.181091 182.306047 
L 238.245818 181.176966 
L 240.109091 179.075551 
L 240.641455 178.736952 
L 241.173818 183.673614 
L 241.706182 188.208102 
L 242.238545 191.22741 
L 242.770909 192.739154 
L 243.037091 192.941708 
L 243.303273 192.756938 
L 243.569455 192.83728 
L 243.835636 193.269618 
L 244.101818 193.451073 
L 244.368 193.399757 
L 244.634182 193.121022 
L 245.166545 191.948464 
L 245.698909 189.963598 
L 248.094545 178.141289 
L 249.159273 171.79878 
L 250.490182 162.461309 
L 252.087273 149.402089 
L 253.684364 134.359937 
L 255.281455 117.061281 
L 255.813818 110.722467 
L 256.08 110.36567 
L 257.144727 131.272961 
L 258.209455 148.037267 
L 259.008 157.822755 
L 259.806545 165.203177 
L 260.072727 167.156117 
L 262.202182 175.536984 
L 262.468364 175.72291 
L 263.266909 174.073828 
L 264.065455 171.781513 
L 264.864 168.872107 
L 266.194909 163.017017 
L 267.525818 157.210291 
L 268.324364 154.738075 
L 268.856727 153.947886 
L 269.122909 153.907033 
L 269.389091 154.143534 
L 269.655273 154.707306 
L 269.921455 155.624457 
L 270.453818 158.689936 
L 271.784727 168.088756 
L 272.583273 171.354372 
L 274.978909 182.205348 
L 275.511273 183.459612 
L 275.777455 183.74382 
L 276.043636 183.763262 
L 276.309818 183.483854 
L 276.842182 182.100522 
L 277.374545 180.330384 
L 277.906909 177.691425 
L 278.439273 172.907952 
L 279.504 159.731199 
L 280.568727 143.273012 
L 281.367273 128.896506 
L 282.698182 150.928768 
L 283.762909 165.273711 
L 284.827636 177.133144 
L 286.158545 189.295432 
L 287.223273 196.7731 
L 288.021818 200.927446 
L 288.554182 202.944479 
L 289.086545 204.304277 
L 289.618909 204.948045 
L 289.885091 204.963516 
L 290.151273 204.7616 
L 290.417455 204.340329 
L 290.949818 202.792948 
L 291.482182 200.134356 
L 292.014545 196.281468 
L 292.546909 191.056074 
L 293.611636 179.064172 
L 294.410182 174.703887 
L 295.208727 168.791835 
L 296.007273 161.068981 
L 296.805818 151.289916 
L 297.870545 137.103774 
L 298.136727 138.05361 
L 299.201455 145.732744 
L 300 149.958177 
L 300.532364 151.954387 
L 301.064727 153.239834 
L 301.597091 153.807405 
L 301.863273 153.820251 
L 302.129455 153.650296 
L 302.661818 152.760047 
L 303.194182 151.156946 
L 303.726545 148.87342 
L 305.057455 155.466502 
L 306.122182 159.505507 
L 307.186909 162.53186 
L 307.985455 164.213352 
L 308.784 165.440351 
L 309.582545 166.230264 
L 310.114909 166.6937 
L 311.179636 168.184672 
L 313.575273 171.03551 
L 314.107636 172.585032 
L 314.64 174.381709 
L 315.172364 170.208439 
L 316.237091 161.784492 
L 317.568 153.094139 
L 318.898909 145.836223 
L 320.762182 137.086801 
L 322.359273 130.450155 
L 323.157818 128.399089 
L 323.690182 127.552473 
L 324.222545 127.103904 
L 324.754909 127.021369 
L 325.287273 127.290072 
L 325.819636 127.898806 
L 326.352 128.836297 
L 326.618182 129.421618 
L 327.416727 132.316054 
L 328.481455 136.241307 
L 329.28 136.886335 
L 329.812364 137.090582 
L 330.344727 136.963345 
L 330.877091 136.382962 
L 331.409455 135.244661 
L 331.941818 133.473452 
L 332.208 132.309234 
L 332.474182 132.828441 
L 334.869818 151.986279 
L 336.200727 164.803973 
L 336.999273 173.55438 
L 337.265455 173.665059 
L 338.064 167.988799 
L 338.596364 165.208513 
L 339.128727 163.332996 
L 339.661091 162.486397 
L 339.927273 162.44311 
L 340.193455 162.68871 
L 340.459636 163.221091 
L 340.992 165.148166 
L 341.524364 168.271764 
L 342.322909 174.495341 
L 342.855273 175.062255 
L 343.121455 175.697321 
L 343.92 178.825547 
L 349.776 202.916041 
L 351.106909 207.193412 
L 351.639273 208.364313 
L 352.437818 207.74401 
L 353.502545 193.126755 
L 354.567273 181.724387 
L 355.365818 175.208124 
L 356.164364 170.378584 
L 356.962909 167.099327 
L 357.495273 165.70087 
L 358.027636 164.89628 
L 358.56 164.5956 
L 359.092364 164.736806 
L 359.624727 165.212087 
L 359.890909 165.541983 
L 360.689455 168.677478 
L 361.754182 173.964807 
L 363.617455 184.225766 
L 364.149818 183.975711 
L 364.682182 183.372709 
L 365.214545 182.351648 
L 365.746909 180.837194 
L 366.279273 178.756809 
L 367.077818 174.443092 
L 367.876364 168.511459 
L 368.674909 162.147039 
L 369.207273 160.903912 
L 369.739636 160.197138 
L 370.272 159.967078 
L 370.804364 160.148032 
L 371.336727 160.673282 
L 372.135273 161.951581 
L 373.2 164.221294 
L 375.329455 168.817009 
L 376.394182 170.56294 
L 376.660364 170.766582 
L 377.458909 170.730961 
L 377.991273 170.507065 
L 378.523636 170.08904 
L 379.056 169.435879 
L 379.588364 168.494573 
L 380.120727 167.187473 
L 380.653091 165.443425 
L 381.451636 161.851038 
L 382.250182 156.779265 
L 383.581091 147.039084 
L 384.113455 143.41434 
L 384.912 135.790407 
L 385.444364 136.520853 
L 385.976727 137.870135 
L 386.509091 139.809469 
L 387.307636 143.610402 
L 392.365091 171.05825 
L 393.429818 175.993064 
L 395.825455 190.681595 
L 397.954909 205.105931 
L 399.818182 218.314231 
L 400.882909 223.157808 
L 401.947636 226.932772 
L 402.746182 228.940309 
L 403.278545 229.857753 
L 403.810909 230.388528 
L 404.077091 230.056975 
L 404.343273 228.718899 
L 405.408 220.307402 
L 406.206545 215.401682 
L 407.005091 211.615546 
L 407.803636 208.84429 
L 408.602182 206.986092 
L 409.134545 206.217831 
L 409.666909 205.792796 
L 410.199273 205.690716 
L 410.997818 205.907568 
L 411.796364 206.436323 
L 413.127273 207.654482 
L 413.393455 207.310255 
L 414.724364 204.248229 
L 414.990545 203.727606 
L 415.256727 203.665291 
L 417.12 205.463609 
L 417.918545 205.887176 
L 418.450909 205.945036 
L 418.983273 205.756398 
L 419.515636 205.297141 
L 420.048 204.491205 
L 420.580364 203.331269 
L 421.378909 200.791281 
L 422.177455 197.167314 
L 422.976 192.297681 
L 423.774545 186.027502 
L 424.573091 178.187391 
L 425.371636 168.601349 
L 426.436364 152.652545 
L 426.436364 152.652545 
" clip-path="url(#pf203baf3e6)" style="fill: none; stroke: #ffa500; stroke-width: 3; stroke-linecap: square"/>
   </g>
   <g id="patch_3">
    <path d="M 7.2 331.2 
L 7.2 7.2 
" style="fill: none; stroke: #000000; stroke-width: 0.8; stroke-linejoin: miter; stroke-linecap: square"/>
   </g>
   <g id="patch_4">
    <path d="M 446.4 331.2 
L 446.4 7.2 
" style="fill: none; stroke: #000000; stroke-width: 0.8; stroke-linejoin: miter; stroke-linecap: square"/>
   </g>
   <g id="patch_5">
    <path d="M 7.2 331.2 
L 446.4 331.2 
" style="fill: none; stroke: #000000; stroke-width: 0.8; stroke-linejoin: miter; stroke-linecap: square"/>
   </g>
   <g id="patch_6">
    <path d="M 7.2 7.2 
L 446.4 7.2 
" style="fill: none; stroke: #000000; stroke-width: 0.8; stroke-linejoin: miter; stroke-linecap: square"/>
   </g>
  </g>
 </g>
 <defs>
  <clipPath id="pf203baf3e6">
   <rect x="7.2" y="7.2" width="439.2" height="324"/>
  </clipPath>
 </defs>
</svg>
