<?xml version="1.0" encoding="utf-8" standalone="no"?>
<!DOCTYPE svg PUBLIC "-//W3C//DTD SVG 1.1//EN"
  "http://www.w3.org/Graphics/SVG/1.1/DTD/svg11.dtd">
<svg xmlns:xlink="http://www.w3.org/1999/xlink" width="453.6pt" height="338.4pt" viewBox="0 0 453.6 338.4" xmlns="http://www.w3.org/2000/svg" version="1.1">
 <metadata>
  <rdf:RDF xmlns:dc="http://purl.org/dc/elements/1.1/" xmlns:cc="http://creativecommons.org/ns#" xmlns:rdf="http://www.w3.org/1999/02/22-rdf-syntax-ns#">
   <cc:Work>
    <dc:type rdf:resource="http://purl.org/dc/dcmitype/StillImage"/>
    <dc:date>2025-05-14T00:07:22.875196</dc:date>
    <dc:format>image/svg+xml</dc:format>
    <dc:creator>
     <cc:Agent>
      <dc:title>Matplotlib v3.10.1, https://matplotlib.org/</dc:title>
     </cc:Agent>
    </dc:creator>
   </cc:Work>
  </rdf:RDF>
 </metadata>
 <defs>
  <style type="text/css">*{stroke-linejoin: round; stroke-linecap: butt}</style>
 </defs>
 <g id="figure_1">
  <g id="patch_1">
   <path d="M 0 338.4 
L 453.6 338.4 
L 453.6 0 
L 0 0 
z
" style="fill: #ffffff"/>
  </g>
  <g id="axes_1">
   <g id="patch_2">
    <path d="M 7.2 331.2 
L 446.4 331.2 
L 446.4 7.2 
L 7.2 7.2 
z
" style="fill: #ffffff"/>
   </g>
   <g id="matplotlib.axis_1"/>
   <g id="matplotlib.axis_2"/>
   <g id="line2d_1">
    <path d="M 27.163636 316.472727 
L 426.436364 21.927273 
L 426.436364 21.927273 
" clip-path="url(#p4a3e501e91)" style="fill: none; stroke-dasharray: 11.1,4.8; stroke-dashoffset: 0; stroke: #000000; stroke-width: 3"/>
   </g>
   <g id="line2d_2">
    <path d="M 27.163636 236.085028 
L 29.026909 222.899594 
L 30.890182 207.973232 
L 32.753455 191.188701 
L 34.882909 169.701714 
L 37.278545 142.88125 
L 39.940364 110.795888 
L 40.206545 111.39206 
L 41.271273 131.765508 
L 42.069818 143.072364 
L 42.868364 151.457252 
L 43.666909 157.49912 
L 44.465455 161.302787 
L 45.264 164.178334 
L 46.062545 166.307679 
L 46.861091 167.732355 
L 47.393455 168.31996 
L 47.925818 168.676578 
L 48.458182 168.842306 
L 49.256727 168.811313 
L 51.918545 168.310228 
L 52.450909 168.440119 
L 53.249455 168.911198 
L 54.048 169.75419 
L 54.846545 170.970575 
L 55.911273 173.057131 
L 58.839273 179.54384 
L 59.637818 180.746814 
L 60.170182 181.308091 
L 60.436364 181.485077 
L 61.767273 185.82921 
L 63.098182 190.903622 
L 64.429091 197.146202 
L 65.493818 203.438209 
L 66.292364 209.148891 
L 66.824727 213.626728 
L 67.357091 211.900691 
L 68.688 206.462754 
L 70.018909 199.906434 
L 71.349818 192.121351 
L 72.946909 181.262746 
L 75.874909 160.477467 
L 76.673455 156.379078 
L 77.205818 154.80482 
L 77.738182 154.270409 
L 78.270545 154.077994 
L 78.802909 154.237847 
L 79.335273 154.761762 
L 79.867636 155.658307 
L 80.4 156.932595 
L 81.198545 159.581953 
L 81.997091 163.097088 
L 83.061818 169.073921 
L 85.457455 183.910534 
L 86.522182 188.789526 
L 87.586909 192.747888 
L 88.651636 195.945247 
L 89.716364 198.489517 
L 90.781091 200.500094 
L 91.845818 202.060807 
L 92.910545 203.225746 
L 93.709091 203.877713 
L 98.766545 214.174459 
L 100.097455 217.430485 
L 101.162182 220.767244 
L 101.960727 223.944688 
L 102.759273 227.893138 
L 103.557818 232.80106 
L 103.824 234.677485 
L 104.090182 235.368518 
L 105.421091 210.222242 
L 106.752 189.416736 
L 107.816727 176.071449 
L 108.881455 165.743486 
L 109.68 159.931933 
L 110.212364 156.960045 
L 110.478545 156.280628 
L 111.543273 155.750074 
L 112.608 155.032847 
L 116.600727 152.00283 
L 117.399273 151.720846 
L 118.197818 151.737666 
L 118.730182 151.930305 
L 119.528727 152.600079 
L 120.327273 153.808614 
L 120.859636 154.961981 
L 121.658182 157.296479 
L 122.456727 160.485854 
L 123.255273 164.660313 
L 124.053818 169.961406 
L 124.852364 175.909893 
L 125.118545 176.322799 
L 127.780364 174.517285 
L 128.578909 174.226914 
L 129.377455 174.223954 
L 130.176 174.50966 
L 130.974545 175.087353 
L 131.773091 175.95304 
L 132.571636 177.110624 
L 133.636364 179.111154 
L 134.701091 181.651881 
L 135.765818 184.764021 
L 136.298182 186.546661 
L 137.362909 192.313318 
L 138.161455 195.702105 
L 138.96 198.236149 
L 139.492364 199.430242 
L 140.024727 200.206583 
L 140.557091 200.5301 
L 140.823273 200.51817 
L 141.355636 200.127151 
L 141.888 199.210153 
L 142.420364 197.723805 
L 142.952727 195.618815 
L 143.751273 191.889018 
L 144.549818 190.851997 
L 145.614545 188.9762 
L 146.413091 187.151713 
L 147.477818 184.02392 
L 148.542545 179.969709 
L 149.607273 174.778503 
L 150.672 168.231647 
L 151.736727 160.056173 
L 153.067636 148.755058 
L 153.333818 149.926949 
L 154.398545 156.0452 
L 155.197091 159.48292 
L 155.995636 161.808089 
L 156.528 162.711452 
L 157.060364 163.073451 
L 157.326545 163.041248 
L 157.592727 162.874488 
L 158.125091 162.123039 
L 158.657455 160.819014 
L 159.189818 158.971653 
L 159.988364 155.226473 
L 160.254545 153.729764 
L 161.319273 151.498471 
L 162.384 148.759812 
L 163.714909 144.653394 
L 165.312 138.818832 
L 167.441455 129.979056 
L 169.304727 121.950472 
L 169.570909 122.318796 
L 170.369455 125.548314 
L 171.434182 130.793298 
L 172.765091 138.561561 
L 174.894545 152.532442 
L 177.024 166.284176 
L 177.822545 169.943241 
L 178.887273 176.019242 
L 180.218182 185.213796 
L 182.081455 199.958866 
L 184.477091 218.79636 
L 185.808 227.395282 
L 186.872727 232.613175 
L 187.671273 235.370851 
L 187.937455 236.05556 
L 188.203636 235.22553 
L 189.268364 222.565268 
L 190.599273 208.735356 
L 191.664 199.919935 
L 192.728727 193.011662 
L 193.527273 189.03231 
L 194.059636 188.710632 
L 194.592 188.12971 
L 195.390545 186.818778 
L 196.189091 184.985993 
L 197.253818 181.839676 
L 198.584727 177.038502 
L 202.577455 161.586027 
L 203.376 159.401245 
L 203.908364 158.329419 
L 204.440727 157.634842 
L 204.973091 157.382415 
L 205.239273 157.453775 
L 205.505455 157.659959 
L 206.037818 158.507705 
L 206.570182 160.034644 
L 207.102545 162.291548 
L 207.634909 165.382339 
L 208.433455 171.773424 
L 208.965818 176.88309 
L 209.232 176.713415 
L 209.498182 176.75266 
L 209.764364 176.985397 
L 210.562909 178.110552 
L 211.361455 179.220907 
L 212.426182 181.151199 
L 215.620364 187.542105 
L 216.152727 188.090644 
L 216.685091 188.275523 
L 216.951273 188.200665 
L 217.217455 187.97959 
L 217.749818 187.080085 
L 218.282182 185.467838 
L 218.814545 182.962095 
L 219.346909 179.447723 
L 219.879273 174.73993 
L 220.677818 165.057566 
L 221.476364 151.660565 
L 222.274909 133.832374 
L 223.073455 114.756672 
L 225.202909 165.095242 
L 226.001455 176.626985 
L 226.8 184.553576 
L 227.864727 187.431679 
L 228.663273 189.071241 
L 229.728 190.71493 
L 230.792727 191.895253 
L 231.857455 192.695635 
L 232.922182 193.223543 
L 234.519273 193.683768 
L 235.850182 194.12076 
L 236.648727 194.664321 
L 237.181091 195.279645 
L 237.713455 196.211264 
L 238.245818 197.585213 
L 238.778182 199.555289 
L 239.310545 202.315207 
L 239.842909 206.154666 
L 240.109091 208.54931 
L 240.375273 208.7463 
L 241.706182 184.894944 
L 242.770909 169.372635 
L 243.569455 160.650775 
L 245.432727 151.328751 
L 249.159273 133.970518 
L 250.224 127.139211 
L 251.022545 120.609623 
L 251.821091 112.473798 
L 252.087273 109.331652 
L 252.353455 107.724518 
L 252.885818 113.888966 
L 256.346182 157.453281 
L 257.410909 167.886018 
L 258.209455 173.959148 
L 259.008 178.259102 
L 259.540364 180.060086 
L 260.072727 180.980986 
L 260.338909 181.114465 
L 260.605091 180.959905 
L 260.871273 180.518787 
L 261.137455 179.803847 
L 261.669818 177.450063 
L 262.202182 173.879984 
L 262.734545 169.08177 
L 263.533091 159.503014 
L 264.065455 151.514707 
L 264.864 161.763103 
L 265.662545 170.762417 
L 266.461091 177.708769 
L 267.259636 182.770712 
L 268.058182 186.160531 
L 268.590545 187.562871 
L 269.122909 188.349394 
L 269.389091 188.524541 
L 269.655273 188.560961 
L 269.921455 188.452195 
L 270.453818 187.85535 
L 270.986182 186.782896 
L 271.784727 184.358156 
L 272.583273 181.052614 
L 273.648 175.45339 
L 274.978909 166.851598 
L 276.576 154.688878 
L 277.108364 147.244669 
L 278.439273 125.15716 
L 278.971636 133.252708 
L 280.302545 154.703544 
L 281.367273 168.572477 
L 282.165818 176.500682 
L 282.964364 182.058957 
L 283.496727 184.346405 
L 284.029091 185.478647 
L 284.295273 185.633117 
L 284.561455 185.464877 
L 284.827636 185.028154 
L 285.36 183.319969 
L 285.892364 180.519998 
L 286.424727 176.707943 
L 287.223273 169.203992 
L 288.288 156.460304 
L 289.618909 137.41102 
L 292.014545 101.191207 
L 292.813091 109.766222 
L 293.345455 114.368075 
L 297.072 133.160806 
L 299.467636 146.783592 
L 302.395636 164.762216 
L 304.258909 175.496044 
L 305.323636 180.54359 
L 306.122182 183.418957 
L 306.654545 184.765681 
L 307.186909 185.54754 
L 307.453091 185.696807 
L 307.719273 185.668774 
L 307.985455 185.451018 
L 308.251636 185.031114 
L 308.784 183.514312 
L 309.316364 180.980178 
L 309.848727 177.32376 
L 310.381091 170.451369 
L 311.179636 155.577394 
L 312.244364 130.130162 
L 312.776727 117.868408 
L 313.309091 122.713448 
L 314.906182 141.167458 
L 316.769455 162.385602 
L 318.100364 175.119019 
L 319.165091 183.343651 
L 320.229818 189.755906 
L 321.028364 193.444752 
L 321.826909 196.279125 
L 322.625455 198.363708 
L 323.424 199.814936 
L 324.222545 200.774857 
L 325.021091 201.350666 
L 325.819636 201.666334 
L 326.884364 201.847043 
L 327.150545 201.430951 
L 327.416727 200.518932 
L 327.949091 197.184326 
L 328.481455 192.734567 
L 330.344727 184.143495 
L 332.208 175.536411 
L 333.538909 168.196035 
L 334.603636 160.996224 
L 335.668364 152.156 
L 336.733091 141.224958 
L 337.265455 134.837057 
L 337.531636 134.224963 
L 338.330182 151.623069 
L 339.128727 164.675966 
L 339.927273 173.496097 
L 340.459636 177.072455 
L 340.992 178.864109 
L 341.258182 179.101645 
L 341.524364 178.906181 
L 341.790545 178.28229 
L 342.322909 175.766636 
L 342.855273 171.59137 
L 343.387636 166.819978 
L 344.718545 160.674815 
L 346.315636 152.031401 
L 347.912727 141.885447 
L 349.243636 132.068079 
L 350.574545 120.743148 
L 351.373091 113.550469 
L 352.704 115.386931 
L 353.768727 117.19702 
L 354.833455 119.383237 
L 355.898182 122.036453 
L 356.962909 125.265612 
L 358.027636 129.202669 
L 359.092364 134.014025 
L 359.890909 138.314696 
L 360.689455 138.84673 
L 361.488 139.617241 
L 362.552727 140.984776 
L 363.617455 142.720052 
L 364.948364 145.361472 
L 366.545455 149.13908 
L 368.408727 154.206854 
L 374.530909 171.680132 
L 375.861818 174.485485 
L 376.394182 175.392077 
L 376.660364 177.447327 
L 376.926545 180.378176 
L 377.458909 176.532437 
L 378.789818 166.094991 
L 379.588364 161.048073 
L 380.386909 157.255664 
L 380.919273 155.510565 
L 381.451636 154.423758 
L 381.717818 154.127376 
L 381.984 154.010044 
L 382.250182 154.048302 
L 382.516364 154.27014 
L 383.048727 155.190546 
L 383.581091 156.7509 
L 384.379636 160.255136 
L 385.178182 165.02922 
L 386.242909 173.125126 
L 387.573818 185.523992 
L 388.638545 196.805821 
L 388.904727 197.963673 
L 390.768 193.16362 
L 392.631273 188.948078 
L 393.163636 187.854005 
L 393.962182 187.242539 
L 394.760727 186.353125 
L 395.825455 184.751552 
L 396.890182 182.696168 
L 397.954909 180.201684 
L 399.285818 176.481575 
L 400.616727 172.116451 
L 402.213818 166.061083 
L 404.077091 157.961992 
L 406.206545 147.593124 
L 409.666909 129.615307 
L 409.933091 127.241877 
L 410.731636 117.070224 
L 410.997818 115.260448 
L 411.796364 125.333293 
L 413.127273 140.983341 
L 414.192 151.14737 
L 415.256727 159.161198 
L 416.055273 163.830956 
L 416.853818 167.417719 
L 417.652364 169.985806 
L 418.184727 171.160119 
L 418.717091 171.917757 
L 419.249455 172.258408 
L 419.781818 172.1487 
L 420.314182 171.604243 
L 420.846545 170.601129 
L 421.378909 169.088094 
L 421.911273 166.999834 
L 422.709818 162.689654 
L 423.508364 156.689498 
L 424.306909 148.588837 
L 425.105455 137.858911 
L 425.904 123.835419 
L 426.436364 112.199888 
L 426.436364 112.199888 
" clip-path="url(#p4a3e501e91)" style="fill: none; stroke-dasharray: 3,4.95; stroke-dashoffset: 0; stroke: #0000ff; stroke-width: 3"/>
   </g>
   <g id="line2d_3">
    <path d="M 27.163636 229.643036 
L 28.228364 225.374971 
L 29.293091 220.200943 
L 30.624 212.363473 
L 31.954909 202.954795 
L 33.285818 191.913239 
L 34.882909 176.478929 
L 36.48 158.715011 
L 38.343273 135.261177 
L 39.940364 113.145546 
L 40.206545 113.110606 
L 41.271273 130.269158 
L 42.069818 138.86781 
L 42.602182 142.789259 
L 43.134545 145.47248 
L 43.666909 147.055708 
L 43.933091 147.3202 
L 44.465455 147.273958 
L 44.997818 146.92039 
L 45.530182 146.315741 
L 46.062545 145.429467 
L 46.861091 143.675667 
L 47.127273 142.977323 
L 47.393455 142.977502 
L 47.659636 143.672841 
L 48.724364 150.745407 
L 49.789091 156.100457 
L 51.12 161.316646 
L 53.249455 168.494614 
L 54.846545 173.525071 
L 57.774545 179.44992 
L 58.306909 180.161407 
L 58.839273 180.624323 
L 59.371636 180.739907 
L 59.904 180.46927 
L 60.436364 179.771419 
L 63.098182 180.605889 
L 63.896727 181.363483 
L 64.429091 182.174809 
L 65.227636 184.165203 
L 65.76 186.109624 
L 66.558545 190.36042 
L 66.824727 192.146513 
L 67.090909 191.047327 
L 67.357091 190.890659 
L 68.155636 193.679328 
L 68.688 194.889253 
L 69.486545 195.958837 
L 70.018909 196.372776 
L 70.285091 196.367079 
L 70.551273 196.222701 
L 71.083636 195.482958 
L 71.616 194.168304 
L 72.148364 192.280486 
L 72.946909 188.385231 
L 73.745455 183.308218 
L 74.810182 175.028866 
L 77.205818 154.964179 
L 78.536727 151.091081 
L 79.867636 147.926284 
L 80.932364 145.913823 
L 81.198545 145.563754 
L 81.464727 146.764485 
L 84.126545 173.563644 
L 84.925091 179.66974 
L 85.723636 184.360085 
L 86.522182 187.847591 
L 87.320727 190.337007 
L 87.853091 191.320341 
L 88.651636 192.273355 
L 89.450182 192.870244 
L 90.514909 193.372675 
L 93.709091 194.526267 
L 95.306182 197.715687 
L 98.500364 204.562602 
L 99.565091 207.315838 
L 100.629818 210.84241 
L 101.428364 214.286948 
L 102.226909 218.71168 
L 103.025455 224.413884 
L 104.090182 232.980736 
L 105.154909 216.581662 
L 105.953455 207.336066 
L 108.349091 181.562446 
L 109.147636 175.888095 
L 109.946182 171.746244 
L 110.212364 170.692851 
L 110.478545 170.380861 
L 111.277091 171.018342 
L 112.075636 171.288126 
L 112.874182 171.259511 
L 113.672727 171.027806 
L 114.737455 170.510214 
L 116.600727 169.335184 
L 118.197818 165.852073 
L 118.996364 164.682155 
L 119.794909 163.967261 
L 120.327273 163.768567 
L 120.859636 163.815392 
L 121.392 164.112177 
L 121.924364 164.666951 
L 122.456727 165.528646 
L 122.722909 166.069067 
L 122.989091 167.033293 
L 123.521455 170.729002 
L 124.852364 181.502614 
L 125.118545 182.013567 
L 125.650909 181.655648 
L 126.183273 181.039652 
L 126.715636 180.142434 
L 127.248 178.879045 
L 128.845091 174.743384 
L 130.176 173.533727 
L 131.240727 172.882747 
L 132.039273 172.688627 
L 132.571636 172.735767 
L 133.104 172.945808 
L 133.636364 173.337455 
L 134.168727 173.932057 
L 134.967273 175.254382 
L 135.765818 177.160633 
L 136.298182 178.796966 
L 136.830545 181.845776 
L 137.895273 194.339234 
L 138.96 204.082687 
L 139.758545 209.540224 
L 140.290909 211.968956 
L 140.823273 213.406819 
L 141.089455 213.727644 
L 141.355636 213.795954 
L 141.621818 213.588693 
L 141.888 213.1125 
L 142.420364 211.312772 
L 142.952727 208.348464 
L 143.751273 202.653121 
L 144.549818 200.585627 
L 145.348364 197.855984 
L 146.146909 194.40113 
L 146.945455 190.157151 
L 148.010182 183.149173 
L 149.074909 174.504816 
L 150.139636 164.137698 
L 151.204364 152.018394 
L 152.002909 141.829069 
L 152.535273 140.564469 
L 152.801455 139.616658 
L 153.067636 140.013777 
L 154.930909 157.150576 
L 155.729455 161.411912 
L 156.261818 163.200562 
L 156.794182 164.185241 
L 157.060364 164.411564 
L 157.326545 164.452155 
L 157.592727 164.338724 
L 158.125091 163.671193 
L 158.657455 162.512937 
L 159.456 160.123137 
L 160.254545 157.360662 
L 160.786909 157.57012 
L 161.319273 158.291025 
L 161.851636 159.645912 
L 162.384 161.772163 
L 162.916364 164.57617 
L 163.981091 155.747742 
L 165.578182 144.869894 
L 166.642909 138.50137 
L 167.441455 134.868185 
L 168.24 132.171059 
L 169.038545 130.365993 
L 169.304727 129.959949 
L 169.570909 131.108382 
L 170.369455 137.086875 
L 171.434182 146.886437 
L 173.031273 163.125839 
L 173.563636 160.042672 
L 174.096 158.432757 
L 174.362182 158.179793 
L 174.628364 158.301341 
L 174.894545 158.726986 
L 175.426909 160.473027 
L 175.959273 163.240256 
L 177.822545 175.870468 
L 178.887273 184.510787 
L 180.218182 197.328794 
L 184.210909 237.322178 
L 185.541818 248.022278 
L 186.606545 254.632913 
L 187.405091 258.272064 
L 187.937455 260.040575 
L 188.203636 259.358153 
L 189.002182 250.307035 
L 190.333091 236.395448 
L 191.397818 227.344195 
L 192.462545 220.130301 
L 193.261091 215.895248 
L 193.793455 213.018266 
L 194.858182 200.641737 
L 195.922909 191.194666 
L 196.987636 184.036299 
L 198.052364 178.614509 
L 199.117091 174.50374 
L 199.915636 171.775936 
L 201.512727 162.841657 
L 202.843636 156.72076 
L 203.908364 152.757599 
L 204.706909 150.483516 
L 205.239273 149.407564 
L 205.771636 148.755237 
L 206.037818 148.603413 
L 206.304 148.584531 
L 206.570182 148.717248 
L 206.836364 149.003313 
L 207.368727 150.101871 
L 207.901091 151.991304 
L 208.433455 154.762659 
L 208.965818 158.119018 
L 209.232 157.12963 
L 209.498182 156.875678 
L 209.764364 157.140529 
L 210.030545 157.900993 
L 210.562909 161.640612 
L 213.757091 185.689586 
L 214.821818 192.161584 
L 215.620364 195.885818 
L 216.152727 197.644283 
L 216.685091 198.701667 
L 216.951273 198.936377 
L 217.217455 198.929111 
L 217.483636 198.684758 
L 217.749818 198.188561 
L 218.282182 196.358423 
L 218.814545 193.24404 
L 219.346909 188.727227 
L 219.879273 182.618171 
L 220.677818 170.124667 
L 221.476364 153.119688 
L 222.274909 130.796886 
L 222.807273 117.12593 
L 223.073455 114.386329 
L 224.936727 166.83285 
L 225.735273 181.106751 
L 226.533818 190.807056 
L 226.8 193.167702 
L 227.598545 195.345487 
L 228.397091 196.878526 
L 229.195636 197.839478 
L 229.728 198.182371 
L 230.260364 198.310962 
L 230.792727 198.235117 
L 231.591273 197.747711 
L 232.389818 196.877943 
L 233.188364 195.684254 
L 234.519273 193.187527 
L 236.382545 189.586769 
L 237.181091 188.548313 
L 237.713455 188.254757 
L 238.245818 188.388057 
L 238.512 188.595317 
L 238.778182 188.970907 
L 239.044364 189.611483 
L 239.576727 191.837349 
L 240.109091 195.438017 
L 240.375273 195.306601 
L 241.706182 170.709267 
L 242.770909 154.733012 
L 243.569455 145.706024 
L 244.368 142.471348 
L 245.166545 140.741006 
L 247.562182 136.194456 
L 248.360727 133.789989 
L 249.159273 130.377341 
L 249.957818 125.571726 
L 250.756364 118.979615 
L 251.554909 110.144952 
L 252.353455 100.375351 
L 252.885818 104.416419 
L 253.950545 112.642083 
L 254.749091 117.425092 
L 255.015273 118.6404 
L 255.281455 120.525033 
L 256.612364 146.47658 
L 257.677091 163.969727 
L 258.741818 177.826101 
L 259.540364 185.531527 
L 260.072727 189.289849 
L 260.338909 189.892435 
L 260.605091 190.211243 
L 260.871273 190.245868 
L 261.137455 190.011786 
L 261.403636 189.447818 
L 261.936 187.448947 
L 262.468364 184.196151 
L 263.000727 179.625471 
L 263.799273 170.282053 
L 264.065455 166.498434 
L 266.461091 194.845343 
L 267.259636 201.25428 
L 268.058182 205.738709 
L 268.590545 207.733185 
L 269.122909 209.017071 
L 269.655273 209.623693 
L 269.921455 209.68393 
L 270.187636 209.588843 
L 270.72 208.980248 
L 271.252364 207.835133 
L 271.784727 206.204586 
L 272.583273 202.934657 
L 273.648 197.240974 
L 274.712727 190.297179 
L 276.309818 178.111135 
L 276.576 175.923797 
L 277.108364 167.724147 
L 278.439273 142.111591 
L 278.705455 144.751844 
L 280.568727 171.44448 
L 281.633455 183.83285 
L 282.432 190.791806 
L 282.964364 194.207908 
L 283.496727 196.5381 
L 284.029091 197.732955 
L 284.295273 197.915323 
L 284.561455 197.769913 
L 284.827636 197.346331 
L 285.093818 196.641797 
L 285.626182 194.313624 
L 286.158545 190.880523 
L 286.957091 183.666584 
L 287.755636 174.288002 
L 288.820364 158.979413 
L 290.417455 132.199495 
L 291.748364 110.355891 
L 292.014545 106.539575 
L 292.813091 114.596371 
L 293.345455 118.824921 
L 294.144 120.979966 
L 294.942545 122.60208 
L 296.273455 124.650019 
L 298.402909 127.899586 
L 299.201455 129.434105 
L 300.798545 136.099818 
L 303.194182 147.277411 
L 304.791273 154.978711 
L 305.323636 159.984051 
L 306.122182 167.419962 
L 306.920727 173.087271 
L 307.453091 175.787761 
L 307.985455 177.532949 
L 308.251636 178.028428 
L 308.517818 178.263094 
L 308.784 178.208195 
L 309.050182 177.842203 
L 309.316364 177.181624 
L 309.848727 174.892158 
L 310.114909 172.873821 
L 310.647273 166.391462 
L 311.445818 152.613669 
L 312.244364 134.782248 
L 312.776727 123.357387 
L 313.309091 128.493156 
L 316.503273 162.802591 
L 317.301818 168.822437 
L 318.100364 173.42985 
L 318.898909 176.670985 
L 319.431273 178.117863 
L 319.697455 178.641554 
L 320.762182 187.658809 
L 321.560727 192.588843 
L 322.359273 196.133805 
L 323.157818 198.564106 
L 323.956364 200.113112 
L 324.754909 201.021453 
L 325.553455 201.460778 
L 326.352 201.616952 
L 326.884364 201.615741 
L 327.150545 201.17682 
L 327.416727 200.251929 
L 327.949091 197.014876 
L 328.481455 192.772018 
L 331.675636 177.21764 
L 332.740364 170.807762 
L 333.805091 163.157235 
L 334.869818 153.923345 
L 335.934545 142.787734 
L 336.999273 129.443703 
L 337.265455 125.734539 
L 337.531636 124.654594 
L 338.330182 140.42175 
L 339.128727 152.186409 
L 339.927273 160.192837 
L 340.459636 163.507618 
L 340.992 165.018545 
L 341.258182 165.234821 
L 341.524364 165.108069 
L 341.790545 164.647754 
L 342.056727 164.512839 
L 342.322909 164.531677 
L 342.589091 164.020231 
L 342.855273 162.988233 
L 343.387636 160.308151 
L 343.92 159.473232 
L 344.452364 158.155079 
L 345.250909 155.309045 
L 346.049455 151.50762 
L 347.114182 145.127479 
L 348.445091 135.34514 
L 350.042182 121.577797 
L 351.373091 109.528238 
L 351.905455 110.506593 
L 352.437818 111.902789 
L 352.970182 113.826802 
L 353.502545 116.362101 
L 354.301091 121.543037 
L 355.099636 128.724189 
L 355.365818 131.163864 
L 355.898182 131.14247 
L 356.430545 131.495813 
L 356.962909 132.23901 
L 357.495273 133.388923 
L 358.027636 134.967083 
L 358.826182 138.172516 
L 359.624727 142.46018 
L 359.890909 144.145536 
L 360.689455 145.87395 
L 361.488 148.211542 
L 362.286545 151.142346 
L 363.085091 154.138589 
L 364.948364 159.675066 
L 366.545455 165.103046 
L 367.610182 169.121599 
L 367.876364 169.511541 
L 368.941091 166.81464 
L 369.739636 165.281915 
L 370.538182 164.224083 
L 371.070545 163.797227 
L 371.602909 163.591446 
L 372.135273 163.608714 
L 372.667636 163.845488 
L 373.2 164.289836 
L 373.998545 165.323179 
L 374.797091 166.742294 
L 375.861818 169.105452 
L 376.394182 170.422529 
L 376.926545 175.505014 
L 377.458909 171.887617 
L 378.523636 164.605459 
L 379.322182 160.805604 
L 379.854545 159.248793 
L 380.120727 158.799601 
L 381.185455 153.913926 
L 381.717818 152.735487 
L 381.984 152.492569 
L 382.250182 152.459019 
L 382.516364 152.657175 
L 382.782545 153.043709 
L 383.314909 154.417075 
L 383.847273 156.495782 
L 384.645818 160.778872 
L 385.710545 168.276633 
L 387.041455 179.544513 
L 388.638545 194.316494 
L 388.904727 195.019369 
L 389.969455 189.873911 
L 391.300364 182.203963 
L 392.631273 173.144547 
L 393.163636 169.145012 
L 393.962182 167.530432 
L 394.760727 165.349283 
L 395.825455 161.534582 
L 396.890182 156.712955 
L 398.487273 148.988378 
L 399.019636 147.520015 
L 399.552 147.206142 
L 400.350545 146.689178 
L 401.149091 145.801424 
L 401.947636 144.527181 
L 402.746182 142.839896 
L 403.810909 139.922548 
L 404.875636 136.254333 
L 405.940364 131.87082 
L 407.271273 125.472065 
L 409.134545 115.227886 
L 409.666909 112.132206 
L 410.199273 105.80194 
L 410.731636 98.463672 
L 410.997818 96.378102 
L 411.796364 105.505917 
L 414.192 132.428958 
L 415.256727 142.432506 
L 416.321455 150.435659 
L 417.386182 156.702998 
L 418.450909 161.551581 
L 419.515636 165.233744 
L 420.314182 167.300252 
L 421.112727 168.798396 
L 421.645091 169.405198 
L 422.177455 169.65897 
L 422.443636 169.632642 
L 422.709818 169.493287 
L 423.242182 168.810416 
L 423.774545 167.469209 
L 424.306909 165.300394 
L 424.839273 162.11223 
L 425.371636 157.687229 
L 425.904 151.726946 
L 426.436364 143.895262 
L 426.436364 143.895262 
" clip-path="url(#p4a3e501e91)" style="fill: none; stroke: #0000ff; stroke-width: 3; stroke-linecap: square"/>
   </g>
   <g id="patch_3">
    <path d="M 7.2 331.2 
L 7.2 7.2 
" style="fill: none; stroke: #000000; stroke-width: 0.8; stroke-linejoin: miter; stroke-linecap: square"/>
   </g>
   <g id="patch_4">
    <path d="M 446.4 331.2 
L 446.4 7.2 
" style="fill: none; stroke: #000000; stroke-width: 0.8; stroke-linejoin: miter; stroke-linecap: square"/>
   </g>
   <g id="patch_5">
    <path d="M 7.2 331.2 
L 446.4 331.2 
" style="fill: none; stroke: #000000; stroke-width: 0.8; stroke-linejoin: miter; stroke-linecap: square"/>
   </g>
   <g id="patch_6">
    <path d="M 7.2 7.2 
L 446.4 7.2 
" style="fill: none; stroke: #000000; stroke-width: 0.8; stroke-linejoin: miter; stroke-linecap: square"/>
   </g>
  </g>
 </g>
 <defs>
  <clipPath id="p4a3e501e91">
   <rect x="7.2" y="7.2" width="439.2" height="324"/>
  </clipPath>
 </defs>
</svg>
