<?xml version="1.0" encoding="utf-8" standalone="no"?>
<!DOCTYPE svg PUBLIC "-//W3C//DTD SVG 1.1//EN"
  "http://www.w3.org/Graphics/SVG/1.1/DTD/svg11.dtd">
<svg xmlns:xlink="http://www.w3.org/1999/xlink" width="453.6pt" height="338.4pt" viewBox="0 0 453.6 338.4" xmlns="http://www.w3.org/2000/svg" version="1.1">
 <metadata>
  <rdf:RDF xmlns:dc="http://purl.org/dc/elements/1.1/" xmlns:cc="http://creativecommons.org/ns#" xmlns:rdf="http://www.w3.org/1999/02/22-rdf-syntax-ns#">
   <cc:Work>
    <dc:type rdf:resource="http://purl.org/dc/dcmitype/StillImage"/>
    <dc:date>2025-05-14T00:06:42.814059</dc:date>
    <dc:format>image/svg+xml</dc:format>
    <dc:creator>
     <cc:Agent>
      <dc:title>Matplotlib v3.10.1, https://matplotlib.org/</dc:title>
     </cc:Agent>
    </dc:creator>
   </cc:Work>
  </rdf:RDF>
 </metadata>
 <defs>
  <style type="text/css">*{stroke-linejoin: round; stroke-linecap: butt}</style>
 </defs>
 <g id="figure_1">
  <g id="patch_1">
   <path d="M 0 338.4 
L 453.6 338.4 
L 453.6 0 
L 0 0 
z
" style="fill: #ffffff"/>
  </g>
  <g id="axes_1">
   <g id="patch_2">
    <path d="M 7.2 331.2 
L 446.4 331.2 
L 446.4 7.2 
L 7.2 7.2 
z
" style="fill: #ffffff"/>
   </g>
   <g id="matplotlib.axis_1"/>
   <g id="matplotlib.axis_2"/>
   <g id="line2d_1">
    <path d="M 27.163636 221.521361 
L 30.091636 200.580449 
L 33.019636 181.200284 
L 35.947636 163.330946 
L 38.875636 146.922566 
L 41.537455 133.231599 
L 44.199273 120.669339 
L 46.861091 109.198258 
L 49.522909 98.780963 
L 51.918545 90.275332 
L 54.314182 82.565505 
L 56.709818 75.624188 
L 58.839273 70.077223 
L 60.968727 65.096682 
L 63.098182 60.663399 
L 65.227636 56.75815 
L 67.090909 53.759165 
L 68.954182 51.136938 
L 70.817455 48.87861 
L 72.680727 46.971301 
L 74.544 45.402092 
L 76.407273 44.158248 
L 78.004364 43.34131 
L 79.601455 42.745831 
L 81.198545 42.363702 
L 82.795636 42.186854 
L 84.392727 42.2072 
L 86.256 42.46935 
L 88.119273 42.976042 
L 89.982545 43.714355 
L 92.112 44.8253 
L 94.241455 46.202853 
L 96.637091 48.047341 
L 99.032727 50.177642 
L 101.694545 52.846596 
L 104.622545 56.106238 
L 107.816727 59.992241 
L 111.543273 64.876986 
L 116.334545 71.554639 
L 126.183273 85.807248 
L 126.449455 86.398372 
L 128.312727 93.036474 
L 130.176 98.835136 
L 132.039273 103.854336 
L 133.636364 107.58168 
L 135.233455 110.818259 
L 136.830545 113.601925 
L 138.427636 115.970422 
L 140.024727 117.961602 
L 141.621818 119.613251 
L 143.218909 120.963159 
L 144.816 122.049112 
L 146.679273 123.032921 
L 148.542545 123.768933 
L 150.938182 124.447806 
L 154.398545 125.138999 
L 158.391273 125.964938 
L 160.520727 126.611084 
L 162.384 127.385671 
L 164.247273 128.418427 
L 165.844364 129.55457 
L 167.441455 130.962279 
L 169.038545 132.679404 
L 170.635636 134.743649 
L 172.232727 137.192845 
L 173.829818 140.064841 
L 175.426909 143.397383 
L 177.024 147.228311 
L 178.621091 151.595372 
L 180.484364 157.418382 
L 182.347636 164.082626 
L 184.210909 171.648116 
L 186.074182 180.175005 
L 187.937455 189.72314 
L 189.800727 200.352613 
L 191.930182 213.901721 
L 194.059636 229.031216 
L 196.189091 245.830701 
L 198.318545 264.389738 
L 200.448 284.797982 
L 202.843636 310.079193 
L 203.376 316.043285 
L 203.642182 316.472726 
L 206.037818 314.067525 
L 208.699636 311.072297 
L 211.361455 307.74276 
L 214.289455 303.70083 
L 217.217455 299.268667 
L 220.411636 293.997256 
L 223.605818 288.280045 
L 227.066182 281.594531 
L 230.526545 274.409525 
L 234.253091 266.127432 
L 237.979636 257.295777 
L 241.972364 247.240971 
L 245.965091 236.591956 
L 250.224 224.599344 
L 254.749091 211.165933 
L 259.274182 197.047136 
L 264.065455 181.38157 
L 269.122909 164.082066 
L 274.446545 145.066309 
L 280.036364 124.258701 
L 285.892364 101.592005 
L 292.014545 77.009104 
L 298.669091 49.339923 
L 305.057455 21.927293 
L 305.323636 21.955956 
L 306.388364 24.429624 
L 307.719273 28.233041 
L 309.050182 32.76071 
L 310.647273 39.05024 
L 312.510545 47.413866 
L 314.64 58.087318 
L 317.301818 72.676367 
L 321.294545 95.989935 
L 326.352 125.299421 
L 329.013818 139.421287 
L 331.143273 149.568084 
L 333.006545 157.359471 
L 334.603636 163.075516 
L 335.934545 167.066969 
L 336.999273 169.703922 
L 338.064 171.807044 
L 338.862545 173.012282 
L 339.661091 173.881618 
L 340.459636 174.399686 
L 340.992 174.542396 
L 341.524364 174.517654 
L 342.056727 174.320958 
L 342.589091 173.947726 
L 343.387636 173.047062 
L 344.186182 171.723722 
L 344.984727 169.962505 
L 345.783273 167.748062 
L 346.315636 166.012375 
L 346.848 165.721376 
L 349.509818 165.02504 
L 352.437818 164.487746 
L 355.632 164.142844 
L 359.092364 164.012132 
L 362.818909 164.10207 
L 367.344 164.451493 
L 373.732364 165.203059 
L 383.048727 166.289624 
L 387.573818 166.57719 
L 391.300364 166.595441 
L 394.760727 166.381324 
L 397.954909 165.945075 
L 400.882909 165.311984 
L 403.544727 164.518492 
L 406.206545 163.49563 
L 408.868364 162.222335 
L 411.530182 160.677516 
L 413.925818 159.037605 
L 416.321455 157.145312 
L 418.717091 154.985249 
L 421.112727 152.542047 
L 423.508364 149.800359 
L 425.904 146.744806 
L 426.436364 146.021601 
L 426.436364 146.021601 
" clip-path="url(#p69404416ed)" style="fill: none; stroke-dasharray: 11.1,4.8; stroke-dashoffset: 0; stroke: #000000; stroke-width: 3"/>
   </g>
   <g id="line2d_2">
    <path d="M 27.163636 221.521372 
L 30.091636 200.580459 
L 33.019636 181.200305 
L 35.947636 163.330967 
L 38.875636 146.922587 
L 41.537455 133.231619 
L 44.199273 120.66936 
L 46.861091 109.198279 
L 49.522909 98.780984 
L 51.918545 90.275353 
L 54.314182 82.565525 
L 56.709818 75.624208 
L 58.839273 70.077244 
L 60.968727 65.096702 
L 63.098182 60.66342 
L 65.227636 56.758192 
L 67.090909 53.759206 
L 68.954182 51.136979 
L 70.817455 48.878651 
L 72.680727 46.971343 
L 74.544 45.402134 
L 76.407273 44.158289 
L 78.004364 43.341351 
L 79.601455 42.745872 
L 81.198545 42.363743 
L 82.795636 42.186895 
L 84.392727 42.207241 
L 86.256 42.469391 
L 88.119273 42.976083 
L 89.982545 43.714397 
L 92.112 44.825341 
L 94.241455 46.202895 
L 96.637091 48.047382 
L 99.032727 50.177684 
L 101.694545 52.846638 
L 104.622545 56.10628 
L 107.816727 59.992262 
L 111.543273 64.877007 
L 116.334545 71.554659 
L 126.183273 85.807269 
L 126.449455 86.398393 
L 128.312727 93.036495 
L 130.176 98.835156 
L 132.039273 103.854357 
L 133.636364 107.5817 
L 135.233455 110.81828 
L 136.830545 113.601945 
L 138.427636 115.970443 
L 140.024727 117.961622 
L 141.621818 119.613272 
L 143.218909 120.963179 
L 144.816 122.049132 
L 146.679273 123.032942 
L 148.542545 123.768953 
L 150.938182 124.447827 
L 154.398545 125.13902 
L 158.391273 125.964959 
L 160.520727 126.611105 
L 162.384 127.385692 
L 164.247273 128.418447 
L 165.844364 129.55459 
L 167.441455 130.962299 
L 169.038545 132.679424 
L 170.635636 134.74367 
L 172.232727 137.192866 
L 173.829818 140.064862 
L 175.426909 143.397404 
L 177.024 147.228332 
L 178.621091 151.595393 
L 180.484364 157.418403 
L 182.347636 164.082647 
L 184.210909 171.648136 
L 186.074182 180.175026 
L 187.937455 189.72315 
L 189.800727 200.352623 
L 191.930182 213.901731 
L 194.059636 229.031227 
L 196.189091 245.830711 
L 198.318545 264.389744 
L 200.448 284.797987 
L 202.843636 310.079195 
L 203.376 316.043287 
L 203.642182 316.472727 
L 206.037818 314.067527 
L 208.699636 311.072299 
L 211.361455 307.742763 
L 214.289455 303.700832 
L 217.217455 299.268671 
L 220.411636 293.997259 
L 223.605818 288.280047 
L 227.066182 281.594537 
L 230.526545 274.409531 
L 234.253091 266.127437 
L 237.979636 257.295782 
L 241.972364 247.240981 
L 245.965091 236.591967 
L 250.224 224.599354 
L 254.749091 211.165943 
L 259.274182 197.047146 
L 264.065455 181.381591 
L 269.122909 164.082087 
L 274.446545 145.06633 
L 280.036364 124.258722 
L 285.892364 101.592026 
L 292.014545 77.009124 
L 298.669091 49.339965 
L 305.057455 21.927335 
L 305.323636 21.955997 
L 306.388364 24.429666 
L 307.719273 28.233083 
L 309.050182 32.760752 
L 310.647273 39.050281 
L 312.510545 47.413908 
L 314.64 58.087359 
L 317.301818 72.676388 
L 321.294545 95.989956 
L 326.352 125.299441 
L 329.013818 139.421308 
L 331.143273 149.568105 
L 333.006545 157.359491 
L 334.603636 163.075536 
L 335.934545 167.06699 
L 336.999273 169.703943 
L 338.064 171.807065 
L 338.862545 173.012302 
L 339.661091 173.881639 
L 340.459636 174.399707 
L 340.992 174.542417 
L 341.524364 174.517675 
L 342.056727 174.320979 
L 342.589091 173.947747 
L 343.387636 173.047083 
L 344.186182 171.723743 
L 344.984727 169.962526 
L 345.783273 167.748083 
L 346.315636 166.012396 
L 346.848 165.721397 
L 349.509818 165.02506 
L 352.437818 164.487767 
L 355.632 164.142865 
L 359.092364 164.012153 
L 362.818909 164.102091 
L 367.344 164.451514 
L 373.732364 165.20308 
L 383.048727 166.289644 
L 387.573818 166.577211 
L 391.300364 166.595462 
L 394.760727 166.381345 
L 397.954909 165.945095 
L 400.882909 165.312005 
L 403.544727 164.518513 
L 406.206545 163.495651 
L 408.868364 162.222356 
L 411.530182 160.677537 
L 413.925818 159.037626 
L 416.321455 157.145333 
L 418.717091 154.98527 
L 421.112727 152.542068 
L 423.508364 149.80038 
L 425.904 146.744827 
L 426.436364 146.021622 
L 426.436364 146.021622 
" clip-path="url(#p69404416ed)" style="fill: none; stroke-dasharray: 3,4.95; stroke-dashoffset: 0; stroke: #0000ff; stroke-width: 3"/>
   </g>
   <g id="line2d_3">
    <path d="M 27.163636 221.521341 
L 30.091636 200.580428 
L 33.019636 181.200263 
L 35.947636 163.330925 
L 38.875636 146.922546 
L 41.537455 133.231599 
L 44.199273 120.669339 
L 46.861091 109.198258 
L 49.522909 98.780963 
L 51.918545 90.275332 
L 54.314182 82.565505 
L 56.709818 75.624188 
L 58.839273 70.077223 
L 60.968727 65.096682 
L 63.098182 60.663399 
L 65.227636 56.75815 
L 67.090909 53.759165 
L 68.954182 51.136938 
L 70.817455 48.87861 
L 72.680727 46.971301 
L 74.544 45.402092 
L 76.407273 44.158248 
L 78.004364 43.34131 
L 79.601455 42.745852 
L 81.198545 42.363722 
L 82.795636 42.186875 
L 84.392727 42.20722 
L 86.256 42.46937 
L 88.119273 42.976063 
L 89.982545 43.714376 
L 92.112 44.82532 
L 94.241455 46.202874 
L 96.637091 48.047361 
L 99.032727 50.177663 
L 101.694545 52.846617 
L 104.622545 56.106259 
L 107.816727 59.992262 
L 111.543273 64.877007 
L 116.334545 71.554659 
L 126.183273 85.807269 
L 126.449455 86.398393 
L 128.312727 93.036495 
L 130.176 98.835156 
L 132.039273 103.854357 
L 133.636364 107.5817 
L 135.233455 110.81828 
L 136.830545 113.601945 
L 138.427636 115.970443 
L 140.024727 117.961622 
L 141.621818 119.613272 
L 143.218909 120.963179 
L 144.816 122.049132 
L 146.679273 123.032942 
L 148.542545 123.768953 
L 150.938182 124.447827 
L 154.398545 125.13902 
L 158.391273 125.964959 
L 160.520727 126.611105 
L 162.384 127.385692 
L 164.247273 128.418447 
L 165.844364 129.55459 
L 167.441455 130.962299 
L 169.038545 132.679424 
L 170.635636 134.74367 
L 172.232727 137.192866 
L 173.829818 140.064862 
L 175.426909 143.397404 
L 177.024 147.228311 
L 178.621091 151.595372 
L 180.484364 157.418382 
L 182.347636 164.082626 
L 184.210909 171.648116 
L 186.074182 180.175005 
L 187.937455 189.72314 
L 189.800727 200.352613 
L 191.930182 213.901721 
L 194.059636 229.031216 
L 196.189091 245.83069 
L 198.318545 264.389728 
L 200.448 284.797977 
L 202.843636 310.079185 
L 203.376 316.043277 
L 203.642182 316.472717 
L 206.037818 314.067516 
L 208.699636 311.072288 
L 211.361455 307.742752 
L 214.289455 303.700821 
L 217.217455 299.268658 
L 220.411636 293.997248 
L 223.605818 288.280037 
L 227.066182 281.594521 
L 230.526545 274.40951 
L 234.253091 266.127416 
L 237.979636 257.295762 
L 241.972364 247.240955 
L 245.965091 236.591941 
L 250.224 224.599334 
L 254.749091 211.165923 
L 259.274182 197.047126 
L 264.065455 181.38156 
L 269.122909 164.082046 
L 274.446545 145.066309 
L 280.036364 124.25868 
L 285.892364 101.591984 
L 292.014545 77.009083 
L 298.669091 49.339903 
L 305.057455 21.927273 
L 305.323636 21.955935 
L 306.388364 24.429604 
L 307.719273 28.233021 
L 309.050182 32.76069 
L 310.647273 39.050219 
L 312.510545 47.413846 
L 314.64 58.087297 
L 317.301818 72.676367 
L 321.294545 95.989935 
L 326.352 125.299421 
L 329.013818 139.421287 
L 331.143273 149.568064 
L 333.006545 157.35946 
L 334.603636 163.075505 
L 335.934545 167.066959 
L 336.999273 169.703912 
L 338.064 171.807034 
L 338.862545 173.012271 
L 339.661091 173.881608 
L 340.459636 174.399676 
L 340.992 174.542386 
L 341.524364 174.517644 
L 342.056727 174.320948 
L 342.589091 173.947716 
L 343.387636 173.047052 
L 344.186182 171.723712 
L 344.984727 169.962494 
L 345.783273 167.748052 
L 346.315636 166.012365 
L 346.848 165.721366 
L 349.509818 165.025029 
L 352.437818 164.487735 
L 355.632 164.142834 
L 359.092364 164.012132 
L 362.818909 164.10207 
L 367.344 164.451493 
L 373.732364 165.203059 
L 383.048727 166.289624 
L 387.573818 166.57719 
L 391.300364 166.595441 
L 394.760727 166.381324 
L 397.954909 165.945075 
L 400.882909 165.311984 
L 403.544727 164.518492 
L 406.206545 163.49563 
L 408.868364 162.222335 
L 411.530182 160.677516 
L 413.925818 159.037605 
L 416.321455 157.145323 
L 418.717091 154.985259 
L 421.112727 152.542057 
L 423.508364 149.800369 
L 425.904 146.744816 
L 426.436364 146.021612 
L 426.436364 146.021612 
" clip-path="url(#p69404416ed)" style="fill: none; stroke: #0000ff; stroke-width: 3; stroke-linecap: square"/>
   </g>
   <g id="patch_3">
    <path d="M 7.2 331.2 
L 7.2 7.2 
" style="fill: none; stroke: #000000; stroke-width: 0.8; stroke-linejoin: miter; stroke-linecap: square"/>
   </g>
   <g id="patch_4">
    <path d="M 446.4 331.2 
L 446.4 7.2 
" style="fill: none; stroke: #000000; stroke-width: 0.8; stroke-linejoin: miter; stroke-linecap: square"/>
   </g>
   <g id="patch_5">
    <path d="M 7.2 331.2 
L 446.4 331.2 
" style="fill: none; stroke: #000000; stroke-width: 0.8; stroke-linejoin: miter; stroke-linecap: square"/>
   </g>
   <g id="patch_6">
    <path d="M 7.2 7.2 
L 446.4 7.2 
" style="fill: none; stroke: #000000; stroke-width: 0.8; stroke-linejoin: miter; stroke-linecap: square"/>
   </g>
  </g>
 </g>
 <defs>
  <clipPath id="p69404416ed">
   <rect x="7.2" y="7.2" width="439.2" height="324"/>
  </clipPath>
 </defs>
</svg>
