<?xml version="1.0" encoding="utf-8" standalone="no"?>
<!DOCTYPE svg PUBLIC "-//W3C//DTD SVG 1.1//EN"
  "http://www.w3.org/Graphics/SVG/1.1/DTD/svg11.dtd">
<svg xmlns:xlink="http://www.w3.org/1999/xlink" width="453.6pt" height="338.4pt" viewBox="0 0 453.6 338.4" xmlns="http://www.w3.org/2000/svg" version="1.1">
 <metadata>
  <rdf:RDF xmlns:dc="http://purl.org/dc/elements/1.1/" xmlns:cc="http://creativecommons.org/ns#" xmlns:rdf="http://www.w3.org/1999/02/22-rdf-syntax-ns#">
   <cc:Work>
    <dc:type rdf:resource="http://purl.org/dc/dcmitype/StillImage"/>
    <dc:date>2025-05-14T08:57:13.955436</dc:date>
    <dc:format>image/svg+xml</dc:format>
    <dc:creator>
     <cc:Agent>
      <dc:title>Matplotlib v3.10.1, https://matplotlib.org/</dc:title>
     </cc:Agent>
    </dc:creator>
   </cc:Work>
  </rdf:RDF>
 </metadata>
 <defs>
  <style type="text/css">*{stroke-linejoin: round; stroke-linecap: butt}</style>
 </defs>
 <g id="figure_1">
  <g id="patch_1">
   <path d="M 0 338.4 
L 453.6 338.4 
L 453.6 0 
L 0 0 
z
" style="fill: #ffffff"/>
  </g>
  <g id="axes_1">
   <g id="patch_2">
    <path d="M 7.2 331.2 
L 446.4 331.2 
L 446.4 7.2 
L 7.2 7.2 
z
" style="fill: #ffffff"/>
   </g>
   <g id="matplotlib.axis_1"/>
   <g id="matplotlib.axis_2"/>
   <g id="line2d_1">
    <path d="M 27.163636 168.351684 
L 29.026909 169.482981 
L 30.890182 170.882684 
L 32.753455 172.550772 
L 34.882909 174.785799 
L 37.012364 177.37135 
L 39.141818 180.307461 
L 41.537455 184.029614 
L 43.933091 188.195402 
L 46.328727 192.804871 
L 48.990545 198.44685 
L 51.652364 204.636547 
L 54.314182 211.373972 
L 57.242182 219.417793 
L 60.170182 228.124344 
L 63.364364 238.378278 
L 66.558545 249.420943 
L 68.155636 255.238054 
L 68.421818 255.048957 
L 71.083636 247.574861 
L 73.745455 240.785918 
L 76.141091 235.261677 
L 78.536727 230.292409 
L 80.666182 226.341189 
L 82.795636 222.828465 
L 84.925091 219.754246 
L 86.788364 217.424012 
L 88.651636 215.429498 
L 90.514909 213.770713 
L 92.112 212.616096 
L 93.709091 211.708142 
L 95.306182 211.04686 
L 96.903273 210.632203 
L 98.500364 210.464209 
L 100.097455 210.542896 
L 101.694545 210.868208 
L 103.291636 211.440192 
L 104.888727 212.258838 
L 106.485818 213.32412 
L 108.082909 214.636063 
L 109.946182 216.478417 
L 111.809455 218.65649 
L 113.672727 221.170292 
L 115.802182 224.454293 
L 117.931636 228.176808 
L 120.061091 232.337819 
L 122.456727 237.543074 
L 124.852364 243.303319 
L 127.248 249.618555 
L 129.909818 257.286363 
L 132.571636 265.639315 
L 135.499636 275.618948 
L 138.427636 286.427599 
L 141.355636 298.065236 
L 144.549818 311.706443 
L 145.614545 316.472727 
L 145.880727 315.711252 
L 149.607273 279.267238 
L 153.067636 247.46535 
L 156.528 217.626911 
L 159.988364 189.751885 
L 163.182545 165.763805 
L 166.376727 143.448639 
L 169.304727 124.462748 
L 172.232727 106.8827 
L 175.160727 90.708365 
L 177.822545 77.224258 
L 180.484364 64.902003 
L 182.88 54.805332 
L 185.275636 45.649637 
L 187.405091 38.301316 
L 189.534545 31.696508 
L 191.664 25.835267 
L 193.261091 21.927273 
L 193.527273 22.613906 
L 197.52 44.967345 
L 201.512727 68.594502 
L 205.771636 95.200866 
L 210.030545 123.256595 
L 214.289455 152.761633 
L 218.814545 185.698742 
L 223.339636 220.272068 
L 228.130909 258.662426 
L 232.922182 298.886974 
L 233.454545 303.469682 
L 233.720727 303.001434 
L 237.979636 286.854824 
L 242.238545 269.848425 
L 246.763636 250.837045 
L 251.288727 230.855145 
L 256.08 208.639767 
L 260.871273 185.336215 
L 265.396364 162.902513 
L 267.792 158.751232 
L 270.187636 155.022799 
L 272.583273 151.717157 
L 274.712727 149.133861 
L 276.842182 146.884624 
L 278.971636 144.969464 
L 280.834909 143.567796 
L 282.698182 142.42188 
L 284.561455 141.531772 
L 286.424727 140.897436 
L 288.288 140.518946 
L 290.151273 140.396208 
L 292.014545 140.529279 
L 293.877818 140.91814 
L 295.741091 141.562772 
L 297.604364 142.46325 
L 299.467636 143.619462 
L 301.330909 145.031501 
L 303.194182 146.699293 
L 305.323636 148.918606 
L 307.453091 151.472016 
L 309.582545 154.359485 
L 311.978182 158.007293 
L 314.373818 162.077893 
L 316.769455 166.57134 
L 319.431273 172.05997 
L 322.093091 178.070653 
L 324.754909 184.603352 
L 327.682909 192.392264 
L 330.610909 200.812833 
L 333.805091 210.719312 
L 336.999273 221.377523 
L 338.064 225.097265 
L 338.330182 224.546745 
L 341.258182 215.718282 
L 344.186182 207.587667 
L 346.848 200.801943 
L 349.509818 194.593091 
L 352.171636 188.961075 
L 354.567273 184.3855 
L 356.962909 180.27712 
L 359.358545 176.635981 
L 361.488 173.7917 
L 363.617455 171.316588 
L 365.746909 169.210681 
L 367.610182 167.670839 
L 369.473455 166.413651 
L 371.336727 165.439133 
L 372.933818 164.828785 
L 374.530909 164.426103 
L 376.128 164.231107 
L 377.725091 164.243759 
L 379.322182 164.464097 
L 380.919273 164.892064 
L 382.516364 165.527717 
L 384.379636 166.531787 
L 386.242909 167.81851 
L 388.106182 169.387867 
L 389.969455 171.239905 
L 392.098909 173.702634 
L 394.228364 176.534513 
L 396.357818 179.735588 
L 398.753455 183.778119 
L 401.149091 188.287864 
L 403.544727 193.264831 
L 406.206545 199.342829 
L 408.868364 205.99768 
L 411.530182 213.229441 
L 414.458182 221.850571 
L 417.386182 231.169632 
L 420.580364 242.132015 
L 423.774545 253.925043 
L 426.436364 264.387093 
L 426.436364 264.387093 
" clip-path="url(#pc7301799fe)" style="fill: none; stroke-dasharray: 11.1,4.8; stroke-dashoffset: 0; stroke: #000000; stroke-width: 3"/>
   </g>
   <g id="line2d_2">
    <path d="M 27.163636 198.408671 
L 29.026909 205.239048 
L 30.890182 211.206998 
L 32.753455 216.369769 
L 34.350545 220.199643 
L 35.947636 223.52083 
L 37.544727 226.373515 
L 39.141818 228.798807 
L 40.738909 230.838782 
L 42.336 232.536257 
L 43.666909 233.690317 
L 45.530182 234.608177 
L 47.925818 235.540879 
L 50.587636 236.339045 
L 54.314182 237.206222 
L 60.170182 238.530215 
L 62.565818 242.469098 
L 63.896727 244.124943 
L 65.227636 245.378291 
L 66.292364 246.0906 
L 67.357091 246.544225 
L 68.421818 246.738534 
L 69.486545 246.67327 
L 70.551273 246.347837 
L 71.616 245.762013 
L 72.680727 244.915465 
L 73.745455 243.807859 
L 75.076364 242.056102 
L 76.407273 239.895801 
L 77.472 237.747448 
L 78.802909 235.244016 
L 80.133818 233.168979 
L 81.464727 231.513431 
L 82.529455 230.485336 
L 83.594182 229.716223 
L 84.658909 229.20212 
L 85.723636 228.939021 
L 86.788364 228.923363 
L 87.853091 229.151511 
L 88.917818 229.620051 
L 89.982545 230.325533 
L 91.047273 231.264765 
L 92.378182 232.762624 
L 93.442909 234.216441 
L 95.306182 237.403018 
L 96.637091 239.229575 
L 97.968 240.704022 
L 99.298909 241.858564 
L 100.629818 242.727003 
L 101.960727 243.342584 
L 103.291636 243.738735 
L 104.888727 243.971744 
L 106.752 243.983394 
L 109.147636 243.730572 
L 109.946182 243.562383 
L 115.536 240.348869 
L 117.931636 239.33966 
L 120.061091 238.665865 
L 122.190545 238.223965 
L 124.053818 238.042604 
L 125.917091 238.066721 
L 128.312727 238.52747 
L 131.240727 239.319884 
L 134.168727 240.363488 
L 137.096727 241.660915 
L 140.024727 243.214021 
L 142.686545 244.694961 
L 143.218909 244.657969 
L 143.751273 244.394832 
L 144.283636 243.908037 
L 145.082182 242.766147 
L 145.880727 241.140319 
L 146.679273 239.041239 
L 147.744 235.524183 
L 148.808727 231.208553 
L 150.139636 224.726093 
L 151.470545 217.07488 
L 153.067636 206.409026 
L 154.664727 194.187692 
L 156.528 178.048067 
L 159.722182 149.244076 
L 161.585455 135.986058 
L 163.448727 124.200558 
L 165.578182 112.136968 
L 167.973818 99.91389 
L 170.901818 86.178149 
L 175.959273 63.380009 
L 177.822545 58.752879 
L 179.419636 55.306597 
L 181.016727 52.353474 
L 182.347636 50.283612 
L 183.678545 48.577085 
L 185.009455 47.241515 
L 186.074182 46.445984 
L 187.138909 45.900418 
L 188.203636 45.607821 
L 189.268364 45.57133 
L 190.333091 45.795323 
L 191.397818 46.283954 
L 192.462545 47.045425 
L 193.261091 47.795653 
L 193.793455 49.270471 
L 195.390545 54.780603 
L 197.253818 62.003885 
L 199.383273 71.163365 
L 202.045091 83.706737 
L 205.505455 101.279086 
L 211.893818 134.149688 
L 214.821818 148.576273 
L 217.749818 164.108592 
L 220.677818 180.883758 
L 223.605818 199.039871 
L 226.533818 218.716143 
L 227.598545 225.636533 
L 229.195636 227.169306 
L 230.792727 228.392935 
L 232.123636 229.146279 
L 233.454545 229.630848 
L 234.519273 229.808313 
L 235.584 229.78453 
L 236.648727 229.546364 
L 237.713455 229.08031 
L 238.778182 228.372788 
L 239.842909 227.409921 
L 240.907636 226.177833 
L 242.238545 224.237443 
L 243.569455 221.827549 
L 244.101818 220.648852 
L 248.094545 208.54354 
L 249.957818 203.945517 
L 251.821091 199.933429 
L 253.684364 196.428729 
L 255.547636 193.354389 
L 257.677091 190.270551 
L 260.072727 187.216062 
L 260.605091 186.58794 
L 261.137455 184.887646 
L 262.468364 180.380935 
L 263.799273 176.590725 
L 265.130182 173.450712 
L 266.461091 170.894742 
L 267.792 168.857847 
L 269.122909 167.276023 
L 270.453818 166.085639 
L 271.784727 165.221578 
L 273.115636 164.620876 
L 274.712727 164.159497 
L 276.842182 163.807424 
L 278.173091 163.534975 
L 282.165818 162.221705 
L 284.827636 161.572249 
L 286.957091 161.260322 
L 288.820364 161.182034 
L 290.683636 161.321097 
L 292.280727 161.639332 
L 293.877818 162.1649 
L 294.676364 162.527807 
L 297.870545 165.472434 
L 301.064727 168.10235 
L 303.992727 170.238534 
L 306.920727 172.113696 
L 309.848727 173.729506 
L 311.445818 174.481367 
L 312.776727 174.646439 
L 315.172364 175.020403 
L 317.035636 175.539218 
L 318.632727 176.226704 
L 319.963636 177.01975 
L 321.294545 178.052482 
L 322.625455 179.362673 
L 323.956364 180.988538 
L 325.287273 182.967886 
L 326.618182 185.339378 
L 327.949091 188.153587 
L 328.215273 188.771579 
L 329.546182 190.236008 
L 331.409455 192.00383 
L 333.272727 193.480281 
L 335.136 194.672854 
L 336.999273 195.58923 
L 338.862545 196.237462 
L 340.725818 196.626118 
L 342.589091 196.763734 
L 344.452364 196.66029 
L 344.718545 196.626489 
L 344.984727 196.273081 
L 349.243636 184.926196 
L 351.106909 180.805804 
L 352.970182 177.158776 
L 354.833455 173.943073 
L 356.696727 171.116805 
L 358.826182 168.309795 
L 360.955636 165.895745 
L 361.754182 165.079176 
L 362.818909 165.345244 
L 364.416 165.982603 
L 366.013091 166.867071 
L 367.610182 167.985512 
L 369.473455 169.568894 
L 371.336727 171.432517 
L 373.466182 173.879515 
L 375.861818 177.000159 
L 378.257455 180.475363 
L 378.789818 181.449583 
L 380.386909 184.674785 
L 381.984 187.420575 
L 383.847273 190.15145 
L 385.976727 192.843923 
L 392.631273 200.893625 
L 394.228364 203.363886 
L 395.293091 205.367277 
L 397.422545 209.907901 
L 399.552 213.888933 
L 401.681455 217.359313 
L 403.810909 220.372395 
L 405.940364 222.984466 
L 408.069818 225.253479 
L 410.199273 227.232604 
L 410.997818 227.808781 
L 412.062545 228.123194 
L 413.127273 228.190833 
L 414.192 228.030102 
L 415.256727 227.658253 
L 416.587636 226.927541 
L 417.918545 225.934992 
L 419.515636 224.448561 
L 421.378909 222.383578 
L 423.774545 219.359884 
L 426.436364 215.749069 
L 426.436364 215.749069 
" clip-path="url(#pc7301799fe)" style="fill: none; stroke-dasharray: 3,4.95; stroke-dashoffset: 0; stroke: #0000ff; stroke-width: 3"/>
   </g>
   <g id="line2d_3">
    <path d="M 27.163636 208.504173 
L 29.026909 212.483053 
L 30.890182 215.966679 
L 32.753455 218.98132 
L 34.616727 221.554988 
L 36.48 223.716884 
L 38.343273 225.497173 
L 40.206545 226.927393 
L 42.069818 228.039897 
L 43.666909 228.747939 
L 48.192 229.727168 
L 51.12 230.012975 
L 58.040727 230.580914 
L 60.170182 231.000218 
L 61.767273 232.850039 
L 63.364364 234.78798 
L 64.695273 236.072198 
L 66.026182 237.039369 
L 67.357091 237.692275 
L 68.421818 237.990474 
L 69.486545 238.09121 
L 70.551273 237.996225 
L 71.616 237.706968 
L 72.680727 237.225219 
L 74.011636 236.354962 
L 75.342545 235.190105 
L 76.673455 233.733876 
L 79.069091 230.73211 
L 80.4 229.519947 
L 81.730909 228.624385 
L 83.061818 228.047578 
L 84.126545 227.805701 
L 85.191273 227.756688 
L 86.256 227.898497 
L 87.320727 228.229458 
L 88.651636 228.906258 
L 89.982545 229.872242 
L 91.313455 231.123995 
L 92.644364 232.658586 
L 93.709091 234.137522 
L 95.306182 236.584372 
L 97.169455 238.775765 
L 99.032727 240.606811 
L 100.629818 241.904795 
L 102.493091 243.073251 
L 104.356364 243.959203 
L 106.485818 244.693959 
L 108.881455 245.261936 
L 110.212364 245.404672 
L 114.471273 244.752359 
L 120.327273 243.92069 
L 123.787636 243.543869 
L 126.449455 243.460349 
L 132.305455 243.764002 
L 138.693818 244.334688 
L 141.888 245.171404 
L 142.686545 245.328313 
L 143.485091 245.201717 
L 144.283636 244.786643 
L 145.082182 244.088916 
L 145.880727 243.075551 
L 146.679273 241.746253 
L 147.744 239.498722 
L 148.808727 236.720726 
L 150.139636 232.520748 
L 151.470545 227.533994 
L 153.067636 220.541401 
L 154.664727 212.4822 
L 156.528 201.775978 
L 160.254545 179.287501 
L 163.448727 161.926103 
L 167.441455 137.032407 
L 170.103273 119.157723 
L 172.498909 101.589585 
L 176.225455 73.169632 
L 177.556364 65.579861 
L 178.621091 60.553704 
L 179.153455 58.659731 
L 179.685818 57.74981 
L 180.218182 57.352137 
L 180.484364 57.355885 
L 180.750545 57.498695 
L 181.282909 58.202099 
L 181.815273 59.50294 
L 182.347636 61.411458 
L 182.613818 61.079866 
L 184.210909 53.887991 
L 185.808 47.737122 
L 187.138909 43.42101 
L 188.469818 39.852084 
L 189.534545 37.54107 
L 190.599273 35.719633 
L 191.664 34.3936 
L 192.728727 33.52427 
L 193.261091 33.264844 
L 193.527273 33.377861 
L 194.325818 34.277318 
L 195.124364 35.470596 
L 195.390545 35.932384 
L 196.189091 39.466025 
L 198.052364 48.94283 
L 200.181818 61.058309 
L 201.778909 70.893866 
L 202.045091 71.000204 
L 202.577455 69.595659 
L 203.109818 68.82918 
L 203.376 68.668041 
L 203.642182 68.6555 
L 203.908364 68.776753 
L 204.440727 69.419196 
L 204.973091 70.553109 
L 205.771636 73.103439 
L 206.570182 76.55345 
L 207.634909 82.332877 
L 208.965818 91.035004 
L 211.627636 110.681258 
L 218.814545 163.836291 
L 222.807273 191.274788 
L 226.533818 215.440555 
L 227.598545 221.715089 
L 228.929455 224.958359 
L 230.260364 226.360381 
L 231.325091 227.193423 
L 232.389818 227.765964 
L 233.454545 228.08149 
L 234.519273 228.14412 
L 235.584 227.957639 
L 236.648727 227.526091 
L 237.713455 226.852741 
L 238.778182 225.941225 
L 240.109091 224.471861 
L 241.44 222.640778 
L 242.770909 220.454394 
L 244.101818 217.869632 
L 247.029818 210.448681 
L 249.425455 205.486193 
L 252.087273 200.494282 
L 255.281455 194.999511 
L 260.871273 185.567415 
L 263.000727 179.189549 
L 264.597818 174.940297 
L 266.194909 171.279206 
L 267.792 168.173477 
L 269.389091 165.527161 
L 270.986182 163.268982 
L 272.849455 161.032211 
L 274.978909 158.868015 
L 279.237818 155.02727 
L 280.302545 154.550975 
L 281.899636 154.045888 
L 283.496727 153.767985 
L 284.827636 153.774552 
L 286.424727 154.020547 
L 288.021818 154.529863 
L 289.618909 155.321128 
L 291.216 156.412372 
L 292.813091 157.822222 
L 294.410182 159.56756 
L 295.208727 160.723623 
L 296.007273 161.846405 
L 298.669091 164.781719 
L 301.330909 167.373531 
L 304.258909 169.898557 
L 307.453091 172.364477 
L 311.179636 174.966566 
L 312.244364 175.511799 
L 315.438545 176.98209 
L 317.568 178.210282 
L 319.431273 179.518729 
L 321.294545 181.10007 
L 323.157818 183.005546 
L 324.754909 184.936919 
L 326.352 187.178699 
L 327.949091 189.773219 
L 328.481455 190.538882 
L 329.28 191.201101 
L 331.409455 192.604866 
L 333.538909 193.760522 
L 335.668364 194.661426 
L 337.797818 195.309954 
L 344.718545 197.160071 
L 344.984727 197.055514 
L 345.517091 196.108342 
L 349.509818 188.259146 
L 351.639273 184.520064 
L 353.502545 181.698769 
L 355.099636 179.491569 
L 361.488 161.238988 
L 362.020364 160.582742 
L 363.085091 159.833256 
L 364.149818 159.339746 
L 365.214545 159.123916 
L 366.013091 159.156604 
L 366.811636 159.365941 
L 367.610182 159.760942 
L 368.674909 160.591165 
L 369.739636 161.785593 
L 370.804364 163.363929 
L 371.869091 165.347136 
L 373.2 168.415687 
L 374.797091 172.66557 
L 376.660364 178.335914 
L 377.991273 182.391079 
L 379.322182 185.162285 
L 380.919273 188.356245 
L 382.782545 191.569351 
L 384.645818 194.343822 
L 386.775273 197.130463 
L 390.235636 201.230114 
L 393.429818 205.134269 
L 395.825455 208.4841 
L 398.487273 212.46773 
L 401.149091 216.027529 
L 403.810909 219.187317 
L 406.472727 221.976481 
L 410.731636 226.287065 
L 412.062545 227.712424 
L 413.659636 229.091701 
L 415.256727 230.147474 
L 416.853818 230.901598 
L 418.450909 231.37537 
L 420.048 231.589196 
L 421.645091 231.563706 
L 423.242182 231.320828 
L 425.105455 230.791067 
L 426.436364 230.267911 
L 426.436364 230.267911 
" clip-path="url(#pc7301799fe)" style="fill: none; stroke: #0000ff; stroke-width: 3; stroke-linecap: square"/>
   </g>
   <g id="patch_3">
    <path d="M 7.2 331.2 
L 7.2 7.2 
" style="fill: none; stroke: #000000; stroke-width: 0.8; stroke-linejoin: miter; stroke-linecap: square"/>
   </g>
   <g id="patch_4">
    <path d="M 446.4 331.2 
L 446.4 7.2 
" style="fill: none; stroke: #000000; stroke-width: 0.8; stroke-linejoin: miter; stroke-linecap: square"/>
   </g>
   <g id="patch_5">
    <path d="M 7.2 331.2 
L 446.4 331.2 
" style="fill: none; stroke: #000000; stroke-width: 0.8; stroke-linejoin: miter; stroke-linecap: square"/>
   </g>
   <g id="patch_6">
    <path d="M 7.2 7.2 
L 446.4 7.2 
" style="fill: none; stroke: #000000; stroke-width: 0.8; stroke-linejoin: miter; stroke-linecap: square"/>
   </g>
  </g>
 </g>
 <defs>
  <clipPath id="pc7301799fe">
   <rect x="7.2" y="7.2" width="439.2" height="324"/>
  </clipPath>
 </defs>
</svg>
