<?xml version="1.0" encoding="utf-8" standalone="no"?>
<!DOCTYPE svg PUBLIC "-//W3C//DTD SVG 1.1//EN"
  "http://www.w3.org/Graphics/SVG/1.1/DTD/svg11.dtd">
<svg xmlns:xlink="http://www.w3.org/1999/xlink" width="453.6pt" height="338.4pt" viewBox="0 0 453.6 338.4" xmlns="http://www.w3.org/2000/svg" version="1.1">
 <metadata>
  <rdf:RDF xmlns:dc="http://purl.org/dc/elements/1.1/" xmlns:cc="http://creativecommons.org/ns#" xmlns:rdf="http://www.w3.org/1999/02/22-rdf-syntax-ns#">
   <cc:Work>
    <dc:type rdf:resource="http://purl.org/dc/dcmitype/StillImage"/>
    <dc:date>2025-05-14T00:15:42.818215</dc:date>
    <dc:format>image/svg+xml</dc:format>
    <dc:creator>
     <cc:Agent>
      <dc:title>Matplotlib v3.10.1, https://matplotlib.org/</dc:title>
     </cc:Agent>
    </dc:creator>
   </cc:Work>
  </rdf:RDF>
 </metadata>
 <defs>
  <style type="text/css">*{stroke-linejoin: round; stroke-linecap: butt}</style>
 </defs>
 <g id="figure_1">
  <g id="patch_1">
   <path d="M 0 338.4 
L 453.6 338.4 
L 453.6 0 
L 0 0 
z
" style="fill: #ffffff"/>
  </g>
  <g id="axes_1">
   <g id="patch_2">
    <path d="M 7.2 331.2 
L 446.4 331.2 
L 446.4 7.2 
L 7.2 7.2 
z
" style="fill: #ffffff"/>
   </g>
   <g id="matplotlib.axis_1"/>
   <g id="matplotlib.axis_2"/>
   <g id="line2d_1">
    <path d="M 27.163636 233.128585 
L 37.278545 187.634441 
L 45.530182 150.942583 
L 50.853818 128.206309 
L 55.378909 109.803904 
L 59.371636 94.473236 
L 62.832 82.006687 
L 66.026182 71.272255 
L 68.954182 62.158194 
L 71.616 54.53096 
L 74.277818 47.581145 
L 76.673455 41.945509 
L 78.802909 37.458319 
L 80.932364 33.488457 
L 82.795636 30.458849 
L 84.658909 27.861002 
L 86.256 25.990637 
L 87.853091 24.46029 
L 89.184 23.45222 
L 90.514909 22.693653 
L 91.845818 22.1906 
L 93.176727 21.949196 
L 94.507636 21.975414 
L 95.838545 22.27543 
L 97.169455 22.855297 
L 98.500364 23.720946 
L 99.831273 24.878594 
L 101.162182 26.334254 
L 102.493091 28.094102 
L 104.090182 30.615749 
L 105.687273 33.594597 
L 107.284364 37.041078 
L 108.881455 40.965662 
L 110.744727 46.162624 
L 112.608 52.041299 
L 114.471273 58.618334 
L 116.600727 67.011498 
L 118.730182 76.363444 
L 120.859636 86.699042 
L 123.255273 99.533299 
L 125.650909 113.679405 
L 128.046545 129.172617 
L 130.442182 146.04854 
L 133.104 166.464221 
L 135.765818 188.679118 
L 138.427636 212.741863 
L 141.089455 238.700884 
L 143.485091 263.72549 
L 143.751273 264.414708 
L 146.413091 240.951249 
L 149.074909 219.364626 
L 151.736727 199.618142 
L 154.132364 183.389615 
L 156.528 168.595357 
L 158.923636 155.208677 
L 161.053091 144.469602 
L 163.182545 134.802956 
L 165.312 126.189924 
L 167.175273 119.50319 
L 169.038545 113.596313 
L 170.901818 108.456655 
L 172.498909 104.652445 
L 174.096 101.394809 
L 175.693091 98.675953 
L 177.024 96.815978 
L 178.354909 95.320091 
L 179.685818 94.183671 
L 180.750545 93.530242 
L 181.815273 93.101609 
L 182.88 92.895464 
L 183.944727 92.909391 
L 185.009455 93.1411 
L 186.074182 93.588281 
L 187.138909 94.248541 
L 188.469818 95.369868 
L 189.800727 96.815957 
L 191.131636 98.582206 
L 192.728727 101.117862 
L 194.325818 104.100003 
L 195.922909 107.520797 
L 197.786182 112.055516 
L 199.649455 117.163925 
L 201.778909 123.688564 
L 203.908364 130.927393 
L 206.304 139.901528 
L 208.699636 149.729205 
L 211.361455 161.617482 
L 214.023273 174.490024 
L 216.951273 189.743039 
L 220.145455 207.63327 
L 223.339636 226.767145 
L 226.8 248.825407 
L 230.526545 274.037559 
L 234.519273 302.615788 
L 236.382545 316.472727 
L 236.914909 311.44193 
L 239.576727 284.88573 
L 241.972364 263.130377 
L 244.368 243.333951 
L 246.763636 225.42644 
L 248.893091 211.037008 
L 251.022545 198.034787 
L 253.152 186.369957 
L 255.281455 175.993028 
L 257.144727 167.930925 
L 259.008 160.783737 
L 260.871273 154.518314 
L 262.734545 149.101606 
L 264.331636 145.109084 
L 265.928727 141.694629 
L 267.525818 138.837586 
L 268.856727 136.86738 
L 270.187636 135.257602 
L 271.518545 133.996165 
L 272.849455 133.070922 
L 273.914182 132.564699 
L 274.978909 132.259836 
L 276.043636 132.149973 
L 277.108364 132.229016 
L 278.439273 132.584025 
L 279.770182 133.212361 
L 281.101091 134.10204 
L 282.432 135.240873 
L 284.029091 136.919326 
L 285.626182 138.918429 
L 287.489455 141.627857 
L 289.618909 145.181133 
L 291.748364 149.174268 
L 294.144 154.130583 
L 296.805818 160.131228 
L 300 167.885708 
L 303.992727 178.186948 
L 318.898909 217.294047 
L 322.093091 224.715482 
L 324.754909 230.36484 
L 327.150545 234.947905 
L 329.28 238.56374 
L 331.143273 241.333396 
L 333.006545 243.700371 
L 334.603636 245.383487 
L 336.200727 246.725521 
L 337.531636 247.568245 
L 337.797818 247.080857 
L 340.992 235.339111 
L 343.92 225.41149 
L 346.848 216.284075 
L 349.509818 208.681587 
L 352.171636 201.741752 
L 354.567273 196.063128 
L 356.962909 190.922366 
L 359.358545 186.319811 
L 361.488 182.681091 
L 363.617455 179.468304 
L 365.746909 176.682021 
L 367.610182 174.594079 
L 369.473455 172.833127 
L 371.336727 171.399268 
L 372.933818 170.430893 
L 374.530909 169.703145 
L 376.128 169.216269 
L 377.725091 168.970428 
L 379.322182 168.965662 
L 380.919273 169.202219 
L 382.516364 169.680158 
L 384.113455 170.399665 
L 385.710545 171.360902 
L 387.307636 172.563971 
L 389.170909 174.273387 
L 391.034182 176.312452 
L 392.897455 178.681371 
L 395.026909 181.792844 
L 397.156364 185.335812 
L 399.285818 189.310522 
L 401.681455 194.298679 
L 404.077091 199.834227 
L 406.472727 205.917658 
L 409.134545 213.320217 
L 411.796364 221.40048 
L 414.458182 230.159165 
L 417.386182 240.577896 
L 420.314182 251.819185 
L 423.508364 265.02155 
L 426.436364 277.985518 
L 426.436364 277.985518 
" clip-path="url(#p2326517419)" style="fill: none; stroke-dasharray: 11.1,4.8; stroke-dashoffset: 0; stroke: #000000; stroke-width: 3"/>
   </g>
   <g id="line2d_2">
    <path d="M 27.163636 189.019831 
L 27.696 188.638502 
L 28.228364 188.044811 
L 29.026909 186.732798 
L 29.825455 184.905872 
L 30.624 182.558835 
L 31.688727 178.618627 
L 32.753455 173.793198 
L 34.084364 166.62198 
L 35.681455 156.597544 
L 37.810909 141.587364 
L 38.875636 134.11251 
L 39.141818 135.297358 
L 39.940364 142.483362 
L 40.738909 147.878903 
L 41.537455 151.852856 
L 42.336 154.728918 
L 43.134545 156.758923 
L 44.997818 160.256102 
L 45.796364 161.065531 
L 46.594909 161.574208 
L 48.192 162.234857 
L 50.055273 163.056107 
L 51.386182 163.897296 
L 52.717091 165.027356 
L 53.781818 166.177151 
L 54.846545 167.588903 
L 55.911273 169.326479 
L 56.976 171.482626 
L 58.040727 174.212054 
L 59.105455 177.691216 
L 59.904 180.95462 
L 60.436364 183.510481 
L 60.702545 185.662762 
L 61.767273 183.254107 
L 62.565818 181.932217 
L 63.364364 180.954374 
L 64.162909 180.253131 
L 65.227636 179.628517 
L 68.954182 177.847932 
L 69.752727 177.102637 
L 70.551273 176.098412 
L 71.349818 174.788261 
L 72.148364 173.132938 
L 73.213091 170.338537 
L 74.277818 166.83555 
L 75.342545 162.598189 
L 76.673455 156.319861 
L 76.939636 154.935677 
L 77.205818 154.18983 
L 78.536727 156.660206 
L 79.335273 157.610788 
L 80.133818 158.244421 
L 80.932364 158.642703 
L 81.997091 158.907319 
L 83.328 158.964684 
L 85.191273 158.775103 
L 91.313455 157.942769 
L 93.442909 157.960725 
L 93.975273 158.06619 
L 94.507636 158.342626 
L 95.04 158.797231 
L 95.572364 159.464383 
L 96.370909 160.926996 
L 97.169455 156.041687 
L 97.968 152.469269 
L 98.766545 150.087854 
L 99.298909 149.091851 
L 99.831273 148.507791 
L 100.363636 148.278577 
L 100.896 148.345329 
L 101.428364 148.65011 
L 102.226909 149.389494 
L 103.557818 150.733717 
L 104.090182 151.057272 
L 104.622545 151.115843 
L 105.154909 150.807217 
L 105.687273 150.011552 
L 106.219636 148.865888 
L 107.816727 156.504124 
L 108.349091 157.730774 
L 108.881455 158.265915 
L 109.147636 158.284975 
L 109.413818 158.144558 
L 109.946182 157.405419 
L 111.010909 155.299889 
L 112.075636 153.050935 
L 113.672727 149.046961 
L 115.536 143.709296 
L 117.665455 136.887749 
L 118.464 134.138954 
L 118.730182 134.727758 
L 119.794909 141.139508 
L 120.859636 146.015553 
L 121.658182 148.659231 
L 122.456727 150.397891 
L 122.989091 151.045021 
L 123.521455 151.264747 
L 124.053818 151.069072 
L 124.586182 150.464929 
L 125.118545 149.465326 
L 125.917091 147.304967 
L 127.248 143.063884 
L 128.845091 140.128841 
L 130.442182 137.272105 
L 130.974545 136.556832 
L 131.240727 136.374552 
L 131.506909 137.566354 
L 132.571636 144.253313 
L 133.370182 148.108015 
L 134.168727 150.899738 
L 134.701091 152.150826 
L 135.233455 152.921297 
L 135.765818 153.223419 
L 136.298182 153.066028 
L 136.830545 152.489883 
L 137.362909 151.521161 
L 138.161455 149.423872 
L 139.226182 145.672713 
L 140.823273 138.862066 
L 141.355636 136.501492 
L 142.952727 152.053234 
L 143.485091 154.994044 
L 143.751273 155.713182 
L 144.816 156.662701 
L 146.146909 157.497796 
L 147.744 158.141307 
L 149.607273 158.572659 
L 151.736727 158.797742 
L 153.866182 158.821343 
L 155.995636 158.66068 
L 158.391273 158.253133 
L 160.254545 157.784355 
L 161.851636 157.102049 
L 162.650182 157.027935 
L 163.182545 157.171092 
L 163.714909 157.524362 
L 164.247273 158.139875 
L 164.779636 159.085467 
L 165.312 160.417194 
L 166.110545 163.262416 
L 166.909091 166.988646 
L 167.175273 167.241154 
L 167.707636 166.963143 
L 168.24 166.398431 
L 169.038545 165.105438 
L 170.103273 162.777217 
L 173.031273 155.802717 
L 173.829818 154.522526 
L 174.362182 153.971822 
L 174.894545 153.70236 
L 175.426909 153.752036 
L 175.959273 154.155861 
L 176.491636 154.925063 
L 177.024 155.855133 
L 177.822545 156.5112 
L 178.621091 157.416524 
L 179.419636 158.650618 
L 180.218182 160.282504 
L 181.016727 162.424458 
L 181.815273 165.210965 
L 182.613818 168.788905 
L 183.412364 173.316772 
L 183.944727 176.977968 
L 184.210909 177.422633 
L 186.872727 165.154459 
L 188.736 157.626515 
L 190.333091 152.057999 
L 192.196364 146.466027 
L 193.527273 142.791538 
L 194.325818 142.451888 
L 195.124364 141.90826 
L 196.189091 140.877347 
L 197.253818 139.496169 
L 198.318545 137.736792 
L 199.383273 135.528475 
L 200.181818 133.723471 
L 200.448 134.832753 
L 202.577455 150.124134 
L 203.908364 158.185256 
L 204.973091 163.210961 
L 205.771636 165.916974 
L 206.304 167.12898 
L 206.836364 167.8255 
L 207.102545 167.967532 
L 207.368727 167.965487 
L 207.634909 167.81464 
L 208.167273 167.048526 
L 208.699636 165.634791 
L 209.232 163.541838 
L 209.764364 160.740953 
L 210.562909 165.358069 
L 212.426182 172.298988 
L 213.757091 176.385298 
L 214.821818 178.933777 
L 215.620364 180.367758 
L 216.418909 181.372822 
L 217.217455 181.947494 
L 217.749818 182.097748 
L 218.282182 182.068196 
L 218.814545 181.865629 
L 219.613091 181.276907 
L 220.411636 180.396656 
L 221.476364 178.867434 
L 225.202909 172.915442 
L 226.001455 172.068485 
L 226.8 171.544879 
L 227.598545 169.906714 
L 228.397091 167.824866 
L 229.195636 165.24023 
L 230.260364 160.913519 
L 231.325091 155.456257 
L 231.591273 155.366068 
L 233.986909 166.52357 
L 234.785455 169.09162 
L 235.584 170.926952 
L 236.116364 171.704723 
L 236.648727 172.11632 
L 237.181091 172.161108 
L 237.713455 171.818676 
L 238.245818 171.11142 
L 238.778182 170.02036 
L 239.576727 167.713101 
L 240.375273 164.628398 
L 241.44 159.395299 
L 242.504727 153.040158 
L 243.835636 144.693152 
L 246.497455 130.666807 
L 248.094545 141.450874 
L 249.159273 146.947341 
L 250.224 151.205378 
L 251.288727 154.475489 
L 252.353455 156.898644 
L 253.418182 158.660762 
L 254.482909 159.898128 
L 255.547636 160.721914 
L 256.612364 161.25869 
L 257.943273 161.630162 
L 259.806545 161.831195 
L 262.202182 161.864673 
L 263.266909 161.706281 
L 264.597818 161.265501 
L 265.928727 160.490102 
L 266.993455 159.58987 
L 268.058182 158.414634 
L 269.389091 156.533614 
L 270.72 154.195106 
L 272.050909 151.41316 
L 273.648 147.557741 
L 275.777455 141.779869 
L 278.971636 132.766959 
L 279.237818 132.502937 
L 279.770182 133.330076 
L 281.101091 135.91553 
L 284.827636 143.552089 
L 285.892364 145.118532 
L 286.690909 145.941991 
L 287.489455 146.417128 
L 288.021818 146.538832 
L 288.554182 146.50018 
L 289.352727 146.171185 
L 290.151273 145.557901 
L 291.216 144.430275 
L 293.345455 142.00802 
L 294.144 139.773403 
L 294.410182 138.885278 
L 294.676364 140.144834 
L 295.741091 148.025414 
L 296.539636 152.662673 
L 297.338182 156.242147 
L 298.136727 158.85159 
L 298.935273 160.625712 
L 299.733818 161.73211 
L 300.532364 162.357215 
L 301.597091 162.772206 
L 302.928 163.215154 
L 303.726545 163.69841 
L 304.525091 164.472623 
L 305.323636 165.584482 
L 306.388364 167.585119 
L 307.719273 170.725633 
L 309.050182 174.071413 
L 309.316364 174.336601 
L 309.582545 174.086567 
L 309.848727 173.584659 
L 311.179636 169.140702 
L 313.309091 160.624935 
L 314.906182 154.664231 
L 315.970909 151.588915 
L 316.769455 149.961447 
L 317.301818 149.234108 
L 317.834182 148.808318 
L 318.366545 148.685531 
L 318.898909 148.856255 
L 319.431273 149.294172 
L 320.229818 150.379056 
L 321.294545 152.342861 
L 322.625455 154.754706 
L 323.157818 155.374044 
L 323.690182 155.611071 
L 324.222545 155.452167 
L 324.754909 155.828853 
L 325.287273 156.574884 
L 325.819636 157.664615 
L 326.618182 159.865058 
L 329.812364 160.161986 
L 333.272727 160.701279 
L 337.265455 161.54347 
L 343.92 163.188977 
L 344.718545 163.562371 
L 345.517091 164.144303 
L 346.581818 165.223235 
L 347.646545 166.612 
L 348.977455 168.696282 
L 354.034909 177.068013 
L 355.099636 178.222737 
L 356.164364 179.000692 
L 356.430545 178.591877 
L 356.696727 177.237041 
L 357.761455 170.166114 
L 358.56 166.131791 
L 359.358545 163.03586 
L 359.890909 161.419681 
L 360.689455 155.201213 
L 361.221818 152.435852 
L 361.754182 150.642096 
L 362.286545 149.683682 
L 362.552727 149.483753 
L 362.818909 149.445878 
L 363.085091 149.549871 
L 363.617455 150.11624 
L 364.416 151.615747 
L 366.545455 156.223578 
L 367.077818 156.864736 
L 367.610182 157.089288 
L 367.876364 157.026728 
L 369.207273 162.603363 
L 370.272 166.05604 
L 371.336727 168.674809 
L 372.135273 170.159795 
L 372.933818 171.288444 
L 373.732364 172.108589 
L 374.530909 172.673548 
L 375.595636 173.113551 
L 376.660364 173.31532 
L 377.192727 173.298223 
L 377.725091 173.085267 
L 378.257455 172.690133 
L 379.056 171.774564 
L 379.854545 170.502513 
L 380.120727 170.004245 
L 380.653091 166.854712 
L 381.717818 160.802429 
L 382.516364 157.392576 
L 383.314909 154.819413 
L 384.113455 152.990298 
L 384.912 151.829051 
L 385.444364 151.387023 
L 385.976727 151.189855 
L 386.509091 151.220061 
L 387.041455 151.460831 
L 387.573818 151.895639 
L 388.372364 152.873932 
L 389.437091 154.700409 
L 390.768 157.589662 
L 391.300364 159.070027 
L 393.163636 166.406897 
L 393.962182 166.940504 
L 395.026909 167.963626 
L 396.624 169.932564 
L 398.753455 172.610047 
L 399.818182 173.606951 
L 400.616727 174.072967 
L 401.415273 174.242731 
L 401.947636 174.174179 
L 402.746182 173.787922 
L 403.544727 173.071074 
L 404.343273 172.060366 
L 405.674182 169.888063 
L 407.803636 166.259303 
L 408.602182 165.26786 
L 409.134545 164.82301 
L 410.199273 164.189214 
L 410.997818 163.15059 
L 411.796364 161.671309 
L 412.594909 159.691818 
L 413.393455 157.581563 
L 414.458182 156.486352 
L 415.256727 155.934196 
L 416.055273 155.670583 
L 416.587636 155.686249 
L 417.12 155.866687 
L 417.918545 156.450686 
L 418.717091 157.393742 
L 419.781818 159.136451 
L 423.242182 165.474292 
L 423.774545 165.898302 
L 424.306909 165.969717 
L 424.573091 165.848524 
L 425.105455 165.230639 
L 425.637818 164.024849 
L 426.170182 162.141743 
L 426.436364 160.915114 
L 426.436364 160.915114 
" clip-path="url(#p2326517419)" style="fill: none; stroke-dasharray: 3,4.95; stroke-dashoffset: 0; stroke: #ff0000; stroke-width: 3"/>
   </g>
   <g id="line2d_3">
    <path d="M 27.163636 204.844063 
L 29.559273 197.350517 
L 30.624 193.222426 
L 31.688727 188.225924 
L 32.753455 182.229554 
L 34.084364 173.275686 
L 35.415273 162.784599 
L 37.278545 145.999969 
L 38.875636 130.879947 
L 39.141818 132.181243 
L 39.940364 140.598232 
L 40.738909 146.735141 
L 41.537455 151.130466 
L 42.336 154.872565 
L 43.134545 157.556695 
L 43.933091 159.957763 
L 44.997818 165.285754 
L 46.594909 172.007193 
L 47.925818 177.284078 
L 48.192 176.01125 
L 49.256727 164.983755 
L 50.055273 158.535254 
L 50.853818 153.789134 
L 51.386182 151.637323 
L 51.918545 150.328808 
L 52.184727 149.996766 
L 52.450909 149.895226 
L 52.717091 150.022984 
L 52.983273 150.368442 
L 53.515636 151.787044 
L 54.048 154.18938 
L 54.580364 157.594938 
L 55.378909 164.641119 
L 56.177455 174.143646 
L 56.976 186.170785 
L 58.040727 206.410567 
L 58.573091 218.408134 
L 58.839273 218.037992 
L 59.371636 213.670051 
L 59.904 210.969438 
L 60.170182 210.200563 
L 60.436364 209.80093 
L 60.702545 211.17221 
L 61.234909 207.680123 
L 61.767273 205.29286 
L 62.299636 203.813845 
L 62.832 203.070227 
L 63.098182 202.930015 
L 64.429091 199.445107 
L 66.026182 196.175425 
L 67.889455 192.246178 
L 68.954182 189.509816 
L 70.018909 186.206288 
L 71.083636 182.184398 
L 72.148364 177.295817 
L 73.213091 171.372436 
L 74.277818 164.277623 
L 75.342545 155.816501 
L 76.407273 145.784702 
L 79.069091 117.478625 
L 79.335273 118.334007 
L 80.133818 126.016131 
L 80.932364 131.94847 
L 81.730909 136.598225 
L 82.795636 141.358599 
L 83.860364 145.00188 
L 85.191273 148.60886 
L 87.853091 154.802541 
L 89.450182 158.902226 
L 90.514909 162.167614 
L 91.579636 166.114182 
L 92.644364 171.050824 
L 93.442909 175.694014 
L 95.572364 190.070337 
L 96.104727 195.070581 
L 96.370909 195.327159 
L 97.968 170.846171 
L 98.766545 162.008076 
L 99.565091 155.436378 
L 100.363636 150.893643 
L 100.896 148.848954 
L 101.428364 147.488064 
L 101.960727 146.698718 
L 102.493091 146.371134 
L 103.025455 146.392076 
L 103.824 146.779315 
L 104.622545 147.146369 
L 105.154909 147.135326 
L 105.687273 146.705549 
L 106.219636 145.994693 
L 108.082909 159.758386 
L 108.615273 161.745362 
L 109.147636 162.856832 
L 109.68 163.547237 
L 110.212364 163.794326 
L 110.478545 163.661701 
L 111.277091 162.690361 
L 112.075636 161.412952 
L 112.874182 158.653379 
L 118.464 130.969215 
L 118.730182 131.558142 
L 119.794909 139.143819 
L 120.859636 144.992759 
L 121.658182 148.2361 
L 122.456727 150.458487 
L 122.989091 151.376777 
L 123.521455 151.82404 
L 124.053818 151.825369 
L 124.586182 151.4023 
L 125.118545 150.582093 
L 125.917091 148.734265 
L 127.248 145.107407 
L 128.046545 143.519225 
L 129.377455 140.226044 
L 130.974545 136.217734 
L 131.240727 135.792006 
L 131.506909 137.071869 
L 133.104 149.31855 
L 133.902545 153.889119 
L 134.701091 157.282529 
L 135.233455 158.892635 
L 135.765818 160.00572 
L 136.298182 160.630907 
L 136.830545 160.822328 
L 137.362909 160.613871 
L 137.895273 160.055805 
L 138.693818 158.685753 
L 139.758545 156.19151 
L 140.290909 154.505368 
L 140.823273 152.021229 
L 141.355636 148.765146 
L 142.420364 159.905388 
L 142.686545 161.304889 
L 142.952727 162.086546 
L 143.218909 162.270032 
L 143.485091 161.889849 
L 145.082182 157.074931 
L 146.679273 151.424592 
L 148.808727 143.010854 
L 150.938182 133.610807 
L 154.132364 118.945123 
L 154.930909 116.449429 
L 155.463273 115.274643 
L 155.995636 114.606612 
L 156.261818 114.694183 
L 156.528 115.935762 
L 157.858909 124.463432 
L 158.923636 130.165492 
L 159.988364 134.683993 
L 160.254545 135.620034 
L 161.053091 136.211476 
L 161.851636 137.052666 
L 162.650182 138.276084 
L 163.448727 140.05033 
L 164.247273 142.046488 
L 164.779636 142.803195 
L 165.312 144.136681 
L 165.844364 146.10112 
L 166.376727 148.786374 
L 166.909091 151.791871 
L 167.175273 152.064482 
L 167.707636 151.657017 
L 168.24 150.926426 
L 169.038545 149.318345 
L 170.103273 146.440034 
L 173.563636 136.262706 
L 174.096 135.292327 
L 174.628364 134.681559 
L 175.160727 134.492531 
L 175.426909 134.593538 
L 175.959273 135.234206 
L 176.491636 136.542332 
L 177.024 138.281238 
L 177.556364 139.403649 
L 178.621091 136.781915 
L 179.419636 135.542647 
L 179.952 135.12921 
L 180.484364 135.078083 
L 181.016727 135.433644 
L 181.549091 136.243727 
L 182.081455 137.516699 
L 182.613818 139.347307 
L 183.146182 141.739744 
L 183.944727 146.625565 
L 184.210909 146.617793 
L 185.275636 138.564402 
L 187.405091 126.948226 
L 189.268364 117.910447 
L 190.865455 110.942942 
L 191.397818 109.548144 
L 191.930182 108.793891 
L 192.462545 108.305174 
L 193.261091 107.908589 
L 193.527273 107.830691 
L 196.189091 118.131154 
L 196.987636 120.447207 
L 197.786182 122.08758 
L 198.318545 122.722072 
L 198.850909 122.946807 
L 199.117091 122.891958 
L 199.649455 122.420645 
L 200.181818 121.703981 
L 200.448 123.337094 
L 201.512727 133.264204 
L 202.577455 141.084004 
L 203.376 145.22228 
L 203.908364 147.023684 
L 204.440727 147.981199 
L 204.706909 148.111778 
L 204.973091 148.006497 
L 205.239273 147.267644 
L 206.037818 141.955379 
L 206.570182 137.72765 
L 207.102545 138.629191 
L 207.368727 138.830858 
L 207.634909 138.859858 
L 207.901091 138.710218 
L 208.167273 138.375783 
L 208.699636 137.129868 
L 209.232 135.077858 
L 209.764364 132.179177 
L 210.562909 138.654243 
L 212.692364 149.857372 
L 214.023273 155.858343 
L 215.088 159.858678 
L 216.152727 163.045922 
L 216.951273 164.877859 
L 217.749818 166.239915 
L 218.548364 167.142314 
L 219.346909 167.620929 
L 219.879273 167.738849 
L 220.677818 167.643077 
L 221.476364 167.29903 
L 222.807273 166.575229 
L 223.339636 166.811643 
L 223.872 167.459489 
L 224.404364 168.585111 
L 224.936727 170.263952 
L 225.469091 172.581314 
L 226.267636 177.41298 
L 226.8 181.680875 
L 227.598545 182.604012 
L 228.663273 184.296207 
L 229.728 186.467447 
L 230.526545 188.400249 
L 230.792727 188.041457 
L 231.058909 186.702142 
L 231.325091 184.762796 
L 231.591273 184.57203 
L 233.986909 198.048816 
L 234.785455 200.972406 
L 235.317818 202.296075 
L 235.850182 203.091189 
L 236.382545 203.592933 
L 236.648727 203.636065 
L 236.914909 203.533851 
L 237.181091 203.275493 
L 237.713455 202.276831 
L 238.245818 200.642655 
L 238.778182 198.312654 
L 239.576727 193.521256 
L 240.375273 187.117379 
L 241.173818 179.099879 
L 242.238545 165.90591 
L 243.303273 150.036154 
L 244.368 129.997692 
L 245.166545 113.136779 
L 246.231273 106.238848 
L 246.497455 104.776644 
L 249.425455 133.767646 
L 250.756364 144.040295 
L 252.087273 152.577863 
L 253.418182 159.704477 
L 254.482909 164.343843 
L 255.547636 167.658702 
L 256.346182 169.468941 
L 257.144727 170.747352 
L 257.943273 171.51183 
L 258.475636 171.752067 
L 259.008 171.789452 
L 259.540364 171.59936 
L 260.072727 171.21842 
L 260.338909 170.885907 
L 260.605091 170.338128 
L 260.871273 168.772401 
L 261.669818 162.875034 
L 262.202182 160.146628 
L 262.734545 158.255035 
L 263.266909 157.090495 
L 263.799273 156.523757 
L 264.331636 156.471525 
L 264.864 156.850993 
L 265.396364 157.578659 
L 266.194909 159.149581 
L 267.525818 162.544444 
L 268.324364 164.407016 
L 270.72 169.292019 
L 271.784727 170.931758 
L 272.317091 171.538109 
L 272.583273 171.536126 
L 272.849455 171.328896 
L 273.381818 170.432938 
L 273.914182 168.998916 
L 274.712727 166.031908 
L 275.777455 160.971088 
L 276.842182 154.898661 
L 278.173091 143.69905 
L 278.971636 136.922086 
L 279.237818 135.555695 
L 279.504 135.080312 
L 279.770182 134.880302 
L 280.036364 134.837477 
L 280.302545 134.982188 
L 280.568727 135.310058 
L 281.101091 136.549919 
L 281.633455 138.578248 
L 282.165818 141.441242 
L 282.964364 147.207641 
L 283.762909 154.655928 
L 284.827636 166.870173 
L 286.158545 183.685439 
L 289.618909 179.042985 
L 290.949818 176.470436 
L 293.345455 171.692616 
L 294.144 167.472843 
L 294.410182 165.778643 
L 294.676364 166.718366 
L 295.474909 172.112925 
L 296.007273 174.689442 
L 296.539636 176.39898 
L 297.072 177.277718 
L 297.338182 177.38347 
L 297.604364 177.282503 
L 297.870545 176.977006 
L 298.402909 175.732585 
L 298.935273 173.663559 
L 299.467636 170.804717 
L 300.266182 165.06429 
L 300.532364 162.780734 
L 301.330909 158.565378 
L 302.129455 152.592424 
L 302.928 144.854019 
L 303.194182 141.913393 
L 304.791273 156.134248 
L 305.856 163.110997 
L 306.920727 168.68076 
L 307.985455 173.322621 
L 309.050182 177.188572 
L 309.316364 177.569021 
L 309.582545 177.287779 
L 309.848727 176.677215 
L 311.179636 171.592039 
L 312.244364 166.306442 
L 313.841455 157.09027 
L 315.970909 144.786858 
L 317.035636 139.668939 
L 317.301818 138.571908 
L 317.568 138.35932 
L 318.100364 139.653724 
L 318.632727 141.54366 
L 319.431273 145.612955 
L 320.229818 151.254603 
L 321.028364 158.553087 
L 322.093091 170.929979 
L 322.625455 177.738437 
L 322.891636 179.391797 
L 323.424 181.022231 
L 323.690182 181.459472 
L 323.956364 181.616475 
L 324.222545 181.637682 
L 325.287273 182.548937 
L 326.085818 183.468802 
L 326.618182 184.233484 
L 328.481455 180.185274 
L 329.28 179.056319 
L 329.812364 178.723806 
L 330.344727 178.820683 
L 330.877091 179.427647 
L 331.409455 180.62313 
L 331.941818 182.485887 
L 332.474182 185.085697 
L 333.272727 190.52394 
L 334.071273 198.036034 
L 334.337455 197.43226 
L 335.136 183.750003 
L 335.934545 173.856391 
L 336.733091 167.193933 
L 337.265455 164.27339 
L 337.797818 162.397524 
L 338.330182 161.43144 
L 338.596364 161.239712 
L 338.862545 161.217788 
L 339.128727 161.334932 
L 339.661091 161.977583 
L 340.193455 163.010296 
L 341.258182 165.709703 
L 342.589091 168.961715 
L 343.121455 169.845443 
L 343.387636 169.976432 
L 344.452364 169.678502 
L 344.984727 169.323309 
L 345.517091 168.678694 
L 346.049455 167.627207 
L 346.581818 166.03019 
L 346.848 165.063984 
L 347.114182 164.589501 
L 347.380364 164.519435 
L 347.646545 164.570992 
L 348.178909 165.027131 
L 348.711273 165.881941 
L 349.509818 167.789261 
L 350.574545 171.080825 
L 352.437818 176.929478 
L 353.236364 178.619997 
L 353.768727 179.219456 
L 354.567273 179.598433 
L 354.833455 179.766561 
L 355.099636 179.782492 
L 355.365818 179.627412 
L 355.632 179.298131 
L 356.164364 178.040662 
L 356.430545 176.397548 
L 356.962909 169.363393 
L 358.56 144.998199 
L 359.358545 152.223918 
L 359.890909 155.552683 
L 361.221818 151.845923 
L 362.020364 150.293959 
L 362.552727 149.631429 
L 363.085091 149.286646 
L 363.617455 149.21832 
L 364.149818 149.382848 
L 364.948364 149.894102 
L 366.013091 150.643037 
L 366.545455 150.83683 
L 367.077818 150.795642 
L 367.344 150.652383 
L 367.876364 149.119419 
L 368.941091 152.397302 
L 370.804364 158.684546 
L 372.933818 166.042624 
L 373.998545 168.374261 
L 375.063273 170.199204 
L 378.523636 175.131101 
L 379.056 175.36594 
L 379.588364 175.327492 
L 380.120727 174.995041 
L 380.386909 173.711721 
L 381.451636 166.654456 
L 382.516364 160.000505 
L 386.509091 131.906954 
L 387.84 139.589303 
L 388.904727 144.330904 
L 389.969455 148.033983 
L 391.832727 153.820567 
L 393.163636 158.674996 
L 394.228364 158.255464 
L 395.825455 157.917818 
L 399.019636 157.369425 
L 400.616727 156.998649 
L 400.882909 157.122112 
L 401.415273 157.679483 
L 401.947636 157.962954 
L 402.48 158.007087 
L 403.012364 157.816832 
L 403.810909 156.826759 
L 405.141818 155.230233 
L 405.940364 154.638402 
L 406.472727 154.511871 
L 407.005091 154.667033 
L 407.537455 155.160147 
L 408.069818 156.059009 
L 408.602182 157.427486 
L 409.134545 159.329611 
L 409.666909 161.816982 
L 411.796364 173.649407 
L 412.328727 174.862293 
L 413.393455 176.22938 
L 417.652364 188.568069 
L 419.249455 194.198163 
L 422.177455 204.858972 
L 422.976 206.985056 
L 423.508364 207.960854 
L 424.040727 208.465011 
L 424.306909 208.504747 
L 424.573091 208.385314 
L 424.839273 208.082067 
L 425.371636 206.885112 
L 425.904 204.78226 
L 426.436364 201.606509 
L 426.436364 201.606509 
" clip-path="url(#p2326517419)" style="fill: none; stroke: #ff0000; stroke-width: 3; stroke-linecap: square"/>
   </g>
   <g id="patch_3">
    <path d="M 7.2 331.2 
L 7.2 7.2 
" style="fill: none; stroke: #000000; stroke-width: 0.8; stroke-linejoin: miter; stroke-linecap: square"/>
   </g>
   <g id="patch_4">
    <path d="M 446.4 331.2 
L 446.4 7.2 
" style="fill: none; stroke: #000000; stroke-width: 0.8; stroke-linejoin: miter; stroke-linecap: square"/>
   </g>
   <g id="patch_5">
    <path d="M 7.2 331.2 
L 446.4 331.2 
" style="fill: none; stroke: #000000; stroke-width: 0.8; stroke-linejoin: miter; stroke-linecap: square"/>
   </g>
   <g id="patch_6">
    <path d="M 7.2 7.2 
L 446.4 7.2 
" style="fill: none; stroke: #000000; stroke-width: 0.8; stroke-linejoin: miter; stroke-linecap: square"/>
   </g>
  </g>
 </g>
 <defs>
  <clipPath id="p2326517419">
   <rect x="7.2" y="7.2" width="439.2" height="324"/>
  </clipPath>
 </defs>
</svg>
