<?xml version="1.0" encoding="utf-8" standalone="no"?>
<!DOCTYPE svg PUBLIC "-//W3C//DTD SVG 1.1//EN"
  "http://www.w3.org/Graphics/SVG/1.1/DTD/svg11.dtd">
<svg xmlns:xlink="http://www.w3.org/1999/xlink" width="453.6pt" height="338.4pt" viewBox="0 0 453.6 338.4" xmlns="http://www.w3.org/2000/svg" version="1.1">
 <metadata>
  <rdf:RDF xmlns:dc="http://purl.org/dc/elements/1.1/" xmlns:cc="http://creativecommons.org/ns#" xmlns:rdf="http://www.w3.org/1999/02/22-rdf-syntax-ns#">
   <cc:Work>
    <dc:type rdf:resource="http://purl.org/dc/dcmitype/StillImage"/>
    <dc:date>2025-05-14T09:04:16.799936</dc:date>
    <dc:format>image/svg+xml</dc:format>
    <dc:creator>
     <cc:Agent>
      <dc:title>Matplotlib v3.10.1, https://matplotlib.org/</dc:title>
     </cc:Agent>
    </dc:creator>
   </cc:Work>
  </rdf:RDF>
 </metadata>
 <defs>
  <style type="text/css">*{stroke-linejoin: round; stroke-linecap: butt}</style>
 </defs>
 <g id="figure_1">
  <g id="patch_1">
   <path d="M 0 338.4 
L 453.6 338.4 
L 453.6 0 
L 0 0 
z
" style="fill: #ffffff"/>
  </g>
  <g id="axes_1">
   <g id="patch_2">
    <path d="M 7.2 331.2 
L 446.4 331.2 
L 446.4 7.2 
L 7.2 7.2 
z
" style="fill: #ffffff"/>
   </g>
   <g id="matplotlib.axis_1"/>
   <g id="matplotlib.axis_2"/>
   <g id="line2d_1">
    <path d="M 27.163636 46.887566 
L 27.962182 47.019106 
L 29.026909 47.45777 
L 30.091636 48.183356 
L 31.156364 49.180864 
L 32.487273 50.786991 
L 33.818182 52.764939 
L 35.415273 55.587529 
L 37.012364 58.852093 
L 38.875636 63.151245 
L 41.005091 68.612363 
L 43.666909 76.083535 
L 47.127273 86.502741 
L 55.645091 112.43999 
L 58.306909 119.721855 
L 60.436364 124.981978 
L 62.299636 129.069103 
L 63.896727 132.125105 
L 65.493818 134.7144 
L 66.824727 136.478908 
L 68.155636 137.854488 
L 69.220364 138.655084 
L 70.285091 139.172804 
L 71.349818 139.392572 
L 72.148364 139.352744 
L 72.946909 139.130441 
L 73.745455 138.719296 
L 74.810182 137.866351 
L 75.874909 136.651282 
L 76.939636 135.058953 
L 78.004364 133.074309 
L 79.069091 130.682255 
L 80.4 127.096226 
L 81.730909 122.820529 
L 83.061818 117.825692 
L 84.658909 110.841101 
L 86.256 102.727501 
L 87.853091 93.434015 
L 88.119273 94.554219 
L 89.982545 109.137108 
L 91.845818 121.988872 
L 93.709091 133.220111 
L 95.306182 141.640759 
L 96.903273 149.021496 
L 98.500364 155.431935 
L 100.097455 160.941609 
L 101.694545 165.620071 
L 103.291636 169.536874 
L 104.622545 172.269262 
L 105.953455 174.561302 
L 107.284364 176.453237 
L 108.615273 177.985351 
L 109.946182 179.197866 
L 111.277091 180.131085 
L 112.608 180.825223 
L 114.205091 181.399268 
L 116.068364 181.80003 
L 118.464 182.059587 
L 122.456727 182.452057 
L 124.32 182.874301 
L 125.917091 183.47453 
L 127.248 184.195916 
L 128.578909 185.161299 
L 129.909818 186.410971 
L 131.240727 187.985186 
L 132.571636 189.924177 
L 133.902545 192.268217 
L 135.233455 195.05756 
L 136.564364 198.332477 
L 137.895273 202.133204 
L 139.492364 207.444834 
L 141.089455 213.641204 
L 142.686545 220.79184 
L 144.283636 228.966264 
L 145.880727 238.234167 
L 146.413091 241.578444 
L 146.679273 242.177967 
L 148.808727 239.876512 
L 150.938182 237.241071 
L 153.333818 233.918604 
L 155.995636 229.838794 
L 159.189818 224.492804 
L 162.916364 217.777717 
L 167.973818 208.148096 
L 178.088727 188.780228 
L 181.815273 182.171077 
L 185.009455 176.949108 
L 187.671273 172.996125 
L 190.066909 169.80603 
L 192.196364 167.302728 
L 194.325818 165.147036 
L 196.189091 163.572299 
L 198.052364 162.311751 
L 199.649455 161.498324 
L 201.246545 160.946331 
L 202.577455 160.69618 
L 203.908364 160.645553 
L 205.239273 160.80258 
L 206.570182 161.175446 
L 207.901091 161.772337 
L 209.232 162.601381 
L 210.562909 163.670765 
L 211.893818 164.988655 
L 213.490909 166.909687 
L 215.088 169.214422 
L 216.685091 171.917026 
L 218.282182 175.03155 
L 220.145455 179.204678 
L 222.008727 183.980164 
L 223.872 189.380351 
L 225.735273 195.427716 
L 227.864727 203.160274 
L 229.728 210.491449 
L 234.253091 195.269915 
L 240.375273 173.796373 
L 253.950545 125.902328 
L 258.475636 110.872143 
L 262.202182 99.190086 
L 265.662545 89.055111 
L 268.590545 81.112433 
L 271.252364 74.464752 
L 273.914182 68.422805 
L 276.309818 63.551011 
L 278.439273 59.706238 
L 280.302545 56.741503 
L 282.165818 54.170515 
L 283.762909 52.295252 
L 285.36 50.73652 
L 286.957091 49.5068 
L 288.288 48.74247 
L 289.618909 48.222641 
L 290.949818 47.954608 
L 292.280727 47.94559 
L 293.611636 48.202902 
L 294.942545 48.73382 
L 296.273455 49.545582 
L 297.604364 50.645485 
L 298.669091 51.570944 
L 300.266182 50.930722 
L 301.863273 50.525906 
L 303.460364 50.375033 
L 304.791273 50.457088 
L 306.122182 50.73948 
L 307.453091 51.233184 
L 308.784 51.949074 
L 310.114909 52.898065 
L 311.445818 54.090937 
L 313.042909 55.859742 
L 314.64 58.014417 
L 316.237091 60.5736 
L 317.834182 63.556275 
L 319.431273 66.981059 
L 321.294545 71.560726 
L 323.157818 76.797761 
L 325.021091 82.722005 
L 326.884364 89.363436 
L 329.013818 97.870086 
L 331.143273 107.397042 
L 333.272727 117.988776 
L 335.402182 129.690108 
L 337.531636 142.545297 
L 339.927273 158.442439 
L 342.322909 175.920248 
L 344.718545 195.041904 
L 347.114182 215.871045 
L 349.776 241.094436 
L 352.437818 268.591584 
L 355.099636 298.449096 
L 356.696727 316.472727 
L 359.092364 307.584695 
L 361.754182 296.859458 
L 365.214545 281.920123 
L 370.538182 257.747276 
L 376.660364 230.137752 
L 380.120727 215.554708 
L 382.782545 205.216086 
L 385.178182 196.759714 
L 387.307636 190.048285 
L 389.170909 184.887402 
L 390.768 181.050612 
L 391.300364 175.511813 
L 392.897455 158.427866 
L 394.228364 146.286128 
L 395.559273 135.885269 
L 396.890182 127.072074 
L 398.221091 119.693272 
L 399.552 113.595648 
L 400.882909 108.625968 
L 402.213818 104.630923 
L 403.544727 101.457316 
L 404.875636 98.951875 
L 406.206545 96.961348 
L 407.803636 95.036659 
L 412.594909 89.73934 
L 413.925818 87.71334 
L 414.990545 85.720355 
L 416.055273 83.311523 
L 417.12 80.408368 
L 418.184727 76.932435 
L 419.249455 72.805289 
L 420.580364 66.611038 
L 421.911273 59.123377 
L 423.242182 50.189055 
L 424.573091 39.654876 
L 425.904 27.36751 
L 426.436364 21.927273 
L 426.436364 21.927273 
" clip-path="url(#p17ef1ab920)" style="fill: none; stroke-dasharray: 11.1,4.8; stroke-dashoffset: 0; stroke: #000000; stroke-width: 3"/>
   </g>
   <g id="line2d_2">
    <path d="M 27.163636 56.284686 
L 29.293091 60.498028 
L 31.422545 64.159649 
L 33.552 67.341635 
L 35.681455 70.115206 
L 37.810909 72.549951 
L 40.206545 74.96966 
L 43.134545 77.605498 
L 45.264 79.468472 
L 45.530182 80.096114 
L 47.393455 87.690465 
L 51.386182 104.800664 
L 62.565818 153.716737 
L 64.162909 157.592126 
L 65.76 160.934758 
L 67.357091 163.788428 
L 68.954182 166.201402 
L 70.551273 168.220068 
L 72.148364 169.891278 
L 73.745455 171.262078 
L 75.608727 172.544069 
L 77.472 173.55493 
L 80.133818 174.901036 
L 81.198545 175.773295 
L 82.263273 176.89284 
L 83.594182 178.650304 
L 84.925091 180.818391 
L 86.256 183.411789 
L 87.586909 186.446058 
L 89.184 190.692687 
L 90.781091 195.62906 
L 92.378182 201.288368 
L 93.975273 207.712896 
L 95.306182 213.127936 
L 96.637091 216.520613 
L 97.968 219.339836 
L 99.298909 221.622142 
L 100.629818 223.404339 
L 101.694545 224.494991 
L 102.759273 225.307276 
L 103.824 225.861011 
L 104.888727 226.176573 
L 105.953455 226.27351 
L 107.018182 226.171542 
L 108.349091 225.794496 
L 109.68 225.175872 
L 111.277091 224.17668 
L 115.802182 221.002221 
L 118.197818 219.041594 
L 120.327273 216.998486 
L 122.190545 214.905817 
L 124.053818 212.466949 
L 125.917091 209.624251 
L 127.514182 207.143563 
L 128.845091 206.320982 
L 130.176 205.737328 
L 131.506909 205.385944 
L 132.837818 205.260133 
L 134.168727 205.353238 
L 135.499636 205.658428 
L 136.830545 206.169181 
L 138.427636 207.043916 
L 140.024727 208.19342 
L 141.621818 209.606002 
L 144.283636 212.089167 
L 145.614545 212.65285 
L 146.945455 212.965626 
L 148.276364 213.045745 
L 149.607273 212.911477 
L 151.204364 212.492978 
L 152.801455 211.823302 
L 154.664727 210.76611 
L 156.794182 209.254114 
L 159.189818 207.253814 
L 159.988364 206.453412 
L 161.851636 203.061488 
L 163.714909 200.122802 
L 165.578182 197.599499 
L 167.441455 195.451346 
L 169.304727 193.638011 
L 171.168 192.119222 
L 173.297455 190.692841 
L 175.426909 189.538655 
L 176.757818 188.807322 
L 178.887273 187.133364 
L 181.282909 184.962065 
L 184.743273 181.487603 
L 191.397818 174.726302 
L 193.261091 173.09732 
L 200.714182 167.323406 
L 203.109818 165.793412 
L 204.973091 164.829983 
L 206.836364 164.118873 
L 208.433455 163.747982 
L 209.232 163.681777 
L 209.764364 163.995714 
L 220.944 172.20418 
L 223.872 173.930254 
L 225.202909 174.580442 
L 227.332364 174.027171 
L 229.195636 173.333537 
L 231.058909 172.408872 
L 232.922182 171.22225 
L 234.785455 169.739844 
L 236.648727 167.930844 
L 238.512 165.763977 
L 240.375273 163.205936 
L 240.907636 162.314518 
L 241.706182 160.017853 
L 243.037091 155.540716 
L 244.900364 148.402485 
L 247.296 138.179882 
L 253.950545 109.093352 
L 255.813818 102.203066 
L 259.806545 89.071658 
L 261.669818 83.448133 
L 264.065455 76.794181 
L 266.194909 71.481496 
L 268.058182 67.371535 
L 269.921455 63.828623 
L 271.518545 61.284052 
L 272.849455 59.540696 
L 273.914182 58.40861 
L 274.446545 58.0783 
L 278.439273 56.991964 
L 283.762909 55.794427 
L 298.136727 52.904606 
L 304.258909 52.031322 
L 310.647273 51.256291 
L 311.179636 51.505629 
L 312.510545 52.498377 
L 313.841455 53.798636 
L 315.172364 55.415427 
L 316.503273 57.349793 
L 318.100364 60.10552 
L 319.697455 63.341539 
L 321.294545 67.079718 
L 322.891636 71.329772 
L 324.754909 76.967192 
L 326.618182 83.363407 
L 329.28 92.967696 
L 331.409455 98.31626 
L 333.538909 104.264617 
L 335.934545 111.63144 
L 338.596364 120.601565 
L 341.258182 130.343082 
L 343.653818 139.848092 
L 346.581818 153.057182 
L 351.106909 173.461535 
L 355.898182 194.063574 
L 360.955636 214.887954 
L 361.221818 215.869864 
L 362.552727 213.133703 
L 364.149818 209.329299 
L 366.279273 203.598638 
L 370.005818 192.702895 
L 373.2 183.63237 
L 375.063273 178.925401 
L 376.660364 175.439908 
L 377.192727 174.692125 
L 379.854545 171.998365 
L 383.847273 168.346498 
L 387.573818 164.848368 
L 389.969455 162.303274 
L 392.098909 159.712605 
L 393.163636 158.225322 
L 398.753455 142.66298 
L 401.681455 135.207039 
L 404.077091 129.743792 
L 405.940364 126.006038 
L 407.537455 123.22405 
L 409.134545 120.883783 
L 409.933091 120.002293 
L 410.465455 120.010073 
L 412.062545 120.08518 
L 413.393455 119.919735 
L 414.724364 119.50143 
L 415.789091 118.956036 
L 416.853818 118.19966 
L 417.918545 117.210358 
L 418.983273 115.966336 
L 420.314182 114.019759 
L 421.645091 111.598657 
L 422.976 108.660377 
L 424.306909 105.162731 
L 425.637818 101.063839 
L 426.436364 98.298533 
L 426.436364 98.298533 
" clip-path="url(#p17ef1ab920)" style="fill: none; stroke-dasharray: 3,4.95; stroke-dashoffset: 0; stroke: #0000ff; stroke-width: 3"/>
   </g>
   <g id="line2d_3">
    <path d="M 27.163636 37.760589 
L 29.293091 40.196148 
L 31.954909 42.876129 
L 35.947636 46.51472 
L 39.674182 49.989356 
L 42.069818 52.5168 
L 43.933091 54.761039 
L 44.465455 55.816354 
L 45.530182 58.683919 
L 47.393455 67.921148 
L 50.321455 83.512112 
L 55.378909 111.921187 
L 59.904 136.875616 
L 61.234909 143.440682 
L 62.832 150.190875 
L 64.429091 154.925769 
L 66.026182 158.991006 
L 67.623273 162.44031 
L 69.220364 165.33015 
L 70.817455 167.715469 
L 72.414545 169.651635 
L 74.011636 171.19444 
L 75.608727 172.398944 
L 79.867636 175.276611 
L 81.198545 176.615576 
L 82.529455 178.288818 
L 83.860364 180.297517 
L 85.457455 183.153607 
L 87.054545 186.500671 
L 88.651636 190.345657 
L 90.514909 195.472363 
L 92.378182 201.305534 
L 94.773818 209.701081 
L 95.306182 211.254917 
L 96.637091 214.049466 
L 97.968 216.370496 
L 99.298909 218.248255 
L 100.629818 219.713283 
L 101.960727 220.79631 
L 103.025455 221.407193 
L 104.090182 221.809339 
L 105.154909 222.019198 
L 106.485818 222.035784 
L 107.816727 221.809223 
L 109.147636 221.371468 
L 110.744727 220.613932 
L 115.536 217.88255 
L 118.197818 216.116706 
L 120.327273 214.451651 
L 122.456727 212.483786 
L 124.32 210.457669 
L 126.183273 208.098612 
L 127.514182 206.449212 
L 129.111273 205.679677 
L 130.708364 205.18789 
L 132.305455 204.964522 
L 133.902545 205.00017 
L 135.499636 205.285272 
L 137.096727 205.810384 
L 138.693818 206.566102 
L 140.557091 207.726597 
L 142.420364 209.173085 
L 144.017455 210.426531 
L 145.348364 210.926969 
L 146.679273 211.220528 
L 148.276364 211.320484 
L 149.873455 211.169224 
L 151.470545 210.79214 
L 153.333818 210.100382 
L 155.197091 209.175253 
L 157.326545 207.883276 
L 159.722182 206.200996 
L 160.254545 205.522766 
L 162.384 202.447974 
L 164.247273 200.146432 
L 166.110545 198.176089 
L 167.973818 196.503893 
L 169.837091 195.096942 
L 171.966545 193.771427 
L 174.096 192.700476 
L 177.556364 191.071203 
L 179.685818 189.627812 
L 182.347636 187.532027 
L 186.074182 184.264289 
L 192.462545 178.614715 
L 194.059636 177.454858 
L 199.915636 173.587462 
L 202.311273 172.285673 
L 204.440727 171.392301 
L 206.304 170.875471 
L 207.901091 170.669328 
L 209.232 170.710162 
L 209.764364 171.055876 
L 212.958545 173.548196 
L 217.217455 176.69258 
L 220.145455 178.609006 
L 222.807273 180.083807 
L 224.936727 181.030224 
L 225.202909 181.10777 
L 228.663273 180.350795 
L 230.526545 179.811497 
L 232.389818 179.050728 
L 234.253091 178.040138 
L 236.116364 176.752128 
L 237.979636 175.160186 
L 239.842909 173.235303 
L 240.907636 171.907718 
L 241.706182 170.061561 
L 243.037091 166.423976 
L 244.900364 160.534025 
L 247.029818 152.929552 
L 249.957818 141.467244 
L 255.015273 121.559071 
L 259.540364 105.360979 
L 261.669818 98.303526 
L 263.799273 91.953138 
L 265.662545 87.033659 
L 267.525818 82.719876 
L 269.122909 79.514744 
L 270.72 76.768848 
L 272.317091 74.488652 
L 273.648 72.952794 
L 274.446545 72.307077 
L 278.705455 70.52428 
L 281.899636 69.355811 
L 285.36 68.340498 
L 289.352727 67.404802 
L 294.144 66.330677 
L 296.805818 65.0136 
L 299.733818 63.302601 
L 302.661818 61.338607 
L 305.856 58.932716 
L 309.316364 56.049223 
L 310.913455 54.797074 
L 311.712 54.945643 
L 313.042909 55.459802 
L 314.373818 56.252967 
L 315.704727 57.332646 
L 317.035636 58.699614 
L 318.366545 60.362406 
L 319.963636 62.750899 
L 321.560727 65.583494 
L 323.157818 68.868069 
L 324.754909 72.623626 
L 326.618182 77.616316 
L 328.215273 82.644885 
L 329.013818 85.142275 
L 330.610909 88.999182 
L 332.208 93.40369 
L 334.071273 99.198698 
L 336.200727 106.635364 
L 338.330182 114.878606 
L 340.725818 125.036223 
L 343.387636 137.33524 
L 350.574545 172.847594 
L 353.236364 184.261676 
L 356.164364 195.771592 
L 359.092364 206.382001 
L 361.221818 213.566948 
L 362.552727 211.29879 
L 364.149818 208.13333 
L 366.279273 203.338598 
L 369.473455 195.456416 
L 373.466182 185.653822 
L 375.595636 180.992854 
L 376.926545 178.504831 
L 379.588364 175.447804 
L 383.314909 171.48351 
L 388.106182 166.35779 
L 390.501818 163.477259 
L 392.631273 160.59276 
L 393.163636 159.776914 
L 394.228364 157.019871 
L 396.890182 145.569832 
L 403.810909 115.188247 
L 405.940364 107.01988 
L 407.803636 100.798303 
L 409.134545 97.010039 
L 409.933091 95.111572 
L 410.199273 94.694776 
L 410.465455 94.624604 
L 412.861091 96.686658 
L 414.192 97.570799 
L 415.522909 98.195383 
L 416.587636 98.471699 
L 417.652364 98.519442 
L 418.717091 98.311344 
L 419.781818 97.819828 
L 420.846545 97.018032 
L 421.911273 95.878708 
L 422.976 94.375091 
L 424.040727 92.481347 
L 425.105455 90.17158 
L 426.436364 86.660154 
L 426.436364 86.660154 
" clip-path="url(#p17ef1ab920)" style="fill: none; stroke: #0000ff; stroke-width: 3; stroke-linecap: square"/>
   </g>
   <g id="patch_3">
    <path d="M 7.2 331.2 
L 7.2 7.2 
" style="fill: none; stroke: #000000; stroke-width: 0.8; stroke-linejoin: miter; stroke-linecap: square"/>
   </g>
   <g id="patch_4">
    <path d="M 446.4 331.2 
L 446.4 7.2 
" style="fill: none; stroke: #000000; stroke-width: 0.8; stroke-linejoin: miter; stroke-linecap: square"/>
   </g>
   <g id="patch_5">
    <path d="M 7.2 331.2 
L 446.4 331.2 
" style="fill: none; stroke: #000000; stroke-width: 0.8; stroke-linejoin: miter; stroke-linecap: square"/>
   </g>
   <g id="patch_6">
    <path d="M 7.2 7.2 
L 446.4 7.2 
" style="fill: none; stroke: #000000; stroke-width: 0.8; stroke-linejoin: miter; stroke-linecap: square"/>
   </g>
  </g>
 </g>
 <defs>
  <clipPath id="p17ef1ab920">
   <rect x="7.2" y="7.2" width="439.2" height="324"/>
  </clipPath>
 </defs>
</svg>
