<?xml version="1.0" encoding="utf-8" standalone="no"?>
<!DOCTYPE svg PUBLIC "-//W3C//DTD SVG 1.1//EN"
  "http://www.w3.org/Graphics/SVG/1.1/DTD/svg11.dtd">
<svg xmlns:xlink="http://www.w3.org/1999/xlink" width="453.6pt" height="338.4pt" viewBox="0 0 453.6 338.4" xmlns="http://www.w3.org/2000/svg" version="1.1">
 <metadata>
  <rdf:RDF xmlns:dc="http://purl.org/dc/elements/1.1/" xmlns:cc="http://creativecommons.org/ns#" xmlns:rdf="http://www.w3.org/1999/02/22-rdf-syntax-ns#">
   <cc:Work>
    <dc:type rdf:resource="http://purl.org/dc/dcmitype/StillImage"/>
    <dc:date>2025-05-14T00:23:12.374771</dc:date>
    <dc:format>image/svg+xml</dc:format>
    <dc:creator>
     <cc:Agent>
      <dc:title>Matplotlib v3.10.1, https://matplotlib.org/</dc:title>
     </cc:Agent>
    </dc:creator>
   </cc:Work>
  </rdf:RDF>
 </metadata>
 <defs>
  <style type="text/css">*{stroke-linejoin: round; stroke-linecap: butt}</style>
 </defs>
 <g id="figure_1">
  <g id="patch_1">
   <path d="M 0 338.4 
L 453.6 338.4 
L 453.6 0 
L 0 0 
z
" style="fill: #ffffff"/>
  </g>
  <g id="axes_1">
   <g id="patch_2">
    <path d="M 7.2 331.2 
L 446.4 331.2 
L 446.4 7.2 
L 7.2 7.2 
z
" style="fill: #ffffff"/>
   </g>
   <g id="matplotlib.axis_1"/>
   <g id="matplotlib.axis_2"/>
   <g id="line2d_1">
    <path d="M 27.163636 183.94644 
L 30.357818 165.527659 
L 33.285818 149.916357 
L 36.213818 135.522253 
L 38.875636 123.492984 
L 41.537455 112.46969 
L 43.933091 103.408769 
L 46.328727 95.162712 
L 48.724364 87.731496 
L 50.853818 81.81003 
L 52.983273 76.532363 
L 54.846545 72.442536 
L 56.709818 68.845641 
L 58.573091 65.741677 
L 60.170182 63.473466 
L 61.767273 61.567366 
L 63.364364 60.023441 
L 64.695273 59.013471 
L 66.026182 58.254988 
L 67.357091 57.748037 
L 68.688 57.492531 
L 70.018909 57.488513 
L 71.349818 57.736026 
L 72.680727 58.234985 
L 74.011636 58.985475 
L 75.342545 59.98741 
L 76.673455 61.240876 
L 78.270545 63.077008 
L 79.867636 65.275273 
L 81.464727 67.590943 
L 82.795636 66.099274 
L 84.126545 64.912492 
L 85.457455 64.03049 
L 86.788364 63.453419 
L 87.853091 63.211285 
L 88.917818 63.164214 
L 89.982545 63.312295 
L 91.047273 63.655526 
L 92.112 64.1938 
L 93.442909 65.141061 
L 94.773818 66.393209 
L 96.104727 67.95016 
L 97.701818 70.220985 
L 99.298909 72.930845 
L 100.896 76.079675 
L 102.759273 80.308208 
L 104.622545 85.134246 
L 106.485818 90.557833 
L 108.615273 97.48793 
L 110.744727 105.198457 
L 113.140364 114.805731 
L 115.536 125.400769 
L 117.931636 136.983593 
L 120.593455 151.011871 
L 123.255273 166.259615 
L 126.183273 184.440667 
L 129.111273 204.097275 
L 130.708364 215.44101 
L 131.773091 217.765904 
L 135.499636 225.299513 
L 139.226182 232.311427 
L 142.686545 238.355385 
L 146.146909 243.949487 
L 149.341091 248.714013 
L 152.535273 253.09527 
L 155.729455 257.093235 
L 158.657455 260.421329 
L 161.585455 263.427366 
L 164.513455 266.111331 
L 167.441455 268.473218 
L 170.103273 270.340938 
L 172.765091 271.942458 
L 175.426909 273.277827 
L 178.088727 274.347009 
L 180.484364 275.081703 
L 182.88 275.600794 
L 185.275636 275.904294 
L 187.671273 275.992197 
L 190.066909 275.864498 
L 192.462545 275.521197 
L 194.858182 274.962304 
L 197.253818 274.187804 
L 199.649455 273.197717 
L 202.311273 271.844753 
L 204.973091 270.225622 
L 207.634909 268.340313 
L 210.296727 266.188849 
L 213.224727 263.514794 
L 216.152727 260.518666 
L 219.080727 257.200488 
L 222.008727 253.560228 
L 225.202909 249.221753 
L 228.397091 244.499955 
L 231.591273 239.394908 
L 234.785455 234.202935 
L 240.375273 242.280391 
L 245.698909 249.595129 
L 251.022545 256.541072 
L 256.346182 263.118185 
L 261.403636 269.024869 
L 266.461091 274.598659 
L 271.518545 279.839592 
L 276.309818 284.497682 
L 281.101091 288.857034 
L 285.892364 292.917623 
L 290.683636 296.679481 
L 295.208727 299.958057 
L 299.733818 302.970159 
L 304.258909 305.715802 
L 308.784 308.194969 
L 313.042909 310.284879 
L 317.301818 312.13877 
L 321.560727 313.756603 
L 325.819636 315.138413 
L 330.078545 316.284168 
L 330.877091 316.472722 
L 331.143273 316.252219 
L 340.459636 290.520832 
L 349.776 264.129905 
L 359.092364 237.079324 
L 368.674909 208.567866 
L 378.257455 179.358605 
L 388.106182 148.610852 
L 397.954909 117.125981 
L 407.803636 84.904078 
L 417.918545 51.044046 
L 426.436364 21.927273 
L 426.436364 21.927273 
" clip-path="url(#p2d348f090c)" style="fill: none; stroke-dasharray: 11.1,4.8; stroke-dashoffset: 0; stroke: #000000; stroke-width: 3"/>
   </g>
   <g id="line2d_2">
    <path d="M 27.163636 183.946461 
L 30.357818 165.527681 
L 33.285818 149.916379 
L 36.213818 135.522274 
L 38.875636 123.493006 
L 41.537455 112.469712 
L 43.933091 103.408791 
L 46.328727 95.162733 
L 48.724364 87.731517 
L 50.853818 81.810052 
L 52.983273 76.532406 
L 54.846545 72.442579 
L 56.709818 68.845684 
L 58.573091 65.74172 
L 60.170182 63.473509 
L 61.767273 61.567409 
L 63.364364 60.023485 
L 64.695273 59.013514 
L 66.026182 58.255031 
L 67.357091 57.74808 
L 68.688 57.492574 
L 70.018909 57.488556 
L 71.349818 57.736069 
L 72.680727 58.235028 
L 74.011636 58.985518 
L 75.342545 59.987453 
L 76.673455 61.240919 
L 78.270545 63.077051 
L 79.867636 65.275316 
L 81.464727 67.590986 
L 82.795636 66.099317 
L 84.126545 64.912535 
L 85.457455 64.030533 
L 86.788364 63.453463 
L 87.853091 63.211328 
L 88.917818 63.164258 
L 89.982545 63.312338 
L 91.047273 63.655569 
L 92.112 64.193843 
L 93.442909 65.141104 
L 94.773818 66.393253 
L 96.104727 67.950203 
L 97.701818 70.221028 
L 99.298909 72.930888 
L 100.896 76.079719 
L 102.759273 80.308251 
L 104.622545 85.134267 
L 106.485818 90.557854 
L 108.615273 97.487952 
L 110.744727 105.198479 
L 113.140364 114.805753 
L 115.536 125.400791 
L 117.931636 136.983615 
L 120.593455 151.011893 
L 123.255273 166.259636 
L 126.183273 184.440689 
L 129.111273 204.097296 
L 130.708364 215.441031 
L 131.773091 217.765915 
L 135.499636 225.299523 
L 139.226182 232.311438 
L 142.686545 238.355396 
L 146.146909 243.949497 
L 149.341091 248.714024 
L 152.535273 253.095281 
L 155.729455 257.093246 
L 158.657455 260.421339 
L 161.585455 263.427377 
L 164.513455 266.111342 
L 167.441455 268.473229 
L 170.103273 270.340948 
L 172.765091 271.942469 
L 175.426909 273.277838 
L 178.088727 274.34702 
L 180.484364 275.081713 
L 182.88 275.600805 
L 185.275636 275.904305 
L 187.671273 275.992208 
L 190.066909 275.864509 
L 192.462545 275.521207 
L 194.858182 274.962315 
L 197.253818 274.187814 
L 199.649455 273.197728 
L 202.311273 271.844764 
L 204.973091 270.225633 
L 207.634909 268.340324 
L 210.296727 266.18886 
L 213.224727 263.514805 
L 216.152727 260.518677 
L 219.080727 257.200499 
L 222.008727 253.560238 
L 225.202909 249.221764 
L 228.397091 244.499965 
L 231.591273 239.394918 
L 234.785455 234.202946 
L 240.375273 242.280401 
L 245.698909 249.59514 
L 251.022545 256.541082 
L 256.346182 263.118195 
L 261.403636 269.02488 
L 266.461091 274.59867 
L 271.518545 279.839603 
L 276.309818 284.497692 
L 281.101091 288.85704 
L 285.892364 292.917628 
L 290.683636 296.679486 
L 295.208727 299.958062 
L 299.733818 302.970164 
L 304.258909 305.715808 
L 308.784 308.194974 
L 313.042909 310.284884 
L 317.301818 312.138776 
L 321.560727 313.756608 
L 325.819636 315.138419 
L 330.078545 316.284173 
L 330.877091 316.472727 
L 331.143273 316.252224 
L 340.459636 290.520838 
L 349.776 264.129916 
L 359.092364 237.079334 
L 368.674909 208.567887 
L 378.257455 179.358626 
L 388.106182 148.610874 
L 397.954909 117.126003 
L 407.803636 84.9041 
L 417.918545 51.044089 
L 426.436364 21.927316 
L 426.436364 21.927316 
" clip-path="url(#p2d348f090c)" style="fill: none; stroke-dasharray: 3,4.95; stroke-dashoffset: 0; stroke: #ff0000; stroke-width: 3"/>
   </g>
   <g id="line2d_3">
    <path d="M 27.163636 183.946472 
L 30.357818 165.527681 
L 33.285818 149.916379 
L 36.213818 135.522274 
L 38.875636 123.493006 
L 41.537455 112.469712 
L 43.933091 103.408791 
L 46.328727 95.162733 
L 48.724364 87.731517 
L 50.853818 81.810052 
L 52.983273 76.532406 
L 54.846545 72.442579 
L 56.709818 68.845684 
L 58.573091 65.74172 
L 60.170182 63.473509 
L 61.767273 61.567409 
L 63.364364 60.023485 
L 64.695273 59.013514 
L 66.026182 58.255031 
L 67.357091 57.74808 
L 68.688 57.492574 
L 70.018909 57.488556 
L 71.349818 57.736069 
L 72.680727 58.235028 
L 74.011636 58.985518 
L 75.342545 59.987453 
L 76.673455 61.240919 
L 78.270545 63.077051 
L 79.867636 65.275316 
L 81.464727 67.590986 
L 82.795636 66.099317 
L 84.126545 64.912535 
L 85.457455 64.030533 
L 86.788364 63.453463 
L 87.853091 63.211328 
L 88.917818 63.164258 
L 89.982545 63.312338 
L 91.047273 63.655569 
L 92.112 64.193843 
L 93.442909 65.141104 
L 94.773818 66.393253 
L 96.104727 67.950203 
L 97.701818 70.221028 
L 99.298909 72.930888 
L 100.896 76.079719 
L 102.759273 80.308251 
L 104.622545 85.134267 
L 106.485818 90.557854 
L 108.615273 97.487952 
L 110.744727 105.198479 
L 113.140364 114.805753 
L 115.536 125.400791 
L 117.931636 136.983615 
L 120.593455 151.011893 
L 123.255273 166.259636 
L 126.183273 184.440689 
L 129.111273 204.097296 
L 130.708364 215.441031 
L 131.773091 217.765915 
L 135.499636 225.299523 
L 139.226182 232.311438 
L 142.686545 238.355396 
L 146.146909 243.949497 
L 149.341091 248.714024 
L 152.535273 253.095281 
L 155.729455 257.093246 
L 158.657455 260.421339 
L 161.585455 263.427377 
L 164.513455 266.111342 
L 167.441455 268.473229 
L 170.103273 270.340948 
L 172.765091 271.942469 
L 175.426909 273.277838 
L 178.088727 274.34702 
L 180.484364 275.081713 
L 182.88 275.600805 
L 185.275636 275.904305 
L 187.671273 275.992208 
L 190.066909 275.864509 
L 192.462545 275.521207 
L 194.858182 274.962315 
L 197.253818 274.187814 
L 199.649455 273.197728 
L 202.311273 271.844764 
L 204.973091 270.225633 
L 207.634909 268.340324 
L 210.296727 266.18886 
L 213.224727 263.514805 
L 216.152727 260.518677 
L 219.080727 257.200499 
L 222.008727 253.560238 
L 225.202909 249.221764 
L 228.397091 244.499965 
L 231.591273 239.394918 
L 234.785455 234.202946 
L 240.375273 242.280401 
L 245.698909 249.59514 
L 251.022545 256.541082 
L 256.346182 263.118195 
L 261.403636 269.02488 
L 266.461091 274.59867 
L 271.518545 279.839603 
L 276.309818 284.497692 
L 281.101091 288.85704 
L 285.892364 292.917628 
L 290.683636 296.679486 
L 295.208727 299.958062 
L 299.733818 302.970164 
L 304.258909 305.715808 
L 308.784 308.194974 
L 313.042909 310.284884 
L 317.301818 312.138776 
L 321.560727 313.756608 
L 325.819636 315.138419 
L 330.078545 316.284173 
L 330.877091 316.472727 
L 331.143273 316.252224 
L 340.459636 290.520838 
L 349.776 264.129916 
L 359.092364 237.079345 
L 368.674909 208.567898 
L 378.257455 179.358626 
L 388.106182 148.610874 
L 397.954909 117.126003 
L 407.803636 84.9041 
L 417.918545 51.044089 
L 426.436364 21.927316 
L 426.436364 21.927316 
" clip-path="url(#p2d348f090c)" style="fill: none; stroke: #ff0000; stroke-width: 3; stroke-linecap: square"/>
   </g>
   <g id="patch_3">
    <path d="M 7.2 331.2 
L 7.2 7.2 
" style="fill: none; stroke: #000000; stroke-width: 0.8; stroke-linejoin: miter; stroke-linecap: square"/>
   </g>
   <g id="patch_4">
    <path d="M 446.4 331.2 
L 446.4 7.2 
" style="fill: none; stroke: #000000; stroke-width: 0.8; stroke-linejoin: miter; stroke-linecap: square"/>
   </g>
   <g id="patch_5">
    <path d="M 7.2 331.2 
L 446.4 331.2 
" style="fill: none; stroke: #000000; stroke-width: 0.8; stroke-linejoin: miter; stroke-linecap: square"/>
   </g>
   <g id="patch_6">
    <path d="M 7.2 7.2 
L 446.4 7.2 
" style="fill: none; stroke: #000000; stroke-width: 0.8; stroke-linejoin: miter; stroke-linecap: square"/>
   </g>
  </g>
 </g>
 <defs>
  <clipPath id="p2d348f090c">
   <rect x="7.2" y="7.2" width="439.2" height="324"/>
  </clipPath>
 </defs>
</svg>
