<?xml version="1.0" encoding="utf-8" standalone="no"?>
<!DOCTYPE svg PUBLIC "-//W3C//DTD SVG 1.1//EN"
  "http://www.w3.org/Graphics/SVG/1.1/DTD/svg11.dtd">
<svg xmlns:xlink="http://www.w3.org/1999/xlink" width="453.6pt" height="338.4pt" viewBox="0 0 453.6 338.4" xmlns="http://www.w3.org/2000/svg" version="1.1">
 <metadata>
  <rdf:RDF xmlns:dc="http://purl.org/dc/elements/1.1/" xmlns:cc="http://creativecommons.org/ns#" xmlns:rdf="http://www.w3.org/1999/02/22-rdf-syntax-ns#">
   <cc:Work>
    <dc:type rdf:resource="http://purl.org/dc/dcmitype/StillImage"/>
    <dc:date>2025-05-14T00:04:23.697169</dc:date>
    <dc:format>image/svg+xml</dc:format>
    <dc:creator>
     <cc:Agent>
      <dc:title>Matplotlib v3.10.1, https://matplotlib.org/</dc:title>
     </cc:Agent>
    </dc:creator>
   </cc:Work>
  </rdf:RDF>
 </metadata>
 <defs>
  <style type="text/css">*{stroke-linejoin: round; stroke-linecap: butt}</style>
 </defs>
 <g id="figure_1">
  <g id="patch_1">
   <path d="M 0 338.4 
L 453.6 338.4 
L 453.6 0 
L 0 0 
z
" style="fill: #ffffff"/>
  </g>
  <g id="axes_1">
   <g id="patch_2">
    <path d="M 7.2 331.2 
L 446.4 331.2 
L 446.4 7.2 
L 7.2 7.2 
z
" style="fill: #ffffff"/>
   </g>
   <g id="matplotlib.axis_1"/>
   <g id="matplotlib.axis_2"/>
   <g id="line2d_1">
    <path d="M 27.163636 222.910161 
L 93.176727 48.679562 
L 93.442909 48.551853 
L 135.233455 316.472727 
L 136.032 313.551085 
L 211.627636 22.262519 
L 211.893818 21.927273 
L 281.899636 145.222341 
L 348.711273 192.327097 
L 348.977455 191.869889 
L 388.904727 69.958129 
L 389.170909 69.631326 
L 426.436364 143.20501 
L 426.436364 143.20501 
" clip-path="url(#p896da104f8)" style="fill: none; stroke-dasharray: 11.1,4.8; stroke-dashoffset: 0; stroke: #000000; stroke-width: 3"/>
   </g>
   <g id="line2d_2">
    <path d="M 27.163636 137.024355 
L 30.357818 148.460627 
L 31.422545 151.08736 
L 32.221091 152.520265 
L 33.019636 153.542316 
L 33.818182 154.211011 
L 34.616727 154.574201 
L 35.415273 154.661954 
L 36.213818 154.489279 
L 37.012364 154.064781 
L 37.810909 153.405293 
L 38.875636 152.225164 
L 42.336 148.02213 
L 43.400727 147.201242 
L 44.731636 146.4942 
L 46.861091 145.445021 
L 48.192 144.533765 
L 49.789091 143.138609 
L 51.652364 141.192691 
L 54.314182 138.040633 
L 56.443636 135.604061 
L 57.508364 134.672023 
L 58.306909 134.196077 
L 59.105455 133.934477 
L 60.170182 133.863773 
L 62.299636 133.85996 
L 63.098182 133.599231 
L 63.896727 133.117756 
L 64.961455 132.170766 
L 66.558545 130.375026 
L 69.486545 127.064129 
L 71.349818 125.31232 
L 72.946909 124.106699 
L 76.407273 121.65019 
L 77.472 120.562391 
L 78.802909 118.868431 
L 83.061818 113.063385 
L 84.126545 112.058846 
L 85.191273 111.317513 
L 86.256 110.838163 
L 87.320727 110.608401 
L 88.385455 110.595192 
L 89.982545 110.830782 
L 91.845818 111.087997 
L 92.910545 111.040198 
L 93.975273 110.791481 
L 95.572364 110.126082 
L 96.903273 109.609445 
L 97.701818 109.538932 
L 98.234182 109.680585 
L 98.766545 110.027025 
L 99.298909 110.62191 
L 99.831273 111.502009 
L 100.629818 113.410424 
L 101.428364 116.04402 
L 102.493091 120.584615 
L 103.824 127.480156 
L 106.485818 142.946951 
L 110.478545 167.346717 
L 113.672727 188.185671 
L 117.399273 214.133223 
L 121.125818 240.052912 
L 122.722909 249.456329 
L 124.053818 256.04781 
L 125.384727 261.612744 
L 126.715636 266.300222 
L 128.046545 270.2422 
L 129.909818 274.94109 
L 132.305455 280.442293 
L 133.370182 282.449247 
L 134.168727 283.493387 
L 134.701091 283.873327 
L 135.233455 283.94237 
L 135.765818 283.654405 
L 136.298182 282.967654 
L 136.830545 281.845428 
L 137.362909 280.258042 
L 138.161455 276.965448 
L 138.96 272.583311 
L 140.024727 265.23432 
L 141.621818 252.153303 
L 144.283636 230.161239 
L 148.542545 198.032269 
L 152.535273 166.677397 
L 154.398545 152.819232 
L 155.729455 144.43961 
L 157.060364 137.590506 
L 158.391273 132.036738 
L 159.988364 126.494573 
L 161.851636 120.950283 
L 163.182545 117.578487 
L 164.247273 115.356043 
L 165.312 113.621828 
L 166.376727 112.360265 
L 167.441455 111.490461 
L 168.506182 110.908976 
L 169.837091 110.461164 
L 171.168 110.23429 
L 172.765091 110.177667 
L 175.160727 110.350968 
L 179.952 110.947787 
L 181.016727 111.342353 
L 181.815273 111.842729 
L 182.613818 112.595473 
L 183.412364 113.674802 
L 184.210909 115.148996 
L 185.009455 117.062586 
L 186.074182 120.286383 
L 187.671273 126.094969 
L 189.268364 131.694793 
L 190.066909 133.862847 
L 190.865455 135.396932 
L 191.397818 136.033216 
L 191.930182 136.358657 
L 192.462545 136.385539 
L 192.994909 136.133389 
L 193.527273 135.625223 
L 194.325818 134.433846 
L 195.124364 132.793459 
L 196.189091 130.037329 
L 197.786182 125.145092 
L 199.649455 119.503897 
L 200.714182 116.865235 
L 201.778909 114.827886 
L 202.577455 113.687766 
L 203.376 112.836238 
L 204.440727 112.048033 
L 205.771636 111.391268 
L 207.634909 110.482081 
L 208.699636 109.69867 
L 209.764364 108.6161 
L 210.829091 107.207762 
L 211.893818 105.470034 
L 213.224727 102.84706 
L 214.821818 99.15399 
L 217.749818 92.226882 
L 219.080727 89.672733 
L 220.411636 87.601148 
L 222.008727 85.548384 
L 224.404364 82.865273 
L 226.267636 81.100962 
L 227.864727 79.901959 
L 230.260364 78.144758 
L 231.325091 77.045792 
L 232.389818 75.612915 
L 233.720727 73.390852 
L 236.382545 68.777156 
L 237.447273 67.487703 
L 238.245818 66.872364 
L 239.044364 66.572143 
L 239.842909 66.571517 
L 240.641455 66.844556 
L 241.44 67.368301 
L 242.238545 68.131394 
L 243.303273 69.519823 
L 244.368 71.331142 
L 245.698909 74.128071 
L 247.828364 79.327174 
L 250.490182 85.705562 
L 252.353455 89.536173 
L 253.950545 92.275526 
L 255.281455 94.13911 
L 256.612364 95.633432 
L 257.943273 96.815249 
L 259.540364 97.934914 
L 261.403636 98.958736 
L 263.000727 99.610871 
L 264.597818 100.032836 
L 266.727273 100.323143 
L 270.453818 100.594548 
L 271.784727 100.513494 
L 273.115636 100.202188 
L 274.446545 99.640204 
L 276.309818 98.562074 
L 280.036364 96.340882 
L 281.899636 95.495918 
L 283.496727 95.019209 
L 284.827636 94.827578 
L 286.158545 94.83534 
L 287.489455 95.059409 
L 288.820364 95.498451 
L 293.079273 97.148261 
L 294.676364 97.370043 
L 296.805818 97.671162 
L 297.870545 98.066055 
L 298.935273 98.736111 
L 300 99.715538 
L 301.064727 101.012563 
L 302.129455 102.64606 
L 303.194182 104.677036 
L 304.258909 107.198311 
L 305.323636 110.27321 
L 306.654545 114.823256 
L 311.445818 132.032708 
L 313.575273 138.377268 
L 315.438545 143.331684 
L 317.035636 147.008467 
L 318.898909 150.675718 
L 323.424 159.258301 
L 326.085818 164.879205 
L 327.682909 168.69293 
L 329.013818 172.42827 
L 330.344727 176.87068 
L 331.941818 183.143038 
L 336.466909 201.80239 
L 338.064 207.055719 
L 341.790545 218.083018 
L 343.121455 221.605428 
L 343.92 223.208965 
L 344.452364 223.942726 
L 344.984727 224.349493 
L 345.517091 224.39672 
L 346.049455 224.073921 
L 346.581818 223.396593 
L 347.380364 221.8146 
L 348.445091 219.035047 
L 350.042182 214.843424 
L 350.840727 213.244354 
L 351.639273 212.1035 
L 352.437818 211.376276 
L 353.236364 210.942736 
L 355.898182 209.77361 
L 356.696727 209.083726 
L 357.495273 208.124508 
L 358.293818 206.866076 
L 359.358545 204.696524 
L 360.423273 201.953794 
L 361.488 198.627372 
L 362.552727 194.680382 
L 363.883636 188.770778 
L 365.214545 181.727129 
L 367.610182 167.353227 
L 369.207273 158.356713 
L 370.538182 152.011417 
L 371.869091 146.667801 
L 373.466182 141.234198 
L 374.797091 137.419084 
L 376.128 134.31044 
L 377.192727 132.340309 
L 378.257455 130.767603 
L 379.588364 129.194298 
L 383.048727 125.374745 
L 386.242909 121.371622 
L 387.041455 120.723572 
L 387.84 120.375417 
L 388.372364 120.331594 
L 388.904727 120.442498 
L 389.703273 120.885271 
L 390.501818 121.613149 
L 391.832727 123.240545 
L 395.026909 127.355797 
L 397.422545 130.322324 
L 399.019636 132.703472 
L 401.415273 136.362933 
L 402.746182 137.942339 
L 404.077091 139.122086 
L 413.393455 146.370032 
L 414.990545 147.938162 
L 416.055273 149.259836 
L 417.386182 151.296559 
L 419.781818 155.1449 
L 420.314182 155.694111 
L 420.846545 155.98006 
L 421.378909 155.919896 
L 421.911273 155.432075 
L 422.443636 154.444994 
L 422.976 152.907476 
L 423.774545 149.535435 
L 424.573091 144.993587 
L 425.904 135.792587 
L 426.436364 131.99485 
L 426.436364 131.99485 
" clip-path="url(#p896da104f8)" style="fill: none; stroke-dasharray: 3,4.95; stroke-dashoffset: 0; stroke: #0000ff; stroke-width: 3"/>
   </g>
   <g id="line2d_3">
    <path d="M 27.163636 137.595981 
L 29.559273 144.364739 
L 30.624 146.643643 
L 31.422545 147.904608 
L 32.221091 148.780294 
L 33.019636 149.287017 
L 33.818182 149.439102 
L 34.350545 149.348352 
L 35.149091 148.930064 
L 35.947636 148.183911 
L 36.746182 147.13111 
L 37.810909 145.32423 
L 39.940364 141.026579 
L 41.271273 138.605504 
L 42.336 137.155005 
L 43.400727 136.166072 
L 44.731636 135.323232 
L 46.062545 134.45046 
L 47.127273 133.453792 
L 48.192 132.085491 
L 49.256727 130.332865 
L 50.587636 127.63856 
L 52.184727 123.787604 
L 56.709818 112.328834 
L 57.508364 111.069041 
L 58.040727 110.533993 
L 58.573091 110.273945 
L 59.105455 110.293637 
L 59.637818 110.572368 
L 60.436364 111.367028 
L 62.299636 113.58999 
L 62.832 113.953942 
L 63.364364 114.09595 
L 63.896727 114.001959 
L 64.429091 113.683055 
L 65.227636 112.853832 
L 66.292364 111.328735 
L 69.220364 106.898145 
L 70.551273 105.314817 
L 71.616 104.330896 
L 72.680727 103.627231 
L 73.745455 103.198593 
L 74.810182 102.995713 
L 80.133818 102.559531 
L 80.932364 102.688248 
L 81.730909 103.069577 
L 82.529455 103.772724 
L 83.328 104.833833 
L 84.126545 106.255325 
L 85.191273 108.664852 
L 86.522182 112.346865 
L 90.781091 124.873006 
L 91.579636 126.377214 
L 92.378182 127.356914 
L 92.910545 127.691833 
L 93.442909 127.762047 
L 93.975273 127.565268 
L 94.507636 127.104438 
L 95.04 126.387809 
L 95.838545 124.869193 
L 96.903273 122.168188 
L 99.565091 114.707176 
L 100.363636 113.230341 
L 100.896 112.634066 
L 101.428364 112.389053 
L 101.960727 112.509626 
L 102.493091 112.994751 
L 103.025455 113.830373 
L 103.824 115.690336 
L 104.622545 118.200771 
L 105.687273 122.423361 
L 107.018182 128.912216 
L 108.615273 138.158292 
L 110.478545 150.419565 
L 112.341818 164.056983 
L 114.205091 179.450513 
L 116.068364 196.734509 
L 118.730182 223.712529 
L 121.125818 247.574783 
L 122.722909 261.299287 
L 124.053818 270.932139 
L 125.384727 278.999093 
L 126.715636 285.599071 
L 127.780364 289.889069 
L 129.111273 294.275618 
L 131.506909 301.06483 
L 133.104 305.219643 
L 133.902545 306.811755 
L 134.434909 307.534498 
L 134.967273 307.899459 
L 135.233455 307.925442 
L 135.499636 307.835809 
L 136.032 307.277365 
L 136.564364 306.166157 
L 137.096727 304.452314 
L 137.629091 302.099506 
L 138.427636 297.338968 
L 139.226182 291.153057 
L 140.290909 281.057073 
L 145.614545 226.608869 
L 154.398545 148.772777 
L 155.463273 141.987677 
L 156.261818 138.17752 
L 157.060364 135.363296 
L 157.858909 133.295933 
L 159.189818 130.617479 
L 160.520727 127.766841 
L 161.851636 124.278203 
L 163.448727 120.060298 
L 164.247273 118.419884 
L 165.045818 117.287581 
L 165.578182 116.834921 
L 166.110545 116.612187 
L 166.642909 116.594429 
L 167.175273 116.750518 
L 167.973818 117.241689 
L 169.038545 118.248434 
L 170.103273 119.563652 
L 171.434182 121.588473 
L 174.628364 126.789428 
L 175.426909 127.481627 
L 175.959273 127.638424 
L 176.491636 127.501972 
L 177.024 127.041659 
L 177.556364 126.241307 
L 178.354909 124.413129 
L 179.153455 121.924237 
L 180.484364 116.88253 
L 182.081455 111.041369 
L 182.88 108.886062 
L 183.412364 107.87869 
L 183.944727 107.256051 
L 184.477091 107.032009 
L 185.009455 107.201525 
L 185.541818 107.740985 
L 186.074182 108.610462 
L 186.872727 110.406802 
L 190.066909 118.560094 
L 190.865455 119.642745 
L 191.397818 120.013561 
L 191.930182 120.103412 
L 192.462545 119.926352 
L 192.994909 119.502127 
L 193.793455 118.449407 
L 194.592 116.953561 
L 195.656727 114.361172 
L 196.987636 110.370469 
L 199.649455 102.022359 
L 200.714182 99.561057 
L 201.512727 98.29519 
L 202.045091 97.748594 
L 202.577455 97.438023 
L 203.109818 97.352775 
L 203.642182 97.47471 
L 204.440727 97.99102 
L 205.239273 98.808258 
L 208.167273 102.153908 
L 208.965818 102.622419 
L 209.764364 102.777963 
L 210.562909 102.620649 
L 211.361455 102.170685 
L 212.16 101.45362 
L 213.224727 100.125002 
L 214.555636 97.967706 
L 218.814545 90.462109 
L 220.145455 88.760687 
L 222.008727 86.772416 
L 224.404364 84.509364 
L 225.735273 83.535655 
L 226.8 83.02847 
L 227.864727 82.798844 
L 228.929455 82.820688 
L 230.526545 83.149778 
L 232.656 83.60557 
L 233.986909 83.658652 
L 235.584 83.459286 
L 237.979636 82.880334 
L 240.907636 81.936912 
L 242.238545 81.618471 
L 243.037091 81.613323 
L 243.835636 81.83091 
L 244.634182 82.318404 
L 245.432727 83.090458 
L 246.497455 84.521184 
L 247.828364 86.770292 
L 252.619636 95.32534 
L 253.950545 97.164358 
L 255.015273 98.328281 
L 256.08 99.192964 
L 257.144727 99.773006 
L 258.209455 100.119337 
L 259.806545 100.362607 
L 262.734545 100.510498 
L 264.864 100.42732 
L 269.921455 100.034688 
L 271.784727 99.969867 
L 272.849455 99.734032 
L 273.914182 99.272874 
L 275.245091 98.422054 
L 277.108364 97.182878 
L 277.906909 96.84834 
L 278.705455 96.72755 
L 279.504 96.85436 
L 280.302545 97.231821 
L 281.101091 97.837083 
L 282.165818 98.93545 
L 283.496727 100.673259 
L 284.827636 102.797954 
L 285.892364 104.866597 
L 286.957091 107.393701 
L 288.021818 110.48919 
L 289.352727 115.183695 
L 293.079273 129.240871 
L 293.877818 131.267054 
L 294.676364 132.707938 
L 295.474909 133.608355 
L 296.273455 134.089885 
L 297.338182 134.364776 
L 299.201455 134.77906 
L 301.597091 135.504132 
L 302.395636 135.404204 
L 303.194182 134.985726 
L 303.992727 134.263268 
L 307.186909 130.905553 
L 307.985455 130.617506 
L 308.784 130.647166 
L 309.582545 130.954904 
L 310.381091 131.489679 
L 311.445818 132.488772 
L 312.776727 134.124583 
L 314.64 136.902665 
L 316.769455 140.031491 
L 318.898909 142.6893 
L 321.028364 145.445838 
L 325.553455 151.965171 
L 326.618182 153.787058 
L 327.682909 156.098944 
L 328.747636 159.135086 
L 329.812364 163.041903 
L 330.877091 167.820621 
L 332.474182 176.232326 
L 335.934545 195.008002 
L 337.797818 203.549677 
L 340.459636 214.48432 
L 342.322909 221.537175 
L 343.387636 224.772466 
L 344.186182 226.44224 
L 344.718545 227.076563 
L 345.250909 227.274867 
L 345.783273 227.017488 
L 346.315636 226.313714 
L 346.848 225.204753 
L 347.646545 222.942517 
L 350.574545 213.628407 
L 351.373091 211.964815 
L 352.171636 210.806175 
L 352.970182 210.039241 
L 354.301091 209.198062 
L 355.365818 208.498919 
L 356.164364 207.750206 
L 356.962909 206.689778 
L 357.761455 205.236801 
L 358.56 203.34342 
L 359.624727 200.125398 
L 360.689455 196.193197 
L 362.020364 190.454171 
L 363.617455 182.445991 
L 364.948364 174.683533 
L 366.811636 162.328079 
L 368.941091 148.403813 
L 370.272 141.236894 
L 371.336727 136.563143 
L 372.401455 132.737244 
L 373.466182 129.719813 
L 374.264727 128.048922 
L 374.797091 127.262841 
L 375.329455 126.769192 
L 375.861818 126.586222 
L 376.394182 126.72093 
L 376.926545 127.165065 
L 377.458909 127.894223 
L 378.257455 129.432203 
L 379.588364 132.693612 
L 381.185455 136.489389 
L 381.984 137.89661 
L 382.782545 138.835756 
L 383.314909 139.193199 
L 383.847273 139.35005 
L 384.379636 139.332129 
L 385.178182 139.051001 
L 386.242909 138.392901 
L 391.300364 134.703236 
L 392.631273 133.256441 
L 396.357818 128.833123 
L 397.156364 128.358239 
L 397.688727 128.229169 
L 398.221091 128.260871 
L 399.019636 128.598432 
L 399.818182 129.226028 
L 401.415273 130.89425 
L 402.746182 132.168723 
L 404.077091 133.122304 
L 406.206545 134.555999 
L 407.537455 135.766386 
L 411.796364 139.943083 
L 413.659636 141.678169 
L 414.724364 142.935049 
L 415.789091 144.491713 
L 417.12 146.828248 
L 419.515636 151.174215 
L 420.314182 152.233662 
L 420.846545 152.701655 
L 421.378909 152.916274 
L 421.911273 152.820376 
L 422.443636 152.358783 
L 422.976 151.485793 
L 423.508364 150.172672 
L 424.306909 147.381053 
L 425.371636 142.375407 
L 426.436364 136.629218 
L 426.436364 136.629218 
" clip-path="url(#p896da104f8)" style="fill: none; stroke: #0000ff; stroke-width: 3; stroke-linecap: square"/>
   </g>
   <g id="patch_3">
    <path d="M 7.2 331.2 
L 7.2 7.2 
" style="fill: none; stroke: #000000; stroke-width: 0.8; stroke-linejoin: miter; stroke-linecap: square"/>
   </g>
   <g id="patch_4">
    <path d="M 446.4 331.2 
L 446.4 7.2 
" style="fill: none; stroke: #000000; stroke-width: 0.8; stroke-linejoin: miter; stroke-linecap: square"/>
   </g>
   <g id="patch_5">
    <path d="M 7.2 331.2 
L 446.4 331.2 
" style="fill: none; stroke: #000000; stroke-width: 0.8; stroke-linejoin: miter; stroke-linecap: square"/>
   </g>
   <g id="patch_6">
    <path d="M 7.2 7.2 
L 446.4 7.2 
" style="fill: none; stroke: #000000; stroke-width: 0.8; stroke-linejoin: miter; stroke-linecap: square"/>
   </g>
  </g>
 </g>
 <defs>
  <clipPath id="p896da104f8">
   <rect x="7.2" y="7.2" width="439.2" height="324"/>
  </clipPath>
 </defs>
</svg>
