<?xml version="1.0" encoding="utf-8" standalone="no"?>
<!DOCTYPE svg PUBLIC "-//W3C//DTD SVG 1.1//EN"
  "http://www.w3.org/Graphics/SVG/1.1/DTD/svg11.dtd">
<svg xmlns:xlink="http://www.w3.org/1999/xlink" width="453.6pt" height="338.4pt" viewBox="0 0 453.6 338.4" xmlns="http://www.w3.org/2000/svg" version="1.1">
 <metadata>
  <rdf:RDF xmlns:dc="http://purl.org/dc/elements/1.1/" xmlns:cc="http://creativecommons.org/ns#" xmlns:rdf="http://www.w3.org/1999/02/22-rdf-syntax-ns#">
   <cc:Work>
    <dc:type rdf:resource="http://purl.org/dc/dcmitype/StillImage"/>
    <dc:date>2025-05-14T08:58:16.108126</dc:date>
    <dc:format>image/svg+xml</dc:format>
    <dc:creator>
     <cc:Agent>
      <dc:title>Matplotlib v3.10.1, https://matplotlib.org/</dc:title>
     </cc:Agent>
    </dc:creator>
   </cc:Work>
  </rdf:RDF>
 </metadata>
 <defs>
  <style type="text/css">*{stroke-linejoin: round; stroke-linecap: butt}</style>
 </defs>
 <g id="figure_1">
  <g id="patch_1">
   <path d="M 0 338.4 
L 453.6 338.4 
L 453.6 0 
L 0 0 
z
" style="fill: #ffffff"/>
  </g>
  <g id="axes_1">
   <g id="patch_2">
    <path d="M 7.2 331.2 
L 446.4 331.2 
L 446.4 7.2 
L 7.2 7.2 
z
" style="fill: #ffffff"/>
   </g>
   <g id="matplotlib.axis_1"/>
   <g id="matplotlib.axis_2"/>
   <g id="line2d_1">
    <path d="M 27.163636 234.574528 
L 29.026909 218.640976 
L 30.624 206.565079 
L 32.221091 196.1905 
L 33.552 189.009717 
L 34.616727 184.319139 
L 35.681455 180.638968 
L 36.48 178.582664 
L 37.278545 177.161497 
L 37.810909 176.580967 
L 38.343273 176.303913 
L 38.875636 176.338762 
L 39.408 176.694036 
L 39.940364 177.378178 
L 40.472727 178.399664 
L 41.271273 180.582971 
L 42.069818 183.572973 
L 42.868364 187.398282 
L 43.933091 193.847519 
L 44.997818 201.900404 
L 46.062545 211.624744 
L 47.393455 226.233928 
L 48.724364 243.693075 
L 50.055273 264.134697 
L 51.386182 287.691165 
L 52.983273 316.472727 
L 55.645091 281.770181 
L 58.040727 253.214687 
L 60.436364 227.150494 
L 62.832 203.534711 
L 64.961455 184.563531 
L 67.090909 167.462753 
L 69.220364 152.202108 
L 71.083636 140.334937 
L 72.946909 129.833271 
L 74.810182 120.676991 
L 76.407273 113.884181 
L 78.004364 108.052215 
L 79.335273 103.917024 
L 80.666182 100.432897 
L 81.997091 97.592398 
L 83.061818 95.778475 
L 84.126545 94.368063 
L 85.191273 93.357285 
L 85.989818 92.859248 
L 86.788364 92.582305 
L 87.586909 92.524881 
L 88.385455 92.685398 
L 89.184 93.062227 
L 89.982545 93.653826 
L 91.047273 94.773872 
L 92.112 96.269133 
L 93.176727 98.135752 
L 94.507636 100.98554 
L 95.838545 104.402379 
L 97.169455 108.378888 
L 98.766545 113.879064 
L 100.363636 120.161859 
L 102.226909 128.463799 
L 104.090182 137.793446 
L 106.219636 149.688207 
L 108.349091 162.868612 
L 109.68 171.481853 
L 112.608 158.430223 
L 115.269818 147.506523 
L 117.931636 137.521417 
L 120.327273 129.370928 
L 122.722909 122.043219 
L 124.852364 116.24448 
L 126.715636 111.739395 
L 128.578909 107.779908 
L 130.442182 104.379906 
L 132.039273 101.921501 
L 133.636364 99.893252 
L 134.967273 98.537834 
L 136.298182 97.492309 
L 137.629091 96.761719 
L 138.693818 96.407419 
L 139.758545 96.260474 
L 140.823273 96.323591 
L 141.888 96.599328 
L 142.952727 97.090245 
L 144.017455 97.799012 
L 145.348364 98.995228 
L 146.679273 100.540885 
L 148.010182 102.441158 
L 149.341091 104.701071 
L 150.938182 107.894831 
L 152.535273 111.622618 
L 154.132364 115.893091 
L 155.995636 121.573124 
L 157.858909 128.017754 
L 159.722182 135.240997 
L 161.851636 144.46744 
L 163.981091 154.749847 
L 166.110545 166.109051 
L 168.506182 180.201155 
L 170.901818 195.712015 
L 173.297455 212.671373 
L 175.959273 233.249835 
L 178.621091 255.69372 
L 181.282909 280.043774 
L 181.549091 282.585093 
L 182.081455 283.815257 
L 182.88 285.020603 
L 183.678545 285.727089 
L 184.210909 285.933788 
L 184.743273 285.938059 
L 185.275636 285.747619 
L 185.808 285.370184 
L 186.606545 284.470273 
L 187.405091 283.19301 
L 188.469818 280.948028 
L 189.534545 278.140173 
L 190.865455 273.932909 
L 192.462545 268.020346 
L 194.325818 260.194605 
L 196.987636 247.910185 
L 202.311273 223.010241 
L 204.174545 215.314947 
L 205.771636 209.553487 
L 207.102545 205.499843 
L 208.167273 202.833046 
L 209.232 200.745156 
L 210.030545 199.596343 
L 210.829091 198.833934 
L 211.361455 198.55319 
L 211.893818 198.463466 
L 212.426182 198.572511 
L 212.958545 198.888012 
L 213.490909 199.417672 
L 214.289455 200.630613 
L 215.088 202.36882 
L 215.886545 204.658381 
L 216.685091 207.525274 
L 217.749818 212.290976 
L 218.814545 218.191028 
L 219.879273 225.287296 
L 221.210182 235.933682 
L 222.541091 248.666011 
L 224.138182 264.373012 
L 226.8 260.972797 
L 229.461818 257.184697 
L 232.123636 252.992759 
L 234.785455 248.381011 
L 237.447273 243.333472 
L 240.109091 237.834223 
L 243.037091 231.24416 
L 245.965091 224.067058 
L 248.893091 216.281447 
L 251.821091 207.86627 
L 254.749091 198.800169 
L 257.943273 188.142528 
L 261.137455 176.657452 
L 264.331636 164.317221 
L 267.525818 151.094337 
L 270.72 136.961209 
L 274.180364 120.591216 
L 277.640727 103.08538 
L 281.101091 84.408749 
L 284.561455 64.52639 
L 285.36 59.763257 
L 285.892364 58.44357 
L 286.690909 57.095421 
L 287.489455 56.13237 
L 288.288 55.542476 
L 289.086545 55.313557 
L 289.618909 55.355647 
L 290.417455 55.701733 
L 291.216 56.376623 
L 292.014545 57.368377 
L 293.079273 59.162757 
L 294.144 61.470285 
L 295.474909 65.032771 
L 296.805818 69.296699 
L 298.402909 75.260312 
L 300.266182 83.26408 
L 302.395636 93.602799 
L 304.791273 106.480024 
L 307.719273 123.55157 
L 312.244364 151.507526 
L 317.568 184.196475 
L 320.496 200.864372 
L 322.891636 213.273171 
L 325.021091 223.091844 
L 326.884364 230.560082 
L 328.481455 236.005152 
L 329.546182 239.09414 
L 329.812364 237.544839 
L 331.409455 215.734209 
L 332.740364 200.25703 
L 334.071273 187.064221 
L 335.402182 175.997785 
L 336.733091 166.899745 
L 337.797818 160.932293 
L 338.862545 156.042611 
L 339.927273 152.149652 
L 340.992 149.172537 
L 341.790545 147.492153 
L 342.589091 146.247264 
L 343.387636 145.40379 
L 344.186182 144.927596 
L 344.984727 144.784526 
L 345.783273 144.940482 
L 346.581818 145.361366 
L 347.380364 146.012912 
L 348.445091 147.181612 
L 349.776 149.010684 
L 351.905455 152.415878 
L 354.567273 156.628352 
L 355.898182 158.352791 
L 356.962909 159.404936 
L 357.761455 159.950014 
L 358.56 160.247947 
L 359.358545 160.264616 
L 360.157091 159.965886 
L 360.955636 159.317659 
L 361.754182 158.285725 
L 362.552727 156.836003 
L 363.351273 154.934377 
L 364.149818 152.546729 
L 365.214545 148.547969 
L 366.279273 143.543605 
L 367.344 137.452645 
L 368.408727 130.194191 
L 369.739636 119.356025 
L 371.070545 106.408878 
L 372.401455 91.195255 
L 373.732364 73.556899 
L 374.530909 62.703233 
L 376.926545 79.65446 
L 379.322182 95.031327 
L 381.451636 107.347528 
L 383.581091 118.363214 
L 385.444364 126.914173 
L 387.307636 134.431344 
L 388.904727 140.038303 
L 390.501818 144.861401 
L 391.832727 148.273771 
L 393.163636 151.127527 
L 394.494545 153.416124 
L 395.559273 154.835752 
L 396.624 155.886266 
L 397.422545 156.429897 
L 398.221091 156.762577 
L 399.019636 156.882933 
L 399.818182 156.789556 
L 400.616727 156.481073 
L 401.415273 155.956057 
L 402.213818 155.213137 
L 403.278545 153.881064 
L 404.343273 152.155753 
L 405.408 150.033922 
L 406.738909 146.81882 
L 408.069818 142.972402 
L 409.400727 138.48814 
L 410.997818 132.255927 
L 412.594909 125.084638 
L 414.192 116.963129 
L 416.055273 106.272113 
L 417.918545 94.254456 
L 419.781818 80.892507 
L 421.911273 63.95285 
L 424.040727 45.207317 
L 426.436364 21.927273 
L 426.436364 21.927273 
" clip-path="url(#pb9b67a062f)" style="fill: none; stroke-dasharray: 11.1,4.8; stroke-dashoffset: 0; stroke: #000000; stroke-width: 3"/>
   </g>
   <g id="line2d_2">
    <path d="M 27.163636 124.477166 
L 28.228364 128.521391 
L 29.293091 131.66162 
L 30.357818 134.034249 
L 31.156364 135.383882 
L 31.954909 136.418875 
L 32.753455 137.184121 
L 33.552 137.72143 
L 34.616727 138.139606 
L 35.681455 138.299345 
L 37.012364 138.231129 
L 38.609455 137.903363 
L 45.264 135.977595 
L 46.594909 135.299126 
L 48.458182 134.02813 
L 49.789091 133.213545 
L 50.587636 132.981715 
L 51.12 133.026234 
L 51.652364 133.292033 
L 52.184727 133.838168 
L 52.717091 134.754827 
L 53.249455 136.096468 
L 54.314182 139.400237 
L 54.846545 140.51854 
L 55.378909 141.275682 
L 55.911273 141.707413 
L 56.443636 141.863221 
L 56.976 141.798176 
L 57.774545 141.429525 
L 59.105455 140.746235 
L 59.637818 140.703162 
L 60.170182 140.931822 
L 60.436364 141.185568 
L 62.299636 141.67643 
L 63.896727 142.299773 
L 65.227636 143.061384 
L 66.292364 143.920841 
L 67.357091 145.119839 
L 68.155636 146.33354 
L 68.954182 147.921844 
L 69.752727 149.997135 
L 70.551273 152.721969 
L 71.349818 156.316865 
L 72.148364 161.072081 
L 73.213091 167.6098 
L 74.011636 171.145771 
L 74.544 172.691865 
L 75.076364 173.468606 
L 75.342545 173.521932 
L 75.608727 173.37318 
L 75.874909 172.965173 
L 76.407273 171.431197 
L 80.133818 154.695872 
L 84.392727 134.058317 
L 85.989818 127.604454 
L 87.320727 123.093454 
L 88.651636 119.431899 
L 89.716364 117.117102 
L 90.781091 115.342247 
L 91.313455 114.647442 
L 91.579636 114.695373 
L 92.378182 115.482016 
L 93.176727 115.952834 
L 93.709091 116.123976 
L 95.306182 133.022266 
L 96.637091 146.143578 
L 97.435636 152.341209 
L 98.234182 156.872605 
L 98.766545 158.904303 
L 99.298909 160.169088 
L 99.831273 160.747727 
L 100.097455 160.799255 
L 100.363636 160.730167 
L 100.896 160.264987 
L 101.960727 158.706794 
L 102.493091 158.012713 
L 103.025455 157.660175 
L 103.291636 157.674842 
L 103.557818 157.863858 
L 103.824 158.236199 
L 104.356364 159.658053 
L 104.888727 162.116809 
L 105.421091 165.758339 
L 105.953455 170.689184 
L 107.018182 183.218432 
L 107.550545 185.202534 
L 108.082909 186.507146 
L 108.615273 187.253849 
L 109.147636 187.522902 
L 109.68 187.431064 
L 112.874182 185.52369 
L 113.938909 184.462681 
L 115.003636 183.079961 
L 116.068364 181.374731 
L 117.399273 178.815894 
L 118.996364 175.237138 
L 125.384727 160.257514 
L 126.715636 157.947816 
L 126.981818 157.543416 
L 128.312727 154.362988 
L 129.377455 152.337186 
L 130.442182 150.853199 
L 130.974545 150.340717 
L 131.240727 150.295716 
L 131.506909 150.447259 
L 132.305455 151.41502 
L 133.370182 153.146876 
L 134.434909 155.299283 
L 136.032 159.108358 
L 138.96 166.269977 
L 139.758545 167.688706 
L 140.290909 168.332529 
L 140.823273 168.664421 
L 141.355636 168.571581 
L 141.621818 168.349968 
L 142.154182 167.45479 
L 142.686545 165.876924 
L 143.218909 163.467536 
L 143.751273 160.640702 
L 144.549818 158.106721 
L 145.348364 154.909494 
L 146.146909 150.951786 
L 147.211636 144.329395 
L 148.276364 135.99254 
L 148.542545 135.607201 
L 149.607273 138.817871 
L 150.938182 143.60802 
L 152.801455 151.307959 
L 156.528 167.051215 
L 158.125091 172.702211 
L 159.456 176.510118 
L 162.650182 184.077111 
L 164.247273 187.060076 
L 165.844364 189.467481 
L 167.175273 191.103893 
L 168.772364 192.68529 
L 170.369455 193.932033 
L 172.232727 195.052505 
L 174.362182 196.009113 
L 176.757818 196.819851 
L 177.024 197.84307 
L 177.822545 202.858662 
L 178.354909 205.298719 
L 178.887273 206.952485 
L 179.419636 207.796293 
L 179.685818 207.60749 
L 180.484364 198.839775 
L 181.549091 188.503114 
L 182.613818 180.608605 
L 183.412364 176.121673 
L 184.210909 172.74495 
L 185.009455 170.376122 
L 185.541818 169.311647 
L 186.074182 168.63416 
L 186.606545 168.30975 
L 187.138909 168.329201 
L 187.671273 168.660397 
L 188.203636 169.285845 
L 189.002182 170.746155 
L 189.800727 172.763084 
L 190.865455 176.251096 
L 191.930182 180.535578 
L 192.994909 185.041756 
L 193.527273 185.704112 
L 194.059636 185.943238 
L 194.858182 186.003982 
L 195.656727 185.753805 
L 196.455273 185.235835 
L 197.52 184.207544 
L 198.850909 182.516536 
L 200.980364 179.323823 
L 203.908364 174.984949 
L 205.505455 173.008125 
L 206.836364 171.665864 
L 208.167273 170.626744 
L 209.498182 169.894791 
L 210.829091 169.244617 
L 211.627636 168.492407 
L 212.958545 166.817808 
L 214.289455 165.145555 
L 215.088 164.496874 
L 215.620364 164.337098 
L 216.152727 164.478666 
L 216.685091 164.994262 
L 217.217455 165.954421 
L 217.749818 167.425234 
L 218.282182 169.466175 
L 219.080727 173.727155 
L 219.879273 179.526088 
L 220.411636 182.988957 
L 221.476364 187.232229 
L 222.274909 189.616994 
L 223.073455 191.383237 
L 223.872 192.616509 
L 224.670545 193.412645 
L 225.469091 193.867915 
L 226.533818 194.120438 
L 227.066182 194.14407 
L 227.598545 193.812808 
L 228.130909 193.016904 
L 228.663273 191.751452 
L 229.195636 190.013004 
L 229.994182 186.511958 
L 230.792727 181.9549 
L 231.857455 174.29122 
L 232.922182 164.93617 
L 233.188364 162.355426 
L 233.454545 161.647939 
L 233.986909 163.875793 
L 234.253091 164.454635 
L 234.519273 164.716578 
L 234.785455 164.693029 
L 235.051636 164.415104 
L 235.584 163.22675 
L 236.382545 160.422482 
L 237.713455 155.431264 
L 238.245818 154.192736 
L 238.512 153.883011 
L 238.778182 153.82783 
L 239.044364 154.062738 
L 239.310545 154.622594 
L 239.842909 156.858699 
L 240.375273 160.827958 
L 240.907636 166.759865 
L 241.44 174.886074 
L 242.238545 189.537273 
L 243.569455 168.21489 
L 244.368 161.667148 
L 245.166545 156.906222 
L 245.965091 153.687968 
L 246.497455 152.293631 
L 247.029818 151.423661 
L 247.562182 151.037079 
L 248.094545 151.074608 
L 248.626909 151.480047 
L 249.159273 152.207744 
L 249.957818 153.809047 
L 251.022545 156.685702 
L 252.353455 161.073731 
L 258.209455 181.604002 
L 259.274182 184.545054 
L 259.540364 184.963593 
L 260.072727 183.103407 
L 260.605091 182.817574 
L 261.137455 182.177672 
L 261.669818 181.182377 
L 262.468364 179.14723 
L 263.533091 175.651736 
L 267.259636 162.574128 
L 268.058182 160.7384 
L 268.856727 159.441149 
L 269.655273 158.655118 
L 270.453818 158.247306 
L 271.784727 157.709311 
L 272.317091 157.200946 
L 272.849455 156.295079 
L 273.381818 154.788822 
L 273.914182 152.467462 
L 274.446545 149.073078 
L 275.777455 138.355602 
L 276.309818 136.791031 
L 276.576 136.611656 
L 276.842182 136.762495 
L 277.108364 137.159497 
L 277.640727 138.512578 
L 279.504 144.335347 
L 279.770182 144.691872 
L 280.036364 144.791127 
L 280.302545 144.587258 
L 280.568727 144.034467 
L 280.834909 143.087195 
L 281.367273 139.828278 
L 281.899636 134.452389 
L 282.432 126.608175 
L 283.230545 110.882312 
L 284.029091 126.40935 
L 284.827636 137.351647 
L 285.36 142.339194 
L 285.892364 145.664861 
L 286.424727 147.477653 
L 286.690909 147.862992 
L 286.957091 147.925479 
L 287.223273 147.683283 
L 287.489455 147.154374 
L 288.021818 145.307613 
L 288.554182 142.516566 
L 289.352727 136.871577 
L 290.417455 127.316756 
L 292.014545 111.189608 
L 292.280727 111.307739 
L 293.079273 113.207474 
L 293.611636 114.402318 
L 294.676364 116.480148 
L 295.741091 119.147261 
L 296.805818 122.378365 
L 298.402909 128.080796 
L 302.661818 144.157159 
L 303.726545 147.267165 
L 304.258909 148.914525 
L 305.057455 157.127743 
L 305.856 163.448289 
L 306.654545 168.184397 
L 307.453091 171.670981 
L 308.251636 174.165042 
L 309.050182 175.919899 
L 309.848727 177.122855 
L 310.913455 178.181008 
L 312.244364 179.236509 
L 313.575273 180.018813 
L 316.237091 181.46504 
L 317.035636 182.182641 
L 317.834182 183.204526 
L 318.632727 184.634918 
L 319.431273 186.577253 
L 320.229818 189.127626 
L 320.762182 191.167964 
L 321.028364 190.841793 
L 324.488727 171.415139 
L 326.085818 163.686275 
L 326.884364 160.636734 
L 328.481455 156.495295 
L 330.078545 153.010908 
L 331.409455 150.553319 
L 333.006545 148.081175 
L 334.603636 146.050553 
L 335.934545 144.646778 
L 337.531636 143.254647 
L 339.128727 142.128372 
L 340.992 141.098366 
L 343.387636 139.951731 
L 343.92 139.367084 
L 344.186182 139.290302 
L 344.452364 139.336657 
L 344.984727 139.825071 
L 345.517091 140.801286 
L 346.049455 142.2684 
L 346.848 145.048842 
L 347.380364 145.053737 
L 347.912727 145.434218 
L 348.445091 146.127854 
L 349.243636 147.602237 
L 350.308364 150.094295 
L 352.970182 156.694751 
L 353.768727 158.07062 
L 354.301091 158.623949 
L 354.833455 158.767983 
L 355.099636 158.661719 
L 355.365818 158.392434 
L 355.898182 157.362113 
L 356.430545 155.478417 
L 356.962909 152.557186 
L 357.495273 148.347586 
L 358.027636 142.553984 
L 358.56 134.806188 
L 359.092364 124.674824 
L 359.624727 112.298436 
L 359.890909 113.885016 
L 361.221818 133.287657 
L 362.552727 149.334946 
L 363.617455 159.421587 
L 364.416 165.235873 
L 365.214545 169.448097 
L 365.746909 171.319982 
L 366.279273 172.399504 
L 366.545455 172.641681 
L 366.811636 172.668353 
L 367.077818 172.479448 
L 367.344 172.081491 
L 367.876364 170.590866 
L 368.408727 168.168748 
L 368.941091 164.76462 
L 369.739636 157.695386 
L 370.804364 149.237953 
L 371.869091 142.718377 
L 372.667636 138.926991 
L 373.466182 135.938824 
L 374.264727 133.628811 
L 375.063273 131.857497 
L 376.128 130.062802 
L 378.523636 126.668326 
L 379.056 134.222154 
L 380.386909 153.569837 
L 381.717818 169.731687 
L 382.782545 180.211955 
L 383.847273 188.413259 
L 384.645818 193.026017 
L 385.444364 196.295855 
L 385.976727 197.71807 
L 386.509091 198.533749 
L 386.775273 198.714997 
L 387.041455 198.739546 
L 387.307636 198.611078 
L 387.84 197.894598 
L 388.372364 196.564287 
L 389.969455 185.274059 
L 390.501818 183.170427 
L 391.034182 181.844631 
L 391.566545 181.199445 
L 391.832727 181.112288 
L 392.098909 181.149984 
L 392.631273 181.607192 
L 393.163636 182.484412 
L 393.962182 184.863994 
L 395.559273 190.792239 
L 396.890182 195.435211 
L 397.954909 198.4245 
L 398.753455 200.156848 
L 399.552 201.451939 
L 400.350545 202.349713 
L 401.149091 202.881552 
L 401.681455 203.065006 
L 401.947636 203.024798 
L 402.213818 202.730101 
L 403.012364 201.060657 
L 404.609455 197.902201 
L 405.940364 195.741385 
L 407.271273 194.017094 
L 408.602182 192.707151 
L 409.933091 191.65546 
L 410.731636 190.244983 
L 411.530182 188.323869 
L 412.594909 185.010309 
L 413.659636 180.917709 
L 414.990545 174.897561 
L 417.12 164.019474 
L 419.515636 152.032968 
L 420.846545 146.460126 
L 421.911273 142.87921 
L 422.709818 140.771322 
L 423.508364 139.164068 
L 424.306909 138.029931 
L 425.105455 137.326393 
L 425.904 136.974077 
L 426.436364 136.893494 
L 426.436364 136.893494 
" clip-path="url(#pb9b67a062f)" style="fill: none; stroke-dasharray: 3,4.95; stroke-dashoffset: 0; stroke: #ff0000; stroke-width: 3"/>
   </g>
   <g id="line2d_3">
    <path d="M 27.163636 105.462348 
L 30.357818 119.272382 
L 32.221091 126.609455 
L 33.552 131.086782 
L 34.616727 133.888046 
L 35.415273 135.351581 
L 35.947636 135.939955 
L 36.48 136.169319 
L 36.746182 136.135554 
L 37.278545 135.723422 
L 37.810909 134.815533 
L 38.343273 133.356244 
L 38.609455 132.463004 
L 39.141818 131.657411 
L 40.206545 130.639031 
L 41.005091 130.204074 
L 41.537455 130.105616 
L 42.069818 130.180043 
L 42.602182 130.449977 
L 43.134545 130.931141 
L 44.199273 132.158878 
L 47.393455 134.369896 
L 50.321455 136.259377 
L 50.587636 136.517945 
L 50.853818 137.294315 
L 52.450909 145.493589 
L 54.846545 158.384628 
L 55.645091 160.738363 
L 56.177455 161.694516 
L 56.709818 162.210724 
L 57.242182 162.046535 
L 57.774545 161.544883 
L 58.573091 160.374366 
L 60.170182 157.859334 
L 60.436364 157.589938 
L 61.501091 158.311424 
L 62.299636 158.606835 
L 62.832 158.593355 
L 63.364364 158.373169 
L 63.896727 157.921079 
L 64.429091 157.209661 
L 65.227636 155.651691 
L 66.026182 153.551128 
L 67.090909 150.104938 
L 69.220364 142.842256 
L 70.018909 140.875732 
L 70.551273 140.067247 
L 70.817455 139.862766 
L 71.083636 139.808902 
L 71.349818 139.917502 
L 71.616 140.211355 
L 72.148364 141.420532 
L 74.277818 147.821384 
L 74.810182 148.972747 
L 75.076364 149.376424 
L 75.342545 149.563809 
L 75.608727 149.60538 
L 75.874909 149.446068 
L 76.141091 149.110718 
L 76.673455 149.113054 
L 77.738182 147.8578 
L 78.536727 146.661213 
L 79.601455 144.635894 
L 80.932364 141.656608 
L 84.658909 132.577815 
L 90.248727 119.372268 
L 91.313455 117.226778 
L 91.579636 117.078164 
L 92.644364 117.509023 
L 93.176727 117.92733 
L 93.709091 118.697081 
L 95.838545 141.442078 
L 96.903273 149.866247 
L 97.701818 154.628249 
L 98.234182 156.864521 
L 98.766545 158.311777 
L 99.032727 158.74195 
L 99.298909 158.960856 
L 99.565091 158.998738 
L 99.831273 158.851088 
L 100.363636 158.020872 
L 100.896 156.576026 
L 101.694545 153.516696 
L 103.291636 145.906611 
L 104.090182 142.354009 
L 104.622545 146.47127 
L 105.421091 154.368087 
L 105.953455 160.61949 
L 107.018182 177.264553 
L 107.550545 180.879587 
L 108.082909 183.287353 
L 108.615273 184.664576 
L 108.881455 185.006322 
L 109.147636 185.150477 
L 109.413818 185.110992 
L 109.946182 184.575936 
L 111.010909 182.547149 
L 112.341818 179.178325 
L 113.406545 176.687805 
L 114.205091 175.35182 
L 114.737455 174.826971 
L 115.269818 174.656274 
L 115.802182 174.888151 
L 116.334545 175.529461 
L 116.600727 175.573109 
L 117.133091 175.135547 
L 117.665455 174.406189 
L 118.464 173.100974 
L 118.730182 173.256949 
L 119.262545 174.115794 
L 119.794909 174.496711 
L 120.327273 174.466868 
L 120.859636 174.083365 
L 121.392 173.395384 
L 122.190545 171.883305 
L 123.255273 169.157016 
L 124.586182 164.905947 
L 126.715636 157.035978 
L 126.981818 156.035899 
L 127.514182 155.505655 
L 128.046545 155.048929 
L 128.845091 154.02914 
L 129.909818 152.242566 
L 131.240727 149.841382 
L 131.773091 149.457823 
L 132.837818 148.977605 
L 133.636364 148.796951 
L 134.434909 148.868894 
L 134.967273 149.100705 
L 135.499636 150.958906 
L 136.564364 155.519858 
L 138.161455 163.466868 
L 140.290909 174.062746 
L 141.089455 177.171 
L 141.621818 178.707943 
L 142.154182 179.660286 
L 142.420364 179.882882 
L 142.686545 179.89753 
L 142.952727 179.691473 
L 143.218909 179.250768 
L 143.751273 177.884086 
L 144.549818 176.547332 
L 145.348364 174.727948 
L 145.880727 172.913014 
L 146.679273 169.185802 
L 147.477818 164.386123 
L 148.276364 158.436805 
L 148.542545 157.901795 
L 150.139636 160.207228 
L 151.204364 161.433612 
L 151.736727 161.897866 
L 152.002909 162.422084 
L 152.535273 164.395895 
L 153.6 168.266112 
L 154.664727 171.121629 
L 155.463273 172.643516 
L 156.261818 173.722251 
L 157.060364 174.455288 
L 158.125091 175.128167 
L 159.189818 175.802186 
L 159.988364 176.608372 
L 161.053091 178.080066 
L 161.585455 178.240769 
L 163.448727 178.258235 
L 164.513455 178.344048 
L 165.312 178.593585 
L 166.110545 179.083269 
L 166.909091 179.875771 
L 167.707636 181.024705 
L 168.506182 182.56341 
L 169.570909 185.217107 
L 170.635636 188.479556 
L 173.297455 197.219615 
L 174.096 198.569776 
L 174.628364 199.104944 
L 175.160727 199.293033 
L 175.693091 199.083583 
L 176.225455 198.419113 
L 176.757818 197.233133 
L 177.024 197.630236 
L 177.822545 202.693527 
L 178.621091 207.725861 
L 179.153455 210.158455 
L 179.419636 211.08687 
L 179.685818 211.561924 
L 180.218182 207.835713 
L 181.016727 202.301763 
L 181.815273 197.979261 
L 182.613818 194.73503 
L 183.412364 192.476118 
L 183.944727 191.468854 
L 184.477091 190.825745 
L 185.009455 190.504802 
L 185.541818 190.481708 
L 186.074182 190.726981 
L 186.606545 191.203398 
L 187.405091 192.30238 
L 188.469818 194.303679 
L 190.066909 197.970769 
L 191.930182 202.360578 
L 192.196364 202.131668 
L 193.527273 195.713545 
L 194.592 194.332076 
L 195.390545 193.600243 
L 196.189091 193.152066 
L 196.721455 193.026629 
L 197.253818 193.078129 
L 197.786182 193.340489 
L 198.318545 193.837117 
L 198.850909 194.611494 
L 199.383273 195.702531 
L 199.649455 196.396111 
L 199.915636 195.768503 
L 200.980364 187.269656 
L 202.045091 180.355656 
L 203.109818 175.037543 
L 203.908364 172.096834 
L 204.706909 170.024566 
L 205.239273 169.102382 
L 205.771636 168.53472 
L 206.304 168.305337 
L 206.836364 168.387654 
L 207.368727 168.762767 
L 207.901091 169.417549 
L 208.699636 170.855478 
L 209.498182 172.783332 
L 210.296727 174.667473 
L 211.095273 174.430155 
L 211.627636 174.066751 
L 212.16 173.404469 
L 212.692364 172.357293 
L 213.224727 170.855858 
L 214.023273 167.635815 
L 214.289455 166.524243 
L 215.354182 170.028024 
L 215.620364 170.076437 
L 216.951273 166.990879 
L 217.483636 166.497913 
L 217.749818 166.492378 
L 218.016 166.667748 
L 218.282182 167.036029 
L 218.814545 168.407133 
L 219.346909 170.692726 
L 221.210182 180.572903 
L 224.404364 194.674509 
L 225.469091 198.462075 
L 226.533818 201.384019 
L 226.8 201.950374 
L 228.397091 217.762949 
L 228.663273 218.282634 
L 230.260364 206.029012 
L 231.591273 195.461708 
L 233.454545 179.040632 
L 233.986909 180.179563 
L 234.253091 180.31491 
L 234.519273 180.188092 
L 234.785455 179.831511 
L 235.317818 178.51125 
L 236.116364 175.468106 
L 237.979636 167.675569 
L 238.512 166.402672 
L 238.778182 166.079097 
L 239.044364 166.010287 
L 239.310545 166.217392 
L 239.576727 166.738134 
L 239.842909 167.599704 
L 240.375273 170.474608 
L 240.907636 175.039944 
L 241.44 181.493529 
L 242.238545 193.277502 
L 244.101818 166.360638 
L 245.432727 152.181619 
L 246.497455 142.166086 
L 248.893091 151.670992 
L 250.490182 158.845674 
L 251.554909 163.833628 
L 252.885818 163.786105 
L 253.418182 164.161821 
L 253.950545 164.8193 
L 254.482909 165.776529 
L 255.281455 167.765395 
L 256.08 170.401135 
L 257.144727 174.74992 
L 259.274182 183.999874 
L 259.540364 183.730617 
L 260.072727 181.003206 
L 260.871273 178.411067 
L 261.936 174.059371 
L 263.266909 167.500635 
L 266.194909 152.279817 
L 266.993455 151.499182 
L 267.525818 151.205626 
L 268.058182 151.101494 
L 268.590545 151.167318 
L 269.389091 151.543145 
L 270.986182 152.573781 
L 271.518545 152.669365 
L 272.050909 152.434494 
L 272.583273 151.704738 
L 273.115636 150.284906 
L 273.648 147.962155 
L 274.180364 144.501668 
L 274.712727 139.610151 
L 275.777455 128.175064 
L 276.576 122.325186 
L 276.842182 122.039455 
L 278.173091 134.236097 
L 279.237818 143.603941 
L 280.036364 148.599219 
L 280.568727 150.324845 
L 280.834909 150.577443 
L 281.101091 150.366936 
L 281.367273 149.658651 
L 281.633455 148.398113 
L 282.165818 144.085698 
L 282.698182 137.11915 
L 283.230545 128.403056 
L 284.029091 142.005475 
L 284.561455 148.305922 
L 285.093818 152.535251 
L 285.626182 154.826333 
L 286.158545 156.186237 
L 286.424727 156.4642 
L 286.690909 156.382244 
L 286.957091 155.95246 
L 287.223273 155.18499 
L 287.755636 151.423364 
L 292.014545 117.034905 
L 292.280727 117.648273 
L 293.079273 120.972291 
L 293.611636 123.123807 
L 294.676364 127.259703 
L 296.273455 134.568072 
L 298.136727 143.970478 
L 299.733818 153.555059 
L 300.798545 158.898945 
L 301.597091 162.045052 
L 302.395636 164.184998 
L 302.928 164.932629 
L 303.194182 164.228961 
L 303.992727 160.872403 
L 304.258909 160.299642 
L 305.589818 166.371995 
L 306.920727 171.403958 
L 307.985455 174.643165 
L 308.784 176.424982 
L 309.316364 177.182116 
L 309.848727 177.508324 
L 310.114909 177.356605 
L 311.712 175.260112 
L 314.107636 171.749553 
L 314.373818 171.834966 
L 315.172364 175.155859 
L 315.704727 176.531664 
L 316.237091 177.220915 
L 316.769455 177.437754 
L 317.035636 177.99163 
L 318.366545 182.673772 
L 319.431273 185.331159 
L 320.762182 188.151864 
L 321.028364 187.464393 
L 322.891636 174.299054 
L 325.553455 155.68401 
L 327.150545 146.038166 
L 327.416727 144.980199 
L 327.949091 145.99882 
L 328.481455 146.663661 
L 329.013818 146.986996 
L 329.546182 146.982991 
L 330.078545 146.669224 
L 330.610909 146.065683 
L 331.409455 144.666543 
L 332.208 142.761283 
L 333.272727 139.596096 
L 334.869818 133.947491 
L 335.402182 132.138204 
L 336.200727 131.101449 
L 336.733091 131.614078 
L 337.265455 131.788929 
L 337.797818 131.697962 
L 338.596364 131.169906 
L 339.661091 130.034007 
L 341.524364 127.941027 
L 342.322909 127.341046 
L 343.653818 126.546523 
L 343.92 126.366592 
L 344.186182 126.330862 
L 344.452364 126.41634 
L 344.984727 126.982482 
L 345.517091 128.056284 
L 346.049455 129.662315 
L 346.848 132.81964 
L 347.380364 133.514555 
L 347.912727 134.712514 
L 348.977455 132.236606 
L 349.776 131.104137 
L 350.308364 130.690392 
L 350.840727 130.528743 
L 351.373091 130.584814 
L 351.905455 130.840786 
L 352.171636 131.192787 
L 354.034909 136.389635 
L 354.567273 137.227935 
L 355.099636 137.628201 
L 355.365818 137.617928 
L 355.632 137.460359 
L 355.898182 137.140899 
L 356.430545 135.891505 
L 356.962909 133.712732 
L 357.495273 130.399376 
L 358.027636 125.703884 
L 358.56 119.314046 
L 359.092364 110.869963 
L 359.624727 100.50306 
L 359.890909 102.063644 
L 361.221818 119.383059 
L 362.552727 133.835479 
L 363.617455 143.050241 
L 364.416 148.471298 
L 365.214545 152.53679 
L 365.746909 154.457533 
L 366.279273 155.71618 
L 366.811636 156.298917 
L 367.077818 156.321575 
L 367.344 156.171274 
L 367.610182 155.831789 
L 368.142545 154.591777 
L 368.674909 152.853746 
L 369.207273 150.382808 
L 370.005818 145.185329 
L 371.070545 136.352477 
L 372.135273 129.157714 
L 373.2 123.552794 
L 373.998545 120.39495 
L 374.797091 118.165112 
L 375.329455 117.217136 
L 375.861818 116.721416 
L 376.128 116.639034 
L 376.394182 116.687985 
L 376.660364 117.117417 
L 377.458909 119.68177 
L 378.257455 122.790478 
L 378.523636 124.162361 
L 379.322182 139.154445 
L 381.185455 173.663361 
L 381.984 187.019442 
L 382.516364 191.341786 
L 383.314909 195.37825 
L 384.113455 198.177586 
L 384.645818 199.397953 
L 385.178182 200.13863 
L 385.710545 200.426244 
L 386.242909 200.287401 
L 386.775273 199.745086 
L 387.307636 198.833248 
L 388.106182 196.841359 
L 388.372364 196.014685 
L 389.703273 187.460926 
L 390.235636 185.768054 
L 390.501818 185.308 
L 390.768 185.084597 
L 391.034182 185.093145 
L 391.566545 185.542899 
L 392.365091 186.726711 
L 393.163636 188.422475 
L 393.696 189.982466 
L 394.494545 193.153011 
L 395.559273 198.468537 
L 396.890182 206.291316 
L 397.688727 211.500421 
L 397.954909 211.770855 
L 399.019636 209.817422 
L 400.084364 207.380165 
L 401.681455 203.108876 
L 402.213818 201.272406 
L 404.343273 192.40869 
L 405.408 189.058158 
L 406.472727 186.554734 
L 407.271273 185.237337 
L 408.069818 184.376628 
L 408.868364 183.938278 
L 409.666909 183.874178 
L 409.933091 183.494745 
L 410.731636 181.525125 
L 411.264 180.689865 
L 411.796364 180.284909 
L 412.861091 179.5922 
L 413.127273 179.759726 
L 413.659636 180.92342 
L 413.925818 181.256007 
L 414.192 181.396249 
L 414.458182 181.353408 
L 414.724364 181.154063 
L 415.256727 180.304545 
L 415.789091 178.937956 
L 416.587636 176.084237 
L 417.652364 171.168921 
L 419.249455 162.383035 
L 422.443636 144.392753 
L 423.774545 138.096533 
L 424.839273 133.963901 
L 425.637818 131.529471 
L 426.436364 129.804772 
L 426.436364 129.804772 
" clip-path="url(#pb9b67a062f)" style="fill: none; stroke: #ff0000; stroke-width: 3; stroke-linecap: square"/>
   </g>
   <g id="patch_3">
    <path d="M 7.2 331.2 
L 7.2 7.2 
" style="fill: none; stroke: #000000; stroke-width: 0.8; stroke-linejoin: miter; stroke-linecap: square"/>
   </g>
   <g id="patch_4">
    <path d="M 446.4 331.2 
L 446.4 7.2 
" style="fill: none; stroke: #000000; stroke-width: 0.8; stroke-linejoin: miter; stroke-linecap: square"/>
   </g>
   <g id="patch_5">
    <path d="M 7.2 331.2 
L 446.4 331.2 
" style="fill: none; stroke: #000000; stroke-width: 0.8; stroke-linejoin: miter; stroke-linecap: square"/>
   </g>
   <g id="patch_6">
    <path d="M 7.2 7.2 
L 446.4 7.2 
" style="fill: none; stroke: #000000; stroke-width: 0.8; stroke-linejoin: miter; stroke-linecap: square"/>
   </g>
  </g>
 </g>
 <defs>
  <clipPath id="pb9b67a062f">
   <rect x="7.2" y="7.2" width="439.2" height="324"/>
  </clipPath>
 </defs>
</svg>
