<?xml version="1.0" encoding="utf-8" standalone="no"?>
<!DOCTYPE svg PUBLIC "-//W3C//DTD SVG 1.1//EN"
  "http://www.w3.org/Graphics/SVG/1.1/DTD/svg11.dtd">
<svg xmlns:xlink="http://www.w3.org/1999/xlink" width="453.6pt" height="338.4pt" viewBox="0 0 453.6 338.4" xmlns="http://www.w3.org/2000/svg" version="1.1">
 <metadata>
  <rdf:RDF xmlns:dc="http://purl.org/dc/elements/1.1/" xmlns:cc="http://creativecommons.org/ns#" xmlns:rdf="http://www.w3.org/1999/02/22-rdf-syntax-ns#">
   <cc:Work>
    <dc:type rdf:resource="http://purl.org/dc/dcmitype/StillImage"/>
    <dc:date>2025-05-14T00:22:17.068578</dc:date>
    <dc:format>image/svg+xml</dc:format>
    <dc:creator>
     <cc:Agent>
      <dc:title>Matplotlib v3.10.1, https://matplotlib.org/</dc:title>
     </cc:Agent>
    </dc:creator>
   </cc:Work>
  </rdf:RDF>
 </metadata>
 <defs>
  <style type="text/css">*{stroke-linejoin: round; stroke-linecap: butt}</style>
 </defs>
 <g id="figure_1">
  <g id="patch_1">
   <path d="M 0 338.4 
L 453.6 338.4 
L 453.6 0 
L 0 0 
z
" style="fill: #ffffff"/>
  </g>
  <g id="axes_1">
   <g id="patch_2">
    <path d="M 7.2 331.2 
L 446.4 331.2 
L 446.4 7.2 
L 7.2 7.2 
z
" style="fill: #ffffff"/>
   </g>
   <g id="matplotlib.axis_1"/>
   <g id="matplotlib.axis_2"/>
   <g id="line2d_1">
    <path d="M 27.163636 264.748942 
L 31.688727 261.555276 
L 36.48 258.448771 
L 41.803636 255.266535 
L 48.192 251.724359 
L 57.242182 246.992963 
L 69.220364 240.700648 
L 75.342545 237.233064 
L 80.666182 233.966412 
L 85.457455 230.764198 
L 89.982545 227.462943 
L 94.241455 224.069813 
L 98.234182 220.603576 
L 102.226909 216.83039 
L 105.953455 213.005094 
L 109.68 208.861505 
L 113.406545 204.375018 
L 117.133091 199.521046 
L 120.859636 194.274967 
L 124.32 189.031029 
L 127.780364 183.408123 
L 131.240727 177.386566 
L 134.701091 170.946638 
L 138.427636 163.520926 
L 142.154182 155.562608 
L 145.880727 147.047061 
L 149.607273 137.949751 
L 153.333818 128.246073 
L 157.060364 117.911385 
L 160.786909 106.921154 
L 164.513455 95.250826 
L 168.24 82.875674 
L 172.232727 68.806634 
L 176.225455 53.870085 
L 180.218182 38.035845 
L 184.210909 21.927273 
L 192.462545 28.428324 
L 200.714182 35.215724 
L 208.965818 42.285261 
L 217.483636 49.874557 
L 226.267636 58.006647 
L 235.051636 66.444251 
L 244.101818 75.45193 
L 253.418182 85.0522 
L 262.734545 94.979084 
L 272.050909 105.226747 
L 281.633455 116.095629 
L 291.482182 127.606984 
L 301.330909 139.456574 
L 311.445818 151.971343 
L 321.826909 165.171027 
L 332.474182 179.074912 
L 343.387636 193.701802 
L 354.301091 208.699354 
L 365.480727 224.437177 
L 376.926545 240.931934 
L 388.638545 258.199355 
L 400.616727 276.254167 
L 413.127273 295.524635 
L 425.637818 315.203148 
L 426.436364 316.472727 
L 426.436364 316.472727 
" clip-path="url(#pfe96b9b60b)" style="fill: none; stroke-dasharray: 11.1,4.8; stroke-dashoffset: 0; stroke: #000000; stroke-width: 3"/>
   </g>
   <g id="line2d_2">
    <path d="M 27.163636 227.15097 
L 30.357818 226.766926 
L 36.213818 226.008473 
L 38.609455 225.939217 
L 40.738909 226.111382 
L 42.602182 226.498206 
L 44.199273 226.916731 
L 47.925818 225.729445 
L 50.055273 224.824191 
L 51.918545 223.787521 
L 53.515636 222.657456 
L 55.112727 221.253646 
L 56.709818 219.526899 
L 58.306909 217.427055 
L 59.904 214.902711 
L 61.767273 211.421245 
L 68.421818 199.000941 
L 72.680727 190.805587 
L 75.874909 184.188332 
L 77.472 180.836106 
L 80.133818 178.438568 
L 82.795636 176.338172 
L 85.723636 174.303975 
L 89.184 172.174398 
L 94.241455 169.205853 
L 95.838545 167.523464 
L 97.435636 165.553862 
L 99.032727 163.272045 
L 100.896 160.181892 
L 102.759273 156.593183 
L 104.622545 152.466567 
L 106.485818 147.762693 
L 108.349091 142.44254 
L 110.744727 135.135052 
L 112.341818 132.710043 
L 113.938909 130.669925 
L 115.536 129.02585 
L 116.866909 127.96663 
L 118.197818 127.197057 
L 119.528727 126.723969 
L 120.593455 126.563476 
L 121.658182 126.600582 
L 122.722909 126.838809 
L 123.787636 127.281715 
L 124.852364 127.932925 
L 126.183273 129.045378 
L 127.248 129.99126 
L 132.837818 127.328387 
L 136.830545 125.654078 
L 140.290909 124.431292 
L 143.485091 123.540852 
L 144.549818 123.198248 
L 149.873455 121.1141 
L 154.132364 119.206865 
L 157.858909 117.293448 
L 160.786909 115.564922 
L 163.448727 113.485884 
L 166.110545 111.129821 
L 168.772364 108.490689 
L 171.700364 105.253338 
L 174.628364 101.657739 
L 177.290182 98.062313 
L 180.484364 93.585358 
L 183.412364 89.841681 
L 186.340364 86.469788 
L 189.002182 83.74864 
L 191.397818 81.59653 
L 193.527273 79.931614 
L 194.858182 79.203447 
L 203.908364 74.321658 
L 211.095273 70.477144 
L 215.088 69.001747 
L 219.346909 67.673012 
L 223.605818 66.574131 
L 226.533818 66.009616 
L 229.728 66.431198 
L 234.253091 67.278056 
L 246.231273 69.827678 
L 248.893091 70.75966 
L 251.554909 71.935516 
L 253.950545 73.224918 
L 256.346182 74.753911 
L 258.475636 76.330386 
L 258.741818 76.565799 
L 260.338909 79.504991 
L 261.936 82.871185 
L 263.799273 87.337953 
L 265.662545 92.364194 
L 267.792 98.765479 
L 270.187636 106.764097 
L 272.583273 115.562643 
L 274.978909 125.114963 
L 276.309818 131.486894 
L 278.971636 143.843139 
L 282.165818 157.656184 
L 285.626182 171.631 
L 289.618909 186.826445 
L 292.280727 196.337601 
L 297.072 208.598171 
L 300.266182 216.231808 
L 302.928 222.032457 
L 305.057455 226.187148 
L 306.920727 229.393575 
L 308.517818 231.77578 
L 309.316364 232.759614 
L 311.445818 234.200132 
L 314.373818 235.911702 
L 317.301818 237.36543 
L 320.762182 238.818122 
L 324.754909 240.241736 
L 326.618182 240.743832 
L 333.272727 241.680615 
L 338.862545 242.244197 
L 343.121455 242.473998 
L 359.358545 242.633645 
L 376.660364 242.41562 
L 383.847273 242.27393 
L 392.631273 242.261083 
L 399.818182 242.93089 
L 405.674182 243.258541 
L 410.199273 243.297771 
L 417.386182 243.048924 
L 422.177455 242.672961 
L 426.436364 242.11285 
L 426.436364 242.11285 
" clip-path="url(#pfe96b9b60b)" style="fill: none; stroke-dasharray: 3,4.95; stroke-dashoffset: 0; stroke: #ffa500; stroke-width: 3"/>
   </g>
   <g id="line2d_3">
    <path d="M 27.163636 260.67979 
L 29.293091 258.961589 
L 31.422545 257.555259 
L 33.552 256.431375 
L 35.681455 255.560654 
L 38.077091 254.845955 
L 40.472727 254.370191 
L 42.336 253.986872 
L 44.465455 251.234609 
L 46.062545 249.540271 
L 47.659636 248.136013 
L 49.256727 246.999524 
L 50.853818 246.10653 
L 52.717091 245.343208 
L 54.580364 244.844134 
L 56.443636 244.572392 
L 59.637818 244.195082 
L 60.702545 243.961154 
L 62.832 242.808435 
L 64.695273 241.565515 
L 66.292364 240.264269 
L 67.889455 238.692973 
L 69.486545 236.804351 
L 71.083636 234.54695 
L 72.414545 232.34784 
L 75.342545 226.482822 
L 83.594182 209.538856 
L 85.723636 204.329589 
L 87.586909 199.231485 
L 91.579636 187.956355 
L 96.370909 174.340114 
L 98.766545 166.863223 
L 101.162182 158.631126 
L 103.291636 150.518271 
L 104.356364 146.680837 
L 107.018182 138.401981 
L 109.68 130.80716 
L 111.010909 127.465967 
L 113.140364 122.998059 
L 115.003636 119.574989 
L 116.866909 116.590973 
L 118.730182 114.026916 
L 120.327273 112.149622 
L 121.392 111.233628 
L 123.255273 109.888317 
L 125.118545 108.791577 
L 128.046545 107.19925 
L 131.240727 105.15958 
L 135.233455 102.877004 
L 138.96 100.728658 
L 142.952727 98.359437 
L 147.211636 96.126519 
L 150.672 94.57874 
L 153.866182 93.37543 
L 154.930909 93.101409 
L 163.714909 91.91022 
L 169.304727 90.79832 
L 174.894545 89.451352 
L 179.685818 88.052135 
L 185.009455 86.562821 
L 190.066909 85.381163 
L 194.325818 84.614491 
L 206.037818 82.995608 
L 212.958545 82.119155 
L 220.677818 81.47815 
L 224.936727 81.293293 
L 227.598545 81.390815 
L 233.720727 82.003296 
L 244.101818 83.03912 
L 258.475636 84.446936 
L 259.274182 84.684248 
L 261.137455 85.505897 
L 263.000727 86.59138 
L 264.597818 87.787852 
L 266.194909 89.260728 
L 267.792 91.037014 
L 269.389091 93.144748 
L 270.986182 95.613356 
L 272.583273 98.472775 
L 274.180364 101.753224 
L 274.712727 102.994451 
L 274.978909 104.178215 
L 281.633455 146.041558 
L 283.496727 155.904521 
L 285.093818 163.220038 
L 286.424727 168.359617 
L 287.489455 171.749743 
L 288.554182 174.432594 
L 289.352727 175.944562 
L 290.151273 176.995995 
L 290.683636 177.414227 
L 292.813091 178.158038 
L 294.676364 178.737885 
L 297.338182 179.835489 
L 298.669091 180.593493 
L 300 181.611429 
L 301.330909 182.895304 
L 302.661818 184.451786 
L 304.258909 186.69092 
L 306.920727 190.632127 
L 308.251636 192.351743 
L 309.848727 194.855367 
L 311.179636 197.347007 
L 312.510545 200.343593 
L 314.373818 205.234774 
L 315.970909 210.221647 
L 317.568 216.020431 
L 319.165091 222.670216 
L 320.762182 230.202774 
L 322.625455 239.54584 
L 324.754909 239.67306 
L 326.618182 239.579855 
L 334.869818 238.462429 
L 340.193455 237.294999 
L 344.452364 236.33653 
L 346.315636 236.192354 
L 360.689455 235.386383 
L 374.797091 236.396825 
L 377.725091 236.771096 
L 385.976727 238.114853 
L 389.703273 238.467264 
L 393.163636 238.568136 
L 395.559273 238.214515 
L 397.422545 238.185922 
L 399.019636 238.375647 
L 400.616727 238.800682 
L 401.947636 239.360224 
L 403.278545 240.131834 
L 404.609455 241.141482 
L 405.940364 242.417657 
L 407.271273 243.991819 
L 408.602182 245.898398 
L 410.465455 249.055701 
L 410.997818 249.85556 
L 413.393455 250.532445 
L 418.983273 251.926517 
L 425.105455 253.222134 
L 426.436364 253.476229 
L 426.436364 253.476229 
" clip-path="url(#pfe96b9b60b)" style="fill: none; stroke: #ffa500; stroke-width: 3; stroke-linecap: square"/>
   </g>
   <g id="patch_3">
    <path d="M 7.2 331.2 
L 7.2 7.2 
" style="fill: none; stroke: #000000; stroke-width: 0.8; stroke-linejoin: miter; stroke-linecap: square"/>
   </g>
   <g id="patch_4">
    <path d="M 446.4 331.2 
L 446.4 7.2 
" style="fill: none; stroke: #000000; stroke-width: 0.8; stroke-linejoin: miter; stroke-linecap: square"/>
   </g>
   <g id="patch_5">
    <path d="M 7.2 331.2 
L 446.4 331.2 
" style="fill: none; stroke: #000000; stroke-width: 0.8; stroke-linejoin: miter; stroke-linecap: square"/>
   </g>
   <g id="patch_6">
    <path d="M 7.2 7.2 
L 446.4 7.2 
" style="fill: none; stroke: #000000; stroke-width: 0.8; stroke-linejoin: miter; stroke-linecap: square"/>
   </g>
  </g>
 </g>
 <defs>
  <clipPath id="pfe96b9b60b">
   <rect x="7.2" y="7.2" width="439.2" height="324"/>
  </clipPath>
 </defs>
</svg>
