<?xml version="1.0" encoding="utf-8" standalone="no"?>
<!DOCTYPE svg PUBLIC "-//W3C//DTD SVG 1.1//EN"
  "http://www.w3.org/Graphics/SVG/1.1/DTD/svg11.dtd">
<svg xmlns:xlink="http://www.w3.org/1999/xlink" width="453.6pt" height="338.4pt" viewBox="0 0 453.6 338.4" xmlns="http://www.w3.org/2000/svg" version="1.1">
 <metadata>
  <rdf:RDF xmlns:dc="http://purl.org/dc/elements/1.1/" xmlns:cc="http://creativecommons.org/ns#" xmlns:rdf="http://www.w3.org/1999/02/22-rdf-syntax-ns#">
   <cc:Work>
    <dc:type rdf:resource="http://purl.org/dc/dcmitype/StillImage"/>
    <dc:date>2025-05-14T08:48:28.619167</dc:date>
    <dc:format>image/svg+xml</dc:format>
    <dc:creator>
     <cc:Agent>
      <dc:title>Matplotlib v3.10.1, https://matplotlib.org/</dc:title>
     </cc:Agent>
    </dc:creator>
   </cc:Work>
  </rdf:RDF>
 </metadata>
 <defs>
  <style type="text/css">*{stroke-linejoin: round; stroke-linecap: butt}</style>
 </defs>
 <g id="figure_1">
  <g id="patch_1">
   <path d="M 0 338.4 
L 453.6 338.4 
L 453.6 0 
L 0 0 
z
" style="fill: #ffffff"/>
  </g>
  <g id="axes_1">
   <g id="patch_2">
    <path d="M 7.2 331.2 
L 446.4 331.2 
L 446.4 7.2 
L 7.2 7.2 
z
" style="fill: #ffffff"/>
   </g>
   <g id="matplotlib.axis_1"/>
   <g id="matplotlib.axis_2"/>
   <g id="line2d_1">
    <path d="M 27.163636 316.472727 
L 108.881455 74.963798 
L 110.212364 76.509148 
L 204.706909 188.628797 
L 204.973091 188.555614 
L 327.949091 21.927273 
L 426.436364 56.231431 
L 426.436364 56.231431 
" clip-path="url(#pf94000dfc4)" style="fill: none; stroke-dasharray: 11.1,4.8; stroke-dashoffset: 0; stroke: #000000; stroke-width: 3"/>
   </g>
   <g id="line2d_2">
    <path d="M 27.163636 136.862057 
L 28.760727 127.779106 
L 29.825455 122.88876 
L 30.624 120.154353 
L 31.156364 118.84676 
L 31.688727 117.994559 
L 32.221091 117.59756 
L 32.487273 117.565629 
L 32.753455 117.646084 
L 33.285818 118.152763 
L 33.818182 119.068989 
L 34.616727 121.156611 
L 35.415273 123.946267 
L 36.746182 129.560874 
L 38.609455 137.350856 
L 39.408 139.828356 
L 39.940364 140.961835 
L 40.206545 141.344223 
L 40.472727 140.986617 
L 41.803636 130.048443 
L 42.602182 125.60034 
L 43.400727 122.596464 
L 43.933091 121.37873 
L 44.731636 120.59009 
L 45.796364 119.940954 
L 46.861091 119.592835 
L 48.192 119.42088 
L 50.055273 119.429574 
L 58.040727 119.974088 
L 62.832 120.192052 
L 63.896727 119.887208 
L 65.227636 119.211008 
L 66.558545 118.238166 
L 67.889455 117.008157 
L 69.486545 115.164607 
L 70.817455 113.297327 
L 72.946909 110.074476 
L 74.810182 107.587558 
L 76.939636 105.136945 
L 77.472 104.831062 
L 80.666182 103.682247 
L 83.328 102.969387 
L 85.723636 102.557816 
L 87.853091 102.431352 
L 89.716364 102.560495 
L 91.313455 102.892868 
L 92.910545 103.471308 
L 93.709091 103.866503 
L 94.773818 105.698818 
L 99.831273 115.218025 
L 100.363636 115.816831 
L 100.896 116.177991 
L 101.428364 116.333734 
L 101.960727 116.311017 
L 102.759273 115.991383 
L 103.557818 115.386207 
L 104.622545 114.234985 
L 106.219636 112.069751 
L 107.550545 110.303785 
L 108.349091 109.545326 
L 108.881455 109.292588 
L 109.413818 109.348412 
L 109.946182 109.822394 
L 110.478545 110.543346 
L 111.277091 110.736433 
L 112.075636 111.17083 
L 112.874182 111.919175 
L 113.672727 113.111293 
L 114.471273 114.895193 
L 115.269818 117.459531 
L 116.068364 121.012595 
L 116.866909 125.786866 
L 117.133091 127.690559 
L 117.399273 127.260481 
L 119.794909 116.487427 
L 121.125818 111.530869 
L 122.190545 108.501023 
L 122.989091 106.884212 
L 123.787636 105.862134 
L 124.32 105.525715 
L 124.852364 105.445889 
L 125.384727 105.609888 
L 125.917091 105.997839 
L 126.715636 106.936809 
L 126.981818 107.326537 
L 127.514182 109.471022 
L 128.312727 113.962346 
L 129.111273 119.729387 
L 130.176 129.007912 
L 130.442182 128.011915 
L 131.240727 119.036265 
L 132.039273 112.190694 
L 132.837818 107.036565 
L 133.636364 103.263076 
L 134.434909 100.620251 
L 134.967273 99.404349 
L 135.499636 98.584461 
L 136.032 98.137871 
L 136.564364 98.051839 
L 137.096727 98.32303 
L 137.629091 98.956692 
L 138.161455 99.966113 
L 138.693818 101.374883 
L 139.492364 104.318697 
L 140.290909 108.352059 
L 141.089455 113.659935 
L 141.888 120.44725 
L 142.686545 128.926774 
L 143.751273 141.720199 
L 145.082182 146.394741 
L 145.348364 146.527247 
L 148.276364 138.92569 
L 158.125091 112.547315 
L 159.988364 107.538569 
L 161.053091 104.661814 
L 162.916364 99.74495 
L 163.981091 103.442658 
L 165.844364 109.677121 
L 167.175273 113.450938 
L 168.24 115.932525 
L 169.304727 117.89915 
L 170.369455 119.34767 
L 171.168 120.125211 
L 171.966545 120.666472 
L 173.031273 121.080831 
L 174.096 121.241221 
L 175.693091 121.225666 
L 177.024 121.123149 
L 177.822545 120.620818 
L 178.621091 119.759186 
L 179.419636 118.538581 
L 180.484364 116.396338 
L 181.549091 113.67899 
L 182.613818 110.434186 
L 183.412364 107.674765 
L 183.678545 107.561997 
L 185.275636 112.070134 
L 186.872727 115.857565 
L 188.469818 119.02153 
L 190.066909 121.646559 
L 191.664 123.795554 
L 192.994909 125.272341 
L 194.325818 126.725563 
L 195.656727 128.081326 
L 196.721455 128.862448 
L 197.52 129.198675 
L 198.318545 129.274046 
L 199.117091 129.043725 
L 199.915636 128.468401 
L 200.714182 127.512946 
L 201.512727 126.133399 
L 202.311273 124.304174 
L 203.109818 121.983005 
L 203.642182 120.042268 
L 205.505455 106.101121 
L 206.304 102.501911 
L 206.836364 100.893164 
L 207.368727 99.860015 
L 207.901091 99.347185 
L 208.433455 99.319 
L 208.965818 99.70911 
L 209.498182 100.456498 
L 210.296727 102.167269 
L 211.095273 104.627997 
L 214.023273 114.621241 
L 214.555636 115.736076 
L 215.088 116.372691 
L 215.354182 116.543196 
L 216.152727 119.358304 
L 216.685091 120.538148 
L 217.217455 121.259674 
L 217.749818 121.614683 
L 218.282182 121.68885 
L 219.080727 121.455386 
L 220.944 120.596678 
L 221.476364 120.549138 
L 222.008727 120.67738 
L 222.541091 121.012978 
L 223.073455 121.568564 
L 223.872 122.85683 
L 224.670545 124.655109 
L 225.735273 127.75494 
L 226.8 131.413227 
L 227.598545 137.999459 
L 227.864727 137.657641 
L 228.663273 135.755628 
L 229.728 132.621201 
L 231.058909 127.936955 
L 232.922182 120.467753 
L 236.382545 106.449049 
L 236.648727 105.487278 
L 236.914909 105.583617 
L 237.447273 106.169 
L 237.713455 106.186797 
L 237.979636 106.041634 
L 238.512 105.306603 
L 239.044364 104.049912 
L 239.842909 101.377207 
L 240.907636 96.828473 
L 243.569455 84.809773 
L 244.368 82.13089 
L 244.900364 80.933823 
L 245.432727 80.22151 
L 245.965091 80.017187 
L 246.231273 80.179847 
L 246.763636 80.994075 
L 247.296 82.291062 
L 248.094545 84.884843 
L 249.425455 90.226481 
L 253.418182 107.001573 
L 254.749091 111.455499 
L 255.813818 114.226265 
L 256.612364 115.670602 
L 257.144727 116.260606 
L 257.677091 116.496722 
L 257.943273 116.451314 
L 258.475636 116.006118 
L 259.008 115.019279 
L 259.540364 113.370373 
L 260.338909 110.305398 
L 262.468364 104.187531 
L 264.331636 99.475673 
L 266.461091 94.738309 
L 268.856727 90.023088 
L 274.180364 79.945835 
L 274.446545 81.006514 
L 275.777455 92.946263 
L 276.576 98.931159 
L 277.108364 101.439127 
L 278.971636 108.276497 
L 280.302545 112.342637 
L 281.367273 114.964658 
L 282.432 116.943148 
L 283.230545 117.974411 
L 284.029091 118.603508 
L 284.561455 118.79665 
L 285.093818 118.808651 
L 285.626182 118.640688 
L 286.158545 118.289042 
L 286.957091 117.433041 
L 287.755636 116.200326 
L 288.820364 113.99455 
L 290.151273 110.880913 
L 291.216 110.870169 
L 292.813091 110.564615 
L 294.410182 110.280193 
L 294.942545 110.383119 
L 295.474909 110.669018 
L 296.007273 111.191744 
L 296.539636 111.985797 
L 297.072 113.101752 
L 297.870545 115.456793 
L 298.669091 118.74345 
L 299.467636 123.076653 
L 300.266182 128.557932 
L 300.798545 132.334237 
L 301.064727 132.265564 
L 302.129455 131.230255 
L 303.460364 130.288387 
L 305.589818 128.836368 
L 306.654545 127.846576 
L 307.719273 126.541607 
L 308.784 124.842072 
L 309.848727 122.701688 
L 310.381091 121.088649 
L 311.978182 115.266112 
L 312.510545 118.418951 
L 313.042909 120.519313 
L 313.575273 121.826113 
L 314.107636 122.487769 
L 314.64 122.672573 
L 315.172364 122.480443 
L 315.704727 121.997767 
L 316.503273 120.895043 
L 317.568 118.982246 
L 320.496 113.411927 
L 321.294545 112.433836 
L 321.826909 112.11382 
L 322.359273 112.168413 
L 322.625455 112.367842 
L 323.157818 113.22849 
L 323.690182 114.826684 
L 324.222545 117.407836 
L 324.754909 121.246306 
L 325.287273 126.693332 
L 325.819636 133.461223 
L 326.085818 133.011899 
L 326.884364 129.5682 
L 327.416727 128.034305 
L 327.949091 127.038745 
L 328.481455 126.4509 
L 329.013818 126.169622 
L 329.546182 126.1106 
L 330.344727 126.295157 
L 331.409455 126.817527 
L 334.869818 128.70419 
L 336.733091 129.36426 
L 338.862545 129.825777 
L 341.258182 130.100767 
L 343.92 130.163262 
L 345.250909 130.051368 
L 346.315636 129.761779 
L 346.581818 129.511283 
L 347.646545 126.502951 
L 348.977455 121.972316 
L 350.840727 114.58551 
L 354.301091 100.53411 
L 355.632 96.051479 
L 356.696727 93.090169 
L 357.761455 90.739557 
L 358.826182 88.992345 
L 359.624727 88.044134 
L 359.890909 87.797191 
L 360.423273 85.838111 
L 360.955636 84.508894 
L 361.488 83.848304 
L 361.754182 83.773836 
L 362.020364 83.872744 
L 362.286545 84.151534 
L 362.552727 84.616468 
L 362.818909 86.678858 
L 363.883636 98.935314 
L 364.948364 108.51923 
L 365.746909 113.975058 
L 366.545455 117.980234 
L 367.077818 119.865475 
L 367.610182 121.145867 
L 368.142545 121.845086 
L 368.408727 121.981556 
L 368.674909 121.989812 
L 369.207273 121.583463 
L 369.739636 120.683039 
L 370.272 119.294881 
L 371.070545 116.395272 
L 371.869091 112.590755 
L 372.933818 106.334449 
L 374.264727 96.985912 
L 375.595636 87.129904 
L 376.394182 90.468202 
L 377.192727 92.692158 
L 380.653091 101.687463 
L 381.984 104.508285 
L 383.048727 106.2643 
L 383.847273 107.230171 
L 384.645818 107.862029 
L 385.444364 108.149732 
L 385.976727 108.145221 
L 386.775273 107.859377 
L 387.573818 107.257482 
L 388.372364 106.382071 
L 389.703273 104.488984 
L 390.768 102.827886 
L 391.034182 103.298506 
L 392.098909 108.619504 
L 392.897455 111.674392 
L 393.163636 112.513662 
L 395.825455 113.142622 
L 399.019636 113.645528 
L 403.012364 114.049635 
L 409.933091 114.65175 
L 410.997818 115.332488 
L 412.062545 115.776809 
L 413.127273 115.988431 
L 414.192 115.979409 
L 415.256727 115.766311 
L 416.587636 115.246292 
L 418.184727 114.310192 
L 420.048 112.914133 
L 426.436364 107.668423 
L 426.436364 107.668423 
" clip-path="url(#pf94000dfc4)" style="fill: none; stroke-dasharray: 3,4.95; stroke-dashoffset: 0; stroke: #0000ff; stroke-width: 3"/>
   </g>
   <g id="line2d_3">
    <path d="M 27.163636 130.289316 
L 27.429818 129.973647 
L 27.962182 128.705502 
L 28.760727 125.859557 
L 30.624 118.722537 
L 31.156364 117.322104 
L 31.688727 116.435021 
L 31.954909 116.204317 
L 32.221091 116.123261 
L 32.487273 116.195214 
L 32.753455 116.429198 
L 33.285818 117.413413 
L 33.818182 119.071886 
L 34.350545 121.418507 
L 35.149091 126.192968 
L 35.947636 132.41409 
L 37.012364 142.791321 
L 38.343273 157.181601 
L 38.875636 158.994943 
L 39.408 159.766743 
L 39.674182 159.873497 
L 39.940364 159.790992 
L 40.206545 159.498382 
L 40.472727 158.320493 
L 42.336 135.761151 
L 43.400727 126.572663 
L 43.933091 123.177584 
L 44.731636 119.897269 
L 45.530182 117.566723 
L 46.328727 116.060001 
L 46.861091 115.452774 
L 47.393455 115.16868 
L 47.925818 115.185684 
L 48.458182 115.523388 
L 48.990545 116.196635 
L 49.522909 117.223005 
L 49.789091 117.880233 
L 50.055273 118.92388 
L 50.321455 120.469011 
L 50.853818 120.90319 
L 51.386182 121.040726 
L 51.918545 120.956362 
L 52.717091 120.558105 
L 54.580364 119.17659 
L 56.177455 118.158941 
L 58.306909 117.159253 
L 59.637818 116.428077 
L 60.436364 115.829243 
L 60.968727 116.227117 
L 61.501091 117.074424 
L 62.033455 118.066813 
L 62.565818 118.468542 
L 63.098182 118.401701 
L 63.630545 117.933432 
L 64.162909 117.149521 
L 64.961455 115.518139 
L 66.558545 111.725213 
L 66.824727 111.489999 
L 67.623273 111.614604 
L 68.421818 112.070462 
L 68.954182 112.597698 
L 69.752727 113.80611 
L 70.551273 115.570737 
L 70.817455 116.179057 
L 72.414545 116.856187 
L 74.277818 117.648873 
L 75.076364 117.759181 
L 75.608727 117.663335 
L 76.141091 117.379896 
L 76.673455 116.852551 
L 77.205818 116.191796 
L 79.335273 115.005555 
L 80.4 114.214318 
L 81.464727 113.152628 
L 82.529455 111.68366 
L 83.328 110.222291 
L 84.126545 108.395717 
L 85.191273 105.285143 
L 87.320727 98.197139 
L 87.853091 97.172902 
L 88.385455 96.493996 
L 88.917818 96.146806 
L 89.450182 96.121436 
L 89.982545 96.372944 
L 90.514909 96.871612 
L 91.313455 98.016054 
L 92.644364 100.404037 
L 93.709091 102.757409 
L 96.903273 120.726478 
L 97.435636 122.447829 
L 97.968 123.447189 
L 98.766545 124.089326 
L 99.565091 124.44767 
L 100.097455 124.41943 
L 100.629818 124.043918 
L 101.162182 123.368647 
L 101.960727 121.881335 
L 103.025455 119.191024 
L 104.356364 115.031499 
L 108.615273 100.909239 
L 109.413818 99.153962 
L 109.946182 98.373687 
L 110.478545 97.847161 
L 111.277091 96.476062 
L 112.075636 94.768599 
L 112.341818 95.120081 
L 113.140364 96.753021 
L 113.406545 97.710636 
L 116.600727 122.689468 
L 117.133091 127.298973 
L 117.399273 126.905692 
L 118.464 120.719808 
L 121.658182 100.256166 
L 122.456727 96.992445 
L 122.989091 95.687613 
L 123.255273 95.323611 
L 123.521455 95.184215 
L 123.787636 95.256606 
L 124.053818 95.573587 
L 124.586182 96.914998 
L 125.118545 99.261317 
L 125.384727 100.653494 
L 125.650909 100.249797 
L 126.183273 97.703337 
L 126.715636 96.062195 
L 126.981818 95.544883 
L 127.514182 97.313008 
L 128.046545 100.046786 
L 128.845091 105.663334 
L 129.909818 115.415595 
L 130.176 118.167881 
L 130.442182 117.059498 
L 131.240727 107.056029 
L 132.039273 99.526384 
L 132.837818 93.94904 
L 133.636364 89.972322 
L 134.434909 87.306342 
L 134.967273 86.166547 
L 135.499636 85.49535 
L 136.032 85.2679 
L 136.564364 85.472168 
L 137.096727 86.103179 
L 137.629091 87.166618 
L 138.161455 88.674461 
L 138.96 91.813604 
L 139.758545 96.057712 
L 140.557091 101.46302 
L 141.621818 110.525249 
L 144.017455 131.2223 
L 145.082182 136.963302 
L 145.348364 137.332595 
L 146.413091 134.83835 
L 150.405818 124.733978 
L 151.470545 122.854998 
L 152.269091 121.864468 
L 153.067636 121.287067 
L 153.6 121.162434 
L 154.132364 121.26372 
L 154.664727 121.61184 
L 155.197091 122.232353 
L 155.729455 123.141498 
L 156.261818 124.373502 
L 157.060364 126.89626 
L 157.326545 126.079544 
L 158.923636 114.380723 
L 160.254545 105.861013 
L 160.786909 103.613683 
L 162.650182 91.886404 
L 162.916364 91.275815 
L 163.448727 92.993284 
L 164.247273 96.62221 
L 165.312 102.78349 
L 166.642909 112.043042 
L 168.772364 127.31677 
L 169.570909 130.287922 
L 170.103273 131.532256 
L 170.635636 132.23686 
L 171.168 132.434402 
L 171.700364 132.176142 
L 172.232727 131.505137 
L 172.765091 130.477345 
L 173.563636 128.365365 
L 174.628364 124.769053 
L 177.290182 115.05285 
L 178.088727 113.118374 
L 178.887273 110.684819 
L 179.685818 107.598766 
L 180.218182 105.789771 
L 181.016727 103.377458 
L 182.081455 99.200846 
L 183.146182 93.928782 
L 183.412364 92.442974 
L 183.678545 91.868388 
L 184.477091 93.010588 
L 185.275636 93.754859 
L 186.340364 94.528027 
L 187.405091 95.094739 
L 188.736 95.784444 
L 189.002182 95.98513 
L 191.131636 104.035888 
L 192.196364 106.665209 
L 192.994909 108.131607 
L 193.793455 109.519546 
L 195.124364 112.891935 
L 198.584727 122.083088 
L 199.649455 124.177791 
L 200.448 125.315508 
L 200.980364 125.829594 
L 201.512727 126.113634 
L 202.045091 126.161338 
L 202.577455 125.948678 
L 203.109818 125.456953 
L 203.376 125.104897 
L 203.642182 124.545867 
L 204.440727 118.767398 
L 205.771636 110.730391 
L 206.304 108.582134 
L 206.836364 107.093455 
L 207.368727 106.187672 
L 207.901091 105.788623 
L 208.433455 105.485775 
L 208.699636 105.507399 
L 209.232 105.875201 
L 209.764364 106.610642 
L 210.296727 107.661452 
L 211.095273 109.912281 
L 212.426182 114.690242 
L 213.757091 119.249172 
L 214.289455 120.59132 
L 214.821818 121.474249 
L 215.354182 121.840028 
L 216.152727 124.87321 
L 216.685091 126.130611 
L 217.217455 126.887649 
L 217.749818 127.248562 
L 218.282182 127.311302 
L 219.080727 127.057307 
L 220.411636 126.439938 
L 220.944 126.3553 
L 221.476364 126.461535 
L 222.008727 126.816461 
L 222.541091 127.457696 
L 223.073455 128.415448 
L 223.872 130.50143 
L 224.670545 133.366484 
L 225.469091 136.99511 
L 226.533818 142.904691 
L 226.8 144.545682 
L 227.598545 154.862291 
L 227.864727 155.092584 
L 228.929455 150.078575 
L 233.188364 128.530321 
L 234.253091 124.746936 
L 235.584 120.725986 
L 236.382545 119.027654 
L 236.648727 118.598341 
L 236.914909 119.396823 
L 237.447273 121.551013 
L 237.979636 123.032994 
L 238.512 123.959007 
L 239.044364 124.402371 
L 239.310545 123.4976 
L 243.303273 98.71109 
L 244.368 94.252161 
L 245.166545 91.801411 
L 245.698909 90.640731 
L 246.231273 89.982054 
L 246.497455 89.916006 
L 247.029818 90.127956 
L 247.562182 90.711563 
L 248.360727 92.072793 
L 249.691636 95.018029 
L 251.554909 99.378132 
L 251.821091 100.484109 
L 253.418182 111.653287 
L 254.482909 117.80519 
L 255.547636 122.682661 
L 256.346182 125.344294 
L 256.878545 126.566539 
L 257.410909 127.296458 
L 257.677091 127.412698 
L 257.943273 127.326994 
L 258.475636 126.664791 
L 259.008 125.372042 
L 259.540364 123.322228 
L 260.072727 120.602119 
L 261.403636 116.997003 
L 263.000727 111.898699 
L 265.396364 103.399793 
L 270.187636 85.891584 
L 271.518545 83.051899 
L 272.849455 80.774881 
L 274.180364 78.887699 
L 274.446545 80.361534 
L 275.777455 95.451169 
L 276.842182 105.380388 
L 278.173091 112.71454 
L 279.237818 117.478914 
L 280.036364 120.289566 
L 280.834909 122.396379 
L 281.367273 123.393497 
L 281.633455 123.628138 
L 282.432 121.437643 
L 282.698182 121.126047 
L 283.496727 120.804036 
L 285.626182 120.166737 
L 286.424727 119.631819 
L 287.223273 118.80168 
L 288.021818 117.616997 
L 288.820364 116.039908 
L 290.151273 113.015912 
L 290.949818 113.205663 
L 291.748364 113.159134 
L 292.280727 113.0225 
L 292.546909 113.493995 
L 293.345455 115.982908 
L 294.410182 116.90739 
L 295.208727 117.887176 
L 296.007273 119.326729 
L 296.805818 121.405002 
L 297.604364 124.294469 
L 298.402909 128.148713 
L 299.201455 133.111108 
L 300 139.308146 
L 300.798545 146.220845 
L 301.064727 146.295409 
L 301.863273 145.836285 
L 302.928 145.507111 
L 305.856 144.863702 
L 306.920727 144.285618 
L 307.719273 143.624863 
L 308.784 142.377249 
L 309.848727 140.676579 
L 310.381091 139.499127 
L 311.179636 137.180733 
L 311.978182 134.665603 
L 312.510545 138.610937 
L 313.042909 140.592898 
L 313.575273 141.234735 
L 313.841455 141.278708 
L 314.107636 141.178761 
L 314.64 140.615069 
L 315.172364 139.652397 
L 315.970909 137.673921 
L 317.301818 133.556769 
L 321.560727 119.486765 
L 322.359273 117.907707 
L 322.891636 117.398404 
L 323.157818 117.379596 
L 323.424 117.533699 
L 323.690182 117.894257 
L 324.222545 119.397889 
L 324.754909 122.193287 
L 325.287273 126.676328 
L 325.819636 132.5288 
L 326.085818 131.107262 
L 326.884364 124.940105 
L 327.416727 122.494139 
L 327.949091 120.754062 
L 328.481455 119.583158 
L 329.013818 118.870106 
L 329.546182 118.520975 
L 330.078545 118.460395 
L 330.610909 118.622481 
L 331.409455 119.181976 
L 332.474182 120.323273 
L 334.071273 122.487769 
L 334.869818 123.653507 
L 335.136 123.755832 
L 335.668364 123.373268 
L 336.466909 122.460432 
L 337.531636 120.838672 
L 338.596364 118.72158 
L 339.661091 116.064539 
L 339.927273 115.307993 
L 340.193455 114.950142 
L 342.056727 119.190888 
L 343.92 123.455964 
L 344.984727 125.180076 
L 345.783273 126.15948 
L 346.315636 126.618836 
L 346.581818 126.631166 
L 347.380364 124.891335 
L 348.178909 122.558957 
L 349.243636 118.577647 
L 350.308364 113.723195 
L 351.905455 105.198537 
L 353.768727 94.837025 
L 355.365818 88.47104 
L 355.898182 86.204711 
L 356.962909 80.358417 
L 357.761455 77.056177 
L 358.56 74.595886 
L 359.358545 72.847581 
L 359.890909 72.013505 
L 360.423273 69.722544 
L 360.955636 68.177877 
L 361.488 67.442081 
L 361.754182 67.385082 
L 362.020364 67.541317 
L 362.286545 67.917704 
L 362.552727 68.522416 
L 362.818909 70.940606 
L 363.883636 85.283209 
L 364.948364 96.810212 
L 365.746909 103.507613 
L 366.545455 108.429452 
L 367.077818 110.666065 
L 367.610182 112.020899 
L 367.876364 112.369127 
L 368.142545 112.462759 
L 368.408727 112.324403 
L 368.674909 111.952609 
L 369.207273 110.417264 
L 369.739636 107.842237 
L 370.272 104.162462 
L 371.070545 97.069866 
L 371.602909 99.935467 
L 372.135273 101.736589 
L 372.401455 102.243404 
L 372.667636 102.510085 
L 372.933818 102.520254 
L 373.2 102.30095 
L 373.732364 101.15629 
L 374.264727 99.121813 
L 374.797091 96.250225 
L 375.595636 91.211106 
L 376.394182 95.22309 
L 377.192727 97.651341 
L 379.322182 103.547499 
L 380.386909 105.894775 
L 381.185455 107.142444 
L 381.717818 107.663912 
L 382.250182 107.901286 
L 382.782545 107.81848 
L 383.314909 107.387527 
L 383.847273 106.586394 
L 384.379636 105.395915 
L 385.178182 102.851069 
L 385.976727 99.392183 
L 387.041455 94.344617 
L 387.84 97.134766 
L 388.638545 99.00631 
L 389.170909 99.748176 
L 389.703273 100.101079 
L 390.235636 100.08916 
L 390.768 99.747028 
L 391.034182 100.443895 
L 391.832727 105.069994 
L 392.365091 107.243211 
L 392.897455 108.696132 
L 393.163636 109.151334 
L 394.494545 109.803777 
L 396.091636 110.3139 
L 398.221091 110.928344 
L 398.753455 111.48609 
L 399.285818 111.768407 
L 399.818182 111.784591 
L 400.350545 111.53743 
L 400.882909 111.036602 
L 401.415273 110.283719 
L 402.48 108.377319 
L 403.278545 108.204954 
L 404.343273 107.719381 
L 407.537455 105.947482 
L 408.069818 105.900625 
L 408.602182 106.046035 
L 409.134545 106.449705 
L 409.666909 107.195534 
L 410.199273 108.828666 
L 410.997818 112.605052 
L 411.796364 117.513359 
L 412.062545 117.438099 
L 412.328727 117.13998 
L 412.594909 117.016003 
L 412.861091 117.041837 
L 413.127273 116.861162 
L 413.925818 114.231322 
L 414.458182 113.123267 
L 414.990545 112.447259 
L 415.522909 112.113874 
L 416.055273 112.02776 
L 416.853818 112.225604 
L 417.918545 112.7895 
L 419.515636 113.657037 
L 420.580364 114.011062 
L 421.645091 114.147669 
L 425.105455 114.248682 
L 425.904 114.565253 
L 426.436364 114.895412 
L 426.436364 114.895412 
" clip-path="url(#pf94000dfc4)" style="fill: none; stroke: #0000ff; stroke-width: 3; stroke-linecap: square"/>
   </g>
   <g id="patch_3">
    <path d="M 7.2 331.2 
L 7.2 7.2 
" style="fill: none; stroke: #000000; stroke-width: 0.8; stroke-linejoin: miter; stroke-linecap: square"/>
   </g>
   <g id="patch_4">
    <path d="M 446.4 331.2 
L 446.4 7.2 
" style="fill: none; stroke: #000000; stroke-width: 0.8; stroke-linejoin: miter; stroke-linecap: square"/>
   </g>
   <g id="patch_5">
    <path d="M 7.2 331.2 
L 446.4 331.2 
" style="fill: none; stroke: #000000; stroke-width: 0.8; stroke-linejoin: miter; stroke-linecap: square"/>
   </g>
   <g id="patch_6">
    <path d="M 7.2 7.2 
L 446.4 7.2 
" style="fill: none; stroke: #000000; stroke-width: 0.8; stroke-linejoin: miter; stroke-linecap: square"/>
   </g>
  </g>
 </g>
 <defs>
  <clipPath id="pf94000dfc4">
   <rect x="7.2" y="7.2" width="439.2" height="324"/>
  </clipPath>
 </defs>
</svg>
