<?xml version="1.0" encoding="utf-8" standalone="no"?>
<!DOCTYPE svg PUBLIC "-//W3C//DTD SVG 1.1//EN"
  "http://www.w3.org/Graphics/SVG/1.1/DTD/svg11.dtd">
<svg xmlns:xlink="http://www.w3.org/1999/xlink" width="453.6pt" height="338.4pt" viewBox="0 0 453.6 338.4" xmlns="http://www.w3.org/2000/svg" version="1.1">
 <metadata>
  <rdf:RDF xmlns:dc="http://purl.org/dc/elements/1.1/" xmlns:cc="http://creativecommons.org/ns#" xmlns:rdf="http://www.w3.org/1999/02/22-rdf-syntax-ns#">
   <cc:Work>
    <dc:type rdf:resource="http://purl.org/dc/dcmitype/StillImage"/>
    <dc:date>2025-05-14T08:57:29.559227</dc:date>
    <dc:format>image/svg+xml</dc:format>
    <dc:creator>
     <cc:Agent>
      <dc:title>Matplotlib v3.10.1, https://matplotlib.org/</dc:title>
     </cc:Agent>
    </dc:creator>
   </cc:Work>
  </rdf:RDF>
 </metadata>
 <defs>
  <style type="text/css">*{stroke-linejoin: round; stroke-linecap: butt}</style>
 </defs>
 <g id="figure_1">
  <g id="patch_1">
   <path d="M 0 338.4 
L 453.6 338.4 
L 453.6 0 
L 0 0 
z
" style="fill: #ffffff"/>
  </g>
  <g id="axes_1">
   <g id="patch_2">
    <path d="M 7.2 331.2 
L 446.4 331.2 
L 446.4 7.2 
L 7.2 7.2 
z
" style="fill: #ffffff"/>
   </g>
   <g id="matplotlib.axis_1"/>
   <g id="matplotlib.axis_2"/>
   <g id="line2d_1">
    <path d="M 27.163636 316.472727 
L 32.221091 293.543683 
L 37.278545 271.633534 
L 42.336 250.74233 
L 47.127273 231.890566 
L 51.918545 213.953251 
L 56.443636 197.852165 
L 60.968727 182.566766 
L 65.227636 168.925667 
L 69.486545 156.007127 
L 73.745455 143.811145 
L 77.738182 133.033624 
L 81.730909 122.89117 
L 85.457455 113.997866 
L 89.184 105.657752 
L 92.910545 97.870867 
L 96.370909 91.135489 
L 99.831273 84.877157 
L 103.291636 79.095832 
L 106.485818 74.182605 
L 109.68 69.675799 
L 112.608 65.901554 
L 115.536 62.468895 
L 118.464 59.377703 
L 121.392 56.628097 
L 124.053818 54.424816 
L 126.715636 52.503726 
L 129.377455 50.864983 
L 131.773091 49.631392 
L 134.168727 48.62637 
L 136.564364 47.850033 
L 138.96 47.302264 
L 141.355636 46.983181 
L 143.751273 46.892705 
L 146.146909 47.030798 
L 148.542545 47.397576 
L 150.938182 47.992961 
L 153.333818 48.816954 
L 155.729455 49.869554 
L 158.125091 51.150801 
L 160.786909 52.842581 
L 163.448727 54.816553 
L 166.110545 57.072793 
L 168.772364 59.611263 
L 171.700364 62.729636 
L 174.628364 66.189478 
L 177.556364 69.990904 
L 180.750545 74.52731 
L 183.944727 79.470234 
L 187.138909 84.819576 
L 190.599273 91.073346 
L 194.059636 97.804141 
L 197.52 105.011942 
L 201.246545 113.307599 
L 204.973091 122.156502 
L 208.699636 131.558596 
L 212.692364 142.246147 
L 216.685091 153.568784 
L 220.944 166.346249 
L 225.202909 179.846233 
L 229.461818 194.068834 
L 233.986909 209.972062 
L 238.512 226.690918 
L 243.303273 245.282311 
L 248.094545 264.788299 
L 252.885818 285.208726 
L 253.152 286.369966 
L 253.418182 286.509852 
L 258.741818 269.714297 
L 264.065455 253.64792 
L 269.389091 238.310643 
L 274.446545 224.415588 
L 279.504 211.178549 
L 284.295273 199.245122 
L 289.086545 187.902284 
L 293.877818 177.150093 
L 298.402909 167.537468 
L 302.928 158.451611 
L 307.186909 150.381443 
L 311.445818 142.777888 
L 315.704727 135.640965 
L 319.697455 129.373917 
L 323.690182 123.516993 
L 327.682909 118.070194 
L 331.409455 113.356463 
L 335.136 109.000092 
L 338.862545 105.000964 
L 342.322909 101.607342 
L 345.783273 98.521825 
L 349.243636 95.744295 
L 352.437818 93.453854 
L 355.632 91.425909 
L 358.826182 89.660461 
L 362.020364 88.157471 
L 365.214545 86.916938 
L 368.142545 86.010367 
L 371.070545 85.324369 
L 373.998545 84.858926 
L 376.926545 84.614017 
L 379.854545 84.589682 
L 382.782545 84.785921 
L 385.710545 85.202695 
L 388.638545 85.840003 
L 391.566545 86.697885 
L 394.494545 87.776341 
L 397.422545 89.075332 
L 400.616727 90.743948 
L 403.810909 92.675021 
L 407.005091 94.868611 
L 410.199273 97.324658 
L 413.659636 100.281618 
L 417.12 103.546605 
L 420.580364 107.119619 
L 424.040727 111.000719 
L 426.436364 113.868042 
L 426.436364 113.868042 
" clip-path="url(#p47388678c3)" style="fill: none; stroke-dasharray: 11.1,4.8; stroke-dashoffset: 0; stroke: #000000; stroke-width: 3"/>
   </g>
   <g id="line2d_2">
    <path d="M 27.163636 215.469286 
L 27.429818 215.920125 
L 28.494545 216.113712 
L 30.890182 216.129174 
L 34.882909 215.855992 
L 38.875636 215.153167 
L 39.674182 214.905002 
L 40.206545 214.597247 
L 41.537455 214.218185 
L 43.400727 213.719067 
L 43.933091 213.506702 
L 44.465455 213.128985 
L 47.127273 211.872405 
L 48.192 211.623343 
L 48.458182 211.16332 
L 50.055273 210.624775 
L 51.386182 210.017787 
L 52.184727 209.695136 
L 52.450909 209.417001 
L 52.717091 208.247289 
L 55.112727 205.123242 
L 55.645091 204.189761 
L 56.709818 201.595933 
L 56.976 200.102829 
L 58.040727 197.445687 
L 59.105455 195.146803 
L 60.170182 193.071728 
L 60.702545 191.686435 
L 60.968727 190.753695 
L 61.234909 192.67966 
L 62.033455 189.378054 
L 62.565818 186.357975 
L 63.630545 182.031575 
L 64.429091 178.942196 
L 64.961455 176.453722 
L 65.227636 174.861504 
L 65.76 170.557761 
L 67.090909 162.803712 
L 67.623273 160.594289 
L 68.688 157.996229 
L 69.486545 156.924442 
L 69.752727 153.871215 
L 70.551273 152.552511 
L 71.083636 151.227567 
L 71.616 150.372356 
L 71.882182 149.880569 
L 72.414545 149.535825 
L 72.946909 149.220525 
L 73.479273 149.163588 
L 73.745455 149.022005 
L 74.011636 148.466086 
L 74.810182 148.019459 
L 75.874909 146.373209 
L 76.673455 144.987973 
L 78.004364 142.333328 
L 78.270545 138.901584 
L 79.867636 131.751598 
L 82.795636 114.461204 
L 83.860364 103.82942 
L 84.925091 92.469383 
L 85.723636 86.912492 
L 86.256 84.507649 
L 86.522182 82.795317 
L 86.788364 79.093141 
L 87.586909 74.833466 
L 88.119273 71.207258 
L 89.450182 64.179784 
L 90.248727 61.652272 
L 90.514909 61.100526 
L 90.781091 60.005418 
L 91.313455 56.525453 
L 91.845818 53.631476 
L 92.378182 50.038962 
L 93.442909 44.297961 
L 93.975273 43.565224 
L 94.507636 42.55092 
L 94.773818 42.601032 
L 95.04 41.964855 
L 95.572364 41.261094 
L 95.838545 41.239723 
L 96.104727 40.725102 
L 96.637091 39.247344 
L 96.903273 38.988162 
L 97.435636 37.760148 
L 97.701818 37.732225 
L 98.234182 38.476701 
L 98.500364 38.454004 
L 98.766545 38.902873 
L 99.032727 39.608506 
L 99.298909 39.814495 
L 99.565091 39.481762 
L 100.363636 41.353285 
L 100.629818 41.471372 
L 101.162182 42.359361 
L 101.428364 42.149706 
L 101.694545 41.748103 
L 102.493091 42.994563 
L 102.759273 43.095802 
L 103.291636 44.65768 
L 103.557818 44.506757 
L 103.824 42.282612 
L 104.356364 43.399832 
L 104.622545 43.242826 
L 104.888727 42.868521 
L 105.154909 43.209794 
L 105.421091 43.744771 
L 105.687273 43.599503 
L 105.953455 43.245244 
L 106.485818 44.14345 
L 106.752 44.164041 
L 107.018182 44.020294 
L 107.550545 44.922868 
L 107.816727 44.846431 
L 108.082909 44.104647 
L 108.349091 44.386994 
L 108.615273 44.894087 
L 108.881455 45.12441 
L 109.147636 45.174952 
L 109.946182 46.698299 
L 110.212364 46.842086 
L 111.010909 48.977822 
L 111.277091 49.148478 
L 111.809455 50.47582 
L 112.075636 50.055771 
L 112.341818 42.232851 
L 112.608 42.364859 
L 112.874182 42.777811 
L 113.140364 42.523543 
L 113.406545 41.835069 
L 113.672727 41.902614 
L 113.938909 42.328708 
L 114.205091 42.294156 
L 114.471273 42.044333 
L 115.003636 42.71479 
L 115.269818 42.704807 
L 115.536 42.827924 
L 116.068364 43.668491 
L 116.334545 43.577352 
L 116.600727 43.191231 
L 117.133091 44.189858 
L 117.399273 44.404972 
L 117.665455 44.86944 
L 118.197818 46.540708 
L 118.464 46.973939 
L 118.730182 47.745557 
L 119.262545 50.110251 
L 119.528727 50.650298 
L 119.794909 51.514576 
L 120.327273 53.772415 
L 120.593455 53.756855 
L 120.859636 52.160308 
L 121.392 53.600355 
L 121.924364 53.55266 
L 122.456727 54.940177 
L 122.989091 55.163675 
L 123.521455 56.865206 
L 124.053818 57.084921 
L 124.586182 58.44354 
L 124.852364 58.443384 
L 125.118545 58.213841 
L 125.384727 58.593527 
L 125.650909 59.213755 
L 125.917091 59.340655 
L 126.183273 59.342566 
L 126.449455 59.832734 
L 126.715636 60.635044 
L 126.981818 60.980607 
L 127.248 61.139992 
L 127.514182 61.69014 
L 127.780364 62.555081 
L 128.046545 62.945686 
L 128.312727 63.113106 
L 128.578909 63.418149 
L 129.111273 64.463496 
L 129.377455 62.864453 
L 129.643636 62.627149 
L 129.909818 62.653005 
L 130.176 62.347181 
L 131.240727 60.136179 
L 132.837818 55.402461 
L 133.370182 53.898964 
L 133.902545 52.126262 
L 134.701091 50.3201 
L 135.765818 49.057885 
L 136.298182 49.17757 
L 136.564364 48.934729 
L 136.830545 48.868354 
L 137.362909 49.16006 
L 137.629091 48.889296 
L 137.895273 48.032232 
L 138.427636 48.273202 
L 138.96 47.899756 
L 139.492364 48.183116 
L 140.024727 47.902173 
L 140.557091 48.308301 
L 141.089455 47.987735 
L 141.621818 48.308769 
L 142.420364 47.911533 
L 142.686545 48.101532 
L 142.952727 48.109098 
L 143.218909 47.991401 
L 143.485091 48.050991 
L 143.751273 48.277258 
L 144.017455 48.293754 
L 144.283636 48.19661 
L 144.549818 48.35814 
L 144.816 48.775187 
L 145.082182 48.948222 
L 145.348364 48.951303 
L 145.614545 49.080699 
L 145.880727 49.445293 
L 146.146909 49.44112 
L 146.413091 48.773471 
L 146.679273 48.706238 
L 146.945455 48.8751 
L 147.211636 48.753582 
L 147.477818 48.269614 
L 147.744 48.022171 
L 148.010182 48.041748 
L 148.808727 47.366338 
L 149.074909 47.46867 
L 149.873455 47.011104 
L 150.139636 47.078298 
L 150.405818 46.695179 
L 150.672 45.681772 
L 150.938182 45.643593 
L 151.204364 45.724436 
L 152.002909 44.992479 
L 152.269091 45.169726 
L 152.801455 44.658187 
L 153.333818 45.774744 
L 153.866182 45.832072 
L 154.398545 47.176456 
L 154.664727 46.959275 
L 154.930909 44.584285 
L 155.197091 44.659552 
L 155.463273 45.046921 
L 155.729455 44.619735 
L 155.995636 43.856345 
L 156.261818 43.801202 
L 156.528 44.23377 
L 156.794182 43.897566 
L 157.060364 43.342115 
L 157.326545 43.487383 
L 157.592727 44.047124 
L 157.858909 43.843008 
L 158.125091 43.333067 
L 158.391273 43.225822 
L 158.657455 43.598099 
L 158.923636 43.314465 
L 159.189818 42.461068 
L 159.456 42.152007 
L 159.722182 42.319037 
L 159.988364 42.157194 
L 160.254545 41.651076 
L 160.520727 41.482096 
L 160.786909 41.792015 
L 161.053091 41.822434 
L 161.319273 41.566449 
L 161.585455 41.653961 
L 161.851636 42.050807 
L 162.117818 42.069175 
L 162.384 41.842011 
L 162.650182 41.790065 
L 162.916364 41.912987 
L 163.182545 41.658329 
L 163.448727 29.703512 
L 164.247273 27.954872 
L 164.513455 26.671949 
L 165.312 25.668915 
L 165.578182 25.0054 
L 166.110545 24.914066 
L 166.642909 23.9567 
L 167.175273 23.759174 
L 167.441455 23.265457 
L 167.707636 22.29019 
L 168.24 22.335896 
L 168.772364 21.927273 
L 169.304727 22.277398 
L 169.570909 22.209932 
L 169.837091 22.26371 
L 170.635636 23.634302 
L 170.901818 23.944532 
L 172.232727 26.955192 
L 172.765091 28.790408 
L 173.031273 29.474515 
L 173.563636 32.188321 
L 174.362182 35.945562 
L 174.894545 39.484102 
L 175.426909 42.264751 
L 177.024 54.13346 
L 179.153455 65.427414 
L 179.952 67.858405 
L 180.218182 68.612942 
L 180.484364 65.520464 
L 180.750545 66.142797 
L 181.549091 68.486861 
L 182.081455 69.945628 
L 182.613818 71.421358 
L 183.678545 73.825636 
L 185.009455 76.366719 
L 186.340364 79.458144 
L 187.138909 81.718245 
L 189.002182 88.028075 
L 190.599273 95.2264 
L 191.664 98.580829 
L 192.728727 100.739808 
L 195.656727 106.129358 
L 196.455273 107.895079 
L 199.383273 112.953378 
L 201.512727 117.924477 
L 204.174545 125.596435 
L 207.102545 136.658798 
L 207.901091 140.711061 
L 208.433455 143.96238 
L 212.692364 175.630197 
L 213.490909 181.857487 
L 214.555636 187.135502 
L 215.620364 190.972202 
L 216.951273 193.89381 
L 218.548364 197.268675 
L 219.346909 198.820491 
L 220.145455 199.82405 
L 222.541091 202.117125 
L 223.605818 203.796036 
L 224.670545 205.593716 
L 225.469091 206.572278 
L 228.663273 209.4552 
L 230.526545 210.790693 
L 232.922182 212.337419 
L 234.253091 213.391657 
L 235.317818 213.802094 
L 237.447273 214.248896 
L 239.044364 214.678676 
L 241.44 215.501148 
L 243.569455 215.761304 
L 251.554909 216.271479 
L 255.813818 216.336625 
L 259.008 216.214795 
L 265.130182 215.407844 
L 265.928727 215.023127 
L 267.525818 214.243768 
L 268.324364 213.744708 
L 269.921455 212.310569 
L 270.986182 210.98155 
L 272.050909 209.607293 
L 275.511273 204.838711 
L 276.043636 203.529327 
L 277.374545 199.2787 
L 278.705455 194.340339 
L 279.237818 191.792139 
L 280.302545 187.556799 
L 281.367273 182.665022 
L 281.899636 181.364413 
L 282.698182 180.151784 
L 283.230545 179.377611 
L 283.762909 178.143533 
L 284.295273 175.933116 
L 285.36 168.535666 
L 285.892364 164.99309 
L 286.690909 161.48764 
L 288.021818 156.831782 
L 288.820364 153.125082 
L 289.885091 147.40941 
L 290.151273 146.491783 
L 290.683636 145.718683 
L 291.216 144.68488 
L 292.813091 142.615577 
L 293.345455 141.769394 
L 294.144 140.768545 
L 294.676364 139.846179 
L 294.942545 139.504048 
L 295.474909 138.364794 
L 296.805818 136.799543 
L 297.072 136.640606 
L 297.870545 135.565114 
L 298.402909 135.275162 
L 298.669091 135.024891 
L 299.201455 135.310397 
L 299.733818 135.180163 
L 300.266182 135.61587 
L 301.330909 136.767447 
L 302.129455 137.723196 
L 303.726545 141.34527 
L 307.719273 151.237823 
L 310.381091 155.945724 
L 310.913455 157.497969 
L 312.244364 162.575397 
L 313.042909 166.430076 
L 314.906182 176.069629 
L 315.438545 177.537969 
L 316.237091 178.269614 
L 316.503273 178.254054 
L 317.035636 177.936726 
L 317.568 177.291598 
L 318.100364 175.980849 
L 318.632727 174.300164 
L 321.826909 160.027587 
L 322.359273 158.513131 
L 323.424 156.382114 
L 323.956364 155.655149 
L 324.222545 155.186819 
L 324.488727 156.839563 
L 325.553455 154.951758 
L 326.618182 153.886191 
L 327.416727 153.302466 
L 331.143273 150.722072 
L 331.675636 150.142286 
L 332.740364 148.685782 
L 333.538909 147.342528 
L 334.869818 144.809108 
L 336.200727 141.498162 
L 336.999273 139.587095 
L 338.596364 136.461292 
L 340.992 131.697234 
L 341.258182 131.505051 
L 341.524364 131.722291 
L 342.322909 130.931544 
L 343.387636 129.328075 
L 344.186182 127.95684 
L 344.984727 127.215367 
L 345.783273 127.223518 
L 346.315636 127.712848 
L 346.581818 127.944087 
L 346.848 128.001239 
L 347.380364 127.864258 
L 347.646545 127.555158 
L 348.977455 125.113014 
L 349.243636 124.717436 
L 349.776 124.270653 
L 350.042182 123.903056 
L 350.308364 123.827789 
L 350.574545 123.919942 
L 350.840727 123.828452 
L 351.905455 122.507194 
L 352.704 120.827074 
L 353.236364 120.040597 
L 353.502545 119.647827 
L 353.768727 119.585371 
L 354.567273 119.900048 
L 355.365818 120.968013 
L 355.632 121.026354 
L 356.164364 121.557354 
L 356.962909 121.772858 
L 357.229091 122.044656 
L 357.761455 122.180818 
L 358.293818 122.748826 
L 358.56 125.910644 
L 358.826182 126.242362 
L 359.092364 126.313924 
L 359.624727 126.034073 
L 360.423273 124.360388 
L 361.221818 121.968044 
L 362.552727 117.775426 
L 363.617455 115.964974 
L 364.149818 114.740041 
L 364.682182 113.038608 
L 366.811636 104.717935 
L 367.876364 103.277615 
L 368.408727 102.767207 
L 369.207273 101.941498 
L 369.739636 101.123901 
L 370.272 100.436831 
L 370.804364 99.948359 
L 371.070545 100.01682 
L 371.869091 100.935598 
L 372.401455 101.999215 
L 373.732364 103.563491 
L 374.264727 104.000485 
L 374.530909 103.938205 
L 375.063273 104.086515 
L 375.329455 104.317463 
L 375.595636 103.859585 
L 376.128 104.596885 
L 376.926545 106.14913 
L 377.725091 107.35314 
L 379.056 108.96008 
L 379.588364 109.710191 
L 379.854545 110.783655 
L 380.386909 111.977097 
L 381.717818 115.401918 
L 382.782545 117.193788 
L 383.048727 117.40664 
L 383.847273 118.645125 
L 384.113455 118.72589 
L 385.444364 120.440407 
L 385.976727 120.883231 
L 386.509091 120.86849 
L 387.041455 121.037313 
L 387.573818 120.933383 
L 388.372364 121.501801 
L 388.638545 121.772292 
L 391.034182 125.981932 
L 391.300364 126.324726 
L 391.566545 127.013162 
L 391.832727 127.283283 
L 392.098909 127.944731 
L 392.365091 127.902125 
L 392.631273 129.209189 
L 392.897455 129.287302 
L 393.163636 129.65603 
L 393.696 129.918605 
L 393.962182 130.090177 
L 394.228364 130.406336 
L 394.760727 130.507087 
L 395.026909 130.343997 
L 395.293091 130.476123 
L 395.559273 130.47622 
L 396.357818 131.136499 
L 397.688727 132.904735 
L 397.954909 133.423333 
L 398.221091 133.573632 
L 399.019636 134.898693 
L 399.285818 134.81241 
L 400.084364 135.255546 
L 400.350545 134.939739 
L 400.882909 135.011417 
L 401.149091 136.345604 
L 401.415273 136.333573 
L 401.947636 136.864748 
L 402.746182 137.802459 
L 403.278545 138.651275 
L 403.544727 138.776868 
L 404.343273 139.924682 
L 404.609455 140.039103 
L 405.141818 140.805574 
L 405.674182 141.398502 
L 406.472727 143.189435 
L 406.738909 143.525522 
L 407.537455 145.233818 
L 407.803636 145.42253 
L 408.602182 146.444224 
L 408.868364 146.52885 
L 409.666909 147.540269 
L 409.933091 147.841335 
L 410.997818 149.584281 
L 411.796364 150.928919 
L 412.062545 151.027058 
L 412.594909 151.582119 
L 412.861091 152.08036 
L 413.127273 152.083519 
L 413.659636 152.584704 
L 414.192 153.851287 
L 415.789091 157.927027 
L 416.055273 159.493409 
L 416.321455 159.857983 
L 416.587636 160.590175 
L 416.853818 160.858931 
L 417.12 162.899842 
L 417.386182 162.613167 
L 417.652364 164.134896 
L 417.918545 162.700055 
L 418.184727 171.313507 
L 418.983273 174.601834 
L 419.515636 176.99956 
L 421.378909 184.209156 
L 421.645091 184.590246 
L 421.911273 185.368104 
L 422.177455 185.724235 
L 422.443636 183.893816 
L 422.976 185.561086 
L 423.242182 186.043825 
L 423.508364 187.215175 
L 423.774545 186.910736 
L 424.040727 186.853545 
L 424.306909 186.511297 
L 424.573091 187.209618 
L 425.105455 184.49277 
L 425.371636 181.830461 
L 425.637818 180.359001 
L 426.170182 161.554756 
L 426.436364 124.476427 
L 426.436364 124.476427 
" clip-path="url(#p47388678c3)" style="fill: none; stroke-dasharray: 3,4.95; stroke-dashoffset: 0; stroke: #ffa500; stroke-width: 3"/>
   </g>
   <g id="line2d_3">
    <path d="M 27.163636 208.534667 
L 27.429818 232.870669 
L 27.962182 246.057585 
L 28.228364 252.791373 
L 29.026909 257.189238 
L 29.293091 259.49446 
L 30.091636 260.745561 
L 30.357818 261.547598 
L 30.890182 261.461451 
L 31.156364 261.599017 
L 31.422545 264.222425 
L 31.688727 264.211447 
L 31.954909 264.398327 
L 32.753455 265.525959 
L 33.019636 265.428386 
L 33.285818 265.478732 
L 33.552 265.725533 
L 33.818182 265.791381 
L 34.882909 265.064611 
L 35.415273 264.144507 
L 35.681455 267.512254 
L 36.213818 266.830468 
L 36.48 266.561615 
L 36.746182 266.491808 
L 37.278545 265.535143 
L 38.077091 263.5842 
L 38.609455 261.972113 
L 39.674182 257.524545 
L 39.940364 254.649286 
L 40.472727 252.462482 
L 41.005091 250.72443 
L 42.868364 243.756857 
L 43.933091 238.957565 
L 44.199273 236.705156 
L 45.530182 231.761053 
L 46.062545 230.249366 
L 46.861091 228.452018 
L 47.659636 227.442705 
L 48.192 226.93179 
L 48.458182 224.023344 
L 48.990545 223.650736 
L 49.256727 223.721732 
L 50.321455 222.769026 
L 50.587636 222.186861 
L 51.12 221.578821 
L 51.386182 221.181117 
L 52.450909 218.721443 
L 52.717091 215.351745 
L 54.048 209.117183 
L 54.580364 206.174457 
L 55.112727 202.226203 
L 55.645091 199.173697 
L 56.177455 195.718711 
L 56.709818 192.693836 
L 56.976 190.057929 
L 57.774545 186.626497 
L 59.105455 181.277467 
L 60.702545 174.432953 
L 60.968727 173.062108 
L 61.234909 173.810795 
L 63.630545 162.429602 
L 64.695273 155.501106 
L 66.824727 139.76516 
L 67.889455 134.497694 
L 68.954182 130.290082 
L 69.486545 129.042452 
L 69.752727 128.951996 
L 72.148364 124.774919 
L 72.680727 124.111716 
L 73.213091 123.05935 
L 73.745455 122.621829 
L 74.011636 122.760292 
L 75.342545 121.504394 
L 75.874909 121.337248 
L 76.939636 119.769989 
L 77.738182 118.449763 
L 78.004364 118.178317 
L 78.270545 115.574173 
L 79.069091 113.203805 
L 80.932364 104.835846 
L 82.795636 96.162278 
L 85.457455 80.270165 
L 87.054545 73.980497 
L 87.586909 72.123599 
L 88.119273 70.030332 
L 89.450182 65.792671 
L 90.781091 63.81051 
L 91.845818 60.618313 
L 92.644364 57.672195 
L 93.442909 54.892794 
L 94.507636 53.208111 
L 94.773818 53.070292 
L 95.04 52.795783 
L 95.306182 53.076765 
L 96.104727 52.880955 
L 97.435636 51.284798 
L 97.701818 51.154779 
L 98.234182 51.33066 
L 98.500364 51.203526 
L 98.766545 51.258982 
L 99.032727 51.446095 
L 99.298909 51.485132 
L 99.565091 51.31666 
L 100.363636 51.95896 
L 100.629818 51.992499 
L 101.162182 52.328273 
L 101.694545 51.881939 
L 102.493091 52.283425 
L 102.759273 52.249068 
L 103.291636 52.878226 
L 103.557818 52.819026 
L 103.824 52.124936 
L 104.090182 52.276171 
L 104.356364 52.590068 
L 104.888727 52.432086 
L 105.687273 52.993816 
L 105.953455 52.905056 
L 107.816727 54.683452 
L 108.082909 54.608341 
L 108.349091 54.798808 
L 108.881455 55.502375 
L 109.147636 55.723846 
L 111.277091 58.728344 
L 112.075636 59.451059 
L 112.341818 56.327381 
L 112.874182 56.903268 
L 113.140364 56.968005 
L 113.406545 56.824218 
L 114.737455 57.450841 
L 116.068364 58.297219 
L 116.600727 58.202025 
L 117.931636 59.510648 
L 118.996364 61.198762 
L 119.528727 62.230694 
L 120.593455 64.054327 
L 120.859636 63.421737 
L 121.658182 64.157321 
L 121.924364 64.226543 
L 122.190545 64.5046 
L 122.456727 64.955146 
L 122.989091 65.352694 
L 124.053818 66.636553 
L 124.32 66.896242 
L 124.586182 67.336649 
L 124.852364 67.481332 
L 125.118545 67.343668 
L 125.384727 67.484023 
L 125.917091 68.047664 
L 126.183273 68.11517 
L 126.449455 68.336328 
L 126.981818 69.089188 
L 127.248 69.25922 
L 127.514182 69.562665 
L 128.046545 70.445818 
L 128.845091 71.083946 
L 129.111273 71.381385 
L 129.643636 71.155585 
L 130.176 71.250078 
L 130.442182 71.078018 
L 130.708364 70.70929 
L 131.240727 70.374296 
L 132.837818 68.182831 
L 133.370182 67.381263 
L 133.902545 66.239591 
L 134.434909 65.508452 
L 135.499636 64.363739 
L 136.032 64.214259 
L 136.564364 64.068834 
L 136.830545 63.98179 
L 137.362909 64.064544 
L 137.629091 63.883827 
L 137.895273 63.316442 
L 140.290909 62.999153 
L 140.557091 63.146566 
L 140.823273 63.095283 
L 141.355636 62.885239 
L 141.621818 63.00317 
L 141.888 62.928683 
L 142.420364 62.522439 
L 142.952727 62.661195 
L 143.485091 62.458287 
L 144.017455 62.590764 
L 144.549818 62.481452 
L 145.082182 62.856147 
L 145.614545 62.770741 
L 145.880727 62.954227 
L 146.146909 62.974233 
L 146.413091 62.543576 
L 147.211636 62.612174 
L 147.744 62.190603 
L 148.276364 62.185612 
L 148.808727 61.994326 
L 149.074909 62.085776 
L 150.405818 61.859002 
L 150.672 61.358616 
L 151.204364 61.436495 
L 152.002909 61.27789 
L 152.269091 61.409626 
L 152.801455 61.269232 
L 153.333818 61.987696 
L 153.866182 62.08835 
L 154.398545 62.917452 
L 154.664727 62.825806 
L 154.930909 61.561485 
L 155.463273 61.96886 
L 155.729455 61.784086 
L 155.995636 61.42971 
L 156.261818 61.459621 
L 156.528 61.770281 
L 157.060364 61.372421 
L 157.326545 61.498698 
L 157.592727 61.853152 
L 157.858909 61.778432 
L 158.125091 61.514648 
L 158.391273 61.475767 
L 158.657455 61.729801 
L 158.923636 61.627314 
L 159.189818 61.148338 
L 159.456 61.030056 
L 159.722182 61.179497 
L 159.988364 61.183046 
L 160.254545 60.963798 
L 160.520727 60.953035 
L 161.053091 61.327456 
L 161.319273 61.242752 
L 161.585455 61.355496 
L 161.851636 61.62786 
L 162.117818 61.725043 
L 162.650182 61.709639 
L 162.916364 61.857442 
L 163.182545 61.832795 
L 163.448727 57.094203 
L 163.714909 57.078604 
L 164.247273 56.807176 
L 164.513455 56.413451 
L 165.844364 56.395901 
L 166.110545 56.477564 
L 166.642909 56.314356 
L 167.175273 56.428894 
L 167.707636 56.06703 
L 168.24 56.336078 
L 168.772364 56.499948 
L 169.304727 56.945113 
L 169.837091 57.287556 
L 170.635636 58.445646 
L 171.168 59.229588 
L 171.700364 60.089186 
L 172.232727 61.118309 
L 174.096 65.918206 
L 175.693091 71.551573 
L 177.822545 79.767049 
L 178.354909 81.379371 
L 179.685818 84.625287 
L 180.218182 85.686818 
L 180.484364 85.002985 
L 181.016727 85.922835 
L 181.549091 86.863394 
L 184.210909 90.530588 
L 186.872727 93.722844 
L 189.268364 97.741744 
L 190.333091 99.959512 
L 190.865455 100.954688 
L 192.196364 102.740668 
L 194.592 105.451862 
L 196.455273 108.122321 
L 197.786182 109.908185 
L 199.649455 112.935517 
L 201.778909 117.087927 
L 203.109818 119.945831 
L 204.706909 123.571279 
L 206.570182 127.813443 
L 207.634909 129.263708 
L 208.167273 129.902479 
L 208.699636 131.41243 
L 209.498182 134.650762 
L 210.562909 141.296307 
L 212.958545 159.352021 
L 213.224727 159.316689 
L 213.490909 159.503178 
L 214.023273 162.217978 
L 214.821818 166.420443 
L 215.354182 168.753666 
L 216.152727 170.844749 
L 216.951273 172.52522 
L 219.346909 176.542345 
L 221.476364 179.699717 
L 222.008727 180.85457 
L 223.073455 184.372753 
L 223.605818 186.349883 
L 224.138182 187.807675 
L 225.735273 194.708073 
L 229.195636 211.228272 
L 229.728 213.649201 
L 230.526545 220.058749 
L 234.253091 232.844774 
L 234.785455 234.533395 
L 236.648727 241.532732 
L 239.044364 253.365661 
L 239.576727 255.468053 
L 240.375273 257.790844 
L 241.44 259.310428 
L 242.770909 260.375137 
L 243.037091 260.484507 
L 243.569455 261.173527 
L 244.101818 261.554111 
L 244.634182 262.300009 
L 244.900364 262.491257 
L 245.432727 263.422299 
L 247.296 266.821167 
L 247.828364 268.57242 
L 248.360727 270.998731 
L 249.159273 275.016598 
L 249.691636 276.690673 
L 250.224 277.59276 
L 251.288727 278.751669 
L 252.619636 279.938072 
L 253.152 280.554419 
L 254.216727 280.806971 
L 255.015273 280.734103 
L 255.547636 280.503234 
L 256.08 279.875616 
L 256.612364 278.853435 
L 257.410909 276.412324 
L 259.540364 269.067521 
L 260.605091 266.364596 
L 261.936 262.411193 
L 263.266909 258.432851 
L 263.533091 258.171934 
L 263.799273 257.661506 
L 264.331636 256.241719 
L 264.597818 255.900114 
L 264.864 255.345891 
L 265.928727 250.213729 
L 267.259636 239.871526 
L 269.122909 224.745942 
L 269.921455 217.535878 
L 270.986182 211.231294 
L 272.849455 203.481827 
L 273.381818 200.262059 
L 274.180364 194.860536 
L 275.511273 185.908014 
L 276.842182 179.170823 
L 277.374545 176.108178 
L 278.439273 167.026904 
L 279.770182 158.512292 
L 280.302545 156.538458 
L 281.633455 153.619677 
L 282.165818 152.457765 
L 282.964364 150.051421 
L 284.029091 145.072093 
L 285.093818 138.900512 
L 285.892364 135.931736 
L 286.424727 134.590607 
L 286.957091 134.023866 
L 287.755636 133.156819 
L 288.288 132.597468 
L 288.820364 131.680679 
L 289.618909 130.332766 
L 290.151273 130.090021 
L 290.683636 130.304238 
L 291.482182 130.437554 
L 292.546909 130.148421 
L 294.410182 127.879428 
L 296.805818 124.82743 
L 298.402909 123.553047 
L 298.669091 123.474563 
L 299.467636 123.870843 
L 300 124.218181 
L 300.798545 125.429601 
L 301.597091 126.926001 
L 302.395636 128.791382 
L 303.726545 133.280697 
L 305.057455 137.907326 
L 306.388364 141.699139 
L 307.719273 145.012737 
L 309.050182 147.421461 
L 310.381091 149.430296 
L 312.510545 152.48171 
L 313.042909 153.460564 
L 313.575273 154.870973 
L 314.906182 159.470731 
L 315.172364 159.992878 
L 315.438545 160.823462 
L 315.704727 160.968145 
L 315.970909 161.766399 
L 316.503273 162.372002 
L 316.769455 162.437928 
L 317.035636 162.719983 
L 317.301818 162.721426 
L 317.568 162.884399 
L 317.834182 162.6041 
L 318.100364 162.612406 
L 318.366545 162.204622 
L 318.632727 162.03767 
L 318.898909 161.28013 
L 319.165091 160.880321 
L 319.431273 160.143041 
L 319.697455 159.736524 
L 319.963636 158.744546 
L 320.229818 158.398671 
L 321.028364 156.114703 
L 321.560727 155.022247 
L 321.826909 154.527321 
L 322.093091 153.782046 
L 322.625455 152.812083 
L 323.690182 150.742897 
L 323.956364 150.465581 
L 324.222545 149.428717 
L 324.488727 152.922331 
L 325.553455 150.501421 
L 326.352 149.31375 
L 327.416727 148.179215 
L 329.013818 146.577657 
L 330.078545 145.206129 
L 331.143273 143.367326 
L 332.208 140.807835 
L 333.805091 136.419759 
L 336.999273 129.105882 
L 337.531636 128.180611 
L 338.596364 126.082353 
L 340.992 121.400522 
L 341.258182 121.14838 
L 341.524364 121.511667 
L 342.855273 119.457691 
L 344.984727 116.026143 
L 345.517091 115.645384 
L 346.848 115.262539 
L 347.646545 114.412924 
L 349.509818 111.2755 
L 350.308364 110.387317 
L 350.840727 110.019037 
L 352.171636 108.127293 
L 352.704 107.238622 
L 353.236364 106.59094 
L 353.502545 106.181303 
L 353.768727 106.003861 
L 354.301091 105.869727 
L 354.567273 105.767552 
L 354.833455 105.833673 
L 355.099636 106.020397 
L 356.164364 105.840693 
L 356.962909 105.206914 
L 357.229091 105.173141 
L 358.027636 103.69901 
L 358.293818 103.347402 
L 358.56 101.0593 
L 359.092364 99.224533 
L 359.624727 98.402393 
L 360.157091 97.338483 
L 360.423273 97.16578 
L 361.221818 95.89711 
L 361.488 95.801584 
L 361.754182 95.553087 
L 362.020364 95.108352 
L 362.286545 94.883605 
L 362.552727 94.853986 
L 362.818909 94.99826 
L 363.351273 94.487501 
L 363.617455 94.457297 
L 363.883636 94.223776 
L 365.214545 92.305279 
L 366.279273 90.823426 
L 366.811636 90.182354 
L 367.077818 90.070371 
L 367.610182 89.442539 
L 368.142545 89.191469 
L 368.674909 88.714911 
L 368.941091 88.61646 
L 370.538182 87.317157 
L 370.804364 87.199051 
L 371.070545 87.299608 
L 371.336727 87.650026 
L 371.869091 87.823977 
L 372.135273 88.174142 
L 373.2 88.809813 
L 373.466182 88.719064 
L 374.264727 89.00611 
L 374.530909 88.661269 
L 375.329455 88.357629 
L 375.595636 87.570977 
L 376.128 87.50622 
L 376.394182 87.618652 
L 377.192727 87.285198 
L 377.458909 87.252401 
L 377.991273 86.800158 
L 378.523636 86.844635 
L 378.789818 86.609418 
L 379.322182 86.553475 
L 379.588364 86.626733 
L 379.854545 87.265309 
L 380.653091 87.368791 
L 380.919273 87.097149 
L 381.717818 86.993882 
L 381.984 86.589353 
L 382.516364 86.726432 
L 382.782545 86.80671 
L 383.048727 86.385705 
L 384.645818 87.13991 
L 384.912 87.394978 
L 385.178182 87.303449 
L 385.976727 87.904411 
L 386.242909 87.741652 
L 386.775273 88.167396 
L 387.041455 88.410315 
L 387.307636 88.26456 
L 388.106182 88.799439 
L 388.372364 89.445386 
L 391.300364 92.584721 
L 391.566545 92.658934 
L 392.098909 93.27688 
L 392.365091 93.293591 
L 392.631273 91.985572 
L 393.163636 92.727454 
L 394.494545 94.288064 
L 395.026909 94.566862 
L 395.559273 95.161253 
L 396.091636 95.642101 
L 396.624 96.428343 
L 396.890182 97.30083 
L 397.422545 98.184003 
L 398.487273 99.693759 
L 399.019636 100.332998 
L 399.818182 101.033133 
L 400.350545 100.981226 
L 400.882909 101.262656 
L 401.149091 103.24704 
L 401.415273 103.603952 
L 401.947636 104.556658 
L 402.213818 104.795035 
L 404.077091 108.071233 
L 404.343273 108.244502 
L 405.141818 109.509721 
L 405.674182 110.99173 
L 406.206545 112.137575 
L 406.472727 112.21368 
L 407.271273 113.529771 
L 407.537455 113.386004 
L 408.069818 113.916048 
L 408.336 114.004204 
L 408.602182 113.40718 
L 409.400727 113.864824 
L 409.666909 116.309153 
L 411.796364 121.424604 
L 412.062545 121.751448 
L 412.328727 122.333008 
L 412.594909 122.620951 
L 412.861091 123.219983 
L 413.127273 123.25434 
L 413.393455 123.916803 
L 413.659636 123.777014 
L 413.925818 125.830151 
L 414.724364 127.945667 
L 415.256727 129.090439 
L 415.522909 129.772011 
L 415.789091 130.087233 
L 416.055273 130.894534 
L 416.321455 131.125521 
L 416.587636 131.844491 
L 416.853818 131.39102 
L 417.12 132.307068 
L 417.386182 131.395525 
L 417.652364 133.247373 
L 417.918545 130.483084 
L 418.184727 138.987868 
L 418.983273 142.374061 
L 419.249455 143.191093 
L 419.781818 145.356155 
L 421.112727 149.092299 
L 421.378909 149.066112 
L 421.645091 149.680743 
L 421.911273 149.985689 
L 422.177455 149.892425 
L 422.443636 147.504078 
L 422.709818 148.527332 
L 422.976 148.933966 
L 423.242182 148.886447 
L 423.508364 147.826359 
L 423.774545 147.694097 
L 424.306909 145.393087 
L 424.573091 142.503984 
L 424.839273 140.887216 
L 425.105455 138.09165 
L 425.371636 133.552027 
L 425.904 118.110733 
L 426.170182 109.546984 
L 426.436364 79.287625 
L 426.436364 79.287625 
" clip-path="url(#p47388678c3)" style="fill: none; stroke: #ffa500; stroke-width: 3; stroke-linecap: square"/>
   </g>
   <g id="patch_3">
    <path d="M 7.2 331.2 
L 7.2 7.2 
" style="fill: none; stroke: #000000; stroke-width: 0.8; stroke-linejoin: miter; stroke-linecap: square"/>
   </g>
   <g id="patch_4">
    <path d="M 446.4 331.2 
L 446.4 7.2 
" style="fill: none; stroke: #000000; stroke-width: 0.8; stroke-linejoin: miter; stroke-linecap: square"/>
   </g>
   <g id="patch_5">
    <path d="M 7.2 331.2 
L 446.4 331.2 
" style="fill: none; stroke: #000000; stroke-width: 0.8; stroke-linejoin: miter; stroke-linecap: square"/>
   </g>
   <g id="patch_6">
    <path d="M 7.2 7.2 
L 446.4 7.2 
" style="fill: none; stroke: #000000; stroke-width: 0.8; stroke-linejoin: miter; stroke-linecap: square"/>
   </g>
  </g>
 </g>
 <defs>
  <clipPath id="p47388678c3">
   <rect x="7.2" y="7.2" width="439.2" height="324"/>
  </clipPath>
 </defs>
</svg>
