<?xml version="1.0" encoding="utf-8" standalone="no"?>
<!DOCTYPE svg PUBLIC "-//W3C//DTD SVG 1.1//EN"
  "http://www.w3.org/Graphics/SVG/1.1/DTD/svg11.dtd">
<svg xmlns:xlink="http://www.w3.org/1999/xlink" width="453.6pt" height="338.4pt" viewBox="0 0 453.6 338.4" xmlns="http://www.w3.org/2000/svg" version="1.1">
 <metadata>
  <rdf:RDF xmlns:dc="http://purl.org/dc/elements/1.1/" xmlns:cc="http://creativecommons.org/ns#" xmlns:rdf="http://www.w3.org/1999/02/22-rdf-syntax-ns#">
   <cc:Work>
    <dc:type rdf:resource="http://purl.org/dc/dcmitype/StillImage"/>
    <dc:date>2025-05-14T00:22:27.904091</dc:date>
    <dc:format>image/svg+xml</dc:format>
    <dc:creator>
     <cc:Agent>
      <dc:title>Matplotlib v3.10.1, https://matplotlib.org/</dc:title>
     </cc:Agent>
    </dc:creator>
   </cc:Work>
  </rdf:RDF>
 </metadata>
 <defs>
  <style type="text/css">*{stroke-linejoin: round; stroke-linecap: butt}</style>
 </defs>
 <g id="figure_1">
  <g id="patch_1">
   <path d="M 0 338.4 
L 453.6 338.4 
L 453.6 0 
L 0 0 
z
" style="fill: #ffffff"/>
  </g>
  <g id="axes_1">
   <g id="patch_2">
    <path d="M 7.2 331.2 
L 446.4 331.2 
L 446.4 7.2 
L 7.2 7.2 
z
" style="fill: #ffffff"/>
   </g>
   <g id="matplotlib.axis_1"/>
   <g id="matplotlib.axis_2"/>
   <g id="line2d_1">
    <path d="M 27.163636 102.983832 
L 59.904 91.719319 
L 60.170182 91.883904 
L 135.499636 258.801386 
L 136.564364 252.733416 
L 175.693091 22.71157 
L 175.959273 21.927273 
L 258.209455 130.939827 
L 289.352727 224.304442 
L 343.653818 138.971553 
L 343.92 139.124735 
L 426.436364 316.472727 
L 426.436364 316.472727 
" clip-path="url(#p2a49b6268a)" style="fill: none; stroke-dasharray: 11.1,4.8; stroke-dashoffset: 0; stroke: #000000; stroke-width: 3"/>
   </g>
   <g id="line2d_2">
    <path d="M 27.163636 79.662931 
L 28.494545 83.59639 
L 29.026909 85.630652 
L 29.559273 88.32602 
L 30.091636 92.012453 
L 30.624 96.987331 
L 31.422545 107.257372 
L 32.221091 120.78318 
L 35.149091 175.854966 
L 35.947636 185.245902 
L 36.48 189.493327 
L 37.012364 192.333238 
L 37.544727 194.059852 
L 38.077091 195.00412 
L 38.609455 195.481782 
L 42.602182 197.672632 
L 43.134545 197.68132 
L 43.666909 197.508738 
L 44.465455 196.958606 
L 46.594909 195.144318 
L 47.393455 194.89354 
L 47.925818 194.931651 
L 48.724364 195.255687 
L 51.12 196.585204 
L 51.652364 196.529322 
L 52.184727 196.187712 
L 52.717091 195.493037 
L 53.249455 194.389023 
L 53.781818 192.828869 
L 54.580364 189.593046 
L 55.378909 185.313632 
L 56.443636 178.266777 
L 58.306909 163.996337 
L 60.702545 145.92217 
L 62.299636 135.307952 
L 63.896727 126.250925 
L 65.493818 118.575348 
L 67.889455 107.326089 
L 69.220364 100.00476 
L 71.349818 86.770802 
L 73.213091 75.522136 
L 74.277818 70.127254 
L 75.076364 66.89617 
L 75.874909 64.548337 
L 76.407273 63.537328 
L 76.939636 62.990158 
L 77.472 62.90288 
L 78.004364 63.249427 
L 78.536727 63.984186 
L 79.335273 65.686316 
L 80.4 68.744027 
L 81.997091 74.257979 
L 83.594182 80.507085 
L 85.191273 87.709936 
L 86.522182 94.713349 
L 88.119273 104.490128 
L 89.982545 117.465409 
L 92.644364 137.595361 
L 94.507636 153.287138 
L 99.032727 193.251835 
L 99.831273 198.073284 
L 100.629818 201.782031 
L 101.428364 204.471277 
L 102.226909 206.329599 
L 103.025455 207.576577 
L 103.824 208.419151 
L 104.888727 209.193995 
L 107.018182 210.342833 
L 110.744727 212.379662 
L 112.874182 213.760915 
L 114.737455 215.235172 
L 116.600727 217.01293 
L 118.464 219.092411 
L 120.327273 221.490794 
L 122.190545 224.280746 
L 124.586182 228.373755 
L 126.449455 231.420606 
L 127.514182 232.789616 
L 128.312727 233.542542 
L 129.111273 234.036791 
L 129.909818 234.284607 
L 130.708364 234.325284 
L 132.039273 234.1217 
L 134.168727 233.767057 
L 136.032 233.48429 
L 136.830545 233.091537 
L 137.629091 232.35974 
L 138.427636 231.208334 
L 139.226182 229.629619 
L 140.290909 227.005338 
L 142.952727 220.105 
L 144.283636 217.421085 
L 148.542545 209.63019 
L 151.204364 204.279935 
L 152.535273 202.184065 
L 154.664727 199.107002 
L 155.463273 197.423434 
L 156.261818 195.047561 
L 157.060364 191.786068 
L 157.858909 187.592155 
L 159.189818 179.042411 
L 161.053091 166.815711 
L 162.117818 161.18881 
L 163.182545 156.720622 
L 166.642909 143.605734 
L 167.973818 137.195104 
L 169.304727 129.773069 
L 170.635636 121.106624 
L 172.232727 108.892166 
L 175.160727 85.529946 
L 176.225455 78.91356 
L 177.024 75.065404 
L 177.822545 72.186199 
L 178.621091 70.18906 
L 179.419636 68.938331 
L 179.952 68.444871 
L 180.484364 68.172965 
L 181.016727 68.088056 
L 181.815273 68.246026 
L 182.613818 68.686368 
L 183.412364 69.365245 
L 184.477091 70.597413 
L 185.808 72.586259 
L 187.671273 75.903239 
L 194.059636 87.619695 
L 195.124364 89.172345 
L 196.189091 90.298673 
L 196.987636 90.842288 
L 198.052364 91.248667 
L 201.246545 92.102891 
L 203.642182 93.298923 
L 204.973091 93.818053 
L 206.304 94.099635 
L 208.699636 94.491993 
L 209.764364 94.929966 
L 210.829091 95.637673 
L 212.16 96.829361 
L 214.555636 99.016459 
L 215.620364 99.68566 
L 216.685091 100.106454 
L 218.016 100.351702 
L 219.613091 100.390208 
L 223.073455 100.355652 
L 223.872 100.596754 
L 224.670545 101.058619 
L 225.469091 101.78469 
L 226.267636 102.790171 
L 227.332364 104.538704 
L 228.663273 107.261716 
L 230.260364 111.134752 
L 231.857455 115.640458 
L 233.720727 121.693088 
L 236.648727 131.380811 
L 237.979636 134.898809 
L 239.044364 137.095583 
L 240.109091 138.765131 
L 241.173818 139.984858 
L 242.238545 140.837503 
L 243.303273 141.393361 
L 244.368 141.714435 
L 245.698909 141.876552 
L 247.828364 141.85957 
L 250.756364 141.846735 
L 252.087273 142.008457 
L 253.152 142.343749 
L 253.950545 142.812131 
L 254.749091 143.561897 
L 255.547636 144.695926 
L 256.346182 146.316701 
L 257.144727 148.506564 
L 257.943273 151.308363 
L 259.008 155.954663 
L 260.338909 162.874353 
L 263.000727 177.103326 
L 264.065455 181.708158 
L 265.130182 185.329034 
L 265.928727 187.411674 
L 266.993455 189.484836 
L 268.058182 190.999179 
L 269.655273 192.803199 
L 271.784727 195.228042 
L 273.648 197.69534 
L 275.777455 200.900754 
L 278.173091 204.9442 
L 283.230545 213.700689 
L 284.561455 215.530379 
L 285.892364 216.981138 
L 286.957091 217.850764 
L 288.021818 218.471193 
L 289.086545 218.872042 
L 290.417455 219.104456 
L 291.748364 219.058052 
L 292.813091 218.79128 
L 293.877818 218.251219 
L 294.676364 217.6067 
L 295.474909 216.69383 
L 296.273455 215.450604 
L 297.072 213.807911 
L 297.870545 211.693084 
L 298.669091 209.028916 
L 299.733818 204.490628 
L 300.798545 198.695094 
L 301.863273 191.611511 
L 303.460364 179.044583 
L 305.856 159.693819 
L 306.920727 152.670265 
L 307.985455 147.205284 
L 308.784 144.131578 
L 309.582545 141.828174 
L 310.381091 140.155269 
L 311.179636 138.961606 
L 311.978182 138.116663 
L 313.042909 137.354456 
L 314.107636 136.857837 
L 315.438545 136.462714 
L 317.035636 136.199101 
L 319.165091 136.083191 
L 324.222545 135.95326 
L 325.287273 135.615796 
L 326.085818 135.15867 
L 326.884364 134.466168 
L 327.682909 133.482013 
L 328.481455 132.161382 
L 329.546182 129.841589 
L 330.610909 126.921706 
L 332.208 121.785106 
L 334.603636 114.076158 
L 335.934545 110.493392 
L 337.265455 107.49334 
L 338.596364 104.983193 
L 339.661091 103.351952 
L 340.459636 102.437305 
L 341.258182 101.890135 
L 341.790545 101.777186 
L 342.322909 101.8929 
L 342.855273 102.24932 
L 343.387636 102.849607 
L 344.186182 104.178729 
L 345.250909 106.604165 
L 346.848 110.997317 
L 348.977455 116.801737 
L 350.840727 121.197457 
L 352.704 124.988545 
L 354.034909 127.239029 
L 355.099636 128.634301 
L 355.898182 129.393348 
L 356.696727 129.895496 
L 357.495273 130.161676 
L 358.293818 130.229208 
L 359.358545 130.095921 
L 360.689455 129.683421 
L 362.020364 129.007111 
L 363.085091 128.194156 
L 364.149818 127.064077 
L 365.480727 125.210691 
L 367.610182 122.080708 
L 368.142545 121.577572 
L 368.674909 121.325215 
L 369.207273 121.398869 
L 369.739636 121.861721 
L 370.272 122.761362 
L 370.804364 124.116352 
L 371.602909 126.969492 
L 372.667636 132.000252 
L 376.394182 151.165203 
L 378.789818 161.285764 
L 380.653091 168.463735 
L 381.717818 171.812705 
L 382.782545 174.488326 
L 385.444364 180.614609 
L 386.509091 184.10279 
L 387.573818 188.458425 
L 389.437091 197.297255 
L 391.566545 207.111947 
L 393.163636 213.482887 
L 394.760727 218.95241 
L 396.091636 222.798393 
L 397.422545 225.981098 
L 398.753455 228.541006 
L 400.084364 230.583167 
L 401.947636 232.946204 
L 403.810909 235.027265 
L 404.609455 235.67435 
L 405.141818 235.923746 
L 405.674182 235.968767 
L 406.206545 235.765381 
L 406.738909 235.280215 
L 407.271273 234.497077 
L 408.069818 232.778558 
L 409.134545 229.665754 
L 412.328727 219.413288 
L 413.393455 216.94757 
L 414.458182 215.090234 
L 415.522909 213.763482 
L 416.321455 213.084012 
L 417.12 212.666576 
L 417.918545 212.490241 
L 418.983273 212.536645 
L 420.314182 212.633797 
L 420.846545 212.49972 
L 421.378909 212.159491 
L 421.911273 211.538668 
L 422.443636 210.569916 
L 422.976 209.204263 
L 423.774545 206.368697 
L 424.573091 202.66153 
L 426.170182 193.775111 
L 426.436364 192.282885 
L 426.436364 192.282885 
" clip-path="url(#p2a49b6268a)" style="fill: none; stroke-dasharray: 3,4.95; stroke-dashoffset: 0; stroke: #ff0000; stroke-width: 3"/>
   </g>
   <g id="line2d_3">
    <path d="M 27.163636 87.441781 
L 27.962182 87.705394 
L 28.494545 87.864351 
L 29.026909 88.294228 
L 29.559273 89.338411 
L 30.091636 91.379782 
L 30.624 94.767256 
L 31.156364 99.746281 
L 31.954909 110.299681 
L 33.019636 128.882512 
L 34.616727 158.013016 
L 35.415273 169.152486 
L 35.947636 174.588242 
L 36.48 178.42139 
L 37.012364 180.831029 
L 37.544727 182.107626 
L 38.077091 182.588448 
L 38.609455 182.60385 
L 40.206545 182.20379 
L 41.005091 182.392367 
L 43.666909 183.498159 
L 46.062545 183.794748 
L 46.594909 184.161831 
L 47.127273 184.73941 
L 47.925818 186.015415 
L 48.990545 188.338367 
L 51.12 193.331807 
L 51.918545 194.550547 
L 52.450909 194.954754 
L 52.983273 194.953372 
L 53.515636 194.488742 
L 54.048 193.519792 
L 54.580364 192.030922 
L 55.378909 188.842687 
L 56.177455 184.638902 
L 57.508364 176.036039 
L 61.767273 146.852615 
L 63.098182 139.639693 
L 64.429091 133.798941 
L 66.292364 127.001678 
L 67.623273 121.769704 
L 68.688 116.603287 
L 69.752727 110.327524 
L 71.349818 99.202469 
L 74.011636 80.041072 
L 75.076364 73.782093 
L 75.874909 70.093093 
L 76.673455 67.438798 
L 77.205818 66.285023 
L 77.738182 65.623325 
L 78.270545 65.431984 
L 78.802909 65.672691 
L 79.335273 66.298253 
L 79.867636 67.252591 
L 80.666182 69.191478 
L 81.730909 72.50056 
L 83.061818 77.524014 
L 84.392727 83.441382 
L 85.723636 90.36818 
L 87.054545 98.527343 
L 88.385455 108.027082 
L 90.248727 123.031886 
L 93.975273 155.191865 
L 96.104727 175.832652 
L 97.968 193.644588 
L 99.032727 201.966066 
L 99.831273 206.81437 
L 100.629818 210.392199 
L 101.428364 212.80164 
L 101.960727 213.861226 
L 102.493091 214.572092 
L 103.025455 215.010854 
L 103.824 215.31001 
L 104.888727 215.337655 
L 108.349091 215.115115 
L 109.68 215.303099 
L 111.010909 215.687559 
L 112.341818 216.285477 
L 113.672727 217.119757 
L 115.003636 218.202643 
L 116.600727 219.81236 
L 118.464 222.052971 
L 120.327273 224.631243 
L 122.190545 227.570674 
L 126.981818 235.542643 
L 127.780364 236.402988 
L 128.578909 236.984714 
L 129.377455 237.279921 
L 130.176 237.318228 
L 131.240727 237.074559 
L 134.168727 236.131082 
L 136.298182 235.638215 
L 137.096727 235.134487 
L 137.895273 234.25637 
L 138.693818 232.938503 
L 139.492364 231.190957 
L 140.823273 227.621224 
L 142.952727 221.832405 
L 144.283636 218.874807 
L 148.542545 210.061251 
L 150.672 205.325896 
L 152.002909 202.94015 
L 153.333818 201.085382 
L 154.664727 199.237722 
L 155.463273 197.704621 
L 156.261818 195.532333 
L 157.060364 192.528133 
L 157.858909 188.643447 
L 159.189818 180.707812 
L 161.053091 169.490542 
L 162.117818 164.500657 
L 163.182545 160.713517 
L 166.642909 149.858394 
L 167.707636 145.287327 
L 168.772364 139.85552 
L 169.837091 133.436794 
L 171.168 123.813246 
L 172.765091 110.168566 
L 175.160727 89.50507 
L 176.225455 82.232712 
L 177.024 77.964751 
L 177.822545 74.709971 
L 178.621091 72.348513 
L 179.419636 70.705623 
L 180.218182 69.598054 
L 181.016727 68.868429 
L 181.815273 68.396888 
L 182.88 68.030594 
L 186.606545 67.11259 
L 187.671273 66.442993 
L 190.865455 64.090619 
L 191.664 63.849517 
L 192.462545 63.811604 
L 193.793455 64.036909 
L 195.390545 64.291636 
L 196.721455 64.239506 
L 198.318545 64.159731 
L 199.117091 64.331128 
L 199.915636 64.739876 
L 200.714182 65.406313 
L 201.778909 66.629398 
L 208.433455 75.459935 
L 209.764364 77.699558 
L 211.627636 81.394482 
L 213.757091 85.602415 
L 215.088 87.728892 
L 216.152727 89.045969 
L 217.217455 90.058953 
L 218.548364 91.028891 
L 223.339636 94.179607 
L 224.404364 95.386697 
L 225.469091 97.033537 
L 226.533818 99.184302 
L 227.598545 101.849063 
L 228.929455 105.87217 
L 230.260364 110.646031 
L 231.857455 117.347524 
L 234.519273 129.948021 
L 236.116364 136.953212 
L 237.181091 140.789717 
L 238.245818 143.783846 
L 239.044364 145.476694 
L 239.842909 146.743616 
L 240.641455 147.651747 
L 241.44 148.271583 
L 242.504727 148.759316 
L 243.569455 148.968824 
L 244.900364 148.970799 
L 246.497455 148.738977 
L 252.353455 147.599222 
L 253.418182 147.747714 
L 254.216727 148.100185 
L 255.015273 148.756157 
L 255.813818 149.812583 
L 256.612364 151.365825 
L 257.410909 153.49329 
L 258.209455 156.224793 
L 259.274182 160.744321 
L 260.871273 168.790734 
L 263.000727 179.391722 
L 264.065455 183.625325 
L 265.130182 186.846141 
L 265.928727 188.617185 
L 266.727273 189.925376 
L 267.792 191.159913 
L 269.389091 192.512139 
L 271.252364 194.152265 
L 272.849455 195.921137 
L 274.446545 198.055117 
L 276.043636 200.559538 
L 277.906909 203.963402 
L 280.302545 208.918337 
L 283.230545 214.965833 
L 284.827636 217.765066 
L 286.158545 219.657549 
L 287.489455 221.126673 
L 288.820364 222.217655 
L 290.151273 223.000002 
L 291.482182 223.507482 
L 292.546909 223.687765 
L 293.345455 223.652222 
L 294.144 223.423363 
L 294.942545 222.953993 
L 295.741091 222.183691 
L 296.539636 221.051834 
L 297.338182 219.487139 
L 298.136727 217.415556 
L 298.935273 214.756522 
L 299.733818 211.426509 
L 300.798545 205.811062 
L 301.863273 198.781386 
L 303.194182 188.234107 
L 306.388364 161.717616 
L 307.453091 155.136575 
L 308.251636 151.374316 
L 309.050182 148.559681 
L 309.848727 146.538254 
L 310.647273 145.110598 
L 311.445818 144.083594 
L 312.510545 143.065871 
L 314.373818 141.667834 
L 316.503273 140.338909 
L 318.100364 139.581639 
L 319.697455 139.05856 
L 321.560727 138.703325 
L 324.488727 138.224083 
L 325.553455 137.810003 
L 326.352 137.308447 
L 327.150545 136.581192 
L 327.949091 135.579266 
L 328.747636 134.261399 
L 329.812364 131.990576 
L 331.143273 128.433481 
L 334.869818 117.739093 
L 336.200727 114.871143 
L 337.265455 113.059422 
L 338.330182 111.645193 
L 339.128727 110.86245 
L 339.927273 110.375112 
L 340.459636 110.252488 
L 340.992 110.323574 
L 341.524364 110.611475 
L 342.056727 111.136134 
L 342.855273 112.382519 
L 343.653818 114.154945 
L 344.718545 117.176126 
L 348.711273 129.535126 
L 350.042182 132.625617 
L 351.373091 135.180193 
L 352.704 137.32148 
L 354.034909 139.039407 
L 355.099636 140.017242 
L 355.898182 140.466273 
L 356.696727 140.653665 
L 357.495273 140.591662 
L 358.293818 140.312844 
L 359.358545 139.691824 
L 360.689455 138.648035 
L 362.020364 137.347545 
L 363.085091 136.052387 
L 364.149818 134.449581 
L 365.480727 131.994921 
L 367.876364 127.334206 
L 368.674909 126.354988 
L 369.207273 126.065902 
L 369.739636 126.142518 
L 370.272 126.632028 
L 370.804364 127.553982 
L 371.336727 128.898309 
L 372.135273 131.605524 
L 373.466182 137.281395 
L 375.595636 146.458084 
L 377.725091 154.296173 
L 380.653091 164.443392 
L 381.717818 167.320623 
L 382.782545 169.536551 
L 385.178182 174.062793 
L 385.976727 176.208227 
L 387.041455 179.881627 
L 388.372364 185.527287 
L 391.566545 199.572027 
L 393.163636 205.499268 
L 394.760727 210.669042 
L 396.091636 214.373049 
L 397.422545 217.44794 
L 398.487273 219.440143 
L 399.818182 221.40549 
L 401.415273 223.253939 
L 403.544727 225.346848 
L 404.343273 225.927783 
L 405.141818 226.214104 
L 405.674182 226.162369 
L 406.206545 225.866767 
L 406.738909 225.294915 
L 407.271273 224.431213 
L 408.069818 222.598363 
L 409.134545 219.318506 
L 413.127273 205.665927 
L 414.192 203.217783 
L 414.990545 201.888661 
L 415.789091 201.009556 
L 416.321455 200.672882 
L 416.853818 200.530116 
L 417.386182 200.570596 
L 418.184727 200.925634 
L 419.249455 201.78361 
L 420.846545 203.162098 
L 421.645091 203.503314 
L 422.177455 203.48416 
L 422.709818 203.223509 
L 423.242182 202.69885 
L 423.774545 201.907025 
L 424.573091 200.265516 
L 425.904 196.737053 
L 426.436364 195.251343 
L 426.436364 195.251343 
" clip-path="url(#p2a49b6268a)" style="fill: none; stroke: #ff0000; stroke-width: 3; stroke-linecap: square"/>
   </g>
   <g id="patch_3">
    <path d="M 7.2 331.2 
L 7.2 7.2 
" style="fill: none; stroke: #000000; stroke-width: 0.8; stroke-linejoin: miter; stroke-linecap: square"/>
   </g>
   <g id="patch_4">
    <path d="M 446.4 331.2 
L 446.4 7.2 
" style="fill: none; stroke: #000000; stroke-width: 0.8; stroke-linejoin: miter; stroke-linecap: square"/>
   </g>
   <g id="patch_5">
    <path d="M 7.2 331.2 
L 446.4 331.2 
" style="fill: none; stroke: #000000; stroke-width: 0.8; stroke-linejoin: miter; stroke-linecap: square"/>
   </g>
   <g id="patch_6">
    <path d="M 7.2 7.2 
L 446.4 7.2 
" style="fill: none; stroke: #000000; stroke-width: 0.8; stroke-linejoin: miter; stroke-linecap: square"/>
   </g>
  </g>
 </g>
 <defs>
  <clipPath id="p2a49b6268a">
   <rect x="7.2" y="7.2" width="439.2" height="324"/>
  </clipPath>
 </defs>
</svg>
