<?xml version="1.0" encoding="utf-8" standalone="no"?>
<!DOCTYPE svg PUBLIC "-//W3C//DTD SVG 1.1//EN"
  "http://www.w3.org/Graphics/SVG/1.1/DTD/svg11.dtd">
<svg xmlns:xlink="http://www.w3.org/1999/xlink" width="453.6pt" height="338.4pt" viewBox="0 0 453.6 338.4" xmlns="http://www.w3.org/2000/svg" version="1.1">
 <metadata>
  <rdf:RDF xmlns:dc="http://purl.org/dc/elements/1.1/" xmlns:cc="http://creativecommons.org/ns#" xmlns:rdf="http://www.w3.org/1999/02/22-rdf-syntax-ns#">
   <cc:Work>
    <dc:type rdf:resource="http://purl.org/dc/dcmitype/StillImage"/>
    <dc:date>2025-05-14T00:14:18.589393</dc:date>
    <dc:format>image/svg+xml</dc:format>
    <dc:creator>
     <cc:Agent>
      <dc:title>Matplotlib v3.10.1, https://matplotlib.org/</dc:title>
     </cc:Agent>
    </dc:creator>
   </cc:Work>
  </rdf:RDF>
 </metadata>
 <defs>
  <style type="text/css">*{stroke-linejoin: round; stroke-linecap: butt}</style>
 </defs>
 <g id="figure_1">
  <g id="patch_1">
   <path d="M 0 338.4 
L 453.6 338.4 
L 453.6 0 
L 0 0 
z
" style="fill: #ffffff"/>
  </g>
  <g id="axes_1">
   <g id="patch_2">
    <path d="M 7.2 331.2 
L 446.4 331.2 
L 446.4 7.2 
L 7.2 7.2 
z
" style="fill: #ffffff"/>
   </g>
   <g id="matplotlib.axis_1"/>
   <g id="matplotlib.axis_2"/>
   <g id="line2d_1">
    <path d="M 27.163636 218.657229 
L 224.404364 21.927273 
L 225.202909 23.994714 
L 331.941818 316.472727 
L 426.436364 311.880173 
L 426.436364 311.880173 
" clip-path="url(#p2d25a134f0)" style="fill: none; stroke-dasharray: 11.1,4.8; stroke-dashoffset: 0; stroke: #000000; stroke-width: 3"/>
   </g>
   <g id="line2d_2">
    <path d="M 27.163636 160.479715 
L 28.494545 166.11347 
L 29.825455 170.73622 
L 31.156364 174.488609 
L 32.487273 177.506418 
L 33.818182 179.916687 
L 35.149091 181.812715 
L 36.48 183.316577 
L 38.077091 184.700457 
L 39.408 185.596082 
L 41.005091 186.441025 
L 43.134545 187.284158 
L 44.199273 187.550135 
L 45.264 187.83124 
L 46.594909 188.445011 
L 47.925818 189.35191 
L 48.990545 190.367181 
L 49.789091 191.394709 
L 50.587636 192.772654 
L 51.386182 194.658778 
L 52.184727 197.247495 
L 52.983273 200.787472 
L 53.781818 205.569961 
L 54.314182 209.617819 
L 54.580364 208.562804 
L 55.645091 193.957283 
L 56.443636 185.804835 
L 57.242182 179.905 
L 58.040727 176.007727 
L 58.573091 174.357766 
L 59.105455 173.325067 
L 59.637818 172.774365 
L 60.170182 172.560284 
L 61.501091 172.41403 
L 62.033455 172.024554 
L 62.565818 171.248471 
L 63.098182 170.032799 
L 63.896727 167.341968 
L 64.695273 163.661465 
L 65.76 157.558978 
L 66.824727 156.793549 
L 68.155636 156.138251 
L 69.486545 155.738146 
L 71.083636 155.49676 
L 72.946909 155.44132 
L 75.076364 155.618294 
L 76.939636 156.028974 
L 77.205818 156.218333 
L 78.004364 157.384642 
L 78.802909 158.962174 
L 80.133818 162.240479 
L 85.457455 176.446076 
L 86.788364 179.06921 
L 87.320727 178.974492 
L 87.586909 178.865991 
L 88.651636 177.072543 
L 89.716364 175.734432 
L 90.781091 174.750242 
L 92.112 173.857539 
L 95.572364 171.881584 
L 97.169455 170.505074 
L 98.766545 168.782658 
L 100.363636 166.738618 
L 102.226909 163.968557 
L 104.356364 160.414527 
L 110.478545 149.944304 
L 112.874182 147.107709 
L 113.938909 146.270084 
L 114.737455 145.956502 
L 115.269818 145.926997 
L 115.802182 146.055125 
L 116.334545 146.356554 
L 117.133091 147.148126 
L 117.931636 148.370004 
L 118.730182 150.026326 
L 119.262545 151.559201 
L 120.061091 154.757163 
L 121.125818 160.044004 
L 124.586182 178.362971 
L 125.384727 181.443615 
L 126.183273 183.735609 
L 126.715636 184.783513 
L 127.248 185.445691 
L 127.780364 185.704428 
L 128.312727 185.574594 
L 128.845091 185.096708 
L 129.377455 184.29169 
L 130.176 182.549907 
L 130.974545 180.224969 
L 132.039273 176.26406 
L 133.104 171.301248 
L 134.967273 161.944816 
L 136.032 159.937003 
L 137.096727 158.434046 
L 137.895273 157.655998 
L 138.693818 157.181629 
L 139.492364 157.036668 
L 140.024727 157.128827 
L 140.823273 157.544084 
L 141.621818 158.262167 
L 143.751273 160.572055 
L 144.549818 160.811243 
L 145.082182 160.815096 
L 145.614545 160.626823 
L 146.146909 160.189172 
L 146.679273 159.438327 
L 147.211636 158.283681 
L 147.744 156.65557 
L 148.276364 154.469465 
L 149.074909 149.920023 
L 149.341091 151.331674 
L 150.139636 163.538664 
L 150.938182 172.623999 
L 151.736727 178.943462 
L 152.269091 181.797304 
L 152.801455 183.737549 
L 153.333818 184.918648 
L 153.866182 185.500975 
L 154.398545 185.646402 
L 154.930909 185.513646 
L 156.261818 184.938094 
L 156.794182 184.952368 
L 157.326545 185.269389 
L 157.858909 185.955227 
L 158.391273 187.080499 
L 158.923636 188.651695 
L 159.722182 191.899771 
L 160.520727 196.187813 
L 161.851636 204.309063 
L 162.384 205.327502 
L 162.916364 205.882251 
L 163.448727 206.008271 
L 163.981091 205.741724 
L 164.513455 205.113551 
L 165.045818 204.16299 
L 165.844364 202.237911 
L 166.909091 198.951319 
L 169.038545 191.265534 
L 170.369455 186.794791 
L 171.434182 184.027988 
L 171.966545 183.047083 
L 172.498909 182.412031 
L 173.031273 182.157509 
L 173.297455 182.187711 
L 173.563636 182.333965 
L 174.096 183.013596 
L 174.628364 184.219727 
L 175.160727 185.998617 
L 175.693091 188.435443 
L 175.959273 189.90216 
L 176.225455 190.113189 
L 177.024 187.310921 
L 177.822545 183.971204 
L 178.621091 181.39451 
L 179.419636 179.413668 
L 180.218182 177.886792 
L 181.282909 176.357098 
L 182.613818 174.943895 
L 185.009455 172.89551 
L 187.138909 170.948697 
L 187.937455 170.129354 
L 188.469818 168.910579 
L 189.002182 167.746804 
L 189.534545 166.941476 
L 190.066909 166.441637 
L 190.599273 166.194406 
L 191.131636 166.14088 
L 191.930182 166.344823 
L 192.994909 166.953603 
L 193.527273 167.345381 
L 194.059636 169.359451 
L 194.858182 173.540802 
L 198.052364 192.249672 
L 198.850909 195.132681 
L 199.383273 196.303852 
L 199.649455 196.632755 
L 199.915636 196.7791 
L 200.181818 196.729155 
L 200.448 196.482584 
L 201.246545 194.923036 
L 202.843636 202.263045 
L 203.908364 206.264241 
L 204.973091 209.352229 
L 205.771636 210.95783 
L 206.304 211.637371 
L 206.836364 211.967128 
L 207.368727 211.91121 
L 207.901091 211.429743 
L 208.433455 210.478238 
L 208.965818 209.007177 
L 209.498182 206.961624 
L 211.893818 195.30226 
L 214.555636 181.369919 
L 215.354182 178.787356 
L 216.152727 176.936606 
L 216.951273 175.757135 
L 217.483636 175.284214 
L 218.016 175.068221 
L 218.548364 175.070445 
L 219.080727 175.313719 
L 219.613091 175.777563 
L 220.145455 176.460065 
L 220.944 177.929406 
L 221.742545 179.922816 
L 222.541091 182.461265 
L 223.605818 186.713002 
L 224.670545 191.928849 
L 226.001455 199.59652 
L 227.598545 208.792968 
L 228.663273 213.528447 
L 229.461818 216.214236 
L 229.728 216.91489 
L 229.994182 214.761173 
L 230.792727 203.000702 
L 231.591273 194.178966 
L 232.389818 187.852004 
L 233.188364 183.560213 
L 233.720727 181.656945 
L 234.253091 180.384101 
L 234.785455 179.627748 
L 235.317818 179.299504 
L 235.850182 179.303434 
L 236.382545 179.534089 
L 238.512 180.891387 
L 239.044364 180.865037 
L 239.576727 180.49467 
L 240.109091 179.690273 
L 240.641455 178.336854 
L 241.173818 176.313914 
L 241.706182 173.533536 
L 242.238545 169.845017 
L 243.037091 162.351591 
L 243.303273 159.269939 
L 243.569455 157.515045 
L 244.101818 156.924599 
L 244.634182 155.778925 
L 245.166545 154.107217 
L 246.497455 148.73026 
L 247.029818 148.191349 
L 248.626909 146.911161 
L 251.022545 144.956797 
L 252.087273 144.366713 
L 252.885818 144.141902 
L 253.684364 144.13929 
L 254.482909 144.386313 
L 255.281455 144.875628 
L 256.346182 145.882159 
L 257.943273 147.886455 
L 259.540364 149.875391 
L 260.871273 151.371625 
L 262.202182 153.285857 
L 263.533091 155.722606 
L 264.597818 158.212622 
L 265.662545 161.393622 
L 266.727273 165.516326 
L 267.525818 169.41665 
L 268.324364 174.210142 
L 269.122909 180.14199 
L 269.921455 187.47856 
L 270.72 196.599217 
L 271.252364 203.88707 
L 271.518545 205.613636 
L 272.849455 200.576495 
L 273.914182 197.387078 
L 274.712727 195.593953 
L 275.511273 194.354116 
L 276.043636 193.831238 
L 276.576 193.525968 
L 277.374545 193.394764 
L 281.367273 193.150145 
L 282.698182 192.68855 
L 284.295273 191.848184 
L 285.093818 191.43466 
L 285.36 191.402466 
L 287.489455 192.428106 
L 290.151273 193.667232 
L 292.280727 194.415982 
L 293.345455 194.707753 
L 294.942545 197.053688 
L 295.741091 197.811773 
L 296.273455 198.011425 
L 296.805818 197.887913 
L 297.338182 197.343468 
L 297.870545 196.318293 
L 298.402909 194.735784 
L 298.935273 192.50338 
L 299.733818 187.807114 
L 300.532364 181.29025 
L 301.330909 172.76472 
L 302.129455 162.112299 
L 303.194182 144.483954 
L 303.726545 134.234948 
L 307.186909 153.533217 
L 308.251636 157.878689 
L 309.316364 161.398716 
L 310.114909 163.408908 
L 311.712 166.127433 
L 313.841455 169.785078 
L 314.906182 171.252221 
L 315.704727 172.046301 
L 316.503273 172.492226 
L 317.035636 172.55594 
L 317.568 172.405652 
L 318.100364 172.019279 
L 318.632727 171.37572 
L 319.165091 170.455348 
L 319.963636 168.516525 
L 320.762182 165.850518 
L 321.294545 163.587924 
L 322.093091 159.704227 
L 322.625455 157.921743 
L 323.157818 156.805341 
L 323.690182 156.271136 
L 323.956364 156.197854 
L 324.488727 156.394583 
L 325.021091 156.988934 
L 325.553455 157.909642 
L 326.352 159.74979 
L 326.618182 160.447573 
L 328.747636 171.485721 
L 329.28 172.857163 
L 329.546182 173.11228 
L 329.812364 173.030542 
L 330.078545 172.575825 
L 330.344727 171.712963 
L 330.877091 168.617243 
L 331.409455 163.453099 
L 331.941818 156.00115 
L 332.208 151.345457 
L 332.474182 150.690753 
L 333.538909 161.534911 
L 334.603636 170.016457 
L 335.934545 178.483134 
L 339.927273 201.904016 
L 340.992 210.169271 
L 342.322909 220.995445 
L 343.387636 206.43691 
L 344.718545 200.048496 
L 348.711273 180.143128 
L 350.042182 175.07391 
L 351.106909 172.02595 
L 351.905455 170.416018 
L 352.437818 169.653666 
L 352.970182 169.161352 
L 353.502545 168.906364 
L 354.034909 168.902744 
L 354.567273 169.115634 
L 355.365818 169.80698 
L 356.164364 170.866934 
L 357.229091 172.657667 
L 359.624727 176.875141 
L 359.890909 177.245379 
L 360.689455 184.317652 
L 361.754182 196.46478 
L 363.085091 215.169926 
L 363.617455 221.870474 
L 364.416 222.201641 
L 365.214545 222.190496 
L 366.013091 221.895622 
L 366.811636 221.375509 
L 367.876364 220.410623 
L 369.473455 218.609987 
L 373.2 214.242845 
L 374.797091 212.810998 
L 376.128 211.965512 
L 376.394182 211.838651 
L 376.660364 211.191886 
L 377.725091 205.878295 
L 378.789818 199.517756 
L 380.120727 190.129259 
L 381.451636 179.232065 
L 383.048727 164.575113 
L 383.314909 164.568442 
L 384.113455 167.746985 
L 384.645818 169.139553 
L 385.178182 170.064579 
L 385.710545 170.574296 
L 386.242909 170.764276 
L 386.775273 170.695752 
L 387.573818 170.237157 
L 388.638545 169.270628 
L 390.235636 167.772869 
L 391.034182 167.241586 
L 391.832727 166.945303 
L 392.631273 166.925366 
L 393.429818 167.174613 
L 394.228364 167.764775 
L 394.760727 168.412886 
L 395.293091 169.341325 
L 395.825455 170.590251 
L 396.624 173.199913 
L 397.422545 176.889079 
L 398.221091 181.88186 
L 399.019636 188.401336 
L 399.552 193.293232 
L 401.415273 200.177334 
L 402.746182 204.397356 
L 404.077091 207.851561 
L 405.141818 209.998141 
L 406.206545 211.571342 
L 407.005091 212.382023 
L 407.803636 212.892063 
L 408.602182 213.127981 
L 409.400727 213.125615 
L 410.199273 212.863761 
L 410.997818 212.23957 
L 411.796364 211.246227 
L 412.594909 209.861481 
L 413.393455 208.060443 
L 414.192 205.807637 
L 414.990545 203.158929 
L 415.256727 203.363738 
L 416.587636 207.92951 
L 417.652364 210.852122 
L 418.450909 212.504164 
L 418.983273 213.300261 
L 419.515636 213.800747 
L 420.048 213.976402 
L 420.580364 213.783499 
L 421.112727 213.166988 
L 421.645091 212.066191 
L 422.177455 210.423069 
L 422.709818 208.165208 
L 423.508364 203.434797 
L 424.306909 196.81949 
L 425.105455 187.947602 
L 425.904 176.357098 
L 426.436364 166.884148 
L 426.436364 166.884148 
" clip-path="url(#p2d25a134f0)" style="fill: none; stroke-dasharray: 3,4.95; stroke-dashoffset: 0; stroke: #0000ff; stroke-width: 3"/>
   </g>
   <g id="line2d_3">
    <path d="M 27.163636 244.509379 
L 30.624 202.857486 
L 31.688727 193.263805 
L 32.487273 187.820328 
L 33.285818 184.117561 
L 33.818182 182.684887 
L 34.084364 182.294376 
L 34.350545 182.126505 
L 34.616727 182.194486 
L 34.882909 182.514326 
L 35.415273 183.835138 
L 35.947636 186.182701 
L 36.48 189.544592 
L 37.012364 193.979612 
L 37.810909 202.735177 
L 38.609455 214.117148 
L 39.141818 223.253152 
L 39.408 224.802835 
L 40.206545 209.371312 
L 41.005091 196.016774 
L 41.803636 185.58442 
L 42.602182 177.601395 
L 43.400727 171.388856 
L 44.199273 166.820589 
L 44.997818 164.05376 
L 46.861091 159.266293 
L 47.393455 157.545067 
L 47.925818 156.869573 
L 48.458182 155.288963 
L 48.990545 152.363262 
L 49.522909 147.820491 
L 50.055273 141.419859 
L 50.853818 127.903461 
L 51.652364 109.192174 
L 51.918545 109.088456 
L 53.515636 129.198647 
L 54.314182 139.130916 
L 54.580364 139.4099 
L 55.378909 132.165955 
L 56.177455 127.150159 
L 56.709818 125.181263 
L 56.976 124.618899 
L 57.242182 124.34413 
L 57.508364 124.344466 
L 57.774545 124.621873 
L 58.306909 125.964767 
L 58.839273 128.290817 
L 59.637818 133.359647 
L 60.702545 141.202495 
L 61.234909 143.56185 
L 63.630545 132.090862 
L 65.227636 122.83101 
L 65.76 119.636745 
L 66.292364 119.337773 
L 66.824727 119.385895 
L 67.357091 119.762778 
L 67.889455 120.487015 
L 68.421818 121.589428 
L 68.954182 123.088713 
L 69.752727 126.168814 
L 70.551273 130.389573 
L 71.349818 135.957441 
L 72.148364 143.147291 
L 72.946909 152.254218 
L 73.745455 163.752977 
L 74.544 176.07108 
L 75.608727 185.08727 
L 76.407273 189.938297 
L 76.939636 192.177152 
L 77.472 193.105359 
L 78.270545 194.707482 
L 79.601455 198.382374 
L 80.932364 201.986672 
L 81.730909 203.534726 
L 82.263273 204.166313 
L 82.795636 204.39989 
L 83.328 204.21662 
L 83.860364 203.589649 
L 84.392727 202.522752 
L 85.191273 200.145464 
L 85.989818 196.916394 
L 86.788364 192.468833 
L 89.184 174.200574 
L 89.716364 171.842305 
L 90.248727 170.704854 
L 90.514909 170.68634 
L 90.781091 171.040727 
L 91.047273 169.239469 
L 91.579636 159.371148 
L 92.112 152.910887 
L 92.644364 149.623015 
L 92.910545 149.025328 
L 93.176727 149.130184 
L 93.442909 149.836863 
L 93.975273 151.819593 
L 94.773818 154.570596 
L 95.572364 158.124523 
L 96.637091 163.93189 
L 97.968 172.574351 
L 99.032727 179.425278 
L 99.298909 179.021269 
L 99.565091 178.830022 
L 99.831273 178.838555 
L 100.363636 179.342945 
L 100.896 180.298096 
L 102.493091 183.549456 
L 102.759273 183.807521 
L 103.025455 183.887087 
L 103.291636 183.763717 
L 103.557818 183.35795 
L 103.824 182.650987 
L 104.356364 180.16715 
L 104.888727 175.932609 
L 105.421091 169.462419 
L 106.219636 156.254975 
L 106.485818 155.899321 
L 107.018182 156.333118 
L 107.550545 156.395695 
L 108.082909 156.069416 
L 108.615273 155.373985 
L 109.147636 154.333658 
L 109.946182 152.176203 
L 110.478545 150.356458 
L 110.744727 150.791806 
L 111.809455 155.205752 
L 112.874182 158.521214 
L 114.205091 161.76686 
L 117.133091 168.433365 
L 118.464 172.293376 
L 119.262545 175.205993 
L 120.327273 180.51122 
L 121.924364 190.143986 
L 124.053818 203.183494 
L 126.981818 186.160463 
L 128.046545 165.83477 
L 129.111273 149.419227 
L 130.442182 132.656537 
L 131.773091 117.914925 
L 132.039273 116.855074 
L 133.104 117.551358 
L 133.636364 117.816224 
L 134.434909 117.856485 
L 134.701091 118.172084 
L 135.765818 121.340879 
L 136.564364 123.099677 
L 137.096727 123.837412 
L 137.629091 124.208503 
L 138.427636 124.482911 
L 138.96 124.330089 
L 139.492364 123.857969 
L 140.024727 123.045194 
L 140.557091 121.869007 
L 141.355636 119.392799 
L 141.621818 118.364082 
L 141.888 118.138521 
L 142.952727 124.694431 
L 143.751273 128.141719 
L 144.283636 129.982332 
L 144.816 131.101088 
L 145.082182 131.379813 
L 145.348364 131.447251 
L 145.614545 131.310358 
L 145.880727 130.952791 
L 146.413091 129.590813 
L 146.945455 127.287596 
L 147.477818 124.052501 
L 148.276364 117.293397 
L 149.074909 108.180678 
L 149.341091 107.764619 
L 149.873455 112.12752 
L 150.405818 114.879946 
L 150.672 115.70397 
L 150.938182 116.155506 
L 151.204364 116.312982 
L 151.470545 116.126028 
L 151.736727 115.664536 
L 152.269091 113.976279 
L 153.067636 109.846257 
L 154.132364 102.491225 
L 156.261818 87.209848 
L 157.060364 83.02074 
L 157.326545 81.95864 
L 157.592727 81.897795 
L 160.254545 103.054339 
L 161.053091 144.70468 
L 161.585455 166.299416 
L 162.117818 181.112682 
L 162.650182 191.419959 
L 163.182545 197.652655 
L 163.448727 199.41228 
L 163.714909 200.29795 
L 163.981091 200.3665 
L 164.247273 199.69226 
L 164.513455 198.315608 
L 165.045818 193.535148 
L 165.578182 186.453178 
L 166.376727 172.130366 
L 167.441455 147.701466 
L 169.038545 104.207098 
L 169.570909 88.931902 
L 169.837091 91.538073 
L 170.635636 118.819238 
L 171.434182 139.813495 
L 172.232727 155.60989 
L 173.031273 167.275486 
L 173.563636 172.412531 
L 174.096 175.374873 
L 174.628364 177.377954 
L 175.426909 179.445034 
L 175.959273 180.72349 
L 176.225455 180.098833 
L 177.822545 170.099824 
L 178.354909 168.230249 
L 178.621091 167.752415 
L 178.887273 167.658653 
L 179.153455 167.931742 
L 179.419636 168.597849 
L 179.685818 170.527208 
L 180.484364 179.998865 
L 181.016727 184.332288 
L 181.549091 187.259929 
L 182.081455 188.931585 
L 182.347636 189.346518 
L 182.613818 189.493975 
L 182.88 189.411229 
L 183.146182 189.095539 
L 183.678545 187.880759 
L 184.210909 185.992385 
L 185.009455 182.180936 
L 186.340364 174.260048 
L 189.534545 154.664488 
L 190.066909 152.75129 
L 190.599273 151.550331 
L 190.865455 151.207219 
L 191.131636 151.049509 
L 191.397818 151.060422 
L 191.664 151.241248 
L 192.196364 152.141838 
L 192.462545 153.024586 
L 193.261091 157.280847 
L 195.124364 165.543839 
L 196.189091 172.690765 
L 198.318545 187.850298 
L 199.117091 192.355962 
L 199.915636 195.692861 
L 200.448 197.097091 
L 201.246545 198.12427 
L 202.577455 207.726265 
L 203.376 212.261265 
L 203.908364 214.527388 
L 204.440727 216.057755 
L 204.706909 216.498237 
L 204.973091 216.697513 
L 205.239273 216.659463 
L 205.505455 216.33789 
L 205.771636 215.74734 
L 206.304 213.625971 
L 206.836364 210.17218 
L 207.368727 205.274583 
L 208.167273 195.00083 
L 208.965818 181.021557 
L 209.232 182.307486 
L 210.030545 198.054104 
L 210.829091 210.011614 
L 211.361455 215.578292 
L 211.893818 219.509115 
L 212.426182 222.157798 
L 212.958545 223.80644 
L 214.023273 226.062556 
L 214.289455 225.242773 
L 215.088 219.476806 
L 216.152727 209.868695 
L 217.483636 195.678794 
L 219.613091 170.247319 
L 225.202909 99.257888 
L 225.735273 91.852121 
L 226.001455 90.554789 
L 226.267636 91.528015 
L 226.8 99.559601 
L 227.864727 120.947705 
L 229.994182 155.253977 
L 230.526545 154.580397 
L 231.325091 153.937561 
L 233.986909 152.129866 
L 235.584 150.976046 
L 236.116364 150.817716 
L 236.648727 150.892602 
L 236.914909 151.055509 
L 237.181091 151.080901 
L 237.447273 150.570021 
L 237.713455 150.425913 
L 237.979636 150.616462 
L 238.245818 151.097709 
L 238.778182 152.845466 
L 239.576727 156.932667 
L 240.641455 163.798332 
L 241.972364 176.328835 
L 242.504727 178.846235 
L 242.770909 179.366476 
L 243.037091 179.339946 
L 243.303273 178.708773 
L 243.569455 178.891927 
L 244.101818 180.808486 
L 244.368 181.111751 
L 244.634182 180.991536 
L 244.900364 180.471682 
L 245.166545 179.553561 
L 245.698909 176.520909 
L 247.828364 160.792858 
L 249.691636 154.320134 
L 251.022545 147.822534 
L 253.152 135.933677 
L 255.281455 124.202478 
L 255.813818 121.643188 
L 256.08 121.76048 
L 257.677091 139.860712 
L 258.741818 154.666246 
L 259.540364 169.005996 
L 260.871273 199.552665 
L 261.936 230.849183 
L 262.202182 239.920024 
L 262.468364 240.424195 
L 264.065455 207.657663 
L 265.130182 189.504965 
L 266.194909 175.15588 
L 266.993455 167.380005 
L 267.525818 163.855996 
L 268.058182 161.794011 
L 268.324364 161.367014 
L 268.590545 161.35905 
L 268.856727 161.79083 
L 269.122909 162.689843 
L 269.655273 166.007167 
L 270.187636 171.479437 
L 270.72 179.19726 
L 271.518545 192.538172 
L 272.050909 195.013708 
L 272.583273 198.601018 
L 273.381818 205.854143 
L 274.446545 218.321538 
L 276.043636 240.576978 
L 276.842182 253.02507 
L 277.906909 277.588252 
L 278.173091 279.102354 
L 278.971636 269.068514 
L 281.367273 237.312805 
L 282.432 240.211795 
L 283.496727 242.450664 
L 284.561455 244.079744 
L 285.36 245.141289 
L 286.424727 246.919054 
L 287.223273 247.892913 
L 288.021818 248.475809 
L 288.554182 248.607505 
L 289.086545 248.501124 
L 289.618909 248.121655 
L 290.151273 247.415247 
L 290.683636 246.354608 
L 291.216 244.87972 
L 292.014545 241.759681 
L 292.813091 237.330816 
L 293.345455 233.512592 
L 293.877818 233.005228 
L 294.410182 232.175658 
L 294.942545 230.954077 
L 295.474909 229.24088 
L 296.007273 226.958039 
L 296.805818 222.259744 
L 297.870545 214.196869 
L 298.136727 213.887061 
L 298.402909 213.966511 
L 298.669091 213.842236 
L 298.935273 213.525266 
L 299.467636 212.223771 
L 300 209.983777 
L 300.532364 206.741649 
L 301.330909 199.825533 
L 302.129455 190.350321 
L 302.928 178.240274 
L 303.726545 163.48369 
L 305.323636 170.316257 
L 306.122182 172.394688 
L 306.654545 173.181864 
L 307.186909 173.457564 
L 307.453091 173.388342 
L 307.719273 173.174857 
L 308.251636 172.308891 
L 308.784 170.807356 
L 309.316364 168.59048 
L 310.114909 164.63769 
L 310.647273 164.058104 
L 311.179636 163.151825 
L 311.978182 161.147323 
L 312.776727 158.311142 
L 313.575273 154.482446 
L 313.841455 156.544561 
L 314.64 168.267847 
L 315.438545 175.09982 
L 316.503273 182.348704 
L 317.301818 186.238478 
L 317.834182 187.902764 
L 318.366545 188.748845 
L 318.632727 188.85476 
L 318.898909 188.744048 
L 319.165091 188.415739 
L 319.697455 187.110442 
L 320.229818 184.96478 
L 320.762182 182.005255 
L 321.560727 176.010598 
L 322.625455 167.888998 
L 323.424 163.656474 
L 323.956364 161.972355 
L 324.222545 161.522577 
L 324.488727 161.385037 
L 324.754909 161.558184 
L 325.021091 162.091949 
L 325.287273 163.004123 
L 325.819636 166.090922 
L 326.352 171.072093 
L 326.884364 178.277147 
L 327.949091 197.182346 
L 328.215273 202.414031 
L 328.481455 202.801697 
L 329.546182 188.947487 
L 330.877091 172.601425 
L 331.675636 160.416828 
L 332.208 150.485593 
L 332.474182 149.351478 
L 337.265455 193.903602 
L 337.797818 195.331221 
L 338.330182 197.302276 
L 339.128727 201.461518 
L 339.927273 207.317033 
L 340.725818 215.131928 
L 341.524364 225.122041 
L 342.322909 235.702938 
L 343.121455 230.32015 
L 343.387636 230.388312 
L 350.840727 273.199674 
L 351.373091 275.581732 
L 351.639273 274.088175 
L 353.768727 214.629399 
L 354.567273 197.520144 
L 355.365818 184.371282 
L 356.164364 175.237799 
L 356.696727 171.280044 
L 357.229091 169.025751 
L 357.495273 168.494727 
L 357.761455 168.394035 
L 358.027636 168.659392 
L 358.293818 169.299667 
L 358.826182 171.631561 
L 359.358545 175.253262 
L 359.890909 179.983091 
L 360.955636 193.496387 
L 362.286545 214.137757 
L 363.617455 235.916979 
L 364.416 238.309122 
L 365.214545 239.907302 
L 365.746909 240.51104 
L 366.279273 240.732593 
L 366.811636 240.566816 
L 367.344 239.999655 
L 367.876364 239.019098 
L 368.674909 237.380282 
L 369.207273 237.556661 
L 369.739636 237.937385 
L 370.538182 238.866095 
L 371.336727 240.114375 
L 373.732364 244.309779 
L 374.264727 244.493644 
L 374.797091 244.415332 
L 375.329455 244.009669 
L 375.861818 243.216869 
L 376.394182 241.994267 
L 376.660364 240.292072 
L 377.458909 230.583218 
L 378.523636 214.299086 
L 380.653091 177.063079 
L 383.048727 136.396048 
L 383.314909 134.663987 
L 384.113455 133.117408 
L 384.912 131.202219 
L 385.444364 133.041178 
L 385.976727 135.61919 
L 386.775273 140.88537 
L 387.573818 147.701285 
L 388.106182 151.9328 
L 388.638545 150.675082 
L 389.170909 149.810358 
L 389.703273 149.279541 
L 390.235636 149.06546 
L 390.768 149.1224 
L 391.300364 149.405599 
L 392.098909 150.189957 
L 392.897455 151.288801 
L 393.163636 151.71285 
L 394.228364 154.913244 
L 395.293091 158.919663 
L 396.357818 164.153443 
L 397.156364 169.164687 
L 397.954909 175.363056 
L 398.753455 182.960535 
L 399.818182 193.465628 
L 403.012364 212.535 
L 404.077091 218.337001 
L 404.343273 219.211604 
L 404.875636 220.252707 
L 405.674182 222.581498 
L 406.472727 225.826083 
L 407.271273 230.011855 
L 408.336 237.098997 
L 409.400727 245.969644 
L 410.731636 259.542387 
L 412.594909 281.103133 
L 412.861091 284.385032 
L 413.127273 286.222568 
L 413.393455 282.394337 
L 414.458182 255.163415 
L 415.256727 239.929553 
L 416.055273 232.33987 
L 416.587636 228.834854 
L 417.12 226.435975 
L 417.652364 224.967461 
L 418.184727 224.285528 
L 418.450909 224.187965 
L 418.717091 224.241595 
L 419.249455 224.683577 
L 421.112727 226.962228 
L 421.378909 226.993917 
L 421.645091 226.848775 
L 421.911273 226.494026 
L 422.177455 225.893495 
L 422.709818 223.72787 
L 423.242182 219.978998 
L 423.774545 214.235294 
L 424.306909 206.022661 
L 424.839273 194.774248 
L 425.371636 179.890157 
L 426.170182 149.219679 
L 426.436364 136.405409 
L 426.436364 136.405409 
" clip-path="url(#p2d25a134f0)" style="fill: none; stroke: #0000ff; stroke-width: 3; stroke-linecap: square"/>
   </g>
   <g id="patch_3">
    <path d="M 7.2 331.2 
L 7.2 7.2 
" style="fill: none; stroke: #000000; stroke-width: 0.8; stroke-linejoin: miter; stroke-linecap: square"/>
   </g>
   <g id="patch_4">
    <path d="M 446.4 331.2 
L 446.4 7.2 
" style="fill: none; stroke: #000000; stroke-width: 0.8; stroke-linejoin: miter; stroke-linecap: square"/>
   </g>
   <g id="patch_5">
    <path d="M 7.2 331.2 
L 446.4 331.2 
" style="fill: none; stroke: #000000; stroke-width: 0.8; stroke-linejoin: miter; stroke-linecap: square"/>
   </g>
   <g id="patch_6">
    <path d="M 7.2 7.2 
L 446.4 7.2 
" style="fill: none; stroke: #000000; stroke-width: 0.8; stroke-linejoin: miter; stroke-linecap: square"/>
   </g>
  </g>
 </g>
 <defs>
  <clipPath id="p2d25a134f0">
   <rect x="7.2" y="7.2" width="439.2" height="324"/>
  </clipPath>
 </defs>
</svg>
