<?xml version="1.0" encoding="utf-8" standalone="no"?>
<!DOCTYPE svg PUBLIC "-//W3C//DTD SVG 1.1//EN"
  "http://www.w3.org/Graphics/SVG/1.1/DTD/svg11.dtd">
<svg xmlns:xlink="http://www.w3.org/1999/xlink" width="453.6pt" height="338.4pt" viewBox="0 0 453.6 338.4" xmlns="http://www.w3.org/2000/svg" version="1.1">
 <metadata>
  <rdf:RDF xmlns:dc="http://purl.org/dc/elements/1.1/" xmlns:cc="http://creativecommons.org/ns#" xmlns:rdf="http://www.w3.org/1999/02/22-rdf-syntax-ns#">
   <cc:Work>
    <dc:type rdf:resource="http://purl.org/dc/dcmitype/StillImage"/>
    <dc:date>2025-05-14T00:22:24.202524</dc:date>
    <dc:format>image/svg+xml</dc:format>
    <dc:creator>
     <cc:Agent>
      <dc:title>Matplotlib v3.10.1, https://matplotlib.org/</dc:title>
     </cc:Agent>
    </dc:creator>
   </cc:Work>
  </rdf:RDF>
 </metadata>
 <defs>
  <style type="text/css">*{stroke-linejoin: round; stroke-linecap: butt}</style>
 </defs>
 <g id="figure_1">
  <g id="patch_1">
   <path d="M 0 338.4 
L 453.6 338.4 
L 453.6 0 
L 0 0 
z
" style="fill: #ffffff"/>
  </g>
  <g id="axes_1">
   <g id="patch_2">
    <path d="M 7.2 331.2 
L 446.4 331.2 
L 446.4 7.2 
L 7.2 7.2 
z
" style="fill: #ffffff"/>
   </g>
   <g id="matplotlib.axis_1"/>
   <g id="matplotlib.axis_2"/>
   <g id="line2d_1">
    <path d="M 27.163636 21.927273 
L 132.837818 108.981885 
L 202.045091 316.472727 
L 202.311273 316.047391 
L 261.936 147.507649 
L 350.574545 283.228309 
L 426.436364 261.722509 
L 426.436364 261.722509 
" clip-path="url(#pe7d44224c8)" style="fill: none; stroke-dasharray: 11.1,4.8; stroke-dashoffset: 0; stroke: #000000; stroke-width: 3"/>
   </g>
   <g id="line2d_2">
    <path d="M 27.163636 178.801096 
L 28.760727 181.198003 
L 30.357818 183.199464 
L 31.954909 184.799255 
L 33.285818 185.853617 
L 34.882909 186.772541 
L 36.213818 187.269271 
L 37.544727 187.517924 
L 38.875636 187.537112 
L 40.206545 187.319153 
L 41.537455 186.886211 
L 43.134545 186.08879 
L 43.666909 185.76044 
L 43.933091 185.391256 
L 44.997818 182.791964 
L 47.393455 176.736606 
L 48.458182 174.71113 
L 49.256727 173.635151 
L 49.522909 173.870931 
L 51.386182 181.915454 
L 52.717091 186.427311 
L 53.781818 189.336219 
L 54.846545 191.662174 
L 55.911273 193.432197 
L 56.709818 194.398331 
L 57.508364 195.043676 
L 58.306909 195.364041 
L 58.839273 195.388147 
L 59.371636 195.244724 
L 59.904 194.933011 
L 62.299636 192.796932 
L 63.098182 191.617423 
L 63.896727 190.080327 
L 64.695273 188.127109 
L 64.961455 187.37447 
L 65.227636 186.961961 
L 66.824727 187.433005 
L 68.421818 188.146084 
L 70.285091 189.253396 
L 72.680727 190.987744 
L 77.205818 194.491356 
L 78.270545 195.871275 
L 78.536727 194.870104 
L 79.335273 190.315895 
L 79.867636 188.274874 
L 80.4 186.924071 
L 80.932364 186.170339 
L 81.464727 185.938627 
L 81.997091 186.142103 
L 82.529455 186.704169 
L 83.328 188.077014 
L 84.392727 190.554681 
L 88.385455 200.649819 
L 89.450182 202.618733 
L 90.248727 203.801369 
L 90.514909 203.701483 
L 91.313455 201.251566 
L 92.112 199.573202 
L 92.910545 198.513436 
L 93.442909 198.119294 
L 93.709091 198.005139 
L 95.838545 193.894922 
L 96.903273 192.203595 
L 97.968 190.945452 
L 98.766545 190.348806 
L 99.565091 190.078293 
L 100.097455 190.088889 
L 100.896 190.385238 
L 101.694545 191.012518 
L 102.493091 191.952118 
L 103.557818 193.614755 
L 104.888727 196.180042 
L 108.349091 203.206545 
L 109.413818 204.768324 
L 110.212364 205.563862 
L 110.744727 205.910671 
L 111.010909 205.81461 
L 111.543273 205.289949 
L 112.075636 204.461166 
L 112.874182 202.728396 
L 113.938909 199.706182 
L 115.536 194.222968 
L 118.464 183.885188 
L 119.794909 180.071443 
L 120.859636 177.727788 
L 121.658182 176.456621 
L 122.456727 175.635093 
L 124.053818 174.652989 
L 124.852364 174.567008 
L 125.650909 174.757247 
L 126.715636 175.328026 
L 126.981818 175.51271 
L 127.780364 176.708128 
L 128.845091 178.789741 
L 132.571636 186.761065 
L 133.370182 187.905537 
L 134.168727 188.640142 
L 134.701091 188.858222 
L 135.233455 188.977448 
L 136.032 189.806535 
L 136.830545 190.245914 
L 137.362909 190.335477 
L 137.895273 190.273694 
L 138.693818 189.915014 
L 139.492364 189.264204 
L 140.290909 188.349622 
L 141.355636 186.769687 
L 142.686545 184.299701 
L 143.751273 182.238552 
L 145.082182 181.42425 
L 146.679273 180.157758 
L 148.542545 178.318878 
L 150.672 175.844156 
L 154.398545 171.077939 
L 154.664727 171.188998 
L 155.995636 172.750595 
L 157.326545 174.00136 
L 158.657455 174.95031 
L 159.988364 175.613112 
L 161.851636 176.423011 
L 163.182545 177.387294 
L 166.376727 179.878502 
L 167.441455 180.428636 
L 168.506182 180.70856 
L 169.304727 180.712628 
L 170.103273 180.528917 
L 170.901818 180.150745 
L 171.966545 179.354903 
L 173.031273 178.248897 
L 174.362182 176.500006 
L 176.225455 173.717701 
L 176.757818 173.692745 
L 178.354909 173.981959 
L 179.419636 174.381839 
L 180.750545 175.15239 
L 182.081455 176.204871 
L 183.944727 178.019189 
L 187.138909 181.194208 
L 188.469818 182.200267 
L 189.534545 182.775661 
L 190.599273 183.128208 
L 191.664 183.259487 
L 192.994909 183.167586 
L 193.527273 183.068246 
L 193.793455 182.853839 
L 194.059636 182.837991 
L 195.656727 183.985469 
L 198.850909 186.208229 
L 200.181818 187.407017 
L 201.512727 188.87908 
L 202.843636 190.67166 
L 204.174545 192.757524 
L 204.440727 192.519466 
L 205.771636 190.055735 
L 206.836364 188.554434 
L 207.901091 187.487806 
L 208.699636 186.980845 
L 209.498182 186.718772 
L 210.296727 186.71012 
L 211.095273 186.99478 
L 211.893818 187.583229 
L 212.692364 188.45054 
L 213.757091 190.015082 
L 214.821818 191.987093 
L 216.152727 194.935258 
L 217.749818 199.028594 
L 219.613091 204.294516 
L 219.879273 204.038971 
L 220.944 200.119996 
L 222.274909 196.163799 
L 223.339636 193.627385 
L 224.404364 191.552299 
L 225.469091 189.864706 
L 226.8 188.211086 
L 227.598545 187.295775 
L 229.195636 185.000211 
L 230.792727 182.832496 
L 231.591273 182.054931 
L 232.389818 181.598884 
L 232.922182 181.507408 
L 233.454545 181.602922 
L 233.986909 181.895113 
L 234.519273 182.389535 
L 235.317818 183.527814 
L 236.116364 185.113821 
L 237.181091 187.886532 
L 238.512 192.220779 
L 240.375273 198.947956 
L 240.641455 198.605094 
L 241.706182 194.818279 
L 242.770909 191.938061 
L 243.835636 189.313024 
L 244.900364 186.386992 
L 245.965091 184.073303 
L 246.763636 182.772382 
L 247.562182 181.861321 
L 248.360727 181.349411 
L 248.893091 181.228971 
L 249.425455 181.276425 
L 249.957818 181.492987 
L 250.756364 182.11635 
L 251.554909 183.074955 
L 252.619636 184.819323 
L 253.684364 187.016215 
L 254.482909 188.901274 
L 254.749091 188.626116 
L 255.547636 186.498294 
L 256.346182 184.854025 
L 257.144727 183.622751 
L 257.943273 182.734644 
L 258.741818 182.128039 
L 259.806545 181.64482 
L 260.871273 181.453123 
L 262.734545 181.330254 
L 265.662545 181.195848 
L 266.727273 180.874724 
L 267.525818 180.410419 
L 268.324364 179.68386 
L 268.856727 179.020724 
L 269.122909 179.179267 
L 270.453818 185.52129 
L 271.252364 187.951352 
L 271.784727 189.049251 
L 272.317091 189.782429 
L 272.849455 190.221413 
L 273.381818 190.422703 
L 274.180364 190.394164 
L 275.245091 190.02923 
L 276.576 189.556516 
L 277.906909 189.470383 
L 279.770182 189.560736 
L 281.633455 189.877397 
L 283.230545 190.380411 
L 284.561455 191.036048 
L 285.626182 191.788019 
L 286.690909 192.838556 
L 287.489455 193.892949 
L 288.288 195.259752 
L 289.086545 197.024826 
L 289.885091 199.309065 
L 290.683636 201.775772 
L 292.546909 197.564789 
L 293.345455 196.020558 
L 294.410182 195.509559 
L 296.273455 194.285177 
L 298.402909 192.975755 
L 299.733818 192.411808 
L 301.064727 192.067549 
L 302.928 191.83356 
L 306.388364 191.43781 
L 310.647273 190.622355 
L 311.712 190.108168 
L 312.776727 189.324864 
L 313.575273 188.507223 
L 313.841455 188.182183 
L 314.107636 188.15079 
L 314.373818 188.590563 
L 315.704727 191.837507 
L 316.769455 193.839909 
L 317.834182 195.292481 
L 318.632727 196.040839 
L 319.431273 196.526092 
L 320.229818 196.785888 
L 321.294545 196.857478 
L 322.359273 196.706556 
L 324.488727 196.117894 
L 326.352 195.666888 
L 326.618182 195.625233 
L 329.28 192.834366 
L 330.344727 192.12071 
L 331.143273 191.802471 
L 331.675636 191.694539 
L 332.740364 189.971029 
L 333.538909 189.062185 
L 334.337455 188.425857 
L 335.402182 187.922691 
L 336.466909 187.718334 
L 337.531636 187.751761 
L 338.862545 188.073614 
L 339.927273 188.530237 
L 341.258182 189.36239 
L 342.589091 190.50914 
L 343.387636 191.220185 
L 345.517091 191.355289 
L 347.114182 191.669673 
L 348.445091 192.131822 
L 349.776 192.83467 
L 351.106909 193.853753 
L 352.171636 194.95308 
L 353.236364 196.358836 
L 354.301091 198.124243 
L 355.365818 200.295936 
L 356.430545 202.909102 
L 358.027636 207.006446 
L 359.624727 205.909366 
L 362.552727 204.030713 
L 363.883636 202.862074 
L 365.480727 201.106139 
L 367.077818 199.007068 
L 368.941091 196.1832 
L 370.538182 193.417016 
L 372.135273 190.198156 
L 372.667636 188.992021 
L 372.933818 188.837698 
L 374.264727 188.87993 
L 375.595636 189.171604 
L 377.192727 189.61581 
L 378.789818 189.992433 
L 380.386909 190.618681 
L 382.516364 191.761423 
L 384.379636 192.693857 
L 385.178182 192.901433 
L 385.976727 192.884188 
L 386.509091 192.700689 
L 387.041455 192.342707 
L 387.573818 191.772049 
L 388.106182 190.952253 
L 388.904727 189.166079 
L 389.703273 186.649459 
L 389.969455 186.894469 
L 390.501818 188.106919 
L 391.034182 188.912568 
L 391.566545 189.348485 
L 392.098909 189.457237 
L 392.631273 189.278352 
L 394.494545 188.144293 
L 400.616727 184.679846 
L 402.213818 184.119845 
L 403.278545 183.993819 
L 404.077091 184.120787 
L 404.875636 184.526981 
L 405.408 185.008743 
L 405.940364 185.712046 
L 406.472727 186.683433 
L 409.400727 197.191778 
L 410.199273 199.023129 
L 410.731636 199.765263 
L 411.264 200.089727 
L 411.530182 200.082896 
L 412.062545 199.73217 
L 412.594909 198.919387 
L 413.127273 197.618132 
L 413.659636 195.824338 
L 414.458182 192.181978 
L 415.256727 187.368216 
L 416.587636 178.480214 
L 417.12 177.596782 
L 417.652364 177.143104 
L 418.184727 177.074307 
L 418.717091 177.367165 
L 419.249455 177.97298 
L 420.048 179.40855 
L 420.846545 181.363985 
L 421.911273 184.585759 
L 423.508364 190.235014 
L 426.436364 201.016757 
L 426.436364 201.016757 
" clip-path="url(#pe7d44224c8)" style="fill: none; stroke-dasharray: 3,4.95; stroke-dashoffset: 0; stroke: #ffa500; stroke-width: 3"/>
   </g>
   <g id="line2d_3">
    <path d="M 27.163636 177.654983 
L 28.494545 181.806035 
L 29.825455 185.081365 
L 30.890182 187.065308 
L 31.954909 188.495413 
L 32.753455 189.246443 
L 33.818182 189.859666 
L 34.882909 190.135674 
L 36.213818 190.221898 
L 37.544727 190.315986 
L 38.609455 190.672389 
L 39.408 191.075456 
L 40.738909 188.816507 
L 43.666909 183.547336 
L 44.465455 181.358064 
L 44.997818 181.127718 
L 45.530182 180.618268 
L 46.328727 179.352474 
L 47.393455 177.076553 
L 49.256727 172.670109 
L 49.522909 172.592143 
L 50.853818 176.714928 
L 51.918545 179.094956 
L 52.983273 180.857813 
L 54.314182 182.546529 
L 55.378909 183.715655 
L 56.443636 188.175504 
L 57.508364 191.594652 
L 58.306909 193.597783 
L 59.105455 195.005846 
L 59.637818 195.620982 
L 60.170182 195.982213 
L 60.436364 196.069196 
L 61.234909 196.672461 
L 62.033455 196.905478 
L 62.565818 196.862214 
L 63.098182 196.656582 
L 63.896727 196.041902 
L 64.695273 195.042492 
L 64.961455 194.620176 
L 65.227636 194.551075 
L 66.558545 196.853744 
L 67.623273 199.049816 
L 67.889455 198.873421 
L 69.752727 194.663652 
L 71.616 190.978302 
L 73.213091 188.288111 
L 74.544 186.490036 
L 75.342545 185.820828 
L 76.141091 185.518254 
L 76.673455 185.521351 
L 76.939636 185.594884 
L 77.472 186.16032 
L 78.270545 187.17321 
L 78.536727 186.158286 
L 79.335273 181.569556 
L 79.867636 179.556467 
L 80.4 178.28448 
L 80.932364 177.670407 
L 81.198545 177.58986 
L 81.464727 177.649093 
L 81.997091 178.144457 
L 82.529455 179.087578 
L 83.860364 181.942991 
L 85.191273 185.172659 
L 88.385455 193.352834 
L 89.716364 196.166167 
L 90.248727 197.147907 
L 90.514909 197.164332 
L 91.313455 195.072549 
L 92.112 193.795916 
L 92.644364 193.300887 
L 93.176727 193.064105 
L 93.709091 193.039543 
L 96.637091 188.847657 
L 96.903273 188.807581 
L 99.565091 193.628144 
L 101.428364 196.768279 
L 103.025455 199.939229 
L 104.622545 203.682326 
L 106.219636 208.010531 
L 107.550545 212.003252 
L 107.816727 212.177339 
L 109.413818 210.6509 
L 110.744727 209.08232 
L 111.277091 207.835532 
L 111.809455 206.058588 
L 116.068364 188.261728 
L 117.399273 184.021781 
L 118.464 181.42762 
L 119.262545 179.991109 
L 120.061091 178.999563 
L 120.859636 178.443448 
L 121.392 178.299569 
L 121.924364 178.330567 
L 122.456727 178.513733 
L 122.722909 178.401156 
L 124.053818 176.285721 
L 124.586182 175.83772 
L 125.118545 175.604065 
L 125.650909 175.555943 
L 126.449455 175.772384 
L 126.981818 176.069675 
L 127.514182 176.671574 
L 128.312727 177.939857 
L 129.643636 180.658526 
L 131.773091 185.089471 
L 132.837818 186.96105 
L 133.636364 189.088447 
L 134.168727 190.048722 
L 134.701091 190.442772 
L 135.233455 190.628002 
L 135.765818 191.200359 
L 136.298182 191.503601 
L 136.830545 191.556368 
L 137.362909 191.376603 
L 137.895273 190.981399 
L 138.693818 190.018057 
L 139.492364 188.651133 
L 140.557091 186.277238 
L 141.621818 183.349263 
L 142.952727 179.033567 
L 143.751273 176.542814 
L 145.880727 174.776921 
L 147.211636 173.786012 
L 147.744 173.626498 
L 149.074909 173.496312 
L 149.607273 173.422171 
L 150.139636 172.246214 
L 151.470545 169.216653 
L 152.801455 166.716276 
L 154.132364 164.703066 
L 154.398545 164.358048 
L 154.664727 164.486564 
L 157.326545 168.414253 
L 158.923636 171.135412 
L 159.988364 173.314664 
L 161.851636 177.864077 
L 164.247273 186.179811 
L 165.312 183.273817 
L 166.110545 181.622323 
L 166.909091 180.372893 
L 167.707636 179.470182 
L 168.506182 178.869285 
L 169.304727 178.517528 
L 170.103273 178.373436 
L 171.168 178.428935 
L 172.498909 178.775775 
L 174.628364 179.642357 
L 174.894545 179.758881 
L 175.160727 179.597089 
L 176.225455 177.286801 
L 176.757818 177.058914 
L 177.290182 177.282641 
L 178.354909 178.148738 
L 179.419636 179.363677 
L 180.484364 180.936811 
L 181.815273 183.050212 
L 182.88 183.683017 
L 183.944727 184.594715 
L 185.541818 186.330369 
L 190.333091 191.892277 
L 191.131636 192.632924 
L 191.397818 192.695709 
L 192.196364 192.353758 
L 192.994909 191.741507 
L 193.527273 191.209832 
L 194.059636 190.329861 
L 195.656727 189.53247 
L 198.584727 187.990304 
L 199.915636 187.557757 
L 200.181818 187.504444 
L 200.980364 188.498176 
L 202.577455 190.808586 
L 204.174545 193.526071 
L 204.440727 193.328515 
L 205.505455 191.483168 
L 206.304 190.427197 
L 207.102545 189.681419 
L 207.901091 189.27143 
L 208.433455 189.201267 
L 208.965818 189.298754 
L 209.498182 189.575825 
L 210.296727 190.314559 
L 211.095273 191.302037 
L 211.893818 192.714745 
L 212.958545 195.209566 
L 214.023273 197.267194 
L 215.354182 200.060186 
L 216.951273 204.068725 
L 218.814545 209.49067 
L 219.613091 211.795798 
L 219.879273 211.505763 
L 220.944 207.420291 
L 222.008727 204.048231 
L 223.073455 201.290336 
L 224.138182 199.085065 
L 225.202909 197.37546 
L 226.267636 196.109302 
L 227.332364 195.230059 
L 228.929455 193.720197 
L 230.260364 192.619413 
L 231.058909 192.269538 
L 231.591273 192.225728 
L 232.123636 192.370001 
L 232.656 192.72355 
L 233.720727 192.020915 
L 234.253091 191.995017 
L 234.785455 192.236961 
L 235.317818 192.75303 
L 235.850182 193.538853 
L 236.648727 195.220982 
L 237.447273 197.484303 
L 238.512 201.304515 
L 239.842909 207.129952 
L 240.375273 209.322958 
L 240.641455 209.225288 
L 240.907636 208.359435 
L 241.972364 203.656033 
L 243.037091 199.925142 
L 243.569455 198.110733 
L 244.634182 193.34576 
L 245.698909 189.577434 
L 246.497455 187.51759 
L 247.029818 186.556313 
L 247.562182 185.934042 
L 248.094545 185.680562 
L 248.893091 185.693647 
L 249.425455 185.430451 
L 249.957818 185.508873 
L 250.490182 185.928456 
L 251.022545 186.692723 
L 251.554909 187.783549 
L 252.353455 190.01578 
L 253.418182 193.952031 
L 254.482909 198.747941 
L 254.749091 198.337283 
L 255.813818 192.587322 
L 256.612364 189.285214 
L 257.410909 186.699311 
L 258.209455 184.692385 
L 259.008 183.163912 
L 259.806545 182.026179 
L 260.072727 181.726095 
L 260.871273 180.029242 
L 261.669818 178.794113 
L 262.468364 177.937246 
L 263.266909 177.385138 
L 264.065455 177.062284 
L 264.864 176.895969 
L 266.461091 176.968743 
L 267.259636 176.64179 
L 267.792 176.21996 
L 268.590545 175.212596 
L 268.856727 174.7625 
L 269.122909 174.809589 
L 270.187636 179.508892 
L 270.72 181.042162 
L 271.252364 182.019925 
L 271.784727 182.499167 
L 272.317091 182.526765 
L 272.849455 182.16517 
L 273.381818 181.483696 
L 273.914182 180.787255 
L 274.712727 181.446869 
L 276.043636 182.149322 
L 276.576 182.303584 
L 276.842182 182.194954 
L 277.640727 182.494522 
L 278.705455 183.224117 
L 279.770182 184.215512 
L 281.367273 186.049473 
L 282.964364 188.214851 
L 284.561455 190.763744 
L 285.892364 193.302526 
L 286.957091 195.733529 
L 288.021818 198.669823 
L 289.086545 202.32293 
L 290.151273 206.949064 
L 290.683636 209.227383 
L 292.546909 207.069838 
L 293.345455 204.061924 
L 295.208727 202.843857 
L 295.741091 202.067841 
L 296.805818 199.850485 
L 300.266182 191.949659 
L 301.330909 190.201223 
L 302.129455 189.248295 
L 302.928 188.626146 
L 303.726545 188.34021 
L 304.525091 188.386662 
L 305.323636 188.747163 
L 306.122182 189.402284 
L 306.920727 190.322119 
L 307.985455 191.908247 
L 308.251636 191.925826 
L 308.784 191.679571 
L 310.647273 192.065484 
L 311.445818 191.970122 
L 312.244364 191.637643 
L 313.042909 191.023175 
L 314.107636 190.005063 
L 314.373818 190.399599 
L 315.438545 192.771459 
L 316.237091 194.095363 
L 317.035636 195.025308 
L 317.834182 195.582364 
L 318.632727 195.804876 
L 319.431273 195.743184 
L 320.229818 195.458159 
L 321.560727 194.671364 
L 321.826909 194.488715 
L 322.359273 193.149934 
L 323.424 190.35506 
L 324.488727 188.149788 
L 325.553455 186.527835 
L 326.352 185.675825 
L 326.618182 185.458019 
L 328.481455 182.673194 
L 329.546182 181.52444 
L 330.344727 181.006064 
L 330.877091 180.847946 
L 331.143273 180.879642 
L 331.675636 181.266011 
L 332.740364 180.637425 
L 333.538909 180.49634 
L 334.603636 180.606457 
L 336.200727 181.100212 
L 338.862545 181.997276 
L 340.459636 182.161193 
L 341.258182 182.607463 
L 342.056727 183.332474 
L 342.855273 184.332461 
L 343.387636 184.965661 
L 344.452364 185.32261 
L 345.517091 185.899553 
L 346.848 186.936215 
L 351.106909 190.740154 
L 351.639273 190.951463 
L 351.905455 191.490789 
L 354.034909 198.50375 
L 358.027636 210.69134 
L 360.157091 209.526314 
L 361.754182 208.87268 
L 362.552727 208.580703 
L 363.085091 207.654098 
L 364.682182 204.742457 
L 367.876364 199.19664 
L 369.207273 196.396604 
L 370.272 193.686375 
L 371.336727 190.342916 
L 372.135273 187.753279 
L 372.667636 186.223804 
L 373.2 185.77386 
L 374.264727 185.343559 
L 375.329455 185.16428 
L 377.991273 184.92182 
L 381.185455 184.175952 
L 382.782545 183.632072 
L 383.314909 183.448087 
L 384.379636 183.955625 
L 385.178182 184.046707 
L 385.710545 183.908171 
L 386.242909 183.567192 
L 386.775273 182.976587 
L 387.307636 182.094005 
L 387.84 180.865555 
L 388.106182 180.108362 
L 388.904727 180.644226 
L 389.170909 180.639247 
L 389.703273 180.298085 
L 390.235636 182.507334 
L 391.034182 185.543241 
L 391.566545 186.885968 
L 392.098909 187.722008 
L 392.631273 188.081659 
L 393.163636 188.00342 
L 394.494545 187.470075 
L 395.825455 186.712275 
L 397.156364 185.725344 
L 398.487273 184.469599 
L 399.818182 182.896891 
L 401.149091 180.978618 
L 402.746182 178.244131 
L 404.077091 175.738259 
L 404.343273 175.610835 
L 404.875636 176.385941 
L 405.674182 178.039865 
L 406.472727 180.329174 
L 409.666909 195.676269 
L 410.199273 197.080234 
L 410.731636 197.950459 
L 411.264 198.406597 
L 411.796364 198.438141 
L 412.328727 198.037898 
L 412.861091 197.183277 
L 413.393455 195.852694 
L 413.925818 194.038376 
L 414.724364 190.362255 
L 415.522909 185.51206 
L 416.321455 179.668406 
L 416.587636 178.944155 
L 417.12 178.297353 
L 417.652364 178.061663 
L 418.184727 178.186597 
L 418.717091 178.645467 
L 419.249455 179.385901 
L 420.048 180.95606 
L 421.112727 183.71942 
L 422.443636 187.911367 
L 424.573091 195.539525 
L 426.436364 202.578202 
L 426.436364 202.578202 
" clip-path="url(#pe7d44224c8)" style="fill: none; stroke: #ffa500; stroke-width: 3; stroke-linecap: square"/>
   </g>
   <g id="patch_3">
    <path d="M 7.2 331.2 
L 7.2 7.2 
" style="fill: none; stroke: #000000; stroke-width: 0.8; stroke-linejoin: miter; stroke-linecap: square"/>
   </g>
   <g id="patch_4">
    <path d="M 446.4 331.2 
L 446.4 7.2 
" style="fill: none; stroke: #000000; stroke-width: 0.8; stroke-linejoin: miter; stroke-linecap: square"/>
   </g>
   <g id="patch_5">
    <path d="M 7.2 331.2 
L 446.4 331.2 
" style="fill: none; stroke: #000000; stroke-width: 0.8; stroke-linejoin: miter; stroke-linecap: square"/>
   </g>
   <g id="patch_6">
    <path d="M 7.2 7.2 
L 446.4 7.2 
" style="fill: none; stroke: #000000; stroke-width: 0.8; stroke-linejoin: miter; stroke-linecap: square"/>
   </g>
  </g>
 </g>
 <defs>
  <clipPath id="pe7d44224c8">
   <rect x="7.2" y="7.2" width="439.2" height="324"/>
  </clipPath>
 </defs>
</svg>
