<?xml version="1.0" encoding="utf-8" standalone="no"?>
<!DOCTYPE svg PUBLIC "-//W3C//DTD SVG 1.1//EN"
  "http://www.w3.org/Graphics/SVG/1.1/DTD/svg11.dtd">
<svg xmlns:xlink="http://www.w3.org/1999/xlink" width="453.6pt" height="338.4pt" viewBox="0 0 453.6 338.4" xmlns="http://www.w3.org/2000/svg" version="1.1">
 <metadata>
  <rdf:RDF xmlns:dc="http://purl.org/dc/elements/1.1/" xmlns:cc="http://creativecommons.org/ns#" xmlns:rdf="http://www.w3.org/1999/02/22-rdf-syntax-ns#">
   <cc:Work>
    <dc:type rdf:resource="http://purl.org/dc/dcmitype/StillImage"/>
    <dc:date>2025-05-14T00:13:24.038983</dc:date>
    <dc:format>image/svg+xml</dc:format>
    <dc:creator>
     <cc:Agent>
      <dc:title>Matplotlib v3.10.1, https://matplotlib.org/</dc:title>
     </cc:Agent>
    </dc:creator>
   </cc:Work>
  </rdf:RDF>
 </metadata>
 <defs>
  <style type="text/css">*{stroke-linejoin: round; stroke-linecap: butt}</style>
 </defs>
 <g id="figure_1">
  <g id="patch_1">
   <path d="M 0 338.4 
L 453.6 338.4 
L 453.6 0 
L 0 0 
z
" style="fill: #ffffff"/>
  </g>
  <g id="axes_1">
   <g id="patch_2">
    <path d="M 7.2 331.2 
L 446.4 331.2 
L 446.4 7.2 
L 7.2 7.2 
z
" style="fill: #ffffff"/>
   </g>
   <g id="matplotlib.axis_1"/>
   <g id="matplotlib.axis_2"/>
   <g id="line2d_1">
    <path d="M 27.163636 238.275606 
L 29.825455 226.018514 
L 32.487273 214.777376 
L 35.149091 204.523215 
L 37.544727 196.114362 
L 39.940364 188.460275 
L 42.336 181.539842 
L 44.731636 175.331917 
L 46.861091 170.394785 
L 48.990545 165.989061 
L 51.12 162.099841 
L 53.249455 158.712303 
L 55.112727 156.14802 
L 56.976 153.946602 
L 58.839273 152.097978 
L 60.702545 150.592217 
L 62.299636 149.566943 
L 63.896727 148.779943 
L 65.493818 148.225036 
L 67.090909 147.895944 
L 68.688 147.786342 
L 70.285091 147.890025 
L 71.882182 148.200667 
L 73.479273 148.712086 
L 75.342545 149.55403 
L 77.205818 150.650741 
L 79.069091 151.992242 
L 81.198545 153.812297 
L 83.328 155.924258 
L 85.723636 158.630555 
L 88.119273 161.666255 
L 90.781091 165.399951 
L 93.709091 169.911983 
L 96.903273 175.274025 
L 100.363636 181.544222 
L 104.090182 188.761942 
L 108.349091 197.501809 
L 113.406545 208.403103 
L 120.327273 223.895156 
L 133.902545 254.388776 
L 139.226182 265.719133 
L 143.485091 274.286386 
L 147.211636 281.318772 
L 150.672 287.388131 
L 153.866182 292.540255 
L 156.794182 296.839193 
L 159.456 300.362009 
L 161.851636 303.193978 
L 164.247273 305.683279 
L 166.376727 307.591216 
L 168.506182 309.196817 
L 170.369455 310.342051 
L 172.232727 311.234488 
L 174.096 311.864197 
L 175.693091 312.187275 
L 177.290182 312.303745 
L 178.887273 312.207336 
L 180.484364 311.891777 
L 182.081455 311.350809 
L 183.678545 310.578165 
L 185.275636 309.56757 
L 186.872727 308.312752 
L 187.138909 308.079448 
L 187.405091 307.099428 
L 190.333091 289.253446 
L 193.261091 272.838124 
L 195.922909 259.09532 
L 198.584727 246.420001 
L 201.246545 234.757509 
L 203.908364 224.053139 
L 206.570182 214.252208 
L 209.232 205.300107 
L 211.893818 197.142071 
L 214.555636 189.723525 
L 217.217455 182.989621 
L 219.879273 176.885808 
L 222.541091 171.357357 
L 225.202909 166.349611 
L 227.864727 161.807864 
L 230.526545 157.677458 
L 233.454545 153.543878 
L 236.648727 149.441135 
L 240.109091 145.368752 
L 244.368 140.714586 
L 256.612364 127.585346 
L 260.072727 123.418255 
L 263.000727 119.566722 
L 265.928727 115.339484 
L 268.590545 111.10931 
L 271.252364 106.453855 
L 273.914182 101.318439 
L 276.576 95.648404 
L 278.971636 90.043074 
L 281.367273 83.920477 
L 283.762909 77.240801 
L 286.424727 69.117087 
L 289.086545 60.201767 
L 291.748364 50.440135 
L 294.410182 39.777485 
L 297.072 28.159137 
L 298.402909 21.974484 
L 298.935273 21.941904 
L 302.129455 22.241376 
L 305.323636 22.772606 
L 308.517818 23.538626 
L 311.712 24.542538 
L 314.906182 25.787493 
L 318.100364 27.276785 
L 321.294545 29.013254 
L 324.488727 31.000217 
L 327.682909 33.240683 
L 330.877091 35.737826 
L 334.337455 38.736411 
L 337.797818 42.043824 
L 341.258182 45.664195 
L 344.718545 49.601341 
L 348.178909 53.859298 
L 351.905455 58.808042 
L 355.632 64.138532 
L 359.358545 69.855587 
L 363.085091 75.964173 
L 367.077818 82.949241 
L 371.070545 90.395652 
L 375.063273 98.3094 
L 379.056 106.696641 
L 383.314909 116.171833 
L 387.573818 126.200118 
L 391.832727 136.788872 
L 396.357818 148.661797 
L 400.882909 161.184814 
L 405.408 174.366659 
L 409.933091 188.216284 
L 414.724364 203.618236 
L 419.515636 219.78943 
L 424.306909 236.740272 
L 426.436364 244.52697 
L 426.436364 244.52697 
" clip-path="url(#pf14debbde6)" style="fill: none; stroke-dasharray: 11.1,4.8; stroke-dashoffset: 0; stroke: #000000; stroke-width: 3"/>
   </g>
   <g id="line2d_2">
    <path d="M 27.163636 158.969099 
L 29.026909 160.806935 
L 31.156364 163.239419 
L 33.285818 166.010518 
L 35.681455 169.511621 
L 38.077091 173.395064 
L 40.738909 178.126168 
L 44.465455 184.844952 
L 46.861091 187.139598 
L 49.522909 189.378393 
L 52.450909 191.545775 
L 56.177455 194.002962 
L 63.896727 198.722956 
L 67.090909 200.4067 
L 70.285091 201.853269 
L 73.479273 203.06519 
L 76.673455 204.045044 
L 77.738182 204.2373 
L 79.867636 204.188681 
L 82.263273 203.898781 
L 84.658909 203.390201 
L 87.320727 202.606925 
L 90.514909 201.422976 
L 96.104727 199.253518 
L 99.298909 198.473464 
L 104.356364 197.508791 
L 109.413818 196.47922 
L 110.744727 196.107488 
L 112.608 194.947157 
L 114.737455 193.350495 
L 116.600727 191.695416 
L 118.464 189.773266 
L 120.327273 187.559114 
L 122.190545 185.028199 
L 124.053818 182.155816 
L 125.917091 178.917572 
L 127.780364 175.254716 
L 129.909818 171.06822 
L 132.039273 167.336673 
L 134.168727 164.02692 
L 136.298182 161.105548 
L 138.427636 158.538902 
L 140.557091 156.293257 
L 142.952727 154.108404 
L 147.744 149.962651 
L 153.6 144.964643 
L 157.592727 141.838053 
L 160.786909 139.596776 
L 161.851636 139.031892 
L 165.312 137.568545 
L 168.772364 136.357721 
L 172.232727 135.394503 
L 175.693091 134.67357 
L 178.621091 134.24767 
L 179.153455 134.351973 
L 180.750545 135.008653 
L 182.613818 136.038534 
L 184.477091 137.349508 
L 186.340364 138.939189 
L 188.203636 140.803495 
L 190.333091 143.265646 
L 192.462545 146.076295 
L 194.592 149.248735 
L 196.721455 152.445735 
L 207.634909 167.292899 
L 210.030545 170.02051 
L 211.893818 171.86904 
L 212.426182 172.132733 
L 214.821818 172.549373 
L 217.217455 172.754065 
L 219.879273 172.744518 
L 222.541091 172.498057 
L 225.202909 172.027595 
L 228.130909 171.266611 
L 228.663273 171.028313 
L 231.325091 169.367315 
L 234.253091 167.272492 
L 237.979636 164.324292 
L 245.166545 158.483767 
L 249.425455 156.41138 
L 253.950545 154.455254 
L 259.274182 152.409837 
L 261.936 151.53887 
L 268.324364 149.962269 
L 285.892364 145.986647 
L 291.748364 145.031377 
L 294.410182 144.538837 
L 296.805818 143.153037 
L 299.201455 141.512231 
L 301.863273 139.410033 
L 304.791273 136.783669 
L 307.719273 133.85621 
L 311.978182 129.453113 
L 314.107636 128.01244 
L 316.237091 126.814863 
L 318.366545 125.851264 
L 320.496 125.113002 
L 322.625455 124.592393 
L 324.754909 124.281345 
L 327.150545 124.171266 
L 328.747636 124.280534 
L 332.208 125.11842 
L 335.668364 126.179186 
L 339.128727 127.480064 
L 342.322909 128.909901 
L 345.250909 130.441988 
L 346.848 131.590803 
L 351.373091 135.116083 
L 362.020364 143.601851 
L 366.013091 144.396942 
L 376.394182 146.314975 
L 378.789818 147.008102 
L 390.235636 150.995873 
L 396.890182 153.690785 
L 399.552 154.97381 
L 402.213818 156.506971 
L 404.875636 158.3144 
L 407.271273 160.196249 
L 409.666909 162.338354 
L 410.199273 162.977325 
L 410.731636 164.491845 
L 413.659636 174.089027 
L 416.321455 183.563861 
L 418.983273 193.872739 
L 421.645091 205.124558 
L 424.306909 217.421676 
L 426.436364 228.076592 
L 426.436364 228.076592 
" clip-path="url(#pf14debbde6)" style="fill: none; stroke-dasharray: 3,4.95; stroke-dashoffset: 0; stroke: #ffa500; stroke-width: 3"/>
   </g>
   <g id="line2d_3">
    <path d="M 27.163636 265.104771 
L 29.293091 247.594248 
L 31.422545 232.112314 
L 33.552 218.42535 
L 35.681455 206.294675 
L 37.810909 195.487529 
L 39.940364 185.768668 
L 42.336 175.847597 
L 43.933091 169.946854 
L 44.465455 169.293634 
L 46.594909 167.149333 
L 47.925818 166.23872 
L 48.990545 165.769666 
L 50.055273 165.538529 
L 51.12 165.552659 
L 52.184727 165.81893 
L 53.249455 166.343071 
L 54.314182 167.131479 
L 55.378909 168.189691 
L 56.443636 169.523626 
L 57.774545 171.587254 
L 59.105455 174.100268 
L 60.702545 177.524182 
L 62.565818 175.756517 
L 65.76 173.434065 
L 68.688 171.035044 
L 71.616 168.367174 
L 74.810182 165.137069 
L 77.738182 162.103636 
L 78.270545 162.049122 
L 79.867636 162.24799 
L 81.198545 162.634365 
L 82.795636 163.35031 
L 84.392727 164.321165 
L 86.256 165.748854 
L 88.119273 167.462767 
L 90.248727 169.729559 
L 92.644364 172.613769 
L 94.773818 175.169173 
L 95.306182 175.475638 
L 96.637091 175.781913 
L 97.701818 176.020975 
L 101.162182 177.913039 
L 107.284364 181.209115 
L 109.68 182.764354 
L 110.744727 183.63019 
L 111.809455 185.33217 
L 112.608 187.023838 
L 114.205091 191.153385 
L 116.068364 196.767426 
L 117.665455 202.334209 
L 119.262545 208.707348 
L 120.859636 215.938208 
L 122.722909 225.527895 
L 124.586182 236.436337 
L 126.449455 248.744304 
L 128.312727 262.585837 
L 129.377455 269.810109 
L 130.974545 278.103477 
L 133.104 287.636167 
L 134.701091 293.844999 
L 136.298182 299.094146 
L 137.629091 302.789677 
L 138.96 305.914095 
L 140.290909 308.511506 
L 141.621818 310.62583 
L 142.952727 312.301173 
L 145.614545 315.020598 
L 146.679273 315.74714 
L 147.744 316.23567 
L 148.808727 316.4712 
L 149.873455 316.38623 
L 150.938182 316.076709 
L 152.002909 315.539966 
L 153.067636 314.770175 
L 154.132364 313.762563 
L 155.463273 312.160447 
L 156.794182 310.168137 
L 158.125091 307.775513 
L 159.456 304.972359 
L 160.786909 301.724496 
L 161.585455 299.367196 
L 163.714909 292.882928 
L 166.376727 285.412815 
L 169.304727 277.85735 
L 171.700364 272.245123 
L 173.829818 267.799087 
L 175.693091 264.403147 
L 177.290182 261.910372 
L 177.556364 261.536599 
L 177.822545 261.35568 
L 178.088727 261.590828 
L 178.887273 262.854209 
L 182.613818 266.050517 
L 185.275636 268.32256 
L 187.138909 269.650671 
L 188.469818 270.37053 
L 189.800727 270.836338 
L 190.865455 270.989284 
L 191.930182 270.916725 
L 192.994909 270.591739 
L 193.793455 270.142638 
L 194.059636 269.941574 
L 194.592 268.667882 
L 198.850909 256.124004 
L 200.980364 248.77705 
L 203.376 239.734036 
L 206.570182 226.727024 
L 212.16 203.696404 
L 213.224727 201.315522 
L 216.418909 194.740746 
L 220.411636 187.095156 
L 224.404364 179.959482 
L 228.130909 173.326468 
L 228.663273 172.339574 
L 231.325091 168.457108 
L 237.181091 160.21224 
L 240.907636 154.246194 
L 243.569455 149.606826 
L 244.368 147.996786 
L 245.166545 145.747847 
L 254.482909 117.081896 
L 258.209455 106.643558 
L 260.605091 100.439118 
L 262.468364 97.14056 
L 265.396364 92.198737 
L 267.525818 88.930061 
L 269.921455 86.27403 
L 272.317091 83.928473 
L 274.712727 81.880121 
L 277.108364 80.117135 
L 278.173091 79.562347 
L 286.424727 75.778695 
L 289.086545 74.270524 
L 291.482182 72.638907 
L 293.611636 70.917451 
L 300 65.145308 
L 302.661818 62.231311 
L 305.323636 58.949365 
L 307.719273 55.64842 
L 310.114909 51.991078 
L 311.445818 49.777082 
L 313.042909 46.645504 
L 314.64 44.028711 
L 315.970909 42.400627 
L 317.568 40.806626 
L 319.165091 39.50687 
L 321.294545 38.079277 
L 326.884364 34.559892 
L 327.682909 33.928535 
L 327.949091 33.980949 
L 328.747636 34.595025 
L 332.474182 36.826588 
L 335.136 38.681801 
L 337.797818 40.809299 
L 340.992 43.669927 
L 344.452364 47.076178 
L 344.984727 47.870314 
L 346.049455 49.543939 
L 347.646545 52.202548 
L 349.243636 55.271592 
L 351.106909 59.362568 
L 352.970182 64.004036 
L 355.099636 69.981539 
L 357.229091 76.674891 
L 359.358545 84.08352 
L 361.221818 90.664883 
L 361.754182 90.714243 
L 362.552727 91.639844 
L 364.682182 94.02378 
L 366.811636 96.062585 
L 368.941091 97.806763 
L 371.336727 99.483348 
L 373.998545 101.078971 
L 377.458909 102.882438 
L 378.257455 103.104124 
L 380.653091 103.328579 
L 388.106182 103.821501 
L 389.969455 104.277093 
L 391.566545 104.886109 
L 393.163636 105.743925 
L 393.429818 105.976972 
L 394.228364 107.557607 
L 397.422545 115.090063 
L 400.084364 121.936648 
L 402.48 128.675063 
L 404.875636 136.07109 
L 407.271273 144.229174 
L 409.400727 152.198414 
L 409.933091 155.058183 
L 410.199273 156.66555 
L 410.731636 158.046839 
L 412.594909 161.862379 
L 414.724364 166.729829 
L 417.386182 173.374108 
L 421.378909 184.009119 
L 426.436364 197.670878 
L 426.436364 197.670878 
" clip-path="url(#pf14debbde6)" style="fill: none; stroke: #ffa500; stroke-width: 3; stroke-linecap: square"/>
   </g>
   <g id="patch_3">
    <path d="M 7.2 331.2 
L 7.2 7.2 
" style="fill: none; stroke: #000000; stroke-width: 0.8; stroke-linejoin: miter; stroke-linecap: square"/>
   </g>
   <g id="patch_4">
    <path d="M 446.4 331.2 
L 446.4 7.2 
" style="fill: none; stroke: #000000; stroke-width: 0.8; stroke-linejoin: miter; stroke-linecap: square"/>
   </g>
   <g id="patch_5">
    <path d="M 7.2 331.2 
L 446.4 331.2 
" style="fill: none; stroke: #000000; stroke-width: 0.8; stroke-linejoin: miter; stroke-linecap: square"/>
   </g>
   <g id="patch_6">
    <path d="M 7.2 7.2 
L 446.4 7.2 
" style="fill: none; stroke: #000000; stroke-width: 0.8; stroke-linejoin: miter; stroke-linecap: square"/>
   </g>
  </g>
 </g>
 <defs>
  <clipPath id="pf14debbde6">
   <rect x="7.2" y="7.2" width="439.2" height="324"/>
  </clipPath>
 </defs>
</svg>
