<?xml version="1.0" encoding="utf-8" standalone="no"?>
<!DOCTYPE svg PUBLIC "-//W3C//DTD SVG 1.1//EN"
  "http://www.w3.org/Graphics/SVG/1.1/DTD/svg11.dtd">
<svg xmlns:xlink="http://www.w3.org/1999/xlink" width="453.6pt" height="338.4pt" viewBox="0 0 453.6 338.4" xmlns="http://www.w3.org/2000/svg" version="1.1">
 <metadata>
  <rdf:RDF xmlns:dc="http://purl.org/dc/elements/1.1/" xmlns:cc="http://creativecommons.org/ns#" xmlns:rdf="http://www.w3.org/1999/02/22-rdf-syntax-ns#">
   <cc:Work>
    <dc:type rdf:resource="http://purl.org/dc/dcmitype/StillImage"/>
    <dc:date>2025-05-14T00:03:39.210583</dc:date>
    <dc:format>image/svg+xml</dc:format>
    <dc:creator>
     <cc:Agent>
      <dc:title>Matplotlib v3.10.1, https://matplotlib.org/</dc:title>
     </cc:Agent>
    </dc:creator>
   </cc:Work>
  </rdf:RDF>
 </metadata>
 <defs>
  <style type="text/css">*{stroke-linejoin: round; stroke-linecap: butt}</style>
 </defs>
 <g id="figure_1">
  <g id="patch_1">
   <path d="M 0 338.4 
L 453.6 338.4 
L 453.6 0 
L 0 0 
z
" style="fill: #ffffff"/>
  </g>
  <g id="axes_1">
   <g id="patch_2">
    <path d="M 7.2 331.2 
L 446.4 331.2 
L 446.4 7.2 
L 7.2 7.2 
z
" style="fill: #ffffff"/>
   </g>
   <g id="matplotlib.axis_1"/>
   <g id="matplotlib.axis_2"/>
   <g id="line2d_1">
    <path d="M 27.163636 60.589159 
L 29.293091 83.120016 
L 31.422545 103.289151 
L 33.285818 118.999777 
L 35.149091 132.902197 
L 37.012364 144.996398 
L 38.609455 153.923679 
L 40.206545 161.522498 
L 41.537455 166.840003 
L 42.868364 171.234975 
L 43.933091 174.086732 
L 44.997818 176.348045 
L 46.062545 178.018901 
L 46.861091 178.884586 
L 47.659636 179.418156 
L 48.458182 179.619597 
L 49.256727 179.488922 
L 50.055273 179.026119 
L 50.853818 178.231199 
L 51.652364 177.104164 
L 52.450909 175.645027 
L 53.515636 173.182854 
L 54.580364 170.130236 
L 55.911273 165.484192 
L 56.709818 162.738307 
L 59.371636 173.559666 
L 61.767273 182.393543 
L 64.162909 190.369755 
L 66.292364 196.739729 
L 68.421818 202.432029 
L 70.551273 207.446654 
L 72.414545 211.278544 
L 74.277818 214.591613 
L 75.874909 217.018443 
L 77.472 219.06408 
L 79.069091 220.728511 
L 80.4 221.824371 
L 81.730909 222.655518 
L 83.061818 223.221938 
L 84.392727 223.523657 
L 85.723636 223.560663 
L 87.054545 223.332955 
L 88.385455 222.840534 
L 89.716364 222.083399 
L 91.047273 221.061563 
L 92.378182 219.775001 
L 93.975273 217.881701 
L 95.572364 215.607235 
L 97.169455 212.951563 
L 99.032727 209.371511 
L 100.896 205.272625 
L 102.759273 200.654892 
L 104.356364 196.283905 
L 104.888727 192.118975 
L 107.018182 174.32667 
L 109.147636 158.501359 
L 111.010909 146.267815 
L 112.874182 135.540178 
L 114.471273 127.543728 
L 116.068364 120.653733 
L 117.399273 115.757223 
L 118.730182 111.629141 
L 120.061091 108.26933 
L 121.125818 106.13476 
L 122.190545 104.491886 
L 122.989091 103.58248 
L 123.787636 102.949647 
L 124.586182 102.593442 
L 125.384727 102.513863 
L 126.183273 102.710858 
L 126.981818 103.184479 
L 127.780364 103.934701 
L 128.578909 104.96155 
L 129.643636 106.760943 
L 130.708364 109.052112 
L 131.773091 111.834976 
L 133.104 116.005116 
L 133.370182 116.064642 
L 136.564364 105.382005 
L 139.758545 95.452889 
L 142.952727 86.277371 
L 145.880727 78.528392 
L 148.808727 71.412695 
L 151.470545 65.49332 
L 154.132364 60.097225 
L 156.794182 55.224463 
L 159.189818 51.286384 
L 161.585455 47.772163 
L 163.981091 44.681854 
L 166.110545 42.290764 
L 168.24 40.234559 
L 170.369455 38.513294 
L 172.232727 37.28193 
L 174.096 36.306956 
L 175.959273 35.588396 
L 177.822545 35.126279 
L 179.685818 34.920577 
L 180.218182 34.908914 
L 180.484364 34.697328 
L 182.081455 31.437491 
L 183.678545 28.65716 
L 185.275636 26.356335 
L 186.606545 24.805336 
L 187.937455 23.587244 
L 189.268364 22.702218 
L 190.333091 22.233953 
L 191.397818 21.978751 
L 192.462545 21.936745 
L 193.527273 22.107777 
L 194.592 22.491925 
L 195.656727 23.089269 
L 196.987636 24.135537 
L 198.318545 25.514845 
L 199.649455 27.227166 
L 200.980364 29.27242 
L 202.577455 32.166367 
L 204.174545 35.539794 
L 205.771636 39.3927 
L 207.634909 44.493857 
L 209.498182 50.247609 
L 211.627636 57.622572 
L 213.757091 65.850001 
L 215.886545 74.929844 
L 218.282182 86.163702 
L 220.677818 98.476468 
L 223.339636 113.422651 
L 226.001455 129.700831 
L 228.663273 147.311036 
L 231.591273 168.220472 
L 234.519273 190.741963 
L 237.713455 217.148841 
L 240.907636 245.47353 
L 242.770909 262.121235 
L 244.634182 268.219147 
L 246.497455 273.539977 
L 248.094545 277.482205 
L 249.691636 280.853501 
L 251.288727 283.653852 
L 252.619636 285.551407 
L 253.950545 287.052504 
L 255.015273 287.967906 
L 256.08 288.629578 
L 257.144727 289.037513 
L 258.209455 289.191711 
L 259.274182 289.092158 
L 260.338909 288.738887 
L 261.403636 288.131853 
L 262.468364 287.271109 
L 263.533091 286.1566 
L 264.864 284.406667 
L 266.194909 282.26027 
L 267.525818 279.717383 
L 269.122909 276.142608 
L 270.72 271.996901 
L 272.317091 267.280374 
L 274.180364 261.056081 
L 276.043636 254.054725 
L 278.173091 245.101718 
L 280.302545 235.133669 
L 282.432 224.150632 
L 284.827636 210.581687 
L 287.223273 195.728158 
L 289.885091 177.717669 
L 292.546909 158.121327 
L 295.208727 136.93909 
L 297.338182 119.197247 
L 299.467636 114.916947 
L 301.597091 111.130955 
L 303.460364 108.223656 
L 305.323636 105.694833 
L 307.186909 103.544406 
L 308.784 102.00243 
L 310.381091 100.738428 
L 311.978182 99.752477 
L 313.575273 99.044577 
L 315.172364 98.614729 
L 316.503273 98.468869 
L 317.834182 98.516126 
L 319.165091 98.756446 
L 320.496 99.189883 
L 322.093091 99.964828 
L 323.690182 101.017772 
L 325.287273 102.348821 
L 326.884364 103.957894 
L 328.747636 106.186529 
L 330.610909 108.793612 
L 332.474182 111.779117 
L 334.603636 115.65453 
L 336.733091 120.024251 
L 338.862545 124.888175 
L 341.258182 130.950955 
L 343.653818 137.639391 
L 346.049455 144.953324 
L 348.711273 153.813651 
L 351.373091 163.446378 
L 354.301091 174.934225 
L 357.229091 187.356689 
L 360.157091 200.713653 
L 363.351273 216.350703 
L 366.811636 234.215582 
L 369.207273 234.778268 
L 371.602909 235.570562 
L 373.998545 236.592424 
L 376.394182 237.843894 
L 379.056 239.503641 
L 381.717818 241.446862 
L 384.379636 243.673504 
L 387.041455 246.183607 
L 389.969455 249.272069 
L 392.897455 252.703498 
L 395.825455 256.477907 
L 398.753455 260.595276 
L 401.947636 265.478058 
L 405.141818 270.769033 
L 408.602182 276.961518 
L 412.062545 283.632975 
L 415.522909 290.783495 
L 419.249455 299.019711 
L 422.976 307.811469 
L 426.436364 316.472724 
L 426.436364 316.472724 
" clip-path="url(#p35d7a57169)" style="fill: none; stroke-dasharray: 11.1,4.8; stroke-dashoffset: 0; stroke: #000000; stroke-width: 3"/>
   </g>
   <g id="line2d_2">
    <path d="M 27.163636 60.589159 
L 29.293091 83.120016 
L 31.422545 103.289151 
L 33.285818 118.999777 
L 35.149091 132.902197 
L 37.012364 144.996398 
L 38.609455 153.923679 
L 40.206545 161.522498 
L 41.537455 166.840003 
L 42.868364 171.234975 
L 43.933091 174.086732 
L 44.997818 176.348045 
L 46.062545 178.018901 
L 46.861091 178.884586 
L 47.659636 179.418156 
L 48.458182 179.619597 
L 49.256727 179.488922 
L 50.055273 179.026119 
L 50.853818 178.231199 
L 51.652364 177.104164 
L 52.450909 175.645027 
L 53.515636 173.182854 
L 54.580364 170.130236 
L 55.911273 165.484192 
L 56.709818 162.738307 
L 59.371636 173.559666 
L 61.767273 182.393543 
L 64.162909 190.369755 
L 66.292364 196.739729 
L 68.421818 202.432029 
L 70.551273 207.446654 
L 72.414545 211.278544 
L 74.277818 214.591613 
L 75.874909 217.018443 
L 77.472 219.06408 
L 79.069091 220.728511 
L 80.4 221.824371 
L 81.730909 222.655518 
L 83.061818 223.221938 
L 84.392727 223.523657 
L 85.723636 223.560663 
L 87.054545 223.332955 
L 88.385455 222.840534 
L 89.716364 222.083399 
L 91.047273 221.061563 
L 92.378182 219.775001 
L 93.975273 217.881701 
L 95.572364 215.607235 
L 97.169455 212.951563 
L 99.032727 209.371511 
L 100.896 205.272625 
L 102.759273 200.654892 
L 104.356364 196.283905 
L 104.888727 192.118975 
L 107.018182 174.32667 
L 109.147636 158.501359 
L 111.010909 146.267815 
L 112.874182 135.540178 
L 114.471273 127.543728 
L 116.068364 120.653733 
L 117.399273 115.757223 
L 118.730182 111.629141 
L 120.061091 108.26933 
L 121.125818 106.13476 
L 122.190545 104.491886 
L 122.989091 103.58248 
L 123.787636 102.949647 
L 124.586182 102.593442 
L 125.384727 102.513863 
L 126.183273 102.710858 
L 126.981818 103.184479 
L 127.780364 103.934701 
L 128.578909 104.96155 
L 129.643636 106.760943 
L 130.708364 109.052112 
L 131.773091 111.834976 
L 133.104 116.005116 
L 133.370182 116.064642 
L 136.564364 105.382005 
L 139.758545 95.452889 
L 142.952727 86.277371 
L 145.880727 78.528392 
L 148.808727 71.412695 
L 151.470545 65.49332 
L 154.132364 60.097225 
L 156.794182 55.224463 
L 159.189818 51.286384 
L 161.585455 47.772163 
L 163.981091 44.681854 
L 166.110545 42.290764 
L 168.24 40.234559 
L 170.369455 38.513294 
L 172.232727 37.28193 
L 174.096 36.306956 
L 175.959273 35.588396 
L 177.822545 35.126279 
L 179.685818 34.920577 
L 180.218182 34.908914 
L 180.484364 34.697328 
L 182.081455 31.437491 
L 183.678545 28.65716 
L 185.275636 26.356335 
L 186.606545 24.805336 
L 187.937455 23.587244 
L 189.268364 22.702218 
L 190.333091 22.233953 
L 191.397818 21.978751 
L 192.462545 21.936745 
L 193.527273 22.107777 
L 194.592 22.491925 
L 195.656727 23.089269 
L 196.987636 24.135537 
L 198.318545 25.514845 
L 199.649455 27.227166 
L 200.980364 29.27242 
L 202.577455 32.166367 
L 204.174545 35.539794 
L 205.771636 39.3927 
L 207.634909 44.493857 
L 209.498182 50.247609 
L 211.627636 57.622572 
L 213.757091 65.850001 
L 215.886545 74.929844 
L 218.282182 86.163702 
L 220.677818 98.476468 
L 223.339636 113.422651 
L 226.001455 129.700831 
L 228.663273 147.311036 
L 231.591273 168.220472 
L 234.519273 190.741963 
L 237.713455 217.148841 
L 240.907636 245.47353 
L 242.770909 262.121235 
L 244.634182 268.219147 
L 246.497455 273.539977 
L 248.094545 277.482205 
L 249.691636 280.853501 
L 251.288727 283.653852 
L 252.619636 285.551407 
L 253.950545 287.052504 
L 255.015273 287.967906 
L 256.08 288.629578 
L 257.144727 289.037513 
L 258.209455 289.191711 
L 259.274182 289.092158 
L 260.338909 288.738887 
L 261.403636 288.131853 
L 262.468364 287.271109 
L 263.533091 286.1566 
L 264.864 284.406667 
L 266.194909 282.26027 
L 267.525818 279.717383 
L 269.122909 276.142608 
L 270.72 271.996901 
L 272.317091 267.280374 
L 274.180364 261.056081 
L 276.043636 254.054725 
L 278.173091 245.101718 
L 280.302545 235.133669 
L 282.432 224.150632 
L 284.827636 210.581687 
L 287.223273 195.728158 
L 289.885091 177.717669 
L 292.546909 158.121327 
L 295.208727 136.93909 
L 297.338182 119.197247 
L 299.467636 114.916947 
L 301.597091 111.130955 
L 303.460364 108.223656 
L 305.323636 105.694833 
L 307.186909 103.544406 
L 308.784 102.00243 
L 310.381091 100.738428 
L 311.978182 99.752477 
L 313.575273 99.044577 
L 315.172364 98.614729 
L 316.503273 98.468869 
L 317.834182 98.516126 
L 319.165091 98.756446 
L 320.496 99.189883 
L 322.093091 99.964828 
L 323.690182 101.017772 
L 325.287273 102.348821 
L 326.884364 103.957894 
L 328.747636 106.186529 
L 330.610909 108.793612 
L 332.474182 111.779117 
L 334.603636 115.65453 
L 336.733091 120.024251 
L 338.862545 124.888175 
L 341.258182 130.950955 
L 343.653818 137.639391 
L 346.049455 144.953324 
L 348.711273 153.813651 
L 351.373091 163.446378 
L 354.301091 174.934225 
L 357.229091 187.356689 
L 360.157091 200.713653 
L 363.351273 216.350703 
L 366.811636 234.215582 
L 369.207273 234.778268 
L 371.602909 235.570562 
L 373.998545 236.592424 
L 376.394182 237.843894 
L 379.056 239.503641 
L 381.717818 241.446862 
L 384.379636 243.673504 
L 387.041455 246.183607 
L 389.969455 249.272069 
L 392.897455 252.703498 
L 395.825455 256.477907 
L 398.753455 260.595276 
L 401.947636 265.478058 
L 405.141818 270.769033 
L 408.602182 276.961518 
L 412.062545 283.632975 
L 415.522909 290.783495 
L 419.249455 299.019711 
L 422.976 307.811469 
L 426.436364 316.472724 
L 426.436364 316.472724 
" clip-path="url(#p35d7a57169)" style="fill: none; stroke-dasharray: 3,4.95; stroke-dashoffset: 0; stroke: #ff0000; stroke-width: 3"/>
   </g>
   <g id="line2d_3">
    <path d="M 27.163636 60.589159 
L 29.293091 83.120016 
L 31.422545 103.289151 
L 33.285818 118.999777 
L 35.149091 132.902197 
L 37.012364 144.996398 
L 38.609455 153.923679 
L 40.206545 161.522498 
L 41.537455 166.840003 
L 42.868364 171.234975 
L 43.933091 174.086732 
L 44.997818 176.348045 
L 46.062545 178.018901 
L 46.861091 178.884586 
L 47.659636 179.418156 
L 48.458182 179.619597 
L 49.256727 179.488922 
L 50.055273 179.026119 
L 50.853818 178.231199 
L 51.652364 177.104164 
L 52.450909 175.645027 
L 53.515636 173.182854 
L 54.580364 170.130236 
L 55.911273 165.484192 
L 56.709818 162.738307 
L 59.371636 173.559666 
L 61.767273 182.393543 
L 64.162909 190.369755 
L 66.292364 196.739729 
L 68.421818 202.432029 
L 70.551273 207.446654 
L 72.414545 211.278544 
L 74.277818 214.591613 
L 75.874909 217.018443 
L 77.472 219.06408 
L 79.069091 220.728511 
L 80.4 221.824371 
L 81.730909 222.655518 
L 83.061818 223.221938 
L 84.392727 223.523657 
L 85.723636 223.560663 
L 87.054545 223.332955 
L 88.385455 222.840534 
L 89.716364 222.083399 
L 91.047273 221.061563 
L 92.378182 219.775001 
L 93.975273 217.881701 
L 95.572364 215.607235 
L 97.169455 212.951563 
L 99.032727 209.371511 
L 100.896 205.272625 
L 102.759273 200.654892 
L 104.356364 196.283905 
L 104.888727 192.118975 
L 107.018182 174.32667 
L 109.147636 158.501359 
L 111.010909 146.267815 
L 112.874182 135.540178 
L 114.471273 127.543728 
L 116.068364 120.653733 
L 117.399273 115.757223 
L 118.730182 111.629141 
L 120.061091 108.26933 
L 121.125818 106.13476 
L 122.190545 104.491886 
L 122.989091 103.58248 
L 123.787636 102.949647 
L 124.586182 102.593442 
L 125.384727 102.513863 
L 126.183273 102.710858 
L 126.981818 103.184479 
L 127.780364 103.934701 
L 128.578909 104.96155 
L 129.643636 106.760943 
L 130.708364 109.052112 
L 131.773091 111.834976 
L 133.104 116.005116 
L 133.370182 116.064642 
L 136.564364 105.382005 
L 139.758545 95.452889 
L 142.952727 86.277371 
L 145.880727 78.528392 
L 148.808727 71.412695 
L 151.470545 65.49332 
L 154.132364 60.097225 
L 156.794182 55.224463 
L 159.189818 51.286384 
L 161.585455 47.772163 
L 163.981091 44.681854 
L 166.110545 42.290764 
L 168.24 40.234559 
L 170.369455 38.513294 
L 172.232727 37.28193 
L 174.096 36.306956 
L 175.959273 35.588396 
L 177.822545 35.126279 
L 179.685818 34.920577 
L 180.218182 34.908914 
L 180.484364 34.697328 
L 182.081455 31.437491 
L 183.678545 28.65716 
L 185.275636 26.356335 
L 186.606545 24.805336 
L 187.937455 23.587244 
L 189.268364 22.702218 
L 190.333091 22.233953 
L 191.397818 21.978751 
L 192.462545 21.936745 
L 193.527273 22.107777 
L 194.592 22.491925 
L 195.656727 23.089269 
L 196.987636 24.135537 
L 198.318545 25.514845 
L 199.649455 27.227166 
L 200.980364 29.27242 
L 202.577455 32.166367 
L 204.174545 35.539794 
L 205.771636 39.3927 
L 207.634909 44.493857 
L 209.498182 50.247609 
L 211.627636 57.622572 
L 213.757091 65.850001 
L 215.886545 74.929844 
L 218.282182 86.163702 
L 220.677818 98.476468 
L 223.339636 113.422651 
L 226.001455 129.700831 
L 228.663273 147.311036 
L 231.591273 168.220472 
L 234.519273 190.741963 
L 237.713455 217.148841 
L 240.907636 245.47353 
L 242.770909 262.121241 
L 244.634182 268.219154 
L 246.497455 273.539984 
L 248.094545 277.482212 
L 249.691636 280.853508 
L 251.288727 283.653859 
L 252.619636 285.551413 
L 253.950545 287.05251 
L 255.015273 287.967913 
L 256.08 288.629585 
L 257.144727 289.03752 
L 258.209455 289.191717 
L 259.274182 289.092164 
L 260.338909 288.738894 
L 261.403636 288.13186 
L 262.468364 287.271115 
L 263.533091 286.156607 
L 264.864 284.406674 
L 266.194909 282.260277 
L 267.525818 279.71739 
L 269.122909 276.142614 
L 270.72 271.996907 
L 272.317091 267.28038 
L 274.180364 261.056087 
L 276.043636 254.054731 
L 278.173091 245.101718 
L 280.302545 235.133669 
L 282.432 224.150632 
L 284.827636 210.581687 
L 287.223273 195.728158 
L 289.885091 177.717669 
L 292.546909 158.121327 
L 295.208727 136.93909 
L 297.338182 119.197247 
L 299.467636 114.916947 
L 301.597091 111.130955 
L 303.460364 108.223656 
L 305.323636 105.694833 
L 307.186909 103.544406 
L 308.784 102.00243 
L 310.381091 100.738428 
L 311.978182 99.752477 
L 313.575273 99.044577 
L 315.172364 98.614729 
L 316.503273 98.468869 
L 317.834182 98.516126 
L 319.165091 98.756446 
L 320.496 99.189883 
L 322.093091 99.964828 
L 323.690182 101.017772 
L 325.287273 102.348821 
L 326.884364 103.957894 
L 328.747636 106.186529 
L 330.610909 108.793612 
L 332.474182 111.779117 
L 334.603636 115.65453 
L 336.733091 120.024251 
L 338.862545 124.888175 
L 341.258182 130.950955 
L 343.653818 137.639391 
L 346.049455 144.953324 
L 348.711273 153.813651 
L 351.373091 163.446378 
L 354.301091 174.934225 
L 357.229091 187.356689 
L 360.157091 200.713653 
L 363.351273 216.350703 
L 366.811636 234.215582 
L 369.207273 234.778268 
L 371.602909 235.570562 
L 373.998545 236.592424 
L 376.394182 237.843894 
L 379.056 239.503641 
L 381.717818 241.446862 
L 384.379636 243.673504 
L 387.041455 246.183607 
L 389.969455 249.272069 
L 392.897455 252.703498 
L 395.825455 256.477907 
L 398.753455 260.595276 
L 401.947636 265.478058 
L 405.141818 270.769033 
L 408.602182 276.961518 
L 412.062545 283.632975 
L 415.522909 290.783495 
L 419.249455 299.019711 
L 422.976 307.811472 
L 426.436364 316.472727 
L 426.436364 316.472727 
" clip-path="url(#p35d7a57169)" style="fill: none; stroke: #ff0000; stroke-width: 3; stroke-linecap: square"/>
   </g>
   <g id="patch_3">
    <path d="M 7.2 331.2 
L 7.2 7.2 
" style="fill: none; stroke: #000000; stroke-width: 0.8; stroke-linejoin: miter; stroke-linecap: square"/>
   </g>
   <g id="patch_4">
    <path d="M 446.4 331.2 
L 446.4 7.2 
" style="fill: none; stroke: #000000; stroke-width: 0.8; stroke-linejoin: miter; stroke-linecap: square"/>
   </g>
   <g id="patch_5">
    <path d="M 7.2 331.2 
L 446.4 331.2 
" style="fill: none; stroke: #000000; stroke-width: 0.8; stroke-linejoin: miter; stroke-linecap: square"/>
   </g>
   <g id="patch_6">
    <path d="M 7.2 7.2 
L 446.4 7.2 
" style="fill: none; stroke: #000000; stroke-width: 0.8; stroke-linejoin: miter; stroke-linecap: square"/>
   </g>
  </g>
 </g>
 <defs>
  <clipPath id="p35d7a57169">
   <rect x="7.2" y="7.2" width="439.2" height="324"/>
  </clipPath>
 </defs>
</svg>
