<?xml version="1.0" encoding="utf-8" standalone="no"?>
<!DOCTYPE svg PUBLIC "-//W3C//DTD SVG 1.1//EN"
  "http://www.w3.org/Graphics/SVG/1.1/DTD/svg11.dtd">
<svg xmlns:xlink="http://www.w3.org/1999/xlink" width="453.6pt" height="338.4pt" viewBox="0 0 453.6 338.4" xmlns="http://www.w3.org/2000/svg" version="1.1">
 <metadata>
  <rdf:RDF xmlns:dc="http://purl.org/dc/elements/1.1/" xmlns:cc="http://creativecommons.org/ns#" xmlns:rdf="http://www.w3.org/1999/02/22-rdf-syntax-ns#">
   <cc:Work>
    <dc:type rdf:resource="http://purl.org/dc/dcmitype/StillImage"/>
    <dc:date>2025-05-14T08:48:23.589283</dc:date>
    <dc:format>image/svg+xml</dc:format>
    <dc:creator>
     <cc:Agent>
      <dc:title>Matplotlib v3.10.1, https://matplotlib.org/</dc:title>
     </cc:Agent>
    </dc:creator>
   </cc:Work>
  </rdf:RDF>
 </metadata>
 <defs>
  <style type="text/css">*{stroke-linejoin: round; stroke-linecap: butt}</style>
 </defs>
 <g id="figure_1">
  <g id="patch_1">
   <path d="M 0 338.4 
L 453.6 338.4 
L 453.6 0 
L 0 0 
z
" style="fill: #ffffff"/>
  </g>
  <g id="axes_1">
   <g id="patch_2">
    <path d="M 7.2 331.2 
L 446.4 331.2 
L 446.4 7.2 
L 7.2 7.2 
z
" style="fill: #ffffff"/>
   </g>
   <g id="matplotlib.axis_1"/>
   <g id="matplotlib.axis_2"/>
   <g id="line2d_1">
    <path d="M 27.163636 316.472556 
L 30.357818 283.680536 
L 33.552 253.114732 
L 36.746182 224.775217 
L 39.674182 200.753036 
L 42.602182 178.601598 
L 45.264 160.087119 
L 47.925818 143.118677 
L 50.321455 129.169013 
L 52.717091 116.471571 
L 55.112727 105.026397 
L 57.242182 95.904232 
L 59.371636 87.771459 
L 61.234909 81.467022 
L 63.098182 75.920086 
L 64.961455 71.130699 
L 66.558545 67.628424 
L 68.155636 64.682795 
L 69.486545 62.653212 
L 70.817455 61.010164 
L 72.148364 59.753551 
L 73.213091 59.02655 
L 74.277818 58.547006 
L 75.342545 58.314725 
L 76.407273 58.329803 
L 77.472 58.59234 
L 78.536727 59.102188 
L 79.601455 59.859395 
L 80.666182 60.863914 
L 81.997091 62.467485 
L 83.328 64.45754 
L 84.658909 66.834129 
L 86.256 70.196255 
L 87.853091 74.11488 
L 89.450182 78.590052 
L 91.313455 84.514543 
L 93.176727 91.196632 
L 95.306182 99.760883 
L 97.435636 109.314574 
L 99.565091 119.857754 
L 101.960727 132.901423 
L 104.356364 147.197458 
L 105.421091 153.953233 
L 105.687273 154.540329 
L 113.406545 162.242504 
L 120.859636 169.37354 
L 128.312727 176.204562 
L 135.765818 182.735229 
L 143.218909 188.965882 
L 150.405818 194.689713 
L 157.592727 200.134416 
L 164.779636 205.300016 
L 171.966545 210.186536 
L 178.887273 214.628282 
L 185.808 218.8112 
L 192.728727 222.73529 
L 199.649455 226.400601 
L 206.570182 229.807109 
L 213.224727 232.838502 
L 219.879273 235.630611 
L 226.533818 238.183412 
L 233.188364 240.497002 
L 239.842909 242.571259 
L 246.497455 244.406208 
L 251.288727 245.579229 
L 251.821091 246.673098 
L 254.216727 251.90665 
L 256.612364 256.581287 
L 258.741818 260.267337 
L 260.871273 263.511785 
L 262.734545 265.988533 
L 264.597818 268.127131 
L 266.461091 269.927629 
L 268.324364 271.390049 
L 269.921455 272.374463 
L 271.518545 273.110492 
L 273.115636 273.598088 
L 274.712727 273.837347 
L 276.309818 273.828198 
L 277.906909 273.570663 
L 279.504 273.064744 
L 281.101091 272.31044 
L 282.698182 271.307677 
L 284.295273 270.056652 
L 286.158545 268.283043 
L 288.021818 266.171381 
L 289.885091 263.721692 
L 292.014545 260.508036 
L 294.144 256.852777 
L 296.273455 252.755892 
L 298.669091 247.619108 
L 301.064727 241.923482 
L 303.460364 235.668869 
L 306.122182 228.063901 
L 308.784 219.768994 
L 311.445818 210.784075 
L 314.373818 200.103771 
L 317.301818 188.588572 
L 320.496 175.074289 
L 323.690182 160.566614 
L 326.884364 145.065302 
L 330.344727 127.150948 
L 333.805091 108.070649 
L 337.531636 86.218541 
L 341.258182 63.014176 
L 345.250909 36.65137 
L 347.380364 21.956601 
L 347.646545 21.927273 
L 350.574545 42.308493 
L 353.502545 61.120009 
L 356.164364 76.859361 
L 358.826182 91.3015 
L 361.488 104.446377 
L 363.883636 115.167819 
L 366.279273 124.838382 
L 368.408727 132.552317 
L 370.538182 139.43614 
L 372.401455 144.778366 
L 374.264727 149.48499 
L 376.128 153.556013 
L 377.725091 156.53951 
L 379.322182 159.056053 
L 380.653091 160.796504 
L 381.984 162.21259 
L 383.314909 163.304361 
L 384.645818 164.071768 
L 385.710545 164.452299 
L 386.775273 164.625193 
L 387.84 164.590595 
L 388.904727 164.348358 
L 389.969455 163.898679 
L 391.034182 163.241411 
L 392.365091 162.127925 
L 393.696 160.690172 
L 395.026909 158.928104 
L 396.624 156.385502 
L 398.221091 153.375946 
L 399.818182 149.899388 
L 401.681455 145.253176 
L 403.544727 139.971363 
L 405.408 134.053899 
L 407.537455 126.51276 
L 409.666909 118.141361 
L 412.062545 107.731255 
L 414.458182 96.270319 
L 416.853818 83.758702 
L 419.515636 68.62455 
L 422.177455 52.193283 
L 425.105455 32.620508 
L 426.436364 23.204917 
L 426.436364 23.204917 
" clip-path="url(#p930df3b5bc)" style="fill: none; stroke-dasharray: 11.1,4.8; stroke-dashoffset: 0; stroke: #000000; stroke-width: 3"/>
   </g>
   <g id="line2d_2">
    <path d="M 27.163636 316.472605 
L 30.357818 283.680609 
L 33.552 253.114805 
L 36.746182 224.775291 
L 39.674182 200.753085 
L 42.602182 178.601647 
L 45.264 160.087168 
L 47.925818 143.118726 
L 50.321455 129.169062 
L 52.717091 116.471619 
L 55.112727 105.026446 
L 57.242182 95.904281 
L 59.371636 87.771507 
L 61.234909 81.467071 
L 63.098182 75.920135 
L 64.961455 71.130748 
L 66.558545 67.628473 
L 68.155636 64.682843 
L 69.486545 62.653261 
L 70.817455 61.010213 
L 72.148364 59.7536 
L 73.213091 59.026598 
L 74.277818 58.547055 
L 75.342545 58.314773 
L 76.407273 58.329852 
L 77.472 58.592389 
L 78.536727 59.102236 
L 79.601455 59.859444 
L 80.666182 60.863963 
L 81.997091 62.467534 
L 83.328 64.457589 
L 84.658909 66.834178 
L 86.256 70.196304 
L 87.853091 74.114928 
L 89.450182 78.590101 
L 91.313455 84.514592 
L 93.176727 91.196681 
L 95.306182 99.760931 
L 97.435636 109.314622 
L 99.565091 119.857803 
L 101.960727 132.901471 
L 104.356364 147.197507 
L 105.421091 153.953282 
L 105.687273 154.540378 
L 113.406545 162.242553 
L 120.859636 169.373589 
L 128.312727 176.204611 
L 135.765818 182.735278 
L 143.218909 188.965931 
L 150.405818 194.689762 
L 157.592727 200.134465 
L 164.779636 205.300089 
L 171.966545 210.18661 
L 178.887273 214.628355 
L 185.808 218.811273 
L 192.728727 222.735363 
L 199.649455 226.400674 
L 206.570182 229.807182 
L 213.224727 232.838575 
L 219.879273 235.630684 
L 226.533818 238.183485 
L 233.188364 240.497075 
L 239.842909 242.571332 
L 246.497455 244.406281 
L 251.288727 245.579302 
L 251.821091 246.673171 
L 254.216727 251.906723 
L 256.612364 256.58136 
L 258.741818 260.26741 
L 260.871273 263.511858 
L 262.734545 265.988606 
L 264.597818 268.127204 
L 266.461091 269.927702 
L 268.324364 271.390122 
L 269.921455 272.374536 
L 271.518545 273.110566 
L 273.115636 273.598161 
L 274.712727 273.837421 
L 276.309818 273.828271 
L 277.906909 273.570736 
L 279.504 273.064817 
L 281.101091 272.310513 
L 282.698182 271.30775 
L 284.295273 270.056725 
L 286.158545 268.283116 
L 288.021818 266.171454 
L 289.885091 263.721765 
L 292.014545 260.508109 
L 294.144 256.852851 
L 296.273455 252.755965 
L 298.669091 247.619181 
L 301.064727 241.923555 
L 303.460364 235.668942 
L 306.122182 228.063974 
L 308.784 219.769067 
L 311.445818 210.784148 
L 314.373818 200.10382 
L 317.301818 188.58862 
L 320.496 175.074338 
L 323.690182 160.566663 
L 326.884364 145.06535 
L 330.344727 127.150996 
L 333.805091 108.070698 
L 337.531636 86.21859 
L 341.258182 63.014224 
L 345.250909 36.651419 
L 347.380364 21.956649 
L 347.646545 21.927322 
L 350.574545 42.308542 
L 353.502545 61.120058 
L 356.164364 76.85941 
L 358.826182 91.301549 
L 361.488 104.446426 
L 363.883636 115.167867 
L 366.279273 124.838431 
L 368.408727 132.552366 
L 370.538182 139.436189 
L 372.401455 144.778415 
L 374.264727 149.485039 
L 376.128 153.556062 
L 377.725091 156.539559 
L 379.322182 159.056102 
L 380.653091 160.796553 
L 381.984 162.212639 
L 383.314909 163.30441 
L 384.645818 164.071817 
L 385.710545 164.452348 
L 386.775273 164.625242 
L 387.84 164.590643 
L 388.904727 164.348407 
L 389.969455 163.898728 
L 391.034182 163.24146 
L 392.365091 162.127974 
L 393.696 160.690221 
L 395.026909 158.928152 
L 396.624 156.38555 
L 398.221091 153.375995 
L 399.818182 149.899437 
L 401.681455 145.253225 
L 403.544727 139.971412 
L 405.408 134.053948 
L 407.537455 126.512808 
L 409.666909 118.14141 
L 412.062545 107.731303 
L 414.458182 96.270368 
L 416.853818 83.75875 
L 419.515636 68.624599 
L 422.177455 52.193331 
L 425.105455 32.620557 
L 426.436364 23.204966 
L 426.436364 23.204966 
" clip-path="url(#p930df3b5bc)" style="fill: none; stroke-dasharray: 3,4.95; stroke-dashoffset: 0; stroke: #ffa500; stroke-width: 3"/>
   </g>
   <g id="line2d_3">
    <path d="M 27.163636 316.472727 
L 30.357818 283.680683 
L 33.552 253.114878 
L 36.746182 224.775364 
L 39.674182 200.753183 
L 42.602182 178.601744 
L 45.264 160.087265 
L 47.925818 143.118823 
L 50.321455 129.16916 
L 52.717091 116.471717 
L 55.112727 105.026544 
L 57.242182 95.904379 
L 59.371636 87.771605 
L 61.234909 81.467168 
L 63.098182 75.920232 
L 64.961455 71.130846 
L 66.558545 67.628571 
L 68.155636 64.682941 
L 69.486545 62.653359 
L 70.817455 61.01031 
L 72.148364 59.753698 
L 73.213091 59.026696 
L 74.277818 58.547152 
L 75.342545 58.314871 
L 76.407273 58.32995 
L 77.472 58.592486 
L 78.536727 59.102334 
L 79.601455 59.859542 
L 80.666182 60.864061 
L 81.997091 62.467631 
L 83.328 64.457638 
L 84.658909 66.834227 
L 86.256 70.196353 
L 87.853091 74.114977 
L 89.450182 78.59015 
L 91.313455 84.514641 
L 93.176727 91.19673 
L 95.306182 99.76098 
L 97.435636 109.314671 
L 99.565091 119.857851 
L 101.960727 132.901471 
L 104.356364 147.197507 
L 105.421091 153.953282 
L 105.687273 154.540378 
L 113.406545 162.242553 
L 120.859636 169.373638 
L 128.312727 176.204709 
L 135.765818 182.735376 
L 143.218909 188.966029 
L 150.405818 194.68986 
L 157.592727 200.134563 
L 164.779636 205.300114 
L 171.966545 210.18661 
L 178.887273 214.628355 
L 185.808 218.811297 
L 192.728727 222.735436 
L 199.649455 226.400723 
L 206.570182 229.807182 
L 213.224727 232.838551 
L 219.879273 235.630635 
L 226.533818 238.183436 
L 233.188364 240.497026 
L 239.842909 242.571284 
L 246.497455 244.406233 
L 251.288727 245.579253 
L 251.821091 246.673123 
L 254.216727 251.906674 
L 256.612364 256.581311 
L 258.741818 260.267361 
L 260.871273 263.511809 
L 262.734545 265.988557 
L 264.597818 268.127156 
L 266.461091 269.927653 
L 268.324364 271.390074 
L 269.921455 272.374488 
L 271.518545 273.110517 
L 273.115636 273.598112 
L 274.712727 273.837372 
L 276.309818 273.828222 
L 277.906909 273.570688 
L 279.504 273.064768 
L 281.101091 272.310464 
L 282.698182 271.307702 
L 284.295273 270.056701 
L 286.158545 268.283092 
L 288.021818 266.17143 
L 289.885091 263.721741 
L 292.014545 260.508085 
L 294.144 256.852826 
L 296.273455 252.75594 
L 298.669091 247.619181 
L 301.064727 241.923555 
L 303.460364 235.668942 
L 306.122182 228.063974 
L 308.784 219.769092 
L 311.445818 210.784173 
L 314.373818 200.103869 
L 317.301818 188.588669 
L 320.496 175.074387 
L 323.690182 160.566711 
L 326.884364 145.065399 
L 330.344727 127.150996 
L 333.805091 108.070698 
L 337.531636 86.21859 
L 341.258182 63.014224 
L 345.250909 36.651419 
L 347.380364 21.956601 
L 347.646545 21.927273 
L 350.574545 42.308493 
L 353.502545 61.120009 
L 356.164364 76.859361 
L 358.826182 91.301451 
L 361.488 104.446328 
L 363.883636 115.16777 
L 366.279273 124.838382 
L 368.408727 132.552317 
L 370.538182 139.43614 
L 372.401455 144.778366 
L 374.264727 149.48499 
L 376.128 153.556013 
L 377.725091 156.53951 
L 379.322182 159.056053 
L 380.653091 160.796504 
L 381.984 162.21259 
L 383.314909 163.304361 
L 384.645818 164.071768 
L 385.710545 164.452299 
L 386.775273 164.625193 
L 387.84 164.590595 
L 388.904727 164.348358 
L 389.969455 163.898679 
L 391.034182 163.241411 
L 392.365091 162.127925 
L 393.696 160.690172 
L 395.026909 158.928104 
L 396.624 156.385502 
L 398.221091 153.375946 
L 399.818182 149.899388 
L 401.681455 145.253176 
L 403.544727 139.971412 
L 405.408 134.053948 
L 407.537455 126.512808 
L 409.666909 118.14141 
L 412.062545 107.731303 
L 414.458182 96.270368 
L 416.853818 83.75875 
L 419.515636 68.624599 
L 422.177455 52.193331 
L 425.105455 32.620557 
L 426.436364 23.204966 
L 426.436364 23.204966 
" clip-path="url(#p930df3b5bc)" style="fill: none; stroke: #ffa500; stroke-width: 3; stroke-linecap: square"/>
   </g>
   <g id="patch_3">
    <path d="M 7.2 331.2 
L 7.2 7.2 
" style="fill: none; stroke: #000000; stroke-width: 0.8; stroke-linejoin: miter; stroke-linecap: square"/>
   </g>
   <g id="patch_4">
    <path d="M 446.4 331.2 
L 446.4 7.2 
" style="fill: none; stroke: #000000; stroke-width: 0.8; stroke-linejoin: miter; stroke-linecap: square"/>
   </g>
   <g id="patch_5">
    <path d="M 7.2 331.2 
L 446.4 331.2 
" style="fill: none; stroke: #000000; stroke-width: 0.8; stroke-linejoin: miter; stroke-linecap: square"/>
   </g>
   <g id="patch_6">
    <path d="M 7.2 7.2 
L 446.4 7.2 
" style="fill: none; stroke: #000000; stroke-width: 0.8; stroke-linejoin: miter; stroke-linecap: square"/>
   </g>
  </g>
 </g>
 <defs>
  <clipPath id="p930df3b5bc">
   <rect x="7.2" y="7.2" width="439.2" height="324"/>
  </clipPath>
 </defs>
</svg>
