<?xml version="1.0" encoding="utf-8" standalone="no"?>
<!DOCTYPE svg PUBLIC "-//W3C//DTD SVG 1.1//EN"
  "http://www.w3.org/Graphics/SVG/1.1/DTD/svg11.dtd">
<svg xmlns:xlink="http://www.w3.org/1999/xlink" width="453.6pt" height="338.4pt" viewBox="0 0 453.6 338.4" xmlns="http://www.w3.org/2000/svg" version="1.1">
 <metadata>
  <rdf:RDF xmlns:dc="http://purl.org/dc/elements/1.1/" xmlns:cc="http://creativecommons.org/ns#" xmlns:rdf="http://www.w3.org/1999/02/22-rdf-syntax-ns#">
   <cc:Work>
    <dc:type rdf:resource="http://purl.org/dc/dcmitype/StillImage"/>
    <dc:date>2025-05-14T09:04:00.184115</dc:date>
    <dc:format>image/svg+xml</dc:format>
    <dc:creator>
     <cc:Agent>
      <dc:title>Matplotlib v3.10.1, https://matplotlib.org/</dc:title>
     </cc:Agent>
    </dc:creator>
   </cc:Work>
  </rdf:RDF>
 </metadata>
 <defs>
  <style type="text/css">*{stroke-linejoin: round; stroke-linecap: butt}</style>
 </defs>
 <g id="figure_1">
  <g id="patch_1">
   <path d="M 0 338.4 
L 453.6 338.4 
L 453.6 0 
L 0 0 
z
" style="fill: #ffffff"/>
  </g>
  <g id="axes_1">
   <g id="patch_2">
    <path d="M 7.2 331.2 
L 446.4 331.2 
L 446.4 7.2 
L 7.2 7.2 
z
" style="fill: #ffffff"/>
   </g>
   <g id="matplotlib.axis_1"/>
   <g id="matplotlib.axis_2"/>
   <g id="line2d_1">
    <path d="M 27.163636 212.976245 
L 29.825455 215.482632 
L 32.487273 217.698628 
L 35.415273 219.834442 
L 38.343273 221.690353 
L 41.537455 223.439809 
L 44.997818 225.065811 
L 48.990545 226.672812 
L 54.048 228.436674 
L 66.558545 232.673304 
L 70.551273 234.340574 
L 74.011636 236.036896 
L 77.205818 237.866084 
L 80.133818 239.807686 
L 82.795636 241.825052 
L 85.457455 244.111793 
L 88.119273 246.695998 
L 90.781091 249.605816 
L 93.442909 252.869348 
L 96.104727 256.514744 
L 98.766545 260.570105 
L 101.428364 265.063605 
L 104.090182 270.023308 
L 106.752 275.477377 
L 109.413818 281.45395 
L 112.075636 287.981101 
L 114.737455 295.087025 
L 117.399273 302.799804 
L 120.061091 311.147582 
L 121.658182 316.472727 
L 122.190545 309.100732 
L 124.32 277.867045 
L 126.449455 249.789589 
L 128.578909 224.847216 
L 130.442182 205.578033 
L 132.305455 188.679028 
L 133.902545 176.06975 
L 135.499636 165.182666 
L 136.830545 157.419137 
L 138.161455 150.840204 
L 139.492364 145.440708 
L 140.557091 141.966831 
L 141.621818 139.241886 
L 142.420364 137.688094 
L 143.218909 136.552941 
L 144.017455 135.835375 
L 144.549818 135.588417 
L 145.082182 135.526233 
L 145.614545 135.648498 
L 146.146909 135.954835 
L 146.945455 136.758818 
L 147.744 137.975206 
L 148.542545 139.602873 
L 149.607273 142.410929 
L 150.672 145.945488 
L 151.736727 150.204022 
L 153.067636 156.541155 
L 153.6 159.093942 
L 155.197091 161.930386 
L 157.060364 165.705219 
L 159.189818 170.547364 
L 161.585455 176.542036 
L 164.779636 185.186088 
L 171.168 203.375217 
L 175.160727 214.33162 
L 177.822545 221.040428 
L 180.218182 226.471841 
L 182.081455 230.199273 
L 183.944727 233.414727 
L 185.541818 235.709855 
L 186.872727 237.263497 
L 188.203636 238.463438 
L 189.268364 239.151464 
L 190.333091 239.583509 
L 191.397818 239.746441 
L 192.462545 239.62708 
L 193.527273 239.212309 
L 194.592 238.488972 
L 195.656727 237.44389 
L 196.721455 236.063932 
L 197.786182 234.335955 
L 199.117091 231.666523 
L 200.448 228.407047 
L 201.778909 224.531854 
L 203.109818 220.015223 
L 204.706909 213.712511 
L 206.304 206.404721 
L 207.901091 198.047556 
L 209.498182 188.596668 
L 211.361455 176.128892 
L 213.224727 162.041536 
L 213.757091 158.621756 
L 215.088 162.601941 
L 216.418909 165.810136 
L 217.483636 167.848205 
L 218.548364 169.439222 
L 219.613091 170.604041 
L 220.411636 171.210532 
L 221.210182 171.597829 
L 222.008727 171.774792 
L 222.807273 171.750234 
L 223.605818 171.532891 
L 224.670545 170.958593 
L 225.735273 170.078157 
L 226.8 168.912563 
L 228.130909 167.086329 
L 229.461818 164.887944 
L 231.058909 161.816007 
L 232.922182 157.723121 
L 235.051636 152.511354 
L 237.979636 144.71035 
L 246.231273 122.312967 
L 248.360727 117.282744 
L 250.224 113.396311 
L 251.821091 110.536885 
L 253.152 108.540472 
L 254.482909 106.938941 
L 255.547636 105.969385 
L 256.612364 105.299558 
L 257.410909 105.006439 
L 258.209455 104.902499 
L 259.008 104.996525 
L 259.806545 105.29733 
L 260.605091 105.813726 
L 261.403636 106.554523 
L 262.468364 107.906493 
L 263.533091 109.69405 
L 264.597818 111.937947 
L 265.662545 114.659086 
L 266.993455 118.763562 
L 268.324364 123.687217 
L 269.655273 129.47083 
L 270.986182 136.15523 
L 272.583273 145.423185 
L 274.180364 156.117209 
L 274.712727 159.767249 
L 276.043636 157.620934 
L 277.374545 155.953088 
L 278.439273 154.945556 
L 279.504 154.214071 
L 280.568727 153.74504 
L 281.633455 153.525144 
L 282.698182 153.540815 
L 283.762909 153.77876 
L 284.827636 154.225537 
L 286.158545 155.057007 
L 287.489455 156.167452 
L 289.086545 157.831367 
L 290.683636 159.813837 
L 292.546909 162.468862 
L 294.942545 166.313213 
L 297.870545 171.461821 
L 306.388364 186.751095 
L 308.784 190.463406 
L 310.647273 192.984225 
L 312.244364 194.829585 
L 313.841455 196.336076 
L 315.172364 197.299886 
L 316.503273 197.970615 
L 317.568 198.278529 
L 318.632727 198.368663 
L 319.697455 198.227561 
L 320.762182 197.841754 
L 321.826909 197.197849 
L 322.891636 196.282454 
L 323.956364 195.082013 
L 324.222545 194.735796 
L 324.488727 195.605267 
L 326.352 206.978994 
L 328.215273 217.047051 
L 330.078545 225.876127 
L 331.941818 233.533337 
L 333.538909 239.21465 
L 335.136 244.126301 
L 336.733091 248.310472 
L 338.330182 251.809283 
L 339.661091 254.23187 
L 340.992 256.232176 
L 342.322909 257.834684 
L 343.653818 259.063701 
L 344.984727 259.943711 
L 346.049455 260.412755 
L 347.114182 260.686536 
L 348.445091 260.773178 
L 349.776 260.598618 
L 351.106909 260.187239 
L 352.437818 259.563424 
L 354.034909 258.568847 
L 355.898182 257.122562 
L 358.027636 255.174552 
L 360.955636 252.158954 
L 367.876364 244.887588 
L 370.005818 243.007857 
L 371.869091 241.641192 
L 373.466182 240.729639 
L 374.797091 240.185482 
L 376.128 239.863198 
L 377.458909 239.787233 
L 378.523636 239.920174 
L 379.588364 240.238854 
L 380.653091 240.755762 
L 381.717818 241.483379 
L 382.782545 242.434222 
L 384.113455 243.955683 
L 385.444364 245.869861 
L 386.775273 248.2011 
L 388.106182 250.973833 
L 389.437091 254.212457 
L 391.034182 258.748139 
L 392.631273 264.031991 
L 394.228364 270.106182 
L 395.293091 274.615529 
L 395.559273 274.391027 
L 397.422545 249.493089 
L 399.285818 227.856493 
L 401.149091 209.064865 
L 403.012364 192.702559 
L 404.875636 178.353888 
L 406.738909 165.602606 
L 409.134545 150.886416 
L 412.861091 129.794966 
L 416.055273 111.254702 
L 418.184727 97.558109 
L 420.048 84.12382 
L 421.911273 68.900873 
L 423.508364 54.113511 
L 425.105455 37.444492 
L 426.436364 21.927323 
L 426.436364 21.927323 
" clip-path="url(#p8a45692d67)" style="fill: none; stroke-dasharray: 11.1,4.8; stroke-dashoffset: 0; stroke: #000000; stroke-width: 3"/>
   </g>
   <g id="line2d_2">
    <path d="M 27.163636 212.97622 
L 29.825455 215.482607 
L 32.487273 217.698603 
L 35.415273 219.834417 
L 38.343273 221.690328 
L 41.537455 223.439784 
L 44.997818 225.065786 
L 48.990545 226.672799 
L 54.048 228.436662 
L 66.558545 232.673292 
L 70.551273 234.340562 
L 74.011636 236.036883 
L 77.205818 237.866071 
L 80.133818 239.807673 
L 82.795636 241.825039 
L 85.457455 244.111781 
L 88.119273 246.695986 
L 90.781091 249.605804 
L 93.442909 252.869336 
L 96.104727 256.514732 
L 98.766545 260.570092 
L 101.428364 265.063593 
L 104.090182 270.023296 
L 106.752 275.477365 
L 109.413818 281.453937 
L 112.075636 287.981088 
L 114.737455 295.087013 
L 117.399273 302.799792 
L 120.061091 311.147576 
L 121.658182 316.472721 
L 122.190545 309.100726 
L 124.32 277.867032 
L 126.449455 249.789576 
L 128.578909 224.847191 
L 130.442182 205.578008 
L 132.305455 188.679003 
L 133.902545 176.069725 
L 135.499636 165.182641 
L 136.830545 157.419112 
L 138.161455 150.840179 
L 139.492364 145.440683 
L 140.557091 141.966806 
L 141.621818 139.241861 
L 142.420364 137.688069 
L 143.218909 136.552916 
L 144.017455 135.83535 
L 144.549818 135.588392 
L 145.082182 135.526208 
L 145.614545 135.648473 
L 146.146909 135.95481 
L 146.945455 136.758793 
L 147.744 137.975181 
L 148.542545 139.602848 
L 149.607273 142.410904 
L 150.672 145.945463 
L 151.736727 150.203997 
L 153.067636 156.54113 
L 153.6 159.093917 
L 155.197091 161.930361 
L 157.060364 165.705194 
L 159.189818 170.547339 
L 161.585455 176.542011 
L 164.779636 185.186063 
L 171.168 203.375192 
L 175.160727 214.331595 
L 177.822545 221.040403 
L 180.218182 226.471829 
L 182.081455 230.19926 
L 183.944727 233.414715 
L 185.541818 235.709843 
L 186.872727 237.263485 
L 188.203636 238.463425 
L 189.268364 239.151452 
L 190.333091 239.583496 
L 191.397818 239.746428 
L 192.462545 239.627067 
L 193.527273 239.212296 
L 194.592 238.48896 
L 195.656727 237.443878 
L 196.721455 236.06392 
L 197.786182 234.335943 
L 199.117091 231.666511 
L 200.448 228.407035 
L 201.778909 224.531829 
L 203.109818 220.015198 
L 204.706909 213.712486 
L 206.304 206.404696 
L 207.901091 198.047531 
L 209.498182 188.596643 
L 211.361455 176.128867 
L 213.224727 162.041511 
L 213.757091 158.621731 
L 215.088 162.601916 
L 216.418909 165.810111 
L 217.483636 167.84818 
L 218.548364 169.439197 
L 219.613091 170.604016 
L 220.411636 171.210507 
L 221.210182 171.597804 
L 222.008727 171.774767 
L 222.807273 171.750209 
L 223.605818 171.532866 
L 224.670545 170.958568 
L 225.735273 170.078132 
L 226.8 168.912538 
L 228.130909 167.086304 
L 229.461818 164.887919 
L 231.058909 161.815982 
L 232.922182 157.723096 
L 235.051636 152.511329 
L 237.979636 144.710325 
L 246.231273 122.312942 
L 248.360727 117.282719 
L 250.224 113.396285 
L 251.821091 110.53686 
L 253.152 108.540447 
L 254.482909 106.938916 
L 255.547636 105.96936 
L 256.612364 105.299533 
L 257.410909 105.006414 
L 258.209455 104.902474 
L 259.008 104.9965 
L 259.806545 105.297305 
L 260.605091 105.813701 
L 261.403636 106.554498 
L 262.468364 107.906468 
L 263.533091 109.694025 
L 264.597818 111.937922 
L 265.662545 114.659061 
L 266.993455 118.763537 
L 268.324364 123.687192 
L 269.655273 129.470805 
L 270.986182 136.155205 
L 272.583273 145.42316 
L 274.180364 156.117184 
L 274.712727 159.767224 
L 276.043636 157.620909 
L 277.374545 155.953063 
L 278.439273 154.945531 
L 279.504 154.214046 
L 280.568727 153.745015 
L 281.633455 153.525119 
L 282.698182 153.54079 
L 283.762909 153.778735 
L 284.827636 154.225512 
L 286.158545 155.056981 
L 287.489455 156.167427 
L 289.086545 157.831342 
L 290.683636 159.813812 
L 292.546909 162.468837 
L 294.942545 166.313188 
L 297.870545 171.461796 
L 306.388364 186.75107 
L 308.784 190.463381 
L 310.647273 192.9842 
L 312.244364 194.82956 
L 313.841455 196.336051 
L 315.172364 197.299861 
L 316.503273 197.97059 
L 317.568 198.278504 
L 318.632727 198.368638 
L 319.697455 198.227535 
L 320.762182 197.841728 
L 321.826909 197.197824 
L 322.891636 196.282429 
L 323.956364 195.081988 
L 324.222545 194.735771 
L 324.488727 195.605242 
L 326.352 206.978969 
L 328.215273 217.047026 
L 330.078545 225.876114 
L 331.941818 233.533325 
L 333.538909 239.214637 
L 335.136 244.126288 
L 336.733091 248.310459 
L 338.330182 251.809271 
L 339.661091 254.231858 
L 340.992 256.232164 
L 342.322909 257.834671 
L 343.653818 259.063689 
L 344.984727 259.943699 
L 346.049455 260.412743 
L 347.114182 260.686524 
L 348.445091 260.773165 
L 349.776 260.598605 
L 351.106909 260.187227 
L 352.437818 259.563412 
L 354.034909 258.568835 
L 355.898182 257.12255 
L 358.027636 255.174539 
L 360.955636 252.158941 
L 367.876364 244.887576 
L 370.005818 243.007845 
L 371.869091 241.641179 
L 373.466182 240.729627 
L 374.797091 240.185469 
L 376.128 239.863185 
L 377.458909 239.78722 
L 378.523636 239.920162 
L 379.588364 240.238841 
L 380.653091 240.75575 
L 381.717818 241.483367 
L 382.782545 242.43421 
L 384.113455 243.955671 
L 385.444364 245.869848 
L 386.775273 248.201087 
L 388.106182 250.973821 
L 389.437091 254.212444 
L 391.034182 258.748126 
L 392.631273 264.031978 
L 394.228364 270.10617 
L 395.293091 274.615517 
L 395.559273 274.391014 
L 397.422545 249.493077 
L 399.285818 227.856481 
L 401.149091 209.06484 
L 403.012364 192.702534 
L 404.875636 178.353863 
L 406.738909 165.602581 
L 409.134545 150.886391 
L 412.861091 129.794941 
L 416.055273 111.254677 
L 418.184727 97.558084 
L 420.048 84.123795 
L 421.911273 68.900848 
L 423.508364 54.113461 
L 425.105455 37.444442 
L 426.436364 21.927273 
L 426.436364 21.927273 
" clip-path="url(#p8a45692d67)" style="fill: none; stroke-dasharray: 3,4.95; stroke-dashoffset: 0; stroke: #ff0000; stroke-width: 3"/>
   </g>
   <g id="line2d_3">
    <path d="M 27.163636 212.976207 
L 29.825455 215.482594 
L 32.487273 217.698591 
L 35.415273 219.834404 
L 38.343273 221.690316 
L 41.537455 223.439771 
L 44.997818 225.065773 
L 48.990545 226.672787 
L 54.048 228.436649 
L 66.558545 232.673279 
L 70.551273 234.340562 
L 74.011636 236.036883 
L 77.205818 237.866071 
L 80.133818 239.807673 
L 82.795636 241.825039 
L 85.457455 244.111781 
L 88.119273 246.695986 
L 90.781091 249.605804 
L 93.442909 252.869336 
L 96.104727 256.514732 
L 98.766545 260.570092 
L 101.428364 265.063593 
L 104.090182 270.023296 
L 106.752 275.477365 
L 109.413818 281.453937 
L 112.075636 287.981088 
L 114.737455 295.087013 
L 117.399273 302.799792 
L 120.061091 311.147576 
L 121.658182 316.472721 
L 122.190545 309.100726 
L 124.32 277.867032 
L 126.449455 249.789576 
L 128.578909 224.847191 
L 130.442182 205.578008 
L 132.305455 188.679003 
L 133.902545 176.069725 
L 135.499636 165.182641 
L 136.830545 157.419112 
L 138.161455 150.840179 
L 139.492364 145.440683 
L 140.557091 141.966806 
L 141.621818 139.241861 
L 142.420364 137.688069 
L 143.218909 136.552916 
L 144.017455 135.83535 
L 144.549818 135.588392 
L 145.082182 135.526208 
L 145.614545 135.648473 
L 146.146909 135.95481 
L 146.945455 136.758793 
L 147.744 137.975181 
L 148.542545 139.602848 
L 149.607273 142.410904 
L 150.672 145.945463 
L 151.736727 150.203997 
L 153.067636 156.54113 
L 153.6 159.093917 
L 155.197091 161.930361 
L 157.060364 165.705194 
L 159.189818 170.547339 
L 161.585455 176.541998 
L 164.779636 185.18605 
L 171.168 203.375179 
L 175.160727 214.331582 
L 177.822545 221.04039 
L 180.218182 226.471816 
L 182.081455 230.199248 
L 183.944727 233.414702 
L 185.541818 235.70983 
L 186.872727 237.263472 
L 188.203636 238.463413 
L 189.268364 239.151439 
L 190.333091 239.583484 
L 191.397818 239.746416 
L 192.462545 239.627055 
L 193.527273 239.212284 
L 194.592 238.488947 
L 195.656727 237.443865 
L 196.721455 236.063907 
L 197.786182 234.33593 
L 199.117091 231.666498 
L 200.448 228.407022 
L 201.778909 224.531817 
L 203.109818 220.015185 
L 204.706909 213.712486 
L 206.304 206.404696 
L 207.901091 198.047531 
L 209.498182 188.596643 
L 211.361455 176.128867 
L 213.224727 162.041511 
L 213.757091 158.621731 
L 215.088 162.601916 
L 216.418909 165.810111 
L 217.483636 167.84818 
L 218.548364 169.439197 
L 219.613091 170.604016 
L 220.411636 171.210507 
L 221.210182 171.597804 
L 222.008727 171.774767 
L 222.807273 171.750209 
L 223.605818 171.532866 
L 224.670545 170.958568 
L 225.735273 170.078132 
L 226.8 168.912538 
L 228.130909 167.086304 
L 229.461818 164.887919 
L 231.058909 161.815982 
L 232.922182 157.723096 
L 235.051636 152.511329 
L 237.979636 144.710325 
L 246.231273 122.312942 
L 248.360727 117.282719 
L 250.224 113.396285 
L 251.821091 110.53686 
L 253.152 108.540447 
L 254.482909 106.938916 
L 255.547636 105.96936 
L 256.612364 105.299533 
L 257.410909 105.006414 
L 258.209455 104.902474 
L 259.008 104.9965 
L 259.806545 105.297305 
L 260.605091 105.813701 
L 261.403636 106.554498 
L 262.468364 107.906468 
L 263.533091 109.694025 
L 264.597818 111.937922 
L 265.662545 114.659061 
L 266.993455 118.763537 
L 268.324364 123.687192 
L 269.655273 129.470805 
L 270.986182 136.155205 
L 272.583273 145.42316 
L 274.180364 156.117184 
L 274.712727 159.767224 
L 276.043636 157.620909 
L 277.374545 155.953063 
L 278.439273 154.945531 
L 279.504 154.214046 
L 280.568727 153.745015 
L 281.633455 153.525119 
L 282.698182 153.54079 
L 283.762909 153.778735 
L 284.827636 154.225512 
L 286.158545 155.056981 
L 287.489455 156.167427 
L 289.086545 157.831342 
L 290.683636 159.813812 
L 292.546909 162.468837 
L 294.942545 166.313188 
L 297.870545 171.461796 
L 306.388364 186.75107 
L 308.784 190.463381 
L 310.647273 192.9842 
L 312.244364 194.82956 
L 313.841455 196.336051 
L 315.172364 197.299861 
L 316.503273 197.97059 
L 317.568 198.278492 
L 318.632727 198.368625 
L 319.697455 198.227523 
L 320.762182 197.841716 
L 321.826909 197.197811 
L 322.891636 196.282416 
L 323.956364 195.081975 
L 324.222545 194.735759 
L 324.488727 195.60523 
L 326.352 206.978957 
L 328.215273 217.047013 
L 330.078545 225.876102 
L 331.941818 233.533312 
L 333.538909 239.214624 
L 335.136 244.126275 
L 336.733091 248.310447 
L 338.330182 251.809258 
L 339.661091 254.231845 
L 340.992 256.232151 
L 342.322909 257.834659 
L 343.653818 259.063676 
L 344.984727 259.943686 
L 346.049455 260.41273 
L 347.114182 260.686511 
L 348.445091 260.773153 
L 349.776 260.598593 
L 351.106909 260.187214 
L 352.437818 259.563399 
L 354.034909 258.568822 
L 355.898182 257.122537 
L 358.027636 255.174527 
L 360.955636 252.158929 
L 367.876364 244.887563 
L 370.005818 243.007832 
L 371.869091 241.641167 
L 373.466182 240.729614 
L 374.797091 240.185457 
L 376.128 239.863173 
L 377.458909 239.787208 
L 378.523636 239.920149 
L 379.588364 240.238829 
L 380.653091 240.755737 
L 381.717818 241.483354 
L 382.782545 242.434197 
L 384.113455 243.955658 
L 385.444364 245.869836 
L 386.775273 248.201075 
L 388.106182 250.973808 
L 389.437091 254.212431 
L 391.034182 258.748114 
L 392.631273 264.031966 
L 394.228364 270.106157 
L 395.293091 274.615504 
L 395.559273 274.391002 
L 397.422545 249.493064 
L 399.285818 227.856468 
L 401.149091 209.064828 
L 403.012364 192.702521 
L 404.875636 178.353851 
L 406.738909 165.602581 
L 409.134545 150.886391 
L 412.861091 129.794941 
L 416.055273 111.254677 
L 418.184727 97.558084 
L 420.048 84.123795 
L 421.911273 68.900848 
L 423.508364 54.113461 
L 425.105455 37.444442 
L 426.436364 21.927273 
L 426.436364 21.927273 
" clip-path="url(#p8a45692d67)" style="fill: none; stroke: #ff0000; stroke-width: 3; stroke-linecap: square"/>
   </g>
   <g id="patch_3">
    <path d="M 7.2 331.2 
L 7.2 7.2 
" style="fill: none; stroke: #000000; stroke-width: 0.8; stroke-linejoin: miter; stroke-linecap: square"/>
   </g>
   <g id="patch_4">
    <path d="M 446.4 331.2 
L 446.4 7.2 
" style="fill: none; stroke: #000000; stroke-width: 0.8; stroke-linejoin: miter; stroke-linecap: square"/>
   </g>
   <g id="patch_5">
    <path d="M 7.2 331.2 
L 446.4 331.2 
" style="fill: none; stroke: #000000; stroke-width: 0.8; stroke-linejoin: miter; stroke-linecap: square"/>
   </g>
   <g id="patch_6">
    <path d="M 7.2 7.2 
L 446.4 7.2 
" style="fill: none; stroke: #000000; stroke-width: 0.8; stroke-linejoin: miter; stroke-linecap: square"/>
   </g>
  </g>
 </g>
 <defs>
  <clipPath id="p8a45692d67">
   <rect x="7.2" y="7.2" width="439.2" height="324"/>
  </clipPath>
 </defs>
</svg>
