<?xml version="1.0" encoding="utf-8" standalone="no"?>
<!DOCTYPE svg PUBLIC "-//W3C//DTD SVG 1.1//EN"
  "http://www.w3.org/Graphics/SVG/1.1/DTD/svg11.dtd">
<svg xmlns:xlink="http://www.w3.org/1999/xlink" width="453.6pt" height="338.4pt" viewBox="0 0 453.6 338.4" xmlns="http://www.w3.org/2000/svg" version="1.1">
 <metadata>
  <rdf:RDF xmlns:dc="http://purl.org/dc/elements/1.1/" xmlns:cc="http://creativecommons.org/ns#" xmlns:rdf="http://www.w3.org/1999/02/22-rdf-syntax-ns#">
   <cc:Work>
    <dc:type rdf:resource="http://purl.org/dc/dcmitype/StillImage"/>
    <dc:date>2025-05-14T08:49:44.577291</dc:date>
    <dc:format>image/svg+xml</dc:format>
    <dc:creator>
     <cc:Agent>
      <dc:title>Matplotlib v3.10.1, https://matplotlib.org/</dc:title>
     </cc:Agent>
    </dc:creator>
   </cc:Work>
  </rdf:RDF>
 </metadata>
 <defs>
  <style type="text/css">*{stroke-linejoin: round; stroke-linecap: butt}</style>
 </defs>
 <g id="figure_1">
  <g id="patch_1">
   <path d="M 0 338.4 
L 453.6 338.4 
L 453.6 0 
L 0 0 
z
" style="fill: #ffffff"/>
  </g>
  <g id="axes_1">
   <g id="patch_2">
    <path d="M 7.2 331.2 
L 446.4 331.2 
L 446.4 7.2 
L 7.2 7.2 
z
" style="fill: #ffffff"/>
   </g>
   <g id="matplotlib.axis_1"/>
   <g id="matplotlib.axis_2"/>
   <g id="line2d_1">
    <path d="M 27.163636 46.887566 
L 27.962182 47.019106 
L 29.026909 47.45777 
L 30.091636 48.183356 
L 31.156364 49.180864 
L 32.487273 50.786991 
L 33.818182 52.764939 
L 35.415273 55.587529 
L 37.012364 58.852093 
L 38.875636 63.151245 
L 41.005091 68.612363 
L 43.666909 76.083535 
L 47.127273 86.502741 
L 55.645091 112.43999 
L 58.306909 119.721855 
L 60.436364 124.981978 
L 62.299636 129.069103 
L 63.896727 132.125105 
L 65.493818 134.7144 
L 66.824727 136.478908 
L 68.155636 137.854488 
L 69.220364 138.655084 
L 70.285091 139.172804 
L 71.349818 139.392572 
L 72.148364 139.352744 
L 72.946909 139.130441 
L 73.745455 138.719296 
L 74.810182 137.866351 
L 75.874909 136.651282 
L 76.939636 135.058953 
L 78.004364 133.074309 
L 79.069091 130.682255 
L 80.4 127.096226 
L 81.730909 122.820529 
L 83.061818 117.825692 
L 84.658909 110.841101 
L 86.256 102.727501 
L 87.853091 93.434015 
L 88.119273 94.554219 
L 89.982545 109.137108 
L 91.845818 121.988872 
L 93.709091 133.220111 
L 95.306182 141.640759 
L 96.903273 149.021496 
L 98.500364 155.431935 
L 100.097455 160.941609 
L 101.694545 165.620071 
L 103.291636 169.536874 
L 104.622545 172.269262 
L 105.953455 174.561302 
L 107.284364 176.453237 
L 108.615273 177.985351 
L 109.946182 179.197866 
L 111.277091 180.131085 
L 112.608 180.825223 
L 114.205091 181.399268 
L 116.068364 181.80003 
L 118.464 182.059587 
L 122.456727 182.452057 
L 124.32 182.874301 
L 125.917091 183.47453 
L 127.248 184.195916 
L 128.578909 185.161299 
L 129.909818 186.410971 
L 131.240727 187.985186 
L 132.571636 189.924177 
L 133.902545 192.268217 
L 135.233455 195.05756 
L 136.564364 198.332477 
L 137.895273 202.133204 
L 139.492364 207.444834 
L 141.089455 213.641204 
L 142.686545 220.79184 
L 144.283636 228.966264 
L 145.880727 238.234167 
L 146.413091 241.578444 
L 146.679273 242.177967 
L 148.808727 239.876512 
L 150.938182 237.241071 
L 153.333818 233.918604 
L 155.995636 229.838794 
L 159.189818 224.492804 
L 162.916364 217.777717 
L 167.973818 208.148096 
L 178.088727 188.780228 
L 181.815273 182.171077 
L 185.009455 176.949108 
L 187.671273 172.996125 
L 190.066909 169.80603 
L 192.196364 167.302728 
L 194.325818 165.147036 
L 196.189091 163.572299 
L 198.052364 162.311751 
L 199.649455 161.498324 
L 201.246545 160.946331 
L 202.577455 160.69618 
L 203.908364 160.645553 
L 205.239273 160.80258 
L 206.570182 161.175446 
L 207.901091 161.772337 
L 209.232 162.601381 
L 210.562909 163.670765 
L 211.893818 164.988655 
L 213.490909 166.909687 
L 215.088 169.214422 
L 216.685091 171.917026 
L 218.282182 175.03155 
L 220.145455 179.204678 
L 222.008727 183.980164 
L 223.872 189.380351 
L 225.735273 195.427716 
L 227.864727 203.160274 
L 229.728 210.491449 
L 234.253091 195.269915 
L 240.375273 173.796373 
L 253.950545 125.902328 
L 258.475636 110.872143 
L 262.202182 99.190086 
L 265.662545 89.055111 
L 268.590545 81.112433 
L 271.252364 74.464752 
L 273.914182 68.422805 
L 276.309818 63.551011 
L 278.439273 59.706238 
L 280.302545 56.741503 
L 282.165818 54.170515 
L 283.762909 52.295252 
L 285.36 50.73652 
L 286.957091 49.5068 
L 288.288 48.74247 
L 289.618909 48.222641 
L 290.949818 47.954608 
L 292.280727 47.94559 
L 293.611636 48.202902 
L 294.942545 48.73382 
L 296.273455 49.545582 
L 297.604364 50.645485 
L 298.669091 51.570944 
L 300.266182 50.930722 
L 301.863273 50.525906 
L 303.460364 50.375033 
L 304.791273 50.457088 
L 306.122182 50.73948 
L 307.453091 51.233184 
L 308.784 51.949074 
L 310.114909 52.898065 
L 311.445818 54.090937 
L 313.042909 55.859742 
L 314.64 58.014417 
L 316.237091 60.5736 
L 317.834182 63.556275 
L 319.431273 66.981059 
L 321.294545 71.560726 
L 323.157818 76.797761 
L 325.021091 82.722005 
L 326.884364 89.363436 
L 329.013818 97.870086 
L 331.143273 107.397042 
L 333.272727 117.988776 
L 335.402182 129.690108 
L 337.531636 142.545297 
L 339.927273 158.442439 
L 342.322909 175.920248 
L 344.718545 195.041904 
L 347.114182 215.871045 
L 349.776 241.094436 
L 352.437818 268.591584 
L 355.099636 298.449096 
L 356.696727 316.472727 
L 359.092364 307.584695 
L 361.754182 296.859458 
L 365.214545 281.920123 
L 370.538182 257.747276 
L 376.660364 230.137752 
L 380.120727 215.554708 
L 382.782545 205.216086 
L 385.178182 196.759714 
L 387.307636 190.048285 
L 389.170909 184.887402 
L 390.768 181.050612 
L 391.300364 175.511813 
L 392.897455 158.427866 
L 394.228364 146.286128 
L 395.559273 135.885269 
L 396.890182 127.072074 
L 398.221091 119.693272 
L 399.552 113.595648 
L 400.882909 108.625968 
L 402.213818 104.630923 
L 403.544727 101.457316 
L 404.875636 98.951875 
L 406.206545 96.961348 
L 407.803636 95.036659 
L 412.594909 89.73934 
L 413.925818 87.71334 
L 414.990545 85.720355 
L 416.055273 83.311523 
L 417.12 80.408368 
L 418.184727 76.932435 
L 419.249455 72.805289 
L 420.580364 66.611038 
L 421.911273 59.123377 
L 423.242182 50.189055 
L 424.573091 39.654876 
L 425.904 27.36751 
L 426.436364 21.927273 
L 426.436364 21.927273 
" clip-path="url(#pb7c89ca928)" style="fill: none; stroke-dasharray: 11.1,4.8; stroke-dashoffset: 0; stroke: #000000; stroke-width: 3"/>
   </g>
   <g id="line2d_2">
    <path d="M 27.163636 31.816257 
L 28.760727 36.657358 
L 31.156364 43.808303 
L 33.818182 50.853138 
L 37.278545 59.543328 
L 39.408 64.195296 
L 41.803636 69.376828 
L 43.134545 72.855664 
L 44.465455 77.066781 
L 45.796364 82.063244 
L 47.393455 88.968973 
L 52.450909 111.977038 
L 53.515636 115.571215 
L 54.580364 118.420473 
L 55.645091 120.599649 
L 56.709818 122.288411 
L 62.033455 129.92348 
L 63.896727 132.718764 
L 65.493818 134.706194 
L 67.090909 136.335777 
L 68.688 137.684186 
L 70.018909 138.550677 
L 71.083636 138.998031 
L 71.882182 139.146833 
L 72.680727 139.110005 
L 73.479273 138.874755 
L 74.277818 138.441297 
L 75.342545 137.576876 
L 76.407273 136.423134 
L 77.738182 134.602 
L 78.802909 132.804593 
L 79.867636 130.630081 
L 80.932364 128.019885 
L 82.263273 124.170312 
L 84.925091 116.189684 
L 85.723636 114.602329 
L 86.256 114.010238 
L 86.522182 113.885646 
L 86.788364 113.887852 
L 87.054545 114.024868 
L 87.586909 114.729417 
L 88.119273 116.035406 
L 88.651636 117.95187 
L 89.450182 121.921235 
L 90.514909 128.954788 
L 91.845818 139.581279 
L 95.04 165.765892 
L 96.370909 174.833747 
L 97.701818 182.373253 
L 99.032727 188.499229 
L 100.363636 193.457664 
L 101.428364 196.710288 
L 102.493091 199.357757 
L 103.557818 201.396026 
L 104.356364 202.538602 
L 105.154909 203.387134 
L 106.219636 204.156534 
L 107.550545 204.751973 
L 111.809455 206.321214 
L 113.672727 207.345545 
L 118.996364 210.506322 
L 120.061091 210.723283 
L 120.859636 210.678501 
L 121.658182 210.429086 
L 122.456727 209.966675 
L 123.521455 209.042533 
L 124.852364 207.538994 
L 126.715636 205.421611 
L 127.514182 204.759443 
L 128.312727 204.353794 
L 129.111273 204.249368 
L 129.909818 204.463872 
L 130.708364 204.994848 
L 131.506909 205.828576 
L 132.305455 206.951527 
L 133.370182 208.887867 
L 134.434909 211.322942 
L 135.765818 215.021932 
L 140.290909 228.580394 
L 141.355636 230.736907 
L 142.420364 232.373302 
L 143.485091 233.619568 
L 144.816 234.821478 
L 146.146909 235.733835 
L 147.211636 236.246581 
L 148.276364 236.538224 
L 149.341091 236.601178 
L 150.405818 236.452551 
L 151.736727 236.013499 
L 153.067636 235.335753 
L 154.398545 234.427847 
L 155.729455 233.242967 
L 156.794182 232.01646 
L 157.858909 230.434911 
L 158.923636 228.381856 
L 159.988364 225.774988 
L 161.319273 221.773131 
L 165.312 208.890189 
L 166.376727 206.333658 
L 167.441455 204.272127 
L 168.506182 202.615799 
L 169.837091 200.952795 
L 171.700364 199.046993 
L 173.829818 196.85491 
L 175.160727 195.144259 
L 176.491636 193.06053 
L 181.549091 184.587573 
L 182.88 183.06025 
L 184.477091 181.620613 
L 187.138909 179.642278 
L 190.066909 177.399471 
L 196.721455 172.009435 
L 198.584727 170.962094 
L 200.448 170.167148 
L 202.577455 169.519283 
L 204.706909 169.118027 
L 206.570182 168.983759 
L 207.901091 169.085843 
L 208.965818 169.35198 
L 210.030545 169.828092 
L 211.095273 170.538272 
L 212.426182 171.752588 
L 213.757091 173.280937 
L 215.886545 176.125337 
L 218.282182 179.260452 
L 219.613091 180.682826 
L 220.944 181.79376 
L 222.274909 182.623037 
L 224.138182 183.486103 
L 229.994182 185.811158 
L 231.058909 185.83829 
L 232.123636 185.591874 
L 233.188364 185.104925 
L 235.051636 183.937695 
L 237.447273 182.472996 
L 239.842909 181.301567 
L 243.037091 179.996759 
L 245.166545 179.365091 
L 247.296 178.703988 
L 248.360727 178.081126 
L 249.159273 177.350161 
L 249.957818 176.320411 
L 250.756364 174.944928 
L 251.821091 172.538147 
L 252.885818 169.493447 
L 254.216727 164.884654 
L 255.547636 159.459164 
L 256.878545 153.125574 
L 258.209455 145.646255 
L 259.540364 136.921114 
L 262.202182 117.43806 
L 264.331636 102.746409 
L 266.194909 91.378173 
L 268.058182 81.387917 
L 269.389091 75.289809 
L 270.72 70.135468 
L 272.050909 65.791418 
L 273.648 61.338549 
L 275.245091 57.487389 
L 276.842182 54.228554 
L 278.173091 52.025748 
L 279.504 50.300758 
L 280.834909 49.00104 
L 282.165818 48.034902 
L 283.762909 47.18037 
L 285.626182 46.448573 
L 287.755636 45.861377 
L 289.352727 45.624231 
L 290.683636 45.614555 
L 292.014545 45.800572 
L 293.877818 46.324291 
L 297.338182 47.373277 
L 298.669091 47.542302 
L 300 47.46884 
L 301.330909 47.12179 
L 302.928 46.404178 
L 306.388364 44.675182 
L 307.719273 44.2986 
L 308.784 44.195122 
L 309.848727 44.285189 
L 310.913455 44.578283 
L 311.978182 45.090275 
L 313.042909 45.855959 
L 314.107636 46.928497 
L 315.172364 48.363238 
L 316.237091 50.194996 
L 317.568 53.036842 
L 319.165091 57.136624 
L 321.294545 63.353769 
L 327.150545 81.51189 
L 331.409455 94.998728 
L 332.740364 100.123324 
L 334.071273 106.207266 
L 335.402182 113.324247 
L 337.265455 124.615537 
L 343.121455 162.190236 
L 344.718545 174.399263 
L 346.848 192.661171 
L 348.977455 210.622282 
L 350.308364 219.992656 
L 351.373091 225.835136 
L 352.171636 229.16575 
L 352.970182 231.660683 
L 353.768727 233.465444 
L 354.567273 234.772129 
L 355.632 236.07324 
L 358.56 239.071997 
L 359.890909 240.214592 
L 360.955636 240.841131 
L 362.020364 241.155571 
L 363.085091 241.171711 
L 364.149818 240.92605 
L 365.214545 240.43196 
L 366.279273 239.65358 
L 367.077818 238.835044 
L 367.876364 237.768331 
L 368.941091 235.890707 
L 370.005818 233.42312 
L 371.070545 230.314751 
L 372.135273 226.550678 
L 373.466182 221.018052 
L 377.458909 203.583311 
L 378.789818 199.202007 
L 380.120727 195.623313 
L 381.717818 191.997339 
L 383.581091 188.309864 
L 385.976727 183.618649 
L 387.041455 180.955136 
L 388.106182 177.5074 
L 389.170909 173.066549 
L 390.235636 167.633144 
L 391.832727 158.17369 
L 397.156364 125.741353 
L 398.753455 117.1529 
L 400.084364 111.189254 
L 401.149091 107.329056 
L 402.213818 104.192161 
L 403.278545 101.630231 
L 404.609455 99.026228 
L 406.206545 96.462787 
L 410.199273 90.722508 
L 411.530182 89.215989 
L 413.127273 87.844899 
L 414.192 86.838237 
L 414.990545 85.760841 
L 415.789091 84.228834 
L 416.587636 82.135661 
L 417.386182 79.450126 
L 418.450909 75.040239 
L 420.048 67.219231 
L 426.170182 35.81707 
L 426.436364 34.755737 
L 426.436364 34.755737 
" clip-path="url(#pb7c89ca928)" style="fill: none; stroke-dasharray: 3,4.95; stroke-dashoffset: 0; stroke: #0000ff; stroke-width: 3"/>
   </g>
   <g id="line2d_3">
    <path d="M 27.163636 46.375072 
L 31.156364 56.679788 
L 32.753455 59.880024 
L 35.681455 65.128631 
L 38.077091 69.035004 
L 42.069818 75.235661 
L 43.134545 77.411372 
L 44.199273 80.063583 
L 45.264 83.252188 
L 46.594909 87.987295 
L 48.192 94.601942 
L 52.450909 112.991074 
L 53.515636 116.501706 
L 54.580364 119.276689 
L 55.645091 121.358889 
L 56.709818 122.891186 
L 58.040727 124.328113 
L 63.630545 129.501594 
L 65.493818 130.953849 
L 67.623273 132.325365 
L 69.220364 133.109376 
L 70.285091 133.423758 
L 71.349818 133.489731 
L 72.148364 133.337465 
L 72.946909 132.990126 
L 73.745455 132.439507 
L 74.810182 131.398087 
L 75.874909 130.040079 
L 77.205818 127.960434 
L 78.536727 125.47601 
L 79.867636 122.524067 
L 81.198545 119.021873 
L 83.061818 113.316023 
L 84.658909 108.493016 
L 85.457455 106.625436 
L 85.989818 105.764963 
L 86.522182 105.309346 
L 86.788364 105.257326 
L 87.054545 105.333633 
L 87.586909 105.897954 
L 88.119273 107.040858 
L 88.651636 108.776009 
L 89.450182 112.45164 
L 90.248727 117.270196 
L 91.313455 125.03214 
L 96.104727 162.413913 
L 97.435636 170.384042 
L 98.766545 176.978466 
L 100.097455 182.392461 
L 101.428364 186.785772 
L 102.493091 189.591555 
L 103.557818 191.765244 
L 104.622545 193.349106 
L 105.687273 194.456527 
L 107.018182 195.422036 
L 110.478545 197.643401 
L 112.608 199.403361 
L 116.068364 202.293172 
L 117.665455 203.337572 
L 118.996364 203.930012 
L 120.061091 204.145841 
L 120.859636 204.121244 
L 121.658182 203.918284 
L 122.722909 203.365159 
L 123.787636 202.528577 
L 126.981818 199.720869 
L 127.780364 199.385354 
L 128.578909 199.337175 
L 129.377455 199.604337 
L 130.176 200.188533 
L 130.974545 201.073323 
L 132.039273 202.682565 
L 133.104 204.751519 
L 134.168727 207.272712 
L 135.499636 211.038691 
L 137.629091 217.986657 
L 139.226182 222.975157 
L 140.290909 225.732558 
L 141.355636 227.917907 
L 142.420364 229.599964 
L 143.751273 231.242512 
L 145.880727 233.429739 
L 147.477818 234.822775 
L 148.808727 235.70142 
L 149.873455 236.172384 
L 150.938182 236.439236 
L 152.269091 236.517749 
L 153.6 236.344273 
L 154.930909 235.907389 
L 155.995636 235.313207 
L 157.060364 234.411494 
L 157.858909 233.463741 
L 158.657455 232.225419 
L 159.722182 230.056588 
L 160.786909 227.28952 
L 162.384 222.316192 
L 164.513455 215.608392 
L 165.844364 212.21733 
L 166.909091 210.107794 
L 167.973818 208.463678 
L 169.304727 206.86476 
L 171.434182 204.78644 
L 173.297455 202.903717 
L 174.628364 201.242483 
L 175.959273 199.193289 
L 177.822545 195.792473 
L 180.218182 191.461719 
L 181.549091 189.530962 
L 182.88 188.021075 
L 184.210909 186.839127 
L 186.606545 185.094281 
L 189.268364 183.107489 
L 191.930182 180.813795 
L 194.858182 178.322579 
L 196.721455 177.037036 
L 198.584727 176.049669 
L 200.448 175.309714 
L 202.577455 174.695028 
L 204.973091 174.244665 
L 206.836364 174.097402 
L 208.167273 174.193381 
L 209.232 174.463514 
L 210.296727 174.953869 
L 211.361455 175.688637 
L 212.426182 176.666715 
L 213.757091 178.19071 
L 215.620364 180.701231 
L 218.282182 184.290337 
L 219.613091 185.753052 
L 220.944 186.894369 
L 222.274909 187.742282 
L 224.138182 188.612654 
L 229.195636 190.635451 
L 230.260364 190.760179 
L 231.058909 190.664509 
L 232.123636 190.266437 
L 233.188364 189.603892 
L 235.317818 187.914781 
L 237.181091 186.569391 
L 238.778182 185.691927 
L 240.375273 185.044545 
L 241.972364 184.605261 
L 243.835636 184.34437 
L 246.497455 184.066593 
L 247.562182 183.701526 
L 248.360727 183.200604 
L 249.159273 182.431592 
L 249.957818 181.337717 
L 250.756364 179.879308 
L 251.821091 177.342323 
L 252.885818 174.148841 
L 254.216727 169.307159 
L 255.547636 163.526588 
L 256.878545 156.612906 
L 258.209455 148.258328 
L 259.540364 138.383781 
L 265.130182 94.492136 
L 266.993455 82.947501 
L 268.590545 74.455366 
L 269.921455 68.509117 
L 271.252364 63.582517 
L 272.583273 59.484109 
L 274.180364 55.328592 
L 275.777455 51.795627 
L 277.108364 49.319873 
L 278.439273 47.305253 
L 279.770182 45.748552 
L 281.101091 44.595894 
L 282.432 43.765476 
L 283.762909 43.176519 
L 285.36 42.708923 
L 286.957091 42.468583 
L 288.554182 42.476053 
L 289.885091 42.703194 
L 291.216 43.141414 
L 292.813091 43.898099 
L 297.338182 46.205427 
L 298.669091 46.580673 
L 299.733818 46.692647 
L 300.798545 46.62023 
L 302.129455 46.29234 
L 303.992727 45.559187 
L 306.388364 44.652152 
L 307.719273 44.376513 
L 309.050182 44.35451 
L 310.114909 44.546255 
L 311.179636 44.940679 
L 312.244364 45.562071 
L 313.309091 46.453817 
L 314.373818 47.673938 
L 315.438545 49.275537 
L 316.503273 51.283597 
L 317.834182 54.339676 
L 319.431273 58.677514 
L 321.294545 64.418915 
L 325.021091 76.903426 
L 327.150545 83.571737 
L 329.546182 90.234882 
L 331.409455 95.672661 
L 332.474182 99.388508 
L 333.538909 103.804781 
L 334.869818 110.467674 
L 336.200727 118.322336 
L 338.862545 135.818464 
L 343.92 169.667243 
L 345.517091 182.870943 
L 350.042182 221.828518 
L 351.106909 228.429531 
L 351.905455 232.250316 
L 352.704 235.114476 
L 353.502545 237.126 
L 354.301091 238.446329 
L 355.099636 239.257646 
L 355.898182 239.729171 
L 356.962909 240.054488 
L 358.56 240.241801 
L 360.157091 240.224945 
L 362.020364 239.960821 
L 364.682182 239.303357 
L 366.013091 238.760885 
L 366.811636 238.235463 
L 367.610182 237.472701 
L 368.408727 236.408253 
L 369.207273 234.994509 
L 370.005818 233.20192 
L 371.070545 230.198142 
L 372.135273 226.498232 
L 373.466182 221.009682 
L 377.725091 202.503651 
L 379.056 198.199071 
L 380.386909 194.665564 
L 381.984 191.114069 
L 383.581091 188.092235 
L 386.242909 183.253301 
L 387.041455 181.354389 
L 387.84 178.97505 
L 388.638545 175.983212 
L 389.703273 170.938522 
L 391.034182 163.121288 
L 397.688727 120.983758 
L 399.285818 112.876661 
L 400.616727 107.394217 
L 401.681455 103.864755 
L 402.746182 100.974566 
L 404.077091 98.038454 
L 405.674182 95.160341 
L 410.465455 87.432728 
L 411.796364 85.774504 
L 413.393455 84.272939 
L 414.458182 83.193472 
L 415.256727 82.081203 
L 416.055273 80.552506 
L 416.853818 78.524241 
L 417.918545 75.034859 
L 419.249455 69.666536 
L 421.645091 58.741242 
L 425.371636 41.853114 
L 426.436364 37.836509 
L 426.436364 37.836509 
" clip-path="url(#pb7c89ca928)" style="fill: none; stroke: #0000ff; stroke-width: 3; stroke-linecap: square"/>
   </g>
   <g id="patch_3">
    <path d="M 7.2 331.2 
L 7.2 7.2 
" style="fill: none; stroke: #000000; stroke-width: 0.8; stroke-linejoin: miter; stroke-linecap: square"/>
   </g>
   <g id="patch_4">
    <path d="M 446.4 331.2 
L 446.4 7.2 
" style="fill: none; stroke: #000000; stroke-width: 0.8; stroke-linejoin: miter; stroke-linecap: square"/>
   </g>
   <g id="patch_5">
    <path d="M 7.2 331.2 
L 446.4 331.2 
" style="fill: none; stroke: #000000; stroke-width: 0.8; stroke-linejoin: miter; stroke-linecap: square"/>
   </g>
   <g id="patch_6">
    <path d="M 7.2 7.2 
L 446.4 7.2 
" style="fill: none; stroke: #000000; stroke-width: 0.8; stroke-linejoin: miter; stroke-linecap: square"/>
   </g>
  </g>
 </g>
 <defs>
  <clipPath id="pb7c89ca928">
   <rect x="7.2" y="7.2" width="439.2" height="324"/>
  </clipPath>
 </defs>
</svg>
