<?xml version="1.0" encoding="utf-8" standalone="no"?>
<!DOCTYPE svg PUBLIC "-//W3C//DTD SVG 1.1//EN"
  "http://www.w3.org/Graphics/SVG/1.1/DTD/svg11.dtd">
<svg xmlns:xlink="http://www.w3.org/1999/xlink" width="453.6pt" height="338.4pt" viewBox="0 0 453.6 338.4" xmlns="http://www.w3.org/2000/svg" version="1.1">
 <metadata>
  <rdf:RDF xmlns:dc="http://purl.org/dc/elements/1.1/" xmlns:cc="http://creativecommons.org/ns#" xmlns:rdf="http://www.w3.org/1999/02/22-rdf-syntax-ns#">
   <cc:Work>
    <dc:type rdf:resource="http://purl.org/dc/dcmitype/StillImage"/>
    <dc:date>2025-05-14T00:24:04.733780</dc:date>
    <dc:format>image/svg+xml</dc:format>
    <dc:creator>
     <cc:Agent>
      <dc:title>Matplotlib v3.10.1, https://matplotlib.org/</dc:title>
     </cc:Agent>
    </dc:creator>
   </cc:Work>
  </rdf:RDF>
 </metadata>
 <defs>
  <style type="text/css">*{stroke-linejoin: round; stroke-linecap: butt}</style>
 </defs>
 <g id="figure_1">
  <g id="patch_1">
   <path d="M 0 338.4 
L 453.6 338.4 
L 453.6 0 
L 0 0 
z
" style="fill: #ffffff"/>
  </g>
  <g id="axes_1">
   <g id="patch_2">
    <path d="M 7.2 331.2 
L 446.4 331.2 
L 446.4 7.2 
L 7.2 7.2 
z
" style="fill: #ffffff"/>
   </g>
   <g id="matplotlib.axis_1"/>
   <g id="matplotlib.axis_2"/>
   <g id="line2d_1">
    <path d="M 27.163636 47.449329 
L 31.954909 44.727859 
L 36.48 42.40443 
L 41.005091 40.320702 
L 45.530182 38.476748 
L 50.055273 36.872567 
L 54.580364 35.508159 
L 59.105455 34.383476 
L 63.630545 33.498567 
L 67.889455 32.884783 
L 72.148364 32.483287 
L 76.407273 32.294203 
L 80.666182 32.317577 
L 84.925091 32.55324 
L 89.184 33.001337 
L 93.442909 33.661796 
L 97.701818 34.534618 
L 102.226909 35.694714 
L 106.752 37.094584 
L 111.277091 38.734179 
L 115.802182 40.613572 
L 120.327273 42.73269 
L 124.852364 45.091605 
L 129.377455 47.690245 
L 134.168727 50.703101 
L 138.96 53.984724 
L 143.751273 57.535161 
L 148.542545 61.354388 
L 153.6 65.677437 
L 158.657455 70.299922 
L 160.786909 72.263253 
L 164.779636 73.892219 
L 168.772364 75.757456 
L 172.765091 77.859036 
L 177.024 80.361115 
L 181.282909 83.132106 
L 185.541818 86.171936 
L 189.800727 89.480605 
L 194.325818 93.290663 
L 198.850909 97.40422 
L 203.376 101.8213 
L 207.901091 106.541928 
L 212.692364 111.870989 
L 217.483636 117.540361 
L 222.274909 123.549996 
L 227.332364 130.262643 
L 232.389818 137.354432 
L 237.447273 144.82534 
L 242.770909 153.099007 
L 248.094545 161.792813 
L 253.418182 170.906685 
L 259.008 180.928342 
L 264.597818 191.413176 
L 270.187636 202.361151 
L 276.043636 214.327215 
L 281.899636 226.801569 
L 287.755636 239.784244 
L 293.877818 253.90048 
L 300 268.572325 
L 306.388364 284.474375 
L 312.776727 300.981367 
L 318.632727 316.472727 
L 321.560727 313.74793 
L 324.488727 310.728533 
L 327.682909 307.098756 
L 330.877091 303.118409 
L 334.071273 298.787517 
L 337.531636 293.700168 
L 340.992 288.201386 
L 344.452364 282.29124 
L 348.178909 275.466329 
L 351.905455 268.16433 
L 355.632 260.385204 
L 359.624727 251.520963 
L 363.617455 242.108931 
L 367.876364 231.465774 
L 372.135273 220.199427 
L 376.394182 208.309882 
L 380.919273 194.994478 
L 385.444364 180.975479 
L 389.969455 166.252981 
L 394.760727 149.897614 
L 399.552 132.753594 
L 404.609455 113.801362 
L 409.666909 93.970435 
L 414.724364 73.260728 
L 420.048 50.511487 
L 425.371636 26.78868 
L 426.436364 21.927273 
L 426.436364 21.927273 
" clip-path="url(#p4d51d1e423)" style="fill: none; stroke-dasharray: 11.1,4.8; stroke-dashoffset: 0; stroke: #000000; stroke-width: 3"/>
   </g>
   <g id="line2d_2">
    <path d="M 27.163636 117.534073 
L 28.494545 118.062448 
L 29.825455 118.830195 
L 31.156364 119.84939 
L 32.487273 121.127148 
L 34.084364 122.993005 
L 35.947636 125.560743 
L 39.141818 130.454683 
L 41.005091 133.086876 
L 42.069818 134.302356 
L 42.868364 134.988853 
L 43.666909 135.420678 
L 44.731636 135.514284 
L 46.594909 135.504312 
L 47.925818 135.269816 
L 49.256727 134.729536 
L 50.321455 134.032349 
L 51.386182 133.092823 
L 52.717091 131.583573 
L 54.314182 129.373161 
L 58.573091 123.1153 
L 59.371636 123.040264 
L 60.436364 123.717032 
L 62.033455 126.973237 
L 63.896727 130.187096 
L 66.292364 133.796735 
L 71.882182 141.614388 
L 73.745455 143.909748 
L 74.810182 144.917985 
L 75.608727 145.416699 
L 76.407273 145.589876 
L 76.939636 145.470075 
L 77.472 145.010108 
L 78.004364 144.141969 
L 78.270545 143.559379 
L 79.601455 135.327145 
L 80.4 131.723429 
L 81.198545 128.955369 
L 81.997091 126.808755 
L 83.061818 124.58145 
L 85.989818 119.065493 
L 86.788364 117.006319 
L 87.586909 114.942633 
L 89.982545 133.72716 
L 90.781091 137.593379 
L 91.579636 140.442081 
L 92.378182 142.435255 
L 93.176727 143.728604 
L 93.709091 144.275051 
L 95.572364 144.732695 
L 97.169455 144.89483 
L 100.896 144.971216 
L 101.162182 144.701562 
L 102.759273 140.894873 
L 104.090182 138.293156 
L 105.154909 136.623838 
L 106.219636 135.316917 
L 107.284364 134.349445 
L 108.349091 133.688681 
L 109.413818 133.300904 
L 112.075636 132.829165 
L 118.464 131.600052 
L 120.859636 131.226893 
L 122.190545 131.234311 
L 123.255273 131.476481 
L 124.053818 131.870922 
L 124.852364 132.518442 
L 125.650909 133.503476 
L 126.449455 134.921904 
L 126.981818 136.174731 
L 128.046545 139.662854 
L 128.312727 139.600745 
L 129.909818 137.118344 
L 133.104 132.084804 
L 134.434909 130.36256 
L 135.499636 129.255135 
L 136.564364 128.442233 
L 137.362909 128.052801 
L 138.161455 127.877763 
L 138.96 127.935335 
L 139.758545 128.260165 
L 140.557091 128.872039 
L 141.355636 129.810775 
L 141.621818 130.202626 
L 142.154182 132.017211 
L 143.218909 135.762522 
L 143.751273 137.116702 
L 145.348364 138.879613 
L 149.607273 143.971126 
L 151.204364 145.41198 
L 152.801455 146.523346 
L 155.197091 148.079271 
L 156.261818 149.08639 
L 157.060364 150.149694 
L 157.326545 150.584658 
L 157.592727 150.455565 
L 159.456 140.04123 
L 160.254545 136.551211 
L 164.513455 133.118897 
L 166.642909 131.727345 
L 167.707636 131.227537 
L 168.772364 130.948373 
L 169.570909 130.923066 
L 170.369455 131.113196 
L 171.168 131.554532 
L 171.966545 132.319652 
L 172.765091 133.467734 
L 173.563636 135.079613 
L 174.362182 137.24847 
L 175.160727 140.086349 
L 175.959273 143.708903 
L 176.491636 146.524197 
L 177.024 145.947907 
L 182.88 142.529056 
L 184.210909 141.498903 
L 185.275636 140.425699 
L 186.340364 138.996399 
L 187.138909 137.592236 
L 187.937455 135.806972 
L 188.736 133.546041 
L 189.534545 130.68463 
L 191.131636 124.133303 
L 191.664 123.06106 
L 192.196364 122.429107 
L 192.728727 122.203441 
L 193.261091 122.31856 
L 193.527273 122.484527 
L 195.124364 122.611734 
L 196.455273 122.940286 
L 197.786182 123.522694 
L 199.383273 124.497062 
L 200.980364 125.457493 
L 201.778909 125.754523 
L 202.577455 125.81736 
L 203.109818 125.680521 
L 203.642182 125.379807 
L 204.174545 124.889388 
L 204.973091 123.768256 
L 205.771636 122.167188 
L 206.570182 120.425413 
L 208.167273 121.08687 
L 210.296727 122.219628 
L 211.627636 123.988535 
L 212.958545 126.156881 
L 214.555636 129.199521 
L 216.418909 133.247734 
L 218.548364 138.408713 
L 220.944 144.803316 
L 221.210182 145.551507 
L 221.476364 145.834174 
L 221.742545 145.268439 
L 223.073455 140.314545 
L 224.670545 135.294346 
L 226.001455 131.764376 
L 226.8 129.905913 
L 229.728 128.371466 
L 231.591273 127.146804 
L 233.454545 125.659275 
L 238.778182 121.23041 
L 239.576727 120.934731 
L 240.375273 120.882887 
L 240.907636 121.018474 
L 241.44 121.321013 
L 241.972364 121.810593 
L 242.770909 122.955451 
L 243.037091 124.130555 
L 243.303273 126.350563 
L 243.569455 127.536697 
L 244.368 128.517888 
L 245.432727 130.337666 
L 247.296 134.198084 
L 248.893091 137.368138 
L 249.957818 139.080069 
L 251.022545 140.34119 
L 251.821091 140.965506 
L 252.619636 141.319766 
L 253.418182 141.425801 
L 254.216727 141.317103 
L 255.281455 140.910816 
L 256.612364 140.137451 
L 259.806545 138.163455 
L 260.072727 138.034021 
L 261.137455 136.499853 
L 261.403636 136.887825 
L 261.936 138.282964 
L 262.468364 139.165125 
L 263.000727 139.588754 
L 263.533091 139.62896 
L 264.065455 139.336807 
L 264.597818 138.774588 
L 265.396364 137.527367 
L 266.461091 135.359081 
L 270.72 126.04822 
L 271.784727 124.351126 
L 272.583273 123.322481 
L 272.849455 123.731066 
L 273.914182 126.107032 
L 274.978909 127.854389 
L 275.777455 128.823272 
L 276.576 129.530407 
L 276.842182 130.051728 
L 277.640727 132.220841 
L 278.439273 133.84532 
L 279.237818 135.049076 
L 280.036364 135.932295 
L 281.101091 136.729107 
L 282.165818 137.212983 
L 283.230545 137.470257 
L 284.561455 137.558804 
L 286.158545 137.409742 
L 287.755636 137.037373 
L 289.618909 136.36125 
L 289.885091 136.243443 
L 290.417455 135.510709 
L 291.482182 133.500825 
L 293.611636 129.111728 
L 296.539636 126.174661 
L 297.338182 125.695576 
L 297.870545 125.55746 
L 298.402909 125.61654 
L 298.935273 125.914566 
L 299.467636 126.498883 
L 300 127.418319 
L 300.532364 128.734957 
L 301.064727 130.492651 
L 301.863273 134.086881 
L 302.661818 138.990877 
L 303.460364 145.41001 
L 303.726545 147.906847 
L 304.258909 145.639349 
L 305.323636 141.275353 
L 306.388364 137.919571 
L 307.453091 135.338954 
L 308.784 132.817709 
L 309.848727 131.061936 
L 310.114909 130.826675 
L 311.445818 130.515429 
L 313.042909 129.882442 
L 314.64 128.971982 
L 316.237091 127.758448 
L 317.568 126.475521 
L 318.898909 124.899457 
L 320.229818 122.976867 
L 321.560727 120.675937 
L 322.891636 117.973853 
L 323.157818 117.955282 
L 323.424 118.427909 
L 324.488727 122.269477 
L 325.553455 125.44093 
L 326.618182 128.019066 
L 327.150545 128.130756 
L 327.682909 128.434875 
L 328.481455 129.204324 
L 329.546182 130.69054 
L 333.538909 137.086104 
L 334.603636 138.215068 
L 335.934545 139.24775 
L 337.265455 140.234158 
L 338.064 141.083702 
L 338.862545 142.355915 
L 339.661091 144.280621 
L 340.725818 147.89814 
L 341.524364 140.822257 
L 342.322909 135.818562 
L 342.855273 133.536275 
L 343.387636 131.991855 
L 343.92 131.140973 
L 344.186182 130.986207 
L 344.452364 130.967223 
L 344.984727 131.283334 
L 345.517091 131.95413 
L 346.315636 133.397526 
L 347.912727 136.95757 
L 350.042182 141.562969 
L 351.373091 143.95877 
L 352.704 145.932219 
L 354.034909 147.516881 
L 355.099636 148.525727 
L 355.632 148.805925 
L 356.696727 148.764199 
L 359.358545 148.454923 
L 360.689455 148.331108 
L 362.552727 148.109419 
L 364.416 147.647421 
L 366.013091 147.027775 
L 367.876364 146.034313 
L 370.005818 144.599054 
L 374.797091 141.108499 
L 375.063273 140.494375 
L 375.861818 138.023587 
L 376.660364 136.242774 
L 378.789818 132.251074 
L 379.854545 130.692693 
L 380.653091 129.830841 
L 381.451636 129.273924 
L 382.250182 129.031207 
L 383.048727 129.085277 
L 383.847273 129.397617 
L 384.912 130.102928 
L 387.041455 131.63425 
L 387.84 131.873075 
L 388.372364 131.814165 
L 388.904727 131.535597 
L 389.437091 130.993066 
L 389.969455 130.1322 
L 390.501818 128.922825 
L 391.566545 126.028421 
L 392.098909 125.058175 
L 392.631273 124.414973 
L 393.163636 124.079757 
L 393.696 124.005475 
L 394.228364 124.17121 
L 394.760727 124.555935 
L 395.559273 125.462346 
L 396.624 127.136503 
L 398.487273 130.69386 
L 400.084364 133.607285 
L 401.149091 135.121338 
L 401.947636 135.904542 
L 402.746182 136.317433 
L 403.278545 136.35326 
L 403.544727 136.297063 
L 404.343273 133.601813 
L 405.408 130.462782 
L 406.206545 128.645753 
L 407.005091 127.24384 
L 407.803636 126.212568 
L 408.602182 125.514044 
L 409.400727 125.110542 
L 410.199273 124.969044 
L 410.731636 125.182124 
L 411.264 125.694227 
L 411.796364 126.486564 
L 412.594909 128.183877 
L 413.393455 130.436416 
L 414.458182 134.192782 
L 415.789091 139.065086 
L 416.321455 139.610584 
L 416.853818 139.918023 
L 417.386182 139.983901 
L 417.918545 139.82027 
L 418.450909 139.427787 
L 418.983273 138.815827 
L 419.781818 137.506753 
L 420.580364 135.758557 
L 421.645091 132.81181 
L 422.976 128.299738 
L 424.573091 121.999823 
L 426.436364 114.046875 
L 426.436364 114.046875 
" clip-path="url(#p4d51d1e423)" style="fill: none; stroke-dasharray: 3,4.95; stroke-dashoffset: 0; stroke: #0000ff; stroke-width: 3"/>
   </g>
   <g id="line2d_3">
    <path d="M 27.163636 117.047534 
L 27.696 115.012378 
L 28.228364 113.851321 
L 28.760727 113.423922 
L 29.026909 113.438005 
L 29.559273 113.85638 
L 30.091636 114.681237 
L 30.890182 116.433458 
L 33.818182 123.545691 
L 34.616727 124.685879 
L 35.149091 125.110408 
L 35.681455 125.240389 
L 36.213818 125.078679 
L 36.746182 124.609324 
L 37.278545 123.856778 
L 38.609455 121.295607 
L 39.408 120.393636 
L 40.206545 119.81473 
L 41.271273 119.293969 
L 43.134545 118.464637 
L 43.933091 117.89422 
L 44.731636 116.740666 
L 46.062545 114.4509 
L 46.328727 114.559015 
L 47.659636 116.701713 
L 48.724364 118.108746 
L 49.789091 119.15854 
L 50.587636 119.613435 
L 51.12 119.697823 
L 51.652364 119.571977 
L 52.184727 119.17756 
L 52.717091 118.477698 
L 53.249455 117.4146 
L 53.781818 115.928846 
L 54.580364 112.783602 
L 55.645091 117.941503 
L 56.443636 120.787968 
L 57.242182 122.895459 
L 58.040727 124.433604 
L 58.839273 125.833304 
L 60.436364 129.652094 
L 62.033455 134.717934 
L 64.162909 140.637721 
L 66.824727 148.011447 
L 67.889455 151.628395 
L 68.688 154.676093 
L 68.954182 154.552923 
L 70.817455 149.962592 
L 72.148364 146.936699 
L 72.946909 145.604482 
L 73.479273 145.039331 
L 74.011636 144.791361 
L 74.544 144.923969 
L 75.076364 145.484158 
L 75.608727 146.52455 
L 76.141091 148.079186 
L 76.673455 150.193779 
L 77.205818 152.966072 
L 78.270545 159.583957 
L 79.335273 149.147829 
L 80.133818 143.219602 
L 80.932364 138.641871 
L 81.730909 135.055801 
L 82.529455 132.179006 
L 82.795636 131.64286 
L 83.061818 131.702025 
L 84.126545 133.224774 
L 84.925091 133.98149 
L 85.457455 134.222857 
L 85.989818 134.209808 
L 86.522182 133.906528 
L 87.054545 133.282844 
L 87.320727 132.83814 
L 87.586909 132.764284 
L 89.450182 148.853901 
L 90.248727 153.475012 
L 91.047273 156.854522 
L 91.845818 159.183897 
L 92.644364 160.639892 
L 92.910545 160.959991 
L 93.176727 160.684804 
L 93.442909 159.936758 
L 94.773818 154.042145 
L 95.838545 150.255535 
L 97.169455 146.36655 
L 98.500364 143.230523 
L 99.565091 141.24152 
L 100.363636 140.100176 
L 100.896 139.546615 
L 101.162182 139.040982 
L 102.226909 135.917032 
L 103.025455 134.189097 
L 103.291636 133.742665 
L 104.622545 129.823885 
L 105.687273 127.488064 
L 106.485818 126.238837 
L 107.284364 125.416802 
L 107.816727 125.106979 
L 108.349091 124.998706 
L 108.881455 125.079105 
L 109.413818 125.358318 
L 109.946182 125.826129 
L 110.478545 126.530941 
L 111.277091 128.21968 
L 112.341818 131.115325 
L 114.205091 137.069115 
L 116.068364 143.023877 
L 116.334545 142.881662 
L 116.600727 142.457024 
L 119.262545 133.906236 
L 120.859636 129.693819 
L 122.190545 126.815115 
L 123.255273 125.009858 
L 124.053818 124.003457 
L 124.852364 123.350768 
L 125.384727 123.143818 
L 125.917091 123.13955 
L 126.449455 123.366165 
L 126.981818 123.85268 
L 128.046545 126.365534 
L 128.312727 126.125882 
L 129.909818 123.022533 
L 130.974545 121.345177 
L 131.773091 120.406393 
L 132.571636 119.851446 
L 133.104 119.743988 
L 133.636364 119.875318 
L 134.168727 120.272241 
L 134.701091 120.982331 
L 135.233455 122.025289 
L 135.765818 123.441845 
L 136.564364 126.351366 
L 137.362909 130.335708 
L 138.161455 134.576424 
L 139.492364 133.146564 
L 140.557091 132.332872 
L 141.355636 131.963336 
L 141.621818 131.893968 
L 141.888 132.161931 
L 142.686545 133.599028 
L 143.485091 134.59497 
L 144.017455 134.821719 
L 145.082182 135.217073 
L 146.413091 135.945745 
L 148.010182 137.061939 
L 150.139636 138.84319 
L 152.002909 140.708013 
L 152.801455 141.726296 
L 154.664727 148.175613 
L 155.197091 149.205474 
L 156.528 151.569789 
L 157.326545 153.229633 
L 157.592727 153.257956 
L 160.254545 140.284336 
L 161.053091 139.337938 
L 161.851636 138.038862 
L 162.650182 136.300164 
L 163.448727 134.036314 
L 164.247273 131.141058 
L 165.045818 127.499435 
L 165.844364 122.969157 
L 166.642909 117.403485 
L 167.175273 113.167828 
L 167.441455 112.38753 
L 167.973818 112.358489 
L 168.506182 112.521743 
L 169.038545 112.902613 
L 169.570909 113.505622 
L 170.369455 114.88438 
L 171.168 116.866731 
L 171.966545 119.528586 
L 172.765091 122.93204 
L 173.563636 127.15179 
L 174.628364 134.197963 
L 175.693091 143.073313 
L 176.491636 150.998095 
L 177.024 152.936276 
L 178.354909 155.638604 
L 178.621091 155.558072 
L 178.887273 154.808895 
L 180.484364 145.566733 
L 181.549091 140.505891 
L 182.613818 136.504681 
L 183.412364 134.259377 
L 184.210909 132.658589 
L 185.009455 131.681181 
L 185.541818 131.342815 
L 186.074182 131.227306 
L 186.606545 131.301856 
L 187.405091 131.660129 
L 189.002182 132.55602 
L 189.534545 132.638329 
L 190.066909 132.465248 
L 190.599273 132.005439 
L 190.865455 132.100626 
L 191.397818 132.718533 
L 191.664 132.610443 
L 192.994909 130.280033 
L 193.527273 129.66693 
L 194.592 127.69409 
L 195.656727 126.149694 
L 196.721455 124.971258 
L 198.052364 123.890307 
L 199.117091 123.236999 
L 199.915636 123.009362 
L 202.045091 122.717271 
L 202.577455 122.442059 
L 203.109818 121.972789 
L 203.642182 121.256788 
L 204.174545 120.231683 
L 204.706909 118.832931 
L 205.505455 115.888775 
L 206.304 111.729917 
L 206.570182 111.968012 
L 207.368727 113.659877 
L 208.167273 114.748647 
L 208.965818 115.331529 
L 209.764364 115.580277 
L 210.030545 115.629263 
L 210.296727 115.914435 
L 211.893818 119.362984 
L 215.620364 128.13427 
L 218.282182 134.378243 
L 218.548364 134.88615 
L 218.814545 134.983806 
L 219.080727 133.664079 
L 219.879273 127.474954 
L 220.411636 127.089986 
L 220.944 126.937142 
L 221.210182 126.949681 
L 221.476364 126.578455 
L 222.008727 123.939561 
L 223.073455 118.688795 
L 223.872 115.645973 
L 224.670545 113.423727 
L 225.202909 112.435349 
L 225.735273 111.88658 
L 226.001455 111.79464 
L 226.267636 111.832097 
L 226.533818 112.002988 
L 226.8 112.317165 
L 227.864727 114.900506 
L 229.195636 118.813011 
L 231.058909 125.133259 
L 232.922182 131.480141 
L 233.454545 131.662197 
L 234.253091 131.590153 
L 235.051636 131.285705 
L 236.116364 130.613279 
L 238.245818 128.875445 
L 239.576727 127.916594 
L 240.641455 127.451702 
L 241.44 127.380837 
L 242.238545 127.628054 
L 242.770909 127.997419 
L 243.037091 128.87868 
L 243.303273 130.734686 
L 243.569455 131.704482 
L 244.368 132.491018 
L 245.432727 133.975191 
L 247.828364 137.546643 
L 248.893091 138.805319 
L 249.957818 139.756447 
L 250.756364 140.243376 
L 251.821091 140.615307 
L 252.885818 140.737201 
L 256.346182 140.828095 
L 257.410909 141.202008 
L 258.475636 141.840321 
L 259.540364 142.712011 
L 260.072727 143.773625 
L 260.338909 143.722341 
L 260.605091 143.42997 
L 261.403636 142.085689 
L 261.669818 142.106108 
L 261.936 141.859743 
L 262.468364 140.668671 
L 263.000727 138.679717 
L 263.799273 134.565625 
L 264.864 127.596872 
L 266.461091 115.387629 
L 266.993455 111.831732 
L 268.324364 117.848104 
L 269.655273 122.89113 
L 270.72 126.312255 
L 270.986182 126.810907 
L 271.784727 127.024947 
L 272.583273 126.950921 
L 273.115636 128.330093 
L 273.914182 130.275631 
L 274.978909 132.157553 
L 276.576 134.464272 
L 277.108364 136.245158 
L 280.302545 148.073823 
L 280.834909 149.40548 
L 281.367273 150.286753 
L 281.899636 150.722969 
L 282.432 150.712607 
L 282.964364 150.252689 
L 283.496727 149.361018 
L 284.029091 148.047007 
L 284.827636 145.311673 
L 285.626182 141.736719 
L 286.690909 136.531534 
L 287.223273 136.127874 
L 288.021818 135.07836 
L 288.820364 133.584434 
L 289.885091 131.07777 
L 290.683636 128.161487 
L 292.546909 120.142297 
L 293.079273 118.178139 
L 293.877818 116.305982 
L 296.539636 110.549243 
L 297.338182 109.313843 
L 298.136727 108.489789 
L 298.669091 108.231433 
L 299.201455 108.22022 
L 299.733818 108.504699 
L 300.266182 109.097322 
L 300.532364 109.526254 
L 300.798545 110.816209 
L 302.395636 130.110212 
L 303.726545 148.807031 
L 303.992727 149.435287 
L 307.186909 152.912841 
L 307.453091 152.855756 
L 307.719273 152.615496 
L 307.985455 152.211909 
L 309.316364 148.69944 
L 310.913455 143.805817 
L 311.712 141.003437 
L 312.244364 139.774531 
L 312.776727 138.964341 
L 313.309091 138.492176 
L 313.841455 138.292317 
L 314.373818 138.308066 
L 315.172364 138.626791 
L 316.237091 139.3703 
L 318.100364 140.788412 
L 318.898909 141.189652 
L 319.697455 141.341426 
L 320.229818 141.256637 
L 320.762182 140.998658 
L 321.294545 140.527843 
L 321.826909 139.818227 
L 322.093091 139.359148 
L 322.625455 136.877111 
L 323.157818 134.464078 
L 323.424 133.906078 
L 323.956364 133.604415 
L 324.488727 132.85564 
L 325.021091 131.571826 
L 325.553455 129.697297 
L 326.085818 127.130216 
L 326.884364 121.799842 
L 327.949091 113.020165 
L 328.481455 107.869268 
L 330.610909 125.229127 
L 331.409455 128.882596 
L 332.208 131.283711 
L 333.006545 132.76854 
L 333.805091 133.679584 
L 335.402182 135.21126 
L 335.934545 136.006248 
L 336.466909 137.092537 
L 336.999273 138.550077 
L 337.797818 141.607054 
L 338.596364 145.87039 
L 339.394909 151.487627 
L 340.193455 158.543747 
L 340.725818 162.908752 
L 341.524364 152.856546 
L 342.322909 144.636304 
L 344.452364 128.136484 
L 344.984727 126.055857 
L 345.250909 125.486705 
L 345.517091 125.211943 
L 345.783273 125.197763 
L 346.049455 125.43176 
L 346.581818 126.614307 
L 347.114182 128.629785 
L 347.912727 133.069838 
L 348.711273 138.993261 
L 349.776 148.900054 
L 350.840727 159.215504 
L 352.171636 167.48933 
L 353.236364 165.911989 
L 355.365818 162.285531 
L 358.293818 156.470527 
L 359.358545 155.023324 
L 359.890909 154.447459 
L 360.689455 152.569781 
L 361.488 151.313245 
L 362.020364 150.852646 
L 362.552727 150.710066 
L 363.085091 150.895259 
L 363.617455 151.404054 
L 364.149818 152.244672 
L 364.682182 153.402579 
L 365.480727 151.745569 
L 366.013091 151.026857 
L 366.545455 150.593244 
L 367.077818 150.400279 
L 367.610182 150.368708 
L 367.876364 149.668323 
L 369.207273 144.592061 
L 370.272 141.343931 
L 371.336727 138.795979 
L 372.135273 137.333734 
L 372.933818 136.252771 
L 373.732364 135.545052 
L 374.530909 135.194647 
L 374.797091 135.1564 
L 375.063273 134.730229 
L 375.595636 133.478521 
L 376.128 132.657531 
L 376.660364 132.218457 
L 377.192727 132.148408 
L 377.725091 132.336034 
L 378.257455 132.80984 
L 378.789818 133.578013 
L 379.322182 134.675564 
L 380.120727 136.929283 
L 380.386909 137.841653 
L 380.653091 137.588611 
L 381.451636 132.94747 
L 382.250182 129.884838 
L 382.782545 128.556136 
L 383.581091 127.226121 
L 384.113455 126.423604 
L 384.645818 125.916561 
L 385.444364 125.55943 
L 387.84 124.989962 
L 388.638545 124.324346 
L 389.437091 123.225835 
L 390.235636 121.653006 
L 391.566545 118.694292 
L 392.098909 118.344288 
L 392.365091 118.399379 
L 392.631273 118.613443 
L 393.163636 119.511584 
L 394.228364 119.390749 
L 394.760727 119.690697 
L 395.293091 120.205098 
L 396.091636 121.305555 
L 397.422545 123.625567 
L 399.285818 126.871969 
L 400.084364 127.880694 
L 400.616727 128.331844 
L 401.149091 128.551806 
L 401.681455 128.497275 
L 402.213818 128.125538 
L 402.746182 127.395674 
L 403.278545 126.247034 
L 404.077091 124.005305 
L 404.609455 124.141245 
L 405.141818 124.585135 
L 405.674182 125.326126 
L 406.472727 126.976898 
L 407.271273 129.216498 
L 408.336 133.002732 
L 409.134545 136.040093 
L 409.933091 137.367712 
L 410.997818 139.835569 
L 412.062545 142.966962 
L 413.393455 147.749382 
L 414.990545 154.5277 
L 415.522909 156.874405 
L 416.055273 157.82889 
L 416.587636 158.352996 
L 417.12 158.578152 
L 417.652364 158.508382 
L 418.184727 158.144635 
L 418.717091 157.49067 
L 419.515636 155.971704 
L 420.314182 153.842529 
L 421.112727 151.140104 
L 422.177455 146.736413 
L 423.508364 140.194098 
L 425.904 126.844825 
L 426.436364 123.851464 
L 426.436364 123.851464 
" clip-path="url(#p4d51d1e423)" style="fill: none; stroke: #0000ff; stroke-width: 3; stroke-linecap: square"/>
   </g>
   <g id="patch_3">
    <path d="M 7.2 331.2 
L 7.2 7.2 
" style="fill: none; stroke: #000000; stroke-width: 0.8; stroke-linejoin: miter; stroke-linecap: square"/>
   </g>
   <g id="patch_4">
    <path d="M 446.4 331.2 
L 446.4 7.2 
" style="fill: none; stroke: #000000; stroke-width: 0.8; stroke-linejoin: miter; stroke-linecap: square"/>
   </g>
   <g id="patch_5">
    <path d="M 7.2 331.2 
L 446.4 331.2 
" style="fill: none; stroke: #000000; stroke-width: 0.8; stroke-linejoin: miter; stroke-linecap: square"/>
   </g>
   <g id="patch_6">
    <path d="M 7.2 7.2 
L 446.4 7.2 
" style="fill: none; stroke: #000000; stroke-width: 0.8; stroke-linejoin: miter; stroke-linecap: square"/>
   </g>
  </g>
 </g>
 <defs>
  <clipPath id="p4d51d1e423">
   <rect x="7.2" y="7.2" width="439.2" height="324"/>
  </clipPath>
 </defs>
</svg>
