<?xml version="1.0" encoding="utf-8" standalone="no"?>
<!DOCTYPE svg PUBLIC "-//W3C//DTD SVG 1.1//EN"
  "http://www.w3.org/Graphics/SVG/1.1/DTD/svg11.dtd">
<svg xmlns:xlink="http://www.w3.org/1999/xlink" width="453.6pt" height="338.4pt" viewBox="0 0 453.6 338.4" xmlns="http://www.w3.org/2000/svg" version="1.1">
 <metadata>
  <rdf:RDF xmlns:dc="http://purl.org/dc/elements/1.1/" xmlns:cc="http://creativecommons.org/ns#" xmlns:rdf="http://www.w3.org/1999/02/22-rdf-syntax-ns#">
   <cc:Work>
    <dc:type rdf:resource="http://purl.org/dc/dcmitype/StillImage"/>
    <dc:date>2025-05-14T08:48:59.060047</dc:date>
    <dc:format>image/svg+xml</dc:format>
    <dc:creator>
     <cc:Agent>
      <dc:title>Matplotlib v3.10.1, https://matplotlib.org/</dc:title>
     </cc:Agent>
    </dc:creator>
   </cc:Work>
  </rdf:RDF>
 </metadata>
 <defs>
  <style type="text/css">*{stroke-linejoin: round; stroke-linecap: butt}</style>
 </defs>
 <g id="figure_1">
  <g id="patch_1">
   <path d="M 0 338.4 
L 453.6 338.4 
L 453.6 0 
L 0 0 
z
" style="fill: #ffffff"/>
  </g>
  <g id="axes_1">
   <g id="patch_2">
    <path d="M 7.2 331.2 
L 446.4 331.2 
L 446.4 7.2 
L 7.2 7.2 
z
" style="fill: #ffffff"/>
   </g>
   <g id="matplotlib.axis_1"/>
   <g id="matplotlib.axis_2"/>
   <g id="line2d_1">
    <path d="M 27.163636 21.927273 
L 50.055273 29.874868 
L 73.479273 38.241544 
L 96.637091 46.746097 
L 120.061091 55.584074 
L 142.952727 64.450034 
L 166.642909 73.863642 
L 190.066909 83.409758 
L 213.757091 93.305374 
L 229.728 100.14968 
L 241.44 114.567984 
L 253.418182 129.671617 
L 265.396364 145.13677 
L 277.374545 160.963387 
L 289.618909 177.515476 
L 301.863273 194.44527 
L 314.107636 211.752911 
L 326.618182 229.826979 
L 339.128727 248.295442 
L 350.308364 265.132844 
L 350.574545 265.596359 
L 353.502545 273.068559 
L 356.430545 279.947599 
L 359.358545 286.233537 
L 362.020364 291.433279 
L 364.682182 296.142822 
L 367.077818 299.962292 
L 369.473455 303.384725 
L 371.869091 306.410106 
L 373.998545 308.765954 
L 376.128 310.808114 
L 378.257455 312.536516 
L 380.386909 313.951229 
L 382.250182 314.931739 
L 384.113455 315.672027 
L 385.976727 316.17215 
L 387.84 316.432038 
L 389.703273 316.451775 
L 391.566545 316.231276 
L 393.429818 315.770598 
L 395.293091 315.069727 
L 397.156364 314.128648 
L 399.019636 312.947377 
L 400.882909 311.525912 
L 403.012364 309.607231 
L 405.141818 307.374876 
L 407.271273 304.82875 
L 409.666909 301.589383 
L 412.062545 297.952952 
L 414.458182 293.919427 
L 417.12 288.972081 
L 419.781818 283.534535 
L 422.443636 277.606791 
L 425.371636 270.520083 
L 426.436364 267.796048 
L 426.436364 267.796048 
" clip-path="url(#p7503794aa8)" style="fill: none; stroke-dasharray: 11.1,4.8; stroke-dashoffset: 0; stroke: #000000; stroke-width: 3"/>
   </g>
   <g id="line2d_2">
    <path d="M 27.163636 137.936843 
L 27.962182 138.919477 
L 28.760727 139.515152 
L 29.559273 139.782182 
L 30.357818 139.791296 
L 31.422545 139.513754 
L 34.616727 138.347257 
L 35.415273 138.445772 
L 35.947636 138.711712 
L 36.48 139.187682 
L 37.012364 139.919891 
L 37.544727 140.956703 
L 38.077091 142.353916 
L 38.875636 145.268496 
L 39.408 147.601407 
L 39.940364 148.161075 
L 40.472727 148.360006 
L 41.005091 148.304458 
L 41.537455 147.996837 
L 42.069818 147.440719 
L 42.868364 146.160834 
L 44.199273 143.540709 
L 45.264 141.994745 
L 46.594909 139.622221 
L 48.192 136.2797 
L 51.12 129.788667 
L 51.386182 129.540031 
L 52.450909 132.658686 
L 53.515636 135.10353 
L 54.580364 136.953789 
L 55.645091 138.312732 
L 56.709818 139.276888 
L 57.774545 139.929536 
L 58.839273 140.346016 
L 60.170182 140.609971 
L 60.436364 140.634013 
L 61.767273 141.279868 
L 63.098182 141.670573 
L 64.695273 141.907691 
L 67.357091 142.026279 
L 70.285091 142.021079 
L 71.882182 141.34657 
L 76.939636 138.815399 
L 79.601455 137.298508 
L 80.932364 136.959995 
L 82.263273 136.888877 
L 83.594182 137.053562 
L 84.925091 137.42277 
L 86.522182 138.113158 
L 88.119273 139.090341 
L 89.450182 140.151446 
L 90.781091 141.509354 
L 92.112 143.254054 
L 93.176727 145.022712 
L 93.709091 146.061341 
L 93.975273 145.725987 
L 95.838545 141.344165 
L 97.169455 138.721329 
L 98.500364 136.581926 
L 99.831273 134.906528 
L 101.162182 133.642298 
L 102.493091 132.731062 
L 103.824 132.118446 
L 105.154909 131.765145 
L 106.485818 131.648347 
L 107.816727 131.770736 
L 109.147636 132.165971 
L 109.946182 132.555558 
L 110.212364 132.973128 
L 112.075636 137.414803 
L 113.140364 139.253377 
L 114.205091 140.710387 
L 115.536 142.143104 
L 117.133091 143.473309 
L 118.996364 144.695102 
L 121.658182 146.106377 
L 125.384727 147.760194 
L 127.248 148.442391 
L 130.176 148.957554 
L 132.571636 149.577913 
L 134.434909 150.278113 
L 135.765818 150.97918 
L 136.564364 151.51682 
L 136.830545 151.421352 
L 137.895273 148.78437 
L 138.96 146.65668 
L 140.024727 145.028387 
L 141.089455 143.869493 
L 142.154182 143.119113 
L 143.218909 142.68955 
L 144.816 142.359759 
L 146.146909 142.086355 
L 147.211636 141.664116 
L 148.276364 141.017338 
L 149.607273 139.908765 
L 150.938182 138.505932 
L 152.535273 136.460739 
L 154.132364 133.958978 
L 155.463273 131.592157 
L 155.729455 131.407735 
L 156.261818 131.748987 
L 157.858909 133.173681 
L 159.456 134.927131 
L 160.254545 135.955612 
L 162.916364 142.25993 
L 164.247273 144.820063 
L 165.312 146.397198 
L 166.110545 147.262838 
L 166.909091 147.840034 
L 167.707636 148.125599 
L 168.506182 148.120232 
L 169.304727 147.846604 
L 169.837091 147.521286 
L 170.103273 147.154958 
L 170.901818 144.681991 
L 171.700364 142.864271 
L 172.498909 141.582933 
L 173.297455 140.701525 
L 174.096 140.132884 
L 175.160727 139.720569 
L 176.225455 139.549174 
L 177.556364 139.527732 
L 178.621091 139.748608 
L 179.685818 140.17627 
L 181.016727 140.950133 
L 182.613818 142.137765 
L 185.009455 144.224276 
L 188.736 147.486538 
L 190.599273 148.818839 
L 192.196364 149.660605 
L 193.527273 150.092825 
L 198.318545 150.0784 
L 199.649455 149.703321 
L 200.980364 149.097331 
L 202.311273 148.240692 
L 203.908364 146.900172 
L 206.037818 144.759707 
L 208.433455 142.393473 
L 209.764364 141.401614 
L 210.296727 141.170338 
L 215.088 140.80292 
L 216.951273 140.812928 
L 218.282182 141.001711 
L 219.346909 141.367424 
L 220.145455 141.830087 
L 220.944 142.528023 
L 221.742545 143.54043 
L 222.274909 144.446494 
L 224.138182 143.956211 
L 225.202909 144.016287 
L 226.267636 144.348231 
L 228.130909 145.083487 
L 230.260364 145.755312 
L 231.591273 145.927434 
L 232.656 145.832469 
L 233.720727 145.47545 
L 234.785455 144.811984 
L 235.584 144.096184 
L 235.850182 143.759684 
L 237.713455 139.531757 
L 238.512 138.458352 
L 239.310545 137.762373 
L 240.109091 137.367782 
L 240.907636 137.204578 
L 241.972364 137.250397 
L 243.303273 137.5569 
L 243.835636 137.879646 
L 246.763636 140.041274 
L 247.828364 140.446823 
L 248.626909 140.54587 
L 249.425455 140.45001 
L 250.224 140.139034 
L 251.022545 139.57917 
L 251.821091 138.724711 
L 252.619636 137.718371 
L 254.482909 136.761512 
L 256.346182 135.53164 
L 260.072727 132.895748 
L 260.871273 132.675906 
L 261.669818 132.675263 
L 262.468364 132.918559 
L 263.266909 133.425671 
L 264.331636 134.474784 
L 265.662545 136.105146 
L 270.72 142.822869 
L 272.050909 144.064035 
L 273.115636 144.804408 
L 274.180364 145.313896 
L 275.245091 145.602089 
L 276.576 145.689589 
L 277.640727 145.542348 
L 277.906909 145.4745 
L 278.173091 145.269698 
L 279.504 142.501521 
L 280.834909 140.303943 
L 282.165818 138.572019 
L 283.496727 137.248356 
L 284.561455 136.474996 
L 285.626182 135.963719 
L 286.690909 135.748602 
L 287.489455 135.810299 
L 288.288 136.096619 
L 289.086545 136.642841 
L 289.885091 137.488885 
L 290.683636 138.690019 
L 291.482182 140.299526 
L 292.280727 142.383885 
L 293.079273 145.014157 
L 293.611636 146.737499 
L 294.942545 150.323737 
L 295.474909 150.547324 
L 296.007273 150.589789 
L 296.539636 150.443051 
L 297.072 150.125896 
L 297.870545 149.333722 
L 298.669091 148.209326 
L 299.733818 146.294909 
L 301.597091 142.334963 
L 303.194182 139.123971 
L 303.992727 137.881799 
L 304.791273 137.038858 
L 305.323636 136.760617 
L 305.856 136.750358 
L 306.388364 137.042855 
L 306.654545 137.3138 
L 309.316364 138.102116 
L 310.647273 138.901865 
L 312.510545 140.300057 
L 314.64 142.189958 
L 316.769455 144.350607 
L 318.898909 146.835064 
L 320.229818 148.463553 
L 321.028364 148.284023 
L 322.093091 148.1275 
L 323.424 148.181678 
L 324.754909 148.462267 
L 327.949091 149.260423 
L 329.28 149.287764 
L 330.610909 149.117207 
L 332.208 148.678558 
L 333.805091 148.021689 
L 335.668364 147.004726 
L 335.934545 146.788378 
L 337.265455 144.925874 
L 338.596364 143.4912 
L 339.927273 142.415922 
L 341.258182 141.67759 
L 342.322909 141.337903 
L 343.387636 141.250962 
L 343.92 141.493559 
L 344.452364 141.987924 
L 345.250909 143.047743 
L 348.445091 147.805565 
L 349.243636 148.507108 
L 349.776 148.773048 
L 350.042182 148.839498 
L 350.308364 148.654656 
L 351.905455 142.341979 
L 352.704 140.41638 
L 353.502545 139.210745 
L 354.034909 138.742994 
L 354.567273 138.504926 
L 355.099636 138.467018 
L 355.898182 138.706512 
L 356.696727 139.205881 
L 359.358545 141.125722 
L 359.890909 141.216661 
L 360.689455 141.041911 
L 361.488 140.57335 
L 362.286545 139.841895 
L 362.818909 140.048598 
L 364.149818 140.653861 
L 365.746909 141.129132 
L 367.876364 141.522941 
L 370.804364 141.833442 
L 375.861818 142.111012 
L 376.926545 142.265046 
L 378.523636 142.873273 
L 379.854545 143.632459 
L 380.919273 144.526363 
L 381.717818 145.43416 
L 382.516364 146.601384 
L 383.581091 148.646857 
L 384.645818 151.353476 
L 384.912 152.003664 
L 385.178182 151.982977 
L 387.041455 150.206156 
L 388.904727 148.090935 
L 391.034182 145.30618 
L 393.163636 142.3819 
L 394.494545 139.041363 
L 395.825455 135.125782 
L 396.890182 131.780521 
L 397.422545 131.722038 
L 397.954909 131.952587 
L 398.487273 132.415976 
L 399.285818 133.430004 
L 400.882909 136.003388 
L 402.213818 138.018193 
L 403.012364 138.923363 
L 403.810909 139.486302 
L 404.343273 139.632788 
L 404.875636 139.585684 
L 405.408 139.319436 
L 405.940364 138.839413 
L 406.738909 137.68639 
L 407.537455 136.029834 
L 408.336 133.88361 
L 409.400727 130.311042 
L 409.666909 130.1969 
L 411.796364 136.543851 
L 412.594909 138.056632 
L 413.393455 139.121679 
L 414.192 139.793644 
L 414.990545 140.133079 
L 415.789091 140.200843 
L 416.587636 140.066573 
L 417.918545 139.553702 
L 421.645091 137.883504 
L 423.242182 137.529979 
L 425.105455 137.414355 
L 426.436364 137.427998 
L 426.436364 137.427998 
" clip-path="url(#p7503794aa8)" style="fill: none; stroke-dasharray: 3,4.95; stroke-dashoffset: 0; stroke: #ff0000; stroke-width: 3"/>
   </g>
   <g id="line2d_3">
    <path d="M 27.163636 104.672229 
L 27.962182 118.902338 
L 28.494545 125.30956 
L 29.026909 129.550123 
L 29.559273 131.844203 
L 29.825455 132.346703 
L 30.091636 132.458133 
L 30.357818 132.208994 
L 30.624 131.628108 
L 31.156364 129.591832 
L 31.688727 126.551062 
L 32.487273 120.590288 
L 33.818182 108.535841 
L 36.213818 85.219371 
L 37.012364 75.030307 
L 38.077091 64.643961 
L 39.408 52.25293 
L 40.206545 41.208597 
L 40.472727 47.403357 
L 41.271273 77.677436 
L 42.069818 98.139347 
L 42.602182 106.499733 
L 43.134545 110.756734 
L 43.400727 111.452964 
L 43.666909 111.224624 
L 44.199273 109.275402 
L 44.731636 105.930001 
L 45.264 101.057561 
L 46.062545 91.008079 
L 46.328727 87.399281 
L 46.861091 88.826071 
L 47.127273 89.144149 
L 47.393455 89.226897 
L 47.659636 89.095953 
L 48.192 88.27999 
L 48.724364 86.894909 
L 50.055273 82.320474 
L 50.853818 79.935175 
L 51.12 79.364688 
L 51.386182 79.076887 
L 51.652364 79.38585 
L 52.184727 80.623075 
L 52.717091 82.972088 
L 53.515636 90.759107 
L 56.443636 119.584311 
L 57.774545 130.856565 
L 58.839273 138.326738 
L 59.637818 142.766343 
L 60.436364 146.01692 
L 61.501091 148.058646 
L 62.299636 149.23216 
L 63.098182 149.977285 
L 63.630545 150.161651 
L 64.162909 150.067916 
L 64.695273 149.62404 
L 65.227636 148.823088 
L 65.76 147.624386 
L 66.292364 146.001209 
L 67.090909 142.677613 
L 67.889455 138.286733 
L 68.155636 136.582401 
L 68.421818 135.616428 
L 68.688 136.100086 
L 70.551273 144.872871 
L 72.148364 151.230192 
L 73.745455 156.630431 
L 75.076364 160.396282 
L 76.407273 163.472976 
L 76.939636 164.499109 
L 77.205818 165.803762 
L 78.802909 178.057839 
L 79.069091 179.282931 
L 79.335273 178.437754 
L 80.133818 174.430563 
L 80.932364 171.583412 
L 81.464727 170.302102 
L 81.997091 169.481805 
L 82.529455 169.06292 
L 83.061818 168.973631 
L 83.594182 169.135213 
L 84.392727 169.660664 
L 84.658909 169.863006 
L 84.925091 170.261147 
L 85.723636 174.070581 
L 86.256 175.718331 
L 86.788364 176.610669 
L 87.054545 176.754304 
L 87.320727 176.706333 
L 87.586909 176.46326 
L 88.119273 175.35396 
L 88.651636 173.458356 
L 89.184 170.785256 
L 89.982545 165.390608 
L 91.047273 155.973897 
L 91.845818 147.627321 
L 92.112 148.616022 
L 92.910545 153.314719 
L 93.975273 158.294955 
L 94.507636 159.567906 
L 94.773818 159.691973 
L 95.04 159.539056 
L 95.306182 159.106641 
L 95.838545 157.526096 
L 96.370909 155.13037 
L 97.169455 150.298465 
L 98.234182 142.150485 
L 99.565091 130.103529 
L 101.428364 111.156944 
L 103.557818 89.461219 
L 107.018182 54.638173 
L 108.615273 37.025594 
L 108.881455 37.343252 
L 110.212364 49.628807 
L 112.341818 72.5494 
L 114.205091 92.072203 
L 115.269818 101.364903 
L 116.334545 108.605785 
L 117.133091 112.441385 
L 117.665455 114.190167 
L 118.197818 115.293792 
L 118.464 115.590707 
L 118.730182 115.717093 
L 118.996364 115.687936 
L 119.262545 115.506533 
L 119.794909 114.667869 
L 120.061091 116.78885 
L 120.859636 125.981022 
L 121.392 130.300923 
L 121.924364 133.38877 
L 122.456727 135.44372 
L 122.989091 136.630736 
L 123.255273 136.963154 
L 123.787636 137.164182 
L 124.32 136.842023 
L 125.118545 135.731381 
L 126.183273 133.68658 
L 126.981818 132.141398 
L 127.780364 118.476464 
L 128.578909 100.402621 
L 128.845091 93.729346 
L 129.377455 92.968986 
L 129.909818 92.689823 
L 130.442182 92.75398 
L 130.974545 93.07818 
L 131.773091 93.815673 
L 134.168727 96.312318 
L 134.967273 96.863768 
L 135.765818 97.184556 
L 136.564364 97.27804 
L 136.830545 97.147935 
L 138.161455 95.100142 
L 140.290909 91.298927 
L 142.154182 88.108567 
L 143.218909 86.720103 
L 143.485091 86.455952 
L 143.751273 86.406583 
L 144.283636 86.55648 
L 144.816 86.442701 
L 145.614545 85.884375 
L 147.211636 84.394126 
L 147.744 84.250602 
L 148.010182 84.302544 
L 148.276364 84.511371 
L 148.542545 84.871661 
L 149.074909 86.167955 
L 149.607273 88.430614 
L 150.139636 90.622461 
L 150.405818 91.427326 
L 150.938182 94.456524 
L 152.269091 104.258768 
L 153.6 115.791287 
L 155.197091 131.719438 
L 156.794182 150.187202 
L 158.657455 171.275706 
L 159.722182 181.349119 
L 160.786909 189.288635 
L 161.319273 192.009735 
L 161.851636 193.788457 
L 162.384 194.713894 
L 162.650182 194.897478 
L 162.916364 194.925685 
L 163.448727 194.55698 
L 163.981091 193.762738 
L 164.513455 186.97644 
L 166.376727 162.406643 
L 167.175273 154.632651 
L 167.707636 151.039983 
L 168.772364 145.885165 
L 169.570909 142.949256 
L 170.635636 139.974516 
L 171.168 139.064594 
L 171.700364 138.671652 
L 172.232727 138.747048 
L 172.765091 139.217678 
L 173.297455 140.007867 
L 174.628364 142.682337 
L 175.426909 144.048884 
L 175.959273 144.49058 
L 176.225455 144.4877 
L 176.491636 144.295535 
L 176.757818 143.879026 
L 177.024 144.106276 
L 177.556364 147.197227 
L 177.822545 148.034269 
L 178.088727 148.268592 
L 178.354909 147.859659 
L 178.621091 146.772807 
L 178.887273 144.994672 
L 179.153455 144.678161 
L 179.952 155.868645 
L 180.484364 160.465165 
L 181.016727 163.105613 
L 181.282909 163.782694 
L 181.549091 164.064262 
L 181.815273 163.990208 
L 182.081455 163.605093 
L 182.613818 161.985774 
L 183.146182 159.467714 
L 183.944727 154.525805 
L 186.606545 136.55917 
L 187.405091 133.000637 
L 187.937455 131.552712 
L 188.203636 131.147498 
L 188.469818 130.97244 
L 188.736 131.040149 
L 189.002182 131.363565 
L 189.268364 131.953313 
L 189.800727 133.984361 
L 190.333091 137.254199 
L 190.865455 141.81418 
L 191.664 151.27425 
L 192.728727 148.710092 
L 193.261091 148.121406 
L 193.527273 148.016294 
L 194.325818 145.073535 
L 196.721455 138.303535 
L 198.318545 134.310433 
L 199.117091 132.766146 
L 199.915636 131.72981 
L 200.448 131.400606 
L 200.980364 131.412459 
L 201.512727 131.804283 
L 202.045091 132.60571 
L 202.577455 133.836756 
L 203.376 136.48903 
L 204.174545 140.090894 
L 205.505455 146.854269 
L 206.037818 137.357466 
L 206.836364 121.145763 
L 207.102545 119.665522 
L 207.634909 118.672376 
L 208.167273 118.075332 
L 208.699636 117.794072 
L 209.232 117.770394 
L 209.764364 117.938685 
L 210.030545 118.079944 
L 210.296727 118.365733 
L 211.095273 119.944797 
L 211.893818 122.091272 
L 212.692364 124.811142 
L 213.757091 129.344147 
L 214.821818 134.918045 
L 216.152727 143.347761 
L 217.483636 153.388745 
L 218.814545 165.026684 
L 219.613091 172.761874 
L 220.145455 163.787223 
L 221.210182 145.675919 
L 222.008727 134.920505 
L 223.073455 123.642017 
L 223.872 117.67733 
L 224.404364 114.956509 
L 224.936727 113.182093 
L 225.469091 112.387208 
L 225.735273 112.323469 
L 226.001455 112.493019 
L 226.267636 112.893341 
L 227.066182 114.465416 
L 227.598545 115.063747 
L 228.130909 116.048785 
L 228.929455 118.216982 
L 229.728 121.188535 
L 230.526545 124.971103 
L 231.591273 131.327894 
L 232.389818 136.082781 
L 233.188364 141.561575 
L 234.253091 151.306315 
L 235.317818 161.3719 
L 235.584 161.157398 
L 236.648727 153.130353 
L 237.713455 146.930056 
L 239.310545 139.278453 
L 240.907636 131.514609 
L 242.238545 124.0117 
L 244.101818 112.116711 
L 245.432727 102.810955 
L 245.698909 103.523484 
L 250.756364 164.402802 
L 251.821091 174.138373 
L 252.885818 182.005513 
L 253.418182 185.301545 
L 254.482909 181.849298 
L 255.281455 179.867396 
L 256.346182 177.892678 
L 257.410909 176.45219 
L 258.741818 175.079549 
L 260.072727 173.870979 
L 263.000727 166.088712 
L 263.533091 164.142984 
L 265.130182 158.226101 
L 266.461091 154.190899 
L 267.792 150.921676 
L 268.856727 148.870584 
L 269.655273 147.691535 
L 270.453818 146.874369 
L 270.986182 146.555006 
L 271.518545 146.46457 
L 272.050909 146.616564 
L 272.583273 147.051187 
L 273.115636 147.818537 
L 273.648 148.961719 
L 274.180364 150.529964 
L 274.978909 153.799187 
L 275.777455 158.365878 
L 277.108364 167.523022 
L 277.374545 168.154005 
L 277.640727 166.872443 
L 280.036364 150.578998 
L 283.496727 128.523655 
L 283.762909 129.381104 
L 285.36 147.887559 
L 286.424727 157.568197 
L 287.489455 165.375512 
L 288.554182 171.380875 
L 289.352727 174.759068 
L 290.151273 177.272123 
L 290.949818 179.068261 
L 292.546909 182.082083 
L 293.079273 183.719629 
L 293.611636 185.68132 
L 297.338182 197.97146 
L 298.402909 202.353393 
L 299.467636 207.752989 
L 300.532364 214.562043 
L 301.064727 218.588523 
L 301.330909 218.282802 
L 301.597091 218.250262 
L 301.863273 216.559851 
L 302.928 192.518944 
L 303.992727 173.069776 
L 304.791273 161.738424 
L 305.589818 153.334176 
L 306.122182 149.371266 
L 306.654545 146.711808 
L 307.186909 145.082313 
L 307.453091 144.713105 
L 307.719273 144.611263 
L 307.985455 144.781484 
L 308.251636 145.252645 
L 308.784 146.955216 
L 309.316364 149.705222 
L 310.114909 154.653729 
L 310.381091 155.119383 
L 310.913455 156.769342 
L 311.445818 159.416332 
L 311.978182 163.136923 
L 312.776727 170.910189 
L 313.575273 181.47872 
L 314.373818 195.012039 
L 315.704727 223.116244 
L 315.970909 223.460753 
L 317.035636 216.816566 
L 317.301818 215.168956 
L 318.366545 204.108548 
L 320.229818 185.11606 
L 321.294545 176.12595 
L 321.826909 172.832546 
L 322.359273 170.587024 
L 322.625455 169.930881 
L 322.891636 169.602377 
L 323.157818 169.616019 
L 323.424 170.025874 
L 323.690182 170.841614 
L 324.222545 173.749177 
L 324.754909 178.566712 
L 325.287273 185.443698 
L 326.085818 200.012962 
L 326.352 206.080051 
L 326.618182 209.304349 
L 326.884364 209.786273 
L 327.150545 209.719711 
L 327.416727 209.182128 
L 327.949091 206.703541 
L 328.481455 202.573598 
L 329.28 193.732937 
L 330.078545 182.327252 
L 331.143273 164.121067 
L 331.409455 163.531263 
L 331.941818 167.878476 
L 332.474182 170.608941 
L 333.006545 172.043279 
L 333.272727 172.36541 
L 333.538909 172.46686 
L 333.805091 172.376005 
L 334.337455 171.73904 
L 335.136 170.018158 
L 336.733091 166.080465 
L 337.265455 165.310236 
L 337.531636 165.135906 
L 337.797818 162.314949 
L 338.596364 150.919607 
L 339.394909 142.696622 
L 340.193455 137.00369 
L 340.992 133.18436 
L 341.790545 130.545225 
L 343.92 124.869038 
L 344.452364 123.408953 
L 344.984727 121.401276 
L 345.517091 118.754118 
L 346.315636 113.40199 
L 347.114182 106.288054 
L 347.912727 97.412114 
L 348.977455 82.828536 
L 349.776 71.58804 
L 350.574545 63.00429 
L 350.840727 60.957978 
L 351.373091 59.277604 
L 351.905455 58.493537 
L 352.171636 58.404555 
L 352.437818 58.480147 
L 352.704 58.711366 
L 353.236364 59.677647 
L 353.768727 61.140556 
L 354.567273 64.176154 
L 355.632 69.387806 
L 357.229091 78.754924 
L 359.890909 95.262172 
L 362.286545 118.531257 
L 363.883636 133.671036 
L 364.682182 139.582329 
L 365.214545 142.517735 
L 365.746909 144.475036 
L 366.013091 145.017959 
L 366.279273 145.247054 
L 366.545455 145.149015 
L 366.811636 144.704159 
L 367.077818 143.884897 
L 367.610182 140.980269 
L 368.142545 136.383638 
L 368.941091 126.580695 
L 369.739636 116.113054 
L 370.272 111.699895 
L 370.804364 109.349009 
L 371.070545 108.834824 
L 371.336727 108.748609 
L 371.602909 109.062074 
L 371.869091 109.719195 
L 372.401455 111.977604 
L 373.2 117.291628 
L 374.264727 126.774062 
L 376.660364 151.342909 
L 377.725091 169.932279 
L 378.257455 176.529738 
L 378.789818 180.658228 
L 379.056 181.665854 
L 379.322182 181.908507 
L 379.588364 181.34308 
L 379.854545 179.924788 
L 380.653091 173.859825 
L 380.919273 173.566572 
L 381.185455 173.622874 
L 381.451636 174.012769 
L 381.984 175.635919 
L 382.516364 178.269043 
L 383.314909 183.696454 
L 384.379636 192.864809 
L 385.710545 204.570876 
L 387.041455 214.760191 
L 387.307636 216.51926 
L 387.573818 216.962214 
L 388.638545 211.637399 
L 389.969455 205.995038 
L 391.034182 202.139394 
L 392.098909 199.074051 
L 392.365091 198.469346 
L 392.631273 195.708801 
L 393.429818 182.424397 
L 394.228364 169.163392 
L 395.026909 160.021596 
L 395.559273 155.753021 
L 396.091636 152.725865 
L 396.624 150.732138 
L 396.890182 150.149826 
L 397.156364 149.981478 
L 397.422545 150.044546 
L 397.688727 150.293685 
L 398.221091 151.287389 
L 398.753455 152.811465 
L 399.552 155.816564 
L 401.149091 163.032873 
L 402.48 168.772771 
L 403.278545 171.567114 
L 404.077091 173.595562 
L 404.609455 174.411581 
L 405.141818 174.754679 
L 405.408 174.702766 
L 405.674182 174.512389 
L 406.206545 173.67599 
L 406.738909 172.117557 
L 407.271273 169.835078 
L 407.803636 166.660037 
L 408.602182 160.158689 
L 409.400727 151.196925 
L 409.933091 143.543673 
L 410.465455 130.970232 
L 410.731636 132.088143 
L 411.796364 157.663106 
L 412.861091 178.359339 
L 413.393455 184.606488 
L 414.192 190.853302 
L 414.990545 195.332157 
L 415.789091 198.265858 
L 416.321455 199.458801 
L 416.853818 200.104517 
L 417.386182 200.250584 
L 417.652364 200.147456 
L 418.184727 199.579513 
L 418.717091 198.572837 
L 419.249455 197.145152 
L 420.048 194.16812 
L 420.846545 190.156708 
L 421.645091 184.987633 
L 422.443636 178.413461 
L 423.242182 170.131098 
L 424.040727 159.689233 
L 424.839273 146.482629 
L 425.637818 129.763143 
L 426.436364 108.51138 
L 426.436364 108.51138 
" clip-path="url(#p7503794aa8)" style="fill: none; stroke: #ff0000; stroke-width: 3; stroke-linecap: square"/>
   </g>
   <g id="patch_3">
    <path d="M 7.2 331.2 
L 7.2 7.2 
" style="fill: none; stroke: #000000; stroke-width: 0.8; stroke-linejoin: miter; stroke-linecap: square"/>
   </g>
   <g id="patch_4">
    <path d="M 446.4 331.2 
L 446.4 7.2 
" style="fill: none; stroke: #000000; stroke-width: 0.8; stroke-linejoin: miter; stroke-linecap: square"/>
   </g>
   <g id="patch_5">
    <path d="M 7.2 331.2 
L 446.4 331.2 
" style="fill: none; stroke: #000000; stroke-width: 0.8; stroke-linejoin: miter; stroke-linecap: square"/>
   </g>
   <g id="patch_6">
    <path d="M 7.2 7.2 
L 446.4 7.2 
" style="fill: none; stroke: #000000; stroke-width: 0.8; stroke-linejoin: miter; stroke-linecap: square"/>
   </g>
  </g>
 </g>
 <defs>
  <clipPath id="p7503794aa8">
   <rect x="7.2" y="7.2" width="439.2" height="324"/>
  </clipPath>
 </defs>
</svg>
