<?xml version="1.0" encoding="utf-8" standalone="no"?>
<!DOCTYPE svg PUBLIC "-//W3C//DTD SVG 1.1//EN"
  "http://www.w3.org/Graphics/SVG/1.1/DTD/svg11.dtd">
<svg xmlns:xlink="http://www.w3.org/1999/xlink" width="453.6pt" height="338.4pt" viewBox="0 0 453.6 338.4" xmlns="http://www.w3.org/2000/svg" version="1.1">
 <metadata>
  <rdf:RDF xmlns:dc="http://purl.org/dc/elements/1.1/" xmlns:cc="http://creativecommons.org/ns#" xmlns:rdf="http://www.w3.org/1999/02/22-rdf-syntax-ns#">
   <cc:Work>
    <dc:type rdf:resource="http://purl.org/dc/dcmitype/StillImage"/>
    <dc:date>2025-05-14T00:08:21.861057</dc:date>
    <dc:format>image/svg+xml</dc:format>
    <dc:creator>
     <cc:Agent>
      <dc:title>Matplotlib v3.10.1, https://matplotlib.org/</dc:title>
     </cc:Agent>
    </dc:creator>
   </cc:Work>
  </rdf:RDF>
 </metadata>
 <defs>
  <style type="text/css">*{stroke-linejoin: round; stroke-linecap: butt}</style>
 </defs>
 <g id="figure_1">
  <g id="patch_1">
   <path d="M 0 338.4 
L 453.6 338.4 
L 453.6 0 
L 0 0 
z
" style="fill: #ffffff"/>
  </g>
  <g id="axes_1">
   <g id="patch_2">
    <path d="M 7.2 331.2 
L 446.4 331.2 
L 446.4 7.2 
L 7.2 7.2 
z
" style="fill: #ffffff"/>
   </g>
   <g id="matplotlib.axis_1"/>
   <g id="matplotlib.axis_2"/>
   <g id="line2d_1">
    <path d="M 27.163636 212.976227 
L 29.825455 215.482615 
L 32.487273 217.698611 
L 35.415273 219.834425 
L 38.343273 221.690337 
L 41.537455 223.439793 
L 44.997818 225.065795 
L 48.990545 226.672797 
L 54.048 228.43666 
L 66.558545 232.67329 
L 70.551273 234.34056 
L 74.011636 236.036882 
L 77.205818 237.86607 
L 80.133818 239.807672 
L 82.795636 241.825039 
L 85.457455 244.111781 
L 88.119273 246.695986 
L 90.781091 249.605805 
L 93.442909 252.869337 
L 96.104727 256.514734 
L 98.766545 260.570095 
L 101.428364 265.063596 
L 104.090182 270.0233 
L 106.752 275.47737 
L 109.413818 281.453944 
L 112.075636 287.981096 
L 114.737455 295.087022 
L 117.399273 302.799802 
L 120.061091 311.147581 
L 121.658182 316.472727 
L 122.190545 309.100731 
L 124.32 277.867038 
L 126.449455 249.789577 
L 128.578909 224.847201 
L 130.442182 205.578014 
L 132.305455 188.679007 
L 133.902545 176.069726 
L 135.499636 165.18264 
L 136.830545 157.41911 
L 138.161455 150.840175 
L 139.492364 145.440679 
L 140.557091 141.966801 
L 141.621818 139.241856 
L 142.420364 137.688064 
L 143.218909 136.55291 
L 144.017455 135.835344 
L 144.549818 135.588386 
L 145.082182 135.526203 
L 145.614545 135.648467 
L 146.146909 135.954805 
L 146.945455 136.758788 
L 147.744 137.975176 
L 148.542545 139.602842 
L 149.607273 142.410899 
L 150.672 145.945459 
L 151.736727 150.203994 
L 153.067636 156.541128 
L 153.6 159.093915 
L 155.197091 161.93036 
L 157.060364 165.705194 
L 159.189818 170.547339 
L 161.585455 176.542012 
L 164.779636 185.186065 
L 171.168 203.375198 
L 175.160727 214.331602 
L 177.822545 221.040412 
L 180.218182 226.471826 
L 182.081455 230.199258 
L 183.944727 233.414713 
L 185.541818 235.709842 
L 186.872727 237.263484 
L 188.203636 238.463425 
L 189.268364 239.151451 
L 190.333091 239.583496 
L 191.397818 239.746428 
L 192.462545 239.627067 
L 193.527273 239.212296 
L 194.592 238.488959 
L 195.656727 237.443877 
L 196.721455 236.063918 
L 197.786182 234.335941 
L 199.117091 231.666509 
L 200.448 228.407032 
L 201.778909 224.531839 
L 203.109818 220.015206 
L 204.706909 213.712493 
L 206.304 206.404702 
L 207.901091 198.047536 
L 209.498182 188.596646 
L 211.361455 176.128868 
L 213.224727 162.04151 
L 213.757091 158.62173 
L 215.088 162.601915 
L 216.418909 165.81011 
L 217.483636 167.84818 
L 218.548364 169.439197 
L 219.613091 170.604016 
L 220.411636 171.210507 
L 221.210182 171.597804 
L 222.008727 171.774767 
L 222.807273 171.750209 
L 223.605818 171.532867 
L 224.670545 170.958568 
L 225.735273 170.078133 
L 226.8 168.912538 
L 228.130909 167.086304 
L 229.461818 164.887918 
L 231.058909 161.815981 
L 232.922182 157.723094 
L 235.051636 152.511326 
L 237.979636 144.710321 
L 246.231273 122.312934 
L 248.360727 117.28271 
L 250.224 113.396276 
L 251.821091 110.53685 
L 253.152 108.540437 
L 254.482909 106.938905 
L 255.547636 105.969349 
L 256.612364 105.299522 
L 257.410909 105.006403 
L 258.209455 104.902463 
L 259.008 104.996489 
L 259.806545 105.297294 
L 260.605091 105.81369 
L 261.403636 106.554487 
L 262.468364 107.906458 
L 263.533091 109.694015 
L 264.597818 111.937912 
L 265.662545 114.659052 
L 266.993455 118.763529 
L 268.324364 123.687184 
L 269.655273 129.470798 
L 270.986182 136.1552 
L 272.583273 145.423156 
L 274.180364 156.117182 
L 274.712727 159.767222 
L 276.043636 157.620907 
L 277.374545 155.953061 
L 278.439273 154.945529 
L 279.504 154.214044 
L 280.568727 153.745012 
L 281.633455 153.525116 
L 282.698182 153.540787 
L 283.762909 153.778733 
L 284.827636 154.225509 
L 286.158545 155.056979 
L 287.489455 156.167424 
L 289.086545 157.83134 
L 290.683636 159.81381 
L 292.546909 162.468835 
L 294.942545 166.313187 
L 297.870545 171.461796 
L 306.388364 186.751073 
L 308.784 190.463385 
L 310.647273 192.984204 
L 312.244364 194.829564 
L 313.841455 196.336056 
L 315.172364 197.299866 
L 316.503273 197.970594 
L 317.568 198.278509 
L 318.632727 198.368643 
L 319.697455 198.22754 
L 320.762182 197.841733 
L 321.826909 197.197829 
L 322.891636 196.282434 
L 323.956364 195.081992 
L 324.222545 194.735776 
L 324.488727 195.605247 
L 326.352 206.978976 
L 328.215273 217.047034 
L 330.078545 225.876111 
L 331.941818 233.533323 
L 333.538909 239.214636 
L 335.136 244.126288 
L 336.733091 248.31046 
L 338.330182 251.809272 
L 339.661091 254.23186 
L 340.992 256.232166 
L 342.322909 257.834674 
L 343.653818 259.063691 
L 344.984727 259.943702 
L 346.049455 260.412746 
L 347.114182 260.686527 
L 348.445091 260.773169 
L 349.776 260.598608 
L 351.106909 260.187229 
L 352.437818 259.563414 
L 354.034909 258.568838 
L 355.898182 257.122552 
L 358.027636 255.174542 
L 360.955636 252.158943 
L 367.876364 244.887576 
L 370.005818 243.007845 
L 371.869091 241.641179 
L 373.466182 240.729627 
L 374.797091 240.185469 
L 376.128 239.863185 
L 377.458909 239.78722 
L 378.523636 239.920161 
L 379.588364 240.238841 
L 380.653091 240.755749 
L 381.717818 241.483367 
L 382.782545 242.43421 
L 384.113455 243.955671 
L 385.444364 245.869849 
L 386.775273 248.201088 
L 388.106182 250.973822 
L 389.437091 254.212446 
L 391.034182 258.748129 
L 392.631273 264.031982 
L 394.228364 270.106174 
L 395.293091 274.615522 
L 395.559273 274.39102 
L 397.422545 249.493078 
L 399.285818 227.856478 
L 401.149091 209.064847 
L 403.012364 192.702538 
L 404.875636 178.353865 
L 406.738909 165.60258 
L 409.134545 150.886388 
L 412.861091 129.794935 
L 416.055273 111.254667 
L 418.184727 97.558072 
L 420.048 84.123781 
L 421.911273 68.90083 
L 423.508364 54.113467 
L 425.105455 37.444444 
L 426.436364 21.927273 
L 426.436364 21.927273 
" clip-path="url(#p0da37d8080)" style="fill: none; stroke-dasharray: 11.1,4.8; stroke-dashoffset: 0; stroke: #000000; stroke-width: 3"/>
   </g>
   <g id="line2d_2">
    <path d="M 27.163636 201.491987 
L 30.357818 201.74738 
L 33.285818 201.748444 
L 37.544727 201.468718 
L 41.005091 201.321432 
L 43.134545 201.442758 
L 46.594909 201.540865 
L 53.249455 201.686311 
L 56.177455 201.891412 
L 58.040727 201.755404 
L 60.436364 201.829616 
L 66.026182 202.116327 
L 73.213091 202.515352 
L 86.256 202.421839 
L 93.176727 202.104624 
L 99.831273 202.045407 
L 103.824 202.170838 
L 106.485818 202.257693 
L 108.615273 202.009809 
L 111.277091 201.943307 
L 121.125818 201.831444 
L 122.989091 201.554358 
L 124.053818 201.369634 
L 135.765818 201.475765 
L 139.226182 201.500999 
L 144.549818 201.763727 
L 147.211636 202.166708 
L 150.405818 202.764738 
L 152.535273 202.421939 
L 155.463273 202.184657 
L 160.254545 202.053781 
L 166.376727 201.84386 
L 168.506182 201.699979 
L 171.434182 202.082056 
L 174.894545 202.290474 
L 180.218182 202.360606 
L 190.599273 202.17 
L 199.915636 202.190502 
L 202.843636 202.195909 
L 206.836364 201.907621 
L 213.490909 201.705537 
L 218.814545 201.715175 
L 222.274909 201.922804 
L 226.267636 202.205472 
L 231.591273 202.199201 
L 246.497455 201.954046 
L 248.626909 201.806235 
L 251.554909 201.857867 
L 257.144727 201.998281 
L 262.202182 201.859194 
L 264.331636 201.570179 
L 265.396364 201.416385 
L 268.324364 202.063018 
L 270.72 202.374487 
L 273.115636 202.460553 
L 275.777455 202.330754 
L 277.906909 202.24241 
L 282.964364 202.099229 
L 286.158545 201.801841 
L 288.554182 201.497607 
L 291.748364 202.035281 
L 293.877818 202.165756 
L 296.805818 202.085561 
L 302.129455 201.802279 
L 305.057455 202.248931 
L 308.251636 202.498542 
L 312.244364 202.575884 
L 316.503273 202.467312 
L 321.294545 201.882938 
L 324.754909 201.662316 
L 328.747636 201.685134 
L 333.538909 201.851045 
L 336.466909 202.170625 
L 338.862545 202.459852 
L 341.524364 202.425419 
L 346.049455 202.062092 
L 350.042182 201.781864 
L 351.905455 201.863312 
L 354.833455 202.09968 
L 360.423273 202.298097 
L 363.617455 202.352082 
L 365.214545 202.103084 
L 367.344 202.035856 
L 374.530909 202.080554 
L 376.394182 201.953408 
L 392.098909 201.792241 
L 399.019636 202.240995 
L 403.810909 202.059638 
L 409.933091 202.10883 
L 414.192 202.202531 
L 416.853818 202.272287 
L 426.436364 202.237378 
L 426.436364 202.237378 
" clip-path="url(#p0da37d8080)" style="fill: none; stroke-dasharray: 3,4.95; stroke-dashoffset: 0; stroke: #ff0000; stroke-width: 3"/>
   </g>
   <g id="line2d_3">
    <path d="M 27.163636 215.071974 
L 28.228364 211.132932 
L 29.026909 208.870198 
L 29.825455 207.185504 
L 30.624 206.072993 
L 31.156364 205.638721 
L 31.688727 205.445235 
L 32.221091 205.477929 
L 32.753455 205.73112 
L 33.285818 206.181464 
L 34.084364 207.184928 
L 35.149091 209.040589 
L 36.48 211.897737 
L 39.141818 217.733934 
L 40.206545 219.484229 
L 41.005091 220.380611 
L 41.537455 220.749996 
L 41.803636 220.812542 
L 43.134545 219.805749 
L 44.465455 219.72111 
L 45.264 219.769963 
L 46.062545 219.994103 
L 47.127273 220.539262 
L 48.724364 221.695256 
L 50.055273 222.616785 
L 50.853818 222.958745 
L 51.386182 223.032094 
L 51.918545 222.938105 
L 52.450909 222.637838 
L 52.983273 222.099538 
L 53.249455 221.7278 
L 53.781818 219.977055 
L 54.846545 214.429234 
L 55.378909 211.171296 
L 55.645091 211.398127 
L 56.177455 212.742412 
L 56.709818 213.647156 
L 57.242182 214.167832 
L 57.774545 214.358138 
L 58.306909 214.268167 
L 58.839273 213.964032 
L 59.637818 213.212145 
L 60.702545 212.126608 
L 62.565818 210.959286 
L 62.832 210.709625 
L 64.695273 207.819683 
L 66.026182 206.102283 
L 67.090909 205.066475 
L 67.889455 204.569806 
L 68.688 204.370826 
L 69.220364 204.443123 
L 69.752727 204.688892 
L 70.285091 205.153517 
L 70.817455 205.841081 
L 71.616 207.387225 
L 72.414545 209.629545 
L 73.745455 214.828722 
L 76.141091 225.340427 
L 77.472 230.925048 
L 78.270545 234.213702 
L 79.069091 234.039254 
L 81.997091 232.697735 
L 82.795636 231.957576 
L 83.594182 230.953699 
L 84.658909 229.227913 
L 85.191273 228.361821 
L 86.256 227.332498 
L 87.853091 225.350166 
L 89.184 223.740961 
L 89.982545 223.056001 
L 90.514909 222.814676 
L 91.047273 222.80992 
L 91.579636 223.10568 
L 92.112 223.769837 
L 92.644364 224.873223 
L 93.176727 226.486821 
L 93.442909 224.53657 
L 93.975273 217.757528 
L 94.773818 210.45711 
L 95.572364 205.270162 
L 96.104727 202.744023 
L 96.637091 201.059892 
L 97.169455 200.066667 
L 97.701818 199.703328 
L 97.968 199.712215 
L 98.500364 200.081537 
L 99.032727 200.835941 
L 99.831273 202.51405 
L 101.162182 206.106338 
L 102.493091 209.595649 
L 103.291636 211.066393 
L 103.824 211.569182 
L 104.090182 211.640816 
L 104.356364 211.558167 
L 104.622545 211.322437 
L 105.154909 210.28673 
L 105.953455 207.883294 
L 106.752 212.141027 
L 107.284364 213.840441 
L 107.816727 214.600665 
L 108.082909 214.667993 
L 108.349091 214.544389 
L 108.881455 213.836523 
L 109.68 211.957192 
L 110.478545 209.451042 
L 111.010909 207.218936 
L 111.543273 205.895617 
L 111.809455 205.621886 
L 112.075636 205.64911 
L 112.341818 205.996953 
L 112.608 206.671687 
L 113.140364 209.114126 
L 113.672727 213.136055 
L 114.205091 218.905086 
L 114.737455 226.530455 
L 115.536 241.809944 
L 115.802182 248.00361 
L 116.068364 249.349798 
L 116.866909 231.016384 
L 117.665455 216.838391 
L 118.464 206.21581 
L 119.262545 198.630533 
L 119.794909 195.073868 
L 120.327273 192.666126 
L 120.859636 191.267593 
L 121.125818 190.921489 
L 121.392 190.797309 
L 121.658182 190.895016 
L 121.924364 191.203018 
L 122.456727 192.419995 
L 122.989091 194.411539 
L 123.787636 198.449477 
L 124.586182 197.413432 
L 125.384727 195.876825 
L 125.917091 194.414731 
L 126.449455 192.491741 
L 126.715636 191.329989 
L 127.780364 193.628097 
L 129.377455 196.566904 
L 131.773091 200.417878 
L 136.032 207.073603 
L 137.362909 209.693932 
L 138.427636 210.297532 
L 138.96 210.851741 
L 139.758545 212.080746 
L 140.290909 212.898785 
L 141.355636 205.886104 
L 141.888 204.152519 
L 142.154182 203.746172 
L 142.420364 203.629565 
L 142.686545 203.753645 
L 142.952727 204.098559 
L 143.751273 205.7811 
L 144.549818 206.021236 
L 145.348364 206.026468 
L 145.880727 205.844711 
L 146.413091 205.479143 
L 146.945455 204.897172 
L 147.477818 204.055451 
L 148.276364 202.238417 
L 149.074909 199.629278 
L 150.139636 195.183278 
L 150.938182 199.054379 
L 151.470545 200.679417 
L 152.002909 201.496055 
L 152.269091 201.593648 
L 152.535273 201.477567 
L 152.801455 201.142791 
L 153.333818 199.788417 
L 153.866182 197.439229 
L 154.398545 194.038574 
L 154.664727 191.928307 
L 154.930909 190.833809 
L 155.995636 190.268072 
L 158.391273 188.797554 
L 159.189818 188.545051 
L 159.988364 188.542923 
L 160.520727 188.789531 
L 161.053091 189.271204 
L 161.585455 189.950319 
L 162.384 191.46223 
L 162.916364 192.982089 
L 163.714909 195.93981 
L 164.513455 199.846546 
L 165.312 204.922957 
L 166.110545 211.368963 
L 166.909091 219.384369 
L 167.441455 225.51699 
L 167.707636 226.543422 
L 167.973818 226.616371 
L 168.24 225.839875 
L 169.570909 217.264727 
L 170.369455 213.310677 
L 171.168 210.306532 
L 171.966545 208.258474 
L 172.498909 207.418405 
L 173.031273 206.999353 
L 173.563636 206.97855 
L 174.096 207.35716 
L 174.628364 208.116996 
L 175.959273 210.480266 
L 177.290182 212.374479 
L 177.822545 212.883452 
L 178.354909 213.711768 
L 179.153455 215.557678 
L 179.952 218.117513 
L 180.750545 221.392886 
L 181.815273 226.893657 
L 182.88 233.723204 
L 183.944727 240.965031 
L 184.210909 241.578945 
L 185.275636 228.281238 
L 186.074182 220.415045 
L 186.872727 214.35253 
L 187.671273 210.025804 
L 188.203636 208.046651 
L 188.736 206.738414 
L 189.268364 206.071979 
L 189.534545 205.945446 
L 189.800727 205.944658 
L 190.333091 206.282187 
L 190.865455 207.020757 
L 191.664 208.626369 
L 193.527273 212.842034 
L 194.059636 213.422052 
L 194.592 213.735775 
L 195.124364 213.855962 
L 195.656727 213.725473 
L 196.189091 213.255703 
L 196.721455 212.339244 
L 197.253818 210.876374 
L 197.786182 208.743427 
L 198.318545 205.798761 
L 198.850909 201.909787 
L 199.915636 192.651982 
L 200.448 193.347894 
L 200.714182 193.496357 
L 200.980364 193.513592 
L 201.246545 193.385695 
L 202.045091 192.652946 
L 203.109818 193.502327 
L 203.642182 193.287651 
L 204.174545 192.622142 
L 204.706909 191.552138 
L 205.505455 189.310232 
L 206.570182 185.424524 
L 210.829091 168.363373 
L 211.627636 166.488774 
L 211.893818 166.063476 
L 212.16 166.205167 
L 213.757091 172.785103 
L 215.354182 178.45967 
L 216.418909 181.583877 
L 217.483636 184.0143 
L 218.282182 185.277075 
L 218.814545 185.816001 
L 219.346909 186.084087 
L 219.879273 186.056062 
L 220.411636 185.70713 
L 220.944 185.014021 
L 221.476364 183.952817 
L 222.008727 182.48822 
L 222.541091 180.597624 
L 222.807273 181.224906 
L 223.605818 190.545207 
L 224.404364 197.015083 
L 224.936727 199.86462 
L 225.469091 201.662141 
L 226.001455 202.473784 
L 226.267636 202.532851 
L 226.533818 202.370895 
L 227.066182 201.485252 
L 227.598545 199.85338 
L 228.397091 196.47861 
L 229.728 189.560118 
L 231.857455 178.547488 
L 233.188364 172.929172 
L 234.253091 169.318084 
L 235.317818 166.476357 
L 236.382545 164.344411 
L 237.181091 163.167501 
L 237.979636 162.317507 
L 238.245818 162.099012 
L 238.778182 162.712438 
L 240.375273 164.843683 
L 243.303273 165.231456 
L 243.569455 166.331437 
L 245.698909 184.811135 
L 246.763636 195.867713 
L 247.562182 202.232609 
L 248.360727 206.846197 
L 248.893091 208.974012 
L 249.425455 210.347024 
L 249.957818 211.044676 
L 250.224 211.156464 
L 250.490182 211.119114 
L 250.756364 210.93981 
L 251.288727 210.185043 
L 251.821091 208.952083 
L 252.619636 206.345085 
L 253.684364 201.760198 
L 254.749091 196.194377 
L 256.08 188.14878 
L 257.144727 181.332977 
L 257.410909 180.623834 
L 258.209455 182.053372 
L 259.008 183.287897 
L 260.605091 186.250123 
L 261.137455 187.540248 
L 261.936 190.179164 
L 262.734545 193.795297 
L 263.533091 198.496352 
L 264.331636 204.444337 
L 265.130182 211.717219 
L 265.396364 211.99672 
L 266.461091 209.444846 
L 268.856727 204.1475 
L 269.655273 201.585024 
L 270.453818 197.988293 
L 271.252364 192.835654 
L 272.050909 185.593789 
L 272.849455 175.596214 
L 273.381818 167.062622 
L 273.648 166.022246 
L 274.446545 168.076787 
L 275.511273 171.67248 
L 276.842182 176.686532 
L 280.568727 182.529575 
L 282.165818 184.538706 
L 285.36 188.212829 
L 285.892364 187.987538 
L 286.158545 188.109615 
L 286.424727 188.396026 
L 286.957091 189.478183 
L 287.489455 191.185257 
L 288.021818 193.507071 
L 288.288 193.786072 
L 288.554182 192.881178 
L 289.618909 188.063853 
L 290.683636 184.304353 
L 291.482182 182.177126 
L 292.280727 180.694179 
L 292.813091 180.061802 
L 293.345455 179.74117 
L 293.877818 181.034537 
L 295.208727 185.315027 
L 296.273455 189.896922 
L 297.604364 196.922483 
L 299.733818 209.699089 
L 301.597091 220.709091 
L 302.395636 219.924384 
L 302.928 219.634669 
L 303.460364 219.531843 
L 303.992727 219.608922 
L 304.525091 219.8622 
L 305.323636 220.561041 
L 307.186909 222.816917 
L 307.453091 222.365822 
L 310.114909 206.876738 
L 314.64 199.052914 
L 316.237091 196.369526 
L 316.503273 196.425639 
L 317.568 197.288413 
L 318.632727 197.887958 
L 319.963636 198.358141 
L 324.488727 199.431737 
L 325.819636 199.245011 
L 326.618182 199.204681 
L 327.416727 199.557807 
L 328.215273 200.110313 
L 329.013818 201.014919 
L 329.546182 201.850194 
L 330.344727 203.592315 
L 331.143273 206.061828 
L 331.941818 209.52578 
L 332.740364 214.186832 
L 333.538909 220.37449 
L 334.071273 225.032751 
L 334.337455 225.683514 
L 334.869818 224.983059 
L 335.668364 223.505093 
L 336.466909 221.448436 
L 337.265455 218.757187 
L 337.797818 216.673544 
L 338.330182 216.393516 
L 338.862545 216.34435 
L 339.394909 216.542755 
L 339.927273 217.012212 
L 340.459636 217.770496 
L 340.992 218.83339 
L 341.790545 221.036506 
L 342.589091 224.034606 
L 343.387636 227.470208 
L 344.452364 230.275286 
L 345.517091 233.679883 
L 347.114182 239.644778 
L 348.711273 245.752854 
L 350.574545 232.38171 
L 352.171636 217.494299 
L 353.502545 206.105988 
L 354.567273 198.663127 
L 355.632 192.611828 
L 356.696727 187.819737 
L 357.761455 184.106512 
L 358.826182 181.256674 
L 359.890909 179.043957 
L 360.955636 177.379991 
L 362.286545 175.794606 
L 363.351273 174.804572 
L 364.149818 179.350982 
L 364.948364 182.627758 
L 365.746909 184.832126 
L 366.279273 185.820708 
L 367.876364 187.908544 
L 369.473455 189.468845 
L 370.272 190.348355 
L 371.070545 191.529696 
L 371.869091 193.151642 
L 372.667636 195.356111 
L 373.466182 198.272526 
L 374.264727 201.231523 
L 374.530909 201.561455 
L 375.063273 201.215064 
L 375.329455 201.034821 
L 375.861818 199.536553 
L 376.926545 196.050534 
L 377.725091 193.559054 
L 378.523636 191.793376 
L 379.322182 190.602948 
L 380.120727 189.866894 
L 380.919273 189.482188 
L 381.717818 189.357095 
L 382.782545 189.452423 
L 384.912 189.733489 
L 385.710545 189.545474 
L 386.242909 189.220236 
L 386.775273 188.673287 
L 387.307636 187.8386 
L 387.84 186.632576 
L 388.904727 183.285619 
L 389.437091 180.79176 
L 389.969455 177.51103 
L 390.768 170.703475 
L 391.034182 168.448463 
L 392.098909 179.847276 
L 392.897455 186.224264 
L 393.163636 187.865499 
L 394.228364 188.072215 
L 395.026909 188.021584 
L 395.825455 187.787919 
L 396.624 187.312066 
L 397.422545 186.580806 
L 398.221091 185.567717 
L 401.681455 196.969146 
L 403.278545 201.503102 
L 404.343273 204.00084 
L 405.408 205.96451 
L 406.206545 207.045866 
L 407.005091 207.780067 
L 407.803636 208.20539 
L 408.868364 208.440995 
L 410.199273 208.690017 
L 410.731636 208.966014 
L 410.997818 208.906196 
L 411.264 207.545614 
L 412.062545 201.535658 
L 413.127273 194.660737 
L 413.659636 191.257754 
L 414.192 188.861477 
L 414.724364 187.396968 
L 414.990545 187.016606 
L 415.256727 186.841933 
L 415.522909 186.86569 
L 415.789091 187.079753 
L 416.321455 188.033375 
L 416.853818 189.616169 
L 417.652364 192.920756 
L 418.717091 198.527357 
L 421.378909 213.445572 
L 422.443636 217.905728 
L 423.242182 220.194022 
L 423.774545 221.144552 
L 424.306909 221.607375 
L 424.573091 221.651898 
L 424.839273 221.560512 
L 425.371636 221.006691 
L 425.904 219.972298 
L 426.436364 218.449573 
L 426.436364 218.449573 
" clip-path="url(#p0da37d8080)" style="fill: none; stroke: #ff0000; stroke-width: 3; stroke-linecap: square"/>
   </g>
   <g id="patch_3">
    <path d="M 7.2 331.2 
L 7.2 7.2 
" style="fill: none; stroke: #000000; stroke-width: 0.8; stroke-linejoin: miter; stroke-linecap: square"/>
   </g>
   <g id="patch_4">
    <path d="M 446.4 331.2 
L 446.4 7.2 
" style="fill: none; stroke: #000000; stroke-width: 0.8; stroke-linejoin: miter; stroke-linecap: square"/>
   </g>
   <g id="patch_5">
    <path d="M 7.2 331.2 
L 446.4 331.2 
" style="fill: none; stroke: #000000; stroke-width: 0.8; stroke-linejoin: miter; stroke-linecap: square"/>
   </g>
   <g id="patch_6">
    <path d="M 7.2 7.2 
L 446.4 7.2 
" style="fill: none; stroke: #000000; stroke-width: 0.8; stroke-linejoin: miter; stroke-linecap: square"/>
   </g>
  </g>
 </g>
 <defs>
  <clipPath id="p0da37d8080">
   <rect x="7.2" y="7.2" width="439.2" height="324"/>
  </clipPath>
 </defs>
</svg>
