<?xml version="1.0" encoding="utf-8" standalone="no"?>
<!DOCTYPE svg PUBLIC "-//W3C//DTD SVG 1.1//EN"
  "http://www.w3.org/Graphics/SVG/1.1/DTD/svg11.dtd">
<svg xmlns:xlink="http://www.w3.org/1999/xlink" width="453.6pt" height="338.4pt" viewBox="0 0 453.6 338.4" xmlns="http://www.w3.org/2000/svg" version="1.1">
 <metadata>
  <rdf:RDF xmlns:dc="http://purl.org/dc/elements/1.1/" xmlns:cc="http://creativecommons.org/ns#" xmlns:rdf="http://www.w3.org/1999/02/22-rdf-syntax-ns#">
   <cc:Work>
    <dc:type rdf:resource="http://purl.org/dc/dcmitype/StillImage"/>
    <dc:date>2025-05-14T08:52:06.827714</dc:date>
    <dc:format>image/svg+xml</dc:format>
    <dc:creator>
     <cc:Agent>
      <dc:title>Matplotlib v3.10.1, https://matplotlib.org/</dc:title>
     </cc:Agent>
    </dc:creator>
   </cc:Work>
  </rdf:RDF>
 </metadata>
 <defs>
  <style type="text/css">*{stroke-linejoin: round; stroke-linecap: butt}</style>
 </defs>
 <g id="figure_1">
  <g id="patch_1">
   <path d="M 0 338.4 
L 453.6 338.4 
L 453.6 0 
L 0 0 
z
" style="fill: #ffffff"/>
  </g>
  <g id="axes_1">
   <g id="patch_2">
    <path d="M 7.2 331.2 
L 446.4 331.2 
L 446.4 7.2 
L 7.2 7.2 
z
" style="fill: #ffffff"/>
   </g>
   <g id="matplotlib.axis_1"/>
   <g id="matplotlib.axis_2"/>
   <g id="line2d_1">
    <path d="M 27.163636 316.472727 
L 33.285818 291.935812 
L 39.141818 269.378733 
L 44.997818 247.721382 
L 50.587636 227.893962 
L 56.177455 208.898424 
L 61.501091 191.586373 
L 66.824727 175.0393 
L 71.882182 160.032955 
L 76.939636 145.726074 
L 81.730909 132.821366 
L 86.522182 120.552236 
L 91.047273 109.55156 
L 95.572364 99.124218 
L 100.097455 89.273314 
L 104.356364 80.531301 
L 108.615273 72.305351 
L 112.608 65.06451 
L 116.600727 58.281779 
L 120.327273 52.366282 
L 124.053818 46.853495 
L 127.780364 41.745085 
L 131.240727 37.365202 
L 134.701091 33.33692 
L 138.161455 29.661679 
L 141.355636 26.583734 
L 144.549818 23.808856 
L 146.945455 21.927273 
L 147.211636 22.049161 
L 150.139636 39.25926 
L 153.067636 55.0799 
L 155.729455 68.292827 
L 158.391273 80.425523 
L 161.053091 91.510438 
L 163.714909 101.579943 
L 166.110545 109.801044 
L 168.506182 117.249579 
L 170.901818 123.949081 
L 173.031273 129.294578 
L 175.160727 134.083558 
L 177.290182 138.332613 
L 179.419636 142.058383 
L 181.282909 144.902146 
L 183.146182 147.369057 
L 185.009455 149.470303 
L 186.872727 151.216918 
L 188.469818 152.440197 
L 190.066909 153.418108 
L 191.664 154.157697 
L 193.261091 154.665907 
L 194.858182 154.949808 
L 196.455273 155.016321 
L 198.052364 154.872489 
L 199.649455 154.525282 
L 201.512727 153.872558 
L 203.376 152.963735 
L 205.239273 151.809846 
L 207.368727 150.205422 
L 209.498182 148.312071 
L 211.893818 145.857432 
L 214.289455 143.081747 
L 216.951273 139.649979 
L 219.879273 135.489632 
L 223.073455 130.539927 
L 226.533818 124.756697 
L 230.526545 117.630446 
L 235.317818 108.585492 
L 241.706182 95.998548 
L 254.749091 70.188728 
L 259.540364 61.262859 
L 263.533091 54.271804 
L 266.993455 48.632255 
L 270.187636 43.836886 
L 273.115636 39.836457 
L 275.777455 36.565288 
L 278.173091 33.946641 
L 280.568727 31.660732 
L 282.698182 29.927324 
L 284.827636 28.492059 
L 286.690909 27.493896 
L 288.554182 26.747868 
L 290.417455 26.265112 
L 292.014545 26.069262 
L 293.611636 26.082014 
L 295.208727 26.310312 
L 296.805818 26.761201 
L 298.402909 27.441676 
L 300 28.358756 
L 301.597091 29.519412 
L 303.194182 30.930613 
L 305.057455 32.903152 
L 306.920727 35.237392 
L 308.784 37.94452 
L 309.582545 39.253654 
L 311.978182 48.570086 
L 314.107636 56.032812 
L 316.237091 62.757717 
L 318.366545 68.776189 
L 320.496 74.119413 
L 322.625455 78.818422 
L 324.488727 82.426394 
L 326.352 85.586028 
L 328.215273 88.318483 
L 330.078545 90.644466 
L 331.941818 92.584986 
L 333.538909 93.957426 
L 335.136 95.075179 
L 336.733091 95.951479 
L 338.330182 96.599531 
L 339.927273 97.032441 
L 341.524364 97.263492 
L 343.387636 97.295435 
L 345.250909 97.091454 
L 347.114182 96.672407 
L 349.243636 95.95706 
L 351.639273 94.888218 
L 354.301091 93.424848 
L 357.229091 91.550234 
L 360.955636 88.887725 
L 372.667636 80.293231 
L 375.595636 78.515431 
L 378.257455 77.166879 
L 380.386909 76.313912 
L 382.516364 75.695707 
L 384.379636 75.371782 
L 386.242909 75.272468 
L 388.106182 75.418547 
L 389.703273 75.754997 
L 391.300364 76.300377 
L 392.897455 77.067818 
L 394.494545 78.070526 
L 396.091636 79.321708 
L 397.688727 80.834445 
L 399.285818 82.622017 
L 401.149091 85.072414 
L 403.012364 87.935772 
L 404.875636 91.2329 
L 406.738909 94.98483 
L 408.602182 99.212497 
L 410.731636 104.653368 
L 412.861091 110.774259 
L 414.990545 117.60618 
L 417.12 125.180618 
L 419.249455 133.528557 
L 421.645091 143.883706 
L 424.040727 155.302091 
L 426.436364 167.828053 
L 426.436364 167.828053 
" clip-path="url(#p0f165eaf5c)" style="fill: none; stroke-dasharray: 11.1,4.8; stroke-dashoffset: 0; stroke: #000000; stroke-width: 3"/>
   </g>
   <g id="line2d_2">
    <path d="M 27.163636 104.357068 
L 55.112727 104.31361 
L 89.450182 104.366057 
L 101.162182 104.32866 
L 106.219636 104.284722 
L 141.089455 104.34578 
L 154.930909 104.334569 
L 175.959273 104.431281 
L 210.562909 104.419312 
L 212.16 104.397798 
L 217.749818 104.313282 
L 245.432727 104.362648 
L 252.885818 104.38949 
L 263.000727 104.372951 
L 271.518545 104.355653 
L 280.036364 104.311135 
L 319.697455 104.329139 
L 327.682909 104.329443 
L 345.517091 104.416282 
L 393.962182 104.362926 
L 403.810909 104.313004 
L 426.436364 104.442518 
L 426.436364 104.442518 
" clip-path="url(#p0f165eaf5c)" style="fill: none; stroke-dasharray: 3,4.95; stroke-dashoffset: 0; stroke: #0000ff; stroke-width: 3"/>
   </g>
   <g id="line2d_3">
    <path d="M 27.163636 116.491784 
L 28.228364 114.371297 
L 29.293091 112.728163 
L 30.357818 111.476299 
L 31.688727 110.324026 
L 33.285818 109.319096 
L 35.947636 107.994912 
L 40.472727 105.687514 
L 43.400727 104.286136 
L 43.933091 104.007992 
L 45.264 102.906526 
L 48.458182 102.334329 
L 50.853818 101.958007 
L 52.184727 101.927882 
L 53.515636 102.150448 
L 54.580364 102.581111 
L 58.573091 104.936613 
L 59.371636 105.913994 
L 60.170182 107.243859 
L 60.436364 107.774492 
L 61.234909 108.007361 
L 62.033455 108.416181 
L 62.832 107.796815 
L 64.162909 106.48162 
L 65.76 104.535974 
L 68.421818 101.152916 
L 70.817455 98.777718 
L 72.414545 97.507673 
L 74.011636 96.562412 
L 75.608727 95.903804 
L 77.205818 95.29671 
L 78.004364 94.280341 
L 78.802909 92.925451 
L 79.867636 90.53995 
L 80.4 89.080772 
L 82.795636 94.489801 
L 84.392727 99.759291 
L 85.723636 103.2681 
L 86.788364 105.478483 
L 87.853091 107.234163 
L 88.917818 108.567286 
L 89.982545 109.517446 
L 91.047273 110.16474 
L 91.845818 110.526593 
L 92.112 110.413189 
L 92.910545 109.034235 
L 93.709091 107.320295 
L 94.773818 104.306767 
L 96.637091 98.124085 
L 98.234182 92.851262 
L 99.298909 93.629965 
L 100.363636 94.656612 
L 101.428364 95.978195 
L 103.291636 98.567121 
L 104.622545 100.145966 
L 105.687273 101.71928 
L 106.752 103.707854 
L 107.816727 106.061462 
L 108.881455 105.33561 
L 109.946182 104.915629 
L 112.341818 104.46181 
L 113.938909 104.205761 
L 115.269818 103.798304 
L 116.334545 103.243405 
L 116.866909 102.82966 
L 117.665455 101.777863 
L 118.730182 99.868528 
L 119.794909 97.395481 
L 120.593455 95.418018 
L 121.125818 95.626771 
L 122.456727 96.48494 
L 123.521455 97.40692 
L 124.586182 98.659971 
L 125.650909 100.349568 
L 126.715636 102.557753 
L 126.981818 103.199972 
L 128.578909 104.642661 
L 129.909818 106.121358 
L 131.240727 107.935824 
L 132.571636 110.182265 
L 132.837818 110.693278 
L 133.104 110.670627 
L 134.434909 108.250406 
L 136.298182 105.546055 
L 137.629091 103.951959 
L 138.427636 103.56988 
L 140.290909 102.972533 
L 144.017455 102.069164 
L 145.348364 102.153629 
L 146.413091 102.40675 
L 147.477818 102.869406 
L 148.542545 103.556699 
L 149.873455 104.705057 
L 151.736727 106.681258 
L 153.067636 108.109957 
L 153.333818 107.974888 
L 154.398545 106.133328 
L 155.729455 104.300757 
L 157.060364 102.849457 
L 158.125091 101.90061 
L 158.657455 101.827179 
L 159.722182 101.98341 
L 160.254545 102.168932 
L 161.319273 101.819452 
L 162.650182 101.677085 
L 164.513455 101.532319 
L 165.312 101.197308 
L 166.376727 100.513803 
L 167.175273 99.770199 
L 167.973818 98.762769 
L 168.772364 97.42904 
L 169.570909 95.703182 
L 170.103273 94.301299 
L 170.369455 94.242262 
L 171.168 94.557879 
L 171.966545 95.174342 
L 172.765091 96.05953 
L 174.362182 98.726685 
L 176.757818 102.814004 
L 177.024 103.058615 
L 179.685818 104.037486 
L 182.88 105.483533 
L 184.477091 106.333142 
L 186.606545 108.467719 
L 187.405091 108.875605 
L 188.203636 108.959339 
L 188.736 108.819017 
L 189.268364 108.502516 
L 190.066909 107.906482 
L 191.131636 107.63869 
L 192.196364 107.105709 
L 193.527273 106.144918 
L 195.124364 104.651928 
L 198.850909 101.026634 
L 200.181818 100.070615 
L 201.512727 99.376959 
L 201.778909 99.274413 
L 202.045091 99.800956 
L 203.908364 105.35874 
L 204.706909 106.994931 
L 205.505455 108.139123 
L 206.570182 109.190718 
L 208.167273 110.624367 
L 208.965818 111.655887 
L 209.764364 113.112969 
L 211.627636 117.056658 
L 212.426182 118.217264 
L 213.224727 118.953847 
L 213.757091 119.220982 
L 214.289455 119.312544 
L 214.821818 119.233178 
L 215.354182 118.98675 
L 216.152727 118.306881 
L 216.951273 117.257533 
L 217.749818 115.837697 
L 218.814545 113.579085 
L 219.346909 114.199209 
L 220.145455 115.128309 
L 220.944 115.762322 
L 221.742545 116.123063 
L 222.541091 116.240861 
L 223.339636 116.139275 
L 224.138182 115.846863 
L 224.936727 115.314488 
L 226.533818 113.813519 
L 227.598545 112.566124 
L 229.728 110.120702 
L 232.922182 106.931575 
L 234.519273 105.642895 
L 235.317818 105.143346 
L 236.116364 104.909392 
L 237.447273 104.751873 
L 238.512 104.820784 
L 239.576727 105.11216 
L 240.375273 105.527092 
L 241.173818 106.167543 
L 241.972364 107.11437 
L 242.770909 108.475219 
L 243.569455 110.423264 
L 244.900364 114.689465 
L 245.432727 113.928034 
L 246.231273 112.835077 
L 247.029818 112.109377 
L 247.828364 111.66225 
L 248.626909 111.426099 
L 249.691636 111.34691 
L 251.022545 111.485743 
L 254.216727 111.948349 
L 255.015273 111.811663 
L 255.813818 111.43976 
L 256.612364 110.810267 
L 257.410909 108.687609 
L 258.209455 106.660602 
L 258.741818 106.843978 
L 259.274182 106.815469 
L 259.806545 106.584166 
L 260.072727 106.399679 
L 261.403636 104.558397 
L 262.734545 103.12591 
L 264.065455 102.044341 
L 265.130182 101.471059 
L 265.928727 101.254553 
L 266.727273 101.26382 
L 267.525818 101.540121 
L 268.324364 102.12709 
L 269.122909 103.078235 
L 269.655273 104.012714 
L 270.72 106.4444 
L 271.784727 108.904266 
L 275.511273 115.567557 
L 276.576 117.147437 
L 276.842182 118.106587 
L 277.108364 118.465813 
L 277.906909 113.659106 
L 278.705455 109.973284 
L 279.504 107.219037 
L 280.302545 105.266497 
L 281.101091 104.005467 
L 281.633455 103.511272 
L 282.165818 103.274843 
L 282.964364 103.450996 
L 283.762909 103.931682 
L 285.093818 105.076707 
L 287.223273 107.319992 
L 289.352727 109.518052 
L 290.417455 110.429123 
L 290.683636 110.516215 
L 291.216 110.065502 
L 291.748364 109.44904 
L 292.546909 109.706831 
L 293.079273 109.63191 
L 293.877818 109.374472 
L 295.208727 108.843688 
L 296.539636 108.055717 
L 298.136727 106.834938 
L 301.330909 104.201872 
L 304.791273 104.72488 
L 305.856 105.100848 
L 306.388364 105.37831 
L 306.920727 105.180264 
L 308.251636 104.303812 
L 310.381091 102.763476 
L 313.042909 101.579539 
L 317.035636 98.843346 
L 320.496 98.664162 
L 322.093091 98.800798 
L 323.157818 99.088083 
L 323.956364 99.473041 
L 324.754909 100.069378 
L 325.553455 100.954895 
L 326.618182 102.491014 
L 329.812364 100.927421 
L 330.877091 100.703896 
L 331.409455 100.741798 
L 332.208 101.152891 
L 333.006545 101.78208 
L 333.805091 102.653355 
L 334.869818 104.211922 
L 336.200727 106.417179 
L 336.999273 106.548233 
L 337.797818 106.943948 
L 338.862545 105.244049 
L 340.459636 102.95564 
L 341.790545 101.463231 
L 342.855273 100.558018 
L 344.186182 99.631822 
L 344.718545 99.642427 
L 345.250909 99.967388 
L 345.783273 100.627384 
L 346.315636 101.657187 
L 346.848 103.074548 
L 347.646545 105.992829 
L 348.445091 109.939144 
L 349.509818 115.864539 
L 350.042182 116.634101 
L 350.308364 116.15137 
L 351.106909 113.996364 
L 351.905455 112.442216 
L 352.970182 110.970286 
L 355.099636 108.409591 
L 355.632 107.517913 
L 356.430545 105.719911 
L 357.229091 103.403423 
L 358.027636 100.464335 
L 359.092364 95.768861 
L 359.624727 95.874109 
L 359.890909 95.804541 
L 360.689455 95.022959 
L 361.221818 94.286906 
L 361.754182 94.534572 
L 363.617455 95.969408 
L 364.948364 97.261143 
L 366.279273 98.842766 
L 367.610182 100.748641 
L 369.207273 103.46794 
L 370.804364 106.646057 
L 372.667636 110.860316 
L 374.530909 115.156086 
L 374.797091 114.298093 
L 375.861818 109.394269 
L 376.660364 106.694969 
L 377.458909 105.215565 
L 378.523636 102.628937 
L 380.386909 97.341468 
L 380.653091 97.301369 
L 381.451636 97.465352 
L 382.516364 97.44861 
L 383.847273 97.372982 
L 384.645818 97.537672 
L 385.444364 97.947351 
L 386.242909 98.630174 
L 387.041455 99.600535 
L 388.106182 101.318666 
L 389.437091 104.023017 
L 390.768 107.086088 
L 391.034182 106.896829 
L 392.098909 105.305839 
L 393.163636 104.165763 
L 393.962182 105.077238 
L 394.760727 106.307183 
L 395.026909 106.797642 
L 395.293091 106.927686 
L 396.091636 104.835026 
L 396.890182 103.381151 
L 398.487273 101.253972 
L 399.285818 100.665867 
L 400.350545 100.1846 
L 402.213818 99.425164 
L 403.012364 98.866956 
L 403.810909 98.052093 
L 404.609455 96.923305 
L 405.408 95.447284 
L 406.472727 93.204151 
L 408.336 93.463533 
L 408.602182 93.380633 
L 408.868364 93.468306 
L 409.933091 94.796682 
L 410.997818 96.200357 
L 412.861091 98.267639 
L 414.724364 99.966075 
L 416.853818 101.578377 
L 419.515636 103.304993 
L 422.709818 105.112741 
L 424.573091 105.965911 
L 426.170182 106.465232 
L 426.436364 106.51672 
L 426.436364 106.51672 
" clip-path="url(#p0f165eaf5c)" style="fill: none; stroke: #0000ff; stroke-width: 3; stroke-linecap: square"/>
   </g>
   <g id="patch_3">
    <path d="M 7.2 331.2 
L 7.2 7.2 
" style="fill: none; stroke: #000000; stroke-width: 0.8; stroke-linejoin: miter; stroke-linecap: square"/>
   </g>
   <g id="patch_4">
    <path d="M 446.4 331.2 
L 446.4 7.2 
" style="fill: none; stroke: #000000; stroke-width: 0.8; stroke-linejoin: miter; stroke-linecap: square"/>
   </g>
   <g id="patch_5">
    <path d="M 7.2 331.2 
L 446.4 331.2 
" style="fill: none; stroke: #000000; stroke-width: 0.8; stroke-linejoin: miter; stroke-linecap: square"/>
   </g>
   <g id="patch_6">
    <path d="M 7.2 7.2 
L 446.4 7.2 
" style="fill: none; stroke: #000000; stroke-width: 0.8; stroke-linejoin: miter; stroke-linecap: square"/>
   </g>
  </g>
 </g>
 <defs>
  <clipPath id="p0f165eaf5c">
   <rect x="7.2" y="7.2" width="439.2" height="324"/>
  </clipPath>
 </defs>
</svg>
