<?xml version="1.0" encoding="utf-8" standalone="no"?>
<!DOCTYPE svg PUBLIC "-//W3C//DTD SVG 1.1//EN"
  "http://www.w3.org/Graphics/SVG/1.1/DTD/svg11.dtd">
<svg xmlns:xlink="http://www.w3.org/1999/xlink" width="453.6pt" height="338.4pt" viewBox="0 0 453.6 338.4" xmlns="http://www.w3.org/2000/svg" version="1.1">
 <metadata>
  <rdf:RDF xmlns:dc="http://purl.org/dc/elements/1.1/" xmlns:cc="http://creativecommons.org/ns#" xmlns:rdf="http://www.w3.org/1999/02/22-rdf-syntax-ns#">
   <cc:Work>
    <dc:type rdf:resource="http://purl.org/dc/dcmitype/StillImage"/>
    <dc:date>2025-05-14T08:57:50.067869</dc:date>
    <dc:format>image/svg+xml</dc:format>
    <dc:creator>
     <cc:Agent>
      <dc:title>Matplotlib v3.10.1, https://matplotlib.org/</dc:title>
     </cc:Agent>
    </dc:creator>
   </cc:Work>
  </rdf:RDF>
 </metadata>
 <defs>
  <style type="text/css">*{stroke-linejoin: round; stroke-linecap: butt}</style>
 </defs>
 <g id="figure_1">
  <g id="patch_1">
   <path d="M 0 338.4 
L 453.6 338.4 
L 453.6 0 
L 0 0 
z
" style="fill: #ffffff"/>
  </g>
  <g id="axes_1">
   <g id="patch_2">
    <path d="M 7.2 331.2 
L 446.4 331.2 
L 446.4 7.2 
L 7.2 7.2 
z
" style="fill: #ffffff"/>
   </g>
   <g id="matplotlib.axis_1"/>
   <g id="matplotlib.axis_2"/>
   <g id="line2d_1">
    <path d="M 27.163636 310.93135 
L 32.753455 308.879801 
L 38.609455 306.486785 
L 44.465455 303.852669 
L 50.587636 300.850232 
L 56.709818 297.603335 
L 63.098182 293.965064 
L 69.752727 289.915256 
L 76.673455 285.435254 
L 83.860364 280.508383 
L 91.313455 275.12016 
L 99.032727 269.258633 
L 107.018182 262.914682 
L 115.536 255.857667 
L 124.586182 248.060069 
L 134.168727 239.501585 
L 144.549818 229.921629 
L 155.995636 219.042695 
L 168.772364 206.582485 
L 184.210909 191.202921 
L 208.699636 166.44517 
L 233.720727 141.257365 
L 248.360727 126.833132 
L 260.871273 114.815267 
L 272.050909 104.387878 
L 282.165818 95.258698 
L 291.482182 87.145602 
L 300.266182 79.78734 
L 308.517818 73.158583 
L 316.503273 67.028027 
L 323.956364 61.577815 
L 331.143273 56.587415 
L 338.064 52.042742 
L 344.984727 47.768275 
L 351.639273 43.926054 
L 358.027636 40.496303 
L 364.149818 37.457729 
L 370.272 34.671916 
L 376.128 32.252792 
L 381.717818 30.175425 
L 387.307636 28.33207 
L 392.897455 26.730072 
L 398.221091 25.435525 
L 403.544727 24.373007 
L 408.602182 23.58431 
L 413.659636 23.016284 
L 418.717091 22.67434 
L 423.774545 22.563981 
L 426.436364 22.60076 
L 426.436364 22.60076 
" clip-path="url(#pf88497ddd8)" style="fill: none; stroke-dasharray: 11.1,4.8; stroke-dashoffset: 0; stroke: #000000; stroke-width: 3"/>
   </g>
   <g id="line2d_2">
    <path d="M 27.163636 305.252934 
L 28.494545 307.979766 
L 29.825455 310.263717 
L 31.156364 312.135665 
L 32.487273 313.626721 
L 33.818182 314.767997 
L 35.149091 315.591303 
L 36.48 316.127891 
L 37.810909 316.409432 
L 39.141818 316.468156 
L 40.738909 316.288905 
L 42.336 315.889076 
L 43.400727 315.511076 
L 43.933091 314.986102 
L 46.594909 311.744418 
L 49.522909 308.242603 
L 51.12 306.625562 
L 52.450909 305.551453 
L 53.515636 304.922231 
L 54.580364 304.537374 
L 55.645091 304.434199 
L 56.443636 304.565827 
L 57.242182 304.892985 
L 58.040727 305.431905 
L 58.839273 306.198959 
L 59.904 307.605171 
L 60.702545 308.680679 
L 62.033455 308.227397 
L 63.630545 307.416544 
L 65.493818 306.169154 
L 67.623273 304.446932 
L 70.817455 301.530914 
L 75.076364 297.653571 
L 77.205818 295.987601 
L 78.536727 295.164341 
L 81.198545 293.52104 
L 83.594182 291.772838 
L 85.723636 289.921366 
L 87.586909 288.012103 
L 89.450182 285.784638 
L 91.313455 283.192233 
L 93.176727 280.185679 
L 94.773818 277.204406 
L 95.838545 275.237679 
L 97.169455 273.190164 
L 98.500364 271.500453 
L 99.831273 270.149094 
L 101.162182 269.116405 
L 102.493091 268.383587 
L 103.824 267.929605 
L 105.154909 267.733701 
L 106.485818 267.775308 
L 107.816727 268.03362 
L 109.413818 268.599967 
L 111.010909 269.411425 
L 112.075636 269.969283 
L 112.608 269.627245 
L 114.205091 268.110395 
L 116.068364 265.978269 
L 118.197818 263.143224 
L 120.593455 259.562114 
L 124.053818 253.926774 
L 128.845091 245.919465 
L 134.701091 242.51117 
L 136.564364 240.993667 
L 138.161455 239.391832 
L 139.758545 237.443855 
L 141.355636 235.084248 
L 142.952727 232.245892 
L 144.283636 229.448768 
L 145.614545 226.155636 
L 147.744 219.996114 
L 149.341091 216.020772 
L 150.938182 212.560423 
L 152.535273 209.570544 
L 154.132364 207.007851 
L 155.729455 204.829268 
L 157.326545 202.991743 
L 158.923636 201.452528 
L 160.786909 199.976397 
L 166.110545 196.139238 
L 168.506182 194.010447 
L 170.901818 191.586052 
L 173.297455 188.84434 
L 175.693091 185.763623 
L 178.088727 182.328322 
L 179.952 179.24378 
L 187.138909 167.426902 
L 192.196364 159.535433 
L 195.124364 155.287739 
L 200.980364 149.349705 
L 213.224727 137.36316 
L 219.346909 131.42312 
L 228.130909 122.910032 
L 230.792727 121.11262 
L 233.986909 119.211497 
L 237.181091 117.575076 
L 240.375273 116.195241 
L 243.569455 115.063201 
L 245.166545 114.467422 
L 247.296 113.382119 
L 249.425455 112.040392 
L 251.554909 110.43226 
L 253.684364 108.547065 
L 255.813818 106.373846 
L 257.943273 103.901642 
L 260.338909 100.752429 
L 263.000727 97.265959 
L 265.662545 94.16929 
L 268.058182 91.708536 
L 270.453818 89.550453 
L 272.849455 87.689257 
L 275.245091 86.119419 
L 276.576 85.371163 
L 276.842182 85.3425 
L 277.906909 85.897792 
L 279.237818 86.861123 
L 280.834909 88.349194 
L 282.432 90.155258 
L 284.295273 92.602344 
L 286.690909 96.174055 
L 289.618909 100.977251 
L 293.079273 106.907613 
L 293.611636 106.957101 
L 294.410182 106.759752 
L 295.208727 106.3467 
L 296.007273 105.72536 
L 297.072 104.585694 
L 298.136727 103.107931 
L 299.467636 100.812063 
L 300.798545 98.050248 
L 302.395636 94.169593 
L 304.258909 88.935597 
L 306.122182 83.029723 
L 308.251636 75.575818 
L 309.848727 69.934927 
L 311.712 66.380987 
L 313.575273 63.257218 
L 315.438545 60.524555 
L 317.301818 58.147131 
L 319.165091 56.088119 
L 321.294545 54.078595 
L 323.424 52.383823 
L 325.819636 50.785953 
L 326.618182 50.359211 
L 332.474182 48.817663 
L 336.466909 47.544059 
L 339.927273 46.213713 
L 346.049455 43.713989 
L 348.445091 43.12614 
L 350.574545 42.835293 
L 352.437818 42.791145 
L 354.301091 42.970327 
L 356.164364 43.398678 
L 357.761455 43.983706 
L 359.358545 44.787095 
L 360.689455 45.69464 
L 363.883636 47.896055 
L 367.077818 49.826028 
L 370.272 51.495589 
L 373.466182 52.91556 
L 376.394182 54.006881 
L 376.926545 54.009819 
L 380.919273 52.334381 
L 383.314909 51.563292 
L 385.178182 51.164303 
L 387.041455 50.992794 
L 388.638545 51.0629 
L 390.235636 51.365103 
L 391.832727 51.929444 
L 393.163636 52.621822 
L 393.696 53.113842 
L 395.026909 54.323381 
L 396.091636 55.028236 
L 397.156364 55.51221 
L 398.221091 55.787314 
L 399.285818 55.865325 
L 400.350545 55.758138 
L 401.681455 55.381701 
L 403.012364 54.7574 
L 404.343273 53.90823 
L 405.940364 52.624737 
L 407.803636 50.812796 
L 410.199273 48.317573 
L 413.925818 47.204284 
L 417.652364 46.312388 
L 421.378909 45.64746 
L 425.105455 45.213931 
L 426.436364 45.115909 
L 426.436364 45.115909 
" clip-path="url(#pf88497ddd8)" style="fill: none; stroke-dasharray: 3,4.95; stroke-dashoffset: 0; stroke: #0000ff; stroke-width: 3"/>
   </g>
   <g id="line2d_3">
    <path d="M 27.163636 297.279967 
L 28.760727 299.770561 
L 30.091636 301.470195 
L 31.422545 302.853447 
L 32.753455 303.944511 
L 34.084364 304.76777 
L 35.415273 305.347609 
L 36.746182 305.708152 
L 38.343273 305.886307 
L 39.940364 305.82707 
L 41.803636 305.514628 
L 43.400727 305.074102 
L 43.933091 304.655872 
L 47.127273 301.559483 
L 49.789091 299.099802 
L 51.386182 297.879862 
L 52.717091 297.096063 
L 54.048 296.56148 
L 55.112727 296.355129 
L 56.177455 296.385506 
L 57.242182 296.681938 
L 58.306909 297.273705 
L 59.371636 298.191243 
L 60.702545 299.618456 
L 62.299636 299.175108 
L 63.896727 298.510577 
L 65.76 297.505815 
L 68.155636 295.949843 
L 72.414545 292.844754 
L 75.874909 290.435495 
L 78.004364 289.207731 
L 80.932364 287.746118 
L 83.594182 286.159244 
L 85.723636 284.652364 
L 87.853091 282.876234 
L 89.982545 280.779336 
L 91.845818 278.64082 
L 93.709091 276.179611 
L 96.637091 272.059919 
L 98.234182 270.310644 
L 99.831273 268.93959 
L 101.162182 268.066807 
L 102.493091 267.423218 
L 103.824 266.992383 
L 105.421091 266.732881 
L 107.018182 266.725302 
L 108.615273 266.943174 
L 110.478545 267.443706 
L 112.075636 267.971689 
L 112.608 267.657136 
L 114.471273 266.096243 
L 116.334545 264.264408 
L 118.730182 261.563207 
L 121.658182 257.879283 
L 126.981818 250.709321 
L 128.845091 248.229747 
L 134.967273 245.20934 
L 136.830545 243.903412 
L 138.427636 242.527111 
L 140.024727 240.858074 
L 141.621818 238.843257 
L 143.218909 236.428202 
L 144.549818 234.050649 
L 145.614545 231.846331 
L 148.010182 226.118915 
L 149.873455 222.182405 
L 151.736727 218.799997 
L 153.6 215.922028 
L 155.463273 213.495581 
L 157.326545 211.466677 
L 159.189818 209.786294 
L 161.053091 208.406646 
L 169.038545 203.049838 
L 171.700364 200.819551 
L 174.362182 198.278034 
L 176.757818 195.662936 
L 178.887273 193.040003 
L 190.333091 177.730475 
L 194.592 172.498368 
L 195.390545 171.70426 
L 203.376 165.021421 
L 214.555636 156.367772 
L 218.016 153.570625 
L 218.282182 153.148313 
L 219.879273 148.349969 
L 226.8 127.086524 
L 228.397091 122.971368 
L 229.728 120.23045 
L 230.792727 118.431289 
L 231.857455 117.026314 
L 232.389818 116.560414 
L 235.051636 115.220227 
L 237.713455 114.122446 
L 240.375273 113.255085 
L 243.037091 112.605619 
L 245.698909 111.985003 
L 247.828364 111.22884 
L 249.957818 110.249627 
L 252.087273 109.038946 
L 254.216727 107.588073 
L 256.346182 105.887937 
L 258.741818 103.666675 
L 261.137455 101.109462 
L 263.533091 98.726837 
L 266.194909 96.377585 
L 268.856727 94.334968 
L 271.518545 92.594578 
L 274.446545 90.981945 
L 276.576 90.047861 
L 277.108364 90.124356 
L 277.906909 90.53398 
L 279.237818 91.513076 
L 280.834909 93.014021 
L 282.432 94.827454 
L 284.295273 97.277247 
L 286.424727 100.464568 
L 289.352727 105.283086 
L 293.079273 111.683685 
L 293.611636 111.921474 
L 294.144 111.938452 
L 294.942545 111.675499 
L 295.741091 111.216293 
L 296.805818 110.309471 
L 297.870545 109.081298 
L 298.935273 107.54726 
L 300.266182 105.227696 
L 306.122182 94.436324 
L 307.453091 92.565636 
L 308.517818 91.404257 
L 309.316364 90.772842 
L 309.582545 90.660898 
L 309.848727 90.763513 
L 310.381091 91.395488 
L 311.179636 92.725437 
L 311.978182 94.450131 
L 313.042909 97.3856 
L 313.575273 99.019012 
L 314.373818 97.582902 
L 315.438545 95.05146 
L 316.769455 91.063245 
L 318.366545 85.382497 
L 320.762182 75.829629 
L 323.956364 63.153366 
L 325.553455 57.657186 
L 326.618182 54.582463 
L 326.884364 54.177107 
L 330.877091 51.61397 
L 334.071273 49.198694 
L 337.797818 46.07987 
L 344.186182 40.635907 
L 346.848 38.810323 
L 348.977455 37.603443 
L 350.840727 36.78086 
L 352.704 36.215726 
L 354.301091 35.965016 
L 355.632 35.973249 
L 357.229091 36.246977 
L 358.826182 36.769525 
L 360.955636 37.790787 
L 363.617455 39.01145 
L 366.279273 39.97681 
L 368.941091 40.688498 
L 372.667636 41.385307 
L 375.329455 41.630559 
L 376.660364 41.633218 
L 377.458909 41.201251 
L 380.919273 39.228483 
L 383.314909 38.080118 
L 385.444364 37.314696 
L 387.307636 36.872211 
L 388.904727 36.691421 
L 390.501818 36.719663 
L 392.098909 36.981357 
L 393.429818 37.373234 
L 394.494545 37.96057 
L 395.559273 38.327539 
L 396.624 38.486057 
L 397.688727 38.447599 
L 398.753455 38.194278 
L 400.084364 37.634251 
L 401.415273 36.829113 
L 403.012364 35.572347 
L 404.609455 34.036676 
L 406.472727 31.946413 
L 408.868364 28.884563 
L 409.933091 27.492368 
L 410.731636 26.964456 
L 413.393455 25.504721 
L 416.321455 24.169548 
L 418.983273 23.195163 
L 421.378909 22.537651 
L 423.774545 22.109369 
L 425.904 21.937698 
L 426.436364 21.927273 
L 426.436364 21.927273 
" clip-path="url(#pf88497ddd8)" style="fill: none; stroke: #0000ff; stroke-width: 3; stroke-linecap: square"/>
   </g>
   <g id="patch_3">
    <path d="M 7.2 331.2 
L 7.2 7.2 
" style="fill: none; stroke: #000000; stroke-width: 0.8; stroke-linejoin: miter; stroke-linecap: square"/>
   </g>
   <g id="patch_4">
    <path d="M 446.4 331.2 
L 446.4 7.2 
" style="fill: none; stroke: #000000; stroke-width: 0.8; stroke-linejoin: miter; stroke-linecap: square"/>
   </g>
   <g id="patch_5">
    <path d="M 7.2 331.2 
L 446.4 331.2 
" style="fill: none; stroke: #000000; stroke-width: 0.8; stroke-linejoin: miter; stroke-linecap: square"/>
   </g>
   <g id="patch_6">
    <path d="M 7.2 7.2 
L 446.4 7.2 
" style="fill: none; stroke: #000000; stroke-width: 0.8; stroke-linejoin: miter; stroke-linecap: square"/>
   </g>
  </g>
 </g>
 <defs>
  <clipPath id="pf88497ddd8">
   <rect x="7.2" y="7.2" width="439.2" height="324"/>
  </clipPath>
 </defs>
</svg>
