<?xml version="1.0" encoding="utf-8" standalone="no"?>
<!DOCTYPE svg PUBLIC "-//W3C//DTD SVG 1.1//EN"
  "http://www.w3.org/Graphics/SVG/1.1/DTD/svg11.dtd">
<svg xmlns:xlink="http://www.w3.org/1999/xlink" width="453.6pt" height="338.4pt" viewBox="0 0 453.6 338.4" xmlns="http://www.w3.org/2000/svg" version="1.1">
 <metadata>
  <rdf:RDF xmlns:dc="http://purl.org/dc/elements/1.1/" xmlns:cc="http://creativecommons.org/ns#" xmlns:rdf="http://www.w3.org/1999/02/22-rdf-syntax-ns#">
   <cc:Work>
    <dc:type rdf:resource="http://purl.org/dc/dcmitype/StillImage"/>
    <dc:date>2025-05-14T00:23:23.997385</dc:date>
    <dc:format>image/svg+xml</dc:format>
    <dc:creator>
     <cc:Agent>
      <dc:title>Matplotlib v3.10.1, https://matplotlib.org/</dc:title>
     </cc:Agent>
    </dc:creator>
   </cc:Work>
  </rdf:RDF>
 </metadata>
 <defs>
  <style type="text/css">*{stroke-linejoin: round; stroke-linecap: butt}</style>
 </defs>
 <g id="figure_1">
  <g id="patch_1">
   <path d="M 0 338.4 
L 453.6 338.4 
L 453.6 0 
L 0 0 
z
" style="fill: #ffffff"/>
  </g>
  <g id="axes_1">
   <g id="patch_2">
    <path d="M 7.2 331.2 
L 446.4 331.2 
L 446.4 7.2 
L 7.2 7.2 
z
" style="fill: #ffffff"/>
   </g>
   <g id="matplotlib.axis_1"/>
   <g id="matplotlib.axis_2"/>
   <g id="line2d_1">
    <path d="M 27.163636 167.763632 
L 33.552 164.980881 
L 40.206545 161.835901 
L 46.861091 158.439509 
L 53.515636 154.791756 
L 60.170182 150.892591 
L 66.824727 146.742066 
L 73.479273 142.340288 
L 80.4 137.495673 
L 87.320727 132.379188 
L 94.241455 126.990831 
L 101.428364 121.107373 
L 108.615273 114.93084 
L 115.802182 108.461071 
L 122.989091 101.698121 
L 130.442182 94.374912 
L 137.895273 86.736518 
L 145.348364 78.782726 
L 153.067636 70.212415 
L 160.786909 61.303957 
L 168.506182 52.057192 
L 176.491636 42.135623 
L 184.477091 31.852092 
L 191.930182 21.927539 
L 192.196364 23.372191 
L 196.189091 55.678572 
L 199.915636 84.12974 
L 203.642182 110.93812 
L 207.368727 136.103499 
L 210.829091 158.000508 
L 214.289455 178.480943 
L 217.483636 196.128652 
L 220.677818 212.56943 
L 223.872 227.803224 
L 226.8 240.707225 
L 229.728 252.59705 
L 232.389818 262.525918 
L 235.051636 271.616503 
L 237.447273 279.081507 
L 239.842909 285.86758 
L 242.238545 291.974693 
L 244.368 296.83324 
L 246.497455 301.155423 
L 248.626909 304.941108 
L 250.490182 307.813551 
L 252.353455 310.275363 
L 253.950545 312.058589 
L 255.547636 313.540002 
L 257.144727 314.719603 
L 258.741818 315.597657 
L 260.072727 316.098751 
L 261.403636 316.390335 
L 262.734545 316.472408 
L 264.065455 316.34489 
L 265.396364 316.007834 
L 266.727273 315.461242 
L 268.058182 314.705111 
L 269.655273 313.521169 
L 271.252364 312.035467 
L 272.849455 310.248032 
L 274.712727 307.781292 
L 276.576 304.903841 
L 278.439273 301.61568 
L 280.568727 297.354952 
L 282.698182 292.557754 
L 284.827636 287.224059 
L 287.223273 280.582527 
L 289.618909 273.262008 
L 292.014545 265.262691 
L 294.676364 255.57815 
L 297.338182 245.055513 
L 300.266182 232.512409 
L 303.194182 218.955341 
L 306.122182 204.383724 
L 309.316364 187.330956 
L 312.510545 169.071363 
L 315.970909 147.927793 
L 319.431273 125.367968 
L 322.891636 101.391513 
L 324.222545 92.497333 
L 327.150545 93.700269 
L 330.078545 95.141618 
L 333.006545 96.821434 
L 335.934545 98.739663 
L 339.128727 101.104298 
L 342.322909 103.752685 
L 345.517091 106.684824 
L 348.977455 110.181644 
L 352.437818 114.011443 
L 355.898182 118.174275 
L 359.358545 122.670246 
L 363.085091 127.884442 
L 366.811636 133.48484 
L 370.538182 139.471655 
L 374.530909 146.31468 
L 378.523636 153.601021 
L 382.782545 161.861954 
L 387.041455 170.627364 
L 391.300364 179.897198 
L 395.825455 190.29927 
L 400.350545 201.270871 
L 404.875636 212.811893 
L 409.666909 225.652708 
L 414.458182 239.132045 
L 419.515636 254.052837 
L 424.573091 269.685087 
L 426.436364 275.623687 
L 426.436364 275.623687 
" clip-path="url(#p669eebfa1c)" style="fill: none; stroke-dasharray: 11.1,4.8; stroke-dashoffset: 0; stroke: #000000; stroke-width: 3"/>
   </g>
   <g id="line2d_2">
    <path d="M 27.163636 167.763419 
L 33.552 164.980668 
L 40.206545 161.835688 
L 46.861091 158.439296 
L 53.515636 154.791543 
L 60.170182 150.892378 
L 66.824727 146.741853 
L 73.479273 142.340075 
L 80.4 137.49546 
L 87.320727 132.378975 
L 94.241455 126.990618 
L 101.428364 121.10716 
L 108.615273 114.930627 
L 115.802182 108.460858 
L 122.989091 101.697908 
L 130.442182 94.374699 
L 137.895273 86.736305 
L 145.348364 78.782513 
L 153.067636 70.212202 
L 160.786909 61.303744 
L 168.506182 52.056978 
L 176.491636 42.13541 
L 184.477091 31.851825 
L 191.930182 21.927273 
L 192.196364 23.371925 
L 196.189091 55.678359 
L 199.915636 84.129527 
L 203.642182 110.937907 
L 207.368727 136.103286 
L 210.829091 158.000295 
L 214.289455 178.48073 
L 217.483636 196.128492 
L 220.677818 212.569271 
L 223.872 227.803064 
L 226.8 240.707065 
L 229.728 252.59689 
L 232.389818 262.525758 
L 235.051636 271.616343 
L 237.447273 279.081348 
L 239.842909 285.86742 
L 242.238545 291.974534 
L 244.368 296.833107 
L 246.497455 301.155289 
L 248.626909 304.940975 
L 250.490182 307.813418 
L 252.353455 310.27523 
L 253.950545 312.058456 
L 255.547636 313.539869 
L 257.144727 314.719469 
L 258.741818 315.597523 
L 260.072727 316.098618 
L 261.403636 316.390202 
L 262.734545 316.472274 
L 264.065455 316.344757 
L 265.396364 316.007701 
L 266.727273 315.461108 
L 268.058182 314.704978 
L 269.655273 313.521036 
L 271.252364 312.035334 
L 272.849455 310.247899 
L 274.712727 307.781159 
L 276.576 304.903708 
L 278.439273 301.615547 
L 280.568727 297.354819 
L 282.698182 292.557594 
L 284.827636 287.223899 
L 287.223273 280.582367 
L 289.618909 273.261849 
L 292.014545 265.262531 
L 294.676364 255.577991 
L 297.338182 245.055353 
L 300.266182 232.512249 
L 303.194182 218.955181 
L 306.122182 204.383565 
L 309.316364 187.330796 
L 312.510545 169.07115 
L 315.970909 147.92758 
L 319.431273 125.367755 
L 322.891636 101.3913 
L 324.222545 92.49712 
L 327.150545 93.700056 
L 330.078545 95.141405 
L 333.006545 96.821221 
L 335.934545 98.73945 
L 339.128727 101.104085 
L 342.322909 103.752472 
L 345.517091 106.684611 
L 348.977455 110.181431 
L 352.437818 114.01123 
L 355.898182 118.174062 
L 359.358545 122.670033 
L 363.085091 127.884228 
L 366.811636 133.484627 
L 370.538182 139.471442 
L 374.530909 146.314467 
L 378.523636 153.600808 
L 382.782545 161.861741 
L 387.041455 170.627151 
L 391.300364 179.896985 
L 395.825455 190.29911 
L 400.350545 201.270711 
L 404.875636 212.811733 
L 409.666909 225.652548 
L 414.458182 239.131885 
L 419.515636 254.052677 
L 424.573091 269.684928 
L 426.436364 275.623527 
L 426.436364 275.623527 
" clip-path="url(#p669eebfa1c)" style="fill: none; stroke-dasharray: 3,4.95; stroke-dashoffset: 0; stroke: #0000ff; stroke-width: 3"/>
   </g>
   <g id="line2d_3">
    <path d="M 27.163636 167.763632 
L 33.552 164.980881 
L 40.206545 161.835901 
L 46.861091 158.439509 
L 53.515636 154.791756 
L 60.170182 150.892591 
L 66.824727 146.742066 
L 73.479273 142.340288 
L 80.4 137.495673 
L 87.320727 132.379188 
L 94.241455 126.990831 
L 101.428364 121.107373 
L 108.615273 114.93084 
L 115.802182 108.461071 
L 122.989091 101.698121 
L 130.442182 94.374912 
L 137.895273 86.736518 
L 145.348364 78.782726 
L 153.067636 70.212415 
L 160.786909 61.303957 
L 168.506182 52.057192 
L 176.491636 42.135623 
L 184.477091 31.852092 
L 191.930182 21.927539 
L 192.196364 23.372191 
L 196.189091 55.678572 
L 199.915636 84.12974 
L 203.642182 110.93812 
L 207.368727 136.103499 
L 210.829091 158.000508 
L 214.289455 178.480943 
L 217.483636 196.128652 
L 220.677818 212.56943 
L 223.872 227.803224 
L 226.8 240.707225 
L 229.728 252.59705 
L 232.389818 262.525918 
L 235.051636 271.616503 
L 237.447273 279.081507 
L 239.842909 285.86758 
L 242.238545 291.974693 
L 244.368 296.83324 
L 246.497455 301.155423 
L 248.626909 304.941108 
L 250.490182 307.813551 
L 252.353455 310.275363 
L 253.950545 312.058589 
L 255.547636 313.540002 
L 257.144727 314.719603 
L 258.741818 315.597657 
L 260.072727 316.098751 
L 261.403636 316.390335 
L 262.734545 316.472408 
L 264.065455 316.34489 
L 265.396364 316.007834 
L 266.727273 315.461242 
L 268.058182 314.705111 
L 269.655273 313.521169 
L 271.252364 312.035467 
L 272.849455 310.248032 
L 274.712727 307.781292 
L 276.576 304.903841 
L 278.439273 301.61568 
L 280.568727 297.354952 
L 282.698182 292.557754 
L 284.827636 287.224059 
L 287.223273 280.582527 
L 289.618909 273.262008 
L 292.014545 265.262691 
L 294.676364 255.57815 
L 297.338182 245.055513 
L 300.266182 232.512409 
L 303.194182 218.955341 
L 306.122182 204.383724 
L 309.316364 187.330956 
L 312.510545 169.071363 
L 315.970909 147.927793 
L 319.431273 125.367968 
L 322.891636 101.391513 
L 324.222545 92.497333 
L 327.150545 93.700269 
L 330.078545 95.141618 
L 333.006545 96.821434 
L 335.934545 98.739663 
L 339.128727 101.104298 
L 342.322909 103.752685 
L 345.517091 106.684824 
L 348.977455 110.181644 
L 352.437818 114.011443 
L 355.898182 118.174275 
L 359.358545 122.670246 
L 363.085091 127.884442 
L 366.811636 133.48484 
L 370.538182 139.471655 
L 374.530909 146.31468 
L 378.523636 153.601021 
L 382.782545 161.861954 
L 387.041455 170.627364 
L 391.300364 179.897198 
L 395.825455 190.29927 
L 400.350545 201.270871 
L 404.875636 212.811893 
L 409.666909 225.652708 
L 414.458182 239.132045 
L 419.515636 254.052837 
L 424.573091 269.685087 
L 426.436364 275.623687 
L 426.436364 275.623687 
" clip-path="url(#p669eebfa1c)" style="fill: none; stroke: #0000ff; stroke-width: 3; stroke-linecap: square"/>
   </g>
   <g id="patch_3">
    <path d="M 7.2 331.2 
L 7.2 7.2 
" style="fill: none; stroke: #000000; stroke-width: 0.8; stroke-linejoin: miter; stroke-linecap: square"/>
   </g>
   <g id="patch_4">
    <path d="M 446.4 331.2 
L 446.4 7.2 
" style="fill: none; stroke: #000000; stroke-width: 0.8; stroke-linejoin: miter; stroke-linecap: square"/>
   </g>
   <g id="patch_5">
    <path d="M 7.2 331.2 
L 446.4 331.2 
" style="fill: none; stroke: #000000; stroke-width: 0.8; stroke-linejoin: miter; stroke-linecap: square"/>
   </g>
   <g id="patch_6">
    <path d="M 7.2 7.2 
L 446.4 7.2 
" style="fill: none; stroke: #000000; stroke-width: 0.8; stroke-linejoin: miter; stroke-linecap: square"/>
   </g>
  </g>
 </g>
 <defs>
  <clipPath id="p669eebfa1c">
   <rect x="7.2" y="7.2" width="439.2" height="324"/>
  </clipPath>
 </defs>
</svg>
