<?xml version="1.0" encoding="utf-8" standalone="no"?>
<!DOCTYPE svg PUBLIC "-//W3C//DTD SVG 1.1//EN"
  "http://www.w3.org/Graphics/SVG/1.1/DTD/svg11.dtd">
<svg xmlns:xlink="http://www.w3.org/1999/xlink" width="453.6pt" height="338.4pt" viewBox="0 0 453.6 338.4" xmlns="http://www.w3.org/2000/svg" version="1.1">
 <metadata>
  <rdf:RDF xmlns:dc="http://purl.org/dc/elements/1.1/" xmlns:cc="http://creativecommons.org/ns#" xmlns:rdf="http://www.w3.org/1999/02/22-rdf-syntax-ns#">
   <cc:Work>
    <dc:type rdf:resource="http://purl.org/dc/dcmitype/StillImage"/>
    <dc:date>2025-05-14T00:15:43.869481</dc:date>
    <dc:format>image/svg+xml</dc:format>
    <dc:creator>
     <cc:Agent>
      <dc:title>Matplotlib v3.10.1, https://matplotlib.org/</dc:title>
     </cc:Agent>
    </dc:creator>
   </cc:Work>
  </rdf:RDF>
 </metadata>
 <defs>
  <style type="text/css">*{stroke-linejoin: round; stroke-linecap: butt}</style>
 </defs>
 <g id="figure_1">
  <g id="patch_1">
   <path d="M 0 338.4 
L 453.6 338.4 
L 453.6 0 
L 0 0 
z
" style="fill: #ffffff"/>
  </g>
  <g id="axes_1">
   <g id="patch_2">
    <path d="M 7.2 331.2 
L 446.4 331.2 
L 446.4 7.2 
L 7.2 7.2 
z
" style="fill: #ffffff"/>
   </g>
   <g id="matplotlib.axis_1"/>
   <g id="matplotlib.axis_2"/>
   <g id="line2d_1">
    <path d="M 27.163636 316.472719 
L 29.293091 276.426462 
L 31.156364 245.354233 
L 33.019636 217.860663 
L 34.882909 193.82644 
L 36.48 175.888554 
L 38.077091 160.329384 
L 39.674182 147.073743 
L 41.005091 137.732832 
L 42.336 129.89595 
L 43.666909 123.519595 
L 44.731636 119.440848 
L 45.796364 116.246762 
L 46.594909 114.418333 
L 47.393455 113.065545 
L 48.192 112.179081 
L 48.724364 111.842522 
L 49.256727 111.706283 
L 49.789091 111.767495 
L 50.321455 112.023394 
L 50.853818 112.471297 
L 51.652364 113.496843 
L 52.450909 114.938606 
L 53.249455 116.787167 
L 54.314182 119.868487 
L 55.378909 123.634044 
L 56.709818 129.269201 
L 58.040727 135.895206 
L 59.637818 145.093061 
L 61.234909 155.579861 
L 63.098182 169.343354 
L 65.227636 186.943049 
L 67.357091 206.366673 
L 69.752727 230.176563 
L 72.414545 258.76643 
L 74.277818 279.936777 
L 74.810182 278.011807 
L 78.536727 262.908329 
L 82.263273 248.694276 
L 85.989818 235.308843 
L 89.982545 221.817763 
L 93.975273 209.133317 
L 97.968 197.180805 
L 102.226909 185.153845 
L 106.485818 173.783778 
L 111.010909 162.321355 
L 116.068364 150.132826 
L 121.658182 137.248942 
L 128.845091 121.269855 
L 145.880727 83.618024 
L 151.470545 70.594072 
L 156.528 58.233579 
L 161.053091 46.580862 
L 165.312 35.000252 
L 169.570909 22.818526 
L 171.434182 22.308806 
L 173.297455 22.013064 
L 175.160727 21.927773 
L 177.024 22.049354 
L 178.887273 22.374202 
L 181.016727 22.989687 
L 183.146182 23.860572 
L 185.275636 24.98154 
L 187.405091 26.347223 
L 189.800727 28.16952 
L 192.196364 30.287139 
L 194.592 32.692394 
L 197.253818 35.693081 
L 199.915636 39.029064 
L 202.843636 43.073429 
L 205.771636 47.497064 
L 208.965818 52.738714 
L 212.16 58.39695 
L 215.620364 64.975862 
L 219.346909 72.557398 
L 223.339636 81.220243 
L 227.598545 91.037004 
L 232.123636 102.07242 
L 236.914909 114.380464 
L 241.972364 128.001691 
L 247.562182 143.724075 
L 253.684364 161.636461 
L 260.605091 182.601824 
L 268.856727 208.346421 
L 276.842182 233.757024 
L 277.108364 233.735162 
L 279.770182 202.158029 
L 282.432 173.322994 
L 284.827636 149.729305 
L 287.223273 128.38158 
L 289.352727 111.300881 
L 291.482182 96.012097 
L 293.345455 84.111297 
L 295.208727 73.594285 
L 296.805818 65.685375 
L 298.402909 58.801063 
L 300 52.944454 
L 301.330909 48.85172 
L 302.661818 45.47721 
L 303.726545 43.296038 
L 304.791273 41.576875 
L 305.856 40.320772 
L 306.654545 39.683182 
L 307.453091 39.307043 
L 308.251636 39.19283 
L 309.050182 39.340965 
L 309.848727 39.751867 
L 310.647273 40.426011 
L 311.445818 41.363792 
L 312.510545 43.025007 
L 313.575273 45.156757 
L 314.64 47.760147 
L 315.970909 51.67901 
L 317.301818 56.338333 
L 318.632727 61.740118 
L 320.229818 69.205099 
L 321.826909 77.74581 
L 323.690182 89.073783 
L 325.553455 101.876127 
L 327.416727 116.158076 
L 327.949091 119.962068 
L 330.610909 134.649472 
L 333.006545 146.691604 
L 335.402182 157.668874 
L 337.797818 167.629861 
L 340.193455 176.622871 
L 342.589091 184.69606 
L 344.718545 191.139127 
L 346.848 196.927669 
L 348.977455 202.095489 
L 351.106909 206.676561 
L 353.236364 210.704846 
L 355.365818 214.21424 
L 357.229091 216.885921 
L 359.092364 219.209096 
L 360.955636 221.206383 
L 362.818909 222.900586 
L 364.682182 224.314401 
L 366.545455 225.470568 
L 368.408727 226.391782 
L 370.538182 227.186126 
L 372.667636 227.737228 
L 375.063273 228.108735 
L 377.725091 228.269593 
L 380.653091 228.216816 
L 384.912 227.886889 
L 391.566545 227.359511 
L 394.494545 227.350274 
L 397.156364 227.566751 
L 399.552 228.001312 
L 401.681455 228.618824 
L 403.810909 229.489327 
L 405.674182 230.4852 
L 407.537455 231.72346 
L 409.400727 233.226843 
L 411.264 235.018074 
L 413.127273 237.119903 
L 414.990545 239.554974 
L 416.853818 242.346144 
L 418.717091 245.516032 
L 420.580364 249.087454 
L 422.709818 253.689868 
L 424.839273 258.880254 
L 426.436364 263.17936 
L 426.436364 263.17936 
" clip-path="url(#p84336d3619)" style="fill: none; stroke-dasharray: 11.1,4.8; stroke-dashoffset: 0; stroke: #000000; stroke-width: 3"/>
   </g>
   <g id="line2d_2">
    <path d="M 27.163636 316.472721 
L 29.293091 276.426462 
L 31.156364 245.354233 
L 33.019636 217.860663 
L 34.882909 193.82644 
L 36.48 175.888554 
L 38.077091 160.329384 
L 39.674182 147.073743 
L 41.005091 137.732832 
L 42.336 129.89595 
L 43.666909 123.519595 
L 44.731636 119.440848 
L 45.796364 116.246762 
L 46.594909 114.418333 
L 47.393455 113.065545 
L 48.192 112.179081 
L 48.724364 111.842522 
L 49.256727 111.706283 
L 49.789091 111.767495 
L 50.321455 112.023394 
L 50.853818 112.471297 
L 51.652364 113.496843 
L 52.450909 114.938606 
L 53.249455 116.787167 
L 54.314182 119.868487 
L 55.378909 123.634044 
L 56.709818 129.269201 
L 58.040727 135.895206 
L 59.637818 145.093061 
L 61.234909 155.579861 
L 63.098182 169.343354 
L 65.227636 186.943049 
L 67.357091 206.366673 
L 69.752727 230.176563 
L 72.414545 258.76643 
L 74.277818 279.936777 
L 74.810182 278.011807 
L 78.536727 262.908329 
L 82.263273 248.694276 
L 85.989818 235.308843 
L 89.982545 221.817763 
L 93.975273 209.133317 
L 97.968 197.180805 
L 102.226909 185.153845 
L 106.485818 173.783778 
L 111.010909 162.321355 
L 116.068364 150.132826 
L 121.658182 137.248942 
L 128.845091 121.269855 
L 145.880727 83.618024 
L 151.470545 70.594072 
L 156.528 58.233579 
L 161.053091 46.580862 
L 165.312 35.000252 
L 169.570909 22.818526 
L 171.434182 22.308806 
L 173.297455 22.013064 
L 175.160727 21.927773 
L 177.024 22.049354 
L 178.887273 22.374202 
L 181.016727 22.989687 
L 183.146182 23.860572 
L 185.275636 24.98154 
L 187.405091 26.347223 
L 189.800727 28.16952 
L 192.196364 30.287139 
L 194.592 32.692394 
L 197.253818 35.693081 
L 199.915636 39.029064 
L 202.843636 43.073429 
L 205.771636 47.497064 
L 208.965818 52.738714 
L 212.16 58.39695 
L 215.620364 64.975862 
L 219.346909 72.557398 
L 223.339636 81.220243 
L 227.598545 91.037004 
L 232.123636 102.07242 
L 236.914909 114.380464 
L 241.972364 128.001691 
L 247.562182 143.724075 
L 253.684364 161.636461 
L 260.605091 182.601824 
L 268.856727 208.346421 
L 276.842182 233.757024 
L 277.108364 233.735162 
L 279.770182 202.158029 
L 282.432 173.322994 
L 284.827636 149.729305 
L 287.223273 128.38158 
L 289.352727 111.300881 
L 291.482182 96.012097 
L 293.345455 84.111297 
L 295.208727 73.594285 
L 296.805818 65.685375 
L 298.402909 58.801063 
L 300 52.944454 
L 301.330909 48.85172 
L 302.661818 45.47721 
L 303.726545 43.296038 
L 304.791273 41.576875 
L 305.856 40.320772 
L 306.654545 39.683182 
L 307.453091 39.307043 
L 308.251636 39.19283 
L 309.050182 39.340965 
L 309.848727 39.751867 
L 310.647273 40.426011 
L 311.445818 41.363792 
L 312.510545 43.025007 
L 313.575273 45.156757 
L 314.64 47.760147 
L 315.970909 51.67901 
L 317.301818 56.338333 
L 318.632727 61.740118 
L 320.229818 69.205099 
L 321.826909 77.74581 
L 323.690182 89.073783 
L 325.553455 101.876127 
L 327.416727 116.158076 
L 327.949091 119.962068 
L 330.610909 134.649472 
L 333.006545 146.691604 
L 335.402182 157.668874 
L 337.797818 167.629861 
L 340.193455 176.622871 
L 342.589091 184.69606 
L 344.718545 191.139127 
L 346.848 196.927669 
L 348.977455 202.095489 
L 351.106909 206.676561 
L 353.236364 210.704846 
L 355.365818 214.21424 
L 357.229091 216.885921 
L 359.092364 219.209096 
L 360.955636 221.206383 
L 362.818909 222.900586 
L 364.682182 224.314401 
L 366.545455 225.470568 
L 368.408727 226.391782 
L 370.538182 227.186126 
L 372.667636 227.737228 
L 375.063273 228.108735 
L 377.725091 228.269593 
L 380.653091 228.216816 
L 384.912 227.886889 
L 391.566545 227.359511 
L 394.494545 227.350274 
L 397.156364 227.566751 
L 399.552 228.001312 
L 401.681455 228.618824 
L 403.810909 229.489327 
L 405.674182 230.4852 
L 407.537455 231.72346 
L 409.400727 233.226843 
L 411.264 235.018074 
L 413.127273 237.119903 
L 414.990545 239.554974 
L 416.853818 242.346144 
L 418.717091 245.516032 
L 420.580364 249.087454 
L 422.709818 253.689868 
L 424.839273 258.880254 
L 426.436364 263.17936 
L 426.436364 263.17936 
" clip-path="url(#p84336d3619)" style="fill: none; stroke-dasharray: 3,4.95; stroke-dashoffset: 0; stroke: #0000ff; stroke-width: 3"/>
   </g>
   <g id="line2d_3">
    <path d="M 27.163636 316.472727 
L 29.293091 276.426475 
L 31.156364 245.354253 
L 33.019636 217.860676 
L 34.882909 193.826453 
L 36.48 175.888581 
L 38.077091 160.32941 
L 39.674182 147.073769 
L 41.005091 137.732859 
L 42.336 129.895976 
L 43.666909 123.519621 
L 44.731636 119.440874 
L 45.796364 116.246788 
L 46.594909 114.41836 
L 47.393455 113.065571 
L 48.192 112.179107 
L 48.724364 111.842549 
L 49.256727 111.706309 
L 49.789091 111.767521 
L 50.321455 112.02342 
L 50.853818 112.471323 
L 51.652364 113.496869 
L 52.450909 114.938632 
L 53.249455 116.787193 
L 54.314182 119.868514 
L 55.378909 123.63407 
L 56.709818 129.269228 
L 58.040727 135.895232 
L 59.637818 145.093087 
L 61.234909 155.579888 
L 63.098182 169.34338 
L 65.227636 186.943062 
L 67.357091 206.366686 
L 69.752727 230.176576 
L 72.414545 258.76645 
L 74.277818 279.93679 
L 74.810182 278.01182 
L 78.536727 262.908342 
L 82.263273 248.694295 
L 85.989818 235.308862 
L 89.982545 221.817776 
L 93.975273 209.13333 
L 97.968 197.180818 
L 102.226909 185.153858 
L 106.485818 173.783805 
L 111.010909 162.321381 
L 116.068364 150.132852 
L 121.658182 137.248968 
L 128.845091 121.269882 
L 145.880727 83.618051 
L 151.470545 70.594098 
L 156.528 58.233605 
L 161.053091 46.580889 
L 165.312 35.000279 
L 169.570909 22.818552 
L 171.434182 22.308832 
L 173.297455 22.01309 
L 175.160727 21.927799 
L 177.024 22.04938 
L 178.887273 22.374228 
L 181.016727 22.989714 
L 183.146182 23.860598 
L 185.275636 24.981566 
L 187.405091 26.34725 
L 189.800727 28.169547 
L 192.196364 30.287165 
L 194.592 32.69242 
L 197.253818 35.693107 
L 199.915636 39.02909 
L 202.843636 43.073455 
L 205.771636 47.49709 
L 208.965818 52.73874 
L 212.16 58.396977 
L 215.620364 64.975888 
L 219.346909 72.557424 
L 223.339636 81.220269 
L 227.598545 91.03703 
L 232.123636 102.072446 
L 236.914909 114.380491 
L 241.972364 128.001717 
L 247.562182 143.724101 
L 253.684364 161.636487 
L 260.605091 182.601837 
L 268.856727 208.346434 
L 276.842182 233.757044 
L 277.108364 233.735182 
L 279.770182 202.158042 
L 282.432 173.32302 
L 284.827636 149.729331 
L 287.223273 128.381606 
L 289.352727 111.300907 
L 291.482182 96.012123 
L 293.345455 84.111323 
L 295.208727 73.594312 
L 296.805818 65.685402 
L 298.402909 58.801089 
L 300 52.944481 
L 301.330909 48.851747 
L 302.661818 45.477237 
L 303.726545 43.296064 
L 304.791273 41.576901 
L 305.856 40.320799 
L 306.654545 39.683208 
L 307.453091 39.307069 
L 308.251636 39.192857 
L 309.050182 39.340991 
L 309.848727 39.751893 
L 310.647273 40.426037 
L 311.445818 41.363818 
L 312.510545 43.025033 
L 313.575273 45.156783 
L 314.64 47.760174 
L 315.970909 51.679036 
L 317.301818 56.338359 
L 318.632727 61.740144 
L 320.229818 69.205125 
L 321.826909 77.745836 
L 323.690182 89.07381 
L 325.553455 101.876153 
L 327.416727 116.158102 
L 327.949091 119.962094 
L 330.610909 134.649499 
L 333.006545 146.69163 
L 335.402182 157.6689 
L 337.797818 167.629888 
L 340.193455 176.622897 
L 342.589091 184.696073 
L 344.718545 191.13914 
L 346.848 196.927682 
L 348.977455 202.095502 
L 351.106909 206.676574 
L 353.236364 210.704859 
L 355.365818 214.214253 
L 357.229091 216.885935 
L 359.092364 219.209109 
L 360.955636 221.206396 
L 362.818909 222.900599 
L 364.682182 224.314415 
L 366.545455 225.470581 
L 368.408727 226.391795 
L 370.538182 227.186139 
L 372.667636 227.737241 
L 375.063273 228.108748 
L 377.725091 228.269607 
L 380.653091 228.216829 
L 384.912 227.886902 
L 391.566545 227.359524 
L 394.494545 227.350287 
L 397.156364 227.566765 
L 399.552 228.001325 
L 401.681455 228.618837 
L 403.810909 229.48934 
L 405.674182 230.485214 
L 407.537455 231.723473 
L 409.400727 233.226857 
L 411.264 235.018094 
L 413.127273 237.119922 
L 414.990545 239.554994 
L 416.853818 242.346164 
L 418.717091 245.516052 
L 420.580364 249.087474 
L 422.709818 253.689888 
L 424.839273 258.880274 
L 426.436364 263.179374 
L 426.436364 263.179374 
" clip-path="url(#p84336d3619)" style="fill: none; stroke: #0000ff; stroke-width: 3; stroke-linecap: square"/>
   </g>
   <g id="patch_3">
    <path d="M 7.2 331.2 
L 7.2 7.2 
" style="fill: none; stroke: #000000; stroke-width: 0.8; stroke-linejoin: miter; stroke-linecap: square"/>
   </g>
   <g id="patch_4">
    <path d="M 446.4 331.2 
L 446.4 7.2 
" style="fill: none; stroke: #000000; stroke-width: 0.8; stroke-linejoin: miter; stroke-linecap: square"/>
   </g>
   <g id="patch_5">
    <path d="M 7.2 331.2 
L 446.4 331.2 
" style="fill: none; stroke: #000000; stroke-width: 0.8; stroke-linejoin: miter; stroke-linecap: square"/>
   </g>
   <g id="patch_6">
    <path d="M 7.2 7.2 
L 446.4 7.2 
" style="fill: none; stroke: #000000; stroke-width: 0.8; stroke-linejoin: miter; stroke-linecap: square"/>
   </g>
  </g>
 </g>
 <defs>
  <clipPath id="p84336d3619">
   <rect x="7.2" y="7.2" width="439.2" height="324"/>
  </clipPath>
 </defs>
</svg>
