<?xml version="1.0" encoding="utf-8" standalone="no"?>
<!DOCTYPE svg PUBLIC "-//W3C//DTD SVG 1.1//EN"
  "http://www.w3.org/Graphics/SVG/1.1/DTD/svg11.dtd">
<svg xmlns:xlink="http://www.w3.org/1999/xlink" width="453.6pt" height="338.4pt" viewBox="0 0 453.6 338.4" xmlns="http://www.w3.org/2000/svg" version="1.1">
 <metadata>
  <rdf:RDF xmlns:dc="http://purl.org/dc/elements/1.1/" xmlns:cc="http://creativecommons.org/ns#" xmlns:rdf="http://www.w3.org/1999/02/22-rdf-syntax-ns#">
   <cc:Work>
    <dc:type rdf:resource="http://purl.org/dc/dcmitype/StillImage"/>
    <dc:date>2025-05-14T00:23:59.605601</dc:date>
    <dc:format>image/svg+xml</dc:format>
    <dc:creator>
     <cc:Agent>
      <dc:title>Matplotlib v3.10.1, https://matplotlib.org/</dc:title>
     </cc:Agent>
    </dc:creator>
   </cc:Work>
  </rdf:RDF>
 </metadata>
 <defs>
  <style type="text/css">*{stroke-linejoin: round; stroke-linecap: butt}</style>
 </defs>
 <g id="figure_1">
  <g id="patch_1">
   <path d="M 0 338.4 
L 453.6 338.4 
L 453.6 0 
L 0 0 
z
" style="fill: #ffffff"/>
  </g>
  <g id="axes_1">
   <g id="patch_2">
    <path d="M 7.2 331.2 
L 446.4 331.2 
L 446.4 7.2 
L 7.2 7.2 
z
" style="fill: #ffffff"/>
   </g>
   <g id="matplotlib.axis_1"/>
   <g id="matplotlib.axis_2"/>
   <g id="line2d_1">
    <path d="M 27.163636 316.472619 
L 31.954909 316.37219 
L 36.746182 316.056399 
L 41.537455 315.525239 
L 46.328727 314.77871 
L 51.12 313.8168 
L 56.177455 312.567803 
L 61.234909 311.078848 
L 66.292364 309.349931 
L 71.349818 307.381038 
L 76.407273 305.172183 
L 81.464727 302.723376 
L 86.522182 300.034595 
L 91.845818 296.945037 
L 97.169455 293.589634 
L 102.493091 289.968302 
L 107.816727 286.081101 
L 113.140364 281.92802 
L 118.730182 277.281103 
L 124.32 272.341039 
L 129.909818 267.107841 
L 135.765818 261.311044 
L 141.621818 255.192499 
L 147.477818 248.752231 
L 153.333818 241.990263 
L 159.456 234.576907 
L 165.578182 226.81194 
L 171.700364 218.695311 
L 178.088727 209.850889 
L 184.477091 200.623594 
L 190.865455 191.013427 
L 197.52 180.595643 
L 204.174545 169.762475 
L 210.829091 158.513802 
L 217.749818 146.374488 
L 224.670545 133.785858 
L 231.857455 120.237377 
L 239.044364 106.204349 
L 246.231273 91.686726 
L 253.684364 76.119634 
L 261.137455 60.031393 
L 268.856727 42.819105 
L 276.576 25.047766 
L 277.906909 21.927273 
L 278.173091 22.60494 
L 283.230545 44.550092 
L 288.288 65.527837 
L 293.345455 85.538004 
L 298.136727 103.602911 
L 302.928 120.799508 
L 307.453091 136.243533 
L 311.978182 150.913125 
L 316.503273 164.808237 
L 320.762182 177.17855 
L 325.021091 188.862941 
L 329.013818 199.193996 
L 333.006545 208.922153 
L 336.999273 218.047316 
L 340.725818 226.020157 
L 344.452364 233.467805 
L 347.912727 239.913199 
L 351.373091 245.905728 
L 354.833455 251.445368 
L 358.027636 256.156948 
L 361.221818 260.482647 
L 364.416 264.422441 
L 367.344 267.694977 
L 370.272 270.643238 
L 373.2 273.267273 
L 375.861818 275.371386 
L 378.523636 277.207536 
L 381.185455 278.775724 
L 383.847273 280.075926 
L 386.509091 281.108165 
L 388.904727 281.808068 
L 391.300364 282.290918 
L 393.696 282.556703 
L 396.091636 282.605446 
L 398.487273 282.437124 
L 400.882909 282.051761 
L 403.278545 281.449321 
L 405.674182 280.62984 
L 408.069818 279.593305 
L 410.731636 278.187025 
L 413.393455 276.512783 
L 416.055273 274.570567 
L 418.717091 272.360387 
L 421.645091 269.619662 
L 424.573091 266.55471 
L 426.436364 264.43546 
L 426.436364 264.43546 
" clip-path="url(#pd09bfd3a7d)" style="fill: none; stroke-dasharray: 11.1,4.8; stroke-dashoffset: 0; stroke: #000000; stroke-width: 3"/>
   </g>
   <g id="line2d_2">
    <path d="M 27.163636 316.472655 
L 31.954909 316.372226 
L 36.746182 316.056435 
L 41.537455 315.525275 
L 46.328727 314.778746 
L 51.12 313.816836 
L 56.177455 312.567839 
L 61.234909 311.078884 
L 66.292364 309.349967 
L 71.349818 307.381074 
L 76.407273 305.172219 
L 81.464727 302.723412 
L 86.522182 300.034631 
L 91.845818 296.945073 
L 97.169455 293.58967 
L 102.493091 289.968338 
L 107.816727 286.081137 
L 113.140364 281.928056 
L 118.730182 277.281139 
L 124.32 272.341075 
L 129.909818 267.10789 
L 135.765818 261.311092 
L 141.621818 255.192547 
L 147.477818 248.752279 
L 153.333818 241.990312 
L 159.456 234.576956 
L 165.578182 226.812 
L 171.700364 218.695372 
L 178.088727 209.850961 
L 184.477091 200.623667 
L 190.865455 191.0135 
L 197.52 180.595715 
L 204.174545 169.762547 
L 210.829091 158.513874 
L 217.749818 146.37456 
L 224.670545 133.78593 
L 231.857455 120.237473 
L 239.044364 106.204445 
L 246.231273 91.686823 
L 253.684364 76.119731 
L 261.137455 60.031489 
L 268.856727 42.819226 
L 276.576 25.047887 
L 277.906909 21.927393 
L 278.173091 22.60506 
L 283.230545 44.550213 
L 288.288 65.527933 
L 293.345455 85.5381 
L 298.136727 103.603007 
L 302.928 120.799605 
L 307.453091 136.243605 
L 311.978182 150.913197 
L 316.503273 164.808309 
L 320.762182 177.178622 
L 325.021091 188.863013 
L 329.013818 199.194068 
L 333.006545 208.922225 
L 336.999273 218.047376 
L 340.725818 226.020217 
L 344.452364 233.467853 
L 347.912727 239.913247 
L 351.373091 245.905776 
L 354.833455 251.445416 
L 358.027636 256.156996 
L 361.221818 260.482695 
L 364.416 264.422489 
L 367.344 267.695025 
L 370.272 270.643286 
L 373.2 273.267309 
L 375.861818 275.371422 
L 378.523636 277.207572 
L 381.185455 278.775761 
L 383.847273 280.075962 
L 386.509091 281.108201 
L 388.904727 281.808104 
L 391.300364 282.290954 
L 393.696 282.556739 
L 396.091636 282.605482 
L 398.487273 282.43716 
L 400.882909 282.051797 
L 403.278545 281.449357 
L 405.674182 280.629876 
L 408.069818 279.593341 
L 410.731636 278.187061 
L 413.393455 276.512819 
L 416.055273 274.570603 
L 418.717091 272.360424 
L 421.645091 269.61971 
L 424.573091 266.554758 
L 426.436364 264.435508 
L 426.436364 264.435508 
" clip-path="url(#pd09bfd3a7d)" style="fill: none; stroke-dasharray: 3,4.95; stroke-dashoffset: 0; stroke: #ff0000; stroke-width: 3"/>
   </g>
   <g id="line2d_3">
    <path d="M 27.163636 316.472613 
L 31.954909 316.372184 
L 36.746182 316.056393 
L 41.537455 315.525233 
L 46.328727 314.778704 
L 51.12 313.816794 
L 56.177455 312.567797 
L 61.234909 311.078848 
L 66.292364 309.349931 
L 71.349818 307.381038 
L 76.407273 305.172183 
L 81.464727 302.723376 
L 86.522182 300.034595 
L 91.845818 296.945037 
L 97.169455 293.589634 
L 102.493091 289.968302 
L 107.816727 286.081101 
L 113.140364 281.92802 
L 118.730182 277.281103 
L 124.32 272.341039 
L 129.909818 267.107841 
L 135.765818 261.311044 
L 141.621818 255.192499 
L 147.477818 248.752231 
L 153.333818 241.990263 
L 159.456 234.576907 
L 165.578182 226.81194 
L 171.700364 218.695311 
L 178.088727 209.850889 
L 184.477091 200.623594 
L 190.865455 191.013427 
L 197.52 180.595643 
L 204.174545 169.762475 
L 210.829091 158.513802 
L 217.749818 146.374488 
L 224.670545 133.785858 
L 231.857455 120.237377 
L 239.044364 106.204349 
L 246.231273 91.686726 
L 253.684364 76.119634 
L 261.137455 60.031393 
L 268.856727 42.819105 
L 276.576 25.047766 
L 277.906909 21.927273 
L 278.173091 22.60494 
L 283.230545 44.550092 
L 288.288 65.527837 
L 293.345455 85.538004 
L 298.136727 103.602911 
L 302.928 120.799508 
L 307.453091 136.243533 
L 311.978182 150.913125 
L 316.503273 164.808237 
L 320.762182 177.17855 
L 325.021091 188.862941 
L 329.013818 199.193996 
L 333.006545 208.922153 
L 336.999273 218.047316 
L 340.725818 226.020157 
L 344.452364 233.467805 
L 347.912727 239.913199 
L 351.373091 245.905728 
L 354.833455 251.445368 
L 358.027636 256.156948 
L 361.221818 260.482647 
L 364.416 264.422441 
L 367.344 267.694977 
L 370.272 270.643238 
L 373.2 273.267273 
L 375.861818 275.371386 
L 378.523636 277.207536 
L 381.185455 278.775724 
L 383.847273 280.075926 
L 386.509091 281.108165 
L 388.904727 281.808068 
L 391.300364 282.290918 
L 393.696 282.556703 
L 396.091636 282.605446 
L 398.487273 282.437124 
L 400.882909 282.051761 
L 403.278545 281.449321 
L 405.674182 280.62984 
L 408.069818 279.593305 
L 410.731636 278.187025 
L 413.393455 276.512783 
L 416.055273 274.570567 
L 418.717091 272.360387 
L 421.645091 269.619662 
L 424.573091 266.55471 
L 426.436364 264.43546 
L 426.436364 264.43546 
" clip-path="url(#pd09bfd3a7d)" style="fill: none; stroke: #ff0000; stroke-width: 3; stroke-linecap: square"/>
   </g>
   <g id="patch_3">
    <path d="M 7.2 331.2 
L 7.2 7.2 
" style="fill: none; stroke: #000000; stroke-width: 0.8; stroke-linejoin: miter; stroke-linecap: square"/>
   </g>
   <g id="patch_4">
    <path d="M 446.4 331.2 
L 446.4 7.2 
" style="fill: none; stroke: #000000; stroke-width: 0.8; stroke-linejoin: miter; stroke-linecap: square"/>
   </g>
   <g id="patch_5">
    <path d="M 7.2 331.2 
L 446.4 331.2 
" style="fill: none; stroke: #000000; stroke-width: 0.8; stroke-linejoin: miter; stroke-linecap: square"/>
   </g>
   <g id="patch_6">
    <path d="M 7.2 7.2 
L 446.4 7.2 
" style="fill: none; stroke: #000000; stroke-width: 0.8; stroke-linejoin: miter; stroke-linecap: square"/>
   </g>
  </g>
 </g>
 <defs>
  <clipPath id="pd09bfd3a7d">
   <rect x="7.2" y="7.2" width="439.2" height="324"/>
  </clipPath>
 </defs>
</svg>
