<?xml version="1.0" encoding="utf-8" standalone="no"?>
<!DOCTYPE svg PUBLIC "-//W3C//DTD SVG 1.1//EN"
  "http://www.w3.org/Graphics/SVG/1.1/DTD/svg11.dtd">
<svg xmlns:xlink="http://www.w3.org/1999/xlink" width="453.6pt" height="338.4pt" viewBox="0 0 453.6 338.4" xmlns="http://www.w3.org/2000/svg" version="1.1">
 <metadata>
  <rdf:RDF xmlns:dc="http://purl.org/dc/elements/1.1/" xmlns:cc="http://creativecommons.org/ns#" xmlns:rdf="http://www.w3.org/1999/02/22-rdf-syntax-ns#">
   <cc:Work>
    <dc:type rdf:resource="http://purl.org/dc/dcmitype/StillImage"/>
    <dc:date>2025-05-14T00:15:27.291661</dc:date>
    <dc:format>image/svg+xml</dc:format>
    <dc:creator>
     <cc:Agent>
      <dc:title>Matplotlib v3.10.1, https://matplotlib.org/</dc:title>
     </cc:Agent>
    </dc:creator>
   </cc:Work>
  </rdf:RDF>
 </metadata>
 <defs>
  <style type="text/css">*{stroke-linejoin: round; stroke-linecap: butt}</style>
 </defs>
 <g id="figure_1">
  <g id="patch_1">
   <path d="M 0 338.4 
L 453.6 338.4 
L 453.6 0 
L 0 0 
z
" style="fill: #ffffff"/>
  </g>
  <g id="axes_1">
   <g id="patch_2">
    <path d="M 7.2 331.2 
L 446.4 331.2 
L 446.4 7.2 
L 7.2 7.2 
z
" style="fill: #ffffff"/>
   </g>
   <g id="matplotlib.axis_1"/>
   <g id="matplotlib.axis_2"/>
   <g id="line2d_1">
    <path d="M 27.163636 316.472727 
L 29.026909 293.214979 
L 30.890182 272.790511 
L 32.753455 255.00866 
L 34.350545 241.725841 
L 35.947636 230.124375 
L 37.544727 220.084197 
L 39.141818 211.485217 
L 40.738909 204.207416 
L 42.069818 199.065139 
L 43.400727 194.687463 
L 44.731636 191.004908 
L 46.062545 187.947937 
L 47.393455 185.44713 
L 48.724364 183.432957 
L 50.055273 181.835981 
L 51.386182 180.586663 
L 52.717091 179.615562 
L 54.314182 178.719611 
L 56.709818 177.676529 
L 59.371636 176.500896 
L 60.968727 175.564767 
L 62.299636 174.545447 
L 63.630545 173.23453 
L 64.961455 171.562546 
L 66.292364 169.460016 
L 67.623273 166.857432 
L 68.954182 163.685305 
L 70.285091 159.874186 
L 71.616 155.354565 
L 72.946909 150.056954 
L 74.277818 143.911873 
L 75.608727 136.849844 
L 77.205818 127.06718 
L 78.802909 115.743973 
L 80.4 102.760214 
L 81.997091 87.995651 
L 83.328 75.799669 
L 85.191273 72.96748 
L 87.054545 70.516809 
L 88.917818 68.410788 
L 90.781091 66.612792 
L 92.910545 64.887947 
L 95.04 63.46263 
L 97.435636 62.148928 
L 100.097455 60.957494 
L 103.824 59.56614 
L 109.413818 57.494022 
L 112.075636 56.26463 
L 114.471273 54.902295 
L 116.600727 53.422291 
L 118.464 51.874604 
L 120.327273 50.052593 
L 122.190545 47.919593 
L 124.053818 45.438834 
L 125.917091 42.573611 
L 127.780364 39.287135 
L 129.643636 35.54282 
L 131.506909 31.303819 
L 133.370182 26.533465 
L 134.967273 21.993805 
L 135.233455 21.927273 
L 152.269091 39.044251 
L 167.175273 53.712778 
L 180.750545 66.766239 
L 193.261091 78.496734 
L 205.239273 89.42458 
L 216.418909 99.327475 
L 227.066182 108.468321 
L 237.447273 117.086028 
L 247.296 124.973873 
L 256.612364 132.160996 
L 265.662545 138.872765 
L 274.446545 145.119571 
L 280.302545 149.131348 
L 280.834909 149.118716 
L 284.827636 148.477645 
L 289.086545 147.559405 
L 293.345455 146.415637 
L 297.870545 144.971855 
L 302.661818 143.208548 
L 307.719273 141.111225 
L 313.309091 138.544339 
L 319.431273 135.476672 
L 326.352 131.746928 
L 334.603636 127.032915 
L 347.114182 119.591467 
L 361.754182 110.94123 
L 369.739636 106.478436 
L 376.394182 103.000252 
L 382.250182 100.174783 
L 387.84 97.72506 
L 392.897455 95.748897 
L 397.688727 94.113589 
L 402.213818 92.802631 
L 406.472727 91.794289 
L 410.731636 91.021767 
L 414.724364 90.526536 
L 418.450909 90.276731 
L 422.177455 90.243515 
L 425.904 90.438068 
L 426.436364 90.485107 
L 426.436364 90.485107 
" clip-path="url(#p877c6faf41)" style="fill: none; stroke-dasharray: 11.1,4.8; stroke-dashoffset: 0; stroke: #000000; stroke-width: 3"/>
   </g>
   <g id="line2d_2">
    <path d="M 27.163636 139.936601 
L 27.429818 136.147145 
L 27.696 135.607962 
L 27.962182 135.601746 
L 28.228364 135.885292 
L 29.026909 135.904322 
L 29.293091 136.233837 
L 30.091636 136.069352 
L 30.357818 136.25997 
L 31.156364 135.665151 
L 31.422545 137.285848 
L 32.221091 136.429561 
L 32.487273 136.561577 
L 33.285818 135.568268 
L 33.552 135.586995 
L 34.350545 134.983136 
L 34.616727 134.976355 
L 35.415273 134.254808 
L 35.681455 136.02538 
L 36.213818 135.290514 
L 36.48 134.87584 
L 36.746182 135.550994 
L 37.278545 134.492566 
L 37.544727 133.990211 
L 37.810909 134.760432 
L 38.609455 134.161093 
L 38.875636 135.108149 
L 39.408 134.069114 
L 39.674182 133.414583 
L 39.940364 134.58624 
L 40.472727 132.715435 
L 40.738909 131.684532 
L 41.005091 131.365692 
L 41.803636 129.376855 
L 42.069818 129.291313 
L 42.602182 128.731768 
L 42.868364 128.536691 
L 43.134545 128.621284 
L 43.933091 128.328819 
L 44.199273 118.783792 
L 44.465455 120.223174 
L 44.731636 118.652644 
L 44.997818 117.904802 
L 45.264 117.611469 
L 46.062545 114.411382 
L 46.328727 114.224679 
L 46.861091 113.019201 
L 47.127273 112.603558 
L 47.393455 112.791432 
L 48.192 111.605064 
L 48.458182 113.93516 
L 48.724364 113.125992 
L 49.256727 112.194535 
L 49.522909 112.268937 
L 50.321455 110.906662 
L 50.587636 111.113424 
L 51.12 110.651913 
L 51.386182 110.469871 
L 51.652364 110.939111 
L 52.450909 110.529745 
L 52.717091 108.442633 
L 52.983273 108.686243 
L 53.249455 108.682792 
L 53.515636 108.801368 
L 54.580364 110.73013 
L 55.645091 116.498958 
L 56.177455 121.0838 
L 56.709818 123.976872 
L 56.976 127.667629 
L 57.508364 129.673417 
L 57.774545 130.244625 
L 58.306909 131.907276 
L 59.371636 133.781693 
L 60.436364 135.411835 
L 60.968727 136.189845 
L 61.234909 110.262201 
L 61.767273 110.974426 
L 62.033455 111.143189 
L 62.299636 111.720209 
L 62.832 112.081528 
L 63.098182 112.118336 
L 63.364364 112.670414 
L 64.162909 113.246889 
L 64.429091 113.818097 
L 65.227636 114.393261 
L 65.493818 116.564563 
L 66.292364 117.915537 
L 66.824727 119.563013 
L 67.090909 120.230802 
L 67.357091 120.415467 
L 67.889455 122.6038 
L 68.155636 123.78135 
L 68.421818 124.325417 
L 68.954182 127.140493 
L 69.220364 128.296693 
L 69.486545 128.943717 
L 69.752727 127.103363 
L 70.018909 128.5984 
L 70.817455 130.681759 
L 71.349818 132.25013 
L 71.616 132.590119 
L 72.414545 135.44949 
L 72.680727 135.918488 
L 73.479273 138.461703 
L 73.745455 138.903922 
L 74.011636 140.443255 
L 74.544 141.290159 
L 74.810182 141.364784 
L 75.608727 142.109255 
L 75.874909 141.985654 
L 76.407273 142.012675 
L 76.673455 141.987067 
L 76.939636 141.543859 
L 77.472 140.990328 
L 77.738182 140.534972 
L 78.004364 138.684911 
L 78.270545 121.999497 
L 79.601455 115.705813 
L 80.4 113.910258 
L 80.932364 113.422009 
L 81.464727 113.129261 
L 82.263273 112.927887 
L 82.795636 112.965422 
L 86.522182 112.929199 
L 86.788364 112.746895 
L 88.385455 112.624283 
L 89.184 112.560394 
L 91.047273 112.824244 
L 92.378182 112.914488 
L 93.176727 112.890575 
L 95.04 112.687627 
L 95.306182 112.887346 
L 96.370909 112.683773 
L 97.968 112.236831 
L 98.766545 112.16368 
L 99.298909 112.128688 
L 99.565091 112.324008 
L 103.291636 112.165496 
L 103.824 112.140009 
L 105.421091 111.77861 
L 105.953455 111.605064 
L 109.147636 111.11742 
L 110.212364 110.608103 
L 111.277091 109.714664 
L 112.075636 108.757962 
L 112.341818 106.706023 
L 115.536 99.649362 
L 116.334545 98.198881 
L 116.600727 98.045434 
L 117.399273 97.030271 
L 119.528727 94.938155 
L 121.125818 94.099928 
L 123.255273 93.287672 
L 128.845091 92.324169 
L 129.111273 92.30514 
L 129.377455 93.591599 
L 130.442182 93.643421 
L 132.305455 93.68487 
L 136.564364 94.592556 
L 138.427636 95.462869 
L 139.758545 96.536493 
L 140.290909 97.100618 
L 141.888 98.311767 
L 142.420364 98.754854 
L 144.816 99.477168 
L 147.211636 99.570802 
L 155.995636 98.632423 
L 163.182545 98.044425 
L 163.448727 98.33235 
L 165.312 98.302807 
L 169.304727 98.421908 
L 173.031273 98.475546 
L 178.354909 98.650585 
L 179.952 98.422271 
L 180.218182 98.369441 
L 180.484364 98.133398 
L 183.944727 97.049866 
L 186.606545 96.206089 
L 188.469818 95.719232 
L 190.333091 95.832199 
L 191.131636 96.009478 
L 191.664 96.131969 
L 192.196364 96.519118 
L 192.728727 97.084353 
L 193.527273 98.485595 
L 194.325818 100.440086 
L 195.922909 104.20686 
L 196.721455 105.494773 
L 198.052364 106.911231 
L 198.850909 107.513698 
L 200.181818 108.192121 
L 201.512727 108.910198 
L 202.843636 109.453195 
L 204.440727 109.901085 
L 209.498182 111.015552 
L 211.095273 111.461787 
L 212.692364 111.915348 
L 214.289455 111.765069 
L 215.886545 111.47559 
L 216.951273 111.302367 
L 218.548364 111.095141 
L 222.274909 110.699154 
L 224.138182 110.305507 
L 224.936727 110.126069 
L 228.929455 110.663193 
L 231.058909 110.634377 
L 232.123636 110.421541 
L 232.922182 110.092833 
L 234.519273 109.349773 
L 235.317818 109.23709 
L 236.116364 109.358673 
L 236.914909 109.885546 
L 237.447273 110.352385 
L 238.245818 111.167183 
L 240.109091 112.831549 
L 242.238545 114.133265 
L 243.569455 114.476018 
L 252.619636 115.674212 
L 260.072727 115.927367 
L 262.202182 115.648281 
L 268.856727 114.152779 
L 269.389091 113.907171 
L 269.921455 113.761957 
L 270.453818 113.515038 
L 270.986182 113.379006 
L 271.518545 113.110978 
L 272.050909 112.962576 
L 272.849455 112.542979 
L 273.115636 112.451383 
L 273.381818 111.564119 
L 273.914182 111.353785 
L 274.446545 111.105695 
L 274.978909 110.887572 
L 275.511273 110.663637 
L 276.842182 109.963601 
L 281.633455 107.710491 
L 281.899636 107.362006 
L 283.496727 106.682655 
L 284.561455 106.557379 
L 287.755636 106.392026 
L 289.086545 106.353805 
L 289.618909 106.192004 
L 290.151273 106.151806 
L 290.417455 104.693596 
L 291.482182 104.560975 
L 292.546909 104.555062 
L 293.345455 104.732624 
L 294.676364 105.171271 
L 295.741091 105.265127 
L 296.805818 105.13858 
L 297.870545 104.634732 
L 298.669091 104.030126 
L 298.935273 103.506481 
L 303.726545 98.711326 
L 305.323636 97.578192 
L 306.122182 97.158372 
L 306.920727 96.776127 
L 307.186909 96.629198 
L 307.453091 96.298311 
L 308.251636 95.951501 
L 309.848727 95.693322 
L 311.712 95.710152 
L 314.64 95.8817 
L 315.172364 95.709748 
L 315.704727 95.607396 
L 315.970909 95.306011 
L 318.366545 94.231459 
L 319.963636 93.409154 
L 320.496 92.992583 
L 321.028364 92.659173 
L 321.294545 92.357446 
L 321.826909 92.087905 
L 322.093091 91.883463 
L 322.359273 91.464168 
L 322.891636 91.137862 
L 323.157818 90.930353 
L 323.424 90.448198 
L 323.956364 90.211893 
L 324.222545 90.026643 
L 324.488727 89.055875 
L 326.884364 87.974926 
L 332.740364 86.846918 
L 333.006545 86.148537 
L 334.071273 85.903272 
L 338.330182 85.304175 
L 340.193455 85.860329 
L 340.725818 85.947869 
L 341.258182 86.017852 
L 341.524364 85.798559 
L 343.653818 85.716407 
L 344.984727 85.434415 
L 349.243636 83.997414 
L 349.776 83.904567 
L 350.042182 83.606048 
L 351.106909 83.656497 
L 352.171636 83.960566 
L 353.236364 84.606056 
L 355.365818 86.909152 
L 356.164364 88.462913 
L 356.696727 89.901488 
L 357.761455 92.698544 
L 358.293818 93.82742 
L 358.56 95.333234 
L 359.358545 96.282248 
L 359.890909 96.558388 
L 360.689455 96.646775 
L 362.020364 96.483097 
L 366.279273 95.515054 
L 367.876364 94.894909 
L 368.408727 94.392696 
L 369.207273 93.391739 
L 371.602909 88.580521 
L 372.135273 88.193554 
L 372.933818 87.952728 
L 373.732364 88.000595 
L 374.264727 88.418962 
L 374.530909 88.353276 
L 376.128 91.136187 
L 376.660364 92.401337 
L 377.725091 95.169334 
L 379.588364 100.742883 
L 379.854545 102.916687 
L 380.386909 103.98002 
L 380.653091 104.394936 
L 380.919273 104.526326 
L 381.451636 105.304054 
L 381.717818 105.601625 
L 381.984 105.550288 
L 382.516364 106.203971 
L 382.782545 106.448267 
L 383.048727 106.266629 
L 383.581091 106.820139 
L 384.645818 107.667387 
L 385.976727 108.711548 
L 386.242909 108.794426 
L 387.041455 109.562145 
L 387.307636 109.582507 
L 387.84 110.151092 
L 389.170909 111.080632 
L 389.437091 110.821504 
L 389.969455 111.273631 
L 390.235636 111.300773 
L 390.501818 110.801505 
L 391.034182 111.250969 
L 391.300364 111.367427 
L 391.566545 110.845962 
L 392.098909 111.429903 
L 392.365091 111.583754 
L 392.631273 110.663395 
L 395.559273 112.926535 
L 396.624 113.998827 
L 396.890182 115.378336 
L 398.753455 117.310992 
L 399.019636 117.127094 
L 399.818182 118.149542 
L 400.084364 117.77773 
L 401.149091 120.367197 
L 401.947636 122.463491 
L 402.213818 122.808746 
L 402.746182 124.801255 
L 403.012364 125.594603 
L 403.278545 125.430884 
L 404.077091 129.880764 
L 404.343273 129.286873 
L 404.875636 133.261802 
L 406.206545 139.320796 
L 406.472727 138.055989 
L 406.738909 139.807693 
L 407.005091 140.667956 
L 407.271273 141.037771 
L 407.537455 138.129907 
L 407.803636 139.734642 
L 408.336 141.168576 
L 408.602182 137.48254 
L 408.868364 139.7838 
L 409.400727 141.643607 
L 409.666909 143.861202 
L 409.933091 143.743877 
L 410.465455 145.231367 
L 410.997818 146.330276 
L 412.594909 148.998707 
L 412.861091 149.116678 
L 413.393455 150.195528 
L 413.659636 150.661499 
L 413.925818 152.633324 
L 414.192 152.700159 
L 414.724364 153.124862 
L 414.990545 152.760961 
L 415.256727 153.124096 
L 415.789091 153.266363 
L 416.055273 152.392277 
L 416.321455 152.814296 
L 416.853818 153.051812 
L 417.12 151.749148 
L 417.386182 152.542192 
L 417.918545 152.92137 
L 418.184727 151.193538 
L 418.450909 151.915348 
L 418.983273 152.453744 
L 419.249455 152.268514 
L 419.781818 153.038735 
L 420.048 153.22003 
L 420.314182 152.831106 
L 420.846545 153.790936 
L 421.112727 154.136898 
L 421.378909 153.81838 
L 421.911273 154.865831 
L 422.177455 155.163664 
L 422.443636 154.507499 
L 422.976 155.256289 
L 423.242182 155.410321 
L 423.508364 154.832918 
L 424.040727 155.544779 
L 424.306909 155.622633 
L 424.573091 154.620788 
L 425.105455 155.402835 
L 425.371636 155.52916 
L 425.637818 154.082311 
L 425.904 154.864358 
L 426.436364 155.540763 
L 426.436364 155.540763 
" clip-path="url(#p877c6faf41)" style="fill: none; stroke-dasharray: 3,4.95; stroke-dashoffset: 0; stroke: #ff0000; stroke-width: 3"/>
   </g>
   <g id="line2d_3">
    <path d="M 27.163636 166.26447 
L 27.429818 174.911195 
L 27.696 179.416872 
L 27.962182 180.456493 
L 28.228364 183.196925 
L 28.494545 183.271307 
L 29.293091 184.975912 
L 29.559273 185.017361 
L 29.825455 184.80396 
L 30.091636 184.934967 
L 30.357818 184.786828 
L 31.156364 182.613225 
L 31.422545 185.054088 
L 31.688727 183.417187 
L 31.954909 182.931238 
L 32.221091 182.074143 
L 32.487273 181.718535 
L 33.285818 178.952616 
L 34.350545 176.228369 
L 34.616727 175.840897 
L 35.415273 173.99566 
L 35.681455 173.749426 
L 35.947636 173.34006 
L 36.48 172.09071 
L 36.746182 171.992839 
L 37.544727 170.283936 
L 37.810909 170.212156 
L 38.609455 169.017252 
L 38.875636 169.144647 
L 39.674182 167.521306 
L 41.005091 162.977611 
L 42.868364 157.104876 
L 43.400727 155.839343 
L 43.933091 154.359602 
L 44.199273 148.552149 
L 44.465455 148.195976 
L 44.997818 146.14434 
L 45.264 145.613814 
L 46.328727 141.907256 
L 47.127273 139.566545 
L 47.393455 139.320271 
L 48.192 137.226984 
L 48.458182 137.830924 
L 49.256727 135.265067 
L 49.522909 134.853481 
L 50.321455 132.577083 
L 50.587636 132.311799 
L 51.386182 130.657685 
L 51.652364 130.554505 
L 52.450909 129.108464 
L 52.717091 127.109174 
L 53.249455 126.164197 
L 53.781818 125.324133 
L 54.846545 123.986316 
L 55.645091 123.457223 
L 55.911273 123.718409 
L 56.443636 123.516047 
L 56.709818 123.235104 
L 56.976 124.180042 
L 57.508364 123.443561 
L 57.774545 122.939471 
L 58.040727 122.678405 
L 59.371636 120.366632 
L 60.170182 119.090464 
L 60.968727 117.702379 
L 61.234909 108.942183 
L 63.364364 104.657051 
L 64.961455 100.014797 
L 65.227636 99.080091 
L 65.493818 98.987224 
L 66.824727 94.646819 
L 70.018909 82.808705 
L 71.083636 79.481345 
L 72.148364 76.582502 
L 72.946909 74.968464 
L 73.745455 73.889009 
L 74.011636 74.130661 
L 74.810182 73.563751 
L 75.342545 73.456637 
L 75.608727 73.449735 
L 75.874909 73.319536 
L 76.939636 73.511082 
L 77.738182 74.16416 
L 78.004364 74.099282 
L 78.270545 70.687792 
L 79.069091 71.077019 
L 79.335273 71.14898 
L 81.198545 73.782459 
L 82.795636 76.076757 
L 84.126545 77.475598 
L 84.925091 78.09665 
L 88.119273 80.325 
L 88.651636 80.558743 
L 90.781091 81.281824 
L 91.047273 81.550558 
L 92.644364 81.759196 
L 93.442909 81.767551 
L 94.773818 82.019192 
L 95.04 82.093978 
L 95.306182 80.29132 
L 96.104727 80.137974 
L 96.637091 79.968081 
L 97.968 79.851099 
L 98.766545 79.996494 
L 99.298909 80.169031 
L 99.565091 80.11842 
L 100.363636 80.386549 
L 101.694545 80.63143 
L 103.291636 81.464753 
L 103.557818 81.606859 
L 103.824 82.325077 
L 105.421091 83.376261 
L 107.816727 84.813141 
L 108.082909 85.16106 
L 109.413818 85.676431 
L 110.212364 85.848302 
L 111.543273 85.855062 
L 112.075636 85.761549 
L 112.341818 84.886091 
L 113.672727 84.093874 
L 116.334545 82.435824 
L 116.600727 82.113674 
L 118.996364 81.091024 
L 120.327273 80.896148 
L 120.859636 80.921514 
L 121.658182 81.043178 
L 122.190545 81.057021 
L 122.722909 81.102083 
L 123.255273 81.066183 
L 123.787636 81.100973 
L 124.32 81.043864 
L 124.852364 81.070501 
L 125.650909 81.058555 
L 127.248 81.198502 
L 128.312727 81.432688 
L 129.111273 81.464047 
L 129.377455 82.085806 
L 130.974545 81.825366 
L 132.305455 81.77534 
L 132.837818 81.721036 
L 133.370182 81.744586 
L 133.636364 81.476639 
L 135.765818 81.368435 
L 137.096727 81.678094 
L 137.629091 81.871739 
L 137.895273 81.769851 
L 141.089455 83.064968 
L 141.888 83.255021 
L 144.816 83.253387 
L 146.146909 83.053062 
L 146.413091 81.777923 
L 147.211636 81.552899 
L 147.744 81.280815 
L 149.074909 80.894655 
L 150.405818 80.527827 
L 150.672 80.184085 
L 152.801455 79.580993 
L 155.463273 79.404864 
L 158.657455 79.704412 
L 162.916364 79.112378 
L 165.045818 78.710882 
L 167.441455 78.365041 
L 167.973818 78.161145 
L 169.570909 77.755834 
L 172.232727 76.619734 
L 172.765091 76.305797 
L 173.297455 75.982881 
L 173.829818 75.740118 
L 174.362182 75.324213 
L 174.628364 74.955569 
L 175.160727 75.019882 
L 175.693091 74.682658 
L 177.024 73.302988 
L 178.887273 71.249455 
L 179.685818 69.717045 
L 180.218182 68.546618 
L 180.750545 66.774412 
L 182.081455 63.39973 
L 183.678545 59.010712 
L 186.074182 52.346003 
L 187.405091 49.527012 
L 188.736 46.083456 
L 189.534545 44.16652 
L 190.599273 42.138071 
L 191.397818 41.481381 
L 191.930182 41.514294 
L 192.462545 41.766158 
L 192.994909 42.418065 
L 193.527273 43.433087 
L 194.325818 45.741288 
L 195.124364 49.006636 
L 196.721455 56.542667 
L 198.052364 60.702584 
L 199.383273 63.940245 
L 203.908364 74.275491 
L 205.505455 78.044708 
L 207.102545 81.157839 
L 208.433455 83.29415 
L 209.498182 84.604987 
L 210.829091 86.224029 
L 212.16 88.41208 
L 212.958545 90.158861 
L 214.023273 93.06737 
L 215.088 96.752961 
L 217.217455 105.645254 
L 220.944 122.162025 
L 223.872 133.984298 
L 224.670545 135.832361 
L 225.469091 137.219134 
L 226.267636 138.228324 
L 227.332364 139.179376 
L 229.728 140.870036 
L 231.058909 141.90546 
L 232.389818 143.236799 
L 235.317818 146.676803 
L 236.914909 148.842899 
L 239.842909 153.378966 
L 241.706182 156.127631 
L 243.303273 158.074696 
L 244.900364 159.762632 
L 245.698909 160.427837 
L 246.763636 160.969987 
L 248.094545 161.202882 
L 249.159273 161.116896 
L 250.224 160.694614 
L 252.087273 159.62549 
L 253.684364 158.488966 
L 257.410909 156.092619 
L 259.806545 155.128007 
L 262.202182 154.583234 
L 266.461091 154.168701 
L 269.655273 154.092078 
L 272.583273 153.84189 
L 273.115636 153.771745 
L 273.381818 153.497401 
L 276.842182 152.940177 
L 280.302545 151.965798 
L 284.295273 150.720081 
L 286.424727 150.156258 
L 287.223273 148.856621 
L 288.288 148.573418 
L 289.885091 148.046868 
L 290.151273 147.949016 
L 290.417455 147.495113 
L 294.144 145.948879 
L 295.741091 144.931496 
L 297.338182 143.409357 
L 298.136727 142.380915 
L 303.194182 134.811224 
L 305.856 131.230931 
L 307.186909 129.140308 
L 307.719273 128.098709 
L 310.114909 124.552156 
L 311.179636 122.592924 
L 312.244364 120.146632 
L 313.042909 117.646238 
L 314.373818 112.868559 
L 317.568 101.297463 
L 319.165091 96.541255 
L 320.229818 94.097506 
L 321.560727 91.774573 
L 323.157818 89.658362 
L 323.956364 88.816947 
L 324.222545 88.838337 
L 324.488727 87.001071 
L 325.553455 86.505153 
L 326.618182 86.23313 
L 327.416727 86.222677 
L 328.747636 86.427481 
L 331.941818 87.12895 
L 332.740364 87.054002 
L 333.006545 86.651457 
L 334.603636 86.28473 
L 336.200727 86.083194 
L 337.531636 86.182519 
L 338.330182 86.500512 
L 339.128727 87.105824 
L 339.927273 87.993047 
L 341.258182 89.799277 
L 341.790545 90.847434 
L 343.121455 92.634837 
L 344.186182 93.787061 
L 345.250909 94.622866 
L 347.380364 95.966838 
L 348.445091 97.039312 
L 349.776 98.503293 
L 350.042182 97.90234 
L 350.574545 98.33124 
L 351.106909 98.552269 
L 351.639273 98.55017 
L 352.437818 98.052881 
L 355.365818 95.031143 
L 356.430545 94.369408 
L 357.229091 94.252648 
L 357.495273 94.395864 
L 358.027636 94.249722 
L 358.293818 94.149005 
L 358.56 96.944305 
L 360.955636 95.679599 
L 361.488 95.501614 
L 362.552727 95.395388 
L 363.085091 95.41811 
L 364.149818 95.343505 
L 365.214545 95.582535 
L 367.077818 96.110114 
L 369.473455 97.573833 
L 371.070545 98.022228 
L 371.336727 98.329807 
L 375.329455 99.346464 
L 375.595636 100.227068 
L 377.458909 101.172147 
L 377.991273 101.545654 
L 378.523636 101.767955 
L 379.056 102.106914 
L 379.588364 102.301185 
L 379.854545 103.082303 
L 380.653091 103.266806 
L 381.717818 103.27504 
L 382.516364 103.141026 
L 383.847273 102.859175 
L 384.113455 102.685589 
L 385.710545 103.230422 
L 386.242909 103.565204 
L 387.573818 104.918701 
L 390.235636 108.056654 
L 390.501818 107.915679 
L 391.300364 109.040519 
L 391.566545 108.75439 
L 391.832727 109.281243 
L 392.098909 109.509476 
L 392.365091 110.139165 
L 392.631273 108.587665 
L 394.494545 110.849493 
L 395.026909 111.567247 
L 396.091636 112.829107 
L 396.624 113.439666 
L 396.890182 114.466897 
L 398.753455 116.415354 
L 399.285818 116.825911 
L 399.818182 117.296967 
L 400.084364 117.3231 
L 400.882909 118.213492 
L 401.149091 117.285505 
L 403.544727 120.838495 
L 404.077091 122.04587 
L 404.343273 122.199479 
L 404.875636 123.722849 
L 405.141818 124.35048 
L 405.408 124.459733 
L 405.940364 125.81993 
L 406.206545 126.41497 
L 406.472727 126.457469 
L 407.005091 127.639297 
L 407.271273 128.03821 
L 407.537455 127.674692 
L 408.069818 128.741314 
L 408.336 129.167873 
L 408.602182 128.530152 
L 408.868364 129.294683 
L 409.400727 130.153978 
L 409.666909 130.20588 
L 409.933091 130.447896 
L 410.997818 132.176191 
L 413.659636 135.761974 
L 413.925818 137.218529 
L 414.458182 137.568385 
L 414.724364 137.837624 
L 414.990545 137.902845 
L 415.789091 138.414866 
L 416.055273 138.382396 
L 416.853818 138.819571 
L 417.12 138.614 
L 417.918545 139.376653 
L 418.184727 139.21687 
L 418.983273 139.896766 
L 419.249455 139.821173 
L 420.048 140.532106 
L 420.314182 140.514832 
L 421.112727 141.239447 
L 421.378909 141.216462 
L 422.177455 142.244904 
L 422.443636 141.686832 
L 422.976 141.914541 
L 423.242182 142.301286 
L 423.508364 142.266193 
L 424.040727 142.414959 
L 424.306909 142.703691 
L 424.573091 142.452654 
L 425.105455 142.291357 
L 425.371636 142.509481 
L 425.637818 141.797539 
L 425.904 141.457227 
L 426.170182 138.705717 
L 426.436364 120.743186 
L 426.436364 120.743186 
" clip-path="url(#p877c6faf41)" style="fill: none; stroke: #ff0000; stroke-width: 3; stroke-linecap: square"/>
   </g>
   <g id="patch_3">
    <path d="M 7.2 331.2 
L 7.2 7.2 
" style="fill: none; stroke: #000000; stroke-width: 0.8; stroke-linejoin: miter; stroke-linecap: square"/>
   </g>
   <g id="patch_4">
    <path d="M 446.4 331.2 
L 446.4 7.2 
" style="fill: none; stroke: #000000; stroke-width: 0.8; stroke-linejoin: miter; stroke-linecap: square"/>
   </g>
   <g id="patch_5">
    <path d="M 7.2 331.2 
L 446.4 331.2 
" style="fill: none; stroke: #000000; stroke-width: 0.8; stroke-linejoin: miter; stroke-linecap: square"/>
   </g>
   <g id="patch_6">
    <path d="M 7.2 7.2 
L 446.4 7.2 
" style="fill: none; stroke: #000000; stroke-width: 0.8; stroke-linejoin: miter; stroke-linecap: square"/>
   </g>
  </g>
 </g>
 <defs>
  <clipPath id="p877c6faf41">
   <rect x="7.2" y="7.2" width="439.2" height="324"/>
  </clipPath>
 </defs>
</svg>
