<?xml version="1.0" encoding="utf-8" standalone="no"?>
<!DOCTYPE svg PUBLIC "-//W3C//DTD SVG 1.1//EN"
  "http://www.w3.org/Graphics/SVG/1.1/DTD/svg11.dtd">
<svg xmlns:xlink="http://www.w3.org/1999/xlink" width="453.6pt" height="338.4pt" viewBox="0 0 453.6 338.4" xmlns="http://www.w3.org/2000/svg" version="1.1">
 <metadata>
  <rdf:RDF xmlns:dc="http://purl.org/dc/elements/1.1/" xmlns:cc="http://creativecommons.org/ns#" xmlns:rdf="http://www.w3.org/1999/02/22-rdf-syntax-ns#">
   <cc:Work>
    <dc:type rdf:resource="http://purl.org/dc/dcmitype/StillImage"/>
    <dc:date>2025-05-14T08:49:41.870817</dc:date>
    <dc:format>image/svg+xml</dc:format>
    <dc:creator>
     <cc:Agent>
      <dc:title>Matplotlib v3.10.1, https://matplotlib.org/</dc:title>
     </cc:Agent>
    </dc:creator>
   </cc:Work>
  </rdf:RDF>
 </metadata>
 <defs>
  <style type="text/css">*{stroke-linejoin: round; stroke-linecap: butt}</style>
 </defs>
 <g id="figure_1">
  <g id="patch_1">
   <path d="M 0 338.4 
L 453.6 338.4 
L 453.6 0 
L 0 0 
z
" style="fill: #ffffff"/>
  </g>
  <g id="axes_1">
   <g id="patch_2">
    <path d="M 7.2 331.2 
L 446.4 331.2 
L 446.4 7.2 
L 7.2 7.2 
z
" style="fill: #ffffff"/>
   </g>
   <g id="matplotlib.axis_1"/>
   <g id="matplotlib.axis_2"/>
   <g id="line2d_1">
    <path d="M 27.163636 71.065144 
L 37.544727 86.670889 
L 47.925818 101.86614 
L 58.040727 116.277098 
L 68.155636 130.298404 
L 78.004364 143.576334 
L 87.853091 156.484868 
L 97.701818 169.024007 
L 107.284364 180.8697 
L 116.866909 192.365716 
L 126.449455 203.512008 
L 135.765818 214.013461 
L 145.082182 224.184344 
L 154.398545 234.024692 
L 163.448727 243.26739 
L 172.498909 252.198168 
L 181.549091 260.817024 
L 190.599273 269.123964 
L 199.383273 276.888295 
L 208.167273 284.35877 
L 216.951273 291.535418 
L 225.735273 298.41822 
L 234.253091 304.811839 
L 242.770909 310.929137 
L 250.756364 316.41318 
L 251.022545 316.472727 
L 256.346182 312.046842 
L 261.669818 307.338436 
L 267.259636 302.090519 
L 272.849455 296.531168 
L 278.439273 290.660293 
L 284.029091 284.477984 
L 289.885091 277.667171 
L 295.741091 270.514504 
L 301.597091 263.019981 
L 307.719273 254.819319 
L 313.841455 246.244995 
L 319.963636 237.297029 
L 326.352 227.561711 
L 332.740364 217.419507 
L 339.128727 206.870516 
L 345.783273 195.449355 
L 352.437818 183.586729 
L 359.358545 170.781353 
L 366.279273 157.49851 
L 373.2 143.738208 
L 380.386909 128.943314 
L 387.573818 113.633499 
L 394.760727 97.808798 
L 402.213818 80.854173 
L 409.666909 63.345794 
L 417.386182 44.628343 
L 425.105455 25.316861 
L 426.436364 21.927291 
L 426.436364 21.927291 
" clip-path="url(#p575d6aedbf)" style="fill: none; stroke-dasharray: 11.1,4.8; stroke-dashoffset: 0; stroke: #000000; stroke-width: 3"/>
   </g>
   <g id="line2d_2">
    <path d="M 27.163636 71.065144 
L 37.544727 86.670889 
L 47.925818 101.86614 
L 58.040727 116.277098 
L 68.155636 130.298404 
L 78.004364 143.576334 
L 87.853091 156.484868 
L 97.701818 169.024007 
L 107.284364 180.8697 
L 116.866909 192.365716 
L 126.449455 203.512008 
L 135.765818 214.013461 
L 145.082182 224.184344 
L 154.398545 234.024692 
L 163.448727 243.26739 
L 172.498909 252.198168 
L 181.549091 260.817024 
L 190.599273 269.123964 
L 199.383273 276.888295 
L 208.167273 284.35877 
L 216.951273 291.535418 
L 225.735273 298.41822 
L 234.253091 304.811839 
L 242.770909 310.929137 
L 250.756364 316.41318 
L 251.022545 316.472727 
L 256.346182 312.046842 
L 261.669818 307.338436 
L 267.259636 302.090519 
L 272.849455 296.531168 
L 278.439273 290.660293 
L 284.029091 284.477984 
L 289.885091 277.667171 
L 295.741091 270.514504 
L 301.597091 263.019981 
L 307.719273 254.819319 
L 313.841455 246.244995 
L 319.963636 237.297029 
L 326.352 227.561711 
L 332.740364 217.419507 
L 339.128727 206.870516 
L 345.783273 195.449355 
L 352.437818 183.586729 
L 359.358545 170.781353 
L 366.279273 157.49851 
L 373.2 143.738208 
L 380.386909 128.943314 
L 387.573818 113.633499 
L 394.760727 97.808798 
L 402.213818 80.854173 
L 409.666909 63.345794 
L 417.386182 44.628343 
L 425.105455 25.316861 
L 426.436364 21.927291 
L 426.436364 21.927291 
" clip-path="url(#p575d6aedbf)" style="fill: none; stroke-dasharray: 3,4.95; stroke-dashoffset: 0; stroke: #ffa500; stroke-width: 3"/>
   </g>
   <g id="line2d_3">
    <path d="M 27.163636 71.065126 
L 37.544727 86.670889 
L 47.925818 101.866122 
L 58.040727 116.27708 
L 68.155636 130.298386 
L 78.004364 143.576316 
L 87.853091 156.48485 
L 97.701818 169.023989 
L 107.284364 180.869691 
L 116.866909 192.365706 
L 126.449455 203.511999 
L 135.765818 214.013452 
L 145.082182 224.184335 
L 154.398545 234.024682 
L 163.448727 243.267381 
L 172.498909 252.198159 
L 181.549091 260.817015 
L 190.599273 269.123946 
L 199.383273 276.888277 
L 208.167273 284.358751 
L 216.951273 291.5354 
L 225.735273 298.418204 
L 234.253091 304.811821 
L 242.770909 310.929113 
L 250.756364 316.413151 
L 251.022545 316.472698 
L 256.346182 312.04681 
L 261.669818 307.338403 
L 267.259636 302.090485 
L 272.849455 296.531132 
L 278.439273 290.660257 
L 284.029091 284.477947 
L 289.885091 277.667134 
L 295.741091 270.514467 
L 301.597091 263.019949 
L 307.719273 254.819287 
L 313.841455 246.244959 
L 319.963636 237.296993 
L 326.352 227.561684 
L 332.740364 217.41948 
L 339.128727 206.870507 
L 345.783273 195.449355 
L 352.437818 183.586739 
L 359.358545 170.781362 
L 366.279273 157.49851 
L 373.2 143.738208 
L 380.386909 128.943314 
L 387.573818 113.633499 
L 394.760727 97.80878 
L 402.213818 80.854173 
L 409.666909 63.345794 
L 417.386182 44.628343 
L 425.105455 25.316842 
L 426.436364 21.927273 
L 426.436364 21.927273 
" clip-path="url(#p575d6aedbf)" style="fill: none; stroke: #ffa500; stroke-width: 3; stroke-linecap: square"/>
   </g>
   <g id="patch_3">
    <path d="M 7.2 331.2 
L 7.2 7.2 
" style="fill: none; stroke: #000000; stroke-width: 0.8; stroke-linejoin: miter; stroke-linecap: square"/>
   </g>
   <g id="patch_4">
    <path d="M 446.4 331.2 
L 446.4 7.2 
" style="fill: none; stroke: #000000; stroke-width: 0.8; stroke-linejoin: miter; stroke-linecap: square"/>
   </g>
   <g id="patch_5">
    <path d="M 7.2 331.2 
L 446.4 331.2 
" style="fill: none; stroke: #000000; stroke-width: 0.8; stroke-linejoin: miter; stroke-linecap: square"/>
   </g>
   <g id="patch_6">
    <path d="M 7.2 7.2 
L 446.4 7.2 
" style="fill: none; stroke: #000000; stroke-width: 0.8; stroke-linejoin: miter; stroke-linecap: square"/>
   </g>
  </g>
 </g>
 <defs>
  <clipPath id="p575d6aedbf">
   <rect x="7.2" y="7.2" width="439.2" height="324"/>
  </clipPath>
 </defs>
</svg>
