<?xml version="1.0" encoding="utf-8" standalone="no"?>
<!DOCTYPE svg PUBLIC "-//W3C//DTD SVG 1.1//EN"
  "http://www.w3.org/Graphics/SVG/1.1/DTD/svg11.dtd">
<svg xmlns:xlink="http://www.w3.org/1999/xlink" width="453.6pt" height="338.4pt" viewBox="0 0 453.6 338.4" xmlns="http://www.w3.org/2000/svg" version="1.1">
 <metadata>
  <rdf:RDF xmlns:dc="http://purl.org/dc/elements/1.1/" xmlns:cc="http://creativecommons.org/ns#" xmlns:rdf="http://www.w3.org/1999/02/22-rdf-syntax-ns#">
   <cc:Work>
    <dc:type rdf:resource="http://purl.org/dc/dcmitype/StillImage"/>
    <dc:date>2025-05-14T00:12:54.316568</dc:date>
    <dc:format>image/svg+xml</dc:format>
    <dc:creator>
     <cc:Agent>
      <dc:title>Matplotlib v3.10.1, https://matplotlib.org/</dc:title>
     </cc:Agent>
    </dc:creator>
   </cc:Work>
  </rdf:RDF>
 </metadata>
 <defs>
  <style type="text/css">*{stroke-linejoin: round; stroke-linecap: butt}</style>
 </defs>
 <g id="figure_1">
  <g id="patch_1">
   <path d="M 0 338.4 
L 453.6 338.4 
L 453.6 0 
L 0 0 
z
" style="fill: #ffffff"/>
  </g>
  <g id="axes_1">
   <g id="patch_2">
    <path d="M 7.2 331.2 
L 446.4 331.2 
L 446.4 7.2 
L 7.2 7.2 
z
" style="fill: #ffffff"/>
   </g>
   <g id="matplotlib.axis_1"/>
   <g id="matplotlib.axis_2"/>
   <g id="line2d_1">
    <path d="M 27.163636 230.489513 
L 68.421818 316.472727 
L 194.059636 288.311265 
L 298.402909 112.698598 
L 298.669091 112.724822 
L 378.257455 254.629687 
L 426.436364 21.927273 
L 426.436364 21.927273 
" clip-path="url(#pff1b3d1054)" style="fill: none; stroke-dasharray: 11.1,4.8; stroke-dashoffset: 0; stroke: #000000; stroke-width: 3"/>
   </g>
   <g id="line2d_2">
    <path d="M 27.163636 233.315318 
L 29.559273 239.32345 
L 31.688727 244.098538 
L 33.818182 248.372778 
L 35.947636 252.175841 
L 38.077091 255.537963 
L 40.206545 258.488711 
L 42.336 261.05924 
L 43.666909 262.449838 
L 47.393455 265.386593 
L 50.853818 267.832255 
L 54.048 269.817313 
L 56.976 271.38252 
L 59.637818 272.575424 
L 60.968727 273.217277 
L 63.098182 274.102073 
L 65.493818 274.831614 
L 68.155636 275.393338 
L 71.882182 275.915483 
L 76.673455 276.437729 
L 81.730909 275.79894 
L 86.788364 275.384963 
L 92.112 275.171386 
L 93.176727 275.217094 
L 96.637091 276.198719 
L 99.298909 277.169007 
L 101.694545 278.264162 
L 104.090182 279.620031 
L 106.219636 281.083506 
L 108.349091 282.824907 
L 109.946182 284.377295 
L 115.536 290.430932 
L 119.528727 294.441852 
L 122.722909 297.333717 
L 125.384727 299.460852 
L 127.248 300.711925 
L 128.578909 301.314352 
L 129.909818 301.679761 
L 131.240727 301.832717 
L 132.837818 301.770411 
L 134.434909 301.479718 
L 136.298182 300.908087 
L 138.693818 299.908485 
L 143.485091 297.648975 
L 144.549818 298.102838 
L 146.945455 299.368568 
L 149.873455 301.176819 
L 160.254545 307.84039 
L 161.053091 308.031649 
L 163.182545 308.282814 
L 165.312 308.286389 
L 167.175273 308.080575 
L 169.038545 307.674462 
L 170.901818 307.063456 
L 172.765091 306.242549 
L 174.894545 305.040963 
L 177.024 303.550523 
L 178.354909 302.366557 
L 182.613818 298.628812 
L 186.872727 295.191617 
L 191.131636 292.030969 
L 195.390545 288.87364 
L 198.052364 286.339678 
L 200.980364 283.232296 
L 204.706909 278.919958 
L 211.627636 270.734538 
L 214.555636 268.422323 
L 217.749818 266.203976 
L 221.210182 264.091396 
L 225.202909 261.93229 
L 228.130909 260.349668 
L 230.792727 258.448978 
L 233.454545 256.278586 
L 236.382545 253.596213 
L 239.576727 250.338275 
L 242.770909 246.758083 
L 246.231273 242.550184 
L 248.893091 238.920862 
L 251.288727 235.269222 
L 253.684364 231.18905 
L 256.08 226.619879 
L 258.209455 222.097692 
L 259.806545 218.395799 
L 260.338909 216.458288 
L 264.864 197.563139 
L 267.525818 187.348793 
L 269.655273 179.982084 
L 271.518545 174.290639 
L 273.115636 170.077071 
L 274.446545 167.097672 
L 275.777455 164.652521 
L 282.698182 153.898257 
L 284.827636 151.23238 
L 286.690909 149.246914 
L 288.288 147.833488 
L 289.885091 146.712032 
L 291.216 146.017933 
L 292.546909 145.557686 
L 292.813091 145.494972 
L 293.079273 145.585622 
L 294.676364 154.411873 
L 297.072 169.14381 
L 303.726545 211.085728 
L 305.589818 220.907087 
L 306.920727 226.884169 
L 308.251636 231.799751 
L 309.050182 234.168245 
L 309.316364 234.093836 
L 309.848727 230.549853 
L 314.373818 196.206248 
L 316.769455 179.789089 
L 318.632727 168.38761 
L 320.229818 159.801083 
L 321.560727 153.615531 
L 322.891636 148.417376 
L 323.956364 145.036001 
L 325.021091 142.399795 
L 325.553455 141.376701 
L 325.819636 141.146424 
L 329.812364 142.385751 
L 342.322909 146.004655 
L 342.589091 146.281201 
L 343.653818 148.562161 
L 346.581818 155.417501 
L 350.308364 164.783823 
L 359.624727 188.521983 
L 363.085091 195.802741 
L 367.610182 205.214106 
L 370.272 210.233821 
L 372.401455 213.757529 
L 373.998545 216.025671 
L 375.329455 217.624584 
L 375.595636 217.539041 
L 376.926545 214.771636 
L 378.257455 211.485967 
L 379.854545 206.958213 
L 381.984 200.159459 
L 384.912 189.92923 
L 390.768 169.29508 
L 392.365091 163.788102 
L 396.890182 143.741416 
L 404.077091 111.73163 
L 407.005091 99.714522 
L 409.134545 91.685786 
L 409.666909 90.320826 
L 411.796364 85.914493 
L 414.192 81.49169 
L 416.853818 77.092021 
L 420.048 72.288104 
L 426.436364 63.069606 
L 426.436364 63.069606 
" clip-path="url(#pff1b3d1054)" style="fill: none; stroke-dasharray: 3,4.95; stroke-dashoffset: 0; stroke: #0000ff; stroke-width: 3"/>
   </g>
   <g id="line2d_3">
    <path d="M 27.163636 246.155452 
L 29.026909 247.263834 
L 31.156364 248.786295 
L 33.818182 250.998259 
L 37.012364 253.968312 
L 55.378909 271.901294 
L 57.774545 274.746174 
L 59.904 277.581299 
L 60.968727 279.140531 
L 64.162909 280.181245 
L 68.155636 281.213379 
L 77.738182 283.388622 
L 81.464727 283.591372 
L 84.392727 283.949223 
L 87.054545 284.48536 
L 89.450182 285.181502 
L 91.845818 286.117725 
L 93.975273 287.021366 
L 104.622545 287.50531 
L 108.615273 287.937672 
L 112.608 288.607359 
L 120.061091 289.822274 
L 123.787636 290.205354 
L 126.981818 290.314287 
L 130.176 290.48379 
L 134.168727 290.936836 
L 143.218909 292.115184 
L 151.470545 291.747937 
L 164.779636 290.928103 
L 169.038545 290.975649 
L 173.031273 291.246169 
L 175.959273 291.651567 
L 179.952 292.225854 
L 185.009455 292.732064 
L 190.066909 293.002023 
L 194.325818 293.013258 
L 202.045091 292.921025 
L 207.368727 292.690595 
L 210.562909 292.118095 
L 214.023273 291.278701 
L 216.951273 290.335583 
L 219.879273 289.157439 
L 222.807273 287.725832 
L 223.339636 287.437028 
L 224.138182 286.489212 
L 225.469091 284.567635 
L 227.066182 281.834242 
L 228.929455 278.175197 
L 230.792727 274.03083 
L 232.922182 268.770011 
L 235.317818 262.273696 
L 238.245818 253.64473 
L 240.907636 245.761545 
L 243.037091 241.57004 
L 245.166545 237.899147 
L 247.296 234.631863 
L 249.691636 231.381688 
L 252.087273 228.523275 
L 254.482909 225.997126 
L 257.144727 223.507748 
L 259.008 221.74597 
L 260.338909 219.855291 
L 261.936 217.062094 
L 263.533091 213.80145 
L 265.396364 209.426244 
L 267.259636 204.450348 
L 269.389091 198.054539 
L 271.518545 190.930721 
L 273.914182 182.082127 
L 276.576 172.108271 
L 279.504 163.858656 
L 281.899636 157.813344 
L 284.029091 153.038333 
L 285.892364 149.362741 
L 287.755636 146.1905 
L 289.352727 143.896517 
L 290.949818 142.015873 
L 292.280727 140.778717 
L 293.611636 141.256788 
L 294.676364 141.919963 
L 296.007273 143.027196 
L 297.604364 144.691403 
L 299.467636 146.97604 
L 302.661818 151.326809 
L 305.856 155.555902 
L 307.719273 157.656047 
L 309.050182 158.833017 
L 309.316364 158.600672 
L 313.042909 149.702692 
L 321.028364 130.703997 
L 323.424 125.731752 
L 325.287273 122.341466 
L 326.085818 121.203897 
L 328.481455 125.872145 
L 330.610909 129.346647 
L 332.740364 132.370886 
L 334.603636 134.636933 
L 336.466909 136.538593 
L 338.064 137.870919 
L 339.661091 138.922204 
L 341.258182 139.686039 
L 342.589091 140.278354 
L 343.121455 141.812664 
L 344.718545 147.619196 
L 346.581818 155.172414 
L 349.243636 167.016419 
L 355.099636 193.438281 
L 357.229091 201.877214 
L 358.826182 207.423618 
L 359.890909 210.653978 
L 361.488 213.53573 
L 367.610182 223.987861 
L 370.272 228.08984 
L 372.401455 231.005708 
L 374.264727 233.216088 
L 375.861818 234.768834 
L 377.725091 236.11403 
L 377.991273 236.132466 
L 378.523636 235.602151 
L 379.322182 234.475179 
L 380.386909 232.466629 
L 381.451636 229.912136 
L 382.782545 225.992376 
L 384.113455 221.341032 
L 385.710545 214.889915 
L 387.573818 206.303235 
L 389.703273 195.336008 
L 392.365091 180.294533 
L 395.559273 161.507449 
L 396.890182 158.311536 
L 398.221091 154.569783 
L 399.818182 149.357073 
L 401.415273 143.35563 
L 403.278545 135.35958 
L 405.141818 126.301852 
L 407.005091 116.197945 
L 409.134545 103.398285 
L 410.465455 94.402454 
L 411.796364 84.299645 
L 413.393455 77.145389 
L 414.990545 71.094153 
L 416.321455 66.856225 
L 417.652364 63.329427 
L 418.983273 60.472699 
L 420.048 58.656659 
L 421.112727 57.233096 
L 422.177455 56.195931 
L 423.242182 55.519197 
L 424.040727 55.24408 
L 424.839273 55.157362 
L 425.637818 55.250566 
L 426.436364 55.521776 
L 426.436364 55.521776 
" clip-path="url(#pff1b3d1054)" style="fill: none; stroke: #0000ff; stroke-width: 3; stroke-linecap: square"/>
   </g>
   <g id="patch_3">
    <path d="M 7.2 331.2 
L 7.2 7.2 
" style="fill: none; stroke: #000000; stroke-width: 0.8; stroke-linejoin: miter; stroke-linecap: square"/>
   </g>
   <g id="patch_4">
    <path d="M 446.4 331.2 
L 446.4 7.2 
" style="fill: none; stroke: #000000; stroke-width: 0.8; stroke-linejoin: miter; stroke-linecap: square"/>
   </g>
   <g id="patch_5">
    <path d="M 7.2 331.2 
L 446.4 331.2 
" style="fill: none; stroke: #000000; stroke-width: 0.8; stroke-linejoin: miter; stroke-linecap: square"/>
   </g>
   <g id="patch_6">
    <path d="M 7.2 7.2 
L 446.4 7.2 
" style="fill: none; stroke: #000000; stroke-width: 0.8; stroke-linejoin: miter; stroke-linecap: square"/>
   </g>
  </g>
 </g>
 <defs>
  <clipPath id="pff1b3d1054">
   <rect x="7.2" y="7.2" width="439.2" height="324"/>
  </clipPath>
 </defs>
</svg>
