<?xml version="1.0" encoding="utf-8" standalone="no"?>
<!DOCTYPE svg PUBLIC "-//W3C//DTD SVG 1.1//EN"
  "http://www.w3.org/Graphics/SVG/1.1/DTD/svg11.dtd">
<svg xmlns:xlink="http://www.w3.org/1999/xlink" width="453.6pt" height="338.4pt" viewBox="0 0 453.6 338.4" xmlns="http://www.w3.org/2000/svg" version="1.1">
 <metadata>
  <rdf:RDF xmlns:dc="http://purl.org/dc/elements/1.1/" xmlns:cc="http://creativecommons.org/ns#" xmlns:rdf="http://www.w3.org/1999/02/22-rdf-syntax-ns#">
   <cc:Work>
    <dc:type rdf:resource="http://purl.org/dc/dcmitype/StillImage"/>
    <dc:date>2025-05-14T08:48:40.488328</dc:date>
    <dc:format>image/svg+xml</dc:format>
    <dc:creator>
     <cc:Agent>
      <dc:title>Matplotlib v3.10.1, https://matplotlib.org/</dc:title>
     </cc:Agent>
    </dc:creator>
   </cc:Work>
  </rdf:RDF>
 </metadata>
 <defs>
  <style type="text/css">*{stroke-linejoin: round; stroke-linecap: butt}</style>
 </defs>
 <g id="figure_1">
  <g id="patch_1">
   <path d="M 0 338.4 
L 453.6 338.4 
L 453.6 0 
L 0 0 
z
" style="fill: #ffffff"/>
  </g>
  <g id="axes_1">
   <g id="patch_2">
    <path d="M 7.2 331.2 
L 446.4 331.2 
L 446.4 7.2 
L 7.2 7.2 
z
" style="fill: #ffffff"/>
   </g>
   <g id="matplotlib.axis_1"/>
   <g id="matplotlib.axis_2"/>
   <g id="line2d_1">
    <path d="M 27.163636 316.472727 
L 30.624 286.602101 
L 34.084364 258.678301 
L 37.544727 232.644847 
L 40.738909 210.242972 
L 43.933091 189.359277 
L 47.127273 169.949297 
L 50.321455 151.968704 
L 53.249455 136.70422 
L 56.177455 122.569183 
L 59.105455 109.529466 
L 62.033455 97.550838 
L 64.695273 87.553129 
L 67.357091 78.378346 
L 70.018909 70.000875 
L 72.680727 62.394934 
L 75.076364 56.187947 
L 77.472 50.566411 
L 79.867636 45.511457 
L 82.263273 41.004463 
L 84.392727 37.443038 
L 86.522182 34.28659 
L 88.651636 31.521895 
L 90.781091 29.135855 
L 92.910545 27.115268 
L 94.773818 25.636685 
L 96.637091 24.419035 
L 98.500364 23.453518 
L 100.363636 22.731248 
L 102.226909 22.243424 
L 104.090182 21.981286 
L 105.953455 21.93595 
L 107.816727 22.098655 
L 109.946182 22.527981 
L 112.075636 23.204312 
L 114.205091 24.114529 
L 116.600727 25.401658 
L 118.996364 26.949325 
L 121.658182 28.951832 
L 124.32 31.227187 
L 127.248 34.014571 
L 130.442182 37.340512 
L 134.701091 36.018447 
L 138.427636 35.082344 
L 141.888 34.429844 
L 145.082182 34.038049 
L 148.276364 33.871068 
L 151.204364 33.934568 
L 154.132364 34.22282 
L 156.794182 34.694348 
L 159.456 35.378775 
L 162.117818 36.288847 
L 164.779636 37.437516 
L 167.441455 38.837591 
L 170.103273 40.502067 
L 172.765091 42.443709 
L 175.426909 44.675472 
L 178.088727 47.210101 
L 180.750545 50.060652 
L 183.412364 53.239914 
L 186.074182 56.760819 
L 188.736 60.636091 
L 191.397818 64.878767 
L 194.325818 69.985369 
L 197.253818 75.569166 
L 200.181818 81.647368 
L 203.109818 88.237016 
L 206.037818 95.355279 
L 209.232 103.743751 
L 212.426182 112.803968 
L 215.620364 122.558222 
L 218.814545 133.028727 
L 222.008727 144.237797 
L 225.469091 157.240149 
L 228.929455 171.163574 
L 232.389818 186.036543 
L 235.850182 201.887267 
L 239.310545 218.743883 
L 243.037091 238.05486 
L 246.763636 258.600587 
L 250.490182 280.416576 
L 254.216727 303.538225 
L 255.015273 308.666039 
L 255.281455 307.57885 
L 259.274182 270.839894 
L 263.000727 238.510223 
L 266.461091 210.394467 
L 269.655273 186.236592 
L 272.583273 165.735247 
L 275.245091 148.561016 
L 277.906909 132.868721 
L 280.302545 120.08344 
L 282.432 109.835072 
L 284.561455 100.683145 
L 286.424727 93.608932 
L 288.288 87.437026 
L 289.885091 82.887312 
L 291.482182 79.04052 
L 292.813091 76.385223 
L 294.144 74.241621 
L 295.208727 72.902389 
L 296.273455 71.902932 
L 297.338182 71.248833 
L 298.136727 70.988127 
L 298.935273 70.927076 
L 299.733818 71.067943 
L 300.532364 71.413073 
L 301.330909 71.964709 
L 302.395636 73.025591 
L 303.460364 74.463321 
L 304.525091 76.283278 
L 305.589818 78.490982 
L 306.920727 81.80426 
L 308.251636 85.742679 
L 309.582545 90.316889 
L 311.179636 96.660384 
L 312.776727 103.953329 
L 314.373818 112.214303 
L 315.438545 117.590183 
L 319.165091 107.505745 
L 322.891636 98.073018 
L 326.352 89.90255 
L 329.812364 82.303667 
L 333.006545 75.800914 
L 336.200727 69.792876 
L 339.128727 64.72339 
L 342.056727 60.075613 
L 344.984727 55.852532 
L 347.646545 52.384167 
L 350.308364 49.27127 
L 352.970182 46.515938 
L 355.365818 44.343669 
L 357.761455 42.464322 
L 360.157091 40.879518 
L 362.286545 39.719328 
L 364.416 38.794227 
L 366.545455 38.10515 
L 368.674909 37.653363 
L 370.804364 37.439986 
L 372.933818 37.465976 
L 375.063273 37.732515 
L 377.192727 38.240723 
L 379.322182 38.99164 
L 381.451636 39.986427 
L 383.581091 41.226122 
L 385.710545 42.711888 
L 388.106182 44.678835 
L 390.501818 46.960148 
L 392.897455 49.557384 
L 395.293091 52.472059 
L 397.954909 56.084902 
L 400.616727 60.093776 
L 403.278545 64.50088 
L 406.206545 69.811081 
L 409.134545 75.608607 
L 412.062545 81.896282 
L 415.256727 89.317909 
L 418.450909 97.329968 
L 421.645091 105.936073 
L 425.105455 115.934198 
L 426.436364 119.967442 
L 426.436364 119.967442 
" clip-path="url(#p3d07fd1419)" style="fill: none; stroke-dasharray: 11.1,4.8; stroke-dashoffset: 0; stroke: #000000; stroke-width: 3"/>
   </g>
   <g id="line2d_2">
    <path d="M 27.163636 104.268048 
L 30.091636 100.824842 
L 32.221091 98.64838 
L 34.084364 97.04757 
L 35.947636 95.752907 
L 37.810909 94.767171 
L 39.674182 94.065638 
L 41.537455 93.602683 
L 44.731636 92.922948 
L 45.796364 92.625769 
L 46.594909 92.605966 
L 47.393455 92.871114 
L 47.925818 93.260397 
L 48.458182 93.872087 
L 48.990545 94.733085 
L 49.789091 96.605311 
L 50.587636 99.305883 
L 51.386182 102.989181 
L 51.652364 104.472373 
L 51.918545 104.760874 
L 52.983273 99.531486 
L 53.781818 96.46623 
L 54.580364 94.105059 
L 55.378909 92.390846 
L 56.177455 91.24253 
L 56.976 90.553162 
L 57.774545 90.207367 
L 58.839273 90.06183 
L 60.436364 89.896094 
L 61.767273 89.605393 
L 62.832 90.72691 
L 63.896727 91.481065 
L 64.961455 91.920376 
L 66.026182 92.091592 
L 67.090909 92.033406 
L 68.421818 91.695396 
L 69.752727 91.119058 
L 71.349818 90.184512 
L 73.479273 88.652413 
L 76.407273 86.259088 
L 76.673455 86.555228 
L 77.205818 88.329578 
L 78.004364 91.256749 
L 78.802909 93.423123 
L 79.601455 94.997527 
L 80.4 96.12112 
L 81.198545 96.905769 
L 81.997091 97.439283 
L 83.061818 97.878407 
L 84.392727 98.160058 
L 86.788364 98.365691 
L 89.982545 98.681116 
L 92.112 99.101828 
L 93.709091 99.564492 
L 94.507636 100.407555 
L 95.572364 101.89876 
L 96.104727 102.237206 
L 96.637091 102.290348 
L 97.169455 102.083697 
L 97.701818 101.647728 
L 98.500364 100.642043 
L 99.565091 98.846042 
L 101.960727 94.593962 
L 102.759273 93.626473 
L 103.291636 93.221143 
L 103.824 93.045485 
L 104.356364 93.129743 
L 104.888727 93.497749 
L 105.421091 94.164905 
L 105.953455 95.026423 
L 106.219636 94.779646 
L 107.018182 93.430596 
L 107.816727 92.538542 
L 108.615273 92.020868 
L 109.413818 91.799396 
L 110.212364 91.803091 
L 110.744727 91.959755 
L 111.543273 92.466739 
L 112.608 93.455111 
L 114.471273 95.582563 
L 117.665455 99.214608 
L 119.528727 100.963114 
L 120.061091 101.38586 
L 120.593455 101.420464 
L 122.190545 101.183091 
L 124.053818 100.634217 
L 127.514182 99.507323 
L 129.111273 99.408077 
L 130.442182 99.579667 
L 131.506909 99.933723 
L 132.571636 100.512489 
L 133.636364 101.339569 
L 134.701091 102.430343 
L 134.967273 102.745062 
L 135.233455 102.687872 
L 136.298182 100.278853 
L 137.895273 97.031005 
L 139.226182 94.79644 
L 140.557091 92.96079 
L 141.888 91.489202 
L 143.218909 90.341135 
L 143.751273 90.030837 
L 150.139636 88.847356 
L 152.535273 88.119897 
L 155.729455 86.8818 
L 158.125091 86.031118 
L 159.456 85.782992 
L 160.520727 85.828246 
L 161.319273 86.132316 
L 161.851636 86.55639 
L 162.650182 87.39389 
L 163.714909 88.12766 
L 164.779636 88.572929 
L 166.110545 88.894852 
L 168.24 89.159563 
L 177.822545 90.083294 
L 179.419636 90.567714 
L 180.750545 91.162174 
L 182.081455 91.987488 
L 183.412364 93.093312 
L 184.477091 94.151475 
L 184.743273 94.215224 
L 186.074182 93.61655 
L 187.405091 93.255498 
L 188.736 93.119115 
L 190.066909 93.183715 
L 191.664 93.479503 
L 194.592 94.135719 
L 196.189091 94.461357 
L 197.786182 95.030886 
L 199.383273 95.87397 
L 200.980364 96.998788 
L 202.843636 98.627601 
L 205.505455 101.324851 
L 208.167273 103.964621 
L 209.498182 104.530704 
L 210.296727 104.873842 
L 211.095273 105.477249 
L 211.893818 105.762387 
L 212.958545 105.854388 
L 214.821818 105.704699 
L 217.217455 105.556027 
L 218.814545 105.661231 
L 220.411636 105.995712 
L 221.742545 106.501969 
L 222.807273 107.106933 
L 223.073455 106.949356 
L 223.605818 105.01529 
L 225.469091 97.59028 
L 228.397091 87.134472 
L 229.195636 85.687628 
L 229.728 85.098005 
L 230.260364 84.744343 
L 230.792727 84.583444 
L 231.591273 84.633098 
L 232.389818 84.948191 
L 233.454545 85.66224 
L 234.785455 86.893321 
L 236.116364 88.278346 
L 237.713455 88.347679 
L 239.576727 88.670017 
L 241.173818 89.16905 
L 242.770909 89.912141 
L 244.368 90.924884 
L 249.159273 94.159695 
L 249.425455 94.054803 
L 250.490182 92.366413 
L 251.554909 91.104237 
L 252.353455 90.432244 
L 253.152 89.988075 
L 253.950545 89.748003 
L 255.015273 89.705137 
L 256.08 89.908342 
L 257.677091 90.491966 
L 260.072727 91.373308 
L 260.871273 93.101512 
L 261.669818 95.465319 
L 262.468364 98.472369 
L 263.533091 103.474057 
L 264.065455 106.380678 
L 265.396364 101.488241 
L 266.194909 99.623114 
L 266.993455 98.395832 
L 267.792 97.627126 
L 268.590545 97.166952 
L 269.655273 96.823524 
L 274.180364 95.693994 
L 276.043636 95.219975 
L 276.842182 95.051105 
L 277.906909 94.224171 
L 278.705455 93.338075 
L 279.504 92.15833 
L 280.302545 90.607777 
L 281.101091 88.931615 
L 281.367273 89.397829 
L 282.432 92.738114 
L 283.496727 95.382472 
L 284.561455 97.348423 
L 285.36 98.407395 
L 286.158545 99.149012 
L 286.957091 99.622491 
L 288.021818 99.945015 
L 289.618909 100.094497 
L 290.949818 100.294733 
L 291.748364 100.602124 
L 292.546909 101.135036 
L 293.345455 101.954995 
L 294.144 103.532845 
L 295.741091 100.384617 
L 297.072 98.231737 
L 298.136727 96.862052 
L 299.201455 95.784003 
L 300.532364 94.782698 
L 301.863273 94.087082 
L 303.194182 93.621013 
L 304.791273 93.289272 
L 306.388364 93.166548 
L 307.985455 93.272728 
L 309.316364 93.613187 
L 309.848727 93.843025 
L 310.381091 94.390446 
L 311.179636 95.668378 
L 312.244364 97.936759 
L 313.575273 100.922386 
L 315.704727 99.345906 
L 319.697455 96.04257 
L 322.891636 93.148924 
L 325.553455 90.40613 
L 326.884364 89.08859 
L 328.481455 88.143914 
L 333.272727 85.088435 
L 333.805091 84.86634 
L 334.603636 85.798582 
L 336.466909 87.91964 
L 338.064 89.428136 
L 339.661091 90.595364 
L 340.992 91.303892 
L 342.322909 91.794974 
L 343.653818 92.075712 
L 346.049455 92.557038 
L 347.646545 92.797068 
L 348.711273 92.753434 
L 349.509818 92.543711 
L 350.308364 92.132901 
L 351.106909 91.476124 
L 351.905455 90.530618 
L 352.704 89.370843 
L 352.970182 89.527798 
L 356.696727 93.840741 
L 357.761455 94.596204 
L 358.56 94.877273 
L 359.358545 94.874596 
L 360.157091 94.569944 
L 360.955636 93.972807 
L 361.754182 93.017959 
L 362.552727 91.658737 
L 363.351273 89.854225 
L 364.149818 87.940066 
L 364.948364 86.886014 
L 365.746909 86.132731 
L 366.545455 85.648062 
L 367.344 85.395619 
L 368.142545 85.336561 
L 369.207273 85.490423 
L 370.538182 85.932412 
L 375.329455 87.79841 
L 376.660364 88.139493 
L 379.056 90.631131 
L 379.322182 90.87361 
L 379.588364 90.889283 
L 380.653091 89.357786 
L 381.451636 88.660032 
L 382.250182 88.300163 
L 383.048727 88.197118 
L 383.847273 88.295181 
L 384.912 88.67066 
L 386.242909 89.431748 
L 387.573818 90.444657 
L 389.170909 91.929904 
L 391.034182 94.00081 
L 392.897455 96.40848 
L 394.760727 99.165016 
L 396.357818 101.318623 
L 398.753455 101.475142 
L 401.681455 102.019823 
L 402.48 101.962675 
L 403.278545 101.702011 
L 404.077091 101.159261 
L 404.875636 100.256039 
L 405.674182 98.895551 
L 406.472727 96.979254 
L 407.271273 94.382184 
L 408.069818 90.984107 
L 408.336 90.724004 
L 409.134545 93.091485 
L 409.666909 94.173998 
L 409.933091 94.428891 
L 412.328727 95.12214 
L 413.925818 95.345231 
L 415.256727 95.282665 
L 416.587636 94.945465 
L 417.918545 94.334627 
L 419.515636 93.289583 
L 424.040727 89.994697 
L 425.105455 89.620339 
L 425.904 89.568256 
L 426.436364 89.669972 
L 426.436364 89.669972 
" clip-path="url(#p3d07fd1419)" style="fill: none; stroke-dasharray: 3,4.95; stroke-dashoffset: 0; stroke: #0000ff; stroke-width: 3"/>
   </g>
   <g id="line2d_3">
    <path d="M 27.163636 134.768141 
L 28.228364 128.098074 
L 29.026909 124.320699 
L 30.091636 120.480633 
L 32.221091 113.75265 
L 33.019636 110.201002 
L 33.818182 105.312177 
L 34.616727 98.589965 
L 35.415273 89.551068 
L 36.213818 77.759536 
L 37.278545 57.491703 
L 37.544727 59.407792 
L 38.343273 71.092106 
L 39.141818 78.781351 
L 39.674182 81.997853 
L 40.206545 83.896713 
L 40.472727 84.41638 
L 40.738909 84.664568 
L 41.005091 84.678663 
L 41.271273 84.465744 
L 41.803636 83.474029 
L 42.336 82.068868 
L 43.134545 81.230787 
L 43.933091 80.243141 
L 45.530182 79.440972 
L 46.328727 79.247129 
L 46.861091 79.269528 
L 47.393455 79.466774 
L 47.925818 79.879432 
L 48.458182 80.564357 
L 48.990545 81.561261 
L 49.522909 82.940806 
L 50.321455 85.835013 
L 51.12 89.93074 
L 51.652364 93.426506 
L 51.918545 93.714364 
L 52.983273 86.575883 
L 54.048 81.113709 
L 54.846545 78.065246 
L 55.645091 75.823706 
L 56.443636 74.278696 
L 57.242182 73.291631 
L 58.040727 72.704084 
L 59.105455 72.251092 
L 60.436364 71.657899 
L 60.702545 71.258257 
L 60.968727 71.073091 
L 61.234909 71.127707 
L 61.501091 72.078693 
L 62.565818 77.877548 
L 63.364364 80.597176 
L 64.162909 82.314046 
L 65.227636 83.851376 
L 66.292364 85.337474 
L 66.558545 85.261042 
L 67.357091 83.166389 
L 67.889455 82.251522 
L 68.421818 81.754357 
L 68.954182 81.695403 
L 69.486545 82.092304 
L 70.018909 82.938814 
L 70.551273 84.222185 
L 71.349818 86.983184 
L 71.616 88.104058 
L 71.882182 88.495044 
L 72.414545 88.103913 
L 72.946909 87.954161 
L 73.745455 88.052785 
L 74.810182 88.538491 
L 76.407273 89.498923 
L 76.673455 90.328618 
L 77.205818 93.536609 
L 78.270545 100.379947 
L 79.069091 104.330738 
L 79.867636 107.355806 
L 80.666182 109.463288 
L 81.198545 110.343135 
L 81.730909 110.776966 
L 81.997091 110.821265 
L 82.263273 110.747219 
L 82.795636 110.230957 
L 83.328 109.207627 
L 83.860364 107.633679 
L 84.658909 104.219784 
L 85.457455 99.513696 
L 86.256 93.493701 
L 87.320727 83.457069 
L 88.119273 75.412191 
L 88.917818 82.605682 
L 89.716364 88.225495 
L 90.514909 92.4416 
L 91.313455 95.311333 
L 91.845818 96.534006 
L 92.378182 97.224848 
L 92.910545 97.380661 
L 93.442909 96.995197 
L 93.709091 96.592753 
L 94.507636 103.678964 
L 95.04 107.061908 
L 95.572364 109.186931 
L 96.104727 110.182029 
L 96.370909 110.332528 
L 96.637091 110.25979 
L 97.435636 109.447387 
L 97.968 108.754968 
L 98.766545 107.783887 
L 101.428364 103.85373 
L 101.960727 103.479911 
L 102.493091 103.380769 
L 103.025455 103.606392 
L 103.824 104.351517 
L 104.090182 104.04041 
L 104.622545 102.432751 
L 105.154909 101.383452 
L 105.687273 100.902645 
L 105.953455 100.724392 
L 106.485818 98.397451 
L 107.284364 95.064971 
L 108.082909 92.502028 
L 108.881455 90.592271 
L 109.68 89.23664 
L 110.212364 88.586256 
L 110.478545 88.665138 
L 111.809455 90.982966 
L 114.471273 95.73275 
L 115.802182 97.631298 
L 116.600727 98.455347 
L 117.399273 98.922184 
L 117.931636 98.978502 
L 118.464 98.773761 
L 118.996364 98.25482 
L 119.528727 97.378294 
L 120.061091 96.066193 
L 120.593455 93.812323 
L 121.392 89.280357 
L 122.190545 84.52175 
L 123.787636 76.729958 
L 124.852364 72.430819 
L 125.917091 68.982362 
L 126.715636 67.025732 
L 127.514182 65.688098 
L 129.111273 63.312188 
L 129.643636 63.719366 
L 130.442182 64.751455 
L 131.240727 66.217854 
L 132.039273 68.180234 
L 132.837818 70.687129 
L 133.902545 74.943755 
L 135.233455 81.324304 
L 136.032 82.542659 
L 136.298182 82.821528 
L 136.564364 82.606118 
L 138.693818 79.847962 
L 139.758545 78.781268 
L 140.823273 78.04237 
L 141.621818 77.731658 
L 142.420364 77.61867 
L 143.485091 77.718642 
L 145.614545 78.254896 
L 146.679273 78.208438 
L 147.477818 77.940177 
L 148.276364 77.410275 
L 149.341091 76.529702 
L 153.067636 78.171239 
L 154.132364 78.826002 
L 155.197091 79.800155 
L 155.995636 80.871645 
L 156.794182 82.407667 
L 157.592727 84.574767 
L 158.391273 87.624662 
L 158.657455 88.790686 
L 159.189818 89.910563 
L 159.722182 90.613154 
L 160.254545 90.858685 
L 160.786909 89.857151 
L 161.319273 88.358702 
L 162.384 84.471764 
L 163.182545 80.26336 
L 164.247273 73.768121 
L 164.779636 72.568199 
L 165.312 71.908661 
L 165.844364 71.741348 
L 166.376727 72.021068 
L 166.909091 72.666718 
L 167.707636 74.15101 
L 170.369455 80.01623 
L 170.901818 80.651937 
L 171.434182 80.889061 
L 171.700364 80.826889 
L 171.966545 80.638382 
L 172.498909 79.815434 
L 173.031273 78.335252 
L 173.563636 76.120552 
L 173.829818 74.725044 
L 174.096 74.904646 
L 176.757818 100.646859 
L 177.290182 103.709417 
L 178.621091 109.026717 
L 179.153455 110.456726 
L 179.685818 111.519144 
L 180.218182 111.634042 
L 181.016727 111.447693 
L 182.081455 110.866809 
L 183.412364 109.848773 
L 184.477091 108.892679 
L 184.743273 108.354828 
L 186.340364 103.560122 
L 186.606545 103.870087 
L 188.203636 111.412507 
L 190.066909 119.141131 
L 191.397818 123.857536 
L 192.462545 126.862406 
L 193.261091 128.42091 
L 193.527273 128.758712 
L 194.059636 128.50276 
L 194.858182 127.745429 
L 195.656727 126.555949 
L 196.455273 124.955285 
L 197.52 122.231484 
L 198.850909 118.029889 
L 199.383273 116.167046 
L 199.649455 115.88307 
L 200.980364 116.337452 
L 202.577455 116.944761 
L 203.376 117.02082 
L 203.908364 116.898179 
L 204.706909 116.506405 
L 205.505455 117.4445 
L 206.304 117.98447 
L 206.836364 118.084027 
L 207.368727 117.947457 
L 207.901091 117.557551 
L 208.433455 116.71291 
L 209.232 114.73712 
L 210.829091 110.267678 
L 211.627636 108.094724 
L 213.490909 102.033566 
L 214.555636 98.834293 
L 215.354182 97.013153 
L 215.886545 96.226117 
L 216.418909 95.892466 
L 216.685091 95.930745 
L 216.951273 96.113979 
L 217.749818 97.310871 
L 218.016 96.831973 
L 218.282182 96.755976 
L 218.814545 101.893259 
L 219.613091 109.321964 
L 220.411636 114.904039 
L 220.944 117.571169 
L 221.476364 119.42191 
L 222.008727 120.453232 
L 222.274909 120.665258 
L 222.541091 120.679416 
L 222.807273 120.499295 
L 223.073455 119.682325 
L 223.605818 115.333324 
L 224.670545 103.659181 
L 226.001455 85.72464 
L 227.066182 71.400639 
L 227.598545 72.588417 
L 228.130909 74.419438 
L 228.929455 77.973307 
L 232.656 96.54451 
L 233.720727 103.300766 
L 234.519273 107.307522 
L 235.317818 110.36352 
L 235.850182 111.860433 
L 236.116364 112.279048 
L 236.382545 112.311681 
L 236.648727 112.229768 
L 237.181091 111.687495 
L 237.713455 110.63994 
L 238.245818 109.028564 
L 239.044364 106.267108 
L 242.770909 119.497595 
L 243.569455 123.026471 
L 244.101818 126.231639 
L 245.166545 123.138006 
L 245.965091 121.361331 
L 246.763636 120.12504 
L 247.296 119.634684 
L 247.828364 119.441755 
L 248.360727 119.560161 
L 248.893091 120.010827 
L 249.159273 120.373145 
L 249.425455 120.498402 
L 249.957818 120.17513 
L 250.224 120.23232 
L 250.490182 120.437455 
L 251.022545 121.311469 
L 251.821091 123.523428 
L 252.353455 122.841762 
L 252.885818 122.559675 
L 253.418182 122.628054 
L 253.950545 123.005235 
L 254.482909 123.643558 
L 255.281455 124.978119 
L 257.144727 128.846852 
L 257.677091 129.894137 
L 257.943273 129.955541 
L 258.209455 129.473862 
L 259.274182 125.497558 
L 260.338909 120.396229 
L 262.734545 108.494262 
L 263.266909 112.479451 
L 264.065455 119.459483 
L 265.928727 112.636239 
L 266.727273 110.71193 
L 267.792 108.747204 
L 270.986182 103.479371 
L 272.317091 100.541032 
L 275.777455 92.168855 
L 276.043636 91.77733 
L 276.309818 93.695743 
L 277.108364 102.735015 
L 277.640727 106.899058 
L 278.173091 109.521599 
L 278.705455 110.766068 
L 278.971636 110.924559 
L 279.237818 110.794964 
L 279.504 110.384943 
L 280.036364 108.768565 
L 280.568727 106.169502 
L 281.101091 103.088656 
L 281.367273 102.636495 
L 281.633455 102.608928 
L 281.899636 102.416621 
L 282.432 101.55884 
L 282.964364 100.120611 
L 283.762909 96.999556 
L 284.561455 92.914187 
L 285.626182 86.297429 
L 287.223273 74.830456 
L 288.820364 63.040606 
L 289.352727 60.656102 
L 291.216 56.185021 
L 291.482182 56.300313 
L 292.280727 61.351095 
L 294.144 72.786266 
L 296.539636 75.028471 
L 298.402909 77.17448 
L 300.798545 79.990884 
L 302.129455 81.197636 
L 303.194182 81.817878 
L 303.992727 82.029738 
L 304.791273 82.001465 
L 305.589818 81.720977 
L 305.856 81.571454 
L 306.388364 81.077589 
L 306.654545 81.058409 
L 306.920727 81.209738 
L 307.453091 82.039682 
L 307.985455 83.491072 
L 308.784 86.698648 
L 309.848727 92.315929 
L 310.381091 97.564705 
L 311.179636 105.242242 
L 311.978182 110.854229 
L 312.510545 113.31994 
L 313.042909 114.735397 
L 313.309091 115.001977 
L 313.575273 114.378144 
L 314.107636 111.147795 
L 314.64 106.78198 
L 315.438545 98.198772 
L 316.237091 87.354096 
L 317.035636 75.876557 
L 317.301818 73.510757 
L 317.568 73.015025 
L 318.632727 73.929331 
L 319.431273 74.327104 
L 319.963636 74.415452 
L 320.496 74.355627 
L 321.028364 74.146755 
L 321.826909 73.556281 
L 322.625455 72.645233 
L 323.690182 71.034418 
L 325.021091 68.525323 
L 326.884364 64.496645 
L 327.949091 62.084471 
L 328.747636 60.800892 
L 330.610909 58.843307 
L 333.538909 54.741623 
L 333.805091 54.472344 
L 334.337455 55.048869 
L 335.668364 56.979239 
L 336.999273 59.332605 
L 339.128727 63.268533 
L 339.927273 64.216344 
L 340.459636 64.531831 
L 340.725818 64.523839 
L 340.992 64.386667 
L 341.258182 64.072903 
L 341.790545 62.850915 
L 342.056727 61.874208 
L 342.322909 61.337291 
L 342.855273 71.590413 
L 343.653818 85.467588 
L 344.186182 91.562002 
L 344.718545 95.810927 
L 345.250909 98.669491 
L 345.783273 100.463582 
L 346.315636 101.461711 
L 346.848 101.850953 
L 347.380364 101.795902 
L 347.912727 101.402259 
L 348.445091 100.743697 
L 349.243636 99.332724 
L 350.042182 97.459833 
L 350.840727 95.096524 
L 352.704 88.772044 
L 352.970182 88.974523 
L 353.502545 90.167221 
L 354.034909 91.861858 
L 354.833455 95.18564 
L 355.898182 100.73913 
L 357.229091 108.816537 
L 358.293818 115.101514 
L 359.092364 113.276825 
L 359.890909 110.901476 
L 360.423273 111.24042 
L 360.955636 111.176629 
L 361.488 110.689428 
L 362.020364 109.765573 
L 362.552727 108.388872 
L 363.351273 105.475629 
L 364.416 101.101864 
L 366.811636 93.33108 
L 368.941091 87.274965 
L 370.538182 83.382443 
L 371.869091 80.659099 
L 372.933818 78.884541 
L 373.998545 77.498852 
L 374.797091 76.754017 
L 375.595636 76.270636 
L 376.394182 76.065625 
L 376.660364 75.633766 
L 377.192727 73.0554 
L 377.725091 71.823697 
L 377.991273 71.692482 
L 378.257455 71.878021 
L 378.523636 72.357044 
L 379.056 74.147855 
L 379.588364 76.68813 
L 379.854545 78.708925 
L 381.185455 93.044634 
L 382.516364 104.740074 
L 383.847273 114.352486 
L 385.178182 122.369902 
L 386.775273 130.475997 
L 387.041455 131.706808 
L 387.307636 132.352105 
L 388.106182 130.623341 
L 388.904727 129.514175 
L 389.437091 129.076898 
L 389.969455 128.84762 
L 390.501818 128.808055 
L 391.034182 128.93493 
L 391.832727 129.415572 
L 392.631273 130.185213 
L 393.429818 131.254315 
L 396.357818 136.011821 
L 398.221091 136.306093 
L 399.285818 136.3944 
L 400.084364 136.236054 
L 400.882909 135.760893 
L 401.415273 135.185469 
L 401.947636 134.353304 
L 402.48 133.189231 
L 403.012364 131.640048 
L 403.810909 128.427594 
L 404.609455 123.89843 
L 405.408 117.782531 
L 406.206545 109.763518 
L 407.005091 99.544834 
L 407.803636 86.82897 
L 408.336 78.211926 
L 409.134545 69.872484 
L 409.666909 63.214146 
L 409.933091 61.625584 
L 410.465455 61.70019 
L 410.997818 61.600467 
L 411.530182 61.328012 
L 412.062545 60.896859 
L 412.861091 59.941575 
L 413.659636 58.616853 
L 414.724364 56.307828 
L 415.256727 55.125156 
L 415.522909 54.983085 
L 416.055273 55.529925 
L 416.587636 56.452784 
L 417.12 57.794486 
L 417.918545 60.648608 
L 418.717091 64.577354 
L 419.515636 69.566671 
L 420.580364 77.723126 
L 422.177455 92.220232 
L 424.040727 109.224773 
L 424.839273 115.063007 
L 425.371636 117.999229 
L 425.904 119.914383 
L 426.170182 120.429359 
L 426.436364 120.596631 
L 426.436364 120.596631 
" clip-path="url(#p3d07fd1419)" style="fill: none; stroke: #0000ff; stroke-width: 3; stroke-linecap: square"/>
   </g>
   <g id="patch_3">
    <path d="M 7.2 331.2 
L 7.2 7.2 
" style="fill: none; stroke: #000000; stroke-width: 0.8; stroke-linejoin: miter; stroke-linecap: square"/>
   </g>
   <g id="patch_4">
    <path d="M 446.4 331.2 
L 446.4 7.2 
" style="fill: none; stroke: #000000; stroke-width: 0.8; stroke-linejoin: miter; stroke-linecap: square"/>
   </g>
   <g id="patch_5">
    <path d="M 7.2 331.2 
L 446.4 331.2 
" style="fill: none; stroke: #000000; stroke-width: 0.8; stroke-linejoin: miter; stroke-linecap: square"/>
   </g>
   <g id="patch_6">
    <path d="M 7.2 7.2 
L 446.4 7.2 
" style="fill: none; stroke: #000000; stroke-width: 0.8; stroke-linejoin: miter; stroke-linecap: square"/>
   </g>
  </g>
 </g>
 <defs>
  <clipPath id="p3d07fd1419">
   <rect x="7.2" y="7.2" width="439.2" height="324"/>
  </clipPath>
 </defs>
</svg>
