<?xml version="1.0" encoding="utf-8" standalone="no"?>
<!DOCTYPE svg PUBLIC "-//W3C//DTD SVG 1.1//EN"
  "http://www.w3.org/Graphics/SVG/1.1/DTD/svg11.dtd">
<svg xmlns:xlink="http://www.w3.org/1999/xlink" width="453.6pt" height="338.4pt" viewBox="0 0 453.6 338.4" xmlns="http://www.w3.org/2000/svg" version="1.1">
 <metadata>
  <rdf:RDF xmlns:dc="http://purl.org/dc/elements/1.1/" xmlns:cc="http://creativecommons.org/ns#" xmlns:rdf="http://www.w3.org/1999/02/22-rdf-syntax-ns#">
   <cc:Work>
    <dc:type rdf:resource="http://purl.org/dc/dcmitype/StillImage"/>
    <dc:date>2025-05-14T00:14:47.845678</dc:date>
    <dc:format>image/svg+xml</dc:format>
    <dc:creator>
     <cc:Agent>
      <dc:title>Matplotlib v3.10.1, https://matplotlib.org/</dc:title>
     </cc:Agent>
    </dc:creator>
   </cc:Work>
  </rdf:RDF>
 </metadata>
 <defs>
  <style type="text/css">*{stroke-linejoin: round; stroke-linecap: butt}</style>
 </defs>
 <g id="figure_1">
  <g id="patch_1">
   <path d="M 0 338.4 
L 453.6 338.4 
L 453.6 0 
L 0 0 
z
" style="fill: #ffffff"/>
  </g>
  <g id="axes_1">
   <g id="patch_2">
    <path d="M 7.2 331.2 
L 446.4 331.2 
L 446.4 7.2 
L 7.2 7.2 
z
" style="fill: #ffffff"/>
   </g>
   <g id="matplotlib.axis_1"/>
   <g id="matplotlib.axis_2"/>
   <g id="line2d_1">
    <path d="M 27.163636 169.023889 
L 29.026909 170.150052 
L 30.890182 171.543402 
L 32.753455 173.203921 
L 34.882909 175.428805 
L 37.012364 178.002621 
L 39.141818 180.925408 
L 41.537455 184.63067 
L 43.933091 188.777552 
L 46.328727 193.366103 
L 48.990545 198.982477 
L 51.652364 205.144084 
L 54.314182 211.850932 
L 57.242182 219.858249 
L 60.170182 228.525288 
L 63.364364 238.732687 
L 66.558545 249.725238 
L 68.155636 255.51595 
L 68.421818 255.327711 
L 71.083636 247.887534 
L 73.745455 241.129401 
L 76.141091 235.63023 
L 78.536727 230.683513 
L 80.666182 226.750225 
L 82.795636 223.253443 
L 84.925091 220.193175 
L 86.788364 217.873516 
L 88.651636 215.888054 
L 90.514909 214.236797 
L 92.112 213.08742 
L 93.709091 212.183586 
L 95.306182 211.525305 
L 96.903273 211.11253 
L 98.500364 210.945298 
L 100.097455 211.023628 
L 101.694545 211.347464 
L 103.291636 211.916852 
L 104.888727 212.731783 
L 106.485818 213.79223 
L 108.082909 215.09822 
L 109.946182 216.932212 
L 111.809455 219.100401 
L 113.672727 221.602795 
L 115.802182 224.871892 
L 117.931636 228.577514 
L 120.061091 232.719641 
L 122.456727 237.901273 
L 124.852364 243.635377 
L 127.248 249.921954 
L 129.909818 257.554963 
L 132.571636 265.870008 
L 135.499636 275.804352 
L 138.427636 286.56395 
L 141.355636 298.148773 
L 144.549818 311.728073 
L 145.614545 316.472727 
L 145.880727 315.714708 
L 149.607273 279.436085 
L 153.067636 247.778521 
L 156.528 218.075495 
L 159.988364 190.326971 
L 163.182545 166.447755 
L 166.376727 144.233859 
L 169.304727 125.33413 
L 172.232727 107.833864 
L 175.160727 91.732932 
L 177.822545 78.310019 
L 180.484364 66.043685 
L 182.88 55.992835 
L 185.275636 46.87869 
L 187.405091 39.563717 
L 189.534545 32.988883 
L 191.664 27.154242 
L 193.261091 23.263983 
L 193.527273 23.9475 
L 197.52 46.199494 
L 201.512727 69.719426 
L 205.771636 96.205045 
L 210.030545 124.133451 
L 214.289455 153.504589 
L 218.814545 186.292223 
L 223.339636 220.708647 
L 228.130909 258.924781 
L 232.922182 298.966782 
L 233.454545 303.528692 
L 233.720727 303.062569 
L 237.979636 286.989237 
L 242.238545 270.060017 
L 246.763636 251.134914 
L 251.288727 231.243696 
L 256.08 209.129136 
L 260.871273 185.931341 
L 265.396364 163.599447 
L 267.792 159.467006 
L 270.187636 155.755493 
L 272.583273 152.464854 
L 274.712727 149.893281 
L 276.842182 147.654251 
L 278.971636 145.747783 
L 280.834909 144.352475 
L 282.698182 143.21176 
L 284.561455 142.325692 
L 286.424727 141.694235 
L 288.288 141.317462 
L 290.151273 141.195281 
L 292.014545 141.327748 
L 293.877818 141.714844 
L 295.741091 142.356551 
L 297.604364 143.252942 
L 299.467636 144.403907 
L 301.330909 145.809538 
L 303.194182 147.469761 
L 305.323636 149.679003 
L 307.453091 152.220825 
L 309.582545 155.09519 
L 311.978182 158.726443 
L 314.373818 162.778569 
L 316.769455 167.251624 
L 319.431273 172.715346 
L 322.093091 178.698752 
L 324.754909 185.201803 
L 327.682909 192.955368 
L 330.610909 201.337722 
L 333.805091 211.199244 
L 336.999273 221.809085 
L 338.064 225.511946 
L 338.330182 224.963925 
L 341.258182 216.175527 
L 344.186182 208.08181 
L 346.848 201.326882 
L 349.509818 195.146207 
L 352.171636 189.53975 
L 354.567273 184.98494 
L 356.962909 180.895205 
L 359.358545 177.27059 
L 361.488 174.439218 
L 363.617455 171.975338 
L 365.746909 169.878987 
L 367.610182 168.346134 
L 369.473455 167.094651 
L 371.336727 166.124556 
L 373.2 165.435813 
L 374.797091 165.069419 
L 376.394182 164.909749 
L 377.991273 164.956804 
L 379.588364 165.210565 
L 381.185455 165.671088 
L 382.782545 166.338298 
L 384.645818 167.378015 
L 386.509091 168.699065 
L 388.372364 170.301541 
L 390.235636 172.185349 
L 392.365091 174.682822 
L 394.494545 177.547814 
L 396.624 180.7803 
L 399.019636 184.856111 
L 401.415273 189.397117 
L 403.810909 194.403197 
L 406.472727 200.511027 
L 409.134545 207.193093 
L 411.796364 214.449385 
L 414.724364 223.094567 
L 417.652364 232.434569 
L 420.846545 243.416104 
L 424.040727 255.224547 
L 426.436364 264.623469 
L 426.436364 264.623469 
" clip-path="url(#p2c4b1c7121)" style="fill: none; stroke-dasharray: 11.1,4.8; stroke-dashoffset: 0; stroke: #000000; stroke-width: 3"/>
   </g>
   <g id="line2d_2">
    <path d="M 27.163636 180.994116 
L 29.026909 188.390586 
L 30.890182 194.865308 
L 32.753455 200.459503 
L 34.350545 204.588269 
L 35.947636 208.13158 
L 37.544727 211.118172 
L 39.141818 213.576927 
L 40.472727 215.243946 
L 41.803636 216.58206 
L 43.134545 217.606191 
L 46.062545 219.438937 
L 47.925818 220.909758 
L 50.055273 222.890724 
L 52.184727 225.191989 
L 54.314182 227.813147 
L 56.709818 231.143417 
L 59.105455 234.876205 
L 59.904 236.054354 
L 61.501091 237.656146 
L 63.098182 238.903548 
L 64.429091 239.679919 
L 65.76 240.220793 
L 67.090909 240.530086 
L 68.421818 240.611121 
L 69.752727 240.467371 
L 71.083636 240.102417 
L 72.414545 239.519585 
L 73.745455 238.722271 
L 75.342545 237.487243 
L 78.004364 235.257262 
L 79.867636 234.076749 
L 81.464727 233.308282 
L 83.061818 232.759208 
L 84.658909 232.424208 
L 86.256 232.298224 
L 87.853091 232.376193 
L 89.450182 232.652909 
L 91.313455 233.220044 
L 92.910545 233.915454 
L 97.968 236.642616 
L 104.356364 239.830096 
L 109.413818 242.293542 
L 109.946182 243.068178 
L 111.809455 246.402696 
L 114.737455 252.184151 
L 118.730182 260.033922 
L 120.593455 263.24855 
L 122.190545 265.58819 
L 123.521455 267.158846 
L 124.586182 268.120298 
L 125.650909 268.783168 
L 126.183273 268.549038 
L 131.773091 265.336922 
L 134.701091 263.368219 
L 137.096727 261.483875 
L 139.226182 259.536409 
L 141.355636 257.278358 
L 141.621818 256.971577 
L 141.888 256.486289 
L 142.686545 253.838279 
L 144.283636 247.693275 
L 146.146909 239.507211 
L 148.010182 230.325014 
L 150.139636 218.757045 
L 152.801455 202.931998 
L 155.729455 184.140267 
L 158.923636 163.619614 
L 163.448727 139.034794 
L 166.909091 118.901034 
L 170.369455 97.437802 
L 173.829818 74.595182 
L 175.693091 61.914919 
L 175.959273 60.852154 
L 177.556364 57.888758 
L 179.153455 55.394379 
L 180.750545 53.287207 
L 182.347636 51.553612 
L 183.944727 50.17825 
L 185.275636 49.296281 
L 186.606545 48.649201 
L 187.937455 48.229436 
L 189.268364 48.029341 
L 190.599273 48.045112 
L 191.930182 48.270655 
L 193.261091 48.699026 
L 194.592 49.329431 
L 194.858182 49.516136 
L 196.455273 56.097804 
L 198.318545 64.838444 
L 200.448 75.993186 
L 203.109818 91.220811 
L 212.16 144.347323 
L 213.490909 151.756683 
L 225.735273 221.64129 
L 228.663273 236.560362 
L 229.195636 237.334702 
L 230.526545 238.734349 
L 231.591273 239.58086 
L 232.656 240.189251 
L 233.720727 240.563254 
L 234.785455 240.706413 
L 235.850182 240.622534 
L 236.914909 240.315421 
L 237.979636 239.788692 
L 239.044364 239.046227 
L 240.375273 237.820469 
L 241.706182 236.27094 
L 243.037091 234.405026 
L 244.634182 231.746638 
L 245.432727 230.147431 
L 247.029818 226.299703 
L 248.626909 221.861828 
L 250.490182 216.025341 
L 252.619636 208.61214 
L 255.281455 198.445997 
L 258.475636 185.291564 
L 261.936 170.721934 
L 263.799273 167.293194 
L 265.662545 164.365846 
L 267.525818 161.898559 
L 269.389091 159.848562 
L 271.252364 158.172124 
L 273.115636 156.824814 
L 274.978909 155.761495 
L 276.842182 154.937626 
L 278.439273 154.433465 
L 281.367273 153.93754 
L 284.295273 153.672495 
L 287.223273 153.638183 
L 290.151273 153.834861 
L 293.079273 154.263121 
L 294.942545 154.727909 
L 297.338182 155.498962 
L 300 156.122534 
L 302.928 156.57639 
L 306.388364 156.876264 
L 311.179636 157.188844 
L 311.978182 157.681703 
L 312.776727 158.44596 
L 313.841455 159.864148 
L 314.906182 161.708566 
L 316.237091 164.564076 
L 317.568 167.970839 
L 319.165091 172.696288 
L 321.028364 178.946409 
L 323.424 187.873904 
L 326.618182 200.740873 
L 327.150545 202.501633 
L 329.013818 203.562513 
L 331.941818 205.565714 
L 334.869818 207.485072 
L 336.466909 208.29535 
L 337.797818 208.757442 
L 339.128727 208.969559 
L 340.193455 208.923834 
L 341.258182 208.657533 
L 342.322909 208.143806 
L 343.387636 207.356465 
L 344.452364 206.332297 
L 345.517091 205.006446 
L 346.848 202.925534 
L 348.178909 200.394017 
L 349.776 196.790502 
L 351.373091 192.602381 
L 353.236364 187.021557 
L 355.099636 180.740521 
L 357.229091 172.766908 
L 359.624727 162.865514 
L 360.423273 159.470607 
L 362.020364 157.786561 
L 363.351273 156.695135 
L 364.682182 155.891949 
L 366.013091 155.38077 
L 367.077818 155.184646 
L 368.142545 155.179328 
L 369.207273 155.366255 
L 370.272 155.746758 
L 371.602909 156.496204 
L 372.933818 157.551434 
L 374.264727 158.913814 
L 375.595636 160.585007 
L 383.847273 172.25957 
L 385.710545 175.390799 
L 387.573818 178.956456 
L 389.437091 183.067825 
L 391.034182 187.112897 
L 392.631273 191.716941 
L 394.494545 197.162141 
L 396.624 201.215745 
L 399.019636 206.242139 
L 402.213818 213.513806 
L 407.271273 225.712401 
L 410.465455 233.377055 
L 410.731636 233.730485 
L 412.328727 234.535407 
L 413.925818 235.100178 
L 415.522909 235.404041 
L 416.853818 235.443007 
L 418.184727 235.273587 
L 419.515636 234.882336 
L 420.846545 234.256327 
L 422.177455 233.382853 
L 423.508364 232.248472 
L 424.839273 230.839333 
L 426.170182 229.139183 
L 426.436364 228.763038 
L 426.436364 228.763038 
" clip-path="url(#p2c4b1c7121)" style="fill: none; stroke-dasharray: 3,4.95; stroke-dashoffset: 0; stroke: #0000ff; stroke-width: 3"/>
   </g>
   <g id="line2d_3">
    <path d="M 27.163636 171.929058 
L 29.026909 175.079899 
L 31.422545 179.58494 
L 34.882909 186.624563 
L 39.940364 196.880863 
L 42.336 201.230315 
L 43.933091 203.72089 
L 45.530182 204.744042 
L 46.861091 205.79085 
L 48.192 207.129131 
L 49.522909 208.834156 
L 50.853818 210.981494 
L 52.184727 213.646679 
L 53.515636 216.905555 
L 54.846545 220.833968 
L 56.177455 225.508077 
L 57.508364 231.003767 
L 58.839273 237.397011 
L 60.170182 244.806961 
L 60.436364 246.427775 
L 60.702545 247.198384 
L 61.767273 248.062439 
L 62.565818 248.474337 
L 63.364364 248.686897 
L 64.162909 248.703407 
L 64.961455 248.527191 
L 65.76 248.161388 
L 66.824727 247.38461 
L 67.889455 246.284209 
L 68.954182 244.867904 
L 70.285091 242.664664 
L 71.616 239.993976 
L 73.213091 236.192601 
L 74.810182 231.763702 
L 76.407273 226.729292 
L 77.472 223.448994 
L 79.069091 219.933587 
L 80.666182 217.01924 
L 81.997091 215.047711 
L 83.061818 213.791759 
L 84.126545 212.838765 
L 85.191273 212.204649 
L 85.989818 211.948136 
L 86.788364 211.887027 
L 87.586909 212.028285 
L 88.385455 212.379037 
L 89.184 212.94632 
L 89.982545 213.737372 
L 91.047273 215.152699 
L 92.112 216.996488 
L 93.176727 219.283127 
L 93.975273 221.421971 
L 95.838545 229.133901 
L 97.701818 235.85461 
L 99.298909 240.823275 
L 100.896 245.098304 
L 102.493091 248.715448 
L 103.824 251.253281 
L 105.154909 253.380619 
L 106.485818 255.11896 
L 107.816727 256.489872 
L 109.147636 257.51511 
L 109.946182 257.894949 
L 110.478545 258.022522 
L 112.075636 257.917553 
L 114.737455 257.555406 
L 120.327273 256.513436 
L 124.053818 255.926763 
L 125.917091 255.781756 
L 134.434909 256.439345 
L 139.492364 257.020626 
L 141.888 257.409403 
L 144.017455 258.263005 
L 144.549818 258.212441 
L 145.082182 257.998847 
L 145.614545 257.615758 
L 146.413091 256.697852 
L 147.211636 255.376137 
L 148.010182 253.640161 
L 149.074909 250.662138 
L 150.139636 246.90176 
L 151.204364 242.332656 
L 152.535273 235.44659 
L 153.866182 227.209594 
L 155.197091 217.57258 
L 156.794182 204.092012 
L 158.391273 188.40752 
L 159.988364 172.214306 
L 177.024 83.534329 
L 182.613818 50.921084 
L 184.210909 43.141267 
L 185.808 36.426745 
L 187.138909 31.713337 
L 188.469818 27.859736 
L 189.534545 25.432541 
L 190.599273 23.621107 
L 191.397818 22.681261 
L 192.196364 22.112797 
L 192.728727 21.945888 
L 193.261091 21.952296 
L 193.793455 22.135493 
L 194.059636 22.760007 
L 195.922909 33.103547 
L 200.714182 67.790317 
L 203.908364 89.335729 
L 206.570182 105.817644 
L 208.965818 119.220631 
L 211.361455 132.129503 
L 221.476364 204.734568 
L 225.202909 230.605904 
L 227.864727 247.579589 
L 229.195636 248.762614 
L 229.728 249.041029 
L 230.526545 249.210191 
L 231.325091 249.134991 
L 232.123636 248.831313 
L 232.922182 248.314741 
L 233.986909 247.321858 
L 235.051636 246.01536 
L 236.382545 243.997533 
L 237.979636 241.107009 
L 239.842909 237.244359 
L 242.770909 230.559514 
L 245.698909 223.440241 
L 247.296 218.730397 
L 249.425455 211.733267 
L 256.878545 186.428512 
L 258.475636 181.954183 
L 259.806545 178.75444 
L 261.137455 176.148998 
L 265.928727 167.977746 
L 271.784727 157.565284 
L 274.446545 153.29491 
L 276.576 150.271032 
L 278.439273 148.007921 
L 279.504 147.274893 
L 281.633455 146.201085 
L 283.496727 145.487614 
L 285.36 145.002659 
L 287.223273 144.762508 
L 288.820364 144.764059 
L 290.417455 144.9677 
L 292.014545 145.383513 
L 293.611636 146.020215 
L 295.208727 146.865193 
L 296.007273 148.401739 
L 298.402909 153.039302 
L 300.798545 157.201291 
L 303.194182 160.891437 
L 305.323636 163.77788 
L 307.453091 166.296543 
L 309.582545 168.450254 
L 311.179636 169.805708 
L 312.510545 170.652385 
L 319.963636 174.10901 
L 321.826909 175.330244 
L 323.424 176.620841 
L 325.021091 178.194563 
L 326.618182 180.108695 
L 327.150545 180.909739 
L 329.013818 184.757449 
L 329.28 185.426284 
L 331.143273 192.601107 
L 332.740364 197.940267 
L 334.337455 202.506065 
L 335.668364 205.702317 
L 336.999273 208.329256 
L 338.064 210.010938 
L 339.128727 211.310787 
L 340.193455 212.219626 
L 340.992 212.639095 
L 341.790545 212.83064 
L 342.589091 212.790584 
L 343.387636 212.514735 
L 344.186182 211.991479 
L 344.984727 211.223381 
L 345.517091 210.503853 
L 346.848 207.953942 
L 348.711273 203.966507 
L 350.574545 199.462002 
L 352.437818 194.367518 
L 354.301091 188.615408 
L 356.164364 182.139966 
L 358.027636 174.879546 
L 359.890909 166.776291 
L 360.955636 161.47113 
L 362.020364 156.134353 
L 363.085091 155.509341 
L 364.149818 155.099013 
L 365.214545 154.903904 
L 366.279273 154.924698 
L 367.344 155.162448 
L 368.408727 155.618631 
L 369.473455 156.293967 
L 370.804364 157.448552 
L 372.135273 158.951118 
L 373.466182 160.805157 
L 374.797091 163.01523 
L 376.394182 166.143208 
L 378.257455 170.432069 
L 381.451636 178.552129 
L 383.314909 182.577312 
L 385.178182 186.113624 
L 387.041455 189.209118 
L 388.904727 191.91061 
L 390.768 194.262401 
L 392.897455 196.580324 
L 394.228364 198.044552 
L 396.091636 200.808002 
L 398.221091 204.382172 
L 400.350545 208.385674 
L 402.746182 213.390886 
L 405.141818 218.913594 
L 407.803636 225.643776 
L 410.465455 232.972064 
L 412.594909 239.357921 
L 413.925818 242.485751 
L 414.990545 244.512295 
L 416.055273 246.133699 
L 417.12 247.366069 
L 418.184727 248.224435 
L 418.983273 248.632898 
L 419.781818 248.848303 
L 420.580364 248.877887 
L 421.378909 248.728855 
L 422.443636 248.264879 
L 423.508364 247.51366 
L 424.573091 246.492965 
L 425.904 244.863139 
L 426.436364 244.108855 
L 426.436364 244.108855 
" clip-path="url(#p2c4b1c7121)" style="fill: none; stroke: #0000ff; stroke-width: 3; stroke-linecap: square"/>
   </g>
   <g id="patch_3">
    <path d="M 7.2 331.2 
L 7.2 7.2 
" style="fill: none; stroke: #000000; stroke-width: 0.8; stroke-linejoin: miter; stroke-linecap: square"/>
   </g>
   <g id="patch_4">
    <path d="M 446.4 331.2 
L 446.4 7.2 
" style="fill: none; stroke: #000000; stroke-width: 0.8; stroke-linejoin: miter; stroke-linecap: square"/>
   </g>
   <g id="patch_5">
    <path d="M 7.2 331.2 
L 446.4 331.2 
" style="fill: none; stroke: #000000; stroke-width: 0.8; stroke-linejoin: miter; stroke-linecap: square"/>
   </g>
   <g id="patch_6">
    <path d="M 7.2 7.2 
L 446.4 7.2 
" style="fill: none; stroke: #000000; stroke-width: 0.8; stroke-linejoin: miter; stroke-linecap: square"/>
   </g>
  </g>
 </g>
 <defs>
  <clipPath id="p2c4b1c7121">
   <rect x="7.2" y="7.2" width="439.2" height="324"/>
  </clipPath>
 </defs>
</svg>
