<?xml version="1.0" encoding="utf-8" standalone="no"?>
<!DOCTYPE svg PUBLIC "-//W3C//DTD SVG 1.1//EN"
  "http://www.w3.org/Graphics/SVG/1.1/DTD/svg11.dtd">
<svg xmlns:xlink="http://www.w3.org/1999/xlink" width="453.6pt" height="338.4pt" viewBox="0 0 453.6 338.4" xmlns="http://www.w3.org/2000/svg" version="1.1">
 <metadata>
  <rdf:RDF xmlns:dc="http://purl.org/dc/elements/1.1/" xmlns:cc="http://creativecommons.org/ns#" xmlns:rdf="http://www.w3.org/1999/02/22-rdf-syntax-ns#">
   <cc:Work>
    <dc:type rdf:resource="http://purl.org/dc/dcmitype/StillImage"/>
    <dc:date>2025-05-14T16:09:20.232230</dc:date>
    <dc:format>image/svg+xml</dc:format>
    <dc:creator>
     <cc:Agent>
      <dc:title>Matplotlib v3.10.1, https://matplotlib.org/</dc:title>
     </cc:Agent>
    </dc:creator>
   </cc:Work>
  </rdf:RDF>
 </metadata>
 <defs>
  <style type="text/css">*{stroke-linejoin: round; stroke-linecap: butt}</style>
 </defs>
 <g id="figure_1">
  <g id="patch_1">
   <path d="M 0 338.4 
L 453.6 338.4 
L 453.6 0 
L 0 0 
z
" style="fill: #ffffff"/>
  </g>
  <g id="axes_1">
   <g id="patch_2">
    <path d="M 7.2 331.2 
L 446.4 331.2 
L 446.4 7.2 
L 7.2 7.2 
z
" style="fill: #ffffff"/>
   </g>
   <g id="matplotlib.axis_1"/>
   <g id="matplotlib.axis_2"/>
   <g id="line2d_1">
    <path d="M 27.163636 316.472689 
L 36.213818 314.637868 
L 44.731636 312.683868 
L 52.717091 310.626577 
L 60.436364 308.40558 
L 67.623273 306.109241 
L 74.544 303.667259 
L 81.198545 301.083932 
L 87.586909 298.365645 
L 93.709091 295.520987 
L 99.565091 292.560823 
L 105.421091 289.346374 
L 111.010909 286.020792 
L 116.334545 282.600853 
L 121.658182 278.914873 
L 126.715636 275.147915 
L 131.773091 271.103094 
L 136.564364 266.996272 
L 141.355636 262.60302 
L 146.146909 257.903301 
L 150.672 253.164094 
L 155.197091 248.113267 
L 159.722182 242.73035 
L 164.247273 236.993503 
L 168.772364 230.879442 
L 173.031273 224.75827 
L 177.290182 218.259033 
L 181.549091 211.358336 
L 185.808 204.031417 
L 190.066909 196.25195 
L 194.325818 187.991985 
L 198.584727 179.221808 
L 202.843636 169.90995 
L 206.836364 160.65838 
L 210.829091 150.872107 
L 214.821818 140.520206 
L 218.814545 129.570022 
L 222.807273 117.986952 
L 226.8 105.734409 
L 426.436364 316.472727 
L 426.436364 316.472727 
" clip-path="url(#p5ee56b2119)" style="fill: none; stroke-dasharray: 11.1,4.8; stroke-dashoffset: 0; stroke: #000000; stroke-width: 3"/>
   </g>
   <g id="line2d_2">
    <path d="M 27.163636 299.044094 
L 28.494545 298.517588 
L 30.091636 297.620801 
L 31.688727 296.440449 
L 33.285818 294.978538 
L 34.882909 293.238105 
L 36.746182 290.860897 
L 38.609455 288.113276 
L 40.738909 284.522879 
L 42.868364 280.455761 
L 44.731636 276.468489 
L 46.594909 271.976031 
L 53.249455 255.360349 
L 55.645091 250.082888 
L 57.508364 246.498103 
L 59.105455 243.885891 
L 60.436364 242.097315 
L 61.767273 240.703539 
L 62.832 239.907775 
L 63.896727 239.427172 
L 67.090909 238.912878 
L 71.083636 238.106395 
L 74.810182 237.118951 
L 78.004364 236.048255 
L 81.198545 234.728506 
L 81.997091 234.259244 
L 85.191273 231.350538 
L 88.651636 227.873807 
L 92.644364 223.514855 
L 96.637091 218.837328 
L 99.032727 215.935644 
L 103.557818 214.184256 
L 107.550545 212.410896 
L 111.277091 210.528986 
L 115.003636 208.40774 
L 116.068364 207.662354 
L 117.399273 206.064372 
L 118.996364 203.787692 
L 120.859636 200.734216 
L 123.255273 196.367145 
L 131.506909 180.916304 
L 133.104 178.513429 
L 134.701091 176.524619 
L 136.298182 174.893896 
L 137.895273 173.59682 
L 139.492364 172.608657 
L 141.089455 171.904825 
L 142.686545 171.46052 
L 144.283636 171.250968 
L 145.880727 171.250643 
L 147.744 171.481192 
L 149.607273 171.775515 
L 152.269091 171.707142 
L 155.197091 171.847539 
L 158.923636 172.267933 
L 164.247273 173.13035 
L 165.844364 173.355852 
L 176.225455 168.066356 
L 179.419636 166.140906 
L 182.081455 164.318811 
L 184.743273 161.971098 
L 189.534545 157.988245 
L 195.656727 152.880422 
L 198.584727 150.167257 
L 202.045091 146.569608 
L 205.505455 143.307405 
L 208.965818 140.355704 
L 212.692364 137.483567 
L 214.821818 136.063861 
L 217.217455 134.842875 
L 219.346909 133.9984 
L 221.210182 133.484335 
L 223.073455 133.215618 
L 224.670545 133.203136 
L 226.267636 133.414057 
L 227.864727 133.862199 
L 229.461818 134.563256 
L 229.728 134.706094 
L 233.720727 138.694143 
L 236.914909 141.516999 
L 240.907636 144.729007 
L 246.497455 149.15979 
L 249.691636 152.765815 
L 253.684364 157.635399 
L 264.065455 170.521452 
L 271.252364 178.597603 
L 278.971636 187.230718 
L 282.432 190.197202 
L 286.424727 193.315645 
L 292.014545 197.357934 
L 295.474909 199.892051 
L 304.791273 208.115323 
L 311.712 214.290129 
L 319.165091 221.770271 
L 322.891636 225.191576 
L 325.819636 227.60438 
L 327.682909 229.151658 
L 331.941818 235.053596 
L 335.934545 240.222453 
L 339.661091 244.711023 
L 343.387636 248.859343 
L 345.250909 251.067686 
L 347.646545 254.224831 
L 350.042182 257.75539 
L 352.437818 261.701505 
L 354.833455 266.105058 
L 357.229091 271.007908 
L 359.624727 276.451376 
L 360.423273 278.126272 
L 362.818909 282.425426 
L 365.214545 286.256579 
L 367.344 289.277905 
L 369.473455 291.944888 
L 371.602909 294.265081 
L 373.732364 296.245906 
L 375.861818 297.895208 
L 376.660364 298.348481 
L 384.113455 301.872611 
L 392.897455 306.038676 
L 403.278545 307.196177 
L 411.264 308.07193 
L 416.055273 308.176154 
L 420.314182 308.060241 
L 424.306909 307.741667 
L 426.436364 307.47986 
L 426.436364 307.47986 
" clip-path="url(#p5ee56b2119)" style="fill: none; stroke: #ffa500; stroke-width: 3; stroke-linecap: square"/>
   </g>
   <g id="patch_3">
    <path d="M 7.2 331.2 
L 7.2 7.2 
" style="fill: none; stroke: #000000; stroke-width: 0.8; stroke-linejoin: miter; stroke-linecap: square"/>
   </g>
   <g id="patch_4">
    <path d="M 446.4 331.2 
L 446.4 7.2 
" style="fill: none; stroke: #000000; stroke-width: 0.8; stroke-linejoin: miter; stroke-linecap: square"/>
   </g>
   <g id="patch_5">
    <path d="M 7.2 331.2 
L 446.4 331.2 
" style="fill: none; stroke: #000000; stroke-width: 0.8; stroke-linejoin: miter; stroke-linecap: square"/>
   </g>
   <g id="patch_6">
    <path d="M 7.2 7.2 
L 446.4 7.2 
" style="fill: none; stroke: #000000; stroke-width: 0.8; stroke-linejoin: miter; stroke-linecap: square"/>
   </g>
  </g>
 </g>
 <defs>
  <clipPath id="p5ee56b2119">
   <rect x="7.2" y="7.2" width="439.2" height="324"/>
  </clipPath>
 </defs>
</svg>
