<?xml version="1.0" encoding="utf-8" standalone="no"?>
<!DOCTYPE svg PUBLIC "-//W3C//DTD SVG 1.1//EN"
  "http://www.w3.org/Graphics/SVG/1.1/DTD/svg11.dtd">
<svg xmlns:xlink="http://www.w3.org/1999/xlink" width="453.6pt" height="338.4pt" viewBox="0 0 453.6 338.4" xmlns="http://www.w3.org/2000/svg" version="1.1">
 <metadata>
  <rdf:RDF xmlns:dc="http://purl.org/dc/elements/1.1/" xmlns:cc="http://creativecommons.org/ns#" xmlns:rdf="http://www.w3.org/1999/02/22-rdf-syntax-ns#">
   <cc:Work>
    <dc:type rdf:resource="http://purl.org/dc/dcmitype/StillImage"/>
    <dc:date>2025-05-14T16:09:28.534705</dc:date>
    <dc:format>image/svg+xml</dc:format>
    <dc:creator>
     <cc:Agent>
      <dc:title>Matplotlib v3.10.1, https://matplotlib.org/</dc:title>
     </cc:Agent>
    </dc:creator>
   </cc:Work>
  </rdf:RDF>
 </metadata>
 <defs>
  <style type="text/css">*{stroke-linejoin: round; stroke-linecap: butt}</style>
 </defs>
 <g id="figure_1">
  <g id="patch_1">
   <path d="M 0 338.4 
L 453.6 338.4 
L 453.6 0 
L 0 0 
z
" style="fill: #ffffff"/>
  </g>
  <g id="axes_1">
   <g id="patch_2">
    <path d="M 7.2 331.2 
L 446.4 331.2 
L 446.4 7.2 
L 7.2 7.2 
z
" style="fill: #ffffff"/>
   </g>
   <g id="matplotlib.axis_1"/>
   <g id="matplotlib.axis_2"/>
   <g id="line2d_1">
    <path d="M 27.163636 316.472727 
L 76.939636 316.472727 
L 77.205818 316.308318 
L 190.333091 176.562611 
L 190.599273 176.993732 
L 193.261091 189.727624 
L 195.922909 201.361441 
L 198.584727 211.990274 
L 201.246545 221.700932 
L 203.908364 230.572742 
L 206.570182 238.678177 
L 209.232 246.08341 
L 211.893818 252.848919 
L 214.555636 259.030002 
L 217.217455 264.677136 
L 219.879273 269.836461 
L 222.541091 274.550058 
L 225.469091 279.266122 
L 228.397091 283.536036 
L 231.325091 287.401999 
L 234.253091 290.902238 
L 237.181091 294.071348 
L 240.375273 297.18764 
L 243.569455 299.983714 
L 246.763636 302.492541 
L 250.224 304.920398 
L 253.684364 307.079188 
L 257.410909 309.13732 
L 261.403636 311.071863 
L 265.396364 312.761234 
L 269.655273 314.327921 
L 274.180364 315.762155 
L 276.842182 316.427309 
L 282.964364 314.220394 
L 288.820364 311.878395 
L 294.410182 309.409597 
L 299.733818 306.825001 
L 305.057455 303.990324 
L 310.114909 301.043722 
L 314.906182 298.003357 
L 319.697455 294.699454 
L 324.222545 291.316577 
L 328.747636 287.657443 
L 333.272727 283.699461 
L 337.531636 279.679486 
L 341.790545 275.351247 
L 346.049455 270.6911 
L 350.042182 265.998171 
L 354.034909 260.968614 
L 358.027636 255.57835 
L 362.020364 249.801474 
L 366.013091 243.610258 
L 369.739636 237.431787 
L 373.466182 230.840633 
L 377.192727 223.809353 
L 380.919273 216.30846 
L 384.645818 208.306564 
L 388.372364 199.770307 
L 392.098909 190.663874 
L 395.825455 180.949372 
L 399.552 170.586042 
L 403.278545 159.530512 
L 407.005091 147.736679 
L 410.731636 135.155254 
L 414.458182 121.733427 
L 418.184727 107.4153 
L 421.911273 92.1409 
L 425.371636 77.045539 
L 426.436364 72.215526 
L 426.436364 72.215526 
" clip-path="url(#p6f0161ff5e)" style="fill: none; stroke-dasharray: 11.1,4.8; stroke-dashoffset: 0; stroke: #000000; stroke-width: 3"/>
   </g>
   <g id="line2d_2">
    <path d="M 27.163636 222.664675 
L 28.228364 228.899102 
L 29.026909 232.623201 
L 29.825455 235.557584 
L 30.624 237.741128 
L 31.422545 239.222817 
L 31.954909 239.859293 
L 32.487273 240.209479 
L 33.019636 240.321699 
L 33.552 240.21149 
L 34.084364 239.894528 
L 34.882909 239.11014 
L 35.947636 237.611519 
L 39.674182 231.780544 
L 40.206545 231.319727 
L 40.738909 231.070823 
L 41.271273 231.043944 
L 41.803636 231.314249 
L 42.336 231.86901 
L 42.868364 232.805321 
L 43.400727 234.099114 
L 43.933091 235.874404 
L 44.731636 239.700286 
L 45.530182 244.970913 
L 46.328727 251.874528 
L 47.127273 260.546741 
L 48.192 275.224263 
L 48.724364 283.267103 
L 48.990545 282.13561 
L 50.587636 246.069159 
L 51.652364 226.68429 
L 52.717091 210.753373 
L 53.781818 197.920542 
L 54.846545 187.804914 
L 55.911273 180.012946 
L 56.976 174.151634 
L 57.774545 170.807119 
L 58.573091 168.203734 
L 59.371636 166.236816 
L 60.170182 164.770762 
L 60.436364 164.370549 
L 60.968727 162.729634 
L 61.501091 161.866023 
L 62.033455 161.593673 
L 62.565818 161.70756 
L 63.098182 162.083703 
L 64.162909 163.248598 
L 66.026182 165.386285 
L 66.824727 166.022876 
L 67.623273 166.377758 
L 68.155636 166.40081 
L 68.688 166.232919 
L 68.954182 165.979512 
L 70.817455 130.979511 
L 72.414545 105.097573 
L 73.479273 91.180817 
L 74.277818 83.444521 
L 74.810182 80.129597 
L 75.076364 79.131681 
L 75.342545 78.686366 
L 75.608727 78.765246 
L 75.874909 79.558123 
L 76.141091 80.999581 
L 76.673455 86.416746 
L 77.738182 103.931871 
L 78.536727 121.761833 
L 79.335273 145.016017 
L 80.133818 174.055162 
L 81.198545 222.458003 
L 82.529455 286.393452 
L 83.594182 255.459156 
L 84.658909 230.984709 
L 85.723636 211.430334 
L 87.054545 191.433875 
L 89.450182 157.420335 
L 90.514909 138.6887 
L 91.579636 115.117309 
L 92.644364 84.941211 
L 93.709091 46.479375 
L 93.975273 34.794567 
L 94.507636 52.861029 
L 95.838545 98.589215 
L 96.903273 127.480334 
L 97.701818 144.250336 
L 98.500364 156.621981 
L 99.032727 162.346626 
L 99.565091 166.011394 
L 99.831273 167.024584 
L 100.097455 167.535489 
L 100.363636 167.516757 
L 100.629818 166.940612 
L 100.896 165.854722 
L 101.428364 162.028629 
L 101.960727 156.057266 
L 102.493091 147.942228 
L 103.291636 131.717032 
L 104.090182 110.734612 
L 104.622545 97.651376 
L 105.154909 91.53426 
L 105.421091 89.908549 
L 105.687273 89.076768 
L 105.953455 89.081473 
L 106.219636 89.836814 
L 106.485818 91.294318 
L 107.018182 96.177544 
L 107.550545 103.367665 
L 108.349091 117.725346 
L 109.413818 141.683994 
L 110.744727 176.757459 
L 113.938909 266.488874 
L 115.003636 290.596688 
L 115.536 300.637988 
L 115.802182 293.463067 
L 116.600727 258.527392 
L 117.399273 233.361548 
L 118.197818 216.346215 
L 118.730182 208.819084 
L 119.262545 203.846067 
L 119.794909 200.997956 
L 120.061091 200.30702 
L 120.327273 199.99939 
L 120.593455 200.033352 
L 120.859636 200.387708 
L 121.392 201.899567 
L 122.190545 205.507382 
L 124.32 216.471198 
L 124.852364 218.196383 
L 125.384727 219.094475 
L 125.650909 219.185741 
L 125.917091 219.011925 
L 126.183273 218.554294 
L 126.715636 216.717706 
L 127.248 214.25636 
L 127.780364 211.783523 
L 128.578909 206.583503 
L 129.377455 199.318066 
L 130.176 189.637491 
L 131.506909 171.696959 
L 132.305455 163.413943 
L 133.104 157.238294 
L 133.636364 154.219878 
L 134.168727 152.092619 
L 134.701091 150.722176 
L 135.233455 150.163167 
L 135.499636 150.131548 
L 135.765818 150.248789 
L 136.032 150.530866 
L 136.564364 151.550534 
L 137.096727 153.042151 
L 137.895273 156.061672 
L 139.226182 162.487989 
L 141.888 176.22101 
L 142.952727 180.574923 
L 143.485091 182.268419 
L 143.751273 184.604791 
L 145.614545 214.152883 
L 149.074909 269.648257 
L 150.672 291.516312 
L 151.470545 300.918376 
L 151.736727 302.541625 
L 152.801455 267.894469 
L 153.866182 239.223571 
L 154.930909 216.102156 
L 155.995636 198.265619 
L 156.794182 188.25058 
L 157.592727 181.093228 
L 158.125091 177.895659 
L 158.657455 175.937599 
L 158.923636 175.420786 
L 159.189818 175.210699 
L 159.456 175.30631 
L 159.722182 175.706374 
L 160.254545 177.479812 
L 160.786909 181.45925 
L 161.319273 187.324486 
L 162.117818 199.415161 
L 162.916364 215.057452 
L 163.981091 240.410428 
L 164.779636 261.818755 
L 165.045818 264.677742 
L 166.642909 174.209649 
L 167.441455 145.694673 
L 167.973818 132.796059 
L 168.506182 124.335092 
L 169.038545 119.958435 
L 169.304727 119.156815 
L 169.570909 119.194912 
L 169.837091 120.013175 
L 170.103273 121.549911 
L 170.635636 126.522569 
L 171.434182 137.71861 
L 172.765091 161.555821 
L 173.829818 179.778719 
L 175.160727 132.853029 
L 175.693091 120.747414 
L 176.225455 112.088342 
L 176.757818 106.177846 
L 177.024 104.735826 
L 178.088727 102.602317 
L 179.153455 100.963649 
L 180.218182 99.65381 
L 182.081455 97.749112 
L 183.678545 96.036918 
L 184.743273 94.600078 
L 185.541818 93.27493 
L 186.606545 91.028604 
L 187.405091 88.913424 
L 188.469818 85.354451 
L 189.534545 80.806971 
L 190.599273 74.992104 
L 191.664 67.760831 
L 192.728727 58.736729 
L 193.527273 50.671007 
L 194.059636 38.364864 
L 194.325818 38.660441 
L 196.987636 79.576153 
L 198.850909 104.493619 
L 200.448 122.957925 
L 202.045091 138.870267 
L 203.376 150.244593 
L 204.706909 159.770085 
L 205.771636 165.827931 
L 206.570182 169.228547 
L 207.102545 170.832585 
L 207.634909 171.800453 
L 207.901091 172.011778 
L 208.167273 172.020793 
L 208.433455 171.810443 
L 208.699636 171.362336 
L 209.232 169.672378 
L 209.764364 166.775162 
L 210.562909 160.104514 
L 211.095273 154.689052 
L 212.692364 134.875442 
L 213.490909 129.467441 
L 214.023273 127.097976 
L 214.555636 125.429568 
L 215.088 124.39466 
L 215.620364 123.789671 
L 216.152727 123.51567 
L 216.685091 123.491425 
L 217.217455 123.648413 
L 218.016 124.114585 
L 219.080727 124.948315 
L 221.476364 127.020307 
L 223.339636 128.382516 
L 226.001455 129.956998 
L 226.8 130.402137 
L 228.130909 137.236778 
L 228.929455 140.327157 
L 229.461818 141.763454 
L 229.994182 142.666777 
L 230.526545 143.051031 
L 230.792727 143.055912 
L 231.325091 142.621868 
L 231.857455 141.737471 
L 232.656 139.496833 
L 233.454545 136.23579 
L 234.253091 132.005534 
L 235.051636 126.82573 
L 235.850182 120.658491 
L 236.914909 110.5311 
L 237.979636 97.861577 
L 238.778182 86.266464 
L 239.842909 66.991041 
L 240.641455 48.89763 
L 241.173818 34.707856 
L 241.44 34.981172 
L 241.706182 40.296827 
L 244.634182 131.23973 
L 245.166545 142.122287 
L 245.698909 149.766693 
L 246.231273 154.849868 
L 246.763636 157.992283 
L 247.296 159.762237 
L 247.828364 160.689805 
L 248.893091 162.080473 
L 249.425455 163.472844 
L 249.957818 165.982215 
L 250.490182 170.029991 
L 251.022545 176.056595 
L 251.554909 184.557459 
L 252.087273 196.05115 
L 252.619636 210.972063 
L 253.418182 241.019052 
L 253.950545 266.973638 
L 254.216727 268.819913 
L 255.015273 236.973506 
L 255.813818 214.893161 
L 256.346182 205.01319 
L 256.878545 198.6425 
L 257.410909 195.429965 
L 257.677091 194.922299 
L 257.943273 194.995236 
L 258.209455 195.710795 
L 258.741818 198.639998 
L 259.274182 203.236477 
L 260.871273 218.859747 
L 261.936 226.606296 
L 262.468364 229.333848 
L 263.000727 231.001712 
L 263.266909 231.365724 
L 263.533091 231.349125 
L 263.799273 230.927195 
L 264.065455 230.091762 
L 264.597818 227.071204 
L 265.130182 222.014549 
L 265.662545 214.679009 
L 266.461091 199.110445 
L 267.259636 184.967205 
L 268.324364 170.806347 
L 269.122909 162.911025 
L 269.921455 157.199969 
L 270.453818 154.546285 
L 270.986182 152.777086 
L 271.518545 151.880118 
L 271.784727 151.739896 
L 272.050909 151.797797 
L 272.317091 152.049203 
L 272.849455 153.114026 
L 273.381818 154.896743 
L 274.180364 158.831298 
L 274.978909 164.159382 
L 276.043636 173.191437 
L 277.108364 182.651146 
L 278.173091 191.087516 
L 279.504 203.616694 
L 280.834909 218.308761 
L 282.432 238.696198 
L 284.295273 265.912962 
L 285.36 282.849876 
L 285.626182 284.32051 
L 285.892364 284.191781 
L 286.424727 283.530423 
L 286.957091 282.46179 
L 287.755636 280.103501 
L 288.820364 275.818832 
L 289.885091 270.617465 
L 292.280727 257.168988 
L 293.611636 248.922265 
L 296.273455 227.595321 
L 298.136727 214.541895 
L 299.733818 204.847055 
L 301.330909 196.482701 
L 302.928 189.324453 
L 304.525091 183.194626 
L 305.856 178.757646 
L 307.453091 174.114134 
L 309.050182 170.117412 
L 309.848727 168.345589 
L 310.913455 161.234506 
L 311.179636 161.184927 
L 311.445818 161.964356 
L 311.712 163.553778 
L 312.244364 169.250466 
L 313.309091 184.346485 
L 314.107636 192.391421 
L 314.906182 197.80992 
L 315.438545 200.106579 
L 315.970909 201.472396 
L 316.237091 201.818106 
L 316.503273 201.939964 
L 316.769455 201.861031 
L 317.035636 201.586679 
L 317.568 200.470811 
L 318.100364 198.625286 
L 318.632727 196.067354 
L 319.431273 190.92972 
L 320.229818 184.252471 
L 321.028364 175.981051 
L 322.093091 162.257493 
L 323.157818 145.007555 
L 324.222545 123.517162 
L 325.287273 96.799932 
L 326.352 63.428802 
L 326.618182 53.873201 
L 326.884364 37.878063 
L 327.150545 37.885946 
L 327.416727 38.097271 
L 327.949091 39.054036 
L 328.481455 40.602236 
L 329.28 43.723163 
L 332.740364 58.776318 
L 333.272727 60.115582 
L 333.805091 60.944238 
L 334.071273 61.140868 
L 334.337455 61.17412 
L 334.603636 61.043448 
L 334.869818 60.741287 
L 335.402182 59.569318 
L 336.200727 56.830943 
L 336.466909 56.884349 
L 336.733091 57.650768 
L 337.265455 61.199611 
L 337.797818 66.946905 
L 338.596364 78.752096 
L 339.927273 103.410871 
L 341.790545 138.751745 
L 342.855273 154.720794 
L 343.387636 159.94958 
L 344.186182 163.090644 
L 344.984727 165.416605 
L 345.783273 166.936557 
L 346.315636 167.517038 
L 346.848 167.747201 
L 347.380364 167.604854 
L 347.912727 167.094651 
L 348.445091 166.232603 
L 348.977455 165.016269 
L 349.509818 163.443209 
L 350.308364 160.436468 
L 351.373091 155.079486 
L 351.639273 153.495401 
L 351.905455 153.315326 
L 352.970182 160.002407 
L 354.034909 165.309389 
L 354.833455 168.465445 
L 355.898182 171.607764 
L 356.696727 173.182712 
L 357.229091 173.90079 
L 357.761455 174.346315 
L 358.293818 174.523081 
L 358.826182 174.43357 
L 359.358545 174.079627 
L 360.157091 173.07934 
L 360.955636 171.750488 
L 362.286545 168.983215 
L 364.416 163.689471 
L 366.811636 156.909693 
L 368.674909 150.897441 
L 370.272 144.955308 
L 371.602909 139.205381 
L 372.933818 132.513824 
L 374.264727 124.671505 
L 375.595636 115.48434 
L 384.113455 51.416657 
L 384.379636 51.118446 
L 384.645818 53.243493 
L 386.509091 82.02715 
L 389.170909 127.429438 
L 391.300364 162.765484 
L 392.631273 181.212795 
L 393.163636 187.170605 
L 393.962182 192.652202 
L 394.494545 195.325373 
L 395.026909 197.110829 
L 395.559273 197.958051 
L 395.825455 198.011571 
L 396.091636 197.805742 
L 396.357818 197.330458 
L 396.890182 195.491596 
L 397.422545 192.401129 
L 397.954909 187.990922 
L 398.487273 182.086518 
L 398.753455 178.54202 
L 399.019636 179.132499 
L 399.818182 189.408364 
L 400.616727 197.380388 
L 401.415273 202.868393 
L 401.947636 205.041447 
L 402.213818 205.664353 
L 402.48 205.950011 
L 402.746182 205.927074 
L 403.012364 205.536639 
L 403.278545 204.802673 
L 403.810909 202.228923 
L 404.343273 198.110887 
L 404.875636 192.348425 
L 405.674182 180.404574 
L 406.472727 164.1104 
L 407.271273 143.064567 
L 408.069818 116.802834 
L 409.134545 72.756944 
L 409.933091 34.734682 
L 410.199273 35.901367 
L 411.264 52.761099 
L 416.587636 144.073877 
L 418.184727 165.920277 
L 419.781818 184.942626 
L 421.645091 204.382902 
L 423.774545 224.210892 
L 426.436364 246.807067 
L 426.436364 246.807067 
" clip-path="url(#p6f0161ff5e)" style="fill: none; stroke: #0000ff; stroke-width: 3; stroke-linecap: square"/>
   </g>
   <g id="patch_3">
    <path d="M 7.2 331.2 
L 7.2 7.2 
" style="fill: none; stroke: #000000; stroke-width: 0.8; stroke-linejoin: miter; stroke-linecap: square"/>
   </g>
   <g id="patch_4">
    <path d="M 446.4 331.2 
L 446.4 7.2 
" style="fill: none; stroke: #000000; stroke-width: 0.8; stroke-linejoin: miter; stroke-linecap: square"/>
   </g>
   <g id="patch_5">
    <path d="M 7.2 331.2 
L 446.4 331.2 
" style="fill: none; stroke: #000000; stroke-width: 0.8; stroke-linejoin: miter; stroke-linecap: square"/>
   </g>
   <g id="patch_6">
    <path d="M 7.2 7.2 
L 446.4 7.2 
" style="fill: none; stroke: #000000; stroke-width: 0.8; stroke-linejoin: miter; stroke-linecap: square"/>
   </g>
  </g>
 </g>
 <defs>
  <clipPath id="p6f0161ff5e">
   <rect x="7.2" y="7.2" width="439.2" height="324"/>
  </clipPath>
 </defs>
</svg>
