<?xml version="1.0" encoding="utf-8" standalone="no"?>
<!DOCTYPE svg PUBLIC "-//W3C//DTD SVG 1.1//EN"
  "http://www.w3.org/Graphics/SVG/1.1/DTD/svg11.dtd">
<svg xmlns:xlink="http://www.w3.org/1999/xlink" width="453.6pt" height="338.4pt" viewBox="0 0 453.6 338.4" xmlns="http://www.w3.org/2000/svg" version="1.1">
 <metadata>
  <rdf:RDF xmlns:dc="http://purl.org/dc/elements/1.1/" xmlns:cc="http://creativecommons.org/ns#" xmlns:rdf="http://www.w3.org/1999/02/22-rdf-syntax-ns#">
   <cc:Work>
    <dc:type rdf:resource="http://purl.org/dc/dcmitype/StillImage"/>
    <dc:date>2025-05-14T16:11:40.079692</dc:date>
    <dc:format>image/svg+xml</dc:format>
    <dc:creator>
     <cc:Agent>
      <dc:title>Matplotlib v3.10.1, https://matplotlib.org/</dc:title>
     </cc:Agent>
    </dc:creator>
   </cc:Work>
  </rdf:RDF>
 </metadata>
 <defs>
  <style type="text/css">*{stroke-linejoin: round; stroke-linecap: butt}</style>
 </defs>
 <g id="figure_1">
  <g id="patch_1">
   <path d="M 0 338.4 
L 453.6 338.4 
L 453.6 0 
L 0 0 
z
" style="fill: #ffffff"/>
  </g>
  <g id="axes_1">
   <g id="patch_2">
    <path d="M 7.2 331.2 
L 446.4 331.2 
L 446.4 7.2 
L 7.2 7.2 
z
" style="fill: #ffffff"/>
   </g>
   <g id="matplotlib.axis_1"/>
   <g id="matplotlib.axis_2"/>
   <g id="line2d_1">
    <path d="M 27.163636 316.47258 
L 226.8 169.2 
L 426.436364 316.472727 
L 426.436364 316.472727 
" clip-path="url(#pe8eda64bd3)" style="fill: none; stroke-dasharray: 11.1,4.8; stroke-dashoffset: 0; stroke: #000000; stroke-width: 3"/>
   </g>
   <g id="line2d_2">
    <path d="M 27.163636 48.771453 
L 29.026909 46.32007 
L 30.091636 45.255439 
L 30.890182 44.692269 
L 31.688727 44.401572 
L 32.487273 44.412843 
L 33.019636 44.596043 
L 33.818182 45.187023 
L 34.616727 46.160378 
L 35.415273 47.534297 
L 36.213818 49.317699 
L 37.278545 52.32393 
L 38.343273 56.032413 
L 39.674182 61.53692 
L 41.271273 69.138946 
L 43.666909 81.472793 
L 43.933091 84.167664 
L 44.997818 102.461743 
L 46.062545 124.690027 
L 47.393455 157.953519 
L 48.724364 196.975444 
L 48.990545 205.415001 
L 49.256727 209.341094 
L 49.789091 192.769917 
L 50.853818 159.735183 
L 51.918545 134.658692 
L 52.717091 120.217952 
L 53.515636 108.880002 
L 54.314182 100.094912 
L 55.112727 93.377775 
L 55.911273 88.337297 
L 56.709818 84.608151 
L 57.508364 81.888789 
L 58.306909 79.960565 
L 59.105455 78.614596 
L 59.904 77.728495 
L 60.436364 77.335164 
L 61.234909 75.059467 
L 62.033455 73.667044 
L 62.832 72.845252 
L 63.896727 72.196477 
L 65.227636 71.410167 
L 66.026182 70.670152 
L 66.824727 69.557909 
L 67.623273 68.006373 
L 68.421818 65.89725 
L 69.220364 63.20747 
L 69.486545 64.39984 
L 70.551273 73.964447 
L 71.616 81.404042 
L 72.680727 87.127406 
L 73.745455 91.456749 
L 74.810182 94.731276 
L 75.874909 97.153076 
L 76.939636 98.96204 
L 78.802909 101.33435 
L 81.198545 104.158347 
L 81.997091 105.548207 
L 82.795636 107.542864 
L 83.594182 110.45466 
L 84.392727 114.656263 
L 85.191273 120.563635 
L 85.989818 128.58041 
L 86.788364 139.170515 
L 87.586909 152.79099 
L 88.385455 169.83315 
L 89.450182 193.932739 
L 90.248727 205.349314 
L 90.781091 210.196602 
L 91.313455 213.072417 
L 91.579636 213.798527 
L 91.845818 214.117279 
L 92.112 214.054691 
L 92.378182 213.636869 
L 92.910545 211.84037 
L 93.442909 208.916504 
L 93.709091 207.098068 
L 94.507636 196.137377 
L 95.838545 172.514379 
L 97.169455 150.204249 
L 97.701818 143.740782 
L 98.234182 139.613828 
L 98.500364 138.566772 
L 98.766545 138.355587 
L 99.032727 138.996391 
L 99.298909 140.537148 
L 99.565091 143.085477 
L 100.097455 151.43691 
L 101.960727 213.068642 
L 102.493091 223.507684 
L 103.025455 230.68584 
L 103.557818 234.807887 
L 103.824 235.792522 
L 104.090182 236.056665 
L 104.356364 235.658699 
L 104.622545 234.621255 
L 105.154909 230.695671 
L 105.687273 224.478563 
L 106.485818 211.301743 
L 107.284364 194.113428 
L 108.349091 166.15374 
L 109.946182 116.496231 
L 110.478545 102.241412 
L 112.341818 88.514071 
L 113.938909 74.749757 
L 115.269818 61.243537 
L 115.802182 55.200368 
L 116.334545 55.900706 
L 116.600727 57.278891 
L 121.125818 126.569707 
L 122.456727 142.814057 
L 123.521455 152.744431 
L 124.32 157.879344 
L 124.852364 160.100266 
L 125.384727 161.236999 
L 125.650909 161.375185 
L 125.917091 161.217933 
L 126.183273 160.761242 
L 126.715636 158.944553 
L 127.248 156.72328 
L 128.046545 153.445559 
L 128.845091 149.142778 
L 129.909818 141.807327 
L 131.240727 130.500417 
L 133.902545 106.632026 
L 134.701091 101.690935 
L 135.233455 99.76603 
L 135.499636 99.358215 
L 135.765818 99.358882 
L 136.032 99.811378 
L 136.298182 100.760733 
L 136.564364 102.331213 
L 136.830545 105.879354 
L 137.895273 128.121717 
L 138.96 145.676098 
L 140.024727 159.180299 
L 141.089455 169.650389 
L 143.751273 192.199425 
L 144.549818 197.18532 
L 145.348364 203.345362 
L 146.146909 211.069614 
L 146.945455 220.819668 
L 147.744 233.125662 
L 148.542545 248.716843 
L 149.607273 272.222657 
L 150.139636 262.852245 
L 153.866182 188.683544 
L 154.930909 171.670739 
L 155.729455 161.570569 
L 156.528 154.411435 
L 157.060364 151.581117 
L 157.326545 150.839628 
L 157.592727 150.552319 
L 157.858909 150.770245 
L 158.125091 151.526131 
L 158.391273 152.813656 
L 158.923636 157.159554 
L 159.456 163.996495 
L 160.254545 176.627332 
L 161.851636 170.169967 
L 166.376727 152.99984 
L 167.973818 145.56983 
L 169.304727 138.588348 
L 171.700364 124.456915 
L 173.829818 111.878895 
L 175.160727 105.320186 
L 175.959273 102.318484 
L 176.757818 100.223318 
L 177.290182 99.399086 
L 177.556364 99.200226 
L 177.822545 99.149401 
L 178.088727 99.243924 
L 178.621091 99.879461 
L 179.153455 101.029379 
L 179.952 103.561293 
L 181.282909 108.92298 
L 182.347636 112.907886 
L 182.88 114.334211 
L 183.412364 115.159128 
L 183.678545 115.309322 
L 183.944727 115.226245 
L 184.210909 114.933196 
L 184.477091 111.891712 
L 185.009455 102.904091 
L 185.541818 97.752184 
L 185.808 96.365818 
L 186.074182 95.802138 
L 186.340364 95.887971 
L 186.606545 96.554442 
L 187.138909 99.538097 
L 187.671273 104.166985 
L 188.469818 113.302113 
L 191.664 153.285323 
L 192.728727 162.579247 
L 193.527273 167.616582 
L 194.592 179.910207 
L 195.390545 186.155545 
L 195.922909 188.497035 
L 196.189091 189.074355 
L 196.455273 189.232941 
L 196.721455 188.956588 
L 196.987636 188.230671 
L 197.52 185.379365 
L 198.052364 180.594586 
L 198.584727 173.820268 
L 199.383273 159.884113 
L 200.448 139.273307 
L 201.512727 162.644311 
L 202.577455 180.22148 
L 203.376 190.16913 
L 204.174545 197.800861 
L 204.973091 203.457248 
L 205.771636 207.488116 
L 206.304 209.436134 
L 206.836364 210.896948 
L 207.368727 211.953661 
L 207.901091 212.69055 
L 208.433455 213.1928 
L 209.498182 213.609051 
L 210.296727 213.595304 
L 210.562909 212.698126 
L 210.829091 210.895614 
L 211.361455 204.972451 
L 212.16 191.518909 
L 213.224727 168.083614 
L 215.620364 107.356398 
L 217.483636 62.843967 
L 218.814545 35.310686 
L 219.080727 32.994293 
L 219.346909 32.13307 
L 220.411636 37.674604 
L 221.476364 42.089709 
L 222.541091 45.606793 
L 223.605818 48.412655 
L 224.670545 50.654398 
L 226.001455 52.864751 
L 226.8 53.960649 
L 228.929455 70.122414 
L 231.058909 88.057784 
L 232.656 103.424003 
L 233.986909 118.205844 
L 235.317818 135.263628 
L 236.914909 159.016113 
L 238.512 185.134007 
L 241.173818 172.242239 
L 242.238545 168.128646 
L 243.303273 164.950538 
L 244.101818 162.263199 
L 245.965091 155.974751 
L 247.029818 152.965868 
L 247.828364 151.21535 
L 248.360727 150.388818 
L 248.893091 149.899542 
L 249.425455 149.807248 
L 249.691636 149.931635 
L 250.224 150.570894 
L 250.756364 151.810736 
L 251.288727 153.730515 
L 251.821091 156.42377 
L 252.353455 159.991136 
L 253.152 167.309189 
L 253.950545 177.321033 
L 254.749091 190.550066 
L 255.813818 211.022511 
L 256.346182 213.666161 
L 256.612364 214.09895 
L 256.878545 214.011177 
L 257.144727 213.308909 
L 257.410909 212.118769 
L 257.943273 208.149742 
L 258.475636 202.257013 
L 259.274182 190.209816 
L 260.072727 175.045362 
L 260.871273 169.905165 
L 261.669818 163.033375 
L 262.734545 151.365386 
L 264.065455 133.640638 
L 266.194909 104.263386 
L 266.993455 95.848452 
L 267.525818 91.971517 
L 267.792 90.671984 
L 268.058182 89.933514 
L 268.324364 89.716869 
L 268.590545 90.149983 
L 268.856727 91.219564 
L 269.122909 93.039131 
L 269.389091 92.240338 
L 270.187636 84.515296 
L 270.986182 79.239546 
L 271.518545 76.868624 
L 272.050909 75.221283 
L 272.583273 74.130687 
L 273.115636 73.428331 
L 274.180364 72.535313 
L 274.978909 71.73106 
L 275.511273 70.895206 
L 276.043636 69.713739 
L 276.576 68.118259 
L 277.108364 65.45276 
L 277.640727 61.634305 
L 278.439273 53.886158 
L 279.237818 43.496564 
L 280.302545 27.19693 
L 280.568727 37.052585 
L 281.367273 77.554091 
L 282.165818 107.327817 
L 282.964364 128.399879 
L 283.762909 142.704418 
L 284.295273 149.210195 
L 284.827636 153.756375 
L 285.36 156.703091 
L 285.892364 158.379856 
L 286.158545 158.826013 
L 286.424727 158.997134 
L 286.690909 158.988426 
L 286.957091 158.83042 
L 287.489455 158.050992 
L 288.021818 156.874616 
L 289.086545 153.81173 
L 290.683636 149.028294 
L 291.482182 147.144611 
L 292.280727 145.780365 
L 292.813091 145.242423 
L 293.345455 145.002903 
L 294.676364 126.328782 
L 297.870545 79.833388 
L 299.467636 59.749428 
L 301.064727 42.577616 
L 301.597091 46.650215 
L 302.395636 55.01931 
L 303.194182 65.483062 
L 304.258909 83.001453 
L 305.323636 104.913337 
L 306.388364 131.346349 
L 307.719273 169.845931 
L 309.848727 232.882613 
L 310.114909 237.490091 
L 310.913455 244.537808 
L 311.712 249.457389 
L 312.244364 251.763033 
L 312.776727 253.298373 
L 313.309091 254.231889 
L 313.841455 254.639681 
L 314.373818 254.586464 
L 314.906182 254.122952 
L 315.704727 252.82991 
L 316.503273 251.095842 
L 317.834182 247.583699 
L 318.100364 246.870243 
L 318.632727 243.854241 
L 319.431273 238.491404 
L 320.496 230.66809 
L 321.560727 224.919094 
L 322.359273 221.562922 
L 323.424 218.275957 
L 324.222545 216.408829 
L 325.021091 214.962684 
L 325.819636 213.901907 
L 326.618182 213.119512 
L 328.215273 183.933526 
L 329.013818 172.522947 
L 329.812364 164.235085 
L 330.344727 160.723373 
L 330.877091 158.988339 
L 331.143273 158.792305 
L 331.409455 159.028209 
L 331.675636 159.687869 
L 332.208 162.300085 
L 332.740364 166.462046 
L 333.538909 175.19115 
L 334.869818 193.560344 
L 335.934545 207.51043 
L 336.466909 212.603313 
L 336.999273 215.505638 
L 337.265455 215.870194 
L 337.531636 215.423422 
L 337.797818 213.958043 
L 338.064 211.433688 
L 338.596364 202.730435 
L 338.862545 194.470567 
L 339.661091 162.543608 
L 340.193455 149.283597 
L 340.725818 141.910593 
L 340.992 140.300858 
L 341.258182 139.949241 
L 341.524364 140.787132 
L 341.790545 142.741268 
L 342.322909 149.759232 
L 342.855273 160.25218 
L 343.653818 177.477355 
L 345.783273 221.451888 
L 347.380364 252.057083 
L 348.445091 268.370292 
L 349.243636 277.690174 
L 350.042182 284.094978 
L 350.308364 285.554056 
L 350.574545 285.965204 
L 350.840727 282.30305 
L 352.437818 244.528332 
L 354.034909 212.205821 
L 355.365818 189.483619 
L 356.696727 170.509207 
L 357.761455 157.865913 
L 358.826182 147.367189 
L 359.890909 138.855274 
L 360.689455 136.834985 
L 361.488 134.149384 
L 362.552727 129.660894 
L 363.617455 124.231703 
L 364.948364 116.333063 
L 367.344 100.333238 
L 369.473455 86.659812 
L 370.538182 81.114329 
L 371.336727 77.959641 
L 371.869091 76.502979 
L 372.401455 75.671918 
L 372.667636 75.515158 
L 372.933818 75.549041 
L 373.2 75.787719 
L 373.466182 76.245569 
L 373.998545 77.877934 
L 374.530909 80.568539 
L 375.063273 84.445106 
L 375.595636 90.163764 
L 376.394182 108.480053 
L 376.926545 115.385077 
L 378.257455 128.817929 
L 379.056 135.334749 
L 379.854545 140.181739 
L 380.386909 142.444848 
L 380.919273 144.038484 
L 381.717818 145.595375 
L 382.516364 147.055372 
L 383.048727 148.667337 
L 383.581091 151.407117 
L 384.113455 155.890235 
L 384.645818 162.792608 
L 385.178182 172.841374 
L 385.710545 186.81179 
L 386.242909 205.646621 
L 387.041455 244.6688 
L 387.84 299.224535 
L 388.106182 302.828507 
L 388.904727 283.856175 
L 389.703273 270.376171 
L 390.501818 260.981083 
L 391.300364 254.215061 
L 393.429818 238.327324 
L 394.228364 229.08153 
L 395.026909 216.675816 
L 395.825455 200.450823 
L 396.624 179.941817 
L 397.688727 145.322971 
L 397.954909 135.351357 
L 398.487273 129.190368 
L 399.019636 124.88922 
L 399.552 122.020068 
L 400.084364 120.363721 
L 400.616727 119.630712 
L 400.882909 119.556361 
L 401.149091 119.631976 
L 401.681455 120.166196 
L 402.48 121.582759 
L 403.810909 124.212426 
L 404.343273 124.878669 
L 404.609455 125.052634 
L 404.875636 125.069506 
L 405.141818 124.924509 
L 405.408 124.597646 
L 405.674182 124.054771 
L 406.206545 122.181867 
L 406.738909 119.09298 
L 407.271273 114.526206 
L 407.803636 108.103664 
L 408.336 99.507689 
L 408.868364 88.320689 
L 409.666909 65.63668 
L 410.199273 53.831944 
L 410.997818 38.069778 
L 411.264 35.824049 
L 413.127273 42.488553 
L 414.724364 48.941643 
L 416.055273 55.131512 
L 417.386182 62.391191 
L 418.717091 71.059919 
L 420.048 81.493825 
L 421.378909 93.980833 
L 422.709818 108.709338 
L 424.306909 129.404783 
L 425.904 153.148261 
L 426.436364 161.629558 
L 426.436364 161.629558 
" clip-path="url(#pe8eda64bd3)" style="fill: none; stroke: #0000ff; stroke-width: 3; stroke-linecap: square"/>
   </g>
   <g id="patch_3">
    <path d="M 7.2 331.2 
L 7.2 7.2 
" style="fill: none; stroke: #000000; stroke-width: 0.8; stroke-linejoin: miter; stroke-linecap: square"/>
   </g>
   <g id="patch_4">
    <path d="M 446.4 331.2 
L 446.4 7.2 
" style="fill: none; stroke: #000000; stroke-width: 0.8; stroke-linejoin: miter; stroke-linecap: square"/>
   </g>
   <g id="patch_5">
    <path d="M 7.2 331.2 
L 446.4 331.2 
" style="fill: none; stroke: #000000; stroke-width: 0.8; stroke-linejoin: miter; stroke-linecap: square"/>
   </g>
   <g id="patch_6">
    <path d="M 7.2 7.2 
L 446.4 7.2 
" style="fill: none; stroke: #000000; stroke-width: 0.8; stroke-linejoin: miter; stroke-linecap: square"/>
   </g>
  </g>
 </g>
 <defs>
  <clipPath id="pe8eda64bd3">
   <rect x="7.2" y="7.2" width="439.2" height="324"/>
  </clipPath>
 </defs>
</svg>
