<?xml version="1.0" encoding="utf-8" standalone="no"?>
<!DOCTYPE svg PUBLIC "-//W3C//DTD SVG 1.1//EN"
  "http://www.w3.org/Graphics/SVG/1.1/DTD/svg11.dtd">
<svg xmlns:xlink="http://www.w3.org/1999/xlink" width="453.6pt" height="338.4pt" viewBox="0 0 453.6 338.4" xmlns="http://www.w3.org/2000/svg" version="1.1">
 <metadata>
  <rdf:RDF xmlns:dc="http://purl.org/dc/elements/1.1/" xmlns:cc="http://creativecommons.org/ns#" xmlns:rdf="http://www.w3.org/1999/02/22-rdf-syntax-ns#">
   <cc:Work>
    <dc:type rdf:resource="http://purl.org/dc/dcmitype/StillImage"/>
    <dc:date>2025-05-14T16:11:32.380317</dc:date>
    <dc:format>image/svg+xml</dc:format>
    <dc:creator>
     <cc:Agent>
      <dc:title>Matplotlib v3.10.1, https://matplotlib.org/</dc:title>
     </cc:Agent>
    </dc:creator>
   </cc:Work>
  </rdf:RDF>
 </metadata>
 <defs>
  <style type="text/css">*{stroke-linejoin: round; stroke-linecap: butt}</style>
 </defs>
 <g id="figure_1">
  <g id="patch_1">
   <path d="M 0 338.4 
L 453.6 338.4 
L 453.6 0 
L 0 0 
z
" style="fill: #ffffff"/>
  </g>
  <g id="axes_1">
   <g id="patch_2">
    <path d="M 7.2 331.2 
L 446.4 331.2 
L 446.4 7.2 
L 7.2 7.2 
z
" style="fill: #ffffff"/>
   </g>
   <g id="matplotlib.axis_1"/>
   <g id="matplotlib.axis_2"/>
   <g id="line2d_1">
    <path d="M 27.163636 316.472727 
L 47.925818 316.358078 
L 52.717091 316.11129 
L 55.645091 315.744978 
L 57.774545 315.262487 
L 59.371636 314.700634 
L 60.702545 314.037858 
L 62.033455 313.127308 
L 63.098182 312.159302 
L 64.162909 310.911265 
L 65.227636 309.302198 
L 66.292364 307.227649 
L 67.357091 304.552965 
L 68.421818 301.104556 
L 69.486545 296.658566 
L 70.551273 290.926448 
L 71.616 283.5361 
L 72.680727 274.007889 
L 73.745455 261.723288 
L 74.810182 245.885016 
L 75.874909 225.464936 
L 77.205818 195.285169 
L 426.436364 21.927273 
L 426.436364 21.927273 
" clip-path="url(#pfeb71b9b93)" style="fill: none; stroke-dasharray: 11.1,4.8; stroke-dashoffset: 0; stroke: #000000; stroke-width: 3"/>
   </g>
   <g id="line2d_2">
    <path d="M 27.163636 126.177676 
L 27.962182 153.687151 
L 28.494545 166.156005 
L 29.026909 175.010943 
L 29.559273 180.802821 
L 30.091636 184.247994 
L 30.624 185.84192 
L 30.890182 186.075638 
L 31.156364 185.996845 
L 31.422545 185.648599 
L 31.954909 184.299961 
L 32.753455 181.148627 
L 34.350545 173.197257 
L 35.947636 165.673874 
L 37.012364 161.690654 
L 37.810909 159.337638 
L 38.875636 157.070877 
L 39.674182 155.976384 
L 40.472727 155.304944 
L 41.005091 155.053345 
L 41.803636 154.946778 
L 42.602182 155.078872 
L 43.666909 155.547888 
L 44.199273 156.173102 
L 44.997818 157.957768 
L 45.530182 159.636253 
L 46.062545 161.782701 
L 46.861091 166.012061 
L 47.659636 171.618474 
L 48.458182 178.998106 
L 49.256727 188.357761 
L 50.055273 200.089497 
L 51.386182 220.896863 
L 51.652364 219.32261 
L 53.249455 204.863426 
L 54.580364 194.788836 
L 55.645091 188.147366 
L 56.709818 182.781299 
L 57.508364 179.621959 
L 58.306909 177.173218 
L 59.105455 175.385428 
L 59.904 174.163555 
L 60.436364 173.597575 
L 62.832 172.978866 
L 64.695273 172.301062 
L 65.493818 171.806335 
L 66.292364 171.001371 
L 66.824727 170.190393 
L 67.357091 169.064957 
L 67.889455 167.528028 
L 68.421818 165.435864 
L 68.954182 162.677983 
L 69.486545 159.072539 
L 70.551273 150.427529 
L 71.083636 148.220021 
L 71.349818 147.569841 
L 71.616 147.244717 
L 71.882182 147.179197 
L 72.148364 147.407534 
L 72.414545 147.867613 
L 72.946909 149.473486 
L 73.745455 153.149367 
L 75.608727 162.862061 
L 76.141091 164.364387 
L 76.407273 164.6485 
L 76.673455 164.548341 
L 76.939636 164.003939 
L 77.738182 161.21142 
L 78.270545 158.346165 
L 79.069091 152.377013 
L 79.867636 144.354901 
L 80.666182 134.250175 
L 81.730909 117.538091 
L 82.263273 109.721791 
L 82.529455 109.889857 
L 84.126545 121.843979 
L 85.723636 132.134661 
L 87.320727 140.902757 
L 88.917818 148.275498 
L 90.248727 153.421243 
L 91.579636 157.686313 
L 92.644364 160.468456 
L 94.241455 163.836189 
L 94.773818 164.658033 
L 95.306182 165.191217 
L 95.838545 165.479579 
L 96.370909 165.555387 
L 96.903273 165.435478 
L 97.435636 165.163355 
L 98.234182 164.488545 
L 99.298909 163.16503 
L 100.363636 161.425624 
L 101.428364 159.262884 
L 102.493091 156.608673 
L 103.557818 153.366854 
L 104.356364 150.429531 
L 104.622545 148.570567 
L 105.953455 135.800675 
L 107.018182 127.285196 
L 108.082909 120.598519 
L 108.881455 116.945145 
L 109.413818 115.231231 
L 109.946182 114.10447 
L 110.478545 113.533065 
L 110.744727 113.470003 
L 111.277091 113.677202 
L 112.075636 114.436599 
L 112.874182 115.171189 
L 113.406545 115.391766 
L 113.938909 115.267643 
L 114.471273 114.705877 
L 115.003636 113.628677 
L 115.536 111.972014 
L 116.068364 109.683834 
L 116.866909 104.97833 
L 117.665455 98.653804 
L 118.464 90.632745 
L 119.528727 77.026314 
L 120.593455 60.02529 
L 121.658182 39.798545 
L 121.924364 38.605806 
L 122.722909 47.85807 
L 125.917091 85.14302 
L 126.981818 97.277919 
L 129.909818 146.453613 
L 133.636364 212.79199 
L 136.032 257.539298 
L 136.298182 254.462056 
L 137.362909 221.256372 
L 138.161455 202.194943 
L 138.96 187.357641 
L 139.758545 176.005849 
L 140.557091 167.464316 
L 141.355636 161.165861 
L 142.154182 156.574579 
L 142.952727 153.242555 
L 143.751273 150.238852 
L 144.549818 146.007069 
L 145.880727 140.04717 
L 146.679273 135.052865 
L 147.477818 128.268804 
L 148.010182 122.690648 
L 148.276364 122.711908 
L 149.341091 147.598405 
L 150.139636 160.505324 
L 150.938182 169.453618 
L 151.736727 175.598254 
L 152.535273 179.702885 
L 153.333818 182.399353 
L 153.866182 183.6031 
L 154.664727 184.784663 
L 155.463273 185.39233 
L 156.261818 185.60211 
L 157.060364 185.546597 
L 158.391273 185.13822 
L 159.722182 184.744187 
L 160.254545 184.720978 
L 160.520727 184.94842 
L 160.786909 185.56885 
L 161.053091 186.657453 
L 161.585455 190.514628 
L 162.117818 196.966078 
L 162.650182 206.362144 
L 163.714909 229.598448 
L 164.513455 222.861218 
L 165.312 218.466601 
L 166.110545 215.373588 
L 168.772364 206.289242 
L 169.837091 201.300248 
L 170.901818 195.133711 
L 172.232727 185.884836 
L 173.829818 172.936836 
L 175.959273 153.703864 
L 177.024 144.53947 
L 177.822545 141.641367 
L 178.621091 137.734973 
L 179.419636 132.800184 
L 180.484364 124.594661 
L 181.549091 114.547625 
L 182.88 99.417871 
L 184.210909 81.655273 
L 185.541818 62.668615 
L 186.074182 59.136117 
L 187.138909 58.535675 
L 188.469818 58.13195 
L 189.800727 58.055405 
L 191.664 58.304792 
L 193.793455 58.838187 
L 194.592 59.948498 
L 195.390545 61.612746 
L 196.189091 63.899504 
L 196.987636 66.916023 
L 197.786182 70.799559 
L 198.584727 75.661718 
L 199.383273 81.737471 
L 200.181818 89.208931 
L 200.980364 98.35052 
L 201.778909 109.496544 
L 202.843636 128.168698 
L 203.908364 152.223536 
L 204.973091 183.141545 
L 206.037818 222.706503 
L 207.102545 273.241338 
L 207.634909 297.500326 
L 208.699636 243.612623 
L 209.498182 212.489127 
L 210.296727 189.550675 
L 211.095273 175.104264 
L 211.893818 165.134774 
L 212.692364 158.394901 
L 214.821818 143.894171 
L 215.354182 137.910044 
L 215.886545 129.609945 
L 216.418909 118.171416 
L 216.951273 102.782286 
L 217.217455 93.317978 
L 217.483636 87.93963 
L 218.282182 107.152675 
L 218.814545 115.630198 
L 219.346909 121.4007 
L 219.879273 125.188695 
L 220.677818 128.91024 
L 221.210182 131.376546 
L 221.742545 134.976882 
L 222.274909 140.763378 
L 222.807273 149.8609 
L 223.339636 163.560046 
L 223.872 183.113964 
L 224.404364 209.980247 
L 224.936727 245.615391 
L 225.202909 267.253081 
L 225.469091 261.599705 
L 226.267636 207.011867 
L 226.8 179.079602 
L 228.130909 173.112645 
L 230.792727 159.575737 
L 233.188364 147.572334 
L 234.785455 140.403948 
L 236.382545 134.178036 
L 237.979636 128.961732 
L 239.310545 125.380796 
L 240.375273 122.993459 
L 241.706182 120.60131 
L 242.770909 119.143771 
L 243.303273 118.570804 
L 243.569455 116.34753 
L 244.634182 102.50739 
L 245.432727 92.174134 
L 246.231273 78.380272 
L 247.029818 62.836945 
L 247.296 63.896361 
L 247.562182 66.504715 
L 248.094545 75.550077 
L 248.893091 96.481953 
L 249.957818 132.505818 
L 252.087273 206.580729 
L 253.152 235.002683 
L 253.950545 250.27638 
L 254.482909 257.310873 
L 255.015273 261.826414 
L 255.281455 263.116471 
L 255.547636 263.837718 
L 255.813818 264.010845 
L 256.08 263.58514 
L 256.346182 260.093227 
L 257.144727 237.368373 
L 257.943273 221.641495 
L 258.741818 211.057817 
L 259.540364 204.120339 
L 260.072727 200.947192 
L 261.403636 200.236724 
L 267.259636 197.181107 
L 271.518545 194.38864 
L 273.115636 193.296342 
L 274.712727 192.353605 
L 276.309818 191.719147 
L 276.842182 191.562027 
L 277.108364 191.920561 
L 277.374545 192.825631 
L 277.906909 195.795276 
L 279.237818 204.673494 
L 279.770182 206.702754 
L 280.036364 207.0283 
L 280.302545 206.802693 
L 280.568727 205.960264 
L 280.834909 204.410281 
L 281.367273 198.948111 
L 281.899636 190.016399 
L 282.432 177.267487 
L 282.698182 169.276519 
L 282.964364 165.297749 
L 283.496727 167.371549 
L 283.762909 167.844778 
L 284.029091 167.93486 
L 284.295273 167.728924 
L 284.827636 166.404619 
L 285.36 164.054624 
L 286.158545 158.978349 
L 287.223273 150.107373 
L 288.820364 134.330108 
L 291.748364 104.926715 
L 293.345455 91.304519 
L 294.676364 87.089046 
L 296.273455 81.19823 
L 302.129455 58.409024 
L 302.395636 59.565034 
L 303.726545 81.419527 
L 304.791273 95.72533 
L 305.856 107.29223 
L 306.920727 116.2601 
L 307.719273 121.460743 
L 308.517818 125.260448 
L 309.316364 127.910814 
L 310.114909 129.747674 
L 311.179636 135.898305 
L 313.042909 148.286225 
L 314.64 158.850961 
L 315.970909 166.314977 
L 316.769455 169.937285 
L 317.568 172.661554 
L 318.100364 173.986982 
L 318.632727 174.85866 
L 319.165091 175.241255 
L 319.431273 175.281056 
L 319.963636 174.978008 
L 320.496 174.17968 
L 321.028364 172.930718 
L 321.826909 170.191737 
L 322.625455 166.470262 
L 323.690182 160.11877 
L 324.754909 152.410511 
L 326.352 138.899727 
L 326.618182 136.486388 
L 328.481455 94.962913 
L 329.546182 76.153697 
L 330.344727 65.378392 
L 330.610909 67.2754 
L 331.409455 87.078178 
L 332.208 102.688149 
L 333.006545 114.985566 
L 333.805091 124.678703 
L 334.603636 132.257818 
L 335.402182 138.21526 
L 336.200727 142.800731 
L 336.999273 146.306316 
L 337.797818 148.892444 
L 338.596364 150.641611 
L 339.128727 151.4127 
L 339.661091 151.864458 
L 340.193455 152.0337 
L 340.725818 151.883015 
L 341.258182 151.451903 
L 341.790545 150.731253 
L 342.589091 149.076539 
L 343.387636 146.69057 
L 344.452364 141.998848 
L 347.646545 126.704627 
L 348.178909 120.204749 
L 348.711273 116.487085 
L 348.977455 115.545541 
L 349.243636 115.231881 
L 349.509818 115.424175 
L 349.776 116.171142 
L 350.308364 119.00476 
L 350.840727 123.405171 
L 351.639273 132.183327 
L 354.301091 164.359576 
L 354.833455 168.300961 
L 355.365818 170.461427 
L 355.632 170.7449 
L 355.898182 170.447268 
L 356.164364 169.512274 
L 356.430545 167.877573 
L 356.962909 162.388919 
L 357.495273 153.637238 
L 358.027636 141.304621 
L 358.826182 115.425228 
L 359.092364 104.77624 
L 359.358545 107.561456 
L 359.890909 127.176856 
L 360.689455 166.780183 
L 361.221818 184.12575 
L 361.754182 195.226514 
L 362.286545 200.97127 
L 362.552727 202.011541 
L 362.818909 201.951174 
L 363.085091 200.865976 
L 363.351273 198.821039 
L 363.883636 192.089734 
L 364.416 182.196438 
L 365.214545 162.251067 
L 366.279273 127.686216 
L 367.344 85.725204 
L 367.610182 83.130176 
L 368.941091 118.297523 
L 372.667636 220.125168 
L 373.466182 236.652902 
L 374.264727 248.767326 
L 374.797091 253.590782 
L 375.063273 254.816346 
L 375.329455 255.14636 
L 375.595636 254.495378 
L 375.861818 252.772084 
L 376.128 249.879863 
L 376.394182 250.334461 
L 376.926545 253.744772 
L 377.192727 254.47499 
L 377.458909 254.719404 
L 377.725091 254.495461 
L 377.991273 253.867956 
L 378.523636 251.574395 
L 379.056 248.127883 
L 379.854545 241.343185 
L 381.185455 227.461902 
L 384.645818 189.685726 
L 385.976727 177.651118 
L 387.307636 167.786193 
L 388.372364 161.559455 
L 389.969455 153.859395 
L 390.501818 152.174554 
L 391.034182 151.36607 
L 391.300364 151.223373 
L 391.566545 151.240157 
L 391.832727 151.408363 
L 392.365091 152.247992 
L 392.897455 153.569927 
L 393.163636 154.418528 
L 393.962182 155.515093 
L 394.760727 157.126917 
L 395.559273 159.395065 
L 396.357818 162.410654 
L 397.156364 166.273755 
L 398.221091 172.795613 
L 399.285818 180.830437 
L 400.882909 195.028751 
L 403.012364 214.190453 
L 403.810909 219.767652 
L 404.343273 222.497899 
L 404.875636 224.168757 
L 405.141818 224.507136 
L 405.408 224.492881 
L 405.674182 224.095933 
L 405.940364 223.285878 
L 406.472727 220.161168 
L 407.005091 214.949648 
L 407.537455 207.19914 
L 408.336 190.710188 
L 409.134545 177.118144 
L 410.731636 155.203837 
L 411.264 151.616581 
L 411.530182 150.596807 
L 411.796364 150.02377 
L 412.062545 149.816202 
L 412.328727 149.916484 
L 412.594909 150.291468 
L 413.127273 151.686244 
L 413.925818 154.892968 
L 415.522909 163.003477 
L 417.386182 172.21185 
L 418.717091 177.668648 
L 419.781818 181.269238 
L 420.846545 184.244931 
L 422.177455 187.237196 
L 423.508364 189.628273 
L 425.105455 192.037161 
L 426.436364 193.915569 
L 426.436364 193.915569 
" clip-path="url(#pfeb71b9b93)" style="fill: none; stroke: #ff0000; stroke-width: 3; stroke-linecap: square"/>
   </g>
   <g id="patch_3">
    <path d="M 7.2 331.2 
L 7.2 7.2 
" style="fill: none; stroke: #000000; stroke-width: 0.8; stroke-linejoin: miter; stroke-linecap: square"/>
   </g>
   <g id="patch_4">
    <path d="M 446.4 331.2 
L 446.4 7.2 
" style="fill: none; stroke: #000000; stroke-width: 0.8; stroke-linejoin: miter; stroke-linecap: square"/>
   </g>
   <g id="patch_5">
    <path d="M 7.2 331.2 
L 446.4 331.2 
" style="fill: none; stroke: #000000; stroke-width: 0.8; stroke-linejoin: miter; stroke-linecap: square"/>
   </g>
   <g id="patch_6">
    <path d="M 7.2 7.2 
L 446.4 7.2 
" style="fill: none; stroke: #000000; stroke-width: 0.8; stroke-linejoin: miter; stroke-linecap: square"/>
   </g>
  </g>
 </g>
 <defs>
  <clipPath id="pfeb71b9b93">
   <rect x="7.2" y="7.2" width="439.2" height="324"/>
  </clipPath>
 </defs>
</svg>
