<?xml version="1.0" encoding="utf-8" standalone="no"?>
<!DOCTYPE svg PUBLIC "-//W3C//DTD SVG 1.1//EN"
  "http://www.w3.org/Graphics/SVG/1.1/DTD/svg11.dtd">
<svg xmlns:xlink="http://www.w3.org/1999/xlink" width="453.6pt" height="338.4pt" viewBox="0 0 453.6 338.4" xmlns="http://www.w3.org/2000/svg" version="1.1">
 <metadata>
  <rdf:RDF xmlns:dc="http://purl.org/dc/elements/1.1/" xmlns:cc="http://creativecommons.org/ns#" xmlns:rdf="http://www.w3.org/1999/02/22-rdf-syntax-ns#">
   <cc:Work>
    <dc:type rdf:resource="http://purl.org/dc/dcmitype/StillImage"/>
    <dc:date>2025-05-14T16:02:21.817390</dc:date>
    <dc:format>image/svg+xml</dc:format>
    <dc:creator>
     <cc:Agent>
      <dc:title>Matplotlib v3.10.1, https://matplotlib.org/</dc:title>
     </cc:Agent>
    </dc:creator>
   </cc:Work>
  </rdf:RDF>
 </metadata>
 <defs>
  <style type="text/css">*{stroke-linejoin: round; stroke-linecap: butt}</style>
 </defs>
 <g id="figure_1">
  <g id="patch_1">
   <path d="M 0 338.4 
L 453.6 338.4 
L 453.6 0 
L 0 0 
z
" style="fill: #ffffff"/>
  </g>
  <g id="axes_1">
   <g id="patch_2">
    <path d="M 7.2 331.2 
L 446.4 331.2 
L 446.4 7.2 
L 7.2 7.2 
z
" style="fill: #ffffff"/>
   </g>
   <g id="matplotlib.axis_1"/>
   <g id="matplotlib.axis_2"/>
   <g id="line2d_1">
    <path d="M 27.163636 316.472727 
L 76.939636 316.472727 
L 77.205818 316.234189 
L 178.354909 134.999038 
L 326.618182 42.268818 
L 333.538909 65.736364 
L 340.459636 88.447796 
L 347.380364 110.427413 
L 354.301091 131.698861 
L 361.488 153.063306 
L 368.674909 173.713324 
L 375.861818 193.672836 
L 383.048727 212.96492 
L 390.235636 231.611881 
L 397.422545 249.635348 
L 404.609455 267.056056 
L 411.796364 283.894228 
L 418.983273 300.169406 
L 426.170182 315.90034 
L 426.436364 316.472727 
L 426.436364 316.472727 
" clip-path="url(#pd87346d6cb)" style="fill: none; stroke-dasharray: 11.1,4.8; stroke-dashoffset: 0; stroke: #000000; stroke-width: 3"/>
   </g>
   <g id="line2d_2">
    <path d="M 27.163636 184.397407 
L 28.494545 183.429187 
L 31.156364 181.395196 
L 32.487273 180.717585 
L 33.818182 180.334683 
L 35.415273 180.158576 
L 37.278545 180.188702 
L 39.141818 180.45101 
L 40.738909 180.89938 
L 44.199273 181.978837 
L 45.530182 182.07221 
L 46.861091 181.913255 
L 48.192 181.527254 
L 49.256727 181.008343 
L 50.055273 180.418803 
L 50.853818 179.581334 
L 51.652364 178.447172 
L 52.717091 176.504298 
L 54.846545 172.361087 
L 55.645091 171.257183 
L 56.443636 170.498269 
L 58.306909 169.078247 
L 59.105455 168.026416 
L 59.904 166.523826 
L 62.565818 160.752815 
L 63.098182 160.105778 
L 63.630545 159.754196 
L 64.162909 159.690502 
L 64.695273 159.879092 
L 65.493818 160.516209 
L 66.824727 162.038917 
L 68.421818 163.841859 
L 69.486545 164.791443 
L 70.551273 165.459021 
L 71.349818 165.738815 
L 72.148364 165.813693 
L 72.946909 165.696856 
L 74.011636 165.322082 
L 77.205818 164.038648 
L 79.069091 163.345315 
L 80.4 162.565026 
L 82.795636 160.995004 
L 83.594182 160.725181 
L 84.392727 160.697214 
L 85.191273 160.942528 
L 85.989818 161.470568 
L 86.788364 162.279 
L 87.853091 163.777042 
L 88.917818 165.711094 
L 90.514909 169.170189 
L 92.378182 173.177664 
L 93.442909 175.001603 
L 94.507636 176.342929 
L 95.572364 177.255233 
L 96.903273 178.023004 
L 99.565091 179.195939 
L 101.162182 179.674233 
L 102.493091 179.835874 
L 104.888727 180.056152 
L 105.953455 180.461263 
L 107.018182 181.180746 
L 108.349091 182.438846 
L 110.212364 184.249566 
L 111.277091 184.944663 
L 112.075636 185.218295 
L 112.874182 185.285842 
L 113.938909 185.120708 
L 115.269818 184.651394 
L 116.866909 183.848668 
L 118.730182 182.62058 
L 120.859636 181.22088 
L 121.924364 180.83027 
L 122.722909 180.757315 
L 123.521455 180.874327 
L 124.586182 181.262505 
L 127.514182 182.53552 
L 128.845091 182.762997 
L 132.571636 183.109961 
L 133.902545 183.602696 
L 138.161455 185.439916 
L 139.492364 185.672432 
L 141.355636 185.740805 
L 144.549818 185.587863 
L 146.945455 185.25949 
L 149.341091 184.694679 
L 151.470545 183.992498 
L 152.801455 183.356978 
L 154.132364 182.478506 
L 155.463273 181.322127 
L 157.060364 179.583379 
L 158.923636 177.179881 
L 161.585455 173.70624 
L 162.916364 172.324245 
L 164.513455 171.042847 
L 166.642909 169.389213 
L 167.707636 168.249064 
L 168.772364 166.723354 
L 169.837091 164.731366 
L 170.901818 162.260653 
L 172.498909 157.854115 
L 175.160727 150.296911 
L 176.491636 147.193558 
L 178.088727 144.142119 
L 180.218182 140.189937 
L 181.549091 137.124155 
L 182.88 133.462512 
L 186.074182 124.311268 
L 187.138909 121.947614 
L 188.203636 120.126202 
L 189.268364 118.804303 
L 190.333091 117.867622 
L 191.664 117.041371 
L 193.261091 116.324865 
L 194.858182 115.844753 
L 196.189091 115.693629 
L 197.52 115.809325 
L 199.649455 116.32964 
L 200.980364 116.545442 
L 202.045091 116.471073 
L 202.843636 116.220212 
L 203.908364 115.61524 
L 205.239273 114.510336 
L 208.433455 111.639322 
L 209.764364 110.82989 
L 211.095273 110.308609 
L 212.426182 110.029798 
L 213.757091 109.965665 
L 215.088 110.105097 
L 216.951273 110.55201 
L 219.346909 111.133965 
L 221.476364 111.376329 
L 223.872 111.660302 
L 225.469091 112.070908 
L 231.591273 113.947253 
L 235.584 114.872083 
L 240.109091 116.119158 
L 241.972364 116.360153 
L 243.835636 116.392404 
L 245.698909 116.212013 
L 247.828364 115.759201 
L 252.087273 114.739375 
L 253.950545 114.587215 
L 256.878545 114.642183 
L 260.605091 114.671695 
L 263.266909 114.470272 
L 269.921455 113.752449 
L 274.712727 113.512384 
L 280.834909 113.069281 
L 288.288 112.812714 
L 294.942545 112.817226 
L 305.057455 113.164752 
L 310.647273 113.362383 
L 320.229818 113.468055 
L 323.690182 113.429501 
L 329.013818 113.251322 
L 332.208 113.467054 
L 337.265455 114.0735 
L 340.459636 114.6162 
L 342.322909 115.119661 
L 343.92 115.77293 
L 345.250909 116.560505 
L 346.581818 117.620571 
L 348.178909 119.208905 
L 351.639273 122.763717 
L 352.970182 123.766093 
L 354.034909 124.323961 
L 355.099636 124.630722 
L 356.164364 124.676754 
L 357.229091 124.498857 
L 360.955636 123.621078 
L 362.286545 123.66683 
L 367.876364 124.239234 
L 370.005818 124.052365 
L 372.135273 123.921431 
L 373.2 124.05133 
L 374.530909 124.467536 
L 378.523636 126.073848 
L 379.854545 126.223322 
L 381.717818 126.15889 
L 384.912 126.025392 
L 389.170909 126.009206 
L 390.501818 125.690735 
L 391.832727 125.112659 
L 394.760727 123.671728 
L 396.091636 123.315581 
L 397.954909 123.104362 
L 404.077091 122.705711 
L 405.940364 122.962085 
L 409.400727 123.561106 
L 411.264 123.588757 
L 414.192 123.583753 
L 416.055273 123.839057 
L 418.983273 124.483635 
L 420.314182 124.977704 
L 421.112727 125.457868 
L 421.911273 126.158416 
L 422.709818 127.139882 
L 423.508364 128.433095 
L 424.573091 130.599733 
L 426.436364 134.907447 
L 426.436364 134.907447 
" clip-path="url(#pd87346d6cb)" style="fill: none; stroke: #ff0000; stroke-width: 3; stroke-linecap: square"/>
   </g>
   <g id="patch_3">
    <path d="M 7.2 331.2 
L 7.2 7.2 
" style="fill: none; stroke: #000000; stroke-width: 0.8; stroke-linejoin: miter; stroke-linecap: square"/>
   </g>
   <g id="patch_4">
    <path d="M 446.4 331.2 
L 446.4 7.2 
" style="fill: none; stroke: #000000; stroke-width: 0.8; stroke-linejoin: miter; stroke-linecap: square"/>
   </g>
   <g id="patch_5">
    <path d="M 7.2 331.2 
L 446.4 331.2 
" style="fill: none; stroke: #000000; stroke-width: 0.8; stroke-linejoin: miter; stroke-linecap: square"/>
   </g>
   <g id="patch_6">
    <path d="M 7.2 7.2 
L 446.4 7.2 
" style="fill: none; stroke: #000000; stroke-width: 0.8; stroke-linejoin: miter; stroke-linecap: square"/>
   </g>
  </g>
 </g>
 <defs>
  <clipPath id="pd87346d6cb">
   <rect x="7.2" y="7.2" width="439.2" height="324"/>
  </clipPath>
 </defs>
</svg>
