<?xml version="1.0" encoding="utf-8" standalone="no"?>
<!DOCTYPE svg PUBLIC "-//W3C//DTD SVG 1.1//EN"
  "http://www.w3.org/Graphics/SVG/1.1/DTD/svg11.dtd">
<svg xmlns:xlink="http://www.w3.org/1999/xlink" width="453.6pt" height="338.4pt" viewBox="0 0 453.6 338.4" xmlns="http://www.w3.org/2000/svg" version="1.1">
 <metadata>
  <rdf:RDF xmlns:dc="http://purl.org/dc/elements/1.1/" xmlns:cc="http://creativecommons.org/ns#" xmlns:rdf="http://www.w3.org/1999/02/22-rdf-syntax-ns#">
   <cc:Work>
    <dc:type rdf:resource="http://purl.org/dc/dcmitype/StillImage"/>
    <dc:date>2025-05-14T16:11:24.430185</dc:date>
    <dc:format>image/svg+xml</dc:format>
    <dc:creator>
     <cc:Agent>
      <dc:title>Matplotlib v3.10.1, https://matplotlib.org/</dc:title>
     </cc:Agent>
    </dc:creator>
   </cc:Work>
  </rdf:RDF>
 </metadata>
 <defs>
  <style type="text/css">*{stroke-linejoin: round; stroke-linecap: butt}</style>
 </defs>
 <g id="figure_1">
  <g id="patch_1">
   <path d="M 0 338.4 
L 453.6 338.4 
L 453.6 0 
L 0 0 
z
" style="fill: #ffffff"/>
  </g>
  <g id="axes_1">
   <g id="patch_2">
    <path d="M 7.2 331.2 
L 446.4 331.2 
L 446.4 7.2 
L 7.2 7.2 
z
" style="fill: #ffffff"/>
   </g>
   <g id="matplotlib.axis_1"/>
   <g id="matplotlib.axis_2"/>
   <g id="line2d_1">
    <path d="M 27.163636 316.47258 
L 226.8 169.2 
L 426.436364 316.472727 
L 426.436364 316.472727 
" clip-path="url(#pa61e3bcfaa)" style="fill: none; stroke-dasharray: 11.1,4.8; stroke-dashoffset: 0; stroke: #000000; stroke-width: 3"/>
   </g>
   <g id="line2d_2">
    <path d="M 27.163636 193.259184 
L 27.429818 198.288645 
L 27.696 199.035067 
L 28.228364 198.509116 
L 28.494545 198.158737 
L 29.026909 197.204588 
L 29.293091 196.866718 
L 29.825455 196.425037 
L 30.091636 196.25532 
L 30.357818 196.457384 
L 30.624 196.371122 
L 31.156364 195.814228 
L 31.422545 196.104951 
L 31.688727 196.10977 
L 32.221091 195.913728 
L 32.487273 196.040677 
L 33.019636 195.851508 
L 33.552 195.666465 
L 34.084364 195.522715 
L 34.350545 195.438392 
L 34.882909 195.43136 
L 35.415273 195.201224 
L 35.681455 194.799124 
L 38.077091 194.029325 
L 38.609455 193.967483 
L 39.141818 194.03956 
L 39.674182 194.010768 
L 39.940364 194.728741 
L 40.738909 195.206631 
L 41.271273 195.760892 
L 42.602182 197.057467 
L 43.933091 198.354323 
L 44.199273 196.325493 
L 46.062545 198.121544 
L 46.861091 199.031407 
L 47.127273 199.275781 
L 47.659636 200.029859 
L 48.192 200.553001 
L 48.458182 201.300134 
L 49.522909 202.443522 
L 51.652364 204.634765 
L 52.450909 205.621164 
L 52.717091 207.228845 
L 53.781818 209.087835 
L 56.709818 213.701476 
L 56.976 214.943793 
L 58.839273 217.828878 
L 59.637818 218.868253 
L 60.170182 219.321495 
L 60.968727 219.762921 
L 61.234909 206.469641 
L 61.501091 206.400724 
L 62.033455 206.75264 
L 62.565818 207.330382 
L 63.364364 207.969123 
L 67.090909 211.60839 
L 67.623273 212.021314 
L 68.421818 212.950445 
L 69.220364 214.25743 
L 69.486545 214.594388 
L 70.018909 216.228052 
L 71.083636 219.217772 
L 72.414545 223.889752 
L 73.479273 227.836272 
L 75.608727 234.789005 
L 76.673455 237.276659 
L 77.205818 238.166596 
L 78.004364 239.310791 
L 78.270545 236.94058 
L 79.069091 238.257994 
L 80.133818 239.479998 
L 81.464727 240.297893 
L 83.860364 241.176304 
L 85.457455 241.496442 
L 86.522182 241.6974 
L 86.788364 242.841824 
L 88.119273 243.320478 
L 88.651636 243.51663 
L 90.781091 243.760592 
L 91.047273 244.051921 
L 93.442909 244.195658 
L 94.241455 244.168753 
L 94.773818 244.128532 
L 95.04 243.954505 
L 95.306182 239.459861 
L 95.838545 239.456473 
L 98.234182 239.839077 
L 100.896 239.417726 
L 101.428364 239.282622 
L 102.759273 238.63627 
L 111.809455 234.181321 
L 112.075636 233.926667 
L 112.341818 233.132948 
L 115.802182 230.782829 
L 117.399273 229.902022 
L 118.197818 229.585553 
L 121.392 227.425244 
L 122.190545 226.405075 
L 122.722909 225.42748 
L 123.787636 222.982058 
L 124.053818 222.586655 
L 124.586182 222.318105 
L 124.852364 222.239989 
L 125.118545 222.314972 
L 125.917091 222.235907 
L 128.046545 222.137671 
L 128.845091 222.00405 
L 129.111273 221.700247 
L 129.377455 211.95934 
L 130.176 211.675718 
L 130.974545 211.561041 
L 132.039273 211.235328 
L 134.168727 210.81231 
L 136.564364 210.72365 
L 139.226182 210.454934 
L 140.024727 210.332338 
L 143.218909 209.228523 
L 144.017455 208.585427 
L 144.816 207.829981 
L 146.146909 206.055375 
L 146.413091 206.110027 
L 147.744 204.596334 
L 148.276364 204.167224 
L 149.341091 203.026803 
L 151.736727 200.829714 
L 152.801455 199.67739 
L 154.398545 198.535451 
L 154.664727 198.434441 
L 154.930909 198.685258 
L 155.995636 198.427602 
L 157.592727 198.56793 
L 158.125091 198.890825 
L 158.923636 199.631735 
L 159.988364 200.962703 
L 160.786909 201.632659 
L 161.851636 202.482514 
L 163.182545 203.273161 
L 163.448727 203.020421 
L 164.779636 203.411689 
L 167.707636 203.68195 
L 168.506182 203.586058 
L 169.570909 203.447767 
L 170.369455 203.37382 
L 171.700364 203.10082 
L 171.966545 203.103278 
L 176.491636 200.903459 
L 178.621091 199.590557 
L 180.218182 198.684179 
L 180.484364 198.786198 
L 184.210909 196.824407 
L 185.808 196.280294 
L 186.606545 196.146665 
L 189.534545 196.09849 
L 191.131636 196.29074 
L 193.793455 196.808299 
L 198.052364 197.931752 
L 199.649455 198.049221 
L 200.181818 197.935553 
L 202.045091 197.369652 
L 203.376 196.704629 
L 204.174545 196.416671 
L 204.706909 196.090853 
L 208.433455 194.405117 
L 209.498182 193.265232 
L 211.095273 191.571042 
L 213.490909 188.832579 
L 215.354182 185.77791 
L 216.685091 183.527485 
L 218.282182 181.01735 
L 220.145455 179.663848 
L 222.274909 178.931927 
L 223.872 178.466229 
L 225.469091 178.223909 
L 226.533818 178.10522 
L 227.864727 178.182915 
L 229.994182 178.587131 
L 232.922182 179.462267 
L 233.720727 179.83604 
L 234.519273 180.027667 
L 237.447273 181.041226 
L 238.245818 181.8209 
L 238.512 181.986983 
L 240.907636 185.207778 
L 242.238545 186.500763 
L 242.504727 186.643654 
L 243.037091 186.709797 
L 245.166545 187.133412 
L 246.763636 187.475417 
L 247.296 187.563638 
L 247.828364 187.670687 
L 248.360727 187.845565 
L 249.691636 188.560536 
L 250.224 188.712617 
L 250.756364 189.113875 
L 251.022545 189.219642 
L 251.554909 189.146538 
L 253.418182 189.082765 
L 254.482909 189.076146 
L 255.281455 189.300568 
L 255.547636 189.245169 
L 256.08 189.422593 
L 256.346182 189.309495 
L 256.878545 189.461884 
L 257.677091 189.962308 
L 259.008 190.904588 
L 259.540364 191.511325 
L 260.072727 191.714644 
L 260.338909 191.866023 
L 260.605091 191.887512 
L 260.871273 192.041788 
L 261.403636 192.640702 
L 262.734545 193.40117 
L 263.000727 193.549126 
L 263.533091 194.131432 
L 264.597818 195.044148 
L 264.864 194.996623 
L 265.396364 195.460091 
L 266.461091 196.588144 
L 268.324364 197.989328 
L 268.856727 198.205015 
L 269.389091 198.325381 
L 270.187636 198.68575 
L 270.986182 198.870916 
L 272.849455 199.694507 
L 273.115636 199.853067 
L 273.381818 200.187865 
L 273.914182 200.363033 
L 275.511273 201.365865 
L 276.043636 201.59982 
L 276.576 201.978281 
L 277.374545 202.154212 
L 278.439273 202.544892 
L 280.036364 203.100372 
L 280.834909 203.406036 
L 281.367273 203.639175 
L 282.165818 204.109955 
L 283.230545 204.650267 
L 284.029091 205.135803 
L 284.561455 205.435831 
L 285.626182 206.264628 
L 285.892364 206.370826 
L 286.690909 206.992415 
L 290.151273 209.079022 
L 290.417455 210.000376 
L 291.748364 211.219229 
L 292.280727 211.765352 
L 293.611636 212.856431 
L 294.144 213.199533 
L 294.676364 213.387043 
L 295.741091 214.123292 
L 296.273455 214.230236 
L 299.467636 216.079763 
L 300 216.332179 
L 300.798545 216.887571 
L 301.330909 216.925818 
L 302.661818 217.533186 
L 303.194182 217.618237 
L 303.992727 217.93569 
L 304.791273 217.737287 
L 306.920727 217.758512 
L 307.186909 217.702121 
L 307.453091 219.308363 
L 308.517818 218.652996 
L 309.050182 218.526432 
L 309.848727 218.150667 
L 310.913455 217.834917 
L 311.445818 217.289356 
L 311.978182 216.498252 
L 312.776727 214.939474 
L 313.309091 214.429807 
L 313.575273 214.384371 
L 314.373818 214.576665 
L 314.906182 214.661743 
L 315.438545 215.089554 
L 316.503273 216.490545 
L 317.035636 217.153022 
L 318.100364 218.696298 
L 318.366545 219.008045 
L 318.898909 220.250801 
L 319.431273 221.334287 
L 319.697455 221.740539 
L 319.963636 222.440332 
L 320.496 223.222061 
L 321.028364 224.814046 
L 321.560727 225.3935 
L 323.157818 228.931107 
L 323.956364 230.494116 
L 324.222545 229.760457 
L 324.488727 236.295281 
L 325.021091 235.957656 
L 327.150545 235.320916 
L 327.949091 235.101217 
L 328.481455 234.885345 
L 329.013818 234.898662 
L 329.812364 234.589039 
L 330.610909 234.309692 
L 331.143273 234.187817 
L 332.208 233.856196 
L 332.740364 233.801526 
L 333.006545 234.038904 
L 333.805091 233.900456 
L 334.603636 233.913228 
L 335.402182 233.835137 
L 336.200727 233.983892 
L 336.999273 233.954345 
L 337.265455 234.361448 
L 338.064 234.489355 
L 338.596364 234.470947 
L 340.459636 235.35674 
L 341.258182 235.956814 
L 341.524364 238.280422 
L 342.056727 238.76099 
L 342.589091 239.496378 
L 343.121455 240.287859 
L 343.387636 240.536088 
L 343.92 241.435548 
L 344.718545 243.005062 
L 345.517091 244.251 
L 345.783273 245.467058 
L 346.315636 246.43892 
L 346.848 246.906787 
L 348.178909 248.484907 
L 348.977455 249.037171 
L 349.509818 249.666379 
L 349.776 249.741612 
L 350.042182 250.406341 
L 350.840727 250.566353 
L 351.373091 250.710723 
L 351.639273 250.749325 
L 351.905455 250.644957 
L 352.970182 250.82777 
L 354.034909 250.830895 
L 354.301091 251.570581 
L 354.833455 251.256047 
L 355.099636 250.873891 
L 355.632 250.559668 
L 355.898182 250.529336 
L 356.962909 249.705556 
L 358.027636 248.686875 
L 358.293818 248.742967 
L 358.56 262.670506 
L 359.092364 262.906261 
L 360.423273 263.094359 
L 362.286545 262.765771 
L 363.351273 262.38537 
L 364.149818 261.904649 
L 365.214545 261.407416 
L 366.545455 260.734005 
L 367.344 260.225602 
L 367.876364 259.97794 
L 368.941091 259.229853 
L 369.207273 258.486143 
L 369.473455 257.372386 
L 369.739636 256.751508 
L 370.538182 255.980213 
L 371.869091 255.109211 
L 373.2 253.592932 
L 373.732364 252.998306 
L 374.264727 252.288979 
L 374.530909 251.73809 
L 374.797091 251.456908 
L 375.329455 250.415646 
L 375.595636 254.426302 
L 375.861818 254.310409 
L 376.394182 253.694495 
L 379.322182 248.898379 
L 379.588364 248.276589 
L 380.120727 247.656145 
L 380.653091 246.517296 
L 381.185455 245.308274 
L 382.782545 240.769876 
L 383.048727 239.712084 
L 383.314909 239.179742 
L 383.847273 237.261298 
L 384.113455 235.579898 
L 384.379636 235.16413 
L 384.912 233.599875 
L 385.444364 231.95508 
L 386.242909 229.466591 
L 386.509091 229.004098 
L 387.84 225.646249 
L 388.106182 225.133035 
L 389.170909 224.32973 
L 389.437091 223.911171 
L 389.703273 223.797626 
L 390.501818 222.874578 
L 390.768 222.814773 
L 391.566545 221.788336 
L 391.832727 221.890268 
L 392.098909 221.822027 
L 392.365091 221.913714 
L 392.631273 234.23176 
L 392.897455 234.357709 
L 393.962182 233.183606 
L 397.422545 228.72799 
L 399.818182 226.373342 
L 400.084364 225.848699 
L 400.350545 225.650015 
L 400.882909 225.036642 
L 401.149091 222.781863 
L 401.947636 221.528582 
L 402.48 220.318481 
L 403.012364 219.050522 
L 403.544727 217.441832 
L 404.077091 215.95744 
L 404.609455 213.901275 
L 405.141818 212.009384 
L 405.408 210.471586 
L 405.674182 209.790306 
L 406.206545 207.589504 
L 406.472727 205.071951 
L 406.738909 204.216873 
L 407.803636 199.179994 
L 408.336 197.570031 
L 408.602182 195.823383 
L 409.134545 194.893954 
L 409.400727 192.669073 
L 409.666909 210.109128 
L 410.465455 207.405005 
L 410.997818 205.117018 
L 412.062545 202.212306 
L 412.594909 201.008858 
L 413.127273 199.592997 
L 413.659636 198.560249 
L 413.925818 197.732181 
L 414.458182 197.016824 
L 414.724364 196.547343 
L 414.990545 195.722277 
L 415.789091 194.815802 
L 416.055273 194.328361 
L 416.587636 194.048953 
L 416.853818 193.838989 
L 417.12 193.41698 
L 417.652364 193.213634 
L 417.918545 193.022999 
L 418.184727 191.965181 
L 418.717091 191.881508 
L 418.983273 191.750494 
L 419.249455 191.413729 
L 419.781818 191.387562 
L 420.314182 191.605242 
L 420.846545 192.396942 
L 421.112727 192.59409 
L 421.378909 192.589491 
L 421.911273 193.001071 
L 422.177455 193.124439 
L 422.443636 192.682715 
L 423.242182 193.318471 
L 423.508364 193.214801 
L 424.573091 194.125384 
L 425.637818 195.487277 
L 425.904 195.708407 
L 426.170182 195.483125 
L 426.436364 192.298092 
L 426.436364 192.298092 
" clip-path="url(#pa61e3bcfaa)" style="fill: none; stroke: #ff0000; stroke-width: 3; stroke-linecap: square"/>
   </g>
   <g id="patch_3">
    <path d="M 7.2 331.2 
L 7.2 7.2 
" style="fill: none; stroke: #000000; stroke-width: 0.8; stroke-linejoin: miter; stroke-linecap: square"/>
   </g>
   <g id="patch_4">
    <path d="M 446.4 331.2 
L 446.4 7.2 
" style="fill: none; stroke: #000000; stroke-width: 0.8; stroke-linejoin: miter; stroke-linecap: square"/>
   </g>
   <g id="patch_5">
    <path d="M 7.2 331.2 
L 446.4 331.2 
" style="fill: none; stroke: #000000; stroke-width: 0.8; stroke-linejoin: miter; stroke-linecap: square"/>
   </g>
   <g id="patch_6">
    <path d="M 7.2 7.2 
L 446.4 7.2 
" style="fill: none; stroke: #000000; stroke-width: 0.8; stroke-linejoin: miter; stroke-linecap: square"/>
   </g>
  </g>
 </g>
 <defs>
  <clipPath id="pa61e3bcfaa">
   <rect x="7.2" y="7.2" width="439.2" height="324"/>
  </clipPath>
 </defs>
</svg>
