<?xml version="1.0" encoding="utf-8" standalone="no"?>
<!DOCTYPE svg PUBLIC "-//W3C//DTD SVG 1.1//EN"
  "http://www.w3.org/Graphics/SVG/1.1/DTD/svg11.dtd">
<svg xmlns:xlink="http://www.w3.org/1999/xlink" width="453.6pt" height="338.4pt" viewBox="0 0 453.6 338.4" xmlns="http://www.w3.org/2000/svg" version="1.1">
 <metadata>
  <rdf:RDF xmlns:dc="http://purl.org/dc/elements/1.1/" xmlns:cc="http://creativecommons.org/ns#" xmlns:rdf="http://www.w3.org/1999/02/22-rdf-syntax-ns#">
   <cc:Work>
    <dc:type rdf:resource="http://purl.org/dc/dcmitype/StillImage"/>
    <dc:date>2025-05-14T16:04:44.834758</dc:date>
    <dc:format>image/svg+xml</dc:format>
    <dc:creator>
     <cc:Agent>
      <dc:title>Matplotlib v3.10.1, https://matplotlib.org/</dc:title>
     </cc:Agent>
    </dc:creator>
   </cc:Work>
  </rdf:RDF>
 </metadata>
 <defs>
  <style type="text/css">*{stroke-linejoin: round; stroke-linecap: butt}</style>
 </defs>
 <g id="figure_1">
  <g id="patch_1">
   <path d="M 0 338.4 
L 453.6 338.4 
L 453.6 0 
L 0 0 
z
" style="fill: #ffffff"/>
  </g>
  <g id="axes_1">
   <g id="patch_2">
    <path d="M 7.2 331.2 
L 446.4 331.2 
L 446.4 7.2 
L 7.2 7.2 
z
" style="fill: #ffffff"/>
   </g>
   <g id="matplotlib.axis_1"/>
   <g id="matplotlib.axis_2"/>
   <g id="line2d_1">
    <path d="M 27.163636 316.472688 
L 29.559273 314.437142 
L 31.688727 312.342918 
L 33.818182 309.939327 
L 35.947636 307.180669 
L 38.077091 304.014491 
L 39.940364 300.862679 
L 41.803636 297.307035 
L 43.666909 293.295821 
L 45.530182 288.770664 
L 47.393455 283.665716 
L 49.256727 277.906691 
L 51.12 271.40978 
L 52.983273 264.080447 
L 54.846545 255.812037 
L 56.709818 246.484211 
L 58.573091 235.961264 
L 60.436364 224.090034 
L 62.299636 210.697799 
L 64.162909 195.589648 
L 66.026182 178.545742 
L 67.889455 159.318098 
L 69.752727 137.626844 
L 71.616 113.156431 
L 73.479273 85.550677 
L 75.342545 54.407878 
L 77.205818 22.466496 
L 81.464727 39.213815 
L 85.723636 55.015325 
L 89.982545 69.924379 
L 94.241455 83.991399 
L 98.500364 97.263944 
L 102.759273 109.786889 
L 107.018182 121.602545 
L 111.277091 132.750851 
L 115.536 143.269554 
L 119.794909 153.194188 
L 124.053818 162.558285 
L 128.312727 171.393516 
L 132.571636 179.729746 
L 136.830545 187.595151 
L 141.089455 195.016365 
L 145.614545 202.44267 
L 150.139636 209.42417 
L 154.664727 215.987479 
L 159.189818 222.15758 
L 163.714909 227.958156 
L 168.24 233.411259 
L 173.031273 238.829512 
L 177.822545 243.904751 
L 182.613818 248.658692 
L 187.405091 253.111631 
L 192.462545 257.506494 
L 197.52 261.608185 
L 202.843636 265.630521 
L 208.167273 269.370921 
L 213.490909 272.849153 
L 219.080727 276.239218 
L 224.936727 279.523892 
L 230.792727 282.556247 
L 236.914909 285.477629 
L 243.303273 288.276626 
L 249.957818 290.943987 
L 256.878545 293.472617 
L 264.065455 295.85755 
L 271.518545 298.095659 
L 279.504 300.253958 
L 287.755636 302.250352 
L 296.539636 304.142357 
L 305.856 305.91598 
L 315.704727 307.561196 
L 326.352 309.107816 
L 337.797818 310.537898 
L 350.042182 311.839555 
L 363.351273 313.028186 
L 377.991273 314.10895 
L 394.228364 315.080216 
L 412.328727 315.937155 
L 426.436364 316.472727 
L 426.436364 316.472727 
" clip-path="url(#pe8092c36aa)" style="fill: none; stroke-dasharray: 11.1,4.8; stroke-dashoffset: 0; stroke: #000000; stroke-width: 3"/>
   </g>
   <g id="line2d_2">
    <path d="M 27.163636 303.390299 
L 29.026909 305.028671 
L 30.091636 305.648883 
L 30.890182 305.87754 
L 31.688727 305.904224 
L 32.753455 305.680141 
L 34.084364 305.127362 
L 36.48 303.82008 
L 39.141818 302.138955 
L 42.069818 299.99811 
L 43.933091 298.426371 
L 44.997818 297.285459 
L 46.062545 295.794551 
L 47.127273 293.815551 
L 48.192 291.271685 
L 49.522909 287.347498 
L 51.652364 280.103337 
L 56.976 261.432811 
L 59.904 249.970967 
L 60.968727 246.876844 
L 61.767273 245.185372 
L 62.565818 244.034953 
L 63.098182 243.549179 
L 63.630545 243.271514 
L 64.162909 243.189776 
L 64.695273 243.296198 
L 65.227636 243.588005 
L 66.026182 244.378257 
L 66.824727 245.607688 
L 67.623273 247.294311 
L 68.421818 249.441281 
L 69.486545 252.964655 
L 71.083636 259.202505 
L 72.946909 266.286849 
L 74.011636 269.350266 
L 74.810182 270.940948 
L 75.342545 271.646662 
L 75.874909 272.082383 
L 76.407273 272.274804 
L 76.939636 272.260267 
L 77.738182 271.942823 
L 78.802909 271.191612 
L 81.464727 269.149027 
L 83.328 268.062733 
L 85.191273 267.234164 
L 86.522182 266.906494 
L 87.586909 266.873154 
L 88.917818 267.093529 
L 91.579636 267.685448 
L 92.644364 267.676872 
L 93.709091 267.461268 
L 95.306182 266.873874 
L 97.169455 266.224388 
L 98.234182 266.061532 
L 99.298909 266.095894 
L 100.629818 266.370119 
L 102.759273 267.081201 
L 107.284364 268.626991 
L 108.881455 268.924083 
L 110.478545 268.996147 
L 116.334545 268.988457 
L 118.464 269.313121 
L 120.859636 269.920661 
L 123.787636 270.915772 
L 130.442182 273.313714 
L 132.039273 273.56408 
L 133.636364 273.612412 
L 135.499636 273.452646 
L 138.427636 272.922407 
L 141.888 272.345499 
L 145.348364 272.037254 
L 148.808727 271.676534 
L 156.261818 270.482404 
L 158.391273 269.858239 
L 162.650182 268.516935 
L 165.578182 267.896817 
L 167.441455 267.656722 
L 168.772364 267.694823 
L 169.837091 267.926566 
L 171.168 268.479224 
L 174.096 269.927152 
L 174.894545 270.059167 
L 175.693091 269.945301 
L 176.491636 269.527488 
L 177.290182 268.760818 
L 178.088727 267.614947 
L 178.887273 266.075516 
L 179.952 263.419659 
L 181.016727 260.136425 
L 182.613818 254.32624 
L 187.937455 234.041336 
L 189.800727 228.063266 
L 191.930182 222.016427 
L 193.793455 217.343359 
L 195.656727 213.20293 
L 197.52 209.567289 
L 199.383273 206.385301 
L 201.778909 202.784035 
L 209.764364 191.267398 
L 211.627636 188.096523 
L 213.224727 184.949227 
L 214.555636 181.885657 
L 215.886545 178.335953 
L 217.483636 173.458415 
L 222.541091 157.359292 
L 224.138182 153.345944 
L 225.735273 149.976245 
L 227.598545 146.63748 
L 229.728 143.322416 
L 231.591273 140.809621 
L 233.188364 139.023902 
L 234.519273 137.835325 
L 235.850182 136.907335 
L 237.447273 136.074325 
L 239.310545 135.370529 
L 241.972364 134.641469 
L 248.893091 132.883699 
L 253.684364 131.629707 
L 256.612364 131.096348 
L 259.540364 130.811901 
L 264.597818 130.407141 
L 267.525818 130.135721 
L 269.122909 130.211195 
L 270.453818 130.472731 
L 272.050909 131.025631 
L 274.180364 132.040419 
L 276.842182 133.540287 
L 278.439273 134.675335 
L 279.770182 135.891353 
L 281.101091 137.412324 
L 282.698182 139.619288 
L 284.827636 143.01095 
L 290.683636 152.592411 
L 296.007273 161.118512 
L 299.467636 166.880956 
L 301.330909 170.417712 
L 303.460364 174.986189 
L 307.453091 183.677942 
L 314.107636 197.113726 
L 315.704727 199.778602 
L 317.301818 202.064341 
L 318.898909 204.014975 
L 320.229818 205.36824 
L 321.560727 206.40449 
L 322.625455 206.976623 
L 323.956364 207.434289 
L 326.352 208.166772 
L 327.682909 208.827344 
L 329.812364 210.211437 
L 333.805091 213.042238 
L 334.869818 214.15096 
L 335.934545 215.618885 
L 337.265455 217.925025 
L 339.661091 222.279806 
L 340.725818 223.782633 
L 341.790545 224.899352 
L 342.855273 225.684732 
L 344.186182 226.340898 
L 345.783273 226.843008 
L 347.912727 227.256792 
L 351.106909 227.625394 
L 353.236364 227.905206 
L 354.301091 228.230287 
L 355.365818 228.827894 
L 356.164364 229.510526 
L 357.229091 230.737956 
L 359.092364 233.382212 
L 360.423273 235.122144 
L 361.488 236.18307 
L 362.552727 236.939324 
L 364.149818 237.728637 
L 370.804364 240.725213 
L 372.401455 241.662428 
L 373.998545 242.909003 
L 376.926545 245.31678 
L 378.257455 246.083011 
L 379.854545 246.726988 
L 382.516364 247.783832 
L 384.912 249.061394 
L 387.041455 250.41561 
L 388.106182 251.371708 
L 388.904727 252.349526 
L 389.703273 253.619802 
L 390.768 255.783745 
L 394.494545 264.184024 
L 395.293091 265.308355 
L 396.091636 266.117629 
L 397.156364 266.855901 
L 404.609455 270.941348 
L 406.472727 271.473189 
L 410.465455 272.356313 
L 411.264 272.808387 
L 412.062545 273.479577 
L 412.861091 274.403678 
L 413.925818 276.044431 
L 414.990545 278.115395 
L 416.587636 281.812697 
L 420.048 290.123865 
L 421.378909 292.665645 
L 422.443636 294.23337 
L 423.242182 295.095298 
L 424.040727 295.674497 
L 424.839273 295.980613 
L 425.637818 296.048727 
L 426.436364 295.937402 
L 426.436364 295.937402 
" clip-path="url(#pe8092c36aa)" style="fill: none; stroke: #ffa500; stroke-width: 3; stroke-linecap: square"/>
   </g>
   <g id="patch_3">
    <path d="M 7.2 331.2 
L 7.2 7.2 
" style="fill: none; stroke: #000000; stroke-width: 0.8; stroke-linejoin: miter; stroke-linecap: square"/>
   </g>
   <g id="patch_4">
    <path d="M 446.4 331.2 
L 446.4 7.2 
" style="fill: none; stroke: #000000; stroke-width: 0.8; stroke-linejoin: miter; stroke-linecap: square"/>
   </g>
   <g id="patch_5">
    <path d="M 7.2 331.2 
L 446.4 331.2 
" style="fill: none; stroke: #000000; stroke-width: 0.8; stroke-linejoin: miter; stroke-linecap: square"/>
   </g>
   <g id="patch_6">
    <path d="M 7.2 7.2 
L 446.4 7.2 
" style="fill: none; stroke: #000000; stroke-width: 0.8; stroke-linejoin: miter; stroke-linecap: square"/>
   </g>
  </g>
 </g>
 <defs>
  <clipPath id="pe8092c36aa">
   <rect x="7.2" y="7.2" width="439.2" height="324"/>
  </clipPath>
 </defs>
</svg>
