<?xml version="1.0" encoding="utf-8" standalone="no"?>
<!DOCTYPE svg PUBLIC "-//W3C//DTD SVG 1.1//EN"
  "http://www.w3.org/Graphics/SVG/1.1/DTD/svg11.dtd">
<svg xmlns:xlink="http://www.w3.org/1999/xlink" width="453.6pt" height="338.4pt" viewBox="0 0 453.6 338.4" xmlns="http://www.w3.org/2000/svg" version="1.1">
 <metadata>
  <rdf:RDF xmlns:dc="http://purl.org/dc/elements/1.1/" xmlns:cc="http://creativecommons.org/ns#" xmlns:rdf="http://www.w3.org/1999/02/22-rdf-syntax-ns#">
   <cc:Work>
    <dc:type rdf:resource="http://purl.org/dc/dcmitype/StillImage"/>
    <dc:date>2025-05-14T16:04:44.691595</dc:date>
    <dc:format>image/svg+xml</dc:format>
    <dc:creator>
     <cc:Agent>
      <dc:title>Matplotlib v3.10.1, https://matplotlib.org/</dc:title>
     </cc:Agent>
    </dc:creator>
   </cc:Work>
  </rdf:RDF>
 </metadata>
 <defs>
  <style type="text/css">*{stroke-linejoin: round; stroke-linecap: butt}</style>
 </defs>
 <g id="figure_1">
  <g id="patch_1">
   <path d="M 0 338.4 
L 453.6 338.4 
L 453.6 0 
L 0 0 
z
" style="fill: #ffffff"/>
  </g>
  <g id="axes_1">
   <g id="patch_2">
    <path d="M 7.2 331.2 
L 446.4 331.2 
L 446.4 7.2 
L 7.2 7.2 
z
" style="fill: #ffffff"/>
   </g>
   <g id="matplotlib.axis_1"/>
   <g id="matplotlib.axis_2"/>
   <g id="line2d_1">
    <path d="M 27.163636 316.472595 
L 31.422545 304.233542 
L 35.681455 291.320918 
L 39.940364 277.697789 
L 44.199273 263.325066 
L 48.458182 248.161494 
L 52.717091 232.163595 
L 56.976 215.28543 
L 61.234909 197.478554 
L 65.493818 178.691889 
L 69.752727 158.871554 
L 74.011636 137.960589 
L 77.205818 121.975388 
L 80.932364 115.26515 
L 84.658909 109.004266 
L 88.385455 103.16266 
L 92.112 97.712279 
L 96.104727 92.276978 
L 100.097455 87.230725 
L 104.090182 82.545657 
L 108.082909 78.195914 
L 112.075636 74.157548 
L 116.334545 70.168025 
L 120.593455 66.482365 
L 124.852364 63.077396 
L 129.377455 59.743336 
L 133.902545 56.678396 
L 138.693818 53.702414 
L 143.485091 50.98019 
L 148.542545 48.358143 
L 153.866182 45.851984 
L 159.456 43.474443 
L 165.312 41.235069 
L 171.434182 39.140641 
L 177.822545 37.195107 
L 184.477091 35.399925 
L 191.664 33.69514 
L 199.383273 32.100925 
L 207.634909 30.631815 
L 216.418909 29.296889 
L 226.001455 28.06902 
L 236.382545 26.963993 
L 247.828364 25.969114 
L 260.605091 25.082171 
L 275.245091 24.294034 
L 292.014545 23.619276 
L 311.978182 23.047521 
L 336.200727 22.586318 
L 367.077818 22.232295 
L 408.602182 21.986771 
L 426.436364 21.927273 
L 426.436364 21.927273 
" clip-path="url(#p4b7dd54cef)" style="fill: none; stroke-dasharray: 11.1,4.8; stroke-dashoffset: 0; stroke: #000000; stroke-width: 3"/>
   </g>
   <g id="line2d_2">
    <path d="M 27.163636 293.545754 
L 29.825455 229.615846 
L 31.422545 196.653699 
L 32.753455 173.843609 
L 33.818182 158.951225 
L 34.882909 147.037184 
L 35.947636 137.930883 
L 36.746182 132.722375 
L 37.544727 128.685291 
L 38.343273 125.577532 
L 39.408 122.407465 
L 40.472727 119.703272 
L 40.738909 125.860539 
L 41.803636 167.689651 
L 42.868364 200.137163 
L 43.666909 218.505312 
L 43.933091 221.80181 
L 45.796364 231.697608 
L 47.127273 237.800881 
L 47.925818 240.812371 
L 48.724364 243.125731 
L 49.522909 244.615359 
L 50.055273 245.098525 
L 50.321455 245.156329 
L 50.853818 244.916897 
L 51.386182 244.133439 
L 51.918545 242.811873 
L 52.450909 240.83134 
L 53.249455 236.675093 
L 54.048 230.871936 
L 54.846545 223.350853 
L 55.645091 213.936203 
L 56.709818 198.291041 
L 57.774545 178.759463 
L 58.839273 155.139002 
L 59.904 127.164093 
L 60.170182 119.461627 
L 60.436364 116.945497 
L 61.767273 129.755469 
L 63.364364 145.547938 
L 64.162909 151.929943 
L 64.961455 156.526352 
L 65.493818 158.375783 
L 65.76 158.887741 
L 66.026182 159.128561 
L 66.292364 159.093782 
L 66.558545 158.780753 
L 66.824727 158.161842 
L 67.357091 156.054439 
L 67.889455 152.824611 
L 68.688 145.955524 
L 69.486545 136.886408 
L 70.551273 122.028653 
L 72.148364 95.955861 
L 74.810182 52.046962 
L 75.874909 37.406397 
L 76.141091 35.51764 
L 76.407273 34.731259 
L 76.939636 36.321103 
L 77.205818 37.911526 
L 78.004364 46.364557 
L 79.069091 60.347974 
L 80.4 81.287855 
L 81.997091 110.221952 
L 84.126545 153.306759 
L 86.788364 211.827984 
L 88.917818 261.211483 
L 89.184 263.084501 
L 90.248727 218.676503 
L 91.313455 184.146905 
L 92.112 164.168757 
L 92.910545 148.983631 
L 93.709091 138.361767 
L 94.507636 134.305003 
L 95.04 132.328236 
L 95.572364 130.961902 
L 96.104727 130.203488 
L 96.370909 130.00677 
L 96.637091 129.993761 
L 97.169455 130.361828 
L 97.701818 131.350422 
L 98.234182 132.884138 
L 99.032727 136.298413 
L 99.831273 141.045033 
L 100.629818 147.160622 
L 101.694545 157.486575 
L 102.759273 170.371609 
L 103.824 185.907677 
L 105.154909 209.201144 
L 106.485818 236.976307 
L 107.816727 269.357723 
L 108.615273 291.049254 
L 108.881455 294.466456 
L 109.147636 289.872817 
L 110.212364 255.131823 
L 110.478545 250.651685 
L 111.010909 247.739182 
L 111.543273 243.636276 
L 112.341818 235.680249 
L 113.406545 222.783566 
L 115.802182 192.85294 
L 116.600727 185.40404 
L 117.133091 181.73189 
L 117.665455 179.304989 
L 117.931636 178.619627 
L 118.197818 178.28669 
L 118.464 178.313964 
L 118.730182 178.70711 
L 118.996364 179.492288 
L 119.528727 182.250889 
L 120.061091 186.543021 
L 120.859636 195.744248 
L 121.658182 207.908308 
L 122.722909 227.608795 
L 124.586182 264.764856 
L 124.852364 260.902133 
L 125.650909 228.4195 
L 126.449455 204.505919 
L 126.981818 193.216408 
L 127.514182 185.961303 
L 128.046545 181.842223 
L 128.312727 180.758061 
L 128.578909 180.239317 
L 128.845091 180.206689 
L 129.111273 180.642444 
L 129.643636 182.637873 
L 130.176 185.885776 
L 130.974545 192.524963 
L 132.039273 203.538656 
L 133.902545 225.703921 
L 137.362909 267.923959 
L 137.629091 265.784801 
L 138.693818 240.831832 
L 139.758545 221.962134 
L 140.557091 211.449796 
L 141.355636 203.910323 
L 141.888 200.458495 
L 142.420364 198.25125 
L 142.686545 197.609954 
L 142.952727 197.273936 
L 143.218909 197.251692 
L 143.485091 197.541739 
L 143.751273 198.403059 
L 144.283636 202.506224 
L 145.082182 211.888369 
L 146.679273 232.043554 
L 147.211636 236.921461 
L 147.744 240.143239 
L 148.010182 241.040927 
L 148.276364 241.368694 
L 148.542545 241.159019 
L 148.808727 240.307391 
L 149.074909 238.871498 
L 149.607273 233.920127 
L 150.139636 226.071172 
L 150.938182 206.260265 
L 151.470545 196.961144 
L 152.002909 190.61448 
L 152.535273 186.876634 
L 152.801455 185.954271 
L 153.067636 185.544868 
L 153.333818 185.62057 
L 153.6 186.240579 
L 154.132364 188.730138 
L 154.664727 192.855969 
L 155.463273 201.517876 
L 156.528 216.643346 
L 159.988364 270.524096 
L 160.254545 273.129259 
L 160.786909 275.472087 
L 161.319273 276.944063 
L 161.585455 277.323454 
L 161.851636 277.467305 
L 162.117818 277.372146 
L 162.384 277.035338 
L 162.650182 276.455221 
L 162.916364 273.747582 
L 163.448727 259.462 
L 164.779636 223.069558 
L 166.110545 193.654472 
L 167.175273 174.423835 
L 168.24 158.446903 
L 169.304727 145.331328 
L 170.369455 134.583533 
L 171.434182 125.897951 
L 172.498909 118.981972 
L 173.563636 113.557785 
L 174.628364 109.450739 
L 175.426909 107.127851 
L 176.225455 105.417817 
L 176.757818 104.591144 
L 177.024 102.555178 
L 177.822545 92.819871 
L 178.621091 85.260524 
L 179.419636 79.366145 
L 180.484364 73.330964 
L 181.549091 68.69551 
L 182.88 64.041095 
L 184.743273 58.532883 
L 186.606545 53.493986 
L 186.872727 53.233732 
L 187.405091 53.657645 
L 188.203636 54.595203 
L 189.534545 56.57578 
L 191.664 59.679273 
L 192.728727 60.87008 
L 193.527273 61.516871 
L 194.325818 69.367652 
L 195.922909 88.139859 
L 197.253818 103.130936 
L 198.052364 110.396637 
L 198.850909 115.718945 
L 199.383273 117.996802 
L 199.915636 119.175249 
L 200.181818 119.312188 
L 200.448 119.16008 
L 200.714182 118.717417 
L 201.246545 116.96358 
L 201.778909 114.077538 
L 202.577455 107.768216 
L 203.376 99.414922 
L 204.440727 85.817655 
L 207.368727 45.869137 
L 207.634909 43.655255 
L 208.167273 42.407811 
L 208.433455 42.269766 
L 208.965818 44.076096 
L 209.498182 45.24703 
L 210.030545 45.761499 
L 210.296727 49.53652 
L 211.627636 82.777452 
L 212.958545 109.939436 
L 214.555636 137.803267 
L 218.282182 200.820444 
L 219.879273 230.37548 
L 220.411636 235.445162 
L 220.944 238.750842 
L 221.476364 240.448429 
L 221.742545 240.736852 
L 222.008727 240.691162 
L 222.274909 240.288193 
L 222.807273 238.604704 
L 223.339636 235.793391 
L 224.138182 229.781507 
L 224.936727 221.997186 
L 226.001455 209.506377 
L 226.8 199.046505 
L 228.130909 167.330397 
L 229.994182 116.692774 
L 231.857455 65.836417 
L 232.123636 72.801431 
L 232.922182 104.897256 
L 233.720727 128.007145 
L 234.519273 144.240522 
L 235.317818 155.131699 
L 235.850182 160.072808 
L 236.382545 163.548476 
L 236.914909 165.848858 
L 237.447273 167.226657 
L 237.979636 167.899712 
L 238.512 168.053593 
L 239.044364 167.831611 
L 239.842909 167.122478 
L 241.173818 165.870873 
L 241.706182 165.611234 
L 242.238545 165.617343 
L 242.770909 165.935428 
L 243.303273 166.652321 
L 243.569455 167.333259 
L 244.101818 169.790953 
L 244.634182 173.360943 
L 245.432727 180.757842 
L 246.231273 190.399582 
L 247.296 206.240515 
L 248.893091 234.585027 
L 251.288727 282.186145 
L 251.554909 281.152675 
L 252.619636 268.538459 
L 253.950545 255.661777 
L 255.547636 243.098632 
L 257.410909 230.817143 
L 259.540364 218.309797 
L 260.605091 211.758654 
L 263.000727 196.504119 
L 264.065455 190.901068 
L 264.864 187.50859 
L 265.662545 184.940774 
L 266.194909 183.71876 
L 266.727273 182.909398 
L 267.259636 182.510134 
L 267.792 182.500802 
L 268.324364 182.843097 
L 268.856727 183.480627 
L 269.655273 184.822032 
L 270.986182 187.129102 
L 271.518545 187.616798 
L 271.784727 187.656844 
L 272.050909 187.538927 
L 272.317091 187.199011 
L 272.583273 186.629003 
L 273.115636 184.595275 
L 273.381818 183.047689 
L 273.648 184.147792 
L 274.978909 222.81745 
L 275.777455 238.250761 
L 276.309818 244.665166 
L 276.842182 247.836251 
L 277.108364 248.092968 
L 277.374545 247.417253 
L 277.640727 245.878603 
L 278.173091 240.434331 
L 278.705455 232.096118 
L 279.504 214.873744 
L 280.568727 184.678228 
L 281.899636 138.16777 
L 283.762909 62.756502 
L 284.029091 51.402875 
L 284.561455 55.574545 
L 286.424727 73.55909 
L 288.288 91.076392 
L 289.618909 101.83207 
L 290.949818 110.678309 
L 292.014545 116.340051 
L 293.079273 120.833211 
L 293.345455 121.7671 
L 293.877818 126.964249 
L 294.410182 129.860052 
L 294.676364 130.409809 
L 294.942545 130.392042 
L 295.208727 129.822692 
L 295.474909 128.635221 
L 296.007273 124.649683 
L 296.539636 118.51034 
L 297.338182 105.494748 
L 298.136727 88.113981 
L 298.669091 74.206267 
L 298.935273 71.770527 
L 299.467636 95.074764 
L 300.532364 140.038953 
L 301.597091 174.963234 
L 302.661818 201.76685 
L 303.460364 217.363627 
L 304.258909 229.40546 
L 305.057455 238.11793 
L 305.589818 242.09519 
L 306.122182 244.590113 
L 306.388364 245.293874 
L 306.654545 245.628334 
L 306.920727 245.567747 
L 307.186909 245.164453 
L 307.719273 243.196671 
L 308.251636 239.75694 
L 308.784 234.870045 
L 309.582545 225.090496 
L 310.114909 218.012771 
L 311.712 202.981727 
L 311.978182 203.088759 
L 312.510545 206.972418 
L 313.042909 209.488356 
L 313.575273 210.759843 
L 313.841455 210.989417 
L 314.107636 210.970773 
L 314.373818 210.720543 
L 314.906182 209.591139 
L 315.438545 207.718024 
L 316.237091 203.818521 
L 317.568 195.590455 
L 319.165091 185.66418 
L 319.963636 181.972402 
L 320.496 180.416855 
L 320.762182 179.992844 
L 321.028364 179.829887 
L 321.294545 179.95451 
L 321.560727 180.440213 
L 321.826909 181.287725 
L 322.359273 184.163531 
L 322.891636 188.987777 
L 323.424 195.985674 
L 323.956364 205.528256 
L 324.754909 225.542816 
L 325.553455 252.335438 
L 325.819636 252.866831 
L 327.949091 225.212504 
L 329.812364 198.444755 
L 331.941818 168.163161 
L 333.272727 152.307543 
L 334.337455 142.313668 
L 335.136 136.633633 
L 335.934545 132.536419 
L 336.466909 130.654298 
L 336.999273 129.451676 
L 337.531636 128.810345 
L 338.064 128.729358 
L 338.596364 129.119721 
L 339.128727 129.871622 
L 339.927273 131.474159 
L 342.322909 136.760617 
L 342.855273 137.428844 
L 344.452364 138.832626 
L 345.250909 140.237901 
L 345.783273 141.516033 
L 346.581818 143.978529 
L 347.380364 147.245752 
L 348.178909 151.359908 
L 348.977455 156.432707 
L 350.042182 164.958526 
L 350.840727 172.68213 
L 351.905455 185.026247 
L 353.236364 203.469844 
L 354.567273 195.143209 
L 355.365818 191.129581 
L 356.430545 186.970797 
L 357.229091 184.622294 
L 358.027636 182.919458 
L 358.826182 181.716046 
L 359.358545 181.160609 
L 360.423273 180.34253 
L 360.689455 180.538353 
L 361.221818 181.59417 
L 361.754182 183.365616 
L 362.552727 186.975099 
L 364.149818 195.706889 
L 365.480727 202.65885 
L 366.279273 206.041892 
L 367.077818 208.530713 
L 367.610182 209.58474 
L 368.142545 210.079177 
L 368.408727 210.075525 
L 368.674909 209.905686 
L 368.941091 209.561635 
L 369.473455 208.317124 
L 370.005818 206.272625 
L 370.538182 203.329473 
L 371.336727 196.990911 
L 372.135273 188.137833 
L 372.933818 176.371046 
L 373.732364 161.13663 
L 374.264727 150.160937 
L 374.797091 144.928903 
L 375.329455 141.748882 
L 375.861818 139.72352 
L 376.128 139.131715 
L 376.394182 138.813385 
L 376.660364 138.740842 
L 377.192727 139.000394 
L 377.725091 139.644429 
L 378.257455 140.680284 
L 379.056 142.974995 
L 379.854545 146.097835 
L 380.653091 149.991572 
L 381.717818 156.258197 
L 383.048727 165.4938 
L 386.775273 192.764492 
L 387.573818 196.771905 
L 388.106182 198.536118 
L 388.372364 199.07456 
L 388.638545 199.350369 
L 388.904727 199.335894 
L 389.170909 199.002483 
L 389.437091 198.319456 
L 389.969455 195.776447 
L 390.501818 191.379231 
L 391.034182 184.77614 
L 391.566545 175.68047 
L 392.897455 147.942403 
L 393.163636 144.686082 
L 394.760727 138.935401 
L 395.293091 137.619733 
L 395.825455 136.948083 
L 396.091636 136.859318 
L 396.357818 136.960776 
L 396.624 137.268942 
L 397.156364 138.558345 
L 397.688727 140.809007 
L 398.221091 144.065626 
L 399.019636 150.852093 
L 399.818182 159.884955 
L 400.882909 174.936496 
L 402.48 201.79451 
L 404.343273 233.262364 
L 405.408 247.601164 
L 406.206545 255.088284 
L 406.472727 256.821001 
L 406.738909 256.772106 
L 407.271273 245.483152 
L 409.666909 191.71058 
L 409.933091 188.86964 
L 410.199273 188.456796 
L 410.731636 186.904154 
L 411.264 184.453526 
L 412.062545 179.274652 
L 412.861091 172.603671 
L 414.192 159.151243 
L 417.386182 125.415681 
L 418.450909 117.100764 
L 419.249455 112.616224 
L 419.781818 110.549376 
L 420.314182 109.241521 
L 420.846545 108.680756 
L 421.112727 108.668853 
L 421.378909 108.825718 
L 421.911273 109.602935 
L 422.443636 110.967022 
L 423.242182 113.737298 
L 425.371636 122.220508 
L 425.904 123.690969 
L 426.436364 124.64647 
L 426.436364 124.64647 
" clip-path="url(#p4b7dd54cef)" style="fill: none; stroke: #ff0000; stroke-width: 3; stroke-linecap: square"/>
   </g>
   <g id="patch_3">
    <path d="M 7.2 331.2 
L 7.2 7.2 
" style="fill: none; stroke: #000000; stroke-width: 0.8; stroke-linejoin: miter; stroke-linecap: square"/>
   </g>
   <g id="patch_4">
    <path d="M 446.4 331.2 
L 446.4 7.2 
" style="fill: none; stroke: #000000; stroke-width: 0.8; stroke-linejoin: miter; stroke-linecap: square"/>
   </g>
   <g id="patch_5">
    <path d="M 7.2 331.2 
L 446.4 331.2 
" style="fill: none; stroke: #000000; stroke-width: 0.8; stroke-linejoin: miter; stroke-linecap: square"/>
   </g>
   <g id="patch_6">
    <path d="M 7.2 7.2 
L 446.4 7.2 
" style="fill: none; stroke: #000000; stroke-width: 0.8; stroke-linejoin: miter; stroke-linecap: square"/>
   </g>
  </g>
 </g>
 <defs>
  <clipPath id="p4b7dd54cef">
   <rect x="7.2" y="7.2" width="439.2" height="324"/>
  </clipPath>
 </defs>
</svg>
