<?xml version="1.0" encoding="utf-8" standalone="no"?>
<!DOCTYPE svg PUBLIC "-//W3C//DTD SVG 1.1//EN"
  "http://www.w3.org/Graphics/SVG/1.1/DTD/svg11.dtd">
<svg xmlns:xlink="http://www.w3.org/1999/xlink" width="453.6pt" height="338.4pt" viewBox="0 0 453.6 338.4" xmlns="http://www.w3.org/2000/svg" version="1.1">
 <metadata>
  <rdf:RDF xmlns:dc="http://purl.org/dc/elements/1.1/" xmlns:cc="http://creativecommons.org/ns#" xmlns:rdf="http://www.w3.org/1999/02/22-rdf-syntax-ns#">
   <cc:Work>
    <dc:type rdf:resource="http://purl.org/dc/dcmitype/StillImage"/>
    <dc:date>2025-05-14T16:12:45.427348</dc:date>
    <dc:format>image/svg+xml</dc:format>
    <dc:creator>
     <cc:Agent>
      <dc:title>Matplotlib v3.10.1, https://matplotlib.org/</dc:title>
     </cc:Agent>
    </dc:creator>
   </cc:Work>
  </rdf:RDF>
 </metadata>
 <defs>
  <style type="text/css">*{stroke-linejoin: round; stroke-linecap: butt}</style>
 </defs>
 <g id="figure_1">
  <g id="patch_1">
   <path d="M 0 338.4 
L 453.6 338.4 
L 453.6 0 
L 0 0 
z
" style="fill: #ffffff"/>
  </g>
  <g id="axes_1">
   <g id="patch_2">
    <path d="M 7.2 331.2 
L 446.4 331.2 
L 446.4 7.2 
L 7.2 7.2 
z
" style="fill: #ffffff"/>
   </g>
   <g id="matplotlib.axis_1"/>
   <g id="matplotlib.axis_2"/>
   <g id="line2d_1">
    <path d="M 27.163636 316.47258 
L 226.8 169.2 
L 426.436364 316.472727 
L 426.436364 316.472727 
" clip-path="url(#p13819f24f4)" style="fill: none; stroke-dasharray: 11.1,4.8; stroke-dashoffset: 0; stroke: #000000; stroke-width: 3"/>
   </g>
   <g id="line2d_2">
    <path d="M 27.163636 235.576369 
L 28.760727 240.588037 
L 30.091636 244.072571 
L 31.422545 246.961062 
L 32.753455 249.284964 
L 33.818182 250.756448 
L 34.882909 251.903909 
L 35.947636 252.744284 
L 37.012364 253.294524 
L 38.077091 253.571777 
L 39.141818 253.593336 
L 40.206545 253.37667 
L 41.271273 252.939378 
L 42.602182 252.109194 
L 43.933091 250.997109 
L 44.465455 250.085877 
L 46.861091 245.351458 
L 49.256727 241.106491 
L 51.918545 236.845249 
L 55.112727 232.176807 
L 60.968727 224.089867 
L 62.565818 224.110461 
L 64.162909 224.328247 
L 66.026182 224.825019 
L 67.889455 225.582669 
L 69.752727 226.600994 
L 71.616 227.879934 
L 73.479273 229.419742 
L 75.608727 231.49945 
L 78.536727 234.472746 
L 80.4 235.683884 
L 82.263273 236.6489 
L 84.126545 237.382313 
L 85.989818 237.898626 
L 88.119273 238.241412 
L 90.248727 238.341017 
L 92.378182 238.219142 
L 94.507636 238.036785 
L 97.169455 238.652527 
L 99.565091 239.002196 
L 101.960727 239.118673 
L 104.090182 238.995419 
L 106.219636 238.630362 
L 108.082909 238.090507 
L 109.946182 237.325659 
L 110.478545 237.01996 
L 111.277091 235.936018 
L 113.406545 233.065751 
L 115.802182 230.204148 
L 118.464 227.382661 
L 121.658182 224.338666 
L 127.248 219.386321 
L 130.708364 216.76703 
L 134.434909 214.225109 
L 138.427636 211.764351 
L 142.952727 209.225652 
L 143.485091 209.084719 
L 145.880727 209.225837 
L 148.276364 209.588233 
L 150.672 210.188965 
L 152.801455 210.937574 
L 154.930909 211.900676 
L 157.060364 213.090798 
L 159.189818 214.520766 
L 159.456 214.717019 
L 161.319273 217.271088 
L 165.045818 222.111688 
L 170.103273 228.676857 
L 172.765091 232.531531 
L 174.894545 235.988801 
L 175.426909 236.846092 
L 176.225455 237.54247 
L 177.024 238.001154 
L 177.822545 238.253254 
L 178.621091 238.305659 
L 179.419636 238.164199 
L 180.218182 237.834615 
L 181.282909 237.112578 
L 182.347636 236.077118 
L 183.412364 234.744921 
L 184.743273 232.684411 
L 186.074182 230.20967 
L 187.671273 226.729699 
L 189.534545 222.025521 
L 191.397818 216.985966 
L 193.527273 214.545134 
L 195.922909 212.181014 
L 198.318545 210.117406 
L 200.980364 208.131931 
L 203.642182 206.422011 
L 206.570182 204.800786 
L 208.433455 203.752421 
L 211.893818 201.470737 
L 214.555636 199.961942 
L 216.951273 198.853114 
L 219.080727 198.115513 
L 220.944 197.696261 
L 222.807273 197.517924 
L 224.404364 197.578967 
L 226.267636 197.888432 
L 231.325091 198.981661 
L 235.850182 199.878251 
L 238.778182 200.2323 
L 241.173818 200.307318 
L 241.706182 200.219185 
L 242.238545 199.604646 
L 244.368 196.918904 
L 246.497455 194.607084 
L 248.360727 192.919795 
L 249.957818 191.748036 
L 251.554909 190.851551 
L 252.885818 190.33099 
L 254.216727 190.029224 
L 255.547636 189.958244 
L 256.878545 190.130875 
L 258.209455 190.560152 
L 259.008 190.955774 
L 261.403636 193.150247 
L 263.799273 195.658021 
L 265.928727 198.193112 
L 268.058182 201.05561 
L 270.187636 204.284763 
L 272.317091 207.919386 
L 274.446545 212.001519 
L 276.309818 216.004008 
L 277.906909 219.628598 
L 279.237818 222.051952 
L 280.302545 223.577988 
L 281.367273 224.738317 
L 282.432 225.533599 
L 283.230545 225.891308 
L 284.029091 226.044829 
L 284.827636 225.994899 
L 285.626182 225.742326 
L 286.424727 225.287925 
L 287.489455 224.369609 
L 288.554182 223.096226 
L 289.618909 221.469874 
L 290.949818 218.944719 
L 292.280727 215.878015 
L 293.079273 214.144289 
L 294.410182 212.833511 
L 295.741091 211.892793 
L 296.805818 211.383485 
L 297.870545 211.072616 
L 299.201455 210.938012 
L 300.532364 211.055868 
L 301.863273 211.394388 
L 303.460364 212.047297 
L 305.323636 213.081142 
L 307.719273 214.706854 
L 309.848727 216.334461 
L 310.647273 217.457238 
L 318.366545 228.789885 
L 321.028364 232.209549 
L 323.157818 234.578409 
L 325.021091 236.311854 
L 326.884364 237.956877 
L 331.941818 244.277826 
L 339.927273 253.832176 
L 342.855273 257.221108 
L 343.387636 257.266561 
L 344.452364 257.14171 
L 345.517091 256.831429 
L 346.581818 256.325347 
L 347.646545 255.61581 
L 348.977455 254.429423 
L 350.308364 252.894728 
L 351.639273 250.995643 
L 352.970182 248.716189 
L 354.301091 246.041086 
L 355.898182 242.288204 
L 357.495273 237.919579 
L 359.092364 233.002522 
L 361.488 232.023953 
L 368.674909 229.329354 
L 370.538182 228.309949 
L 372.135273 227.21657 
L 373.732364 225.87089 
L 375.329455 224.226297 
L 376.128 223.463898 
L 377.192727 222.813552 
L 378.257455 222.481598 
L 379.056 222.434644 
L 380.120727 222.634206 
L 381.185455 223.124957 
L 382.250182 223.897653 
L 383.314909 224.942971 
L 384.645818 226.618472 
L 385.976727 228.68654 
L 387.573818 231.659546 
L 389.170909 235.13726 
L 391.034182 239.788304 
L 392.631273 243.799865 
L 394.760727 246.356366 
L 397.156364 248.900087 
L 399.552 251.136752 
L 401.947636 253.094962 
L 404.609455 254.97886 
L 407.271273 256.592839 
L 409.400727 257.671348 
L 410.199273 257.605055 
L 412.594909 257.133349 
L 414.724364 256.491206 
L 416.853818 255.611347 
L 418.983273 254.469574 
L 421.112727 253.041389 
L 422.976 251.537421 
L 425.105455 249.507336 
L 426.436364 248.061208 
L 426.436364 248.061208 
" clip-path="url(#p13819f24f4)" style="fill: none; stroke: #0000ff; stroke-width: 3; stroke-linecap: square"/>
   </g>
   <g id="patch_3">
    <path d="M 7.2 331.2 
L 7.2 7.2 
" style="fill: none; stroke: #000000; stroke-width: 0.8; stroke-linejoin: miter; stroke-linecap: square"/>
   </g>
   <g id="patch_4">
    <path d="M 446.4 331.2 
L 446.4 7.2 
" style="fill: none; stroke: #000000; stroke-width: 0.8; stroke-linejoin: miter; stroke-linecap: square"/>
   </g>
   <g id="patch_5">
    <path d="M 7.2 331.2 
L 446.4 331.2 
" style="fill: none; stroke: #000000; stroke-width: 0.8; stroke-linejoin: miter; stroke-linecap: square"/>
   </g>
   <g id="patch_6">
    <path d="M 7.2 7.2 
L 446.4 7.2 
" style="fill: none; stroke: #000000; stroke-width: 0.8; stroke-linejoin: miter; stroke-linecap: square"/>
   </g>
  </g>
 </g>
 <defs>
  <clipPath id="p13819f24f4">
   <rect x="7.2" y="7.2" width="439.2" height="324"/>
  </clipPath>
 </defs>
</svg>
