<?xml version="1.0" encoding="utf-8" standalone="no"?>
<!DOCTYPE svg PUBLIC "-//W3C//DTD SVG 1.1//EN"
  "http://www.w3.org/Graphics/SVG/1.1/DTD/svg11.dtd">
<svg xmlns:xlink="http://www.w3.org/1999/xlink" width="453.6pt" height="338.4pt" viewBox="0 0 453.6 338.4" xmlns="http://www.w3.org/2000/svg" version="1.1">
 <metadata>
  <rdf:RDF xmlns:dc="http://purl.org/dc/elements/1.1/" xmlns:cc="http://creativecommons.org/ns#" xmlns:rdf="http://www.w3.org/1999/02/22-rdf-syntax-ns#">
   <cc:Work>
    <dc:type rdf:resource="http://purl.org/dc/dcmitype/StillImage"/>
    <dc:date>2025-05-14T16:00:09.843399</dc:date>
    <dc:format>image/svg+xml</dc:format>
    <dc:creator>
     <cc:Agent>
      <dc:title>Matplotlib v3.10.1, https://matplotlib.org/</dc:title>
     </cc:Agent>
    </dc:creator>
   </cc:Work>
  </rdf:RDF>
 </metadata>
 <defs>
  <style type="text/css">*{stroke-linejoin: round; stroke-linecap: butt}</style>
 </defs>
 <g id="figure_1">
  <g id="patch_1">
   <path d="M 0 338.4 
L 453.6 338.4 
L 453.6 0 
L 0 0 
z
" style="fill: #ffffff"/>
  </g>
  <g id="axes_1">
   <g id="patch_2">
    <path d="M 7.2 331.2 
L 446.4 331.2 
L 446.4 7.2 
L 7.2 7.2 
z
" style="fill: #ffffff"/>
   </g>
   <g id="matplotlib.axis_1"/>
   <g id="matplotlib.axis_2"/>
   <g id="line2d_1">
    <path d="M 27.163636 169.2 
L 77.205818 169.256101 
L 426.436364 316.472727 
L 426.436364 316.472727 
" clip-path="url(#p8d9e39e5cc)" style="fill: none; stroke-dasharray: 11.1,4.8; stroke-dashoffset: 0; stroke: #000000; stroke-width: 3"/>
   </g>
   <g id="line2d_2">
    <path d="M 27.163636 207.575459 
L 29.559273 219.101041 
L 30.357818 221.757261 
L 30.890182 222.998148 
L 31.422545 223.824522 
L 31.954909 224.283294 
L 32.487273 224.444443 
L 33.019636 224.388561 
L 33.818182 224.067711 
L 35.947636 223.059569 
L 37.278545 222.721628 
L 38.609455 222.594643 
L 39.940364 222.672233 
L 41.271273 222.991108 
L 42.868364 223.653173 
L 44.997818 224.555951 
L 46.062545 224.775659 
L 47.127273 224.754732 
L 48.192 224.503291 
L 49.789091 223.834081 
L 53.515636 222.124785 
L 55.378909 221.542768 
L 57.508364 220.913024 
L 58.573091 220.360642 
L 59.637818 219.510795 
L 60.968727 218.064404 
L 63.098182 215.665444 
L 64.162909 214.854879 
L 64.961455 214.486988 
L 66.026182 214.249302 
L 67.889455 213.944095 
L 68.688 213.533682 
L 69.220364 213.050217 
L 69.752727 212.335536 
L 70.285091 211.333108 
L 71.083636 209.172834 
L 71.882182 206.097712 
L 72.680727 202.044371 
L 73.745455 195.24795 
L 77.205818 171.071543 
L 78.004364 167.482101 
L 78.536727 165.787657 
L 79.069091 164.634894 
L 79.601455 163.967984 
L 80.133818 163.703411 
L 80.666182 163.741508 
L 81.464727 164.140228 
L 83.061818 165.106052 
L 83.860364 165.314164 
L 84.658909 165.26009 
L 85.457455 164.971026 
L 86.522182 164.330854 
L 89.184 162.591765 
L 90.248727 162.25644 
L 91.047273 162.225453 
L 91.845818 162.378719 
L 92.910545 162.802106 
L 95.572364 163.99646 
L 96.637091 164.200587 
L 97.968 164.190334 
L 99.831273 163.899637 
L 103.025455 163.394771 
L 104.356364 163.391909 
L 105.687273 163.607483 
L 107.018182 164.048304 
L 108.615273 164.841198 
L 110.212364 165.903563 
L 112.075636 167.444495 
L 117.665455 172.313711 
L 118.730182 172.812529 
L 119.528727 172.926548 
L 120.327273 172.769665 
L 121.125818 172.334199 
L 122.190545 171.396826 
L 124.053818 169.556147 
L 124.586182 169.233901 
L 125.118545 169.111551 
L 125.650909 169.247578 
L 126.183273 169.693533 
L 126.715636 170.489526 
L 127.248 171.659231 
L 128.046545 174.115073 
L 128.845091 177.324887 
L 130.176 183.765083 
L 132.039273 192.821234 
L 133.104 196.99695 
L 134.168727 200.194027 
L 134.967273 202.008662 
L 136.032 203.817423 
L 137.096727 205.112568 
L 138.161455 206.033192 
L 139.226182 206.652964 
L 140.290909 207.012473 
L 141.355636 207.151185 
L 142.686545 207.092038 
L 145.082182 206.687875 
L 146.945455 206.457352 
L 148.542545 206.500198 
L 150.405818 206.805072 
L 153.333818 207.294216 
L 158.657455 207.943034 
L 161.585455 208.46622 
L 162.916364 208.431494 
L 164.247273 208.164384 
L 167.973818 207.240731 
L 169.038545 207.259288 
L 170.103273 207.491206 
L 171.168 207.937873 
L 172.765091 208.899869 
L 174.628364 210.026271 
L 175.693091 210.436377 
L 176.757818 210.605918 
L 178.088727 210.564134 
L 179.952 210.483059 
L 181.282909 210.677864 
L 183.146182 211.247293 
L 185.275636 211.855521 
L 189.002182 212.803718 
L 190.333091 213.454766 
L 191.397818 214.249732 
L 192.462545 215.372403 
L 193.527273 216.838712 
L 197.253818 222.502885 
L 198.052364 223.232831 
L 198.850909 223.688031 
L 199.649455 223.891903 
L 200.448 223.891086 
L 201.512727 223.665839 
L 203.109818 223.07105 
L 208.433455 220.900822 
L 209.764364 220.626093 
L 211.095273 220.570773 
L 213.757091 220.800839 
L 215.620364 220.797504 
L 220.145455 220.535099 
L 222.807273 220.58071 
L 224.138182 220.3381 
L 225.202909 219.926677 
L 226.533818 219.129069 
L 227.864727 218.051886 
L 229.728 216.199041 
L 234.253091 211.443036 
L 235.317818 210.779242 
L 236.116364 210.504109 
L 237.181091 210.39864 
L 239.842909 210.404978 
L 240.641455 210.143731 
L 241.44 209.664041 
L 242.504727 208.68441 
L 243.835636 207.059489 
L 245.965091 204.412976 
L 247.029818 203.45278 
L 248.094545 202.826258 
L 249.159273 202.467442 
L 254.216727 201.398019 
L 255.281455 201.297615 
L 256.346182 201.43983 
L 257.144727 201.750646 
L 258.209455 202.455109 
L 259.274182 203.475138 
L 260.338909 204.784186 
L 261.669818 206.799585 
L 263.266909 209.687909 
L 266.194909 215.164985 
L 267.525818 217.101662 
L 268.590545 218.211631 
L 269.389091 218.738828 
L 270.187636 218.978814 
L 270.986182 218.930525 
L 271.784727 218.631024 
L 274.446545 217.277742 
L 274.978909 217.303655 
L 275.511273 217.541429 
L 276.043636 218.024613 
L 276.576 218.772844 
L 277.374545 220.39471 
L 278.173091 222.557301 
L 279.504 226.97166 
L 281.633455 234.1717 
L 282.698182 237.038903 
L 283.496727 238.717477 
L 284.295273 239.97491 
L 285.093818 240.816725 
L 285.892364 241.254473 
L 286.424727 241.328964 
L 286.957091 241.236469 
L 287.755636 240.804488 
L 288.554182 240.063218 
L 289.618909 238.712473 
L 294.144 232.372506 
L 295.208727 231.367822 
L 296.273455 230.666071 
L 297.072 230.360899 
L 297.870545 230.250005 
L 298.935273 230.375146 
L 300.266182 230.82852 
L 302.129455 231.50678 
L 303.194182 231.673644 
L 304.258909 231.600776 
L 305.589818 231.217821 
L 308.784 230.065094 
L 310.114909 229.89665 
L 311.445818 229.986863 
L 312.776727 230.342834 
L 313.841455 230.837438 
L 315.172364 231.730429 
L 316.769455 233.134756 
L 319.431273 235.557215 
L 320.496 236.165681 
L 321.294545 236.348933 
L 322.093091 236.256947 
L 322.891636 235.892707 
L 323.956364 235.07081 
L 326.618182 232.740477 
L 327.416727 232.332926 
L 328.215273 232.138429 
L 329.013818 232.151745 
L 329.812364 232.350579 
L 330.877091 232.857692 
L 332.208 233.801166 
L 336.200727 237.007232 
L 336.999273 237.216828 
L 337.797818 237.152291 
L 338.596364 236.827026 
L 339.661091 236.099327 
L 341.524364 234.71318 
L 342.322909 234.349782 
L 343.121455 234.234192 
L 343.92 234.402723 
L 344.718545 234.867455 
L 345.517091 235.62457 
L 346.315636 236.66068 
L 347.380364 238.436357 
L 348.711273 241.151251 
L 351.373091 246.798144 
L 352.437818 248.428297 
L 353.236364 249.213607 
L 353.768727 249.505875 
L 354.301091 249.612253 
L 354.833455 249.541492 
L 355.632 249.141512 
L 356.430545 248.466354 
L 359.624727 245.302345 
L 360.423273 244.921527 
L 361.221818 244.830752 
L 362.020364 245.03811 
L 362.818909 245.52635 
L 363.617455 246.260281 
L 364.682182 247.53937 
L 366.545455 250.231599 
L 368.142545 252.465091 
L 369.207273 253.595956 
L 370.005818 254.119564 
L 370.538182 254.273611 
L 371.070545 254.251104 
L 371.602909 254.038805 
L 372.135273 253.627975 
L 372.933818 252.631928 
L 373.732364 251.189531 
L 374.797091 248.64596 
L 376.394182 243.964785 
L 377.991273 239.358728 
L 379.056 237.013982 
L 379.854545 235.841416 
L 380.386909 235.365246 
L 380.919273 235.131607 
L 381.451636 235.12929 
L 381.984 235.341194 
L 382.782545 236.013634 
L 383.581091 237.034602 
L 384.912 239.216865 
L 386.509091 241.849912 
L 387.307636 242.853332 
L 388.106182 243.534823 
L 388.904727 243.892641 
L 389.703273 243.989693 
L 391.034182 243.845051 
L 393.163636 243.601453 
L 395.559273 243.591073 
L 396.890182 243.729864 
L 397.954909 244.033662 
L 399.019636 244.582555 
L 400.084364 245.386966 
L 401.681455 246.939081 
L 404.077091 249.3184 
L 405.674182 250.55233 
L 407.537455 251.672614 
L 409.666909 252.709909 
L 410.997818 253.144729 
L 412.062545 253.292114 
L 413.127273 253.216188 
L 414.192 252.889264 
L 415.256727 252.297547 
L 416.321455 251.449131 
L 417.652364 250.086088 
L 419.249455 248.109036 
L 420.580364 246.080018 
L 421.645091 243.946153 
L 422.443636 241.8806 
L 423.508364 238.386752 
L 424.839273 233.014618 
L 426.436364 226.300729 
L 426.436364 226.300729 
" clip-path="url(#p8d9e39e5cc)" style="fill: none; stroke: #0000ff; stroke-width: 3; stroke-linecap: square"/>
   </g>
   <g id="patch_3">
    <path d="M 7.2 331.2 
L 7.2 7.2 
" style="fill: none; stroke: #000000; stroke-width: 0.8; stroke-linejoin: miter; stroke-linecap: square"/>
   </g>
   <g id="patch_4">
    <path d="M 446.4 331.2 
L 446.4 7.2 
" style="fill: none; stroke: #000000; stroke-width: 0.8; stroke-linejoin: miter; stroke-linecap: square"/>
   </g>
   <g id="patch_5">
    <path d="M 7.2 331.2 
L 446.4 331.2 
" style="fill: none; stroke: #000000; stroke-width: 0.8; stroke-linejoin: miter; stroke-linecap: square"/>
   </g>
   <g id="patch_6">
    <path d="M 7.2 7.2 
L 446.4 7.2 
" style="fill: none; stroke: #000000; stroke-width: 0.8; stroke-linejoin: miter; stroke-linecap: square"/>
   </g>
  </g>
 </g>
 <defs>
  <clipPath id="p8d9e39e5cc">
   <rect x="7.2" y="7.2" width="439.2" height="324"/>
  </clipPath>
 </defs>
</svg>
