<?xml version="1.0" encoding="utf-8" standalone="no"?>
<!DOCTYPE svg PUBLIC "-//W3C//DTD SVG 1.1//EN"
  "http://www.w3.org/Graphics/SVG/1.1/DTD/svg11.dtd">
<svg xmlns:xlink="http://www.w3.org/1999/xlink" width="453.6pt" height="338.4pt" viewBox="0 0 453.6 338.4" xmlns="http://www.w3.org/2000/svg" version="1.1">
 <metadata>
  <rdf:RDF xmlns:dc="http://purl.org/dc/elements/1.1/" xmlns:cc="http://creativecommons.org/ns#" xmlns:rdf="http://www.w3.org/1999/02/22-rdf-syntax-ns#">
   <cc:Work>
    <dc:type rdf:resource="http://purl.org/dc/dcmitype/StillImage"/>
    <dc:date>2025-05-14T16:09:46.667537</dc:date>
    <dc:format>image/svg+xml</dc:format>
    <dc:creator>
     <cc:Agent>
      <dc:title>Matplotlib v3.10.1, https://matplotlib.org/</dc:title>
     </cc:Agent>
    </dc:creator>
   </cc:Work>
  </rdf:RDF>
 </metadata>
 <defs>
  <style type="text/css">*{stroke-linejoin: round; stroke-linecap: butt}</style>
 </defs>
 <g id="figure_1">
  <g id="patch_1">
   <path d="M 0 338.4 
L 453.6 338.4 
L 453.6 0 
L 0 0 
z
" style="fill: #ffffff"/>
  </g>
  <g id="axes_1">
   <g id="patch_2">
    <path d="M 7.2 331.2 
L 446.4 331.2 
L 446.4 7.2 
L 7.2 7.2 
z
" style="fill: #ffffff"/>
   </g>
   <g id="matplotlib.axis_1"/>
   <g id="matplotlib.axis_2"/>
   <g id="line2d_1">
    <path d="M 27.163636 316.472689 
L 36.213818 314.637868 
L 44.731636 312.683868 
L 52.717091 310.626577 
L 60.436364 308.40558 
L 67.623273 306.109241 
L 74.544 303.667259 
L 81.198545 301.083932 
L 87.586909 298.365645 
L 93.709091 295.520987 
L 99.565091 292.560823 
L 105.421091 289.346374 
L 111.010909 286.020792 
L 116.334545 282.600853 
L 121.658182 278.914873 
L 126.715636 275.147915 
L 131.773091 271.103094 
L 136.564364 266.996272 
L 141.355636 262.60302 
L 146.146909 257.903301 
L 150.672 253.164094 
L 155.197091 248.113267 
L 159.722182 242.73035 
L 164.247273 236.993503 
L 168.772364 230.879442 
L 173.031273 224.75827 
L 177.290182 218.259033 
L 181.549091 211.358336 
L 185.808 204.031417 
L 190.066909 196.25195 
L 194.325818 187.991985 
L 198.584727 179.221808 
L 202.843636 169.90995 
L 206.836364 160.65838 
L 210.829091 150.872107 
L 214.821818 140.520206 
L 218.814545 129.570022 
L 222.807273 117.986952 
L 226.8 105.734409 
L 426.436364 316.472727 
L 426.436364 316.472727 
" clip-path="url(#pf12c2a8f5e)" style="fill: none; stroke-dasharray: 11.1,4.8; stroke-dashoffset: 0; stroke: #000000; stroke-width: 3"/>
   </g>
   <g id="line2d_2">
    <path d="M 27.163636 75.203815 
L 27.696 76.009701 
L 28.494545 77.748896 
L 29.293091 80.061847 
L 30.357818 83.917329 
L 31.688727 89.621539 
L 33.818182 99.881041 
L 37.278545 116.369036 
L 38.875636 122.90903 
L 40.206545 127.563094 
L 41.271273 130.696468 
L 42.336 133.268182 
L 43.400727 135.199776 
L 43.666909 135.58942 
L 43.933091 139.200571 
L 44.731636 155.897749 
L 45.530182 167.422673 
L 46.328727 175.487719 
L 47.127273 181.375717 
L 48.458182 189.030017 
L 49.789091 196.786363 
L 50.853818 204.665532 
L 51.386182 209.489567 
L 51.918545 218.706182 
L 52.450909 227.101032 
L 52.983273 232.512325 
L 53.515636 235.323822 
L 53.781818 235.902363 
L 54.048 235.916829 
L 54.314182 235.456539 
L 54.580364 234.574713 
L 55.112727 231.528409 
L 55.645091 227.100593 
L 56.443636 218.390705 
L 57.774545 200.565781 
L 59.371636 179.665314 
L 59.904 174.515356 
L 60.436364 171.119744 
L 60.702545 170.230957 
L 60.968727 170.204992 
L 61.234909 171.109939 
L 61.501091 173.024495 
L 62.033455 180.213518 
L 62.565818 192.080446 
L 62.832 193.758247 
L 63.364364 184.37986 
L 63.896727 179.162151 
L 64.162909 177.870062 
L 64.429091 177.372807 
L 64.695273 177.598783 
L 64.961455 178.420311 
L 65.493818 181.722884 
L 66.026182 186.708226 
L 66.824727 196.285386 
L 69.752727 234.091731 
L 70.551273 241.523198 
L 71.349818 246.978271 
L 71.882182 249.485259 
L 72.414545 251.12865 
L 72.946909 251.993463 
L 73.213091 252.173398 
L 73.479273 252.209822 
L 74.011636 251.794753 
L 74.544 250.975559 
L 75.342545 249.228227 
L 76.939636 245.563736 
L 77.205818 243.555346 
L 77.472 239.445246 
L 79.069091 188.657868 
L 79.867636 173.60027 
L 80.666182 163.770739 
L 81.198545 159.391167 
L 81.730909 156.383531 
L 82.263273 154.482924 
L 82.795636 153.465151 
L 83.061818 153.22758 
L 83.328 153.143415 
L 83.594182 153.194697 
L 84.126545 153.64103 
L 84.658909 154.517176 
L 85.457455 156.355915 
L 86.522182 159.565414 
L 87.853091 164.341335 
L 89.716364 171.904808 
L 93.975273 189.738123 
L 94.773818 191.95369 
L 95.572364 193.424854 
L 96.104727 193.964472 
L 96.637091 194.062884 
L 96.903273 193.551645 
L 97.968 186.68298 
L 99.298909 176.528174 
L 101.162182 160.298318 
L 103.824 137.123804 
L 104.888727 130.01618 
L 105.421091 127.463603 
L 105.953455 125.839928 
L 106.219636 125.462503 
L 106.485818 125.400003 
L 106.752 125.682992 
L 107.018182 126.34374 
L 107.550545 129.067333 
L 108.082909 133.822223 
L 108.615273 141.119577 
L 109.147636 151.366123 
L 109.68 165.088495 
L 110.744727 195.56183 
L 111.809455 218.651591 
L 112.874182 247.05009 
L 113.140364 255.150868 
L 113.406545 257.914305 
L 113.672727 255.295685 
L 114.737455 229.912872 
L 115.802182 209.445299 
L 116.600727 197.643539 
L 117.399273 189.006571 
L 117.931636 185.081373 
L 118.464 182.66742 
L 118.730182 182.03406 
L 118.996364 181.784497 
L 119.262545 181.94512 
L 119.528727 182.497405 
L 120.061091 184.735286 
L 120.593455 188.438151 
L 121.392 196.683773 
L 122.190545 207.679339 
L 123.521455 230.070097 
L 124.852364 252.352678 
L 125.650909 261.810253 
L 125.917091 263.700134 
L 126.183273 264.725552 
L 126.449455 264.769096 
L 126.715636 263.671021 
L 127.248 258.639058 
L 128.312727 250.838497 
L 129.643636 242.888466 
L 132.039273 229.466126 
L 132.837818 223.762952 
L 133.636364 216.63247 
L 134.434909 207.498369 
L 135.233455 195.729624 
L 136.032 180.641031 
L 136.830545 161.472991 
L 137.362909 147.705464 
L 137.895273 139.798731 
L 138.161455 137.746068 
L 138.427636 136.878016 
L 138.693818 137.128772 
L 138.96 138.462628 
L 139.492364 143.95467 
L 140.024727 152.694378 
L 140.823273 170.424682 
L 143.485091 238.2823 
L 144.017455 244.35 
L 144.549818 248.163992 
L 145.082182 250.819071 
L 145.614545 252.29418 
L 145.880727 252.583811 
L 146.146909 252.572039 
L 146.413091 252.256724 
L 146.679273 251.635412 
L 147.211636 249.463323 
L 147.744 246.027331 
L 148.808727 236.437048 
L 150.672 217.341261 
L 155.463273 166.833308 
L 156.261818 160.703429 
L 156.794182 157.601832 
L 157.326545 155.600592 
L 157.592727 155.065301 
L 157.858909 154.922147 
L 158.125091 155.214371 
L 158.391273 155.946257 
L 158.657455 157.227286 
L 159.189818 161.564951 
L 159.722182 168.767905 
L 160.520727 182.00554 
L 161.319273 191.436763 
L 162.117818 204.02026 
L 162.916364 220.324722 
L 163.981091 246.448076 
L 164.247273 247.309786 
L 165.045818 242.75413 
L 165.844364 239.259992 
L 166.642909 236.709583 
L 167.441455 234.915252 
L 168.506182 233.207422 
L 169.837091 231.109482 
L 170.635636 229.290247 
L 171.434182 226.682517 
L 172.232727 223.046928 
L 173.031273 218.243829 
L 173.829818 212.214407 
L 174.894545 202.385788 
L 176.225455 187.87477 
L 177.024 179.735469 
L 177.556364 177.4202 
L 178.088727 174.028538 
L 178.621091 169.536045 
L 179.419636 160.56347 
L 180.218182 148.554924 
L 181.016727 133.131173 
L 181.815273 113.965793 
L 182.347636 98.839655 
L 182.88 114.463302 
L 183.944727 145.13856 
L 184.743273 162.395345 
L 185.541818 174.661056 
L 186.074182 180.209541 
L 186.606545 183.836098 
L 187.138909 185.744851 
L 187.405091 186.127719 
L 187.671273 186.1716 
L 187.937455 185.909389 
L 188.469818 184.601911 
L 189.002182 182.478392 
L 189.800727 178.247355 
L 191.930182 166.282024 
L 192.728727 163.215065 
L 193.261091 161.943236 
L 193.527273 161.582507 
L 197.253818 107.146601 
L 198.318545 95.753788 
L 199.117091 89.106016 
L 199.915636 84.049036 
L 200.714182 80.542222 
L 201.246545 79.046972 
L 201.778909 78.114347 
L 202.577455 77.273296 
L 202.843636 76.639585 
L 203.908364 73.207017 
L 204.440727 72.236365 
L 204.973091 71.668981 
L 205.239273 71.449879 
L 206.037818 71.338344 
L 207.102545 71.773705 
L 209.764364 73.407334 
L 210.030545 73.535301 
L 210.296727 74.187499 
L 210.829091 77.049875 
L 211.627636 82.784334 
L 212.692364 92.472608 
L 214.023273 106.896845 
L 216.152727 132.927467 
L 220.145455 182.249511 
L 221.476364 195.815615 
L 222.541091 204.199747 
L 223.073455 207.171682 
L 223.605818 209.160053 
L 223.872 209.723943 
L 224.138182 209.964017 
L 224.404364 209.849945 
L 224.670545 209.349073 
L 224.936727 208.426534 
L 225.469091 205.16399 
L 226.001455 199.732359 
L 226.533818 191.758877 
L 226.8 186.690064 
L 231.325091 170.209065 
L 232.922182 166.190292 
L 234.253091 162.309547 
L 235.584 157.734417 
L 236.914909 152.286247 
L 238.245818 145.827065 
L 239.576727 138.267139 
L 241.173818 127.690676 
L 243.037091 113.474691 
L 243.569455 109.566102 
L 245.432727 101.242267 
L 247.296 94.068087 
L 249.159273 87.832063 
L 251.022545 82.378398 
L 252.885818 77.612378 
L 254.749091 73.507826 
L 256.346182 70.542395 
L 257.677091 68.546229 
L 258.741818 67.300032 
L 259.540364 66.601853 
L 260.605091 66.043775 
L 261.137455 66.013069 
L 261.669818 66.24346 
L 262.202182 66.723554 
L 262.734545 67.509952 
L 263.266909 68.621528 
L 264.065455 70.969153 
L 264.864 74.303406 
L 265.130182 77.807428 
L 265.662545 92.899226 
L 268.058182 163.851972 
L 269.655273 205.000058 
L 270.986182 233.216454 
L 271.784727 246.523445 
L 272.583273 256.505067 
L 273.115636 261.008616 
L 273.648 263.537536 
L 273.914182 264.035099 
L 274.180364 263.937183 
L 274.446545 263.252422 
L 274.712727 261.956519 
L 275.245091 257.398628 
L 275.777455 249.963857 
L 276.309818 239.439206 
L 276.842182 228.843686 
L 277.906909 230.860121 
L 278.705455 232.011725 
L 279.504 232.766399 
L 280.036364 233.019262 
L 280.568727 233.062661 
L 281.101091 232.894156 
L 281.633455 232.508208 
L 282.432 231.527365 
L 283.230545 230.10693 
L 284.295273 227.662069 
L 287.223273 220.367076 
L 287.755636 219.533662 
L 288.288 219.079604 
L 288.554182 219.01383 
L 288.820364 219.091964 
L 289.086545 219.31341 
L 289.352727 219.686832 
L 289.885091 221.011822 
L 290.417455 223.186957 
L 290.949818 226.358314 
L 291.482182 230.683452 
L 292.014545 235.992505 
L 292.280727 237.377634 
L 292.813091 238.63282 
L 293.079273 238.860964 
L 295.208727 238.764773 
L 297.072 238.430124 
L 298.402909 237.979051 
L 299.733818 237.287167 
L 301.064727 236.358782 
L 302.661818 234.937048 
L 304.791273 232.681356 
L 308.517818 228.598829 
L 309.848727 227.381301 
L 310.114909 226.849021 
L 311.978182 221.336069 
L 313.309091 218.075254 
L 314.373818 216.028183 
L 315.172364 214.90495 
L 315.704727 214.403727 
L 316.237091 214.132324 
L 316.769455 214.121606 
L 317.301818 214.426427 
L 317.834182 215.119751 
L 318.366545 216.256581 
L 318.898909 217.924989 
L 319.431273 220.230374 
L 319.963636 223.295209 
L 320.496 227.270529 
L 320.762182 229.669665 
L 321.028364 229.756033 
L 322.093091 210.633745 
L 322.891636 200.338357 
L 323.424 195.672399 
L 323.956364 192.94339 
L 324.222545 192.327376 
L 324.488727 192.283116 
L 324.754909 192.757338 
L 325.021091 193.792912 
L 325.553455 197.608391 
L 326.085818 203.728325 
L 326.618182 212.182805 
L 327.416727 229.104915 
L 329.013818 269.447484 
L 330.344727 302.997437 
L 330.610909 304.135444 
L 333.006545 248.405996 
L 336.200727 168.0794 
L 338.862545 98.48328 
L 339.128727 96.459217 
L 340.193455 142.744692 
L 340.992 169.934326 
L 341.790545 190.589488 
L 342.589091 204.601899 
L 343.121455 210.18512 
L 343.387636 211.137768 
L 344.186182 211.493379 
L 346.315636 212.735494 
L 346.848 212.854105 
L 347.380364 212.789919 
L 347.912727 212.495641 
L 348.445091 211.9319 
L 348.977455 211.050829 
L 349.776 209.066259 
L 350.574545 206.230507 
L 351.373091 202.526695 
L 352.437818 196.32293 
L 353.768727 186.801186 
L 358.027636 154.378991 
L 358.826182 150.350966 
L 359.092364 149.318113 
L 359.358545 148.766319 
L 359.890909 148.547656 
L 360.157091 151.814633 
L 360.689455 160.473617 
L 361.221818 165.639236 
L 361.754182 168.27596 
L 362.020364 168.923331 
L 362.286545 169.250334 
L 362.552727 169.337553 
L 363.085091 169.066959 
L 363.883636 168.552876 
L 364.149818 168.564656 
L 364.416 168.763516 
L 364.682182 169.162026 
L 365.214545 170.78542 
L 365.746909 173.718758 
L 366.279273 178.221662 
L 366.811636 184.546275 
L 367.610182 197.990794 
L 368.408727 216.875739 
L 369.207273 242.083252 
L 370.005818 274.628025 
L 370.272 287.319454 
L 370.538182 292.9063 
L 371.336727 280.157836 
L 372.135273 270.52637 
L 372.933818 263.824603 
L 373.466182 260.89569 
L 373.998545 259.156758 
L 374.264727 258.717469 
L 374.530909 258.568675 
L 374.797091 258.698908 
L 375.063273 259.088596 
L 375.595636 260.693235 
L 376.128 263.299785 
L 377.192727 270.592298 
L 380.120727 291.613359 
L 381.451636 299.167667 
L 382.250182 302.941187 
L 382.516364 300.364594 
L 383.048727 283.354897 
L 384.113455 249.169852 
L 385.444364 214.084747 
L 386.775273 184.873735 
L 388.372364 155.221306 
L 389.969455 130.247431 
L 391.300364 112.906886 
L 392.631273 98.747397 
L 394.760727 79.619693 
L 396.357818 66.212455 
L 397.422545 55.240326 
L 397.688727 52.15855 
L 399.818182 64.859709 
L 401.681455 73.489532 
L 403.278545 80.998896 
L 404.343273 86.992504 
L 405.141818 92.544396 
L 405.940364 99.500421 
L 406.738909 108.523873 
L 407.537455 120.519024 
L 408.336 136.792201 
L 409.134545 159.140183 
L 409.933091 186.561315 
L 411.264 211.388103 
L 411.530182 209.711004 
L 413.393455 180.743112 
L 414.724364 163.059148 
L 416.055273 148.290737 
L 417.12 138.75422 
L 418.184727 131.356654 
L 418.983273 127.215322 
L 419.781818 124.308143 
L 420.314182 123.047988 
L 420.846545 122.316243 
L 421.378909 122.107481 
L 421.645091 122.208166 
L 422.177455 122.787664 
L 422.709818 123.861318 
L 423.242182 125.415645 
L 424.040727 128.643314 
L 424.839273 132.864036 
L 425.904 139.921467 
L 426.436364 144.025405 
L 426.436364 144.025405 
" clip-path="url(#pf12c2a8f5e)" style="fill: none; stroke: #ffa500; stroke-width: 3; stroke-linecap: square"/>
   </g>
   <g id="patch_3">
    <path d="M 7.2 331.2 
L 7.2 7.2 
" style="fill: none; stroke: #000000; stroke-width: 0.8; stroke-linejoin: miter; stroke-linecap: square"/>
   </g>
   <g id="patch_4">
    <path d="M 446.4 331.2 
L 446.4 7.2 
" style="fill: none; stroke: #000000; stroke-width: 0.8; stroke-linejoin: miter; stroke-linecap: square"/>
   </g>
   <g id="patch_5">
    <path d="M 7.2 331.2 
L 446.4 331.2 
" style="fill: none; stroke: #000000; stroke-width: 0.8; stroke-linejoin: miter; stroke-linecap: square"/>
   </g>
   <g id="patch_6">
    <path d="M 7.2 7.2 
L 446.4 7.2 
" style="fill: none; stroke: #000000; stroke-width: 0.8; stroke-linejoin: miter; stroke-linecap: square"/>
   </g>
  </g>
 </g>
 <defs>
  <clipPath id="pf12c2a8f5e">
   <rect x="7.2" y="7.2" width="439.2" height="324"/>
  </clipPath>
 </defs>
</svg>
