<?xml version="1.0" encoding="utf-8" standalone="no"?>
<!DOCTYPE svg PUBLIC "-//W3C//DTD SVG 1.1//EN"
  "http://www.w3.org/Graphics/SVG/1.1/DTD/svg11.dtd">
<svg xmlns:xlink="http://www.w3.org/1999/xlink" width="453.6pt" height="338.4pt" viewBox="0 0 453.6 338.4" xmlns="http://www.w3.org/2000/svg" version="1.1">
 <metadata>
  <rdf:RDF xmlns:dc="http://purl.org/dc/elements/1.1/" xmlns:cc="http://creativecommons.org/ns#" xmlns:rdf="http://www.w3.org/1999/02/22-rdf-syntax-ns#">
   <cc:Work>
    <dc:type rdf:resource="http://purl.org/dc/dcmitype/StillImage"/>
    <dc:date>2025-05-14T16:00:14.788102</dc:date>
    <dc:format>image/svg+xml</dc:format>
    <dc:creator>
     <cc:Agent>
      <dc:title>Matplotlib v3.10.1, https://matplotlib.org/</dc:title>
     </cc:Agent>
    </dc:creator>
   </cc:Work>
  </rdf:RDF>
 </metadata>
 <defs>
  <style type="text/css">*{stroke-linejoin: round; stroke-linecap: butt}</style>
 </defs>
 <g id="figure_1">
  <g id="patch_1">
   <path d="M 0 338.4 
L 453.6 338.4 
L 453.6 0 
L 0 0 
z
" style="fill: #ffffff"/>
  </g>
  <g id="axes_1">
   <g id="patch_2">
    <path d="M 7.2 331.2 
L 446.4 331.2 
L 446.4 7.2 
L 7.2 7.2 
z
" style="fill: #ffffff"/>
   </g>
   <g id="matplotlib.axis_1"/>
   <g id="matplotlib.axis_2"/>
   <g id="line2d_1">
    <path d="M 27.163636 21.927273 
L 48.192 22.068829 
L 56.709818 22.32954 
L 62.299636 22.70786 
L 66.558545 23.213849 
L 70.018909 23.854285 
L 72.680727 24.554464 
L 75.076364 25.398254 
L 77.205818 26.372171 
L 79.069091 27.445211 
L 80.932364 28.776521 
L 82.529455 30.169892 
L 84.126545 31.846201 
L 85.723636 33.862838 
L 87.320727 36.288922 
L 88.651636 38.682913 
L 89.982545 41.475608 
L 91.313455 44.733368 
L 92.644364 48.533688 
L 93.975273 52.966876 
L 95.306182 58.138358 
L 96.637091 64.171082 
L 97.968 71.208445 
L 99.298909 79.41783 
L 100.629818 88.994341 
L 102.759273 104.224569 
L 105.421091 121.813308 
L 108.082909 137.972597 
L 110.744727 152.818519 
L 113.406545 166.457868 
L 116.068364 178.988731 
L 118.730182 190.501136 
L 121.392 201.077907 
L 124.053818 210.795069 
L 126.715636 219.722489 
L 129.377455 227.924299 
L 132.039273 235.459593 
L 134.701091 242.382411 
L 137.362909 248.742611 
L 140.290909 255.143437 
L 143.218909 260.974421 
L 146.146909 266.286283 
L 149.074909 271.125197 
L 152.002909 275.53335 
L 154.930909 279.549032 
L 157.858909 283.207234 
L 161.053091 286.827549 
L 164.247273 290.097739 
L 167.441455 293.051635 
L 170.635636 295.719838 
L 174.096 298.319976 
L 177.556364 300.648816 
L 181.282909 302.885784 
L 185.009455 304.872417 
L 189.002182 306.754942 
L 193.261091 308.515906 
L 197.786182 310.142864 
L 202.577455 311.628213 
L 207.901091 313.033382 
L 213.490909 314.273646 
L 219.613091 315.401197 
L 226.267636 316.401484 
L 227.598545 316.472727 
L 426.436364 316.472727 
L 426.436364 316.472727 
" clip-path="url(#p2d7e36dc0f)" style="fill: none; stroke-dasharray: 11.1,4.8; stroke-dashoffset: 0; stroke: #000000; stroke-width: 3"/>
   </g>
   <g id="line2d_2">
    <path d="M 27.163636 242.08901 
L 29.825455 235.825528 
L 31.954909 230.258011 
L 33.818182 224.774176 
L 35.681455 218.544594 
L 37.544727 211.416395 
L 39.141818 204.472817 
L 41.005091 195.273424 
L 42.868364 184.761217 
L 44.199273 176.161661 
L 45.264 168.994872 
L 46.861091 160.279884 
L 48.192 154.181026 
L 49.522909 149.099204 
L 50.853818 144.995354 
L 51.918545 142.389774 
L 52.983273 140.364061 
L 54.048 138.897409 
L 54.846545 138.151601 
L 55.645091 137.699334 
L 56.443636 137.531566 
L 57.242182 137.639151 
L 58.040727 138.012819 
L 58.839273 138.643264 
L 59.637818 139.521113 
L 60.702545 141.059991 
L 61.501091 142.189703 
L 63.364364 142.562914 
L 65.227636 142.698817 
L 67.357091 142.626907 
L 70.018909 142.303643 
L 78.004364 140.981006 
L 80.4 139.088246 
L 85.989818 134.573158 
L 87.853091 133.39636 
L 89.450182 132.649534 
L 90.781091 132.261066 
L 92.112 132.125181 
L 93.176727 132.223706 
L 94.241455 132.528009 
L 94.773818 132.795602 
L 95.572364 133.548521 
L 96.370909 134.703671 
L 97.169455 136.238581 
L 98.234182 138.836032 
L 99.298909 142.011963 
L 100.629818 146.708688 
L 102.226909 153.261358 
L 104.090182 161.919166 
L 106.485818 174.164037 
L 111.010909 197.608567 
L 112.874182 203.133097 
L 115.003636 208.737412 
L 117.399273 214.359432 
L 120.327273 220.618307 
L 126.183273 232.94133 
L 128.046545 237.126887 
L 139.758545 244.874279 
L 142.420364 247.08547 
L 144.549818 249.012056 
L 148.276364 250.154952 
L 150.938182 251.262345 
L 153.333818 252.48992 
L 155.729455 253.952586 
L 158.125091 255.666605 
L 160.520727 257.651816 
L 163.714909 260.394923 
L 166.110545 262.119924 
L 168.506182 263.570797 
L 170.901818 264.765097 
L 173.297455 265.72037 
L 175.693091 266.453893 
L 177.290182 266.760978 
L 182.613818 266.461789 
L 188.469818 266.362526 
L 193.793455 266.470598 
L 199.649455 267.18153 
L 207.368727 268.145221 
L 212.426182 268.838079 
L 216.951273 269.092439 
L 222.008727 269.140196 
L 227.066182 268.981062 
L 232.389818 268.308182 
L 236.914909 267.5138 
L 240.907636 266.598047 
L 246.231273 265.32441 
L 252.353455 264.254403 
L 260.871273 263.021886 
L 271.784727 261.32595 
L 285.892364 259.102395 
L 296.273455 257.770242 
L 298.669091 257.486348 
L 300.532364 257.483969 
L 302.129455 257.687552 
L 303.726545 258.123123 
L 305.057455 258.691885 
L 306.388364 259.471818 
L 307.719273 260.485303 
L 309.050182 261.754358 
L 310.381091 263.297994 
L 313.841455 267.641865 
L 314.906182 268.509628 
L 315.970909 269.120432 
L 317.035636 269.469956 
L 318.100364 269.553857 
L 319.165091 269.367634 
L 320.229818 268.905601 
L 321.294545 268.163181 
L 322.359273 267.136112 
L 323.424 265.819062 
L 324.754909 263.756731 
L 326.085818 261.221701 
L 327.416727 258.214214 
L 327.949091 256.879454 
L 328.215273 256.651416 
L 334.071273 263.429284 
L 336.733091 266.17912 
L 338.862545 268.10216 
L 340.725818 269.52539 
L 342.589091 270.659025 
L 344.186182 271.367408 
L 344.984727 271.596609 
L 345.517091 271.469186 
L 352.970182 268.809607 
L 354.833455 267.793375 
L 356.430545 266.685794 
L 358.027636 265.304909 
L 359.624727 263.597667 
L 360.955636 261.859968 
L 362.286545 259.777662 
L 364.149818 256.859326 
L 366.279273 253.961618 
L 368.408727 251.473797 
L 370.538182 249.335469 
L 372.933818 247.27301 
L 375.595636 245.307138 
L 378.523636 243.251122 
L 381.984 239.402022 
L 386.509091 233.980275 
L 394.494545 224.182091 
L 398.753455 222.725894 
L 402.213818 221.757569 
L 405.408 221.088516 
L 408.336 220.704095 
L 410.465455 220.594105 
L 414.990545 221.383725 
L 417.918545 221.449702 
L 422.709818 221.523974 
L 424.839273 221.787844 
L 426.436364 222.165375 
L 426.436364 222.165375 
" clip-path="url(#p2d7e36dc0f)" style="fill: none; stroke: #0000ff; stroke-width: 3; stroke-linecap: square"/>
   </g>
   <g id="patch_3">
    <path d="M 7.2 331.2 
L 7.2 7.2 
" style="fill: none; stroke: #000000; stroke-width: 0.8; stroke-linejoin: miter; stroke-linecap: square"/>
   </g>
   <g id="patch_4">
    <path d="M 446.4 331.2 
L 446.4 7.2 
" style="fill: none; stroke: #000000; stroke-width: 0.8; stroke-linejoin: miter; stroke-linecap: square"/>
   </g>
   <g id="patch_5">
    <path d="M 7.2 331.2 
L 446.4 331.2 
" style="fill: none; stroke: #000000; stroke-width: 0.8; stroke-linejoin: miter; stroke-linecap: square"/>
   </g>
   <g id="patch_6">
    <path d="M 7.2 7.2 
L 446.4 7.2 
" style="fill: none; stroke: #000000; stroke-width: 0.8; stroke-linejoin: miter; stroke-linecap: square"/>
   </g>
  </g>
 </g>
 <defs>
  <clipPath id="p2d7e36dc0f">
   <rect x="7.2" y="7.2" width="439.2" height="324"/>
  </clipPath>
 </defs>
</svg>
