<?xml version="1.0" encoding="utf-8" standalone="no"?>
<!DOCTYPE svg PUBLIC "-//W3C//DTD SVG 1.1//EN"
  "http://www.w3.org/Graphics/SVG/1.1/DTD/svg11.dtd">
<svg xmlns:xlink="http://www.w3.org/1999/xlink" width="453.6pt" height="338.4pt" viewBox="0 0 453.6 338.4" xmlns="http://www.w3.org/2000/svg" version="1.1">
 <metadata>
  <rdf:RDF xmlns:dc="http://purl.org/dc/elements/1.1/" xmlns:cc="http://creativecommons.org/ns#" xmlns:rdf="http://www.w3.org/1999/02/22-rdf-syntax-ns#">
   <cc:Work>
    <dc:type rdf:resource="http://purl.org/dc/dcmitype/StillImage"/>
    <dc:date>2025-05-14T16:02:21.071604</dc:date>
    <dc:format>image/svg+xml</dc:format>
    <dc:creator>
     <cc:Agent>
      <dc:title>Matplotlib v3.10.1, https://matplotlib.org/</dc:title>
     </cc:Agent>
    </dc:creator>
   </cc:Work>
  </rdf:RDF>
 </metadata>
 <defs>
  <style type="text/css">*{stroke-linejoin: round; stroke-linecap: butt}</style>
 </defs>
 <g id="figure_1">
  <g id="patch_1">
   <path d="M 0 338.4 
L 453.6 338.4 
L 453.6 0 
L 0 0 
z
" style="fill: #ffffff"/>
  </g>
  <g id="axes_1">
   <g id="patch_2">
    <path d="M 7.2 331.2 
L 446.4 331.2 
L 446.4 7.2 
L 7.2 7.2 
z
" style="fill: #ffffff"/>
   </g>
   <g id="matplotlib.axis_1"/>
   <g id="matplotlib.axis_2"/>
   <g id="line2d_1">
    <path d="M 27.163636 316.472433 
L 167.973818 177.970905 
L 326.618182 21.927273 
L 426.436364 316.472727 
L 426.436364 316.472727 
" clip-path="url(#pff41d166f5)" style="fill: none; stroke-dasharray: 11.1,4.8; stroke-dashoffset: 0; stroke: #000000; stroke-width: 3"/>
   </g>
   <g id="line2d_2">
    <path d="M 27.163636 295.515051 
L 27.429818 299.807924 
L 27.696 300.410006 
L 28.228364 300.57785 
L 29.559273 300.801067 
L 31.156364 300.955825 
L 31.688727 300.96193 
L 33.552 301.154657 
L 35.415273 301.260277 
L 36.48 301.275807 
L 41.005091 301.29663 
L 46.062545 301.133198 
L 50.587636 300.759912 
L 52.450909 300.505699 
L 52.717091 300.256942 
L 56.177455 299.59933 
L 59.371636 298.73801 
L 60.702545 298.706091 
L 60.968727 298.819417 
L 61.501091 298.538733 
L 63.896727 297.960228 
L 69.220364 296.678663 
L 69.486545 296.555199 
L 69.752727 296.248366 
L 75.608727 294.682205 
L 77.472 293.991135 
L 78.004364 293.586237 
L 78.270545 292.987118 
L 80.133818 292.445485 
L 84.392727 290.630875 
L 86.788364 289.255156 
L 91.313455 287.116093 
L 94.773818 286.609599 
L 95.04 287.105697 
L 95.306182 288.582165 
L 96.903273 288.057359 
L 99.298909 287.35337 
L 99.565091 287.10194 
L 102.493091 286.242624 
L 103.557818 285.847496 
L 103.824 285.480427 
L 105.687273 284.849575 
L 106.485818 284.545658 
L 107.816727 284.073136 
L 108.082909 283.783444 
L 109.68 283.183919 
L 111.543273 282.299469 
L 112.075636 281.875673 
L 112.341818 280.498715 
L 114.205091 279.27716 
L 115.003636 278.639863 
L 116.334545 277.661833 
L 116.866909 277.10181 
L 120.593455 274.396704 
L 120.859636 273.934377 
L 123.787636 271.789746 
L 124.586182 271.274289 
L 125.118545 271.006793 
L 127.248 269.873057 
L 128.046545 269.58416 
L 128.578909 269.476171 
L 129.111273 269.327013 
L 129.377455 267.074503 
L 129.643636 266.692382 
L 130.176 266.602423 
L 130.708364 266.741355 
L 135.499636 266.672293 
L 137.629091 266.28483 
L 137.895273 266.393249 
L 139.492364 266.222106 
L 141.888 266.029795 
L 146.146909 265.913304 
L 146.413091 266.065925 
L 147.211636 266.003337 
L 147.744 266.059873 
L 152.002909 265.709081 
L 157.592727 264.093008 
L 159.456 263.581203 
L 162.117818 262.954756 
L 162.916364 262.791728 
L 163.182545 262.699834 
L 163.448727 262.447568 
L 166.376727 261.773359 
L 166.909091 261.678928 
L 168.506182 261.259135 
L 169.304727 261.03 
L 177.290182 257.880403 
L 179.685818 257.32523 
L 180.218182 257.247974 
L 180.484364 257.714251 
L 186.872727 256.354842 
L 191.131636 254.851783 
L 195.390545 253.389613 
L 198.318545 252.779493 
L 202.045091 252.253546 
L 205.239273 251.586983 
L 207.368727 250.916399 
L 208.965818 250.29991 
L 214.555636 248.025104 
L 216.951273 247.307939 
L 221.476364 245.894061 
L 223.872 244.937595 
L 226.8 243.391423 
L 230.526545 241.467387 
L 232.123636 240.931815 
L 233.986909 240.471647 
L 236.382545 240.011102 
L 239.576727 239.410713 
L 242.238545 238.612657 
L 245.166545 237.391091 
L 246.763636 236.829993 
L 248.626909 236.271729 
L 251.288727 236.092778 
L 256.08 235.879162 
L 256.612364 235.714897 
L 258.475636 235.342879 
L 262.734545 233.894802 
L 265.396364 232.810316 
L 267.259636 232.292406 
L 269.921455 231.7884 
L 270.453818 231.751646 
L 273.115636 231.440593 
L 273.648 231.198615 
L 279.770182 230.160732 
L 280.568727 229.89866 
L 280.834909 229.925293 
L 282.432 229.458516 
L 286.158545 228.302075 
L 287.489455 227.468389 
L 289.618909 226.527293 
L 290.417455 226.211333 
L 298.136727 224.103763 
L 298.669091 223.995897 
L 300.532364 223.48795 
L 301.863273 223.100229 
L 302.129455 223.215793 
L 303.194182 223.072174 
L 303.726545 222.942705 
L 304.258909 222.941327 
L 304.791273 222.946023 
L 306.122182 222.935709 
L 306.388364 223.144699 
L 307.186909 223.350283 
L 307.453091 222.234643 
L 307.719273 222.132667 
L 309.582545 222.424102 
L 310.114909 222.31886 
L 310.381091 222.290279 
L 310.647273 222.518818 
L 312.244364 222.479992 
L 314.373818 222.209713 
L 314.64 222.176181 
L 314.906182 222.272547 
L 315.172364 222.241964 
L 315.704727 222.340551 
L 315.970909 221.214702 
L 316.237091 220.968932 
L 316.769455 220.790288 
L 317.301818 220.455736 
L 317.834182 220.452198 
L 318.366545 219.93456 
L 319.963636 219.449366 
L 320.229818 218.325027 
L 321.028364 217.96795 
L 321.294545 217.374363 
L 321.826909 217.180243 
L 322.093091 217.165601 
L 322.359273 216.784463 
L 322.891636 216.868093 
L 323.157818 217.022667 
L 323.424 216.501351 
L 324.222545 216.903434 
L 324.488727 214.009624 
L 324.754909 213.868822 
L 326.085818 213.89283 
L 327.682909 213.581935 
L 329.013818 213.417977 
L 330.877091 212.776848 
L 331.675636 212.219875 
L 331.941818 212.217962 
L 332.740364 211.661972 
L 333.006545 212.262089 
L 333.805091 211.717976 
L 334.603636 211.405931 
L 336.200727 210.285481 
L 336.733091 210.095592 
L 338.064 209.192646 
L 338.330182 209.186581 
L 339.128727 208.883682 
L 339.394909 208.759788 
L 339.927273 208.357205 
L 340.193455 208.209688 
L 340.459636 208.458654 
L 341.258182 208.355159 
L 341.524364 207.279258 
L 342.056727 206.89122 
L 342.855273 206.888675 
L 343.387636 206.944653 
L 344.186182 206.573074 
L 344.452364 206.460337 
L 345.250909 206.500137 
L 346.049455 206.276707 
L 348.445091 204.904613 
L 349.509818 204.322281 
L 350.308364 203.85696 
L 351.639273 202.926434 
L 351.905455 202.837283 
L 352.437818 202.458717 
L 353.502545 202.196259 
L 354.034909 202.210032 
L 354.567273 201.943186 
L 356.696727 201.692473 
L 358.027636 201.809319 
L 358.293818 201.609572 
L 358.56 200.331159 
L 359.624727 200.320064 
L 363.883636 199.09022 
L 364.948364 197.895744 
L 366.279273 196.163879 
L 366.811636 195.061687 
L 367.077818 196.091986 
L 368.408727 193.474116 
L 370.272 188.847493 
L 370.804364 186.738572 
L 373.2 175.428528 
L 374.530909 170.841134 
L 375.329455 166.275721 
L 375.595636 168.001398 
L 375.861818 167.356802 
L 378.257455 157.03896 
L 378.523636 156.21766 
L 379.056 153.235919 
L 379.854545 150.04475 
L 380.653091 147.673318 
L 381.185455 145.814284 
L 381.984 142.766883 
L 382.250182 142.325149 
L 382.782545 141.007937 
L 383.048727 139.630454 
L 383.581091 138.419439 
L 383.847273 137.816996 
L 384.113455 138.17927 
L 384.379636 137.835605 
L 385.178182 135.778308 
L 385.444364 135.405852 
L 386.242909 133.663286 
L 386.509091 133.569553 
L 387.041455 132.796884 
L 387.307636 131.787152 
L 387.84 130.699646 
L 388.106182 130.169078 
L 388.638545 130.406123 
L 389.170909 130.107929 
L 389.437091 130.043164 
L 389.703273 130.159668 
L 390.235636 129.71681 
L 390.501818 129.299024 
L 390.768 129.29625 
L 391.300364 128.371719 
L 391.566545 127.319079 
L 392.365091 125.90127 
L 392.631273 132.203183 
L 392.897455 133.011825 
L 394.228364 135.074758 
L 395.026909 137.151051 
L 395.559273 138.686734 
L 395.825455 138.27992 
L 396.624 140.18604 
L 397.156364 143.181738 
L 398.221091 145.934948 
L 399.019636 147.998144 
L 399.552 149.837551 
L 399.818182 150.524475 
L 400.084364 150.050438 
L 402.213818 154.922656 
L 402.48 155.041828 
L 403.012364 154.826746 
L 403.544727 155.623222 
L 403.810909 155.673591 
L 404.077091 155.450328 
L 404.875636 153.133548 
L 405.141818 152.894098 
L 405.408 157.850306 
L 405.674182 158.516303 
L 406.206545 158.969255 
L 406.472727 160.020455 
L 406.738909 159.793487 
L 407.271273 158.940094 
L 407.537455 160.055866 
L 407.803636 160.090311 
L 408.069818 159.654898 
L 408.336 158.971713 
L 408.602182 159.149137 
L 409.134545 156.959079 
L 409.400727 156.723737 
L 409.666909 181.121055 
L 409.933091 183.26443 
L 410.465455 185.124913 
L 410.731636 185.315504 
L 410.997818 185.723599 
L 411.530182 185.859898 
L 411.796364 186.383952 
L 412.062545 187.654737 
L 412.328727 188.115019 
L 412.594909 188.345349 
L 412.861091 186.394706 
L 413.127273 186.315667 
L 413.393455 185.764936 
L 413.659636 185.685318 
L 413.925818 188.562002 
L 414.192 189.403097 
L 414.724364 189.808603 
L 414.990545 191.661703 
L 415.256727 191.364071 
L 415.522909 190.496423 
L 415.789091 189.143334 
L 416.055273 191.515819 
L 416.321455 192.089084 
L 416.587636 191.905331 
L 416.853818 191.148463 
L 417.12 191.489213 
L 417.652364 189.924422 
L 417.918545 188.982492 
L 418.184727 205.693391 
L 418.450909 206.303919 
L 418.983273 206.424434 
L 419.249455 207.572957 
L 419.515636 207.609562 
L 420.048 206.976474 
L 420.314182 209.080716 
L 421.112727 210.874494 
L 421.378909 214.049204 
L 421.911273 211.258845 
L 422.177455 210.999661 
L 422.443636 227.535673 
L 422.709818 227.224945 
L 422.976 228.591306 
L 423.242182 229.180407 
L 423.508364 241.037679 
L 423.774545 241.323952 
L 424.040727 241.84662 
L 424.306909 241.687814 
L 424.573091 248.428486 
L 424.839273 245.773314 
L 425.371636 242.403593 
L 425.637818 253.268975 
L 425.904 250.683036 
L 426.170182 249.343585 
L 426.436364 246.921323 
L 426.436364 246.921323 
" clip-path="url(#pff41d166f5)" style="fill: none; stroke: #ffa500; stroke-width: 3; stroke-linecap: square"/>
   </g>
   <g id="patch_3">
    <path d="M 7.2 331.2 
L 7.2 7.2 
" style="fill: none; stroke: #000000; stroke-width: 0.8; stroke-linejoin: miter; stroke-linecap: square"/>
   </g>
   <g id="patch_4">
    <path d="M 446.4 331.2 
L 446.4 7.2 
" style="fill: none; stroke: #000000; stroke-width: 0.8; stroke-linejoin: miter; stroke-linecap: square"/>
   </g>
   <g id="patch_5">
    <path d="M 7.2 331.2 
L 446.4 331.2 
" style="fill: none; stroke: #000000; stroke-width: 0.8; stroke-linejoin: miter; stroke-linecap: square"/>
   </g>
   <g id="patch_6">
    <path d="M 7.2 7.2 
L 446.4 7.2 
" style="fill: none; stroke: #000000; stroke-width: 0.8; stroke-linejoin: miter; stroke-linecap: square"/>
   </g>
  </g>
 </g>
 <defs>
  <clipPath id="pff41d166f5">
   <rect x="7.2" y="7.2" width="439.2" height="324"/>
  </clipPath>
 </defs>
</svg>
