<?xml version="1.0" encoding="utf-8" standalone="no"?>
<!DOCTYPE svg PUBLIC "-//W3C//DTD SVG 1.1//EN"
  "http://www.w3.org/Graphics/SVG/1.1/DTD/svg11.dtd">
<svg xmlns:xlink="http://www.w3.org/1999/xlink" width="453.6pt" height="338.4pt" viewBox="0 0 453.6 338.4" xmlns="http://www.w3.org/2000/svg" version="1.1">
 <metadata>
  <rdf:RDF xmlns:dc="http://purl.org/dc/elements/1.1/" xmlns:cc="http://creativecommons.org/ns#" xmlns:rdf="http://www.w3.org/1999/02/22-rdf-syntax-ns#">
   <cc:Work>
    <dc:type rdf:resource="http://purl.org/dc/dcmitype/StillImage"/>
    <dc:date>2025-05-14T16:09:19.682833</dc:date>
    <dc:format>image/svg+xml</dc:format>
    <dc:creator>
     <cc:Agent>
      <dc:title>Matplotlib v3.10.1, https://matplotlib.org/</dc:title>
     </cc:Agent>
    </dc:creator>
   </cc:Work>
  </rdf:RDF>
 </metadata>
 <defs>
  <style type="text/css">*{stroke-linejoin: round; stroke-linecap: butt}</style>
 </defs>
 <g id="figure_1">
  <g id="patch_1">
   <path d="M 0 338.4 
L 453.6 338.4 
L 453.6 0 
L 0 0 
z
" style="fill: #ffffff"/>
  </g>
  <g id="axes_1">
   <g id="patch_2">
    <path d="M 7.2 331.2 
L 446.4 331.2 
L 446.4 7.2 
L 7.2 7.2 
z
" style="fill: #ffffff"/>
   </g>
   <g id="matplotlib.axis_1"/>
   <g id="matplotlib.axis_2"/>
   <g id="line2d_1">
    <path d="M 27.163636 21.927308 
L 46.594909 24.188117 
L 65.493818 26.609111 
L 83.594182 29.153489 
L 100.896 31.811632 
L 117.399273 34.57162 
L 133.370182 37.469441 
L 148.542545 40.446231 
L 163.182545 43.541771 
L 177.290182 46.747986 
L 191.131636 50.122373 
L 204.440727 53.595847 
L 217.217455 57.15605 
L 229.728 60.870572 
L 241.972364 64.739203 
L 253.684364 68.668982 
L 265.130182 72.739388 
L 276.309818 76.947487 
L 287.223273 81.289716 
L 291.482182 83.049838 
L 292.014545 83.845804 
L 426.436364 316.472727 
L 426.436364 316.472727 
" clip-path="url(#p512042a845)" style="fill: none; stroke-dasharray: 11.1,4.8; stroke-dashoffset: 0; stroke: #000000; stroke-width: 3"/>
   </g>
   <g id="line2d_2">
    <path d="M 27.163636 137.88464 
L 28.494545 140.041271 
L 29.825455 141.771477 
L 31.156364 143.120238 
L 32.487273 144.131602 
L 33.818182 144.84897 
L 35.149091 145.315036 
L 36.746182 145.60187 
L 38.343273 145.659121 
L 40.472727 145.50022 
L 44.465455 145.125569 
L 47.659636 145.482172 
L 50.321455 145.996781 
L 52.717091 146.694327 
L 54.846545 147.54981 
L 56.709818 148.516792 
L 58.573091 149.721978 
L 60.702545 151.257098 
L 62.299636 150.538239 
L 63.896727 150.081987 
L 65.76 149.804141 
L 68.155636 149.71169 
L 73.479273 149.634389 
L 75.342545 149.337478 
L 75.874909 149.131525 
L 77.472 147.511186 
L 79.601455 144.996951 
L 81.997091 141.790648 
L 84.925091 137.474016 
L 89.450182 130.341603 
L 92.378182 125.85076 
L 94.507636 123.027676 
L 96.637091 120.574309 
L 98.500364 118.72616 
L 100.363636 117.173237 
L 102.226909 115.933518 
L 103.824 115.130634 
L 105.421091 114.577576 
L 106.752 114.31762 
L 107.816727 114.438952 
L 111.543273 114.835653 
L 115.802182 115.057003 
L 120.593455 115.075753 
L 124.586182 114.902367 
L 132.039273 114.190864 
L 145.082182 112.668542 
L 148.010182 111.885497 
L 152.535273 110.39704 
L 156.528 109.150457 
L 160.786909 109.102195 
L 164.513455 109.270594 
L 167.973818 109.646878 
L 171.168 110.21593 
L 173.031273 110.733945 
L 176.757818 114.226819 
L 178.621091 115.499017 
L 180.750545 116.684926 
L 183.412364 117.896169 
L 190.066909 120.630155 
L 192.196364 120.690321 
L 194.059636 120.970326 
L 195.922909 121.49898 
L 197.52 122.175705 
L 199.117091 123.081644 
L 200.714182 124.238181 
L 202.311273 125.66656 
L 203.908364 127.3879 
L 205.505455 129.424498 
L 207.634909 132.274655 
L 210.829091 135.184204 
L 214.555636 138.259414 
L 218.548364 141.258658 
L 223.339636 144.570931 
L 227.066182 146.930916 
L 229.994182 148.527887 
L 232.922182 149.891413 
L 236.116364 151.125304 
L 239.310545 152.108736 
L 241.173818 152.545378 
L 242.238545 152.39794 
L 243.835636 151.933998 
L 245.432727 151.206782 
L 247.029818 150.212834 
L 248.626909 148.948869 
L 250.224 147.411624 
L 251.821091 145.596656 
L 253.684364 143.125522 
L 255.547636 140.269011 
L 257.410909 137.022803 
L 258.209455 135.510452 
L 259.274182 135.016401 
L 261.669818 134.137674 
L 264.597818 133.319955 
L 268.324364 132.539263 
L 278.173091 130.805229 
L 280.834909 130.681265 
L 283.762909 130.778737 
L 286.690909 131.107092 
L 289.618909 131.652372 
L 292.813091 132.476411 
L 294.144 132.767214 
L 297.870545 133.395149 
L 300.798545 134.113324 
L 303.460364 135.005428 
L 305.856 136.050553 
L 307.985455 137.207108 
L 310.114909 138.60924 
L 311.179636 139.498782 
L 313.042909 142.331382 
L 315.970909 147.181128 
L 319.431273 153.387974 
L 323.690182 161.518549 
L 328.215273 170.386936 
L 330.610909 172.066448 
L 333.006545 173.483284 
L 335.402182 174.631877 
L 337.531636 175.423612 
L 339.661091 175.996298 
L 341.790545 176.347038 
L 343.92 176.473311 
L 344.718545 176.376857 
L 345.783273 175.418109 
L 347.114182 173.933559 
L 348.977455 171.465541 
L 351.373091 167.866162 
L 356.164364 160.543983 
L 358.027636 158.1232 
L 359.624727 156.428651 
L 360.955636 155.368779 
L 362.020364 154.861244 
L 363.351273 154.439156 
L 364.948364 154.192332 
L 366.545455 154.190015 
L 368.408727 154.441087 
L 370.538182 154.981979 
L 373.466182 155.992781 
L 377.458909 157.461803 
L 377.725091 157.920057 
L 379.322182 162.174118 
L 380.653091 165.133264 
L 381.984 167.593074 
L 383.314909 169.585167 
L 384.645818 171.141189 
L 385.710545 172.092484 
L 386.775273 172.801012 
L 387.84 173.284178 
L 388.904727 173.558504 
L 389.969455 173.640606 
L 391.300364 173.498198 
L 392.631273 173.1139 
L 394.228364 172.562922 
L 395.825455 172.441486 
L 397.688727 172.567733 
L 400.084364 172.988065 
L 404.343273 173.779458 
L 406.206545 173.872735 
L 407.803636 173.711454 
L 409.134545 173.355079 
L 409.933091 173.018929 
L 410.731636 172.337017 
L 413.393455 169.756534 
L 415.256727 167.647112 
L 416.853818 165.507142 
L 418.450909 162.959323 
L 419.781818 160.453884 
L 421.112727 157.540034 
L 422.443636 154.159467 
L 423.774545 150.253336 
L 425.371636 144.786943 
L 426.436364 140.621681 
L 426.436364 140.621681 
" clip-path="url(#p512042a845)" style="fill: none; stroke: #ff0000; stroke-width: 3; stroke-linecap: square"/>
   </g>
   <g id="patch_3">
    <path d="M 7.2 331.2 
L 7.2 7.2 
" style="fill: none; stroke: #000000; stroke-width: 0.8; stroke-linejoin: miter; stroke-linecap: square"/>
   </g>
   <g id="patch_4">
    <path d="M 446.4 331.2 
L 446.4 7.2 
" style="fill: none; stroke: #000000; stroke-width: 0.8; stroke-linejoin: miter; stroke-linecap: square"/>
   </g>
   <g id="patch_5">
    <path d="M 7.2 331.2 
L 446.4 331.2 
" style="fill: none; stroke: #000000; stroke-width: 0.8; stroke-linejoin: miter; stroke-linecap: square"/>
   </g>
   <g id="patch_6">
    <path d="M 7.2 7.2 
L 446.4 7.2 
" style="fill: none; stroke: #000000; stroke-width: 0.8; stroke-linejoin: miter; stroke-linecap: square"/>
   </g>
  </g>
 </g>
 <defs>
  <clipPath id="p512042a845">
   <rect x="7.2" y="7.2" width="439.2" height="324"/>
  </clipPath>
 </defs>
</svg>
