<?xml version="1.0" encoding="utf-8" standalone="no"?>
<!DOCTYPE svg PUBLIC "-//W3C//DTD SVG 1.1//EN"
  "http://www.w3.org/Graphics/SVG/1.1/DTD/svg11.dtd">
<svg xmlns:xlink="http://www.w3.org/1999/xlink" width="453.6pt" height="338.4pt" viewBox="0 0 453.6 338.4" xmlns="http://www.w3.org/2000/svg" version="1.1">
 <metadata>
  <rdf:RDF xmlns:dc="http://purl.org/dc/elements/1.1/" xmlns:cc="http://creativecommons.org/ns#" xmlns:rdf="http://www.w3.org/1999/02/22-rdf-syntax-ns#">
   <cc:Work>
    <dc:type rdf:resource="http://purl.org/dc/dcmitype/StillImage"/>
    <dc:date>2025-05-14T16:09:48.970091</dc:date>
    <dc:format>image/svg+xml</dc:format>
    <dc:creator>
     <cc:Agent>
      <dc:title>Matplotlib v3.10.1, https://matplotlib.org/</dc:title>
     </cc:Agent>
    </dc:creator>
   </cc:Work>
  </rdf:RDF>
 </metadata>
 <defs>
  <style type="text/css">*{stroke-linejoin: round; stroke-linecap: butt}</style>
 </defs>
 <g id="figure_1">
  <g id="patch_1">
   <path d="M 0 338.4 
L 453.6 338.4 
L 453.6 0 
L 0 0 
z
" style="fill: #ffffff"/>
  </g>
  <g id="axes_1">
   <g id="patch_2">
    <path d="M 7.2 331.2 
L 446.4 331.2 
L 446.4 7.2 
L 7.2 7.2 
z
" style="fill: #ffffff"/>
   </g>
   <g id="matplotlib.axis_1"/>
   <g id="matplotlib.axis_2"/>
   <g id="line2d_1">
    <path d="M 27.163636 316.472689 
L 36.213818 314.637868 
L 44.731636 312.683868 
L 52.717091 310.626577 
L 60.436364 308.40558 
L 67.623273 306.109241 
L 74.544 303.667259 
L 81.198545 301.083932 
L 87.586909 298.365645 
L 93.709091 295.520987 
L 99.565091 292.560823 
L 105.421091 289.346374 
L 111.010909 286.020792 
L 116.334545 282.600853 
L 121.658182 278.914873 
L 126.715636 275.147915 
L 131.773091 271.103094 
L 136.564364 266.996272 
L 141.355636 262.60302 
L 146.146909 257.903301 
L 150.672 253.164094 
L 155.197091 248.113267 
L 159.722182 242.73035 
L 164.247273 236.993503 
L 168.772364 230.879442 
L 173.031273 224.75827 
L 177.290182 218.259033 
L 181.549091 211.358336 
L 185.808 204.031417 
L 190.066909 196.25195 
L 194.325818 187.991985 
L 198.584727 179.221808 
L 202.843636 169.90995 
L 206.836364 160.65838 
L 210.829091 150.872107 
L 214.821818 140.520206 
L 218.814545 129.570022 
L 222.807273 117.986952 
L 226.8 105.734409 
L 426.436364 316.472727 
L 426.436364 316.472727 
" clip-path="url(#p4e16439783)" style="fill: none; stroke-dasharray: 11.1,4.8; stroke-dashoffset: 0; stroke: #000000; stroke-width: 3"/>
   </g>
   <g id="line2d_2">
    <path d="M 27.163636 95.666815 
L 27.429818 92.329173 
L 27.696 91.846674 
L 27.962182 94.080236 
L 28.228364 94.843302 
L 28.494545 97.344598 
L 29.026909 106.265276 
L 29.293091 106.712733 
L 29.825455 115.26508 
L 30.091636 120.806631 
L 30.357818 122.538751 
L 31.156364 136.997434 
L 31.422545 127.734689 
L 31.954909 133.702524 
L 33.285818 157.880274 
L 33.552 159.38583 
L 34.350545 169.346849 
L 34.616727 169.222893 
L 34.882909 170.984376 
L 35.415273 176.506036 
L 35.681455 161.926803 
L 36.213818 168.74754 
L 36.746182 176.09428 
L 37.544727 187.651033 
L 37.810909 188.435272 
L 38.343273 190.594176 
L 38.609455 190.912243 
L 38.875636 188.359165 
L 39.141818 187.067489 
L 39.408 187.055963 
L 39.674182 187.759452 
L 39.940364 177.550687 
L 40.206545 176.580027 
L 40.472727 176.958136 
L 40.738909 177.734668 
L 41.005091 177.6256 
L 41.537455 178.188717 
L 41.803636 177.32659 
L 43.134545 161.080661 
L 43.400727 159.434795 
L 43.666909 159.442959 
L 43.933091 160.47209 
L 44.199273 155.907212 
L 44.465455 155.126309 
L 44.731636 154.834559 
L 45.264 155.244902 
L 45.796364 156.166536 
L 46.328727 157.293737 
L 47.925818 160.031989 
L 48.192 160.677165 
L 48.458182 157.830344 
L 48.990545 157.596916 
L 49.256727 157.691755 
L 49.522909 157.529324 
L 49.789091 157.710189 
L 50.055273 158.05215 
L 50.321455 158.149535 
L 50.853818 157.060519 
L 51.652364 155.02206 
L 51.918545 154.581766 
L 52.184727 154.384047 
L 52.450909 154.344633 
L 52.717091 152.242919 
L 52.983273 151.361699 
L 53.249455 150.998477 
L 53.515636 150.895948 
L 53.781818 151.17483 
L 54.048 151.621075 
L 54.580364 153.801565 
L 55.378909 158.325554 
L 56.177455 161.379697 
L 56.443636 162.030174 
L 56.709818 163.128881 
L 56.976 165.295554 
L 57.508364 167.361296 
L 58.040727 172.035567 
L 59.371636 190.107305 
L 59.904 193.465198 
L 60.170182 194.41681 
L 60.436364 194.469189 
L 60.702545 193.790261 
L 60.968727 192.156246 
L 61.234909 162.186302 
L 61.767273 155.415531 
L 62.033455 154.581362 
L 62.299636 154.961596 
L 62.832 156.144643 
L 63.098182 156.474016 
L 63.364364 157.857398 
L 63.630545 158.515109 
L 63.896727 158.711634 
L 64.162909 158.720202 
L 64.429091 159.136373 
L 65.227636 157.87183 
L 65.493818 159.740537 
L 65.76 159.259215 
L 66.026182 159.064954 
L 66.292364 159.142184 
L 67.357091 161.979261 
L 68.421818 165.495748 
L 68.954182 166.865349 
L 69.486545 167.644163 
L 69.752727 170.3627 
L 70.018909 170.524955 
L 70.551273 171.945828 
L 71.349818 176.020324 
L 72.148364 180.361315 
L 72.946909 183.461807 
L 73.479273 186.379686 
L 74.011636 189.966846 
L 74.544 191.936617 
L 76.141091 196.375326 
L 77.205818 200.27318 
L 78.004364 200.362234 
L 78.270545 201.620422 
L 79.069091 202.707024 
L 79.601455 204.475863 
L 79.867636 205.814239 
L 80.133818 207.916621 
L 80.666182 213.064876 
L 80.932364 214.150759 
L 81.198545 214.531809 
L 81.464727 214.701376 
L 81.997091 213.633972 
L 82.263273 213.639555 
L 82.529455 214.876026 
L 83.061818 215.622607 
L 83.328 216.36967 
L 84.925091 223.185184 
L 85.191273 223.274431 
L 85.723636 222.899104 
L 86.256 221.854532 
L 86.522182 222.140541 
L 86.788364 224.478423 
L 87.320727 226.087421 
L 87.853091 229.357558 
L 88.385455 233.725314 
L 88.917818 237.777733 
L 89.716364 239.838691 
L 90.248727 240.916778 
L 90.514909 241.048064 
L 90.781091 240.106082 
L 91.313455 232.89463 
L 91.579636 232.191501 
L 92.112 234.409166 
L 92.910545 237.620411 
L 93.709091 239.456719 
L 93.975273 239.836338 
L 94.241455 239.835812 
L 95.838545 238.195739 
L 96.370909 238.081623 
L 96.903273 237.780946 
L 97.169455 237.593506 
L 97.701818 236.763911 
L 97.968 236.684512 
L 98.500364 237.151764 
L 99.032727 238.260864 
L 99.298909 238.902327 
L 99.565091 238.654669 
L 100.363636 239.776603 
L 100.629818 239.706176 
L 101.694545 238.848701 
L 101.960727 238.950264 
L 102.226909 239.480911 
L 102.759273 241.063399 
L 103.557818 242.511125 
L 103.824 242.296166 
L 104.356364 242.734915 
L 104.622545 242.830869 
L 104.888727 242.700785 
L 105.687273 241.910595 
L 105.953455 241.868082 
L 106.219636 242.128512 
L 107.816727 245.69467 
L 108.082909 245.956619 
L 108.615273 246.83377 
L 108.881455 247.088253 
L 109.147636 247.127644 
L 109.413818 247.041452 
L 109.68 246.648999 
L 109.946182 245.506946 
L 110.478545 241.011749 
L 111.010909 234.97195 
L 111.543273 225.20894 
L 111.809455 223.071867 
L 112.341818 221.911959 
L 112.608 222.203744 
L 112.874182 222.277129 
L 113.140364 222.003365 
L 113.672727 220.95824 
L 114.205091 219.145993 
L 114.737455 217.046789 
L 115.269818 215.657816 
L 115.536 215.097735 
L 115.802182 214.960884 
L 116.068364 215.292847 
L 117.133091 219.020519 
L 117.399273 219.363437 
L 117.931636 219.450639 
L 118.464 219.368247 
L 119.262545 219.56227 
L 119.794909 219.869742 
L 120.061091 220.194665 
L 121.392 223.188844 
L 121.658182 223.231866 
L 121.924364 222.870891 
L 123.255273 219.907207 
L 123.521455 219.800211 
L 124.053818 220.011948 
L 124.32 219.982225 
L 124.852364 219.486524 
L 125.118545 218.818534 
L 125.384727 217.658222 
L 125.917091 213.217704 
L 126.715636 205.969472 
L 126.981818 205.127297 
L 127.248 205.628626 
L 127.780364 208.739536 
L 128.312727 212.474301 
L 129.643636 218.697141 
L 130.176 219.642599 
L 130.708364 220.126187 
L 131.240727 220.237924 
L 131.773091 220.062888 
L 132.039273 219.809524 
L 132.305455 219.393186 
L 132.837818 217.695678 
L 134.967273 209.685943 
L 135.765818 206.367841 
L 136.298182 205.376719 
L 136.564364 205.143493 
L 137.362909 202.300789 
L 137.629091 200.954407 
L 138.161455 196.685335 
L 138.96 191.038736 
L 139.492364 187.107912 
L 140.290909 182.939604 
L 142.154182 176.061063 
L 142.420364 175.661377 
L 142.686545 175.53894 
L 143.751273 175.965224 
L 144.816 178.115631 
L 145.082182 178.869225 
L 145.348364 179.251039 
L 145.880727 179.297905 
L 146.146909 179.275144 
L 146.413091 178.785446 
L 146.945455 178.52607 
L 147.744 178.623314 
L 148.276364 179.04348 
L 148.808727 179.681888 
L 149.607273 180.855674 
L 150.139636 181.017929 
L 150.405818 180.997476 
L 150.672 180.67437 
L 150.938182 180.633104 
L 151.470545 180.875662 
L 152.535273 181.562612 
L 153.333818 181.892539 
L 153.866182 182.247281 
L 154.398545 182.265153 
L 154.664727 182.168453 
L 154.930909 181.778572 
L 155.197091 181.673963 
L 155.463273 181.75783 
L 155.729455 182.0217 
L 156.261818 183.003096 
L 157.060364 184.581142 
L 157.858909 185.42444 
L 158.657455 186.292309 
L 159.189818 187.426602 
L 159.722182 189.599859 
L 160.254545 193.088282 
L 161.319273 201.447335 
L 162.117818 205.556434 
L 163.448727 211.233967 
L 164.513455 215.614601 
L 165.312 219.025636 
L 166.642909 223.037219 
L 167.175273 225.321502 
L 167.973818 229.854611 
L 168.24 233.6688 
L 168.772364 244.893924 
L 169.304727 247.899401 
L 170.103273 250.741372 
L 170.901818 253.609545 
L 174.096 266.410331 
L 174.628364 267.884383 
L 174.894545 268.111284 
L 175.426909 268.062658 
L 175.959273 268.076242 
L 176.225455 267.974122 
L 177.024 268.230909 
L 177.556364 268.003774 
L 177.822545 267.765878 
L 178.887273 265.487222 
L 179.685818 263.591715 
L 180.218182 263.041909 
L 180.484364 262.787703 
L 181.016727 263.151605 
L 181.549091 263.172616 
L 181.815273 263.193043 
L 182.081455 263.086827 
L 182.613818 262.462925 
L 183.412364 261.464961 
L 183.678545 260.983769 
L 183.944727 260.75678 
L 184.477091 260.708869 
L 184.743273 260.380114 
L 185.275636 260.130258 
L 185.808 259.293069 
L 186.606545 257.958151 
L 186.872727 257.891446 
L 187.671273 258.609687 
L 188.203636 258.439022 
L 188.736 257.805008 
L 189.800727 255.445177 
L 190.599273 253.780806 
L 191.131636 252.954753 
L 191.664 252.564029 
L 192.196364 252.145465 
L 192.728727 251.526716 
L 193.261091 250.469881 
L 194.325818 247.830348 
L 195.390545 245.796554 
L 195.656727 245.34552 
L 195.922909 244.553587 
L 196.455273 241.537805 
L 196.987636 236.730062 
L 197.52 229.027711 
L 198.052364 221.604653 
L 198.318545 220.018523 
L 198.850909 218.836011 
L 199.117091 218.14202 
L 199.649455 215.779384 
L 200.181818 211.665378 
L 200.980364 204.870897 
L 201.512727 202.30114 
L 201.778909 201.712812 
L 202.045091 201.443569 
L 202.311273 201.704008 
L 202.577455 202.19776 
L 203.642182 205.164675 
L 203.908364 205.206371 
L 204.174545 204.64701 
L 204.706909 201.651093 
L 206.304 190.51979 
L 206.836364 188.917235 
L 207.634909 187.622969 
L 208.433455 183.7383 
L 209.498182 175.111321 
L 211.361455 157.949639 
L 212.426182 148.540036 
L 212.958545 144.550302 
L 214.289455 131.754199 
L 215.088 127.078155 
L 215.886545 123.152518 
L 216.418909 121.558865 
L 218.016 118.350209 
L 218.548364 118.125542 
L 218.814545 118.110198 
L 219.346909 118.395522 
L 220.145455 119.293192 
L 220.677818 120.158699 
L 221.210182 121.610112 
L 224.404364 134.232934 
L 224.936727 137.995262 
L 226.267636 150.609763 
L 228.130909 165.990484 
L 228.397091 168.615832 
L 228.929455 177.387835 
L 229.461818 184.981197 
L 229.994182 189.374225 
L 230.526545 191.862275 
L 231.058909 192.805828 
L 231.591273 193.152766 
L 232.123636 193.648959 
L 232.656 194.60489 
L 233.986909 198.011045 
L 234.253091 198.266129 
L 234.519273 198.210949 
L 235.584 197.267089 
L 236.382545 197.293765 
L 236.914909 197.742478 
L 237.447273 198.718159 
L 238.245818 200.712833 
L 238.512 200.96552 
L 238.778182 200.839607 
L 239.044364 200.398242 
L 239.576727 198.763217 
L 240.375273 196.163993 
L 240.907636 194.714871 
L 241.706182 193.496948 
L 242.238545 192.95216 
L 242.770909 192.37857 
L 244.101818 189.649402 
L 244.900364 187.872479 
L 245.432727 187.285283 
L 245.698909 187.133254 
L 245.965091 187.161696 
L 246.497455 187.79833 
L 247.296 189.166587 
L 247.562182 189.316272 
L 248.094545 188.716251 
L 249.425455 185.659642 
L 249.691636 185.832334 
L 249.957818 186.541336 
L 250.490182 189.106975 
L 251.554909 195.791931 
L 251.821091 196.821229 
L 252.353455 197.85152 
L 253.152 198.802561 
L 253.684364 200.622681 
L 254.216727 203.402411 
L 254.749091 207.825039 
L 255.547636 215.621553 
L 256.08 218.438405 
L 256.346182 219.211154 
L 256.612364 219.547277 
L 257.410909 219.418028 
L 258.475636 220.542955 
L 259.008 221.836379 
L 259.806545 224.44288 
L 260.072727 225.962078 
L 260.871273 235.025769 
L 261.403636 236.834408 
L 261.936 238.320362 
L 263.266909 242.341224 
L 264.331636 244.711914 
L 264.597818 245.141437 
L 265.396364 247.047904 
L 265.662545 247.003688 
L 266.727273 246.268519 
L 267.259636 246.164608 
L 268.324364 246.102753 
L 268.856727 245.719008 
L 269.122909 245.387501 
L 270.187636 243.249608 
L 270.72 242.737074 
L 270.986182 242.741209 
L 271.518545 242.334351 
L 272.050909 241.538753 
L 272.583273 239.971574 
L 273.381818 236.837893 
L 274.712727 230.088997 
L 276.309818 223.717279 
L 277.108364 217.923576 
L 278.173091 209.468394 
L 278.971636 205.798939 
L 279.770182 202.706524 
L 280.568727 198.400987 
L 281.367273 192.095545 
L 282.432 183.249376 
L 282.964364 180.262904 
L 283.762909 177.180197 
L 284.561455 174.824224 
L 285.093818 173.714202 
L 285.626182 172.471445 
L 286.158545 171.495378 
L 286.690909 169.543041 
L 287.755636 166.618104 
L 288.021818 166.964085 
L 288.288 168.349556 
L 288.820364 168.576805 
L 289.352727 168.66578 
L 289.885091 168.556071 
L 290.151273 168.593676 
L 290.683636 168.345852 
L 292.280727 168.920978 
L 292.813091 169.139887 
L 293.079273 169.587669 
L 293.877818 168.995417 
L 294.676364 168.468728 
L 295.474909 167.268616 
L 296.007273 166.763715 
L 296.273455 166.806149 
L 296.805818 167.159293 
L 297.072 167.250393 
L 297.604364 167.877925 
L 298.136727 168.927316 
L 298.669091 171.466515 
L 299.201455 174.719018 
L 300 177.58838 
L 300.532364 179.019937 
L 301.064727 180.488379 
L 301.863273 181.513095 
L 302.395636 181.903134 
L 302.928 182.783573 
L 303.992727 184.529615 
L 304.525091 185.005039 
L 305.323636 186.387701 
L 305.589818 186.512816 
L 307.186909 188.40008 
L 307.453091 188.463687 
L 308.251636 187.796337 
L 309.050182 187.353647 
L 309.316364 187.326136 
L 309.582545 187.186538 
L 311.179636 185.338169 
L 311.445818 185.429857 
L 312.244364 186.652686 
L 312.510545 186.526571 
L 313.309091 185.769448 
L 314.107636 185.241074 
L 314.906182 184.851456 
L 315.704727 184.611242 
L 316.237091 184.611743 
L 316.769455 184.752281 
L 317.568 185.19606 
L 318.100364 185.606402 
L 318.632727 185.668745 
L 319.963636 185.551039 
L 320.229818 185.689707 
L 320.762182 185.695755 
L 321.826909 186.256661 
L 322.625455 186.871789 
L 323.424 187.304402 
L 323.956364 187.869591 
L 324.754909 189.05205 
L 325.287273 189.783638 
L 326.085818 191.484876 
L 326.618182 192.527974 
L 327.150545 192.985622 
L 327.682909 193.038598 
L 328.215273 193.09577 
L 328.747636 193.173123 
L 329.546182 192.809278 
L 329.812364 192.870488 
L 330.078545 193.052757 
L 331.143273 194.281714 
L 332.474182 195.041997 
L 333.006545 195.487347 
L 333.538909 195.528306 
L 334.337455 195.521249 
L 335.136 195.923753 
L 335.934545 195.679422 
L 336.466909 195.159976 
L 337.265455 194.29216 
L 338.064 192.912509 
L 338.596364 192.40565 
L 338.862545 192.438867 
L 339.394909 192.651824 
L 340.459636 192.279017 
L 340.992 191.931806 
L 341.258182 191.856244 
L 341.790545 191.510614 
L 342.056727 191.485359 
L 343.653818 192.045738 
L 344.452364 191.541978 
L 345.783273 189.553949 
L 346.315636 188.804428 
L 346.848 188.537634 
L 347.380364 188.560308 
L 347.912727 188.819517 
L 349.509818 189.143782 
L 349.776 189.29639 
L 350.042182 189.60926 
L 350.574545 189.909753 
L 351.905455 191.136814 
L 352.437818 191.406733 
L 352.970182 191.459402 
L 355.632 190.701778 
L 356.164364 190.794976 
L 357.229091 190.986954 
L 358.293818 190.878877 
L 358.56 191.347928 
L 359.092364 191.159593 
L 359.890909 191.212921 
L 360.689455 191.455987 
L 361.221818 191.371585 
L 361.754182 191.690302 
L 362.286545 192.677421 
L 363.351273 194.851995 
L 364.149818 195.756836 
L 365.480727 196.80686 
L 366.013091 197.782269 
L 366.811636 199.63809 
L 368.408727 201.969432 
L 369.473455 203.464446 
L 370.005818 204.852129 
L 371.070545 208.668706 
L 371.336727 209.168963 
L 371.869091 209.458369 
L 372.135273 209.523442 
L 372.667636 210.006213 
L 373.466182 210.972116 
L 374.264727 212.325722 
L 374.797091 213.077877 
L 375.063273 213.068291 
L 375.329455 212.877147 
L 375.595636 211.419353 
L 376.128 210.699291 
L 376.394182 210.707718 
L 376.660364 211.101084 
L 377.192727 212.810003 
L 378.257455 216.884991 
L 379.056 218.779453 
L 379.588364 219.512726 
L 379.854545 219.596022 
L 380.919273 220.524881 
L 381.984 222.192885 
L 382.516364 222.523689 
L 383.048727 222.841458 
L 383.581091 223.461634 
L 383.847273 223.5631 
L 384.113455 223.101282 
L 384.645818 223.256287 
L 385.178182 223.320902 
L 385.976727 224.068984 
L 386.509091 224.249568 
L 386.775273 224.1428 
L 387.307636 223.533509 
L 387.84 222.713218 
L 388.106182 222.174126 
L 388.372364 221.103431 
L 389.437091 220.029381 
L 391.034182 219.650859 
L 391.566545 219.749587 
L 392.365091 220.476443 
L 392.631273 220.351636 
L 393.696 221.414782 
L 395.559273 222.844513 
L 396.357818 223.264231 
L 396.890182 223.52438 
L 397.688727 225.148195 
L 398.487273 227.147223 
L 400.350545 231.792298 
L 402.213818 237.375984 
L 405.940364 246.314705 
L 408.069818 250.643697 
L 408.868364 251.642088 
L 409.400727 251.976267 
L 409.666909 251.127087 
L 410.997818 251.750563 
L 411.530182 251.71528 
L 412.062545 251.463834 
L 412.861091 250.988353 
L 413.659636 250.624609 
L 413.925818 251.775327 
L 414.724364 251.787818 
L 414.990545 252.151211 
L 415.522909 252.450655 
L 415.789091 252.39225 
L 416.055273 252.6428 
L 416.587636 252.495108 
L 416.853818 252.271559 
L 417.918545 252.480084 
L 418.184727 254.8189 
L 418.450909 255.397327 
L 418.983273 258.355116 
L 419.515636 262.50772 
L 419.781818 263.720345 
L 420.048 264.229697 
L 420.314182 265.002256 
L 420.846545 265.085925 
L 421.112727 264.718069 
L 421.645091 264.745948 
L 421.911273 264.937904 
L 422.177455 264.823156 
L 422.443636 268.121792 
L 422.976 268.213164 
L 423.242182 267.91041 
L 423.508364 268.610098 
L 423.774545 268.55221 
L 424.040727 268.367404 
L 424.306909 267.564442 
L 424.573091 267.419751 
L 425.105455 265.043681 
L 425.904 258.379585 
L 426.170182 253.839971 
L 426.436364 243.336805 
L 426.436364 243.336805 
" clip-path="url(#p4e16439783)" style="fill: none; stroke: #0000ff; stroke-width: 3; stroke-linecap: square"/>
   </g>
   <g id="patch_3">
    <path d="M 7.2 331.2 
L 7.2 7.2 
" style="fill: none; stroke: #000000; stroke-width: 0.8; stroke-linejoin: miter; stroke-linecap: square"/>
   </g>
   <g id="patch_4">
    <path d="M 446.4 331.2 
L 446.4 7.2 
" style="fill: none; stroke: #000000; stroke-width: 0.8; stroke-linejoin: miter; stroke-linecap: square"/>
   </g>
   <g id="patch_5">
    <path d="M 7.2 331.2 
L 446.4 331.2 
" style="fill: none; stroke: #000000; stroke-width: 0.8; stroke-linejoin: miter; stroke-linecap: square"/>
   </g>
   <g id="patch_6">
    <path d="M 7.2 7.2 
L 446.4 7.2 
" style="fill: none; stroke: #000000; stroke-width: 0.8; stroke-linejoin: miter; stroke-linecap: square"/>
   </g>
  </g>
 </g>
 <defs>
  <clipPath id="p4e16439783">
   <rect x="7.2" y="7.2" width="439.2" height="324"/>
  </clipPath>
 </defs>
</svg>
