<?xml version="1.0" encoding="utf-8" standalone="no"?>
<!DOCTYPE svg PUBLIC "-//W3C//DTD SVG 1.1//EN"
  "http://www.w3.org/Graphics/SVG/1.1/DTD/svg11.dtd">
<svg xmlns:xlink="http://www.w3.org/1999/xlink" width="453.6pt" height="338.4pt" viewBox="0 0 453.6 338.4" xmlns="http://www.w3.org/2000/svg" version="1.1">
 <metadata>
  <rdf:RDF xmlns:dc="http://purl.org/dc/elements/1.1/" xmlns:cc="http://creativecommons.org/ns#" xmlns:rdf="http://www.w3.org/1999/02/22-rdf-syntax-ns#">
   <cc:Work>
    <dc:type rdf:resource="http://purl.org/dc/dcmitype/StillImage"/>
    <dc:date>2025-05-14T16:11:48.001928</dc:date>
    <dc:format>image/svg+xml</dc:format>
    <dc:creator>
     <cc:Agent>
      <dc:title>Matplotlib v3.10.1, https://matplotlib.org/</dc:title>
     </cc:Agent>
    </dc:creator>
   </cc:Work>
  </rdf:RDF>
 </metadata>
 <defs>
  <style type="text/css">*{stroke-linejoin: round; stroke-linecap: butt}</style>
 </defs>
 <g id="figure_1">
  <g id="patch_1">
   <path d="M 0 338.4 
L 453.6 338.4 
L 453.6 0 
L 0 0 
z
" style="fill: #ffffff"/>
  </g>
  <g id="axes_1">
   <g id="patch_2">
    <path d="M 7.2 331.2 
L 446.4 331.2 
L 446.4 7.2 
L 7.2 7.2 
z
" style="fill: #ffffff"/>
   </g>
   <g id="matplotlib.axis_1"/>
   <g id="matplotlib.axis_2"/>
   <g id="line2d_1">
    <path d="M 27.163636 316.471356 
L 27.696 244.047712 
L 28.228364 192.598752 
L 28.760727 156.050629 
L 29.293091 130.087722 
L 29.825455 111.644308 
L 30.357818 98.54255 
L 30.890182 89.235388 
L 31.422545 82.6238 
L 31.954909 77.927074 
L 32.487273 74.590644 
L 33.019636 72.220529 
L 33.552 70.536847 
L 34.350545 68.879745 
L 35.149091 67.887587 
L 35.681455 67.458846 
L 38.875636 67.21074 
L 376.394182 42.019853 
L 376.660364 42.741767 
L 426.436364 316.472727 
L 426.436364 316.472727 
" clip-path="url(#pd2092472d8)" style="fill: none; stroke-dasharray: 11.1,4.8; stroke-dashoffset: 0; stroke: #000000; stroke-width: 3"/>
   </g>
   <g id="line2d_2">
    <path d="M 27.163636 145.906911 
L 27.429818 141.695458 
L 27.696 140.647191 
L 27.962182 140.67205 
L 29.026909 144.769352 
L 29.559273 147.482095 
L 30.091636 149.621257 
L 30.624 152.235826 
L 31.954909 156.714537 
L 32.221091 157.0529 
L 32.487273 157.841808 
L 32.753455 158.240915 
L 33.019636 158.143776 
L 33.285818 157.77994 
L 33.552 157.683065 
L 34.084364 157.019824 
L 34.350545 156.959272 
L 34.616727 157.277637 
L 34.882909 157.827377 
L 35.149091 158.855385 
L 35.415273 160.409133 
L 35.681455 165.280421 
L 38.343273 186.014639 
L 39.141818 190.086352 
L 39.408 190.907994 
L 39.674182 191.286991 
L 39.940364 190.939929 
L 40.206545 191.242836 
L 40.472727 191.326685 
L 40.738909 190.961743 
L 41.005091 190.259 
L 41.271273 189.009099 
L 41.537455 187.032104 
L 42.069818 180.766198 
L 42.602182 170.539948 
L 43.134545 160.786049 
L 43.400727 157.683504 
L 43.666909 155.898838 
L 43.933091 156.046223 
L 44.199273 165.5165 
L 44.731636 167.483997 
L 44.997818 169.35482 
L 46.328727 183.752231 
L 46.594909 186.385673 
L 47.127273 199.303292 
L 47.393455 201.415128 
L 47.659636 201.863436 
L 47.925818 201.989525 
L 48.458182 201.901507 
L 49.522909 202.686913 
L 49.789091 202.782051 
L 50.055273 202.725151 
L 50.853818 201.698346 
L 51.12 201.309553 
L 51.386182 201.1544 
L 51.918545 201.317805 
L 52.450909 202.035286 
L 52.717091 200.231431 
L 52.983273 200.798578 
L 53.781818 203.88074 
L 54.314182 205.17728 
L 55.112727 205.450658 
L 55.378909 205.835667 
L 55.645091 206.900508 
L 56.443636 212.29499 
L 56.709818 213.170021 
L 56.976 213.26285 
L 58.040727 214.799103 
L 58.573091 214.716799 
L 58.839273 214.297977 
L 59.904 212.028442 
L 60.436364 211.111872 
L 60.702545 211.053498 
L 60.968727 211.396442 
L 61.234909 224.388561 
L 61.501091 230.037399 
L 61.767273 232.645717 
L 62.299636 234.988769 
L 62.832 236.663322 
L 63.630545 238.487533 
L 64.162909 239.417797 
L 64.695273 240.815074 
L 65.227636 242.780219 
L 65.76 244.894872 
L 66.292364 246.17074 
L 66.558545 246.530191 
L 66.824727 246.562332 
L 67.090909 246.390873 
L 67.623273 245.378271 
L 68.155636 244.031455 
L 68.421818 243.650356 
L 68.688 243.508234 
L 68.954182 243.548841 
L 69.486545 244.184686 
L 70.018909 245.552421 
L 70.817455 246.938111 
L 71.349818 247.352856 
L 71.882182 247.487544 
L 72.680727 247.237731 
L 73.479273 246.86513 
L 73.745455 246.630525 
L 74.011636 246.163937 
L 74.277818 244.820104 
L 74.810182 239.074159 
L 75.076364 237.929911 
L 75.342545 237.398798 
L 75.608727 236.559301 
L 75.874909 234.266442 
L 76.407273 223.950005 
L 77.205818 205.041667 
L 77.738182 197.481556 
L 78.270545 186.431714 
L 78.802909 180.556497 
L 79.335273 173.586401 
L 80.666182 163.364381 
L 81.464727 152.979264 
L 82.263273 142.520761 
L 82.795636 137.821157 
L 83.594182 132.506872 
L 83.860364 131.53299 
L 84.392727 129.067685 
L 85.457455 126.569461 
L 86.256 125.439715 
L 86.522182 124.760796 
L 86.788364 123.568971 
L 87.853091 122.890614 
L 88.119273 123.157381 
L 88.385455 122.949691 
L 88.651636 122.924796 
L 88.917818 123.075587 
L 89.184 123.010909 
L 89.982545 122.312047 
L 90.514909 121.677264 
L 91.313455 120.17938 
L 91.845818 119.197668 
L 92.112 118.95167 
L 92.378182 118.960536 
L 92.910545 118.227473 
L 93.176727 118.183618 
L 94.773818 116.693441 
L 95.04 116.010572 
L 95.306182 117.027379 
L 96.104727 116.407063 
L 96.370909 116.478078 
L 96.637091 116.749147 
L 97.169455 116.448917 
L 97.435636 116.527218 
L 97.701818 116.412102 
L 98.234182 116.005604 
L 99.032727 115.335182 
L 99.565091 114.321588 
L 100.097455 113.575306 
L 100.363636 113.135486 
L 100.629818 112.95578 
L 100.896 112.930832 
L 101.428364 112.184585 
L 101.694545 112.021751 
L 103.291636 110.150691 
L 104.090182 108.303384 
L 104.622545 107.49634 
L 104.888727 107.484436 
L 105.154909 107.654802 
L 105.421091 107.261121 
L 105.687273 106.470807 
L 105.953455 103.132832 
L 106.219636 97.849464 
L 106.485818 95.795379 
L 106.752 95.401451 
L 107.018182 95.262722 
L 107.550545 95.131032 
L 108.082909 94.271512 
L 108.349091 94.091314 
L 108.881455 93.350913 
L 109.147636 93.265432 
L 109.413818 93.340959 
L 109.68 93.048489 
L 110.212364 92.932424 
L 110.744727 92.72993 
L 111.543273 92.894187 
L 111.809455 92.7744 
L 112.075636 92.333281 
L 112.341818 91.566599 
L 112.608 91.351078 
L 113.140364 90.785924 
L 113.406545 90.98143 
L 113.672727 91.37348 
L 113.938909 91.318406 
L 115.003636 91.931471 
L 115.802182 91.895603 
L 116.068364 91.720058 
L 116.600727 90.876461 
L 116.866909 90.670193 
L 117.399273 89.874946 
L 117.665455 89.800191 
L 117.931636 89.854546 
L 118.197818 89.540201 
L 119.262545 89.317429 
L 120.061091 89.264743 
L 120.327273 89.058 
L 120.859636 88.081713 
L 121.125818 87.847389 
L 121.658182 87.081093 
L 122.722909 86.62412 
L 123.255273 86.511532 
L 124.053818 86.295485 
L 124.586182 86.186952 
L 125.118545 85.768603 
L 125.384727 85.687265 
L 125.917091 85.356856 
L 127.780364 85.660298 
L 128.578909 86.062565 
L 128.845091 86.107018 
L 129.111273 86.034142 
L 129.377455 85.31228 
L 129.909818 84.865526 
L 130.442182 84.480727 
L 130.708364 84.421141 
L 131.240727 84.160378 
L 133.104 83.783006 
L 133.902545 83.307582 
L 134.434909 83.079929 
L 135.765818 83.095432 
L 136.564364 83.039322 
L 137.362909 82.885318 
L 138.427636 82.212913 
L 138.96 82.142354 
L 139.492364 82.097989 
L 141.355636 81.963245 
L 141.888 81.909786 
L 142.686545 81.660715 
L 143.218909 81.67562 
L 144.017455 81.808469 
L 144.816 81.957434 
L 145.348364 82.383033 
L 145.880727 82.651117 
L 146.679273 82.703769 
L 146.945455 82.618568 
L 147.477818 82.883914 
L 147.744 83.116956 
L 148.010182 83.167377 
L 148.542545 83.534198 
L 150.139636 84.16417 
L 150.672 83.750053 
L 151.204364 83.393994 
L 151.736727 83.544153 
L 152.002909 83.794452 
L 152.269091 83.832146 
L 152.801455 84.249406 
L 153.333818 84.544158 
L 153.866182 85.248691 
L 154.398545 85.740039 
L 154.664727 85.723413 
L 154.930909 85.296673 
L 155.463273 85.18189 
L 155.995636 85.642935 
L 156.261818 86.031719 
L 156.528 86.149364 
L 157.060364 86.789641 
L 157.592727 86.926896 
L 157.858909 87.285237 
L 158.657455 87.721563 
L 158.923636 87.553936 
L 159.722182 86.515026 
L 159.988364 86.320906 
L 160.254545 86.311057 
L 160.520727 86.442957 
L 160.786909 86.397118 
L 161.319273 86.797928 
L 161.851636 86.978775 
L 162.117818 87.409027 
L 162.916364 88.066246 
L 163.182545 88.01054 
L 164.247273 87.273878 
L 164.513455 87.278812 
L 164.779636 87.41561 
L 165.045818 87.344525 
L 165.312 87.53329 
L 166.642909 87.368665 
L 167.175273 87.484343 
L 167.441455 87.292576 
L 168.24 86.375471 
L 168.772364 86.204982 
L 169.570909 86.442589 
L 170.103273 86.267342 
L 171.434182 86.901387 
L 171.700364 86.804722 
L 172.232727 86.404509 
L 172.498909 86.211548 
L 173.031273 86.223978 
L 173.829818 86.507336 
L 174.362182 86.327595 
L 174.894545 86.513674 
L 175.160727 86.398698 
L 175.693091 86.691168 
L 175.959273 86.533039 
L 176.757818 85.740864 
L 177.290182 85.49153 
L 177.822545 85.416266 
L 178.088727 85.552134 
L 178.621091 85.259085 
L 179.153455 85.41674 
L 179.419636 85.195882 
L 179.952 85.242266 
L 180.218182 85.049498 
L 180.484364 85.619463 
L 181.282909 85.132644 
L 182.081455 85.009048 
L 182.347636 85.130397 
L 182.613818 84.892668 
L 182.88 84.813787 
L 183.412364 84.922197 
L 183.678545 84.735328 
L 184.210909 84.820757 
L 184.743273 84.494509 
L 185.541818 84.0924 
L 186.340364 83.966486 
L 186.606545 84.123475 
L 186.872727 83.967522 
L 187.138909 83.959991 
L 187.671273 84.183025 
L 187.937455 84.096789 
L 188.469818 84.367401 
L 188.736 84.33738 
L 189.268364 84.415453 
L 189.534545 84.288521 
L 190.066909 84.397686 
L 190.599273 84.458396 
L 190.865455 84.638418 
L 191.397818 84.468385 
L 191.930182 84.548512 
L 192.196364 84.420176 
L 192.462545 84.518982 
L 192.994909 84.410204 
L 193.793455 83.926809 
L 194.325818 83.926458 
L 194.858182 83.948526 
L 195.124364 84.156621 
L 195.390545 84.073861 
L 196.455273 84.3871 
L 196.721455 84.602076 
L 197.786182 84.780413 
L 198.052364 84.706606 
L 198.584727 84.826902 
L 199.117091 84.89653 
L 199.383273 85.059593 
L 199.915636 84.918932 
L 201.246545 84.822232 
L 201.778909 84.634152 
L 202.577455 84.381868 
L 203.376 84.393543 
L 203.642182 84.58768 
L 203.908364 84.533554 
L 205.505455 84.960751 
L 205.771636 84.98626 
L 206.037818 84.704886 
L 206.836364 84.562346 
L 207.634909 84.550355 
L 207.901091 84.639998 
L 208.433455 84.531465 
L 210.030545 84.34363 
L 210.829091 83.786218 
L 212.958545 83.633268 
L 213.490909 83.718363 
L 214.023273 83.776527 
L 214.289455 83.807391 
L 215.088 83.486656 
L 215.620364 83.525402 
L 216.152727 83.545083 
L 216.418909 83.6487 
L 217.217455 83.547892 
L 218.016 83.491378 
L 218.814545 83.225348 
L 219.613091 82.937408 
L 220.411636 82.855508 
L 221.210182 82.848345 
L 222.008727 82.88667 
L 222.541091 82.990884 
L 223.339636 82.866428 
L 224.138182 82.825679 
L 224.936727 82.973626 
L 225.469091 82.910178 
L 226.267636 82.826101 
L 226.8 82.87043 
L 227.598545 82.630313 
L 228.130909 82.466127 
L 228.929455 82.473922 
L 229.728 82.460544 
L 230.526545 82.458262 
L 231.058909 82.571289 
L 231.857455 82.490232 
L 232.656 82.346095 
L 233.454545 82.454417 
L 234.253091 82.327731 
L 234.519273 82.374009 
L 234.785455 82.255504 
L 235.317818 82.337615 
L 235.584 82.283823 
L 235.850182 82.0982 
L 236.382545 81.909768 
L 239.044364 80.931743 
L 239.310545 81.025389 
L 239.842909 80.803477 
L 240.109091 80.563904 
L 240.375273 80.545734 
L 240.907636 80.185373 
L 243.037091 79.383016 
L 243.303273 79.106803 
L 243.569455 79.331928 
L 243.835636 79.259315 
L 247.562182 76.024588 
L 247.828364 76.815341 
L 248.094545 76.615884 
L 248.626909 75.883032 
L 248.893091 75.797709 
L 249.425455 75.046142 
L 251.554909 73.318587 
L 251.821091 72.949378 
L 252.087273 73.255261 
L 252.619636 72.782787 
L 252.885818 72.514632 
L 253.152 72.491107 
L 253.684364 71.803515 
L 254.216727 71.716418 
L 254.482909 71.476617 
L 255.015273 71.245893 
L 255.281455 71.173069 
L 256.08 70.500927 
L 256.346182 72.741635 
L 257.144727 72.24344 
L 257.410909 72.447163 
L 257.943273 71.97985 
L 258.209455 71.988084 
L 258.475636 72.144792 
L 258.741818 72.001778 
L 259.540364 72.06175 
L 260.338909 71.576618 
L 260.605091 72.491581 
L 261.403636 72.010679 
L 261.669818 72.19272 
L 262.202182 71.647036 
L 263.000727 71.607499 
L 264.065455 71.388871 
L 264.597818 71.135832 
L 264.864 73.773628 
L 265.662545 73.574399 
L 265.928727 73.763322 
L 266.461091 73.473802 
L 267.259636 73.604649 
L 268.058182 73.570818 
L 268.856727 73.080401 
L 269.122909 73.697153 
L 269.389091 73.596625 
L 269.921455 73.163811 
L 270.187636 73.176802 
L 270.72 72.599938 
L 271.784727 72.17332 
L 272.849455 71.292785 
L 273.115636 71.025263 
L 273.381818 73.869274 
L 274.712727 72.760455 
L 275.245091 72.244915 
L 275.777455 71.937347 
L 277.374545 70.355877 
L 277.640727 70.644853 
L 277.906909 70.414269 
L 278.439273 69.773606 
L 278.705455 69.62292 
L 279.504 68.832484 
L 280.834909 67.956548 
L 281.633455 67.327753 
L 281.899636 68.271894 
L 282.165818 68.088677 
L 282.432 67.762675 
L 283.230545 67.343905 
L 283.496727 67.085704 
L 284.295273 66.904243 
L 285.892364 66.0752 
L 286.158545 66.4222 
L 286.424727 66.36286 
L 286.690909 66.120513 
L 287.489455 66.020758 
L 287.755636 65.821653 
L 288.554182 65.935084 
L 289.086545 65.898163 
L 289.618909 65.945143 
L 289.885091 65.789296 
L 290.151273 65.769791 
L 290.417455 69.474447 
L 290.683636 69.414668 
L 290.949818 69.188771 
L 291.216 69.230151 
L 291.482182 69.43189 
L 292.014545 69.142124 
L 292.813091 69.474271 
L 293.345455 69.511648 
L 293.611636 69.716548 
L 293.877818 69.718567 
L 294.410182 69.535139 
L 294.676364 70.137863 
L 294.942545 70.15793 
L 295.208727 69.956419 
L 296.007273 70.223433 
L 296.273455 70.075275 
L 296.805818 70.467588 
L 297.604364 70.645363 
L 298.136727 70.856371 
L 298.402909 70.710602 
L 298.669091 70.69847 
L 298.935273 72.508294 
L 299.201455 72.46472 
L 299.467636 72.205185 
L 300 72.415334 
L 300.532364 72.042596 
L 301.064727 72.254325 
L 301.863273 72.142492 
L 302.395636 72.226112 
L 302.928 71.959222 
L 303.194182 72.485454 
L 303.460364 72.51314 
L 303.726545 72.26349 
L 304.258909 72.509909 
L 304.791273 72.232046 
L 305.057455 72.420302 
L 305.589818 72.452061 
L 306.122182 72.401798 
L 306.654545 72.422181 
L 306.920727 72.192422 
L 307.186909 72.123285 
L 307.453091 76.102644 
L 307.719273 75.944163 
L 307.985455 75.602676 
L 308.517818 75.632662 
L 309.050182 75.11886 
L 309.316364 75.197108 
L 309.848727 75.007185 
L 310.381091 74.774669 
L 310.913455 74.648106 
L 311.445818 74.122892 
L 311.712 74.452547 
L 311.978182 74.391152 
L 312.244364 74.052123 
L 312.776727 73.978738 
L 313.042909 73.843238 
L 313.309091 73.57842 
L 313.575273 73.65651 
L 314.107636 73.441323 
L 314.64 73.324468 
L 315.704727 72.971692 
L 315.970909 73.916887 
L 316.237091 73.787339 
L 316.503273 73.42417 
L 317.035636 73.375961 
L 317.568 72.979259 
L 317.834182 73.076854 
L 319.697455 72.374673 
L 319.963636 72.217439 
L 320.229818 72.523814 
L 320.496 72.5117 
L 320.762182 72.260224 
L 321.294545 72.291896 
L 322.359273 72.209855 
L 323.690182 72.337226 
L 323.956364 72.253096 
L 324.222545 72.412771 
L 324.488727 74.698826 
L 325.021091 74.347455 
L 325.819636 74.364274 
L 326.085818 74.241046 
L 326.618182 74.244118 
L 328.481455 73.986199 
L 328.747636 74.207672 
L 329.013818 74.227458 
L 329.28 74.091625 
L 331.143273 74.589749 
L 331.941818 74.815628 
L 332.208 75.022564 
L 332.740364 75.052796 
L 333.006545 76.401048 
L 333.272727 76.573538 
L 333.538909 76.536933 
L 335.668364 77.292327 
L 336.200727 77.353528 
L 336.466909 77.508585 
L 336.999273 77.477844 
L 337.531636 77.980902 
L 337.797818 78.00541 
L 339.394909 79.151063 
L 339.927273 79.620974 
L 340.459636 79.841569 
L 340.725818 80.085917 
L 341.258182 80.142712 
L 341.524364 81.883522 
L 341.790545 81.950534 
L 342.056727 81.864631 
L 342.589091 81.841843 
L 343.387636 81.748461 
L 343.653818 81.603218 
L 344.186182 81.483906 
L 344.984727 81.154234 
L 345.517091 80.703073 
L 346.049455 80.64842 
L 346.315636 80.400473 
L 347.114182 80.077367 
L 347.380364 79.854666 
L 347.646545 79.779999 
L 347.912727 79.531174 
L 348.178909 79.505243 
L 349.776 78.70243 
L 350.042182 78.804765 
L 351.373091 78.26512 
L 351.639273 78.05427 
L 352.171636 77.863801 
L 352.704 77.571209 
L 354.301091 76.819642 
L 354.567273 76.879948 
L 355.099636 76.811864 
L 355.365818 76.805334 
L 355.632 76.915815 
L 355.898182 76.856756 
L 356.696727 77.131863 
L 357.229091 77.127456 
L 357.761455 77.162393 
L 358.027636 77.093063 
L 358.293818 77.140764 
L 358.826182 76.170095 
L 359.092364 76.102661 
L 360.423273 76.497133 
L 360.955636 76.797152 
L 361.488 76.961426 
L 361.754182 77.112551 
L 362.552727 77.141361 
L 363.085091 77.328809 
L 363.617455 77.408304 
L 364.149818 77.579126 
L 364.416 77.53664 
L 365.214545 77.759886 
L 365.746909 77.799335 
L 366.279273 77.829777 
L 366.811636 77.822298 
L 367.077818 78.629624 
L 367.610182 78.535154 
L 368.142545 78.3101 
L 372.667636 76.41892 
L 373.2 76.114529 
L 374.264727 75.786911 
L 375.063273 75.788509 
L 375.329455 75.948043 
L 375.595636 78.347881 
L 376.128 78.57527 
L 377.192727 79.721449 
L 378.789818 82.916551 
L 381.451636 88.828434 
L 383.847273 96.036462 
L 385.178182 101.741129 
L 386.242909 107.457681 
L 387.307636 112.263483 
L 389.437091 121.952424 
L 390.768 131.214835 
L 392.897455 148.918005 
L 393.429818 151.282292 
L 394.228364 156.790328 
L 395.825455 170.214077 
L 396.357818 174.33012 
L 399.019636 188.275729 
L 400.084364 193.623099 
L 400.616727 196.848968 
L 400.882909 197.935412 
L 401.415273 200.618205 
L 403.278545 206.568071 
L 404.343273 211.548479 
L 408.069818 236.528244 
L 409.134545 245.282063 
L 409.400727 246.887918 
L 409.666909 243.181538 
L 410.731636 248.951961 
L 411.530182 252.333046 
L 412.062545 253.836741 
L 412.594909 255.355798 
L 412.861091 255.719489 
L 413.659636 257.387445 
L 413.925818 257.288059 
L 414.724364 258.811101 
L 416.321455 260.986763 
L 417.12 262.020547 
L 417.918545 262.893879 
L 418.184727 261.830465 
L 420.048 264.001689 
L 420.314182 264.018749 
L 420.846545 264.707122 
L 421.112727 265.174444 
L 421.378909 265.377417 
L 422.177455 266.749321 
L 422.443636 266.407285 
L 422.976 267.146685 
L 423.242182 267.642703 
L 424.306909 268.695579 
L 425.105455 268.498883 
L 425.371636 268.443274 
L 425.904 266.926446 
L 426.170182 265.248602 
L 426.436364 259.59645 
L 426.436364 259.59645 
" clip-path="url(#pd2092472d8)" style="fill: none; stroke: #0000ff; stroke-width: 3; stroke-linecap: square"/>
   </g>
   <g id="patch_3">
    <path d="M 7.2 331.2 
L 7.2 7.2 
" style="fill: none; stroke: #000000; stroke-width: 0.8; stroke-linejoin: miter; stroke-linecap: square"/>
   </g>
   <g id="patch_4">
    <path d="M 446.4 331.2 
L 446.4 7.2 
" style="fill: none; stroke: #000000; stroke-width: 0.8; stroke-linejoin: miter; stroke-linecap: square"/>
   </g>
   <g id="patch_5">
    <path d="M 7.2 331.2 
L 446.4 331.2 
" style="fill: none; stroke: #000000; stroke-width: 0.8; stroke-linejoin: miter; stroke-linecap: square"/>
   </g>
   <g id="patch_6">
    <path d="M 7.2 7.2 
L 446.4 7.2 
" style="fill: none; stroke: #000000; stroke-width: 0.8; stroke-linejoin: miter; stroke-linecap: square"/>
   </g>
  </g>
 </g>
 <defs>
  <clipPath id="pd2092472d8">
   <rect x="7.2" y="7.2" width="439.2" height="324"/>
  </clipPath>
 </defs>
</svg>
