<?xml version="1.0" encoding="utf-8" standalone="no"?>
<!DOCTYPE svg PUBLIC "-//W3C//DTD SVG 1.1//EN"
  "http://www.w3.org/Graphics/SVG/1.1/DTD/svg11.dtd">
<svg xmlns:xlink="http://www.w3.org/1999/xlink" width="453.6pt" height="338.4pt" viewBox="0 0 453.6 338.4" xmlns="http://www.w3.org/2000/svg" version="1.1">
 <metadata>
  <rdf:RDF xmlns:dc="http://purl.org/dc/elements/1.1/" xmlns:cc="http://creativecommons.org/ns#" xmlns:rdf="http://www.w3.org/1999/02/22-rdf-syntax-ns#">
   <cc:Work>
    <dc:type rdf:resource="http://purl.org/dc/dcmitype/StillImage"/>
    <dc:date>2025-05-14T16:04:36.210321</dc:date>
    <dc:format>image/svg+xml</dc:format>
    <dc:creator>
     <cc:Agent>
      <dc:title>Matplotlib v3.10.1, https://matplotlib.org/</dc:title>
     </cc:Agent>
    </dc:creator>
   </cc:Work>
  </rdf:RDF>
 </metadata>
 <defs>
  <style type="text/css">*{stroke-linejoin: round; stroke-linecap: butt}</style>
 </defs>
 <g id="figure_1">
  <g id="patch_1">
   <path d="M 0 338.4 
L 453.6 338.4 
L 453.6 0 
L 0 0 
z
" style="fill: #ffffff"/>
  </g>
  <g id="axes_1">
   <g id="patch_2">
    <path d="M 7.2 331.2 
L 446.4 331.2 
L 446.4 7.2 
L 7.2 7.2 
z
" style="fill: #ffffff"/>
   </g>
   <g id="matplotlib.axis_1"/>
   <g id="matplotlib.axis_2"/>
   <g id="line2d_1">
    <path d="M 27.163636 316.472688 
L 29.559273 314.437142 
L 31.688727 312.342918 
L 33.818182 309.939327 
L 35.947636 307.180669 
L 38.077091 304.014491 
L 39.940364 300.862679 
L 41.803636 297.307035 
L 43.666909 293.295821 
L 45.530182 288.770664 
L 47.393455 283.665716 
L 49.256727 277.906691 
L 51.12 271.40978 
L 52.983273 264.080447 
L 54.846545 255.812037 
L 56.709818 246.484211 
L 58.573091 235.961264 
L 60.436364 224.090034 
L 62.299636 210.697799 
L 64.162909 195.589648 
L 66.026182 178.545742 
L 67.889455 159.318098 
L 69.752727 137.626844 
L 71.616 113.156431 
L 73.479273 85.550677 
L 75.342545 54.407878 
L 77.205818 22.466496 
L 81.464727 39.213815 
L 85.723636 55.015325 
L 89.982545 69.924379 
L 94.241455 83.991399 
L 98.500364 97.263944 
L 102.759273 109.786889 
L 107.018182 121.602545 
L 111.277091 132.750851 
L 115.536 143.269554 
L 119.794909 153.194188 
L 124.053818 162.558285 
L 128.312727 171.393516 
L 132.571636 179.729746 
L 136.830545 187.595151 
L 141.089455 195.016365 
L 145.614545 202.44267 
L 150.139636 209.42417 
L 154.664727 215.987479 
L 159.189818 222.15758 
L 163.714909 227.958156 
L 168.24 233.411259 
L 173.031273 238.829512 
L 177.822545 243.904751 
L 182.613818 248.658692 
L 187.405091 253.111631 
L 192.462545 257.506494 
L 197.52 261.608185 
L 202.843636 265.630521 
L 208.167273 269.370921 
L 213.490909 272.849153 
L 219.080727 276.239218 
L 224.936727 279.523892 
L 230.792727 282.556247 
L 236.914909 285.477629 
L 243.303273 288.276626 
L 249.957818 290.943987 
L 256.878545 293.472617 
L 264.065455 295.85755 
L 271.518545 298.095659 
L 279.504 300.253958 
L 287.755636 302.250352 
L 296.539636 304.142357 
L 305.856 305.91598 
L 315.704727 307.561196 
L 326.352 309.107816 
L 337.797818 310.537898 
L 350.042182 311.839555 
L 363.351273 313.028186 
L 377.991273 314.10895 
L 394.228364 315.080216 
L 412.328727 315.937155 
L 426.436364 316.472727 
L 426.436364 316.472727 
" clip-path="url(#pc1da10aad3)" style="fill: none; stroke-dasharray: 11.1,4.8; stroke-dashoffset: 0; stroke: #000000; stroke-width: 3"/>
   </g>
   <g id="line2d_2">
    <path d="M 27.163636 304.245313 
L 29.293091 304.042749 
L 31.422545 303.609695 
L 33.818182 302.891373 
L 36.746182 301.752074 
L 40.472727 300.025328 
L 44.731636 297.821472 
L 46.328727 296.627618 
L 47.925818 295.155246 
L 49.522909 293.371032 
L 51.12 291.240525 
L 52.717091 288.725031 
L 54.314182 285.790423 
L 55.911273 282.401065 
L 57.508364 278.516499 
L 59.105455 274.099818 
L 60.702545 269.105299 
L 61.767273 265.383952 
L 63.896727 254.192286 
L 66.026182 244.248994 
L 67.889455 236.534433 
L 69.752727 229.706182 
L 71.616 223.73394 
L 73.213091 219.270529 
L 74.810182 215.389415 
L 76.407273 212.069743 
L 78.004364 209.281095 
L 78.802909 208.146424 
L 79.601455 207.748107 
L 81.198545 206.912428 
L 83.061818 205.661535 
L 85.191273 203.956671 
L 88.651636 200.839554 
L 92.378182 197.533356 
L 94.507636 195.919548 
L 94.773818 195.740456 
L 95.306182 195.720688 
L 96.370909 195.910296 
L 97.701818 196.389143 
L 99.032727 197.102595 
L 100.629818 198.21655 
L 102.493091 199.790452 
L 105.154909 202.358804 
L 109.946182 207.302336 
L 113.672727 212.448344 
L 116.334545 216.554424 
L 118.996364 221.085936 
L 121.658182 226.089519 
L 124.32 231.603498 
L 125.384727 233.883479 
L 127.514182 235.963169 
L 129.909818 237.963742 
L 132.305455 239.67195 
L 134.967273 241.282493 
L 137.895273 242.776813 
L 141.355636 244.279893 
L 145.082182 245.670337 
L 147.744 246.382135 
L 151.204364 247.061308 
L 159.456 248.497745 
L 163.981091 254.178368 
L 165.844364 256.043595 
L 167.441455 257.308494 
L 168.772364 258.078816 
L 169.837091 258.483756 
L 170.901818 258.680926 
L 171.966545 258.651545 
L 173.031273 258.37661 
L 174.096 257.836903 
L 175.160727 257.013014 
L 176.225455 255.885286 
L 176.491636 255.490753 
L 177.024 253.958419 
L 182.613818 236.083491 
L 186.074182 225.716579 
L 189.002182 217.62713 
L 191.397818 211.610462 
L 193.261091 207.377038 
L 195.390545 203.578588 
L 199.649455 196.378065 
L 204.440727 188.722879 
L 213.490909 174.435335 
L 217.217455 168.66355 
L 220.145455 164.515933 
L 222.541091 161.475642 
L 224.670545 159.102402 
L 227.598545 156.257354 
L 229.728 154.476147 
L 231.857455 152.991237 
L 233.720727 151.95784 
L 235.584 151.193176 
L 237.181091 150.765136 
L 238.778182 150.559377 
L 240.375273 150.58831 
L 241.44 150.767103 
L 242.238545 151.376341 
L 244.101818 153.130845 
L 246.231273 155.452452 
L 248.626909 158.40468 
L 251.554909 162.384794 
L 255.813818 168.613919 
L 258.475636 172.40309 
L 263.266909 178.31952 
L 268.058182 184.358388 
L 270.986182 188.400861 
L 273.648 192.462401 
L 274.180364 193.845879 
L 277.906909 205.304545 
L 281.367273 215.316618 
L 284.561455 223.862066 
L 287.489455 231.058665 
L 290.683636 238.263006 
L 294.144 245.728444 
L 297.870545 253.180816 
L 301.597091 260.144189 
L 305.323636 266.643812 
L 309.316364 273.136418 
L 311.179636 275.64237 
L 313.309091 278.118033 
L 315.438545 280.251483 
L 317.568 282.086691 
L 319.963636 283.847011 
L 322.359273 285.341333 
L 323.424 285.83637 
L 327.416727 287.50234 
L 333.805091 290.431773 
L 339.927273 293.180498 
L 341.524364 293.672364 
L 345.517091 294.678003 
L 348.711273 295.255029 
L 351.373091 295.528767 
L 354.034909 295.574411 
L 356.430545 295.392532 
L 357.761455 295.286045 
L 361.488 296.013463 
L 366.545455 297.253743 
L 373.732364 299.008591 
L 375.861818 299.357662 
L 396.890182 301.71857 
L 413.127273 304.2642 
L 426.436364 305.621518 
L 426.436364 305.621518 
" clip-path="url(#pc1da10aad3)" style="fill: none; stroke: #ffa500; stroke-width: 3; stroke-linecap: square"/>
   </g>
   <g id="patch_3">
    <path d="M 7.2 331.2 
L 7.2 7.2 
" style="fill: none; stroke: #000000; stroke-width: 0.8; stroke-linejoin: miter; stroke-linecap: square"/>
   </g>
   <g id="patch_4">
    <path d="M 446.4 331.2 
L 446.4 7.2 
" style="fill: none; stroke: #000000; stroke-width: 0.8; stroke-linejoin: miter; stroke-linecap: square"/>
   </g>
   <g id="patch_5">
    <path d="M 7.2 331.2 
L 446.4 331.2 
" style="fill: none; stroke: #000000; stroke-width: 0.8; stroke-linejoin: miter; stroke-linecap: square"/>
   </g>
   <g id="patch_6">
    <path d="M 7.2 7.2 
L 446.4 7.2 
" style="fill: none; stroke: #000000; stroke-width: 0.8; stroke-linejoin: miter; stroke-linecap: square"/>
   </g>
  </g>
 </g>
 <defs>
  <clipPath id="pc1da10aad3">
   <rect x="7.2" y="7.2" width="439.2" height="324"/>
  </clipPath>
 </defs>
</svg>
