<?xml version="1.0" encoding="utf-8" standalone="no"?>
<!DOCTYPE svg PUBLIC "-//W3C//DTD SVG 1.1//EN"
  "http://www.w3.org/Graphics/SVG/1.1/DTD/svg11.dtd">
<svg xmlns:xlink="http://www.w3.org/1999/xlink" width="453.6pt" height="338.4pt" viewBox="0 0 453.6 338.4" xmlns="http://www.w3.org/2000/svg" version="1.1">
 <metadata>
  <rdf:RDF xmlns:dc="http://purl.org/dc/elements/1.1/" xmlns:cc="http://creativecommons.org/ns#" xmlns:rdf="http://www.w3.org/1999/02/22-rdf-syntax-ns#">
   <cc:Work>
    <dc:type rdf:resource="http://purl.org/dc/dcmitype/StillImage"/>
    <dc:date>2025-05-14T16:07:17.832484</dc:date>
    <dc:format>image/svg+xml</dc:format>
    <dc:creator>
     <cc:Agent>
      <dc:title>Matplotlib v3.10.1, https://matplotlib.org/</dc:title>
     </cc:Agent>
    </dc:creator>
   </cc:Work>
  </rdf:RDF>
 </metadata>
 <defs>
  <style type="text/css">*{stroke-linejoin: round; stroke-linecap: butt}</style>
 </defs>
 <g id="figure_1">
  <g id="patch_1">
   <path d="M 0 338.4 
L 453.6 338.4 
L 453.6 0 
L 0 0 
z
" style="fill: #ffffff"/>
  </g>
  <g id="axes_1">
   <g id="patch_2">
    <path d="M 7.2 331.2 
L 446.4 331.2 
L 446.4 7.2 
L 7.2 7.2 
z
" style="fill: #ffffff"/>
   </g>
   <g id="matplotlib.axis_1"/>
   <g id="matplotlib.axis_2"/>
   <g id="line2d_1">
    <path d="M 27.163636 316.472433 
L 48.192 21.937859 
L 82.263273 48.071378 
L 115.003636 73.495659 
L 146.945455 98.597677 
L 178.887273 123.997344 
L 210.030545 149.0521 
L 241.173818 174.396377 
L 272.050909 199.813267 
L 302.129455 224.853012 
L 332.208 250.172412 
L 362.020364 275.546464 
L 391.300364 300.740565 
L 409.400727 316.4518 
L 410.997818 316.472727 
L 426.436364 316.472727 
L 426.436364 316.472727 
" clip-path="url(#p04193778f2)" style="fill: none; stroke-dasharray: 11.1,4.8; stroke-dashoffset: 0; stroke: #000000; stroke-width: 3"/>
   </g>
   <g id="line2d_2">
    <path d="M 27.163636 282.568133 
L 27.429818 286.981574 
L 27.696 286.887585 
L 27.962182 284.71202 
L 28.228364 278.334493 
L 28.760727 272.822687 
L 29.026909 271.114768 
L 29.293091 267.766857 
L 29.825455 265.727098 
L 30.091636 264.633004 
L 30.357818 261.180031 
L 30.624 259.981662 
L 30.890182 259.447806 
L 31.156364 258.641398 
L 31.422545 251.168094 
L 31.954909 247.761141 
L 32.221091 246.291557 
L 32.487273 242.652611 
L 33.285818 236.751384 
L 33.818182 229.949767 
L 34.350545 225.237311 
L 34.882909 219.108054 
L 35.415273 214.610786 
L 35.681455 207.730419 
L 36.48 202.866101 
L 37.012364 197.61056 
L 37.544727 192.560786 
L 38.077091 184.27446 
L 39.141818 174.168383 
L 39.674182 171.190162 
L 39.940364 173.330123 
L 40.738909 170.140384 
L 42.868364 162.006438 
L 43.134545 161.487721 
L 43.933091 158.574607 
L 44.199273 151.786473 
L 46.328727 146.323275 
L 47.127273 144.910346 
L 47.659636 144.308236 
L 48.192 143.58425 
L 48.458182 144.219893 
L 49.256727 143.840309 
L 49.522909 143.60681 
L 50.321455 143.438165 
L 52.450909 143.884919 
L 52.717091 145.038718 
L 53.249455 145.122022 
L 54.580364 144.861101 
L 55.378909 144.945828 
L 55.645091 144.915824 
L 56.177455 145.049848 
L 57.774545 145.010312 
L 58.839273 144.672055 
L 60.968727 144.442331 
L 61.234909 139.105117 
L 61.501091 138.917406 
L 62.033455 138.894442 
L 62.299636 138.771618 
L 65.227636 139.436141 
L 65.493818 140.180896 
L 66.026182 140.241518 
L 67.623273 140.086355 
L 69.486545 140.407863 
L 69.752727 141.364733 
L 70.551273 141.543 
L 71.349818 141.432097 
L 72.414545 141.382377 
L 73.745455 141.25857 
L 74.011636 141.527252 
L 74.544 141.514716 
L 74.810182 141.533519 
L 75.342545 141.352093 
L 76.141091 141.371334 
L 77.472 141.177741 
L 78.004364 141.271316 
L 78.270545 142.163421 
L 79.335273 141.981573 
L 80.133818 141.820266 
L 81.730909 141.702182 
L 83.594182 141.523161 
L 86.522182 140.900861 
L 86.788364 141.399161 
L 87.320727 141.292875 
L 88.119273 140.914309 
L 89.184 139.965059 
L 90.781091 137.842224 
L 91.047273 138.052425 
L 91.845818 137.153158 
L 93.176727 135.622531 
L 93.709091 135.11117 
L 94.241455 134.569049 
L 95.04 133.867079 
L 95.306182 131.841032 
L 96.903273 131.00423 
L 97.169455 130.881476 
L 97.701818 130.852912 
L 98.234182 130.619712 
L 98.766545 130.594782 
L 99.298909 130.387653 
L 99.565091 130.499592 
L 100.896 130.260511 
L 101.960727 130.036809 
L 103.557818 129.588895 
L 103.824 129.707751 
L 104.622545 129.538158 
L 105.421091 129.673903 
L 107.018182 129.772797 
L 107.816727 129.854171 
L 108.349091 130.067339 
L 111.809455 130.764885 
L 112.075636 130.780019 
L 112.341818 129.289473 
L 112.874182 129.378378 
L 117.931636 129.751361 
L 118.730182 130.026626 
L 120.327273 131.015747 
L 120.593455 131.137078 
L 120.859636 130.03888 
L 121.658182 130.430087 
L 122.190545 130.670906 
L 124.852364 131.061077 
L 125.118545 130.529824 
L 126.183273 131.118328 
L 126.981818 131.433042 
L 127.514182 131.531778 
L 129.111273 131.838961 
L 129.377455 135.291069 
L 130.176 135.633925 
L 130.708364 136.263634 
L 131.240727 136.674293 
L 132.039273 137.828899 
L 132.305455 138.399039 
L 133.636364 143.308564 
L 137.096727 161.800907 
L 137.629091 163.469508 
L 137.895273 163.373388 
L 138.693818 164.935967 
L 139.492364 166.080618 
L 140.024727 166.395947 
L 141.355636 166.681289 
L 142.420364 166.788628 
L 144.283636 167.57845 
L 145.082182 167.936545 
L 145.880727 168.654281 
L 146.146909 169.078037 
L 146.413091 166.898232 
L 147.477818 168.959514 
L 148.276364 170.93988 
L 148.808727 171.312564 
L 149.341091 171.38178 
L 150.139636 171.180664 
L 150.938182 171.240206 
L 151.470545 170.694346 
L 151.736727 170.221626 
L 152.269091 168.280086 
L 153.067636 164.074708 
L 153.6 162.701895 
L 155.463273 159.432302 
L 156.261818 157.122106 
L 157.060364 153.380899 
L 157.592727 150.472631 
L 158.125091 145.562141 
L 158.923636 139.194479 
L 159.456 136.871713 
L 159.988364 135.610611 
L 160.520727 134.952742 
L 160.786909 134.976829 
L 161.319273 135.351234 
L 161.851636 136.520219 
L 162.650182 139.760862 
L 164.247273 148.044879 
L 164.779636 150.167415 
L 166.376727 158.828805 
L 166.909091 162.409653 
L 167.707636 170.537227 
L 169.038545 186.724843 
L 170.103273 200.281686 
L 170.901818 207.918306 
L 171.434182 212.853007 
L 172.498909 223.847643 
L 173.297455 230.375322 
L 174.096 235.243098 
L 175.160727 240.305152 
L 178.354909 255.055677 
L 179.685818 259.353366 
L 180.218182 260.79123 
L 180.484364 260.491636 
L 181.549091 262.240685 
L 182.347636 263.318043 
L 182.88 263.836054 
L 183.678545 264.171888 
L 184.210909 264.247653 
L 184.477091 264.209415 
L 185.275636 264.383213 
L 185.808 264.429202 
L 186.872727 265.029113 
L 189.534545 267.625085 
L 191.131636 269.561402 
L 191.664 269.920024 
L 192.728727 270.244982 
L 194.592 269.193673 
L 198.052364 267.968618 
L 198.584727 267.948841 
L 200.714182 268.970533 
L 203.908364 271.866958 
L 206.570182 274.760988 
L 208.433455 276.648428 
L 211.095273 277.272132 
L 212.16 277.301083 
L 213.757091 276.837241 
L 216.152727 275.715193 
L 218.548364 274.218055 
L 221.742545 273.654253 
L 223.073455 273.879461 
L 225.469091 274.813095 
L 226.267636 275.295331 
L 228.397091 277.377654 
L 229.195636 278.298999 
L 230.526545 279.769333 
L 231.325091 280.465301 
L 232.123636 281.005968 
L 233.720727 282.184802 
L 234.519273 283.059616 
L 237.181091 286.93541 
L 237.713455 288.873239 
L 238.245818 289.517113 
L 240.641455 291.477915 
L 243.037091 293.140499 
L 245.166545 293.947117 
L 246.497455 294.266971 
L 247.029818 294.259907 
L 251.554909 293.28809 
L 253.950545 292.054167 
L 254.482909 291.704825 
L 255.281455 291.026982 
L 256.08 290.10556 
L 256.612364 289.672609 
L 257.677091 288.770217 
L 259.008 287.879725 
L 260.338909 287.118636 
L 260.605091 287.13371 
L 261.403636 286.767298 
L 263.266909 286.418935 
L 264.331636 286.256643 
L 264.597818 286.301023 
L 264.864 286.562756 
L 265.662545 286.81154 
L 266.194909 287.006357 
L 267.259636 287.191313 
L 268.324364 287.13373 
L 268.856727 287.3475 
L 269.389091 287.694939 
L 271.252364 288.777408 
L 271.784727 288.884144 
L 274.180364 289.748062 
L 274.712727 290.029474 
L 275.511273 290.448882 
L 276.842182 290.397905 
L 277.640727 290.27053 
L 278.439273 289.974158 
L 278.705455 289.937029 
L 279.237818 289.683424 
L 280.834909 289.085606 
L 281.367273 288.835131 
L 282.165818 288.731586 
L 283.496727 288.91661 
L 285.093818 289.196828 
L 285.626182 289.197688 
L 286.957091 289.573276 
L 289.086545 290.850752 
L 290.949818 292.320515 
L 292.014545 293.083919 
L 294.144 294.681692 
L 294.942545 295.305646 
L 297.072 296.727621 
L 298.669091 297.713095 
L 298.935273 297.742159 
L 302.395636 299.957544 
L 306.920727 303.129349 
L 307.186909 303.292752 
L 307.453091 303.18124 
L 309.316364 303.855174 
L 310.381091 304.056936 
L 311.445818 304.065402 
L 313.042909 303.822818 
L 318.100364 303.254369 
L 321.028364 303.57395 
L 325.287273 304.524998 
L 326.618182 304.734216 
L 330.078545 305.462987 
L 332.474182 305.510577 
L 334.071273 305.212606 
L 335.934545 304.864368 
L 337.797818 304.830689 
L 341.258182 304.899487 
L 341.790545 304.660394 
L 343.653818 304.062761 
L 347.646545 302.682381 
L 349.509818 302.637161 
L 350.042182 302.545615 
L 352.704 302.055408 
L 354.034909 301.511585 
L 354.567273 301.1274 
L 355.365818 300.5991 
L 357.495273 298.921489 
L 358.826182 298.711037 
L 360.423273 299.327272 
L 361.488 299.928228 
L 362.552727 300.616257 
L 363.883636 300.929175 
L 365.746909 300.788411 
L 366.811636 300.645658 
L 368.408727 300.17389 
L 369.473455 299.962583 
L 372.933818 299.710085 
L 374.530909 299.640766 
L 375.329455 299.352245 
L 375.861818 298.91242 
L 376.926545 298.385684 
L 377.725091 298.208157 
L 381.185455 297.872675 
L 382.250182 297.745047 
L 384.912 297.597381 
L 388.106182 296.930227 
L 388.638545 296.593719 
L 390.501818 295.707742 
L 391.034182 295.521613 
L 391.566545 295.135989 
L 392.365091 294.116862 
L 392.897455 292.38056 
L 393.163636 291.989704 
L 393.696 291.754757 
L 394.760727 291.704641 
L 395.825455 292.482834 
L 397.422545 294.702154 
L 399.552 298.771264 
L 401.415273 302.959515 
L 402.213818 304.179278 
L 403.278545 305.409675 
L 405.674182 307.706439 
L 406.472727 308.210768 
L 407.537455 308.607168 
L 409.400727 309.012933 
L 409.933091 308.956442 
L 413.127273 309.091566 
L 418.983273 309.190008 
L 422.443636 308.945326 
L 423.508364 308.682783 
L 425.371636 307.995149 
L 425.904 307.962005 
L 426.170182 307.625157 
L 426.436364 305.232141 
L 426.436364 305.232141 
" clip-path="url(#p04193778f2)" style="fill: none; stroke: #ffa500; stroke-width: 3; stroke-linecap: square"/>
   </g>
   <g id="patch_3">
    <path d="M 7.2 331.2 
L 7.2 7.2 
" style="fill: none; stroke: #000000; stroke-width: 0.8; stroke-linejoin: miter; stroke-linecap: square"/>
   </g>
   <g id="patch_4">
    <path d="M 446.4 331.2 
L 446.4 7.2 
" style="fill: none; stroke: #000000; stroke-width: 0.8; stroke-linejoin: miter; stroke-linecap: square"/>
   </g>
   <g id="patch_5">
    <path d="M 7.2 331.2 
L 446.4 331.2 
" style="fill: none; stroke: #000000; stroke-width: 0.8; stroke-linejoin: miter; stroke-linecap: square"/>
   </g>
   <g id="patch_6">
    <path d="M 7.2 7.2 
L 446.4 7.2 
" style="fill: none; stroke: #000000; stroke-width: 0.8; stroke-linejoin: miter; stroke-linecap: square"/>
   </g>
  </g>
 </g>
 <defs>
  <clipPath id="p04193778f2">
   <rect x="7.2" y="7.2" width="439.2" height="324"/>
  </clipPath>
 </defs>
</svg>
