<?xml version="1.0" encoding="utf-8" standalone="no"?>
<!DOCTYPE svg PUBLIC "-//W3C//DTD SVG 1.1//EN"
  "http://www.w3.org/Graphics/SVG/1.1/DTD/svg11.dtd">
<svg xmlns:xlink="http://www.w3.org/1999/xlink" width="453.6pt" height="338.4pt" viewBox="0 0 453.6 338.4" xmlns="http://www.w3.org/2000/svg" version="1.1">
 <metadata>
  <rdf:RDF xmlns:dc="http://purl.org/dc/elements/1.1/" xmlns:cc="http://creativecommons.org/ns#" xmlns:rdf="http://www.w3.org/1999/02/22-rdf-syntax-ns#">
   <cc:Work>
    <dc:type rdf:resource="http://purl.org/dc/dcmitype/StillImage"/>
    <dc:date>2025-05-14T16:07:08.846619</dc:date>
    <dc:format>image/svg+xml</dc:format>
    <dc:creator>
     <cc:Agent>
      <dc:title>Matplotlib v3.10.1, https://matplotlib.org/</dc:title>
     </cc:Agent>
    </dc:creator>
   </cc:Work>
  </rdf:RDF>
 </metadata>
 <defs>
  <style type="text/css">*{stroke-linejoin: round; stroke-linecap: butt}</style>
 </defs>
 <g id="figure_1">
  <g id="patch_1">
   <path d="M 0 338.4 
L 453.6 338.4 
L 453.6 0 
L 0 0 
z
" style="fill: #ffffff"/>
  </g>
  <g id="axes_1">
   <g id="patch_2">
    <path d="M 7.2 331.2 
L 446.4 331.2 
L 446.4 7.2 
L 7.2 7.2 
z
" style="fill: #ffffff"/>
   </g>
   <g id="matplotlib.axis_1"/>
   <g id="matplotlib.axis_2"/>
   <g id="line2d_1">
    <path d="M 27.163636 316.472688 
L 29.559273 314.437142 
L 31.688727 312.342918 
L 33.818182 309.939327 
L 35.947636 307.180669 
L 38.077091 304.014491 
L 39.940364 300.862679 
L 41.803636 297.307035 
L 43.666909 293.295821 
L 45.530182 288.770664 
L 47.393455 283.665716 
L 49.256727 277.906691 
L 51.12 271.40978 
L 52.983273 264.080447 
L 54.846545 255.812037 
L 56.709818 246.484211 
L 58.573091 235.961264 
L 60.436364 224.090034 
L 62.299636 210.697799 
L 64.162909 195.589648 
L 66.026182 178.545742 
L 67.889455 159.318098 
L 69.752727 137.626844 
L 71.616 113.156431 
L 73.479273 85.550677 
L 75.342545 54.407878 
L 77.205818 22.466496 
L 81.464727 39.213815 
L 85.723636 55.015325 
L 89.982545 69.924379 
L 94.241455 83.991399 
L 98.500364 97.263944 
L 102.759273 109.786889 
L 107.018182 121.602545 
L 111.277091 132.750851 
L 115.536 143.269554 
L 119.794909 153.194188 
L 124.053818 162.558285 
L 128.312727 171.393516 
L 132.571636 179.729746 
L 136.830545 187.595151 
L 141.089455 195.016365 
L 145.614545 202.44267 
L 150.139636 209.42417 
L 154.664727 215.987479 
L 159.189818 222.15758 
L 163.714909 227.958156 
L 168.24 233.411259 
L 173.031273 238.829512 
L 177.822545 243.904751 
L 182.613818 248.658692 
L 187.405091 253.111631 
L 192.462545 257.506494 
L 197.52 261.608185 
L 202.843636 265.630521 
L 208.167273 269.370921 
L 213.490909 272.849153 
L 219.080727 276.239218 
L 224.936727 279.523892 
L 230.792727 282.556247 
L 236.914909 285.477629 
L 243.303273 288.276626 
L 249.957818 290.943987 
L 256.878545 293.472617 
L 264.065455 295.85755 
L 271.518545 298.095659 
L 279.504 300.253958 
L 287.755636 302.250352 
L 296.539636 304.142357 
L 305.856 305.91598 
L 315.704727 307.561196 
L 326.352 309.107816 
L 337.797818 310.537898 
L 350.042182 311.839555 
L 363.351273 313.028186 
L 377.991273 314.10895 
L 394.228364 315.080216 
L 412.328727 315.937155 
L 426.436364 316.472727 
L 426.436364 316.472727 
" clip-path="url(#pb9e3eb764d)" style="fill: none; stroke-dasharray: 11.1,4.8; stroke-dashoffset: 0; stroke: #000000; stroke-width: 3"/>
   </g>
   <g id="line2d_2">
    <path d="M 27.163636 159.454388 
L 27.962182 145.744638 
L 28.494545 139.872204 
L 29.026909 136.191723 
L 29.559273 134.221716 
L 29.825455 133.749768 
L 30.091636 133.537021 
L 30.357818 133.554648 
L 30.890182 133.991413 
L 31.688727 134.906288 
L 31.954909 135.070281 
L 32.221091 135.094439 
L 32.487273 134.909395 
L 32.753455 134.494312 
L 33.019636 133.798733 
L 33.552 131.417592 
L 34.084364 127.485671 
L 34.616727 121.770348 
L 35.415273 109.468103 
L 36.213818 92.444237 
L 37.012364 70.632985 
L 37.810909 45.842118 
L 38.077091 45.626052 
L 39.408 61.812115 
L 40.472727 72.249023 
L 41.537455 80.589607 
L 42.602182 87.005337 
L 43.400727 90.653409 
L 43.666909 91.649886 
L 43.933091 94.096107 
L 44.731636 104.428099 
L 45.530182 112.278511 
L 46.328727 117.884354 
L 46.861091 120.480049 
L 47.393455 122.222949 
L 47.925818 123.169425 
L 48.192 123.361263 
L 48.458182 123.359472 
L 48.724364 123.184787 
L 49.256727 122.297686 
L 49.789091 120.724099 
L 50.321455 118.480811 
L 51.12 114.35412 
L 51.652364 113.861175 
L 51.918545 113.866617 
L 52.184727 114.027187 
L 52.717091 114.881932 
L 53.249455 116.433362 
L 53.781818 118.719172 
L 54.580364 123.666426 
L 55.378909 130.611794 
L 56.177455 139.834879 
L 56.976 151.726378 
L 57.774545 166.727655 
L 58.573091 185.446158 
L 59.371636 208.586613 
L 60.170182 237.017081 
L 60.436364 247.841636 
L 63.364364 288.068549 
L 64.429091 302.090222 
L 64.695273 303.293344 
L 64.961455 303.259897 
L 65.227636 301.303177 
L 66.824727 282.5503 
L 68.688 263.985472 
L 70.285091 250.097315 
L 71.882182 238.022134 
L 73.213091 229.774318 
L 74.011636 225.837252 
L 74.810182 222.845119 
L 75.342545 221.521208 
L 75.874909 220.755096 
L 76.141091 220.60406 
L 76.407273 220.619027 
L 76.673455 220.807642 
L 77.205818 221.479082 
L 78.004364 222.003681 
L 78.802909 222.864545 
L 79.601455 224.164736 
L 80.4 225.948814 
L 81.198545 228.321887 
L 82.263273 232.398551 
L 83.328 237.467786 
L 84.658909 244.940062 
L 89.184 271.832737 
L 90.248727 276.660682 
L 90.781091 278.710852 
L 91.047273 279.21132 
L 91.579636 279.040984 
L 92.378182 278.552854 
L 93.709091 277.446466 
L 94.507636 275.73663 
L 95.306182 273.332877 
L 96.104727 270.212823 
L 97.169455 264.935152 
L 98.234182 258.403861 
L 99.565091 248.736923 
L 101.428364 233.20513 
L 104.888727 203.654633 
L 106.219636 194.047996 
L 107.284364 187.661101 
L 108.349091 182.635836 
L 109.147636 179.831362 
L 109.946182 177.841858 
L 110.212364 177.370112 
L 110.478545 177.147437 
L 113.938909 176.841879 
L 114.737455 176.733276 
L 116.866909 175.154536 
L 117.931636 174.152661 
L 122.456727 167.18224 
L 124.32 164.536912 
L 126.183273 162.120607 
L 126.981818 161.175447 
L 129.377455 152.441375 
L 131.240727 146.577561 
L 132.571636 143.30091 
L 133.370182 141.721758 
L 134.434909 140.135618 
L 135.233455 139.280996 
L 136.298182 138.556923 
L 137.362909 138.176706 
L 140.557091 137.416923 
L 141.355636 136.843764 
L 141.888 136.269937 
L 142.686545 135.049038 
L 143.485091 133.303593 
L 143.751273 132.147108 
L 144.283636 128.175738 
L 145.082182 119.991704 
L 145.880727 109.228863 
L 146.945455 91.47585 
L 148.276364 65.146895 
L 149.873455 30.33759 
L 150.139636 29.913939 
L 150.672 30.568788 
L 151.736727 32.492974 
L 153.333818 36.135937 
L 159.722182 52.196401 
L 160.254545 53.707084 
L 161.585455 66.167845 
L 163.448727 86.469906 
L 165.844364 112.419769 
L 166.909091 121.504985 
L 167.707636 126.405275 
L 168.24 128.481919 
L 168.506182 129.121618 
L 168.772364 129.428554 
L 169.038545 129.429326 
L 169.304727 129.107344 
L 169.570909 128.413924 
L 170.103273 125.865701 
L 170.901818 119.891106 
L 171.168 120.320392 
L 171.434182 120.987759 
L 171.700364 121.348084 
L 171.966545 121.425999 
L 172.232727 121.20644 
L 172.498909 120.709773 
L 173.031273 118.990908 
L 173.563636 116.351972 
L 174.362182 110.981735 
L 175.426909 101.839549 
L 177.290182 83.133055 
L 179.153455 64.682707 
L 180.218182 56.17655 
L 181.016727 51.549347 
L 181.549091 49.545649 
L 182.081455 48.608109 
L 182.347636 48.550595 
L 182.613818 48.845681 
L 182.88 49.452812 
L 183.678545 51.962359 
L 183.944727 51.620029 
L 184.210909 51.669783 
L 184.477091 52.060446 
L 185.009455 53.919006 
L 185.541818 56.986965 
L 186.340364 63.480365 
L 187.405091 74.727021 
L 190.599273 110.924958 
L 191.397818 116.66751 
L 191.930182 118.928829 
L 192.196364 119.486469 
L 192.462545 119.641245 
L 192.728727 119.324635 
L 192.994909 118.544364 
L 193.527273 115.370751 
L 194.059636 111.759794 
L 194.858182 104.632226 
L 195.922909 93.645736 
L 196.455273 91.936369 
L 196.987636 91.066491 
L 197.52 90.736872 
L 198.052364 90.757219 
L 198.584727 91.05608 
L 199.383273 91.901731 
L 200.714182 93.813785 
L 203.376 97.814843 
L 204.706909 99.450122 
L 206.037818 100.747233 
L 207.368727 101.724239 
L 208.699636 102.424331 
L 210.030545 102.90432 
L 210.562909 103.040188 
L 211.095273 103.437451 
L 211.627636 104.132258 
L 212.426182 105.692063 
L 213.224727 107.820797 
L 214.289455 111.349574 
L 216.418909 118.85116 
L 217.217455 120.764759 
L 217.749818 121.412551 
L 218.016 121.494328 
L 218.282182 121.389886 
L 218.548364 121.080913 
L 219.080727 119.778219 
L 219.613091 117.427434 
L 220.145455 113.917495 
L 220.677818 109.15309 
L 221.476364 99.503897 
L 222.274909 86.77047 
L 223.339636 65.195016 
L 224.670545 33.626003 
L 225.735273 50.603696 
L 229.728 104.225307 
L 230.792727 114.948119 
L 231.857455 123.383471 
L 232.656 128.142592 
L 233.454545 131.51754 
L 233.986909 132.974623 
L 234.519273 133.75974 
L 234.785455 133.894397 
L 235.051636 133.859706 
L 235.317818 133.65363 
L 235.850182 132.719425 
L 236.382545 131.028054 
L 236.914909 128.60678 
L 237.713455 123.507541 
L 238.512 116.605906 
L 239.310545 107.818761 
L 240.109091 98.682965 
L 240.375273 104.960405 
L 241.173818 129.544689 
L 241.972364 147.004038 
L 242.504727 155.106505 
L 243.037091 160.699742 
L 243.303273 162.63778 
L 243.569455 163.447458 
L 245.166545 163.627199 
L 246.497455 163.983433 
L 248.360727 164.785457 
L 250.756364 165.898876 
L 251.554909 166.094207 
L 252.353455 166.083181 
L 253.152 165.839658 
L 253.950545 165.354175 
L 255.547636 164.181187 
L 256.08 164.076341 
L 256.346182 164.17592 
L 256.612364 164.419952 
L 256.878545 164.846377 
L 257.410909 166.42193 
L 257.943273 169.305259 
L 258.475636 174.156629 
L 259.008 181.635822 
L 259.540364 192.679045 
L 260.072727 208.427123 
L 260.605091 212.77468 
L 261.403636 221.449272 
L 262.202182 233.323811 
L 263.000727 248.932193 
L 263.533091 261.743114 
L 264.331636 242.022323 
L 267.792 153.725739 
L 269.389091 119.238662 
L 270.72 95.771784 
L 271.784727 80.858112 
L 272.849455 69.505486 
L 273.648 63.265371 
L 274.446545 58.915522 
L 274.978909 56.981224 
L 275.511273 55.767945 
L 276.043636 55.223314 
L 276.309818 55.183707 
L 276.576 55.288852 
L 276.842182 55.592593 
L 277.374545 57.037246 
L 277.906909 59.309011 
L 278.705455 64.0208 
L 278.971636 65.864701 
L 279.237818 71.393418 
L 280.568727 117.606736 
L 281.633455 147.013536 
L 282.698182 171.295982 
L 284.029091 196.33054 
L 285.36 216.892145 
L 286.690909 233.754264 
L 287.755636 244.747676 
L 288.820364 253.476995 
L 289.618909 258.424121 
L 290.417455 261.91585 
L 290.949818 263.442601 
L 291.482182 264.346644 
L 292.014545 264.69227 
L 292.546909 264.583153 
L 293.079273 264.183682 
L 293.345455 254.230287 
L 294.144 210.463817 
L 294.676364 190.710723 
L 295.208727 176.889913 
L 295.741091 167.802064 
L 296.273455 162.467238 
L 296.539636 160.987156 
L 296.805818 160.170894 
L 297.072 159.912835 
L 297.338182 160.149125 
L 297.604364 160.820845 
L 298.136727 163.25418 
L 298.935273 168.928685 
L 300 178.707128 
L 304.525091 222.881829 
L 306.122182 235.753003 
L 307.985455 248.893929 
L 309.848727 260.513103 
L 310.114909 264.461729 
L 310.647273 274.9104 
L 311.179636 281.331969 
L 311.445818 273.137168 
L 312.244364 227.466273 
L 313.042909 196.078186 
L 313.841455 175.401044 
L 314.373818 166.082953 
L 314.906182 159.431389 
L 315.438545 154.8163 
L 315.970909 151.573269 
L 316.769455 148.086909 
L 317.568 144.762856 
L 318.100364 141.869002 
L 318.632727 137.927829 
L 319.165091 132.521268 
L 319.697455 125.23687 
L 320.229818 115.659903 
L 321.028364 96.045872 
L 321.560727 78.852483 
L 321.826909 78.149863 
L 322.625455 93.491539 
L 323.424 105.011617 
L 324.222545 113.035714 
L 324.754909 116.657872 
L 325.287273 119.018384 
L 325.819636 120.221077 
L 326.085818 120.420481 
L 326.352 120.381734 
L 326.618182 120.125202 
L 327.150545 119.115207 
L 327.682909 117.560827 
L 328.481455 114.517095 
L 331.143273 103.626023 
L 331.675636 102.26801 
L 332.208 101.482103 
L 332.474182 101.342074 
L 332.740364 104.864215 
L 333.538909 121.537938 
L 334.337455 133.096815 
L 334.869818 138.213346 
L 335.402182 141.425847 
L 335.668364 142.375817 
L 335.934545 142.879893 
L 336.200727 143.01102 
L 336.466909 142.723027 
L 336.733091 142.099815 
L 337.265455 139.800557 
L 337.797818 136.277363 
L 338.596364 129.065859 
L 339.661091 116.785155 
L 342.589091 80.959465 
L 342.855273 78.633451 
L 343.387636 93.319944 
L 344.452364 108.148836 
L 345.517091 119.282764 
L 346.315636 125.702059 
L 347.114182 130.743045 
L 347.912727 134.484709 
L 348.711273 137.130142 
L 349.243636 138.291261 
L 349.776 139.027659 
L 350.308364 139.355066 
L 350.840727 139.295322 
L 351.373091 138.879326 
L 351.905455 138.154761 
L 352.704 136.623819 
L 354.301091 133.215882 
L 354.833455 132.545601 
L 355.099636 132.429887 
L 355.365818 132.512893 
L 355.632 132.815704 
L 355.898182 133.436424 
L 356.164364 134.374737 
L 356.696727 137.55402 
L 357.229091 142.958299 
L 357.761455 151.299409 
L 358.027636 156.82063 
L 358.293818 159.999405 
L 358.826182 153.710465 
L 359.358545 149.562883 
L 359.890909 147.318857 
L 360.157091 146.855915 
L 360.423273 146.638147 
L 360.689455 146.604913 
L 361.221818 146.876807 
L 362.020364 147.361045 
L 362.286545 147.370595 
L 362.552727 147.24735 
L 362.818909 146.944504 
L 363.085091 146.460162 
L 363.617455 144.784573 
L 364.149818 142.068635 
L 364.682182 138.18329 
L 365.480727 130.05584 
L 366.279273 119.093033 
L 367.077818 105.43985 
L 368.142545 83.570329 
L 369.473455 51.753772 
L 369.739636 50.790582 
L 370.804364 58.628986 
L 373.466182 79.192074 
L 374.530909 85.664249 
L 375.329455 89.370168 
L 376.128 91.946288 
L 376.394182 92.54357 
L 376.660364 95.498783 
L 377.991273 125.204988 
L 380.120727 178.620119 
L 382.516364 237.714355 
L 383.581091 259.651555 
L 384.379636 272.817982 
L 385.178182 282.063328 
L 385.710545 285.547077 
L 385.976727 286.38194 
L 386.242909 275.076979 
L 387.041455 230.631872 
L 387.84 197.34941 
L 388.638545 174.240995 
L 389.170909 163.879149 
L 389.703273 157.008552 
L 390.235636 153.166502 
L 390.501818 152.189618 
L 390.768 151.730416 
L 391.034182 151.705345 
L 391.300364 152.023693 
L 391.832727 153.290396 
L 392.365091 154.636998 
L 392.631273 155.032892 
L 392.897455 155.064493 
L 393.163636 154.586682 
L 393.429818 153.445804 
L 393.696 151.550587 
L 394.228364 145.199094 
L 394.760727 135.0973 
L 395.293091 121.018395 
L 396.357818 166.951761 
L 397.156364 192.237452 
L 397.954909 210.875617 
L 398.753455 224.489009 
L 399.552 234.247807 
L 400.350545 241.184379 
L 401.149091 246.007716 
L 401.947636 249.302902 
L 402.746182 251.503358 
L 403.544727 252.935388 
L 404.343273 253.829709 
L 405.141818 254.369661 
L 405.940364 254.67597 
L 407.005091 254.864792 
L 408.868364 254.922934 
L 409.933091 254.857638 
L 410.465455 254.439553 
L 411.264 253.658623 
L 411.796364 253.467576 
L 412.062545 253.579699 
L 412.861091 254.329839 
L 413.127273 254.188336 
L 413.659636 253.330707 
L 414.192 251.907372 
L 416.853818 243.624763 
L 417.386182 242.899044 
L 417.652364 242.744694 
L 417.918545 242.756377 
L 418.184727 242.925519 
L 418.450909 243.256661 
L 418.983273 244.45701 
L 419.515636 246.349972 
L 420.314182 250.449068 
L 421.112727 255.944003 
L 422.177455 264.937478 
L 425.637818 296.128088 
L 426.436364 300.984296 
L 426.436364 300.984296 
" clip-path="url(#pb9e3eb764d)" style="fill: none; stroke: #ffa500; stroke-width: 3; stroke-linecap: square"/>
   </g>
   <g id="patch_3">
    <path d="M 7.2 331.2 
L 7.2 7.2 
" style="fill: none; stroke: #000000; stroke-width: 0.8; stroke-linejoin: miter; stroke-linecap: square"/>
   </g>
   <g id="patch_4">
    <path d="M 446.4 331.2 
L 446.4 7.2 
" style="fill: none; stroke: #000000; stroke-width: 0.8; stroke-linejoin: miter; stroke-linecap: square"/>
   </g>
   <g id="patch_5">
    <path d="M 7.2 331.2 
L 446.4 331.2 
" style="fill: none; stroke: #000000; stroke-width: 0.8; stroke-linejoin: miter; stroke-linecap: square"/>
   </g>
   <g id="patch_6">
    <path d="M 7.2 7.2 
L 446.4 7.2 
" style="fill: none; stroke: #000000; stroke-width: 0.8; stroke-linejoin: miter; stroke-linecap: square"/>
   </g>
  </g>
 </g>
 <defs>
  <clipPath id="pb9e3eb764d">
   <rect x="7.2" y="7.2" width="439.2" height="324"/>
  </clipPath>
 </defs>
</svg>
