<?xml version="1.0" encoding="utf-8" standalone="no"?>
<!DOCTYPE svg PUBLIC "-//W3C//DTD SVG 1.1//EN"
  "http://www.w3.org/Graphics/SVG/1.1/DTD/svg11.dtd">
<svg xmlns:xlink="http://www.w3.org/1999/xlink" width="453.6pt" height="338.4pt" viewBox="0 0 453.6 338.4" xmlns="http://www.w3.org/2000/svg" version="1.1">
 <metadata>
  <rdf:RDF xmlns:dc="http://purl.org/dc/elements/1.1/" xmlns:cc="http://creativecommons.org/ns#" xmlns:rdf="http://www.w3.org/1999/02/22-rdf-syntax-ns#">
   <cc:Work>
    <dc:type rdf:resource="http://purl.org/dc/dcmitype/StillImage"/>
    <dc:date>2025-05-14T16:10:06.692675</dc:date>
    <dc:format>image/svg+xml</dc:format>
    <dc:creator>
     <cc:Agent>
      <dc:title>Matplotlib v3.10.1, https://matplotlib.org/</dc:title>
     </cc:Agent>
    </dc:creator>
   </cc:Work>
  </rdf:RDF>
 </metadata>
 <defs>
  <style type="text/css">*{stroke-linejoin: round; stroke-linecap: butt}</style>
 </defs>
 <g id="figure_1">
  <g id="patch_1">
   <path d="M 0 338.4 
L 453.6 338.4 
L 453.6 0 
L 0 0 
z
" style="fill: #ffffff"/>
  </g>
  <g id="axes_1">
   <g id="patch_2">
    <path d="M 7.2 331.2 
L 446.4 331.2 
L 446.4 7.2 
L 7.2 7.2 
z
" style="fill: #ffffff"/>
   </g>
   <g id="matplotlib.axis_1"/>
   <g id="matplotlib.axis_2"/>
   <g id="line2d_1">
    <path d="M 27.163636 169.2 
L 77.205818 169.256101 
L 426.436364 316.472727 
L 426.436364 316.472727 
" clip-path="url(#pd20deb4784)" style="fill: none; stroke-dasharray: 11.1,4.8; stroke-dashoffset: 0; stroke: #000000; stroke-width: 3"/>
   </g>
   <g id="line2d_2">
    <path d="M 27.163636 144.783994 
L 30.357818 166.506797 
L 32.221091 180.564275 
L 34.882909 200.849631 
L 36.213818 209.288223 
L 37.012364 213.03051 
L 37.544727 214.829537 
L 38.077091 215.851268 
L 38.343273 216.063173 
L 38.609455 216.053745 
L 38.875636 215.80758 
L 39.141818 215.310184 
L 39.674182 213.508664 
L 40.206545 210.544734 
L 40.738909 206.288382 
L 41.537455 197.415413 
L 42.336 185.400485 
L 43.134545 170.311172 
L 43.933091 153.847878 
L 46.062545 124.110319 
L 47.393455 105.490043 
L 47.659636 103.342735 
L 47.925818 103.278093 
L 48.192 103.74674 
L 48.724364 105.539341 
L 49.256727 108.353402 
L 50.055273 114.258333 
L 51.12 124.675455 
L 52.450909 140.420838 
L 56.177455 186.081124 
L 57.508364 198.931011 
L 58.573091 207.148077 
L 59.637818 213.466792 
L 60.436364 216.990855 
L 61.234909 227.342326 
L 62.033455 234.731508 
L 62.565818 237.591198 
L 62.832 238.339587 
L 63.098182 238.51004 
L 63.364364 238.177507 
L 63.630545 237.226413 
L 63.896727 235.678915 
L 64.162909 233.472618 
L 64.429091 233.958558 
L 64.961455 239.948628 
L 65.227636 241.644424 
L 65.493818 242.438143 
L 65.76 242.502724 
L 66.026182 241.732372 
L 66.292364 240.317775 
L 66.824727 235.410366 
L 67.357091 228.126424 
L 68.155636 213.48757 
L 69.220364 188.985152 
L 72.414545 109.98503 
L 73.213091 96.002034 
L 73.745455 89.394677 
L 74.277818 85.436157 
L 74.544 84.539225 
L 74.810182 84.534186 
L 75.076364 85.328063 
L 75.342545 90.068135 
L 76.673455 158.581332 
L 77.205818 177.269286 
L 78.536727 199.211903 
L 79.601455 213.471181 
L 80.4 222.012828 
L 81.198545 228.640516 
L 81.997091 233.265664 
L 82.529455 235.166562 
L 83.061818 236.145017 
L 83.328 236.284782 
L 83.594182 236.190523 
L 83.860364 235.861939 
L 84.392727 234.502539 
L 84.925091 232.211717 
L 85.457455 229.000586 
L 86.256 222.496837 
L 87.054545 214.041629 
L 88.119273 199.921115 
L 89.184 182.832405 
L 90.514909 157.912578 
L 91.579636 138.135906 
L 92.378182 155.128293 
L 93.176727 168.142252 
L 93.709091 174.690076 
L 94.507636 179.944407 
L 95.04 182.437714 
L 95.572364 184.212987 
L 96.104727 185.341777 
L 96.637091 185.818772 
L 96.903273 185.846248 
L 97.435636 185.532499 
L 97.968 184.726903 
L 98.766545 182.787628 
L 99.565091 180.093389 
L 100.629818 175.709745 
L 102.759273 165.642642 
L 104.888727 155.983073 
L 106.219636 150.943157 
L 107.284364 147.680165 
L 108.349091 145.186682 
L 109.147636 143.850562 
L 109.946182 143.000048 
L 110.212364 142.825626 
L 110.478545 140.801879 
L 111.277091 130.33423 
L 112.075636 122.483062 
L 112.608 118.865574 
L 113.140364 116.541737 
L 113.406545 116.425427 
L 114.471273 121.699245 
L 115.003636 123.273692 
L 115.536 124.250102 
L 116.068364 124.773138 
L 116.600727 124.957953 
L 117.133091 124.883286 
L 117.931636 124.478509 
L 119.262545 123.398622 
L 121.658182 121.37182 
L 123.255273 120.360561 
L 124.586182 119.767493 
L 126.183273 119.314312 
L 126.981818 119.172212 
L 128.578909 115.128036 
L 129.377455 113.544021 
L 130.176 112.469963 
L 130.708364 112.102229 
L 131.240727 112.049314 
L 131.773091 112.334253 
L 132.305455 112.972335 
L 132.837818 113.970656 
L 133.636364 116.151022 
L 134.434909 119.152286 
L 135.499636 124.29027 
L 136.830545 132.229605 
L 137.629091 136.957142 
L 138.693818 130.496625 
L 139.758545 125.270613 
L 140.823273 121.184846 
L 141.888 118.149225 
L 142.686545 116.493528 
L 143.485091 115.328739 
L 143.751273 113.641177 
L 144.549818 105.944242 
L 145.082182 102.411252 
L 145.614545 100.245966 
L 145.880727 99.690204 
L 146.146909 99.510937 
L 146.413091 99.69117 
L 146.679273 100.256078 
L 147.211636 102.517467 
L 147.744 106.316084 
L 148.276364 111.657037 
L 149.074909 122.538751 
L 149.873455 136.779139 
L 150.938182 160.673215 
L 152.269091 197.562622 
L 154.132364 254.404568 
L 154.398545 253.231286 
L 157.326545 231.774197 
L 158.391273 225.494255 
L 159.456 220.455411 
L 161.053091 213.7253 
L 163.714909 201.082015 
L 164.513455 198.291208 
L 165.045818 196.925215 
L 165.578182 196.052984 
L 165.844364 195.841975 
L 166.110545 195.788464 
L 166.376727 195.896672 
L 166.642909 196.174605 
L 167.175273 197.268063 
L 167.707636 199.117073 
L 168.24 201.754008 
L 169.038545 207.276677 
L 169.837091 214.61147 
L 170.901818 226.969808 
L 172.232727 245.690804 
L 175.426909 292.710155 
L 176.225455 301.483629 
L 176.757818 305.952447 
L 177.024 297.820605 
L 177.822545 247.411709 
L 178.621091 208.774552 
L 179.419636 179.42525 
L 180.218182 157.448162 
L 181.016727 141.312275 
L 181.815273 129.939354 
L 182.613818 122.27007 
L 183.146182 118.936343 
L 183.678545 116.768284 
L 184.210909 115.626248 
L 184.477091 115.401141 
L 184.743273 115.393715 
L 185.009455 115.597122 
L 185.541818 116.543335 
L 186.074182 118.129632 
L 186.872727 121.520785 
L 187.937455 127.399733 
L 190.066909 139.7922 
L 190.333091 138.36663 
L 191.131636 123.301606 
L 191.664 117.51755 
L 191.930182 115.856586 
L 192.196364 115.061726 
L 192.462545 115.025647 
L 192.728727 115.710342 
L 192.994909 117.126133 
L 193.527273 121.792451 
L 194.592 135.412839 
L 195.656727 148.238103 
L 196.189091 152.402172 
L 196.455273 153.611659 
L 196.721455 154.16649 
L 196.987636 154.035801 
L 197.253818 153.066606 
L 197.52 151.306555 
L 198.052364 145.113595 
L 198.584727 135.178884 
L 199.117091 121.32484 
L 199.915636 93.037569 
L 200.448 69.218336 
L 200.714182 69.876731 
L 201.512727 101.056925 
L 202.311273 123.768954 
L 203.109818 139.838531 
L 203.908364 150.948582 
L 204.706909 158.378012 
L 205.505455 163.204075 
L 206.304 166.166732 
L 206.836364 167.455082 
L 207.368727 168.358001 
L 208.167273 169.172261 
L 208.965818 169.615698 
L 210.562909 170.103376 
L 211.627636 170.214121 
L 211.893818 170.442879 
L 212.16 170.864651 
L 212.692364 172.413185 
L 213.224727 175.181485 
L 213.757091 179.474513 
L 214.289455 185.48867 
L 215.088 198.211959 
L 215.886545 215.882606 
L 216.418909 230.748893 
L 216.685091 233.674155 
L 217.483636 208.735437 
L 218.548364 178.252596 
L 219.613091 153.468505 
L 220.677818 133.575434 
L 221.742545 118.096398 
L 222.541091 109.045488 
L 223.339636 102.007457 
L 224.138182 96.846298 
L 224.670545 94.410066 
L 225.202909 92.725541 
L 225.735273 91.767513 
L 226.001455 91.554064 
L 226.267636 91.514351 
L 226.533818 91.646094 
L 226.8 91.947219 
L 227.332364 93.215642 
L 227.864727 95.375925 
L 228.397091 98.370762 
L 229.195636 104.488756 
L 229.994182 112.43327 
L 231.058909 125.616612 
L 231.325091 124.870523 
L 232.389818 119.051969 
L 233.188364 115.956832 
L 233.720727 114.583089 
L 234.253091 113.759541 
L 234.519273 113.569319 
L 234.785455 113.529431 
L 235.051636 113.631047 
L 235.584 114.255524 
L 236.116364 115.430723 
L 236.648727 117.149606 
L 237.447273 120.609158 
L 238.512 126.552081 
L 240.641455 140.657847 
L 241.972364 148.739915 
L 242.770909 152.497204 
L 243.303273 154.378569 
L 243.569455 156.235883 
L 244.634182 169.662274 
L 245.698909 185.859608 
L 246.763636 205.346654 
L 247.828364 228.603823 
L 249.425455 266.047066 
L 249.957818 269.346693 
L 250.490182 271.548729 
L 251.022545 272.644662 
L 251.288727 272.749469 
L 251.554909 272.575525 
L 251.821091 272.123447 
L 252.353455 270.388009 
L 252.885818 267.530953 
L 253.418182 263.542272 
L 254.216727 255.536324 
L 255.015273 245.176032 
L 256.08 227.974545 
L 257.410909 201.866693 
L 259.274182 159.889538 
L 260.072727 141.493561 
L 261.403636 126.446058 
L 262.734545 114.053381 
L 263.266909 108.604263 
L 264.331636 98.251485 
L 265.396364 90.217662 
L 266.461091 84.048966 
L 267.525818 79.387177 
L 268.590545 75.97357 
L 269.389091 74.07003 
L 270.187636 72.703327 
L 270.986182 71.784291 
L 271.518545 71.408323 
L 272.050909 71.210341 
L 272.583273 71.184498 
L 273.115636 71.326493 
L 273.648 71.633641 
L 274.446545 72.415457 
L 275.245091 73.563128 
L 276.043636 75.09063 
L 276.576 76.340759 
L 276.842182 77.756972 
L 277.640727 85.434788 
L 281.367273 124.933252 
L 281.633455 127.07898 
L 282.698182 143.560971 
L 283.230545 148.200235 
L 283.762909 150.639609 
L 284.029091 151.171125 
L 284.295273 151.257801 
L 284.561455 151.006869 
L 285.093818 149.547767 
L 285.626182 147.126563 
L 286.690909 140.710902 
L 287.755636 134.457216 
L 288.288 132.303658 
L 288.554182 131.647404 
L 288.820364 131.341117 
L 289.086545 131.468786 
L 289.352727 132.050426 
L 289.618909 133.193814 
L 290.151273 137.390923 
L 290.683636 144.704358 
L 291.216 155.778068 
L 291.748364 171.52503 
L 292.014545 181.405089 
L 292.546909 189.720145 
L 293.345455 200.941047 
L 294.942545 204.050439 
L 296.805818 208.24409 
L 302.928 222.585251 
L 304.258909 225.100424 
L 305.589818 227.219774 
L 306.920727 228.923857 
L 307.985455 229.979287 
L 309.050182 230.764501 
L 309.848727 231.169515 
L 310.114909 232.169696 
L 310.647273 235.137366 
L 311.179636 236.788156 
L 311.445818 237.124982 
L 311.712 237.093363 
L 311.978182 236.740701 
L 312.244364 236.056516 
L 312.776727 233.598865 
L 313.309091 229.820034 
L 314.107636 221.496568 
L 314.906182 210.124885 
L 315.704727 195.523575 
L 316.769455 170.877564 
L 317.834182 139.75261 
L 318.100364 130.854106 
L 318.366545 128.679357 
L 320.496 180.747062 
L 321.560727 198.809732 
L 322.359273 209.002468 
L 323.157818 216.630319 
L 323.956364 221.897659 
L 324.488727 224.253966 
L 325.021091 225.853053 
L 325.553455 226.876321 
L 326.618182 228.202592 
L 327.682909 228.384756 
L 328.481455 228.692237 
L 329.28 229.226685 
L 329.812364 229.786634 
L 330.344727 230.574954 
L 330.877091 231.708502 
L 331.409455 233.286916 
L 331.941818 235.479134 
L 332.474182 238.48713 
L 333.006545 242.54069 
L 333.538909 247.894081 
L 334.071273 254.821863 
L 334.603636 263.745907 
L 334.869818 260.644538 
L 335.934545 226.884124 
L 336.999273 200.388981 
L 337.797818 185.807448 
L 338.596364 175.894876 
L 339.128727 171.880545 
L 339.661091 169.902532 
L 339.927273 169.655901 
L 340.193455 169.866726 
L 340.459636 170.535032 
L 340.992 173.184248 
L 341.524364 177.490346 
L 342.322909 186.649158 
L 343.387636 202.750098 
L 345.517091 236.586285 
L 346.049455 245.268048 
L 346.315636 245.943219 
L 346.848 229.45597 
L 347.646545 206.649778 
L 348.445091 190.441594 
L 349.243636 179.542877 
L 349.776 174.720168 
L 350.308364 171.57116 
L 350.840727 169.893886 
L 351.106909 169.551275 
L 351.373091 169.512677 
L 351.639273 169.757666 
L 351.905455 170.266614 
L 352.437818 172.007749 
L 352.970182 174.591594 
L 353.768727 179.715929 
L 355.365818 192.256799 
L 356.430545 199.677443 
L 356.962909 202.057661 
L 357.229091 202.700879 
L 357.495273 202.913416 
L 357.761455 202.530522 
L 358.027636 201.532869 
L 358.293818 199.813091 
L 358.826182 193.654569 
L 359.358545 182.973584 
L 359.890909 166.484395 
L 360.689455 157.741861 
L 361.488 146.418852 
L 361.754182 141.96047 
L 362.020364 142.218513 
L 367.610182 214.824753 
L 368.941091 228.704956 
L 370.272 240.420479 
L 371.602909 250.093286 
L 373.2 259.841422 
L 374.797091 269.511907 
L 375.861818 277.490923 
L 376.660364 284.328608 
L 376.926545 285.490243 
L 377.192727 285.101775 
L 377.458909 282.515233 
L 382.250182 176.373776 
L 383.847273 147.502829 
L 385.178182 127.42533 
L 386.242909 114.598117 
L 387.041455 107.076253 
L 387.84 101.549625 
L 388.372364 99.044976 
L 388.904727 97.489068 
L 389.170909 97.075934 
L 389.437091 96.910642 
L 389.703273 96.99809 
L 389.969455 97.322038 
L 390.501818 98.717622 
L 391.034182 101.072269 
L 391.566545 104.342091 
L 392.098909 108.461268 
L 392.365091 112.523105 
L 393.163636 129.613615 
L 393.696 135.851764 
L 394.228364 139.408806 
L 394.494545 140.353597 
L 394.760727 140.882796 
L 395.026909 141.006497 
L 395.293091 140.780987 
L 395.559273 140.275858 
L 396.091636 138.540876 
L 396.890182 134.584797 
L 397.954909 127.812446 
L 400.084364 112.202563 
L 404.875636 76.579718 
L 406.206545 68.162396 
L 407.005091 64.302719 
L 407.537455 62.555184 
L 407.803636 65.046069 
L 408.868364 88.063419 
L 409.666909 101.591725 
L 410.199273 106.846073 
L 410.997818 112.284323 
L 412.062545 117.802541 
L 413.127273 122.09226 
L 416.587636 134.820666 
L 417.652364 140.031931 
L 418.717091 146.549418 
L 419.781818 154.799218 
L 420.846545 165.273275 
L 421.911273 178.564404 
L 422.976 195.401129 
L 424.040727 216.796823 
L 425.105455 243.817136 
L 426.170182 277.987537 
L 426.436364 287.846574 
L 426.436364 287.846574 
" clip-path="url(#pd20deb4784)" style="fill: none; stroke: #0000ff; stroke-width: 3; stroke-linecap: square"/>
   </g>
   <g id="patch_3">
    <path d="M 7.2 331.2 
L 7.2 7.2 
" style="fill: none; stroke: #000000; stroke-width: 0.8; stroke-linejoin: miter; stroke-linecap: square"/>
   </g>
   <g id="patch_4">
    <path d="M 446.4 331.2 
L 446.4 7.2 
" style="fill: none; stroke: #000000; stroke-width: 0.8; stroke-linejoin: miter; stroke-linecap: square"/>
   </g>
   <g id="patch_5">
    <path d="M 7.2 331.2 
L 446.4 331.2 
" style="fill: none; stroke: #000000; stroke-width: 0.8; stroke-linejoin: miter; stroke-linecap: square"/>
   </g>
   <g id="patch_6">
    <path d="M 7.2 7.2 
L 446.4 7.2 
" style="fill: none; stroke: #000000; stroke-width: 0.8; stroke-linejoin: miter; stroke-linecap: square"/>
   </g>
  </g>
 </g>
 <defs>
  <clipPath id="pd20deb4784">
   <rect x="7.2" y="7.2" width="439.2" height="324"/>
  </clipPath>
 </defs>
</svg>
