<?xml version="1.0" encoding="utf-8" standalone="no"?>
<!DOCTYPE svg PUBLIC "-//W3C//DTD SVG 1.1//EN"
  "http://www.w3.org/Graphics/SVG/1.1/DTD/svg11.dtd">
<svg xmlns:xlink="http://www.w3.org/1999/xlink" width="453.6pt" height="338.4pt" viewBox="0 0 453.6 338.4" xmlns="http://www.w3.org/2000/svg" version="1.1">
 <metadata>
  <rdf:RDF xmlns:dc="http://purl.org/dc/elements/1.1/" xmlns:cc="http://creativecommons.org/ns#" xmlns:rdf="http://www.w3.org/1999/02/22-rdf-syntax-ns#">
   <cc:Work>
    <dc:type rdf:resource="http://purl.org/dc/dcmitype/StillImage"/>
    <dc:date>2025-05-14T16:07:58.678899</dc:date>
    <dc:format>image/svg+xml</dc:format>
    <dc:creator>
     <cc:Agent>
      <dc:title>Matplotlib v3.10.1, https://matplotlib.org/</dc:title>
     </cc:Agent>
    </dc:creator>
   </cc:Work>
  </rdf:RDF>
 </metadata>
 <defs>
  <style type="text/css">*{stroke-linejoin: round; stroke-linecap: butt}</style>
 </defs>
 <g id="figure_1">
  <g id="patch_1">
   <path d="M 0 338.4 
L 453.6 338.4 
L 453.6 0 
L 0 0 
z
" style="fill: #ffffff"/>
  </g>
  <g id="axes_1">
   <g id="patch_2">
    <path d="M 7.2 331.2 
L 446.4 331.2 
L 446.4 7.2 
L 7.2 7.2 
z
" style="fill: #ffffff"/>
   </g>
   <g id="matplotlib.axis_1"/>
   <g id="matplotlib.axis_2"/>
   <g id="line2d_1">
    <path d="M 27.163636 316.472727 
L 76.939636 316.472727 
L 77.205818 316.308318 
L 190.333091 176.562611 
L 190.599273 176.993732 
L 193.261091 189.727624 
L 195.922909 201.361441 
L 198.584727 211.990274 
L 201.246545 221.700932 
L 203.908364 230.572742 
L 206.570182 238.678177 
L 209.232 246.08341 
L 211.893818 252.848919 
L 214.555636 259.030002 
L 217.217455 264.677136 
L 219.879273 269.836461 
L 222.541091 274.550058 
L 225.469091 279.266122 
L 228.397091 283.536036 
L 231.325091 287.401999 
L 234.253091 290.902238 
L 237.181091 294.071348 
L 240.375273 297.18764 
L 243.569455 299.983714 
L 246.763636 302.492541 
L 250.224 304.920398 
L 253.684364 307.079188 
L 257.410909 309.13732 
L 261.403636 311.071863 
L 265.396364 312.761234 
L 269.655273 314.327921 
L 274.180364 315.762155 
L 276.842182 316.427309 
L 282.964364 314.220394 
L 288.820364 311.878395 
L 294.410182 309.409597 
L 299.733818 306.825001 
L 305.057455 303.990324 
L 310.114909 301.043722 
L 314.906182 298.003357 
L 319.697455 294.699454 
L 324.222545 291.316577 
L 328.747636 287.657443 
L 333.272727 283.699461 
L 337.531636 279.679486 
L 341.790545 275.351247 
L 346.049455 270.6911 
L 350.042182 265.998171 
L 354.034909 260.968614 
L 358.027636 255.57835 
L 362.020364 249.801474 
L 366.013091 243.610258 
L 369.739636 237.431787 
L 373.466182 230.840633 
L 377.192727 223.809353 
L 380.919273 216.30846 
L 384.645818 208.306564 
L 388.372364 199.770307 
L 392.098909 190.663874 
L 395.825455 180.949372 
L 399.552 170.586042 
L 403.278545 159.530512 
L 407.005091 147.736679 
L 410.731636 135.155254 
L 414.458182 121.733427 
L 418.184727 107.4153 
L 421.911273 92.1409 
L 425.371636 77.045539 
L 426.436364 72.215526 
L 426.436364 72.215526 
" clip-path="url(#paecbfdbda0)" style="fill: none; stroke-dasharray: 11.1,4.8; stroke-dashoffset: 0; stroke: #000000; stroke-width: 3"/>
   </g>
   <g id="line2d_2">
    <path d="M 27.163636 252.02391 
L 29.026909 264.839014 
L 29.559273 266.974353 
L 30.357818 269.045213 
L 31.156364 270.42496 
L 31.422545 270.569475 
L 31.954909 271.151316 
L 32.487273 271.991529 
L 32.753455 272.664869 
L 33.285818 275.13082 
L 33.818182 277.464176 
L 34.350545 278.916444 
L 34.882909 279.783134 
L 35.415273 280.45038 
L 35.947636 280.613092 
L 37.278545 281.729722 
L 38.077091 282.397786 
L 39.674182 283.756315 
L 39.940364 283.559713 
L 40.472727 283.718799 
L 41.803636 284.364912 
L 43.400727 285.067887 
L 43.933091 285.370481 
L 44.199273 285.979592 
L 45.264 286.601959 
L 47.925818 287.671802 
L 48.192 287.729911 
L 48.458182 287.647104 
L 50.055273 287.817383 
L 51.386182 287.774738 
L 52.184727 287.547038 
L 52.450909 287.353278 
L 52.717091 286.605978 
L 53.781818 286.247248 
L 60.170182 283.88951 
L 60.702545 283.430909 
L 60.968727 282.805831 
L 61.234909 279.489661 
L 62.033455 279.445542 
L 62.832 279.435232 
L 65.227636 279.589521 
L 65.493818 279.473703 
L 69.486545 279.527039 
L 69.752727 279.027602 
L 72.148364 278.870004 
L 73.745455 278.796158 
L 74.011636 278.644669 
L 77.205818 278.260366 
L 78.004364 278.091146 
L 78.270545 277.468635 
L 80.133818 276.7283 
L 82.263273 275.488278 
L 82.795636 274.874853 
L 83.860364 273.925212 
L 84.925091 272.83793 
L 85.989818 271.543664 
L 86.522182 270.805234 
L 86.788364 269.377211 
L 90.248727 262.621406 
L 90.781091 261.330502 
L 91.313455 259.695029 
L 92.644364 256.714452 
L 93.975273 254.392937 
L 95.838545 251.609753 
L 98.234182 249.371266 
L 100.097455 247.736505 
L 106.219636 242.878701 
L 108.349091 240.796043 
L 110.212364 238.703344 
L 112.075636 236.224854 
L 112.341818 236.461074 
L 114.737455 232.678995 
L 117.665455 227.969585 
L 119.794909 225.221677 
L 127.780364 215.907405 
L 129.111273 214.581344 
L 129.377455 215.041029 
L 131.506909 213.35222 
L 133.636364 211.46607 
L 134.701091 210.526239 
L 136.298182 209.51095 
L 137.096727 208.914055 
L 139.758545 206.355877 
L 142.952727 202.871684 
L 144.283636 201.962673 
L 146.146909 200.898131 
L 146.413091 201.231823 
L 150.672 199.227071 
L 152.801455 198.529043 
L 158.657455 196.731938 
L 160.254545 196.498299 
L 164.247273 196.239774 
L 166.642909 196.234683 
L 168.772364 196.148973 
L 170.369455 196.118601 
L 171.966545 195.865281 
L 174.628364 195.333976 
L 177.024 194.4181 
L 178.088727 193.645501 
L 180.218182 191.143758 
L 180.484364 190.373432 
L 181.549091 189.217755 
L 183.944727 186.609919 
L 186.074182 185.212826 
L 187.405091 184.738376 
L 188.203636 184.76335 
L 189.002182 185.290267 
L 189.534545 185.952516 
L 190.066909 186.872166 
L 190.865455 189.054561 
L 191.664 191.888969 
L 192.728727 195.750929 
L 193.527273 197.15716 
L 194.592 199.002193 
L 195.656727 201.310966 
L 196.455273 203.741852 
L 197.253818 207.061982 
L 198.318545 211.597611 
L 198.850909 212.88503 
L 200.714182 216.483707 
L 201.512727 218.844956 
L 202.311273 222.265279 
L 203.376 227.258372 
L 207.901091 245.182769 
L 208.965818 248.380162 
L 210.030545 250.803429 
L 211.095273 252.644494 
L 213.757091 256.593024 
L 216.951273 260.99648 
L 218.548364 262.799163 
L 226.001455 270.386104 
L 227.066182 271.939417 
L 227.864727 273.417169 
L 228.929455 276.068851 
L 229.728 277.926911 
L 230.526545 279.140239 
L 231.325091 279.945835 
L 232.389818 280.733236 
L 233.720727 281.373417 
L 235.317818 281.884555 
L 236.116364 281.944551 
L 237.181091 281.77305 
L 239.044364 281.365817 
L 239.842909 281.400129 
L 243.037091 282.051368 
L 245.432727 282.639821 
L 248.626909 283.054931 
L 249.957818 283.050845 
L 253.152 282.551755 
L 256.346182 281.943489 
L 258.209455 281.387835 
L 262.734545 279.565877 
L 264.065455 279.304974 
L 264.597818 279.187654 
L 264.864 278.983676 
L 267.259636 279.071128 
L 269.122909 279.305847 
L 273.115636 279.477284 
L 273.381818 279.285021 
L 275.245091 279.32127 
L 277.108364 279.053432 
L 278.705455 278.645542 
L 280.036364 278.10778 
L 281.633455 277.255063 
L 282.165818 276.884529 
L 287.223273 274.103448 
L 290.151273 273.062536 
L 290.417455 272.77403 
L 298.136727 270.593237 
L 298.669091 270.460902 
L 299.201455 270.159264 
L 304.791273 268.332314 
L 306.388364 267.623172 
L 307.186909 267.241963 
L 307.453091 265.694917 
L 307.985455 264.983774 
L 309.848727 263.348284 
L 311.445818 261.909911 
L 311.712 261.16495 
L 312.244364 260.552342 
L 314.373818 258.794761 
L 315.438545 258.226925 
L 315.970909 257.967781 
L 316.769455 257.527974 
L 317.568 257.139638 
L 319.963636 255.498008 
L 320.496 254.562868 
L 321.294545 253.603369 
L 322.625455 251.713085 
L 324.222545 249.227858 
L 324.488727 251.068607 
L 324.754909 250.958424 
L 326.352 248.986393 
L 329.013818 246.414803 
L 332.208 243.470294 
L 334.337455 240.817172 
L 336.733091 237.268926 
L 337.797818 235.50402 
L 340.459636 232.277457 
L 341.258182 231.593368 
L 343.653818 230.435996 
L 344.452364 230.287005 
L 345.250909 230.361531 
L 346.049455 230.640975 
L 347.114182 231.158367 
L 348.445091 231.784512 
L 349.776 232.354836 
L 350.042182 232.611377 
L 350.574545 232.59792 
L 351.639273 232.284348 
L 353.236364 231.573968 
L 354.034909 231.231787 
L 354.301091 230.694319 
L 356.430545 230.748481 
L 358.027636 231.119102 
L 358.293818 231.061491 
L 358.56 230.631995 
L 359.890909 230.558346 
L 362.552727 230.160802 
L 362.818909 230.453737 
L 364.149818 230.300383 
L 366.279273 229.750468 
L 366.811636 229.525256 
L 367.077818 229.230977 
L 367.876364 228.751761 
L 369.473455 227.922095 
L 370.272 227.725641 
L 371.070545 227.532776 
L 371.336727 227.703845 
L 373.2 226.992921 
L 375.063273 227.387384 
L 375.329455 227.30451 
L 375.595636 226.081548 
L 376.660364 225.378674 
L 377.991273 223.987532 
L 379.588364 222.087495 
L 379.854545 221.421735 
L 381.185455 220.085957 
L 382.250182 219.219528 
L 383.048727 218.925925 
L 383.847273 218.804278 
L 384.113455 217.949682 
L 384.645818 217.829018 
L 386.242909 217.852034 
L 387.573818 217.9081 
L 388.106182 217.774734 
L 388.372364 217.356298 
L 389.170909 216.756426 
L 390.235636 215.676171 
L 392.365091 212.688628 
L 392.631273 212.55944 
L 392.897455 212.270543 
L 393.696 210.820816 
L 395.825455 208.23654 
L 396.624 207.399088 
L 396.890182 206.561557 
L 397.422545 206.33947 
L 398.221091 206.385924 
L 399.552 206.613963 
L 400.350545 206.970355 
L 400.616727 207.156996 
L 400.882909 207.589723 
L 401.149091 206.028048 
L 401.681455 206.394474 
L 402.213818 206.962982 
L 402.746182 207.05086 
L 403.012364 206.924507 
L 403.810909 205.878048 
L 405.141818 203.897945 
L 405.408 200.954688 
L 405.940364 199.736274 
L 406.472727 198.664946 
L 407.005091 197.546962 
L 407.271273 197.013357 
L 407.803636 195.316727 
L 409.400727 192.429211 
L 409.666909 194.992568 
L 410.199273 193.931703 
L 410.731636 192.88419 
L 411.796364 189.554168 
L 412.328727 187.936357 
L 412.594909 187.274872 
L 413.127273 185.526425 
L 413.659636 184.773094 
L 413.925818 180.646631 
L 414.192 179.885154 
L 414.724364 179.247651 
L 415.256727 178.094186 
L 415.522909 178.097442 
L 415.789091 177.938892 
L 416.321455 176.968091 
L 416.587636 177.071778 
L 416.853818 177.042029 
L 417.386182 176.449803 
L 417.918545 177.154986 
L 418.184727 181.731302 
L 418.450909 180.750415 
L 418.983273 181.348215 
L 419.249455 181.580116 
L 419.515636 181.522769 
L 420.048 184.252743 
L 420.314182 185.375687 
L 420.580364 185.828217 
L 421.112727 190.998962 
L 421.378909 193.407288 
L 421.645091 194.639801 
L 422.443636 203.070562 
L 422.709818 202.431759 
L 423.242182 204.71641 
L 423.508364 205.630952 
L 423.774545 205.691837 
L 424.306909 209.916184 
L 424.573091 210.877724 
L 424.839273 210.894938 
L 425.371636 216.699746 
L 425.637818 218.783421 
L 425.904 219.946077 
L 426.170182 224.032502 
L 426.436364 225.298582 
L 426.436364 225.298582 
" clip-path="url(#paecbfdbda0)" style="fill: none; stroke: #0000ff; stroke-width: 3; stroke-linecap: square"/>
   </g>
   <g id="patch_3">
    <path d="M 7.2 331.2 
L 7.2 7.2 
" style="fill: none; stroke: #000000; stroke-width: 0.8; stroke-linejoin: miter; stroke-linecap: square"/>
   </g>
   <g id="patch_4">
    <path d="M 446.4 331.2 
L 446.4 7.2 
" style="fill: none; stroke: #000000; stroke-width: 0.8; stroke-linejoin: miter; stroke-linecap: square"/>
   </g>
   <g id="patch_5">
    <path d="M 7.2 331.2 
L 446.4 331.2 
" style="fill: none; stroke: #000000; stroke-width: 0.8; stroke-linejoin: miter; stroke-linecap: square"/>
   </g>
   <g id="patch_6">
    <path d="M 7.2 7.2 
L 446.4 7.2 
" style="fill: none; stroke: #000000; stroke-width: 0.8; stroke-linejoin: miter; stroke-linecap: square"/>
   </g>
  </g>
 </g>
 <defs>
  <clipPath id="paecbfdbda0">
   <rect x="7.2" y="7.2" width="439.2" height="324"/>
  </clipPath>
 </defs>
</svg>
