<?xml version="1.0" encoding="utf-8" standalone="no"?>
<!DOCTYPE svg PUBLIC "-//W3C//DTD SVG 1.1//EN"
  "http://www.w3.org/Graphics/SVG/1.1/DTD/svg11.dtd">
<svg xmlns:xlink="http://www.w3.org/1999/xlink" width="453.6pt" height="338.4pt" viewBox="0 0 453.6 338.4" xmlns="http://www.w3.org/2000/svg" version="1.1">
 <metadata>
  <rdf:RDF xmlns:dc="http://purl.org/dc/elements/1.1/" xmlns:cc="http://creativecommons.org/ns#" xmlns:rdf="http://www.w3.org/1999/02/22-rdf-syntax-ns#">
   <cc:Work>
    <dc:type rdf:resource="http://purl.org/dc/dcmitype/StillImage"/>
    <dc:date>2025-05-14T16:06:40.093503</dc:date>
    <dc:format>image/svg+xml</dc:format>
    <dc:creator>
     <cc:Agent>
      <dc:title>Matplotlib v3.10.1, https://matplotlib.org/</dc:title>
     </cc:Agent>
    </dc:creator>
   </cc:Work>
  </rdf:RDF>
 </metadata>
 <defs>
  <style type="text/css">*{stroke-linejoin: round; stroke-linecap: butt}</style>
 </defs>
 <g id="figure_1">
  <g id="patch_1">
   <path d="M 0 338.4 
L 453.6 338.4 
L 453.6 0 
L 0 0 
z
" style="fill: #ffffff"/>
  </g>
  <g id="axes_1">
   <g id="patch_2">
    <path d="M 7.2 331.2 
L 446.4 331.2 
L 446.4 7.2 
L 7.2 7.2 
z
" style="fill: #ffffff"/>
   </g>
   <g id="matplotlib.axis_1"/>
   <g id="matplotlib.axis_2"/>
   <g id="line2d_1">
    <path d="M 27.163636 316.472674 
L 34.882909 314.266845 
L 42.336 311.910928 
L 49.522909 309.406855 
L 56.443636 306.758357 
L 63.098182 303.971133 
L 69.486545 301.052956 
L 75.608727 298.013757 
L 81.464727 294.86567 
L 87.320727 291.462513 
L 92.910545 287.957146 
L 98.500364 284.181159 
L 103.824 280.314282 
L 109.147636 276.163611 
L 114.205091 271.938654 
L 119.262545 267.419642 
L 124.053818 262.848694 
L 128.845091 257.97691 
L 133.636364 252.78447 
L 138.427636 247.250266 
L 142.952727 241.689482 
L 147.477818 235.783647 
L 152.002909 229.511369 
L 156.528 222.849868 
L 161.053091 215.775039 
L 165.312 208.715844 
L 169.570909 201.245113 
L 173.829818 193.338889 
L 178.088727 184.971769 
L 182.347636 176.116892 
L 186.606545 166.74579 
L 190.865455 156.828407 
L 195.124364 146.332861 
L 199.383273 135.225531 
L 203.642182 123.470621 
L 207.901091 111.030506 
L 212.16 97.865159 
L 216.418909 83.932357 
L 220.677818 69.187296 
L 224.936727 53.582733 
L 226.8 46.472721 
L 231.591273 44.101413 
L 236.648727 41.842569 
L 241.972364 39.708727 
L 247.562182 37.709137 
L 253.418182 35.849927 
L 259.540364 34.13438 
L 266.194909 32.502086 
L 273.381818 30.975971 
L 281.101091 29.572628 
L 289.352727 28.302466 
L 298.402909 27.139099 
L 308.251636 26.099276 
L 319.165091 25.171006 
L 331.409455 24.352532 
L 345.517091 23.635498 
L 362.020364 23.025137 
L 381.717818 22.524678 
L 406.472727 22.127432 
L 426.436364 21.927273 
L 426.436364 21.927273 
" clip-path="url(#p169a047585)" style="fill: none; stroke-dasharray: 11.1,4.8; stroke-dashoffset: 0; stroke: #000000; stroke-width: 3"/>
   </g>
   <g id="line2d_2">
    <path d="M 27.163636 258.363495 
L 29.293091 262.163104 
L 30.357818 263.541473 
L 31.156364 264.253143 
L 31.954909 264.727093 
L 33.019636 265.106102 
L 34.882909 265.479533 
L 38.343273 265.950695 
L 41.005091 266.057288 
L 45.264 266.00296 
L 47.659636 265.739914 
L 55.911273 264.385224 
L 57.242182 263.835708 
L 58.573091 262.990017 
L 60.702545 261.249212 
L 62.299636 260.097634 
L 63.630545 259.457128 
L 64.961455 259.078606 
L 67.357091 258.692592 
L 77.738182 257.366426 
L 85.723636 256.461606 
L 89.184 255.827482 
L 91.579636 255.187222 
L 93.709091 254.400929 
L 96.104727 253.243518 
L 100.363636 251.101692 
L 102.493091 250.325147 
L 104.888727 249.70825 
L 108.082909 249.14282 
L 125.118545 246.493648 
L 128.046545 245.672119 
L 136.298182 243.158609 
L 144.283636 241.203779 
L 147.211636 240.525141 
L 148.276364 240.045196 
L 149.341091 239.29226 
L 150.405818 238.20838 
L 151.470545 236.79854 
L 153.067636 234.221569 
L 155.463273 229.838293 
L 157.858909 225.024028 
L 160.254545 219.662429 
L 163.981091 211.259959 
L 170.901818 196.393506 
L 173.031273 191.145092 
L 174.628364 186.611596 
L 175.959273 182.110307 
L 177.290182 176.729141 
L 178.621091 170.441115 
L 180.750545 159.087128 
L 182.88 147.863769 
L 184.210909 141.988385 
L 185.275636 138.27755 
L 186.340364 135.479606 
L 187.405091 133.447168 
L 188.469818 131.932219 
L 190.333091 129.788861 
L 192.196364 127.528578 
L 193.527273 125.525706 
L 194.858182 123.035506 
L 196.189091 120.048217 
L 201.246545 108.083105 
L 203.109818 104.621394 
L 205.771636 100.241313 
L 208.433455 95.812655 
L 210.030545 92.731317 
L 211.627636 89.092691 
L 213.490909 84.139591 
L 220.944 63.311438 
L 222.274909 60.338476 
L 223.605818 57.915956 
L 224.670545 56.396916 
L 225.735273 55.2204 
L 226.8 54.334106 
L 228.130909 53.543916 
L 229.728 52.915068 
L 231.857455 52.357656 
L 235.584 51.634425 
L 237.713455 51.410477 
L 239.842909 51.401787 
L 243.569455 51.434547 
L 245.698909 51.158509 
L 250.224 50.432312 
L 251.821091 50.418021 
L 253.418182 50.642618 
L 254.749091 51.046606 
L 256.346182 51.776596 
L 260.605091 53.927187 
L 261.936 54.25333 
L 263.266909 54.334282 
L 264.864 54.172501 
L 279.237818 51.810795 
L 289.086545 50.411964 
L 295.208727 49.376863 
L 297.870545 49.228267 
L 300.532364 49.319946 
L 305.323636 49.59198 
L 308.784 49.385799 
L 311.179636 49.377653 
L 313.841455 49.369068 
L 314.906182 49.165837 
L 315.970909 48.738587 
L 317.035636 48.069886 
L 321.028364 45.149487 
L 322.359273 44.666356 
L 323.956364 44.362474 
L 326.085818 44.19109 
L 328.215273 44.265142 
L 334.337455 44.701117 
L 339.128727 44.745921 
L 347.646545 44.491847 
L 352.171636 44.341319 
L 357.495273 44.240458 
L 379.588364 44.034295 
L 383.847273 43.806081 
L 386.775273 43.927096 
L 388.638545 44.210349 
L 389.969455 44.671799 
L 391.034182 45.264481 
L 392.631273 46.457307 
L 394.760727 48.060388 
L 396.091636 48.767344 
L 397.422545 49.205725 
L 399.019636 49.454444 
L 400.616727 49.463065 
L 402.746182 49.212659 
L 404.343273 49.085218 
L 405.408 49.217874 
L 406.472727 49.632009 
L 407.537455 50.345443 
L 409.134545 51.767835 
L 410.731636 53.090683 
L 411.796364 53.679573 
L 412.861091 54.008139 
L 414.458182 54.207771 
L 416.587636 54.48797 
L 418.184727 54.940131 
L 420.048 55.727618 
L 421.645091 56.656591 
L 422.709818 57.52517 
L 423.774545 58.718734 
L 424.839273 60.285158 
L 426.436364 63.087894 
L 426.436364 63.087894 
" clip-path="url(#p169a047585)" style="fill: none; stroke: #0000ff; stroke-width: 3; stroke-linecap: square"/>
   </g>
   <g id="patch_3">
    <path d="M 7.2 331.2 
L 7.2 7.2 
" style="fill: none; stroke: #000000; stroke-width: 0.8; stroke-linejoin: miter; stroke-linecap: square"/>
   </g>
   <g id="patch_4">
    <path d="M 446.4 331.2 
L 446.4 7.2 
" style="fill: none; stroke: #000000; stroke-width: 0.8; stroke-linejoin: miter; stroke-linecap: square"/>
   </g>
   <g id="patch_5">
    <path d="M 7.2 331.2 
L 446.4 331.2 
" style="fill: none; stroke: #000000; stroke-width: 0.8; stroke-linejoin: miter; stroke-linecap: square"/>
   </g>
   <g id="patch_6">
    <path d="M 7.2 7.2 
L 446.4 7.2 
" style="fill: none; stroke: #000000; stroke-width: 0.8; stroke-linejoin: miter; stroke-linecap: square"/>
   </g>
  </g>
 </g>
 <defs>
  <clipPath id="p169a047585">
   <rect x="7.2" y="7.2" width="439.2" height="324"/>
  </clipPath>
 </defs>
</svg>
