<?xml version="1.0" encoding="utf-8" standalone="no"?>
<!DOCTYPE svg PUBLIC "-//W3C//DTD SVG 1.1//EN"
  "http://www.w3.org/Graphics/SVG/1.1/DTD/svg11.dtd">
<svg xmlns:xlink="http://www.w3.org/1999/xlink" width="453.6pt" height="338.4pt" viewBox="0 0 453.6 338.4" xmlns="http://www.w3.org/2000/svg" version="1.1">
 <metadata>
  <rdf:RDF xmlns:dc="http://purl.org/dc/elements/1.1/" xmlns:cc="http://creativecommons.org/ns#" xmlns:rdf="http://www.w3.org/1999/02/22-rdf-syntax-ns#">
   <cc:Work>
    <dc:type rdf:resource="http://purl.org/dc/dcmitype/StillImage"/>
    <dc:date>2025-05-14T16:04:14.921001</dc:date>
    <dc:format>image/svg+xml</dc:format>
    <dc:creator>
     <cc:Agent>
      <dc:title>Matplotlib v3.10.1, https://matplotlib.org/</dc:title>
     </cc:Agent>
    </dc:creator>
   </cc:Work>
  </rdf:RDF>
 </metadata>
 <defs>
  <style type="text/css">*{stroke-linejoin: round; stroke-linecap: butt}</style>
 </defs>
 <g id="figure_1">
  <g id="patch_1">
   <path d="M 0 338.4 
L 453.6 338.4 
L 453.6 0 
L 0 0 
z
" style="fill: #ffffff"/>
  </g>
  <g id="axes_1">
   <g id="patch_2">
    <path d="M 7.2 331.2 
L 446.4 331.2 
L 446.4 7.2 
L 7.2 7.2 
z
" style="fill: #ffffff"/>
   </g>
   <g id="matplotlib.axis_1"/>
   <g id="matplotlib.axis_2"/>
   <g id="line2d_1">
    <path d="M 27.163636 316.472674 
L 34.882909 314.266845 
L 42.336 311.910928 
L 49.522909 309.406855 
L 56.443636 306.758357 
L 63.098182 303.971133 
L 69.486545 301.052956 
L 75.608727 298.013757 
L 81.464727 294.86567 
L 87.320727 291.462513 
L 92.910545 287.957146 
L 98.500364 284.181159 
L 103.824 280.314282 
L 109.147636 276.163611 
L 114.205091 271.938654 
L 119.262545 267.419642 
L 124.053818 262.848694 
L 128.845091 257.97691 
L 133.636364 252.78447 
L 138.427636 247.250266 
L 142.952727 241.689482 
L 147.477818 235.783647 
L 152.002909 229.511369 
L 156.528 222.849868 
L 161.053091 215.775039 
L 165.312 208.715844 
L 169.570909 201.245113 
L 173.829818 193.338889 
L 178.088727 184.971769 
L 182.347636 176.116892 
L 186.606545 166.74579 
L 190.865455 156.828407 
L 195.124364 146.332861 
L 199.383273 135.225531 
L 203.642182 123.470621 
L 207.901091 111.030506 
L 212.16 97.865159 
L 216.418909 83.932357 
L 220.677818 69.187296 
L 224.936727 53.582733 
L 226.8 46.472721 
L 231.591273 44.101413 
L 236.648727 41.842569 
L 241.972364 39.708727 
L 247.562182 37.709137 
L 253.418182 35.849927 
L 259.540364 34.13438 
L 266.194909 32.502086 
L 273.381818 30.975971 
L 281.101091 29.572628 
L 289.352727 28.302466 
L 298.402909 27.139099 
L 308.251636 26.099276 
L 319.165091 25.171006 
L 331.409455 24.352532 
L 345.517091 23.635498 
L 362.020364 23.025137 
L 381.717818 22.524678 
L 406.472727 22.127432 
L 426.436364 21.927273 
L 426.436364 21.927273 
" clip-path="url(#pba8b7ceba6)" style="fill: none; stroke-dasharray: 11.1,4.8; stroke-dashoffset: 0; stroke: #000000; stroke-width: 3"/>
   </g>
   <g id="line2d_2">
    <path d="M 27.163636 78.098055 
L 27.696 73.772083 
L 28.228364 70.767642 
L 28.760727 69.107643 
L 29.026909 68.801866 
L 29.293091 68.813558 
L 29.559273 69.20717 
L 29.825455 69.925415 
L 30.357818 72.445057 
L 30.890182 76.388179 
L 31.422545 81.76916 
L 32.221091 92.596222 
L 33.019636 106.754534 
L 34.084364 130.890079 
L 35.149091 161.085664 
L 36.213818 197.383671 
L 37.012364 228.347352 
L 37.278545 232.33584 
L 37.544727 233.147669 
L 37.810909 233.010976 
L 38.077091 231.981511 
L 38.609455 227.479186 
L 39.141818 220.126371 
L 39.940364 204.933889 
L 41.271273 173.574761 
L 42.602182 143.626895 
L 43.400727 131.131864 
L 43.666909 128.482587 
L 43.933091 127.355456 
L 44.731636 126.591407 
L 45.264 126.257311 
L 45.796364 126.100288 
L 46.328727 126.174902 
L 46.861091 126.543355 
L 47.393455 127.27568 
L 47.925818 128.450037 
L 48.458182 130.153189 
L 48.990545 132.532469 
L 49.522909 135.728185 
L 50.055273 139.806912 
L 50.321455 142.31379 
L 52.717091 181.137557 
L 53.249455 185.973197 
L 53.781818 189.010108 
L 54.048 189.817056 
L 54.314182 190.134149 
L 54.580364 189.911597 
L 54.846545 189.162488 
L 55.378909 186.125076 
L 55.911273 180.967867 
L 56.443636 173.743916 
L 57.242182 159.20012 
L 58.306909 134.176596 
L 60.702545 74.119328 
L 61.234909 66.333032 
L 61.767273 62.058254 
L 62.033455 61.482303 
L 62.299636 62.055322 
L 62.565818 63.940673 
L 63.098182 88.469373 
L 64.162909 137.731637 
L 65.227636 175.398454 
L 66.026182 196.432016 
L 66.824727 211.592396 
L 67.357091 218.629163 
L 67.889455 223.31575 
L 68.421818 225.810233 
L 68.688 226.248113 
L 68.954182 226.176264 
L 69.220364 225.617606 
L 69.486545 224.587649 
L 70.018909 221.158171 
L 70.551273 216.005491 
L 71.349818 205.383443 
L 72.148364 191.506462 
L 75.874909 118.894349 
L 76.673455 107.970219 
L 77.205818 103.002828 
L 78.004364 99.598824 
L 78.536727 98.103222 
L 79.069091 97.127462 
L 79.601455 96.637203 
L 80.133818 96.564748 
L 80.666182 96.882253 
L 81.198545 97.515368 
L 81.997091 99.06564 
L 82.795636 101.241003 
L 83.594182 104.001201 
L 84.658909 108.67182 
L 85.457455 112.969421 
L 86.522182 120.079081 
L 87.320727 126.647429 
L 88.119273 134.596788 
L 88.651636 141.12028 
L 92.112 190.110395 
L 92.910545 198.403515 
L 93.709091 204.486423 
L 94.241455 204.750645 
L 94.773818 205.171109 
L 95.838545 206.400988 
L 96.637091 207.305452 
L 97.435636 207.765444 
L 97.968 207.712257 
L 98.500364 207.235315 
L 99.032727 206.220939 
L 99.565091 204.654542 
L 100.097455 202.381048 
L 100.896 197.650123 
L 101.694545 191.15516 
L 102.493091 182.85759 
L 103.557818 169.081109 
L 104.622545 152.453453 
L 106.219636 123.41502 
L 110.478545 39.257091 
L 110.744727 39.934834 
L 111.543273 67.850579 
L 112.341818 88.396708 
L 113.140364 102.569715 
L 113.938909 111.688024 
L 114.471273 115.700879 
L 115.269818 119.793704 
L 116.600727 125.421211 
L 117.133091 128.563381 
L 117.665455 132.80043 
L 118.197818 138.502656 
L 118.996364 150.298543 
L 119.794909 166.575354 
L 121.924364 216.457574 
L 122.722909 226.63199 
L 123.255273 231.14965 
L 123.787636 234.167855 
L 124.32 235.982709 
L 124.852364 236.85077 
L 125.384727 237.065642 
L 125.917091 236.766843 
L 126.449455 236.212486 
L 127.248 235.425885 
L 128.046545 234.903244 
L 129.111273 233.776166 
L 130.176 232.063059 
L 130.974545 230.348057 
L 132.039273 227.432916 
L 133.104 223.709958 
L 134.168727 219.256844 
L 135.499636 212.752252 
L 137.362909 202.469426 
L 140.290909 186.390914 
L 141.355636 181.595065 
L 142.154182 178.698938 
L 142.952727 176.508819 
L 143.751273 174.789954 
L 144.283636 171.9438 
L 145.082182 166.04447 
L 145.880727 158.191459 
L 146.945455 144.694316 
L 148.010182 127.872348 
L 149.341091 102.546909 
L 150.938182 67.033843 
L 151.470545 54.298906 
L 151.736727 51.045552 
L 152.002909 50.982297 
L 152.269091 51.144517 
L 152.535273 51.522539 
L 153.067636 52.906518 
L 153.6 55.039272 
L 154.398545 59.311644 
L 155.463273 66.442618 
L 158.125091 84.835382 
L 158.923636 88.884649 
L 159.456 90.889576 
L 159.988364 92.26181 
L 160.254545 92.686988 
L 161.053091 98.549503 
L 162.117818 108.442956 
L 163.182545 120.54829 
L 164.513455 138.282097 
L 169.038545 202.125306 
L 170.103273 212.566919 
L 170.901818 218.049516 
L 171.434182 220.434738 
L 171.966545 221.740267 
L 172.232727 221.978067 
L 172.498909 221.937082 
L 172.765091 222.743626 
L 173.297455 228.99596 
L 174.096 236.998524 
L 174.628364 240.390555 
L 175.160727 242.502031 
L 175.693091 243.623894 
L 175.959273 243.841355 
L 176.225455 243.863125 
L 176.757818 243.52338 
L 177.290182 243.164798 
L 177.822545 242.874676 
L 178.621091 242.050826 
L 179.419636 240.64383 
L 180.218182 238.439745 
L 181.016727 235.2285 
L 181.815273 230.8107 
L 182.613818 225.065768 
L 183.678545 215.312185 
L 185.009455 200.488534 
L 186.606545 182.414873 
L 187.405091 175.830743 
L 187.937455 173.510119 
L 188.203636 173.207457 
L 188.469818 173.601798 
L 188.736 174.806808 
L 189.002182 176.906951 
L 189.534545 184.384793 
L 190.066909 197.161584 
L 190.599273 216.348269 
L 191.664 171.303418 
L 192.462545 146.929301 
L 192.994909 136.123798 
L 193.527273 130.038143 
L 194.592 129.760174 
L 197.253818 128.722318 
L 198.052364 128.798196 
L 198.584727 129.067386 
L 199.117091 129.606065 
L 199.649455 130.449592 
L 200.181818 131.662836 
L 200.980364 134.382268 
L 201.778909 138.339102 
L 202.577455 143.802141 
L 203.376 151.077287 
L 204.174545 160.438312 
L 204.973091 172.17154 
L 205.771636 186.5732 
L 206.836364 210.47867 
L 207.901091 240.394408 
L 208.965818 277.017075 
L 209.764364 308.891229 
L 210.030545 303.177973 
L 211.095273 234.755543 
L 211.893818 200.41844 
L 212.426182 185.058576 
L 212.958545 174.611687 
L 213.490909 168.331052 
L 214.023273 165.223538 
L 214.289455 164.601291 
L 214.555636 164.433699 
L 214.821818 164.639634 
L 215.354182 165.703439 
L 216.152727 167.425131 
L 216.418909 167.640546 
L 216.685091 167.531697 
L 216.951273 167.03266 
L 217.217455 166.007496 
L 217.483636 164.456241 
L 218.016 159.346065 
L 218.548364 151.220704 
L 219.080727 139.678962 
L 219.879273 115.30423 
L 220.145455 105.869961 
L 220.411636 106.117311 
L 220.677818 106.202477 
L 220.944 106.118927 
L 221.476364 105.52635 
L 222.008727 104.441407 
L 222.807273 102.12533 
L 223.872 98.165652 
L 226.8 86.336162 
L 229.994182 55.624493 
L 231.058909 48.137215 
L 231.857455 44.049902 
L 232.123636 42.995982 
L 232.389818 43.728763 
L 233.188364 48.045852 
L 233.986909 51.171817 
L 236.648727 60.419937 
L 237.713455 65.200582 
L 239.310545 73.509529 
L 240.907636 81.765807 
L 241.972364 86.185881 
L 242.770909 88.541003 
L 243.303273 89.506124 
L 243.569455 91.2354 
L 244.900364 107.945148 
L 246.497455 130.784109 
L 248.094545 156.640538 
L 249.425455 181.199575 
L 250.756364 209.833126 
L 251.821091 237.021769 
L 252.885818 269.550588 
L 253.152 278.750687 
L 253.418182 281.082463 
L 254.749091 251.124094 
L 255.813818 231.268234 
L 256.612364 219.349093 
L 257.410909 210.453837 
L 257.943273 206.39695 
L 258.475636 203.922542 
L 258.741818 203.274996 
L 259.008 203.042129 
L 259.274182 203.193429 
L 259.540364 203.723612 
L 260.338909 205.994463 
L 261.403636 206.871601 
L 262.468364 207.975057 
L 263.799273 209.673039 
L 265.396364 212.079109 
L 269.389091 218.321445 
L 270.453818 219.522874 
L 271.518545 220.296017 
L 272.317091 220.501689 
L 272.849455 220.460502 
L 273.381818 220.254743 
L 273.914182 219.875931 
L 274.712727 218.94831 
L 275.245091 218.101053 
L 276.043636 216.488605 
L 276.576 215.163141 
L 276.842182 213.663721 
L 277.374545 208.041341 
L 278.173091 196.058523 
L 281.367273 136.553523 
L 282.698182 117.228679 
L 284.029091 101.164335 
L 285.093818 90.692489 
L 286.158545 82.466232 
L 286.957091 77.905427 
L 287.489455 75.707101 
L 288.021818 74.244557 
L 288.554182 73.581334 
L 288.820364 73.572345 
L 289.086545 73.791921 
L 289.352727 74.251229 
L 289.885091 75.977432 
L 290.417455 78.843565 
L 290.949818 82.954543 
L 291.482182 88.524658 
L 292.280727 99.905532 
L 293.079273 115.592276 
L 293.345455 121.930496 
L 295.474909 193.460967 
L 296.539636 218.087885 
L 297.338182 232.279669 
L 298.136727 243.296242 
L 298.935273 251.391463 
L 299.467636 255.250908 
L 300 257.905052 
L 300.532364 259.351992 
L 300.798545 259.630062 
L 301.064727 259.608415 
L 301.330909 259.283773 
L 301.597091 258.651901 
L 302.129455 256.444559 
L 302.661818 252.932781 
L 303.194182 247.984852 
L 303.992727 237.761028 
L 304.791273 223.758923 
L 305.589818 205.502185 
L 306.388364 182.361081 
L 307.453091 143.728194 
L 307.719273 141.971829 
L 308.517818 146.968504 
L 310.381091 160.096737 
L 311.445818 164.14151 
L 312.510545 167.330379 
L 313.575273 169.751513 
L 314.373818 171.113318 
L 315.172364 172.120039 
L 315.970909 172.784509 
L 316.503273 173.030613 
L 317.035636 173.121045 
L 317.568 173.026672 
L 318.100364 172.72516 
L 318.632727 172.208725 
L 319.165091 171.405709 
L 319.697455 170.293142 
L 320.496 167.866021 
L 321.028364 165.630686 
L 321.826909 161.034909 
L 322.625455 154.540544 
L 323.424 145.493566 
L 324.222545 132.952222 
L 325.021091 119.339049 
L 325.287273 119.527551 
L 325.553455 119.421037 
L 325.819636 119.027829 
L 326.085818 118.314008 
L 326.884364 115.54598 
L 329.546182 111.848576 
L 333.538909 106.414451 
L 339.661091 98.379049 
L 341.790545 95.124536 
L 343.121455 92.795784 
L 343.387636 92.00533 
L 344.186182 88.171952 
L 344.984727 83.347241 
L 346.049455 75.437366 
L 347.380364 63.565882 
L 350.574545 33.350458 
L 351.373091 27.893229 
L 351.639273 26.497944 
L 351.905455 26.413674 
L 352.704 32.214812 
L 353.502545 36.184901 
L 354.034909 37.95489 
L 354.567273 39.144784 
L 355.099636 39.8822 
L 355.632 40.284292 
L 356.696727 40.653307 
L 357.229091 40.892915 
L 357.761455 41.344989 
L 358.293818 42.145187 
L 358.826182 43.398459 
L 359.358545 45.205281 
L 360.955636 52.537766 
L 362.020364 58.787572 
L 362.818909 64.338709 
L 363.351273 65.450706 
L 363.883636 67.186197 
L 364.682182 70.837902 
L 365.746909 77.153475 
L 367.344 88.440651 
L 372.933818 129.768672 
L 375.063273 143.351033 
L 376.394182 151.093456 
L 376.660364 154.788368 
L 377.991273 181.225383 
L 379.056 197.434268 
L 379.854545 206.289242 
L 380.386909 210.499817 
L 380.919273 213.346031 
L 381.451636 214.71507 
L 381.717818 214.868749 
L 381.984 214.635145 
L 382.250182 212.627532 
L 382.782545 193.921889 
L 383.847273 156.307811 
L 384.912 125.110324 
L 385.976727 99.575298 
L 387.041455 79.260772 
L 387.84 67.326506 
L 388.638545 58.228738 
L 389.437091 52.026421 
L 389.969455 49.547791 
L 390.235636 48.80818 
L 390.501818 48.441886 
L 390.768 48.4017 
L 391.034182 48.750877 
L 391.300364 49.438837 
L 391.832727 51.956793 
L 392.365091 55.973986 
L 392.897455 61.536481 
L 393.696 70.350768 
L 395.559273 89.815641 
L 396.091636 93.121593 
L 396.624 95.452014 
L 397.156364 96.984132 
L 397.688727 97.869337 
L 398.221091 98.23507 
L 398.753455 98.188335 
L 399.285818 97.818003 
L 399.818182 97.19716 
L 400.616727 95.914867 
L 402.213818 92.768712 
L 403.544727 90.239327 
L 404.343273 89.082368 
L 404.875636 88.57838 
L 405.408 88.364193 
L 405.940364 88.523797 
L 406.472727 89.158404 
L 407.005091 90.389047 
L 407.537455 92.359932 
L 408.069818 95.240004 
L 408.602182 99.227719 
L 409.134545 104.620902 
L 410.465455 119.915211 
L 412.594909 140.311374 
L 414.724364 157.147493 
L 417.12 177.991639 
L 419.781818 201.205646 
L 420.580364 206.691061 
L 421.112727 209.3779 
L 421.645091 211.006842 
L 421.911273 211.267017 
L 422.177455 211.118175 
L 422.443636 210.522148 
L 422.709818 209.313074 
L 422.976 207.533964 
L 423.508364 201.726006 
L 424.040727 192.274672 
L 424.573091 178.291764 
L 425.105455 158.657859 
L 425.637818 132.029709 
L 426.170182 96.751582 
L 426.436364 75.284679 
L 426.436364 75.284679 
" clip-path="url(#pba8b7ceba6)" style="fill: none; stroke: #ffa500; stroke-width: 3; stroke-linecap: square"/>
   </g>
   <g id="patch_3">
    <path d="M 7.2 331.2 
L 7.2 7.2 
" style="fill: none; stroke: #000000; stroke-width: 0.8; stroke-linejoin: miter; stroke-linecap: square"/>
   </g>
   <g id="patch_4">
    <path d="M 446.4 331.2 
L 446.4 7.2 
" style="fill: none; stroke: #000000; stroke-width: 0.8; stroke-linejoin: miter; stroke-linecap: square"/>
   </g>
   <g id="patch_5">
    <path d="M 7.2 331.2 
L 446.4 331.2 
" style="fill: none; stroke: #000000; stroke-width: 0.8; stroke-linejoin: miter; stroke-linecap: square"/>
   </g>
   <g id="patch_6">
    <path d="M 7.2 7.2 
L 446.4 7.2 
" style="fill: none; stroke: #000000; stroke-width: 0.8; stroke-linejoin: miter; stroke-linecap: square"/>
   </g>
  </g>
 </g>
 <defs>
  <clipPath id="pba8b7ceba6">
   <rect x="7.2" y="7.2" width="439.2" height="324"/>
  </clipPath>
 </defs>
</svg>
