<?xml version="1.0" encoding="utf-8" standalone="no"?>
<!DOCTYPE svg PUBLIC "-//W3C//DTD SVG 1.1//EN"
  "http://www.w3.org/Graphics/SVG/1.1/DTD/svg11.dtd">
<svg xmlns:xlink="http://www.w3.org/1999/xlink" width="453.6pt" height="338.4pt" viewBox="0 0 453.6 338.4" xmlns="http://www.w3.org/2000/svg" version="1.1">
 <metadata>
  <rdf:RDF xmlns:dc="http://purl.org/dc/elements/1.1/" xmlns:cc="http://creativecommons.org/ns#" xmlns:rdf="http://www.w3.org/1999/02/22-rdf-syntax-ns#">
   <cc:Work>
    <dc:type rdf:resource="http://purl.org/dc/dcmitype/StillImage"/>
    <dc:date>2025-05-14T16:08:38.777236</dc:date>
    <dc:format>image/svg+xml</dc:format>
    <dc:creator>
     <cc:Agent>
      <dc:title>Matplotlib v3.10.1, https://matplotlib.org/</dc:title>
     </cc:Agent>
    </dc:creator>
   </cc:Work>
  </rdf:RDF>
 </metadata>
 <defs>
  <style type="text/css">*{stroke-linejoin: round; stroke-linecap: butt}</style>
 </defs>
 <g id="figure_1">
  <g id="patch_1">
   <path d="M 0 338.4 
L 453.6 338.4 
L 453.6 0 
L 0 0 
z
" style="fill: #ffffff"/>
  </g>
  <g id="axes_1">
   <g id="patch_2">
    <path d="M 7.2 331.2 
L 446.4 331.2 
L 446.4 7.2 
L 7.2 7.2 
z
" style="fill: #ffffff"/>
   </g>
   <g id="matplotlib.axis_1"/>
   <g id="matplotlib.axis_2"/>
   <g id="line2d_1">
    <path d="M 27.163636 21.928309 
L 29.026909 58.267257 
L 30.890182 90.273122 
L 32.753455 118.461744 
L 34.616727 143.28841 
L 36.48 165.154121 
L 38.343273 184.411952 
L 40.206545 201.372984 
L 42.069818 216.311129 
L 43.933091 229.46768 
L 45.796364 241.055051 
L 47.659636 251.260462 
L 49.522909 260.248714 
L 51.386182 268.164963 
L 53.249455 275.137087 
L 55.112727 281.277658 
L 56.976 286.685852 
L 58.839273 291.449063 
L 60.702545 295.644153 
L 62.565818 299.338924 
L 64.429091 302.593033 
L 66.558545 305.839557 
L 68.688 308.647456 
L 70.817455 311.076015 
L 72.946909 313.176466 
L 75.076364 314.993137 
L 76.939636 316.380223 
L 77.205818 22.712741 
L 126.981818 316.472727 
L 127.248 23.498208 
L 176.757818 315.687259 
L 177.024 22.712741 
L 226.8 316.472727 
L 227.066182 23.498208 
L 276.576 315.68733 
L 276.842182 22.71267 
L 326.618182 316.472727 
L 326.884364 23.498208 
L 376.394182 315.68733 
L 376.660364 22.71267 
L 426.436364 316.472727 
L 426.436364 316.472727 
" clip-path="url(#p1f8e589965)" style="fill: none; stroke-dasharray: 11.1,4.8; stroke-dashoffset: 0; stroke: #000000; stroke-width: 3"/>
   </g>
   <g id="line2d_2">
    <path d="M 27.163636 114.533563 
L 27.429818 108.35054 
L 27.696 106.69558 
L 27.962182 106.191785 
L 28.228364 106.080584 
L 28.760727 106.394929 
L 30.890182 109.172736 
L 31.156364 109.608746 
L 31.422545 109.231549 
L 31.954909 109.530129 
L 34.084364 111.687743 
L 34.882909 112.475423 
L 35.415273 112.890892 
L 35.681455 111.88576 
L 36.213818 112.000894 
L 36.746182 112.345453 
L 37.278545 113.070142 
L 38.077091 114.882265 
L 39.141818 117.309895 
L 40.206545 118.97423 
L 40.738909 120.8195 
L 41.271273 123.883825 
L 42.069818 128.728287 
L 42.602182 130.653613 
L 43.400727 132.324655 
L 43.933091 132.650061 
L 44.199273 133.628612 
L 47.659636 137.443486 
L 48.458182 137.283671 
L 49.522909 137.48685 
L 50.853818 138.303744 
L 51.918545 138.31361 
L 52.983273 137.770963 
L 53.515636 137.731128 
L 54.048 138.354499 
L 55.112727 139.578294 
L 55.645091 139.606735 
L 56.177455 139.295164 
L 56.976 138.278831 
L 57.774545 137.677529 
L 58.839273 137.377738 
L 59.371636 136.973698 
L 59.904 136.171235 
L 60.436364 135.930205 
L 60.968727 135.972024 
L 61.234909 141.842527 
L 61.767273 141.591841 
L 62.033455 141.644457 
L 62.565818 142.148463 
L 63.630545 143.357441 
L 64.162909 143.52728 
L 64.695273 143.547154 
L 66.026182 143.865397 
L 66.558545 144.235711 
L 67.357091 145.026727 
L 67.889455 145.316054 
L 68.155636 145.328941 
L 69.486545 144.777006 
L 69.752727 145.389615 
L 70.018909 149.705404 
L 70.285091 157.344597 
L 70.551273 160.961612 
L 71.083636 163.672283 
L 72.148364 167.405748 
L 72.414545 166.976181 
L 73.479273 163.146508 
L 74.011636 160.578235 
L 75.076364 157.920162 
L 75.608727 157.016154 
L 76.407273 154.456502 
L 77.472 149.847242 
L 78.004364 148.442248 
L 78.270545 146.226189 
L 78.802909 146.534548 
L 79.335273 147.205233 
L 80.133818 148.75719 
L 80.666182 149.557387 
L 80.932364 149.643519 
L 81.730909 149.553859 
L 82.263273 149.408071 
L 82.529455 149.218165 
L 83.328 149.567149 
L 84.392727 150.578355 
L 84.925091 150.618524 
L 85.989818 149.415937 
L 86.522182 148.986229 
L 86.788364 148.420759 
L 88.651636 150.304969 
L 89.184 150.51208 
L 89.450182 150.34656 
L 91.047273 148.591441 
L 92.644364 148.149374 
L 93.176727 147.58041 
L 93.442909 147.089537 
L 93.975273 145.711983 
L 94.241455 145.315615 
L 94.507636 145.124603 
L 94.773818 145.089122 
L 95.04 145.507154 
L 95.306182 149.974911 
L 95.838545 150.474124 
L 96.370909 150.668595 
L 96.903273 150.538608 
L 97.169455 150.394804 
L 97.701818 150.558973 
L 98.234182 150.271717 
L 99.032727 150.848581 
L 99.298909 151.282959 
L 99.831273 152.998154 
L 100.363636 153.92955 
L 101.428364 156.873316 
L 101.960727 160.211871 
L 102.226909 160.708977 
L 102.493091 161.913636 
L 103.025455 165.994645 
L 103.557818 165.159669 
L 103.824 166.620965 
L 104.090182 165.946857 
L 104.356364 163.840876 
L 104.622545 162.627474 
L 105.154909 163.998338 
L 105.421091 164.59232 
L 105.687273 167.285348 
L 107.018182 191.452871 
L 107.284364 194.911308 
L 108.881455 205.941329 
L 109.413818 212.398019 
L 109.946182 220.67561 
L 110.478545 228.109351 
L 111.010909 233.851245 
L 111.543273 239.530789 
L 111.809455 240.24202 
L 112.075636 240.114491 
L 112.341818 239.741789 
L 112.608 239.107682 
L 113.140364 237.27565 
L 113.406545 236.895504 
L 113.672727 236.848725 
L 113.938909 237.035234 
L 114.205091 241.201611 
L 114.471273 250.825075 
L 114.737455 253.389832 
L 115.269818 254.217839 
L 115.536 254.400302 
L 115.802182 254.345745 
L 116.334545 252.198134 
L 117.399273 247.118441 
L 118.996364 241.711085 
L 120.061091 235.288007 
L 121.658182 211.57635 
L 122.190545 208.312726 
L 122.722909 206.252778 
L 122.989091 205.779065 
L 123.521455 205.960536 
L 124.053818 206.981021 
L 124.32 208.167904 
L 124.586182 208.570628 
L 124.852364 208.063251 
L 125.650909 204.910091 
L 125.917091 204.097069 
L 126.183273 203.8066 
L 126.715636 204.351433 
L 126.981818 204.703866 
L 127.514182 204.793368 
L 127.780364 204.391391 
L 128.578909 203.960911 
L 129.111273 202.319548 
L 129.377455 197.278746 
L 130.176 196.275879 
L 130.442182 196.253696 
L 131.240727 196.796528 
L 132.039273 197.4872 
L 132.571636 197.365878 
L 132.837818 197.274287 
L 133.370182 196.269269 
L 134.434909 193.814182 
L 134.701091 193.4654 
L 134.967273 193.484536 
L 135.499636 192.828256 
L 135.765818 192.457002 
L 136.032 192.298408 
L 136.830545 190.297528 
L 137.096727 189.971832 
L 137.629091 187.72785 
L 137.895273 184.956302 
L 138.96 180.700863 
L 139.226182 180.864171 
L 139.492364 180.749801 
L 140.024727 180.078264 
L 140.290909 180.54793 
L 140.823273 179.203365 
L 141.089455 179.223449 
L 141.355636 179.815728 
L 141.621818 179.624399 
L 142.154182 177.868544 
L 142.420364 178.057414 
L 142.952727 177.004845 
L 143.218909 177.465118 
L 143.485091 178.806865 
L 143.751273 179.079479 
L 144.549818 175.538422 
L 145.082182 172.749203 
L 145.348364 172.993139 
L 145.880727 174.261036 
L 146.413091 174.634765 
L 146.945455 176.086941 
L 147.211636 176.363365 
L 147.744 176.196765 
L 148.010182 175.19876 
L 148.542545 171.599557 
L 149.074909 169.322157 
L 149.341091 168.851806 
L 149.607273 168.912077 
L 150.139636 169.412686 
L 150.672 169.287869 
L 150.938182 169.40001 
L 151.204364 169.382954 
L 151.470545 169.500721 
L 151.736727 169.781894 
L 152.002909 170.240078 
L 152.269091 170.435172 
L 152.801455 170.122372 
L 153.067636 170.343203 
L 153.6 170.155702 
L 153.866182 170.59568 
L 154.664727 172.615486 
L 155.729455 177.238466 
L 155.995636 177.735757 
L 156.261818 177.862961 
L 156.528 177.66569 
L 157.060364 176.082956 
L 157.858909 173.579659 
L 158.125091 173.949368 
L 158.657455 175.895982 
L 159.189818 179.211616 
L 159.722182 185.067486 
L 161.053091 201.404023 
L 161.851636 208.322329 
L 162.384 212.892456 
L 162.916364 217.447511 
L 163.981091 223.388503 
L 164.513455 224.233855 
L 164.779636 224.361621 
L 165.045818 224.058161 
L 165.578182 222.167157 
L 166.642909 216.823438 
L 167.441455 214.84546 
L 167.707636 214.745056 
L 167.973818 214.898472 
L 168.772364 215.903972 
L 169.038545 216.305221 
L 169.304727 216.351069 
L 169.570909 215.831632 
L 169.837091 214.935717 
L 170.369455 211.583566 
L 170.901818 208.292255 
L 171.966545 202.236621 
L 172.498909 197.623551 
L 173.297455 188.422429 
L 173.829818 179.298178 
L 174.362182 167.180361 
L 174.894545 153.246067 
L 175.426909 145.991901 
L 175.959273 142.229661 
L 176.491636 139.751346 
L 176.757818 138.864912 
L 177.290182 138.051951 
L 178.088727 137.15465 
L 179.153455 136.387177 
L 179.952 136.203469 
L 180.218182 136.239845 
L 180.484364 136.146007 
L 182.347636 136.413652 
L 183.146182 135.948341 
L 183.678545 135.689825 
L 183.944727 135.670864 
L 185.541818 136.340039 
L 186.340364 136.278153 
L 187.405091 135.789509 
L 188.203636 135.461417 
L 189.002182 135.34458 
L 189.800727 135.075109 
L 190.599273 134.214448 
L 191.397818 132.820444 
L 192.728727 130.560319 
L 194.325818 128.681727 
L 194.592 128.448896 
L 195.922909 128.020646 
L 197.786182 126.298954 
L 198.850909 126.087261 
L 200.448 126.125955 
L 201.778909 126.358646 
L 202.577455 126.878224 
L 204.174545 127.994259 
L 205.239273 128.307831 
L 208.433455 128.949777 
L 210.296727 129.757207 
L 210.829091 129.710912 
L 211.627636 129.619356 
L 213.490909 129.811474 
L 214.023273 129.695444 
L 214.555636 129.684191 
L 216.152727 129.357662 
L 217.483636 129.656329 
L 219.080727 129.490738 
L 219.613091 129.585876 
L 220.145455 129.915881 
L 221.476364 131.230565 
L 221.742545 131.328161 
L 222.274909 131.167433 
L 223.339636 130.772382 
L 223.872 130.853263 
L 224.936727 131.009005 
L 226.533818 131.041344 
L 227.066182 131.23836 
L 227.864727 131.836994 
L 229.461818 133.638128 
L 230.526545 134.338342 
L 231.857455 134.74147 
L 233.720727 135.490666 
L 234.253091 135.456361 
L 235.317818 135.683311 
L 236.116364 136.076642 
L 236.648727 136.648029 
L 237.979636 138.576463 
L 238.512 138.773111 
L 239.310545 138.802412 
L 240.641455 138.382255 
L 241.173818 138.375619 
L 241.706182 137.919647 
L 242.238545 137.082687 
L 243.037091 135.547847 
L 243.569455 134.860958 
L 244.101818 134.495313 
L 244.634182 134.333988 
L 245.432727 134.323384 
L 246.497455 133.875454 
L 246.763636 133.671731 
L 247.029818 133.609494 
L 247.562182 133.839463 
L 247.828364 134.064306 
L 248.360727 134.979375 
L 250.224 138.740245 
L 250.756364 139.554839 
L 251.288727 140.195081 
L 252.885818 143.66903 
L 253.418182 145.00436 
L 255.015273 149.935602 
L 255.547636 150.718928 
L 256.08 152.157472 
L 256.612364 153.833798 
L 257.410909 157.382589 
L 258.209455 161.895588 
L 258.475636 161.89715 
L 258.741818 161.654558 
L 259.008 160.606325 
L 259.806545 155.605455 
L 260.072727 155.641076 
L 260.338909 156.197505 
L 260.605091 156.494224 
L 260.871273 156.595401 
L 261.137455 156.860887 
L 263.000727 161.361017 
L 263.533091 164.154589 
L 263.799273 164.996237 
L 264.065455 166.622932 
L 264.597818 173.54488 
L 265.662545 187.135554 
L 266.194909 192.269133 
L 266.727273 195.534152 
L 267.259636 196.893965 
L 267.525818 196.999777 
L 267.792 196.826865 
L 268.324364 195.828615 
L 268.590545 195.854238 
L 269.389091 197.98665 
L 270.187636 200.161302 
L 270.453818 200.367071 
L 270.986182 199.391995 
L 271.784727 197.085329 
L 272.317091 196.338072 
L 272.583273 196.379022 
L 272.849455 196.683799 
L 273.115636 197.46802 
L 274.180364 201.928473 
L 274.712727 203.970286 
L 275.245091 207.047594 
L 275.777455 212.431876 
L 276.043636 215.331181 
L 276.309818 216.881541 
L 276.842182 218.21343 
L 277.108364 218.386939 
L 277.640727 218.083681 
L 278.173091 217.454587 
L 278.439273 217.560354 
L 278.705455 218.260736 
L 278.971636 228.322194 
L 279.237818 233.614402 
L 279.504 233.744354 
L 279.770182 233.567123 
L 280.302545 233.619564 
L 280.568727 233.697584 
L 281.101091 233.271019 
L 281.367273 232.924028 
L 281.633455 233.354429 
L 282.964364 237.947985 
L 283.762909 239.924242 
L 284.029091 239.609002 
L 284.295273 238.832374 
L 284.827636 235.781927 
L 285.626182 230.483161 
L 286.158545 227.767425 
L 286.424727 225.700691 
L 287.489455 211.912983 
L 287.755636 209.897944 
L 288.820364 205.492687 
L 289.618909 201.607115 
L 289.885091 200.814659 
L 290.151273 200.678317 
L 290.417455 202.305152 
L 290.683636 201.962269 
L 290.949818 201.317752 
L 292.014545 200.127805 
L 292.546909 200.103981 
L 292.813091 200.070027 
L 293.345455 199.553574 
L 294.144 198.775366 
L 294.410182 198.914429 
L 294.676364 199.567839 
L 294.942545 199.707859 
L 295.208727 199.562862 
L 295.474909 199.597816 
L 295.741091 199.805972 
L 296.007273 199.794218 
L 296.273455 199.631375 
L 296.539636 199.617005 
L 297.604364 201.446396 
L 298.669091 204.916078 
L 298.935273 207.537133 
L 299.201455 208.426552 
L 299.733818 209.031664 
L 300 209.941492 
L 300.266182 210.423236 
L 300.532364 210.525212 
L 300.798545 210.869429 
L 301.597091 214.509196 
L 301.863273 215.493647 
L 302.661818 219.993821 
L 303.460364 222.951694 
L 303.992727 223.18521 
L 304.525091 223.931685 
L 304.791273 224.168283 
L 305.057455 224.626299 
L 307.186909 231.875602 
L 307.453091 235.044949 
L 307.985455 236.310643 
L 308.251636 236.764323 
L 308.784 237.955648 
L 309.848727 239.59228 
L 310.381091 240.320935 
L 310.913455 240.443004 
L 311.179636 240.287965 
L 311.712 239.465014 
L 311.978182 238.604186 
L 313.042909 232.518434 
L 313.309091 231.898575 
L 313.575273 232.11931 
L 315.438545 238.487955 
L 315.970909 239.12149 
L 316.237091 238.419327 
L 317.035636 233.87183 
L 317.301818 233.292885 
L 317.568 233.333704 
L 317.834182 233.934875 
L 318.632727 237.806288 
L 319.165091 238.97695 
L 319.431273 239.281806 
L 319.697455 238.60696 
L 320.229818 233.706941 
L 320.762182 228.161783 
L 321.028364 226.463976 
L 321.560727 224.948361 
L 321.826909 224.603661 
L 322.093091 224.648385 
L 322.359273 226.001009 
L 323.424 235.456346 
L 323.690182 236.620248 
L 323.956364 237.181504 
L 324.222545 237.154081 
L 324.488727 244.505171 
L 324.754909 245.078976 
L 325.021091 245.232102 
L 325.287273 245.710708 
L 326.085818 249.079108 
L 326.352 249.275278 
L 326.618182 249.077888 
L 327.150545 248.101421 
L 327.682909 245.944202 
L 327.949091 243.91065 
L 329.013818 231.416383 
L 330.078545 224.390633 
L 331.143273 218.697132 
L 331.675636 217.006076 
L 332.208 216.256792 
L 332.740364 215.842297 
L 333.006545 215.618516 
L 334.071273 213.846017 
L 335.136 211.774516 
L 335.668364 211.114866 
L 335.934545 210.929032 
L 336.466909 210.99658 
L 336.733091 210.908184 
L 337.265455 210.15085 
L 339.128727 205.63513 
L 340.193455 204.669798 
L 340.725818 204.547765 
L 341.258182 204.152143 
L 341.524364 202.852688 
L 342.056727 202.280547 
L 342.322909 202.255046 
L 342.855273 203.103963 
L 343.387636 203.819627 
L 343.92 205.133275 
L 344.984727 206.47346 
L 345.250909 206.187328 
L 346.049455 204.557947 
L 346.581818 203.098081 
L 347.114182 202.345259 
L 347.646545 201.541761 
L 347.912727 201.319525 
L 348.445091 200.101857 
L 349.243636 198.365681 
L 349.509818 197.971095 
L 350.042182 197.550789 
L 350.574545 197.788396 
L 351.373091 198.584415 
L 352.171636 198.617676 
L 352.437818 198.383852 
L 353.768727 195.648637 
L 354.301091 195.248319 
L 355.099636 195.446828 
L 355.365818 195.509214 
L 356.430545 195.086353 
L 356.696727 194.756708 
L 357.495273 192.954398 
L 358.293818 191.941383 
L 358.56 191.144758 
L 359.624727 193.42488 
L 359.890909 193.57941 
L 360.157091 193.36324 
L 360.689455 192.495916 
L 361.221818 191.170592 
L 362.818909 186.158293 
L 363.351273 186.257486 
L 363.883636 187.237214 
L 364.416 188.219751 
L 364.948364 188.767112 
L 365.214545 188.816357 
L 365.480727 188.264713 
L 366.811636 183.764468 
L 367.077818 182.486661 
L 367.344 182.676725 
L 367.610182 183.01916 
L 368.674909 185.500047 
L 368.941091 185.717999 
L 369.207273 185.662618 
L 369.473455 185.385062 
L 370.005818 182.814674 
L 370.804364 178.779372 
L 371.336727 177.892833 
L 371.869091 179.535451 
L 372.933818 183.663318 
L 373.2 184.056534 
L 373.732364 183.975898 
L 374.797091 181.551491 
L 375.063273 181.375164 
L 375.329455 181.848613 
L 375.595636 182.673819 
L 376.128 184.821119 
L 376.394182 185.418076 
L 376.660364 185.500327 
L 376.926545 184.90251 
L 377.458909 181.561779 
L 378.523636 173.841458 
L 379.056 171.597722 
L 379.322182 171.060974 
L 379.588364 171.030707 
L 379.854545 170.374638 
L 380.653091 171.822232 
L 381.185455 171.935566 
L 381.717818 170.833717 
L 381.984 170.241394 
L 382.516364 170.229281 
L 383.048727 170.5839 
L 383.581091 172.193556 
L 383.847273 173.549436 
L 384.113455 170.425138 
L 384.645818 171.756844 
L 385.178182 173.017586 
L 385.444364 173.670636 
L 385.710545 174.008875 
L 385.976727 174.035517 
L 386.242909 173.595986 
L 386.509091 173.500744 
L 387.041455 172.620902 
L 387.307636 171.885092 
L 387.573818 171.662917 
L 387.84 171.601901 
L 388.106182 172.028781 
L 388.372364 170.005473 
L 388.638545 170.233038 
L 388.904727 170.709366 
L 389.969455 173.359407 
L 390.235636 173.519889 
L 390.501818 173.015936 
L 391.566545 172.429705 
L 391.832727 173.219606 
L 392.631273 177.413423 
L 392.897455 180.852417 
L 393.429818 183.746517 
L 393.696 184.478017 
L 393.962182 184.798656 
L 394.228364 184.545793 
L 395.825455 180.672386 
L 396.091636 180.718112 
L 396.357818 180.882149 
L 396.624 181.186004 
L 396.890182 180.418566 
L 397.156364 180.408796 
L 397.422545 180.249666 
L 397.688727 179.824357 
L 398.487273 177.798187 
L 399.285818 175.398762 
L 400.084364 174.090907 
L 400.350545 173.933085 
L 400.616727 173.912017 
L 400.882909 174.117092 
L 401.149091 170.650982 
L 401.947636 169.332954 
L 402.48 168.027522 
L 403.012364 165.387672 
L 404.077091 158.544358 
L 404.609455 156.583726 
L 404.875636 156.146188 
L 405.141818 155.982423 
L 405.408 155.524011 
L 406.738909 155.368094 
L 407.271273 154.996392 
L 407.803636 154.682065 
L 408.336 154.439209 
L 408.868364 154.19637 
L 409.400727 154.262891 
L 409.666909 149.570959 
L 409.933091 149.724629 
L 410.199273 149.374153 
L 410.465455 148.740037 
L 410.997818 146.479755 
L 411.796364 142.419953 
L 412.328727 141.141786 
L 412.861091 140.381002 
L 413.393455 139.982808 
L 414.192 139.675047 
L 414.990545 138.983997 
L 416.587636 137.318731 
L 417.12 137.082266 
L 418.717091 136.54227 
L 420.846545 135.603342 
L 421.378909 135.641984 
L 422.177455 135.825763 
L 422.443636 136.056049 
L 423.774545 135.881153 
L 424.573091 135.648427 
L 425.371636 135.575902 
L 425.904 135.697497 
L 426.170182 135.907663 
L 426.436364 137.349595 
L 426.436364 137.349595 
" clip-path="url(#p1f8e589965)" style="fill: none; stroke: #ff0000; stroke-width: 3; stroke-linecap: square"/>
   </g>
   <g id="patch_3">
    <path d="M 7.2 331.2 
L 7.2 7.2 
" style="fill: none; stroke: #000000; stroke-width: 0.8; stroke-linejoin: miter; stroke-linecap: square"/>
   </g>
   <g id="patch_4">
    <path d="M 446.4 331.2 
L 446.4 7.2 
" style="fill: none; stroke: #000000; stroke-width: 0.8; stroke-linejoin: miter; stroke-linecap: square"/>
   </g>
   <g id="patch_5">
    <path d="M 7.2 331.2 
L 446.4 331.2 
" style="fill: none; stroke: #000000; stroke-width: 0.8; stroke-linejoin: miter; stroke-linecap: square"/>
   </g>
   <g id="patch_6">
    <path d="M 7.2 7.2 
L 446.4 7.2 
" style="fill: none; stroke: #000000; stroke-width: 0.8; stroke-linejoin: miter; stroke-linecap: square"/>
   </g>
  </g>
 </g>
 <defs>
  <clipPath id="p1f8e589965">
   <rect x="7.2" y="7.2" width="439.2" height="324"/>
  </clipPath>
 </defs>
</svg>
