<?xml version="1.0" encoding="utf-8" standalone="no"?>
<!DOCTYPE svg PUBLIC "-//W3C//DTD SVG 1.1//EN"
  "http://www.w3.org/Graphics/SVG/1.1/DTD/svg11.dtd">
<svg xmlns:xlink="http://www.w3.org/1999/xlink" width="453.6pt" height="338.4pt" viewBox="0 0 453.6 338.4" xmlns="http://www.w3.org/2000/svg" version="1.1">
 <metadata>
  <rdf:RDF xmlns:dc="http://purl.org/dc/elements/1.1/" xmlns:cc="http://creativecommons.org/ns#" xmlns:rdf="http://www.w3.org/1999/02/22-rdf-syntax-ns#">
   <cc:Work>
    <dc:type rdf:resource="http://purl.org/dc/dcmitype/StillImage"/>
    <dc:date>2025-05-14T16:00:03.452782</dc:date>
    <dc:format>image/svg+xml</dc:format>
    <dc:creator>
     <cc:Agent>
      <dc:title>Matplotlib v3.10.1, https://matplotlib.org/</dc:title>
     </cc:Agent>
    </dc:creator>
   </cc:Work>
  </rdf:RDF>
 </metadata>
 <defs>
  <style type="text/css">*{stroke-linejoin: round; stroke-linecap: butt}</style>
 </defs>
 <g id="figure_1">
  <g id="patch_1">
   <path d="M 0 338.4 
L 453.6 338.4 
L 453.6 0 
L 0 0 
z
" style="fill: #ffffff"/>
  </g>
  <g id="axes_1">
   <g id="patch_2">
    <path d="M 7.2 331.2 
L 446.4 331.2 
L 446.4 7.2 
L 7.2 7.2 
z
" style="fill: #ffffff"/>
   </g>
   <g id="matplotlib.axis_1"/>
   <g id="matplotlib.axis_2"/>
   <g id="line2d_1">
    <path d="M 27.163636 316.471708 
L 29.293091 283.452453 
L 31.422545 254.001888 
L 33.552 227.73513 
L 35.681455 204.30799 
L 37.810909 183.413457 
L 39.940364 164.777784 
L 42.069818 148.15673 
L 44.199273 133.332526 
L 46.328727 120.110928 
L 48.458182 108.318658 
L 50.587636 97.801219 
L 52.717091 88.420777 
L 54.846545 80.054421 
L 56.976 72.592547 
L 59.105455 65.937313 
L 61.234909 60.001589 
L 63.364364 54.707546 
L 65.493818 49.985803 
L 67.623273 45.774526 
L 69.752727 42.018518 
L 71.882182 38.66857 
L 74.277818 35.330753 
L 76.673455 32.396046 
L 79.069091 29.815765 
L 81.464727 27.547107 
L 84.126545 25.346235 
L 86.788364 23.438658 
L 89.184 21.940177 
L 91.579636 21.933558 
L 113.406545 22.107031 
L 124.32 22.402486 
L 131.773091 22.818271 
L 137.362909 23.342274 
L 141.888 23.978074 
L 145.614545 24.706923 
L 149.074909 25.610562 
L 152.002909 26.598752 
L 154.664727 27.723618 
L 157.060364 28.96439 
L 159.456 30.469402 
L 161.585455 32.074257 
L 163.714909 33.979587 
L 165.578182 35.937182 
L 167.441455 38.211966 
L 169.304727 40.855327 
L 171.168 43.926956 
L 173.031273 47.496287 
L 174.628364 51.012617 
L 176.225455 55.011954 
L 177.024 57.061685 
L 178.354909 59.515736 
L 179.685818 62.376883 
L 181.016727 65.712646 
L 182.347636 69.601765 
L 183.678545 74.136024 
L 185.009455 79.422465 
L 186.340364 85.58586 
L 187.671273 92.771714 
L 189.002182 101.14957 
L 190.333091 110.917163 
L 191.664 122.305077 
L 192.994909 135.582117 
L 194.325818 151.061557 
L 195.656727 169.108883 
L 196.987636 190.150002 
L 198.318545 213.72465 
L 200.980364 200.136021 
L 203.642182 187.659969 
L 206.304 176.205323 
L 208.965818 165.688481 
L 211.627636 156.032669 
L 214.289455 147.167329 
L 216.951273 139.027852 
L 219.613091 131.554777 
L 222.274909 124.693485 
L 224.936727 118.39396 
L 227.864727 112.058443 
L 230.792727 106.291189 
L 233.720727 101.041125 
L 236.648727 96.26185 
L 239.576727 91.911193 
L 242.504727 87.950708 
L 245.432727 84.345386 
L 248.626909 80.780057 
L 251.821091 77.562062 
L 255.015273 74.657551 
L 258.209455 72.036013 
L 261.669818 69.483435 
L 265.130182 67.199118 
L 268.856727 65.006848 
L 272.849455 62.931415 
L 276.842182 61.10558 
L 281.101091 59.399338 
L 285.626182 57.824645 
L 290.417455 56.388682 
L 295.741091 55.031845 
L 301.330909 53.835877 
L 307.453091 52.750126 
L 314.373818 51.754053 
L 322.093091 50.875204 
L 330.877091 50.107204 
L 340.992 49.453461 
L 352.970182 48.909392 
L 367.610182 48.474242 
L 386.775273 48.140919 
L 389.170909 48.111881 
L 389.437091 48.286899 
L 426.436364 301.199995 
L 426.436364 301.199995 
" clip-path="url(#pbfb5323afe)" style="fill: none; stroke-dasharray: 11.1,4.8; stroke-dashoffset: 0; stroke: #000000; stroke-width: 3"/>
   </g>
   <g id="line2d_2">
    <path d="M 27.163636 267.044903 
L 27.429818 269.22886 
L 27.962182 265.735271 
L 28.228364 263.000946 
L 29.026909 249.315582 
L 29.293091 248.763569 
L 29.825455 240.760703 
L 30.091636 238.560488 
L 30.357818 240.037077 
L 30.890182 237.109629 
L 31.156364 235.145564 
L 31.422545 238.350796 
L 32.221091 230.377745 
L 32.753455 227.723824 
L 33.285818 225.203848 
L 33.552 225.248231 
L 34.084364 222.472039 
L 34.350545 220.911216 
L 34.616727 221.181266 
L 35.415273 218.792691 
L 35.681455 221.99557 
L 35.947636 220.913401 
L 36.746182 214.405684 
L 37.278545 209.456149 
L 37.544727 207.877637 
L 37.810909 208.700061 
L 38.343273 204.836478 
L 38.609455 202.859869 
L 38.875636 203.775069 
L 39.141818 203.314182 
L 39.408 203.589692 
L 39.674182 204.566102 
L 39.940364 211.704239 
L 40.206545 211.259442 
L 40.472727 209.871776 
L 41.005091 206.242955 
L 41.271273 204.756992 
L 41.537455 204.589829 
L 41.803636 204.708782 
L 42.069818 205.714327 
L 42.336 205.247935 
L 43.134545 202.908553 
L 43.400727 201.242313 
L 43.666909 201.020068 
L 43.933091 201.838936 
L 44.199273 207.601539 
L 44.465455 206.5596 
L 44.997818 203.297494 
L 45.264 201.977508 
L 45.530182 199.559614 
L 45.796364 198.464585 
L 46.062545 198.212643 
L 46.328727 198.574987 
L 46.861091 195.658539 
L 47.127273 195.511303 
L 47.393455 196.421921 
L 47.659636 194.572841 
L 47.925818 193.89631 
L 48.192 195.116743 
L 48.458182 199.536878 
L 48.724364 199.014184 
L 48.990545 198.136484 
L 49.522909 197.284979 
L 49.789091 194.455626 
L 50.055273 192.841915 
L 50.321455 193.412608 
L 50.587636 194.750668 
L 51.12 192.795751 
L 51.386182 192.842485 
L 51.652364 193.768597 
L 52.184727 188.377617 
L 52.450909 188.045101 
L 52.717091 192.683935 
L 52.983273 192.323364 
L 53.249455 191.200271 
L 53.515636 191.06601 
L 53.781818 191.075631 
L 54.580364 186.493003 
L 54.846545 188.862627 
L 55.112727 189.086548 
L 55.378909 188.454373 
L 55.645091 189.035214 
L 55.911273 190.282824 
L 56.177455 189.730793 
L 56.443636 188.203538 
L 56.709818 188.367162 
L 56.976 191.247814 
L 57.242182 192.516948 
L 57.508364 192.464745 
L 57.774545 193.003389 
L 58.040727 194.380126 
L 58.306909 194.660763 
L 58.839273 192.648164 
L 59.371636 194.755119 
L 59.637818 194.859008 
L 59.904 195.256035 
L 60.170182 196.010682 
L 60.436364 195.335573 
L 60.702545 193.989033 
L 60.968727 191.808833 
L 61.234909 181.376937 
L 61.501091 180.981324 
L 61.767273 179.62799 
L 62.033455 179.345869 
L 62.299636 180.732833 
L 62.565818 180.668779 
L 62.832 179.991264 
L 63.098182 176.554597 
L 63.364364 175.609533 
L 64.162909 176.441438 
L 64.961455 180.905455 
L 65.227636 179.413197 
L 65.493818 178.964722 
L 65.76 178.995999 
L 66.292364 182.162616 
L 66.824727 185.88682 
L 67.090909 186.504564 
L 67.623273 184.128936 
L 68.421818 178.012005 
L 68.954182 177.643604 
L 69.486545 177.856333 
L 69.752727 178.758989 
L 70.285091 175.867778 
L 70.551273 176.462672 
L 71.083636 178.520461 
L 71.616 181.385944 
L 71.882182 181.675815 
L 72.148364 180.231794 
L 72.414545 180.269347 
L 72.946909 183.95706 
L 73.213091 186.455406 
L 74.277818 202.869393 
L 74.544 204.93273 
L 74.810182 207.946932 
L 75.076364 209.529086 
L 75.342545 209.664331 
L 75.608727 209.54091 
L 75.874909 208.660366 
L 76.141091 206.9464 
L 76.673455 200.941925 
L 77.205818 198.691447 
L 77.472 197.649649 
L 78.004364 198.581624 
L 78.270545 198.518175 
L 78.802909 196.899179 
L 79.069091 196.749187 
L 79.601455 196.080012 
L 80.133818 198.245649 
L 80.4 197.97408 
L 81.464727 188.761546 
L 81.730909 187.401093 
L 81.997091 187.204656 
L 82.263273 187.948041 
L 82.529455 187.3486 
L 82.795636 185.666182 
L 83.328 181.827335 
L 83.594182 181.260337 
L 83.860364 181.416562 
L 84.126545 182.696335 
L 84.658909 186.829978 
L 84.925091 186.31349 
L 85.989818 177.089861 
L 86.256 176.697145 
L 86.788364 177.46438 
L 87.054545 175.900336 
L 87.586909 168.975332 
L 87.853091 167.268704 
L 88.119273 166.972898 
L 88.385455 168.667641 
L 88.917818 175.305494 
L 89.184 175.346391 
L 89.450182 172.945131 
L 89.982545 166.902831 
L 90.248727 165.31455 
L 90.514909 165.201786 
L 91.047273 168.058807 
L 91.313455 168.421168 
L 91.845818 165.10003 
L 92.378182 162.315745 
L 92.644364 163.009183 
L 93.176727 168.127329 
L 93.442909 169.35856 
L 93.709091 168.998471 
L 93.975273 167.550781 
L 94.773818 161.833175 
L 95.04 163.078723 
L 95.306182 159.362481 
L 95.572364 161.261877 
L 95.838545 161.113561 
L 96.104727 159.344082 
L 96.637091 151.308977 
L 96.903273 151.161101 
L 97.169455 153.985695 
L 97.435636 159.73111 
L 97.701818 162.344168 
L 97.968 163.300301 
L 98.234182 162.12324 
L 98.500364 159.303755 
L 98.766545 153.1941 
L 99.032727 151.115454 
L 99.298909 152.034192 
L 99.831273 158.785072 
L 100.097455 159.606741 
L 100.363636 158.883458 
L 100.629818 155.692587 
L 100.896 151.084274 
L 101.162182 148.954891 
L 101.428364 149.099186 
L 102.226909 156.441011 
L 102.493091 156.409146 
L 103.291636 147.782518 
L 103.557818 147.307515 
L 103.824 148.04135 
L 104.622545 152.559564 
L 104.888727 151.703186 
L 105.154909 149.312846 
L 105.421091 148.019616 
L 105.687273 147.730323 
L 105.953455 148.52104 
L 106.752 153.387395 
L 107.018182 152.956177 
L 107.550545 148.145441 
L 107.816727 147.143399 
L 108.082909 147.147543 
L 108.349091 147.863242 
L 108.881455 150.18527 
L 109.147636 150.275755 
L 109.946182 147.094136 
L 110.212364 147.051282 
L 110.478545 147.674266 
L 111.277091 151.592494 
L 111.543273 150.71935 
L 112.341818 146.247994 
L 112.608 146.733689 
L 113.406545 150.025824 
L 113.672727 149.949928 
L 114.471273 147.563767 
L 114.737455 147.88301 
L 115.003636 149.021623 
L 115.536 152.465076 
L 115.802182 153.115044 
L 116.068364 152.260615 
L 116.334545 150.698826 
L 116.600727 149.800893 
L 116.866909 149.832389 
L 117.133091 150.856148 
L 117.665455 154.108378 
L 117.931636 153.991822 
L 118.730182 149.899156 
L 118.996364 149.639235 
L 119.262545 150.186868 
L 119.794909 152.625909 
L 120.061091 152.871556 
L 120.327273 152.472555 
L 120.859636 150.222261 
L 121.125818 149.844134 
L 121.392 150.443997 
L 122.190545 154.239612 
L 122.456727 154.543476 
L 122.989091 153.39217 
L 123.255273 153.289764 
L 123.521455 153.978479 
L 123.787636 155.995608 
L 124.32 161.200043 
L 124.586182 161.382137 
L 125.650909 155.936145 
L 125.917091 156.455811 
L 126.449455 158.613477 
L 126.715636 158.387791 
L 126.981818 158.483789 
L 127.248 158.312931 
L 127.514182 158.002536 
L 127.780364 158.17752 
L 128.046545 160.642544 
L 128.312727 164.713212 
L 128.578909 166.684379 
L 128.845091 166.885222 
L 129.111273 165.071431 
L 129.377455 158.338598 
L 129.643636 156.419434 
L 129.909818 155.451328 
L 130.176 156.030141 
L 130.708364 159.092904 
L 130.974545 160.081235 
L 131.240727 160.641139 
L 131.506909 160.668931 
L 132.039273 159.093132 
L 132.305455 159.255791 
L 132.837818 163.466524 
L 133.104 164.628995 
L 133.636364 165.817309 
L 133.902545 165.314269 
L 134.168727 164.052482 
L 134.434909 163.893738 
L 135.233455 166.30353 
L 135.499636 166.845773 
L 135.765818 167.721744 
L 136.032 167.914003 
L 136.564364 166.702918 
L 136.830545 167.049444 
L 138.161455 170.401464 
L 138.427636 169.761968 
L 138.96 167.566424 
L 139.226182 168.205454 
L 140.290909 173.074416 
L 140.557091 172.856639 
L 141.089455 170.757725 
L 141.355636 170.594855 
L 141.621818 170.980022 
L 142.420364 174.836425 
L 142.686545 174.644913 
L 143.485091 171.768589 
L 143.751273 172.012919 
L 144.017455 173.433573 
L 144.549818 177.401336 
L 144.816 178.168975 
L 145.082182 177.591663 
L 145.880727 174.18392 
L 146.146909 174.96255 
L 146.413091 176.20441 
L 146.679273 177.996731 
L 146.945455 179.021087 
L 147.211636 178.699737 
L 148.010182 175.064183 
L 148.276364 175.618127 
L 149.074909 180.679207 
L 149.341091 180.582735 
L 149.607273 179.75817 
L 150.139636 176.572846 
L 150.405818 176.727754 
L 151.204364 180.891664 
L 151.470545 181.248329 
L 151.736727 180.572869 
L 152.535273 176.341051 
L 152.801455 177.230671 
L 153.333818 180.163667 
L 153.6 181.079227 
L 153.866182 181.173442 
L 154.132364 180.150429 
L 154.664727 177.215222 
L 154.930909 178.24129 
L 155.729455 182.587688 
L 155.995636 182.863357 
L 156.261818 182.127442 
L 156.794182 179.546125 
L 157.060364 179.876139 
L 157.592727 182.708792 
L 158.125091 184.243158 
L 158.391273 183.855225 
L 158.923636 181.268308 
L 159.189818 181.117587 
L 159.722182 182.970257 
L 160.254545 185.293892 
L 160.520727 185.164695 
L 161.319273 182.291891 
L 161.585455 182.710521 
L 162.650182 186.582918 
L 162.916364 185.530199 
L 163.182545 183.924274 
L 163.448727 183.606628 
L 163.714909 183.921395 
L 164.247273 186.615572 
L 164.513455 187.863086 
L 164.779636 188.140818 
L 165.045818 187.219877 
L 165.578182 183.964338 
L 165.844364 183.576827 
L 166.110545 184.202058 
L 166.642909 186.67687 
L 166.909091 187.145675 
L 167.175273 186.320206 
L 167.973818 182.135342 
L 168.24 181.821848 
L 168.772364 185.048789 
L 169.038545 185.757264 
L 169.304727 185.382613 
L 169.570909 184.282352 
L 170.369455 178.223084 
L 170.635636 177.933642 
L 171.168 180.392381 
L 171.434182 180.598931 
L 171.700364 179.708424 
L 172.232727 174.781307 
L 172.498909 172.081828 
L 172.765091 172.234392 
L 173.031273 173.766291 
L 173.297455 174.616603 
L 173.829818 174.149281 
L 174.096 172.592487 
L 174.628364 167.474095 
L 174.894545 167.39611 
L 175.426909 170.267615 
L 175.693091 170.439798 
L 175.959273 170.125962 
L 176.225455 169.4263 
L 176.491636 168.312864 
L 176.757818 168.065426 
L 177.556364 174.942105 
L 178.088727 176.713621 
L 178.354909 177.178687 
L 178.621091 177.368313 
L 178.887273 177.770009 
L 179.419636 179.999384 
L 179.952 182.935926 
L 180.218182 184.050021 
L 180.484364 186.708463 
L 180.750545 187.945715 
L 181.016727 187.989913 
L 181.282909 188.234226 
L 181.815273 189.256291 
L 182.347636 189.997798 
L 182.88 191.914338 
L 183.146182 192.122783 
L 183.412364 191.943156 
L 183.678545 192.336628 
L 184.210909 194.197084 
L 184.477091 194.609182 
L 185.009455 197.004675 
L 185.541818 197.616634 
L 185.808 197.683322 
L 186.074182 197.917461 
L 186.606545 199.042634 
L 189.268364 214.520941 
L 189.800727 217.2274 
L 190.066909 217.975262 
L 190.333091 218.192415 
L 190.599273 218.684957 
L 190.865455 218.839751 
L 191.397818 220.428673 
L 191.930182 222.108861 
L 192.196364 222.759145 
L 192.994909 223.374528 
L 193.261091 223.867289 
L 193.793455 225.855318 
L 194.325818 227.6505 
L 195.124364 228.545721 
L 195.656727 229.834553 
L 196.189091 232.141185 
L 196.721455 233.405597 
L 196.987636 233.607046 
L 197.253818 233.977633 
L 197.786182 235.260312 
L 198.318545 237.444357 
L 198.584727 238.22325 
L 199.117091 238.598129 
L 199.383273 238.430554 
L 199.915636 238.7005 
L 200.448 239.7231 
L 200.714182 240.029106 
L 201.246545 239.865253 
L 201.512727 239.37589 
L 202.045091 238.925466 
L 202.843636 239.239556 
L 203.376 238.828301 
L 204.174545 236.530877 
L 204.440727 236.450557 
L 204.706909 236.542745 
L 205.239273 236.338092 
L 205.505455 236.162977 
L 206.304 234.934099 
L 207.634909 234.242197 
L 208.699636 232.859254 
L 209.232 232.64232 
L 210.030545 231.563074 
L 210.562909 230.299286 
L 211.095273 229.692479 
L 211.627636 229.782227 
L 211.893818 230.041138 
L 212.426182 229.83012 
L 212.692364 229.55109 
L 213.224727 229.892428 
L 214.289455 230.27037 
L 214.555636 230.206088 
L 214.821818 229.890382 
L 215.886545 229.233374 
L 216.152727 229.369681 
L 216.951273 229.082671 
L 217.217455 228.948181 
L 217.483636 228.654025 
L 218.016 227.668846 
L 218.282182 227.56393 
L 220.145455 225.936437 
L 220.411636 226.192627 
L 220.944 226.30647 
L 221.742545 225.740833 
L 222.274909 224.775537 
L 223.073455 225.319334 
L 223.339636 225.056323 
L 224.404364 225.130639 
L 224.936727 227.280984 
L 225.202909 228.594975 
L 225.735273 228.827991 
L 226.001455 228.166128 
L 227.598545 221.309304 
L 228.397091 219.300155 
L 228.663273 219.050083 
L 228.929455 219.106667 
L 229.195636 218.89586 
L 229.461818 218.325782 
L 230.260364 214.734724 
L 230.526545 214.039311 
L 230.792727 213.84068 
L 231.591273 215.126115 
L 232.123636 214.008877 
L 232.656 212.936233 
L 232.922182 212.986927 
L 233.720727 215.392751 
L 233.986909 215.239265 
L 234.519273 213.922035 
L 234.785455 213.200604 
L 235.051636 213.0364 
L 235.317818 213.533945 
L 235.850182 215.021699 
L 236.116364 215.07141 
L 236.648727 213.633656 
L 236.914909 212.889164 
L 237.181091 212.642903 
L 237.447273 212.856677 
L 237.979636 213.926398 
L 238.245818 213.625659 
L 238.778182 211.291719 
L 239.044364 209.806072 
L 239.310545 208.959789 
L 239.576727 209.042654 
L 240.375273 211.07424 
L 240.641455 210.551766 
L 241.44 205.502194 
L 241.706182 205.484471 
L 241.972364 206.146983 
L 242.504727 208.070265 
L 242.770909 208.277078 
L 243.303273 205.567784 
L 243.569455 204.186816 
L 243.835636 204.363239 
L 244.101818 204.904763 
L 244.900364 208.753037 
L 245.166545 207.787661 
L 245.698909 205.120714 
L 245.965091 204.896327 
L 246.231273 205.320021 
L 246.763636 208.311874 
L 247.029818 210.049761 
L 247.296 210.082223 
L 247.828364 208.245994 
L 248.094545 208.086513 
L 248.360727 208.734945 
L 248.626909 209.871592 
L 249.159273 212.833634 
L 249.425455 212.915753 
L 250.224 209.439014 
L 250.490182 209.43114 
L 250.756364 209.844309 
L 251.554909 213.419162 
L 251.821091 212.597309 
L 252.353455 210.049059 
L 252.619636 209.317261 
L 252.885818 209.443973 
L 253.684364 211.848744 
L 253.950545 211.301603 
L 254.749091 207.375352 
L 255.015273 207.292996 
L 255.281455 207.746518 
L 255.813818 210.076684 
L 256.08 210.363896 
L 256.612364 208.49309 
L 256.878545 207.342671 
L 257.144727 207.167363 
L 257.410909 207.365661 
L 257.943273 209.23278 
L 258.209455 209.559397 
L 258.475636 208.85906 
L 259.274182 204.890928 
L 259.540364 204.753243 
L 260.338909 207.909168 
L 260.605091 208.039304 
L 260.871273 207.259156 
L 261.403636 205.131739 
L 261.669818 205.132055 
L 261.936 205.733963 
L 262.468364 207.89781 
L 262.734545 208.321083 
L 263.533091 205.194582 
L 263.799273 205.048865 
L 264.065455 205.818347 
L 264.864 211.227243 
L 265.130182 211.821532 
L 265.662545 210.620042 
L 265.928727 210.632489 
L 266.194909 212.065073 
L 266.993455 218.193135 
L 267.259636 218.554215 
L 268.058182 215.394226 
L 268.324364 215.673581 
L 269.122909 218.309577 
L 269.389091 218.240818 
L 270.187636 214.044526 
L 270.453818 213.344267 
L 270.72 213.533919 
L 271.252364 214.892107 
L 271.518545 215.07981 
L 271.784727 214.057508 
L 272.317091 210.990234 
L 272.583273 210.459604 
L 272.849455 211.185635 
L 273.115636 212.697204 
L 273.648 214.242859 
L 273.914182 213.444996 
L 274.712727 207.343374 
L 274.978909 206.256842 
L 275.245091 205.910298 
L 275.777455 206.206921 
L 276.043636 205.293441 
L 276.842182 199.475721 
L 277.108364 199.689451 
L 277.906909 205.178851 
L 278.173091 205.350938 
L 279.237818 202.514081 
L 279.504 202.758736 
L 279.770182 204.014598 
L 280.302545 207.06458 
L 280.568727 207.473746 
L 280.834909 207.489135 
L 281.633455 208.022301 
L 281.899636 208.633058 
L 282.165818 209.830361 
L 282.432 210.320067 
L 282.964364 209.978255 
L 283.762909 211.560883 
L 284.029091 212.20856 
L 284.295273 213.737651 
L 284.561455 214.507186 
L 284.827636 214.841431 
L 285.093818 214.86278 
L 285.36 215.247043 
L 285.626182 214.817125 
L 286.690909 212.083173 
L 286.957091 210.818393 
L 287.223273 210.121751 
L 287.489455 209.911172 
L 287.755636 209.478928 
L 288.288 207.339678 
L 288.554182 207.04791 
L 289.086545 205.520584 
L 289.352727 205.323304 
L 289.618909 205.453598 
L 289.885091 205.345408 
L 290.151273 205.025655 
L 290.683636 203.654984 
L 290.949818 203.279964 
L 291.216 203.240235 
L 292.014545 204.900145 
L 292.546909 205.69138 
L 292.813091 205.720498 
L 293.079273 205.611956 
L 293.345455 205.823922 
L 293.611636 206.291138 
L 293.877818 206.526366 
L 294.144 206.548715 
L 294.676364 206.225995 
L 295.474909 205.089902 
L 296.273455 205.276447 
L 296.805818 205.046056 
L 297.072 205.148865 
L 297.604364 204.441119 
L 297.870545 204.400151 
L 298.136727 204.612222 
L 298.402909 204.669394 
L 298.669091 204.58077 
L 298.935273 204.250519 
L 299.201455 204.509913 
L 299.467636 204.303996 
L 299.733818 203.867845 
L 300 203.793872 
L 300.532364 204.409044 
L 301.064727 204.530586 
L 301.330909 204.838216 
L 301.863273 204.345472 
L 302.129455 203.970611 
L 302.395636 204.30461 
L 302.928 204.475187 
L 303.194182 204.17264 
L 303.460364 204.317567 
L 303.726545 204.303794 
L 303.992727 203.748989 
L 304.258909 203.462927 
L 305.057455 204.48091 
L 305.323636 204.684958 
L 305.589818 205.317362 
L 305.856 205.64038 
L 306.388364 205.839854 
L 307.186909 207.920413 
L 307.453091 207.789496 
L 307.719273 208.361093 
L 307.985455 208.650087 
L 308.517818 208.721392 
L 309.848727 211.357853 
L 310.381091 211.289393 
L 310.647273 210.883421 
L 311.179636 211.082088 
L 311.445818 211.392782 
L 311.712 211.460856 
L 311.978182 211.695276 
L 312.244364 211.147766 
L 312.776727 209.614761 
L 313.042909 209.560547 
L 313.309091 209.345562 
L 313.575273 209.334914 
L 313.841455 209.441752 
L 314.107636 209.786215 
L 314.373818 209.585679 
L 314.906182 208.903565 
L 315.172364 209.107393 
L 315.704727 210.36214 
L 315.970909 210.495059 
L 316.237091 211.380589 
L 316.503273 211.756512 
L 316.769455 211.481994 
L 317.035636 211.405826 
L 317.568 211.814159 
L 318.100364 212.060412 
L 318.366545 212.611126 
L 318.632727 212.813023 
L 318.898909 212.594079 
L 319.165091 211.900658 
L 319.431273 211.93793 
L 319.963636 212.788971 
L 320.229818 213.454643 
L 320.496 214.496494 
L 320.762182 214.661418 
L 321.028364 213.811448 
L 321.294545 213.365624 
L 321.560727 213.620603 
L 321.826909 213.385445 
L 322.093091 212.971231 
L 322.359273 213.136146 
L 322.625455 214.212478 
L 323.157818 214.85078 
L 323.424 214.889851 
L 324.222545 218.087446 
L 324.488727 216.263665 
L 324.754909 217.705799 
L 325.021091 217.903035 
L 325.287273 217.152829 
L 325.819636 215.010568 
L 326.352 210.219188 
L 326.884364 205.466599 
L 327.416727 202.466731 
L 327.682909 201.505165 
L 327.949091 201.988806 
L 328.481455 203.970163 
L 328.747636 204.992316 
L 329.28 208.468108 
L 329.546182 209.162897 
L 329.812364 209.532843 
L 330.344727 211.136925 
L 330.877091 211.419853 
L 331.409455 213.836001 
L 331.675636 214.6729 
L 331.941818 214.64926 
L 332.474182 216.066131 
L 332.740364 216.828767 
L 333.006545 216.987783 
L 333.538909 219.833655 
L 334.337455 222.077681 
L 334.603636 222.820786 
L 334.869818 222.404351 
L 335.136 221.355942 
L 335.402182 221.061576 
L 335.668364 221.02922 
L 335.934545 220.70478 
L 336.200727 219.74389 
L 336.466909 219.242237 
L 336.733091 219.095712 
L 337.265455 218.401677 
L 338.596364 223.032541 
L 338.862545 223.062676 
L 339.128727 222.596425 
L 339.394909 221.470172 
L 339.661091 221.647008 
L 340.193455 222.865124 
L 340.459636 222.820926 
L 340.725818 223.285184 
L 340.992 223.161342 
L 341.258182 223.636933 
L 341.524364 223.262344 
L 342.056727 224.556408 
L 342.322909 225.535214 
L 342.589091 225.882592 
L 342.855273 226.427574 
L 343.387636 225.615666 
L 343.653818 224.291958 
L 344.186182 223.321139 
L 344.452364 223.626355 
L 344.718545 223.477197 
L 345.517091 225.16813 
L 345.783273 225.314681 
L 346.049455 225.597056 
L 346.315636 226.093267 
L 347.380364 229.162552 
L 347.912727 228.515147 
L 348.445091 227.951555 
L 348.711273 227.91323 
L 348.977455 228.21705 
L 349.509818 229.154616 
L 349.776 229.011506 
L 350.042182 228.411055 
L 350.308364 228.394456 
L 350.840727 228.528428 
L 351.106909 228.912665 
L 351.373091 229.565758 
L 351.639273 229.773466 
L 351.905455 229.283032 
L 352.171636 228.140267 
L 352.437818 227.656013 
L 352.704 226.867885 
L 353.236364 226.290529 
L 353.768727 227.580898 
L 354.034909 228.124361 
L 354.301091 227.977459 
L 354.567273 228.662084 
L 355.099636 228.985225 
L 355.365818 229.348982 
L 355.632 230.703361 
L 355.898182 231.225133 
L 356.164364 231.407473 
L 356.430545 231.006391 
L 356.696727 231.397361 
L 357.495273 231.185132 
L 358.027636 232.80619 
L 358.293818 233.219755 
L 358.56 231.431639 
L 359.092364 231.287414 
L 359.358545 230.495389 
L 359.624727 230.090577 
L 359.890909 230.331712 
L 360.157091 230.913018 
L 360.689455 230.446767 
L 360.955636 230.316693 
L 361.221818 230.33776 
L 361.754182 229.528469 
L 362.020364 230.086899 
L 362.552727 231.785609 
L 362.818909 232.081476 
L 363.351273 233.077593 
L 363.617455 233.251681 
L 363.883636 233.190927 
L 365.214545 236.761321 
L 365.746909 237.542681 
L 366.013091 237.053054 
L 366.545455 237.642234 
L 366.811636 238.556213 
L 367.077818 238.681723 
L 367.876364 240.004194 
L 368.142545 239.57187 
L 368.408727 239.616665 
L 368.674909 239.859416 
L 368.941091 240.337201 
L 369.207273 240.127702 
L 370.005818 241.166209 
L 370.538182 240.629215 
L 371.602909 241.644213 
L 371.869091 242.355137 
L 372.135273 242.32897 
L 372.667636 241.515666 
L 373.2 241.18308 
L 373.466182 240.984141 
L 373.998545 241.108124 
L 374.264727 240.734877 
L 375.063273 237.063956 
L 375.329455 235.586578 
L 375.861818 231.800593 
L 376.660364 227.928451 
L 376.926545 227.597954 
L 377.725091 228.728008 
L 377.991273 229.681208 
L 378.257455 230.184652 
L 378.523636 230.440938 
L 378.789818 229.553214 
L 379.588364 228.678113 
L 379.854545 228.205384 
L 380.120727 228.452716 
L 380.386909 228.481052 
L 380.653091 228.311529 
L 380.919273 227.314227 
L 381.717818 226.16846 
L 381.984 225.406702 
L 382.250182 225.913736 
L 382.516364 226.058751 
L 382.782545 226.432419 
L 383.048727 225.966519 
L 383.314909 225.893775 
L 383.847273 225.584802 
L 384.113455 225.844433 
L 384.645818 226.743824 
L 384.912 226.870352 
L 386.242909 223.901963 
L 387.041455 225.319799 
L 387.307636 224.885992 
L 387.573818 225.102364 
L 388.106182 224.495347 
L 388.372364 224.423252 
L 389.170909 227.465413 
L 389.437091 227.613597 
L 389.703273 228.451953 
L 389.969455 228.579306 
L 390.235636 228.504095 
L 390.501818 227.993462 
L 391.300364 232.335173 
L 391.566545 232.675888 
L 392.098909 235.387806 
L 392.365091 236.278322 
L 392.631273 240.259058 
L 393.962182 244.483239 
L 394.228364 244.940773 
L 394.494545 244.891256 
L 394.760727 244.503933 
L 395.293091 247.034381 
L 395.559273 248.654874 
L 395.825455 249.426472 
L 396.357818 252.312083 
L 397.156364 254.412301 
L 397.688727 256.425484 
L 397.954909 256.753009 
L 398.487273 258.437043 
L 398.753455 258.667579 
L 399.019636 257.966245 
L 399.552 259.06407 
L 399.818182 259.976939 
L 400.084364 260.124482 
L 400.616727 262.105883 
L 400.882909 262.714261 
L 401.149091 262.724698 
L 401.415273 263.126302 
L 402.48 266.287288 
L 403.012364 268.205746 
L 403.278545 267.767708 
L 403.544727 268.104345 
L 404.077091 269.303852 
L 404.343273 269.434233 
L 405.141818 272.250857 
L 405.408 272.316658 
L 405.940364 273.437433 
L 406.206545 274.13113 
L 406.472727 274.404117 
L 407.005091 276.748459 
L 407.271273 277.533971 
L 407.537455 277.26033 
L 408.069818 277.891711 
L 408.336 278.199323 
L 408.602182 277.945872 
L 409.400727 281.192506 
L 409.933091 283.998956 
L 410.465455 285.602768 
L 410.731636 286.090729 
L 411.264 288.421999 
L 411.530182 289.15333 
L 411.796364 289.319978 
L 412.328727 290.483698 
L 412.594909 290.859831 
L 412.861091 290.904334 
L 413.659636 293.147956 
L 413.925818 293.473824 
L 414.458182 294.58414 
L 414.724364 294.787705 
L 414.990545 294.689144 
L 415.789091 296.589642 
L 416.055273 296.326689 
L 416.587636 297.331915 
L 416.853818 297.461013 
L 417.12 297.141298 
L 417.918545 300.070957 
L 418.184727 301.298532 
L 418.717091 302.196977 
L 418.983273 302.250781 
L 419.249455 301.972435 
L 420.048 303.347171 
L 420.314182 303.369702 
L 420.846545 304.615255 
L 421.112727 304.925906 
L 421.378909 304.913287 
L 422.177455 306.76751 
L 422.709818 307.591133 
L 423.242182 307.917074 
L 423.508364 307.899856 
L 424.040727 308.215814 
L 424.306909 308.295047 
L 424.573091 308.217276 
L 424.839273 308.374459 
L 425.371636 308.352598 
L 425.904 307.902019 
L 426.170182 306.984803 
L 426.436364 303.08786 
L 426.436364 303.08786 
" clip-path="url(#pbfb5323afe)" style="fill: none; stroke: #ffa500; stroke-width: 3; stroke-linecap: square"/>
   </g>
   <g id="patch_3">
    <path d="M 7.2 331.2 
L 7.2 7.2 
" style="fill: none; stroke: #000000; stroke-width: 0.8; stroke-linejoin: miter; stroke-linecap: square"/>
   </g>
   <g id="patch_4">
    <path d="M 446.4 331.2 
L 446.4 7.2 
" style="fill: none; stroke: #000000; stroke-width: 0.8; stroke-linejoin: miter; stroke-linecap: square"/>
   </g>
   <g id="patch_5">
    <path d="M 7.2 331.2 
L 446.4 331.2 
" style="fill: none; stroke: #000000; stroke-width: 0.8; stroke-linejoin: miter; stroke-linecap: square"/>
   </g>
   <g id="patch_6">
    <path d="M 7.2 7.2 
L 446.4 7.2 
" style="fill: none; stroke: #000000; stroke-width: 0.8; stroke-linejoin: miter; stroke-linecap: square"/>
   </g>
  </g>
 </g>
 <defs>
  <clipPath id="pbfb5323afe">
   <rect x="7.2" y="7.2" width="439.2" height="324"/>
  </clipPath>
 </defs>
</svg>
