<?xml version="1.0" encoding="utf-8" standalone="no"?>
<!DOCTYPE svg PUBLIC "-//W3C//DTD SVG 1.1//EN"
  "http://www.w3.org/Graphics/SVG/1.1/DTD/svg11.dtd">
<svg xmlns:xlink="http://www.w3.org/1999/xlink" width="453.6pt" height="338.4pt" viewBox="0 0 453.6 338.4" xmlns="http://www.w3.org/2000/svg" version="1.1">
 <metadata>
  <rdf:RDF xmlns:dc="http://purl.org/dc/elements/1.1/" xmlns:cc="http://creativecommons.org/ns#" xmlns:rdf="http://www.w3.org/1999/02/22-rdf-syntax-ns#">
   <cc:Work>
    <dc:type rdf:resource="http://purl.org/dc/dcmitype/StillImage"/>
    <dc:date>2025-05-14T16:07:36.065458</dc:date>
    <dc:format>image/svg+xml</dc:format>
    <dc:creator>
     <cc:Agent>
      <dc:title>Matplotlib v3.10.1, https://matplotlib.org/</dc:title>
     </cc:Agent>
    </dc:creator>
   </cc:Work>
  </rdf:RDF>
 </metadata>
 <defs>
  <style type="text/css">*{stroke-linejoin: round; stroke-linecap: butt}</style>
 </defs>
 <g id="figure_1">
  <g id="patch_1">
   <path d="M 0 338.4 
L 453.6 338.4 
L 453.6 0 
L 0 0 
z
" style="fill: #ffffff"/>
  </g>
  <g id="axes_1">
   <g id="patch_2">
    <path d="M 7.2 331.2 
L 446.4 331.2 
L 446.4 7.2 
L 7.2 7.2 
z
" style="fill: #ffffff"/>
   </g>
   <g id="matplotlib.axis_1"/>
   <g id="matplotlib.axis_2"/>
   <g id="line2d_1">
    <path d="M 27.163636 21.928309 
L 29.026909 58.267257 
L 30.890182 90.273122 
L 32.753455 118.461744 
L 34.616727 143.28841 
L 36.48 165.154121 
L 38.343273 184.411952 
L 40.206545 201.372984 
L 42.069818 216.311129 
L 43.933091 229.46768 
L 45.796364 241.055051 
L 47.659636 251.260462 
L 49.522909 260.248714 
L 51.386182 268.164963 
L 53.249455 275.137087 
L 55.112727 281.277658 
L 56.976 286.685852 
L 58.839273 291.449063 
L 60.702545 295.644153 
L 62.565818 299.338924 
L 64.429091 302.593033 
L 66.558545 305.839557 
L 68.688 308.647456 
L 70.817455 311.076015 
L 72.946909 313.176466 
L 75.076364 314.993137 
L 76.939636 316.380223 
L 77.205818 22.712741 
L 126.981818 316.472727 
L 127.248 23.498208 
L 176.757818 315.687259 
L 177.024 22.712741 
L 226.8 316.472727 
L 227.066182 23.498208 
L 276.576 315.68733 
L 276.842182 22.71267 
L 326.618182 316.472727 
L 326.884364 23.498208 
L 376.394182 315.68733 
L 376.660364 22.71267 
L 426.436364 316.472727 
L 426.436364 316.472727 
" clip-path="url(#pe9ce5f62b1)" style="fill: none; stroke-dasharray: 11.1,4.8; stroke-dashoffset: 0; stroke: #000000; stroke-width: 3"/>
   </g>
   <g id="line2d_2">
    <path d="M 27.163636 150.254442 
L 28.228364 151.342404 
L 29.293091 152.76829 
L 31.422545 156.132196 
L 33.818182 160.268683 
L 35.415273 163.55743 
L 37.012364 166.828919 
L 37.810909 168.011844 
L 38.343273 168.497942 
L 38.875636 168.697504 
L 39.408 168.598188 
L 39.940364 168.213443 
L 40.738909 167.186769 
L 41.803636 165.289006 
L 44.199273 160.874497 
L 46.594909 156.757269 
L 47.925818 153.846193 
L 51.918545 144.279426 
L 52.983273 142.555049 
L 54.048 141.292735 
L 55.112727 140.384865 
L 56.443636 139.595728 
L 57.508364 139.200466 
L 58.573091 139.051676 
L 59.637818 139.190546 
L 60.702545 139.595201 
L 64.162909 141.189592 
L 65.76 141.466524 
L 67.889455 141.834574 
L 70.285091 142.331241 
L 71.083636 142.262825 
L 71.882182 141.985769 
L 72.946909 141.321791 
L 74.810182 140.038286 
L 75.342545 139.870694 
L 75.874909 139.880596 
L 76.407273 140.105141 
L 76.939636 140.569311 
L 77.472 141.28192 
L 78.270545 142.794218 
L 79.335273 145.460929 
L 81.730909 151.886228 
L 82.529455 153.437693 
L 83.328 154.503272 
L 84.126545 155.100993 
L 84.925091 155.324186 
L 85.989818 155.269568 
L 89.716364 154.758241 
L 91.313455 154.457502 
L 95.572364 153.382216 
L 97.701818 153.093731 
L 98.500364 152.760723 
L 99.298909 152.193357 
L 100.097455 151.363858 
L 101.162182 149.891835 
L 105.154909 143.800052 
L 106.752 142.072831 
L 113.140364 135.774183 
L 115.269818 133.876331 
L 118.197818 131.08218 
L 119.262545 130.383036 
L 120.327273 129.926801 
L 121.924364 129.515387 
L 125.118545 128.924408 
L 125.917091 128.978235 
L 126.715636 129.237173 
L 127.514182 129.743794 
L 128.312727 130.502313 
L 129.377455 131.834852 
L 133.104 136.92914 
L 134.434909 138.269316 
L 136.032 139.559351 
L 137.895273 140.771612 
L 139.226182 141.416893 
L 140.290909 141.711786 
L 141.355636 141.735206 
L 142.420364 141.475548 
L 145.348364 140.466484 
L 146.146909 140.584374 
L 146.945455 141.012642 
L 147.744 141.743633 
L 148.808727 143.068974 
L 151.204364 146.258581 
L 152.269091 147.327407 
L 153.6 148.340018 
L 155.995636 150.053879 
L 157.858909 151.772516 
L 159.722182 153.439572 
L 161.319273 154.515403 
L 162.650182 155.439372 
L 163.448727 156.234637 
L 164.247273 157.35327 
L 165.045818 158.879665 
L 165.844364 160.85278 
L 166.909091 164.14309 
L 170.369455 175.838213 
L 170.901818 176.790676 
L 171.434182 177.245594 
L 171.700364 177.264414 
L 171.966545 177.13592 
L 172.498909 176.42554 
L 173.031273 175.115684 
L 173.563636 173.247363 
L 174.362182 169.580761 
L 176.225455 159.244309 
L 177.290182 154.022739 
L 178.088727 151.104412 
L 178.621091 149.732178 
L 179.153455 148.827678 
L 179.685818 148.366001 
L 180.218182 148.299006 
L 180.750545 148.561367 
L 181.282909 149.077153 
L 182.347636 150.550845 
L 183.944727 152.836128 
L 185.009455 153.913714 
L 185.808 154.433977 
L 186.872727 154.850201 
L 190.066909 155.868465 
L 193.793455 157.59962 
L 194.858182 158.350431 
L 195.656727 159.211935 
L 196.455273 160.436117 
L 197.253818 162.071326 
L 198.318545 164.850239 
L 200.181818 170.642871 
L 202.045091 176.167612 
L 203.642182 180.118205 
L 206.304 186.486665 
L 207.368727 189.627238 
L 208.433455 193.395728 
L 209.498182 197.970613 
L 210.562909 203.511268 
L 211.893818 211.821971 
L 215.354182 234.966815 
L 216.418909 240.167292 
L 217.217455 243.161365 
L 218.016 245.464029 
L 218.814545 247.192519 
L 219.613091 248.435719 
L 220.411636 249.209196 
L 220.944 249.429922 
L 221.476364 249.364591 
L 222.008727 248.952088 
L 222.541091 248.118091 
L 223.073455 246.779604 
L 223.605818 244.850986 
L 224.138182 242.251854 
L 224.936727 236.960409 
L 225.735273 229.927672 
L 226.8 218.126579 
L 229.728 183.456768 
L 230.526545 177.578119 
L 231.058909 175.119389 
L 231.591273 173.81688 
L 231.857455 173.563902 
L 232.123636 173.546276 
L 232.389818 173.735568 
L 232.922182 174.604226 
L 233.986909 177.318962 
L 234.785455 179.198809 
L 235.317818 180.037578 
L 235.850182 180.458419 
L 236.382545 180.478618 
L 236.914909 180.182057 
L 239.044364 178.42585 
L 239.576727 178.343994 
L 240.375273 178.525377 
L 241.44 178.823921 
L 241.972364 178.724579 
L 242.504727 178.331011 
L 243.037091 177.609053 
L 243.835636 176.00103 
L 245.166545 173.014242 
L 245.698909 172.235981 
L 246.231273 171.949006 
L 246.497455 172.025692 
L 246.763636 172.260147 
L 247.296 173.208265 
L 247.828364 174.760731 
L 248.626909 177.999434 
L 251.821091 192.576587 
L 252.885818 195.843713 
L 255.547636 203.074012 
L 256.612364 207.063096 
L 257.677091 212.090117 
L 259.008 219.606617 
L 261.936 236.789209 
L 263.000727 241.815721 
L 264.065455 245.855701 
L 265.130182 248.958848 
L 266.194909 251.243275 
L 266.993455 252.481014 
L 267.792 253.327837 
L 268.324364 253.659813 
L 268.856727 253.772748 
L 269.389091 253.614522 
L 269.921455 253.107124 
L 270.453818 252.145005 
L 270.986182 250.598003 
L 271.518545 248.320449 
L 272.050909 245.167135 
L 272.849455 238.536779 
L 273.648 229.468496 
L 274.712727 213.964609 
L 277.906909 163.75248 
L 278.705455 155.479366 
L 279.504 149.806757 
L 280.036364 147.343313 
L 280.568727 145.762212 
L 281.101091 144.884451 
L 281.633455 144.528129 
L 282.165818 144.5269 
L 282.964364 144.896055 
L 287.489455 147.677444 
L 290.417455 149.429051 
L 291.482182 149.71348 
L 292.546909 149.713989 
L 293.611636 149.690534 
L 294.144 149.845556 
L 294.676364 150.244365 
L 295.208727 150.999407 
L 295.741091 152.221184 
L 296.273455 154.004551 
L 296.805818 156.414922 
L 297.604364 161.2459 
L 298.669091 169.692366 
L 302.129455 200.117104 
L 303.194182 206.878826 
L 304.525091 213.643444 
L 310.381091 240.26063 
L 311.712 245.156268 
L 313.042909 249.298066 
L 314.373818 252.707209 
L 315.438545 254.918396 
L 316.503273 256.70473 
L 317.568 258.118115 
L 318.632727 259.193069 
L 319.431273 259.758473 
L 320.229818 260.049745 
L 320.762182 260.033058 
L 321.294545 259.786287 
L 321.826909 259.238891 
L 322.359273 258.30462 
L 322.891636 256.884589 
L 323.424 254.873531 
L 323.956364 252.169724 
L 324.754909 246.635946 
L 325.553455 239.212704 
L 326.618182 226.596202 
L 328.747636 196.813952 
L 330.078545 180.222577 
L 331.143273 170.135082 
L 331.941818 164.566354 
L 332.740364 160.471353 
L 333.538909 157.521898 
L 334.337455 155.414091 
L 335.136 153.945597 
L 335.934545 153.034742 
L 336.466909 152.740551 
L 336.999273 152.71448 
L 337.531636 152.974032 
L 338.064 153.530987 
L 338.596364 154.386347 
L 339.394909 156.193485 
L 340.459636 159.377316 
L 343.121455 167.964723 
L 343.92 169.851268 
L 344.718545 171.282763 
L 345.783273 172.709904 
L 346.848 174.111851 
L 347.646545 175.53333 
L 348.445091 177.500854 
L 349.243636 180.090317 
L 350.308364 184.376418 
L 353.236364 196.892973 
L 354.301091 200.211592 
L 355.365818 202.651169 
L 356.430545 204.497562 
L 358.027636 207.166713 
L 358.826182 208.87982 
L 359.624727 211.025144 
L 360.689455 214.609021 
L 362.020364 219.988607 
L 364.416 229.746289 
L 365.480727 233.0649 
L 366.279273 234.874039 
L 366.811636 235.704073 
L 367.344 236.198642 
L 367.876364 236.322028 
L 368.408727 236.031393 
L 368.941091 235.277666 
L 369.473455 234.008611 
L 370.005818 232.174243 
L 370.804364 228.276934 
L 371.602909 222.955372 
L 372.667636 213.783964 
L 373.998545 199.924337 
L 376.128 177.560211 
L 377.192727 168.88885 
L 377.991273 164.12585 
L 378.789818 160.927798 
L 379.322182 159.621155 
L 379.854545 158.914901 
L 380.386909 158.746255 
L 380.919273 159.04968 
L 381.451636 159.759972 
L 382.250182 161.449237 
L 383.314909 164.534753 
L 387.041455 176.379771 
L 388.106182 178.746076 
L 388.904727 180.012525 
L 389.437091 180.569138 
L 389.969455 180.867867 
L 390.501818 180.894666 
L 391.034182 180.65246 
L 391.566545 180.167055 
L 392.365091 179.100836 
L 393.962182 176.76514 
L 394.760727 176.045684 
L 395.293091 175.837309 
L 395.825455 175.834192 
L 396.624 176.095658 
L 397.688727 176.490314 
L 398.221091 176.495792 
L 398.753455 176.269474 
L 399.285818 175.765477 
L 399.818182 174.970494 
L 400.616727 173.282712 
L 401.947636 169.650468 
L 403.278545 166.052124 
L 404.077091 164.338052 
L 404.875636 163.093049 
L 405.674182 162.31815 
L 406.472727 161.943517 
L 407.271273 161.861476 
L 408.336 162.010546 
L 410.997818 162.511901 
L 412.594909 162.556775 
L 414.192 162.390236 
L 415.522909 162.022994 
L 416.853818 161.385561 
L 422.709818 157.836963 
L 423.774545 156.883288 
L 425.105455 155.296008 
L 426.436364 153.528775 
L 426.436364 153.528775 
" clip-path="url(#pe9ce5f62b1)" style="fill: none; stroke: #ff0000; stroke-width: 3; stroke-linecap: square"/>
   </g>
   <g id="patch_3">
    <path d="M 7.2 331.2 
L 7.2 7.2 
" style="fill: none; stroke: #000000; stroke-width: 0.8; stroke-linejoin: miter; stroke-linecap: square"/>
   </g>
   <g id="patch_4">
    <path d="M 446.4 331.2 
L 446.4 7.2 
" style="fill: none; stroke: #000000; stroke-width: 0.8; stroke-linejoin: miter; stroke-linecap: square"/>
   </g>
   <g id="patch_5">
    <path d="M 7.2 331.2 
L 446.4 331.2 
" style="fill: none; stroke: #000000; stroke-width: 0.8; stroke-linejoin: miter; stroke-linecap: square"/>
   </g>
   <g id="patch_6">
    <path d="M 7.2 7.2 
L 446.4 7.2 
" style="fill: none; stroke: #000000; stroke-width: 0.8; stroke-linejoin: miter; stroke-linecap: square"/>
   </g>
  </g>
 </g>
 <defs>
  <clipPath id="pe9ce5f62b1">
   <rect x="7.2" y="7.2" width="439.2" height="324"/>
  </clipPath>
 </defs>
</svg>
