<?xml version="1.0" encoding="utf-8" standalone="no"?>
<!DOCTYPE svg PUBLIC "-//W3C//DTD SVG 1.1//EN"
  "http://www.w3.org/Graphics/SVG/1.1/DTD/svg11.dtd">
<svg xmlns:xlink="http://www.w3.org/1999/xlink" width="453.6pt" height="338.4pt" viewBox="0 0 453.6 338.4" xmlns="http://www.w3.org/2000/svg" version="1.1">
 <metadata>
  <rdf:RDF xmlns:dc="http://purl.org/dc/elements/1.1/" xmlns:cc="http://creativecommons.org/ns#" xmlns:rdf="http://www.w3.org/1999/02/22-rdf-syntax-ns#">
   <cc:Work>
    <dc:type rdf:resource="http://purl.org/dc/dcmitype/StillImage"/>
    <dc:date>2025-05-14T16:05:43.302942</dc:date>
    <dc:format>image/svg+xml</dc:format>
    <dc:creator>
     <cc:Agent>
      <dc:title>Matplotlib v3.10.1, https://matplotlib.org/</dc:title>
     </cc:Agent>
    </dc:creator>
   </cc:Work>
  </rdf:RDF>
 </metadata>
 <defs>
  <style type="text/css">*{stroke-linejoin: round; stroke-linecap: butt}</style>
 </defs>
 <g id="figure_1">
  <g id="patch_1">
   <path d="M 0 338.4 
L 453.6 338.4 
L 453.6 0 
L 0 0 
z
" style="fill: #ffffff"/>
  </g>
  <g id="axes_1">
   <g id="patch_2">
    <path d="M 7.2 331.2 
L 446.4 331.2 
L 446.4 7.2 
L 7.2 7.2 
z
" style="fill: #ffffff"/>
   </g>
   <g id="matplotlib.axis_1"/>
   <g id="matplotlib.axis_2"/>
   <g id="line2d_1">
    <path d="M 27.163636 21.928309 
L 29.026909 58.267257 
L 30.890182 90.273122 
L 32.753455 118.461744 
L 34.616727 143.28841 
L 36.48 165.154121 
L 38.343273 184.411952 
L 40.206545 201.372984 
L 42.069818 216.311129 
L 43.933091 229.46768 
L 45.796364 241.055051 
L 47.659636 251.260462 
L 49.522909 260.248714 
L 51.386182 268.164963 
L 53.249455 275.137087 
L 55.112727 281.277658 
L 56.976 286.685852 
L 58.839273 291.449063 
L 60.702545 295.644153 
L 62.565818 299.338924 
L 64.429091 302.593033 
L 66.558545 305.839557 
L 68.688 308.647456 
L 70.817455 311.076015 
L 72.946909 313.176466 
L 75.076364 314.993137 
L 76.939636 316.380223 
L 77.205818 22.712741 
L 126.981818 316.472727 
L 127.248 23.498208 
L 176.757818 315.687259 
L 177.024 22.712741 
L 226.8 316.472727 
L 227.066182 23.498208 
L 276.576 315.68733 
L 276.842182 22.71267 
L 326.618182 316.472727 
L 326.884364 23.498208 
L 376.394182 315.68733 
L 376.660364 22.71267 
L 426.436364 316.472727 
L 426.436364 316.472727 
" clip-path="url(#p06053689e5)" style="fill: none; stroke-dasharray: 11.1,4.8; stroke-dashoffset: 0; stroke: #000000; stroke-width: 3"/>
   </g>
   <g id="line2d_2">
    <path d="M 27.163636 225.548557 
L 28.760727 233.926079 
L 30.091636 240.672842 
L 31.156364 244.932671 
L 31.954909 247.331218 
L 33.019636 249.699819 
L 34.616727 252.483257 
L 37.012364 256.42839 
L 37.810909 257.382424 
L 38.609455 257.952252 
L 39.141818 258.10127 
L 39.940364 258.020718 
L 41.005091 257.561647 
L 42.336 256.995501 
L 43.134545 256.898744 
L 43.933091 257.041297 
L 44.997818 257.52865 
L 48.192 259.269052 
L 50.587636 260.392808 
L 52.450909 261.639496 
L 53.515636 262.272931 
L 54.314182 262.527146 
L 55.112727 262.488395 
L 55.911273 262.108043 
L 56.709818 261.398146 
L 57.774545 260.078032 
L 59.637818 257.645241 
L 60.436364 256.899561 
L 61.234909 256.434947 
L 62.033455 256.234691 
L 63.098182 256.248139 
L 66.026182 256.456344 
L 67.357091 256.581687 
L 68.688 256.992227 
L 69.752727 257.324642 
L 70.285091 257.331779 
L 70.817455 257.124281 
L 71.349818 256.617883 
L 71.882182 255.736835 
L 72.414545 254.42158 
L 73.213091 251.556869 
L 74.011636 247.599026 
L 75.076364 240.736923 
L 76.407273 230.08423 
L 80.666182 193.18112 
L 81.464727 188.400036 
L 82.263273 184.883962 
L 82.795636 183.279344 
L 83.328 182.264943 
L 83.860364 181.818478 
L 84.126545 181.79554 
L 84.658909 182.112106 
L 85.191273 182.841745 
L 85.989818 184.467325 
L 87.320727 187.394896 
L 87.853091 188.194768 
L 88.385455 188.591523 
L 88.651636 188.615425 
L 88.917818 188.518129 
L 89.450182 187.971005 
L 89.982545 187.016128 
L 92.112 182.387283 
L 92.644364 182.034578 
L 92.910545 182.096622 
L 93.176727 182.332973 
L 93.709091 183.346558 
L 94.241455 185.064668 
L 95.04 188.773256 
L 96.370909 196.728199 
L 98.234182 207.862162 
L 101.694545 226.997916 
L 104.622545 245.131189 
L 105.421091 248.278353 
L 105.953455 249.590992 
L 106.485818 250.255238 
L 106.752 250.356068 
L 107.018182 250.315531 
L 107.550545 249.865967 
L 108.082909 249.039988 
L 110.212364 245.131584 
L 110.744727 244.693265 
L 111.277091 244.638779 
L 111.809455 244.982737 
L 112.341818 245.702255 
L 113.140364 247.363702 
L 114.205091 250.254602 
L 116.068364 255.450057 
L 117.133091 257.841437 
L 118.197818 259.685689 
L 118.996364 260.724068 
L 119.794909 261.452878 
L 120.327273 261.735183 
L 120.859636 261.813927 
L 121.392 261.640365 
L 121.924364 261.155812 
L 122.456727 260.295296 
L 122.989091 258.993081 
L 123.521455 257.188941 
L 124.32 253.44258 
L 125.118545 248.393083 
L 126.183273 239.77928 
L 127.780364 224.225033 
L 129.643636 206.272941 
L 130.708364 197.948307 
L 131.506909 193.030741 
L 132.305455 189.319072 
L 133.104 186.794392 
L 133.636364 185.737197 
L 134.168727 185.141424 
L 134.701091 184.957075 
L 135.233455 185.11509 
L 135.765818 185.524581 
L 137.362909 187.055155 
L 137.895273 187.217103 
L 138.427636 187.002741 
L 138.96 186.338289 
L 139.492364 185.202503 
L 140.290909 182.720949 
L 142.420364 175.091737 
L 142.952727 174.008735 
L 143.218909 173.707047 
L 143.485091 173.580634 
L 143.751273 173.635356 
L 144.017455 173.872208 
L 144.549818 174.873039 
L 145.082182 176.500866 
L 145.880727 179.802692 
L 148.276364 190.624188 
L 149.341091 194.184163 
L 152.269091 203.083387 
L 155.463273 214.47418 
L 156.261818 216.263604 
L 157.060364 217.40499 
L 157.858909 218.018003 
L 158.657455 218.31279 
L 159.988364 218.717638 
L 160.786909 219.190709 
L 161.585455 219.934797 
L 162.650182 221.328142 
L 163.981091 223.516953 
L 166.642909 228.476136 
L 168.772364 232.343863 
L 169.570909 233.403077 
L 170.103273 233.847962 
L 170.635636 234.013413 
L 171.168 233.846093 
L 171.700364 233.305824 
L 172.232727 232.369926 
L 172.765091 231.035148 
L 173.563636 228.322502 
L 174.628364 223.56023 
L 175.959273 216.24359 
L 178.088727 202.851644 
L 180.218182 189.76509 
L 181.282909 184.403007 
L 182.081455 181.26944 
L 182.88 179.066733 
L 183.412364 178.157423 
L 183.944727 177.693709 
L 184.477091 177.642664 
L 185.009455 177.940112 
L 185.808 178.825887 
L 187.138909 180.428503 
L 187.671273 180.747633 
L 188.203636 180.742708 
L 188.736 180.374755 
L 189.268364 179.652648 
L 190.066909 178.03675 
L 192.196364 173.224996 
L 192.728727 172.521683 
L 193.261091 172.169188 
L 193.793455 172.185594 
L 194.325818 172.555206 
L 194.858182 173.233432 
L 195.656727 174.68107 
L 198.318545 180.121418 
L 199.117091 181.250629 
L 200.181818 182.327267 
L 203.908364 185.496263 
L 207.102545 189.000742 
L 207.901091 190.177557 
L 208.699636 191.779269 
L 209.498182 193.99193 
L 210.296727 196.929868 
L 211.361455 201.940385 
L 213.224727 212.398791 
L 214.821818 220.82749 
L 215.886545 225.409072 
L 216.951273 229.078896 
L 218.016 231.861715 
L 218.814545 233.290006 
L 219.346909 233.843582 
L 219.879273 233.996392 
L 220.145455 233.896514 
L 220.677818 233.289585 
L 221.210182 232.0701 
L 221.742545 230.167824 
L 222.274909 227.538614 
L 223.073455 222.229034 
L 224.138182 212.929702 
L 227.598545 179.820161 
L 228.397091 174.750996 
L 229.195636 171.077872 
L 229.994182 168.609196 
L 230.792727 167.048513 
L 231.591273 166.090169 
L 232.389818 165.485618 
L 233.454545 164.952838 
L 235.317818 164.304537 
L 239.310545 162.992171 
L 240.907636 162.507916 
L 241.972364 162.440816 
L 242.770909 162.603036 
L 243.569455 162.957199 
L 244.634182 163.665103 
L 247.296 165.586883 
L 248.626909 166.204162 
L 250.490182 166.769614 
L 252.619636 167.231309 
L 253.684364 167.283943 
L 254.749091 167.111927 
L 255.813818 166.682816 
L 257.144727 165.837183 
L 260.605091 163.352425 
L 261.669818 162.93118 
L 262.734545 162.78922 
L 263.799273 162.91013 
L 264.864 163.253039 
L 265.928727 163.855132 
L 266.727273 164.586281 
L 267.525818 165.684636 
L 268.324364 167.23382 
L 269.389091 169.928752 
L 270.986182 174.116135 
L 271.784727 175.483435 
L 272.317091 175.928382 
L 272.849455 175.972703 
L 273.381818 175.647411 
L 273.914182 175.025041 
L 274.978909 173.295467 
L 276.309818 171.20512 
L 277.108364 170.301349 
L 278.173091 169.475537 
L 280.302545 168.282772 
L 282.698182 167.084275 
L 288.288 164.639581 
L 290.949818 163.329234 
L 292.280727 162.94203 
L 293.345455 162.877265 
L 294.410182 163.04721 
L 295.741091 163.506183 
L 299.733818 165.233844 
L 300.798545 165.945505 
L 301.863273 166.955992 
L 303.194182 168.580369 
L 304.791273 170.522444 
L 305.589818 171.214302 
L 306.388364 171.588716 
L 306.920727 171.633318 
L 307.453091 171.504332 
L 307.985455 171.200195 
L 308.784 170.422637 
L 309.582545 169.282471 
L 310.647273 167.27671 
L 312.244364 163.610029 
L 314.107636 159.406582 
L 315.172364 157.519317 
L 315.970909 156.453212 
L 316.769455 155.702243 
L 317.568 155.258859 
L 318.366545 155.099711 
L 319.165091 155.182524 
L 320.229818 155.554963 
L 322.625455 156.554916 
L 323.690182 156.770928 
L 325.021091 156.785465 
L 326.085818 156.591099 
L 327.150545 156.192449 
L 328.481455 155.441409 
L 330.078545 154.518511 
L 330.877091 154.247424 
L 331.675636 154.195141 
L 332.474182 154.383503 
L 333.272727 154.788298 
L 334.603636 155.764023 
L 336.200727 156.941663 
L 337.265455 157.468228 
L 338.330182 157.712735 
L 339.661091 157.720635 
L 341.258182 157.724954 
L 342.056727 157.922286 
L 342.855273 158.331787 
L 343.653818 158.963514 
L 344.984727 160.374003 
L 346.581818 162.081105 
L 347.380364 162.696312 
L 348.178909 163.069471 
L 348.977455 163.194208 
L 349.776 163.101494 
L 350.840727 162.734462 
L 353.236364 161.536703 
L 355.099636 160.711013 
L 355.898182 160.510942 
L 356.430545 160.519193 
L 356.962909 160.728166 
L 357.495273 161.241582 
L 358.027636 162.183406 
L 358.56 163.686451 
L 359.092364 165.875614 
L 359.624727 168.847505 
L 360.423273 174.862075 
L 361.221818 182.619026 
L 362.818909 201.223615 
L 364.149818 216.080106 
L 364.948364 223.212036 
L 365.746909 228.55047 
L 366.279273 231.089107 
L 366.811636 232.863819 
L 367.344 233.953721 
L 367.876364 234.452109 
L 368.408727 234.45469 
L 368.941091 234.052344 
L 369.473455 233.328077 
L 370.272 231.800813 
L 371.869091 227.985245 
L 373.2 225.015276 
L 373.998545 223.653146 
L 374.797091 222.652263 
L 377.192727 220.082709 
L 377.725091 219.025303 
L 378.257455 217.591666 
L 379.056 214.615579 
L 379.854545 210.603978 
L 380.919273 203.841528 
L 382.782545 189.968049 
L 384.379636 178.666906 
L 385.444364 172.446454 
L 386.509091 167.583734 
L 387.307636 164.915355 
L 387.84 163.652006 
L 388.372364 162.852405 
L 388.904727 162.574946 
L 389.170909 162.652053 
L 389.437091 162.883532 
L 389.969455 163.836206 
L 390.501818 165.46894 
L 391.034182 167.780628 
L 391.832727 172.393829 
L 393.163636 181.987606 
L 394.494545 191.260524 
L 395.293091 195.464761 
L 396.091636 198.29385 
L 396.624 199.462721 
L 397.156364 200.182028 
L 397.954909 200.754231 
L 399.019636 201.403242 
L 399.552 201.955677 
L 400.350545 203.221581 
L 401.415273 205.590467 
L 403.012364 209.331912 
L 403.810909 210.760966 
L 404.875636 212.150194 
L 405.940364 213.476317 
L 406.472727 214.388857 
L 407.005091 215.616286 
L 407.803636 218.22651 
L 408.602182 221.861116 
L 409.666909 228.109482 
L 412.594909 246.55265 
L 413.393455 249.956378 
L 413.925818 251.564998 
L 414.458182 252.608767 
L 414.990545 253.07604 
L 415.256727 253.093439 
L 415.522909 252.967946 
L 416.055273 252.295264 
L 416.587636 251.076565 
L 417.12 249.337611 
L 417.918545 245.82884 
L 418.983273 239.710179 
L 420.314182 230.443695 
L 422.976 211.366377 
L 424.040727 205.333145 
L 424.839273 201.790016 
L 425.637818 199.108128 
L 426.436364 197.208574 
L 426.436364 197.208574 
" clip-path="url(#p06053689e5)" style="fill: none; stroke: #ff0000; stroke-width: 3; stroke-linecap: square"/>
   </g>
   <g id="patch_3">
    <path d="M 7.2 331.2 
L 7.2 7.2 
" style="fill: none; stroke: #000000; stroke-width: 0.8; stroke-linejoin: miter; stroke-linecap: square"/>
   </g>
   <g id="patch_4">
    <path d="M 446.4 331.2 
L 446.4 7.2 
" style="fill: none; stroke: #000000; stroke-width: 0.8; stroke-linejoin: miter; stroke-linecap: square"/>
   </g>
   <g id="patch_5">
    <path d="M 7.2 331.2 
L 446.4 331.2 
" style="fill: none; stroke: #000000; stroke-width: 0.8; stroke-linejoin: miter; stroke-linecap: square"/>
   </g>
   <g id="patch_6">
    <path d="M 7.2 7.2 
L 446.4 7.2 
" style="fill: none; stroke: #000000; stroke-width: 0.8; stroke-linejoin: miter; stroke-linecap: square"/>
   </g>
  </g>
 </g>
 <defs>
  <clipPath id="p06053689e5">
   <rect x="7.2" y="7.2" width="439.2" height="324"/>
  </clipPath>
 </defs>
</svg>
