<?xml version="1.0" encoding="utf-8" standalone="no"?>
<!DOCTYPE svg PUBLIC "-//W3C//DTD SVG 1.1//EN"
  "http://www.w3.org/Graphics/SVG/1.1/DTD/svg11.dtd">
<svg xmlns:xlink="http://www.w3.org/1999/xlink" width="453.6pt" height="338.4pt" viewBox="0 0 453.6 338.4" xmlns="http://www.w3.org/2000/svg" version="1.1">
 <metadata>
  <rdf:RDF xmlns:dc="http://purl.org/dc/elements/1.1/" xmlns:cc="http://creativecommons.org/ns#" xmlns:rdf="http://www.w3.org/1999/02/22-rdf-syntax-ns#">
   <cc:Work>
    <dc:type rdf:resource="http://purl.org/dc/dcmitype/StillImage"/>
    <dc:date>2025-05-14T16:00:14.101880</dc:date>
    <dc:format>image/svg+xml</dc:format>
    <dc:creator>
     <cc:Agent>
      <dc:title>Matplotlib v3.10.1, https://matplotlib.org/</dc:title>
     </cc:Agent>
    </dc:creator>
   </cc:Work>
  </rdf:RDF>
 </metadata>
 <defs>
  <style type="text/css">*{stroke-linejoin: round; stroke-linecap: butt}</style>
 </defs>
 <g id="figure_1">
  <g id="patch_1">
   <path d="M 0 338.4 
L 453.6 338.4 
L 453.6 0 
L 0 0 
z
" style="fill: #ffffff"/>
  </g>
  <g id="axes_1">
   <g id="patch_2">
    <path d="M 7.2 331.2 
L 446.4 331.2 
L 446.4 7.2 
L 7.2 7.2 
z
" style="fill: #ffffff"/>
   </g>
   <g id="matplotlib.axis_1"/>
   <g id="matplotlib.axis_2"/>
   <g id="line2d_1">
    <path d="M 27.163636 316.472709 
L 144.017455 297.325641 
L 150.672 295.928758 
L 156.794182 294.421541 
L 162.650182 292.747334 
L 167.973818 290.997527 
L 173.031273 289.105221 
L 177.822545 287.077985 
L 182.347636 284.927249 
L 186.606545 282.668449 
L 190.865455 280.156089 
L 194.858182 277.545211 
L 198.850909 274.660496 
L 202.577455 271.69575 
L 206.304 268.441764 
L 209.764364 265.13661 
L 213.224727 261.533044 
L 218.814545 255.274995 
L 426.436364 21.927273 
L 426.436364 21.927273 
" clip-path="url(#p0991784369)" style="fill: none; stroke-dasharray: 11.1,4.8; stroke-dashoffset: 0; stroke: #000000; stroke-width: 3"/>
   </g>
   <g id="line2d_2">
    <path d="M 27.163636 258.819853 
L 28.494545 259.914368 
L 29.293091 260.320195 
L 30.091636 260.437405 
L 30.890182 260.243294 
L 31.688727 259.769608 
L 32.753455 258.829601 
L 35.947636 255.739709 
L 37.012364 255.057666 
L 38.077091 254.633831 
L 39.141818 254.436832 
L 41.271273 254.361059 
L 42.868364 254.200985 
L 45.530182 253.611941 
L 47.393455 253.351621 
L 52.983273 252.88311 
L 55.645091 252.211113 
L 57.242182 251.601497 
L 58.306909 250.97771 
L 59.371636 250.117966 
L 61.234909 248.237302 
L 62.565818 247.044643 
L 63.364364 246.571585 
L 64.162909 246.338661 
L 64.961455 246.354181 
L 65.76 246.600693 
L 66.824727 247.235159 
L 67.889455 248.146497 
L 69.486545 249.859612 
L 72.946909 253.715787 
L 74.277818 254.863581 
L 75.608727 255.740162 
L 76.939636 256.327678 
L 78.004364 256.579843 
L 79.069091 256.639671 
L 80.4 256.473136 
L 81.997091 256.020627 
L 87.586909 254.210106 
L 89.982545 253.420723 
L 91.845818 252.591913 
L 93.975273 251.385797 
L 96.903273 249.695149 
L 98.500364 249.032395 
L 100.363636 248.533915 
L 102.493091 248.213689 
L 105.421091 247.796723 
L 107.284364 247.263684 
L 109.68 246.546176 
L 111.010909 246.379032 
L 115.003636 246.149966 
L 116.600727 245.673076 
L 118.996364 244.941502 
L 120.859636 244.640741 
L 123.255273 244.271243 
L 125.384727 243.671283 
L 127.514182 243.133284 
L 129.111273 242.991662 
L 134.701091 242.80866 
L 137.629091 242.377583 
L 139.492364 241.882619 
L 143.485091 240.635412 
L 144.549818 240.628328 
L 145.880727 240.898677 
L 149.074909 241.776447 
L 150.672 241.906013 
L 156.528 241.9375 
L 161.319273 241.667625 
L 162.916364 242.023692 
L 165.578182 242.705315 
L 167.175273 242.828209 
L 169.570909 242.717016 
L 179.952 242.089818 
L 182.347636 241.875157 
L 184.210909 241.465929 
L 186.074182 240.837072 
L 188.203636 239.880246 
L 190.333091 238.676939 
L 192.994909 236.886945 
L 197.786182 233.308054 
L 202.311273 230.028067 
L 209.232 225.239233 
L 217.217455 219.090489 
L 219.346909 217.899094 
L 222.008727 216.698973 
L 224.670545 215.735502 
L 227.332364 215.018004 
L 231.591273 214.168578 
L 236.648727 213.069731 
L 240.109091 212.072367 
L 253.684364 207.86533 
L 257.144727 206.969697 
L 265.130182 205.113823 
L 266.727273 204.398747 
L 268.590545 203.298223 
L 270.986182 201.55456 
L 274.180364 198.957811 
L 275.777455 197.423366 
L 277.374545 195.580203 
L 282.432 189.300954 
L 284.029091 187.894547 
L 285.892364 186.57938 
L 288.820364 184.839632 
L 292.546909 182.885109 
L 297.604364 180.301686 
L 299.201455 179.205024 
L 300.798545 177.835845 
L 302.395636 176.151215 
L 303.992727 174.135157 
L 305.856 171.398107 
L 310.381091 164.4893 
L 311.978182 162.534233 
L 313.575273 160.904957 
L 315.438545 159.344661 
L 319.165091 156.410761 
L 320.496 155.005838 
L 321.560727 153.598158 
L 322.891636 151.413894 
L 324.488727 148.281766 
L 327.682909 141.899304 
L 333.272727 131.57509 
L 335.136 128.807641 
L 338.330182 124.575472 
L 341.258182 121.045467 
L 343.653818 118.063164 
L 345.517091 115.340853 
L 348.178909 110.982823 
L 352.437818 103.998181 
L 359.358545 93.081951 
L 361.754182 88.811439 
L 363.883636 84.544737 
L 367.610182 76.95077 
L 368.941091 74.755076 
L 370.272 72.965512 
L 371.869091 71.233603 
L 376.394182 66.925451 
L 378.257455 65.429656 
L 380.120727 64.26406 
L 383.048727 62.735944 
L 384.912 61.965434 
L 386.242909 61.617732 
L 387.573818 61.486112 
L 388.904727 61.593574 
L 390.235636 61.951196 
L 391.832727 62.666807 
L 396.091636 65.034359 
L 397.688727 66.061243 
L 399.019636 67.178876 
L 400.350545 68.6302 
L 401.681455 70.459775 
L 403.012364 72.734928 
L 404.077091 75.01814 
L 405.141818 77.964627 
L 405.940364 80.812606 
L 406.738909 84.374968 
L 407.803636 90.423597 
L 408.868364 97.999447 
L 410.199273 109.278477 
L 412.328727 129.713422 
L 417.652364 181.939098 
L 419.249455 194.996298 
L 420.580364 204.229092 
L 421.911273 211.917679 
L 422.976 216.877898 
L 424.040727 220.683765 
L 424.839273 222.761533 
L 425.637818 224.213367 
L 426.436364 225.125486 
L 426.436364 225.125486 
" clip-path="url(#p0991784369)" style="fill: none; stroke: #0000ff; stroke-width: 3; stroke-linecap: square"/>
   </g>
   <g id="patch_3">
    <path d="M 7.2 331.2 
L 7.2 7.2 
" style="fill: none; stroke: #000000; stroke-width: 0.8; stroke-linejoin: miter; stroke-linecap: square"/>
   </g>
   <g id="patch_4">
    <path d="M 446.4 331.2 
L 446.4 7.2 
" style="fill: none; stroke: #000000; stroke-width: 0.8; stroke-linejoin: miter; stroke-linecap: square"/>
   </g>
   <g id="patch_5">
    <path d="M 7.2 331.2 
L 446.4 331.2 
" style="fill: none; stroke: #000000; stroke-width: 0.8; stroke-linejoin: miter; stroke-linecap: square"/>
   </g>
   <g id="patch_6">
    <path d="M 7.2 7.2 
L 446.4 7.2 
" style="fill: none; stroke: #000000; stroke-width: 0.8; stroke-linejoin: miter; stroke-linecap: square"/>
   </g>
  </g>
 </g>
 <defs>
  <clipPath id="p0991784369">
   <rect x="7.2" y="7.2" width="439.2" height="324"/>
  </clipPath>
 </defs>
</svg>
