<?xml version="1.0" encoding="utf-8" standalone="no"?>
<!DOCTYPE svg PUBLIC "-//W3C//DTD SVG 1.1//EN"
  "http://www.w3.org/Graphics/SVG/1.1/DTD/svg11.dtd">
<svg xmlns:xlink="http://www.w3.org/1999/xlink" width="453.6pt" height="338.4pt" viewBox="0 0 453.6 338.4" xmlns="http://www.w3.org/2000/svg" version="1.1">
 <metadata>
  <rdf:RDF xmlns:dc="http://purl.org/dc/elements/1.1/" xmlns:cc="http://creativecommons.org/ns#" xmlns:rdf="http://www.w3.org/1999/02/22-rdf-syntax-ns#">
   <cc:Work>
    <dc:type rdf:resource="http://purl.org/dc/dcmitype/StillImage"/>
    <dc:date>2025-05-14T16:02:11.799363</dc:date>
    <dc:format>image/svg+xml</dc:format>
    <dc:creator>
     <cc:Agent>
      <dc:title>Matplotlib v3.10.1, https://matplotlib.org/</dc:title>
     </cc:Agent>
    </dc:creator>
   </cc:Work>
  </rdf:RDF>
 </metadata>
 <defs>
  <style type="text/css">*{stroke-linejoin: round; stroke-linecap: butt}</style>
 </defs>
 <g id="figure_1">
  <g id="patch_1">
   <path d="M 0 338.4 
L 453.6 338.4 
L 453.6 0 
L 0 0 
z
" style="fill: #ffffff"/>
  </g>
  <g id="axes_1">
   <g id="patch_2">
    <path d="M 7.2 331.2 
L 446.4 331.2 
L 446.4 7.2 
L 7.2 7.2 
z
" style="fill: #ffffff"/>
   </g>
   <g id="matplotlib.axis_1"/>
   <g id="matplotlib.axis_2"/>
   <g id="line2d_1">
    <path d="M 27.163636 316.471708 
L 29.293091 283.452453 
L 31.422545 254.001888 
L 33.552 227.73513 
L 35.681455 204.30799 
L 37.810909 183.413457 
L 39.940364 164.777784 
L 42.069818 148.15673 
L 44.199273 133.332526 
L 46.328727 120.110928 
L 48.458182 108.318658 
L 50.587636 97.801219 
L 52.717091 88.420777 
L 54.846545 80.054421 
L 56.976 72.592547 
L 59.105455 65.937313 
L 61.234909 60.001589 
L 63.364364 54.707546 
L 65.493818 49.985803 
L 67.623273 45.774526 
L 69.752727 42.018518 
L 71.882182 38.66857 
L 74.277818 35.330753 
L 76.673455 32.396046 
L 79.069091 29.815765 
L 81.464727 27.547107 
L 84.126545 25.346235 
L 86.788364 23.438658 
L 89.184 21.940177 
L 91.579636 21.933558 
L 113.406545 22.107031 
L 124.32 22.402486 
L 131.773091 22.818271 
L 137.362909 23.342274 
L 141.888 23.978074 
L 145.614545 24.706923 
L 149.074909 25.610562 
L 152.002909 26.598752 
L 154.664727 27.723618 
L 157.060364 28.96439 
L 159.456 30.469402 
L 161.585455 32.074257 
L 163.714909 33.979587 
L 165.578182 35.937182 
L 167.441455 38.211966 
L 169.304727 40.855327 
L 171.168 43.926956 
L 173.031273 47.496287 
L 174.628364 51.012617 
L 176.225455 55.011954 
L 177.024 57.061685 
L 178.354909 59.515736 
L 179.685818 62.376883 
L 181.016727 65.712646 
L 182.347636 69.601765 
L 183.678545 74.136024 
L 185.009455 79.422465 
L 186.340364 85.58586 
L 187.671273 92.771714 
L 189.002182 101.14957 
L 190.333091 110.917163 
L 191.664 122.305077 
L 192.994909 135.582117 
L 194.325818 151.061557 
L 195.656727 169.108883 
L 196.987636 190.150002 
L 198.318545 213.72465 
L 200.980364 200.136021 
L 203.642182 187.659969 
L 206.304 176.205323 
L 208.965818 165.688481 
L 211.627636 156.032669 
L 214.289455 147.167329 
L 216.951273 139.027852 
L 219.613091 131.554777 
L 222.274909 124.693485 
L 224.936727 118.39396 
L 227.864727 112.058443 
L 230.792727 106.291189 
L 233.720727 101.041125 
L 236.648727 96.26185 
L 239.576727 91.911193 
L 242.504727 87.950708 
L 245.432727 84.345386 
L 248.626909 80.780057 
L 251.821091 77.562062 
L 255.015273 74.657551 
L 258.209455 72.036013 
L 261.669818 69.483435 
L 265.130182 67.199118 
L 268.856727 65.006848 
L 272.849455 62.931415 
L 276.842182 61.10558 
L 281.101091 59.399338 
L 285.626182 57.824645 
L 290.417455 56.388682 
L 295.741091 55.031845 
L 301.330909 53.835877 
L 307.453091 52.750126 
L 314.373818 51.754053 
L 322.093091 50.875204 
L 330.877091 50.107204 
L 340.992 49.453461 
L 352.970182 48.909392 
L 367.610182 48.474242 
L 386.775273 48.140919 
L 389.170909 48.111881 
L 389.437091 48.286899 
L 426.436364 301.199995 
L 426.436364 301.199995 
" clip-path="url(#p4347e78baa)" style="fill: none; stroke-dasharray: 11.1,4.8; stroke-dashoffset: 0; stroke: #000000; stroke-width: 3"/>
   </g>
   <g id="line2d_2">
    <path d="M 27.163636 295.274093 
L 35.681455 261.86355 
L 37.810909 252.154661 
L 39.674182 242.697774 
L 41.537455 232.107968 
L 43.400727 220.149624 
L 44.731636 210.332224 
L 45.530182 204.371561 
L 45.796364 203.431528 
L 47.393455 200.600209 
L 48.724364 198.644089 
L 50.055273 197.077779 
L 51.12 196.116406 
L 52.184727 195.425707 
L 53.249455 195.016681 
L 54.314182 194.900713 
L 55.112727 195.013152 
L 55.911273 195.302252 
L 56.976 195.971699 
L 58.040727 196.977673 
L 59.105455 198.333905 
L 60.170182 200.05435 
L 61.234909 202.195443 
L 63.364364 206.743142 
L 64.162909 207.651074 
L 64.961455 208.13539 
L 65.493818 208.228306 
L 66.026182 208.140797 
L 66.558545 207.875759 
L 67.357091 207.151308 
L 68.155636 206.042278 
L 68.954182 204.556868 
L 70.018909 202.003412 
L 71.083636 198.809794 
L 72.414545 193.938462 
L 73.745455 188.110586 
L 75.076364 181.348321 
L 76.673455 172.023032 
L 78.536727 159.707216 
L 79.069091 155.906826 
L 79.335273 154.889176 
L 79.601455 155.398607 
L 81.997091 165.778527 
L 83.860364 172.989637 
L 85.457455 178.348655 
L 86.788364 182.101748 
L 87.853091 184.567738 
L 88.917818 186.500535 
L 89.716364 187.568589 
L 90.514909 188.284542 
L 91.313455 188.625494 
L 91.845818 188.633034 
L 92.378182 188.45662 
L 92.910545 188.08922 
L 93.709091 187.164426 
L 94.507636 185.788119 
L 95.306182 183.932508 
L 96.370909 180.859264 
L 99.298909 179.234501 
L 102.493091 177.740585 
L 106.219636 176.269843 
L 111.277091 174.546185 
L 113.140364 173.942231 
L 113.406545 174.07364 
L 114.737455 175.692276 
L 115.536 176.364664 
L 116.334545 176.803729 
L 117.133091 177.013983 
L 117.931636 176.999885 
L 118.730182 176.765746 
L 119.528727 176.315664 
L 120.327273 175.65367 
L 121.392 174.447914 
L 122.456727 172.878382 
L 123.521455 170.9564 
L 124.852364 168.07071 
L 126.183273 164.662089 
L 127.514182 160.716175 
L 129.111273 155.247798 
L 130.176 151.194423 
L 130.442182 151.602922 
L 131.773091 162.84914 
L 133.104 172.379372 
L 134.434909 180.296059 
L 135.765818 186.707989 
L 136.830545 190.830905 
L 137.895273 194.124313 
L 138.96 196.650556 
L 139.758545 198.078338 
L 140.557091 199.136771 
L 141.355636 199.854849 
L 142.154182 200.26068 
L 142.952727 200.382459 
L 143.751273 200.248882 
L 144.549818 199.890462 
L 145.614545 199.110147 
L 148.010182 196.781113 
L 149.873455 194.690591 
L 152.002909 191.917033 
L 154.398545 188.395296 
L 157.326545 183.663546 
L 162.384 174.951735 
L 162.916364 174.025088 
L 164.247273 170.770005 
L 165.312 168.71952 
L 166.376727 167.132169 
L 167.441455 165.975755 
L 168.506182 165.217604 
L 169.304727 164.890215 
L 170.103273 164.753767 
L 170.901818 164.793726 
L 171.966545 165.096115 
L 173.031273 165.651701 
L 174.362182 166.64751 
L 175.959273 168.188197 
L 178.088727 170.620434 
L 178.887273 171.580131 
L 179.419636 171.753973 
L 179.952 171.92175 
L 180.750545 172.461474 
L 181.549091 173.346275 
L 182.347636 174.575188 
L 183.412364 176.747882 
L 184.477091 179.529016 
L 185.541818 182.91901 
L 186.872727 188.009672 
L 188.203636 194.040359 
L 189.800727 202.512316 
L 191.397818 212.324484 
L 192.994909 223.470833 
L 195.124364 239.821529 
L 195.922909 240.015974 
L 196.721455 239.995021 
L 197.52 239.767289 
L 198.318545 239.341278 
L 199.383273 238.479422 
L 200.448 237.300185 
L 201.778909 235.410146 
L 203.109818 233.094719 
L 204.706909 229.81037 
L 206.570182 225.366332 
L 208.699636 219.621804 
L 211.361455 212.352206 
L 215.088 215.151036 
L 216.418909 215.844044 
L 217.483636 216.167589 
L 218.548364 216.230133 
L 219.346909 216.075401 
L 220.145455 215.724723 
L 220.944 215.156619 
L 221.742545 214.350461 
L 222.541091 213.288684 
L 223.605818 211.443203 
L 224.670545 209.067707 
L 225.735273 206.121869 
L 227.332364 201.11287 
L 228.130909 200.79217 
L 228.929455 200.770777 
L 229.728 201.021534 
L 230.526545 201.517297 
L 231.591273 202.512457 
L 232.656 203.830389 
L 233.986909 205.835289 
L 235.850182 209.079119 
L 240.109091 216.697314 
L 241.44 218.652504 
L 242.504727 219.922946 
L 243.569455 220.865675 
L 244.101818 221.192757 
L 244.368 221.256802 
L 244.900364 221.035865 
L 248.094545 219.111925 
L 250.756364 217.243279 
L 253.152 215.284525 
L 255.281455 213.276351 
L 257.410909 210.97388 
L 259.540364 208.340307 
L 261.403636 205.682857 
L 261.936 204.857835 
L 262.468364 203.453903 
L 265.130182 195.159659 
L 269.389091 181.852256 
L 271.252364 176.739982 
L 272.849455 173.015804 
L 274.180364 170.515351 
L 275.245091 168.987429 
L 276.043636 168.153716 
L 276.842182 167.609384 
L 277.640727 167.381626 
L 278.173091 167.432452 
L 278.705455 167.654925 
L 278.971636 167.833209 
L 279.237818 169.016537 
L 280.568727 178.562912 
L 281.633455 184.69733 
L 282.698182 189.543617 
L 283.496727 192.360653 
L 284.295273 194.498385 
L 285.093818 195.976465 
L 285.626182 196.60505 
L 286.158545 196.955201 
L 286.690909 197.032905 
L 287.223273 196.842209 
L 287.755636 196.387809 
L 288.288 195.679273 
L 289.086545 194.153746 
L 289.885091 192.091779 
L 290.949818 188.544577 
L 292.014545 184.133501 
L 293.345455 177.471666 
L 294.676364 169.679787 
L 294.942545 167.997255 
L 295.208727 167.677959 
L 296.539636 168.734846 
L 297.870545 169.524712 
L 299.467636 170.22806 
L 305.323636 172.525001 
L 306.654545 173.423988 
L 307.985455 174.617419 
L 309.316364 176.177023 
L 310.647273 178.132151 
L 311.179636 179.64458 
L 312.244364 182.611925 
L 313.309091 184.887148 
L 314.107636 186.123128 
L 314.906182 186.942453 
L 315.438545 187.250873 
L 315.970909 187.364409 
L 316.503273 187.278857 
L 317.035636 186.989951 
L 317.568 186.493231 
L 318.366545 185.348404 
L 319.165091 183.709183 
L 319.963636 181.558355 
L 321.028364 177.863048 
L 322.093091 173.180052 
L 323.157818 167.459541 
L 324.222545 160.649461 
L 325.553455 150.506954 
L 327.150545 137.898562 
L 328.481455 145.023602 
L 330.078545 154.822006 
L 332.474182 171.096921 
L 336.733091 200.294116 
L 338.596364 211.374075 
L 339.927273 218.079502 
L 340.992 222.522662 
L 342.056727 226.005415 
L 342.855273 227.909385 
L 343.121455 228.398336 
L 343.387636 228.517973 
L 343.92 227.746893 
L 345.783273 224.878697 
L 347.646545 222.426902 
L 349.243636 220.666455 
L 350.840727 219.229605 
L 352.437818 218.124859 
L 353.768727 217.464295 
L 355.099636 217.04592 
L 356.430545 216.87537 
L 357.761455 216.95806 
L 359.092364 217.299802 
L 359.890909 217.704061 
L 367.077818 231.279347 
L 368.941091 234.123912 
L 370.272 235.800923 
L 371.602909 237.11695 
L 372.667636 237.871018 
L 373.732364 238.327736 
L 374.530909 238.457582 
L 375.329455 238.391562 
L 375.861818 238.23273 
L 376.394182 237.716304 
L 377.192727 236.780536 
L 377.991273 236.175029 
L 378.789818 235.873948 
L 379.588364 235.851801 
L 380.386909 236.08285 
L 381.185455 236.541007 
L 382.250182 237.45978 
L 383.314909 238.673551 
L 384.912 240.904752 
L 387.307636 244.745591 
L 389.969455 248.908281 
L 391.300364 250.644909 
L 392.365091 251.75414 
L 394.494545 253.379935 
L 396.890182 255.52102 
L 400.084364 258.705 
L 406.206545 264.86239 
L 408.602182 266.943959 
L 408.868364 267.155064 
L 409.134545 267.574866 
L 413.393455 278.123893 
L 415.789091 283.330071 
L 418.184727 287.981931 
L 420.314182 291.623261 
L 422.177455 294.412071 
L 424.040727 296.810373 
L 425.637818 298.542299 
L 426.436364 299.292531 
L 426.436364 299.292531 
" clip-path="url(#p4347e78baa)" style="fill: none; stroke: #ffa500; stroke-width: 3; stroke-linecap: square"/>
   </g>
   <g id="patch_3">
    <path d="M 7.2 331.2 
L 7.2 7.2 
" style="fill: none; stroke: #000000; stroke-width: 0.8; stroke-linejoin: miter; stroke-linecap: square"/>
   </g>
   <g id="patch_4">
    <path d="M 446.4 331.2 
L 446.4 7.2 
" style="fill: none; stroke: #000000; stroke-width: 0.8; stroke-linejoin: miter; stroke-linecap: square"/>
   </g>
   <g id="patch_5">
    <path d="M 7.2 331.2 
L 446.4 331.2 
" style="fill: none; stroke: #000000; stroke-width: 0.8; stroke-linejoin: miter; stroke-linecap: square"/>
   </g>
   <g id="patch_6">
    <path d="M 7.2 7.2 
L 446.4 7.2 
" style="fill: none; stroke: #000000; stroke-width: 0.8; stroke-linejoin: miter; stroke-linecap: square"/>
   </g>
  </g>
 </g>
 <defs>
  <clipPath id="p4347e78baa">
   <rect x="7.2" y="7.2" width="439.2" height="324"/>
  </clipPath>
 </defs>
</svg>
