<?xml version="1.0" encoding="utf-8" standalone="no"?>
<!DOCTYPE svg PUBLIC "-//W3C//DTD SVG 1.1//EN"
  "http://www.w3.org/Graphics/SVG/1.1/DTD/svg11.dtd">
<svg xmlns:xlink="http://www.w3.org/1999/xlink" width="453.6pt" height="338.4pt" viewBox="0 0 453.6 338.4" xmlns="http://www.w3.org/2000/svg" version="1.1">
 <metadata>
  <rdf:RDF xmlns:dc="http://purl.org/dc/elements/1.1/" xmlns:cc="http://creativecommons.org/ns#" xmlns:rdf="http://www.w3.org/1999/02/22-rdf-syntax-ns#">
   <cc:Work>
    <dc:type rdf:resource="http://purl.org/dc/dcmitype/StillImage"/>
    <dc:date>2025-05-14T16:07:27.524589</dc:date>
    <dc:format>image/svg+xml</dc:format>
    <dc:creator>
     <cc:Agent>
      <dc:title>Matplotlib v3.10.1, https://matplotlib.org/</dc:title>
     </cc:Agent>
    </dc:creator>
   </cc:Work>
  </rdf:RDF>
 </metadata>
 <defs>
  <style type="text/css">*{stroke-linejoin: round; stroke-linecap: butt}</style>
 </defs>
 <g id="figure_1">
  <g id="patch_1">
   <path d="M 0 338.4 
L 453.6 338.4 
L 453.6 0 
L 0 0 
z
" style="fill: #ffffff"/>
  </g>
  <g id="axes_1">
   <g id="patch_2">
    <path d="M 7.2 331.2 
L 446.4 331.2 
L 446.4 7.2 
L 7.2 7.2 
z
" style="fill: #ffffff"/>
   </g>
   <g id="matplotlib.axis_1"/>
   <g id="matplotlib.axis_2"/>
   <g id="line2d_1">
    <path d="M 27.163636 200.330799 
L 34.616727 198.693861 
L 41.537455 196.95306 
L 48.192 195.050398 
L 54.314182 193.075703 
L 60.170182 190.960786 
L 65.76 188.711695 
L 71.083636 186.337297 
L 76.141091 183.849423 
L 81.198545 181.112224 
L 85.989818 178.266474 
L 90.514909 175.331793 
L 95.04 172.135304 
L 99.298909 168.866782 
L 103.557818 165.324522 
L 107.816727 161.485614 
L 111.809455 157.595108 
L 115.802182 153.39993 
L 119.794909 148.876186 
L 123.787636 143.998175 
L 127.514182 139.101255 
L 131.240727 133.847311 
L 134.967273 128.210306 
L 138.693818 122.162309 
L 142.420364 115.673351 
L 146.146909 108.711269 
L 149.873455 101.241617 
L 150.938182 99.009056 
L 151.204364 99.006984 
L 176.757818 315.34593 
L 177.024 316.472727 
L 326.618182 316.472727 
L 376.394182 151.680503 
L 376.660364 151.680503 
L 426.436364 316.472727 
L 426.436364 316.472727 
" clip-path="url(#p16e23aee78)" style="fill: none; stroke-dasharray: 11.1,4.8; stroke-dashoffset: 0; stroke: #000000; stroke-width: 3"/>
   </g>
   <g id="line2d_2">
    <path d="M 27.163636 200.01146 
L 28.760727 147.335272 
L 30.091636 110.553045 
L 31.156364 86.030455 
L 32.221091 65.896302 
L 33.285818 50.074427 
L 34.084364 40.933944 
L 34.882909 33.992824 
L 35.681455 29.105209 
L 36.213818 26.914449 
L 36.48 28.077728 
L 37.278545 50.620778 
L 38.077091 66.31372 
L 38.875636 76.834881 
L 39.940364 87.04677 
L 40.738909 95.141952 
L 41.271273 102.1925 
L 41.803636 111.474434 
L 42.336 123.766777 
L 42.868364 139.843271 
L 43.933091 180.296269 
L 44.731636 186.604152 
L 45.530182 194.586254 
L 46.594909 208.087233 
L 47.659636 225.359309 
L 48.724364 246.288849 
L 50.587636 218.413844 
L 51.918545 202.007099 
L 52.983273 191.794665 
L 53.781818 186.007537 
L 54.580364 181.86674 
L 55.112727 180.02743 
L 55.645091 178.936176 
L 55.911273 178.647121 
L 56.177455 178.524753 
L 56.443636 178.564834 
L 56.709818 178.762237 
L 57.242182 179.604745 
L 57.774545 180.997019 
L 58.573091 183.975451 
L 59.637818 189.173434 
L 60.436364 193.59543 
L 61.234909 202.512193 
L 61.767273 206.816949 
L 62.299636 209.276504 
L 62.565818 209.752955 
L 62.832 209.650734 
L 63.098182 209.029276 
L 63.364364 207.865822 
L 63.896727 203.930486 
L 64.162909 201.20059 
L 64.429091 199.737073 
L 64.961455 208.297759 
L 65.76 220.52898 
L 66.558545 230.009458 
L 67.357091 237.372043 
L 68.155636 243.133635 
L 69.220364 248.998757 
L 70.285091 253.361821 
L 71.349818 256.696307 
L 72.414545 259.303757 
L 73.479273 261.422545 
L 74.810182 263.591316 
L 76.407273 265.74361 
L 77.205818 266.599549 
L 79.601455 267.542242 
L 88.917818 270.792857 
L 90.514909 271.684869 
L 91.845818 272.676382 
L 92.910545 273.720594 
L 93.709091 274.71851 
L 94.241455 277.498749 
L 94.507636 273.967633 
L 95.306182 227.470241 
L 95.838545 206.788341 
L 96.370909 192.081684 
L 96.903273 181.996402 
L 97.435636 175.399929 
L 97.968 171.345956 
L 98.500364 169.09166 
L 99.032727 168.030857 
L 99.565091 167.700571 
L 100.363636 167.767654 
L 100.896 167.742706 
L 101.428364 167.345864 
L 101.960727 166.371719 
L 102.493091 164.609788 
L 103.025455 161.787108 
L 103.557818 157.701762 
L 104.090182 152.102503 
L 104.622545 144.639102 
L 105.421091 129.120529 
L 106.219636 107.009838 
L 106.752 87.672406 
L 107.018182 85.25761 
L 108.082909 99.584586 
L 109.147636 117.201134 
L 110.478545 141.607923 
L 112.075636 152.55837 
L 113.672727 162.090814 
L 115.269818 170.229842 
L 116.866909 177.056443 
L 118.197818 181.834243 
L 119.528727 185.854394 
L 120.859636 189.210583 
L 122.190545 191.973801 
L 123.521455 194.211515 
L 124.852364 195.992705 
L 126.183273 197.385681 
L 126.981818 198.03759 
L 128.046545 206.707406 
L 128.845091 211.696707 
L 129.643636 215.488003 
L 130.442182 218.149841 
L 130.974545 219.357766 
L 131.506909 220.1526 
L 132.039273 220.526136 
L 132.571636 220.55319 
L 133.104 220.206691 
L 133.636364 219.544222 
L 134.168727 218.660518 
L 134.701091 220.039959 
L 135.233455 220.855 
L 135.765818 221.166098 
L 136.298182 221.016711 
L 136.830545 220.421641 
L 137.362909 219.471592 
L 137.895273 218.198692 
L 138.693818 215.7445 
L 139.758545 211.52814 
L 140.823273 206.376778 
L 142.154182 198.711786 
L 143.485091 189.781522 
L 143.751273 185.387107 
L 145.348364 144.992791 
L 145.880727 134.990189 
L 146.413091 128.421333 
L 146.679273 126.706699 
L 146.945455 126.17348 
L 147.211636 126.918147 
L 147.477818 129.030729 
L 147.744 132.593986 
L 148.276364 144.369402 
L 148.808727 162.756706 
L 149.074909 173.133168 
L 149.607273 183.976118 
L 150.139636 190.56778 
L 150.672 193.878104 
L 150.938182 194.526255 
L 151.204364 194.66366 
L 151.470545 194.378221 
L 152.002909 192.820619 
L 152.801455 189.172267 
L 153.866182 184.330447 
L 154.398545 182.7083 
L 154.930909 181.930408 
L 155.197091 181.911026 
L 155.463273 182.150116 
L 155.729455 182.639225 
L 156.261818 184.382897 
L 156.794182 187.160212 
L 157.592727 192.939817 
L 158.657455 202.824607 
L 160.254545 218.700714 
L 161.053091 234.906562 
L 162.384 265.919177 
L 163.448727 260.960314 
L 164.247273 258.105124 
L 165.045818 255.861669 
L 165.844364 254.116324 
L 166.642909 252.797892 
L 167.441455 251.801472 
L 168.506182 250.867325 
L 169.570909 250.246851 
L 170.901818 249.732206 
L 173.563636 249.02902 
L 176.757818 248.207996 
L 177.024 247.994846 
L 177.556364 247.081313 
L 178.088727 245.771185 
L 178.621091 243.948255 
L 179.153455 241.485671 
L 179.952 236.326487 
L 180.750545 229.024823 
L 181.016727 226.038535 
L 181.282909 220.293674 
L 182.347636 184.588885 
L 183.146182 163.262291 
L 183.944727 146.941572 
L 184.477091 138.948972 
L 185.009455 133.318007 
L 185.541818 130.121465 
L 185.808 129.430345 
L 186.074182 129.342914 
L 186.340364 129.839353 
L 186.606545 130.974612 
L 187.138909 134.999055 
L 187.671273 141.380358 
L 188.203636 150.062166 
L 189.002182 167.191509 
L 189.800727 189.043228 
L 190.865455 224.635991 
L 192.196364 276.644127 
L 193.527273 250.570742 
L 195.124364 243.101683 
L 197.253818 231.980334 
L 200.448 213.868085 
L 204.174545 192.911016 
L 206.304 182.109333 
L 207.901091 174.917518 
L 209.498182 168.635408 
L 210.030545 166.777023 
L 210.296727 163.643825 
L 211.095273 149.721451 
L 211.893818 139.721115 
L 212.426182 135.345002 
L 212.958545 132.801659 
L 213.224727 132.282028 
L 213.490909 132.226726 
L 213.757091 132.643091 
L 214.023273 133.574293 
L 214.555636 137.006528 
L 215.088 142.481804 
L 215.620364 150.266117 
L 216.418909 166.260289 
L 217.217455 188.183515 
L 218.016 215.235122 
L 218.282182 217.19823 
L 219.080727 210.683508 
L 219.879273 202.239676 
L 220.944 188.440433 
L 222.541091 164.089034 
L 224.404364 135.883523 
L 225.202909 126.880699 
L 225.735273 123.073217 
L 226.001455 122.071262 
L 226.267636 121.788677 
L 226.533818 122.331604 
L 226.8 123.81597 
L 227.332364 123.984528 
L 227.864727 124.380475 
L 228.397091 125.101511 
L 228.929455 126.171303 
L 229.461818 127.703123 
L 229.994182 129.828205 
L 230.526545 132.673533 
L 231.325091 138.668774 
L 232.123636 147.331726 
L 232.922182 159.359426 
L 233.720727 175.30897 
L 234.519273 187.285388 
L 235.051636 192.959138 
L 235.584 196.820957 
L 236.116364 198.975288 
L 236.382545 199.452468 
L 236.648727 199.533622 
L 236.914909 199.28312 
L 237.181091 198.730448 
L 237.713455 196.845457 
L 238.512 192.548154 
L 240.641455 179.632739 
L 241.173818 177.509974 
L 241.706182 176.23272 
L 241.972364 175.951073 
L 242.238545 175.921509 
L 242.504727 176.149565 
L 242.770909 176.636541 
L 243.303273 178.368344 
L 243.569455 180.307277 
L 244.101818 188.905262 
L 244.634182 203.323671 
L 245.166545 224.805172 
L 245.698909 254.357122 
L 246.231273 293.340304 
L 246.497455 290.496481 
L 247.296 233.826105 
L 248.094545 195.880713 
L 248.626909 179.087766 
L 249.159273 167.969656 
L 249.691636 161.335297 
L 250.224 158.141125 
L 250.490182 157.513576 
L 250.756364 157.346897 
L 251.022545 157.526357 
L 251.554909 158.491953 
L 252.087273 159.506811 
L 252.353455 159.782567 
L 252.619636 159.803248 
L 252.885818 159.443011 
L 253.152 158.674766 
L 253.418182 157.410047 
L 253.950545 153.179423 
L 254.482909 146.374171 
L 255.015273 136.758212 
L 255.813818 116.929345 
L 256.346182 100.184765 
L 256.612364 97.456098 
L 257.410909 113.591633 
L 258.209455 124.022046 
L 258.741818 128.610273 
L 259.274182 131.694648 
L 259.806545 133.67942 
L 260.605091 135.523198 
L 260.871273 135.515754 
L 261.137455 135.127392 
L 261.403636 134.307356 
L 261.936 131.594331 
L 262.468364 127.467606 
L 263.266909 119.031744 
L 264.331636 104.626239 
L 267.259636 62.151407 
L 268.058182 54.119446 
L 268.590545 50.47708 
L 269.122909 48.416816 
L 269.389091 48.018517 
L 269.655273 48.29789 
L 269.921455 51.001626 
L 270.986182 67.846313 
L 274.180364 121.130527 
L 275.245091 135.200584 
L 276.309818 146.307422 
L 276.842182 150.418189 
L 278.439273 159.990047 
L 279.770182 167.843602 
L 280.568727 171.414022 
L 281.101091 172.8983 
L 281.367273 173.271801 
L 281.633455 173.351296 
L 281.899636 173.098564 
L 282.165818 172.47378 
L 282.432 171.435441 
L 282.964364 167.944235 
L 283.496727 162.108019 
L 284.029091 153.625791 
L 284.561455 141.843493 
L 285.093818 126.325499 
L 286.158545 91.409997 
L 286.424727 92.609336 
L 286.957091 96.953742 
L 287.489455 103.731097 
L 288.288 117.647941 
L 289.885091 152.219042 
L 290.683636 168.003382 
L 291.216 175.902021 
L 291.748364 180.453942 
L 292.014545 181.103402 
L 292.280727 180.45647 
L 292.546909 178.346496 
L 292.813091 174.599389 
L 293.345455 161.470024 
L 293.877818 146.209669 
L 294.676364 115.348244 
L 295.474909 75.573199 
L 295.741091 60.522606 
L 296.007273 52.227107 
L 296.539636 51.04406 
L 297.072 50.327395 
L 297.604364 50.026094 
L 298.136727 50.068897 
L 298.669091 50.3959 
L 299.467636 51.310196 
L 300.266182 52.611291 
L 301.597091 55.293855 
L 305.323636 63.212878 
L 306.654545 65.443192 
L 307.719273 66.855928 
L 308.784 67.899719 
L 309.582545 68.439434 
L 309.848727 68.571036 
L 310.114909 68.861452 
L 310.913455 70.569045 
L 311.712 72.80417 
L 312.776727 76.604016 
L 313.841455 81.335362 
L 315.172364 88.501413 
L 316.503273 96.915259 
L 318.366545 110.280221 
L 320.229818 124.573488 
L 320.496 128.050088 
L 321.294545 149.095008 
L 322.093091 165.733478 
L 322.891636 178.535287 
L 323.690182 188.114887 
L 324.488727 195.028075 
L 325.287273 199.854401 
L 326.085818 203.070228 
L 326.618182 204.528619 
L 327.150545 207.50397 
L 327.682909 209.299397 
L 327.949091 209.767009 
L 328.215273 209.959215 
L 328.481455 209.887471 
L 328.747636 209.565445 
L 329.28 208.233758 
L 329.812364 206.080068 
L 330.610909 201.756799 
L 333.272727 185.951901 
L 333.805091 184.063636 
L 334.337455 183.013683 
L 334.603636 182.841456 
L 334.869818 182.922557 
L 335.136 183.26802 
L 335.668364 184.784584 
L 336.200727 187.430271 
L 336.733091 191.199674 
L 337.531636 198.825006 
L 338.862545 213.771086 
L 339.394909 216.036469 
L 339.927273 217.462066 
L 340.459636 218.156179 
L 340.992 218.362641 
L 341.524364 218.255162 
L 343.121455 217.243639 
L 343.387636 216.683848 
L 343.92 214.15678 
L 344.718545 208.721102 
L 345.783273 199.207751 
L 347.380364 182.007436 
L 352.970182 118.519733 
L 354.567273 103.556184 
L 355.898182 93.252265 
L 356.962909 86.82528 
L 357.761455 83.331722 
L 358.293818 81.754852 
L 358.826182 80.877372 
L 359.092364 80.737747 
L 359.358545 80.791381 
L 359.624727 81.051618 
L 359.890909 81.548443 
L 360.423273 81.991019 
L 360.955636 82.656402 
L 361.488 83.779933 
L 362.020364 85.481049 
L 362.552727 87.940016 
L 362.818909 89.575787 
L 363.085091 93.549966 
L 365.214545 143.21757 
L 366.279273 163.032919 
L 367.077818 174.245182 
L 367.876364 181.847981 
L 368.408727 184.92636 
L 368.674909 185.872248 
L 368.941091 186.399376 
L 369.207273 186.567617 
L 369.473455 186.392889 
L 369.739636 185.893158 
L 370.272 183.910291 
L 370.804364 180.900311 
L 371.602909 174.899645 
L 373.998545 154.885156 
L 374.530909 151.836631 
L 375.063273 149.821487 
L 375.329455 149.309177 
L 375.595636 149.125661 
L 375.861818 149.290286 
L 376.128 149.826543 
L 376.394182 150.799336 
L 376.660364 152.428436 
L 376.926545 154.933506 
L 377.192727 158.913707 
L 377.991273 175.017896 
L 378.523636 182.293349 
L 379.056 187.375926 
L 379.588364 190.605105 
L 380.120727 192.439806 
L 380.386909 192.92802 
L 380.653091 193.175028 
L 380.919273 193.21151 
L 381.185455 193.065687 
L 381.717818 192.323654 
L 382.516364 190.314039 
L 383.314909 187.66327 
L 384.912 181.480862 
L 388.904727 165.524084 
L 391.034182 156.710447 
L 392.365091 150.436413 
L 393.163636 146.193166 
L 398.487273 77.116062 
L 398.753455 78.102075 
L 399.818182 120.493199 
L 400.882909 154.267684 
L 401.947636 180.199964 
L 402.746182 194.896877 
L 403.544727 205.928926 
L 404.343273 213.605285 
L 404.875636 217.011106 
L 405.408 219.104596 
L 405.674182 219.709374 
L 405.940364 220.035719 
L 406.206545 220.095735 
L 406.472727 219.901703 
L 406.738909 219.466123 
L 407.271273 217.909066 
L 407.803636 215.514442 
L 408.602182 210.652354 
L 409.933091 200.946718 
L 410.465455 199.51668 
L 411.264 196.612784 
L 412.062545 192.866608 
L 413.127273 186.805716 
L 415.256727 174.028591 
L 415.522909 173.518704 
L 416.055273 175.895631 
L 416.853818 180.706296 
L 417.918545 188.751882 
L 418.983273 198.686742 
L 420.314182 213.691943 
L 421.645091 231.272448 
L 423.508364 259.223235 
L 426.436364 306.760079 
L 426.436364 306.760079 
" clip-path="url(#p16e23aee78)" style="fill: none; stroke: #0000ff; stroke-width: 3; stroke-linecap: square"/>
   </g>
   <g id="patch_3">
    <path d="M 7.2 331.2 
L 7.2 7.2 
" style="fill: none; stroke: #000000; stroke-width: 0.8; stroke-linejoin: miter; stroke-linecap: square"/>
   </g>
   <g id="patch_4">
    <path d="M 446.4 331.2 
L 446.4 7.2 
" style="fill: none; stroke: #000000; stroke-width: 0.8; stroke-linejoin: miter; stroke-linecap: square"/>
   </g>
   <g id="patch_5">
    <path d="M 7.2 331.2 
L 446.4 331.2 
" style="fill: none; stroke: #000000; stroke-width: 0.8; stroke-linejoin: miter; stroke-linecap: square"/>
   </g>
   <g id="patch_6">
    <path d="M 7.2 7.2 
L 446.4 7.2 
" style="fill: none; stroke: #000000; stroke-width: 0.8; stroke-linejoin: miter; stroke-linecap: square"/>
   </g>
  </g>
 </g>
 <defs>
  <clipPath id="p16e23aee78">
   <rect x="7.2" y="7.2" width="439.2" height="324"/>
  </clipPath>
 </defs>
</svg>
