<?xml version="1.0" encoding="utf-8" standalone="no"?>
<!DOCTYPE svg PUBLIC "-//W3C//DTD SVG 1.1//EN"
  "http://www.w3.org/Graphics/SVG/1.1/DTD/svg11.dtd">
<svg xmlns:xlink="http://www.w3.org/1999/xlink" width="453.6pt" height="338.4pt" viewBox="0 0 453.6 338.4" xmlns="http://www.w3.org/2000/svg" version="1.1">
 <metadata>
  <rdf:RDF xmlns:dc="http://purl.org/dc/elements/1.1/" xmlns:cc="http://creativecommons.org/ns#" xmlns:rdf="http://www.w3.org/1999/02/22-rdf-syntax-ns#">
   <cc:Work>
    <dc:type rdf:resource="http://purl.org/dc/dcmitype/StillImage"/>
    <dc:date>2025-05-14T16:06:40.031747</dc:date>
    <dc:format>image/svg+xml</dc:format>
    <dc:creator>
     <cc:Agent>
      <dc:title>Matplotlib v3.10.1, https://matplotlib.org/</dc:title>
     </cc:Agent>
    </dc:creator>
   </cc:Work>
  </rdf:RDF>
 </metadata>
 <defs>
  <style type="text/css">*{stroke-linejoin: round; stroke-linecap: butt}</style>
 </defs>
 <g id="figure_1">
  <g id="patch_1">
   <path d="M 0 338.4 
L 453.6 338.4 
L 453.6 0 
L 0 0 
z
" style="fill: #ffffff"/>
  </g>
  <g id="axes_1">
   <g id="patch_2">
    <path d="M 7.2 331.2 
L 446.4 331.2 
L 446.4 7.2 
L 7.2 7.2 
z
" style="fill: #ffffff"/>
   </g>
   <g id="matplotlib.axis_1"/>
   <g id="matplotlib.axis_2"/>
   <g id="line2d_1">
    <path d="M 27.163636 316.472595 
L 31.422545 304.233542 
L 35.681455 291.320918 
L 39.940364 277.697789 
L 44.199273 263.325066 
L 48.458182 248.161494 
L 52.717091 232.163595 
L 56.976 215.28543 
L 61.234909 197.478554 
L 65.493818 178.691889 
L 69.752727 158.871554 
L 74.011636 137.960589 
L 77.205818 121.975388 
L 80.932364 115.26515 
L 84.658909 109.004266 
L 88.385455 103.16266 
L 92.112 97.712279 
L 96.104727 92.276978 
L 100.097455 87.230725 
L 104.090182 82.545657 
L 108.082909 78.195914 
L 112.075636 74.157548 
L 116.334545 70.168025 
L 120.593455 66.482365 
L 124.852364 63.077396 
L 129.377455 59.743336 
L 133.902545 56.678396 
L 138.693818 53.702414 
L 143.485091 50.98019 
L 148.542545 48.358143 
L 153.866182 45.851984 
L 159.456 43.474443 
L 165.312 41.235069 
L 171.434182 39.140641 
L 177.822545 37.195107 
L 184.477091 35.399925 
L 191.664 33.69514 
L 199.383273 32.100925 
L 207.634909 30.631815 
L 216.418909 29.296889 
L 226.001455 28.06902 
L 236.382545 26.963993 
L 247.828364 25.969114 
L 260.605091 25.082171 
L 275.245091 24.294034 
L 292.014545 23.619276 
L 311.978182 23.047521 
L 336.200727 22.586318 
L 367.077818 22.232295 
L 408.602182 21.986771 
L 426.436364 21.927273 
L 426.436364 21.927273 
" clip-path="url(#p4204b24c8e)" style="fill: none; stroke-dasharray: 11.1,4.8; stroke-dashoffset: 0; stroke: #000000; stroke-width: 3"/>
   </g>
   <g id="line2d_2">
    <path d="M 27.163636 286.187811 
L 29.026909 288.691279 
L 29.825455 289.400814 
L 30.624 289.748538 
L 31.156364 289.773705 
L 31.954909 289.544001 
L 33.019636 288.902953 
L 36.746182 286.113715 
L 37.810909 284.996407 
L 38.875636 283.498253 
L 40.206545 281.164234 
L 42.868364 276.365324 
L 46.328727 270.72397 
L 47.659636 267.831525 
L 49.789091 262.439922 
L 51.918545 257.298365 
L 55.378909 249.344397 
L 56.976 245.584013 
L 57.774545 244.316898 
L 58.306909 243.912125 
L 58.573091 243.869783 
L 58.839273 243.941918 
L 59.371636 244.436618 
L 59.904 245.380071 
L 60.702545 247.483879 
L 63.098182 254.782633 
L 63.630545 255.822044 
L 64.162909 256.504233 
L 64.695273 256.831332 
L 65.227636 256.833676 
L 65.76 256.558359 
L 66.558545 255.73827 
L 67.357091 254.563395 
L 68.421818 252.614266 
L 69.752727 249.713193 
L 71.616 245.007368 
L 74.277818 238.158625 
L 75.342545 235.919673 
L 76.407273 234.200922 
L 77.205818 233.267885 
L 78.270545 232.40179 
L 81.198545 230.383986 
L 82.263273 229.173963 
L 83.328 227.595654 
L 84.658909 225.182175 
L 86.788364 220.72863 
L 90.248727 213.467732 
L 91.579636 211.146318 
L 92.644364 209.740104 
L 93.442909 209.008718 
L 94.241455 208.535963 
L 95.306182 208.174163 
L 96.903273 207.666479 
L 97.968 207.028993 
L 99.032727 206.059009 
L 100.363636 204.447501 
L 101.960727 202.082925 
L 103.557818 199.278915 
L 105.154909 195.96925 
L 107.284364 190.899567 
L 109.413818 185.881483 
L 110.744727 183.299929 
L 111.809455 181.661112 
L 113.140364 180.052983 
L 115.269818 177.940726 
L 118.996364 174.494956 
L 121.924364 172.180687 
L 124.852364 169.779269 
L 128.578909 166.670948 
L 129.909818 165.844399 
L 131.240727 165.301383 
L 132.305455 165.091849 
L 133.636364 165.09155 
L 134.967273 165.333757 
L 136.298182 165.785304 
L 137.629091 166.465891 
L 138.693818 167.220161 
L 139.758545 168.209492 
L 140.823273 169.477521 
L 141.888 171.058569 
L 143.218909 173.497434 
L 144.549818 176.41642 
L 146.413091 181.085143 
L 152.002909 195.480931 
L 154.132364 200.179982 
L 156.261818 204.300247 
L 159.189818 209.428603 
L 161.851636 213.73349 
L 163.448727 215.933116 
L 164.779636 217.405903 
L 166.110545 218.520095 
L 167.441455 219.336453 
L 170.369455 220.942457 
L 171.434182 221.871246 
L 172.232727 222.825745 
L 173.297455 224.5222 
L 174.362182 226.737503 
L 175.693091 230.167912 
L 178.088727 237.291073 
L 179.685818 241.662542 
L 180.750545 243.952249 
L 181.549091 245.214537 
L 182.347636 246.034244 
L 182.88 246.323795 
L 183.412364 246.407806 
L 183.944727 246.292352 
L 184.477091 245.988936 
L 185.275636 245.218707 
L 186.340364 243.721692 
L 187.671273 241.383748 
L 191.930182 233.581704 
L 193.261091 231.63423 
L 194.059636 230.791397 
L 194.858182 230.302806 
L 195.390545 230.206343 
L 195.922909 230.301884 
L 196.455273 230.58346 
L 197.253818 231.312327 
L 198.318545 232.690775 
L 201.246545 236.752315 
L 202.311273 237.83113 
L 203.376 238.644048 
L 204.706909 239.341427 
L 206.037818 239.771942 
L 208.433455 240.233988 
L 210.030545 240.65281 
L 211.095273 241.131298 
L 212.16 241.829397 
L 213.490909 243.007867 
L 217.749818 247.232284 
L 218.814545 247.8119 
L 219.613091 248.010299 
L 220.411636 247.994025 
L 221.210182 247.7739 
L 222.274909 247.222431 
L 226.001455 244.916155 
L 227.066182 244.694564 
L 227.864727 244.737836 
L 228.663273 244.959356 
L 229.728 245.500401 
L 231.058909 246.460984 
L 235.051636 249.551618 
L 240.375273 252.875153 
L 242.238545 253.911579 
L 243.569455 254.431258 
L 245.166545 254.79742 
L 247.029818 254.98346 
L 249.691636 255.01794 
L 252.619636 254.835956 
L 260.072727 254.192198 
L 261.669818 254.375266 
L 263.000727 254.746823 
L 264.331636 255.336701 
L 266.194909 256.434973 
L 270.986182 259.361368 
L 276.842182 262.732879 
L 278.439273 263.310226 
L 280.302545 263.726982 
L 282.432 263.954322 
L 283.762909 263.915378 
L 284.827636 263.654571 
L 285.626182 263.24033 
L 286.424727 262.589603 
L 287.489455 261.345442 
L 289.086545 258.94944 
L 290.683636 256.663328 
L 291.748364 255.553898 
L 292.813091 254.837589 
L 293.877818 254.432166 
L 295.208727 254.178162 
L 297.870545 253.952116 
L 301.597091 253.86146 
L 304.791273 253.753897 
L 307.186909 253.391219 
L 309.316364 253.14494 
L 310.913455 253.214555 
L 313.042909 253.574525 
L 317.834182 254.425767 
L 323.424 255.436122 
L 330.344727 256.602873 
L 333.006545 256.775477 
L 335.934545 257.014229 
L 340.725818 257.543191 
L 344.718545 257.817688 
L 347.912727 258.095766 
L 349.776 258.0096 
L 354.301091 257.661156 
L 355.365818 257.85503 
L 356.430545 258.270925 
L 357.761455 259.077908 
L 360.689455 261.00557 
L 362.020364 261.513341 
L 363.085091 261.71185 
L 364.149818 261.693596 
L 364.948364 261.456556 
L 365.746909 260.921199 
L 366.545455 259.988526 
L 367.344 258.605271 
L 368.408727 256.131364 
L 371.070545 249.304043 
L 371.869091 247.809539 
L 372.667636 246.681465 
L 373.732364 245.617963 
L 375.063273 244.668462 
L 376.926545 243.622867 
L 378.523636 242.981299 
L 381.717818 242.084885 
L 384.912 241.263567 
L 386.242909 241.134563 
L 387.307636 241.198012 
L 388.372364 241.483819 
L 389.170909 241.905345 
L 389.969455 242.550776 
L 391.034182 243.784872 
L 392.365091 245.798169 
L 394.228364 248.693489 
L 395.293091 249.959305 
L 396.357818 250.82856 
L 397.422545 251.364633 
L 398.753455 251.727626 
L 400.084364 251.854132 
L 401.149091 251.768971 
L 402.213818 251.471941 
L 403.278545 250.949273 
L 404.875636 249.863461 
L 408.602182 247.012124 
L 409.400727 245.985793 
L 410.199273 244.575352 
L 411.264 242.111035 
L 413.127273 237.477696 
L 413.925818 236.15771 
L 414.458182 235.702493 
L 414.990545 235.632988 
L 415.522909 235.952021 
L 416.055273 236.631501 
L 416.853818 238.205509 
L 417.918545 240.957368 
L 420.048 246.588496 
L 420.846545 248.158215 
L 421.378909 248.903142 
L 421.911273 249.345564 
L 422.443636 249.435127 
L 422.976 249.130447 
L 423.508364 248.407286 
L 424.040727 247.26676 
L 424.839273 244.853286 
L 425.904 240.737528 
L 426.436364 238.539316 
L 426.436364 238.539316 
" clip-path="url(#p4204b24c8e)" style="fill: none; stroke: #ffa500; stroke-width: 3; stroke-linecap: square"/>
   </g>
   <g id="patch_3">
    <path d="M 7.2 331.2 
L 7.2 7.2 
" style="fill: none; stroke: #000000; stroke-width: 0.8; stroke-linejoin: miter; stroke-linecap: square"/>
   </g>
   <g id="patch_4">
    <path d="M 446.4 331.2 
L 446.4 7.2 
" style="fill: none; stroke: #000000; stroke-width: 0.8; stroke-linejoin: miter; stroke-linecap: square"/>
   </g>
   <g id="patch_5">
    <path d="M 7.2 331.2 
L 446.4 331.2 
" style="fill: none; stroke: #000000; stroke-width: 0.8; stroke-linejoin: miter; stroke-linecap: square"/>
   </g>
   <g id="patch_6">
    <path d="M 7.2 7.2 
L 446.4 7.2 
" style="fill: none; stroke: #000000; stroke-width: 0.8; stroke-linejoin: miter; stroke-linecap: square"/>
   </g>
  </g>
 </g>
 <defs>
  <clipPath id="p4204b24c8e">
   <rect x="7.2" y="7.2" width="439.2" height="324"/>
  </clipPath>
 </defs>
</svg>
