<?xml version="1.0" encoding="utf-8" standalone="no"?>
<!DOCTYPE svg PUBLIC "-//W3C//DTD SVG 1.1//EN"
  "http://www.w3.org/Graphics/SVG/1.1/DTD/svg11.dtd">
<svg xmlns:xlink="http://www.w3.org/1999/xlink" width="453.6pt" height="338.4pt" viewBox="0 0 453.6 338.4" xmlns="http://www.w3.org/2000/svg" version="1.1">
 <metadata>
  <rdf:RDF xmlns:dc="http://purl.org/dc/elements/1.1/" xmlns:cc="http://creativecommons.org/ns#" xmlns:rdf="http://www.w3.org/1999/02/22-rdf-syntax-ns#">
   <cc:Work>
    <dc:type rdf:resource="http://purl.org/dc/dcmitype/StillImage"/>
    <dc:date>2025-05-14T16:10:42.535010</dc:date>
    <dc:format>image/svg+xml</dc:format>
    <dc:creator>
     <cc:Agent>
      <dc:title>Matplotlib v3.10.1, https://matplotlib.org/</dc:title>
     </cc:Agent>
    </dc:creator>
   </cc:Work>
  </rdf:RDF>
 </metadata>
 <defs>
  <style type="text/css">*{stroke-linejoin: round; stroke-linecap: butt}</style>
 </defs>
 <g id="figure_1">
  <g id="patch_1">
   <path d="M 0 338.4 
L 453.6 338.4 
L 453.6 0 
L 0 0 
z
" style="fill: #ffffff"/>
  </g>
  <g id="axes_1">
   <g id="patch_2">
    <path d="M 7.2 331.2 
L 446.4 331.2 
L 446.4 7.2 
L 7.2 7.2 
z
" style="fill: #ffffff"/>
   </g>
   <g id="matplotlib.axis_1"/>
   <g id="matplotlib.axis_2"/>
   <g id="line2d_1">
    <path d="M 27.163636 316.472689 
L 36.213818 314.637868 
L 44.731636 312.683868 
L 52.717091 310.626577 
L 60.436364 308.40558 
L 67.623273 306.109241 
L 74.544 303.667259 
L 81.198545 301.083932 
L 87.586909 298.365645 
L 93.709091 295.520987 
L 99.565091 292.560823 
L 105.421091 289.346374 
L 111.010909 286.020792 
L 116.334545 282.600853 
L 121.658182 278.914873 
L 126.715636 275.147915 
L 131.773091 271.103094 
L 136.564364 266.996272 
L 141.355636 262.60302 
L 146.146909 257.903301 
L 150.672 253.164094 
L 155.197091 248.113267 
L 159.722182 242.73035 
L 164.247273 236.993503 
L 168.772364 230.879442 
L 173.031273 224.75827 
L 177.290182 218.259033 
L 181.549091 211.358336 
L 185.808 204.031417 
L 190.066909 196.25195 
L 194.325818 187.991985 
L 198.584727 179.221808 
L 202.843636 169.90995 
L 206.836364 160.65838 
L 210.829091 150.872107 
L 214.821818 140.520206 
L 218.814545 129.570022 
L 222.807273 117.986952 
L 226.8 105.734409 
L 426.436364 316.472727 
L 426.436364 316.472727 
" clip-path="url(#p513c825c1a)" style="fill: none; stroke-dasharray: 11.1,4.8; stroke-dashoffset: 0; stroke: #000000; stroke-width: 3"/>
   </g>
   <g id="line2d_2">
    <path d="M 27.163636 292.336461 
L 28.494545 293.659848 
L 29.293091 294.200619 
L 30.091636 294.436889 
L 30.624 294.404349 
L 31.422545 294.075649 
L 32.221091 293.453345 
L 33.285818 292.294778 
L 37.278545 287.537988 
L 38.875636 286.251044 
L 40.206545 285.148907 
L 41.005091 284.234272 
L 41.803636 282.995046 
L 42.602182 281.382928 
L 43.666909 278.723712 
L 46.594909 271.019833 
L 47.659636 269.001787 
L 48.724364 267.5017 
L 49.789091 266.365822 
L 51.386182 264.998469 
L 54.048 263.047141 
L 56.709818 261.414412 
L 59.105455 259.893661 
L 61.234909 258.213946 
L 63.630545 256.333572 
L 65.227636 255.361363 
L 72.680727 251.55173 
L 76.939636 249.450621 
L 79.867636 247.908618 
L 81.464727 247.33627 
L 83.594182 246.846634 
L 87.853091 245.918882 
L 90.248727 245.167249 
L 92.378182 244.285195 
L 94.773818 243.044559 
L 96.903273 241.711305 
L 99.298909 239.926648 
L 105.953455 234.715409 
L 110.212364 231.876182 
L 116.866909 227.533426 
L 120.061091 225.457264 
L 122.722909 224.001305 
L 125.384727 222.536427 
L 126.715636 221.521358 
L 127.780364 220.429682 
L 128.845091 219.037961 
L 130.176 216.896964 
L 132.039273 213.406829 
L 135.499636 206.864368 
L 137.362909 203.834831 
L 138.96 201.621756 
L 140.823273 199.436158 
L 145.880727 193.817122 
L 148.010182 191.43786 
L 149.607273 190.005321 
L 151.204364 188.897441 
L 153.067636 187.885567 
L 155.463273 186.846718 
L 161.319273 184.640728 
L 166.376727 182.896969 
L 168.772364 181.671426 
L 175.160727 178.017789 
L 182.347636 173.808435 
L 185.808 171.953755 
L 187.937455 171.092584 
L 192.196364 169.505225 
L 195.390545 168.191585 
L 197.52 167.630293 
L 199.649455 167.035645 
L 201.512727 166.26431 
L 205.505455 164.499096 
L 207.634909 163.847776 
L 210.296727 163.276179 
L 213.757091 162.771242 
L 219.346909 162.224171 
L 223.339636 161.946659 
L 225.202909 162.051892 
L 226.533818 162.317939 
L 227.864727 162.794803 
L 229.195636 163.512626 
L 230.526545 164.473288 
L 232.123636 165.902492 
L 234.253091 168.126592 
L 237.713455 172.10451 
L 241.173818 176.033149 
L 242.770909 177.555778 
L 244.368 178.77357 
L 245.965091 179.693334 
L 247.828364 180.488045 
L 250.756364 181.452675 
L 257.144727 183.526273 
L 261.137455 185.080855 
L 263.533091 186.226894 
L 265.928727 187.627446 
L 270.187636 190.460915 
L 281.367273 197.886939 
L 285.626182 200.28848 
L 289.885091 202.451782 
L 294.676364 204.930992 
L 299.201455 207.238835 
L 303.726545 209.503024 
L 305.589818 210.698475 
L 307.719273 212.360536 
L 319.431273 222.141323 
L 320.496 222.647215 
L 321.294545 222.80279 
L 322.093091 222.725666 
L 322.891636 222.418817 
L 323.956364 221.750704 
L 325.553455 220.722047 
L 326.352 220.459466 
L 327.150545 220.480007 
L 327.949091 220.811672 
L 328.747636 221.438957 
L 329.812364 222.659013 
L 331.143273 224.627528 
L 333.006545 227.856022 
L 337.531636 236.327075 
L 343.92 248.460271 
L 345.250909 250.335817 
L 346.848 252.18498 
L 348.445091 253.71077 
L 350.574545 255.419887 
L 357.229091 260.265397 
L 358.56 260.787402 
L 361.488 261.806518 
L 362.818909 262.559235 
L 364.682182 263.921461 
L 368.941091 267.197682 
L 373.732364 270.463448 
L 375.063273 271.761485 
L 376.394182 273.345746 
L 377.725091 275.320401 
L 379.056 277.797456 
L 380.919273 281.899438 
L 382.516364 285.237187 
L 383.581091 286.991257 
L 384.645818 288.296836 
L 385.710545 289.237181 
L 387.041455 290.088048 
L 388.372364 290.708919 
L 389.703273 291.086833 
L 390.768 291.177048 
L 392.365091 291.04043 
L 393.962182 290.910728 
L 395.026909 291.006342 
L 396.357818 291.362855 
L 401.149091 292.954433 
L 405.674182 294.111021 
L 408.069818 295.041569 
L 410.465455 295.933593 
L 412.062545 296.2782 
L 413.925818 296.413996 
L 421.112727 296.455854 
L 422.443636 296.235986 
L 423.508364 295.814908 
L 424.573091 295.12091 
L 425.904 293.942845 
L 426.436364 293.430653 
L 426.436364 293.430653 
" clip-path="url(#p513c825c1a)" style="fill: none; stroke: #ffa500; stroke-width: 3; stroke-linecap: square"/>
   </g>
   <g id="patch_3">
    <path d="M 7.2 331.2 
L 7.2 7.2 
" style="fill: none; stroke: #000000; stroke-width: 0.8; stroke-linejoin: miter; stroke-linecap: square"/>
   </g>
   <g id="patch_4">
    <path d="M 446.4 331.2 
L 446.4 7.2 
" style="fill: none; stroke: #000000; stroke-width: 0.8; stroke-linejoin: miter; stroke-linecap: square"/>
   </g>
   <g id="patch_5">
    <path d="M 7.2 331.2 
L 446.4 331.2 
" style="fill: none; stroke: #000000; stroke-width: 0.8; stroke-linejoin: miter; stroke-linecap: square"/>
   </g>
   <g id="patch_6">
    <path d="M 7.2 7.2 
L 446.4 7.2 
" style="fill: none; stroke: #000000; stroke-width: 0.8; stroke-linejoin: miter; stroke-linecap: square"/>
   </g>
  </g>
 </g>
 <defs>
  <clipPath id="p513c825c1a">
   <rect x="7.2" y="7.2" width="439.2" height="324"/>
  </clipPath>
 </defs>
</svg>
