<?xml version="1.0" encoding="utf-8" standalone="no"?>
<!DOCTYPE svg PUBLIC "-//W3C//DTD SVG 1.1//EN"
  "http://www.w3.org/Graphics/SVG/1.1/DTD/svg11.dtd">
<svg xmlns:xlink="http://www.w3.org/1999/xlink" width="453.6pt" height="338.4pt" viewBox="0 0 453.6 338.4" xmlns="http://www.w3.org/2000/svg" version="1.1">
 <metadata>
  <rdf:RDF xmlns:dc="http://purl.org/dc/elements/1.1/" xmlns:cc="http://creativecommons.org/ns#" xmlns:rdf="http://www.w3.org/1999/02/22-rdf-syntax-ns#">
   <cc:Work>
    <dc:type rdf:resource="http://purl.org/dc/dcmitype/StillImage"/>
    <dc:date>2025-05-14T16:08:10.009877</dc:date>
    <dc:format>image/svg+xml</dc:format>
    <dc:creator>
     <cc:Agent>
      <dc:title>Matplotlib v3.10.1, https://matplotlib.org/</dc:title>
     </cc:Agent>
    </dc:creator>
   </cc:Work>
  </rdf:RDF>
 </metadata>
 <defs>
  <style type="text/css">*{stroke-linejoin: round; stroke-linecap: butt}</style>
 </defs>
 <g id="figure_1">
  <g id="patch_1">
   <path d="M 0 338.4 
L 453.6 338.4 
L 453.6 0 
L 0 0 
z
" style="fill: #ffffff"/>
  </g>
  <g id="axes_1">
   <g id="patch_2">
    <path d="M 7.2 331.2 
L 446.4 331.2 
L 446.4 7.2 
L 7.2 7.2 
z
" style="fill: #ffffff"/>
   </g>
   <g id="matplotlib.axis_1"/>
   <g id="matplotlib.axis_2"/>
   <g id="line2d_1">
    <path d="M 27.163636 316.472689 
L 36.213818 314.637868 
L 44.731636 312.683868 
L 52.717091 310.626577 
L 60.436364 308.40558 
L 67.623273 306.109241 
L 74.544 303.667259 
L 81.198545 301.083932 
L 87.586909 298.365645 
L 93.709091 295.520987 
L 99.565091 292.560823 
L 105.421091 289.346374 
L 111.010909 286.020792 
L 116.334545 282.600853 
L 121.658182 278.914873 
L 126.715636 275.147915 
L 131.773091 271.103094 
L 136.564364 266.996272 
L 141.355636 262.60302 
L 146.146909 257.903301 
L 150.672 253.164094 
L 155.197091 248.113267 
L 159.722182 242.73035 
L 164.247273 236.993503 
L 168.772364 230.879442 
L 173.031273 224.75827 
L 177.290182 218.259033 
L 181.549091 211.358336 
L 185.808 204.031417 
L 190.066909 196.25195 
L 194.325818 187.991985 
L 198.584727 179.221808 
L 202.843636 169.90995 
L 206.836364 160.65838 
L 210.829091 150.872107 
L 214.821818 140.520206 
L 218.814545 129.570022 
L 222.807273 117.986952 
L 226.8 105.734409 
L 426.436364 316.472727 
L 426.436364 316.472727 
" clip-path="url(#p38beeb8d3c)" style="fill: none; stroke-dasharray: 11.1,4.8; stroke-dashoffset: 0; stroke: #000000; stroke-width: 3"/>
   </g>
   <g id="line2d_2">
    <path d="M 27.163636 102.416167 
L 29.559273 131.101509 
L 31.156364 147.806272 
L 32.487273 159.681338 
L 33.552 167.680592 
L 34.616727 174.387678 
L 35.947636 180.890637 
L 37.012364 184.753457 
L 37.810909 186.984333 
L 38.609455 188.708842 
L 39.408 190.005804 
L 40.472727 191.159181 
L 41.537455 191.840716 
L 42.602182 192.161556 
L 44.731636 192.537234 
L 45.796364 192.220949 
L 46.594909 191.723317 
L 47.925818 190.430437 
L 48.990545 189.118457 
L 50.587636 186.885325 
L 53.249455 182.905343 
L 55.378909 180.099902 
L 56.709818 178.669312 
L 57.774545 177.817402 
L 58.839273 177.212641 
L 59.904 176.877562 
L 60.436364 176.824805 
L 61.234909 156.416818 
L 62.565818 114.189758 
L 64.961455 37.429571 
L 65.227636 31.913652 
L 65.493818 38.140038 
L 66.558545 77.513817 
L 67.623273 109.704252 
L 68.688 135.45364 
L 69.752727 155.555893 
L 70.817455 170.85173 
L 71.616 179.581905 
L 72.414545 186.353132 
L 73.213091 191.431953 
L 74.011636 195.062854 
L 74.544 196.797528 
L 75.076364 198.053232 
L 75.608727 198.875946 
L 76.141091 199.308655 
L 76.673455 199.39117 
L 76.939636 199.282102 
L 77.205818 198.847715 
L 77.472 197.488772 
L 78.004364 192.148451 
L 78.536727 183.529556 
L 79.069091 171.764858 
L 79.867636 148.507031 
L 80.666182 118.982358 
L 81.730909 70.712375 
L 82.795636 106.916877 
L 83.594182 125.41008 
L 84.392727 137.678231 
L 84.925091 143.066744 
L 85.457455 146.580352 
L 85.989818 148.586613 
L 86.256 149.108017 
L 86.522182 149.349188 
L 86.788364 149.338689 
L 87.054545 149.10347 
L 87.586909 148.058415 
L 88.119273 146.398785 
L 88.917818 143.098187 
L 92.378182 127.180912 
L 93.176727 124.927528 
L 93.709091 124.010862 
L 93.975273 123.708473 
L 94.241455 123.655769 
L 94.507636 123.856806 
L 94.773818 124.314393 
L 95.306182 126.004992 
L 95.838545 128.732131 
L 96.370909 132.503483 
L 97.169455 140.277578 
L 97.968 150.525125 
L 99.298909 170.539123 
L 99.831273 172.725265 
L 100.363636 174.282814 
L 100.896 175.26931 
L 101.162182 175.548306 
L 101.428364 175.663817 
L 101.694545 175.630627 
L 101.960727 175.453335 
L 102.493091 174.655692 
L 103.025455 173.247134 
L 103.557818 171.202697 
L 104.356364 166.894088 
L 105.154909 161.049007 
L 105.953455 153.632252 
L 107.018182 141.462504 
L 108.615273 119.841598 
L 109.946182 102.789782 
L 110.478545 98.372781 
L 111.010909 96.434112 
L 111.543273 95.223062 
L 111.809455 94.950343 
L 112.075636 94.952134 
L 112.341818 95.264056 
L 112.608 95.892167 
L 112.874182 96.86417 
L 113.672727 103.996671 
L 114.737455 115.711922 
L 116.068364 132.970322 
L 119.794909 183.426738 
L 120.593455 191.391126 
L 121.392 197.148505 
L 121.924364 199.483806 
L 122.190545 200.141025 
L 122.456727 200.441992 
L 122.722909 200.335777 
L 122.989091 199.826557 
L 123.255273 198.904852 
L 123.521455 196.342364 
L 124.32 181.47656 
L 124.852364 174.628945 
L 125.384727 169.753339 
L 125.917091 166.444455 
L 126.449455 164.273674 
L 126.981818 162.807321 
L 128.845091 159.401227 
L 129.643636 157.126583 
L 130.442182 153.892963 
L 131.240727 149.458107 
L 132.039273 143.652386 
L 132.837818 136.278469 
L 133.636364 127.103313 
L 134.434909 115.880779 
L 135.499636 97.148248 
L 136.564364 73.10663 
L 137.096727 58.64642 
L 137.362909 55.426809 
L 139.226182 121.050821 
L 140.823273 169.69248 
L 142.154182 203.994259 
L 143.218909 226.577776 
L 144.017455 240.178431 
L 144.816 249.913097 
L 145.614545 256.33298 
L 146.146909 259.157197 
L 146.679273 261.063967 
L 147.211636 262.197321 
L 147.744 262.740306 
L 148.276364 262.790653 
L 148.808727 262.481636 
L 149.341091 261.900769 
L 150.139636 260.684005 
L 150.405818 260.218487 
L 150.672 260.630625 
L 151.470545 264.604058 
L 152.002909 265.957989 
L 152.269091 266.192765 
L 152.535273 266.218081 
L 152.801455 266.064495 
L 153.067636 265.740796 
L 153.6 264.588121 
L 154.132364 263.003689 
L 155.197091 259.033539 
L 157.592727 249.427113 
L 158.657455 245.986258 
L 159.722182 243.417301 
L 160.254545 242.51849 
L 161.319273 228.84761 
L 162.650182 208.837737 
L 166.376727 150.387308 
L 167.175273 141.727183 
L 167.707636 137.74024 
L 168.24 135.728606 
L 168.506182 135.525129 
L 168.772364 136.00496 
L 169.038545 137.190711 
L 169.304727 139.0959 
L 169.837091 145.614897 
L 170.635636 159.527913 
L 172.498909 175.456197 
L 175.693091 203.493343 
L 176.757818 211.021177 
L 177.290182 213.65159 
L 178.088727 216.407785 
L 178.621091 217.53682 
L 179.153455 218.055257 
L 179.419636 218.084418 
L 179.685818 217.936577 
L 180.218182 217.146667 
L 180.484364 211.059397 
L 181.282909 187.762937 
L 182.081455 172.240414 
L 182.613818 165.655739 
L 183.146182 161.654277 
L 183.412364 160.501602 
L 183.678545 159.911342 
L 183.944727 159.786675 
L 184.210909 160.109009 
L 184.477091 160.850129 
L 185.009455 163.38106 
L 185.541818 167.071793 
L 186.606545 176.707933 
L 188.469818 194.238236 
L 189.002182 197.825422 
L 189.534545 200.168518 
L 189.800727 200.743205 
L 190.066909 200.891635 
L 190.333091 200.529177 
L 190.599273 199.618849 
L 191.131636 183.543891 
L 192.196364 149.813692 
L 193.261091 123.000973 
L 193.793455 114.0429 
L 194.592 105.467431 
L 195.390545 99.685288 
L 195.922909 97.356799 
L 196.455273 96.186638 
L 196.721455 96.027965 
L 196.987636 96.149384 
L 197.253818 96.547806 
L 197.786182 98.163633 
L 198.318545 100.851692 
L 198.850909 104.589441 
L 199.649455 112.118644 
L 200.448 121.899316 
L 201.512727 138.355956 
L 202.577455 158.640303 
L 203.642182 182.764875 
L 204.973091 218.469392 
L 205.505455 229.858491 
L 210.562909 253.227327 
L 213.757091 263.826833 
L 214.821818 266.589664 
L 215.620364 268.044233 
L 216.152727 268.600143 
L 216.685091 268.743978 
L 216.951273 268.637183 
L 217.483636 268.013961 
L 218.016 266.73324 
L 218.548364 264.709124 
L 219.080727 261.791016 
L 219.613091 257.867004 
L 220.411636 249.698551 
L 221.210182 238.286514 
L 221.476364 233.640105 
L 222.274909 208.292536 
L 223.073455 187.406983 
L 223.605818 177.517348 
L 224.138182 170.923166 
L 224.670545 167.640669 
L 224.936727 167.229431 
L 225.202909 167.649517 
L 225.469091 168.900578 
L 226.001455 173.789781 
L 226.533818 181.772981 
L 230.526545 260.338866 
L 232.389818 298.734728 
L 232.656 298.778528 
L 233.454545 291.412673 
L 234.253091 285.768479 
L 235.051636 281.48312 
L 235.850182 278.214338 
L 236.648727 275.683241 
L 237.979636 272.385369 
L 239.310545 269.153671 
L 240.109091 266.685443 
L 240.907636 263.407993 
L 241.706182 258.906243 
L 242.504727 252.675481 
L 243.569455 241.98908 
L 245.166545 236.348678 
L 246.763636 229.895913 
L 248.360727 222.472873 
L 249.691636 215.409746 
L 251.288727 205.64282 
L 252.619636 196.245357 
L 253.950545 185.468594 
L 254.482909 181.184213 
L 256.346182 174.075176 
L 258.475636 164.951908 
L 260.338909 156.775809 
L 261.137455 153.723562 
L 262.202182 148.28921 
L 263.799273 138.391543 
L 265.130182 130.614077 
L 265.662545 128.299001 
L 266.194909 126.785246 
L 266.461091 126.443285 
L 266.727273 126.403783 
L 266.993455 126.700818 
L 267.259636 127.405878 
L 267.792 130.18451 
L 268.324364 135.126215 
L 268.856727 142.614652 
L 269.389091 153.090079 
L 269.921455 167.009152 
L 270.72 195.38596 
L 271.518545 234.204223 
L 272.317091 283.257813 
L 272.583273 279.334424 
L 273.381818 252.683407 
L 273.914182 240.546393 
L 274.446545 232.250798 
L 274.978909 227.351376 
L 275.245091 225.958716 
L 275.511273 225.211582 
L 275.777455 225.005796 
L 276.043636 225.253436 
L 276.309818 225.881389 
L 276.842182 227.447883 
L 278.705455 228.229111 
L 280.036364 228.97829 
L 281.101091 229.76669 
L 282.165818 230.774078 
L 283.496727 232.377615 
L 286.424727 236.208026 
L 286.957091 236.468807 
L 287.223273 236.459204 
L 287.489455 236.306447 
L 287.755636 235.997667 
L 288.288 234.788689 
L 288.820364 232.528828 
L 289.352727 228.774804 
L 289.885091 223.054925 
L 290.417455 214.708328 
L 290.949818 202.943068 
L 291.748364 177.516365 
L 292.546909 154.988475 
L 293.079273 144.491629 
L 293.345455 140.581864 
L 294.676364 137.909588 
L 296.273455 134.776705 
L 297.072 133.689919 
L 297.604364 133.259105 
L 298.136727 133.059842 
L 298.669091 133.138968 
L 299.201455 133.445202 
L 300 134.252545 
L 301.330909 135.811138 
L 301.863273 136.110771 
L 302.129455 136.101221 
L 302.395636 135.949956 
L 302.661818 135.628062 
L 303.194182 134.348981 
L 303.726545 131.927163 
L 304.258909 128.089098 
L 304.791273 122.416682 
L 305.323636 114.581316 
L 305.856 104.023831 
L 306.654545 82.213562 
L 307.453091 52.491698 
L 307.719273 51.857671 
L 308.517818 61.573244 
L 309.316364 68.286027 
L 309.848727 71.544788 
L 310.381091 73.164302 
L 311.712 75.802554 
L 314.906182 81.757292 
L 316.237091 84.770845 
L 317.568 88.231292 
L 319.697455 94.555098 
L 323.424 105.849332 
L 324.754909 109.131654 
L 325.819636 111.224801 
L 326.618182 112.372104 
L 327.682909 128.445771 
L 329.013818 152.157033 
L 330.610909 185.076642 
L 332.208 222.632916 
L 333.538909 257.831496 
L 333.805091 255.351242 
L 334.869818 229.510912 
L 335.934545 208.507355 
L 336.999273 191.663151 
L 337.797818 181.602246 
L 338.596364 173.741914 
L 339.394909 168.306069 
L 339.927273 165.968873 
L 340.459636 164.799765 
L 340.725818 164.659631 
L 340.992 164.811615 
L 341.258182 165.260494 
L 341.790545 167.059784 
L 342.322909 170.054762 
L 342.855273 174.215056 
L 344.984727 195.151355 
L 346.315636 208.188822 
L 347.114182 214.262803 
L 347.646545 217.034851 
L 348.178909 218.459631 
L 348.445091 218.574475 
L 348.711273 218.208558 
L 348.977455 217.320158 
L 349.509818 213.885957 
L 350.042182 207.962469 
L 350.574545 199.015 
L 351.639273 173.965388 
L 352.704 152.648328 
L 353.502545 140.730583 
L 354.301091 132.435698 
L 354.833455 128.942508 
L 355.365818 127.077681 
L 355.632 126.807033 
L 355.898182 126.943129 
L 356.164364 127.47914 
L 356.696727 129.895884 
L 357.229091 134.012568 
L 357.761455 139.856596 
L 358.56 151.950115 
L 359.358545 168.036458 
L 360.955636 206.995979 
L 362.020364 239.586047 
L 363.085091 278.736708 
L 363.883636 312.229962 
L 365.746909 271.623027 
L 366.811636 253.576091 
L 367.876364 238.640413 
L 369.207273 223.268778 
L 370.538182 210.50935 
L 371.869091 199.684369 
L 373.2 190.670476 
L 374.264727 184.985981 
L 375.063273 181.830337 
L 375.595636 180.347823 
L 376.128 179.39946 
L 376.394182 179.144648 
L 376.660364 176.940791 
L 377.991273 153.486237 
L 379.056 131.010234 
L 379.854545 113.207976 
L 380.120727 117.612003 
L 380.919273 135.829801 
L 381.451636 144.115135 
L 381.984 149.693238 
L 382.516364 152.91104 
L 382.782545 153.748738 
L 383.048727 154.058448 
L 383.314909 153.937222 
L 383.581091 153.407672 
L 384.113455 151.194177 
L 384.645818 147.680095 
L 385.444364 140.528563 
L 386.775273 125.522177 
L 388.638545 104.448552 
L 389.437091 97.855854 
L 389.969455 95.032857 
L 390.235636 94.23596 
L 390.501818 93.855955 
L 390.768 94.01893 
L 391.034182 94.691686 
L 391.300364 96.016571 
L 391.566545 97.942863 
L 392.631273 147.074421 
L 393.163636 166.995283 
L 393.962182 183.912915 
L 394.760727 196.87302 
L 395.559273 206.778044 
L 396.357818 214.341499 
L 397.156364 220.050598 
L 397.954909 224.324191 
L 398.753455 227.424515 
L 399.552 229.598343 
L 400.350545 230.945269 
L 400.882909 231.46985 
L 401.415273 231.691367 
L 401.947636 231.662092 
L 402.48 231.392225 
L 403.012364 230.885551 
L 403.810909 229.765197 
L 404.875636 227.773587 
L 406.206545 225.184115 
L 406.738909 224.45567 
L 407.271273 224.1604 
L 407.537455 224.239605 
L 407.803636 224.688975 
L 408.336 229.831402 
L 409.666909 243.958438 
L 409.933091 245.763776 
L 411.264 250.533488 
L 412.062545 252.836331 
L 412.861091 254.600772 
L 413.393455 255.405065 
L 413.925818 255.889614 
L 414.458182 256.032724 
L 414.990545 255.772952 
L 415.522909 255.100687 
L 416.055273 254.000861 
L 416.587636 252.436083 
L 417.386182 249.146191 
L 418.184727 244.732442 
L 418.983273 239.088608 
L 420.048 229.700652 
L 421.112727 218.102264 
L 422.443636 200.711902 
L 423.774545 180.413212 
L 425.371636 152.971469 
L 426.436364 133.44162 
L 426.436364 133.44162 
" clip-path="url(#p38beeb8d3c)" style="fill: none; stroke: #ffa500; stroke-width: 3; stroke-linecap: square"/>
   </g>
   <g id="patch_3">
    <path d="M 7.2 331.2 
L 7.2 7.2 
" style="fill: none; stroke: #000000; stroke-width: 0.8; stroke-linejoin: miter; stroke-linecap: square"/>
   </g>
   <g id="patch_4">
    <path d="M 446.4 331.2 
L 446.4 7.2 
" style="fill: none; stroke: #000000; stroke-width: 0.8; stroke-linejoin: miter; stroke-linecap: square"/>
   </g>
   <g id="patch_5">
    <path d="M 7.2 331.2 
L 446.4 331.2 
" style="fill: none; stroke: #000000; stroke-width: 0.8; stroke-linejoin: miter; stroke-linecap: square"/>
   </g>
   <g id="patch_6">
    <path d="M 7.2 7.2 
L 446.4 7.2 
" style="fill: none; stroke: #000000; stroke-width: 0.8; stroke-linejoin: miter; stroke-linecap: square"/>
   </g>
  </g>
 </g>
 <defs>
  <clipPath id="p38beeb8d3c">
   <rect x="7.2" y="7.2" width="439.2" height="324"/>
  </clipPath>
 </defs>
</svg>
