<?xml version="1.0" encoding="utf-8" standalone="no"?>
<!DOCTYPE svg PUBLIC "-//W3C//DTD SVG 1.1//EN"
  "http://www.w3.org/Graphics/SVG/1.1/DTD/svg11.dtd">
<svg xmlns:xlink="http://www.w3.org/1999/xlink" width="453.6pt" height="338.4pt" viewBox="0 0 453.6 338.4" xmlns="http://www.w3.org/2000/svg" version="1.1">
 <metadata>
  <rdf:RDF xmlns:dc="http://purl.org/dc/elements/1.1/" xmlns:cc="http://creativecommons.org/ns#" xmlns:rdf="http://www.w3.org/1999/02/22-rdf-syntax-ns#">
   <cc:Work>
    <dc:type rdf:resource="http://purl.org/dc/dcmitype/StillImage"/>
    <dc:date>2025-05-14T16:12:02.324427</dc:date>
    <dc:format>image/svg+xml</dc:format>
    <dc:creator>
     <cc:Agent>
      <dc:title>Matplotlib v3.10.1, https://matplotlib.org/</dc:title>
     </cc:Agent>
    </dc:creator>
   </cc:Work>
  </rdf:RDF>
 </metadata>
 <defs>
  <style type="text/css">*{stroke-linejoin: round; stroke-linecap: butt}</style>
 </defs>
 <g id="figure_1">
  <g id="patch_1">
   <path d="M 0 338.4 
L 453.6 338.4 
L 453.6 0 
L 0 0 
z
" style="fill: #ffffff"/>
  </g>
  <g id="axes_1">
   <g id="patch_2">
    <path d="M 7.2 331.2 
L 446.4 331.2 
L 446.4 7.2 
L 7.2 7.2 
z
" style="fill: #ffffff"/>
   </g>
   <g id="matplotlib.axis_1"/>
   <g id="matplotlib.axis_2"/>
   <g id="line2d_1">
    <path d="M 27.163636 316.471356 
L 27.696 244.047712 
L 28.228364 192.598752 
L 28.760727 156.050629 
L 29.293091 130.087722 
L 29.825455 111.644308 
L 30.357818 98.54255 
L 30.890182 89.235388 
L 31.422545 82.6238 
L 31.954909 77.927074 
L 32.487273 74.590644 
L 33.019636 72.220529 
L 33.552 70.536847 
L 34.350545 68.879745 
L 35.149091 67.887587 
L 35.681455 67.458846 
L 38.875636 67.21074 
L 376.394182 42.019853 
L 376.660364 42.741767 
L 426.436364 316.472727 
L 426.436364 316.472727 
" clip-path="url(#p35acd6a865)" style="fill: none; stroke-dasharray: 11.1,4.8; stroke-dashoffset: 0; stroke: #000000; stroke-width: 3"/>
   </g>
   <g id="line2d_2">
    <path d="M 27.163636 252.248402 
L 28.494545 257.76846 
L 29.825455 262.445716 
L 31.156364 266.345198 
L 32.487273 269.530964 
L 33.818182 272.066384 
L 34.882909 273.668706 
L 35.947636 274.927114 
L 37.012364 275.873626 
L 38.077091 276.540308 
L 39.141818 276.959385 
L 40.206545 277.163279 
L 41.537455 277.165381 
L 42.868364 276.94706 
L 46.062545 276.286128 
L 49.522909 275.776926 
L 52.184727 275.586041 
L 54.580364 275.620052 
L 56.709818 275.847691 
L 58.839273 276.288379 
L 59.904 276.596321 
L 60.968727 277.22854 
L 61.767273 277.475166 
L 62.565818 277.476619 
L 63.364364 277.192427 
L 64.162909 276.58289 
L 64.961455 275.609088 
L 65.76 274.233176 
L 66.558545 272.418182 
L 67.357091 270.128452 
L 68.421818 266.277522 
L 69.486545 261.443463 
L 70.551273 255.544804 
L 71.616 248.511505 
L 72.946909 238.036407 
L 74.277818 225.587962 
L 75.608727 211.041551 
L 77.738182 186.171662 
L 79.867636 171.055865 
L 81.997091 157.548584 
L 83.860364 147.106022 
L 85.723636 137.992313 
L 87.320727 131.275176 
L 88.917818 125.605569 
L 90.248727 121.698367 
L 91.313455 119.126162 
L 92.378182 117.058489 
L 93.442909 115.501142 
L 94.241455 114.671116 
L 95.04 114.152556 
L 96.104727 115.222085 
L 97.169455 115.940786 
L 97.968 116.257326 
L 98.766545 116.38884 
L 99.565091 116.340472 
L 100.363636 116.11742 
L 101.428364 115.553898 
L 102.493091 114.701769 
L 103.557818 113.573954 
L 104.888727 111.795714 
L 106.219636 109.631464 
L 107.816727 106.558325 
L 109.413818 103.010061 
L 111.277091 98.323378 
L 112.874182 94.228464 
L 114.737455 90.566716 
L 116.334545 87.870563 
L 117.931636 85.571446 
L 119.528727 83.659181 
L 121.125818 82.124008 
L 122.456727 81.125688 
L 123.787636 80.376772 
L 125.118545 79.87238 
L 126.449455 79.606666 
L 127.780364 79.573344 
L 129.111273 79.76713 
L 129.643636 79.825382 
L 139.226182 76.270973 
L 145.348364 74.143135 
L 149.074909 73.065548 
L 151.470545 72.636069 
L 154.132364 72.387735 
L 157.060364 72.337998 
L 160.786909 72.518178 
L 164.779636 72.710367 
L 170.103273 72.290035 
L 176.225455 71.766735 
L 179.685818 71.246841 
L 181.282909 70.856565 
L 184.743273 68.597405 
L 186.872727 67.502157 
L 189.002182 66.634087 
L 191.131636 65.991 
L 193.261091 65.568965 
L 195.390545 65.364101 
L 197.52 65.378041 
L 198.318545 65.397721 
L 202.843636 63.859142 
L 205.771636 63.079941 
L 208.433455 62.605817 
L 210.562909 62.43301 
L 212.692364 62.480553 
L 214.555636 62.729465 
L 215.620364 63.032329 
L 218.282182 63.773467 
L 220.677818 64.228157 
L 223.073455 64.471066 
L 225.469091 64.491817 
L 227.864727 64.279228 
L 230.260364 63.821554 
L 232.656 63.335315 
L 241.972364 62.355482 
L 258.209455 60.698169 
L 264.597818 60.069075 
L 270.187636 60.016371 
L 274.978909 60.190161 
L 279.237818 60.555436 
L 280.834909 60.844764 
L 284.295273 61.815767 
L 289.086545 63.408086 
L 297.338182 66.182223 
L 300.266182 66.887652 
L 303.194182 67.368641 
L 306.122182 67.634127 
L 309.050182 67.691572 
L 317.035636 67.643345 
L 320.496 67.951088 
L 323.424 68.431674 
L 326.085818 69.083117 
L 328.215273 69.798378 
L 331.675636 71.074491 
L 334.869818 72.015841 
L 337.797818 72.645637 
L 340.459636 73.000168 
L 343.121455 73.123817 
L 344.452364 73.203435 
L 348.445091 73.748663 
L 364.948364 76.296008 
L 369.473455 76.507158 
L 373.998545 76.77842 
L 375.595636 76.968765 
L 375.861818 77.200824 
L 376.660364 79.079398 
L 378.523636 84.142769 
L 380.653091 90.678304 
L 383.048727 98.846028 
L 385.710545 108.73267 
L 389.170909 122.48236 
L 394.760727 145.734403 
L 398.753455 163.537591 
L 403.810909 185.900953 
L 406.472727 196.643288 
L 408.602182 204.337028 
L 409.134545 206.154304 
L 409.666909 209.01905 
L 411.264 217.763717 
L 413.127273 226.858273 
L 414.990545 234.785301 
L 416.587636 240.637089 
L 418.184727 245.613942 
L 419.515636 249.089032 
L 420.846545 251.94837 
L 421.911273 253.786192 
L 422.976 255.222423 
L 424.040727 256.256206 
L 424.839273 256.765812 
L 425.637818 257.046397 
L 426.436364 257.0967 
L 426.436364 257.0967 
" clip-path="url(#p35acd6a865)" style="fill: none; stroke: #0000ff; stroke-width: 3; stroke-linecap: square"/>
   </g>
   <g id="patch_3">
    <path d="M 7.2 331.2 
L 7.2 7.2 
" style="fill: none; stroke: #000000; stroke-width: 0.8; stroke-linejoin: miter; stroke-linecap: square"/>
   </g>
   <g id="patch_4">
    <path d="M 446.4 331.2 
L 446.4 7.2 
" style="fill: none; stroke: #000000; stroke-width: 0.8; stroke-linejoin: miter; stroke-linecap: square"/>
   </g>
   <g id="patch_5">
    <path d="M 7.2 331.2 
L 446.4 331.2 
" style="fill: none; stroke: #000000; stroke-width: 0.8; stroke-linejoin: miter; stroke-linecap: square"/>
   </g>
   <g id="patch_6">
    <path d="M 7.2 7.2 
L 446.4 7.2 
" style="fill: none; stroke: #000000; stroke-width: 0.8; stroke-linejoin: miter; stroke-linecap: square"/>
   </g>
  </g>
 </g>
 <defs>
  <clipPath id="p35acd6a865">
   <rect x="7.2" y="7.2" width="439.2" height="324"/>
  </clipPath>
 </defs>
</svg>
