<?xml version="1.0" encoding="utf-8" standalone="no"?>
<!DOCTYPE svg PUBLIC "-//W3C//DTD SVG 1.1//EN"
  "http://www.w3.org/Graphics/SVG/1.1/DTD/svg11.dtd">
<svg xmlns:xlink="http://www.w3.org/1999/xlink" width="453.6pt" height="338.4pt" viewBox="0 0 453.6 338.4" xmlns="http://www.w3.org/2000/svg" version="1.1">
 <metadata>
  <rdf:RDF xmlns:dc="http://purl.org/dc/elements/1.1/" xmlns:cc="http://creativecommons.org/ns#" xmlns:rdf="http://www.w3.org/1999/02/22-rdf-syntax-ns#">
   <cc:Work>
    <dc:type rdf:resource="http://purl.org/dc/dcmitype/StillImage"/>
    <dc:date>2025-05-14T16:02:59.410126</dc:date>
    <dc:format>image/svg+xml</dc:format>
    <dc:creator>
     <cc:Agent>
      <dc:title>Matplotlib v3.10.1, https://matplotlib.org/</dc:title>
     </cc:Agent>
    </dc:creator>
   </cc:Work>
  </rdf:RDF>
 </metadata>
 <defs>
  <style type="text/css">*{stroke-linejoin: round; stroke-linecap: butt}</style>
 </defs>
 <g id="figure_1">
  <g id="patch_1">
   <path d="M 0 338.4 
L 453.6 338.4 
L 453.6 0 
L 0 0 
z
" style="fill: #ffffff"/>
  </g>
  <g id="axes_1">
   <g id="patch_2">
    <path d="M 7.2 331.2 
L 446.4 331.2 
L 446.4 7.2 
L 7.2 7.2 
z
" style="fill: #ffffff"/>
   </g>
   <g id="matplotlib.axis_1"/>
   <g id="matplotlib.axis_2"/>
   <g id="line2d_1">
    <path d="M 27.163636 316.472674 
L 37.544727 314.031293 
L 47.393455 311.491805 
L 56.976 308.79257 
L 66.026182 306.017804 
L 74.810182 303.097021 
L 83.328 300.032791 
L 91.579636 296.828969 
L 99.565091 293.490784 
L 107.284364 290.024867 
L 114.737455 286.439305 
L 121.924364 282.743671 
L 129.111273 278.79822 
L 136.032 274.747044 
L 142.952727 270.432496 
L 149.607273 266.019573 
L 155.995636 261.524178 
L 162.384 256.759655 
L 168.772364 251.709925 
L 174.894545 246.587139 
L 181.016727 241.170826 
L 186.872727 235.699842 
L 192.728727 229.929366 
L 198.584727 223.842982 
L 204.440727 217.423433 
L 210.030545 210.968104 
L 215.620364 204.175905 
L 221.210182 197.029184 
L 226.8 189.509532 
L 232.123636 181.983349 
L 237.447273 174.083559 
L 242.770909 165.791607 
L 248.094545 157.087924 
L 253.418182 147.9522 
L 258.475636 139.200325 
L 263.000727 133.20375 
L 267.525818 127.585057 
L 272.050909 122.320456 
L 276.576 117.387634 
L 281.367273 112.503056 
L 286.158545 107.943779 
L 290.949818 103.688155 
L 296.007273 99.503212 
L 301.064727 95.611916 
L 306.122182 91.993638 
L 311.445818 88.458892 
L 316.769455 85.184716 
L 322.359273 82.006275 
L 328.215273 78.939545 
L 334.071273 76.120569 
L 340.193455 73.416638 
L 346.581818 70.837902 
L 353.236364 68.392155 
L 360.157091 66.085102 
L 367.344 63.920448 
L 375.063273 61.831637 
L 383.048727 59.901571 
L 391.566545 58.073084 
L 400.616727 56.360785 
L 410.199273 54.775032 
L 420.580364 53.286681 
L 426.436364 52.540136 
L 426.436364 52.540136 
" clip-path="url(#pa0e24c0391)" style="fill: none; stroke-dasharray: 11.1,4.8; stroke-dashoffset: 0; stroke: #000000; stroke-width: 3"/>
   </g>
   <g id="line2d_2">
    <path d="M 27.163636 188.047173 
L 29.559273 187.929651 
L 31.954909 188.025824 
L 34.350545 188.347631 
L 36.746182 188.906184 
L 39.141818 189.711964 
L 41.537455 190.775945 
L 43.933091 192.106237 
L 45.264 192.833716 
L 52.184727 195.942722 
L 56.976 198.333817 
L 60.968727 200.560409 
L 63.098182 201.702665 
L 66.558545 201.742816 
L 70.285091 201.561661 
L 74.011636 201.164214 
L 78.004364 200.514956 
L 80.932364 199.846817 
L 84.126545 198.428208 
L 87.853091 196.530735 
L 92.644364 193.828578 
L 97.701818 190.824391 
L 100.363636 187.728553 
L 103.025455 184.973174 
L 105.953455 182.268656 
L 109.147636 179.625181 
L 112.874182 176.830379 
L 116.334545 174.206471 
L 119.262545 171.616112 
L 122.456727 168.500856 
L 126.183273 164.552695 
L 129.643636 160.582256 
L 132.305455 157.595634 
L 134.701091 155.55958 
L 136.830545 154.029217 
L 138.96 152.762988 
L 141.089455 151.760332 
L 143.218909 151.020826 
L 145.348364 150.543646 
L 147.211636 150.340029 
L 148.010182 150.368891 
L 149.607273 151.002919 
L 151.470545 151.996639 
L 153.866182 153.556427 
L 161.053091 158.463757 
L 162.916364 159.368713 
L 163.981091 159.693434 
L 183.678545 162.159301 
L 189.534545 162.558373 
L 194.592 162.691502 
L 198.584727 162.804986 
L 205.239273 163.225774 
L 212.16 163.88259 
L 219.346909 164.94097 
L 232.123636 167.079781 
L 236.914909 168.196097 
L 244.368 170.056465 
L 263.533091 166.000684 
L 267.259636 164.678627 
L 271.784727 162.815379 
L 278.705455 159.912589 
L 282.432 159.402017 
L 286.690909 158.589864 
L 292.546909 157.220544 
L 296.007273 156.442942 
L 302.928 155.978842 
L 312.244364 155.592849 
L 313.841455 155.628963 
L 318.632727 155.769255 
L 322.891636 155.682228 
L 326.884364 155.380541 
L 344.984727 153.527933 
L 347.646545 153.429196 
L 350.574545 153.64096 
L 353.502545 154.082658 
L 356.164364 154.699621 
L 358.826182 155.535423 
L 361.488 156.606777 
L 364.682182 157.946303 
L 381.451636 162.408916 
L 390.235636 163.341453 
L 395.026909 163.632957 
L 398.221091 163.834802 
L 401.149091 164.275552 
L 404.609455 165.040303 
L 408.602182 166.165327 
L 411.796364 167.124778 
L 415.522909 166.245015 
L 417.652364 166.018504 
L 419.515636 166.042644 
L 421.378909 166.311518 
L 422.976 166.763417 
L 424.573091 167.442371 
L 426.170182 168.367832 
L 426.436364 168.547767 
L 426.436364 168.547767 
" clip-path="url(#pa0e24c0391)" style="fill: none; stroke: #ff0000; stroke-width: 3; stroke-linecap: square"/>
   </g>
   <g id="patch_3">
    <path d="M 7.2 331.2 
L 7.2 7.2 
" style="fill: none; stroke: #000000; stroke-width: 0.8; stroke-linejoin: miter; stroke-linecap: square"/>
   </g>
   <g id="patch_4">
    <path d="M 446.4 331.2 
L 446.4 7.2 
" style="fill: none; stroke: #000000; stroke-width: 0.8; stroke-linejoin: miter; stroke-linecap: square"/>
   </g>
   <g id="patch_5">
    <path d="M 7.2 331.2 
L 446.4 331.2 
" style="fill: none; stroke: #000000; stroke-width: 0.8; stroke-linejoin: miter; stroke-linecap: square"/>
   </g>
   <g id="patch_6">
    <path d="M 7.2 7.2 
L 446.4 7.2 
" style="fill: none; stroke: #000000; stroke-width: 0.8; stroke-linejoin: miter; stroke-linecap: square"/>
   </g>
  </g>
 </g>
 <defs>
  <clipPath id="pa0e24c0391">
   <rect x="7.2" y="7.2" width="439.2" height="324"/>
  </clipPath>
 </defs>
</svg>
