<?xml version="1.0" encoding="utf-8" standalone="no"?>
<!DOCTYPE svg PUBLIC "-//W3C//DTD SVG 1.1//EN"
  "http://www.w3.org/Graphics/SVG/1.1/DTD/svg11.dtd">
<svg xmlns:xlink="http://www.w3.org/1999/xlink" width="453.6pt" height="338.4pt" viewBox="0 0 453.6 338.4" xmlns="http://www.w3.org/2000/svg" version="1.1">
 <metadata>
  <rdf:RDF xmlns:dc="http://purl.org/dc/elements/1.1/" xmlns:cc="http://creativecommons.org/ns#" xmlns:rdf="http://www.w3.org/1999/02/22-rdf-syntax-ns#">
   <cc:Work>
    <dc:type rdf:resource="http://purl.org/dc/dcmitype/StillImage"/>
    <dc:date>2025-05-14T16:02:01.677593</dc:date>
    <dc:format>image/svg+xml</dc:format>
    <dc:creator>
     <cc:Agent>
      <dc:title>Matplotlib v3.10.1, https://matplotlib.org/</dc:title>
     </cc:Agent>
    </dc:creator>
   </cc:Work>
  </rdf:RDF>
 </metadata>
 <defs>
  <style type="text/css">*{stroke-linejoin: round; stroke-linecap: butt}</style>
 </defs>
 <g id="figure_1">
  <g id="patch_1">
   <path d="M 0 338.4 
L 453.6 338.4 
L 453.6 0 
L 0 0 
z
" style="fill: #ffffff"/>
  </g>
  <g id="axes_1">
   <g id="patch_2">
    <path d="M 7.2 331.2 
L 446.4 331.2 
L 446.4 7.2 
L 7.2 7.2 
z
" style="fill: #ffffff"/>
   </g>
   <g id="matplotlib.axis_1"/>
   <g id="matplotlib.axis_2"/>
   <g id="line2d_1">
    <path d="M 27.163636 21.927571 
L 207.901091 288.219235 
L 226.8 316.064193 
L 426.436364 21.927273 
L 426.436364 21.927273 
" clip-path="url(#pd3d30ca1a6)" style="fill: none; stroke-dasharray: 11.1,4.8; stroke-dashoffset: 0; stroke: #000000; stroke-width: 3"/>
   </g>
   <g id="line2d_2">
    <path d="M 27.163636 67.616044 
L 28.228364 77.85634 
L 29.293091 85.733947 
L 30.357818 91.832945 
L 31.422545 96.594014 
L 32.487273 100.298178 
L 33.552 103.186835 
L 34.616727 105.460953 
L 35.947636 107.615318 
L 37.012364 108.905248 
L 38.343273 110.160294 
L 39.674182 111.067339 
L 41.271273 111.89503 
L 43.400727 112.689188 
L 43.666909 112.781183 
L 43.933091 114.176643 
L 44.731636 120.592989 
L 45.530182 125.195683 
L 48.724364 141.326408 
L 49.789091 148.527501 
L 51.12 159.41471 
L 52.450909 172.354758 
L 53.781818 187.238373 
L 55.378909 207.880464 
L 56.709818 227.826387 
L 58.040727 251.071776 
L 59.105455 270.280257 
L 59.371636 272.494235 
L 60.436364 270.60216 
L 61.767273 262.782226 
L 63.098182 255.141839 
L 63.896727 251.437096 
L 64.695273 248.758978 
L 65.227636 247.649944 
L 65.76 247.159211 
L 66.026182 247.170034 
L 66.292364 247.354515 
L 66.558545 247.710329 
L 67.090909 249.030916 
L 67.623273 251.160572 
L 68.155636 254.184776 
L 68.954182 260.559706 
L 69.752727 269.39381 
L 70.551273 281.037067 
L 71.349818 295.919519 
L 71.616 301.672012 
L 74.277818 216.625816 
L 75.342545 192.519029 
L 76.141091 179.08824 
L 76.673455 172.63521 
L 77.205818 168.308527 
L 77.472 167.043896 
L 77.738182 166.497176 
L 78.004364 166.626496 
L 78.270545 167.390843 
L 78.802909 170.771998 
L 79.335273 176.285696 
L 80.133818 188.086674 
L 80.932364 203.383046 
L 82.263273 234.451222 
L 82.529455 230.578782 
L 83.328 206.693502 
L 84.126545 190.893282 
L 84.658909 183.866014 
L 85.191273 179.189645 
L 85.723636 176.419879 
L 85.989818 175.637852 
L 86.256 175.206424 
L 86.522182 175.089955 
L 86.788364 175.255081 
L 87.054545 175.69749 
L 87.586909 177.231769 
L 88.385455 180.764302 
L 89.450182 187.063556 
L 91.579636 201.797179 
L 93.709091 216.049057 
L 94.773818 221.612606 
L 96.104727 230.130052 
L 97.701818 242.08327 
L 101.960727 275.147511 
L 103.291636 283.096528 
L 104.356364 287.911096 
L 105.154909 290.578601 
L 105.953455 292.378135 
L 106.485818 293.138269 
L 106.752 292.717118 
L 108.082909 288.154241 
L 109.147636 285.167612 
L 110.212364 282.840496 
L 110.478545 281.457204 
L 112.341818 266.277755 
L 113.406545 258.898615 
L 114.471273 253.132049 
L 115.269818 250.174084 
L 115.802182 248.978225 
L 116.068364 248.621824 
L 116.334545 248.463177 
L 116.600727 248.473043 
L 116.866909 248.680208 
L 117.399273 249.673928 
L 117.931636 251.495422 
L 118.464 254.168919 
L 119.262545 259.79862 
L 120.061091 267.407357 
L 120.859636 276.968584 
L 121.392 284.391194 
L 121.658182 283.472522 
L 123.787636 198.649338 
L 124.852364 167.758243 
L 125.917091 143.820084 
L 126.981818 125.758783 
L 128.312727 104.098515 
L 129.377455 90.348193 
L 130.176 82.7478 
L 130.708364 79.13082 
L 131.240727 76.859073 
L 131.506909 76.207718 
L 131.773091 75.941723 
L 132.039273 76.032734 
L 132.305455 76.47352 
L 132.837818 78.567966 
L 133.370182 82.249956 
L 133.902545 87.574301 
L 134.701091 98.731263 
L 137.629091 147.853024 
L 139.226182 169.903778 
L 141.089455 192.517159 
L 143.485091 219.381607 
L 143.751273 220.900577 
L 144.816 221.178089 
L 145.880727 221.743313 
L 146.679273 222.393913 
L 147.477818 223.270086 
L 148.542545 224.838546 
L 149.607273 226.931263 
L 150.672 229.624378 
L 151.736727 233.010642 
L 152.002909 233.978739 
L 152.269091 233.970373 
L 152.535273 232.176017 
L 153.333818 218.683201 
L 155.197091 187.868143 
L 156.261818 173.941915 
L 157.060364 166.300932 
L 157.592727 162.76501 
L 158.125091 160.586873 
L 158.391273 159.994489 
L 158.657455 159.752879 
L 158.923636 159.830584 
L 159.189818 160.217225 
L 159.722182 161.817708 
L 160.254545 164.26953 
L 161.319273 169.824714 
L 161.851636 171.463425 
L 162.117818 171.788296 
L 162.384 171.690121 
L 162.650182 171.124703 
L 162.916364 170.077401 
L 163.448727 166.26294 
L 163.981091 159.998808 
L 164.513455 151.061416 
L 165.312 136.145076 
L 166.110545 127.034598 
L 166.642909 122.956748 
L 167.175273 120.294602 
L 167.707636 118.811518 
L 167.973818 118.471084 
L 168.24 118.359356 
L 168.506182 118.465168 
L 168.772364 118.793207 
L 169.304727 119.974306 
L 169.837091 121.765783 
L 170.635636 125.401793 
L 171.700364 131.494717 
L 173.563636 143.933989 
L 176.491636 163.6463 
L 176.757818 165.297468 
L 177.024 168.510003 
L 179.685818 216.001761 
L 180.218182 222.635119 
L 180.750545 227.027217 
L 181.282909 229.316854 
L 181.549091 229.718032 
L 181.815273 229.648053 
L 182.081455 229.125728 
L 182.347636 228.169902 
L 182.88 225.031621 
L 183.412364 220.368797 
L 184.210909 210.897984 
L 185.275636 194.41882 
L 186.606545 169.301247 
L 187.937455 141.172352 
L 188.469818 149.104506 
L 189.002182 155.62266 
L 189.534545 159.234495 
L 189.800727 160.166927 
L 190.066909 160.649408 
L 190.333091 160.717053 
L 190.599273 160.48315 
L 191.131636 159.266483 
L 192.196364 155.52675 
L 192.994909 152.939657 
L 193.527273 151.795866 
L 193.793455 151.400656 
L 194.059636 151.260346 
L 194.325818 151.449621 
L 194.592 151.933366 
L 194.858182 152.724979 
L 195.390545 155.363687 
L 195.922909 159.365816 
L 196.721455 167.965706 
L 197.52 179.786856 
L 198.318545 194.864793 
L 199.117091 213.400693 
L 200.181818 244.044446 
L 201.246545 282.635061 
L 201.778909 302.765541 
L 202.045091 300.503149 
L 203.376 243.516503 
L 204.440727 206.010387 
L 205.505455 175.96647 
L 206.304 159.000189 
L 206.836364 150.574932 
L 207.368727 144.652374 
L 207.901091 141.419825 
L 208.167273 140.866504 
L 208.433455 141.003618 
L 208.699636 141.852517 
L 208.965818 143.454527 
L 209.498182 148.751186 
L 210.829091 165.786831 
L 214.555636 202.754961 
L 215.886545 213.783095 
L 216.685091 219.460488 
L 216.951273 219.587569 
L 219.346909 214.141392 
L 220.677818 211.56162 
L 221.742545 209.921565 
L 222.541091 209.055277 
L 223.073455 208.710332 
L 223.605818 208.598691 
L 224.138182 208.768583 
L 224.670545 209.275714 
L 225.202909 210.199692 
L 225.735273 211.614904 
L 226.267636 213.604214 
L 227.066182 216.944436 
L 227.864727 219.352271 
L 228.663273 222.618915 
L 229.461818 226.888373 
L 230.260364 232.308215 
L 231.058909 239.029873 
L 232.123636 250.252767 
L 233.188364 264.197692 
L 234.519273 284.323504 
L 234.785455 282.129357 
L 236.648727 239.921469 
L 237.979636 214.590877 
L 239.044364 197.973106 
L 240.109091 184.862736 
L 240.907636 177.330268 
L 241.706182 171.761522 
L 242.238545 169.100631 
L 242.770909 167.31435 
L 243.303273 166.370016 
L 243.569455 163.972531 
L 244.634182 147.666489 
L 245.432727 138.105042 
L 246.231273 130.953106 
L 246.763636 127.601455 
L 247.296 125.513557 
L 247.562182 124.942311 
L 247.828364 124.697471 
L 248.094545 124.788044 
L 248.360727 125.223685 
L 248.626909 126.014683 
L 249.159273 128.777111 
L 249.691636 133.123694 
L 250.224 139.141898 
L 251.022545 151.699552 
L 251.821091 168.794099 
L 252.619636 191.115422 
L 252.885818 185.949628 
L 253.684364 163.296421 
L 254.216727 152.460968 
L 254.749091 144.877534 
L 255.281455 140.553423 
L 255.547636 139.472535 
L 255.813818 139.218601 
L 256.08 139.634035 
L 256.346182 140.740134 
L 256.878545 144.955062 
L 257.410909 151.666511 
L 258.209455 165.787025 
L 259.274182 190.473819 
L 260.072727 211.599586 
L 260.871273 214.454544 
L 261.936 219.301331 
L 263.000727 225.288865 
L 264.331636 234.199334 
L 266.194909 248.480242 
L 268.058182 262.687861 
L 269.122909 269.186071 
L 269.655273 271.566246 
L 270.187636 273.058134 
L 270.453818 273.432855 
L 270.72 273.519223 
L 270.986182 273.305757 
L 271.252364 272.803875 
L 271.784727 270.885045 
L 272.317091 267.62595 
L 272.849455 262.989837 
L 273.648 253.429979 
L 274.446545 240.766786 
L 275.511273 219.278842 
L 276.576 193.217198 
L 277.374545 165.516447 
L 278.971636 110.448779 
L 280.036364 81.489419 
L 280.834909 66.52213 
L 281.367273 60.584211 
L 281.633455 58.935835 
L 281.899636 58.268398 
L 282.165818 58.631971 
L 282.432 60.005574 
L 282.698182 59.668037 
L 283.230545 55.067344 
L 283.762909 52.050403 
L 284.029091 51.115725 
L 284.295273 50.614616 
L 284.561455 50.493232 
L 284.827636 50.776415 
L 285.093818 51.474241 
L 285.626182 54.069235 
L 286.158545 58.285919 
L 286.690909 64.127595 
L 287.489455 75.946182 
L 288.288 91.384452 
L 289.352727 117.577242 
L 290.417455 150.035533 
L 291.482182 188.554242 
L 292.813091 244.918657 
L 293.345455 269.928043 
L 293.877818 280.927577 
L 294.144 283.464148 
L 294.410182 282.759509 
L 294.942545 269.970147 
L 296.539636 231.326697 
L 297.870545 204.86994 
L 298.935273 187.92944 
L 300 174.850242 
L 300.798545 167.486858 
L 301.597091 162.153437 
L 302.395636 158.726013 
L 302.928 157.485363 
L 303.194182 157.093419 
L 303.460364 156.91194 
L 303.726545 156.904672 
L 303.992727 157.028022 
L 304.258909 157.306307 
L 304.791273 158.332506 
L 305.323636 159.862747 
L 306.122182 162.985464 
L 307.186909 168.367903 
L 308.517818 176.378648 
L 311.445818 195.468053 
L 313.309091 209.588567 
L 315.704727 227.787983 
L 316.769455 234.528426 
L 317.568 238.5474 
L 318.366545 241.418554 
L 318.898909 242.614689 
L 319.165091 242.951594 
L 319.431273 240.593461 
L 320.762182 208.838545 
L 322.093091 182.678305 
L 323.157818 165.47742 
L 324.222545 151.373479 
L 325.287273 140.024206 
L 326.352 131.113623 
L 326.884364 127.765465 
L 328.215273 119.277356 
L 329.546182 110.914301 
L 330.344727 107.118265 
L 330.877091 105.438586 
L 331.409455 104.573922 
L 331.675636 104.472253 
L 331.941818 104.600168 
L 332.208 104.962056 
L 332.740364 106.442138 
L 333.272727 108.892169 
L 333.805091 112.316556 
L 334.603636 119.096913 
L 335.668364 130.688234 
L 337.265455 149.559213 
L 338.330182 132.661735 
L 338.596364 130.533318 
L 338.862545 129.378571 
L 339.128727 128.997424 
L 339.394909 129.403536 
L 339.661091 130.448398 
L 340.193455 134.240097 
L 340.992 142.897642 
L 343.121455 169.065712 
L 343.387636 170.408873 
L 343.92 171.002819 
L 344.452364 171.927543 
L 345.517091 174.426205 
L 346.581818 176.892643 
L 347.114182 177.605138 
L 347.380364 177.75226 
L 347.646545 177.675187 
L 347.912727 177.33205 
L 348.178909 176.705335 
L 348.711273 174.400977 
L 349.243636 170.340772 
L 349.776 164.078255 
L 350.308364 155.14943 
L 350.840727 142.980631 
L 351.639273 117.55872 
L 352.437818 81.926377 
L 352.704 67.513252 
L 352.970182 72.779907 
L 354.301091 119.641263 
L 355.365818 150.28571 
L 356.430545 174.442199 
L 357.229091 188.293075 
L 358.027636 198.682625 
L 358.826182 205.891013 
L 359.358545 209.045095 
L 359.890909 211.059651 
L 360.423273 211.614359 
L 360.955636 211.997323 
L 361.488 212.194463 
L 362.020364 212.194427 
L 362.552727 211.989054 
L 363.085091 211.572707 
L 363.617455 210.942972 
L 364.416 209.617772 
L 365.480727 207.108058 
L 366.545455 203.832048 
L 368.142545 197.727388 
L 370.538182 187.025608 
L 372.933818 176.622294 
L 374.264727 171.978772 
L 375.063273 169.802128 
L 375.861818 168.255999 
L 376.394182 167.576992 
L 376.660364 166.480585 
L 377.458909 159.421751 
L 378.257455 150.180986 
L 378.523636 150.444348 
L 379.056 158.103046 
L 381.451636 196.724012 
L 382.516364 210.543479 
L 383.314909 218.515407 
L 384.113455 224.052262 
L 384.645818 226.232409 
L 384.912 226.867543 
L 385.178182 227.20026 
L 385.444364 227.212216 
L 385.710545 226.88904 
L 385.976727 226.263343 
L 386.509091 224.116474 
L 387.041455 220.725163 
L 387.84 213.600641 
L 388.638545 204.236044 
L 389.703273 189.102314 
L 393.163636 135.53489 
L 393.429818 135.086275 
L 393.962182 133.09994 
L 394.494545 129.745901 
L 395.026909 124.972016 
L 395.825455 115.148752 
L 396.624 101.88128 
L 396.890182 105.332405 
L 400.084364 179.975393 
L 400.882909 194.151297 
L 401.681455 204.804947 
L 402.213818 209.719212 
L 402.746182 212.692517 
L 403.012364 213.45445 
L 403.278545 213.653459 
L 403.544727 213.364685 
L 403.810909 212.584344 
L 404.343273 209.364461 
L 404.875636 204.097692 
L 405.408 196.823977 
L 406.206545 182.249704 
L 407.005091 163.669597 
L 408.069818 133.529683 
L 409.400727 89.359441 
L 410.199273 63.962285 
L 410.731636 48.177436 
L 410.997818 49.658817 
L 413.393455 144.540523 
L 414.724364 185.795527 
L 415.789091 212.429006 
L 416.853818 233.587383 
L 417.652364 246.026164 
L 418.450909 255.691816 
L 419.249455 262.857726 
L 420.048 267.765255 
L 420.580364 269.879175 
L 421.112727 271.195268 
L 421.645091 271.797251 
L 421.911273 271.857052 
L 422.177455 271.770293 
L 422.709818 271.199697 
L 423.242182 270.169455 
L 424.040727 267.939918 
L 425.105455 264.140669 
L 426.436364 258.8873 
L 426.436364 258.8873 
" clip-path="url(#pd3d30ca1a6)" style="fill: none; stroke: #ff0000; stroke-width: 3; stroke-linecap: square"/>
   </g>
   <g id="patch_3">
    <path d="M 7.2 331.2 
L 7.2 7.2 
" style="fill: none; stroke: #000000; stroke-width: 0.8; stroke-linejoin: miter; stroke-linecap: square"/>
   </g>
   <g id="patch_4">
    <path d="M 446.4 331.2 
L 446.4 7.2 
" style="fill: none; stroke: #000000; stroke-width: 0.8; stroke-linejoin: miter; stroke-linecap: square"/>
   </g>
   <g id="patch_5">
    <path d="M 7.2 331.2 
L 446.4 331.2 
" style="fill: none; stroke: #000000; stroke-width: 0.8; stroke-linejoin: miter; stroke-linecap: square"/>
   </g>
   <g id="patch_6">
    <path d="M 7.2 7.2 
L 446.4 7.2 
" style="fill: none; stroke: #000000; stroke-width: 0.8; stroke-linejoin: miter; stroke-linecap: square"/>
   </g>
  </g>
 </g>
 <defs>
  <clipPath id="pd3d30ca1a6">
   <rect x="7.2" y="7.2" width="439.2" height="324"/>
  </clipPath>
 </defs>
</svg>
