<?xml version="1.0" encoding="utf-8" standalone="no"?>
<!DOCTYPE svg PUBLIC "-//W3C//DTD SVG 1.1//EN"
  "http://www.w3.org/Graphics/SVG/1.1/DTD/svg11.dtd">
<svg xmlns:xlink="http://www.w3.org/1999/xlink" width="453.6pt" height="338.4pt" viewBox="0 0 453.6 338.4" xmlns="http://www.w3.org/2000/svg" version="1.1">
 <metadata>
  <rdf:RDF xmlns:dc="http://purl.org/dc/elements/1.1/" xmlns:cc="http://creativecommons.org/ns#" xmlns:rdf="http://www.w3.org/1999/02/22-rdf-syntax-ns#">
   <cc:Work>
    <dc:type rdf:resource="http://purl.org/dc/dcmitype/StillImage"/>
    <dc:date>2025-05-14T16:01:03.672390</dc:date>
    <dc:format>image/svg+xml</dc:format>
    <dc:creator>
     <cc:Agent>
      <dc:title>Matplotlib v3.10.1, https://matplotlib.org/</dc:title>
     </cc:Agent>
    </dc:creator>
   </cc:Work>
  </rdf:RDF>
 </metadata>
 <defs>
  <style type="text/css">*{stroke-linejoin: round; stroke-linecap: butt}</style>
 </defs>
 <g id="figure_1">
  <g id="patch_1">
   <path d="M 0 338.4 
L 453.6 338.4 
L 453.6 0 
L 0 0 
z
" style="fill: #ffffff"/>
  </g>
  <g id="axes_1">
   <g id="patch_2">
    <path d="M 7.2 331.2 
L 446.4 331.2 
L 446.4 7.2 
L 7.2 7.2 
z
" style="fill: #ffffff"/>
   </g>
   <g id="matplotlib.axis_1"/>
   <g id="matplotlib.axis_2"/>
   <g id="line2d_1">
    <path d="M 27.163636 316.471708 
L 29.293091 283.452453 
L 31.422545 254.001888 
L 33.552 227.73513 
L 35.681455 204.30799 
L 37.810909 183.413457 
L 39.940364 164.777784 
L 42.069818 148.15673 
L 44.199273 133.332526 
L 46.328727 120.110928 
L 48.458182 108.318658 
L 50.587636 97.801219 
L 52.717091 88.420777 
L 54.846545 80.054421 
L 56.976 72.592547 
L 59.105455 65.937313 
L 61.234909 60.001589 
L 63.364364 54.707546 
L 65.493818 49.985803 
L 67.623273 45.774526 
L 69.752727 42.018518 
L 71.882182 38.66857 
L 74.277818 35.330753 
L 76.673455 32.396046 
L 79.069091 29.815765 
L 81.464727 27.547107 
L 84.126545 25.346235 
L 86.788364 23.438658 
L 89.184 21.940177 
L 91.579636 21.933558 
L 113.406545 22.107031 
L 124.32 22.402486 
L 131.773091 22.818271 
L 137.362909 23.342274 
L 141.888 23.978074 
L 145.614545 24.706923 
L 149.074909 25.610562 
L 152.002909 26.598752 
L 154.664727 27.723618 
L 157.060364 28.96439 
L 159.456 30.469402 
L 161.585455 32.074257 
L 163.714909 33.979587 
L 165.578182 35.937182 
L 167.441455 38.211966 
L 169.304727 40.855327 
L 171.168 43.926956 
L 173.031273 47.496287 
L 174.628364 51.012617 
L 176.225455 55.011954 
L 177.024 57.061685 
L 178.354909 59.515736 
L 179.685818 62.376883 
L 181.016727 65.712646 
L 182.347636 69.601765 
L 183.678545 74.136024 
L 185.009455 79.422465 
L 186.340364 85.58586 
L 187.671273 92.771714 
L 189.002182 101.14957 
L 190.333091 110.917163 
L 191.664 122.305077 
L 192.994909 135.582117 
L 194.325818 151.061557 
L 195.656727 169.108883 
L 196.987636 190.150002 
L 198.318545 213.72465 
L 200.980364 200.136021 
L 203.642182 187.659969 
L 206.304 176.205323 
L 208.965818 165.688481 
L 211.627636 156.032669 
L 214.289455 147.167329 
L 216.951273 139.027852 
L 219.613091 131.554777 
L 222.274909 124.693485 
L 224.936727 118.39396 
L 227.864727 112.058443 
L 230.792727 106.291189 
L 233.720727 101.041125 
L 236.648727 96.26185 
L 239.576727 91.911193 
L 242.504727 87.950708 
L 245.432727 84.345386 
L 248.626909 80.780057 
L 251.821091 77.562062 
L 255.015273 74.657551 
L 258.209455 72.036013 
L 261.669818 69.483435 
L 265.130182 67.199118 
L 268.856727 65.006848 
L 272.849455 62.931415 
L 276.842182 61.10558 
L 281.101091 59.399338 
L 285.626182 57.824645 
L 290.417455 56.388682 
L 295.741091 55.031845 
L 301.330909 53.835877 
L 307.453091 52.750126 
L 314.373818 51.754053 
L 322.093091 50.875204 
L 330.877091 50.107204 
L 340.992 49.453461 
L 352.970182 48.909392 
L 367.610182 48.474242 
L 386.775273 48.140919 
L 389.170909 48.111881 
L 389.437091 48.286899 
L 426.436364 301.199995 
L 426.436364 301.199995 
" clip-path="url(#p7e393a5853)" style="fill: none; stroke-dasharray: 11.1,4.8; stroke-dashoffset: 0; stroke: #000000; stroke-width: 3"/>
   </g>
   <g id="line2d_2">
    <path d="M 27.163636 257.405142 
L 27.962182 258.131937 
L 29.026909 259.466955 
L 30.357818 260.996612 
L 30.890182 261.306823 
L 31.422545 261.301516 
L 31.954909 260.898635 
L 32.487273 260.02539 
L 33.019636 258.617758 
L 33.552 256.54154 
L 34.084364 253.779806 
L 34.882909 248.179015 
L 35.681455 240.70131 
L 36.48 231.246815 
L 37.544727 215.547053 
L 38.609455 196.434772 
L 39.940364 168.345062 
L 41.803636 123.513054 
L 44.465455 59.411399 
L 45.530182 40.149056 
L 46.594909 25.01098 
L 46.861091 24.704834 
L 47.127273 27.642333 
L 48.724364 52.74974 
L 50.587636 78.167227 
L 52.717091 103.79502 
L 57.242182 154.261311 
L 59.904 182.584555 
L 60.436364 187.579122 
L 60.968727 194.729425 
L 61.501091 199.389546 
L 61.767273 200.776237 
L 62.033455 201.550267 
L 62.299636 201.639111 
L 62.565818 201.109245 
L 62.832 199.956842 
L 63.364364 195.683144 
L 63.896727 188.849266 
L 64.429091 179.491569 
L 64.695273 179.814745 
L 65.227636 188.768859 
L 65.76 194.193169 
L 66.026182 195.824375 
L 66.292364 196.727804 
L 66.558545 197.096731 
L 66.824727 196.945545 
L 67.090909 196.318268 
L 67.623273 193.970661 
L 68.421818 188.371253 
L 70.018909 174.012351 
L 71.083636 165.05965 
L 71.882182 159.866785 
L 72.414545 157.4055 
L 72.946909 155.889322 
L 73.213091 155.518744 
L 73.479273 155.421921 
L 73.745455 155.609124 
L 74.011636 156.089639 
L 74.544 157.962806 
L 75.076364 161.096251 
L 75.608727 165.530949 
L 76.407273 174.679086 
L 77.205818 185.714769 
L 78.802909 199.636791 
L 80.932364 220.888647 
L 82.529455 236.893274 
L 83.061818 237.253187 
L 83.328 236.653736 
L 84.925091 223.066135 
L 86.256 213.409673 
L 87.853091 203.546135 
L 89.184 196.536879 
L 90.514909 190.498134 
L 91.845818 185.305426 
L 93.176727 180.846281 
L 93.709091 179.239733 
L 95.306182 166.91872 
L 97.169455 154.439016 
L 99.565091 140.110969 
L 101.428364 130.050906 
L 102.759273 123.677434 
L 104.090182 118.26371 
L 105.154909 114.757528 
L 106.219636 112.021909 
L 107.550545 109.325704 
L 108.615273 106.984978 
L 109.147636 105.352349 
L 109.68 103.107727 
L 111.809455 91.684033 
L 112.075636 91.083081 
L 112.341818 90.997214 
L 112.608 91.078464 
L 112.874182 91.343353 
L 113.406545 92.370536 
L 113.938909 93.931412 
L 114.737455 97.318966 
L 115.536 101.777891 
L 116.600727 109.278337 
L 117.665455 118.462254 
L 118.996364 132.17016 
L 120.593455 151.306677 
L 123.255273 184.006569 
L 124.053818 191.149191 
L 124.586182 194.183399 
L 124.852364 194.948159 
L 125.118545 195.194158 
L 125.384727 194.70798 
L 125.650909 193.525767 
L 125.917091 191.417012 
L 126.449455 184.218078 
L 126.981818 171.920951 
L 127.514182 169.81763 
L 128.312727 164.968586 
L 129.111273 157.878273 
L 131.506909 134.251105 
L 132.571636 125.737715 
L 133.370182 121.148487 
L 133.902545 119.10369 
L 134.434909 117.961865 
L 134.701091 117.736038 
L 134.967273 117.733738 
L 135.233455 117.951032 
L 135.499636 118.381986 
L 136.032 119.891405 
L 136.564364 122.144542 
L 137.362909 126.667513 
L 139.758545 141.74035 
L 140.290909 143.561076 
L 140.557091 143.998649 
L 140.823273 144.059165 
L 141.089455 143.700052 
L 141.355636 142.830366 
L 141.621818 141.453164 
L 142.154182 136.804174 
L 142.686545 129.327272 
L 143.751273 109.157602 
L 144.283636 107.652889 
L 145.082182 104.602328 
L 146.146909 99.443012 
L 148.542545 87.255655 
L 149.341091 84.2358 
L 149.873455 82.772695 
L 150.405818 81.833557 
L 150.938182 81.471037 
L 151.204364 81.526813 
L 151.470545 81.750235 
L 152.002909 82.678014 
L 152.535273 84.267541 
L 153.067636 86.523067 
L 153.866182 91.098232 
L 154.664727 96.977004 
L 155.729455 106.480902 
L 157.858909 128.373966 
L 158.391273 133.239039 
L 158.923636 135.778747 
L 159.456 139.776943 
L 161.053091 155.844431 
L 162.117818 167.868479 
L 163.448727 185.456173 
L 165.312 213.370917 
L 169.304727 274.556931 
L 170.635636 291.728046 
L 171.700364 303.219283 
L 171.966545 305.719221 
L 172.232727 306.638063 
L 173.297455 301.309265 
L 174.628364 293.419244 
L 176.225455 282.528216 
L 177.024 276.371074 
L 185.275636 198.675128 
L 188.469818 169.597579 
L 188.736 169.580313 
L 189.002182 172.213201 
L 190.865455 198.916185 
L 192.728727 222.21462 
L 193.793455 235.215236 
L 194.858182 248.703707 
L 195.922909 258.790512 
L 196.721455 264.605945 
L 197.786182 270.557681 
L 198.584727 273.957345 
L 199.649455 277.408852 
L 200.714182 279.940153 
L 201.778909 281.793335 
L 202.843636 283.167023 
L 203.908364 284.194967 
L 205.239273 285.145293 
L 206.836364 285.941661 
L 208.433455 286.481227 
L 208.965818 286.61539 
L 209.232 286.553234 
L 210.030545 285.616332 
L 210.296727 283.901317 
L 211.627636 269.349252 
L 212.958545 257.020743 
L 214.289455 246.644469 
L 215.620364 237.911108 
L 216.951273 230.53547 
L 218.282182 224.276078 
L 219.613091 218.96375 
L 220.944 214.546495 
L 222.008727 211.690659 
L 222.807273 210.013525 
L 223.073455 209.688734 
L 223.339636 209.625733 
L 223.605818 209.788831 
L 223.872 210.206679 
L 224.404364 211.686998 
L 224.936727 214.01633 
L 225.735273 218.859615 
L 227.066182 229.136885 
L 227.864727 234.766867 
L 228.397091 237.437958 
L 228.929455 238.96538 
L 229.195636 239.234377 
L 229.461818 239.139767 
L 229.728 238.644715 
L 229.994182 237.772343 
L 230.526545 234.68437 
L 231.058909 229.763521 
L 231.591273 222.895084 
L 232.389818 208.702659 
L 233.188364 189.659743 
L 233.720727 174.129443 
L 233.986909 173.725929 
L 235.584 193.714629 
L 236.914909 207.552153 
L 237.979636 216.587508 
L 239.044364 223.695009 
L 239.842909 227.683699 
L 240.641455 230.499348 
L 241.173818 231.683282 
L 241.706182 232.31486 
L 241.972364 232.418627 
L 242.238545 232.375096 
L 242.504727 232.172207 
L 243.037091 231.317673 
L 243.835636 229.203159 
L 244.634182 226.448193 
L 245.432727 222.85653 
L 246.497455 216.867759 
L 247.562182 209.508563 
L 248.893091 198.486047 
L 249.957818 189.560541 
L 257.943273 130.255999 
L 260.072727 115.596455 
L 262.202182 90.147244 
L 263.533091 76.996486 
L 264.597818 68.84307 
L 265.396364 64.387375 
L 265.928727 62.277883 
L 266.461091 60.91362 
L 266.727273 60.49815 
L 266.993455 60.288844 
L 267.259636 63.416162 
L 268.856727 109.461466 
L 270.187636 140.754231 
L 271.252364 160.702727 
L 272.317091 176.187881 
L 273.115636 185.044716 
L 273.914182 191.823976 
L 274.712727 196.76727 
L 275.511273 200.196942 
L 276.043636 201.817123 
L 276.842182 203.468756 
L 278.439273 206.263136 
L 279.237818 207.030292 
L 279.770182 207.089554 
L 280.302545 206.552595 
L 280.834909 205.38591 
L 281.367273 203.336601 
L 281.899636 200.34387 
L 282.432 196.181926 
L 283.230545 187.383282 
L 284.029091 175.055949 
L 284.827636 158.603382 
L 285.626182 137.452879 
L 286.424727 110.980488 
L 286.957091 92.004505 
L 287.223273 87.784485 
L 287.755636 84.338609 
L 288.021818 83.336883 
L 288.288 82.770974 
L 288.554182 82.616093 
L 288.820364 82.854788 
L 289.086545 83.468432 
L 289.618909 85.812283 
L 290.151273 89.40442 
L 290.949818 96.739275 
L 292.014545 108.989624 
L 293.611636 127.791466 
L 294.942545 136.917324 
L 296.007273 142.931912 
L 297.072 147.742314 
L 297.870545 150.60806 
L 298.669091 152.82684 
L 299.467636 154.427815 
L 300 155.162492 
L 300.532364 155.631385 
L 301.064727 155.833967 
L 301.597091 155.767236 
L 302.129455 155.425134 
L 302.661818 154.798305 
L 303.194182 153.873335 
L 303.992727 151.86344 
L 304.791273 149.103646 
L 305.589818 145.383347 
L 306.388364 140.679757 
L 307.186909 134.705743 
L 307.985455 127.297591 
L 308.784 118.205247 
L 309.582545 107.008503 
L 309.848727 109.971529 
L 310.381091 125.681237 
L 311.445818 155.686828 
L 312.510545 178.070994 
L 313.309091 190.969099 
L 314.373818 204.239871 
L 315.438545 214.257158 
L 316.503273 222.155315 
L 318.100364 231.950015 
L 321.028364 249.291254 
L 322.891636 262.014656 
L 325.021091 277.485906 
L 325.287273 278.427923 
L 325.819636 277.904325 
L 326.618182 276.478453 
L 327.150545 270.675686 
L 327.682909 261.725496 
L 328.481455 243.472726 
L 329.546182 212.932116 
L 332.474182 123.765777 
L 333.272727 105.495925 
L 334.071273 92.425224 
L 334.603636 87.142083 
L 334.869818 85.614389 
L 335.136 84.890333 
L 335.402182 85.018248 
L 335.668364 84.827165 
L 336.200727 84.239978 
L 336.466909 84.143945 
L 336.999273 84.284782 
L 337.531636 84.75076 
L 338.330182 85.808175 
L 339.927273 88.029448 
L 340.725818 88.688774 
L 341.258182 88.838371 
L 341.790545 88.714722 
L 342.322909 88.298041 
L 342.855273 87.584782 
L 343.653818 86.382511 
L 344.452364 85.258312 
L 345.250909 83.797209 
L 346.049455 81.923076 
L 346.848 79.547747 
L 347.646545 76.57094 
L 348.445091 72.879785 
L 349.243636 68.33385 
L 350.042182 62.74193 
L 351.106909 55.036094 
L 351.373091 60.180294 
L 352.704 107.973853 
L 353.768727 138.652323 
L 354.833455 162.188866 
L 355.632 174.951744 
L 356.430545 183.639915 
L 356.962909 187.216173 
L 357.495273 189.153982 
L 357.761455 189.558707 
L 358.027636 189.606679 
L 358.293818 189.312155 
L 358.56 188.740786 
L 359.092364 186.785579 
L 361.221818 176.910603 
L 362.020364 174.635757 
L 362.552727 173.732609 
L 363.085091 173.379869 
L 363.351273 173.410698 
L 363.883636 173.869742 
L 364.416 174.8226 
L 365.214545 177.226905 
L 366.013091 180.59556 
L 366.545455 183.313772 
L 366.811636 183.52227 
L 367.876364 171.07408 
L 368.674909 163.920213 
L 369.739636 156.708691 
L 370.538182 152.548977 
L 371.602909 148.391106 
L 372.401455 145.987406 
L 373.2 144.072192 
L 374.264727 142.109892 
L 375.329455 140.646576 
L 376.394182 139.550081 
L 377.192727 137.524965 
L 377.458909 137.332302 
L 377.725091 137.428405 
L 377.991273 137.823141 
L 378.523636 139.311491 
L 379.056 141.564173 
L 380.120727 147.443998 
L 381.451636 154.626166 
L 381.984 156.534515 
L 382.516364 157.463576 
L 382.782545 157.434152 
L 383.048727 157.050652 
L 383.314909 156.288359 
L 383.847273 153.335867 
L 384.379636 148.340281 
L 384.912 140.96143 
L 385.444364 130.864412 
L 386.242909 110.099251 
L 386.509091 101.557911 
L 386.775273 103.424881 
L 387.573818 137.37923 
L 388.372364 161.166493 
L 388.904727 172.119363 
L 389.437091 179.829545 
L 389.969455 184.690588 
L 390.501818 187.177593 
L 390.768 187.678939 
L 391.034182 187.775323 
L 391.300364 187.491657 
L 391.832727 186.019554 
L 392.631273 182.375372 
L 393.429818 177.576117 
L 393.962182 174.285272 
L 394.494545 172.337781 
L 394.760727 171.995714 
L 395.026909 172.197067 
L 395.293091 172.883114 
L 395.559273 174.157296 
L 396.091636 178.418634 
L 396.624 185.134973 
L 397.156364 194.273735 
L 397.954909 212.663751 
L 398.753455 236.657537 
L 399.552 266.227364 
L 399.818182 266.808042 
L 401.415273 227.145845 
L 403.278545 186.308855 
L 405.408 144.645966 
L 407.271273 112.210867 
L 408.602182 92.436302 
L 409.666909 79.985864 
L 410.465455 72.674921 
L 410.731636 71.370261 
L 410.997818 70.675331 
L 411.264 70.625963 
L 411.530182 71.176387 
L 411.796364 72.301095 
L 412.328727 76.344499 
L 412.861091 82.643445 
L 413.127273 86.61292 
L 413.393455 88.881612 
L 414.458182 76.900243 
L 414.990545 73.655018 
L 415.256727 72.718338 
L 415.522909 72.222162 
L 415.789091 72.11391 
L 416.055273 72.438438 
L 416.321455 73.109474 
L 416.853818 75.547128 
L 417.386182 79.284192 
L 418.184727 87.120278 
L 418.983273 97.330799 
L 420.048 114.173571 
L 421.378909 139.633579 
L 422.709818 169.251177 
L 424.306909 209.467683 
L 426.170182 262.082722 
L 426.436364 270.074234 
L 426.436364 270.074234 
" clip-path="url(#p7e393a5853)" style="fill: none; stroke: #ffa500; stroke-width: 3; stroke-linecap: square"/>
   </g>
   <g id="patch_3">
    <path d="M 7.2 331.2 
L 7.2 7.2 
" style="fill: none; stroke: #000000; stroke-width: 0.8; stroke-linejoin: miter; stroke-linecap: square"/>
   </g>
   <g id="patch_4">
    <path d="M 446.4 331.2 
L 446.4 7.2 
" style="fill: none; stroke: #000000; stroke-width: 0.8; stroke-linejoin: miter; stroke-linecap: square"/>
   </g>
   <g id="patch_5">
    <path d="M 7.2 331.2 
L 446.4 331.2 
" style="fill: none; stroke: #000000; stroke-width: 0.8; stroke-linejoin: miter; stroke-linecap: square"/>
   </g>
   <g id="patch_6">
    <path d="M 7.2 7.2 
L 446.4 7.2 
" style="fill: none; stroke: #000000; stroke-width: 0.8; stroke-linejoin: miter; stroke-linecap: square"/>
   </g>
  </g>
 </g>
 <defs>
  <clipPath id="p7e393a5853">
   <rect x="7.2" y="7.2" width="439.2" height="324"/>
  </clipPath>
 </defs>
</svg>
