<?xml version="1.0" encoding="utf-8" standalone="no"?>
<!DOCTYPE svg PUBLIC "-//W3C//DTD SVG 1.1//EN"
  "http://www.w3.org/Graphics/SVG/1.1/DTD/svg11.dtd">
<svg xmlns:xlink="http://www.w3.org/1999/xlink" width="453.6pt" height="338.4pt" viewBox="0 0 453.6 338.4" xmlns="http://www.w3.org/2000/svg" version="1.1">
 <metadata>
  <rdf:RDF xmlns:dc="http://purl.org/dc/elements/1.1/" xmlns:cc="http://creativecommons.org/ns#" xmlns:rdf="http://www.w3.org/1999/02/22-rdf-syntax-ns#">
   <cc:Work>
    <dc:type rdf:resource="http://purl.org/dc/dcmitype/StillImage"/>
    <dc:date>2025-05-14T16:01:12.414827</dc:date>
    <dc:format>image/svg+xml</dc:format>
    <dc:creator>
     <cc:Agent>
      <dc:title>Matplotlib v3.10.1, https://matplotlib.org/</dc:title>
     </cc:Agent>
    </dc:creator>
   </cc:Work>
  </rdf:RDF>
 </metadata>
 <defs>
  <style type="text/css">*{stroke-linejoin: round; stroke-linecap: butt}</style>
 </defs>
 <g id="figure_1">
  <g id="patch_1">
   <path d="M 0 338.4 
L 453.6 338.4 
L 453.6 0 
L 0 0 
z
" style="fill: #ffffff"/>
  </g>
  <g id="axes_1">
   <g id="patch_2">
    <path d="M 7.2 331.2 
L 446.4 331.2 
L 446.4 7.2 
L 7.2 7.2 
z
" style="fill: #ffffff"/>
   </g>
   <g id="matplotlib.axis_1"/>
   <g id="matplotlib.axis_2"/>
   <g id="line2d_1">
    <path d="M 27.163636 316.472693 
L 326.884364 281.875362 
L 331.409455 280.391512 
L 335.668364 278.768046 
L 339.661091 277.014841 
L 343.387636 275.147055 
L 347.114182 273.024567 
L 350.574545 270.795323 
L 353.768727 268.488964 
L 356.962909 265.915538 
L 360.157091 263.044086 
L 363.085091 260.120729 
L 366.013091 256.888491 
L 368.941091 253.31474 
L 371.869091 249.363379 
L 374.530909 245.410074 
L 377.192727 241.078805 
L 379.854545 236.333413 
L 382.516364 231.134315 
L 385.178182 225.438128 
L 387.84 219.197346 
L 390.501818 212.359825 
L 393.163636 204.868632 
L 395.825455 196.661178 
L 398.487273 187.669028 
L 401.149091 177.817156 
L 403.810909 167.023338 
L 406.472727 155.197535 
L 409.134545 142.24109 
L 411.796364 128.045822 
L 414.458182 112.49326 
L 416.853818 97.228674 
L 419.249455 80.656672 
L 421.645091 62.665227 
L 424.040727 43.132675 
L 426.436364 21.927273 
L 426.436364 21.927273 
" clip-path="url(#p3de5670331)" style="fill: none; stroke-dasharray: 11.1,4.8; stroke-dashoffset: 0; stroke: #000000; stroke-width: 3"/>
   </g>
   <g id="line2d_2">
    <path d="M 27.163636 294.89427 
L 27.429818 300.586101 
L 27.696 301.854975 
L 27.962182 302.333237 
L 28.760727 302.691777 
L 29.026909 302.721082 
L 29.559273 302.485973 
L 30.091636 302.403821 
L 30.624 302.051991 
L 31.422545 301.80433 
L 32.221091 301.425024 
L 32.753455 300.999632 
L 35.149091 299.630781 
L 35.415273 299.433351 
L 35.681455 298.802262 
L 37.544727 296.906632 
L 38.343273 295.889024 
L 39.940364 293.813534 
L 41.803636 291.647102 
L 43.933091 289.843937 
L 44.199273 290.915181 
L 44.465455 290.95025 
L 45.530182 290.169017 
L 46.328727 289.578576 
L 46.861091 289.090101 
L 48.192 287.354213 
L 48.990545 286.153754 
L 50.321455 283.961655 
L 50.853818 283.184799 
L 51.12 282.597164 
L 51.386182 281.623579 
L 52.450909 275.946673 
L 52.983273 275.220207 
L 53.781818 273.959991 
L 55.378909 271.550722 
L 56.443636 270.245289 
L 56.709818 269.819014 
L 56.976 269.049426 
L 58.040727 267.541965 
L 58.573091 266.856673 
L 60.170182 264.733492 
L 60.702545 264.340534 
L 60.968727 264.070365 
L 61.234909 268.282419 
L 61.501091 268.143276 
L 62.033455 267.473368 
L 62.299636 267.642883 
L 63.098182 267.022418 
L 63.364364 267.023164 
L 64.429091 265.990543 
L 66.292364 264.311549 
L 66.824727 263.695644 
L 67.889455 262.517977 
L 68.688 261.767692 
L 70.018909 260.268672 
L 70.551273 259.947809 
L 70.817455 260.082035 
L 71.616 259.444211 
L 71.882182 259.479635 
L 72.680727 259.003281 
L 73.213091 258.955589 
L 75.874909 256.7228 
L 76.407273 255.83231 
L 77.472 253.600319 
L 78.004364 252.154367 
L 78.536727 249.136737 
L 79.335273 246.100405 
L 80.133818 243.804979 
L 80.932364 242.026773 
L 81.997091 240.12973 
L 82.795636 239.193506 
L 83.061818 239.015389 
L 84.392727 237.178397 
L 84.925091 236.352348 
L 85.457455 235.858454 
L 85.989818 234.673616 
L 86.522182 233.132026 
L 86.788364 231.682589 
L 87.586909 229.81719 
L 88.119273 229.232663 
L 88.651636 228.289891 
L 89.716364 227.152218 
L 89.982545 227.057238 
L 90.514909 227.209469 
L 91.579636 226.44973 
L 92.378182 226.146682 
L 92.644364 226.267364 
L 92.910545 226.576389 
L 93.442909 226.444691 
L 93.709091 226.392593 
L 93.975273 226.513081 
L 94.507636 226.489301 
L 94.773818 226.582508 
L 95.04 226.871265 
L 95.306182 226.988049 
L 95.572364 226.972257 
L 96.104727 226.663389 
L 96.637091 226.491654 
L 97.169455 226.24397 
L 97.435636 226.160613 
L 97.968 226.283665 
L 98.234182 226.162649 
L 98.766545 225.492114 
L 99.298909 225.048194 
L 99.565091 225.005954 
L 99.831273 224.760324 
L 100.097455 224.722253 
L 100.363636 224.836834 
L 100.629818 224.630943 
L 102.226909 221.61452 
L 102.493091 221.56797 
L 102.759273 221.397367 
L 103.025455 221.075253 
L 104.090182 218.224763 
L 104.622545 216.569364 
L 105.154909 215.742314 
L 105.687273 214.256316 
L 106.485818 211.032702 
L 107.284364 209.108324 
L 108.082909 208.137795 
L 108.615273 206.348486 
L 109.68 204.72453 
L 110.212364 204.850119 
L 110.478545 204.653489 
L 111.010909 203.915835 
L 111.543273 203.44157 
L 112.075636 203.118192 
L 112.341818 202.586641 
L 112.608 202.447024 
L 112.874182 202.062173 
L 113.672727 200.090893 
L 113.938909 200.280387 
L 114.205091 200.7005 
L 114.471273 200.506134 
L 115.536 198.862094 
L 116.068364 197.752292 
L 116.866909 196.827699 
L 117.133091 196.580796 
L 117.665455 196.374387 
L 119.262545 194.806638 
L 119.794909 194.744217 
L 120.327273 194.878979 
L 120.859636 194.858771 
L 121.392 195.011151 
L 121.924364 195.316709 
L 123.521455 195.789359 
L 125.384727 198.380332 
L 125.650909 198.808293 
L 126.981818 202.447305 
L 128.312727 204.479848 
L 129.111273 206.396168 
L 129.377455 209.652252 
L 132.305455 213.68313 
L 134.701091 215.582824 
L 135.765818 215.861065 
L 136.298182 216.016666 
L 137.096727 216.449367 
L 137.629091 216.657874 
L 137.895273 216.889757 
L 138.427636 216.932121 
L 138.96 217.315629 
L 140.290909 217.717299 
L 140.557091 217.640034 
L 141.355636 218.040001 
L 141.888 218.380759 
L 142.420364 218.655506 
L 142.952727 218.736362 
L 143.485091 218.954209 
L 144.017455 219.40724 
L 144.549818 219.721418 
L 145.880727 219.990336 
L 146.146909 220.305173 
L 146.413091 221.629566 
L 147.477818 222.485022 
L 148.010182 222.51902 
L 149.873455 224.223752 
L 150.139636 224.314667 
L 151.204364 225.532353 
L 151.736727 226.49039 
L 152.535273 227.637289 
L 153.6 229.294154 
L 155.197091 232.800195 
L 155.463273 233.189953 
L 157.060364 236.70285 
L 158.657455 239.708915 
L 159.189818 240.819165 
L 160.254545 242.421412 
L 160.786909 243.494364 
L 161.585455 245.417365 
L 162.650182 246.802243 
L 162.916364 247.266387 
L 163.182545 248.160081 
L 163.448727 249.727246 
L 164.247273 251.459024 
L 165.844364 253.070515 
L 166.376727 253.637315 
L 166.909091 253.686845 
L 167.707636 253.739681 
L 167.973818 253.835801 
L 168.772364 254.86287 
L 169.570909 255.160225 
L 170.369455 255.185234 
L 171.700364 256.240805 
L 171.966545 256.478921 
L 172.232727 256.497579 
L 173.031273 257.128082 
L 174.096 258.191479 
L 175.426909 258.591937 
L 176.491636 259.429148 
L 177.822545 259.864886 
L 178.621091 260.509197 
L 179.153455 260.628518 
L 179.685818 260.605963 
L 180.218182 260.830644 
L 180.484364 261.252495 
L 181.815273 261.663285 
L 182.347636 261.762118 
L 182.88 262.000326 
L 184.210909 262.471054 
L 185.009455 262.75594 
L 186.606545 263.65066 
L 187.671273 264.019759 
L 188.736 264.625161 
L 189.268364 264.98783 
L 190.066909 265.288648 
L 190.865455 265.837953 
L 191.930182 266.211186 
L 192.462545 266.299187 
L 193.527273 266.795564 
L 194.059636 266.896285 
L 194.858182 266.889969 
L 195.656727 267.125693 
L 196.189091 267.19576 
L 197.253818 267.132553 
L 197.786182 267.257303 
L 198.584727 267.456685 
L 199.117091 267.518361 
L 199.915636 267.602218 
L 201.246545 267.944078 
L 202.577455 268.22856 
L 203.642182 268.572216 
L 205.239273 268.880254 
L 208.965818 270.237815 
L 209.764364 270.409405 
L 210.562909 270.576072 
L 211.361455 270.495997 
L 212.426182 270.327005 
L 212.958545 270.280968 
L 215.886545 269.224462 
L 218.282182 268.697901 
L 219.346909 268.662688 
L 220.411636 268.533333 
L 222.541091 268.406225 
L 223.073455 268.362567 
L 223.605818 268.376634 
L 225.469091 268.18305 
L 226.533818 268.108914 
L 227.332364 267.949354 
L 228.663273 267.930082 
L 230.260364 267.491543 
L 231.325091 267.300694 
L 232.656 266.94291 
L 233.188364 266.93123 
L 235.584 266.515647 
L 236.914909 266.550281 
L 239.044364 266.46925 
L 240.109091 266.202535 
L 240.641455 266.316686 
L 243.303273 265.997961 
L 243.835636 265.79943 
L 244.368 265.554349 
L 244.900364 265.435216 
L 245.965091 264.876672 
L 246.497455 264.436058 
L 247.029818 264.165292 
L 248.893091 261.964972 
L 249.957818 260.601464 
L 251.554909 259.013613 
L 252.619636 257.777989 
L 253.684364 256.961345 
L 254.482909 256.274548 
L 255.015273 255.941585 
L 255.281455 256.011112 
L 255.547636 255.885365 
L 256.346182 255.080686 
L 257.144727 254.310795 
L 257.677091 254.151863 
L 258.475636 253.574955 
L 259.274182 253.04041 
L 259.806545 252.989936 
L 261.403636 251.955559 
L 262.734545 251.622907 
L 264.331636 250.928407 
L 265.130182 250.695651 
L 265.662545 250.416874 
L 266.194909 250.300547 
L 266.727273 249.991416 
L 267.259636 249.861806 
L 267.792 249.648269 
L 268.324364 249.535563 
L 269.389091 248.999288 
L 269.921455 248.762871 
L 270.453818 248.621679 
L 271.518545 248.205196 
L 272.050909 248.117217 
L 272.583273 248.162043 
L 273.115636 248.096216 
L 273.381818 248.151632 
L 274.180364 247.949884 
L 274.712727 248.13688 
L 275.245091 248.244017 
L 275.777455 248.369611 
L 276.309818 248.375501 
L 276.842182 248.509749 
L 277.374545 248.565109 
L 277.640727 248.69876 
L 279.504 248.752732 
L 280.036364 248.782288 
L 280.568727 248.679299 
L 281.101091 248.679554 
L 281.367273 248.649019 
L 282.165818 248.832767 
L 282.698182 248.764772 
L 283.230545 248.856868 
L 283.762909 249.081829 
L 284.029091 249.276546 
L 284.561455 249.313976 
L 285.626182 249.277946 
L 286.424727 249.589754 
L 287.755636 249.207304 
L 288.554182 249.453219 
L 289.352727 248.699919 
L 290.151273 247.139662 
L 290.417455 245.531546 
L 291.216 245.459759 
L 291.482182 245.563077 
L 292.014545 245.273609 
L 292.280727 245.487309 
L 292.546909 245.897287 
L 292.813091 245.920536 
L 293.345455 245.726346 
L 293.611636 245.744622 
L 294.410182 244.689367 
L 294.676364 244.88246 
L 295.474909 244.754541 
L 295.741091 244.860607 
L 296.273455 244.241406 
L 296.539636 244.17334 
L 296.805818 244.279393 
L 297.604364 243.488338 
L 297.870545 243.46781 
L 298.669091 242.490654 
L 299.467636 241.815598 
L 299.733818 241.902993 
L 300 242.26704 
L 300.532364 242.297175 
L 301.064727 242.942864 
L 301.863273 242.254364 
L 302.129455 242.427092 
L 302.661818 241.965458 
L 302.928 242.120024 
L 303.194182 242.631052 
L 303.460364 242.631069 
L 303.992727 242.239661 
L 304.258909 242.327126 
L 304.791273 241.995602 
L 305.057455 242.218822 
L 305.323636 242.622361 
L 305.856 242.47754 
L 306.388364 242.324186 
L 306.920727 241.637507 
L 307.186909 241.636761 
L 307.453091 240.881103 
L 307.985455 241.004428 
L 308.517818 241.656406 
L 309.050182 241.190199 
L 309.316364 241.316438 
L 309.582545 241.762938 
L 309.848727 241.725438 
L 310.114909 241.809857 
L 310.381091 242.089335 
L 310.647273 242.668868 
L 310.913455 242.660371 
L 311.179636 242.376732 
L 311.445818 242.326547 
L 311.712 243.01025 
L 312.510545 242.893378 
L 312.776727 243.262937 
L 313.841455 243.159285 
L 314.373818 242.460519 
L 314.64 242.363494 
L 314.906182 242.5682 
L 315.438545 242.453277 
L 315.704727 242.584001 
L 315.970909 242.929925 
L 316.503273 242.121217 
L 316.769455 242.018241 
L 317.035636 242.262826 
L 317.301818 242.106224 
L 317.568 242.136772 
L 317.834182 242.523028 
L 318.100364 243.140842 
L 318.366545 243.022811 
L 318.898909 242.427899 
L 319.165091 242.543569 
L 319.697455 242.083252 
L 319.963636 242.219217 
L 320.229818 242.661802 
L 320.496 242.555814 
L 321.028364 241.991836 
L 321.826909 240.684649 
L 322.093091 240.674317 
L 322.359273 240.783517 
L 323.424 239.372098 
L 323.956364 238.133432 
L 324.222545 237.770272 
L 324.488727 236.749637 
L 325.287273 236.55744 
L 325.553455 236.71348 
L 326.085818 236.36663 
L 326.352 236.218376 
L 326.618182 236.372151 
L 327.416727 236.129646 
L 327.682909 236.258904 
L 328.747636 235.789309 
L 329.28 235.466958 
L 329.546182 235.419065 
L 329.812364 235.49992 
L 330.344727 235.329853 
L 330.877091 235.455239 
L 331.409455 234.848056 
L 332.474182 234.334561 
L 332.740364 234.314389 
L 333.006545 234.424756 
L 333.272727 234.392751 
L 333.805091 233.978476 
L 334.071273 234.034111 
L 334.603636 233.885059 
L 334.869818 233.934892 
L 335.136 234.229688 
L 335.668364 234.225054 
L 336.999273 233.849832 
L 337.265455 234.156619 
L 338.064 234.260526 
L 338.330182 234.255926 
L 338.862545 233.802755 
L 339.128727 233.767511 
L 339.394909 233.916441 
L 340.193455 233.770346 
L 340.459636 233.760392 
L 340.725818 233.61068 
L 341.258182 233.098362 
L 341.524364 233.000775 
L 342.855273 233.267771 
L 344.452364 232.952531 
L 344.718545 233.102918 
L 346.049455 233.077128 
L 346.581818 232.803021 
L 346.848 232.929356 
L 348.178909 232.889504 
L 348.711273 232.33972 
L 349.776 232.15027 
L 350.042182 232.379388 
L 350.308364 232.339799 
L 351.106909 231.650355 
L 351.639273 231.050703 
L 351.905455 230.947894 
L 352.171636 231.054276 
L 353.236364 230.251383 
L 353.768727 229.473605 
L 354.034909 229.404609 
L 354.301091 229.73831 
L 355.632 228.947031 
L 356.164364 228.293472 
L 356.962909 228.446888 
L 358.027636 228.983232 
L 358.293818 228.771038 
L 358.56 227.995305 
L 360.423273 226.273096 
L 360.689455 226.147209 
L 362.552727 223.350537 
L 363.617455 221.837827 
L 363.883636 221.361552 
L 364.416 219.564974 
L 364.948364 217.907381 
L 367.077818 212.485361 
L 368.941091 204.440057 
L 371.070545 200.797094 
L 372.135273 199.887872 
L 372.667636 199.482155 
L 375.063273 196.620544 
L 375.329455 196.522624 
L 375.595636 196.62567 
L 377.458909 194.264904 
L 377.991273 193.705087 
L 379.588364 190.712058 
L 380.919273 186.28914 
L 381.984 180.828154 
L 383.847273 170.487893 
L 384.113455 170.064998 
L 384.912 168.168551 
L 385.976727 166.574301 
L 387.041455 165.828089 
L 387.573818 165.737533 
L 388.106182 165.702263 
L 388.372364 165.920575 
L 390.235636 165.983848 
L 391.300364 166.006338 
L 391.832727 165.900192 
L 392.365091 165.744907 
L 392.631273 168.591166 
L 393.163636 168.427208 
L 395.026909 167.396619 
L 398.753455 164.324358 
L 400.084364 162.640343 
L 400.616727 161.845904 
L 400.882909 161.324149 
L 401.149091 161.373061 
L 401.681455 160.77318 
L 404.343273 156.35574 
L 404.875636 155.920169 
L 405.674182 154.816441 
L 406.738909 153.396138 
L 407.271273 152.799909 
L 407.803636 152.141917 
L 408.336 151.70129 
L 408.602182 151.280624 
L 409.134545 150.931746 
L 409.933091 150.044118 
L 412.328727 147.303004 
L 413.659636 146.024713 
L 414.192 145.361086 
L 416.853818 143.700807 
L 417.12 143.37498 
L 417.386182 143.248627 
L 417.918545 142.684439 
L 418.450909 142.715338 
L 418.983273 142.483472 
L 419.515636 142.321024 
L 421.378909 141.920073 
L 422.709818 142.46014 
L 423.242182 142.60368 
L 423.508364 142.537703 
L 425.371636 143.72075 
L 425.637818 143.627211 
L 425.904 144.436573 
L 426.170182 146.348451 
L 426.436364 152.367673 
L 426.436364 152.367673 
" clip-path="url(#p3de5670331)" style="fill: none; stroke: #ffa500; stroke-width: 3; stroke-linecap: square"/>
   </g>
   <g id="patch_3">
    <path d="M 7.2 331.2 
L 7.2 7.2 
" style="fill: none; stroke: #000000; stroke-width: 0.8; stroke-linejoin: miter; stroke-linecap: square"/>
   </g>
   <g id="patch_4">
    <path d="M 446.4 331.2 
L 446.4 7.2 
" style="fill: none; stroke: #000000; stroke-width: 0.8; stroke-linejoin: miter; stroke-linecap: square"/>
   </g>
   <g id="patch_5">
    <path d="M 7.2 331.2 
L 446.4 331.2 
" style="fill: none; stroke: #000000; stroke-width: 0.8; stroke-linejoin: miter; stroke-linecap: square"/>
   </g>
   <g id="patch_6">
    <path d="M 7.2 7.2 
L 446.4 7.2 
" style="fill: none; stroke: #000000; stroke-width: 0.8; stroke-linejoin: miter; stroke-linecap: square"/>
   </g>
  </g>
 </g>
 <defs>
  <clipPath id="p3de5670331">
   <rect x="7.2" y="7.2" width="439.2" height="324"/>
  </clipPath>
 </defs>
</svg>
