<?xml version="1.0" encoding="utf-8" standalone="no"?>
<!DOCTYPE svg PUBLIC "-//W3C//DTD SVG 1.1//EN"
  "http://www.w3.org/Graphics/SVG/1.1/DTD/svg11.dtd">
<svg xmlns:xlink="http://www.w3.org/1999/xlink" width="453.6pt" height="338.4pt" viewBox="0 0 453.6 338.4" xmlns="http://www.w3.org/2000/svg" version="1.1">
 <metadata>
  <rdf:RDF xmlns:dc="http://purl.org/dc/elements/1.1/" xmlns:cc="http://creativecommons.org/ns#" xmlns:rdf="http://www.w3.org/1999/02/22-rdf-syntax-ns#">
   <cc:Work>
    <dc:type rdf:resource="http://purl.org/dc/dcmitype/StillImage"/>
    <dc:date>2025-05-14T16:06:58.881696</dc:date>
    <dc:format>image/svg+xml</dc:format>
    <dc:creator>
     <cc:Agent>
      <dc:title>Matplotlib v3.10.1, https://matplotlib.org/</dc:title>
     </cc:Agent>
    </dc:creator>
   </cc:Work>
  </rdf:RDF>
 </metadata>
 <defs>
  <style type="text/css">*{stroke-linejoin: round; stroke-linecap: butt}</style>
 </defs>
 <g id="figure_1">
  <g id="patch_1">
   <path d="M 0 338.4 
L 453.6 338.4 
L 453.6 0 
L 0 0 
z
" style="fill: #ffffff"/>
  </g>
  <g id="axes_1">
   <g id="patch_2">
    <path d="M 7.2 331.2 
L 446.4 331.2 
L 446.4 7.2 
L 7.2 7.2 
z
" style="fill: #ffffff"/>
   </g>
   <g id="matplotlib.axis_1"/>
   <g id="matplotlib.axis_2"/>
   <g id="line2d_1">
    <path d="M 27.163636 316.472433 
L 167.973818 177.970905 
L 326.618182 21.927273 
L 426.436364 316.472727 
L 426.436364 316.472727 
" clip-path="url(#p2826cdc4fc)" style="fill: none; stroke-dasharray: 11.1,4.8; stroke-dashoffset: 0; stroke: #000000; stroke-width: 3"/>
   </g>
   <g id="line2d_2">
    <path d="M 27.163636 264.543252 
L 28.760727 265.911457 
L 29.825455 266.502985 
L 30.624 266.686988 
L 31.422545 266.644594 
L 32.487273 266.297045 
L 33.818182 265.580235 
L 36.746182 263.944763 
L 38.609455 263.224622 
L 43.666909 261.507789 
L 45.796364 260.448817 
L 48.724364 258.684586 
L 51.386182 257.19315 
L 53.781818 255.879238 
L 55.378909 254.71753 
L 58.573091 252.22726 
L 59.637818 251.696126 
L 60.968727 251.288526 
L 63.630545 250.577598 
L 64.961455 249.940195 
L 66.558545 248.893455 
L 68.688 247.204519 
L 75.342545 241.751552 
L 76.939636 240.74628 
L 78.536727 240.014139 
L 80.666182 239.342656 
L 82.529455 238.67334 
L 83.860364 237.953032 
L 85.457455 236.800129 
L 88.119273 234.782114 
L 89.450182 234.06142 
L 90.781091 233.604869 
L 92.378182 233.322503 
L 94.773818 232.943621 
L 95.838545 232.497472 
L 96.903273 231.748258 
L 98.234182 230.467826 
L 99.831273 228.966589 
L 100.629818 228.486863 
L 101.428364 228.291304 
L 102.226909 228.398239 
L 103.025455 228.776191 
L 104.090182 229.576265 
L 106.485818 231.522317 
L 107.284364 231.909196 
L 108.082909 232.062278 
L 108.881455 231.949979 
L 109.68 231.564479 
L 110.478545 230.924149 
L 111.543273 229.756454 
L 115.003636 225.564156 
L 116.068364 224.681128 
L 117.665455 223.704946 
L 119.528727 222.573576 
L 120.859636 221.462219 
L 122.190545 220.008156 
L 123.521455 218.191924 
L 124.852364 215.957703 
L 126.183273 213.26888 
L 129.643636 205.933078 
L 130.708364 204.386071 
L 131.773091 203.307817 
L 132.837818 202.570577 
L 134.701091 201.634529 
L 137.096727 200.650947 
L 138.427636 200.318633 
L 140.024727 200.185065 
L 142.686545 200.047626 
L 143.751273 199.740522 
L 144.816 199.194829 
L 146.146909 198.200082 
L 150.139636 194.873387 
L 151.204364 194.395163 
L 152.269091 194.17664 
L 153.6 194.182249 
L 155.995636 194.281056 
L 157.060364 194.071557 
L 158.125091 193.624468 
L 159.456 192.780512 
L 163.448727 189.936535 
L 164.513455 189.484356 
L 165.578182 189.269853 
L 166.642909 189.295503 
L 167.973818 189.573717 
L 169.837091 189.972772 
L 170.635636 189.943295 
L 171.434182 189.670531 
L 172.232727 189.066139 
L 173.031273 188.052027 
L 173.829818 186.577774 
L 174.628364 184.639596 
L 175.693091 181.436304 
L 179.952 167.61925 
L 181.282909 164.542969 
L 182.88 161.525396 
L 185.275636 157.575445 
L 186.606545 155.70614 
L 187.671273 154.56421 
L 188.469818 153.989505 
L 189.268364 153.681708 
L 190.066909 153.630338 
L 190.865455 153.792699 
L 192.196364 154.338945 
L 193.527273 154.871462 
L 194.325818 155.026203 
L 195.124364 154.991178 
L 195.922909 154.747163 
L 196.987636 154.12151 
L 198.318545 153.004317 
L 200.714182 150.927725 
L 201.778909 150.304319 
L 202.843636 149.972014 
L 203.908364 149.923278 
L 205.239273 150.141573 
L 207.368727 150.520384 
L 208.433455 150.442909 
L 209.498182 150.08685 
L 210.562909 149.458827 
L 212.16 148.18245 
L 213.757091 146.930214 
L 214.821818 146.388831 
L 215.620364 146.239708 
L 216.418909 146.346151 
L 217.217455 146.701964 
L 218.282182 147.473264 
L 219.879273 148.734314 
L 220.677818 149.07229 
L 221.210182 149.06525 
L 221.742545 148.80777 
L 222.274909 148.247637 
L 222.807273 147.338555 
L 223.339636 146.043147 
L 224.138182 143.326665 
L 224.936727 139.680068 
L 226.001455 133.551821 
L 228.130909 119.206728 
L 229.461818 111.012423 
L 230.526545 105.78002 
L 231.325091 102.720716 
L 232.123636 100.331535 
L 232.922182 98.49004 
L 233.986909 96.662852 
L 235.051636 95.330752 
L 236.116364 94.349198 
L 237.181091 93.660027 
L 238.245818 93.258585 
L 239.044364 93.1589 
L 239.842909 93.246067 
L 240.641455 93.529759 
L 241.44 94.009168 
L 242.504727 94.918215 
L 245.965091 98.290793 
L 246.763636 98.643727 
L 247.562182 98.692393 
L 248.360727 98.4317 
L 249.159273 97.903063 
L 250.490182 96.653934 
L 252.353455 94.910157 
L 253.418182 94.23647 
L 254.482909 93.864557 
L 255.547636 93.757657 
L 256.878545 93.901742 
L 259.008 94.460101 
L 260.338909 94.701746 
L 261.137455 94.663807 
L 261.936 94.424568 
L 262.734545 93.966735 
L 263.799273 93.069276 
L 266.194909 90.867473 
L 266.993455 90.42293 
L 267.792 90.201335 
L 268.856727 90.170453 
L 270.187636 90.154547 
L 270.986182 89.867959 
L 271.518545 89.463497 
L 272.050909 88.847921 
L 272.849455 87.492349 
L 273.648 85.631524 
L 274.712727 82.533104 
L 277.640727 73.521204 
L 278.705455 71.085516 
L 279.770182 69.259663 
L 280.834909 67.900368 
L 284.295273 63.944448 
L 285.36 62.175108 
L 286.690909 59.462541 
L 289.352727 53.817548 
L 290.151273 52.656341 
L 290.683636 52.141591 
L 291.216 51.860076 
L 291.748364 51.817379 
L 292.280727 52.002229 
L 293.079273 52.640154 
L 294.144 53.898079 
L 295.474909 55.398403 
L 296.273455 55.892612 
L 296.805818 55.967455 
L 297.338182 55.822106 
L 297.870545 55.464046 
L 298.669091 54.584757 
L 299.733818 52.987066 
L 302.129455 49.243558 
L 303.194182 47.975539 
L 304.258909 47.007538 
L 305.323636 46.296983 
L 306.654545 45.69317 
L 308.251636 45.248224 
L 311.712 44.391811 
L 314.373818 43.60917 
L 315.438545 43.540314 
L 316.503273 43.723531 
L 317.568 44.151887 
L 321.028364 45.891275 
L 321.826909 45.968172 
L 322.625455 45.814501 
L 323.424 45.435268 
L 324.754909 44.461878 
L 326.085818 43.493017 
L 326.884364 43.152355 
L 327.682909 43.115645 
L 328.215273 43.288978 
L 329.013818 43.856625 
L 329.812364 44.769833 
L 330.877091 46.418718 
L 332.474182 49.4072 
L 336.466909 57.363863 
L 337.531636 60.203644 
L 338.596364 63.816445 
L 339.661091 68.226915 
L 342.056727 79.579822 
L 343.653818 86.488832 
L 344.984727 91.234065 
L 346.581818 95.981406 
L 349.243636 103.701849 
L 350.574545 108.285301 
L 351.905455 113.625183 
L 353.236364 119.962051 
L 354.567273 127.616307 
L 355.898182 136.643727 
L 359.092364 159.100242 
L 360.157091 164.810316 
L 361.221818 169.250641 
L 362.286545 172.75756 
L 364.682182 180.224227 
L 365.746909 184.419519 
L 367.344 191.837152 
L 369.207273 200.497435 
L 370.272 204.537204 
L 371.336727 207.643981 
L 372.401455 209.91464 
L 373.466182 211.616273 
L 377.991273 218.087938 
L 379.588364 221.056011 
L 380.919273 223.98115 
L 382.250182 227.479467 
L 383.581091 231.720379 
L 384.912 236.755449 
L 389.437091 254.81014 
L 390.501818 257.617753 
L 391.300364 259.184273 
L 392.098909 260.366083 
L 393.163636 261.551259 
L 395.293091 263.737761 
L 396.357818 265.190956 
L 397.422545 267.024862 
L 398.753455 269.863287 
L 400.616727 274.578521 
L 402.48 279.241609 
L 403.544727 281.417773 
L 404.609455 283.079951 
L 405.674182 284.246006 
L 406.738909 285.018232 
L 407.803636 285.519909 
L 409.134545 285.914804 
L 410.997818 286.231897 
L 414.458182 286.536474 
L 420.048 286.839458 
L 421.112727 286.726956 
L 421.911273 286.466686 
L 422.709818 285.963446 
L 423.508364 285.144121 
L 424.306909 283.977864 
L 425.371636 281.95729 
L 426.436364 279.672929 
L 426.436364 279.672929 
" clip-path="url(#p2826cdc4fc)" style="fill: none; stroke: #0000ff; stroke-width: 3; stroke-linecap: square"/>
   </g>
   <g id="patch_3">
    <path d="M 7.2 331.2 
L 7.2 7.2 
" style="fill: none; stroke: #000000; stroke-width: 0.8; stroke-linejoin: miter; stroke-linecap: square"/>
   </g>
   <g id="patch_4">
    <path d="M 446.4 331.2 
L 446.4 7.2 
" style="fill: none; stroke: #000000; stroke-width: 0.8; stroke-linejoin: miter; stroke-linecap: square"/>
   </g>
   <g id="patch_5">
    <path d="M 7.2 331.2 
L 446.4 331.2 
" style="fill: none; stroke: #000000; stroke-width: 0.8; stroke-linejoin: miter; stroke-linecap: square"/>
   </g>
   <g id="patch_6">
    <path d="M 7.2 7.2 
L 446.4 7.2 
" style="fill: none; stroke: #000000; stroke-width: 0.8; stroke-linejoin: miter; stroke-linecap: square"/>
   </g>
  </g>
 </g>
 <defs>
  <clipPath id="p2826cdc4fc">
   <rect x="7.2" y="7.2" width="439.2" height="324"/>
  </clipPath>
 </defs>
</svg>
