<?xml version="1.0" encoding="utf-8" standalone="no"?>
<!DOCTYPE svg PUBLIC "-//W3C//DTD SVG 1.1//EN"
  "http://www.w3.org/Graphics/SVG/1.1/DTD/svg11.dtd">
<svg xmlns:xlink="http://www.w3.org/1999/xlink" width="453.6pt" height="338.4pt" viewBox="0 0 453.6 338.4" xmlns="http://www.w3.org/2000/svg" version="1.1">
 <metadata>
  <rdf:RDF xmlns:dc="http://purl.org/dc/elements/1.1/" xmlns:cc="http://creativecommons.org/ns#" xmlns:rdf="http://www.w3.org/1999/02/22-rdf-syntax-ns#">
   <cc:Work>
    <dc:type rdf:resource="http://purl.org/dc/dcmitype/StillImage"/>
    <dc:date>2025-05-14T16:10:59.191590</dc:date>
    <dc:format>image/svg+xml</dc:format>
    <dc:creator>
     <cc:Agent>
      <dc:title>Matplotlib v3.10.1, https://matplotlib.org/</dc:title>
     </cc:Agent>
    </dc:creator>
   </cc:Work>
  </rdf:RDF>
 </metadata>
 <defs>
  <style type="text/css">*{stroke-linejoin: round; stroke-linecap: butt}</style>
 </defs>
 <g id="figure_1">
  <g id="patch_1">
   <path d="M 0 338.4 
L 453.6 338.4 
L 453.6 0 
L 0 0 
z
" style="fill: #ffffff"/>
  </g>
  <g id="axes_1">
   <g id="patch_2">
    <path d="M 7.2 331.2 
L 446.4 331.2 
L 446.4 7.2 
L 7.2 7.2 
z
" style="fill: #ffffff"/>
   </g>
   <g id="matplotlib.axis_1"/>
   <g id="matplotlib.axis_2"/>
   <g id="line2d_1">
    <path d="M 27.163636 316.472689 
L 36.213818 314.637868 
L 44.731636 312.683868 
L 52.717091 310.626577 
L 60.436364 308.40558 
L 67.623273 306.109241 
L 74.544 303.667259 
L 81.198545 301.083932 
L 87.586909 298.365645 
L 93.709091 295.520987 
L 99.565091 292.560823 
L 105.421091 289.346374 
L 111.010909 286.020792 
L 116.334545 282.600853 
L 121.658182 278.914873 
L 126.715636 275.147915 
L 131.773091 271.103094 
L 136.564364 266.996272 
L 141.355636 262.60302 
L 146.146909 257.903301 
L 150.672 253.164094 
L 155.197091 248.113267 
L 159.722182 242.73035 
L 164.247273 236.993503 
L 168.772364 230.879442 
L 173.031273 224.75827 
L 177.290182 218.259033 
L 181.549091 211.358336 
L 185.808 204.031417 
L 190.066909 196.25195 
L 194.325818 187.991985 
L 198.584727 179.221808 
L 202.843636 169.90995 
L 206.836364 160.65838 
L 210.829091 150.872107 
L 214.821818 140.520206 
L 218.814545 129.570022 
L 222.807273 117.986952 
L 226.8 105.734409 
L 426.436364 316.472727 
L 426.436364 316.472727 
" clip-path="url(#pa0d5b890a7)" style="fill: none; stroke-dasharray: 11.1,4.8; stroke-dashoffset: 0; stroke: #000000; stroke-width: 3"/>
   </g>
   <g id="line2d_2">
    <path d="M 27.163636 304.303248 
L 27.429818 308.17722 
L 27.696 308.667552 
L 28.494545 308.457236 
L 29.293091 308.050295 
L 29.825455 307.75563 
L 30.091636 307.506542 
L 30.624 307.26443 
L 31.156364 306.754337 
L 31.422545 306.788611 
L 31.954909 306.362785 
L 33.285818 305.157914 
L 33.552 305.047226 
L 34.616727 304.006754 
L 35.415273 302.713143 
L 35.947636 301.239024 
L 37.012364 299.290127 
L 38.343273 297.167426 
L 39.674182 295.411348 
L 39.940364 296.758022 
L 40.206545 296.730459 
L 40.738909 296.402628 
L 41.005091 296.362969 
L 42.868364 294.288168 
L 43.134545 294.231788 
L 44.997818 291.731214 
L 45.264 292.028168 
L 45.530182 291.959211 
L 45.796364 291.636211 
L 46.861091 291.129221 
L 47.393455 291.290749 
L 48.192 290.909499 
L 48.458182 292.840982 
L 48.990545 292.774617 
L 49.789091 292.336935 
L 51.12 291.410995 
L 51.918545 290.761535 
L 52.450909 290.571835 
L 52.717091 291.792519 
L 53.515636 291.541462 
L 54.580364 290.876908 
L 55.112727 290.704662 
L 56.709818 290.098895 
L 56.976 290.3819 
L 57.774545 290.241687 
L 58.573091 289.765357 
L 60.170182 288.357662 
L 60.702545 288.283528 
L 60.968727 288.624159 
L 61.234909 295.699159 
L 61.767273 296.755018 
L 62.033455 297.073065 
L 62.565818 297.195329 
L 62.832 297.337425 
L 63.098182 297.341051 
L 63.896727 296.699167 
L 65.76 294.241134 
L 67.090909 292.185746 
L 67.623273 291.564423 
L 68.155636 290.979341 
L 68.688 290.662068 
L 68.954182 290.554044 
L 69.486545 290.569336 
L 69.752727 290.098437 
L 70.285091 289.817811 
L 70.551273 289.625624 
L 71.349818 289.647837 
L 72.414545 289.104089 
L 72.680727 288.866414 
L 72.946909 288.962526 
L 73.745455 288.79081 
L 74.011636 289.338024 
L 75.076364 288.589874 
L 75.874909 288.378815 
L 76.141091 288.572186 
L 76.673455 288.087758 
L 76.939636 287.746725 
L 78.004364 287.429295 
L 78.270545 287.336286 
L 78.802909 286.381494 
L 79.335273 285.46365 
L 79.867636 284.621973 
L 80.133818 284.105035 
L 80.4 283.908467 
L 83.061818 278.415494 
L 83.860364 276.371535 
L 85.191273 273.455744 
L 85.989818 270.953927 
L 86.522182 269.545474 
L 86.788364 269.214754 
L 87.320727 267.280925 
L 88.385455 262.524697 
L 89.716364 254.864345 
L 90.781091 248.368601 
L 91.313455 245.721997 
L 92.112 242.570553 
L 93.442909 237.715873 
L 93.975273 234.566339 
L 94.773818 229.784527 
L 95.04 228.638497 
L 95.306182 229.141897 
L 96.370909 226.938312 
L 96.903273 226.181373 
L 100.097455 222.32217 
L 100.363636 222.193219 
L 100.629818 221.937494 
L 101.162182 221.903725 
L 102.226909 222.435864 
L 103.025455 223.08377 
L 105.154909 225.922831 
L 105.421091 226.187149 
L 107.018182 228.705939 
L 107.550545 229.611685 
L 107.816727 230.105096 
L 108.615273 232.182205 
L 109.946182 235.259426 
L 111.010909 237.279828 
L 112.075636 239.080584 
L 112.341818 239.149826 
L 115.003636 243.306578 
L 115.536 243.846495 
L 116.334545 244.55662 
L 116.866909 244.810453 
L 118.730182 246.294204 
L 119.528727 246.806013 
L 120.327273 247.101148 
L 120.593455 247.26231 
L 120.859636 246.862698 
L 122.722909 247.681211 
L 124.053818 248.417614 
L 124.852364 248.807205 
L 125.118545 248.471016 
L 125.917091 248.674383 
L 126.449455 248.682433 
L 126.981818 248.489617 
L 127.780364 247.964886 
L 128.845091 247.464115 
L 129.111273 247.389584 
L 129.377455 251.320334 
L 130.708364 250.44525 
L 134.967273 247.11453 
L 136.032 246.273949 
L 139.758545 243.409229 
L 141.888 241.985613 
L 142.420364 241.423092 
L 145.348364 239.528849 
L 146.146909 238.946226 
L 146.413091 237.533999 
L 148.542545 236.634819 
L 149.873455 236.24148 
L 150.672 235.873272 
L 152.269091 235.145696 
L 155.197091 233.277778 
L 156.528 232.181793 
L 158.125091 230.882338 
L 159.988364 229.07269 
L 162.916364 225.82434 
L 163.182545 225.509889 
L 163.448727 225.569089 
L 165.844364 222.542993 
L 167.441455 220.248651 
L 168.24 218.880718 
L 170.103273 215.615128 
L 172.765091 210.562203 
L 177.822545 201.329936 
L 178.887273 199.863566 
L 180.218182 198.285502 
L 180.484364 198.445712 
L 180.750545 198.274398 
L 181.549091 197.440352 
L 183.412364 195.886191 
L 183.944727 195.588068 
L 184.477091 195.137117 
L 184.743273 195.094025 
L 185.541818 194.488878 
L 187.671273 192.837693 
L 188.736 192.129806 
L 189.002182 192.36477 
L 189.800727 191.82071 
L 190.599273 191.220084 
L 192.994909 189.922841 
L 193.261091 189.933981 
L 195.656727 188.943623 
L 196.987636 188.310412 
L 197.253818 188.102054 
L 197.52 188.220409 
L 198.052364 187.463268 
L 198.850909 185.735336 
L 200.980364 180.663204 
L 202.311273 178.687553 
L 203.109818 177.876786 
L 204.973091 176.340287 
L 212.692364 171.854061 
L 214.023273 170.960965 
L 216.951273 169.206215 
L 218.016 168.565674 
L 223.872 164.361121 
L 224.670545 163.974128 
L 226.267636 163.521018 
L 227.066182 163.577392 
L 227.864727 163.909433 
L 230.260364 165.376331 
L 232.389818 166.745018 
L 232.656 166.738347 
L 232.922182 165.812973 
L 233.188364 160.754149 
L 233.454545 153.158233 
L 233.720727 150.750512 
L 233.986909 150.512818 
L 234.785455 150.912381 
L 239.842909 153.571455 
L 244.900364 156.621243 
L 247.562182 158.023797 
L 248.094545 158.452152 
L 248.893091 158.830332 
L 250.490182 159.768118 
L 251.288727 160.161238 
L 252.087273 160.550531 
L 255.015273 161.8159 
L 256.346182 162.726456 
L 257.410909 163.515523 
L 258.209455 164.232364 
L 258.741818 164.682261 
L 260.072727 165.931653 
L 260.871273 166.421491 
L 261.669818 166.951094 
L 262.468364 167.49051 
L 262.734545 167.554134 
L 263.533091 168.126539 
L 264.065455 168.427383 
L 264.597818 168.710724 
L 264.864 169.205442 
L 265.662545 169.617181 
L 267.259636 170.802967 
L 267.792 171.238907 
L 268.058182 171.345026 
L 268.856727 171.923865 
L 269.122909 171.973532 
L 270.187636 172.64175 
L 270.453818 172.78184 
L 270.986182 173.177805 
L 272.317091 174.313433 
L 273.115636 175.190149 
L 273.381818 175.240553 
L 277.374545 181.574314 
L 278.173091 182.515181 
L 278.439273 182.890227 
L 278.705455 183.063297 
L 279.237818 183.602459 
L 279.770182 183.697078 
L 280.834909 183.756331 
L 281.367273 183.947326 
L 281.633455 184.013258 
L 281.899636 184.390042 
L 282.698182 184.623312 
L 282.964364 184.578105 
L 283.762909 184.937965 
L 284.295273 185.163414 
L 285.36 186.400069 
L 286.957091 189.544767 
L 287.755636 191.119223 
L 288.554182 192.828511 
L 290.151273 197.031097 
L 290.417455 197.238604 
L 292.014545 200.673463 
L 293.611636 203.296204 
L 294.410182 204.533509 
L 294.942545 205.049734 
L 296.539636 206.844635 
L 297.072 207.370015 
L 298.136727 208.380177 
L 298.669091 208.805803 
L 298.935273 208.67722 
L 301.330909 210.781964 
L 301.863273 211.189866 
L 302.661818 211.669618 
L 302.928 211.916608 
L 303.194182 211.678466 
L 303.460364 212.003082 
L 303.726545 212.116969 
L 303.992727 212.429664 
L 304.258909 212.448476 
L 305.057455 213.252773 
L 305.589818 213.669172 
L 305.856 214.014004 
L 306.388364 214.417333 
L 306.920727 214.996708 
L 307.186909 215.384482 
L 307.453091 215.225782 
L 307.985455 215.949188 
L 308.251636 216.388657 
L 308.517818 216.481337 
L 308.784 216.888871 
L 309.582545 217.529719 
L 309.848727 217.861822 
L 310.114909 218.374492 
L 310.381091 219.541413 
L 310.647273 221.892225 
L 310.913455 222.966827 
L 311.179636 223.515435 
L 311.445818 223.777585 
L 311.712 223.834222 
L 313.575273 225.857855 
L 313.841455 225.979845 
L 314.64 227.03014 
L 315.704727 228.45384 
L 315.970909 228.411556 
L 316.503273 229.030774 
L 318.632727 231.903947 
L 319.963636 234.019303 
L 320.229818 233.827062 
L 321.826909 236.110879 
L 322.625455 237.50727 
L 323.424 238.92321 
L 324.222545 240.507137 
L 324.488727 238.361058 
L 325.287273 239.533694 
L 325.819636 240.235428 
L 327.416727 242.928455 
L 328.747636 244.752583 
L 329.546182 245.902045 
L 330.078545 246.557298 
L 331.143273 248.065668 
L 331.675636 248.608841 
L 332.740364 249.407336 
L 333.006545 249.476516 
L 334.071273 250.507948 
L 335.402182 252.423171 
L 336.200727 253.296587 
L 336.999273 253.831342 
L 337.265455 253.72665 
L 337.797818 254.079267 
L 338.596364 254.772007 
L 339.128727 255.49217 
L 340.193455 256.703316 
L 340.459636 256.840528 
L 341.258182 257.785599 
L 341.524364 258.281911 
L 342.322909 258.968849 
L 342.855273 259.275373 
L 343.387636 259.881652 
L 343.92 260.314366 
L 344.452364 260.950373 
L 344.984727 261.383881 
L 345.517091 262.10393 
L 345.783273 262.114587 
L 348.178909 265.718689 
L 349.776 269.142294 
L 350.042182 269.056449 
L 353.768727 277.659046 
L 354.034909 278.337544 
L 354.301091 278.592856 
L 356.962909 283.517879 
L 358.293818 287.012192 
L 358.56 283.216591 
L 358.826182 283.428506 
L 360.157091 285.784783 
L 362.020364 289.106299 
L 362.552727 289.958706 
L 362.818909 289.975446 
L 365.746909 292.953487 
L 366.811636 292.921028 
L 367.077818 292.486165 
L 368.408727 291.995285 
L 368.941091 292.106651 
L 369.739636 292.025675 
L 371.070545 291.032036 
L 371.336727 290.551215 
L 372.933818 290.203805 
L 375.063273 290.593748 
L 375.329455 290.749632 
L 375.595636 291.187979 
L 376.394182 291.659407 
L 376.660364 291.673127 
L 378.257455 293.061037 
L 379.588364 294.729651 
L 381.451636 297.93469 
L 382.250182 299.071762 
L 382.782545 299.735086 
L 383.847273 300.673986 
L 384.113455 301.065977 
L 385.444364 301.55062 
L 385.976727 301.858667 
L 386.509091 302.121294 
L 387.573818 303.004756 
L 388.106182 303.549003 
L 389.703273 304.690704 
L 391.566545 306.815623 
L 392.365091 307.534416 
L 392.631273 307.528861 
L 394.760727 308.95959 
L 395.559273 309.391689 
L 396.890182 309.751637 
L 400.882909 310.225357 
L 401.415273 310.310486 
L 406.472727 310.589714 
L 407.271273 310.284966 
L 408.602182 310.375248 
L 409.400727 310.548493 
L 409.666909 310.762939 
L 411.530182 310.732499 
L 425.105455 309.96207 
L 425.637818 309.782397 
L 425.904 309.592993 
L 426.170182 309.147776 
L 426.436364 306.840346 
L 426.436364 306.840346 
" clip-path="url(#pa0d5b890a7)" style="fill: none; stroke: #ffa500; stroke-width: 3; stroke-linecap: square"/>
   </g>
   <g id="patch_3">
    <path d="M 7.2 331.2 
L 7.2 7.2 
" style="fill: none; stroke: #000000; stroke-width: 0.8; stroke-linejoin: miter; stroke-linecap: square"/>
   </g>
   <g id="patch_4">
    <path d="M 446.4 331.2 
L 446.4 7.2 
" style="fill: none; stroke: #000000; stroke-width: 0.8; stroke-linejoin: miter; stroke-linecap: square"/>
   </g>
   <g id="patch_5">
    <path d="M 7.2 331.2 
L 446.4 331.2 
" style="fill: none; stroke: #000000; stroke-width: 0.8; stroke-linejoin: miter; stroke-linecap: square"/>
   </g>
   <g id="patch_6">
    <path d="M 7.2 7.2 
L 446.4 7.2 
" style="fill: none; stroke: #000000; stroke-width: 0.8; stroke-linejoin: miter; stroke-linecap: square"/>
   </g>
  </g>
 </g>
 <defs>
  <clipPath id="pa0d5b890a7">
   <rect x="7.2" y="7.2" width="439.2" height="324"/>
  </clipPath>
 </defs>
</svg>
