<?xml version="1.0" encoding="utf-8" standalone="no"?>
<!DOCTYPE svg PUBLIC "-//W3C//DTD SVG 1.1//EN"
  "http://www.w3.org/Graphics/SVG/1.1/DTD/svg11.dtd">
<svg xmlns:xlink="http://www.w3.org/1999/xlink" width="453.6pt" height="338.4pt" viewBox="0 0 453.6 338.4" xmlns="http://www.w3.org/2000/svg" version="1.1">
 <metadata>
  <rdf:RDF xmlns:dc="http://purl.org/dc/elements/1.1/" xmlns:cc="http://creativecommons.org/ns#" xmlns:rdf="http://www.w3.org/1999/02/22-rdf-syntax-ns#">
   <cc:Work>
    <dc:type rdf:resource="http://purl.org/dc/dcmitype/StillImage"/>
    <dc:date>2025-05-14T16:10:59.185472</dc:date>
    <dc:format>image/svg+xml</dc:format>
    <dc:creator>
     <cc:Agent>
      <dc:title>Matplotlib v3.10.1, https://matplotlib.org/</dc:title>
     </cc:Agent>
    </dc:creator>
   </cc:Work>
  </rdf:RDF>
 </metadata>
 <defs>
  <style type="text/css">*{stroke-linejoin: round; stroke-linecap: butt}</style>
 </defs>
 <g id="figure_1">
  <g id="patch_1">
   <path d="M 0 338.4 
L 453.6 338.4 
L 453.6 0 
L 0 0 
z
" style="fill: #ffffff"/>
  </g>
  <g id="axes_1">
   <g id="patch_2">
    <path d="M 7.2 331.2 
L 446.4 331.2 
L 446.4 7.2 
L 7.2 7.2 
z
" style="fill: #ffffff"/>
   </g>
   <g id="matplotlib.axis_1"/>
   <g id="matplotlib.axis_2"/>
   <g id="line2d_1">
    <path d="M 27.163636 316.472588 
L 61.234909 176.943108 
L 113.140364 292.290378 
L 113.406545 291.945833 
L 145.082182 201.300283 
L 145.348364 201.462907 
L 148.276364 218.428907 
L 151.204364 234.179785 
L 154.132364 248.802693 
L 157.060364 262.378352 
L 159.988364 274.981758 
L 162.916364 286.682551 
L 165.844364 297.545366 
L 166.376727 299.095422 
L 186.340364 312.037315 
L 248.094545 246.886781 
L 248.360727 246.37484 
L 262.202182 162.305158 
L 262.468364 162.324804 
L 288.288 298.732776 
L 288.554182 296.789615 
L 299.201455 184.937868 
L 299.467636 183.906393 
L 302.928 198.733205 
L 306.388364 212.555411 
L 309.848727 225.441148 
L 313.309091 237.453767 
L 316.769455 248.652363 
L 320.229818 259.092186 
L 323.690182 268.824684 
L 327.150545 277.897733 
L 330.610909 286.355961 
L 334.071273 294.241126 
L 337.531636 301.591965 
L 340.992 308.444786 
L 344.452364 314.833208 
L 345.250909 316.244926 
L 345.517091 316.011983 
L 383.314909 188.057074 
L 383.581091 188.561036 
L 410.199273 313.231777 
L 410.465455 313.832702 
L 426.436364 131.018187 
L 426.436364 131.018187 
" clip-path="url(#p65fc05a369)" style="fill: none; stroke-dasharray: 11.1,4.8; stroke-dashoffset: 0; stroke: #000000; stroke-width: 3"/>
   </g>
   <g id="line2d_2">
    <path d="M 27.163636 301.644743 
L 29.026909 303.035221 
L 30.091636 303.581871 
L 31.156364 303.866785 
L 32.221091 303.917344 
L 33.552 303.75075 
L 35.415273 303.276776 
L 37.810909 302.419334 
L 40.206545 301.324246 
L 42.602182 299.982603 
L 44.731636 298.541648 
L 47.127273 296.620991 
L 51.12 293.03423 
L 53.515636 290.642016 
L 55.378909 288.419997 
L 57.774545 285.514304 
L 58.839273 284.534675 
L 59.904 283.82796 
L 63.630545 281.716543 
L 65.227636 280.28813 
L 68.421818 277.368415 
L 72.946909 273.686803 
L 76.141091 271.343865 
L 79.069091 269.500859 
L 84.925091 266.205647 
L 87.586909 264.910393 
L 91.845818 262.991435 
L 92.910545 262.146364 
L 93.975273 260.99813 
L 95.572364 258.858639 
L 97.169455 256.791897 
L 98.234182 255.795775 
L 99.032727 255.332641 
L 99.831273 255.122865 
L 100.629818 255.153677 
L 101.428364 255.404845 
L 102.226909 255.856586 
L 103.291636 256.740343 
L 104.356364 257.903872 
L 105.953455 260.020988 
L 108.349091 263.254375 
L 109.413818 264.320603 
L 110.212364 264.83013 
L 111.010909 265.028665 
L 111.543273 264.968105 
L 112.075636 264.74439 
L 112.874182 264.096629 
L 113.672727 263.078927 
L 114.471273 261.711245 
L 115.536 259.407558 
L 117.133091 255.226307 
L 119.528727 248.895882 
L 120.593455 246.708804 
L 121.658182 245.095782 
L 122.456727 244.238026 
L 123.521455 243.45377 
L 124.852364 242.822687 
L 129.111273 241.135933 
L 130.176 240.412412 
L 131.240727 239.444105 
L 132.571636 237.905271 
L 134.701091 235.011136 
L 138.161455 229.992393 
L 140.024727 226.83099 
L 142.420364 222.181799 
L 144.283636 218.690548 
L 145.614545 216.649026 
L 146.679273 215.416917 
L 147.477818 214.75918 
L 148.276364 214.344949 
L 149.074909 214.189295 
L 149.873455 214.314427 
L 150.672 214.752 
L 151.470545 215.539601 
L 152.269091 216.709129 
L 153.067636 218.269207 
L 154.132364 220.893791 
L 158.391273 232.372217 
L 159.722182 234.837144 
L 162.384 239.430033 
L 163.981091 242.776664 
L 166.376727 247.89434 
L 167.441455 249.729937 
L 168.506182 251.163828 
L 169.570909 252.240849 
L 170.901818 253.267009 
L 173.563636 255.203738 
L 174.894545 256.440626 
L 176.225455 257.950304 
L 177.822545 260.135986 
L 179.685818 263.10541 
L 182.081455 266.960817 
L 183.146182 268.309618 
L 183.944727 269.017109 
L 184.743273 269.383706 
L 185.275636 269.410436 
L 185.808 269.250024 
L 186.340364 268.897788 
L 187.138909 268.015353 
L 187.937455 266.740341 
L 189.002182 264.544389 
L 190.865455 259.964505 
L 192.728727 255.482071 
L 194.325818 252.244413 
L 196.189091 249.073433 
L 200.448 242.056505 
L 201.778909 239.393376 
L 203.109818 236.163688 
L 204.440727 232.309576 
L 208.433455 220.186396 
L 209.764364 217.108052 
L 211.095273 214.566667 
L 216.685091 204.635941 
L 219.080727 199.468988 
L 222.541091 191.843963 
L 223.605818 189.973562 
L 224.670545 188.578522 
L 225.469091 187.878387 
L 226.267636 187.456509 
L 227.066182 187.261819 
L 228.130909 187.229814 
L 230.526545 187.246773 
L 231.591273 187.000687 
L 232.656 186.515431 
L 233.720727 185.781553 
L 234.785455 184.800648 
L 236.116364 183.222567 
L 237.447273 181.23833 
L 238.778182 178.851195 
L 240.375273 175.525246 
L 242.504727 170.506959 
L 244.634182 164.881402 
L 245.965091 160.830835 
L 247.029818 156.988486 
L 248.094545 152.301311 
L 249.159273 146.55149 
L 250.490182 137.946368 
L 253.418182 118.096223 
L 254.482909 112.546069 
L 255.281455 109.315363 
L 256.08 106.855606 
L 256.878545 105.06311 
L 257.677091 103.798952 
L 258.475636 102.920366 
L 259.540364 102.136724 
L 260.871273 101.498431 
L 262.468364 100.994407 
L 263.799273 100.805045 
L 264.864 100.905555 
L 265.662545 101.189616 
L 266.461091 101.684562 
L 267.525818 102.673736 
L 268.856727 104.306083 
L 270.986182 107.001112 
L 272.317091 108.283826 
L 273.914182 109.447439 
L 275.245091 110.468758 
L 276.043636 111.292955 
L 276.842182 112.402195 
L 277.640727 113.911667 
L 278.439273 115.942805 
L 279.237818 118.611658 
L 280.036364 122.020384 
L 280.834909 126.249832 
L 281.899636 133.253979 
L 282.964364 141.822548 
L 284.561455 156.958377 
L 286.158545 172.010813 
L 286.957091 177.809598 
L 287.489455 180.498377 
L 288.021818 182.010166 
L 288.288 182.277767 
L 288.554182 182.203469 
L 288.820364 181.781346 
L 289.086545 181.010713 
L 289.618909 178.449217 
L 290.151273 174.624223 
L 290.949818 166.943615 
L 292.546909 148.043475 
L 293.877818 133.395131 
L 294.676364 126.592548 
L 295.474909 121.614957 
L 296.007273 119.279937 
L 296.539636 117.648345 
L 297.072 116.622742 
L 297.604364 116.099477 
L 298.136727 115.9812 
L 298.669091 116.184414 
L 299.201455 116.643019 
L 300 117.705473 
L 301.064727 119.661892 
L 302.395636 122.740104 
L 306.122182 132.014172 
L 307.186909 133.876665 
L 308.251636 135.208607 
L 310.114909 137.225736 
L 310.647273 138.11066 
L 311.179636 139.309876 
L 311.712 140.910359 
L 312.510545 144.190943 
L 313.309091 148.561929 
L 314.373818 155.768307 
L 316.769455 172.776003 
L 317.834182 178.431082 
L 318.632727 181.594214 
L 319.431273 184.008123 
L 320.762182 187.126135 
L 322.359273 190.895468 
L 323.424 194.067317 
L 324.488727 197.982955 
L 325.553455 202.717821 
L 326.884364 209.855536 
L 328.215273 218.378257 
L 329.812364 230.259099 
L 335.402182 274.029286 
L 336.733091 282.025178 
L 338.064 288.552284 
L 339.128727 292.731773 
L 340.193455 296.035818 
L 341.258182 298.524773 
L 342.056727 299.897462 
L 342.855273 300.879511 
L 343.653818 301.495718 
L 344.452364 301.759267 
L 344.984727 301.737079 
L 345.517091 301.548653 
L 346.049455 301.182431 
L 346.848 300.267257 
L 347.646545 298.865637 
L 348.445091 296.93443 
L 349.243636 294.458402 
L 350.308364 290.365007 
L 351.905455 283.009291 
L 354.301091 271.789983 
L 355.632 266.673109 
L 356.962909 262.506285 
L 361.488 249.50027 
L 363.617455 242.025904 
L 367.344 228.557887 
L 368.408727 225.5119 
L 369.473455 223.169936 
L 370.272 221.888029 
L 371.070545 220.970793 
L 371.869091 220.360502 
L 372.667636 220.001467 
L 373.466182 219.849043 
L 374.530909 219.904837 
L 375.861818 220.261273 
L 378.257455 220.982757 
L 379.056 221.014701 
L 379.854545 220.824953 
L 380.653091 220.339697 
L 381.451636 219.50523 
L 382.250182 218.320032 
L 383.847273 215.328837 
L 384.645818 213.973554 
L 385.178182 213.32348 
L 385.710545 212.977516 
L 386.242909 213.005247 
L 386.775273 213.451562 
L 387.307636 214.331018 
L 387.84 215.626636 
L 388.638545 218.243899 
L 389.703273 222.609759 
L 393.163636 238.45803 
L 395.026909 247.783143 
L 400.616727 277.292296 
L 401.947636 282.558843 
L 403.278545 286.833856 
L 404.609455 290.30609 
L 405.940364 293.208145 
L 407.271273 295.591405 
L 408.336 297.001343 
L 409.134545 297.675847 
L 409.666909 297.917142 
L 410.199273 297.985261 
L 410.731636 297.883665 
L 411.530182 297.440924 
L 412.328727 296.714489 
L 413.659636 295.135886 
L 415.522909 292.903039 
L 416.587636 291.901302 
L 417.652364 291.163879 
L 418.717091 290.662685 
L 420.580364 290.105554 
L 421.911273 289.601252 
L 422.709818 289.084351 
L 423.508364 288.329594 
L 424.573091 286.935621 
L 426.436364 283.897805 
L 426.436364 283.897805 
" clip-path="url(#p65fc05a369)" style="fill: none; stroke: #ffa500; stroke-width: 3; stroke-linecap: square"/>
   </g>
   <g id="patch_3">
    <path d="M 7.2 331.2 
L 7.2 7.2 
" style="fill: none; stroke: #000000; stroke-width: 0.8; stroke-linejoin: miter; stroke-linecap: square"/>
   </g>
   <g id="patch_4">
    <path d="M 446.4 331.2 
L 446.4 7.2 
" style="fill: none; stroke: #000000; stroke-width: 0.8; stroke-linejoin: miter; stroke-linecap: square"/>
   </g>
   <g id="patch_5">
    <path d="M 7.2 331.2 
L 446.4 331.2 
" style="fill: none; stroke: #000000; stroke-width: 0.8; stroke-linejoin: miter; stroke-linecap: square"/>
   </g>
   <g id="patch_6">
    <path d="M 7.2 7.2 
L 446.4 7.2 
" style="fill: none; stroke: #000000; stroke-width: 0.8; stroke-linejoin: miter; stroke-linecap: square"/>
   </g>
  </g>
 </g>
 <defs>
  <clipPath id="p65fc05a369">
   <rect x="7.2" y="7.2" width="439.2" height="324"/>
  </clipPath>
 </defs>
</svg>
