<?xml version="1.0" encoding="utf-8" standalone="no"?>
<!DOCTYPE svg PUBLIC "-//W3C//DTD SVG 1.1//EN"
  "http://www.w3.org/Graphics/SVG/1.1/DTD/svg11.dtd">
<svg xmlns:xlink="http://www.w3.org/1999/xlink" width="453.6pt" height="338.4pt" viewBox="0 0 453.6 338.4" xmlns="http://www.w3.org/2000/svg" version="1.1">
 <metadata>
  <rdf:RDF xmlns:dc="http://purl.org/dc/elements/1.1/" xmlns:cc="http://creativecommons.org/ns#" xmlns:rdf="http://www.w3.org/1999/02/22-rdf-syntax-ns#">
   <cc:Work>
    <dc:type rdf:resource="http://purl.org/dc/dcmitype/StillImage"/>
    <dc:date>2025-05-14T16:00:38.323445</dc:date>
    <dc:format>image/svg+xml</dc:format>
    <dc:creator>
     <cc:Agent>
      <dc:title>Matplotlib v3.10.1, https://matplotlib.org/</dc:title>
     </cc:Agent>
    </dc:creator>
   </cc:Work>
  </rdf:RDF>
 </metadata>
 <defs>
  <style type="text/css">*{stroke-linejoin: round; stroke-linecap: butt}</style>
 </defs>
 <g id="figure_1">
  <g id="patch_1">
   <path d="M 0 338.4 
L 453.6 338.4 
L 453.6 0 
L 0 0 
z
" style="fill: #ffffff"/>
  </g>
  <g id="axes_1">
   <g id="patch_2">
    <path d="M 7.2 331.2 
L 446.4 331.2 
L 446.4 7.2 
L 7.2 7.2 
z
" style="fill: #ffffff"/>
   </g>
   <g id="matplotlib.axis_1"/>
   <g id="matplotlib.axis_2"/>
   <g id="line2d_1">
    <path d="M 27.163636 316.472693 
L 326.884364 281.875362 
L 331.409455 280.391512 
L 335.668364 278.768046 
L 339.661091 277.014841 
L 343.387636 275.147055 
L 347.114182 273.024567 
L 350.574545 270.795323 
L 353.768727 268.488964 
L 356.962909 265.915538 
L 360.157091 263.044086 
L 363.085091 260.120729 
L 366.013091 256.888491 
L 368.941091 253.31474 
L 371.869091 249.363379 
L 374.530909 245.410074 
L 377.192727 241.078805 
L 379.854545 236.333413 
L 382.516364 231.134315 
L 385.178182 225.438128 
L 387.84 219.197346 
L 390.501818 212.359825 
L 393.163636 204.868632 
L 395.825455 196.661178 
L 398.487273 187.669028 
L 401.149091 177.817156 
L 403.810909 167.023338 
L 406.472727 155.197535 
L 409.134545 142.24109 
L 411.796364 128.045822 
L 414.458182 112.49326 
L 416.853818 97.228674 
L 419.249455 80.656672 
L 421.645091 62.665227 
L 424.040727 43.132675 
L 426.436364 21.927273 
L 426.436364 21.927273 
" clip-path="url(#pfcdb2b31b9)" style="fill: none; stroke-dasharray: 11.1,4.8; stroke-dashoffset: 0; stroke: #000000; stroke-width: 3"/>
   </g>
   <g id="line2d_2">
    <path d="M 27.163636 287.781414 
L 27.429818 293.432541 
L 27.696 294.643513 
L 27.962182 294.928443 
L 28.228364 294.753593 
L 29.026909 294.817334 
L 30.624 294.047787 
L 31.156364 293.886722 
L 31.688727 293.380383 
L 32.221091 293.014778 
L 32.753455 292.455218 
L 33.818182 292.036079 
L 35.149091 290.811081 
L 35.415273 290.549776 
L 35.681455 289.802662 
L 36.213818 289.502351 
L 37.544727 288.028073 
L 38.875636 287.122981 
L 39.674182 286.2447 
L 39.940364 286.193609 
L 40.738909 285.572644 
L 41.005091 285.480945 
L 41.537455 284.573678 
L 42.602182 282.892219 
L 43.400727 282.398541 
L 43.666909 281.897235 
L 43.933091 280.940582 
L 44.199273 275.557635 
L 44.731636 274.894806 
L 45.796364 274.716513 
L 46.062545 274.751305 
L 46.861091 274.15344 
L 47.659636 273.317998 
L 47.925818 273.394675 
L 48.192 273.287854 
L 48.458182 272.005991 
L 48.990545 271.216055 
L 49.256727 270.90947 
L 49.789091 269.227513 
L 50.055273 268.855495 
L 50.321455 269.107981 
L 51.12 268.216657 
L 51.652364 267.076658 
L 52.450909 264.991152 
L 52.717091 262.955247 
L 52.983273 263.193833 
L 53.249455 263.165716 
L 53.781818 262.484774 
L 54.846545 260.441065 
L 55.112727 260.520701 
L 55.378909 260.804608 
L 55.911273 260.973205 
L 57.242182 258.64921 
L 57.508364 258.416278 
L 57.774545 258.664151 
L 58.040727 259.085093 
L 58.306909 258.930664 
L 58.839273 257.720795 
L 59.371636 257.003617 
L 59.637818 256.511391 
L 59.904 256.291446 
L 60.170182 256.989475 
L 60.436364 257.249282 
L 60.702545 257.132308 
L 60.968727 256.539745 
L 61.234909 253.000623 
L 61.767273 252.209125 
L 62.033455 251.679706 
L 62.299636 251.57073 
L 62.832 252.445858 
L 63.098182 252.612559 
L 63.364364 252.528337 
L 63.630545 252.232387 
L 63.896727 252.14015 
L 64.695273 251.080976 
L 64.961455 251.265571 
L 65.493818 252.242679 
L 65.76 252.317162 
L 66.292364 251.810285 
L 66.558545 251.562123 
L 67.090909 250.070678 
L 67.357091 249.992882 
L 67.623273 250.748337 
L 67.889455 251.164008 
L 68.155636 251.127416 
L 68.688 250.369293 
L 68.954182 250.025058 
L 69.752727 247.508137 
L 70.285091 249.047744 
L 70.551273 249.239226 
L 70.817455 249.145159 
L 71.882182 247.323112 
L 72.148364 246.876849 
L 72.414545 247.362447 
L 72.946909 248.824432 
L 73.213091 248.720613 
L 73.479273 248.226724 
L 73.745455 248.146826 
L 74.011636 248.547021 
L 74.277818 248.200732 
L 74.544 247.498666 
L 74.810182 247.801718 
L 75.076364 249.189366 
L 75.342545 249.832571 
L 75.608727 249.964344 
L 75.874909 249.801847 
L 76.141091 249.990485 
L 76.407273 249.998715 
L 76.939636 248.678882 
L 77.205818 248.692005 
L 77.738182 250.502672 
L 78.004364 250.882502 
L 78.270545 249.830122 
L 78.536727 249.906075 
L 79.069091 249.169404 
L 79.601455 247.983052 
L 79.867636 248.462558 
L 80.4 250.067237 
L 80.666182 250.223018 
L 80.932364 249.963813 
L 81.464727 249.88495 
L 81.997091 248.315467 
L 82.263273 248.451691 
L 82.529455 249.866898 
L 82.795636 250.387016 
L 83.328 249.860972 
L 83.594182 249.887733 
L 83.860364 249.46974 
L 84.392727 247.630175 
L 84.658909 247.421616 
L 84.925091 248.139268 
L 85.191273 248.39627 
L 85.457455 248.475896 
L 85.723636 248.412948 
L 86.256 247.306977 
L 87.054545 244.922844 
L 87.320727 244.926258 
L 87.853091 245.696057 
L 88.119273 245.491338 
L 88.385455 244.831117 
L 88.917818 244.332444 
L 89.450182 243.037414 
L 89.716364 243.109434 
L 89.982545 243.850937 
L 90.248727 243.887203 
L 91.313455 243.002108 
L 91.845818 241.521311 
L 92.112 241.251111 
L 92.378182 241.263242 
L 92.644364 240.859615 
L 93.442909 240.230793 
L 93.709091 240.010277 
L 94.241455 238.894391 
L 94.507636 238.069308 
L 94.773818 237.788592 
L 95.04 237.786344 
L 95.306182 236.83324 
L 95.572364 236.788314 
L 95.838545 236.517017 
L 96.104727 236.564129 
L 96.370909 236.363513 
L 96.637091 235.836369 
L 96.903273 234.957651 
L 97.169455 234.476626 
L 97.701818 234.183796 
L 98.234182 233.846435 
L 98.500364 233.558933 
L 98.766545 233.08027 
L 99.565091 230.743328 
L 99.831273 230.626034 
L 100.629818 229.545946 
L 100.896 228.908574 
L 101.960727 224.716135 
L 102.493091 224.746788 
L 102.759273 224.440089 
L 103.557818 221.699203 
L 104.090182 218.880551 
L 104.356364 217.938113 
L 104.888727 218.593708 
L 105.154909 218.335692 
L 106.752 212.881071 
L 107.284364 212.886057 
L 107.550545 212.579902 
L 107.816727 212.009683 
L 108.615273 209.050467 
L 109.147636 207.204635 
L 109.413818 206.870662 
L 109.68 207.055336 
L 109.946182 206.80523 
L 110.744727 206.710303 
L 111.010909 206.485372 
L 111.277091 205.816662 
L 111.543273 204.807712 
L 111.809455 204.398958 
L 112.075636 204.810178 
L 112.341818 204.442392 
L 112.608 204.551399 
L 113.406545 205.369723 
L 113.672727 205.107301 
L 114.205091 203.810752 
L 115.003636 205.052508 
L 115.536 205.963354 
L 116.068364 205.688071 
L 116.334545 205.456811 
L 116.866909 205.542942 
L 117.665455 207.479154 
L 117.931636 208.151419 
L 118.464 208.090112 
L 118.996364 208.727203 
L 119.262545 209.296246 
L 120.061091 212.210219 
L 121.392 215.7057 
L 122.190545 216.928469 
L 122.456727 216.949475 
L 123.521455 217.909101 
L 124.053818 218.56704 
L 124.32 218.860528 
L 124.852364 219.973737 
L 125.917091 223.494253 
L 127.248 227.800035 
L 128.046545 230.444151 
L 128.312727 230.986921 
L 128.578909 231.266988 
L 128.845091 231.320745 
L 129.111273 231.114819 
L 129.377455 225.034579 
L 129.643636 225.034114 
L 129.909818 225.269035 
L 130.974545 227.021309 
L 131.506909 227.532794 
L 132.571636 229.380926 
L 133.370182 230.334372 
L 133.636364 231.046999 
L 134.701091 232.494953 
L 135.233455 232.740047 
L 135.499636 232.798913 
L 136.298182 233.481001 
L 137.629091 234.600416 
L 137.895273 235.432425 
L 139.492364 236.487312 
L 140.290909 236.555491 
L 140.557091 236.499794 
L 141.888 237.308928 
L 142.154182 237.657121 
L 143.218909 238.049618 
L 143.751273 238.458618 
L 145.614545 239.950454 
L 145.880727 240.161893 
L 146.146909 240.577696 
L 146.413091 241.370098 
L 147.211636 242.423063 
L 147.744 242.888383 
L 148.276364 243.641753 
L 148.542545 243.967019 
L 149.607273 245.832794 
L 150.139636 246.456788 
L 150.405818 246.987984 
L 150.938182 248.575318 
L 151.736727 250.62855 
L 155.463273 258.631149 
L 156.794182 260.481138 
L 158.657455 262.286221 
L 159.988364 263.655356 
L 160.520727 264.00362 
L 161.053091 264.507604 
L 162.384 265.650101 
L 162.916364 265.955417 
L 163.182545 266.187481 
L 163.448727 266.718172 
L 163.981091 267.057429 
L 164.779636 267.382392 
L 165.312 267.494028 
L 167.441455 268.430089 
L 167.973818 268.963492 
L 170.369455 270.192743 
L 171.168 270.906011 
L 171.700364 271.397784 
L 171.966545 272.001492 
L 173.829818 273.227276 
L 174.362182 273.612816 
L 175.160727 274.103602 
L 177.024 275.783816 
L 177.822545 276.086596 
L 179.419636 277.339329 
L 179.952 277.491818 
L 180.218182 277.747131 
L 180.484364 278.912889 
L 181.282909 279.702538 
L 181.549091 279.908964 
L 182.613818 280.124088 
L 183.146182 280.466247 
L 183.678545 280.957603 
L 185.541818 282.267045 
L 186.074182 282.752667 
L 187.138909 283.438081 
L 187.671273 283.702 
L 188.469818 284.299943 
L 189.268364 285.03938 
L 191.664 285.425779 
L 192.728727 285.424712 
L 194.059636 285.662817 
L 195.656727 285.424607 
L 196.721455 285.463204 
L 199.383273 284.595509 
L 199.915636 284.158643 
L 200.448 283.890252 
L 200.980364 283.765833 
L 201.512727 283.775934 
L 201.778909 283.728807 
L 202.577455 283.195475 
L 204.440727 282.71604 
L 204.973091 282.457148 
L 205.771636 282.48591 
L 206.037818 282.62719 
L 206.570182 282.514803 
L 207.368727 281.761136 
L 208.167273 281.358637 
L 208.699636 281.267928 
L 209.764364 280.801686 
L 210.030545 280.749857 
L 210.296727 280.870789 
L 211.361455 280.831187 
L 212.16 280.150027 
L 212.692364 280.084286 
L 213.224727 280.058553 
L 213.757091 280.212271 
L 215.088 280.320233 
L 217.483636 279.609496 
L 219.080727 279.896875 
L 221.210182 280.156049 
L 222.274909 280.512411 
L 223.605818 280.988542 
L 225.735273 280.5344 
L 226.533818 280.276389 
L 227.332364 280.207972 
L 228.397091 280.14072 
L 229.195636 279.958392 
L 230.526545 279.648866 
L 232.389818 278.792436 
L 234.253091 277.155581 
L 235.584 275.925619 
L 236.914909 275.137043 
L 237.447273 274.795547 
L 239.310545 273.608875 
L 239.842909 273.065381 
L 240.641455 272.54219 
L 241.972364 270.503735 
L 242.770909 269.176463 
L 244.368 267.280982 
L 244.634182 267.069802 
L 244.900364 267.037068 
L 246.231273 266.034324 
L 246.763636 265.479945 
L 247.296 265.020287 
L 248.094545 264.289783 
L 248.893091 263.398096 
L 249.159273 263.228506 
L 249.957818 262.278198 
L 250.756364 261.207853 
L 252.619636 258.706883 
L 254.216727 257.834208 
L 255.015273 257.344349 
L 255.547636 257.274958 
L 256.08 257.069839 
L 256.612364 256.815435 
L 256.878545 256.58475 
L 258.475636 256.285556 
L 260.072727 255.552972 
L 260.871273 255.406605 
L 261.137455 255.270553 
L 262.468364 255.325302 
L 263.266909 255.534279 
L 264.597818 255.097672 
L 265.130182 254.85227 
L 265.662545 254.602115 
L 267.525818 254.021161 
L 268.856727 253.303183 
L 269.921455 252.625059 
L 271.518545 252.382458 
L 272.849455 251.797228 
L 273.914182 250.798206 
L 274.446545 250.549955 
L 276.309818 250.157358 
L 276.576 249.97666 
L 277.108364 249.873117 
L 277.640727 249.763877 
L 277.906909 249.684071 
L 278.439273 249.659325 
L 279.237818 249.694675 
L 280.568727 250.032133 
L 281.633455 249.89666 
L 281.899636 250.045678 
L 282.165818 250.026269 
L 282.698182 250.186343 
L 283.230545 250.37154 
L 285.892364 250.836913 
L 287.223273 250.759016 
L 287.755636 251.028847 
L 288.021818 251.085883 
L 289.086545 250.487047 
L 289.618909 250.181717 
L 289.885091 250.235211 
L 290.151273 250.170086 
L 290.417455 250.317089 
L 291.748364 250.341466 
L 292.546909 250.648411 
L 294.676364 251.150279 
L 295.741091 251.881099 
L 298.669091 253.505875 
L 298.935273 253.957036 
L 299.467636 254.263512 
L 300 254.613856 
L 302.928 255.748194 
L 303.194182 255.986818 
L 303.726545 256.135959 
L 304.525091 256.399435 
L 305.057455 256.772484 
L 306.388364 257.036543 
L 306.920727 257.21617 
L 307.186909 257.513547 
L 307.453091 258.681229 
L 307.985455 258.769203 
L 309.848727 259.190106 
L 311.445818 259.661725 
L 311.712 260.022155 
L 311.978182 260.032794 
L 313.042909 260.520771 
L 313.841455 260.846242 
L 314.64 261.193571 
L 314.906182 261.415083 
L 315.438545 261.621914 
L 317.035636 262.521809 
L 318.632727 263.530312 
L 319.431273 263.982605 
L 319.963636 264.425204 
L 320.229818 264.907088 
L 321.028364 265.130584 
L 322.625455 266.204782 
L 323.956364 266.599127 
L 324.222545 266.884434 
L 324.754909 266.670774 
L 325.287273 266.817874 
L 330.344727 268.549774 
L 333.272727 269.215636 
L 333.538909 269.129434 
L 334.869818 269.565769 
L 335.136 269.738374 
L 336.733091 269.743571 
L 336.999273 269.863023 
L 337.265455 270.116878 
L 337.797818 270.112213 
L 338.862545 270.201776 
L 339.128727 270.239233 
L 339.661091 270.434283 
L 341.258182 270.136388 
L 341.524364 269.352838 
L 342.056727 269.147043 
L 342.322909 269.129377 
L 342.589091 269.320473 
L 343.653818 269.368511 
L 344.984727 269.578489 
L 345.517091 269.479919 
L 345.783273 269.726273 
L 346.581818 269.489637 
L 346.848 269.672169 
L 347.380364 269.646489 
L 347.646545 269.607913 
L 348.178909 269.691288 
L 348.445091 269.572924 
L 349.776 269.601163 
L 350.308364 269.403273 
L 350.840727 269.104583 
L 351.106909 269.293485 
L 351.639273 269.246666 
L 351.905455 269.246109 
L 352.171636 269.397089 
L 352.704 269.223404 
L 353.236364 269.190236 
L 354.034909 268.977006 
L 354.301091 269.258785 
L 354.567273 269.133011 
L 355.099636 268.581226 
L 355.365818 268.638034 
L 355.898182 268.354566 
L 356.164364 268.195471 
L 356.430545 268.174483 
L 357.229091 267.160344 
L 357.761455 266.209044 
L 358.56 264.859138 
L 359.358545 264.153371 
L 359.890909 264.048213 
L 362.020364 262.356569 
L 363.085091 261.15669 
L 363.883636 260.128577 
L 364.416 259.701858 
L 365.480727 258.20785 
L 366.013091 257.377078 
L 368.408727 254.561007 
L 370.005818 253.111702 
L 371.070545 252.162956 
L 371.602909 252.010945 
L 372.667636 251.043511 
L 373.732364 250.138243 
L 375.329455 248.623518 
L 375.595636 247.041522 
L 376.660364 246.355998 
L 377.192727 246.055316 
L 377.458909 245.809998 
L 377.991273 245.645131 
L 378.523636 245.373869 
L 379.854545 244.829106 
L 380.919273 244.236262 
L 382.516364 243.618404 
L 383.048727 243.282047 
L 383.581091 243.048566 
L 384.379636 242.418419 
L 385.444364 241.699753 
L 385.976727 241.343009 
L 386.509091 241.141454 
L 387.84 239.930062 
L 389.170909 238.082571 
L 389.437091 237.909405 
L 389.969455 237.072032 
L 390.768 234.724679 
L 391.566545 231.473318 
L 392.098909 229.762976 
L 392.365091 229.54541 
L 392.631273 233.003777 
L 393.429818 231.05532 
L 395.026909 226.807158 
L 396.091636 224.073417 
L 396.624 223.099 
L 397.156364 221.66244 
L 397.688727 220.427786 
L 398.221091 219.106097 
L 398.487273 218.684369 
L 399.818182 215.174448 
L 400.350545 213.623254 
L 400.882909 212.758677 
L 401.149091 211.91731 
L 401.947636 210.667567 
L 402.48 209.207183 
L 403.012364 208.024013 
L 403.544727 206.634205 
L 404.077091 206.042699 
L 404.609455 204.62014 
L 405.940364 202.394083 
L 406.206545 201.993203 
L 406.472727 200.840467 
L 407.271273 199.14913 
L 407.803636 196.338476 
L 408.336 195.330078 
L 408.602182 194.032151 
L 408.868364 193.725092 
L 409.400727 193.665673 
L 409.666909 200.88671 
L 409.933091 200.8222 
L 410.199273 200.175137 
L 410.465455 199.177168 
L 410.997818 196.251871 
L 411.530182 194.471901 
L 412.062545 191.038218 
L 412.594909 189.146143 
L 413.659636 176.485583 
L 413.925818 172.513431 
L 414.192 171.352189 
L 414.458182 170.989485 
L 414.724364 170.349085 
L 415.256727 167.116597 
L 415.522909 166.493805 
L 415.789091 165.516254 
L 416.587636 156.851792 
L 416.853818 155.101256 
L 417.12 150.720228 
L 417.652364 147.55534 
L 417.918545 147.480919 
L 418.184727 148.643776 
L 418.450909 148.703099 
L 418.717091 148.595356 
L 418.983273 147.858309 
L 419.249455 144.664523 
L 419.515636 142.921396 
L 420.048 141.264048 
L 420.314182 138.566105 
L 420.580364 137.644031 
L 420.846545 137.759692 
L 421.112727 138.067945 
L 421.378909 134.68701 
L 421.645091 134.397454 
L 421.911273 133.825506 
L 422.443636 134.834729 
L 422.709818 135.860437 
L 423.242182 140.842293 
L 423.508364 139.440197 
L 423.774545 139.186227 
L 424.040727 140.089217 
L 424.573091 148.220108 
L 425.637818 178.988959 
L 426.436364 192.871611 
L 426.436364 192.871611 
" clip-path="url(#pfcdb2b31b9)" style="fill: none; stroke: #ffa500; stroke-width: 3; stroke-linecap: square"/>
   </g>
   <g id="patch_3">
    <path d="M 7.2 331.2 
L 7.2 7.2 
" style="fill: none; stroke: #000000; stroke-width: 0.8; stroke-linejoin: miter; stroke-linecap: square"/>
   </g>
   <g id="patch_4">
    <path d="M 446.4 331.2 
L 446.4 7.2 
" style="fill: none; stroke: #000000; stroke-width: 0.8; stroke-linejoin: miter; stroke-linecap: square"/>
   </g>
   <g id="patch_5">
    <path d="M 7.2 331.2 
L 446.4 331.2 
" style="fill: none; stroke: #000000; stroke-width: 0.8; stroke-linejoin: miter; stroke-linecap: square"/>
   </g>
   <g id="patch_6">
    <path d="M 7.2 7.2 
L 446.4 7.2 
" style="fill: none; stroke: #000000; stroke-width: 0.8; stroke-linejoin: miter; stroke-linecap: square"/>
   </g>
  </g>
 </g>
 <defs>
  <clipPath id="pfcdb2b31b9">
   <rect x="7.2" y="7.2" width="439.2" height="324"/>
  </clipPath>
 </defs>
</svg>
