<?xml version="1.0" encoding="utf-8" standalone="no"?>
<!DOCTYPE svg PUBLIC "-//W3C//DTD SVG 1.1//EN"
  "http://www.w3.org/Graphics/SVG/1.1/DTD/svg11.dtd">
<svg xmlns:xlink="http://www.w3.org/1999/xlink" width="453.6pt" height="338.4pt" viewBox="0 0 453.6 338.4" xmlns="http://www.w3.org/2000/svg" version="1.1">
 <metadata>
  <rdf:RDF xmlns:dc="http://purl.org/dc/elements/1.1/" xmlns:cc="http://creativecommons.org/ns#" xmlns:rdf="http://www.w3.org/1999/02/22-rdf-syntax-ns#">
   <cc:Work>
    <dc:type rdf:resource="http://purl.org/dc/dcmitype/StillImage"/>
    <dc:date>2025-05-14T16:04:25.535979</dc:date>
    <dc:format>image/svg+xml</dc:format>
    <dc:creator>
     <cc:Agent>
      <dc:title>Matplotlib v3.10.1, https://matplotlib.org/</dc:title>
     </cc:Agent>
    </dc:creator>
   </cc:Work>
  </rdf:RDF>
 </metadata>
 <defs>
  <style type="text/css">*{stroke-linejoin: round; stroke-linecap: butt}</style>
 </defs>
 <g id="figure_1">
  <g id="patch_1">
   <path d="M 0 338.4 
L 453.6 338.4 
L 453.6 0 
L 0 0 
z
" style="fill: #ffffff"/>
  </g>
  <g id="axes_1">
   <g id="patch_2">
    <path d="M 7.2 331.2 
L 446.4 331.2 
L 446.4 7.2 
L 7.2 7.2 
z
" style="fill: #ffffff"/>
   </g>
   <g id="matplotlib.axis_1"/>
   <g id="matplotlib.axis_2"/>
   <g id="line2d_1">
    <path d="M 27.163636 316.472693 
L 326.884364 281.875362 
L 331.409455 280.391512 
L 335.668364 278.768046 
L 339.661091 277.014841 
L 343.387636 275.147055 
L 347.114182 273.024567 
L 350.574545 270.795323 
L 353.768727 268.488964 
L 356.962909 265.915538 
L 360.157091 263.044086 
L 363.085091 260.120729 
L 366.013091 256.888491 
L 368.941091 253.31474 
L 371.869091 249.363379 
L 374.530909 245.410074 
L 377.192727 241.078805 
L 379.854545 236.333413 
L 382.516364 231.134315 
L 385.178182 225.438128 
L 387.84 219.197346 
L 390.501818 212.359825 
L 393.163636 204.868632 
L 395.825455 196.661178 
L 398.487273 187.669028 
L 401.149091 177.817156 
L 403.810909 167.023338 
L 406.472727 155.197535 
L 409.134545 142.24109 
L 411.796364 128.045822 
L 414.458182 112.49326 
L 416.853818 97.228674 
L 419.249455 80.656672 
L 421.645091 62.665227 
L 424.040727 43.132675 
L 426.436364 21.927273 
L 426.436364 21.927273 
" clip-path="url(#pf1e4f94208)" style="fill: none; stroke-dasharray: 11.1,4.8; stroke-dashoffset: 0; stroke: #000000; stroke-width: 3"/>
   </g>
   <g id="line2d_2">
    <path d="M 27.163636 199.050359 
L 27.429818 197.413166 
L 27.962182 202.314729 
L 29.026909 211.482169 
L 30.357818 218.720868 
L 31.156364 222.290182 
L 31.422545 222.59646 
L 34.616727 233.403499 
L 35.415273 235.906462 
L 35.681455 235.942119 
L 38.077091 245.464249 
L 39.141818 248.627087 
L 39.674182 249.885064 
L 39.940364 249.768605 
L 41.803636 253.268668 
L 42.602182 254.537741 
L 43.400727 256.306777 
L 43.933091 258.359545 
L 44.199273 260.987333 
L 45.796364 264.29559 
L 47.925818 269.002151 
L 48.458182 269.848202 
L 49.789091 271.554496 
L 51.652364 273.690801 
L 52.184727 274.590556 
L 52.450909 275.155135 
L 52.717091 275.339085 
L 54.580364 278.385047 
L 55.112727 278.775231 
L 55.911273 279.052387 
L 57.508364 279.248776 
L 60.170182 279.401827 
L 60.702545 279.357743 
L 60.968727 279.247942 
L 61.234909 276.755333 
L 62.299636 276.66756 
L 62.832 276.492524 
L 63.630545 275.839119 
L 64.429091 275.152809 
L 65.227636 274.840474 
L 66.026182 274.885743 
L 66.824727 275.169588 
L 69.220364 276.27595 
L 69.486545 276.326828 
L 69.752727 276.212712 
L 71.349818 276.211386 
L 74.011636 275.917709 
L 76.141091 275.404785 
L 77.205818 275.014856 
L 78.536727 274.249213 
L 80.666182 272.463793 
L 82.263273 271.386961 
L 82.795636 271.242214 
L 83.594182 271.054028 
L 84.392727 271.169522 
L 85.457455 271.762038 
L 86.256 272.352389 
L 86.522182 272.609203 
L 86.788364 273.440571 
L 87.320727 274.010251 
L 88.651636 274.688801 
L 90.781091 275.861911 
L 91.313455 276.300248 
L 93.709091 277.505429 
L 94.773818 277.935786 
L 95.04 277.799123 
L 95.306182 277.330397 
L 97.701818 277.946565 
L 99.298909 278.639323 
L 101.162182 280.114717 
L 102.759273 282.012362 
L 103.557818 282.924385 
L 103.824 283.471135 
L 104.622545 283.9833 
L 105.421091 284.246699 
L 106.485818 284.354591 
L 108.349091 284.270604 
L 111.277091 283.836334 
L 112.075636 283.677492 
L 112.341818 283.782862 
L 113.406545 283.338193 
L 114.737455 282.402737 
L 119.528727 278.449746 
L 120.593455 277.875533 
L 121.125818 277.682133 
L 122.722909 276.745198 
L 125.384727 275.109173 
L 127.248 274.19521 
L 129.111273 273.471045 
L 129.377455 273.658941 
L 130.176 273.376333 
L 134.434909 272.637587 
L 139.758545 272.036302 
L 146.146909 271.615052 
L 146.413091 271.892231 
L 152.535273 271.449567 
L 154.930909 271.292649 
L 159.722182 271.055441 
L 163.182545 270.988175 
L 163.714909 271.062455 
L 168.24 271.124907 
L 172.498909 270.960848 
L 180.218182 270.495071 
L 180.750545 270.354538 
L 187.405091 269.823583 
L 192.994909 269.590462 
L 194.592 269.605372 
L 196.987636 269.505099 
L 198.584727 269.546027 
L 201.512727 269.341242 
L 202.843636 269.381942 
L 205.239273 269.2947 
L 207.634909 269.461955 
L 210.030545 269.405524 
L 211.361455 269.436713 
L 214.821818 269.208657 
L 216.152727 269.065863 
L 218.548364 268.758176 
L 219.879273 268.681556 
L 222.807273 268.279877 
L 224.138182 268.22264 
L 226.8 267.894974 
L 228.929455 267.938978 
L 231.058909 267.923257 
L 232.922182 268.137465 
L 235.051636 268.310166 
L 238.512 268.922687 
L 242.238545 269.353689 
L 245.698909 268.747458 
L 249.425455 267.167959 
L 250.490182 266.537175 
L 253.418182 264.708505 
L 254.216727 264.151567 
L 255.281455 263.139917 
L 256.612364 261.712157 
L 257.410909 261.080298 
L 258.741818 259.622741 
L 260.338909 257.762926 
L 260.871273 257.553966 
L 262.202182 256.915537 
L 263.533091 256.023608 
L 264.864 255.133601 
L 267.525818 254.134565 
L 268.856727 253.418234 
L 269.389091 253.321951 
L 270.187636 253.343225 
L 271.252364 253.14864 
L 272.849455 252.492413 
L 273.115636 252.366021 
L 273.381818 251.235515 
L 273.648 251.181867 
L 274.446545 251.309901 
L 275.245091 251.258026 
L 276.576 250.64037 
L 277.108364 250.400723 
L 277.640727 250.242317 
L 279.237818 250.451008 
L 279.770182 250.252592 
L 280.568727 249.800658 
L 281.633455 248.825758 
L 281.899636 247.877017 
L 282.432 247.677077 
L 282.964364 247.367239 
L 283.762909 246.551544 
L 284.561455 245.12026 
L 285.626182 242.483816 
L 286.158545 241.27238 
L 287.489455 238.938589 
L 289.352727 235.257064 
L 290.151273 234.180039 
L 290.417455 233.261688 
L 290.949818 233.138636 
L 292.280727 232.815399 
L 294.676364 231.959995 
L 296.273455 231.981247 
L 297.870545 231.481938 
L 298.669091 231.114072 
L 298.935273 230.731548 
L 301.064727 230.645381 
L 302.129455 230.248434 
L 303.460364 229.648501 
L 304.525091 229.598896 
L 305.323636 229.367416 
L 306.654545 228.732397 
L 307.186909 228.425469 
L 307.453091 228.008306 
L 307.985455 227.936658 
L 309.050182 227.78463 
L 310.114909 227.351104 
L 311.712 226.495148 
L 314.107636 225.774419 
L 314.906182 225.32762 
L 315.704727 224.84089 
L 315.970909 224.444618 
L 317.035636 224.170872 
L 318.366545 223.714637 
L 319.165091 223.326582 
L 320.496 222.723919 
L 321.560727 222.48532 
L 322.625455 222.093104 
L 323.956364 221.484595 
L 324.222545 221.35201 
L 324.488727 222.601394 
L 326.085818 222.483749 
L 328.747636 221.979006 
L 330.610909 221.979103 
L 332.740364 221.484481 
L 333.006545 221.276948 
L 335.136 221.114763 
L 337.797818 220.706746 
L 339.128727 220.749241 
L 340.992 220.516305 
L 341.258182 220.426987 
L 341.524364 219.58411 
L 344.452364 219.529194 
L 345.517091 219.230632 
L 346.049455 219.342439 
L 347.114182 219.31743 
L 348.445091 219.116727 
L 349.776 218.60059 
L 350.042182 218.214686 
L 350.840727 218.079186 
L 354.034909 216.664133 
L 354.301091 216.29294 
L 355.365818 216.358127 
L 355.898182 216.299454 
L 356.962909 216.168879 
L 358.293818 216.176621 
L 358.56 217.006691 
L 359.358545 217.411003 
L 360.955636 217.523495 
L 361.488 217.501111 
L 362.552727 217.155033 
L 362.818909 217.852359 
L 363.617455 218.031705 
L 365.214545 217.793001 
L 366.545455 217.344632 
L 366.811636 217.221694 
L 367.077818 216.547972 
L 367.876364 216.549429 
L 368.941091 216.199506 
L 370.538182 215.370103 
L 371.070545 215.005872 
L 372.135273 214.874341 
L 372.933818 214.539806 
L 374.797091 213.484831 
L 375.329455 213.111199 
L 375.595636 212.014379 
L 376.660364 211.582424 
L 377.991273 210.400343 
L 379.056 209.162695 
L 379.588364 208.389403 
L 379.854545 208.523111 
L 380.120727 208.363806 
L 381.185455 207.139545 
L 381.984 205.834868 
L 382.516364 204.950277 
L 383.581091 202.980612 
L 383.847273 202.997923 
L 384.113455 200.17059 
L 385.178182 198.785663 
L 387.041455 196.300782 
L 388.372364 194.814134 
L 389.170909 194.19661 
L 390.768 192.75818 
L 392.365091 191.17427 
L 392.631273 191.404758 
L 393.696 190.0878 
L 395.026909 188.272341 
L 396.624 185.918588 
L 396.890182 185.029266 
L 397.688727 183.756296 
L 398.753455 181.50602 
L 399.818182 178.694944 
L 400.882909 174.85414 
L 401.149091 172.518435 
L 402.213818 170.175594 
L 403.544727 168.206438 
L 404.343273 166.877182 
L 405.141818 165.500576 
L 405.408 161.841339 
L 405.674182 161.460456 
L 407.271273 157.795477 
L 407.803636 156.597139 
L 408.336 155.565813 
L 409.400727 152.488426 
L 409.666909 147.87604 
L 410.465455 145.884527 
L 411.264 143.755178 
L 412.328727 140.528352 
L 413.659636 136.283016 
L 413.925818 132.806943 
L 414.990545 127.634689 
L 417.12 116.213365 
L 418.450909 105.280404 
L 420.580364 95.735073 
L 421.378909 93.285042 
L 421.645091 92.686022 
L 422.177455 92.312863 
L 422.443636 96.211358 
L 422.709818 95.614216 
L 422.976 95.768764 
L 423.242182 95.708107 
L 423.508364 96.429161 
L 423.774545 96.744366 
L 424.573091 100.69639 
L 424.839273 101.570534 
L 425.904 111.424012 
L 426.170182 117.438284 
L 426.436364 126.502923 
L 426.436364 126.502923 
" clip-path="url(#pf1e4f94208)" style="fill: none; stroke: #0000ff; stroke-width: 3; stroke-linecap: square"/>
   </g>
   <g id="patch_3">
    <path d="M 7.2 331.2 
L 7.2 7.2 
" style="fill: none; stroke: #000000; stroke-width: 0.8; stroke-linejoin: miter; stroke-linecap: square"/>
   </g>
   <g id="patch_4">
    <path d="M 446.4 331.2 
L 446.4 7.2 
" style="fill: none; stroke: #000000; stroke-width: 0.8; stroke-linejoin: miter; stroke-linecap: square"/>
   </g>
   <g id="patch_5">
    <path d="M 7.2 331.2 
L 446.4 331.2 
" style="fill: none; stroke: #000000; stroke-width: 0.8; stroke-linejoin: miter; stroke-linecap: square"/>
   </g>
   <g id="patch_6">
    <path d="M 7.2 7.2 
L 446.4 7.2 
" style="fill: none; stroke: #000000; stroke-width: 0.8; stroke-linejoin: miter; stroke-linecap: square"/>
   </g>
  </g>
 </g>
 <defs>
  <clipPath id="pf1e4f94208">
   <rect x="7.2" y="7.2" width="439.2" height="324"/>
  </clipPath>
 </defs>
</svg>
