<?xml version="1.0" encoding="utf-8" standalone="no"?>
<!DOCTYPE svg PUBLIC "-//W3C//DTD SVG 1.1//EN"
  "http://www.w3.org/Graphics/SVG/1.1/DTD/svg11.dtd">
<svg xmlns:xlink="http://www.w3.org/1999/xlink" width="453.6pt" height="338.4pt" viewBox="0 0 453.6 338.4" xmlns="http://www.w3.org/2000/svg" version="1.1">
 <metadata>
  <rdf:RDF xmlns:dc="http://purl.org/dc/elements/1.1/" xmlns:cc="http://creativecommons.org/ns#" xmlns:rdf="http://www.w3.org/1999/02/22-rdf-syntax-ns#">
   <cc:Work>
    <dc:type rdf:resource="http://purl.org/dc/dcmitype/StillImage"/>
    <dc:date>2025-05-14T16:03:47.010288</dc:date>
    <dc:format>image/svg+xml</dc:format>
    <dc:creator>
     <cc:Agent>
      <dc:title>Matplotlib v3.10.1, https://matplotlib.org/</dc:title>
     </cc:Agent>
    </dc:creator>
   </cc:Work>
  </rdf:RDF>
 </metadata>
 <defs>
  <style type="text/css">*{stroke-linejoin: round; stroke-linecap: butt}</style>
 </defs>
 <g id="figure_1">
  <g id="patch_1">
   <path d="M 0 338.4 
L 453.6 338.4 
L 453.6 0 
L 0 0 
z
" style="fill: #ffffff"/>
  </g>
  <g id="axes_1">
   <g id="patch_2">
    <path d="M 7.2 331.2 
L 446.4 331.2 
L 446.4 7.2 
L 7.2 7.2 
z
" style="fill: #ffffff"/>
   </g>
   <g id="matplotlib.axis_1"/>
   <g id="matplotlib.axis_2"/>
   <g id="line2d_1">
    <path d="M 27.163636 102.542186 
L 33.019636 111.171219 
L 38.875636 120.186947 
L 44.731636 129.606504 
L 50.587636 139.448027 
L 56.443636 149.730369 
L 62.299636 160.473354 
L 68.155636 171.697538 
L 74.011636 183.424543 
L 79.601455 195.108184 
L 85.191273 207.290907 
L 90.781091 219.994023 
L 96.370909 233.239743 
L 101.960727 247.051283 
L 107.550545 261.452812 
L 113.140364 276.469503 
L 118.730182 292.127631 
L 124.32 308.454653 
L 126.981818 316.472727 
L 138.161455 314.040303 
L 148.808727 311.494881 
L 158.923636 308.850063 
L 168.772364 306.043093 
L 178.088727 303.158898 
L 187.138909 300.125949 
L 195.922909 296.946645 
L 204.440727 293.624628 
L 212.692364 290.164835 
L 220.677818 286.573571 
L 228.397091 282.858524 
L 235.850182 279.028809 
L 243.303273 274.944543 
L 250.490182 270.749229 
L 257.410909 266.455622 
L 264.331636 261.897666 
L 270.986182 257.250511 
L 277.640727 252.328503 
L 284.029091 247.329757 
L 290.417455 242.04749 
L 296.539636 236.704483 
L 302.661818 231.071411 
L 308.784 225.132543 
L 314.64 219.150453 
L 320.496 212.858125 
L 326.352 206.239496 
L 332.208 199.277546 
L 338.064 191.954524 
L 343.653818 184.610356 
L 349.243636 176.90301 
L 354.833455 168.814569 
L 360.423273 160.326162 
L 366.013091 151.417967 
L 371.336727 142.524799 
L 376.660364 133.213354 
L 381.984 123.463739 
L 387.307636 113.255659 
L 392.631273 102.567292 
L 397.954909 91.376201 
L 403.278545 79.658615 
L 408.602182 67.389902 
L 413.925818 54.544079 
L 419.249455 41.09397 
L 424.573091 27.011202 
L 426.436364 21.927273 
L 426.436364 21.927273 
" clip-path="url(#pd5ef3689bc)" style="fill: none; stroke-dasharray: 11.1,4.8; stroke-dashoffset: 0; stroke: #000000; stroke-width: 3"/>
   </g>
   <g id="line2d_2">
    <path d="M 27.163636 236.52698 
L 27.962182 212.149036 
L 28.760727 193.310492 
L 29.559273 179.341226 
L 30.357818 169.622667 
L 30.890182 165.222169 
L 31.422545 162.300734 
L 31.954909 160.711136 
L 32.221091 160.372353 
L 32.487273 160.31547 
L 32.753455 160.524671 
L 33.019636 160.984628 
L 33.552 162.59826 
L 34.084364 165.09687 
L 34.882909 170.174224 
L 35.947636 178.955145 
L 37.278545 192.256439 
L 39.674182 219.405335 
L 42.336 249.188356 
L 44.731636 273.077016 
L 45.796364 282.530646 
L 46.328727 286.115578 
L 46.861091 287.755525 
L 47.925818 289.957842 
L 48.724364 291.158322 
L 49.522909 292.005672 
L 50.321455 292.526277 
L 51.12 292.752388 
L 51.918545 292.715957 
L 52.717091 292.463065 
L 53.781818 291.863277 
L 55.112727 290.831982 
L 58.839273 287.7739 
L 60.170182 287.061282 
L 60.702545 286.93836 
L 63.896727 286.66557 
L 64.695273 286.887218 
L 65.227636 287.206771 
L 65.76 287.716954 
L 66.292364 288.466831 
L 66.558545 287.720235 
L 67.889455 267.908422 
L 71.882182 205.114051 
L 72.946909 193.085262 
L 73.745455 186.861826 
L 74.277818 184.297705 
L 74.544 183.532374 
L 74.810182 183.123883 
L 75.076364 183.0798 
L 75.342545 183.420585 
L 75.608727 184.123213 
L 76.141091 186.708919 
L 76.673455 190.860908 
L 77.738182 202.211674 
L 78.536727 212.828701 
L 78.802909 207.255724 
L 79.867636 170.403922 
L 80.666182 149.335143 
L 81.464727 133.96873 
L 81.997091 126.812212 
L 82.529455 121.993945 
L 83.061818 119.373881 
L 83.328 118.85978 
L 83.594182 118.78083 
L 83.860364 119.201864 
L 84.126545 120.011314 
L 84.658909 122.810417 
L 85.191273 126.925029 
L 85.989818 134.967243 
L 87.586909 154.386961 
L 88.917818 169.612643 
L 89.716364 176.656713 
L 90.248727 180.062911 
L 90.514909 181.341254 
L 92.378182 131.381216 
L 93.176727 116.120562 
L 93.709091 108.026838 
L 95.04 100.30506 
L 96.104727 95.097342 
L 97.169455 90.84572 
L 97.968 88.458119 
L 98.500364 87.269419 
L 99.032727 86.533179 
L 99.298909 86.322258 
L 99.831273 86.335091 
L 100.097455 86.530984 
L 100.629818 87.511696 
L 101.162182 89.187899 
L 101.694545 91.830821 
L 102.226909 95.481666 
L 102.759273 100.330271 
L 103.557818 110.318055 
L 104.356364 124.284582 
L 105.154909 143.138619 
L 105.953455 167.977416 
L 106.752 200.18826 
L 107.550545 241.408775 
L 108.615273 300.745031 
L 108.881455 300.386142 
L 109.147636 299.688062 
L 109.68 297.355598 
L 112.341818 281.875959 
L 113.672727 275.408213 
L 114.737455 271.213834 
L 115.536 268.741959 
L 116.334545 266.896649 
L 116.866909 266.024747 
L 117.399273 265.487244 
L 117.931636 265.285733 
L 118.464 265.439895 
L 118.996364 266.022983 
L 119.528727 267.062016 
L 120.061091 268.607197 
L 120.593455 270.737357 
L 121.392 275.29264 
L 122.190545 281.781199 
L 122.989091 290.733265 
L 123.787636 302.821893 
L 124.053818 307.725296 
L 124.32 308.686567 
L 126.449455 223.538697 
L 126.981818 204.528251 
L 129.111273 177.744728 
L 130.974545 155.437389 
L 132.039273 144.909609 
L 133.104 136.693096 
L 133.902545 132.182625 
L 134.434909 130.037107 
L 134.967273 128.553883 
L 135.499636 127.700507 
L 135.765818 127.500576 
L 136.032 127.48316 
L 136.298182 127.60544 
L 136.830545 128.240749 
L 137.362909 129.386015 
L 138.161455 131.900004 
L 139.226182 136.414109 
L 142.420364 151.078551 
L 143.218909 153.461781 
L 143.485091 154.045878 
L 143.751273 157.522688 
L 144.816 182.835592 
L 145.348364 185.705288 
L 146.146909 192.40975 
L 148.276364 212.294577 
L 148.808727 215.382103 
L 149.341091 216.971113 
L 149.607273 217.134009 
L 149.873455 216.801774 
L 150.139636 216.00011 
L 150.672 212.710187 
L 151.204364 207.083391 
L 151.736727 198.946715 
L 152.535273 181.708716 
L 153.333818 158.17996 
L 154.132364 128.090853 
L 155.197091 81.914649 
L 155.995636 85.638827 
L 157.326545 93.56819 
L 159.456 106.575074 
L 160.520727 112.742138 
L 161.053091 116.064944 
L 161.585455 117.864006 
L 161.851636 118.099927 
L 162.117818 117.845976 
L 162.384 117.092021 
L 162.916364 114.016162 
L 163.448727 108.647786 
L 163.981091 100.97197 
L 164.779636 84.973304 
L 165.578182 63.694446 
L 166.376727 37.326603 
L 166.642909 34.968216 
L 168.24 102.16132 
L 169.304727 137.02289 
L 170.369455 164.73033 
L 171.434182 186.329502 
L 172.498909 202.751582 
L 173.297455 212.207691 
L 174.096 219.584461 
L 174.894545 225.096342 
L 175.693091 229.026886 
L 176.225455 230.852475 
L 176.757818 232.063393 
L 177.024 235.003929 
L 177.822545 248.738029 
L 178.621091 258.255945 
L 179.153455 262.294662 
L 179.685818 264.523958 
L 179.952 264.964379 
L 180.218182 264.961601 
L 180.484364 264.510426 
L 180.750545 263.618071 
L 181.282909 260.496785 
L 181.815273 255.594019 
L 182.347636 248.898792 
L 185.009455 202.875749 
L 185.808 194.134487 
L 186.340364 189.920041 
L 186.872727 187.096237 
L 187.138909 186.230001 
L 187.405091 185.751373 
L 187.671273 185.647686 
L 187.937455 185.988629 
L 188.203636 186.730821 
L 188.736 189.577079 
L 189.268364 194.309602 
L 189.800727 201.086308 
L 190.599273 215.461422 
L 191.397818 235.411059 
L 192.196364 261.605551 
L 192.728727 280.326277 
L 193.261091 266.374477 
L 194.059636 248.308269 
L 194.592 240.967164 
L 195.124364 236.26159 
L 195.656727 233.298907 
L 196.455273 230.512796 
L 197.52 227.092614 
L 198.052364 224.660543 
L 198.584727 221.424702 
L 199.383273 214.710128 
L 200.181818 205.474244 
L 200.980364 193.71742 
L 202.045091 174.100589 
L 203.109818 150.391609 
L 204.440727 115.733253 
L 205.505455 88.875063 
L 206.037818 89.436601 
L 206.836364 90.936469 
L 207.634909 93.08383 
L 208.699636 96.738344 
L 210.030545 102.265675 
L 210.296727 104.637493 
L 211.095273 116.813631 
L 212.426182 141.486293 
L 217.483636 242.475626 
L 218.548364 257.620303 
L 218.814545 256.724314 
L 219.613091 229.138465 
L 220.411636 209.564883 
L 220.944 200.754968 
L 221.476364 194.925353 
L 222.008727 191.732657 
L 222.274909 191.04417 
L 222.541091 190.85659 
L 222.807273 191.153335 
L 223.073455 191.890461 
L 223.605818 194.413851 
L 224.404364 200.06031 
L 225.735273 210.091466 
L 226.267636 212.548678 
L 226.533818 213.09819 
L 226.8 213.064394 
L 227.332364 212.653375 
L 227.864727 211.90194 
L 228.663273 210.098427 
L 229.461818 207.448615 
L 230.260364 203.958102 
L 231.325091 198.033727 
L 233.454545 184.262127 
L 234.253091 180.741207 
L 235.051636 178.212901 
L 235.850182 176.437101 
L 236.648727 175.426702 
L 237.181091 175.087919 
L 237.447273 174.98453 
L 238.245818 175.140166 
L 238.778182 175.48419 
L 239.576727 176.36067 
L 240.375273 177.57445 
L 241.44 179.67267 
L 242.504727 182.14872 
L 243.303273 184.237522 
L 243.835636 186.840468 
L 246.231273 201.176187 
L 248.360727 213.263394 
L 249.957818 221.233891 
L 251.554909 228.209351 
L 253.418182 235.279194 
L 255.547636 242.369656 
L 260.072727 256.34462 
L 261.403636 269.583988 
L 262.202182 276.116205 
L 263.000727 280.879309 
L 263.533091 282.679229 
L 263.799273 283.097505 
L 264.065455 283.160168 
L 264.331636 282.839252 
L 264.597818 277.5315 
L 266.194909 217.958223 
L 267.525818 176.399627 
L 268.590545 150.24828 
L 269.389091 135.580467 
L 269.921455 128.473545 
L 270.453818 123.663617 
L 270.72 122.157534 
L 270.986182 121.305019 
L 271.252364 121.103192 
L 271.518545 121.548173 
L 271.784727 122.722425 
L 272.050909 124.538902 
L 272.583273 130.44515 
L 273.115636 139.372061 
L 273.648 151.442124 
L 274.446545 175.683445 
L 275.245091 207.645877 
L 276.043636 247.547779 
L 276.309818 262.732419 
L 276.576 268.460496 
L 276.842182 268.544551 
L 277.108364 268.059783 
L 277.374545 267.084536 
L 277.906909 263.855055 
L 278.705455 256.396428 
L 279.770182 243.210821 
L 281.367273 219.63383 
L 286.690909 137.705987 
L 288.021818 120.840813 
L 289.086545 110.075286 
L 289.885091 104.438212 
L 290.417455 102.265605 
L 290.683636 101.760792 
L 290.949818 101.697589 
L 291.216 102.120502 
L 291.482182 103.077863 
L 291.748364 104.621025 
L 292.280727 109.847985 
L 292.813091 118.237674 
L 293.079273 123.568146 
L 293.345455 125.29477 
L 293.611636 124.670645 
L 293.877818 124.689465 
L 294.144 125.277337 
L 294.676364 127.87298 
L 295.208727 131.899442 
L 296.539636 144.788084 
L 297.604364 153.98257 
L 298.136727 156.959132 
L 298.402909 157.847532 
L 298.669091 158.26718 
L 298.935273 158.169953 
L 299.201455 157.506536 
L 299.467636 156.228018 
L 300 151.636209 
L 300.532364 144.020875 
L 301.064727 132.963405 
L 301.863273 111.704246 
L 302.395636 116.722427 
L 302.928 119.711734 
L 303.194182 120.544849 
L 303.460364 120.986372 
L 303.726545 121.069694 
L 303.992727 120.82812 
L 304.258909 120.285929 
L 304.791273 118.45323 
L 305.589818 114.337038 
L 307.985455 100.020648 
L 308.517818 98.034682 
L 309.050182 97.023722 
L 309.316364 96.953426 
L 309.582545 97.213013 
L 310.381091 99.351421 
L 310.913455 101.229942 
L 311.445818 103.726866 
L 311.712 105.990064 
L 313.309091 130.693361 
L 314.107636 138.145965 
L 314.64 141.335309 
L 315.172364 143.234424 
L 315.438545 143.736902 
L 315.704727 143.960464 
L 315.970909 143.919804 
L 316.237091 143.629633 
L 316.769455 142.357049 
L 317.301818 140.255703 
L 318.100364 135.830784 
L 319.165091 128.175966 
L 323.157818 96.925371 
L 323.956364 93.021259 
L 324.488727 91.310962 
L 325.021091 90.436923 
L 325.287273 90.345419 
L 325.553455 90.501108 
L 325.819636 90.916209 
L 326.352 92.573276 
L 326.618182 93.839189 
L 327.150545 98.584457 
L 327.682909 105.100434 
L 328.481455 119.71205 
L 329.28 129.6528 
L 329.812364 134.13404 
L 330.344727 137.277755 
L 330.877091 139.42731 
L 331.409455 140.7648 
L 331.941818 141.496124 
L 332.474182 141.722284 
L 332.740364 141.728306 
L 333.272727 141.450935 
L 334.071273 140.634199 
L 335.136 139.052238 
L 336.466909 136.649012 
L 338.330182 132.845005 
L 340.193455 128.527285 
L 341.524364 124.932391 
L 342.855273 120.723748 
L 343.653818 118.238358 
L 345.250909 113.50796 
L 349.243636 101.242706 
L 350.308364 98.688355 
L 351.106909 97.189716 
L 351.905455 96.101684 
L 352.704 95.524486 
L 353.236364 95.419043 
L 353.502545 95.427979 
L 354.034909 95.688233 
L 354.833455 96.571806 
L 355.365818 97.449883 
L 355.898182 98.566216 
L 356.696727 100.645406 
L 357.761455 104.147216 
L 358.826182 108.219465 
L 359.890909 112.677004 
L 360.689455 124.177384 
L 362.020364 140.141587 
L 363.351273 153.624633 
L 364.682182 165.11964 
L 366.279273 176.866651 
L 367.876364 186.936773 
L 369.739636 197.191202 
L 371.869091 207.589504 
L 374.264727 218.163474 
L 376.394182 226.605849 
L 376.660364 227.197767 
L 377.725091 228.230384 
L 378.789818 229.55971 
L 380.653091 232.165404 
L 384.379636 182.056444 
L 385.976727 164.393513 
L 387.307636 152.270113 
L 388.372364 144.352548 
L 389.437091 137.934588 
L 390.501818 132.932629 
L 391.300364 130.059052 
L 392.098909 127.887043 
L 392.897455 126.385805 
L 393.163636 126.043458 
L 393.962182 117.470236 
L 394.760727 111.531281 
L 395.559273 107.464141 
L 396.357818 104.725661 
L 397.156364 102.88729 
L 397.954909 101.664408 
L 398.753455 100.853378 
L 399.552 100.312469 
L 400.616727 99.851406 
L 401.947636 99.503985 
L 404.343273 99.157898 
L 409.134545 98.609352 
L 409.666909 98.082541 
L 409.933091 97.62297 
L 410.731636 93.811063 
L 412.594909 83.475121 
L 414.990545 70.172835 
L 416.321455 64.027331 
L 417.386182 60.275186 
L 418.184727 58.316484 
L 418.717091 57.472414 
L 419.249455 57.046569 
L 419.781818 57.043409 
L 420.314182 57.480209 
L 420.846545 58.376808 
L 421.378909 59.759066 
L 422.177455 62.718089 
L 422.976 66.759614 
L 423.774545 71.865331 
L 424.839273 80.21485 
L 426.170182 92.897435 
L 426.436364 95.6879 
L 426.436364 95.6879 
" clip-path="url(#pd5ef3689bc)" style="fill: none; stroke: #ff0000; stroke-width: 3; stroke-linecap: square"/>
   </g>
   <g id="patch_3">
    <path d="M 7.2 331.2 
L 7.2 7.2 
" style="fill: none; stroke: #000000; stroke-width: 0.8; stroke-linejoin: miter; stroke-linecap: square"/>
   </g>
   <g id="patch_4">
    <path d="M 446.4 331.2 
L 446.4 7.2 
" style="fill: none; stroke: #000000; stroke-width: 0.8; stroke-linejoin: miter; stroke-linecap: square"/>
   </g>
   <g id="patch_5">
    <path d="M 7.2 331.2 
L 446.4 331.2 
" style="fill: none; stroke: #000000; stroke-width: 0.8; stroke-linejoin: miter; stroke-linecap: square"/>
   </g>
   <g id="patch_6">
    <path d="M 7.2 7.2 
L 446.4 7.2 
" style="fill: none; stroke: #000000; stroke-width: 0.8; stroke-linejoin: miter; stroke-linecap: square"/>
   </g>
  </g>
 </g>
 <defs>
  <clipPath id="pd5ef3689bc">
   <rect x="7.2" y="7.2" width="439.2" height="324"/>
  </clipPath>
 </defs>
</svg>
