<?xml version="1.0" encoding="utf-8" standalone="no"?>
<!DOCTYPE svg PUBLIC "-//W3C//DTD SVG 1.1//EN"
  "http://www.w3.org/Graphics/SVG/1.1/DTD/svg11.dtd">
<svg xmlns:xlink="http://www.w3.org/1999/xlink" width="453.6pt" height="338.4pt" viewBox="0 0 453.6 338.4" xmlns="http://www.w3.org/2000/svg" version="1.1">
 <metadata>
  <rdf:RDF xmlns:dc="http://purl.org/dc/elements/1.1/" xmlns:cc="http://creativecommons.org/ns#" xmlns:rdf="http://www.w3.org/1999/02/22-rdf-syntax-ns#">
   <cc:Work>
    <dc:type rdf:resource="http://purl.org/dc/dcmitype/StillImage"/>
    <dc:date>2025-05-14T16:06:25.703244</dc:date>
    <dc:format>image/svg+xml</dc:format>
    <dc:creator>
     <cc:Agent>
      <dc:title>Matplotlib v3.10.1, https://matplotlib.org/</dc:title>
     </cc:Agent>
    </dc:creator>
   </cc:Work>
  </rdf:RDF>
 </metadata>
 <defs>
  <style type="text/css">*{stroke-linejoin: round; stroke-linecap: butt}</style>
 </defs>
 <g id="figure_1">
  <g id="patch_1">
   <path d="M 0 338.4 
L 453.6 338.4 
L 453.6 0 
L 0 0 
z
" style="fill: #ffffff"/>
  </g>
  <g id="axes_1">
   <g id="patch_2">
    <path d="M 7.2 331.2 
L 446.4 331.2 
L 446.4 7.2 
L 7.2 7.2 
z
" style="fill: #ffffff"/>
   </g>
   <g id="matplotlib.axis_1"/>
   <g id="matplotlib.axis_2"/>
   <g id="line2d_1">
    <path d="M 27.163636 316.472727 
L 111.277091 316.472727 
L 111.543273 189.514395 
L 126.981818 187.160089 
L 129.909818 201.002617 
L 132.837818 213.706295 
L 135.765818 225.364787 
L 138.693818 236.064153 
L 141.621818 245.883264 
L 144.549818 254.89455 
L 147.477818 263.164452 
L 150.405818 270.753987 
L 153.333818 277.719098 
L 156.261818 284.111189 
L 159.189818 289.977399 
L 162.117818 295.360997 
L 165.045818 300.301675 
L 167.973818 304.835856 
L 171.168 309.35787 
L 174.362182 313.475616 
L 176.757818 316.320462 
L 177.024 316.472727 
L 276.576 316.472727 
L 276.842182 316.02256 
L 326.618182 147.647897 
L 426.436364 316.472727 
L 426.436364 316.472727 
" clip-path="url(#pe1eafa66b7)" style="fill: none; stroke-dasharray: 11.1,4.8; stroke-dashoffset: 0; stroke: #000000; stroke-width: 3"/>
   </g>
   <g id="line2d_2">
    <path d="M 27.163636 292.481532 
L 29.559273 296.306389 
L 30.624 297.612642 
L 31.954909 298.857342 
L 34.084364 300.445065 
L 37.278545 302.580849 
L 39.674182 303.885067 
L 42.069818 304.969561 
L 43.933091 305.601854 
L 45.796364 305.986881 
L 47.925818 306.177693 
L 50.853818 306.204665 
L 54.580364 305.981148 
L 57.242182 305.903111 
L 59.105455 306.055899 
L 64.695273 306.753236 
L 67.357091 306.677235 
L 72.946909 306.40763 
L 75.076364 306.658568 
L 78.802909 307.150991 
L 81.730909 307.224286 
L 87.054545 307.137465 
L 93.709091 306.618126 
L 95.306182 306.31031 
L 96.637091 305.843222 
L 98.500364 304.908727 
L 100.896 303.698505 
L 104.356364 302.169942 
L 105.154909 301.50871 
L 105.953455 300.513508 
L 106.752 299.044002 
L 107.550545 296.966518 
L 108.349091 294.188575 
L 109.413818 289.388961 
L 110.744727 282.080917 
L 112.608 271.743195 
L 113.672727 267.134282 
L 114.471273 264.674494 
L 115.003636 263.544164 
L 115.536 262.808578 
L 116.068364 262.435551 
L 116.600727 262.376373 
L 117.133091 262.56703 
L 117.931636 263.1464 
L 118.996364 263.961683 
L 119.528727 264.149912 
L 120.061091 264.053208 
L 120.593455 263.583183 
L 121.125818 262.6754 
L 121.658182 261.297658 
L 122.456727 258.374099 
L 123.521455 253.221902 
L 125.650909 242.385685 
L 126.449455 239.586899 
L 126.981818 238.38777 
L 127.514182 237.771062 
L 127.780364 237.681981 
L 128.046545 237.73479 
L 128.578909 238.240868 
L 129.111273 239.221263 
L 129.909818 241.381343 
L 131.240727 245.95614 
L 132.837818 251.245891 
L 133.636364 253.273742 
L 134.434909 254.716358 
L 134.967273 255.326865 
L 135.499636 255.657915 
L 136.032 255.727108 
L 136.564364 255.567219 
L 137.362909 255.005936 
L 139.492364 253.206598 
L 140.024727 253.041788 
L 140.557091 253.078261 
L 141.089455 253.324536 
L 141.888 254.05256 
L 142.952727 255.487048 
L 144.816 258.140925 
L 145.880727 259.24152 
L 146.945455 259.975289 
L 148.542545 260.704848 
L 150.405818 261.622857 
L 154.132364 263.719507 
L 155.197091 263.913838 
L 156.261818 263.849441 
L 159.722182 263.281408 
L 160.520727 263.436061 
L 161.319273 263.783254 
L 162.384 264.55221 
L 163.448727 265.634252 
L 164.779636 267.313782 
L 166.909091 270.425026 
L 168.772364 273.47162 
L 170.103273 275.998244 
L 171.434182 279.021391 
L 172.765091 282.642257 
L 174.894545 289.280773 
L 176.491636 294.025767 
L 177.556364 296.626736 
L 178.621091 298.628739 
L 179.419636 299.73734 
L 180.218182 300.548183 
L 181.016727 301.113459 
L 182.081455 301.579713 
L 183.412364 301.855869 
L 185.009455 301.930752 
L 187.138909 301.795764 
L 189.268364 301.458272 
L 191.397818 300.895192 
L 193.793455 299.993252 
L 196.987636 298.784796 
L 198.850909 298.355993 
L 201.512727 298.029356 
L 204.706909 297.802888 
L 206.037818 297.900049 
L 207.368727 298.23022 
L 208.699636 298.81856 
L 210.562909 299.957747 
L 213.224727 301.603703 
L 214.555636 302.200012 
L 215.886545 302.539516 
L 216.951273 302.564067 
L 218.016 302.331945 
L 219.080727 301.86267 
L 222.807273 299.943448 
L 223.872 299.740859 
L 225.202909 299.717548 
L 230.260364 299.899622 
L 232.922182 299.664659 
L 235.051636 299.262352 
L 239.044364 298.28745 
L 240.109091 298.351819 
L 241.173818 298.643438 
L 244.101818 299.703302 
L 244.900364 299.701961 
L 245.698909 299.451755 
L 246.497455 298.927078 
L 247.296 298.131086 
L 248.360727 296.69334 
L 249.691636 294.416552 
L 251.288727 291.185399 
L 253.950545 285.158489 
L 255.547636 281.781984 
L 256.612364 280.01493 
L 257.410909 279.069175 
L 258.209455 278.489858 
L 259.008 278.267257 
L 259.806545 278.346651 
L 260.871273 278.762963 
L 263.000727 279.727735 
L 264.065455 279.923053 
L 265.130182 279.871515 
L 266.727273 279.495951 
L 268.856727 278.764846 
L 269.921455 278.140426 
L 270.72 277.347642 
L 271.518545 276.096345 
L 272.317091 274.218104 
L 273.115636 271.567935 
L 273.914182 268.040752 
L 274.712727 263.564336 
L 275.777455 256.009716 
L 276.842182 246.468775 
L 277.906909 234.751619 
L 279.237818 217.138653 
L 282.964364 164.640916 
L 284.029091 153.76647 
L 285.093818 145.389615 
L 286.158545 138.899674 
L 287.489455 132.418915 
L 288.820364 127.155859 
L 289.885091 123.901803 
L 290.683636 122.154075 
L 291.482182 121.039954 
L 292.014545 120.62445 
L 292.546909 120.427328 
L 293.345455 120.423781 
L 295.741091 120.745465 
L 296.539636 120.552276 
L 297.604364 120.034699 
L 299.733818 118.858657 
L 300.798545 118.565449 
L 301.863273 118.549069 
L 302.928 118.753828 
L 304.258909 119.220667 
L 305.589818 119.931468 
L 306.654545 120.797502 
L 307.453091 121.703195 
L 308.517818 123.323745 
L 309.582545 125.430621 
L 310.913455 128.668297 
L 312.510545 133.259527 
L 314.107636 138.544194 
L 316.237091 146.507142 
L 317.834182 152.231103 
L 318.632727 154.500463 
L 319.431273 156.092501 
L 319.963636 156.686921 
L 320.496 156.860483 
L 321.028364 156.590099 
L 321.560727 155.872152 
L 322.093091 154.72571 
L 322.891636 152.30505 
L 323.956364 148.190122 
L 325.553455 141.931959 
L 326.352 139.614513 
L 326.884364 138.573303 
L 327.416727 137.985922 
L 327.949091 137.859166 
L 328.481455 138.168314 
L 329.013818 138.862244 
L 329.812364 140.466343 
L 331.143273 143.944821 
L 332.740364 148.039665 
L 333.805091 150.205916 
L 334.869818 151.893812 
L 336.466909 153.916787 
L 341.258182 159.4918 
L 342.056727 159.95827 
L 342.855273 160.14521 
L 343.653818 160.058271 
L 344.452364 159.740239 
L 345.783273 158.900382 
L 347.380364 157.900745 
L 348.178909 157.604676 
L 348.977455 157.532046 
L 349.776 157.726095 
L 350.574545 158.214774 
L 351.373091 159.016148 
L 352.171636 160.142717 
L 352.970182 161.603381 
L 354.034909 164.076517 
L 355.099636 167.13475 
L 356.430545 171.701831 
L 358.027636 178.048487 
L 365.480727 209.144103 
L 368.941091 222.402578 
L 370.005818 225.426374 
L 370.804364 226.905016 
L 371.336727 227.429589 
L 371.869091 227.554423 
L 372.401455 227.274866 
L 372.933818 226.608956 
L 373.466182 225.598452 
L 374.264727 223.58422 
L 376.660364 216.997272 
L 377.192727 216.062786 
L 377.725091 215.481753 
L 378.257455 215.28406 
L 378.789818 215.47193 
L 379.322182 216.022205 
L 379.854545 216.890995 
L 380.653091 218.660975 
L 381.984 222.300734 
L 383.847273 227.38935 
L 385.178182 230.409039 
L 386.509091 232.864381 
L 387.573818 234.443427 
L 388.372364 235.351245 
L 389.170909 235.937458 
L 389.703273 236.108702 
L 390.235636 236.085536 
L 390.768 235.867294 
L 391.566545 235.217466 
L 392.897455 233.651859 
L 393.962182 232.50747 
L 394.760727 231.985522 
L 395.293091 231.844888 
L 395.825455 231.868641 
L 396.624 232.166756 
L 397.688727 232.887011 
L 403.278545 237.443058 
L 405.141818 239.351803 
L 408.336 242.673362 
L 409.933091 244.353595 
L 410.997818 245.777536 
L 412.062545 247.61078 
L 413.127273 249.902296 
L 414.458182 253.391641 
L 415.789091 257.592142 
L 417.12 262.615783 
L 418.717091 269.667798 
L 421.112727 280.380609 
L 422.177455 284.191375 
L 422.976 286.445015 
L 423.774545 288.163649 
L 424.573091 289.382944 
L 425.371636 290.168958 
L 426.170182 290.605379 
L 426.436364 290.688995 
L 426.436364 290.688995 
" clip-path="url(#pe1eafa66b7)" style="fill: none; stroke: #ffa500; stroke-width: 3; stroke-linecap: square"/>
   </g>
   <g id="patch_3">
    <path d="M 7.2 331.2 
L 7.2 7.2 
" style="fill: none; stroke: #000000; stroke-width: 0.8; stroke-linejoin: miter; stroke-linecap: square"/>
   </g>
   <g id="patch_4">
    <path d="M 446.4 331.2 
L 446.4 7.2 
" style="fill: none; stroke: #000000; stroke-width: 0.8; stroke-linejoin: miter; stroke-linecap: square"/>
   </g>
   <g id="patch_5">
    <path d="M 7.2 331.2 
L 446.4 331.2 
" style="fill: none; stroke: #000000; stroke-width: 0.8; stroke-linejoin: miter; stroke-linecap: square"/>
   </g>
   <g id="patch_6">
    <path d="M 7.2 7.2 
L 446.4 7.2 
" style="fill: none; stroke: #000000; stroke-width: 0.8; stroke-linejoin: miter; stroke-linecap: square"/>
   </g>
  </g>
 </g>
 <defs>
  <clipPath id="pe1eafa66b7">
   <rect x="7.2" y="7.2" width="439.2" height="324"/>
  </clipPath>
 </defs>
</svg>
