<?xml version="1.0" encoding="utf-8" standalone="no"?>
<!DOCTYPE svg PUBLIC "-//W3C//DTD SVG 1.1//EN"
  "http://www.w3.org/Graphics/SVG/1.1/DTD/svg11.dtd">
<svg xmlns:xlink="http://www.w3.org/1999/xlink" width="453.6pt" height="338.4pt" viewBox="0 0 453.6 338.4" xmlns="http://www.w3.org/2000/svg" version="1.1">
 <metadata>
  <rdf:RDF xmlns:dc="http://purl.org/dc/elements/1.1/" xmlns:cc="http://creativecommons.org/ns#" xmlns:rdf="http://www.w3.org/1999/02/22-rdf-syntax-ns#">
   <cc:Work>
    <dc:type rdf:resource="http://purl.org/dc/dcmitype/StillImage"/>
    <dc:date>2025-05-14T15:58:57.063028</dc:date>
    <dc:format>image/svg+xml</dc:format>
    <dc:creator>
     <cc:Agent>
      <dc:title>Matplotlib v3.10.1, https://matplotlib.org/</dc:title>
     </cc:Agent>
    </dc:creator>
   </cc:Work>
  </rdf:RDF>
 </metadata>
 <defs>
  <style type="text/css">*{stroke-linejoin: round; stroke-linecap: butt}</style>
 </defs>
 <g id="figure_1">
  <g id="patch_1">
   <path d="M 0 338.4 
L 453.6 338.4 
L 453.6 0 
L 0 0 
z
" style="fill: #ffffff"/>
  </g>
  <g id="axes_1">
   <g id="patch_2">
    <path d="M 7.2 331.2 
L 446.4 331.2 
L 446.4 7.2 
L 7.2 7.2 
z
" style="fill: #ffffff"/>
   </g>
   <g id="matplotlib.axis_1"/>
   <g id="matplotlib.axis_2"/>
   <g id="line2d_1">
    <path d="M 27.163636 21.933172 
L 27.962182 102.588833 
L 28.760727 161.161139 
L 29.559273 203.69338 
L 30.357818 234.578102 
L 31.156364 257.005017 
L 31.954909 273.290325 
L 32.753455 285.115864 
L 33.552 293.702973 
L 34.350545 299.938489 
L 35.149091 304.466411 
L 35.947636 307.75435 
L 36.746182 310.141881 
L 37.544727 311.875599 
L 38.343273 313.134524 
L 39.141818 314.048697 
L 40.206545 314.890608 
L 41.271273 315.440102 
L 42.602182 315.866948 
L 44.465455 316.185612 
L 47.127273 316.373921 
L 52.184727 316.459701 
L 76.939636 316.472727 
L 77.205818 32.838201 
L 78.004364 87.380656 
L 78.802909 126.986915 
L 79.601455 155.746941 
L 80.4 176.63087 
L 81.198545 191.795842 
L 81.997091 202.807859 
L 82.795636 210.804234 
L 83.594182 216.610727 
L 84.392727 220.827147 
L 85.191273 223.888909 
L 85.989818 226.112201 
L 86.788364 227.726624 
L 87.586909 228.898944 
L 88.385455 229.750213 
L 89.450182 230.534224 
L 90.514909 231.045919 
L 91.845818 231.443393 
L 93.709091 231.740147 
L 96.370909 231.915481 
L 101.694545 231.996591 
L 126.981818 232.007494 
L 127.248 46.907555 
L 128.046545 107.679381 
L 128.845091 151.809524 
L 129.643636 183.854576 
L 130.442182 207.124034 
L 131.240727 224.021108 
L 132.039273 236.290892 
L 132.837818 245.200597 
L 133.636364 251.670279 
L 134.434909 256.368303 
L 135.233455 259.779769 
L 136.032 262.257012 
L 136.830545 264.055846 
L 137.629091 265.362086 
L 138.427636 266.310581 
L 139.492364 267.184111 
L 140.557091 267.754269 
L 141.888 268.197143 
L 143.485091 268.494248 
L 145.880727 268.698779 
L 150.139636 268.802642 
L 165.312 268.825623 
L 176.757818 268.825676 
L 177.024 271.300316 
L 177.822545 283.670847 
L 178.621091 292.653575 
L 179.419636 299.176483 
L 180.218182 303.913085 
L 181.016727 307.352562 
L 181.815273 309.850131 
L 182.613818 311.663738 
L 183.412364 312.980687 
L 184.210909 313.936973 
L 185.275636 314.817693 
L 186.340364 315.392516 
L 187.671273 315.839029 
L 189.268364 316.138579 
L 191.664 316.344786 
L 195.922909 316.449509 
L 211.095273 316.472675 
L 226.8 316.472727 
L 227.598545 279.107852 
L 228.397091 251.974586 
L 229.195636 232.271909 
L 229.994182 217.965255 
L 230.792727 207.576451 
L 231.591273 200.032597 
L 232.389818 194.554486 
L 233.188364 190.576576 
L 233.986909 187.688103 
L 234.785455 185.590637 
L 235.584 184.067525 
L 236.382545 182.961514 
L 237.181091 182.158411 
L 238.245818 181.418783 
L 239.310545 180.936047 
L 240.641455 180.561062 
L 242.504727 180.281101 
L 245.432727 180.106899 
L 251.554909 180.035576 
L 276.576 180.02887 
L 276.842182 37.223723 
L 277.640727 113.697427 
L 278.439273 169.228441 
L 279.237818 209.550996 
L 280.036364 238.831285 
L 280.834909 260.093236 
L 281.633455 275.533034 
L 282.432 286.744578 
L 283.230545 294.885564 
L 284.029091 300.797166 
L 284.827636 305.089992 
L 285.626182 308.207127 
L 286.424727 310.47071 
L 287.223273 312.114346 
L 288.021818 313.307875 
L 288.820364 314.174593 
L 289.885091 314.972772 
L 290.949818 315.493737 
L 292.280727 315.898409 
L 294.144 316.200535 
L 296.805818 316.379047 
L 302.129455 316.461632 
L 326.618182 316.472727 
L 326.884364 47.784052 
L 327.682909 110.688229 
L 328.481455 156.36738 
L 329.28 189.536226 
L 330.078545 213.621858 
L 330.877091 231.112124 
L 331.675636 243.81258 
L 332.474182 253.034735 
L 333.272727 259.731419 
L 334.071273 264.594367 
L 334.869818 268.125479 
L 335.668364 270.689661 
L 336.466909 272.551574 
L 337.265455 273.903618 
L 338.064 274.885435 
L 339.128727 275.789619 
L 340.193455 276.379773 
L 341.524364 276.838185 
L 343.121455 277.145718 
L 345.517091 277.357412 
L 349.776 277.464927 
L 364.682182 277.488715 
L 376.394182 277.488768 
L 376.660364 115.194258 
L 377.458909 148.370355 
L 378.257455 172.460394 
L 379.056 189.953872 
L 379.854545 202.656348 
L 380.653091 211.880521 
L 381.451636 218.578434 
L 382.250182 223.44226 
L 383.048727 226.974013 
L 383.847273 229.538607 
L 384.645818 231.400933 
L 385.444364 232.753223 
L 386.242909 233.735216 
L 387.307636 234.639566 
L 388.372364 235.229817 
L 389.703273 235.688317 
L 391.300364 235.99592 
L 393.696 236.207658 
L 397.954909 236.31519 
L 412.861091 236.33897 
L 426.436364 236.339031 
L 426.436364 236.339031 
" clip-path="url(#pabc8dbc9c4)" style="fill: none; stroke-dasharray: 11.1,4.8; stroke-dashoffset: 0; stroke: #000000; stroke-width: 3"/>
   </g>
   <g id="line2d_2">
    <path d="M 27.163636 274.939017 
L 29.026909 252.908624 
L 34.882909 180.786397 
L 35.947636 171.192155 
L 36.746182 165.54703 
L 37.544727 161.418601 
L 38.077091 159.619153 
L 38.609455 158.62854 
L 38.875636 158.447237 
L 39.141818 158.478698 
L 39.408 158.722835 
L 39.940364 159.846174 
L 40.472727 161.799994 
L 41.005091 164.560192 
L 41.803636 170.102533 
L 42.868364 179.566411 
L 43.933091 189.166894 
L 47.925818 197.729073 
L 50.587636 204.14124 
L 51.12 206.405175 
L 53.515636 218.981746 
L 55.378909 228.512434 
L 56.443636 232.898203 
L 57.242182 235.149321 
L 57.774545 235.942812 
L 58.040727 236.064082 
L 58.306909 236.000871 
L 58.573091 235.697209 
L 58.839273 235.154579 
L 59.371636 233.230719 
L 59.904 229.998029 
L 60.702545 223.78387 
L 62.033455 215.671887 
L 63.630545 204.224913 
L 65.493818 189.058423 
L 66.292364 182.054294 
L 66.558545 183.507734 
L 67.357091 189.845989 
L 68.155636 194.68018 
L 68.954182 198.191769 
L 69.752727 200.527202 
L 70.285091 201.484203 
L 70.817455 201.990447 
L 71.349818 202.101262 
L 71.882182 201.786838 
L 72.414545 201.078407 
L 72.946909 200.014655 
L 73.745455 197.700606 
L 74.544 194.549008 
L 75.608727 189.088339 
L 76.673455 182.169357 
L 77.205818 177.437897 
L 81.997091 113.788527 
L 83.061818 103.265733 
L 84.126545 94.894742 
L 84.925091 90.193154 
L 85.191273 89.249714 
L 85.457455 92.606317 
L 86.522182 118.21629 
L 87.320727 132.764247 
L 88.119273 143.738553 
L 88.917818 151.426394 
L 89.450182 154.845128 
L 89.982545 156.973089 
L 90.248727 157.557028 
L 90.514909 157.841914 
L 90.781091 157.836735 
L 91.047273 157.550813 
L 91.313455 156.994086 
L 91.845818 155.111035 
L 92.378182 152.267058 
L 93.176727 146.441429 
L 93.709091 141.748145 
L 94.507636 140.387691 
L 95.572364 138.071737 
L 96.637091 135.227972 
L 97.968 131.054406 
L 101.960727 117.994449 
L 102.759273 116.313295 
L 103.291636 115.60195 
L 103.824 115.263535 
L 104.090182 115.301632 
L 104.622545 115.726406 
L 105.154909 116.759646 
L 105.687273 118.446734 
L 106.219636 120.914023 
L 107.018182 126.181854 
L 107.284364 128.435641 
L 109.946182 178.29768 
L 110.478545 187.241164 
L 111.277091 202.40754 
L 112.075636 212.550679 
L 112.608 216.665765 
L 113.140364 218.815909 
L 113.406545 219.140533 
L 113.672727 219.013628 
L 113.938909 218.409499 
L 114.471273 215.775574 
L 115.003636 211.317825 
L 115.536 205.067913 
L 116.334545 192.267114 
L 117.133091 175.387201 
L 117.931636 154.361154 
L 118.996364 119.648707 
L 120.061091 76.966834 
L 120.859636 40.753325 
L 121.125818 39.787098 
L 123.787636 72.271162 
L 126.715636 107.972132 
L 126.981818 111.475048 
L 127.514182 112.427196 
L 128.312727 114.387319 
L 129.111273 116.953766 
L 130.176 121.267518 
L 131.240727 126.543636 
L 132.571636 134.438115 
L 133.902545 143.743486 
L 135.499636 156.748368 
L 136.298182 163.108885 
L 137.362909 152.45226 
L 138.427636 144.367366 
L 139.226182 139.800785 
L 140.024727 136.318462 
L 140.823273 133.718167 
L 141.621818 131.791892 
L 142.420364 130.341586 
L 144.816 126.497569 
L 145.614545 124.57096 
L 146.413091 121.889976 
L 147.211636 118.088814 
L 148.010182 112.839136 
L 148.808727 105.832584 
L 149.607273 96.796122 
L 150.405818 85.464142 
L 151.204364 73.029681 
L 151.470545 76.709248 
L 152.535273 104.99155 
L 153.6 128.215995 
L 154.664727 147.015221 
L 155.729455 161.952874 
L 156.794182 173.623058 
L 157.858909 182.532974 
L 158.657455 187.717826 
L 159.456 191.825635 
L 160.254545 195.007605 
L 161.053091 200.886043 
L 161.851636 205.237226 
L 162.650182 208.427008 
L 163.448727 210.734456 
L 164.247273 212.359816 
L 165.045818 213.476492 
L 165.844364 214.19328 
L 166.642909 214.609908 
L 167.441455 214.788569 
L 168.506182 214.732345 
L 169.570909 214.416841 
L 170.369455 214.042928 
L 170.635636 211.123767 
L 171.966545 181.681626 
L 173.297455 156.966856 
L 174.362182 140.712219 
L 175.426909 127.914097 
L 176.225455 120.787881 
L 176.757818 117.307472 
L 177.024 116.474795 
L 180.218182 113.540035 
L 181.016727 113.082712 
L 181.815273 112.89328 
L 182.347636 112.928655 
L 183.146182 113.273549 
L 183.944727 113.949834 
L 185.009455 115.275754 
L 186.340364 117.05582 
L 186.872727 117.521132 
L 187.405091 117.638689 
L 187.671273 117.510142 
L 187.937455 117.221832 
L 188.203636 116.744477 
L 188.736 115.042396 
L 189.268364 112.117854 
L 189.800727 107.569426 
L 190.333091 100.976798 
L 191.397818 84.354796 
L 191.664 82.412896 
L 191.930182 81.398758 
L 192.196364 81.350812 
L 192.462545 82.155065 
L 192.728727 83.900475 
L 193.261091 89.760602 
L 193.527273 93.828286 
L 194.592 102.941662 
L 195.656727 114.184263 
L 199.383273 156.353738 
L 199.915636 159.929162 
L 200.448 162.006263 
L 200.714182 162.368221 
L 200.980364 162.156948 
L 201.246545 161.334788 
L 201.512727 159.875949 
L 202.045091 154.724147 
L 202.577455 146.094921 
L 203.109818 133.34011 
L 203.642182 115.868314 
L 204.174545 92.919591 
L 204.706909 63.617725 
L 204.973091 63.052922 
L 205.239273 63.769411 
L 205.771636 66.995729 
L 206.304 72.372602 
L 207.102545 83.906444 
L 208.167273 103.953571 
L 210.030545 142.224043 
L 210.296727 144.693474 
L 210.829091 145.306749 
L 211.361455 146.474962 
L 212.16 149.130524 
L 213.224727 153.814293 
L 214.821818 160.905695 
L 215.354182 162.491606 
L 215.620364 162.98499 
L 215.886545 163.241259 
L 216.152727 163.221069 
L 216.418909 162.884217 
L 216.685091 162.189463 
L 216.951273 161.094899 
L 217.483636 157.448285 
L 218.016 151.634646 
L 218.548364 143.308775 
L 219.080727 131.897019 
L 220.145455 106.278461 
L 222.541091 94.984999 
L 223.872 89.682406 
L 224.936727 86.22935 
L 226.001455 83.605845 
L 226.8 82.208067 
L 229.994182 80.893857 
L 230.792727 80.792592 
L 231.591273 80.898931 
L 232.389818 81.288996 
L 233.188364 82.04051 
L 233.986909 83.240815 
L 234.785455 84.986699 
L 235.584 87.392172 
L 235.850182 88.359839 
L 236.116364 93.144697 
L 237.447273 130.62605 
L 238.512 155.128802 
L 239.310545 169.501898 
L 240.109091 179.879027 
L 240.641455 184.317043 
L 241.173818 186.597849 
L 241.44 186.902714 
L 241.706182 186.572287 
L 241.972364 185.659975 
L 242.504727 181.888957 
L 243.037091 175.452299 
L 243.569455 168.328858 
L 244.368 164.567829 
L 245.166545 159.308758 
L 245.965091 152.33932 
L 246.763636 143.423523 
L 247.562182 132.342088 
L 248.626909 113.91416 
L 249.691636 91.068773 
L 250.756364 63.684386 
L 251.821091 33.395349 
L 252.087273 30.312519 
L 252.353455 30.871406 
L 252.885818 32.897119 
L 253.418182 36.029282 
L 254.216727 42.405476 
L 255.281455 53.234012 
L 259.274182 96.967858 
L 260.072727 103.036676 
L 264.331636 183.852838 
L 265.396364 198.208816 
L 266.194909 205.857524 
L 266.727273 209.248712 
L 267.259636 211.168579 
L 267.525818 211.556318 
L 267.792 211.555467 
L 268.058182 211.162944 
L 268.324364 210.377651 
L 268.856727 207.634913 
L 269.389091 203.363322 
L 270.187636 194.264535 
L 270.986182 183.934667 
L 272.583273 168.824893 
L 273.914182 158.291899 
L 274.978909 151.495706 
L 275.777455 147.440048 
L 276.576 144.328022 
L 277.374545 141.466208 
L 278.173091 137.295135 
L 278.971636 131.940875 
L 280.036364 123.316459 
L 282.165818 103.51361 
L 283.496727 91.980295 
L 284.295273 86.445468 
L 285.093818 82.579102 
L 285.626182 81.198002 
L 285.892364 80.928899 
L 286.158545 80.971087 
L 286.424727 81.314365 
L 286.690909 82.028484 
L 287.223273 84.521704 
L 287.755636 88.611035 
L 288.288 94.420161 
L 289.086545 106.529287 
L 289.618909 114.14297 
L 290.683636 125.891789 
L 292.014545 143.550033 
L 293.611636 164.966936 
L 294.942545 175.648394 
L 296.539636 190.371343 
L 298.669091 212.395816 
L 304.258909 271.72236 
L 305.856 285.886684 
L 307.186909 295.988939 
L 307.453091 296.843815 
L 307.985455 295.490584 
L 308.784 292.781727 
L 310.114909 287.481568 
L 311.978182 284.10658 
L 314.107636 279.84728 
L 316.237091 274.949889 
L 318.100364 269.931348 
L 319.697455 264.934783 
L 321.294545 259.15301 
L 322.891636 252.464428 
L 324.488727 244.79108 
L 326.352 234.59492 
L 326.618182 233.042252 
L 327.682909 212.923803 
L 328.481455 201.239802 
L 329.013818 195.90143 
L 329.546182 193.042074 
L 329.812364 192.638885 
L 330.078545 193.032699 
L 330.344727 194.198199 
L 330.610909 196.176019 
L 331.143273 202.863336 
L 331.675636 213.25487 
L 332.474182 234.893886 
L 332.740364 234.810459 
L 333.272727 231.040319 
L 333.805091 228.933697 
L 334.337455 228.088002 
L 334.603636 228.025695 
L 334.869818 228.136695 
L 335.402182 228.755624 
L 337.531636 232.161919 
L 338.064 232.45424 
L 338.596364 232.364984 
L 339.128727 231.88683 
L 339.661091 231.056655 
L 340.459636 229.247682 
L 343.387636 221.43772 
L 344.186182 215.493515 
L 344.984727 208.062768 
L 346.049455 195.617439 
L 347.114182 179.711435 
L 348.178909 159.721893 
L 349.243636 134.691803 
L 350.042182 111.702911 
L 350.308364 113.141648 
L 352.171636 167.995078 
L 353.768727 209.42108 
L 355.099636 238.924755 
L 356.164364 258.367726 
L 356.962909 270.013674 
L 357.761455 278.829181 
L 358.293818 282.930428 
L 358.826182 285.54806 
L 359.092364 286.276317 
L 359.358545 286.612642 
L 359.624727 286.54737 
L 359.890909 286.060673 
L 360.689455 285.237845 
L 361.488 283.999755 
L 362.286545 282.293324 
L 363.085091 280.072016 
L 364.149818 276.233319 
L 364.948364 272.646593 
L 365.214545 271.097603 
L 365.746909 265.92964 
L 367.077818 249.537854 
L 368.408727 230.377192 
L 370.272 199.797475 
L 373.466182 146.083509 
L 374.530909 132.292667 
L 375.329455 125.227161 
L 375.861818 122.705184 
L 376.128 122.222141 
L 376.394182 122.325723 
L 377.458909 124.448733 
L 377.991273 126.369741 
L 378.523636 129.163191 
L 378.789818 130.952474 
L 380.120727 149.446432 
L 380.919273 157.80257 
L 381.717818 163.557588 
L 382.250182 165.806705 
L 382.516364 166.472229 
L 382.782545 166.778954 
L 383.048727 166.788224 
L 383.314909 166.501056 
L 383.847273 164.976276 
L 384.379636 162.319449 
L 384.912 158.635651 
L 385.710545 151.483504 
L 387.041455 136.621887 
L 389.170909 112.222349 
L 389.969455 105.208862 
L 390.501818 101.738267 
L 390.768 100.442157 
L 391.034182 100.94439 
L 392.098909 118.55323 
L 393.163636 137.903934 
L 395.293091 196.358033 
L 397.422545 253.442163 
L 398.753455 283.18691 
L 399.818182 301.481274 
L 400.350545 307.845161 
L 401.149091 259.554759 
L 401.947636 225.569537 
L 402.48 209.93109 
L 403.012364 199.05746 
L 403.544727 192.444897 
L 403.810909 190.536126 
L 404.077091 189.449761 
L 404.343273 189.120686 
L 404.609455 189.526851 
L 404.875636 190.544834 
L 405.408 194.170065 
L 406.206545 202.700528 
L 407.537455 221.009583 
L 408.868364 238.393976 
L 409.666909 245.795654 
L 409.933091 246.767249 
L 410.465455 226.296068 
L 411.264 197.13137 
L 412.062545 175.310638 
L 412.861091 159.264622 
L 413.659636 147.736556 
L 414.458182 139.744254 
L 415.256727 134.495489 
L 415.789091 132.20234 
L 416.321455 130.701928 
L 416.853818 129.868637 
L 417.386182 129.59669 
L 417.918545 129.821762 
L 418.450909 130.449188 
L 418.983273 131.412519 
L 419.781818 133.399485 
L 420.846545 136.849891 
L 422.177455 142.128923 
L 424.040727 150.670245 
L 426.436364 162.014672 
L 426.436364 162.014672 
" clip-path="url(#pabc8dbc9c4)" style="fill: none; stroke: #ff0000; stroke-width: 3; stroke-linecap: square"/>
   </g>
   <g id="patch_3">
    <path d="M 7.2 331.2 
L 7.2 7.2 
" style="fill: none; stroke: #000000; stroke-width: 0.8; stroke-linejoin: miter; stroke-linecap: square"/>
   </g>
   <g id="patch_4">
    <path d="M 446.4 331.2 
L 446.4 7.2 
" style="fill: none; stroke: #000000; stroke-width: 0.8; stroke-linejoin: miter; stroke-linecap: square"/>
   </g>
   <g id="patch_5">
    <path d="M 7.2 331.2 
L 446.4 331.2 
" style="fill: none; stroke: #000000; stroke-width: 0.8; stroke-linejoin: miter; stroke-linecap: square"/>
   </g>
   <g id="patch_6">
    <path d="M 7.2 7.2 
L 446.4 7.2 
" style="fill: none; stroke: #000000; stroke-width: 0.8; stroke-linejoin: miter; stroke-linecap: square"/>
   </g>
  </g>
 </g>
 <defs>
  <clipPath id="pabc8dbc9c4">
   <rect x="7.2" y="7.2" width="439.2" height="324"/>
  </clipPath>
 </defs>
</svg>
