<?xml version="1.0" encoding="utf-8" standalone="no"?>
<!DOCTYPE svg PUBLIC "-//W3C//DTD SVG 1.1//EN"
  "http://www.w3.org/Graphics/SVG/1.1/DTD/svg11.dtd">
<svg xmlns:xlink="http://www.w3.org/1999/xlink" width="453.6pt" height="338.4pt" viewBox="0 0 453.6 338.4" xmlns="http://www.w3.org/2000/svg" version="1.1">
 <metadata>
  <rdf:RDF xmlns:dc="http://purl.org/dc/elements/1.1/" xmlns:cc="http://creativecommons.org/ns#" xmlns:rdf="http://www.w3.org/1999/02/22-rdf-syntax-ns#">
   <cc:Work>
    <dc:type rdf:resource="http://purl.org/dc/dcmitype/StillImage"/>
    <dc:date>2025-05-15T17:24:37.632236</dc:date>
    <dc:format>image/svg+xml</dc:format>
    <dc:creator>
     <cc:Agent>
      <dc:title>Matplotlib v3.10.1, https://matplotlib.org/</dc:title>
     </cc:Agent>
    </dc:creator>
   </cc:Work>
  </rdf:RDF>
 </metadata>
 <defs>
  <style type="text/css">*{stroke-linejoin: round; stroke-linecap: butt}</style>
 </defs>
 <g id="figure_1">
  <g id="patch_1">
   <path d="M 0 338.4 
L 453.6 338.4 
L 453.6 0 
L 0 0 
z
" style="fill: #ffffff"/>
  </g>
  <g id="axes_1">
   <g id="patch_2">
    <path d="M 7.2 331.2 
L 446.4 331.2 
L 446.4 7.2 
L 7.2 7.2 
z
" style="fill: #ffffff"/>
   </g>
   <g id="matplotlib.axis_1"/>
   <g id="matplotlib.axis_2"/>
   <g id="line2d_1">
    <path d="M 27.163636 316.378353 
L 29.109952 315.974971 
L 35.504989 314.633848 
L 39.39762 313.920519 
L 41.343935 313.186086 
L 43.846341 312.268164 
L 48.295062 310.910919 
L 49.407242 310.324619 
L 50.241378 309.673905 
L 51.075513 308.705238 
L 51.909648 307.268089 
L 52.743783 305.232549 
L 53.577918 302.571494 
L 54.690099 298.258437 
L 57.192504 288.142467 
L 58.58273 283.627455 
L 61.641226 275.009284 
L 63.309496 270.489924 
L 64.421676 268.141385 
L 65.255812 266.943018 
L 66.089947 266.199513 
L 67.480172 265.172674 
L 68.036262 264.432037 
L 68.592352 263.262307 
L 69.148443 261.507589 
L 69.704533 259.04842 
L 70.538668 253.942638 
L 71.372803 247.287446 
L 73.041074 231.351785 
L 74.709344 216.193425 
L 76.09957 205.834169 
L 78.32393 189.953995 
L 79.714155 177.778911 
L 81.660471 157.994571 
L 83.884832 135.632845 
L 84.997012 126.693224 
L 85.831147 121.998736 
L 86.387237 120.067853 
L 86.943327 119.159296 
L 87.221372 119.08517 
L 87.499418 119.252304 
L 87.777463 119.644521 
L 88.333553 121.010046 
L 89.167688 124.027228 
L 90.557913 129.317241 
L 91.392049 131.51664 
L 91.948139 132.376773 
L 92.504229 132.772695 
L 93.060319 132.808481 
L 93.894454 132.495093 
L 95.562725 131.742418 
L 97.787085 131.028353 
L 98.343175 130.56399 
L 99.177311 129.461262 
L 100.011446 127.900127 
L 102.513852 122.522537 
L 103.069942 121.934068 
L 103.626032 121.777357 
L 103.904077 121.877015 
L 104.460167 122.449427 
L 105.016257 123.511023 
L 105.850393 125.877336 
L 107.240618 130.931961 
L 109.186933 137.950936 
L 110.299114 141.163169 
L 111.689339 144.43276 
L 115.02588 151.527045 
L 116.13806 154.849747 
L 117.250241 158.957644 
L 118.918511 166.137356 
L 120.586781 174.272274 
L 122.255052 183.564621 
L 124.479413 197.734021 
L 126.703773 211.665208 
L 128.372044 220.746617 
L 134.489035 251.524145 
L 135.601215 256.131446 
L 136.713396 259.771325 
L 137.547531 261.774912 
L 138.381666 263.122859 
L 138.937756 263.688122 
L 139.771892 264.15007 
L 141.718207 264.757307 
L 142.274297 265.250197 
L 142.830387 266.049279 
L 143.386478 267.205689 
L 144.220613 269.652197 
L 145.054748 272.901184 
L 146.166928 278.170686 
L 150.059559 297.734334 
L 151.17174 302.135191 
L 152.28392 305.731768 
L 153.3961 308.526603 
L 154.230236 310.111824 
L 155.064371 311.247207 
L 155.620461 311.740666 
L 156.176551 312.012976 
L 156.732641 312.055849 
L 157.288731 311.861587 
L 157.844821 311.426117 
L 158.400912 310.750771 
L 159.235047 309.30483 
L 160.069182 307.370202 
L 161.181362 304.081436 
L 162.293543 300.035396 
L 163.683768 294.007058 
L 165.630084 284.290904 
L 167.854444 273.201315 
L 169.24467 267.275563 
L 170.634895 262.275454 
L 174.249481 249.973678 
L 175.361661 244.911194 
L 176.473841 238.532386 
L 177.586022 230.54813 
L 178.976247 218.465376 
L 181.756698 191.138023 
L 187.595644 135.315532 
L 188.707825 126.405216 
L 189.54196 121.66144 
L 190.09805 119.671778 
L 190.65414 118.639842 
L 190.932185 118.452084 
L 191.21023 118.45386 
L 191.488276 118.61761 
L 192.044366 119.306768 
L 193.434591 121.453852 
L 193.712636 121.644199 
L 193.990681 121.669173 
L 194.268726 121.502107 
L 194.546771 121.124306 
L 195.102861 119.702589 
L 195.658952 117.409471 
L 196.493087 112.578018 
L 199.273538 94.214532 
L 199.829628 91.93028 
L 200.385718 90.303598 
L 200.941808 89.251476 
L 201.497898 88.621249 
L 203.444214 86.949357 
L 205.390529 84.504943 
L 205.668574 84.371666 
L 205.946619 84.361937 
L 206.224664 84.498361 
L 206.50271 84.799821 
L 207.0588 85.942361 
L 207.61489 87.798442 
L 208.449025 91.63053 
L 210.673386 102.659419 
L 211.229476 104.4654 
L 211.785566 105.655892 
L 212.341656 106.28551 
L 212.897746 106.476652 
L 213.453836 106.366132 
L 214.566017 105.743417 
L 215.400152 105.40174 
L 215.956242 105.387392 
L 216.790377 105.646586 
L 218.180603 106.195547 
L 218.736693 106.194024 
L 219.292783 105.874359 
L 219.848873 105.094968 
L 220.404963 103.759728 
L 220.961053 101.835698 
L 221.795189 97.855562 
L 222.629324 92.662906 
L 224.575639 78.223331 
L 225.68782 70.792614 
L 226.521955 66.557649 
L 227.078045 64.618155 
L 227.634135 63.45328 
L 227.91218 63.157337 
L 228.190225 63.04367 
L 228.46827 63.103955 
L 228.746316 63.329089 
L 229.302406 64.232333 
L 229.858496 65.64202 
L 230.970676 69.282475 
L 232.082856 72.810261 
L 232.916992 74.890545 
L 233.751127 76.400972 
L 235.975487 79.633339 
L 236.809623 81.557809 
L 237.643758 84.065419 
L 238.755938 88.280418 
L 240.980299 98.065587 
L 242.648569 105.080637 
L 243.76075 108.751818 
L 244.594885 110.857735 
L 245.42902 112.4431 
L 247.375336 115.314501 
L 249.043606 117.734111 
L 249.599696 118.287421 
L 250.155786 118.542215 
L 250.433831 118.521015 
L 250.989921 118.129373 
L 251.546012 117.261525 
L 252.380147 115.223862 
L 254.326462 109.87485 
L 254.882553 109.09759 
L 255.160598 108.948358 
L 255.438643 108.974973 
L 255.716688 109.182578 
L 256.272778 110.132504 
L 256.828868 111.740388 
L 257.663003 115.145371 
L 259.331274 123.607872 
L 260.721499 130.127173 
L 262.667815 137.821669 
L 263.779995 142.744693 
L 264.61413 147.42309 
L 265.72631 155.243943 
L 267.394581 169.353616 
L 268.784806 180.579638 
L 269.896987 187.743497 
L 271.009167 193.422317 
L 272.399392 200.327955 
L 273.233527 205.426809 
L 274.345708 213.863414 
L 278.238339 246.627474 
L 279.350519 253.273428 
L 280.462699 258.687607 
L 282.13097 265.575551 
L 286.023601 280.889069 
L 287.691871 289.02935 
L 290.750367 304.421868 
L 291.862547 308.909893 
L 292.974728 312.452366 
L 293.808863 314.421869 
L 294.642998 315.75676 
L 295.199088 316.272192 
L 295.755179 316.472727 
L 296.311269 316.346032 
L 296.867359 315.883608 
L 297.423449 315.083429 
L 297.979539 313.951311 
L 298.813674 311.664814 
L 299.925855 307.662175 
L 301.31608 301.587443 
L 306.876982 276.040772 
L 309.657432 263.989675 
L 311.047658 256.906117 
L 312.437883 248.663226 
L 313.828108 239.15302 
L 317.442694 213.063101 
L 318.554875 206.963952 
L 321.335325 192.816243 
L 322.169461 187.029399 
L 323.281641 177.663179 
L 326.618182 147.460804 
L 327.452317 142.304051 
L 328.286452 138.638657 
L 329.120587 136.262158 
L 329.954723 134.750074 
L 331.901038 131.844816 
L 332.735173 130.140979 
L 333.847354 127.27012 
L 336.627805 119.604708 
L 337.46194 118.180623 
L 338.01803 117.671372 
L 338.57412 117.540515 
L 339.13021 117.771368 
L 339.6863 118.318841 
L 340.520436 119.551343 
L 341.632616 121.289916 
L 342.188706 121.879113 
L 342.744796 122.129745 
L 343.300886 121.968229 
L 343.856976 121.349744 
L 344.413067 120.264359 
L 345.247202 117.844157 
L 346.359382 113.56356 
L 347.749607 107.237855 
L 349.417878 98.579981 
L 350.808103 90.259505 
L 353.866599 71.115443 
L 354.700734 67.031047 
L 355.53487 63.933412 
L 356.09096 62.462747 
L 356.64705 61.470944 
L 357.20314 60.928277 
L 357.75923 60.741364 
L 359.427501 60.59313 
L 359.983591 60.046792 
L 360.539681 58.971169 
L 361.095771 57.238078 
L 361.651861 54.785881 
L 362.485996 49.857748 
L 363.876222 39.578538 
L 365.266447 29.435212 
L 366.100582 24.895066 
L 366.656673 22.930817 
L 366.934718 22.32289 
L 367.212763 21.984258 
L 367.490808 21.927273 
L 367.768853 22.16283 
L 368.046898 22.699389 
L 368.602988 24.68499 
L 369.159078 27.845499 
L 369.993213 34.473679 
L 371.383439 48.498076 
L 372.773664 62.100021 
L 373.607799 68.299623 
L 374.441935 72.659286 
L 375.27607 75.461705 
L 376.110205 77.303607 
L 377.222385 79.561785 
L 378.056521 81.854954 
L 378.890656 84.875993 
L 380.002836 89.925864 
L 381.671107 98.965481 
L 385.007648 117.997754 
L 385.841783 121.254926 
L 386.397873 122.675509 
L 386.953963 123.428506 
L 387.232008 123.555387 
L 387.510053 123.525625 
L 388.066143 123.051483 
L 388.622233 122.144973 
L 389.734414 119.67748 
L 390.846594 117.358255 
L 391.402684 116.595225 
L 391.958774 116.244208 
L 392.236819 116.251754 
L 392.514865 116.394675 
L 393.070955 117.123172 
L 393.627045 118.496194 
L 394.183135 120.556986 
L 395.01727 124.926767 
L 396.12945 132.700194 
L 398.353811 149.481463 
L 399.187946 154.09543 
L 399.744036 156.28109 
L 400.300127 157.71531 
L 400.856217 158.429155 
L 401.134262 158.538051 
L 401.412307 158.498712 
L 401.968397 158.042894 
L 402.802532 156.730141 
L 403.914713 154.829967 
L 404.470803 154.2572 
L 404.748848 154.143347 
L 405.026893 154.170114 
L 405.304938 154.353084 
L 405.861028 155.231456 
L 406.417118 156.820881 
L 406.973208 159.085371 
L 407.807344 163.511359 
L 411.699975 186.374807 
L 413.0902 193.779849 
L 413.924335 199.206539 
L 415.036516 208.197774 
L 416.426741 221.776725 
L 418.651102 243.723207 
L 419.763282 252.675915 
L 420.875462 259.96298 
L 422.265688 267.35998 
L 426.436364 287.37818 
L 426.436364 287.37818 
" clip-path="url(#p37a2bb3fd9)" style="fill: none; stroke-dasharray: 11.1,4.8; stroke-dashoffset: 0; stroke: #000000; stroke-width: 3"/>
   </g>
   <g id="line2d_2">
    <path d="M 27.163636 226.375989 
L 27.441681 295.271547 
L 27.719727 254.87737 
L 27.997772 308.642973 
L 28.553862 170.925597 
L 28.831907 257.570065 
L 29.109952 202.043636 
L 29.387997 231.450545 
L 29.666042 280.450847 
L 29.944087 243.949381 
L 30.222132 225.52523 
L 30.500177 268.498726 
L 30.778222 240.097776 
L 31.056267 229.518022 
L 31.334312 230.939992 
L 31.612358 241.904164 
L 31.890403 229.803204 
L 32.168448 267.171304 
L 32.446493 241.192942 
L 32.724538 249.486533 
L 33.002583 198.497288 
L 33.280628 259.325393 
L 33.558673 231.203246 
L 34.114763 262.638429 
L 34.392808 251.843201 
L 34.670853 232.734146 
L 34.948898 240.782739 
L 35.226944 266.68462 
L 35.504989 217.094707 
L 35.783034 208.716382 
L 36.061079 234.711524 
L 36.339124 287.083815 
L 36.895214 210.206488 
L 37.173259 220.101483 
L 37.451304 198.80917 
L 37.729349 220.00966 
L 38.007394 232.030081 
L 38.285439 261.758982 
L 38.563484 258.772958 
L 38.84153 284.486759 
L 39.119575 236.45299 
L 39.675665 316.149402 
L 39.95371 257.257464 
L 40.5098 243.98905 
L 40.787845 287.765398 
L 41.06589 241.873133 
L 41.343935 232.801267 
L 41.62198 198.156118 
L 41.900025 198.00489 
L 42.17807 253.786706 
L 42.456115 217.450546 
L 42.734161 232.430902 
L 43.012206 308.043684 
L 43.290251 171.387049 
L 43.568296 159.303517 
L 44.124386 315.654123 
L 44.402431 247.268471 
L 44.680476 227.094656 
L 44.958521 262.938835 
L 45.236566 277.433441 
L 45.514611 196.379307 
L 45.792656 187.584096 
L 46.070701 187.179274 
L 46.348747 186.0813 
L 46.626792 248.20476 
L 46.904837 218.061654 
L 47.460927 261.437088 
L 47.738972 199.790702 
L 48.017017 201.652738 
L 48.295062 233.056349 
L 48.573107 312.508046 
L 48.851152 249.592755 
L 49.129197 236.401689 
L 49.407242 261.178038 
L 49.685287 298.9216 
L 49.963332 169.729607 
L 50.241378 178.853789 
L 50.519423 216.648364 
L 50.797468 206.134021 
L 51.075513 273.185461 
L 51.353558 219.434929 
L 51.909648 294.87601 
L 52.187693 188.063382 
L 52.743783 199.306645 
L 53.021828 176.175696 
L 53.299873 238.060384 
L 53.577918 206.865343 
L 53.855964 220.624134 
L 54.134009 277.601556 
L 54.412054 148.300362 
L 54.968144 208.697888 
L 55.246189 185.383563 
L 55.524234 220.060656 
L 55.802279 199.62433 
L 56.080324 217.226055 
L 56.358369 246.422212 
L 56.914459 165.376796 
L 57.192504 145.266278 
L 57.47055 199.559697 
L 57.748595 226.45827 
L 58.02664 205.312143 
L 58.304685 254.364744 
L 58.58273 268.091265 
L 58.860775 198.112736 
L 59.13882 179.048975 
L 59.69491 169.115335 
L 59.972955 228.569889 
L 60.251 215.657594 
L 60.529045 242.435097 
L 60.80709 254.220325 
L 61.085135 190.22104 
L 61.363181 211.767098 
L 61.641226 142.852133 
L 61.919271 238.549365 
L 62.197316 217.972504 
L 62.475361 212.92194 
L 62.753406 243.158036 
L 63.031451 251.317064 
L 63.587541 195.132389 
L 63.865586 181.667544 
L 64.143631 191.429094 
L 64.421676 252.156868 
L 64.699721 192.620278 
L 65.255812 245.965387 
L 65.533857 154.406161 
L 65.811902 205.114538 
L 66.089947 188.378952 
L 66.646037 217.044269 
L 66.924082 204.235438 
L 67.202127 209.900866 
L 67.480172 221.956007 
L 67.758217 220.906322 
L 68.036262 165.382194 
L 68.314307 225.04124 
L 68.592352 173.893271 
L 68.870398 180.048391 
L 69.704533 235.632399 
L 69.982578 206.038187 
L 70.260623 188.475801 
L 70.538668 206.471519 
L 70.816713 179.385188 
L 71.094758 223.995971 
L 71.372803 194.796616 
L 71.650848 219.859328 
L 71.928893 210.957826 
L 72.206938 180.832148 
L 72.484984 223.78955 
L 72.763029 206.440336 
L 73.041074 203.696053 
L 73.319119 211.076129 
L 73.597164 185.634974 
L 73.875209 205.252975 
L 74.153254 214.455293 
L 74.431299 196.458965 
L 74.709344 194.326822 
L 74.987389 198.626471 
L 75.265434 150.14844 
L 75.543479 234.696229 
L 75.821524 182.140553 
L 76.09957 221.704799 
L 76.377615 225.590455 
L 76.65566 166.624104 
L 76.933705 204.096527 
L 77.21175 209.520967 
L 78.045885 176.325926 
L 78.32393 213.068735 
L 78.601975 200.157117 
L 78.88002 230.841113 
L 79.158065 171.264652 
L 79.43611 189.567599 
L 79.714155 173.755883 
L 79.992201 226.152005 
L 80.270246 174.742931 
L 80.548291 228.537437 
L 80.826336 232.41399 
L 81.104381 183.25856 
L 81.382426 216.042856 
L 81.660471 191.875048 
L 81.938516 200.743877 
L 82.216561 205.463068 
L 82.494606 169.684685 
L 82.772651 201.247324 
L 83.050696 197.280132 
L 83.328741 218.759205 
L 83.606787 163.039332 
L 83.884832 187.06334 
L 84.162877 162.045668 
L 84.440922 168.178201 
L 84.718967 206.016191 
L 84.997012 204.546541 
L 85.275057 223.522049 
L 85.553102 174.00369 
L 85.831147 210.64943 
L 86.109192 166.959978 
L 86.387237 201.858618 
L 86.943327 171.857639 
L 87.221372 222.527404 
L 87.499418 182.664727 
L 87.777463 209.030734 
L 88.055508 160.018935 
L 88.333553 165.4684 
L 88.611598 210.61598 
L 88.889643 196.771304 
L 89.167688 201.600829 
L 89.445733 220.643186 
L 89.723778 214.382436 
L 90.001823 179.123101 
L 90.279868 210.536541 
L 90.557913 183.432241 
L 90.835958 198.386092 
L 91.114004 187.47784 
L 91.392049 153.090684 
L 91.670094 207.084454 
L 91.948139 224.426867 
L 92.226184 207.478397 
L 92.504229 175.01341 
L 92.782274 183.216311 
L 93.060319 181.29866 
L 93.338364 212.953546 
L 93.616409 147.896099 
L 93.894454 212.739629 
L 94.172499 219.117802 
L 94.450544 171.986144 
L 94.72859 198.33875 
L 95.006635 207.839921 
L 95.28468 206.652357 
L 95.562725 100.902912 
L 96.118815 205.299048 
L 96.39686 186.981533 
L 96.674905 206.032367 
L 96.95295 174.890014 
L 97.230995 192.681646 
L 97.50904 185.880699 
L 97.787085 215.319148 
L 98.06513 196.983918 
L 98.343175 187.058788 
L 98.621221 231.596208 
L 98.899266 200.800033 
L 99.177311 206.412401 
L 99.455356 218.227569 
L 99.733401 187.180323 
L 100.011446 187.768386 
L 100.289491 180.158708 
L 100.567536 228.448981 
L 100.845581 203.939342 
L 101.123626 204.26075 
L 101.401671 178.274406 
L 101.679716 206.348496 
L 101.957761 181.234534 
L 102.235807 189.897314 
L 102.513852 215.268118 
L 102.791897 199.404932 
L 103.069942 238.952089 
L 103.347987 194.424449 
L 103.626032 225.18851 
L 103.904077 196.553885 
L 104.182122 186.06345 
L 104.460167 155.243571 
L 104.738212 203.206598 
L 105.016257 175.324971 
L 105.294302 227.58274 
L 105.850393 168.152838 
L 106.406483 185.122643 
L 106.684528 201.777268 
L 107.240618 162.413487 
L 107.518663 238.225064 
L 107.796708 220.159467 
L 108.074753 210.486374 
L 108.352798 183.102018 
L 108.630843 192.754486 
L 108.908888 162.118305 
L 109.186933 190.344926 
L 109.464978 179.547008 
L 109.743024 222.305197 
L 110.021069 206.105832 
L 110.299114 167.410314 
L 110.577159 171.104117 
L 110.855204 196.449321 
L 111.133249 201.949613 
L 111.411294 182.686114 
L 111.689339 172.045922 
L 111.967384 234.899553 
L 112.245429 205.861579 
L 112.523474 213.482491 
L 112.801519 183.110089 
L 113.079564 194.235946 
L 113.35761 175.135385 
L 113.635655 181.742634 
L 113.9137 225.316508 
L 114.191745 197.010583 
L 114.46979 183.455455 
L 114.747835 161.276869 
L 115.02588 162.847174 
L 115.303925 198.536914 
L 115.58197 200.507778 
L 115.860015 186.252257 
L 116.13806 191.890157 
L 116.416105 175.312348 
L 116.69415 182.051285 
L 116.972195 201.020498 
L 117.250241 176.386042 
L 117.528286 206.402047 
L 117.806331 185.54337 
L 118.084376 175.748861 
L 118.362421 226.166505 
L 118.640466 190.717838 
L 118.918511 183.545028 
L 119.196556 159.204824 
L 119.474601 161.02402 
L 119.752646 193.870412 
L 120.030691 189.704869 
L 120.308736 206.497592 
L 120.586781 186.815837 
L 120.864827 198.906459 
L 121.142872 178.033908 
L 121.420917 197.994772 
L 121.698962 172.187929 
L 121.977007 207.608831 
L 122.255052 186.190432 
L 122.533097 177.491681 
L 122.811142 226.912633 
L 123.089187 188.057561 
L 123.367232 186.028747 
L 123.645277 168.510758 
L 123.923322 168.191584 
L 124.201367 200.331424 
L 124.479413 196.900842 
L 124.757458 222.951582 
L 125.035503 181.14381 
L 125.591593 159.52053 
L 125.869638 214.695739 
L 126.147683 183.360908 
L 126.425728 199.828687 
L 126.981818 162.271835 
L 127.259863 206.105359 
L 127.537908 220.407781 
L 127.815953 201.354545 
L 128.093998 160.370308 
L 128.372044 162.713627 
L 128.650089 205.656444 
L 128.928134 154.347433 
L 129.206179 217.487837 
L 129.484224 161.508297 
L 130.040314 168.174681 
L 130.318359 227.443727 
L 130.596404 202.41296 
L 130.874449 194.247858 
L 131.152494 195.227596 
L 131.430539 117.217077 
L 131.708584 156.206085 
L 132.264675 185.347659 
L 132.54272 162.478324 
L 132.820765 167.835152 
L 133.09881 193.091511 
L 133.376855 171.875929 
L 133.6549 192.044499 
L 133.932945 143.192829 
L 134.21099 186.527779 
L 134.489035 185.77803 
L 134.76708 234.827763 
L 135.045125 219.636833 
L 135.32317 187.693651 
L 135.601215 185.054118 
L 135.879261 172.875565 
L 136.157306 171.208072 
L 136.435351 184.938827 
L 136.713396 193.143065 
L 136.991441 172.103601 
L 137.547531 194.303896 
L 137.825576 178.942668 
L 138.103621 211.156177 
L 138.381666 208.17566 
L 138.659711 231.769914 
L 138.937756 178.468441 
L 139.215801 228.832974 
L 139.493847 202.964849 
L 139.771892 158.561586 
L 140.049937 174.136848 
L 140.606027 222.60669 
L 140.884072 188.725638 
L 141.440162 162.779072 
L 141.718207 163.604266 
L 141.996252 202.645319 
L 142.274297 148.321224 
L 142.552342 201.795067 
L 142.830387 173.411938 
L 143.108433 236.582782 
L 143.386478 166.750291 
L 143.664523 211.090021 
L 143.942568 189.957904 
L 144.220613 198.5638 
L 144.498658 180.372997 
L 145.054748 220.270664 
L 145.332793 175.735765 
L 145.610838 192.669887 
L 145.888883 165.266158 
L 146.166928 166.219096 
L 146.444973 199.682247 
L 146.723018 138.640501 
L 147.001064 219.47799 
L 147.279109 189.031953 
L 147.557154 242.639818 
L 147.835199 171.514861 
L 148.113244 214.432958 
L 148.391289 191.579612 
L 148.669334 198.704268 
L 148.947379 197.369214 
L 149.225424 215.752073 
L 149.503469 197.304056 
L 149.781514 194.815854 
L 150.337604 165.927044 
L 150.61565 167.059263 
L 150.893695 205.542641 
L 151.17174 202.82565 
L 151.449785 221.715679 
L 151.72783 195.722617 
L 152.005875 202.338632 
L 152.28392 163.676818 
L 152.561965 213.945382 
L 152.84001 193.963741 
L 153.118055 202.793807 
L 153.3961 192.370509 
L 153.95219 237.957512 
L 154.230236 201.579019 
L 154.508281 197.140713 
L 154.786326 169.403292 
L 155.064371 170.846108 
L 155.342416 208.282728 
L 155.620461 212.126119 
L 155.898506 221.753054 
L 156.176551 220.521059 
L 156.454596 208.663524 
L 156.732641 212.739274 
L 157.010686 213.558106 
L 157.288731 192.86218 
L 157.566776 193.991371 
L 157.844821 187.886892 
L 158.122867 212.972496 
L 158.678957 222.865613 
L 158.957002 186.794552 
L 159.235047 174.044026 
L 159.513092 174.014468 
L 160.347227 247.103706 
L 160.625272 209.195955 
L 160.903317 266.81096 
L 161.181362 219.414659 
L 161.737453 191.905876 
L 162.015498 200.670936 
L 162.293543 196.128692 
L 162.571588 186.633121 
L 162.849633 287.56489 
L 163.405723 188.035803 
L 163.683768 173.357592 
L 163.961813 173.172591 
L 164.239858 205.178613 
L 164.517903 219.742175 
L 164.795948 242.811029 
L 165.073993 188.602919 
L 165.352038 227.446536 
L 165.630084 173.966839 
L 165.908129 233.636341 
L 166.186174 208.818882 
L 166.464219 198.000947 
L 166.742264 211.667813 
L 167.020309 140.115413 
L 167.298354 232.59433 
L 167.576399 252.255265 
L 167.854444 186.904937 
L 168.132489 177.637208 
L 168.410534 178.186135 
L 168.688579 216.711322 
L 168.966624 201.299116 
L 169.24467 221.27321 
L 169.522715 147.801822 
L 169.80076 208.336618 
L 170.078805 170.606169 
L 170.35685 234.174829 
L 171.190985 179.694244 
L 171.46903 121.533375 
L 171.747075 215.084521 
L 172.02512 231.187815 
L 172.303165 191.872171 
L 172.58121 180.314996 
L 172.859256 186.358852 
L 173.137301 210.784923 
L 173.415346 168.729835 
L 173.693391 205.134198 
L 173.971436 160.080743 
L 174.249481 168.766433 
L 174.527526 156.08521 
L 174.805571 219.607714 
L 175.361661 173.390416 
L 175.639706 195.59489 
L 175.917751 197.311213 
L 176.195796 174.703728 
L 176.473841 227.44997 
L 176.751887 187.124928 
L 177.029932 174.152905 
L 177.307977 176.287975 
L 177.586022 213.939578 
L 177.864067 215.664294 
L 178.142112 194.588165 
L 178.420157 128.072404 
L 178.698202 107.207163 
L 179.254292 203.313396 
L 179.532337 193.753445 
L 179.810382 157.54662 
L 180.088427 162.2517 
L 180.644518 202.643796 
L 180.922563 220.272407 
L 181.478653 170.912687 
L 181.756698 172.025584 
L 182.034743 217.002731 
L 182.312788 219.946549 
L 182.868878 122.936192 
L 183.146923 216.165491 
L 183.424968 169.455355 
L 183.703013 215.9154 
L 183.981058 202.115815 
L 184.259104 179.393563 
L 184.537149 166.243917 
L 184.815194 132.265559 
L 185.093239 207.658745 
L 185.371284 216.954713 
L 185.649329 183.01434 
L 185.927374 165.711655 
L 186.205419 166.526308 
L 186.483464 212.941617 
L 186.761509 224.436139 
L 187.039554 191.441513 
L 187.317599 144.230332 
L 187.595644 143.414952 
L 187.87369 153.753465 
L 188.151735 209.938242 
L 188.42978 214.242916 
L 188.98587 148.627421 
L 189.263915 124.234884 
L 189.54196 198.673271 
L 189.820005 212.853618 
L 190.09805 180.233697 
L 190.376095 161.232488 
L 190.65414 168.145055 
L 190.932185 196.650598 
L 191.21023 210.750847 
L 191.488276 155.421025 
L 191.766321 139.904576 
L 192.044366 197.344004 
L 192.322411 194.305926 
L 192.600456 201.557243 
L 192.878501 199.872002 
L 193.156546 162.357821 
L 193.434591 158.691107 
L 193.712636 144.232413 
L 193.990681 197.685225 
L 194.268726 217.573147 
L 194.546771 184.465971 
L 195.102861 153.065406 
L 195.380907 191.618172 
L 195.658952 187.565315 
L 195.936997 136.500862 
L 196.493087 190.564748 
L 196.771132 201.229745 
L 197.049177 201.09085 
L 197.327222 217.491272 
L 197.605267 204.457933 
L 198.161357 126.402221 
L 198.439402 201.379434 
L 198.717447 216.885866 
L 198.995493 181.871732 
L 199.273538 163.577719 
L 199.551583 153.06236 
L 199.829628 186.122635 
L 200.107673 187.142304 
L 200.385718 134.922503 
L 200.941808 189.81165 
L 201.219853 123.803701 
L 201.497898 214.693726 
L 201.775943 191.296274 
L 202.053988 188.234356 
L 202.332033 201.067636 
L 202.888124 159.5252 
L 203.166169 204.548995 
L 203.444214 176.442842 
L 203.722259 164.705387 
L 204.000304 178.372473 
L 204.556394 191.973994 
L 204.834439 128.031441 
L 205.112484 161.128838 
L 205.390529 175.412192 
L 205.668574 172.425381 
L 205.946619 190.053128 
L 206.224664 172.058459 
L 206.50271 199.956228 
L 206.780755 150.44572 
L 207.0588 143.125049 
L 207.336845 174.159182 
L 207.61489 221.157953 
L 207.892935 186.538523 
L 208.17098 174.571652 
L 208.72707 205.090224 
L 209.005115 204.779188 
L 209.28316 126.259215 
L 209.83925 178.562938 
L 210.117296 162.188505 
L 210.395341 194.941991 
L 210.673386 175.475878 
L 211.229476 197.721348 
L 211.507521 151.255923 
L 212.063611 214.611631 
L 212.341656 184.398596 
L 212.619701 176.20385 
L 212.897746 184.551686 
L 213.175791 183.792767 
L 213.453836 196.601345 
L 213.731881 127.647058 
L 214.009927 107.524662 
L 214.287972 68.147074 
L 214.566017 192.17913 
L 214.844062 209.873185 
L 215.122107 171.518381 
L 215.400152 189.481883 
L 215.678197 191.017639 
L 215.956242 138.152315 
L 216.512332 218.804059 
L 216.790377 186.56891 
L 217.068422 179.0551 
L 217.346467 184.138692 
L 217.624513 180.875937 
L 217.902558 197.759164 
L 218.180603 127.437575 
L 218.458648 102.935584 
L 218.736693 201.459938 
L 219.014738 165.294329 
L 219.292783 192.259042 
L 219.570828 173.867773 
L 219.848873 203.731974 
L 220.126918 160.167085 
L 220.404963 143.590613 
L 220.961053 200.452569 
L 221.239099 181.1498 
L 221.517144 181.539479 
L 221.795189 210.923259 
L 222.073234 190.914598 
L 222.351279 199.972251 
L 222.629324 133.364921 
L 222.907369 124.811916 
L 223.185414 210.859218 
L 223.463459 178.834585 
L 223.741504 192.258162 
L 224.019549 177.429619 
L 224.297594 232.906778 
L 224.575639 138.580165 
L 224.853684 146.044823 
L 225.13173 160.097629 
L 225.409775 197.244871 
L 225.68782 180.218875 
L 225.965865 183.283838 
L 226.24391 212.975592 
L 226.521955 191.035083 
L 226.8 197.390127 
L 227.078045 136.244833 
L 227.35609 182.573361 
L 227.634135 188.391862 
L 227.91218 143.926301 
L 228.190225 192.11497 
L 228.46827 184.544546 
L 228.746316 199.292432 
L 229.024361 178.904091 
L 229.302406 133.704263 
L 229.580451 195.428857 
L 229.858496 193.839161 
L 230.136541 173.811769 
L 230.414586 178.026277 
L 230.692631 189.957363 
L 230.970676 177.11767 
L 231.248721 188.624779 
L 231.526766 180.352727 
L 232.082856 189.566465 
L 232.360901 145.061566 
L 232.638947 197.34732 
L 232.916992 184.038984 
L 233.195037 214.131973 
L 233.473082 139.921919 
L 233.751127 137.032447 
L 234.307217 197.234279 
L 234.585262 172.0088 
L 234.863307 170.415585 
L 235.141352 178.470743 
L 235.419397 191.703312 
L 235.697442 188.579942 
L 235.975487 159.129751 
L 236.253533 148.867242 
L 236.531578 87.487778 
L 236.809623 174.848544 
L 237.087668 204.03773 
L 237.365713 142.525108 
L 237.643758 200.114394 
L 237.921803 149.836236 
L 238.199848 182.776279 
L 238.477893 189.004679 
L 238.755938 202.117287 
L 239.033983 183.099193 
L 239.312028 189.394425 
L 239.590073 219.262229 
L 239.868119 197.219018 
L 240.146164 194.956965 
L 240.424209 135.589395 
L 240.702254 141.727003 
L 240.980299 85.989313 
L 241.258344 211.056672 
L 241.536389 159.346798 
L 241.814434 164.833198 
L 242.092479 164.710835 
L 242.370524 139.943897 
L 242.648569 183.324378 
L 242.926614 193.415016 
L 243.204659 229.892946 
L 243.482704 200.032773 
L 244.038795 222.530974 
L 244.31684 164.50416 
L 244.594885 199.147329 
L 244.87293 155.004816 
L 245.150975 174.131806 
L 245.42902 149.120378 
L 245.707065 229.237932 
L 245.98511 132.21052 
L 246.263155 188.954529 
L 246.5412 210.966743 
L 247.09729 126.525312 
L 247.375336 217.201369 
L 247.653381 230.467389 
L 247.931426 207.541321 
L 248.209471 213.023695 
L 248.487516 222.406969 
L 248.765561 156.155698 
L 249.043606 197.892525 
L 249.321651 143.32169 
L 249.599696 127.595791 
L 249.877741 180.613917 
L 250.155786 178.496613 
L 250.433831 158.29356 
L 250.711876 208.425311 
L 250.989921 192.926983 
L 251.546012 137.580478 
L 251.824057 213.367504 
L 252.102102 228.379356 
L 252.380147 215.025827 
L 252.658192 212.156777 
L 252.936237 221.696204 
L 253.214282 159.641946 
L 253.492327 149.005916 
L 253.770372 145.259527 
L 254.048417 121.536555 
L 254.326462 135.634994 
L 254.604507 205.589797 
L 254.882553 192.812927 
L 255.438643 214.740289 
L 255.716688 162.855076 
L 256.272778 180.337567 
L 256.550823 227.107058 
L 256.828868 214.851604 
L 257.106913 207.989644 
L 257.384958 168.867951 
L 257.941048 118.97218 
L 258.219093 127.15136 
L 258.497139 129.915473 
L 258.775184 202.208569 
L 259.053229 195.251064 
L 259.331274 197.070039 
L 259.609319 224.449691 
L 259.887364 216.435496 
L 260.165409 156.599656 
L 260.443454 180.997285 
L 260.721499 174.584308 
L 260.999544 232.059369 
L 261.277589 219.671248 
L 261.555634 212.492313 
L 261.833679 176.500944 
L 262.111724 157.612066 
L 262.38977 161.199867 
L 262.667815 181.946907 
L 262.94586 166.51443 
L 263.223905 204.876358 
L 263.50195 192.929284 
L 263.779995 205.620658 
L 264.05804 205.242586 
L 264.336085 170.025584 
L 264.61413 170.502349 
L 264.892175 150.412506 
L 265.448265 232.608094 
L 265.72631 202.280038 
L 266.004356 204.919504 
L 266.282401 213.734917 
L 266.560446 147.859806 
L 266.838491 198.982767 
L 267.116536 185.092577 
L 267.394581 199.91222 
L 267.672626 169.861158 
L 267.950671 177.095978 
L 268.228716 189.153302 
L 268.506761 212.694504 
L 268.784806 180.010204 
L 269.340896 149.056608 
L 269.896987 224.949366 
L 270.175032 185.053949 
L 270.453077 180.227386 
L 270.731122 215.161168 
L 271.009167 181.199662 
L 271.287212 206.109809 
L 271.565257 154.437987 
L 271.843302 142.851456 
L 272.121347 198.427291 
L 272.399392 205.098447 
L 272.677437 172.64033 
L 272.955482 195.8429 
L 273.233527 209.29184 
L 273.511573 132.85523 
L 273.789618 199.191658 
L 274.067663 169.669999 
L 274.345708 224.396276 
L 274.623753 206.947624 
L 274.901798 205.827502 
L 275.179843 166.813098 
L 275.457888 158.482605 
L 275.735933 176.41753 
L 276.013978 142.750868 
L 276.292023 144.522265 
L 276.570068 164.147187 
L 276.848113 198.07196 
L 277.404204 153.067707 
L 277.682249 139.541732 
L 277.960294 158.149167 
L 278.516384 225.329857 
L 278.794429 224.154239 
L 279.350519 208.275537 
L 279.628564 174.538862 
L 279.906609 167.16002 
L 280.184654 204.950771 
L 280.462699 210.938978 
L 281.01879 112.862202 
L 281.296835 206.513125 
L 281.57488 227.214414 
L 281.852925 155.243317 
L 282.13097 154.924769 
L 282.409015 173.701977 
L 282.68706 154.626389 
L 283.24315 237.270485 
L 283.79924 214.664928 
L 284.077285 179.402581 
L 284.633376 226.810065 
L 284.911421 192.448712 
L 285.189466 183.408807 
L 285.467511 198.927422 
L 285.745556 228.298615 
L 286.023601 245.052507 
L 286.301646 161.970477 
L 286.579691 173.368218 
L 286.857736 190.307771 
L 287.135781 174.054094 
L 287.413826 219.946989 
L 287.691871 234.558468 
L 288.247962 209.982487 
L 288.526007 173.781618 
L 288.804052 207.462103 
L 289.082097 205.97846 
L 289.360142 171.944454 
L 289.638187 171.233113 
L 289.916232 178.47059 
L 290.194277 201.450277 
L 290.472322 251.961885 
L 291.028412 169.308643 
L 291.306457 179.288221 
L 291.584502 244.578331 
L 291.862547 206.01812 
L 292.140593 225.959408 
L 292.418638 227.347775 
L 292.696683 219.802308 
L 292.974728 202.451757 
L 293.252773 252.423447 
L 293.808863 170.894989 
L 294.086908 216.042247 
L 294.364953 224.254827 
L 294.642998 276.569611 
L 294.921043 253.903613 
L 295.199088 183.726967 
L 295.477133 175.573014 
L 295.755179 178.898542 
L 296.033224 197.669371 
L 296.311269 233.979795 
L 296.589314 231.249454 
L 296.867359 230.225927 
L 297.145404 217.625209 
L 297.423449 195.124166 
L 297.701494 255.700923 
L 297.979539 264.189417 
L 298.257584 239.396233 
L 298.535629 228.609092 
L 299.091719 261.927182 
L 299.369764 253.342748 
L 299.64781 232.555947 
L 299.925855 184.343793 
L 300.2039 199.382682 
L 300.481945 156.062673 
L 300.75999 204.599196 
L 301.038035 230.754687 
L 301.31608 214.756735 
L 301.594125 220.295823 
L 301.87217 192.058136 
L 302.150215 222.448541 
L 302.42826 227.939476 
L 302.706305 219.921322 
L 302.98435 140.980673 
L 303.262396 221.068041 
L 303.540441 256.024386 
L 303.818486 239.813135 
L 304.096531 200.048306 
L 304.374576 183.582133 
L 304.652621 189.946855 
L 304.930666 138.073469 
L 305.208711 213.366405 
L 305.486756 224.188146 
L 305.764801 185.760975 
L 306.042846 194.890961 
L 306.320891 177.888364 
L 306.598936 211.116415 
L 306.876982 183.299455 
L 307.155027 140.887868 
L 307.433072 128.857007 
L 307.711117 169.326731 
L 307.989162 185.508194 
L 308.267207 215.082914 
L 308.545252 194.134935 
L 308.823297 144.123957 
L 309.101342 157.629578 
L 309.379387 204.450674 
L 309.657432 205.165009 
L 309.935477 191.834914 
L 310.213522 201.423543 
L 310.491567 197.128988 
L 310.769613 180.173682 
L 311.325703 217.0218 
L 311.603748 126.013523 
L 311.881793 111.807881 
L 312.159838 156.95942 
L 312.437883 127.23853 
L 312.993973 166.145579 
L 313.272018 168.839357 
L 313.550063 181.675564 
L 313.828108 158.470202 
L 314.106153 191.756829 
L 314.384199 177.410026 
L 314.662244 184.189806 
L 314.940289 172.380781 
L 315.218334 192.483499 
L 315.496379 189.255666 
L 315.774424 159.712231 
L 316.052469 151.334193 
L 316.330514 174.221481 
L 316.886604 145.749455 
L 317.164649 137.607719 
L 317.442694 109.731743 
L 317.720739 176.121214 
L 317.998785 195.220642 
L 318.27683 151.288899 
L 318.554875 215.63504 
L 318.83292 176.804688 
L 319.110965 183.534995 
L 319.38901 166.393132 
L 319.667055 193.92711 
L 319.9451 160.968912 
L 320.223145 202.559079 
L 320.50119 113.894933 
L 320.779235 102.548849 
L 321.05728 100.037111 
L 321.335325 190.99901 
L 321.61337 140.958254 
L 321.891416 118.718316 
L 322.169461 202.002385 
L 322.447506 201.399907 
L 322.725551 167.663112 
L 323.003596 202.624677 
L 323.281641 179.912323 
L 323.559686 199.457958 
L 323.837731 186.321002 
L 324.115776 132.242261 
L 324.671866 204.541888 
L 324.949911 130.025096 
L 325.227956 126.600673 
L 325.506002 132.384607 
L 325.784047 158.664069 
L 326.062092 142.135818 
L 326.340137 113.678817 
L 326.618182 163.084914 
L 326.896227 182.092298 
L 327.174272 183.042427 
L 327.452317 203.428264 
L 327.730362 179.122915 
L 328.008407 170.772879 
L 328.286452 151.480718 
L 329.120587 205.582115 
L 329.398633 145.144828 
L 329.676678 114.986528 
L 329.954723 170.174512 
L 330.232768 85.445512 
L 330.510813 147.912782 
L 330.788858 139.213979 
L 331.344948 166.501503 
L 331.901038 194.106324 
L 332.457128 175.173809 
L 332.735173 155.210916 
L 333.013219 171.352618 
L 333.291264 213.817671 
L 333.569309 167.236853 
L 333.847354 165.718914 
L 334.125399 186.142719 
L 334.403444 163.509227 
L 334.681489 186.7621 
L 334.959534 141.498569 
L 335.237579 121.277548 
L 335.515624 174.58045 
L 335.793669 177.405069 
L 336.349759 133.645146 
L 336.627805 203.541542 
L 336.90585 205.018755 
L 337.183895 182.212733 
L 337.46194 122.397044 
L 337.739985 205.945636 
L 338.01803 87.358596 
L 338.296075 199.258153 
L 338.57412 99.301694 
L 338.852165 103.523867 
L 339.13021 191.696781 
L 339.408255 194.525494 
L 339.6863 120.186748 
L 339.964345 162.140588 
L 340.24239 172.895175 
L 340.520436 153.917333 
L 340.798481 191.668102 
L 341.076526 197.660945 
L 341.354571 197.661182 
L 341.632616 197.455336 
L 341.910661 147.775122 
L 342.188706 221.157817 
L 342.466751 187.870953 
L 342.744796 140.87533 
L 343.022841 152.176543 
L 343.300886 139.615671 
L 343.578931 116.609522 
L 343.856976 148.521199 
L 344.135022 129.723129 
L 344.691112 107.512276 
L 344.969157 181.129344 
L 345.247202 183.129733 
L 345.525247 175.874693 
L 345.803292 177.219933 
L 346.081337 154.221753 
L 346.359382 187.831936 
L 346.637427 146.113991 
L 346.915472 203.578951 
L 347.193517 115.804819 
L 347.471562 149.530057 
L 347.749607 141.662708 
L 348.027653 159.170223 
L 348.305698 152.169539 
L 348.583743 101.727039 
L 348.861788 155.013885 
L 349.139833 153.129295 
L 349.417878 201.628137 
L 349.695923 206.97808 
L 349.973968 189.658932 
L 350.252013 164.264289 
L 350.530058 162.792879 
L 350.808103 198.914682 
L 351.086148 135.450991 
L 351.364193 172.863975 
L 351.642239 149.055999 
L 351.920284 37.006499 
L 352.198329 172.449965 
L 352.476374 164.52778 
L 352.754419 130.154058 
L 353.310509 186.006312 
L 353.588554 182.529369 
L 353.866599 169.363633 
L 354.144644 190.518794 
L 354.422689 179.546078 
L 354.978779 143.632421 
L 355.256825 222.013703 
L 355.53487 84.561827 
L 355.812915 183.922373 
L 356.09096 145.090888 
L 356.369005 161.280625 
L 356.64705 73.696095 
L 356.925095 130.376841 
L 357.20314 90.914283 
L 357.481185 183.508871 
L 357.75923 191.300588 
L 358.037275 188.440506 
L 358.31532 140.26407 
L 358.593365 202.242984 
L 359.149456 155.646143 
L 359.427501 154.139049 
L 359.705546 188.249195 
L 359.983591 147.013953 
L 360.261636 163.539412 
L 360.539681 121.862532 
L 360.817726 132.36723 
L 361.095771 108.38965 
L 361.373816 94.830885 
L 361.651861 105.925677 
L 361.929906 175.706223 
L 362.207951 174.853028 
L 362.485996 164.881014 
L 362.764042 164.117865 
L 363.042087 191.686223 
L 363.320132 169.897332 
L 363.598177 157.396441 
L 363.876222 204.93974 
L 364.154267 201.817554 
L 364.432312 219.195041 
L 364.988402 139.611966 
L 365.266447 64.394814 
L 365.544492 213.065233 
L 365.822537 174.823283 
L 366.100582 177.886097 
L 366.378628 139.403447 
L 366.656673 179.479498 
L 366.934718 146.758482 
L 367.212763 176.958235 
L 367.490808 188.866089 
L 368.046898 156.993192 
L 368.324943 222.163392 
L 368.602988 215.037958 
L 368.881033 239.488361 
L 369.159078 171.030059 
L 369.437123 203.417824 
L 369.715168 221.085316 
L 369.993213 205.851224 
L 370.271259 153.917468 
L 370.549304 190.467899 
L 370.827349 168.493872 
L 371.105394 177.264042 
L 371.383439 173.439653 
L 371.661484 194.040134 
L 371.939529 120.988795 
L 372.217574 168.90954 
L 372.773664 158.503822 
L 373.051709 219.210083 
L 373.329754 183.220744 
L 373.607799 195.487923 
L 373.885845 165.79353 
L 374.16389 195.64103 
L 374.441935 124.451237 
L 374.71998 145.81485 
L 374.998025 210.307414 
L 375.27607 151.278815 
L 375.554115 179.041531 
L 375.83216 176.85878 
L 376.110205 181.414882 
L 376.38825 218.861079 
L 376.666295 168.620821 
L 376.94434 204.259921 
L 377.222385 171.553963 
L 377.50043 172.47235 
L 377.778476 120.457769 
L 378.056521 197.453932 
L 378.334566 141.97684 
L 378.612611 175.864982 
L 378.890656 137.554066 
L 379.168701 188.690969 
L 379.446746 177.129953 
L 379.724791 119.689967 
L 380.002836 173.197226 
L 380.280881 111.200631 
L 380.558926 242.221324 
L 380.836971 200.662357 
L 381.115016 176.519522 
L 381.393062 168.337906 
L 381.671107 154.143634 
L 381.949152 199.70233 
L 382.227197 192.919487 
L 382.505242 93.638177 
L 382.783287 98.494266 
L 383.061332 154.232869 
L 383.339377 133.714077 
L 383.617422 156.842082 
L 383.895467 109.238058 
L 384.173512 176.06746 
L 384.451557 181.957583 
L 384.729602 161.791703 
L 385.007648 205.940425 
L 385.285693 226.609498 
L 385.563738 194.310156 
L 385.841783 190.475987 
L 386.119828 210.852044 
L 386.397873 188.707906 
L 386.675918 204.01384 
L 386.953963 173.043781 
L 387.232008 197.200626 
L 387.510053 133.520396 
L 387.788098 143.427151 
L 388.066143 97.758747 
L 388.344188 138.555445 
L 388.622233 202.077255 
L 388.900279 196.424127 
L 389.178324 198.199095 
L 389.456369 195.486942 
L 389.734414 225.663481 
L 390.012459 197.08344 
L 390.290504 206.159925 
L 390.568549 206.677602 
L 390.846594 182.261039 
L 391.124639 216.753622 
L 391.402684 130.92076 
L 391.680729 175.008182 
L 391.958774 193.727474 
L 392.236819 110.331582 
L 392.514865 127.685381 
L 392.79291 185.942389 
L 393.070955 210.042569 
L 393.349 199.819229 
L 393.627045 205.424711 
L 393.90509 168.662596 
L 394.183135 214.960161 
L 394.46118 196.735417 
L 394.739225 163.987024 
L 395.01727 222.827273 
L 395.295315 198.25471 
L 395.57336 220.620294 
L 395.851405 120.642228 
L 396.12945 132.849646 
L 396.407496 157.253046 
L 396.685541 157.688966 
L 396.963586 183.361669 
L 397.241631 192.800389 
L 397.519676 213.207579 
L 397.797721 206.053127 
L 398.075766 173.167972 
L 398.353811 257.163923 
L 398.631856 208.782487 
L 398.909901 206.774247 
L 399.187946 209.240217 
L 399.465991 220.847103 
L 400.022082 176.565409 
L 400.300127 171.753345 
L 400.856217 99.045985 
L 401.134262 203.33639 
L 401.412307 127.782958 
L 401.690352 120.781833 
L 401.968397 199.869785 
L 402.246442 195.871342 
L 402.524487 149.56173 
L 402.802532 204.34836 
L 403.080577 142.073723 
L 403.358622 164.709143 
L 403.636668 220.9115 
L 403.914713 229.513792 
L 404.192758 150.457851 
L 404.470803 215.164433 
L 404.748848 201.387707 
L 405.026893 233.816342 
L 405.304938 239.011494 
L 405.582983 100.51418 
L 405.861028 177.204451 
L 406.139073 108.988204 
L 406.417118 187.115469 
L 406.695163 182.02516 
L 406.973208 185.041581 
L 407.251253 225.366387 
L 407.807344 166.020441 
L 408.085389 164.381153 
L 408.363434 205.837316 
L 408.641479 189.942439 
L 408.919524 205.100054 
L 409.197569 133.862294 
L 409.475614 163.630356 
L 409.753659 127.758779 
L 410.031704 215.253736 
L 410.309749 180.986626 
L 410.587794 94.51303 
L 410.865839 177.111494 
L 411.143885 181.445659 
L 411.42193 187.676985 
L 411.699975 213.086772 
L 411.97802 181.205669 
L 412.256065 164.462842 
L 412.53411 159.50674 
L 412.812155 160.853655 
L 413.0902 212.653288 
L 413.368245 208.038881 
L 413.64629 102.076872 
L 413.924335 138.961976 
L 414.20238 149.459738 
L 414.480425 111.701168 
L 414.75847 115.061923 
L 415.036516 102.165092 
L 415.314561 158.206812 
L 415.592606 173.252909 
L 415.870651 151.747391 
L 416.148696 224.035039 
L 416.426741 221.162944 
L 416.704786 176.677942 
L 416.982831 156.609469 
L 417.260876 208.004094 
L 417.538921 198.321949 
L 417.816966 174.126206 
L 418.095011 121.030046 
L 418.373056 120.160692 
L 418.651102 135.226162 
L 418.929147 117.376799 
L 419.207192 119.754296 
L 419.485237 133.419555 
L 419.763282 176.710343 
L 420.041327 180.140672 
L 420.319372 173.761602 
L 420.875462 227.684478 
L 421.153507 229.358587 
L 421.431552 212.408543 
L 421.709597 210.889386 
L 421.987642 198.042807 
L 422.265688 214.630581 
L 422.543733 131.349473 
L 422.821778 168.241903 
L 423.099823 147.793785 
L 423.377868 138.926868 
L 423.655913 167.310099 
L 424.212003 191.765763 
L 424.490048 194.903397 
L 424.768093 200.963698 
L 425.046138 187.192014 
L 425.324183 262.152456 
L 425.880273 206.881163 
L 426.158319 220.512633 
L 426.436364 208.66635 
L 426.436364 208.66635 
" clip-path="url(#p37a2bb3fd9)" style="fill: none; stroke: #ff00ff; stroke-width: 3; stroke-linecap: square"/>
   </g>
   <g id="patch_3">
    <path d="M 7.2 331.2 
L 7.2 7.2 
" style="fill: none; stroke: #000000; stroke-width: 0.8; stroke-linejoin: miter; stroke-linecap: square"/>
   </g>
   <g id="patch_4">
    <path d="M 446.4 331.2 
L 446.4 7.2 
" style="fill: none; stroke: #000000; stroke-width: 0.8; stroke-linejoin: miter; stroke-linecap: square"/>
   </g>
   <g id="patch_5">
    <path d="M 7.2 331.2 
L 446.4 331.2 
" style="fill: none; stroke: #000000; stroke-width: 0.8; stroke-linejoin: miter; stroke-linecap: square"/>
   </g>
   <g id="patch_6">
    <path d="M 7.2 7.2 
L 446.4 7.2 
" style="fill: none; stroke: #000000; stroke-width: 0.8; stroke-linejoin: miter; stroke-linecap: square"/>
   </g>
  </g>
 </g>
 <defs>
  <clipPath id="p37a2bb3fd9">
   <rect x="7.2" y="7.2" width="439.2" height="324"/>
  </clipPath>
 </defs>
</svg>
