<?xml version="1.0" encoding="utf-8" standalone="no"?>
<!DOCTYPE svg PUBLIC "-//W3C//DTD SVG 1.1//EN"
  "http://www.w3.org/Graphics/SVG/1.1/DTD/svg11.dtd">
<svg xmlns:xlink="http://www.w3.org/1999/xlink" width="453.6pt" height="338.4pt" viewBox="0 0 453.6 338.4" xmlns="http://www.w3.org/2000/svg" version="1.1">
 <metadata>
  <rdf:RDF xmlns:dc="http://purl.org/dc/elements/1.1/" xmlns:cc="http://creativecommons.org/ns#" xmlns:rdf="http://www.w3.org/1999/02/22-rdf-syntax-ns#">
   <cc:Work>
    <dc:type rdf:resource="http://purl.org/dc/dcmitype/StillImage"/>
    <dc:date>2025-05-15T17:29:28.608690</dc:date>
    <dc:format>image/svg+xml</dc:format>
    <dc:creator>
     <cc:Agent>
      <dc:title>Matplotlib v3.10.1, https://matplotlib.org/</dc:title>
     </cc:Agent>
    </dc:creator>
   </cc:Work>
  </rdf:RDF>
 </metadata>
 <defs>
  <style type="text/css">*{stroke-linejoin: round; stroke-linecap: butt}</style>
 </defs>
 <g id="figure_1">
  <g id="patch_1">
   <path d="M 0 338.4 
L 453.6 338.4 
L 453.6 0 
L 0 0 
z
" style="fill: #ffffff"/>
  </g>
  <g id="axes_1">
   <g id="patch_2">
    <path d="M 7.2 331.2 
L 446.4 331.2 
L 446.4 7.2 
L 7.2 7.2 
z
" style="fill: #ffffff"/>
   </g>
   <g id="matplotlib.axis_1"/>
   <g id="matplotlib.axis_2"/>
   <g id="line2d_1">
    <path d="M 27.163636 299.699876 
L 28.275817 278.596441 
L 30.778222 229.292101 
L 31.890403 212.131914 
L 33.002583 198.937771 
L 33.836718 191.379184 
L 34.670853 185.509114 
L 35.504989 181.088426 
L 36.339124 177.958226 
L 36.895214 176.536864 
L 37.451304 175.617356 
L 38.007394 175.169554 
L 38.563484 175.15485 
L 39.119575 175.524859 
L 39.675665 176.222917 
L 40.5098 177.749884 
L 41.62198 180.374231 
L 43.290251 184.965186 
L 44.680476 189.429661 
L 45.792656 193.774174 
L 47.182882 200.277316 
L 48.851152 208.016342 
L 49.685287 210.669402 
L 50.241378 211.645458 
L 50.519423 211.863996 
L 50.797468 211.899714 
L 51.075513 211.756426 
L 51.631603 210.97861 
L 52.187693 209.676354 
L 53.855964 205.119637 
L 54.412054 204.355668 
L 54.690099 204.263357 
L 54.968144 204.394322 
L 55.246189 204.763152 
L 55.802279 206.236391 
L 56.358369 208.650131 
L 57.192504 213.665955 
L 58.860775 224.781043 
L 59.416865 227.396351 
L 59.972955 228.878214 
L 60.251 229.114576 
L 60.529045 228.985321 
L 60.80709 228.477296 
L 61.085135 227.585228 
L 61.641226 224.665128 
L 62.197316 220.329307 
L 63.031451 211.652024 
L 66.367992 172.943581 
L 66.924082 169.277591 
L 67.480172 167.006862 
L 67.758217 166.407264 
L 68.036262 166.158141 
L 68.314307 166.246014 
L 68.592352 166.650261 
L 69.148443 168.293859 
L 69.982578 172.26811 
L 71.372803 179.601246 
L 71.928893 181.517895 
L 72.206938 182.057477 
L 72.484984 182.263207 
L 72.763029 182.102142 
L 73.041074 181.548226 
L 73.319119 180.583521 
L 73.875209 177.39118 
L 74.431299 172.55087 
L 75.265434 162.587098 
L 76.65566 141.626048 
L 78.045885 121.3103 
L 78.88002 112.188544 
L 79.43611 107.963553 
L 79.992201 105.3365 
L 80.270246 104.611555 
L 80.548291 104.25803 
L 80.826336 104.251672 
L 81.104381 104.562152 
L 81.660471 105.990449 
L 82.216561 108.227448 
L 85.275057 122.383777 
L 87.221372 129.482517 
L 87.777463 132.446357 
L 88.333553 136.274962 
L 89.167688 143.949533 
L 90.001823 153.963426 
L 91.392049 174.213772 
L 93.060319 198.149597 
L 93.894454 207.664619 
L 94.72859 215.053517 
L 95.562725 220.575748 
L 96.39686 224.746574 
L 97.50904 228.999192 
L 98.343175 231.47401 
L 99.177311 233.326899 
L 100.011446 234.559175 
L 101.957761 236.706568 
L 102.513852 237.844314 
L 103.069942 239.470504 
L 103.904077 242.873107 
L 105.294302 250.130254 
L 106.128438 254.195914 
L 106.684528 256.269236 
L 107.240618 257.615047 
L 107.518663 257.98034 
L 107.796708 258.13225 
L 108.074753 258.071241 
L 108.352798 257.80219 
L 108.908888 256.678847 
L 109.464978 254.867548 
L 110.299114 251.151252 
L 111.411294 244.974726 
L 112.801519 236.044228 
L 114.191745 225.679792 
L 115.58197 213.305239 
L 117.250241 195.976242 
L 119.752646 169.816086 
L 120.864827 160.286268 
L 121.977007 152.715175 
L 122.811142 148.333209 
L 123.645277 144.967434 
L 124.479413 142.500314 
L 125.313548 140.83658 
L 125.869638 140.153063 
L 126.425728 139.817177 
L 126.981818 139.849912 
L 127.537908 140.281439 
L 128.093998 141.143615 
L 128.650089 142.460897 
L 129.484224 145.304314 
L 130.318359 149.121637 
L 131.430539 155.378939 
L 134.489035 173.658955 
L 135.601215 178.934398 
L 136.713396 183.301059 
L 138.381666 188.879999 
L 141.718207 199.218797 
L 142.552342 201.158102 
L 143.108433 202.090765 
L 143.664523 202.665649 
L 144.220613 202.83832 
L 144.776703 202.581359 
L 145.332793 201.886168 
L 145.888883 200.764258 
L 146.723018 198.355003 
L 147.835199 194.113367 
L 150.059559 185.132655 
L 150.893695 182.830901 
L 151.449785 181.882656 
L 152.005875 181.446922 
L 152.28392 181.41918 
L 152.84001 181.716158 
L 153.3961 182.419256 
L 154.230236 184.014768 
L 157.566776 191.236937 
L 162.015498 199.303988 
L 162.571588 199.824798 
L 163.127678 200.016796 
L 163.683768 199.833884 
L 164.239858 199.259809 
L 164.795948 198.309645 
L 165.630084 196.275925 
L 166.742264 192.764088 
L 168.688579 185.621955 
L 170.078805 179.896907 
L 171.190985 174.551623 
L 172.58121 166.718437 
L 174.527526 155.612249 
L 175.361661 152.165467 
L 175.917751 150.684344 
L 176.473841 149.965156 
L 176.751887 149.902089 
L 177.029932 150.03465 
L 177.307977 150.356249 
L 177.864067 151.52139 
L 178.420157 153.276072 
L 179.532337 157.898653 
L 181.200608 165.049131 
L 182.034743 167.756104 
L 182.868878 169.589873 
L 183.424968 170.315558 
L 183.981058 170.678632 
L 184.537149 170.737976 
L 185.093239 170.576703 
L 186.483464 169.958819 
L 187.039554 169.991323 
L 187.595644 170.410205 
L 188.151735 171.358796 
L 188.707825 172.954539 
L 189.263915 175.271436 
L 190.09805 180.109087 
L 191.21023 188.579183 
L 192.878501 201.694586 
L 193.434591 204.842333 
L 193.990681 206.823089 
L 194.268726 207.295581 
L 194.546771 207.392655 
L 194.824816 207.100809 
L 195.102861 206.415351 
L 195.658952 203.887592 
L 196.215042 199.946932 
L 197.049177 192.016857 
L 198.995493 171.786508 
L 199.551583 167.664879 
L 200.107673 164.942556 
L 200.385718 164.162451 
L 200.663763 163.780674 
L 200.941808 163.793043 
L 201.219853 164.185245 
L 201.497898 164.934118 
L 202.053988 167.365543 
L 202.888124 172.651805 
L 204.278349 182.025481 
L 204.834439 184.620885 
L 205.390529 185.992588 
L 205.668574 186.143204 
L 205.946619 185.912899 
L 206.224664 185.294368 
L 206.780755 182.907677 
L 207.336845 179.098191 
L 208.17098 171.261214 
L 210.951431 141.958906 
L 211.507521 138.194177 
L 212.063611 135.643069 
L 212.619701 134.330109 
L 212.897746 134.11668 
L 213.175791 134.1751 
L 213.453836 134.480401 
L 214.009927 135.707222 
L 214.844062 138.520007 
L 215.956242 142.258288 
L 216.512332 143.327488 
L 216.790377 143.523717 
L 217.068422 143.45131 
L 217.346467 143.084168 
L 217.624513 142.401784 
L 218.180603 140.040662 
L 218.736693 136.330816 
L 219.570828 128.415768 
L 220.683008 114.595903 
L 222.907369 85.814428 
L 223.741504 78.091493 
L 224.297594 74.462862 
L 224.853684 72.109369 
L 225.409775 70.981056 
L 225.68782 70.84045 
L 225.965865 70.956781 
L 226.24391 71.308041 
L 226.8 72.624954 
L 227.35609 74.615859 
L 228.190225 78.559432 
L 229.302406 85.243521 
L 230.414586 93.688765 
L 231.248721 101.54544 
L 232.360901 114.514919 
L 233.473082 130.425422 
L 234.863307 153.610617 
L 238.477893 216.157788 
L 239.868119 235.929284 
L 241.258344 252.76586 
L 243.204659 273.459697 
L 245.150975 291.881983 
L 246.263155 300.590753 
L 247.09729 305.847089 
L 247.931426 309.9069 
L 248.765561 312.818758 
L 249.599696 314.734205 
L 250.155786 315.558374 
L 250.711876 316.092095 
L 251.267967 316.386438 
L 251.824057 316.472727 
L 252.380147 316.352812 
L 252.936237 315.990063 
L 253.492327 315.303598 
L 254.048417 314.168014 
L 254.604507 312.419574 
L 255.160598 309.869067 
L 255.716688 306.321523 
L 256.272778 301.600377 
L 257.106913 292.042343 
L 257.941048 279.390475 
L 259.053229 258.159646 
L 260.721499 220.222662 
L 264.336085 136.320875 
L 266.560446 90.173784 
L 267.950671 65.094618 
L 269.062851 48.387689 
L 269.896987 38.286779 
L 270.731122 30.493958 
L 271.565257 25.143311 
L 272.121347 22.984705 
L 272.399392 22.338271 
L 272.677437 21.984745 
L 272.955482 21.927273 
L 273.233527 22.168906 
L 273.511573 22.712094 
L 274.067663 24.711507 
L 274.623753 27.937532 
L 275.179843 32.391233 
L 276.013978 41.343809 
L 276.848113 52.923461 
L 277.960294 72.113577 
L 279.350519 101.118814 
L 281.296835 147.483287 
L 283.521195 200.144201 
L 284.633376 222.612751 
L 285.745556 240.551841 
L 286.579691 250.451622 
L 287.135781 255.273067 
L 287.691871 258.705123 
L 288.247962 260.835038 
L 288.526007 261.451258 
L 288.804052 261.793756 
L 289.082097 261.883802 
L 289.360142 261.743612 
L 289.638187 261.395866 
L 290.194277 260.169669 
L 291.028412 257.334275 
L 292.418638 251.257874 
L 294.086908 244.159365 
L 294.921043 241.487972 
L 295.477133 240.210152 
L 296.033224 239.38781 
L 296.589314 239.033729 
L 297.145404 239.128838 
L 297.701494 239.623779 
L 298.257584 240.445173 
L 299.091719 242.092517 
L 301.038035 246.248061 
L 301.87217 247.465565 
L 302.42826 247.874968 
L 302.706305 247.922753 
L 302.98435 247.848613 
L 303.262396 247.638721 
L 303.818486 246.756641 
L 304.374576 245.167995 
L 304.930666 242.775733 
L 305.486756 239.504534 
L 306.320891 232.86148 
L 307.155027 224.14908 
L 308.267207 209.64556 
L 309.657432 188.072753 
L 313.828108 120.233587 
L 315.218334 101.801198 
L 316.330514 89.533452 
L 317.164649 82.142843 
L 317.998785 76.704093 
L 318.554875 74.35846 
L 319.110965 73.151405 
L 319.38901 72.994802 
L 319.667055 73.140632 
L 319.9451 73.588296 
L 320.50119 75.366558 
L 321.05728 78.251403 
L 321.891416 84.35936 
L 323.003596 94.881371 
L 326.340137 128.414126 
L 327.452317 136.470613 
L 328.286452 140.990733 
L 329.120587 144.397983 
L 331.901038 154.278067 
L 332.735173 159.175594 
L 333.569309 165.66616 
L 334.681489 176.467949 
L 336.627805 196.033206 
L 337.183895 200.128111 
L 337.739985 202.946282 
L 338.01803 203.800944 
L 338.296075 204.259011 
L 338.57412 204.309894 
L 338.852165 203.951028 
L 339.13021 203.188886 
L 339.6863 200.521862 
L 340.24239 196.525742 
L 341.076526 188.796403 
L 342.744796 172.71968 
L 343.300886 168.899953 
L 343.856976 166.502443 
L 344.135022 165.919259 
L 344.413067 165.775186 
L 344.691112 166.08155 
L 344.969157 166.84145 
L 345.525247 169.690299 
L 346.081337 174.175812 
L 346.915472 183.346833 
L 349.417878 214.230227 
L 349.973968 218.652765 
L 350.530058 221.377145 
L 350.808103 222.051137 
L 351.086148 222.25807 
L 351.364193 222.003259 
L 351.642239 221.30134 
L 352.198329 218.654453 
L 352.754419 214.578921 
L 353.588554 206.525232 
L 355.53487 184.283704 
L 358.87141 145.076183 
L 360.261636 125.207474 
L 362.485996 89.138406 
L 364.432312 59.03558 
L 365.544492 44.902415 
L 366.378628 36.47666 
L 367.212763 30.25177 
L 367.768853 27.434662 
L 368.324943 25.730702 
L 368.602988 25.300978 
L 368.881033 25.152512 
L 369.159078 25.282622 
L 369.437123 25.68747 
L 369.993213 27.298957 
L 370.549304 29.928992 
L 371.383439 35.620588 
L 372.217574 43.157859 
L 373.329754 55.583503 
L 374.71998 73.986116 
L 379.724791 143.694284 
L 381.115016 158.584065 
L 382.783287 173.79607 
L 384.729602 189.256782 
L 386.119828 198.771804 
L 387.232008 204.999722 
L 388.066143 208.63478 
L 388.900279 211.281321 
L 389.456369 212.488815 
L 390.012459 213.270885 
L 390.568549 213.666926 
L 391.124639 213.73531 
L 391.680729 213.551519 
L 392.514865 212.992471 
L 393.90509 212.003099 
L 394.739225 211.680714 
L 395.851405 211.575687 
L 396.963586 211.46569 
L 397.519676 211.247453 
L 398.075766 210.860891 
L 398.909901 209.955092 
L 400.300127 207.894439 
L 401.968397 205.518105 
L 403.080577 203.932487 
L 403.636668 202.855658 
L 404.192758 201.397377 
L 404.748848 199.424088 
L 405.582983 195.320375 
L 406.417118 189.868585 
L 409.475614 167.808259 
L 410.031704 165.374268 
L 410.587794 163.718556 
L 411.143885 162.771212 
L 411.699975 162.38331 
L 412.256065 162.359544 
L 413.924335 162.646327 
L 415.870651 162.419744 
L 416.426741 162.894479 
L 416.982831 163.945693 
L 417.538921 165.688122 
L 418.095011 168.140122 
L 418.929147 172.912325 
L 420.597417 183.209718 
L 421.153507 185.70317 
L 421.709597 187.295584 
L 421.987642 187.715274 
L 422.265688 187.879646 
L 422.543733 187.796188 
L 422.821778 187.480138 
L 423.377868 186.247167 
L 424.212003 183.38914 
L 425.602228 178.334708 
L 426.436364 176.248371 
L 426.436364 176.248371 
" clip-path="url(#pc8617d9b9b)" style="fill: none; stroke-dasharray: 11.1,4.8; stroke-dashoffset: 0; stroke: #000000; stroke-width: 3"/>
   </g>
   <g id="line2d_2">
    <path d="M 27.163636 176.462516 
L 27.997772 176.108435 
L 30.500177 175.535401 
L 31.612358 175.429889 
L 32.168448 175.557549 
L 32.724538 175.875934 
L 33.280628 176.420325 
L 34.114763 177.671119 
L 35.226944 179.935792 
L 36.617169 182.72391 
L 37.173259 183.474423 
L 37.729349 183.875226 
L 38.285439 183.870579 
L 38.84153 183.442659 
L 39.39762 182.61308 
L 40.231755 180.748633 
L 41.62198 176.768903 
L 43.012206 173.007388 
L 43.846341 171.259803 
L 44.680476 169.930453 
L 45.792656 168.624937 
L 47.460927 167.075662 
L 48.573107 166.281223 
L 49.129197 166.089503 
L 49.685287 166.139277 
L 50.241378 166.515019 
L 50.797468 167.291356 
L 51.353558 168.520581 
L 51.909648 170.222067 
L 52.743783 173.602569 
L 53.855964 179.219701 
L 55.524234 187.803794 
L 56.358369 191.116097 
L 56.914459 192.736623 
L 57.47055 193.854834 
L 58.02664 194.496414 
L 58.58273 194.727598 
L 59.13882 194.642846 
L 59.972955 194.160713 
L 61.363181 193.225114 
L 62.197316 192.934955 
L 63.031451 192.933568 
L 63.865586 193.186391 
L 64.977767 193.811094 
L 66.367992 194.920705 
L 67.758217 196.363035 
L 70.538668 199.450397 
L 71.094758 199.778908 
L 71.650848 199.888096 
L 72.206938 199.731885 
L 72.763029 199.278812 
L 73.319119 198.516878 
L 74.153254 196.827205 
L 75.265434 193.801523 
L 77.489795 187.458406 
L 78.32393 185.770675 
L 79.158065 184.667584 
L 79.714155 184.243686 
L 80.270246 184.029633 
L 81.104381 183.992921 
L 84.718967 184.385517 
L 86.109192 184.447312 
L 86.943327 184.719115 
L 87.777463 185.268198 
L 88.611598 186.099996 
L 90.001823 187.890396 
L 91.392049 189.632293 
L 92.504229 190.634126 
L 93.338364 191.112375 
L 94.450544 191.486476 
L 96.39686 191.853248 
L 97.50904 191.896873 
L 98.343175 191.698633 
L 99.177311 191.176898 
L 100.011446 190.260303 
L 100.845581 188.954995 
L 102.235807 186.206918 
L 103.626032 183.468043 
L 104.460167 182.173739 
L 105.294302 181.271824 
L 106.128438 180.779149 
L 106.962573 180.649177 
L 107.796708 180.8034 
L 108.908888 181.322615 
L 110.021069 182.108777 
L 111.133249 183.150951 
L 112.245429 184.477944 
L 113.635655 186.513768 
L 116.416105 190.763496 
L 117.250241 191.662661 
L 118.084376 192.232297 
L 118.640466 192.410863 
L 119.196556 192.430976 
L 120.030691 192.198567 
L 121.142872 191.546491 
L 123.367232 190.124714 
L 124.479413 189.775765 
L 125.591593 189.72872 
L 126.981818 189.958839 
L 128.650089 190.464276 
L 130.040314 191.119704 
L 131.152494 191.895509 
L 132.54272 193.17104 
L 134.489035 195.003076 
L 135.601215 195.70555 
L 136.435351 195.976496 
L 137.269486 196.039378 
L 138.381666 195.893247 
L 141.162117 195.383557 
L 145.332793 195.03558 
L 146.723018 194.522399 
L 150.61565 192.659524 
L 152.005875 191.796285 
L 153.118055 190.772952 
L 154.230236 189.3444 
L 155.620461 187.054436 
L 157.566776 183.73321 
L 158.400912 182.638325 
L 159.235047 181.8514 
L 160.347227 181.171467 
L 161.459407 180.501682 
L 162.293543 179.647391 
L 162.849633 178.790348 
L 163.683768 177.000734 
L 164.517903 174.648998 
L 168.132489 163.480899 
L 168.966624 161.851102 
L 169.80076 160.681199 
L 170.634895 159.878299 
L 171.46903 159.337261 
L 172.58121 158.891585 
L 173.693391 158.703772 
L 174.527526 158.751997 
L 175.361661 158.989561 
L 176.473841 159.596556 
L 179.532337 161.601332 
L 180.366473 161.730933 
L 181.200608 161.564111 
L 182.034743 161.133186 
L 183.424968 160.061211 
L 185.093239 158.778883 
L 186.205419 158.224113 
L 187.039554 158.040738 
L 187.87369 158.077681 
L 188.707825 158.339126 
L 189.54196 158.818115 
L 190.65414 159.762129 
L 192.044366 161.326547 
L 195.380907 165.408945 
L 196.215042 166.045 
L 196.771132 166.275328 
L 197.327222 166.320085 
L 197.883312 166.162164 
L 198.439402 165.79627 
L 199.273538 164.879165 
L 200.107673 163.60153 
L 203.444214 157.931134 
L 204.278349 157.035229 
L 205.112484 156.455259 
L 205.946619 156.1688 
L 206.780755 156.139024 
L 207.61489 156.332385 
L 208.449025 156.727362 
L 209.561205 157.547971 
L 210.673386 158.678434 
L 212.063611 160.425903 
L 214.844062 164.063412 
L 215.956242 165.195586 
L 217.068422 166.058617 
L 218.458648 166.849379 
L 220.961053 168.178106 
L 222.073234 169.054175 
L 223.185414 170.272419 
L 224.297594 171.891859 
L 225.68782 174.419965 
L 229.580451 181.90841 
L 230.970676 183.891709 
L 232.082856 185.113328 
L 233.195037 186.028121 
L 234.585262 186.826998 
L 239.868119 189.377853 
L 241.814434 190.32226 
L 244.31684 191.228822 
L 247.931426 192.370175 
L 249.321651 192.524096 
L 250.711876 192.398148 
L 252.658192 191.92584 
L 254.882553 191.439407 
L 256.550823 191.320463 
L 258.775184 191.434067 
L 261.833679 191.579042 
L 265.72631 191.72011 
L 267.672626 191.763619 
L 269.340896 191.561033 
L 272.399392 191.051713 
L 273.789618 191.088124 
L 276.848113 191.313482 
L 277.960294 191.154844 
L 279.350519 190.7229 
L 285.745556 188.132907 
L 286.857736 187.302542 
L 288.526007 185.689322 
L 289.916232 184.409467 
L 290.750367 183.865331 
L 291.584502 183.551269 
L 292.418638 183.447236 
L 294.921043 183.356566 
L 295.755179 182.959162 
L 296.589314 182.230264 
L 297.423449 181.177431 
L 298.813674 178.926122 
L 301.31608 174.759041 
L 304.096531 170.4336 
L 305.208711 168.212229 
L 306.598936 164.899879 
L 309.379387 158.06922 
L 310.491567 155.925595 
L 311.603748 154.258809 
L 312.715928 152.983925 
L 314.106153 151.728184 
L 315.774424 150.488093 
L 317.164649 149.69703 
L 318.554875 149.20232 
L 320.223145 148.89265 
L 323.281641 148.497211 
L 324.115776 148.635343 
L 324.671866 148.90488 
L 325.227956 149.367154 
L 325.784047 150.058161 
L 326.618182 151.567187 
L 327.452317 153.628742 
L 328.842542 157.924915 
L 330.510813 163.14351 
L 331.344948 165.23387 
L 332.179083 166.809408 
L 333.013219 167.8744 
L 333.847354 168.515009 
L 334.681489 168.856329 
L 335.793669 169.049829 
L 337.46194 169.102446 
L 338.852165 168.953241 
L 339.964345 168.614465 
L 341.076526 168.046586 
L 344.413067 166.085919 
L 345.525247 165.86759 
L 348.027653 165.702617 
L 348.861788 165.332262 
L 349.695923 164.705709 
L 352.476374 162.281589 
L 353.310509 162.057341 
L 354.144644 162.175684 
L 354.978779 162.552235 
L 358.87141 164.926119 
L 359.983591 165.855291 
L 361.095771 167.160853 
L 362.485996 169.255328 
L 365.266447 173.576862 
L 372.217574 182.903077 
L 373.051709 183.378274 
L 373.607799 183.487369 
L 374.441935 183.376078 
L 375.554115 182.895771 
L 376.94434 182.256226 
L 377.778476 182.067349 
L 378.612611 182.078677 
L 379.724791 182.32706 
L 381.393062 182.73207 
L 382.505242 182.745779 
L 384.173512 182.432734 
L 385.285693 182.326898 
L 386.119828 182.475017 
L 386.953963 182.864839 
L 388.066143 183.676709 
L 389.456369 184.720294 
L 390.290504 185.074097 
L 390.846594 185.118646 
L 391.402684 184.992789 
L 392.236819 184.50453 
L 393.349 183.462841 
L 395.01727 181.825901 
L 395.851405 181.254924 
L 396.963586 180.8037 
L 398.909901 180.19051 
L 399.744036 179.670486 
L 400.578172 178.910124 
L 402.246442 176.94555 
L 403.358622 175.757291 
L 404.192758 175.158341 
L 405.026893 174.876714 
L 405.861028 174.885152 
L 406.973208 175.175264 
L 408.363434 175.548949 
L 409.197569 175.59463 
L 410.309749 175.389987 
L 412.53411 174.767109 
L 413.368245 174.86312 
L 413.924335 175.123016 
L 414.75847 175.837604 
L 415.592606 176.905325 
L 418.929147 181.697571 
L 419.763282 182.314183 
L 420.597417 182.663085 
L 423.377868 183.51747 
L 424.212003 184.081349 
L 425.324183 185.134597 
L 426.436364 186.463879 
L 426.436364 186.463879 
" clip-path="url(#pc8617d9b9b)" style="fill: none; stroke: #ff00ff; stroke-width: 3; stroke-linecap: square"/>
   </g>
   <g id="patch_3">
    <path d="M 7.2 331.2 
L 7.2 7.2 
" style="fill: none; stroke: #000000; stroke-width: 0.8; stroke-linejoin: miter; stroke-linecap: square"/>
   </g>
   <g id="patch_4">
    <path d="M 446.4 331.2 
L 446.4 7.2 
" style="fill: none; stroke: #000000; stroke-width: 0.8; stroke-linejoin: miter; stroke-linecap: square"/>
   </g>
   <g id="patch_5">
    <path d="M 7.2 331.2 
L 446.4 331.2 
" style="fill: none; stroke: #000000; stroke-width: 0.8; stroke-linejoin: miter; stroke-linecap: square"/>
   </g>
   <g id="patch_6">
    <path d="M 7.2 7.2 
L 446.4 7.2 
" style="fill: none; stroke: #000000; stroke-width: 0.8; stroke-linejoin: miter; stroke-linecap: square"/>
   </g>
  </g>
 </g>
 <defs>
  <clipPath id="pc8617d9b9b">
   <rect x="7.2" y="7.2" width="439.2" height="324"/>
  </clipPath>
 </defs>
</svg>
