<?xml version="1.0" encoding="utf-8" standalone="no"?>
<!DOCTYPE svg PUBLIC "-//W3C//DTD SVG 1.1//EN"
  "http://www.w3.org/Graphics/SVG/1.1/DTD/svg11.dtd">
<svg xmlns:xlink="http://www.w3.org/1999/xlink" width="453.6pt" height="338.4pt" viewBox="0 0 453.6 338.4" xmlns="http://www.w3.org/2000/svg" version="1.1">
 <metadata>
  <rdf:RDF xmlns:dc="http://purl.org/dc/elements/1.1/" xmlns:cc="http://creativecommons.org/ns#" xmlns:rdf="http://www.w3.org/1999/02/22-rdf-syntax-ns#">
   <cc:Work>
    <dc:type rdf:resource="http://purl.org/dc/dcmitype/StillImage"/>
    <dc:date>2025-05-15T17:57:07.068301</dc:date>
    <dc:format>image/svg+xml</dc:format>
    <dc:creator>
     <cc:Agent>
      <dc:title>Matplotlib v3.10.1, https://matplotlib.org/</dc:title>
     </cc:Agent>
    </dc:creator>
   </cc:Work>
  </rdf:RDF>
 </metadata>
 <defs>
  <style type="text/css">*{stroke-linejoin: round; stroke-linecap: butt}</style>
 </defs>
 <g id="figure_1">
  <g id="patch_1">
   <path d="M 0 338.4 
L 453.6 338.4 
L 453.6 0 
L 0 0 
z
" style="fill: #ffffff"/>
  </g>
  <g id="axes_1">
   <g id="patch_2">
    <path d="M 7.2 331.2 
L 446.4 331.2 
L 446.4 7.2 
L 7.2 7.2 
z
" style="fill: #ffffff"/>
   </g>
   <g id="matplotlib.axis_1"/>
   <g id="matplotlib.axis_2"/>
   <g id="line2d_1">
    <path d="M 27.163636 142.514324 
L 27.441681 143.114745 
L 27.719727 143.391719 
L 27.997772 143.354381 
L 28.275817 143.017808 
L 28.831907 141.530415 
L 29.387997 139.149398 
L 31.612358 127.961799 
L 31.890403 127.295128 
L 32.168448 126.977269 
L 32.446493 127.055935 
L 32.724538 127.571836 
L 33.002583 128.559204 
L 33.558673 132.045988 
L 34.114763 137.616064 
L 34.670853 145.218168 
L 35.504989 159.943813 
L 36.895214 189.973086 
L 38.563484 225.315149 
L 39.39762 239.216524 
L 40.231755 249.461809 
L 40.787845 254.149612 
L 41.343935 257.189318 
L 41.900025 258.736753 
L 42.17807 259.01896 
L 42.456115 259.017718 
L 42.734161 258.770544 
L 43.290251 257.700695 
L 44.402431 254.45399 
L 45.236566 252.306046 
L 45.792656 251.45916 
L 46.070701 251.257305 
L 46.348747 251.205955 
L 46.626792 251.297747 
L 47.182882 251.844511 
L 49.129197 254.545073 
L 49.407242 254.60414 
L 49.685287 254.506228 
L 49.963332 254.239897 
L 50.519423 253.190801 
L 51.075513 251.504657 
L 51.909648 248.121372 
L 53.299873 242.181998 
L 53.855964 240.424992 
L 54.412054 239.325611 
L 54.690099 239.067439 
L 54.968144 239.020612 
L 55.246189 239.195682 
L 55.524234 239.598594 
L 56.080324 241.102128 
L 56.636414 243.536536 
L 57.192504 246.87193 
L 58.02664 253.414296 
L 59.13882 264.396049 
L 62.197316 296.448127 
L 63.031451 302.39841 
L 63.587541 305.115822 
L 64.143631 306.700507 
L 64.421676 307.042755 
L 64.699721 307.077166 
L 64.977767 306.8017 
L 65.255812 306.217687 
L 65.811902 304.148498 
L 66.367992 300.96219 
L 67.202127 294.468779 
L 69.982578 270.499851 
L 70.538668 267.823413 
L 71.094758 266.366617 
L 71.372803 266.092126 
L 71.650848 266.099753 
L 71.928893 266.361473 
L 72.484984 267.491274 
L 74.153254 271.810488 
L 74.431299 272.022454 
L 74.709344 271.936781 
L 74.987389 271.506553 
L 75.265434 270.695498 
L 75.821524 267.833789 
L 76.377615 263.271214 
L 77.21175 253.517352 
L 78.32393 236.909384 
L 79.714155 216.160111 
L 80.548291 206.900421 
L 81.104381 202.930994 
L 81.382426 201.7141 
L 81.660471 201.039802 
L 81.938516 200.922734 
L 82.216561 201.370433 
L 82.494606 202.384407 
L 83.050696 206.079255 
L 83.606787 211.872914 
L 84.440922 223.899948 
L 85.831147 249.010828 
L 86.943327 267.952543 
L 87.499418 275.142157 
L 88.055508 280.04565 
L 88.333553 281.519385 
L 88.611598 282.307027 
L 88.889643 282.401037 
L 89.167688 281.811348 
L 89.445733 280.563945 
L 90.001823 276.27595 
L 90.835958 266.371583 
L 93.060319 236.323508 
L 93.616409 231.383919 
L 94.172499 228.137391 
L 94.72859 226.534881 
L 95.006635 226.278394 
L 95.28468 226.323891 
L 95.562725 226.617982 
L 96.118815 227.702463 
L 97.230995 230.075056 
L 97.50904 230.373403 
L 97.787085 230.464664 
L 98.06513 230.321077 
L 98.343175 229.923132 
L 98.899266 228.346607 
L 99.455356 225.799388 
L 100.289491 220.65209 
L 101.957761 209.91494 
L 102.513852 207.506783 
L 103.069942 206.12014 
L 103.347987 205.850616 
L 103.626032 205.871635 
L 103.904077 206.182045 
L 104.182122 206.77404 
L 104.738212 208.744696 
L 105.294302 211.622014 
L 106.128438 217.151647 
L 108.630843 235.046839 
L 109.464978 239.475317 
L 110.299114 242.655683 
L 110.855204 244.032305 
L 111.411294 244.782875 
L 111.689339 244.913779 
L 111.967384 244.877239 
L 112.245429 244.670063 
L 112.801519 243.741761 
L 113.35761 242.147853 
L 114.191745 238.676057 
L 116.69415 226.643613 
L 117.250241 225.231693 
L 117.528286 224.839158 
L 117.806331 224.663378 
L 118.084376 224.699918 
L 118.362421 224.935651 
L 118.918511 225.91619 
L 120.864827 230.544927 
L 121.142872 230.696673 
L 121.420917 230.568074 
L 121.698962 230.116651 
L 121.977007 229.305329 
L 122.533097 226.492133 
L 123.089187 221.994921 
L 123.645277 215.839769 
L 124.479413 203.9604 
L 127.259863 160.688086 
L 127.815953 155.458397 
L 128.372044 152.289738 
L 128.650089 151.510433 
L 128.928134 151.260597 
L 129.206179 151.521164 
L 129.484224 152.262422 
L 130.040314 155.018059 
L 130.874449 161.512533 
L 132.820765 178.605804 
L 133.376855 181.798498 
L 133.932945 183.57404 
L 134.21099 183.862011 
L 134.489035 183.727382 
L 134.76708 183.160486 
L 135.045125 182.157509 
L 135.601215 178.860872 
L 136.157306 173.929354 
L 136.991441 163.881489 
L 138.103621 147.086832 
L 140.049937 116.898718 
L 140.884072 106.720571 
L 141.718207 99.08583 
L 142.552342 93.812151 
L 143.386478 90.172734 
L 144.776703 84.872449 
L 145.610838 80.480954 
L 146.444973 74.340612 
L 147.279109 66.290898 
L 148.669334 49.798225 
L 150.059559 33.459426 
L 150.893695 26.215446 
L 151.449785 23.198798 
L 151.72783 22.334175 
L 152.005875 21.927273 
L 152.28392 21.990508 
L 152.561965 22.527693 
L 152.84001 23.534661 
L 153.3961 26.897548 
L 153.95219 31.877225 
L 154.786326 41.657339 
L 157.288731 73.530443 
L 158.122867 80.283711 
L 158.678957 82.978863 
L 158.957002 83.773954 
L 159.235047 84.213671 
L 159.513092 84.317082 
L 159.791137 84.108221 
L 160.069182 83.616532 
L 160.625272 81.92418 
L 161.459407 78.193148 
L 163.127678 70.162413 
L 163.961813 67.427972 
L 164.517903 66.377724 
L 164.795948 66.098887 
L 165.073993 65.98377 
L 165.352038 66.028203 
L 165.630084 66.225534 
L 166.186174 67.04404 
L 166.742264 68.355652 
L 167.576399 71.033244 
L 168.966624 76.568199 
L 170.634895 83.120321 
L 171.46903 85.489986 
L 172.02512 86.425028 
L 172.303165 86.647813 
L 172.58121 86.687989 
L 172.859256 86.533849 
L 173.137301 86.178474 
L 173.693391 84.861451 
L 174.249481 82.792794 
L 175.083616 78.667897 
L 176.195796 72.940133 
L 176.751887 70.918659 
L 177.029932 70.311587 
L 177.307977 70.041796 
L 177.586022 70.153632 
L 177.864067 70.685408 
L 178.142112 71.667277 
L 178.698202 75.057037 
L 179.254292 80.379406 
L 180.088427 91.734093 
L 181.200608 111.611204 
L 183.703013 158.764168 
L 184.537149 170.115309 
L 185.093239 175.66472 
L 185.649329 179.517876 
L 186.205419 181.739698 
L 186.483464 182.292404 
L 186.761509 182.515721 
L 187.039554 182.450003 
L 187.317599 182.141456 
L 187.87369 181.005358 
L 188.98587 178.260008 
L 189.54196 177.550146 
L 189.820005 177.528329 
L 190.09805 177.775858 
L 190.376095 178.315882 
L 190.932185 180.318289 
L 191.488276 183.524463 
L 192.322411 190.187623 
L 194.546771 210.265081 
L 195.102861 213.74211 
L 195.658952 216.059272 
L 195.936997 216.74643 
L 196.215042 217.112181 
L 196.493087 217.158654 
L 196.771132 216.893298 
L 197.049177 216.328176 
L 197.605267 214.367186 
L 198.161357 211.450047 
L 198.995493 205.78339 
L 200.941808 191.487618 
L 201.775943 187.274032 
L 202.332033 185.709391 
L 202.610079 185.357387 
L 202.888124 185.305859 
L 203.166169 185.56004 
L 203.444214 186.119663 
L 204.000304 188.125529 
L 204.556394 191.223238 
L 205.390529 197.534393 
L 207.0588 213.089541 
L 208.17098 222.600131 
L 209.005115 227.922145 
L 209.561205 230.385465 
L 210.117296 232.005536 
L 210.673386 232.927452 
L 211.229476 233.395727 
L 212.063611 233.955528 
L 212.619701 234.740332 
L 213.175791 236.215663 
L 213.731881 238.594641 
L 214.287972 241.955843 
L 215.122107 248.616786 
L 217.068422 265.533301 
L 217.624513 268.502322 
L 217.902558 269.378209 
L 218.180603 269.793005 
L 218.458648 269.717619 
L 218.736693 269.134671 
L 219.014738 268.03999 
L 219.570828 264.360662 
L 220.126918 258.894619 
L 220.961053 248.229483 
L 222.907369 221.509352 
L 223.741504 213.585664 
L 224.297594 210.410442 
L 224.575639 209.521429 
L 224.853684 209.108851 
L 225.13173 209.171642 
L 225.409775 209.700757 
L 225.68782 210.680409 
L 226.24391 213.892792 
L 226.8 218.551594 
L 227.634135 227.467883 
L 229.580451 249.324874 
L 230.136541 253.822795 
L 230.692631 256.962542 
L 231.248721 258.661812 
L 231.526766 258.994393 
L 231.804811 259.016654 
L 232.082856 258.76744 
L 232.638947 257.651917 
L 234.029172 254.11999 
L 234.307217 253.789625 
L 234.585262 253.712733 
L 234.863307 253.928423 
L 235.141352 254.466495 
L 235.697442 256.568677 
L 236.253533 260.021139 
L 237.087668 267.301393 
L 239.590073 292.254673 
L 240.424209 297.703157 
L 240.980299 300.114151 
L 241.536389 301.637552 
L 242.092479 302.427322 
L 242.648569 302.665273 
L 243.204659 302.530112 
L 244.038795 301.960112 
L 245.42902 300.922635 
L 245.98511 300.690537 
L 246.5412 300.647168 
L 247.09729 300.837228 
L 247.653381 301.293086 
L 248.209471 302.027692 
L 249.043606 303.621334 
L 250.155786 306.401538 
L 252.380147 312.174178 
L 253.492327 314.427839 
L 254.326462 315.681981 
L 254.882553 316.232736 
L 255.438643 316.472727 
L 255.716688 316.447717 
L 255.994733 316.311137 
L 256.550823 315.65777 
L 257.106913 314.447084 
L 257.663003 312.656199 
L 258.497139 308.990619 
L 260.999544 296.703816 
L 261.555634 295.282141 
L 261.833679 294.897677 
L 262.111724 294.74123 
L 262.38977 294.810673 
L 262.667815 295.097137 
L 263.223905 296.243966 
L 264.05804 298.932822 
L 265.17022 302.507496 
L 265.72631 303.424002 
L 266.004356 303.508079 
L 266.282401 303.295049 
L 266.560446 302.75476 
L 267.116536 300.612048 
L 267.672626 296.982031 
L 268.228716 291.88032 
L 269.062851 281.752902 
L 270.175032 264.93492 
L 272.121347 234.556924 
L 272.955482 224.681204 
L 273.511573 219.955797 
L 274.067663 216.885405 
L 274.345708 215.970229 
L 274.623753 215.446968 
L 274.901798 215.288215 
L 275.179843 215.456014 
L 275.457888 215.904422 
L 276.013978 217.425606 
L 277.404204 221.992881 
L 277.960294 222.870187 
L 278.238339 222.911959 
L 278.516384 222.647934 
L 278.794429 222.057801 
L 279.350519 219.864005 
L 279.906609 216.346091 
L 280.740744 208.922073 
L 281.852925 196.432794 
L 283.521195 177.479462 
L 284.35533 170.00498 
L 285.189466 164.570776 
L 285.745556 162.065062 
L 286.301646 160.288722 
L 287.135781 158.433272 
L 287.969916 156.549885 
L 288.526007 154.677141 
L 289.082097 151.915916 
L 289.638187 147.993849 
L 290.194277 142.727975 
L 291.028412 132.176094 
L 292.140593 113.733075 
L 294.642998 68.232996 
L 295.477133 57.936095 
L 296.033224 53.716744 
L 296.311269 52.484064 
L 296.589314 51.846661 
L 296.867359 51.798769 
L 297.145404 52.32345 
L 297.423449 53.391967 
L 297.979539 57.004069 
L 298.813674 65.31639 
L 301.87217 100.857558 
L 302.706305 106.714984 
L 303.262396 109.301049 
L 303.818486 110.920411 
L 304.374576 111.709383 
L 304.652621 111.842238 
L 304.930666 111.829023 
L 305.486756 111.449082 
L 306.042846 110.735229 
L 308.823297 106.482975 
L 309.657432 105.829785 
L 310.491567 105.539242 
L 312.715928 105.198235 
L 313.550063 104.631072 
L 315.218334 103.119999 
L 315.496379 103.058627 
L 315.774424 103.136939 
L 316.052469 103.39316 
L 316.330514 103.865159 
L 316.886604 105.596534 
L 317.442694 108.567951 
L 317.998785 112.91111 
L 318.83292 121.932318 
L 319.9451 137.389287 
L 321.61337 161.134455 
L 322.447506 170.281688 
L 323.281641 176.679315 
L 323.837731 179.465905 
L 324.393821 181.267787 
L 324.949911 182.33595 
L 325.506002 182.951448 
L 326.618182 183.912386 
L 327.174272 184.706857 
L 327.730362 185.908319 
L 328.286452 187.56493 
L 329.120587 190.792389 
L 330.788858 197.701926 
L 331.344948 199.206347 
L 331.622993 199.665842 
L 331.901038 199.89723 
L 332.179083 199.882507 
L 332.457128 199.608726 
L 332.735173 199.069323 
L 333.291264 197.195603 
L 333.847354 194.321212 
L 334.681489 188.438599 
L 336.071714 176.109935 
L 337.739985 161.605922 
L 338.57412 156.465276 
L 339.13021 154.433159 
L 339.408255 153.927724 
L 339.6863 153.797618 
L 339.964345 154.063594 
L 340.24239 154.739843 
L 340.798481 157.351451 
L 341.354571 161.613816 
L 342.188706 170.769563 
L 343.300886 186.571353 
L 345.247202 214.98091 
L 346.081337 224.026773 
L 346.637427 228.315034 
L 347.193517 231.056748 
L 347.471562 231.836053 
L 347.749607 232.228765 
L 348.027653 232.246591 
L 348.305698 231.9086 
L 348.583743 231.238204 
L 349.139833 229.02259 
L 349.973968 224.069875 
L 352.198329 209.43416 
L 352.754419 207.084272 
L 353.310509 205.622332 
L 353.588554 205.234409 
L 353.866599 205.068118 
L 354.144644 205.110157 
L 354.422689 205.340747 
L 354.978779 206.262396 
L 356.64705 209.909796 
L 356.925095 210.157769 
L 357.20314 210.174442 
L 357.481185 209.916802 
L 357.75923 209.346536 
L 358.31532 207.154602 
L 358.87141 203.459045 
L 359.427501 198.289575 
L 360.261636 188.279492 
L 362.207951 162.772973 
L 362.764042 157.505059 
L 363.320132 154.020403 
L 363.598177 153.038445 
L 363.876222 152.592786 
L 364.154267 152.693979 
L 364.432312 153.343977 
L 364.710357 154.537279 
L 365.266447 158.502804 
L 365.822537 164.440581 
L 366.656673 176.581403 
L 367.768853 197.396837 
L 370.549304 253.095018 
L 371.383439 263.972739 
L 371.939529 268.430307 
L 372.217574 269.770034 
L 372.495619 270.526192 
L 372.773664 270.720951 
L 373.051709 270.390144 
L 373.329754 269.58166 
L 373.885845 266.768996 
L 374.71998 260.622358 
L 376.110205 250.070122 
L 376.666295 247.086822 
L 377.222385 245.167605 
L 377.50043 244.612327 
L 377.778476 244.308569 
L 378.056521 244.231321 
L 378.334566 244.348656 
L 378.890656 245.008675 
L 380.280881 247.092321 
L 380.558926 247.257015 
L 380.836971 247.264465 
L 381.115016 247.096134 
L 381.393062 246.740848 
L 381.949152 245.461252 
L 382.505242 243.479155 
L 383.339377 239.522233 
L 385.563738 228.153444 
L 386.397873 225.145311 
L 386.953963 223.733214 
L 387.510053 222.827705 
L 388.066143 222.45548 
L 388.344188 222.479692 
L 388.622233 222.650595 
L 389.178324 223.447282 
L 389.734414 224.868159 
L 390.290504 226.897971 
L 391.124639 230.915733 
L 393.627045 244.076737 
L 394.183135 245.794543 
L 394.739225 246.749806 
L 395.01727 246.93685 
L 395.295315 246.938978 
L 395.57336 246.768342 
L 396.12945 245.975468 
L 396.685541 244.715471 
L 397.797721 241.469476 
L 399.465991 236.654405 
L 400.578172 234.166518 
L 401.412307 232.868031 
L 401.968397 232.381841 
L 402.524487 232.291201 
L 403.080577 232.663781 
L 403.636668 233.529469 
L 404.192758 234.85403 
L 405.304938 238.348708 
L 406.139073 240.835442 
L 406.695163 241.956996 
L 406.973208 242.276274 
L 407.251253 242.411524 
L 407.529299 242.352724 
L 407.807344 242.097833 
L 408.363434 241.031178 
L 408.919524 239.342639 
L 411.42193 230.440629 
L 411.97802 229.439958 
L 412.53411 229.014786 
L 412.812155 229.017003 
L 413.0902 229.156155 
L 413.64629 229.823269 
L 414.20238 230.96327 
L 415.036516 233.423752 
L 416.426741 238.709581 
L 417.260876 241.632485 
L 417.816966 242.93248 
L 418.095011 243.273664 
L 418.373056 243.360046 
L 418.651102 243.159699 
L 418.929147 242.64575 
L 419.485237 240.602281 
L 420.041327 237.161259 
L 420.597417 232.394701 
L 421.431552 223.260416 
L 423.933958 193.360273 
L 424.768093 186.173852 
L 425.602228 180.776542 
L 426.436364 176.358972 
L 426.436364 176.358972 
" clip-path="url(#p6c7e2fdde7)" style="fill: none; stroke-dasharray: 11.1,4.8; stroke-dashoffset: 0; stroke: #000000; stroke-width: 3"/>
   </g>
   <g id="line2d_2">
    <path d="M 27.163636 80.383574 
L 27.719727 80.260297 
L 28.275817 80.40344 
L 28.831907 80.804932 
L 29.387997 81.46504 
L 30.222132 82.943476 
L 31.056267 85.017632 
L 31.890403 87.699214 
L 33.002583 92.209374 
L 34.392808 99.140462 
L 35.504989 105.251536 
L 41.900025 147.667475 
L 44.680476 167.754423 
L 47.182882 187.313498 
L 49.685287 208.636142 
L 50.519423 216.193724 
L 50.797468 216.509455 
L 52.743783 212.7488 
L 53.855964 212.316888 
L 54.968144 212.097207 
L 56.080324 212.080711 
L 57.192504 212.267311 
L 58.304685 212.657363 
L 59.416865 213.250777 
L 60.80709 214.278498 
L 62.197316 215.62399 
L 63.587541 217.287695 
L 64.977767 219.26926 
L 66.646037 222.067202 
L 68.036262 224.452299 
L 69.148443 224.783817 
L 69.704533 225.118438 
L 70.538668 225.932598 
L 71.928893 226.798729 
L 73.875209 228.325233 
L 76.933705 231.091513 
L 79.714155 233.513594 
L 81.382426 234.711331 
L 82.772651 235.467754 
L 83.884832 235.870045 
L 84.997012 236.057532 
L 85.553102 235.930974 
L 86.943327 235.264392 
L 91.948139 232.459976 
L 101.957761 226.320787 
L 102.235807 226.13126 
L 102.791897 225.213157 
L 104.182122 222.759149 
L 106.684528 219.078758 
L 108.908888 215.229238 
L 111.133249 210.896543 
L 113.079564 206.649433 
L 115.02588 201.924114 
L 116.972195 196.670657 
L 118.918511 190.839306 
L 119.752646 187.85095 
L 122.533097 176.585837 
L 124.201367 176.042089 
L 125.869638 175.727334 
L 127.259863 175.661349 
L 128.650089 175.79181 
L 130.040314 176.135832 
L 131.430539 176.710711 
L 132.820765 177.533562 
L 134.21099 178.622744 
L 135.601215 179.99635 
L 136.713396 181.119411 
L 137.825576 181.398159 
L 138.381666 181.753445 
L 139.771892 182.700459 
L 141.440162 183.239951 
L 143.108433 184.016773 
L 145.054748 185.187726 
L 147.279109 186.823317 
L 149.781514 188.967271 
L 152.84001 191.898866 
L 153.674145 192.676929 
L 155.620461 192.595336 
L 156.732641 192.493522 
L 160.903317 187.572734 
L 163.961813 183.607387 
L 166.464219 180.018965 
L 168.966624 176.031446 
L 170.35685 173.613179 
L 170.634895 172.983669 
L 171.190985 170.440618 
L 172.02512 166.711093 
L 173.137301 162.817938 
L 175.639706 155.413521 
L 176.751887 153.091392 
L 177.586022 151.833702 
L 178.420157 150.991605 
L 178.976247 150.659379 
L 179.532337 150.508786 
L 180.088427 150.538851 
L 180.644518 150.748865 
L 181.200608 151.137941 
L 182.034743 152.055423 
L 182.868878 153.370583 
L 183.703013 155.080141 
L 184.815194 157.966948 
L 185.927374 161.545348 
L 187.039554 165.799997 
L 187.595644 167.861648 
L 188.151735 168.422336 
L 189.54196 170.650987 
L 192.044366 175.326462 
L 193.990681 179.350876 
L 196.493087 185.092829 
L 200.385718 194.719246 
L 204.556394 204.957347 
L 205.112484 205.665346 
L 206.50271 207.340404 
L 207.892935 209.256783 
L 208.17098 209.362056 
L 209.561205 208.626297 
L 211.229476 208.08246 
L 213.175791 207.709791 
L 215.400152 207.543057 
L 218.458648 207.579331 
L 222.351279 207.640437 
L 223.463459 207.15877 
L 224.575639 206.916562 
L 225.68782 206.928624 
L 226.521955 207.088795 
L 229.302406 205.76113 
L 231.526766 204.90777 
L 233.473082 204.369165 
L 235.419397 204.074808 
L 237.087668 204.055652 
L 238.755938 204.285709 
L 239.312028 204.475857 
L 239.868119 204.919299 
L 240.980299 206.273216 
L 242.370524 208.341962 
L 243.76075 210.807234 
L 245.150975 213.460702 
L 247.09729 214.881136 
L 248.765561 216.389371 
L 250.155786 217.929001 
L 251.546012 219.790571 
L 252.936237 222.035097 
L 254.326462 224.725371 
L 255.716688 227.924628 
L 256.828868 230.955731 
L 259.609319 241.843652 
L 260.999544 248.188953 
L 262.667815 256.034684 
L 264.05804 254.717395 
L 265.72631 252.765452 
L 267.394581 250.451305 
L 269.340896 247.35404 
L 271.565257 243.379469 
L 274.623753 237.381739 
L 275.735933 235.440615 
L 277.682249 232.806481 
L 280.740744 228.217122 
L 282.409015 225.386188 
L 284.35533 221.630855 
L 286.579691 216.81747 
L 289.082097 210.846611 
L 292.696683 201.548696 
L 292.974728 201.594903 
L 294.642998 204.027005 
L 296.311269 206.050342 
L 298.257584 208.267109 
L 299.64781 209.662799 
L 301.038035 210.73717 
L 302.42826 211.508848 
L 303.818486 211.997166 
L 305.208711 212.221016 
L 306.598936 212.199908 
L 307.989162 211.953265 
L 310.213522 211.454925 
L 311.603748 212.561934 
L 312.437883 212.950212 
L 313.272018 213.114995 
L 314.106153 213.052735 
L 315.774424 212.609737 
L 316.608559 211.996634 
L 317.442694 211.078886 
L 318.27683 209.854632 
L 319.38901 207.741896 
L 320.50119 205.074327 
L 321.61337 201.846246 
L 323.003596 197.012196 
L 324.393821 191.275652 
L 326.062092 183.218754 
L 327.452317 176.334672 
L 328.842542 174.696153 
L 330.232768 173.377446 
L 331.622993 172.305291 
L 331.901038 172.20463 
L 333.569309 172.422892 
L 337.46194 173.03564 
L 338.852165 172.986418 
L 339.964345 172.739244 
L 341.076526 172.255892 
L 342.188706 171.48785 
L 343.300886 170.385986 
L 344.135022 169.485 
L 344.413067 170.125863 
L 347.471562 183.705033 
L 352.198329 203.362463 
L 354.422689 211.618112 
L 356.64705 218.995834 
L 358.593365 224.731579 
L 360.539681 229.795332 
L 361.651861 232.316212 
L 363.042087 233.919609 
L 364.432312 235.12116 
L 365.544492 235.797409 
L 366.656673 236.353663 
L 368.046898 237.287197 
L 369.159078 237.779683 
L 370.271259 237.99085 
L 371.105394 237.932671 
L 371.939529 237.6643 
L 372.773664 237.16392 
L 373.607799 236.410955 
L 374.441935 235.382702 
L 375.27607 234.057342 
L 376.38825 231.791176 
L 377.50043 228.90898 
L 378.612611 225.360735 
L 383.339377 208.672593 
L 384.173512 206.485625 
L 385.285693 204.165359 
L 386.397873 202.302637 
L 387.510053 200.893023 
L 388.344188 200.133762 
L 389.178324 199.623803 
L 390.012459 199.360665 
L 390.846594 199.342218 
L 391.680729 199.565269 
L 392.514865 200.033544 
L 393.349 200.741366 
L 394.46118 202.051648 
L 395.57336 203.776549 
L 396.685541 205.917221 
L 397.797721 208.071551 
L 398.909901 208.107825 
L 399.465991 208.047605 
L 400.300127 207.130301 
L 401.134262 206.110917 
L 401.968397 205.137118 
L 402.802532 204.455193 
L 403.636668 204.04288 
L 404.470803 203.877831 
L 405.304938 203.939824 
L 406.139073 204.207663 
L 407.251253 204.847994 
L 408.363434 205.767515 
L 409.753659 207.238324 
L 411.42193 209.351059 
L 414.20238 213.326339 
L 416.426741 216.527281 
L 416.704786 216.268666 
L 416.982831 215.285289 
L 417.816966 210.602186 
L 418.929147 202.59655 
L 420.597417 191.451078 
L 422.265688 181.869538 
L 423.933958 173.619299 
L 425.602228 166.46853 
L 426.436364 163.230339 
L 426.436364 163.230339 
" clip-path="url(#p6c7e2fdde7)" style="fill: none; stroke: #ff00ff; stroke-width: 3; stroke-linecap: square"/>
   </g>
   <g id="patch_3">
    <path d="M 7.2 331.2 
L 7.2 7.2 
" style="fill: none; stroke: #000000; stroke-width: 0.8; stroke-linejoin: miter; stroke-linecap: square"/>
   </g>
   <g id="patch_4">
    <path d="M 446.4 331.2 
L 446.4 7.2 
" style="fill: none; stroke: #000000; stroke-width: 0.8; stroke-linejoin: miter; stroke-linecap: square"/>
   </g>
   <g id="patch_5">
    <path d="M 7.2 331.2 
L 446.4 331.2 
" style="fill: none; stroke: #000000; stroke-width: 0.8; stroke-linejoin: miter; stroke-linecap: square"/>
   </g>
   <g id="patch_6">
    <path d="M 7.2 7.2 
L 446.4 7.2 
" style="fill: none; stroke: #000000; stroke-width: 0.8; stroke-linejoin: miter; stroke-linecap: square"/>
   </g>
  </g>
 </g>
 <defs>
  <clipPath id="p6c7e2fdde7">
   <rect x="7.2" y="7.2" width="439.2" height="324"/>
  </clipPath>
 </defs>
</svg>
