<?xml version="1.0" encoding="utf-8" standalone="no"?>
<!DOCTYPE svg PUBLIC "-//W3C//DTD SVG 1.1//EN"
  "http://www.w3.org/Graphics/SVG/1.1/DTD/svg11.dtd">
<svg xmlns:xlink="http://www.w3.org/1999/xlink" width="453.6pt" height="338.4pt" viewBox="0 0 453.6 338.4" xmlns="http://www.w3.org/2000/svg" version="1.1">
 <metadata>
  <rdf:RDF xmlns:dc="http://purl.org/dc/elements/1.1/" xmlns:cc="http://creativecommons.org/ns#" xmlns:rdf="http://www.w3.org/1999/02/22-rdf-syntax-ns#">
   <cc:Work>
    <dc:type rdf:resource="http://purl.org/dc/dcmitype/StillImage"/>
    <dc:date>2025-05-15T17:11:01.118038</dc:date>
    <dc:format>image/svg+xml</dc:format>
    <dc:creator>
     <cc:Agent>
      <dc:title>Matplotlib v3.10.1, https://matplotlib.org/</dc:title>
     </cc:Agent>
    </dc:creator>
   </cc:Work>
  </rdf:RDF>
 </metadata>
 <defs>
  <style type="text/css">*{stroke-linejoin: round; stroke-linecap: butt}</style>
 </defs>
 <g id="figure_1">
  <g id="patch_1">
   <path d="M 0 338.4 
L 453.6 338.4 
L 453.6 0 
L 0 0 
z
" style="fill: #ffffff"/>
  </g>
  <g id="axes_1">
   <g id="patch_2">
    <path d="M 7.2 331.2 
L 446.4 331.2 
L 446.4 7.2 
L 7.2 7.2 
z
" style="fill: #ffffff"/>
   </g>
   <g id="matplotlib.axis_1"/>
   <g id="matplotlib.axis_2"/>
   <g id="line2d_1">
    <path d="M 27.163636 21.927273 
L 29.387997 57.988193 
L 31.890403 103.782441 
L 33.280628 127.082012 
L 34.392808 141.999855 
L 35.504989 153.406877 
L 36.617169 162.02787 
L 37.729349 168.589978 
L 38.563484 172.429739 
L 39.39762 175.436903 
L 40.231755 177.638196 
L 41.06589 179.104013 
L 41.900025 179.963146 
L 42.734161 180.388152 
L 43.568296 180.544459 
L 45.792656 180.802156 
L 46.626792 181.200211 
L 47.460927 181.904279 
L 48.295062 182.993519 
L 49.129197 184.562813 
L 49.963332 186.686376 
L 50.797468 189.376037 
L 51.909648 193.695288 
L 54.134009 202.642661 
L 54.968144 204.955575 
L 55.524234 205.892514 
L 56.080324 206.268377 
L 56.358369 206.237063 
L 56.636414 206.059071 
L 57.192504 205.27906 
L 57.748595 203.99682 
L 58.58273 201.398092 
L 60.529045 194.948188 
L 61.085135 193.661397 
L 61.641226 192.79602 
L 62.197316 192.374042 
L 62.753406 192.375791 
L 63.309496 192.741347 
L 63.865586 193.390197 
L 64.699721 194.729441 
L 66.089947 197.448987 
L 68.314307 202.308344 
L 69.982578 206.584639 
L 73.875209 216.985154 
L 75.265434 219.926954 
L 76.377615 221.903397 
L 77.489795 223.411145 
L 78.32393 224.124616 
L 78.88002 224.356566 
L 79.43611 224.368499 
L 79.992201 224.151755 
L 80.548291 223.710895 
L 81.382426 222.646649 
L 82.216561 221.067387 
L 83.050696 218.79551 
L 83.884832 215.504592 
L 84.718967 210.766466 
L 85.553102 204.224576 
L 86.387237 195.83935 
L 88.889643 168.230177 
L 89.445733 164.60685 
L 89.723778 163.520073 
L 90.001823 162.981472 
L 90.279868 163.02723 
L 90.557913 163.682361 
L 90.835958 164.959673 
L 91.392049 169.371042 
L 91.948139 176.114847 
L 92.782274 189.852104 
L 94.172499 218.366132 
L 95.84077 252.678995 
L 96.95295 271.612249 
L 98.06513 286.37372 
L 98.899266 294.798722 
L 99.733401 301.193766 
L 100.567536 305.878583 
L 101.401671 309.216289 
L 102.235807 311.539801 
L 103.069942 313.143466 
L 103.904077 314.280119 
L 105.016257 315.357566 
L 106.128438 316.066726 
L 106.962573 316.369396 
L 107.796708 316.472727 
L 108.630843 316.372278 
L 109.743024 315.947695 
L 111.133249 315.085642 
L 112.523474 313.948359 
L 113.9137 312.490798 
L 115.303925 310.66698 
L 119.474601 304.678333 
L 120.864827 303.285004 
L 123.923322 300.518586 
L 125.035503 299.104827 
L 126.147683 297.330854 
L 130.040314 290.650669 
L 130.874449 289.753112 
L 131.708584 289.133028 
L 132.820765 288.630729 
L 134.21099 288.117828 
L 135.045125 287.519682 
L 135.601215 286.864711 
L 136.157306 285.941548 
L 136.713396 284.703261 
L 137.547531 282.177797 
L 138.381666 278.831501 
L 139.493847 273.27857 
L 140.884072 265.110559 
L 142.552342 253.933541 
L 143.942568 243.189446 
L 145.332793 230.490066 
L 146.723018 215.696144 
L 148.113244 198.425364 
L 149.503469 177.967304 
L 150.893695 153.734236 
L 154.786326 81.304653 
L 155.620461 69.811325 
L 156.454596 61.026935 
L 157.010686 56.823423 
L 157.566776 54.014374 
L 157.844821 53.149392 
L 158.122867 52.651809 
L 158.400912 52.525236 
L 158.678957 52.770125 
L 158.957002 53.384181 
L 159.513092 55.696813 
L 160.069182 59.385589 
L 160.903317 67.186004 
L 162.015498 80.844496 
L 163.683768 105.050086 
L 166.464219 145.432684 
L 168.132489 166.912767 
L 169.522715 182.191089 
L 170.634895 192.259111 
L 171.747075 200.266235 
L 172.859256 206.502452 
L 173.971436 211.39191 
L 175.361661 216.416244 
L 179.254292 229.351269 
L 180.366473 232.361913 
L 181.200608 234.029306 
L 182.034743 235.150443 
L 182.868878 235.818354 
L 183.703013 236.192721 
L 185.371284 236.649324 
L 186.205419 236.695918 
L 186.761509 236.515585 
L 187.317599 236.071528 
L 187.87369 235.302791 
L 188.42978 234.190823 
L 189.263915 231.948379 
L 191.766321 224.296129 
L 192.600456 222.731348 
L 193.156546 222.129413 
L 193.712636 221.852627 
L 194.268726 221.840637 
L 195.102861 222.156439 
L 197.605267 223.437221 
L 198.995493 224.009629 
L 199.829628 224.623751 
L 200.663763 225.621456 
L 201.497898 227.053176 
L 202.888124 230.117617 
L 204.278349 233.123409 
L 205.112484 234.503032 
L 205.946619 235.437818 
L 206.50271 235.808508 
L 207.0588 235.990873 
L 207.892935 235.963687 
L 208.72707 235.645158 
L 209.83925 234.895267 
L 211.507521 233.638087 
L 212.341656 233.291987 
L 213.175791 233.231325 
L 214.844062 233.358292 
L 215.400152 233.122224 
L 215.956242 232.546102 
L 216.512332 231.531122 
L 217.068422 230.026205 
L 217.902558 226.872043 
L 219.014738 221.318435 
L 221.239099 208.256697 
L 223.185414 196.158547 
L 224.297594 187.850582 
L 225.409775 177.844286 
L 227.634135 157.021966 
L 228.190225 153.743997 
L 228.46827 152.70832 
L 228.746316 152.140454 
L 229.024361 152.079349 
L 229.302406 152.554702 
L 229.580451 153.585358 
L 230.136541 157.32907 
L 230.692631 163.215885 
L 231.526766 175.397671 
L 232.916992 200.529461 
L 234.307217 224.727858 
L 235.419397 240.110363 
L 236.253533 249.012599 
L 237.087668 256.010405 
L 238.199848 263.196415 
L 239.312028 268.731131 
L 240.424209 273.139641 
L 241.814434 277.672176 
L 243.482704 282.263521 
L 245.150975 286.175426 
L 246.5412 288.838775 
L 248.487516 291.974727 
L 250.989921 295.668698 
L 252.102102 296.927866 
L 252.936237 297.511121 
L 253.492327 297.689724 
L 254.048417 297.691275 
L 254.604507 297.512113 
L 255.438643 296.917828 
L 256.272778 295.993979 
L 257.663003 294.026352 
L 262.94586 285.830755 
L 266.838491 278.784295 
L 267.672626 277.85108 
L 268.506761 277.27397 
L 269.340896 277.001049 
L 271.565257 276.647294 
L 272.121347 276.294075 
L 272.677437 275.717925 
L 273.233527 274.883777 
L 274.067663 273.09424 
L 274.901798 270.639511 
L 276.013978 266.449164 
L 277.404204 260.179255 
L 279.350519 250.286075 
L 281.296835 239.410988 
L 282.68706 230.386702 
L 283.79924 221.791005 
L 284.633376 213.964768 
L 285.467511 204.458989 
L 286.301646 192.865644 
L 287.413826 173.667255 
L 288.804052 144.445661 
L 291.306457 90.627607 
L 292.418638 72.077314 
L 293.252773 61.39456 
L 294.086908 53.386927 
L 294.921043 47.873774 
L 295.477133 45.533063 
L 296.033224 44.236304 
L 296.311269 43.972514 
L 296.589314 43.962659 
L 296.867359 44.204896 
L 297.145404 44.696367 
L 297.701494 46.418131 
L 298.257584 49.114111 
L 298.813674 52.773962 
L 299.64781 60.024227 
L 300.481945 69.293129 
L 301.594125 84.472844 
L 302.98435 107.128399 
L 306.320891 164.045172 
L 307.433072 179.113906 
L 308.545252 191.094999 
L 309.657432 200.448666 
L 311.047658 209.827581 
L 314.940289 233.50497 
L 315.774424 237.273272 
L 316.608559 239.886416 
L 317.164649 240.952513 
L 317.720739 241.549906 
L 318.27683 241.796977 
L 319.110965 241.826081 
L 319.9451 241.849656 
L 320.50119 242.035848 
L 321.05728 242.439846 
L 321.61337 243.089119 
L 322.447506 244.495693 
L 323.559686 246.926519 
L 326.340137 253.352416 
L 327.174272 254.793229 
L 328.008407 255.805688 
L 328.564497 256.203988 
L 329.120587 256.358508 
L 329.676678 256.255294 
L 330.232768 255.896048 
L 330.788858 255.292495 
L 331.622993 253.961883 
L 332.457128 252.161598 
L 333.569309 249.089737 
L 334.959534 244.42448 
L 336.90585 237.706619 
L 337.739985 235.51457 
L 338.296075 234.524331 
L 338.852165 234.00276 
L 339.13021 233.934828 
L 339.408255 234.001876 
L 339.6863 234.206593 
L 340.24239 235.031422 
L 340.798481 236.3952 
L 341.632616 239.347344 
L 342.744796 244.508021 
L 345.247202 256.739505 
L 346.081337 259.757521 
L 346.915472 261.926287 
L 347.749607 263.305685 
L 348.583743 264.0932 
L 349.695923 264.68702 
L 350.808103 265.331883 
L 351.642239 266.069493 
L 354.422689 268.864004 
L 354.978779 269.040764 
L 355.53487 268.961679 
L 356.09096 268.59428 
L 356.64705 267.923689 
L 357.20314 266.950433 
L 358.037275 264.932492 
L 358.87141 262.198804 
L 359.705546 258.567202 
L 360.539681 253.719289 
L 361.373816 247.13338 
L 362.207951 238.033151 
L 363.042087 225.570723 
L 363.876222 209.168613 
L 364.988402 181.502143 
L 367.212763 123.22145 
L 367.768853 113.708336 
L 368.324943 108.201314 
L 368.602988 107.144799 
L 368.881033 107.272726 
L 369.159078 108.589514 
L 369.437123 111.071129 
L 369.993213 119.294575 
L 370.549304 131.230982 
L 371.661484 161.972332 
L 373.329754 208.242836 
L 374.16389 225.698453 
L 374.998025 238.39471 
L 375.83216 247.014104 
L 376.666295 252.64989 
L 377.50043 256.368551 
L 378.334566 258.95812 
L 379.168701 260.856842 
L 380.002836 262.289605 
L 381.115016 263.730898 
L 382.227197 264.80638 
L 383.339377 265.571299 
L 384.451557 266.063635 
L 385.563738 266.282438 
L 386.397873 266.245858 
L 387.232008 266.02949 
L 388.066143 265.627335 
L 389.178324 264.783924 
L 390.290504 263.636279 
L 391.680729 261.873335 
L 393.070955 259.750581 
L 396.685541 253.848861 
L 397.241631 253.365167 
L 397.797721 253.112943 
L 398.353811 253.092265 
L 398.909901 253.281748 
L 399.744036 253.85408 
L 401.412307 255.196578 
L 402.246442 255.527614 
L 402.802532 255.540299 
L 403.358622 255.384256 
L 404.192758 254.85455 
L 405.026893 254.000758 
L 405.861028 252.855284 
L 406.973208 250.887398 
L 408.085389 248.337664 
L 409.197569 245.12346 
L 410.587794 240.262137 
L 414.20238 226.732935 
L 415.314561 223.560267 
L 418.373056 215.438729 
L 419.485237 211.218517 
L 420.597417 205.898495 
L 421.431552 200.984521 
L 422.265688 194.986969 
L 423.099823 187.501783 
L 423.933958 177.959047 
L 424.768093 165.827627 
L 425.602228 150.856653 
L 426.436364 133.166266 
L 426.436364 133.166266 
" clip-path="url(#p73d5d07f18)" style="fill: none; stroke-dasharray: 11.1,4.8; stroke-dashoffset: 0; stroke: #000000; stroke-width: 3"/>
   </g>
   <g id="line2d_2">
    <path d="M 27.163636 63.305751 
L 29.944087 69.858004 
L 32.446493 76.341498 
L 35.504989 85.036159 
L 36.061079 86.58832 
L 39.119575 91.08987 
L 40.231755 93.329134 
L 41.343935 95.999499 
L 42.456115 99.163892 
L 43.846341 103.903278 
L 45.236566 109.617292 
L 46.626792 116.418704 
L 48.017017 124.409297 
L 51.353558 146.099908 
L 53.577918 161.089878 
L 55.246189 169.426373 
L 56.914459 173.755047 
L 58.304685 176.793506 
L 59.69491 179.346363 
L 61.085135 181.445777 
L 62.475361 183.12421 
L 63.865586 184.416982 
L 65.255812 185.360993 
L 67.480172 186.513801 
L 68.870398 188.257382 
L 70.816713 190.995716 
L 72.484984 193.759402 
L 74.431299 197.099341 
L 76.377615 199.834891 
L 78.601975 202.598728 
L 82.772651 207.336195 
L 83.884832 207.801938 
L 84.997012 207.977597 
L 85.831147 207.906355 
L 86.665282 207.651405 
L 87.499418 207.203792 
L 88.333553 206.553513 
L 89.445733 205.355267 
L 90.835958 203.702863 
L 92.504229 204.21284 
L 94.450544 205.04758 
L 96.674905 206.019162 
L 98.899266 206.87444 
L 104.460167 213.916246 
L 106.406483 216.025891 
L 109.464978 218.9368 
L 110.021069 219.178059 
L 111.967384 219.613409 
L 113.9137 219.793883 
L 124.479413 220.05395 
L 125.313548 220.03424 
L 133.09881 218.393346 
L 138.659711 218.771221 
L 143.386478 219.280822 
L 146.166928 219.900257 
L 150.337604 221.10708 
L 156.176551 223.139239 
L 159.791137 224.467782 
L 162.849633 223.517942 
L 166.186174 222.253644 
L 170.91294 220.117217 
L 174.527526 217.870881 
L 176.473841 216.992056 
L 177.586022 216.678577 
L 179.532337 216.411665 
L 181.478653 216.375705 
L 183.424968 216.583789 
L 185.093239 216.980095 
L 187.039554 217.724034 
L 188.98587 218.710511 
L 191.488276 220.061021 
L 196.215042 220.596501 
L 199.829628 221.18622 
L 204.834439 222.074373 
L 207.61489 222.021337 
L 210.117296 221.787375 
L 211.785566 221.268822 
L 213.453836 220.460788 
L 215.122107 219.438878 
L 216.790377 218.191055 
L 218.736693 216.435964 
L 220.961053 214.267339 
L 222.629324 213.522196 
L 224.297594 213.021322 
L 225.965865 212.745307 
L 227.35609 212.684296 
L 228.190225 212.921568 
L 229.302406 213.267396 
L 230.136541 213.182011 
L 231.248721 213.326375 
L 232.360901 213.752472 
L 233.473082 214.442773 
L 234.585262 215.380727 
L 235.419397 216.164312 
L 236.253533 216.33463 
L 246.263155 217.923767 
L 248.209471 218.848932 
L 250.433831 219.643877 
L 252.658192 220.205762 
L 255.716688 220.687829 
L 259.053229 220.987466 
L 263.223905 221.131303 
L 265.448265 221.048175 
L 274.623753 220.568817 
L 281.57488 220.428214 
L 284.077285 220.652546 
L 286.579691 221.091808 
L 289.360142 221.805279 
L 292.974728 222.992016 
L 296.589314 224.415197 
L 299.091719 225.359847 
L 301.594125 225.484577 
L 304.930666 228.507802 
L 306.876982 229.854701 
L 308.823297 230.897299 
L 310.213522 231.436164 
L 311.881793 231.815394 
L 313.828108 232.006174 
L 315.496379 231.992031 
L 317.442694 231.940424 
L 318.27683 231.918156 
L 318.83292 231.492661 
L 320.50119 230.123043 
L 321.891416 229.247378 
L 323.281641 228.598152 
L 324.671866 228.164006 
L 326.062092 227.931473 
L 327.730362 227.901984 
L 328.842542 228.059062 
L 330.788858 228.601162 
L 332.735173 229.385047 
L 333.569309 229.697548 
L 335.793669 230.150652 
L 338.57412 230.49663 
L 341.354571 230.606389 
L 343.856976 230.478575 
L 346.081337 230.14185 
L 347.193517 229.592303 
L 348.861788 228.536465 
L 350.252013 227.411341 
L 353.588554 223.950358 
L 357.481185 220.341475 
L 359.427501 218.85134 
L 360.817726 218.029764 
L 361.651861 217.691234 
L 364.154267 217.133487 
L 366.934718 216.761028 
L 367.768853 216.5874 
L 371.383439 215.716549 
L 374.16389 215.29933 
L 375.554115 215.190699 
L 378.612611 216.17176 
L 380.280881 216.335383 
L 381.949152 216.23262 
L 383.339377 215.938701 
L 384.451557 215.671262 
L 386.119828 217.021471 
L 387.232008 218.148701 
L 389.456369 220.867475 
L 392.79291 225.006798 
L 395.01727 227.373425 
L 396.685541 228.870481 
L 398.353811 230.06775 
L 399.744036 230.794311 
L 400.856217 231.167221 
L 403.358622 231.654027 
L 405.582983 231.353036 
L 408.085389 231.242525 
L 410.865839 231.362064 
L 414.480425 231.787183 
L 418.929147 232.425876 
L 420.319372 232.339438 
L 424.212003 232.111946 
L 426.436364 231.765968 
L 426.436364 231.765968 
" clip-path="url(#p73d5d07f18)" style="fill: none; stroke: #ff00ff; stroke-width: 3; stroke-linecap: square"/>
   </g>
   <g id="patch_3">
    <path d="M 7.2 331.2 
L 7.2 7.2 
" style="fill: none; stroke: #000000; stroke-width: 0.8; stroke-linejoin: miter; stroke-linecap: square"/>
   </g>
   <g id="patch_4">
    <path d="M 446.4 331.2 
L 446.4 7.2 
" style="fill: none; stroke: #000000; stroke-width: 0.8; stroke-linejoin: miter; stroke-linecap: square"/>
   </g>
   <g id="patch_5">
    <path d="M 7.2 331.2 
L 446.4 331.2 
" style="fill: none; stroke: #000000; stroke-width: 0.8; stroke-linejoin: miter; stroke-linecap: square"/>
   </g>
   <g id="patch_6">
    <path d="M 7.2 7.2 
L 446.4 7.2 
" style="fill: none; stroke: #000000; stroke-width: 0.8; stroke-linejoin: miter; stroke-linecap: square"/>
   </g>
  </g>
 </g>
 <defs>
  <clipPath id="p73d5d07f18">
   <rect x="7.2" y="7.2" width="439.2" height="324"/>
  </clipPath>
 </defs>
</svg>
