<?xml version="1.0" encoding="utf-8" standalone="no"?>
<!DOCTYPE svg PUBLIC "-//W3C//DTD SVG 1.1//EN"
  "http://www.w3.org/Graphics/SVG/1.1/DTD/svg11.dtd">
<svg xmlns:xlink="http://www.w3.org/1999/xlink" width="453.6pt" height="338.4pt" viewBox="0 0 453.6 338.4" xmlns="http://www.w3.org/2000/svg" version="1.1">
 <metadata>
  <rdf:RDF xmlns:dc="http://purl.org/dc/elements/1.1/" xmlns:cc="http://creativecommons.org/ns#" xmlns:rdf="http://www.w3.org/1999/02/22-rdf-syntax-ns#">
   <cc:Work>
    <dc:type rdf:resource="http://purl.org/dc/dcmitype/StillImage"/>
    <dc:date>2025-05-15T10:19:27.567419</dc:date>
    <dc:format>image/svg+xml</dc:format>
    <dc:creator>
     <cc:Agent>
      <dc:title>Matplotlib v3.10.1, https://matplotlib.org/</dc:title>
     </cc:Agent>
    </dc:creator>
   </cc:Work>
  </rdf:RDF>
 </metadata>
 <defs>
  <style type="text/css">*{stroke-linejoin: round; stroke-linecap: butt}</style>
 </defs>
 <g id="figure_1">
  <g id="patch_1">
   <path d="M 0 338.4 
L 453.6 338.4 
L 453.6 0 
L 0 0 
z
" style="fill: #ffffff"/>
  </g>
  <g id="axes_1">
   <g id="patch_2">
    <path d="M 7.2 331.2 
L 446.4 331.2 
L 446.4 7.2 
L 7.2 7.2 
z
" style="fill: #ffffff"/>
   </g>
   <g id="matplotlib.axis_1"/>
   <g id="matplotlib.axis_2"/>
   <g id="line2d_1">
    <path d="M 27.163636 234.801251 
L 27.429818 260.047125 
L 27.696 249.174825 
L 27.962182 265.363973 
L 28.228364 263.041115 
L 28.494545 290.397012 
L 28.760727 285.989105 
L 29.026909 288.893855 
L 29.293091 260.583679 
L 29.559273 276.495109 
L 29.825455 267.391481 
L 30.357818 258.043396 
L 30.624 264.44373 
L 30.890182 266.792812 
L 31.156364 254.502949 
L 31.422545 257.794838 
L 31.688727 249.758852 
L 31.954909 261.737768 
L 32.221091 259.593957 
L 32.487273 260.441201 
L 32.753455 256.280605 
L 33.019636 257.54083 
L 33.285818 254.168936 
L 33.552 257.416527 
L 33.818182 254.656882 
L 34.084364 250.315346 
L 34.350545 249.439666 
L 34.616727 268.547997 
L 34.882909 252.697272 
L 35.149091 252.995887 
L 35.415273 262.188942 
L 35.681455 267.285336 
L 36.213818 252.926421 
L 36.48 245.796286 
L 36.746182 255.954594 
L 37.012364 283.369967 
L 37.278545 275.264519 
L 37.544727 260.008461 
L 37.810909 255.91863 
L 38.077091 261.377789 
L 38.343273 247.930168 
L 38.609455 245.60221 
L 38.875636 257.559045 
L 39.141818 252.690742 
L 39.408 264.686309 
L 39.940364 248.398715 
L 40.206545 258.099602 
L 40.472727 273.75561 
L 40.738909 275.289269 
L 41.271273 258.090521 
L 41.537455 258.52812 
L 41.803636 257.285325 
L 42.069818 247.002424 
L 42.336 270.943367 
L 42.602182 261.541805 
L 42.868364 246.519359 
L 43.134545 270.344237 
L 43.400727 257.030087 
L 43.666909 270.4833 
L 43.933091 260.407059 
L 44.199273 275.825478 
L 44.465455 262.416493 
L 44.731636 285.996856 
L 44.997818 261.9675 
L 45.264 272.833682 
L 45.530182 252.761673 
L 46.062545 255.638072 
L 46.328727 245.126571 
L 46.594909 267.188724 
L 46.861091 276.721348 
L 47.127273 274.683227 
L 47.393455 245.699889 
L 47.659636 254.973062 
L 47.925818 254.609831 
L 48.192 249.901861 
L 48.458182 247.88576 
L 48.724364 257.71447 
L 48.990545 273.024663 
L 49.256727 264.947898 
L 49.522909 272.37505 
L 49.789091 255.40794 
L 50.055273 253.476038 
L 50.321455 258.200081 
L 50.587636 245.688539 
L 50.853818 259.313816 
L 51.12 261.513315 
L 51.386182 246.875185 
L 51.652364 264.749029 
L 51.918545 270.457308 
L 52.184727 269.543969 
L 52.450909 262.676506 
L 52.983273 245.296305 
L 53.249455 260.007281 
L 53.515636 260.47476 
L 53.781818 272.462296 
L 54.048 257.582873 
L 54.314182 253.267759 
L 54.580364 255.890004 
L 54.846545 248.462018 
L 55.112727 248.431843 
L 55.645091 244.444264 
L 55.911273 269.855334 
L 56.177455 271.020083 
L 56.443636 270.259115 
L 56.709818 252.064031 
L 56.976 250.281261 
L 57.242182 244.552367 
L 57.508364 257.345091 
L 57.774545 260.075122 
L 58.040727 271.222704 
L 58.573091 253.554427 
L 58.839273 255.82527 
L 59.105455 245.016059 
L 59.371636 255.961774 
L 59.637818 246.700474 
L 59.904 245.010507 
L 60.170182 252.473228 
L 60.436364 270.421993 
L 60.702545 258.77616 
L 61.234909 246.161944 
L 61.767273 270.170851 
L 62.033455 263.480162 
L 62.299636 272.727848 
L 62.565818 252.767994 
L 62.832 252.558407 
L 63.364364 256.809497 
L 63.630545 263.623272 
L 63.896727 261.596027 
L 64.162909 262.493921 
L 64.429091 246.672564 
L 64.695273 255.984088 
L 64.961455 255.016452 
L 65.493818 259.548021 
L 65.76 246.780298 
L 66.026182 251.20293 
L 66.292364 246.850286 
L 66.558545 271.484078 
L 66.824727 254.838476 
L 67.090909 253.303074 
L 67.623273 258.780606 
L 67.889455 250.336098 
L 68.155636 249.06368 
L 68.421818 248.446305 
L 68.688 256.003216 
L 68.954182 271.927822 
L 69.486545 270.082793 
L 69.752727 253.468612 
L 70.018909 257.585458 
L 70.285091 249.659817 
L 70.551273 246.202473 
L 70.817455 256.276712 
L 71.083636 252.293386 
L 71.349818 252.45292 
L 71.616 255.353041 
L 71.882182 246.415948 
L 72.148364 258.668935 
L 72.414545 249.750289 
L 72.680727 247.637865 
L 72.946909 253.517234 
L 73.213091 272.604335 
L 73.479273 253.247398 
L 73.745455 259.967621 
L 74.011636 245.82083 
L 74.277818 262.435818 
L 74.544 270.309971 
L 75.076364 271.927484 
L 75.342545 254.716402 
L 75.608727 252.811142 
L 75.874909 255.419746 
L 76.141091 245.856724 
L 76.407273 259.34921 
L 76.673455 261.47858 
L 76.939636 249.420832 
L 77.205818 257.535172 
L 77.472 254.778784 
L 77.738182 255.544703 
L 78.004364 259.811502 
L 78.270545 256.511479 
L 78.536727 276.666173 
L 78.802909 261.666195 
L 79.069091 262.148887 
L 79.335273 254.468174 
L 79.601455 270.689999 
L 79.867636 254.281498 
L 80.133818 255.621319 
L 80.4 244.211332 
L 80.666182 269.016271 
L 80.932364 272.961755 
L 81.198545 273.228118 
L 81.464727 247.73665 
L 81.730909 248.997871 
L 81.997091 255.780853 
L 82.263273 252.255148 
L 82.529455 244.709816 
L 82.795636 247.314799 
L 83.061818 256.321568 
L 83.328 258.130773 
L 83.594182 255.482576 
L 83.860364 265.619461 
L 84.126545 271.05333 
L 84.392727 271.546591 
L 84.658909 244.622904 
L 84.925091 261.006825 
L 85.191273 258.539536 
L 85.457455 247.270697 
L 85.723636 249.298746 
L 85.989818 252.432669 
L 86.256 265.389254 
L 86.522182 252.638775 
L 86.788364 254.435533 
L 87.054545 246.199822 
L 87.320727 248.49085 
L 87.586909 260.642699 
L 87.853091 255.944424 
L 88.119273 253.779902 
L 88.385455 271.797198 
L 88.651636 271.609487 
L 88.917818 246.894923 
L 89.184 245.589236 
L 89.450182 246.363104 
L 89.716364 246.691669 
L 89.982545 247.364211 
L 90.248727 255.028606 
L 90.514909 252.809303 
L 90.781091 253.356427 
L 91.047273 253.386958 
L 91.313455 246.093531 
L 91.579636 245.999017 
L 91.845818 258.59059 
L 92.112 255.428217 
L 92.378182 267.093051 
L 92.644364 271.152365 
L 92.910545 266.098027 
L 93.176727 246.612078 
L 93.442909 245.630638 
L 93.709091 245.301879 
L 94.241455 247.00059 
L 94.507636 254.242247 
L 94.773818 252.681678 
L 95.04 254.915455 
L 95.572364 243.611719 
L 95.838545 259.457765 
L 96.104727 259.664995 
L 96.370909 255.333637 
L 96.637091 271.819517 
L 96.903273 255.58535 
L 97.169455 255.600392 
L 97.435636 256.544375 
L 97.701818 258.573955 
L 97.968 258.433597 
L 98.234182 260.008097 
L 98.500364 244.098177 
L 99.032727 258.176582 
L 99.298909 255.488703 
L 99.565091 255.447209 
L 99.831273 258.872333 
L 100.097455 243.952258 
L 100.363636 243.736176 
L 100.896 270.458993 
L 101.162182 270.937516 
L 101.428364 270.139394 
L 101.694545 259.866892 
L 101.960727 243.967629 
L 102.226909 244.648417 
L 102.493091 244.45399 
L 102.759273 246.555099 
L 103.025455 258.639906 
L 103.291636 253.641405 
L 103.557818 268.438064 
L 103.824 265.647906 
L 104.090182 258.612131 
L 104.356364 243.326811 
L 104.622545 242.522703 
L 104.888727 270.112801 
L 105.154909 271.268439 
L 105.421091 270.08235 
L 105.687273 267.944921 
L 105.953455 243.450798 
L 106.219636 257.584707 
L 106.485818 242.413635 
L 106.752 240.003369 
L 107.018182 246.828652 
L 107.284364 256.82183 
L 107.550545 257.610866 
L 107.816727 254.006558 
L 108.082909 246.370995 
L 108.349091 242.391145 
L 108.615273 256.727132 
L 108.881455 256.88857 
L 109.147636 258.741034 
L 109.68 271.500774 
L 109.946182 272.512103 
L 110.212364 242.835214 
L 110.478545 257.420692 
L 110.744727 255.421857 
L 111.277091 244.666829 
L 111.543273 250.975484 
L 111.809455 253.908024 
L 112.341818 244.528056 
L 112.608 255.253993 
L 112.874182 273.596405 
L 113.140364 273.671344 
L 113.406545 243.088555 
L 113.938909 269.501026 
L 114.205091 271.154626 
L 114.471273 242.715392 
L 114.737455 255.754044 
L 115.003636 256.250426 
L 115.269818 259.638248 
L 115.536 240.923195 
L 115.802182 244.452353 
L 116.068364 244.201693 
L 116.334545 245.373009 
L 116.866909 243.00777 
L 117.133091 245.903608 
L 117.399273 258.999616 
L 117.665455 243.830549 
L 117.931636 247.385327 
L 118.197818 257.943426 
L 118.464 259.549136 
L 118.730182 243.901648 
L 118.996364 243.4487 
L 119.262545 243.95774 
L 119.528727 242.239889 
L 119.794909 243.971869 
L 120.061091 244.796 
L 120.327273 253.506942 
L 120.593455 255.914517 
L 120.859636 255.81769 
L 121.392 243.180274 
L 121.658182 249.230246 
L 121.924364 242.882717 
L 122.190545 243.536389 
L 122.456727 250.132779 
L 122.722909 259.944798 
L 122.989091 243.915789 
L 123.787636 245.026979 
L 124.053818 243.677217 
L 124.32 244.076368 
L 124.852364 255.001341 
L 125.384727 253.02575 
L 125.650909 243.077236 
L 125.917091 244.120869 
L 126.183273 243.7073 
L 126.449455 245.916393 
L 126.715636 258.274436 
L 126.981818 255.418166 
L 127.248 246.215741 
L 127.514182 243.72569 
L 127.780364 243.622648 
L 128.046545 243.879373 
L 128.312727 243.782208 
L 128.578909 244.295365 
L 128.845091 252.452858 
L 129.377455 260.440249 
L 129.643636 245.422904 
L 129.909818 249.437774 
L 130.176 247.062269 
L 130.708364 269.383083 
L 130.974545 269.735657 
L 131.506909 260.616031 
L 131.773091 246.76559 
L 132.039273 248.098498 
L 132.305455 262.880098 
L 132.571636 243.950691 
L 132.837818 245.96803 
L 133.104 259.369193 
L 133.370182 259.313079 
L 133.636364 271.952751 
L 133.902545 257.384386 
L 134.168727 253.81968 
L 134.434909 244.045688 
L 134.701091 260.184147 
L 134.967273 260.641606 
L 135.233455 269.903513 
L 135.499636 270.06087 
L 135.765818 260.733404 
L 136.032 245.152849 
L 136.298182 244.426809 
L 136.564364 244.407778 
L 136.830545 245.68041 
L 137.096727 257.89584 
L 137.362909 258.049124 
L 137.629091 270.302554 
L 137.895273 270.419127 
L 138.161455 255.733925 
L 138.693818 243.60094 
L 138.96 257.452403 
L 139.226182 259.43549 
L 139.492364 270.278365 
L 139.758545 271.006328 
L 140.024727 245.112939 
L 140.290909 246.921999 
L 140.557091 244.499615 
L 140.823273 244.348424 
L 141.089455 246.906317 
L 141.355636 254.773083 
L 142.154182 260.701557 
L 142.420364 248.21102 
L 142.686545 249.626328 
L 142.952727 263.057131 
L 143.218909 259.607072 
L 143.485091 260.171559 
L 143.751273 272.06739 
L 144.017455 271.200131 
L 144.283636 244.863885 
L 144.549818 248.325654 
L 144.816 244.820328 
L 145.082182 245.041981 
L 145.348364 245.483859 
L 145.880727 251.227935 
L 146.146909 252.471863 
L 146.413091 248.006854 
L 146.679273 250.411059 
L 146.945455 256.761902 
L 147.211636 257.507043 
L 147.477818 243.834025 
L 147.744 258.288697 
L 148.010182 258.208034 
L 148.276364 272.1397 
L 148.542545 244.374021 
L 148.808727 252.053317 
L 149.074909 264.409223 
L 149.341091 260.585777 
L 149.607273 248.896558 
L 149.873455 244.673707 
L 150.139636 244.364067 
L 150.672 248.50475 
L 150.938182 245.674244 
L 151.204364 246.828582 
L 151.470545 249.916674 
L 151.736727 244.806419 
L 152.002909 246.193822 
L 152.535273 259.089254 
L 152.801455 244.522082 
L 153.067636 249.119615 
L 153.333818 247.955072 
L 153.6 247.912419 
L 153.866182 243.995188 
L 154.132364 243.968072 
L 154.398545 248.77387 
L 154.664727 258.814226 
L 154.930909 256.357708 
L 155.197091 258.84965 
L 155.463273 244.081889 
L 155.729455 246.460541 
L 155.995636 242.26467 
L 156.261818 242.35066 
L 156.528 244.888302 
L 156.794182 253.337572 
L 157.060364 244.141822 
L 157.326545 244.489616 
L 157.592727 244.222708 
L 157.858909 244.408146 
L 158.125091 243.328699 
L 158.391273 243.488891 
L 158.657455 245.202471 
L 158.923636 256.350229 
L 159.189818 258.291466 
L 159.456 256.707815 
L 159.722182 244.116497 
L 159.988364 246.067276 
L 160.254545 243.292511 
L 160.520727 243.536148 
L 161.053091 260.050587 
L 161.319273 245.392294 
L 161.585455 244.322726 
L 161.851636 244.336065 
L 162.384 243.572318 
L 162.650182 243.56225 
L 162.916364 245.538973 
L 163.182545 256.668283 
L 163.448727 259.100648 
L 163.714909 256.058035 
L 163.981091 244.273055 
L 164.247273 244.417175 
L 164.513455 244.044587 
L 164.779636 246.850247 
L 165.045818 258.535639 
L 165.312 256.866524 
L 165.578182 247.614405 
L 165.844364 245.699889 
L 166.110545 246.458048 
L 166.376727 249.921098 
L 166.642909 245.77417 
L 166.909091 244.049221 
L 167.175273 244.019082 
L 167.441455 255.693067 
L 167.707636 256.556265 
L 167.973818 255.879076 
L 168.24 258.237406 
L 168.506182 245.048797 
L 168.772364 246.975006 
L 169.038545 245.73936 
L 169.304727 250.741178 
L 169.570909 259.494642 
L 169.837091 246.915512 
L 170.103273 244.682867 
L 170.369455 244.75106 
L 170.635636 246.065863 
L 170.901818 244.226031 
L 171.168 243.820389 
L 171.434182 246.710095 
L 171.700364 260.193008 
L 171.966545 257.80963 
L 172.232727 258.864626 
L 172.498909 248.198542 
L 172.765091 244.970404 
L 173.031273 247.375069 
L 173.297455 245.361193 
L 173.563636 250.648955 
L 173.829818 260.815936 
L 174.096 245.108308 
L 174.362182 249.214875 
L 174.628364 245.634119 
L 174.894545 246.912018 
L 175.160727 244.081867 
L 175.426909 244.087371 
L 175.693091 244.505189 
L 175.959273 246.695409 
L 176.225455 255.056182 
L 176.491636 249.908436 
L 176.757818 248.635211 
L 177.024 251.942598 
L 177.290182 244.546635 
L 177.556364 244.759469 
L 177.822545 251.173054 
L 178.088727 261.186988 
L 178.354909 245.299944 
L 178.621091 249.194892 
L 178.887273 246.317558 
L 179.153455 248.646583 
L 179.419636 244.854515 
L 179.952 244.82125 
L 180.218182 245.048516 
L 180.750545 250.32779 
L 181.016727 249.060367 
L 181.282909 250.359167 
L 181.549091 245.679427 
L 181.815273 244.256851 
L 182.081455 246.017429 
L 182.347636 255.141703 
L 182.613818 245.688894 
L 182.88 250.808906 
L 183.146182 249.850987 
L 183.412364 252.543576 
L 183.678545 250.337757 
L 183.944727 250.520022 
L 184.477091 244.855985 
L 184.743273 246.714888 
L 185.009455 247.608985 
L 185.275636 246.242435 
L 185.541818 250.976876 
L 185.808 244.768937 
L 186.340364 244.5096 
L 186.606545 244.602933 
L 187.138909 250.923338 
L 187.405091 250.202705 
L 187.671273 251.036572 
L 187.937455 247.41009 
L 188.203636 245.415205 
L 188.469818 244.282382 
L 188.736 244.940014 
L 189.002182 255.695849 
L 189.268364 256.44107 
L 189.534545 244.92815 
L 189.800727 250.227609 
L 190.066909 245.924307 
L 190.333091 246.342633 
L 190.599273 244.860436 
L 190.865455 244.425176 
L 191.131636 246.806479 
L 191.397818 246.845704 
L 191.664 246.361471 
L 191.930182 248.485943 
L 192.462545 245.228758 
L 192.728727 244.232307 
L 192.994909 245.274922 
L 193.261091 255.624887 
L 193.527273 258.348458 
L 193.793455 245.052462 
L 194.059636 246.943247 
L 194.325818 244.931587 
L 194.592 244.930678 
L 194.858182 244.373424 
L 195.124364 245.582942 
L 195.390545 244.680914 
L 195.656727 244.791856 
L 195.922909 245.216824 
L 196.189091 244.744731 
L 196.721455 244.868095 
L 196.987636 244.22521 
L 197.253818 245.797177 
L 197.52 258.520211 
L 197.786182 259.680677 
L 198.052364 247.306727 
L 198.318545 244.768379 
L 198.850909 244.156776 
L 199.117091 244.978927 
L 199.383273 255.259343 
L 199.649455 245.941481 
L 199.915636 244.841365 
L 200.181818 244.896961 
L 200.448 247.764428 
L 200.714182 247.783292 
L 200.980364 246.624973 
L 201.246545 244.225912 
L 201.512727 245.698708 
L 201.778909 260.861284 
L 202.045091 259.032565 
L 202.311273 260.768538 
L 202.577455 251.360063 
L 203.109818 244.853084 
L 203.376 245.057101 
L 203.642182 246.435348 
L 203.908364 244.76205 
L 204.440727 244.918121 
L 204.706909 246.466422 
L 204.973091 246.813071 
L 205.239273 245.863145 
L 205.505455 244.105814 
L 205.771636 248.980126 
L 206.037818 261.020502 
L 206.304 260.944566 
L 206.570182 257.109942 
L 206.836364 244.870386 
L 207.102545 245.239322 
L 207.368727 244.183957 
L 207.634909 244.253506 
L 207.901091 244.605382 
L 208.167273 248.07474 
L 208.433455 249.620605 
L 208.699636 246.261984 
L 208.965818 248.037885 
L 209.232 245.436835 
L 209.498182 245.504246 
L 210.030545 244.707907 
L 210.562909 258.526413 
L 210.829091 245.38791 
L 211.095273 247.21245 
L 211.361455 244.521016 
L 211.627636 244.5827 
L 211.893818 244.402094 
L 212.16 244.709763 
L 212.426182 246.940837 
L 212.692364 247.225407 
L 212.958545 245.239414 
L 213.224727 246.426008 
L 213.490909 245.816173 
L 213.757091 247.031506 
L 214.023273 246.982059 
L 214.289455 245.463358 
L 214.555636 245.645416 
L 214.821818 246.92228 
L 215.088 245.271353 
L 215.354182 248.580826 
L 215.620364 246.925295 
L 215.886545 246.437665 
L 216.152727 245.010722 
L 216.418909 244.556633 
L 216.685091 245.665689 
L 217.217455 246.790919 
L 217.483636 249.35274 
L 217.749818 248.900271 
L 218.016 250.008441 
L 218.282182 250.323932 
L 218.548364 245.040559 
L 218.814545 245.000539 
L 219.080727 252.856025 
L 219.613091 244.812981 
L 219.879273 244.672276 
L 220.411636 246.130518 
L 220.677818 246.044519 
L 220.944 249.438384 
L 221.210182 249.799648 
L 221.476364 248.842866 
L 221.742545 249.721031 
L 222.008727 249.779884 
L 222.274909 249.575696 
L 222.807273 243.968713 
L 223.073455 247.856107 
L 223.339636 256.554444 
L 223.605818 248.964395 
L 223.872 244.69869 
L 224.404364 250.324221 
L 224.670545 250.74982 
L 225.202909 249.056263 
L 225.469091 246.174549 
L 225.735273 245.044105 
L 226.001455 245.477113 
L 226.267636 246.562552 
L 226.533818 246.143462 
L 226.8 244.453551 
L 227.066182 244.083052 
L 227.598545 257.422286 
L 228.130909 244.723554 
L 228.397091 245.453487 
L 228.663273 247.38466 
L 229.195636 244.561522 
L 229.461818 244.27478 
L 229.728 245.444766 
L 229.994182 251.937353 
L 230.526545 244.62835 
L 230.792727 245.189194 
L 231.325091 244.223156 
L 231.591273 245.964537 
L 231.857455 253.835051 
L 232.123636 244.789578 
L 232.389818 245.414191 
L 232.656 247.176723 
L 232.922182 244.477542 
L 233.188364 244.597153 
L 233.720727 246.64145 
L 233.986909 246.581346 
L 234.253091 246.370043 
L 234.519273 244.70623 
L 234.785455 247.51764 
L 235.584 243.906041 
L 235.850182 246.971266 
L 236.116364 259.099064 
L 236.648727 245.730713 
L 236.914909 244.664415 
L 237.181091 245.001922 
L 237.447273 244.552885 
L 237.713455 244.489173 
L 237.979636 244.60978 
L 238.245818 244.930411 
L 238.512 244.971312 
L 238.778182 246.254707 
L 239.044364 249.908985 
L 239.576727 245.429219 
L 239.842909 244.469637 
L 240.109091 246.719795 
L 240.375273 251.359673 
L 240.641455 245.697133 
L 240.907636 248.623742 
L 241.173818 255.784219 
L 241.44 246.833489 
L 241.706182 246.333499 
L 241.972364 245.494977 
L 242.238545 245.305715 
L 242.504727 245.900434 
L 242.770909 245.464126 
L 243.037091 246.780974 
L 243.303273 250.31949 
L 243.569455 245.609202 
L 244.101818 244.505057 
L 244.368 245.019258 
L 244.634182 245.03538 
L 244.900364 248.846457 
L 245.166545 258.607857 
L 245.432727 257.272232 
L 245.698909 246.2854 
L 245.965091 244.851153 
L 246.231273 244.366472 
L 247.296 244.663397 
L 247.562182 248.387821 
L 247.828364 248.368961 
L 248.094545 249.350506 
L 248.360727 247.886519 
L 248.626909 244.949305 
L 248.893091 244.140914 
L 249.159273 248.213557 
L 249.425455 257.569793 
L 249.691636 257.508877 
L 249.957818 245.473071 
L 250.224 244.570002 
L 250.490182 244.271624 
L 250.756364 244.284752 
L 251.288727 245.573378 
L 251.554909 248.500528 
L 251.821091 256.800802 
L 252.087273 249.328495 
L 252.353455 249.29706 
L 252.885818 244.404433 
L 253.152 244.319593 
L 253.684364 249.000311 
L 253.950545 250.701901 
L 254.216727 244.268671 
L 254.482909 244.153431 
L 254.749091 244.301316 
L 255.015273 245.061543 
L 255.281455 247.113894 
L 255.547636 247.250271 
L 255.813818 247.683748 
L 256.08 261.977648 
L 256.346182 248.124016 
L 256.612364 247.769928 
L 256.878545 245.391412 
L 257.144727 244.271655 
L 257.410909 244.443061 
L 257.677091 246.834771 
L 257.943273 262.888296 
L 258.209455 258.668733 
L 258.475636 245.394063 
L 258.741818 245.318571 
L 259.008 245.100026 
L 259.274182 245.242223 
L 259.540364 246.585963 
L 259.806545 245.104003 
L 260.072727 245.331488 
L 260.338909 247.323252 
L 260.605091 244.302221 
L 261.137455 244.205227 
L 261.403636 244.506347 
L 261.669818 244.156657 
L 261.936 245.861595 
L 262.202182 265.101972 
L 262.468364 266.347138 
L 262.734545 244.294066 
L 263.000727 244.241313 
L 263.266909 244.660575 
L 263.533091 245.353648 
L 263.799273 245.448817 
L 264.065455 251.050388 
L 264.331636 248.802913 
L 264.597818 244.526296 
L 264.864 244.450817 
L 265.396364 244.727192 
L 265.928727 243.699566 
L 266.194909 257.561362 
L 266.461091 258.654104 
L 266.727273 257.120239 
L 266.993455 246.81944 
L 267.259636 254.787391 
L 267.525818 258.230366 
L 267.792 258.192181 
L 268.058182 247.550505 
L 268.324364 246.901085 
L 268.590545 244.676411 
L 268.856727 246.741902 
L 269.122909 244.515064 
L 269.655273 244.28606 
L 269.921455 244.467759 
L 270.187636 244.389309 
L 270.72 258.000133 
L 270.986182 253.323044 
L 271.252364 260.443251 
L 271.518545 259.580536 
L 271.784727 256.457199 
L 272.050909 246.609963 
L 272.317091 244.420085 
L 272.849455 244.719902 
L 273.115636 246.962119 
L 273.381818 244.98591 
L 273.648 245.155188 
L 273.914182 244.85092 
L 274.446545 244.002065 
L 274.712727 257.781667 
L 274.978909 256.950395 
L 275.245091 256.983883 
L 275.511273 246.046134 
L 275.777455 247.265962 
L 276.043636 246.814901 
L 276.309818 245.435764 
L 276.576 244.695437 
L 277.108364 244.857096 
L 277.374545 246.433395 
L 277.640727 247.161304 
L 278.173091 244.696842 
L 278.439273 244.533788 
L 278.705455 243.815073 
L 278.971636 256.624577 
L 279.237818 263.24572 
L 279.504 257.902994 
L 279.770182 244.908571 
L 280.568727 256.844337 
L 280.834909 247.193393 
L 281.101091 250.302956 
L 281.633455 244.641 
L 281.899636 244.6281 
L 282.165818 244.845223 
L 282.432 245.575358 
L 282.698182 245.091748 
L 282.964364 245.375875 
L 283.496727 275.726469 
L 284.029091 244.61212 
L 284.295273 247.729351 
L 284.561455 252.228204 
L 284.827636 253.739567 
L 285.093818 244.490981 
L 285.36 244.470713 
L 285.626182 244.832543 
L 285.892364 249.410729 
L 286.158545 244.425387 
L 286.424727 244.433915 
L 286.690909 244.582155 
L 287.223273 243.858429 
L 287.489455 256.552398 
L 287.755636 259.428876 
L 288.288 255.182096 
L 288.554182 256.492448 
L 289.086545 244.345018 
L 289.352727 244.524536 
L 289.885091 245.692116 
L 290.151273 247.954093 
L 290.417455 244.930454 
L 290.683636 244.720069 
L 291.482182 243.620502 
L 291.748364 246.390211 
L 292.014545 256.447956 
L 292.280727 259.079357 
L 292.546909 245.494862 
L 292.813091 245.713039 
L 293.345455 243.549403 
L 293.611636 243.539567 
L 294.144 244.054453 
L 294.410182 243.818493 
L 294.676364 249.810731 
L 294.942545 252.3055 
L 295.208727 246.940407 
L 295.741091 243.41066 
L 296.007273 254.696186 
L 296.539636 259.368021 
L 296.805818 248.66787 
L 297.072 257.319028 
L 297.338182 258.913029 
L 297.604364 259.128369 
L 297.870545 249.507446 
L 298.136727 258.432623 
L 298.402909 259.634473 
L 298.669091 252.886542 
L 298.935273 251.843449 
L 299.201455 245.337369 
L 299.467636 243.766824 
L 299.733818 243.82034 
L 300 243.652305 
L 300.266182 273.657729 
L 300.532364 277.455477 
L 300.798545 261.682206 
L 301.064727 258.862177 
L 301.330909 270.028737 
L 301.597091 269.077621 
L 302.395636 251.59914 
L 302.928 243.80511 
L 303.194182 254.239688 
L 303.460364 252.228634 
L 303.726545 244.908197 
L 304.258909 243.466186 
L 304.525091 263.713068 
L 304.791273 274.954102 
L 305.057455 256.605611 
L 305.323636 269.242633 
L 305.589818 268.900575 
L 305.856 266.891404 
L 306.122182 260.686853 
L 306.388364 244.214588 
L 306.920727 244.905007 
L 307.186909 244.602556 
L 307.453091 246.331516 
L 307.719273 244.937178 
L 307.985455 244.386188 
L 308.251636 244.301417 
L 308.517818 243.698451 
L 309.050182 276.997478 
L 309.316364 261.298233 
L 309.582545 260.369778 
L 309.848727 267.715737 
L 310.114909 260.533666 
L 310.381091 260.697593 
L 310.647273 244.969144 
L 310.913455 245.621329 
L 311.179636 246.975396 
L 311.445818 244.292038 
L 311.712 261.871072 
L 311.978182 260.983976 
L 312.244364 258.763155 
L 312.776727 243.780334 
L 313.042909 273.483641 
L 313.309091 278.292644 
L 313.575273 273.432952 
L 313.841455 260.383538 
L 314.107636 271.919926 
L 314.373818 269.952547 
L 314.64 271.119605 
L 314.906182 260.662481 
L 315.172364 261.15209 
L 315.438545 261.295143 
L 315.704727 257.626061 
L 315.970909 260.788197 
L 316.237091 255.278695 
L 316.503273 244.987512 
L 316.769455 244.415748 
L 317.035636 245.36028 
L 317.301818 278.540385 
L 317.568 279.634031 
L 317.834182 277.684481 
L 318.100364 261.367286 
L 318.366545 269.833775 
L 318.632727 269.085136 
L 318.898909 271.715272 
L 319.165091 257.109955 
L 319.963636 245.030376 
L 320.229818 260.504198 
L 320.496 259.033245 
L 320.762182 248.801754 
L 321.028364 245.14684 
L 321.294545 243.938139 
L 321.560727 278.278204 
L 321.826909 279.415907 
L 322.093091 263.387426 
L 322.359273 268.626135 
L 322.625455 268.4516 
L 322.891636 269.470347 
L 323.157818 260.797835 
L 323.424 245.47099 
L 323.690182 245.588815 
L 323.956364 246.696888 
L 324.222545 245.565544 
L 324.488727 247.365216 
L 324.754909 247.280178 
L 325.021091 247.564774 
L 325.553455 245.160086 
L 326.085818 274.432334 
L 326.352 260.221134 
L 326.618182 252.892726 
L 326.884364 254.668965 
L 327.416727 245.882176 
L 327.682909 249.51338 
L 327.949091 246.588346 
L 328.481455 245.086205 
L 328.747636 260.171717 
L 329.013818 259.139531 
L 329.28 248.253134 
L 329.546182 244.843595 
L 329.812364 246.973614 
L 330.344727 272.54873 
L 330.610909 258.124932 
L 330.877091 257.753695 
L 331.409455 270.399521 
L 331.941818 253.738368 
L 332.208 260.297631 
L 332.474182 262.14075 
L 332.740364 258.874751 
L 333.006545 257.120449 
L 333.272727 246.87339 
L 333.538909 246.466317 
L 333.805091 251.851389 
L 334.071273 259.674295 
L 334.337455 278.357707 
L 334.603636 278.55651 
L 334.869818 277.44461 
L 335.136 275.673146 
L 335.402182 269.484212 
L 335.668364 269.43957 
L 335.934545 273.843001 
L 336.200727 250.233758 
L 336.733091 246.127955 
L 336.999273 246.487156 
L 337.265455 257.980522 
L 337.531636 255.367143 
L 337.797818 245.23819 
L 338.064 245.798274 
L 338.596364 278.35363 
L 338.862545 278.68992 
L 339.128727 269.021885 
L 339.394909 269.391945 
L 339.661091 269.030092 
L 339.927273 273.269314 
L 340.459636 245.808251 
L 340.725818 245.781372 
L 340.992 245.570499 
L 341.258182 246.497787 
L 341.524364 246.886913 
L 341.790545 245.357467 
L 342.056727 246.703625 
L 342.322909 246.996407 
L 342.589091 254.174313 
L 342.855273 277.219472 
L 343.121455 277.864705 
L 343.387636 276.240675 
L 343.653818 269.744093 
L 343.92 276.972183 
L 344.186182 270.730562 
L 344.452364 261.29847 
L 344.718545 245.853638 
L 344.984727 245.404118 
L 345.250909 245.215709 
L 345.517091 244.656541 
L 345.783273 277.543574 
L 346.049455 262.896284 
L 346.315636 256.439024 
L 346.581818 245.089387 
L 347.114182 277.998563 
L 347.380364 277.826801 
L 347.646545 277.237573 
L 347.912727 276.11944 
L 348.178909 270.185958 
L 348.445091 269.191803 
L 348.711273 270.748953 
L 348.977455 258.951262 
L 349.243636 259.22736 
L 349.509818 260.359933 
L 349.776 252.453337 
L 350.042182 260.515289 
L 350.574545 246.494886 
L 351.106909 257.769233 
L 351.373091 280.368052 
L 351.639273 277.650742 
L 351.905455 278.373828 
L 352.171636 276.312164 
L 352.437818 269.087879 
L 352.704 268.842903 
L 352.970182 272.215828 
L 353.236364 253.313182 
L 353.502545 247.325543 
L 353.768727 246.103481 
L 354.034909 248.982044 
L 354.301091 261.143659 
L 354.567273 260.924592 
L 354.833455 249.519999 
L 355.099636 246.427785 
L 355.632 280.213289 
L 355.898182 282.153392 
L 356.164364 277.154918 
L 356.430545 268.855868 
L 356.696727 267.894175 
L 356.962909 268.979785 
L 357.229091 277.330709 
L 357.495273 245.713025 
L 357.761455 246.747209 
L 358.027636 246.920713 
L 358.293818 247.54357 
L 358.56 249.303727 
L 358.826182 249.782575 
L 359.092364 263.295286 
L 359.624727 261.799368 
L 359.890909 278.810694 
L 360.157091 280.466692 
L 360.423273 277.951152 
L 360.689455 255.960344 
L 360.955636 259.020714 
L 361.221818 257.194892 
L 361.488 248.727153 
L 361.754182 252.667221 
L 362.286545 248.969342 
L 362.552727 249.538731 
L 362.818909 260.744289 
L 363.085091 260.585211 
L 363.351273 249.765019 
L 363.617455 249.849399 
L 363.883636 259.228273 
L 364.149818 279.960352 
L 364.416 281.100239 
L 364.682182 274.402462 
L 364.948364 259.214913 
L 365.214545 277.606847 
L 365.480727 276.478988 
L 365.746909 268.858387 
L 366.013091 249.793995 
L 366.545455 259.51326 
L 366.811636 255.266124 
L 367.077818 258.649342 
L 367.344 249.61457 
L 367.610182 250.220885 
L 367.876364 259.298112 
L 368.142545 257.342532 
L 368.408727 267.427393 
L 368.674909 271.282093 
L 368.941091 278.889597 
L 369.207273 276.69335 
L 369.473455 269.942141 
L 369.739636 270.11557 
L 370.005818 275.010625 
L 370.272 250.411015 
L 370.538182 248.123722 
L 370.804364 248.310227 
L 371.070545 251.2853 
L 371.336727 259.636356 
L 371.602909 261.067447 
L 371.869091 249.333977 
L 372.135273 264.654835 
L 372.401455 256.819978 
L 372.667636 276.289639 
L 372.933818 274.379433 
L 373.2 278.659706 
L 373.466182 270.457097 
L 373.732364 269.712233 
L 374.264727 273.643864 
L 374.530909 248.775841 
L 374.797091 249.870067 
L 375.063273 249.373957 
L 375.329455 250.519684 
L 375.595636 250.771296 
L 375.861818 250.015064 
L 376.128 254.257064 
L 376.394182 261.933981 
L 376.660364 257.923781 
L 376.926545 278.728816 
L 377.192727 266.632506 
L 377.458909 278.698944 
L 377.725091 277.504674 
L 377.991273 274.741676 
L 378.257455 277.048299 
L 378.789818 249.855425 
L 379.056 249.610128 
L 379.322182 248.853119 
L 379.588364 248.928747 
L 379.854545 277.738453 
L 380.120727 276.786714 
L 380.653091 250.132884 
L 380.919273 258.182503 
L 381.185455 272.522725 
L 381.451636 265.526741 
L 381.717818 278.630145 
L 381.984 277.121122 
L 382.250182 269.926388 
L 382.516364 269.576795 
L 382.782545 270.762923 
L 383.048727 259.449224 
L 383.314909 259.428964 
L 383.581091 261.365816 
L 383.847273 257.908788 
L 384.113455 269.570264 
L 384.379636 262.481588 
L 384.645818 251.058613 
L 384.912 264.512515 
L 385.178182 256.96986 
L 385.444364 263.366929 
L 385.710545 287.420249 
L 385.976727 268.199584 
L 386.242909 276.600578 
L 386.509091 269.395399 
L 386.775273 269.001361 
L 387.041455 270.600418 
L 387.573818 250.594579 
L 387.84 249.684422 
L 388.106182 254.495272 
L 388.372364 277.533866 
L 388.638545 263.299201 
L 388.904727 259.361569 
L 389.170909 251.179339 
L 390.235636 278.622078 
L 390.768 258.494939 
L 391.300364 273.16823 
L 391.566545 250.926314 
L 391.832727 250.725843 
L 392.365091 252.286684 
L 392.631273 270.155507 
L 392.897455 272.252481 
L 393.163636 266.338324 
L 393.696 261.983661 
L 393.962182 278.652288 
L 394.228364 265.265258 
L 394.494545 280.350356 
L 394.760727 263.129805 
L 395.026909 266.295268 
L 395.293091 265.840981 
L 395.559273 264.413906 
L 395.825455 269.482535 
L 396.091636 269.412428 
L 396.357818 273.19517 
L 396.624 274.225815 
L 396.890182 265.944497 
L 397.156364 267.268495 
L 397.422545 264.006482 
L 397.688727 272.761284 
L 397.954909 262.52284 
L 398.221091 279.63167 
L 398.487273 270.310467 
L 398.753455 281.111646 
L 399.019636 264.344502 
L 399.285818 282.526568 
L 399.552 280.145263 
L 400.084364 261.564237 
L 400.616727 265.34797 
L 400.882909 264.847875 
L 401.149091 266.844757 
L 401.415273 265.995718 
L 401.681455 272.939928 
L 401.947636 264.379333 
L 402.213818 272.400445 
L 402.48 288.960522 
L 402.746182 292.912776 
L 403.012364 266.635407 
L 403.278545 281.738864 
L 403.544727 276.482793 
L 403.810909 276.264977 
L 404.077091 280.630543 
L 404.343273 263.137885 
L 404.609455 259.973147 
L 404.875636 261.062518 
L 405.141818 275.057641 
L 405.408 267.491895 
L 405.674182 269.418463 
L 405.940364 268.316579 
L 406.206545 275.784058 
L 406.472727 269.15339 
L 406.738909 286.13742 
L 407.005091 294.320728 
L 407.271273 281.432873 
L 407.803636 273.696358 
L 408.336 280.051554 
L 408.602182 260.147955 
L 408.868364 270.171364 
L 409.134545 267.295743 
L 409.400727 270.225209 
L 409.666909 269.406437 
L 409.933091 270.203997 
L 410.199273 274.999161 
L 410.465455 276.55376 
L 410.731636 268.653427 
L 411.264 274.470725 
L 411.530182 283.684319 
L 411.796364 281.881656 
L 412.062545 281.059368 
L 412.328727 281.965314 
L 412.594909 267.978638 
L 412.861091 266.440603 
L 413.127273 271.715996 
L 413.393455 268.874206 
L 413.659636 268.263664 
L 413.925818 282.688727 
L 414.192 282.50773 
L 414.458182 267.874898 
L 414.724364 272.644925 
L 414.990545 269.415049 
L 415.256727 271.69546 
L 415.522909 281.715124 
L 415.789091 284.213941 
L 416.055273 281.675681 
L 416.321455 275.312716 
L 416.587636 273.508097 
L 416.853818 275.963479 
L 417.12 266.558124 
L 417.652364 278.450409 
L 417.918545 269.079763 
L 418.184727 284.094556 
L 418.450909 267.762468 
L 418.717091 272.738219 
L 418.983273 281.640637 
L 419.249455 266.132995 
L 419.515636 285.786448 
L 419.781818 296.052023 
L 420.048 273.760991 
L 420.314182 281.283843 
L 420.580364 270.022338 
L 420.846545 267.093442 
L 421.112727 274.080844 
L 421.378909 267.170202 
L 421.645091 271.273907 
L 422.177455 272.925088 
L 422.443636 283.355793 
L 422.709818 283.030618 
L 422.976 268.704814 
L 423.242182 273.193568 
L 423.508364 271.259529 
L 423.774545 270.362254 
L 424.040727 293.121805 
L 424.306909 282.857315 
L 424.573091 277.076165 
L 424.839273 259.293429 
L 425.105455 261.682391 
L 425.371636 274.489081 
L 425.637818 268.68246 
L 425.904 270.61951 
L 426.170182 269.704455 
L 426.436364 260.441702 
L 426.436364 260.441702 
" clip-path="url(#p276ae12145)" style="fill: none; stroke: #ffa500; stroke-width: 3; stroke-linecap: square"/>
   </g>
   <g id="line2d_2">
    <path d="M 27.163636 95.91427 
L 27.429818 57.796187 
L 27.696 40.107518 
L 27.962182 56.805784 
L 28.228364 138.789684 
L 28.494545 184.654396 
L 28.760727 162.418502 
L 29.026909 163.437573 
L 29.559273 59.268351 
L 30.357818 101.133155 
L 30.624 99.898825 
L 30.890182 93.084409 
L 31.156364 82.6271 
L 31.422545 101.08663 
L 31.688727 92.901315 
L 31.954909 75.018754 
L 32.221091 79.672098 
L 32.753455 149.914675 
L 33.019636 163.321877 
L 33.818182 74.279652 
L 34.350545 82.071444 
L 34.616727 100.579131 
L 34.882909 108.443887 
L 35.149091 106.82727 
L 35.415273 95.06402 
L 35.681455 97.275883 
L 35.947636 102.636832 
L 36.213818 84.904834 
L 36.48 93.91749 
L 36.746182 172.437834 
L 37.012364 194.029781 
L 37.278545 182.910013 
L 37.544727 190.263249 
L 37.810909 116.864948 
L 38.077091 90.024543 
L 38.343273 86.138584 
L 38.609455 98.820133 
L 38.875636 103.162678 
L 39.141818 110.31047 
L 39.408 89.711216 
L 39.674182 87.43515 
L 39.940364 102.826352 
L 40.206545 90.431708 
L 40.472727 34.904135 
L 40.738909 36.401387 
L 41.005091 126.399376 
L 41.537455 167.352606 
L 41.803636 137.799562 
L 42.336 46.128495 
L 42.602182 72.144616 
L 42.868364 85.911459 
L 43.134545 106.565225 
L 43.400727 101.704787 
L 43.666909 101.738758 
L 43.933091 101.267811 
L 44.199273 39.728126 
L 44.465455 21.927273 
L 44.731636 29.283335 
L 44.997818 22.669499 
L 45.264 164.441986 
L 45.530182 126.075621 
L 45.796364 156.282442 
L 46.062545 133.61692 
L 46.328727 94.955417 
L 46.594909 37.797427 
L 46.861091 39.686097 
L 47.127273 40.472442 
L 47.393455 86.65581 
L 47.659636 86.604106 
L 47.925818 85.071408 
L 48.192 100.883961 
L 48.458182 84.907485 
L 48.724364 82.630735 
L 48.990545 25.980701 
L 49.256727 40.218157 
L 49.522909 119.126671 
L 49.789091 105.108177 
L 50.055273 107.290668 
L 50.321455 100.007306 
L 50.853818 82.907439 
L 51.12 62.306903 
L 51.386182 72.568916 
L 51.652364 120.134085 
L 51.918545 97.382818 
L 52.184727 90.387238 
L 52.450909 121.833129 
L 52.717091 87.907432 
L 52.983273 98.926717 
L 53.249455 66.978207 
L 53.515636 70.150346 
L 53.781818 118.285813 
L 54.048 96.241291 
L 54.314182 103.271088 
L 54.580364 101.570727 
L 55.112727 73.266409 
L 55.645091 78.621794 
L 55.911273 159.310584 
L 56.177455 129.99448 
L 56.443636 135.006271 
L 56.709818 136.298799 
L 56.976 90.778181 
L 57.242182 88.620304 
L 57.508364 81.221299 
L 57.774545 78.345669 
L 58.040727 154.373373 
L 58.306909 95.374327 
L 58.573091 103.619475 
L 58.839273 102.846331 
L 59.371636 65.371492 
L 59.637818 73.889745 
L 59.904 75.504747 
L 60.170182 89.980652 
L 60.436364 149.504754 
L 60.702545 149.534125 
L 60.968727 94.504133 
L 61.234909 96.072259 
L 61.501091 80.600579 
L 61.767273 37.554484 
L 62.033455 47.598869 
L 62.299636 95.439197 
L 62.832 138.865492 
L 63.098182 128.292645 
L 63.630545 70.952755 
L 64.162909 76.971065 
L 64.429091 87.815489 
L 64.961455 83.33188 
L 65.227636 87.368752 
L 65.76 103.653095 
L 66.026182 78.02474 
L 66.292364 78.73828 
L 66.558545 96.989645 
L 67.090909 112.216608 
L 67.357091 106.754218 
L 67.623273 96.653723 
L 67.889455 71.808255 
L 68.155636 72.130571 
L 68.421818 75.763263 
L 68.688 84.425056 
L 68.954182 162.865836 
L 69.220364 142.646078 
L 69.486545 148.254624 
L 69.752727 148.793075 
L 70.018909 98.439003 
L 70.285091 78.448742 
L 70.551273 71.619121 
L 70.817455 97.277849 
L 71.083636 111.332562 
L 71.349818 115.117958 
L 71.616 111.36878 
L 72.148364 61.245732 
L 72.414545 71.274878 
L 72.680727 75.321231 
L 73.213091 165.007859 
L 73.745455 89.468764 
L 74.011636 91.220565 
L 74.544 46.64623 
L 74.810182 43.403059 
L 75.076364 149.94956 
L 75.342545 102.273663 
L 75.608727 111.64401 
L 75.874909 108.961973 
L 76.141091 80.212357 
L 76.407273 82.77761 
L 76.673455 62.692562 
L 76.939636 69.397497 
L 77.472 104.786756 
L 77.738182 80.128351 
L 78.004364 96.927513 
L 78.270545 77.491082 
L 78.536727 40.637945 
L 78.802909 29.383827 
L 79.069091 34.489509 
L 79.335273 99.699228 
L 79.601455 103.254883 
L 79.867636 104.033048 
L 80.133818 103.53394 
L 80.4 86.132211 
L 80.666182 49.76103 
L 80.932364 45.262216 
L 81.198545 47.016755 
L 81.464727 73.066882 
L 81.997091 88.400394 
L 82.263273 94.849623 
L 82.529455 93.458375 
L 82.795636 75.390491 
L 83.061818 78.949411 
L 83.328 77.521542 
L 83.594182 101.026746 
L 83.860364 97.697058 
L 84.126545 135.79381 
L 84.392727 124.940485 
L 84.925091 60.192408 
L 85.457455 70.267955 
L 85.723636 83.759972 
L 85.989818 83.838501 
L 86.256 136.967044 
L 86.522182 133.482298 
L 86.788364 83.293642 
L 87.054545 101.651539 
L 87.320727 72.388894 
L 87.586909 57.781422 
L 87.853091 83.086601 
L 88.119273 95.044813 
L 88.385455 167.166562 
L 88.651636 155.801313 
L 88.917818 91.919901 
L 89.184 79.286545 
L 89.716364 75.330518 
L 90.781091 85.675485 
L 91.047273 86.80948 
L 91.313455 105.118746 
L 91.579636 79.906281 
L 91.845818 65.677059 
L 92.112 92.95983 
L 92.378182 135.677658 
L 92.644364 141.336029 
L 92.910545 111.519167 
L 93.442909 78.319299 
L 93.709091 79.433491 
L 93.975273 76.871257 
L 94.507636 84.87009 
L 94.773818 82.79773 
L 95.04 87.696405 
L 95.306182 108.866853 
L 95.572364 104.290089 
L 95.838545 74.10509 
L 96.104727 71.129249 
L 96.370909 82.687722 
L 96.637091 129.636034 
L 96.903273 100.228567 
L 97.169455 103.79128 
L 97.435636 104.298253 
L 97.701818 70.684513 
L 97.968 67.22396 
L 98.234182 68.333201 
L 98.766545 93.003703 
L 99.032727 96.280916 
L 99.298909 84.408378 
L 99.565091 58.909325 
L 99.831273 96.843366 
L 100.097455 111.600839 
L 100.629818 87.701198 
L 100.896 172.578679 
L 101.162182 99.30595 
L 101.428364 87.118365 
L 101.694545 94.847639 
L 101.960727 92.855528 
L 102.226909 82.671588 
L 102.493091 77.312183 
L 102.759273 85.518777 
L 103.025455 87.492296 
L 103.291636 83.566572 
L 103.557818 125.772705 
L 103.824 113.298724 
L 104.090182 92.614041 
L 104.356364 105.431107 
L 104.622545 83.97688 
L 104.888727 164.670059 
L 105.154909 163.332007 
L 105.421091 151.788264 
L 105.687273 131.285253 
L 106.219636 69.686755 
L 106.485818 74.584184 
L 106.752 72.893865 
L 107.018182 78.449795 
L 107.284364 78.726148 
L 108.082909 112.09568 
L 108.349091 108.10807 
L 108.615273 68.9397 
L 108.881455 76.179259 
L 109.147636 95.600417 
L 109.413818 157.923533 
L 109.68 157.144438 
L 109.946182 135.648234 
L 110.212364 91.000777 
L 110.478545 66.481663 
L 110.744727 71.645789 
L 111.010909 71.360307 
L 111.277091 81.782784 
L 111.543273 80.530793 
L 111.809455 87.589593 
L 112.075636 101.852277 
L 112.341818 81.241875 
L 112.608 72.995481 
L 112.874182 43.101916 
L 113.140364 40.111819 
L 113.406545 88.307188 
L 113.672727 86.429614 
L 113.938909 163.387222 
L 114.205091 162.519556 
L 114.471273 86.758707 
L 114.737455 74.92927 
L 115.003636 87.09203 
L 115.269818 75.9939 
L 115.536 71.808027 
L 115.802182 78.623321 
L 116.068364 82.423219 
L 116.600727 101.036806 
L 116.866909 98.936197 
L 117.399273 62.862946 
L 117.665455 93.778655 
L 117.931636 92.645801 
L 118.197818 92.028873 
L 118.464 82.575467 
L 118.730182 85.38772 
L 118.996364 73.989412 
L 119.528727 73.297888 
L 119.794909 79.178679 
L 120.061091 76.613672 
L 120.593455 80.875493 
L 120.859636 80.996034 
L 121.125818 96.329266 
L 121.658182 72.858823 
L 121.924364 81.993284 
L 122.456727 79.06365 
L 122.722909 75.691089 
L 122.989091 82.673519 
L 123.521455 77.752214 
L 123.787636 75.740967 
L 124.053818 79.321587 
L 124.586182 76.025501 
L 124.852364 71.014483 
L 125.118545 72.42283 
L 125.384727 84.70299 
L 125.650909 83.394064 
L 125.917091 75.618319 
L 126.183273 83.004771 
L 126.449455 81.446107 
L 126.715636 73.588655 
L 126.981818 116.95287 
L 127.248 80.479371 
L 127.514182 81.484275 
L 127.780364 81.122475 
L 128.046545 79.471623 
L 128.312727 79.576539 
L 128.578909 77.75483 
L 128.845091 73.773206 
L 129.111273 60.590672 
L 129.377455 68.15137 
L 129.643636 80.28411 
L 129.909818 79.458245 
L 130.442182 74.281478 
L 130.708364 164.964478 
L 130.974545 153.517469 
L 131.240727 133.298326 
L 131.506909 69.851854 
L 131.773091 80.377896 
L 132.039273 78.683118 
L 132.305455 75.602746 
L 132.571636 80.936554 
L 132.837818 79.989393 
L 133.104 72.671919 
L 133.370182 61.925125 
L 133.636364 131.862065 
L 133.902545 67.435355 
L 134.168727 79.89422 
L 134.434909 81.121193 
L 134.701091 73.799418 
L 134.967273 90.40562 
L 135.233455 167.00141 
L 135.499636 166.764225 
L 135.765818 62.807924 
L 136.032 81.278849 
L 136.298182 81.359923 
L 136.830545 80.163323 
L 137.096727 75.85287 
L 137.362909 62.279796 
L 137.629091 146.19608 
L 137.895273 158.442813 
L 138.161455 107.91525 
L 138.427636 80.670032 
L 138.693818 80.262323 
L 138.96 84.369614 
L 139.226182 129.879066 
L 139.492364 148.24323 
L 139.758545 153.706568 
L 140.024727 81.806766 
L 140.290909 78.690175 
L 140.557091 80.517749 
L 140.823273 79.414583 
L 141.089455 79.81167 
L 141.621818 76.085245 
L 141.888 74.518137 
L 142.420364 81.823216 
L 143.218909 71.893825 
L 143.485091 59.633451 
L 143.751273 146.805055 
L 144.017455 153.431724 
L 144.283636 81.674655 
L 144.549818 78.415367 
L 144.816 80.539975 
L 145.082182 79.519481 
L 145.348364 80.674228 
L 145.880727 79.542006 
L 146.146909 80.865679 
L 146.413091 81.538646 
L 146.679273 76.850699 
L 147.211636 81.718826 
L 147.477818 80.451404 
L 147.744 71.635818 
L 148.010182 82.784756 
L 148.276364 146.055718 
L 148.542545 81.760874 
L 148.808727 75.765229 
L 149.074909 75.503378 
L 149.341091 76.57324 
L 149.607273 76.195762 
L 149.873455 80.152719 
L 150.139636 79.755877 
L 150.405818 77.70957 
L 150.938182 80.613834 
L 151.204364 80.452422 
L 151.470545 76.262985 
L 151.736727 80.038831 
L 152.002909 78.96379 
L 152.269091 76.905088 
L 152.535273 73.267902 
L 152.801455 81.585258 
L 153.067636 77.492539 
L 153.333818 77.833728 
L 153.6 77.074032 
L 153.866182 80.809481 
L 154.132364 79.31941 
L 154.398545 74.694999 
L 154.664727 62.889842 
L 154.930909 58.248243 
L 155.463273 82.3097 
L 155.729455 76.976999 
L 155.995636 81.915351 
L 156.261818 81.410626 
L 156.794182 79.354803 
L 157.060364 81.475654 
L 157.326545 80.922772 
L 157.592727 80.773632 
L 157.858909 79.236 
L 158.125091 80.743487 
L 158.391273 79.767604 
L 158.657455 76.881984 
L 158.923636 72.119967 
L 159.189818 71.427951 
L 159.456 81.228234 
L 159.722182 81.587505 
L 159.988364 77.862221 
L 160.254545 82.095549 
L 160.520727 80.916311 
L 160.786909 78.982891 
L 161.053091 60.728612 
L 161.319273 78.563086 
L 161.585455 80.154176 
L 162.117818 80.936361 
L 162.384 80.657778 
L 162.650182 79.920028 
L 162.916364 77.518803 
L 163.182545 72.250182 
L 163.448727 70.226189 
L 163.714909 77.788204 
L 163.981091 80.456723 
L 164.247273 79.344867 
L 164.513455 80.125032 
L 164.779636 79.188212 
L 165.045818 62.922742 
L 165.844364 81.05009 
L 166.110545 80.589923 
L 166.376727 76.371132 
L 166.909091 80.072346 
L 167.175273 78.251216 
L 167.441455 73.452366 
L 167.707636 61.846051 
L 167.973818 61.383794 
L 168.506182 80.111549 
L 168.772364 83.084283 
L 169.304727 79.499327 
L 169.570909 69.610754 
L 169.837091 78.373934 
L 170.103273 80.701791 
L 170.369455 81.311293 
L 170.635636 80.49252 
L 170.901818 80.94463 
L 171.168 80.322786 
L 171.434182 77.392942 
L 171.700364 56.549076 
L 171.966545 68.379427 
L 172.232727 47.993183 
L 172.498909 78.870742 
L 172.765091 80.723368 
L 173.031273 80.052613 
L 173.297455 80.47449 
L 173.563636 79.274203 
L 173.829818 74.366205 
L 174.096 81.553481 
L 174.362182 80.055387 
L 174.628364 80.902547 
L 174.894545 78.578921 
L 175.160727 81.069595 
L 175.426909 81.078198 
L 175.693091 80.536007 
L 176.225455 77.433006 
L 176.491636 79.984459 
L 176.757818 81.438558 
L 177.024 77.50309 
L 177.290182 81.372125 
L 177.556364 81.054883 
L 177.822545 79.741358 
L 178.088727 70.652385 
L 178.354909 81.631993 
L 178.621091 80.647788 
L 178.887273 81.175091 
L 179.153455 78.955732 
L 179.419636 80.694944 
L 179.685818 80.668171 
L 179.952 81.466121 
L 180.218182 81.657432 
L 180.484364 81.672829 
L 180.750545 81.569124 
L 181.016727 77.057038 
L 181.282909 75.857207 
L 181.549091 80.746735 
L 181.815273 81.453586 
L 182.081455 81.225548 
L 182.347636 80.272575 
L 182.613818 81.436328 
L 182.88 77.406899 
L 183.412364 75.835402 
L 183.678545 75.889686 
L 183.944727 76.405103 
L 184.210909 79.71339 
L 184.477091 81.268701 
L 184.743273 80.483198 
L 185.275636 81.67074 
L 185.541818 79.484509 
L 185.808 81.582835 
L 186.074182 81.442859 
L 186.340364 81.646161 
L 186.606545 81.692527 
L 186.872727 80.379124 
L 187.138909 77.99363 
L 187.405091 78.464946 
L 187.671273 76.903087 
L 188.469818 81.23264 
L 188.736 79.825189 
L 189.002182 76.161194 
L 189.268364 79.773977 
L 189.534545 81.769757 
L 189.800727 79.248623 
L 190.066909 79.97907 
L 190.333091 78.628026 
L 190.599273 80.574491 
L 190.865455 81.642228 
L 191.131636 80.347453 
L 191.397818 80.292379 
L 191.664 80.598806 
L 191.930182 78.365103 
L 192.196364 78.631467 
L 192.728727 81.158623 
L 192.994909 79.639794 
L 193.261091 76.138932 
L 193.527273 78.289822 
L 193.793455 81.769511 
L 194.059636 81.306061 
L 194.325818 81.536101 
L 194.592 81.159413 
L 194.858182 81.592895 
L 195.124364 81.193385 
L 195.390545 81.584029 
L 195.922909 81.493913 
L 196.189091 81.690666 
L 196.721455 81.158641 
L 196.987636 81.201864 
L 197.253818 79.566462 
L 197.52 71.678637 
L 197.786182 69.400693 
L 198.052364 80.679003 
L 198.318545 81.446651 
L 198.584727 81.13501 
L 198.850909 80.603722 
L 199.117091 78.781889 
L 199.383273 74.756288 
L 199.649455 79.615602 
L 199.915636 81.199319 
L 200.181818 81.711593 
L 200.448 81.289558 
L 200.714182 80.079509 
L 200.980364 80.158811 
L 201.246545 81.014188 
L 201.512727 78.502692 
L 201.778909 46.337731 
L 202.045091 48.795733 
L 202.311273 46.935838 
L 202.577455 77.045082 
L 202.843636 79.84127 
L 203.109818 81.192331 
L 203.642182 81.377831 
L 203.908364 81.819652 
L 204.440727 81.862068 
L 204.706909 81.491613 
L 204.973091 80.65704 
L 205.239273 80.781707 
L 205.505455 81.208202 
L 205.771636 78.932013 
L 206.037818 50.243582 
L 206.304 45.436638 
L 206.570182 79.91046 
L 206.836364 81.878343 
L 207.102545 81.891036 
L 207.368727 81.588331 
L 207.901091 81.879185 
L 208.167273 80.868348 
L 208.433455 80.826335 
L 208.699636 81.573952 
L 208.965818 80.480442 
L 209.232 80.53441 
L 209.498182 80.437324 
L 209.764364 81.581185 
L 210.030545 81.687172 
L 210.296727 80.874247 
L 210.562909 80.960922 
L 210.829091 81.925253 
L 211.095273 81.735909 
L 211.361455 81.731204 
L 211.627636 81.007323 
L 212.16 81.910611 
L 212.426182 81.553218 
L 212.958545 81.922918 
L 213.224727 81.633942 
L 213.490909 81.019893 
L 213.757091 79.607087 
L 214.289455 81.841755 
L 214.555636 81.915492 
L 214.821818 81.866878 
L 215.088 81.958575 
L 215.620364 80.356951 
L 215.886545 79.402381 
L 216.418909 81.765983 
L 216.685091 81.588418 
L 216.951273 81.659504 
L 217.217455 81.521617 
L 217.749818 76.562583 
L 218.016 76.297571 
L 218.282182 77.390063 
L 218.548364 81.59035 
L 218.814545 81.661382 
L 219.080727 80.646629 
L 219.346909 81.640192 
L 219.613091 81.990808 
L 219.879273 81.935453 
L 220.411636 80.279949 
L 220.677818 80.315869 
L 220.944 77.957008 
L 221.210182 78.348618 
L 221.476364 79.668815 
L 222.008727 77.214658 
L 222.274909 77.226421 
L 222.541091 80.125032 
L 222.807273 81.692123 
L 223.339636 77.388764 
L 223.605818 81.586593 
L 223.872 82.070057 
L 224.138182 80.418609 
L 224.404364 77.126754 
L 224.670545 76.83683 
L 225.202909 78.208624 
L 225.469091 80.901494 
L 225.735273 81.891124 
L 226.001455 81.679992 
L 226.267636 80.691696 
L 226.533818 80.476 
L 226.8 81.54681 
L 227.066182 80.769436 
L 227.598545 73.412478 
L 227.864727 80.74052 
L 228.130909 82.123463 
L 228.397091 81.592649 
L 228.663273 79.60958 
L 229.195636 81.590121 
L 229.461818 80.970385 
L 229.994182 77.149226 
L 230.260364 80.392573 
L 230.526545 81.974147 
L 230.792727 81.59121 
L 231.058909 81.552217 
L 231.325091 81.227321 
L 231.591273 79.483473 
L 231.857455 78.617879 
L 232.123636 81.98038 
L 232.389818 82.004116 
L 232.656 81.215102 
L 232.922182 80.858077 
L 233.454545 78.393667 
L 233.720727 77.874037 
L 233.986909 78.069157 
L 234.253091 79.27336 
L 234.519273 81.819582 
L 234.785455 80.97509 
L 235.051636 80.776441 
L 235.317818 81.285327 
L 235.584 80.956357 
L 235.850182 77.75188 
L 236.116364 67.323241 
L 236.382545 78.637893 
L 236.648727 80.766978 
L 236.914909 81.302023 
L 237.181091 80.783902 
L 237.447273 81.827465 
L 237.713455 82.140827 
L 238.245818 82.059559 
L 238.512 82.161859 
L 238.778182 81.801446 
L 239.044364 79.316583 
L 239.310545 80.124804 
L 239.576727 81.468193 
L 239.842909 82.131346 
L 240.109091 81.772268 
L 240.375273 81.615016 
L 240.641455 82.1597 
L 240.907636 78.47555 
L 241.173818 76.58753 
L 241.44 80.798456 
L 241.706182 80.644962 
L 242.238545 81.451497 
L 242.504727 81.556325 
L 242.770909 82.020391 
L 243.037091 81.612348 
L 243.303273 79.080013 
L 243.569455 81.487751 
L 244.101818 82.225799 
L 244.634182 82.252414 
L 244.900364 80.291238 
L 245.166545 75.882646 
L 245.432727 75.820848 
L 245.698909 80.648842 
L 246.231273 82.133383 
L 247.029818 82.321586 
L 247.296 82.298289 
L 247.562182 80.439974 
L 248.094545 78.611295 
L 248.360727 79.839111 
L 248.626909 82.114738 
L 248.893091 82.321674 
L 249.159273 77.969719 
L 249.425455 75.619267 
L 249.691636 75.978345 
L 249.957818 80.987169 
L 250.490182 82.138492 
L 250.756364 82.201887 
L 251.022545 81.892669 
L 251.288727 81.801165 
L 251.821091 76.498748 
L 252.087273 77.016044 
L 252.353455 77.227369 
L 252.619636 79.050465 
L 252.885818 82.212878 
L 253.152 82.319427 
L 253.418182 81.325496 
L 253.684364 78.325672 
L 253.950545 77.486658 
L 254.216727 82.370726 
L 254.482909 82.239212 
L 254.749091 81.631203 
L 255.281455 77.424017 
L 255.547636 78.201795 
L 256.08 76.676699 
L 256.612364 78.079217 
L 257.144727 82.406927 
L 257.410909 82.404662 
L 257.677091 81.275443 
L 257.943273 76.687742 
L 258.209455 76.591902 
L 258.475636 81.582906 
L 259.540364 79.577575 
L 259.806545 81.776955 
L 260.072727 81.907398 
L 260.338909 80.538729 
L 260.605091 82.40561 
L 261.669818 82.516355 
L 261.936 81.108465 
L 262.202182 77.047786 
L 262.468364 76.775347 
L 262.734545 82.388405 
L 263.000727 82.302924 
L 263.533091 81.693563 
L 263.799273 81.635768 
L 264.065455 81.063995 
L 264.331636 82.274325 
L 264.597818 82.580769 
L 264.864 82.548501 
L 265.396364 82.168478 
L 265.662545 82.507173 
L 265.928727 82.573852 
L 266.194909 76.296061 
L 266.461091 92.067918 
L 266.727273 77.852039 
L 266.993455 80.053297 
L 267.259636 73.899471 
L 267.525818 64.895436 
L 267.792 69.653942 
L 268.058182 82.330856 
L 268.590545 82.608649 
L 268.856727 81.564524 
L 269.122909 82.579716 
L 269.921455 82.532788 
L 270.187636 82.552047 
L 270.453818 78.318386 
L 270.72 76.61692 
L 270.986182 77.613976 
L 271.252364 59.231184 
L 271.518545 63.109489 
L 271.784727 79.273535 
L 272.050909 82.581735 
L 272.317091 82.510334 
L 272.583273 82.580541 
L 272.849455 82.512598 
L 273.115636 81.011273 
L 273.381818 82.178959 
L 273.648 81.783012 
L 273.914182 81.816457 
L 274.180364 82.553557 
L 274.446545 82.64413 
L 274.712727 77.246575 
L 274.978909 79.605928 
L 275.245091 79.248623 
L 275.511273 82.661353 
L 277.108364 82.607982 
L 277.374545 81.894828 
L 277.640727 82.621518 
L 278.439273 82.648027 
L 278.705455 82.628294 
L 278.971636 77.371506 
L 279.237818 104.632454 
L 279.504 97.340893 
L 279.770182 81.857345 
L 280.036364 79.933353 
L 280.302545 76.74027 
L 280.568727 75.71465 
L 280.834909 82.286596 
L 281.101091 82.223482 
L 281.367273 82.572939 
L 281.899636 82.693147 
L 282.165818 82.303837 
L 282.432 81.186415 
L 282.698182 81.635206 
L 282.964364 81.188767 
L 283.230545 98.643446 
L 283.496727 77.049278 
L 283.762909 105.199926 
L 284.029091 81.224863 
L 284.561455 77.355091 
L 285.093818 82.699064 
L 285.36 82.684615 
L 285.626182 82.488862 
L 285.892364 78.46226 
L 286.158545 82.543989 
L 286.424727 82.232944 
L 286.690909 81.467754 
L 286.957091 82.151483 
L 287.223273 82.256277 
L 287.489455 81.912999 
L 287.755636 103.512926 
L 288.021818 80.323629 
L 288.288 70.09952 
L 288.554182 67.481283 
L 288.820364 79.358718 
L 289.086545 82.978963 
L 289.352727 80.408584 
L 289.618909 80.811676 
L 289.885091 80.677019 
L 290.151273 78.093841 
L 290.417455 81.153374 
L 290.683636 81.077092 
L 290.949818 81.336925 
L 291.216 82.650327 
L 291.482182 82.838373 
L 291.748364 77.461113 
L 292.014545 79.118022 
L 292.280727 77.632515 
L 292.546909 81.510258 
L 293.079273 83.542801 
L 293.345455 83.442502 
L 293.611636 81.852833 
L 293.877818 82.772572 
L 294.144 82.71446 
L 294.410182 82.240072 
L 294.676364 78.97464 
L 294.942545 80.304932 
L 295.208727 82.734966 
L 295.741091 82.936635 
L 296.007273 77.60834 
L 296.273455 78.234221 
L 296.539636 76.815323 
L 296.805818 78.247073 
L 297.338182 64.40918 
L 297.604364 63.04123 
L 297.870545 72.957243 
L 298.136727 64.162461 
L 298.402909 60.560247 
L 298.669091 75.312576 
L 298.935273 80.764151 
L 299.201455 83.219677 
L 299.733818 82.677557 
L 300.266182 79.225466 
L 300.532364 60.564882 
L 300.798545 104.678329 
L 301.064727 65.01603 
L 301.330909 65.627252 
L 301.597091 94.080921 
L 301.863273 64.661955 
L 302.395636 80.594522 
L 302.661818 82.880841 
L 302.928 82.829472 
L 303.194182 80.23813 
L 303.460364 82.37336 
L 303.726545 83.160091 
L 303.992727 83.094642 
L 304.258909 82.575941 
L 304.525091 106.270402 
L 305.057455 79.290635 
L 305.323636 121.003876 
L 305.589818 142.434718 
L 305.856 68.781816 
L 306.122182 60.301011 
L 306.388364 83.223259 
L 306.920727 83.26104 
L 307.186909 82.991253 
L 307.453091 83.335654 
L 307.719273 83.313375 
L 307.985455 83.104227 
L 308.517818 83.228052 
L 308.784 110.097548 
L 309.050182 79.547887 
L 309.316364 113.187733 
L 309.582545 63.796817 
L 309.848727 52.795544 
L 310.114909 52.948108 
L 310.381091 65.097017 
L 310.647273 83.48095 
L 311.179636 83.44115 
L 311.445818 82.929033 
L 311.712 53.801028 
L 311.978182 54.241111 
L 312.510545 83.237234 
L 312.776727 83.263673 
L 313.042909 103.454498 
L 313.309091 62.368052 
L 313.575273 103.715718 
L 313.841455 64.716871 
L 314.107636 89.714605 
L 314.373818 130.42496 
L 314.64 125.406376 
L 314.906182 58.496085 
L 315.172364 55.813907 
L 315.438545 55.4911 
L 315.704727 71.308235 
L 315.970909 61.11104 
L 316.237091 79.83021 
L 316.503273 83.622471 
L 316.769455 83.298944 
L 317.035636 80.819155 
L 317.301818 62.540402 
L 317.568 62.116734 
L 317.834182 68.315908 
L 318.100364 61.135829 
L 318.366545 130.564568 
L 318.632727 136.744009 
L 318.898909 124.379702 
L 319.165091 67.286057 
L 319.431273 78.990493 
L 319.697455 80.732216 
L 319.963636 80.604143 
L 320.229818 63.85707 
L 320.496 70.369536 
L 320.762182 80.607286 
L 321.028364 80.79189 
L 321.294545 80.383075 
L 321.560727 73.573855 
L 321.826909 61.559568 
L 322.359273 144.86865 
L 322.625455 151.319019 
L 322.891636 137.77932 
L 323.157818 52.747932 
L 323.424 79.613969 
L 323.956364 79.772274 
L 324.222545 79.805719 
L 324.488727 79.65621 
L 324.754909 79.34599 
L 325.021091 78.319088 
L 325.553455 79.166512 
L 325.819636 97.530677 
L 326.085818 91.286453 
L 326.352 103.021543 
L 326.618182 78.303446 
L 326.884364 77.003245 
L 327.150545 79.782615 
L 327.416727 80.153737 
L 327.682909 79.538056 
L 327.949091 80.175454 
L 328.481455 80.224313 
L 328.747636 58.958465 
L 329.013818 65.393297 
L 329.28 80.126437 
L 329.546182 80.212129 
L 329.812364 77.833376 
L 330.078545 105.291833 
L 330.344727 91.355555 
L 330.610909 96.040676 
L 331.143273 48.931618 
L 331.409455 47.178817 
L 331.675636 47.733034 
L 331.941818 69.588756 
L 332.208 53.308574 
L 332.474182 50.589774 
L 333.272727 80.613378 
L 333.538909 80.130352 
L 333.805091 77.012234 
L 334.071273 77.092642 
L 334.337455 56.618933 
L 334.603636 55.066379 
L 334.869818 51.130209 
L 335.136 56.321705 
L 335.402182 135.800675 
L 335.668364 136.28658 
L 335.934545 113.550973 
L 336.200727 71.688574 
L 336.466909 75.816037 
L 336.733091 76.065178 
L 336.999273 75.557784 
L 337.265455 67.226084 
L 337.531636 74.994737 
L 337.797818 76.075853 
L 338.064 74.88322 
L 338.330182 69.810632 
L 338.596364 50.256011 
L 338.862545 48.995348 
L 339.128727 60.461107 
L 339.394909 143.023433 
L 339.661091 139.685405 
L 339.927273 117.293497 
L 340.193455 45.366061 
L 340.459636 73.611197 
L 340.725818 73.598732 
L 340.992 73.775524 
L 341.258182 73.521836 
L 341.524364 73.936392 
L 341.790545 73.893871 
L 342.056727 72.65891 
L 342.589091 67.835445 
L 342.855273 49.129214 
L 343.121455 49.254742 
L 343.387636 51.792151 
L 343.653818 57.012246 
L 343.92 47.150499 
L 344.186182 44.324325 
L 344.452364 52.156461 
L 344.718545 75.927449 
L 345.250909 75.967074 
L 345.517091 75.046774 
L 345.783273 46.562838 
L 346.049455 45.248575 
L 346.315636 71.914172 
L 346.581818 76.263003 
L 346.848 69.978347 
L 347.114182 52.469138 
L 347.380364 51.757951 
L 347.646545 53.585717 
L 347.912727 59.369914 
L 348.178909 138.508222 
L 348.445091 145.472358 
L 348.711273 137.687255 
L 348.977455 56.667283 
L 349.243636 56.534663 
L 349.509818 53.262067 
L 349.776 72.119124 
L 350.042182 56.785261 
L 350.308364 77.469066 
L 350.574545 79.000886 
L 350.840727 76.292322 
L 351.106909 78.359749 
L 351.373091 58.093011 
L 351.639273 56.008431 
L 351.905455 55.046101 
L 352.171636 58.943015 
L 352.437818 149.404701 
L 352.704 151.121634 
L 352.970182 120.359297 
L 353.236364 72.29948 
L 353.502545 77.307566 
L 353.768727 77.297436 
L 354.034909 76.085386 
L 354.301091 53.294195 
L 354.567273 59.153638 
L 354.833455 77.316994 
L 355.099636 77.410446 
L 355.365818 71.86196 
L 355.632 54.727753 
L 355.898182 53.12648 
L 356.164364 48.695662 
L 356.430545 158.473817 
L 356.696727 159.876037 
L 356.962909 149.72886 
L 357.229091 48.714061 
L 357.495273 73.621152 
L 357.761455 73.607932 
L 358.027636 73.7336 
L 358.293818 73.711356 
L 358.826182 72.888686 
L 359.092364 70.144974 
L 359.358545 69.68126 
L 359.624727 68.015151 
L 359.890909 55.903971 
L 360.157091 57.070937 
L 360.423273 59.727272 
L 360.689455 72.021494 
L 360.955636 60.7935 
L 361.221818 72.048144 
L 361.488 75.500849 
L 361.754182 73.385195 
L 362.286545 75.407626 
L 362.552727 75.415737 
L 362.818909 54.538742 
L 363.085091 59.092963 
L 363.351273 75.89576 
L 363.617455 75.794057 
L 363.883636 73.469448 
L 364.149818 58.25279 
L 364.416 57.664427 
L 364.682182 76.6014 
L 364.948364 63.953875 
L 365.214545 45.861517 
L 365.480727 44.53665 
L 365.746909 44.180697 
L 366.013091 72.270775 
L 366.279273 68.347966 
L 366.545455 56.196002 
L 366.811636 68.566418 
L 367.077818 66.971027 
L 367.344 75.441685 
L 367.610182 74.670596 
L 367.876364 70.541026 
L 368.142545 96.466573 
L 368.408727 61.951459 
L 368.674909 95.530367 
L 368.941091 59.824253 
L 369.207273 59.976272 
L 369.473455 164.205186 
L 369.739636 144.4062 
L 370.005818 75.173794 
L 370.272 74.644805 
L 370.538182 76.131805 
L 370.804364 76.127275 
L 371.070545 75.436506 
L 371.336727 61.63908 
L 371.602909 71.154828 
L 371.869091 76.442322 
L 372.135273 73.932407 
L 372.401455 90.069856 
L 372.667636 56.99404 
L 372.933818 61.704407 
L 373.2 57.937971 
L 373.466182 204.486625 
L 373.732364 146.076908 
L 373.998545 152.010333 
L 374.264727 49.613891 
L 374.530909 78.309959 
L 374.797091 78.240998 
L 375.063273 78.573549 
L 375.329455 78.45759 
L 375.595636 79.698222 
L 375.861818 79.521676 
L 376.128 78.206535 
L 376.394182 75.451955 
L 376.660364 74.278213 
L 376.926545 66.827101 
L 377.192727 65.532992 
L 377.458909 65.696459 
L 377.725091 62.716895 
L 377.991273 88.591407 
L 378.257455 51.02998 
L 378.523636 51.681757 
L 378.789818 79.2577 
L 379.056 79.052941 
L 379.322182 79.230084 
L 379.588364 78.286732 
L 379.854545 52.907115 
L 380.120727 49.962664 
L 380.386909 71.098139 
L 380.653091 79.859775 
L 380.919273 75.552465 
L 381.185455 65.822653 
L 381.451636 69.872149 
L 381.717818 60.44485 
L 381.984 60.191161 
L 382.250182 174.338652 
L 382.516364 142.226044 
L 382.782545 171.461784 
L 383.048727 59.748427 
L 383.314909 60.707193 
L 383.581091 55.529548 
L 383.847273 66.884984 
L 384.113455 50.7735 
L 384.379636 67.055244 
L 384.645818 75.765054 
L 384.912 72.730223 
L 385.178182 85.119864 
L 385.444364 86.453298 
L 385.710545 94.301832 
L 385.976727 48.037899 
L 386.242909 63.544621 
L 386.509091 152.160211 
L 386.775273 137.368977 
L 387.041455 166.842526 
L 387.307636 68.036833 
L 387.573818 77.004106 
L 387.84 76.734125 
L 388.106182 75.332432 
L 388.372364 49.677409 
L 388.638545 49.969475 
L 388.904727 74.96849 
L 389.170909 76.899541 
L 389.703273 66.267986 
L 389.969455 92.127961 
L 390.235636 56.075549 
L 390.501818 168.9464 
L 390.768 117.693622 
L 391.034182 137.259426 
L 391.300364 211.133142 
L 391.566545 77.144275 
L 391.832727 78.175917 
L 392.098909 78.271774 
L 392.631273 78.307168 
L 392.897455 79.749223 
L 393.696 90.955956 
L 393.962182 66.361859 
L 394.228364 57.628243 
L 394.494545 60.342321 
L 394.760727 69.674781 
L 395.026909 53.984596 
L 395.293091 56.664105 
L 395.559273 75.784682 
L 395.825455 78.189435 
L 396.091636 78.924253 
L 396.357818 79.326415 
L 396.624 81.009184 
L 396.890182 58.438536 
L 397.156364 55.89572 
L 397.422545 78.858347 
L 397.688727 81.158272 
L 397.954909 96.173348 
L 398.221091 66.794639 
L 398.487273 59.94367 
L 398.753455 64.132282 
L 399.019636 63.436948 
L 399.285818 77.788327 
L 399.552 113.740054 
L 399.818182 50.964723 
L 400.084364 70.815904 
L 400.350545 72.308802 
L 400.616727 63.613722 
L 400.882909 71.457428 
L 401.149091 57.363793 
L 401.415273 74.01852 
L 401.681455 78.021141 
L 402.213818 90.869632 
L 402.48 119.597846 
L 402.746182 135.783628 
L 403.012364 54.414093 
L 403.278545 64.267009 
L 403.544727 155.661003 
L 403.810909 152.158824 
L 404.077091 174.553058 
L 404.343273 69.791513 
L 404.609455 77.899774 
L 404.875636 78.32662 
L 405.141818 82.017582 
L 405.408 57.155207 
L 405.674182 56.6571 
L 405.940364 80.245556 
L 406.206545 84.527251 
L 406.472727 104.280223 
L 406.738909 142.720938 
L 407.005091 148.769778 
L 407.271273 43.054813 
L 407.537455 203.230421 
L 407.803636 162.632214 
L 408.069818 154.669969 
L 408.336 60.246165 
L 408.602182 84.746319 
L 409.400727 96.556233 
L 409.666909 90.974724 
L 410.731636 115.359603 
L 410.997818 78.552833 
L 411.264 104.556032 
L 411.530182 65.597354 
L 411.796364 100.677165 
L 412.062545 258.087717 
L 412.328727 115.738959 
L 412.594909 75.146897 
L 412.861091 110.144915 
L 413.127273 113.998675 
L 413.393455 114.241198 
L 413.659636 116.813491 
L 413.925818 282.073728 
L 414.458182 81.296019 
L 414.724364 114.988849 
L 414.990545 126.693286 
L 415.256727 100.65608 
L 415.522909 136.412107 
L 415.789091 81.457273 
L 416.055273 290.682804 
L 416.321455 190.652287 
L 416.587636 196.952129 
L 416.853818 194.879145 
L 417.12 82.596289 
L 417.918545 86.480756 
L 418.184727 150.595648 
L 418.450909 87.382341 
L 419.249455 143.810305 
L 419.515636 204.597458 
L 419.781818 232.36163 
L 420.048 85.751328 
L 420.314182 303.959046 
L 420.580364 221.933474 
L 420.846545 226.934643 
L 421.112727 219.708435 
L 421.378909 93.840224 
L 421.911273 126.173796 
L 422.177455 136.225853 
L 422.443636 316.472727 
L 422.709818 135.018683 
L 422.976 102.363973 
L 423.242182 136.148956 
L 423.774545 159.169941 
L 424.040727 178.202446 
L 424.306909 103.245069 
L 424.573091 257.184218 
L 424.839273 259.979151 
L 425.105455 255.036699 
L 425.371636 246.152648 
L 425.637818 140.130299 
L 425.904 160.646441 
L 426.170182 160.384572 
L 426.436364 143.081421 
L 426.436364 143.081421 
" clip-path="url(#p276ae12145)" style="fill: none; stroke: #ff0000; stroke-width: 3; stroke-linecap: square"/>
   </g>
   <g id="line2d_3">
    <path d="M 27.163636 206.900938 
L 27.696 70.970856 
L 27.962182 126.344601 
L 28.228364 266.093651 
L 28.494545 214.467421 
L 28.760727 206.65393 
L 29.026909 208.20795 
L 29.293091 261.157625 
L 29.559273 121.651931 
L 30.091636 167.801765 
L 30.357818 299.064947 
L 30.624 310.649051 
L 30.890182 314.077144 
L 31.954909 201.779824 
L 32.221091 217.70041 
L 32.487273 292.155291 
L 32.753455 262.013937 
L 33.019636 251.237134 
L 33.285818 258.209509 
L 33.552 270.68338 
L 33.818182 222.709391 
L 34.084364 237.477213 
L 34.350545 261.415039 
L 34.616727 310.444082 
L 34.882909 305.517868 
L 35.149091 309.782189 
L 35.415273 316.472727 
L 35.681455 305.548809 
L 36.213818 208.253614 
L 36.48 215.430839 
L 36.746182 239.842457 
L 37.012364 225.759987 
L 37.278545 226.155802 
L 37.544727 222.888641 
L 37.810909 239.096367 
L 38.077091 169.862811 
L 38.343273 219.497707 
L 38.609455 247.871693 
L 38.875636 294.852764 
L 39.141818 290.926599 
L 39.408 293.95834 
L 40.206545 146.569467 
L 40.472727 46.196579 
L 40.738909 46.863471 
L 41.005091 289.74102 
L 41.271273 256.66816 
L 41.537455 242.807668 
L 41.803636 237.112807 
L 42.069818 204.950295 
L 42.336 108.74991 
L 42.602182 193.009367 
L 42.868364 220.799049 
L 43.134545 292.83582 
L 43.400727 285.725989 
L 43.666909 286.207762 
L 43.933091 244.197142 
L 44.199273 51.75393 
L 44.465455 51.728597 
L 44.731636 21.927273 
L 44.997818 22.694991 
L 45.264 309.698972 
L 45.530182 262.109697 
L 45.796364 246.489882 
L 46.062545 239.891755 
L 46.328727 218.112991 
L 46.594909 64.143694 
L 46.861091 67.060564 
L 47.127273 87.089678 
L 47.393455 228.368429 
L 47.659636 257.659712 
L 47.925818 255.011695 
L 48.192 238.395942 
L 48.458182 206.041444 
L 48.990545 61.531144 
L 49.256727 79.119128 
L 49.522909 312.967203 
L 49.789091 299.671066 
L 50.055273 293.299262 
L 50.321455 294.163821 
L 50.853818 154.722269 
L 51.12 184.305351 
L 51.918545 300.100632 
L 52.184727 299.49784 
L 52.717091 263.571688 
L 52.983273 237.550125 
L 53.249455 177.931781 
L 53.515636 169.22823 
L 53.781818 296.091779 
L 54.048 299.225296 
L 54.314182 290.924741 
L 54.580364 289.625172 
L 54.846545 249.928437 
L 55.112727 230.625025 
L 55.645091 236.567632 
L 56.177455 290.774553 
L 56.443636 284.477349 
L 57.242182 226.073709 
L 57.508364 184.809681 
L 57.774545 178.949756 
L 58.040727 296.301392 
L 58.306909 306.043253 
L 58.839273 290.248852 
L 59.371636 210.874906 
L 59.637818 229.841304 
L 59.904 235.391607 
L 60.170182 255.069793 
L 60.436364 261.144655 
L 60.702545 262.320899 
L 60.968727 256.487085 
L 61.234909 210.409156 
L 61.501091 184.21972 
L 61.767273 145.495901 
L 62.033455 183.264922 
L 62.299636 307.738809 
L 62.565818 263.794069 
L 62.832 246.679279 
L 63.098182 241.295072 
L 63.364364 250.173343 
L 63.630545 167.956068 
L 64.162909 151.979645 
L 64.429091 277.350894 
L 64.695273 280.755317 
L 64.961455 279.089602 
L 65.227636 272.922293 
L 65.493818 273.239697 
L 65.76 261.27376 
L 66.026182 237.189536 
L 66.292364 247.57755 
L 66.558545 310.895095 
L 67.090909 295.536287 
L 67.357091 292.661144 
L 67.889455 224.638545 
L 68.155636 233.245879 
L 68.421818 251.211278 
L 68.688 285.487638 
L 68.954182 285.332726 
L 69.220364 295.542594 
L 69.486545 296.052696 
L 70.018909 268.104091 
L 70.285091 235.909613 
L 70.551273 238.840748 
L 70.817455 283.786273 
L 71.349818 261.179127 
L 71.616 256.083905 
L 71.882182 240.614608 
L 72.148364 179.518921 
L 72.414545 210.926408 
L 72.680727 224.550123 
L 72.946909 247.912959 
L 73.213091 245.41054 
L 73.479273 241.417492 
L 73.745455 235.315237 
L 74.011636 225.163925 
L 74.810182 121.014761 
L 75.076364 289.865709 
L 75.342545 289.421414 
L 75.874909 266.677753 
L 76.407273 150.354811 
L 76.939636 193.938348 
L 77.205818 245.573133 
L 77.738182 239.549995 
L 78.004364 238.366369 
L 78.270545 158.635774 
L 78.802909 83.177261 
L 79.069091 82.821817 
L 79.335273 281.485204 
L 79.601455 283.789088 
L 79.867636 283.925792 
L 80.133818 272.311106 
L 80.4 197.344477 
L 80.666182 158.874363 
L 81.198545 122.540103 
L 81.730909 225.505729 
L 81.997091 229.165457 
L 82.263273 225.286749 
L 83.061818 174.562302 
L 83.328 153.354986 
L 83.594182 260.249597 
L 83.860364 263.008337 
L 84.392727 247.816548 
L 84.658909 230.492396 
L 84.925091 203.121089 
L 85.191273 205.830812 
L 85.457455 213.285322 
L 85.723636 254.186953 
L 85.989818 257.161281 
L 86.256 254.089095 
L 86.522182 249.299514 
L 86.788364 239.214644 
L 87.054545 222.363199 
L 87.320727 193.367453 
L 87.586909 195.536584 
L 87.853091 258.352869 
L 88.917818 234.334333 
L 89.184 210.005467 
L 89.716364 221.285594 
L 89.982545 253.925957 
L 90.248727 259.319228 
L 90.514909 259.325733 
L 90.781091 255.22129 
L 91.047273 243.078017 
L 91.579636 189.977301 
L 91.845818 197.436094 
L 92.112 264.053787 
L 92.378182 261.923776 
L 92.910545 251.263723 
L 93.442909 197.794093 
L 93.709091 211.619609 
L 93.975273 218.601608 
L 94.241455 249.589219 
L 94.507636 256.78954 
L 94.773818 260.496003 
L 95.04 261.13165 
L 95.306182 243.417217 
L 95.572364 208.935473 
L 95.838545 191.592803 
L 96.104727 214.140611 
L 96.370909 268.614842 
L 96.637091 243.981862 
L 96.903273 252.065189 
L 97.435636 243.920183 
L 97.701818 185.868491 
L 98.234182 194.123488 
L 98.500364 239.864569 
L 98.766545 264.118842 
L 99.565091 276.328592 
L 99.831273 268.284776 
L 100.097455 242.569842 
L 100.363636 236.880528 
L 100.629818 272.332845 
L 101.162182 249.944668 
L 101.428364 246.530876 
L 101.694545 265.29258 
L 101.960727 239.25584 
L 102.226909 236.783223 
L 102.493091 236.829115 
L 102.759273 268.361611 
L 103.025455 273.748741 
L 103.291636 274.002539 
L 103.557818 273.874795 
L 103.824 274.208171 
L 104.090182 270.475031 
L 104.356364 241.89051 
L 104.622545 238.530581 
L 104.888727 251.660829 
L 105.154909 238.131413 
L 105.687273 223.878437 
L 105.953455 225.851842 
L 106.219636 178.559664 
L 106.485818 187.197247 
L 106.752 189.318484 
L 107.018182 249.231742 
L 107.284364 248.564305 
L 108.082909 231.71692 
L 108.349091 209.523249 
L 108.615273 176.601024 
L 108.881455 174.987699 
L 109.147636 268.071853 
L 109.946182 221.670841 
L 110.478545 158.67847 
L 110.744727 171.75522 
L 111.010909 176.5897 
L 111.277091 237.66367 
L 111.543273 244.406738 
L 111.809455 244.460152 
L 112.075636 241.783452 
L 112.341818 181.72435 
L 112.874182 135.419475 
L 113.140364 132.926625 
L 113.406545 243.773821 
L 113.672727 257.539017 
L 113.938909 235.160715 
L 114.205091 229.318487 
L 114.737455 153.31257 
L 115.003636 152.044761 
L 115.269818 145.522586 
L 115.536 166.637433 
L 116.068364 217.896838 
L 116.334545 220.868852 
L 116.600727 209.282649 
L 117.133091 161.367214 
L 117.399273 160.057621 
L 117.665455 235.762588 
L 117.931636 253.059437 
L 118.197818 253.041924 
L 118.464 249.512217 
L 118.996364 178.184916 
L 119.528727 186.163279 
L 119.794909 225.910585 
L 120.061091 245.453768 
L 120.327273 248.696675 
L 120.859636 242.199106 
L 121.125818 222.389244 
L 121.392 175.152526 
L 121.658182 160.675673 
L 121.924364 224.868945 
L 122.190545 241.389489 
L 122.456727 245.631586 
L 122.722909 243.900011 
L 123.255273 185.031066 
L 123.787636 186.251771 
L 124.053818 224.184469 
L 124.32 237.131021 
L 124.852364 245.622251 
L 125.118545 246.364815 
L 125.384727 234.629059 
L 125.650909 191.091387 
L 125.917091 173.672874 
L 126.183273 235.616476 
L 126.449455 249.378311 
L 126.715636 253.074008 
L 126.981818 249.702474 
L 127.514182 189.013514 
L 127.780364 197.040165 
L 128.046545 196.35375 
L 128.312727 221.990532 
L 128.845091 237.819517 
L 129.111273 243.549258 
L 129.377455 235.486929 
L 129.643636 230.804441 
L 129.909818 189.768847 
L 130.176 200.610576 
L 130.442182 252.657758 
L 130.974545 219.757917 
L 131.240727 231.584809 
L 131.506909 227.706039 
L 131.773091 192.119413 
L 132.039273 191.194829 
L 132.305455 197.288384 
L 132.571636 211.922516 
L 132.837818 236.322283 
L 133.104 242.357692 
L 133.370182 239.652006 
L 133.636364 245.88818 
L 133.902545 244.407826 
L 134.434909 233.244623 
L 134.701091 235.592415 
L 134.967273 232.988521 
L 135.233455 215.644912 
L 135.499636 208.616932 
L 135.765818 227.877029 
L 136.032 209.421773 
L 136.298182 201.402944 
L 136.564364 199.309595 
L 136.830545 226.261254 
L 137.096727 237.911696 
L 137.362909 231.560862 
L 137.629091 220.818334 
L 137.895273 229.780243 
L 138.161455 233.112424 
L 138.427636 230.284644 
L 138.693818 217.661531 
L 138.96 226.644824 
L 139.226182 224.479775 
L 139.492364 210.007495 
L 139.758545 205.766372 
L 140.024727 196.447579 
L 140.290909 173.74044 
L 140.557091 178.541265 
L 140.823273 179.676656 
L 141.089455 214.404815 
L 141.355636 220.274423 
L 141.888 220.752366 
L 142.154182 222.584311 
L 142.420364 217.027574 
L 142.686545 190.666043 
L 142.952727 193.192812 
L 143.218909 231.257542 
L 143.485091 233.774726 
L 143.751273 215.114256 
L 144.017455 206.544027 
L 144.283636 193.980334 
L 144.549818 169.084234 
L 144.816 174.561749 
L 145.082182 175.871096 
L 145.348364 204.208446 
L 145.614545 213.335901 
L 145.880727 214.251769 
L 146.146909 213.062278 
L 146.413091 178.820682 
L 146.679273 162.649911 
L 146.945455 186.631215 
L 147.211636 187.439076 
L 147.744 229.382593 
L 148.010182 226.860617 
L 148.276364 219.33755 
L 148.808727 171.359571 
L 149.074909 176.778562 
L 149.341091 187.374021 
L 149.607273 179.589515 
L 149.873455 185.345876 
L 150.405818 208.273944 
L 150.672 213.452791 
L 150.938182 205.98615 
L 151.204364 178.561112 
L 151.470545 174.462872 
L 151.736727 204.849996 
L 152.002909 217.16044 
L 152.269091 221.102895 
L 152.535273 221.657937 
L 152.801455 191.419049 
L 153.067636 175.745094 
L 153.333818 177.616839 
L 153.6 180.887714 
L 154.398545 223.808721 
L 154.664727 227.608637 
L 154.930909 235.092026 
L 155.197091 226.303029 
L 155.463273 193.072174 
L 155.729455 174.057813 
L 155.995636 197.087286 
L 156.528 218.285429 
L 156.794182 220.831027 
L 157.060364 190.666604 
L 157.326545 181.570241 
L 157.592727 182.836628 
L 157.858909 182.72662 
L 158.391273 213.417889 
L 158.923636 226.780657 
L 159.189818 231.202284 
L 159.456 222.733715 
L 159.988364 169.415907 
L 160.254545 202.091325 
L 160.520727 219.022283 
L 160.786909 227.581881 
L 161.053091 225.460196 
L 161.319273 201.597757 
L 161.585455 189.880311 
L 161.851636 190.324775 
L 162.117818 184.66248 
L 162.916364 211.108203 
L 163.182545 213.66107 
L 163.448727 221.249604 
L 163.714909 215.434342 
L 164.247273 179.430113 
L 164.513455 217.752122 
L 164.779636 227.348032 
L 165.045818 228.471528 
L 165.312 223.830561 
L 165.578182 206.460872 
L 165.844364 174.818658 
L 166.110545 170.359557 
L 166.376727 167.78126 
L 166.909091 191.330302 
L 167.175273 212.521878 
L 167.441455 223.674969 
L 167.707636 220.653928 
L 167.973818 222.604466 
L 168.24 219.462717 
L 168.506182 206.915492 
L 168.772364 209.601804 
L 169.038545 210.924599 
L 169.304727 213.90878 
L 169.570909 212.6833 
L 170.369455 174.618517 
L 170.635636 171.454252 
L 171.168 193.227969 
L 171.434182 212.423949 
L 171.700364 218.910099 
L 171.966545 218.719727 
L 172.232727 220.255884 
L 172.498909 202.315712 
L 172.765091 171.87196 
L 173.031273 204.962672 
L 173.297455 205.763265 
L 173.563636 210.059496 
L 173.829818 210.102553 
L 174.096 173.445801 
L 174.362182 161.634263 
L 174.628364 167.497146 
L 174.894545 167.896306 
L 175.160727 177.937092 
L 175.426909 182.08133 
L 175.693091 183.808148 
L 176.225455 199.221805 
L 176.491636 193.225836 
L 176.757818 160.516437 
L 177.024 156.263464 
L 177.290182 181.932313 
L 177.822545 204.429137 
L 178.088727 206.378735 
L 178.354909 175.335296 
L 178.621091 162.280544 
L 178.887273 163.999725 
L 179.153455 164.634297 
L 179.419636 171.067172 
L 179.685818 173.773691 
L 179.952 175.283803 
L 180.218182 181.891073 
L 181.016727 153.203703 
L 181.282909 165.463164 
L 181.815273 180.9098 
L 182.081455 195.754027 
L 182.347636 204.133954 
L 182.613818 178.041727 
L 182.88 169.094539 
L 183.146182 169.20266 
L 183.412364 177.947485 
L 183.678545 177.86009 
L 183.944727 176.698655 
L 184.210909 178.654722 
L 184.743273 201.065775 
L 185.009455 202.682849 
L 185.275636 178.857445 
L 185.541818 168.289883 
L 186.606545 187.570177 
L 186.872727 179.905502 
L 187.138909 177.496895 
L 187.405091 176.66507 
L 187.671273 179.777411 
L 187.937455 179.444843 
L 188.203636 180.96059 
L 188.469818 187.19787 
L 189.002182 213.305187 
L 189.268364 210.670973 
L 189.534545 185.294111 
L 189.800727 171.552796 
L 190.066909 174.098552 
L 190.865455 185.77891 
L 191.131636 182.105453 
L 191.930182 176.346195 
L 192.196364 176.319351 
L 192.462545 177.733694 
L 192.728727 184.657758 
L 192.994909 205.631391 
L 193.261091 211.522838 
L 193.527273 210.115378 
L 193.793455 201.572634 
L 194.059636 175.965601 
L 194.325818 173.587726 
L 194.592 176.032736 
L 194.858182 182.791675 
L 195.124364 195.225285 
L 195.390545 194.912906 
L 195.656727 196.153573 
L 195.922909 194.671235 
L 196.189091 181.111407 
L 196.455273 177.439257 
L 196.721455 180.113904 
L 196.987636 190.986752 
L 197.253818 210.126193 
L 197.52 210.133171 
L 197.786182 208.835446 
L 198.052364 208.143369 
L 198.318545 186.83176 
L 198.584727 185.579006 
L 198.850909 186.079211 
L 199.383273 212.254136 
L 200.448 175.454266 
L 200.980364 184.256009 
L 201.246545 194.056467 
L 201.512727 216.326394 
L 201.778909 216.571076 
L 202.045091 212.587074 
L 202.311273 213.308988 
L 202.577455 206.446845 
L 203.109818 186.34453 
L 203.376 189.758971 
L 203.642182 199.824643 
L 203.908364 194.870692 
L 204.440727 180.092529 
L 204.706909 174.406665 
L 205.239273 178.212532 
L 205.505455 187.80616 
L 205.771636 212.736083 
L 206.037818 211.712911 
L 206.570182 204.923539 
L 206.836364 180.963829 
L 207.102545 179.903132 
L 207.368727 173.495863 
L 207.634909 177.4771 
L 207.901091 183.77681 
L 208.167273 172.279511 
L 208.433455 165.830037 
L 208.699636 165.679949 
L 208.965818 164.244126 
L 209.498182 168.559266 
L 209.764364 172.255652 
L 210.030545 183.483199 
L 210.296727 200.979126 
L 210.562909 200.146924 
L 210.829091 186.471269 
L 211.095273 166.402232 
L 211.361455 169.440486 
L 211.627636 169.699827 
L 211.893818 173.956592 
L 212.16 180.874863 
L 212.426182 169.818271 
L 212.692364 164.058644 
L 212.958545 166.69809 
L 213.224727 164.050972 
L 214.289455 178.337937 
L 214.555636 188.326063 
L 214.821818 192.020413 
L 215.354182 166.85313 
L 215.620364 167.712088 
L 215.886545 169.764785 
L 216.418909 178.042105 
L 217.217455 168.306263 
L 217.483636 169.264686 
L 217.749818 176.418632 
L 218.016 179.907942 
L 218.282182 179.428884 
L 218.548364 182.510608 
L 218.814545 194.648868 
L 219.080727 201.561574 
L 219.346909 193.72051 
L 219.613091 179.385292 
L 219.879273 173.25234 
L 220.145455 172.445085 
L 220.677818 182.532711 
L 220.944 182.196315 
L 221.476364 175.064227 
L 221.742545 175.53506 
L 222.008727 178.559234 
L 222.541091 180.663942 
L 222.807273 187.536171 
L 223.073455 204.24714 
L 223.339636 204.736126 
L 223.605818 195.805248 
L 223.872 176.82312 
L 224.138182 167.927065 
L 224.404364 170.694671 
L 224.936727 178.659234 
L 225.202909 179.390708 
L 226.001455 170.508952 
L 226.267636 170.388051 
L 226.533818 172.429969 
L 226.8 178.533075 
L 227.332364 206.718475 
L 227.598545 207.772475 
L 227.864727 199.730454 
L 228.397091 170.537867 
L 228.663273 171.225117 
L 228.929455 175.75317 
L 229.461818 189.507284 
L 229.728 199.11781 
L 229.994182 200.798086 
L 230.260364 193.426179 
L 230.526545 179.334519 
L 230.792727 176.447556 
L 231.058909 182.132735 
L 231.325091 191.713002 
L 231.591273 206.505746 
L 231.857455 210.380162 
L 232.389818 177.780367 
L 232.656 173.393396 
L 232.922182 177.697221 
L 233.188364 186.527449 
L 233.454545 200.267693 
L 233.720727 204.759967 
L 233.986909 203.635672 
L 234.253091 199.037481 
L 234.519273 182.730342 
L 234.785455 174.580341 
L 235.051636 176.291077 
L 235.317818 182.865868 
L 235.584 194.447191 
L 235.850182 212.217944 
L 236.116364 216.593899 
L 236.648727 197.730715 
L 236.914909 183.281504 
L 237.181091 187.730466 
L 237.447273 186.070029 
L 237.713455 189.030842 
L 237.979636 188.517786 
L 238.512 179.120385 
L 238.778182 173.537111 
L 239.044364 172.246163 
L 239.310545 172.284155 
L 239.576727 177.286957 
L 239.842909 186.989188 
L 240.109091 205.502264 
L 240.375273 208.433127 
L 240.641455 179.890518 
L 240.907636 174.305172 
L 241.173818 175.057977 
L 241.44 162.835867 
L 242.238545 172.898449 
L 242.504727 171.826507 
L 242.770909 169.796132 
L 243.037091 166.254496 
L 243.303273 165.64603 
L 243.569455 165.903036 
L 243.835636 170.686139 
L 244.368 189.46112 
L 244.634182 191.625423 
L 244.900364 177.458376 
L 245.166545 189.70524 
L 245.432727 192.642739 
L 245.698909 164.083662 
L 245.965091 168.880774 
L 246.497455 182.031137 
L 246.763636 181.215867 
L 247.029818 181.521469 
L 247.562182 165.395502 
L 247.828364 166.282954 
L 248.360727 176.380114 
L 248.626909 179.569633 
L 248.893091 181.322636 
L 249.159273 180.247279 
L 249.425455 193.640129 
L 249.691636 190.593096 
L 249.957818 164.50661 
L 250.756364 177.847371 
L 251.288727 169.11257 
L 251.554909 165.963518 
L 251.821091 171.774698 
L 252.087273 168.916923 
L 252.885818 180.865102 
L 253.152 187.302523 
L 253.418182 176.092709 
L 253.684364 176.939448 
L 253.950545 172.408243 
L 254.216727 173.247459 
L 254.482909 172.841848 
L 254.749091 174.35354 
L 255.015273 173.849411 
L 255.281455 174.034858 
L 255.547636 171.404234 
L 255.813818 171.913191 
L 256.08 179.419483 
L 256.346182 173.949728 
L 256.612364 174.440277 
L 256.878545 176.326505 
L 257.410909 186.226157 
L 257.677091 175.674386 
L 257.943273 186.274217 
L 258.209455 184.680827 
L 258.475636 163.851761 
L 259.008 169.323781 
L 259.274182 169.67215 
L 260.072727 165.539007 
L 260.338909 164.953769 
L 260.871273 173.778739 
L 261.137455 178.228553 
L 261.403636 184.716273 
L 261.669818 184.519511 
L 261.936 176.883373 
L 262.202182 186.348849 
L 262.468364 184.338067 
L 262.734545 173.294256 
L 263.533091 194.858139 
L 263.799273 196.757676 
L 264.065455 197.377096 
L 264.331636 193.02766 
L 264.597818 176.593852 
L 264.864 173.798981 
L 265.130182 172.456286 
L 265.396364 175.306337 
L 265.662545 180.22478 
L 265.928727 182.740568 
L 266.194909 199.0709 
L 266.461091 195.135002 
L 266.727273 201.403365 
L 266.993455 191.390502 
L 267.259636 198.527621 
L 267.525818 199.936055 
L 267.792 200.434162 
L 268.058182 197.491844 
L 268.324364 193.046349 
L 268.856727 169.9695 
L 269.122909 175.57428 
L 269.389091 176.714701 
L 269.655273 179.625813 
L 270.187636 193.645044 
L 270.453818 196.975856 
L 270.72 203.467983 
L 270.986182 192.753624 
L 271.252364 195.901877 
L 271.518545 196.429417 
L 272.050909 193.718684 
L 272.317091 180.448596 
L 272.583273 178.587587 
L 273.381818 168.480737 
L 273.648 169.333594 
L 273.914182 171.495808 
L 274.446545 178.455801 
L 274.978909 195.318509 
L 275.245091 198.353304 
L 275.511273 171.529262 
L 275.777455 174.163484 
L 276.043636 174.039809 
L 276.309818 172.095566 
L 276.576 169.217591 
L 277.108364 168.748698 
L 277.374545 165.368202 
L 277.640727 173.764246 
L 277.906909 173.341666 
L 278.173091 171.65083 
L 278.439273 173.858646 
L 278.705455 173.084098 
L 278.971636 194.730136 
L 279.237818 197.064024 
L 279.504 203.580651 
L 279.770182 169.277616 
L 280.302545 183.733876 
L 280.568727 186.580407 
L 280.834909 184.98915 
L 281.101091 187.220606 
L 281.367273 184.110801 
L 281.633455 169.813013 
L 282.165818 165.712463 
L 282.964364 173.04177 
L 283.230545 202.827232 
L 283.496727 191.856244 
L 283.762909 202.707955 
L 284.029091 169.521894 
L 284.295273 184.056947 
L 284.561455 189.792627 
L 284.827636 189.817697 
L 285.093818 177.259534 
L 285.36 173.716976 
L 285.626182 168.445958 
L 286.158545 166.558676 
L 286.424727 168.962428 
L 286.957091 177.043644 
L 287.223273 179.16051 
L 287.489455 204.983476 
L 287.755636 205.062787 
L 288.021818 202.018247 
L 288.288 193.165082 
L 288.554182 196.69866 
L 288.820364 190.970047 
L 289.352727 166.344577 
L 289.618909 164.735404 
L 289.885091 161.73393 
L 290.151273 161.294777 
L 290.417455 156.472085 
L 291.482182 169.934309 
L 291.748364 179.678139 
L 292.014545 195.609267 
L 292.280727 179.700067 
L 292.546909 171.706554 
L 292.813091 174.679683 
L 293.079273 169.771439 
L 293.345455 162.136846 
L 293.611636 158.472974 
L 294.144 163.374283 
L 294.410182 160.147264 
L 294.676364 179.815131 
L 294.942545 181.708698 
L 295.208727 175.447471 
L 295.474909 173.514122 
L 295.741091 172.770411 
L 296.273455 204.397053 
L 296.539636 183.415133 
L 296.805818 179.820591 
L 297.072 191.300026 
L 297.338182 194.740749 
L 297.604364 194.064894 
L 297.870545 188.42738 
L 298.136727 193.07113 
L 298.402909 192.845321 
L 298.669091 184.751587 
L 298.935273 181.14781 
L 299.201455 174.515813 
L 299.467636 174.128688 
L 300 189.889678 
L 300.266182 219.631354 
L 300.532364 192.420924 
L 300.798545 226.68896 
L 301.064727 197.077253 
L 301.330909 214.066813 
L 301.597091 216.847315 
L 301.863273 209.341102 
L 302.129455 184.85653 
L 302.395636 183.985739 
L 302.661818 179.124362 
L 302.928 163.968668 
L 303.194182 178.237076 
L 303.460364 176.937622 
L 303.726545 179.685987 
L 304.258909 206.002671 
L 304.525091 240.406347 
L 304.791273 235.704899 
L 305.057455 246.875124 
L 305.323636 214.197239 
L 305.589818 221.67185 
L 305.856 207.963233 
L 306.388364 156.797192 
L 306.920727 158.980473 
L 307.186909 157.345615 
L 307.453091 150.510658 
L 307.719273 152.561442 
L 308.517818 173.01368 
L 308.784 213.614256 
L 309.050182 185.886408 
L 309.316364 215.722581 
L 309.582545 186.65065 
L 309.848727 201.448458 
L 310.114909 194.389404 
L 310.647273 148.596339 
L 311.179636 156.875072 
L 311.445818 156.414606 
L 311.712 178.469091 
L 311.978182 175.671288 
L 312.244364 161.125341 
L 312.510545 158.097586 
L 312.776727 174.47086 
L 313.042909 211.220045 
L 313.309091 197.504941 
L 313.575273 213.077666 
L 313.841455 183.447174 
L 314.107636 214.440744 
L 314.373818 219.59848 
L 314.64 211.357546 
L 314.906182 166.179723 
L 315.172364 167.787246 
L 315.438545 168.377436 
L 315.704727 158.137807 
L 315.970909 164.236033 
L 316.237091 152.41648 
L 316.503273 153.099595 
L 316.769455 168.047606 
L 317.035636 191.588195 
L 317.301818 203.10233 
L 317.568 190.680052 
L 317.834182 207.044724 
L 318.100364 182.0365 
L 318.366545 218.740663 
L 318.632727 224.872342 
L 318.898909 213.299112 
L 319.165091 157.139557 
L 319.431273 152.691868 
L 319.697455 152.774066 
L 319.963636 157.571881 
L 320.229818 170.455054 
L 320.496 170.406318 
L 320.762182 162.943206 
L 321.294545 203.891125 
L 321.560727 238.85855 
L 321.826909 219.229517 
L 322.093091 246.854715 
L 322.359273 233.112424 
L 322.625455 246.425385 
L 322.891636 234.715874 
L 323.157818 197.512016 
L 323.424 139.596166 
L 323.690182 141.807748 
L 323.956364 141.285449 
L 324.222545 142.840602 
L 324.488727 140.72888 
L 324.754909 147.010955 
L 325.021091 159.517959 
L 325.553455 167.036856 
L 325.819636 229.017555 
L 326.085818 226.832799 
L 326.352 229.869736 
L 326.618182 152.396834 
L 326.884364 151.982893 
L 327.150545 126.730716 
L 327.416727 116.936455 
L 327.682909 140.025505 
L 328.215273 145.287473 
L 328.481455 147.492945 
L 328.747636 174.299221 
L 329.013818 163.426794 
L 329.28 131.900355 
L 329.546182 144.381428 
L 329.812364 175.978874 
L 330.078545 235.743882 
L 330.344727 237.615952 
L 330.610909 234.909309 
L 330.877091 171.449951 
L 331.143273 211.293237 
L 331.409455 215.260008 
L 331.675636 197.242475 
L 331.941818 156.5125 
L 332.208 172.836528 
L 332.474182 175.978619 
L 333.006545 165.557669 
L 333.272727 136.197587 
L 333.538909 150.689574 
L 334.071273 217.604386 
L 334.337455 210.424948 
L 334.603636 180.092415 
L 334.869818 242.1342 
L 335.136 224.258083 
L 335.402182 266.805703 
L 335.668364 269.739993 
L 335.934545 238.135741 
L 336.200727 141.288153 
L 336.466909 138.781924 
L 336.733091 138.770495 
L 336.999273 139.540583 
L 337.265455 162.283863 
L 337.531636 142.335666 
L 337.797818 141.939262 
L 338.596364 232.026937 
L 338.862545 219.049706 
L 339.128727 260.456067 
L 339.394909 257.701215 
L 339.661091 265.540778 
L 339.927273 264.596535 
L 340.459636 110.824992 
L 340.725818 120.114984 
L 341.258182 126.963775 
L 341.524364 113.651921 
L 341.790545 110.616125 
L 342.056727 124.01339 
L 342.589091 162.71501 
L 342.855273 204.265556 
L 343.121455 190.769633 
L 343.653818 219.292185 
L 343.92 256.863197 
L 344.186182 230.741634 
L 344.718545 102.343133 
L 345.250909 121.650333 
L 345.517091 129.217896 
L 345.783273 224.369012 
L 346.049455 194.94564 
L 346.315636 126.33031 
L 346.581818 117.025869 
L 347.114182 198.993977 
L 347.380364 175.870551 
L 348.178909 273.061281 
L 348.445091 273.150507 
L 348.711273 261.148118 
L 348.977455 156.728354 
L 349.243636 160.418175 
L 349.509818 166.13801 
L 349.776 135.815545 
L 350.042182 164.128957 
L 350.308364 118.529652 
L 350.574545 106.150826 
L 351.106909 192.565772 
L 351.373091 180.491706 
L 351.639273 158.585036 
L 352.171636 252.270514 
L 352.437818 269.396202 
L 352.704 270.56168 
L 352.970182 247.794568 
L 353.236364 115.905076 
L 353.502545 105.679686 
L 353.768727 108.909321 
L 354.034909 118.486341 
L 354.301091 175.683998 
L 354.567273 156.699755 
L 354.833455 121.948737 
L 355.099636 140.564975 
L 355.365818 195.227198 
L 355.632 215.66447 
L 355.898182 195.910805 
L 356.164364 240.329819 
L 356.430545 262.014828 
L 356.696727 258.217054 
L 356.962909 272.75883 
L 357.229091 246.515549 
L 357.495273 92.382983 
L 358.027636 106.073017 
L 358.293818 109.339327 
L 358.56 94.77176 
L 358.826182 99.953935 
L 359.358545 137.026542 
L 359.624727 148.771797 
L 359.890909 188.047497 
L 360.157091 188.284402 
L 360.423273 190.756255 
L 360.689455 130.831897 
L 360.955636 147.02823 
L 361.488 80.270153 
L 361.754182 104.684719 
L 362.020364 106.984592 
L 362.286545 105.231738 
L 362.552727 110.754293 
L 362.818909 157.578552 
L 363.085091 141.878412 
L 363.351273 87.350617 
L 363.617455 98.920871 
L 363.883636 163.459519 
L 364.149818 198.295377 
L 364.416 200.026286 
L 364.682182 206.941045 
L 364.948364 171.8517 
L 365.214545 230.41363 
L 365.480727 232.854409 
L 365.746909 205.586148 
L 366.013091 108.122835 
L 366.545455 146.276225 
L 366.811636 129.790231 
L 367.077818 135.545758 
L 367.344 98.4692 
L 367.610182 103.689103 
L 368.142545 199.565644 
L 368.674909 175.686816 
L 368.941091 192.446354 
L 369.207273 235.473428 
L 369.473455 245.736296 
L 369.739636 241.652693 
L 370.005818 225.398846 
L 370.272 97.920444 
L 370.538182 93.6835 
L 370.804364 97.46865 
L 371.070545 110.082976 
L 371.336727 151.8074 
L 371.602909 128.336448 
L 371.869091 92.207333 
L 372.135273 136.508737 
L 372.401455 199.341064 
L 372.667636 195.36484 
L 372.933818 185.655244 
L 373.2 203.763622 
L 373.466182 244.907359 
L 373.732364 238.925229 
L 373.998545 235.649912 
L 374.264727 215.150711 
L 374.530909 77.145153 
L 374.797091 84.475443 
L 375.063273 86.743328 
L 375.329455 90.159235 
L 375.595636 118.319556 
L 375.861818 93.280899 
L 376.128 90.734975 
L 376.926545 181.963607 
L 377.192727 183.837572 
L 377.458909 179.771425 
L 377.725091 239.616753 
L 377.991273 241.898086 
L 378.257455 237.450098 
L 378.523636 211.405009 
L 378.789818 79.517462 
L 379.056 85.931525 
L 379.322182 95.564813 
L 379.588364 110.582698 
L 379.854545 244.011901 
L 380.120727 234.311351 
L 380.386909 183.139956 
L 380.653091 94.005938 
L 381.185455 183.893156 
L 381.451636 187.044262 
L 381.717818 182.243348 
L 381.984 254.391071 
L 382.516364 244.449821 
L 382.782545 238.382152 
L 383.048727 203.510838 
L 383.314909 196.647721 
L 383.581091 206.965791 
L 383.847273 182.62511 
L 384.113455 223.551864 
L 384.379636 190.245824 
L 384.645818 101.638723 
L 384.912 103.148405 
L 385.444364 189.20127 
L 385.710545 169.355154 
L 385.976727 178.052955 
L 386.242909 256.434613 
L 386.775273 235.45969 
L 387.041455 226.35252 
L 387.573818 121.947298 
L 387.84 106.500653 
L 388.106182 100.236415 
L 388.372364 230.010318 
L 388.638545 221.766075 
L 388.904727 175.971948 
L 389.170909 106.082392 
L 389.703273 189.838808 
L 389.969455 181.479176 
L 390.235636 191.4467 
L 390.501818 256.669433 
L 391.034182 243.468306 
L 391.300364 227.28511 
L 391.566545 146.199802 
L 391.832727 110.578467 
L 392.098909 118.787835 
L 392.365091 101.123358 
L 392.631273 119.647408 
L 393.163636 127.51959 
L 393.429818 129.176463 
L 393.696 129.735262 
L 394.494545 138.605817 
L 394.760727 185.413152 
L 395.026909 198.925542 
L 395.293091 184.889413 
L 395.825455 125.113309 
L 396.357818 134.270663 
L 396.624 137.673192 
L 396.890182 200.953064 
L 397.156364 195.913482 
L 397.422545 147.965595 
L 397.688727 129.105905 
L 397.954909 136.358438 
L 398.487273 144.405235 
L 398.753455 151.358767 
L 399.285818 237.298438 
L 399.552 239.21029 
L 399.818182 224.987897 
L 400.084364 166.305988 
L 400.616727 195.121238 
L 400.882909 186.271022 
L 401.149091 192.935174 
L 401.415273 158.186508 
L 401.681455 142.130678 
L 401.947636 146.160353 
L 402.213818 147.660256 
L 402.48 173.989168 
L 402.746182 154.393018 
L 403.012364 155.064089 
L 403.278545 244.930621 
L 403.544727 270.294337 
L 403.810909 270.861028 
L 404.077091 251.002267 
L 404.343273 156.981691 
L 404.609455 146.665711 
L 404.875636 147.747177 
L 405.141818 151.144001 
L 405.408 199.113465 
L 405.674182 190.496958 
L 405.940364 151.087751 
L 406.206545 152.487161 
L 406.472727 161.378784 
L 406.738909 198.366428 
L 407.005091 191.361534 
L 407.271273 176.191375 
L 407.537455 262.444469 
L 407.803636 273.898294 
L 408.069818 268.515825 
L 408.336 237.603355 
L 408.602182 140.469082 
L 408.868364 144.96154 
L 409.400727 148.292826 
L 409.666909 185.230487 
L 410.199273 153.917665 
L 410.465455 152.044146 
L 410.731636 146.007859 
L 410.997818 165.534091 
L 411.264 164.276202 
L 411.530182 157.470037 
L 411.796364 261.242417 
L 412.328727 257.145607 
L 412.594909 238.904135 
L 412.861091 163.656377 
L 413.127273 169.704348 
L 413.393455 180.775213 
L 413.659636 186.720199 
L 413.925818 256.870904 
L 414.192 260.54797 
L 414.458182 228.507676 
L 414.724364 176.300241 
L 414.990545 149.119604 
L 415.256727 168.296712 
L 415.789091 162.098363 
L 416.055273 268.420363 
L 416.321455 268.446864 
L 416.587636 276.991091 
L 416.853818 278.587045 
L 417.12 243.664691 
L 417.386182 244.829431 
L 417.652364 251.03051 
L 417.918545 242.798346 
L 418.184727 251.1169 
L 418.450909 236.434994 
L 418.983273 160.022421 
L 419.249455 147.388836 
L 419.515636 185.380708 
L 419.781818 178.430116 
L 420.048 178.868927 
L 420.314182 271.21415 
L 420.846545 286.950618 
L 421.112727 285.139131 
L 421.378909 238.435242 
L 421.645091 220.492068 
L 421.911273 214.08156 
L 422.177455 190.745011 
L 422.443636 256.898147 
L 422.709818 261.904131 
L 422.976 243.533747 
L 423.508364 154.681187 
L 423.774545 191.806323 
L 424.040727 192.00312 
L 424.306909 187.901412 
L 424.573091 280.404686 
L 424.839273 293.481959 
L 425.105455 297.588331 
L 425.371636 282.244904 
L 425.637818 205.011329 
L 425.904 184.802755 
L 426.170182 191.680629 
L 426.436364 158.743218 
L 426.436364 158.743218 
" clip-path="url(#p276ae12145)" style="fill: none; stroke: #0000ff; stroke-width: 3; stroke-linecap: square"/>
   </g>
   <g id="patch_3">
    <path d="M 7.2 331.2 
L 7.2 7.2 
" style="fill: none; stroke: #000000; stroke-width: 0.8; stroke-linejoin: miter; stroke-linecap: square"/>
   </g>
   <g id="patch_4">
    <path d="M 446.4 331.2 
L 446.4 7.2 
" style="fill: none; stroke: #000000; stroke-width: 0.8; stroke-linejoin: miter; stroke-linecap: square"/>
   </g>
   <g id="patch_5">
    <path d="M 7.2 331.2 
L 446.4 331.2 
" style="fill: none; stroke: #000000; stroke-width: 0.8; stroke-linejoin: miter; stroke-linecap: square"/>
   </g>
   <g id="patch_6">
    <path d="M 7.2 7.2 
L 446.4 7.2 
" style="fill: none; stroke: #000000; stroke-width: 0.8; stroke-linejoin: miter; stroke-linecap: square"/>
   </g>
  </g>
 </g>
 <defs>
  <clipPath id="p276ae12145">
   <rect x="7.2" y="7.2" width="439.2" height="324"/>
  </clipPath>
 </defs>
</svg>
