<?xml version="1.0" encoding="utf-8" standalone="no"?>
<!DOCTYPE svg PUBLIC "-//W3C//DTD SVG 1.1//EN"
  "http://www.w3.org/Graphics/SVG/1.1/DTD/svg11.dtd">
<svg xmlns:xlink="http://www.w3.org/1999/xlink" width="453.6pt" height="338.4pt" viewBox="0 0 453.6 338.4" xmlns="http://www.w3.org/2000/svg" version="1.1">
 <metadata>
  <rdf:RDF xmlns:dc="http://purl.org/dc/elements/1.1/" xmlns:cc="http://creativecommons.org/ns#" xmlns:rdf="http://www.w3.org/1999/02/22-rdf-syntax-ns#">
   <cc:Work>
    <dc:type rdf:resource="http://purl.org/dc/dcmitype/StillImage"/>
    <dc:date>2025-05-15T17:20:34.502212</dc:date>
    <dc:format>image/svg+xml</dc:format>
    <dc:creator>
     <cc:Agent>
      <dc:title>Matplotlib v3.10.1, https://matplotlib.org/</dc:title>
     </cc:Agent>
    </dc:creator>
   </cc:Work>
  </rdf:RDF>
 </metadata>
 <defs>
  <style type="text/css">*{stroke-linejoin: round; stroke-linecap: butt}</style>
 </defs>
 <g id="figure_1">
  <g id="patch_1">
   <path d="M 0 338.4 
L 453.6 338.4 
L 453.6 0 
L 0 0 
z
" style="fill: #ffffff"/>
  </g>
  <g id="axes_1">
   <g id="patch_2">
    <path d="M 7.2 331.2 
L 446.4 331.2 
L 446.4 7.2 
L 7.2 7.2 
z
" style="fill: #ffffff"/>
   </g>
   <g id="matplotlib.axis_1"/>
   <g id="matplotlib.axis_2"/>
   <g id="line2d_1">
    <path d="M 27.163636 316.472727 
L 27.997772 315.732646 
L 28.831907 314.695816 
L 29.944087 312.911638 
L 32.446493 308.726086 
L 34.948898 304.806612 
L 37.729349 299.991835 
L 38.563484 299.061023 
L 39.39762 298.46086 
L 41.06589 297.488189 
L 41.62198 296.909248 
L 42.17807 296.049234 
L 42.734161 294.830558 
L 43.290251 293.192095 
L 44.124386 289.854302 
L 44.958521 285.387862 
L 45.792656 279.766597 
L 46.904837 270.543198 
L 48.295062 256.783229 
L 50.519423 234.129497 
L 51.353558 227.515424 
L 51.909648 224.224763 
L 52.465738 222.010037 
L 52.743783 221.339118 
L 53.021828 220.968983 
L 53.299873 220.901818 
L 53.577918 221.135237 
L 53.855964 221.662465 
L 54.412054 223.549149 
L 54.968144 226.421808 
L 55.802279 232.119629 
L 58.02664 248.582962 
L 58.58273 251.349875 
L 59.13882 253.083534 
L 59.416865 253.518302 
L 59.69491 253.652624 
L 59.972955 253.484896 
L 60.251 253.019756 
L 60.80709 251.24573 
L 61.363181 248.480364 
L 62.197316 242.968197 
L 64.699721 225.12414 
L 65.533857 221.309465 
L 66.089947 219.747229 
L 66.646037 218.999424 
L 66.924082 218.923221 
L 67.202127 219.035663 
L 67.480172 219.32595 
L 68.036262 220.382851 
L 68.870398 222.882824 
L 72.484984 235.391696 
L 74.431299 241.463404 
L 76.09957 246.84565 
L 76.933705 248.927485 
L 77.76784 250.367119 
L 78.32393 250.937799 
L 78.88002 251.122316 
L 79.158065 251.022766 
L 79.43611 250.755611 
L 79.714155 250.28144 
L 80.270246 248.521478 
L 80.826336 245.322537 
L 81.382426 240.269326 
L 81.938516 233.072149 
L 82.772651 218.26871 
L 85.275057 166.740094 
L 85.831147 160.866427 
L 86.109192 159.385816 
L 86.387237 158.923537 
L 86.665282 159.469813 
L 86.943327 160.978366 
L 87.499418 166.521135 
L 88.333553 179.048284 
L 89.445733 196.124605 
L 90.001823 201.694927 
L 90.279868 203.282415 
L 90.557913 203.972525 
L 90.835958 203.731535 
L 91.114004 202.558726 
L 91.392049 200.484642 
L 91.948139 193.898057 
L 92.782274 179.500338 
L 94.450544 147.773588 
L 95.006635 139.962798 
L 95.562725 134.568121 
L 96.118815 131.747914 
L 96.39686 131.27357 
L 96.674905 131.376952 
L 96.95295 132.008821 
L 97.50904 134.623069 
L 98.06513 138.612504 
L 99.177311 148.807265 
L 102.791897 185.21264 
L 104.738212 207.800049 
L 106.684528 229.987922 
L 107.796708 240.541997 
L 108.908888 248.954334 
L 109.743024 253.89506 
L 110.577159 257.829633 
L 111.411294 260.948913 
L 112.245429 263.415062 
L 113.079564 265.321756 
L 113.9137 266.68106 
L 114.46979 267.250416 
L 115.02588 267.505434 
L 115.58197 267.398817 
L 116.13806 266.88269 
L 116.69415 265.915243 
L 117.250241 264.469835 
L 118.084376 261.409048 
L 118.918511 257.410244 
L 121.698962 242.69242 
L 122.255052 240.750825 
L 122.811142 239.499814 
L 123.089187 239.163142 
L 123.367232 239.029108 
L 123.645277 239.10104 
L 123.923322 239.378801 
L 124.479413 240.531614 
L 125.035503 242.40813 
L 125.869638 246.250035 
L 127.537908 254.625054 
L 128.093998 256.509624 
L 128.372044 257.105268 
L 128.650089 257.423489 
L 128.928134 257.434238 
L 129.206179 257.112278 
L 129.484224 256.437757 
L 130.040314 253.982429 
L 130.596404 250.034554 
L 131.430539 241.47918 
L 132.264675 230.261484 
L 133.6549 207.583391 
L 136.157306 161.436632 
L 137.825576 132.37544 
L 138.659711 121.265714 
L 139.215801 116.060572 
L 139.771892 113.018286 
L 140.049937 112.379068 
L 140.327982 112.346123 
L 140.606027 112.919951 
L 140.884072 114.09023 
L 141.440162 118.12784 
L 141.996252 124.18762 
L 142.830387 136.231639 
L 144.220613 160.726029 
L 146.723018 205.485723 
L 147.835199 222.058262 
L 148.669334 231.646055 
L 149.225424 236.082352 
L 149.781514 238.481934 
L 150.059559 238.773615 
L 150.337604 238.379702 
L 150.61565 237.240083 
L 150.893695 235.29618 
L 151.449785 228.779125 
L 152.005875 218.459742 
L 152.561965 204.134882 
L 153.3961 175.368262 
L 154.508281 126.735746 
L 155.898506 64.417205 
L 156.732641 36.830542 
L 157.288731 25.864794 
L 157.566776 22.989337 
L 157.844821 21.927273 
L 158.122867 22.679608 
L 158.400912 25.202424 
L 158.957002 35.174473 
L 159.513092 50.711351 
L 160.347227 80.945855 
L 162.293543 154.278117 
L 163.127678 177.250408 
L 163.961813 193.247393 
L 164.517903 200.405031 
L 165.073993 205.23622 
L 165.630084 208.191848 
L 166.186174 209.688206 
L 166.464219 209.99877 
L 166.742264 210.063295 
L 167.020309 209.908647 
L 167.576399 209.027461 
L 168.132489 207.495727 
L 168.966624 204.205117 
L 170.078805 198.4516 
L 171.747075 189.245447 
L 172.303165 186.973544 
L 172.859256 185.623307 
L 173.137301 185.395432 
L 173.415346 185.515236 
L 173.693391 186.014257 
L 173.971436 186.918265 
L 174.527526 190.006928 
L 175.083616 194.828309 
L 175.917751 205.058648 
L 177.029932 222.77241 
L 179.254292 260.132814 
L 180.366473 274.798918 
L 181.200608 283.300023 
L 182.034743 289.792702 
L 182.868878 294.52803 
L 183.703013 297.777292 
L 184.259104 299.246586 
L 184.815194 300.241925 
L 185.371284 300.832798 
L 185.927374 301.086612 
L 186.483464 301.062391 
L 187.039554 300.805982 
L 187.595644 300.347672 
L 188.42978 299.314581 
L 189.263915 297.879301 
L 190.09805 296.049367 
L 191.21023 293.069471 
L 193.434591 286.178734 
L 195.380907 280.40132 
L 197.049177 276.060556 
L 199.829628 269.105728 
L 200.663763 266.317238 
L 201.497898 262.703445 
L 202.332033 257.958648 
L 203.166169 251.850154 
L 204.278349 241.479381 
L 205.946619 222.615417 
L 207.0588 210.654827 
L 207.892935 204.065884 
L 208.449025 201.494634 
L 208.72707 200.86196 
L 209.005115 200.695519 
L 209.28316 201.007563 
L 209.561205 201.801286 
L 210.117296 204.797367 
L 210.673386 209.520903 
L 211.507521 219.185459 
L 213.175791 242.856424 
L 214.566017 261.145452 
L 215.400152 269.913119 
L 216.234287 276.677822 
L 217.068422 281.346445 
L 217.624513 283.261886 
L 218.180603 284.193605 
L 218.458648 284.283149 
L 218.736693 284.117574 
L 219.014738 283.693433 
L 219.570828 282.055965 
L 220.126918 279.349053 
L 220.683008 275.563355 
L 221.517144 267.882875 
L 222.351279 257.921359 
L 223.463459 241.690208 
L 225.965865 202.659563 
L 226.8 193.335474 
L 227.35609 189.186199 
L 227.91218 186.914396 
L 228.190225 186.500681 
L 228.46827 186.560346 
L 228.746316 187.076552 
L 229.024361 188.024621 
L 229.580451 191.082769 
L 230.414586 197.939608 
L 233.473082 226.801621 
L 234.029172 229.93457 
L 234.585262 231.938894 
L 234.863307 232.497206 
L 235.141352 232.755848 
L 235.419397 232.716093 
L 235.697442 232.381529 
L 235.975487 231.757605 
L 236.531578 229.666724 
L 237.087668 226.496753 
L 237.921803 219.831888 
L 238.755938 211.007856 
L 239.868119 196.226074 
L 242.648569 155.425516 
L 243.204659 150.087986 
L 243.76075 146.839813 
L 244.038795 146.101902 
L 244.31684 145.986987 
L 244.594885 146.503768 
L 244.87293 147.647959 
L 245.42902 151.741237 
L 245.98511 158.006357 
L 246.819245 170.598737 
L 248.209471 196.314558 
L 250.711876 243.047556 
L 252.102102 265.220797 
L 253.214282 279.804748 
L 254.048417 288.318117 
L 254.882553 294.320076 
L 255.438643 296.742616 
L 255.716688 297.437227 
L 255.994733 297.766769 
L 256.272778 297.714812 
L 256.550823 297.264236 
L 256.828868 296.39746 
L 257.384958 293.345744 
L 257.941048 288.431889 
L 258.497139 281.56929 
L 259.331274 267.64256 
L 260.443454 243.329308 
L 262.667815 191.232816 
L 263.223905 181.902357 
L 263.779995 175.408182 
L 264.336085 172.08083 
L 264.61413 171.626418 
L 264.892175 171.950657 
L 265.17022 173.009068 
L 265.72631 177.065488 
L 266.560446 186.664016 
L 268.228716 208.072374 
L 268.784806 213.063806 
L 269.340896 216.153002 
L 269.618942 216.922004 
L 269.896987 217.167351 
L 270.175032 216.898693 
L 270.453077 216.135544 
L 271.009167 213.243535 
L 271.565257 208.779252 
L 272.399392 199.864795 
L 273.789618 181.616227 
L 276.292023 147.927346 
L 277.126159 139.534415 
L 277.682249 135.740599 
L 277.960294 134.528229 
L 278.238339 133.828613 
L 278.516384 133.676653 
L 278.794429 134.099011 
L 279.072474 135.11316 
L 279.628564 138.933335 
L 280.184654 145.060402 
L 281.01879 158.000246 
L 282.13097 180.009512 
L 284.633376 231.681963 
L 285.745556 250.294648 
L 286.857736 265.041636 
L 287.691871 273.372069 
L 288.526007 279.160192 
L 289.082097 281.467296 
L 289.360142 282.115879 
L 289.638187 282.409415 
L 289.916232 282.334478 
L 290.194277 281.878556 
L 290.472322 281.030658 
L 291.028412 278.127378 
L 291.584502 273.600742 
L 292.418638 263.935531 
L 293.530818 246.994252 
L 295.199088 220.697628 
L 296.033224 211.348748 
L 296.589314 207.504226 
L 296.867359 206.355547 
L 297.145404 205.714993 
L 297.423449 205.559481 
L 297.701494 205.853995 
L 297.979539 206.552475 
L 298.535629 208.939107 
L 299.369764 214.056354 
L 300.75999 222.906861 
L 301.594125 226.892723 
L 302.42826 229.682176 
L 303.262396 231.590351 
L 304.096531 232.956436 
L 304.930666 233.904347 
L 305.486756 234.242334 
L 306.042846 234.237667 
L 306.598936 233.773131 
L 307.155027 232.743114 
L 307.711117 231.077043 
L 308.267207 228.754312 
L 309.101342 224.146303 
L 311.881793 207.018665 
L 312.437883 205.571 
L 312.715928 205.359246 
L 312.993973 205.52816 
L 313.272018 206.098839 
L 313.550063 207.084701 
L 314.106153 210.313187 
L 314.662244 215.150789 
L 315.496379 224.970541 
L 316.886604 245.332985 
L 318.554875 269.33576 
L 319.667055 282.128541 
L 320.50119 289.69701 
L 321.335325 295.665654 
L 322.169461 300.200289 
L 323.003596 303.403473 
L 323.559686 304.811056 
L 324.115776 305.627388 
L 324.393821 305.811251 
L 324.671866 305.845333 
L 324.949911 305.730497 
L 325.506002 305.06282 
L 326.062092 303.83749 
L 326.618182 302.105035 
L 327.452317 298.721821 
L 329.120587 290.469813 
L 330.510813 284.05632 
L 331.344948 281.101159 
L 332.179083 278.973259 
L 333.013219 277.606797 
L 333.847354 276.813237 
L 334.959534 276.221001 
L 336.071714 275.618138 
L 336.627805 275.127414 
L 337.183895 274.403632 
L 337.739985 273.359083 
L 338.296075 271.902193 
L 338.852165 269.942973 
L 339.6863 265.888948 
L 340.520436 260.321768 
L 341.354571 253.127481 
L 342.466751 240.980662 
L 343.578931 226.179963 
L 346.637427 183.009922 
L 347.193517 177.914317 
L 347.749607 174.677965 
L 348.027653 173.84901 
L 348.305698 173.578439 
L 348.583743 173.878346 
L 348.861788 174.750198 
L 349.417878 178.163691 
L 349.973968 183.629768 
L 350.808103 194.947323 
L 352.198329 218.541819 
L 354.144644 251.229221 
L 355.256825 266.02693 
L 356.09096 274.374518 
L 356.64705 278.372912 
L 357.20314 280.926528 
L 357.481185 281.603264 
L 357.75923 281.845585 
L 358.037275 281.625569 
L 358.31532 280.91396 
L 358.593365 279.680608 
L 359.149456 275.527396 
L 359.705546 268.931838 
L 360.261636 259.695586 
L 361.095771 240.646414 
L 361.929906 215.522787 
L 363.042087 174.599821 
L 364.988402 101.084422 
L 365.822537 78.650943 
L 366.378628 69.292054 
L 366.656673 66.52681 
L 366.934718 65.086564 
L 367.212763 64.975316 
L 367.490808 66.170832 
L 367.768853 68.625398 
L 368.324943 77.004164 
L 368.881033 89.300692 
L 369.993213 121.34229 
L 371.661484 171.321865 
L 372.495619 190.932118 
L 373.329754 205.071749 
L 373.885845 211.366824 
L 374.441935 215.309752 
L 374.71998 216.470626 
L 374.998025 217.135613 
L 375.27607 217.339149 
L 375.554115 217.115459 
L 375.83216 216.497402 
L 376.38825 214.199355 
L 376.94434 210.66242 
L 377.778476 203.412171 
L 378.890656 190.868081 
L 381.671107 156.631702 
L 382.227197 152.379634 
L 382.783287 149.999215 
L 383.061332 149.602987 
L 383.339377 149.765933 
L 383.617422 150.497014 
L 383.895467 151.794057 
L 384.451557 156.023792 
L 385.007648 162.236078 
L 385.841783 174.507454 
L 387.232008 199.406385 
L 389.456369 239.460368 
L 390.568549 256.343204 
L 391.402684 266.699762 
L 392.236819 274.36942 
L 392.79291 277.583795 
L 393.070955 278.514853 
L 393.349 278.944074 
L 393.627045 278.832696 
L 393.90509 278.142618 
L 394.183135 276.837403 
L 394.739225 272.25177 
L 395.295315 264.867459 
L 395.851405 254.595021 
L 396.685541 234.010368 
L 397.797721 199.111554 
L 399.744036 136.437166 
L 400.578172 117.843018 
L 401.134262 110.186805 
L 401.412307 107.914384 
L 401.690352 106.689229 
L 401.968397 106.493207 
L 402.246442 107.288813 
L 402.524487 109.021502 
L 403.080577 115.00728 
L 403.636668 123.764643 
L 404.748848 146.42768 
L 406.695163 187.5451 
L 407.529299 201.179196 
L 408.363434 211.018958 
L 408.919524 215.285981 
L 409.475614 217.708486 
L 409.753659 218.248369 
L 410.031704 218.359236 
L 410.309749 218.059012 
L 410.587794 217.368802 
L 411.143885 214.915609 
L 411.699975 211.214519 
L 412.53411 203.846364 
L 413.924335 188.859616 
L 415.314561 174.401239 
L 416.148696 168.197452 
L 416.704786 165.850338 
L 416.982831 165.334362 
L 417.260876 165.299101 
L 417.538921 165.767491 
L 417.816966 166.754417 
L 418.373056 170.297766 
L 418.929147 175.860208 
L 419.763282 187.476994 
L 420.875462 207.050791 
L 423.099823 247.406716 
L 424.212003 263.743421 
L 425.324183 276.770368 
L 426.436364 286.769125 
L 426.436364 286.769125 
" clip-path="url(#p6813804aab)" style="fill: none; stroke-dasharray: 11.1,4.8; stroke-dashoffset: 0; stroke: #000000; stroke-width: 3"/>
   </g>
   <g id="line2d_2">
    <path d="M 27.163636 245.603088 
L 31.612358 247.674353 
L 36.617169 250.114488 
L 39.119575 250.949591 
L 41.06589 251.347566 
L 42.734161 251.484649 
L 44.402431 251.413185 
L 46.070701 251.11573 
L 47.738972 250.57558 
L 49.407242 249.778126 
L 51.353558 248.596193 
L 52.465738 248.848327 
L 54.968144 250.496998 
L 55.524234 250.775161 
L 57.47055 251.052275 
L 59.416865 251.092685 
L 61.363181 250.911533 
L 63.587541 250.456516 
L 65.811902 249.765766 
L 68.314307 248.743141 
L 68.870398 248.41499 
L 70.538668 246.78441 
L 74.153254 244.175663 
L 76.09957 242.811376 
L 78.32393 240.932171 
L 80.826336 238.486327 
L 83.884832 235.149728 
L 86.665282 231.894954 
L 87.499418 230.758103 
L 88.889643 229.225355 
L 90.557913 227.048666 
L 91.114004 226.381866 
L 93.338364 224.497534 
L 95.28468 223.114466 
L 96.95295 222.167886 
L 98.621221 221.475971 
L 100.011446 221.11665 
L 101.401671 220.973966 
L 102.791897 221.065297 
L 104.182122 221.407576 
L 105.016257 221.790913 
L 106.406483 222.596859 
L 108.074753 223.325825 
L 109.186933 223.673347 
L 110.299114 223.827801 
L 111.411294 223.793036 
L 112.523474 223.573394 
L 113.9137 223.045569 
L 115.303925 222.243175 
L 116.69415 221.173353 
L 118.084376 219.844039 
L 119.752646 217.916127 
L 121.420917 215.636839 
L 121.698962 215.223685 
L 121.977007 215.018934 
L 125.035503 220.105723 
L 126.703773 222.267687 
L 128.372044 224.070905 
L 130.040314 225.53884 
L 131.708584 226.697139 
L 133.376855 227.569897 
L 135.045125 228.182374 
L 136.713396 228.556356 
L 138.381666 228.709775 
L 139.493847 228.696243 
L 139.771892 228.546613 
L 141.718207 226.423088 
L 146.723018 219.809159 
L 148.669334 217.82714 
L 150.337604 216.438902 
L 152.005875 215.353743 
L 153.3961 214.690927 
L 154.786326 214.256158 
L 156.176551 214.058368 
L 156.454596 214.047784 
L 156.732641 214.236572 
L 158.678957 218.148733 
L 159.235047 218.677248 
L 160.903317 219.790163 
L 162.571588 220.659139 
L 164.517903 221.427537 
L 167.020309 222.14103 
L 174.249481 223.868693 
L 174.527526 223.805267 
L 176.473841 222.249316 
L 178.976247 219.761682 
L 180.922563 218.102392 
L 182.590833 216.932674 
L 184.259104 216.04381 
L 185.649329 215.550009 
L 187.039554 215.308415 
L 188.151735 215.31421 
L 189.263915 215.511411 
L 190.376095 215.91332 
L 191.488276 216.533383 
L 192.044366 216.929482 
L 192.600456 217.918859 
L 193.156546 218.949797 
L 194.824816 217.437174 
L 202.610079 210.709919 
L 210.395341 204.148328 
L 210.673386 204.211401 
L 213.175791 207.657192 
L 215.678197 210.702829 
L 218.180603 213.413715 
L 220.961053 216.117553 
L 224.575639 219.307039 
L 227.35609 221.680815 
L 228.190225 224.109424 
L 229.858496 221.969649 
L 232.916992 217.556756 
L 235.419397 214.115717 
L 237.087668 212.225648 
L 238.199848 211.247681 
L 239.312028 210.555241 
L 240.146164 210.25368 
L 240.980299 210.162363 
L 241.814434 210.301553 
L 242.648569 210.692475 
L 243.482704 211.355449 
L 244.31684 212.307128 
L 245.42902 213.650505 
L 245.98511 214.226779 
L 248.765561 215.986374 
L 252.102102 217.795287 
L 257.663003 220.482811 
L 261.555634 222.44651 
L 262.38977 223.497386 
L 263.50195 225.329703 
L 263.779995 225.32549 
L 266.004356 224.424905 
L 268.784806 223.559546 
L 275.179843 221.673121 
L 277.404204 220.753396 
L 279.072474 219.885038 
L 279.906609 218.962847 
L 280.462699 219.084708 
L 282.13097 219.6584 
L 284.35533 219.721481 
L 286.301646 219.569349 
L 288.247962 219.215341 
L 290.194277 218.651694 
L 292.140593 217.870188 
L 294.086908 216.862065 
L 296.033224 215.618288 
L 296.867359 215.158598 
L 299.369764 218.442406 
L 300.481945 219.731432 
L 302.98435 222.249172 
L 305.764801 224.692873 
L 309.101342 227.287837 
L 314.384199 231.123565 
L 314.662244 231.182978 
L 314.940289 230.888262 
L 316.608559 228.019205 
L 317.442694 226.839852 
L 318.554875 225.879013 
L 321.891416 223.286645 
L 323.837731 222.030191 
L 325.506002 221.195642 
L 326.896227 220.71797 
L 328.286452 220.476311 
L 329.398633 220.477044 
L 330.510813 220.670269 
L 331.622993 221.075816 
L 332.179083 221.467277 
L 333.013219 222.398399 
L 334.681489 224.655915 
L 335.793669 226.141035 
L 336.627805 226.87136 
L 337.46194 227.344784 
L 338.296075 227.584997 
L 339.13021 227.616002 
L 339.964345 227.462 
L 341.076526 227.010888 
L 342.466751 226.133535 
L 344.135022 224.771312 
L 348.583743 220.942199 
L 350.252013 219.779413 
L 351.364193 217.893434 
L 352.476374 216.172343 
L 352.754419 216.024684 
L 353.588554 216.582392 
L 354.978779 217.418321 
L 356.369005 218.029755 
L 358.037275 218.51753 
L 359.983591 218.824865 
L 362.485996 218.958403 
L 367.212763 219.033844 
L 369.715168 220.809063 
L 371.939529 222.461911 
L 373.885845 223.629709 
L 375.554115 224.360854 
L 376.94434 224.747814 
L 378.334566 224.905217 
L 379.724791 224.812225 
L 380.836971 224.541755 
L 381.949152 224.084006 
L 383.339377 223.237162 
L 384.173512 222.584103 
L 384.451557 222.304911 
L 384.729602 221.788863 
L 385.563738 219.244426 
L 385.841783 218.854957 
L 388.066143 218.067317 
L 390.568549 216.929021 
L 393.627045 215.281667 
L 399.187946 212.223951 
L 401.134262 211.37262 
L 401.412307 211.379091 
L 402.524487 212.327031 
L 404.470803 213.297318 
L 406.417118 214.027579 
L 408.085389 214.442028 
L 409.753659 214.641918 
L 411.42193 214.617183 
L 413.0902 214.355988 
L 414.75847 213.84473 
L 416.426741 213.075541 
L 418.095011 212.046034 
L 418.373056 211.798688 
L 418.929147 210.829623 
L 426.436364 212.363485 
L 426.436364 212.363485 
" clip-path="url(#p6813804aab)" style="fill: none; stroke: #ff00ff; stroke-width: 3; stroke-linecap: square"/>
   </g>
   <g id="patch_3">
    <path d="M 7.2 331.2 
L 7.2 7.2 
" style="fill: none; stroke: #000000; stroke-width: 0.8; stroke-linejoin: miter; stroke-linecap: square"/>
   </g>
   <g id="patch_4">
    <path d="M 446.4 331.2 
L 446.4 7.2 
" style="fill: none; stroke: #000000; stroke-width: 0.8; stroke-linejoin: miter; stroke-linecap: square"/>
   </g>
   <g id="patch_5">
    <path d="M 7.2 331.2 
L 446.4 331.2 
" style="fill: none; stroke: #000000; stroke-width: 0.8; stroke-linejoin: miter; stroke-linecap: square"/>
   </g>
   <g id="patch_6">
    <path d="M 7.2 7.2 
L 446.4 7.2 
" style="fill: none; stroke: #000000; stroke-width: 0.8; stroke-linejoin: miter; stroke-linecap: square"/>
   </g>
  </g>
 </g>
 <defs>
  <clipPath id="p6813804aab">
   <rect x="7.2" y="7.2" width="439.2" height="324"/>
  </clipPath>
 </defs>
</svg>
