<?xml version="1.0" encoding="utf-8" standalone="no"?>
<!DOCTYPE svg PUBLIC "-//W3C//DTD SVG 1.1//EN"
  "http://www.w3.org/Graphics/SVG/1.1/DTD/svg11.dtd">
<svg xmlns:xlink="http://www.w3.org/1999/xlink" width="453.6pt" height="338.4pt" viewBox="0 0 453.6 338.4" xmlns="http://www.w3.org/2000/svg" version="1.1">
 <metadata>
  <rdf:RDF xmlns:dc="http://purl.org/dc/elements/1.1/" xmlns:cc="http://creativecommons.org/ns#" xmlns:rdf="http://www.w3.org/1999/02/22-rdf-syntax-ns#">
   <cc:Work>
    <dc:type rdf:resource="http://purl.org/dc/dcmitype/StillImage"/>
    <dc:date>2025-05-15T18:04:11.003270</dc:date>
    <dc:format>image/svg+xml</dc:format>
    <dc:creator>
     <cc:Agent>
      <dc:title>Matplotlib v3.10.1, https://matplotlib.org/</dc:title>
     </cc:Agent>
    </dc:creator>
   </cc:Work>
  </rdf:RDF>
 </metadata>
 <defs>
  <style type="text/css">*{stroke-linejoin: round; stroke-linecap: butt}</style>
 </defs>
 <g id="figure_1">
  <g id="patch_1">
   <path d="M 0 338.4 
L 453.6 338.4 
L 453.6 0 
L 0 0 
z
" style="fill: #ffffff"/>
  </g>
  <g id="axes_1">
   <g id="patch_2">
    <path d="M 7.2 331.2 
L 446.4 331.2 
L 446.4 7.2 
L 7.2 7.2 
z
" style="fill: #ffffff"/>
   </g>
   <g id="matplotlib.axis_1"/>
   <g id="matplotlib.axis_2"/>
   <g id="line2d_1">
    <path d="M 27.163636 211.270061 
L 29.109952 207.634219 
L 30.222132 205.968781 
L 31.334312 204.652566 
L 32.724538 203.358627 
L 37.173259 199.605797 
L 38.007394 198.470895 
L 38.84153 196.996213 
L 39.95371 194.486843 
L 41.900025 189.238964 
L 43.568296 184.973908 
L 45.236566 181.348943 
L 48.573107 174.766223 
L 49.685287 172.931346 
L 50.519423 171.884175 
L 51.353558 171.218896 
L 51.909648 171.023929 
L 52.465738 171.049576 
L 53.021828 171.312493 
L 53.577918 171.82897 
L 54.134009 172.613683 
L 54.968144 174.318123 
L 55.802279 176.6627 
L 56.914459 180.695458 
L 60.251 194.253737 
L 60.80709 195.632796 
L 61.363181 196.434133 
L 61.641226 196.58333 
L 61.919271 196.548643 
L 62.197316 196.319582 
L 62.475361 195.887425 
L 63.031451 194.38833 
L 63.587541 192.02071 
L 64.143631 188.787492 
L 64.977767 182.407227 
L 66.089947 171.500304 
L 68.036262 148.913713 
L 69.426488 133.530445 
L 70.538668 123.747191 
L 71.372803 118.484834 
L 71.928893 116.008141 
L 72.484984 114.270803 
L 73.041074 113.116927 
L 73.875209 112.00331 
L 74.709344 110.902248 
L 75.265434 109.832074 
L 76.09957 107.511418 
L 77.76784 102.238675 
L 78.045885 101.801831 
L 78.32393 101.649293 
L 78.601975 101.841078 
L 78.88002 102.431616 
L 79.158065 103.468005 
L 79.714155 107.013005 
L 80.270246 112.614983 
L 81.104381 124.597986 
L 82.494606 150.326897 
L 83.606787 170.23654 
L 84.440922 181.835719 
L 85.275057 189.793215 
L 85.831147 193.294638 
L 86.387237 195.763312 
L 88.611598 203.852924 
L 89.445733 208.749498 
L 90.279868 215.010819 
L 91.670094 227.519829 
L 95.006635 258.911731 
L 95.84077 264.722299 
L 96.39686 267.593221 
L 96.95295 269.55322 
L 97.50904 270.597513 
L 97.787085 270.799019 
L 98.06513 270.809535 
L 98.343175 270.651634 
L 98.899266 269.937142 
L 100.011446 267.732603 
L 100.845581 266.248264 
L 101.401671 265.629902 
L 101.957761 265.397786 
L 102.513852 265.571064 
L 103.069942 266.134751 
L 103.626032 267.054873 
L 104.460167 269.00741 
L 105.572347 272.403723 
L 107.796708 279.60294 
L 108.630843 281.496738 
L 109.186933 282.361065 
L 109.743024 282.933452 
L 110.577159 283.426838 
L 111.689339 284.054003 
L 112.245429 284.639838 
L 112.801519 285.530703 
L 113.35761 286.765395 
L 114.191745 289.232852 
L 115.303925 293.35063 
L 117.806331 303.014342 
L 119.196556 307.375388 
L 120.308736 310.18142 
L 121.420917 312.385771 
L 122.533097 314.009051 
L 123.367232 314.875505 
L 124.201367 315.482313 
L 125.313548 315.969482 
L 126.425728 316.192511 
L 127.815953 316.2384 
L 129.762269 316.056562 
L 134.21099 315.505829 
L 136.157306 315.574802 
L 141.718207 316.159148 
L 145.610838 316.452687 
L 148.669334 316.440626 
L 153.118055 316.174973 
L 157.566776 315.747059 
L 160.069182 315.237284 
L 163.405723 314.532004 
L 165.630084 314.303182 
L 174.805571 313.843738 
L 177.864067 313.994169 
L 180.644518 314.319445 
L 182.868878 314.835921 
L 186.205419 315.673695 
L 187.595644 315.779597 
L 188.98587 315.659699 
L 190.376095 315.314964 
L 191.766321 314.754247 
L 193.156546 313.945319 
L 194.268726 313.056103 
L 195.380907 311.879144 
L 196.493087 310.351145 
L 197.605267 308.426437 
L 198.717447 306.079915 
L 200.107673 302.551742 
L 201.497898 298.418934 
L 203.444214 291.837692 
L 205.390529 284.504343 
L 207.336845 276.323739 
L 209.83925 264.669303 
L 212.063611 253.437652 
L 213.453836 245.439049 
L 214.844062 235.957864 
L 216.234287 224.552963 
L 217.624513 211.243962 
L 219.570828 190.120092 
L 221.239099 169.77663 
L 222.629324 150.08111 
L 224.019549 126.506701 
L 225.68782 93.192592 
L 227.634135 54.003123 
L 228.46827 40.375461 
L 229.302406 30.172035 
L 229.858496 25.585532 
L 230.414586 22.850482 
L 230.692631 22.168009 
L 230.970676 21.927273 
L 231.248721 22.111459 
L 231.526766 22.700967 
L 232.082856 25.008372 
L 232.638947 28.670779 
L 233.473082 36.358392 
L 234.307217 46.353854 
L 235.419397 62.971883 
L 236.809623 88.384082 
L 239.033983 131.23808 
L 239.868119 143.488401 
L 240.424209 149.493596 
L 240.980299 153.649066 
L 241.536389 156.097547 
L 242.092479 157.199954 
L 242.648569 157.49531 
L 243.204659 157.630608 
L 243.482704 157.84804 
L 243.76075 158.271411 
L 244.038795 158.971742 
L 244.594885 161.435484 
L 245.150975 165.57889 
L 245.707065 171.521772 
L 246.5412 183.534966 
L 247.931426 208.761965 
L 249.599696 238.604606 
L 250.433831 250.409351 
L 251.267967 259.244152 
L 251.824057 263.339366 
L 252.380147 265.941027 
L 252.658192 266.669015 
L 252.936237 267.00828 
L 253.214282 266.953273 
L 253.492327 266.497958 
L 253.770372 265.635974 
L 254.326462 262.666203 
L 254.882553 257.996445 
L 255.438643 251.590656 
L 256.272778 238.712696 
L 257.106913 222.073318 
L 258.219093 195.008782 
L 261.277589 116.562266 
L 262.111724 101.947118 
L 262.667815 94.932843 
L 263.223905 90.113868 
L 263.779995 87.340884 
L 264.05804 86.647647 
L 264.336085 86.370244 
L 264.61413 86.472342 
L 264.892175 86.918558 
L 265.448265 88.712716 
L 266.004356 91.525452 
L 266.838491 97.297653 
L 267.950671 107.291737 
L 271.287212 139.93376 
L 272.121347 144.741241 
L 272.677437 146.873342 
L 273.233527 148.342031 
L 275.179843 152.492719 
L 275.735933 154.600471 
L 276.292023 157.468381 
L 277.126159 163.242355 
L 278.238339 173.139026 
L 280.462699 194.161914 
L 281.296835 200.189749 
L 281.852925 203.19731 
L 282.409015 205.293298 
L 282.965105 206.441373 
L 283.24315 206.661219 
L 283.521195 206.650858 
L 283.79924 206.418045 
L 284.35533 205.328223 
L 284.911421 203.498373 
L 285.745556 199.660258 
L 287.135781 191.593246 
L 289.082097 180.333783 
L 289.916232 176.480731 
L 290.750367 173.575094 
L 291.306457 172.260368 
L 291.862547 171.491439 
L 292.140593 171.318335 
L 292.418638 171.286482 
L 292.696683 171.393868 
L 293.252773 172.008375 
L 293.808863 173.105558 
L 294.642998 175.46163 
L 298.257584 187.066303 
L 299.091719 188.704375 
L 299.925855 189.864735 
L 300.75999 190.640971 
L 301.87217 191.286056 
L 303.818486 192.235562 
L 304.930666 193.124835 
L 306.320891 194.640244 
L 307.711117 196.11886 
L 308.545252 196.739415 
L 309.379387 197.098557 
L 310.491567 197.273742 
L 312.437883 197.507679 
L 313.828108 198.000733 
L 316.330514 198.993617 
L 319.110965 199.891472 
L 320.50119 200.65885 
L 321.891416 201.416681 
L 322.725551 201.63025 
L 323.281641 201.596924 
L 323.837731 201.397034 
L 324.671866 200.774595 
L 325.506002 199.801492 
L 326.618182 198.108848 
L 328.842542 194.146874 
L 332.179083 187.752036 
L 333.847354 184.720712 
L 334.959534 183.056612 
L 336.349759 181.418555 
L 340.520436 177.263196 
L 341.354571 176.67725 
L 342.188706 176.349011 
L 343.022841 176.284086 
L 344.135022 176.482251 
L 346.081337 176.877061 
L 347.193517 176.850876 
L 348.861788 176.537535 
L 351.364193 176.067714 
L 353.032464 175.99378 
L 354.978779 175.965964 
L 355.812915 175.740457 
L 356.64705 175.216603 
L 357.481185 174.290148 
L 358.31532 172.904765 
L 359.149456 171.074226 
L 360.539681 167.307947 
L 362.485996 161.894857 
L 363.320132 160.052713 
L 364.154267 158.710788 
L 364.710357 158.138362 
L 365.266447 157.843544 
L 365.822537 157.838003 
L 366.378628 158.132314 
L 366.934718 158.738889 
L 367.490808 159.675033 
L 368.046898 160.964143 
L 368.881033 163.626653 
L 369.715168 167.271772 
L 370.549304 172.020803 
L 371.383439 177.953379 
L 372.495619 187.659429 
L 373.885845 202.003458 
L 376.38825 228.262747 
L 377.50043 237.557252 
L 378.334566 242.964763 
L 379.168701 246.909401 
L 379.724791 248.712868 
L 380.280881 249.864298 
L 380.836971 250.386396 
L 381.115016 250.423489 
L 381.393062 250.32067 
L 381.949152 249.73379 
L 382.505242 248.724377 
L 383.617422 246.005159 
L 384.451557 244.065215 
L 385.007648 243.190514 
L 385.285693 242.948416 
L 385.563738 242.862791 
L 385.841783 242.949532 
L 386.119828 243.221006 
L 386.675918 244.347399 
L 387.232008 246.259218 
L 387.788098 248.909078 
L 388.622233 254.033743 
L 390.012459 264.416281 
L 392.79291 285.429851 
L 394.46118 296.117846 
L 395.57336 302.012228 
L 396.685541 306.626863 
L 397.519676 309.18967 
L 398.353811 311.048567 
L 399.187946 312.33858 
L 400.022082 313.218334 
L 401.134262 313.983608 
L 402.246442 314.448152 
L 403.358622 314.66457 
L 404.470803 314.632988 
L 405.582983 314.377757 
L 407.251253 313.73137 
L 410.587794 312.395973 
L 412.256065 312.00425 
L 413.64629 311.927323 
L 415.036516 312.089924 
L 416.982831 312.58252 
L 419.485237 313.187927 
L 420.597417 313.238478 
L 421.709597 313.038549 
L 422.821778 312.559268 
L 424.212003 311.664903 
L 426.436364 310.211434 
L 426.436364 310.211434 
" clip-path="url(#p4780e9316e)" style="fill: none; stroke-dasharray: 11.1,4.8; stroke-dashoffset: 0; stroke: #000000; stroke-width: 3"/>
   </g>
   <g id="line2d_2">
    <path d="M 27.163636 224.587809 
L 27.441681 228.954101 
L 27.719727 224.497315 
L 27.997772 207.443233 
L 28.553862 202.527368 
L 28.831907 242.709706 
L 29.387997 222.106952 
L 29.666042 243.980175 
L 29.944087 211.928017 
L 30.500177 215.314075 
L 30.778222 237.698455 
L 31.056267 213.958265 
L 31.334312 239.806579 
L 31.612358 227.758104 
L 31.890403 229.689514 
L 32.446493 219.509828 
L 32.724538 205.787453 
L 33.002583 229.652175 
L 33.558673 249.384345 
L 33.836718 243.286842 
L 34.114763 229.695578 
L 34.392808 207.483066 
L 34.670853 202.291492 
L 34.948898 205.517214 
L 35.226944 236.206279 
L 35.504989 225.451902 
L 35.783034 242.380328 
L 36.061079 244.614654 
L 36.339124 226.280477 
L 36.617169 235.307451 
L 36.895214 238.130858 
L 37.173259 221.523048 
L 37.451304 230.169301 
L 37.729349 221.96134 
L 38.007394 262.758371 
L 38.285439 244.09095 
L 38.563484 262.430418 
L 38.84153 210.959767 
L 39.119575 208.777172 
L 39.39762 200.484479 
L 39.675665 241.849523 
L 39.95371 210.244824 
L 40.231755 241.837357 
L 40.787845 227.567213 
L 41.06589 216.124633 
L 41.343935 213.88631 
L 41.62198 194.4676 
L 41.900025 205.434786 
L 42.17807 236.431113 
L 42.456115 223.704385 
L 42.734161 199.784624 
L 43.012206 214.110471 
L 43.290251 211.465835 
L 43.568296 217.128869 
L 44.124386 213.997931 
L 44.402431 240.311332 
L 44.680476 222.622163 
L 44.958521 218.032391 
L 45.236566 222.084962 
L 45.514611 238.629928 
L 45.792656 192.368033 
L 46.070701 188.460472 
L 46.348747 206.060937 
L 46.626792 237.336955 
L 46.904837 220.341854 
L 47.182882 213.506452 
L 47.460927 215.98047 
L 47.738972 200.225402 
L 48.017017 209.880387 
L 48.295062 209.764982 
L 48.573107 219.378076 
L 48.851152 215.11549 
L 49.129197 227.754328 
L 49.407242 219.00824 
L 49.685287 235.12674 
L 49.963332 258.034255 
L 50.241378 189.747573 
L 50.519423 189.303739 
L 50.797468 218.464905 
L 51.075513 201.238614 
L 51.353558 273.088605 
L 51.631603 245.110241 
L 51.909648 251.736458 
L 52.187693 195.948876 
L 52.465738 200.06714 
L 52.743783 195.905291 
L 53.021828 213.855422 
L 53.299873 205.336321 
L 53.577918 235.554307 
L 53.855964 225.261764 
L 54.134009 227.938751 
L 54.412054 241.963258 
L 54.968144 208.162878 
L 55.246189 216.994766 
L 55.524234 242.821233 
L 56.080324 227.498963 
L 56.358369 240.812769 
L 56.636414 206.364462 
L 56.914459 206.601756 
L 57.192504 205.751887 
L 57.47055 224.660215 
L 57.748595 204.540644 
L 58.02664 235.534256 
L 58.304685 225.478238 
L 58.58273 220.712687 
L 58.860775 225.581271 
L 59.13882 206.110308 
L 59.416865 198.035492 
L 59.69491 207.997817 
L 59.972955 229.253106 
L 60.251 229.77491 
L 60.529045 231.223676 
L 60.80709 229.655951 
L 61.085135 209.939558 
L 61.363181 213.290833 
L 61.641226 210.800311 
L 61.919271 224.212931 
L 62.197316 202.337554 
L 62.475361 234.647998 
L 62.753406 225.347287 
L 63.031451 221.382494 
L 63.309496 232.899436 
L 63.587541 211.204383 
L 63.865586 205.454291 
L 64.143631 217.552018 
L 64.421676 223.973516 
L 64.699721 244.58717 
L 64.977767 228.592933 
L 65.255812 239.297479 
L 65.533857 206.103137 
L 65.811902 204.214068 
L 66.089947 203.298387 
L 66.367992 222.513225 
L 66.646037 196.901539 
L 66.924082 234.72331 
L 67.202127 224.451482 
L 67.480172 223.175939 
L 67.758217 224.429635 
L 68.036262 218.967497 
L 68.314307 203.38904 
L 68.592352 230.841238 
L 68.870398 236.342368 
L 69.148443 235.941384 
L 69.704533 224.189808 
L 69.982578 207.067627 
L 70.260623 201.840178 
L 70.538668 206.391986 
L 70.816713 220.608958 
L 71.094758 225.275047 
L 71.372803 241.093893 
L 71.650848 246.284335 
L 72.206938 215.146267 
L 72.484984 243.948836 
L 72.763029 223.07369 
L 73.041074 228.13322 
L 73.319119 220.029954 
L 73.597164 262.579121 
L 73.875209 237.553017 
L 74.153254 261.988714 
L 74.431299 197.834255 
L 74.709344 199.865959 
L 74.987389 191.01349 
L 75.265434 207.171862 
L 75.543479 207.928696 
L 75.821524 237.001014 
L 76.09957 240.773863 
L 76.377615 223.358669 
L 76.65566 229.379332 
L 76.933705 206.357544 
L 77.21175 194.4616 
L 77.489795 201.079307 
L 77.76784 242.77616 
L 78.045885 222.651546 
L 78.32393 186.307284 
L 78.601975 209.84676 
L 78.88002 198.817894 
L 79.158065 200.774421 
L 79.43611 201.197238 
L 79.714155 196.036947 
L 79.992201 219.443809 
L 80.270246 217.80956 
L 80.826336 222.93905 
L 81.104381 229.917403 
L 81.660471 198.675749 
L 81.938516 226.615753 
L 82.216561 189.324819 
L 82.494606 245.970551 
L 82.772651 208.681556 
L 83.050696 246.20429 
L 83.328741 194.191448 
L 83.606787 194.189841 
L 83.884832 197.520875 
L 84.162877 215.984919 
L 84.440922 195.826172 
L 84.718967 223.887146 
L 85.275057 231.090262 
L 85.831147 219.916108 
L 86.109192 205.378671 
L 86.387237 226.172774 
L 86.665282 236.788767 
L 86.943327 255.933351 
L 88.055508 207.979033 
L 88.333553 208.135529 
L 88.611598 214.503207 
L 88.889643 211.016524 
L 89.167688 236.846283 
L 89.445733 245.350091 
L 90.001823 224.504423 
L 90.279868 236.732263 
L 90.557913 227.265865 
L 90.835958 221.794933 
L 91.114004 225.508042 
L 91.392049 242.562638 
L 91.670094 242.683592 
L 91.948139 231.98119 
L 92.226184 206.034087 
L 92.504229 209.600728 
L 92.782274 205.713828 
L 93.060319 207.843759 
L 93.338364 202.861306 
L 93.616409 242.796543 
L 93.894454 242.634149 
L 94.172499 226.749934 
L 94.450544 236.880108 
L 94.72859 227.666439 
L 95.006635 211.169244 
L 95.28468 225.798331 
L 95.562725 215.53218 
L 95.84077 234.387385 
L 96.118815 234.528271 
L 96.39686 236.648157 
L 96.674905 210.98733 
L 96.95295 214.383037 
L 97.230995 222.124961 
L 97.50904 234.493315 
L 97.787085 211.591531 
L 98.06513 230.212094 
L 98.343175 233.152181 
L 98.621221 224.595511 
L 98.899266 238.109082 
L 99.177311 240.275197 
L 99.455356 230.909694 
L 99.733401 214.862207 
L 100.011446 254.820316 
L 100.289491 247.99855 
L 100.567536 246.315475 
L 100.845581 241.831143 
L 101.123626 219.318177 
L 101.401671 216.784585 
L 101.679716 213.111151 
L 101.957761 223.652608 
L 102.235807 211.043834 
L 102.513852 238.500702 
L 102.791897 243.52389 
L 103.069942 225.391908 
L 103.626032 234.82301 
L 103.904077 231.814918 
L 104.182122 214.771903 
L 104.460167 255.996931 
L 104.738212 253.471524 
L 105.016257 229.490581 
L 105.294302 249.601112 
L 105.572347 237.08835 
L 106.128438 225.82515 
L 106.406483 225.464037 
L 106.684528 205.703299 
L 106.962573 225.988739 
L 107.518663 246.9938 
L 107.796708 214.201756 
L 108.074753 260.104114 
L 108.352798 213.550298 
L 108.630843 237.63258 
L 108.908888 248.480308 
L 109.186933 236.6554 
L 109.464978 240.692528 
L 109.743024 227.367236 
L 110.021069 221.019474 
L 110.577159 212.906606 
L 110.855204 230.788138 
L 111.133249 206.622471 
L 111.411294 239.144403 
L 111.689339 240.435215 
L 111.967384 228.215861 
L 112.523474 236.474357 
L 112.801519 215.500453 
L 113.079564 221.763698 
L 113.35761 232.366692 
L 113.9137 210.374446 
L 114.191745 218.050107 
L 114.46979 208.750891 
L 115.02588 220.09875 
L 115.303925 217.051214 
L 115.58197 231.561366 
L 115.860015 220.892646 
L 116.13806 232.449215 
L 116.416105 227.544598 
L 116.69415 232.830829 
L 116.972195 235.250631 
L 117.528286 206.852474 
L 117.806331 221.73163 
L 118.084376 216.051166 
L 118.362421 244.272056 
L 118.640466 244.684289 
L 118.918511 210.958208 
L 119.196556 212.493391 
L 119.474601 209.303892 
L 119.752646 220.625138 
L 120.030691 221.860057 
L 120.308736 231.469059 
L 120.586781 246.88316 
L 120.864827 232.259559 
L 121.420917 216.96361 
L 121.698962 225.323001 
L 121.977007 207.542743 
L 122.533097 234.412541 
L 122.811142 237.839777 
L 123.089187 236.128459 
L 123.367232 210.956918 
L 123.645277 227.019239 
L 123.923322 216.186614 
L 124.201367 215.564191 
L 124.479413 213.94328 
L 124.757458 234.164364 
L 125.035503 234.931678 
L 125.313548 244.856578 
L 125.591593 213.434442 
L 126.147683 232.126628 
L 126.425728 213.273046 
L 126.703773 216.463123 
L 127.259863 241.383454 
L 127.537908 222.783662 
L 127.815953 230.843977 
L 128.093998 219.74496 
L 128.372044 214.449388 
L 128.650089 220.57891 
L 128.928134 216.715084 
L 129.484224 240.747266 
L 129.762269 228.021963 
L 130.040314 231.573501 
L 130.318359 243.649855 
L 130.596404 227.087735 
L 130.874449 228.835656 
L 131.152494 214.41402 
L 131.430539 231.84522 
L 131.708584 217.527566 
L 131.98663 219.49607 
L 132.264675 218.03433 
L 132.54272 219.401753 
L 132.820765 216.554907 
L 133.09881 225.015882 
L 133.376855 246.763726 
L 133.6549 220.734456 
L 133.932945 243.814679 
L 134.21099 227.053293 
L 134.489035 224.314712 
L 134.76708 229.402193 
L 135.045125 232.01188 
L 135.32317 208.403955 
L 135.601215 219.332972 
L 135.879261 215.641513 
L 136.157306 249.680619 
L 136.435351 243.894462 
L 136.713396 220.827158 
L 136.991441 218.299986 
L 137.269486 216.963127 
L 137.547531 228.651518 
L 137.825576 216.846938 
L 138.103621 239.207191 
L 138.381666 233.360091 
L 138.659711 230.807667 
L 138.937756 229.529614 
L 139.215801 217.592785 
L 139.493847 218.747666 
L 139.771892 205.291351 
L 140.049937 214.534665 
L 140.327982 242.79116 
L 140.606027 247.184192 
L 140.884072 247.106577 
L 141.162117 230.53142 
L 141.440162 205.424092 
L 141.718207 222.356586 
L 141.996252 211.063924 
L 142.274297 235.327914 
L 142.552342 236.681839 
L 142.830387 233.852029 
L 143.108433 240.457934 
L 143.386478 223.145194 
L 143.664523 252.828219 
L 143.942568 222.255224 
L 144.220613 214.348935 
L 144.498658 232.349404 
L 144.776703 221.387893 
L 145.054748 251.433574 
L 145.332793 253.904734 
L 145.610838 227.140565 
L 145.888883 211.525877 
L 146.444973 230.919723 
L 146.723018 229.388973 
L 147.001064 222.76574 
L 147.279109 231.673969 
L 147.557154 231.48216 
L 147.835199 230.312364 
L 148.113244 222.443486 
L 148.391289 237.43766 
L 148.669334 238.381498 
L 148.947379 213.827836 
L 149.225424 242.231581 
L 149.781514 213.447733 
L 150.059559 211.864714 
L 150.337604 233.315271 
L 150.61565 222.381046 
L 150.893695 224.947165 
L 151.17174 223.071141 
L 151.449785 216.474688 
L 151.72783 236.299805 
L 152.005875 240.859647 
L 152.28392 217.600629 
L 152.561965 233.937591 
L 152.84001 214.562331 
L 153.118055 210.738947 
L 153.3961 244.950309 
L 153.674145 248.013622 
L 153.95219 247.22252 
L 154.508281 253.753237 
L 154.786326 229.152812 
L 155.064371 223.126172 
L 155.620461 234.074187 
L 155.898506 229.051735 
L 156.176551 239.134429 
L 156.454596 240.51116 
L 156.732641 226.39327 
L 157.010686 241.704956 
L 157.288731 217.814143 
L 157.566776 215.986826 
L 157.844821 240.882255 
L 158.122867 236.852948 
L 158.400912 241.680306 
L 158.678957 251.832288 
L 158.957002 248.574894 
L 159.235047 221.357148 
L 159.791137 224.179874 
L 160.069182 233.142041 
L 160.347227 237.579528 
L 160.625272 233.155688 
L 160.903317 237.14642 
L 161.181362 211.855445 
L 161.459407 223.414079 
L 161.737453 242.952216 
L 162.015498 217.445819 
L 162.293543 234.534722 
L 162.571588 222.402308 
L 162.849633 249.795367 
L 163.127678 239.40637 
L 163.405723 220.163779 
L 163.683768 231.470531 
L 163.961813 224.947647 
L 164.239858 224.882144 
L 164.517903 243.361885 
L 164.795948 220.736799 
L 165.073993 241.954756 
L 165.352038 226.301644 
L 165.630084 227.374906 
L 165.908129 232.339659 
L 166.186174 220.050274 
L 166.464219 222.648586 
L 166.742264 228.223017 
L 167.020309 225.420366 
L 167.298354 220.215675 
L 167.576399 218.887436 
L 167.854444 231.193627 
L 168.410534 217.037749 
L 168.688579 215.310726 
L 168.966624 220.347102 
L 169.24467 217.811642 
L 169.522715 242.245846 
L 169.80076 234.314116 
L 170.078805 216.612851 
L 170.35685 210.561339 
L 170.634895 218.459419 
L 170.91294 203.944874 
L 171.190985 213.394594 
L 171.46903 235.441648 
L 171.747075 241.648785 
L 172.02512 240.86051 
L 172.303165 249.915854 
L 172.859256 216.844128 
L 173.137301 217.302431 
L 173.415346 232.647989 
L 173.693391 225.923338 
L 173.971436 232.253012 
L 174.249481 234.264586 
L 174.527526 221.760215 
L 174.805571 242.169806 
L 175.083616 223.149619 
L 175.361661 219.52915 
L 175.917751 251.047574 
L 176.195796 239.098427 
L 176.473841 240.87099 
L 176.751887 250.73892 
L 177.307977 225.245608 
L 177.586022 227.69788 
L 177.864067 231.407165 
L 178.142112 244.372619 
L 178.420157 240.337439 
L 178.698202 242.687043 
L 178.976247 227.634839 
L 179.254292 241.709935 
L 179.532337 236.102376 
L 179.810382 225.408049 
L 180.088427 239.477098 
L 180.366473 259.618247 
L 180.644518 241.000098 
L 180.922563 238.15793 
L 181.200608 237.052728 
L 181.478653 233.9153 
L 181.756698 243.480195 
L 182.034743 232.419807 
L 182.312788 243.017767 
L 182.590833 226.550811 
L 182.868878 235.841248 
L 183.146923 236.909578 
L 183.424968 221.985294 
L 183.703013 249.634945 
L 183.981058 248.063959 
L 184.259104 241.504638 
L 184.537149 223.389691 
L 184.815194 223.789211 
L 185.093239 253.802216 
L 185.371284 245.588999 
L 185.649329 241.712025 
L 185.927374 243.075561 
L 186.205419 224.990092 
L 186.483464 219.188254 
L 186.761509 235.365831 
L 187.039554 230.716619 
L 187.317599 243.398416 
L 187.595644 245.875355 
L 187.87369 231.220486 
L 188.151735 232.651092 
L 188.42978 248.097617 
L 188.707825 251.816345 
L 189.54196 223.695361 
L 189.820005 224.477803 
L 190.09805 217.303674 
L 190.376095 231.482476 
L 190.65414 235.914557 
L 190.932185 219.424083 
L 191.21023 224.151907 
L 191.488276 239.233575 
L 191.766321 241.810981 
L 192.044366 241.92185 
L 192.322411 240.910878 
L 192.600456 235.619185 
L 192.878501 244.106061 
L 193.156546 236.838059 
L 193.434591 237.799351 
L 193.712636 237.779221 
L 193.990681 216.777635 
L 194.268726 221.189704 
L 194.824816 242.418118 
L 195.380907 217.305851 
L 195.658952 233.062281 
L 195.936997 238.024905 
L 196.215042 238.719108 
L 196.493087 237.730253 
L 196.771132 226.091439 
L 197.327222 239.629375 
L 197.605267 227.860614 
L 197.883312 244.119581 
L 198.161357 243.581605 
L 198.439402 244.168461 
L 198.717447 238.423079 
L 198.995493 236.833547 
L 199.273538 227.361956 
L 199.551583 231.95016 
L 199.829628 203.209073 
L 200.107673 214.311486 
L 200.385718 214.945505 
L 200.941808 231.560938 
L 201.219853 202.812497 
L 201.497898 222.291407 
L 201.775943 230.405399 
L 202.053988 216.99532 
L 202.332033 229.251214 
L 202.888124 214.354762 
L 203.166169 238.613891 
L 203.722259 229.212941 
L 204.000304 208.351703 
L 204.278349 214.50806 
L 204.556394 231.86463 
L 204.834439 193.223483 
L 205.112484 233.522975 
L 205.390529 234.141804 
L 205.668574 206.356309 
L 205.946619 235.858916 
L 206.224664 236.154605 
L 206.50271 218.075841 
L 206.780755 245.849343 
L 207.0588 247.239326 
L 207.336845 245.507933 
L 207.61489 233.16977 
L 207.892935 229.053278 
L 208.17098 244.48124 
L 208.449025 243.31807 
L 208.72707 226.2407 
L 209.005115 248.967338 
L 209.28316 219.148382 
L 209.561205 225.550708 
L 209.83925 227.422536 
L 210.117296 218.363621 
L 210.395341 241.877981 
L 210.673386 219.167641 
L 210.951431 224.074783 
L 211.229476 253.582298 
L 211.507521 251.777043 
L 211.785566 241.500173 
L 212.063611 225.44815 
L 212.341656 227.911442 
L 212.619701 253.673734 
L 212.897746 231.390091 
L 213.175791 222.558409 
L 213.453836 244.81107 
L 213.731881 223.746292 
L 214.009927 229.425086 
L 214.287972 230.607887 
L 214.566017 228.745558 
L 215.122107 236.928109 
L 215.400152 237.204918 
L 215.678197 260.316393 
L 215.956242 260.833377 
L 216.512332 233.864227 
L 216.790377 231.106308 
L 217.068422 243.132222 
L 217.346467 240.086618 
L 217.624513 217.316973 
L 217.902558 224.685435 
L 218.180603 216.557139 
L 218.458648 226.911647 
L 218.736693 230.649366 
L 219.014738 224.544026 
L 219.292783 233.241147 
L 219.570828 223.271658 
L 219.848873 233.999073 
L 220.126918 225.441841 
L 220.404963 226.622624 
L 220.683008 239.00286 
L 221.239099 237.318321 
L 221.795189 232.642211 
L 222.073234 203.831163 
L 222.351279 202.845918 
L 222.907369 229.816461 
L 223.185414 231.417511 
L 223.463459 222.859044 
L 223.741504 231.304995 
L 224.297594 227.848661 
L 224.575639 240.033692 
L 225.13173 217.020026 
L 225.409775 219.599799 
L 225.68782 220.644223 
L 225.965865 202.466021 
L 226.24391 229.336278 
L 226.521955 216.904478 
L 227.078045 234.510286 
L 227.35609 230.914903 
L 227.634135 232.055765 
L 227.91218 237.155159 
L 228.190225 223.681809 
L 228.46827 230.864415 
L 228.746316 226.737293 
L 229.024361 239.933066 
L 229.302406 231.432923 
L 229.580451 195.627389 
L 229.858496 219.125197 
L 230.136541 224.964872 
L 230.692631 244.734658 
L 230.970676 221.341933 
L 231.248721 216.450568 
L 231.526766 215.670762 
L 231.804811 226.019706 
L 232.082856 224.346154 
L 232.360901 219.879505 
L 232.638947 207.629137 
L 232.916992 201.497137 
L 233.195037 222.844645 
L 233.473082 206.804156 
L 234.029172 227.311358 
L 234.307217 211.914901 
L 234.585262 203.668065 
L 234.863307 236.852315 
L 235.141352 233.989614 
L 235.419397 207.033351 
L 235.697442 236.52224 
L 235.975487 199.273332 
L 236.253533 230.386188 
L 236.531578 232.077415 
L 236.809623 202.126273 
L 237.365713 236.136351 
L 237.643758 225.181758 
L 237.921803 241.851858 
L 238.199848 243.237408 
L 238.477893 211.612421 
L 238.755938 236.475165 
L 239.033983 240.039194 
L 239.312028 213.551541 
L 239.590073 219.788544 
L 239.868119 180.500428 
L 240.146164 207.6774 
L 240.424209 200.680697 
L 240.702254 233.639575 
L 240.980299 233.446207 
L 241.258344 205.1016 
L 241.536389 219.572743 
L 241.814434 245.677934 
L 242.092479 204.26359 
L 242.370524 222.816972 
L 242.648569 216.783033 
L 242.926614 232.245397 
L 243.204659 193.4521 
L 243.482704 197.438811 
L 243.76075 241.197187 
L 244.038795 205.414181 
L 244.31684 231.43267 
L 244.87293 211.694073 
L 245.150975 225.64778 
L 245.42902 227.372389 
L 245.707065 217.157682 
L 245.98511 230.232169 
L 246.263155 230.021845 
L 246.5412 226.622442 
L 246.819245 235.312573 
L 247.09729 237.06104 
L 247.375336 240.289073 
L 247.653381 217.089646 
L 247.931426 223.429405 
L 248.209471 241.487809 
L 248.487516 235.708856 
L 248.765561 225.081829 
L 249.043606 224.660286 
L 249.321651 217.169295 
L 249.599696 230.473523 
L 249.877741 231.834945 
L 250.155786 224.906992 
L 250.711876 245.229707 
L 250.989921 235.832264 
L 251.267967 246.196936 
L 251.546012 241.375839 
L 251.824057 240.802851 
L 252.102102 211.22232 
L 252.380147 210.560286 
L 252.658192 244.861335 
L 252.936237 244.14701 
L 253.214282 230.275785 
L 253.770372 212.33114 
L 254.048417 234.529221 
L 254.326462 232.978721 
L 254.604507 223.166694 
L 255.160598 247.315357 
L 255.438643 231.441631 
L 255.716688 243.055431 
L 255.994733 242.33816 
L 256.272778 242.628711 
L 256.550823 204.047598 
L 256.828868 203.302844 
L 257.106913 240.547027 
L 257.384958 243.68098 
L 257.663003 239.12075 
L 257.941048 206.432966 
L 258.219093 234.624797 
L 258.497139 235.440327 
L 258.775184 236.671683 
L 259.053229 243.820046 
L 259.331274 228.174026 
L 259.609319 229.239317 
L 259.887364 241.298003 
L 260.443454 203.418312 
L 260.721499 223.371057 
L 260.999544 210.884219 
L 261.277589 209.670989 
L 261.555634 212.717821 
L 261.833679 246.706969 
L 262.38977 213.552348 
L 262.667815 238.355383 
L 262.94586 234.994388 
L 263.223905 237.243825 
L 263.50195 233.522405 
L 263.779995 208.790027 
L 264.05804 230.60271 
L 264.336085 240.376551 
L 264.61413 221.122775 
L 264.892175 214.760813 
L 265.17022 203.991799 
L 265.448265 216.180392 
L 265.72631 220.557331 
L 266.004356 236.572268 
L 266.282401 227.101762 
L 266.560446 230.933204 
L 266.838491 241.73392 
L 267.116536 211.622973 
L 267.394581 230.315135 
L 267.672626 230.51558 
L 267.950671 232.241653 
L 268.228716 197.843271 
L 268.506761 230.90443 
L 268.784806 224.082984 
L 269.062851 236.533694 
L 269.340896 235.00258 
L 269.618942 226.749143 
L 269.896987 201.965462 
L 270.175032 198.875188 
L 270.453077 233.842506 
L 270.731122 240.192682 
L 271.009167 212.057544 
L 271.287212 214.600351 
L 271.565257 223.62757 
L 271.843302 226.36923 
L 272.121347 224.639444 
L 272.399392 196.832743 
L 272.677437 230.749343 
L 272.955482 224.789386 
L 273.233527 224.826472 
L 273.511573 218.934963 
L 273.789618 247.252315 
L 274.067663 225.629882 
L 274.345708 236.144496 
L 274.623753 239.700316 
L 274.901798 209.731854 
L 275.179843 222.287916 
L 275.457888 195.122469 
L 275.735933 186.241234 
L 276.292023 207.210698 
L 276.570068 205.386523 
L 276.848113 211.667958 
L 277.126159 242.171825 
L 277.404204 247.392268 
L 277.682249 216.690553 
L 277.960294 240.012256 
L 278.238339 237.848658 
L 278.516384 229.670865 
L 278.794429 201.491937 
L 279.072474 199.181611 
L 279.350519 238.683495 
L 279.628564 237.322152 
L 279.906609 226.114221 
L 280.184654 225.390254 
L 280.462699 204.981446 
L 280.740744 238.513075 
L 281.01879 236.542813 
L 281.296835 210.194155 
L 281.57488 225.485584 
L 282.409015 243.306181 
L 282.68706 235.196986 
L 282.965105 233.560377 
L 283.24315 227.155099 
L 283.79924 234.4307 
L 284.077285 229.764454 
L 284.35533 222.483833 
L 284.633376 225.069227 
L 284.911421 222.201024 
L 285.189466 241.239291 
L 285.467511 238.322002 
L 285.745556 207.676862 
L 286.301646 240.022293 
L 286.579691 239.526461 
L 286.857736 244.221513 
L 287.135781 238.001585 
L 287.413826 226.921985 
L 287.691871 221.823739 
L 287.969916 221.764632 
L 288.247962 236.045429 
L 288.526007 238.448173 
L 288.804052 226.899457 
L 289.082097 231.479967 
L 289.360142 233.976925 
L 289.638187 248.413688 
L 289.916232 245.813271 
L 290.194277 212.890164 
L 290.750367 237.383001 
L 291.028412 238.673196 
L 291.306457 246.941405 
L 291.584502 234.992132 
L 291.862547 231.503762 
L 292.140593 208.332452 
L 292.418638 210.654659 
L 292.696683 247.393407 
L 292.974728 252.506139 
L 293.252773 242.78626 
L 293.530818 241.252708 
L 293.808863 241.850719 
L 294.086908 247.564152 
L 294.364953 242.709366 
L 294.642998 240.093813 
L 294.921043 221.609552 
L 295.199088 234.648236 
L 295.477133 239.636586 
L 296.033224 201.710944 
L 296.311269 217.736243 
L 296.589314 204.614285 
L 296.867359 204.086053 
L 297.145404 214.374884 
L 297.423449 239.258779 
L 297.701494 224.13188 
L 298.535629 239.041275 
L 298.813674 235.951001 
L 299.091719 230.177945 
L 299.369764 201.680468 
L 299.925855 225.092119 
L 300.2039 213.845646 
L 300.481945 213.066157 
L 300.75999 200.838048 
L 301.038035 217.337047 
L 301.31608 216.563028 
L 301.594125 236.608064 
L 301.87217 248.585644 
L 302.150215 242.919951 
L 302.42826 230.726632 
L 302.706305 230.555278 
L 302.98435 234.706298 
L 303.262396 231.092542 
L 303.540441 208.390491 
L 303.818486 197.850158 
L 304.096531 242.659393 
L 304.374576 245.270244 
L 304.652621 234.783114 
L 304.930666 234.34684 
L 305.208711 221.403455 
L 305.486756 217.674365 
L 305.764801 222.509742 
L 306.042846 239.009311 
L 306.320891 217.411456 
L 306.876982 210.501116 
L 307.155027 216.714997 
L 307.433072 201.067521 
L 307.711117 203.173515 
L 307.989162 216.130198 
L 308.267207 235.633877 
L 308.545252 245.691588 
L 308.823297 241.085763 
L 309.101342 222.315938 
L 309.379387 232.166817 
L 309.657432 218.148944 
L 309.935477 239.456968 
L 310.213522 233.577151 
L 310.491567 217.61179 
L 310.769613 225.101025 
L 311.325703 197.133964 
L 311.603748 219.134395 
L 311.881793 217.322142 
L 312.159838 198.702623 
L 312.437883 206.076999 
L 312.715928 245.379071 
L 312.993973 242.833692 
L 313.272018 218.842569 
L 313.550063 245.206822 
L 313.828108 238.482836 
L 314.106153 227.506174 
L 314.384199 211.550859 
L 314.662244 218.879259 
L 314.940289 234.78708 
L 315.218334 240.268634 
L 315.774424 209.15095 
L 316.052469 213.721431 
L 316.330514 193.813482 
L 316.608559 196.336546 
L 316.886604 187.589682 
L 317.164649 208.216516 
L 317.442694 215.105548 
L 317.998785 242.902275 
L 318.27683 236.116165 
L 318.554875 232.234751 
L 318.83292 221.629841 
L 319.110965 230.148372 
L 319.38901 219.517316 
L 319.667055 223.242234 
L 320.223145 199.96292 
L 320.50119 226.194108 
L 320.779235 192.92595 
L 321.05728 195.677505 
L 321.335325 193.667656 
L 321.61337 212.830384 
L 321.891416 219.195854 
L 322.169461 219.987485 
L 322.447506 227.530429 
L 322.725551 221.256316 
L 323.003596 219.89407 
L 323.559686 230.412524 
L 323.837731 226.555854 
L 324.115776 224.776879 
L 324.393821 195.779453 
L 325.227956 211.595813 
L 325.506002 195.609048 
L 325.784047 200.16122 
L 326.062092 221.177007 
L 326.340137 232.161877 
L 326.618182 234.502386 
L 327.174272 208.714169 
L 327.452317 210.929418 
L 328.008407 238.480541 
L 328.286452 217.761376 
L 328.564497 224.872106 
L 328.842542 244.956444 
L 329.676678 212.39605 
L 329.954723 230.440087 
L 330.232768 203.751846 
L 330.510813 200.660678 
L 330.788858 209.26546 
L 331.066903 209.88797 
L 331.344948 192.589875 
L 331.622993 186.65547 
L 331.901038 201.653618 
L 332.735173 222.603853 
L 333.013219 239.778588 
L 333.291264 197.276489 
L 334.125399 240.664308 
L 334.403444 229.161322 
L 334.681489 223.400797 
L 334.959534 196.521571 
L 335.237579 191.847844 
L 335.515624 198.566795 
L 335.793669 186.515803 
L 336.071714 201.846511 
L 336.349759 197.719032 
L 336.90585 209.802899 
L 337.183895 239.889117 
L 337.46194 199.309768 
L 337.739985 228.097258 
L 338.01803 220.684032 
L 338.296075 231.941176 
L 338.57412 218.06654 
L 338.852165 233.708506 
L 339.13021 214.168502 
L 339.408255 208.760002 
L 339.6863 233.351985 
L 339.964345 234.5805 
L 340.24239 232.061512 
L 340.520436 236.663095 
L 340.798481 236.412455 
L 341.076526 220.020787 
L 341.354571 223.333377 
L 341.632616 214.689404 
L 341.910661 227.138586 
L 342.188706 203.775016 
L 342.466751 190.424266 
L 343.022841 216.101424 
L 343.300886 226.22361 
L 343.578931 215.60985 
L 343.856976 228.776287 
L 344.135022 226.005267 
L 344.413067 230.549673 
L 344.691112 216.332567 
L 344.969157 229.896601 
L 345.247202 216.311875 
L 345.525247 245.273054 
L 345.803292 242.690067 
L 346.081337 203.859716 
L 346.359382 219.806608 
L 346.637427 199.882606 
L 346.915472 193.742057 
L 347.193517 207.117591 
L 347.471562 245.35431 
L 347.749607 230.041183 
L 348.027653 229.156833 
L 348.305698 237.521584 
L 348.583743 217.093944 
L 348.861788 217.393741 
L 349.139833 234.890706 
L 349.417878 227.579847 
L 349.695923 238.648246 
L 349.973968 221.842555 
L 350.252013 222.088255 
L 350.530058 217.106641 
L 350.808103 196.655436 
L 351.086148 224.556074 
L 351.364193 185.416261 
L 351.642239 200.988085 
L 351.920284 209.251893 
L 352.198329 231.863688 
L 352.476374 216.9728 
L 352.754419 223.106327 
L 353.032464 235.194001 
L 353.310509 223.654602 
L 353.588554 235.37958 
L 353.866599 240.165436 
L 354.144644 239.028879 
L 354.700734 242.37337 
L 355.256825 223.927438 
L 355.812915 192.877236 
L 356.09096 208.497275 
L 356.369005 203.929058 
L 356.64705 228.035087 
L 356.925095 217.964766 
L 357.481185 236.226077 
L 357.75923 226.481294 
L 358.037275 229.231575 
L 358.31532 216.680032 
L 358.593365 214.955954 
L 358.87141 239.304675 
L 359.149456 232.836038 
L 359.427501 245.707151 
L 359.983591 187.524139 
L 360.261636 208.668178 
L 360.539681 205.770457 
L 360.817726 237.390671 
L 361.095771 238.493665 
L 361.373816 236.439638 
L 361.651861 242.130219 
L 361.929906 243.374669 
L 362.207951 241.606293 
L 362.485996 221.490609 
L 362.764042 231.547204 
L 363.042087 230.957252 
L 363.320132 241.651168 
L 363.598177 229.869742 
L 363.876222 253.040791 
L 364.154267 227.917497 
L 364.432312 235.550468 
L 364.710357 223.678532 
L 364.988402 256.681893 
L 365.266447 227.285766 
L 365.544492 232.908753 
L 365.822537 225.03526 
L 366.100582 222.666341 
L 366.656673 230.446641 
L 366.934718 212.19547 
L 367.212763 221.033873 
L 367.490808 223.285906 
L 367.768853 234.79589 
L 368.046898 216.007067 
L 368.324943 239.810774 
L 368.602988 239.286706 
L 368.881033 255.226221 
L 369.159078 264.771865 
L 369.437123 253.865919 
L 369.715168 248.457249 
L 369.993213 246.593694 
L 370.549304 225.401795 
L 371.105394 233.172208 
L 371.383439 220.67633 
L 371.661484 241.305491 
L 371.939529 242.694231 
L 372.217574 231.082085 
L 372.773664 247.665071 
L 373.051709 239.134635 
L 373.607799 194.761689 
L 373.885845 235.893184 
L 374.16389 251.019164 
L 374.441935 246.809907 
L 374.71998 237.001837 
L 374.998025 221.799881 
L 375.27607 249.087509 
L 375.554115 247.838112 
L 375.83216 244.75045 
L 376.110205 259.442911 
L 376.38825 259.582848 
L 376.94434 246.544449 
L 377.222385 250.207996 
L 377.778476 195.602581 
L 378.056521 213.055107 
L 378.334566 198.194711 
L 378.612611 273.617763 
L 379.446746 243.351325 
L 379.724791 268.074932 
L 380.002836 262.065458 
L 380.836971 272.411753 
L 381.115016 271.085331 
L 381.393062 266.376244 
L 381.671107 224.641368 
L 382.227197 198.627858 
L 382.505242 219.749108 
L 382.783287 213.100813 
L 383.339377 270.261387 
L 383.617422 261.818191 
L 383.895467 256.923295 
L 384.173512 267.014807 
L 384.451557 269.550904 
L 384.729602 263.809627 
L 385.007648 271.095095 
L 385.285693 270.126687 
L 385.563738 257.553012 
L 385.841783 252.294992 
L 386.397873 229.080572 
L 386.675918 207.511864 
L 386.953963 220.092156 
L 387.232008 208.569056 
L 387.510053 257.591083 
L 387.788098 257.381373 
L 388.344188 238.308474 
L 388.622233 248.457883 
L 388.900279 250.86627 
L 389.178324 243.843659 
L 389.456369 267.950471 
L 389.734414 267.770235 
L 390.290504 261.637155 
L 390.568549 226.180564 
L 390.846594 216.493021 
L 391.124639 212.60236 
L 391.402684 231.996864 
L 391.680729 233.415478 
L 391.958774 268.374566 
L 392.236819 250.893619 
L 392.79291 237.229038 
L 393.070955 245.103615 
L 393.349 260.943082 
L 393.627045 255.985228 
L 393.90509 259.973364 
L 394.183135 265.90214 
L 394.46118 257.898372 
L 394.739225 260.316266 
L 395.01727 249.623554 
L 395.295315 226.362565 
L 395.57336 221.535246 
L 395.851405 235.295538 
L 396.407496 248.648512 
L 396.685541 269.884794 
L 397.241631 248.145096 
L 397.519676 264.915311 
L 397.797721 253.300178 
L 398.075766 270.673648 
L 398.353811 266.531169 
L 398.631856 270.926884 
L 398.909901 278.138873 
L 399.465991 223.143809 
L 399.744036 214.67996 
L 400.022082 264.287213 
L 400.300127 253.511895 
L 400.578172 263.006699 
L 400.856217 259.032269 
L 401.134262 263.772648 
L 401.412307 252.914969 
L 401.690352 251.79855 
L 401.968397 243.605534 
L 402.246442 240.786307 
L 402.524487 239.846957 
L 402.802532 243.572873 
L 403.080577 242.006613 
L 403.358622 235.686976 
L 403.636668 221.010671 
L 403.914713 247.25002 
L 404.192758 248.539804 
L 404.748848 263.173177 
L 405.026893 256.622603 
L 405.304938 245.227562 
L 405.582983 251.34787 
L 405.861028 248.608078 
L 406.139073 248.603027 
L 406.695163 234.812584 
L 407.251253 241.06781 
L 407.529299 242.482743 
L 407.807344 220.981422 
L 408.085389 234.556784 
L 408.363434 262.173366 
L 408.919524 254.155207 
L 409.197569 263.434562 
L 409.475614 263.460597 
L 409.753659 239.187995 
L 410.309749 253.25987 
L 410.587794 245.067131 
L 410.865839 253.666309 
L 411.42193 243.166957 
L 411.97802 249.926192 
L 412.256065 233.280046 
L 412.53411 242.120015 
L 412.812155 254.995569 
L 413.0902 246.297594 
L 413.368245 245.809083 
L 413.64629 201.318936 
L 413.924335 203.050645 
L 414.20238 247.146299 
L 414.480425 267.644583 
L 414.75847 250.404602 
L 415.036516 246.325465 
L 415.314561 261.523306 
L 415.592606 252.224304 
L 415.870651 250.64989 
L 416.148696 255.367657 
L 416.426741 256.666904 
L 416.704786 255.28145 
L 416.982831 249.31254 
L 417.260876 215.976219 
L 417.538921 212.289233 
L 417.816966 215.143639 
L 418.095011 183.03831 
L 418.373056 196.809898 
L 418.651102 201.907162 
L 418.929147 225.536048 
L 419.207192 262.808941 
L 419.485237 251.358857 
L 419.763282 257.026204 
L 420.319372 248.64886 
L 420.875462 255.994683 
L 421.153507 248.278082 
L 421.431552 246.214477 
L 421.709597 197.608345 
L 421.987642 222.981289 
L 422.543733 203.705 
L 422.821778 216.950477 
L 423.099823 192.954953 
L 423.377868 217.269106 
L 423.655913 260.672942 
L 423.933958 247.672077 
L 424.212003 251.336772 
L 424.490048 245.944112 
L 424.768093 235.828765 
L 425.046138 241.251458 
L 425.324183 236.787001 
L 425.602228 234.919789 
L 425.880273 205.053258 
L 426.158319 190.160416 
L 426.436364 192.300448 
L 426.436364 192.300448 
" clip-path="url(#p4780e9316e)" style="fill: none; stroke: #ff00ff; stroke-width: 3; stroke-linecap: square"/>
   </g>
   <g id="patch_3">
    <path d="M 7.2 331.2 
L 7.2 7.2 
" style="fill: none; stroke: #000000; stroke-width: 0.8; stroke-linejoin: miter; stroke-linecap: square"/>
   </g>
   <g id="patch_4">
    <path d="M 446.4 331.2 
L 446.4 7.2 
" style="fill: none; stroke: #000000; stroke-width: 0.8; stroke-linejoin: miter; stroke-linecap: square"/>
   </g>
   <g id="patch_5">
    <path d="M 7.2 331.2 
L 446.4 331.2 
" style="fill: none; stroke: #000000; stroke-width: 0.8; stroke-linejoin: miter; stroke-linecap: square"/>
   </g>
   <g id="patch_6">
    <path d="M 7.2 7.2 
L 446.4 7.2 
" style="fill: none; stroke: #000000; stroke-width: 0.8; stroke-linejoin: miter; stroke-linecap: square"/>
   </g>
  </g>
 </g>
 <defs>
  <clipPath id="p4780e9316e">
   <rect x="7.2" y="7.2" width="439.2" height="324"/>
  </clipPath>
 </defs>
</svg>
