<?xml version="1.0" encoding="utf-8" standalone="no"?>
<!DOCTYPE svg PUBLIC "-//W3C//DTD SVG 1.1//EN"
  "http://www.w3.org/Graphics/SVG/1.1/DTD/svg11.dtd">
<svg xmlns:xlink="http://www.w3.org/1999/xlink" width="453.6pt" height="338.4pt" viewBox="0 0 453.6 338.4" xmlns="http://www.w3.org/2000/svg" version="1.1">
 <metadata>
  <rdf:RDF xmlns:dc="http://purl.org/dc/elements/1.1/" xmlns:cc="http://creativecommons.org/ns#" xmlns:rdf="http://www.w3.org/1999/02/22-rdf-syntax-ns#">
   <cc:Work>
    <dc:type rdf:resource="http://purl.org/dc/dcmitype/StillImage"/>
    <dc:date>2025-05-15T16:59:00.814123</dc:date>
    <dc:format>image/svg+xml</dc:format>
    <dc:creator>
     <cc:Agent>
      <dc:title>Matplotlib v3.10.1, https://matplotlib.org/</dc:title>
     </cc:Agent>
    </dc:creator>
   </cc:Work>
  </rdf:RDF>
 </metadata>
 <defs>
  <style type="text/css">*{stroke-linejoin: round; stroke-linecap: butt}</style>
 </defs>
 <g id="figure_1">
  <g id="patch_1">
   <path d="M 0 338.4 
L 453.6 338.4 
L 453.6 0 
L 0 0 
z
" style="fill: #ffffff"/>
  </g>
  <g id="axes_1">
   <g id="patch_2">
    <path d="M 7.2 331.2 
L 446.4 331.2 
L 446.4 7.2 
L 7.2 7.2 
z
" style="fill: #ffffff"/>
   </g>
   <g id="matplotlib.axis_1"/>
   <g id="matplotlib.axis_2"/>
   <g id="line2d_1">
    <path d="M 27.163636 188.417142 
L 27.719727 200.239691 
L 27.997772 203.164732 
L 28.275817 204.010059 
L 28.553862 202.795081 
L 28.831907 199.614178 
L 29.387997 188.130868 
L 30.500177 154.16706 
L 31.056267 138.934736 
L 31.612358 129.991288 
L 31.890403 128.860889 
L 32.168448 130.311948 
L 32.446493 134.471562 
L 33.002583 150.778268 
L 33.558673 176.18464 
L 35.504989 275.950039 
L 35.783034 283.343338 
L 36.061079 287.608422 
L 36.339124 288.585007 
L 36.617169 286.276975 
L 36.895214 280.853393 
L 37.451304 262.125421 
L 39.39762 180.026368 
L 39.675665 175.014864 
L 39.95371 173.033963 
L 40.231755 174.168059 
L 40.5098 178.328783 
L 41.06589 194.5437 
L 42.17807 243.221914 
L 42.734161 264.852927 
L 43.290251 278.21213 
L 43.568296 280.873913 
L 43.846341 280.678689 
L 44.124386 277.7029 
L 44.680476 264.514057 
L 46.626792 200.684678 
L 46.904837 197.420305 
L 47.182882 196.892403 
L 47.460927 199.194519 
L 47.738972 204.259451 
L 48.295062 221.65043 
L 49.407242 271.834701 
L 50.241378 303.854767 
L 50.797468 314.845486 
L 51.075513 316.472727 
L 51.353558 315.506865 
L 51.631603 312.113451 
L 52.187693 299.320418 
L 54.134009 242.951724 
L 54.412054 239.619503 
L 54.690099 238.256628 
L 54.968144 238.84415 
L 55.246189 241.243324 
L 55.802279 250.405014 
L 57.192504 279.835396 
L 57.47055 283.433463 
L 57.748595 285.495892 
L 58.02664 285.856854 
L 58.304685 284.454232 
L 58.58273 281.330731 
L 59.13882 270.586262 
L 61.363181 216.770924 
L 61.641226 214.42333 
L 61.919271 213.68486 
L 62.197316 214.522606 
L 62.475361 216.816033 
L 63.031451 224.921273 
L 64.699721 254.916901 
L 64.977767 257.478484 
L 65.255812 258.7602 
L 65.533857 258.684218 
L 65.811902 257.245269 
L 66.089947 254.507041 
L 66.646037 245.687179 
L 67.758217 220.794288 
L 68.592352 203.414771 
L 69.148443 195.209423 
L 69.704533 190.334632 
L 69.982578 189.077042 
L 70.260623 188.490814 
L 70.538668 188.452453 
L 70.816713 188.823306 
L 71.650848 190.989725 
L 72.206938 192.165047 
L 72.484984 192.470271 
L 72.763029 192.579715 
L 73.319119 192.398263 
L 73.597164 192.27976 
L 73.875209 192.294643 
L 74.153254 192.572597 
L 74.431299 193.243497 
L 74.709344 194.426953 
L 75.265434 198.698878 
L 75.821524 205.779466 
L 76.65566 220.864355 
L 77.76784 242.630879 
L 78.32393 250.23678 
L 78.601975 252.493787 
L 78.88002 253.535262 
L 79.158065 253.292988 
L 79.43611 251.762065 
L 79.992201 245.157151 
L 80.826336 229.273709 
L 81.660471 213.225269 
L 82.216561 206.68885 
L 82.494606 205.432647 
L 82.772651 205.712173 
L 83.050696 207.570966 
L 83.328741 210.962993 
L 83.884832 221.720311 
L 85.553102 262.399124 
L 85.831147 266.245843 
L 86.109192 268.323801 
L 86.387237 268.429456 
L 86.665282 266.456134 
L 86.943327 262.400972 
L 87.499418 248.562212 
L 88.333553 217.814341 
L 89.445733 175.871837 
L 90.001823 161.932876 
L 90.279868 157.654943 
L 90.557913 155.269913 
L 90.835958 154.716592 
L 91.114004 155.828965 
L 91.392049 158.346734 
L 91.948139 166.192876 
L 92.782274 178.752879 
L 93.060319 181.524753 
L 93.338364 183.04708 
L 93.616409 183.117331 
L 93.894454 181.635399 
L 94.172499 178.612099 
L 94.72859 168.53631 
L 96.39686 131.361834 
L 96.674905 128.674076 
L 96.95295 127.954833 
L 97.230995 129.378438 
L 97.50904 133.002849 
L 98.06513 146.453009 
L 98.899266 177.573304 
L 99.733401 210.093356 
L 100.289491 225.238975 
L 100.567536 229.490471 
L 100.845581 231.148771 
L 101.123626 230.086775 
L 101.401671 226.315021 
L 101.957761 211.363795 
L 102.791897 176.146094 
L 103.904077 127.917211 
L 104.460167 112.479865 
L 104.738212 108.045623 
L 105.016257 105.903144 
L 105.294302 105.963967 
L 105.572347 108.014195 
L 106.128438 116.693647 
L 107.240618 139.187918 
L 107.796708 145.384542 
L 108.074753 145.996006 
L 108.352798 144.755701 
L 108.630843 141.676477 
L 109.186933 130.666809 
L 110.855204 86.866252 
L 111.133249 82.942349 
L 111.411294 81.026708 
L 111.689339 81.307158 
L 111.967384 83.846094 
L 112.245429 88.574652 
L 112.801519 103.690691 
L 114.747835 168.232011 
L 115.02588 172.227922 
L 115.303925 173.849895 
L 115.58197 173.017787 
L 115.860015 169.789186 
L 116.416105 157.02601 
L 117.250241 128.226964 
L 118.084376 100.612114 
L 118.640466 89.557245 
L 118.918511 87.232206 
L 119.196556 87.209466 
L 119.474601 89.446692 
L 119.752646 93.772784 
L 120.308736 107.418538 
L 121.698962 148.354507 
L 122.255052 157.017043 
L 122.533097 158.26465 
L 122.811142 157.294998 
L 123.089187 154.147002 
L 123.645277 142.07959 
L 124.479413 115.009835 
L 125.313548 88.640928 
L 125.869638 77.435111 
L 126.147683 74.623212 
L 126.425728 73.81449 
L 126.703773 74.966242 
L 126.981818 77.922341 
L 127.537908 88.107758 
L 128.928134 118.939654 
L 129.206179 122.521359 
L 129.484224 124.448093 
L 129.762269 124.553562 
L 130.040314 122.778701 
L 130.318359 119.177399 
L 130.874449 107.235977 
L 132.820765 53.796761 
L 133.09881 49.882656 
L 133.376855 47.69248 
L 133.6549 47.272544 
L 133.932945 48.567016 
L 134.21099 51.421251 
L 134.76708 60.768275 
L 136.157306 88.20648 
L 136.435351 91.401064 
L 136.713396 93.176295 
L 136.991441 93.406645 
L 137.269486 92.059485 
L 137.547531 89.198964 
L 138.103621 79.639892 
L 139.771892 43.027149 
L 140.327982 37.218201 
L 140.606027 36.546007 
L 140.884072 37.41472 
L 141.162117 39.752885 
L 141.718207 48.138668 
L 143.386478 81.081799 
L 143.664523 84.245417 
L 143.942568 86.08406 
L 144.220613 86.501592 
L 144.498658 85.489512 
L 144.776703 83.122784 
L 145.332793 75.019392 
L 147.001064 44.781027 
L 147.279109 42.137639 
L 147.557154 40.784285 
L 147.835199 40.801016 
L 148.113244 42.185705 
L 148.391289 44.855438 
L 148.947379 53.352237 
L 150.61565 83.511199 
L 150.893695 86.053186 
L 151.17174 87.300423 
L 151.449785 87.176282 
L 151.72783 85.685384 
L 152.005875 82.90824 
L 152.561965 74.174436 
L 154.230236 42.307628 
L 154.786326 37.274494 
L 155.064371 36.620418 
L 155.342416 37.23826 
L 155.620461 39.060448 
L 156.176551 45.724428 
L 157.844821 72.184384 
L 158.400912 76.419981 
L 158.678957 76.943722 
L 158.957002 76.378847 
L 159.235047 74.786731 
L 159.791137 69.053488 
L 161.459407 47.05116 
L 161.737453 45.034394 
L 162.015498 43.909449 
L 162.293543 43.726704 
L 162.571588 44.47756 
L 162.849633 46.096667 
L 163.405723 51.43373 
L 164.795948 67.839435 
L 165.352038 71.287293 
L 165.630084 71.742725 
L 165.908129 71.281193 
L 166.186174 69.914621 
L 166.742264 64.763169 
L 167.576399 53.151466 
L 168.410534 41.434294 
L 168.966624 35.953031 
L 169.24467 34.268572 
L 169.522715 33.351701 
L 169.80076 33.192156 
L 170.078805 33.736049 
L 170.35685 34.887985 
L 170.91294 38.476623 
L 172.02512 46.106835 
L 172.303165 47.163285 
L 172.58121 47.636834 
L 172.859256 47.467307 
L 173.137301 46.636493 
L 173.693391 43.131602 
L 174.527526 34.771331 
L 175.361661 26.339145 
L 175.917751 22.792103 
L 176.195796 21.994751 
L 176.473841 21.927273 
L 176.751887 22.599929 
L 177.029932 23.981753 
L 177.586022 28.559362 
L 179.532337 49.0047 
L 180.088427 51.646518 
L 180.366473 52.116184 
L 180.644518 52.076252 
L 180.922563 51.6174 
L 182.034743 48.471068 
L 182.312788 48.201525 
L 182.590833 48.470421 
L 182.868878 49.409939 
L 183.146923 51.12065 
L 183.703013 57.046899 
L 184.259104 66.175774 
L 185.371284 90.339715 
L 186.205419 107.766282 
L 186.761509 116.347474 
L 187.317599 121.612345 
L 187.595644 123.014135 
L 187.87369 123.710824 
L 188.151735 123.851327 
L 188.42978 123.626708 
L 188.98587 122.986404 
L 189.263915 123.055546 
L 189.54196 123.702043 
L 189.820005 125.137387 
L 190.09805 127.538502 
L 190.65414 135.695598 
L 191.21023 148.499354 
L 192.044366 174.706775 
L 193.434591 221.364803 
L 193.990681 234.749426 
L 194.546771 242.860397 
L 194.824816 244.818836 
L 195.102861 245.447955 
L 195.380907 244.877348 
L 195.658952 243.290778 
L 196.215042 238.004833 
L 197.327222 226.441011 
L 197.605267 224.788443 
L 197.883312 223.999318 
L 198.161357 224.170601 
L 198.439402 225.344907 
L 198.717447 227.507259 
L 199.273538 234.477572 
L 200.107673 249.295691 
L 201.219853 269.066893 
L 201.775943 275.908443 
L 202.332033 279.801842 
L 202.610079 280.647815 
L 202.888124 280.833426 
L 203.166169 280.450927 
L 203.722259 278.436749 
L 205.112484 271.689115 
L 205.668574 270.134435 
L 205.946619 269.725314 
L 206.224664 269.526762 
L 206.780755 269.538039 
L 207.336845 269.60108 
L 207.61489 269.454477 
L 207.892935 269.093423 
L 208.17098 268.46227 
L 208.72707 266.256473 
L 209.28316 262.791144 
L 210.395341 253.597102 
L 211.229476 247.411015 
L 211.785566 244.959339 
L 212.063611 244.417387 
L 212.341656 244.365161 
L 212.619701 244.796744 
L 212.897746 245.685145 
L 213.453836 248.599926 
L 215.400152 260.969695 
L 215.678197 261.7383 
L 215.956242 262.066539 
L 216.234287 261.944339 
L 216.512332 261.385934 
L 217.068422 259.136507 
L 217.902558 254.056601 
L 218.736693 249.183289 
L 219.292783 247.155707 
L 219.570828 246.650361 
L 219.848873 246.493312 
L 220.126918 246.659327 
L 220.683008 247.745633 
L 221.517144 249.959288 
L 221.795189 250.435055 
L 222.073234 250.603566 
L 222.351279 250.372569 
L 222.629324 249.668762 
L 222.907369 248.440659 
L 223.463459 244.339556 
L 224.019549 238.211149 
L 225.409775 218.453719 
L 226.24391 208.284848 
L 226.8 203.851901 
L 227.35609 201.606911 
L 227.634135 201.244007 
L 227.91218 201.299469 
L 228.190225 201.681784 
L 229.580451 204.494977 
L 229.858496 204.46623 
L 230.136541 204.04805 
L 230.414586 203.205866 
L 230.970676 200.254758 
L 231.804811 193.419495 
L 232.916992 183.884179 
L 233.473082 180.841097 
L 233.751127 180.003444 
L 234.029172 179.648675 
L 234.307217 179.758304 
L 234.585262 180.283802 
L 235.141352 182.242333 
L 235.975487 185.668376 
L 236.253533 186.406385 
L 236.531578 186.733423 
L 236.809623 186.551324 
L 237.087668 185.788266 
L 237.365713 184.407828 
L 237.921803 179.829017 
L 238.755938 169.507257 
L 239.868119 155.117394 
L 240.424209 150.514087 
L 240.702254 149.288849 
L 240.980299 148.858375 
L 241.258344 149.229505 
L 241.536389 150.365173 
L 242.092479 154.575534 
L 243.76075 171.395537 
L 244.038795 172.945779 
L 244.31684 173.756719 
L 244.594885 173.760139 
L 244.87293 172.932099 
L 245.150975 171.29358 
L 245.707065 165.888207 
L 246.819245 150.50549 
L 247.653381 140.426467 
L 248.209471 136.558765 
L 248.487516 135.681086 
L 248.765561 135.500651 
L 249.043606 135.962091 
L 249.321651 136.970936 
L 249.877741 140.112185 
L 250.711876 145.281014 
L 251.267967 147.263394 
L 251.546012 147.480249 
L 251.824057 147.110967 
L 252.102102 146.154071 
L 252.658192 142.679591 
L 254.326462 128.804226 
L 254.604507 127.595904 
L 254.882553 127.036205 
L 255.160598 127.178371 
L 255.438643 128.030445 
L 255.994733 131.666873 
L 257.941048 148.848115 
L 258.219093 149.281454 
L 258.497139 148.72157 
L 258.775184 147.098858 
L 259.331274 140.670867 
L 259.887364 130.566886 
L 261.833679 90.081911 
L 262.38977 84.796613 
L 262.667815 83.982345 
L 262.94586 84.408105 
L 263.223905 86.014086 
L 263.779995 92.244819 
L 264.892175 110.877489 
L 265.448265 119.298305 
L 266.004356 124.78798 
L 266.282401 126.096779 
L 266.560446 126.373347 
L 266.838491 125.631087 
L 267.116536 123.936275 
L 267.672626 118.18889 
L 269.618942 93.043649 
L 269.896987 91.202512 
L 270.175032 90.123692 
L 270.453077 89.816528 
L 270.731122 90.247464 
L 271.009167 91.34551 
L 271.565257 95.102843 
L 273.233527 108.698036 
L 273.789618 110.830531 
L 274.067663 111.210812 
L 274.345708 111.169863 
L 274.623753 110.77128 
L 275.179843 109.262079 
L 276.013978 106.848486 
L 276.292023 106.427163 
L 276.570068 106.334635 
L 276.848113 106.620354 
L 277.126159 107.304657 
L 277.682249 109.805972 
L 278.516384 115.425242 
L 279.350519 120.726624 
L 279.628564 121.862476 
L 279.906609 122.512301 
L 280.184654 122.605568 
L 280.462699 122.102717 
L 280.740744 120.994966 
L 281.296835 117.103785 
L 282.13097 108.400669 
L 282.965105 99.46896 
L 283.521195 95.303429 
L 283.79924 94.097881 
L 284.077285 93.565265 
L 284.35533 93.729061 
L 284.633376 94.575682 
L 285.189466 98.091203 
L 286.023601 106.293871 
L 286.857736 114.506337 
L 287.413826 118.060866 
L 287.691871 118.949082 
L 287.969916 119.174811 
L 288.247962 118.72853 
L 288.526007 117.636955 
L 289.082097 113.780438 
L 290.194277 102.522764 
L 291.028412 95.222086 
L 291.584502 92.643032 
L 291.862547 92.245558 
L 292.140593 92.474984 
L 292.418638 93.324285 
L 292.974728 96.74016 
L 293.530818 102.025182 
L 294.642998 115.524795 
L 296.033224 131.64515 
L 296.867359 139.057399 
L 297.701494 144.804045 
L 298.535629 149.302252 
L 299.369764 152.783203 
L 299.925855 154.479771 
L 300.481945 155.542136 
L 300.75999 155.793285 
L 301.038035 155.83978 
L 301.31608 155.672841 
L 301.594125 155.291543 
L 302.150215 153.921088 
L 302.98435 150.723269 
L 304.096531 146.259171 
L 304.652621 144.999732 
L 304.930666 144.817356 
L 305.208711 144.997144 
L 305.486756 145.576901 
L 305.764801 146.584915 
L 306.320891 149.942925 
L 306.876982 155.064151 
L 307.711117 165.577992 
L 310.491567 205.852768 
L 311.047658 211.012261 
L 311.603748 214.399852 
L 311.881793 215.407033 
L 312.159838 215.967379 
L 312.437883 216.103445 
L 312.715928 215.847397 
L 312.993973 215.242589 
L 313.550063 213.205118 
L 315.496379 204.384794 
L 315.774424 203.779339 
L 316.052469 203.487611 
L 316.330514 203.536972 
L 316.608559 203.944244 
L 316.886604 204.713588 
L 317.442694 207.30512 
L 317.998785 211.145277 
L 318.83292 218.584701 
L 321.05728 239.549159 
L 321.891416 245.136446 
L 322.447506 247.790002 
L 323.003596 249.535747 
L 323.559686 250.358056 
L 323.837731 250.421467 
L 324.115776 250.253973 
L 324.393821 249.857978 
L 324.949911 248.400911 
L 325.506002 246.114972 
L 326.340137 241.421448 
L 328.286452 229.360137 
L 328.842542 227.360101 
L 329.120587 226.844309 
L 329.398633 226.698445 
L 329.676678 226.944232 
L 329.954723 227.591376 
L 330.510813 230.062372 
L 331.066903 233.91436 
L 332.179083 243.955023 
L 333.013219 251.04051 
L 333.569309 254.336774 
L 333.847354 255.366417 
L 334.125399 255.929629 
L 334.403444 256.005888 
L 334.681489 255.591036 
L 334.959534 254.698938 
L 335.515624 251.613335 
L 336.349759 244.542268 
L 338.296075 226.223233 
L 339.13021 221.093688 
L 339.6863 218.985133 
L 340.24239 217.823677 
L 340.520436 217.543781 
L 340.798481 217.431194 
L 341.076526 217.459756 
L 341.632616 217.843458 
L 342.466751 218.932722 
L 344.969157 222.706694 
L 345.525247 223.057858 
L 345.803292 223.069505 
L 346.081337 222.946473 
L 346.359382 222.669073 
L 346.915472 221.582027 
L 347.471562 219.721755 
L 348.027653 217.103231 
L 349.139833 210.397932 
L 349.973968 205.747853 
L 350.530058 203.888228 
L 350.808103 203.539005 
L 351.086148 203.646416 
L 351.364193 204.244476 
L 351.642239 205.344186 
L 352.198329 208.971462 
L 353.032464 217.01135 
L 353.866599 225.345831 
L 354.422689 229.036611 
L 354.700734 229.873988 
L 354.978779 229.879996 
L 355.256825 228.97283 
L 355.53487 227.107474 
L 356.09096 220.540459 
L 356.64705 210.698719 
L 358.593365 170.668529 
L 359.149456 164.209849 
L 359.427501 162.459021 
L 359.705546 161.694022 
L 359.983591 161.844692 
L 360.261636 162.785505 
L 360.817726 166.299824 
L 361.651861 172.085109 
L 361.929906 173.132592 
L 362.207951 173.354068 
L 362.485996 172.571784 
L 362.764042 170.657714 
L 363.320132 163.232062 
L 363.876222 151.314212 
L 364.988402 119.591512 
L 365.822537 97.235432 
L 366.378628 86.835841 
L 366.934718 81.427602 
L 367.212763 80.668426 
L 367.490808 81.118866 
L 367.768853 82.639991 
L 368.324943 88.117741 
L 369.715168 104.78772 
L 370.271259 108.126967 
L 370.549304 108.585911 
L 370.827349 108.22994 
L 371.105394 107.123205 
L 371.661484 103.150496 
L 372.773664 93.327335 
L 373.329754 90.641703 
L 373.607799 90.405252 
L 373.885845 91.015791 
L 374.16389 92.494673 
L 374.71998 97.894315 
L 375.554115 110.352268 
L 376.666295 127.50125 
L 377.222385 133.005067 
L 377.50043 134.551335 
L 377.778476 135.229629 
L 378.056521 135.049471 
L 378.334566 134.061055 
L 378.890656 130.046842 
L 379.724791 121.039982 
L 380.558926 112.20228 
L 381.115016 108.076034 
L 381.671107 105.880128 
L 381.949152 105.474981 
L 382.227197 105.453166 
L 382.505242 105.722432 
L 383.617422 107.434345 
L 383.895467 107.449412 
L 384.173512 107.114609 
L 384.451557 106.376971 
L 385.007648 103.637356 
L 385.563738 99.434204 
L 386.953963 87.503412 
L 387.510053 84.701958 
L 387.788098 84.120906 
L 388.066143 84.145679 
L 388.344188 84.781638 
L 388.622233 85.997447 
L 389.178324 89.883082 
L 390.846594 103.943411 
L 391.124639 105.130565 
L 391.402684 105.686567 
L 391.680729 105.564182 
L 391.958774 104.754444 
L 392.514865 101.238737 
L 393.349 92.771426 
L 394.183135 84.161486 
L 394.739225 80.489285 
L 395.01727 79.636472 
L 395.295315 79.522406 
L 395.57336 80.158827 
L 395.851405 81.514492 
L 396.407496 86.054018 
L 398.075766 103.552315 
L 398.631856 106.338979 
L 398.909901 106.664446 
L 399.187946 106.258468 
L 399.465991 105.165968 
L 400.022082 101.316383 
L 401.412307 89.713739 
L 401.690352 88.536291 
L 401.968397 88.096573 
L 402.246442 88.4763 
L 402.524487 89.706991 
L 403.080577 94.58474 
L 403.914713 106.104654 
L 404.748848 117.765071 
L 405.304938 122.512208 
L 405.582983 123.401072 
L 405.861028 123.146318 
L 406.139073 121.704411 
L 406.417118 119.095593 
L 406.973208 110.782649 
L 409.197569 69.721245 
L 409.475614 67.861989 
L 409.753659 67.267534 
L 410.031704 67.931594 
L 410.309749 69.778093 
L 410.865839 76.376258 
L 412.256065 97.599722 
L 412.812155 101.932006 
L 413.0902 102.327817 
L 413.368245 101.429617 
L 413.64629 99.249794 
L 414.20238 91.485365 
L 416.148696 56.037129 
L 416.426741 54.009456 
L 416.704786 53.432471 
L 416.982831 54.371527 
L 417.260876 56.806658 
L 417.816966 65.661553 
L 418.929147 91.951797 
L 419.485237 103.869185 
L 420.041327 111.499212 
L 420.319372 113.185613 
L 420.597417 113.340073 
L 420.875462 111.994761 
L 421.153507 109.274003 
L 421.709597 100.628013 
L 422.821778 80.207264 
L 423.377868 74.560078 
L 423.655913 73.995942 
L 423.933958 75.181987 
L 424.212003 78.1868 
L 424.768093 89.42081 
L 425.602228 116.06536 
L 426.436364 145.762698 
L 426.436364 145.762698 
" clip-path="url(#pfb95bcd20f)" style="fill: none; stroke-dasharray: 11.1,4.8; stroke-dashoffset: 0; stroke: #000000; stroke-width: 3"/>
   </g>
   <g id="line2d_2">
    <path d="M 27.163636 144.703198 
L 27.441681 141.935298 
L 27.719727 153.944105 
L 27.997772 137.809977 
L 28.275817 163.150256 
L 28.553862 163.245835 
L 28.831907 205.313959 
L 29.109952 202.996684 
L 29.387997 145.915956 
L 29.666042 147.052733 
L 29.944087 161.622938 
L 30.222132 164.560643 
L 30.500177 201.765715 
L 30.778222 157.868748 
L 31.056267 194.674589 
L 31.334312 194.743454 
L 31.612358 153.999197 
L 31.890403 131.28123 
L 32.168448 161.049281 
L 32.446493 132.911522 
L 32.724538 169.111262 
L 33.002583 178.931372 
L 33.280628 234.598016 
L 33.558673 237.653854 
L 33.836718 146.476118 
L 34.114763 162.829874 
L 34.392808 196.989553 
L 34.670853 175.246231 
L 34.948898 231.616866 
L 35.226944 141.70504 
L 35.504989 194.285064 
L 36.061079 207.1465 
L 36.339124 136.78893 
L 36.617169 178.267128 
L 36.895214 173.482185 
L 37.173259 196.869849 
L 37.451304 172.294014 
L 37.729349 204.571884 
L 38.007394 198.459376 
L 38.285439 207.321482 
L 38.563484 182.36213 
L 38.84153 234.709956 
L 39.119575 176.718087 
L 39.39762 274.915312 
L 39.675665 181.859279 
L 39.95371 195.543856 
L 40.231755 172.118016 
L 40.5098 189.249805 
L 40.787845 227.527873 
L 41.06589 206.160302 
L 41.343935 145.014152 
L 41.62198 229.41264 
L 41.900025 199.627766 
L 42.17807 204.204359 
L 42.456115 181.62255 
L 42.734161 197.211584 
L 43.290251 241.607798 
L 43.568296 208.664575 
L 43.846341 287.915032 
L 44.124386 148.857174 
L 44.402431 188.379336 
L 44.680476 179.415089 
L 44.958521 164.410805 
L 45.236566 199.288988 
L 45.514611 185.370641 
L 45.792656 161.269001 
L 46.070701 244.583956 
L 46.348747 182.622984 
L 46.626792 220.768869 
L 46.904837 219.539564 
L 47.182882 179.426736 
L 47.460927 191.542677 
L 47.738972 267.532828 
L 48.017017 188.212674 
L 48.295062 215.88317 
L 48.573107 156.342354 
L 48.851152 223.190873 
L 49.129197 205.11818 
L 49.407242 173.226877 
L 49.685287 232.045861 
L 49.963332 220.861951 
L 50.241378 147.518887 
L 50.519423 260.835109 
L 50.797468 150.383845 
L 51.075513 250.427475 
L 51.353558 244.202011 
L 51.631603 207.801039 
L 51.909648 220.612652 
L 52.187693 262.630028 
L 52.465738 189.208301 
L 52.743783 230.699163 
L 53.021828 166.138893 
L 53.299873 200.192087 
L 53.577918 187.375482 
L 53.855964 221.393828 
L 54.134009 212.330674 
L 54.412054 194.258813 
L 54.690099 243.038983 
L 54.968144 225.027482 
L 55.246189 182.315357 
L 55.524234 206.011203 
L 55.802279 208.097758 
L 56.080324 211.739824 
L 56.358369 202.360078 
L 56.636414 259.988581 
L 56.914459 218.296671 
L 57.192504 280.070091 
L 57.47055 179.917386 
L 57.748595 175.322028 
L 58.02664 174.042069 
L 58.58273 244.985221 
L 58.860775 225.873825 
L 59.13882 184.707413 
L 59.416865 259.664685 
L 59.69491 215.112994 
L 60.251 205.879389 
L 60.529045 202.263945 
L 60.80709 223.997931 
L 61.085135 276.356387 
L 61.363181 199.513977 
L 61.641226 287.5427 
L 61.919271 182.67484 
L 62.475361 211.063471 
L 62.753406 168.975843 
L 63.031451 228.478391 
L 63.309496 213.78164 
L 63.587541 246.523354 
L 64.143631 171.032172 
L 64.421676 254.144877 
L 64.699721 232.401924 
L 64.977767 184.9642 
L 65.255812 212.948423 
L 65.533857 258.278147 
L 65.811902 268.472531 
L 66.089947 239.736989 
L 66.367992 165.545547 
L 66.646037 270.992518 
L 66.924082 254.067138 
L 67.202127 169.48156 
L 67.480172 275.652026 
L 67.758217 219.855047 
L 68.036262 209.16567 
L 68.314307 207.653789 
L 68.592352 152.48824 
L 68.870398 248.571086 
L 69.148443 249.685493 
L 69.426488 180.537815 
L 69.704533 193.089037 
L 69.982578 261.609444 
L 70.260623 248.377432 
L 70.538668 203.446754 
L 70.816713 178.979993 
L 71.094758 268.589739 
L 71.650848 184.406719 
L 71.928893 239.38111 
L 72.206938 181.088733 
L 72.763029 241.095611 
L 73.041074 143.759335 
L 73.319119 251.966163 
L 73.597164 176.446234 
L 73.875209 165.344777 
L 74.153254 218.048018 
L 74.431299 231.719932 
L 74.709344 230.977395 
L 75.265434 167.008715 
L 75.543479 288.93044 
L 75.821524 185.716536 
L 76.09957 183.496688 
L 76.377615 234.280499 
L 76.65566 178.086693 
L 77.21175 243.589808 
L 77.489795 140.323216 
L 77.76784 267.481988 
L 78.045885 172.639539 
L 78.32393 148.370684 
L 78.601975 234.532201 
L 78.88002 249.862692 
L 79.158065 244.852945 
L 79.43611 177.509523 
L 79.714155 175.405683 
L 79.992201 264.010189 
L 80.548291 138.176762 
L 80.826336 203.533089 
L 81.104381 153.075485 
L 81.382426 191.178572 
L 81.660471 263.994105 
L 81.938516 135.632465 
L 82.216561 246.676612 
L 82.494606 171.375663 
L 82.772651 168.001939 
L 83.050696 167.255704 
L 83.328741 228.917831 
L 83.606787 233.488785 
L 83.884832 154.543829 
L 84.162877 182.540624 
L 84.440922 261.073408 
L 84.718967 241.849703 
L 84.997012 150.866452 
L 85.275057 187.649185 
L 85.553102 165.74752 
L 85.831147 213.926025 
L 86.109192 214.295307 
L 86.387237 142.76454 
L 86.665282 252.607021 
L 86.943327 176.309798 
L 87.221372 190.646234 
L 87.499418 190.774072 
L 87.777463 230.843455 
L 88.055508 243.326181 
L 88.333553 164.709557 
L 88.611598 173.763467 
L 88.889643 234.54505 
L 89.167688 195.922474 
L 89.445733 193.411176 
L 89.723778 209.119637 
L 90.001823 149.466973 
L 90.557913 267.077488 
L 90.835958 145.98972 
L 91.114004 218.882252 
L 91.392049 174.980385 
L 91.670094 186.873278 
L 92.504229 253.108116 
L 92.782274 234.108568 
L 93.060319 169.923403 
L 93.338364 176.460099 
L 93.616409 172.859444 
L 93.894454 198.18743 
L 94.172499 247.227345 
L 94.450544 187.584665 
L 94.72859 257.766145 
L 95.006635 237.930329 
L 95.28468 177.951737 
L 95.562725 188.178658 
L 95.84077 165.449599 
L 96.118815 155.753168 
L 96.39686 264.344437 
L 96.674905 252.373066 
L 96.95295 251.678688 
L 97.230995 217.729762 
L 97.50904 140.797319 
L 97.787085 181.894219 
L 98.621221 190.899415 
L 98.899266 140.352518 
L 99.455356 248.949056 
L 99.733401 149.998295 
L 100.011446 155.932123 
L 100.289491 175.516051 
L 100.567536 147.667616 
L 100.845581 218.444199 
L 101.123626 219.935559 
L 101.401671 247.550316 
L 101.679716 165.947089 
L 101.957761 153.903803 
L 102.235807 192.645437 
L 102.791897 142.206042 
L 103.069942 219.892854 
L 103.347987 167.728975 
L 103.904077 236.061276 
L 104.182122 121.779192 
L 104.460167 170.767343 
L 104.738212 136.418354 
L 105.016257 155.972703 
L 105.294302 151.313287 
L 105.572347 208.732238 
L 105.850393 226.449053 
L 106.128438 144.902582 
L 106.406483 144.219203 
L 106.684528 159.026322 
L 106.962573 126.823695 
L 107.240618 158.345162 
L 107.518663 212.000771 
L 107.796708 143.575572 
L 108.074753 139.752979 
L 108.352798 145.719807 
L 108.630843 98.895857 
L 108.908888 133.334139 
L 109.186933 140.04332 
L 109.464978 140.668094 
L 109.743024 116.587715 
L 110.021069 175.335062 
L 110.299114 168.139853 
L 110.577159 137.629542 
L 110.855204 130.306494 
L 111.133249 134.608183 
L 111.411294 113.890991 
L 111.689339 130.391443 
L 111.967384 120.900681 
L 112.245429 142.663785 
L 112.523474 135.276402 
L 112.801519 132.738205 
L 113.079564 84.226468 
L 113.35761 108.236688 
L 113.635655 118.132689 
L 113.9137 115.482459 
L 114.191745 165.673386 
L 114.46979 151.984187 
L 114.747835 150.890763 
L 115.02588 116.380751 
L 115.303925 97.227297 
L 115.58197 119.027375 
L 115.860015 99.626563 
L 116.13806 97.759451 
L 116.69415 125.633491 
L 116.972195 123.572355 
L 117.250241 119.227684 
L 117.528286 69.128638 
L 117.806331 100.181548 
L 118.084376 83.571745 
L 118.362421 107.242263 
L 118.640466 101.160352 
L 118.918511 115.404998 
L 119.196556 120.858992 
L 119.752646 80.869289 
L 120.030691 111.211829 
L 120.308736 89.975518 
L 120.586781 89.528405 
L 120.864827 93.713532 
L 121.420917 120.610432 
L 121.698962 115.310436 
L 121.977007 94.482044 
L 122.255052 106.544095 
L 122.533097 73.013626 
L 122.811142 100.43778 
L 123.089187 87.699746 
L 123.645277 110.425477 
L 123.923322 95.630005 
L 124.201367 74.692909 
L 124.479413 104.490354 
L 124.757458 83.346571 
L 125.035503 109.587176 
L 125.313548 84.825083 
L 125.591593 137.914984 
L 125.869638 118.927637 
L 126.147683 120.377032 
L 126.425728 81.937663 
L 126.703773 86.732867 
L 126.981818 101.517894 
L 127.259863 100.816213 
L 127.537908 81.577348 
L 127.815953 108.936428 
L 128.093998 107.838752 
L 128.372044 107.464017 
L 128.650089 100.815381 
L 129.206179 74.399425 
L 129.484224 101.408819 
L 129.762269 89.429499 
L 130.318359 137.778733 
L 130.874449 84.843015 
L 131.152494 78.271749 
L 131.430539 88.479813 
L 131.708584 74.38787 
L 131.98663 111.847881 
L 132.264675 112.448899 
L 132.54272 105.881514 
L 132.820765 114.856853 
L 133.6549 84.908645 
L 133.932945 98.963705 
L 134.21099 96.179259 
L 134.489035 112.932985 
L 134.76708 137.699331 
L 135.045125 82.314155 
L 135.32317 92.045249 
L 135.601215 83.119641 
L 135.879261 99.403238 
L 136.157306 90.811508 
L 136.435351 75.561621 
L 136.713396 95.396143 
L 136.991441 104.56495 
L 137.269486 90.779155 
L 137.547531 65.307801 
L 137.825576 111.810074 
L 138.103621 84.702051 
L 138.381666 95.249169 
L 138.659711 98.664306 
L 139.215801 124.882726 
L 139.493847 71.321125 
L 139.771892 100.68745 
L 140.049937 99.650596 
L 140.327982 76.628608 
L 140.606027 107.075416 
L 140.884072 78.260471 
L 141.162117 95.084911 
L 141.440162 94.601286 
L 141.718207 108.186958 
L 141.996252 69.935511 
L 142.274297 89.64811 
L 142.552342 68.103617 
L 142.830387 117.704526 
L 143.108433 79.04858 
L 143.664523 100.93148 
L 143.942568 94.429171 
L 144.498658 76.551979 
L 144.776703 87.251155 
L 145.054748 70.268927 
L 145.332793 70.568327 
L 145.610838 93.401284 
L 145.888883 80.115105 
L 146.166928 100.96485 
L 146.444973 68.110827 
L 146.723018 77.730167 
L 147.001064 81.52392 
L 147.279109 110.8248 
L 147.835199 81.093446 
L 148.113244 85.219692 
L 148.391289 92.225315 
L 148.669334 82.196484 
L 148.947379 68.075701 
L 149.225424 83.497704 
L 149.503469 75.978414 
L 149.781514 107.028366 
L 150.059559 75.675502 
L 150.337604 67.743025 
L 150.61565 95.768659 
L 150.893695 54.752178 
L 151.17174 73.337336 
L 151.449785 69.107471 
L 151.72783 100.637072 
L 152.005875 74.415416 
L 152.28392 72.376188 
L 152.561965 105.897691 
L 152.84001 63.58683 
L 153.118055 94.547581 
L 153.3961 63.076954 
L 153.674145 78.740306 
L 153.95219 72.663017 
L 154.230236 77.835174 
L 154.508281 68.786995 
L 154.786326 98.752859 
L 155.064371 89.975887 
L 155.342416 55.940719 
L 155.620461 67.072772 
L 155.898506 71.895891 
L 156.176551 95.821902 
L 156.454596 77.338331 
L 156.732641 78.341076 
L 157.010686 106.123974 
L 157.288731 64.713716 
L 157.566776 81.304477 
L 157.844821 59.638801 
L 158.122867 79.168469 
L 158.400912 69.79621 
L 158.678957 64.216226 
L 158.957002 65.185693 
L 159.235047 98.197135 
L 159.513092 96.165764 
L 159.791137 64.206982 
L 160.069182 71.415317 
L 160.625272 76.435972 
L 160.903317 71.817506 
L 161.181362 99.87309 
L 161.459407 97.989986 
L 161.737453 66.115229 
L 162.015498 88.992092 
L 162.293543 61.669525 
L 162.571588 101.597204 
L 162.849633 85.758315 
L 163.127678 100.863632 
L 163.405723 66.372293 
L 163.683768 66.194908 
L 163.961813 95.369613 
L 164.239858 82.579908 
L 164.517903 92.289742 
L 164.795948 79.902225 
L 165.073993 104.7843 
L 165.352038 53.973498 
L 165.630084 56.329319 
L 166.186174 98.029179 
L 166.464219 90.370404 
L 166.742264 89.048755 
L 167.020309 106.29424 
L 167.298354 89.27698 
L 167.576399 120.619399 
L 167.854444 64.252923 
L 168.132489 69.344846 
L 168.410534 105.849069 
L 168.688579 95.865994 
L 168.966624 67.388163 
L 169.24467 91.803622 
L 169.522715 105.360361 
L 169.80076 52.333963 
L 170.078805 48.810862 
L 170.35685 57.781395 
L 170.91294 104.554967 
L 171.190985 72.757394 
L 171.46903 107.130231 
L 171.747075 72.036117 
L 172.02512 87.404598 
L 172.303165 63.504562 
L 172.58121 107.44821 
L 173.137301 101.753513 
L 173.415346 103.017666 
L 173.693391 96.023412 
L 173.971436 117.015878 
L 174.249481 52.105554 
L 174.527526 56.322387 
L 174.805571 66.805447 
L 175.083616 107.872583 
L 175.361661 109.634503 
L 175.639706 61.393881 
L 175.917751 103.553701 
L 176.195796 62.385441 
L 176.473841 63.215423 
L 176.751887 73.048382 
L 177.307977 150.218292 
L 177.586022 175.385439 
L 177.864067 131.151266 
L 178.142112 127.289202 
L 178.698202 46.876456 
L 178.976247 54.363855 
L 179.254292 68.976766 
L 179.532337 118.060034 
L 179.810382 120.527332 
L 180.088427 74.522549 
L 180.366473 131.163837 
L 180.644518 75.384052 
L 180.922563 66.259429 
L 181.200608 78.628551 
L 181.756698 162.247435 
L 182.034743 181.229698 
L 182.312788 119.827778 
L 182.590833 86.614734 
L 182.868878 148.666016 
L 183.146923 109.199315 
L 183.424968 112.613527 
L 183.703013 101.607002 
L 183.981058 125.562777 
L 184.259104 138.664361 
L 184.537149 112.236758 
L 184.815194 152.819438 
L 185.093239 55.909383 
L 185.371284 104.762855 
L 185.649329 78.310664 
L 185.927374 137.752481 
L 186.205419 154.671206 
L 186.483464 187.613505 
L 186.761509 145.329451 
L 187.039554 143.018461 
L 187.317599 188.940699 
L 187.595644 124.381909 
L 187.87369 119.84913 
L 188.151735 84.240796 
L 188.42978 99.739889 
L 188.707825 171.447671 
L 188.98587 123.104999 
L 189.263915 163.920247 
L 189.54196 89.894082 
L 189.820005 84.281375 
L 190.376095 177.485305 
L 190.65414 163.866912 
L 190.932185 179.252494 
L 191.488276 153.540437 
L 191.766321 198.144078 
L 192.044366 144.579703 
L 192.322411 137.493106 
L 192.600456 106.679698 
L 192.878501 104.702217 
L 193.156546 192.560396 
L 193.434591 119.00972 
L 193.712636 200.061383 
L 193.990681 122.023222 
L 194.268726 92.148685 
L 194.546771 167.111873 
L 194.824816 152.640482 
L 195.102861 128.768916 
L 195.380907 167.850991 
L 195.658952 132.903757 
L 195.936997 181.096775 
L 196.493087 107.078836 
L 196.771132 115.135732 
L 197.327222 166.304261 
L 197.605267 149.439797 
L 197.883312 178.384614 
L 198.161357 134.929675 
L 198.439402 223.767211 
L 198.717447 183.252103 
L 198.995493 116.447582 
L 199.273538 125.834816 
L 199.551583 161.422168 
L 199.829628 145.415324 
L 200.107673 184.954494 
L 200.385718 192.421649 
L 200.663763 207.344406 
L 200.941808 175.992004 
L 201.219853 196.601785 
L 201.775943 154.950917 
L 202.053988 163.623066 
L 202.332033 185.138534 
L 202.610079 180.780829 
L 202.888124 191.109892 
L 203.166169 212.41932 
L 203.444214 182.569094 
L 204.000304 196.028405 
L 204.278349 212.857004 
L 204.556394 157.474878 
L 204.834439 183.591065 
L 205.112484 177.25477 
L 205.390529 184.840428 
L 205.668574 183.210599 
L 205.946619 196.323738 
L 206.224664 247.039146 
L 206.780755 165.369272 
L 207.0588 187.811595 
L 207.336845 220.144002 
L 207.61489 183.076012 
L 207.892935 166.838448 
L 208.17098 173.757644 
L 208.449025 167.799412 
L 208.72707 231.072419 
L 209.005115 195.09129 
L 209.28316 201.040926 
L 209.561205 185.511975 
L 209.83925 178.18144 
L 210.117296 180.021469 
L 210.395341 193.196077 
L 210.951431 174.913832 
L 211.507521 205.248237 
L 211.785566 218.67233 
L 212.063611 217.502 
L 212.341656 185.324885 
L 212.619701 208.37941 
L 212.897746 277.313098 
L 213.175791 282.457802 
L 213.453836 214.609866 
L 213.731881 190.714636 
L 214.009927 191.046481 
L 214.287972 187.487699 
L 214.566017 172.222191 
L 214.844062 201.134471 
L 215.122107 206.93399 
L 215.400152 163.150441 
L 215.678197 202.727049 
L 215.956242 180.583479 
L 216.234287 227.380807 
L 216.512332 248.91014 
L 216.790377 201.325998 
L 217.068422 181.945521 
L 217.346467 240.772086 
L 217.624513 259.42084 
L 217.902558 168.56857 
L 218.180603 195.536831 
L 218.458648 193.21022 
L 218.736693 199.493734 
L 219.014738 195.90944 
L 219.292783 170.620832 
L 219.570828 190.800694 
L 219.848873 164.698095 
L 220.126918 202.069645 
L 220.404963 203.123691 
L 220.683008 207.361321 
L 220.961053 240.956772 
L 221.239099 199.986602 
L 221.517144 201.362787 
L 222.073234 288.983036 
L 222.351279 170.484212 
L 222.629324 190.849777 
L 222.907369 196.555197 
L 223.463459 164.220202 
L 223.741504 171.438889 
L 224.019549 253.231518 
L 224.297594 139.540561 
L 224.575639 195.724846 
L 224.853684 197.786258 
L 225.13173 213.713885 
L 225.409775 195.160062 
L 225.68782 157.962108 
L 225.965865 160.098209 
L 226.24391 192.520741 
L 226.521955 243.966023 
L 226.8 164.061027 
L 227.078045 193.457671 
L 227.35609 192.555034 
L 227.634135 192.453078 
L 227.91218 175.982021 
L 228.190225 167.317728 
L 228.46827 173.898701 
L 228.746316 163.96628 
L 229.302406 206.42587 
L 229.580451 180.919206 
L 229.858496 192.153216 
L 230.136541 171.336933 
L 230.414586 176.112725 
L 230.692631 250.659305 
L 230.970676 233.77053 
L 231.248721 259.148801 
L 231.526766 190.526344 
L 232.082856 164.546963 
L 232.360901 161.676829 
L 232.638947 189.320703 
L 232.916992 195.734367 
L 233.195037 185.60857 
L 233.473082 189.719564 
L 234.029172 249.738366 
L 234.307217 192.612437 
L 234.585262 190.84571 
L 234.863307 175.57595 
L 235.141352 226.917981 
L 235.419397 240.330334 
L 235.697442 180.085157 
L 235.975487 181.059339 
L 236.253533 186.69081 
L 236.531578 186.718171 
L 236.809623 147.563071 
L 237.087668 154.09496 
L 237.365713 179.2622 
L 237.643758 145.725076 
L 237.921803 194.389609 
L 238.199848 179.892613 
L 238.477893 184.663506 
L 238.755938 162.681237 
L 239.033983 165.895602 
L 239.312028 144.136473 
L 239.590073 216.276115 
L 239.868119 245.300242 
L 240.146164 253.157662 
L 240.702254 136.527614 
L 240.980299 177.605195 
L 241.258344 161.237111 
L 241.536389 163.48016 
L 241.814434 226.43639 
L 242.092479 246.581126 
L 242.370524 170.214022 
L 242.648569 205.943263 
L 242.926614 195.991061 
L 243.482704 160.321164 
L 243.76075 158.23276 
L 244.038795 184.59649 
L 244.31684 247.980698 
L 244.594885 254.508889 
L 244.87293 185.950213 
L 245.150975 162.336359 
L 245.42902 169.73049 
L 245.707065 147.787228 
L 245.98511 163.279389 
L 246.263155 138.091906 
L 246.819245 196.318561 
L 247.09729 186.432082 
L 247.375336 186.551601 
L 247.931426 144.031004 
L 248.209471 134.487184 
L 248.487516 241.033679 
L 248.765561 173.073341 
L 249.043606 181.274344 
L 249.321651 222.599931 
L 249.599696 152.337477 
L 249.877741 166.163759 
L 250.155786 158.108526 
L 250.433831 169.04822 
L 250.711876 208.061893 
L 250.989921 129.595015 
L 251.267967 176.065028 
L 251.546012 183.241472 
L 251.824057 168.909289 
L 252.102102 185.667175 
L 252.658192 119.660099 
L 252.936237 182.704143 
L 253.214282 220.073104 
L 253.492327 228.409064 
L 253.770372 160.921535 
L 254.048417 177.531985 
L 254.326462 125.875118 
L 254.604507 104.157862 
L 254.882553 153.468245 
L 255.160598 119.168987 
L 255.438643 111.244644 
L 255.716688 173.622133 
L 255.994733 110.442578 
L 256.272778 142.73228 
L 256.550823 150.379408 
L 256.828868 140.572515 
L 257.106913 124.438664 
L 257.384958 169.992268 
L 257.663003 146.475748 
L 257.941048 206.729984 
L 258.497139 140.966477 
L 258.775184 139.672467 
L 259.053229 142.68181 
L 259.331274 134.06808 
L 259.887364 185.89392 
L 260.443454 120.254831 
L 260.721499 118.412677 
L 260.999544 135.654279 
L 261.277589 140.625666 
L 261.555634 138.604371 
L 261.833679 147.787136 
L 262.111724 121.748503 
L 262.38977 171.61498 
L 262.667815 99.496321 
L 262.94586 117.641762 
L 263.223905 114.433682 
L 263.50195 120.491652 
L 263.779995 144.035256 
L 264.05804 119.121383 
L 264.336085 142.179698 
L 264.61413 122.623593 
L 264.892175 87.55416 
L 265.17022 107.124869 
L 265.448265 115.405738 
L 265.72631 129.610637 
L 266.004356 84.175166 
L 266.282401 94.629017 
L 266.560446 146.529268 
L 266.838491 143.056915 
L 267.394581 99.128611 
L 267.672626 120.063859 
L 268.506761 143.746856 
L 268.784806 135.173243 
L 269.062851 89.0311 
L 269.340896 99.535699 
L 269.618942 123.999409 
L 269.896987 97.777845 
L 270.175032 113.714069 
L 270.453077 74.499255 
L 270.731122 116.531884 
L 271.009167 113.142445 
L 271.287212 101.600993 
L 271.565257 115.553912 
L 271.843302 112.563427 
L 272.121347 89.245089 
L 272.399392 107.34311 
L 272.677437 138.744134 
L 272.955482 131.900828 
L 273.233527 145.938603 
L 273.511573 101.901965 
L 273.789618 94.933963 
L 274.067663 81.343855 
L 274.623753 124.678073 
L 274.901798 123.237645 
L 275.179843 131.979399 
L 275.457888 144.889641 
L 275.735933 124.679367 
L 276.013978 115.661693 
L 276.292023 82.231887 
L 276.848113 106.129612 
L 277.126159 117.029004 
L 277.404204 133.445801 
L 277.682249 141.36201 
L 277.960294 95.746659 
L 278.238339 100.618862 
L 278.516384 102.059475 
L 278.794429 113.645574 
L 279.072474 105.005869 
L 279.350519 116.71121 
L 279.628564 113.493239 
L 279.906609 140.740102 
L 280.184654 122.670458 
L 280.740744 113.550734 
L 281.01879 94.788654 
L 281.296835 104.316667 
L 281.57488 136.844669 
L 281.852925 143.764881 
L 282.13097 137.731314 
L 282.409015 84.101587 
L 282.965105 91.314729 
L 283.24315 123.817033 
L 283.521195 130.305847 
L 283.79924 89.841301 
L 284.35533 155.25614 
L 284.911421 128.061781 
L 285.189466 102.230759 
L 285.745556 111.480356 
L 286.023601 130.830883 
L 286.301646 133.142334 
L 286.579691 140.795748 
L 287.135781 111.090553 
L 287.413826 110.722104 
L 287.691871 108.872185 
L 287.969916 129.261414 
L 288.247962 101.183276 
L 288.526007 93.966622 
L 289.082097 138.27761 
L 289.360142 70.432169 
L 289.638187 108.921915 
L 289.916232 102.356657 
L 290.194277 102.815693 
L 290.472322 144.931699 
L 290.750367 143.194367 
L 291.028412 143.127628 
L 291.306457 144.79665 
L 291.584502 129.736997 
L 291.862547 101.527692 
L 292.140593 149.10786 
L 292.418638 142.8469 
L 292.696683 87.856702 
L 292.974728 88.636491 
L 293.252773 147.024447 
L 293.530818 127.895581 
L 293.808863 123.829604 
L 294.086908 146.863979 
L 294.364953 101.276266 
L 294.642998 125.903681 
L 294.921043 93.067775 
L 295.477133 139.537696 
L 295.755179 84.06184 
L 296.033224 100.945068 
L 296.311269 141.131568 
L 296.589314 140.445231 
L 296.867359 135.638843 
L 297.145404 95.946598 
L 297.423449 99.212173 
L 297.701494 162.892545 
L 297.979539 173.516109 
L 298.257584 192.308046 
L 298.813674 111.66079 
L 299.091719 109.474682 
L 299.64781 160.229375 
L 299.925855 161.355429 
L 300.2039 151.708451 
L 300.481945 116.87251 
L 301.038035 151.838878 
L 301.31608 138.958123 
L 301.594125 161.222784 
L 301.87217 158.077375 
L 302.150215 211.282267 
L 302.42826 192.720587 
L 302.706305 218.35962 
L 302.98435 134.906473 
L 303.262396 123.141789 
L 303.540441 175.218962 
L 303.818486 113.012388 
L 304.096531 147.254058 
L 304.374576 146.573638 
L 304.652621 180.397867 
L 305.208711 198.130767 
L 305.486756 100.609804 
L 306.042846 155.813898 
L 306.320891 167.587179 
L 306.876982 215.215136 
L 307.155027 194.484818 
L 307.433072 136.744376 
L 307.711117 145.293678 
L 307.989162 146.209163 
L 308.267207 143.257963 
L 308.545252 183.76429 
L 308.823297 128.611959 
L 309.101342 220.748255 
L 309.657432 125.037279 
L 309.935477 167.56065 
L 310.213522 172.500793 
L 310.491567 186.035994 
L 310.769613 141.759854 
L 311.047658 206.280191 
L 311.325703 212.692099 
L 311.603748 249.58141 
L 311.881793 141.898231 
L 312.159838 150.79426 
L 312.437883 187.899779 
L 312.715928 207.877853 
L 313.272018 181.130884 
L 313.550063 216.917435 
L 313.828108 163.168651 
L 314.106153 146.562268 
L 314.384199 177.520246 
L 314.662244 184.507844 
L 315.218334 161.072113 
L 315.496379 210.133196 
L 316.052469 254.182868 
L 316.330514 147.952226 
L 316.608559 146.915096 
L 316.886604 143.602933 
L 317.164649 167.40545 
L 317.442694 219.644109 
L 317.720739 222.313195 
L 318.554875 152.723951 
L 318.83292 175.792712 
L 319.110965 169.253336 
L 319.38901 200.211314 
L 319.667055 211.369249 
L 319.9451 179.279024 
L 320.223145 223.296158 
L 320.50119 244.378009 
L 320.779235 163.133988 
L 321.05728 147.602079 
L 321.61337 203.26937 
L 321.891416 150.472491 
L 322.169461 174.41819 
L 322.447506 285.089452 
L 322.725551 230.820439 
L 323.003596 234.699048 
L 323.281641 208.40141 
L 323.559686 155.777571 
L 323.837731 197.595933 
L 324.115776 166.919514 
L 324.393821 217.048694 
L 324.671866 164.519971 
L 324.949911 195.11976 
L 325.227956 163.884197 
L 325.506002 148.895257 
L 325.784047 143.861107 
L 326.062092 160.246845 
L 326.340137 168.97991 
L 326.618182 227.505688 
L 326.896227 259.043609 
L 327.174272 239.540747 
L 327.452317 187.952744 
L 327.730362 173.852575 
L 328.008407 170.606504 
L 328.286452 217.944213 
L 328.564497 148.092452 
L 328.842542 207.803904 
L 329.120587 211.275149 
L 329.398633 252.777103 
L 329.676678 168.890525 
L 329.954723 131.298423 
L 330.232768 155.921031 
L 330.510813 222.39916 
L 330.788858 172.807495 
L 331.066903 153.901677 
L 331.344948 241.864308 
L 331.622993 180.507404 
L 331.901038 168.66646 
L 332.179083 168.265288 
L 332.457128 168.27712 
L 332.735173 190.055938 
L 333.013219 167.766504 
L 333.291264 198.513544 
L 333.569309 215.42515 
L 333.847354 195.889844 
L 334.125399 155.837931 
L 334.681489 124.160802 
L 334.959534 179.783076 
L 335.793669 265.161478 
L 336.071714 194.838386 
L 336.349759 180.210407 
L 336.627805 157.153756 
L 336.90585 155.985921 
L 337.183895 199.601052 
L 337.46194 159.242437 
L 337.739985 156.788265 
L 338.01803 166.116894 
L 338.296075 154.926236 
L 338.57412 191.623835 
L 338.852165 135.470794 
L 339.408255 214.664958 
L 339.6863 148.822418 
L 339.964345 165.681428 
L 340.24239 259.758231 
L 340.798481 244.901843 
L 341.076526 178.85576 
L 341.354571 217.081694 
L 341.632616 197.975567 
L 341.910661 161.263455 
L 342.188706 209.736554 
L 342.466751 214.589253 
L 342.744796 293.462016 
L 343.022841 168.606099 
L 343.300886 156.431 
L 343.578931 150.643405 
L 343.856976 156.125222 
L 344.135022 141.681191 
L 344.413067 160.116418 
L 344.691112 271.276573 
L 344.969157 298.559763 
L 345.247202 170.948794 
L 345.525247 170.312743 
L 345.803292 180.357196 
L 346.081337 197.346079 
L 346.359382 155.895334 
L 346.637427 172.921931 
L 346.915472 258.673403 
L 347.193517 302.468691 
L 347.471562 181.692062 
L 347.749607 161.76455 
L 348.027653 218.345754 
L 348.305698 304.246696 
L 348.583743 194.077546 
L 348.861788 174.660557 
L 349.139833 309.128881 
L 349.417878 183.346017 
L 349.695923 167.951931 
L 350.252013 207.961508 
L 350.530058 209.229081 
L 350.808103 149.170346 
L 351.364193 261.544739 
L 351.642239 283.106332 
L 351.920284 163.248793 
L 352.198329 159.171077 
L 352.476374 160.830208 
L 352.754419 167.853117 
L 353.032464 230.330713 
L 353.310509 258.552682 
L 353.588554 205.27301 
L 353.866599 218.922739 
L 354.144644 149.042138 
L 354.422689 160.145166 
L 354.700734 181.144287 
L 354.978779 186.355915 
L 355.256825 160.355365 
L 355.53487 152.468551 
L 356.09096 252.215001 
L 356.369005 139.810197 
L 356.64705 147.058464 
L 356.925095 144.906834 
L 357.20314 240.870345 
L 357.481185 157.607431 
L 357.75923 196.115295 
L 358.037275 296.585702 
L 358.593365 145.144302 
L 359.149456 169.327284 
L 359.427501 226.55064 
L 359.705546 155.632539 
L 359.983591 171.650013 
L 360.261636 155.476137 
L 360.539681 195.433303 
L 360.817726 130.291797 
L 361.095771 155.064243 
L 361.373816 147.335494 
L 361.651861 160.823553 
L 361.929906 187.661294 
L 362.207951 237.371739 
L 362.485996 243.324425 
L 362.764042 156.582687 
L 363.042087 146.766736 
L 363.320132 147.845555 
L 363.598177 159.129758 
L 363.876222 178.313993 
L 364.154267 155.288123 
L 364.432312 162.286166 
L 364.710357 164.626735 
L 364.988402 202.45464 
L 365.266447 128.737765 
L 365.822537 151.661216 
L 366.100582 186.229277 
L 366.378628 142.056111 
L 366.656673 161.535032 
L 366.934718 189.242502 
L 367.212763 171.306336 
L 367.490808 142.679129 
L 367.768853 153.26581 
L 368.046898 157.003825 
L 368.324943 162.808336 
L 368.602988 148.295995 
L 369.159078 162.121538 
L 369.715168 130.696758 
L 369.993213 147.562054 
L 370.271259 137.580273 
L 370.549304 141.406195 
L 370.827349 219.728041 
L 371.105394 233.070051 
L 371.383439 182.556892 
L 371.661484 157.693027 
L 371.939529 145.994157 
L 372.217574 146.434337 
L 372.495619 134.92228 
L 372.773664 176.331058 
L 373.051709 135.784059 
L 373.329754 128.917275 
L 373.607799 135.340829 
L 373.885845 121.350844 
L 374.16389 131.133148 
L 374.441935 133.992652 
L 374.71998 139.216389 
L 374.998025 186.685541 
L 375.27607 136.710082 
L 375.554115 140.833185 
L 375.83216 186.303966 
L 376.110205 178.547024 
L 376.38825 155.063781 
L 376.94434 130.317217 
L 377.222385 171.196707 
L 377.50043 130.776253 
L 377.778476 141.532832 
L 378.056521 126.489447 
L 378.334566 152.234411 
L 378.612611 85.874507 
L 378.890656 159.442468 
L 379.446746 134.537192 
L 379.724791 128.984014 
L 380.002836 141.089232 
L 380.280881 193.404798 
L 380.836971 125.599751 
L 381.115016 112.801726 
L 381.393062 162.10684 
L 381.671107 190.152441 
L 381.949152 142.830354 
L 382.227197 139.830902 
L 382.505242 148.305701 
L 382.783287 164.52524 
L 383.061332 116.94803 
L 383.339377 149.221001 
L 383.617422 133.337559 
L 383.895467 236.329802 
L 384.173512 136.204273 
L 384.451557 122.139599 
L 384.729602 139.390907 
L 385.007648 128.293425 
L 385.285693 149.049718 
L 385.563738 127.729474 
L 385.841783 179.060598 
L 386.119828 180.720561 
L 386.397873 136.589823 
L 386.675918 142.238487 
L 387.232008 160.051806 
L 387.510053 110.346722 
L 387.788098 159.973513 
L 388.066143 146.977952 
L 388.344188 145.128218 
L 388.622233 130.150924 
L 388.900279 129.402194 
L 389.178324 111.502263 
L 389.734414 140.074841 
L 390.012459 124.57168 
L 390.290504 155.293761 
L 390.568549 165.225257 
L 390.846594 128.472659 
L 391.124639 133.291341 
L 391.402684 120.927765 
L 391.680729 120.632062 
L 391.958774 89.101721 
L 392.236819 130.993662 
L 392.514865 109.620268 
L 392.79291 159.43267 
L 393.070955 97.766291 
L 393.349 94.379625 
L 393.627045 97.024308 
L 393.90509 87.311053 
L 394.183135 129.938599 
L 394.46118 121.849166 
L 394.739225 126.238761 
L 395.01727 138.938711 
L 395.295315 121.916182 
L 395.57336 117.265178 
L 395.851405 103.220655 
L 396.12945 137.23863 
L 396.407496 90.951548 
L 396.685541 127.392176 
L 396.963586 138.854317 
L 397.241631 104.259912 
L 397.519676 109.483463 
L 397.797721 93.556021 
L 398.075766 98.825514 
L 398.353811 108.377745 
L 398.631856 109.657243 
L 398.909901 122.957379 
L 399.187946 123.149646 
L 399.465991 159.495896 
L 399.744036 96.83463 
L 400.022082 114.488127 
L 400.300127 117.347631 
L 400.578172 124.955196 
L 400.856217 94.323424 
L 401.134262 125.311814 
L 401.412307 112.636081 
L 401.690352 125.804127 
L 402.524487 82.425355 
L 402.802532 79.705984 
L 403.080577 118.901108 
L 403.358622 119.505546 
L 403.636668 113.058144 
L 403.914713 113.417719 
L 404.470803 120.729859 
L 404.748848 126.229332 
L 405.026893 123.830806 
L 405.304938 100.537796 
L 405.582983 134.088878 
L 405.861028 99.678512 
L 406.139073 148.929274 
L 406.417118 113.801883 
L 406.695163 114.221172 
L 406.973208 77.735528 
L 407.251253 85.662644 
L 407.529299 125.132488 
L 407.807344 129.09429 
L 408.085389 114.076325 
L 408.363434 105.413419 
L 408.641479 124.856752 
L 408.919524 126.758435 
L 409.197569 116.899871 
L 409.475614 140.751194 
L 409.753659 105.705054 
L 410.031704 124.345581 
L 410.309749 114.722267 
L 410.587794 94.069965 
L 410.865839 110.899304 
L 411.143885 95.706727 
L 411.42193 115.475619 
L 411.699975 96.072866 
L 411.97802 125.144967 
L 412.256065 119.876307 
L 412.53411 157.549012 
L 412.812155 102.136937 
L 413.368245 123.976762 
L 413.64629 109.615646 
L 413.924335 148.98076 
L 414.20238 91.015144 
L 414.480425 136.433699 
L 414.75847 102.588948 
L 415.036516 143.402625 
L 415.314561 118.578599 
L 415.592606 111.809058 
L 415.870651 127.425083 
L 416.148696 130.577331 
L 416.426741 135.745883 
L 416.704786 95.335227 
L 416.982831 117.623921 
L 417.260876 83.834817 
L 417.538921 122.83065 
L 417.816966 118.566213 
L 418.095011 118.901016 
L 418.373056 149.579745 
L 418.651102 97.050468 
L 418.929147 126.947467 
L 419.207192 100.591131 
L 419.485237 99.279929 
L 419.763282 116.141897 
L 420.041327 94.065805 
L 420.319372 134.589048 
L 420.597417 108.106261 
L 420.875462 140.399106 
L 421.153507 132.981588 
L 421.431552 101.968796 
L 421.709597 90.48789 
L 421.987642 118.954074 
L 422.265688 134.179003 
L 422.543733 142.243664 
L 422.821778 204.850486 
L 423.099823 81.756489 
L 423.377868 127.855372 
L 423.655913 100.367899 
L 423.933958 113.84884 
L 424.212003 91.301418 
L 424.490048 131.774376 
L 424.768093 143.980626 
L 425.046138 118.355367 
L 425.324183 143.303256 
L 425.602228 139.819995 
L 425.880273 106.709278 
L 426.158319 138.986131 
L 426.436364 124.843349 
L 426.436364 124.843349 
" clip-path="url(#pfb95bcd20f)" style="fill: none; stroke: #ff00ff; stroke-width: 3; stroke-linecap: square"/>
   </g>
   <g id="patch_3">
    <path d="M 7.2 331.2 
L 7.2 7.2 
" style="fill: none; stroke: #000000; stroke-width: 0.8; stroke-linejoin: miter; stroke-linecap: square"/>
   </g>
   <g id="patch_4">
    <path d="M 446.4 331.2 
L 446.4 7.2 
" style="fill: none; stroke: #000000; stroke-width: 0.8; stroke-linejoin: miter; stroke-linecap: square"/>
   </g>
   <g id="patch_5">
    <path d="M 7.2 331.2 
L 446.4 331.2 
" style="fill: none; stroke: #000000; stroke-width: 0.8; stroke-linejoin: miter; stroke-linecap: square"/>
   </g>
   <g id="patch_6">
    <path d="M 7.2 7.2 
L 446.4 7.2 
" style="fill: none; stroke: #000000; stroke-width: 0.8; stroke-linejoin: miter; stroke-linecap: square"/>
   </g>
  </g>
 </g>
 <defs>
  <clipPath id="pfb95bcd20f">
   <rect x="7.2" y="7.2" width="439.2" height="324"/>
  </clipPath>
 </defs>
</svg>
