<?xml version="1.0" encoding="utf-8" standalone="no"?>
<!DOCTYPE svg PUBLIC "-//W3C//DTD SVG 1.1//EN"
  "http://www.w3.org/Graphics/SVG/1.1/DTD/svg11.dtd">
<svg xmlns:xlink="http://www.w3.org/1999/xlink" width="453.6pt" height="338.4pt" viewBox="0 0 453.6 338.4" xmlns="http://www.w3.org/2000/svg" version="1.1">
 <metadata>
  <rdf:RDF xmlns:dc="http://purl.org/dc/elements/1.1/" xmlns:cc="http://creativecommons.org/ns#" xmlns:rdf="http://www.w3.org/1999/02/22-rdf-syntax-ns#">
   <cc:Work>
    <dc:type rdf:resource="http://purl.org/dc/dcmitype/StillImage"/>
    <dc:date>2025-05-15T17:54:11.048230</dc:date>
    <dc:format>image/svg+xml</dc:format>
    <dc:creator>
     <cc:Agent>
      <dc:title>Matplotlib v3.10.1, https://matplotlib.org/</dc:title>
     </cc:Agent>
    </dc:creator>
   </cc:Work>
  </rdf:RDF>
 </metadata>
 <defs>
  <style type="text/css">*{stroke-linejoin: round; stroke-linecap: butt}</style>
 </defs>
 <g id="figure_1">
  <g id="patch_1">
   <path d="M 0 338.4 
L 453.6 338.4 
L 453.6 0 
L 0 0 
z
" style="fill: #ffffff"/>
  </g>
  <g id="axes_1">
   <g id="patch_2">
    <path d="M 7.2 331.2 
L 446.4 331.2 
L 446.4 7.2 
L 7.2 7.2 
z
" style="fill: #ffffff"/>
   </g>
   <g id="matplotlib.axis_1"/>
   <g id="matplotlib.axis_2"/>
   <g id="line2d_1">
    <path d="M 27.163636 267.483088 
L 29.109952 264.226857 
L 30.778222 261.006238 
L 32.446493 257.284591 
L 35.783034 249.641619 
L 36.895214 247.769166 
L 37.729349 246.762506 
L 38.563484 246.070807 
L 39.95371 245.302397 
L 41.06589 244.562712 
L 41.900025 243.681569 
L 42.734161 242.414568 
L 43.568296 240.723367 
L 44.402431 238.594183 
L 45.514611 235.072329 
L 46.626792 230.776112 
L 48.017017 224.491144 
L 50.519423 213.005434 
L 51.631603 209.075892 
L 52.465738 206.898339 
L 53.299873 205.378366 
L 54.134009 204.41835 
L 54.968144 203.871059 
L 56.080324 203.524129 
L 58.304685 202.99823 
L 59.69491 202.444033 
L 60.80709 201.794365 
L 61.641226 201.068086 
L 62.475361 199.975876 
L 63.031451 198.929638 
L 63.587541 197.516717 
L 64.143631 195.628914 
L 64.699721 193.155248 
L 65.533857 188.118095 
L 66.367992 181.249083 
L 67.202127 172.355169 
L 68.036262 161.302994 
L 69.148443 143.041008 
L 70.260623 120.672572 
L 71.650848 87.784373 
L 73.319119 47.817322 
L 74.153254 32.474258 
L 74.709344 25.624346 
L 74.987389 23.45378 
L 75.265434 22.20509 
L 75.543479 21.927273 
L 75.821524 22.656056 
L 76.09957 24.411826 
L 76.65566 31.008067 
L 77.21175 41.56412 
L 78.045885 63.922966 
L 79.158065 102.522001 
L 81.938516 204.567754 
L 83.050696 234.930545 
L 83.884832 252.149971 
L 84.718967 265.163882 
L 85.553102 274.872399 
L 86.387237 282.225818 
L 87.499418 289.705232 
L 88.611598 295.504887 
L 89.723778 300.041962 
L 90.835958 303.507444 
L 91.670094 305.472311 
L 92.504229 306.913182 
L 93.060319 307.576294 
L 93.616409 307.987463 
L 94.172499 308.127821 
L 94.72859 307.975718 
L 95.28468 307.514392 
L 95.84077 306.742028 
L 96.674905 305.048441 
L 97.787085 302.06447 
L 100.567536 294.171146 
L 102.513852 289.549967 
L 103.626032 287.263516 
L 104.460167 286.046891 
L 105.016257 285.641603 
L 105.572347 285.64429 
L 106.128438 286.080985 
L 106.684528 286.924701 
L 107.518663 288.768041 
L 109.464978 293.473514 
L 110.299114 294.779796 
L 110.855204 295.326159 
L 111.689339 295.761071 
L 112.801519 295.976468 
L 113.9137 296.216703 
L 114.747835 296.581464 
L 115.58197 297.156382 
L 116.416105 297.95855 
L 117.528286 299.408546 
L 118.640466 301.298357 
L 120.030691 304.147297 
L 122.533097 309.349931 
L 123.645277 311.111797 
L 124.479413 312.055495 
L 125.313548 312.634423 
L 125.869638 312.812886 
L 126.425728 312.831068 
L 127.259863 312.586723 
L 128.093998 312.079164 
L 129.484224 310.895717 
L 131.708584 308.996193 
L 133.09881 308.156325 
L 134.489035 307.608517 
L 136.157306 307.226817 
L 138.103621 307.039117 
L 139.771892 307.118447 
L 141.718207 307.466778 
L 147.279109 308.809905 
L 153.674145 310.772108 
L 163.127678 312.961198 
L 165.352038 313.201658 
L 168.132489 313.253169 
L 172.303165 313.305742 
L 177.864067 313.536971 
L 180.366473 313.63719 
L 182.034743 313.926243 
L 184.259104 314.572256 
L 188.151735 315.722752 
L 190.932185 316.311729 
L 192.600456 316.47092 
L 193.990681 316.385418 
L 195.102861 316.114515 
L 196.215042 315.616201 
L 197.327222 314.84864 
L 198.439402 313.774493 
L 199.551583 312.358971 
L 200.663763 310.550028 
L 201.775943 308.267917 
L 202.888124 305.43925 
L 204.278349 301.120894 
L 206.224664 294.075504 
L 208.17098 287.214225 
L 209.28316 284.006817 
L 210.117296 282.123285 
L 210.951431 280.745412 
L 211.785566 279.883224 
L 212.341656 279.584296 
L 212.897746 279.489524 
L 213.453836 279.578275 
L 214.287972 279.999876 
L 215.400152 280.940897 
L 217.346467 282.768635 
L 218.180603 283.195336 
L 218.736693 283.220905 
L 219.292783 282.973977 
L 219.848873 282.40399 
L 220.404963 281.463041 
L 220.961053 280.101152 
L 221.517144 278.263171 
L 222.351279 274.469747 
L 223.185414 269.193018 
L 224.019549 262.119955 
L 224.853684 252.803952 
L 225.68782 240.581307 
L 226.521955 224.613174 
L 227.35609 204.096994 
L 228.190225 178.595071 
L 229.302406 137.639735 
L 231.526766 53.213347 
L 232.360901 32.166182 
L 232.916992 24.256813 
L 233.195037 22.392091 
L 233.473082 21.980009 
L 233.751127 23.033656 
L 234.029172 25.540868 
L 234.585262 34.741612 
L 235.141352 49.006701 
L 235.975487 77.89733 
L 237.643758 148.231777 
L 239.033983 201.848379 
L 239.868119 226.714416 
L 240.702254 245.327066 
L 241.536389 258.412512 
L 242.370524 267.289291 
L 243.204659 273.326038 
L 244.038795 277.592086 
L 244.87293 280.7517 
L 245.707065 283.085841 
L 246.5412 284.698931 
L 247.375336 285.771346 
L 249.043606 287.333988 
L 250.433831 288.513784 
L 250.989921 288.721579 
L 251.267967 288.696412 
L 251.546012 288.555202 
L 251.824057 288.275313 
L 252.380147 287.217223 
L 252.936237 285.38992 
L 253.492327 282.732742 
L 254.326462 277.288946 
L 255.716688 265.928649 
L 256.828868 257.491632 
L 257.663003 253.026746 
L 258.219093 251.191368 
L 258.775184 250.227135 
L 259.053229 250.023798 
L 259.331274 249.96892 
L 259.887364 250.167371 
L 260.999544 250.776632 
L 261.277589 250.777502 
L 261.555634 250.663499 
L 261.833679 250.41483 
L 262.38977 249.454276 
L 262.94586 247.806246 
L 263.50195 245.408016 
L 264.05804 242.205884 
L 264.892175 235.779538 
L 265.72631 227.267055 
L 266.560446 216.640985 
L 267.950671 195.188876 
L 269.896987 164.277034 
L 270.731122 153.700061 
L 271.565257 145.831305 
L 272.121347 142.262525 
L 272.677437 140.093024 
L 272.955482 139.540727 
L 273.233527 139.345583 
L 273.511573 139.508016 
L 273.789618 140.028184 
L 274.345708 142.139298 
L 274.901798 145.661173 
L 275.457888 150.546017 
L 276.292023 160.210452 
L 277.404204 176.501489 
L 280.184654 220.003433 
L 281.01879 229.955045 
L 281.852925 237.441386 
L 282.409015 240.994921 
L 282.965105 243.429035 
L 283.521195 244.821187 
L 283.79924 245.160859 
L 284.077285 245.284628 
L 284.35533 245.21048 
L 284.633376 244.957392 
L 285.189466 243.993345 
L 286.023601 241.695843 
L 287.135781 237.7587 
L 290.194277 226.513321 
L 291.584502 222.290068 
L 292.418638 220.338863 
L 293.252773 218.999698 
L 293.808863 218.492156 
L 294.364953 218.302662 
L 294.921043 218.42251 
L 295.477133 218.827655 
L 296.311269 219.882951 
L 297.423449 221.818967 
L 299.369764 225.270321 
L 300.481945 226.747419 
L 301.594125 227.82834 
L 304.096531 230.028028 
L 307.155027 233.028196 
L 308.545252 233.937436 
L 310.213522 234.952611 
L 311.325703 235.913109 
L 312.437883 237.170796 
L 313.828108 239.067295 
L 316.052469 242.534719 
L 319.110965 247.445262 
L 319.9451 248.390455 
L 320.779235 248.986326 
L 321.335325 249.157911 
L 321.891416 249.133785 
L 322.447506 248.909574 
L 323.003596 248.488716 
L 323.837731 247.515767 
L 324.671866 246.186499 
L 326.062092 243.409683 
L 327.730362 240.04426 
L 328.564497 238.790754 
L 329.398633 238.000368 
L 329.954723 237.757132 
L 330.510813 237.740605 
L 331.066903 237.935639 
L 331.901038 238.556988 
L 333.013219 239.802476 
L 334.681489 242.102265 
L 338.57412 247.628689 
L 339.964345 249.283334 
L 341.354571 250.61979 
L 344.691112 253.655077 
L 346.359382 255.659652 
L 348.583743 258.728731 
L 351.086148 262.631051 
L 354.144644 267.852827 
L 356.64705 272.000731 
L 358.037275 273.865377 
L 359.149456 274.99552 
L 360.261636 275.793617 
L 361.373816 276.287065 
L 362.764042 276.594774 
L 366.378628 277.205387 
L 368.046898 277.782017 
L 371.661484 279.136377 
L 372.495619 279.236331 
L 373.329754 279.118895 
L 373.885845 278.868099 
L 374.441935 278.435892 
L 374.998025 277.785133 
L 375.83216 276.335394 
L 376.666295 274.281173 
L 377.778476 270.697238 
L 379.446746 264.268903 
L 381.115016 258.001426 
L 382.227197 254.670488 
L 383.061332 252.961931 
L 383.617422 252.335424 
L 383.895467 252.203889 
L 384.173512 252.204598 
L 384.451557 252.344517 
L 385.007648 253.061664 
L 385.563738 254.374832 
L 386.119828 256.268671 
L 386.953963 260.079783 
L 388.066143 266.483324 
L 392.236819 292.049808 
L 393.90509 300.780091 
L 395.295315 306.958739 
L 396.407496 310.804397 
L 397.241631 312.945551 
L 398.075766 314.47476 
L 398.909901 315.479385 
L 399.744036 316.067641 
L 400.578172 316.338639 
L 401.412307 316.366986 
L 402.246442 316.204278 
L 403.358622 315.748585 
L 404.748848 314.896221 
L 406.695163 313.406173 
L 409.753659 310.72585 
L 411.42193 309.376315 
L 412.53411 308.735682 
L 413.368245 308.494801 
L 414.20238 308.533828 
L 415.036516 308.905073 
L 415.870651 309.62224 
L 416.704786 310.641948 
L 420.041327 315.231148 
L 420.875462 315.83293 
L 421.431552 316.026147 
L 421.987642 316.048427 
L 422.543733 315.902615 
L 423.377868 315.383091 
L 424.212003 314.529663 
L 425.324183 312.944156 
L 426.436364 310.973549 
L 426.436364 310.973549 
" clip-path="url(#pa961cd9114)" style="fill: none; stroke-dasharray: 11.1,4.8; stroke-dashoffset: 0; stroke: #000000; stroke-width: 3"/>
   </g>
   <g id="line2d_2">
    <path d="M 27.163636 261.968174 
L 28.275817 259.128312 
L 28.831907 257.661774 
L 29.109952 257.494693 
L 29.944087 257.554145 
L 30.778222 257.878612 
L 31.890403 258.591451 
L 34.114763 260.413529 
L 35.504989 261.487452 
L 35.783034 261.53855 
L 36.895214 261.066635 
L 38.007394 260.300104 
L 39.119575 259.227844 
L 39.675665 258.546284 
L 39.95371 258.463289 
L 41.900025 264.855902 
L 42.734161 266.330416 
L 43.290251 266.896667 
L 43.846341 267.152413 
L 44.402431 267.126321 
L 44.958521 266.843483 
L 45.514611 266.339102 
L 46.348747 265.226566 
L 47.460927 263.258015 
L 48.851152 260.222537 
L 50.241378 257.401041 
L 51.353558 255.55728 
L 52.187693 254.477285 
L 52.465738 254.386981 
L 53.021828 255.121519 
L 54.134009 255.481965 
L 55.802279 256.280157 
L 58.304685 257.491677 
L 59.69491 257.927573 
L 61.085135 258.113941 
L 62.475361 258.055384 
L 64.143631 257.74397 
L 66.924082 257.153206 
L 69.148443 257.193674 
L 70.816713 257.392406 
L 71.650848 257.702458 
L 72.484984 258.22137 
L 73.597164 259.226934 
L 73.875209 259.532407 
L 74.153254 259.661328 
L 76.933705 259.064729 
L 77.21175 259.182089 
L 78.88002 261.441778 
L 80.548291 263.346755 
L 81.382426 263.967527 
L 82.216561 264.347872 
L 83.050696 264.499392 
L 83.884832 264.425424 
L 84.718967 264.137347 
L 85.553102 263.648518 
L 86.665282 262.707804 
L 87.777463 261.46801 
L 88.889643 259.671014 
L 90.001823 257.339267 
L 91.114004 254.412982 
L 92.226184 250.840276 
L 93.338364 246.596802 
L 93.616409 245.435239 
L 94.172499 244.851436 
L 95.28468 246.298924 
L 96.39686 248.093714 
L 98.621221 252.27263 
L 100.845581 256.285847 
L 102.235807 258.344676 
L 103.347987 259.650717 
L 104.460167 260.624691 
L 105.294302 261.248489 
L 107.240618 263.731061 
L 108.352798 264.865894 
L 109.186933 265.496276 
L 110.021069 265.88302 
L 110.855204 265.966819 
L 111.411294 265.822296 
L 111.967384 265.49798 
L 112.523474 264.965647 
L 113.35761 263.752559 
L 113.635655 263.256331 
L 113.9137 263.090159 
L 114.46979 263.032411 
L 115.58197 262.738067 
L 116.69415 262.687331 
L 117.806331 262.886783 
L 118.918511 263.333084 
L 120.030691 264.021816 
L 121.420917 265.201449 
L 123.089187 266.709203 
L 125.869638 268.419173 
L 127.815953 270.0885 
L 131.430539 272.867759 
L 138.659711 277.436801 
L 138.937756 277.251353 
L 139.771892 276.297771 
L 140.049937 276.231614 
L 140.884072 276.440369 
L 141.718207 276.324904 
L 142.552342 275.920663 
L 143.386478 275.261817 
L 144.498658 274.047442 
L 145.332793 272.932328 
L 145.888883 270.488156 
L 147.001064 265.630988 
L 148.113244 261.615574 
L 149.225424 258.321108 
L 150.337604 255.670197 
L 151.449785 253.627346 
L 152.561965 252.021568 
L 153.3961 251.222039 
L 153.95219 250.900382 
L 154.508281 250.768098 
L 155.064371 250.834561 
L 155.620461 251.114329 
L 156.176551 251.627556 
L 156.732641 252.393514 
L 157.288731 253.433369 
L 158.678957 253.742631 
L 159.791137 254.218557 
L 160.625272 254.637143 
L 161.181362 254.695565 
L 162.849633 254.306413 
L 166.464219 253.050113 
L 168.410534 252.330845 
L 170.35685 251.866952 
L 172.58121 251.598267 
L 174.805571 251.464998 
L 175.639706 251.938753 
L 176.473841 252.739805 
L 177.307977 253.909753 
L 178.420157 256.032382 
L 179.810382 255.083118 
L 180.366473 255.153612 
L 180.922563 255.447635 
L 181.756698 256.188818 
L 183.146923 257.828494 
L 183.981058 259.195585 
L 184.815194 260.095415 
L 185.371284 260.371393 
L 185.927374 260.34696 
L 186.483464 260.000975 
L 187.039554 259.311015 
L 187.87369 257.665906 
L 192.044366 259.748319 
L 193.156546 259.375614 
L 194.268726 258.719523 
L 195.380907 257.749142 
L 196.493087 256.425494 
L 197.605267 254.690769 
L 198.439402 253.069957 
L 198.717447 253.11536 
L 199.829628 255.559743 
L 201.219853 259.206939 
L 202.332033 262.575329 
L 202.610079 262.55178 
L 203.166169 261.821816 
L 203.722259 261.423416 
L 204.278349 261.340773 
L 204.834439 261.555419 
L 205.390529 262.053899 
L 205.946619 262.805868 
L 206.780755 264.357683 
L 207.892935 267.068367 
L 209.005115 270.292872 
L 211.229476 271.021494 
L 212.063611 271.103544 
L 212.897746 270.947611 
L 215.956242 267.695754 
L 218.180603 265.531144 
L 220.126918 263.971261 
L 222.351279 262.481396 
L 225.13173 260.886847 
L 227.078045 259.985192 
L 227.634135 260.037139 
L 228.190225 260.487874 
L 229.024361 261.755986 
L 230.692631 258.153076 
L 231.526766 256.833087 
L 232.360901 255.952277 
L 232.916992 255.642829 
L 233.473082 255.572444 
L 234.029172 255.75454 
L 234.585262 256.202896 
L 235.141352 256.926527 
L 235.975487 258.532718 
L 236.809623 260.780846 
L 237.643758 263.659692 
L 237.921803 264.757184 
L 238.199848 265.074564 
L 239.033983 263.172134 
L 239.590073 262.38492 
L 240.146164 261.965058 
L 240.702254 261.906098 
L 241.258344 262.199286 
L 241.536389 262.474017 
L 243.482704 256.704452 
L 244.594885 254.47359 
L 245.42902 253.291409 
L 245.98511 252.81032 
L 246.5412 252.562757 
L 247.09729 252.536137 
L 247.653381 252.720625 
L 248.209471 253.118281 
L 249.043606 254.080619 
L 249.877741 255.477275 
L 250.711876 257.291401 
L 252.102102 260.71583 
L 252.936237 262.249283 
L 253.770372 264.380478 
L 255.160598 268.332891 
L 255.994733 266.133458 
L 256.550823 265.100636 
L 257.106913 264.40377 
L 257.663003 264.011784 
L 258.219093 263.896745 
L 258.775184 264.023556 
L 259.609319 264.569831 
L 260.721499 265.715576 
L 263.223905 268.446647 
L 263.779995 268.711663 
L 264.336085 268.730949 
L 264.892175 268.456378 
L 265.448265 267.843363 
L 265.72631 268.321049 
L 266.004356 269.019643 
L 266.560446 269.679866 
L 267.116536 270.087057 
L 267.672626 270.263267 
L 268.228716 270.231802 
L 268.784806 270.015371 
L 269.618942 269.392836 
L 270.453077 268.487331 
L 271.565257 266.974666 
L 275.735933 260.684078 
L 276.848113 259.550894 
L 277.682249 258.971585 
L 278.794429 258.793672 
L 282.13097 258.859346 
L 286.857736 257.413537 
L 287.691871 257.469867 
L 288.526007 257.746358 
L 289.360142 258.31109 
L 289.916232 258.667535 
L 291.584502 259.192624 
L 292.974728 259.385064 
L 294.086908 259.309256 
L 295.199088 258.974792 
L 296.033224 258.516719 
L 296.311269 258.317836 
L 297.145404 257.159238 
L 298.257584 255.164841 
L 299.369764 252.613116 
L 299.64781 251.883554 
L 301.87217 249.752128 
L 302.42826 248.988598 
L 302.706305 248.934846 
L 303.540441 249.843749 
L 304.930666 251.784821 
L 309.379387 258.510582 
L 310.213522 259.350382 
L 311.047658 259.896939 
L 311.603748 260.065307 
L 312.159838 260.059552 
L 312.715928 259.863323 
L 313.272018 259.458856 
L 313.828108 258.837899 
L 314.940289 257.171432 
L 315.218334 256.750454 
L 315.496379 256.769534 
L 319.110965 261.197903 
L 319.38901 261.523732 
L 319.9451 261.763133 
L 321.05728 261.440214 
L 322.447506 260.804354 
L 325.227956 259.173479 
L 326.618182 258.473492 
L 327.174272 258.271518 
L 327.452317 258.931826 
L 328.286452 262.144504 
L 329.120587 264.435396 
L 329.676678 265.506017 
L 330.232768 266.249522 
L 330.788858 266.704056 
L 331.344948 266.888469 
L 331.901038 266.831897 
L 332.735173 266.437508 
L 333.847354 265.596235 
L 335.793669 264.103495 
L 336.627805 263.705688 
L 337.46194 263.545056 
L 337.739985 263.567041 
L 339.13021 264.38181 
L 339.964345 264.555174 
L 341.076526 264.506157 
L 342.466751 264.161831 
L 345.525247 263.04546 
L 348.861788 261.766938 
L 349.973968 261.005409 
L 351.364193 260.673176 
L 352.198329 260.673593 
L 353.032464 260.895301 
L 353.866599 261.279079 
L 354.700734 260.589844 
L 355.812915 260.000834 
L 356.925095 259.695025 
L 358.593365 259.516036 
L 360.539681 259.260385 
L 361.651861 258.877396 
L 362.485996 258.4025 
L 363.320132 257.706263 
L 364.432312 256.522307 
L 365.822537 255.354159 
L 368.046898 256.992845 
L 369.437123 258.015846 
L 369.715168 257.959536 
L 371.383439 256.720693 
L 374.441935 254.406951 
L 375.83216 253.621264 
L 377.222385 253.105318 
L 378.334566 252.913376 
L 379.446746 252.926706 
L 380.558926 253.150641 
L 381.671107 253.580133 
L 383.061332 254.405759 
L 383.617422 255.151989 
L 384.729602 257.284993 
L 385.285693 258.218133 
L 386.119828 257.092362 
L 386.675918 256.652048 
L 387.232008 256.438231 
L 387.788098 256.432305 
L 388.344188 256.629479 
L 389.178324 257.260514 
L 390.012459 258.270884 
L 390.846594 259.623696 
L 391.958774 261.944022 
L 393.070955 264.857525 
L 394.183135 268.404084 
L 395.295315 272.041872 
L 396.685541 271.492389 
L 397.241631 270.80534 
L 400.578172 265.931212 
L 406.695163 265.452913 
L 408.641479 265.127406 
L 410.587794 264.53629 
L 412.53411 263.680013 
L 417.816966 261.162035 
L 418.929147 261.005017 
L 420.319372 261.014702 
L 421.431552 261.297642 
L 422.821778 262.215617 
L 423.655913 262.448132 
L 424.490048 262.445548 
L 425.324183 262.23435 
L 426.436364 261.685576 
L 426.436364 261.685576 
" clip-path="url(#pa961cd9114)" style="fill: none; stroke: #ff00ff; stroke-width: 3; stroke-linecap: square"/>
   </g>
   <g id="patch_3">
    <path d="M 7.2 331.2 
L 7.2 7.2 
" style="fill: none; stroke: #000000; stroke-width: 0.8; stroke-linejoin: miter; stroke-linecap: square"/>
   </g>
   <g id="patch_4">
    <path d="M 446.4 331.2 
L 446.4 7.2 
" style="fill: none; stroke: #000000; stroke-width: 0.8; stroke-linejoin: miter; stroke-linecap: square"/>
   </g>
   <g id="patch_5">
    <path d="M 7.2 331.2 
L 446.4 331.2 
" style="fill: none; stroke: #000000; stroke-width: 0.8; stroke-linejoin: miter; stroke-linecap: square"/>
   </g>
   <g id="patch_6">
    <path d="M 7.2 7.2 
L 446.4 7.2 
" style="fill: none; stroke: #000000; stroke-width: 0.8; stroke-linejoin: miter; stroke-linecap: square"/>
   </g>
  </g>
 </g>
 <defs>
  <clipPath id="pa961cd9114">
   <rect x="7.2" y="7.2" width="439.2" height="324"/>
  </clipPath>
 </defs>
</svg>
