<?xml version="1.0" encoding="utf-8" standalone="no"?>
<!DOCTYPE svg PUBLIC "-//W3C//DTD SVG 1.1//EN"
  "http://www.w3.org/Graphics/SVG/1.1/DTD/svg11.dtd">
<svg xmlns:xlink="http://www.w3.org/1999/xlink" width="453.6pt" height="338.4pt" viewBox="0 0 453.6 338.4" xmlns="http://www.w3.org/2000/svg" version="1.1">
 <metadata>
  <rdf:RDF xmlns:dc="http://purl.org/dc/elements/1.1/" xmlns:cc="http://creativecommons.org/ns#" xmlns:rdf="http://www.w3.org/1999/02/22-rdf-syntax-ns#">
   <cc:Work>
    <dc:type rdf:resource="http://purl.org/dc/dcmitype/StillImage"/>
    <dc:date>2025-05-15T18:09:39.008756</dc:date>
    <dc:format>image/svg+xml</dc:format>
    <dc:creator>
     <cc:Agent>
      <dc:title>Matplotlib v3.10.1, https://matplotlib.org/</dc:title>
     </cc:Agent>
    </dc:creator>
   </cc:Work>
  </rdf:RDF>
 </metadata>
 <defs>
  <style type="text/css">*{stroke-linejoin: round; stroke-linecap: butt}</style>
 </defs>
 <g id="figure_1">
  <g id="patch_1">
   <path d="M 0 338.4 
L 453.6 338.4 
L 453.6 0 
L 0 0 
z
" style="fill: #ffffff"/>
  </g>
  <g id="axes_1">
   <g id="patch_2">
    <path d="M 7.2 331.2 
L 446.4 331.2 
L 446.4 7.2 
L 7.2 7.2 
z
" style="fill: #ffffff"/>
   </g>
   <g id="matplotlib.axis_1"/>
   <g id="matplotlib.axis_2"/>
   <g id="line2d_1">
    <path d="M 27.163636 107.264775 
L 27.997772 117.710126 
L 28.831907 124.348879 
L 29.944087 132.088968 
L 30.500177 137.772366 
L 31.056267 145.78288 
L 31.612358 156.552834 
L 32.446493 177.81083 
L 33.836718 222.087668 
L 35.226944 265.415484 
L 36.061079 285.962644 
L 36.895214 300.994936 
L 37.451304 307.973747 
L 38.007394 312.732152 
L 38.563484 315.500777 
L 38.84153 316.202176 
L 39.119575 316.472727 
L 39.39762 316.322461 
L 39.675665 315.754797 
L 39.95371 314.766356 
L 40.5098 311.483844 
L 41.06589 306.349319 
L 41.62198 299.215026 
L 42.456115 284.574099 
L 43.290251 265.450575 
L 44.680476 227.177179 
L 46.070701 190.090037 
L 46.904837 172.662876 
L 47.738972 159.888932 
L 48.573107 150.842747 
L 50.519423 132.34398 
L 51.353558 121.501733 
L 53.577918 90.417313 
L 54.134009 85.681964 
L 54.690099 83.122345 
L 54.968144 82.662656 
L 55.246189 82.707037 
L 55.524234 83.196792 
L 56.080324 85.194913 
L 57.47055 91.524265 
L 57.748595 92.254758 
L 58.02664 92.640422 
L 58.304685 92.646503 
L 58.58273 92.259784 
L 58.860775 91.489765 
L 59.416865 88.941378 
L 60.529045 81.702192 
L 61.363181 77.085882 
L 61.919271 75.518313 
L 62.197316 75.311525 
L 62.475361 75.500029 
L 62.753406 76.066806 
L 63.309496 78.172565 
L 64.421676 84.372321 
L 64.977767 87.158491 
L 65.533857 88.94881 
L 65.811902 89.350858 
L 66.089947 89.394141 
L 66.367992 89.079715 
L 66.646037 88.426372 
L 67.202127 86.263015 
L 69.148443 76.626532 
L 69.704533 75.444457 
L 69.982578 75.303502 
L 70.260623 75.456323 
L 70.538668 75.876867 
L 71.094758 77.346088 
L 72.484984 81.697505 
L 72.763029 82.141105 
L 73.041074 82.314237 
L 73.319119 82.185063 
L 73.597164 81.738845 
L 74.153254 79.916771 
L 74.709344 77.050918 
L 76.65566 65.660304 
L 77.21175 64.058573 
L 77.489795 63.714462 
L 77.76784 63.669531 
L 78.045885 63.900178 
L 78.601975 65.019967 
L 79.992201 68.77416 
L 80.270246 69.156445 
L 80.548291 69.287477 
L 80.826336 69.135247 
L 81.104381 68.682611 
L 81.660471 66.890138 
L 82.216561 64.09168 
L 84.162877 52.924661 
L 84.718967 51.324534 
L 84.997012 50.969063 
L 85.275057 50.906609 
L 85.553102 51.115255 
L 86.109192 52.187791 
L 87.499418 55.945869 
L 87.777463 56.374689 
L 88.055508 56.574003 
L 88.333553 56.5129 
L 88.611598 56.176051 
L 89.167688 54.687574 
L 89.723778 52.283732 
L 91.392049 43.811799 
L 91.948139 42.135071 
L 92.226184 41.696074 
L 92.504229 41.536455 
L 92.782274 41.646879 
L 93.060319 42.002984 
L 93.616409 43.291894 
L 95.006635 47.171545 
L 95.28468 47.571819 
L 95.562725 47.731861 
L 95.84077 47.624519 
L 96.118815 47.237124 
L 96.674905 45.645401 
L 97.230995 43.146927 
L 98.899266 34.501227 
L 99.455356 32.808454 
L 99.733401 32.372286 
L 100.011446 32.22449 
L 100.289491 32.357717 
L 100.567536 32.750686 
L 101.123626 34.164041 
L 102.791897 39.390538 
L 103.069942 39.799427 
L 103.347987 39.962974 
L 103.626032 39.864541 
L 103.904077 39.501427 
L 104.460167 38.043523 
L 105.294302 34.58053 
L 106.406483 29.91169 
L 106.962573 28.573585 
L 107.240618 28.293532 
L 107.518663 28.295348 
L 107.796708 28.578568 
L 108.352798 29.920431 
L 109.186933 33.306527 
L 110.299114 38.110791 
L 110.855204 39.670337 
L 111.133249 40.111445 
L 111.411294 40.308395 
L 111.689339 40.263338 
L 111.967384 39.992195 
L 112.523474 38.892802 
L 114.191745 34.653753 
L 114.46979 34.364072 
L 114.747835 34.304869 
L 115.02588 34.497173 
L 115.303925 34.949219 
L 115.860015 36.605339 
L 116.416105 39.103897 
L 118.640466 50.443711 
L 119.196556 52.011196 
L 119.752646 52.883151 
L 120.308736 53.281652 
L 120.864827 53.579947 
L 121.142872 53.833903 
L 121.420917 54.238569 
L 121.977007 55.728018 
L 122.533097 58.453971 
L 123.089187 62.696188 
L 123.645277 68.576366 
L 124.479413 80.341453 
L 125.591593 100.387352 
L 127.259863 135.47329 
L 129.484224 186.669314 
L 133.376855 280.410214 
L 134.21099 295.27879 
L 135.045125 306.356033 
L 135.601215 311.468558 
L 136.157306 314.738655 
L 136.435351 315.689175 
L 136.713396 316.189402 
L 136.991441 316.244319 
L 137.269486 315.859204 
L 137.547531 315.038766 
L 138.103621 312.109001 
L 138.659711 307.488342 
L 139.215801 301.215596 
L 140.049937 288.849295 
L 141.162117 267.482689 
L 142.552342 235.292881 
L 145.888883 155.694729 
L 147.557154 121.955847 
L 148.947379 97.762237 
L 150.337604 77.650168 
L 151.449785 64.704696 
L 152.561965 54.249295 
L 153.674145 45.704815 
L 154.786326 38.6831 
L 155.620461 34.492486 
L 156.454596 31.497374 
L 157.010686 30.310359 
L 157.288731 29.985714 
L 157.566776 29.846195 
L 157.844821 29.893532 
L 158.122867 30.125361 
L 158.678957 31.120072 
L 159.235047 32.757907 
L 160.069182 36.187709 
L 161.181362 42.012105 
L 162.293543 48.882814 
L 163.405723 57.246729 
L 164.239858 65.238536 
L 165.073993 75.375753 
L 165.908129 88.078206 
L 167.020309 109.077855 
L 168.410534 140.507948 
L 173.415346 259.686628 
L 174.527526 280.426556 
L 175.361661 292.895766 
L 176.195796 302.159317 
L 176.751887 306.387809 
L 177.307977 308.996645 
L 177.586022 309.687318 
L 177.864067 309.968363 
L 178.142112 309.840688 
L 178.420157 309.306172 
L 178.698202 308.366822 
L 179.254292 305.284046 
L 179.810382 300.613643 
L 180.644518 290.683172 
L 181.478653 277.329381 
L 182.312788 260.690207 
L 183.424968 233.766441 
L 184.815194 193.777046 
L 187.87369 101.186169 
L 188.707825 81.962567 
L 189.54196 67.545509 
L 190.376095 57.797756 
L 191.21023 51.565527 
L 193.990681 35.190211 
L 195.380907 25.57746 
L 195.936997 23.046259 
L 196.215042 22.291738 
L 196.493087 21.927273 
L 196.771132 21.971823 
L 197.049177 22.426317 
L 197.327222 23.27395 
L 197.883312 25.991796 
L 200.107673 39.486985 
L 200.385718 40.114359 
L 200.663763 40.316924 
L 200.941808 40.08594 
L 201.219853 39.435468 
L 201.775943 37.036862 
L 203.722259 25.802786 
L 204.000304 25.133184 
L 204.278349 24.936995 
L 204.556394 25.251379 
L 204.834439 26.089764 
L 205.390529 29.269916 
L 205.946619 34.103866 
L 207.892935 52.787295 
L 208.449025 55.272974 
L 208.72707 55.726202 
L 209.005115 55.652937 
L 209.28316 55.086329 
L 209.83925 52.726952 
L 211.507521 43.258281 
L 211.785566 42.522467 
L 212.063611 42.273451 
L 212.341656 42.559204 
L 212.619701 43.400967 
L 213.175791 46.699695 
L 213.731881 51.796173 
L 215.678197 71.653442 
L 216.234287 74.21437 
L 216.512332 74.623808 
L 216.790377 74.44962 
L 217.068422 73.725672 
L 217.624513 70.897485 
L 219.570828 58.26133 
L 219.848873 57.68864 
L 220.126918 57.680321 
L 220.404963 58.261794 
L 220.683008 59.429764 
L 221.239099 63.363593 
L 222.073234 71.989615 
L 223.185414 83.469244 
L 223.741504 87.001911 
L 224.019549 87.916728 
L 224.297594 88.216628 
L 224.575639 87.903975 
L 224.853684 87.01099 
L 225.409775 83.752126 
L 227.35609 68.961059 
L 227.634135 68.064062 
L 227.91218 67.743556 
L 228.190225 68.029563 
L 228.46827 68.922547 
L 229.024361 72.377812 
L 229.858496 80.479706 
L 230.970676 91.568435 
L 231.526766 94.983879 
L 231.804811 95.846967 
L 232.082856 96.095476 
L 232.360901 95.728561 
L 232.638947 94.776289 
L 233.195037 91.37744 
L 235.141352 75.853473 
L 235.419397 74.832581 
L 235.697442 74.38649 
L 235.975487 74.546363 
L 236.253533 75.312116 
L 236.809623 78.510638 
L 237.643758 86.204952 
L 238.755938 96.64228 
L 239.312028 99.658632 
L 239.590073 100.301377 
L 239.868119 100.316283 
L 240.146164 99.703646 
L 240.424209 98.49518 
L 240.980299 94.563336 
L 242.926614 77.328859 
L 243.204659 76.131794 
L 243.482704 75.53512 
L 243.76075 75.571689 
L 244.038795 76.242008 
L 244.31684 77.515716 
L 244.87293 81.603971 
L 246.819245 99.676367 
L 247.09729 101.027563 
L 247.375336 101.785884 
L 247.653381 101.918267 
L 247.931426 101.423446 
L 248.209471 100.331485 
L 248.765561 96.6237 
L 250.711876 79.999579 
L 250.989921 78.86328 
L 251.267967 78.320699 
L 251.546012 78.405491 
L 251.824057 79.118587 
L 252.102102 80.431187 
L 252.658192 84.589455 
L 254.604507 103.024163 
L 255.160598 105.337048 
L 255.438643 105.596113 
L 255.716688 105.245414 
L 255.994733 104.316029 
L 256.550823 100.990191 
L 258.497139 86.383363 
L 258.775184 85.650589 
L 259.053229 85.553804 
L 259.331274 86.132067 
L 259.609319 87.394458 
L 260.165409 91.85402 
L 260.999544 102.227922 
L 262.38977 121.325179 
L 262.94586 126.795414 
L 263.50195 130.183621 
L 263.779995 131.091048 
L 264.05804 131.531185 
L 264.336085 131.58114 
L 264.61413 131.342344 
L 265.448265 130.166772 
L 265.72631 130.092241 
L 266.004356 130.41317 
L 266.282401 131.26 
L 266.560446 132.747295 
L 267.116536 137.997017 
L 267.672626 146.617886 
L 268.228716 158.631947 
L 269.062851 182.046712 
L 272.121347 277.378027 
L 272.955482 294.528449 
L 273.789618 306.174138 
L 274.345708 311.133863 
L 274.901798 314.088563 
L 275.179843 314.866288 
L 275.457888 315.19505 
L 275.735933 315.080191 
L 276.013978 314.520508 
L 276.292023 313.508505 
L 276.848113 310.073826 
L 277.404204 304.643581 
L 277.960294 297.091405 
L 278.794429 281.722202 
L 279.906609 254.744385 
L 282.409015 189.509746 
L 283.24315 173.734737 
L 284.077285 161.603664 
L 286.023601 135.571047 
L 286.857736 120.293773 
L 289.360142 69.332661 
L 289.916232 62.93566 
L 290.194277 60.989479 
L 290.472322 59.900221 
L 290.750367 59.640648 
L 291.028412 60.14873 
L 291.306457 61.330846 
L 291.862547 65.206528 
L 293.252773 76.356402 
L 293.530818 77.619849 
L 293.808863 78.300303 
L 294.086908 78.347471 
L 294.364953 77.748009 
L 294.642998 76.526917 
L 295.199088 72.50099 
L 296.867359 57.38266 
L 297.145404 56.073523 
L 297.423449 55.473681 
L 297.701494 55.663747 
L 297.979539 56.68806 
L 298.257584 58.552953 
L 298.813674 64.639413 
L 299.64781 78.153267 
L 301.038035 102.090598 
L 301.594125 108.614492 
L 302.150215 112.35095 
L 302.42826 113.173373 
L 302.706305 113.373827 
L 302.98435 113.051842 
L 303.540441 111.379084 
L 304.096531 109.419137 
L 304.374576 108.768412 
L 304.652621 108.564706 
L 304.930666 108.961349 
L 305.208711 110.090005 
L 305.486756 112.055231 
L 306.042846 118.756354 
L 306.598936 129.247184 
L 307.433072 151.210127 
L 310.769613 252.019867 
L 311.603748 268.143782 
L 312.437883 280.255134 
L 313.272018 289.62816 
L 314.384199 299.571954 
L 315.218334 305.499512 
L 316.052469 309.729207 
L 316.608559 311.287381 
L 316.886604 311.619289 
L 317.164649 311.630205 
L 317.442694 311.309403 
L 317.720739 310.651836 
L 318.27683 308.337474 
L 318.83292 304.768047 
L 319.667055 297.423081 
L 320.779235 284.955793 
L 321.891416 270.265017 
L 323.003596 252.525436 
L 323.837731 235.778708 
L 324.671866 215.034747 
L 325.784047 181.453923 
L 327.730362 121.259769 
L 328.564497 103.595121 
L 329.120587 96.341493 
L 329.676678 92.706973 
L 329.954723 92.084751 
L 330.232768 92.114141 
L 330.510813 92.6563 
L 331.066903 94.650493 
L 331.622993 96.762459 
L 331.901038 97.475217 
L 332.179083 97.78542 
L 332.457128 97.595734 
L 332.735173 96.839904 
L 333.013219 95.486302 
L 333.569309 91.040676 
L 334.403444 81.101633 
L 335.515624 67.112001 
L 336.071714 62.366602 
L 336.349759 60.939777 
L 336.627805 60.215914 
L 336.90585 60.205906 
L 337.183895 60.883995 
L 337.46194 62.189627 
L 338.01803 66.286412 
L 339.408255 78.526558 
L 339.964345 81.092807 
L 340.24239 81.428304 
L 340.520436 81.068737 
L 340.798481 80.013008 
L 341.354571 75.99067 
L 342.188706 66.689769 
L 343.300886 54.427537 
L 343.856976 51.05677 
L 344.135022 50.427369 
L 344.413067 50.556416 
L 344.691112 51.438211 
L 345.247202 55.249918 
L 346.081337 64.463282 
L 347.193517 76.809165 
L 347.749607 80.275578 
L 348.027653 80.97077 
L 348.305698 80.923517 
L 348.583743 80.142435 
L 348.861788 78.674101 
L 349.417878 74.03123 
L 351.086148 56.702459 
L 351.642239 53.798179 
L 351.920284 53.364798 
L 352.198329 53.651481 
L 352.476374 54.642095 
L 353.032464 58.492103 
L 353.866599 67.251394 
L 354.700734 75.988474 
L 355.256825 79.817072 
L 355.53487 80.804013 
L 355.812915 81.09665 
L 356.09096 80.681976 
L 356.369005 79.583132 
L 356.925095 75.598334 
L 358.037275 63.821382 
L 358.87141 56.334658 
L 359.149456 54.817931 
L 359.427501 53.937192 
L 359.705546 53.734078 
L 359.983591 54.214458 
L 360.261636 55.349533 
L 360.817726 59.304475 
L 362.764042 77.6212 
L 363.042087 78.984135 
L 363.320132 79.732575 
L 363.598177 79.833034 
L 363.876222 79.285597 
L 364.154267 78.124383 
L 364.710357 74.248701 
L 366.656673 57.30986 
L 366.934718 56.201641 
L 367.212763 55.701794 
L 367.490808 55.838358 
L 367.768853 56.607659 
L 368.324943 59.87366 
L 369.159078 67.757871 
L 370.271259 78.570263 
L 370.827349 81.889513 
L 371.105394 82.736554 
L 371.383439 83.000519 
L 371.661484 82.688584 
L 371.939529 81.8377 
L 372.495619 78.799981 
L 374.16389 67.093548 
L 374.441935 66.037227 
L 374.71998 65.491648 
L 374.998025 65.503767 
L 375.27607 66.091574 
L 375.554115 67.244258 
L 376.110205 71.059216 
L 376.94434 79.2432 
L 377.778476 87.533809 
L 378.334566 91.517171 
L 378.612611 92.770778 
L 378.890656 93.462254 
L 379.168701 93.573734 
L 379.446746 93.115988 
L 379.724791 92.127823 
L 380.280881 88.842101 
L 381.949152 76.438366 
L 382.227197 75.240203 
L 382.505242 74.540029 
L 382.783287 74.384125 
L 383.061332 74.791325 
L 383.339377 75.752634 
L 383.895467 79.162377 
L 384.729602 86.734654 
L 385.563738 94.490915 
L 386.119828 98.191057 
L 386.397873 99.326006 
L 386.675918 99.912884 
L 386.953963 99.932055 
L 387.232008 99.391121 
L 387.510053 98.326228 
L 388.066143 94.892837 
L 389.734414 81.901844 
L 390.290504 79.732279 
L 390.568549 79.431451 
L 390.846594 79.691276 
L 391.124639 80.505887 
L 391.680729 83.641321 
L 392.514865 90.908081 
L 393.627045 100.666264 
L 394.183135 103.595037 
L 394.46118 104.311806 
L 394.739225 104.49406 
L 395.01727 104.148977 
L 395.295315 103.311437 
L 395.851405 100.421049 
L 397.519676 89.671196 
L 397.797721 88.801141 
L 398.075766 88.449808 
L 398.353811 88.669602 
L 398.631856 89.48738 
L 399.187946 92.889058 
L 399.744036 98.343794 
L 401.134262 116.150622 
L 401.968397 125.356343 
L 402.524487 129.546788 
L 403.080577 132.029892 
L 403.636668 133.140095 
L 404.748848 134.241979 
L 405.026893 134.985098 
L 405.304938 136.160543 
L 405.861028 140.224939 
L 406.417118 147.085556 
L 406.973208 157.039125 
L 407.807344 177.450672 
L 408.919524 211.707769 
L 410.587794 263.623708 
L 411.42193 284.101805 
L 412.256065 299.184896 
L 412.812155 306.20944 
L 413.368245 310.978972 
L 413.924335 313.693651 
L 414.20238 314.338233 
L 414.480425 314.531677 
L 414.75847 314.285259 
L 415.036516 313.605311 
L 415.592606 310.94234 
L 416.148696 306.494539 
L 416.704786 300.170866 
L 417.538921 287.002813 
L 418.373056 269.494829 
L 419.485237 240.765058 
L 421.987642 173.149633 
L 423.099823 149.419047 
L 426.436364 85.577536 
L 426.436364 85.577536 
" clip-path="url(#p57c484f4aa)" style="fill: none; stroke-dasharray: 11.1,4.8; stroke-dashoffset: 0; stroke: #000000; stroke-width: 3"/>
   </g>
   <g id="line2d_2">
    <path d="M 27.163636 164.349676 
L 28.831907 169.670383 
L 30.222132 173.303383 
L 31.334312 175.540596 
L 32.168448 176.764813 
L 33.002583 177.553242 
L 33.558673 177.815897 
L 34.114763 177.853142 
L 34.392808 177.754414 
L 34.670853 177.230118 
L 36.061079 173.158205 
L 37.729349 168.590414 
L 39.95371 161.757035 
L 44.680476 146.983999 
L 46.348747 142.481788 
L 47.738972 139.294794 
L 48.851152 137.207616 
L 49.963332 135.603056 
L 50.797468 134.755676 
L 52.465738 130.905669 
L 53.299873 128.680871 
L 58.02664 115.320894 
L 60.251 108.27701 
L 62.197316 101.333036 
L 63.865586 94.613122 
L 65.533857 87.034216 
L 67.202127 78.454095 
L 70.538668 60.5205 
L 72.206938 52.726487 
L 73.875209 45.988499 
L 75.265434 41.224478 
L 76.65566 37.271224 
L 77.76784 34.715236 
L 78.88002 32.716904 
L 79.714155 31.594244 
L 80.548291 30.801888 
L 81.382426 30.346422 
L 81.938516 30.233337 
L 82.494606 30.274931 
L 83.050696 30.473189 
L 83.884832 31.068512 
L 84.718967 32.027118 
L 85.831147 33.814946 
L 86.387237 34.805645 
L 86.943327 35.203175 
L 89.723778 35.480567 
L 95.28468 35.921169 
L 97.230995 36.328538 
L 98.899266 36.889065 
L 100.567536 37.700593 
L 101.957761 38.607978 
L 103.626032 39.727766 
L 105.016257 40.695536 
L 105.850393 41.60765 
L 109.464978 45.994876 
L 111.689339 49.066715 
L 113.635655 52.179219 
L 115.303925 55.269089 
L 116.972195 58.834526 
L 118.640466 62.956351 
L 120.308736 67.715474 
L 120.864827 70.28109 
L 126.425728 100.138421 
L 138.103621 163.427554 
L 138.381666 164.230975 
L 139.493847 165.770336 
L 140.884072 167.238966 
L 141.996252 168.134738 
L 143.108433 168.795936 
L 143.942568 169.127844 
L 144.776703 169.195408 
L 145.610838 169.087474 
L 146.723018 168.691803 
L 147.835199 168.029295 
L 148.947379 167.125458 
L 150.337604 165.695931 
L 152.005875 163.603981 
L 153.95219 160.754005 
L 155.342416 158.726156 
L 156.176551 158.283485 
L 157.566776 158.205449 
L 158.957002 158.354343 
L 160.347227 158.727803 
L 162.015498 159.437732 
L 162.293543 159.581009 
L 165.908129 163.144883 
L 167.576399 164.447686 
L 168.966624 165.303004 
L 170.35685 165.911629 
L 171.46903 166.197425 
L 171.747075 166.238596 
L 172.02512 166.121246 
L 173.137301 164.729597 
L 176.473841 160.367834 
L 178.698202 156.94538 
L 180.922563 153.483064 
L 184.259104 148.613558 
L 188.707825 141.729209 
L 189.263915 140.312646 
L 190.376095 136.719973 
L 191.488276 132.085294 
L 193.156546 124.169159 
L 195.380907 112.422483 
L 202.610079 73.094328 
L 204.556394 63.848576 
L 206.224664 56.935175 
L 206.50271 56.309321 
L 207.61489 55.61299 
L 209.28316 54.830008 
L 212.063611 53.749575 
L 214.287972 53.078791 
L 216.790377 52.824033 
L 219.014738 52.815925 
L 220.961053 53.014648 
L 222.907369 53.435487 
L 224.575639 53.997704 
L 227.078045 55.304687 
L 229.858496 56.514251 
L 236.531578 59.778606 
L 239.033983 61.029849 
L 240.980299 62.246254 
L 242.370524 63.316298 
L 242.926614 64.056462 
L 244.87293 68.086147 
L 245.707065 70.131647 
L 250.155786 82.450717 
L 252.102102 88.264007 
L 254.326462 95.67299 
L 256.550823 103.96837 
L 258.775184 113.230253 
L 260.721499 122.197346 
L 263.779995 144.198927 
L 265.448265 153.937178 
L 266.838491 160.862825 
L 268.506761 167.849955 
L 269.896987 172.796737 
L 271.287212 177.036167 
L 272.677437 180.654683 
L 274.067663 183.738177 
L 275.735933 186.853722 
L 277.404204 189.474022 
L 278.516384 190.922256 
L 279.906609 192.349841 
L 281.296835 193.411989 
L 282.68706 194.17656 
L 284.077285 194.665386 
L 285.189466 194.861533 
L 286.301646 194.850469 
L 287.691871 194.595373 
L 289.082097 194.101649 
L 290.750367 193.239152 
L 292.696683 191.93048 
L 295.199088 190.098229 
L 296.589314 189.681317 
L 298.813674 189.430063 
L 301.038035 188.948163 
L 303.262396 188.41901 
L 305.764801 188.580742 
L 307.989162 188.517358 
L 310.213522 188.222948 
L 311.603748 187.863423 
L 312.437883 187.142515 
L 314.106153 185.440663 
L 315.496379 184.239037 
L 316.886604 182.710149 
L 318.27683 180.875111 
L 319.9451 178.298811 
L 321.891416 174.833032 
L 324.949911 168.892974 
L 331.066903 156.374169 
L 332.735173 152.017558 
L 334.403444 147.044384 
L 336.071714 141.34553 
L 337.183895 136.980685 
L 338.852165 129.329697 
L 340.520436 120.68822 
L 342.188706 110.944437 
L 343.856976 99.991976 
L 345.525247 88.466741 
L 346.081337 87.513413 
L 347.471562 85.769375 
L 348.861788 84.359568 
L 350.252013 83.241764 
L 351.920284 82.214243 
L 353.032464 81.552158 
L 361.929906 71.071336 
L 363.876222 68.716731 
L 365.822537 67.944685 
L 367.490808 67.734392 
L 368.881033 67.761671 
L 370.271259 68.045313 
L 371.661484 68.590766 
L 373.051709 69.4316 
L 374.441935 70.603202 
L 375.83216 72.140789 
L 377.222385 74.080256 
L 378.612611 76.458846 
L 380.002836 79.310722 
L 381.393062 82.669666 
L 382.227197 85.380545 
L 384.729602 93.743404 
L 386.397873 98.683261 
L 388.622233 104.495918 
L 392.514865 114.475753 
L 394.183135 119.368737 
L 395.851405 125.016327 
L 397.241631 130.49374 
L 398.631856 136.839054 
L 400.022082 144.230597 
L 401.690352 154.50214 
L 404.192758 167.80663 
L 405.304938 172.304111 
L 406.417118 175.939983 
L 407.529299 178.777713 
L 408.363434 180.419349 
L 409.197569 181.672872 
L 410.031704 182.564041 
L 410.865839 183.118277 
L 411.699975 183.361465 
L 412.53411 183.318773 
L 413.368245 183.014947 
L 414.20238 182.474604 
L 415.314561 181.427868 
L 416.426741 180.060416 
L 417.816966 178.276304 
L 418.373056 177.667088 
L 418.929147 177.003103 
L 420.875462 175.666476 
L 423.099823 174.45366 
L 425.602228 173.358532 
L 426.436364 173.031396 
L 426.436364 173.031396 
" clip-path="url(#p57c484f4aa)" style="fill: none; stroke: #ff00ff; stroke-width: 3; stroke-linecap: square"/>
   </g>
   <g id="patch_3">
    <path d="M 7.2 331.2 
L 7.2 7.2 
" style="fill: none; stroke: #000000; stroke-width: 0.8; stroke-linejoin: miter; stroke-linecap: square"/>
   </g>
   <g id="patch_4">
    <path d="M 446.4 331.2 
L 446.4 7.2 
" style="fill: none; stroke: #000000; stroke-width: 0.8; stroke-linejoin: miter; stroke-linecap: square"/>
   </g>
   <g id="patch_5">
    <path d="M 7.2 331.2 
L 446.4 331.2 
" style="fill: none; stroke: #000000; stroke-width: 0.8; stroke-linejoin: miter; stroke-linecap: square"/>
   </g>
   <g id="patch_6">
    <path d="M 7.2 7.2 
L 446.4 7.2 
" style="fill: none; stroke: #000000; stroke-width: 0.8; stroke-linejoin: miter; stroke-linecap: square"/>
   </g>
  </g>
 </g>
 <defs>
  <clipPath id="p57c484f4aa">
   <rect x="7.2" y="7.2" width="439.2" height="324"/>
  </clipPath>
 </defs>
</svg>
