<?xml version="1.0" encoding="utf-8" standalone="no"?>
<!DOCTYPE svg PUBLIC "-//W3C//DTD SVG 1.1//EN"
  "http://www.w3.org/Graphics/SVG/1.1/DTD/svg11.dtd">
<svg xmlns:xlink="http://www.w3.org/1999/xlink" width="453.6pt" height="338.4pt" viewBox="0 0 453.6 338.4" xmlns="http://www.w3.org/2000/svg" version="1.1">
 <metadata>
  <rdf:RDF xmlns:dc="http://purl.org/dc/elements/1.1/" xmlns:cc="http://creativecommons.org/ns#" xmlns:rdf="http://www.w3.org/1999/02/22-rdf-syntax-ns#">
   <cc:Work>
    <dc:type rdf:resource="http://purl.org/dc/dcmitype/StillImage"/>
    <dc:date>2025-05-15T17:41:58.757464</dc:date>
    <dc:format>image/svg+xml</dc:format>
    <dc:creator>
     <cc:Agent>
      <dc:title>Matplotlib v3.10.1, https://matplotlib.org/</dc:title>
     </cc:Agent>
    </dc:creator>
   </cc:Work>
  </rdf:RDF>
 </metadata>
 <defs>
  <style type="text/css">*{stroke-linejoin: round; stroke-linecap: butt}</style>
 </defs>
 <g id="figure_1">
  <g id="patch_1">
   <path d="M 0 338.4 
L 453.6 338.4 
L 453.6 0 
L 0 0 
z
" style="fill: #ffffff"/>
  </g>
  <g id="axes_1">
   <g id="patch_2">
    <path d="M 7.2 331.2 
L 446.4 331.2 
L 446.4 7.2 
L 7.2 7.2 
z
" style="fill: #ffffff"/>
   </g>
   <g id="matplotlib.axis_1"/>
   <g id="matplotlib.axis_2"/>
   <g id="line2d_1">
    <path d="M 27.163636 215.937478 
L 30.500177 234.646169 
L 31.612358 240.034207 
L 32.724538 244.303657 
L 34.392808 249.510354 
L 36.895214 256.702731 
L 38.007394 259.187973 
L 39.39762 261.63912 
L 41.06589 264.098786 
L 41.900025 265.057915 
L 42.734161 265.657961 
L 43.290251 265.79753 
L 43.846341 265.705708 
L 44.402431 265.381895 
L 45.236566 264.504967 
L 46.070701 263.26339 
L 47.460927 260.700553 
L 48.851152 257.699193 
L 50.241378 254.136344 
L 52.465738 248.229164 
L 53.299873 246.654873 
L 54.134009 245.621677 
L 54.968144 245.035019 
L 55.802279 244.754706 
L 56.636414 244.743765 
L 57.192504 244.952074 
L 57.748595 245.420878 
L 58.304685 246.223883 
L 58.860775 247.402382 
L 59.69491 249.831768 
L 63.309496 261.880612 
L 65.811902 268.136341 
L 67.202127 271.089571 
L 68.592352 273.827941 
L 69.148443 275.316481 
L 69.704533 277.312285 
L 70.260623 279.968359 
L 71.094758 285.329932 
L 72.206938 294.629369 
L 73.875209 309.209067 
L 74.709344 314.336299 
L 75.265434 316.162807 
L 75.543479 316.472727 
L 75.821524 316.325289 
L 76.09957 315.679583 
L 76.377615 314.49511 
L 76.933705 310.352512 
L 77.489795 303.596093 
L 78.045885 293.964709 
L 78.88002 273.748188 
L 79.714155 246.577615 
L 80.826336 201.121903 
L 83.328741 90.874005 
L 84.162877 64.359335 
L 84.718967 51.969475 
L 85.275057 44.039427 
L 85.553102 41.675902 
L 85.831147 40.291973 
L 86.109192 39.79421 
L 86.387237 40.072147 
L 86.665282 41.001117 
L 87.221372 44.28315 
L 89.167688 58.561996 
L 90.001823 62.464206 
L 90.835958 65.966785 
L 91.392049 69.231782 
L 91.948139 74.111572 
L 92.504229 81.181079 
L 93.060319 90.715938 
L 93.894454 109.313468 
L 96.39686 170.768677 
L 96.95295 178.714464 
L 97.230995 181.246733 
L 97.50904 182.751468 
L 97.787085 183.210554 
L 98.06513 182.632366 
L 98.343175 181.051356 
L 98.899266 175.145401 
L 99.455356 166.24058 
L 100.845581 137.939014 
L 101.679716 122.620446 
L 102.235807 115.043386 
L 102.791897 110.090849 
L 103.069942 108.60682 
L 103.347987 107.735482 
L 103.626032 107.41023 
L 103.904077 107.54368 
L 104.182122 108.032182 
L 105.572347 111.716822 
L 105.850393 111.934536 
L 106.128438 111.784338 
L 106.406483 111.224337 
L 106.684528 110.239367 
L 107.240618 107.067655 
L 108.074753 100.258618 
L 108.908888 93.563213 
L 109.464978 90.897183 
L 109.743024 90.473942 
L 110.021069 90.789021 
L 110.299114 91.916031 
L 110.577159 93.903053 
L 111.133249 100.511795 
L 111.689339 110.446476 
L 112.523474 130.205567 
L 114.747835 186.593719 
L 115.303925 196.242185 
L 115.860015 203.066098 
L 116.416105 207.106724 
L 116.69415 208.166913 
L 116.972195 208.653471 
L 117.250241 208.623672 
L 117.528286 208.136753 
L 118.084376 206.016784 
L 118.640466 202.690292 
L 119.474601 196.023319 
L 120.586781 184.71836 
L 124.201367 144.636339 
L 125.035503 139.459849 
L 125.869638 136.10814 
L 126.981818 133.070454 
L 128.093998 130.077443 
L 129.206179 126.359597 
L 130.596404 120.708138 
L 133.09881 110.0241 
L 133.932945 107.653569 
L 134.489035 106.658762 
L 135.045125 106.068865 
L 136.991441 104.686279 
L 137.547531 103.815325 
L 138.381666 102.039107 
L 139.493847 99.603219 
L 140.049937 98.715998 
L 140.606027 98.131427 
L 141.440162 97.650891 
L 142.274297 97.178896 
L 142.830387 96.629067 
L 143.664523 95.353684 
L 145.332793 92.523395 
L 145.888883 91.987626 
L 146.444973 91.713 
L 148.113244 91.271669 
L 148.669334 90.832401 
L 149.503469 89.82171 
L 150.61565 88.425641 
L 151.17174 87.989108 
L 151.72783 87.792364 
L 152.561965 87.803928 
L 153.3961 87.804984 
L 153.95219 87.608384 
L 154.786326 86.9538 
L 156.176551 85.644538 
L 156.732641 85.373367 
L 157.288731 85.313624 
L 158.400912 85.546886 
L 159.235047 85.589258 
L 159.791137 85.408685 
L 160.625272 84.866918 
L 162.015498 83.908293 
L 163.683768 83.072657 
L 164.239858 82.525515 
L 164.795948 81.69463 
L 165.630084 79.941397 
L 167.576399 75.479714 
L 168.410534 74.216086 
L 170.078805 72.361746 
L 171.747075 70.587831 
L 172.303165 70.321315 
L 172.859256 70.358984 
L 173.415346 70.696809 
L 174.249481 71.568338 
L 175.361661 72.690693 
L 176.195796 73.110047 
L 177.864067 73.595862 
L 178.420157 74.044055 
L 179.254292 75.078259 
L 180.644518 76.915324 
L 181.200608 77.357855 
L 181.756698 77.573026 
L 182.590833 77.613479 
L 183.703013 77.669623 
L 184.537149 77.961381 
L 185.927374 78.504059 
L 186.761509 78.493694 
L 188.707825 78.111098 
L 189.263915 78.300981 
L 190.09805 78.946206 
L 192.322411 81.082707 
L 195.380907 83.198477 
L 200.941808 88.385764 
L 201.775943 88.84605 
L 204.278349 89.893354 
L 205.946619 91.009279 
L 206.50271 91.152087 
L 207.336845 91.052083 
L 208.449025 90.804953 
L 209.005115 90.937539 
L 209.561205 91.366394 
L 210.117296 92.08192 
L 212.063611 94.956596 
L 212.619701 95.350373 
L 214.287972 96.160288 
L 214.844062 97.004705 
L 215.400152 98.412388 
L 216.234287 101.557035 
L 221.239099 124.519797 
L 222.351279 131.299466 
L 223.463459 139.545457 
L 224.575639 149.776239 
L 225.409775 159.521974 
L 226.24391 171.654891 
L 227.35609 191.707706 
L 229.302406 232.939987 
L 230.692631 259.982844 
L 231.526766 272.156238 
L 232.082856 277.686675 
L 232.638947 280.64979 
L 232.916992 281.043495 
L 233.195037 280.652717 
L 233.473082 279.439692 
L 233.751127 277.374308 
L 234.307217 270.612106 
L 234.863307 260.332521 
L 235.697442 238.768157 
L 236.809623 201.350054 
L 238.755938 132.898998 
L 239.590073 111.403854 
L 240.146164 101.424209 
L 240.702254 95.029967 
L 241.258344 91.875722 
L 241.536389 91.317304 
L 241.814434 91.304587 
L 242.092479 91.728356 
L 242.648569 93.449486 
L 244.594885 100.778791 
L 245.42902 103.893783 
L 245.98511 107.033584 
L 246.5412 111.76332 
L 247.09729 118.565255 
L 247.931426 132.981103 
L 249.043606 158.35835 
L 250.711876 197.80496 
L 251.546012 213.297576 
L 252.380147 225.138663 
L 253.492327 237.020179 
L 255.994733 259.671556 
L 256.828868 265.278652 
L 257.384958 267.356105 
L 257.663003 267.728336 
L 257.941048 267.591311 
L 258.219093 266.904721 
L 258.497139 265.635527 
L 259.053229 261.254077 
L 259.609319 254.331073 
L 260.165409 244.871337 
L 260.999544 226.26812 
L 262.111724 195.182117 
L 263.779995 146.550038 
L 264.61413 128.553873 
L 265.17022 121.226103 
L 265.448265 119.254004 
L 265.72631 118.494187 
L 266.004356 118.980146 
L 266.282401 120.718935 
L 266.838491 127.846841 
L 267.394581 139.397227 
L 268.228716 163.04569 
L 270.731122 241.203013 
L 271.565257 258.493201 
L 272.121347 266.480113 
L 272.677437 271.921368 
L 273.233527 275.269862 
L 273.789618 277.042073 
L 274.067663 277.491658 
L 274.345708 277.721418 
L 274.623753 277.774658 
L 275.179843 277.481629 
L 275.735933 276.789281 
L 276.292023 275.763595 
L 277.126159 273.578124 
L 277.960294 270.514021 
L 278.794429 266.537193 
L 279.906609 259.98198 
L 281.57488 248.419287 
L 283.24315 237.136258 
L 284.35533 231.251608 
L 285.467511 226.723751 
L 286.857736 221.290846 
L 287.969916 215.975891 
L 290.194277 204.727796 
L 291.862547 197.92459 
L 293.808863 190.484556 
L 294.364953 188.924708 
L 294.921043 187.981247 
L 295.199088 187.786422 
L 295.477133 187.786206 
L 295.755179 187.97832 
L 296.311269 188.886079 
L 296.867359 190.338125 
L 299.64781 199.214754 
L 300.481945 202.22144 
L 301.31608 206.070721 
L 302.706305 214.02697 
L 303.818486 220.077412 
L 304.652621 223.608159 
L 305.764801 227.226409 
L 307.155027 231.749875 
L 309.935477 241.649815 
L 310.769613 243.596649 
L 312.437883 247.18402 
L 313.272018 249.686825 
L 314.384199 253.919421 
L 316.330514 261.517451 
L 317.442694 264.93255 
L 320.223145 272.206911 
L 321.335325 274.861617 
L 321.891416 275.825089 
L 322.447506 276.387946 
L 322.725551 276.490781 
L 323.003596 276.465468 
L 323.559686 276.027856 
L 324.115776 275.110619 
L 324.949911 273.04509 
L 326.618182 267.893386 
L 328.286452 262.22194 
L 329.120587 258.63812 
L 330.232768 252.677028 
L 338.57412 203.098824 
L 339.964345 197.098623 
L 342.188706 187.875653 
L 344.135022 178.621203 
L 349.695923 151.662706 
L 355.812915 127.093598 
L 357.75923 120.632031 
L 358.87141 117.622177 
L 359.705546 115.930271 
L 360.817726 114.241244 
L 363.876222 110.188165 
L 364.432312 109.882108 
L 364.988402 109.822269 
L 366.656673 110.048717 
L 367.212763 109.761758 
L 367.768853 109.160632 
L 369.715168 106.387063 
L 370.271259 106.217479 
L 370.549304 106.320986 
L 371.105394 106.887946 
L 371.939529 108.385986 
L 373.329754 111.095877 
L 374.441935 112.651549 
L 375.27607 113.858217 
L 375.83216 114.951444 
L 376.666295 117.216836 
L 377.778476 121.236468 
L 379.168701 127.16529 
L 380.002836 131.381283 
L 380.836971 136.684505 
L 381.671107 143.543303 
L 382.783287 155.185871 
L 386.953963 202.878975 
L 387.510053 206.777681 
L 388.066143 209.321275 
L 388.344188 209.995844 
L 388.622233 210.23045 
L 388.900279 210.000427 
L 389.178324 209.288044 
L 389.734414 206.389159 
L 390.290504 201.57907 
L 391.124639 191.264839 
L 392.236819 173.742133 
L 394.46118 138.152698 
L 396.407496 112.276823 
L 397.797721 92.228279 
L 400.578172 48.173219 
L 401.134262 43.109641 
L 401.412307 41.61472 
L 401.690352 40.893435 
L 401.968397 40.984226 
L 402.246442 41.905757 
L 402.524487 43.653856 
L 403.080577 49.501676 
L 403.636668 58.067352 
L 404.748848 80.296449 
L 406.139073 108.670402 
L 406.973208 121.834811 
L 407.529299 128.203189 
L 408.085389 132.480748 
L 408.641479 134.647336 
L 408.919524 134.954066 
L 409.197569 134.759577 
L 409.475614 134.082248 
L 410.031704 131.375668 
L 410.587794 127.081265 
L 411.42193 118.432764 
L 413.924335 90.004251 
L 416.704786 63.274169 
L 417.816966 48.087947 
L 419.207192 28.975954 
L 419.763282 23.978309 
L 420.041327 22.531038 
L 420.319372 21.927273 
L 420.597417 22.253149 
L 420.875462 23.575367 
L 421.153507 25.935964 
L 421.709597 33.80958 
L 422.265688 45.673221 
L 423.099823 69.497915 
L 425.880273 156.831734 
L 426.436364 168.803992 
L 426.436364 168.803992 
" clip-path="url(#pf7b7cea184)" style="fill: none; stroke-dasharray: 11.1,4.8; stroke-dashoffset: 0; stroke: #000000; stroke-width: 3"/>
   </g>
   <g id="line2d_2">
    <path d="M 27.163636 149.312042 
L 27.441681 158.92591 
L 27.719727 159.978397 
L 27.997772 157.621111 
L 28.275817 158.480812 
L 28.553862 163.033502 
L 28.831907 153.85048 
L 29.109952 161.935212 
L 29.387997 161.383152 
L 29.666042 159.913375 
L 29.944087 153.510304 
L 30.222132 150.121837 
L 30.500177 169.94259 
L 30.778222 167.038691 
L 31.334312 168.433584 
L 31.612358 168.584262 
L 31.890403 150.944589 
L 32.168448 166.231942 
L 32.446493 167.811704 
L 32.724538 151.445903 
L 33.280628 155.595267 
L 33.558673 163.413411 
L 33.836718 163.917412 
L 34.114763 162.938225 
L 34.670853 156.762393 
L 34.948898 166.884054 
L 35.226944 166.716629 
L 35.783034 173.041987 
L 36.061079 155.915361 
L 36.339124 170.629396 
L 36.617169 164.53982 
L 36.895214 164.739204 
L 37.173259 161.693408 
L 37.451304 167.618871 
L 37.729349 155.143091 
L 38.007394 168.643645 
L 38.285439 166.159843 
L 38.563484 164.854372 
L 38.84153 165.149056 
L 39.119575 166.35486 
L 39.39762 165.668989 
L 39.675665 165.400577 
L 40.5098 171.001219 
L 40.787845 151.345779 
L 41.343935 156.063639 
L 41.62198 156.922044 
L 41.900025 168.841133 
L 42.17807 173.820903 
L 42.456115 155.576096 
L 42.734161 168.304645 
L 43.012206 170.321491 
L 43.290251 166.644482 
L 43.568296 168.95191 
L 43.846341 166.018667 
L 44.124386 166.696547 
L 44.402431 166.843482 
L 44.958521 169.204559 
L 45.236566 167.140014 
L 45.514611 172.870795 
L 45.792656 172.153734 
L 46.070701 166.058927 
L 46.348747 152.184942 
L 46.626792 169.874905 
L 46.904837 151.98124 
L 47.182882 168.461968 
L 47.460927 169.934744 
L 47.738972 163.724219 
L 48.017017 154.544508 
L 48.295062 166.47329 
L 48.573107 166.983362 
L 48.851152 165.893158 
L 49.129197 166.497523 
L 49.407242 168.798713 
L 49.685287 175.844851 
L 50.241378 164.093211 
L 50.519423 152.543953 
L 51.075513 168.291809 
L 51.353558 151.728591 
L 51.631603 166.127596 
L 51.909648 166.925994 
L 52.187693 150.778843 
L 52.465738 168.649068 
L 52.743783 167.388824 
L 53.021828 167.991533 
L 53.577918 166.875825 
L 53.855964 175.84166 
L 54.134009 149.937737 
L 54.412054 168.449036 
L 54.690099 171.605752 
L 54.968144 165.450867 
L 55.246189 150.078145 
L 55.524234 151.296809 
L 55.802279 164.195278 
L 56.080324 163.283487 
L 56.358369 160.776627 
L 56.636414 162.579838 
L 56.914459 165.690079 
L 57.192504 165.642861 
L 57.47055 166.401838 
L 57.748595 165.370058 
L 58.304685 170.909181 
L 58.58273 150.586706 
L 58.860775 149.719231 
L 59.13882 150.556546 
L 59.416865 150.646161 
L 59.972955 165.402497 
L 60.251 150.956441 
L 60.529045 165.881497 
L 60.80709 164.894848 
L 61.085135 165.351415 
L 61.363181 151.008291 
L 61.641226 165.373393 
L 61.919271 165.099462 
L 62.197316 169.344535 
L 62.475361 170.701712 
L 62.753406 150.900849 
L 63.031451 165.431193 
L 63.309496 163.317942 
L 63.587541 162.33098 
L 63.865586 160.158346 
L 64.143631 159.727788 
L 64.421676 165.053467 
L 64.977767 157.777667 
L 65.255812 157.273617 
L 65.533857 156.127221 
L 66.089947 167.295442 
L 66.367992 164.474847 
L 66.646037 163.95393 
L 66.924082 166.337633 
L 67.202127 165.563035 
L 67.480172 152.624042 
L 67.758217 168.137364 
L 68.036262 169.760482 
L 68.314307 162.473164 
L 68.592352 163.28783 
L 68.870398 165.153999 
L 69.148443 163.3511 
L 69.426488 160.425007 
L 69.704533 161.524808 
L 69.982578 168.593307 
L 70.260623 150.512111 
L 70.538668 167.042122 
L 70.816713 164.070561 
L 71.372803 171.309508 
L 71.650848 152.872228 
L 71.928893 170.210331 
L 72.206938 161.917457 
L 72.763029 163.940398 
L 73.041074 163.279576 
L 73.319119 167.807865 
L 73.875209 157.829756 
L 74.153254 160.605484 
L 74.431299 171.752759 
L 74.709344 155.502413 
L 74.987389 164.83712 
L 75.265434 164.40637 
L 75.543479 169.102108 
L 75.821524 170.659052 
L 76.09957 165.328646 
L 76.377615 152.085994 
L 76.65566 167.145508 
L 76.933705 168.406664 
L 77.21175 164.208282 
L 77.489795 148.298184 
L 77.76784 150.880191 
L 78.045885 164.80305 
L 78.32393 167.371884 
L 78.601975 172.64725 
L 78.88002 152.789332 
L 79.158065 167.55632 
L 79.43611 165.109587 
L 79.714155 165.861535 
L 79.992201 164.471584 
L 80.270246 167.315164 
L 80.548291 161.094921 
L 80.826336 167.176196 
L 81.104381 163.758241 
L 81.382426 161.904069 
L 81.660471 163.026424 
L 81.938516 159.035391 
L 82.216561 166.068021 
L 82.772651 162.920686 
L 83.050696 171.760509 
L 83.328741 167.898488 
L 83.606787 158.215807 
L 83.884832 165.690535 
L 84.162877 164.191439 
L 84.440922 161.717282 
L 84.718967 164.066074 
L 84.997012 164.282349 
L 85.275057 166.76524 
L 85.553102 156.269021 
L 85.831147 154.873623 
L 86.109192 163.970389 
L 86.387237 164.173612 
L 86.665282 155.86188 
L 86.943327 165.583526 
L 87.221372 164.05866 
L 87.499418 171.358118 
L 87.777463 158.485347 
L 88.055508 165.612006 
L 88.333553 163.386538 
L 88.611598 163.142623 
L 88.889643 160.855421 
L 89.167688 161.683643 
L 89.445733 169.237453 
L 90.279868 161.281205 
L 90.557913 164.172076 
L 90.835958 160.812113 
L 91.114004 164.185608 
L 91.392049 162.985659 
L 91.670094 158.365309 
L 92.226184 170.867865 
L 92.504229 169.476474 
L 92.782274 165.668654 
L 93.060319 165.052436 
L 93.338364 159.974318 
L 93.616409 161.800442 
L 93.894454 171.232538 
L 94.172499 154.792526 
L 94.450544 158.203594 
L 94.72859 154.533687 
L 95.006635 164.276375 
L 95.28468 163.9612 
L 95.562725 155.347177 
L 95.84077 163.579156 
L 96.118815 163.943013 
L 96.39686 171.447853 
L 96.95295 166.829877 
L 97.230995 162.33146 
L 97.50904 161.590981 
L 97.787085 159.342936 
L 98.06513 161.014112 
L 98.343175 156.620473 
L 98.621221 161.742307 
L 98.899266 163.757065 
L 99.177311 164.333407 
L 99.455356 162.564218 
L 99.733401 163.652383 
L 100.011446 158.766307 
L 100.289491 159.271317 
L 100.567536 156.675994 
L 101.123626 164.82594 
L 101.401671 164.009066 
L 101.679716 163.567759 
L 101.957761 160.403749 
L 102.235807 162.835678 
L 102.513852 162.370137 
L 102.791897 168.782062 
L 103.069942 164.116796 
L 103.347987 164.121619 
L 103.626032 165.750662 
L 103.904077 163.443834 
L 104.182122 163.056847 
L 104.460167 159.561851 
L 104.738212 162.00808 
L 105.016257 159.39325 
L 105.294302 161.835016 
L 105.572347 166.78002 
L 105.850393 156.949516 
L 106.128438 163.894451 
L 106.406483 161.128128 
L 106.684528 164.729199 
L 106.962573 166.813538 
L 107.240618 155.43684 
L 107.518663 169.579309 
L 107.796708 165.603392 
L 108.074753 166.09019 
L 108.352798 164.827379 
L 108.630843 164.29317 
L 109.464978 159.786331 
L 109.743024 161.548657 
L 110.299114 167.906117 
L 110.577159 162.93477 
L 110.855204 163.637219 
L 111.133249 168.142115 
L 111.411294 169.676146 
L 111.689339 165.895773 
L 111.967384 165.138355 
L 112.523474 164.502439 
L 112.801519 159.349271 
L 113.079564 158.279149 
L 113.35761 163.876624 
L 113.635655 162.498837 
L 113.9137 158.830249 
L 114.191745 162.542553 
L 114.46979 155.146258 
L 114.747835 167.202612 
L 115.02588 163.587625 
L 115.303925 164.268865 
L 115.58197 164.424533 
L 115.860015 166.136353 
L 116.13806 166.92801 
L 116.416105 169.064318 
L 116.69415 162.544064 
L 116.972195 163.673737 
L 117.250241 163.283727 
L 117.528286 161.622796 
L 117.806331 156.86518 
L 118.084376 160.194552 
L 118.362421 156.911655 
L 118.640466 164.02543 
L 118.918511 150.362225 
L 119.474601 163.194928 
L 119.752646 161.601706 
L 120.030691 161.1574 
L 120.308736 162.4455 
L 120.586781 161.204618 
L 120.864827 151.302688 
L 121.142872 164.679317 
L 121.420917 159.785275 
L 121.698962 161.32564 
L 121.977007 160.693827 
L 122.255052 157.999868 
L 122.533097 158.323104 
L 122.811142 155.873468 
L 123.089187 167.13344 
L 123.367232 167.120052 
L 123.645277 165.392108 
L 123.923322 162.203528 
L 124.201367 162.400273 
L 124.479413 160.153283 
L 124.757458 161.261314 
L 125.035503 165.177608 
L 125.313548 163.091709 
L 125.591593 166.382308 
L 125.869638 161.062435 
L 126.147683 165.592835 
L 126.425728 164.480173 
L 126.703773 159.815531 
L 126.981818 163.569462 
L 127.259863 162.008391 
L 127.537908 174.979847 
L 127.815953 159.438453 
L 128.093998 162.42964 
L 128.372044 167.019112 
L 128.650089 166.834772 
L 128.928134 159.271748 
L 129.206179 160.364688 
L 129.484224 165.657713 
L 130.040314 159.586995 
L 130.596404 160.815017 
L 130.874449 157.751418 
L 131.152494 160.924546 
L 131.430539 159.274892 
L 131.708584 161.489946 
L 131.98663 165.606271 
L 132.264675 155.930764 
L 132.54272 168.467799 
L 132.820765 163.030167 
L 133.09881 164.93638 
L 133.376855 159.490471 
L 133.6549 160.356362 
L 133.932945 162.104124 
L 134.21099 169.391058 
L 134.489035 162.641717 
L 134.76708 164.091003 
L 135.045125 163.438052 
L 135.32317 165.071894 
L 135.601215 164.607529 
L 135.879261 163.004302 
L 136.157306 162.867205 
L 136.435351 173.951546 
L 136.713396 167.581009 
L 136.991441 153.957058 
L 137.269486 159.854304 
L 137.825576 156.389947 
L 138.103621 157.958695 
L 138.381666 163.2248 
L 138.659711 159.138442 
L 138.937756 167.084158 
L 139.215801 163.723259 
L 139.493847 166.496108 
L 139.771892 165.691735 
L 140.049937 165.487673 
L 140.606027 162.439958 
L 140.884072 175.819826 
L 141.162117 157.213298 
L 141.440162 167.341653 
L 141.718207 159.886431 
L 141.996252 162.61482 
L 142.274297 158.993259 
L 142.552342 158.68425 
L 143.108433 165.616468 
L 143.386478 166.458079 
L 143.942568 165.034105 
L 144.220613 164.871263 
L 144.498658 165.340546 
L 144.776703 163.959232 
L 145.054748 164.975105 
L 145.332793 171.073031 
L 145.610838 157.780882 
L 145.888883 162.826464 
L 146.444973 165.65992 
L 146.723018 160.866362 
L 147.001064 162.015517 
L 147.279109 165.877227 
L 147.557154 163.710567 
L 147.835199 167.794405 
L 148.113244 168.518976 
L 148.669334 164.977553 
L 148.947379 160.529785 
L 149.225424 162.405191 
L 149.503469 160.469754 
L 149.781514 157.746163 
L 150.059559 164.078743 
L 150.337604 157.744148 
L 150.61565 165.125903 
L 150.893695 167.095243 
L 151.17174 162.796497 
L 151.449785 162.059161 
L 151.72783 169.082409 
L 152.005875 169.089847 
L 152.28392 168.979838 
L 152.561965 166.592776 
L 152.84001 166.213396 
L 153.3961 163.789432 
L 153.674145 161.651108 
L 153.95219 158.525583 
L 154.230236 165.644852 
L 154.508281 156.089383 
L 154.786326 164.707125 
L 155.064371 157.122508 
L 155.342416 161.466457 
L 155.620461 159.920789 
L 155.898506 159.900011 
L 156.176551 165.255418 
L 156.454596 166.249074 
L 156.732641 162.144193 
L 157.010686 168.378136 
L 157.288731 165.828664 
L 157.566776 166.04753 
L 157.844821 164.522689 
L 158.122867 165.222572 
L 158.400912 157.273305 
L 158.678957 167.116165 
L 158.957002 168.972232 
L 159.235047 159.161092 
L 159.513092 166.430726 
L 159.791137 165.979054 
L 160.069182 161.94265 
L 160.347227 160.846736 
L 160.903317 166.435477 
L 161.181362 164.568756 
L 161.459407 164.083661 
L 161.737453 161.578577 
L 162.015498 161.979264 
L 162.293543 161.421277 
L 162.571588 163.653247 
L 162.849633 163.051065 
L 163.127678 172.316768 
L 163.683768 159.88979 
L 163.961813 168.385238 
L 164.239858 169.220994 
L 164.517903 162.09232 
L 164.795948 160.26538 
L 165.073993 163.090918 
L 165.352038 160.616137 
L 165.630084 164.20893 
L 165.908129 164.67399 
L 166.186174 162.979061 
L 166.464219 162.793282 
L 167.020309 161.042832 
L 167.298354 163.629661 
L 167.576399 157.221744 
L 167.854444 165.878834 
L 168.132489 158.362741 
L 168.410534 164.103983 
L 168.688579 165.705579 
L 168.966624 163.18785 
L 169.24467 163.169375 
L 169.522715 164.537133 
L 169.80076 167.087109 
L 170.078805 167.084686 
L 170.35685 164.966132 
L 170.634895 170.827436 
L 170.91294 171.405001 
L 171.190985 164.690378 
L 171.46903 169.151366 
L 171.747075 164.399412 
L 172.02512 167.059157 
L 172.303165 158.845725 
L 172.58121 162.887071 
L 172.859256 158.641614 
L 173.137301 158.235601 
L 173.415346 154.660515 
L 173.693391 153.989473 
L 173.971436 152.495199 
L 174.249481 160.680918 
L 174.527526 165.359909 
L 174.805571 163.307361 
L 175.639706 173.079776 
L 175.917751 174.910483 
L 176.195796 168.17333 
L 176.473841 165.224011 
L 176.751887 159.274772 
L 177.029932 163.494292 
L 177.307977 164.010794 
L 177.586022 164.245112 
L 177.864067 162.236615 
L 178.142112 158.311084 
L 178.420157 151.112157 
L 178.698202 165.048021 
L 178.976247 163.55677 
L 179.254292 166.118095 
L 179.532337 173.459301 
L 180.088427 168.620828 
L 180.366473 176.335344 
L 180.922563 165.674028 
L 181.200608 158.415574 
L 181.756698 165.164652 
L 182.034743 165.205896 
L 182.868878 150.652159 
L 183.146923 160.698194 
L 183.424968 159.573583 
L 183.703013 160.224015 
L 183.981058 162.154942 
L 184.259104 162.524222 
L 184.815194 159.016772 
L 185.093239 153.119502 
L 185.649329 165.570665 
L 185.927374 158.660329 
L 186.205419 162.89307 
L 186.483464 164.797676 
L 186.761509 161.311988 
L 187.039554 159.853992 
L 187.317599 151.358952 
L 187.595644 160.781522 
L 187.87369 161.243392 
L 188.42978 173.043978 
L 188.707825 172.9821 
L 188.98587 171.429906 
L 189.263915 171.376041 
L 189.54196 167.332008 
L 189.820005 157.905166 
L 190.09805 154.562695 
L 190.376095 163.475217 
L 190.65414 157.56751 
L 190.932185 155.429642 
L 191.21023 154.981184 
L 191.488276 154.798668 
L 191.766321 149.641277 
L 192.044366 156.711552 
L 192.322411 153.966511 
L 192.600456 158.620213 
L 192.878501 168.931636 
L 193.156546 170.97809 
L 193.434591 170.220168 
L 193.712636 166.898426 
L 193.990681 167.235363 
L 194.268726 154.764142 
L 194.546771 166.21186 
L 194.824816 159.197393 
L 195.102861 163.031007 
L 195.380907 163.243371 
L 195.936997 159.103724 
L 196.215042 150.807635 
L 196.493087 157.815072 
L 196.771132 155.61319 
L 197.327222 164.089468 
L 197.605267 164.688218 
L 197.883312 163.548756 
L 198.161357 171.05422 
L 198.717447 159.786955 
L 198.995493 168.408152 
L 199.273538 160.131618 
L 199.551583 165.098838 
L 199.829628 165.254698 
L 200.107673 160.891723 
L 200.385718 160.729121 
L 200.663763 146.970135 
L 200.941808 158.887329 
L 201.219853 156.563418 
L 201.775943 160.630965 
L 202.053988 160.588856 
L 202.332033 158.554255 
L 202.610079 159.591674 
L 202.888124 157.158761 
L 203.166169 152.8157 
L 203.444214 171.102399 
L 203.722259 161.538604 
L 204.000304 164.384776 
L 204.278349 165.108532 
L 204.834439 161.054277 
L 205.112484 168.373338 
L 205.390529 165.323751 
L 205.668574 158.405473 
L 206.224664 163.684102 
L 206.50271 164.568852 
L 206.780755 163.587577 
L 207.0588 170.146533 
L 207.336845 161.529415 
L 207.61489 160.168495 
L 207.892935 156.226553 
L 208.17098 167.322626 
L 208.449025 156.902082 
L 208.72707 155.468823 
L 209.005115 155.966442 
L 209.28316 157.49685 
L 209.561205 150.700602 
L 209.83925 160.563999 
L 210.117296 161.525792 
L 210.395341 160.640898 
L 210.673386 163.776788 
L 210.951431 170.68806 
L 211.229476 171.905428 
L 211.785566 169.509177 
L 212.063611 156.076835 
L 212.341656 168.695614 
L 212.619701 158.181185 
L 212.897746 162.276012 
L 213.175791 162.88604 
L 213.453836 159.079995 
L 213.731881 159.454745 
L 214.009927 150.545725 
L 214.287972 161.074671 
L 214.566017 159.750461 
L 215.400152 165.270054 
L 215.678197 165.9011 
L 215.956242 172.60447 
L 216.234287 168.30822 
L 216.512332 161.086596 
L 216.790377 157.140359 
L 217.346467 161.78547 
L 217.624513 162.084954 
L 217.902558 157.726753 
L 218.180603 167.504591 
L 218.458648 163.542518 
L 218.736693 157.711445 
L 219.292783 163.529826 
L 219.848873 163.427327 
L 220.126918 162.217084 
L 220.404963 164.627708 
L 220.683008 155.509611 
L 220.961053 160.470786 
L 221.239099 155.164061 
L 221.517144 167.286181 
L 221.795189 156.741951 
L 222.073234 157.941852 
L 222.351279 157.47372 
L 222.629324 161.612359 
L 222.907369 147.164073 
L 223.185414 156.63926 
L 223.463459 160.974715 
L 223.741504 170.137847 
L 224.297594 173.127787 
L 224.575639 172.533522 
L 224.853684 168.544649 
L 225.13173 166.334873 
L 225.409775 159.892165 
L 225.68782 156.458927 
L 225.965865 164.087908 
L 226.24391 155.003114 
L 226.521955 154.319811 
L 226.8 163.60562 
L 227.078045 160.835099 
L 227.35609 168.220693 
L 227.634135 153.978868 
L 227.91218 159.267358 
L 228.190225 168.549856 
L 228.46827 171.768331 
L 228.746316 172.191547 
L 229.024361 171.312099 
L 229.302406 167.606466 
L 229.580451 168.127311 
L 229.858496 160.230758 
L 230.136541 160.357394 
L 230.414586 158.596003 
L 230.692631 160.233589 
L 230.970676 161.202291 
L 231.248721 159.020515 
L 231.526766 161.882643 
L 231.804811 147.135953 
L 232.916992 170.045857 
L 233.195037 171.208473 
L 233.473082 168.82441 
L 233.751127 171.307109 
L 234.029172 160.178836 
L 234.307217 166.837675 
L 234.585262 163.662532 
L 234.863307 157.228342 
L 235.141352 163.844857 
L 235.419397 163.421016 
L 235.697442 160.831116 
L 235.975487 168.160086 
L 236.253533 162.904874 
L 236.531578 153.446554 
L 237.087668 160.31567 
L 237.365713 160.661772 
L 237.643758 160.820175 
L 237.921803 158.192893 
L 238.199848 159.359252 
L 238.755938 150.149957 
L 239.033983 169.663549 
L 239.312028 158.145867 
L 239.590073 164.031788 
L 239.868119 164.167973 
L 240.146164 162.530604 
L 240.424209 159.369209 
L 240.702254 163.730145 
L 240.980299 160.367375 
L 241.258344 155.453683 
L 241.536389 161.509716 
L 241.814434 172.352182 
L 242.092479 173.836594 
L 242.370524 173.276065 
L 242.648569 169.128596 
L 242.926614 157.349292 
L 243.204659 162.547471 
L 243.482704 163.756562 
L 243.76075 157.839329 
L 244.038795 158.716161 
L 244.31684 156.591777 
L 244.594885 156.371856 
L 244.87293 163.086935 
L 245.150975 149.768057 
L 245.42902 159.735034 
L 245.707065 156.634365 
L 245.98511 163.04821 
L 246.263155 175.860495 
L 246.5412 177.459955 
L 246.819245 177.422309 
L 247.09729 174.36291 
L 247.375336 167.685044 
L 247.653381 164.78112 
L 247.931426 169.99967 
L 248.209471 160.25583 
L 248.487516 167.963725 
L 248.765561 165.713497 
L 249.043606 160.563136 
L 249.321651 161.328951 
L 249.599696 153.283688 
L 249.877741 158.910099 
L 250.155786 160.39763 
L 250.433831 169.92829 
L 250.711876 174.343547 
L 250.989921 173.834699 
L 251.267967 174.400843 
L 251.546012 173.371534 
L 251.824057 166.309225 
L 252.102102 167.918858 
L 252.380147 166.713462 
L 252.658192 158.18356 
L 252.936237 166.344735 
L 253.214282 165.463919 
L 253.492327 159.059288 
L 253.770372 169.926755 
L 254.048417 173.86445 
L 254.326462 161.463002 
L 254.604507 173.218073 
L 254.882553 176.102514 
L 255.160598 175.714784 
L 255.438643 174.941866 
L 255.994733 171.507908 
L 256.272778 158.927998 
L 256.550823 164.756815 
L 257.106913 156.316263 
L 257.384958 158.386063 
L 257.941048 157.403972 
L 258.219093 163.489133 
L 258.497139 154.105816 
L 258.775184 164.458867 
L 259.053229 166.185012 
L 259.331274 176.623527 
L 259.887364 174.938867 
L 260.165409 175.076636 
L 260.443454 174.120962 
L 260.721499 169.59548 
L 260.999544 163.109872 
L 261.277589 150.330026 
L 261.555634 169.353125 
L 261.833679 156.176095 
L 262.111724 155.426523 
L 262.38977 157.657772 
L 262.667815 166.266277 
L 262.94586 178.317449 
L 263.223905 162.146256 
L 263.50195 164.616383 
L 263.779995 172.993161 
L 264.05804 172.683504 
L 264.336085 170.930295 
L 264.61413 169.972342 
L 264.892175 169.941774 
L 265.17022 170.095979 
L 266.004356 156.923364 
L 266.282401 162.20324 
L 266.560446 163.059583 
L 266.838491 163.362545 
L 267.116536 164.009642 
L 267.394581 154.827796 
L 267.672626 165.279819 
L 267.950671 164.701943 
L 268.228716 172.414516 
L 268.506761 171.992355 
L 268.784806 171.273686 
L 269.062851 170.14862 
L 269.340896 166.794559 
L 269.618942 160.807603 
L 269.896987 167.078135 
L 270.175032 165.403001 
L 270.453077 158.948584 
L 270.731122 164.91769 
L 271.009167 165.285674 
L 271.287212 164.080014 
L 271.565257 167.164223 
L 271.843302 171.79789 
L 272.399392 162.906578 
L 272.955482 172.55634 
L 273.233527 171.575017 
L 273.511573 165.357293 
L 273.789618 162.145345 
L 274.067663 166.016099 
L 274.345708 162.385397 
L 274.623753 155.45685 
L 274.901798 157.900944 
L 275.179843 163.627742 
L 275.457888 163.840226 
L 275.735933 163.818224 
L 276.013978 162.217708 
L 276.570068 177.34162 
L 276.848113 164.404763 
L 277.126159 161.070736 
L 277.682249 169.889613 
L 277.960294 170.313214 
L 278.238339 169.06391 
L 278.794429 149.419651 
L 279.072474 164.579481 
L 279.350519 156.034655 
L 279.628564 158.597371 
L 279.906609 156.155389 
L 280.184654 157.660939 
L 280.462699 163.911198 
L 280.740744 152.206848 
L 281.01879 164.935373 
L 281.296835 162.881409 
L 281.57488 162.683705 
L 281.852925 171.551216 
L 282.409015 170.61776 
L 282.68706 168.229906 
L 282.965105 159.848474 
L 283.24315 166.20663 
L 283.521195 162.13306 
L 283.79924 162.556565 
L 284.077285 170.515572 
L 284.35533 165.80208 
L 284.633376 163.737319 
L 284.911421 163.292173 
L 285.189466 156.387979 
L 285.467511 163.359066 
L 285.745556 162.5432 
L 286.023601 162.445308 
L 286.301646 168.652931 
L 286.579691 168.150368 
L 286.857736 168.808359 
L 287.135781 167.843159 
L 287.691871 148.30068 
L 287.969916 165.510298 
L 288.247962 157.622718 
L 288.526007 163.410891 
L 288.804052 162.7559 
L 289.082097 160.56959 
L 289.638187 174.968786 
L 289.916232 163.00339 
L 290.194277 164.021135 
L 290.472322 172.192627 
L 291.028412 169.903049 
L 291.306457 170.082375 
L 291.584502 162.465462 
L 291.862547 165.872428 
L 292.140593 145.964699 
L 292.418638 166.282304 
L 292.696683 157.644 
L 292.974728 158.560853 
L 293.252773 157.502032 
L 293.530818 158.934932 
L 293.808863 162.294031 
L 294.086908 154.416024 
L 294.364953 167.329296 
L 294.642998 166.827862 
L 294.921043 175.299485 
L 295.477133 171.169796 
L 295.755179 171.014607 
L 296.033224 169.761657 
L 296.311269 162.342833 
L 296.589314 170.715772 
L 296.867359 149.78574 
L 297.145404 159.741248 
L 297.423449 157.87292 
L 297.701494 157.32501 
L 297.979539 159.277123 
L 298.257584 165.618244 
L 298.535629 177.314556 
L 298.813674 167.618895 
L 299.091719 167.03358 
L 299.369764 175.557676 
L 299.925855 169.147767 
L 300.2039 168.613486 
L 300.481945 168.688824 
L 300.75999 162.085626 
L 301.038035 170.080983 
L 301.594125 159.685176 
L 301.87217 166.177358 
L 302.150215 164.770731 
L 302.42826 164.124786 
L 302.706305 167.277975 
L 302.98435 157.276304 
L 303.262396 166.400087 
L 303.540441 166.904232 
L 303.818486 174.494296 
L 304.096531 170.95628 
L 304.374576 170.370725 
L 304.652621 170.660923 
L 304.930666 163.106345 
L 305.208711 165.750158 
L 305.486756 150.272587 
L 305.764801 161.29277 
L 306.042846 161.564973 
L 306.320891 166.452224 
L 306.598936 164.223518 
L 306.876982 163.276529 
L 307.155027 165.849059 
L 307.433072 157.142422 
L 307.711117 166.92813 
L 307.989162 167.410346 
L 308.267207 172.932938 
L 308.545252 171.165693 
L 309.101342 169.273059 
L 309.379387 161.882763 
L 309.657432 164.376547 
L 309.935477 161.704757 
L 310.213522 163.945532 
L 310.491567 164.818214 
L 310.769613 169.042221 
L 311.047658 166.910903 
L 311.325703 166.204374 
L 311.603748 166.261094 
L 311.881793 170.788303 
L 312.159838 156.537601 
L 312.437883 166.884942 
L 312.715928 163.922211 
L 312.993973 165.88656 
L 313.272018 170.483182 
L 313.550063 170.116541 
L 313.828108 165.473901 
L 314.106153 174.233946 
L 314.384199 162.863078 
L 314.662244 163.835019 
L 314.940289 163.821799 
L 315.218334 165.663303 
L 315.496379 164.37182 
L 315.774424 164.163583 
L 316.052469 165.78123 
L 316.608559 176.248993 
L 316.886604 165.889919 
L 317.164649 163.194496 
L 317.442694 165.503676 
L 317.720739 169.145583 
L 317.998785 168.558109 
L 318.27683 168.488625 
L 318.554875 165.139363 
L 318.83292 160.047617 
L 319.667055 173.561776 
L 320.50119 164.603738 
L 320.779235 172.130556 
L 321.05728 175.821506 
L 321.335325 166.282592 
L 321.61337 164.292402 
L 322.169461 163.038133 
L 322.447506 162.891894 
L 322.725551 167.990094 
L 323.003596 169.471411 
L 323.559686 161.692257 
L 323.837731 162.148128 
L 324.115776 166.982978 
L 324.393821 163.246778 
L 324.671866 161.72268 
L 324.949911 162.547375 
L 325.227956 159.19437 
L 325.506002 181.68173 
L 325.784047 167.466898 
L 326.062092 162.365866 
L 326.340137 169.44833 
L 326.896227 168.706747 
L 327.174272 165.106156 
L 327.452317 155.004146 
L 327.730362 170.916643 
L 328.008407 166.284727 
L 328.286452 163.987904 
L 328.564497 164.793261 
L 328.842542 160.429182 
L 329.120587 162.243981 
L 329.398633 161.263426 
L 329.676678 153.045507 
L 329.954723 178.522735 
L 330.232768 171.531589 
L 330.510813 168.535292 
L 330.788858 171.96673 
L 331.066903 169.394849 
L 331.344948 168.937106 
L 331.622993 169.797623 
L 331.901038 166.390802 
L 332.179083 152.940753 
L 332.457128 157.892378 
L 332.735173 160.550371 
L 333.013219 158.111556 
L 333.291264 157.975107 
L 333.569309 158.023621 
L 334.125399 170.122755 
L 334.403444 171.791844 
L 334.681489 168.561084 
L 334.959534 167.552241 
L 335.237579 172.226769 
L 335.515624 166.67121 
L 335.793669 166.005758 
L 336.071714 166.823039 
L 336.349759 164.109046 
L 336.627805 150.973453 
L 336.90585 163.132042 
L 337.183895 161.456355 
L 337.46194 165.945751 
L 337.739985 163.541918 
L 338.01803 163.538055 
L 338.296075 165.836198 
L 338.57412 153.229655 
L 338.852165 173.711662 
L 339.13021 169.410013 
L 339.408255 170.172565 
L 339.6863 169.90089 
L 339.964345 170.637602 
L 340.24239 169.407589 
L 340.520436 163.737895 
L 340.798481 168.4767 
L 341.076526 168.083187 
L 341.354571 161.795979 
L 341.632616 162.234048 
L 341.910661 167.490195 
L 342.188706 164.083277 
L 342.466751 162.0898 
L 342.744796 164.085557 
L 343.022841 153.139177 
L 343.300886 176.10892 
L 343.578931 166.65108 
L 343.856976 167.114437 
L 344.135022 170.23989 
L 344.413067 170.573468 
L 344.691112 167.481821 
L 344.969157 166.658302 
L 345.247202 154.633883 
L 345.525247 170.554441 
L 345.803292 165.854073 
L 346.081337 170.2325 
L 346.359382 171.863056 
L 346.637427 166.79156 
L 346.915472 166.972925 
L 347.193517 163.085159 
L 347.471562 168.375137 
L 347.749607 150.592776 
L 348.027653 176.579068 
L 348.305698 165.529397 
L 348.583743 164.447686 
L 348.861788 165.6449 
L 349.139833 164.782368 
L 349.417878 167.773771 
L 349.695923 156.193586 
L 349.973968 169.86634 
L 350.252013 164.735653 
L 350.808103 170.087485 
L 351.086148 163.37423 
L 351.364193 162.547591 
L 351.642239 162.428537 
L 351.920284 171.526479 
L 352.198329 152.691247 
L 352.476374 174.446694 
L 352.754419 166.367792 
L 353.032464 162.884648 
L 353.310509 171.744697 
L 353.588554 170.622798 
L 353.866599 161.827243 
L 354.422689 174.466224 
L 354.700734 163.168008 
L 355.256825 169.119359 
L 355.53487 168.835279 
L 355.812915 167.17418 
L 356.09096 160.070003 
L 356.369005 162.778598 
L 356.64705 154.075872 
L 356.925095 176.01921 
L 357.20314 164.507046 
L 357.481185 162.764778 
L 357.75923 164.962293 
L 358.037275 165.827537 
L 358.31532 173.332521 
L 358.593365 156.548638 
L 358.87141 167.566517 
L 359.149456 165.24834 
L 359.427501 172.042141 
L 359.705546 173.389984 
L 360.261636 169.0028 
L 360.539681 161.254428 
L 360.817726 172.101141 
L 361.095771 153.53065 
L 361.373816 168.844181 
L 361.651861 163.426415 
L 361.929906 171.842973 
L 362.207951 172.324637 
L 362.764042 168.903756 
L 363.042087 157.554266 
L 363.320132 172.343184 
L 363.598177 167.047736 
L 363.876222 170.901047 
L 364.154267 171.805544 
L 364.432312 157.300465 
L 364.710357 158.554207 
L 364.988402 160.923202 
L 365.266447 152.200034 
L 365.544492 162.211878 
L 365.822537 160.507999 
L 366.100582 162.744791 
L 366.378628 169.655055 
L 366.656673 169.839875 
L 366.934718 169.3144 
L 367.212763 161.839023 
L 367.490808 164.282469 
L 367.768853 155.311619 
L 368.046898 171.378225 
L 368.324943 156.66942 
L 368.602988 156.295581 
L 368.881033 154.855196 
L 369.159078 156.547726 
L 369.437123 161.34817 
L 369.715168 148.246215 
L 369.993213 155.703596 
L 370.271259 159.749262 
L 370.549304 158.259115 
L 370.827349 166.9354 
L 371.105394 165.143634 
L 371.383439 164.295137 
L 371.661484 162.722046 
L 371.939529 162.827808 
L 372.217574 157.82167 
L 372.495619 167.957943 
L 372.773664 165.532084 
L 373.051709 169.146855 
L 373.329754 163.578316 
L 373.607799 160.984409 
L 373.885845 156.684103 
L 374.16389 163.698522 
L 374.441935 157.088581 
L 374.998025 166.313903 
L 375.27607 168.276117 
L 375.554115 166.830789 
L 375.83216 159.666533 
L 376.110205 162.102373 
L 376.38825 157.127498 
L 376.666295 168.501077 
L 376.94434 158.245007 
L 377.50043 165.797329 
L 378.056521 162.189732 
L 378.334566 158.18927 
L 378.612611 164.570868 
L 378.890656 158.94736 
L 379.168701 162.951613 
L 379.446746 164.5558 
L 379.724791 169.131499 
L 380.002836 168.370938 
L 380.280881 162.605295 
L 380.558926 165.164124 
L 380.836971 171.989788 
L 381.115016 165.956428 
L 381.393062 163.100515 
L 381.671107 171.827426 
L 381.949152 170.729856 
L 382.227197 164.687019 
L 382.505242 167.158561 
L 382.783287 161.249342 
L 383.061332 166.77071 
L 383.339377 154.277151 
L 383.617422 156.951052 
L 383.895467 157.590183 
L 384.173512 159.158452 
L 384.451557 159.805166 
L 384.729602 156.177271 
L 385.007648 156.955083 
L 385.285693 160.597974 
L 385.563738 168.797802 
L 385.841783 159.929235 
L 386.119828 171.634928 
L 386.397873 170.575507 
L 386.675918 161.047295 
L 386.953963 160.587249 
L 387.232008 158.908515 
L 387.510053 168.261385 
L 387.788098 153.710575 
L 388.066143 161.921992 
L 388.344188 157.915148 
L 388.622233 159.466861 
L 388.900279 166.192665 
L 389.178324 164.257684 
L 389.456369 152.870405 
L 390.012459 168.693263 
L 390.290504 163.457174 
L 390.568549 174.934836 
L 390.846594 175.629056 
L 391.402684 169.705825 
L 391.680729 162.626865 
L 391.958774 162.616044 
L 392.236819 156.934233 
L 392.514865 162.023963 
L 392.79291 159.574135 
L 393.070955 160.055943 
L 393.349 158.154408 
L 393.627045 152.780238 
L 394.183135 169.966224 
L 394.46118 161.92252 
L 394.739225 163.758361 
L 395.01727 172.722709 
L 395.295315 173.849431 
L 395.57336 167.655484 
L 395.851405 166.398023 
L 396.12945 162.401592 
L 396.407496 169.581996 
L 396.685541 157.965174 
L 396.963586 164.351258 
L 397.241631 155.116674 
L 397.519676 164.714227 
L 397.797721 163.760353 
L 398.075766 155.478684 
L 398.631856 172.161603 
L 398.909901 164.156793 
L 399.187946 167.131568 
L 399.465991 174.199324 
L 399.744036 171.690664 
L 400.022082 159.524949 
L 400.300127 160.337959 
L 400.578172 163.801549 
L 400.856217 148.202907 
L 401.134262 158.736148 
L 401.412307 153.931553 
L 401.690352 152.638126 
L 401.968397 159.392506 
L 402.246442 160.451663 
L 402.524487 158.33311 
L 402.802532 149.874635 
L 403.080577 160.282391 
L 403.358622 154.023063 
L 403.636668 166.113584 
L 403.914713 159.705618 
L 404.192758 159.850513 
L 404.748848 161.649525 
L 405.026893 163.604733 
L 405.304938 150.24449 
L 405.582983 156.60543 
L 406.139073 149.582685 
L 406.417118 159.705402 
L 406.695163 159.661614 
L 406.973208 158.462601 
L 407.251253 147.707951 
L 407.529299 159.342504 
L 407.807344 161.729974 
L 408.085389 166.62224 
L 408.363434 165.620571 
L 408.641479 167.440313 
L 408.919524 165.968689 
L 409.197569 166.700194 
L 409.475614 161.505302 
L 409.753659 164.526024 
L 410.031704 156.503003 
L 410.309749 156.81098 
L 410.587794 156.337785 
L 410.865839 160.920275 
L 411.143885 157.516068 
L 411.42193 148.810775 
L 411.699975 151.79582 
L 411.97802 168.944856 
L 412.256065 165.510466 
L 412.53411 165.442014 
L 412.812155 171.232634 
L 413.368245 167.959071 
L 413.64629 168.43452 
L 413.924335 163.584914 
L 414.20238 165.785357 
L 414.480425 143.064159 
L 414.75847 156.353189 
L 415.036516 155.98067 
L 415.314561 162.47422 
L 415.592606 160.10297 
L 415.870651 152.813109 
L 416.426741 164.283717 
L 416.982831 169.928026 
L 417.260876 168.410023 
L 417.538921 168.469094 
L 417.816966 167.666473 
L 418.095011 168.637959 
L 418.651102 165.285866 
L 418.929147 164.68426 
L 419.207192 139.848011 
L 419.485237 153.010597 
L 419.763282 155.037449 
L 420.041327 154.060349 
L 420.319372 154.536422 
L 420.875462 169.093254 
L 421.153507 164.62706 
L 421.431552 165.611334 
L 421.709597 168.683954 
L 421.987642 169.125813 
L 422.265688 166.05017 
L 422.543733 166.437036 
L 422.821778 162.606207 
L 423.099823 161.676805 
L 423.377868 164.965244 
L 423.655913 150.231486 
L 423.933958 157.252503 
L 424.212003 154.960166 
L 424.490048 156.339081 
L 424.768093 153.73836 
L 425.046138 158.913242 
L 425.324183 168.763875 
L 425.602228 164.439049 
L 425.880273 165.037776 
L 426.158319 169.658918 
L 426.436364 171.222581 
L 426.436364 171.222581 
" clip-path="url(#pf7b7cea184)" style="fill: none; stroke: #ff00ff; stroke-width: 3; stroke-linecap: square"/>
   </g>
   <g id="patch_3">
    <path d="M 7.2 331.2 
L 7.2 7.2 
" style="fill: none; stroke: #000000; stroke-width: 0.8; stroke-linejoin: miter; stroke-linecap: square"/>
   </g>
   <g id="patch_4">
    <path d="M 446.4 331.2 
L 446.4 7.2 
" style="fill: none; stroke: #000000; stroke-width: 0.8; stroke-linejoin: miter; stroke-linecap: square"/>
   </g>
   <g id="patch_5">
    <path d="M 7.2 331.2 
L 446.4 331.2 
" style="fill: none; stroke: #000000; stroke-width: 0.8; stroke-linejoin: miter; stroke-linecap: square"/>
   </g>
   <g id="patch_6">
    <path d="M 7.2 7.2 
L 446.4 7.2 
" style="fill: none; stroke: #000000; stroke-width: 0.8; stroke-linejoin: miter; stroke-linecap: square"/>
   </g>
  </g>
 </g>
 <defs>
  <clipPath id="pf7b7cea184">
   <rect x="7.2" y="7.2" width="439.2" height="324"/>
  </clipPath>
 </defs>
</svg>
