<?xml version="1.0" encoding="utf-8" standalone="no"?>
<!DOCTYPE svg PUBLIC "-//W3C//DTD SVG 1.1//EN"
  "http://www.w3.org/Graphics/SVG/1.1/DTD/svg11.dtd">
<svg xmlns:xlink="http://www.w3.org/1999/xlink" width="453.6pt" height="338.4pt" viewBox="0 0 453.6 338.4" xmlns="http://www.w3.org/2000/svg" version="1.1">
 <metadata>
  <rdf:RDF xmlns:dc="http://purl.org/dc/elements/1.1/" xmlns:cc="http://creativecommons.org/ns#" xmlns:rdf="http://www.w3.org/1999/02/22-rdf-syntax-ns#">
   <cc:Work>
    <dc:type rdf:resource="http://purl.org/dc/dcmitype/StillImage"/>
    <dc:date>2025-05-15T18:10:48.236112</dc:date>
    <dc:format>image/svg+xml</dc:format>
    <dc:creator>
     <cc:Agent>
      <dc:title>Matplotlib v3.10.1, https://matplotlib.org/</dc:title>
     </cc:Agent>
    </dc:creator>
   </cc:Work>
  </rdf:RDF>
 </metadata>
 <defs>
  <style type="text/css">*{stroke-linejoin: round; stroke-linecap: butt}</style>
 </defs>
 <g id="figure_1">
  <g id="patch_1">
   <path d="M 0 338.4 
L 453.6 338.4 
L 453.6 0 
L 0 0 
z
" style="fill: #ffffff"/>
  </g>
  <g id="axes_1">
   <g id="patch_2">
    <path d="M 7.2 331.2 
L 446.4 331.2 
L 446.4 7.2 
L 7.2 7.2 
z
" style="fill: #ffffff"/>
   </g>
   <g id="matplotlib.axis_1"/>
   <g id="matplotlib.axis_2"/>
   <g id="line2d_1">
    <path d="M 27.163636 217.049188 
L 29.387997 206.49815 
L 30.778222 200.205294 
L 31.612358 195.337511 
L 32.446493 189.128663 
L 34.948898 168.225759 
L 35.504989 165.828848 
L 35.783034 165.303837 
L 36.061079 165.286948 
L 36.339124 165.809775 
L 36.617169 166.891828 
L 37.173259 170.737252 
L 37.729349 176.707618 
L 38.563484 188.926433 
L 41.62198 240.065968 
L 42.17807 245.712824 
L 42.734161 249.009796 
L 43.012206 249.649826 
L 43.290251 249.563781 
L 43.568296 248.723704 
L 43.846341 247.115038 
L 44.402431 241.613194 
L 44.958521 233.309542 
L 45.792656 217.028077 
L 47.182882 189.112793 
L 47.738972 181.591999 
L 48.017017 179.2079 
L 48.295062 177.870912 
L 48.573107 177.637671 
L 48.851152 178.523901 
L 49.129197 180.507034 
L 49.685287 187.484181 
L 50.519423 203.529929 
L 51.909648 232.95604 
L 52.465738 241.338167 
L 53.021828 246.165475 
L 53.299873 247.075 
L 53.577918 246.944693 
L 53.855964 245.780234 
L 54.134009 243.608411 
L 54.690099 236.433548 
L 55.246189 225.929683 
L 56.080324 205.339514 
L 57.748595 155.463151 
L 58.860775 123.899432 
L 59.69491 105.506711 
L 60.251 96.939389 
L 60.80709 91.715337 
L 61.085135 90.363935 
L 61.363181 89.816794 
L 61.641226 90.019897 
L 61.919271 90.904671 
L 62.475361 94.365144 
L 63.309496 102.25036 
L 64.699721 115.917542 
L 65.255812 119.800675 
L 65.811902 122.273731 
L 66.089947 122.937639 
L 66.367992 123.212083 
L 66.646037 123.096482 
L 66.924082 122.594474 
L 67.480172 120.464582 
L 68.036262 116.930001 
L 68.870398 109.431047 
L 71.094758 86.676772 
L 71.650848 83.552474 
L 71.928893 82.751417 
L 72.206938 82.509586 
L 72.484984 82.843287 
L 72.763029 83.754995 
L 73.319119 87.231776 
L 73.875209 92.634325 
L 74.709344 103.266168 
L 77.21175 137.545649 
L 78.045885 146.173392 
L 78.601975 150.564065 
L 79.158065 153.591543 
L 79.43611 154.514316 
L 79.714155 155.004239 
L 79.992201 155.037726 
L 80.270246 154.603565 
L 80.548291 153.702485 
L 81.104381 150.577605 
L 81.938516 143.386435 
L 83.050696 133.19152 
L 83.606787 130.103621 
L 83.884832 129.496786 
L 84.162877 129.648203 
L 84.440922 130.630234 
L 84.718967 132.488739 
L 85.275057 138.879288 
L 85.831147 148.616311 
L 86.665282 168.023092 
L 88.889643 223.453277 
L 89.723778 237.229801 
L 90.279868 243.196963 
L 90.835958 246.62395 
L 91.114004 247.435927 
L 91.392049 247.681835 
L 91.670094 247.39021 
L 91.948139 246.590027 
L 92.504229 243.587591 
L 93.060319 238.933976 
L 93.894454 229.53211 
L 96.674905 194.889082 
L 97.50904 188.507996 
L 98.621221 182.548987 
L 99.177311 179.387854 
L 99.733401 175.167672 
L 100.289491 169.251322 
L 100.845581 161.198091 
L 101.679716 144.824611 
L 102.791897 116.435419 
L 104.738212 64.78849 
L 105.572347 49.72317 
L 106.128438 44.064666 
L 106.406483 42.775287 
L 106.684528 42.584123 
L 106.962573 43.526843 
L 107.240618 45.624267 
L 107.796708 53.282502 
L 108.352798 65.396926 
L 109.186933 90.922433 
L 110.299114 134.728699 
L 112.801519 237.34118 
L 113.635655 262.954335 
L 114.46979 281.24776 
L 115.02588 288.896822 
L 115.58197 292.751273 
L 115.860015 293.260123 
L 116.13806 292.850277 
L 116.416105 291.56148 
L 116.972195 286.58057 
L 117.528286 278.961792 
L 119.752646 242.923975 
L 120.308736 238.30239 
L 120.586781 237.269111 
L 120.864827 237.146375 
L 121.142872 237.937969 
L 121.420917 239.615355 
L 121.977007 245.348985 
L 122.811142 258.126444 
L 123.923322 276.15649 
L 124.479413 282.505691 
L 124.757458 284.504257 
L 125.035503 285.579031 
L 125.313548 285.658525 
L 125.591593 284.697315 
L 125.869638 282.677492 
L 126.425728 275.519372 
L 126.981818 264.511897 
L 127.815953 242.156841 
L 129.206179 195.90256 
L 131.152494 130.878908 
L 132.264675 100.815533 
L 133.09881 83.582176 
L 133.932945 71.607812 
L 134.489035 66.677278 
L 135.045125 64.159233 
L 135.32317 63.769333 
L 135.601215 63.933126 
L 135.879261 64.623386 
L 136.435351 67.466979 
L 136.991441 72.041391 
L 137.825576 81.51256 
L 138.937756 97.391749 
L 141.162117 130.566172 
L 141.996252 140.369295 
L 142.830387 147.806227 
L 143.664523 153.056194 
L 144.776703 158.040307 
L 145.888883 163.178167 
L 146.723018 168.436433 
L 147.835199 177.597342 
L 149.225424 189.624118 
L 149.781514 193.167726 
L 150.337604 195.224093 
L 150.61565 195.555319 
L 150.893695 195.360806 
L 151.17174 194.608086 
L 151.449785 193.274301 
L 152.005875 188.83995 
L 152.561965 182.139723 
L 153.3961 168.571253 
L 155.898506 123.825324 
L 156.454596 118.060392 
L 157.010686 115.092316 
L 157.288731 114.721926 
L 157.566776 115.095811 
L 157.844821 116.189511 
L 158.400912 120.380429 
L 158.957002 126.827178 
L 160.069182 143.845347 
L 161.459407 165.36717 
L 162.293543 174.780975 
L 162.849633 178.827755 
L 163.405723 180.920229 
L 163.683768 181.22583 
L 163.961813 181.046605 
L 164.239858 180.395072 
L 164.795948 177.739878 
L 165.352038 173.426079 
L 166.186174 164.291523 
L 167.298354 148.430533 
L 170.634895 97.40194 
L 172.02512 80.957702 
L 173.971436 58.132814 
L 175.639706 37.826554 
L 176.195796 32.726111 
L 176.751887 29.528289 
L 177.029932 28.845454 
L 177.307977 28.870205 
L 177.586022 29.662672 
L 177.864067 31.269882 
L 178.420157 37.053305 
L 178.976247 46.319186 
L 179.532337 58.932124 
L 180.366473 83.361601 
L 181.478653 123.532098 
L 185.371284 274.489441 
L 186.205419 297.227992 
L 186.761509 307.980386 
L 187.317599 314.513471 
L 187.595644 316.075547 
L 187.87369 316.472727 
L 188.151735 315.713456 
L 188.42978 313.832238 
L 188.98587 306.971421 
L 189.54196 296.69308 
L 192.044366 242.966051 
L 192.600456 236.903816 
L 192.878501 235.229196 
L 193.156546 234.450124 
L 193.434591 234.519717 
L 193.712636 235.358483 
L 194.268726 238.902091 
L 196.215042 255.14774 
L 196.493087 255.912108 
L 196.771132 255.908322 
L 197.049177 255.052813 
L 197.327222 253.282974 
L 197.883312 246.856172 
L 198.439402 236.523816 
L 199.273538 214.143572 
L 200.107673 184.890136 
L 201.775943 115.489933 
L 203.166169 61.525732 
L 204.000304 37.922646 
L 204.556394 27.679247 
L 204.834439 24.437892 
L 205.112484 22.514016 
L 205.390529 21.927273 
L 205.668574 22.681303 
L 205.946619 24.753394 
L 206.50271 32.664525 
L 207.0588 45.077708 
L 207.892935 70.186526 
L 210.673386 163.541133 
L 211.507521 181.401708 
L 212.063611 189.078724 
L 212.619701 193.50099 
L 212.897746 194.61886 
L 213.175791 195.108783 
L 213.453836 195.062193 
L 213.731881 194.580714 
L 214.287972 192.751765 
L 215.400152 188.669023 
L 215.678197 188.121445 
L 215.956242 187.907567 
L 216.234287 188.071797 
L 216.512332 188.641069 
L 217.068422 191.006095 
L 217.624513 194.861856 
L 218.458648 202.594634 
L 220.126918 218.643003 
L 220.683008 222.521331 
L 221.239099 225.196472 
L 221.517144 226.032617 
L 221.795189 226.511184 
L 222.073234 226.614119 
L 222.351279 226.323077 
L 222.629324 225.614035 
L 223.185414 222.84455 
L 223.741504 218.097755 
L 224.297594 211.206654 
L 225.13173 196.840476 
L 226.24391 172.00421 
L 227.634135 141.308957 
L 228.190225 132.643505 
L 228.746316 127.403729 
L 229.024361 126.215247 
L 229.302406 125.996128 
L 229.580451 126.723515 
L 229.858496 128.338296 
L 230.414586 133.871297 
L 231.248721 146.021829 
L 232.360901 163.087608 
L 232.916992 169.402448 
L 233.473082 173.050156 
L 233.751127 173.685381 
L 234.029172 173.459711 
L 234.307217 172.341842 
L 234.585262 170.316049 
L 235.141352 163.540113 
L 235.697442 153.276914 
L 236.531578 132.247781 
L 239.312028 53.262555 
L 239.868119 46.211884 
L 240.146164 44.836459 
L 240.424209 45.004766 
L 240.702254 46.752328 
L 240.980299 50.069829 
L 241.536389 61.158399 
L 242.092479 77.340132 
L 243.204659 118.571863 
L 244.31684 158.642774 
L 244.87293 173.812194 
L 245.42902 184.165661 
L 245.707065 187.358096 
L 245.98511 189.203789 
L 246.263155 189.723413 
L 246.5412 188.970111 
L 246.819245 187.022211 
L 247.375336 179.973287 
L 248.209471 163.596167 
L 249.877741 126.722932 
L 250.433831 118.445924 
L 250.711876 115.790439 
L 250.989921 114.291114 
L 251.267967 114.04637 
L 251.546012 115.127113 
L 251.824057 117.573089 
L 252.380147 126.563653 
L 252.936237 140.676789 
L 253.770372 169.435207 
L 256.272778 263.604848 
L 256.828868 277.190643 
L 257.384958 286.385475 
L 257.941048 291.093833 
L 258.219093 291.813649 
L 258.497139 291.493634 
L 258.775184 290.182853 
L 259.331274 284.809422 
L 259.887364 276.178038 
L 260.721499 258.365946 
L 263.50195 191.278646 
L 264.05804 184.411714 
L 264.336085 182.549569 
L 264.61413 181.797869 
L 264.892175 182.162872 
L 265.17022 183.618228 
L 265.72631 189.525406 
L 266.282401 198.667241 
L 268.506761 241.267554 
L 269.062851 247.212004 
L 269.340896 248.940493 
L 269.618942 249.808087 
L 269.896987 249.818424 
L 270.175032 248.996838 
L 270.453077 247.384241 
L 271.009167 242.007316 
L 271.565257 234.202177 
L 272.399392 219.155348 
L 275.735933 152.085811 
L 276.292023 145.050718 
L 276.848113 140.514743 
L 277.126159 139.271226 
L 277.404204 138.730491 
L 277.682249 138.8921 
L 277.960294 139.738 
L 278.238339 141.239655 
L 278.794429 146.026634 
L 279.628564 156.750055 
L 281.296835 183.761784 
L 282.409015 200.105708 
L 283.24315 209.268072 
L 283.79924 213.452584 
L 284.35533 215.957671 
L 284.633376 216.57659 
L 284.911421 216.785518 
L 285.189466 216.604836 
L 285.467511 216.062208 
L 286.023601 214.043113 
L 286.857736 209.394011 
L 288.247962 200.932681 
L 288.804052 198.398475 
L 289.360142 196.696047 
L 289.916232 195.890622 
L 290.194277 195.818262 
L 290.472322 195.95512 
L 290.750367 196.289549 
L 291.306457 197.497832 
L 291.862547 199.33741 
L 292.696683 203.050052 
L 295.477133 217.120238 
L 296.033224 218.424613 
L 296.311269 218.691777 
L 296.589314 218.68508 
L 296.867359 218.406414 
L 297.423449 217.091119 
L 297.979539 214.97666 
L 299.369764 208.94267 
L 299.925855 207.492993 
L 300.2039 207.177491 
L 300.481945 207.173414 
L 300.75999 207.491682 
L 301.038035 208.130693 
L 301.594125 210.279513 
L 302.42826 214.995587 
L 303.540441 221.160903 
L 304.096531 222.791699 
L 304.374576 223.002956 
L 304.652621 222.745691 
L 304.930666 221.98147 
L 305.208711 220.691508 
L 305.764801 216.513257 
L 306.320891 210.31693 
L 307.155027 197.954705 
L 309.657432 156.731273 
L 310.213522 150.863842 
L 310.769613 147.430886 
L 311.047658 146.751691 
L 311.325703 146.81022 
L 311.603748 147.627874 
L 311.881793 149.212372 
L 312.437883 154.65263 
L 312.993973 162.928765 
L 313.828108 179.684138 
L 316.608559 243.113829 
L 317.164649 251.4185 
L 317.720739 256.917287 
L 317.998785 258.514015 
L 318.27683 259.305754 
L 318.554875 259.276198 
L 318.83292 258.416467 
L 319.110965 256.724667 
L 319.667055 250.891159 
L 320.223145 241.973684 
L 321.05728 223.781737 
L 323.281641 168.602847 
L 323.837731 159.883379 
L 324.115776 157.086668 
L 324.393821 155.45689 
L 324.671866 155.052576 
L 324.949911 155.895419 
L 325.227956 157.975955 
L 325.784047 165.63812 
L 326.340137 177.305863 
L 327.452317 207.821452 
L 328.564497 238.327578 
L 329.398633 254.798169 
L 329.954723 260.84468 
L 330.232768 262.128381 
L 330.510813 262.176427 
L 330.788858 260.951401 
L 331.066903 258.435831 
L 331.622993 249.560432 
L 332.179083 235.840108 
L 333.013219 207.844165 
L 335.237579 126.308281 
L 335.793669 114.691642 
L 336.071714 111.30382 
L 336.349759 109.657591 
L 336.627805 109.784694 
L 336.90585 111.663291 
L 337.183895 115.218546 
L 337.739985 126.816986 
L 338.57412 152.368263 
L 340.24239 207.765981 
L 340.798481 220.862872 
L 341.354571 229.413451 
L 341.632616 231.862776 
L 341.910661 233.088967 
L 342.188706 233.119251 
L 342.466751 232.002255 
L 342.744796 229.801168 
L 343.300886 222.472266 
L 343.856976 211.865175 
L 344.969157 184.276603 
L 346.637427 142.050467 
L 347.193517 132.120969 
L 347.749607 125.982588 
L 348.027653 124.583577 
L 348.305698 124.391393 
L 348.583743 125.451025 
L 348.861788 127.778488 
L 349.417878 136.176775 
L 349.973968 149.196793 
L 350.808103 175.591496 
L 353.310509 264.520924 
L 353.866599 277.921961 
L 354.422689 286.81221 
L 354.700734 289.381941 
L 354.978779 290.639872 
L 355.256825 290.564017 
L 355.53487 289.152485 
L 355.812915 286.424931 
L 356.369005 277.210153 
L 356.925095 263.521568 
L 357.75923 236.779479 
L 359.705546 170.50372 
L 360.261636 157.416583 
L 360.817726 149.031253 
L 361.095771 146.750963 
L 361.373816 145.754082 
L 361.651861 146.002174 
L 361.929906 147.421859 
L 362.485996 153.33719 
L 363.320132 167.657798 
L 364.710357 194.268561 
L 365.266447 201.967271 
L 365.822537 206.432487 
L 366.100582 207.236602 
L 366.378628 207.007292 
L 366.656673 205.705246 
L 366.934718 203.307607 
L 367.490808 195.217396 
L 368.046898 182.896374 
L 368.881033 157.577901 
L 371.661484 60.672552 
L 372.217574 50.145246 
L 372.495619 46.998382 
L 372.773664 45.342106 
L 373.051709 45.188359 
L 373.329754 46.508604 
L 373.607799 49.235431 
L 374.16389 58.469136 
L 374.998025 79.448039 
L 377.50043 149.84192 
L 378.334566 165.047446 
L 378.890656 172.062738 
L 379.446746 176.80502 
L 380.002836 179.57436 
L 380.280881 180.323294 
L 380.558926 180.708244 
L 380.836971 180.771432 
L 381.115016 180.56003 
L 381.671107 179.496322 
L 382.505242 177.014675 
L 383.339377 174.594032 
L 383.895467 173.553473 
L 384.173512 173.287182 
L 384.451557 173.20827 
L 384.729602 173.315136 
L 385.285693 174.031458 
L 386.119828 175.874093 
L 386.675918 177.0403 
L 386.953963 177.42525 
L 387.232008 177.597342 
L 387.510053 177.499066 
L 387.788098 177.079319 
L 388.066143 176.293986 
L 388.622233 173.506301 
L 389.178324 169.014732 
L 390.012459 159.331579 
L 391.402684 138.694093 
L 392.514865 123.640275 
L 393.070955 118.375166 
L 393.627045 115.31027 
L 393.90509 114.714209 
L 394.183135 114.7806 
L 394.46118 115.525312 
L 394.739225 116.951549 
L 395.295315 121.814965 
L 395.851405 129.218702 
L 396.685541 144.474312 
L 397.797721 170.639122 
L 401.690352 270.912201 
L 402.246442 280.280581 
L 402.802532 286.70054 
L 403.080577 288.628784 
L 403.358622 289.624792 
L 403.636668 289.647213 
L 403.914713 288.669114 
L 404.192758 286.684379 
L 404.748848 279.772895 
L 405.304938 269.298439 
L 406.139073 248.64057 
L 407.807344 204.200388 
L 408.641479 188.64864 
L 409.197569 182.615232 
L 409.475614 180.975118 
L 409.753659 180.217302 
L 410.031704 180.284858 
L 410.309749 181.093777 
L 410.865839 184.514212 
L 411.699975 192.274071 
L 412.53411 200.065961 
L 413.0902 203.777438 
L 413.368245 204.938986 
L 413.64629 205.564894 
L 413.924335 205.620219 
L 414.20238 205.083706 
L 414.480425 203.948074 
L 415.036516 199.909156 
L 415.592606 193.641634 
L 416.426741 180.614628 
L 417.538921 158.221135 
L 420.041327 104.239462 
L 420.875462 91.845352 
L 421.431552 86.732534 
L 421.709597 85.253156 
L 421.987642 84.52242 
L 422.265688 84.544114 
L 422.543733 85.308918 
L 422.821778 86.79281 
L 423.377868 91.745621 
L 423.933958 98.940139 
L 425.046138 117.484132 
L 426.436364 141.346229 
L 426.436364 141.346229 
" clip-path="url(#p7bbe05ef28)" style="fill: none; stroke-dasharray: 11.1,4.8; stroke-dashoffset: 0; stroke: #000000; stroke-width: 3"/>
   </g>
   <g id="line2d_2">
    <path d="M 27.163636 203.84645 
L 31.334312 203.3756 
L 34.114763 203.292465 
L 36.617169 203.463393 
L 37.173259 203.911385 
L 37.451304 203.497462 
L 38.285439 199.672567 
L 40.787845 187.595997 
L 42.734161 179.406781 
L 44.402431 173.409481 
L 45.792656 169.228027 
L 46.904837 166.47048 
L 48.017017 164.279439 
L 48.851152 163.031263 
L 49.685287 162.13921 
L 50.519423 161.619877 
L 51.075513 161.489133 
L 51.631603 161.536451 
L 52.187693 161.767217 
L 52.743783 162.186091 
L 53.577918 163.187631 
L 54.134009 164.115937 
L 54.968144 166.324886 
L 55.802279 168.809153 
L 57.47055 171.262992 
L 58.860775 172.965129 
L 60.251 174.342592 
L 61.641226 175.383733 
L 62.753406 175.965672 
L 63.865586 176.319028 
L 64.977767 176.438415 
L 66.089947 176.317572 
L 67.202127 175.951258 
L 68.314307 175.334377 
L 69.426488 174.461542 
L 70.538668 173.327075 
L 72.484984 171.123513 
L 72.763029 170.930892 
L 73.597164 170.758363 
L 77.489795 167.516572 
L 79.158065 166.385744 
L 80.548291 165.672626 
L 81.938516 165.233224 
L 83.050696 165.12068 
L 84.162877 165.257247 
L 85.275057 165.674373 
L 86.387237 166.405254 
L 87.499418 167.483959 
L 88.333553 168.596441 
L 89.445733 170.70231 
L 90.557913 173.313535 
L 91.948139 177.237142 
L 93.338364 180.67039 
L 94.450544 182.892297 
L 95.562725 184.700718 
L 96.674905 186.144281 
L 97.787085 187.271759 
L 98.899266 188.131927 
L 100.289491 188.905467 
L 101.957761 189.517398 
L 104.738212 190.197758 
L 106.962573 190.828325 
L 107.796708 191.043658 
L 108.630843 190.746792 
L 110.299114 189.859252 
L 112.245429 188.538571 
L 115.02588 186.325982 
L 119.752646 182.515064 
L 121.698962 181.229179 
L 123.089187 180.526398 
L 124.479413 180.044191 
L 125.313548 179.763923 
L 126.981818 177.950843 
L 128.928134 175.495258 
L 131.430539 171.958493 
L 139.771892 159.801264 
L 141.440162 157.781296 
L 142.830387 156.474009 
L 145.054748 154.742025 
L 147.001064 153.511175 
L 148.947379 152.537007 
L 150.893695 151.809183 
L 152.84001 151.316639 
L 154.786326 151.048747 
L 156.732641 150.997061 
L 158.122867 151.152555 
L 159.513092 151.656892 
L 160.347227 152.058149 
L 168.410534 160.142827 
L 172.02512 164.108657 
L 173.971436 166.446894 
L 175.917751 169.614142 
L 178.420157 174.151427 
L 181.200608 179.041632 
L 184.537149 184.431661 
L 188.98587 191.1348 
L 190.09805 192.683044 
L 190.932185 193.355833 
L 191.766321 193.64935 
L 192.600456 193.605964 
L 193.434591 193.269496 
L 194.268726 192.689159 
L 195.380907 191.601865 
L 196.493087 190.10749 
L 198.161357 187.412112 
L 202.332033 180.337417 
L 203.722259 178.527977 
L 204.834439 177.499211 
L 205.668574 177.030545 
L 206.224664 177.044959 
L 208.72707 177.853441 
L 211.507521 178.520406 
L 212.897746 178.706912 
L 216.234287 177.437188 
L 220.683008 175.487396 
L 222.629324 174.499979 
L 230.136541 169.421667 
L 235.975487 167.797859 
L 244.594885 165.634626 
L 247.931426 164.612412 
L 253.492327 162.0437 
L 257.106913 160.413195 
L 258.775184 159.961854 
L 260.443454 159.764138 
L 262.111724 159.827326 
L 263.50195 160.084153 
L 264.61413 160.427754 
L 265.448265 161.370911 
L 267.116536 163.639117 
L 268.784806 166.277859 
L 270.731122 169.794387 
L 272.677437 173.435251 
L 275.179843 176.94712 
L 277.682249 180.110873 
L 280.184654 182.93219 
L 282.68706 185.405974 
L 286.023601 188.261797 
L 289.916232 191.585413 
L 292.418638 194.094285 
L 294.921043 196.293771 
L 297.145404 197.980184 
L 302.150215 201.316612 
L 303.540441 201.912964 
L 304.930666 202.24419 
L 307.155027 202.419776 
L 308.267207 202.387891 
L 309.379387 202.136742 
L 310.491567 201.675209 
L 311.603748 200.999509 
L 312.993973 199.856743 
L 314.384199 198.381732 
L 315.774424 196.573165 
L 317.442694 193.971113 
L 318.27683 192.717113 
L 319.9451 190.463758 
L 321.891416 187.46205 
L 334.959534 166.24481 
L 335.237579 165.849668 
L 336.071714 165.39032 
L 338.296075 164.196741 
L 340.24239 162.899937 
L 341.632616 161.92708 
L 343.300886 161.196199 
L 347.193517 159.091786 
L 348.583743 157.899663 
L 349.973968 156.394806 
L 351.364193 154.577213 
L 352.476374 153.044692 
L 354.422689 151.750654 
L 356.09096 150.891942 
L 357.75923 150.291513 
L 359.149456 150.007896 
L 359.705546 150.078218 
L 360.817726 150.557368 
L 362.485996 151.62821 
L 363.876222 152.647512 
L 365.544492 154.174355 
L 367.490808 156.290269 
L 368.881033 157.995901 
L 373.885845 166.484166 
L 376.110205 169.860632 
L 377.778476 172.047888 
L 379.168701 173.043021 
L 380.558926 174.185205 
L 384.173512 177.09184 
L 385.841783 178.269257 
L 388.066143 179.27036 
L 390.568549 180.167218 
L 393.627045 181.027532 
L 396.685541 181.738175 
L 397.241631 182.34501 
L 398.075766 183.365914 
L 400.022082 184.902365 
L 401.690352 185.965055 
L 403.080577 186.612656 
L 404.192758 186.869338 
L 405.304938 186.921169 
L 406.417118 186.775721 
L 407.529299 186.439836 
L 408.919524 185.757292 
L 410.309749 184.798703 
L 411.699975 183.574259 
L 413.368245 181.773554 
L 415.036516 179.63085 
L 415.870651 178.313663 
L 418.373056 171.272601 
L 419.485237 168.98474 
L 419.763282 168.79605 
L 420.875462 168.791973 
L 421.987642 169.048364 
L 423.099823 169.552555 
L 424.212003 170.283 
L 425.602228 171.495505 
L 426.436364 172.364845 
L 426.436364 172.364845 
" clip-path="url(#p7bbe05ef28)" style="fill: none; stroke: #ff00ff; stroke-width: 3; stroke-linecap: square"/>
   </g>
   <g id="patch_3">
    <path d="M 7.2 331.2 
L 7.2 7.2 
" style="fill: none; stroke: #000000; stroke-width: 0.8; stroke-linejoin: miter; stroke-linecap: square"/>
   </g>
   <g id="patch_4">
    <path d="M 446.4 331.2 
L 446.4 7.2 
" style="fill: none; stroke: #000000; stroke-width: 0.8; stroke-linejoin: miter; stroke-linecap: square"/>
   </g>
   <g id="patch_5">
    <path d="M 7.2 331.2 
L 446.4 331.2 
" style="fill: none; stroke: #000000; stroke-width: 0.8; stroke-linejoin: miter; stroke-linecap: square"/>
   </g>
   <g id="patch_6">
    <path d="M 7.2 7.2 
L 446.4 7.2 
" style="fill: none; stroke: #000000; stroke-width: 0.8; stroke-linejoin: miter; stroke-linecap: square"/>
   </g>
  </g>
 </g>
 <defs>
  <clipPath id="p7bbe05ef28">
   <rect x="7.2" y="7.2" width="439.2" height="324"/>
  </clipPath>
 </defs>
</svg>
