<?xml version="1.0" encoding="utf-8" standalone="no"?>
<!DOCTYPE svg PUBLIC "-//W3C//DTD SVG 1.1//EN"
  "http://www.w3.org/Graphics/SVG/1.1/DTD/svg11.dtd">
<svg xmlns:xlink="http://www.w3.org/1999/xlink" width="453.6pt" height="338.4pt" viewBox="0 0 453.6 338.4" xmlns="http://www.w3.org/2000/svg" version="1.1">
 <metadata>
  <rdf:RDF xmlns:dc="http://purl.org/dc/elements/1.1/" xmlns:cc="http://creativecommons.org/ns#" xmlns:rdf="http://www.w3.org/1999/02/22-rdf-syntax-ns#">
   <cc:Work>
    <dc:type rdf:resource="http://purl.org/dc/dcmitype/StillImage"/>
    <dc:date>2025-05-15T17:06:50.761979</dc:date>
    <dc:format>image/svg+xml</dc:format>
    <dc:creator>
     <cc:Agent>
      <dc:title>Matplotlib v3.10.1, https://matplotlib.org/</dc:title>
     </cc:Agent>
    </dc:creator>
   </cc:Work>
  </rdf:RDF>
 </metadata>
 <defs>
  <style type="text/css">*{stroke-linejoin: round; stroke-linecap: butt}</style>
 </defs>
 <g id="figure_1">
  <g id="patch_1">
   <path d="M 0 338.4 
L 453.6 338.4 
L 453.6 0 
L 0 0 
z
" style="fill: #ffffff"/>
  </g>
  <g id="axes_1">
   <g id="patch_2">
    <path d="M 7.2 331.2 
L 446.4 331.2 
L 446.4 7.2 
L 7.2 7.2 
z
" style="fill: #ffffff"/>
   </g>
   <g id="matplotlib.axis_1"/>
   <g id="matplotlib.axis_2"/>
   <g id="line2d_1">
    <path d="M 27.163636 280.587374 
L 27.719727 276.883008 
L 29.387997 264.321343 
L 30.222132 259.816667 
L 31.056267 256.79428 
L 31.612358 255.441462 
L 32.446493 254.073288 
L 33.836718 252.166456 
L 34.670853 250.465272 
L 35.504989 248.101077 
L 36.339124 245.069356 
L 38.007394 237.820505 
L 40.5098 227.035297 
L 41.62198 223.115949 
L 42.456115 220.968844 
L 43.012206 220.134812 
L 43.290251 219.936993 
L 43.568296 219.898754 
L 43.846341 220.034247 
L 44.124386 220.351299 
L 44.680476 221.549053 
L 45.236566 223.496834 
L 46.070701 227.573654 
L 48.017017 238.250468 
L 48.573107 240.164225 
L 48.851152 240.725465 
L 49.129197 240.979589 
L 49.407242 240.901003 
L 49.685287 240.476159 
L 49.963332 239.691807 
L 50.519423 237.039766 
L 51.075513 232.980711 
L 51.909648 224.637079 
L 53.299873 207.414169 
L 54.412054 194.166008 
L 55.246189 186.513389 
L 55.802279 182.996002 
L 56.358369 180.87178 
L 56.636414 180.3271 
L 56.914459 180.116334 
L 57.192504 180.218706 
L 57.47055 180.60772 
L 58.02664 182.113193 
L 58.860775 185.527605 
L 60.251 191.345957 
L 60.80709 192.883647 
L 61.363181 193.7237 
L 61.641226 193.879366 
L 61.919271 193.87214 
L 62.475361 193.462651 
L 64.421676 191.238767 
L 64.699721 191.265866 
L 64.977767 191.469707 
L 65.255812 191.868657 
L 65.811902 193.286511 
L 66.367992 195.53358 
L 67.202127 200.327607 
L 68.314307 208.777826 
L 69.982578 223.670867 
L 71.928893 242.881302 
L 73.597164 261.843033 
L 76.09957 291.246423 
L 76.933705 298.557902 
L 77.489795 302.143637 
L 78.045885 304.648744 
L 78.601975 306.115074 
L 78.88002 306.489335 
L 79.158065 306.654636 
L 79.43611 306.627838 
L 79.714155 306.437547 
L 80.270246 305.664637 
L 80.826336 304.495788 
L 81.660471 302.159896 
L 82.494606 299.171533 
L 83.606787 294.242615 
L 85.275057 286.286191 
L 85.831147 284.436266 
L 86.387237 283.474269 
L 86.665282 283.398092 
L 86.943327 283.622407 
L 87.221372 284.155947 
L 87.777463 286.171775 
L 88.333553 289.368797 
L 89.167688 295.810715 
L 91.114004 311.699174 
L 91.670094 314.628222 
L 92.226184 316.228841 
L 92.504229 316.472727 
L 92.782274 316.329105 
L 93.060319 315.789544 
L 93.338364 314.854344 
L 93.894454 311.802148 
L 94.450544 307.262546 
L 95.28468 298.127337 
L 96.674905 279.275204 
L 98.343175 256.835228 
L 99.455356 244.568335 
L 100.845581 231.866661 
L 104.460167 201.747871 
L 105.294302 196.564227 
L 106.128438 192.934231 
L 106.684528 191.355893 
L 107.240618 190.336989 
L 107.796708 189.764608 
L 108.352798 189.521324 
L 109.186933 189.499645 
L 111.133249 189.612856 
L 111.689339 189.377702 
L 112.245429 188.824591 
L 112.801519 187.859282 
L 113.35761 186.420351 
L 114.191745 183.379597 
L 115.860015 176.323747 
L 116.416105 174.966714 
L 116.69415 174.696632 
L 116.972195 174.758356 
L 117.250241 175.18591 
L 117.528286 176.011512 
L 118.084376 178.911956 
L 118.640466 183.467215 
L 119.474601 192.918574 
L 121.142872 216.297663 
L 122.255052 230.356973 
L 123.089187 238.21524 
L 123.645277 241.929542 
L 124.201367 244.385269 
L 124.757458 245.60952 
L 125.035503 245.785058 
L 125.313548 245.688708 
L 125.591593 245.337029 
L 126.147683 243.933627 
L 126.703773 241.702818 
L 127.537908 237.129794 
L 130.040314 221.811909 
L 130.596404 219.848772 
L 130.874449 219.291145 
L 131.152494 219.062313 
L 131.430539 219.184257 
L 131.708584 219.678052 
L 131.98663 220.553635 
L 132.54272 223.49021 
L 133.09881 227.973207 
L 133.932945 237.223735 
L 136.713396 272.717364 
L 137.269486 277.224148 
L 137.825576 280.198962 
L 138.381666 281.681552 
L 138.659711 281.92032 
L 138.937756 281.86251 
L 139.215801 281.545758 
L 139.771892 280.282666 
L 140.606027 277.421365 
L 142.552342 269.471264 
L 143.386478 265.119845 
L 144.220613 259.156969 
L 145.054748 250.81695 
L 145.888883 239.989891 
L 148.391289 205.155659 
L 148.947379 200.987607 
L 149.225424 199.844652 
L 149.503469 199.378859 
L 149.781514 199.606185 
L 150.059559 200.523018 
L 150.61565 204.313497 
L 151.17174 210.339303 
L 152.28392 226.122981 
L 153.3961 240.926596 
L 153.95219 246.112649 
L 154.508281 249.272034 
L 154.786326 250.060902 
L 155.064371 250.34935 
L 155.342416 250.175619 
L 155.620461 249.593302 
L 156.176551 247.46095 
L 157.010686 242.891238 
L 158.122867 236.800396 
L 158.678957 234.553327 
L 159.235047 233.034305 
L 159.791137 232.18281 
L 160.347227 231.864553 
L 160.903317 231.929288 
L 161.459407 232.253567 
L 162.293543 233.018649 
L 163.127678 234.139624 
L 163.683768 235.295225 
L 164.239858 236.989484 
L 164.795948 239.361808 
L 165.630084 244.366903 
L 166.464219 251.006038 
L 168.410534 267.278091 
L 168.966624 270.175223 
L 169.24467 271.083926 
L 169.522715 271.585249 
L 169.80076 271.658716 
L 170.078805 271.298607 
L 170.35685 270.513653 
L 170.91294 267.76195 
L 171.46903 263.705604 
L 172.58121 253.308508 
L 173.971436 240.430693 
L 174.805571 234.427771 
L 175.917751 228.275205 
L 177.307977 221.143178 
L 178.142112 215.80989 
L 179.532337 205.029801 
L 180.644518 196.653652 
L 181.478653 192.143255 
L 182.034743 190.411961 
L 182.312788 189.944663 
L 182.590833 189.72938 
L 182.868878 189.748048 
L 183.146923 189.97146 
L 183.703013 190.891605 
L 185.093239 193.79235 
L 185.371284 194.097961 
L 185.649329 194.226528 
L 185.927374 194.159986 
L 186.205419 193.883281 
L 186.761509 192.691849 
L 187.317599 190.672709 
L 188.151735 186.380004 
L 189.820005 175.70289 
L 192.044366 160.398253 
L 193.156546 150.907753 
L 194.268726 139.058778 
L 197.327222 103.766882 
L 197.883312 99.664168 
L 198.439402 96.770348 
L 198.995493 95.026107 
L 199.551583 94.224594 
L 200.107673 94.05026 
L 200.941808 94.28692 
L 201.775943 94.494976 
L 203.444214 94.647029 
L 204.000304 95.239282 
L 204.556394 96.461425 
L 205.112484 98.408604 
L 205.946619 102.655844 
L 207.0588 110.016401 
L 208.449025 119.122705 
L 209.28316 123.329297 
L 210.117296 126.357104 
L 210.951431 128.480724 
L 212.341656 131.686177 
L 213.175791 134.298172 
L 214.009927 137.776718 
L 215.400152 144.940962 
L 216.512332 150.364578 
L 217.346467 153.329757 
L 217.902558 154.556115 
L 218.458648 155.168542 
L 219.014738 155.248332 
L 219.570828 154.927365 
L 220.404963 154.024382 
L 221.517144 152.825424 
L 222.073234 152.46682 
L 222.907369 152.238289 
L 224.297594 152.000726 
L 224.853684 151.63339 
L 225.409775 150.936959 
L 225.965865 149.854825 
L 226.8 147.499663 
L 227.634135 144.339676 
L 228.746316 139.069618 
L 230.136541 131.101451 
L 231.804811 119.790834 
L 233.473082 108.687972 
L 234.307217 104.391654 
L 235.141352 101.331027 
L 235.975487 99.332663 
L 237.087668 97.550183 
L 238.199848 95.685504 
L 239.312028 93.255671 
L 242.370524 85.799667 
L 242.926614 83.670326 
L 243.482704 80.745493 
L 244.038795 76.818317 
L 244.87293 68.867915 
L 245.98511 55.141917 
L 247.375336 37.794956 
L 247.931426 32.704651 
L 248.487516 29.515458 
L 248.765561 28.76784 
L 249.043606 28.633552 
L 249.321651 29.13367 
L 249.599696 30.279636 
L 250.155786 34.464248 
L 250.711876 40.992882 
L 251.546012 54.370212 
L 252.936237 81.865565 
L 254.326462 108.122215 
L 255.160598 120.208753 
L 255.716688 126.107196 
L 256.272778 130.143368 
L 256.828868 132.361532 
L 257.106913 132.836057 
L 257.384958 132.930601 
L 257.663003 132.681595 
L 257.941048 132.132399 
L 258.497139 130.335467 
L 260.721499 121.672073 
L 261.277589 120.866043 
L 261.555634 120.802813 
L 261.833679 120.966909 
L 262.111724 121.354418 
L 262.667815 122.745174 
L 263.223905 124.804962 
L 264.336085 130.085859 
L 266.004356 137.956772 
L 266.838491 140.966212 
L 267.672626 143.274102 
L 268.506761 144.994858 
L 269.340896 146.282639 
L 270.175032 147.232592 
L 271.009167 147.814909 
L 271.565257 147.962144 
L 272.121347 147.909152 
L 272.955482 147.503276 
L 274.345708 146.601799 
L 274.901798 146.589153 
L 275.179843 146.746325 
L 275.735933 147.495749 
L 276.292023 148.946423 
L 276.848113 151.207041 
L 277.404204 154.323972 
L 278.238339 160.489786 
L 279.628564 173.29323 
L 281.01879 185.679658 
L 281.852925 191.173731 
L 282.409015 193.730325 
L 282.965105 195.41796 
L 283.521195 196.359482 
L 284.077285 196.783725 
L 285.189466 197.221516 
L 285.745556 197.764389 
L 286.301646 198.752281 
L 286.857736 200.231558 
L 287.691871 203.206072 
L 289.082097 208.396942 
L 289.638187 209.825033 
L 290.194277 210.599147 
L 290.472322 210.71266 
L 290.750367 210.639494 
L 291.028412 210.385972 
L 291.584502 209.397178 
L 292.418638 207.077545 
L 293.808863 202.927258 
L 294.364953 201.781894 
L 294.921043 201.135745 
L 295.199088 201.012598 
L 295.477133 201.020426 
L 296.033224 201.380234 
L 296.589314 202.12183 
L 297.423449 203.706792 
L 301.594125 212.515012 
L 302.42826 213.87054 
L 303.262396 214.790083 
L 303.818486 215.076725 
L 304.374576 215.092984 
L 304.930666 214.884927 
L 305.764801 214.289362 
L 307.711117 212.496043 
L 308.545252 211.514776 
L 309.101342 210.556091 
L 309.657432 209.210499 
L 310.213522 207.374124 
L 311.047658 203.549018 
L 311.881793 198.461423 
L 313.550063 186.212294 
L 314.662244 178.646992 
L 315.496379 174.415409 
L 316.052469 172.503459 
L 316.608559 171.336416 
L 317.164649 170.854364 
L 317.442694 170.831481 
L 317.998785 171.097046 
L 319.110965 171.962091 
L 319.38901 172.047 
L 319.667055 172.013277 
L 319.9451 171.830814 
L 320.223145 171.477329 
L 320.779235 170.175697 
L 321.335325 168.007214 
L 321.891416 164.983622 
L 322.725551 159.145399 
L 325.227956 140.365228 
L 326.062092 136.413361 
L 326.618182 134.680562 
L 327.174272 133.542726 
L 328.008407 132.479561 
L 328.564497 131.782828 
L 329.120587 130.717857 
L 329.676678 128.988671 
L 330.232768 126.343254 
L 330.788858 122.593422 
L 331.622993 114.671323 
L 332.457128 104.07972 
L 333.847354 82.416267 
L 335.237579 60.924739 
L 336.071714 51.116584 
L 336.627805 46.630877 
L 337.183895 43.984557 
L 337.46194 43.348645 
L 337.739985 43.142094 
L 338.01803 43.329074 
L 338.296075 43.861108 
L 338.852165 45.71555 
L 340.520436 52.532933 
L 341.076526 53.565988 
L 341.354571 53.677694 
L 341.632616 53.515705 
L 341.910661 53.09327 
L 342.466751 51.607067 
L 344.135022 45.941371 
L 344.413067 45.442457 
L 344.691112 45.198269 
L 344.969157 45.233497 
L 345.247202 45.559884 
L 345.525247 46.174418 
L 346.081337 48.201989 
L 346.915472 52.686792 
L 348.861788 63.900156 
L 349.973968 68.538518 
L 351.086148 73.069389 
L 351.920284 77.40244 
L 354.422689 91.807105 
L 354.700734 92.455061 
L 354.978779 92.685097 
L 355.256825 92.449641 
L 355.53487 91.711959 
L 355.812915 90.449169 
L 356.369005 86.326883 
L 356.925095 80.195092 
L 357.75923 68.141675 
L 359.427501 42.360754 
L 359.983591 36.00254 
L 360.539681 31.704415 
L 360.817726 30.409709 
L 361.095771 29.692501 
L 361.373816 29.537739 
L 361.651861 29.915311 
L 361.929906 30.783367 
L 362.485996 33.770225 
L 363.320132 40.393101 
L 364.988402 54.824865 
L 365.822537 60.291537 
L 366.656673 64.290374 
L 367.768853 68.216346 
L 370.827349 78.054912 
L 371.383439 78.782658 
L 371.661484 78.803734 
L 371.939529 78.564063 
L 372.217574 78.049493 
L 372.773664 76.195653 
L 373.329754 73.345492 
L 374.71998 64.084125 
L 375.554115 59.524349 
L 376.110205 57.897535 
L 376.38825 57.618119 
L 376.666295 57.709351 
L 376.94434 58.163702 
L 377.50043 60.071437 
L 378.334566 64.722445 
L 379.446746 71.396507 
L 380.002836 73.620392 
L 380.280881 74.24998 
L 380.558926 74.505911 
L 380.836971 74.360482 
L 381.115016 73.807973 
L 381.671107 71.480513 
L 382.227197 67.652396 
L 383.061332 59.775763 
L 385.563738 33.428182 
L 386.397873 27.458681 
L 386.953963 24.723538 
L 387.510053 22.959124 
L 388.066143 22.078422 
L 388.344188 21.927273 
L 388.622233 21.945037 
L 389.178324 22.404207 
L 389.734414 23.303576 
L 390.568549 25.274842 
L 391.402684 27.920861 
L 392.236819 31.362071 
L 393.070955 35.881199 
L 393.90509 41.731768 
L 395.01727 51.618208 
L 396.407496 66.58622 
L 401.412307 123.412098 
L 402.246442 129.00764 
L 402.802532 131.136378 
L 403.080577 131.664498 
L 403.358622 131.824981 
L 403.636668 131.614817 
L 403.914713 131.04063 
L 404.470803 128.862211 
L 405.026893 125.480317 
L 405.861028 118.862861 
L 407.529299 105.091397 
L 408.085389 101.774239 
L 408.641479 99.582872 
L 408.919524 98.954789 
L 409.197569 98.648576 
L 409.475614 98.659415 
L 409.753659 98.979178 
L 410.031704 99.589798 
L 410.587794 101.614357 
L 411.42193 106.209964 
L 413.924335 121.964436 
L 414.480425 124.058548 
L 415.036516 125.150618 
L 415.314561 125.279186 
L 415.592606 125.116896 
L 415.870651 124.657124 
L 416.426741 122.849353 
L 416.982831 119.888389 
L 417.816966 113.52325 
L 418.929147 102.456218 
L 421.431552 75.864449 
L 422.265688 68.972997 
L 423.099823 63.801999 
L 423.655913 61.408899 
L 424.212003 59.857359 
L 424.768093 59.085955 
L 425.046138 58.960097 
L 425.324183 58.990809 
L 425.880273 59.456602 
L 426.436364 60.394211 
L 426.436364 60.394211 
" clip-path="url(#p2e56c2d4ac)" style="fill: none; stroke-dasharray: 11.1,4.8; stroke-dashoffset: 0; stroke: #000000; stroke-width: 3"/>
   </g>
   <g id="line2d_2">
    <path d="M 27.163636 201.011995 
L 28.275817 201.677113 
L 29.387997 202.618335 
L 30.500177 203.847704 
L 31.612358 205.375759 
L 33.002583 207.723092 
L 34.392808 210.574759 
L 35.783034 213.95304 
L 39.39762 222.88501 
L 40.787845 225.421129 
L 41.900025 227.016027 
L 43.012206 228.192705 
L 43.846341 228.781345 
L 44.680476 229.103817 
L 45.514611 229.148078 
L 46.348747 228.901783 
L 47.182882 228.352285 
L 48.017017 227.48724 
L 48.851152 226.293099 
L 49.685287 224.757517 
L 50.797468 222.155458 
L 51.909648 218.887679 
L 53.021828 214.925876 
L 54.690099 208.156668 
L 57.192504 204.726599 
L 59.69491 201.76985 
L 63.031451 198.212418 
L 68.314307 192.613565 
L 70.816713 189.592081 
L 72.484984 187.421791 
L 73.041074 185.887714 
L 74.987389 180.338241 
L 76.09957 177.630497 
L 77.76784 174.215784 
L 79.714155 170.767348 
L 81.938516 167.345709 
L 84.997012 163.14273 
L 89.167688 157.415309 
L 90.279868 155.743933 
L 91.670094 150.883966 
L 93.060319 146.745722 
L 94.450544 143.324385 
L 95.84077 140.53926 
L 97.230995 138.322903 
L 98.343175 136.925523 
L 99.455356 135.833152 
L 100.567536 135.025316 
L 101.679716 134.469796 
L 102.791897 134.147625 
L 103.904077 134.029596 
L 105.294302 134.132269 
L 106.684528 134.470097 
L 107.240618 134.702843 
L 108.908888 135.872295 
L 110.021069 136.845131 
L 112.523474 139.119599 
L 115.02588 141.102909 
L 116.972195 142.392798 
L 118.640466 143.275909 
L 120.308736 143.917541 
L 121.698962 144.24182 
L 123.089187 144.353526 
L 127.815953 144.181601 
L 128.650089 144.159922 
L 131.98663 145.005396 
L 134.489035 145.862311 
L 136.713396 146.862547 
L 138.659711 147.977199 
L 140.327982 149.168028 
L 141.718207 150.38716 
L 142.830387 151.747806 
L 144.220613 153.867512 
L 145.610838 156.449699 
L 146.166928 157.546286 
L 146.723018 158.052425 
L 151.72783 161.149484 
L 155.898506 163.470321 
L 159.791137 165.572262 
L 162.571588 167.427306 
L 164.517903 168.497697 
L 167.020309 169.620177 
L 169.24467 170.381043 
L 171.190985 170.835395 
L 173.137301 171.069647 
L 175.083616 171.060915 
L 176.473841 170.837503 
L 178.976247 169.466619 
L 180.088427 168.865032 
L 182.868878 167.961749 
L 187.87369 166.551723 
L 193.434591 165.173613 
L 196.215042 165.166688 
L 201.219853 166.117243 
L 204.834439 166.434898 
L 208.449025 166.525829 
L 210.951431 166.415026 
L 213.453836 165.883594 
L 219.570828 166.161805 
L 224.297594 166.159698 
L 228.746316 166.138019 
L 230.136541 166.39967 
L 233.195037 167.387561 
L 236.809623 168.533828 
L 243.204659 170.851955 
L 245.42902 171.610714 
L 247.09729 171.828104 
L 254.048417 173.379343 
L 256.272778 173.517244 
L 258.497139 173.438057 
L 260.721499 173.130338 
L 262.667815 172.664846 
L 266.560446 171.274993 
L 269.340896 170.017321 
L 272.955482 168.115909 
L 279.906609 164.305858 
L 280.740744 164.194755 
L 282.409015 164.38595 
L 285.745556 164.989042 
L 290.750367 166.163913 
L 296.311269 167.616092 
L 298.813674 168.546173 
L 301.594125 169.327212 
L 304.096531 169.794511 
L 306.320891 169.962221 
L 308.267207 169.878517 
L 310.213522 169.546409 
L 312.159838 169.075497 
L 313.272018 169.183289 
L 314.384199 169.105607 
L 315.218334 169.01558 
L 316.608559 168.983664 
L 317.998785 168.694011 
L 319.38901 168.131867 
L 320.779235 167.280673 
L 322.169461 166.123867 
L 323.559686 164.64459 
L 324.949911 162.823269 
L 326.340137 160.643645 
L 327.730362 158.087352 
L 328.564497 156.364489 
L 328.842542 156.151615 
L 333.291264 155.634937 
L 336.071714 154.915923 
L 338.01803 154.204136 
L 339.964345 153.245451 
L 341.632616 152.178372 
L 343.300886 150.842114 
L 344.969157 149.19603 
L 345.525247 148.667308 
L 349.973968 147.030257 
L 352.476374 146.299199 
L 354.700734 145.439273 
L 356.64705 144.470953 
L 358.593365 143.252423 
L 360.539681 141.739122 
L 362.764042 139.886788 
L 366.656673 138.57522 
L 369.715168 138.383122 
L 372.495619 138.426179 
L 376.110205 138.722757 
L 379.446746 139.094307 
L 379.724791 138.90522 
L 382.505242 135.597395 
L 383.895467 134.229824 
L 385.563738 133.056458 
L 386.953963 132.307335 
L 388.066143 131.921934 
L 389.178324 131.748202 
L 390.290504 131.809023 
L 391.402684 132.120957 
L 392.514865 132.70207 
L 393.627045 133.571631 
L 394.739225 134.754632 
L 395.851405 136.265223 
L 396.963586 138.123277 
L 397.797721 139.757017 
L 399.187946 143.274102 
L 400.578172 146.167019 
L 401.690352 147.614681 
L 402.524487 148.424024 
L 403.636668 149.17134 
L 404.748848 149.604916 
L 405.861028 149.74342 
L 406.973208 149.604615 
L 408.085389 149.204461 
L 409.197569 148.558914 
L 410.587794 147.437036 
L 411.97802 145.993287 
L 413.64629 143.877195 
L 415.314561 141.396175 
L 416.426741 139.759726 
L 416.704786 139.775383 
L 417.816966 140.393832 
L 418.373056 140.432071 
L 424.212003 140.016861 
L 425.880273 140.224014 
L 426.436364 140.350173 
L 426.436364 140.350173 
" clip-path="url(#p2e56c2d4ac)" style="fill: none; stroke: #ff00ff; stroke-width: 3; stroke-linecap: square"/>
   </g>
   <g id="patch_3">
    <path d="M 7.2 331.2 
L 7.2 7.2 
" style="fill: none; stroke: #000000; stroke-width: 0.8; stroke-linejoin: miter; stroke-linecap: square"/>
   </g>
   <g id="patch_4">
    <path d="M 446.4 331.2 
L 446.4 7.2 
" style="fill: none; stroke: #000000; stroke-width: 0.8; stroke-linejoin: miter; stroke-linecap: square"/>
   </g>
   <g id="patch_5">
    <path d="M 7.2 331.2 
L 446.4 331.2 
" style="fill: none; stroke: #000000; stroke-width: 0.8; stroke-linejoin: miter; stroke-linecap: square"/>
   </g>
   <g id="patch_6">
    <path d="M 7.2 7.2 
L 446.4 7.2 
" style="fill: none; stroke: #000000; stroke-width: 0.8; stroke-linejoin: miter; stroke-linecap: square"/>
   </g>
  </g>
 </g>
 <defs>
  <clipPath id="p2e56c2d4ac">
   <rect x="7.2" y="7.2" width="439.2" height="324"/>
  </clipPath>
 </defs>
</svg>
