<?xml version="1.0" encoding="utf-8" standalone="no"?>
<!DOCTYPE svg PUBLIC "-//W3C//DTD SVG 1.1//EN"
  "http://www.w3.org/Graphics/SVG/1.1/DTD/svg11.dtd">
<svg xmlns:xlink="http://www.w3.org/1999/xlink" width="453.6pt" height="338.4pt" viewBox="0 0 453.6 338.4" xmlns="http://www.w3.org/2000/svg" version="1.1">
 <metadata>
  <rdf:RDF xmlns:dc="http://purl.org/dc/elements/1.1/" xmlns:cc="http://creativecommons.org/ns#" xmlns:rdf="http://www.w3.org/1999/02/22-rdf-syntax-ns#">
   <cc:Work>
    <dc:type rdf:resource="http://purl.org/dc/dcmitype/StillImage"/>
    <dc:date>2025-05-15T16:51:05.842610</dc:date>
    <dc:format>image/svg+xml</dc:format>
    <dc:creator>
     <cc:Agent>
      <dc:title>Matplotlib v3.10.1, https://matplotlib.org/</dc:title>
     </cc:Agent>
    </dc:creator>
   </cc:Work>
  </rdf:RDF>
 </metadata>
 <defs>
  <style type="text/css">*{stroke-linejoin: round; stroke-linecap: butt}</style>
 </defs>
 <g id="figure_1">
  <g id="patch_1">
   <path d="M 0 338.4 
L 453.6 338.4 
L 453.6 0 
L 0 0 
z
" style="fill: #ffffff"/>
  </g>
  <g id="axes_1">
   <g id="patch_2">
    <path d="M 7.2 331.2 
L 446.4 331.2 
L 446.4 7.2 
L 7.2 7.2 
z
" style="fill: #ffffff"/>
   </g>
   <g id="matplotlib.axis_1"/>
   <g id="matplotlib.axis_2"/>
   <g id="line2d_1">
    <path d="M 27.163636 168.49792 
L 28.275817 185.189233 
L 29.109952 194.487449 
L 29.666042 198.900829 
L 30.222132 201.802027 
L 30.778222 203.247579 
L 31.056267 203.483251 
L 31.334312 203.447019 
L 31.612358 203.190035 
L 32.168448 202.263051 
L 33.002583 200.889626 
L 33.280628 200.717331 
L 33.558673 200.78912 
L 33.836718 201.151322 
L 34.114763 201.836239 
L 34.670853 204.220553 
L 35.226944 207.864213 
L 36.617169 219.717466 
L 37.451304 225.514928 
L 38.007394 227.516737 
L 38.285439 227.794249 
L 38.563484 227.549042 
L 38.84153 226.769788 
L 39.39762 223.633479 
L 39.95371 218.550436 
L 40.787845 207.947893 
L 41.900025 189.952251 
L 43.290251 163.260642 
L 44.680476 132.108317 
L 46.904837 80.410472 
L 47.738972 66.622712 
L 48.295062 60.845554 
L 48.573107 59.116545 
L 48.851152 58.181037 
L 49.129197 58.029493 
L 49.407242 58.635779 
L 49.685287 59.95682 
L 50.241378 64.507498 
L 51.075513 75.005273 
L 52.465738 97.429101 
L 54.412054 129.182328 
L 55.246189 140.384091 
L 55.802279 145.998825 
L 56.358369 149.444279 
L 56.636414 150.177655 
L 56.914459 150.178215 
L 57.192504 149.411861 
L 57.47055 147.86715 
L 58.02664 142.53004 
L 58.58273 134.629142 
L 60.529045 102.576979 
L 61.085135 97.649966 
L 61.363181 96.569084 
L 61.641226 96.494153 
L 61.919271 97.441103 
L 62.197316 99.392323 
L 62.753406 106.07448 
L 63.587541 121.507904 
L 66.367992 180.944672 
L 67.202127 194.020704 
L 68.036262 204.184546 
L 68.592352 209.118064 
L 69.148443 212.240352 
L 69.426488 213.015456 
L 69.704533 213.215569 
L 69.982578 212.817922 
L 70.260623 211.813316 
L 70.816713 208.060401 
L 71.372803 202.347965 
L 73.041074 182.767455 
L 73.597164 179.42733 
L 73.875209 178.959576 
L 74.153254 179.397829 
L 74.431299 180.776863 
L 74.987389 186.312068 
L 75.543479 195.094184 
L 76.65566 218.025026 
L 77.489795 234.238041 
L 78.045885 241.996257 
L 78.601975 246.210084 
L 78.88002 246.836224 
L 79.158065 246.457309 
L 79.43611 245.095325 
L 79.992201 239.634041 
L 80.548291 231.067856 
L 81.382426 214.192245 
L 84.440922 147.426878 
L 85.275057 133.809843 
L 86.109192 123.530465 
L 86.665282 118.930769 
L 87.221372 116.426096 
L 87.499418 116.02385 
L 87.777463 116.212185 
L 88.055508 116.997272 
L 88.333553 118.374511 
L 88.889643 122.835452 
L 89.445733 129.33275 
L 90.279868 141.907938 
L 92.504229 178.210608 
L 93.338364 188.489762 
L 94.172499 196.177983 
L 95.006635 201.631639 
L 95.84077 205.270476 
L 96.39686 206.784003 
L 96.95295 207.552713 
L 97.230995 207.645703 
L 97.50904 207.540038 
L 97.787085 207.237848 
L 98.343175 206.08484 
L 99.177311 203.319929 
L 100.289491 199.418387 
L 100.845581 198.315519 
L 101.123626 198.147935 
L 101.401671 198.283326 
L 101.679716 198.743004 
L 102.235807 200.655637 
L 102.791897 203.783197 
L 103.904077 212.228574 
L 104.738212 218.291657 
L 105.294302 221.08046 
L 105.572347 221.90447 
L 105.850393 222.282936 
L 106.128438 222.178505 
L 106.406483 221.565713 
L 106.684528 220.428632 
L 107.240618 216.564555 
L 107.796708 210.625309 
L 108.630843 198.103852 
L 109.464978 181.742434 
L 110.577159 154.977689 
L 112.523474 100.382011 
L 113.9137 64.566276 
L 114.747835 48.691793 
L 115.303925 41.374074 
L 115.860015 36.890027 
L 116.13806 35.708526 
L 116.416105 35.210486 
L 116.69415 35.365843 
L 116.972195 36.137694 
L 117.528286 39.355552 
L 118.084376 44.484921 
L 118.918511 54.928405 
L 120.030691 72.239914 
L 123.645277 131.538262 
L 124.479413 141.088526 
L 125.313548 148.021834 
L 126.147683 152.617268 
L 126.981818 155.645893 
L 128.093998 159.1757 
L 128.650089 161.519968 
L 129.206179 164.671532 
L 129.762269 168.868197 
L 130.596404 177.420698 
L 131.430539 188.69683 
L 132.54272 207.015974 
L 134.489035 239.890801 
L 135.32317 250.307028 
L 135.879261 255.053445 
L 136.435351 257.81241 
L 136.713396 258.433054 
L 136.991441 258.563285 
L 137.269486 258.224415 
L 137.547531 257.450545 
L 138.103621 254.767632 
L 138.937756 248.715654 
L 140.606027 235.335301 
L 141.162117 232.11217 
L 141.718207 230.027803 
L 141.996252 229.467508 
L 142.274297 229.244623 
L 142.552342 229.364759 
L 142.830387 229.828475 
L 143.386478 231.766683 
L 143.942568 234.981737 
L 144.776703 241.906632 
L 145.888883 254.055569 
L 148.113244 280.056427 
L 148.947379 286.936005 
L 149.503469 289.813535 
L 149.781514 290.66615 
L 150.059559 291.111918 
L 150.337604 291.150169 
L 150.61565 290.787182 
L 150.893695 290.042477 
L 151.449785 287.522998 
L 152.28392 281.853299 
L 153.674145 271.658947 
L 154.230236 269.022136 
L 154.508281 268.27788 
L 154.786326 267.983206 
L 155.064371 268.17199 
L 155.342416 268.867116 
L 155.620461 270.074303 
L 156.176551 273.975958 
L 156.732641 279.62468 
L 157.844821 294.071558 
L 158.957002 307.970928 
L 159.513092 312.928002 
L 160.069182 315.848606 
L 160.347227 316.454668 
L 160.625272 316.472727 
L 160.903317 315.908618 
L 161.181362 314.781857 
L 161.737453 310.981269 
L 162.293543 305.451336 
L 163.405723 291.174398 
L 165.352038 265.500743 
L 166.186174 256.986268 
L 167.020309 250.807985 
L 167.576399 248.18026 
L 168.132489 246.854957 
L 168.410534 246.700048 
L 168.688579 246.885018 
L 168.966624 247.40583 
L 169.522715 249.399675 
L 170.078805 252.49134 
L 171.190985 260.539631 
L 172.02512 266.197439 
L 172.58121 268.705701 
L 172.859256 269.378168 
L 173.137301 269.586695 
L 173.415346 269.287197 
L 173.693391 268.4458 
L 173.971436 267.04007 
L 174.527526 262.510032 
L 175.083616 255.762592 
L 175.917751 242.03619 
L 177.029932 219.128455 
L 179.532337 165.520669 
L 180.644518 146.734893 
L 181.478653 135.764203 
L 182.312788 127.434812 
L 183.146923 121.377337 
L 183.981058 117.010957 
L 184.815194 113.728376 
L 185.927374 110.324202 
L 186.761509 108.3538 
L 187.595644 106.979029 
L 188.151735 106.416041 
L 188.98587 105.947502 
L 189.820005 105.469316 
L 190.376095 104.801223 
L 190.932185 103.629818 
L 191.488276 101.853698 
L 192.322411 98.173021 
L 193.712636 91.754916 
L 194.268726 90.462927 
L 194.546771 90.352999 
L 194.824816 90.677623 
L 195.102861 91.484695 
L 195.380907 92.809326 
L 195.936997 97.099991 
L 196.493087 103.589325 
L 197.327222 117.047188 
L 198.439402 139.948754 
L 201.497898 206.538236 
L 202.610079 225.795244 
L 203.444214 236.898856 
L 204.000304 242.191659 
L 204.556394 245.460779 
L 204.834439 246.262468 
L 205.112484 246.481314 
L 205.390529 246.107559 
L 205.668574 245.140418 
L 206.224664 241.482736 
L 206.780755 235.728124 
L 207.61489 224.068815 
L 210.117296 185.835565 
L 210.951431 177.905727 
L 211.507521 174.696394 
L 212.063611 173.058244 
L 212.341656 172.760429 
L 212.619701 172.759307 
L 212.897746 173.012366 
L 213.453836 174.088425 
L 215.122107 178.251214 
L 215.400152 178.554974 
L 215.678197 178.6188 
L 215.956242 178.397598 
L 216.234287 177.848183 
L 216.512332 176.930397 
L 217.068422 173.841873 
L 217.624513 168.896801 
L 218.180603 161.980992 
L 219.014738 148.089362 
L 220.404963 119.063131 
L 221.517144 97.647499 
L 222.073234 90.205494 
L 222.629324 86.07344 
L 222.907369 85.431259 
L 223.185414 85.794245 
L 223.463459 87.178551 
L 223.741504 89.575876 
L 224.297594 97.278006 
L 224.853684 108.449819 
L 225.68782 130.199946 
L 229.302406 234.300408 
L 229.858496 244.466269 
L 230.414586 251.441641 
L 230.692631 253.581421 
L 230.970676 254.761799 
L 231.248721 254.955631 
L 231.526766 254.156411 
L 231.804811 252.380627 
L 232.360901 246.092977 
L 232.916992 236.757184 
L 235.141352 194.627887 
L 235.697442 190.203291 
L 235.975487 189.661391 
L 236.253533 190.287868 
L 236.531578 192.07285 
L 237.087668 198.864934 
L 237.643758 209.155305 
L 239.868119 255.169542 
L 240.424209 260.49566 
L 240.702254 261.577888 
L 240.980299 261.568017 
L 241.258344 260.4776 
L 241.536389 258.342756 
L 242.092479 251.194528 
L 242.648569 240.77774 
L 243.482704 220.704125 
L 244.87293 180.901037 
L 247.653381 100.295414 
L 248.487516 82.679697 
L 249.043606 74.80258 
L 249.599696 70.736258 
L 249.877741 70.239451 
L 250.155786 70.776191 
L 250.433831 72.321463 
L 250.989921 78.192957 
L 251.546012 87.116072 
L 254.326462 138.033429 
L 254.882553 143.133521 
L 255.438643 145.949357 
L 255.716688 146.622722 
L 255.994733 146.895186 
L 256.272778 146.836857 
L 256.550823 146.51829 
L 257.106913 145.343745 
L 257.941048 142.867114 
L 259.053229 138.742688 
L 259.887364 134.784275 
L 261.555634 126.213378 
L 261.833679 125.335862 
L 262.111724 124.829184 
L 262.38977 124.776352 
L 262.667815 125.252182 
L 262.94586 126.32039 
L 263.50195 130.405668 
L 264.05804 137.18575 
L 264.892175 151.956579 
L 266.004356 177.34072 
L 267.950671 222.759215 
L 269.062851 243.792568 
L 269.896987 256.185702 
L 270.453077 262.424108 
L 271.009167 266.630644 
L 271.287212 267.843889 
L 271.565257 268.399474 
L 271.843302 268.258362 
L 272.121347 267.394307 
L 272.399392 265.794183 
L 272.955482 260.437891 
L 273.511573 252.498182 
L 274.623753 231.725067 
L 275.735933 211.116059 
L 276.292023 203.283361 
L 276.848113 197.882874 
L 277.404204 195.001867 
L 277.682249 194.421044 
L 277.960294 194.321548 
L 278.238339 194.612071 
L 278.794429 195.938946 
L 279.628564 198.097234 
L 279.906609 198.431392 
L 280.184654 198.421745 
L 280.462699 197.997625 
L 280.740744 197.104742 
L 281.296835 193.779087 
L 281.852925 188.33418 
L 282.68706 176.489901 
L 283.79924 155.651726 
L 286.023601 111.322302 
L 286.857736 98.784467 
L 287.413826 92.573542 
L 287.969916 88.174969 
L 288.526007 85.485438 
L 288.804052 84.711231 
L 289.082097 84.267818 
L 289.360142 84.11448 
L 289.638187 84.209377 
L 289.916232 84.5128 
L 290.472322 85.616005 
L 291.028412 87.233403 
L 291.862547 90.546382 
L 292.418638 93.504564 
L 292.974728 97.290906 
L 293.808863 104.940989 
L 294.642998 115.224629 
L 295.755179 132.57809 
L 297.701494 168.15647 
L 299.925855 207.863091 
L 301.038035 223.764831 
L 301.87217 232.595068 
L 302.706305 238.624051 
L 303.540441 242.524135 
L 305.208711 248.914646 
L 306.042846 253.437168 
L 307.155027 261.148272 
L 308.823297 273.152396 
L 309.657432 277.87907 
L 310.213522 280.181723 
L 310.769613 281.56816 
L 311.047658 281.833108 
L 311.325703 281.759748 
L 311.603748 281.303996 
L 311.881793 280.423564 
L 312.437883 277.231169 
L 312.993973 271.947564 
L 313.550063 264.53607 
L 314.384199 250.048922 
L 316.330514 213.763302 
L 316.886604 206.984229 
L 317.442694 203.040398 
L 317.720739 202.170286 
L 317.998785 201.998439 
L 318.27683 202.462604 
L 318.554875 203.477081 
L 319.110965 206.716364 
L 320.50119 215.848566 
L 320.779235 216.865287 
L 321.05728 217.387108 
L 321.335325 217.355475 
L 321.61337 216.731242 
L 321.891416 215.496348 
L 322.447506 211.209161 
L 323.003596 204.667331 
L 323.837731 191.365722 
L 324.949911 169.106786 
L 328.286452 97.992538 
L 328.842542 90.97712 
L 329.120587 88.691966 
L 329.398633 87.342882 
L 329.676678 87.006481 
L 329.954723 87.739744 
L 330.232768 89.579354 
L 330.788858 96.602623 
L 331.344948 107.860247 
L 332.179083 131.194233 
L 334.681489 210.571692 
L 335.515624 227.580899 
L 336.071714 234.564235 
L 336.627805 238.067569 
L 336.90585 238.573574 
L 337.183895 238.292921 
L 337.46194 237.25859 
L 338.01803 233.056653 
L 338.57412 226.186834 
L 339.13021 216.830177 
L 339.964345 198.590226 
L 341.354571 160.622597 
L 342.466751 131.148242 
L 343.022841 119.923933 
L 343.578931 112.506943 
L 343.856976 110.459031 
L 344.135022 109.584095 
L 344.413067 109.885612 
L 344.691112 111.330827 
L 345.247202 117.339282 
L 345.803292 126.665765 
L 348.027653 168.943913 
L 348.583743 174.411479 
L 348.861788 175.885409 
L 349.139833 176.50897 
L 349.417878 176.302126 
L 349.695923 175.303465 
L 350.252013 171.148191 
L 350.808103 164.521672 
L 351.642239 150.920677 
L 352.476374 133.779108 
L 353.588554 106.209085 
L 356.09096 39.059532 
L 356.64705 29.06563 
L 357.20314 23.138274 
L 357.481185 21.927273 
L 357.75923 21.953521 
L 358.037275 23.231376 
L 358.31532 25.74334 
L 358.87141 34.255011 
L 359.427501 46.801258 
L 360.261636 70.974061 
L 363.042087 158.183993 
L 364.154267 185.258331 
L 364.988402 200.962874 
L 365.544492 208.711443 
L 366.100582 213.876819 
L 366.378628 215.395394 
L 366.656673 216.172853 
L 366.934718 216.202242 
L 367.212763 215.49388 
L 367.490808 214.077381 
L 368.046898 209.336798 
L 368.881033 198.758483 
L 370.271259 179.824305 
L 370.827349 174.661508 
L 371.383439 171.982746 
L 371.661484 171.693007 
L 371.939529 172.125091 
L 372.217574 173.270472 
L 372.773664 177.580093 
L 373.329754 184.234768 
L 374.16389 197.359819 
L 376.38825 235.3141 
L 377.222385 245.056738 
L 377.778476 248.955925 
L 378.056521 250.004839 
L 378.334566 250.412581 
L 378.612611 250.159186 
L 378.890656 249.229735 
L 379.168701 247.620413 
L 379.724791 242.388071 
L 380.280881 234.616619 
L 381.115016 218.929575 
L 382.505242 186.579933 
L 383.895467 155.920713 
L 384.729602 142.833351 
L 385.285693 137.410205 
L 385.563738 135.804922 
L 385.841783 134.960833 
L 386.119828 134.879957 
L 386.397873 135.551078 
L 386.675918 136.951312 
L 387.232008 141.786008 
L 387.788098 148.974954 
L 388.622233 162.948581 
L 390.846594 203.409554 
L 391.680729 214.196956 
L 392.236819 219.013704 
L 392.79291 221.777268 
L 393.070955 222.398585 
L 393.349 222.540594 
L 393.627045 222.237619 
L 393.90509 221.538006 
L 394.46118 219.191832 
L 396.12945 210.810504 
L 396.407496 210.28285 
L 396.685541 210.272755 
L 396.963586 210.86502 
L 397.241631 212.128854 
L 397.797721 216.848573 
L 398.353811 224.566856 
L 399.187946 241.10012 
L 401.690352 297.478986 
L 402.246442 304.427437 
L 402.524487 306.554765 
L 402.802532 307.744903 
L 403.080577 307.998298 
L 403.358622 307.338394 
L 403.636668 305.809387 
L 404.192758 300.404301 
L 404.748848 292.432847 
L 405.861028 271.913576 
L 407.529299 240.663998 
L 408.363434 228.835423 
L 408.919524 223.152824 
L 409.475614 219.45936 
L 409.753659 218.38947 
L 410.031704 217.839494 
L 410.309749 217.803151 
L 410.587794 218.264624 
L 410.865839 219.198674 
L 411.42193 222.344855 
L 412.256065 229.489718 
L 413.924335 245.59617 
L 414.480425 249.26978 
L 415.036516 251.234797 
L 415.314561 251.469123 
L 415.592606 251.170299 
L 415.870651 250.323069 
L 416.426741 246.981598 
L 416.982831 241.532316 
L 417.816966 229.898021 
L 418.929147 209.64583 
L 422.265688 143.919842 
L 423.099823 131.943761 
L 423.933958 123.26619 
L 424.490048 119.476033 
L 425.046138 117.301705 
L 425.324183 116.805684 
L 425.602228 116.68824 
L 425.880273 116.934232 
L 426.158319 117.526272 
L 426.436364 118.445852 
L 426.436364 118.445852 
" clip-path="url(#p0ed8429d9f)" style="fill: none; stroke-dasharray: 11.1,4.8; stroke-dashoffset: 0; stroke: #000000; stroke-width: 3"/>
   </g>
   <g id="line2d_2">
    <path d="M 27.163636 155.743931 
L 30.222132 156.806418 
L 31.890403 157.150559 
L 33.280628 157.224816 
L 34.392808 157.105017 
L 35.504989 156.793854 
L 36.617169 156.23726 
L 37.173259 155.995531 
L 38.563484 156.057338 
L 39.675665 155.97276 
L 39.95371 156.136082 
L 43.012206 160.224053 
L 48.017017 166.97856 
L 49.963332 169.234997 
L 51.631603 170.82009 
L 53.021828 171.810002 
L 54.134009 172.329131 
L 55.802279 172.920722 
L 56.914459 173.524877 
L 60.251 168.368811 
L 62.197316 165.739067 
L 63.865586 163.876126 
L 65.255812 162.688568 
L 66.367992 162.027431 
L 67.480172 161.66007 
L 68.314307 161.598824 
L 69.148443 161.741506 
L 69.982578 162.101127 
L 70.816713 162.691373 
L 71.650848 163.524917 
L 72.763029 165.031266 
L 73.041074 165.453591 
L 73.319119 165.60491 
L 76.377615 164.666036 
L 78.601975 163.765974 
L 80.548291 162.740728 
L 82.216561 161.631466 
L 83.884832 160.263986 
L 85.553102 158.593979 
L 87.221372 156.575345 
L 88.611598 154.571068 
L 89.723778 152.954231 
L 92.504229 150.532789 
L 93.616409 149.953761 
L 94.72859 149.604796 
L 95.84077 149.461777 
L 97.230995 149.537044 
L 98.621221 149.852582 
L 100.289491 150.484892 
L 102.235807 151.473345 
L 105.850393 153.624118 
L 106.962573 154.45082 
L 109.464978 156.760203 
L 111.133249 158.675079 
L 113.079564 161.269153 
L 115.303925 164.609502 
L 118.362421 169.646666 
L 128.650089 186.970402 
L 130.318359 189.11736 
L 131.98663 190.892247 
L 133.6549 192.301679 
L 135.045125 193.201181 
L 136.435351 193.852672 
L 137.825576 194.262321 
L 139.215801 194.432934 
L 141.162117 194.591544 
L 141.718207 194.962158 
L 143.664523 196.583482 
L 145.610838 197.942662 
L 147.557154 199.048446 
L 149.503469 199.908015 
L 151.449785 200.528098 
L 153.3961 200.916884 
L 155.342416 201.081214 
L 155.898506 201.087945 
L 157.566776 202.221099 
L 158.678957 202.903886 
L 161.737453 204.394867 
L 165.908129 206.132625 
L 172.02512 208.654235 
L 173.415346 209.717395 
L 175.917751 211.367435 
L 177.307977 212.03463 
L 178.698202 212.404571 
L 180.088427 212.511133 
L 181.478653 212.387408 
L 183.146923 211.98404 
L 185.093239 211.233727 
L 187.317599 210.123455 
L 187.87369 209.819471 
L 189.263915 209.636071 
L 190.65414 209.1866 
L 194.546771 207.447833 
L 200.941808 204.072935 
L 202.332033 203.667997 
L 203.444214 203.546964 
L 204.834439 203.914774 
L 205.668574 203.889759 
L 206.50271 203.684598 
L 207.61489 203.158963 
L 209.005115 202.178025 
L 210.951431 200.675827 
L 216.512332 196.145789 
L 217.902558 195.340287 
L 219.292783 194.803996 
L 220.404963 194.345104 
L 221.517144 193.65783 
L 222.907369 192.541165 
L 224.575639 190.917822 
L 226.521955 188.772433 
L 229.858496 184.60684 
L 231.804811 182.529989 
L 233.195037 181.355892 
L 234.307217 180.659196 
L 235.141352 180.303164 
L 235.697442 180.246854 
L 243.204659 181.219491 
L 250.989921 183.908349 
L 252.936237 184.651484 
L 255.994733 184.51385 
L 259.053229 184.602914 
L 260.443454 184.783846 
L 271.009167 187.019981 
L 274.067663 186.360638 
L 277.126159 185.784527 
L 280.184654 183.950975 
L 284.35533 181.749725 
L 289.360142 179.283863 
L 291.306457 176.852999 
L 293.252773 174.76078 
L 296.867359 171.302539 
L 298.257584 170.340109 
L 299.64781 169.60606 
L 301.038035 169.086034 
L 302.706305 168.721141 
L 304.374576 168.615139 
L 306.042846 168.74178 
L 307.711117 169.075041 
L 307.989162 169.14885 
L 308.267207 169.098373 
L 309.935477 168.148955 
L 311.325703 167.687034 
L 312.159838 167.658766 
L 313.828108 167.901056 
L 315.496379 168.355574 
L 317.164649 169.044531 
L 318.83292 169.976338 
L 320.50119 171.158062 
L 322.169461 172.600473 
L 323.837731 174.317255 
L 325.506002 176.316372 
L 326.340137 177.425746 
L 326.618182 177.51223 
L 328.564497 173.589936 
L 329.120587 172.553137 
L 330.510813 170.827269 
L 331.901038 169.485027 
L 333.291264 168.495676 
L 334.681489 167.812553 
L 336.071714 167.395164 
L 337.46194 167.204024 
L 339.13021 167.21827 
L 341.076526 167.485125 
L 343.856976 168.14043 
L 344.691112 168.266062 
L 345.247202 167.803355 
L 346.359382 166.557132 
L 348.305698 163.710561 
L 349.695923 162.039096 
L 351.086148 160.681487 
L 352.476374 159.658934 
L 353.588554 159.099311 
L 354.700734 158.780296 
L 355.812915 158.714676 
L 356.925095 158.917706 
L 358.037275 159.403856 
L 359.149456 160.185241 
L 360.261636 161.277117 
L 361.373816 162.696196 
L 362.485996 164.463455 
L 363.320132 165.746694 
L 365.266447 166.854498 
L 367.212763 168.415362 
L 369.437123 170.513526 
L 372.217574 173.47238 
L 381.671107 183.910032 
L 382.783287 184.854402 
L 384.451557 186.625363 
L 386.675918 189.371989 
L 393.349 197.92449 
L 395.01727 199.582942 
L 396.407496 200.664498 
L 397.519676 201.287385 
L 398.631856 201.663271 
L 401.134262 202.029286 
L 402.802532 202.245665 
L 404.748848 202.769617 
L 406.973208 203.617183 
L 413.924335 206.477439 
L 415.592606 206.873404 
L 417.260876 207.036277 
L 418.095011 207.003747 
L 418.373056 206.768187 
L 422.265688 200.454962 
L 424.212003 197.858645 
L 426.436364 195.27276 
L 426.436364 195.27276 
" clip-path="url(#p0ed8429d9f)" style="fill: none; stroke: #ff00ff; stroke-width: 3; stroke-linecap: square"/>
   </g>
   <g id="patch_3">
    <path d="M 7.2 331.2 
L 7.2 7.2 
" style="fill: none; stroke: #000000; stroke-width: 0.8; stroke-linejoin: miter; stroke-linecap: square"/>
   </g>
   <g id="patch_4">
    <path d="M 446.4 331.2 
L 446.4 7.2 
" style="fill: none; stroke: #000000; stroke-width: 0.8; stroke-linejoin: miter; stroke-linecap: square"/>
   </g>
   <g id="patch_5">
    <path d="M 7.2 331.2 
L 446.4 331.2 
" style="fill: none; stroke: #000000; stroke-width: 0.8; stroke-linejoin: miter; stroke-linecap: square"/>
   </g>
   <g id="patch_6">
    <path d="M 7.2 7.2 
L 446.4 7.2 
" style="fill: none; stroke: #000000; stroke-width: 0.8; stroke-linejoin: miter; stroke-linecap: square"/>
   </g>
  </g>
 </g>
 <defs>
  <clipPath id="p0ed8429d9f">
   <rect x="7.2" y="7.2" width="439.2" height="324"/>
  </clipPath>
 </defs>
</svg>
