<?xml version="1.0" encoding="utf-8" standalone="no"?>
<!DOCTYPE svg PUBLIC "-//W3C//DTD SVG 1.1//EN"
  "http://www.w3.org/Graphics/SVG/1.1/DTD/svg11.dtd">
<svg xmlns:xlink="http://www.w3.org/1999/xlink" width="453.6pt" height="338.4pt" viewBox="0 0 453.6 338.4" xmlns="http://www.w3.org/2000/svg" version="1.1">
 <metadata>
  <rdf:RDF xmlns:dc="http://purl.org/dc/elements/1.1/" xmlns:cc="http://creativecommons.org/ns#" xmlns:rdf="http://www.w3.org/1999/02/22-rdf-syntax-ns#">
   <cc:Work>
    <dc:type rdf:resource="http://purl.org/dc/dcmitype/StillImage"/>
    <dc:date>2025-05-15T17:23:33.892869</dc:date>
    <dc:format>image/svg+xml</dc:format>
    <dc:creator>
     <cc:Agent>
      <dc:title>Matplotlib v3.10.1, https://matplotlib.org/</dc:title>
     </cc:Agent>
    </dc:creator>
   </cc:Work>
  </rdf:RDF>
 </metadata>
 <defs>
  <style type="text/css">*{stroke-linejoin: round; stroke-linecap: butt}</style>
 </defs>
 <g id="figure_1">
  <g id="patch_1">
   <path d="M 0 338.4 
L 453.6 338.4 
L 453.6 0 
L 0 0 
z
" style="fill: #ffffff"/>
  </g>
  <g id="axes_1">
   <g id="patch_2">
    <path d="M 7.2 331.2 
L 446.4 331.2 
L 446.4 7.2 
L 7.2 7.2 
z
" style="fill: #ffffff"/>
   </g>
   <g id="matplotlib.axis_1"/>
   <g id="matplotlib.axis_2"/>
   <g id="line2d_1">
    <path d="M 27.163636 307.458155 
L 27.997772 312.744141 
L 28.553862 315.01535 
L 29.109952 316.245084 
L 29.387997 316.472727 
L 29.666042 316.4488 
L 29.944087 316.180557 
L 30.500177 314.947724 
L 31.056267 312.856256 
L 31.890403 308.301054 
L 32.724538 302.286409 
L 33.836718 292.371483 
L 35.226944 277.526551 
L 39.119575 233.362695 
L 39.95371 226.531399 
L 40.787845 221.324146 
L 41.62198 217.662626 
L 42.456115 215.258232 
L 43.290251 213.686613 
L 45.514611 210.132251 
L 46.348747 208.051196 
L 47.182882 205.296848 
L 48.295062 200.627126 
L 49.963332 192.251773 
L 52.187693 181.0626 
L 54.134009 172.455898 
L 58.304685 155.153685 
L 59.13882 152.637735 
L 59.69491 151.422171 
L 60.251 150.652536 
L 60.80709 150.3788 
L 61.085135 150.439122 
L 61.363181 150.634332 
L 61.919271 151.432451 
L 62.475361 152.765088 
L 63.309496 155.688908 
L 64.421676 160.940371 
L 66.924082 173.597019 
L 67.480172 175.523937 
L 68.036262 176.817761 
L 68.314307 177.193185 
L 68.592352 177.37335 
L 68.870398 177.349848 
L 69.148443 177.116967 
L 69.426488 176.670795 
L 69.982578 175.135219 
L 70.538668 172.758118 
L 71.372803 167.731735 
L 72.206938 161.229078 
L 73.597164 148.353863 
L 75.265434 132.982094 
L 76.09957 126.923374 
L 76.65566 123.944602 
L 77.21175 122.014476 
L 77.489795 121.48686 
L 77.76784 121.269558 
L 78.045885 121.373336 
L 78.32393 121.805705 
L 78.601975 122.571402 
L 79.158065 125.104487 
L 79.714155 128.943255 
L 80.548291 136.957183 
L 81.660471 151.034643 
L 84.997012 197.725083 
L 85.831147 205.66187 
L 86.387237 209.441166 
L 86.943327 211.953447 
L 87.499418 213.227268 
L 87.777463 213.425418 
L 88.055508 213.350927 
L 88.333553 213.021778 
L 88.889643 211.678155 
L 89.445733 209.560548 
L 90.279868 205.299303 
L 91.670094 196.543349 
L 94.172499 180.364152 
L 95.562725 172.812024 
L 96.95295 166.439126 
L 98.343175 160.972743 
L 99.455356 157.405013 
L 100.289491 155.519922 
L 100.845581 154.789466 
L 101.401671 154.556901 
L 101.679716 154.63934 
L 102.235807 155.204481 
L 102.791897 156.274391 
L 103.626032 158.653243 
L 106.128438 166.959548 
L 106.684528 168.036215 
L 107.240618 168.548786 
L 107.518663 168.567233 
L 107.796708 168.416986 
L 108.074753 168.093014 
L 108.630843 166.913467 
L 109.186933 165.026359 
L 110.021069 160.931645 
L 110.855204 155.5015 
L 112.245429 144.407234 
L 114.191745 128.54518 
L 115.02588 123.285794 
L 115.58197 120.682276 
L 116.13806 118.908619 
L 116.69415 117.996636 
L 116.972195 117.857787 
L 117.250241 117.920127 
L 117.528286 118.17177 
L 118.084376 119.182209 
L 118.640466 120.747095 
L 119.752646 124.893795 
L 121.977007 133.54444 
L 123.645277 138.845458 
L 125.313548 144.297477 
L 126.425728 148.790339 
L 127.537908 154.233463 
L 128.928134 162.337267 
L 130.596404 173.676347 
L 132.54272 188.605177 
L 135.601215 212.232724 
L 137.269486 223.079988 
L 139.493847 235.755667 
L 141.162117 244.384753 
L 142.274297 249.091442 
L 143.108433 251.759073 
L 143.942568 253.679867 
L 145.054748 255.492945 
L 146.166928 257.321457 
L 147.001064 259.205576 
L 148.113244 262.479179 
L 149.225424 265.781558 
L 149.781514 266.969319 
L 150.337604 267.597042 
L 150.61565 267.659941 
L 150.893695 267.544619 
L 151.17174 267.250662 
L 151.72783 266.159655 
L 152.561965 263.559321 
L 153.95219 258.761299 
L 154.508281 257.473697 
L 155.064371 256.831974 
L 155.342416 256.771336 
L 155.620461 256.877811 
L 156.176551 257.526753 
L 157.010686 259.181126 
L 157.844821 260.805703 
L 158.400912 261.399303 
L 158.678957 261.465459 
L 158.957002 261.354365 
L 159.235047 261.05669 
L 159.791137 259.902177 
L 160.347227 258.068902 
L 161.181362 254.404223 
L 163.405723 244.055142 
L 164.517903 240.133182 
L 166.186174 234.34708 
L 167.020309 230.642907 
L 168.132489 224.682691 
L 170.35685 212.326367 
L 171.46903 207.561471 
L 172.859256 202.829117 
L 174.249481 197.896523 
L 175.361661 192.824764 
L 176.751887 184.96225 
L 178.976247 171.932098 
L 179.810382 168.145826 
L 180.644518 165.448568 
L 181.200608 164.333233 
L 181.756698 163.768894 
L 182.034743 163.682421 
L 182.590833 163.855903 
L 183.146923 164.401649 
L 185.093239 167.001302 
L 185.649329 167.201567 
L 185.927374 167.106466 
L 186.205419 166.859901 
L 186.761509 165.867205 
L 187.317599 164.168695 
L 187.87369 161.770692 
L 188.707825 157.029201 
L 190.376095 145.396164 
L 191.488276 138.340032 
L 192.322411 134.596657 
L 192.878501 133.123081 
L 193.156546 132.727752 
L 193.434591 132.568002 
L 193.712636 132.645872 
L 193.990681 132.960244 
L 194.546771 134.280049 
L 195.102861 136.465367 
L 195.936997 141.151713 
L 197.049177 149.367924 
L 200.663763 178.329275 
L 201.497898 182.693642 
L 202.053988 184.697993 
L 202.610079 185.913266 
L 202.888124 186.217795 
L 203.166169 186.320941 
L 203.444214 186.225499 
L 203.722259 185.93616 
L 204.278349 184.804323 
L 204.834439 182.995813 
L 205.668574 179.211948 
L 206.780755 172.71036 
L 210.117296 151.575091 
L 210.951431 148.000459 
L 211.507521 146.433702 
L 212.063611 145.648925 
L 212.341656 145.578201 
L 212.619701 145.733673 
L 212.897746 146.121857 
L 213.453836 147.610039 
L 214.009927 150.046613 
L 214.566017 153.394124 
L 215.400152 159.941014 
L 216.512332 170.82386 
L 219.570828 202.80406 
L 220.683008 211.553038 
L 221.517144 216.340829 
L 222.073234 218.590893 
L 222.629324 220.042037 
L 222.907369 220.45834 
L 223.185414 220.664486 
L 223.463459 220.658581 
L 223.741504 220.439431 
L 224.019549 220.007209 
L 224.575639 218.511273 
L 225.13173 216.203682 
L 225.965865 211.372192 
L 227.078045 202.994773 
L 229.302406 185.032246 
L 230.136541 180.058092 
L 230.692631 177.793178 
L 231.248721 176.518724 
L 231.526766 176.276243 
L 231.804811 176.301908 
L 232.082856 176.593994 
L 232.360901 177.146861 
L 232.916992 178.991195 
L 233.473082 181.708358 
L 234.307217 187.013726 
L 237.087668 206.220886 
L 237.921803 210.115432 
L 238.755938 212.739049 
L 239.312028 213.85312 
L 239.868119 214.556527 
L 240.424209 214.953921 
L 241.258344 215.221776 
L 242.370524 215.539793 
L 242.926614 215.902093 
L 243.482704 216.505221 
L 244.038795 217.402817 
L 244.87293 219.348789 
L 245.707065 221.946449 
L 247.931426 229.457868 
L 248.487516 230.604531 
L 249.043606 231.126581 
L 249.321651 231.115377 
L 249.599696 230.909011 
L 249.877741 230.502235 
L 250.433831 229.0866 
L 250.989921 226.908865 
L 251.824057 222.446504 
L 253.214282 213.140721 
L 255.716688 196.313701 
L 258.219093 179.757767 
L 260.721499 162.397663 
L 261.555634 158.018787 
L 262.38977 154.943164 
L 262.94586 153.629436 
L 263.50195 152.824438 
L 264.05804 152.402667 
L 264.892175 152.150877 
L 265.72631 151.903536 
L 266.282401 151.553655 
L 266.838491 150.998479 
L 267.672626 149.833734 
L 269.062851 147.816478 
L 269.618942 147.387828 
L 269.896987 147.327287 
L 270.175032 147.39106 
L 270.453077 147.593173 
L 271.009167 148.45893 
L 271.565257 149.995283 
L 272.121347 152.237011 
L 272.955482 156.915895 
L 273.789618 163.062377 
L 274.901798 173.16205 
L 276.292023 187.961242 
L 281.57488 246.877056 
L 282.68706 255.616312 
L 283.521195 260.31848 
L 284.077285 262.424325 
L 284.633376 263.627518 
L 284.911421 263.871676 
L 285.189466 263.868079 
L 285.467511 263.610384 
L 285.745556 263.092782 
L 286.301646 261.256979 
L 286.857736 258.327302 
L 287.413826 254.28647 
L 288.247962 246.158654 
L 289.082097 235.675318 
L 290.194277 218.52413 
L 291.584502 193.408376 
L 296.589314 98.881442 
L 297.979539 77.118279 
L 299.369764 58.731307 
L 300.481945 46.670252 
L 301.594125 36.996725 
L 302.42826 31.292819 
L 303.262396 26.917759 
L 304.096531 23.891328 
L 304.652621 22.637873 
L 305.208711 22.007184 
L 305.486756 21.927273 
L 305.764801 22.005289 
L 306.042846 22.241718 
L 306.598936 23.18831 
L 307.155027 24.763987 
L 307.711117 26.962964 
L 308.545252 31.408506 
L 309.379387 37.185324 
L 310.491567 46.80057 
L 311.881793 61.300142 
L 316.330514 110.454813 
L 317.998785 125.195213 
L 319.38901 135.55246 
L 320.50119 142.283842 
L 321.335325 146.13746 
L 321.891416 148.03762 
L 322.447506 149.370573 
L 323.003596 150.144145 
L 323.559686 150.403833 
L 324.115776 150.231761 
L 324.671866 149.742448 
L 326.618182 147.604036 
L 327.174272 147.476003 
L 327.452317 147.572903 
L 328.008407 148.148276 
L 328.564497 149.291998 
L 329.120587 151.048132 
L 329.676678 153.428126 
L 330.510813 158.1065 
L 331.622993 166.010161 
L 334.403444 186.982593 
L 335.237579 191.296504 
L 335.793669 193.247581 
L 336.349759 194.382942 
L 336.627805 194.635826 
L 336.90585 194.678771 
L 337.183895 194.513674 
L 337.46194 194.144083 
L 338.01803 192.812491 
L 338.57412 190.734912 
L 339.408255 186.357591 
L 340.24239 180.676264 
L 341.354571 171.531325 
L 344.691112 142.328805 
L 345.525247 137.493572 
L 346.081337 135.385954 
L 346.637427 134.28192 
L 346.915472 134.120906 
L 347.193517 134.222157 
L 347.471562 134.582925 
L 348.027653 136.057643 
L 348.583743 138.468673 
L 349.417878 143.587898 
L 350.530058 152.425245 
L 353.032464 173.25076 
L 353.866599 177.909132 
L 354.422689 179.818308 
L 354.700734 180.369936 
L 354.978779 180.643575 
L 355.256825 180.638204 
L 355.53487 180.358562 
L 355.812915 179.814614 
L 356.369005 177.999105 
L 357.20314 173.825234 
L 359.705546 159.302524 
L 360.261636 157.331421 
L 360.817726 156.202063 
L 361.095771 155.977275 
L 361.373816 155.985028 
L 361.651861 156.225808 
L 361.929906 156.697573 
L 362.485996 158.313959 
L 363.042087 160.776197 
L 363.876222 165.876294 
L 364.988402 174.785533 
L 366.656673 190.81023 
L 368.324943 206.670778 
L 369.159078 213.131996 
L 369.993213 217.86068 
L 370.549304 219.839657 
L 371.105394 220.801245 
L 371.383439 220.898971 
L 371.661484 220.749356 
L 371.939529 220.363943 
L 372.495619 218.954992 
L 373.051709 216.850921 
L 374.441935 210.156433 
L 375.27607 206.492289 
L 375.83216 204.677315 
L 376.38825 203.525354 
L 376.666295 203.213777 
L 376.94434 203.074879 
L 377.222385 203.0986 
L 377.778476 203.566792 
L 378.612611 204.955255 
L 379.724791 206.836336 
L 380.280881 207.285086 
L 380.558926 207.318649 
L 380.836971 207.214264 
L 381.393062 206.599591 
L 381.949152 205.527858 
L 383.617422 201.84675 
L 383.895467 201.563219 
L 384.173512 201.47711 
L 384.451557 201.620698 
L 384.729602 202.021349 
L 385.285693 203.669963 
L 385.841783 206.50257 
L 386.397873 210.477367 
L 387.232008 218.205772 
L 390.012459 246.82157 
L 390.846594 252.372895 
L 391.402684 254.743556 
L 391.958774 256.029067 
L 392.236819 256.280176 
L 392.514865 256.284842 
L 392.79291 256.057357 
L 393.349 254.971989 
L 393.90509 253.165035 
L 394.739225 249.415536 
L 395.851405 243.118515 
L 397.519676 232.112521 
L 400.022082 213.780305 
L 402.246442 197.964064 
L 405.026893 178.626853 
L 406.973208 162.723628 
L 408.363434 151.888273 
L 409.197569 146.78922 
L 409.753659 144.275798 
L 410.309749 142.578747 
L 410.865839 141.74004 
L 411.143885 141.643067 
L 411.42193 141.755668 
L 411.699975 142.070915 
L 412.256065 143.269734 
L 412.812155 145.141312 
L 413.64629 148.935312 
L 415.314561 158.242918 
L 416.426741 164.067809 
L 417.260876 167.462276 
L 417.816966 169.066316 
L 418.373056 170.062342 
L 418.651102 170.319965 
L 418.929147 170.414726 
L 419.207192 170.347914 
L 419.485237 170.122665 
L 420.041327 169.223466 
L 420.597417 167.794488 
L 421.431552 164.917793 
L 423.655913 156.634479 
L 424.490048 154.575469 
L 425.046138 153.648903 
L 425.880273 152.754443 
L 426.436364 152.310263 
L 426.436364 152.310263 
" clip-path="url(#pe3275299a7)" style="fill: none; stroke-dasharray: 11.1,4.8; stroke-dashoffset: 0; stroke: #000000; stroke-width: 3"/>
   </g>
   <g id="line2d_2">
    <path d="M 27.163636 244.247727 
L 29.387997 250.104821 
L 31.334312 254.652148 
L 33.280628 258.619947 
L 34.670853 261.077227 
L 34.948898 261.407032 
L 35.226944 261.064807 
L 35.783034 258.173628 
L 38.285439 243.62258 
L 44.402431 212.028327 
L 46.070701 204.881128 
L 47.460927 199.899051 
L 48.573107 196.687666 
L 49.407242 194.794336 
L 50.241378 193.387329 
L 51.075513 192.492602 
L 52.187693 188.242318 
L 52.743783 186.472379 
L 57.192504 180.547015 
L 59.69491 176.347794 
L 64.421676 167.864386 
L 68.036262 161.566053 
L 68.314307 161.204677 
L 68.592352 161.243733 
L 69.426488 162.107886 
L 71.650848 163.78739 
L 72.484984 164.033395 
L 73.319119 164.013271 
L 74.153254 163.757083 
L 75.821524 163.055062 
L 77.21175 162.688339 
L 78.88002 161.99023 
L 82.772651 160.243089 
L 84.162877 159.919238 
L 85.275057 159.892333 
L 85.831147 159.975332 
L 88.055508 161.466771 
L 90.557913 162.444326 
L 93.338364 163.795459 
L 94.72859 164.457111 
L 96.118815 164.80196 
L 97.50904 164.893513 
L 98.899266 164.734031 
L 100.289491 164.323536 
L 101.679716 163.667012 
L 103.347987 162.812119 
L 104.738212 162.708073 
L 105.016257 162.825462 
L 107.518663 165.323767 
L 108.908888 166.305138 
L 110.299114 167.003222 
L 111.689339 167.434934 
L 112.801519 167.558204 
L 113.35761 167.069645 
L 114.747835 165.722644 
L 116.13806 164.700783 
L 117.528286 163.998883 
L 118.640466 163.667668 
L 120.030691 163.510324 
L 121.977007 163.266312 
L 125.869638 158.937211 
L 128.650089 155.532293 
L 131.152494 152.266589 
L 136.435351 159.000134 
L 142.830387 171.022569 
L 145.332793 175.448644 
L 147.279109 178.432786 
L 148.391289 180.075007 
L 152.28392 186.81859 
L 153.95219 189.298497 
L 155.342416 190.897579 
L 156.454596 191.870055 
L 156.732641 191.822443 
L 158.122867 191.063599 
L 160.903317 189.853673 
L 164.795948 188.417841 
L 167.020309 188.405932 
L 169.24467 188.151324 
L 171.747075 187.797749 
L 173.137301 187.672632 
L 174.527526 187.311766 
L 176.751887 186.411668 
L 177.864067 185.556167 
L 178.976247 184.387874 
L 180.088427 182.907906 
L 181.200608 181.080269 
L 183.146923 177.378819 
L 184.815194 174.628286 
L 186.483464 172.268368 
L 188.151735 170.297484 
L 189.820005 168.675969 
L 192.044366 166.796225 
L 193.712636 165.572956 
L 194.546771 165.275499 
L 195.936997 165.020283 
L 197.327222 165.025606 
L 198.161357 165.200983 
L 199.551583 165.704708 
L 200.941808 166.431422 
L 202.332033 167.409779 
L 203.722259 168.665446 
L 205.112484 170.224815 
L 206.50271 172.116444 
L 207.336845 173.699071 
L 209.28316 177.988339 
L 210.951431 182.250726 
L 214.009927 190.436337 
L 215.122107 192.676048 
L 216.512332 194.934376 
L 217.624513 196.357667 
L 218.736693 197.47288 
L 219.848873 198.310347 
L 220.961053 198.900473 
L 222.073234 199.273588 
L 223.463459 199.481387 
L 224.853684 199.529169 
L 225.965865 200.291026 
L 227.35609 200.952095 
L 228.746316 201.34599 
L 230.692631 201.692808 
L 231.248721 201.370221 
L 232.638947 200.193105 
L 234.029172 198.731949 
L 235.697442 196.613539 
L 237.365713 194.107773 
L 239.033983 191.225877 
L 240.980299 187.405628 
L 243.204659 182.721907 
L 244.87293 180.707324 
L 246.263155 178.72108 
L 247.931426 175.92403 
L 249.599696 173.163727 
L 251.267967 170.785143 
L 252.936237 168.759308 
L 254.604507 167.057274 
L 256.272778 165.650364 
L 257.941048 164.510385 
L 259.609319 163.608925 
L 260.721499 163.141195 
L 262.38977 163.894376 
L 263.779995 164.73194 
L 265.448265 166.122226 
L 269.062851 166.72516 
L 273.233527 167.47088 
L 275.457888 168.081007 
L 277.404204 168.827067 
L 277.960294 169.116965 
L 280.184654 170.97243 
L 282.965105 173.415079 
L 289.916232 181.404242 
L 295.477133 187.449619 
L 297.423449 188.919282 
L 297.979539 189.292445 
L 299.925855 190.421828 
L 302.98435 192.586609 
L 304.930666 193.707315 
L 306.598936 194.418208 
L 307.989162 194.785757 
L 309.379387 194.909634 
L 310.491567 194.808408 
L 311.603748 194.50665 
L 312.715928 193.975121 
L 313.550063 193.238102 
L 316.330514 190.535741 
L 316.886604 189.916985 
L 320.223145 184.56872 
L 321.61337 182.942782 
L 323.003596 181.661038 
L 324.393821 180.703387 
L 325.784047 180.049926 
L 327.174272 179.681185 
L 328.564497 179.577893 
L 329.954723 179.720874 
L 331.622993 179.952612 
L 332.179083 180.015171 
L 334.403444 178.931504 
L 335.793669 179.424195 
L 337.183895 180.168626 
L 338.852165 181.357384 
L 340.520436 182.823401 
L 342.466751 184.818929 
L 344.969157 187.710206 
L 351.364193 195.424199 
L 352.198329 195.623953 
L 354.144644 195.853359 
L 355.812915 195.811823 
L 357.20314 195.538014 
L 358.31532 195.122708 
L 359.427501 194.504074 
L 360.539681 193.654649 
L 361.651861 192.547358 
L 362.764042 191.154545 
L 363.876222 189.448841 
L 364.988402 187.40242 
L 366.378628 184.31817 
L 366.934718 183.173792 
L 367.212763 183.037082 
L 368.046898 183.172528 
L 374.441935 181.550795 
L 376.666295 181.275771 
L 378.334566 181.269962 
L 380.002836 181.484834 
L 381.393062 181.864389 
L 382.783287 182.454855 
L 384.173512 183.295239 
L 384.729602 183.815952 
L 386.675918 185.97563 
L 388.066143 187.180865 
L 389.456369 188.108208 
L 390.846594 188.770493 
L 392.236819 189.182907 
L 393.627045 189.359524 
L 395.01727 189.315194 
L 396.407496 189.064814 
L 398.075766 188.513721 
L 399.744036 187.713366 
L 401.134262 186.879836 
L 401.690352 186.413491 
L 408.641479 185.040703 
L 410.865839 184.286939 
L 412.812155 183.372696 
L 414.480425 182.34991 
L 416.148696 181.065808 
L 417.816966 179.4825 
L 418.095011 178.959551 
L 418.651102 177.54518 
L 419.207192 176.991729 
L 420.041327 176.446323 
L 420.875462 176.121816 
L 421.709597 176.016093 
L 422.543733 176.126531 
L 423.377868 176.451208 
L 424.212003 176.987767 
L 425.324183 178.02844 
L 426.436364 179.435812 
L 426.436364 179.435812 
" clip-path="url(#pe3275299a7)" style="fill: none; stroke: #ff00ff; stroke-width: 3; stroke-linecap: square"/>
   </g>
   <g id="patch_3">
    <path d="M 7.2 331.2 
L 7.2 7.2 
" style="fill: none; stroke: #000000; stroke-width: 0.8; stroke-linejoin: miter; stroke-linecap: square"/>
   </g>
   <g id="patch_4">
    <path d="M 446.4 331.2 
L 446.4 7.2 
" style="fill: none; stroke: #000000; stroke-width: 0.8; stroke-linejoin: miter; stroke-linecap: square"/>
   </g>
   <g id="patch_5">
    <path d="M 7.2 331.2 
L 446.4 331.2 
" style="fill: none; stroke: #000000; stroke-width: 0.8; stroke-linejoin: miter; stroke-linecap: square"/>
   </g>
   <g id="patch_6">
    <path d="M 7.2 7.2 
L 446.4 7.2 
" style="fill: none; stroke: #000000; stroke-width: 0.8; stroke-linejoin: miter; stroke-linecap: square"/>
   </g>
  </g>
 </g>
 <defs>
  <clipPath id="pe3275299a7">
   <rect x="7.2" y="7.2" width="439.2" height="324"/>
  </clipPath>
 </defs>
</svg>
