<?xml version="1.0" encoding="utf-8" standalone="no"?>
<!DOCTYPE svg PUBLIC "-//W3C//DTD SVG 1.1//EN"
  "http://www.w3.org/Graphics/SVG/1.1/DTD/svg11.dtd">
<svg xmlns:xlink="http://www.w3.org/1999/xlink" width="453.6pt" height="338.4pt" viewBox="0 0 453.6 338.4" xmlns="http://www.w3.org/2000/svg" version="1.1">
 <metadata>
  <rdf:RDF xmlns:dc="http://purl.org/dc/elements/1.1/" xmlns:cc="http://creativecommons.org/ns#" xmlns:rdf="http://www.w3.org/1999/02/22-rdf-syntax-ns#">
   <cc:Work>
    <dc:type rdf:resource="http://purl.org/dc/dcmitype/StillImage"/>
    <dc:date>2025-05-15T17:18:43.797732</dc:date>
    <dc:format>image/svg+xml</dc:format>
    <dc:creator>
     <cc:Agent>
      <dc:title>Matplotlib v3.10.1, https://matplotlib.org/</dc:title>
     </cc:Agent>
    </dc:creator>
   </cc:Work>
  </rdf:RDF>
 </metadata>
 <defs>
  <style type="text/css">*{stroke-linejoin: round; stroke-linecap: butt}</style>
 </defs>
 <g id="figure_1">
  <g id="patch_1">
   <path d="M 0 338.4 
L 453.6 338.4 
L 453.6 0 
L 0 0 
z
" style="fill: #ffffff"/>
  </g>
  <g id="axes_1">
   <g id="patch_2">
    <path d="M 7.2 331.2 
L 446.4 331.2 
L 446.4 7.2 
L 7.2 7.2 
z
" style="fill: #ffffff"/>
   </g>
   <g id="matplotlib.axis_1"/>
   <g id="matplotlib.axis_2"/>
   <g id="line2d_1">
    <path d="M 27.163636 134.205243 
L 31.612358 139.53723 
L 33.836718 141.471253 
L 37.451304 144.438993 
L 38.84153 145.232518 
L 41.900025 146.669157 
L 42.734161 147.457498 
L 43.568296 148.657682 
L 44.402431 150.369456 
L 45.236566 152.649376 
L 46.070701 155.505183 
L 47.182882 160.116427 
L 50.797468 176.127537 
L 51.353558 177.623425 
L 51.909648 178.587255 
L 52.465738 178.962944 
L 52.743783 178.921975 
L 53.021828 178.72861 
L 53.577918 177.897449 
L 54.134009 176.51521 
L 54.968144 173.573425 
L 56.080324 168.539464 
L 62.475361 137.405836 
L 63.587541 133.115712 
L 64.699721 129.763093 
L 65.533857 128.003348 
L 66.089947 127.246011 
L 66.646037 126.86221 
L 67.202127 126.885909 
L 67.758217 127.341011 
L 68.314307 128.230545 
L 68.870398 129.527614 
L 69.704533 132.093845 
L 73.597164 146.11138 
L 74.431299 149.755326 
L 75.265434 154.646822 
L 76.09957 161.256083 
L 76.933705 169.721807 
L 78.045885 183.342277 
L 80.270246 211.25902 
L 81.104381 218.930495 
L 81.660471 222.548149 
L 82.216561 224.82349 
L 82.494606 225.443427 
L 82.772651 225.72001 
L 83.050696 225.660829 
L 83.328741 225.277498 
L 83.884832 223.604134 
L 84.440922 220.862683 
L 85.275057 215.190253 
L 86.665282 203.389972 
L 88.611598 186.869275 
L 89.723778 179.318704 
L 90.557913 175.003567 
L 91.392049 171.95426 
L 91.948139 170.62208 
L 92.504229 169.817749 
L 93.060319 169.490839 
L 93.616409 169.57547 
L 94.172499 169.996908 
L 95.006635 171.093778 
L 96.118815 173.086545 
L 97.787085 176.615562 
L 100.567536 182.750096 
L 101.401671 183.941225 
L 101.957761 184.296076 
L 102.235807 184.306983 
L 102.513852 184.193973 
L 103.069942 183.570013 
L 103.626032 182.396423 
L 104.182122 180.692055 
L 105.016257 177.306917 
L 107.518663 166.056619 
L 108.074753 164.512087 
L 108.630843 163.647296 
L 108.908888 163.496515 
L 109.186933 163.54213 
L 109.464978 163.786193 
L 110.021069 164.865861 
L 110.577159 166.703773 
L 111.411294 170.73886 
L 112.245429 176.050379 
L 113.35761 184.603292 
L 115.02588 199.422701 
L 120.030691 245.481915 
L 120.864827 250.681586 
L 121.420917 253.131878 
L 121.977007 254.603141 
L 122.255052 254.935707 
L 122.533097 254.985546 
L 122.811142 254.746347 
L 123.089187 254.215249 
L 123.645277 252.285148 
L 124.201367 249.249845 
L 125.035503 242.883771 
L 126.147683 231.921097 
L 130.874449 181.570682 
L 131.98663 172.427709 
L 132.820765 166.982207 
L 133.6549 163.111838 
L 134.21099 161.5294 
L 134.76708 160.777922 
L 135.045125 160.707127 
L 135.32317 160.82936 
L 135.601215 161.132806 
L 136.157306 162.220789 
L 136.991441 164.756655 
L 139.493847 173.326164 
L 140.327982 175.188449 
L 142.274297 178.911068 
L 142.830387 180.702222 
L 143.386478 183.237212 
L 143.942568 186.706106 
L 144.776703 193.918254 
L 145.610838 203.585071 
L 146.723018 219.626983 
L 150.059559 270.814821 
L 151.17174 283.25581 
L 152.005875 290.458246 
L 152.84001 296.007112 
L 153.674145 300.100841 
L 154.230236 302.083576 
L 154.786326 303.468373 
L 155.342416 304.2146 
L 155.620461 304.326651 
L 155.898506 304.249712 
L 156.176551 303.971177 
L 156.454596 303.478068 
L 157.010686 301.79607 
L 157.566776 299.109592 
L 158.122867 295.350717 
L 158.957002 287.65763 
L 159.791137 277.632327 
L 160.903317 261.325547 
L 163.127678 223.874388 
L 165.073993 192.308414 
L 166.464219 173.178514 
L 167.576399 161.065883 
L 168.410534 154.27625 
L 169.24467 149.580947 
L 169.80076 147.562091 
L 170.35685 146.325213 
L 170.91294 145.730979 
L 171.46903 145.612583 
L 172.02512 145.793189 
L 173.693391 146.623172 
L 174.527526 146.691005 
L 175.917751 146.633844 
L 176.473841 146.935068 
L 177.029932 147.68419 
L 177.586022 149.060201 
L 178.142112 151.218594 
L 178.698202 154.273287 
L 179.532337 160.643536 
L 180.366473 169.063173 
L 181.478653 182.749389 
L 184.537149 222.198028 
L 185.649329 233.038064 
L 186.483464 239.339302 
L 187.317599 244.127718 
L 188.151735 247.534687 
L 188.707825 249.102919 
L 189.263915 250.138117 
L 189.820005 250.646323 
L 190.09805 250.699243 
L 190.376095 250.613753 
L 190.65414 250.385277 
L 191.21023 249.476924 
L 191.766321 247.923556 
L 192.322411 245.672166 
L 192.878501 242.677041 
L 193.712636 236.73525 
L 194.546771 229.082071 
L 195.658952 216.545746 
L 197.327222 194.482898 
L 200.107673 157.359288 
L 201.219853 144.967549 
L 202.332033 135.111946 
L 203.166169 129.687787 
L 204.000304 125.988969 
L 204.556394 124.397274 
L 205.112484 123.385001 
L 205.668574 122.812378 
L 206.50271 122.428274 
L 207.61489 121.990206 
L 208.17098 121.530189 
L 208.72707 120.822103 
L 209.561205 119.301573 
L 211.785566 114.633202 
L 212.341656 114.087881 
L 212.619701 114.012507 
L 212.897746 114.089295 
L 213.175791 114.331304 
L 213.731881 115.346472 
L 214.287972 117.098609 
L 214.844062 119.572062 
L 215.678197 124.461302 
L 217.068422 134.511988 
L 218.458648 144.310801 
L 219.292783 148.857443 
L 219.848873 151.050746 
L 220.404963 152.484827 
L 220.961053 153.129625 
L 221.239099 153.158104 
L 221.517144 152.995844 
L 222.073234 152.128259 
L 222.629324 150.602511 
L 223.463459 147.303283 
L 224.575639 141.655496 
L 227.35609 126.822587 
L 229.302406 118.103341 
L 230.970676 110.35725 
L 232.360901 102.707438 
L 234.307217 90.329098 
L 235.975487 80.014453 
L 237.087668 74.612311 
L 237.921803 71.784714 
L 238.477893 70.54356 
L 239.033983 69.798714 
L 239.590073 69.493517 
L 240.146164 69.542262 
L 240.702254 69.839615 
L 242.926614 71.451509 
L 243.76075 71.657161 
L 245.98511 71.846891 
L 246.5412 72.295058 
L 247.09729 73.109421 
L 247.653381 74.374678 
L 248.209471 76.149134 
L 249.043606 79.809575 
L 249.877741 84.58732 
L 251.267967 94.253834 
L 253.214282 107.864912 
L 254.048417 112.457203 
L 254.882553 115.83039 
L 255.438643 117.321801 
L 255.994733 118.190867 
L 256.272778 118.396049 
L 256.550823 118.453311 
L 256.828868 118.368444 
L 257.384958 117.801006 
L 257.941048 116.761903 
L 258.775184 114.502283 
L 259.887364 110.653392 
L 262.667815 99.839512 
L 264.05804 93.597052 
L 265.17022 87.385394 
L 266.282401 79.719996 
L 267.672626 68.18682 
L 271.565257 33.577497 
L 272.399392 28.289408 
L 273.233527 24.546288 
L 273.789618 22.975936 
L 274.345708 22.125957 
L 274.623753 21.951174 
L 274.901798 21.927273 
L 275.457888 22.269129 
L 276.013978 23.012158 
L 277.126159 25.094639 
L 278.238339 27.11979 
L 279.350519 28.622748 
L 280.462699 29.964859 
L 281.01879 30.881594 
L 281.57488 32.168833 
L 282.13097 33.974698 
L 282.68706 36.417988 
L 283.521195 41.420507 
L 284.35533 48.003275 
L 285.467511 58.674891 
L 287.969916 83.580333 
L 288.804052 90.008853 
L 289.638187 94.869378 
L 290.194277 97.184813 
L 290.750367 98.76954 
L 291.306457 99.661127 
L 291.584502 99.86439 
L 291.862547 99.91704 
L 292.140593 99.828841 
L 292.696683 99.271872 
L 293.252773 98.281817 
L 294.086908 96.18981 
L 295.477133 91.819263 
L 298.813674 80.382097 
L 299.925855 75.819901 
L 301.038035 70.437317 
L 302.706305 61.044457 
L 304.652621 50.16049 
L 305.486756 46.531221 
L 306.042846 44.744073 
L 306.598936 43.582064 
L 306.876982 43.260708 
L 307.155027 43.122215 
L 307.433072 43.170557 
L 307.711117 43.407887 
L 308.267207 44.442007 
L 308.823297 46.182396 
L 309.657432 49.918951 
L 310.769613 56.292835 
L 312.993973 69.42188 
L 314.384199 76.089616 
L 316.052469 83.964236 
L 316.886604 89.039805 
L 317.720739 95.554471 
L 318.554875 103.807506 
L 319.667055 117.51722 
L 321.05728 137.854743 
L 323.559686 175.091262 
L 324.671866 188.900755 
L 325.784047 200.290354 
L 326.896227 209.405184 
L 328.008407 216.584661 
L 328.842542 220.84331 
L 329.676678 224.114293 
L 330.232768 225.672392 
L 330.788858 226.649368 
L 331.066903 226.893751 
L 331.344948 226.960995 
L 331.622993 226.840916 
L 331.901038 226.524256 
L 332.457128 225.271489 
L 333.013219 223.162262 
L 333.569309 220.192907 
L 334.403444 214.218461 
L 335.515624 203.905635 
L 337.183895 185.595265 
L 339.408255 161.598479 
L 340.520436 151.804985 
L 341.354571 146.043413 
L 342.188706 141.905113 
L 342.744796 140.107866 
L 343.300886 139.071962 
L 343.578931 138.825441 
L 343.856976 138.747072 
L 344.135022 138.824768 
L 344.691112 139.389075 
L 345.247202 140.385391 
L 346.359382 143.086749 
L 347.749607 146.475085 
L 348.861788 148.59261 
L 350.252013 151.169108 
L 350.808103 152.645033 
L 351.364193 154.659749 
L 351.920284 157.402647 
L 352.476374 161.034575 
L 353.310509 168.381917 
L 354.144644 178.084552 
L 355.256825 194.219445 
L 357.481185 231.707129 
L 359.149456 258.073045 
L 360.539681 276.912341 
L 361.929906 293.253862 
L 363.042087 304.459152 
L 363.876222 311.121097 
L 364.432312 314.297233 
L 364.988402 316.137873 
L 365.266447 316.472727 
L 365.544492 316.37756 
L 365.822537 315.827727 
L 366.100582 314.804329 
L 366.656673 311.293355 
L 367.212763 305.830348 
L 368.046898 294.234996 
L 369.159078 273.779042 
L 373.607799 184.200066 
L 374.71998 167.788558 
L 375.83216 154.926131 
L 376.666295 147.726102 
L 377.50043 142.598488 
L 378.056521 140.248043 
L 378.612611 138.645205 
L 379.168701 137.66663 
L 379.724791 137.169212 
L 380.280881 137.002408 
L 381.115016 137.060983 
L 382.227197 137.141204 
L 383.061332 136.966488 
L 384.451557 136.505293 
L 385.007648 136.548619 
L 385.563738 136.933733 
L 386.119828 137.818117 
L 386.675918 139.352281 
L 387.232008 141.664686 
L 387.788098 144.847975 
L 388.622233 151.343285 
L 389.456369 159.82143 
L 390.568549 173.610354 
L 395.01727 232.730595 
L 396.407496 247.378723 
L 397.797721 259.77913 
L 398.631856 265.746741 
L 399.465991 270.056626 
L 400.022082 271.729889 
L 400.300127 272.146664 
L 400.578172 272.261391 
L 400.856217 272.06104 
L 401.134262 271.536591 
L 401.690352 269.4989 
L 402.246442 266.161952 
L 403.080577 258.92565 
L 403.914713 249.516799 
L 405.304938 231.000794 
L 408.085389 193.700381 
L 409.475614 178.352281 
L 410.309749 171.007161 
L 411.143885 165.510052 
L 411.699975 163.026433 
L 412.256065 161.542092 
L 412.53411 161.171856 
L 412.812155 161.039928 
L 413.0902 161.133614 
L 413.368245 161.436118 
L 413.924335 162.580286 
L 414.75847 165.238419 
L 416.426741 170.943065 
L 416.982831 172.200949 
L 417.538921 172.955996 
L 418.095011 173.227394 
L 418.651102 173.125494 
L 419.763282 172.621781 
L 420.041327 172.625888 
L 420.319372 172.753979 
L 420.597417 173.041637 
L 420.875462 173.522391 
L 421.431552 175.183265 
L 421.987642 177.935085 
L 422.543733 181.895202 
L 423.377868 190.128375 
L 424.212003 200.7975 
L 425.602228 221.933093 
L 426.436364 235.043253 
L 426.436364 235.043253 
" clip-path="url(#pc8e1fa7296)" style="fill: none; stroke-dasharray: 11.1,4.8; stroke-dashoffset: 0; stroke: #000000; stroke-width: 3"/>
   </g>
   <g id="line2d_2">
    <path d="M 27.163636 127.390564 
L 27.441681 144.36702 
L 27.719727 145.040095 
L 27.997772 160.869084 
L 28.275817 158.804175 
L 28.553862 157.863203 
L 28.831907 158.505341 
L 29.109952 142.699682 
L 29.387997 164.889661 
L 30.222132 131.826554 
L 30.500177 136.390769 
L 30.778222 103.520623 
L 31.056267 165.613602 
L 31.334312 171.77537 
L 31.612358 103.512106 
L 31.890403 141.53067 
L 32.168448 80.264037 
L 32.446493 130.858549 
L 32.724538 133.118405 
L 33.280628 159.679402 
L 33.558673 100.813071 
L 33.836718 102.521109 
L 34.114763 110.478811 
L 34.948898 156.747346 
L 35.226944 120.044198 
L 35.504989 118.685524 
L 35.783034 91.900022 
L 36.339124 134.399281 
L 36.617169 96.45296 
L 36.895214 128.689687 
L 37.173259 118.747432 
L 37.451304 171.585775 
L 37.729349 108.28874 
L 38.007394 110.099655 
L 38.285439 152.373029 
L 38.563484 116.135553 
L 38.84153 138.240632 
L 39.119575 132.512489 
L 39.39762 130.263776 
L 39.675665 116.36605 
L 39.95371 127.290246 
L 40.231755 118.420421 
L 40.5098 125.252673 
L 41.06589 105.691034 
L 41.343935 158.878572 
L 41.62198 141.11142 
L 41.900025 112.469423 
L 42.17807 115.510179 
L 42.456115 157.839806 
L 42.734161 125.174673 
L 43.012206 162.928437 
L 43.290251 145.381817 
L 43.568296 174.349377 
L 43.846341 138.875062 
L 44.124386 133.991006 
L 44.402431 168.901048 
L 44.680476 142.228017 
L 44.958521 144.874906 
L 45.514611 118.988735 
L 45.792656 180.802574 
L 46.070701 135.191965 
L 46.348747 129.2546 
L 46.626792 130.857068 
L 46.904837 162.374128 
L 47.182882 128.491844 
L 47.460927 181.370584 
L 47.738972 163.84598 
L 48.017017 132.05907 
L 48.295062 148.98843 
L 48.573107 148.105393 
L 48.851152 172.399903 
L 49.129197 141.471489 
L 49.407242 158.513959 
L 49.685287 155.865555 
L 49.963332 146.868279 
L 50.241378 180.317713 
L 50.519423 149.007147 
L 50.797468 155.215707 
L 51.075513 143.924845 
L 51.353558 168.004007 
L 51.631603 143.685831 
L 51.909648 179.63272 
L 52.187693 177.957606 
L 52.465738 135.172709 
L 52.743783 160.195335 
L 53.021828 149.400004 
L 53.299873 180.238737 
L 53.577918 150.297045 
L 53.855964 132.481922 
L 54.134009 143.234129 
L 54.412054 174.702141 
L 54.690099 174.677499 
L 54.968144 143.309738 
L 55.246189 188.15675 
L 55.524234 159.805238 
L 55.802279 145.887886 
L 56.358369 158.261682 
L 56.636414 145.672504 
L 56.914459 166.952684 
L 57.192504 136.527848 
L 57.47055 174.916412 
L 57.748595 169.104344 
L 58.02664 157.721612 
L 58.304685 111.392953 
L 58.58273 159.211138 
L 58.860775 176.589506 
L 59.13882 158.58398 
L 59.416865 174.84427 
L 59.69491 152.599082 
L 59.972955 170.818441 
L 60.251 165.576707 
L 60.529045 175.156603 
L 60.80709 136.57013 
L 61.085135 142.423772 
L 61.363181 141.751707 
L 61.641226 183.998453 
L 61.919271 155.763116 
L 62.197316 176.847708 
L 62.475361 152.396291 
L 62.753406 100.680806 
L 63.587541 174.681303 
L 63.865586 183.956845 
L 64.143631 130.927964 
L 64.421676 155.372716 
L 64.699721 144.030482 
L 64.977767 112.541026 
L 65.255812 170.926031 
L 65.533857 159.044906 
L 65.811902 117.468407 
L 66.089947 117.982724 
L 66.646037 153.909415 
L 66.924082 119.932636 
L 67.202127 136.109373 
L 67.480172 134.367705 
L 67.758217 145.795075 
L 68.036262 121.691405 
L 68.314307 177.652073 
L 68.592352 145.057903 
L 69.148443 126.215325 
L 69.704533 151.999023 
L 69.982578 125.941671 
L 70.260623 140.423398 
L 70.538668 133.253969 
L 70.816713 157.827418 
L 71.372803 122.415448 
L 71.650848 149.856621 
L 71.928893 144.360287 
L 72.206938 153.404894 
L 72.484984 150.184743 
L 72.763029 124.795012 
L 73.041074 156.790436 
L 73.319119 134.394198 
L 73.597164 138.302103 
L 73.875209 146.365812 
L 74.153254 162.624621 
L 74.431299 156.24838 
L 74.709344 154.644364 
L 74.987389 158.212533 
L 75.265434 155.432032 
L 75.543479 169.424925 
L 76.09957 145.75084 
L 76.65566 171.023824 
L 76.933705 168.918486 
L 77.21175 156.545767 
L 77.489795 180.56898 
L 77.76784 137.062329 
L 78.045885 159.956254 
L 78.32393 143.605913 
L 78.601975 171.445599 
L 78.88002 153.357428 
L 79.158065 158.728701 
L 79.43611 181.845985 
L 79.714155 157.425067 
L 79.992201 173.731511 
L 80.270246 149.712237 
L 80.548291 191.723807 
L 80.826336 181.230408 
L 81.104381 194.07405 
L 81.382426 148.689562 
L 81.938516 169.701541 
L 82.216561 155.264924 
L 82.494606 171.279906 
L 82.772651 167.772366 
L 83.050696 160.518407 
L 83.606787 186.371824 
L 83.884832 165.872141 
L 84.162877 160.573515 
L 84.440922 175.136439 
L 84.718967 162.110574 
L 84.997012 170.091032 
L 85.275057 194.595436 
L 85.553102 177.884353 
L 85.831147 146.030722 
L 86.387237 197.844791 
L 86.665282 163.972724 
L 87.221372 196.195548 
L 87.499418 158.88103 
L 87.777463 179.730682 
L 88.055508 187.044091 
L 88.333553 166.51438 
L 88.611598 162.119629 
L 88.889643 187.694107 
L 89.167688 169.255562 
L 89.445733 190.246333 
L 89.723778 188.723918 
L 90.001823 178.999974 
L 90.279868 155.995194 
L 90.835958 179.986595 
L 91.114004 167.939843 
L 91.392049 147.758015 
L 91.670094 171.556286 
L 91.948139 171.48098 
L 92.226184 170.732194 
L 92.504229 146.922545 
L 92.782274 171.973819 
L 93.060319 180.43281 
L 93.338364 162.264114 
L 93.616409 152.297117 
L 93.894454 135.69056 
L 94.172499 157.763187 
L 94.450544 149.567886 
L 94.72859 163.949463 
L 95.006635 164.105528 
L 95.28468 151.793808 
L 95.562725 165.065555 
L 95.84077 163.349707 
L 96.118815 173.902725 
L 96.39686 139.33969 
L 96.674905 141.231465 
L 97.230995 183.135278 
L 97.50904 130.449129 
L 97.787085 139.311682 
L 98.06513 182.832875 
L 98.343175 115.67153 
L 98.621221 117.905633 
L 98.899266 125.723361 
L 99.177311 179.035052 
L 99.455356 128.717358 
L 99.733401 121.198734 
L 100.011446 117.604005 
L 100.289491 167.299085 
L 100.567536 116.874711 
L 100.845581 151.937688 
L 101.123626 166.276377 
L 101.401671 172.485712 
L 101.679716 129.141489 
L 101.957761 126.127731 
L 102.235807 149.552165 
L 102.513852 124.32769 
L 102.791897 151.734728 
L 103.069942 125.660712 
L 103.347987 120.803891 
L 103.626032 174.605795 
L 103.904077 135.129148 
L 104.182122 152.748011 
L 104.460167 123.22705 
L 104.738212 120.646007 
L 105.016257 142.297836 
L 105.294302 109.839837 
L 105.572347 163.345802 
L 105.850393 130.031764 
L 106.128438 172.871601 
L 106.406483 145.754476 
L 106.684528 146.279834 
L 106.962573 135.829659 
L 107.240618 100.155044 
L 107.518663 87.126384 
L 107.796708 120.711652 
L 108.074753 169.752508 
L 108.352798 120.267996 
L 108.630843 177.895765 
L 108.908888 139.361033 
L 109.186933 158.41896 
L 109.464978 154.93017 
L 109.743024 107.339318 
L 110.021069 137.968292 
L 110.299114 146.368438 
L 110.577159 168.138965 
L 110.855204 167.346147 
L 111.133249 180.513569 
L 111.689339 163.5221 
L 112.245429 155.683299 
L 112.523474 136.096681 
L 113.079564 187.828257 
L 113.35761 173.506131 
L 113.635655 173.210158 
L 113.9137 161.342936 
L 114.191745 174.647101 
L 114.46979 171.255937 
L 114.747835 161.92209 
L 115.02588 174.498879 
L 115.303925 163.792151 
L 115.58197 183.827037 
L 115.860015 159.789315 
L 116.13806 200.815881 
L 116.416105 188.623802 
L 116.69415 183.744796 
L 116.972195 160.789368 
L 117.528286 207.615074 
L 117.806331 185.746921 
L 118.084376 180.687207 
L 118.362421 193.336138 
L 118.640466 160.529819 
L 118.918511 179.43582 
L 119.196556 186.453694 
L 120.030691 192.007459 
L 120.308736 172.192735 
L 120.586781 189.778776 
L 120.864827 189.644423 
L 121.142872 175.359159 
L 121.420917 169.085694 
L 121.977007 204.751086 
L 122.255052 181.025597 
L 122.533097 191.263117 
L 122.811142 205.646747 
L 123.089187 166.815672 
L 123.367232 190.224115 
L 123.645277 188.847734 
L 123.923322 175.930401 
L 124.201367 173.242341 
L 124.479413 209.892317 
L 124.757458 179.651841 
L 125.035503 188.987709 
L 125.313548 188.668844 
L 125.591593 182.054095 
L 125.869638 149.865542 
L 126.425728 186.098776 
L 126.981818 151.260371 
L 127.259863 172.092753 
L 127.537908 170.457564 
L 127.815953 173.291861 
L 128.093998 144.62475 
L 128.372044 160.90948 
L 128.650089 167.42381 
L 128.928134 191.75461 
L 129.206179 185.642732 
L 129.484224 161.764206 
L 129.762269 163.464501 
L 130.040314 161.178488 
L 130.318359 152.386596 
L 130.596404 160.915708 
L 130.874449 132.543291 
L 131.152494 165.357757 
L 131.430539 165.335505 
L 131.708584 161.466584 
L 131.98663 145.135195 
L 132.264675 140.796696 
L 132.820765 176.773446 
L 133.09881 125.534338 
L 133.376855 149.316383 
L 133.6549 161.367848 
L 133.932945 98.448454 
L 134.489035 112.833094 
L 134.76708 175.840956 
L 135.045125 134.52138 
L 135.32317 113.084428 
L 135.601215 163.323752 
L 135.879261 160.170323 
L 136.157306 115.134423 
L 136.435351 136.10577 
L 136.713396 170.607874 
L 137.269486 127.943897 
L 137.547531 117.692474 
L 137.825576 150.709529 
L 138.103621 123.351034 
L 138.381666 188.299383 
L 138.937756 78.519609 
L 139.215801 174.460098 
L 139.493847 121.141943 
L 139.771892 127.223255 
L 140.049937 121.451314 
L 140.327982 121.205501 
L 140.606027 144.567017 
L 140.884072 99.592992 
L 141.162117 169.440916 
L 141.440162 143.72983 
L 141.718207 177.877015 
L 141.996252 120.310547 
L 142.274297 142.878538 
L 142.552342 145.143746 
L 142.830387 53.792384 
L 143.108433 88.480177 
L 143.386478 89.756846 
L 143.664523 101.254438 
L 144.220613 170.011081 
L 144.776703 153.573786 
L 145.054748 165.032093 
L 145.332793 113.416691 
L 145.610838 169.821014 
L 145.888883 141.7476 
L 146.166928 189.847383 
L 146.444973 182.755819 
L 146.723018 159.528689 
L 147.001064 160.685952 
L 147.557154 206.036407 
L 148.113244 147.55206 
L 148.391289 164.081728 
L 148.669334 190.85299 
L 148.947379 158.335406 
L 149.503469 173.090517 
L 150.059559 179.304565 
L 150.61565 162.010928 
L 150.893695 159.943091 
L 151.17174 203.896192 
L 151.449785 172.298776 
L 151.72783 192.805124 
L 152.005875 204.927838 
L 152.28392 199.289695 
L 152.561965 153.491074 
L 152.84001 181.441447 
L 153.118055 191.591979 
L 153.3961 155.896795 
L 153.674145 153.22146 
L 153.95219 208.008857 
L 154.230236 168.060528 
L 154.508281 189.216084 
L 154.786326 171.745814 
L 155.064371 183.806233 
L 155.342416 186.97232 
L 155.620461 197.424346 
L 155.898506 171.703969 
L 156.176551 204.749235 
L 156.732641 193.527181 
L 157.010686 164.313234 
L 157.288731 169.98967 
L 157.566776 194.267348 
L 157.844821 155.952812 
L 158.122867 152.439886 
L 158.400912 199.669087 
L 158.678957 164.345047 
L 158.957002 186.503786 
L 159.235047 150.790524 
L 159.513092 164.053551 
L 159.791137 183.078184 
L 160.069182 211.574989 
L 160.347227 180.664855 
L 160.625272 193.563201 
L 160.903317 199.327163 
L 161.181362 198.057227 
L 161.459407 140.907754 
L 162.015498 182.582483 
L 162.571588 148.861449 
L 162.849633 163.961312 
L 163.127678 164.643174 
L 163.405723 164.445331 
L 164.239858 140.129209 
L 164.517903 173.392044 
L 165.073993 168.148627 
L 165.352038 121.138038 
L 165.630084 126.996259 
L 165.908129 168.414033 
L 166.186174 177.473217 
L 166.464219 155.027526 
L 166.742264 180.503605 
L 167.020309 185.037623 
L 167.298354 135.10831 
L 167.576399 183.875446 
L 167.854444 161.247331 
L 168.132489 182.875326 
L 168.410534 156.516412 
L 168.688579 152.945887 
L 168.966624 126.851538 
L 169.24467 157.440351 
L 169.522715 123.034425 
L 169.80076 131.18859 
L 170.078805 123.95631 
L 170.35685 155.071761 
L 170.634895 108.850388 
L 170.91294 131.422352 
L 171.190985 105.97482 
L 171.46903 125.365076 
L 171.747075 133.79727 
L 172.02512 178.799539 
L 172.303165 174.898536 
L 172.58121 131.719906 
L 172.859256 144.666056 
L 173.137301 147.298436 
L 173.415346 106.703677 
L 173.693391 115.08891 
L 173.971436 146.27869 
L 174.249481 119.206102 
L 174.527526 124.975956 
L 174.805571 138.501056 
L 175.361661 111.329766 
L 175.639706 151.434884 
L 175.917751 149.337187 
L 176.195796 119.893956 
L 176.473841 126.3758 
L 176.751887 139.221564 
L 177.029932 159.335021 
L 177.307977 136.616822 
L 177.586022 131.340245 
L 177.864067 149.741356 
L 178.142112 148.445499 
L 178.420157 139.191704 
L 178.698202 139.254723 
L 178.976247 136.022722 
L 179.254292 125.352823 
L 179.532337 163.882505 
L 179.810382 144.829595 
L 180.088427 161.879707 
L 180.366473 156.747952 
L 180.644518 158.964382 
L 180.922563 115.780803 
L 181.200608 152.951273 
L 181.756698 180.216923 
L 182.034743 182.078232 
L 182.312788 158.779432 
L 182.590833 165.183849 
L 182.868878 196.446865 
L 183.146923 187.455868 
L 183.424968 194.100645 
L 183.703013 143.187269 
L 183.981058 145.212151 
L 184.259104 190.753278 
L 184.537149 150.797795 
L 184.815194 177.355763 
L 185.093239 187.24796 
L 185.371284 165.984107 
L 185.649329 179.980131 
L 185.927374 170.461099 
L 186.205419 155.611123 
L 186.483464 182.843951 
L 187.039554 193.627869 
L 187.317599 196.719055 
L 187.595644 186.800567 
L 187.87369 199.046945 
L 188.151735 187.972776 
L 188.42978 153.303667 
L 188.707825 202.4915 
L 188.98587 160.677435 
L 189.54196 214.933095 
L 189.820005 168.628404 
L 190.09805 168.261603 
L 190.376095 162.984925 
L 190.65414 161.069182 
L 190.932185 193.765925 
L 191.21023 186.074235 
L 191.488276 189.691216 
L 191.766321 215.854643 
L 192.044366 191.854356 
L 192.322411 217.143482 
L 192.600456 177.593161 
L 192.878501 163.187447 
L 193.156546 200.979083 
L 193.434591 145.707347 
L 193.712636 188.846691 
L 193.990681 199.134909 
L 194.268726 161.619317 
L 194.546771 162.837915 
L 194.824816 145.929797 
L 195.102861 146.089836 
L 195.380907 187.925277 
L 195.658952 204.335203 
L 195.936997 179.484498 
L 196.215042 176.372947 
L 196.493087 197.803435 
L 196.771132 184.946361 
L 197.049177 147.400942 
L 197.327222 145.276449 
L 197.605267 176.567288 
L 197.883312 159.948646 
L 198.161357 152.716535 
L 198.439402 151.273803 
L 198.995493 179.191724 
L 199.273538 168.799383 
L 199.551583 167.170018 
L 200.385718 120.715355 
L 200.663763 141.815769 
L 200.941808 127.827521 
L 201.219853 165.651575 
L 201.497898 181.629257 
L 201.775943 169.796238 
L 202.053988 173.113375 
L 202.332033 188.456223 
L 202.610079 159.197403 
L 202.888124 146.910022 
L 203.166169 188.612525 
L 203.444214 170.909872 
L 203.722259 174.916782 
L 204.000304 143.701047 
L 204.278349 172.565966 
L 204.556394 178.732144 
L 204.834439 133.257975 
L 205.112484 126.916543 
L 205.390529 159.547238 
L 205.668574 126.951587 
L 205.946619 173.321451 
L 206.224664 125.73548 
L 206.50271 159.75013 
L 206.780755 121.135312 
L 207.0588 131.796626 
L 207.336845 201.981492 
L 207.61489 173.079038 
L 207.892935 118.999305 
L 208.17098 147.011182 
L 208.449025 148.723091 
L 208.72707 124.344253 
L 209.005115 142.151095 
L 209.28316 116.067855 
L 209.561205 139.39463 
L 209.83925 143.756929 
L 210.117296 132.677677 
L 210.673386 154.916974 
L 210.951431 147.899269 
L 211.229476 171.193524 
L 211.507521 152.40336 
L 211.785566 147.328127 
L 212.063611 157.14862 
L 212.341656 156.471841 
L 212.619701 142.854939 
L 212.897746 136.56067 
L 213.175791 150.013293 
L 213.453836 157.716361 
L 213.731881 155.665692 
L 214.009927 154.715462 
L 214.287972 163.029698 
L 214.566017 152.480989 
L 214.844062 165.307935 
L 215.122107 187.478153 
L 215.400152 163.210709 
L 215.678197 153.612701 
L 215.956242 169.434115 
L 216.234287 157.965911 
L 216.512332 104.617493 
L 216.790377 140.348294 
L 217.068422 193.54748 
L 217.346467 168.721754 
L 217.624513 168.063726 
L 217.902558 165.700826 
L 218.180603 169.3137 
L 218.458648 204.635081 
L 218.736693 190.220715 
L 219.014738 184.563905 
L 219.292783 175.917979 
L 219.570828 203.15653 
L 220.126918 144.312484 
L 220.404963 190.11491 
L 220.683008 194.637146 
L 220.961053 161.785818 
L 221.239099 191.576629 
L 221.795189 158.443938 
L 222.073234 219.003831 
L 222.351279 173.578946 
L 222.629324 173.229246 
L 222.907369 200.248341 
L 223.185414 199.377693 
L 223.463459 203.610958 
L 223.741504 153.413512 
L 224.019549 225.241175 
L 224.575639 159.539226 
L 224.853684 217.053801 
L 225.13173 211.309179 
L 225.409775 163.697556 
L 225.965865 199.074718 
L 226.24391 182.010029 
L 226.521955 201.091537 
L 226.8 160.664138 
L 227.078045 198.734982 
L 227.35609 215.385201 
L 227.634135 185.029914 
L 227.91218 181.863726 
L 228.190225 146.621725 
L 228.46827 210.49421 
L 228.746316 209.504896 
L 229.024361 155.266136 
L 229.302406 216.160244 
L 229.580451 188.602594 
L 229.858496 147.730747 
L 230.136541 161.31816 
L 230.414586 184.926028 
L 230.692631 145.811166 
L 230.970676 210.14488 
L 231.248721 176.704401 
L 231.526766 197.819308 
L 231.804811 126.625115 
L 232.082856 192.794689 
L 232.360901 171.945137 
L 232.638947 142.587177 
L 232.916992 134.178379 
L 233.195037 120.235072 
L 233.473082 122.839613 
L 233.751127 165.791011 
L 234.029172 154.280862 
L 234.307217 176.882315 
L 234.585262 178.069976 
L 234.863307 138.473957 
L 235.141352 168.79844 
L 235.419397 139.164571 
L 235.697442 152.850753 
L 235.975487 119.04731 
L 236.253533 138.431641 
L 236.531578 132.517572 
L 237.087668 180.628935 
L 237.365713 170.99447 
L 237.643758 169.786441 
L 237.921803 183.472051 
L 238.199848 176.129052 
L 238.477893 173.007502 
L 238.755938 188.358598 
L 239.312028 146.438156 
L 239.590073 168.647256 
L 239.868119 123.876258 
L 240.146164 147.22653 
L 240.702254 112.423438 
L 240.980299 161.862908 
L 241.258344 149.573205 
L 241.536389 104.094693 
L 241.814434 170.909738 
L 242.092479 111.471929 
L 242.370524 115.90371 
L 242.648569 150.561138 
L 242.926614 133.728125 
L 243.204659 109.085261 
L 243.76075 145.619753 
L 244.038795 113.437831 
L 244.594885 146.983342 
L 244.87293 135.347694 
L 245.150975 142.193141 
L 245.42902 152.059416 
L 245.707065 145.739967 
L 245.98511 142.504431 
L 246.5412 154.15846 
L 246.819245 136.215548 
L 247.09729 148.6901 
L 247.375336 153.285219 
L 247.653381 171.423785 
L 247.931426 139.271757 
L 248.209471 157.957293 
L 248.487516 152.906164 
L 249.043606 158.058588 
L 249.321651 152.385384 
L 249.599696 172.769296 
L 250.155786 149.772327 
L 250.433831 179.572428 
L 250.711876 192.246237 
L 250.989921 168.777468 
L 251.267967 164.429004 
L 251.546012 189.231435 
L 251.824057 180.503773 
L 252.102102 138.033869 
L 252.380147 183.844138 
L 252.658192 210.546659 
L 253.214282 156.812452 
L 253.770372 195.768824 
L 254.048417 197.9713 
L 254.326462 166.383967 
L 254.604507 174.205296 
L 254.882553 138.99578 
L 255.160598 206.153826 
L 255.438643 205.801719 
L 255.716688 148.833912 
L 255.994733 212.895034 
L 256.550823 183.447982 
L 256.828868 161.300351 
L 257.106913 212.13317 
L 257.384958 193.051881 
L 257.663003 196.071463 
L 257.941048 169.866696 
L 258.219093 172.67837 
L 258.497139 202.419779 
L 258.775184 183.047382 
L 259.053229 191.676375 
L 259.331274 150.976416 
L 259.609319 202.333599 
L 259.887364 191.196934 
L 260.165409 171.751503 
L 260.443454 206.946476 
L 260.721499 200.63418 
L 260.999544 175.440491 
L 261.277589 173.186627 
L 261.555634 219.461121 
L 261.833679 191.095336 
L 262.111724 199.967551 
L 262.38977 179.049527 
L 262.667815 181.671606 
L 262.94586 216.963464 
L 263.223905 179.396265 
L 263.50195 186.688264 
L 263.779995 148.25183 
L 264.05804 211.936842 
L 264.336085 199.634178 
L 264.61413 134.362891 
L 264.892175 197.885339 
L 265.72631 158.679989 
L 266.004356 213.233759 
L 266.282401 171.25146 
L 266.560446 183.99603 
L 266.838491 174.740282 
L 267.116536 175.689671 
L 267.394581 145.597266 
L 267.672626 195.712841 
L 267.950671 119.008193 
L 268.506761 134.416686 
L 268.784806 118.847784 
L 269.062851 169.323328 
L 269.340896 147.142639 
L 269.618942 153.989164 
L 269.896987 185.549617 
L 270.175032 168.877517 
L 270.453077 163.346543 
L 270.731122 131.13843 
L 271.009167 163.20475 
L 271.287212 148.821154 
L 271.565257 102.265162 
L 271.843302 145.87405 
L 272.121347 148.575037 
L 272.399392 136.730134 
L 272.677437 183.456398 
L 272.955482 91.90965 
L 273.233527 98.459293 
L 273.511573 139.43092 
L 273.789618 93.783314 
L 274.345708 135.963238 
L 274.901798 112.040175 
L 275.179843 128.722172 
L 275.457888 129.06514 
L 275.735933 123.91551 
L 276.013978 156.415017 
L 276.292023 123.468555 
L 276.570068 155.612537 
L 276.848113 121.665619 
L 277.126159 109.95389 
L 277.404204 152.646952 
L 277.682249 138.822647 
L 277.960294 110.600438 
L 278.238339 154.214914 
L 278.516384 126.664502 
L 278.794429 127.063015 
L 279.072474 153.866729 
L 279.350519 145.079919 
L 279.628564 142.554456 
L 279.906609 144.358604 
L 280.184654 151.485144 
L 280.740744 137.313765 
L 281.01879 155.708412 
L 281.296835 151.401052 
L 281.57488 94.410741 
L 281.852925 163.10147 
L 282.13097 158.250708 
L 282.409015 128.056301 
L 282.68706 163.66167 
L 283.24315 148.408536 
L 283.521195 161.550474 
L 283.79924 164.636542 
L 284.077285 155.529286 
L 284.35533 162.488585 
L 284.633376 159.532863 
L 284.911421 155.360125 
L 285.189466 173.408472 
L 285.467511 179.763774 
L 285.745556 159.042617 
L 286.301646 194.882387 
L 286.579691 173.418773 
L 286.857736 120.696604 
L 287.135781 203.626376 
L 287.413826 185.238698 
L 287.691871 147.001655 
L 287.969916 171.871986 
L 288.247962 160.39375 
L 288.804052 192.961459 
L 289.082097 182.681253 
L 289.360142 197.149262 
L 289.638187 196.365247 
L 289.916232 171.084453 
L 290.194277 165.975354 
L 290.472322 141.310878 
L 290.750367 189.826074 
L 291.028412 199.95555 
L 291.306457 166.14263 
L 291.584502 193.004583 
L 291.862547 182.451497 
L 292.140593 162.10576 
L 292.418638 214.925218 
L 292.696683 184.045684 
L 292.974728 198.558449 
L 293.252773 199.895982 
L 293.530818 180.260787 
L 293.808863 172.537521 
L 294.086908 212.880609 
L 294.364953 181.578627 
L 294.642998 178.931704 
L 294.921043 160.683596 
L 295.199088 190.180689 
L 295.477133 190.779132 
L 295.755179 143.23248 
L 296.033224 196.486908 
L 296.311269 191.988809 
L 296.589314 176.954019 
L 296.867359 210.755644 
L 297.145404 188.036973 
L 297.423449 199.176231 
L 297.701494 201.089972 
L 297.979539 180.019956 
L 298.257584 176.36113 
L 298.535629 206.667318 
L 298.813674 182.249615 
L 299.091719 175.058305 
L 299.369764 133.292279 
L 299.64781 213.857484 
L 299.925855 200.015774 
L 300.2039 152.883946 
L 300.481945 182.665802 
L 300.75999 166.84469 
L 301.038035 166.787159 
L 301.31608 189.110245 
L 301.594125 192.81078 
L 301.87217 170.440632 
L 302.150215 204.6693 
L 302.98435 130.493363 
L 303.262396 182.229282 
L 303.540441 118.571639 
L 303.818486 166.213425 
L 304.096531 120.833582 
L 304.374576 161.782014 
L 304.652621 173.225947 
L 304.930666 135.232429 
L 305.208711 160.448958 
L 305.486756 175.123007 
L 306.042846 150.098664 
L 306.320891 175.690546 
L 306.598936 132.706359 
L 306.876982 149.358059 
L 307.155027 102.845124 
L 307.433072 175.272845 
L 307.711117 173.880305 
L 307.989162 97.245239 
L 308.267207 138.303247 
L 308.545252 118.700572 
L 308.823297 119.09757 
L 309.101342 144.167426 
L 309.379387 125.433683 
L 309.657432 118.764601 
L 309.935477 166.014741 
L 310.213522 117.610267 
L 310.491567 119.523889 
L 310.769613 169.476734 
L 311.047658 125.053988 
L 311.325703 131.394108 
L 311.603748 131.343174 
L 311.881793 168.629986 
L 312.159838 137.575905 
L 312.437883 136.690647 
L 312.715928 126.241818 
L 312.993973 174.091512 
L 313.272018 137.596676 
L 313.550063 117.224849 
L 313.828108 156.216871 
L 314.106153 150.261395 
L 314.384199 154.446084 
L 314.662244 148.525619 
L 314.940289 150.469 
L 315.218334 150.2585 
L 315.496379 159.104558 
L 315.774424 152.375083 
L 316.052469 157.780255 
L 316.330514 153.052905 
L 316.608559 158.044112 
L 316.886604 158.529714 
L 317.164649 141.770289 
L 317.442694 170.097092 
L 317.720739 166.249782 
L 317.998785 137.262966 
L 318.27683 170.679342 
L 318.554875 168.469376 
L 318.83292 156.215188 
L 319.110965 176.372913 
L 319.38901 160.55776 
L 319.667055 175.796857 
L 319.9451 179.345702 
L 320.223145 165.29962 
L 320.50119 167.110904 
L 321.05728 187.744401 
L 321.335325 166.168518 
L 321.61337 187.267821 
L 321.891416 189.061129 
L 322.169461 172.857933 
L 322.447506 138.807633 
L 322.725551 197.387888 
L 323.003596 167.022974 
L 323.281641 206.019238 
L 323.559686 183.190352 
L 323.837731 190.742606 
L 324.393821 165.626428 
L 324.671866 191.080524 
L 324.949911 188.816965 
L 325.227956 199.360255 
L 325.506002 177.534249 
L 325.784047 203.792491 
L 326.062092 154.894554 
L 326.340137 208.345681 
L 326.896227 169.869558 
L 327.174272 192.793914 
L 327.452317 189.575278 
L 327.730362 201.132186 
L 328.286452 187.556186 
L 328.564497 189.63557 
L 328.842542 196.286878 
L 329.120587 187.863638 
L 329.398633 183.604317 
L 329.676678 204.913346 
L 329.954723 185.45243 
L 330.232768 196.159931 
L 330.510813 174.001865 
L 330.788858 209.580017 
L 331.066903 196.836171 
L 331.344948 195.446224 
L 331.622993 199.311493 
L 331.901038 212.820973 
L 332.179083 185.27317 
L 332.457128 216.290288 
L 332.735173 178.377193 
L 333.013219 216.364937 
L 333.291264 199.996401 
L 333.569309 195.305711 
L 333.847354 194.374164 
L 334.125399 201.054305 
L 334.403444 190.728804 
L 334.681489 189.529226 
L 334.959534 152.326674 
L 335.237579 205.254126 
L 335.515624 183.625929 
L 335.793669 179.792085 
L 336.071714 180.773858 
L 336.349759 183.175742 
L 336.627805 163.758353 
L 336.90585 194.554165 
L 337.183895 169.911738 
L 337.46194 185.222674 
L 337.739985 191.950264 
L 338.01803 179.649115 
L 338.296075 152.758682 
L 338.57412 178.914973 
L 338.852165 194.070987 
L 339.13021 144.345138 
L 339.408255 176.702549 
L 339.6863 158.397112 
L 339.964345 154.168896 
L 340.24239 173.683708 
L 340.520436 157.417257 
L 340.798481 163.965823 
L 341.076526 180.556255 
L 341.632616 156.98737 
L 341.910661 125.031265 
L 342.188706 137.965969 
L 342.466751 166.035478 
L 342.744796 108.643153 
L 343.022841 174.853427 
L 343.300886 156.372465 
L 343.578931 112.300094 
L 343.856976 159.103784 
L 344.413067 129.029927 
L 344.691112 150.447725 
L 344.969157 128.785023 
L 345.247202 182.182018 
L 345.525247 112.60768 
L 345.803292 162.924229 
L 346.081337 147.180882 
L 346.359382 72.48233 
L 346.637427 145.670485 
L 346.915472 156.422894 
L 347.193517 139.113537 
L 347.471562 136.098465 
L 347.749607 148.346796 
L 348.027653 147.484328 
L 348.305698 114.786474 
L 348.583743 172.508334 
L 348.861788 145.150849 
L 349.139833 129.393194 
L 349.417878 164.69303 
L 349.695923 160.528675 
L 349.973968 70.362314 
L 350.252013 165.674298 
L 350.530058 166.38225 
L 351.086148 161.523846 
L 351.364193 164.053013 
L 351.642239 161.861192 
L 351.920284 151.962633 
L 352.198329 164.473946 
L 352.476374 162.050416 
L 352.754419 146.862691 
L 353.032464 172.121401 
L 353.310509 175.186968 
L 353.588554 149.218354 
L 353.866599 181.891398 
L 354.144644 178.991424 
L 354.422689 164.465361 
L 354.700734 180.943053 
L 354.978779 169.421424 
L 355.256825 180.643848 
L 355.53487 180.1059 
L 356.09096 163.786361 
L 356.369005 164.02083 
L 356.64705 185.983141 
L 356.925095 166.877614 
L 357.20314 186.643491 
L 357.481185 184.222991 
L 357.75923 188.061211 
L 358.037275 170.558792 
L 358.31532 213.195349 
L 358.593365 170.648405 
L 358.87141 220.572719 
L 359.149456 180.950425 
L 359.427501 194.675254 
L 359.705546 174.43788 
L 359.983591 175.35007 
L 360.261636 194.346391 
L 360.539681 184.460793 
L 360.817726 188.794242 
L 361.095771 180.597561 
L 361.373816 196.671757 
L 361.651861 185.802871 
L 361.929906 204.017449 
L 362.485996 180.485426 
L 362.764042 217.93396 
L 363.042087 185.694911 
L 363.320132 221.0613 
L 363.598177 177.884421 
L 363.876222 186.31409 
L 364.154267 158.39186 
L 364.710357 192.027691 
L 364.988402 182.352559 
L 365.266447 192.01739 
L 365.544492 172.778756 
L 365.822537 184.543269 
L 366.100582 176.953817 
L 366.378628 199.14255 
L 366.656673 199.971894 
L 366.934718 194.820984 
L 367.490808 240.896996 
L 367.768853 172.358462 
L 368.046898 209.299143 
L 368.324943 194.241158 
L 368.881033 182.573798 
L 369.159078 194.828929 
L 369.437123 190.91372 
L 369.715168 198.138273 
L 369.993213 179.100831 
L 370.271259 180.551407 
L 370.549304 162.477005 
L 370.827349 193.768517 
L 371.105394 178.241998 
L 371.383439 174.688743 
L 371.661484 184.582286 
L 371.939529 187.96123 
L 372.217574 161.222386 
L 372.495619 198.408476 
L 372.773664 188.430302 
L 373.051709 190.892007 
L 373.329754 182.942956 
L 373.885845 146.745776 
L 374.16389 174.305884 
L 374.441935 187.396114 
L 374.71998 166.650854 
L 374.998025 180.357369 
L 375.27607 153.678144 
L 375.554115 153.34541 
L 376.110205 170.543811 
L 376.38825 190.125177 
L 376.666295 195.999759 
L 376.94434 146.97331 
L 377.222385 178.328548 
L 377.50043 138.158795 
L 378.056521 160.944962 
L 378.334566 131.03515 
L 378.612611 117.706007 
L 378.890656 146.829027 
L 379.168701 118.836911 
L 379.446746 176.015605 
L 380.002836 115.291903 
L 380.280881 160.160055 
L 380.558926 142.837097 
L 380.836971 152.107758 
L 381.115016 115.870046 
L 381.393062 144.286125 
L 381.671107 156.69308 
L 381.949152 124.845575 
L 382.227197 122.98605 
L 382.505242 153.703089 
L 382.783287 123.831889 
L 383.061332 142.817842 
L 383.339377 147.111366 
L 383.617422 124.265951 
L 383.895467 134.155353 
L 384.173512 139.125521 
L 384.729602 122.3461 
L 385.007648 155.7955 
L 385.285693 153.057719 
L 385.563738 156.540179 
L 385.841783 156.78707 
L 386.119828 160.573111 
L 386.397873 157.281727 
L 386.675918 150.208139 
L 386.953963 155.050014 
L 387.232008 151.582298 
L 387.510053 145.621504 
L 387.788098 155.203622 
L 388.066143 158.687261 
L 388.344188 154.088001 
L 388.622233 161.168153 
L 388.900279 159.310615 
L 389.178324 138.986354 
L 389.456369 161.790262 
L 389.734414 166.625572 
L 390.012459 164.858757 
L 390.290504 167.533386 
L 390.568549 164.312898 
L 390.846594 177.876139 
L 391.124639 173.045441 
L 391.402684 164.345653 
L 391.958774 155.940188 
L 392.236819 183.006716 
L 392.514865 163.275579 
L 392.79291 194.489227 
L 393.070955 187.441056 
L 393.349 193.037338 
L 393.627045 178.322893 
L 393.90509 230.059215 
L 394.183135 172.411214 
L 394.46118 195.27814 
L 394.739225 186.162906 
L 395.01727 187.018877 
L 395.295315 188.50921 
L 395.57336 185.439536 
L 395.851405 193.001351 
L 396.12945 157.399618 
L 396.407496 196.126099 
L 396.685541 185.606004 
L 396.963586 189.546865 
L 397.241631 199.341319 
L 397.519676 201.961092 
L 398.075766 193.809048 
L 398.353811 206.772299 
L 398.631856 159.036557 
L 398.909901 213.072089 
L 399.187946 184.925758 
L 399.465991 185.437079 
L 399.744036 180.435705 
L 400.022082 154.389865 
L 400.300127 186.10423 
L 400.578172 169.654008 
L 400.856217 202.929332 
L 401.134262 175.82261 
L 401.412307 220.529259 
L 401.690352 174.221825 
L 401.968397 203.180397 
L 402.246442 218.622218 
L 402.524487 172.441578 
L 403.080577 237.256013 
L 403.358622 154.356875 
L 403.636668 202.693365 
L 403.914713 192.828251 
L 404.192758 197.111104 
L 404.470803 186.772929 
L 404.748848 210.738745 
L 405.026893 196.645028 
L 405.304938 211.902 
L 405.582983 195.46144 
L 405.861028 201.057402 
L 406.139073 164.278123 
L 406.417118 212.82402 
L 406.695163 191.520646 
L 406.973208 182.21043 
L 407.251253 211.816914 
L 407.529299 217.858755 
L 407.807344 160.984281 
L 408.085389 200.620984 
L 408.363434 201.834852 
L 408.641479 187.613852 
L 408.919524 196.328991 
L 409.475614 158.296625 
L 410.031704 192.540594 
L 410.309749 129.166266 
L 410.587794 186.733441 
L 410.865839 163.763503 
L 411.143885 165.42973 
L 411.42193 165.699075 
L 411.699975 179.551119 
L 411.97802 176.959539 
L 412.256065 179.746942 
L 412.53411 168.452948 
L 412.812155 148.551708 
L 413.0902 151.89884 
L 413.368245 165.126857 
L 413.64629 144.333356 
L 413.924335 146.426811 
L 414.20238 130.892549 
L 414.480425 146.485756 
L 414.75847 150.276746 
L 415.036516 130.446167 
L 415.314561 185.709723 
L 415.592606 142.44121 
L 415.870651 155.887133 
L 416.148696 156.498402 
L 416.426741 152.871086 
L 416.704786 122.072985 
L 416.982831 164.721274 
L 417.260876 173.457419 
L 417.538921 151.545302 
L 417.816966 157.050927 
L 418.095011 168.013399 
L 418.373056 140.222458 
L 418.651102 142.785659 
L 418.929147 166.014741 
L 419.207192 150.844555 
L 419.485237 186.260228 
L 419.763282 162.642496 
L 420.041327 161.690953 
L 420.319372 133.088983 
L 420.597417 182.281831 
L 420.875462 178.645561 
L 421.153507 144.164868 
L 421.431552 175.957433 
L 421.709597 166.397499 
L 421.987642 183.836193 
L 422.265688 172.29844 
L 422.543733 166.449981 
L 422.821778 169.04523 
L 423.099823 157.428232 
L 423.377868 166.093649 
L 423.655913 171.265026 
L 423.933958 153.026647 
L 424.212003 168.325261 
L 424.490048 166.952415 
L 424.768093 146.69215 
L 425.046138 170.124292 
L 425.324183 170.455073 
L 425.602228 179.967474 
L 425.880273 170.444099 
L 426.158319 178.276639 
L 426.436364 189.876872 
L 426.436364 189.876872 
" clip-path="url(#pc8e1fa7296)" style="fill: none; stroke: #ff00ff; stroke-width: 3; stroke-linecap: square"/>
   </g>
   <g id="patch_3">
    <path d="M 7.2 331.2 
L 7.2 7.2 
" style="fill: none; stroke: #000000; stroke-width: 0.8; stroke-linejoin: miter; stroke-linecap: square"/>
   </g>
   <g id="patch_4">
    <path d="M 446.4 331.2 
L 446.4 7.2 
" style="fill: none; stroke: #000000; stroke-width: 0.8; stroke-linejoin: miter; stroke-linecap: square"/>
   </g>
   <g id="patch_5">
    <path d="M 7.2 331.2 
L 446.4 331.2 
" style="fill: none; stroke: #000000; stroke-width: 0.8; stroke-linejoin: miter; stroke-linecap: square"/>
   </g>
   <g id="patch_6">
    <path d="M 7.2 7.2 
L 446.4 7.2 
" style="fill: none; stroke: #000000; stroke-width: 0.8; stroke-linejoin: miter; stroke-linecap: square"/>
   </g>
  </g>
 </g>
 <defs>
  <clipPath id="pc8e1fa7296">
   <rect x="7.2" y="7.2" width="439.2" height="324"/>
  </clipPath>
 </defs>
</svg>
