<?xml version="1.0" encoding="utf-8" standalone="no"?>
<!DOCTYPE svg PUBLIC "-//W3C//DTD SVG 1.1//EN"
  "http://www.w3.org/Graphics/SVG/1.1/DTD/svg11.dtd">
<svg xmlns:xlink="http://www.w3.org/1999/xlink" width="453.6pt" height="338.4pt" viewBox="0 0 453.6 338.4" xmlns="http://www.w3.org/2000/svg" version="1.1">
 <metadata>
  <rdf:RDF xmlns:dc="http://purl.org/dc/elements/1.1/" xmlns:cc="http://creativecommons.org/ns#" xmlns:rdf="http://www.w3.org/1999/02/22-rdf-syntax-ns#">
   <cc:Work>
    <dc:type rdf:resource="http://purl.org/dc/dcmitype/StillImage"/>
    <dc:date>2025-05-15T10:24:57.637693</dc:date>
    <dc:format>image/svg+xml</dc:format>
    <dc:creator>
     <cc:Agent>
      <dc:title>Matplotlib v3.10.1, https://matplotlib.org/</dc:title>
     </cc:Agent>
    </dc:creator>
   </cc:Work>
  </rdf:RDF>
 </metadata>
 <defs>
  <style type="text/css">*{stroke-linejoin: round; stroke-linecap: butt}</style>
 </defs>
 <g id="figure_1">
  <g id="patch_1">
   <path d="M 0 338.4 
L 453.6 338.4 
L 453.6 0 
L 0 0 
z
" style="fill: #ffffff"/>
  </g>
  <g id="axes_1">
   <g id="patch_2">
    <path d="M 7.2 331.2 
L 446.4 331.2 
L 446.4 7.2 
L 7.2 7.2 
z
" style="fill: #ffffff"/>
   </g>
   <g id="matplotlib.axis_1"/>
   <g id="matplotlib.axis_2"/>
   <g id="line2d_1">
    <path d="M 27.163636 282.518277 
L 28.228364 252.726262 
L 29.293091 229.498052 
L 30.357818 211.012653 
L 31.422545 195.945654 
L 32.753455 180.449413 
L 34.084364 167.522269 
L 35.681455 154.23926 
L 37.544727 140.90274 
L 41.803636 112.163518 
L 42.602182 104.152395 
L 43.400727 93.22119 
L 43.933091 85.599045 
L 44.997818 81.372792 
L 45.264 80.698192 
L 45.530182 80.623824 
L 47.127273 81.251057 
L 49.256727 81.796478 
L 50.853818 82.296007 
L 51.652364 82.727171 
L 52.450909 83.367203 
L 53.249455 84.285431 
L 54.048 85.524641 
L 54.846545 87.133533 
L 55.911273 89.888412 
L 56.976 93.318943 
L 58.573091 99.483953 
L 60.436364 107.269109 
L 61.234909 121.01606 
L 62.033455 139.303802 
L 62.832 162.858918 
L 63.630545 192.41269 
L 64.162909 215.569218 
L 65.227636 177.291881 
L 66.292364 146.473505 
L 67.357091 122.482817 
L 68.155636 108.55098 
L 68.954182 97.757697 
L 69.752727 89.78267 
L 70.551273 84.301056 
L 71.083636 81.864122 
L 71.616 80.272365 
L 72.148364 79.446377 
L 72.414545 79.281032 
L 72.680727 79.276713 
L 72.946909 79.406946 
L 73.479273 80.043642 
L 73.745455 80.5237 
L 74.011636 85.448657 
L 75.076364 143.062144 
L 75.874909 176.614771 
L 76.673455 202.035479 
L 76.939636 208.730363 
L 77.205818 211.934682 
L 77.738182 213.063586 
L 78.270545 214.960911 
L 79.069091 218.89766 
L 81.198545 231.001826 
L 81.730909 232.987836 
L 82.263273 234.009822 
L 82.529455 234.065028 
L 82.795636 233.769214 
L 83.061818 233.088882 
L 83.328 231.992158 
L 83.860364 228.300187 
L 84.392727 222.555958 
L 84.925091 214.359397 
L 85.457455 203.553228 
L 86.256 181.958691 
L 87.054545 153.202826 
L 87.853091 116.834348 
L 88.385455 88.170372 
L 88.917818 81.360819 
L 89.450182 78.152304 
L 89.716364 77.72444 
L 89.982545 77.976688 
L 90.248727 78.852659 
L 90.781091 82.229293 
L 91.579636 90.272947 
L 93.442909 111.113705 
L 93.709091 113.020089 
L 95.306182 114.435054 
L 96.104727 114.955984 
L 96.903273 115.239062 
L 97.701818 115.125174 
L 98.234182 114.810899 
L 98.766545 114.253206 
L 99.298909 113.417545 
L 99.831273 112.270857 
L 100.629818 109.929183 
L 101.428364 106.655763 
L 102.226909 102.450104 
L 103.025455 97.232659 
L 104.090182 88.481469 
L 105.154909 77.753109 
L 106.219636 65.096684 
L 107.284364 50.66049 
L 107.816727 48.726105 
L 109.946182 64.568959 
L 110.212364 66.21867 
L 110.478545 70.543905 
L 111.277091 87.584115 
L 111.809455 95.52589 
L 112.341818 101.138176 
L 112.874182 104.814636 
L 113.406545 106.783028 
L 113.672727 107.233575 
L 113.938909 107.33024 
L 114.205091 107.134645 
L 114.471273 106.657957 
L 115.003636 104.943973 
L 115.536 102.343836 
L 116.334545 97.072142 
L 117.399273 88.054465 
L 118.730182 74.467434 
L 120.061091 59.151654 
L 120.327273 59.256588 
L 121.392 80.922526 
L 122.190545 93.5855 
L 122.989091 103.654657 
L 123.787636 111.506843 
L 124.586182 117.500696 
L 125.384727 122.002723 
L 126.183273 125.409817 
L 126.981818 128.181935 
L 129.111273 131.202633 
L 131.506909 134.72379 
L 133.104 137.468117 
L 134.434909 140.128736 
L 135.765818 143.284898 
L 137.096727 147.096577 
L 138.161455 150.787679 
L 139.226182 155.239986 
L 140.290909 160.685557 
L 141.089455 165.772154 
L 144.017455 188.253547 
L 144.816 194.414597 
L 145.614545 198.805308 
L 146.413091 201.912559 
L 147.211636 204.111114 
L 148.010182 205.643812 
L 148.808727 206.717703 
L 149.607273 207.469823 
L 150.672 208.145265 
L 152.002909 208.667038 
L 153.866182 209.090513 
L 156.794182 209.469807 
L 160.254545 209.795836 
L 161.053091 210.359849 
L 161.851636 211.216569 
L 162.650182 212.532596 
L 163.448727 214.475479 
L 164.247273 217.211783 
L 165.045818 220.903781 
L 165.844364 225.70795 
L 166.642909 231.771994 
L 167.973818 242.962339 
L 168.772364 247.315299 
L 169.304727 249.21545 
L 169.837091 250.396219 
L 170.369455 250.927925 
L 170.635636 250.972065 
L 170.901818 250.879838 
L 171.434182 250.320016 
L 171.966545 249.315042 
L 172.765091 247.113038 
L 173.829818 243.192607 
L 175.426909 236.105103 
L 177.024 228.32898 
L 178.088727 221.236384 
L 178.887273 217.137371 
L 179.685818 214.200074 
L 180.218182 212.873118 
L 180.750545 212.028231 
L 181.282909 211.64704 
L 181.815273 211.708733 
L 182.347636 212.149712 
L 182.88 212.975243 
L 183.678545 214.82894 
L 185.009455 218.737705 
L 189.268364 224.220346 
L 191.930182 227.364157 
L 193.261091 228.640375 
L 193.527273 228.845415 
L 194.059636 229.417355 
L 194.325818 229.448166 
L 194.592 229.284568 
L 194.858182 228.914508 
L 195.390545 227.489728 
L 195.922909 225.025573 
L 196.455273 221.403178 
L 196.987636 216.519864 
L 197.786182 206.53539 
L 198.584727 193.13478 
L 199.383273 176.065812 
L 199.649455 169.507437 
L 199.915636 173.42253 
L 201.246545 200.360944 
L 202.311273 217.503095 
L 203.109818 227.010337 
L 203.642182 231.545658 
L 204.174545 234.573291 
L 204.706909 236.066136 
L 204.973091 236.21461 
L 205.239273 236.011914 
L 205.505455 235.405125 
L 206.037818 233.121756 
L 206.570182 229.39663 
L 207.368727 221.451861 
L 208.167273 210.992902 
L 209.498182 189.682768 
L 210.296727 174.832747 
L 211.627636 139.078151 
L 212.426182 116.312487 
L 212.692364 112.565065 
L 213.490909 107.10903 
L 214.289455 103.42711 
L 214.821818 101.867428 
L 215.354182 100.914649 
L 215.886545 100.505553 
L 216.152727 100.490261 
L 216.685091 100.867581 
L 217.217455 101.675749 
L 217.749818 102.911939 
L 218.548364 105.515675 
L 219.346909 108.968732 
L 220.411636 114.805386 
L 221.476364 122.032814 
L 222.541091 130.667746 
L 223.872 143.550771 
L 225.202909 158.950575 
L 226.533818 177.12917 
L 227.066182 186.671235 
L 229.195636 234.032014 
L 230.526545 264.567998 
L 231.591273 230.264533 
L 232.656 202.426062 
L 233.720727 180.731885 
L 234.519273 168.317709 
L 235.317818 159.147293 
L 235.850182 154.748357 
L 236.382545 151.67959 
L 236.914909 149.985936 
L 237.181091 149.621766 
L 237.447273 149.574996 
L 237.713455 149.842923 
L 237.979636 150.423017 
L 238.512 152.525996 
L 239.044364 155.891166 
L 239.842909 163.178794 
L 240.641455 173.102067 
L 241.44 185.684818 
L 242.504727 206.389664 
L 245.432727 272.782378 
L 245.698909 274.219109 
L 246.763636 258.60072 
L 248.094545 234.923337 
L 250.756364 185.647467 
L 251.554909 174.078494 
L 252.353455 165.493343 
L 252.885818 161.820851 
L 253.418182 159.88794 
L 253.684364 159.623507 
L 253.950545 159.876757 
L 254.216727 160.60629 
L 254.749091 163.500144 
L 255.281455 168.28444 
L 255.813818 174.878446 
L 256.612364 187.828834 
L 257.677091 209.482869 
L 260.338909 270.312016 
L 261.669818 314.919272 
L 262.734545 308.37817 
L 264.065455 298.658269 
L 265.928727 283.023305 
L 271.252364 236.60155 
L 272.849455 225.034457 
L 274.180364 216.89678 
L 275.245091 211.504194 
L 276.309818 207.173525 
L 276.576 206.261784 
L 276.842182 202.281881 
L 277.906909 176.418808 
L 278.705455 160.686663 
L 279.504 148.771691 
L 280.036364 143.193693 
L 280.568727 139.604365 
L 280.834909 138.615771 
L 281.101091 138.324091 
L 281.899636 145.052886 
L 282.432 147.312361 
L 282.698182 147.758097 
L 282.964364 147.820598 
L 283.230545 147.538187 
L 283.762909 146.110686 
L 284.295273 143.804318 
L 285.36 137.73255 
L 286.690909 130.063898 
L 287.489455 126.784596 
L 288.021818 125.601566 
L 288.288 125.372457 
L 288.554182 125.438556 
L 288.820364 125.786469 
L 289.086545 126.484489 
L 289.618909 128.92913 
L 290.151273 133.027345 
L 290.683636 138.926412 
L 291.216 146.831442 
L 292.014545 163.005426 
L 292.813091 180.534815 
L 294.144 146.661322 
L 294.942545 132.562806 
L 295.474909 126.273129 
L 296.007273 122.29349 
L 296.273455 121.113129 
L 296.539636 120.490249 
L 296.805818 120.366407 
L 297.072 120.722765 
L 297.338182 121.577018 
L 297.870545 124.592379 
L 298.402909 129.25487 
L 299.201455 138.98038 
L 300 151.484066 
L 301.064727 171.502313 
L 302.661818 206.104962 
L 303.992727 235.752581 
L 304.258909 237.615917 
L 304.525091 237.562037 
L 305.057455 237.00897 
L 305.589818 235.981111 
L 306.388364 233.835576 
L 309.848727 223.357569 
L 310.114909 221.586246 
L 312.244364 198.807696 
L 313.042909 193.10259 
L 313.575273 190.863042 
L 313.841455 190.269473 
L 314.107636 190.063265 
L 314.373818 190.275661 
L 314.64 190.894415 
L 314.906182 191.940382 
L 315.438545 195.414076 
L 315.970909 200.761402 
L 316.503273 208.02899 
L 316.769455 212.341681 
L 317.301818 206.789017 
L 317.834182 203.152602 
L 318.366545 201.173984 
L 318.632727 200.723639 
L 318.898909 200.613605 
L 319.165091 200.784269 
L 319.431273 201.252425 
L 319.963636 202.909711 
L 320.496 205.421505 
L 321.294545 210.407295 
L 322.359273 218.686335 
L 324.488727 237.62904 
L 326.618182 256.027523 
L 327.949091 261.812623 
L 329.546182 269.802805 
L 331.675636 281.822645 
L 334.869818 300.550257 
L 335.136 300.344962 
L 335.402182 295.8351 
L 336.999273 239.056919 
L 338.330182 200.036056 
L 339.394909 174.441646 
L 340.459636 153.957991 
L 341.524364 138.229726 
L 342.322909 129.278132 
L 343.121455 122.459344 
L 343.387636 121.235408 
L 346.315636 115.11457 
L 348.178909 111.822821 
L 352.704 104.254204 
L 354.567273 100.320001 
L 356.962909 95.147114 
L 357.761455 93.741927 
L 358.826182 92.398696 
L 359.358545 92.029593 
L 359.890909 91.892162 
L 360.423273 84.056445 
L 361.221818 68.245858 
L 361.754182 54.593325 
L 362.020364 56.849025 
L 362.818909 73.696328 
L 363.617455 86.690624 
L 364.416 96.469119 
L 365.214545 103.604885 
L 366.013091 108.604018 
L 366.811636 111.86629 
L 367.344 113.293896 
L 367.876364 114.225099 
L 368.408727 114.758265 
L 368.941091 114.983776 
L 369.473455 114.975788 
L 370.272 114.6731 
L 372.667636 113.415421 
L 373.466182 113.36686 
L 373.998545 113.530309 
L 374.530909 113.887298 
L 375.063273 114.455946 
L 375.861818 115.722877 
L 377.458909 119.124037 
L 377.725091 119.83073 
L 378.257455 123.033241 
L 379.854545 137.550351 
L 380.919273 145.545164 
L 381.717818 150.285622 
L 382.516364 153.766312 
L 383.048727 155.358649 
L 383.581091 156.354686 
L 384.113455 156.745454 
L 384.379636 156.722736 
L 384.645818 156.558655 
L 385.178182 155.822222 
L 385.710545 154.573549 
L 386.509091 151.831119 
L 387.307636 148.212664 
L 388.638545 140.866258 
L 391.300364 125.421966 
L 392.365091 120.60282 
L 393.163636 117.9527 
L 395.026909 116.42957 
L 395.293091 115.745174 
L 396.624 108.917643 
L 397.422545 105.891274 
L 397.954909 104.514897 
L 398.487273 103.8466 
L 398.753455 103.767018 
L 399.019636 103.873215 
L 399.285818 104.175043 
L 399.818182 105.403421 
L 400.350545 107.518776 
L 400.882909 110.510489 
L 401.681455 116.663051 
L 402.48 124.77047 
L 403.544727 138.415735 
L 404.875636 159.31931 
L 406.738909 193.302047 
L 410.199273 260.919505 
L 411.264 286.654626 
L 411.530182 289.63647 
L 412.328727 267.699326 
L 414.192 217.787313 
L 416.055273 174.021744 
L 417.918545 135.511699 
L 419.781818 101.80075 
L 421.378909 76.894116 
L 422.709818 59.390349 
L 423.774545 47.896694 
L 424.839273 38.986953 
L 425.637818 34.207889 
L 426.170182 32.010598 
L 426.436364 31.220038 
L 426.436364 31.220038 
" clip-path="url(#p1b7e6a53a6)" style="fill: none; stroke: #ffa500; stroke-width: 3; stroke-linecap: square"/>
   </g>
   <g id="line2d_2">
    <path d="M 27.163636 310.152357 
L 28.494545 266.817093 
L 29.825455 230.77435 
L 31.156364 201.463732 
L 32.221091 182.446685 
L 33.285818 166.912716 
L 34.350545 154.536102 
L 35.415273 145.008047 
L 36.213818 139.556331 
L 37.012364 135.46909 
L 37.810909 132.682592 
L 38.343273 131.494278 
L 38.875636 130.920697 
L 39.141818 130.798312 
L 39.674182 131.046137 
L 39.940364 131.362395 
L 40.472727 132.442106 
L 41.005091 134.139061 
L 41.537455 136.425591 
L 42.336 141.101881 
L 43.134545 147.392628 
L 43.933091 154.656714 
L 44.997818 160.29967 
L 46.062545 167.013015 
L 47.127273 175.368064 
L 48.192 185.76713 
L 49.256727 199.105231 
L 50.321455 216.378773 
L 51.386182 238.969216 
L 51.652364 244.44929 
L 51.918545 246.892544 
L 52.184727 245.619938 
L 53.515636 233.263365 
L 54.846545 218.606033 
L 56.177455 201.337836 
L 57.508364 181.151199 
L 58.839273 157.744231 
L 60.170182 130.834548 
L 60.436364 125.009376 
L 63.364364 87.515312 
L 66.026182 50.721253 
L 68.155636 145.751854 
L 69.220364 182.507158 
L 70.285091 210.928989 
L 71.083636 226.336966 
L 71.616 233.642308 
L 72.148364 238.459847 
L 72.414545 239.905053 
L 72.680727 240.702451 
L 72.946909 240.847632 
L 73.213091 240.287078 
L 73.479273 239.079917 
L 74.011636 234.495657 
L 74.544 227.060758 
L 75.076364 216.672621 
L 75.874909 195.365718 
L 76.673455 167.054412 
L 76.939636 156.002227 
L 77.205818 155.526961 
L 78.802909 171.221772 
L 80.666182 186.94535 
L 82.263273 198.558046 
L 83.594182 206.946435 
L 84.925091 214.089215 
L 86.256 219.896832 
L 87.320727 223.622528 
L 88.651636 227.38612 
L 90.248727 231.749153 
L 91.047273 234.726988 
L 91.579636 237.412238 
L 92.112 240.961222 
L 92.644364 245.680419 
L 93.176727 251.9456 
L 93.709091 260.251409 
L 94.507636 276.85679 
L 95.306182 298.714598 
L 95.838545 316.472727 
L 96.104727 315.039841 
L 97.435636 265.804315 
L 98.500364 232.908017 
L 99.565091 205.921043 
L 100.629818 184.718722 
L 101.428364 172.481786 
L 102.226909 163.126933 
L 103.025455 156.404968 
L 103.557818 153.229634 
L 104.090182 151.031465 
L 104.622545 149.658477 
L 105.154909 148.98809 
L 105.687273 148.958718 
L 105.953455 149.112301 
L 106.485818 149.784302 
L 107.284364 151.352359 
L 109.68 156.868348 
L 110.212364 157.723128 
L 110.478545 159.620172 
L 111.010909 168.34831 
L 111.543273 180.091853 
L 112.341818 203.978555 
L 113.406545 242.156444 
L 114.471273 260.026707 
L 115.269818 270.09474 
L 115.802182 274.70813 
L 116.334545 277.341563 
L 116.600727 277.780632 
L 116.866909 277.620791 
L 117.133091 276.823995 
L 117.399273 275.327871 
L 117.931636 270.064319 
L 118.464 261.585344 
L 118.996364 249.460514 
L 119.794909 223.864059 
L 120.593455 188.212167 
L 121.392 141.439382 
L 122.190545 82.284929 
L 122.722909 38.725329 
L 123.521455 84.713067 
L 124.32 114.864797 
L 124.852364 127.922559 
L 125.384727 136.557122 
L 125.917091 141.875322 
L 126.449455 145.013735 
L 126.981818 147.075579 
L 128.312727 148.612632 
L 129.377455 150.275825 
L 130.176 151.963651 
L 130.974545 154.180622 
L 131.773091 157.059957 
L 132.571636 160.758292 
L 133.636364 167.11679 
L 134.434909 173.029867 
L 135.499636 182.596572 
L 136.564364 193.986444 
L 138.161455 214.268315 
L 140.290909 245.32684 
L 142.420364 276.56486 
L 143.218909 282.018889 
L 143.751273 282.904526 
L 144.816 286.112253 
L 145.348364 286.928754 
L 145.614545 287.008054 
L 145.880727 286.85236 
L 146.146909 286.430101 
L 146.679273 284.725819 
L 147.211636 281.792207 
L 147.744 277.576975 
L 148.542545 268.856842 
L 149.341091 257.311694 
L 150.405818 237.910063 
L 151.736727 208.153174 
L 153.333818 166.563943 
L 155.995636 90.148385 
L 158.391273 21.927273 
L 160.520727 29.805547 
L 162.650182 43.463295 
L 164.779636 58.554249 
L 167.175273 77.135655 
L 170.369455 103.909206 
L 173.829818 132.836175 
L 175.693091 146.829598 
L 177.024 177.761696 
L 177.556364 184.176725 
L 178.088727 187.203409 
L 178.354909 187.466227 
L 178.621091 187.048036 
L 178.887273 185.849926 
L 179.419636 181.507574 
L 179.952 174.767991 
L 180.750545 160.985541 
L 181.815273 137.861062 
L 183.944727 89.258721 
L 184.743273 75.375287 
L 185.275636 68.844738 
L 185.808 65.094436 
L 186.074182 64.435971 
L 186.340364 64.637464 
L 186.606545 65.853798 
L 187.138909 90.754761 
L 188.203636 140.353737 
L 189.268364 178.805206 
L 190.066909 200.788904 
L 190.865455 217.150187 
L 191.664 228.302724 
L 192.196364 233.000767 
L 192.728727 235.642337 
L 192.994909 236.230384 
L 193.261091 236.341384 
L 193.527273 235.996745 
L 194.059636 234.699644 
L 194.592 232.387192 
L 195.124364 229.008829 
L 195.922909 221.95556 
L 196.721455 212.472159 
L 197.786182 196.214054 
L 198.850909 177.406524 
L 199.383273 174.145595 
L 199.915636 172.030695 
L 200.448 170.632882 
L 200.980364 169.841348 
L 201.512727 169.557683 
L 202.045091 169.648335 
L 202.577455 170.01182 
L 203.376 170.868083 
L 205.505455 173.345968 
L 206.304 173.955653 
L 207.102545 174.331568 
L 208.167273 174.523406 
L 210.030545 174.478233 
L 210.296727 174.401372 
L 210.829091 173.725771 
L 211.361455 172.405776 
L 211.893818 170.369441 
L 212.426182 167.587684 
L 213.224727 161.837196 
L 214.023273 154.100109 
L 214.821818 144.211396 
L 215.620364 131.938979 
L 216.685091 111.493728 
L 217.217455 101.942148 
L 218.016 99.758358 
L 219.346909 95.228943 
L 220.944 89.701086 
L 221.742545 87.550302 
L 222.274909 86.598014 
L 222.807273 86.158423 
L 223.073455 86.174592 
L 223.339636 86.400418 
L 223.605818 86.831706 
L 224.138182 88.40854 
L 224.670545 91.177376 
L 225.202909 95.3613 
L 225.735273 101.250062 
L 226.267636 109.195225 
L 227.066182 122.423599 
L 228.130909 135.771057 
L 229.195636 152.965588 
L 230.260364 174.905632 
L 231.325091 202.437465 
L 232.656 240.228519 
L 232.922182 234.590171 
L 234.519273 182.226512 
L 235.850182 144.533044 
L 237.181091 113.474217 
L 238.245818 94.114752 
L 239.044364 83.11527 
L 239.842909 75.418949 
L 240.375273 72.217299 
L 240.907636 70.592975 
L 241.173818 70.419642 
L 241.44 70.670363 
L 241.706182 71.327248 
L 242.238545 73.990992 
L 242.770909 78.421933 
L 243.569455 87.299546 
L 244.368 92.561671 
L 245.166545 99.707866 
L 245.965091 109.014255 
L 246.763636 120.753576 
L 247.828364 140.422576 
L 248.360727 152.068567 
L 248.626909 152.574996 
L 248.893091 152.625874 
L 249.159273 152.506052 
L 249.691636 151.779521 
L 250.224 150.455918 
L 251.022545 147.543524 
L 252.087273 142.472552 
L 254.749091 128.981712 
L 255.813818 124.930583 
L 256.612364 122.678745 
L 257.410909 121.079245 
L 258.209455 120.048446 
L 258.741818 119.611558 
L 259.540364 119.24572 
L 263.799273 118.309848 
L 264.864 118.418819 
L 265.662545 118.737343 
L 266.194909 119.118893 
L 266.727273 119.688595 
L 267.259636 120.508947 
L 267.792 121.652457 
L 268.324364 123.202817 
L 268.856727 125.256375 
L 269.389091 127.926263 
L 270.187636 133.570378 
L 270.986182 141.694475 
L 271.784727 153.308707 
L 272.583273 169.580032 
L 273.381818 192.239936 
L 273.648 201.5172 
L 273.914182 202.33951 
L 274.978909 162.825298 
L 275.777455 139.501011 
L 276.576 122.456974 
L 277.108364 116.806223 
L 277.640727 113.276779 
L 278.173091 110.757857 
L 278.705455 109.078353 
L 279.237818 108.085897 
L 279.770182 107.646727 
L 280.302545 107.642302 
L 280.834909 107.967954 
L 281.633455 108.874139 
L 284.029091 112.089167 
L 284.561455 112.437167 
L 285.093818 112.483253 
L 285.626182 112.149192 
L 286.158545 111.353717 
L 286.690909 110.001339 
L 287.223273 107.984685 
L 287.755636 105.182352 
L 288.288 101.456541 
L 289.618909 90.879727 
L 289.885091 90.653725 
L 290.151273 90.843614 
L 290.417455 91.445741 
L 290.949818 93.870088 
L 291.482182 97.92169 
L 292.014545 103.558449 
L 292.813091 114.768255 
L 296.007273 169.886187 
L 298.402909 216.039094 
L 299.201455 227.729556 
L 299.733818 233.245264 
L 300.266182 236.371949 
L 300.532364 236.872338 
L 300.798545 236.552919 
L 301.064727 235.358355 
L 301.330909 233.194878 
L 301.863273 225.671925 
L 302.395636 213.34317 
L 302.661818 212.698301 
L 304.258909 229.676872 
L 305.856 245.948837 
L 306.654545 252.063601 
L 307.186909 254.868527 
L 307.719273 256.371964 
L 307.985455 256.560005 
L 308.251636 256.340257 
L 308.517818 255.682463 
L 308.784 254.521874 
L 309.316364 250.671261 
L 310.114909 242.207761 
L 310.913455 239.017224 
L 311.712 234.924759 
L 312.510545 229.711958 
L 313.309091 223.188001 
L 314.107636 215.099667 
L 314.906182 205.183214 
L 315.970909 188.595912 
L 316.503273 195.173854 
L 317.834182 211.818354 
L 318.898909 222.267754 
L 319.697455 228.333325 
L 320.496 232.914855 
L 321.294545 236.115057 
L 321.826909 237.561527 
L 322.359273 238.507635 
L 322.891636 239.057673 
L 323.424 239.298107 
L 324.222545 239.288986 
L 325.287273 239.235799 
L 325.819636 239.492104 
L 326.352 240.13066 
L 326.618182 240.64412 
L 327.416727 241.481818 
L 328.215273 242.661249 
L 329.013818 244.262798 
L 329.812364 246.386405 
L 330.610909 249.13865 
L 331.675636 253.975365 
L 332.740364 260.310376 
L 333.805091 268.347381 
L 334.337455 272.501346 
L 334.869818 274.793454 
L 335.402182 275.957461 
L 335.668364 276.346245 
L 336.200727 276.576983 
L 336.466909 276.514276 
L 336.999273 275.914207 
L 337.531636 274.845657 
L 338.330182 272.383306 
L 339.128727 269.068439 
L 340.193455 263.656572 
L 342.056727 252.615157 
L 343.121455 246.115486 
L 343.387636 242.754929 
L 346.581818 182.347387 
L 347.912727 161.631735 
L 349.243636 144.046841 
L 350.574545 129.206256 
L 351.905455 116.794161 
L 352.970182 108.628403 
L 353.768727 103.730659 
L 354.567273 100.159308 
L 354.833455 99.337393 
L 355.099636 100.024089 
L 356.164364 138.758679 
L 356.962909 162.138655 
L 357.761455 179.780808 
L 358.293818 187.717949 
L 358.826182 192.318887 
L 359.092364 193.317225 
L 359.358545 193.287599 
L 359.624727 192.379017 
L 360.157091 189.192711 
L 360.955636 184.710646 
L 362.020364 177.329548 
L 364.149818 160.4519 
L 366.545455 141.91823 
L 368.142545 131.077896 
L 369.739636 121.767469 
L 371.070545 115.184251 
L 372.401455 109.612977 
L 373.732364 104.947993 
L 375.063273 101.079257 
L 376.394182 97.886279 
L 376.660364 94.016173 
L 377.458909 76.156734 
L 377.991273 68.00848 
L 378.523636 62.953185 
L 378.789818 61.631865 
L 379.056 61.018185 
L 379.322182 64.731811 
L 380.120727 84.181726 
L 380.919273 98.290196 
L 381.717818 108.577701 
L 382.516364 116.083676 
L 383.314909 121.574736 
L 384.113455 125.629305 
L 384.912 128.68494 
L 385.976727 131.803286 
L 387.84 136.768254 
L 388.638545 139.72503 
L 389.170909 142.397376 
L 389.703273 145.927364 
L 390.235636 150.617594 
L 390.768 156.893331 
L 391.300364 165.303437 
L 391.832727 176.484029 
L 392.365091 191.294153 
L 392.897455 210.820772 
L 393.163636 222.727851 
L 393.429818 225.777561 
L 393.696 224.661026 
L 395.026909 196.432332 
L 398.221091 124.958304 
L 399.019636 111.471151 
L 399.818182 101.634299 
L 400.350545 97.447495 
L 400.616727 96.190676 
L 400.882909 95.515708 
L 401.149091 95.406718 
L 401.415273 95.94538 
L 401.681455 97.146124 
L 402.213818 101.548519 
L 402.746182 108.785901 
L 403.278545 118.99614 
L 404.077091 140.079368 
L 404.875636 168.384564 
L 405.674182 203.964501 
L 406.738909 262.717733 
L 407.005091 279.390148 
L 407.271273 286.903967 
L 408.602182 241.177752 
L 409.933091 195.693967 
L 411.530182 170.208248 
L 412.861091 152.696397 
L 413.925818 141.892054 
L 414.724364 135.876975 
L 415.256727 132.916793 
L 415.789091 130.881757 
L 416.321455 129.702801 
L 416.587636 129.428624 
L 416.853818 129.401465 
L 417.12 129.609682 
L 417.652364 130.628051 
L 418.184727 132.500727 
L 418.983273 136.780789 
L 419.781818 142.732139 
L 420.846545 152.92591 
L 422.177455 168.251627 
L 426.436364 219.459004 
L 426.436364 219.459004 
" clip-path="url(#p1b7e6a53a6)" style="fill: none; stroke: #ff0000; stroke-width: 3; stroke-linecap: square"/>
   </g>
   <g id="line2d_3">
    <path d="M 27.163636 110.712491 
L 27.962182 138.396371 
L 28.760727 156.56868 
L 29.293091 164.109873 
L 29.825455 168.58776 
L 30.091636 169.798748 
L 30.357818 170.424612 
L 30.624 170.429966 
L 30.890182 169.962926 
L 31.156364 169.055196 
L 31.688727 166.028915 
L 32.487273 159.38576 
L 35.149091 134.701792 
L 35.681455 132.127077 
L 35.947636 131.408884 
L 36.213818 131.129617 
L 36.48 131.383586 
L 36.746182 132.144089 
L 37.012364 133.447502 
L 37.544727 138.03522 
L 38.077091 145.319741 
L 38.609455 155.784213 
L 39.141818 169.567734 
L 39.674182 185.118803 
L 40.206545 190.784188 
L 43.933091 224.20875 
L 45.264 231.557544 
L 46.861091 241.841836 
L 48.458182 253.63523 
L 50.321455 269.120125 
L 52.450909 288.718138 
L 54.314182 307.05916 
L 54.580364 305.80217 
L 55.911273 259.680936 
L 56.976 228.991808 
L 58.040727 204.616375 
L 58.839273 190.841482 
L 59.637818 181.225962 
L 60.170182 177.22314 
L 60.436364 175.999019 
L 60.968727 175.15135 
L 61.234909 175.048672 
L 61.501091 175.146776 
L 61.767273 175.430301 
L 62.299636 176.523259 
L 62.832 178.272417 
L 63.630545 182.027529 
L 64.429091 187.035729 
L 65.493818 195.543966 
L 66.558545 206.10182 
L 67.623273 217.552972 
L 67.889455 216.857805 
L 68.954182 206.464076 
L 69.752727 200.584049 
L 70.551273 196.216688 
L 71.349818 193.293673 
L 71.882182 192.119255 
L 72.414545 191.561773 
L 72.680727 191.502081 
L 72.946909 191.584192 
L 73.479273 192.159178 
L 74.011636 193.256015 
L 74.810182 195.813868 
L 75.608727 199.255276 
L 77.205818 206.979502 
L 80.932364 213.010022 
L 81.464727 213.490256 
L 81.997091 213.695682 
L 82.529455 213.586394 
L 83.061818 213.083038 
L 83.594182 212.095735 
L 84.126545 210.520875 
L 84.658909 208.261619 
L 85.191273 205.978338 
L 88.385455 195.850587 
L 89.450182 191.588476 
L 90.514909 186.230063 
L 91.313455 181.214252 
L 92.112 175.119792 
L 93.176727 164.937248 
L 93.709091 158.834423 
L 94.507636 144.704288 
L 95.572364 120.856895 
L 96.637091 90.565944 
L 97.435636 63.62789 
L 97.701818 74.335832 
L 98.766545 140.16585 
L 99.565091 178.009986 
L 100.363636 207.392812 
L 101.162182 229.57458 
L 101.960727 245.649564 
L 102.759273 256.779353 
L 103.557818 263.951614 
L 104.090182 267.033259 
L 104.622545 269.058836 
L 105.154909 270.268674 
L 105.687273 270.883719 
L 106.219636 271.127747 
L 107.816727 271.385034 
L 108.349091 271.821689 
L 109.147636 272.715392 
L 109.946182 246.90425 
L 110.744727 227.925738 
L 111.543273 213.673061 
L 112.341818 202.453011 
L 113.140364 193.769088 
L 113.938909 187.139276 
L 114.737455 182.089845 
L 115.802182 176.998077 
L 118.197818 166.760713 
L 118.996364 161.88049 
L 119.794909 155.325344 
L 120.593455 146.471363 
L 121.392 134.637782 
L 122.190545 119.01633 
L 122.989091 98.855368 
L 123.787636 73.283474 
L 124.586182 41.175448 
L 124.852364 28.848607 
L 125.118545 21.927273 
L 125.384727 27.891087 
L 127.514182 101.274272 
L 128.845091 143.390183 
L 130.176 178.953267 
L 131.773091 215.427249 
L 136.564364 316.472727 
L 136.830545 309.108944 
L 137.629091 274.460609 
L 138.427636 249.701654 
L 138.96 238.214419 
L 139.492364 230.408933 
L 140.024727 226.036999 
L 140.290909 225.022325 
L 140.557091 224.745305 
L 140.823273 225.123563 
L 141.089455 226.192486 
L 141.621818 230.044904 
L 142.154182 236.003153 
L 142.952727 247.994069 
L 144.816 278.933092 
L 145.880727 293.306254 
L 146.945455 304.689202 
L 147.744 311.233186 
L 148.010182 313.053225 
L 148.276364 313.810571 
L 148.542545 312.689616 
L 149.873455 300.326901 
L 151.470545 287.454529 
L 153.866182 270.244122 
L 157.858909 241.769679 
L 160.254545 224.137805 
L 162.117818 216.992049 
L 163.448727 212.716024 
L 164.247273 210.703048 
L 165.045818 209.231788 
L 165.578182 208.601579 
L 166.110545 208.289464 
L 166.642909 208.327254 
L 167.175273 208.746269 
L 167.707636 209.383071 
L 168.772364 187.747048 
L 169.837091 171.067294 
L 170.635636 161.616092 
L 171.434182 154.405589 
L 172.232727 149.167322 
L 173.031273 145.451729 
L 173.829818 142.852136 
L 174.894545 140.280229 
L 175.959273 137.641521 
L 177.290182 133.627015 
L 178.621091 131.129248 
L 179.952 128.25755 
L 181.282909 124.816871 
L 182.347636 121.419837 
L 183.146182 118.349068 
L 184.210909 113.218404 
L 185.009455 108.320624 
L 185.808 102.223803 
L 186.606545 94.508627 
L 187.405091 84.651725 
L 188.203636 73.975718 
L 188.469818 73.132437 
L 188.736 73.041039 
L 189.002182 73.174116 
L 189.268364 73.551646 
L 189.800727 75.117842 
L 190.333091 77.888819 
L 190.865455 82.009102 
L 191.397818 87.682852 
L 192.196364 99.293204 
L 192.994909 114.968256 
L 198.052364 230.530282 
L 199.383273 254.046718 
L 200.448 268.860204 
L 201.246545 277.464949 
L 201.512727 279.842957 
L 202.045091 282.304687 
L 202.577455 283.981156 
L 203.109818 284.998367 
L 203.642182 285.436964 
L 203.908364 285.46374 
L 204.440727 285.179703 
L 204.973091 284.50667 
L 205.771636 282.845664 
L 206.570182 280.630508 
L 207.901091 276.155259 
L 211.893818 261.207353 
L 213.224727 254.95102 
L 214.555636 247.528801 
L 215.886545 238.768873 
L 217.217455 228.44335 
L 218.548364 216.310584 
L 219.879273 202.143775 
L 221.210182 185.714733 
L 222.541091 166.85729 
L 224.404364 136.825031 
L 224.670545 140.524033 
L 225.735273 173.779019 
L 226.533818 192.060669 
L 226.8 196.862697 
L 228.663273 207.244128 
L 229.461818 210.287438 
L 229.994182 211.363621 
L 230.260364 211.605256 
L 230.526545 211.627272 
L 230.792727 211.418071 
L 231.058909 210.969552 
L 231.591273 209.317919 
L 232.123636 206.705975 
L 232.922182 201.102319 
L 233.720727 193.74702 
L 235.051636 178.836711 
L 237.447273 151.467932 
L 238.512 142.344338 
L 239.310545 137.570751 
L 239.842909 135.460768 
L 240.375273 134.190255 
L 240.641455 133.882897 
L 240.907636 133.784881 
L 241.173818 133.859793 
L 241.44 134.086024 
L 241.972364 135.047686 
L 242.504727 136.465514 
L 242.770909 136.090073 
L 243.303273 134.310024 
L 243.569455 132.559295 
L 244.368 125.384149 
L 245.166545 119.94518 
L 245.698909 117.317409 
L 246.231273 115.491257 
L 246.763636 114.485248 
L 247.029818 114.266865 
L 247.296 114.266795 
L 247.562182 114.457632 
L 248.094545 115.400386 
L 248.626909 117.116179 
L 249.159273 119.584714 
L 249.957818 124.653808 
L 250.756364 131.365538 
L 251.554909 139.75477 
L 252.619636 153.641399 
L 253.684364 170.855337 
L 254.749091 191.839092 
L 255.813818 217.243788 
L 256.878545 247.968954 
L 257.410909 263.770925 
L 257.677091 266.396624 
L 258.209455 267.176101 
L 258.741818 267.659478 
L 259.274182 267.814294 
L 259.806545 267.632323 
L 260.338909 267.130911 
L 260.871273 266.361086 
L 261.403636 265.274668 
L 262.202182 263.009457 
L 263.000727 259.907934 
L 263.799273 255.937757 
L 264.864 249.232357 
L 265.928727 240.883333 
L 266.993455 230.899702 
L 268.324364 216.217879 
L 269.921455 195.675551 
L 270.72 184.370958 
L 271.518545 197.151674 
L 272.050909 202.80124 
L 272.583273 206.356632 
L 273.115636 208.015428 
L 273.381818 208.281168 
L 273.648 208.215596 
L 273.914182 207.81641 
L 274.446545 206.26361 
L 274.978909 203.922621 
L 276.043636 197.759051 
L 276.576 194.3658 
L 276.842182 193.501179 
L 277.374545 193.304382 
L 277.906909 192.901027 
L 278.705455 191.93401 
L 279.504 190.563435 
L 280.568727 188.189633 
L 281.899636 184.586295 
L 284.295273 177.901874 
L 285.093818 176.201812 
L 285.626182 175.367116 
L 286.158545 174.823425 
L 286.690909 174.67331 
L 286.957091 174.715568 
L 287.489455 175.187893 
L 288.021818 176.09126 
L 288.554182 177.483806 
L 289.352727 180.542303 
L 290.151273 184.744056 
L 291.216 192.063347 
L 292.280727 200.900158 
L 293.345455 210.724897 
L 293.877818 227.521646 
L 294.144 229.383893 
L 294.942545 212.95213 
L 295.741091 200.336971 
L 296.539636 191.150332 
L 297.072 186.744348 
L 297.604364 183.583314 
L 298.136727 181.596505 
L 298.669091 180.634324 
L 298.935273 180.533279 
L 299.201455 180.648949 
L 299.467636 180.9718 
L 300 182.249967 
L 300.532364 184.247696 
L 301.330909 188.460614 
L 302.129455 193.872907 
L 303.194182 202.592338 
L 304.791273 217.819845 
L 307.985455 251.148317 
L 308.251636 249.391737 
L 310.647273 224.213622 
L 311.712 214.000863 
L 313.042909 198.550198 
L 317.035636 149.044709 
L 317.834182 142.328538 
L 318.366545 139.125764 
L 318.898909 137.120784 
L 319.165091 136.610388 
L 319.431273 136.448993 
L 319.697455 136.650487 
L 319.963636 137.227421 
L 320.496 139.54966 
L 321.028364 143.481985 
L 321.560727 149.059614 
L 322.359273 160.498389 
L 323.157818 175.454801 
L 324.222545 200.128103 
L 325.819636 244.024515 
L 326.618182 265.568789 
L 326.884364 262.213244 
L 327.682909 229.761897 
L 328.481455 203.985077 
L 329.28 183.664871 
L 330.078545 167.819304 
L 330.877091 155.553576 
L 331.675636 146.152137 
L 332.474182 139.038193 
L 333.272727 133.762707 
L 334.071273 129.944621 
L 334.869818 127.26246 
L 335.668364 125.518789 
L 336.200727 124.801597 
L 336.733091 124.399541 
L 337.265455 124.28934 
L 337.797818 124.457459 
L 338.330182 124.900421 
L 338.862545 125.624354 
L 339.394909 126.645673 
L 339.927273 127.990888 
L 340.459636 129.696515 
L 341.258182 133.021657 
L 342.056727 137.492784 
L 342.855273 143.398909 
L 343.121455 145.745217 
L 343.387636 149.538181 
L 344.186182 167.185417 
L 345.250909 196.355128 
L 346.581818 240.082565 
L 347.646545 278.359849 
L 348.445091 263.412062 
L 349.243636 251.691043 
L 350.042182 242.587907 
L 350.840727 235.554494 
L 351.639273 230.239138 
L 352.437818 226.233621 
L 353.236364 223.250554 
L 354.034909 221.047619 
L 354.833455 219.465746 
L 355.632 218.307032 
L 356.696727 217.288794 
L 357.495273 216.781251 
L 358.56 216.345846 
L 359.890909 216.065016 
L 360.423273 215.489337 
L 361.221818 215.037473 
L 363.085091 214.391578 
L 363.617455 213.8845 
L 364.149818 213.053333 
L 364.682182 211.797085 
L 365.214545 210.013938 
L 365.746909 207.578794 
L 366.545455 202.490265 
L 367.344 195.390156 
L 368.142545 185.897292 
L 368.674909 177.460992 
L 370.272 139.976787 
L 371.336727 121.996139 
L 372.135273 111.79387 
L 372.933818 103.984838 
L 373.732364 98.192426 
L 374.530909 93.995106 
L 375.329455 91.026269 
L 376.128 88.933895 
L 376.926545 87.0263 
L 377.991273 84.161905 
L 378.523636 82.178327 
L 379.056 79.416707 
L 379.588364 75.579414 
L 380.120727 70.385723 
L 380.653091 63.5646 
L 381.451636 49.747301 
L 381.717818 44.041089 
L 381.984 46.234325 
L 383.048727 73.296466 
L 384.113455 95.628226 
L 385.178182 114.208052 
L 386.509091 133.492182 
L 388.106182 152.750699 
L 389.969455 172.203774 
L 392.365091 194.734218 
L 393.163636 201.703402 
L 393.962182 204.629314 
L 394.760727 208.247724 
L 395.825455 214.219886 
L 396.890182 221.584042 
L 397.954909 230.51471 
L 398.487273 235.606671 
L 398.753455 234.894729 
L 399.019636 231.993695 
L 401.415273 190.794572 
L 404.875636 131.258181 
L 406.472727 107.456943 
L 407.803636 90.976866 
L 408.868364 80.635569 
L 409.666909 74.81547 
L 409.933091 73.969591 
L 411.264 73.463215 
L 412.861091 72.599885 
L 414.724364 71.349159 
L 417.652364 69.309277 
L 418.983273 68.723073 
L 419.781818 68.585607 
L 420.580364 68.68308 
L 421.378909 69.13633 
L 421.911273 69.642882 
L 422.709818 70.813973 
L 423.508364 72.571532 
L 424.306909 75.024513 
L 425.105455 78.364085 
L 425.904 82.734018 
L 426.436364 86.321643 
L 426.436364 86.321643 
" clip-path="url(#p1b7e6a53a6)" style="fill: none; stroke: #0000ff; stroke-width: 3; stroke-linecap: square"/>
   </g>
   <g id="patch_3">
    <path d="M 7.2 331.2 
L 7.2 7.2 
" style="fill: none; stroke: #000000; stroke-width: 0.8; stroke-linejoin: miter; stroke-linecap: square"/>
   </g>
   <g id="patch_4">
    <path d="M 446.4 331.2 
L 446.4 7.2 
" style="fill: none; stroke: #000000; stroke-width: 0.8; stroke-linejoin: miter; stroke-linecap: square"/>
   </g>
   <g id="patch_5">
    <path d="M 7.2 331.2 
L 446.4 331.2 
" style="fill: none; stroke: #000000; stroke-width: 0.8; stroke-linejoin: miter; stroke-linecap: square"/>
   </g>
   <g id="patch_6">
    <path d="M 7.2 7.2 
L 446.4 7.2 
" style="fill: none; stroke: #000000; stroke-width: 0.8; stroke-linejoin: miter; stroke-linecap: square"/>
   </g>
  </g>
 </g>
 <defs>
  <clipPath id="p1b7e6a53a6">
   <rect x="7.2" y="7.2" width="439.2" height="324"/>
  </clipPath>
 </defs>
</svg>
