<?xml version="1.0" encoding="utf-8" standalone="no"?>
<!DOCTYPE svg PUBLIC "-//W3C//DTD SVG 1.1//EN"
  "http://www.w3.org/Graphics/SVG/1.1/DTD/svg11.dtd">
<svg xmlns:xlink="http://www.w3.org/1999/xlink" width="453.6pt" height="338.4pt" viewBox="0 0 453.6 338.4" xmlns="http://www.w3.org/2000/svg" version="1.1">
 <metadata>
  <rdf:RDF xmlns:dc="http://purl.org/dc/elements/1.1/" xmlns:cc="http://creativecommons.org/ns#" xmlns:rdf="http://www.w3.org/1999/02/22-rdf-syntax-ns#">
   <cc:Work>
    <dc:type rdf:resource="http://purl.org/dc/dcmitype/StillImage"/>
    <dc:date>2025-05-15T16:49:56.796959</dc:date>
    <dc:format>image/svg+xml</dc:format>
    <dc:creator>
     <cc:Agent>
      <dc:title>Matplotlib v3.10.1, https://matplotlib.org/</dc:title>
     </cc:Agent>
    </dc:creator>
   </cc:Work>
  </rdf:RDF>
 </metadata>
 <defs>
  <style type="text/css">*{stroke-linejoin: round; stroke-linecap: butt}</style>
 </defs>
 <g id="figure_1">
  <g id="patch_1">
   <path d="M 0 338.4 
L 453.6 338.4 
L 453.6 0 
L 0 0 
z
" style="fill: #ffffff"/>
  </g>
  <g id="axes_1">
   <g id="patch_2">
    <path d="M 7.2 331.2 
L 446.4 331.2 
L 446.4 7.2 
L 7.2 7.2 
z
" style="fill: #ffffff"/>
   </g>
   <g id="matplotlib.axis_1"/>
   <g id="matplotlib.axis_2"/>
   <g id="line2d_1">
    <path d="M 27.163636 71.353785 
L 27.719727 70.215288 
L 28.275817 68.474462 
L 29.109952 64.96434 
L 31.890403 51.909765 
L 32.446493 50.17745 
L 33.002583 49.163167 
L 33.280628 49.009773 
L 33.558673 49.143005 
L 33.836718 49.601362 
L 34.114763 50.424257 
L 34.670853 53.299427 
L 35.226944 57.973477 
L 35.783034 64.482578 
L 36.617169 77.221855 
L 39.119575 119.420727 
L 39.95371 128.790003 
L 40.787845 135.236389 
L 41.900025 141.349847 
L 43.012206 146.443349 
L 43.568296 148.260568 
L 43.846341 148.764518 
L 44.124386 148.885896 
L 44.402431 148.540608 
L 44.680476 147.65135 
L 44.958521 146.156015 
L 45.514611 141.20385 
L 46.070701 133.676008 
L 46.904837 118.782431 
L 48.017017 98.405384 
L 48.573107 91.317865 
L 48.851152 89.144214 
L 49.129197 88.047661 
L 49.407242 88.103183 
L 49.685287 89.344213 
L 49.963332 91.758188 
L 50.519423 99.828886 
L 51.353558 117.95143 
L 52.743783 150.349215 
L 53.299873 159.008665 
L 53.577918 161.752021 
L 53.855964 163.319393 
L 54.134009 163.674508 
L 54.412054 162.823346 
L 54.690099 160.812206 
L 55.246189 153.695204 
L 56.080324 137.528682 
L 57.47055 108.807281 
L 58.02664 101.0764 
L 58.58273 97.064557 
L 58.860775 96.590799 
L 59.13882 97.142166 
L 59.416865 98.678028 
L 59.972955 104.380039 
L 60.80709 117.603407 
L 62.197316 141.047011 
L 62.753406 147.18357 
L 63.031451 149.110515 
L 63.309496 150.213451 
L 63.587541 150.48883 
L 63.865586 149.969074 
L 64.143631 148.720243 
L 64.699721 144.463517 
L 66.367992 129.109252 
L 66.646037 128.044514 
L 66.924082 127.826986 
L 67.202127 128.561736 
L 67.480172 130.31776 
L 68.036262 136.98451 
L 68.592352 147.605352 
L 69.426488 169.000127 
L 70.816713 206.871555 
L 71.372803 218.154098 
L 71.928893 225.453521 
L 72.206938 227.446524 
L 72.484984 228.329653 
L 72.763029 228.149917 
L 73.041074 226.992473 
L 73.597164 222.249882 
L 74.431299 211.57367 
L 75.265434 201.129524 
L 75.821524 196.543011 
L 76.09957 195.314646 
L 76.377615 194.877565 
L 76.65566 195.246865 
L 76.933705 196.401066 
L 77.489795 200.813922 
L 78.32393 211.012577 
L 79.43611 224.962843 
L 79.992201 229.448292 
L 80.270246 230.705077 
L 80.548291 231.24079 
L 80.826336 231.050314 
L 81.104381 230.162778 
L 81.660471 226.579961 
L 82.494606 218.462405 
L 83.328741 210.796569 
L 83.884832 208.095361 
L 84.162877 207.866081 
L 84.440922 208.499818 
L 84.718967 210.042265 
L 85.275057 215.85076 
L 85.831147 224.923127 
L 86.943327 248.796416 
L 87.777463 265.97099 
L 88.333553 274.281403 
L 88.889643 278.802718 
L 89.167688 279.463354 
L 89.445733 279.041674 
L 89.723778 277.580026 
L 90.279868 271.906485 
L 91.114004 258.815183 
L 92.226184 241.399323 
L 92.782274 236.472133 
L 93.060319 235.522592 
L 93.338364 235.70557 
L 93.616409 237.05972 
L 93.894454 239.578052 
L 94.450544 247.854271 
L 95.28468 266.349611 
L 96.674905 299.623127 
L 97.230995 308.69904 
L 97.787085 313.46463 
L 98.06513 314.073088 
L 98.343175 313.506423 
L 98.621221 311.828008 
L 99.177311 305.590842 
L 100.011446 291.579887 
L 101.123626 272.849542 
L 101.679716 266.823419 
L 101.957761 265.070891 
L 102.235807 264.220488 
L 102.513852 264.268613 
L 102.791897 265.172714 
L 103.347987 269.203959 
L 104.182122 278.857378 
L 105.294302 292.081355 
L 105.850393 296.56731 
L 106.406483 298.955551 
L 106.684528 299.36097 
L 106.962573 299.290099 
L 107.240618 298.804943 
L 107.796708 296.897704 
L 110.021069 287.08385 
L 111.133249 283.238673 
L 111.689339 280.652966 
L 112.245429 277.129825 
L 113.079564 269.803198 
L 115.860015 241.447905 
L 116.416105 238.542391 
L 116.972195 236.870916 
L 117.528286 236.019044 
L 118.084376 235.36702 
L 118.640466 234.216111 
L 119.196556 231.94175 
L 119.752646 228.13791 
L 120.308736 222.711431 
L 121.142872 212.192412 
L 122.533097 194.400768 
L 123.089187 189.832188 
L 123.367232 188.493894 
L 123.645277 187.873734 
L 123.923322 188.009802 
L 124.201367 188.915575 
L 124.479413 190.578995 
L 125.035503 196.010085 
L 125.869638 208.198704 
L 127.537908 235.047973 
L 128.093998 240.969031 
L 128.650089 244.139843 
L 128.928134 244.599619 
L 129.206179 244.307674 
L 129.484224 243.294303 
L 130.040314 239.342997 
L 130.874449 230.032282 
L 131.98663 216.550961 
L 132.54272 211.695959 
L 132.820765 210.11724 
L 133.09881 209.198093 
L 133.376855 208.978337 
L 133.6549 209.472054 
L 133.932945 210.666073 
L 134.489035 214.969709 
L 135.32317 224.88493 
L 136.435351 239.113311 
L 136.991441 244.096378 
L 137.269486 245.628086 
L 137.547531 246.405693 
L 137.825576 246.375298 
L 138.103621 245.511724 
L 138.381666 243.818162 
L 138.937756 238.097509 
L 139.771892 224.913198 
L 141.718207 190.525297 
L 142.274297 184.347907 
L 142.830387 180.94204 
L 143.108433 180.308607 
L 143.386478 180.355517 
L 143.664523 181.031503 
L 144.220613 183.968374 
L 145.054748 190.853158 
L 146.166928 200.051411 
L 146.723018 202.933065 
L 147.001064 203.728605 
L 147.279109 204.063356 
L 147.557154 203.940661 
L 147.835199 203.38433 
L 148.391289 201.163161 
L 149.503469 194.46632 
L 150.059559 191.537858 
L 150.61565 189.903009 
L 150.893695 189.754276 
L 151.17174 190.117699 
L 151.449785 191.018609 
L 152.005875 194.431061 
L 152.561965 199.772486 
L 153.674145 213.838304 
L 154.508281 223.960009 
L 155.064371 228.782792 
L 155.342416 230.319516 
L 155.620461 231.174528 
L 155.898506 231.298186 
L 156.176551 230.661257 
L 156.454596 229.256448 
L 157.010686 224.221001 
L 157.566776 216.565449 
L 158.678957 196.403194 
L 159.791137 176.582781 
L 160.347227 169.405496 
L 160.903317 165.103988 
L 161.181362 164.163058 
L 161.459407 164.048469 
L 161.737453 164.73793 
L 162.015498 166.184228 
L 162.571588 171.024033 
L 163.405723 181.369293 
L 164.239858 191.832284 
L 164.795948 196.83835 
L 165.073993 198.371071 
L 165.352038 199.139255 
L 165.630084 199.091434 
L 165.908129 198.208255 
L 166.186174 196.502687 
L 166.742264 190.849511 
L 167.576399 178.366059 
L 168.688579 160.74017 
L 169.24467 154.48355 
L 169.522715 152.464407 
L 169.80076 151.293589 
L 170.078805 151.011321 
L 170.35685 151.62064 
L 170.634895 153.089836 
L 171.190985 158.308667 
L 172.02512 169.972161 
L 173.137301 185.766445 
L 173.693391 190.836542 
L 173.971436 192.238362 
L 174.249481 192.794186 
L 174.527526 192.477166 
L 174.805571 191.292975 
L 175.361661 186.504639 
L 175.917751 179.075379 
L 178.142112 145.147203 
L 178.698202 141.198277 
L 178.976247 140.428371 
L 179.254292 140.49757 
L 179.532337 141.400506 
L 179.810382 143.104655 
L 180.366473 148.668267 
L 181.200608 160.8887 
L 182.590833 182.460374 
L 183.146923 188.167856 
L 183.424968 189.926514 
L 183.703013 190.858224 
L 183.981058 190.92327 
L 184.259104 190.110708 
L 184.537149 188.439994 
L 185.093239 182.747608 
L 185.927374 169.849669 
L 187.317599 146.588131 
L 187.87369 140.279435 
L 188.42978 137.019869 
L 188.707825 136.644085 
L 188.98587 137.096059 
L 189.263915 138.328376 
L 189.820005 142.802123 
L 190.65414 152.745865 
L 191.766321 166.370347 
L 192.322411 171.41005 
L 192.878501 174.836079 
L 193.434591 176.922294 
L 194.546771 179.97416 
L 195.102861 182.709614 
L 195.658952 187.209298 
L 196.215042 193.748186 
L 197.049177 206.842071 
L 198.717447 234.736778 
L 199.273538 240.91437 
L 199.829628 244.36046 
L 200.107673 244.995514 
L 200.385718 244.923833 
L 200.663763 244.189286 
L 201.219853 241.015535 
L 202.053988 233.428119 
L 203.444214 220.242238 
L 204.000304 216.758357 
L 204.556394 214.827764 
L 204.834439 214.45816 
L 205.112484 214.465962 
L 205.390529 214.823711 
L 205.946619 216.440424 
L 206.50271 218.959972 
L 209.561205 234.797923 
L 210.395341 237.388139 
L 211.229476 239.104041 
L 211.785566 239.841982 
L 212.619701 240.496337 
L 214.566017 241.490053 
L 215.122107 242.139696 
L 215.678197 243.110464 
L 216.512332 245.144653 
L 217.902558 248.814096 
L 218.458648 249.615563 
L 218.736693 249.73152 
L 219.014738 249.621287 
L 219.292783 249.26683 
L 219.848873 247.802599 
L 220.404963 245.402808 
L 221.517144 238.88469 
L 222.351279 234.129789 
L 222.907369 231.817536 
L 223.463459 230.524783 
L 223.741504 230.295757 
L 224.019549 230.340184 
L 224.297594 230.641298 
L 224.853684 231.902135 
L 225.68782 234.867274 
L 227.078045 240.123339 
L 227.91218 242.487821 
L 229.024361 244.813347 
L 231.248721 248.812272 
L 231.804811 249.29454 
L 232.082856 249.305837 
L 232.360901 249.115057 
L 232.638947 248.687044 
L 233.195037 246.994952 
L 233.751127 244.027128 
L 234.307217 239.678862 
L 235.141352 230.645502 
L 236.253533 215.027156 
L 238.199848 186.525206 
L 239.033983 177.371736 
L 239.590073 172.876105 
L 240.146164 169.632952 
L 240.702254 167.42617 
L 241.536389 165.266601 
L 242.370524 163.197103 
L 242.926614 161.230949 
L 243.482704 158.540176 
L 244.31684 153.198448 
L 245.98511 141.771629 
L 246.5412 139.403247 
L 246.819245 138.695042 
L 247.09729 138.325843 
L 247.375336 138.289673 
L 247.653381 138.563127 
L 248.209471 139.855019 
L 249.321651 143.262406 
L 249.599696 143.719952 
L 249.877741 143.814988 
L 250.155786 143.454502 
L 250.433831 142.557747 
L 250.711876 141.062006 
L 251.267967 136.12433 
L 251.824057 128.58666 
L 252.658192 113.257826 
L 254.604507 74.540808 
L 255.160598 67.282672 
L 255.716688 62.914295 
L 255.994733 61.828989 
L 256.272778 61.425545 
L 256.550823 61.631218 
L 256.828868 62.349858 
L 257.384958 64.841746 
L 258.219093 69.12907 
L 258.775184 70.745378 
L 259.053229 70.834739 
L 259.331274 70.339199 
L 259.609319 69.214278 
L 260.165409 65.042252 
L 260.721499 58.551895 
L 261.833679 41.615365 
L 262.667815 29.761801 
L 263.223905 24.366577 
L 263.50195 22.744393 
L 263.779995 21.927273 
L 264.05804 21.945206 
L 264.336085 22.797483 
L 264.61413 24.451582 
L 265.17022 29.886826 
L 266.004356 41.648496 
L 267.116536 57.780266 
L 267.672626 63.376502 
L 267.950671 65.174775 
L 268.228716 66.23384 
L 268.506761 66.540323 
L 268.784806 66.114894 
L 269.062851 65.011148 
L 269.618942 61.139426 
L 271.287212 46.576649 
L 271.565257 45.399651 
L 271.843302 44.942813 
L 272.121347 45.289418 
L 272.399392 46.487693 
L 272.677437 48.551213 
L 273.233527 55.139341 
L 274.067663 69.764428 
L 275.457888 96.226464 
L 276.013978 103.478015 
L 276.570068 107.295026 
L 276.848113 107.792795 
L 277.126159 107.362401 
L 277.404204 106.060986 
L 277.960294 101.241141 
L 278.794429 90.640461 
L 279.628564 80.097429 
L 280.184654 75.203623 
L 280.462699 73.728754 
L 280.740744 72.979414 
L 281.01879 72.969283 
L 281.296835 73.681439 
L 281.57488 75.067757 
L 282.13097 79.545354 
L 283.24315 92.217559 
L 284.077285 101.340229 
L 284.633376 105.980136 
L 285.189466 109.185902 
L 285.745556 111.08073 
L 286.301646 112.032297 
L 287.691871 113.464209 
L 288.247962 114.724691 
L 288.804052 116.681626 
L 289.638187 120.824979 
L 291.306457 131.186856 
L 294.086908 148.940506 
L 295.199088 158.436123 
L 296.311269 170.113599 
L 299.091719 200.516455 
L 300.2039 209.97489 
L 301.31608 217.41185 
L 302.150215 221.680684 
L 302.98435 224.843644 
L 303.818486 227.089129 
L 305.208711 230.365513 
L 305.764801 232.229287 
L 306.320891 234.736272 
L 307.155027 239.824353 
L 309.379387 255.236875 
L 309.935477 257.035299 
L 310.213522 257.313819 
L 310.491567 257.134337 
L 310.769613 256.479931 
L 311.325703 253.75086 
L 311.881793 249.280001 
L 312.715928 240.175264 
L 314.384199 220.939804 
L 314.940289 216.633534 
L 315.496379 214.253298 
L 315.774424 213.877209 
L 316.052469 214.064443 
L 316.330514 214.814188 
L 316.886604 217.918131 
L 317.442694 222.883416 
L 318.554875 236.203441 
L 319.667055 249.360042 
L 320.223145 254.160231 
L 320.779235 257.123293 
L 321.05728 257.842643 
L 321.335325 258.047201 
L 321.61337 257.752217 
L 321.891416 256.988238 
L 322.447506 254.247161 
L 323.281641 248.116175 
L 324.393821 239.529876 
L 324.949911 236.422741 
L 325.506002 234.693212 
L 325.784047 234.417427 
L 326.062092 234.546252 
L 326.340137 235.072745 
L 326.896227 237.231402 
L 327.452317 240.614422 
L 328.842542 251.537442 
L 329.676678 257.323748 
L 330.232768 259.992991 
L 330.788858 261.422167 
L 331.066903 261.63863 
L 331.344948 261.522521 
L 331.622993 261.083363 
L 332.179083 259.305962 
L 332.735173 256.494673 
L 333.569309 250.858214 
L 335.237579 237.2736 
L 336.627805 226.534065 
L 337.46194 221.542538 
L 338.01803 219.191278 
L 338.57412 217.78804 
L 338.852165 217.463421 
L 339.13021 217.38875 
L 339.408255 217.554201 
L 339.6863 217.940522 
L 340.24239 219.261085 
L 341.910661 224.373787 
L 342.188706 224.845417 
L 342.466751 225.078496 
L 342.744796 225.038375 
L 343.022841 224.70028 
L 343.300886 224.05013 
L 343.856976 221.81888 
L 344.413067 218.483377 
L 346.637427 203.105709 
L 346.915472 202.24411 
L 347.193517 201.886664 
L 347.471562 202.096492 
L 347.749607 202.925669 
L 348.027653 204.409454 
L 348.583743 209.392926 
L 349.139833 216.953696 
L 349.973968 232.093877 
L 351.642239 264.361419 
L 352.198329 271.409627 
L 352.476374 273.638598 
L 352.754419 274.887936 
L 353.032464 275.105818 
L 353.310509 274.274007 
L 353.588554 272.407852 
L 354.144644 265.808123 
L 354.978779 250.46556 
L 356.369005 222.073388 
L 356.925095 214.167482 
L 357.481185 209.963947 
L 357.75923 209.416127 
L 358.037275 209.915011 
L 358.31532 211.416021 
L 358.87141 217.062915 
L 359.705546 229.934917 
L 360.817726 247.347332 
L 361.373816 252.803548 
L 361.651861 254.235814 
L 361.929906 254.707393 
L 362.207951 254.194932 
L 362.485996 252.715656 
L 363.042087 247.118153 
L 363.876222 234.011856 
L 364.988402 215.262515 
L 365.544492 208.723019 
L 365.822537 206.682903 
L 366.100582 205.582399 
L 366.378628 205.465479 
L 366.656673 206.33569 
L 366.934718 208.15686 
L 367.490808 214.31814 
L 368.324943 227.817344 
L 369.437123 246.447081 
L 369.993213 253.013426 
L 370.549304 256.568989 
L 370.827349 257.124762 
L 371.105394 256.886921 
L 371.383439 255.914279 
L 371.939529 252.147116 
L 373.885845 234.489109 
L 374.16389 233.251321 
L 374.441935 232.625842 
L 374.71998 232.646206 
L 374.998025 233.314796 
L 375.27607 234.605117 
L 375.83216 238.807486 
L 376.94434 250.815053 
L 377.778476 259.008344 
L 378.334566 262.34719 
L 378.612611 263.147188 
L 378.890656 263.317653 
L 379.168701 262.852204 
L 379.446746 261.769481 
L 380.002836 257.945682 
L 380.836971 249.301278 
L 381.949152 237.014736 
L 382.505242 232.573359 
L 383.061332 230.15599 
L 383.339377 229.813489 
L 383.617422 230.062069 
L 383.895467 230.884965 
L 384.451557 234.083639 
L 385.285693 241.683821 
L 386.675918 255.477958 
L 387.232008 259.202669 
L 387.510053 260.401653 
L 387.788098 261.107224 
L 388.066143 261.299624 
L 388.344188 260.974853 
L 388.622233 260.143447 
L 389.178324 257.072331 
L 389.734414 252.421381 
L 390.846594 240.334281 
L 392.236819 225.542426 
L 392.79291 221.193198 
L 393.349 218.156428 
L 393.90509 216.5078 
L 394.183135 216.186727 
L 394.46118 216.174873 
L 394.739225 216.44316 
L 395.295315 217.673349 
L 396.12945 220.618934 
L 397.519676 225.679964 
L 398.075766 227.048501 
L 398.631856 227.885378 
L 399.187946 228.205742 
L 399.744036 228.079653 
L 400.300127 227.608885 
L 401.134262 226.511218 
L 402.246442 225.045518 
L 402.802532 224.702712 
L 403.080577 224.716998 
L 403.358622 224.888477 
L 403.636668 225.239489 
L 404.192758 226.547439 
L 404.748848 228.696724 
L 405.582983 233.193317 
L 406.695163 239.419592 
L 407.251253 241.262647 
L 407.529299 241.582352 
L 407.807344 241.413305 
L 408.085389 240.710875 
L 408.363434 239.450342 
L 408.919524 235.279279 
L 409.753659 225.650075 
L 411.143885 207.864358 
L 411.699975 203.381898 
L 411.97802 202.205711 
L 412.256065 201.85171 
L 412.53411 202.370452 
L 412.812155 203.782607 
L 413.368245 209.219066 
L 413.924335 217.736875 
L 414.75847 234.436424 
L 416.148696 263.436751 
L 416.982831 275.917467 
L 417.538921 280.926167 
L 417.816966 282.397794 
L 418.095011 283.221095 
L 418.373056 283.454934 
L 418.651102 283.178288 
L 418.929147 282.488017 
L 419.485237 280.315378 
L 420.319372 276.911335 
L 420.597417 276.213616 
L 420.875462 275.904651 
L 421.153507 276.062604 
L 421.431552 276.742845 
L 421.709597 277.97582 
L 422.265688 282.088018 
L 422.821778 288.107252 
L 424.768093 312.250196 
L 425.324183 315.791219 
L 425.602228 316.472727 
L 425.880273 316.360164 
L 426.158319 315.436256 
L 426.436364 313.71235 
L 426.436364 313.71235 
" clip-path="url(#p2a9453e682)" style="fill: none; stroke-dasharray: 11.1,4.8; stroke-dashoffset: 0; stroke: #000000; stroke-width: 3"/>
   </g>
   <g id="line2d_2">
    <path d="M 27.163636 181.681451 
L 27.997772 180.722993 
L 28.831907 180.072032 
L 29.666042 179.715498 
L 30.500177 179.636066 
L 31.334312 179.812155 
L 32.168448 180.215092 
L 33.280628 181.040621 
L 34.670853 182.421266 
L 35.504989 183.369085 
L 35.783034 183.316704 
L 36.339124 182.614781 
L 36.617169 183.004953 
L 40.231755 196.308361 
L 41.343935 201.904091 
L 41.62198 202.333269 
L 42.734161 199.618991 
L 43.846341 197.335917 
L 44.680476 196.170976 
L 45.236566 195.715354 
L 45.792656 195.538961 
L 46.348747 195.668444 
L 46.904837 196.117987 
L 47.460927 196.89762 
L 48.017017 198.021224 
L 48.851152 200.363568 
L 49.685287 203.503884 
L 50.519423 207.447642 
L 51.631603 213.954413 
L 52.743783 221.88124 
L 53.855964 230.317439 
L 54.690099 235.077405 
L 55.246189 238.930992 
L 55.524234 237.07431 
L 56.358369 227.651235 
L 56.636414 225.051191 
L 57.47055 221.375669 
L 58.304685 218.884592 
L 59.13882 217.186015 
L 59.972955 215.996353 
L 61.085135 214.841645 
L 64.143631 211.927468 
L 65.533857 210.205386 
L 67.202127 207.798199 
L 69.982578 203.748463 
L 70.260623 203.40895 
L 70.538668 202.243198 
L 71.372803 195.524979 
L 71.928893 189.635532 
L 74.153254 173.150876 
L 74.709344 169.510865 
L 76.65566 180.235862 
L 77.21175 181.949535 
L 77.76784 183.177596 
L 78.32393 184.021566 
L 78.88002 184.559964 
L 79.43611 184.865434 
L 80.270246 185.038584 
L 82.216561 185.220245 
L 82.772651 185.522575 
L 83.328741 186.082249 
L 83.884832 186.998761 
L 84.440922 188.380926 
L 84.997012 190.372815 
L 85.553102 193.144743 
L 86.109192 196.885563 
L 86.665282 201.847961 
L 87.221372 208.308531 
L 88.333553 225.459448 
L 88.611598 225.67353 
L 89.445733 216.838802 
L 90.001823 213.236684 
L 90.557913 210.882689 
L 91.114004 209.195662 
L 91.670094 208.010255 
L 92.226184 207.194553 
L 93.060319 206.407118 
L 96.118815 204.262139 
L 96.95295 203.254341 
L 97.787085 201.956674 
L 98.899266 199.778463 
L 100.289491 196.79762 
L 100.567536 197.215654 
L 101.957761 200.976535 
L 102.513852 202.385447 
L 102.791897 202.050696 
L 103.626032 200.240468 
L 104.460167 198.924768 
L 105.016257 198.269856 
L 105.294302 198.409369 
L 105.850393 200.001664 
L 106.406483 202.393857 
L 106.962573 205.613605 
L 107.796708 212.072047 
L 108.074753 214.669406 
L 108.352798 215.882169 
L 113.35761 200.835806 
L 114.747835 195.400056 
L 116.13806 188.81213 
L 117.528286 180.879325 
L 118.362421 175.446412 
L 118.640466 175.269209 
L 119.196556 175.9533 
L 119.474601 176.078021 
L 119.752646 176.054414 
L 120.308736 175.636887 
L 120.864827 174.777214 
L 121.698962 172.766682 
L 122.533097 170.100529 
L 122.811142 167.298308 
L 123.089187 168.066999 
L 123.923322 172.68036 
L 124.757458 175.773361 
L 125.591593 177.775483 
L 126.425728 178.997162 
L 127.259863 179.668285 
L 128.093998 179.957747 
L 128.928134 179.982671 
L 130.318359 179.886015 
L 131.430539 179.978213 
L 132.264675 180.221779 
L 133.09881 180.678211 
L 133.932945 181.415595 
L 134.76708 182.502218 
L 135.601215 184.010826 
L 136.435351 186.033212 
L 137.269486 188.679608 
L 138.103621 192.023165 
L 138.381666 191.944138 
L 141.162117 179.009421 
L 141.718207 177.483286 
L 142.274297 176.377615 
L 142.830387 175.611862 
L 143.386478 175.114599 
L 143.942568 174.831925 
L 144.776703 174.713283 
L 145.610838 174.865967 
L 146.166928 175.076301 
L 146.723018 175.617536 
L 150.61565 181.181958 
L 151.72783 189.233102 
L 153.118055 197.417781 
L 155.064371 207.55676 
L 155.342416 208.653414 
L 156.454596 201.459816 
L 157.288731 197.317173 
L 158.400912 197.531864 
L 159.235047 197.943919 
L 159.791137 198.423756 
L 160.347227 199.12193 
L 161.181362 200.62375 
L 162.015498 202.761637 
L 162.849633 205.60479 
L 163.683768 209.205388 
L 165.073993 215.750761 
L 165.352038 215.097976 
L 166.464219 210.585729 
L 167.576399 206.874594 
L 168.688579 203.89983 
L 169.80076 201.602167 
L 170.634895 200.30217 
L 171.46903 199.38272 
L 172.303165 198.823755 
L 172.859256 198.673401 
L 173.415346 198.695792 
L 173.971436 198.903288 
L 176.473841 200.398928 
L 178.420157 201.167315 
L 183.703013 203.741675 
L 184.815194 203.917358 
L 185.649329 203.840256 
L 186.761509 203.612192 
L 187.595644 203.532759 
L 188.42978 203.172375 
L 189.263915 202.560624 
L 189.820005 202.027495 
L 190.65414 202.588081 
L 191.488276 202.805608 
L 192.044366 202.783015 
L 192.878501 205.549167 
L 193.712636 208.937304 
L 194.546771 213.075996 
L 194.824816 213.15938 
L 198.161357 198.953238 
L 198.995493 196.567125 
L 199.551583 195.546155 
L 200.107673 195.094383 
L 200.385718 195.120827 
L 200.663763 195.315558 
L 200.941808 195.704614 
L 201.219853 195.459934 
L 202.610079 191.11182 
L 203.444214 189.071198 
L 204.278349 187.551749 
L 204.834439 186.855702 
L 205.390529 186.422066 
L 205.946619 186.249625 
L 206.50271 186.334933 
L 207.0588 186.645875 
L 207.61489 187.162692 
L 208.449025 188.275151 
L 209.28316 189.745259 
L 209.561205 190.704425 
L 210.395341 195.575739 
L 210.673386 197.523657 
L 210.951431 198.446451 
L 211.507521 195.136835 
L 212.341656 190.768153 
L 213.731881 185.099172 
L 214.566017 182.937374 
L 215.122107 182.013365 
L 215.678197 181.439506 
L 216.234287 181.176183 
L 216.790377 181.178919 
L 217.346467 181.384896 
L 218.180603 181.959869 
L 220.126918 183.462803 
L 220.683008 183.652165 
L 221.239099 183.616906 
L 221.795189 183.310929 
L 222.351279 182.645784 
L 222.907369 181.586922 
L 223.463459 180.086014 
L 224.019549 178.053497 
L 224.853684 173.973569 
L 225.68782 168.369734 
L 227.634135 186.375359 
L 228.190225 189.595208 
L 228.746316 191.492366 
L 229.302406 192.466933 
L 229.858496 192.899759 
L 230.970676 193.410902 
L 231.526766 194.055277 
L 232.082856 195.287797 
L 232.638947 197.303293 
L 233.195037 200.293761 
L 235.141352 213.915102 
L 235.975487 221.026329 
L 236.809623 224.99643 
L 237.365713 226.848755 
L 237.921803 228.089076 
L 238.477893 228.72104 
L 238.755938 228.830766 
L 239.033983 228.789428 
L 239.590073 228.31714 
L 240.146164 227.350527 
L 240.702254 225.917045 
L 241.536389 223.012088 
L 242.648569 218.011139 
L 244.594885 208.424033 
L 245.42902 205.042279 
L 246.5412 199.377654 
L 247.653381 192.510195 
L 249.043606 183.836257 
L 250.711876 172.845912 
L 251.546012 167.046941 
L 252.102102 166.868015 
L 252.658192 167.141672 
L 253.214282 167.830019 
L 253.770372 168.888881 
L 254.604507 171.001945 
L 255.994733 175.322805 
L 257.941048 182.285299 
L 259.887364 188.967145 
L 260.999544 192.136741 
L 261.277589 191.370887 
L 262.94586 184.248921 
L 263.779995 181.952068 
L 264.892175 179.626238 
L 266.282401 176.663936 
L 267.116536 174.222504 
L 267.950671 170.870132 
L 268.506761 167.986249 
L 268.784806 168.468011 
L 269.618942 175.681467 
L 270.453077 181.198068 
L 271.565257 186.559857 
L 272.121347 188.485383 
L 272.677437 189.813647 
L 273.233527 190.636644 
L 273.789618 191.040898 
L 274.345708 191.105336 
L 274.901798 190.902196 
L 275.735933 190.230364 
L 276.848113 188.894906 
L 277.682249 187.821758 
L 277.960294 187.683866 
L 279.072474 187.774443 
L 279.906609 188.504836 
L 280.462699 188.745666 
L 281.296835 188.809395 
L 282.13097 188.564715 
L 282.965105 188.074138 
L 284.077285 187.152763 
L 285.745556 185.444662 
L 287.135781 184.073643 
L 287.413826 184.312548 
L 289.916232 189.360558 
L 291.306457 192.665514 
L 292.696683 196.75679 
L 292.974728 197.700252 
L 293.252773 197.715652 
L 296.589314 193.871387 
L 297.423449 193.251632 
L 298.257584 192.931369 
L 298.813674 192.927317 
L 299.369764 193.104621 
L 299.925855 193.477873 
L 301.31608 194.722854 
L 302.150215 194.307151 
L 303.262396 193.801377 
L 304.096531 193.691955 
L 304.652621 193.827618 
L 305.208711 194.183139 
L 305.764801 194.805123 
L 306.320891 195.739974 
L 306.876982 197.035006 
L 307.711117 199.762455 
L 308.545252 203.575819 
L 309.379387 208.649767 
L 309.657432 210.495253 
L 309.935477 210.585729 
L 311.047658 209.046625 
L 311.881793 208.200224 
L 312.715928 207.600935 
L 313.550063 207.241564 
L 314.940289 207.052709 
L 318.554875 206.71269 
L 319.9451 207.642981 
L 320.223145 207.608432 
L 321.61337 205.202967 
L 322.447506 204.08909 
L 323.281641 203.322628 
L 323.559686 203.0743 
L 323.837731 202.549378 
L 324.949911 199.690216 
L 326.062092 197.449797 
L 326.896227 196.289719 
L 327.452317 195.806235 
L 328.008407 195.587999 
L 328.564497 195.655476 
L 329.120587 196.040074 
L 329.398633 196.355778 
L 329.676678 196.074623 
L 331.066903 192.419719 
L 332.179083 188.463904 
L 333.013219 186.218115 
L 333.847354 184.620551 
L 334.403444 183.910928 
L 334.959534 183.471821 
L 335.515624 183.282561 
L 336.071714 183.3471 
L 336.627805 183.630179 
L 337.183895 184.12886 
L 338.01803 185.237064 
L 338.852165 186.746482 
L 339.964345 189.372514 
L 341.076526 192.668857 
L 342.188706 196.69063 
L 343.300886 201.549279 
L 344.135022 205.999419 
L 344.969157 211.182283 
L 345.247202 212.182685 
L 346.637427 214.638504 
L 348.583743 218.474664 
L 349.417878 221.328152 
L 350.252013 223.556717 
L 351.364193 225.82971 
L 352.476374 227.530567 
L 353.588554 228.804271 
L 354.700734 229.694188 
L 355.53487 230.106902 
L 356.369005 230.285625 
L 357.20314 230.211258 
L 358.037275 229.854826 
L 358.87141 229.213794 
L 359.705546 228.442824 
L 359.983591 228.784312 
L 361.095771 230.957609 
L 362.207951 232.715608 
L 363.320132 234.097266 
L 364.432312 235.133282 
L 365.544492 235.838802 
L 365.822537 235.963371 
L 368.881033 240.595121 
L 370.271259 243.152561 
L 371.661484 242.513201 
L 373.051709 242.019484 
L 373.607799 241.600589 
L 373.885845 240.62278 
L 376.94434 224.276827 
L 378.890656 214.840834 
L 380.836971 206.450178 
L 382.783287 197.965702 
L 383.339377 195.483237 
L 384.173512 193.16916 
L 385.007648 190.13158 
L 385.841783 186.366646 
L 386.953963 180.216004 
L 388.066143 173.311868 
L 388.344188 172.770532 
L 388.900279 172.665669 
L 389.456369 172.351385 
L 390.290504 171.608023 
L 392.236819 169.504584 
L 392.514865 169.434776 
L 393.070955 169.93437 
L 393.627045 170.751186 
L 394.46118 172.252803 
L 395.295315 172.35179 
L 395.851405 172.626966 
L 396.685541 173.313489 
L 397.797721 174.544996 
L 399.187946 176.369104 
L 400.300127 178.178218 
L 400.856217 179.06626 
L 401.690352 180.346601 
L 402.802532 182.498976 
L 404.748848 186.423079 
L 405.582983 187.513958 
L 405.861028 187.764919 
L 406.139073 187.617402 
L 406.973208 184.023389 
L 407.251253 182.585703 
L 407.807344 183.442236 
L 408.641479 185.315585 
L 409.753659 188.414056 
L 413.0902 198.276036 
L 413.924335 199.943306 
L 414.480425 200.680791 
L 415.036516 201.053232 
L 415.592606 201.016353 
L 416.148696 200.497408 
L 416.704786 199.471372 
L 417.260876 197.867222 
L 418.095011 194.429238 
L 418.651102 191.530563 
L 419.763282 184.142032 
L 420.875462 175.25776 
L 421.987642 166.125667 
L 422.265688 167.215836 
L 424.490048 190.411315 
L 425.602228 203.336306 
L 425.880273 203.976122 
L 426.436364 204.079262 
L 426.436364 204.079262 
" clip-path="url(#p2a9453e682)" style="fill: none; stroke: #ff00ff; stroke-width: 3; stroke-linecap: square"/>
   </g>
   <g id="patch_3">
    <path d="M 7.2 331.2 
L 7.2 7.2 
" style="fill: none; stroke: #000000; stroke-width: 0.8; stroke-linejoin: miter; stroke-linecap: square"/>
   </g>
   <g id="patch_4">
    <path d="M 446.4 331.2 
L 446.4 7.2 
" style="fill: none; stroke: #000000; stroke-width: 0.8; stroke-linejoin: miter; stroke-linecap: square"/>
   </g>
   <g id="patch_5">
    <path d="M 7.2 331.2 
L 446.4 331.2 
" style="fill: none; stroke: #000000; stroke-width: 0.8; stroke-linejoin: miter; stroke-linecap: square"/>
   </g>
   <g id="patch_6">
    <path d="M 7.2 7.2 
L 446.4 7.2 
" style="fill: none; stroke: #000000; stroke-width: 0.8; stroke-linejoin: miter; stroke-linecap: square"/>
   </g>
  </g>
 </g>
 <defs>
  <clipPath id="p2a9453e682">
   <rect x="7.2" y="7.2" width="439.2" height="324"/>
  </clipPath>
 </defs>
</svg>
