<?xml version="1.0" encoding="utf-8" standalone="no"?>
<!DOCTYPE svg PUBLIC "-//W3C//DTD SVG 1.1//EN"
  "http://www.w3.org/Graphics/SVG/1.1/DTD/svg11.dtd">
<svg xmlns:xlink="http://www.w3.org/1999/xlink" width="453.6pt" height="338.4pt" viewBox="0 0 453.6 338.4" xmlns="http://www.w3.org/2000/svg" version="1.1">
 <metadata>
  <rdf:RDF xmlns:dc="http://purl.org/dc/elements/1.1/" xmlns:cc="http://creativecommons.org/ns#" xmlns:rdf="http://www.w3.org/1999/02/22-rdf-syntax-ns#">
   <cc:Work>
    <dc:type rdf:resource="http://purl.org/dc/dcmitype/StillImage"/>
    <dc:date>2025-05-15T17:52:54.451418</dc:date>
    <dc:format>image/svg+xml</dc:format>
    <dc:creator>
     <cc:Agent>
      <dc:title>Matplotlib v3.10.1, https://matplotlib.org/</dc:title>
     </cc:Agent>
    </dc:creator>
   </cc:Work>
  </rdf:RDF>
 </metadata>
 <defs>
  <style type="text/css">*{stroke-linejoin: round; stroke-linecap: butt}</style>
 </defs>
 <g id="figure_1">
  <g id="patch_1">
   <path d="M 0 338.4 
L 453.6 338.4 
L 453.6 0 
L 0 0 
z
" style="fill: #ffffff"/>
  </g>
  <g id="axes_1">
   <g id="patch_2">
    <path d="M 7.2 331.2 
L 446.4 331.2 
L 446.4 7.2 
L 7.2 7.2 
z
" style="fill: #ffffff"/>
   </g>
   <g id="matplotlib.axis_1"/>
   <g id="matplotlib.axis_2"/>
   <g id="line2d_1">
    <path d="M 27.163636 257.257946 
L 27.997772 256.044408 
L 28.553862 255.610981 
L 29.109952 255.469494 
L 29.944087 255.628303 
L 31.334312 256.021896 
L 33.280628 256.2497 
L 33.836718 256.677078 
L 34.392808 257.477453 
L 34.948898 258.716114 
L 35.783034 261.400175 
L 36.895214 266.14283 
L 38.84153 274.908738 
L 39.675665 277.886255 
L 40.5098 280.100799 
L 41.06589 281.131245 
L 41.62198 281.821619 
L 42.17807 282.205245 
L 42.734161 282.319628 
L 43.290251 282.205284 
L 43.846341 281.901619 
L 44.680476 281.147701 
L 45.514611 280.077064 
L 46.626792 278.218565 
L 48.573107 274.738823 
L 49.129197 274.148707 
L 49.685287 273.968997 
L 49.963332 274.068803 
L 50.241378 274.309478 
L 50.797468 275.237902 
L 51.353558 276.767766 
L 52.187693 280.072994 
L 53.299873 285.713728 
L 54.968144 294.109005 
L 55.802279 297.236775 
L 56.358369 298.752017 
L 56.914459 299.79932 
L 57.47055 300.407003 
L 58.02664 300.631569 
L 58.58273 300.548283 
L 59.416865 300.037636 
L 61.641226 298.285878 
L 62.475361 297.930533 
L 63.587541 297.734609 
L 64.977767 297.748808 
L 65.811902 297.918669 
L 66.646037 298.343209 
L 67.202127 298.834643 
L 68.036262 299.936028 
L 69.148443 301.938889 
L 70.260623 303.911006 
L 70.816713 304.564137 
L 71.372803 304.822548 
L 71.650848 304.772709 
L 71.928893 304.592677 
L 72.484984 303.829201 
L 73.041074 302.541146 
L 73.875209 299.77478 
L 75.265434 293.8892 
L 80.270246 271.233142 
L 82.494606 258.931602 
L 84.440922 247.20732 
L 88.055508 224.068311 
L 88.889643 220.29596 
L 90.835958 212.503169 
L 91.392049 209.186528 
L 91.948139 204.747353 
L 92.504229 198.939519 
L 93.338364 187.485455 
L 94.450544 167.873244 
L 96.95295 120.945254 
L 97.787085 109.42022 
L 98.343175 103.677344 
L 98.899266 99.618783 
L 99.455356 97.282877 
L 99.733401 96.755726 
L 100.011446 96.644966 
L 100.289491 96.937378 
L 100.567536 97.615181 
L 101.123626 100.030488 
L 101.679716 103.644788 
L 102.791897 113.081163 
L 103.904077 122.605753 
L 104.460167 126.306205 
L 105.016257 128.810976 
L 105.294302 129.535497 
L 105.572347 129.882511 
L 105.850393 129.844072 
L 106.128438 129.421171 
L 106.406483 128.623222 
L 106.962573 125.979429 
L 107.518663 122.13793 
L 108.630843 112.175474 
L 110.299114 97.025797 
L 111.133249 91.568251 
L 111.689339 89.127953 
L 112.245429 87.728611 
L 112.523474 87.42471 
L 112.801519 87.382424 
L 113.079564 87.597218 
L 113.35761 88.06313 
L 113.9137 89.717388 
L 114.46979 92.269641 
L 115.303925 97.579441 
L 116.416105 106.876908 
L 117.806331 120.817555 
L 121.420917 158.204487 
L 122.533097 167.014044 
L 123.367232 171.966742 
L 123.923322 174.36004 
L 124.479413 175.986531 
L 125.035503 176.845056 
L 125.313548 176.995975 
L 125.591593 176.971418 
L 125.869638 176.782493 
L 126.425728 175.972814 
L 127.259863 173.990494 
L 128.372044 171.078629 
L 128.928134 170.091908 
L 129.206179 169.826435 
L 129.484224 169.74846 
L 129.762269 169.879598 
L 130.040314 170.236598 
L 130.596404 171.665452 
L 131.152494 174.048217 
L 131.98663 179.212359 
L 133.09881 188.123837 
L 135.045125 204.405765 
L 135.879261 209.817217 
L 136.435351 212.38799 
L 136.991441 213.892208 
L 137.269486 214.1903 
L 137.547531 214.165947 
L 137.825576 213.812883 
L 138.103621 213.132813 
L 138.659711 210.844594 
L 139.493847 205.55744 
L 141.162117 193.495626 
L 141.718207 190.620736 
L 142.274297 188.70084 
L 142.830387 187.624146 
L 143.942568 186.349649 
L 144.220613 185.7749 
L 144.776703 183.746945 
L 145.332793 180.077188 
L 145.888883 174.371949 
L 146.444973 166.493745 
L 147.279109 150.981337 
L 150.337604 87.335756 
L 150.893695 80.574673 
L 151.449785 76.321545 
L 151.72783 75.120311 
L 152.005875 74.497939 
L 152.28392 74.409189 
L 152.561965 74.796184 
L 153.118055 76.71901 
L 153.95219 81.302506 
L 155.064371 87.543596 
L 155.898506 90.8112 
L 157.844821 96.790243 
L 158.400912 100.259445 
L 158.957002 105.409245 
L 159.513092 112.470637 
L 160.347227 126.537378 
L 161.737453 155.955356 
L 163.127678 184.723642 
L 163.961813 198.31702 
L 164.795948 208.249341 
L 165.352038 212.907754 
L 165.908129 216.211021 
L 166.464219 218.423431 
L 167.020309 219.837969 
L 167.576399 220.742945 
L 169.24467 222.888424 
L 169.80076 223.993037 
L 170.634895 226.237391 
L 172.58121 232.017268 
L 173.137301 232.733586 
L 173.415346 232.762779 
L 173.693391 232.53302 
L 173.971436 232.020528 
L 174.527526 230.083603 
L 175.083616 226.886917 
L 175.639706 222.460581 
L 176.473841 213.785104 
L 177.586022 199.357516 
L 179.254292 174.31257 
L 181.478653 140.777633 
L 182.312788 130.90757 
L 182.868878 126.023066 
L 183.424968 122.788068 
L 183.703013 121.826897 
L 183.981058 121.302573 
L 184.259104 121.200245 
L 184.537149 121.493294 
L 184.815194 122.144374 
L 185.371284 124.32614 
L 186.483464 130.52581 
L 187.317599 134.856696 
L 187.87369 136.880474 
L 188.42978 137.997314 
L 188.707825 138.208045 
L 188.98587 138.20081 
L 189.263915 137.994703 
L 189.820005 137.086746 
L 190.65414 134.936072 
L 192.044366 131.183195 
L 192.600456 130.139451 
L 193.156546 129.503617 
L 193.712636 129.302273 
L 194.268726 129.507489 
L 194.824816 130.026947 
L 196.215042 131.569553 
L 196.493087 131.694578 
L 196.771132 131.689751 
L 197.049177 131.529509 
L 197.327222 131.192837 
L 197.883312 129.938783 
L 198.439402 127.907401 
L 199.273538 123.708965 
L 200.663763 116.238263 
L 201.219853 114.165448 
L 201.775943 113.048608 
L 202.053988 112.888277 
L 202.332033 112.994247 
L 202.610079 113.35531 
L 203.166169 114.757149 
L 204.000304 118.091113 
L 206.50271 129.248817 
L 207.336845 131.922159 
L 208.17098 133.840145 
L 208.72707 134.566475 
L 209.005115 134.715292 
L 209.28316 134.695906 
L 209.561205 134.489086 
L 209.83925 134.076515 
L 210.395341 132.573635 
L 210.951431 130.115455 
L 211.507521 126.723947 
L 212.341656 120.179033 
L 214.566017 100.959944 
L 215.122107 97.663631 
L 215.678197 95.62299 
L 215.956242 95.146837 
L 216.234287 95.059946 
L 216.512332 95.374164 
L 216.790377 96.093029 
L 217.346467 98.722086 
L 217.902558 102.820105 
L 218.736693 111.140658 
L 221.239099 138.712664 
L 221.795189 142.746834 
L 222.351279 145.454999 
L 222.907369 146.776036 
L 223.185414 146.924267 
L 223.463459 146.746079 
L 223.741504 146.257979 
L 224.297594 144.431698 
L 224.853684 141.623689 
L 225.68782 136.002691 
L 227.078045 124.599446 
L 228.46827 113.543891 
L 229.302406 108.519931 
L 229.858496 106.282888 
L 230.414586 105.133442 
L 230.692631 105.003628 
L 230.970676 105.181689 
L 231.248721 105.669331 
L 231.804811 107.549386 
L 232.360901 110.532781 
L 233.195037 116.603784 
L 235.419397 134.460517 
L 235.975487 137.565269 
L 236.531578 139.698417 
L 237.087668 140.799044 
L 237.365713 140.966304 
L 237.643758 140.888775 
L 237.921803 140.577232 
L 238.477893 139.302978 
L 239.033983 137.255331 
L 239.868119 132.992701 
L 240.980299 125.68419 
L 244.038795 104.17734 
L 246.263155 90.78542 
L 247.09729 84.003474 
L 248.209471 72.620685 
L 249.599696 58.258552 
L 250.155786 54.25937 
L 250.711876 52.061556 
L 250.989921 51.734042 
L 251.267967 51.935997 
L 251.546012 52.653997 
L 252.102102 55.480652 
L 252.936237 62.107515 
L 254.048417 71.130529 
L 254.604507 73.823372 
L 254.882553 74.428982 
L 255.160598 74.478961 
L 255.438643 73.953848 
L 255.716688 72.857565 
L 256.272778 69.085812 
L 257.106913 60.526596 
L 258.497139 45.415818 
L 259.053229 41.568969 
L 259.331274 40.42826 
L 259.609319 39.85788 
L 259.887364 39.865853 
L 260.165409 40.437201 
L 260.443454 41.534248 
L 260.999544 45.060665 
L 262.111724 55.025464 
L 262.94586 62.119946 
L 263.50195 65.638134 
L 264.05804 68.013474 
L 264.61413 69.496778 
L 265.448265 71.313583 
L 266.004356 73.352492 
L 266.560446 76.912559 
L 267.116536 82.518133 
L 267.672626 90.387981 
L 268.506761 106.01353 
L 271.009167 158.044461 
L 271.565257 165.576771 
L 272.121347 170.651819 
L 272.677437 173.338089 
L 272.955482 173.877073 
L 273.233527 173.954334 
L 273.511573 173.63729 
L 274.067663 172.116998 
L 276.013978 164.8381 
L 276.570068 163.911522 
L 276.848113 163.779339 
L 277.126159 163.879119 
L 277.404204 164.212556 
L 277.960294 165.567435 
L 278.516384 167.799065 
L 279.072474 170.854054 
L 279.906609 176.867702 
L 281.01879 187.26228 
L 284.35533 222.114013 
L 284.911421 225.584527 
L 285.467511 227.737392 
L 285.745556 228.296653 
L 286.023601 228.514134 
L 286.301646 228.402802 
L 286.579691 227.983608 
L 287.135781 226.340788 
L 287.969916 222.452519 
L 289.638187 214.066715 
L 290.194277 212.238205 
L 290.750367 211.171344 
L 291.028412 210.92439 
L 291.306457 210.854821 
L 291.584502 210.944654 
L 292.140593 211.505354 
L 293.252773 213.341544 
L 294.086908 214.499626 
L 294.642998 214.90765 
L 295.199088 214.99193 
L 295.755179 214.81299 
L 297.145404 214.083477 
L 297.701494 214.084801 
L 298.257584 214.454054 
L 298.813674 215.265275 
L 299.369764 216.540281 
L 300.2039 219.244332 
L 301.594125 225.036296 
L 302.706305 229.573697 
L 303.540441 232.147362 
L 304.096531 233.224616 
L 304.652621 233.678097 
L 304.930666 233.650968 
L 305.208711 233.449039 
L 305.764801 232.52348 
L 306.320891 230.940281 
L 307.155027 227.55225 
L 309.657432 216.079514 
L 310.213522 214.618193 
L 310.769613 213.85066 
L 311.047658 213.729622 
L 311.325703 213.773959 
L 311.881793 214.299315 
L 312.437883 215.27056 
L 314.384199 219.224577 
L 314.940289 219.766261 
L 315.496379 219.868614 
L 316.052469 219.544322 
L 316.608559 218.867564 
L 317.720739 216.96541 
L 318.554875 215.650258 
L 319.110965 215.086794 
L 319.667055 214.890774 
L 320.223145 215.124342 
L 320.779235 215.817556 
L 321.335325 216.976504 
L 321.891416 218.59734 
L 322.725551 221.885514 
L 323.559686 226.208312 
L 324.393821 231.581694 
L 325.506002 240.281225 
L 328.842542 268.588922 
L 329.676678 273.115815 
L 330.232768 275.057587 
L 330.788858 276.077882 
L 331.066903 276.239837 
L 331.344948 276.173351 
L 331.622993 275.884041 
L 332.179083 274.669452 
L 332.735173 272.679649 
L 333.569309 268.489932 
L 334.681489 261.420828 
L 336.627805 248.767427 
L 337.739985 243.124642 
L 340.520436 230.856842 
L 341.354571 225.487867 
L 342.466751 216.724659 
L 344.413067 201.071063 
L 347.193517 181.540037 
L 348.027653 172.307795 
L 348.861788 160.193646 
L 350.530058 130.808172 
L 351.642239 112.779963 
L 352.476374 102.092706 
L 353.588554 90.855193 
L 354.700734 79.623641 
L 355.53487 69.009314 
L 356.64705 51.597784 
L 357.75923 34.127791 
L 358.31532 27.417961 
L 358.87141 23.157394 
L 359.149456 22.139035 
L 359.427501 21.927273 
L 359.705546 22.543735 
L 359.983591 23.986943 
L 360.539681 29.232014 
L 361.095771 37.206279 
L 362.207951 58.241331 
L 363.598177 84.943732 
L 364.432312 97.272764 
L 365.266447 106.132365 
L 366.100582 112.341205 
L 367.768853 121.930396 
L 369.715168 134.020588 
L 371.105394 141.942173 
L 372.217574 147.0672 
L 373.885845 153.586092 
L 375.83216 160.4137 
L 377.778476 167.002314 
L 378.890656 171.747872 
L 380.280881 179.068879 
L 382.227197 189.291013 
L 384.729602 201.24366 
L 385.563738 207.000088 
L 386.397873 214.294258 
L 387.788098 228.907664 
L 389.456369 246.215192 
L 390.568549 255.617935 
L 391.958774 265.403986 
L 395.295315 287.202917 
L 396.12945 291.23238 
L 396.685541 293.166691 
L 397.241631 294.453221 
L 397.797721 295.131746 
L 398.353811 295.304116 
L 398.909901 295.117646 
L 400.856217 293.992973 
L 401.412307 294.032164 
L 401.968397 294.301309 
L 402.802532 295.005944 
L 403.636668 295.732376 
L 404.192758 295.9957 
L 404.748848 295.920273 
L 405.304938 295.38867 
L 405.861028 294.318424 
L 406.417118 292.67141 
L 407.251253 289.161791 
L 408.363434 283.030725 
L 410.031704 273.594369 
L 410.587794 271.263118 
L 411.143885 269.671424 
L 411.42193 269.195054 
L 411.699975 268.94533 
L 411.97802 268.926129 
L 412.256065 269.135624 
L 412.53411 269.566727 
L 413.0902 271.038772 
L 413.924335 274.446144 
L 416.148696 284.871729 
L 416.704786 286.57652 
L 417.260876 287.65913 
L 417.816966 288.109835 
L 418.095011 288.113739 
L 418.651102 287.739869 
L 419.207192 286.965356 
L 420.319372 284.800728 
L 421.431552 282.67303 
L 422.265688 281.444545 
L 424.768093 278.372566 
L 425.602228 276.622687 
L 426.436364 274.184956 
L 426.436364 274.184956 
" clip-path="url(#p4b2074f22c)" style="fill: none; stroke-dasharray: 11.1,4.8; stroke-dashoffset: 0; stroke: #000000; stroke-width: 3"/>
   </g>
   <g id="line2d_2">
    <path d="M 27.163636 305.363066 
L 27.997772 303.494321 
L 28.553862 302.625772 
L 29.109952 302.207801 
L 29.387997 302.193281 
L 29.666042 302.316013 
L 30.222132 302.973131 
L 30.778222 304.146599 
L 31.612358 306.675875 
L 33.836718 314.295343 
L 34.392808 315.52949 
L 34.948898 316.267206 
L 35.226944 316.436708 
L 35.504989 316.472727 
L 35.783034 316.378628 
L 36.339124 315.823914 
L 36.895214 314.838747 
L 37.729349 312.727085 
L 38.84153 309.039981 
L 39.95371 304.379275 
L 40.787845 299.93591 
L 41.62198 294.313931 
L 42.456115 287.272409 
L 43.568296 275.724296 
L 46.904837 238.147127 
L 47.738972 231.677233 
L 48.573107 227.152913 
L 49.129197 225.164645 
L 49.685287 223.886277 
L 50.241378 223.183816 
L 50.797468 222.910229 
L 51.353558 222.922456 
L 52.465738 223.329932 
L 53.855964 223.808582 
L 54.968144 223.907878 
L 56.080324 223.722838 
L 56.914459 223.355712 
L 57.748595 222.726411 
L 58.58273 221.782359 
L 59.416865 220.521771 
L 61.085135 217.439767 
L 62.197316 215.594305 
L 62.753406 214.955222 
L 63.309496 214.606539 
L 63.865586 214.614691 
L 64.421676 215.032153 
L 64.977767 215.891327 
L 65.533857 217.199755 
L 66.367992 219.948563 
L 67.480172 224.714679 
L 69.426488 233.386717 
L 70.260623 236.015392 
L 70.816713 237.109382 
L 71.372803 237.589815 
L 71.650848 237.585892 
L 71.928893 237.415423 
L 72.484984 236.573672 
L 73.041074 235.075211 
L 73.597164 232.95066 
L 74.431299 228.686221 
L 75.543479 221.279305 
L 76.933705 209.971613 
L 81.104381 173.915678 
L 82.216561 166.797327 
L 83.050696 162.717114 
L 83.884832 159.755397 
L 84.718967 157.820981 
L 85.275057 157.003532 
L 86.109192 156.268873 
L 88.055508 155.074873 
L 88.611598 154.459073 
L 89.445733 153.100463 
L 90.279868 151.206906 
L 91.392049 148.039719 
L 94.172499 139.765324 
L 95.28468 137.230341 
L 96.39686 135.299797 
L 97.230995 134.238464 
L 98.06513 133.513229 
L 98.899266 133.149721 
L 99.455356 133.1244 
L 100.011446 133.279942 
L 100.567536 133.615124 
L 101.401671 134.429006 
L 102.513852 135.948203 
L 104.460167 138.764516 
L 105.294302 139.583035 
L 105.850393 139.900793 
L 106.406483 140.016086 
L 106.962573 139.929323 
L 107.518663 139.655074 
L 108.352798 138.950677 
L 109.464978 137.646428 
L 113.079564 133.115586 
L 114.191745 132.130979 
L 115.02588 131.671231 
L 115.58197 131.541214 
L 116.13806 131.575145 
L 116.69415 131.784029 
L 117.528286 132.420615 
L 118.362421 133.392841 
L 119.752646 135.468534 
L 123.089187 140.955859 
L 124.201367 143.255619 
L 125.313548 146.089815 
L 126.981818 151.165028 
L 131.98663 167.574171 
L 133.376855 173.188253 
L 136.435351 185.931028 
L 137.269486 188.410682 
L 138.103621 190.094285 
L 138.659711 190.74101 
L 139.215801 191.013985 
L 139.771892 190.941334 
L 140.327982 190.566923 
L 141.162117 189.56423 
L 142.274297 187.737975 
L 144.220613 184.449431 
L 145.610838 182.59057 
L 148.669334 178.883749 
L 151.17174 175.447204 
L 152.005875 174.770471 
L 152.561965 174.571064 
L 153.118055 174.577075 
L 153.95219 174.894222 
L 155.342416 175.616705 
L 155.898506 175.697609 
L 156.454596 175.533355 
L 157.010686 175.076104 
L 157.566776 174.317244 
L 158.400912 172.69488 
L 160.903317 167.24495 
L 161.459407 166.564906 
L 162.015498 166.223152 
L 162.571588 166.231456 
L 163.127678 166.570816 
L 163.683768 167.198231 
L 164.517903 168.545735 
L 168.132489 175.19904 
L 169.24467 176.5254 
L 170.35685 177.463136 
L 171.46903 178.057283 
L 172.303165 178.253226 
L 173.137301 178.171404 
L 173.693391 177.923903 
L 174.249481 177.494825 
L 175.083616 176.476236 
L 175.917751 174.996728 
L 177.029932 172.40336 
L 180.366473 163.917686 
L 181.200608 162.485763 
L 182.312788 161.092763 
L 183.981058 159.197525 
L 184.815194 157.824445 
L 185.649329 155.961457 
L 186.761509 152.771344 
L 189.263915 145.13598 
L 190.376095 142.655664 
L 191.766321 140.265422 
L 193.156546 137.77349 
L 194.546771 134.628108 
L 195.936997 131.440542 
L 196.771132 130.123148 
L 197.327222 129.707011 
L 197.605267 129.667985 
L 197.883312 129.751131 
L 198.439402 130.298101 
L 198.995493 131.351792 
L 199.551583 132.875777 
L 200.385718 135.870304 
L 203.166169 146.908741 
L 204.000304 148.992586 
L 204.556394 149.875247 
L 205.112484 150.373358 
L 205.668574 150.541076 
L 206.224664 150.452989 
L 207.0588 150.022026 
L 209.83925 148.291857 
L 212.063611 147.290081 
L 212.897746 147.096634 
L 213.453836 147.13729 
L 214.009927 147.383875 
L 214.566017 147.891106 
L 215.122107 148.697499 
L 215.956242 150.491963 
L 216.790377 152.90615 
L 219.570828 161.6756 
L 220.126918 162.730004 
L 220.683008 163.340862 
L 221.239099 163.474547 
L 221.795189 163.135544 
L 222.351279 162.366546 
L 223.185414 160.581966 
L 225.965865 153.724567 
L 226.521955 152.940489 
L 227.078045 152.482676 
L 227.634135 152.355105 
L 228.190225 152.543507 
L 228.746316 153.022514 
L 229.302406 153.764408 
L 230.136541 155.320642 
L 230.970676 157.371066 
L 232.082856 160.852954 
L 233.195037 165.134103 
L 236.531578 178.819454 
L 237.087668 180.290607 
L 237.643758 181.281531 
L 238.199848 181.732006 
L 238.477893 181.743164 
L 238.755938 181.609223 
L 239.312028 180.912571 
L 239.868119 179.67445 
L 240.702254 176.957229 
L 241.814434 172.308496 
L 243.204659 166.443702 
L 244.038795 163.757101 
L 244.594885 162.548734 
L 245.150975 161.884178 
L 245.42902 161.764604 
L 245.707065 161.787327 
L 245.98511 161.949798 
L 246.5412 162.673045 
L 247.09729 163.878253 
L 247.931426 166.419604 
L 249.043606 170.713694 
L 252.380147 184.208553 
L 253.492327 187.750202 
L 254.604507 190.55225 
L 255.438643 192.109046 
L 256.272778 193.146026 
L 256.828868 193.525889 
L 257.384958 193.647653 
L 257.941048 193.514528 
L 258.497139 193.145517 
L 259.331274 192.235802 
L 261.555634 189.444402 
L 262.111724 189.142489 
L 262.667815 189.15385 
L 263.223905 189.518174 
L 263.779995 190.243561 
L 264.336085 191.304894 
L 265.17022 193.396177 
L 267.672626 200.306357 
L 268.506761 201.76834 
L 269.062851 202.331103 
L 269.618942 202.549158 
L 270.175032 202.437328 
L 270.731122 202.030209 
L 271.565257 200.975702 
L 272.677437 199.031861 
L 274.623753 195.033724 
L 276.292023 191.160662 
L 279.628564 182.757677 
L 280.184654 181.928765 
L 280.740744 181.497394 
L 281.01879 181.452968 
L 281.296835 181.530816 
L 281.852925 182.065609 
L 282.409015 183.102029 
L 282.965105 184.601101 
L 283.79924 187.542235 
L 286.579691 198.412138 
L 287.413826 200.561399 
L 287.969916 201.552171 
L 288.526007 202.221261 
L 289.082097 202.631336 
L 289.916232 202.941757 
L 291.306457 203.346584 
L 292.140593 203.839346 
L 293.252773 204.843007 
L 294.921043 206.388849 
L 295.755179 206.792453 
L 296.311269 206.861283 
L 297.145404 206.707626 
L 298.813674 206.188015 
L 299.369764 206.215169 
L 299.925855 206.436179 
L 300.481945 206.866021 
L 301.31608 207.843393 
L 302.98435 209.973243 
L 303.540441 210.321977 
L 304.096531 210.314742 
L 304.652621 209.888518 
L 305.208711 209.025471 
L 305.764801 207.756324 
L 306.598936 205.269181 
L 308.823297 198.168916 
L 309.657432 196.362785 
L 310.491567 195.183458 
L 311.603748 194.159367 
L 312.437883 193.28445 
L 312.993973 192.425734 
L 313.550063 191.248903 
L 314.384199 188.827838 
L 315.496379 184.610068 
L 317.164649 178.068797 
L 317.998785 175.717173 
L 318.554875 174.724619 
L 319.110965 174.238072 
L 319.38901 174.183151 
L 319.9451 174.426373 
L 320.50119 175.086497 
L 321.335325 176.678242 
L 322.447506 179.48885 
L 324.115776 184.404394 
L 325.227956 188.262986 
L 326.340137 193.0048 
L 327.730362 200.282718 
L 329.398633 209.180198 
L 330.232768 212.401389 
L 330.788858 213.702939 
L 331.066903 214.053354 
L 331.344948 214.189995 
L 331.622993 214.107766 
L 331.901038 213.805445 
L 332.457128 212.55474 
L 333.013219 210.503094 
L 333.847354 206.190817 
L 335.237579 197.11497 
L 336.90585 186.45981 
L 337.739985 182.251261 
L 338.57412 179.045252 
L 339.408255 176.813456 
L 340.24239 175.393556 
L 341.076526 174.539782 
L 343.300886 172.833558 
L 343.856976 172.064051 
L 344.413067 170.987026 
L 344.969157 169.523923 
L 345.803292 166.460974 
L 346.637427 162.228479 
L 347.471562 156.815537 
L 348.583743 148.08282 
L 351.364193 125.222684 
L 352.198329 120.194648 
L 353.032464 116.643726 
L 353.588554 115.136707 
L 354.144644 114.292001 
L 354.422689 114.102172 
L 354.700734 114.056166 
L 354.978779 114.145171 
L 355.53487 114.686384 
L 356.09096 115.644651 
L 356.925095 117.691661 
L 358.037275 121.206257 
L 359.705546 127.3991 
L 362.485996 138.745462 
L 364.432312 146.341341 
L 365.266447 148.890283 
L 366.100582 150.664012 
L 366.656673 151.325206 
L 367.212763 151.5427 
L 367.768853 151.329842 
L 368.324943 150.733861 
L 369.159078 149.293123 
L 371.661484 144.250924 
L 372.217574 143.56171 
L 372.773664 143.146184 
L 373.329754 143.017236 
L 373.885845 143.168805 
L 374.441935 143.578522 
L 375.27607 144.593952 
L 376.666295 146.875829 
L 377.778476 148.532939 
L 378.334566 149.056473 
L 378.890656 149.259549 
L 379.446746 149.072267 
L 380.002836 148.450609 
L 380.558926 147.383926 
L 381.393062 145.022113 
L 382.505242 140.896353 
L 383.895467 135.628203 
L 384.729602 133.243107 
L 385.285693 132.206687 
L 385.841783 131.687585 
L 386.119828 131.631034 
L 386.397873 131.710053 
L 386.953963 132.264767 
L 387.510053 133.318305 
L 388.066143 134.820791 
L 388.900279 137.796824 
L 390.012459 142.89695 
L 391.124639 149.236572 
L 392.236819 157.115158 
L 393.349 167.097407 
L 394.46118 179.764576 
L 395.57336 195.408186 
L 396.963586 218.703004 
L 400.022082 272.745613 
L 401.134262 287.672141 
L 401.968397 295.917343 
L 402.802532 301.604483 
L 403.358622 304.112515 
L 403.914713 305.744967 
L 404.470803 306.645613 
L 405.026893 306.949258 
L 405.582983 306.76758 
L 406.139073 306.183725 
L 406.695163 305.254141 
L 407.529299 303.291092 
L 408.363434 300.732165 
L 409.475614 296.600291 
L 412.53411 283.838869 
L 414.20238 276.32262 
L 415.314561 270.082193 
L 416.426741 262.258936 
L 417.816966 250.3385 
L 420.875462 222.925615 
L 421.987642 215.371971 
L 422.821778 211.03371 
L 423.655913 207.819549 
L 424.490048 205.609152 
L 425.324183 204.214114 
L 426.158319 203.415719 
L 426.436364 203.24632 
L 426.436364 203.24632 
" clip-path="url(#p4b2074f22c)" style="fill: none; stroke: #ff00ff; stroke-width: 3; stroke-linecap: square"/>
   </g>
   <g id="patch_3">
    <path d="M 7.2 331.2 
L 7.2 7.2 
" style="fill: none; stroke: #000000; stroke-width: 0.8; stroke-linejoin: miter; stroke-linecap: square"/>
   </g>
   <g id="patch_4">
    <path d="M 446.4 331.2 
L 446.4 7.2 
" style="fill: none; stroke: #000000; stroke-width: 0.8; stroke-linejoin: miter; stroke-linecap: square"/>
   </g>
   <g id="patch_5">
    <path d="M 7.2 331.2 
L 446.4 331.2 
" style="fill: none; stroke: #000000; stroke-width: 0.8; stroke-linejoin: miter; stroke-linecap: square"/>
   </g>
   <g id="patch_6">
    <path d="M 7.2 7.2 
L 446.4 7.2 
" style="fill: none; stroke: #000000; stroke-width: 0.8; stroke-linejoin: miter; stroke-linecap: square"/>
   </g>
  </g>
 </g>
 <defs>
  <clipPath id="p4b2074f22c">
   <rect x="7.2" y="7.2" width="439.2" height="324"/>
  </clipPath>
 </defs>
</svg>
