<?xml version="1.0" encoding="utf-8" standalone="no"?>
<!DOCTYPE svg PUBLIC "-//W3C//DTD SVG 1.1//EN"
  "http://www.w3.org/Graphics/SVG/1.1/DTD/svg11.dtd">
<svg xmlns:xlink="http://www.w3.org/1999/xlink" width="453.6pt" height="338.4pt" viewBox="0 0 453.6 338.4" xmlns="http://www.w3.org/2000/svg" version="1.1">
 <metadata>
  <rdf:RDF xmlns:dc="http://purl.org/dc/elements/1.1/" xmlns:cc="http://creativecommons.org/ns#" xmlns:rdf="http://www.w3.org/1999/02/22-rdf-syntax-ns#">
   <cc:Work>
    <dc:type rdf:resource="http://purl.org/dc/dcmitype/StillImage"/>
    <dc:date>2025-05-15T17:11:33.873930</dc:date>
    <dc:format>image/svg+xml</dc:format>
    <dc:creator>
     <cc:Agent>
      <dc:title>Matplotlib v3.10.1, https://matplotlib.org/</dc:title>
     </cc:Agent>
    </dc:creator>
   </cc:Work>
  </rdf:RDF>
 </metadata>
 <defs>
  <style type="text/css">*{stroke-linejoin: round; stroke-linecap: butt}</style>
 </defs>
 <g id="figure_1">
  <g id="patch_1">
   <path d="M 0 338.4 
L 453.6 338.4 
L 453.6 0 
L 0 0 
z
" style="fill: #ffffff"/>
  </g>
  <g id="axes_1">
   <g id="patch_2">
    <path d="M 7.2 331.2 
L 446.4 331.2 
L 446.4 7.2 
L 7.2 7.2 
z
" style="fill: #ffffff"/>
   </g>
   <g id="matplotlib.axis_1"/>
   <g id="matplotlib.axis_2"/>
   <g id="line2d_1">
    <path d="M 27.163636 91.25602 
L 27.997772 91.194791 
L 29.109952 90.890835 
L 33.002583 89.547347 
L 33.836718 89.506149 
L 34.670853 89.672388 
L 35.504989 90.097982 
L 36.339124 90.805074 
L 37.451304 92.137803 
L 41.06589 96.965382 
L 41.900025 97.585697 
L 42.734161 97.883198 
L 43.290251 97.88891 
L 43.846341 97.734643 
L 44.680476 97.19645 
L 45.514611 96.280864 
L 46.348747 94.971259 
L 47.182882 93.238211 
L 48.017017 91.035829 
L 48.851152 88.306092 
L 49.963332 83.744087 
L 51.075513 78.038012 
L 52.187693 71.185166 
L 53.577918 61.245925 
L 57.192504 34.278171 
L 58.304685 28.146423 
L 59.13882 24.83573 
L 59.69491 23.307615 
L 60.251 22.338312 
L 60.80709 21.927273 
L 61.085135 21.927625 
L 61.363181 22.062838 
L 61.919271 22.72799 
L 62.475361 23.89847 
L 63.031451 25.547009 
L 63.865586 28.844243 
L 64.977767 34.570272 
L 66.367992 43.276982 
L 69.148443 61.233288 
L 69.982578 65.343094 
L 70.816713 68.368298 
L 71.372803 69.742655 
L 71.928893 70.637231 
L 72.484984 71.134969 
L 73.319119 71.425349 
L 74.153254 71.685956 
L 74.709344 72.163546 
L 75.265434 73.101354 
L 75.821524 74.65533 
L 76.377615 76.936508 
L 76.933705 79.999193 
L 77.76784 86.020766 
L 78.88002 96.205394 
L 83.050696 139.394843 
L 84.440922 155.244133 
L 85.831147 174.075805 
L 88.055508 208.422177 
L 91.392049 258.906478 
L 93.616409 290.584508 
L 94.72859 303.459867 
L 95.562725 310.547312 
L 96.118815 313.779942 
L 96.674905 315.748254 
L 96.95295 316.261887 
L 97.230995 316.472727 
L 97.50904 316.394381 
L 97.787085 316.044395 
L 98.343175 314.617485 
L 98.899266 312.395639 
L 100.011446 306.519764 
L 101.679716 297.516845 
L 102.513852 294.052824 
L 103.347987 291.48015 
L 104.182122 289.679027 
L 105.016257 288.484945 
L 105.572347 287.98659 
L 106.128438 287.744215 
L 106.684528 287.80344 
L 107.240618 288.219399 
L 107.796708 289.034112 
L 108.352798 290.253703 
L 109.186933 292.721836 
L 110.855204 298.128279 
L 111.411294 299.304569 
L 111.689339 299.652139 
L 111.967384 299.807501 
L 112.245429 299.749998 
L 112.523474 299.462034 
L 112.801519 298.928986 
L 113.35761 297.085168 
L 113.9137 294.161579 
L 114.46979 290.140429 
L 115.303925 282.080531 
L 116.13806 271.691323 
L 117.250241 254.517012 
L 118.640466 228.577834 
L 120.864827 181.27897 
L 123.089187 135.538816 
L 124.479413 111.868394 
L 125.313548 100.508826 
L 126.147683 91.752038 
L 126.703773 87.504905 
L 127.259863 84.589836 
L 127.815953 83.016807 
L 128.093998 82.725801 
L 128.372044 82.756435 
L 128.650089 83.098928 
L 128.928134 83.741505 
L 129.484224 85.870803 
L 130.040314 89.014514 
L 130.874449 95.296772 
L 131.98663 105.689111 
L 134.76708 132.739222 
L 135.601215 138.924061 
L 136.435351 143.566583 
L 136.991441 145.732442 
L 137.547531 147.146529 
L 138.103621 147.82913 
L 138.381666 147.908004 
L 138.659711 147.820562 
L 138.937756 147.574079 
L 139.493847 146.636525 
L 140.049937 145.166275 
L 140.884072 142.130547 
L 141.996252 136.957109 
L 145.888883 117.527011 
L 146.723018 114.706936 
L 147.557154 112.771694 
L 148.113244 112.022113 
L 148.669334 111.723165 
L 148.947379 111.744096 
L 149.503469 112.123523 
L 150.059559 112.940085 
L 150.61565 114.167804 
L 151.449785 116.693489 
L 152.561965 121.046257 
L 155.898506 135.244523 
L 156.732641 137.746206 
L 157.566776 139.45795 
L 158.122867 140.116352 
L 158.678957 140.378387 
L 159.235047 140.251311 
L 159.791137 139.757309 
L 160.347227 138.932238 
L 161.181362 137.182073 
L 162.293543 134.213893 
L 164.517903 128.067865 
L 165.352038 126.266311 
L 166.186174 124.941173 
L 166.742264 124.363191 
L 167.298354 124.050823 
L 167.854444 124.016941 
L 168.410534 124.268921 
L 168.966624 124.807329 
L 169.522715 125.6235 
L 170.35685 127.325718 
L 171.46903 130.314379 
L 173.415346 136.504833 
L 174.805571 140.699225 
L 175.917751 143.390367 
L 176.751887 144.848391 
L 177.586022 145.765874 
L 178.142112 146.082721 
L 178.698202 146.188494 
L 179.532337 146.035714 
L 182.034743 145.117605 
L 182.590833 145.23083 
L 183.146923 145.589423 
L 183.703013 146.23824 
L 184.259104 147.208815 
L 185.093239 149.297071 
L 185.927374 152.121568 
L 187.039554 156.866948 
L 188.42978 163.903091 
L 190.65414 176.42371 
L 192.878501 189.973198 
L 194.546771 201.311404 
L 196.493087 216.113808 
L 200.941808 250.814685 
L 203.166169 266.114044 
L 204.834439 275.985971 
L 205.946619 281.472687 
L 207.0588 285.885119 
L 207.892935 288.404192 
L 208.72707 290.195809 
L 209.28316 290.975565 
L 209.83925 291.427196 
L 210.395341 291.565334 
L 210.951431 291.415938 
L 211.507521 291.01598 
L 212.341656 290.048086 
L 213.453836 288.336439 
L 216.234287 283.47443 
L 217.346467 281.024079 
L 218.180603 278.584213 
L 219.014738 275.342749 
L 219.848873 271.045342 
L 220.683008 265.458165 
L 221.517144 258.377166 
L 222.351279 249.642718 
L 223.463459 235.284433 
L 224.575639 217.940949 
L 226.24391 187.727662 
L 229.024361 136.403266 
L 230.136541 119.41818 
L 231.248721 106.000344 
L 232.082856 98.66803 
L 232.638947 95.162733 
L 233.195037 92.763986 
L 233.751127 91.425389 
L 234.029172 91.127028 
L 234.307217 91.055939 
L 234.585262 91.194008 
L 235.141352 92.015226 
L 235.697442 93.41114 
L 236.531578 96.178359 
L 242.926614 119.30292 
L 243.76075 121.660429 
L 244.594885 123.383461 
L 246.263155 126.269852 
L 246.819245 127.888891 
L 247.375336 130.291785 
L 247.931426 133.691349 
L 248.765561 140.825871 
L 249.877741 153.29778 
L 250.989921 165.883482 
L 251.546012 170.63743 
L 252.102102 173.522725 
L 252.380147 174.109608 
L 252.658192 174.069115 
L 252.936237 173.377985 
L 253.214282 172.030253 
L 253.770372 167.428127 
L 254.326462 160.558516 
L 255.160598 147.218166 
L 257.106913 114.778533 
L 257.941048 105.496776 
L 258.497139 101.664869 
L 259.053229 99.673875 
L 259.331274 99.300982 
L 259.609319 99.289675 
L 259.887364 99.592497 
L 260.443454 100.931876 
L 261.277589 103.969678 
L 262.38977 107.902799 
L 262.94586 109.154462 
L 263.223905 109.517887 
L 263.50195 109.688273 
L 263.779995 109.657757 
L 264.05804 109.422815 
L 264.61413 108.342634 
L 265.17022 106.482668 
L 266.004356 102.395553 
L 266.838491 97.066245 
L 268.506761 84.415303 
L 270.175032 72.115227 
L 271.287212 65.413205 
L 272.399392 60.069694 
L 273.789618 54.623365 
L 277.126159 42.760189 
L 278.238339 39.630524 
L 279.072474 38.00049 
L 279.628564 37.326888 
L 280.184654 37.000083 
L 280.740744 37.01362 
L 281.296835 37.34512 
L 281.852925 37.959058 
L 282.68706 39.310761 
L 283.79924 41.657981 
L 292.418638 61.41995 
L 294.642998 65.841616 
L 297.423449 71.409739 
L 301.31608 79.558223 
L 302.42826 81.394716 
L 303.262396 82.457486 
L 304.096531 83.189227 
L 304.930666 83.568693 
L 305.764801 83.627184 
L 306.876982 83.365599 
L 308.267207 82.967901 
L 309.101342 82.961681 
L 309.657432 83.131049 
L 310.213522 83.466579 
L 311.047658 84.301099 
L 311.881793 85.514107 
L 312.993973 87.58241 
L 315.496379 92.442424 
L 316.330514 93.564938 
L 317.164649 94.252429 
L 317.720739 94.449498 
L 318.27683 94.438269 
L 318.83292 94.227663 
L 319.667055 93.571158 
L 320.50119 92.561909 
L 321.61337 90.791655 
L 323.559686 87.068866 
L 325.227956 84.002229 
L 326.340137 82.401852 
L 327.174272 81.542605 
L 328.008407 81.007933 
L 328.842542 80.800731 
L 329.676678 80.912744 
L 330.510813 81.337555 
L 331.344948 82.080133 
L 332.179083 83.153937 
L 333.013219 84.571017 
L 334.125399 86.982636 
L 335.515624 90.694822 
L 339.408255 101.716904 
L 340.520436 103.97942 
L 341.354571 105.226153 
L 342.188706 106.068303 
L 343.022841 106.516314 
L 343.578931 106.611113 
L 344.413067 106.485367 
L 345.247202 106.106332 
L 347.749607 104.733853 
L 348.305698 104.719768 
L 348.861788 104.944341 
L 349.417878 105.467354 
L 349.973968 106.341546 
L 350.530058 107.608663 
L 351.364193 110.301116 
L 352.198329 113.955946 
L 353.310509 120.201584 
L 354.700734 129.708051 
L 357.20314 149.050863 
L 359.983591 170.17371 
L 363.042087 191.394524 
L 365.544492 209.249851 
L 368.881033 235.126293 
L 372.495619 262.578308 
L 374.71998 278.113157 
L 376.110205 286.390233 
L 377.222385 291.690521 
L 378.056521 294.771311 
L 378.890656 297.098392 
L 379.724791 298.765574 
L 380.558926 299.924678 
L 381.671107 300.989953 
L 384.173512 302.857265 
L 385.007648 303.319205 
L 385.563738 303.472044 
L 386.119828 303.437341 
L 386.675918 303.166983 
L 387.232008 302.626021 
L 387.788098 301.796411 
L 388.622233 300.011984 
L 389.456369 297.623772 
L 390.568549 293.600948 
L 391.680729 288.652935 
L 392.79291 282.672706 
L 393.90509 275.494454 
L 395.01727 267.00907 
L 396.407496 254.506468 
L 397.797721 239.879928 
L 399.744036 216.592845 
L 401.412307 197.402951 
L 402.246442 190.06919 
L 402.802532 186.636957 
L 403.358622 184.645846 
L 403.636668 184.244724 
L 403.914713 184.257283 
L 404.192758 184.687533 
L 404.470803 185.53156 
L 405.026893 188.400736 
L 405.582983 192.651253 
L 406.695163 203.723981 
L 407.807344 214.553005 
L 408.363434 218.37828 
L 408.919524 220.467593 
L 409.197569 220.75453 
L 409.475614 220.504604 
L 409.753659 219.710813 
L 410.309749 216.535176 
L 410.865839 211.449279 
L 411.699975 201.178812 
L 413.64629 175.094757 
L 414.480425 167.299427 
L 415.036516 163.989516 
L 415.592606 162.21979 
L 415.870651 161.875692 
L 416.148696 161.857871 
L 416.426741 162.133853 
L 416.982831 163.419496 
L 417.816966 166.58985 
L 419.763282 174.933585 
L 420.597417 177.487381 
L 421.153507 178.687282 
L 421.709597 179.497975 
L 422.265688 179.953929 
L 422.821778 180.096439 
L 423.377868 179.965471 
L 423.933958 179.594436 
L 424.768093 178.638631 
L 425.602228 177.230236 
L 426.436364 175.33897 
L 426.436364 175.33897 
" clip-path="url(#p65e0f6420b)" style="fill: none; stroke-dasharray: 11.1,4.8; stroke-dashoffset: 0; stroke: #000000; stroke-width: 3"/>
   </g>
   <g id="line2d_2">
    <path d="M 27.163636 62.511595 
L 27.997772 61.177771 
L 28.831907 60.28746 
L 29.666042 59.741911 
L 30.778222 59.328055 
L 34.114763 58.482189 
L 35.226944 58.453941 
L 36.061079 58.667794 
L 36.895214 59.107942 
L 38.007394 59.988316 
L 40.787845 62.391522 
L 41.62198 62.807257 
L 42.456115 62.995914 
L 43.290251 62.961836 
L 44.402431 62.624351 
L 45.792656 61.880208 
L 47.738972 60.514928 
L 50.797468 58.211449 
L 51.631603 57.931085 
L 52.187693 57.990788 
L 52.743783 58.327648 
L 53.299873 59.01021 
L 53.855964 60.09935 
L 54.412054 61.640611 
L 55.246189 64.846921 
L 56.080324 69.089906 
L 57.192504 76.041071 
L 60.251 96.214314 
L 61.085135 100.152874 
L 61.919271 102.894544 
L 62.475361 104.021753 
L 63.031451 104.610142 
L 63.587541 104.714369 
L 64.143631 104.417494 
L 64.699721 103.826797 
L 66.646037 101.31815 
L 67.202127 101.030509 
L 67.480172 101.036534 
L 67.758217 101.160558 
L 68.314307 101.808377 
L 68.870398 103.054484 
L 69.426488 104.956157 
L 69.982578 107.545321 
L 70.816713 112.718016 
L 71.650848 119.324457 
L 72.763029 129.879513 
L 76.09957 163.355782 
L 77.21175 171.861314 
L 78.32393 178.410498 
L 79.43611 183.311044 
L 80.548291 187.066697 
L 81.938516 190.870533 
L 84.440922 197.381452 
L 85.553102 201.109171 
L 86.387237 204.652204 
L 87.221372 208.993352 
L 88.333553 216.026267 
L 90.557913 232.356981 
L 91.948139 241.565322 
L 93.060319 247.243776 
L 93.894454 250.422288 
L 94.72859 252.817592 
L 95.84077 255.189029 
L 103.069942 268.187981 
L 103.904077 269.057713 
L 104.460167 269.420512 
L 105.016257 269.585695 
L 105.572347 269.53096 
L 106.128438 269.231308 
L 106.684528 268.658842 
L 107.240618 267.784904 
L 107.796708 266.582479 
L 108.630843 264.119569 
L 109.464978 260.852068 
L 110.577159 255.370038 
L 112.523474 244.047736 
L 114.191745 234.920402 
L 115.303925 230.099786 
L 116.13806 227.276072 
L 116.972195 225.058197 
L 118.084376 222.758004 
L 119.752646 219.520864 
L 120.586781 217.361637 
L 121.420917 214.471059 
L 122.255052 210.679216 
L 123.367232 204.245038 
L 127.259863 179.618674 
L 128.372044 174.782448 
L 131.430539 162.692254 
L 132.54272 156.990267 
L 133.932945 148.68734 
L 135.879261 135.630777 
L 138.381666 117.147937 
L 140.884072 98.577966 
L 141.996252 91.734001 
L 142.830387 87.620869 
L 143.664523 84.482909 
L 144.498658 82.289604 
L 145.054748 81.296475 
L 145.610838 80.623538 
L 146.166928 80.219697 
L 146.723018 80.037691 
L 147.279109 80.037261 
L 148.113244 80.312422 
L 148.947379 80.861178 
L 150.059559 81.93999 
L 153.118055 85.345364 
L 153.674145 85.634532 
L 154.230236 85.710002 
L 154.786326 85.549319 
L 155.342416 85.149743 
L 156.176551 84.15008 
L 157.288731 82.329902 
L 158.678957 80.114375 
L 159.235047 79.522307 
L 159.791137 79.221951 
L 160.347227 79.282163 
L 160.903317 79.75764 
L 161.459407 80.685041 
L 162.015498 82.080642 
L 162.849633 85.033857 
L 163.683768 88.912948 
L 164.795948 95.161089 
L 168.688579 118.12395 
L 169.80076 122.972578 
L 170.634895 125.674772 
L 171.190985 126.933556 
L 171.747075 127.697574 
L 172.02512 127.880284 
L 172.303165 127.925042 
L 172.58121 127.829696 
L 173.137301 127.21975 
L 173.693391 126.074544 
L 174.527526 123.502614 
L 177.307977 113.388331 
L 177.864067 112.43859 
L 178.142112 112.230841 
L 178.420157 112.218556 
L 178.698202 112.410538 
L 178.976247 112.812696 
L 179.532337 114.252195 
L 180.088427 116.514261 
L 180.922563 121.280454 
L 182.034743 129.54103 
L 185.649329 158.660677 
L 186.761509 165.649206 
L 187.87369 171.313673 
L 188.98587 175.71335 
L 190.09805 179.006986 
L 191.21023 181.471402 
L 194.824816 188.602265 
L 195.936997 191.682987 
L 197.327222 196.246399 
L 199.273538 203.497041 
L 204.000304 221.54214 
L 205.390529 225.802321 
L 206.780755 229.377807 
L 208.449025 233.053882 
L 210.951431 238.003842 
L 213.175791 241.988275 
L 214.566017 244.101316 
L 215.678197 245.399557 
L 216.512332 246.020615 
L 217.068422 246.207375 
L 217.624513 246.167037 
L 218.180603 245.855276 
L 218.736693 245.223595 
L 219.292783 244.221878 
L 219.848873 242.802216 
L 220.683008 239.805729 
L 221.517144 235.718615 
L 222.629324 228.70487 
L 224.575639 214.07833 
L 225.965865 204.391421 
L 226.8 199.745202 
L 227.634135 196.186559 
L 228.46827 193.691391 
L 229.024361 192.548571 
L 229.580451 191.751102 
L 230.136541 191.231336 
L 230.970676 190.822175 
L 233.473082 190.106006 
L 234.029172 189.600442 
L 234.585262 188.82054 
L 235.141352 187.713265 
L 235.975487 185.367825 
L 236.809623 182.194301 
L 237.921803 176.882735 
L 241.536389 158.187371 
L 242.370524 155.154499 
L 242.926614 153.653243 
L 243.482704 152.639593 
L 244.038795 152.169906 
L 244.31684 152.154256 
L 244.594885 152.290937 
L 245.150975 153.031344 
L 245.707065 154.391928 
L 246.263155 156.337186 
L 247.09729 160.16741 
L 249.599696 173.067612 
L 250.155786 174.892211 
L 250.711876 175.916523 
L 250.989921 176.086713 
L 251.267967 176.013668 
L 251.546012 175.690384 
L 252.102102 174.286352 
L 252.658192 171.900106 
L 253.492327 166.683729 
L 254.604507 157.514376 
L 257.106913 135.546621 
L 257.941048 129.855002 
L 258.775184 125.437581 
L 259.609319 122.258306 
L 260.443454 120.144052 
L 260.999544 119.210039 
L 261.555634 118.571883 
L 262.38977 118.025043 
L 263.223905 117.803581 
L 264.336085 117.767097 
L 266.838491 117.779832 
L 268.784806 117.49311 
L 271.565257 117.075283 
L 273.511573 116.789265 
L 274.623753 116.411168 
L 275.735933 115.783889 
L 277.682249 114.30153 
L 278.794429 113.558952 
L 279.628564 113.198853 
L 280.462699 113.042278 
L 281.57488 113.090948 
L 283.521195 113.257109 
L 284.35533 113.081558 
L 285.189466 112.656904 
L 286.023601 111.97622 
L 287.135781 110.741772 
L 288.804052 108.483364 
L 290.194277 106.324019 
L 291.306457 104.173281 
L 292.140593 102.111277 
L 293.252773 98.620846 
L 296.311269 87.920913 
L 296.867359 86.801177 
L 297.423449 86.178398 
L 297.701494 86.060712 
L 297.979539 86.069163 
L 298.535629 86.433449 
L 299.091719 87.177318 
L 301.31608 90.905232 
L 301.87217 91.239432 
L 302.150215 91.237163 
L 302.42826 91.114273 
L 302.98435 90.503035 
L 303.540441 89.43154 
L 304.374576 87.128334 
L 308.267207 74.85991 
L 310.213522 69.692771 
L 311.603748 65.157567 
L 312.993973 60.655228 
L 313.550063 59.30325 
L 314.106153 58.416304 
L 314.384199 58.181754 
L 314.662244 58.09928 
L 314.940289 58.174203 
L 315.218334 58.407931 
L 315.774424 59.337445 
L 316.330514 60.817045 
L 317.164649 63.764979 
L 318.554875 68.959114 
L 319.110965 70.501626 
L 319.667055 71.458175 
L 319.9451 71.676801 
L 320.223145 71.709078 
L 320.50119 71.550312 
L 320.779235 71.200855 
L 321.335325 69.953848 
L 321.891416 68.058982 
L 322.725551 64.347461 
L 324.671866 55.271184 
L 325.227956 53.451124 
L 325.784047 52.204391 
L 326.340137 51.557119 
L 326.618182 51.448745 
L 326.896227 51.471985 
L 327.452317 51.860254 
L 328.008407 52.599585 
L 329.120587 54.612331 
L 332.457128 61.119241 
L 333.291264 63.529138 
L 334.125399 66.581612 
L 337.183895 79.018583 
L 337.739985 80.420404 
L 338.296075 81.348666 
L 338.852165 81.818548 
L 339.408255 81.897892 
L 339.964345 81.696989 
L 341.632616 80.800262 
L 342.188706 80.824949 
L 342.744796 81.142482 
L 343.300886 81.762757 
L 344.135022 83.169782 
L 347.193517 89.164282 
L 348.583743 91.547653 
L 349.417878 93.602458 
L 350.252013 96.614007 
L 351.086148 100.79991 
L 352.198329 108.069195 
L 354.978779 127.814673 
L 355.812915 131.926357 
L 356.369005 133.913047 
L 356.925095 135.322928 
L 357.481185 136.24362 
L 358.037275 136.810158 
L 359.705546 138.13023 
L 360.261636 139.028464 
L 360.817726 140.385077 
L 361.373816 142.268303 
L 362.207951 146.09174 
L 363.320132 152.729031 
L 365.266447 166.371224 
L 366.934718 179.069369 
L 368.046898 189.030285 
L 369.159078 201.059033 
L 370.549304 218.835486 
L 372.773664 247.821152 
L 373.885845 259.335456 
L 374.71998 265.991253 
L 375.554115 271.011735 
L 376.38825 274.666095 
L 377.222385 277.309056 
L 378.056521 279.284683 
L 379.168701 281.334314 
L 380.558926 283.439913 
L 382.227197 285.564897 
L 383.895467 287.316939 
L 389.178324 292.273737 
L 390.012459 292.700924 
L 390.846594 292.857646 
L 391.680729 292.723049 
L 392.514865 292.303266 
L 393.349 291.591488 
L 394.183135 290.519846 
L 395.01727 288.915859 
L 395.57336 287.412686 
L 396.12945 285.440277 
L 396.963586 281.367912 
L 397.797721 275.710635 
L 398.631856 268.37566 
L 399.744036 256.339752 
L 403.358622 214.514644 
L 404.470803 205.138655 
L 405.582983 197.998618 
L 406.417118 193.91123 
L 407.251253 190.691246 
L 408.363434 187.383037 
L 409.475614 184.776814 
L 411.143885 181.465964 
L 412.53411 179.083884 
L 413.64629 177.630321 
L 414.480425 176.916304 
L 415.314561 176.518547 
L 417.816966 175.787452 
L 418.651102 175.07408 
L 419.485237 173.982063 
L 422.265688 169.825152 
L 422.821778 169.424676 
L 423.377868 169.254368 
L 423.933958 169.28422 
L 425.880273 169.746551 
L 426.436364 169.51654 
L 426.436364 169.51654 
" clip-path="url(#p65e0f6420b)" style="fill: none; stroke: #ff00ff; stroke-width: 3; stroke-linecap: square"/>
   </g>
   <g id="patch_3">
    <path d="M 7.2 331.2 
L 7.2 7.2 
" style="fill: none; stroke: #000000; stroke-width: 0.8; stroke-linejoin: miter; stroke-linecap: square"/>
   </g>
   <g id="patch_4">
    <path d="M 446.4 331.2 
L 446.4 7.2 
" style="fill: none; stroke: #000000; stroke-width: 0.8; stroke-linejoin: miter; stroke-linecap: square"/>
   </g>
   <g id="patch_5">
    <path d="M 7.2 331.2 
L 446.4 331.2 
" style="fill: none; stroke: #000000; stroke-width: 0.8; stroke-linejoin: miter; stroke-linecap: square"/>
   </g>
   <g id="patch_6">
    <path d="M 7.2 7.2 
L 446.4 7.2 
" style="fill: none; stroke: #000000; stroke-width: 0.8; stroke-linejoin: miter; stroke-linecap: square"/>
   </g>
  </g>
 </g>
 <defs>
  <clipPath id="p65e0f6420b">
   <rect x="7.2" y="7.2" width="439.2" height="324"/>
  </clipPath>
 </defs>
</svg>
