<?xml version="1.0" encoding="utf-8" standalone="no"?>
<!DOCTYPE svg PUBLIC "-//W3C//DTD SVG 1.1//EN"
  "http://www.w3.org/Graphics/SVG/1.1/DTD/svg11.dtd">
<svg xmlns:xlink="http://www.w3.org/1999/xlink" width="453.6pt" height="338.4pt" viewBox="0 0 453.6 338.4" xmlns="http://www.w3.org/2000/svg" version="1.1">
 <metadata>
  <rdf:RDF xmlns:dc="http://purl.org/dc/elements/1.1/" xmlns:cc="http://creativecommons.org/ns#" xmlns:rdf="http://www.w3.org/1999/02/22-rdf-syntax-ns#">
   <cc:Work>
    <dc:type rdf:resource="http://purl.org/dc/dcmitype/StillImage"/>
    <dc:date>2025-05-15T17:39:03.946652</dc:date>
    <dc:format>image/svg+xml</dc:format>
    <dc:creator>
     <cc:Agent>
      <dc:title>Matplotlib v3.10.1, https://matplotlib.org/</dc:title>
     </cc:Agent>
    </dc:creator>
   </cc:Work>
  </rdf:RDF>
 </metadata>
 <defs>
  <style type="text/css">*{stroke-linejoin: round; stroke-linecap: butt}</style>
 </defs>
 <g id="figure_1">
  <g id="patch_1">
   <path d="M 0 338.4 
L 453.6 338.4 
L 453.6 0 
L 0 0 
z
" style="fill: #ffffff"/>
  </g>
  <g id="axes_1">
   <g id="patch_2">
    <path d="M 7.2 331.2 
L 446.4 331.2 
L 446.4 7.2 
L 7.2 7.2 
z
" style="fill: #ffffff"/>
   </g>
   <g id="matplotlib.axis_1"/>
   <g id="matplotlib.axis_2"/>
   <g id="line2d_1">
    <path d="M 27.163636 162.966697 
L 27.719727 167.359442 
L 28.275817 174.267814 
L 29.387997 192.623767 
L 30.500177 210.705781 
L 31.334312 220.359692 
L 31.890403 224.355332 
L 32.446493 226.564457 
L 32.724538 227.117512 
L 33.002583 227.379219 
L 33.280628 227.405789 
L 33.558673 227.2461 
L 34.114763 226.498268 
L 34.670853 225.219123 
L 35.226944 223.17662 
L 35.783034 219.846207 
L 36.339124 214.52009 
L 36.895214 206.482382 
L 37.451304 195.214224 
L 38.285439 172.091696 
L 39.675665 122.800295 
L 40.787845 86.805193 
L 41.343935 74.735297 
L 41.62198 70.825902 
L 41.900025 68.502898 
L 42.17807 67.847205 
L 42.456115 68.899681 
L 42.734161 71.660177 
L 43.290251 82.103668 
L 43.846341 98.404713 
L 44.680476 130.948366 
L 46.904837 225.156401 
L 47.738972 249.365279 
L 48.295062 260.033483 
L 48.851152 266.325855 
L 49.129197 267.94706 
L 49.407242 268.650766 
L 49.685287 268.529309 
L 49.963332 267.685353 
L 50.519423 264.269634 
L 51.353558 256.479569 
L 53.021828 239.768246 
L 54.968144 222.208013 
L 55.524234 215.159093 
L 56.080324 205.981154 
L 56.914459 187.179859 
L 57.748595 161.976597 
L 59.13882 109.781923 
L 60.529045 58.462678 
L 61.363181 35.950925 
L 61.919271 26.481118 
L 62.197316 23.642573 
L 62.475361 22.12096 
L 62.753406 21.927273 
L 63.031451 23.048983 
L 63.309496 25.451027 
L 63.865586 33.849836 
L 64.421676 46.44805 
L 65.255812 71.164 
L 68.036262 160.457014 
L 68.870398 178.411653 
L 69.426488 186.972305 
L 69.982578 192.969467 
L 70.538668 196.761887 
L 71.094758 198.848069 
L 71.650848 199.807614 
L 73.041074 201.062641 
L 73.597164 202.324255 
L 74.153254 204.403257 
L 74.987389 208.967056 
L 76.65566 219.065541 
L 77.21175 220.814071 
L 77.489795 221.093335 
L 77.76784 220.913713 
L 78.045885 220.244104 
L 78.32393 219.06777 
L 78.88002 215.2078 
L 79.43611 209.519789 
L 80.270246 198.534807 
L 81.938516 175.885825 
L 82.494606 170.5398 
L 83.050696 167.049301 
L 83.328741 166.056426 
L 83.606787 165.568668 
L 83.884832 165.573596 
L 84.162877 166.047859 
L 84.440922 166.958994 
L 84.997012 169.929495 
L 85.831147 176.545306 
L 87.499418 193.024488 
L 88.889643 205.8828 
L 89.723778 212.147884 
L 90.557913 216.868797 
L 91.114004 218.980385 
L 91.670094 220.164173 
L 91.948139 220.394458 
L 92.226184 220.384206 
L 92.504229 220.140104 
L 93.060319 219.006088 
L 93.616409 217.160367 
L 95.84077 208.306337 
L 96.39686 207.207433 
L 96.674905 206.967268 
L 96.95295 206.941466 
L 97.230995 207.125843 
L 97.787085 208.068054 
L 98.343175 209.605762 
L 99.733401 213.929422 
L 100.289491 214.761542 
L 100.567536 214.757779 
L 100.845581 214.397965 
L 101.123626 213.627006 
L 101.401671 212.392976 
L 101.957761 208.351503 
L 102.513852 201.973678 
L 103.069942 193.106301 
L 103.904077 175.313975 
L 105.016257 145.493651 
L 106.406483 108.268679 
L 106.962573 97.078917 
L 107.518663 89.678652 
L 107.796708 87.670024 
L 108.074753 86.891859 
L 108.352798 87.390512 
L 108.630843 89.186486 
L 108.908888 92.272006 
L 109.464978 102.148253 
L 110.021069 116.439284 
L 110.855204 144.045729 
L 113.079564 223.9792 
L 113.9137 245.277649 
L 114.46979 254.908532 
L 115.02588 260.704033 
L 115.303925 262.207917 
L 115.58197 262.839368 
L 115.860015 262.658062 
L 116.13806 261.735387 
L 116.69415 257.993655 
L 117.250241 252.321864 
L 118.640466 234.402956 
L 119.752646 221.005876 
L 120.586781 213.295866 
L 121.420917 207.912104 
L 121.977007 205.523853 
L 122.533097 203.964106 
L 123.089187 203.105193 
L 123.645277 202.825657 
L 124.201367 203.0161 
L 124.757458 203.577104 
L 125.591593 204.898394 
L 127.537908 208.280535 
L 128.093998 208.784983 
L 128.650089 208.898862 
L 129.206179 208.579757 
L 129.762269 207.845297 
L 130.596404 206.178381 
L 131.708584 203.922482 
L 132.264675 203.379876 
L 132.54272 203.383343 
L 132.820765 203.616525 
L 133.09881 204.110696 
L 133.6549 205.985388 
L 134.21099 209.157574 
L 134.76708 213.674326 
L 135.601215 222.791772 
L 136.713396 238.113562 
L 138.381666 261.829185 
L 139.215801 270.844439 
L 139.771892 274.880168 
L 140.327982 276.987646 
L 140.606027 277.257525 
L 140.884072 276.989008 
L 141.162117 276.182318 
L 141.718207 273.005823 
L 142.274297 267.940573 
L 143.108433 257.680047 
L 145.054748 231.795711 
L 145.610838 226.66499 
L 146.166928 223.296567 
L 146.444973 222.301191 
L 146.723018 221.747418 
L 147.001064 221.602364 
L 147.279109 221.818831 
L 147.835199 223.085844 
L 149.225424 227.483343 
L 149.503469 227.936509 
L 149.781514 228.089289 
L 150.059559 227.894364 
L 150.337604 227.31781 
L 150.61565 226.339818 
L 151.17174 223.170628 
L 151.72783 218.498198 
L 152.561965 209.321299 
L 156.732641 159.082461 
L 159.513092 129.527138 
L 160.069182 125.889232 
L 160.347227 124.813777 
L 160.625272 124.348255 
L 160.903317 124.5723 
L 161.181362 125.557968 
L 161.459407 127.364986 
L 162.015498 133.598573 
L 162.571588 143.383499 
L 163.405723 164.038166 
L 166.186174 243.589389 
L 166.742264 252.116291 
L 167.020309 254.731311 
L 167.298354 256.22061 
L 167.576399 256.605112 
L 167.854444 255.937236 
L 168.132489 254.298995 
L 168.688579 248.565646 
L 169.522715 236.006432 
L 170.634895 218.690053 
L 171.190985 212.44619 
L 171.747075 208.930632 
L 172.02512 208.33927 
L 172.303165 208.557149 
L 172.58121 209.581248 
L 172.859256 211.388563 
L 173.415346 217.17312 
L 174.249481 230.228561 
L 176.751887 276.310138 
L 177.307977 282.642847 
L 177.864067 286.004163 
L 178.142112 286.414293 
L 178.420157 285.917373 
L 178.698202 284.484878 
L 179.254292 278.774532 
L 179.810382 269.369205 
L 180.644518 249.192615 
L 181.756698 214.878963 
L 183.146923 171.744065 
L 183.981058 152.031957 
L 184.537149 143.026483 
L 185.093239 137.688877 
L 185.371284 136.387644 
L 185.649329 135.954857 
L 185.927374 136.336338 
L 186.205419 137.463545 
L 186.761509 141.625906 
L 187.595644 151.243145 
L 189.820005 180.072006 
L 190.65414 187.599472 
L 191.21023 191.125381 
L 191.766321 193.491025 
L 192.322411 194.80657 
L 192.600456 195.120203 
L 192.878501 195.237748 
L 193.156546 195.187432 
L 193.712636 194.716091 
L 194.824816 193.422286 
L 195.102861 193.304866 
L 195.380907 193.377789 
L 195.658952 193.69786 
L 195.936997 194.321412 
L 196.215042 195.302822 
L 196.771132 198.534287 
L 197.327222 203.707698 
L 197.883312 210.974298 
L 198.717447 225.576683 
L 200.107673 255.871295 
L 201.219853 278.420364 
L 201.775943 286.811299 
L 202.332033 292.45407 
L 202.610079 294.143717 
L 202.888124 295.063048 
L 203.166169 295.224471 
L 203.444214 294.658366 
L 203.722259 293.411535 
L 204.278349 289.131728 
L 205.112484 279.45365 
L 207.336845 250.845589 
L 207.892935 246.032116 
L 208.449025 242.828929 
L 208.72707 241.883474 
L 209.005115 241.393611 
L 209.28316 241.367215 
L 209.561205 241.808049 
L 209.83925 242.715396 
L 210.395341 245.904098 
L 210.951431 250.827686 
L 211.785566 260.980053 
L 214.566017 299.146964 
L 215.122107 302.592471 
L 215.400152 303.274708 
L 215.678197 303.199977 
L 215.956242 302.340717 
L 216.234287 300.688015 
L 216.790377 295.060275 
L 217.346467 286.619197 
L 218.180603 269.996471 
L 220.404963 222.196325 
L 221.239099 209.7708 
L 221.795189 203.997188 
L 222.351279 200.081479 
L 222.907369 197.70291 
L 223.463459 196.448006 
L 224.019549 195.884501 
L 225.409775 195.120699 
L 225.965865 194.434549 
L 226.521955 193.345772 
L 227.078045 191.818241 
L 227.91218 188.700779 
L 228.746316 184.638703 
L 229.858496 177.985477 
L 231.526766 167.461882 
L 232.082856 164.859589 
L 232.638947 163.333915 
L 232.916992 163.100486 
L 233.195037 163.281816 
L 233.473082 163.918566 
L 233.751127 165.043718 
L 234.307217 168.848098 
L 234.863307 174.766021 
L 235.697442 187.304039 
L 236.809623 208.829232 
L 238.477893 241.645413 
L 239.312028 253.740666 
L 239.868119 259.177319 
L 240.424209 262.289135 
L 240.702254 262.969615 
L 240.980299 263.086342 
L 241.258344 262.667149 
L 241.536389 261.749576 
L 242.092479 258.610818 
L 242.926614 251.53939 
L 244.594885 235.960771 
L 245.150975 232.507217 
L 245.42902 231.406628 
L 245.707065 230.795185 
L 245.98511 230.717235 
L 246.263155 231.20841 
L 246.5412 232.294636 
L 247.09729 236.301889 
L 247.653381 242.718442 
L 248.487516 256.308564 
L 251.267967 309.196668 
L 251.824057 314.594296 
L 252.102102 316.00099 
L 252.380147 316.472727 
L 252.658192 315.979522 
L 252.936237 314.51283 
L 253.492327 308.734637 
L 254.048417 299.498384 
L 254.882553 280.662422 
L 257.663003 211.765661 
L 258.497139 198.438855 
L 259.053229 192.195215 
L 259.609319 187.855732 
L 260.165409 185.128566 
L 260.721499 183.692307 
L 260.999544 183.362876 
L 261.277589 183.247956 
L 261.555634 183.318948 
L 262.111724 183.924597 
L 262.667815 185.028355 
L 263.50195 187.383302 
L 266.004356 195.557522 
L 266.560446 196.38464 
L 266.838491 196.500129 
L 267.116536 196.390336 
L 267.394581 196.043125 
L 267.950671 194.62467 
L 268.506761 192.31053 
L 269.340896 187.667914 
L 270.453077 181.434079 
L 271.009167 179.443552 
L 271.287212 178.95302 
L 271.565257 178.872445 
L 271.843302 179.246844 
L 272.121347 180.111601 
L 272.677437 183.399201 
L 273.233527 188.789079 
L 274.067663 200.468061 
L 275.179843 220.76383 
L 277.126159 257.342097 
L 277.960294 269.069092 
L 278.516384 274.708965 
L 279.072474 278.393696 
L 279.350519 279.470463 
L 279.628564 280.027901 
L 279.906609 280.063261 
L 280.184654 279.577508 
L 280.462699 278.574185 
L 281.01879 275.045503 
L 281.57488 269.571237 
L 282.409015 258.068114 
L 283.521195 237.986138 
L 286.023601 189.793715 
L 286.857736 178.768891 
L 287.413826 173.943434 
L 287.969916 171.301448 
L 288.247962 170.794079 
L 288.526007 170.80688 
L 288.804052 171.311873 
L 289.082097 172.272978 
L 289.638187 175.383804 
L 290.472322 182.21997 
L 292.696683 202.43551 
L 293.530818 207.429373 
L 294.086908 209.554307 
L 294.642998 210.757286 
L 294.921043 211.048262 
L 295.199088 211.157635 
L 295.477133 211.107269 
L 296.033224 210.618644 
L 296.867359 209.256002 
L 298.535629 206.165084 
L 299.091719 205.454445 
L 299.64781 205.049763 
L 300.2039 205.019851 
L 300.75999 205.418169 
L 301.31608 206.273962 
L 301.87217 207.582029 
L 302.706305 210.273861 
L 305.486756 220.494446 
L 306.320891 222.467962 
L 308.267207 226.243915 
L 308.823297 227.942674 
L 309.379387 230.261618 
L 309.935477 233.318512 
L 310.769613 239.36443 
L 311.881793 249.741114 
L 313.828108 269.032271 
L 314.384199 273.100364 
L 314.940289 275.805195 
L 315.218334 276.535248 
L 315.496379 276.800472 
L 315.774424 276.571821 
L 316.052469 275.827852 
L 316.330514 274.556408 
L 316.886604 270.43161 
L 317.442694 264.306009 
L 318.27683 252.020166 
L 321.05728 205.973057 
L 321.61337 199.953065 
L 322.169461 195.770424 
L 322.725551 193.405869 
L 323.003596 192.849521 
L 323.281641 192.66096 
L 323.559686 192.793609 
L 323.837731 193.1947 
L 324.393821 194.57579 
L 325.784047 198.789086 
L 326.340137 199.801151 
L 326.618182 200.038939 
L 326.896227 200.078731 
L 327.174272 199.914733 
L 327.452317 199.547887 
L 328.008407 198.236898 
L 328.564497 196.248748 
L 329.398633 192.329102 
L 331.901038 179.333337 
L 332.457128 177.484942 
L 332.735173 176.90304 
L 333.013219 176.608498 
L 333.291264 176.648835 
L 333.569309 177.073574 
L 333.847354 177.932809 
L 334.403444 181.14449 
L 334.959534 186.617865 
L 335.515624 194.560487 
L 336.349759 211.055269 
L 337.46194 239.573345 
L 339.13021 282.672462 
L 339.6863 292.943363 
L 340.24239 299.709007 
L 340.520436 301.62473 
L 340.798481 302.528387 
L 341.076526 302.425576 
L 341.354571 301.346506 
L 341.632616 299.344489 
L 342.188706 292.88651 
L 343.022841 278.645127 
L 345.247202 236.894737 
L 345.803292 229.924436 
L 346.359382 225.271643 
L 346.637427 223.86542 
L 346.915472 223.081312 
L 347.193517 222.916225 
L 347.471562 223.360675 
L 347.749607 224.398764 
L 348.305698 228.16719 
L 348.861788 233.991935 
L 349.695923 245.873121 
L 352.476374 291.492767 
L 353.032464 296.743632 
L 353.310509 298.356443 
L 353.588554 299.218575 
L 353.866599 299.290186 
L 354.144644 298.546218 
L 354.422689 296.9783 
L 354.978779 291.422171 
L 355.53487 282.894006 
L 356.369005 265.730977 
L 359.149456 202.924284 
L 359.983591 191.231931 
L 360.539681 186.175867 
L 361.095771 183.147621 
L 361.373816 182.304259 
L 361.651861 181.848097 
L 361.929906 181.729587 
L 362.207951 181.897843 
L 362.764042 182.891039 
L 363.598177 185.306777 
L 364.710357 188.576871 
L 365.266447 189.683525 
L 365.822537 190.204118 
L 366.100582 190.204984 
L 366.378628 190.017265 
L 366.656673 189.632863 
L 367.212763 188.258855 
L 367.768853 186.097669 
L 368.602988 181.622319 
L 370.271259 171.752682 
L 370.827349 169.826709 
L 371.105394 169.417892 
L 371.383439 169.463305 
L 371.661484 170.019133 
L 371.939529 171.132449 
L 372.495619 175.162458 
L 373.051709 181.674814 
L 373.885845 195.7495 
L 374.998025 219.961052 
L 376.38825 250.379448 
L 377.222385 264.069262 
L 377.778476 270.197091 
L 378.334566 273.705914 
L 378.612611 274.493389 
L 378.890656 274.671327 
L 379.168701 274.280512 
L 379.446746 273.371134 
L 380.002836 270.236537 
L 380.836971 263.2726 
L 382.505242 248.354898 
L 383.061332 245.047958 
L 383.617422 243.296333 
L 383.895467 243.101532 
L 384.173512 243.399614 
L 384.451557 244.209771 
L 385.007648 247.401519 
L 385.563738 252.653498 
L 386.397873 263.942135 
L 387.788098 288.002045 
L 388.900279 305.600213 
L 389.456369 311.60931 
L 390.012459 314.809526 
L 390.290504 315.200366 
L 390.568549 314.73534 
L 390.846594 313.401669 
L 391.402684 308.177992 
L 391.958774 299.832173 
L 392.79291 282.82705 
L 395.295315 226.776393 
L 396.12945 214.205962 
L 396.685541 208.219869 
L 397.241631 203.907179 
L 397.797721 200.915977 
L 398.353811 198.847029 
L 399.187946 196.647462 
L 400.300127 193.878077 
L 401.134262 191.125108 
L 401.968397 187.429359 
L 402.802532 182.618065 
L 403.914713 174.404598 
L 406.695163 151.627399 
L 407.251253 149.264627 
L 407.529299 148.704069 
L 407.807344 148.621414 
L 408.085389 149.056529 
L 408.363434 150.040365 
L 408.919524 153.727918 
L 409.475614 159.716908 
L 410.309749 172.623902 
L 411.42193 195.014768 
L 413.368245 235.415491 
L 414.20238 248.338258 
L 414.75847 254.521183 
L 415.314561 258.545868 
L 415.592606 259.730572 
L 415.870651 260.369105 
L 416.148696 260.475234 
L 416.426741 260.070106 
L 416.704786 259.182445 
L 417.260876 256.110396 
L 418.095011 249.006084 
L 420.041327 229.96975 
L 420.597417 226.435844 
L 421.153507 224.586459 
L 421.431552 224.366945 
L 421.709597 224.630039 
L 421.987642 225.366357 
L 422.543733 228.145721 
L 423.377868 234.76896 
L 424.768093 246.69915 
L 425.324183 249.478416 
L 425.602228 250.08347 
L 425.880273 250.07988 
L 426.158319 249.423667 
L 426.436364 248.090689 
L 426.436364 248.090689 
" clip-path="url(#pd4ef6139d3)" style="fill: none; stroke-dasharray: 11.1,4.8; stroke-dashoffset: 0; stroke: #000000; stroke-width: 3"/>
   </g>
   <g id="line2d_2">
    <path d="M 27.163636 169.681085 
L 28.553862 171.652719 
L 29.944087 174.064247 
L 31.334312 176.958828 
L 32.724538 180.37982 
L 34.114763 184.371028 
L 35.226944 187.995265 
L 35.504989 187.778401 
L 36.061079 185.624743 
L 37.451304 182.652732 
L 38.84153 180.291124 
L 39.95371 178.794792 
L 41.06589 177.608776 
L 42.17807 176.697814 
L 43.290251 176.027066 
L 44.680476 175.473887 
L 46.070701 175.175557 
L 47.738972 175.061826 
L 50.241378 175.159338 
L 52.743783 175.312292 
L 53.577918 175.870967 
L 54.134009 176.754518 
L 55.524234 179.590043 
L 56.914459 182.962007 
L 58.58273 187.658232 
L 60.251 193.003267 
L 62.197316 199.983348 
L 64.421676 208.845649 
L 66.924082 219.820751 
L 69.982578 233.824 
L 70.260623 232.969099 
L 71.650848 224.898606 
L 75.265434 210.421837 
L 77.489795 202.316109 
L 79.43611 196.046765 
L 81.104381 191.470288 
L 82.494606 188.33059 
L 83.606787 186.319782 
L 84.718967 184.798714 
L 85.553102 183.989473 
L 86.387237 183.481831 
L 87.221372 183.300451 
L 87.499418 183.545618 
L 89.167688 189.143842 
L 90.835958 195.603678 
L 93.060319 205.159953 
L 99.177311 231.974739 
L 100.845581 238.154147 
L 102.235807 242.57465 
L 103.347987 245.524326 
L 104.460167 247.847281 
L 104.738212 248.320677 
L 105.016257 248.113396 
L 105.572347 244.815296 
L 106.962573 235.056569 
L 110.021069 223.364661 
L 116.416105 197.153495 
L 117.806331 192.536086 
L 119.196556 188.730691 
L 120.308736 186.398797 
L 121.142872 185.143423 
L 121.977007 184.35986 
L 122.255052 184.211116 
L 122.533097 184.481936 
L 124.201367 190.398646 
L 126.147683 198.101525 
L 128.928134 210.243651 
L 132.820765 227.257069 
L 134.76708 234.810486 
L 136.435351 240.376049 
L 137.825576 244.164259 
L 138.937756 246.515343 
L 139.771892 247.828586 
L 140.049937 247.174701 
L 141.162117 239.747371 
L 141.996252 234.069761 
L 142.830387 231.18506 
L 145.332793 222.625249 
L 149.781514 207.276394 
L 151.449785 202.340895 
L 152.84001 198.893928 
L 153.95219 196.69399 
L 154.786326 195.427596 
L 155.620461 194.530179 
L 156.176551 194.154419 
L 156.732641 193.969027 
L 157.010686 193.969027 
L 158.678957 199.343899 
L 159.791137 202.809314 
L 162.571588 210.917742 
L 167.020309 223.936981 
L 169.24467 229.720869 
L 170.91294 233.532454 
L 172.303165 236.230996 
L 173.693391 238.415508 
L 174.249481 239.130357 
L 174.527526 238.660823 
L 175.361661 233.610231 
L 176.751887 224.810033 
L 177.307977 223.171866 
L 184.815194 204.147121 
L 186.205419 201.363572 
L 187.595644 199.076942 
L 188.707825 197.683546 
L 189.54196 196.930985 
L 190.376095 196.458876 
L 191.21023 196.291387 
L 191.488276 196.449739 
L 193.156546 200.39224 
L 199.273538 216.031427 
L 204.278349 229.644628 
L 206.50271 235.079696 
L 208.17098 238.637101 
L 208.449025 239.17785 
L 208.72707 238.945534 
L 209.28316 235.580207 
L 211.229476 221.927164 
L 211.785566 220.323441 
L 217.902558 206.919676 
L 219.570828 203.902969 
L 220.961053 201.823175 
L 222.073234 200.502603 
L 223.185414 199.541177 
L 224.019549 199.095241 
L 224.853684 198.907943 
L 225.409775 198.935354 
L 225.68782 199.156304 
L 227.078045 201.934084 
L 230.970676 210.720093 
L 232.916992 215.893652 
L 235.975487 224.74481 
L 240.702254 238.442672 
L 242.648569 243.545437 
L 242.926614 242.991936 
L 245.98511 223.865593 
L 248.487516 216.477338 
L 250.433831 211.333493 
L 252.102102 207.480357 
L 253.492327 204.742865 
L 254.882553 202.502095 
L 255.994733 201.111323 
L 257.106913 200.112456 
L 257.941048 199.634653 
L 258.775184 199.40833 
L 259.609319 199.446809 
L 260.165409 200.16297 
L 261.555634 202.520121 
L 264.336085 207.968561 
L 265.72631 211.290977 
L 267.394581 215.909847 
L 269.340896 221.980204 
L 272.121347 231.49946 
L 276.570068 247.510817 
L 276.848113 247.74858 
L 277.126159 246.82026 
L 279.072474 236.424188 
L 280.462699 228.958007 
L 286.023601 211.533098 
L 287.691871 207.024567 
L 289.082097 203.797905 
L 290.194277 201.659475 
L 291.306457 199.988746 
L 292.140593 199.083578 
L 292.974728 198.518316 
L 293.530818 198.338075 
L 293.808863 198.310044 
L 294.364953 199.00179 
L 295.755179 201.26554 
L 297.701494 204.563243 
L 298.813674 206.020129 
L 299.925855 207.916933 
L 301.038035 210.257097 
L 302.42826 213.812076 
L 303.818486 218.07336 
L 305.208711 223.042164 
L 306.876982 229.944567 
L 308.545252 237.877483 
L 310.213522 246.860374 
L 310.769613 249.800047 
L 311.047658 250.135569 
L 311.881793 248.553488 
L 312.715928 246.402132 
L 313.828108 242.744615 
L 314.940289 238.8114 
L 316.330514 234.494624 
L 318.27683 227.598782 
L 323.559686 208.222543 
L 324.949911 204.10978 
L 326.062092 201.445781 
L 326.896227 199.899901 
L 327.730362 198.810604 
L 328.008407 198.558504 
L 328.286452 198.7903 
L 329.676678 200.932766 
L 331.066903 203.489719 
L 331.622993 204.636637 
L 332.179083 204.980876 
L 333.013219 205.460215 
L 333.847354 206.199553 
L 334.681489 207.211518 
L 335.515624 208.50874 
L 336.627805 210.704419 
L 337.739985 213.458304 
L 338.852165 216.794016 
L 340.24239 221.819079 
L 341.632616 227.836917 
L 343.022841 234.888634 
L 344.413067 243.011919 
L 344.969157 246.25938 
L 345.247202 246.955905 
L 345.803292 247.116114 
L 346.359382 246.935229 
L 346.915472 246.417286 
L 347.471562 245.579173 
L 348.305698 243.758413 
L 349.695923 240.30107 
L 350.808103 237.386333 
L 352.198329 233.110043 
L 354.144644 226.300075 
L 359.427501 207.203223 
L 360.817726 203.122551 
L 361.929906 200.457933 
L 362.485996 199.369998 
L 362.764042 199.584931 
L 364.154267 202.46936 
L 365.822537 206.519277 
L 366.100582 207.261067 
L 369.159078 211.235857 
L 370.549304 213.733531 
L 371.939529 216.713268 
L 373.329754 220.191956 
L 374.998025 225.048464 
L 376.666295 230.681033 
L 378.334566 237.115265 
L 380.002836 244.414477 
L 381.115016 249.43528 
L 381.949152 252.106064 
L 382.505242 253.371541 
L 383.061332 254.235976 
L 383.617422 254.736635 
L 384.173512 254.95808 
L 384.729602 254.92589 
L 385.285693 254.65138 
L 385.841783 254.145794 
L 386.675918 252.97877 
L 387.510053 251.355113 
L 388.622233 248.533753 
L 389.734414 245.0592 
L 391.124639 239.936873 
L 392.79291 232.880798 
L 395.01727 222.433444 
L 398.075766 207.432047 
L 398.353811 206.740202 
L 400.856217 211.603669 
L 403.080577 212.80531 
L 410.309749 216.381708 
L 411.97802 217.568813 
L 413.64629 219.039739 
L 415.036516 220.535897 
L 416.704786 222.617845 
L 416.982831 222.562948 
L 418.373056 220.458962 
L 423.377868 212.019395 
L 426.436364 206.958453 
L 426.436364 206.958453 
" clip-path="url(#pd4ef6139d3)" style="fill: none; stroke: #ff00ff; stroke-width: 3; stroke-linecap: square"/>
   </g>
   <g id="patch_3">
    <path d="M 7.2 331.2 
L 7.2 7.2 
" style="fill: none; stroke: #000000; stroke-width: 0.8; stroke-linejoin: miter; stroke-linecap: square"/>
   </g>
   <g id="patch_4">
    <path d="M 446.4 331.2 
L 446.4 7.2 
" style="fill: none; stroke: #000000; stroke-width: 0.8; stroke-linejoin: miter; stroke-linecap: square"/>
   </g>
   <g id="patch_5">
    <path d="M 7.2 331.2 
L 446.4 331.2 
" style="fill: none; stroke: #000000; stroke-width: 0.8; stroke-linejoin: miter; stroke-linecap: square"/>
   </g>
   <g id="patch_6">
    <path d="M 7.2 7.2 
L 446.4 7.2 
" style="fill: none; stroke: #000000; stroke-width: 0.8; stroke-linejoin: miter; stroke-linecap: square"/>
   </g>
  </g>
 </g>
 <defs>
  <clipPath id="pd4ef6139d3">
   <rect x="7.2" y="7.2" width="439.2" height="324"/>
  </clipPath>
 </defs>
</svg>
