<?xml version="1.0" encoding="utf-8" standalone="no"?>
<!DOCTYPE svg PUBLIC "-//W3C//DTD SVG 1.1//EN"
  "http://www.w3.org/Graphics/SVG/1.1/DTD/svg11.dtd">
<svg xmlns:xlink="http://www.w3.org/1999/xlink" width="453.6pt" height="338.4pt" viewBox="0 0 453.6 338.4" xmlns="http://www.w3.org/2000/svg" version="1.1">
 <metadata>
  <rdf:RDF xmlns:dc="http://purl.org/dc/elements/1.1/" xmlns:cc="http://creativecommons.org/ns#" xmlns:rdf="http://www.w3.org/1999/02/22-rdf-syntax-ns#">
   <cc:Work>
    <dc:type rdf:resource="http://purl.org/dc/dcmitype/StillImage"/>
    <dc:date>2025-05-15T17:17:35.250837</dc:date>
    <dc:format>image/svg+xml</dc:format>
    <dc:creator>
     <cc:Agent>
      <dc:title>Matplotlib v3.10.1, https://matplotlib.org/</dc:title>
     </cc:Agent>
    </dc:creator>
   </cc:Work>
  </rdf:RDF>
 </metadata>
 <defs>
  <style type="text/css">*{stroke-linejoin: round; stroke-linecap: butt}</style>
 </defs>
 <g id="figure_1">
  <g id="patch_1">
   <path d="M 0 338.4 
L 453.6 338.4 
L 453.6 0 
L 0 0 
z
" style="fill: #ffffff"/>
  </g>
  <g id="axes_1">
   <g id="patch_2">
    <path d="M 7.2 331.2 
L 446.4 331.2 
L 446.4 7.2 
L 7.2 7.2 
z
" style="fill: #ffffff"/>
   </g>
   <g id="matplotlib.axis_1"/>
   <g id="matplotlib.axis_2"/>
   <g id="line2d_1">
    <path d="M 27.163636 241.395772 
L 27.719727 240.096618 
L 28.275817 238.328817 
L 28.831907 236.018003 
L 29.666042 231.267736 
L 30.500177 224.893856 
L 32.446493 208.582186 
L 33.002583 205.717504 
L 33.280628 204.905037 
L 33.558673 204.571045 
L 33.836718 204.749262 
L 34.114763 205.462426 
L 34.392808 206.720363 
L 34.948898 210.848408 
L 35.504989 216.969997 
L 36.339124 229.182811 
L 37.729349 254.12681 
L 39.675665 288.823342 
L 40.787845 304.366844 
L 41.62198 312.36155 
L 42.17807 315.443613 
L 42.456115 316.224836 
L 42.734161 316.472727 
L 43.012206 316.177752 
L 43.290251 315.335069 
L 43.846341 312.040905 
L 44.402431 306.749385 
L 45.236566 295.75505 
L 46.904837 268.46078 
L 48.017017 251.490365 
L 48.851152 241.392545 
L 49.685287 234.151926 
L 50.241378 230.969974 
L 50.797468 229.044931 
L 51.075513 228.521279 
L 51.353558 228.261801 
L 51.631603 228.245372 
L 51.909648 228.442072 
L 52.465738 229.34152 
L 54.134009 232.888709 
L 54.412054 233.057392 
L 54.690099 232.959409 
L 54.968144 232.542248 
L 55.246189 231.761318 
L 55.802279 228.953549 
L 56.358369 224.305665 
L 56.914459 217.731272 
L 57.748595 204.432724 
L 58.860775 181.590078 
L 63.031451 87.999036 
L 63.865586 74.803752 
L 64.421676 68.190342 
L 64.977767 63.673444 
L 65.255812 62.282321 
L 65.533857 61.503151 
L 65.811902 61.349869 
L 66.089947 61.831716 
L 66.367992 62.946786 
L 66.924082 67.021 
L 67.480172 73.36085 
L 68.314307 86.291668 
L 71.650848 144.96293 
L 72.484984 153.792398 
L 73.041074 157.630162 
L 73.597164 159.837566 
L 73.875209 160.34787 
L 74.153254 160.474162 
L 74.431299 160.227004 
L 74.709344 159.616518 
L 75.265434 157.343988 
L 75.821524 153.73666 
L 76.65566 146.025341 
L 77.489795 135.953191 
L 79.158065 111.930349 
L 80.270246 96.931181 
L 81.104381 88.514473 
L 81.660471 84.876782 
L 82.216561 83.05471 
L 82.494606 82.850676 
L 82.772651 83.117929 
L 83.050696 83.846054 
L 83.606787 86.609233 
L 84.162877 90.931191 
L 84.997012 99.691426 
L 88.333553 139.079552 
L 88.889643 143.075878 
L 89.445733 145.752515 
L 89.723778 146.570995 
L 90.001823 147.041548 
L 90.279868 147.16828 
L 90.557913 146.961607 
L 90.835958 146.435902 
L 91.392049 144.514673 
L 91.948139 141.616841 
L 93.060319 134.018467 
L 94.450544 124.363185 
L 95.28468 120.153731 
L 95.84077 118.390037 
L 96.39686 117.551462 
L 96.674905 117.479441 
L 96.95295 117.630523 
L 97.230995 117.995612 
L 97.787085 119.310608 
L 98.343175 121.289483 
L 99.177311 125.160543 
L 103.069942 145.039498 
L 104.182122 149.056359 
L 105.016257 151.391082 
L 105.850393 153.126466 
L 106.684528 154.274539 
L 107.518663 154.909962 
L 108.352798 155.20039 
L 109.464978 155.50094 
L 110.021069 155.815717 
L 110.577159 156.358731 
L 111.133249 157.202294 
L 111.689339 158.401852 
L 112.523474 160.955276 
L 113.35761 164.492931 
L 114.191745 169.088302 
L 115.02588 174.842748 
L 115.860015 181.87464 
L 116.972195 193.358449 
L 118.362421 210.679872 
L 120.586781 239.30498 
L 121.420917 247.40691 
L 121.977007 251.235433 
L 122.533097 253.54214 
L 122.811142 254.073419 
L 123.089187 254.171988 
L 123.367232 253.831541 
L 123.645277 253.051198 
L 124.201367 250.198398 
L 124.757458 245.727705 
L 125.591593 236.473741 
L 126.981818 217.122252 
L 128.372044 198.6928 
L 129.206179 190.817052 
L 129.762269 187.546944 
L 130.040314 186.573862 
L 130.318359 186.055931 
L 130.596404 185.995205 
L 130.874449 186.385816 
L 131.152494 187.214418 
L 131.708584 190.107849 
L 132.264675 194.458117 
L 133.09881 203.065657 
L 136.157306 238.229074 
L 136.991441 244.572591 
L 137.547531 247.557845 
L 138.103621 249.575883 
L 138.659711 250.718529 
L 138.937756 251.004117 
L 139.215801 251.123809 
L 139.493847 251.099313 
L 140.049937 250.700047 
L 140.606027 249.966495 
L 141.718207 248.017103 
L 143.664523 244.579338 
L 145.610838 241.655691 
L 148.669334 237.505643 
L 150.337604 235.152585 
L 151.449785 233.229009 
L 152.561965 230.756699 
L 153.674145 227.573866 
L 154.786326 223.646627 
L 156.176551 217.872672 
L 159.235047 204.7918 
L 160.069182 202.314649 
L 160.625272 201.216008 
L 161.181362 200.644685 
L 161.459407 200.571051 
L 161.737453 200.642485 
L 162.015498 200.86016 
L 162.571588 201.717364 
L 163.127678 203.091912 
L 163.961813 205.908189 
L 166.186174 214.297468 
L 166.742264 215.736262 
L 167.298354 216.670914 
L 167.854444 217.050378 
L 168.132489 217.028083 
L 168.410534 216.86644 
L 168.966624 216.147849 
L 169.522715 214.946825 
L 170.35685 212.381813 
L 171.190985 209.0699 
L 172.303165 203.685531 
L 173.415346 197.253418 
L 174.805571 187.720174 
L 176.473841 174.451843 
L 179.254292 151.925001 
L 180.366473 144.48387 
L 181.478653 138.530524 
L 182.312788 135.06621 
L 183.146923 132.373146 
L 183.981058 130.331492 
L 184.815194 128.833878 
L 185.649329 127.836593 
L 186.205419 127.472677 
L 186.761509 127.392003 
L 187.317599 127.646348 
L 187.87369 128.293651 
L 188.42978 129.385399 
L 188.98587 130.959287 
L 189.820005 134.239369 
L 190.65414 138.528324 
L 192.044366 147.175761 
L 193.990681 159.283405 
L 195.102861 164.675842 
L 195.936997 167.784161 
L 197.049177 171.057643 
L 198.439402 175.067464 
L 199.273538 178.136765 
L 200.385718 183.346144 
L 202.610079 194.754559 
L 203.166169 196.76101 
L 203.722259 198.075126 
L 204.000304 198.440068 
L 204.278349 198.604058 
L 204.556394 198.565481 
L 204.834439 198.330351 
L 205.390529 197.310184 
L 205.946619 195.668676 
L 206.780755 192.42497 
L 208.449025 185.586698 
L 209.28316 183.200637 
L 209.83925 182.313949 
L 210.117296 182.122824 
L 210.395341 182.116663 
L 210.673386 182.308376 
L 210.951431 182.705735 
L 211.507521 184.161251 
L 212.063611 186.547752 
L 212.619701 189.899415 
L 213.453836 196.69119 
L 214.566017 208.410862 
L 216.512332 229.739466 
L 217.068422 233.972829 
L 217.624513 236.569964 
L 217.902558 237.144367 
L 218.180603 237.190865 
L 218.458648 236.690096 
L 218.736693 235.627098 
L 219.292783 231.824978 
L 219.848873 225.907129 
L 220.683008 213.733919 
L 223.741504 162.532391 
L 224.297594 156.935187 
L 224.853684 153.489649 
L 225.13173 152.628924 
L 225.409775 152.357271 
L 225.68782 152.676009 
L 225.965865 153.578684 
L 226.521955 157.086122 
L 227.078045 162.717649 
L 227.91218 174.616713 
L 229.024361 195.256942 
L 232.082856 255.795308 
L 232.916992 266.834233 
L 233.473082 271.820804 
L 234.029172 274.759706 
L 234.307217 275.457174 
L 234.585262 275.65358 
L 234.863307 275.367406 
L 235.141352 274.624319 
L 235.697442 271.892677 
L 236.253533 267.75319 
L 237.087668 259.648033 
L 240.146164 226.938884 
L 240.980299 221.178717 
L 241.536389 218.860716 
L 241.814434 218.232628 
L 242.092479 217.984297 
L 242.370524 218.131271 
L 242.648569 218.682645 
L 242.926614 219.64194 
L 243.482704 222.758033 
L 244.038795 227.348417 
L 244.87293 236.377225 
L 246.819245 259.260355 
L 247.375336 263.909119 
L 247.931426 266.943217 
L 248.209471 267.780766 
L 248.487516 268.148056 
L 248.765561 268.041272 
L 249.043606 267.468482 
L 249.321651 266.442741 
L 249.877741 263.124375 
L 250.433831 258.302674 
L 251.267967 248.792459 
L 252.380147 232.998133 
L 254.048417 205.13782 
L 255.994733 172.435858 
L 256.828868 161.731512 
L 257.384958 156.746556 
L 257.941048 153.87498 
L 258.219093 153.29955 
L 258.497139 153.313631 
L 258.775184 153.915904 
L 259.053229 155.096247 
L 259.609319 159.088906 
L 260.165409 164.9959 
L 260.999544 176.49335 
L 263.50195 213.445837 
L 264.336085 221.528992 
L 264.892175 224.957076 
L 265.448265 226.719889 
L 265.72631 226.974087 
L 266.004356 226.812151 
L 266.282401 226.242002 
L 266.838491 223.906546 
L 267.394581 220.042672 
L 267.950671 214.743378 
L 268.784806 204.369651 
L 269.896987 186.964913 
L 272.677437 140.826083 
L 273.511573 130.817593 
L 274.345708 123.349618 
L 275.457888 116.005883 
L 276.570068 108.867941 
L 277.404204 102.056071 
L 278.516384 90.475599 
L 280.740744 65.555656 
L 281.57488 58.37503 
L 282.409015 52.712113 
L 283.79924 45.130901 
L 286.301646 32.661395 
L 287.135781 29.739508 
L 287.691871 28.454581 
L 288.247962 27.672624 
L 288.804052 27.265584 
L 290.194277 26.596132 
L 290.750367 26.013808 
L 291.584502 24.639113 
L 292.696683 22.582497 
L 293.252773 21.995479 
L 293.530818 21.927273 
L 293.808863 22.046524 
L 294.086908 22.374063 
L 294.642998 23.709888 
L 295.199088 25.97215 
L 296.033224 30.932318 
L 297.145404 39.561567 
L 300.481945 68.717807 
L 303.818486 98.295755 
L 304.652621 103.766666 
L 305.486756 107.956465 
L 306.598936 112.114287 
L 308.267207 117.991358 
L 309.657432 124.140816 
L 311.047658 130.060132 
L 311.603748 131.774687 
L 312.159838 132.936988 
L 312.715928 133.524299 
L 312.993973 133.615241 
L 313.550063 133.451105 
L 314.106153 132.927013 
L 314.940289 131.706187 
L 315.774424 130.133325 
L 316.608559 128.097392 
L 317.442694 125.259846 
L 318.27683 121.354756 
L 320.779235 108.079384 
L 321.05728 107.477844 
L 321.335325 107.273958 
L 321.61337 107.524636 
L 321.891416 108.279163 
L 322.169461 109.577291 
L 322.725551 113.926825 
L 323.281641 120.697478 
L 324.115776 135.239441 
L 324.949911 154.24535 
L 326.618182 199.453928 
L 328.008407 235.210964 
L 328.842542 251.583507 
L 329.398633 259.213124 
L 329.954723 263.690711 
L 330.232768 264.647365 
L 330.510813 264.714251 
L 330.788858 263.88213 
L 331.066903 262.152906 
L 331.622993 256.076936 
L 332.179083 246.770607 
L 333.013219 227.875883 
L 336.349759 143.049182 
L 336.90585 135.203944 
L 337.46194 130.605198 
L 337.739985 129.589872 
L 338.01803 129.445831 
L 338.296075 130.169996 
L 338.57412 131.748871 
L 339.13021 137.36969 
L 339.6863 146.004953 
L 340.520436 163.586588 
L 341.910661 199.882237 
L 343.300886 234.79747 
L 344.135022 250.53239 
L 344.691112 257.782543 
L 345.247202 262.106408 
L 345.525247 263.129949 
L 345.803292 263.392215 
L 346.081337 262.902007 
L 346.359382 261.675899 
L 346.915472 257.119838 
L 347.471562 249.98923 
L 348.305698 235.252328 
L 349.417878 210.428754 
L 351.364193 165.294983 
L 352.198329 150.711802 
L 352.754419 143.991168 
L 353.310509 140.111013 
L 353.588554 139.299427 
L 353.866599 139.247062 
L 354.144644 139.942037 
L 354.422689 141.360296 
L 354.978779 146.197105 
L 355.53487 153.314365 
L 356.369005 166.955266 
L 358.593365 205.441743 
L 359.427501 216.056027 
L 360.261636 223.528989 
L 360.817726 226.794696 
L 361.373816 228.777385 
L 361.651861 229.314384 
L 361.929906 229.560662 
L 362.207951 229.523551 
L 362.485996 229.2076 
L 362.764042 228.617649 
L 363.320132 226.62616 
L 363.876222 223.563605 
L 364.710357 217.030283 
L 365.544492 208.422597 
L 367.212763 187.712694 
L 368.324943 174.801384 
L 369.159078 167.543164 
L 369.715168 164.306059 
L 370.271259 162.449956 
L 370.549304 162.024728 
L 370.827349 161.91237 
L 371.105394 162.086627 
L 371.383439 162.515669 
L 371.939529 163.98028 
L 373.051709 168.131355 
L 373.885845 170.927096 
L 374.441935 172.064168 
L 374.71998 172.324967 
L 374.998025 172.351517 
L 375.27607 172.126508 
L 375.554115 171.637473 
L 376.110205 169.838723 
L 376.666295 166.943531 
L 377.50043 160.68861 
L 378.612611 149.590719 
L 381.115016 122.85985 
L 381.949152 116.327848 
L 382.783287 111.63772 
L 383.339377 109.457746 
L 383.895467 107.895886 
L 384.451557 106.802965 
L 385.285693 105.732486 
L 386.119828 105.052326 
L 386.953963 104.685183 
L 387.510053 104.697504 
L 388.066143 105.028857 
L 388.622233 105.789252 
L 389.178324 107.076672 
L 389.734414 108.95463 
L 390.568549 112.895951 
L 391.402684 118.009547 
L 393.349 132.035339 
L 394.739225 141.215668 
L 395.851405 147.189109 
L 397.241631 153.261266 
L 398.909901 159.527042 
L 400.022082 163.145518 
L 400.856217 165.301877 
L 401.690352 166.785703 
L 402.246442 167.369053 
L 402.802532 167.658308 
L 403.358622 167.717421 
L 405.582983 167.601983 
L 406.139073 167.900332 
L 406.973208 168.674222 
L 408.363434 170.186064 
L 408.919524 170.533551 
L 409.475614 170.567288 
L 410.031704 170.216427 
L 410.587794 169.456912 
L 411.143885 168.313093 
L 411.97802 166.025601 
L 414.480425 158.490447 
L 415.036516 157.448571 
L 415.592606 156.904678 
L 415.870651 156.859647 
L 416.148696 156.985792 
L 416.426741 157.300863 
L 416.982831 158.546773 
L 417.538921 160.691543 
L 418.095011 163.792675 
L 418.929147 170.238135 
L 419.763282 178.639735 
L 421.153507 195.688331 
L 423.655913 227.131623 
L 424.768093 237.818367 
L 425.602228 243.767165 
L 426.436364 247.976766 
L 426.436364 247.976766 
" clip-path="url(#p34838a2816)" style="fill: none; stroke-dasharray: 11.1,4.8; stroke-dashoffset: 0; stroke: #000000; stroke-width: 3"/>
   </g>
   <g id="line2d_2">
    <path d="M 27.163636 201.298443 
L 27.997772 201.450551 
L 28.553862 201.357702 
L 29.109952 201.103064 
L 29.944087 200.401928 
L 30.778222 199.295366 
L 31.612358 197.758295 
L 32.446493 195.765485 
L 33.280628 193.285842 
L 34.392808 189.185812 
L 35.504989 184.124141 
L 36.339124 180.144976 
L 36.617169 179.138744 
L 36.895214 178.65939 
L 38.563484 178.476772 
L 40.231755 178.524297 
L 41.900025 178.782015 
L 43.846341 179.326496 
L 45.792656 180.110653 
L 48.017017 181.27178 
L 50.241378 182.686373 
L 52.743783 184.546876 
L 53.577918 185.209434 
L 53.855964 185.246398 
L 56.636414 182.887619 
L 61.919271 177.391625 
L 63.031451 176.717919 
L 63.865586 176.445679 
L 64.699721 176.413849 
L 65.533857 176.658367 
L 66.367992 177.215608 
L 67.202127 178.120777 
L 68.036262 179.40893 
L 68.870398 181.114245 
L 69.704533 183.270603 
L 73.319119 194.32053 
L 74.431299 197.529912 
L 75.543479 200.176772 
L 76.65566 202.304822 
L 77.76784 203.956597 
L 78.88002 205.175664 
L 79.992201 206.004852 
L 81.104381 206.486993 
L 82.216561 206.664624 
L 83.328741 206.580135 
L 84.440922 206.276212 
L 85.831147 205.651791 
L 88.333553 204.366278 
L 90.835958 204.443432 
L 93.616409 204.322713 
L 96.674905 203.957918 
L 99.733401 203.365179 
L 103.069942 202.477905 
L 106.684528 201.341127 
L 109.743024 202.086414 
L 111.133249 202.178236 
L 112.523474 202.048276 
L 113.635655 201.753741 
L 114.747835 201.264413 
L 115.860015 200.55697 
L 116.972195 199.607943 
L 118.084376 198.393864 
L 119.196556 196.891263 
L 120.308736 195.075644 
L 121.698962 192.330361 
L 123.089187 189.024609 
L 123.645277 187.781047 
L 125.869638 185.994031 
L 127.537908 184.903311 
L 129.484224 183.889598 
L 132.54272 182.598364 
L 135.879261 181.158836 
L 137.825576 180.087771 
L 139.493847 178.92899 
L 141.440162 177.474207 
L 143.386478 176.471495 
L 152.561965 171.996402 
L 155.064371 170.414006 
L 157.288731 168.732747 
L 157.844821 168.342722 
L 160.069182 168.562744 
L 163.405723 169.070847 
L 169.522715 170.051117 
L 172.02512 170.220974 
L 174.249481 170.14954 
L 175.639706 169.926878 
L 179.532337 169.207701 
L 185.927374 168.139716 
L 188.98587 167.858528 
L 191.488276 167.833446 
L 191.766321 167.84474 
L 192.600456 168.428384 
L 193.434591 169.134947 
L 196.215042 172.113893 
L 199.273538 175.112641 
L 201.775943 177.292322 
L 204.000304 178.976221 
L 206.224664 180.382453 
L 208.17098 181.355682 
L 208.72707 181.518645 
L 210.117296 181.422128 
L 210.673386 181.265473 
L 212.341656 180.054034 
L 216.234287 177.281175 
L 219.292783 175.3708 
L 221.795189 174.058298 
L 224.019549 173.127019 
L 225.409775 172.674802 
L 226.8 172.753423 
L 227.91218 172.919906 
L 229.302406 172.15423 
L 234.307217 169.165897 
L 236.531578 168.094245 
L 238.477893 167.409977 
L 240.146164 167.071584 
L 241.536389 167.001764 
L 242.648569 167.145511 
L 243.76075 167.781814 
L 244.87293 168.650313 
L 246.5412 170.006673 
L 247.931426 170.841435 
L 249.321651 171.384595 
L 250.433831 171.601829 
L 251.546012 171.621045 
L 252.658192 171.437987 
L 253.770372 171.048402 
L 254.882553 170.447303 
L 255.994733 169.631169 
L 257.384958 168.304145 
L 258.775184 166.630074 
L 260.721499 163.820838 
L 262.111724 161.376251 
L 264.05804 157.593492 
L 266.282401 153.77685 
L 268.228716 150.865964 
L 270.175032 148.34657 
L 272.121347 146.186837 
L 274.067663 144.355964 
L 276.013978 142.822853 
L 277.126159 142.110863 
L 277.682249 142.08182 
L 279.072474 142.278813 
L 280.462699 142.6904 
L 282.409015 143.516068 
L 284.077285 144.496631 
L 286.301646 146.026661 
L 288.804052 148.014924 
L 291.584502 150.520237 
L 295.199088 153.881287 
L 297.979539 155.785941 
L 299.925855 156.846885 
L 301.594125 157.529539 
L 303.540441 158.102622 
L 305.764801 158.514356 
L 307.989162 158.699468 
L 310.491567 158.678932 
L 312.715928 158.458764 
L 315.496379 158.212633 
L 318.27683 158.242409 
L 320.779235 158.661184 
L 323.281641 159.323596 
L 325.506002 160.131808 
L 327.730362 161.158429 
L 331.622993 163.29616 
L 333.013219 164.258827 
L 334.681489 165.665792 
L 335.793669 166.843642 
L 337.46194 168.926953 
L 339.13021 171.330469 
L 340.798481 174.077073 
L 342.744796 177.746154 
L 344.691112 181.951941 
L 347.193517 188.037299 
L 349.973968 194.807805 
L 351.642239 197.749787 
L 353.032464 199.792615 
L 354.422689 201.469766 
L 355.812915 202.796643 
L 357.20314 203.782634 
L 358.31532 204.333274 
L 359.427501 204.677975 
L 360.539681 204.822749 
L 361.651861 204.773171 
L 362.764042 204.534521 
L 363.876222 204.112813 
L 364.432312 203.704159 
L 366.100582 202.135698 
L 369.159078 196.55551 
L 371.383439 192.926033 
L 373.607799 189.67294 
L 375.83216 186.8307 
L 377.778476 184.710278 
L 379.446746 183.185675 
L 381.115016 181.948567 
L 382.783287 180.997047 
L 385.563738 179.81553 
L 392.79291 176.944395 
L 394.739225 175.839299 
L 396.407496 174.666437 
L 398.075766 173.23571 
L 400.022082 171.493726 
L 401.134262 171.065417 
L 403.358622 169.948 
L 405.861028 168.93194 
L 408.919524 167.961792 
L 413.64629 166.751819 
L 417.816966 165.736053 
L 418.373056 166.106276 
L 419.207192 167.363039 
L 421.987642 172.131348 
L 426.436364 180.018244 
L 426.436364 180.018244 
" clip-path="url(#p34838a2816)" style="fill: none; stroke: #ff00ff; stroke-width: 3; stroke-linecap: square"/>
   </g>
   <g id="patch_3">
    <path d="M 7.2 331.2 
L 7.2 7.2 
" style="fill: none; stroke: #000000; stroke-width: 0.8; stroke-linejoin: miter; stroke-linecap: square"/>
   </g>
   <g id="patch_4">
    <path d="M 446.4 331.2 
L 446.4 7.2 
" style="fill: none; stroke: #000000; stroke-width: 0.8; stroke-linejoin: miter; stroke-linecap: square"/>
   </g>
   <g id="patch_5">
    <path d="M 7.2 331.2 
L 446.4 331.2 
" style="fill: none; stroke: #000000; stroke-width: 0.8; stroke-linejoin: miter; stroke-linecap: square"/>
   </g>
   <g id="patch_6">
    <path d="M 7.2 7.2 
L 446.4 7.2 
" style="fill: none; stroke: #000000; stroke-width: 0.8; stroke-linejoin: miter; stroke-linecap: square"/>
   </g>
  </g>
 </g>
 <defs>
  <clipPath id="p34838a2816">
   <rect x="7.2" y="7.2" width="439.2" height="324"/>
  </clipPath>
 </defs>
</svg>
