<?xml version="1.0" encoding="utf-8" standalone="no"?>
<!DOCTYPE svg PUBLIC "-//W3C//DTD SVG 1.1//EN"
  "http://www.w3.org/Graphics/SVG/1.1/DTD/svg11.dtd">
<svg xmlns:xlink="http://www.w3.org/1999/xlink" width="453.6pt" height="338.4pt" viewBox="0 0 453.6 338.4" xmlns="http://www.w3.org/2000/svg" version="1.1">
 <metadata>
  <rdf:RDF xmlns:dc="http://purl.org/dc/elements/1.1/" xmlns:cc="http://creativecommons.org/ns#" xmlns:rdf="http://www.w3.org/1999/02/22-rdf-syntax-ns#">
   <cc:Work>
    <dc:type rdf:resource="http://purl.org/dc/dcmitype/StillImage"/>
    <dc:date>2025-05-15T18:27:35.722077</dc:date>
    <dc:format>image/svg+xml</dc:format>
    <dc:creator>
     <cc:Agent>
      <dc:title>Matplotlib v3.10.1, https://matplotlib.org/</dc:title>
     </cc:Agent>
    </dc:creator>
   </cc:Work>
  </rdf:RDF>
 </metadata>
 <defs>
  <style type="text/css">*{stroke-linejoin: round; stroke-linecap: butt}</style>
 </defs>
 <g id="figure_1">
  <g id="patch_1">
   <path d="M 0 338.4 
L 453.6 338.4 
L 453.6 0 
L 0 0 
z
" style="fill: #ffffff"/>
  </g>
  <g id="axes_1">
   <g id="patch_2">
    <path d="M 7.2 331.2 
L 446.4 331.2 
L 446.4 7.2 
L 7.2 7.2 
z
" style="fill: #ffffff"/>
   </g>
   <g id="matplotlib.axis_1"/>
   <g id="matplotlib.axis_2"/>
   <g id="line2d_1">
    <path d="M 27.163636 292.171218 
L 27.997772 296.277417 
L 28.831907 299.474094 
L 29.666042 301.748481 
L 30.222132 302.752573 
L 30.778222 303.355912 
L 31.334312 303.575013 
L 31.890403 303.43434 
L 32.446493 302.965977 
L 33.002583 302.208534 
L 33.836718 300.622911 
L 34.948898 297.880761 
L 36.339124 293.762818 
L 37.729349 288.989116 
L 39.119575 283.412245 
L 40.5098 276.920526 
L 43.846341 260.524104 
L 44.680476 257.461029 
L 45.514611 255.176974 
L 46.348747 253.606669 
L 47.738972 251.471837 
L 48.295062 250.081803 
L 48.851152 247.851466 
L 49.407242 244.353776 
L 49.963332 239.157231 
L 50.519423 231.874312 
L 51.075513 222.217056 
L 51.909648 203.039933 
L 53.021828 169.62447 
L 56.080324 69.194936 
L 56.914459 51.225053 
L 57.47055 43.14369 
L 58.02664 38.256806 
L 58.304685 36.96478 
L 58.58273 36.390448 
L 58.860775 36.483031 
L 59.13882 37.181478 
L 59.69491 40.114897 
L 60.529045 47.175778 
L 62.475361 65.501261 
L 63.309496 70.967328 
L 64.143631 74.795054 
L 65.811902 81.292661 
L 66.646037 85.97912 
L 67.480172 92.285196 
L 68.592352 102.747749 
L 70.816713 124.520685 
L 71.928893 133.203387 
L 73.041074 140.01716 
L 74.153254 145.37141 
L 75.265434 149.692933 
L 76.377615 153.165476 
L 77.489795 155.829959 
L 78.601975 157.815059 
L 82.772651 164.354068 
L 84.162877 167.277994 
L 86.109192 171.958142 
L 88.333553 177.22282 
L 90.001823 181.014138 
L 90.557913 182.714146 
L 91.114004 184.941998 
L 91.670094 187.913076 
L 92.226184 191.822575 
L 93.060319 199.732319 
L 93.894454 210.151657 
L 95.006635 227.137694 
L 97.230995 262.58434 
L 98.06513 273.108911 
L 98.899266 281.138352 
L 99.733401 286.619157 
L 100.289491 288.972438 
L 100.845581 290.420161 
L 101.401671 291.096508 
L 101.679716 291.188499 
L 101.957761 291.139067 
L 102.513852 290.682036 
L 103.069942 289.85304 
L 103.904077 288.167468 
L 108.908888 276.659475 
L 111.967384 268.164872 
L 112.523474 267.422015 
L 112.801519 267.242807 
L 113.079564 267.201698 
L 113.35761 267.301891 
L 113.9137 267.920412 
L 114.46979 269.049976 
L 115.303925 271.46801 
L 117.528286 278.549951 
L 118.362421 280.229857 
L 118.918511 280.924382 
L 119.474601 281.321227 
L 120.030691 281.490297 
L 120.864827 281.489342 
L 122.811142 281.142899 
L 123.645277 280.781288 
L 124.201367 280.32946 
L 124.757458 279.62668 
L 125.313548 278.615278 
L 126.147683 276.448202 
L 126.981818 273.499213 
L 128.093998 268.521372 
L 129.484224 261.087111 
L 131.152494 250.918245 
L 134.21099 231.58682 
L 135.045125 228.090524 
L 135.601215 226.763493 
L 135.879261 226.458742 
L 136.157306 226.411961 
L 136.435351 226.632513 
L 136.713396 227.125743 
L 137.269486 228.929933 
L 137.825576 231.781787 
L 138.659711 237.779904 
L 139.771892 248.095196 
L 143.108433 280.922231 
L 144.220613 289.104321 
L 145.054748 293.95385 
L 145.888883 297.788406 
L 146.723018 300.775978 
L 147.557154 303.117312 
L 148.669334 305.563823 
L 150.059559 308.006382 
L 151.72783 310.467971 
L 153.3961 312.55404 
L 154.786326 313.975237 
L 156.176551 315.05885 
L 157.288731 315.673266 
L 158.678957 316.1581 
L 160.069182 316.399128 
L 161.737453 316.472188 
L 163.683768 316.349554 
L 165.630084 316.024086 
L 167.576399 315.471844 
L 169.24467 314.782496 
L 171.190985 313.7096 
L 173.137301 312.377443 
L 175.083616 310.791159 
L 179.254292 307.244179 
L 180.644518 306.471685 
L 185.371284 304.285786 
L 187.039554 303.076344 
L 189.820005 300.734227 
L 192.044366 298.616325 
L 193.156546 297.301708 
L 194.268726 295.631535 
L 195.380907 293.459826 
L 196.493087 290.706509 
L 197.883312 286.489377 
L 199.551583 280.552189 
L 201.219853 273.847556 
L 202.888124 266.195772 
L 204.556394 257.334039 
L 208.72707 233.915517 
L 209.561205 231.01415 
L 210.117296 229.817336 
L 210.673386 229.287867 
L 210.951431 229.28537 
L 211.229476 229.460445 
L 211.785566 230.339625 
L 212.341656 231.900816 
L 212.897746 234.093362 
L 213.731881 238.404558 
L 214.844062 245.578548 
L 219.570828 278.346068 
L 220.683008 284.211282 
L 221.795189 288.93944 
L 222.629324 291.643132 
L 223.463459 293.597295 
L 224.297594 294.857336 
L 225.13173 295.564777 
L 225.965865 295.92335 
L 228.190225 296.667971 
L 229.302406 297.389541 
L 232.638947 299.93384 
L 233.473082 300.251742 
L 234.307217 300.360948 
L 235.141352 300.263404 
L 235.975487 299.964183 
L 236.809623 299.449352 
L 237.643758 298.673115 
L 238.477893 297.563331 
L 239.312028 296.049976 
L 240.146164 294.109808 
L 241.536389 290.14849 
L 243.204659 285.410437 
L 244.038795 283.669054 
L 244.594885 282.881515 
L 245.150975 282.423056 
L 245.707065 282.290263 
L 246.263155 282.455796 
L 246.819245 282.873169 
L 247.653381 283.840181 
L 250.433831 287.551975 
L 251.267967 288.251937 
L 252.102102 288.643948 
L 252.658192 288.719759 
L 253.214282 288.629073 
L 253.770372 288.341727 
L 254.326462 287.807476 
L 254.882553 286.950653 
L 255.438643 285.66885 
L 255.994733 283.836666 
L 256.550823 281.31473 
L 257.106913 277.965073 
L 257.941048 271.146298 
L 258.775184 262.041754 
L 259.887364 246.805557 
L 262.38977 210.166562 
L 263.223905 201.189888 
L 264.05804 194.908744 
L 264.61413 192.156738 
L 265.17022 190.373705 
L 265.72631 189.344708 
L 266.282401 188.842265 
L 266.838491 188.65848 
L 269.062851 188.342274 
L 269.618942 187.957529 
L 270.175032 187.321479 
L 270.731122 186.347876 
L 271.287212 184.928293 
L 271.843302 182.937651 
L 272.399392 180.243528 
L 272.955482 176.719908 
L 273.789618 169.666433 
L 274.623753 160.375913 
L 275.735933 144.829717 
L 277.404204 117.296713 
L 279.350519 85.460808 
L 280.184654 74.409619 
L 280.740744 68.858687 
L 281.296835 65.381971 
L 281.57488 64.602077 
L 281.852925 64.554898 
L 282.13097 65.303653 
L 282.409015 66.902118 
L 282.965105 72.796522 
L 283.521195 82.364833 
L 284.35533 103.116232 
L 285.467511 139.357351 
L 287.413826 205.394534 
L 288.526007 234.468268 
L 289.360142 250.683728 
L 290.194277 262.605217 
L 291.028412 270.84141 
L 291.584502 274.481807 
L 292.140593 276.706289 
L 292.418638 277.298548 
L 292.696683 277.551937 
L 292.974728 277.475497 
L 293.252773 277.082273 
L 293.808863 275.423482 
L 294.364953 272.788131 
L 295.477133 265.824436 
L 296.589314 258.983686 
L 297.145404 256.410861 
L 297.701494 254.690107 
L 297.979539 254.183687 
L 298.257584 253.919719 
L 298.535629 253.896332 
L 298.813674 254.106738 
L 299.091719 254.540311 
L 299.64781 256.018456 
L 300.2039 258.193953 
L 301.038035 262.431688 
L 302.42826 270.942336 
L 305.208711 288.313858 
L 306.320891 294.076421 
L 307.155027 297.55019 
L 307.989162 300.116807 
L 308.545252 301.271215 
L 309.101342 301.965811 
L 309.657432 302.207362 
L 310.213522 302.020002 
L 310.769613 301.442424 
L 311.325703 300.523607 
L 312.159838 298.624771 
L 313.272018 295.39445 
L 314.940289 289.68959 
L 317.998785 278.173523 
L 320.223145 270.2055 
L 321.891416 265.051998 
L 324.393821 257.564488 
L 325.227956 254.501126 
L 326.062092 250.637957 
L 326.896227 245.393341 
L 327.730362 237.955044 
L 328.564497 227.327002 
L 329.398633 212.527409 
L 330.232768 192.921506 
L 331.344948 159.539921 
L 334.681489 49.26126 
L 335.515624 32.690227 
L 336.071714 25.910539 
L 336.627805 22.484053 
L 336.90585 21.927273 
L 337.183895 22.058976 
L 337.46194 22.803141 
L 338.01803 25.78752 
L 338.852165 32.6588 
L 340.520436 47.460545 
L 341.354571 53.157863 
L 344.135022 70.098293 
L 344.969157 78.250828 
L 345.803292 88.608265 
L 347.471562 113.284485 
L 348.861788 132.423049 
L 349.695923 141.191357 
L 350.530058 147.527908 
L 351.364193 151.805264 
L 352.198329 154.788261 
L 354.144644 161.025603 
L 355.53487 166.629268 
L 357.20314 173.299185 
L 358.31532 176.846434 
L 359.427501 179.692003 
L 361.095771 183.300266 
L 362.207951 185.323586 
L 363.042087 186.451244 
L 363.598177 186.949083 
L 364.154267 187.229404 
L 364.710357 187.311868 
L 365.544492 187.189801 
L 366.378628 187.060471 
L 366.934718 187.181325 
L 367.490808 187.640163 
L 368.046898 188.592993 
L 368.602988 190.192136 
L 369.159078 192.574825 
L 369.715168 195.849865 
L 370.549304 202.562814 
L 371.383439 211.386112 
L 372.495619 225.756253 
L 375.27607 263.376059 
L 376.38825 274.521335 
L 377.222385 280.691844 
L 378.056521 285.111004 
L 378.890656 288.037955 
L 379.446746 289.30422 
L 380.002836 290.116767 
L 380.558926 290.54557 
L 381.115016 290.650887 
L 381.671107 290.485436 
L 382.227197 290.096059 
L 383.061332 289.181338 
L 384.173512 287.520565 
L 385.841783 284.48798 
L 388.066143 280.427657 
L 388.900279 279.321262 
L 389.456369 278.839138 
L 390.012459 278.614104 
L 390.568549 278.68022 
L 391.124639 279.055709 
L 391.680729 279.738664 
L 392.514865 281.279294 
L 393.627045 283.999646 
L 395.295315 288.219041 
L 396.12945 289.85156 
L 396.963586 290.997941 
L 397.797721 291.689193 
L 398.631856 292.044884 
L 399.744036 292.231698 
L 401.134262 292.226935 
L 401.968397 292.054097 
L 402.802532 291.660263 
L 403.636668 290.975233 
L 404.470803 289.951374 
L 405.304938 288.538559 
L 406.139073 286.639536 
L 406.973208 284.076853 
L 407.807344 280.597076 
L 408.641479 275.930864 
L 409.475614 269.896749 
L 410.587794 259.806156 
L 413.368245 232.396674 
L 413.924335 228.661225 
L 414.480425 226.125917 
L 414.75847 225.362603 
L 415.036516 224.954243 
L 415.314561 224.907971 
L 415.592606 225.225259 
L 415.870651 225.901779 
L 416.426741 228.289064 
L 416.982831 231.934563 
L 417.816966 239.313887 
L 419.207192 254.595848 
L 421.153507 275.877755 
L 422.265688 285.557134 
L 423.099823 291.244461 
L 423.933958 295.640149 
L 424.768093 298.918782 
L 425.602228 301.310357 
L 426.436364 303.058243 
L 426.436364 303.058243 
" clip-path="url(#p536063bdaa)" style="fill: none; stroke-dasharray: 11.1,4.8; stroke-dashoffset: 0; stroke: #000000; stroke-width: 3"/>
   </g>
   <g id="line2d_2">
    <path d="M 27.163636 246.117724 
L 29.666042 254.183231 
L 32.168448 263.009241 
L 33.002583 265.906878 
L 33.280628 266.049832 
L 34.670853 265.429909 
L 35.504989 264.952913 
L 35.783034 265.049478 
L 36.339124 265.58097 
L 36.895214 265.81788 
L 37.451304 265.767321 
L 38.007394 265.451523 
L 38.563484 264.883789 
L 39.39762 263.596714 
L 39.675665 262.767806 
L 40.5098 256.865337 
L 41.62198 249.797936 
L 42.734161 244.10571 
L 43.846341 239.600179 
L 44.680476 236.9551 
L 45.514611 234.917123 
L 46.070701 233.906043 
L 46.348747 233.870816 
L 47.460927 235.623042 
L 49.129197 238.415179 
L 49.963332 238.08367 
L 50.797468 237.489348 
L 51.631603 236.63051 
L 52.465738 235.508688 
L 53.299873 234.382458 
L 54.412054 233.326175 
L 55.524234 231.993863 
L 56.636414 230.308121 
L 57.748595 228.171053 
L 58.860775 225.47635 
L 59.972955 222.111302 
L 61.085135 218.660914 
L 61.919271 216.279516 
L 65.255812 208.884511 
L 65.811902 208.783667 
L 66.367992 208.973548 
L 66.924082 209.431916 
L 67.758217 210.54178 
L 68.870398 212.616407 
L 70.816713 216.529388 
L 72.206938 218.749846 
L 74.709344 223.315517 
L 76.65566 226.729015 
L 77.76784 228.403881 
L 79.43611 233.053595 
L 79.992201 234.032114 
L 80.826336 234.877547 
L 81.660471 235.428094 
L 82.772651 235.832099 
L 84.162877 236.043698 
L 86.387237 236.344745 
L 87.499418 236.692606 
L 87.777463 236.812678 
L 88.889643 240.159412 
L 89.167688 240.889532 
L 89.445733 241.20152 
L 89.723778 241.124291 
L 90.279868 240.453802 
L 91.114004 238.707176 
L 92.226184 236.211288 
L 93.338364 231.374849 
L 94.450544 227.3351 
L 95.28468 225.110481 
L 96.118815 223.575958 
L 96.674905 222.920849 
L 97.230995 222.547306 
L 97.787085 222.429673 
L 98.06513 222.572395 
L 102.791897 240.718409 
L 103.626032 244.090772 
L 104.182122 245.008421 
L 104.738212 246.393937 
L 105.572347 249.432138 
L 106.684528 254.535492 
L 109.186933 249.853466 
L 110.299114 248.216325 
L 111.133249 247.295964 
L 111.967384 246.670645 
L 112.801519 246.37246 
L 113.35761 246.364467 
L 113.9137 246.517895 
L 114.46979 246.839682 
L 115.02588 247.334262 
L 115.860015 248.420687 
L 116.69415 249.950575 
L 116.972195 251.026385 
L 118.084376 257.387842 
L 118.918511 261.696221 
L 119.196556 261.047241 
L 120.586781 247.932953 
L 121.698962 239.209704 
L 122.533097 233.873769 
L 124.201367 227.17255 
L 126.425728 218.206327 
L 127.537908 214.454292 
L 127.815953 213.63651 
L 128.093998 213.773847 
L 129.484224 228.693968 
L 130.596404 239.178741 
L 130.874449 240.026 
L 131.430539 240.435468 
L 131.98663 240.50428 
L 132.54272 240.193289 
L 133.09881 239.604431 
L 133.932945 238.353337 
L 136.991441 233.233905 
L 137.825576 232.365202 
L 138.381666 232.02229 
L 138.937756 231.890025 
L 139.493847 231.98555 
L 139.771892 232.12318 
L 140.049937 232.007568 
L 141.162117 230.590306 
L 141.718207 230.161082 
L 142.274297 230.029261 
L 142.830387 230.269418 
L 143.108433 230.989042 
L 143.942568 236.753411 
L 148.947379 276.2819 
L 149.781514 278.500996 
L 152.28392 284.377519 
L 153.3961 286.508305 
L 154.508281 288.162966 
L 154.786326 288.495915 
L 155.342416 287.417621 
L 156.176551 285.130091 
L 157.844821 279.608927 
L 159.513092 271.348593 
L 161.181362 264.315663 
L 162.849633 258.284033 
L 164.517903 253.082918 
L 166.186174 248.595579 
L 167.854444 244.734027 
L 169.522715 241.429583 
L 171.190985 238.650022 
L 172.859256 236.370219 
L 174.249481 234.844243 
L 174.805571 234.406504 
L 178.976247 233.065011 
L 179.254292 233.482831 
L 180.922563 238.41943 
L 181.478653 239.032843 
L 181.756698 239.228749 
L 182.034743 240.484126 
L 183.146923 247.487547 
L 183.981058 251.226777 
L 184.537149 252.961829 
L 184.815194 253.550792 
L 185.371284 252.678771 
L 186.205419 250.809087 
L 187.595644 246.805987 
L 188.707825 243.68433 
L 189.263915 242.491512 
L 189.820005 241.733309 
L 190.09805 241.565805 
L 190.376095 241.564716 
L 190.65414 241.769404 
L 190.932185 242.184734 
L 191.488276 243.750345 
L 192.044366 245.949561 
L 193.434591 236.899485 
L 194.546771 230.938714 
L 195.658952 226.006692 
L 196.771132 222.005567 
L 197.883312 218.81519 
L 198.995493 216.320579 
L 200.107673 214.387351 
L 201.219853 212.892058 
L 202.610079 211.429209 
L 202.888124 211.347663 
L 203.444214 214.270155 
L 205.112484 223.389264 
L 206.224664 228.934425 
L 207.336845 233.359088 
L 208.449025 236.726458 
L 209.28316 238.598241 
L 209.561205 239.815874 
L 210.673386 247.104341 
L 211.507521 250.94156 
L 212.341656 253.8634 
L 213.175791 256.009361 
L 214.009927 257.513325 
L 214.844062 258.459492 
L 215.400152 258.830408 
L 215.956242 259.025544 
L 216.790377 259.038089 
L 217.624513 258.795643 
L 220.683008 257.553449 
L 220.961053 257.577247 
L 221.239099 257.151766 
L 223.185414 248.973542 
L 225.13173 239.84537 
L 227.35609 229.17264 
L 229.024361 223.731505 
L 229.302406 223.307986 
L 230.692631 233.249963 
L 231.526766 237.254602 
L 231.804811 238.293314 
L 232.082856 238.677915 
L 232.638947 238.533034 
L 233.195037 238.124147 
L 234.029172 237.080102 
L 234.863307 235.625246 
L 235.975487 233.185924 
L 237.365713 229.580582 
L 238.477893 226.446869 
L 239.033983 223.060911 
L 239.312028 221.712827 
L 239.868119 220.570226 
L 240.424209 219.915502 
L 240.980299 219.608619 
L 242.092479 219.448384 
L 242.370524 219.893249 
L 244.31684 230.199218 
L 245.707065 232.647621 
L 246.5412 233.763908 
L 247.375336 234.454309 
L 247.931426 234.598785 
L 248.487516 234.46832 
L 249.043606 234.038229 
L 249.599696 233.260826 
L 250.155786 232.145393 
L 250.989921 229.821515 
L 252.658192 224.558897 
L 253.492327 222.442504 
L 254.048417 221.385999 
L 254.604507 220.706858 
L 254.882553 220.54498 
L 255.160598 220.514923 
L 255.438643 220.633059 
L 255.716688 220.929659 
L 256.272778 222.079106 
L 256.828868 224.097745 
L 257.106913 225.482199 
L 259.609319 244.470464 
L 261.277589 254.776927 
L 262.38977 261.69182 
L 264.05804 273.616749 
L 265.72631 285.946119 
L 266.560446 278.789358 
L 267.394581 273.635272 
L 268.228716 270.046249 
L 269.062851 267.711153 
L 269.618942 266.702297 
L 270.175032 266.045676 
L 271.009167 265.374456 
L 272.121347 263.820679 
L 274.067663 261.259662 
L 274.901798 259.827489 
L 275.735933 257.980026 
L 276.570068 255.553425 
L 277.404204 252.378284 
L 278.794429 246.446534 
L 279.072474 246.093053 
L 279.906609 246.210139 
L 280.740744 246.041271 
L 281.57488 245.570737 
L 282.409015 244.788163 
L 283.24315 243.678383 
L 284.077285 242.225822 
L 285.189466 239.733904 
L 286.301646 236.587628 
L 287.413826 232.768241 
L 288.804052 227.062382 
L 290.194277 220.404403 
L 291.862547 211.800933 
L 292.418638 210.359723 
L 292.974728 209.526834 
L 293.252773 209.338524 
L 293.530818 209.296796 
L 293.808863 209.412461 
L 295.477133 225.431636 
L 296.311269 231.545835 
L 297.145404 234.731682 
L 297.979539 237.081575 
L 298.813674 238.77147 
L 299.64781 239.989599 
L 301.038035 241.504288 
L 302.42826 243.075435 
L 303.540441 244.792186 
L 304.374576 246.463134 
L 305.486756 249.23916 
L 306.598936 252.481593 
L 306.876982 252.545157 
L 307.711117 249.409612 
L 308.823297 244.887599 
L 309.379387 243.935167 
L 309.935477 243.316414 
L 310.491567 243.040018 
L 311.047658 243.10765 
L 311.603748 243.528848 
L 312.159838 244.334796 
L 312.715928 245.523923 
L 313.550063 248.067754 
L 314.940289 253.41519 
L 318.554875 268.364697 
L 319.667055 271.913315 
L 320.50119 273.972156 
L 321.05728 275.006063 
L 321.335325 275.35702 
L 321.61337 275.447942 
L 322.169461 274.954584 
L 322.725551 274.138462 
L 323.281641 272.934671 
L 323.837731 271.342432 
L 324.115776 270.376229 
L 324.949911 265.677877 
L 325.784047 261.145028 
L 326.618182 257.748201 
L 327.452317 255.252039 
L 328.286452 253.410391 
L 329.398633 251.572812 
L 331.066903 249.109158 
L 332.179083 250.216056 
L 333.013219 250.791874 
L 333.847354 251.05313 
L 334.403444 251.033988 
L 334.959534 250.859004 
L 335.237579 250.670961 
L 336.349759 248.132751 
L 337.46194 245.036392 
L 339.408255 238.688816 
L 342.466751 228.289325 
L 343.578931 225.170843 
L 344.413067 223.38974 
L 344.969157 222.597432 
L 345.525247 222.199211 
L 345.803292 222.185343 
L 346.081337 222.29851 
L 346.359382 222.555658 
L 346.915472 223.562311 
L 347.471562 225.332265 
L 347.749607 225.024691 
L 348.583743 222.280887 
L 349.139833 218.365689 
L 349.417878 217.502365 
L 349.973968 218.068286 
L 350.530058 219.004778 
L 351.364193 221.026585 
L 352.198329 223.720753 
L 353.310509 228.163979 
L 354.700734 234.698554 
L 358.037275 250.952155 
L 359.149456 255.112198 
L 359.983591 257.324787 
L 360.539681 258.232845 
L 361.095771 258.76644 
L 361.651861 259.73353 
L 361.929906 259.934313 
L 362.207951 259.93827 
L 362.485996 259.752901 
L 362.764042 259.368072 
L 363.320132 257.933128 
L 363.876222 255.565624 
L 364.432312 252.115927 
L 364.988402 247.424205 
L 365.822537 238.306315 
L 367.212763 234.552239 
L 368.602988 232.354385 
L 369.715168 231.091001 
L 370.549304 230.501412 
L 371.383439 230.261151 
L 371.939529 230.294351 
L 372.495619 230.495251 
L 373.329754 231.090688 
L 374.16389 232.041797 
L 374.998025 233.317413 
L 376.110205 235.473558 
L 377.222385 238.076316 
L 378.890656 242.654811 
L 380.280881 246.684239 
L 381.393062 248.722673 
L 382.505242 250.228665 
L 383.895467 251.61855 
L 384.173512 251.707789 
L 384.451557 251.657689 
L 384.729602 251.494285 
L 385.285693 250.766812 
L 385.841783 249.462254 
L 386.397873 247.565728 
L 386.953963 245.586763 
L 387.510053 243.843606 
L 388.344188 240.342584 
L 389.178324 235.803254 
L 390.846594 225.922037 
L 392.514865 222.907718 
L 394.46118 219.460055 
L 395.295315 218.328551 
L 396.12945 217.591428 
L 396.685541 217.382175 
L 397.241631 217.445765 
L 397.519676 217.038077 
L 398.353811 214.038108 
L 398.631856 214.19273 
L 399.744036 222.642511 
L 400.578172 227.847375 
L 403.080577 233.054181 
L 405.026893 237.615796 
L 406.695163 242.096746 
L 407.807344 245.484797 
L 408.085389 245.389977 
L 408.919524 244.656459 
L 410.031704 243.373718 
L 413.924335 238.511929 
L 414.75847 237.941404 
L 415.314561 237.795122 
L 415.870651 237.873179 
L 416.426741 238.254774 
L 416.982831 238.988422 
L 417.538921 240.175646 
L 417.816966 240.96669 
L 418.373056 244.485896 
L 419.207192 249.695774 
L 419.485237 250.410182 
L 420.041327 250.824566 
L 420.319372 250.817726 
L 420.597417 250.676014 
L 421.153507 250.0194 
L 421.709597 248.895277 
L 422.543733 246.417852 
L 423.377868 243.105864 
L 424.212003 239.079728 
L 424.490048 239.046411 
L 425.324183 243.972083 
L 425.880273 246.189627 
L 426.436364 247.691648 
L 426.436364 247.691648 
" clip-path="url(#p536063bdaa)" style="fill: none; stroke: #ff00ff; stroke-width: 3; stroke-linecap: square"/>
   </g>
   <g id="patch_3">
    <path d="M 7.2 331.2 
L 7.2 7.2 
" style="fill: none; stroke: #000000; stroke-width: 0.8; stroke-linejoin: miter; stroke-linecap: square"/>
   </g>
   <g id="patch_4">
    <path d="M 446.4 331.2 
L 446.4 7.2 
" style="fill: none; stroke: #000000; stroke-width: 0.8; stroke-linejoin: miter; stroke-linecap: square"/>
   </g>
   <g id="patch_5">
    <path d="M 7.2 331.2 
L 446.4 331.2 
" style="fill: none; stroke: #000000; stroke-width: 0.8; stroke-linejoin: miter; stroke-linecap: square"/>
   </g>
   <g id="patch_6">
    <path d="M 7.2 7.2 
L 446.4 7.2 
" style="fill: none; stroke: #000000; stroke-width: 0.8; stroke-linejoin: miter; stroke-linecap: square"/>
   </g>
  </g>
 </g>
 <defs>
  <clipPath id="p536063bdaa">
   <rect x="7.2" y="7.2" width="439.2" height="324"/>
  </clipPath>
 </defs>
</svg>
