<?xml version="1.0" encoding="utf-8" standalone="no"?>
<!DOCTYPE svg PUBLIC "-//W3C//DTD SVG 1.1//EN"
  "http://www.w3.org/Graphics/SVG/1.1/DTD/svg11.dtd">
<svg xmlns:xlink="http://www.w3.org/1999/xlink" width="453.6pt" height="338.4pt" viewBox="0 0 453.6 338.4" xmlns="http://www.w3.org/2000/svg" version="1.1">
 <metadata>
  <rdf:RDF xmlns:dc="http://purl.org/dc/elements/1.1/" xmlns:cc="http://creativecommons.org/ns#" xmlns:rdf="http://www.w3.org/1999/02/22-rdf-syntax-ns#">
   <cc:Work>
    <dc:type rdf:resource="http://purl.org/dc/dcmitype/StillImage"/>
    <dc:date>2025-05-15T18:30:34.464978</dc:date>
    <dc:format>image/svg+xml</dc:format>
    <dc:creator>
     <cc:Agent>
      <dc:title>Matplotlib v3.10.1, https://matplotlib.org/</dc:title>
     </cc:Agent>
    </dc:creator>
   </cc:Work>
  </rdf:RDF>
 </metadata>
 <defs>
  <style type="text/css">*{stroke-linejoin: round; stroke-linecap: butt}</style>
 </defs>
 <g id="figure_1">
  <g id="patch_1">
   <path d="M 0 338.4 
L 453.6 338.4 
L 453.6 0 
L 0 0 
z
" style="fill: #ffffff"/>
  </g>
  <g id="axes_1">
   <g id="patch_2">
    <path d="M 7.2 331.2 
L 446.4 331.2 
L 446.4 7.2 
L 7.2 7.2 
z
" style="fill: #ffffff"/>
   </g>
   <g id="matplotlib.axis_1"/>
   <g id="matplotlib.axis_2"/>
   <g id="line2d_1">
    <path d="M 27.163636 191.923848 
L 27.719727 199.700156 
L 28.275817 205.14611 
L 28.831907 208.024609 
L 29.109952 208.456254 
L 29.387997 208.206636 
L 29.666042 207.278321 
L 29.944087 205.681022 
L 30.500177 200.555851 
L 31.056267 193.049116 
L 31.890403 178.022651 
L 33.002583 153.046461 
L 36.339124 73.440721 
L 37.451304 52.290929 
L 38.285439 39.501079 
L 39.119575 29.877748 
L 39.675665 25.462105 
L 40.231755 22.787758 
L 40.5098 22.128248 
L 40.787845 21.927273 
L 41.06589 22.183402 
L 41.343935 22.891501 
L 41.900025 25.620154 
L 42.456115 29.982708 
L 43.290251 39.17196 
L 44.402431 55.181628 
L 45.792656 78.941246 
L 48.017017 121.210024 
L 51.909648 196.436458 
L 53.021828 214.576988 
L 53.855964 225.578434 
L 54.690099 233.366573 
L 55.246189 236.391688 
L 55.524234 237.201069 
L 55.802279 237.535825 
L 56.080324 237.403474 
L 56.358369 236.821454 
L 56.914459 234.4306 
L 57.47055 230.704399 
L 59.972955 210.8009 
L 60.529045 208.277641 
L 61.085135 206.795651 
L 61.641226 206.137518 
L 62.753406 205.627562 
L 63.031451 205.297014 
L 63.309496 204.75845 
L 63.865586 202.846296 
L 64.421676 199.565396 
L 64.977767 194.777231 
L 65.811902 184.980845 
L 68.592352 147.26448 
L 69.148443 142.742845 
L 69.704533 140.04669 
L 69.982578 139.38951 
L 70.260623 139.169638 
L 70.538668 139.354153 
L 70.816713 139.898486 
L 71.372803 141.839593 
L 73.041074 149.408494 
L 73.597164 150.618927 
L 73.875209 150.720711 
L 74.153254 150.442564 
L 74.431299 149.766328 
L 74.987389 147.213826 
L 75.543479 143.177454 
L 76.377615 135.04138 
L 78.045885 117.382224 
L 78.88002 111.192099 
L 79.43611 108.775045 
L 79.714155 108.108734 
L 79.992201 107.791524 
L 80.270246 107.801977 
L 80.548291 108.110269 
L 81.104381 109.469408 
L 81.938516 112.704312 
L 83.328741 118.518501 
L 84.162877 121.142194 
L 84.997012 123.080839 
L 86.109192 125.500937 
L 86.943327 128.033537 
L 87.777463 131.688071 
L 88.611598 136.541287 
L 90.001823 146.387534 
L 91.392049 155.898759 
L 92.226184 160.043559 
L 92.782274 161.750237 
L 93.060319 162.230949 
L 93.338364 162.446507 
L 93.616409 162.389104 
L 93.894454 162.056174 
L 94.450544 160.578417 
L 95.006635 158.098879 
L 95.84077 152.906434 
L 98.06513 137.468941 
L 98.621221 134.91755 
L 99.177311 133.327952 
L 99.455356 132.922375 
L 99.733401 132.781184 
L 100.011446 132.902712 
L 100.289491 133.282247 
L 100.845581 134.782102 
L 101.401671 137.201035 
L 102.235807 142.361775 
L 103.069942 149.12201 
L 104.182122 160.176757 
L 108.074753 202.311146 
L 108.908888 208.413566 
L 109.743024 212.922313 
L 110.577159 216.049662 
L 111.411294 218.126217 
L 112.245429 219.486653 
L 113.079564 220.40859 
L 115.860015 222.980465 
L 116.69415 224.346433 
L 117.528286 226.263456 
L 118.362421 228.745799 
L 119.752646 233.725095 
L 121.142872 238.485656 
L 121.698962 239.897541 
L 122.255052 240.819266 
L 122.533097 241.049777 
L 122.811142 241.101304 
L 123.089187 240.953656 
L 123.367232 240.586718 
L 123.923322 239.112296 
L 124.479413 236.515491 
L 125.035503 232.645505 
L 125.591593 227.379885 
L 126.425728 216.715391 
L 127.259863 202.783045 
L 128.372044 179.914929 
L 132.54272 86.937955 
L 133.6549 69.092776 
L 134.489035 58.848283 
L 135.32317 51.530349 
L 135.879261 48.375529 
L 136.435351 46.658026 
L 136.713396 46.34939 
L 136.991441 46.410577 
L 137.269486 46.841852 
L 137.547531 47.641653 
L 138.103621 50.332038 
L 138.659711 54.433064 
L 139.493847 63.057419 
L 140.327982 74.338416 
L 141.440162 92.809599 
L 142.830387 119.979611 
L 145.610838 180.459554 
L 147.835199 226.675252 
L 149.225424 251.429268 
L 150.337604 267.795738 
L 151.17174 277.688828 
L 152.005875 285.424367 
L 152.84001 291.088433 
L 153.674145 294.957135 
L 154.508281 297.437533 
L 155.064371 298.53152 
L 155.620461 299.298279 
L 156.176551 299.796854 
L 156.732641 300.034788 
L 157.288731 299.964814 
L 157.844821 299.489846 
L 158.400912 298.47499 
L 158.957002 296.763799 
L 159.513092 294.196675 
L 160.069182 290.629621 
L 160.903317 283.168419 
L 161.737453 273.018023 
L 162.571588 260.232527 
L 163.683768 239.625851 
L 165.352038 203.701965 
L 168.410534 136.795431 
L 170.078805 105.055883 
L 171.46903 82.129492 
L 172.58121 66.968743 
L 173.415346 58.288335 
L 173.971436 54.146447 
L 174.527526 51.52368 
L 174.805571 50.822383 
L 175.083616 50.540635 
L 175.361661 50.682356 
L 175.639706 51.245188 
L 176.195796 53.598938 
L 176.751887 57.474005 
L 177.586022 65.663671 
L 178.698202 79.512441 
L 181.478653 115.47449 
L 183.703013 139.770686 
L 187.595644 181.492009 
L 188.151735 185.138656 
L 188.707825 187.271105 
L 188.98587 187.694122 
L 189.263915 187.664217 
L 189.54196 187.175381 
L 189.820005 186.233066 
L 190.376095 183.066442 
L 190.932185 178.437226 
L 192.044366 166.6883 
L 193.156546 155.654937 
L 193.712636 151.858974 
L 194.268726 149.732982 
L 194.546771 149.345957 
L 194.824816 149.406033 
L 195.102861 149.891349 
L 195.658952 151.980634 
L 196.493087 157.010424 
L 197.605267 164.025121 
L 198.161357 166.267876 
L 198.439402 166.856274 
L 198.717447 167.036872 
L 198.995493 166.787915 
L 199.273538 166.102814 
L 199.829628 163.473563 
L 200.385718 159.39183 
L 201.497898 148.796093 
L 202.332033 141.183285 
L 202.888124 137.435965 
L 203.444214 135.30521 
L 203.722259 134.935493 
L 204.000304 135.048393 
L 204.278349 135.639146 
L 204.834439 138.158567 
L 205.390529 142.161619 
L 207.61489 161.044229 
L 208.17098 163.248213 
L 208.449025 163.637593 
L 208.72707 163.51948 
L 209.005115 162.889108 
L 209.28316 161.757992 
L 209.83925 158.114891 
L 210.673386 150.004011 
L 212.341656 131.880022 
L 212.897746 127.58162 
L 213.453836 124.904997 
L 213.731881 124.23416 
L 214.009927 124.012463 
L 214.287972 124.226512 
L 214.566017 124.850902 
L 215.122107 127.17464 
L 215.956242 132.566394 
L 217.624513 144.380635 
L 218.180603 147.17127 
L 218.736693 149.012868 
L 219.292783 149.863005 
L 219.570828 149.931179 
L 219.848873 149.778793 
L 220.126918 149.423659 
L 220.683008 148.183718 
L 221.517144 145.298973 
L 222.629324 140.228294 
L 224.019549 132.642401 
L 225.13173 125.504933 
L 226.24391 117.002741 
L 227.35609 106.778838 
L 228.746316 91.681447 
L 230.970676 67.016274 
L 231.804811 60.181857 
L 232.360901 57.017986 
L 232.916992 55.162626 
L 233.195037 54.757234 
L 233.473082 54.708539 
L 233.751127 55.017968 
L 234.029172 55.683326 
L 234.585262 58.059651 
L 235.141352 61.772672 
L 235.975487 69.663574 
L 236.809623 80.087262 
L 237.921803 97.504739 
L 239.033983 118.439132 
L 240.702254 154.664747 
L 243.482704 216.547894 
L 244.594885 237.025288 
L 245.42902 249.31733 
L 246.263155 258.420993 
L 246.819245 262.574208 
L 247.375336 265.184881 
L 247.653381 265.93371 
L 247.931426 266.334205 
L 248.209471 266.410557 
L 248.487516 266.192273 
L 249.043606 265.015398 
L 249.877741 262.03927 
L 250.989921 257.777628 
L 251.546012 256.299501 
L 252.102102 255.584706 
L 252.380147 255.551545 
L 252.658192 255.738786 
L 252.936237 256.139123 
L 253.492327 257.511389 
L 254.326462 260.563816 
L 255.438643 264.766336 
L 255.994733 266.077494 
L 256.272778 266.374459 
L 256.550823 266.377582 
L 256.828868 266.050685 
L 257.106913 265.362223 
L 257.663003 262.798314 
L 258.219093 258.536963 
L 258.775184 252.519629 
L 259.609319 240.29592 
L 260.443454 224.668724 
L 261.833679 193.223018 
L 266.282401 86.64107 
L 267.672626 60.039872 
L 268.784806 43.543511 
L 269.618942 34.729164 
L 270.175032 30.762845 
L 270.731122 28.41333 
L 271.009167 27.859363 
L 271.287212 27.723068 
L 271.565257 28.005556 
L 271.843302 28.706404 
L 272.399392 31.355715 
L 272.955482 35.645384 
L 273.511573 41.53349 
L 274.345708 53.23859 
L 275.179843 68.166578 
L 276.292023 92.514064 
L 277.682249 128.651179 
L 280.184654 201.708404 
L 281.852925 248.21596 
L 282.965105 274.46803 
L 283.79924 290.413216 
L 284.633376 302.584617 
L 285.189466 308.496396 
L 285.745556 312.677135 
L 286.301646 315.239627 
L 286.579691 315.9696 
L 286.857736 316.369778 
L 287.135781 316.472727 
L 287.413826 316.313752 
L 287.969916 315.35872 
L 288.804052 312.898065 
L 290.750367 306.597581 
L 293.252773 299.949465 
L 293.808863 297.45107 
L 294.364953 294.059626 
L 294.921043 289.568002 
L 295.755179 280.44617 
L 296.589314 268.262635 
L 297.701494 247.424019 
L 299.091719 215.393302 
L 301.594125 149.960926 
L 303.540441 101.738911 
L 304.930666 72.907053 
L 306.042846 54.595242 
L 306.876982 44.140246 
L 307.711117 36.830807 
L 308.267207 33.833533 
L 308.545252 32.919218 
L 308.823297 32.399921 
L 309.101342 32.277494 
L 309.379387 32.551089 
L 309.657432 33.217056 
L 310.213522 35.699744 
L 310.769613 39.644626 
L 311.603748 48.032833 
L 312.437883 58.906612 
L 313.828108 80.878726 
L 318.27683 155.747247 
L 319.667055 174.53535 
L 320.779235 187.181494 
L 321.61337 194.933349 
L 322.447506 200.741583 
L 323.003596 203.30221 
L 323.559686 204.689561 
L 323.837731 204.929732 
L 324.115776 204.871297 
L 324.393821 204.525319 
L 324.949911 203.049363 
L 325.506002 200.724725 
L 327.730362 189.772688 
L 328.286452 188.280694 
L 328.564497 187.859 
L 328.842542 187.652916 
L 329.120587 187.649502 
L 329.398633 187.826474 
L 329.954723 188.589594 
L 331.066903 190.484307 
L 331.344948 190.733688 
L 331.622993 190.790773 
L 331.901038 190.610255 
L 332.179083 190.153309 
L 332.457128 189.388124 
L 333.013219 186.851395 
L 333.569309 182.933825 
L 334.403444 174.721452 
L 336.071714 154.110806 
L 336.90585 144.932802 
L 337.46194 140.305995 
L 338.01803 137.247269 
L 338.296075 136.357937 
L 338.57412 135.900356 
L 338.852165 135.863808 
L 339.13021 136.22503 
L 339.408255 136.950067 
L 339.964345 139.30326 
L 342.188706 151.084024 
L 342.466751 151.681975 
L 342.744796 151.901371 
L 343.022841 151.713972 
L 343.300886 151.104931 
L 343.856976 148.630977 
L 344.413067 144.63732 
L 345.247202 136.633227 
L 346.637427 122.65634 
L 347.193517 118.577571 
L 347.749607 116.049496 
L 348.027653 115.442811 
L 348.305698 115.288652 
L 348.583743 115.581382 
L 348.861788 116.30282 
L 349.417878 118.905367 
L 349.973968 122.757516 
L 351.086148 132.484299 
L 352.476374 144.453441 
L 353.588554 152.0446 
L 355.53487 162.95281 
L 358.87141 181.783918 
L 359.427501 183.680405 
L 359.983591 184.804826 
L 360.261636 185.051639 
L 360.539681 185.081809 
L 360.817726 184.894648 
L 361.095771 184.493226 
L 361.651861 183.074937 
L 362.207951 180.911312 
L 363.042087 176.550532 
L 366.100582 158.378059 
L 366.656673 156.319607 
L 367.212763 154.986244 
L 367.490808 154.606788 
L 367.768853 154.419654 
L 368.046898 154.4214 
L 368.324943 154.604962 
L 368.881033 155.475107 
L 369.437123 156.919252 
L 370.271259 159.850549 
L 372.773664 169.53565 
L 373.607799 171.890934 
L 374.441935 173.597613 
L 375.27607 174.698004 
L 375.83216 175.125997 
L 376.38825 175.3207 
L 376.94434 175.277589 
L 377.50043 174.978481 
L 378.056521 174.397493 
L 378.612611 173.509035 
L 379.446746 171.574015 
L 380.280881 168.965857 
L 383.339377 158.408044 
L 383.895467 157.601865 
L 384.173512 157.482905 
L 384.451557 157.582758 
L 384.729602 157.921907 
L 385.007648 158.518959 
L 385.563738 160.5492 
L 386.119828 163.767457 
L 386.675918 168.207104 
L 387.510053 177.046196 
L 388.622233 192.037753 
L 390.846594 223.709657 
L 391.680729 232.256892 
L 392.236819 236.015646 
L 392.79291 237.943864 
L 393.070955 238.170616 
L 393.349 237.888525 
L 393.627045 237.090815 
L 394.183135 233.946237 
L 394.739225 228.77716 
L 395.295315 221.690611 
L 396.12945 207.839168 
L 397.241631 184.556504 
L 398.909901 143.754234 
L 401.134262 90.254398 
L 402.246442 68.535289 
L 403.080577 55.855931 
L 403.914713 46.836294 
L 404.470803 42.99325 
L 405.026893 40.897482 
L 405.304938 40.488755 
L 405.582983 40.49029 
L 405.861028 40.886208 
L 406.139073 41.657082 
L 406.695163 44.240125 
L 407.251253 48.059457 
L 408.085389 55.718498 
L 409.197569 68.803169 
L 410.309749 84.625306 
L 411.699975 107.992446 
L 413.368245 140.407039 
L 417.538921 223.913861 
L 418.929147 247.89208 
L 420.041327 263.813144 
L 420.875462 273.123235 
L 421.709597 279.929546 
L 422.265688 283.123389 
L 422.821778 285.35221 
L 423.377868 286.732601 
L 423.933958 287.360657 
L 424.212003 287.408651 
L 424.490048 287.278999 
L 424.768093 286.965295 
L 425.324183 285.736073 
L 425.880273 283.582081 
L 426.436364 280.326098 
L 426.436364 280.326098 
" clip-path="url(#p9f8ec1ffe8)" style="fill: none; stroke-dasharray: 11.1,4.8; stroke-dashoffset: 0; stroke: #000000; stroke-width: 3"/>
   </g>
   <g id="line2d_2">
    <path d="M 27.163636 140.331825 
L 29.666042 145.572728 
L 33.002583 152.513375 
L 34.392808 155.015223 
L 34.670853 155.272067 
L 35.226944 155.099991 
L 38.285439 153.543845 
L 40.231755 152.344555 
L 41.900025 151.093604 
L 43.568296 149.566967 
L 45.236566 147.697422 
L 46.626792 145.831953 
L 48.017017 143.646971 
L 49.407242 141.104975 
L 51.909648 136.307071 
L 53.021828 134.695296 
L 54.134009 133.430425 
L 55.246189 132.491365 
L 56.358369 131.848238 
L 57.47055 131.496861 
L 58.58273 131.43316 
L 59.69491 131.654223 
L 60.80709 132.155524 
L 61.919271 132.933041 
L 63.031451 133.982989 
L 64.143631 135.301637 
L 65.533857 137.322509 
L 66.924082 139.752108 
L 67.758217 141.212662 
L 69.148443 143.086282 
L 69.704533 143.831538 
L 74.431299 147.391036 
L 78.045885 149.822514 
L 80.826336 151.437226 
L 83.050696 152.493897 
L 84.440922 153.008192 
L 86.943327 151.26441 
L 88.611598 150.033837 
L 90.279868 149.073261 
L 91.670094 148.537555 
L 93.060319 148.221404 
L 94.450544 148.130205 
L 95.84077 148.27264 
L 97.230995 148.657442 
L 98.621221 149.294694 
L 100.011446 150.193951 
L 101.401671 151.364818 
L 102.513852 152.57001 
L 103.904077 154.416981 
L 105.016257 156.253179 
L 107.518663 161.154165 
L 109.743024 165.000597 
L 111.967384 168.388151 
L 114.191745 171.369652 
L 116.416105 174.005678 
L 118.918511 176.633659 
L 120.308736 177.862378 
L 122.533097 179.625137 
L 125.591593 181.659903 
L 128.093998 183.031587 
L 130.318359 183.981233 
L 132.264675 184.555842 
L 133.932945 184.826739 
L 135.601215 184.867363 
L 136.713396 184.740542 
L 137.825576 184.246598 
L 138.659711 183.742809 
L 143.108433 180.545777 
L 145.332793 178.712807 
L 147.279109 176.83122 
L 149.225424 174.608446 
L 150.893695 172.373472 
L 152.561965 169.784712 
L 154.230236 166.797601 
L 157.566776 160.523741 
L 158.957002 158.538305 
L 160.625272 156.570416 
L 162.293543 154.973488 
L 163.961813 153.717721 
L 165.630084 152.754048 
L 167.298354 152.034252 
L 169.24467 151.438417 
L 172.303165 150.634435 
L 174.527526 149.355432 
L 176.751887 148.319007 
L 178.698202 147.693532 
L 181.200608 147.100953 
L 183.703013 146.733697 
L 186.205419 146.588642 
L 188.707825 146.662268 
L 191.21023 146.946794 
L 193.434591 147.471702 
L 195.658952 148.29016 
L 199.273538 149.862635 
L 206.780755 153.263792 
L 208.72707 153.216314 
L 209.561205 153.481388 
L 210.951431 154.139627 
L 212.619701 155.229987 
L 214.287972 156.592197 
L 216.234287 158.488154 
L 218.458648 161.004399 
L 220.961053 164.197912 
L 224.297594 168.870398 
L 226.521955 171.96284 
L 228.746316 173.770192 
L 230.692631 175.079815 
L 232.638947 176.126482 
L 234.585262 176.924563 
L 236.531578 177.488374 
L 238.477893 177.833637 
L 240.424209 177.975331 
L 241.536389 177.910069 
L 243.204659 177.231451 
L 246.5412 177.188313 
L 249.321651 176.94412 
L 252.658192 176.398384 
L 258.219093 175.204201 
L 259.053229 175.05994 
L 260.721499 175.321362 
L 263.50195 176.02782 
L 266.560446 177.042914 
L 271.009167 178.783045 
L 276.570068 180.980863 
L 278.238339 180.857482 
L 280.462699 180.465667 
L 282.965105 179.806052 
L 285.189466 179.00027 
L 287.413826 177.959055 
L 289.638187 176.656233 
L 291.862547 175.066583 
L 293.530818 173.67108 
L 294.086908 172.749911 
L 297.145404 167.642577 
L 300.481945 162.644756 
L 302.98435 159.313202 
L 305.208711 156.718038 
L 307.155027 154.763752 
L 309.101342 153.131996 
L 310.769613 152.01001 
L 311.603748 151.576168 
L 312.993973 151.326894 
L 316.052469 150.971759 
L 318.27683 150.997695 
L 320.223145 151.228682 
L 321.891416 151.619968 
L 323.559686 152.222657 
L 325.227956 153.069168 
L 326.896227 154.191128 
L 328.564497 155.620347 
L 329.398633 156.343822 
L 330.510813 156.964957 
L 332.457128 157.807843 
L 334.403444 158.41032 
L 336.349759 158.799648 
L 338.57412 159.019467 
L 341.076526 159.037569 
L 344.135022 158.826483 
L 346.915472 158.448959 
L 347.749607 158.264551 
L 359.149456 157.52779 
L 361.929906 157.729665 
L 365.266447 158.219322 
L 365.822537 158.780381 
L 368.324943 161.849931 
L 371.383439 166.039615 
L 377.778476 174.808072 
L 380.280881 177.865898 
L 382.505242 180.252703 
L 382.783287 180.449841 
L 383.339377 180.447459 
L 384.729602 180.107965 
L 385.841783 179.631303 
L 387.510053 178.591491 
L 389.456369 177.09423 
L 392.236819 174.646609 
L 396.685541 170.72544 
L 398.631856 169.288757 
L 400.022082 168.452938 
L 400.300127 168.333316 
L 403.358622 169.197691 
L 407.251253 170.084165 
L 410.587794 170.926495 
L 412.812155 171.722325 
L 414.75847 172.673506 
L 416.426741 173.736846 
L 417.816966 174.833823 
L 418.373056 175.622693 
L 420.597417 179.833523 
L 422.543733 183.03598 
L 424.490048 185.821984 
L 426.436364 188.228134 
L 426.436364 188.228134 
" clip-path="url(#p9f8ec1ffe8)" style="fill: none; stroke: #ff00ff; stroke-width: 3; stroke-linecap: square"/>
   </g>
   <g id="patch_3">
    <path d="M 7.2 331.2 
L 7.2 7.2 
" style="fill: none; stroke: #000000; stroke-width: 0.8; stroke-linejoin: miter; stroke-linecap: square"/>
   </g>
   <g id="patch_4">
    <path d="M 446.4 331.2 
L 446.4 7.2 
" style="fill: none; stroke: #000000; stroke-width: 0.8; stroke-linejoin: miter; stroke-linecap: square"/>
   </g>
   <g id="patch_5">
    <path d="M 7.2 331.2 
L 446.4 331.2 
" style="fill: none; stroke: #000000; stroke-width: 0.8; stroke-linejoin: miter; stroke-linecap: square"/>
   </g>
   <g id="patch_6">
    <path d="M 7.2 7.2 
L 446.4 7.2 
" style="fill: none; stroke: #000000; stroke-width: 0.8; stroke-linejoin: miter; stroke-linecap: square"/>
   </g>
  </g>
 </g>
 <defs>
  <clipPath id="p9f8ec1ffe8">
   <rect x="7.2" y="7.2" width="439.2" height="324"/>
  </clipPath>
 </defs>
</svg>
