<?xml version="1.0" encoding="utf-8" standalone="no"?>
<!DOCTYPE svg PUBLIC "-//W3C//DTD SVG 1.1//EN"
  "http://www.w3.org/Graphics/SVG/1.1/DTD/svg11.dtd">
<svg xmlns:xlink="http://www.w3.org/1999/xlink" width="453.6pt" height="338.4pt" viewBox="0 0 453.6 338.4" xmlns="http://www.w3.org/2000/svg" version="1.1">
 <metadata>
  <rdf:RDF xmlns:dc="http://purl.org/dc/elements/1.1/" xmlns:cc="http://creativecommons.org/ns#" xmlns:rdf="http://www.w3.org/1999/02/22-rdf-syntax-ns#">
   <cc:Work>
    <dc:type rdf:resource="http://purl.org/dc/dcmitype/StillImage"/>
    <dc:date>2025-05-15T17:19:24.307349</dc:date>
    <dc:format>image/svg+xml</dc:format>
    <dc:creator>
     <cc:Agent>
      <dc:title>Matplotlib v3.10.1, https://matplotlib.org/</dc:title>
     </cc:Agent>
    </dc:creator>
   </cc:Work>
  </rdf:RDF>
 </metadata>
 <defs>
  <style type="text/css">*{stroke-linejoin: round; stroke-linecap: butt}</style>
 </defs>
 <g id="figure_1">
  <g id="patch_1">
   <path d="M 0 338.4 
L 453.6 338.4 
L 453.6 0 
L 0 0 
z
" style="fill: #ffffff"/>
  </g>
  <g id="axes_1">
   <g id="patch_2">
    <path d="M 7.2 331.2 
L 446.4 331.2 
L 446.4 7.2 
L 7.2 7.2 
z
" style="fill: #ffffff"/>
   </g>
   <g id="matplotlib.axis_1"/>
   <g id="matplotlib.axis_2"/>
   <g id="line2d_1">
    <path d="M 27.163636 214.854478 
L 29.109952 214.050028 
L 30.778222 213.415091 
L 31.612358 212.894423 
L 32.446493 212.095204 
L 33.280628 210.95347 
L 34.114763 209.463477 
L 35.226944 207.001534 
L 36.617169 203.294089 
L 38.007394 198.96924 
L 41.343935 188.034846 
L 42.17807 186.135225 
L 42.734161 185.251471 
L 43.290251 184.710695 
L 43.846341 184.526014 
L 44.402431 184.695144 
L 44.958521 185.202736 
L 45.514611 186.022917 
L 46.348747 187.764855 
L 47.460927 190.834949 
L 49.129197 196.383753 
L 54.968144 217.252004 
L 56.358369 223.051848 
L 58.02664 231.205789 
L 59.69491 239.417046 
L 60.529045 242.58974 
L 61.085135 244.072284 
L 61.641226 244.943796 
L 61.919271 245.133849 
L 62.197316 245.156371 
L 62.475361 245.011528 
L 63.031451 244.231124 
L 63.587541 242.831621 
L 64.143631 240.869574 
L 64.977767 237.003873 
L 66.089947 230.38698 
L 67.202127 222.328951 
L 68.592352 210.49737 
L 70.538668 191.517424 
L 74.153254 155.515788 
L 75.543479 143.927063 
L 76.65566 136.114224 
L 77.76784 129.709146 
L 78.601975 125.911353 
L 79.43611 123.005461 
L 80.270246 120.862153 
L 81.660471 117.716537 
L 82.216561 115.897206 
L 82.772651 113.319596 
L 83.328741 109.737787 
L 84.162877 102.229229 
L 85.275057 88.912911 
L 86.665282 71.988771 
L 87.221372 67.114656 
L 87.777463 64.138814 
L 88.055508 63.462877 
L 88.333553 63.350801 
L 88.611598 63.799689 
L 88.889643 64.791234 
L 89.445733 68.264266 
L 90.001823 73.395084 
L 91.114004 86.742866 
L 93.338364 114.647631 
L 94.172499 122.684783 
L 94.72859 126.615274 
L 95.28468 129.0794 
L 95.562725 129.68931 
L 95.84077 129.860171 
L 96.118815 129.586146 
L 96.39686 128.874057 
L 96.95295 126.229214 
L 97.50904 122.246155 
L 99.733401 103.742106 
L 100.289491 100.93797 
L 100.845581 99.319635 
L 101.123626 98.935466 
L 101.401671 98.810575 
L 101.679716 98.923375 
L 101.957761 99.252744 
L 102.513852 100.491637 
L 103.069942 102.43779 
L 103.626032 105.087442 
L 104.460167 110.498681 
L 105.294302 117.671111 
L 107.518663 139.009152 
L 108.074753 142.383627 
L 108.630843 144.250124 
L 108.908888 144.612023 
L 109.186933 144.626588 
L 109.464978 144.341258 
L 110.021069 143.137149 
L 110.855204 141.015005 
L 111.133249 140.590631 
L 111.411294 140.454504 
L 111.689339 140.682408 
L 111.967384 141.337915 
L 112.245429 142.470204 
L 112.801519 146.282845 
L 113.35761 152.194484 
L 114.191745 164.582829 
L 115.303925 185.545945 
L 117.528286 229.061752 
L 118.640466 246.800773 
L 119.752646 260.804166 
L 120.586781 268.973578 
L 121.420917 275.37425 
L 122.255052 280.258924 
L 123.089187 283.891928 
L 123.923322 286.522127 
L 124.757458 288.356084 
L 125.591593 289.547509 
L 126.147683 290.038091 
L 126.703773 290.310424 
L 127.259863 290.378575 
L 127.815953 290.253512 
L 128.372044 289.946647 
L 129.206179 289.180073 
L 130.318359 287.713622 
L 134.21099 282.009672 
L 135.601215 280.577232 
L 136.991441 279.468826 
L 138.381666 278.663058 
L 139.493847 278.271401 
L 140.606027 278.145446 
L 141.718207 278.308696 
L 142.830387 278.749668 
L 144.220613 279.592057 
L 147.279109 281.578517 
L 148.947379 282.360161 
L 150.893695 283.047654 
L 152.28392 283.356664 
L 153.674145 283.416816 
L 155.064371 283.194825 
L 156.454596 282.738128 
L 158.400912 281.845874 
L 161.181362 280.295178 
L 163.405723 279.144658 
L 164.795948 278.714039 
L 165.908129 278.582464 
L 167.298354 278.644286 
L 168.688579 278.926038 
L 169.80076 279.352703 
L 170.91294 280.01098 
L 172.303165 281.122799 
L 174.249481 282.728461 
L 175.361661 283.36914 
L 176.473841 283.722574 
L 177.864067 283.858345 
L 182.590833 284.021345 
L 185.649329 284.404804 
L 188.707825 284.816053 
L 190.09805 284.758041 
L 191.21023 284.485547 
L 192.322411 283.94228 
L 193.156546 283.311967 
L 193.990681 282.449177 
L 194.824816 281.310681 
L 195.658952 279.84964 
L 196.493087 278.015517 
L 197.327222 275.750107 
L 198.161357 272.981823 
L 198.995493 269.620289 
L 200.107673 264.022766 
L 201.219853 256.885558 
L 202.332033 247.932015 
L 203.444214 236.930649 
L 204.556394 223.732105 
L 205.946619 204.247601 
L 210.117296 141.696565 
L 211.229476 129.384204 
L 212.619701 116.773235 
L 215.122107 96.77369 
L 216.790377 85.008674 
L 219.014738 69.952067 
L 220.126918 60.176377 
L 222.629324 36.572934 
L 223.185414 33.676356 
L 223.463459 32.862371 
L 223.741504 32.513166 
L 224.019549 32.646105 
L 224.297594 33.265491 
L 224.575639 34.362956 
L 225.13173 37.895275 
L 225.965865 45.893057 
L 228.46827 73.884831 
L 229.024361 78.069328 
L 229.580451 80.961561 
L 230.136541 82.516624 
L 230.414586 82.803061 
L 230.692631 82.776385 
L 230.970676 82.451966 
L 231.526766 80.986205 
L 232.082856 78.586778 
L 232.916992 73.735577 
L 234.863307 61.7279 
L 235.419397 59.59282 
L 235.697442 58.925433 
L 235.975487 58.558726 
L 236.253533 58.509719 
L 236.531578 58.788149 
L 236.809623 59.395948 
L 237.365713 61.566113 
L 237.921803 64.878062 
L 238.755938 71.443961 
L 240.980299 92.083251 
L 242.648569 108.648148 
L 243.482704 119.005081 
L 244.31684 131.726135 
L 245.42902 152.397231 
L 248.487516 213.137295 
L 249.321651 225.360287 
L 250.155786 234.67939 
L 250.989921 241.180696 
L 251.546012 244.050114 
L 252.102102 245.80525 
L 252.380147 246.271781 
L 252.658192 246.464061 
L 252.936237 246.379612 
L 253.214282 246.014313 
L 253.492327 245.3629 
L 254.048417 243.175378 
L 254.604507 239.757594 
L 255.160598 235.042325 
L 255.994733 225.398828 
L 256.828868 212.546214 
L 257.663003 196.492399 
L 258.775184 170.635081 
L 262.667815 73.991737 
L 263.50195 61.354836 
L 264.05804 55.72554 
L 264.61413 52.359293 
L 264.892175 51.492156 
L 265.17022 51.137178 
L 265.448265 51.262894 
L 265.72631 51.83281 
L 266.282401 54.140038 
L 266.838491 57.702735 
L 267.672626 64.583377 
L 270.175032 86.405129 
L 271.287212 93.552291 
L 272.677437 100.476407 
L 273.789618 106.28278 
L 274.623753 112.059419 
L 275.457888 119.751129 
L 276.292023 129.582304 
L 277.404204 145.551181 
L 280.462699 191.832157 
L 281.296835 201.24454 
L 282.13097 208.416538 
L 282.965105 213.364364 
L 283.521195 215.539749 
L 284.077285 216.935169 
L 284.633376 217.660621 
L 284.911421 217.804453 
L 285.189466 217.81764 
L 285.745556 217.489826 
L 286.301646 216.737884 
L 286.857736 215.600022 
L 287.691871 213.213823 
L 288.526007 210.055543 
L 289.638187 204.813625 
L 292.974728 187.789208 
L 293.808863 184.877783 
L 294.642998 182.893014 
L 295.199088 182.0742 
L 295.755179 181.616149 
L 296.311269 181.463666 
L 296.867359 181.55483 
L 297.701494 182.021522 
L 298.813674 183.039662 
L 299.925855 184.395087 
L 301.038035 186.163712 
L 301.87217 187.863563 
L 302.98435 190.726584 
L 304.374576 195.163057 
L 306.042846 200.63983 
L 306.876982 202.742912 
L 307.433072 203.715838 
L 307.989162 204.291317 
L 308.545252 204.460799 
L 309.101342 204.249573 
L 309.657432 203.710648 
L 310.491567 202.440562 
L 311.603748 200.215637 
L 312.993973 196.944818 
L 314.662244 192.40157 
L 316.886604 186.246034 
L 317.720739 184.605781 
L 318.27683 183.90193 
L 318.83292 183.566637 
L 319.38901 183.625965 
L 319.9451 184.083835 
L 320.50119 184.923209 
L 321.335325 186.813204 
L 322.447506 190.209215 
L 324.671866 198.196184 
L 326.896227 205.783634 
L 328.564497 210.687744 
L 329.954723 214.116558 
L 331.066903 216.317442 
L 331.901038 217.545371 
L 332.457128 218.103584 
L 333.013219 218.413659 
L 333.569309 218.446185 
L 334.125399 218.183175 
L 334.681489 217.624696 
L 335.515624 216.28283 
L 336.349759 214.462885 
L 338.01803 210.117093 
L 340.520436 203.665302 
L 341.910661 200.606324 
L 343.022841 198.711883 
L 343.856976 197.707403 
L 344.691112 197.036917 
L 345.803292 196.475179 
L 347.749607 195.570593 
L 349.417878 194.478037 
L 350.530058 193.551844 
L 351.364193 192.604599 
L 352.198329 191.252312 
L 353.032464 189.313854 
L 353.866599 186.633643 
L 354.700734 183.096465 
L 355.53487 178.604216 
L 356.369005 173.068699 
L 357.481185 163.989275 
L 358.87141 150.221724 
L 363.042087 106.344622 
L 364.432312 94.740125 
L 365.544492 87.242994 
L 366.378628 82.85581 
L 367.212763 79.663783 
L 367.768853 78.25916 
L 368.324943 77.477403 
L 368.602988 77.331851 
L 368.881033 77.355167 
L 369.159078 77.549867 
L 369.715168 78.453558 
L 370.271259 80.017977 
L 371.105394 83.411986 
L 373.051709 92.460017 
L 373.607799 93.921593 
L 373.885845 94.252953 
L 374.16389 94.270556 
L 374.441935 93.946137 
L 374.71998 93.259055 
L 375.27607 90.755055 
L 375.83216 86.76232 
L 376.666295 78.32414 
L 377.778476 64.0988 
L 379.446746 42.539383 
L 380.280881 33.95541 
L 381.115016 27.576566 
L 381.671107 24.629935 
L 382.227197 22.743049 
L 382.505242 22.20005 
L 382.783287 21.927273 
L 383.061332 21.92852 
L 383.339377 22.208841 
L 383.617422 22.773929 
L 384.173512 24.784399 
L 384.729602 28.010064 
L 385.285693 32.487959 
L 386.119828 41.566447 
L 386.953963 53.357718 
L 388.066143 72.753709 
L 389.456369 101.403636 
L 394.739225 216.010928 
L 395.851405 233.960682 
L 396.963586 248.11465 
L 397.797721 256.294744 
L 398.631856 262.658897 
L 399.465991 267.576959 
L 400.300127 271.426239 
L 401.412307 275.374486 
L 402.246442 277.61447 
L 403.080577 279.249791 
L 403.636668 279.993455 
L 404.192758 280.462023 
L 404.748848 280.672455 
L 405.304938 280.656282 
L 406.139073 280.303097 
L 407.251253 279.477916 
L 409.197569 278.00103 
L 410.309749 277.494306 
L 411.143885 277.337717 
L 412.256065 277.365057 
L 413.64629 277.422033 
L 414.480425 277.199219 
L 415.036516 276.860953 
L 415.870651 276.030665 
L 416.704786 274.853602 
L 420.041327 269.641382 
L 420.875462 268.859714 
L 421.709597 268.397364 
L 422.543733 268.271636 
L 423.099823 268.380362 
L 423.933958 268.824352 
L 424.768093 269.556772 
L 426.436364 271.431331 
L 426.436364 271.431331 
" clip-path="url(#p360e2fa9fe)" style="fill: none; stroke-dasharray: 11.1,4.8; stroke-dashoffset: 0; stroke: #000000; stroke-width: 3"/>
   </g>
   <g id="line2d_2">
    <path d="M 27.163636 172.286469 
L 29.109952 171.696576 
L 30.778222 171.38475 
L 32.446493 171.247788 
L 34.392808 171.308806 
L 36.617169 171.631595 
L 37.451304 171.852187 
L 38.84153 172.486963 
L 40.231755 173.401879 
L 41.62198 174.581445 
L 43.290251 176.322095 
L 44.958521 178.415994 
L 47.182882 181.226528 
L 48.851152 183.032702 
L 50.241378 184.260369 
L 51.631603 185.17963 
L 53.299873 186.049704 
L 54.134009 186.77497 
L 54.968144 187.249146 
L 55.246189 187.35398 
L 55.802279 187.163967 
L 56.636414 186.586265 
L 57.47055 185.682796 
L 58.304685 184.449617 
L 59.416865 182.274463 
L 60.529045 179.49324 
L 61.641226 176.095629 
L 62.753406 172.068735 
L 64.143631 166.1357 
L 65.533857 159.167406 
L 66.924082 151.13826 
L 68.592352 140.0662 
L 69.148443 136.641189 
L 71.650848 131.610417 
L 75.821524 123.018235 
L 77.76784 119.594311 
L 79.43611 117.061684 
L 80.826336 115.295665 
L 82.216561 113.89587 
L 83.328741 113.070035 
L 84.440922 112.532287 
L 85.275057 112.333845 
L 86.109192 112.349094 
L 87.221372 112.613563 
L 88.333553 113.113087 
L 89.723778 114.021043 
L 91.114004 115.216642 
L 92.226184 116.152521 
L 93.060319 116.2958 
L 94.450544 116.85612 
L 96.118815 117.781216 
L 97.787085 118.951789 
L 99.733401 120.588531 
L 101.957761 122.762619 
L 103.069942 123.873764 
L 105.294302 125.126176 
L 106.962573 126.453587 
L 108.630843 128.102279 
L 109.186933 128.78902 
L 111.133249 132.409375 
L 111.411294 132.93642 
L 111.967384 135.628702 
L 113.079564 142.199449 
L 114.46979 151.896781 
L 116.13806 165.389935 
L 118.084376 183.159866 
L 120.308736 205.319436 
L 124.757458 254.945787 
L 127.815953 287.317945 
L 128.928134 290.702057 
L 130.040314 293.480422 
L 131.152494 295.707621 
L 132.264675 297.425397 
L 133.376855 298.683885 
L 134.21099 299.346766 
L 135.045125 299.795352 
L 135.879261 300.048595 
L 136.713396 300.120737 
L 137.825576 299.952592 
L 138.937756 299.550901 
L 140.327982 298.799582 
L 143.664523 296.75113 
L 153.3961 294.708451 
L 155.342416 293.292884 
L 157.288731 291.574263 
L 159.235047 289.292867 
L 159.513092 289.741775 
L 161.459407 295.565911 
L 163.127678 299.90608 
L 164.795948 303.668064 
L 166.464219 306.852588 
L 167.854444 309.072262 
L 169.24467 310.891352 
L 171.190985 312.964147 
L 172.58121 314.068733 
L 174.249481 315.02306 
L 174.805571 315.183681 
L 175.083616 315.19893 
L 175.917751 316.056209 
L 176.473841 316.372682 
L 177.029932 316.472727 
L 177.586022 316.353288 
L 178.142112 316.007162 
L 178.698202 315.438955 
L 179.532337 314.166124 
L 180.366473 312.371658 
L 181.200608 310.057631 
L 182.312788 306.146172 
L 183.424968 301.275719 
L 184.537149 295.424866 
L 185.927374 286.713365 
L 187.317599 276.317866 
L 188.98587 261.013207 
L 190.65414 244.866438 
L 193.712636 226.247758 
L 201.219853 181.518557 
L 203.166169 168.203989 
L 206.224664 146.787952 
L 210.395341 122.418806 
L 211.785566 115.921207 
L 213.175791 110.407407 
L 214.566017 105.886339 
L 215.678197 102.988776 
L 216.790377 100.733171 
L 217.624513 99.468648 
L 218.458648 98.567009 
L 218.736693 98.413752 
L 219.292783 98.561416 
L 220.126918 99.121214 
L 220.961053 100.006798 
L 221.795189 101.203927 
L 222.907369 103.265275 
L 224.019549 105.82675 
L 225.409775 109.678621 
L 228.46827 119.401059 
L 230.414586 126.521223 
L 233.751127 139.041723 
L 235.141352 143.738338 
L 236.531578 149.245298 
L 238.199848 156.802541 
L 240.980299 170.821654 
L 243.76075 186.088914 
L 247.931426 209.662904 
L 249.043606 212.905749 
L 250.155786 215.552484 
L 251.267967 217.615079 
L 252.102102 218.777002 
L 252.936237 219.615249 
L 253.770372 220.125858 
L 254.604507 220.317641 
L 255.160598 220.263605 
L 255.716688 219.916835 
L 256.550823 219.060119 
L 257.384958 217.860959 
L 258.219093 216.326214 
L 259.331274 213.755484 
L 260.443454 210.592044 
L 261.833679 205.815782 
L 263.50195 199.799038 
L 265.448265 194.133449 
L 267.394581 189.162045 
L 269.618942 184.092184 
L 272.121347 178.880775 
L 273.789618 175.876949 
L 275.735933 172.830957 
L 277.682249 170.081098 
L 277.960294 169.893681 
L 279.906609 170.559459 
L 281.57488 171.058762 
L 282.68706 171.107024 
L 283.79924 170.924214 
L 284.911421 170.501258 
L 286.023601 169.828137 
L 287.135781 168.892118 
L 288.247962 167.68155 
L 289.360142 166.113088 
L 290.472322 164.187817 
L 291.862547 161.267923 
L 293.530818 157.540541 
L 294.642998 156.277266 
L 295.755179 155.303404 
L 296.867359 154.599725 
L 297.979539 154.150978 
L 298.813674 153.984765 
L 299.925855 154.347528 
L 301.038035 154.925069 
L 302.42826 155.906535 
L 304.096531 157.399999 
L 306.042846 159.491241 
L 309.657432 163.994042 
L 310.769613 164.785375 
L 312.159838 166.065952 
L 313.828108 167.960604 
L 315.496379 170.180379 
L 318.554875 174.746089 
L 321.61337 179.758513 
L 324.393821 184.559922 
L 324.671866 184.589274 
L 325.784047 184.010164 
L 326.896227 183.128382 
L 328.008407 181.919887 
L 328.842542 180.688739 
L 332.735173 174.619186 
L 334.681489 171.732265 
L 338.57412 167.04784 
L 346.081337 158.091487 
L 348.305698 155.046138 
L 353.310509 147.731878 
L 359.983591 138.512867 
L 361.373816 137.035296 
L 363.320132 134.775225 
L 365.266447 132.128892 
L 366.378628 130.346055 
L 367.212763 128.848528 
L 369.715168 120.269946 
L 370.827349 117.49828 
L 371.939529 115.366761 
L 372.773664 114.172087 
L 373.607799 113.311448 
L 374.441935 112.7737 
L 375.27607 112.547697 
L 376.110205 112.626639 
L 376.94434 112.994835 
L 377.778476 113.640978 
L 378.334566 114.226324 
L 378.890656 115.291118 
L 380.280881 118.658633 
L 381.949152 123.340965 
L 386.953963 138.691633 
L 388.344188 144.11961 
L 389.734414 150.387062 
L 391.124639 157.556797 
L 392.79291 167.448285 
L 394.46118 178.824968 
L 396.963586 198.062532 
L 398.353811 209.731888 
L 399.744036 223.277207 
L 400.856217 233.403933 
L 402.246442 243.595478 
L 403.636668 252.171263 
L 405.026893 259.277969 
L 406.139073 263.998303 
L 407.251253 267.936962 
L 408.363434 271.169426 
L 409.475614 273.764599 
L 410.587794 275.789151 
L 411.699975 277.305368 
L 412.812155 278.38191 
L 413.924335 279.08569 
L 415.036516 279.629715 
L 416.982831 282.005464 
L 417.260876 282.062658 
L 417.816966 281.493808 
L 419.485237 279.28043 
L 423.099823 274.617431 
L 426.158319 271.027273 
L 426.436364 270.720658 
L 426.436364 270.720658 
" clip-path="url(#p360e2fa9fe)" style="fill: none; stroke: #ff00ff; stroke-width: 3; stroke-linecap: square"/>
   </g>
   <g id="patch_3">
    <path d="M 7.2 331.2 
L 7.2 7.2 
" style="fill: none; stroke: #000000; stroke-width: 0.8; stroke-linejoin: miter; stroke-linecap: square"/>
   </g>
   <g id="patch_4">
    <path d="M 446.4 331.2 
L 446.4 7.2 
" style="fill: none; stroke: #000000; stroke-width: 0.8; stroke-linejoin: miter; stroke-linecap: square"/>
   </g>
   <g id="patch_5">
    <path d="M 7.2 331.2 
L 446.4 331.2 
" style="fill: none; stroke: #000000; stroke-width: 0.8; stroke-linejoin: miter; stroke-linecap: square"/>
   </g>
   <g id="patch_6">
    <path d="M 7.2 7.2 
L 446.4 7.2 
" style="fill: none; stroke: #000000; stroke-width: 0.8; stroke-linejoin: miter; stroke-linecap: square"/>
   </g>
  </g>
 </g>
 <defs>
  <clipPath id="p360e2fa9fe">
   <rect x="7.2" y="7.2" width="439.2" height="324"/>
  </clipPath>
 </defs>
</svg>
