<?xml version="1.0" encoding="utf-8" standalone="no"?>
<!DOCTYPE svg PUBLIC "-//W3C//DTD SVG 1.1//EN"
  "http://www.w3.org/Graphics/SVG/1.1/DTD/svg11.dtd">
<svg xmlns:xlink="http://www.w3.org/1999/xlink" width="453.6pt" height="338.4pt" viewBox="0 0 453.6 338.4" xmlns="http://www.w3.org/2000/svg" version="1.1">
 <metadata>
  <rdf:RDF xmlns:dc="http://purl.org/dc/elements/1.1/" xmlns:cc="http://creativecommons.org/ns#" xmlns:rdf="http://www.w3.org/1999/02/22-rdf-syntax-ns#">
   <cc:Work>
    <dc:type rdf:resource="http://purl.org/dc/dcmitype/StillImage"/>
    <dc:date>2025-05-15T18:33:38.472958</dc:date>
    <dc:format>image/svg+xml</dc:format>
    <dc:creator>
     <cc:Agent>
      <dc:title>Matplotlib v3.10.1, https://matplotlib.org/</dc:title>
     </cc:Agent>
    </dc:creator>
   </cc:Work>
  </rdf:RDF>
 </metadata>
 <defs>
  <style type="text/css">*{stroke-linejoin: round; stroke-linecap: butt}</style>
 </defs>
 <g id="figure_1">
  <g id="patch_1">
   <path d="M 0 338.4 
L 453.6 338.4 
L 453.6 0 
L 0 0 
z
" style="fill: #ffffff"/>
  </g>
  <g id="axes_1">
   <g id="patch_2">
    <path d="M 7.2 331.2 
L 446.4 331.2 
L 446.4 7.2 
L 7.2 7.2 
z
" style="fill: #ffffff"/>
   </g>
   <g id="matplotlib.axis_1"/>
   <g id="matplotlib.axis_2"/>
   <g id="line2d_1">
    <path d="M 27.163636 241.663352 
L 28.831907 219.961173 
L 29.387997 215.098567 
L 29.944087 212.319359 
L 30.222132 211.763297 
L 30.500177 211.771367 
L 30.778222 212.329996 
L 31.056267 213.421579 
L 31.612358 217.059822 
L 32.446493 225.365902 
L 35.226944 257.166324 
L 35.783034 260.980262 
L 36.339124 263.329952 
L 36.617169 263.929663 
L 36.895214 264.144605 
L 37.173259 263.98725 
L 37.451304 263.47557 
L 38.007394 261.496343 
L 38.563484 258.482019 
L 39.675665 250.76171 
L 40.787845 243.394993 
L 41.343935 240.638526 
L 41.900025 238.712851 
L 42.456115 237.632271 
L 42.734161 237.379549 
L 43.012206 237.29482 
L 43.568296 237.510862 
L 44.124386 238.073526 
L 45.792656 240.359762 
L 47.182882 242.443159 
L 48.017017 244.135919 
L 49.407242 247.669626 
L 50.241378 249.539548 
L 50.797468 250.241961 
L 51.075513 250.349432 
L 51.353558 250.261035 
L 51.631603 249.956595 
L 51.909648 249.419606 
L 52.465738 247.591498 
L 53.021828 244.73673 
L 53.855964 238.689009 
L 54.968144 228.343546 
L 56.358369 215.309841 
L 57.192504 209.598104 
L 57.748595 207.228606 
L 58.02664 206.518124 
L 58.304685 206.119051 
L 58.58273 206.014514 
L 58.860775 206.172969 
L 59.416865 207.107197 
L 60.80709 210.440266 
L 61.085135 210.795324 
L 61.363181 210.917834 
L 61.641226 210.77295 
L 61.919271 210.334629 
L 62.475361 208.546869 
L 63.031451 205.63158 
L 63.865586 199.768723 
L 65.255812 189.840307 
L 65.811902 187.180307 
L 66.367992 185.75274 
L 66.646037 185.548435 
L 66.924082 185.688551 
L 67.202127 186.166118 
L 67.758217 188.073821 
L 68.314307 191.074573 
L 69.148443 197.057372 
L 71.372803 214.582486 
L 71.928893 217.57627 
L 72.484984 219.354126 
L 72.763029 219.68791 
L 73.041074 219.602447 
L 73.319119 219.07096 
L 73.597164 218.069976 
L 74.153254 214.606695 
L 74.709344 209.172255 
L 75.543479 197.569785 
L 76.65566 177.38247 
L 78.601975 140.678729 
L 79.43611 129.033344 
L 79.992201 123.447417 
L 80.548291 119.643383 
L 81.104381 117.452515 
L 81.382426 116.861974 
L 81.660471 116.539561 
L 81.938516 116.428422 
L 82.494606 116.603383 
L 83.328741 117.021897 
L 83.606787 117.007592 
L 83.884832 116.851337 
L 84.162877 116.52709 
L 84.718967 115.325835 
L 85.275057 113.386588 
L 86.109192 109.311859 
L 87.777463 99.129987 
L 89.723778 87.783907 
L 91.948139 76.412518 
L 93.338364 70.466766 
L 94.450544 66.799546 
L 95.28468 64.726786 
L 96.118815 63.162404 
L 96.95295 62.113369 
L 97.50904 61.699624 
L 98.06513 61.512925 
L 98.621221 61.537867 
L 99.733401 61.961149 
L 100.567536 62.155551 
L 101.123626 62.035242 
L 101.679716 61.666246 
L 103.347987 60.225474 
L 103.626032 60.265454 
L 103.904077 60.487366 
L 104.182122 60.923852 
L 104.738212 62.550223 
L 105.294302 65.276612 
L 106.128438 71.252809 
L 108.352798 89.232015 
L 108.908888 91.763637 
L 109.464978 93.032382 
L 109.743024 93.224949 
L 110.021069 93.166262 
L 110.299114 92.901803 
L 110.855204 91.968675 
L 111.689339 90.423367 
L 112.245429 89.886378 
L 112.523474 89.870606 
L 112.801519 90.037865 
L 113.35761 90.905702 
L 113.9137 92.363347 
L 116.13806 99.211049 
L 117.806331 103.302284 
L 118.362421 105.499755 
L 118.918511 108.591473 
L 119.752646 115.112727 
L 120.864827 126.491452 
L 122.255052 140.691933 
L 123.089187 146.738187 
L 123.645277 149.303921 
L 124.201367 150.758998 
L 124.479413 151.13533 
L 124.757458 151.321295 
L 125.313548 151.304789 
L 126.703773 150.736257 
L 127.259863 150.766334 
L 128.650089 151.086179 
L 128.928134 150.969172 
L 129.206179 150.710948 
L 129.762269 149.681353 
L 130.318359 147.854346 
L 130.874449 145.239829 
L 131.98663 138.492262 
L 132.820765 133.716953 
L 133.376855 131.565699 
L 133.6549 130.95095 
L 133.932945 130.686123 
L 134.21099 130.793228 
L 134.489035 131.269328 
L 135.045125 133.261027 
L 135.879261 138.147841 
L 136.991441 145.068902 
L 137.547531 147.173574 
L 137.825576 147.625832 
L 138.103621 147.606759 
L 138.381666 147.082241 
L 138.659711 146.037242 
L 139.215801 142.401566 
L 139.771892 136.879829 
L 140.606027 125.887707 
L 144.220613 73.254777 
L 145.332793 61.407655 
L 146.166928 54.806073 
L 146.723018 51.840166 
L 147.279109 50.213795 
L 147.557154 49.929896 
L 147.835199 49.996652 
L 148.113244 50.400861 
L 148.669334 52.097656 
L 149.503469 56.096092 
L 150.337604 60.157617 
L 150.893695 61.881188 
L 151.17174 62.241748 
L 151.449785 62.198833 
L 151.72783 61.721265 
L 152.005875 60.791439 
L 152.561965 57.61059 
L 153.118055 52.878196 
L 154.230236 40.730669 
L 155.342416 29.313064 
L 155.898506 25.304724 
L 156.454596 22.833257 
L 156.732641 22.190632 
L 157.010686 21.927273 
L 157.288731 22.016037 
L 157.566776 22.416578 
L 158.122867 23.974724 
L 158.957002 27.473952 
L 163.127678 47.526653 
L 165.073993 58.180223 
L 165.630084 60.127539 
L 166.186174 61.167037 
L 166.464219 61.318524 
L 166.742264 61.224257 
L 167.020309 60.894508 
L 167.576399 59.609258 
L 168.410534 56.590532 
L 170.078805 49.972444 
L 170.91294 47.615417 
L 171.46903 46.524568 
L 172.02512 45.778506 
L 172.58121 45.375031 
L 173.137301 45.338352 
L 173.693391 45.760166 
L 174.249481 46.74978 
L 174.805571 48.472251 
L 175.361661 51.059625 
L 175.917751 54.581961 
L 176.751887 61.539335 
L 177.864067 73.074681 
L 179.532337 90.469216 
L 180.366473 97.144157 
L 181.200608 101.80686 
L 181.756698 103.828269 
L 182.312788 105.106184 
L 182.868878 105.780354 
L 183.424968 105.985392 
L 183.981058 105.843442 
L 184.537149 105.423828 
L 185.093239 104.736821 
L 185.649329 103.743539 
L 186.205419 102.383462 
L 186.761509 100.577362 
L 187.595644 96.865393 
L 188.42978 91.831127 
L 189.54196 83.242248 
L 192.322411 60.171555 
L 192.878501 57.257366 
L 193.434591 55.487578 
L 193.712636 55.078602 
L 193.990681 55.003409 
L 194.268726 55.2631 
L 194.546771 55.855107 
L 195.102861 57.994991 
L 195.658952 61.26864 
L 196.493087 67.716902 
L 198.439402 83.628116 
L 198.995493 86.781823 
L 199.551583 88.855317 
L 199.829628 89.454293 
L 200.107673 89.762768 
L 200.385718 89.793946 
L 200.663763 89.559564 
L 201.219853 88.407459 
L 202.053988 85.541688 
L 203.166169 81.535182 
L 203.722259 80.287711 
L 204.000304 79.996842 
L 204.278349 79.963097 
L 204.556394 80.211785 
L 204.834439 80.756109 
L 205.390529 82.753309 
L 205.946619 85.922054 
L 206.780755 92.572787 
L 208.17098 106.654794 
L 209.83925 123.471993 
L 211.229476 135.243189 
L 213.175791 151.579152 
L 216.234287 179.469536 
L 217.068422 184.084188 
L 217.624513 186.063415 
L 218.180603 187.361871 
L 219.848873 190.50604 
L 220.404963 192.459226 
L 220.961053 195.280248 
L 221.795189 201.258646 
L 222.629324 209.088259 
L 224.297594 227.660574 
L 225.965865 245.521672 
L 227.078045 255.292366 
L 228.190225 262.977095 
L 229.302406 268.819411 
L 230.414586 273.320724 
L 231.526766 276.870569 
L 232.360901 278.951766 
L 233.195037 280.50331 
L 234.307217 281.981862 
L 235.141352 283.226765 
L 235.697442 284.513116 
L 236.253533 286.42412 
L 236.809623 289.128502 
L 237.643758 294.745606 
L 240.146164 314.369156 
L 240.702254 316.230276 
L 240.980299 316.472727 
L 241.258344 316.214503 
L 241.536389 315.440932 
L 242.092479 312.373056 
L 242.648569 307.45323 
L 243.482704 297.520046 
L 245.42902 272.523311 
L 246.263155 265.00474 
L 246.819245 261.607848 
L 247.375336 259.425049 
L 247.931426 258.26781 
L 248.209471 257.998582 
L 248.487516 257.889644 
L 249.043606 258.051768 
L 249.599696 258.555011 
L 250.433831 259.710416 
L 251.267967 261.306709 
L 251.824057 262.731342 
L 252.380147 264.596863 
L 252.936237 267.028717 
L 253.770372 271.97165 
L 254.604507 278.569565 
L 255.716688 289.416803 
L 257.384958 305.820257 
L 258.219093 311.499716 
L 258.775184 313.659407 
L 259.053229 314.193828 
L 259.331274 314.36072 
L 259.609319 314.169986 
L 259.887364 313.635565 
L 260.443454 311.650102 
L 261.277589 306.965392 
L 263.223905 294.583115 
L 264.05804 291.06995 
L 264.61413 289.637614 
L 265.17022 288.873579 
L 265.72631 288.646533 
L 266.282401 288.77968 
L 267.672626 289.356282 
L 268.228716 289.175452 
L 268.784806 288.500548 
L 269.340896 287.191089 
L 269.896987 285.137402 
L 270.453077 282.28887 
L 271.287212 276.519179 
L 272.399392 266.493929 
L 274.901798 242.418584 
L 275.735933 236.644858 
L 276.570068 232.501172 
L 277.404204 229.578546 
L 279.072474 224.342176 
L 279.906609 220.815439 
L 282.409015 208.830402 
L 282.965105 207.206965 
L 283.521195 206.273105 
L 283.79924 206.05963 
L 284.077285 206.000942 
L 284.633376 206.268703 
L 285.189466 206.899591 
L 287.413826 210.259803 
L 288.526007 212.109185 
L 289.360142 213.920787 
L 291.584502 219.312679 
L 292.140593 220.111559 
L 292.696683 220.517601 
L 293.252773 220.579223 
L 294.086908 220.303026 
L 294.642998 220.126597 
L 295.199088 220.168779 
L 295.755179 220.566752 
L 296.311269 221.393875 
L 296.867359 222.657118 
L 297.701494 225.270902 
L 298.813674 229.676848 
L 301.31608 240.058623 
L 301.87217 241.712503 
L 302.42826 242.820591 
L 302.706305 243.125398 
L 302.98435 243.242773 
L 303.262396 243.164279 
L 303.540441 242.881113 
L 304.096531 241.717638 
L 304.652621 239.808835 
L 305.486756 235.895862 
L 307.433072 226.047408 
L 307.989162 224.090188 
L 308.545252 222.770458 
L 309.101342 222.100323 
L 309.379387 221.987717 
L 309.657432 222.008258 
L 310.213522 222.362949 
L 311.047658 223.367234 
L 312.159838 224.681095 
L 312.715928 225.025516 
L 313.272018 225.0765 
L 313.828108 224.83735 
L 314.384199 224.356481 
L 315.496379 222.992003 
L 316.608559 221.658702 
L 317.442694 220.924377 
L 318.554875 220.30376 
L 320.223145 219.533489 
L 321.05728 218.830343 
L 321.61337 218.087949 
L 322.169461 217.037814 
L 322.725551 215.594474 
L 323.281641 213.682737 
L 324.115776 209.843857 
L 324.949911 204.896888 
L 327.730362 186.945925 
L 328.286452 184.835751 
L 328.842542 183.686948 
L 329.120587 183.492547 
L 329.398633 183.549033 
L 329.676678 183.850906 
L 330.232768 185.114883 
L 330.788858 187.117585 
L 331.622993 191.061735 
L 333.569309 201.879997 
L 335.237579 212.320092 
L 337.46194 226.791635 
L 338.01803 229.224589 
L 338.57412 230.762195 
L 338.852165 231.182909 
L 339.13021 231.388315 
L 339.408255 231.402986 
L 339.964345 231.025187 
L 340.798481 230.242446 
L 341.076526 230.172021 
L 341.354571 230.293797 
L 341.632616 230.665728 
L 341.910661 231.331461 
L 342.466751 233.666114 
L 343.022841 237.421364 
L 343.856976 245.44868 
L 346.637427 276.685337 
L 347.193517 280.517615 
L 347.749607 282.886746 
L 348.027653 283.492325 
L 348.305698 283.7047 
L 348.583743 283.527537 
L 348.861788 282.96524 
L 349.417878 280.719352 
L 349.973968 277.074874 
L 350.808103 269.33916 
L 351.920284 256.046498 
L 354.144644 228.006462 
L 355.256825 217.134648 
L 356.09096 211.00073 
L 356.925095 206.465305 
L 357.75923 203.273086 
L 358.593365 201.147507 
L 359.427501 199.776059 
L 361.651861 196.916889 
L 362.485996 195.215693 
L 364.710357 190.035809 
L 365.266447 189.343666 
L 365.822537 189.074805 
L 366.378628 189.166504 
L 367.490808 189.642971 
L 367.768853 189.613261 
L 368.046898 189.444902 
L 368.324943 189.09718 
L 368.881033 187.733801 
L 369.437123 185.33496 
L 369.993213 181.822895 
L 370.827349 174.651312 
L 372.217574 159.70807 
L 373.607799 145.185176 
L 374.71998 135.978613 
L 375.83216 129.013903 
L 377.222385 122.192244 
L 379.168701 112.942032 
L 380.280881 106.41711 
L 381.393062 98.228404 
L 382.505242 88.293386 
L 384.729602 67.525801 
L 385.563738 62.03891 
L 386.119828 59.816864 
L 386.397873 59.219354 
L 386.675918 58.985705 
L 386.953963 59.130223 
L 387.232008 59.659509 
L 387.788098 61.860647 
L 388.344188 65.49779 
L 389.178324 73.188388 
L 390.846594 92.367749 
L 391.958774 103.687419 
L 392.79291 109.787226 
L 393.349 112.614117 
L 393.90509 114.620121 
L 394.739225 116.708654 
L 395.57336 118.65487 
L 396.407496 121.311201 
L 397.241631 124.921935 
L 398.909901 132.565583 
L 399.465991 134.168111 
L 400.022082 134.925544 
L 400.300127 134.972494 
L 400.578172 134.812571 
L 401.134262 133.975177 
L 402.802532 130.339502 
L 403.080577 130.068073 
L 403.358622 129.995448 
L 403.636668 130.139965 
L 403.914713 130.510795 
L 404.470803 131.910119 
L 405.304938 135.2751 
L 406.695163 141.267802 
L 407.251253 142.641084 
L 407.529299 142.957628 
L 407.807344 143.003111 
L 408.085389 142.766894 
L 408.363434 142.250813 
L 408.919524 140.438478 
L 409.475614 137.73813 
L 410.587794 130.691625 
L 413.0902 114.13155 
L 414.480425 106.467728 
L 415.314561 102.957863 
L 415.870651 101.43713 
L 416.148696 101.007613 
L 416.426741 100.829717 
L 416.704786 100.925817 
L 416.982831 101.305817 
L 417.538921 102.922651 
L 418.095011 105.595855 
L 418.929147 110.989581 
L 420.041327 118.489078 
L 420.597417 121.281124 
L 421.153507 122.940873 
L 421.431552 123.28236 
L 421.709597 123.288228 
L 421.987642 122.966549 
L 422.265688 122.337495 
L 422.821778 120.274271 
L 423.655913 115.772959 
L 425.880273 101.458404 
L 426.436364 97.595316 
L 426.436364 97.595316 
" clip-path="url(#p66f431212f)" style="fill: none; stroke-dasharray: 11.1,4.8; stroke-dashoffset: 0; stroke: #000000; stroke-width: 3"/>
   </g>
   <g id="line2d_2">
    <path d="M 27.163636 208.65544 
L 28.831907 203.880865 
L 30.500177 199.83548 
L 32.168448 196.411445 
L 33.836718 193.500558 
L 35.783034 190.603241 
L 36.895214 188.932122 
L 37.451304 188.084824 
L 38.007394 187.588184 
L 38.563484 187.327025 
L 39.119575 187.284477 
L 39.675665 187.446601 
L 40.231755 187.797257 
L 41.06589 188.625848 
L 41.900025 189.765114 
L 43.012206 191.659612 
L 44.680476 195.001117 
L 47.182882 200.06326 
L 48.295062 201.909341 
L 49.129197 202.98295 
L 49.963332 203.708105 
L 50.519423 203.953858 
L 51.075513 203.98797 
L 51.631603 203.786966 
L 52.187693 203.327371 
L 52.743783 202.585344 
L 53.299873 201.529341 
L 53.855964 200.127816 
L 54.412054 197.815171 
L 55.246189 193.124592 
L 55.802279 187.691987 
L 56.080324 186.455153 
L 57.748595 182.422972 
L 59.416865 178.9872 
L 61.085135 176.060907 
L 62.753406 173.552393 
L 64.699721 171.033243 
L 67.202127 168.22139 
L 71.928893 163.111197 
L 73.319119 161.322337 
L 74.153254 160.759306 
L 75.265434 160.577742 
L 84.997012 159.29946 
L 87.221372 158.617588 
L 88.889643 157.902337 
L 90.557913 156.884847 
L 91.948139 155.825175 
L 93.338364 154.656932 
L 95.84077 152.807183 
L 98.343175 151.229596 
L 100.845581 149.932975 
L 103.069942 149.022589 
L 105.294302 148.347685 
L 108.630843 147.633902 
L 110.855204 147.450504 
L 115.58197 148.702743 
L 119.474601 149.506759 
L 123.089187 150.018438 
L 126.425728 150.291334 
L 127.537908 150.256855 
L 133.09881 148.497705 
L 135.045125 148.249384 
L 136.713396 148.261122 
L 138.381666 148.52228 
L 139.771892 148.956932 
L 140.884072 149.497956 
L 142.552342 150.563496 
L 144.220613 151.928708 
L 146.166928 153.654847 
L 147.557154 154.527086 
L 148.947379 155.16421 
L 150.337604 155.575754 
L 151.72783 155.769055 
L 153.118055 155.753283 
L 154.508281 155.53614 
L 156.176551 155.023727 
L 157.844821 154.253824 
L 159.791137 153.094751 
L 161.459407 151.954017 
L 162.849633 151.870388 
L 165.908129 149.27201 
L 168.410534 147.413458 
L 170.634895 146.027705 
L 172.58121 145.065601 
L 174.249481 144.45452 
L 175.361661 144.239578 
L 177.029932 144.188226 
L 177.864067 144.275157 
L 178.142112 144.537049 
L 183.424968 152.676237 
L 186.205419 156.654132 
L 188.42978 159.470754 
L 190.376095 161.55892 
L 192.044366 162.996024 
L 193.434591 163.877433 
L 194.824816 164.496217 
L 196.215042 164.415155 
L 199.273538 164.480811 
L 203.722259 164.587915 
L 205.946619 164.394981 
L 207.61489 164.047626 
L 209.28316 163.468823 
L 210.951431 162.600618 
L 211.785566 162.129653 
L 212.619701 162.023283 
L 214.009927 162.376873 
L 215.678197 163.001892 
L 217.624513 163.975734 
L 219.570828 165.188359 
L 221.795189 166.833437 
L 224.297594 168.968185 
L 227.634135 172.158938 
L 228.46827 173.023108 
L 230.692631 177.227316 
L 233.473082 182.008493 
L 235.697442 185.443898 
L 237.643758 188.066118 
L 239.312028 189.967218 
L 240.702254 191.269708 
L 242.092479 192.285731 
L 243.204659 192.872971 
L 244.31684 193.247469 
L 245.150975 193.389419 
L 252.380147 193.090847 
L 255.716688 192.641523 
L 259.609319 191.884091 
L 262.111724 191.273743 
L 264.61413 189.457739 
L 268.228716 186.861562 
L 271.287212 184.914246 
L 274.067663 183.382142 
L 276.570068 182.227103 
L 278.794429 181.412084 
L 279.628564 181.351929 
L 280.462699 181.68498 
L 281.57488 182.367219 
L 282.68706 183.296311 
L 284.077285 184.795037 
L 285.467511 186.653956 
L 286.857736 188.859863 
L 288.526007 191.944612 
L 290.194277 195.485287 
L 292.140593 200.160827 
L 294.364953 206.176271 
L 296.867359 213.095865 
L 299.091719 218.943683 
L 301.594125 226.235941 
L 305.208711 237.592658 
L 311.603748 257.821053 
L 312.437883 260.180281 
L 312.715928 260.539374 
L 313.828108 261.067559 
L 314.106153 261.04335 
L 315.218334 260.268312 
L 316.330514 259.207906 
L 317.442694 257.854065 
L 318.554875 256.185513 
L 319.667055 254.18061 
L 321.05728 251.16812 
L 322.447506 247.556286 
L 323.837731 243.30146 
L 325.227956 238.358159 
L 326.618182 232.675766 
L 328.286452 224.817543 
L 331.066903 210.010382 
L 332.179083 203.504167 
L 333.847354 197.778858 
L 335.515624 192.819052 
L 337.183895 188.607508 
L 338.57412 185.658473 
L 339.964345 183.210481 
L 341.354571 181.253261 
L 342.466751 180.035868 
L 343.578931 179.122547 
L 344.691112 178.508165 
L 345.525247 178.107258 
L 347.193517 176.232934 
L 349.417878 174.114691 
L 350.252013 173.19 
L 353.310509 169.290965 
L 355.53487 166.13029 
L 357.75923 162.561371 
L 359.705546 159.011526 
L 361.929906 154.824557 
L 363.042087 153.803399 
L 364.432312 152.192801 
L 365.822537 150.219075 
L 367.212763 147.871585 
L 369.159078 144.096894 
L 371.105394 139.796953 
L 373.329754 134.270814 
L 375.554115 128.12956 
L 378.056521 120.529927 
L 378.612611 118.870545 
L 378.890656 118.50375 
L 381.671107 117.934484 
L 384.451557 117.577959 
L 385.563738 117.395295 
L 388.066143 117.024098 
L 391.680729 116.7468 
L 395.851405 116.380372 
L 396.685541 116.253094 
L 396.963586 116.019445 
L 399.465991 111.316395 
L 401.968397 106.096898 
L 403.914713 102.018134 
L 405.582983 98.99354 
L 407.251253 96.362517 
L 408.919524 94.083617 
L 410.865839 91.817922 
L 412.812155 89.916455 
L 414.75847 88.318328 
L 416.704786 87.000799 
L 418.373056 86.073174 
L 420.041327 84.126958 
L 420.875462 83.453522 
L 421.709597 83.016302 
L 422.543733 82.822634 
L 423.377868 82.883155 
L 424.212003 83.209603 
L 425.046138 83.811514 
L 425.880273 84.696591 
L 426.436364 85.448888 
L 426.436364 85.448888 
" clip-path="url(#p66f431212f)" style="fill: none; stroke: #ff00ff; stroke-width: 3; stroke-linecap: square"/>
   </g>
   <g id="patch_3">
    <path d="M 7.2 331.2 
L 7.2 7.2 
" style="fill: none; stroke: #000000; stroke-width: 0.8; stroke-linejoin: miter; stroke-linecap: square"/>
   </g>
   <g id="patch_4">
    <path d="M 446.4 331.2 
L 446.4 7.2 
" style="fill: none; stroke: #000000; stroke-width: 0.8; stroke-linejoin: miter; stroke-linecap: square"/>
   </g>
   <g id="patch_5">
    <path d="M 7.2 331.2 
L 446.4 331.2 
" style="fill: none; stroke: #000000; stroke-width: 0.8; stroke-linejoin: miter; stroke-linecap: square"/>
   </g>
   <g id="patch_6">
    <path d="M 7.2 7.2 
L 446.4 7.2 
" style="fill: none; stroke: #000000; stroke-width: 0.8; stroke-linejoin: miter; stroke-linecap: square"/>
   </g>
  </g>
 </g>
 <defs>
  <clipPath id="p66f431212f">
   <rect x="7.2" y="7.2" width="439.2" height="324"/>
  </clipPath>
 </defs>
</svg>
