<?xml version="1.0" encoding="utf-8" standalone="no"?>
<!DOCTYPE svg PUBLIC "-//W3C//DTD SVG 1.1//EN"
  "http://www.w3.org/Graphics/SVG/1.1/DTD/svg11.dtd">
<svg xmlns:xlink="http://www.w3.org/1999/xlink" width="453.6pt" height="338.4pt" viewBox="0 0 453.6 338.4" xmlns="http://www.w3.org/2000/svg" version="1.1">
 <metadata>
  <rdf:RDF xmlns:dc="http://purl.org/dc/elements/1.1/" xmlns:cc="http://creativecommons.org/ns#" xmlns:rdf="http://www.w3.org/1999/02/22-rdf-syntax-ns#">
   <cc:Work>
    <dc:type rdf:resource="http://purl.org/dc/dcmitype/StillImage"/>
    <dc:date>2025-05-15T10:33:09.317650</dc:date>
    <dc:format>image/svg+xml</dc:format>
    <dc:creator>
     <cc:Agent>
      <dc:title>Matplotlib v3.10.1, https://matplotlib.org/</dc:title>
     </cc:Agent>
    </dc:creator>
   </cc:Work>
  </rdf:RDF>
 </metadata>
 <defs>
  <style type="text/css">*{stroke-linejoin: round; stroke-linecap: butt}</style>
 </defs>
 <g id="figure_1">
  <g id="patch_1">
   <path d="M 0 338.4 
L 453.6 338.4 
L 453.6 0 
L 0 0 
z
" style="fill: #ffffff"/>
  </g>
  <g id="axes_1">
   <g id="patch_2">
    <path d="M 7.2 331.2 
L 446.4 331.2 
L 446.4 7.2 
L 7.2 7.2 
z
" style="fill: #ffffff"/>
   </g>
   <g id="matplotlib.axis_1"/>
   <g id="matplotlib.axis_2"/>
   <g id="line2d_1">
    <path d="M 27.163636 203.954108 
L 28.494545 204.916095 
L 31.688727 207.54104 
L 32.487273 207.77079 
L 33.019636 207.692296 
L 33.552 207.383068 
L 34.084364 206.812156 
L 34.616727 205.960018 
L 35.415273 204.147912 
L 36.213818 201.749294 
L 37.544727 196.843991 
L 39.674182 188.76741 
L 40.738909 185.537863 
L 41.537455 183.660737 
L 42.336 182.289732 
L 42.868364 181.671224 
L 43.400727 181.305413 
L 43.933091 181.214191 
L 44.465455 181.426244 
L 44.997818 181.974351 
L 45.530182 182.890666 
L 46.062545 184.200671 
L 46.861091 186.926345 
L 47.659636 190.521862 
L 48.724364 196.388968 
L 51.918545 214.897883 
L 52.983273 219.366149 
L 53.781818 221.867453 
L 54.580364 223.637486 
L 55.112727 224.425447 
L 55.645091 224.916171 
L 56.177455 225.129164 
L 56.709818 225.089715 
L 57.242182 224.829241 
L 58.040727 224.104667 
L 59.105455 222.7196 
L 61.234909 219.410172 
L 66.026182 211.528527 
L 67.357091 208.867408 
L 68.421818 206.132175 
L 69.486545 202.644594 
L 70.551273 198.388075 
L 72.414545 189.762623 
L 74.277818 181.3466 
L 75.342545 177.383183 
L 76.141091 175.048926 
L 76.939636 173.390622 
L 77.472 172.712353 
L 78.004364 172.404758 
L 78.536727 172.482769 
L 79.069091 172.94902 
L 79.601455 173.791458 
L 80.4 175.697587 
L 81.198545 178.241246 
L 82.529455 183.38692 
L 85.191273 193.981949 
L 86.256 197.195301 
L 87.054545 198.836014 
L 87.586909 199.483893 
L 88.119273 199.746992 
L 88.651636 199.622404 
L 89.184 199.127773 
L 89.716364 198.299415 
L 90.514909 196.545271 
L 91.579636 193.568657 
L 94.773818 184.107983 
L 95.838545 181.745681 
L 96.637091 180.489546 
L 97.169455 179.935699 
L 97.701818 179.611531 
L 98.234182 179.497784 
L 99.032727 179.62346 
L 100.363636 179.96859 
L 100.896 179.850401 
L 101.428364 179.413197 
L 101.960727 178.550342 
L 102.493091 177.175536 
L 103.025455 175.233452 
L 103.824 171.234413 
L 104.888727 164.147198 
L 107.816727 142.62092 
L 108.615273 138.572302 
L 109.147636 136.625486 
L 109.68 135.310679 
L 110.212364 134.628899 
L 110.478545 134.521946 
L 110.744727 134.56833 
L 111.010909 134.765803 
L 111.543273 135.605361 
L 112.075636 137.022732 
L 112.608 138.997866 
L 113.406545 142.944236 
L 114.471273 149.782301 
L 116.068364 162.013215 
L 117.665455 173.922244 
L 118.730182 180.479057 
L 119.794909 185.618218 
L 120.593455 188.585694 
L 121.392 190.881502 
L 122.190545 192.585892 
L 122.989091 193.765665 
L 123.787636 194.478028 
L 124.32 194.719137 
L 124.852364 194.789995 
L 125.384727 194.702854 
L 126.183273 194.296584 
L 126.981818 193.579331 
L 127.780364 192.573146 
L 128.845091 190.861435 
L 131.240727 186.737782 
L 132.039273 185.767402 
L 132.837818 185.112378 
L 135.233455 183.570936 
L 135.765818 182.781404 
L 136.298182 181.625912 
L 136.830545 180.032802 
L 137.629091 176.73662 
L 138.427636 172.371322 
L 139.492364 165.262022 
L 141.621818 150.456462 
L 142.420364 146.190322 
L 143.218909 143.223399 
L 143.751273 142.074832 
L 144.017455 141.763015 
L 144.283636 141.628727 
L 144.549818 141.67253 
L 144.816 141.893528 
L 145.348364 142.858193 
L 145.880727 144.492981 
L 146.679273 148.08805 
L 147.477818 152.819625 
L 149.074909 164.17039 
L 150.672 175.08985 
L 151.736727 180.760159 
L 152.535273 183.957561 
L 153.333818 186.325446 
L 154.132364 188.021953 
L 154.930909 189.223584 
L 155.729455 190.080119 
L 156.794182 190.854825 
L 157.858909 191.305232 
L 158.657455 191.435482 
L 159.456 191.367504 
L 160.254545 191.080125 
L 161.053091 190.566876 
L 162.117818 189.57693 
L 165.045818 186.558023 
L 166.110545 185.942614 
L 167.973818 185.154899 
L 168.506182 184.704414 
L 169.038545 183.999538 
L 169.570909 182.954263 
L 170.103273 181.496267 
L 170.901818 178.44187 
L 171.700364 174.359061 
L 173.031273 165.960446 
L 174.362182 157.568598 
L 175.160727 153.662554 
L 175.693091 151.830293 
L 176.225455 150.718647 
L 176.491636 150.446086 
L 176.757818 150.363502 
L 177.024 150.468172 
L 177.290182 150.754761 
L 177.822545 151.841073 
L 178.354909 153.538256 
L 179.153455 156.991295 
L 180.484364 164.159751 
L 182.613818 175.756093 
L 183.944727 181.760612 
L 185.275636 186.731145 
L 186.606545 190.850454 
L 187.671273 193.521053 
L 188.469818 195.094561 
L 189.268364 196.260719 
L 190.066909 197.021187 
L 190.865455 197.419073 
L 191.664 197.530213 
L 192.728727 197.389983 
L 195.390545 196.631797 
L 196.987636 196.062351 
L 198.052364 195.425584 
L 199.117091 194.461016 
L 200.181818 193.179557 
L 201.512727 191.241414 
L 202.577455 189.381327 
L 203.376 187.645968 
L 204.174545 185.442401 
L 204.973091 182.649258 
L 206.037818 178.037883 
L 208.167273 168.182122 
L 208.965818 165.55479 
L 209.498182 164.42615 
L 210.030545 163.857537 
L 210.296727 163.786996 
L 210.562909 163.855904 
L 211.095273 164.39037 
L 211.627636 165.39875 
L 212.426182 167.613211 
L 213.757091 172.376975 
L 215.886545 180.049613 
L 217.217455 183.940549 
L 218.814545 187.808688 
L 220.677818 191.755963 
L 222.008727 194.191492 
L 223.339636 196.144751 
L 224.670545 197.621076 
L 226.001455 198.755378 
L 227.332364 199.641724 
L 228.397091 200.15471 
L 229.461818 200.425279 
L 230.260364 200.414007 
L 231.058909 200.170985 
L 231.857455 199.657894 
L 232.656 198.851376 
L 233.454545 197.746972 
L 234.519273 195.822075 
L 235.584 193.366268 
L 236.648727 190.27933 
L 237.713455 186.409277 
L 239.044364 180.458735 
L 241.173818 170.469802 
L 241.972364 167.717039 
L 242.504727 166.457868 
L 243.037091 165.727561 
L 243.303273 165.568309 
L 243.569455 165.545959 
L 243.835636 165.657863 
L 244.368 166.263976 
L 244.900364 167.331995 
L 245.698909 169.639934 
L 246.763636 173.605678 
L 249.957818 186.261857 
L 251.288727 190.311985 
L 252.619636 193.520465 
L 254.482909 197.270767 
L 257.410909 202.697061 
L 258.741818 204.786179 
L 259.806545 206.122141 
L 260.871273 207.13412 
L 261.936 207.868508 
L 263.266909 208.495206 
L 264.331636 208.764932 
L 265.130182 208.761499 
L 265.928727 208.488183 
L 266.461091 208.10658 
L 266.993455 207.530295 
L 267.792 206.238425 
L 268.590545 204.35684 
L 269.389091 201.817342 
L 270.187636 198.587909 
L 271.252364 193.279935 
L 274.712727 174.395218 
L 275.511273 171.682677 
L 276.043636 170.505546 
L 276.576 169.850206 
L 277.108364 169.700328 
L 277.640727 170.018333 
L 278.173091 170.752107 
L 278.971636 172.499465 
L 280.036364 175.707454 
L 281.899636 182.423888 
L 283.496727 187.931354 
L 284.827636 191.693146 
L 286.158545 194.656681 
L 287.755636 197.562455 
L 290.151273 201.428172 
L 291.482182 203.254736 
L 292.546909 204.396798 
L 293.611636 205.194986 
L 294.676364 205.659314 
L 295.741091 205.844217 
L 296.805818 205.808876 
L 297.870545 205.580925 
L 298.935273 205.141211 
L 300 204.417857 
L 300.798545 203.605054 
L 301.597091 202.452985 
L 302.395636 200.829907 
L 303.194182 198.594396 
L 303.992727 195.642729 
L 305.057455 190.604982 
L 308.251636 173.990494 
L 309.050182 171.587048 
L 309.582545 170.669364 
L 310.114909 170.30328 
L 310.381091 170.316983 
L 310.913455 170.702308 
L 311.445818 171.503787 
L 312.244364 173.307695 
L 313.309091 176.424803 
L 319.963636 197.457873 
L 321.294545 200.80733 
L 322.359273 202.969727 
L 323.157818 204.221262 
L 323.956364 205.143458 
L 324.754909 205.760587 
L 325.553455 206.122563 
L 326.618182 206.315216 
L 327.949091 206.278656 
L 329.812364 205.982876 
L 331.143273 205.583848 
L 331.941818 205.159188 
L 332.740364 204.470052 
L 333.538909 203.382379 
L 334.337455 201.762286 
L 335.136 199.510895 
L 335.934545 196.598045 
L 336.999273 191.800108 
L 340.725818 173.513402 
L 341.524364 170.969594 
L 342.056727 169.789312 
L 342.589091 169.054476 
L 343.121455 168.771118 
L 343.653818 168.924261 
L 344.186182 169.479487 
L 344.718545 170.386243 
L 345.517091 172.272665 
L 346.581818 175.457874 
L 348.178909 181.03955 
L 349.776 187.374794 
L 352.970182 200.625411 
L 353.768727 203.084668 
L 354.567273 204.899408 
L 355.365818 206.069885 
L 355.898182 206.536636 
L 356.696727 206.874858 
L 357.495273 206.921531 
L 358.826182 206.712647 
L 360.955636 206.387399 
L 362.020364 206.421353 
L 363.085091 206.650778 
L 365.480727 207.304495 
L 366.013091 207.227888 
L 366.545455 206.966475 
L 367.077818 206.474478 
L 367.610182 205.713958 
L 368.408727 204.013123 
L 369.207273 201.611205 
L 370.272 197.392686 
L 371.602909 190.960804 
L 373.466182 181.812649 
L 374.530909 177.719798 
L 375.329455 175.5865 
L 375.861818 174.667718 
L 376.394182 174.15475 
L 376.926545 174.02917 
L 377.458909 174.257551 
L 377.991273 174.796695 
L 378.789818 176.087275 
L 379.588364 177.83811 
L 380.653091 180.775433 
L 381.717818 184.469291 
L 382.782545 189.136943 
L 383.847273 194.889618 
L 387.307636 214.943144 
L 388.106182 217.663146 
L 388.638545 218.780577 
L 389.170909 219.342606 
L 389.437091 219.427043 
L 389.969455 219.242421 
L 390.501818 218.656551 
L 391.300364 217.240997 
L 393.696 212.299853 
L 394.494545 211.297758 
L 395.026909 210.915286 
L 395.559273 210.745517 
L 396.357818 210.791277 
L 397.688727 211.055508 
L 398.221091 210.970843 
L 398.753455 210.648185 
L 399.285818 210.015579 
L 399.818182 209.015811 
L 400.350545 207.607025 
L 401.149091 204.668499 
L 401.947636 200.701061 
L 402.746182 195.71356 
L 403.810909 187.649479 
L 407.005091 161.533946 
L 407.803636 157.331096 
L 408.336 155.518253 
L 408.868364 154.537805 
L 409.134545 154.353569 
L 409.400727 154.363313 
L 409.666909 154.556555 
L 410.199273 155.439548 
L 410.731636 156.880953 
L 411.530182 159.801405 
L 412.861091 165.734075 
L 416.055273 181.316236 
L 420.314182 202.997414 
L 421.378909 206.744125 
L 422.177455 208.734726 
L 422.976 210.058548 
L 423.774545 210.833632 
L 424.573091 211.219914 
L 425.637818 211.403596 
L 426.436364 211.449515 
L 426.436364 211.449515 
" clip-path="url(#pc6515d5a30)" style="fill: none; stroke: #ffa500; stroke-width: 3; stroke-linecap: square"/>
   </g>
   <g id="line2d_2">
    <path d="M 27.163636 298.292612 
L 28.228364 298.321043 
L 29.825455 298.496886 
L 30.357818 298.3043 
L 30.890182 297.805877 
L 31.422545 296.880653 
L 31.954909 295.416417 
L 32.487273 293.324264 
L 33.285818 288.90418 
L 34.084364 282.977106 
L 35.149091 273.205572 
L 38.343273 241.933471 
L 39.674182 231.599899 
L 41.537455 219.247881 
L 43.134545 209.791693 
L 43.933091 205.963924 
L 44.465455 204.078968 
L 44.997818 202.949669 
L 45.264 202.730699 
L 45.530182 202.774703 
L 45.796364 203.104586 
L 46.062545 203.74137 
L 46.594909 206.005331 
L 47.127273 209.671757 
L 47.659636 214.777939 
L 48.458182 225.016971 
L 49.522909 242.579392 
L 52.450909 294.476263 
L 53.249455 304.484886 
L 54.048 311.482816 
L 54.580364 314.429476 
L 55.112727 316.058522 
L 55.378909 316.409585 
L 55.645091 316.472727 
L 55.911273 316.266254 
L 56.177455 315.809831 
L 56.709818 314.232005 
L 57.242182 311.915511 
L 58.040727 307.449583 
L 62.299636 281.217359 
L 63.630545 275.112091 
L 66.026182 264.757877 
L 66.824727 260.060085 
L 67.623273 253.829187 
L 68.421818 245.557911 
L 69.220364 234.93064 
L 70.285091 217.067804 
L 71.616 189.947885 
L 75.076364 116.15032 
L 76.141091 99.104474 
L 76.939636 89.622136 
L 77.472 85.144056 
L 78.004364 82.292583 
L 78.270545 81.514226 
L 78.536727 81.185818 
L 78.802909 81.320457 
L 79.069091 81.929888 
L 79.335273 83.024978 
L 79.867636 86.70897 
L 80.4 92.430912 
L 80.932364 100.21605 
L 81.730909 115.698948 
L 82.795636 142.768726 
L 84.392727 191.954155 
L 85.723636 231.269762 
L 86.522182 249.430716 
L 87.054545 258.070406 
L 87.586909 263.512795 
L 87.853091 264.983616 
L 88.119273 265.620567 
L 88.385455 265.440659 
L 88.651636 264.473874 
L 89.184 260.361189 
L 89.716364 253.748915 
L 90.514909 240.476528 
L 92.910545 196.940226 
L 93.709091 186.431196 
L 94.507636 178.599262 
L 95.572364 170.974562 
L 97.169455 160.240856 
L 98.234182 150.793683 
L 99.298909 139.158383 
L 106.752 51.911165 
L 108.349091 36.286921 
L 109.413818 28.064526 
L 110.212364 23.858024 
L 110.744727 22.31862 
L 111.010909 21.999008 
L 111.277091 22.011174 
L 111.543273 22.378346 
L 111.809455 23.123224 
L 112.341818 25.832579 
L 112.874182 30.300458 
L 113.406545 36.663327 
L 114.205091 49.97318 
L 115.003636 67.904178 
L 116.068364 98.561757 
L 117.399273 144.816087 
L 119.528727 218.932035 
L 120.327273 240.430811 
L 121.125818 256.301809 
L 121.658182 263.52695 
L 122.190545 268.137939 
L 122.722909 270.34946 
L 122.989091 270.6513 
L 123.255273 270.477875 
L 123.521455 269.878091 
L 124.053818 267.60185 
L 124.852364 262.237968 
L 126.183273 250.87282 
L 128.845091 226.443857 
L 129.909818 214.351725 
L 130.974545 199.226536 
L 132.039273 180.912302 
L 134.168727 138.977115 
L 136.032 104.038771 
L 137.362909 83.079157 
L 138.693818 66.029449 
L 139.758545 54.981441 
L 140.823273 45.869154 
L 141.888 38.479858 
L 142.686545 34.153166 
L 143.485091 31.11909 
L 144.017455 29.981039 
L 144.283636 29.720346 
L 144.549818 29.684742 
L 144.816 29.88936 
L 145.082182 30.349089 
L 145.614545 32.092831 
L 146.146909 35.03335 
L 146.679273 39.2862 
L 147.211636 44.964339 
L 148.010182 56.379781 
L 148.808727 71.488046 
L 149.873455 97.312101 
L 151.204364 136.603225 
L 153.067636 192.361733 
L 153.866182 211.255746 
L 154.664727 224.966171 
L 155.197091 230.902195 
L 155.729455 234.280926 
L 155.995636 235.057836 
L 156.261818 235.265632 
L 156.528 234.940165 
L 156.794182 234.121173 
L 157.326545 231.170665 
L 157.858909 226.752347 
L 158.657455 218.052343 
L 159.722182 203.842766 
L 161.319273 179.161871 
L 163.714909 138.040259 
L 166.110545 97.838403 
L 167.707636 74.775529 
L 169.038545 58.994859 
L 170.103273 49.050334 
L 170.901818 43.202812 
L 171.700364 38.597678 
L 172.765091 33.932905 
L 174.096 29.434196 
L 175.693091 24.863262 
L 176.491636 23.073171 
L 177.024 22.268374 
L 177.556364 21.927273 
L 177.822545 21.976711 
L 178.088727 22.198447 
L 178.354909 22.612705 
L 178.887273 24.102004 
L 179.419636 26.615483 
L 179.952 30.331691 
L 180.484364 35.434809 
L 181.282909 46.087589 
L 182.081455 60.810898 
L 182.88 79.904087 
L 183.944727 111.791026 
L 185.808 177.63882 
L 187.138909 220.912567 
L 187.937455 241.003646 
L 188.736 255.345448 
L 189.268364 261.628778 
L 189.800727 265.451627 
L 190.066909 266.51771 
L 190.333091 267.069635 
L 190.599273 267.146383 
L 190.865455 266.787058 
L 191.131636 266.02918 
L 191.664 263.454504 
L 192.196364 259.65752 
L 192.994909 252.015215 
L 193.793455 242.269761 
L 194.858182 226.12141 
L 195.922909 206.490999 
L 197.52 171.870345 
L 200.980364 93.999758 
L 202.311273 70.201891 
L 203.376 55.544103 
L 204.174545 47.282276 
L 204.973091 41.202239 
L 205.771636 36.957711 
L 206.570182 34.095792 
L 207.368727 32.160405 
L 208.167273 30.788189 
L 208.965818 29.766765 
L 209.764364 29.053998 
L 210.296727 28.800415 
L 210.829091 28.798606 
L 211.361455 29.137688 
L 211.893818 29.926492 
L 212.426182 31.292599 
L 212.958545 33.382006 
L 213.490909 36.357497 
L 214.023273 40.392948 
L 214.821818 48.818047 
L 215.620364 60.549941 
L 216.418909 75.889528 
L 217.483636 101.678207 
L 220.944 194.805312 
L 221.742545 208.205685 
L 222.274909 214.105972 
L 222.807273 217.563655 
L 223.073455 218.419023 
L 223.339636 218.730164 
L 223.605818 218.533464 
L 223.872 217.869406 
L 224.404364 215.315144 
L 224.936727 211.426735 
L 225.735273 203.837745 
L 227.066182 188.699002 
L 229.461818 158.744447 
L 231.058909 136.479313 
L 232.656 111.131121 
L 235.317818 67.617449 
L 236.382545 53.922254 
L 237.181091 46.106164 
L 237.979636 40.435328 
L 238.778182 36.642646 
L 239.310545 34.946955 
L 239.842909 33.754954 
L 240.375273 32.939009 
L 241.173818 32.202663 
L 241.972364 31.870481 
L 242.504727 31.839722 
L 243.037091 31.977697 
L 243.569455 32.32324 
L 244.101818 32.932899 
L 244.634182 33.879621 
L 245.166545 35.252733 
L 245.698909 37.161522 
L 246.231273 39.737203 
L 246.763636 43.134904 
L 247.562182 50.158521 
L 248.360727 60.046304 
L 249.159273 73.326031 
L 249.957818 90.24131 
L 251.022545 117.960443 
L 254.482909 214.334248 
L 255.281455 228.723452 
L 255.813818 235.634831 
L 256.346182 240.429828 
L 256.878545 243.248923 
L 257.144727 243.98037 
L 257.410909 244.2982 
L 257.677091 244.232219 
L 257.943273 243.8119 
L 258.475636 242.018654 
L 259.008 239.115802 
L 259.806545 233.00132 
L 260.605091 225.040531 
L 261.669818 211.787824 
L 262.734545 195.666105 
L 264.065455 171.885057 
L 265.928727 133.749382 
L 268.324364 84.356078 
L 269.389091 66.180538 
L 270.187636 55.237728 
L 270.986182 46.850041 
L 271.784727 40.912631 
L 272.583273 37.066191 
L 273.115636 35.421642 
L 273.648 34.339771 
L 274.180364 33.693226 
L 274.712727 33.387852 
L 275.245091 33.370384 
L 275.777455 33.628935 
L 276.309818 34.189964 
L 276.842182 35.111809 
L 277.374545 36.477231 
L 277.906909 38.385686 
L 278.439273 40.945268 
L 279.237818 46.244542 
L 280.036364 53.603186 
L 280.834909 63.303398 
L 281.633455 75.508012 
L 282.698182 95.607878 
L 284.029091 125.691981 
L 286.690909 187.783609 
L 287.755636 206.51721 
L 288.554182 216.615897 
L 289.086545 221.374596 
L 289.618909 224.629126 
L 290.151273 226.515882 
L 290.417455 227.000452 
L 290.683636 227.21075 
L 290.949818 227.17045 
L 291.216 226.902769 
L 291.748364 225.769573 
L 292.280727 223.9573 
L 293.079273 220.175019 
L 293.877818 215.228433 
L 294.676364 209.074686 
L 295.741091 198.750436 
L 296.805818 185.716744 
L 297.870545 169.852128 
L 299.201455 146.32705 
L 303.460364 65.583976 
L 304.258909 55.151614 
L 305.057455 47.301518 
L 305.856 41.893711 
L 306.388364 39.469909 
L 306.920727 37.838316 
L 307.453091 36.872914 
L 307.985455 36.472631 
L 308.251636 36.463695 
L 308.517818 36.576582 
L 309.050182 37.169545 
L 309.582545 38.283613 
L 310.114909 39.992629 
L 310.647273 42.403457 
L 311.179636 45.644557 
L 311.978182 52.359534 
L 312.776727 61.671419 
L 313.575273 73.891571 
L 314.373818 89.155859 
L 315.438545 114.085597 
L 316.769455 151.359908 
L 319.963636 245.966643 
L 320.762182 263.887082 
L 321.560727 277.145231 
L 322.093091 283.115952 
L 322.625455 286.782001 
L 322.891636 287.788522 
L 323.157818 288.278902 
L 323.424 288.287114 
L 323.690182 287.851966 
L 324.222545 285.822603 
L 324.754909 282.545402 
L 325.553455 276.025676 
L 326.884364 262.834952 
L 328.215273 247.513079 
L 329.28 232.659271 
L 330.344727 214.327752 
L 331.409455 192.20629 
L 333.006545 153.791575 
L 335.402182 95.797644 
L 336.733091 69.485121 
L 337.797818 53.252499 
L 338.596364 44.070057 
L 339.394909 37.320388 
L 340.193455 32.738762 
L 340.725818 30.733642 
L 341.258182 29.467378 
L 341.790545 28.873765 
L 342.056727 28.816005 
L 342.322909 28.914144 
L 342.589091 29.168324 
L 343.121455 30.152669 
L 343.653818 31.800221 
L 344.186182 34.159609 
L 344.984727 39.158004 
L 345.783273 46.068892 
L 346.581818 55.041659 
L 347.380364 66.199428 
L 348.445091 84.693281 
L 349.509818 107.596375 
L 350.840727 142.361491 
L 354.567273 246.800711 
L 355.365818 261.642613 
L 356.164364 271.996559 
L 356.696727 276.547374 
L 357.229091 279.478654 
L 357.761455 281.092231 
L 358.027636 281.505916 
L 358.293818 281.710006 
L 358.56 281.740905 
L 359.092364 281.407575 
L 359.624727 280.704257 
L 360.423273 279.151892 
L 361.221818 276.886381 
L 361.754182 274.723931 
L 362.286545 271.764728 
L 362.818909 267.741738 
L 363.351273 262.399284 
L 364.149818 251.477546 
L 364.948364 236.791026 
L 366.013091 211.760752 
L 367.610182 166.943404 
L 369.473455 116.204938 
L 370.538182 93.213904 
L 371.336727 79.870642 
L 372.135273 69.880576 
L 372.933818 62.925639 
L 373.466182 59.745302 
L 373.998545 57.563461 
L 374.530909 56.261118 
L 374.797091 55.912626 
L 375.063273 55.757043 
L 375.329455 55.79133 
L 375.595636 56.015295 
L 376.128 57.043373 
L 376.660364 58.882832 
L 377.192727 61.59159 
L 377.991273 67.397592 
L 378.789818 75.353886 
L 379.854545 89.113232 
L 380.919273 105.898613 
L 382.250182 130.217059 
L 383.847273 163.696265 
L 388.106182 257.414596 
L 388.904727 269.302469 
L 389.703273 278.108961 
L 390.501818 284.02502 
L 391.034182 286.589216 
L 391.566545 288.250689 
L 392.098909 289.184863 
L 392.631273 289.548622 
L 393.163636 289.464605 
L 393.696 289.009575 
L 394.228364 288.205212 
L 394.760727 287.013966 
L 395.293091 285.337833 
L 395.825455 283.022144 
L 396.357818 279.86505 
L 396.890182 275.63461 
L 397.422545 270.093546 
L 398.221091 258.874804 
L 399.019636 243.811549 
L 400.084364 218.015676 
L 401.947636 164.231135 
L 403.278545 129.091368 
L 404.077091 112.775617 
L 404.875636 100.963614 
L 405.408 95.599118 
L 405.940364 92.082876 
L 406.472727 90.192469 
L 406.738909 89.776701 
L 407.005091 89.669696 
L 407.271273 89.838833 
L 407.537455 90.253424 
L 408.069818 91.70726 
L 408.602182 93.835695 
L 409.400727 97.988369 
L 410.465455 104.909527 
L 411.796364 115.438062 
L 413.659636 132.676588 
L 415.522909 149.396554 
L 416.853818 159.099347 
L 419.249455 175.398305 
L 420.314182 185.05704 
L 421.378909 196.901163 
L 424.573091 234.674916 
L 425.371636 241.607705 
L 426.170182 246.920344 
L 426.436364 248.33793 
L 426.436364 248.33793 
" clip-path="url(#pc6515d5a30)" style="fill: none; stroke: #ff0000; stroke-width: 3; stroke-linecap: square"/>
   </g>
   <g id="line2d_3">
    <path d="M 27.163636 119.07258 
L 29.026909 104.637546 
L 29.825455 99.962871 
L 30.624 96.541433 
L 31.422545 94.158713 
L 33.552 88.767373 
L 34.084364 86.643187 
L 34.882909 82.273535 
L 35.681455 76.276872 
L 36.746182 65.871881 
L 39.674182 34.721059 
L 40.472727 29.604756 
L 41.005091 27.439628 
L 41.537455 26.134828 
L 42.069818 25.459683 
L 42.868364 25.011489 
L 43.666909 24.498653 
L 44.465455 23.53527 
L 45.530182 22.118812 
L 45.796364 21.94755 
L 46.062545 21.927273 
L 46.328727 22.095602 
L 46.594909 22.487494 
L 47.127273 24.054848 
L 47.659636 26.789045 
L 48.192 30.732711 
L 48.990545 38.733862 
L 50.055273 52.324281 
L 54.846545 118.730022 
L 55.911273 128.93833 
L 56.709818 134.370435 
L 57.242182 136.881492 
L 57.774545 138.549286 
L 58.306909 139.458631 
L 58.573091 139.662793 
L 58.839273 139.719359 
L 59.105455 139.642673 
L 59.637818 139.141055 
L 60.170182 138.241946 
L 60.968727 136.231646 
L 61.767273 133.369868 
L 62.565818 129.420794 
L 63.364364 124.088479 
L 64.162909 117.199799 
L 65.227636 105.884006 
L 67.090909 85.390529 
L 67.623273 81.151495 
L 68.155636 78.346898 
L 68.421818 77.577476 
L 68.688 77.265045 
L 68.954182 77.423789 
L 69.220364 78.056745 
L 69.752727 80.697244 
L 70.285091 84.965772 
L 71.083636 93.475054 
L 72.414545 108.092217 
L 72.946909 112.170891 
L 73.479273 114.463671 
L 73.745455 114.854052 
L 74.011636 114.725804 
L 74.277818 114.087967 
L 74.810182 111.401926 
L 75.342545 107.173708 
L 77.472 87.179724 
L 78.004364 84.530956 
L 78.270545 83.867012 
L 78.536727 83.673929 
L 78.802909 83.960008 
L 79.069091 84.721986 
L 79.601455 87.613522 
L 80.133818 92.152153 
L 80.932364 101.438511 
L 81.997091 116.984752 
L 83.594182 144.233166 
L 87.320727 211.393317 
L 88.119273 220.720949 
L 88.651636 224.790749 
L 89.184 226.984801 
L 89.450182 227.369134 
L 89.716364 227.285847 
L 89.982545 226.747818 
L 90.514909 224.385436 
L 91.047273 220.48566 
L 91.845818 212.357174 
L 93.442909 192.17245 
L 94.507636 179.929756 
L 95.306182 173.35615 
L 95.838545 170.640984 
L 96.370909 169.360227 
L 96.637091 169.250308 
L 96.903273 169.47753 
L 97.169455 170.022678 
L 97.701818 171.970898 
L 98.234182 174.877726 
L 99.032727 180.523966 
L 100.629818 194.008064 
L 103.025455 214.142612 
L 104.356364 223.668218 
L 105.421091 229.683157 
L 105.953455 231.858204 
L 106.485818 233.23035 
L 106.752 233.537804 
L 107.018182 233.546389 
L 107.284364 233.219632 
L 107.550545 232.520875 
L 108.082909 229.869648 
L 108.615273 225.353305 
L 109.147636 218.823423 
L 109.946182 205.257205 
L 111.010909 181.277815 
L 113.672727 116.17848 
L 114.471273 102.739238 
L 115.003636 96.617768 
L 115.536 93.016431 
L 115.802182 92.198326 
L 116.068364 92.044112 
L 116.334545 92.553051 
L 116.600727 93.718805 
L 117.133091 97.966406 
L 117.665455 104.618357 
L 118.464 118.497735 
L 119.528727 142.177554 
L 121.658182 191.399052 
L 122.456727 204.854253 
L 122.989091 211.139243 
L 123.521455 215.013632 
L 123.787636 216.02195 
L 124.053818 216.417177 
L 124.32 216.216404 
L 124.586182 215.446113 
L 125.118545 212.349081 
L 125.650909 207.508569 
L 126.715636 194.578459 
L 128.312727 174.88884 
L 129.111273 167.926292 
L 129.643636 164.873624 
L 130.176 163.184271 
L 130.442182 162.857935 
L 130.708364 162.877317 
L 130.974545 163.241698 
L 131.240727 163.950375 
L 131.773091 166.398843 
L 132.305455 170.21937 
L 133.104 178.477694 
L 133.902545 189.529467 
L 135.233455 212.176388 
L 136.830545 238.892513 
L 137.629091 248.744472 
L 138.161455 253.327174 
L 138.693818 256.168328 
L 138.96 256.923819 
L 139.226182 257.237383 
L 139.492364 257.112803 
L 139.758545 256.554562 
L 140.290909 254.152372 
L 140.823273 250.045322 
L 141.355636 244.215506 
L 142.154182 232.143362 
L 142.952727 215.991815 
L 144.017455 188.571833 
L 147.477818 91.650412 
L 148.276364 79.085543 
L 148.808727 74.197998 
L 149.074909 72.807681 
L 149.341091 72.098689 
L 149.607273 72.043878 
L 149.873455 72.608663 
L 150.139636 73.751981 
L 150.672 77.584938 
L 151.470545 86.414358 
L 152.535273 101.682438 
L 154.930909 136.933898 
L 155.995636 148.743478 
L 156.794182 155.00043 
L 157.326545 157.725603 
L 157.858909 159.205896 
L 158.125091 159.470013 
L 158.391273 159.419749 
L 158.657455 159.063286 
L 159.189818 157.489665 
L 159.722182 154.915107 
L 160.520727 149.710197 
L 162.650182 134.845245 
L 163.448727 131.250105 
L 163.981091 129.902731 
L 164.247273 129.594426 
L 164.513455 129.555152 
L 164.779636 129.806505 
L 165.045818 130.372801 
L 165.578182 132.558329 
L 166.110545 136.342743 
L 166.642909 141.957345 
L 167.175273 149.591587 
L 167.973818 165.012494 
L 168.772364 184.91393 
L 170.103273 224.72759 
L 171.700364 271.319971 
L 172.498909 288.496056 
L 173.031273 296.281235 
L 173.563636 300.652888 
L 173.829818 301.478223 
L 174.096 301.37443 
L 174.362182 300.338211 
L 174.628364 298.376854 
L 175.160727 291.759811 
L 175.693091 281.78473 
L 176.491636 261.453725 
L 177.556364 227.377175 
L 179.685818 156.135075 
L 180.484364 135.025495 
L 181.282909 119.284607 
L 181.815273 112.051719 
L 182.347636 107.409717 
L 182.88 105.195308 
L 183.146182 104.917375 
L 183.412364 105.137899 
L 183.678545 105.811586 
L 184.210909 108.322538 
L 185.009455 114.241286 
L 186.606545 129.222197 
L 187.671273 138.477779 
L 188.469818 144.040538 
L 189.268364 148.051463 
L 189.800727 149.734074 
L 190.333091 150.541083 
L 190.599273 150.597228 
L 190.865455 150.41452 
L 191.131636 149.990308 
L 191.664 148.422638 
L 192.196364 145.943937 
L 192.994909 140.81322 
L 195.124364 125.478444 
L 195.656727 123.230872 
L 195.922909 122.587856 
L 196.189091 122.31087 
L 196.455273 122.428164 
L 196.721455 122.961875 
L 196.987636 123.929226 
L 197.52 127.206631 
L 198.052364 132.297689 
L 198.850909 143.263673 
L 199.649455 157.962367 
L 200.714182 182.570808 
L 202.311273 226.762433 
L 204.174545 278.261271 
L 204.973091 295.831573 
L 205.771636 308.579434 
L 206.304 313.860783 
L 206.570182 315.453969 
L 206.836364 316.327247 
L 207.102545 316.472727 
L 207.368727 315.88931 
L 207.634909 314.582591 
L 208.167273 309.854264 
L 208.699636 302.460032 
L 209.498182 286.975809 
L 210.562909 260.145172 
L 214.023273 165.968908 
L 215.088 144.351109 
L 216.152727 127.023414 
L 217.217455 113.50006 
L 218.016 105.956408 
L 218.548364 102.364271 
L 219.080727 100.072738 
L 219.346909 99.445487 
L 219.613091 99.171522 
L 219.879273 99.248506 
L 220.145455 99.666591 
L 220.677818 101.445832 
L 221.210182 104.263456 
L 223.339636 117.226643 
L 223.605818 117.988831 
L 223.872 118.369556 
L 224.138182 118.331407 
L 224.404364 117.847907 
L 224.670545 116.905064 
L 225.202909 113.653888 
L 225.735273 108.743976 
L 226.8 95.687654 
L 227.864727 82.79622 
L 228.397091 78.312031 
L 228.929455 76.017531 
L 229.195636 75.835823 
L 229.461818 76.344165 
L 229.728 77.556602 
L 230.260364 82.061121 
L 230.792727 89.117094 
L 231.591273 103.417437 
L 234.519273 161.952207 
L 235.850182 181.454483 
L 237.979636 211.490228 
L 240.109091 242.844698 
L 240.641455 248.386868 
L 241.173818 252.019534 
L 241.44 252.990414 
L 241.706182 253.344261 
L 241.972364 253.052941 
L 242.238545 252.099012 
L 242.770909 248.190897 
L 243.303273 241.712815 
L 244.101818 227.82644 
L 245.166545 204.112009 
L 247.029818 161.328748 
L 248.094545 141.931959 
L 249.159273 127.137688 
L 250.224 115.799616 
L 251.288727 106.93719 
L 252.087273 101.99508 
L 252.619636 99.75295 
L 253.152 98.524661 
L 253.418182 98.32178 
L 253.684364 98.397711 
L 253.950545 98.746783 
L 254.482909 100.196369 
L 255.281455 103.762558 
L 256.346182 108.963781 
L 256.878545 110.640546 
L 257.144727 111.039898 
L 257.410909 111.082824 
L 257.677091 110.734244 
L 257.943273 109.97044 
L 258.475636 107.169758 
L 259.008 102.769891 
L 259.806545 93.925372 
L 261.137455 78.281009 
L 261.669818 73.834285 
L 262.202182 71.420086 
L 262.468364 71.122823 
L 262.734545 71.482112 
L 263.000727 72.515299 
L 263.533091 76.587952 
L 264.065455 83.142623 
L 264.864 96.613502 
L 267.525818 146.367921 
L 268.324364 156.708674 
L 269.389091 167.531627 
L 270.72 181.050768 
L 271.784727 194.662439 
L 273.648 219.504589 
L 274.180364 224.121118 
L 274.712727 226.514855 
L 274.978909 226.734071 
L 275.245091 226.247745 
L 275.511273 225.032016 
L 276.043636 220.386924 
L 276.576 212.889981 
L 277.374545 197.024601 
L 278.439273 170.218624 
L 280.036364 129.373568 
L 280.834909 113.246968 
L 281.633455 101.512335 
L 282.165818 96.134356 
L 282.698182 92.465041 
L 283.230545 90.164028 
L 283.762909 88.849238 
L 284.295273 88.166071 
L 284.827636 87.845879 
L 285.36 87.74242 
L 285.892364 87.842035 
L 286.424727 88.243055 
L 286.957091 89.110634 
L 287.489455 90.616576 
L 288.021818 92.876578 
L 288.820364 97.666018 
L 291.216 114.265935 
L 291.748364 116.101408 
L 292.014545 116.562647 
L 292.280727 116.711735 
L 292.546909 116.556959 
L 292.813091 116.118543 
L 293.345455 114.523977 
L 295.208727 107.037454 
L 295.474909 106.541629 
L 295.741091 106.356288 
L 296.007273 106.522423 
L 296.273455 107.072478 
L 296.539636 108.030261 
L 297.072 111.22122 
L 297.604364 116.119298 
L 298.402909 126.467635 
L 299.201455 139.929437 
L 300.266182 161.72466 
L 301.597091 193.725935 
L 305.057455 281.430157 
L 305.856 294.616988 
L 306.388364 300.307601 
L 306.920727 303.233533 
L 307.186909 303.625374 
L 307.453091 303.30107 
L 307.719273 302.268143 
L 308.251636 298.13645 
L 308.784 291.396028 
L 309.582545 276.881461 
L 310.381091 257.863431 
L 311.445818 227.280475 
L 314.107636 146.431387 
L 314.906182 128.294629 
L 315.704727 115.44993 
L 316.237091 109.955833 
L 316.769455 106.735714 
L 317.035636 105.881513 
L 317.301818 105.46629 
L 317.568 105.436286 
L 317.834182 105.73627 
L 318.366545 107.110523 
L 319.165091 110.391352 
L 321.294545 121.049101 
L 322.891636 128.563082 
L 323.690182 131.162728 
L 324.222545 132.009485 
L 324.488727 132.09853 
L 324.754909 131.945913 
L 325.021091 131.54714 
L 325.553455 130.037107 
L 326.085818 127.71766 
L 327.949091 118.376491 
L 328.481455 117.176186 
L 328.747636 117.055364 
L 329.013818 117.287633 
L 329.28 117.88416 
L 329.812364 120.160156 
L 330.344727 123.758315 
L 331.143273 131.032092 
L 334.071273 160.360186 
L 336.466909 180.887916 
L 337.531636 193.055452 
L 338.862545 211.556125 
L 340.193455 229.79614 
L 340.992 237.9195 
L 341.524364 241.286697 
L 341.790545 242.225265 
L 342.056727 242.620948 
L 342.322909 242.446518 
L 342.589091 241.681292 
L 342.855273 240.311446 
L 343.387636 235.739634 
L 343.92 228.774198 
L 344.718545 214.265989 
L 345.783273 189.396689 
L 347.646545 144.603445 
L 348.445091 130.847891 
L 348.977455 124.693099 
L 349.509818 121.093746 
L 349.776 120.216793 
L 350.042182 119.909277 
L 350.308364 120.122761 
L 350.574545 120.799767 
L 351.106909 123.284577 
L 351.905455 128.810362 
L 353.502545 140.584813 
L 354.301091 145.023602 
L 355.099636 148.241071 
L 355.898182 150.444383 
L 356.696727 151.86523 
L 357.229091 152.44457 
L 357.761455 152.744238 
L 358.293818 152.768237 
L 358.826182 152.531684 
L 359.624727 151.792389 
L 360.689455 150.631094 
L 361.221818 150.326528 
L 361.488 150.324369 
L 361.754182 150.453337 
L 362.020364 150.735045 
L 362.552727 151.832681 
L 363.085091 153.738643 
L 363.617455 156.516626 
L 364.416 162.300436 
L 365.214545 169.780437 
L 366.545455 184.750411 
L 370.272 228.467429 
L 371.336727 237.994711 
L 371.869091 241.453798 
L 372.401455 243.730215 
L 372.667636 244.357514 
L 372.933818 244.615122 
L 373.2 244.487584 
L 373.466182 243.965886 
L 373.998545 241.742169 
L 374.530909 238.031421 
L 375.329455 230.1981 
L 377.991273 200.749192 
L 378.789818 195.427911 
L 379.322182 193.110201 
L 379.854545 191.591873 
L 380.386909 190.640156 
L 381.185455 189.745786 
L 382.250182 188.576415 
L 383.048727 187.345282 
L 385.178182 183.67142 
L 385.710545 183.147084 
L 386.242909 182.941096 
L 386.775273 183.098418 
L 387.307636 183.634113 
L 387.84 184.528921 
L 388.638545 186.412631 
L 390.768 192.063707 
L 391.566545 193.386001 
L 392.098909 193.873706 
L 392.631273 194.066685 
L 393.163636 194.019529 
L 393.962182 193.660898 
L 395.559273 192.794732 
L 396.357818 192.6053 
L 397.156364 192.670206 
L 397.688727 192.884454 
L 398.221091 193.283868 
L 398.753455 193.948364 
L 399.285818 195.001039 
L 399.818182 196.609527 
L 400.350545 198.976851 
L 400.882909 202.320259 
L 401.415273 206.84007 
L 402.213818 216.112128 
L 403.012364 228.348555 
L 404.609455 258.042825 
L 405.674182 275.898305 
L 406.206545 282.360029 
L 406.738909 286.497594 
L 407.005091 287.594133 
L 407.271273 288.015319 
L 407.537455 287.758339 
L 407.803636 286.834479 
L 408.336 283.098014 
L 408.868364 277.145714 
L 409.666909 265.151366 
L 412.594909 216.429361 
L 413.659636 203.577789 
L 414.724364 193.626145 
L 415.789091 186.100814 
L 416.587636 182.114819 
L 417.12 180.38894 
L 417.652364 179.514541 
L 417.918545 179.419772 
L 418.184727 179.560591 
L 418.450909 179.938183 
L 418.983273 181.386865 
L 419.515636 183.685096 
L 420.314182 188.360658 
L 422.177455 200.175084 
L 422.709818 202.314044 
L 423.242182 203.369616 
L 423.508364 203.433696 
L 423.774545 203.171721 
L 424.040727 202.58061 
L 424.573091 200.438042 
L 425.105455 197.136215 
L 425.904 190.552954 
L 426.436364 185.552513 
L 426.436364 185.552513 
" clip-path="url(#pc6515d5a30)" style="fill: none; stroke: #0000ff; stroke-width: 3; stroke-linecap: square"/>
   </g>
   <g id="patch_3">
    <path d="M 7.2 331.2 
L 7.2 7.2 
" style="fill: none; stroke: #000000; stroke-width: 0.8; stroke-linejoin: miter; stroke-linecap: square"/>
   </g>
   <g id="patch_4">
    <path d="M 446.4 331.2 
L 446.4 7.2 
" style="fill: none; stroke: #000000; stroke-width: 0.8; stroke-linejoin: miter; stroke-linecap: square"/>
   </g>
   <g id="patch_5">
    <path d="M 7.2 331.2 
L 446.4 331.2 
" style="fill: none; stroke: #000000; stroke-width: 0.8; stroke-linejoin: miter; stroke-linecap: square"/>
   </g>
   <g id="patch_6">
    <path d="M 7.2 7.2 
L 446.4 7.2 
" style="fill: none; stroke: #000000; stroke-width: 0.8; stroke-linejoin: miter; stroke-linecap: square"/>
   </g>
  </g>
 </g>
 <defs>
  <clipPath id="pc6515d5a30">
   <rect x="7.2" y="7.2" width="439.2" height="324"/>
  </clipPath>
 </defs>
</svg>
