<?xml version="1.0" encoding="utf-8" standalone="no"?>
<!DOCTYPE svg PUBLIC "-//W3C//DTD SVG 1.1//EN"
  "http://www.w3.org/Graphics/SVG/1.1/DTD/svg11.dtd">
<svg xmlns:xlink="http://www.w3.org/1999/xlink" width="453.6pt" height="338.4pt" viewBox="0 0 453.6 338.4" xmlns="http://www.w3.org/2000/svg" version="1.1">
 <metadata>
  <rdf:RDF xmlns:dc="http://purl.org/dc/elements/1.1/" xmlns:cc="http://creativecommons.org/ns#" xmlns:rdf="http://www.w3.org/1999/02/22-rdf-syntax-ns#">
   <cc:Work>
    <dc:type rdf:resource="http://purl.org/dc/dcmitype/StillImage"/>
    <dc:date>2025-05-15T18:12:38.894934</dc:date>
    <dc:format>image/svg+xml</dc:format>
    <dc:creator>
     <cc:Agent>
      <dc:title>Matplotlib v3.10.1, https://matplotlib.org/</dc:title>
     </cc:Agent>
    </dc:creator>
   </cc:Work>
  </rdf:RDF>
 </metadata>
 <defs>
  <style type="text/css">*{stroke-linejoin: round; stroke-linecap: butt}</style>
 </defs>
 <g id="figure_1">
  <g id="patch_1">
   <path d="M 0 338.4 
L 453.6 338.4 
L 453.6 0 
L 0 0 
z
" style="fill: #ffffff"/>
  </g>
  <g id="axes_1">
   <g id="patch_2">
    <path d="M 7.2 331.2 
L 446.4 331.2 
L 446.4 7.2 
L 7.2 7.2 
z
" style="fill: #ffffff"/>
   </g>
   <g id="matplotlib.axis_1"/>
   <g id="matplotlib.axis_2"/>
   <g id="line2d_1">
    <path d="M 27.163636 21.927273 
L 27.441681 23.236651 
L 27.997772 28.340906 
L 28.831907 40.348625 
L 29.944087 57.511661 
L 30.500177 63.707428 
L 31.056267 67.244275 
L 31.334312 67.957031 
L 31.612358 68.010427 
L 31.890403 67.480122 
L 32.446493 65.117372 
L 33.558673 59.258563 
L 33.836718 58.450534 
L 34.114763 58.172733 
L 34.392808 58.522144 
L 34.670853 59.566331 
L 34.948898 61.341721 
L 35.504989 67.064705 
L 36.061079 75.342151 
L 37.451304 101.504341 
L 38.285439 115.495119 
L 38.84153 122.147713 
L 39.39762 126.060981 
L 39.675665 126.939063 
L 39.95371 127.112329 
L 40.231755 126.613781 
L 40.5098 125.492146 
L 41.06589 121.631185 
L 41.900025 112.907498 
L 44.402431 83.757993 
L 44.958521 79.628259 
L 45.514611 77.077221 
L 45.792656 76.464097 
L 46.070701 76.318775 
L 46.348747 76.650128 
L 46.626792 77.458313 
L 47.182882 80.444383 
L 47.738972 85.03717 
L 48.851152 97.188732 
L 49.963332 109.050662 
L 50.519423 113.311862 
L 51.075513 115.929607 
L 51.353558 116.587643 
L 51.631603 116.829405 
L 51.909648 116.689532 
L 52.187693 116.219473 
L 52.743783 114.560683 
L 53.855964 110.693184 
L 54.134009 110.097184 
L 54.412054 109.786691 
L 54.690099 109.806306 
L 54.968144 110.183895 
L 55.246189 110.929575 
L 55.802279 113.463334 
L 56.636414 119.181958 
L 57.748595 127.237569 
L 58.304685 130.014569 
L 58.58273 130.888992 
L 58.860775 131.389641 
L 59.13882 131.521731 
L 59.416865 131.311882 
L 59.972955 130.08937 
L 61.085135 126.917658 
L 61.363181 126.58 
L 61.641226 126.620864 
L 61.919271 127.114664 
L 62.197316 128.114561 
L 62.753406 131.713211 
L 63.309496 137.292196 
L 65.533857 164.008431 
L 66.089947 167.008512 
L 66.367992 167.522782 
L 66.646037 167.381586 
L 66.924082 166.626486 
L 67.480172 163.588187 
L 69.426488 149.474815 
L 69.704533 148.553455 
L 69.982578 148.113909 
L 70.260623 148.157186 
L 70.538668 148.655656 
L 71.094758 150.776876 
L 72.763029 159.054712 
L 73.041074 159.654915 
L 73.319119 159.846473 
L 73.597164 159.608758 
L 73.875209 158.9508 
L 74.431299 156.53551 
L 76.377615 145.518737 
L 76.65566 144.833847 
L 76.933705 144.54437 
L 77.21175 144.650929 
L 77.489795 145.126204 
L 78.045885 146.947673 
L 79.158065 151.44075 
L 79.43611 152.110229 
L 79.714155 152.401885 
L 79.992201 152.248857 
L 80.270246 151.608801 
L 80.548291 150.469809 
L 81.104381 146.805309 
L 82.216561 136.372549 
L 82.772651 131.724886 
L 83.328741 128.976998 
L 83.606787 128.594428 
L 83.884832 128.966023 
L 84.162877 130.117314 
L 84.718967 134.667835 
L 85.275057 141.696694 
L 86.943327 166.014297 
L 87.499418 171.015418 
L 87.777463 172.453305 
L 88.055508 173.153451 
L 88.333553 173.145045 
L 88.611598 172.49487 
L 89.167688 169.709464 
L 90.557913 160.975969 
L 90.835958 160.091349 
L 91.114004 159.737968 
L 91.392049 159.957002 
L 91.670094 160.750864 
L 92.226184 163.88646 
L 93.060319 170.984127 
L 93.894454 177.697979 
L 94.450544 180.253687 
L 94.72859 180.718998 
L 95.006635 180.617732 
L 95.28468 179.981257 
L 95.84077 177.417843 
L 96.95295 170.95198 
L 97.230995 170.005479 
L 97.50904 169.634974 
L 97.787085 169.95652 
L 98.06513 171.051845 
L 98.343175 172.961038 
L 98.899266 179.1656 
L 99.733401 193.095822 
L 101.123626 217.376295 
L 101.679716 223.169566 
L 101.957761 224.71845 
L 102.235807 225.31803 
L 102.513852 224.989479 
L 102.791897 223.800048 
L 103.347987 219.315377 
L 105.016257 201.668116 
L 105.294302 199.981383 
L 105.572347 198.994173 
L 105.850393 198.753033 
L 106.128438 199.262166 
L 106.406483 200.483744 
L 106.962573 204.727275 
L 108.908888 223.783391 
L 109.186933 225.198861 
L 109.464978 226.037558 
L 109.743024 226.298624 
L 110.021069 226.019032 
L 110.299114 225.267825 
L 110.855204 222.765513 
L 111.689339 218.471777 
L 112.245429 216.793061 
L 112.523474 216.624076 
L 112.801519 216.983996 
L 113.079564 217.891812 
L 113.635655 221.261775 
L 114.46979 229.022227 
L 115.303925 236.971434 
L 115.860015 240.477807 
L 116.13806 241.338765 
L 116.416105 241.503586 
L 116.69415 240.935802 
L 116.972195 239.634168 
L 117.528286 234.99499 
L 118.362421 224.320234 
L 119.752646 205.296421 
L 120.308736 200.013529 
L 120.864827 196.751526 
L 121.142872 195.847135 
L 121.420917 195.359329 
L 121.698962 195.211905 
L 121.977007 195.315506 
L 123.089187 196.388493 
L 123.367232 196.426322 
L 123.645277 196.273761 
L 124.201367 195.39311 
L 125.313548 192.725316 
L 125.591593 192.384467 
L 125.869638 192.387036 
L 126.147683 192.836312 
L 126.425728 193.82072 
L 126.703773 195.41039 
L 127.259863 200.556833 
L 127.815953 208.276654 
L 128.650089 223.476634 
L 130.040314 249.567291 
L 130.596404 256.89166 
L 131.152494 261.269149 
L 131.430539 262.294849 
L 131.708584 262.583119 
L 131.98663 262.20195 
L 132.264675 261.24677 
L 132.820765 258.089731 
L 134.21099 249.012428 
L 134.76708 247.118998 
L 135.045125 246.748026 
L 135.32317 246.746275 
L 135.601215 247.070778 
L 136.157306 248.426392 
L 137.269486 251.558485 
L 137.547531 251.960125 
L 137.825576 252.101438 
L 138.103621 251.966313 
L 138.381666 251.563622 
L 138.937756 250.114993 
L 140.049937 246.771416 
L 140.327982 246.376431 
L 140.606027 246.325992 
L 140.884072 246.677778 
L 141.162117 247.466269 
L 141.718207 250.355199 
L 142.552342 257.24111 
L 143.664523 266.863273 
L 144.220613 269.614158 
L 144.498658 270.11578 
L 144.776703 269.9596 
L 145.054748 269.128843 
L 145.332793 267.639933 
L 145.888883 262.923112 
L 147.001064 249.684319 
L 147.835199 240.955962 
L 148.391289 237.63881 
L 148.669334 236.951819 
L 148.947379 236.935084 
L 149.225424 237.561985 
L 149.781514 240.476951 
L 150.61565 247.321648 
L 151.449785 253.764821 
L 152.005875 256.092933 
L 152.28392 256.400001 
L 152.561965 256.083981 
L 152.84001 255.146587 
L 153.3961 251.572612 
L 154.230236 243.261734 
L 155.342416 231.644797 
L 155.898506 227.586208 
L 156.454596 225.337801 
L 156.732641 224.895763 
L 157.010686 224.858479 
L 157.288731 225.159943 
L 157.844821 226.443401 
L 158.678957 228.674839 
L 159.235047 229.430872 
L 159.513092 229.444572 
L 159.791137 229.205067 
L 160.347227 228.081408 
L 161.459407 225.109815 
L 161.737453 224.699146 
L 162.015498 224.572349 
L 162.293543 224.777528 
L 162.571588 225.338501 
L 163.127678 227.484085 
L 164.795948 236.488609 
L 165.073993 237.10726 
L 165.352038 237.152873 
L 165.630084 236.546053 
L 165.908129 235.241657 
L 166.464219 230.556166 
L 167.298354 219.493235 
L 168.410534 204.08037 
L 168.966624 199.74359 
L 169.24467 199.024218 
L 169.522715 199.408812 
L 169.80076 200.936835 
L 170.35685 207.306568 
L 170.91294 217.352244 
L 172.58121 252.239366 
L 173.137301 258.976141 
L 173.415346 260.629871 
L 173.693391 261.066499 
L 173.971436 260.305718 
L 174.249481 258.4284 
L 174.805571 251.915174 
L 176.751887 223.814837 
L 177.029932 222.027149 
L 177.307977 221.191099 
L 177.586022 221.311435 
L 177.864067 222.338498 
L 178.420157 226.667183 
L 180.366473 246.510739 
L 180.644518 247.574891 
L 180.922563 247.885306 
L 181.200608 247.444436 
L 181.478653 246.300384 
L 182.034743 242.289897 
L 183.703013 226.971215 
L 184.259104 224.355572 
L 184.537149 223.830093 
L 184.815194 223.808221 
L 185.093239 224.23438 
L 185.649329 226.081224 
L 186.761509 230.619759 
L 187.039554 231.310798 
L 187.317599 231.675465 
L 187.595644 231.682782 
L 187.87369 231.329634 
L 188.42978 229.668977 
L 190.09805 222.788242 
L 190.376095 222.35967 
L 190.65414 222.339588 
L 190.932185 222.763879 
L 191.21023 223.646008 
L 191.766321 226.72595 
L 192.600456 233.935625 
L 194.546771 253.098495 
L 195.380907 259.242461 
L 199.551583 285.031693 
L 200.107673 286.965755 
L 200.385718 287.410594 
L 200.663763 287.465859 
L 200.941808 287.118432 
L 201.219853 286.373257 
L 201.775943 283.79412 
L 202.610079 277.988473 
L 203.722259 269.730486 
L 204.278349 266.698491 
L 204.834439 264.891578 
L 205.112484 264.476082 
L 205.390529 264.369056 
L 205.668574 264.540454 
L 206.224664 265.543698 
L 207.336845 268.736426 
L 208.17098 270.83305 
L 209.83925 274.137981 
L 210.395341 276.057292 
L 210.951431 278.936531 
L 211.507521 282.8951 
L 212.341656 290.508128 
L 213.731881 303.551822 
L 214.287972 307.019354 
L 214.566017 308.100047 
L 214.844062 308.692738 
L 215.122107 308.781045 
L 215.400152 308.370376 
L 215.678197 307.486728 
L 216.234287 304.502837 
L 217.068422 298.135789 
L 218.180603 289.992261 
L 218.736693 287.494192 
L 219.014738 286.786418 
L 219.292783 286.440353 
L 219.570828 286.429923 
L 219.848873 286.708541 
L 220.404963 287.863179 
L 221.239099 289.804401 
L 221.517144 290.14957 
L 221.795189 290.212502 
L 222.073234 289.935285 
L 222.351279 289.279506 
L 222.907369 286.791088 
L 223.463459 282.896968 
L 225.409775 267.060279 
L 225.965865 265.002106 
L 226.24391 264.710839 
L 226.521955 264.922245 
L 226.8 265.612078 
L 227.35609 268.206432 
L 229.302406 279.785696 
L 229.580451 280.371227 
L 229.858496 280.471053 
L 230.136541 280.067234 
L 230.414586 279.16907 
L 230.970676 276.050871 
L 231.804811 269.21279 
L 232.916992 260.267189 
L 233.473082 257.426752 
L 233.751127 256.564665 
L 234.029172 256.067402 
L 234.307217 255.897328 
L 234.585262 255.994313 
L 235.141352 256.653361 
L 235.697442 257.257222 
L 235.975487 257.272323 
L 236.253533 256.964126 
L 236.531578 256.249386 
L 236.809623 255.063263 
L 237.365713 251.128317 
L 237.921803 245.100717 
L 238.755938 232.906539 
L 240.702254 202.084389 
L 241.536389 192.766259 
L 242.370524 186.321412 
L 244.594885 172.300044 
L 246.819245 155.280618 
L 247.375336 153.36839 
L 247.653381 153.088176 
L 247.931426 153.277943 
L 248.209471 153.923525 
L 248.765561 156.400384 
L 250.433831 166.506306 
L 250.711876 167.345703 
L 250.989921 167.658531 
L 251.267967 167.379017 
L 251.546012 166.468633 
L 252.102102 162.756808 
L 252.658192 156.837363 
L 254.882553 129.465193 
L 255.438643 126.529016 
L 255.716688 125.992873 
L 255.994733 126.044168 
L 256.272778 126.620709 
L 256.828868 128.979878 
L 258.219093 136.422131 
L 258.497139 137.295231 
L 258.775184 137.791833 
L 259.053229 137.889519 
L 259.331274 137.59327 
L 259.609319 136.935468 
L 260.165409 134.786303 
L 261.277589 129.714895 
L 261.833679 128.299814 
L 262.111724 128.11137 
L 262.38977 128.303161 
L 262.667815 128.868882 
L 263.223905 130.969709 
L 264.892175 139.185742 
L 265.17022 139.84767 
L 265.448265 140.113018 
L 265.72631 139.954774 
L 266.004356 139.371929 
L 266.560446 137.060786 
L 267.672626 130.01021 
L 268.228716 126.986933 
L 268.506761 125.984778 
L 268.784806 125.436026 
L 269.062851 125.399676 
L 269.340896 125.908342 
L 269.618942 126.96615 
L 270.175032 130.607066 
L 271.009167 138.74386 
L 272.121347 149.812473 
L 272.677437 153.384035 
L 272.955482 154.408607 
L 273.233527 154.890575 
L 273.511573 154.839825 
L 273.789618 154.296833 
L 274.345708 152.024997 
L 275.735933 144.606484 
L 276.013978 143.777907 
L 276.292023 143.390744 
L 276.570068 143.494813 
L 276.848113 144.110739 
L 277.404204 146.794723 
L 278.238339 153.3522 
L 279.072474 160.032348 
L 279.628564 162.723649 
L 279.906609 163.202504 
L 280.184654 163.012192 
L 280.462699 162.126559 
L 281.01879 158.348106 
L 281.57488 152.388263 
L 283.24315 132.742141 
L 283.79924 129.654805 
L 284.077285 129.204516 
L 284.35533 129.495394 
L 284.633376 130.481748 
L 285.189466 134.155822 
L 286.579691 145.843707 
L 286.857736 147.171922 
L 287.135781 147.806218 
L 287.413826 147.656459 
L 287.691871 146.676644 
L 287.969916 144.870119 
L 288.526007 139.035906 
L 290.472322 112.743105 
L 290.750367 110.941952 
L 291.028412 110.118978 
L 291.306457 110.339102 
L 291.584502 111.612597 
L 292.140593 117.086346 
L 292.974728 130.464001 
L 294.086908 148.907381 
L 294.642998 154.5161 
L 294.921043 155.916626 
L 295.199088 156.320679 
L 295.477133 155.753479 
L 295.755179 154.29691 
L 296.311269 149.287383 
L 297.701494 134.326207 
L 297.979539 132.684308 
L 298.257584 131.904846 
L 298.535629 132.082082 
L 298.813674 133.256801 
L 299.091719 135.415462 
L 299.64781 142.355353 
L 300.75999 162.035023 
L 301.594125 174.957952 
L 302.150215 179.711317 
L 302.42826 180.577023 
L 302.706305 180.391537 
L 302.98435 179.185838 
L 303.540441 174.080104 
L 304.374576 162.01642 
L 305.486756 145.766104 
L 306.042846 140.515203 
L 306.320891 138.910821 
L 306.598936 137.991875 
L 306.876982 137.711894 
L 307.155027 137.98736 
L 307.433072 138.707199 
L 308.267207 142.166753 
L 308.823297 144.16865 
L 309.101342 144.735071 
L 309.379387 144.920869 
L 309.657432 144.70129 
L 309.935477 144.090657 
L 310.491567 141.931296 
L 311.603748 137.041171 
L 311.881793 136.513668 
L 312.159838 136.529313 
L 312.437883 137.186726 
L 312.715928 138.55347 
L 313.272018 143.503453 
L 313.828108 151.170811 
L 314.940289 171.138868 
L 315.774424 185.259868 
L 316.330514 192.172283 
L 316.886604 196.445081 
L 317.164649 197.601431 
L 317.442694 198.181941 
L 317.720739 198.28383 
L 317.998785 198.026189 
L 319.110965 196.135366 
L 319.38901 196.100417 
L 319.667055 196.446637 
L 319.9451 197.232327 
L 320.50119 200.201506 
L 321.05728 204.85524 
L 323.281641 226.077488 
L 323.837731 228.431598 
L 324.115776 228.971944 
L 324.393821 229.141084 
L 324.671866 229.005336 
L 325.227956 228.172244 
L 325.784047 227.24349 
L 326.062092 226.983202 
L 326.340137 226.966934 
L 326.618182 227.254232 
L 326.896227 227.883234 
L 327.452317 230.201539 
L 328.008407 233.758546 
L 329.676678 246.151326 
L 330.232768 248.618844 
L 330.510813 249.274662 
L 330.788858 249.525726 
L 331.066903 249.38305 
L 331.344948 248.877536 
L 331.901038 246.982705 
L 333.847354 238.435397 
L 334.403444 237.346687 
L 334.681489 237.135826 
L 334.959534 237.120648 
L 335.515624 237.525869 
L 336.627805 238.665951 
L 336.90585 238.726119 
L 337.183895 238.618626 
L 337.46194 238.323389 
L 338.01803 237.150382 
L 338.57412 235.28867 
L 340.520436 227.615864 
L 341.076526 226.374126 
L 341.632616 225.796651 
L 342.188706 225.730567 
L 343.022841 225.898852 
L 343.300886 225.833546 
L 343.578931 225.630235 
L 343.856976 225.253036 
L 344.413067 223.885358 
L 344.969157 221.696107 
L 346.915472 212.479165 
L 347.193517 211.92076 
L 347.471562 211.773648 
L 347.749607 212.089823 
L 348.027653 212.903845 
L 348.583743 216.067929 
L 349.139833 221.140738 
L 349.973968 231.295075 
L 351.364193 248.79713 
L 351.920284 253.86741 
L 352.476374 257.177244 
L 352.754419 258.152312 
L 353.032464 258.703516 
L 353.310509 258.875069 
L 353.588554 258.725116 
L 354.144644 257.744717 
L 355.256825 255.159936 
L 355.812915 254.558916 
L 356.09096 254.561757 
L 356.369005 254.778145 
L 356.925095 255.801744 
L 357.75923 258.343285 
L 358.87141 261.860167 
L 359.427501 263.103111 
L 359.983591 263.94893 
L 361.095771 265.375219 
L 361.651861 266.691486 
L 362.207951 268.886847 
L 362.764042 272.159203 
L 363.598177 278.984868 
L 365.544492 296.579822 
L 366.100582 299.403408 
L 366.378628 300.145625 
L 366.656673 300.407781 
L 366.934718 300.185361 
L 367.212763 299.491714 
L 367.768853 296.82789 
L 368.602988 290.497698 
L 370.271259 276.508281 
L 371.105394 271.777333 
L 371.661484 269.698573 
L 372.495619 267.611016 
L 373.607799 264.982297 
L 374.441935 262.099205 
L 376.666295 253.086469 
L 377.222385 251.928212 
L 377.50043 251.622311 
L 377.778476 251.487225 
L 378.056521 251.50034 
L 378.612611 251.836442 
L 379.446746 252.485526 
L 380.002836 252.546317 
L 380.280881 252.386868 
L 380.836971 251.681545 
L 382.227197 249.28303 
L 382.505242 249.16495 
L 382.783287 249.32331 
L 383.061332 249.813023 
L 383.339377 250.674915 
L 383.895467 253.57914 
L 384.451557 257.92421 
L 386.119828 272.706866 
L 386.397873 274.044888 
L 386.675918 274.693311 
L 386.953963 274.544175 
L 387.232008 273.516996 
L 387.510053 271.564993 
L 388.066143 264.886051 
L 388.622233 254.900894 
L 390.012459 222.899549 
L 390.846594 206.428175 
L 391.402684 199.311204 
L 391.680729 197.160171 
L 391.958774 195.959843 
L 392.236819 195.665074 
L 392.514865 196.190553 
L 392.79291 197.415478 
L 393.349 201.346492 
L 394.46118 210.185768 
L 395.01727 212.534896 
L 395.295315 212.820948 
L 395.57336 212.468579 
L 395.851405 211.49359 
L 396.407496 207.926853 
L 398.353811 191.962044 
L 398.631856 191.137903 
L 398.909901 190.986121 
L 399.187946 191.533862 
L 399.465991 192.769761 
L 400.022082 197.085759 
L 400.856217 206.575677 
L 401.968397 218.894822 
L 402.524487 222.627352 
L 402.802532 223.649822 
L 403.080577 224.111397 
L 403.358622 224.058935 
L 403.636668 223.572919 
L 404.192758 221.758299 
L 404.748848 219.753601 
L 405.026893 219.050808 
L 405.304938 218.731909 
L 405.582983 218.911324 
L 405.861028 219.675141 
L 406.139073 221.077223 
L 406.695163 225.824439 
L 407.251253 232.85073 
L 409.475614 264.436307 
L 410.031704 268.344944 
L 410.309749 269.411742 
L 410.587794 269.94411 
L 410.865839 270.021909 
L 411.143885 269.746481 
L 412.53411 267.266003 
L 412.812155 267.316636 
L 413.0902 267.722674 
L 413.368245 268.504861 
L 413.924335 271.128209 
L 415.870651 283.07179 
L 416.148696 283.76606 
L 416.426741 283.968086 
L 416.704786 283.655142 
L 416.982831 282.834815 
L 417.538921 279.858163 
L 419.485237 266.639841 
L 419.763282 266.098366 
L 420.041327 266.204497 
L 420.319372 267.004003 
L 420.597417 268.510231 
L 421.153507 273.535287 
L 421.987642 284.938756 
L 423.377868 305.822918 
L 423.933958 311.782138 
L 424.490048 315.363235 
L 424.768093 316.21493 
L 425.046138 316.472727 
L 425.324183 316.191774 
L 425.602228 315.448623 
L 426.158319 312.957286 
L 426.436364 311.422608 
L 426.436364 311.422608 
" clip-path="url(#pe046ae00f5)" style="fill: none; stroke-dasharray: 11.1,4.8; stroke-dashoffset: 0; stroke: #000000; stroke-width: 3"/>
   </g>
   <g id="line2d_2">
    <path d="M 27.163636 95.504645 
L 28.275817 94.533159 
L 29.387997 93.205956 
L 30.500177 91.458977 
L 31.612358 89.232831 
L 32.446493 87.47262 
L 33.558673 86.561535 
L 35.504989 84.522977 
L 36.617169 82.858972 
L 38.007394 80.66762 
L 38.84153 79.732328 
L 39.675665 79.140453 
L 40.231755 78.948195 
L 40.787845 78.931071 
L 41.343935 79.095775 
L 41.900025 79.453281 
L 42.456115 80.015967 
L 43.290251 81.264321 
L 44.124386 83.029125 
L 44.958521 85.347818 
L 45.792656 88.26329 
L 46.904837 93.140728 
L 48.017017 98.18575 
L 49.129197 104.036231 
L 50.241378 111.165889 
L 51.353558 119.916509 
L 52.743783 132.954948 
L 53.855964 145.301727 
L 54.690099 155.664355 
L 54.968144 157.327192 
L 57.47055 163.409006 
L 59.416865 167.648879 
L 61.085135 170.827596 
L 62.197316 172.6212 
L 65.255812 176.721744 
L 67.202127 179.526376 
L 70.538668 185.48832 
L 71.650848 187.280601 
L 72.206938 187.711741 
L 74.987389 189.17298 
L 77.489795 190.690417 
L 82.494606 194.22127 
L 85.275057 196.117386 
L 89.445733 200.127172 
L 91.392049 201.160773 
L 93.338364 201.947863 
L 96.118815 202.947838 
L 97.787085 203.853085 
L 99.733401 205.188461 
L 101.679716 206.805686 
L 105.850393 210.676065 
L 110.299114 215.980051 
L 112.523474 218.298589 
L 115.02588 221.753318 
L 117.250241 224.42189 
L 119.196556 226.38658 
L 120.308736 227.328411 
L 121.977007 228.098532 
L 123.089187 228.453237 
L 124.479413 228.473241 
L 126.703773 228.311339 
L 128.650089 227.957024 
L 130.874449 227.472098 
L 133.09881 227.389435 
L 135.601215 227.51989 
L 138.381666 227.904017 
L 147.001064 229.350778 
L 148.391289 229.495088 
L 157.288731 228.603696 
L 168.410534 227.836843 
L 173.693391 227.739547 
L 184.815194 227.68257 
L 194.268726 227.232204 
L 204.000304 226.769306 
L 212.063611 226.204518 
L 221.795189 225.688769 
L 235.141352 225.316862 
L 240.146164 225.06467 
L 246.5412 224.358141 
L 252.380147 223.406814 
L 256.550823 222.522894 
L 258.219093 221.981614 
L 260.443454 221.409666 
L 265.72631 220.477799 
L 267.950671 220.432964 
L 270.175032 220.603039 
L 272.677437 221.035113 
L 276.848113 221.867505 
L 281.01879 222.414856 
L 286.857736 222.866157 
L 292.418638 223.115547 
L 293.530818 222.929361 
L 296.311269 222.300903 
L 302.150215 220.356684 
L 305.764801 219.395939 
L 308.545252 218.871705 
L 311.325703 218.361793 
L 317.998785 216.292723 
L 319.9451 216.03477 
L 321.61337 216.039441 
L 323.281641 216.291945 
L 324.671866 216.718104 
L 326.062092 217.362518 
L 327.452317 218.244959 
L 328.564497 218.960595 
L 330.788858 219.461945 
L 334.681489 219.345656 
L 337.46194 219.063106 
L 339.964345 218.596861 
L 342.188706 217.968637 
L 344.413067 217.098884 
L 348.027653 215.317345 
L 350.530058 213.844819 
L 353.588554 211.792407 
L 357.481185 208.902388 
L 364.432312 203.590229 
L 365.266447 203.491064 
L 368.881033 203.744347 
L 370.271259 204.07064 
L 371.661484 204.641654 
L 372.773664 205.326233 
L 373.885845 206.255221 
L 374.998025 207.469015 
L 376.110205 209.006145 
L 377.222385 210.904907 
L 378.334566 213.203908 
L 379.446746 215.941054 
L 380.836971 220.035994 
L 382.227197 224.317977 
L 383.617422 225.792682 
L 385.007648 226.948176 
L 386.397873 227.774418 
L 387.510053 228.188979 
L 388.622233 228.377423 
L 389.734414 228.332044 
L 390.846594 228.046226 
L 391.958774 227.513585 
L 393.070955 226.727196 
L 394.183135 225.680674 
L 395.295315 224.367015 
L 396.685541 222.339977 
L 398.075766 219.873237 
L 399.465991 216.954729 
L 400.300127 214.507059 
L 401.690352 210.655049 
L 403.080577 207.373898 
L 404.470803 204.605227 
L 405.861028 202.296107 
L 407.251253 200.391741 
L 408.641479 198.838109 
L 410.031704 197.581972 
L 411.699975 196.393008 
L 413.64629 195.33014 
L 416.148696 194.256453 
L 417.538921 193.645041 
L 420.875462 190.093094 
L 422.543733 188.915572 
L 424.490048 187.871308 
L 426.436364 187.009182 
L 426.436364 187.009182 
" clip-path="url(#pe046ae00f5)" style="fill: none; stroke: #ff00ff; stroke-width: 3; stroke-linecap: square"/>
   </g>
   <g id="patch_3">
    <path d="M 7.2 331.2 
L 7.2 7.2 
" style="fill: none; stroke: #000000; stroke-width: 0.8; stroke-linejoin: miter; stroke-linecap: square"/>
   </g>
   <g id="patch_4">
    <path d="M 446.4 331.2 
L 446.4 7.2 
" style="fill: none; stroke: #000000; stroke-width: 0.8; stroke-linejoin: miter; stroke-linecap: square"/>
   </g>
   <g id="patch_5">
    <path d="M 7.2 331.2 
L 446.4 331.2 
" style="fill: none; stroke: #000000; stroke-width: 0.8; stroke-linejoin: miter; stroke-linecap: square"/>
   </g>
   <g id="patch_6">
    <path d="M 7.2 7.2 
L 446.4 7.2 
" style="fill: none; stroke: #000000; stroke-width: 0.8; stroke-linejoin: miter; stroke-linecap: square"/>
   </g>
  </g>
 </g>
 <defs>
  <clipPath id="pe046ae00f5">
   <rect x="7.2" y="7.2" width="439.2" height="324"/>
  </clipPath>
 </defs>
</svg>
