<?xml version="1.0" encoding="utf-8" standalone="no"?>
<!DOCTYPE svg PUBLIC "-//W3C//DTD SVG 1.1//EN"
  "http://www.w3.org/Graphics/SVG/1.1/DTD/svg11.dtd">
<svg xmlns:xlink="http://www.w3.org/1999/xlink" width="453.6pt" height="338.4pt" viewBox="0 0 453.6 338.4" xmlns="http://www.w3.org/2000/svg" version="1.1">
 <metadata>
  <rdf:RDF xmlns:dc="http://purl.org/dc/elements/1.1/" xmlns:cc="http://creativecommons.org/ns#" xmlns:rdf="http://www.w3.org/1999/02/22-rdf-syntax-ns#">
   <cc:Work>
    <dc:type rdf:resource="http://purl.org/dc/dcmitype/StillImage"/>
    <dc:date>2025-05-15T17:27:39.859921</dc:date>
    <dc:format>image/svg+xml</dc:format>
    <dc:creator>
     <cc:Agent>
      <dc:title>Matplotlib v3.10.1, https://matplotlib.org/</dc:title>
     </cc:Agent>
    </dc:creator>
   </cc:Work>
  </rdf:RDF>
 </metadata>
 <defs>
  <style type="text/css">*{stroke-linejoin: round; stroke-linecap: butt}</style>
 </defs>
 <g id="figure_1">
  <g id="patch_1">
   <path d="M 0 338.4 
L 453.6 338.4 
L 453.6 0 
L 0 0 
z
" style="fill: #ffffff"/>
  </g>
  <g id="axes_1">
   <g id="patch_2">
    <path d="M 7.2 331.2 
L 446.4 331.2 
L 446.4 7.2 
L 7.2 7.2 
z
" style="fill: #ffffff"/>
   </g>
   <g id="matplotlib.axis_1"/>
   <g id="matplotlib.axis_2"/>
   <g id="line2d_1">
    <path d="M 27.163636 212.426465 
L 27.719727 207.475906 
L 28.275817 203.893619 
L 28.831907 201.420042 
L 29.666042 198.991225 
L 30.778222 196.187994 
L 31.612358 193.267729 
L 32.724538 188.06309 
L 33.836718 182.809647 
L 34.392808 180.872171 
L 34.948898 179.69225 
L 35.226944 179.416829 
L 35.504989 179.349131 
L 35.783034 179.475106 
L 36.339124 180.210042 
L 38.007394 183.337445 
L 38.285439 183.497536 
L 38.563484 183.4383 
L 38.84153 183.128551 
L 39.119575 182.544125 
L 39.675665 180.498503 
L 40.231755 177.289298 
L 41.06589 170.620429 
L 43.290251 150.590138 
L 43.846341 147.646934 
L 44.124386 146.809015 
L 44.402431 146.454879 
L 44.680476 146.620717 
L 44.958521 147.332714 
L 45.236566 148.606146 
L 45.792656 152.840822 
L 46.348747 159.203721 
L 47.182882 171.975183 
L 49.407242 209.887799 
L 49.963332 216.293541 
L 50.519423 220.262642 
L 50.797468 221.228293 
L 51.075513 221.485566 
L 51.353558 221.029724 
L 51.631603 219.869548 
L 52.187693 215.531941 
L 52.743783 208.772914 
L 53.577918 195.071779 
L 54.968144 167.130375 
L 56.636414 134.286523 
L 57.748595 116.884576 
L 58.58273 107.360745 
L 59.13882 102.983222 
L 59.69491 100.321933 
L 59.972955 99.65693 
L 60.251 99.437285 
L 60.529045 99.657356 
L 60.80709 100.303678 
L 61.363181 102.779862 
L 61.919271 106.59526 
L 63.031451 116.565673 
L 64.143631 126.259228 
L 64.699721 129.844442 
L 65.255812 132.221901 
L 65.811902 133.351315 
L 66.089947 133.487988 
L 66.367992 133.381385 
L 66.924082 132.605255 
L 68.036262 130.065684 
L 68.870398 128.348918 
L 69.982578 126.334164 
L 70.538668 124.82528 
L 71.094758 122.480021 
L 71.650848 119.021367 
L 72.484984 111.734596 
L 73.875209 98.042402 
L 74.431299 94.668104 
L 74.709344 93.964516 
L 74.987389 94.07346 
L 75.265434 95.088075 
L 75.543479 97.075101 
L 76.09957 104.073465 
L 76.65566 114.936137 
L 77.489795 136.842114 
L 79.158065 184.357861 
L 79.714155 196.084744 
L 80.270246 204.069409 
L 80.548291 206.530053 
L 80.826336 207.960435 
L 81.104381 208.386154 
L 81.382426 207.85644 
L 81.660471 206.438459 
L 82.216561 201.272885 
L 82.772651 193.627241 
L 83.884832 173.868113 
L 86.109192 132.395722 
L 86.943327 120.743935 
L 87.499418 115.401985 
L 88.055508 112.583905 
L 88.333553 112.265108 
L 88.611598 112.736331 
L 88.889643 114.033233 
L 89.445733 119.180021 
L 90.001823 127.702436 
L 90.835958 146.132942 
L 91.948139 177.685054 
L 93.338364 217.35217 
L 94.172499 235.345036 
L 94.72859 243.43806 
L 95.28468 248.027458 
L 95.562725 248.990874 
L 95.84077 249.088322 
L 96.118815 248.353014 
L 96.39686 246.829601 
L 96.95295 241.644335 
L 97.50904 234.057447 
L 98.343175 219.534838 
L 100.289491 183.218229 
L 101.123626 172.362955 
L 101.679716 168.171015 
L 101.957761 167.112865 
L 102.235807 166.765009 
L 102.513852 167.117868 
L 102.791897 168.142701 
L 103.347987 171.996046 
L 104.182122 181.025183 
L 105.572347 197.058272 
L 106.128438 200.995015 
L 106.406483 202.040339 
L 106.684528 202.388461 
L 106.962573 202.004095 
L 107.240618 200.872925 
L 107.796708 196.420412 
L 108.352798 189.321992 
L 109.186933 174.960112 
L 111.689339 128.110911 
L 112.523474 117.824841 
L 113.079564 113.290634 
L 113.635655 110.623065 
L 113.9137 109.955986 
L 114.191745 109.70196 
L 114.46979 109.83017 
L 114.747835 110.302724 
L 115.303925 112.09927 
L 116.13806 116.076301 
L 116.972195 119.956682 
L 117.528286 121.496487 
L 117.806331 121.739071 
L 118.084376 121.551199 
L 118.362421 120.886249 
L 118.640466 119.712928 
L 119.196556 115.796888 
L 119.752646 109.90186 
L 120.586781 98.324476 
L 121.977007 78.5439 
L 122.533097 73.313289 
L 122.811142 71.718293 
L 123.089187 70.91039 
L 123.367232 70.94573 
L 123.645277 71.85768 
L 123.923322 73.656195 
L 124.479413 79.840589 
L 125.035503 89.142646 
L 125.869638 107.47597 
L 128.372044 166.406828 
L 129.206179 178.920166 
L 129.762269 184.027196 
L 130.040314 185.569449 
L 130.318359 186.442069 
L 130.596404 186.659373 
L 130.874449 186.244245 
L 131.152494 185.227129 
L 131.708584 181.546648 
L 132.264675 176.005649 
L 133.09881 165.292316 
L 134.76708 142.61963 
L 135.32317 136.96447 
L 135.879261 133.157695 
L 136.157306 132.067079 
L 136.435351 131.561528 
L 136.713396 131.658391 
L 136.991441 132.363736 
L 137.269486 133.669899 
L 137.825576 137.989517 
L 138.381666 144.306965 
L 139.215801 156.435031 
L 141.162117 185.963129 
L 141.996252 194.559043 
L 142.552342 198.169006 
L 143.108433 200.087003 
L 143.386478 200.459234 
L 143.664523 200.477436 
L 143.942568 200.174978 
L 144.498658 198.742095 
L 145.054748 196.411418 
L 145.888883 191.635 
L 146.723018 185.59771 
L 147.835199 175.748589 
L 151.17174 143.73627 
L 151.72783 140.499497 
L 152.28392 138.220924 
L 152.84001 136.791181 
L 153.3961 136.014786 
L 153.95219 135.663045 
L 154.786326 135.498164 
L 156.176551 135.477514 
L 156.732641 135.622596 
L 157.288731 135.93985 
L 158.400912 136.974423 
L 158.957002 137.403229 
L 159.235047 137.493599 
L 159.513092 137.456344 
L 159.791137 137.259531 
L 160.069182 136.875644 
L 160.625272 135.469478 
L 161.181362 133.179569 
L 162.015498 128.409963 
L 163.127678 121.625177 
L 163.683768 119.285559 
L 163.961813 118.622685 
L 164.239858 118.372171 
L 164.517903 118.573295 
L 164.795948 119.249475 
L 165.352038 122.025456 
L 165.908129 126.496755 
L 168.132489 147.288274 
L 168.410534 148.230561 
L 168.688579 148.416624 
L 168.966624 147.765086 
L 169.24467 146.216553 
L 169.80076 140.317 
L 170.35685 130.764908 
L 171.190985 110.726208 
L 173.693391 42.37828 
L 174.249481 32.402865 
L 174.805571 25.731228 
L 175.361661 22.404244 
L 175.639706 21.927273 
L 175.917751 22.177254 
L 176.195796 23.093569 
L 176.751887 26.659996 
L 177.307977 32.092956 
L 178.142112 42.721453 
L 179.254292 59.929194 
L 180.644518 84.902754 
L 183.424968 137.21706 
L 184.259104 148.476658 
L 184.815194 153.72744 
L 185.371284 157.025258 
L 185.649329 157.952803 
L 185.927374 158.423494 
L 186.205419 158.465326 
L 186.483464 158.111137 
L 186.761509 157.397755 
L 187.317599 155.0476 
L 188.151735 149.76068 
L 189.263915 140.592741 
L 190.932185 124.435273 
L 192.322411 111.386421 
L 193.156546 105.565051 
L 193.712636 103.0985 
L 193.990681 102.352919 
L 194.268726 101.940399 
L 194.546771 101.853702 
L 194.824816 102.074943 
L 195.102861 102.577301 
L 195.658952 104.265967 
L 197.605267 111.824008 
L 198.161357 112.757567 
L 198.439402 112.842775 
L 198.717447 112.657298 
L 198.995493 112.201029 
L 199.551583 110.516675 
L 200.107673 107.944266 
L 200.941808 102.954003 
L 202.888124 90.617627 
L 203.722259 86.572686 
L 204.556394 83.715754 
L 205.112484 82.54355 
L 205.668574 82.015007 
L 205.946619 82.010963 
L 206.224664 82.190905 
L 206.50271 82.562338 
L 207.0588 83.897772 
L 207.61489 86.018703 
L 208.449025 90.472599 
L 210.395341 102.15584 
L 210.951431 104.224986 
L 211.507521 105.250671 
L 211.785566 105.369409 
L 212.063611 105.253439 
L 212.619701 104.489284 
L 213.453836 102.960656 
L 213.731881 102.64915 
L 214.009927 102.562985 
L 214.287972 102.766717 
L 214.566017 103.312823 
L 214.844062 104.235524 
L 215.400152 107.243019 
L 216.234287 114.162509 
L 217.346467 124.222387 
L 217.902558 127.385927 
L 218.180603 128.066152 
L 218.458648 128.015432 
L 218.736693 127.165856 
L 219.014738 125.478575 
L 219.570828 119.594776 
L 220.126918 110.706622 
L 221.239099 87.672934 
L 222.073234 71.089108 
L 222.629324 62.955636 
L 223.185414 58.375498 
L 223.463459 57.601764 
L 223.741504 57.87 
L 224.019549 59.159026 
L 224.575639 64.55324 
L 225.13173 73.004125 
L 227.634135 116.574029 
L 228.190225 121.209091 
L 228.46827 122.454315 
L 228.746316 123.008564 
L 229.024361 122.920642 
L 229.302406 122.257502 
L 229.858496 119.54693 
L 230.692631 113.495909 
L 231.804811 105.661169 
L 232.360901 103.080458 
L 232.916992 101.75934 
L 233.195037 101.596163 
L 233.473082 101.763651 
L 233.751127 102.255471 
L 234.307217 104.185922 
L 234.863307 107.344566 
L 235.419397 111.721344 
L 236.253533 120.591083 
L 237.087668 132.091721 
L 240.146164 178.785462 
L 240.702254 183.799834 
L 241.258344 187.023035 
L 241.814434 188.617339 
L 242.092479 188.91043 
L 242.370524 188.942257 
L 242.648569 188.776099 
L 243.482704 187.7221 
L 244.038795 187.133577 
L 244.31684 187.015318 
L 244.594885 187.060716 
L 244.87293 187.296168 
L 245.150975 187.74126 
L 245.707065 189.315978 
L 246.263155 191.864225 
L 246.819245 195.436985 
L 247.653381 202.808379 
L 248.487516 212.664472 
L 249.599696 229.434413 
L 251.267967 259.456992 
L 252.936237 288.388476 
L 253.770372 300.092314 
L 254.604507 309.008728 
L 255.160598 313.13148 
L 255.716688 315.647102 
L 255.994733 316.274105 
L 256.272778 316.472727 
L 256.550823 316.241852 
L 256.828868 315.585631 
L 257.384958 313.037331 
L 257.941048 308.957583 
L 258.775184 300.412548 
L 259.887364 285.792916 
L 261.833679 256.106644 
L 264.05804 222.656493 
L 264.892175 213.132396 
L 265.448265 208.837685 
L 265.72631 207.487295 
L 266.004356 206.740491 
L 266.282401 206.642563 
L 266.560446 207.227681 
L 266.838491 208.518303 
L 267.394581 213.232825 
L 267.950671 220.659462 
L 268.784806 235.9648 
L 271.287212 287.462635 
L 271.843302 294.801457 
L 272.399392 299.48016 
L 272.677437 300.781533 
L 272.955482 301.399062 
L 273.233527 301.355155 
L 273.511573 300.683073 
L 273.789618 299.423799 
L 274.345708 295.336333 
L 274.901798 289.499103 
L 275.735933 278.309757 
L 276.848113 260.382248 
L 278.516384 229.700361 
L 280.740744 188.958968 
L 281.57488 177.719062 
L 282.13097 172.671906 
L 282.68706 170.00753 
L 282.965105 169.638332 
L 283.24315 169.924398 
L 283.521195 170.857691 
L 284.077285 174.560578 
L 284.633376 180.382374 
L 285.745556 195.809057 
L 286.857736 210.560732 
L 287.413826 215.465467 
L 287.691871 216.979141 
L 287.969916 217.782253 
L 288.247962 217.833027 
L 288.526007 217.109746 
L 288.804052 215.609432 
L 289.360142 210.367165 
L 289.916232 202.457596 
L 290.750367 186.933198 
L 292.974728 142.703507 
L 293.808863 131.775745 
L 294.364953 127.49599 
L 294.642998 126.361945 
L 294.921043 125.932075 
L 295.199088 126.226337 
L 295.477133 127.260112 
L 295.755179 129.044523 
L 296.311269 134.883296 
L 296.867359 143.714662 
L 297.701494 162.185829 
L 298.813674 194.311244 
L 300.75999 252.353037 
L 301.31608 264.015841 
L 301.87217 271.628115 
L 302.150215 273.711365 
L 302.42826 274.587019 
L 302.706305 274.244964 
L 302.98435 272.70436 
L 303.540441 266.247845 
L 304.096531 255.91973 
L 304.930666 235.533387 
L 306.598936 192.791131 
L 307.433072 177.350503 
L 307.989162 170.379761 
L 308.545252 166.016023 
L 308.823297 164.723964 
L 309.101342 163.96247 
L 309.379387 163.680822 
L 309.657432 163.829576 
L 309.935477 164.363494 
L 310.491567 166.442061 
L 311.047658 169.71082 
L 311.603748 174.095954 
L 312.437883 182.832533 
L 313.272018 194.286336 
L 314.384199 213.295786 
L 316.608559 253.401181 
L 317.442694 264.395417 
L 317.998785 269.620759 
L 318.554875 273.067491 
L 319.110965 274.789526 
L 319.38901 275.045149 
L 319.667055 274.927157 
L 319.9451 274.460458 
L 320.50119 272.589136 
L 321.05728 269.651361 
L 321.891416 263.740313 
L 324.949911 239.847576 
L 325.506002 237.546171 
L 325.784047 236.834014 
L 326.062092 236.431021 
L 326.340137 236.342034 
L 326.618182 236.5645 
L 326.896227 237.09001 
L 327.452317 238.981609 
L 328.008407 241.829492 
L 329.120587 249.334365 
L 330.788858 260.761824 
L 331.622993 264.719429 
L 332.179083 266.29766 
L 332.457128 266.7262 
L 332.735173 266.902576 
L 333.013219 266.820881 
L 333.291264 266.479625 
L 333.847354 265.027955 
L 334.403444 262.60265 
L 335.237579 257.392263 
L 336.349759 248.391812 
L 340.520436 210.449658 
L 342.188706 196.161969 
L 343.022841 190.570409 
L 343.578931 187.83328 
L 344.135022 185.985109 
L 344.691112 184.962618 
L 345.247202 184.547383 
L 346.081337 184.218527 
L 346.359382 183.937944 
L 346.637427 183.458045 
L 346.915472 182.710655 
L 347.471562 180.163314 
L 348.027653 175.875948 
L 348.583743 169.600332 
L 349.417878 156.449454 
L 350.530058 133.412094 
L 353.310509 72.399156 
L 354.422689 54.175682 
L 355.256825 43.915584 
L 355.812915 38.906694 
L 356.369005 35.561242 
L 356.64705 34.57377 
L 356.925095 34.074552 
L 357.20314 34.083494 
L 357.481185 34.614911 
L 357.75923 35.675456 
L 358.31532 39.369934 
L 358.87141 45.03148 
L 359.705546 56.500983 
L 362.764042 102.96353 
L 363.598177 111.409519 
L 364.710357 120.264835 
L 367.212763 139.443635 
L 368.046898 145.299759 
L 368.602988 148.251424 
L 369.159078 150.128494 
L 369.437123 150.622922 
L 369.715168 150.822609 
L 369.993213 150.744267 
L 370.271259 150.417434 
L 370.827349 149.193126 
L 371.939529 146.136561 
L 372.217574 145.636545 
L 372.495619 145.370543 
L 372.773664 145.391087 
L 373.051709 145.741072 
L 373.329754 146.451047 
L 373.885845 149.009618 
L 374.441935 153.042851 
L 375.27607 161.288036 
L 377.222385 182.092487 
L 377.778476 186.036202 
L 378.334566 188.417173 
L 378.612611 188.990954 
L 378.890656 189.165361 
L 379.168701 188.965302 
L 379.446746 188.429361 
L 380.002836 186.558731 
L 381.671107 179.595068 
L 381.949152 179.010908 
L 382.227197 178.758691 
L 382.505242 178.878866 
L 382.783287 179.397988 
L 383.061332 180.327822 
L 383.617422 183.39056 
L 384.173512 187.857336 
L 386.675918 211.032647 
L 387.232008 213.141337 
L 387.510053 213.416279 
L 387.788098 213.13974 
L 388.066143 212.307143 
L 388.622233 209.031092 
L 389.178324 203.858971 
L 390.012459 193.678972 
L 391.402684 176.329129 
L 391.958774 171.492038 
L 392.514865 168.769172 
L 392.79291 168.306357 
L 393.070955 168.464319 
L 393.349 169.236776 
L 393.90509 172.5099 
L 394.46118 177.739765 
L 395.57336 191.621268 
L 396.685541 205.537525 
L 397.519676 213.441293 
L 398.075766 217.029009 
L 398.631856 219.249624 
L 398.909901 219.877957 
L 399.187946 220.208356 
L 399.465991 220.258917 
L 399.744036 220.04619 
L 400.022082 219.583642 
L 400.578172 217.940055 
L 401.134262 215.342047 
L 401.690352 211.733255 
L 402.524487 204.221942 
L 403.358622 194.038856 
L 404.470803 176.966616 
L 406.139073 150.685511 
L 406.695163 144.248048 
L 407.251253 139.997352 
L 407.529299 138.825095 
L 407.807344 138.32923 
L 408.085389 138.519976 
L 408.363434 139.388551 
L 408.919524 143.032682 
L 409.475614 148.834466 
L 410.587794 164.101857 
L 411.699975 178.658209 
L 412.256065 183.79366 
L 412.812155 186.874814 
L 413.0902 187.589153 
L 413.368245 187.755843 
L 413.64629 187.396597 
L 413.924335 186.545532 
L 414.480425 183.557303 
L 415.314561 176.725949 
L 418.373056 148.38517 
L 419.207192 142.916659 
L 420.041327 138.841753 
L 420.597417 136.927322 
L 421.153507 135.617487 
L 421.709597 134.792926 
L 422.821778 133.590066 
L 423.377868 132.463367 
L 423.933958 130.407207 
L 424.490048 127.030354 
L 425.046138 122.065 
L 425.880273 111.521763 
L 426.436364 102.717434 
L 426.436364 102.717434 
" clip-path="url(#pe0d0372966)" style="fill: none; stroke-dasharray: 11.1,4.8; stroke-dashoffset: 0; stroke: #000000; stroke-width: 3"/>
   </g>
   <g id="line2d_2">
    <path d="M 27.163636 195.497072 
L 28.553862 194.257596 
L 29.944087 192.749352 
L 31.334312 190.930453 
L 32.724538 188.746135 
L 34.114763 186.143018 
L 35.504989 183.05271 
L 37.173259 179.173287 
L 37.451304 178.839162 
L 39.39762 178.69094 
L 40.787845 178.302689 
L 42.17807 177.651152 
L 43.568296 176.72696 
L 44.958521 175.512817 
L 46.348747 174.000581 
L 47.738972 172.175775 
L 49.129197 170.019984 
L 50.797468 166.930315 
L 52.465738 163.30247 
L 54.412054 158.96944 
L 56.358369 156.303202 
L 59.69491 156.021447 
L 63.309496 155.935334 
L 65.255812 156.029856 
L 68.592352 156.247266 
L 71.372803 156.305916 
L 74.153254 157.806284 
L 74.431299 157.969461 
L 74.709344 158.345098 
L 76.377615 161.68246 
L 77.76784 163.913932 
L 79.158065 165.670455 
L 80.270246 166.756015 
L 81.938516 167.991126 
L 83.328741 168.671723 
L 84.718967 169.052576 
L 86.109192 169.165832 
L 87.499418 169.043422 
L 89.167688 168.851293 
L 101.123626 168.108214 
L 106.128438 168.095813 
L 114.747835 168.538723 
L 123.089187 168.315937 
L 126.425728 167.616394 
L 129.484224 167.206535 
L 133.09881 166.974808 
L 135.601215 166.658992 
L 138.659711 166.055992 
L 139.771892 165.662685 
L 142.830387 164.605386 
L 145.332793 163.972263 
L 147.557154 163.632603 
L 149.225424 163.55788 
L 153.95219 163.92298 
L 155.898506 164.020056 
L 158.400912 163.473684 
L 161.459407 163.052542 
L 164.795948 162.81065 
L 168.966624 162.73763 
L 172.58121 162.672647 
L 176.195796 162.071935 
L 180.366473 161.610345 
L 185.649329 161.2354 
L 189.820005 161.11597 
L 193.712636 160.783868 
L 199.829628 160.531385 
L 216.234287 160.254314 
L 221.239099 160.436598 
L 234.029172 161.26696 
L 242.926614 161.52865 
L 265.72631 161.417045 
L 275.735933 161.502146 
L 280.740744 161.532695 
L 289.916232 161.080418 
L 293.808863 161.032838 
L 309.379387 161.065783 
L 317.998785 161.018522 
L 336.90585 161.177228 
L 341.076526 161.479154 
L 346.915472 161.969218 
L 351.364193 161.885341 
L 364.988402 161.362705 
L 368.324943 161.320341 
L 371.661484 161.542168 
L 374.71998 161.97784 
L 377.50043 162.616817 
L 380.002836 163.427381 
L 382.505242 164.484307 
L 384.451557 165.369541 
L 386.397873 165.816389 
L 389.178324 166.243278 
L 392.514865 166.527535 
L 398.075766 166.725412 
L 401.968397 166.751278 
L 409.753659 165.542191 
L 412.53411 165.35863 
L 415.036516 165.415311 
L 418.095011 165.589771 
L 418.373056 165.812716 
L 419.485237 167.605696 
L 425.046138 177.373601 
L 426.436364 179.805186 
L 426.436364 179.805186 
" clip-path="url(#pe0d0372966)" style="fill: none; stroke: #ff00ff; stroke-width: 3; stroke-linecap: square"/>
   </g>
   <g id="patch_3">
    <path d="M 7.2 331.2 
L 7.2 7.2 
" style="fill: none; stroke: #000000; stroke-width: 0.8; stroke-linejoin: miter; stroke-linecap: square"/>
   </g>
   <g id="patch_4">
    <path d="M 446.4 331.2 
L 446.4 7.2 
" style="fill: none; stroke: #000000; stroke-width: 0.8; stroke-linejoin: miter; stroke-linecap: square"/>
   </g>
   <g id="patch_5">
    <path d="M 7.2 331.2 
L 446.4 331.2 
" style="fill: none; stroke: #000000; stroke-width: 0.8; stroke-linejoin: miter; stroke-linecap: square"/>
   </g>
   <g id="patch_6">
    <path d="M 7.2 7.2 
L 446.4 7.2 
" style="fill: none; stroke: #000000; stroke-width: 0.8; stroke-linejoin: miter; stroke-linecap: square"/>
   </g>
  </g>
 </g>
 <defs>
  <clipPath id="pe0d0372966">
   <rect x="7.2" y="7.2" width="439.2" height="324"/>
  </clipPath>
 </defs>
</svg>
