<?xml version="1.0" encoding="utf-8" standalone="no"?>
<!DOCTYPE svg PUBLIC "-//W3C//DTD SVG 1.1//EN"
  "http://www.w3.org/Graphics/SVG/1.1/DTD/svg11.dtd">
<svg xmlns:xlink="http://www.w3.org/1999/xlink" width="453.6pt" height="338.4pt" viewBox="0 0 453.6 338.4" xmlns="http://www.w3.org/2000/svg" version="1.1">
 <metadata>
  <rdf:RDF xmlns:dc="http://purl.org/dc/elements/1.1/" xmlns:cc="http://creativecommons.org/ns#" xmlns:rdf="http://www.w3.org/1999/02/22-rdf-syntax-ns#">
   <cc:Work>
    <dc:type rdf:resource="http://purl.org/dc/dcmitype/StillImage"/>
    <dc:date>2025-05-15T18:07:49.956260</dc:date>
    <dc:format>image/svg+xml</dc:format>
    <dc:creator>
     <cc:Agent>
      <dc:title>Matplotlib v3.10.1, https://matplotlib.org/</dc:title>
     </cc:Agent>
    </dc:creator>
   </cc:Work>
  </rdf:RDF>
 </metadata>
 <defs>
  <style type="text/css">*{stroke-linejoin: round; stroke-linecap: butt}</style>
 </defs>
 <g id="figure_1">
  <g id="patch_1">
   <path d="M 0 338.4 
L 453.6 338.4 
L 453.6 0 
L 0 0 
z
" style="fill: #ffffff"/>
  </g>
  <g id="axes_1">
   <g id="patch_2">
    <path d="M 7.2 331.2 
L 446.4 331.2 
L 446.4 7.2 
L 7.2 7.2 
z
" style="fill: #ffffff"/>
   </g>
   <g id="matplotlib.axis_1"/>
   <g id="matplotlib.axis_2"/>
   <g id="line2d_1">
    <path d="M 27.163636 209.010305 
L 27.441681 209.070126 
L 27.719727 208.878794 
L 27.997772 208.418977 
L 28.553862 206.624171 
L 29.109952 203.588395 
L 29.666042 199.326439 
L 30.500177 191.057446 
L 32.446493 170.149546 
L 33.002583 165.846044 
L 33.558673 162.930381 
L 33.836718 162.044942 
L 34.114763 161.552247 
L 34.392808 161.44928 
L 34.670853 161.726527 
L 34.948898 162.367031 
L 35.504989 164.64351 
L 36.061079 168.04405 
L 36.895214 174.616588 
L 39.119575 193.144007 
L 39.675665 196.354723 
L 40.231755 198.475197 
L 40.5098 199.060308 
L 40.787845 199.296764 
L 41.06589 199.163275 
L 41.343935 198.63968 
L 41.62198 197.709682 
L 42.17807 194.567925 
L 42.734161 189.649732 
L 43.290251 182.927878 
L 44.124386 169.634241 
L 45.236566 147.293001 
L 46.904837 112.934046 
L 47.460927 104.35003 
L 48.017017 98.486389 
L 48.295062 96.751216 
L 48.573107 95.874633 
L 48.851152 95.877647 
L 49.129197 96.760165 
L 49.407242 98.500237 
L 49.963332 104.360581 
L 50.519423 112.892312 
L 51.631603 134.711935 
L 53.021828 162.285826 
L 53.855964 175.635798 
L 54.690099 185.9873 
L 55.524234 193.59073 
L 56.080324 197.148782 
L 56.636414 199.265488 
L 56.914459 199.657195 
L 57.192504 199.513343 
L 57.47055 198.757625 
L 57.748595 197.30912 
L 58.304685 192.031438 
L 58.860775 183.171682 
L 59.416865 170.492642 
L 60.251 144.803712 
L 63.031451 46.163646 
L 63.587541 35.22157 
L 63.865586 31.81208 
L 64.143631 29.845067 
L 64.421676 29.325994 
L 64.699721 30.224338 
L 64.977767 32.478585 
L 65.533857 40.651205 
L 66.089947 52.819933 
L 67.202127 84.029689 
L 68.870398 130.5797 
L 69.704533 148.5384 
L 70.538668 162.045225 
L 71.094758 168.619929 
L 71.650848 173.260498 
L 72.206938 175.886856 
L 72.484984 176.397074 
L 72.763029 176.339326 
L 73.041074 175.69072 
L 73.319119 174.430343 
L 73.875209 170.024158 
L 74.431299 163.135184 
L 75.265434 148.748196 
L 77.76784 100.470642 
L 78.32393 95.122683 
L 78.601975 93.822552 
L 78.88002 93.507245 
L 79.158065 94.199657 
L 79.43611 95.896206 
L 79.992201 102.167662 
L 80.548291 111.827318 
L 81.382426 130.842439 
L 83.328741 177.863761 
L 84.162877 191.636999 
L 84.718967 197.382506 
L 85.275057 200.313243 
L 85.553102 200.776734 
L 85.831147 200.623179 
L 86.109192 199.899209 
L 86.665282 196.947841 
L 87.221372 192.352585 
L 88.055508 183.264004 
L 89.723778 161.306087 
L 91.114004 144.193919 
L 91.670094 139.159948 
L 92.226184 135.915318 
L 92.504229 135.124179 
L 92.782274 134.966761 
L 93.060319 135.494219 
L 93.338364 136.748284 
L 93.894454 141.547966 
L 94.450544 149.457658 
L 95.006635 160.332284 
L 95.84077 181.301607 
L 98.899266 266.904463 
L 99.455356 276.839576 
L 100.011446 283.502739 
L 100.289491 285.509036 
L 100.567536 286.598241 
L 100.845581 286.754623 
L 101.123626 285.972057 
L 101.401671 284.248942 
L 101.957761 278.013849 
L 102.513852 268.171905 
L 103.347987 247.159342 
L 104.182122 219.807117 
L 106.128438 144.307249 
L 107.240618 106.883501 
L 107.796708 93.479361 
L 108.352798 84.906084 
L 108.630843 82.640062 
L 108.908888 81.787501 
L 109.186933 82.367337 
L 109.464978 84.372786 
L 110.021069 92.510362 
L 110.577159 105.666176 
L 111.411294 132.882556 
L 112.801519 188.855673 
L 114.191745 243.492953 
L 115.303925 278.349315 
L 116.13806 297.405039 
L 116.69415 306.484671 
L 117.250241 312.63724 
L 117.806331 315.89958 
L 118.084376 316.472727 
L 118.362421 316.360623 
L 118.640466 315.584368 
L 118.918511 314.168364 
L 119.474601 309.544563 
L 120.030691 302.797934 
L 120.864827 289.60114 
L 123.645277 240.927828 
L 124.479413 231.566616 
L 125.035503 227.577762 
L 125.591593 225.347444 
L 125.869638 224.833741 
L 126.147683 224.674156 
L 126.425728 224.828277 
L 126.703773 225.250789 
L 127.259863 226.712483 
L 128.372044 230.839066 
L 129.484224 234.637908 
L 130.040314 235.936626 
L 130.596404 236.693945 
L 130.874449 236.848537 
L 131.152494 236.844769 
L 131.430539 236.677365 
L 131.98663 235.835355 
L 132.54272 234.306492 
L 133.09881 232.107639 
L 133.932945 227.725947 
L 136.435351 213.268588 
L 136.991441 211.523052 
L 137.269486 211.015849 
L 137.547531 210.764979 
L 137.825576 210.770914 
L 138.103621 211.02574 
L 138.659711 212.208869 
L 139.215801 214.097409 
L 140.884072 220.568958 
L 141.440162 221.699896 
L 141.718207 221.871445 
L 141.996252 221.734564 
L 142.274297 221.262782 
L 142.552342 220.437447 
L 143.108433 217.686831 
L 143.664523 213.490065 
L 144.498658 204.813822 
L 145.888883 186.568172 
L 147.279109 168.88785 
L 148.113244 160.683388 
L 148.947379 154.879568 
L 149.503469 152.314726 
L 150.059559 150.676679 
L 150.61565 149.845503 
L 150.893695 149.70052 
L 151.17174 149.723789 
L 151.449785 149.9122 
L 152.005875 150.787653 
L 152.561965 152.369554 
L 153.118055 154.746644 
L 153.674145 158.016144 
L 154.508281 164.730179 
L 155.342416 173.510708 
L 158.122867 205.73732 
L 158.678957 209.467391 
L 159.235047 211.381743 
L 159.513092 211.606706 
L 159.791137 211.341989 
L 160.069182 210.599743 
L 160.625272 207.803626 
L 161.181362 203.568329 
L 163.961813 179.439727 
L 164.517903 177.190568 
L 164.795948 176.536686 
L 165.073993 176.174183 
L 165.352038 176.072535 
L 165.630084 176.195285 
L 166.186174 176.942713 
L 168.132489 180.531005 
L 168.688579 181.035287 
L 170.078805 181.999105 
L 170.634895 183.005598 
L 171.190985 184.835448 
L 171.747075 187.73293 
L 172.303165 191.827295 
L 173.137301 200.142448 
L 174.527526 217.698419 
L 175.639706 231.222389 
L 176.473841 238.689597 
L 177.029932 241.82542 
L 177.586022 243.379059 
L 177.864067 243.585652 
L 178.142112 243.444061 
L 178.420157 242.987352 
L 178.976247 241.294759 
L 179.810382 237.497425 
L 181.478653 229.539971 
L 182.312788 226.86698 
L 182.868878 225.801703 
L 183.146923 225.504296 
L 183.424968 225.372973 
L 183.703013 225.417627 
L 183.981058 225.649938 
L 184.259104 226.08319 
L 184.815194 227.612147 
L 185.371284 230.128096 
L 185.927374 233.731744 
L 186.761509 241.234468 
L 187.87369 254.505967 
L 189.820005 278.716434 
L 190.376095 283.422193 
L 190.932185 286.22547 
L 191.21023 286.785616 
L 191.488276 286.729093 
L 191.766321 286.021797 
L 192.044366 284.638011 
L 192.600456 279.772479 
L 193.156546 272.078989 
L 193.712636 261.637897 
L 194.546771 241.348645 
L 195.658952 207.99816 
L 197.605267 148.287719 
L 198.439402 129.738538 
L 198.995493 121.740481 
L 199.273538 119.273801 
L 199.551583 117.89708 
L 199.829628 117.641783 
L 200.107673 118.523736 
L 200.385718 120.54228 
L 200.941808 127.903036 
L 201.497898 139.387172 
L 202.332033 163.02176 
L 203.722259 212.238732 
L 205.112484 259.983929 
L 205.946619 281.816647 
L 206.50271 292.115205 
L 207.0588 298.566971 
L 207.336845 300.301202 
L 207.61489 301.041564 
L 207.892935 300.805485 
L 208.17098 299.621697 
L 208.449025 297.53118 
L 209.005115 290.839849 
L 209.561205 281.242087 
L 210.395341 262.773735 
L 213.453836 189.582186 
L 214.287972 177.406958 
L 214.844062 172.484714 
L 215.122107 171.027353 
L 215.400152 170.237816 
L 215.678197 170.104892 
L 215.956242 170.607385 
L 216.234287 171.717504 
L 216.790377 175.616015 
L 217.346467 181.448662 
L 218.180603 192.887296 
L 220.961053 234.923445 
L 221.517144 240.553079 
L 222.073234 244.248011 
L 222.351279 245.248004 
L 222.629324 245.621812 
L 222.907369 245.329303 
L 223.185414 244.332985 
L 223.463459 242.601674 
L 224.019549 236.84524 
L 224.575639 227.970693 
L 225.409775 209.045821 
L 226.521955 175.432597 
L 228.746316 104.035383 
L 229.580451 86.237963 
L 230.136541 79.299248 
L 230.414586 77.45084 
L 230.692631 76.696912 
L 230.970676 77.023429 
L 231.248721 78.39478 
L 231.804811 84.041653 
L 232.360901 93.019449 
L 233.195037 110.945836 
L 235.697442 169.49444 
L 236.531578 182.706024 
L 237.087668 188.33773 
L 237.365713 190.065555 
L 237.643758 191.013547 
L 237.921803 191.141949 
L 238.199848 190.416848 
L 238.477893 188.805838 
L 239.033983 182.834332 
L 239.590073 173.132849 
L 240.146164 159.803413 
L 240.980299 133.891028 
L 243.76075 37.815616 
L 244.31684 27.148713 
L 244.594885 23.895322 
L 244.87293 22.140366 
L 245.150975 21.927273 
L 245.42902 23.263862 
L 245.707065 26.123474 
L 246.263155 36.12877 
L 246.819245 51.065542 
L 247.931426 90.274109 
L 249.321651 140.43097 
L 250.155786 163.076964 
L 250.711876 173.479055 
L 251.267967 179.914806 
L 251.546012 181.692466 
L 251.824057 182.565846 
L 252.102102 182.59147 
L 252.380147 181.831702 
L 252.658192 180.354558 
L 253.214282 175.522657 
L 254.048417 164.586892 
L 255.160598 145.690564 
L 257.106913 111.480735 
L 257.941048 101.221178 
L 258.497139 97.360349 
L 258.775184 96.520224 
L 259.053229 96.473215 
L 259.331274 97.252955 
L 259.609319 98.878096 
L 260.165409 104.65714 
L 260.721499 113.617036 
L 261.555634 131.915536 
L 264.336085 200.06567 
L 264.892175 208.670883 
L 265.448265 214.466883 
L 266.004356 217.46639 
L 266.282401 217.980564 
L 266.560446 217.8922 
L 266.838491 217.250659 
L 267.394581 214.52303 
L 267.950671 210.230833 
L 268.784806 201.713798 
L 270.175032 184.336252 
L 272.399392 155.563878 
L 273.233527 147.842691 
L 273.789618 144.882374 
L 274.067663 144.246674 
L 274.345708 144.246486 
L 274.623753 144.926651 
L 274.901798 146.320234 
L 275.457888 151.312567 
L 276.013978 159.191831 
L 276.848113 175.682242 
L 279.628564 238.742258 
L 280.184654 246.135421 
L 280.740744 250.49309 
L 281.01879 251.534533 
L 281.296835 251.857093 
L 281.57488 251.508909 
L 281.852925 250.550085 
L 282.409015 247.075405 
L 283.24315 238.996613 
L 284.35533 224.925497 
L 285.467511 207.691521 
L 286.579691 186.372978 
L 288.804052 139.691173 
L 289.360142 131.938616 
L 289.916232 127.640579 
L 290.194277 126.958248 
L 290.472322 127.285612 
L 290.750367 128.604962 
L 291.306457 133.983537 
L 291.862547 142.331003 
L 294.364953 186.089513 
L 294.921043 192.097571 
L 295.477133 196.44874 
L 296.311269 201.114367 
L 297.423449 207.238486 
L 298.257584 213.404338 
L 299.925855 227.05737 
L 300.481945 230.150235 
L 301.038035 231.782724 
L 301.31608 231.995534 
L 301.594125 231.806558 
L 301.87217 231.23407 
L 302.42826 229.072711 
L 303.262396 224.000492 
L 305.486756 209.066452 
L 306.320891 205.236051 
L 307.155027 202.629853 
L 307.711117 201.47932 
L 308.267207 200.702689 
L 309.101342 200.010089 
L 310.213522 199.258611 
L 310.769613 198.599266 
L 311.325703 197.541619 
L 311.881793 195.960378 
L 312.437883 193.7798 
L 313.272018 189.349122 
L 314.106153 183.636681 
L 315.218334 174.401987 
L 316.886604 158.127213 
L 318.554875 142.094735 
L 319.110965 138.212804 
L 319.667055 135.820924 
L 319.9451 135.328134 
L 320.223145 135.369962 
L 320.50119 135.984465 
L 320.779235 137.197739 
L 321.335325 141.454797 
L 321.891416 148.04627 
L 322.725551 161.464164 
L 324.949911 201.066793 
L 325.506002 207.86062 
L 326.062092 212.472739 
L 326.618182 214.80998 
L 326.896227 215.145823 
L 327.174272 214.951854 
L 327.452317 214.252 
L 328.008407 211.420745 
L 328.564497 206.786205 
L 329.120587 200.372686 
L 329.954723 187.164588 
L 330.788858 169.056666 
L 331.622993 145.658722 
L 332.735173 107.69772 
L 334.403444 50.803179 
L 334.959534 37.134415 
L 335.515624 28.28634 
L 335.793669 25.962099 
L 336.071714 25.137612 
L 336.349759 25.84764 
L 336.627805 28.09303 
L 337.183895 37.018353 
L 337.739985 51.242554 
L 338.57412 79.931651 
L 340.520436 153.408359 
L 341.354571 175.40132 
L 341.910661 184.354905 
L 342.188706 186.971937 
L 342.466751 188.34131 
L 342.744796 188.484408 
L 343.022841 187.441646 
L 343.300886 185.269924 
L 343.856976 177.83126 
L 344.413067 166.836334 
L 345.247202 145.314307 
L 346.915472 93.408895 
L 348.305698 52.838586 
L 349.139833 35.118886 
L 349.695923 27.774804 
L 349.973968 25.723665 
L 350.252013 24.85622 
L 350.530058 25.231817 
L 350.808103 26.891909 
L 351.086148 29.858538 
L 351.642239 39.686068 
L 352.198329 54.42482 
L 353.032464 84.163273 
L 356.09096 206.40439 
L 356.64705 219.700382 
L 357.20314 228.283927 
L 357.481185 230.785181 
L 357.75923 232.12469 
L 358.037275 232.350972 
L 358.31532 231.531101 
L 358.593365 229.744868 
L 359.149456 223.647409 
L 359.983591 209.761689 
L 363.042087 151.583125 
L 363.598177 145.410962 
L 364.154267 141.807691 
L 364.432312 141.080706 
L 364.710357 141.120178 
L 364.988402 141.954746 
L 365.266447 143.607489 
L 365.822537 149.409519 
L 366.378628 158.506485 
L 367.212763 177.806578 
L 368.324943 211.33059 
L 370.271259 272.40136 
L 371.105394 291.259347 
L 371.661484 299.482367 
L 372.217574 303.718794 
L 372.495619 304.276303 
L 372.773664 303.786339 
L 373.051709 302.259831 
L 373.607799 296.201374 
L 374.16389 286.411809 
L 374.998025 265.771828 
L 376.110205 230.380379 
L 378.334566 155.215035 
L 379.168701 133.874542 
L 379.724791 123.771083 
L 380.280881 117.640558 
L 380.558926 116.194031 
L 380.836971 115.869304 
L 381.115016 116.680509 
L 381.393062 118.626232 
L 381.949152 125.840121 
L 382.505242 137.185775 
L 383.339377 160.659271 
L 384.729602 209.826691 
L 386.119828 258.086911 
L 386.953963 280.810813 
L 387.510053 292.09269 
L 388.066143 299.921271 
L 388.622233 304.218555 
L 388.900279 305.070173 
L 389.178324 305.093442 
L 389.456369 304.326891 
L 389.734414 302.81621 
L 390.290504 297.786572 
L 390.846594 290.496941 
L 391.680729 276.540661 
L 394.739225 221.636967 
L 395.57336 211.265117 
L 396.407496 203.85349 
L 396.963586 200.529256 
L 397.519676 198.438645 
L 397.797721 197.837802 
L 398.075766 197.524474 
L 398.353811 197.492821 
L 398.631856 197.736625 
L 398.909901 198.249009 
L 399.465991 200.052858 
L 400.022082 202.825895 
L 400.856217 208.51403 
L 403.636668 229.962765 
L 404.192758 232.142212 
L 404.470803 232.720918 
L 404.748848 232.93109 
L 405.026893 232.761426 
L 405.304938 232.208251 
L 405.861028 229.972657 
L 406.417118 226.33698 
L 407.251253 218.732419 
L 408.641479 202.71737 
L 410.587794 180.285693 
L 411.699975 169.835181 
L 412.53411 163.516528 
L 413.368245 158.647228 
L 413.924335 156.306783 
L 414.480425 154.789979 
L 414.75847 154.371612 
L 415.036516 154.196389 
L 415.314561 154.276747 
L 415.592606 154.622858 
L 415.870651 155.243296 
L 416.426741 157.326654 
L 416.982831 160.532 
L 417.816966 167.279477 
L 418.929147 178.937517 
L 420.597417 197.120803 
L 421.431552 203.866773 
L 421.987642 206.787053 
L 422.543733 208.248465 
L 422.821778 208.416904 
L 423.099823 208.219543 
L 423.377868 207.672491 
L 423.933958 205.634447 
L 424.490048 202.573706 
L 425.602228 194.805605 
L 426.436364 188.982285 
L 426.436364 188.982285 
" clip-path="url(#p82c4658d19)" style="fill: none; stroke-dasharray: 11.1,4.8; stroke-dashoffset: 0; stroke: #000000; stroke-width: 3"/>
   </g>
   <g id="line2d_2">
    <path d="M 27.163636 171.280578 
L 30.222132 175.825999 
L 31.890403 177.959662 
L 33.280628 179.424466 
L 34.392808 180.32818 
L 35.504989 180.949278 
L 36.339124 181.219177 
L 37.173259 181.452807 
L 38.84153 183.028301 
L 40.231755 184.075491 
L 41.62198 184.876522 
L 43.012206 185.423856 
L 44.402431 185.712408 
L 45.792656 185.737938 
L 47.182882 185.494416 
L 48.573107 184.98109 
L 49.963332 184.195321 
L 51.353558 183.136826 
L 52.743783 181.80881 
L 54.134009 180.18169 
L 54.968144 179.300397 
L 55.524234 179.168697 
L 60.529045 176.203952 
L 62.753406 175.139994 
L 64.699721 174.452387 
L 66.367992 174.09808 
L 67.758217 174.001613 
L 70.260623 173.957902 
L 72.484984 173.515512 
L 74.153254 173.147357 
L 77.76784 172.476142 
L 80.270246 171.792397 
L 82.494606 170.959149 
L 84.440922 170.009556 
L 85.275057 169.530426 
L 86.387237 169.630661 
L 91.114004 170.194293 
L 99.455356 170.429713 
L 102.513852 170.436778 
L 104.460167 171.095935 
L 106.684528 171.863523 
L 108.908888 171.992113 
L 111.967384 172.654944 
L 115.303925 173.335297 
L 117.250241 173.505809 
L 118.918511 173.419423 
L 119.196556 173.379291 
L 120.308736 174.293745 
L 122.255052 176.197075 
L 124.201367 178.131776 
L 126.147683 179.888899 
L 128.650089 182.734945 
L 130.596404 184.634225 
L 132.264675 185.979198 
L 133.6549 186.86247 
L 135.045125 187.499771 
L 136.157306 187.813287 
L 136.713396 187.747438 
L 140.884072 185.722771 
L 143.108433 183.671255 
L 145.888883 183.89179 
L 151.72783 184.66616 
L 153.3961 184.850898 
L 153.95219 184.613028 
L 157.010686 182.534476 
L 159.791137 180.354746 
L 163.405723 177.323492 
L 166.464219 174.480837 
L 169.522715 171.319862 
L 171.190985 169.624067 
L 173.137301 168.316493 
L 175.917751 166.808543 
L 176.751887 166.551362 
L 177.864067 166.436431 
L 179.254292 166.543166 
L 180.644518 166.902278 
L 182.034743 167.486447 
L 183.703013 168.446402 
L 185.649329 169.864574 
L 188.42978 172.00728 
L 189.820005 172.61566 
L 191.21023 173.442503 
L 193.434591 174.917763 
L 194.546771 175.427039 
L 195.936997 176.323122 
L 197.327222 177.48383 
L 198.995493 179.191778 
L 200.663763 181.205705 
L 202.610079 183.891131 
L 205.112484 187.563172 
L 207.0588 188.084317 
L 208.72707 188.309186 
L 209.83925 188.260293 
L 211.785566 187.541598 
L 213.731881 186.53162 
L 216.512332 184.768279 
L 220.404963 182.274374 
L 222.351279 181.072216 
L 224.019549 179.545897 
L 225.409775 178.57963 
L 226.521955 178.038136 
L 229.580451 177.03315 
L 230.970676 176.946952 
L 232.360901 177.11379 
L 233.751127 177.521041 
L 235.141352 178.156835 
L 236.809623 179.202234 
L 238.477893 180.533171 
L 240.702254 182.438292 
L 244.87293 184.925226 
L 247.09729 185.807744 
L 250.155786 187.285359 
L 256.828868 190.600361 
L 258.775184 191.344868 
L 260.165409 191.456784 
L 262.111724 191.456972 
L 264.892175 191.293243 
L 269.062851 191.300403 
L 274.623753 191.297105 
L 277.404204 191.082411 
L 278.516384 190.706248 
L 282.68706 189.191233 
L 293.252773 185.535772 
L 296.033224 184.30394 
L 297.979539 183.321846 
L 300.481945 182.307628 
L 307.155027 179.762946 
L 309.101342 178.735446 
L 310.769613 177.640494 
L 312.437883 176.294672 
L 314.662244 174.398878 
L 317.720739 172.163002 
L 319.110965 171.531636 
L 320.50119 171.163386 
L 321.891416 171.061173 
L 323.281641 171.228954 
L 324.671866 171.671155 
L 326.062092 172.3939 
L 327.452317 173.401147 
L 328.842542 174.697604 
L 329.954723 175.756664 
L 330.788858 176.203481 
L 332.457128 177.371537 
L 332.735173 177.595652 
L 333.291264 177.337905 
L 339.13021 173.980511 
L 341.354571 172.953105 
L 343.300886 172.278498 
L 344.969157 171.914865 
L 347.193517 171.706764 
L 348.861788 171.672191 
L 350.530058 171.914299 
L 352.754419 172.367711 
L 354.422689 172.936148 
L 356.09096 173.749519 
L 357.481185 174.647958 
L 358.87141 175.778143 
L 360.261636 177.172386 
L 361.651861 178.86658 
L 363.042087 180.899914 
L 364.710357 183.523164 
L 365.822537 184.87379 
L 366.656673 186.275663 
L 367.490808 188.044374 
L 368.046898 189.264242 
L 376.110205 200.656716 
L 378.334566 204.342511 
L 380.280881 207.96321 
L 381.115016 209.550198 
L 383.061332 211.986167 
L 384.729602 214.107583 
L 385.285693 214.737065 
L 386.953963 215.269044 
L 388.622233 215.525283 
L 390.290504 215.521044 
L 391.958774 215.271964 
L 393.627045 214.793777 
L 395.295315 214.102496 
L 397.241631 213.048618 
L 398.631856 212.146128 
L 401.968397 208.977051 
L 403.080577 208.037538 
L 405.026893 206.364258 
L 406.973208 204.998842 
L 408.641479 204.071387 
L 410.309749 203.3672 
L 411.97802 202.88336 
L 413.64629 202.619961 
L 415.314561 202.575591 
L 417.260876 202.628157 
L 417.816966 202.354961 
L 419.207192 201.923593 
L 419.485237 201.642672 
L 425.046138 191.853861 
L 426.436364 189.647753 
L 426.436364 189.647753 
" clip-path="url(#p82c4658d19)" style="fill: none; stroke: #ff00ff; stroke-width: 3; stroke-linecap: square"/>
   </g>
   <g id="patch_3">
    <path d="M 7.2 331.2 
L 7.2 7.2 
" style="fill: none; stroke: #000000; stroke-width: 0.8; stroke-linejoin: miter; stroke-linecap: square"/>
   </g>
   <g id="patch_4">
    <path d="M 446.4 331.2 
L 446.4 7.2 
" style="fill: none; stroke: #000000; stroke-width: 0.8; stroke-linejoin: miter; stroke-linecap: square"/>
   </g>
   <g id="patch_5">
    <path d="M 7.2 331.2 
L 446.4 331.2 
" style="fill: none; stroke: #000000; stroke-width: 0.8; stroke-linejoin: miter; stroke-linecap: square"/>
   </g>
   <g id="patch_6">
    <path d="M 7.2 7.2 
L 446.4 7.2 
" style="fill: none; stroke: #000000; stroke-width: 0.8; stroke-linejoin: miter; stroke-linecap: square"/>
   </g>
  </g>
 </g>
 <defs>
  <clipPath id="p82c4658d19">
   <rect x="7.2" y="7.2" width="439.2" height="324"/>
  </clipPath>
 </defs>
</svg>
