<?xml version="1.0" encoding="utf-8" standalone="no"?>
<!DOCTYPE svg PUBLIC "-//W3C//DTD SVG 1.1//EN"
  "http://www.w3.org/Graphics/SVG/1.1/DTD/svg11.dtd">
<svg xmlns:xlink="http://www.w3.org/1999/xlink" width="453.6pt" height="338.4pt" viewBox="0 0 453.6 338.4" xmlns="http://www.w3.org/2000/svg" version="1.1">
 <metadata>
  <rdf:RDF xmlns:dc="http://purl.org/dc/elements/1.1/" xmlns:cc="http://creativecommons.org/ns#" xmlns:rdf="http://www.w3.org/1999/02/22-rdf-syntax-ns#">
   <cc:Work>
    <dc:type rdf:resource="http://purl.org/dc/dcmitype/StillImage"/>
    <dc:date>2025-05-15T17:02:41.518546</dc:date>
    <dc:format>image/svg+xml</dc:format>
    <dc:creator>
     <cc:Agent>
      <dc:title>Matplotlib v3.10.1, https://matplotlib.org/</dc:title>
     </cc:Agent>
    </dc:creator>
   </cc:Work>
  </rdf:RDF>
 </metadata>
 <defs>
  <style type="text/css">*{stroke-linejoin: round; stroke-linecap: butt}</style>
 </defs>
 <g id="figure_1">
  <g id="patch_1">
   <path d="M 0 338.4 
L 453.6 338.4 
L 453.6 0 
L 0 0 
z
" style="fill: #ffffff"/>
  </g>
  <g id="axes_1">
   <g id="patch_2">
    <path d="M 7.2 331.2 
L 446.4 331.2 
L 446.4 7.2 
L 7.2 7.2 
z
" style="fill: #ffffff"/>
   </g>
   <g id="matplotlib.axis_1"/>
   <g id="matplotlib.axis_2"/>
   <g id="line2d_1">
    <path d="M 27.163636 274.72669 
L 28.275817 279.78109 
L 29.387997 284.557578 
L 29.944087 286.224914 
L 30.500177 287.201147 
L 30.778222 287.410189 
L 31.056267 287.433604 
L 31.334312 287.278046 
L 31.890403 286.47832 
L 32.446493 285.142839 
L 33.558673 281.558458 
L 34.948898 277.176287 
L 35.783034 275.407617 
L 36.339124 274.732464 
L 36.895214 274.466734 
L 37.451304 274.565815 
L 38.007394 274.942844 
L 39.95371 276.611096 
L 40.5098 276.684016 
L 41.06589 276.46346 
L 41.62198 275.987984 
L 43.290251 274.262868 
L 43.846341 274.105338 
L 44.402431 274.352231 
L 44.958521 275.022384 
L 45.792656 276.656165 
L 47.182882 279.607364 
L 47.738972 280.240898 
L 48.017017 280.342021 
L 48.295062 280.275686 
L 48.573107 280.028969 
L 49.129197 278.968372 
L 49.685287 277.157626 
L 50.519423 273.220968 
L 53.299873 257.970798 
L 53.855964 256.448281 
L 54.134009 256.058541 
L 54.412054 255.938475 
L 54.690099 256.099138 
L 54.968144 256.546587 
L 55.524234 258.304132 
L 56.080324 261.169841 
L 56.914459 267.29945 
L 58.02664 277.94119 
L 60.529045 303.225656 
L 61.363181 309.44241 
L 61.919271 312.531457 
L 62.475361 314.715747 
L 63.031451 316.007744 
L 63.309496 316.337626 
L 63.587541 316.472727 
L 63.865586 316.428292 
L 64.143631 316.221257 
L 64.699721 315.39604 
L 65.533857 313.437376 
L 67.758217 307.533393 
L 68.592352 305.948378 
L 71.094758 301.809227 
L 71.650848 300.158827 
L 72.206938 297.91623 
L 73.041074 293.23076 
L 73.875209 286.902144 
L 74.987389 276.450151 
L 76.933705 257.600705 
L 77.76784 251.47673 
L 78.601975 247.228815 
L 79.158065 245.402048 
L 79.714155 244.223463 
L 80.270246 243.48458 
L 81.660471 241.936149 
L 82.216561 240.807843 
L 82.772651 239.096741 
L 83.328741 236.677495 
L 84.162877 231.59975 
L 84.997012 224.87238 
L 86.387237 211.296764 
L 87.777463 198.019976 
L 88.611598 191.747203 
L 89.445733 187.189827 
L 90.279868 184.089302 
L 92.504229 177.185389 
L 93.338364 173.195001 
L 94.450544 166.503369 
L 96.39686 154.587625 
L 97.50904 149.321647 
L 98.899266 144.094401 
L 100.289491 139.632057 
L 101.123626 137.623325 
L 101.679716 136.846415 
L 101.957761 136.681351 
L 102.235807 136.683498 
L 102.513852 136.861415 
L 103.069942 137.749306 
L 103.626032 139.292808 
L 104.460167 142.480901 
L 105.850393 147.906063 
L 106.406483 149.267846 
L 106.684528 149.655438 
L 106.962573 149.822475 
L 107.240618 149.757231 
L 107.518663 149.455445 
L 108.074753 148.154259 
L 108.630843 146.0012 
L 109.464978 141.531568 
L 111.133249 130.629626 
L 114.747835 106.635572 
L 115.860015 96.586699 
L 117.250241 81.54705 
L 118.640466 66.591835 
L 119.474601 59.620177 
L 120.030691 56.454162 
L 120.586781 54.761474 
L 120.864827 54.520427 
L 121.142872 54.698096 
L 121.420917 55.297794 
L 121.977007 57.736934 
L 122.533097 61.712851 
L 123.367232 70.01425 
L 125.035503 90.532158 
L 126.147683 103.088021 
L 126.981818 110.510472 
L 127.815953 116.031335 
L 128.650089 119.935916 
L 129.484224 122.722051 
L 130.596404 125.558571 
L 133.09881 131.603571 
L 135.32317 137.186967 
L 135.879261 138.117779 
L 136.435351 138.561566 
L 136.713396 138.539419 
L 136.991441 138.32168 
L 137.269486 137.884231 
L 137.825576 136.264112 
L 138.381666 133.541038 
L 138.937756 129.644097 
L 139.771892 121.653356 
L 140.884072 107.736766 
L 144.776703 54.912737 
L 145.888883 43.459969 
L 147.001064 34.108536 
L 147.835199 28.647249 
L 148.391289 25.897345 
L 148.947379 23.988398 
L 149.503469 23.037797 
L 149.781514 22.954913 
L 150.059559 23.149695 
L 150.337604 23.629326 
L 150.893695 25.464261 
L 151.449785 28.462044 
L 152.28392 34.980477 
L 153.3961 46.555846 
L 155.620461 71.164843 
L 156.454596 77.857461 
L 157.010686 81.055483 
L 157.566776 83.235829 
L 158.122867 84.50332 
L 158.678957 85.038477 
L 159.235047 85.06418 
L 160.069182 84.637012 
L 161.181362 84.06661 
L 162.015498 83.913728 
L 163.127678 83.797464 
L 163.683768 83.588105 
L 164.239858 83.198048 
L 165.073993 82.269067 
L 167.576399 78.652961 
L 168.410534 77.37526 
L 168.966624 76.245158 
L 169.522715 74.679931 
L 170.078805 72.497191 
L 170.634895 69.555041 
L 171.46903 63.6037 
L 172.58121 53.271949 
L 174.249481 37.068432 
L 175.083616 31.39011 
L 175.639706 29.297155 
L 175.917751 28.847734 
L 176.195796 28.820904 
L 176.473841 29.224482 
L 176.751887 30.060509 
L 177.307977 32.996674 
L 177.864067 37.497924 
L 178.698202 46.677532 
L 179.810382 61.899323 
L 184.259104 128.978487 
L 187.317599 176.121588 
L 188.42978 189.253945 
L 189.263915 196.612455 
L 190.09805 201.877728 
L 190.932185 205.375599 
L 191.766321 207.575662 
L 192.600456 208.990578 
L 194.268726 211.364825 
L 195.102861 213.057301 
L 195.936997 215.32437 
L 197.049177 219.084766 
L 198.717447 224.841184 
L 199.551583 227.08269 
L 200.663763 229.309514 
L 201.775943 231.505458 
L 202.332033 233.044488 
L 202.888124 235.109944 
L 203.722259 239.395357 
L 204.556394 245.008435 
L 206.780755 261.086323 
L 207.61489 265.034389 
L 208.17098 266.633628 
L 208.72707 267.44272 
L 209.005115 267.586342 
L 209.28316 267.581623 
L 209.83925 267.21484 
L 210.673386 266.095232 
L 212.619701 263.172095 
L 213.175791 262.668098 
L 213.731881 262.433459 
L 214.287972 262.517047 
L 214.844062 262.943511 
L 215.400152 263.694506 
L 216.512332 265.810383 
L 217.346467 267.262022 
L 217.902558 267.743343 
L 218.180603 267.750139 
L 218.458648 267.565955 
L 218.736693 267.169208 
L 219.292783 265.674225 
L 219.848873 263.196249 
L 220.404963 259.767566 
L 221.239099 253.16579 
L 223.741504 231.817489 
L 224.297594 228.668092 
L 224.853684 226.479859 
L 225.409775 225.228248 
L 225.68782 224.915231 
L 225.965865 224.778017 
L 226.24391 224.786186 
L 226.8 225.103992 
L 227.91218 225.973222 
L 228.46827 226.039945 
L 228.746316 225.905478 
L 229.302406 225.250747 
L 229.858496 224.076352 
L 230.692631 221.492182 
L 233.195037 212.610944 
L 233.751127 211.403486 
L 234.307217 210.663125 
L 234.863307 210.369332 
L 235.419397 210.442287 
L 236.253533 210.956002 
L 237.087668 211.51056 
L 237.643758 211.69411 
L 238.199848 211.651189 
L 238.755938 211.382677 
L 239.590073 210.693088 
L 240.702254 209.740411 
L 241.536389 209.312045 
L 243.204659 208.753614 
L 243.76075 208.238174 
L 244.31684 207.354684 
L 244.87293 206.041737 
L 245.707065 203.305319 
L 248.209471 193.880685 
L 248.765561 192.645693 
L 249.321651 191.957055 
L 249.599696 191.815405 
L 249.877741 191.798539 
L 250.433831 192.086557 
L 250.989921 192.690585 
L 253.770372 196.248841 
L 254.604507 197.321268 
L 255.160598 198.396653 
L 255.716688 199.970929 
L 256.272778 202.194267 
L 256.828868 205.158036 
L 257.663003 210.993219 
L 258.775184 220.743264 
L 260.443454 235.637848 
L 261.277589 241.126459 
L 261.833679 243.566373 
L 262.38977 244.946043 
L 262.667815 245.251702 
L 262.94586 245.323284 
L 263.223905 245.18607 
L 263.779995 244.414407 
L 265.72631 240.633201 
L 266.004356 240.431624 
L 266.282401 240.378598 
L 266.560446 240.475989 
L 267.116536 241.081601 
L 267.950671 242.658236 
L 268.784806 244.168676 
L 269.062851 244.467363 
L 269.340896 244.601091 
L 269.618942 244.539825 
L 269.896987 244.259307 
L 270.175032 243.743268 
L 270.731122 241.977309 
L 271.287212 239.263672 
L 272.121347 233.715803 
L 273.511573 222.305745 
L 275.735933 204.196274 
L 277.682249 190.350738 
L 279.072474 181.838677 
L 280.462699 174.693223 
L 282.13097 166.207112 
L 283.24315 159.079756 
L 286.023601 139.4196 
L 286.579691 137.398016 
L 286.857736 136.910674 
L 287.135781 136.820888 
L 287.413826 137.157602 
L 287.691871 137.943102 
L 288.247962 140.908491 
L 288.804052 145.726984 
L 289.638187 156.097149 
L 290.750367 174.029091 
L 292.418638 201.735339 
L 293.252773 212.275287 
L 293.808863 217.22631 
L 294.364953 220.301308 
L 294.642998 221.114589 
L 294.921043 221.447676 
L 295.199088 221.309794 
L 295.477133 220.715273 
L 296.033224 218.236345 
L 296.589314 214.208705 
L 297.423449 205.836885 
L 298.813674 188.490169 
L 299.925855 175.203698 
L 300.75999 167.685123 
L 301.31608 164.35936 
L 301.87217 162.491784 
L 302.150215 162.083876 
L 302.42826 161.995534 
L 302.706305 162.193837 
L 303.262396 163.281545 
L 304.096531 165.926065 
L 305.208711 169.451012 
L 305.764801 170.654808 
L 306.320891 171.376473 
L 306.876982 171.683223 
L 307.711117 171.715581 
L 308.267207 171.748573 
L 308.823297 172.02138 
L 309.379387 172.688258 
L 309.935477 173.845541 
L 310.491567 175.526292 
L 311.325703 178.951701 
L 312.437883 184.678401 
L 314.384199 194.906001 
L 316.886604 207.039907 
L 317.720739 213.181945 
L 318.554875 221.657176 
L 319.38901 232.716753 
L 320.50119 250.7157 
L 322.447506 282.994252 
L 323.281641 293.163474 
L 323.837731 297.795494 
L 324.393821 300.509413 
L 324.671866 301.139814 
L 324.949911 301.301498 
L 325.227956 301.016649 
L 325.506002 300.315793 
L 326.062092 297.82236 
L 326.896227 292.056083 
L 329.398633 272.092134 
L 330.232768 267.430889 
L 331.066903 264.145335 
L 331.901038 261.898583 
L 333.569309 258.142517 
L 334.403444 255.380431 
L 335.237579 251.53877 
L 336.349759 245.068926 
L 337.46194 238.593238 
L 338.01803 236.061143 
L 338.57412 234.343387 
L 338.852165 233.845974 
L 339.13021 233.607673 
L 339.408255 233.633165 
L 339.6863 233.9215 
L 340.24239 235.251277 
L 340.798481 237.478277 
L 341.632616 242.108607 
L 343.022841 251.625633 
L 344.691112 262.972348 
L 345.803292 269.144562 
L 346.637427 272.572751 
L 347.193517 274.162027 
L 347.749607 275.145091 
L 348.027653 275.403427 
L 348.305698 275.50712 
L 348.583743 275.459059 
L 348.861788 275.263995 
L 349.417878 274.461277 
L 349.973968 273.171463 
L 350.808103 270.536731 
L 353.588554 260.738201 
L 354.144644 259.501273 
L 354.700734 258.689752 
L 355.256825 258.303709 
L 355.812915 258.295259 
L 356.369005 258.575671 
L 357.75923 259.780559 
L 358.593365 260.346067 
L 359.427501 260.628522 
L 361.651861 260.905731 
L 362.207951 260.872774 
L 362.764042 260.558454 
L 363.320132 259.713413 
L 363.876222 258.058788 
L 364.432312 255.341278 
L 364.988402 251.391451 
L 365.822537 243.120157 
L 366.934718 228.76235 
L 368.602988 206.497179 
L 369.437123 197.754281 
L 370.271259 191.177223 
L 371.105394 186.240389 
L 373.329754 174.28704 
L 375.83216 158.799062 
L 376.38825 156.453193 
L 376.94434 154.896065 
L 377.50043 154.174435 
L 377.778476 154.117254 
L 378.056521 154.246862 
L 378.612611 154.995075 
L 379.168701 156.246475 
L 381.671107 162.821209 
L 382.227197 163.506221 
L 382.505242 163.656286 
L 382.783287 163.666215 
L 383.061332 163.529354 
L 383.617422 162.793922 
L 384.173512 161.423794 
L 384.729602 159.416505 
L 385.563738 155.269925 
L 386.397873 149.942823 
L 387.788098 139.293794 
L 391.958774 104.232452 
L 396.963586 62.039248 
L 398.075766 54.059879 
L 398.909901 49.290258 
L 399.465991 46.997944 
L 400.022082 45.612147 
L 400.300127 45.304271 
L 400.578172 45.271736 
L 400.856217 45.524192 
L 401.134262 46.065864 
L 401.690352 48.013824 
L 402.246442 51.053717 
L 403.080577 57.324272 
L 404.748848 72.868234 
L 405.861028 82.342269 
L 406.695163 87.759825 
L 407.529299 91.495856 
L 408.085389 93.156573 
L 408.641479 94.322412 
L 409.753659 95.93549 
L 410.587794 97.271746 
L 411.143885 98.511209 
L 411.97802 101.094499 
L 412.812155 104.536456 
L 415.314561 115.804899 
L 415.870651 117.223582 
L 416.148696 117.633215 
L 416.426741 117.817364 
L 416.704786 117.761415 
L 416.982831 117.453996 
L 417.260876 116.887748 
L 417.816966 114.96778 
L 418.373056 112.014504 
L 419.207192 105.794088 
L 420.041327 97.747644 
L 421.153507 84.928622 
L 423.933958 48.864357 
L 425.324183 32.488945 
L 426.436364 21.927273 
L 426.436364 21.927273 
" clip-path="url(#p1bd83e5f57)" style="fill: none; stroke-dasharray: 11.1,4.8; stroke-dashoffset: 0; stroke: #000000; stroke-width: 3"/>
   </g>
   <g id="line2d_2">
    <path d="M 27.163636 264.248853 
L 28.553862 262.19315 
L 29.666042 260.911082 
L 30.778222 259.970411 
L 31.890403 259.35994 
L 32.724538 259.120652 
L 33.558673 259.08333 
L 34.392808 259.245437 
L 35.504989 259.602818 
L 35.783034 260.03562 
L 36.339124 262.306456 
L 37.451304 268.125055 
L 39.675665 280.148859 
L 41.343935 288.082384 
L 42.734161 293.739017 
L 43.846341 297.508744 
L 44.958521 300.490822 
L 45.792656 302.157102 
L 46.626792 303.287203 
L 47.182882 303.72085 
L 47.738972 303.882957 
L 48.295062 303.75944 
L 48.851152 303.336427 
L 49.407242 302.598918 
L 49.963332 301.531561 
L 50.797468 299.269316 
L 51.631603 296.144214 
L 52.465738 291.542756 
L 53.299873 285.882179 
L 53.855964 281.475855 
L 54.134009 281.442757 
L 55.802279 289.005309 
L 57.748595 286.882989 
L 63.309496 281.137627 
L 64.977767 278.886509 
L 66.367992 276.619405 
L 67.758217 273.899501 
L 68.870398 271.216566 
L 70.260623 266.143294 
L 71.928893 259.848021 
L 73.041074 258.605318 
L 74.153254 257.475921 
L 75.543479 254.664048 
L 77.21175 250.775663 
L 78.88002 246.28237 
L 80.548291 241.132761 
L 82.216561 235.289867 
L 84.162877 227.555138 
L 85.831147 220.129765 
L 87.221372 211.883082 
L 89.167688 198.94593 
L 90.279868 191.701958 
L 91.114004 187.896951 
L 91.392049 187.180004 
L 93.060319 185.075078 
L 95.006635 182.978743 
L 97.50904 180.653754 
L 103.626032 175.420416 
L 105.294302 174.639598 
L 106.962573 173.592945 
L 108.630843 172.249611 
L 109.743024 171.485976 
L 111.689339 170.444393 
L 113.635655 169.670265 
L 115.303925 169.225915 
L 116.972195 168.99043 
L 118.640466 168.968952 
L 120.308736 169.167607 
L 120.586781 169.222394 
L 120.864827 169.049653 
L 127.815953 161.039934 
L 130.596404 158.654877 
L 133.376855 156.575724 
L 135.879261 154.982259 
L 138.103621 153.799131 
L 138.659711 153.689417 
L 140.884072 153.942577 
L 144.498658 154.621919 
L 154.230236 156.463756 
L 161.181362 156.895572 
L 166.186174 157.590759 
L 175.083616 159.398019 
L 179.254292 160.242779 
L 182.312788 160.659172 
L 184.259104 160.754944 
L 188.707825 160.322001 
L 199.551583 159.029793 
L 203.166169 158.8567 
L 206.50271 159.132747 
L 210.117296 159.664067 
L 214.287972 160.506361 
L 219.014738 161.701108 
L 225.965865 163.736459 
L 226.8 164.131727 
L 232.082856 167.18155 
L 240.702254 172.109264 
L 245.150975 175.066273 
L 246.5412 175.575129 
L 247.931426 175.876808 
L 249.599696 175.988072 
L 251.267967 175.850753 
L 252.936237 175.492456 
L 254.882553 174.831282 
L 256.550823 174.087294 
L 256.828868 174.251724 
L 258.775184 177.30211 
L 259.887364 179.065288 
L 261.555634 181.630621 
L 262.38977 182.451508 
L 263.223905 182.892196 
L 264.05804 182.97994 
L 264.892175 182.742906 
L 265.72631 182.208699 
L 266.560446 181.404009 
L 267.672626 179.961595 
L 268.784806 178.159756 
L 270.175032 175.506962 
L 272.121347 171.284857 
L 274.901798 165.172817 
L 276.570068 162.239892 
L 277.682249 160.516008 
L 277.960294 160.262496 
L 280.184654 159.439356 
L 281.57488 158.619878 
L 283.24315 157.363865 
L 285.189466 155.590899 
L 287.691871 152.958386 
L 289.916232 150.324394 
L 293.252773 145.817369 
L 294.364953 144.18651 
L 295.477133 142.969229 
L 296.589314 142.051867 
L 298.257584 141.005706 
L 300.481945 139.639205 
L 301.594125 138.712336 
L 302.706305 137.463929 
L 303.818486 135.768777 
L 304.652621 134.133834 
L 305.764801 131.368157 
L 306.876982 127.801028 
L 307.989162 123.304355 
L 309.101342 117.752859 
L 309.657432 114.066157 
L 310.769613 104.759652 
L 311.047658 103.878979 
L 311.881793 103.219988 
L 312.715928 102.832396 
L 313.550063 102.739512 
L 314.384199 102.964645 
L 315.218334 103.535258 
L 316.052469 104.473043 
L 316.886604 105.798207 
L 317.720739 107.531245 
L 318.554875 109.692719 
L 319.667055 113.276396 
L 320.779235 117.703424 
L 321.891416 123.018308 
L 323.281641 130.769023 
L 324.671866 139.984897 
L 326.062092 150.762618 
L 326.340137 153.11162 
L 328.008407 158.74093 
L 329.398633 164.601217 
L 331.066903 172.711497 
L 334.125399 188.857269 
L 336.90585 203.07163 
L 338.57412 210.542495 
L 339.964345 215.735271 
L 341.076526 219.093322 
L 341.910661 221.073957 
L 342.744796 222.530526 
L 344.413067 224.430318 
L 346.359382 223.896464 
L 348.583743 223.518731 
L 351.086148 223.329723 
L 354.144644 223.325075 
L 355.53487 223.431903 
L 358.037275 224.423981 
L 361.929906 226.276803 
L 364.988402 228.126456 
L 366.378628 228.566934 
L 367.490808 228.711859 
L 368.602988 228.66686 
L 369.715168 228.43215 
L 370.827349 228.004207 
L 371.939529 227.380708 
L 373.051709 226.511865 
L 374.16389 225.357821 
L 375.27607 223.919914 
L 376.666295 221.715343 
L 378.056521 219.049732 
L 383.061332 208.186733 
L 384.729602 203.773648 
L 386.397873 198.723966 
L 388.344188 192.143985 
L 395.295315 166.918883 
L 399.187946 152.500233 
L 399.744036 154.278762 
L 401.968397 161.762303 
L 403.636668 166.585232 
L 404.748848 169.33415 
L 405.582983 170.794733 
L 406.695163 172.215458 
L 407.529299 172.932827 
L 408.363434 173.337813 
L 409.197569 173.416683 
L 409.753659 173.281829 
L 410.587794 172.787691 
L 411.42193 171.928073 
L 412.256065 170.694666 
L 413.0902 169.074159 
L 414.20238 166.288834 
L 415.314561 162.761141 
L 416.426741 159.003667 
L 417.260876 156.801772 
L 417.538921 154.906346 
L 419.485237 135.109293 
L 420.597417 125.42428 
L 422.543733 111.715042 
L 424.768093 97.678633 
L 426.436364 87.927918 
L 426.436364 87.927918 
" clip-path="url(#p1bd83e5f57)" style="fill: none; stroke: #ff00ff; stroke-width: 3; stroke-linecap: square"/>
   </g>
   <g id="patch_3">
    <path d="M 7.2 331.2 
L 7.2 7.2 
" style="fill: none; stroke: #000000; stroke-width: 0.8; stroke-linejoin: miter; stroke-linecap: square"/>
   </g>
   <g id="patch_4">
    <path d="M 446.4 331.2 
L 446.4 7.2 
" style="fill: none; stroke: #000000; stroke-width: 0.8; stroke-linejoin: miter; stroke-linecap: square"/>
   </g>
   <g id="patch_5">
    <path d="M 7.2 331.2 
L 446.4 331.2 
" style="fill: none; stroke: #000000; stroke-width: 0.8; stroke-linejoin: miter; stroke-linecap: square"/>
   </g>
   <g id="patch_6">
    <path d="M 7.2 7.2 
L 446.4 7.2 
" style="fill: none; stroke: #000000; stroke-width: 0.8; stroke-linejoin: miter; stroke-linecap: square"/>
   </g>
  </g>
 </g>
 <defs>
  <clipPath id="p1bd83e5f57">
   <rect x="7.2" y="7.2" width="439.2" height="324"/>
  </clipPath>
 </defs>
</svg>
