<?xml version="1.0" encoding="utf-8" standalone="no"?>
<!DOCTYPE svg PUBLIC "-//W3C//DTD SVG 1.1//EN"
  "http://www.w3.org/Graphics/SVG/1.1/DTD/svg11.dtd">
<svg xmlns:xlink="http://www.w3.org/1999/xlink" width="453.6pt" height="338.4pt" viewBox="0 0 453.6 338.4" xmlns="http://www.w3.org/2000/svg" version="1.1">
 <metadata>
  <rdf:RDF xmlns:dc="http://purl.org/dc/elements/1.1/" xmlns:cc="http://creativecommons.org/ns#" xmlns:rdf="http://www.w3.org/1999/02/22-rdf-syntax-ns#">
   <cc:Work>
    <dc:type rdf:resource="http://purl.org/dc/dcmitype/StillImage"/>
    <dc:date>2025-05-15T18:23:56.875401</dc:date>
    <dc:format>image/svg+xml</dc:format>
    <dc:creator>
     <cc:Agent>
      <dc:title>Matplotlib v3.10.1, https://matplotlib.org/</dc:title>
     </cc:Agent>
    </dc:creator>
   </cc:Work>
  </rdf:RDF>
 </metadata>
 <defs>
  <style type="text/css">*{stroke-linejoin: round; stroke-linecap: butt}</style>
 </defs>
 <g id="figure_1">
  <g id="patch_1">
   <path d="M 0 338.4 
L 453.6 338.4 
L 453.6 0 
L 0 0 
z
" style="fill: #ffffff"/>
  </g>
  <g id="axes_1">
   <g id="patch_2">
    <path d="M 7.2 331.2 
L 446.4 331.2 
L 446.4 7.2 
L 7.2 7.2 
z
" style="fill: #ffffff"/>
   </g>
   <g id="matplotlib.axis_1"/>
   <g id="matplotlib.axis_2"/>
   <g id="line2d_1">
    <path d="M 27.163636 140.000204 
L 27.441681 140.111661 
L 27.997772 139.8547 
L 28.553862 139.608951 
L 28.831907 139.715199 
L 29.109952 140.073123 
L 29.387997 140.737116 
L 29.944087 143.11119 
L 30.500177 146.911315 
L 31.334312 154.831001 
L 33.836718 181.354336 
L 34.670853 187.664442 
L 35.783034 194.064864 
L 37.173259 200.555524 
L 38.285439 204.980103 
L 39.119575 207.328135 
L 39.675665 208.154054 
L 39.95371 208.305408 
L 40.231755 208.276364 
L 40.5098 208.069358 
L 41.06589 207.160488 
L 41.62198 205.709652 
L 42.734161 201.921946 
L 44.402431 195.645091 
L 45.236566 191.487069 
L 45.792656 187.627649 
L 46.348747 182.506311 
L 47.182882 172.051755 
L 48.295062 153.54032 
L 49.963332 124.296149 
L 50.797468 113.903171 
L 51.353558 109.64044 
L 51.631603 108.371978 
L 51.909648 107.67522 
L 52.187693 107.533641 
L 52.465738 107.922457 
L 52.743783 108.811622 
L 53.299873 111.957246 
L 53.855964 116.711141 
L 54.690099 126.409029 
L 55.524234 138.78647 
L 56.636414 158.768984 
L 59.416865 211.208003 
L 60.251 222.152492 
L 61.085135 229.916591 
L 61.919271 235.252555 
L 62.753406 239.21327 
L 63.865586 243.3384 
L 64.421676 244.679113 
L 64.699721 245.024234 
L 64.977767 245.076755 
L 65.255812 244.776304 
L 65.533857 244.063279 
L 65.811902 242.881771 
L 66.367992 238.925084 
L 66.924082 232.635606 
L 67.480172 223.951681 
L 68.314307 206.867837 
L 69.704533 171.60308 
L 71.372803 130.273451 
L 72.206938 114.207804 
L 73.041074 102.400809 
L 73.597164 96.939173 
L 74.153254 93.291737 
L 74.709344 91.305889 
L 74.987389 90.882282 
L 75.265434 90.809978 
L 75.543479 91.070301 
L 75.821524 91.647443 
L 76.377615 93.70267 
L 76.933705 96.901098 
L 77.489795 101.204342 
L 78.32393 109.721954 
L 79.158065 120.740799 
L 80.270246 139.315017 
L 81.382426 162.156842 
L 82.772651 196.139103 
L 86.665282 297.636262 
L 87.221372 306.708463 
L 87.777463 312.916607 
L 88.333553 316.054688 
L 88.611598 316.472727 
L 88.889643 316.154444 
L 89.167688 315.142559 
L 89.723778 311.278701 
L 90.279868 305.477488 
L 92.782274 275.300944 
L 93.338364 271.614432 
L 93.616409 270.490218 
L 93.894454 269.858809 
L 94.172499 269.712509 
L 94.450544 270.02933 
L 94.72859 270.773683 
L 95.28468 273.341523 
L 96.39686 280.785184 
L 97.230995 285.615154 
L 97.50904 286.591144 
L 97.787085 287.111121 
L 98.06513 287.104322 
L 98.343175 286.511298 
L 98.621221 285.286121 
L 99.177311 280.823952 
L 99.733401 273.632352 
L 100.567536 258.072058 
L 101.679716 230.435824 
L 105.016257 140.540913 
L 105.850393 125.662905 
L 106.406483 118.9676 
L 106.962573 115.111311 
L 107.240618 114.262968 
L 107.518663 114.117848 
L 107.796708 114.64737 
L 108.074753 115.810379 
L 108.630843 119.813891 
L 109.464978 128.952469 
L 111.967384 159.812505 
L 112.801519 166.403691 
L 113.35761 169.326838 
L 113.9137 171.145579 
L 114.46979 171.973576 
L 114.747835 172.058118 
L 115.02588 171.94661 
L 115.58197 171.208004 
L 116.13806 169.903699 
L 116.972195 167.221477 
L 119.196556 159.380277 
L 120.030691 157.264652 
L 120.864827 155.700641 
L 122.533097 152.807256 
L 123.367232 150.637751 
L 124.201367 147.682763 
L 125.313548 142.72961 
L 127.815953 130.931852 
L 128.650089 127.9617 
L 129.206179 126.572417 
L 129.762269 125.827165 
L 130.040314 125.742521 
L 130.318359 125.870296 
L 130.596404 126.22024 
L 131.152494 127.593564 
L 131.708584 129.794475 
L 132.820765 135.645464 
L 133.6549 139.514505 
L 133.932945 140.325106 
L 134.21099 140.772601 
L 134.489035 140.789201 
L 134.76708 140.315664 
L 135.045125 139.303548 
L 135.601215 135.532135 
L 136.157306 129.347365 
L 136.713396 120.843019 
L 137.547531 104.463886 
L 140.606027 37.481487 
L 141.162117 29.581044 
L 141.718207 24.295266 
L 141.996252 22.737592 
L 142.274297 21.942462 
L 142.552342 21.927273 
L 142.830387 22.69967 
L 143.108433 24.257087 
L 143.664523 29.664328 
L 144.220613 37.925004 
L 145.054748 54.851285 
L 146.166928 83.349461 
L 150.893695 212.509383 
L 152.005875 235.397341 
L 152.84001 248.462765 
L 153.3961 254.920686 
L 153.95219 259.527537 
L 154.508281 262.367348 
L 154.786326 263.181619 
L 155.064371 263.633988 
L 155.342416 263.761096 
L 155.620461 263.601711 
L 155.898506 263.196115 
L 156.454596 261.808372 
L 157.288731 258.848688 
L 160.903317 244.335147 
L 161.737453 239.933454 
L 162.849633 232.672912 
L 164.795948 219.112346 
L 165.352038 216.291163 
L 165.908129 214.427393 
L 166.186174 213.904619 
L 166.464219 213.665464 
L 166.742264 213.707158 
L 167.020309 214.017487 
L 167.576399 215.345012 
L 168.410534 218.490354 
L 169.24467 221.644728 
L 169.80076 222.867416 
L 170.078805 223.020336 
L 170.35685 222.792829 
L 170.634895 222.138971 
L 170.91294 221.021581 
L 171.46903 217.29943 
L 172.02512 211.550199 
L 172.859256 199.432079 
L 173.971436 178.650484 
L 175.639706 146.358111 
L 176.473841 133.826262 
L 177.029932 127.831872 
L 177.586022 124.015096 
L 177.864067 122.95287 
L 178.142112 122.447826 
L 178.420157 122.479462 
L 178.698202 123.014731 
L 179.254292 125.403892 
L 180.088427 131.268454 
L 181.200608 139.566231 
L 181.756698 142.127759 
L 182.034743 142.696615 
L 182.312788 142.699565 
L 182.590833 142.088863 
L 182.868878 140.835411 
L 183.424968 136.389869 
L 183.981058 129.557937 
L 184.815194 116.075114 
L 186.483464 88.365731 
L 187.039554 82.111121 
L 187.595644 78.279977 
L 187.87369 77.315558 
L 188.151735 76.967076 
L 188.42978 77.198457 
L 188.707825 77.95859 
L 189.263915 80.810177 
L 190.09805 87.34815 
L 192.322411 108.316276 
L 193.712636 123.096912 
L 195.102861 141.021121 
L 196.493087 158.183785 
L 197.049177 163.015577 
L 197.605267 165.978365 
L 197.883312 166.679819 
L 198.161357 166.849031 
L 198.439402 166.497727 
L 198.717447 165.653719 
L 199.273538 162.671791 
L 200.107673 155.915395 
L 201.775943 141.3139 
L 202.610079 136.441081 
L 203.166169 134.444226 
L 203.722259 133.314546 
L 204.278349 132.826949 
L 204.834439 132.729142 
L 206.224664 132.948515 
L 207.0588 133.192237 
L 207.61489 133.616896 
L 208.17098 134.464059 
L 208.72707 135.894908 
L 209.28316 137.978845 
L 210.117296 142.152981 
L 211.507521 149.567033 
L 212.063611 151.531662 
L 212.341656 152.107907 
L 212.619701 152.368178 
L 212.897746 152.291692 
L 213.175791 151.868547 
L 213.453836 151.100691 
L 214.009927 148.593095 
L 214.844062 142.883248 
L 217.624513 121.101596 
L 218.736693 115.105154 
L 221.795189 100.51133 
L 222.629324 94.976314 
L 223.741504 85.772361 
L 226.24391 62.944366 
L 226.8 59.74368 
L 227.35609 58.02113 
L 227.634135 57.789083 
L 227.91218 57.998654 
L 228.190225 58.654104 
L 228.746316 61.272772 
L 229.302406 65.50669 
L 230.136541 74.342712 
L 231.248721 89.170713 
L 238.755938 196.046659 
L 239.590073 204.346155 
L 240.424209 210.704472 
L 241.258344 215.321613 
L 242.092479 218.681709 
L 243.204659 222.092197 
L 244.594885 225.530292 
L 245.707065 227.642633 
L 246.819245 229.236766 
L 247.931426 230.857558 
L 248.765561 232.532796 
L 249.599696 234.73132 
L 250.989921 238.653139 
L 251.546012 239.720008 
L 251.824057 240.021229 
L 252.102102 240.127195 
L 252.380147 240.011658 
L 252.658192 239.653068 
L 252.936237 239.034103 
L 253.492327 236.973232 
L 254.048417 233.802899 
L 254.882553 227.151751 
L 255.994733 215.777831 
L 257.663003 198.241155 
L 258.497139 191.883915 
L 259.053229 189.347531 
L 259.331274 188.696135 
L 259.609319 188.489335 
L 259.887364 188.742114 
L 260.165409 189.45986 
L 260.721499 192.256412 
L 261.277589 196.701339 
L 262.111724 205.675117 
L 264.05804 228.394042 
L 264.892175 235.175685 
L 265.448265 238.16531 
L 266.004356 239.98169 
L 266.282401 240.491379 
L 266.560446 240.761015 
L 266.838491 240.808918 
L 267.116536 240.650174 
L 267.394581 240.29497 
L 267.950671 239.011781 
L 268.506761 236.942802 
L 269.062851 234.01519 
L 269.896987 227.864212 
L 270.731122 219.751863 
L 272.677437 199.714826 
L 273.233527 196.16766 
L 273.511573 195.066769 
L 273.789618 194.454732 
L 274.067663 194.340145 
L 274.345708 194.712155 
L 274.623753 195.540562 
L 275.179843 198.35487 
L 276.292023 206.412158 
L 277.126159 211.781194 
L 277.682249 213.951419 
L 277.960294 214.502211 
L 278.238339 214.689845 
L 278.516384 214.531512 
L 278.794429 214.061233 
L 279.350519 212.389716 
L 281.01879 206.261265 
L 281.296835 205.722224 
L 281.57488 205.431549 
L 281.852925 205.404378 
L 282.13097 205.642865 
L 282.409015 206.138186 
L 282.965105 207.814039 
L 283.79924 211.519564 
L 285.189466 218.016612 
L 285.745556 219.827399 
L 286.301646 220.850471 
L 286.579691 221.02094 
L 286.857736 220.947046 
L 287.135781 220.619449 
L 287.413826 220.030787 
L 287.969916 218.052302 
L 288.526007 215.008179 
L 289.360142 208.575814 
L 290.472322 197.26809 
L 292.418638 176.208751 
L 293.252773 169.628752 
L 293.808863 166.657779 
L 294.364953 164.88145 
L 294.642998 164.417869 
L 294.921043 164.210735 
L 295.199088 164.233672 
L 295.477133 164.455996 
L 296.033224 165.36543 
L 297.145404 168.090962 
L 298.257584 170.651721 
L 299.091719 172.004622 
L 299.925855 172.920368 
L 301.31608 174.206969 
L 301.87217 174.987063 
L 302.42826 176.142093 
L 302.98435 177.845836 
L 303.540441 180.268531 
L 304.096531 183.554913 
L 304.930666 190.294836 
L 305.764801 199.145047 
L 307.155027 216.898119 
L 308.545252 233.835048 
L 309.379387 241.371153 
L 309.935477 244.84889 
L 310.491567 247.021038 
L 310.769613 247.629688 
L 311.047658 247.937426 
L 311.325703 247.963135 
L 311.603748 247.728932 
L 312.159838 246.577469 
L 312.715928 244.680653 
L 313.550063 240.843402 
L 314.940289 233.052055 
L 316.330514 225.515642 
L 317.164649 222.275982 
L 317.720739 221.038438 
L 317.998785 220.74784 
L 318.27683 220.687391 
L 318.554875 220.856859 
L 318.83292 221.247933 
L 319.38901 222.618819 
L 320.223145 225.670075 
L 321.335325 229.806391 
L 321.891416 231.113981 
L 322.169461 231.46159 
L 322.447506 231.581719 
L 322.725551 231.467158 
L 323.003596 231.118779 
L 323.559686 229.758052 
L 324.115776 227.630805 
L 324.949911 223.40053 
L 326.340137 214.845869 
L 329.398633 194.962368 
L 329.954723 192.662521 
L 330.510813 191.445683 
L 330.788858 191.315265 
L 331.066903 191.526735 
L 331.344948 192.085019 
L 331.901038 194.202979 
L 332.457128 197.474249 
L 334.681489 213.078341 
L 335.237579 214.847537 
L 335.515624 215.082432 
L 335.793669 214.834323 
L 336.071714 214.078629 
L 336.349759 212.801649 
L 336.90585 208.683011 
L 337.46194 202.578986 
L 338.296075 190.280262 
L 339.6863 164.981849 
L 341.076526 140.844006 
L 341.910661 130.146446 
L 342.466751 125.278246 
L 343.022841 122.355869 
L 343.300886 121.611849 
L 343.578931 121.321379 
L 343.856976 121.4558 
L 344.135022 121.980318 
L 344.691112 124.031029 
L 345.525247 128.904181 
L 348.583743 149.242515 
L 349.973968 155.966479 
L 351.364193 162.75469 
L 352.198329 167.885932 
L 353.032464 174.392243 
L 353.866599 182.612021 
L 354.978779 196.470215 
L 356.369005 217.814148 
L 358.593365 253.505283 
L 359.427501 263.914554 
L 360.261636 271.277958 
L 360.817726 274.318104 
L 361.373816 275.898716 
L 361.651861 276.182386 
L 361.929906 276.15855 
L 362.207951 275.852917 
L 362.764042 274.505327 
L 363.320132 272.355501 
L 364.154267 268.023263 
L 365.266447 260.724799 
L 366.378628 251.908302 
L 367.768853 238.840439 
L 369.993213 217.355364 
L 370.827349 211.187272 
L 371.661484 206.511324 
L 374.16389 194.461146 
L 374.998025 188.245536 
L 376.38825 175.403384 
L 377.50043 165.660134 
L 378.334566 160.25007 
L 378.890656 157.789094 
L 379.446746 156.192959 
L 380.002836 155.314955 
L 380.558926 154.951438 
L 382.227197 154.527189 
L 382.783287 153.727416 
L 383.339377 152.082377 
L 383.895467 149.231251 
L 384.451557 144.812932 
L 385.007648 138.525122 
L 385.841783 125.258695 
L 386.675918 107.725637 
L 389.178324 49.702057 
L 389.734414 41.288154 
L 390.290504 36.19291 
L 390.568549 35.027233 
L 390.846594 34.821715 
L 391.124639 35.583233 
L 391.402684 37.301524 
L 391.958774 43.487269 
L 392.514865 52.987721 
L 393.349 72.105317 
L 396.12945 144.063191 
L 396.963586 157.72749 
L 397.519676 163.331987 
L 398.075766 166.226859 
L 398.353811 166.774906 
L 398.631856 166.818472 
L 398.909901 166.445616 
L 399.465991 164.841373 
L 400.578172 160.93069 
L 401.134262 159.893814 
L 401.412307 159.765937 
L 401.690352 159.907875 
L 401.968397 160.301155 
L 402.524487 161.679944 
L 403.636668 164.997192 
L 403.914713 165.513038 
L 404.192758 165.772591 
L 404.470803 165.731205 
L 404.748848 165.361838 
L 405.026893 164.657049 
L 405.582983 162.311917 
L 406.417118 157.220803 
L 407.251253 152.19622 
L 407.807344 150.111539 
L 408.085389 149.684904 
L 408.363434 149.740093 
L 408.641479 150.305998 
L 408.919524 151.389955 
L 409.475614 155.028745 
L 410.309749 163.315951 
L 411.699975 178.372356 
L 412.256065 182.396138 
L 412.53411 183.649692 
L 412.812155 184.335443 
L 413.0902 184.431377 
L 413.368245 183.93562 
L 413.64629 182.865467 
L 414.20238 179.160019 
L 415.036516 170.645435 
L 417.260876 145.295295 
L 418.095011 138.772846 
L 418.929147 134.053281 
L 420.319372 128.050193 
L 422.543733 119.318238 
L 423.099823 117.978961 
L 423.377868 117.592609 
L 423.655913 117.4294 
L 423.933958 117.510992 
L 424.212003 117.854958 
L 424.490048 118.474872 
L 425.046138 120.572151 
L 425.602228 123.824049 
L 426.158319 128.207885 
L 426.436364 130.81085 
L 426.436364 130.81085 
" clip-path="url(#p05ec7bb3a5)" style="fill: none; stroke-dasharray: 11.1,4.8; stroke-dashoffset: 0; stroke: #000000; stroke-width: 3"/>
   </g>
   <g id="line2d_2">
    <path d="M 27.163636 137.00909 
L 28.275817 135.421961 
L 29.387997 134.178336 
L 30.500177 133.248452 
L 31.612358 132.607012 
L 32.724538 132.228665 
L 33.836718 132.081852 
L 34.948898 132.130396 
L 35.226944 132.328627 
L 35.783034 133.476805 
L 37.173259 137.048295 
L 37.729349 138.533922 
L 38.563484 139.785655 
L 39.39762 141.196157 
L 40.5098 143.569384 
L 41.62198 146.520216 
L 42.734161 150.062558 
L 44.124386 155.332223 
L 45.514611 161.55281 
L 47.182882 170.252027 
L 48.851152 180.267684 
L 50.797468 193.514508 
L 52.465738 205.070341 
L 52.743783 205.438066 
L 53.299873 203.600467 
L 54.134009 199.872826 
L 54.968144 194.972425 
L 55.802279 188.842307 
L 56.080324 186.515622 
L 56.358369 185.271946 
L 58.58273 187.363812 
L 60.80709 189.761568 
L 63.587541 193.114557 
L 66.924082 197.538957 
L 71.650848 204.216763 
L 73.041074 206.796842 
L 73.875209 208.384844 
L 74.709344 209.030903 
L 76.377615 210.008715 
L 77.76784 210.605408 
L 79.158065 210.982421 
L 80.548291 211.120152 
L 81.938516 210.999048 
L 83.050696 210.703061 
L 84.162877 210.218748 
L 84.718967 209.87509 
L 86.109192 208.422612 
L 87.777463 206.299752 
L 89.723778 206.368719 
L 91.392049 206.460009 
L 93.338364 204.199419 
L 95.006635 202.578781 
L 96.674905 201.245714 
L 98.343175 200.19606 
L 100.011446 199.426896 
L 102.791897 198.528315 
L 104.460167 198.193381 
L 105.294302 198.193124 
L 105.572347 198.455447 
L 106.684528 200.276625 
L 107.796708 202.490724 
L 108.908888 204.801347 
L 109.464978 204.733457 
L 110.577159 204.237392 
L 111.689339 203.458376 
L 112.801519 202.411699 
L 114.191745 200.751035 
L 115.58197 198.727213 
L 117.250241 195.862129 
L 118.918511 192.531308 
L 121.142872 187.482658 
L 123.089187 182.838064 
L 124.479413 181.209165 
L 125.869638 179.937778 
L 126.147683 179.726513 
L 126.981818 178.437834 
L 128.928134 175.519741 
L 130.874449 172.980509 
L 133.376855 170.114604 
L 140.884072 162.168131 
L 141.718207 161.661393 
L 142.552342 161.423958 
L 143.386478 161.455414 
L 144.220613 161.439352 
L 150.893695 160.6648 
L 152.84001 160.203835 
L 155.064371 159.232951 
L 157.010686 158.142399 
L 157.844821 157.591479 
L 158.122867 157.601999 
L 159.791137 160.940773 
L 160.903317 163.357619 
L 162.571588 163.285726 
L 164.239858 163.452911 
L 166.742264 163.967346 
L 170.078805 164.660718 
L 171.747075 164.794548 
L 173.137301 164.710135 
L 174.527526 164.390184 
L 175.917751 163.999829 
L 176.751887 164.145051 
L 177.586022 164.546182 
L 178.142112 164.885838 
L 179.254292 164.956704 
L 180.922563 165.21169 
L 182.868878 165.773181 
L 185.371284 166.757767 
L 188.151735 167.837388 
L 191.488276 168.951288 
L 192.878501 169.299205 
L 195.102861 171.657808 
L 195.380907 171.60367 
L 196.771132 170.20574 
L 198.161357 169.161886 
L 199.551583 168.430849 
L 200.941808 167.972604 
L 202.332033 167.746149 
L 204.000304 167.724648 
L 205.946619 167.954541 
L 209.005115 168.590952 
L 210.117296 168.823616 
L 210.673386 168.663255 
L 211.785566 168.336942 
L 212.341656 168.161187 
L 217.068422 163.784202 
L 219.292783 162.275329 
L 224.019549 159.497892 
L 227.634135 157.600767 
L 228.746316 158.627277 
L 229.302406 159.267537 
L 231.526766 158.629125 
L 232.360901 158.729856 
L 233.195037 159.013424 
L 234.307217 159.654249 
L 235.419397 160.567455 
L 236.809623 162.045437 
L 238.477893 164.233775 
L 240.424209 167.1902 
L 243.204659 171.882979 
L 246.5412 177.507181 
L 248.487516 177.323215 
L 250.711876 177.341535 
L 253.214282 177.605911 
L 255.994733 178.134612 
L 259.609319 179.125715 
L 262.38977 179.876662 
L 265.448265 178.320425 
L 266.560446 178.034907 
L 267.672626 177.955163 
L 268.784806 178.069082 
L 270.175032 178.463902 
L 271.565257 179.11694 
L 272.955482 180.00377 
L 274.345708 181.111409 
L 276.292023 183.040298 
L 278.516384 185.615656 
L 280.462699 188.070166 
L 280.740744 188.09957 
L 285.467511 185.91857 
L 295.477133 181.648269 
L 297.423449 180.813524 
L 298.257584 179.844231 
L 299.925855 177.991186 
L 301.594125 176.476463 
L 303.262396 175.299804 
L 304.652621 174.575951 
L 306.042846 174.0843 
L 307.433072 173.824234 
L 308.823297 173.794779 
L 310.213522 173.996962 
L 311.603748 174.451769 
L 312.993973 175.138007 
L 314.940289 176.393383 
L 316.330514 177.241368 
L 317.720739 177.801679 
L 318.83292 178.039114 
L 319.9451 178.085657 
L 321.05728 177.938434 
L 322.169461 177.594365 
L 323.281641 177.050629 
L 324.671866 176.084979 
L 326.062092 174.795581 
L 327.452317 173.176328 
L 328.564497 171.596537 
L 330.232768 168.763987 
L 331.622993 166.315429 
L 336.349759 168.165241 
L 339.13021 169.384235 
L 341.354571 170.60836 
L 343.300886 171.954974 
L 344.969157 173.371275 
L 346.359382 174.791065 
L 348.027653 176.86184 
L 348.583743 177.707977 
L 349.139833 178.89182 
L 350.530058 180.539757 
L 351.920284 181.823665 
L 353.310509 182.78172 
L 354.700734 183.451076 
L 356.09096 183.868988 
L 357.481185 184.072555 
L 359.149456 184.085589 
L 361.095771 183.861393 
L 363.876222 183.277425 
L 365.822537 182.763709 
L 366.378628 181.116746 
L 368.046898 179.625628 
L 369.993213 177.597393 
L 372.495619 174.641122 
L 376.110205 169.964918 
L 381.393062 163.135834 
L 383.061332 161.41118 
L 383.617422 161.219364 
L 384.173512 160.971203 
L 391.958774 156.676323 
L 393.627045 156.128328 
L 395.01727 155.884837 
L 396.407496 155.878012 
L 397.519676 156.069366 
L 398.631856 156.458336 
L 399.465991 156.96923 
L 400.578172 158.15333 
L 401.134262 159.748566 
L 402.246442 160.785955 
L 403.358622 161.453926 
L 404.192758 161.730669 
L 405.026893 161.830067 
L 406.139073 161.708706 
L 407.251253 161.324714 
L 408.363434 160.708931 
L 409.753659 159.658252 
L 411.42193 158.063631 
L 413.368245 155.869288 
L 416.982831 151.359397 
L 417.816966 150.36696 
L 418.651102 149.869151 
L 421.431552 147.374769 
L 423.655913 145.645034 
L 425.602228 144.395611 
L 426.436364 143.950349 
L 426.436364 143.950349 
" clip-path="url(#p05ec7bb3a5)" style="fill: none; stroke: #ff00ff; stroke-width: 3; stroke-linecap: square"/>
   </g>
   <g id="patch_3">
    <path d="M 7.2 331.2 
L 7.2 7.2 
" style="fill: none; stroke: #000000; stroke-width: 0.8; stroke-linejoin: miter; stroke-linecap: square"/>
   </g>
   <g id="patch_4">
    <path d="M 446.4 331.2 
L 446.4 7.2 
" style="fill: none; stroke: #000000; stroke-width: 0.8; stroke-linejoin: miter; stroke-linecap: square"/>
   </g>
   <g id="patch_5">
    <path d="M 7.2 331.2 
L 446.4 331.2 
" style="fill: none; stroke: #000000; stroke-width: 0.8; stroke-linejoin: miter; stroke-linecap: square"/>
   </g>
   <g id="patch_6">
    <path d="M 7.2 7.2 
L 446.4 7.2 
" style="fill: none; stroke: #000000; stroke-width: 0.8; stroke-linejoin: miter; stroke-linecap: square"/>
   </g>
  </g>
 </g>
 <defs>
  <clipPath id="p05ec7bb3a5">
   <rect x="7.2" y="7.2" width="439.2" height="324"/>
  </clipPath>
 </defs>
</svg>
