<?xml version="1.0" encoding="utf-8" standalone="no"?>
<!DOCTYPE svg PUBLIC "-//W3C//DTD SVG 1.1//EN"
  "http://www.w3.org/Graphics/SVG/1.1/DTD/svg11.dtd">
<svg xmlns:xlink="http://www.w3.org/1999/xlink" width="453.6pt" height="338.4pt" viewBox="0 0 453.6 338.4" xmlns="http://www.w3.org/2000/svg" version="1.1">
 <metadata>
  <rdf:RDF xmlns:dc="http://purl.org/dc/elements/1.1/" xmlns:cc="http://creativecommons.org/ns#" xmlns:rdf="http://www.w3.org/1999/02/22-rdf-syntax-ns#">
   <cc:Work>
    <dc:type rdf:resource="http://purl.org/dc/dcmitype/StillImage"/>
    <dc:date>2025-05-15T10:40:30.392440</dc:date>
    <dc:format>image/svg+xml</dc:format>
    <dc:creator>
     <cc:Agent>
      <dc:title>Matplotlib v3.10.1, https://matplotlib.org/</dc:title>
     </cc:Agent>
    </dc:creator>
   </cc:Work>
  </rdf:RDF>
 </metadata>
 <defs>
  <style type="text/css">*{stroke-linejoin: round; stroke-linecap: butt}</style>
 </defs>
 <g id="figure_1">
  <g id="patch_1">
   <path d="M 0 338.4 
L 453.6 338.4 
L 453.6 0 
L 0 0 
z
" style="fill: #ffffff"/>
  </g>
  <g id="axes_1">
   <g id="patch_2">
    <path d="M 7.2 331.2 
L 446.4 331.2 
L 446.4 7.2 
L 7.2 7.2 
z
" style="fill: #ffffff"/>
   </g>
   <g id="matplotlib.axis_1"/>
   <g id="matplotlib.axis_2"/>
   <g id="line2d_1">
    <path d="M 27.163636 245.32752 
L 31.422545 245.112061 
L 35.149091 244.696974 
L 38.343273 244.1251 
L 41.271273 243.389917 
L 44.199273 242.623029 
L 55.911273 241.62642 
L 60.436364 241.49775 
L 63.896727 241.366473 
L 67.090909 241.022528 
L 70.018909 240.483998 
L 72.680727 239.782151 
L 75.342545 238.853002 
L 76.141091 238.645619 
L 80.133818 237.944518 
L 83.860364 237.061332 
L 87.320727 236.001205 
L 90.514909 234.785134 
L 92.112 234.221323 
L 96.637091 233.882961 
L 104.888727 233.554693 
L 113.672727 233.301172 
L 118.197818 233.428341 
L 122.190545 233.751657 
L 126.981818 234.181312 
L 130.442182 234.158647 
L 135.233455 233.883224 
L 141.888 233.501059 
L 154.132364 233.877448 
L 157.858909 233.981539 
L 162.117818 233.144842 
L 170.901818 231.367998 
L 174.362182 230.932198 
L 175.693091 231.011649 
L 179.153455 231.426399 
L 182.347636 232.026595 
L 185.541818 232.858306 
L 188.469818 233.842344 
L 191.397818 235.055606 
L 192.994909 235.679214 
L 195.124364 236.165891 
L 197.253818 236.417631 
L 199.383273 236.451058 
L 201.778909 236.250908 
L 204.174545 235.822008 
L 206.836364 235.108933 
L 209.764364 234.07629 
L 211.893818 233.377656 
L 214.023273 232.907657 
L 216.418909 232.618391 
L 219.080727 232.546068 
L 222.008727 232.696341 
L 226.267636 233.160134 
L 229.728 233.68619 
L 232.123636 234.271604 
L 234.519273 235.084091 
L 236.648727 236.028092 
L 238.778182 237.210736 
L 240.907636 238.662727 
L 243.835636 240.803268 
L 245.432727 241.148845 
L 247.029818 241.267956 
L 248.893091 241.175707 
L 251.022545 240.841742 
L 254.216727 240.079458 
L 258.741818 239.007647 
L 259.540364 238.947613 
L 262.734545 238.919962 
L 265.662545 238.691011 
L 268.590545 238.238787 
L 271.252364 237.610624 
L 273.914182 236.755501 
L 276.309818 235.973273 
L 279.770182 235.25099 
L 282.698182 234.850426 
L 285.36 234.688855 
L 288.021818 234.750662 
L 290.417455 235.021468 
L 291.748364 235.30552 
L 295.741091 237.351432 
L 303.726545 241.378815 
L 306.920727 243.268994 
L 308.517818 244.371599 
L 313.042909 248.197559 
L 316.503273 250.854193 
L 319.431273 252.836906 
L 322.093091 254.371689 
L 324.488727 255.494167 
L 325.021091 255.341911 
L 327.416727 254.194884 
L 330.610909 252.414805 
L 339.394909 247.365093 
L 341.790545 246.093948 
L 343.92 244.904318 
L 346.315636 243.841035 
L 348.977455 242.923574 
L 352.171636 242.070445 
L 358.293818 240.728417 
L 361.221818 240.392776 
L 363.617455 240.332031 
L 365.746909 240.489476 
L 367.610182 240.82416 
L 369.473455 241.371705 
L 371.336727 242.160315 
L 373.2 243.218586 
L 374.530909 244.180481 
L 376.660364 246.182235 
L 379.056 248.775152 
L 381.717818 251.993095 
L 385.444364 256.891085 
L 391.034182 264.489332 
L 394.228364 262.496287 
L 399.285818 259.079576 
L 403.810909 256.113553 
L 406.738909 254.451728 
L 408.336 253.681929 
L 408.602182 253.656192 
L 409.134545 254.01682 
L 410.997818 255.41038 
L 413.127273 256.701969 
L 415.522909 257.88183 
L 418.983273 259.295826 
L 423.774545 261.250792 
L 426.170182 262.472314 
L 426.436364 262.625058 
L 426.436364 262.625058 
" clip-path="url(#p3edb74dae9)" style="fill: none; stroke: #ffa500; stroke-width: 3; stroke-linecap: square"/>
   </g>
   <g id="line2d_2">
    <path d="M 27.163636 160.349933 
L 30.357818 189.248996 
L 33.019636 211.31772 
L 35.149091 227.321486 
L 37.278545 241.598716 
L 39.141818 252.501033 
L 40.738909 260.545973 
L 42.069818 266.263886 
L 42.868364 269.21147 
L 43.134545 269.671129 
L 45.530182 270.442749 
L 48.990545 271.821619 
L 54.580364 274.066523 
L 56.976 274.792321 
L 59.105455 275.211065 
L 61.234909 274.838345 
L 63.098182 274.33297 
L 64.695273 273.672323 
L 66.026182 272.901932 
L 67.357091 271.883909 
L 68.688 270.573978 
L 70.018909 268.92845 
L 71.349818 266.903355 
L 72.680727 264.455936 
L 74.011636 261.542309 
L 75.342545 258.102442 
L 76.141091 254.894445 
L 77.472 248.575831 
L 78.802909 241.118807 
L 80.133818 232.262762 
L 81.464727 221.745235 
L 82.795636 209.300705 
L 84.126545 194.660157 
L 85.457455 177.550415 
L 86.788364 157.693353 
L 88.119273 134.807183 
L 89.450182 108.597645 
L 91.047273 72.334136 
L 91.845818 54.167392 
L 92.378182 53.599833 
L 92.910545 53.445583 
L 93.442909 53.694847 
L 93.975273 54.336986 
L 94.507636 55.359709 
L 95.306182 57.581491 
L 96.104727 60.592796 
L 97.169455 65.768703 
L 98.234182 72.186751 
L 99.565091 81.801113 
L 100.896 93.011919 
L 102.493091 108.313303 
L 104.356364 128.315714 
L 106.752 156.675229 
L 107.816727 169.676381 
L 108.082909 171.024062 
L 108.615273 170.954408 
L 109.413818 170.561744 
L 110.212364 169.857526 
L 111.010909 168.879809 
L 112.075636 167.214736 
L 113.406545 164.677521 
L 115.269818 160.58754 
L 118.730182 152.853737 
L 120.061091 150.364994 
L 121.125818 148.75568 
L 122.190545 147.584957 
L 122.989091 147.049508 
L 123.787636 146.850455 
L 124.053818 146.865606 
L 124.32 147.588223 
L 125.384727 152.155348 
L 126.449455 155.863304 
L 127.514182 158.802804 
L 128.578909 161.076658 
L 129.643636 162.787851 
L 130.708364 164.03252 
L 131.773091 164.908579 
L 132.837818 165.51255 
L 134.434909 166.119611 
L 136.830545 167.004149 
L 137.895273 167.636859 
L 138.96 168.554333 
L 140.024727 169.853638 
L 140.290909 170.249576 
L 140.557091 171.274344 
L 142.420364 182.335299 
L 144.017455 190.43875 
L 145.614545 197.417704 
L 147.211636 203.498101 
L 149.074909 209.694694 
L 151.204364 215.941104 
L 154.930909 225.953352 
L 156.794182 231.103697 
L 159.722182 241.966222 
L 161.851636 248.922668 
L 165.312 259.3417 
L 169.304727 271.424865 
L 171.700364 279.362312 
L 174.096 287.846048 
L 175.693091 290.249897 
L 177.556364 292.620093 
L 179.685818 294.962265 
L 182.613818 297.803474 
L 186.074182 301.209591 
L 187.937455 303.351083 
L 189.534545 305.494315 
L 191.131636 308.014766 
L 191.930182 309.257807 
L 194.059636 311.730799 
L 195.922909 313.510825 
L 197.52 314.748854 
L 199.117091 315.68198 
L 200.448 316.196769 
L 201.778909 316.449714 
L 202.843636 316.449714 
L 203.908364 316.253535 
L 204.973091 315.854121 
L 206.037818 315.232038 
L 207.102545 314.381966 
L 208.167273 313.280484 
L 209.498182 311.539018 
L 210.829091 309.717977 
L 214.023273 306.624846 
L 215.886545 305.09173 
L 217.483636 304.041288 
L 218.814545 303.407953 
L 220.145455 303.039326 
L 221.210182 302.964251 
L 222.274909 303.109287 
L 223.339636 303.497552 
L 224.404364 304.152877 
L 225.469091 305.10114 
L 226.533818 306.364536 
L 227.598545 307.978148 
L 229.195636 310.861293 
L 230.526545 312.745648 
L 231.591273 313.880781 
L 232.656 314.669381 
L 233.454545 315.025632 
L 234.253091 315.173532 
L 235.051636 315.107458 
L 235.850182 314.821475 
L 236.648727 314.310164 
L 237.447273 313.567694 
L 238.512 312.208357 
L 239.576727 310.41442 
L 240.641455 308.172485 
L 241.706182 305.46946 
L 243.037091 301.421724 
L 245.432727 293.636988 
L 246.231273 291.982974 
L 247.029818 290.721316 
L 247.828364 289.809057 
L 248.626909 289.204772 
L 249.425455 288.865499 
L 250.224 288.748181 
L 251.288727 288.863146 
L 252.619636 289.299587 
L 255.813818 290.527901 
L 256.878545 290.632229 
L 257.677091 290.502433 
L 258.475636 290.145262 
L 259.274182 289.516426 
L 260.072727 288.571642 
L 260.871273 287.264059 
L 261.936 285.383387 
L 263.266909 283.453414 
L 264.597818 281.885011 
L 265.928727 280.63123 
L 267.259636 279.644613 
L 268.856727 278.748001 
L 270.72 277.995815 
L 273.381818 277.225419 
L 276.576 276.294954 
L 277.640727 275.874266 
L 277.906909 275.534789 
L 281.633455 267.514494 
L 285.093818 260.231764 
L 287.223273 256.234862 
L 288.820364 253.636371 
L 290.151273 251.803873 
L 291.482182 250.329773 
L 292.546909 249.443085 
L 293.611636 248.84514 
L 294.144 248.66277 
L 294.410182 248.667988 
L 296.539636 251.684302 
L 298.935273 255.518882 
L 301.863273 260.679761 
L 306.122182 268.715295 
L 310.913455 277.713515 
L 311.179636 277.813546 
L 312.244364 277.123242 
L 313.042909 276.378518 
L 313.841455 275.393128 
L 314.64 274.125639 
L 315.704727 271.925846 
L 316.769455 269.053341 
L 317.834182 265.410335 
L 318.898909 260.900386 
L 319.963636 255.424886 
L 321.028364 248.887385 
L 322.359273 239.074071 
L 323.690182 227.259908 
L 325.021091 213.256284 
L 326.352 196.873152 
L 327.682909 177.822792 
L 329.546182 151.496759 
L 331.143273 131.661888 
L 332.740364 114.345324 
L 334.337455 99.542257 
L 335.668364 89.121378 
L 336.999273 80.437183 
L 338.064 74.737573 
L 339.128727 70.143446 
L 340.193455 66.652117 
L 340.992 64.75539 
L 341.790545 63.475116 
L 342.322909 62.963807 
L 342.855273 62.725287 
L 343.387636 62.759241 
L 343.92 63.064246 
L 344.186182 63.373149 
L 344.718545 64.525771 
L 346.581818 69.333575 
L 350.840727 80.561762 
L 352.171636 83.46055 
L 353.236364 85.363106 
L 354.301091 86.800087 
L 355.099636 87.519122 
L 355.898182 87.88898 
L 356.430545 87.923443 
L 356.962909 87.77525 
L 357.495273 87.433307 
L 358.027636 86.886517 
L 358.826182 85.658402 
L 359.624727 83.907322 
L 360.423273 81.594598 
L 360.955636 79.920344 
L 362.020364 77.520488 
L 363.351273 73.903773 
L 364.948364 68.809468 
L 366.811636 62.079269 
L 369.739636 50.530732 
L 373.732364 34.889142 
L 375.595636 28.438281 
L 377.192727 23.685709 
L 377.458909 23.251929 
L 378.523636 22.92698 
L 381.717818 22.187071 
L 383.581091 21.956416 
L 385.178182 21.948656 
L 386.775273 22.166407 
L 388.106182 22.554769 
L 389.437091 23.160496 
L 390.768 24.011378 
L 392.098909 25.135068 
L 393.429818 26.558426 
L 393.962182 27.323405 
L 395.026909 28.905103 
L 396.091636 30.048719 
L 397.156364 30.819422 
L 398.221091 31.281538 
L 399.285818 31.502466 
L 400.616727 31.536841 
L 405.408 31.343108 
L 406.472727 31.635947 
L 407.537455 32.19227 
L 408.602182 33.076913 
L 409.666909 34.355344 
L 409.933091 34.743496 
L 410.199273 35.792817 
L 412.328727 50.664722 
L 413.393455 56.058501 
L 414.458182 60.142443 
L 415.256727 62.412908 
L 416.055273 64.056913 
L 416.853818 65.121561 
L 417.386182 65.532852 
L 417.918545 65.721354 
L 418.450909 65.701094 
L 418.983273 65.485696 
L 419.781818 64.828213 
L 420.580364 63.811231 
L 421.645091 61.977706 
L 422.976 59.074407 
L 424.573091 54.979721 
L 426.436364 49.833783 
L 426.436364 49.833783 
" clip-path="url(#p3edb74dae9)" style="fill: none; stroke: #ff0000; stroke-width: 3; stroke-linecap: square"/>
   </g>
   <g id="line2d_3">
    <path d="M 27.163636 124.969066 
L 29.825455 115.463659 
L 35.415273 95.897223 
L 37.544727 87.366312 
L 39.408 78.913597 
L 41.005091 70.730089 
L 42.602182 61.50948 
L 44.199273 51.089127 
L 45.530182 41.926752 
L 46.328727 39.587185 
L 47.127273 37.849447 
L 47.925818 36.689679 
L 48.458182 36.260463 
L 48.990545 36.112464 
L 49.522909 36.248156 
L 50.055273 36.674862 
L 50.587636 37.39976 
L 51.12 38.429647 
L 51.918545 40.580133 
L 52.717091 43.458765 
L 53.515636 47.08282 
L 54.580364 53.108239 
L 55.645091 60.566953 
L 56.709818 69.472972 
L 58.040727 82.688898 
L 59.371636 98.316847 
L 60.702545 116.364173 
L 62.299636 141.417332 
L 63.630545 163.748513 
L 65.227636 160.570932 
L 67.090909 156.286252 
L 68.954182 151.395635 
L 71.083636 145.092106 
L 73.213091 138.048791 
L 75.608727 129.276727 
L 78.004364 119.614279 
L 80.666182 107.838178 
L 81.730909 103.177864 
L 83.061818 100.332202 
L 84.392727 97.935858 
L 85.457455 96.430372 
L 86.256 95.596783 
L 87.054545 95.057366 
L 87.853091 94.843706 
L 88.385455 94.899746 
L 88.917818 95.126854 
L 89.450182 95.535617 
L 90.248727 96.513097 
L 91.047273 97.960261 
L 91.845818 99.920437 
L 92.644364 102.428071 
L 93.709091 106.685362 
L 94.773818 112.407181 
L 95.838545 119.478744 
L 96.903273 127.999034 
L 97.968 138.066032 
L 98.766545 146.69036 
L 99.032727 146.795434 
L 100.629818 146.0057 
L 102.226909 144.933222 
L 103.557818 143.773033 
L 104.888727 142.327625 
L 106.219636 140.556864 
L 107.550545 138.421178 
L 108.881455 135.881241 
L 110.212364 132.898324 
L 111.809455 128.760766 
L 113.406545 123.876118 
L 115.003636 118.163709 
L 115.269818 116.59186 
L 115.802182 110.007625 
L 117.399273 89.648523 
L 118.996364 72.09595 
L 120.327273 59.567966 
L 121.658182 48.908637 
L 122.989091 40.08027 
L 124.053818 34.30975 
L 125.118545 29.665922 
L 126.183273 26.128069 
L 126.981818 24.187854 
L 127.780364 22.843271 
L 128.312727 22.280259 
L 128.845091 21.979942 
L 129.377455 21.940264 
L 129.909818 22.158366 
L 130.442182 22.628857 
L 130.974545 23.348436 
L 131.506909 24.31368 
L 132.039273 25.929841 
L 133.902545 32.129664 
L 135.765818 37.615773 
L 138.161455 43.917932 
L 141.888 52.914488 
L 145.082182 60.846326 
L 147.211636 66.741812 
L 149.074909 71.945967 
L 151.204364 77.143046 
L 153.333818 81.749866 
L 155.463273 85.864355 
L 157.858909 90.028739 
L 160.786909 94.654572 
L 163.714909 99.024769 
L 163.981091 99.26076 
L 165.045818 99.140184 
L 166.110545 98.787952 
L 167.175273 98.220129 
L 168.506182 97.229885 
L 169.837091 95.959618 
L 171.434182 94.110942 
L 173.297455 91.576026 
L 175.426909 88.28749 
L 178.354909 83.324471 
L 179.685818 81.046035 
L 179.952 80.860184 
L 181.016727 80.796174 
L 182.081455 80.964293 
L 183.146182 81.40787 
L 184.210909 82.173113 
L 185.275636 83.301735 
L 186.340364 84.836154 
L 187.405091 86.819329 
L 188.469818 89.294395 
L 189.534545 92.309528 
L 190.599273 95.905246 
L 191.930182 101.27982 
L 193.261091 107.711158 
L 194.592 115.329722 
L 196.721455 128.227898 
L 198.052364 134.467697 
L 199.117091 138.511785 
L 200.181818 141.749233 
L 201.246545 144.224423 
L 202.045091 145.602397 
L 202.843636 146.587743 
L 203.642182 147.193944 
L 204.440727 147.433991 
L 204.973091 147.400845 
L 205.771636 147.072806 
L 206.570182 146.42447 
L 207.368727 145.471392 
L 208.433455 143.749841 
L 209.498182 141.548021 
L 210.829091 138.168964 
L 211.361455 136.505437 
L 215.354182 120.605787 
L 217.483636 113.053639 
L 219.346909 107.156116 
L 220.944 102.726036 
L 222.541091 98.944291 
L 223.872 96.345962 
L 224.936727 94.657855 
L 226.001455 93.339256 
L 226.8 92.646064 
L 228.663273 93.161358 
L 230.526545 93.890418 
L 232.656 94.982804 
L 234.785455 96.350737 
L 236.914909 97.990546 
L 239.044364 99.899844 
L 241.44 102.367273 
L 241.972364 102.939467 
L 242.238545 102.987554 
L 243.303273 102.353772 
L 244.634182 101.259367 
L 246.231273 99.575808 
L 248.094545 97.229657 
L 250.756364 93.457972 
L 254.749091 87.77899 
L 256.612364 85.48909 
L 257.410909 84.748425 
L 259.806545 84.743123 
L 264.065455 85.039087 
L 266.993455 85.147409 
L 269.122909 85.022005 
L 270.986182 84.692702 
L 272.583273 84.201565 
L 272.849455 84.454147 
L 276.043636 93.378249 
L 277.374545 96.200367 
L 278.705455 98.530647 
L 280.036364 100.41268 
L 281.367273 101.888742 
L 282.698182 102.997421 
L 284.029091 103.776972 
L 285.36 104.263895 
L 286.690909 104.497973 
L 288.021818 104.517636 
L 288.554182 104.474026 
L 289.086545 102.256791 
L 293.345455 82.517339 
L 296.007273 71.259885 
L 298.136727 63.182962 
L 300 57.003275 
L 301.597091 52.498545 
L 302.928 49.387836 
L 303.992727 47.365967 
L 304.525091 46.687979 
L 304.791273 46.90185 
L 305.323636 47.997326 
L 306.122182 50.329379 
L 306.920727 53.405239 
L 307.985455 58.513027 
L 309.316364 66.179607 
L 311.978182 83.466835 
L 315.172364 104.013841 
L 316.769455 112.807394 
L 318.100364 118.806971 
L 319.165091 122.500794 
L 319.963636 124.51715 
L 320.496 125.463486 
L 320.762182 125.809608 
L 321.028364 125.733853 
L 322.891636 118.917857 
L 324.754909 112.936486 
L 326.618182 107.710544 
L 328.481455 103.202671 
L 330.344727 99.327 
L 332.208 96.020451 
L 334.071273 93.214852 
L 335.934545 90.845492 
L 337.797818 88.850239 
L 338.064 88.592021 
L 338.330182 88.729241 
L 339.128727 90.913575 
L 340.725818 95.097728 
L 342.322909 98.612811 
L 343.653818 101.047129 
L 344.984727 103.056287 
L 346.315636 104.706313 
L 347.646545 106.020629 
L 348.977455 107.025656 
L 350.308364 107.739441 
L 351.639273 108.190076 
L 352.970182 108.398732 
L 354.301091 108.388216 
L 355.898182 108.121238 
L 356.164364 108.051785 
L 357.761455 103.246281 
L 360.157091 96.498175 
L 362.818909 89.672259 
L 366.013091 82.146936 
L 373.998545 64.009652 
L 374.530909 61.070977 
L 376.128 52.00948 
L 377.458909 45.641326 
L 378.789818 40.313031 
L 380.120727 35.978018 
L 381.185455 33.202809 
L 382.250182 31.014033 
L 383.314909 29.387936 
L 384.113455 28.524342 
L 384.912 27.95573 
L 385.710545 27.674952 
L 386.509091 27.673846 
L 387.307636 27.939859 
L 388.106182 28.464019 
L 388.904727 29.237197 
L 389.969455 30.640102 
L 391.034182 32.451682 
L 391.566545 33.503864 
L 392.098909 33.761977 
L 393.429818 34.28949 
L 395.026909 35.187617 
L 396.890182 36.527898 
L 399.285818 38.571852 
L 407.005091 45.443643 
L 408.868364 46.674057 
L 409.134545 47.63895 
L 409.400727 50.498253 
L 411.530182 85.761581 
L 414.724364 143.244396 
L 419.249455 224.458093 
L 421.378909 258.638036 
L 422.976 281.105107 
L 424.306909 297.143211 
L 425.371636 307.876934 
L 426.436364 316.472727 
L 426.436364 316.472727 
" clip-path="url(#p3edb74dae9)" style="fill: none; stroke: #0000ff; stroke-width: 3; stroke-linecap: square"/>
   </g>
   <g id="patch_3">
    <path d="M 7.2 331.2 
L 7.2 7.2 
" style="fill: none; stroke: #000000; stroke-width: 0.8; stroke-linejoin: miter; stroke-linecap: square"/>
   </g>
   <g id="patch_4">
    <path d="M 446.4 331.2 
L 446.4 7.2 
" style="fill: none; stroke: #000000; stroke-width: 0.8; stroke-linejoin: miter; stroke-linecap: square"/>
   </g>
   <g id="patch_5">
    <path d="M 7.2 331.2 
L 446.4 331.2 
" style="fill: none; stroke: #000000; stroke-width: 0.8; stroke-linejoin: miter; stroke-linecap: square"/>
   </g>
   <g id="patch_6">
    <path d="M 7.2 7.2 
L 446.4 7.2 
" style="fill: none; stroke: #000000; stroke-width: 0.8; stroke-linejoin: miter; stroke-linecap: square"/>
   </g>
  </g>
 </g>
 <defs>
  <clipPath id="p3edb74dae9">
   <rect x="7.2" y="7.2" width="439.2" height="324"/>
  </clipPath>
 </defs>
</svg>
