<?xml version="1.0" encoding="utf-8" standalone="no"?>
<!DOCTYPE svg PUBLIC "-//W3C//DTD SVG 1.1//EN"
  "http://www.w3.org/Graphics/SVG/1.1/DTD/svg11.dtd">
<svg xmlns:xlink="http://www.w3.org/1999/xlink" width="453.6pt" height="338.4pt" viewBox="0 0 453.6 338.4" xmlns="http://www.w3.org/2000/svg" version="1.1">
 <metadata>
  <rdf:RDF xmlns:dc="http://purl.org/dc/elements/1.1/" xmlns:cc="http://creativecommons.org/ns#" xmlns:rdf="http://www.w3.org/1999/02/22-rdf-syntax-ns#">
   <cc:Work>
    <dc:type rdf:resource="http://purl.org/dc/dcmitype/StillImage"/>
    <dc:date>2025-05-15T10:38:32.012715</dc:date>
    <dc:format>image/svg+xml</dc:format>
    <dc:creator>
     <cc:Agent>
      <dc:title>Matplotlib v3.10.1, https://matplotlib.org/</dc:title>
     </cc:Agent>
    </dc:creator>
   </cc:Work>
  </rdf:RDF>
 </metadata>
 <defs>
  <style type="text/css">*{stroke-linejoin: round; stroke-linecap: butt}</style>
 </defs>
 <g id="figure_1">
  <g id="patch_1">
   <path d="M 0 338.4 
L 453.6 338.4 
L 453.6 0 
L 0 0 
z
" style="fill: #ffffff"/>
  </g>
  <g id="axes_1">
   <g id="patch_2">
    <path d="M 7.2 331.2 
L 446.4 331.2 
L 446.4 7.2 
L 7.2 7.2 
z
" style="fill: #ffffff"/>
   </g>
   <g id="matplotlib.axis_1"/>
   <g id="matplotlib.axis_2"/>
   <g id="line2d_1">
    <path d="M 27.163636 111.821451 
L 29.293091 104.395673 
L 30.091636 102.340605 
L 30.890182 100.899726 
L 31.422545 100.2746 
L 31.954909 99.886835 
L 32.487273 99.696349 
L 33.285818 99.68118 
L 34.350545 99.940241 
L 36.746182 100.615402 
L 39.940364 101.346569 
L 44.199273 102.706812 
L 48.724364 103.527234 
L 51.12 104.405697 
L 52.983273 105.273258 
L 54.314182 106.142206 
L 55.378909 107.074673 
L 56.709818 108.564815 
L 58.573091 111.068498 
L 60.436364 113.456538 
L 61.501091 114.487372 
L 62.565818 115.203931 
L 63.896727 115.758113 
L 66.824727 116.814316 
L 69.486545 117.937303 
L 70.551273 118.148576 
L 72.148364 118.193046 
L 73.745455 118.24826 
L 74.810182 118.474982 
L 76.141091 118.99693 
L 78.536727 119.994583 
L 79.601455 120.199219 
L 81.198545 120.245041 
L 83.061818 120.340073 
L 84.658909 120.692059 
L 87.054545 121.251174 
L 90.514909 121.798578 
L 91.313455 122.227864 
L 92.112 122.883574 
L 93.176727 124.097801 
L 96.370909 128.134393 
L 97.169455 128.681675 
L 97.968 128.961364 
L 99.032727 129.021617 
L 104.090182 128.580041 
L 105.154909 128.199966 
L 106.752 127.345484 
L 108.615273 126.413492 
L 110.744727 125.456429 
L 111.543273 124.862588 
L 112.341818 124.017867 
L 113.406545 122.47309 
L 115.003636 119.549707 
L 116.600727 116.730713 
L 117.665455 115.354424 
L 118.464 114.680105 
L 119.262545 114.302259 
L 120.061091 114.169252 
L 121.125818 114.252223 
L 122.989091 114.715639 
L 124.32 114.96564 
L 125.118545 114.858055 
L 125.650909 114.567446 
L 126.183273 114.024975 
L 126.715636 113.166069 
L 127.248 111.938359 
L 128.046545 109.344524 
L 128.845091 105.875017 
L 129.909818 100.201759 
L 132.571636 85.353906 
L 133.636364 80.793962 
L 134.434909 78.143736 
L 135.233455 76.126538 
L 136.032 74.66259 
L 136.830545 73.641113 
L 137.629091 72.940916 
L 138.693818 72.321373 
L 140.024727 71.813943 
L 142.154182 71.287957 
L 143.485091 70.860357 
L 144.283636 70.38179 
L 145.082182 69.638001 
L 145.880727 68.59644 
L 146.945455 66.809685 
L 149.341091 62.495949 
L 150.139636 61.460779 
L 150.938182 60.79278 
L 151.470545 60.569569 
L 152.002909 60.523765 
L 152.535273 60.645939 
L 153.333818 61.108126 
L 154.132364 61.838625 
L 155.463273 63.431945 
L 161.053091 70.718836 
L 161.851636 71.329425 
L 162.650182 71.618402 
L 163.182545 71.604901 
L 163.714909 71.421964 
L 164.513455 70.85451 
L 165.578182 69.697973 
L 167.441455 67.540781 
L 168.24 66.944534 
L 169.038545 66.677942 
L 169.837091 66.748624 
L 170.635636 67.103015 
L 171.700364 67.853335 
L 177.822545 72.848956 
L 179.153455 73.892256 
L 179.952 74.289308 
L 180.750545 74.465152 
L 181.815273 74.41603 
L 183.146182 74.276001 
L 183.944727 74.433322 
L 184.477091 74.735519 
L 185.009455 75.235328 
L 185.808 76.39169 
L 186.606545 78.023529 
L 187.671273 80.779372 
L 190.865455 89.540903 
L 191.930182 91.757032 
L 193.261091 93.986363 
L 194.592 95.78546 
L 195.656727 96.93436 
L 196.721455 97.736542 
L 197.52 98.05101 
L 198.318545 98.105329 
L 199.117091 97.936947 
L 201.512727 97.155938 
L 202.311273 97.24623 
L 203.109818 97.67506 
L 203.908364 98.454488 
L 204.973091 99.937274 
L 208.433455 105.292956 
L 209.764364 106.751392 
L 211.361455 108.122063 
L 212.958545 109.212922 
L 214.289455 109.867947 
L 215.620364 110.262893 
L 218.282182 110.884209 
L 219.346909 111.42324 
L 220.411636 112.228704 
L 222.008727 113.778853 
L 223.872 115.52781 
L 224.936727 116.263523 
L 226.001455 116.760418 
L 227.332364 117.0939 
L 228.663273 117.19448 
L 230.260364 117.079433 
L 231.591273 116.779625 
L 232.922182 116.276462 
L 235.051636 115.184181 
L 236.648727 114.448555 
L 237.979636 114.082507 
L 241.972364 113.304132 
L 243.037091 112.671298 
L 244.101818 111.770608 
L 245.432727 110.327675 
L 247.029818 108.244079 
L 248.893091 105.430492 
L 251.554909 101.317496 
L 252.619636 100.098897 
L 253.418182 99.498823 
L 254.216727 99.195451 
L 255.015273 99.161392 
L 256.08 99.399402 
L 257.677091 99.817803 
L 258.475636 99.820191 
L 259.274182 99.595646 
L 260.072727 99.132231 
L 261.137455 98.190354 
L 262.468364 96.643839 
L 264.065455 94.395494 
L 265.396364 92.085615 
L 266.727273 89.212407 
L 270.453818 80.401772 
L 271.252364 79.172798 
L 272.050909 78.288049 
L 273.115636 77.475211 
L 274.712727 76.318533 
L 275.777455 75.166929 
L 276.842182 73.643782 
L 279.504 69.618654 
L 280.568727 68.497686 
L 281.633455 67.71529 
L 283.230545 66.893323 
L 284.827636 66.267951 
L 285.892364 66.100341 
L 286.690909 66.23965 
L 287.489455 66.674765 
L 288.288 67.412392 
L 289.352727 68.757045 
L 291.216 71.248298 
L 292.014545 72.015419 
L 292.813091 72.479326 
L 293.611636 72.635665 
L 294.410182 72.537087 
L 295.741091 72.048653 
L 300 70.114443 
L 301.330909 69.072267 
L 303.726545 67.009264 
L 304.791273 66.431224 
L 305.856 66.139123 
L 309.316364 65.5496 
L 312.244364 64.580002 
L 313.042909 64.646172 
L 313.841455 64.990889 
L 314.64 65.628235 
L 315.704727 66.877487 
L 317.035636 68.881624 
L 318.632727 71.706604 
L 319.697455 73.943731 
L 320.762182 76.673416 
L 321.826909 80.025962 
L 323.424 85.999907 
L 325.287273 92.823488 
L 326.352 95.756299 
L 327.150545 97.308853 
L 327.949091 98.338143 
L 328.747636 98.954965 
L 329.812364 99.387534 
L 333.272727 100.445405 
L 336.200727 101.70175 
L 337.531636 102.471259 
L 338.862545 103.484906 
L 342.056727 106.071577 
L 343.121455 106.589874 
L 344.186182 106.883906 
L 347.646545 107.612281 
L 348.711273 108.173134 
L 350.042182 109.135358 
L 354.567273 112.65634 
L 356.430545 113.747691 
L 357.761455 114.290566 
L 359.092364 114.573117 
L 360.423273 114.59113 
L 362.020364 114.33142 
L 371.602909 112.127194 
L 373.466182 111.984602 
L 375.329455 111.848383 
L 376.394182 111.572942 
L 377.458909 111.059368 
L 378.789818 110.104412 
L 381.717818 107.838722 
L 382.782545 107.323656 
L 384.113455 106.934152 
L 386.775273 106.281287 
L 387.84 105.777931 
L 388.638545 105.183142 
L 389.437091 104.304766 
L 390.235636 103.052038 
L 391.034182 101.363388 
L 392.098909 98.44097 
L 393.696 93.087218 
L 395.559273 86.871576 
L 396.624 83.979074 
L 397.422545 82.278854 
L 398.221091 81.023176 
L 399.019636 80.209847 
L 399.818182 79.790726 
L 400.616727 79.669868 
L 401.947636 79.7843 
L 403.544727 79.864093 
L 405.141818 79.920203 
L 405.940364 80.200998 
L 406.738909 80.790433 
L 407.537455 81.702956 
L 410.199273 85.27636 
L 410.731636 85.623887 
L 411.264 85.744656 
L 411.796364 85.640706 
L 412.594909 85.137946 
L 414.458182 83.569504 
L 414.990545 83.377859 
L 415.522909 83.412182 
L 416.055273 83.696278 
L 416.587636 84.226354 
L 417.386182 85.413598 
L 418.717091 87.977903 
L 420.314182 90.933186 
L 421.378909 92.452646 
L 422.709818 93.911485 
L 424.573091 95.573433 
L 426.170182 96.726318 
L 426.436364 96.879725 
L 426.436364 96.879725 
" clip-path="url(#pdfec5c7f8d)" style="fill: none; stroke: #ffa500; stroke-width: 3; stroke-linecap: square"/>
   </g>
   <g id="line2d_2">
    <path d="M 27.163636 313.048497 
L 28.228364 304.630092 
L 28.760727 301.662951 
L 29.293091 299.740569 
L 29.559273 299.185271 
L 29.825455 298.893734 
L 30.091636 298.853246 
L 30.357818 299.046237 
L 30.890182 300.035787 
L 31.422545 301.641534 
L 34.350545 311.850732 
L 35.149091 313.35049 
L 35.947636 314.287169 
L 37.278545 315.306249 
L 38.875636 316.377445 
L 39.408 316.472727 
L 39.674182 316.387567 
L 39.940364 316.179602 
L 40.472727 315.287761 
L 41.005091 313.590076 
L 41.537455 310.919155 
L 42.069818 307.184232 
L 42.868364 299.64604 
L 43.933091 286.924279 
L 45.796364 264.268545 
L 46.594909 256.79234 
L 47.393455 251.029382 
L 48.458182 245.129648 
L 49.789091 237.982878 
L 50.853818 230.723674 
L 52.184727 219.515641 
L 54.314182 201.120182 
L 55.911273 189.634497 
L 56.976 181.771137 
L 57.774545 174.4937 
L 58.573091 165.260494 
L 59.637818 149.58381 
L 62.565818 102.531582 
L 63.364364 94.818127 
L 63.896727 91.663264 
L 64.429091 90.006495 
L 64.695273 89.675208 
L 64.961455 89.629211 
L 65.227636 89.82872 
L 65.76 90.802462 
L 66.558545 93.098103 
L 67.889455 97.045597 
L 68.688 98.6843 
L 69.220364 99.372857 
L 69.752727 99.756584 
L 70.285091 99.874966 
L 70.817455 99.768224 
L 71.349818 99.471664 
L 72.148364 98.719851 
L 72.946909 97.605572 
L 73.745455 96.057968 
L 74.544 93.939927 
L 75.342545 91.102692 
L 76.141091 87.4654 
L 77.205818 81.494896 
L 79.867636 65.595177 
L 80.666182 62.124529 
L 81.464727 59.619898 
L 82.263273 57.979685 
L 83.061818 56.941547 
L 84.925091 54.97549 
L 85.723636 53.6709 
L 86.522182 51.918257 
L 87.853091 48.297942 
L 88.917818 45.571891 
L 89.450182 44.625748 
L 89.982545 44.154871 
L 90.248727 44.141318 
L 90.514909 44.29641 
L 90.781091 44.633034 
L 91.313455 45.889695 
L 91.845818 47.96023 
L 92.378182 50.842461 
L 93.176727 56.554554 
L 94.241455 66.14546 
L 97.435636 96.597455 
L 98.500364 103.91514 
L 99.298909 107.90914 
L 100.097455 110.572621 
L 100.629818 111.623574 
L 101.162182 112.121225 
L 101.428364 112.173016 
L 101.694545 112.099051 
L 102.226909 111.595291 
L 102.759273 110.654099 
L 103.557818 108.52835 
L 104.356364 105.702088 
L 105.687273 99.942804 
L 112.874182 66.745095 
L 114.737455 59.509223 
L 118.464 45.52312 
L 120.593455 36.154388 
L 122.456727 28.212824 
L 123.521455 24.651726 
L 124.32 22.833247 
L 124.852364 22.1426 
L 125.384727 21.927273 
L 125.650909 22.008418 
L 126.183273 22.556016 
L 126.715636 23.60797 
L 127.248 25.124464 
L 128.046545 28.111594 
L 131.506909 42.566678 
L 132.571636 45.460883 
L 134.168727 48.86745 
L 136.830545 54.188389 
L 137.629091 55.263009 
L 138.161455 55.683534 
L 138.693818 55.848511 
L 139.226182 55.779322 
L 140.024727 55.36164 
L 141.355636 54.53337 
L 141.888 54.399872 
L 142.420364 54.460687 
L 142.952727 54.725366 
L 143.751273 55.444874 
L 146.146909 57.977508 
L 146.945455 58.422226 
L 149.074909 59.36944 
L 149.873455 60.203556 
L 150.672 61.460972 
L 153.333818 66.370567 
L 153.866182 66.763336 
L 154.398545 66.748782 
L 154.930909 66.287421 
L 155.463273 65.380516 
L 156.261818 63.298113 
L 158.923636 54.97549 
L 159.456 54.08407 
L 159.988364 53.674412 
L 160.254545 53.65819 
L 160.786909 53.99146 
L 161.319273 54.773803 
L 162.117818 56.622988 
L 163.182545 59.860489 
L 166.376727 69.963951 
L 170.635636 82.578979 
L 171.434182 83.974071 
L 171.966545 84.439944 
L 172.498909 84.487206 
L 173.031273 84.109605 
L 173.563636 83.335128 
L 174.362182 81.569177 
L 175.959273 77.034425 
L 177.024 74.297419 
L 177.822545 72.73693 
L 178.621091 71.631516 
L 179.419636 70.894521 
L 180.484364 70.242358 
L 182.613818 69.042826 
L 186.340364 66.69039 
L 187.671273 65.882625 
L 188.469818 65.124967 
L 189.268364 63.982984 
L 190.066909 62.35901 
L 190.865455 60.240196 
L 192.196364 55.897107 
L 194.059636 49.718052 
L 195.124364 47.036506 
L 195.922909 45.632618 
L 196.721455 44.731402 
L 197.52 44.22924 
L 198.584727 43.913771 
L 200.181818 43.480184 
L 201.778909 42.704969 
L 202.843636 42.31622 
L 203.376 42.300665 
L 203.908364 42.461604 
L 204.440727 42.825756 
L 205.239273 43.763366 
L 206.037818 45.113286 
L 207.634909 48.439727 
L 208.965818 50.993199 
L 210.030545 52.493787 
L 211.095273 53.517652 
L 213.224727 55.283585 
L 214.023273 56.317141 
L 214.821818 57.708651 
L 215.886545 60.102836 
L 217.749818 65.133499 
L 223.073455 80.143361 
L 225.735273 88.518864 
L 226.533818 90.35985 
L 227.332364 91.596006 
L 227.864727 92.040302 
L 228.397091 92.176398 
L 228.929455 92.023571 
L 229.461818 91.619268 
L 230.260364 90.667612 
L 232.389818 87.796669 
L 233.188364 87.199966 
L 233.720727 87.037588 
L 234.253091 87.055742 
L 235.051636 87.352882 
L 237.181091 88.441476 
L 237.713455 88.47227 
L 238.245818 88.323112 
L 238.778182 87.978868 
L 239.576727 87.105689 
L 240.375273 85.870271 
L 241.706182 83.338305 
L 244.368 78.240735 
L 245.965091 75.613982 
L 247.029818 74.185656 
L 247.828364 73.464479 
L 248.360727 73.237196 
L 248.893091 73.264215 
L 249.425455 73.580509 
L 249.957818 74.201141 
L 250.490182 75.121177 
L 251.288727 76.983231 
L 254.216727 84.585766 
L 254.749091 85.259102 
L 255.281455 85.533647 
L 255.813818 85.394356 
L 256.346182 84.860821 
L 256.878545 83.988291 
L 257.943273 81.586996 
L 259.274182 78.545652 
L 259.806545 77.683674 
L 260.338909 77.155985 
L 260.871273 77.012849 
L 261.403636 77.272857 
L 261.936 77.923019 
L 262.468364 78.926869 
L 263.266909 80.968541 
L 264.597818 85.235753 
L 267.525818 94.933068 
L 268.856727 98.671923 
L 269.921455 101.090633 
L 270.72 102.38878 
L 271.252364 102.925422 
L 271.784727 103.147018 
L 272.317091 103.014345 
L 272.849455 102.502123 
L 273.381818 101.601591 
L 274.180364 99.563343 
L 275.245091 95.854017 
L 277.108364 88.918059 
L 277.906909 86.836815 
L 278.439273 86.002698 
L 278.971636 85.675695 
L 279.237818 85.708982 
L 279.770182 86.16232 
L 280.302545 87.098491 
L 281.101091 89.261793 
L 282.165818 93.085901 
L 284.295273 101.068372 
L 285.36 104.058013 
L 286.158545 105.608636 
L 286.690909 106.28917 
L 287.223273 106.684011 
L 287.755636 106.79444 
L 288.288 106.625548 
L 288.820364 106.184271 
L 289.352727 105.484741 
L 290.151273 103.998199 
L 291.216 101.409192 
L 293.079273 96.730304 
L 293.877818 95.440936 
L 294.410182 95.03823 
L 294.676364 94.998816 
L 294.942545 95.075361 
L 295.474909 95.590252 
L 296.007273 96.592856 
L 296.539636 98.063931 
L 297.338182 101.038263 
L 298.402909 106.008515 
L 300.798545 117.488758 
L 301.863273 121.270942 
L 302.661818 123.362298 
L 303.460364 124.871436 
L 304.258909 125.897864 
L 305.057455 126.537 
L 305.856 126.847009 
L 306.654545 126.835896 
L 307.186909 126.637036 
L 307.985455 126.024199 
L 308.784 125.023842 
L 309.848727 123.174077 
L 311.978182 119.106639 
L 312.776727 118.120345 
L 313.309091 117.781368 
L 313.841455 117.731526 
L 314.373818 117.978877 
L 314.906182 118.50876 
L 315.704727 119.758627 
L 316.769455 122.004338 
L 318.632727 126.124322 
L 319.431273 127.374206 
L 319.963636 127.8543 
L 320.496 127.963728 
L 321.028364 127.629527 
L 321.560727 126.791812 
L 322.093091 125.412678 
L 322.625455 123.484525 
L 323.424 119.639753 
L 324.488727 113.190086 
L 326.884364 98.088106 
L 327.949091 92.901104 
L 329.013818 88.84829 
L 330.078545 85.611527 
L 331.409455 82.30317 
L 332.474182 80.189288 
L 333.272727 78.989352 
L 334.071273 78.178989 
L 334.869818 77.771929 
L 335.402182 77.710869 
L 336.200727 77.883939 
L 337.265455 78.456396 
L 339.128727 79.589496 
L 339.927273 79.765585 
L 340.459636 79.669886 
L 340.992 79.355593 
L 341.524364 78.791932 
L 342.056727 77.95857 
L 342.855273 76.206085 
L 343.92 73.087774 
L 346.315636 65.529516 
L 347.114182 63.892147 
L 347.646545 63.261561 
L 348.178909 63.047813 
L 348.711273 63.266916 
L 349.243636 63.914303 
L 349.776 64.965591 
L 350.574545 67.208634 
L 351.639273 71.162219 
L 353.236364 78.258379 
L 356.430545 92.691974 
L 357.495273 96.663555 
L 358.293818 99.065938 
L 359.092364 100.838911 
L 359.624727 101.632209 
L 360.157091 102.108283 
L 360.689455 102.280106 
L 361.221818 102.178227 
L 361.754182 101.848626 
L 362.552727 101.056241 
L 364.682182 98.649925 
L 365.480727 98.077976 
L 366.279273 97.762262 
L 367.344 97.611014 
L 368.674909 97.403727 
L 369.473455 97.016067 
L 370.272 96.311112 
L 371.070545 95.255647 
L 372.135273 93.346647 
L 373.466182 90.361431 
L 375.595636 84.907081 
L 377.725091 78.945935 
L 379.854545 72.208152 
L 381.717818 66.459999 
L 382.782545 63.877172 
L 383.581091 62.412803 
L 384.379636 61.309391 
L 385.710545 59.92399 
L 387.84 57.947311 
L 388.372364 57.664479 
L 388.904727 57.644816 
L 389.437091 58.002104 
L 389.969455 58.83522 
L 390.501818 60.206997 
L 391.034182 62.128532 
L 391.832727 65.91198 
L 394.494545 79.931896 
L 395.026909 81.667228 
L 395.559273 82.783843 
L 396.091636 83.275313 
L 396.357818 83.299488 
L 396.624 83.187725 
L 397.156364 82.606823 
L 397.688727 81.642544 
L 398.753455 79.0449 
L 400.350545 75.018105 
L 401.415273 72.967742 
L 402.213818 71.838979 
L 403.278545 70.748541 
L 404.609455 69.741601 
L 406.206545 68.803077 
L 407.271273 68.438679 
L 408.069818 68.368155 
L 409.134545 68.521492 
L 410.997818 68.906887 
L 411.796364 68.81721 
L 412.594909 68.449143 
L 413.393455 67.795803 
L 414.724364 66.297375 
L 415.789091 65.1447 
L 416.587636 64.576193 
L 417.12 64.40997 
L 417.652364 64.435058 
L 418.184727 64.649876 
L 418.983273 65.288258 
L 419.781818 66.235805 
L 420.846545 67.917258 
L 421.645091 69.594444 
L 422.443636 71.874126 
L 423.242182 75.056921 
L 424.040727 79.386299 
L 424.839273 84.905817 
L 426.170182 95.955914 
L 426.436364 98.260263 
L 426.436364 98.260263 
" clip-path="url(#pdfec5c7f8d)" style="fill: none; stroke: #ff0000; stroke-width: 3; stroke-linecap: square"/>
   </g>
   <g id="line2d_3">
    <path d="M 27.163636 316.472727 
L 27.429818 316.366488 
L 27.696 316.067746 
L 28.228364 314.836957 
L 28.760727 312.720802 
L 29.559273 307.981079 
L 30.624 299.585904 
L 32.487273 284.573375 
L 33.285818 279.645561 
L 34.084364 275.783233 
L 35.415273 270.630026 
L 36.746182 265.152143 
L 37.810909 259.775977 
L 39.141818 251.976956 
L 40.472727 242.927823 
L 41.537455 233.84841 
L 42.336 225.300057 
L 43.400727 211.299277 
L 47.393455 154.004322 
L 48.458182 143.497716 
L 49.789091 132.925185 
L 51.386182 122.331552 
L 52.717091 115.043959 
L 53.781818 110.456539 
L 54.846545 106.87009 
L 56.443636 102.447523 
L 58.839273 96.295891 
L 59.637818 94.76537 
L 60.170182 94.076865 
L 60.702545 93.714469 
L 61.234909 93.706744 
L 61.767273 94.059941 
L 62.299636 94.757224 
L 63.098182 96.367345 
L 64.162909 99.288183 
L 67.623273 109.590786 
L 68.688 111.881599 
L 70.018909 114.196903 
L 72.680727 118.335357 
L 73.213091 118.853372 
L 73.745455 119.036098 
L 74.011636 118.958675 
L 74.277818 118.746542 
L 74.810182 117.862092 
L 75.342545 116.300795 
L 75.874909 114.043444 
L 76.673455 109.500406 
L 79.335273 92.329085 
L 79.867636 90.157356 
L 80.4 88.682612 
L 80.932364 87.866666 
L 81.464727 87.606342 
L 81.997091 87.762101 
L 82.529455 88.190492 
L 83.594182 89.450172 
L 84.392727 90.637292 
L 85.191273 92.243937 
L 85.723636 93.732868 
L 86.256 95.691253 
L 87.054545 99.68901 
L 87.853091 105.012495 
L 88.917818 113.737069 
L 91.047273 131.68975 
L 91.845818 136.840323 
L 92.644364 140.722507 
L 93.442909 143.512024 
L 94.507636 146.256 
L 95.838545 149.636514 
L 97.169455 153.790381 
L 98.234182 156.916487 
L 98.766545 157.9755 
L 99.298909 158.46999 
L 99.565091 158.461914 
L 99.831273 158.267021 
L 100.097455 157.877588 
L 100.629818 156.508199 
L 101.162182 154.385294 
L 101.960727 150.030722 
L 105.421091 128.892315 
L 108.082909 116.811648 
L 108.881455 111.443851 
L 109.946182 102.184337 
L 111.809455 82.702908 
L 113.140364 70.179788 
L 113.938909 64.423716 
L 114.737455 60.146586 
L 115.536 57.141162 
L 116.334545 55.023734 
L 117.665455 52.37551 
L 121.125818 46.035254 
L 121.924364 45.073732 
L 122.722909 44.490372 
L 123.255273 44.338598 
L 123.787636 44.413107 
L 124.32 44.775661 
L 124.852364 45.526069 
L 125.384727 46.803306 
L 125.917091 48.777106 
L 126.449455 51.624541 
L 126.981818 55.499632 
L 127.780364 63.419216 
L 128.578909 73.737005 
L 131.773091 118.835676 
L 132.305455 123.111595 
L 132.837818 125.790753 
L 133.104 126.527958 
L 133.370182 126.876029 
L 133.636364 126.851521 
L 133.902545 126.47615 
L 134.434909 124.777668 
L 134.967273 122.012677 
L 135.765818 116.404149 
L 137.096727 104.999977 
L 139.226182 86.565289 
L 140.290909 78.843354 
L 141.089455 74.307549 
L 141.621818 72.100111 
L 142.154182 70.684636 
L 142.420364 70.305157 
L 142.686545 70.156403 
L 142.952727 70.243289 
L 143.218909 70.566096 
L 143.751273 71.900689 
L 144.283636 74.073085 
L 145.082182 78.537313 
L 147.211636 91.790775 
L 148.010182 95.178926 
L 148.542545 96.658551 
L 149.074909 97.5341 
L 149.607273 97.880398 
L 150.139636 97.802044 
L 150.672 97.414121 
L 151.470545 96.482198 
L 155.197091 91.59655 
L 157.060364 89.621697 
L 158.391273 88.507804 
L 159.189818 88.075077 
L 159.988364 87.920739 
L 160.520727 88.018896 
L 161.053091 88.308399 
L 161.585455 88.811071 
L 162.384 89.990624 
L 163.182545 91.676993 
L 164.247273 94.587771 
L 167.441455 104.062402 
L 168.24 105.628668 
L 169.038545 106.6486 
L 169.570909 107.024005 
L 170.103273 107.17427 
L 170.635636 107.125586 
L 171.434182 106.754639 
L 172.498909 105.896612 
L 175.693091 102.998088 
L 177.024 102.146889 
L 180.484364 100.248546 
L 181.282909 99.470681 
L 182.081455 98.423449 
L 183.146182 96.588712 
L 184.477091 93.751653 
L 186.872727 88.509577 
L 188.203636 86.194483 
L 189.534545 84.33954 
L 192.728727 80.463237 
L 194.325818 78.782785 
L 195.390545 77.974353 
L 196.455273 77.478441 
L 197.52 77.255547 
L 199.383273 77.191256 
L 201.246545 77.062182 
L 203.109818 76.94617 
L 203.908364 77.139904 
L 204.440727 77.437746 
L 204.973091 77.912959 
L 205.771636 79.026448 
L 206.570182 80.68204 
L 207.368727 82.896449 
L 208.433455 86.625209 
L 210.030545 93.267837 
L 212.426182 103.164486 
L 214.023273 108.73511 
L 215.620364 113.503027 
L 216.951273 116.773603 
L 217.749818 118.2826 
L 218.548364 119.377673 
L 219.346909 120.088263 
L 221.210182 121.386813 
L 221.742545 122.128812 
L 222.274909 123.253572 
L 222.807273 124.860849 
L 223.605818 128.312273 
L 224.404364 133.02975 
L 225.469091 140.900141 
L 227.864727 159.682865 
L 228.929455 165.921119 
L 229.728 169.267399 
L 230.526545 171.553551 
L 231.325091 172.99572 
L 232.123636 173.851211 
L 232.922182 174.336598 
L 233.720727 174.573599 
L 234.519273 174.57805 
L 235.317818 174.291803 
L 236.116364 173.646865 
L 236.914909 172.636808 
L 239.310545 169.036534 
L 239.842909 168.659354 
L 240.375273 168.61599 
L 240.907636 168.949086 
L 241.44 169.663301 
L 242.238545 171.35757 
L 244.900364 177.981343 
L 245.432727 178.51472 
L 245.698909 178.60079 
L 245.965091 178.559462 
L 246.497455 178.089902 
L 247.029818 177.122735 
L 247.828364 174.86743 
L 248.893091 170.849412 
L 251.288727 161.34339 
L 252.885818 156.15056 
L 257.410909 142.409507 
L 258.209455 141.022474 
L 258.741818 140.546382 
L 259.274182 140.456178 
L 259.806545 140.742188 
L 260.338909 141.364382 
L 261.137455 142.778593 
L 263.533091 147.658009 
L 264.331636 148.680767 
L 265.130182 149.280174 
L 265.928727 149.574926 
L 267.792 150.079827 
L 269.122909 150.811801 
L 270.187636 151.321442 
L 270.72 151.368159 
L 271.252364 151.182063 
L 271.784727 150.708851 
L 272.317091 149.919257 
L 273.115636 148.153623 
L 274.180364 144.973724 
L 276.043636 139.23312 
L 276.842182 137.580021 
L 277.374545 136.915253 
L 277.906909 136.620448 
L 278.439273 136.678524 
L 278.971636 137.047785 
L 279.770182 138.052408 
L 280.834909 139.88021 
L 282.964364 143.642924 
L 284.029091 145.084066 
L 284.827636 145.780435 
L 285.36 145.972677 
L 285.892364 145.877644 
L 286.424727 145.433032 
L 286.957091 144.584203 
L 287.489455 143.293518 
L 288.288 140.509532 
L 289.086545 136.799978 
L 290.417455 129.302833 
L 292.014545 120.488266 
L 292.813091 117.141618 
L 293.345455 115.524298 
L 293.877818 114.466129 
L 294.410182 113.996832 
L 294.676364 113.986088 
L 294.942545 114.123448 
L 295.474909 114.833634 
L 296.007273 116.101672 
L 296.539636 117.893044 
L 297.338182 121.477 
L 298.402909 127.726508 
L 299.733818 137.445487 
L 303.460364 166.87899 
L 304.258909 171.293876 
L 305.057455 174.471816 
L 305.589818 175.892813 
L 306.122182 176.791712 
L 306.654545 177.226774 
L 307.186909 177.27328 
L 307.719273 177.016968 
L 308.517818 176.259423 
L 310.647273 173.872006 
L 311.445818 173.317851 
L 312.244364 173.029094 
L 313.042909 172.95477 
L 314.107636 173.097722 
L 314.64 173.323373 
L 315.172364 173.773147 
L 315.704727 174.621185 
L 316.237091 176.110045 
L 316.769455 178.535401 
L 317.301818 182.210896 
L 317.834182 187.417613 
L 318.632727 198.477234 
L 319.431273 213.369557 
L 320.762182 243.747605 
L 322.093091 273.171693 
L 322.891636 286.58464 
L 323.424 293.058282 
L 323.956364 297.510859 
L 324.488727 300.109558 
L 324.754909 300.803628 
L 325.021091 301.153322 
L 325.287273 301.206393 
L 325.553455 301.011082 
L 326.085818 300.060407 
L 326.884364 297.836232 
L 328.747636 292.375054 
L 329.812364 289.973315 
L 330.877091 288.062844 
L 332.208 286.171449 
L 337.265455 279.992653 
L 338.596364 278.648198 
L 340.992 276.43788 
L 341.790545 275.298829 
L 342.589091 273.759148 
L 343.653818 271.060204 
L 346.848 261.941991 
L 347.646545 260.624853 
L 348.178909 260.136885 
L 348.711273 259.96317 
L 349.243636 260.078291 
L 349.776 260.436865 
L 350.574545 261.303329 
L 354.034909 265.695198 
L 354.833455 266.330161 
L 355.632 266.694936 
L 356.164364 266.749181 
L 356.696727 266.6222 
L 357.229091 266.28742 
L 357.761455 265.71624 
L 358.293818 264.874864 
L 358.826182 263.719718 
L 359.624727 261.274804 
L 360.423273 257.778437 
L 361.221818 253.038707 
L 362.020364 247.005628 
L 363.351273 234.741322 
L 365.214545 217.439163 
L 366.013091 211.66881 
L 366.811636 207.294927 
L 367.610182 204.191732 
L 368.408727 202.03461 
L 369.473455 199.996203 
L 371.336727 197.168528 
L 374.264727 192.737692 
L 375.595636 190.246017 
L 376.926545 187.21339 
L 378.257455 183.564046 
L 379.854545 178.399094 
L 383.048727 167.661456 
L 386.242909 157.773918 
L 387.307636 153.674826 
L 388.372364 148.701308 
L 389.437091 142.443233 
L 390.501818 134.445629 
L 391.566545 124.4951 
L 392.897455 109.796177 
L 396.091636 73.397239 
L 397.422545 61.018975 
L 398.487273 52.910608 
L 399.552 46.439206 
L 400.616727 41.347096 
L 402.213818 35.083157 
L 404.875636 25.407471 
L 405.674182 23.301578 
L 406.206545 22.389407 
L 406.738909 21.953853 
L 407.005091 21.927273 
L 407.271273 22.03003 
L 407.803636 22.617656 
L 408.336 23.687009 
L 409.134545 26.0889 
L 409.933091 29.304772 
L 410.997818 34.715247 
L 412.062545 41.483701 
L 413.127273 49.774952 
L 414.458182 62.044191 
L 416.853818 84.756536 
L 417.918545 92.652121 
L 418.717091 97.141542 
L 419.515636 100.428902 
L 420.314182 102.726668 
L 421.112727 104.359121 
L 422.709818 106.906659 
L 424.573091 109.718964 
L 425.371636 110.537649 
L 425.904 110.820182 
L 426.436364 110.864827 
L 426.436364 110.864827 
" clip-path="url(#pdfec5c7f8d)" style="fill: none; stroke: #0000ff; stroke-width: 3; stroke-linecap: square"/>
   </g>
   <g id="patch_3">
    <path d="M 7.2 331.2 
L 7.2 7.2 
" style="fill: none; stroke: #000000; stroke-width: 0.8; stroke-linejoin: miter; stroke-linecap: square"/>
   </g>
   <g id="patch_4">
    <path d="M 446.4 331.2 
L 446.4 7.2 
" style="fill: none; stroke: #000000; stroke-width: 0.8; stroke-linejoin: miter; stroke-linecap: square"/>
   </g>
   <g id="patch_5">
    <path d="M 7.2 331.2 
L 446.4 331.2 
" style="fill: none; stroke: #000000; stroke-width: 0.8; stroke-linejoin: miter; stroke-linecap: square"/>
   </g>
   <g id="patch_6">
    <path d="M 7.2 7.2 
L 446.4 7.2 
" style="fill: none; stroke: #000000; stroke-width: 0.8; stroke-linejoin: miter; stroke-linecap: square"/>
   </g>
  </g>
 </g>
 <defs>
  <clipPath id="pdfec5c7f8d">
   <rect x="7.2" y="7.2" width="439.2" height="324"/>
  </clipPath>
 </defs>
</svg>
