<?xml version="1.0" encoding="utf-8" standalone="no"?>
<!DOCTYPE svg PUBLIC "-//W3C//DTD SVG 1.1//EN"
  "http://www.w3.org/Graphics/SVG/1.1/DTD/svg11.dtd">
<svg xmlns:xlink="http://www.w3.org/1999/xlink" width="453.6pt" height="338.4pt" viewBox="0 0 453.6 338.4" xmlns="http://www.w3.org/2000/svg" version="1.1">
 <metadata>
  <rdf:RDF xmlns:dc="http://purl.org/dc/elements/1.1/" xmlns:cc="http://creativecommons.org/ns#" xmlns:rdf="http://www.w3.org/1999/02/22-rdf-syntax-ns#">
   <cc:Work>
    <dc:type rdf:resource="http://purl.org/dc/dcmitype/StillImage"/>
    <dc:date>2025-05-15T17:19:59.519582</dc:date>
    <dc:format>image/svg+xml</dc:format>
    <dc:creator>
     <cc:Agent>
      <dc:title>Matplotlib v3.10.1, https://matplotlib.org/</dc:title>
     </cc:Agent>
    </dc:creator>
   </cc:Work>
  </rdf:RDF>
 </metadata>
 <defs>
  <style type="text/css">*{stroke-linejoin: round; stroke-linecap: butt}</style>
 </defs>
 <g id="figure_1">
  <g id="patch_1">
   <path d="M 0 338.4 
L 453.6 338.4 
L 453.6 0 
L 0 0 
z
" style="fill: #ffffff"/>
  </g>
  <g id="axes_1">
   <g id="patch_2">
    <path d="M 7.2 331.2 
L 446.4 331.2 
L 446.4 7.2 
L 7.2 7.2 
z
" style="fill: #ffffff"/>
   </g>
   <g id="matplotlib.axis_1"/>
   <g id="matplotlib.axis_2"/>
   <g id="line2d_1">
    <path d="M 27.163636 76.060445 
L 28.275817 70.570275 
L 29.387997 66.018719 
L 30.500177 62.413213 
L 31.334312 60.38358 
L 32.168448 58.977151 
L 32.724538 58.394052 
L 33.280628 58.085201 
L 33.836718 58.026242 
L 34.392808 58.177769 
L 35.226944 58.680186 
L 36.895214 59.847379 
L 37.729349 60.086673 
L 38.285439 60.019867 
L 38.84153 59.752821 
L 39.39762 59.288754 
L 40.231755 58.263545 
L 41.343935 56.448965 
L 43.846341 52.144138 
L 44.680476 51.261147 
L 45.236566 51.017403 
L 45.792656 51.146682 
L 46.348747 51.742427 
L 46.904837 52.904351 
L 47.460927 54.735442 
L 48.017017 57.336289 
L 48.573107 60.79624 
L 49.407242 67.744771 
L 50.241378 76.885823 
L 51.353558 92.264786 
L 52.743783 115.175965 
L 55.246189 156.701402 
L 56.358369 171.259436 
L 57.192504 179.795491 
L 58.02664 186.262449 
L 58.860775 190.828174 
L 59.416865 192.946511 
L 59.972955 194.43005 
L 60.529045 195.371416 
L 61.085135 195.862943 
L 61.641226 195.996319 
L 62.197316 195.86142 
L 63.031451 195.347352 
L 66.367992 192.715707 
L 66.924082 191.90725 
L 67.480172 190.693334 
L 68.036262 188.946438 
L 68.592352 186.589217 
L 69.426488 181.944567 
L 71.650848 168.076309 
L 72.206938 166.206868 
L 72.484984 165.778341 
L 72.763029 165.737473 
L 73.041074 166.112486 
L 73.319119 166.924281 
L 73.875209 169.887728 
L 74.431299 174.593035 
L 75.265434 184.468303 
L 76.65566 205.267001 
L 77.76784 221.440018 
L 78.601975 230.750923 
L 79.158065 234.861539 
L 79.714155 236.95347 
L 79.992201 237.1824 
L 80.270246 236.850364 
L 80.548291 235.954081 
L 81.104381 232.505841 
L 81.660471 227.003258 
L 82.494606 215.637894 
L 85.275057 173.466827 
L 85.831147 168.341131 
L 86.387237 164.915842 
L 86.943327 162.990017 
L 87.499418 162.140399 
L 88.611598 161.275792 
L 88.889643 160.768339 
L 89.445733 158.921381 
L 90.001823 155.670396 
L 90.557913 150.869827 
L 91.392049 141.060135 
L 93.894454 107.598197 
L 94.450544 102.695283 
L 95.006635 99.410397 
L 95.562725 97.758762 
L 95.84077 97.50969 
L 96.118815 97.610923 
L 96.39686 98.031546 
L 96.95295 99.691144 
L 97.50904 102.203581 
L 98.621221 108.776339 
L 100.567536 122.156583 
L 104.460167 149.330549 
L 105.294302 153.216275 
L 105.850393 154.874526 
L 106.406483 155.65728 
L 106.684528 155.700725 
L 106.962573 155.508388 
L 107.240618 155.083257 
L 107.796708 153.566755 
L 108.352798 151.254442 
L 109.186933 146.65792 
L 111.967384 129.850806 
L 112.801519 126.23605 
L 113.9137 122.515669 
L 116.13806 115.657539 
L 117.250241 111.326541 
L 120.586781 97.46367 
L 121.698962 93.969292 
L 122.533097 91.941181 
L 123.367232 90.549858 
L 123.923322 90.079585 
L 124.201367 90.012955 
L 124.479413 90.07496 
L 124.757458 90.277601 
L 125.313548 91.153859 
L 125.869638 92.733478 
L 126.425728 95.091168 
L 126.981818 98.275875 
L 127.815953 104.642245 
L 128.650089 112.867634 
L 129.762269 126.45286 
L 131.152494 146.811262 
L 135.045125 207.470586 
L 135.879261 216.624051 
L 136.435351 221.082805 
L 136.991441 224.016801 
L 137.269486 224.87122 
L 137.547531 225.303378 
L 137.825576 225.309291 
L 138.103621 224.889137 
L 138.381666 224.049823 
L 138.937756 221.164892 
L 139.493847 216.818319 
L 140.327982 208.125292 
L 143.664523 169.553173 
L 144.498658 163.440032 
L 145.332793 158.88713 
L 147.279109 149.611179 
L 148.113244 144.179442 
L 148.947379 137.311416 
L 152.005875 109.309553 
L 152.561965 106.373918 
L 153.118055 104.82211 
L 153.3961 104.619293 
L 153.674145 104.815728 
L 153.95219 105.41809 
L 154.508281 107.835676 
L 155.064371 111.809402 
L 155.898506 120.355528 
L 157.010686 135.367207 
L 160.625272 188.169538 
L 161.459407 197.026447 
L 162.293543 203.698916 
L 162.849633 206.782859 
L 163.405723 208.678999 
L 163.683768 209.158406 
L 163.961813 209.31491 
L 164.239858 209.142539 
L 164.517903 208.636433 
L 165.073993 206.618392 
L 165.630084 203.274429 
L 166.186174 198.666373 
L 167.020309 189.645348 
L 168.132489 174.657792 
L 171.190985 131.279308 
L 172.02512 122.481652 
L 172.859256 115.869958 
L 173.415346 112.730978 
L 173.971436 110.586118 
L 174.527526 109.380809 
L 174.805571 109.107263 
L 175.083616 109.03794 
L 175.361661 109.161656 
L 175.639706 109.465706 
L 176.195796 110.566621 
L 176.751887 112.243843 
L 177.586022 115.647058 
L 178.698202 121.4517 
L 180.088427 130.131144 
L 182.034743 143.951273 
L 185.927374 172.30988 
L 187.039554 178.828363 
L 187.87369 182.750448 
L 188.707825 185.693988 
L 189.263915 187.066106 
L 189.820005 187.93528 
L 190.376095 188.26638 
L 190.65414 188.213509 
L 190.932185 188.002495 
L 191.488276 187.056094 
L 192.044366 185.304631 
L 192.600456 182.591134 
L 193.156546 178.735268 
L 193.712636 173.555355 
L 194.546771 162.977253 
L 195.380907 148.838554 
L 196.493087 124.98958 
L 199.829628 47.274188 
L 200.663763 34.42429 
L 201.219853 28.365425 
L 201.775943 24.34843 
L 202.332033 22.281793 
L 202.610079 21.927273 
L 202.888124 21.98834 
L 203.166169 22.433671 
L 203.722259 24.34117 
L 204.278349 27.36627 
L 205.112484 33.37689 
L 208.72707 62.309873 
L 209.561205 66.90698 
L 210.395341 70.203284 
L 210.951431 71.65298 
L 211.507521 72.526546 
L 212.063611 72.883056 
L 212.619701 72.82234 
L 213.453836 72.268223 
L 214.287972 71.714516 
L 214.844062 71.681553 
L 215.122107 71.836359 
L 215.678197 72.581407 
L 216.234287 73.986254 
L 216.790377 76.079473 
L 217.624513 80.37458 
L 219.014738 89.284594 
L 220.404963 97.688736 
L 221.239099 101.611348 
L 222.351279 105.587416 
L 224.297594 111.947755 
L 225.13173 115.586225 
L 226.24391 121.756862 
L 227.35609 129.3221 
L 228.746316 140.513688 
L 229.858496 151.132072 
L 230.970676 163.885363 
L 232.082856 179.321002 
L 233.473082 202.249454 
L 236.809623 259.839297 
L 237.921803 274.223262 
L 238.755938 282.33887 
L 239.590073 288.049832 
L 240.146164 290.537034 
L 240.702254 292.001602 
L 240.980299 292.360923 
L 241.258344 292.477437 
L 241.536389 292.354307 
L 241.814434 291.99522 
L 242.370524 290.576321 
L 242.926614 288.227882 
L 243.482704 284.942293 
L 244.31684 278.210631 
L 245.150975 269.2351 
L 245.98511 257.972666 
L 247.09729 239.574634 
L 248.487516 212.289657 
L 252.102102 138.327609 
L 253.214282 119.957973 
L 254.326462 105.038745 
L 255.160598 96.211579 
L 255.994733 89.305789 
L 256.828868 84.083544 
L 257.663003 80.210875 
L 258.497139 77.311071 
L 259.609319 74.339603 
L 262.38977 67.563559 
L 263.50195 64.073456 
L 264.61413 59.841407 
L 266.282401 52.439699 
L 267.950671 45.192445 
L 269.062851 41.303089 
L 269.896987 39.054186 
L 270.731122 37.353193 
L 271.565257 36.13348 
L 272.399392 35.349028 
L 272.955482 35.072262 
L 273.511573 35.014474 
L 274.067663 35.203649 
L 274.623753 35.668769 
L 275.179843 36.432495 
L 275.735933 37.505364 
L 276.570068 39.67581 
L 277.682249 43.455912 
L 279.350519 50.21925 
L 284.35533 71.558305 
L 285.467511 78.089083 
L 286.579691 86.442228 
L 287.691871 96.803285 
L 289.360142 114.969752 
L 290.750367 129.592953 
L 291.584502 136.467829 
L 292.140593 139.754061 
L 292.696683 141.777548 
L 292.974728 142.273524 
L 293.252773 142.412405 
L 293.530818 142.189446 
L 293.808863 141.605586 
L 294.364953 139.384026 
L 294.921043 135.848312 
L 295.755179 128.453278 
L 296.867359 115.846128 
L 301.038035 65.166817 
L 302.42826 51.698749 
L 303.540441 42.89594 
L 304.374576 37.689796 
L 305.208711 33.879483 
L 305.764801 32.203315 
L 306.320891 31.278167 
L 306.598936 31.111886 
L 306.876982 31.150002 
L 307.155027 31.397024 
L 307.433072 31.856407 
L 307.989162 33.420978 
L 308.545252 35.844829 
L 309.379387 41.014496 
L 310.213522 47.758748 
L 313.550063 77.505282 
L 314.106153 80.643383 
L 314.662244 82.85013 
L 315.218334 84.122655 
L 315.496379 84.428169 
L 315.774424 84.532856 
L 316.052469 84.453872 
L 316.608559 83.830666 
L 317.164649 82.737597 
L 318.27683 79.810686 
L 320.50119 73.239567 
L 321.335325 70.251587 
L 322.169461 66.541804 
L 323.281641 60.246221 
L 324.949911 48.80726 
L 326.340137 39.589742 
L 327.452317 33.73141 
L 328.286452 30.528552 
L 328.842542 29.002565 
L 329.398633 27.987134 
L 329.954723 27.518675 
L 330.232768 27.506146 
L 330.510813 27.65334 
L 330.788858 27.970213 
L 331.344948 29.158367 
L 331.901038 31.161829 
L 332.457128 34.064794 
L 333.013219 37.928973 
L 333.847354 45.572551 
L 334.681489 55.331188 
L 335.793669 71.075502 
L 337.46194 98.28899 
L 343.300886 196.115469 
L 344.691112 215.607448 
L 345.803292 228.070448 
L 346.637427 235.063946 
L 347.193517 238.495324 
L 347.749607 240.929538 
L 348.305698 242.402772 
L 348.583743 242.801848 
L 348.861788 242.993775 
L 349.139833 242.994595 
L 349.417878 242.822224 
L 349.973968 242.041285 
L 350.808103 240.117099 
L 352.476374 235.787214 
L 353.310509 234.344894 
L 353.866599 233.829948 
L 354.422689 233.683397 
L 354.978779 233.875968 
L 355.53487 234.353677 
L 356.369005 235.458456 
L 357.75923 237.813803 
L 360.539681 242.56718 
L 361.373816 243.670964 
L 361.929906 244.159563 
L 362.485996 244.334335 
L 362.764042 244.267705 
L 363.042087 244.078823 
L 363.598177 243.27382 
L 364.154267 241.8113 
L 364.710357 239.607305 
L 365.266447 236.612651 
L 366.100582 230.619888 
L 366.934718 222.921741 
L 368.046898 210.331629 
L 369.437123 191.412268 
L 370.827349 169.37442 
L 375.554115 90.598045 
L 376.666295 77.929066 
L 377.778476 68.325177 
L 378.890656 61.088755 
L 380.002836 55.540914 
L 380.836971 52.285946 
L 381.671107 49.833055 
L 382.227197 48.708486 
L 382.783287 48.053488 
L 383.061332 47.91894 
L 383.339377 47.920872 
L 383.617422 48.064495 
L 384.173512 48.791159 
L 384.729602 50.11509 
L 385.285693 52.027683 
L 386.119828 55.914579 
L 387.232008 62.603676 
L 391.124639 87.935779 
L 392.236819 93.215462 
L 393.349 97.412614 
L 394.46118 100.62443 
L 395.295315 102.38087 
L 396.12945 103.551986 
L 396.685541 104.021849 
L 397.519676 104.376838 
L 398.631856 104.731767 
L 399.187946 105.194019 
L 399.744036 106.081636 
L 400.300127 107.566639 
L 400.856217 109.794406 
L 401.412307 112.86535 
L 402.246442 119.132946 
L 403.080577 127.282162 
L 404.192758 140.42077 
L 409.197569 203.339244 
L 410.865839 223.898647 
L 411.97802 240.297609 
L 413.368245 264.565624 
L 415.314561 298.865471 
L 416.148696 309.457507 
L 416.704786 314.018138 
L 416.982831 315.438267 
L 417.260876 316.258142 
L 417.538921 316.472727 
L 417.816966 316.085946 
L 418.095011 315.112963 
L 418.651102 311.511615 
L 419.207192 305.947262 
L 420.041327 294.693201 
L 421.153507 276.076895 
L 422.821778 243.924192 
L 424.768093 201.772389 
L 426.436364 164.214121 
L 426.436364 164.214121 
" clip-path="url(#pcfdc852199)" style="fill: none; stroke-dasharray: 11.1,4.8; stroke-dashoffset: 0; stroke: #000000; stroke-width: 3"/>
   </g>
   <g id="line2d_2">
    <path d="M 27.163636 102.326184 
L 30.222132 99.746474 
L 33.280628 96.876238 
L 35.504989 94.564101 
L 35.783034 94.218656 
L 36.061079 94.072223 
L 37.451304 94.094589 
L 38.84153 94.339562 
L 40.231755 94.815105 
L 41.62198 95.5211 
L 43.012206 96.457255 
L 44.680476 97.884234 
L 46.348747 99.641669 
L 48.017017 101.729209 
L 49.685287 104.146034 
L 51.631603 107.381387 
L 53.299873 110.527509 
L 54.968144 115.796946 
L 56.358369 119.455674 
L 57.748595 122.529546 
L 59.13882 125.117453 
L 60.529045 127.290827 
L 62.197316 129.452198 
L 63.865586 131.243183 
L 66.089947 133.270123 
L 69.704533 136.415719 
L 70.538668 137.345961 
L 71.094758 137.261532 
L 72.763029 136.859645 
L 74.709344 136.622752 
L 76.65566 136.627904 
L 78.88002 136.859118 
L 81.938516 137.424125 
L 86.109192 138.305126 
L 86.665282 137.414113 
L 88.333553 134.517998 
L 96.674905 137.036114 
L 98.621221 137.945629 
L 100.567536 139.109661 
L 102.235807 140.354198 
L 102.513852 140.586407 
L 102.791897 141.161661 
L 104.182122 146.321199 
L 105.016257 149.396945 
L 105.850393 150.5584 
L 106.962573 151.687184 
L 108.074753 152.44687 
L 109.186933 152.900456 
L 110.299114 153.110651 
L 111.689339 153.126342 
L 114.191745 152.839799 
L 116.416105 152.653844 
L 117.806331 152.778497 
L 118.918511 153.117911 
L 120.030691 153.729055 
L 120.864827 154.3628 
L 121.698962 155.241225 
L 123.645277 157.645578 
L 125.591593 159.704955 
L 127.815953 161.710818 
L 130.596404 163.876229 
L 133.6549 165.982856 
L 138.381666 169.139167 
L 139.493847 169.218092 
L 140.606027 169.041271 
L 141.718207 168.631187 
L 142.830387 168.007513 
L 144.220613 166.957244 
L 145.888883 165.351161 
L 147.557154 163.434294 
L 149.781514 160.498131 
L 153.118055 155.662023 
L 154.508281 153.6376 
L 155.898506 152.94232 
L 157.288731 152.483932 
L 158.678957 152.241652 
L 160.347227 152.188255 
L 162.015498 152.354771 
L 163.961813 152.771178 
L 166.186174 153.477642 
L 169.522715 154.819138 
L 171.46903 155.61571 
L 172.58121 155.633978 
L 174.527526 155.45985 
L 176.473841 155.069556 
L 178.420157 154.444887 
L 180.366473 153.567282 
L 182.312788 152.413555 
L 184.259104 150.951621 
L 186.205419 149.178553 
L 188.151735 147.076845 
L 188.707825 146.413474 
L 190.65414 146.501416 
L 192.322411 146.79598 
L 194.268726 147.355542 
L 196.771132 148.324895 
L 200.107673 149.872956 
L 204.834439 152.144167 
L 205.668574 152.442479 
L 205.946619 151.685194 
L 207.336845 144.765293 
L 208.72707 138.972829 
L 209.83925 135.138745 
L 211.229476 131.255244 
L 212.341656 128.721085 
L 213.453836 126.647071 
L 214.566017 124.98636 
L 215.678197 123.69346 
L 216.790377 122.72317 
L 217.902558 122.032749 
L 219.014738 121.568917 
L 220.404963 121.237583 
L 222.073234 121.086641 
L 224.019549 121.125518 
L 227.91218 121.701298 
L 239.868119 123.662838 
L 241.814434 123.726072 
L 244.87293 123.780641 
L 249.043606 124.112326 
L 255.716688 124.676221 
L 258.775184 124.761704 
L 259.887364 124.566498 
L 262.111724 124.261336 
L 264.61413 124.150969 
L 267.394581 124.254193 
L 270.175032 124.572705 
L 274.901798 125.374897 
L 277.404204 125.754769 
L 285.467511 125.296967 
L 289.360142 124.820898 
L 292.696683 124.189144 
L 300.2039 122.481535 
L 302.706305 122.226257 
L 305.486756 122.183691 
L 307.989162 122.362327 
L 310.769613 122.791381 
L 314.662244 123.43139 
L 318.27683 123.837142 
L 321.891416 124.473053 
L 326.340137 125.485967 
L 327.730362 125.759161 
L 331.901038 126.044475 
L 335.793669 127.09164 
L 341.354571 128.893105 
L 346.915472 130.853064 
L 349.417878 131.950583 
L 357.75923 133.948542 
L 360.817726 134.927497 
L 362.485996 135.573537 
L 363.042087 135.340625 
L 364.710357 134.240881 
L 366.934718 132.598614 
L 373.885845 131.632716 
L 376.666295 131.486985 
L 379.168701 131.58488 
L 380.836971 131.839982 
L 383.061332 132.747799 
L 383.895467 133.215496 
L 386.119828 135.277625 
L 387.510053 136.218699 
L 388.900279 136.917843 
L 390.568549 137.484197 
L 392.236819 137.804055 
L 394.183135 137.934036 
L 396.685541 137.836609 
L 400.856217 137.392918 
L 401.412307 136.631066 
L 402.802532 134.567766 
L 404.192758 132.848856 
L 405.582983 131.450332 
L 406.973208 130.351174 
L 408.363434 129.53048 
L 409.753659 128.967112 
L 411.143885 128.639057 
L 412.53411 128.525587 
L 414.20238 128.64257 
L 415.870651 128.999373 
L 417.816966 129.523102 
L 418.095011 129.486801 
L 418.651102 129.806484 
L 420.597417 131.160744 
L 422.543733 132.238356 
L 424.490048 133.077084 
L 426.436364 133.718674 
L 426.436364 133.718674 
" clip-path="url(#pcfdc852199)" style="fill: none; stroke: #ff00ff; stroke-width: 3; stroke-linecap: square"/>
   </g>
   <g id="patch_3">
    <path d="M 7.2 331.2 
L 7.2 7.2 
" style="fill: none; stroke: #000000; stroke-width: 0.8; stroke-linejoin: miter; stroke-linecap: square"/>
   </g>
   <g id="patch_4">
    <path d="M 446.4 331.2 
L 446.4 7.2 
" style="fill: none; stroke: #000000; stroke-width: 0.8; stroke-linejoin: miter; stroke-linecap: square"/>
   </g>
   <g id="patch_5">
    <path d="M 7.2 331.2 
L 446.4 331.2 
" style="fill: none; stroke: #000000; stroke-width: 0.8; stroke-linejoin: miter; stroke-linecap: square"/>
   </g>
   <g id="patch_6">
    <path d="M 7.2 7.2 
L 446.4 7.2 
" style="fill: none; stroke: #000000; stroke-width: 0.8; stroke-linejoin: miter; stroke-linecap: square"/>
   </g>
  </g>
 </g>
 <defs>
  <clipPath id="pcfdc852199">
   <rect x="7.2" y="7.2" width="439.2" height="324"/>
  </clipPath>
 </defs>
</svg>
