<?xml version="1.0" encoding="utf-8" standalone="no"?>
<!DOCTYPE svg PUBLIC "-//W3C//DTD SVG 1.1//EN"
  "http://www.w3.org/Graphics/SVG/1.1/DTD/svg11.dtd">
<svg xmlns:xlink="http://www.w3.org/1999/xlink" width="453.6pt" height="338.4pt" viewBox="0 0 453.6 338.4" xmlns="http://www.w3.org/2000/svg" version="1.1">
 <metadata>
  <rdf:RDF xmlns:dc="http://purl.org/dc/elements/1.1/" xmlns:cc="http://creativecommons.org/ns#" xmlns:rdf="http://www.w3.org/1999/02/22-rdf-syntax-ns#">
   <cc:Work>
    <dc:type rdf:resource="http://purl.org/dc/dcmitype/StillImage"/>
    <dc:date>2025-05-15T17:33:04.784562</dc:date>
    <dc:format>image/svg+xml</dc:format>
    <dc:creator>
     <cc:Agent>
      <dc:title>Matplotlib v3.10.1, https://matplotlib.org/</dc:title>
     </cc:Agent>
    </dc:creator>
   </cc:Work>
  </rdf:RDF>
 </metadata>
 <defs>
  <style type="text/css">*{stroke-linejoin: round; stroke-linecap: butt}</style>
 </defs>
 <g id="figure_1">
  <g id="patch_1">
   <path d="M 0 338.4 
L 453.6 338.4 
L 453.6 0 
L 0 0 
z
" style="fill: #ffffff"/>
  </g>
  <g id="axes_1">
   <g id="patch_2">
    <path d="M 7.2 331.2 
L 446.4 331.2 
L 446.4 7.2 
L 7.2 7.2 
z
" style="fill: #ffffff"/>
   </g>
   <g id="matplotlib.axis_1"/>
   <g id="matplotlib.axis_2"/>
   <g id="line2d_1">
    <path d="M 27.163636 71.514544 
L 28.275817 78.272692 
L 34.392808 112.35876 
L 37.451304 131.776534 
L 40.787845 154.645976 
L 44.124386 179.029388 
L 53.299873 248.09867 
L 55.246189 263.036449 
L 59.972955 301.085525 
L 61.085135 307.503915 
L 61.919271 311.188538 
L 62.753406 313.892586 
L 63.309496 315.15998 
L 63.865586 316.004188 
L 64.421676 316.424047 
L 64.977767 316.412128 
L 65.533857 315.956049 
L 66.089947 315.041027 
L 66.646037 313.653131 
L 67.480172 310.666055 
L 68.314307 306.594155 
L 69.148443 301.4776 
L 70.260623 293.170191 
L 71.650848 280.785389 
L 73.597164 261.001699 
L 76.377615 232.499952 
L 77.76784 220.188828 
L 79.158065 209.847908 
L 80.548291 201.41311 
L 81.938516 194.491198 
L 83.606787 187.497388 
L 85.553102 180.395924 
L 87.777463 173.210488 
L 90.279868 165.918326 
L 93.338364 157.640637 
L 100.845581 137.892006 
L 103.069942 131.093769 
L 111.411294 104.267202 
L 113.9137 94.741002 
L 124.757458 52.747649 
L 126.425728 47.84617 
L 128.093998 43.62049 
L 129.762269 40.005908 
L 130.874449 38.033383 
L 131.98663 36.49813 
L 132.820765 35.658953 
L 133.6549 35.078038 
L 134.76708 34.623584 
L 136.713396 34.033691 
L 137.547531 33.509583 
L 138.381666 32.653767 
L 139.215801 31.430409 
L 140.327982 29.335989 
L 142.274297 25.537288 
L 143.108433 24.398676 
L 143.664523 23.922552 
L 144.220613 23.696022 
L 144.776703 23.719007 
L 145.332793 23.973941 
L 146.166928 24.721097 
L 147.279109 26.18035 
L 150.059559 30.13585 
L 151.17174 31.225471 
L 152.005875 31.730696 
L 152.84001 31.948868 
L 153.674145 31.891751 
L 154.508281 31.60617 
L 155.898506 30.834712 
L 157.566776 29.959934 
L 158.678957 29.675127 
L 159.791137 29.676133 
L 161.181362 29.945307 
L 164.517903 30.655701 
L 166.186174 31.093206 
L 167.298354 31.604622 
L 168.410534 32.347289 
L 169.80076 33.581017 
L 171.747075 35.698346 
L 176.473841 41.361996 
L 184.537149 51.313627 
L 186.205419 54.092128 
L 188.707825 58.836421 
L 190.932185 62.887966 
L 192.600456 65.482734 
L 194.824816 68.463542 
L 197.049177 71.493029 
L 198.717447 74.166662 
L 200.385718 77.267738 
L 202.610079 81.907705 
L 205.390529 88.220763 
L 207.0588 92.462231 
L 208.72707 97.339254 
L 210.673386 103.852838 
L 218.458648 131.005773 
L 220.126918 135.870181 
L 221.795189 140.013437 
L 224.853684 147.244071 
L 226.24391 151.351262 
L 227.634135 156.230374 
L 229.302406 162.926993 
L 231.248721 171.732119 
L 232.916992 180.309475 
L 234.863307 191.569133 
L 239.868119 221.330458 
L 244.038795 243.955027 
L 245.42902 250.690343 
L 246.5412 255.1578 
L 247.375336 257.808602 
L 248.209471 259.83569 
L 249.043606 261.294246 
L 249.877741 262.278845 
L 250.711876 262.872607 
L 251.267967 263.065472 
L 251.824057 263.080409 
L 252.380147 262.880347 
L 252.936237 262.411343 
L 253.492327 261.609237 
L 254.048417 260.407318 
L 254.604507 258.748468 
L 255.438643 255.32675 
L 256.272778 250.7908 
L 257.384958 243.31746 
L 260.999544 217.552653 
L 262.38977 210.073355 
L 266.004356 191.994487 
L 267.672626 181.821046 
L 270.731122 161.389651 
L 273.789618 139.59025 
L 276.570068 120.026048 
L 278.238339 109.735279 
L 280.462699 97.57453 
L 283.79924 79.466949 
L 291.028412 38.709414 
L 292.696683 30.938961 
L 293.808863 26.642698 
L 294.642998 24.155738 
L 295.199088 22.959546 
L 295.755179 22.200936 
L 296.311269 21.927273 
L 296.589314 21.983151 
L 297.145404 22.491161 
L 297.701494 23.523512 
L 298.257584 25.053889 
L 299.091719 28.169593 
L 300.2039 33.454634 
L 306.320891 65.924496 
L 307.711117 74.389013 
L 309.379387 86.014431 
L 312.159838 107.421835 
L 315.774424 134.771504 
L 321.05728 173.650469 
L 324.115776 198.834129 
L 327.730362 228.1903 
L 330.510813 248.700946 
L 334.403444 277.296804 
L 336.627805 293.5197 
L 337.739985 300.390687 
L 338.852165 305.805439 
L 339.6863 308.721391 
L 340.24239 310.079103 
L 340.798481 310.955351 
L 341.354571 311.346111 
L 341.632616 311.358803 
L 341.910661 311.250298 
L 342.466751 310.670002 
L 343.022841 309.608164 
L 343.578931 308.07028 
L 344.413067 304.890804 
L 345.247202 300.708774 
L 346.359382 293.714267 
L 347.749607 283.110829 
L 349.973968 263.739646 
L 352.754419 239.900464 
L 354.700734 225.334406 
L 356.369005 214.399569 
L 358.037275 204.835291 
L 359.705546 196.590959 
L 361.373816 189.493983 
L 363.042087 183.31528 
L 364.710357 177.892402 
L 369.159078 164.068624 
L 370.549304 158.514795 
L 372.217574 150.821891 
L 376.94434 128.299867 
L 378.890656 120.472917 
L 381.115016 112.554798 
L 385.285693 98.904226 
L 387.510053 92.074645 
L 388.900279 88.423301 
L 390.290504 85.360535 
L 391.958774 82.23655 
L 396.963586 73.628158 
L 398.631856 71.090506 
L 400.022082 69.337777 
L 401.412307 67.933165 
L 403.358622 66.324852 
L 405.582983 64.447133 
L 407.251253 62.738829 
L 408.919524 60.694095 
L 411.42193 57.172695 
L 413.0902 54.998559 
L 414.20238 53.902282 
L 415.036516 53.330654 
L 415.870651 52.971935 
L 416.982831 52.753531 
L 419.763282 52.426544 
L 420.875462 51.976347 
L 421.987642 51.280889 
L 426.436364 47.997242 
L 426.436364 47.997242 
" clip-path="url(#pe8b783fc93)" style="fill: none; stroke-dasharray: 11.1,4.8; stroke-dashoffset: 0; stroke: #000000; stroke-width: 3"/>
   </g>
   <g id="line2d_2">
    <path d="M 27.163636 46.600678 
L 28.553862 46.914276 
L 29.944087 47.457578 
L 31.334312 48.251325 
L 32.724538 49.316103 
L 34.114763 50.670642 
L 35.504989 52.346287 
L 35.783034 53.145219 
L 36.617169 56.41927 
L 37.173259 58.037953 
L 39.119575 61.85399 
L 42.17807 67.216502 
L 44.680476 71.764525 
L 46.348747 75.207293 
L 48.017017 79.168288 
L 49.685287 83.780393 
L 51.353558 89.163182 
L 53.021828 95.407824 
L 53.577918 97.390953 
L 54.412054 93.220299 
L 56.358369 102.338017 
L 58.58273 111.622285 
L 61.085135 120.979612 
L 64.143631 131.463013 
L 69.148443 148.473852 
L 71.094758 155.385935 
L 71.372803 155.377886 
L 73.319119 153.379124 
L 76.65566 150.33617 
L 80.270246 146.969943 
L 82.216561 144.874517 
L 84.162877 142.434612 
L 85.831147 139.983331 
L 87.499418 137.125425 
L 88.333553 135.765777 
L 88.889643 134.809659 
L 90.279868 132.345917 
L 91.670094 130.345298 
L 93.060319 128.793637 
L 94.172499 127.865303 
L 95.28468 127.20715 
L 96.39686 126.811747 
L 97.50904 126.67182 
L 98.621221 126.780093 
L 99.733401 127.129989 
L 100.845581 127.713922 
L 101.957761 128.52485 
L 103.347987 129.847503 
L 104.738212 131.5014 
L 105.294302 132.088816 
L 107.240618 132.839997 
L 110.299114 133.985729 
L 117.250241 136.489096 
L 119.752646 137.661838 
L 121.698962 138.76214 
L 121.977007 139.474469 
L 124.201367 147.32603 
L 125.313548 149.933879 
L 126.425728 151.974278 
L 127.537908 153.46681 
L 128.372044 154.240977 
L 129.206179 154.729097 
L 130.040314 154.940303 
L 130.874449 154.883187 
L 131.708584 154.566648 
L 132.54272 153.9992 
L 133.376855 153.190052 
L 134.489035 151.749451 
L 135.601215 149.91453 
L 136.991441 147.096636 
L 138.381666 143.732964 
L 138.937756 142.094081 
L 140.606027 134.996409 
L 141.162117 132.670815 
L 143.942568 124.486772 
L 146.723018 116.930234 
L 148.947379 111.51703 
L 150.893695 107.361545 
L 152.561965 104.3035 
L 153.95219 102.153124 
L 155.342416 100.398074 
L 156.454596 99.300945 
L 157.288731 99.403878 
L 157.844821 99.4733 
L 171.46903 99.091982 
L 174.527526 99.069384 
L 175.083616 98.923807 
L 175.639706 99.085946 
L 178.420157 100.300867 
L 181.756698 102.000891 
L 187.039554 104.984097 
L 191.488276 107.465175 
L 192.322411 107.361158 
L 193.156546 107.554797 
L 194.268726 108.13517 
L 195.380907 108.985956 
L 196.493087 110.087728 
L 197.883312 111.789067 
L 199.551583 114.256988 
L 201.219853 117.126194 
L 203.166169 120.893241 
L 205.668574 126.240042 
L 208.449025 132.273013 
L 209.561205 134.1481 
L 211.229476 137.368827 
L 212.897746 140.042073 
L 214.566017 142.295536 
L 216.790377 144.873975 
L 222.351279 151.048963 
L 224.019549 153.334313 
L 224.853684 154.658901 
L 226.521955 158.058639 
L 227.35609 159.460388 
L 228.746316 161.350103 
L 230.136541 162.851844 
L 231.526766 164.013287 
L 232.916992 164.894334 
L 234.585262 165.667417 
L 236.531578 166.310943 
L 243.76075 168.238348 
L 244.594885 168.474708 
L 245.150975 168.691951 
L 246.5412 168.68011 
L 249.599696 168.726855 
L 252.102102 168.996417 
L 254.048417 169.411942 
L 255.994733 170.055391 
L 257.663003 170.81996 
L 258.497139 171.198104 
L 260.443454 171.011509 
L 262.111724 170.68723 
L 264.61413 169.351111 
L 265.72631 168.383306 
L 267.116536 166.861055 
L 268.784806 164.633209 
L 270.731122 161.57555 
L 272.955482 157.621056 
L 276.292023 151.174263 
L 278.238339 147.007866 
L 279.350519 144.498694 
L 279.628564 144.228746 
L 280.184654 144.076513 
L 282.68706 142.745656 
L 286.857736 140.467736 
L 288.804052 139.689933 
L 290.194277 139.349866 
L 291.584502 139.243682 
L 293.252773 139.255446 
L 294.642998 138.731338 
L 296.311269 137.862906 
L 297.145404 137.257535 
L 299.925855 134.873199 
L 303.818486 131.097097 
L 307.155027 127.958795 
L 309.379387 126.164506 
L 310.769613 125.259932 
L 311.603748 125.134167 
L 314.384199 124.945482 
L 315.218334 124.875287 
L 316.608559 124.697746 
L 317.998785 124.732883 
L 319.38901 125.01235 
L 320.779235 125.567803 
L 321.891416 126.231683 
L 323.003596 127.108551 
L 324.393821 128.526707 
L 325.784047 130.330903 
L 327.174272 132.551087 
L 328.564497 135.216207 
L 329.398633 137.136956 
L 333.013219 146.00864 
L 334.959534 150.083016 
L 336.627805 153.075819 
L 338.296075 155.58917 
L 339.6863 157.303975 
L 341.076526 158.663778 
L 342.188706 159.489488 
L 343.300886 160.076904 
L 344.413067 160.420453 
L 345.525247 160.514564 
L 346.637427 160.355675 
L 347.193517 160.245621 
L 347.749607 160.496454 
L 348.305698 160.718108 
L 349.139833 160.423472 
L 353.310509 158.498078 
L 358.593365 155.857106 
L 360.539681 155.159327 
L 362.207951 154.794804 
L 363.598177 154.702938 
L 364.988402 154.840466 
L 365.544492 154.916931 
L 365.822537 154.860046 
L 367.490808 153.189278 
L 370.271259 149.888294 
L 374.441935 144.944171 
L 376.38825 143.016611 
L 377.778476 141.918785 
L 379.168701 141.124574 
L 380.280881 140.750841 
L 381.393062 140.645586 
L 382.227197 140.763224 
L 382.783287 140.950671 
L 383.617422 141.825217 
L 385.563738 142.603794 
L 387.510053 143.111185 
L 393.349 144.40768 
L 394.739225 145.001287 
L 396.12945 145.824908 
L 397.519676 146.936277 
L 398.909901 148.393053 
L 400.022082 149.846192 
L 400.578172 150.791707 
L 400.856217 151.332997 
L 401.690352 152.07876 
L 402.524487 152.63042 
L 403.358622 152.915769 
L 404.192758 152.957175 
L 405.026893 152.778628 
L 405.861028 152.403193 
L 406.973208 151.636534 
L 408.363434 150.331062 
L 410.031704 148.401567 
L 415.870651 141.27611 
L 416.982831 140.33106 
L 417.816966 139.688307 
L 418.651102 138.372697 
L 422.543733 131.049655 
L 426.436364 123.895873 
L 426.436364 123.895873 
" clip-path="url(#pe8b783fc93)" style="fill: none; stroke: #ff00ff; stroke-width: 3; stroke-linecap: square"/>
   </g>
   <g id="patch_3">
    <path d="M 7.2 331.2 
L 7.2 7.2 
" style="fill: none; stroke: #000000; stroke-width: 0.8; stroke-linejoin: miter; stroke-linecap: square"/>
   </g>
   <g id="patch_4">
    <path d="M 446.4 331.2 
L 446.4 7.2 
" style="fill: none; stroke: #000000; stroke-width: 0.8; stroke-linejoin: miter; stroke-linecap: square"/>
   </g>
   <g id="patch_5">
    <path d="M 7.2 331.2 
L 446.4 331.2 
" style="fill: none; stroke: #000000; stroke-width: 0.8; stroke-linejoin: miter; stroke-linecap: square"/>
   </g>
   <g id="patch_6">
    <path d="M 7.2 7.2 
L 446.4 7.2 
" style="fill: none; stroke: #000000; stroke-width: 0.8; stroke-linejoin: miter; stroke-linecap: square"/>
   </g>
  </g>
 </g>
 <defs>
  <clipPath id="pe8b783fc93">
   <rect x="7.2" y="7.2" width="439.2" height="324"/>
  </clipPath>
 </defs>
</svg>
