<?xml version="1.0" encoding="utf-8" standalone="no"?>
<!DOCTYPE svg PUBLIC "-//W3C//DTD SVG 1.1//EN"
  "http://www.w3.org/Graphics/SVG/1.1/DTD/svg11.dtd">
<svg xmlns:xlink="http://www.w3.org/1999/xlink" width="453.6pt" height="338.4pt" viewBox="0 0 453.6 338.4" xmlns="http://www.w3.org/2000/svg" version="1.1">
 <metadata>
  <rdf:RDF xmlns:dc="http://purl.org/dc/elements/1.1/" xmlns:cc="http://creativecommons.org/ns#" xmlns:rdf="http://www.w3.org/1999/02/22-rdf-syntax-ns#">
   <cc:Work>
    <dc:type rdf:resource="http://purl.org/dc/dcmitype/StillImage"/>
    <dc:date>2025-05-15T18:13:18.484171</dc:date>
    <dc:format>image/svg+xml</dc:format>
    <dc:creator>
     <cc:Agent>
      <dc:title>Matplotlib v3.10.1, https://matplotlib.org/</dc:title>
     </cc:Agent>
    </dc:creator>
   </cc:Work>
  </rdf:RDF>
 </metadata>
 <defs>
  <style type="text/css">*{stroke-linejoin: round; stroke-linecap: butt}</style>
 </defs>
 <g id="figure_1">
  <g id="patch_1">
   <path d="M 0 338.4 
L 453.6 338.4 
L 453.6 0 
L 0 0 
z
" style="fill: #ffffff"/>
  </g>
  <g id="axes_1">
   <g id="patch_2">
    <path d="M 7.2 331.2 
L 446.4 331.2 
L 446.4 7.2 
L 7.2 7.2 
z
" style="fill: #ffffff"/>
   </g>
   <g id="matplotlib.axis_1"/>
   <g id="matplotlib.axis_2"/>
   <g id="line2d_1">
    <path d="M 27.163636 146.119131 
L 27.719727 145.8666 
L 28.275817 145.830834 
L 28.831907 146.015637 
L 29.387997 146.418512 
L 30.222132 147.410198 
L 31.056267 148.816154 
L 32.168448 151.193581 
L 36.339124 160.832248 
L 37.173259 162.019079 
L 37.729349 162.548532 
L 38.285439 162.843932 
L 38.84153 162.887406 
L 39.39762 162.66348 
L 39.95371 162.158418 
L 40.5098 161.359711 
L 41.06589 160.255516 
L 41.900025 158.003535 
L 42.734161 155.010409 
L 43.568296 151.259026 
L 44.680476 145.093669 
L 46.070701 135.700119 
L 47.738972 122.654485 
L 51.631603 91.404044 
L 53.021828 82.033109 
L 54.134009 75.896962 
L 54.968144 72.317972 
L 55.802279 69.775996 
L 56.358369 68.719509 
L 56.914459 68.208163 
L 57.192504 68.164026 
L 57.47055 68.263579 
L 58.02664 68.90039 
L 58.58273 70.127143 
L 59.13882 71.948092 
L 59.972955 75.798384 
L 60.80709 80.999881 
L 61.641226 87.573225 
L 62.753406 98.531467 
L 63.865586 112.075314 
L 64.977767 128.2347 
L 66.367992 151.9582 
L 68.036262 184.810269 
L 72.484984 276.246489 
L 73.597164 292.982198 
L 74.431299 302.284507 
L 74.987389 306.780421 
L 75.543479 309.875109 
L 76.09957 311.575968 
L 76.377615 311.913808 
L 76.65566 311.918335 
L 76.933705 311.59751 
L 77.21175 310.960406 
L 77.76784 308.780017 
L 78.32393 305.473637 
L 79.158065 298.667215 
L 80.270246 286.961848 
L 83.606787 249.273382 
L 84.440922 242.496726 
L 85.275057 237.340538 
L 86.109192 233.715694 
L 86.665282 232.055587 
L 87.221372 230.924854 
L 87.777463 230.263477 
L 88.333553 230.019512 
L 88.889643 230.150695 
L 89.445733 230.622859 
L 90.001823 231.40859 
L 90.835958 233.129654 
L 91.670094 235.463978 
L 92.504229 238.412615 
L 93.338364 242.032289 
L 94.450544 248.080278 
L 95.562725 255.723797 
L 96.95295 267.379524 
L 99.177311 286.957809 
L 100.011446 292.50336 
L 100.567536 295.082186 
L 101.123626 296.569988 
L 101.401671 296.867056 
L 101.679716 296.853485 
L 101.957761 296.524397 
L 102.235807 295.878844 
L 102.791897 293.65301 
L 103.347987 290.239818 
L 104.182122 283.14422 
L 105.294302 270.781145 
L 106.684528 252.34327 
L 108.630843 223.57376 
L 110.577159 191.951624 
L 113.079564 147.241395 
L 115.303925 108.350039 
L 116.69415 87.406413 
L 117.806331 73.28115 
L 118.918511 61.601335 
L 120.030691 52.28484 
L 120.864827 46.776216 
L 121.698962 42.495946 
L 122.533097 39.430214 
L 123.089187 38.061566 
L 123.645277 37.235561 
L 124.201367 36.953566 
L 124.479413 37.016357 
L 125.035503 37.547098 
L 125.591593 38.612327 
L 126.147683 40.200803 
L 126.981818 43.528901 
L 127.815953 47.928276 
L 128.928134 55.310142 
L 130.040314 64.209498 
L 131.430539 77.083597 
L 133.376855 97.431252 
L 137.825576 145.12807 
L 139.215801 157.356968 
L 140.327982 165.493091 
L 141.440162 172.050748 
L 142.274297 175.93105 
L 143.108433 178.946908 
L 143.942568 181.136722 
L 144.776703 182.553956 
L 145.332793 183.104054 
L 145.888883 183.367746 
L 146.444973 183.37481 
L 147.001064 183.158182 
L 147.835199 182.492472 
L 148.947379 181.168274 
L 151.72783 177.504092 
L 152.561965 176.734557 
L 153.3961 176.242568 
L 154.230236 176.059657 
L 155.064371 176.195172 
L 155.898506 176.642477 
L 156.732641 177.383992 
L 157.844821 178.778729 
L 159.235047 180.986241 
L 160.903317 183.641117 
L 161.737453 184.575338 
L 162.293543 184.916944 
L 162.849633 184.966448 
L 163.405723 184.672725 
L 163.961813 183.993474 
L 164.517903 182.895797 
L 165.073993 181.356862 
L 165.908129 178.194504 
L 166.742264 174.003543 
L 167.854444 166.877408 
L 168.966624 158.161548 
L 170.35685 145.444641 
L 172.303165 125.380211 
L 176.751887 78.496734 
L 178.142112 66.088946 
L 179.254292 57.637168 
L 180.366473 50.746159 
L 181.200608 46.708196 
L 182.034743 43.695304 
L 182.590833 42.27003 
L 183.146923 41.315945 
L 183.703013 40.833049 
L 183.981058 40.768033 
L 184.259104 40.819897 
L 184.815194 41.273759 
L 185.371284 42.190848 
L 185.927374 43.567575 
L 186.761509 46.483567 
L 187.595644 50.401646 
L 188.42978 55.291605 
L 189.54196 63.25073 
L 190.65414 72.737453 
L 192.044366 86.51108 
L 193.712636 105.378709 
L 195.936997 133.255959 
L 201.775943 207.693012 
L 204.000304 232.9757 
L 205.946619 252.662075 
L 209.561205 286.044788 
L 211.507521 302.687373 
L 212.619701 310.155709 
L 213.453836 314.054392 
L 214.009927 315.666459 
L 214.566017 316.423087 
L 214.844062 316.472727 
L 215.122107 316.30291 
L 215.400152 315.915635 
L 215.956242 314.5048 
L 216.512332 312.286312 
L 217.346467 307.590405 
L 218.180603 301.505313 
L 219.570828 289.200229 
L 224.297594 244.976457 
L 227.91218 214.174804 
L 228.746316 208.703723 
L 229.580451 204.797157 
L 230.136541 203.255588 
L 230.414586 202.834566 
L 230.692631 202.655753 
L 230.970676 202.72354 
L 231.248721 203.040521 
L 231.804811 204.423589 
L 232.360901 206.795104 
L 232.916992 210.124821 
L 233.751127 216.808255 
L 234.585262 225.298668 
L 235.975487 242.415378 
L 238.199848 270.820657 
L 239.033983 278.939922 
L 239.590073 282.851913 
L 240.146164 285.313029 
L 240.424209 285.951118 
L 240.702254 286.177356 
L 240.980299 285.985265 
L 241.258344 285.373186 
L 241.814434 282.907231 
L 242.370524 278.861082 
L 243.204659 270.16127 
L 244.038795 258.916039 
L 245.42902 236.558729 
L 249.877741 161.533334 
L 250.989921 146.489499 
L 252.102102 134.587358 
L 252.936237 128.104356 
L 253.492327 125.018527 
L 254.048417 122.919524 
L 254.604507 121.773748 
L 254.882553 121.541705 
L 255.160598 121.525295 
L 255.438643 121.71521 
L 255.994733 122.672515 
L 256.550823 124.328037 
L 257.384958 127.931963 
L 258.219093 132.63749 
L 259.331274 140.209408 
L 260.999544 153.375356 
L 264.892175 185.202276 
L 266.282401 194.659808 
L 267.394581 200.931294 
L 268.506761 205.892005 
L 269.340896 208.707801 
L 270.175032 210.753027 
L 271.009167 212.073402 
L 271.565257 212.591225 
L 272.121347 212.856986 
L 272.677437 212.908187 
L 273.511573 212.669139 
L 274.345708 212.165091 
L 276.013978 210.790296 
L 278.238339 208.981757 
L 280.462699 207.52618 
L 281.852925 206.501948 
L 282.68706 205.641093 
L 283.521195 204.454341 
L 284.35533 202.82319 
L 285.189466 200.643055 
L 286.023601 197.835044 
L 286.857736 194.350534 
L 287.969916 188.622024 
L 289.082097 181.668829 
L 290.472322 171.333603 
L 291.862547 159.318583 
L 293.530818 142.963525 
L 295.477133 121.718937 
L 300.75999 62.238771 
L 302.150215 49.684092 
L 303.262396 41.326521 
L 304.374576 34.6169 
L 305.208711 30.731915 
L 306.042846 27.876567 
L 306.598936 26.563179 
L 307.155027 25.732608 
L 307.711117 25.391841 
L 307.989162 25.406866 
L 308.267207 25.54599 
L 308.823297 26.198021 
L 309.379387 27.348558 
L 309.935477 28.995299 
L 310.769613 32.383769 
L 311.603748 36.84293 
L 312.715928 44.35713 
L 313.828108 53.489154 
L 315.218334 66.819768 
L 316.886604 84.980594 
L 319.38901 115.004224 
L 323.559686 165.319 
L 325.227956 182.733784 
L 326.618182 195.339859 
L 328.008407 206.08075 
L 329.398633 214.937296 
L 330.510813 220.726568 
L 331.622993 225.478183 
L 332.735173 229.31868 
L 333.847354 232.34927 
L 334.959534 234.639534 
L 335.793669 235.919147 
L 336.90585 237.156164 
L 338.296075 238.277432 
L 339.6863 239.425706 
L 340.798481 240.642391 
L 341.910661 242.215336 
L 343.022841 244.140774 
L 344.135022 246.432405 
L 345.247202 249.224747 
L 346.081337 251.826139 
L 346.915472 255.06042 
L 347.749607 259.112832 
L 348.583743 264.108266 
L 349.695923 272.176925 
L 352.198329 291.583715 
L 352.754419 294.659183 
L 353.310509 296.747376 
L 353.588554 297.355845 
L 353.866599 297.64587 
L 354.144644 297.601557 
L 354.422689 297.21156 
L 354.700734 296.469244 
L 355.256825 293.924117 
L 355.812915 290.002858 
L 356.64705 281.764586 
L 357.481185 271.139151 
L 358.593365 254.167994 
L 360.261636 224.541659 
L 362.207951 185.368835 
L 364.988402 128.246466 
L 366.100582 110.49273 
L 366.934718 101.235475 
L 367.490808 97.422101 
L 367.768853 96.278432 
L 368.046898 95.657738 
L 368.324943 95.564429 
L 368.602988 95.998934 
L 368.881033 96.957117 
L 369.437123 100.409334 
L 369.993213 105.81856 
L 370.827349 117.280401 
L 371.661484 132.233346 
L 372.773664 156.484328 
L 374.441935 198.684932 
L 376.666295 254.830279 
L 377.778476 277.346821 
L 378.612611 290.029561 
L 379.168701 296.180293 
L 379.724791 300.415197 
L 380.280881 302.75476 
L 380.558926 303.238612 
L 380.836971 303.286047 
L 381.115016 302.91685 
L 381.393062 302.153744 
L 381.949152 299.549718 
L 382.505242 295.703007 
L 383.339377 288.17066 
L 386.675918 254.526459 
L 387.510053 249.117418 
L 388.066143 246.597852 
L 388.622233 244.922466 
L 389.178324 244.012011 
L 389.456369 243.808417 
L 389.734414 243.750621 
L 390.290504 244.001377 
L 390.846594 244.621251 
L 391.680729 245.949235 
L 393.349 248.738104 
L 394.183135 249.736736 
L 394.739225 250.172744 
L 395.295315 250.408338 
L 395.851405 250.439587 
L 396.407496 250.269145 
L 396.963586 249.904007 
L 397.797721 249.013845 
L 398.631856 247.750369 
L 399.744036 245.566985 
L 401.134262 242.20716 
L 402.802532 237.519526 
L 404.470803 232.124154 
L 405.582983 227.863045 
L 406.695163 222.766389 
L 407.807344 216.621657 
L 408.919524 209.339363 
L 410.309749 198.667878 
L 411.699975 186.340657 
L 413.368245 169.423911 
L 415.314561 146.977937 
L 418.095011 111.617511 
L 421.709597 65.979324 
L 423.377868 47.54981 
L 424.768093 34.426731 
L 425.880273 25.674539 
L 426.436364 21.927273 
L 426.436364 21.927273 
" clip-path="url(#p65a68b0957)" style="fill: none; stroke-dasharray: 11.1,4.8; stroke-dashoffset: 0; stroke: #000000; stroke-width: 3"/>
   </g>
   <g id="line2d_2">
    <path d="M 27.163636 175.640606 
L 28.275817 174.894407 
L 29.387997 174.418145 
L 30.222132 174.270513 
L 31.056267 174.307899 
L 32.168448 174.607924 
L 34.392808 175.36304 
L 34.948898 175.165885 
L 35.226944 175.304073 
L 35.783034 175.793389 
L 36.617169 175.607434 
L 37.451304 175.641757 
L 38.285439 175.955792 
L 39.119575 176.583803 
L 39.95371 177.369514 
L 40.231755 177.1315 
L 40.5098 176.633423 
L 41.900025 172.690603 
L 43.012206 170.198052 
L 43.846341 168.743977 
L 44.680476 167.664915 
L 45.514611 166.96459 
L 46.070701 166.705307 
L 46.626792 166.607335 
L 47.182882 166.676975 
L 47.738972 166.896296 
L 48.573107 167.511839 
L 49.685287 168.596385 
L 49.963332 168.568247 
L 51.631603 166.7064 
L 53.021828 165.446202 
L 53.577918 165.402806 
L 54.134009 165.103835 
L 54.690099 164.467395 
L 55.246189 163.417445 
L 55.802279 161.922531 
L 56.636414 158.788056 
L 57.47055 154.540235 
L 58.304685 149.223459 
L 59.416865 140.52674 
L 60.529045 130.310405 
L 60.80709 130.772598 
L 62.753406 136.610711 
L 66.646037 148.162484 
L 68.314307 153.924712 
L 69.704533 159.549474 
L 70.538668 163.765529 
L 72.484984 176.78326 
L 73.875209 185.511082 
L 76.933705 155.543511 
L 77.21175 153.190221 
L 77.489795 151.850412 
L 78.32393 151.097599 
L 78.88002 150.913635 
L 79.158065 150.972641 
L 79.43611 151.157561 
L 79.992201 151.959156 
L 80.548291 153.44406 
L 81.104381 155.722676 
L 81.660471 158.910458 
L 82.216561 163.101147 
L 83.050696 171.462464 
L 83.328741 174.113613 
L 83.606787 174.214434 
L 83.884832 174.459609 
L 84.440922 175.562517 
L 84.718967 174.902544 
L 85.275057 172.424666 
L 85.831147 170.832404 
L 86.387237 169.881227 
L 87.221372 169.089798 
L 88.055508 168.27753 
L 88.611598 167.848684 
L 89.167688 167.694788 
L 89.723778 167.863845 
L 90.279868 168.377805 
L 90.835958 169.247557 
L 91.392049 170.497296 
L 92.226184 173.099605 
L 92.782274 175.317322 
L 93.060319 175.77493 
L 93.894454 175.204227 
L 95.006635 174.806406 
L 96.118815 174.385013 
L 96.95295 173.744826 
L 97.50904 173.075253 
L 98.06513 172.146144 
L 98.621221 170.897732 
L 99.455356 168.355132 
L 100.011446 166.176147 
L 100.289491 166.389809 
L 101.679716 178.640932 
L 102.791897 186.571178 
L 103.904077 192.896089 
L 104.738212 196.655414 
L 105.016257 197.203014 
L 105.294302 197.193413 
L 105.850393 196.870969 
L 106.406483 196.744879 
L 107.240618 196.831105 
L 108.352798 197.294957 
L 112.245429 199.248728 
L 113.35761 199.46479 
L 114.46979 199.457492 
L 115.58197 199.229117 
L 116.69415 198.787705 
L 117.806331 198.123108 
L 118.918511 197.203092 
L 119.474601 196.624057 
L 120.030691 195.20692 
L 121.142872 192.193813 
L 121.977007 190.494564 
L 122.811142 189.359715 
L 123.923322 187.806712 
L 125.035503 185.976787 
L 125.313548 184.946467 
L 127.537908 170.342171 
L 128.650089 162.855854 
L 129.206179 160.299673 
L 129.762269 158.468168 
L 130.318359 157.264322 
L 130.874449 156.638477 
L 131.152494 156.505733 
L 131.708584 156.602476 
L 132.264675 157.082114 
L 132.820765 157.891123 
L 133.6549 159.631856 
L 134.76708 162.586523 
L 135.601215 165.037532 
L 135.879261 163.94122 
L 136.713396 159.689809 
L 137.547531 156.638301 
L 138.103621 155.256092 
L 138.659711 154.37311 
L 139.215801 153.971796 
L 139.771892 154.02848 
L 140.049937 154.838992 
L 141.996252 164.559279 
L 143.386478 169.932623 
L 144.220613 172.43331 
L 144.776703 173.568452 
L 145.332793 174.296426 
L 145.888883 174.628432 
L 146.444973 174.578616 
L 148.113244 180.122928 
L 149.503469 183.693293 
L 151.449785 187.926695 
L 151.72783 188.513807 
L 152.561965 191.728459 
L 154.786326 200.540516 
L 155.064371 200.725202 
L 157.010686 186.811378 
L 157.566776 182.815951 
L 158.678957 174.819343 
L 160.069182 166.605813 
L 162.015498 156.861193 
L 163.127678 151.759367 
L 163.405723 153.273911 
L 163.961813 157.363426 
L 164.517903 160.025073 
L 164.795948 161.225406 
L 165.352038 165.559863 
L 165.908129 168.380576 
L 166.464219 169.827782 
L 166.742264 170.085972 
L 167.020309 170.065542 
L 167.298354 169.777088 
L 167.854444 168.46247 
L 168.410534 166.27168 
L 169.24467 161.608067 
L 169.522715 160.026907 
L 170.35685 157.350041 
L 171.747075 151.920872 
L 173.693391 144.285519 
L 175.083616 139.639232 
L 175.361661 139.382096 
L 176.473841 139.334661 
L 178.142112 139.540811 
L 179.810382 139.976331 
L 180.922563 140.477491 
L 182.034743 141.270168 
L 182.868878 142.131978 
L 183.146923 142.916948 
L 183.703013 146.860061 
L 185.093239 156.765796 
L 186.205419 163.234261 
L 187.317599 168.297335 
L 188.42978 172.213853 
L 189.54196 178.921073 
L 190.376095 182.572357 
L 190.932185 184.290767 
L 191.488276 185.430807 
L 192.044366 186.013685 
L 192.878501 188.947103 
L 193.712636 190.96386 
L 194.824816 192.890001 
L 195.380907 193.147099 
L 195.936997 192.984364 
L 196.493087 192.544766 
L 197.883312 190.955919 
L 198.717447 190.09764 
L 199.273538 189.693009 
L 199.551583 189.988604 
L 200.107673 190.840599 
L 200.663763 191.202791 
L 201.219853 191.134849 
L 201.775943 190.727349 
L 202.332033 190.028566 
L 203.166169 188.52493 
L 204.000304 186.576915 
L 205.112484 183.378186 
L 206.224664 180.018263 
L 207.336845 180.358132 
L 208.17098 180.434114 
L 209.005115 180.284609 
L 209.28316 180.17491 
L 209.561205 180.247945 
L 210.117296 181.043003 
L 210.673386 182.242283 
L 211.229476 183.880204 
L 212.063611 186.891028 
L 213.731881 176.839515 
L 215.678197 165.219115 
L 216.790377 159.598061 
L 217.902558 155.155641 
L 218.180603 154.424467 
L 218.458648 154.444858 
L 220.404963 155.81175 
L 221.517144 156.967224 
L 222.351279 158.207402 
L 223.185414 159.905812 
L 224.019549 162.210672 
L 225.13173 165.882854 
L 226.8 168.212944 
L 227.634135 171.963819 
L 228.46827 176.957507 
L 229.302406 183.267862 
L 230.136541 190.989812 
L 231.526766 205.533892 
L 231.804811 205.593483 
L 232.916992 198.314292 
L 234.307217 187.757989 
L 235.141352 181.055686 
L 235.975487 181.966395 
L 236.809623 182.473584 
L 239.312028 183.605858 
L 240.146164 184.454146 
L 240.980299 185.832219 
L 241.814434 187.910694 
L 242.648569 190.846746 
L 244.038795 196.707083 
L 244.31684 197.072124 
L 246.5412 196.934736 
L 247.375336 197.092026 
L 247.653381 196.943243 
L 248.765561 195.478378 
L 249.877741 193.641117 
L 250.989921 191.357506 
L 252.102102 188.566081 
L 253.214282 185.178139 
L 254.326462 181.14158 
L 255.716688 175.130958 
L 257.106913 168.087068 
L 258.497139 160.928543 
L 259.053229 158.387132 
L 259.331274 158.176572 
L 260.165409 159.633222 
L 260.999544 161.580925 
L 261.555634 163.331843 
L 263.50195 178.529944 
L 264.336085 183.046628 
L 265.17022 186.600076 
L 266.282401 190.23895 
L 267.394581 193.06099 
L 270.453077 199.693906 
L 270.731122 199.780893 
L 271.287212 197.659061 
L 272.399392 193.387669 
L 273.233527 190.83018 
L 273.789618 189.475658 
L 275.457888 182.394949 
L 276.292023 180.261409 
L 276.570068 179.847392 
L 277.682249 182.599206 
L 280.184654 189.748853 
L 281.852925 195.5768 
L 284.077285 203.432352 
L 285.189466 206.614067 
L 286.023601 208.387171 
L 286.579691 209.197253 
L 287.135781 209.670745 
L 287.691871 209.788737 
L 287.969916 209.733419 
L 288.526007 209.845909 
L 288.804052 209.755429 
L 289.360142 209.212532 
L 289.916232 208.28075 
L 290.750367 206.253592 
L 291.862547 202.702993 
L 293.530818 196.950521 
L 294.364953 196.179737 
L 295.199088 195.108109 
L 296.589314 193.155762 
L 296.867359 193.043448 
L 297.145404 192.078085 
L 298.535629 179.933871 
L 299.64781 172.020289 
L 300.481945 167.736272 
L 301.038035 165.931128 
L 301.31608 165.402748 
L 301.594125 165.175642 
L 301.87217 165.229867 
L 302.150215 165.644235 
L 302.42826 166.391448 
L 303.262396 169.679877 
L 303.818486 170.531189 
L 304.096531 170.653143 
L 304.374576 170.574663 
L 304.652621 170.31741 
L 305.208711 169.27706 
L 305.764801 167.627216 
L 306.598936 164.227215 
L 307.989162 157.21318 
L 309.379387 150.570234 
L 309.935477 148.607799 
L 310.491567 147.301416 
L 310.769613 146.959146 
L 311.047658 146.843651 
L 311.325703 146.991986 
L 311.603748 147.421066 
L 311.881793 148.149957 
L 312.437883 150.591405 
L 312.715928 153.670542 
L 313.550063 168.386995 
L 313.828108 170.915508 
L 315.496379 176.852881 
L 316.052469 178.832486 
L 317.164649 179.763995 
L 318.27683 180.354874 
L 319.38901 180.67244 
L 320.50119 180.75974 
L 321.891416 180.593883 
L 323.281641 180.161505 
L 324.393821 179.616949 
L 325.506002 178.853189 
L 326.618182 177.799629 
L 327.730362 176.395858 
L 328.842542 174.513601 
L 329.954723 172.061401 
L 331.344948 168.244573 
L 331.901038 166.704956 
L 332.457128 167.697325 
L 332.735173 167.925797 
L 333.013219 167.922753 
L 333.291264 167.70431 
L 333.847354 166.694536 
L 334.403444 165.008965 
L 335.237579 161.491831 
L 336.349759 155.626167 
L 337.739985 147.850206 
L 338.01803 146.855398 
L 339.13021 150.656635 
L 340.24239 155.36665 
L 340.520436 156.723318 
L 340.798481 158.712328 
L 342.744796 179.721965 
L 344.135022 178.833325 
L 345.525247 178.164611 
L 346.915472 177.773502 
L 347.749607 177.746984 
L 348.583743 177.768097 
L 349.139833 176.971244 
L 349.695923 175.813721 
L 350.530058 173.529798 
L 351.920284 169.103379 
L 352.198329 169.342993 
L 352.754419 170.741008 
L 353.588554 173.640766 
L 354.700734 178.680523 
L 356.09096 185.68605 
L 357.20314 187.649792 
L 358.593365 189.590685 
L 360.539681 192.1311 
L 361.929906 194.168853 
L 362.764042 194.367978 
L 363.598177 194.297655 
L 364.432312 193.927151 
L 364.988402 193.48408 
L 365.544492 192.836459 
L 366.656673 191.228314 
L 367.212763 189.645164 
L 367.768853 187.383427 
L 368.324943 184.403882 
L 370.827349 164.055466 
L 371.939529 157.286137 
L 372.773664 153.559769 
L 373.329754 151.808051 
L 373.885845 150.704597 
L 374.16389 150.400065 
L 374.441935 150.286405 
L 374.71998 150.340571 
L 374.998025 150.589551 
L 375.554115 151.663716 
L 375.83216 153.363727 
L 378.612611 179.698414 
L 380.558926 199.955296 
L 380.836971 199.903588 
L 383.061332 184.457834 
L 383.617422 181.547402 
L 384.729602 177.138505 
L 385.563738 174.681213 
L 386.397873 172.874567 
L 387.232008 171.63995 
L 388.066143 170.61002 
L 390.568549 160.659074 
L 391.680729 157.453652 
L 392.514865 155.614947 
L 392.79291 155.185164 
L 393.070955 155.126119 
L 393.627045 155.846814 
L 394.46118 157.294547 
L 395.57336 159.780093 
L 396.685541 162.900909 
L 398.075766 167.594728 
L 400.578172 177.103461 
L 401.412307 176.229689 
L 401.968397 175.909371 
L 402.524487 175.77655 
L 403.080577 175.823926 
L 403.636668 176.028203 
L 404.470803 176.579666 
L 405.861028 177.851532 
L 406.973208 178.7703 
L 407.529299 179.026694 
L 407.807344 179.073193 
L 408.085389 178.741382 
L 408.919524 174.230805 
L 409.753659 168.596228 
L 410.031704 168.253959 
L 410.587794 168.598355 
L 411.143885 169.231771 
L 411.97802 170.629103 
L 413.0902 173.051643 
L 414.75847 176.745737 
L 415.592606 178.010384 
L 416.148696 178.429825 
L 416.426741 178.475582 
L 416.704786 178.398274 
L 416.982831 178.188202 
L 417.538921 177.317025 
L 417.816966 176.639882 
L 418.095011 176.291973 
L 418.373056 176.369301 
L 418.651102 175.791672 
L 419.485237 170.688265 
L 420.041327 168.227851 
L 420.597417 166.529109 
L 421.153507 165.566244 
L 421.431552 165.354337 
L 421.709597 165.309732 
L 421.987642 166.281437 
L 422.265688 166.832276 
L 422.821778 164.994741 
L 423.377868 163.97002 
L 423.933958 163.569272 
L 424.490048 163.625078 
L 425.046138 164.014138 
L 425.880273 164.952242 
L 426.436364 165.710714 
L 426.436364 165.710714 
" clip-path="url(#p65a68b0957)" style="fill: none; stroke: #ff00ff; stroke-width: 3; stroke-linecap: square"/>
   </g>
   <g id="patch_3">
    <path d="M 7.2 331.2 
L 7.2 7.2 
" style="fill: none; stroke: #000000; stroke-width: 0.8; stroke-linejoin: miter; stroke-linecap: square"/>
   </g>
   <g id="patch_4">
    <path d="M 446.4 331.2 
L 446.4 7.2 
" style="fill: none; stroke: #000000; stroke-width: 0.8; stroke-linejoin: miter; stroke-linecap: square"/>
   </g>
   <g id="patch_5">
    <path d="M 7.2 331.2 
L 446.4 331.2 
" style="fill: none; stroke: #000000; stroke-width: 0.8; stroke-linejoin: miter; stroke-linecap: square"/>
   </g>
   <g id="patch_6">
    <path d="M 7.2 7.2 
L 446.4 7.2 
" style="fill: none; stroke: #000000; stroke-width: 0.8; stroke-linejoin: miter; stroke-linecap: square"/>
   </g>
  </g>
 </g>
 <defs>
  <clipPath id="p65a68b0957">
   <rect x="7.2" y="7.2" width="439.2" height="324"/>
  </clipPath>
 </defs>
</svg>
