<?xml version="1.0" encoding="utf-8" standalone="no"?>
<!DOCTYPE svg PUBLIC "-//W3C//DTD SVG 1.1//EN"
  "http://www.w3.org/Graphics/SVG/1.1/DTD/svg11.dtd">
<svg xmlns:xlink="http://www.w3.org/1999/xlink" width="453.6pt" height="338.4pt" viewBox="0 0 453.6 338.4" xmlns="http://www.w3.org/2000/svg" version="1.1">
 <metadata>
  <rdf:RDF xmlns:dc="http://purl.org/dc/elements/1.1/" xmlns:cc="http://creativecommons.org/ns#" xmlns:rdf="http://www.w3.org/1999/02/22-rdf-syntax-ns#">
   <cc:Work>
    <dc:type rdf:resource="http://purl.org/dc/dcmitype/StillImage"/>
    <dc:date>2025-05-15T17:42:04.148060</dc:date>
    <dc:format>image/svg+xml</dc:format>
    <dc:creator>
     <cc:Agent>
      <dc:title>Matplotlib v3.10.1, https://matplotlib.org/</dc:title>
     </cc:Agent>
    </dc:creator>
   </cc:Work>
  </rdf:RDF>
 </metadata>
 <defs>
  <style type="text/css">*{stroke-linejoin: round; stroke-linecap: butt}</style>
 </defs>
 <g id="figure_1">
  <g id="patch_1">
   <path d="M 0 338.4 
L 453.6 338.4 
L 453.6 0 
L 0 0 
z
" style="fill: #ffffff"/>
  </g>
  <g id="axes_1">
   <g id="patch_2">
    <path d="M 7.2 331.2 
L 446.4 331.2 
L 446.4 7.2 
L 7.2 7.2 
z
" style="fill: #ffffff"/>
   </g>
   <g id="matplotlib.axis_1"/>
   <g id="matplotlib.axis_2"/>
   <g id="line2d_1">
    <path d="M 27.163636 250.106216 
L 32.446493 239.261366 
L 34.114763 236.204202 
L 35.226944 233.466997 
L 37.173259 227.657547 
L 39.675665 219.915071 
L 40.787845 215.442593 
L 43.846341 202.061994 
L 44.958521 198.778935 
L 46.626792 194.839318 
L 47.738972 192.490414 
L 48.295062 191.601994 
L 48.851152 191.069564 
L 49.129197 190.967014 
L 49.407242 190.9829 
L 49.963332 191.372173 
L 50.519423 192.191283 
L 51.353558 193.948608 
L 52.743783 196.959675 
L 53.577918 198.259388 
L 55.524234 200.745843 
L 56.358369 202.422357 
L 57.192504 204.643451 
L 59.972955 212.678076 
L 60.529045 213.69949 
L 61.085135 214.31866 
L 61.363181 214.446579 
L 61.641226 214.437205 
L 61.919271 214.279664 
L 62.475361 213.4859 
L 63.031451 212.027307 
L 63.587541 209.931075 
L 64.421676 205.849112 
L 66.646037 194.14534 
L 68.314307 186.270783 
L 68.870398 182.487736 
L 69.426488 177.277121 
L 69.982578 170.130559 
L 70.538668 160.656239 
L 71.372803 141.689283 
L 72.484984 108.448059 
L 74.431299 45.851739 
L 74.987389 32.947132 
L 75.543479 24.652772 
L 75.821524 22.549683 
L 76.09957 21.927273 
L 76.377615 22.835909 
L 76.65566 25.292288 
L 77.21175 34.743908 
L 77.76784 49.749832 
L 78.601975 80.418778 
L 81.938516 217.454816 
L 82.772651 240.639839 
L 83.606787 258.235962 
L 84.440922 271.094404 
L 85.275057 280.1969 
L 86.109192 286.441513 
L 86.943327 290.623316 
L 87.777463 293.453363 
L 88.611598 295.50205 
L 89.723778 297.608404 
L 90.835958 299.197249 
L 91.392049 299.720851 
L 91.948139 299.984794 
L 92.504229 299.925762 
L 93.060319 299.491887 
L 93.616409 298.654695 
L 94.172499 297.419629 
L 95.006635 294.93028 
L 98.06513 284.585389 
L 98.899266 282.740338 
L 100.011446 280.961495 
L 101.957761 278.087035 
L 104.460167 273.710665 
L 105.016257 273.235277 
L 105.294302 273.157263 
L 105.572347 273.203306 
L 105.850393 273.38349 
L 106.406483 274.169592 
L 106.962573 275.520095 
L 107.796708 278.436073 
L 110.021069 287.135795 
L 110.577159 288.417488 
L 111.133249 289.084877 
L 111.411294 289.188153 
L 111.689339 289.149001 
L 112.245429 288.706184 
L 113.079564 287.453453 
L 114.191745 285.698803 
L 114.747835 285.153449 
L 115.303925 284.950632 
L 115.860015 285.100975 
L 116.416105 285.559867 
L 117.250241 286.645105 
L 120.308736 291.437847 
L 121.420917 293.498738 
L 122.811142 296.658204 
L 124.201367 299.820732 
L 125.035503 301.211742 
L 125.591593 301.783194 
L 126.147683 302.023174 
L 126.703773 301.922116 
L 127.259863 301.499135 
L 127.815953 300.800171 
L 128.650089 299.387979 
L 130.874449 295.386054 
L 131.98663 293.999298 
L 133.6549 292.427839 
L 135.601215 290.746707 
L 136.435351 290.323527 
L 136.991441 290.229178 
L 137.825576 290.35818 
L 141.162117 291.411827 
L 142.552342 291.685562 
L 143.386478 292.055775 
L 144.776703 292.963569 
L 146.723018 294.173963 
L 148.669334 295.367859 
L 152.005875 297.793385 
L 153.3961 298.307556 
L 156.176551 299.200552 
L 160.347227 300.752214 
L 162.293543 301.255157 
L 164.239858 301.496996 
L 166.464219 301.772416 
L 168.688579 302.350081 
L 170.91294 302.85693 
L 172.58121 303.016074 
L 174.249481 302.940656 
L 176.195796 302.578004 
L 179.254292 301.977175 
L 181.200608 301.838284 
L 182.590833 301.955751 
L 183.981058 302.292913 
L 188.707825 303.707022 
L 190.376095 303.921638 
L 192.044366 303.914656 
L 193.990681 303.657852 
L 195.658952 303.249972 
L 196.771132 302.772914 
L 197.883312 302.028775 
L 198.995493 300.994366 
L 200.107673 299.654696 
L 201.219853 297.906483 
L 202.053988 296.207393 
L 203.166169 293.32148 
L 204.556394 288.885891 
L 206.50271 281.851991 
L 207.892935 276.076235 
L 210.673386 263.734169 
L 211.229476 262.098104 
L 211.785566 261.019551 
L 212.341656 260.520259 
L 212.619701 260.475155 
L 213.175791 260.734561 
L 213.731881 261.351118 
L 214.844062 263.089145 
L 215.956242 264.732019 
L 216.790377 265.596826 
L 217.624513 266.087933 
L 218.180603 266.212417 
L 219.014738 266.120433 
L 219.848873 265.755615 
L 220.683008 265.180052 
L 221.517144 264.347864 
L 222.073234 263.5445 
L 222.629324 262.409531 
L 223.185414 260.789811 
L 223.741504 258.510666 
L 224.297594 255.395008 
L 224.853684 251.273751 
L 225.68782 242.821088 
L 226.521955 231.010294 
L 227.35609 215.004052 
L 228.190225 194.080047 
L 229.302406 158.642223 
L 231.804811 73.036942 
L 232.360901 60.479362 
L 232.916992 52.341484 
L 233.195037 50.051285 
L 233.473082 48.959621 
L 233.751127 49.046103 
L 234.029172 50.269411 
L 234.307217 52.571964 
L 234.863307 60.125078 
L 235.419397 71.064914 
L 236.253533 92.391336 
L 237.365713 126.999197 
L 240.146164 218.212617 
L 240.980299 239.233158 
L 241.814434 255.180403 
L 242.648569 266.424241 
L 243.482704 274.139632 
L 244.31684 279.701226 
L 245.42902 285.479228 
L 246.5412 290.174947 
L 247.375336 292.876914 
L 248.209471 294.725413 
L 248.765561 295.489029 
L 249.321651 295.909252 
L 249.877741 296.00087 
L 250.433831 295.742707 
L 250.989921 295.065197 
L 251.546012 293.851517 
L 252.102102 291.954549 
L 252.658192 289.223985 
L 253.214282 285.543044 
L 254.048417 278.189132 
L 255.160598 265.712682 
L 256.828868 246.7603 
L 257.663003 240.013746 
L 258.219093 237.085408 
L 258.775184 235.444559 
L 259.053229 235.077576 
L 259.331274 234.986375 
L 259.609319 235.146864 
L 259.887364 235.533001 
L 260.443454 236.876117 
L 261.277589 239.928977 
L 263.223905 247.89265 
L 263.779995 248.990594 
L 264.05804 249.08761 
L 264.336085 248.809024 
L 264.61413 248.103216 
L 264.892175 246.925352 
L 265.448265 243.026962 
L 266.004356 237.001832 
L 266.838491 224.359736 
L 268.506761 192.685505 
L 269.618942 173.965282 
L 270.453077 163.449158 
L 271.287212 155.776657 
L 272.121347 150.05912 
L 272.955482 145.550237 
L 273.789618 142.253053 
L 274.345708 141.108051 
L 274.623753 140.978512 
L 274.901798 141.201746 
L 275.179843 141.815463 
L 275.457888 142.849793 
L 276.013978 146.251763 
L 276.570068 151.431719 
L 277.404204 162.115934 
L 278.794429 184.308227 
L 280.184654 205.466232 
L 281.01879 215.235807 
L 281.852925 222.063372 
L 282.409015 224.929359 
L 282.965105 226.537243 
L 283.24315 226.919319 
L 283.521195 227.055753 
L 283.79924 226.977479 
L 284.35533 226.31361 
L 285.189466 224.596987 
L 286.301646 222.350267 
L 286.857736 221.603297 
L 287.413826 221.128358 
L 288.526007 220.587947 
L 289.360142 220.078952 
L 291.306457 218.525712 
L 291.862547 218.544028 
L 292.418638 218.966207 
L 292.974728 219.767941 
L 295.199088 223.771468 
L 295.755179 224.278854 
L 296.867359 224.833115 
L 297.423449 225.1943 
L 297.979539 225.793778 
L 298.813674 227.186328 
L 300.2039 229.812273 
L 300.75999 230.456568 
L 301.31608 230.703166 
L 301.87217 230.571414 
L 302.706305 229.944846 
L 303.540441 229.366124 
L 304.096531 229.269924 
L 304.652621 229.47698 
L 305.208711 229.946471 
L 307.155027 231.981286 
L 307.989162 232.361877 
L 309.657432 232.770687 
L 310.491567 233.314564 
L 312.437883 234.962687 
L 312.993973 235.09749 
L 313.550063 234.965359 
L 314.106153 234.592603 
L 315.218334 233.423373 
L 317.164649 231.027179 
L 317.720739 229.994793 
L 318.27683 228.533802 
L 318.83292 226.517529 
L 319.667055 222.410414 
L 322.169461 208.546209 
L 322.725551 206.923638 
L 323.281641 206.137531 
L 323.559686 206.031341 
L 323.837731 206.087962 
L 324.393821 206.580164 
L 325.227956 207.853787 
L 326.896227 210.877531 
L 327.730362 212.856611 
L 328.564497 215.588168 
L 329.676678 220.413267 
L 331.901038 230.5261 
L 333.291264 235.505041 
L 336.90585 247.394978 
L 338.01803 250.289757 
L 339.408255 253.287097 
L 340.798481 255.751413 
L 342.188706 257.669649 
L 343.856976 259.845596 
L 344.969157 261.657388 
L 347.193517 265.467979 
L 348.305698 266.90238 
L 349.973968 268.609399 
L 351.364193 269.821106 
L 352.476374 270.484975 
L 353.588554 270.849354 
L 354.978779 271.32854 
L 355.812915 271.862501 
L 358.31532 273.754551 
L 358.87141 273.892902 
L 359.427501 273.871187 
L 360.261636 273.576324 
L 361.095771 273.04148 
L 361.929906 272.283109 
L 362.764042 271.216464 
L 363.598177 269.733702 
L 364.710357 267.182421 
L 365.822537 264.624155 
L 366.378628 263.672246 
L 366.934718 263.086694 
L 367.490808 262.915513 
L 368.046898 263.140134 
L 368.602988 263.680065 
L 369.993213 265.604764 
L 370.827349 266.617649 
L 371.661484 267.333474 
L 373.051709 268.109254 
L 374.441935 268.955011 
L 376.94434 270.711756 
L 377.50043 270.763185 
L 378.056521 270.505866 
L 378.612611 269.856639 
L 379.168701 268.757936 
L 379.724791 267.197802 
L 380.558926 264.111828 
L 383.061332 253.937164 
L 383.617422 252.4479 
L 384.173512 251.431854 
L 384.729602 250.905385 
L 385.007648 250.825977 
L 385.285693 250.868748 
L 385.841783 251.322327 
L 386.397873 252.276876 
L 386.953963 253.753478 
L 387.510053 255.771986 
L 388.344188 259.810455 
L 389.456369 266.797529 
L 392.236819 285.793246 
L 393.349 291.413949 
L 394.183135 294.56503 
L 395.01727 296.905924 
L 395.851405 298.587587 
L 396.685541 299.776432 
L 397.797721 300.883019 
L 399.465991 302.130872 
L 400.856217 302.968926 
L 401.968397 303.374201 
L 403.080577 303.506807 
L 405.026893 303.626011 
L 406.139073 303.965181 
L 408.919524 305.09685 
L 409.753659 305.123896 
L 410.587794 304.882355 
L 411.42193 304.347007 
L 412.256065 303.525062 
L 413.368245 302.085627 
L 415.036516 299.888868 
L 415.870651 299.194718 
L 416.426741 298.989783 
L 416.982831 299.009231 
L 417.538921 299.238449 
L 418.373056 299.879997 
L 420.041327 301.353236 
L 420.597417 301.612081 
L 421.153507 301.644862 
L 421.709597 301.41012 
L 422.265688 300.886292 
L 422.821778 300.07236 
L 423.655913 298.348172 
L 424.490048 296.111006 
L 425.602228 292.515752 
L 426.436364 289.460259 
L 426.436364 289.460259 
" clip-path="url(#p81b6abb64c)" style="fill: none; stroke-dasharray: 11.1,4.8; stroke-dashoffset: 0; stroke: #000000; stroke-width: 3"/>
   </g>
   <g id="line2d_2">
    <path d="M 27.163636 229.314779 
L 29.387997 219.654083 
L 31.334312 212.220345 
L 32.724538 207.651007 
L 34.114763 203.813498 
L 34.948898 202.053354 
L 36.339124 199.992923 
L 36.895214 199.793459 
L 39.119575 199.587429 
L 40.5098 199.708943 
L 41.62198 200.04746 
L 42.734161 200.674254 
L 43.568296 201.374053 
L 44.402431 202.302819 
L 45.236566 203.494896 
L 46.348747 205.53997 
L 47.460927 208.168707 
L 48.573107 211.452856 
L 49.685287 215.465531 
L 50.797468 220.293232 
L 51.075513 221.635312 
L 51.353558 222.201565 
L 53.299873 211.707959 
L 53.855964 208.434436 
L 54.134009 208.359877 
L 56.358369 212.646531 
L 59.69491 218.486133 
L 62.753406 223.969291 
L 64.699721 227.882913 
L 66.367992 231.676231 
L 68.870398 237.549937 
L 70.816713 241.389887 
L 72.484984 244.65963 
L 75.265434 249.362211 
L 79.714155 256.843509 
L 81.938516 261.089882 
L 83.884832 265.324461 
L 85.553102 269.455864 
L 89.167688 279.08712 
L 89.723778 279.481902 
L 91.114004 280.375743 
L 92.782274 281.772532 
L 98.621221 287.054325 
L 100.011446 287.865141 
L 101.123626 288.251456 
L 101.957761 288.358672 
L 102.791897 288.283119 
L 103.626032 287.97631 
L 105.294302 286.487424 
L 106.128438 285.465264 
L 107.796708 283.463819 
L 108.630843 282.306258 
L 110.021069 280.396089 
L 111.411294 278.868908 
L 112.523474 277.946881 
L 113.635655 277.31177 
L 114.747835 276.986191 
L 115.58197 276.955694 
L 116.416105 277.118786 
L 117.250241 277.484625 
L 118.084376 278.061959 
L 118.918511 278.866511 
L 120.864827 281.139106 
L 122.533097 283.437469 
L 124.201367 286.235626 
L 125.869638 289.615933 
L 126.425728 290.61442 
L 127.537908 291.861746 
L 128.650089 292.779713 
L 129.762269 293.383419 
L 130.874449 293.688997 
L 131.98663 293.712151 
L 133.09881 293.579989 
L 135.045125 294.008831 
L 136.991441 294.216805 
L 138.937756 294.2116 
L 140.884072 293.981422 
L 143.386478 293.398365 
L 145.610838 292.842673 
L 146.723018 292.806819 
L 147.279109 292.891421 
L 148.947379 293.380179 
L 154.786326 294.840684 
L 156.176551 295.54275 
L 157.566776 296.523699 
L 158.678957 297.532813 
L 159.791137 298.805042 
L 160.903317 300.301941 
L 161.737453 302.497645 
L 163.127678 307.03357 
L 164.239858 309.988555 
L 165.352038 312.357999 
L 166.464219 314.166373 
L 167.298354 315.169655 
L 168.132489 315.881333 
L 168.966624 316.312422 
L 169.80076 316.472727 
L 170.634895 316.373265 
L 171.46903 316.023517 
L 172.303165 315.434758 
L 173.137301 314.61649 
L 174.249481 313.186979 
L 175.361661 311.380074 
L 176.751887 308.627188 
L 178.976247 301.649874 
L 180.366473 298.779448 
L 181.756698 296.399615 
L 183.146923 294.492469 
L 184.259104 293.294907 
L 185.371284 292.379381 
L 186.483464 291.7371 
L 187.595644 291.359295 
L 188.707825 291.23737 
L 189.820005 291.36288 
L 190.932185 291.727639 
L 192.044366 292.323138 
L 193.156546 293.146221 
L 195.658952 295.186566 
L 196.215042 294.764376 
L 197.883312 293.078445 
L 200.385718 290.272253 
L 202.610079 287.440208 
L 204.556394 284.631187 
L 206.50271 281.453929 
L 208.449025 277.850378 
L 210.117296 274.350262 
L 212.063611 269.693126 
L 212.897746 267.360313 
L 213.453836 265.143356 
L 214.287972 261.293968 
L 216.234287 253.881072 
L 218.180603 247.295278 
L 220.126918 241.552871 
L 221.795189 237.312632 
L 223.463459 233.711737 
L 224.853684 231.205314 
L 226.24391 229.15348 
L 227.634135 227.55457 
L 228.746316 226.609172 
L 229.858496 225.964926 
L 230.970676 225.455909 
L 233.751127 223.605396 
L 235.697442 222.547339 
L 237.365713 221.853589 
L 239.033983 221.397812 
L 240.424209 221.229839 
L 241.814434 221.275369 
L 243.204659 221.555785 
L 244.594885 222.0899 
L 245.98511 222.890975 
L 247.653381 223.967347 
L 249.321651 224.110309 
L 250.155786 223.644749 
L 253.214282 221.896548 
L 255.716688 220.704148 
L 257.941048 219.880395 
L 259.887364 219.379175 
L 261.833679 219.111264 
L 267.394581 218.622421 
L 268.506761 218.319369 
L 272.955482 216.124853 
L 275.179843 214.823055 
L 276.848113 213.616378 
L 279.072474 211.926171 
L 280.740744 211.095981 
L 281.57488 210.810878 
L 287.413826 209.400827 
L 287.691871 209.268146 
L 289.082097 207.831486 
L 290.750367 205.756281 
L 293.808863 201.673951 
L 295.199088 200.353384 
L 296.311269 199.542136 
L 297.423449 199.001779 
L 298.257584 198.822467 
L 299.091719 198.894239 
L 299.925855 199.193144 
L 300.75999 199.735661 
L 301.594125 200.535375 
L 302.42826 201.602783 
L 303.540441 203.464614 
L 304.652621 205.851013 
L 305.764801 208.786538 
L 306.320891 210.22309 
L 307.433072 211.46966 
L 307.989162 211.682472 
L 313.272018 212.846341 
L 315.496379 213.352636 
L 317.442694 214.379612 
L 319.667055 215.825041 
L 321.891416 217.476781 
L 325.506002 220.737432 
L 326.340137 222.355197 
L 329.676678 229.537591 
L 333.013219 236.736487 
L 335.793669 241.965341 
L 338.296075 246.244933 
L 342.466751 252.815349 
L 344.135022 255.300216 
L 349.417878 263.482436 
L 351.642239 265.778509 
L 353.588554 267.498372 
L 355.53487 268.912764 
L 357.75923 270.232078 
L 358.87141 270.631957 
L 359.983591 270.801788 
L 361.095771 270.732953 
L 361.373816 270.98637 
L 363.042087 273.701783 
L 364.432312 275.54573 
L 365.822537 276.99239 
L 366.656673 277.617436 
L 367.212763 277.60385 
L 370.271259 276.99738 
L 372.495619 276.35214 
L 374.441935 275.579575 
L 376.110205 274.697332 
L 377.778476 273.356657 
L 379.446746 271.776408 
L 379.724791 271.458454 
L 380.280881 270.09173 
L 382.227197 264.876957 
L 384.729602 258.952818 
L 386.119828 256.050491 
L 387.510053 253.671457 
L 388.900279 251.794161 
L 390.012459 250.63431 
L 391.124639 249.765459 
L 392.236819 249.175792 
L 393.349 248.853798 
L 394.46118 248.785978 
L 395.57336 248.960669 
L 396.685541 249.368582 
L 398.075766 250.406357 
L 398.909901 251.215575 
L 400.300127 252.964121 
L 401.412307 254.648885 
L 401.968397 256.396653 
L 403.636668 261.951994 
L 405.026893 265.922443 
L 406.417118 269.306249 
L 407.807344 272.115486 
L 409.197569 274.360997 
L 410.309749 275.757764 
L 411.42193 276.804136 
L 412.53411 277.505122 
L 413.368245 277.806597 
L 414.20238 277.918349 
L 415.036516 277.841349 
L 415.870651 277.576484 
L 416.704786 277.1052 
L 417.260876 276.407627 
L 418.373056 274.566487 
L 418.929147 273.429488 
L 419.485237 271.419921 
L 421.709597 263.102558 
L 423.933958 255.68463 
L 425.880273 249.925764 
L 426.436364 248.405193 
L 426.436364 248.405193 
" clip-path="url(#p81b6abb64c)" style="fill: none; stroke: #ff00ff; stroke-width: 3; stroke-linecap: square"/>
   </g>
   <g id="patch_3">
    <path d="M 7.2 331.2 
L 7.2 7.2 
" style="fill: none; stroke: #000000; stroke-width: 0.8; stroke-linejoin: miter; stroke-linecap: square"/>
   </g>
   <g id="patch_4">
    <path d="M 446.4 331.2 
L 446.4 7.2 
" style="fill: none; stroke: #000000; stroke-width: 0.8; stroke-linejoin: miter; stroke-linecap: square"/>
   </g>
   <g id="patch_5">
    <path d="M 7.2 331.2 
L 446.4 331.2 
" style="fill: none; stroke: #000000; stroke-width: 0.8; stroke-linejoin: miter; stroke-linecap: square"/>
   </g>
   <g id="patch_6">
    <path d="M 7.2 7.2 
L 446.4 7.2 
" style="fill: none; stroke: #000000; stroke-width: 0.8; stroke-linejoin: miter; stroke-linecap: square"/>
   </g>
  </g>
 </g>
 <defs>
  <clipPath id="p81b6abb64c">
   <rect x="7.2" y="7.2" width="439.2" height="324"/>
  </clipPath>
 </defs>
</svg>
