<?xml version="1.0" encoding="utf-8" standalone="no"?>
<!DOCTYPE svg PUBLIC "-//W3C//DTD SVG 1.1//EN"
  "http://www.w3.org/Graphics/SVG/1.1/DTD/svg11.dtd">
<svg xmlns:xlink="http://www.w3.org/1999/xlink" width="453.6pt" height="338.4pt" viewBox="0 0 453.6 338.4" xmlns="http://www.w3.org/2000/svg" version="1.1">
 <metadata>
  <rdf:RDF xmlns:dc="http://purl.org/dc/elements/1.1/" xmlns:cc="http://creativecommons.org/ns#" xmlns:rdf="http://www.w3.org/1999/02/22-rdf-syntax-ns#">
   <cc:Work>
    <dc:type rdf:resource="http://purl.org/dc/dcmitype/StillImage"/>
    <dc:date>2025-05-15T10:25:29.430566</dc:date>
    <dc:format>image/svg+xml</dc:format>
    <dc:creator>
     <cc:Agent>
      <dc:title>Matplotlib v3.10.1, https://matplotlib.org/</dc:title>
     </cc:Agent>
    </dc:creator>
   </cc:Work>
  </rdf:RDF>
 </metadata>
 <defs>
  <style type="text/css">*{stroke-linejoin: round; stroke-linecap: butt}</style>
 </defs>
 <g id="figure_1">
  <g id="patch_1">
   <path d="M 0 338.4 
L 453.6 338.4 
L 453.6 0 
L 0 0 
z
" style="fill: #ffffff"/>
  </g>
  <g id="axes_1">
   <g id="patch_2">
    <path d="M 7.2 331.2 
L 446.4 331.2 
L 446.4 7.2 
L 7.2 7.2 
z
" style="fill: #ffffff"/>
   </g>
   <g id="matplotlib.axis_1"/>
   <g id="matplotlib.axis_2"/>
   <g id="line2d_1">
    <path d="M 27.163636 218.261675 
L 33.019636 213.211638 
L 34.350545 211.716791 
L 37.278545 208.178227 
L 38.343273 207.302248 
L 39.408 206.753447 
L 40.738909 206.394334 
L 46.062545 205.47636 
L 47.393455 205.595532 
L 50.321455 206.045684 
L 51.386182 205.873404 
L 52.717091 205.359936 
L 54.580364 204.595061 
L 55.645091 204.407472 
L 56.709818 204.462599 
L 58.306909 204.838997 
L 60.170182 205.268748 
L 61.767273 205.392178 
L 67.623273 205.345733 
L 69.220364 205.088805 
L 72.414545 204.476346 
L 73.745455 204.493428 
L 75.342545 204.755736 
L 78.536727 205.589221 
L 80.932364 206.396125 
L 85.191273 208.085627 
L 86.522182 208.21585 
L 88.119273 208.081246 
L 91.313455 207.7307 
L 98.500364 207.471815 
L 101.162182 207.863864 
L 103.025455 208.029411 
L 104.622545 207.955815 
L 109.147636 207.545499 
L 110.478545 207.750951 
L 112.341818 208.324963 
L 114.471273 208.95734 
L 115.802182 209.12308 
L 117.133091 209.073439 
L 118.730182 208.776255 
L 120.593455 208.187506 
L 124.852364 206.689551 
L 125.917091 206.664788 
L 126.715636 206.853351 
L 127.514182 207.234568 
L 128.578909 208.004236 
L 132.305455 211.037978 
L 133.636364 211.625859 
L 134.967273 211.963993 
L 136.830545 212.207639 
L 139.758545 212.335791 
L 144.549818 212.50635 
L 153.333818 213.136761 
L 160.254545 213.220609 
L 167.707636 213.422498 
L 169.837091 213.23454 
L 173.297455 212.630411 
L 176.225455 212.225151 
L 181.016727 211.832004 
L 183.412364 211.837026 
L 186.340364 212.102152 
L 199.117091 213.47859 
L 201.778909 213.460042 
L 203.908364 213.225552 
L 206.836364 212.645483 
L 214.023273 211.106246 
L 215.620364 211.035687 
L 217.217455 211.181755 
L 219.879273 211.709084 
L 223.605818 212.39535 
L 227.332364 212.849777 
L 232.656 213.188095 
L 235.584 213.235225 
L 237.713455 213.047022 
L 240.907636 212.503172 
L 247.296 211.35558 
L 248.893091 211.361514 
L 250.756364 211.60164 
L 254.749091 212.177758 
L 260.871273 212.82447 
L 269.921455 213.902759 
L 272.050909 213.808402 
L 277.906909 213.402975 
L 281.101091 213.465168 
L 290.683636 213.953496 
L 293.611636 214.134756 
L 296.539636 214.527841 
L 300.798545 215.383227 
L 302.928 215.656868 
L 304.525091 215.624582 
L 306.122182 215.363678 
L 312.510545 214.001855 
L 315.172364 213.900994 
L 320.496 213.972097 
L 323.157818 214.15175 
L 325.021091 214.52081 
L 326.884364 215.136324 
L 329.546182 216.277438 
L 333.805091 218.354872 
L 344.984727 224.021521 
L 346.848 224.700457 
L 348.445091 225.018393 
L 350.042182 225.074739 
L 352.704 224.866864 
L 357.229091 224.342625 
L 364.416 222.864834 
L 365.746909 222.301725 
L 367.344 221.357242 
L 370.005818 219.743943 
L 371.336727 219.24487 
L 372.667636 219.015585 
L 374.264727 219.002734 
L 376.660364 219.250594 
L 379.056 219.700816 
L 383.581091 220.678446 
L 388.106182 221.295487 
L 389.969455 221.946176 
L 396.091636 224.260032 
L 397.954909 224.747552 
L 399.552 224.945069 
L 401.415273 224.92056 
L 404.609455 224.566406 
L 407.271273 224.366976 
L 409.400727 224.438281 
L 412.062545 224.776371 
L 415.789091 225.243209 
L 417.652364 225.238803 
L 420.846545 225.148941 
L 422.443636 225.379376 
L 425.105455 225.848725 
L 426.436364 225.815983 
L 426.436364 225.815983 
" clip-path="url(#p5ab193bfc9)" style="fill: none; stroke: #ffa500; stroke-width: 3; stroke-linecap: square"/>
   </g>
   <g id="line2d_2">
    <path d="M 27.163636 316.472727 
L 28.494545 292.706874 
L 29.293091 282.195742 
L 29.825455 277.159259 
L 30.357818 273.604837 
L 30.890182 271.27942 
L 31.422545 269.838923 
L 32.221091 268.554787 
L 33.285818 267.047339 
L 34.350545 265.029973 
L 35.415273 263.051846 
L 35.947636 262.407298 
L 36.48 262.123457 
L 37.012364 262.217537 
L 37.544727 262.630171 
L 39.141818 264.254447 
L 39.408 264.317456 
L 39.674182 264.252551 
L 39.940364 264.039014 
L 40.472727 263.09575 
L 41.005091 261.398396 
L 41.537455 258.94258 
L 42.336 254.045972 
L 44.731636 237.745438 
L 45.264 235.424393 
L 45.796364 233.94087 
L 46.328727 233.307115 
L 46.594909 233.289032 
L 46.861091 233.448891 
L 47.393455 234.219313 
L 48.192 236.140408 
L 50.321455 241.81853 
L 52.717091 247.267792 
L 53.515636 249.872094 
L 55.645091 257.610893 
L 55.911273 258.078078 
L 56.177455 258.257192 
L 56.443636 258.083038 
L 56.709818 257.487209 
L 56.976 256.402459 
L 57.508364 252.510083 
L 58.040727 245.962654 
L 58.573091 236.480403 
L 59.371636 216.740678 
L 60.436364 182.134491 
L 62.565818 108.918012 
L 63.364364 88.58786 
L 64.162909 74.124543 
L 64.695273 67.474436 
L 65.227636 62.758398 
L 65.76 59.499637 
L 66.292364 57.249045 
L 67.090909 55.025437 
L 67.623273 54.038266 
L 68.155636 53.395618 
L 68.688 53.155676 
L 68.954182 53.218387 
L 69.220364 53.419828 
L 69.752727 54.28695 
L 70.285091 55.819192 
L 70.817455 58.006195 
L 71.616 62.301285 
L 73.745455 74.837644 
L 74.277818 76.916711 
L 74.810182 78.198951 
L 75.076364 78.519546 
L 75.342545 78.628219 
L 75.608727 78.531941 
L 75.874909 78.24781 
L 76.407273 77.21134 
L 78.270545 72.49137 
L 78.536727 72.238893 
L 78.802909 72.207977 
L 79.069091 72.429677 
L 79.335273 72.925888 
L 79.867636 74.803813 
L 80.4 77.89061 
L 81.198545 84.6453 
L 82.263273 96.761168 
L 83.860364 118.573104 
L 85.989818 150.973336 
L 88.385455 191.747132 
L 89.982545 217.133333 
L 91.047273 230.57125 
L 91.845818 238.440307 
L 92.910545 246.515163 
L 94.773818 257.912092 
L 96.637091 270.26483 
L 97.968 278.489774 
L 98.766545 281.850934 
L 99.298909 283.078331 
L 99.565091 283.34744 
L 99.831273 283.378945 
L 100.097455 283.172992 
L 100.363636 282.73396 
L 100.896 281.201282 
L 101.428364 278.912617 
L 102.493091 272.87044 
L 104.090182 263.598228 
L 104.888727 260.149122 
L 105.687273 257.675508 
L 107.550545 253.01286 
L 108.082909 250.953776 
L 108.615273 248.167446 
L 109.413818 242.350476 
L 110.212364 234.527513 
L 111.543273 218.304863 
L 113.140364 198.628727 
L 114.205091 188.385394 
L 115.003636 182.687294 
L 115.802182 178.373831 
L 117.133091 172.75785 
L 120.593455 159.209811 
L 121.392 157.278937 
L 121.924364 156.510253 
L 122.456727 156.133512 
L 122.989091 156.066272 
L 124.32 156.20774 
L 124.852364 155.836969 
L 125.384727 154.882329 
L 125.917091 153.150701 
L 126.449455 150.506445 
L 127.248 144.745036 
L 128.046545 137.075085 
L 130.974545 105.954916 
L 131.773091 100.349144 
L 132.571636 96.590363 
L 133.104 94.967689 
L 133.636364 93.886152 
L 134.168727 93.192749 
L 134.967273 92.582774 
L 136.032 92.104067 
L 137.362909 91.744514 
L 138.161455 91.763914 
L 138.96 92.071535 
L 139.758545 92.688217 
L 141.089455 94.140683 
L 141.888 94.935613 
L 142.420364 95.27064 
L 142.952727 95.36209 
L 143.485091 95.150748 
L 144.017455 94.601307 
L 144.549818 93.710975 
L 145.348364 91.815266 
L 146.679273 87.79788 
L 148.010182 84.038239 
L 148.808727 82.405505 
L 149.607273 81.332869 
L 150.405818 80.725949 
L 151.470545 80.329071 
L 153.333818 79.733826 
L 155.197091 79.085912 
L 155.995636 79.075571 
L 156.794182 79.342777 
L 157.592727 79.881422 
L 160.520727 82.333015 
L 161.053091 82.47566 
L 161.585455 82.453065 
L 162.117818 82.266652 
L 162.916364 81.721425 
L 164.247273 80.396312 
L 166.110545 78.564034 
L 168.506182 76.433193 
L 169.570909 75.049144 
L 170.901818 72.798693 
L 172.765091 69.614177 
L 173.563636 68.664927 
L 174.362182 68.10439 
L 175.160727 67.915941 
L 175.959273 68.002441 
L 177.822545 68.385167 
L 178.621091 68.295753 
L 179.419636 67.983041 
L 182.081455 66.631085 
L 182.613818 66.625537 
L 183.146182 66.777083 
L 183.944727 67.297503 
L 184.743273 68.114309 
L 186.074182 69.846675 
L 189.268364 74.397157 
L 190.333091 76.406508 
L 191.397818 79.03793 
L 192.462545 82.352713 
L 194.325818 89.194623 
L 195.922909 94.708207 
L 196.987636 97.502569 
L 197.786182 99.005193 
L 198.584727 100.022562 
L 199.383273 100.633556 
L 200.181818 100.938403 
L 200.980364 101.022269 
L 202.045091 100.885611 
L 203.109818 100.518773 
L 204.706909 99.685622 
L 205.771636 99.197294 
L 206.570182 99.074927 
L 207.102545 99.187515 
L 207.634909 99.494557 
L 208.167273 100.018331 
L 208.965818 101.221375 
L 209.764364 102.874228 
L 211.361455 106.915385 
L 212.426182 109.452003 
L 213.224727 110.911018 
L 214.023273 111.843642 
L 214.555636 112.158988 
L 215.088 112.25453 
L 215.886545 112.090431 
L 217.483636 111.535161 
L 218.016 111.561987 
L 218.548364 111.803087 
L 219.080727 112.300755 
L 219.613091 113.080517 
L 220.411636 114.798153 
L 221.210182 117.159455 
L 222.274909 121.246539 
L 223.339636 126.338158 
L 224.670545 134.021539 
L 226.533818 146.547118 
L 228.130909 157.019156 
L 228.929455 161.263193 
L 229.728 164.385876 
L 230.260364 165.717414 
L 230.792727 166.398141 
L 231.058909 166.49047 
L 231.325091 166.420315 
L 231.591273 166.191311 
L 232.123636 165.286109 
L 232.656 163.848531 
L 233.454545 160.914297 
L 236.648727 147.583009 
L 237.447273 145.561263 
L 237.979636 144.706237 
L 238.512 144.259482 
L 239.044364 144.218787 
L 239.576727 144.571475 
L 240.109091 145.302799 
L 240.641455 146.392798 
L 241.44 148.654328 
L 242.238545 151.592353 
L 243.303273 156.372717 
L 246.763636 173.214822 
L 247.562182 175.720814 
L 248.094545 176.802939 
L 248.626909 177.368716 
L 248.893091 177.455655 
L 249.159273 177.41481 
L 249.691636 176.972857 
L 250.224 176.110985 
L 251.022545 174.259017 
L 252.619636 170.214226 
L 253.152 169.271691 
L 253.684364 168.71815 
L 254.216727 168.618097 
L 254.749091 169.001561 
L 255.281455 169.859642 
L 255.813818 171.153118 
L 256.612364 173.769372 
L 257.677091 178.117851 
L 262.734545 200.017297 
L 263.533091 202.271102 
L 264.065455 203.232887 
L 264.597818 203.637498 
L 264.864 203.601622 
L 265.130182 203.393624 
L 265.662545 202.434314 
L 266.194909 200.734919 
L 266.727273 198.319359 
L 267.525818 193.546589 
L 270.453818 173.845075 
L 270.986182 171.737128 
L 271.518545 170.454308 
L 271.784727 170.132396 
L 272.050909 170.018482 
L 272.317091 170.105851 
L 272.583273 170.381959 
L 273.115636 171.439435 
L 273.914182 174.002019 
L 275.245091 179.522029 
L 276.842182 185.960793 
L 278.971636 193.374625 
L 280.834909 199.394629 
L 281.633455 201.257095 
L 282.165818 201.979237 
L 282.432 202.142888 
L 282.698182 202.160541 
L 282.964364 202.024743 
L 283.496727 201.279119 
L 284.029091 199.918262 
L 284.827636 196.905561 
L 286.957091 187.547872 
L 287.489455 186.122987 
L 288.021818 185.442708 
L 288.288 185.413678 
L 288.554182 185.599643 
L 288.820364 185.999593 
L 289.352727 187.420835 
L 289.885091 189.58785 
L 290.683636 193.918088 
L 292.813091 207.754208 
L 294.410182 217.032104 
L 296.007273 224.947105 
L 297.338182 230.516843 
L 298.136727 232.955454 
L 298.669091 233.968872 
L 298.935273 234.246876 
L 299.201455 234.35598 
L 299.467636 234.284508 
L 299.733818 234.026343 
L 300.266182 232.931235 
L 300.798545 231.068189 
L 301.597091 226.957756 
L 302.661818 219.619486 
L 306.122182 193.546299 
L 307.453091 185.75995 
L 308.517818 180.682183 
L 309.582545 176.651823 
L 310.381091 174.356744 
L 311.179636 172.715548 
L 311.712 171.984803 
L 312.244364 171.531474 
L 312.776727 171.329164 
L 313.309091 171.335879 
L 314.107636 171.607317 
L 315.172364 172.031178 
L 315.704727 172.066773 
L 316.237091 171.871179 
L 316.769455 171.382114 
L 317.301818 170.557434 
L 317.834182 169.382831 
L 318.632727 166.984486 
L 319.697455 162.752264 
L 320.762182 157.542053 
L 322.093091 149.834759 
L 325.553455 128.338748 
L 326.352 125.069629 
L 326.884364 123.545849 
L 327.416727 122.556342 
L 327.949091 122.082744 
L 328.215273 122.028337 
L 328.747636 122.261713 
L 329.28 122.922022 
L 329.812364 123.981245 
L 330.610909 126.26874 
L 331.409455 129.299094 
L 333.006545 136.604682 
L 334.071273 141.014714 
L 334.603636 142.632577 
L 335.136 143.703019 
L 335.668364 144.171227 
L 335.934545 144.17925 
L 336.200727 144.046665 
L 336.733091 143.403877 
L 337.531636 141.772004 
L 338.862545 138.814877 
L 339.394909 138.085888 
L 339.927273 137.821876 
L 340.193455 137.886343 
L 340.725818 138.419457 
L 341.258182 139.463213 
L 342.056727 141.813279 
L 343.387636 146.842485 
L 344.984727 152.714147 
L 346.315636 156.787098 
L 348.977455 164.066439 
L 349.776 165.770645 
L 350.308364 166.506656 
L 350.840727 166.77532 
L 351.106909 166.694807 
L 351.373091 166.451951 
L 351.905455 165.424242 
L 352.437818 163.599846 
L 352.970182 160.912998 
L 353.768727 155.179733 
L 354.567273 147.379233 
L 355.632 133.969029 
L 356.962909 113.598761 
L 358.826182 84.491138 
L 359.890909 71.515873 
L 360.689455 64.701808 
L 361.221818 61.628143 
L 361.754182 59.655695 
L 362.286545 58.657884 
L 362.552727 58.477458 
L 362.818909 58.480232 
L 363.085091 58.647666 
L 363.617455 59.396073 
L 364.416 61.274296 
L 366.811636 67.870593 
L 367.344 68.502145 
L 367.610182 68.571141 
L 367.876364 68.447317 
L 368.142545 68.112852 
L 368.674909 66.761335 
L 369.207273 64.465816 
L 370.005818 59.371564 
L 371.336727 48.268255 
L 372.401455 40.25348 
L 372.933818 37.628624 
L 373.466182 36.335306 
L 373.732364 36.241222 
L 373.998545 36.524773 
L 374.264727 37.179815 
L 374.797091 39.535569 
L 375.329455 43.079198 
L 376.394182 52.306339 
L 377.725091 63.833527 
L 378.523636 69.052762 
L 379.322182 72.699798 
L 380.120727 75.16189 
L 382.250182 80.691819 
L 384.912 88.997571 
L 385.444364 89.584355 
L 385.710545 89.598803 
L 385.976727 89.406404 
L 386.242909 88.995236 
L 386.775273 87.485467 
L 387.307636 85.038543 
L 388.106182 79.662793 
L 388.904727 72.462648 
L 389.969455 60.77108 
L 392.365091 33.728813 
L 393.163636 27.393894 
L 393.696 24.472354 
L 394.228364 22.661968 
L 394.494545 22.165599 
L 394.760727 21.927273 
L 395.026909 21.930924 
L 395.293091 22.156417 
L 395.825455 23.182827 
L 396.357818 24.813086 
L 397.422545 29.135301 
L 399.818182 39.496928 
L 400.616727 42.222575 
L 401.415273 44.12399 
L 401.947636 44.758175 
L 402.213818 44.848467 
L 402.48 44.775381 
L 402.746182 44.532963 
L 403.278545 43.537628 
L 403.810909 41.900382 
L 404.609455 38.507122 
L 406.206545 31.25243 
L 406.738909 29.771962 
L 407.005091 29.364147 
L 407.271273 29.2129 
L 407.537455 29.336145 
L 407.803636 29.745715 
L 408.336 31.433295 
L 408.868364 34.21772 
L 409.666909 40.053813 
L 412.328727 61.667521 
L 413.127273 65.422212 
L 413.659636 66.905595 
L 414.192 67.648875 
L 414.458182 67.779283 
L 414.724364 67.772137 
L 415.256727 67.418431 
L 415.789091 66.729681 
L 416.853818 64.824035 
L 419.515636 59.366894 
L 421.112727 56.074741 
L 421.645091 55.349087 
L 421.911273 55.15014 
L 422.177455 55.097049 
L 422.443636 55.218697 
L 422.709818 55.543225 
L 423.242182 56.90496 
L 423.774545 59.357273 
L 424.306909 62.996005 
L 425.105455 70.614762 
L 426.170182 83.811429 
L 426.436364 87.393858 
L 426.436364 87.393858 
" clip-path="url(#p5ab193bfc9)" style="fill: none; stroke: #ff0000; stroke-width: 3; stroke-linecap: square"/>
   </g>
   <g id="line2d_3">
    <path d="M 27.163636 132.55164 
L 28.494545 121.776598 
L 29.293091 116.886823 
L 29.825455 114.688058 
L 30.357818 113.436629 
L 30.624 113.164823 
L 30.890182 113.117368 
L 31.156364 113.279289 
L 31.688727 114.151204 
L 32.221091 115.589836 
L 34.882909 123.974064 
L 35.415273 124.866011 
L 35.947636 125.411678 
L 36.48 125.690401 
L 38.077091 126.24367 
L 38.609455 126.839196 
L 39.141818 127.87154 
L 39.674182 129.439351 
L 40.206545 131.601758 
L 41.005091 135.984875 
L 42.069818 143.715045 
L 43.933091 159.985676 
L 45.264 171.005444 
L 46.328727 178.162374 
L 47.127273 182.334992 
L 47.925818 185.518068 
L 48.724364 187.838332 
L 49.522909 189.446566 
L 50.321455 190.468104 
L 50.853818 190.863542 
L 51.386182 191.045811 
L 51.918545 191.021785 
L 52.450909 190.797056 
L 52.983273 190.379831 
L 53.781818 189.423699 
L 54.846545 187.637795 
L 56.177455 184.803914 
L 57.508364 181.387936 
L 58.839273 177.257884 
L 61.767273 167.385173 
L 62.565818 165.669591 
L 63.098182 164.988811 
L 63.630545 164.696253 
L 64.162909 164.768322 
L 64.695273 165.150961 
L 65.493818 166.140204 
L 68.954182 171.165495 
L 70.285091 172.989628 
L 71.349818 174.840244 
L 72.946909 178.253614 
L 74.277818 181.003787 
L 75.076364 182.255822 
L 75.874909 183.0706 
L 76.407273 183.359471 
L 76.939636 183.462237 
L 77.738182 183.337341 
L 78.802909 182.868185 
L 80.4 182.140899 
L 81.730909 181.823367 
L 85.989818 181.31262 
L 86.788364 181.563613 
L 87.586909 182.105742 
L 89.716364 183.891734 
L 89.982545 183.897773 
L 90.248727 183.782586 
L 90.514909 183.518724 
L 91.047273 182.430305 
L 91.579636 180.401563 
L 92.112 177.216179 
L 92.644364 172.701722 
L 93.442909 163.253127 
L 94.241455 150.759483 
L 95.838545 120.500081 
L 96.903273 101.751557 
L 97.701818 91.40947 
L 98.234182 86.925492 
L 98.766545 84.467068 
L 99.032727 83.955198 
L 99.298909 83.872332 
L 99.565091 84.166681 
L 100.097455 85.631243 
L 101.694545 91.617336 
L 101.960727 92.086967 
L 102.226909 92.254998 
L 102.493091 92.088494 
L 102.759273 91.566827 
L 103.291636 89.438199 
L 103.824 85.947045 
L 104.622545 78.710295 
L 107.284364 51.620327 
L 108.082909 45.776299 
L 108.881455 41.256769 
L 109.68 37.770444 
L 110.744727 34.191842 
L 111.809455 31.352272 
L 113.140364 28.409612 
L 114.737455 25.457594 
L 115.802182 23.853109 
L 116.600727 22.938988 
L 117.399273 22.360562 
L 117.931636 22.190898 
L 118.464 22.199957 
L 118.996364 22.377591 
L 119.794909 22.900084 
L 122.190545 24.779641 
L 122.722909 24.934628 
L 123.255273 24.927395 
L 124.053818 24.62397 
L 125.118545 23.831918 
L 126.715636 22.560879 
L 127.514182 22.167723 
L 128.312727 21.987192 
L 129.643636 21.991371 
L 131.506909 21.984963 
L 132.837818 21.939913 
L 133.636364 22.132927 
L 134.168727 22.447184 
L 134.701091 22.952349 
L 135.499636 24.106007 
L 136.298182 25.712318 
L 137.629091 29.045114 
L 139.226182 32.997015 
L 140.290909 35.019094 
L 141.355636 36.514994 
L 142.952727 38.562161 
L 143.751273 39.94226 
L 144.549818 41.744377 
L 145.614545 44.764935 
L 148.010182 51.900016 
L 148.808727 53.586542 
L 149.607273 54.756686 
L 150.405818 55.474931 
L 151.204364 55.87093 
L 152.269091 56.127515 
L 153.866182 56.260715 
L 154.930909 56.156448 
L 155.995636 55.789715 
L 157.060364 55.151702 
L 159.189818 53.761666 
L 159.988364 53.578168 
L 160.520727 53.652396 
L 161.053091 53.905312 
L 161.851636 54.6208 
L 162.650182 55.684518 
L 164.513455 58.769191 
L 165.578182 60.302293 
L 166.376727 61.103052 
L 166.909091 61.42391 
L 167.441455 61.554933 
L 167.973818 61.482882 
L 168.506182 61.196188 
L 169.038545 60.684212 
L 169.837091 59.475673 
L 170.635636 57.730754 
L 171.434182 55.478793 
L 172.498909 51.837762 
L 175.959273 39.319838 
L 177.024 36.57674 
L 177.822545 35.042005 
L 178.621091 33.935749 
L 179.419636 33.212483 
L 180.218182 32.820188 
L 181.016727 32.713411 
L 181.815273 32.861919 
L 182.613818 33.250159 
L 183.412364 33.867613 
L 184.477091 35.010509 
L 186.074182 37.162628 
L 187.937455 39.59972 
L 189.268364 40.928344 
L 193.527273 44.659105 
L 195.124364 46.689647 
L 198.052364 50.461666 
L 199.383273 51.833004 
L 200.448 52.625213 
L 201.246545 52.929727 
L 201.778909 52.938944 
L 202.311273 52.756552 
L 202.843636 52.35504 
L 203.376 51.715465 
L 204.174545 50.297479 
L 204.973091 48.366429 
L 206.037818 45.184986 
L 209.232 35.090495 
L 210.296727 32.491394 
L 211.361455 30.45613 
L 212.16 29.326313 
L 212.958545 28.580452 
L 213.490909 28.327414 
L 214.023273 28.295022 
L 214.555636 28.502625 
L 215.088 28.963021 
L 215.620364 29.677772 
L 216.418909 31.192774 
L 217.483636 33.831219 
L 219.346909 38.67324 
L 220.145455 40.232887 
L 220.944 41.287229 
L 221.742545 41.864023 
L 222.541091 42.115868 
L 223.872 42.464202 
L 224.404364 42.793154 
L 224.936727 43.318245 
L 225.735273 44.542409 
L 226.533818 46.310449 
L 227.598545 49.412309 
L 228.929455 54.114302 
L 233.986909 72.834648 
L 234.785455 74.500458 
L 235.317818 75.0417 
L 235.584 75.108186 
L 235.850182 75.026444 
L 236.116364 74.78961 
L 236.648727 73.835812 
L 237.181091 72.244687 
L 237.979636 68.778252 
L 239.044364 62.764912 
L 240.641455 53.60847 
L 241.44 50.251306 
L 241.972364 48.740413 
L 242.504727 47.860984 
L 242.770909 47.655804 
L 243.037091 47.599729 
L 243.303273 47.684385 
L 243.835636 48.232668 
L 244.368 49.199404 
L 245.166545 51.182281 
L 247.828364 58.417802 
L 248.893091 60.577821 
L 250.224 62.709644 
L 251.288727 64.08718 
L 252.087273 64.858076 
L 252.619636 65.170385 
L 253.152 65.263345 
L 253.684364 65.096543 
L 254.216727 64.652018 
L 255.015273 63.50993 
L 257.144727 59.860436 
L 257.677091 59.551411 
L 257.943273 59.580888 
L 258.209455 59.749147 
L 258.741818 60.532543 
L 259.274182 61.930427 
L 259.806545 63.919254 
L 260.605091 67.844329 
L 261.936 75.889317 
L 263.799273 87.039853 
L 265.130182 93.468066 
L 266.461091 98.727102 
L 268.058182 104.156784 
L 269.122909 107.184979 
L 269.921455 108.887464 
L 270.453818 109.645667 
L 270.986182 110.055588 
L 271.518545 110.105325 
L 272.050909 109.814663 
L 272.583273 109.235377 
L 273.381818 108.003979 
L 274.978909 105.468923 
L 275.511273 104.930788 
L 276.043636 104.640653 
L 276.576 104.615337 
L 277.108364 104.847273 
L 277.640727 105.309477 
L 278.439273 106.34679 
L 279.770182 108.616764 
L 282.432 113.290332 
L 283.762909 115.209321 
L 284.827636 116.435452 
L 285.626182 117.085894 
L 286.424727 117.404541 
L 286.957091 117.384597 
L 287.489455 117.153152 
L 288.021818 116.700903 
L 288.820364 115.627705 
L 289.885091 113.63031 
L 292.014545 109.379478 
L 292.813091 108.293728 
L 293.345455 107.833227 
L 293.877818 107.604855 
L 294.410182 107.614897 
L 294.942545 107.861299 
L 295.474909 108.333949 
L 296.273455 109.428355 
L 297.338182 111.461161 
L 300.532364 118.28418 
L 301.330909 119.39386 
L 302.129455 120.064422 
L 302.661818 120.236737 
L 303.194182 120.167846 
L 303.726545 119.838192 
L 304.258909 119.228796 
L 304.791273 118.325034 
L 305.589818 116.410276 
L 306.388364 113.877502 
L 307.719273 108.758478 
L 309.050182 103.709363 
L 309.848727 101.373623 
L 310.381091 100.290208 
L 310.913455 99.657988 
L 311.445818 99.513202 
L 311.712 99.628231 
L 312.244364 100.229094 
L 312.776727 101.303995 
L 313.575273 103.711838 
L 314.373818 106.892544 
L 315.704727 113.245283 
L 320.229818 136.580964 
L 321.028364 143.016147 
L 321.826909 151.712807 
L 322.625455 163.06854 
L 323.690182 182.016012 
L 326.618182 238.079762 
L 327.682909 252.796746 
L 328.747636 263.756252 
L 329.812364 272.284622 
L 331.675636 284.98622 
L 333.538909 296.525072 
L 334.869818 303.653691 
L 335.934545 308.451727 
L 336.999273 312.285132 
L 337.797818 314.411157 
L 338.596364 315.806304 
L 339.128727 316.308405 
L 339.661091 316.472727 
L 340.193455 316.323019 
L 340.725818 315.901355 
L 341.524364 314.889643 
L 344.186182 311.05483 
L 344.984727 310.421759 
L 345.783273 310.087759 
L 346.848 309.929956 
L 348.178909 309.740621 
L 348.977455 309.436824 
L 350.042182 308.735403 
L 351.639273 307.288665 
L 353.236364 305.955447 
L 354.567273 305.17683 
L 357.761455 303.544617 
L 360.157091 302.134778 
L 360.955636 301.888416 
L 361.754182 301.85759 
L 362.552727 302.069856 
L 363.351273 302.518951 
L 364.416 303.41704 
L 366.545455 305.6754 
L 368.408727 307.512877 
L 370.005818 308.803648 
L 371.602909 309.84526 
L 372.933818 310.496587 
L 374.264727 310.88921 
L 375.329455 310.977818 
L 376.394182 310.861719 
L 377.991273 310.415932 
L 380.120727 309.80441 
L 383.314909 309.054174 
L 384.379636 308.521303 
L 386.242909 307.248692 
L 387.573818 306.457821 
L 388.372364 306.223073 
L 389.170909 306.271911 
L 389.703273 306.493455 
L 390.501818 307.128767 
L 391.300364 308.103916 
L 392.631273 310.227066 
L 394.228364 312.746257 
L 395.026909 313.677364 
L 395.825455 314.306431 
L 396.624 314.648869 
L 397.422545 314.758275 
L 398.487273 314.647306 
L 399.818182 314.240298 
L 401.681455 313.368158 
L 406.738909 310.639733 
L 407.537455 309.858724 
L 408.602182 308.44243 
L 409.933091 306.143318 
L 413.925818 298.778259 
L 415.522909 295.890766 
L 416.587636 293.56698 
L 417.652364 290.735324 
L 418.983273 286.438969 
L 420.314182 281.365931 
L 421.378909 276.573072 
L 422.443636 270.589713 
L 423.242182 264.891327 
L 424.306909 255.30258 
L 425.637818 240.617584 
L 426.436364 231.327557 
L 426.436364 231.327557 
" clip-path="url(#p5ab193bfc9)" style="fill: none; stroke: #0000ff; stroke-width: 3; stroke-linecap: square"/>
   </g>
   <g id="patch_3">
    <path d="M 7.2 331.2 
L 7.2 7.2 
" style="fill: none; stroke: #000000; stroke-width: 0.8; stroke-linejoin: miter; stroke-linecap: square"/>
   </g>
   <g id="patch_4">
    <path d="M 446.4 331.2 
L 446.4 7.2 
" style="fill: none; stroke: #000000; stroke-width: 0.8; stroke-linejoin: miter; stroke-linecap: square"/>
   </g>
   <g id="patch_5">
    <path d="M 7.2 331.2 
L 446.4 331.2 
" style="fill: none; stroke: #000000; stroke-width: 0.8; stroke-linejoin: miter; stroke-linecap: square"/>
   </g>
   <g id="patch_6">
    <path d="M 7.2 7.2 
L 446.4 7.2 
" style="fill: none; stroke: #000000; stroke-width: 0.8; stroke-linejoin: miter; stroke-linecap: square"/>
   </g>
  </g>
 </g>
 <defs>
  <clipPath id="p5ab193bfc9">
   <rect x="7.2" y="7.2" width="439.2" height="324"/>
  </clipPath>
 </defs>
</svg>
