<?xml version="1.0" encoding="utf-8" standalone="no"?>
<!DOCTYPE svg PUBLIC "-//W3C//DTD SVG 1.1//EN"
  "http://www.w3.org/Graphics/SVG/1.1/DTD/svg11.dtd">
<svg xmlns:xlink="http://www.w3.org/1999/xlink" width="453.6pt" height="338.4pt" viewBox="0 0 453.6 338.4" xmlns="http://www.w3.org/2000/svg" version="1.1">
 <metadata>
  <rdf:RDF xmlns:dc="http://purl.org/dc/elements/1.1/" xmlns:cc="http://creativecommons.org/ns#" xmlns:rdf="http://www.w3.org/1999/02/22-rdf-syntax-ns#">
   <cc:Work>
    <dc:type rdf:resource="http://purl.org/dc/dcmitype/StillImage"/>
    <dc:date>2025-05-15T17:31:20.074059</dc:date>
    <dc:format>image/svg+xml</dc:format>
    <dc:creator>
     <cc:Agent>
      <dc:title>Matplotlib v3.10.1, https://matplotlib.org/</dc:title>
     </cc:Agent>
    </dc:creator>
   </cc:Work>
  </rdf:RDF>
 </metadata>
 <defs>
  <style type="text/css">*{stroke-linejoin: round; stroke-linecap: butt}</style>
 </defs>
 <g id="figure_1">
  <g id="patch_1">
   <path d="M 0 338.4 
L 453.6 338.4 
L 453.6 0 
L 0 0 
z
" style="fill: #ffffff"/>
  </g>
  <g id="axes_1">
   <g id="patch_2">
    <path d="M 7.2 331.2 
L 446.4 331.2 
L 446.4 7.2 
L 7.2 7.2 
z
" style="fill: #ffffff"/>
   </g>
   <g id="matplotlib.axis_1"/>
   <g id="matplotlib.axis_2"/>
   <g id="line2d_1">
    <path d="M 27.163636 279.743527 
L 28.275817 282.806474 
L 28.831907 283.899248 
L 29.387997 284.583655 
L 29.944087 284.820368 
L 30.500177 284.606476 
L 31.056267 283.966169 
L 31.612358 282.941786 
L 32.446493 280.806172 
L 33.836718 276.262448 
L 35.226944 271.876302 
L 36.061079 270.096778 
L 36.617169 269.477771 
L 36.895214 269.361637 
L 37.173259 269.378815 
L 37.451304 269.52935 
L 38.007394 270.218144 
L 38.563484 271.38293 
L 39.39762 273.86512 
L 40.5098 278.105044 
L 44.958521 296.167498 
L 46.348747 300.554311 
L 47.738972 304.201165 
L 48.851152 306.549663 
L 49.685287 307.916503 
L 50.519423 308.900701 
L 51.353558 309.497212 
L 52.187693 309.749112 
L 53.021828 309.739476 
L 54.412054 309.415847 
L 57.192504 308.697241 
L 60.529045 307.900842 
L 61.363181 307.464297 
L 62.197316 306.703149 
L 62.753406 305.919546 
L 63.309496 304.845709 
L 64.143631 302.590062 
L 64.977767 299.512498 
L 66.089947 294.34342 
L 68.036262 284.945518 
L 68.870398 282.139341 
L 69.426488 281.005854 
L 69.982578 280.531969 
L 70.260623 280.543734 
L 70.538668 280.715244 
L 71.094758 281.501225 
L 71.650848 282.794487 
L 72.484984 285.421154 
L 74.431299 292.788899 
L 76.65566 300.840058 
L 78.32393 306.103219 
L 79.43611 308.850822 
L 80.270246 310.299432 
L 80.826336 310.92911 
L 81.382426 311.284401 
L 81.938516 311.376589 
L 82.494606 311.228903 
L 83.050696 310.874047 
L 83.884832 310.041462 
L 85.553102 307.86178 
L 86.665282 306.517094 
L 87.499418 305.75641 
L 88.333553 305.244512 
L 89.445733 304.858255 
L 91.114004 304.371641 
L 92.226184 303.768566 
L 93.338364 302.886751 
L 95.006635 301.237845 
L 96.118815 299.824196 
L 96.95295 298.263276 
L 97.50904 296.757036 
L 98.06513 294.68849 
L 98.621221 291.88088 
L 99.177311 288.167181 
L 100.011446 280.634142 
L 100.845581 270.693818 
L 102.235807 250.454752 
L 103.347987 234.797953 
L 104.182122 226.339196 
L 104.738212 223.228904 
L 105.016257 222.562706 
L 105.294302 222.5186 
L 105.572347 223.101273 
L 105.850393 224.301359 
L 106.406483 228.448054 
L 106.962573 234.626375 
L 107.796708 246.610473 
L 110.299114 284.777665 
L 111.133249 293.964508 
L 111.967384 300.791089 
L 112.801519 305.603073 
L 113.635655 308.899945 
L 114.46979 311.154946 
L 115.303925 312.722076 
L 116.13806 313.835622 
L 116.972195 314.63362 
L 117.806331 315.186458 
L 118.640466 315.525071 
L 119.474601 315.656271 
L 120.308736 315.577082 
L 121.142872 315.285198 
L 121.977007 314.789569 
L 123.089187 313.865081 
L 129.206179 307.941166 
L 130.040314 306.600735 
L 130.596404 305.302115 
L 131.152494 303.497591 
L 131.708584 300.970635 
L 132.264675 297.458219 
L 132.820765 292.659445 
L 133.376855 286.24874 
L 133.932945 277.916011 
L 134.76708 261.342107 
L 135.601215 239.819745 
L 136.991441 196.202334 
L 138.381666 154.269727 
L 138.937756 141.821787 
L 139.493847 133.369956 
L 139.771892 130.866281 
L 140.049937 129.585252 
L 140.327982 129.551546 
L 140.606027 130.763289 
L 140.884072 133.192576 
L 141.440162 141.468226 
L 141.996252 153.690223 
L 142.830387 177.270679 
L 145.332793 252.270784 
L 146.166928 270.240203 
L 147.001064 283.315736 
L 147.835199 292.034061 
L 148.391289 295.848986 
L 148.947379 298.358665 
L 149.503469 299.776368 
L 149.781514 300.129523 
L 150.059559 300.266836 
L 150.337604 300.199509 
L 150.61565 299.935538 
L 151.17174 298.839482 
L 151.72783 297.012586 
L 152.28392 294.482264 
L 153.118055 289.449272 
L 154.230236 280.847957 
L 156.454596 262.294378 
L 157.288731 257.377185 
L 157.844821 255.371039 
L 158.122867 254.811971 
L 158.400912 254.565139 
L 158.678957 254.635484 
L 158.957002 255.021827 
L 159.513092 256.707135 
L 160.069182 259.492196 
L 160.903317 265.250421 
L 163.405723 284.732599 
L 164.239858 288.949202 
L 164.795948 290.541086 
L 165.073993 290.903555 
L 165.352038 290.941568 
L 165.630084 290.624665 
L 165.908129 289.919079 
L 166.186174 288.786845 
L 166.742264 285.065099 
L 167.298354 279.050088 
L 167.854444 270.269465 
L 168.410534 258.258793 
L 169.24467 233.429197 
L 170.078805 200.216628 
L 171.190985 145.649405 
L 172.859256 62.94667 
L 173.415346 42.432074 
L 173.971436 28.394268 
L 174.249481 24.20137 
L 174.527526 22.029423 
L 174.805571 21.927273 
L 175.083616 23.898514 
L 175.361661 27.901012 
L 175.917751 41.612318 
L 176.473841 61.90338 
L 177.307977 100.99862 
L 179.532337 211.976313 
L 180.366473 243.107679 
L 181.200608 266.000062 
L 182.034743 281.569523 
L 182.590833 288.713767 
L 183.146923 293.910632 
L 183.703013 297.675498 
L 184.537149 301.554603 
L 185.371284 304.187197 
L 186.483464 306.808052 
L 187.87369 309.531676 
L 188.98587 311.370715 
L 189.820005 312.400572 
L 190.376095 312.83328 
L 190.932185 313.008099 
L 191.488276 312.888697 
L 192.044366 312.458429 
L 192.600456 311.726516 
L 193.434591 310.151036 
L 196.493087 303.476813 
L 197.327222 302.350313 
L 198.995493 300.474583 
L 199.551583 299.466214 
L 200.107673 297.912884 
L 200.663763 295.528688 
L 201.219853 291.95657 
L 201.775943 286.764123 
L 202.332033 279.476389 
L 202.888124 269.621496 
L 203.722259 249.149582 
L 204.556394 221.282385 
L 205.668574 174.160668 
L 207.61489 87.926897 
L 208.17098 70.099491 
L 208.72707 58.152064 
L 209.005115 54.718575 
L 209.28316 53.089622 
L 209.561205 53.300657 
L 209.83925 55.346681 
L 210.117296 59.183365 
L 210.673386 71.86314 
L 211.229476 90.28524 
L 212.341656 138.300061 
L 214.287972 224.952963 
L 215.122107 253.273863 
L 215.956242 274.477233 
L 216.790377 289.24607 
L 217.624513 298.949848 
L 218.180603 303.357408 
L 218.736693 306.574776 
L 219.292783 308.914169 
L 220.126918 311.30687 
L 220.961053 312.851227 
L 221.795189 313.866678 
L 222.629324 314.531509 
L 223.463459 314.931328 
L 224.297594 315.096494 
L 225.13173 315.027949 
L 225.965865 314.711534 
L 226.8 314.142497 
L 227.91218 313.04029 
L 230.970676 309.670311 
L 232.082856 308.907735 
L 233.473082 308.012278 
L 234.029172 307.419469 
L 234.585262 306.508958 
L 235.141352 305.112119 
L 235.697442 303.016539 
L 236.253533 299.975195 
L 236.809623 295.720048 
L 237.365713 289.97209 
L 237.921803 282.469026 
L 238.755938 267.530021 
L 239.590073 248.139552 
L 240.980299 208.770546 
L 242.370524 170.51909 
L 243.204659 154.441738 
L 243.76075 148.417103 
L 244.038795 147.024716 
L 244.31684 146.757759 
L 244.594885 147.621564 
L 244.87293 149.597957 
L 245.42902 156.703248 
L 245.98511 167.501409 
L 246.819245 188.752574 
L 249.321651 258.589788 
L 250.155786 276.001071 
L 250.989921 289.107115 
L 251.824057 298.384188 
L 252.658192 304.671846 
L 253.492327 308.825326 
L 254.326462 311.563877 
L 255.160598 313.389303 
L 255.994733 314.613121 
L 256.828868 315.431992 
L 257.663003 315.95452 
L 258.497139 316.239649 
L 259.331274 316.314012 
L 260.165409 316.181623 
L 260.999544 315.841176 
L 262.111724 315.078452 
L 263.50195 313.758374 
L 266.004356 311.276113 
L 268.228716 309.247966 
L 269.062851 308.043253 
L 269.618942 306.843331 
L 270.175032 305.134962 
L 270.731122 302.712383 
L 271.287212 299.325658 
L 271.843302 294.687057 
L 272.399392 288.503705 
L 273.233527 275.799135 
L 274.067663 258.624642 
L 275.179843 229.61863 
L 277.126159 175.964157 
L 277.960294 160.143369 
L 278.516384 154.27062 
L 278.794429 152.949815 
L 279.072474 152.750678 
L 279.350519 153.676832 
L 279.628564 155.707693 
L 280.184654 162.88602 
L 280.740744 173.686706 
L 281.57488 194.756346 
L 284.077285 262.585776 
L 284.911421 279.061066 
L 285.745556 291.264198 
L 286.579691 299.729101 
L 287.413826 305.293294 
L 287.969916 307.821884 
L 288.526007 309.664514 
L 289.082097 310.989247 
L 289.638187 311.925044 
L 290.472322 312.808817 
L 291.306457 313.248166 
L 292.140593 313.345859 
L 292.974728 313.134638 
L 293.808863 312.591266 
L 294.642998 311.667203 
L 295.477133 310.325026 
L 296.589314 307.928449 
L 299.091719 301.95063 
L 299.925855 300.661794 
L 300.481945 300.153226 
L 301.038035 299.920045 
L 301.594125 299.912691 
L 303.262396 300.214774 
L 303.818486 299.909958 
L 304.374576 299.063568 
L 304.930666 297.421145 
L 305.486756 294.670266 
L 306.042846 290.43421 
L 306.598936 284.296281 
L 307.155027 275.827969 
L 307.711117 264.627974 
L 308.545252 242.101507 
L 309.379387 212.717696 
L 310.769613 153.461308 
L 311.881793 107.483112 
L 312.715928 81.959662 
L 313.272018 71.836665 
L 313.550063 69.199544 
L 313.828108 68.261339 
L 314.106153 69.038092 
L 314.384199 71.508533 
L 314.940289 81.264476 
L 315.496379 96.675846 
L 316.330514 127.539942 
L 318.83292 229.259776 
L 319.667055 254.106328 
L 320.50119 272.366061 
L 321.335325 284.779514 
L 321.891416 290.448073 
L 322.447506 294.518146 
L 323.003596 297.358069 
L 323.559686 299.273059 
L 324.115776 300.505853 
L 324.671866 301.227742 
L 325.227956 301.542292 
L 325.784047 301.507091 
L 326.340137 301.15329 
L 326.896227 300.496599 
L 327.730362 298.977921 
L 328.842542 296.170897 
L 330.510813 291.684704 
L 331.066903 290.582549 
L 331.622993 289.860661 
L 332.179083 289.589681 
L 332.457128 289.63423 
L 333.013219 290.080088 
L 333.569309 290.963988 
L 334.403444 292.930484 
L 336.90585 299.716579 
L 337.46194 300.655059 
L 338.01803 301.160421 
L 338.296075 301.218072 
L 338.57412 301.126103 
L 338.852165 300.86698 
L 339.13021 300.420072 
L 339.6863 298.863824 
L 340.24239 296.230137 
L 340.798481 292.252528 
L 341.354571 286.63201 
L 341.910661 279.05994 
L 342.744796 263.492124 
L 343.578931 242.595733 
L 344.691112 207.700706 
L 346.637427 144.124426 
L 347.193517 130.778822 
L 347.749607 121.605546 
L 348.027653 118.831267 
L 348.305698 117.351867 
L 348.583743 117.199636 
L 348.861788 118.379483 
L 349.139833 120.868301 
L 349.695923 129.547899 
L 350.252013 142.549736 
L 351.086148 167.922765 
L 353.588554 250.295761 
L 354.422689 270.518937 
L 355.256825 285.558949 
L 356.09096 296.036892 
L 356.925095 302.996493 
L 357.75923 307.497715 
L 358.593365 310.422626 
L 359.427501 312.369354 
L 360.261636 313.700666 
L 361.095771 314.629715 
L 361.929906 315.262051 
L 362.764042 315.649906 
L 363.598177 315.813346 
L 364.432312 315.754343 
L 365.266447 315.472551 
L 366.100582 314.976781 
L 367.212763 314.041377 
L 372.495619 308.849045 
L 373.329754 307.633724 
L 373.885845 306.461212 
L 374.441935 304.824626 
L 374.998025 302.531185 
L 375.554115 299.339736 
L 376.110205 294.968274 
L 376.666295 289.125836 
L 377.50043 277.055433 
L 378.334566 260.614936 
L 379.446746 232.625426 
L 381.393062 180.46426 
L 381.949152 169.388622 
L 382.505242 161.763778 
L 382.783287 159.459584 
L 383.061332 158.235407 
L 383.339377 158.118502 
L 383.617422 159.11208 
L 383.895467 161.195049 
L 384.451557 168.428826 
L 385.007648 179.216351 
L 385.841783 200.132472 
L 388.344188 266.72076 
L 389.178324 282.683928 
L 390.012459 294.424849 
L 390.846594 302.518743 
L 391.680729 307.829198 
L 392.514865 311.22238 
L 393.349 313.371091 
L 394.183135 314.729297 
L 395.01727 315.588465 
L 395.851405 316.110559 
L 396.685541 316.387325 
L 397.519676 316.472727 
L 398.631856 316.343132 
L 399.744036 315.985038 
L 401.134262 315.298476 
L 405.582983 312.635455 
L 406.695163 311.767853 
L 407.529299 310.818126 
L 408.085389 309.927899 
L 408.641479 308.730929 
L 409.197569 307.111331 
L 409.753659 304.914706 
L 410.309749 301.950398 
L 410.865839 298.006472 
L 411.42193 292.864337 
L 412.256065 282.475667 
L 413.0902 268.558437 
L 414.20238 245.067659 
L 416.426741 195.663651 
L 416.982831 187.175857 
L 417.538921 181.703791 
L 417.816966 180.248022 
L 418.095011 179.692187 
L 418.373056 180.047917 
L 418.651102 181.308031 
L 419.207192 186.419929 
L 419.763282 194.616766 
L 420.597417 211.264835 
L 423.655913 278.235934 
L 424.490048 290.471031 
L 425.324183 299.33811 
L 426.158319 305.396325 
L 426.436364 306.915677 
L 426.436364 306.915677 
" clip-path="url(#p1626effb6e)" style="fill: none; stroke-dasharray: 11.1,4.8; stroke-dashoffset: 0; stroke: #000000; stroke-width: 3"/>
   </g>
   <g id="line2d_2">
    <path d="M 27.163636 285.716163 
L 27.997772 284.781755 
L 28.831907 283.539817 
L 29.944087 281.419386 
L 31.056267 278.807069 
L 32.446493 274.956369 
L 34.392808 268.831008 
L 35.783034 263.912581 
L 37.173259 254.679424 
L 37.451304 252.757626 
L 37.729349 252.826141 
L 39.675665 260.035846 
L 41.06589 264.422079 
L 42.17807 267.331704 
L 43.290251 269.640049 
L 44.124386 270.948984 
L 44.958521 271.898964 
L 45.792656 272.4996 
L 46.626792 272.77591 
L 47.460927 272.758882 
L 48.295062 272.505335 
L 49.407242 271.876308 
L 53.021828 269.418499 
L 53.855964 269.592838 
L 54.690099 269.541615 
L 55.524234 269.291461 
L 56.358369 268.753544 
L 57.192504 267.86656 
L 58.02664 266.542108 
L 58.860775 264.710383 
L 59.416865 262.93562 
L 60.251 259.380991 
L 60.529045 259.719785 
L 65.811902 273.181472 
L 66.924082 275.298157 
L 68.036262 276.933585 
L 68.870398 277.807216 
L 69.704533 278.356917 
L 70.260623 278.549744 
L 70.538668 278.556481 
L 71.094758 278.166261 
L 71.650848 277.306706 
L 72.206938 275.970123 
L 72.763029 274.167064 
L 73.597164 270.566764 
L 74.431299 265.921902 
L 74.709344 264.142949 
L 74.987389 264.113305 
L 76.09957 274.036292 
L 77.21175 281.668708 
L 78.045885 286.016934 
L 78.88002 289.294445 
L 79.714155 291.599757 
L 80.270246 292.650313 
L 80.826336 293.3427 
L 81.382426 293.707768 
L 81.938516 293.775524 
L 82.494606 293.575645 
L 83.050696 293.134211 
L 83.884832 292.08753 
L 84.718967 290.654367 
L 85.831147 288.294981 
L 86.387237 287.103634 
L 87.499418 288.495604 
L 87.777463 288.786813 
L 89.167688 291.939444 
L 89.445733 291.891441 
L 90.001823 291.374823 
L 90.557913 290.624978 
L 91.392049 289.008111 
L 92.226184 286.74779 
L 93.060319 283.785368 
L 93.894454 280.072536 
L 95.006635 273.890402 
L 96.118815 266.297259 
L 97.50904 254.910016 
L 99.177311 238.990947 
L 99.733401 233.801868 
L 100.011446 233.098444 
L 100.845581 233.510828 
L 101.679716 234.084836 
L 105.294302 240.008513 
L 106.684528 245.241328 
L 108.352798 252.544876 
L 110.855204 264.756689 
L 114.46979 282.490598 
L 115.303925 285.429676 
L 115.860015 286.829788 
L 116.416105 287.817876 
L 116.972195 288.40962 
L 117.528286 288.637496 
L 118.084376 288.524049 
L 118.640466 288.096215 
L 119.196556 287.368627 
L 120.308736 285.339305 
L 120.864827 285.47961 
L 121.420917 285.55929 
L 121.977007 285.443219 
L 122.533097 285.169902 
L 123.923322 283.234302 
L 128.650089 276.134546 
L 128.928134 275.235945 
L 130.318359 269.144509 
L 131.430539 265.534673 
L 132.54272 262.847178 
L 133.6549 260.838903 
L 134.76708 259.334315 
L 135.879261 258.183902 
L 137.269486 257.097967 
L 138.659711 256.308582 
L 139.771892 255.934979 
L 140.606027 255.755437 
L 141.440162 255.875742 
L 143.108433 256.310966 
L 143.664523 256.248139 
L 144.220613 255.951647 
L 144.776703 255.341944 
L 145.332793 254.334694 
L 145.888883 252.857679 
L 146.444973 250.843773 
L 147.001064 248.231934 
L 147.835199 244.166335 
L 149.503469 247.297083 
L 153.118055 253.924127 
L 154.230236 256.077021 
L 157.844821 261.626483 
L 158.678957 263.258523 
L 159.513092 265.313258 
L 160.347227 267.849385 
L 161.181362 270.958475 
L 162.293543 276.154584 
L 163.405723 282.737599 
L 164.795948 292.490198 
L 165.073993 291.919561 
L 169.80076 267.95122 
L 171.190985 262.204043 
L 172.303165 258.382656 
L 173.415346 255.306146 
L 174.249481 253.627456 
L 175.083616 252.441928 
L 176.195796 251.308871 
L 177.029932 250.781086 
L 177.864067 250.562316 
L 178.420157 250.600352 
L 178.976247 250.809729 
L 179.532337 251.199304 
L 180.088427 251.783757 
L 180.922563 253.060067 
L 181.478653 254.201356 
L 183.146923 261.037912 
L 183.981058 263.336003 
L 184.537149 264.426816 
L 185.093239 265.162627 
L 185.649329 265.55775 
L 186.205419 265.63047 
L 186.761509 265.385547 
L 187.317599 264.864945 
L 188.151735 265.225119 
L 188.707825 265.684705 
L 189.263915 266.365193 
L 190.09805 267.854834 
L 190.932185 270.053208 
L 191.766321 273.173753 
L 192.044366 274.445832 
L 192.878501 274.912254 
L 193.990681 275.827408 
L 195.102861 277.102128 
L 196.215042 278.785083 
L 197.327222 280.978295 
L 198.161357 283.025365 
L 199.273538 286.468862 
L 200.107673 289.725324 
L 200.941808 293.727455 
L 201.497898 296.915895 
L 201.775943 297.48958 
L 202.053988 296.729303 
L 203.166169 291.54977 
L 204.556394 283.956091 
L 209.005115 258.409941 
L 209.83925 255.519477 
L 210.395341 254.461369 
L 210.673386 254.22924 
L 210.951431 254.207057 
L 211.229476 254.401424 
L 211.507521 254.8065 
L 212.063611 256.2701 
L 212.619701 258.633709 
L 213.453836 263.677029 
L 215.956242 256.920587 
L 216.790377 255.347109 
L 217.346467 254.678767 
L 217.902558 254.38605 
L 218.458648 254.526925 
L 219.014738 255.148291 
L 219.570828 256.291002 
L 220.126918 258.017285 
L 220.961053 261.381602 
L 221.517144 262.433755 
L 222.351279 264.69038 
L 223.185414 267.771781 
L 224.019549 271.657191 
L 225.13173 278.065373 
L 226.24391 285.817456 
L 227.35609 293.976593 
L 227.634135 293.65418 
L 229.024361 286.190931 
L 230.136541 281.241971 
L 231.248721 277.237165 
L 232.360901 274.176032 
L 233.195037 272.481707 
L 234.029172 271.279842 
L 234.863307 270.542087 
L 235.419397 270.291084 
L 237.643758 269.942216 
L 238.477893 270.22644 
L 239.312028 270.794135 
L 240.424209 271.898026 
L 241.814434 273.680435 
L 244.038795 277.016967 
L 245.150975 278.918909 
L 245.707065 280.023275 
L 245.98511 279.681893 
L 247.09729 275.5577 
L 248.209471 272.396869 
L 249.321651 269.984855 
L 250.711876 267.626914 
L 252.936237 264.067784 
L 253.770372 262.054598 
L 254.604507 260.491788 
L 255.438643 259.30967 
L 256.550823 258.166909 
L 259.053229 255.957418 
L 259.887364 254.737093 
L 260.443454 253.594886 
L 261.277589 251.20299 
L 263.50195 242.854999 
L 263.779995 243.251251 
L 265.17022 256.714895 
L 266.004356 262.193796 
L 266.838491 266.517335 
L 267.672626 269.825718 
L 268.506761 272.231017 
L 269.340896 273.815135 
L 269.896987 274.473054 
L 270.453077 274.839435 
L 271.009167 274.93636 
L 271.565257 274.785528 
L 272.121347 274.407121 
L 272.955482 273.457215 
L 273.789618 272.137149 
L 275.179843 269.376411 
L 277.126159 265.423341 
L 277.960294 264.241211 
L 278.516384 263.818146 
L 278.794429 263.761281 
L 279.906609 264.708164 
L 281.57488 266.201312 
L 282.965105 267.0942 
L 283.79924 267.416746 
L 284.633376 267.435031 
L 285.467511 267.124173 
L 286.301646 266.485399 
L 287.135781 265.545262 
L 288.247962 263.910547 
L 289.916232 260.945848 
L 292.418638 256.487945 
L 293.530818 254.893717 
L 294.642998 253.699319 
L 295.477133 253.11134 
L 296.311269 252.815479 
L 297.423449 250.261533 
L 298.535629 247.397397 
L 299.64781 246.000215 
L 301.038035 243.864085 
L 305.486756 236.5019 
L 305.764801 236.476049 
L 306.042846 236.648067 
L 306.320891 236.9712 
L 308.267207 241.561734 
L 311.603748 248.682781 
L 312.437883 249.73575 
L 312.993973 250.192125 
L 313.550063 250.447954 
L 313.828108 251.337667 
L 314.662244 255.609021 
L 315.496379 258.638632 
L 316.330514 260.626089 
L 316.886604 261.459369 
L 317.442694 261.965379 
L 317.998785 262.173774 
L 318.554875 262.140891 
L 319.110965 261.889754 
L 319.9451 261.203368 
L 321.05728 259.863822 
L 325.506002 253.884109 
L 326.340137 253.254919 
L 326.618182 253.096196 
L 326.896227 252.739867 
L 327.452317 252.685865 
L 331.901038 252.978857 
L 334.403444 252.691202 
L 336.071714 252.319105 
L 337.739985 251.72123 
L 339.408255 251.070583 
L 339.964345 251.432325 
L 340.798481 252.279437 
L 341.910661 253.805831 
L 346.081337 260.064279 
L 346.915472 260.864855 
L 347.749607 261.389777 
L 348.305698 261.56555 
L 348.583743 262.102524 
L 351.920284 274.87938 
L 352.754419 281.582779 
L 353.866599 291.128889 
L 354.144644 290.93472 
L 355.256825 282.526236 
L 356.369005 276.109187 
L 357.481185 271.23682 
L 358.593365 267.573728 
L 359.705546 264.805042 
L 360.817726 262.679133 
L 362.207951 260.551924 
L 364.988402 256.638843 
L 365.822537 255.211443 
L 366.656673 253.347709 
L 367.212763 252.66928 
L 367.768853 252.446876 
L 368.324943 252.660155 
L 368.881033 253.294829 
L 369.437123 254.334362 
L 370.271259 256.619376 
L 371.105394 259.70744 
L 372.217574 264.90176 
L 373.329754 271.172705 
L 374.998025 282.075931 
L 375.27607 283.886712 
L 376.110205 285.023155 
L 376.94434 285.846855 
L 377.778476 286.406624 
L 378.612611 286.737773 
L 379.724791 286.892121 
L 380.836971 286.788701 
L 382.227197 286.372842 
L 383.339377 285.819436 
L 384.173512 284.984896 
L 385.285693 283.479069 
L 386.953963 280.765825 
L 390.012459 275.635978 
L 390.290504 275.35507 
L 391.124639 275.119728 
L 392.236819 275.116976 
L 393.070955 275.317123 
L 393.349 275.733231 
L 395.01727 279.988845 
L 396.407496 282.890554 
L 397.519676 284.762036 
L 398.631856 286.210631 
L 399.465991 287.010972 
L 400.300127 287.574733 
L 401.412307 288.249689 
L 402.524487 289.244227 
L 403.636668 290.616283 
L 404.748848 292.388471 
L 405.861028 294.575671 
L 407.529299 298.499511 
L 408.363434 300.762337 
L 408.641479 300.534021 
L 410.587794 289.30994 
L 413.64629 279.762376 
L 415.592606 272.903101 
L 417.816966 264.198399 
L 419.207192 257.042224 
L 421.153507 247.822005 
L 422.265688 243.062138 
L 422.543733 242.564405 
L 423.099823 247.770381 
L 423.933958 255.44155 
L 424.768093 260.956771 
L 425.602228 264.618926 
L 426.158319 266.182623 
L 426.436364 266.734014 
L 426.436364 266.734014 
" clip-path="url(#p1626effb6e)" style="fill: none; stroke: #ff00ff; stroke-width: 3; stroke-linecap: square"/>
   </g>
   <g id="patch_3">
    <path d="M 7.2 331.2 
L 7.2 7.2 
" style="fill: none; stroke: #000000; stroke-width: 0.8; stroke-linejoin: miter; stroke-linecap: square"/>
   </g>
   <g id="patch_4">
    <path d="M 446.4 331.2 
L 446.4 7.2 
" style="fill: none; stroke: #000000; stroke-width: 0.8; stroke-linejoin: miter; stroke-linecap: square"/>
   </g>
   <g id="patch_5">
    <path d="M 7.2 331.2 
L 446.4 331.2 
" style="fill: none; stroke: #000000; stroke-width: 0.8; stroke-linejoin: miter; stroke-linecap: square"/>
   </g>
   <g id="patch_6">
    <path d="M 7.2 7.2 
L 446.4 7.2 
" style="fill: none; stroke: #000000; stroke-width: 0.8; stroke-linejoin: miter; stroke-linecap: square"/>
   </g>
  </g>
 </g>
 <defs>
  <clipPath id="p1626effb6e">
   <rect x="7.2" y="7.2" width="439.2" height="324"/>
  </clipPath>
 </defs>
</svg>
