<?xml version="1.0" encoding="utf-8" standalone="no"?>
<!DOCTYPE svg PUBLIC "-//W3C//DTD SVG 1.1//EN"
  "http://www.w3.org/Graphics/SVG/1.1/DTD/svg11.dtd">
<svg xmlns:xlink="http://www.w3.org/1999/xlink" width="453.6pt" height="338.4pt" viewBox="0 0 453.6 338.4" xmlns="http://www.w3.org/2000/svg" version="1.1">
 <metadata>
  <rdf:RDF xmlns:dc="http://purl.org/dc/elements/1.1/" xmlns:cc="http://creativecommons.org/ns#" xmlns:rdf="http://www.w3.org/1999/02/22-rdf-syntax-ns#">
   <cc:Work>
    <dc:type rdf:resource="http://purl.org/dc/dcmitype/StillImage"/>
    <dc:date>2025-05-15T17:00:48.694891</dc:date>
    <dc:format>image/svg+xml</dc:format>
    <dc:creator>
     <cc:Agent>
      <dc:title>Matplotlib v3.10.1, https://matplotlib.org/</dc:title>
     </cc:Agent>
    </dc:creator>
   </cc:Work>
  </rdf:RDF>
 </metadata>
 <defs>
  <style type="text/css">*{stroke-linejoin: round; stroke-linecap: butt}</style>
 </defs>
 <g id="figure_1">
  <g id="patch_1">
   <path d="M 0 338.4 
L 453.6 338.4 
L 453.6 0 
L 0 0 
z
" style="fill: #ffffff"/>
  </g>
  <g id="axes_1">
   <g id="patch_2">
    <path d="M 7.2 331.2 
L 446.4 331.2 
L 446.4 7.2 
L 7.2 7.2 
z
" style="fill: #ffffff"/>
   </g>
   <g id="matplotlib.axis_1"/>
   <g id="matplotlib.axis_2"/>
   <g id="line2d_1">
    <path d="M 27.163636 263.208512 
L 27.719727 262.266512 
L 28.553862 260.194982 
L 29.387997 257.399056 
L 30.500177 252.729552 
L 31.890403 245.688397 
L 33.280628 237.507461 
L 34.670853 228.146208 
L 36.061079 217.393117 
L 37.729349 202.560255 
L 41.900025 164.010295 
L 43.012206 156.40965 
L 43.846341 152.082374 
L 44.680476 149.085007 
L 45.236566 147.881211 
L 45.792656 147.346815 
L 46.070701 147.338903 
L 46.348747 147.508699 
L 46.626792 147.858456 
L 47.182882 149.106019 
L 47.738972 151.092566 
L 48.295062 153.814994 
L 49.129197 159.22595 
L 49.963332 166.073192 
L 51.353558 179.834198 
L 54.690099 214.312256 
L 56.080324 225.707227 
L 57.192504 233.171338 
L 58.304685 239.265942 
L 59.416865 244.074575 
L 60.251 246.888833 
L 61.085135 249.099279 
L 61.919271 250.819267 
L 63.031451 252.603183 
L 68.314307 260.266609 
L 69.982578 262.562379 
L 71.094758 263.7985 
L 72.206938 264.728164 
L 73.319119 265.325681 
L 74.431299 265.61606 
L 75.821524 265.672375 
L 78.601975 265.666591 
L 79.714155 265.913713 
L 80.826336 266.387456 
L 81.938516 267.105131 
L 83.050696 268.105104 
L 83.884832 269.097762 
L 84.718967 270.380032 
L 85.553102 272.045109 
L 86.387237 274.174273 
L 87.499418 277.792635 
L 88.889643 283.35565 
L 91.392049 293.779443 
L 92.504229 297.372456 
L 93.338364 299.25369 
L 93.894454 300.003818 
L 94.450544 300.263403 
L 94.72859 300.183226 
L 95.006635 299.948652 
L 95.562725 298.974412 
L 96.118815 297.263739 
L 96.674905 294.760744 
L 97.50904 289.487769 
L 98.343175 282.518369 
L 99.455356 271.249469 
L 102.235807 242.01019 
L 103.347987 233.076232 
L 104.182122 227.899171 
L 105.016257 223.988473 
L 105.850393 221.248223 
L 106.406483 220.026351 
L 106.962573 219.264653 
L 107.518663 218.943649 
L 108.074753 219.039095 
L 108.630843 219.51488 
L 109.186933 220.317666 
L 110.021069 221.967813 
L 111.967384 226.102239 
L 112.523474 226.90141 
L 113.079564 227.402247 
L 113.635655 227.5851 
L 114.191745 227.462943 
L 114.747835 227.076479 
L 115.58197 226.129291 
L 117.250241 223.652412 
L 119.474601 220.47015 
L 122.255052 216.946213 
L 123.367232 215.80205 
L 124.201367 215.204107 
L 124.757458 214.988971 
L 125.313548 214.960983 
L 125.869638 215.153449 
L 126.425728 215.595888 
L 126.981818 216.315392 
L 127.537908 217.33442 
L 128.372044 219.459628 
L 129.206179 222.297323 
L 130.318359 226.997579 
L 131.98663 234.263568 
L 132.54272 235.966627 
L 133.09881 236.883063 
L 133.376855 236.961411 
L 133.6549 236.743637 
L 133.932945 236.200478 
L 134.489035 234.042604 
L 135.045125 230.339301 
L 135.601215 225.023706 
L 136.435351 214.089038 
L 137.269486 199.981294 
L 138.659711 171.40329 
L 141.996252 99.469672 
L 143.108433 81.192496 
L 143.942568 70.664154 
L 144.776703 62.949773 
L 145.332793 59.278498 
L 145.888883 56.656833 
L 146.444973 54.940546 
L 147.001064 53.971835 
L 147.557154 53.592645 
L 148.113244 53.650534 
L 148.669334 54.002588 
L 150.059559 55.373116 
L 150.893695 56.046811 
L 151.449785 56.275899 
L 152.005875 56.264883 
L 152.561965 55.973696 
L 153.118055 55.373924 
L 153.674145 54.447322 
L 154.508281 52.437423 
L 155.342416 49.715591 
L 156.454596 45.14902 
L 158.678957 34.484314 
L 160.069182 28.485582 
L 160.903317 25.684977 
L 161.737453 23.648792 
L 162.293543 22.737842 
L 162.849633 22.174182 
L 163.405723 21.935312 
L 163.961813 21.987203 
L 164.517903 22.292937 
L 165.352038 23.141234 
L 166.186174 24.341882 
L 167.576399 26.828884 
L 172.859256 36.906111 
L 174.527526 39.360192 
L 175.917751 41.030373 
L 177.307977 42.400774 
L 178.976247 43.721495 
L 180.644518 44.729762 
L 182.312788 45.472107 
L 186.205419 47.06947 
L 188.151735 47.854136 
L 189.263915 48.01568 
L 190.09805 47.905942 
L 190.932185 47.568435 
L 191.766321 47.008306 
L 192.878501 45.974901 
L 194.824816 43.730555 
L 199.551583 37.908807 
L 200.663763 35.903927 
L 201.775943 33.32705 
L 204.000304 27.736091 
L 204.556394 26.927265 
L 204.834439 26.736288 
L 205.112484 26.723358 
L 205.390529 26.915909 
L 205.668574 27.341376 
L 206.224664 28.992841 
L 206.780755 31.865244 
L 207.336845 36.10609 
L 207.892935 41.806872 
L 208.72707 53.122986 
L 209.561205 67.513707 
L 210.951431 96.580043 
L 214.009927 163.28339 
L 215.122107 182.218354 
L 215.956242 193.485212 
L 216.790377 202.17898 
L 217.624513 208.449037 
L 218.180603 211.419224 
L 218.736693 213.545199 
L 219.292783 214.945629 
L 219.848873 215.741651 
L 220.404963 216.048576 
L 220.961053 215.972441 
L 221.517144 215.605415 
L 222.351279 214.675325 
L 223.463459 213.013141 
L 226.521955 208.187453 
L 227.35609 207.267741 
L 228.190225 206.657379 
L 229.024361 206.379207 
L 229.858496 206.422081 
L 230.692631 206.747551 
L 231.526766 207.303215 
L 232.638947 208.305825 
L 234.585262 210.436307 
L 236.809623 212.802683 
L 238.199848 213.940424 
L 240.702254 215.740801 
L 241.258344 216.413773 
L 241.814434 217.34348 
L 242.370524 218.611502 
L 242.926614 220.287594 
L 243.76075 223.661216 
L 244.594885 228.066882 
L 245.98511 237.095903 
L 247.653381 248.024064 
L 248.487516 252.217145 
L 249.043606 254.224875 
L 249.599696 255.510038 
L 249.877741 255.871704 
L 250.155786 256.046561 
L 250.433831 256.03865 
L 250.711876 255.854733 
L 251.267967 254.998908 
L 251.824057 253.580698 
L 252.658192 250.686816 
L 255.160598 241.18367 
L 255.716688 239.761463 
L 256.272778 238.792157 
L 256.828868 238.315989 
L 257.106913 238.266352 
L 257.384958 238.340106 
L 257.941048 238.838646 
L 258.497139 239.755508 
L 259.331274 241.726786 
L 261.833679 248.36425 
L 262.38977 249.287365 
L 262.94586 249.844687 
L 263.50195 250.009931 
L 264.05804 249.785139 
L 264.61413 249.198639 
L 265.17022 248.298833 
L 266.004356 246.502497 
L 269.340896 238.500161 
L 270.175032 237.172677 
L 271.009167 236.250924 
L 271.843302 235.707808 
L 272.677437 235.486418 
L 273.511573 235.514108 
L 274.623753 235.820182 
L 275.735933 236.349219 
L 276.848113 237.116744 
L 277.682249 237.922635 
L 278.516384 238.98794 
L 279.628564 240.795548 
L 281.296835 243.6238 
L 281.852925 244.272145 
L 282.409015 244.611055 
L 282.965105 244.555719 
L 283.521195 244.046204 
L 284.077285 243.052697 
L 284.633376 241.579023 
L 285.467511 238.557667 
L 286.579691 233.416121 
L 289.082097 221.142399 
L 290.194277 217.035364 
L 291.028412 214.775067 
L 291.862547 213.089447 
L 295.199088 207.594615 
L 296.033224 206.506809 
L 296.589314 206.202734 
L 296.867359 206.234762 
L 297.145404 206.413277 
L 297.701494 207.265657 
L 298.257584 208.847154 
L 298.813674 211.191583 
L 299.64781 216.082689 
L 300.481945 222.38473 
L 301.87217 234.980605 
L 306.876982 282.798243 
L 308.267207 293.894072 
L 309.379387 301.451376 
L 310.491567 307.552105 
L 311.325703 311.065238 
L 312.159838 313.654832 
L 312.993973 315.365314 
L 313.550063 316.054619 
L 314.106153 316.411861 
L 314.662244 316.457606 
L 315.218334 316.202913 
L 315.774424 315.646569 
L 316.330514 314.772582 
L 316.886604 313.550709 
L 317.720739 310.968601 
L 318.554875 307.326887 
L 319.38901 302.453816 
L 320.223145 296.251431 
L 321.335325 286.006535 
L 323.003596 267.804389 
L 324.671866 249.83014 
L 325.784047 240.186887 
L 326.618182 234.8835 
L 327.174272 232.377868 
L 327.730362 230.703987 
L 328.286452 229.825448 
L 328.564497 229.663351 
L 328.842542 229.671135 
L 329.120587 229.835359 
L 329.676678 230.573493 
L 330.232768 231.751513 
L 331.344948 234.910509 
L 333.569309 241.534958 
L 334.681489 244.135271 
L 335.793669 246.173114 
L 336.90585 247.697871 
L 337.739985 248.502443 
L 338.57412 248.996815 
L 339.408255 249.176989 
L 340.24239 249.073972 
L 341.354571 248.625409 
L 343.300886 247.726964 
L 344.135022 247.563549 
L 344.969157 247.622416 
L 345.803292 247.91203 
L 346.915472 248.61167 
L 348.305698 249.833543 
L 352.476374 253.740498 
L 353.866599 254.656509 
L 355.256825 255.257089 
L 357.20314 255.764476 
L 358.593365 256.222226 
L 359.705546 256.819275 
L 360.817726 257.664808 
L 361.929906 258.766522 
L 363.042087 260.195322 
L 363.876222 261.600346 
L 364.710357 263.429178 
L 365.544492 265.809292 
L 366.378628 268.824651 
L 367.490808 273.82056 
L 369.159078 282.725297 
L 370.827349 291.375382 
L 371.661484 294.716849 
L 372.217574 296.320804 
L 372.773664 297.301764 
L 373.051709 297.529406 
L 373.329754 297.569218 
L 373.607799 297.413544 
L 373.885845 297.057024 
L 374.441935 295.731879 
L 374.998025 293.599312 
L 375.83216 289.006199 
L 376.94434 280.860992 
L 380.280881 254.261922 
L 381.393062 247.770902 
L 382.227197 243.976959 
L 383.061332 241.023104 
L 383.895467 238.816273 
L 384.729602 237.288156 
L 385.285693 236.627562 
L 385.841783 236.24348 
L 386.397873 236.123194 
L 386.953963 236.245522 
L 387.510053 236.575458 
L 388.344188 237.343535 
L 389.734414 238.738266 
L 390.290504 239.107248 
L 390.846594 239.271259 
L 391.402684 239.192996 
L 391.958774 238.862933 
L 392.514865 238.298593 
L 393.349 237.105601 
L 395.295315 233.65631 
L 397.241631 230.462224 
L 402.524487 222.444533 
L 403.358622 221.743999 
L 403.914713 221.516017 
L 404.470803 221.516442 
L 405.026893 221.777048 
L 405.582983 222.331903 
L 406.139073 223.216396 
L 406.695163 224.463534 
L 407.529299 227.052022 
L 408.363434 230.45427 
L 410.865839 241.552609 
L 411.42193 242.71251 
L 411.699975 242.89664 
L 411.97802 242.771037 
L 412.256065 242.30495 
L 412.53411 241.47222 
L 413.0902 238.628401 
L 413.64629 234.139921 
L 414.20238 227.999509 
L 415.036516 215.891796 
L 416.148696 195.332121 
L 418.095011 153.18949 
L 419.763282 118.903814 
L 420.875462 100.720383 
L 421.709597 90.509131 
L 422.543733 83.402177 
L 423.099823 80.289373 
L 423.655913 78.325411 
L 424.212003 77.334497 
L 424.490048 77.142669 
L 424.768093 77.119318 
L 425.324183 77.478262 
L 425.880273 78.222266 
L 426.436364 79.185362 
L 426.436364 79.185362 
" clip-path="url(#pa0fb573d61)" style="fill: none; stroke-dasharray: 11.1,4.8; stroke-dashoffset: 0; stroke: #000000; stroke-width: 3"/>
   </g>
   <g id="line2d_2">
    <path d="M 27.163636 257.881518 
L 27.997772 256.981585 
L 28.553862 256.138732 
L 29.109952 254.926302 
L 29.666042 253.219287 
L 30.222132 250.92641 
L 31.056267 246.272176 
L 31.890403 240.129169 
L 33.002583 229.780873 
L 34.392808 214.072492 
L 37.729349 174.606521 
L 38.563484 167.626914 
L 39.119575 164.203314 
L 39.675665 161.868924 
L 40.231755 160.665766 
L 40.5098 160.490782 
L 40.787845 160.598265 
L 41.06589 160.984643 
L 41.62198 162.576646 
L 42.17807 165.227617 
L 42.734161 168.891959 
L 43.568296 176.169176 
L 44.680476 188.743146 
L 48.295062 234.101641 
L 49.129197 240.88623 
L 49.963332 245.668024 
L 50.797468 248.947986 
L 52.187693 252.992879 
L 53.577918 257.245168 
L 55.246189 262.542685 
L 56.080324 264.528255 
L 56.636414 265.437546 
L 57.192504 266.009542 
L 57.748595 266.290606 
L 58.58273 266.35781 
L 59.69491 266.368954 
L 60.251 266.591747 
L 60.80709 267.083184 
L 61.363181 267.905025 
L 61.919271 269.090105 
L 62.753406 271.534361 
L 63.865586 275.753898 
L 65.811902 283.350035 
L 66.646037 285.542405 
L 67.202127 286.381855 
L 67.480172 286.593844 
L 67.758217 286.663259 
L 68.036262 286.591717 
L 68.592352 286.038436 
L 69.148443 284.986912 
L 69.982578 282.665324 
L 71.372803 277.738702 
L 72.763029 272.999911 
L 73.597164 270.806265 
L 74.431299 269.309836 
L 74.987389 268.748303 
L 75.543479 268.558261 
L 76.09957 268.760127 
L 76.65566 269.376444 
L 77.21175 270.43069 
L 77.76784 271.944133 
L 78.601975 275.095728 
L 79.43611 279.242958 
L 80.826336 287.624442 
L 82.216561 295.662336 
L 82.772651 298.061676 
L 83.328741 299.704847 
L 83.606787 300.19688 
L 83.884832 300.452509 
L 84.162877 300.463823 
L 84.440922 300.227759 
L 84.718967 299.74619 
L 85.275057 298.071203 
L 85.831147 295.530566 
L 86.665282 290.417135 
L 88.055508 279.921544 
L 90.001823 265.246483 
L 91.114004 258.26292 
L 92.226184 252.68051 
L 93.060319 249.498205 
L 93.894454 247.230721 
L 94.450544 246.246315 
L 95.006635 245.691077 
L 95.562725 245.565347 
L 96.118815 245.860022 
L 96.674905 246.558514 
L 97.230995 247.628498 
L 98.06513 249.819677 
L 100.845581 258.161774 
L 101.401671 258.973577 
L 101.679716 259.152049 
L 101.957761 259.159621 
L 102.235807 258.984976 
L 102.513852 258.62046 
L 103.069942 257.301142 
L 103.626032 255.202007 
L 104.460167 250.717398 
L 105.572347 242.842239 
L 109.743024 210.77139 
L 111.411294 200.625428 
L 113.35761 190.248762 
L 115.58197 179.604387 
L 117.250241 172.586712 
L 118.640466 167.654901 
L 119.752646 164.409859 
L 120.864827 161.760037 
L 121.977007 159.595187 
L 123.645277 156.895685 
L 125.869638 153.325216 
L 127.815953 150.028835 
L 128.372044 149.356799 
L 128.928134 148.994835 
L 129.206179 148.969825 
L 129.484224 149.070971 
L 129.762269 149.313074 
L 130.318359 150.280126 
L 130.874449 151.971871 
L 131.430539 154.454194 
L 132.264675 159.700076 
L 133.09881 166.631109 
L 134.489035 180.692533 
L 135.879261 194.779563 
L 136.713396 201.37998 
L 137.269486 204.41852 
L 137.825576 206.105246 
L 138.103621 206.393711 
L 138.381666 206.29767 
L 138.659711 205.813123 
L 138.937756 204.942283 
L 139.493847 202.085959 
L 140.049937 197.872546 
L 140.884072 189.5293 
L 142.830387 166.079444 
L 143.942568 153.918777 
L 145.054748 144.353999 
L 145.888883 138.957888 
L 146.723018 134.804788 
L 147.835199 130.514219 
L 150.337604 121.554699 
L 151.449785 116.219709 
L 152.561965 109.406154 
L 153.674145 101.03054 
L 155.342416 86.353565 
L 157.566776 66.988371 
L 158.678957 59.162508 
L 159.513092 54.455617 
L 160.347227 50.771837 
L 161.181362 48.064424 
L 162.015498 46.252733 
L 162.571588 45.498096 
L 163.127678 45.072076 
L 163.683768 44.943283 
L 164.239858 45.080327 
L 164.795948 45.450373 
L 165.630084 46.375528 
L 166.464219 47.666391 
L 167.576399 49.87352 
L 168.688579 52.650986 
L 169.80076 56.122777 
L 170.91294 60.405009 
L 172.303165 66.787483 
L 174.805571 78.554541 
L 175.639706 81.596654 
L 176.473841 83.929896 
L 177.307977 85.595057 
L 178.142112 86.766612 
L 180.922563 90.160906 
L 182.868878 93.04896 
L 183.424968 93.580422 
L 183.981058 93.825673 
L 184.537149 93.723209 
L 185.093239 93.241767 
L 185.649329 92.38709 
L 186.483464 90.50777 
L 188.151735 85.720234 
L 189.263915 82.928902 
L 189.820005 81.927865 
L 190.376095 81.264634 
L 190.932185 80.968768 
L 191.488276 81.050348 
L 192.044366 81.509161 
L 192.600456 82.339041 
L 193.156546 83.533479 
L 193.990681 86.001043 
L 194.824816 89.287684 
L 195.658952 93.407777 
L 196.771132 100.16944 
L 198.161357 110.308597 
L 201.219853 133.503377 
L 202.332033 139.987592 
L 203.166169 143.789531 
L 204.000304 146.768523 
L 205.112484 149.855679 
L 207.0588 154.837595 
L 208.17098 158.395092 
L 209.561205 163.694311 
L 211.507521 171.218863 
L 212.619701 174.718641 
L 213.453836 176.751593 
L 214.287972 178.207828 
L 214.844062 178.819551 
L 215.400152 179.104486 
L 215.956242 179.018482 
L 216.512332 178.514413 
L 217.068422 177.546298 
L 217.624513 176.078621 
L 218.180603 174.091776 
L 219.014738 170.148114 
L 219.848873 165.136126 
L 220.961053 157.101975 
L 222.907369 140.928868 
L 224.575639 127.349396 
L 225.68782 120.052103 
L 226.521955 116.247654 
L 227.078045 114.724173 
L 227.35609 114.298323 
L 227.634135 114.104751 
L 227.91218 114.146902 
L 228.190225 114.42533 
L 228.746316 115.674934 
L 229.302406 117.795124 
L 230.136541 122.365141 
L 231.248721 130.223159 
L 233.473082 146.524549 
L 234.307217 151.283246 
L 235.141352 154.898716 
L 235.975487 157.406815 
L 236.809623 159.045691 
L 238.755938 162.073257 
L 239.312028 163.504737 
L 239.868119 165.496346 
L 240.424209 168.173135 
L 241.258344 173.623605 
L 242.092479 180.765394 
L 243.482704 195.354707 
L 245.150975 213.081834 
L 245.98511 220.08224 
L 246.5412 223.592567 
L 247.09729 226.034525 
L 247.653381 227.354779 
L 247.931426 227.595011 
L 248.209471 227.564046 
L 248.487516 227.272263 
L 249.043606 225.963494 
L 249.599696 223.810936 
L 250.433831 219.381621 
L 252.102102 208.477194 
L 253.492327 199.767008 
L 254.604507 194.186937 
L 255.438643 191.167623 
L 255.994733 189.828612 
L 256.550823 189.104259 
L 256.828868 188.991501 
L 257.106913 189.053048 
L 257.384958 189.294385 
L 257.941048 190.328173 
L 258.497139 192.096862 
L 259.053229 194.566808 
L 259.887364 199.415635 
L 261.277589 209.423829 
L 262.94586 221.193142 
L 263.779995 225.610037 
L 264.336085 227.72593 
L 264.892175 229.111856 
L 265.448265 229.762541 
L 265.72631 229.823024 
L 266.004356 229.717284 
L 266.560446 229.05401 
L 267.116536 227.879138 
L 267.950671 225.428587 
L 271.287212 214.384478 
L 272.121347 212.739691 
L 272.677437 212.192194 
L 272.955482 212.123544 
L 273.233527 212.209633 
L 273.511573 212.463475 
L 274.067663 213.517211 
L 274.623753 215.347192 
L 275.179843 217.96439 
L 276.013978 223.227625 
L 277.404204 234.268757 
L 279.072474 247.268576 
L 280.184654 253.936537 
L 281.01879 257.779904 
L 282.13097 261.736922 
L 282.965105 263.974293 
L 283.521195 265.043086 
L 284.077285 265.635499 
L 284.35533 265.702362 
L 284.633376 265.586329 
L 284.911421 265.264858 
L 285.189466 264.715659 
L 285.745556 262.856416 
L 286.301646 259.888057 
L 286.857736 255.757841 
L 287.691871 247.477843 
L 288.804052 233.395195 
L 291.028412 203.472735 
L 291.862547 195.008055 
L 292.418638 190.917608 
L 292.974728 188.237119 
L 293.252773 187.444074 
L 293.530818 187.014013 
L 293.808863 186.938558 
L 294.086908 187.2038 
L 294.364953 187.788344 
L 294.921043 189.812959 
L 295.755179 194.468257 
L 297.701494 206.894676 
L 298.257584 209.307627 
L 298.813674 210.725283 
L 299.091719 211.013238 
L 299.369764 211.006858 
L 299.64781 210.702145 
L 299.925855 210.102161 
L 300.481945 208.054066 
L 301.038035 204.987794 
L 301.87217 198.910842 
L 305.208711 171.836711 
L 306.320891 165.659889 
L 307.155027 162.11426 
L 307.989162 159.375882 
L 308.545252 158.033808 
L 309.101342 157.182619 
L 309.379387 156.986453 
L 309.657432 156.971693 
L 309.935477 157.161777 
L 310.213522 157.580694 
L 310.769613 159.18869 
L 311.325703 161.940381 
L 311.881793 165.909819 
L 312.715928 174.069063 
L 313.828108 188.138738 
L 316.052469 218.061623 
L 317.164649 229.653909 
L 317.998785 236.353175 
L 319.110965 243.377486 
L 324.115776 271.121867 
L 324.949911 274.427605 
L 325.506002 275.996852 
L 326.062092 277.009075 
L 326.618182 277.459254 
L 326.896227 277.480691 
L 327.174272 277.373846 
L 327.730362 276.804487 
L 328.286452 275.824079 
L 329.120587 273.768499 
L 330.788858 268.676165 
L 331.901038 265.505345 
L 332.735173 263.723598 
L 333.291264 262.978233 
L 333.847354 262.68662 
L 334.125399 262.737151 
L 334.403444 262.932041 
L 334.959534 263.786548 
L 335.515624 265.307562 
L 336.071714 267.524771 
L 336.90585 272.139194 
L 337.739985 278.128483 
L 339.13021 290.056532 
L 340.798481 304.056495 
L 341.632616 309.28162 
L 342.188706 311.659693 
L 342.744796 312.974332 
L 343.022841 313.19789 
L 343.300886 313.120138 
L 343.578931 312.736482 
L 343.856976 312.046836 
L 344.413067 309.769059 
L 344.969157 306.368895 
L 345.803292 299.50766 
L 347.193517 285.306257 
L 348.861788 268.703217 
L 349.695923 262.200457 
L 350.530058 257.345293 
L 351.086148 255.052033 
L 351.642239 253.492653 
L 352.198329 252.641294 
L 352.476374 252.47371 
L 352.754419 252.476347 
L 353.032464 252.648439 
L 353.588554 253.502266 
L 354.144644 255.047524 
L 354.700734 257.299016 
L 355.53487 262.012883 
L 356.369005 268.259162 
L 357.481185 278.484918 
L 359.705546 299.7712 
L 360.539681 305.34153 
L 361.095771 307.625008 
L 361.373816 308.269737 
L 361.651861 308.562966 
L 361.929906 308.498825 
L 362.207951 308.075442 
L 362.485996 307.297837 
L 363.042087 304.730658 
L 363.598177 300.956621 
L 364.432312 293.573409 
L 367.490808 264.137538 
L 368.324943 258.724583 
L 369.159078 254.820903 
L 369.993213 252.187967 
L 370.827349 250.51953 
L 371.383439 249.81704 
L 371.939529 249.388213 
L 372.495619 249.217737 
L 373.051709 249.310631 
L 373.607799 249.686376 
L 374.16389 250.363856 
L 374.71998 251.350899 
L 375.554115 253.373388 
L 376.94434 257.660384 
L 378.056521 260.914656 
L 378.612611 262.115219 
L 379.168701 262.870112 
L 379.446746 263.052497 
L 379.724791 263.094776 
L 380.002836 262.993545 
L 380.558926 262.357067 
L 381.115016 261.17003 
L 381.949152 258.522462 
L 383.339377 252.817044 
L 384.729602 247.356876 
L 385.563738 244.900796 
L 386.397873 243.256009 
L 386.953963 242.600986 
L 387.510053 242.260544 
L 388.066143 242.186365 
L 388.622233 242.332257 
L 389.178324 242.664192 
L 390.012459 243.484246 
L 390.846594 244.737977 
L 391.680729 246.562257 
L 392.514865 249.10247 
L 393.627045 253.574999 
L 395.01727 259.538513 
L 395.57336 261.234596 
L 395.851405 261.768482 
L 396.12945 262.033554 
L 396.407496 261.988978 
L 396.685541 261.597411 
L 396.963586 260.826611 
L 397.519676 258.054674 
L 398.075766 253.575849 
L 398.909901 243.827835 
L 400.022082 226.678745 
L 401.968397 195.390265 
L 402.802532 185.082334 
L 403.636668 177.597849 
L 404.192758 174.136649 
L 404.748848 171.754833 
L 405.304938 170.290942 
L 405.861028 169.59228 
L 406.139073 169.491687 
L 406.417118 169.5426 
L 406.695163 169.738554 
L 407.251253 170.558438 
L 407.807344 171.967716 
L 408.363434 174.020361 
L 408.919524 176.783494 
L 409.753659 182.35157 
L 410.587794 189.517433 
L 413.0902 212.508987 
L 413.64629 215.338174 
L 413.924335 216.126754 
L 414.20238 216.449076 
L 414.480425 216.27928 
L 414.75847 215.602735 
L 415.036516 214.416549 
L 415.592606 210.55855 
L 416.148696 204.897367 
L 416.982831 193.796944 
L 420.041327 148.789396 
L 420.875462 139.84706 
L 421.709597 132.837934 
L 422.543733 127.549901 
L 423.377868 123.749408 
L 423.933958 121.950945 
L 424.490048 120.690069 
L 425.046138 119.926245 
L 425.602228 119.611238 
L 426.158319 119.684141 
L 426.436364 119.842325 
L 426.436364 119.842325 
" clip-path="url(#pa0fb573d61)" style="fill: none; stroke: #ff00ff; stroke-width: 3; stroke-linecap: square"/>
   </g>
   <g id="patch_3">
    <path d="M 7.2 331.2 
L 7.2 7.2 
" style="fill: none; stroke: #000000; stroke-width: 0.8; stroke-linejoin: miter; stroke-linecap: square"/>
   </g>
   <g id="patch_4">
    <path d="M 446.4 331.2 
L 446.4 7.2 
" style="fill: none; stroke: #000000; stroke-width: 0.8; stroke-linejoin: miter; stroke-linecap: square"/>
   </g>
   <g id="patch_5">
    <path d="M 7.2 331.2 
L 446.4 331.2 
" style="fill: none; stroke: #000000; stroke-width: 0.8; stroke-linejoin: miter; stroke-linecap: square"/>
   </g>
   <g id="patch_6">
    <path d="M 7.2 7.2 
L 446.4 7.2 
" style="fill: none; stroke: #000000; stroke-width: 0.8; stroke-linejoin: miter; stroke-linecap: square"/>
   </g>
  </g>
 </g>
 <defs>
  <clipPath id="pa0fb573d61">
   <rect x="7.2" y="7.2" width="439.2" height="324"/>
  </clipPath>
 </defs>
</svg>
