<?xml version="1.0" encoding="utf-8" standalone="no"?>
<!DOCTYPE svg PUBLIC "-//W3C//DTD SVG 1.1//EN"
  "http://www.w3.org/Graphics/SVG/1.1/DTD/svg11.dtd">
<svg xmlns:xlink="http://www.w3.org/1999/xlink" width="453.6pt" height="338.4pt" viewBox="0 0 453.6 338.4" xmlns="http://www.w3.org/2000/svg" version="1.1">
 <metadata>
  <rdf:RDF xmlns:dc="http://purl.org/dc/elements/1.1/" xmlns:cc="http://creativecommons.org/ns#" xmlns:rdf="http://www.w3.org/1999/02/22-rdf-syntax-ns#">
   <cc:Work>
    <dc:type rdf:resource="http://purl.org/dc/dcmitype/StillImage"/>
    <dc:date>2025-05-15T18:06:05.269299</dc:date>
    <dc:format>image/svg+xml</dc:format>
    <dc:creator>
     <cc:Agent>
      <dc:title>Matplotlib v3.10.1, https://matplotlib.org/</dc:title>
     </cc:Agent>
    </dc:creator>
   </cc:Work>
  </rdf:RDF>
 </metadata>
 <defs>
  <style type="text/css">*{stroke-linejoin: round; stroke-linecap: butt}</style>
 </defs>
 <g id="figure_1">
  <g id="patch_1">
   <path d="M 0 338.4 
L 453.6 338.4 
L 453.6 0 
L 0 0 
z
" style="fill: #ffffff"/>
  </g>
  <g id="axes_1">
   <g id="patch_2">
    <path d="M 7.2 331.2 
L 446.4 331.2 
L 446.4 7.2 
L 7.2 7.2 
z
" style="fill: #ffffff"/>
   </g>
   <g id="matplotlib.axis_1"/>
   <g id="matplotlib.axis_2"/>
   <g id="line2d_1">
    <path d="M 27.163636 276.292215 
L 29.109952 276.543536 
L 31.612358 276.840289 
L 33.836718 276.859085 
L 36.617169 276.664705 
L 38.285439 276.321724 
L 41.900025 275.404673 
L 43.012206 275.458012 
L 44.402431 275.801199 
L 46.626792 276.414717 
L 47.738972 276.499041 
L 48.851152 276.373012 
L 49.963332 276.015518 
L 50.797468 275.553252 
L 51.631603 274.856019 
L 52.465738 273.839479 
L 53.299873 272.419613 
L 54.134009 270.53745 
L 55.246189 267.304709 
L 56.636414 262.393206 
L 58.58273 255.509693 
L 59.416865 253.223301 
L 60.251 251.599419 
L 60.80709 250.912483 
L 61.363181 250.524019 
L 61.919271 250.39089 
L 62.753406 250.526738 
L 64.143631 250.951908 
L 64.699721 250.925825 
L 65.255812 250.654472 
L 65.811902 250.058763 
L 66.367992 249.071691 
L 66.924082 247.644648 
L 67.758217 244.637959 
L 68.592352 240.662543 
L 69.982578 232.653459 
L 71.650848 223.320025 
L 72.484984 219.655243 
L 73.319119 216.765252 
L 76.09957 208.239217 
L 76.933705 204.17703 
L 77.76784 198.744395 
L 78.601975 191.784411 
L 79.714155 180.242411 
L 81.660471 156.496866 
L 83.050696 140.439336 
L 84.162877 129.682207 
L 85.553102 118.480811 
L 88.333553 98.504617 
L 89.445733 91.686746 
L 90.279868 87.724693 
L 90.835958 85.798552 
L 91.392049 84.505778 
L 91.948139 83.861193 
L 92.226184 83.776663 
L 92.504229 83.843028 
L 93.060319 84.389338 
L 93.616409 85.39526 
L 94.72859 88.152036 
L 95.562725 90.086151 
L 96.118815 90.933059 
L 96.39686 91.164031 
L 96.674905 91.249832 
L 96.95295 91.184462 
L 97.230995 90.968312 
L 97.787085 90.11542 
L 98.621221 88.064931 
L 99.733401 85.151309 
L 100.289491 84.267762 
L 100.567536 84.08905 
L 100.845581 84.121417 
L 101.123626 84.38505 
L 101.401671 84.893775 
L 101.957761 86.670865 
L 102.513852 89.437082 
L 103.347987 95.171316 
L 104.738212 107.16648 
L 106.406483 121.216862 
L 107.518663 128.733372 
L 108.908888 136.287825 
L 113.635655 159.378243 
L 114.46979 161.90037 
L 115.02588 162.926405 
L 115.58197 163.427043 
L 116.13806 163.469063 
L 116.69415 163.178542 
L 118.084376 162.228337 
L 118.362421 162.212047 
L 118.640466 162.313918 
L 118.918511 162.556785 
L 119.474601 163.542855 
L 120.030691 165.289632 
L 120.586781 167.852002 
L 121.420917 173.175061 
L 122.533097 182.454654 
L 125.591593 209.799688 
L 126.703773 217.384975 
L 127.815953 223.53231 
L 128.928134 228.58254 
L 130.040314 232.740361 
L 131.152494 236.076662 
L 132.264675 238.723647 
L 134.76708 243.734875 
L 138.659711 251.628765 
L 139.493847 252.594343 
L 140.327982 253.154941 
L 141.440162 253.521019 
L 142.274297 253.843324 
L 142.830387 254.244082 
L 143.386478 254.879226 
L 143.942568 255.794667 
L 144.776703 257.71319 
L 145.888883 261.097859 
L 148.391289 269.171228 
L 149.225424 271.185167 
L 150.059559 272.731816 
L 150.893695 273.877745 
L 152.005875 274.960097 
L 153.118055 275.72135 
L 154.230236 276.261671 
L 155.342416 276.59443 
L 156.454596 276.714622 
L 157.566776 276.628356 
L 158.678957 276.336518 
L 159.791137 275.815468 
L 160.903317 275.020732 
L 162.015498 273.906868 
L 163.127678 272.441779 
L 164.517903 270.135721 
L 167.298354 265.260265 
L 168.132489 264.323846 
L 168.966624 263.758304 
L 170.634895 262.971459 
L 171.190985 262.422703 
L 171.747075 261.533801 
L 172.303165 260.215796 
L 172.859256 258.421849 
L 173.693391 254.860766 
L 174.805571 248.885274 
L 177.307977 234.882257 
L 178.976247 227.185013 
L 180.366473 220.467578 
L 181.478653 213.735366 
L 182.590833 205.243813 
L 183.703013 194.772053 
L 184.815194 182.178205 
L 186.205419 163.43478 
L 190.09805 107.163513 
L 191.21023 94.981908 
L 192.600456 82.362443 
L 194.546771 67.077385 
L 197.327222 45.491415 
L 199.551583 27.586501 
L 200.107673 24.346812 
L 200.663763 22.337005 
L 200.941808 21.927273 
L 201.219853 21.983022 
L 201.497898 22.551345 
L 201.775943 23.673968 
L 202.332033 27.715023 
L 202.888124 34.288078 
L 203.444214 43.423348 
L 204.278349 61.579274 
L 205.390529 92.110567 
L 208.17098 172.218244 
L 209.28316 195.780968 
L 210.117296 208.909953 
L 210.951431 218.50141 
L 211.785566 225.131136 
L 212.341656 228.188282 
L 212.897746 230.310814 
L 213.453836 231.586333 
L 213.731881 231.92326 
L 214.009927 232.064566 
L 214.287972 232.01238 
L 214.566017 231.768608 
L 215.122107 230.716719 
L 215.678197 228.944888 
L 216.512332 225.107 
L 217.624513 218.520761 
L 219.292783 208.52315 
L 221.795189 195.368789 
L 222.351279 190.694906 
L 222.907369 184.383591 
L 223.463459 176.083758 
L 224.297594 159.695383 
L 225.409775 132.188754 
L 226.8 98.015394 
L 227.35609 87.908493 
L 227.91218 81.302011 
L 228.190225 79.511632 
L 228.46827 78.789088 
L 228.746316 79.14661 
L 229.024361 80.570743 
L 229.580451 86.444784 
L 230.136541 95.858541 
L 230.970676 114.825454 
L 234.029172 191.521611 
L 234.863307 206.867979 
L 235.697442 218.792975 
L 236.531578 227.195596 
L 237.087668 230.772632 
L 237.643758 232.675871 
L 237.921803 232.989351 
L 238.199848 232.874745 
L 238.477893 232.332691 
L 238.755938 231.366787 
L 239.312028 228.1965 
L 239.868119 223.474009 
L 240.702254 213.906198 
L 242.092479 193.863191 
L 243.482704 173.981172 
L 244.31684 164.617099 
L 244.87293 159.981542 
L 245.42902 156.726574 
L 245.98511 154.781502 
L 246.263155 154.242847 
L 246.5412 153.948821 
L 246.819245 153.858633 
L 247.375336 154.105438 
L 248.209471 154.788652 
L 248.487516 154.894681 
L 248.765561 154.857821 
L 249.043606 154.633095 
L 249.321651 154.179565 
L 249.877741 152.444878 
L 250.433831 149.421249 
L 250.989921 144.960988 
L 251.824057 135.479366 
L 252.658192 122.866538 
L 253.770372 102.432591 
L 255.716688 65.706929 
L 256.550823 54.029207 
L 257.106913 48.762721 
L 257.663003 45.828424 
L 257.941048 45.265922 
L 258.219093 45.298224 
L 258.497139 45.90374 
L 258.775184 47.049599 
L 259.331274 50.780191 
L 260.165409 59.100725 
L 263.779995 100.357936 
L 265.17022 115.195677 
L 266.282401 129.74642 
L 267.672626 151.92544 
L 269.896987 188.776298 
L 271.009167 203.357956 
L 271.843302 211.752656 
L 272.677437 218.072853 
L 273.511573 222.646619 
L 274.345708 225.860565 
L 275.179843 228.062344 
L 276.013978 229.546377 
L 277.126159 230.91894 
L 277.960294 231.959569 
L 278.516384 232.897537 
L 279.072474 234.183324 
L 279.628564 235.926184 
L 280.462699 239.533471 
L 281.296835 244.300092 
L 282.965105 255.781933 
L 284.077285 262.95835 
L 284.911421 267.193545 
L 285.745556 270.179306 
L 286.301646 271.486824 
L 286.857736 272.316619 
L 287.413826 272.758084 
L 287.969916 272.913713 
L 288.804052 272.837701 
L 290.194277 272.623011 
L 291.028412 272.76562 
L 291.862547 273.196643 
L 292.974728 274.118108 
L 294.921043 275.809595 
L 295.755179 276.272283 
L 296.589314 276.521751 
L 297.701494 276.572258 
L 299.091719 276.334402 
L 300.75999 275.797459 
L 301.87217 275.256611 
L 302.706305 274.639386 
L 303.540441 273.695334 
L 304.374576 272.275438 
L 305.208711 270.275212 
L 306.042846 267.70064 
L 307.711117 261.56096 
L 309.101342 256.753784 
L 310.213522 253.635326 
L 312.715928 247.121625 
L 316.608559 235.726034 
L 317.720739 232.900945 
L 318.27683 231.081382 
L 318.83292 228.704736 
L 319.38901 225.545223 
L 319.9451 221.393435 
L 320.779235 212.939956 
L 321.61337 201.529853 
L 322.447506 187.169971 
L 323.559686 164.178252 
L 327.174272 84.531036 
L 328.286452 66.260773 
L 329.120587 55.530892 
L 329.954723 47.335766 
L 330.788858 41.595026 
L 331.344948 39.079266 
L 331.901038 37.5692 
L 332.179083 37.177486 
L 332.457128 37.019906 
L 332.735173 37.090021 
L 333.013219 37.381667 
L 333.569309 38.606886 
L 334.125399 40.658843 
L 334.681489 43.522602 
L 335.515624 49.377712 
L 336.349759 57.242823 
L 337.183895 67.290942 
L 338.296075 84.078027 
L 339.964345 114.170156 
L 341.354571 138.310383 
L 342.188706 149.639617 
L 342.744796 155.204345 
L 343.300886 158.976728 
L 343.856976 160.938604 
L 344.135022 161.275702 
L 344.413067 161.220809 
L 344.691112 160.813049 
L 345.247202 159.133093 
L 346.081337 155.336422 
L 346.915472 151.589907 
L 347.471562 149.980115 
L 347.749607 149.6061 
L 348.027653 149.575478 
L 348.305698 149.919082 
L 348.583743 150.65807 
L 349.139833 153.355534 
L 349.695923 157.632632 
L 350.530058 166.56487 
L 351.920284 185.14226 
L 353.310509 202.604456 
L 354.144644 210.356377 
L 354.700734 214.04832 
L 355.256825 216.537338 
L 355.812915 217.881109 
L 356.09096 218.152246 
L 356.369005 218.17315 
L 356.64705 217.955948 
L 356.925095 217.511337 
L 357.481185 215.974571 
L 358.037275 213.616146 
L 358.87141 208.624075 
L 359.705546 202.058847 
L 361.095771 188.769417 
L 364.154267 156.77051 
L 364.988402 144.840138 
L 365.822537 129.471765 
L 366.934718 104.255109 
L 368.324943 73.526092 
L 368.881033 65.152483 
L 369.437123 60.671839 
L 369.715168 60.125578 
L 369.993213 60.778545 
L 370.271259 62.644794 
L 370.827349 69.916864 
L 371.383439 81.45204 
L 372.217574 104.750039 
L 374.998025 189.195447 
L 375.83216 206.522752 
L 376.666295 218.970113 
L 377.50043 227.286256 
L 378.056521 231.035918 
L 378.612611 233.694977 
L 379.168701 235.508714 
L 379.724791 236.654328 
L 380.280881 237.232692 
L 380.558926 237.318758 
L 380.836971 237.264537 
L 381.115016 237.060535 
L 381.671107 236.1446 
L 382.227197 234.41964 
L 382.783287 231.697221 
L 383.339377 227.781191 
L 383.895467 222.498003 
L 384.729602 211.762024 
L 385.563738 197.615756 
L 386.675918 174.201985 
L 390.290504 92.410268 
L 391.124639 79.256282 
L 391.958774 69.484711 
L 392.79291 62.853297 
L 393.349 59.922799 
L 393.90509 57.979162 
L 394.46118 56.863257 
L 394.739225 56.576339 
L 395.01727 56.455383 
L 395.295315 56.493261 
L 395.57336 56.686143 
L 396.12945 57.536296 
L 396.685541 59.027936 
L 397.241631 61.208953 
L 397.797721 64.134902 
L 398.631856 70.01134 
L 399.465991 77.685869 
L 400.578172 90.399076 
L 402.246442 112.821077 
L 404.748848 146.637341 
L 406.695163 169.597597 
L 408.641479 190.136374 
L 410.031704 203.083382 
L 411.143885 211.613885 
L 411.97802 216.610384 
L 412.812155 220.361925 
L 413.64629 223.057036 
L 414.75847 225.700768 
L 415.870651 228.411794 
L 416.704786 231.221127 
L 417.538921 235.071156 
L 418.373056 240.012679 
L 419.763282 249.894386 
L 421.431552 261.382715 
L 422.265688 265.761833 
L 423.099823 268.898197 
L 423.655913 270.323876 
L 424.212003 271.296389 
L 424.768093 271.912693 
L 425.602228 272.401316 
L 426.436364 272.659048 
L 426.436364 272.659048 
" clip-path="url(#pe9169ec36f)" style="fill: none; stroke-dasharray: 11.1,4.8; stroke-dashoffset: 0; stroke: #000000; stroke-width: 3"/>
   </g>
   <g id="line2d_2">
    <path d="M 27.163636 316.472727 
L 29.109952 315.451649 
L 30.778222 314.347023 
L 34.114763 311.84602 
L 34.392808 311.508816 
L 34.948898 309.272451 
L 36.339124 303.414487 
L 37.729349 298.619074 
L 39.119575 294.720691 
L 40.5098 291.508698 
L 42.17807 288.277553 
L 46.904837 279.647722 
L 48.017017 276.814012 
L 49.129197 273.463039 
L 50.241378 269.479903 
L 50.797468 265.813906 
L 53.577918 246.10896 
L 55.802279 231.86043 
L 58.02664 219.065824 
L 60.251 207.675516 
L 61.641226 201.414465 
L 63.309496 195.353242 
L 64.977767 190.092756 
L 66.924082 184.325013 
L 68.592352 178.23629 
L 70.260623 172.946078 
L 71.650848 169.197338 
L 73.041074 165.962459 
L 74.431299 163.218174 
L 75.821524 160.946023 
L 77.21175 159.128462 
L 80.826336 155.223806 
L 82.216561 154.188712 
L 83.606787 153.431894 
L 84.440922 153.161511 
L 87.221372 152.373402 
L 89.723778 151.444622 
L 94.450544 149.763949 
L 96.39686 149.248245 
L 99.177311 148.767516 
L 101.679716 148.578027 
L 103.069942 148.766098 
L 105.572347 149.316093 
L 106.962573 149.82715 
L 108.630843 150.660638 
L 110.299114 151.732485 
L 111.967384 153.077405 
L 116.972195 157.767448 
L 118.640466 159.785978 
L 120.586781 162.51055 
L 124.201367 167.46628 
L 130.040314 175.234568 
L 130.874449 176.622878 
L 135.32317 184.775983 
L 138.381666 190.800641 
L 138.659711 191.537386 
L 139.215801 194.152742 
L 140.327982 200.586056 
L 142.274297 213.947207 
L 145.054748 234.892961 
L 148.669334 261.868232 
L 150.337604 272.885716 
L 151.72783 280.728105 
L 152.84001 285.873349 
L 153.674145 288.949707 
L 154.508281 291.262035 
L 154.786326 291.852938 
L 155.064371 292.106697 
L 155.620461 292.103053 
L 156.176551 291.943994 
L 157.010686 291.425774 
L 157.844821 290.574982 
L 158.678957 289.384274 
L 159.513092 287.837654 
L 160.625272 285.222209 
L 161.737453 281.95917 
L 162.849633 278.02363 
L 163.961813 273.306879 
L 165.352038 266.238404 
L 167.020309 256.387219 
L 168.688579 245.030868 
L 170.35685 232.16658 
L 171.46903 223.675031 
L 174.249481 204.603549 
L 175.361661 197.955699 
L 177.586022 186.076225 
L 179.532337 176.786376 
L 181.478653 168.623129 
L 183.146923 162.550988 
L 184.537149 158.256786 
L 185.649329 155.386521 
L 186.761509 153.057936 
L 187.87369 151.311012 
L 188.42978 150.668318 
L 188.707825 150.472241 
L 193.434591 149.729837 
L 196.493087 149.451317 
L 197.883312 149.489636 
L 201.775943 149.927953 
L 205.946619 150.17448 
L 207.892935 150.334799 
L 220.683008 151.684758 
L 224.575639 151.803187 
L 234.307217 151.466912 
L 241.258344 151.221216 
L 253.770372 150.99419 
L 257.941048 151.0992 
L 260.999544 150.992478 
L 261.555634 151.001609 
L 263.223905 151.308974 
L 264.892175 151.815955 
L 266.560446 152.528861 
L 268.228716 153.453662 
L 269.062851 154.032144 
L 270.731122 155.71991 
L 272.399392 157.764921 
L 274.067663 160.175899 
L 275.735933 162.961618 
L 277.404204 166.138057 
L 278.794429 169.085154 
L 279.072474 170.036256 
L 279.628564 175.723025 
L 282.68706 210.515534 
L 284.911421 233.478725 
L 286.579691 248.731058 
L 288.247962 261.878366 
L 289.638187 271.202759 
L 290.750367 277.46812 
L 291.862547 282.579325 
L 292.696683 285.61264 
L 293.530818 287.90971 
L 294.364953 289.442689 
L 294.921043 290.024905 
L 295.755179 290.041753 
L 296.867359 289.84804 
L 297.979539 289.40373 
L 298.813674 288.853792 
L 299.64781 288.08362 
L 300.481945 287.062052 
L 301.31608 285.751048 
L 302.42826 283.498374 
L 303.540441 280.598931 
L 304.652621 276.824093 
L 305.764801 272.105246 
L 306.876982 266.362328 
L 307.989162 259.529244 
L 309.379387 249.358367 
L 310.769613 237.203349 
L 312.993973 213.85552 
L 314.106153 204.099862 
L 315.774424 191.904479 
L 317.442694 181.331868 
L 319.110965 172.222459 
L 320.779235 164.393562 
L 322.447506 157.659993 
L 324.115776 151.841065 
L 325.784047 146.751008 
L 327.730362 141.491958 
L 328.008407 140.78484 
L 328.286452 140.423242 
L 330.510813 141.155797 
L 333.291264 142.313902 
L 336.90585 144.096193 
L 338.296075 144.934067 
L 341.354571 146.738518 
L 343.856976 147.982734 
L 346.081337 148.872656 
L 347.471562 149.109237 
L 354.144644 149.891102 
L 359.149456 150.724443 
L 366.934718 151.995416 
L 372.495619 152.469166 
L 383.061332 153.265134 
L 389.456369 154.715635 
L 393.070955 155.756011 
L 395.851405 156.775451 
L 398.353811 157.909602 
L 400.578172 159.133778 
L 405.861028 165.934951 
L 408.085389 169.158938 
L 409.753659 171.935509 
L 411.42193 175.124291 
L 413.0902 178.820853 
L 414.75847 183.116442 
L 416.426741 188.102712 
L 418.095011 193.885245 
L 418.373056 195.350209 
L 418.929147 200.870707 
L 420.875462 220.742331 
L 422.821778 238.476214 
L 424.490048 251.822731 
L 426.158319 263.553374 
L 426.436364 265.35833 
L 426.436364 265.35833 
" clip-path="url(#pe9169ec36f)" style="fill: none; stroke: #ff00ff; stroke-width: 3; stroke-linecap: square"/>
   </g>
   <g id="patch_3">
    <path d="M 7.2 331.2 
L 7.2 7.2 
" style="fill: none; stroke: #000000; stroke-width: 0.8; stroke-linejoin: miter; stroke-linecap: square"/>
   </g>
   <g id="patch_4">
    <path d="M 446.4 331.2 
L 446.4 7.2 
" style="fill: none; stroke: #000000; stroke-width: 0.8; stroke-linejoin: miter; stroke-linecap: square"/>
   </g>
   <g id="patch_5">
    <path d="M 7.2 331.2 
L 446.4 331.2 
" style="fill: none; stroke: #000000; stroke-width: 0.8; stroke-linejoin: miter; stroke-linecap: square"/>
   </g>
   <g id="patch_6">
    <path d="M 7.2 7.2 
L 446.4 7.2 
" style="fill: none; stroke: #000000; stroke-width: 0.8; stroke-linejoin: miter; stroke-linecap: square"/>
   </g>
  </g>
 </g>
 <defs>
  <clipPath id="pe9169ec36f">
   <rect x="7.2" y="7.2" width="439.2" height="324"/>
  </clipPath>
 </defs>
</svg>
