<?xml version="1.0" encoding="utf-8" standalone="no"?>
<!DOCTYPE svg PUBLIC "-//W3C//DTD SVG 1.1//EN"
  "http://www.w3.org/Graphics/SVG/1.1/DTD/svg11.dtd">
<svg xmlns:xlink="http://www.w3.org/1999/xlink" width="453.6pt" height="338.4pt" viewBox="0 0 453.6 338.4" xmlns="http://www.w3.org/2000/svg" version="1.1">
 <metadata>
  <rdf:RDF xmlns:dc="http://purl.org/dc/elements/1.1/" xmlns:cc="http://creativecommons.org/ns#" xmlns:rdf="http://www.w3.org/1999/02/22-rdf-syntax-ns#">
   <cc:Work>
    <dc:type rdf:resource="http://purl.org/dc/dcmitype/StillImage"/>
    <dc:date>2025-05-15T18:14:20.908358</dc:date>
    <dc:format>image/svg+xml</dc:format>
    <dc:creator>
     <cc:Agent>
      <dc:title>Matplotlib v3.10.1, https://matplotlib.org/</dc:title>
     </cc:Agent>
    </dc:creator>
   </cc:Work>
  </rdf:RDF>
 </metadata>
 <defs>
  <style type="text/css">*{stroke-linejoin: round; stroke-linecap: butt}</style>
 </defs>
 <g id="figure_1">
  <g id="patch_1">
   <path d="M 0 338.4 
L 453.6 338.4 
L 453.6 0 
L 0 0 
z
" style="fill: #ffffff"/>
  </g>
  <g id="axes_1">
   <g id="patch_2">
    <path d="M 7.2 331.2 
L 446.4 331.2 
L 446.4 7.2 
L 7.2 7.2 
z
" style="fill: #ffffff"/>
   </g>
   <g id="matplotlib.axis_1"/>
   <g id="matplotlib.axis_2"/>
   <g id="line2d_1">
    <path d="M 27.163636 277.085268 
L 27.997772 273.076858 
L 28.831907 267.731624 
L 29.944087 258.691408 
L 31.612358 242.600546 
L 34.670853 211.066433 
L 36.061079 193.788385 
L 38.285439 164.803855 
L 38.84153 159.757956 
L 39.39762 156.544419 
L 39.675665 155.725686 
L 39.95371 155.46192 
L 40.231755 155.757841 
L 40.5098 156.603737 
L 41.06589 159.835329 
L 41.62198 164.804337 
L 42.734161 177.705954 
L 43.846341 190.073879 
L 44.402431 194.48108 
L 44.958521 197.094063 
L 45.236566 197.647689 
L 45.514611 197.683415 
L 45.792656 197.207168 
L 46.070701 196.239906 
L 46.626792 192.990339 
L 47.460927 185.79007 
L 48.573107 175.674953 
L 49.129197 172.269831 
L 49.407242 171.316039 
L 49.685287 170.960553 
L 49.963332 171.257673 
L 50.241378 172.243076 
L 50.519423 173.932124 
L 51.075513 179.3778 
L 51.631603 187.309444 
L 52.465738 202.586266 
L 54.412054 240.606016 
L 55.246189 252.897516 
L 56.080324 261.642351 
L 56.636414 265.706301 
L 57.192504 268.656308 
L 57.748595 270.785915 
L 58.58273 273.027478 
L 59.69491 275.229334 
L 61.641226 278.554885 
L 62.753406 280.157618 
L 63.865586 281.375533 
L 64.699721 282.013745 
L 65.811902 282.544931 
L 66.924082 282.810423 
L 68.870398 282.974048 
L 71.928893 283.241784 
L 74.709344 283.494724 
L 76.377615 283.394163 
L 78.88002 282.937808 
L 81.382426 282.554109 
L 84.440922 282.165974 
L 85.275057 281.800913 
L 85.831147 281.375732 
L 86.387237 280.746255 
L 86.943327 279.867378 
L 87.777463 278.025993 
L 88.611598 275.591585 
L 91.392049 266.637079 
L 93.338364 261.82998 
L 93.894454 259.513098 
L 94.450544 255.925602 
L 95.006635 250.484795 
L 95.562725 242.641191 
L 96.118815 231.972562 
L 96.95295 210.337677 
L 98.06513 172.66967 
L 99.733401 113.629369 
L 100.289491 98.953819 
L 100.845581 88.966061 
L 101.123626 85.990326 
L 101.401671 84.432742 
L 101.679716 84.302786 
L 101.957761 85.572816 
L 102.235807 88.17983 
L 102.791897 96.991984 
L 103.626032 117.007415 
L 105.850393 177.625245 
L 106.684528 193.047482 
L 107.240618 199.896529 
L 107.796708 203.97474 
L 108.074753 204.988646 
L 108.352798 205.323618 
L 108.630843 204.977537 
L 108.908888 203.943209 
L 109.186933 202.209129 
L 109.743024 196.585228 
L 110.299114 188.010839 
L 111.133249 169.698124 
L 112.245429 137.220287 
L 113.635655 95.116506 
L 114.191745 82.449565 
L 114.747835 74.264213 
L 115.02588 72.159373 
L 115.303925 71.477071 
L 115.58197 72.242715 
L 115.860015 74.441796 
L 116.416105 82.88943 
L 116.972195 95.973128 
L 118.084376 130.673983 
L 119.474601 174.832357 
L 120.308736 195.151 
L 121.142872 209.124241 
L 121.698962 215.105395 
L 122.255052 218.821644 
L 122.811142 220.683837 
L 123.089187 221.041468 
L 123.367232 221.073598 
L 123.645277 220.816209 
L 123.923322 220.299409 
L 124.479413 218.58027 
L 125.035503 216.058637 
L 125.869638 210.980978 
L 126.981818 202.251343 
L 130.040314 176.195775 
L 130.596404 173.078814 
L 131.152494 170.969167 
L 131.430539 170.335443 
L 131.708584 169.999 
L 131.98663 169.968007 
L 132.264675 170.246899 
L 132.54272 170.836381 
L 133.09881 172.931236 
L 133.6549 176.18312 
L 134.489035 182.923356 
L 135.879261 197.169928 
L 137.269486 210.906534 
L 138.103621 216.876906 
L 138.659711 219.522687 
L 139.215801 221.103529 
L 139.771892 221.785318 
L 140.327982 221.860788 
L 141.162117 221.674913 
L 141.440162 221.736047 
L 141.718207 221.93706 
L 141.996252 222.317275 
L 142.552342 223.734869 
L 143.108433 226.140011 
L 143.664523 229.536322 
L 144.498658 236.168954 
L 147.557154 262.691046 
L 148.391289 267.6378 
L 149.225424 271.400028 
L 150.059559 274.233819 
L 150.893695 276.40352 
L 152.005875 278.594801 
L 153.118055 280.186707 
L 153.95219 281.016001 
L 154.786326 281.481727 
L 155.342416 281.525403 
L 155.898506 281.268083 
L 156.454596 280.590745 
L 157.010686 279.336424 
L 157.566776 277.323422 
L 158.122867 274.368926 
L 158.678957 270.323441 
L 159.513092 262.078863 
L 160.625272 247.636059 
L 162.293543 224.646978 
L 163.127678 216.107759 
L 163.683768 212.223932 
L 164.239858 209.721484 
L 164.795948 208.243391 
L 165.908129 205.955488 
L 166.464219 203.790743 
L 167.020309 200.205549 
L 167.576399 194.943524 
L 168.410534 184.11254 
L 170.91294 147.576642 
L 171.46903 142.624094 
L 172.02512 139.609876 
L 172.303165 138.840328 
L 172.58121 138.550388 
L 172.859256 138.723793 
L 173.137301 139.340895 
L 173.693391 141.823416 
L 174.249481 145.845627 
L 174.805571 151.293206 
L 175.639706 161.96895 
L 176.751887 180.40218 
L 178.420157 213.548255 
L 179.810382 239.964532 
L 180.644518 252.861854 
L 181.478653 262.880111 
L 182.312788 270.105952 
L 183.146923 274.980354 
L 183.703013 277.206793 
L 184.259104 278.809387 
L 184.815194 279.93638 
L 185.371284 280.711544 
L 186.205419 281.421908 
L 187.039554 281.807969 
L 188.98587 282.333975 
L 194.268726 283.666791 
L 196.493087 283.855315 
L 198.717447 283.825012 
L 200.385718 283.596438 
L 202.053988 283.129559 
L 204.000304 282.322752 
L 205.390529 281.567623 
L 206.224664 280.939152 
L 207.0588 280.039921 
L 207.892935 278.703192 
L 208.449025 277.459686 
L 209.005115 275.812873 
L 209.561205 273.594737 
L 210.117296 270.566008 
L 210.673386 266.413717 
L 211.229476 260.766106 
L 211.785566 253.234095 
L 212.619701 237.701137 
L 213.453836 216.767132 
L 214.566017 182.268142 
L 216.234287 130.454371 
L 217.068422 112.121117 
L 217.624513 104.267179 
L 218.180603 99.958105 
L 218.458648 99.016115 
L 218.736693 98.778337 
L 219.014738 99.149011 
L 219.292783 100.024862 
L 219.848873 102.878786 
L 220.961053 110.639571 
L 222.351279 121.617662 
L 223.185414 130.225454 
L 224.019549 142.000047 
L 224.853684 157.4698 
L 226.24391 188.996632 
L 227.634135 220.07504 
L 228.46827 235.280298 
L 229.302406 247.160911 
L 230.136541 256.035698 
L 230.970676 262.625262 
L 231.804811 267.669397 
L 232.916992 272.855645 
L 234.029172 276.759614 
L 234.863307 278.935681 
L 235.697442 280.518312 
L 236.531578 281.599205 
L 237.365713 282.300399 
L 238.199848 282.74051 
L 239.312028 283.075158 
L 240.702254 283.245917 
L 242.092479 283.194755 
L 243.482704 282.895668 
L 244.594885 282.447483 
L 245.98511 281.650667 
L 248.487516 279.92369 
L 249.599696 278.952884 
L 250.433831 277.941118 
L 251.267967 276.546589 
L 252.102102 274.710016 
L 253.214282 271.688307 
L 255.160598 266.298256 
L 255.994733 264.637167 
L 256.550823 263.873439 
L 257.106913 263.388508 
L 257.663003 263.154852 
L 258.219093 263.12522 
L 259.053229 263.340368 
L 260.443454 264.010878 
L 262.111724 265.056731 
L 263.50195 266.2333 
L 264.892175 267.410879 
L 265.72631 267.835425 
L 266.282401 267.931773 
L 267.116536 267.81144 
L 269.062851 267.276244 
L 269.618942 267.400999 
L 270.175032 267.758488 
L 270.731122 268.364654 
L 271.565257 269.696041 
L 272.955482 272.574018 
L 274.345708 275.325141 
L 275.179843 276.562244 
L 276.013978 277.400885 
L 276.848113 277.867605 
L 277.682249 278.053039 
L 280.740744 278.388469 
L 281.57488 278.806857 
L 282.68706 279.612673 
L 285.189466 281.550303 
L 286.301646 282.106728 
L 287.691871 282.49978 
L 290.194277 282.861651 
L 293.530818 283.203939 
L 295.477133 283.163587 
L 300.481945 282.669153 
L 301.594125 282.413357 
L 302.42826 281.980986 
L 302.98435 281.500676 
L 303.540441 280.813599 
L 304.374576 279.303131 
L 305.208711 277.121724 
L 306.042846 274.214531 
L 306.876982 270.581901 
L 307.989162 264.678153 
L 309.379387 255.772501 
L 311.047658 243.258228 
L 312.715928 229.051863 
L 313.828108 218.098357 
L 314.940289 205.091217 
L 316.330514 185.829912 
L 317.720739 166.719744 
L 318.554875 158.327324 
L 319.110965 154.993693 
L 319.38901 154.116569 
L 319.667055 153.783018 
L 319.9451 153.985292 
L 320.223145 154.6986 
L 320.779235 157.475522 
L 321.61337 163.959542 
L 322.725551 173.102454 
L 323.281641 176.263372 
L 323.559686 177.259094 
L 323.837731 177.820969 
L 324.115776 177.941507 
L 324.393821 177.634316 
L 324.671866 176.93386 
L 325.227956 174.586077 
L 326.618182 167.333868 
L 326.896227 166.46668 
L 327.174272 166.022464 
L 327.452317 166.078964 
L 327.730362 166.698056 
L 328.008407 167.922855 
L 328.564497 172.263862 
L 329.120587 179.054048 
L 329.954723 193.027481 
L 333.013219 250.740526 
L 333.847354 260.999178 
L 334.681489 268.147341 
L 335.237579 271.456833 
L 335.793669 273.84368 
L 336.349759 275.511186 
L 336.90585 276.637588 
L 337.46194 277.369137 
L 338.01803 277.823103 
L 338.852165 278.186694 
L 341.632616 278.994749 
L 343.022841 279.795244 
L 345.247202 281.129345 
L 346.637427 281.693301 
L 349.695923 282.556622 
L 353.032464 283.408947 
L 354.700734 283.552348 
L 356.369005 283.448394 
L 358.037275 283.124732 
L 359.427501 282.651601 
L 360.817726 281.948771 
L 365.266447 279.406678 
L 367.212763 278.762658 
L 369.159078 278.364115 
L 371.383439 277.994836 
L 372.217574 277.583286 
L 372.773664 277.108284 
L 373.329754 276.419727 
L 374.16389 274.908931 
L 374.998025 272.7682 
L 375.83216 270.007767 
L 376.94434 265.516166 
L 378.890656 256.373071 
L 381.115016 246.051315 
L 382.227197 241.780022 
L 383.339377 238.423507 
L 385.007648 233.995612 
L 385.563738 231.913442 
L 386.119828 229.047686 
L 386.675918 225.103687 
L 387.232008 219.856813 
L 388.066143 209.370193 
L 389.178324 191.362062 
L 390.846594 163.38568 
L 391.680729 153.274134 
L 392.236819 148.897252 
L 392.79291 146.477559 
L 393.070955 145.943563 
L 393.349 145.802091 
L 393.627045 145.995961 
L 394.183135 147.127075 
L 395.851405 151.815449 
L 396.407496 152.635097 
L 396.963586 152.982872 
L 398.075766 153.359057 
L 398.353811 153.670994 
L 398.631856 154.170474 
L 399.187946 155.891442 
L 399.744036 158.744674 
L 400.300127 162.766625 
L 401.134262 170.568253 
L 402.524487 184.438435 
L 403.080577 188.38865 
L 403.358622 189.65685 
L 403.636668 190.334704 
L 403.914713 190.337972 
L 404.192758 189.588487 
L 404.470803 188.016141 
L 405.026893 182.176329 
L 405.582983 172.509042 
L 406.139073 158.993091 
L 406.973208 132.361585 
L 409.475614 42.243691 
L 410.031704 29.857731 
L 410.587794 23.057102 
L 410.865839 21.927273 
L 411.143885 22.329669 
L 411.42193 24.229888 
L 411.97802 32.205872 
L 412.53411 44.909306 
L 413.368245 69.86358 
L 415.314561 130.380719 
L 416.148696 149.135833 
L 416.982831 162.34998 
L 417.816966 171.40787 
L 420.597417 196.854036 
L 421.987642 214.150794 
L 423.655913 234.599531 
L 424.768093 245.724214 
L 425.880273 254.818962 
L 426.436364 258.806273 
L 426.436364 258.806273 
" clip-path="url(#pe771bd6c05)" style="fill: none; stroke-dasharray: 11.1,4.8; stroke-dashoffset: 0; stroke: #000000; stroke-width: 3"/>
   </g>
   <g id="line2d_2">
    <path d="M 27.163636 267.888201 
L 28.275817 252.95756 
L 30.778222 217.062083 
L 31.612358 207.832913 
L 32.446493 200.766862 
L 33.280628 195.651079 
L 34.114763 191.922565 
L 37.173259 179.960979 
L 40.5098 164.150607 
L 41.343935 161.332669 
L 42.456115 158.420811 
L 44.680476 153.055375 
L 45.792656 149.60301 
L 47.460927 144.226328 
L 48.017017 142.90982 
L 48.573107 142.120746 
L 48.851152 141.981028 
L 49.129197 142.040816 
L 49.407242 142.321067 
L 49.685287 142.841061 
L 50.241378 144.668764 
L 50.797468 147.637715 
L 51.353558 151.817637 
L 52.187693 160.387268 
L 53.021828 171.553953 
L 54.134009 189.725165 
L 58.58273 268.18495 
L 59.416865 278.602712 
L 60.251 286.576385 
L 60.80709 290.470112 
L 61.363181 293.249938 
L 61.919271 294.994404 
L 62.475361 295.831173 
L 62.753406 295.960529 
L 63.031451 295.928776 
L 63.587541 295.483485 
L 64.421676 294.246451 
L 65.533857 292.490202 
L 66.089947 291.863151 
L 66.646037 291.492799 
L 67.202127 291.386348 
L 67.758217 291.511274 
L 68.592352 291.993502 
L 69.982578 292.927874 
L 70.816713 293.179121 
L 71.372803 293.112135 
L 71.928893 292.816949 
L 72.484984 292.260988 
L 73.041074 291.407153 
L 73.597164 290.208014 
L 74.153254 288.604335 
L 74.987389 285.291366 
L 75.821524 280.693501 
L 76.65566 274.676731 
L 77.76784 264.552741 
L 79.43611 246.557968 
L 81.104381 229.208153 
L 82.216561 220.085779 
L 83.050696 215.056501 
L 83.606787 212.638871 
L 84.162877 210.979569 
L 84.718967 210.070179 
L 84.997012 209.890101 
L 85.275057 209.888086 
L 85.553102 210.058575 
L 86.109192 210.890222 
L 86.665282 212.3169 
L 87.499418 215.364595 
L 88.889643 221.803497 
L 90.279868 227.986059 
L 91.114004 230.771026 
L 91.670094 232.093404 
L 92.226184 232.961803 
L 92.782274 233.382761 
L 93.338364 233.378547 
L 93.894454 232.976966 
L 94.450544 232.203401 
L 95.006635 231.075944 
L 95.84077 228.74414 
L 96.674905 225.671605 
L 97.787085 220.55733 
L 101.679716 201.127205 
L 102.513852 198.35876 
L 103.347987 196.248507 
L 104.460167 194.105111 
L 105.850393 191.448987 
L 106.684528 189.26025 
L 107.518663 186.287233 
L 108.352798 182.393964 
L 109.464978 175.847444 
L 113.079564 152.347468 
L 113.9137 148.716654 
L 114.46979 146.957192 
L 115.02588 145.74234 
L 115.58197 145.053859 
L 116.13806 144.847631 
L 116.69415 145.054947 
L 117.250241 145.586261 
L 118.084376 146.757563 
L 119.474601 148.771968 
L 120.030691 149.316159 
L 120.586781 149.619816 
L 121.142872 149.669964 
L 121.698962 149.490331 
L 122.533097 148.920732 
L 123.923322 147.904718 
L 124.479413 147.745599 
L 125.035503 147.844536 
L 125.591593 148.256819 
L 126.147683 149.020608 
L 126.703773 150.161214 
L 127.537908 152.612593 
L 128.372044 155.97922 
L 129.206179 160.264554 
L 130.318359 167.306606 
L 131.98663 179.840466 
L 134.21099 196.449718 
L 135.32317 203.330302 
L 136.435351 209.055574 
L 137.825576 214.901632 
L 139.215801 219.723916 
L 142.552342 230.344445 
L 143.386478 234.149245 
L 144.220613 239.043921 
L 145.332793 247.406817 
L 148.669334 275.416485 
L 149.503469 279.551808 
L 150.059559 281.210405 
L 150.61565 282.019579 
L 150.893695 282.134341 
L 151.17174 282.077927 
L 151.72783 281.530264 
L 152.28392 280.544675 
L 153.3961 277.915664 
L 155.064371 273.97719 
L 156.732641 270.271451 
L 157.566776 267.826338 
L 158.400912 264.470981 
L 159.235047 259.909003 
L 160.069182 254.035128 
L 161.181362 244.438163 
L 164.517903 213.850967 
L 165.630084 206.357137 
L 166.464219 201.976375 
L 167.298354 198.593164 
L 168.132489 196.158592 
L 168.688579 195.060213 
L 169.24467 194.389811 
L 169.80076 194.153504 
L 170.35685 194.347486 
L 170.91294 194.951081 
L 171.46903 195.922272 
L 172.303165 197.921749 
L 175.361661 206.127466 
L 176.195796 207.458469 
L 177.029932 208.256243 
L 177.864067 208.692216 
L 178.976247 209.229771 
L 179.532337 209.717202 
L 180.088427 210.4835 
L 180.644518 211.604926 
L 181.200608 213.127168 
L 182.034743 216.172663 
L 183.146923 221.423641 
L 186.761509 239.95902 
L 188.42978 246.729607 
L 190.376095 254.725945 
L 191.766321 261.554527 
L 193.156546 269.584144 
L 194.824816 280.678041 
L 198.439402 305.870426 
L 198.995493 308.370062 
L 199.551583 309.900614 
L 199.829628 310.226046 
L 200.107673 310.220627 
L 200.385718 309.859537 
L 200.663763 309.121704 
L 201.219853 306.454254 
L 201.775943 302.148807 
L 202.332033 296.229918 
L 203.166169 284.622509 
L 204.278349 265.387032 
L 206.780755 219.890129 
L 207.892935 204.152236 
L 208.72707 195.113945 
L 209.561205 188.334288 
L 210.395341 183.499127 
L 211.229476 180.26607 
L 211.785566 178.872425 
L 212.341656 178.04084 
L 212.619701 177.832289 
L 212.897746 177.762689 
L 213.175791 177.833722 
L 213.453836 178.047563 
L 214.009927 178.910413 
L 214.566017 180.357271 
L 215.122107 182.372103 
L 215.956242 186.345883 
L 217.346467 194.639415 
L 219.014738 204.47422 
L 219.848873 208.175917 
L 220.404963 209.965261 
L 220.961053 211.170338 
L 221.517144 211.802121 
L 221.795189 211.916443 
L 222.073234 211.907274 
L 222.629324 211.558337 
L 223.185414 210.842274 
L 224.019549 209.269056 
L 225.13173 206.591145 
L 226.521955 202.622061 
L 229.580451 193.150417 
L 229.858496 192.728272 
L 230.136541 192.508463 
L 230.414586 192.528755 
L 230.692631 192.826493 
L 230.970676 193.436699 
L 231.526766 195.717144 
L 232.082856 199.559252 
L 232.638947 205.038084 
L 233.473082 216.14728 
L 234.585262 234.939764 
L 236.531578 269.126817 
L 237.365713 280.691561 
L 238.199848 289.288089 
L 238.755938 293.33027 
L 239.312028 296.115416 
L 239.868119 297.77677 
L 240.146164 298.231811 
L 240.424209 298.459844 
L 240.702254 298.476694 
L 240.980299 298.296362 
L 241.536389 297.387398 
L 242.092479 295.795991 
L 242.648569 293.549171 
L 243.482704 288.945893 
L 244.31684 282.831472 
L 245.42902 272.398338 
L 246.819245 256.539806 
L 249.043606 230.860349 
L 249.877741 223.473624 
L 250.711876 218.22104 
L 251.267967 216.03423 
L 251.824057 214.897011 
L 252.102102 214.701559 
L 252.380147 214.736877 
L 252.658192 214.985394 
L 253.214282 216.040891 
L 253.770372 217.68744 
L 254.882553 221.978583 
L 256.272778 227.417004 
L 257.106913 229.965492 
L 257.941048 231.706269 
L 258.497139 232.379179 
L 259.053229 232.658973 
L 259.609319 232.553993 
L 260.165409 232.078389 
L 260.721499 231.251092 
L 261.555634 229.407831 
L 262.38977 226.960975 
L 265.448265 216.981732 
L 266.004356 215.867065 
L 266.560446 215.185085 
L 267.116536 214.969403 
L 267.672626 215.218859 
L 268.228716 215.89953 
L 268.784806 216.952444 
L 269.618942 219.067417 
L 271.009167 223.428901 
L 273.511573 232.195294 
L 276.292023 241.977503 
L 277.404204 245.082267 
L 278.238339 246.761922 
L 278.794429 247.514022 
L 279.350519 247.964639 
L 279.906609 248.134782 
L 280.462699 248.072486 
L 281.57488 247.57203 
L 282.409015 247.285562 
L 282.965105 247.353209 
L 283.521195 247.748821 
L 284.077285 248.549017 
L 284.633376 249.796049 
L 285.467511 252.496438 
L 286.579691 257.337902 
L 289.082097 268.9685 
L 289.916232 271.697894 
L 290.472322 273.008569 
L 291.028412 273.910927 
L 291.584502 274.435926 
L 292.140593 274.634121 
L 292.696683 274.565276 
L 293.252773 274.28867 
L 294.086908 273.588115 
L 295.199088 272.255629 
L 296.311269 270.488999 
L 297.423449 268.26514 
L 299.64781 263.494525 
L 300.2039 262.665931 
L 300.75999 262.14349 
L 301.31608 261.967761 
L 301.87217 262.133987 
L 302.42826 262.584554 
L 304.096531 264.369078 
L 304.652621 264.569412 
L 304.930666 264.512219 
L 305.486756 264.029682 
L 306.042846 263.038335 
L 306.876982 260.727514 
L 308.823297 254.428429 
L 309.379387 253.286649 
L 309.935477 252.684364 
L 310.213522 252.591841 
L 310.491567 252.630274 
L 311.047658 253.043916 
L 311.881793 254.183731 
L 312.715928 255.297174 
L 313.272018 255.656565 
L 313.550063 255.651116 
L 313.828108 255.49904 
L 314.384199 254.711646 
L 314.940289 253.254198 
L 315.496379 251.159862 
L 316.330514 247.056905 
L 318.83292 233.431204 
L 319.667055 230.496533 
L 320.223145 229.358869 
L 320.50119 229.054717 
L 320.779235 228.928754 
L 321.05728 228.978988 
L 321.335325 229.200923 
L 321.891416 230.130864 
L 322.447506 231.640278 
L 323.281641 234.760724 
L 324.671866 241.236514 
L 326.618182 250.247531 
L 330.510813 266.849399 
L 331.622993 273.476425 
L 335.237579 296.614068 
L 336.349759 301.845861 
L 337.739985 307.219916 
L 339.408255 312.709005 
L 340.24239 314.845933 
L 340.798481 315.8475 
L 341.354571 316.394836 
L 341.632616 316.472727 
L 341.910661 316.410889 
L 342.188706 316.205791 
L 342.744796 315.368824 
L 343.300886 314.002503 
L 344.135022 311.183965 
L 346.081337 303.885377 
L 346.915472 301.747962 
L 347.471562 300.847747 
L 348.027653 300.305762 
L 349.695923 299.117801 
L 350.252013 298.09918 
L 350.808103 296.403583 
L 351.364193 293.895234 
L 352.198329 288.537392 
L 353.032464 281.522923 
L 356.64705 248.291319 
L 358.037275 238.785567 
L 360.261636 225.351413 
L 361.373816 219.699275 
L 362.207951 216.745203 
L 362.764042 215.663111 
L 363.042087 215.427422 
L 363.320132 215.404338 
L 363.598177 215.595193 
L 363.876222 215.997045 
L 364.432312 217.398773 
L 364.988402 219.498101 
L 365.822537 223.576157 
L 367.768853 233.736344 
L 368.602988 236.91261 
L 369.159078 238.407417 
L 369.715168 239.415348 
L 370.271259 240.001136 
L 370.827349 240.261738 
L 371.661484 240.281857 
L 374.998025 239.707612 
L 375.554115 239.380771 
L 376.110205 238.850594 
L 376.94434 237.624275 
L 377.778476 235.93802 
L 380.002836 231.111596 
L 380.558926 230.325303 
L 381.115016 229.824822 
L 381.671107 229.601614 
L 382.227197 229.599588 
L 383.617422 229.814528 
L 384.173512 229.595905 
L 384.729602 228.970239 
L 385.285693 227.808872 
L 385.841783 226.022161 
L 386.397873 223.570102 
L 387.232008 218.685609 
L 388.344188 210.356943 
L 391.958774 180.997316 
L 393.070955 174.006246 
L 394.183135 168.217875 
L 395.295315 163.560618 
L 396.12945 160.892952 
L 396.685541 159.587616 
L 397.241631 158.721058 
L 397.797721 158.338137 
L 398.075766 158.33789 
L 398.353811 158.467475 
L 398.909901 159.114631 
L 399.465991 160.258573 
L 400.300127 162.797248 
L 401.412307 167.309028 
L 404.192758 179.305395 
L 405.026893 181.820213 
L 405.861028 183.52084 
L 406.417118 184.224187 
L 406.973208 184.646801 
L 407.807344 184.94119 
L 409.197569 185.311877 
L 410.031704 185.847083 
L 410.865839 186.711528 
L 411.97802 188.277367 
L 413.0902 190.221011 
L 413.924335 192.052743 
L 414.75847 194.463118 
L 415.592606 197.701149 
L 416.426741 201.86854 
L 417.816966 210.285898 
L 419.207192 218.315219 
L 420.041327 221.710121 
L 420.597417 223.116408 
L 421.153507 223.804815 
L 421.431552 223.893334 
L 421.709597 223.82654 
L 422.265688 223.289035 
L 422.821778 222.334205 
L 423.933958 219.757492 
L 426.436364 213.680206 
L 426.436364 213.680206 
" clip-path="url(#pe771bd6c05)" style="fill: none; stroke: #ff00ff; stroke-width: 3; stroke-linecap: square"/>
   </g>
   <g id="patch_3">
    <path d="M 7.2 331.2 
L 7.2 7.2 
" style="fill: none; stroke: #000000; stroke-width: 0.8; stroke-linejoin: miter; stroke-linecap: square"/>
   </g>
   <g id="patch_4">
    <path d="M 446.4 331.2 
L 446.4 7.2 
" style="fill: none; stroke: #000000; stroke-width: 0.8; stroke-linejoin: miter; stroke-linecap: square"/>
   </g>
   <g id="patch_5">
    <path d="M 7.2 331.2 
L 446.4 331.2 
" style="fill: none; stroke: #000000; stroke-width: 0.8; stroke-linejoin: miter; stroke-linecap: square"/>
   </g>
   <g id="patch_6">
    <path d="M 7.2 7.2 
L 446.4 7.2 
" style="fill: none; stroke: #000000; stroke-width: 0.8; stroke-linejoin: miter; stroke-linecap: square"/>
   </g>
  </g>
 </g>
 <defs>
  <clipPath id="pe771bd6c05">
   <rect x="7.2" y="7.2" width="439.2" height="324"/>
  </clipPath>
 </defs>
</svg>
