<?xml version="1.0" encoding="utf-8" standalone="no"?>
<!DOCTYPE svg PUBLIC "-//W3C//DTD SVG 1.1//EN"
  "http://www.w3.org/Graphics/SVG/1.1/DTD/svg11.dtd">
<svg xmlns:xlink="http://www.w3.org/1999/xlink" width="453.6pt" height="338.4pt" viewBox="0 0 453.6 338.4" xmlns="http://www.w3.org/2000/svg" version="1.1">
 <metadata>
  <rdf:RDF xmlns:dc="http://purl.org/dc/elements/1.1/" xmlns:cc="http://creativecommons.org/ns#" xmlns:rdf="http://www.w3.org/1999/02/22-rdf-syntax-ns#">
   <cc:Work>
    <dc:type rdf:resource="http://purl.org/dc/dcmitype/StillImage"/>
    <dc:date>2025-05-15T18:27:00.535197</dc:date>
    <dc:format>image/svg+xml</dc:format>
    <dc:creator>
     <cc:Agent>
      <dc:title>Matplotlib v3.10.1, https://matplotlib.org/</dc:title>
     </cc:Agent>
    </dc:creator>
   </cc:Work>
  </rdf:RDF>
 </metadata>
 <defs>
  <style type="text/css">*{stroke-linejoin: round; stroke-linecap: butt}</style>
 </defs>
 <g id="figure_1">
  <g id="patch_1">
   <path d="M 0 338.4 
L 453.6 338.4 
L 453.6 0 
L 0 0 
z
" style="fill: #ffffff"/>
  </g>
  <g id="axes_1">
   <g id="patch_2">
    <path d="M 7.2 331.2 
L 446.4 331.2 
L 446.4 7.2 
L 7.2 7.2 
z
" style="fill: #ffffff"/>
   </g>
   <g id="matplotlib.axis_1"/>
   <g id="matplotlib.axis_2"/>
   <g id="line2d_1">
    <path d="M 27.163636 313.56186 
L 27.719727 311.848004 
L 28.275817 309.453084 
L 28.831907 306.2661 
L 29.666042 299.879306 
L 30.500177 291.671417 
L 32.168448 272.103975 
L 33.558673 256.468351 
L 34.670853 246.204564 
L 35.783034 237.878736 
L 36.895214 231.036345 
L 37.729349 227.061048 
L 38.285439 225.269436 
L 38.563484 224.717875 
L 38.84153 224.43552 
L 39.119575 224.449303 
L 39.39762 224.782229 
L 39.675665 225.451789 
L 40.231755 227.836678 
L 40.787845 231.599528 
L 41.62198 239.512636 
L 43.012206 256.299642 
L 44.402431 272.557715 
L 45.236566 279.997759 
L 45.792656 283.626586 
L 46.348747 286.156398 
L 46.904837 287.671617 
L 47.460927 288.349135 
L 48.017017 288.442237 
L 49.407242 288.104902 
L 49.685287 288.227261 
L 50.241378 288.880051 
L 50.797468 290.16657 
L 51.353558 292.100911 
L 52.187693 296.003955 
L 54.690099 308.84347 
L 55.524234 311.673863 
L 56.358369 313.52476 
L 56.914459 314.310843 
L 57.748595 315.020223 
L 58.58273 315.392132 
L 59.972955 315.719252 
L 62.753406 316.103642 
L 64.977767 316.179755 
L 68.314307 315.979372 
L 70.538668 315.972288 
L 77.21175 316.200965 
L 89.167688 315.636375 
L 92.782274 315.005734 
L 93.338364 314.697564 
L 93.894454 314.182603 
L 94.450544 313.375921 
L 95.006635 312.195659 
L 95.562725 310.579114 
L 96.39686 307.292977 
L 97.50904 301.592097 
L 99.177311 292.713373 
L 100.011446 289.572006 
L 100.567536 288.291362 
L 101.123626 287.694049 
L 101.401671 287.631944 
L 101.957761 287.892677 
L 102.791897 288.840648 
L 103.347987 289.453784 
L 103.904077 289.711354 
L 104.182122 289.618633 
L 104.460167 289.335782 
L 104.738212 288.835303 
L 105.294302 287.092983 
L 105.850393 284.263171 
L 106.406483 280.297613 
L 107.240618 272.285728 
L 108.074753 262.05443 
L 109.186933 245.507383 
L 110.577159 220.642437 
L 112.245429 185.699596 
L 113.635655 157.084894 
L 114.46979 143.725085 
L 115.02588 137.47546 
L 115.58197 133.687097 
L 115.860015 132.732891 
L 116.13806 132.383039 
L 116.416105 132.60216 
L 116.69415 133.342381 
L 117.250241 136.146434 
L 118.084376 142.637015 
L 121.420917 171.806223 
L 125.869638 206.527801 
L 126.981818 213.103202 
L 130.596404 232.656551 
L 131.430539 238.982513 
L 132.54272 249.336233 
L 134.21099 267.81118 
L 135.879261 285.622001 
L 136.713396 292.690239 
L 137.547531 298.043148 
L 138.381666 301.660216 
L 138.937756 303.217582 
L 139.493847 304.227256 
L 140.049937 304.832748 
L 140.884072 305.312512 
L 141.996252 305.856666 
L 142.830387 306.594831 
L 143.664523 307.731891 
L 144.776703 309.704441 
L 146.444973 312.681835 
L 147.279109 313.813467 
L 148.113244 314.629891 
L 148.947379 315.172761 
L 150.059559 315.605227 
L 151.72783 315.949524 
L 153.95219 316.175243 
L 155.898506 316.154137 
L 156.732641 316.00035 
L 157.288731 315.769083 
L 157.844821 315.345959 
L 158.400912 314.612608 
L 158.957002 313.40803 
L 159.513092 311.536645 
L 160.069182 308.788382 
L 160.625272 304.966281 
L 161.181362 299.922113 
L 162.015498 289.967256 
L 163.127678 272.94084 
L 165.073993 241.429347 
L 165.908129 231.559438 
L 166.464219 227.14561 
L 167.020309 224.63243 
L 167.298354 224.084557 
L 167.576399 223.989355 
L 167.854444 224.32236 
L 168.132489 225.053299 
L 168.688579 227.565657 
L 169.24467 231.216557 
L 170.35685 240.671634 
L 173.137301 265.940107 
L 174.527526 276.289348 
L 176.751887 290.792223 
L 178.698202 302.571033 
L 179.810382 308.019672 
L 180.644518 311.083283 
L 181.478653 313.230497 
L 182.312788 314.590746 
L 183.146923 315.377514 
L 183.981058 315.806107 
L 185.093239 316.095977 
L 187.039554 316.316076 
L 190.09805 316.402478 
L 205.112484 316.361919 
L 207.892935 316.112195 
L 209.005115 315.814436 
L 209.561205 315.461263 
L 210.117296 314.791117 
L 210.673386 313.580227 
L 211.229476 311.528419 
L 211.785566 308.261805 
L 212.341656 303.343864 
L 212.897746 296.314651 
L 213.453836 286.735756 
L 214.009927 274.225339 
L 214.844062 249.407027 
L 215.678197 217.240446 
L 216.790377 164.888208 
L 218.736693 68.825853 
L 219.570828 38.893786 
L 220.126918 26.65231 
L 220.404963 23.30088 
L 220.683008 21.927273 
L 220.961053 22.583367 
L 221.239099 25.279516 
L 221.517144 29.983611 
L 222.073234 45.075864 
L 222.629324 66.791114 
L 223.463459 108.199289 
L 225.68782 225.034995 
L 226.521955 257.316229 
L 227.35609 280.546194 
L 227.91218 291.47273 
L 228.46827 299.397105 
L 229.024361 304.952433 
L 229.580451 308.733635 
L 230.136541 311.250846 
L 230.692631 312.909991 
L 231.248721 314.003032 
L 231.804811 314.727319 
L 232.638947 315.400268 
L 233.751127 315.899726 
L 235.141352 316.229988 
L 236.809623 316.400811 
L 239.312028 316.418565 
L 243.76075 316.218009 
L 248.209471 315.78106 
L 249.877741 315.468162 
L 250.989921 315.020256 
L 251.824057 314.401761 
L 252.380147 313.7549 
L 252.936237 312.817174 
L 253.492327 311.455191 
L 254.048417 309.490503 
L 254.604507 306.705546 
L 255.160598 302.84972 
L 255.716688 297.66256 
L 256.550823 286.916751 
L 257.384958 272.35497 
L 258.497139 247.969903 
L 260.165409 209.735133 
L 260.999544 195.659913 
L 261.555634 189.805377 
L 261.833679 188.100737 
L 262.111724 187.24222 
L 262.38977 187.228933 
L 262.667815 188.040796 
L 262.94586 189.639811 
L 263.50195 194.96826 
L 264.336085 207.117122 
L 267.950671 267.97512 
L 269.062851 280.500371 
L 270.175032 290.309721 
L 271.287212 298.098523 
L 272.399392 304.181359 
L 273.233527 307.696827 
L 274.067663 310.380854 
L 274.901798 312.333671 
L 275.735933 313.67967 
L 276.570068 314.551005 
L 277.404204 315.075691 
L 278.516384 315.435657 
L 280.462699 315.706463 
L 287.135781 316.420605 
L 292.696683 316.356798 
L 302.42826 316.192154 
L 303.540441 315.919374 
L 304.374576 315.526186 
L 305.208711 314.842061 
L 305.764801 314.06986 
L 306.320891 312.850789 
L 306.876982 310.94918 
L 307.433072 308.078555 
L 307.989162 303.936562 
L 308.545252 298.26262 
L 309.379387 286.601254 
L 310.213522 271.500791 
L 312.715928 223.211959 
L 313.272018 216.055656 
L 313.828108 211.051338 
L 314.384199 208.125091 
L 314.662244 207.354914 
L 314.940289 206.980649 
L 315.218334 206.946519 
L 315.496379 207.1963 
L 316.052469 208.342269 
L 316.608559 210.087603 
L 317.442694 213.518598 
L 318.27683 218.127759 
L 319.110965 224.564238 
L 319.9451 233.315908 
L 321.05728 248.119975 
L 323.003596 274.791422 
L 323.837731 283.164585 
L 324.671866 288.864719 
L 325.227956 291.319202 
L 325.784047 292.938434 
L 326.340137 293.985328 
L 328.564497 297.304316 
L 329.398633 299.483583 
L 330.510813 303.260223 
L 332.457128 310.072888 
L 333.291264 312.270361 
L 334.125399 313.851976 
L 334.959534 314.877579 
L 335.793669 315.479235 
L 336.627805 315.80121 
L 337.739985 315.993835 
L 340.24239 316.121147 
L 346.359382 316.250649 
L 352.476374 316.063622 
L 357.20314 316.092541 
L 361.095771 315.89068 
L 365.266447 315.596794 
L 367.768853 315.748159 
L 370.549304 315.884361 
L 372.495619 315.747923 
L 374.16389 315.390137 
L 375.554115 314.865237 
L 376.666295 314.251126 
L 377.778476 313.406004 
L 378.890656 312.262487 
L 380.002836 310.769146 
L 381.115016 308.870374 
L 381.949152 307.053343 
L 382.783287 304.646467 
L 383.617422 301.237586 
L 384.173512 298.124167 
L 384.729602 294.114418 
L 385.563738 286.048583 
L 386.397873 275.229426 
L 387.510053 256.768535 
L 389.178324 223.594286 
L 393.627045 132.996336 
L 394.739225 113.547342 
L 395.57336 101.986948 
L 396.12945 96.207753 
L 396.685541 92.167487 
L 397.241631 89.953547 
L 397.519676 89.54295 
L 397.797721 89.597329 
L 398.075766 90.114819 
L 398.353811 91.092446 
L 398.909901 94.41153 
L 399.465991 99.510139 
L 400.300127 110.317084 
L 401.134262 124.412909 
L 404.470803 185.585791 
L 405.026893 191.333801 
L 405.582983 194.886613 
L 405.861028 195.851676 
L 406.139073 196.312338 
L 406.417118 196.314272 
L 406.695163 195.916536 
L 407.251253 194.216973 
L 408.641479 188.905709 
L 408.919524 188.414307 
L 409.197569 188.313234 
L 409.475614 188.670662 
L 409.753659 189.541941 
L 410.309749 192.971826 
L 410.865839 198.727798 
L 411.699975 211.338125 
L 412.812155 233.11529 
L 414.480425 266.290203 
L 415.314561 279.398071 
L 416.148696 289.235352 
L 416.982831 296.022504 
L 417.816966 300.425205 
L 418.651102 303.254244 
L 419.485237 305.223018 
L 420.875462 307.777568 
L 422.821778 310.861945 
L 423.933958 312.2595 
L 425.046138 313.328489 
L 426.436364 314.338811 
L 426.436364 314.338811 
" clip-path="url(#pe63a546b87)" style="fill: none; stroke-dasharray: 11.1,4.8; stroke-dashoffset: 0; stroke: #000000; stroke-width: 3"/>
   </g>
   <g id="line2d_2">
    <path d="M 27.163636 278.55299 
L 27.997772 280.472564 
L 29.109952 283.700526 
L 29.944087 286.578807 
L 30.222132 286.602189 
L 31.334312 282.994059 
L 32.168448 280.934981 
L 33.002583 279.360265 
L 33.836718 278.21116 
L 34.670853 277.42519 
L 35.504989 276.949515 
L 36.061079 276.987743 
L 37.173259 277.390159 
L 37.451304 277.62616 
L 37.729349 278.607622 
L 38.84153 284.340785 
L 39.119575 284.785054 
L 40.5098 283.211738 
L 41.343935 282.521699 
L 42.17807 282.117626 
L 42.734161 282.030555 
L 43.290251 282.100747 
L 43.846341 282.335607 
L 44.680476 282.998997 
L 45.236566 283.49492 
L 47.460927 283.438598 
L 48.295062 283.214331 
L 49.129197 282.768825 
L 49.963332 282.046187 
L 50.797468 280.98695 
L 51.631603 279.57007 
L 52.465738 277.779231 
L 53.577918 275.256618 
L 54.690099 273.39352 
L 55.246189 272.670563 
L 55.524234 272.451541 
L 56.636414 272.083265 
L 57.748595 271.494688 
L 58.58273 270.860805 
L 61.085135 265.589893 
L 62.475361 262.200704 
L 64.143631 257.798731 
L 65.255812 257.744347 
L 66.367992 257.913596 
L 67.480172 258.294564 
L 68.592352 258.875367 
L 69.982578 259.852965 
L 70.816713 260.615327 
L 71.928893 261.888368 
L 72.763029 263.190269 
L 74.987389 266.73204 
L 76.09957 268.067342 
L 76.933705 268.745921 
L 77.76784 269.088996 
L 78.045885 269.122462 
L 78.32393 269.366194 
L 79.158065 270.50311 
L 79.992201 271.221104 
L 80.548291 271.449928 
L 81.104381 271.477276 
L 81.660471 271.278195 
L 82.216561 270.849263 
L 82.772651 270.166624 
L 83.328741 269.204406 
L 84.162877 267.162597 
L 84.997012 264.469413 
L 85.275057 264.96371 
L 86.665282 271.865255 
L 87.777463 278.756769 
L 88.889643 282.019913 
L 90.001823 284.562737 
L 91.114004 286.585035 
L 92.226184 288.209016 
L 93.338364 289.498524 
L 94.450544 290.475901 
L 95.562725 291.125585 
L 96.39686 291.38847 
L 97.230995 291.449797 
L 98.06513 291.295997 
L 98.899266 290.918692 
L 99.733401 290.316667 
L 100.845581 289.15686 
L 101.957761 287.608669 
L 102.791897 286.179596 
L 103.347987 284.996118 
L 103.626032 283.85005 
L 104.182122 280.050839 
L 104.460167 279.310281 
L 105.016257 279.221393 
L 105.294302 279.525944 
L 106.128438 281.229964 
L 106.962573 282.348729 
L 107.518663 282.782449 
L 108.074753 282.970816 
L 108.630843 282.936988 
L 109.186933 282.687495 
L 110.021069 281.961459 
L 110.855204 280.875471 
L 111.967384 279.011369 
L 116.13806 271.422719 
L 116.972195 270.462881 
L 117.806331 269.860094 
L 118.362421 269.686115 
L 118.918511 269.709065 
L 119.474601 269.935415 
L 120.030691 270.36745 
L 120.586781 270.824156 
L 121.142872 271.052152 
L 121.698962 271.091935 
L 122.255052 270.943226 
L 122.533097 270.792624 
L 123.367232 271.210043 
L 124.757458 271.711732 
L 126.703773 272.91962 
L 127.815953 273.864044 
L 128.928134 275.143547 
L 129.762269 276.385108 
L 130.874449 278.554108 
L 131.708584 280.657795 
L 132.820765 283.5427 
L 136.435351 275.142444 
L 137.269486 273.706917 
L 138.103621 272.737193 
L 138.659711 272.436181 
L 139.215801 272.487328 
L 139.771892 272.974986 
L 140.049937 273.759545 
L 141.440162 279.653177 
L 141.718207 279.969179 
L 142.830387 280.060663 
L 143.664523 280.304738 
L 144.498658 280.766729 
L 145.332793 281.542646 
L 146.166928 282.728209 
L 147.001064 284.442894 
L 147.835199 286.791808 
L 148.669334 289.875162 
L 149.503469 293.804085 
L 150.059559 296.242768 
L 150.337604 295.069444 
L 151.72783 287.043622 
L 152.84001 281.679208 
L 154.230236 276.158185 
L 155.620461 271.615617 
L 157.566776 265.603721 
L 158.400912 262.324509 
L 159.235047 260.47415 
L 160.069182 259.318434 
L 160.625272 258.850935 
L 161.459407 258.476402 
L 162.571588 258.319057 
L 162.849633 258.30272 
L 163.127678 258.639895 
L 163.961813 260.581445 
L 165.073993 262.903725 
L 165.908129 264.129482 
L 166.186174 264.411019 
L 166.464219 265.139985 
L 167.576399 269.527605 
L 168.688579 273.128146 
L 169.80076 275.985646 
L 170.91294 278.213701 
L 172.02512 279.946363 
L 173.415346 281.600506 
L 174.527526 282.602037 
L 174.805571 282.823779 
L 175.083616 282.887553 
L 175.361661 282.713105 
L 176.473841 285.829774 
L 177.029932 286.562756 
L 177.307977 286.714335 
L 177.586022 286.734658 
L 177.864067 286.628369 
L 178.420157 286.040256 
L 178.976247 285.010382 
L 179.810382 282.689567 
L 180.644518 279.558186 
L 181.478653 275.686653 
L 185.649329 253.872497 
L 185.927374 252.955109 
L 186.205419 252.599952 
L 186.483464 252.924161 
L 187.317599 254.761406 
L 188.707825 258.539844 
L 191.488276 266.405182 
L 192.044366 267.548469 
L 192.600456 267.987985 
L 193.156546 268.081462 
L 193.712636 267.81059 
L 194.268726 267.191988 
L 194.824816 266.223528 
L 195.658952 264.171287 
L 196.215042 262.437505 
L 196.493087 263.239487 
L 197.605267 270.39637 
L 198.995493 277.832817 
L 200.941808 286.867845 
L 201.219853 288.118315 
L 201.497898 288.330287 
L 202.610079 288.467801 
L 204.834439 288.380209 
L 205.946619 288.449982 
L 206.780755 288.695801 
L 207.61489 289.227506 
L 207.892935 289.428687 
L 208.17098 289.091401 
L 209.561205 285.946229 
L 210.395341 285.091209 
L 211.229476 283.964232 
L 212.341656 282.036289 
L 213.731881 279.089395 
L 215.400152 274.990711 
L 217.624513 268.838877 
L 219.014738 265.037063 
L 219.848873 263.342433 
L 220.126918 263.287797 
L 220.683008 265.522857 
L 222.073234 271.004199 
L 223.463459 275.524089 
L 226.8 285.128877 
L 228.190225 288.839116 
L 229.580451 293.178544 
L 230.692631 296.909046 
L 230.970676 297.33977 
L 231.526766 297.237936 
L 232.082856 297.365239 
L 232.638947 297.727873 
L 233.195037 298.302743 
L 234.029172 299.565794 
L 234.863307 301.308394 
L 235.419397 300.507952 
L 239.033983 294.514454 
L 241.814434 289.389953 
L 242.648569 287.598641 
L 244.038795 282.447012 
L 244.594885 280.980029 
L 245.150975 280.025216 
L 245.707065 279.446131 
L 246.263155 279.200649 
L 246.819245 279.238141 
L 247.375336 279.514023 
L 248.209471 280.277511 
L 249.321651 281.725785 
L 250.155786 282.850881 
L 253.214282 277.242896 
L 254.326462 274.84711 
L 255.160598 273.43838 
L 256.272778 270.694575 
L 257.384958 268.501291 
L 258.497139 266.758907 
L 259.609319 265.375269 
L 260.999544 264.021171 
L 263.223905 262.285053 
L 263.50195 262.828419 
L 264.336085 267.367251 
L 265.448265 272.014672 
L 266.560446 275.46299 
L 267.672626 278.08829 
L 269.062851 280.68878 
L 269.340896 281.157952 
L 269.618942 280.829204 
L 271.009167 278.147316 
L 271.565257 277.372318 
L 272.677437 276.66571 
L 273.789618 275.62685 
L 274.901798 274.168219 
L 275.735933 272.715958 
L 276.570068 270.876899 
L 277.404204 269.008836 
L 278.238339 267.069928 
L 280.740744 259.697875 
L 283.521195 250.435364 
L 283.79924 251.729431 
L 284.633376 259.52638 
L 285.467511 265.497452 
L 286.301646 269.815775 
L 287.135781 272.682993 
L 287.691871 273.888839 
L 288.247962 274.637359 
L 288.804052 274.986869 
L 289.360142 275.031396 
L 289.916232 274.854249 
L 292.140593 273.7071 
L 292.418638 273.70478 
L 292.696683 273.363272 
L 292.974728 272.804601 
L 293.530818 271.167013 
L 294.364953 269.994405 
L 295.199088 269.168268 
L 296.033224 268.7354 
L 296.589314 269.099006 
L 297.423449 269.331761 
L 298.535629 269.384598 
L 299.925855 269.188457 
L 302.150215 268.830488 
L 303.262396 268.9063 
L 304.096531 269.182373 
L 304.930666 269.708912 
L 305.764801 270.537657 
L 306.598936 271.712629 
L 307.433072 273.281044 
L 308.267207 275.283612 
L 309.379387 278.666839 
L 310.491567 282.932283 
L 311.603748 288.111927 
L 311.881793 288.135232 
L 312.437883 287.705458 
L 312.993973 287.463532 
L 313.550063 287.395576 
L 314.106153 287.597392 
L 314.662244 288.135842 
L 315.496379 289.454895 
L 316.052469 290.399735 
L 317.164649 291.688737 
L 318.554875 293.708767 
L 320.779235 297.456624 
L 323.003596 301.091613 
L 324.393821 302.987371 
L 324.671866 303.117973 
L 325.227956 301.4975 
L 326.896227 296.142878 
L 327.730362 293.967422 
L 328.008407 294.752151 
L 329.120587 298.864674 
L 329.954723 301.269107 
L 330.788858 303.065231 
L 331.066903 303.530782 
L 331.901038 303.938166 
L 332.735173 304.029174 
L 333.013219 303.794197 
L 334.125399 300.782094 
L 335.237579 296.998914 
L 336.627805 291.303148 
L 338.01803 285.314401 
L 338.57412 284.871612 
L 339.13021 284.869837 
L 339.6863 285.265664 
L 340.24239 286.011956 
L 341.076526 287.674644 
L 341.910661 289.795002 
L 342.744796 289.24761 
L 343.300886 288.649841 
L 343.856976 287.820244 
L 344.691112 286.070655 
L 345.525247 283.667918 
L 346.359382 280.599034 
L 347.471562 275.604775 
L 348.583743 270.464958 
L 349.695923 268.76778 
L 349.973968 268.584867 
L 350.252013 268.696084 
L 351.364193 269.762215 
L 351.642239 270.066008 
L 351.920284 270.583304 
L 352.754419 273.121176 
L 354.422689 278.880058 
L 356.09096 285.37904 
L 357.75923 292.83957 
L 358.037275 294.188747 
L 358.31532 294.610011 
L 359.983591 292.380688 
L 360.539681 291.997642 
L 361.095771 291.80752 
L 361.651861 291.795556 
L 362.207951 291.977823 
L 362.764042 292.324849 
L 363.598177 293.176222 
L 364.432312 294.388634 
L 365.266447 295.942456 
L 366.100582 297.511741 
L 366.378628 297.804612 
L 366.934718 297.381833 
L 367.490808 296.629237 
L 368.046898 295.502932 
L 368.602988 293.975514 
L 369.437123 290.843517 
L 370.271259 286.583009 
L 371.105394 281.029346 
L 371.383439 281.281527 
L 372.217574 284.754684 
L 372.773664 286.278929 
L 373.329754 287.126987 
L 373.607799 287.299387 
L 373.885845 287.277845 
L 374.16389 288.256426 
L 374.998025 292.268722 
L 375.554115 294.136394 
L 376.110205 295.429232 
L 376.666295 296.204047 
L 377.222385 296.5128 
L 377.778476 296.416487 
L 378.334566 295.970619 
L 378.890656 295.230518 
L 379.724791 293.683977 
L 380.280881 292.527468 
L 381.115016 292.331624 
L 381.671107 291.676293 
L 382.227197 290.542635 
L 382.783287 288.979138 
L 384.173512 283.238119 
L 384.729602 281.906778 
L 385.285693 281.120835 
L 385.841783 280.710213 
L 386.675918 278.786953 
L 387.232008 277.988942 
L 387.788098 277.565619 
L 388.344188 277.46702 
L 388.900279 277.639717 
L 389.456369 278.027592 
L 390.290504 278.884758 
L 392.514865 281.38161 
L 393.070955 281.720954 
L 393.627045 281.831219 
L 394.183135 281.643823 
L 394.739225 281.109657 
L 395.295315 280.164354 
L 395.851405 278.767111 
L 396.407496 276.840524 
L 397.241631 272.880681 
L 398.075766 267.485086 
L 398.631856 263.498143 
L 399.465991 264.646729 
L 400.300127 266.098211 
L 400.856217 267.709607 
L 403.358622 273.982286 
L 406.695163 282.4208 
L 409.475614 285.822877 
L 411.143885 287.579615 
L 412.812155 289.039486 
L 414.480425 290.222067 
L 416.982831 291.668864 
L 418.095011 292.262793 
L 418.373056 292.05325 
L 420.319372 285.679885 
L 420.597417 285.429688 
L 421.431552 289.312133 
L 422.821778 296.069937 
L 423.099823 296.80667 
L 424.490048 295.07845 
L 426.436364 292.41109 
L 426.436364 292.41109 
" clip-path="url(#pe63a546b87)" style="fill: none; stroke: #ff00ff; stroke-width: 3; stroke-linecap: square"/>
   </g>
   <g id="patch_3">
    <path d="M 7.2 331.2 
L 7.2 7.2 
" style="fill: none; stroke: #000000; stroke-width: 0.8; stroke-linejoin: miter; stroke-linecap: square"/>
   </g>
   <g id="patch_4">
    <path d="M 446.4 331.2 
L 446.4 7.2 
" style="fill: none; stroke: #000000; stroke-width: 0.8; stroke-linejoin: miter; stroke-linecap: square"/>
   </g>
   <g id="patch_5">
    <path d="M 7.2 331.2 
L 446.4 331.2 
" style="fill: none; stroke: #000000; stroke-width: 0.8; stroke-linejoin: miter; stroke-linecap: square"/>
   </g>
   <g id="patch_6">
    <path d="M 7.2 7.2 
L 446.4 7.2 
" style="fill: none; stroke: #000000; stroke-width: 0.8; stroke-linejoin: miter; stroke-linecap: square"/>
   </g>
  </g>
 </g>
 <defs>
  <clipPath id="pe63a546b87">
   <rect x="7.2" y="7.2" width="439.2" height="324"/>
  </clipPath>
 </defs>
</svg>
