<?xml version="1.0" encoding="utf-8" standalone="no"?>
<!DOCTYPE svg PUBLIC "-//W3C//DTD SVG 1.1//EN"
  "http://www.w3.org/Graphics/SVG/1.1/DTD/svg11.dtd">
<svg xmlns:xlink="http://www.w3.org/1999/xlink" width="453.6pt" height="338.4pt" viewBox="0 0 453.6 338.4" xmlns="http://www.w3.org/2000/svg" version="1.1">
 <metadata>
  <rdf:RDF xmlns:dc="http://purl.org/dc/elements/1.1/" xmlns:cc="http://creativecommons.org/ns#" xmlns:rdf="http://www.w3.org/1999/02/22-rdf-syntax-ns#">
   <cc:Work>
    <dc:type rdf:resource="http://purl.org/dc/dcmitype/StillImage"/>
    <dc:date>2025-05-15T17:31:15.723048</dc:date>
    <dc:format>image/svg+xml</dc:format>
    <dc:creator>
     <cc:Agent>
      <dc:title>Matplotlib v3.10.1, https://matplotlib.org/</dc:title>
     </cc:Agent>
    </dc:creator>
   </cc:Work>
  </rdf:RDF>
 </metadata>
 <defs>
  <style type="text/css">*{stroke-linejoin: round; stroke-linecap: butt}</style>
 </defs>
 <g id="figure_1">
  <g id="patch_1">
   <path d="M 0 338.4 
L 453.6 338.4 
L 453.6 0 
L 0 0 
z
" style="fill: #ffffff"/>
  </g>
  <g id="axes_1">
   <g id="patch_2">
    <path d="M 7.2 331.2 
L 446.4 331.2 
L 446.4 7.2 
L 7.2 7.2 
z
" style="fill: #ffffff"/>
   </g>
   <g id="matplotlib.axis_1"/>
   <g id="matplotlib.axis_2"/>
   <g id="line2d_1">
    <path d="M 27.163636 100.789465 
L 28.275817 97.054445 
L 29.109952 94.968374 
L 30.222132 92.902421 
L 31.612358 90.88987 
L 33.836718 87.748582 
L 35.226944 85.365384 
L 39.119575 78.087083 
L 39.95371 77.209575 
L 40.5098 76.856647 
L 41.06589 76.696809 
L 41.62198 76.73317 
L 42.17807 76.966866 
L 42.734161 77.396022 
L 43.568296 78.392669 
L 44.402431 79.775959 
L 45.514611 82.129349 
L 46.626792 84.978033 
L 47.738972 88.338006 
L 49.129197 93.360708 
L 51.909648 104.236801 
L 52.743783 106.352957 
L 53.299873 107.110894 
L 53.577918 107.265317 
L 53.855964 107.263533 
L 54.134009 107.104803 
L 54.690099 106.327979 
L 55.246189 104.987755 
L 56.080324 102.120614 
L 57.192504 97.219482 
L 58.58273 89.952163 
L 59.69491 83.081823 
L 63.031451 60.831237 
L 63.587541 58.740798 
L 64.143631 57.465358 
L 64.699721 56.904572 
L 65.255812 56.835666 
L 66.089947 56.980277 
L 66.646037 56.781526 
L 67.202127 56.065917 
L 67.758217 54.736245 
L 68.592352 51.771097 
L 69.704533 47.458466 
L 70.260623 46.02685 
L 70.538668 45.666723 
L 70.816713 45.599447 
L 71.094758 45.857291 
L 71.372803 46.463573 
L 71.928893 48.76436 
L 72.484984 52.479508 
L 73.319119 60.243905 
L 75.543479 83.8006 
L 76.09957 87.832899 
L 76.65566 90.462745 
L 76.933705 91.218374 
L 77.21175 91.60311 
L 77.489795 91.630365 
L 77.76784 91.322779 
L 78.32393 89.829085 
L 78.88002 87.431767 
L 81.382426 75.117106 
L 81.938516 73.770206 
L 82.216561 73.409372 
L 82.494606 73.263439 
L 82.772651 73.33213 
L 83.050696 73.611876 
L 83.606787 74.777559 
L 84.162877 76.687581 
L 84.997012 80.748735 
L 85.831147 85.968097 
L 86.943327 94.269869 
L 88.611598 108.65396 
L 91.114004 130.874691 
L 91.948139 136.680493 
L 92.504229 139.518826 
L 93.060319 141.274747 
L 93.338364 141.6852 
L 93.616409 141.756721 
L 93.894454 141.473698 
L 94.172499 140.82512 
L 94.72859 138.414067 
L 95.28468 134.54628 
L 96.118815 126.297633 
L 97.230995 112.032052 
L 99.455356 82.261471 
L 100.289491 73.620797 
L 101.123626 67.053398 
L 101.957761 62.445332 
L 102.791897 59.416416 
L 103.626032 57.481661 
L 104.460167 56.197485 
L 105.572347 55.012607 
L 106.406483 54.433304 
L 106.962573 54.263715 
L 107.518663 54.357784 
L 108.074753 54.810749 
L 108.630843 55.720525 
L 109.186933 57.174568 
L 109.743024 59.239198 
L 110.577159 63.550506 
L 111.411294 69.282049 
L 112.523474 78.780727 
L 114.191745 95.396392 
L 116.972195 123.168034 
L 118.640466 137.444244 
L 119.752646 145.330303 
L 120.586781 150.055248 
L 121.420917 153.463455 
L 121.977007 154.868325 
L 122.533097 155.500339 
L 122.811142 155.512182 
L 123.089187 155.317292 
L 123.367232 154.915437 
L 123.923322 153.501385 
L 124.479413 151.313477 
L 125.313548 146.756368 
L 126.425728 138.882229 
L 128.372044 122.816582 
L 130.318359 107.343821 
L 131.430539 100.137994 
L 132.264675 96.088929 
L 132.820765 94.20487 
L 133.376855 93.047432 
L 133.6549 92.750981 
L 133.932945 92.642793 
L 134.21099 92.719543 
L 134.489035 92.975111 
L 135.045125 93.983817 
L 135.601215 95.567857 
L 136.435351 98.726557 
L 139.215801 110.179185 
L 140.327982 113.389287 
L 142.274297 118.388103 
L 142.830387 120.458117 
L 143.386478 123.195535 
L 143.942568 126.808877 
L 144.776703 134.253798 
L 145.610838 144.45901 
L 146.444973 157.475806 
L 147.557154 178.58598 
L 152.005875 269.945743 
L 153.118055 286.082318 
L 153.95219 295.209572 
L 154.786326 301.520019 
L 155.342416 304.039568 
L 155.620461 304.765143 
L 155.898506 305.122732 
L 156.176551 305.104367 
L 156.454596 304.703197 
L 156.732641 303.913753 
L 157.288731 301.158377 
L 157.844821 296.839947 
L 158.678957 287.551526 
L 159.513092 275.251976 
L 160.625272 255.29068 
L 165.073993 170.25377 
L 166.186174 154.91496 
L 167.020309 146.23748 
L 167.854444 140.259782 
L 168.410534 137.798511 
L 168.966624 136.493509 
L 169.24467 136.239125 
L 169.522715 136.223898 
L 169.80076 136.424203 
L 170.35685 137.364248 
L 171.190985 139.679017 
L 172.859256 144.687077 
L 173.415346 145.800326 
L 173.971436 146.477652 
L 174.527526 146.723468 
L 175.083616 146.609957 
L 176.751887 145.716916 
L 177.029932 145.777947 
L 177.307977 145.983665 
L 177.586022 146.366587 
L 178.142112 147.788283 
L 178.698202 150.269903 
L 179.254292 153.988865 
L 179.810382 159.053126 
L 180.644518 169.200506 
L 181.478653 182.111944 
L 182.868878 207.708398 
L 184.815194 243.885126 
L 185.927374 260.465522 
L 186.761509 269.789958 
L 187.595644 276.177871 
L 188.151735 278.813115 
L 188.707825 280.216838 
L 188.98587 280.484988 
L 189.263915 280.481742 
L 189.54196 280.221599 
L 190.09805 278.98974 
L 190.65414 276.904369 
L 191.488276 272.390503 
L 192.322411 266.414912 
L 193.434591 256.333847 
L 194.546771 243.84732 
L 195.936997 225.067957 
L 198.161357 190.759877 
L 199.829628 166.132245 
L 200.941808 152.425819 
L 201.775943 144.28856 
L 202.610079 138.30577 
L 203.166169 135.560907 
L 203.722259 133.769687 
L 204.278349 132.835224 
L 204.556394 132.644641 
L 204.834439 132.609188 
L 205.390529 132.902869 
L 206.224664 133.848513 
L 207.0588 134.75992 
L 207.61489 135.041974 
L 207.892935 135.033699 
L 208.449025 134.666927 
L 209.005115 133.808185 
L 209.561205 132.482311 
L 210.395341 129.816675 
L 212.063611 124.120446 
L 212.619701 122.886996 
L 212.897746 122.51541 
L 213.175791 122.338115 
L 213.453836 122.374476 
L 213.731881 122.640472 
L 214.009927 123.147916 
L 214.566017 124.911851 
L 215.122107 127.667835 
L 215.956242 133.475313 
L 217.068422 143.406207 
L 219.014738 161.219239 
L 219.848873 166.944492 
L 220.404963 169.719809 
L 220.961053 171.580243 
L 221.517144 172.515044 
L 221.795189 172.644966 
L 222.073234 172.560187 
L 222.351279 172.271196 
L 222.907369 171.132199 
L 223.463459 169.344855 
L 224.297594 165.740573 
L 225.68782 158.365341 
L 228.746316 140.702442 
L 229.858496 133.134935 
L 230.970676 124.172787 
L 232.360901 111.047402 
L 235.141352 84.066657 
L 235.975487 77.843112 
L 236.809623 73.237322 
L 237.365713 71.168139 
L 237.921803 69.904327 
L 238.199848 69.560073 
L 238.477893 69.393868 
L 238.755938 69.391869 
L 239.033983 69.537802 
L 239.590073 70.199085 
L 240.424209 71.803583 
L 242.092479 75.241075 
L 242.648569 76.017469 
L 243.204659 76.520822 
L 243.76075 76.768084 
L 244.594885 76.800507 
L 245.42902 76.751473 
L 245.98511 76.904697 
L 246.5412 77.385255 
L 247.09729 78.344096 
L 247.653381 79.918324 
L 248.209471 82.21782 
L 248.765561 85.313766 
L 249.599696 91.490307 
L 250.433831 99.360739 
L 251.824057 115.055984 
L 253.770372 137.356035 
L 254.882553 147.517796 
L 255.716688 153.167298 
L 256.272778 155.916606 
L 256.828868 157.865003 
L 257.384958 159.059694 
L 257.941048 159.573229 
L 258.219093 159.60236 
L 258.497139 159.495832 
L 259.053229 158.924973 
L 259.609319 157.954842 
L 260.443454 155.920789 
L 261.277589 153.329827 
L 262.38977 149.001661 
L 263.223905 144.903731 
L 264.05804 139.832502 
L 264.892175 133.616094 
L 266.004356 123.500245 
L 267.394581 108.540757 
L 269.896987 81.028451 
L 271.009167 71.579822 
L 271.843302 66.537894 
L 272.399392 64.265346 
L 272.955482 62.856708 
L 273.511573 62.246858 
L 273.789618 62.207544 
L 274.067663 62.322162 
L 274.623753 62.930659 
L 275.457888 64.458836 
L 276.848113 67.218557 
L 277.404204 68.00624 
L 277.960294 68.503595 
L 278.516384 68.703115 
L 279.072474 68.644729 
L 280.184654 68.121258 
L 280.740744 67.920108 
L 281.296835 67.970403 
L 281.852925 68.439795 
L 282.409015 69.487168 
L 282.965105 71.248519 
L 283.521195 73.824224 
L 284.077285 77.266731 
L 284.911421 84.031066 
L 286.023601 95.560721 
L 289.360142 133.252322 
L 290.194277 140.05637 
L 291.028412 145.096376 
L 291.584502 147.471699 
L 292.140593 149.109558 
L 292.696683 150.085887 
L 293.252773 150.496401 
L 293.808863 150.44829 
L 294.364953 150.050295 
L 295.199088 149.010582 
L 296.311269 147.153624 
L 297.423449 144.903962 
L 298.257584 142.809954 
L 299.091719 140.136012 
L 299.925855 136.675633 
L 300.75999 132.312199 
L 301.87217 125.167573 
L 305.208711 102.223389 
L 305.764801 99.773807 
L 306.320891 98.107048 
L 306.876982 97.30343 
L 307.155027 97.236339 
L 307.433072 97.391255 
L 307.711117 97.763163 
L 308.267207 99.119383 
L 308.823297 101.198595 
L 309.657432 105.344036 
L 312.993973 123.762303 
L 314.106153 128.10748 
L 316.052469 135.117524 
L 316.886604 139.34696 
L 317.720739 145.273486 
L 318.554875 153.46444 
L 319.38901 164.251693 
L 320.50119 182.615589 
L 321.891416 210.368267 
L 324.671866 267.156875 
L 325.784047 285.519564 
L 326.896227 300.089071 
L 327.730362 308.286869 
L 328.286452 312.317811 
L 328.842542 315.069184 
L 329.120587 315.920136 
L 329.398633 316.394789 
L 329.676678 316.472727 
L 329.954723 316.133995 
L 330.232768 315.360005 
L 330.788858 312.44358 
L 331.344948 307.633776 
L 331.901038 300.914222 
L 332.735173 287.44136 
L 333.847354 264.248137 
L 335.793669 216.59458 
L 337.46194 177.437294 
L 338.852165 150.064907 
L 339.964345 132.579041 
L 340.798481 122.292496 
L 341.632616 114.51987 
L 342.466751 109.199641 
L 343.022841 106.900053 
L 343.578931 105.458777 
L 344.135022 104.71859 
L 344.691112 104.500121 
L 345.247202 104.61803 
L 346.915472 105.342959 
L 347.471562 105.316197 
L 348.027653 105.064997 
L 348.861788 104.316351 
L 350.252013 102.82281 
L 350.808103 102.561244 
L 351.086148 102.592067 
L 351.364193 102.762487 
L 351.642239 103.095605 
L 352.198329 104.339022 
L 352.754419 106.478988 
L 353.310509 109.630304 
L 353.866599 113.850373 
L 354.700734 122.144901 
L 355.812915 136.291005 
L 359.983591 193.876402 
L 361.095771 204.658656 
L 361.929906 211.017907 
L 362.764042 215.876957 
L 363.320132 218.222195 
L 363.876222 219.767953 
L 364.154267 220.210337 
L 364.432312 220.413764 
L 364.710357 220.36393 
L 364.988402 220.046192 
L 365.266447 219.447078 
L 365.822537 217.357208 
L 366.378628 214.021967 
L 366.934718 209.414932 
L 367.768853 200.200953 
L 368.881033 184.224685 
L 370.549304 155.443876 
L 373.051709 112.207824 
L 374.441935 92.477695 
L 375.554115 80.2647 
L 376.38825 73.529189 
L 377.222385 68.923584 
L 377.778476 66.961421 
L 378.334566 65.77159 
L 378.890656 65.216035 
L 379.446746 65.131625 
L 380.002836 65.344557 
L 381.393062 66.104862 
L 381.949152 66.15888 
L 382.505242 65.949854 
L 383.061332 65.45736 
L 383.895467 64.254394 
L 385.563738 61.392176 
L 386.119828 60.850832 
L 386.397873 60.755686 
L 386.675918 60.806166 
L 386.953963 61.022451 
L 387.232008 61.422199 
L 387.788098 62.832344 
L 388.344188 65.123934 
L 388.900279 68.326838 
L 389.734414 74.747043 
L 390.846594 85.669001 
L 393.90509 117.469821 
L 394.739225 123.934123 
L 395.57336 128.984803 
L 396.407496 132.672849 
L 396.963586 134.433616 
L 397.519676 135.677771 
L 398.075766 136.42894 
L 398.631856 136.693906 
L 398.909901 136.641334 
L 399.465991 136.152039 
L 400.022082 135.124061 
L 400.578172 133.522624 
L 401.134262 131.316998 
L 401.968397 126.842991 
L 402.802532 121.005228 
L 403.914713 111.376859 
L 405.582983 94.328901 
L 408.363434 65.27239 
L 409.475614 55.583421 
L 410.309749 49.74898 
L 411.143885 45.439856 
L 411.699975 43.486828 
L 412.256065 42.269682 
L 412.812155 41.744365 
L 413.0902 41.717141 
L 413.368245 41.829759 
L 413.924335 42.414662 
L 414.75847 43.939702 
L 417.260876 49.227262 
L 418.095011 50.347571 
L 419.207192 51.380301 
L 420.041327 52.219172 
L 420.597417 53.070255 
L 421.153507 54.346279 
L 421.709597 56.212281 
L 422.265688 58.816625 
L 422.821778 62.275312 
L 423.655913 69.203177 
L 424.490048 78.193456 
L 425.602228 92.841205 
L 426.436364 105.107971 
L 426.436364 105.107971 
" clip-path="url(#p1a4365463d)" style="fill: none; stroke-dasharray: 11.1,4.8; stroke-dashoffset: 0; stroke: #000000; stroke-width: 3"/>
   </g>
   <g id="line2d_2">
    <path d="M 27.163636 123.479604 
L 29.109952 116.091268 
L 31.334312 106.764763 
L 33.836718 95.322718 
L 34.948898 90.10511 
L 35.504989 88.670017 
L 37.729349 83.551522 
L 38.84153 83.637932 
L 39.95371 84.010825 
L 41.06589 84.699271 
L 42.17807 85.730986 
L 43.290251 87.130918 
L 44.402431 88.931429 
L 45.514611 91.151437 
L 46.626792 93.820195 
L 48.017017 97.825671 
L 49.407242 102.619353 
L 50.797468 108.258857 
L 52.465738 115.592006 
L 52.743783 115.659251 
L 53.299873 115.024085 
L 54.134009 114.403591 
L 54.968144 114.120122 
L 55.524234 114.141194 
L 56.080324 114.346621 
L 56.358369 114.522762 
L 56.636414 114.435337 
L 58.02664 109.831424 
L 59.416865 104.454932 
L 61.363181 95.90076 
L 63.865586 83.726126 
L 69.426488 56.152481 
L 70.260623 53.386546 
L 70.538668 52.81078 
L 70.816713 52.832221 
L 71.928893 54.836774 
L 73.041074 57.266391 
L 74.153254 60.082375 
L 74.709344 62.38627 
L 76.65566 73.006394 
L 79.43611 89.679337 
L 83.884832 116.551586 
L 85.831147 127.017902 
L 86.943327 132.33524 
L 87.221372 132.143902 
L 88.889643 127.765995 
L 92.504229 112.387226 
L 94.172499 107.52876 
L 95.84077 103.332623 
L 97.230995 100.382673 
L 98.621221 97.96899 
L 99.733401 96.451455 
L 100.845581 95.325086 
L 101.679716 94.751351 
L 102.513852 94.42137 
L 103.347987 94.346004 
L 104.182122 94.536757 
L 105.016257 94.999105 
L 105.572347 95.505873 
L 106.128438 96.196441 
L 106.406483 97.871937 
L 108.352798 117.615016 
L 109.743024 129.157376 
L 111.411294 141.614433 
L 112.801519 150.570937 
L 114.191745 158.044605 
L 115.303925 162.835672 
L 116.13806 165.67768 
L 116.972195 167.834749 
L 117.806331 169.271011 
L 118.362421 169.810571 
L 118.918511 170.004 
L 119.474601 169.841302 
L 120.030691 169.312816 
L 120.586781 168.408977 
L 121.142872 167.120648 
L 121.977007 164.448383 
L 122.255052 163.174942 
L 123.645277 152.085948 
L 125.035503 143.085917 
L 126.703773 133.56386 
L 127.259863 130.667466 
L 127.815953 129.393964 
L 130.318359 124.789066 
L 135.601215 115.267563 
L 137.547531 111.169618 
L 139.215801 107.1491 
L 140.049937 104.911712 
L 140.327982 104.915988 
L 141.162117 107.576379 
L 141.440162 109.15436 
L 143.664523 127.575611 
L 145.054748 136.805309 
L 146.723018 146.392765 
L 148.391289 154.66113 
L 149.781514 160.413437 
L 150.893695 164.195153 
L 152.005875 167.194169 
L 152.84001 168.899657 
L 153.674145 170.116126 
L 154.230236 170.645381 
L 154.786326 170.942354 
L 155.342416 171.001386 
L 155.898506 170.816816 
L 156.454596 170.382953 
L 157.010686 169.694599 
L 157.844821 168.188693 
L 158.400912 166.865542 
L 161.181362 156.179525 
L 162.293543 152.078812 
L 165.908129 143.111911 
L 169.522715 134.030146 
L 171.747075 127.868154 
L 173.693391 121.86114 
L 175.917751 114.368031 
L 176.195796 115.109479 
L 177.307977 125.282052 
L 179.532337 145.090378 
L 182.312788 164.377662 
L 185.371284 184.486559 
L 187.595644 197.655072 
L 189.263915 206.318602 
L 190.65414 212.529842 
L 191.766321 216.724564 
L 192.600456 219.192603 
L 193.156546 220.561743 
L 193.990681 211.135139 
L 196.493087 182.656148 
L 197.327222 174.512614 
L 199.273538 162.121878 
L 201.775943 144.587732 
L 205.390529 117.38012 
L 210.117296 81.909004 
L 210.673386 78.155712 
L 210.951431 77.88304 
L 211.507521 82.543555 
L 213.453836 100.713791 
L 217.902558 138.060692 
L 220.126918 154.769657 
L 221.795189 165.686109 
L 223.185414 173.452813 
L 224.297594 178.651995 
L 225.409775 182.839118 
L 226.24391 185.254032 
L 227.078045 186.98982 
L 227.634135 187.757693 
L 228.190225 188.218441 
L 228.46827 188.329336 
L 228.746316 187.770428 
L 230.692631 166.024949 
L 232.360901 147.186539 
L 234.863307 121.723482 
L 240.702254 61.110737 
L 242.648569 43.599447 
L 244.038795 32.790568 
L 245.150975 25.564347 
L 245.707065 22.41546 
L 245.98511 21.927273 
L 246.263155 23.004023 
L 246.5412 25.065147 
L 247.09729 32.458558 
L 248.765561 55.399005 
L 250.433831 75.284726 
L 252.102102 92.864615 
L 253.770372 108.064013 
L 255.160598 118.787805 
L 256.550823 127.640887 
L 257.663003 133.312907 
L 258.775184 137.679771 
L 259.609319 140.070751 
L 260.443454 141.683524 
L 260.999544 142.317522 
L 261.555634 142.589701 
L 262.111724 142.485173 
L 262.667815 142.023502 
L 263.223905 141.198535 
L 263.779995 139.73831 
L 264.336085 137.782207 
L 264.892175 134.392149 
L 267.116536 119.756766 
L 268.784806 111.132089 
L 270.731122 99.740092 
L 272.955482 85.207884 
L 275.457888 67.314718 
L 279.072474 39.586834 
L 280.184654 31.086865 
L 280.462699 30.55761 
L 282.13097 37.328006 
L 282.409015 39.043491 
L 289.916232 106.229418 
L 291.584502 118.75046 
L 292.974728 127.855758 
L 294.364953 135.496739 
L 295.477133 140.393503 
L 296.311269 143.275378 
L 297.145404 145.395287 
L 297.701494 146.25889 
L 298.257584 146.091731 
L 298.813674 145.531038 
L 299.369764 144.568414 
L 299.925855 143.195736 
L 300.2039 142.352159 
L 302.150215 130.365263 
L 314.384199 61.839881 
L 314.662244 60.828407 
L 314.940289 60.653896 
L 315.774424 61.120735 
L 316.886604 62.010301 
L 317.720739 62.772359 
L 317.998785 63.919923 
L 319.110965 73.980985 
L 321.05728 93.623013 
L 324.671866 133.089362 
L 327.452317 162.498986 
L 329.398633 180.715579 
L 330.788858 191.825953 
L 331.901038 199.218164 
L 332.457128 202.158733 
L 333.569309 206.624373 
L 334.125399 208.525474 
L 334.403444 208.804021 
L 335.237579 204.19334 
L 336.071714 199.257755 
L 336.627805 198.929835 
L 337.183895 198.390184 
L 338.01803 197.193647 
L 338.852165 195.539501 
L 339.6863 193.449 
L 340.798481 190.002863 
L 341.910661 185.826906 
L 343.300886 179.614435 
L 344.691112 172.330289 
L 346.359382 162.214317 
L 348.027653 150.638274 
L 349.695923 137.442752 
L 351.086148 126.561584 
L 351.364193 125.755659 
L 351.920284 127.187737 
L 353.032464 130.710809 
L 353.310509 130.987571 
L 353.866599 130.755567 
L 354.422689 130.943613 
L 354.978779 131.522578 
L 355.53487 132.463177 
L 356.369005 134.48951 
L 357.20314 137.163344 
L 358.31532 141.563123 
L 359.705546 148.05131 
L 365.266447 175.288823 
L 366.378628 179.047405 
L 367.212763 181.076137 
L 367.490808 181.585735 
L 367.768853 180.987297 
L 368.324943 178.222593 
L 370.827349 163.542114 
L 372.773664 158.04359 
L 375.554115 150.93337 
L 378.890656 142.395748 
L 380.558926 137.575058 
L 382.227197 132.038451 
L 383.617422 126.629413 
L 384.173512 124.173341 
L 384.451557 124.070781 
L 385.007648 127.18543 
L 385.841783 131.983388 
L 386.953963 136.380152 
L 387.232008 136.650393 
L 388.344188 133.717638 
L 389.178324 132.30454 
L 389.734414 131.755075 
L 390.290504 131.504798 
L 390.846594 131.543189 
L 391.402684 131.856927 
L 391.958774 132.429309 
L 392.79291 133.742924 
L 393.627045 135.558662 
L 394.739225 138.673987 
L 395.851405 142.469177 
L 397.241631 147.973914 
L 399.187946 156.633045 
L 401.412307 166.496556 
L 402.246442 164.99834 
L 402.802532 162.484774 
L 404.192758 155.884183 
L 405.582983 151.400702 
L 406.973208 147.755199 
L 408.085389 145.424265 
L 409.197569 143.60059 
L 410.309749 142.255568 
L 411.143885 141.547373 
L 411.97802 141.088624 
L 412.812155 140.864279 
L 413.64629 140.860711 
L 414.480425 141.065553 
L 415.314561 141.465916 
L 416.426741 142.274824 
L 417.538921 143.365325 
L 418.095011 143.997631 
L 418.373056 144.586932 
L 418.929147 147.582933 
L 420.041327 154.476591 
L 420.875462 155.732989 
L 421.987642 157.94709 
L 423.377868 161.386736 
L 425.324183 166.962872 
L 426.436364 170.273565 
L 426.436364 170.273565 
" clip-path="url(#p1a4365463d)" style="fill: none; stroke: #ff00ff; stroke-width: 3; stroke-linecap: square"/>
   </g>
   <g id="patch_3">
    <path d="M 7.2 331.2 
L 7.2 7.2 
" style="fill: none; stroke: #000000; stroke-width: 0.8; stroke-linejoin: miter; stroke-linecap: square"/>
   </g>
   <g id="patch_4">
    <path d="M 446.4 331.2 
L 446.4 7.2 
" style="fill: none; stroke: #000000; stroke-width: 0.8; stroke-linejoin: miter; stroke-linecap: square"/>
   </g>
   <g id="patch_5">
    <path d="M 7.2 331.2 
L 446.4 331.2 
" style="fill: none; stroke: #000000; stroke-width: 0.8; stroke-linejoin: miter; stroke-linecap: square"/>
   </g>
   <g id="patch_6">
    <path d="M 7.2 7.2 
L 446.4 7.2 
" style="fill: none; stroke: #000000; stroke-width: 0.8; stroke-linejoin: miter; stroke-linecap: square"/>
   </g>
  </g>
 </g>
 <defs>
  <clipPath id="p1a4365463d">
   <rect x="7.2" y="7.2" width="439.2" height="324"/>
  </clipPath>
 </defs>
</svg>
