<?xml version="1.0" encoding="utf-8" standalone="no"?>
<!DOCTYPE svg PUBLIC "-//W3C//DTD SVG 1.1//EN"
  "http://www.w3.org/Graphics/SVG/1.1/DTD/svg11.dtd">
<svg xmlns:xlink="http://www.w3.org/1999/xlink" width="453.6pt" height="338.4pt" viewBox="0 0 453.6 338.4" xmlns="http://www.w3.org/2000/svg" version="1.1">
 <metadata>
  <rdf:RDF xmlns:dc="http://purl.org/dc/elements/1.1/" xmlns:cc="http://creativecommons.org/ns#" xmlns:rdf="http://www.w3.org/1999/02/22-rdf-syntax-ns#">
   <cc:Work>
    <dc:type rdf:resource="http://purl.org/dc/dcmitype/StillImage"/>
    <dc:date>2025-05-15T10:21:14.446073</dc:date>
    <dc:format>image/svg+xml</dc:format>
    <dc:creator>
     <cc:Agent>
      <dc:title>Matplotlib v3.10.1, https://matplotlib.org/</dc:title>
     </cc:Agent>
    </dc:creator>
   </cc:Work>
  </rdf:RDF>
 </metadata>
 <defs>
  <style type="text/css">*{stroke-linejoin: round; stroke-linecap: butt}</style>
 </defs>
 <g id="figure_1">
  <g id="patch_1">
   <path d="M 0 338.4 
L 453.6 338.4 
L 453.6 0 
L 0 0 
z
" style="fill: #ffffff"/>
  </g>
  <g id="axes_1">
   <g id="patch_2">
    <path d="M 7.2 331.2 
L 446.4 331.2 
L 446.4 7.2 
L 7.2 7.2 
z
" style="fill: #ffffff"/>
   </g>
   <g id="matplotlib.axis_1"/>
   <g id="matplotlib.axis_2"/>
   <g id="line2d_1">
    <path d="M 27.163636 188.556472 
L 28.228364 191.470269 
L 31.156364 199.894377 
L 32.221091 202.186709 
L 33.285818 203.903897 
L 34.350545 205.126964 
L 35.415273 205.977451 
L 36.48 206.567693 
L 37.810909 207.05502 
L 39.141818 207.30719 
L 40.206545 207.301818 
L 41.271273 207.047146 
L 42.336 206.493799 
L 43.400727 205.640959 
L 44.731636 204.25712 
L 49.256727 198.996856 
L 50.321455 197.41148 
L 51.652364 194.941093 
L 55.378909 187.481764 
L 57.242182 184.823515 
L 58.306909 183.083978 
L 59.371636 180.854471 
L 61.234909 176.797058 
L 61.767273 176.106376 
L 62.299636 175.831102 
L 62.565818 175.873167 
L 63.098182 176.339085 
L 63.630545 177.306102 
L 64.429091 179.564357 
L 65.76 184.537234 
L 67.090909 189.320012 
L 67.889455 191.537115 
L 68.688 193.16043 
L 69.486545 194.241027 
L 70.285091 194.875959 
L 71.083636 195.146606 
L 71.616 195.141559 
L 72.148364 194.982912 
L 72.680727 194.653942 
L 73.213091 194.129747 
L 73.745455 193.380392 
L 74.544 191.769621 
L 75.342545 189.512183 
L 76.141091 186.603538 
L 77.205818 181.890125 
L 80.133818 168.273362 
L 81.198545 164.57989 
L 82.263273 161.743954 
L 83.328 159.535269 
L 84.658909 157.306553 
L 85.989818 155.484545 
L 87.054545 154.321371 
L 88.119273 153.443329 
L 89.184 152.841272 
L 90.248727 152.474205 
L 91.845818 152.210475 
L 96.903273 151.782277 
L 98.234182 152.014669 
L 99.831273 152.561776 
L 102.493091 153.481286 
L 104.090182 153.783464 
L 105.953455 153.908219 
L 108.082909 153.844666 
L 109.946182 153.587694 
L 111.543273 153.140624 
L 113.406545 152.345166 
L 118.197818 150.101176 
L 120.327273 149.440076 
L 122.722909 148.936527 
L 124.586182 148.760227 
L 126.183273 148.820533 
L 128.312727 149.151785 
L 134.701091 150.50504 
L 136.830545 151.248145 
L 142.154182 153.349122 
L 143.485091 153.49433 
L 144.549818 153.385744 
L 145.614545 153.071329 
L 146.945455 152.444658 
L 151.470545 150.036024 
L 153.067636 149.535284 
L 154.930909 149.205437 
L 157.592727 148.993217 
L 164.247273 148.804241 
L 167.175273 148.844252 
L 169.038545 149.073414 
L 170.901818 149.543448 
L 172.765091 150.276563 
L 176.757818 152.004627 
L 177.822545 152.190776 
L 178.887273 152.158894 
L 179.952 151.910771 
L 181.282909 151.369933 
L 185.009455 149.694256 
L 186.872727 149.209299 
L 189.268364 148.854856 
L 193.261091 148.501272 
L 197.786182 148.346268 
L 199.915636 148.489351 
L 201.778909 148.845902 
L 203.376 149.355525 
L 204.973091 150.1056 
L 206.570182 151.12353 
L 210.030545 153.495524 
L 211.095273 153.93357 
L 212.16 154.155113 
L 213.490909 154.178533 
L 215.354182 153.933588 
L 217.217455 153.49045 
L 218.814545 152.908881 
L 221.476364 151.628502 
L 223.073455 150.974355 
L 224.404364 150.642664 
L 226.001455 150.476441 
L 228.929455 150.223613 
L 233.986909 149.452138 
L 235.850182 149.581036 
L 237.979636 149.946733 
L 239.576727 150.454267 
L 240.907636 151.138049 
L 242.770909 152.428401 
L 244.368 153.494874 
L 245.432727 153.982623 
L 246.497455 154.220212 
L 247.562182 154.225531 
L 249.159273 153.972493 
L 251.821091 153.543804 
L 255.813818 153.021013 
L 258.475636 152.60212 
L 260.338909 152.565972 
L 262.468364 152.527892 
L 263.799273 152.29162 
L 265.396364 151.764176 
L 269.122909 150.422491 
L 271.252364 149.940922 
L 272.849455 149.775981 
L 273.914182 149.844082 
L 274.978909 150.114676 
L 276.043636 150.596631 
L 277.906909 151.761034 
L 279.504 152.688356 
L 280.568727 153.074243 
L 281.633455 153.207741 
L 282.698182 153.098489 
L 284.295273 152.633774 
L 286.424727 151.981664 
L 288.021818 151.740335 
L 292.014545 151.313665 
L 295.474909 150.502442 
L 297.870545 149.804018 
L 299.733818 149.023273 
L 303.194182 147.492752 
L 304.525091 147.179284 
L 305.856 147.090432 
L 307.186909 147.20992 
L 308.517818 147.524335 
L 309.848727 148.036733 
L 311.445818 148.890495 
L 314.906182 150.885695 
L 315.970909 151.241842 
L 317.035636 151.37764 
L 318.100364 151.292948 
L 319.431273 150.950496 
L 325.021091 149.198941 
L 327.416727 148.718215 
L 329.546182 148.540177 
L 331.675636 148.344249 
L 333.006545 148.027656 
L 334.603636 147.413555 
L 336.999273 146.451401 
L 338.064 146.234212 
L 339.128727 146.211898 
L 340.459636 146.414761 
L 343.387636 147.203758 
L 347.114182 148.097618 
L 348.977455 148.369934 
L 350.308364 148.38426 
L 351.639273 148.197829 
L 353.236364 147.747195 
L 360.157091 145.51818 
L 361.488 145.448113 
L 363.085091 145.645673 
L 365.480727 146.003576 
L 366.545455 145.949924 
L 367.610182 145.673483 
L 368.674909 145.166053 
L 370.272 144.089116 
L 372.667636 142.436175 
L 373.998545 141.816474 
L 375.063273 141.564155 
L 376.128 141.576901 
L 376.926545 141.781467 
L 377.991273 142.309243 
L 379.322182 143.265902 
L 381.185455 144.631886 
L 382.250182 145.13296 
L 383.048727 145.288561 
L 383.847273 145.231222 
L 384.645818 144.95989 
L 385.710545 144.300494 
L 387.041455 143.149803 
L 388.904727 141.50794 
L 389.969455 140.867592 
L 390.768 140.618521 
L 391.566545 140.584128 
L 392.365091 140.754653 
L 393.429818 141.253848 
L 394.760727 142.190124 
L 398.221091 144.849865 
L 399.285818 145.308172 
L 400.084364 145.444812 
L 400.882909 145.389071 
L 401.681455 145.145916 
L 402.746182 144.570703 
L 404.343273 143.385496 
L 405.940364 142.266704 
L 407.005091 141.8318 
L 407.803636 141.75759 
L 408.602182 141.921478 
L 409.400727 142.311491 
L 410.465455 143.116499 
L 412.062545 144.675882 
L 414.724364 147.310956 
L 416.055273 148.354326 
L 417.12 148.94427 
L 418.184727 149.244359 
L 418.983273 149.252628 
L 420.048 148.98723 
L 421.645091 148.237717 
L 422.709818 147.812188 
L 423.508364 147.700126 
L 424.306909 147.839084 
L 425.105455 148.238103 
L 426.170182 149.082929 
L 426.436364 149.326909 
L 426.436364 149.326909 
" clip-path="url(#p646f7766cd)" style="fill: none; stroke: #ffa500; stroke-width: 3; stroke-linecap: square"/>
   </g>
   <g id="line2d_2">
    <path d="M 27.163636 248.9436 
L 28.760727 217.52001 
L 29.559273 206.199977 
L 30.091636 201.120929 
L 30.624 198.123923 
L 30.890182 197.379528 
L 31.156364 197.104114 
L 31.422545 197.26327 
L 31.688727 197.815248 
L 32.221091 199.912372 
L 33.019636 204.801154 
L 35.415273 221.22485 
L 36.213818 224.7684 
L 36.746182 226.277775 
L 37.278545 227.049803 
L 37.544727 227.147434 
L 37.810909 227.046687 
L 38.077091 226.742656 
L 38.609455 225.503516 
L 39.141818 223.388029 
L 39.674182 220.358131 
L 40.472727 214.044666 
L 41.271273 205.633462 
L 42.336 191.538168 
L 44.199273 162.379579 
L 45.796364 138.465788 
L 46.861091 125.428374 
L 47.925818 115.218468 
L 48.990545 107.460437 
L 50.055273 101.414547 
L 51.386182 95.250784 
L 52.717091 90.103687 
L 53.781818 86.800438 
L 54.580364 84.919248 
L 55.378909 83.594802 
L 56.177455 82.803857 
L 56.709818 82.534157 
L 57.508364 82.435895 
L 58.306909 82.605664 
L 59.371636 83.129561 
L 60.170182 83.754126 
L 60.968727 84.675584 
L 61.767273 86.030982 
L 62.565818 87.943984 
L 63.364364 90.4697 
L 64.429091 94.69202 
L 68.954182 114.187247 
L 70.018909 117.468849 
L 70.817455 119.393087 
L 71.616 120.727347 
L 72.148364 121.21104 
L 72.680727 121.311163 
L 73.213091 120.981456 
L 73.745455 120.186596 
L 74.277818 118.908587 
L 75.076364 116.098547 
L 75.874909 112.329706 
L 77.205818 104.602345 
L 79.335273 91.955804 
L 80.4 86.903494 
L 81.464727 83.02712 
L 82.263273 80.820682 
L 83.061818 79.104188 
L 83.860364 77.781427 
L 84.658909 76.786232 
L 85.457455 76.079364 
L 86.256 75.636068 
L 87.054545 75.428693 
L 88.119273 75.44804 
L 89.716364 75.810296 
L 91.047273 76.047815 
L 91.845818 76.018479 
L 92.644364 75.797006 
L 93.442909 75.358609 
L 94.507636 74.455514 
L 96.104727 72.674377 
L 97.968 70.66873 
L 99.298909 69.605961 
L 103.025455 67.071519 
L 104.622545 65.408782 
L 106.219636 63.781086 
L 107.018182 63.231768 
L 107.816727 62.963491 
L 108.615273 62.997638 
L 109.413818 63.305504 
L 110.478545 64.018869 
L 114.471273 67.057158 
L 118.464 69.474447 
L 119.794909 70.068077 
L 121.125818 70.421415 
L 122.722909 70.592588 
L 125.118545 70.615517 
L 126.449455 70.44164 
L 127.514182 70.059246 
L 128.578909 69.377799 
L 129.643636 68.412924 
L 132.305455 65.80134 
L 133.370182 65.170718 
L 134.434909 64.845295 
L 136.564364 64.330212 
L 137.362909 63.898064 
L 138.427636 63.061929 
L 140.290909 61.511709 
L 141.089455 61.1507 
L 141.621818 61.08597 
L 142.154182 61.174594 
L 142.952727 61.588746 
L 143.751273 62.29507 
L 144.816 63.550256 
L 147.744 67.232089 
L 149.074909 68.458746 
L 150.405818 69.36005 
L 152.002909 70.143499 
L 153.6 70.685057 
L 155.197091 71.013518 
L 157.326545 71.218048 
L 161.851636 71.356058 
L 165.578182 71.281181 
L 171.434182 71.09849 
L 187.138909 71.091713 
L 198.584727 71.404917 
L 207.102545 71.307304 
L 212.426182 71.550336 
L 218.016 71.563363 
L 236.116364 71.509412 
L 255.281455 71.789031 
L 262.202182 71.396982 
L 266.461091 71.159551 
L 269.655273 71.341171 
L 271.784727 71.338063 
L 277.108364 71.157233 
L 281.367273 71.410096 
L 282.964364 71.714224 
L 286.424727 72.511033 
L 287.489455 72.447023 
L 288.554182 72.172671 
L 293.611636 70.503701 
L 298.402909 69.585982 
L 300 69.350166 
L 301.863273 69.359067 
L 303.194182 69.293722 
L 303.992727 69.065912 
L 304.791273 68.633501 
L 305.856 67.740115 
L 307.719273 65.701304 
L 309.050182 64.387199 
L 310.114909 63.676065 
L 310.913455 63.407682 
L 311.712 63.389775 
L 312.510545 63.628979 
L 313.309091 64.122117 
L 314.107636 64.865362 
L 315.172364 66.240019 
L 316.237091 68.034165 
L 319.165091 73.50356 
L 319.697455 74.03548 
L 320.229818 74.230741 
L 320.762182 74.030037 
L 321.294545 73.399504 
L 321.826909 72.338156 
L 322.625455 70.020184 
L 323.690182 65.984031 
L 325.553455 58.622245 
L 326.618182 55.403319 
L 327.416727 53.681469 
L 328.215273 52.512151 
L 329.013818 51.783091 
L 329.812364 51.355473 
L 331.143273 50.969692 
L 333.272727 50.387473 
L 334.603636 49.792789 
L 335.668364 49.092346 
L 336.733091 48.086547 
L 337.797818 46.681395 
L 338.862545 44.863425 
L 342.322909 38.383158 
L 343.121455 37.502974 
L 343.653818 37.149355 
L 344.186182 36.986556 
L 344.718545 37.007606 
L 345.250909 37.197863 
L 346.049455 37.756714 
L 346.848 38.582334 
L 347.912727 40.002197 
L 349.243636 42.181247 
L 352.970182 48.782969 
L 353.768727 49.508728 
L 354.301091 49.707097 
L 354.833455 49.661363 
L 355.365818 49.37667 
L 355.898182 48.87435 
L 356.696727 47.788389 
L 358.027636 45.440746 
L 360.689455 40.613296 
L 362.020364 38.684774 
L 363.085091 37.482099 
L 364.149818 36.583832 
L 365.214545 35.94036 
L 366.545455 35.37884 
L 369.739636 34.21298 
L 370.538182 33.669648 
L 371.336727 32.876227 
L 372.135273 31.781084 
L 373.2 29.861112 
L 376.394182 23.46055 
L 377.192727 22.504664 
L 377.725091 22.119233 
L 378.257455 21.940826 
L 378.789818 21.962754 
L 379.322182 22.169426 
L 380.120727 22.786582 
L 380.919273 23.709832 
L 381.984 25.308103 
L 383.314909 27.722986 
L 386.509091 33.75132 
L 387.307636 34.780048 
L 388.106182 35.412355 
L 388.638545 35.586039 
L 389.170909 35.559652 
L 389.703273 35.344148 
L 390.501818 34.715405 
L 391.566545 33.467172 
L 396.624 26.813834 
L 397.954909 25.635685 
L 399.019636 24.998726 
L 399.818182 24.735873 
L 400.616727 24.685329 
L 401.415273 24.866404 
L 402.213818 25.281364 
L 403.278545 26.152173 
L 406.738909 29.42986 
L 407.803636 29.946085 
L 408.868364 30.205268 
L 410.731636 30.588311 
L 411.530182 31.019124 
L 412.062545 31.513334 
L 412.594909 32.256386 
L 413.127273 33.345911 
L 413.659636 34.905575 
L 414.192 37.086152 
L 414.724364 40.06059 
L 415.256727 44.013122 
L 416.055273 52.155337 
L 416.853818 63.34153 
L 417.652364 77.703952 
L 418.717091 101.215441 
L 420.580364 149.182473 
L 423.774545 236.64157 
L 426.436364 316.472727 
L 426.436364 316.472727 
" clip-path="url(#p646f7766cd)" style="fill: none; stroke: #ff0000; stroke-width: 3; stroke-linecap: square"/>
   </g>
   <g id="line2d_3">
    <path d="M 27.163636 262.036523 
L 30.091636 280.388617 
L 31.422545 286.795179 
L 34.616727 300.505269 
L 35.415273 303.369915 
L 36.213818 305.391244 
L 36.746182 306.099169 
L 37.012364 306.23274 
L 37.278545 306.211228 
L 37.544727 306.031066 
L 38.077091 305.190212 
L 38.609455 303.717808 
L 39.141818 301.64264 
L 39.940364 297.490621 
L 41.005091 290.242776 
L 42.069818 281.31136 
L 43.400727 268.23837 
L 47.659636 224.470259 
L 48.990545 214.054629 
L 50.587636 203.477174 
L 52.450909 191.146584 
L 54.048 179.013924 
L 60.702545 126.552871 
L 61.501091 121.453685 
L 62.299636 117.897784 
L 62.832 116.538402 
L 63.098182 116.164488 
L 63.364364 115.983711 
L 63.630545 115.981868 
L 63.896727 116.140945 
L 64.429091 116.854783 
L 65.227636 118.550105 
L 66.558545 121.57542 
L 67.357091 122.91658 
L 68.155636 123.810141 
L 68.954182 124.354333 
L 69.752727 124.636076 
L 70.285091 124.668292 
L 70.817455 124.520029 
L 71.349818 124.10923 
L 71.882182 123.335806 
L 72.414545 122.097088 
L 72.946909 120.303257 
L 73.745455 116.446617 
L 74.544 111.174871 
L 75.608727 102.315236 
L 79.069091 71.38241 
L 80.4 62.364804 
L 82.529455 49.975796 
L 84.925091 36.889663 
L 86.256 30.923074 
L 87.320727 27.27739 
L 88.119273 25.218478 
L 88.917818 23.686815 
L 89.716364 22.634036 
L 90.248727 22.188668 
L 90.781091 21.957048 
L 91.313455 21.959313 
L 91.845818 22.225396 
L 92.378182 22.791375 
L 92.910545 23.693522 
L 93.442909 24.961559 
L 94.241455 27.578972 
L 95.04 31.015683 
L 96.104727 36.58931 
L 98.766545 51.006384 
L 99.565091 54.133315 
L 100.363636 56.295652 
L 100.896 57.16079 
L 101.428364 57.571221 
L 101.960727 57.560195 
L 102.493091 57.184543 
L 103.025455 56.522444 
L 104.090182 54.723768 
L 105.154909 52.964734 
L 105.953455 52.071436 
L 106.485818 51.763306 
L 107.018182 51.688305 
L 107.550545 51.815957 
L 108.349091 52.264063 
L 109.68 53.113383 
L 110.478545 53.3571 
L 111.277091 53.286523 
L 112.075636 52.934309 
L 113.672727 51.834057 
L 116.866909 49.511221 
L 117.665455 48.431616 
L 118.464 46.89588 
L 119.262545 44.879384 
L 120.593455 40.722812 
L 122.190545 35.647416 
L 122.989091 33.651794 
L 123.787636 32.278945 
L 124.32 31.764968 
L 124.852364 31.590335 
L 125.384727 31.758121 
L 125.917091 32.264303 
L 126.449455 33.101176 
L 127.248 34.955874 
L 128.046545 37.49783 
L 129.111273 41.866446 
L 130.442182 48.576315 
L 133.636364 65.465155 
L 134.701091 69.724413 
L 135.765818 72.943023 
L 136.564364 74.748194 
L 137.629091 76.559072 
L 138.96 78.28122 
L 144.017455 84.356359 
L 145.348364 85.796342 
L 146.146909 86.325997 
L 146.679273 86.46111 
L 147.211636 86.38676 
L 147.744 86.084511 
L 148.276364 85.548728 
L 149.074909 84.32467 
L 149.873455 82.653242 
L 150.938182 79.870326 
L 152.269091 75.754081 
L 155.729455 64.59647 
L 156.528 62.841545 
L 157.326545 61.703125 
L 157.858909 61.305248 
L 158.391273 61.18346 
L 158.923636 61.31083 
L 159.456 61.653476 
L 160.254545 62.498284 
L 161.053091 63.668551 
L 162.117818 65.691631 
L 163.182545 68.285132 
L 164.247273 71.469876 
L 168.24 84.249634 
L 169.038545 85.800239 
L 169.837091 86.815659 
L 170.369455 87.215433 
L 170.901818 87.425249 
L 171.700364 87.467664 
L 173.031273 87.187642 
L 174.096 87.039958 
L 174.894545 87.141223 
L 175.693091 87.472106 
L 176.757818 88.237402 
L 178.354909 89.772101 
L 180.218182 91.51177 
L 181.549091 92.473556 
L 182.613818 93.002386 
L 183.412364 93.209129 
L 184.210909 93.200439 
L 185.009455 92.92642 
L 185.808 92.353822 
L 186.606545 91.487157 
L 187.671273 89.98448 
L 189.534545 87.312449 
L 190.333091 86.567361 
L 190.865455 86.288848 
L 191.397818 86.192973 
L 191.930182 86.266499 
L 192.728727 86.628281 
L 194.592 87.93187 
L 195.922909 88.68291 
L 199.117091 90.180671 
L 200.448 91.220196 
L 203.376 93.711344 
L 204.440727 94.232835 
L 205.505455 94.455572 
L 208.433455 94.743284 
L 209.498182 95.236001 
L 210.829091 96.175824 
L 213.757091 98.388845 
L 216.418909 100.006533 
L 221.210182 102.683585 
L 222.807273 103.260115 
L 226.267636 104.345356 
L 228.130909 105.245186 
L 229.994182 106.380111 
L 231.325091 107.447779 
L 232.922182 109.052317 
L 236.382545 112.677056 
L 237.447273 113.49704 
L 238.245818 113.83621 
L 238.778182 113.847832 
L 239.310545 113.626711 
L 239.842909 113.122565 
L 240.375273 112.297507 
L 241.173818 110.432486 
L 241.972364 107.90196 
L 244.368 99.71617 
L 244.900364 98.671343 
L 245.432727 98.168602 
L 245.698909 98.138001 
L 245.965091 98.257103 
L 246.497455 98.930562 
L 247.029818 100.128146 
L 247.828364 102.662816 
L 250.224 111.048185 
L 251.022545 112.858904 
L 251.821091 113.996621 
L 252.619636 114.601962 
L 253.418182 114.880633 
L 256.612364 115.638607 
L 259.274182 116.764807 
L 261.137455 117.719851 
L 262.468364 118.638361 
L 263.799273 119.880485 
L 265.130182 121.466431 
L 266.993455 124.092218 
L 268.058182 125.939999 
L 268.856727 127.852527 
L 269.389091 129.590388 
L 270.187636 133.216742 
L 270.986182 138.376462 
L 271.784727 145.173585 
L 273.115636 159.222838 
L 274.712727 176.329218 
L 275.777455 185.208893 
L 276.576 190.077389 
L 277.374545 193.6297 
L 278.173091 196.260938 
L 279.237818 198.965913 
L 280.568727 201.648547 
L 281.633455 203.235249 
L 282.432 204.002159 
L 283.230545 204.372614 
L 283.762909 204.412134 
L 284.561455 204.21459 
L 285.626182 203.648673 
L 286.957091 202.927531 
L 287.755636 202.738529 
L 288.554182 202.852364 
L 289.352727 203.288804 
L 290.417455 204.264678 
L 292.546909 206.429183 
L 293.345455 206.965527 
L 294.410182 207.385667 
L 296.273455 207.94982 
L 297.072 208.447391 
L 297.870545 209.207183 
L 298.935273 210.583806 
L 301.330909 213.909281 
L 302.129455 214.63511 
L 302.928 215.020382 
L 303.460364 215.067793 
L 303.992727 214.943231 
L 304.791273 214.446915 
L 305.589818 213.633656 
L 308.251636 210.477055 
L 308.784 210.18972 
L 309.316364 210.135102 
L 309.848727 210.340318 
L 310.381091 210.817734 
L 310.913455 211.567308 
L 311.712 213.182881 
L 312.510545 215.352626 
L 313.575273 219.045422 
L 314.906182 224.764739 
L 317.301818 235.503704 
L 318.100364 237.86375 
L 318.632727 238.757988 
L 318.898909 238.971613 
L 319.165091 239.022219 
L 319.431273 238.90791 
L 319.963636 238.192228 
L 320.496 236.869678 
L 321.294545 233.952527 
L 322.625455 227.72996 
L 323.956364 221.741917 
L 324.754909 218.955113 
L 325.553455 216.960685 
L 326.085818 216.066684 
L 326.618182 215.48651 
L 327.150545 215.17601 
L 327.682909 215.085464 
L 328.481455 215.254469 
L 329.546182 215.824118 
L 332.208 217.467069 
L 333.006545 217.67778 
L 333.538909 217.662391 
L 334.071273 217.489541 
L 334.603636 217.135607 
L 335.402182 216.236111 
L 336.200727 214.906697 
L 337.265455 212.641621 
L 338.862545 209.18752 
L 339.661091 207.99257 
L 340.193455 207.551468 
L 340.725818 207.450107 
L 341.258182 207.715786 
L 341.790545 208.356924 
L 342.322909 209.364865 
L 343.121455 211.50939 
L 344.186182 215.339125 
L 345.783273 222.290709 
L 347.380364 229.16199 
L 348.445091 232.838792 
L 349.243636 234.841244 
L 349.776 235.769585 
L 350.308364 236.367622 
L 350.840727 236.646521 
L 351.373091 236.628332 
L 351.905455 236.342095 
L 352.437818 235.820761 
L 353.236364 234.673406 
L 354.301091 232.642943 
L 359.092364 222.649717 
L 360.423273 220.639462 
L 361.488 219.344493 
L 362.552727 218.420471 
L 363.351273 218.037437 
L 364.149818 217.949981 
L 364.948364 218.146471 
L 365.746909 218.574071 
L 367.610182 219.958077 
L 368.941091 220.78697 
L 372.135273 222.457002 
L 372.933818 223.373036 
L 373.732364 224.670919 
L 374.797091 226.974952 
L 376.660364 231.863278 
L 377.991273 235.018966 
L 378.789818 236.455921 
L 379.588364 237.512484 
L 380.653091 238.503299 
L 381.984 239.681817 
L 382.782545 240.665855 
L 383.581091 241.958646 
L 384.645818 244.12901 
L 385.976727 247.418249 
L 387.041455 250.563496 
L 388.106182 254.392147 
L 389.170909 259.025863 
L 392.365091 273.701576 
L 393.163636 276.097437 
L 393.962182 277.677252 
L 394.494545 278.30664 
L 395.026909 278.645191 
L 395.559273 278.745376 
L 396.357818 278.568382 
L 397.422545 277.987542 
L 399.019636 277.084939 
L 399.818182 276.902143 
L 400.350545 276.954368 
L 400.882909 277.169898 
L 401.681455 277.811027 
L 402.48 278.800929 
L 403.544727 280.538559 
L 404.875636 283.21992 
L 405.940364 285.850173 
L 407.005091 289.050882 
L 409.400727 296.648791 
L 409.933091 297.719461 
L 410.465455 298.348631 
L 410.997818 298.502107 
L 411.530182 298.202275 
L 412.062545 297.526643 
L 413.127273 295.558731 
L 414.192 293.752236 
L 414.724364 293.229037 
L 415.256727 293.068788 
L 415.789091 293.31036 
L 416.321455 293.96384 
L 416.853818 295.018717 
L 417.652364 297.300529 
L 418.450909 300.321238 
L 419.781818 306.523091 
L 421.112727 312.791295 
L 421.911273 315.473411 
L 422.443636 316.368468 
L 422.709818 316.472727 
L 422.976 316.320842 
L 423.242182 315.89752 
L 423.774545 314.201517 
L 424.306909 311.374673 
L 425.105455 305.240971 
L 426.170182 294.718817 
L 426.436364 291.920236 
L 426.436364 291.920236 
" clip-path="url(#p646f7766cd)" style="fill: none; stroke: #0000ff; stroke-width: 3; stroke-linecap: square"/>
   </g>
   <g id="patch_3">
    <path d="M 7.2 331.2 
L 7.2 7.2 
" style="fill: none; stroke: #000000; stroke-width: 0.8; stroke-linejoin: miter; stroke-linecap: square"/>
   </g>
   <g id="patch_4">
    <path d="M 446.4 331.2 
L 446.4 7.2 
" style="fill: none; stroke: #000000; stroke-width: 0.8; stroke-linejoin: miter; stroke-linecap: square"/>
   </g>
   <g id="patch_5">
    <path d="M 7.2 331.2 
L 446.4 331.2 
" style="fill: none; stroke: #000000; stroke-width: 0.8; stroke-linejoin: miter; stroke-linecap: square"/>
   </g>
   <g id="patch_6">
    <path d="M 7.2 7.2 
L 446.4 7.2 
" style="fill: none; stroke: #000000; stroke-width: 0.8; stroke-linejoin: miter; stroke-linecap: square"/>
   </g>
  </g>
 </g>
 <defs>
  <clipPath id="p646f7766cd">
   <rect x="7.2" y="7.2" width="439.2" height="324"/>
  </clipPath>
 </defs>
</svg>
