<?xml version="1.0" encoding="utf-8" standalone="no"?>
<!DOCTYPE svg PUBLIC "-//W3C//DTD SVG 1.1//EN"
  "http://www.w3.org/Graphics/SVG/1.1/DTD/svg11.dtd">
<svg xmlns:xlink="http://www.w3.org/1999/xlink" width="453.6pt" height="338.4pt" viewBox="0 0 453.6 338.4" xmlns="http://www.w3.org/2000/svg" version="1.1">
 <metadata>
  <rdf:RDF xmlns:dc="http://purl.org/dc/elements/1.1/" xmlns:cc="http://creativecommons.org/ns#" xmlns:rdf="http://www.w3.org/1999/02/22-rdf-syntax-ns#">
   <cc:Work>
    <dc:type rdf:resource="http://purl.org/dc/dcmitype/StillImage"/>
    <dc:date>2025-05-15T17:17:29.802737</dc:date>
    <dc:format>image/svg+xml</dc:format>
    <dc:creator>
     <cc:Agent>
      <dc:title>Matplotlib v3.10.1, https://matplotlib.org/</dc:title>
     </cc:Agent>
    </dc:creator>
   </cc:Work>
  </rdf:RDF>
 </metadata>
 <defs>
  <style type="text/css">*{stroke-linejoin: round; stroke-linecap: butt}</style>
 </defs>
 <g id="figure_1">
  <g id="patch_1">
   <path d="M 0 338.4 
L 453.6 338.4 
L 453.6 0 
L 0 0 
z
" style="fill: #ffffff"/>
  </g>
  <g id="axes_1">
   <g id="patch_2">
    <path d="M 7.2 331.2 
L 446.4 331.2 
L 446.4 7.2 
L 7.2 7.2 
z
" style="fill: #ffffff"/>
   </g>
   <g id="matplotlib.axis_1"/>
   <g id="matplotlib.axis_2"/>
   <g id="line2d_1">
    <path d="M 27.163636 241.395772 
L 27.719727 240.096618 
L 28.275817 238.328817 
L 28.831907 236.018003 
L 29.666042 231.267736 
L 30.500177 224.893856 
L 32.446493 208.582186 
L 33.002583 205.717504 
L 33.280628 204.905037 
L 33.558673 204.571045 
L 33.836718 204.749262 
L 34.114763 205.462426 
L 34.392808 206.720363 
L 34.948898 210.848408 
L 35.504989 216.969997 
L 36.339124 229.182811 
L 37.729349 254.12681 
L 39.675665 288.823342 
L 40.787845 304.366844 
L 41.62198 312.36155 
L 42.17807 315.443613 
L 42.456115 316.224836 
L 42.734161 316.472727 
L 43.012206 316.177752 
L 43.290251 315.335069 
L 43.846341 312.040905 
L 44.402431 306.749385 
L 45.236566 295.75505 
L 46.904837 268.46078 
L 48.017017 251.490365 
L 48.851152 241.392545 
L 49.685287 234.151926 
L 50.241378 230.969974 
L 50.797468 229.044931 
L 51.075513 228.521279 
L 51.353558 228.261801 
L 51.631603 228.245372 
L 51.909648 228.442072 
L 52.465738 229.34152 
L 54.134009 232.888709 
L 54.412054 233.057392 
L 54.690099 232.959409 
L 54.968144 232.542248 
L 55.246189 231.761318 
L 55.802279 228.953549 
L 56.358369 224.305665 
L 56.914459 217.731272 
L 57.748595 204.432724 
L 58.860775 181.590078 
L 63.031451 87.999036 
L 63.865586 74.803752 
L 64.421676 68.190342 
L 64.977767 63.673444 
L 65.255812 62.282321 
L 65.533857 61.503151 
L 65.811902 61.349869 
L 66.089947 61.831716 
L 66.367992 62.946786 
L 66.924082 67.021 
L 67.480172 73.36085 
L 68.314307 86.291668 
L 71.650848 144.96293 
L 72.484984 153.792398 
L 73.041074 157.630162 
L 73.597164 159.837566 
L 73.875209 160.34787 
L 74.153254 160.474162 
L 74.431299 160.227004 
L 74.709344 159.616518 
L 75.265434 157.343988 
L 75.821524 153.73666 
L 76.65566 146.025341 
L 77.489795 135.953191 
L 79.158065 111.930349 
L 80.270246 96.931181 
L 81.104381 88.514473 
L 81.660471 84.876782 
L 82.216561 83.05471 
L 82.494606 82.850676 
L 82.772651 83.117929 
L 83.050696 83.846054 
L 83.606787 86.609233 
L 84.162877 90.931191 
L 84.997012 99.691426 
L 88.333553 139.079552 
L 88.889643 143.075878 
L 89.445733 145.752515 
L 89.723778 146.570995 
L 90.001823 147.041548 
L 90.279868 147.16828 
L 90.557913 146.961607 
L 90.835958 146.435902 
L 91.392049 144.514673 
L 91.948139 141.616841 
L 93.060319 134.018467 
L 94.450544 124.363185 
L 95.28468 120.153731 
L 95.84077 118.390037 
L 96.39686 117.551462 
L 96.674905 117.479441 
L 96.95295 117.630523 
L 97.230995 117.995612 
L 97.787085 119.310608 
L 98.343175 121.289483 
L 99.177311 125.160543 
L 103.069942 145.039498 
L 104.182122 149.056359 
L 105.016257 151.391082 
L 105.850393 153.126466 
L 106.684528 154.274539 
L 107.518663 154.909962 
L 108.352798 155.20039 
L 109.464978 155.50094 
L 110.021069 155.815717 
L 110.577159 156.358731 
L 111.133249 157.202294 
L 111.689339 158.401852 
L 112.523474 160.955276 
L 113.35761 164.492931 
L 114.191745 169.088302 
L 115.02588 174.842748 
L 115.860015 181.87464 
L 116.972195 193.358449 
L 118.362421 210.679872 
L 120.586781 239.30498 
L 121.420917 247.40691 
L 121.977007 251.235433 
L 122.533097 253.54214 
L 122.811142 254.073419 
L 123.089187 254.171988 
L 123.367232 253.831541 
L 123.645277 253.051198 
L 124.201367 250.198398 
L 124.757458 245.727705 
L 125.591593 236.473741 
L 126.981818 217.122252 
L 128.372044 198.6928 
L 129.206179 190.817052 
L 129.762269 187.546944 
L 130.040314 186.573862 
L 130.318359 186.055931 
L 130.596404 185.995205 
L 130.874449 186.385816 
L 131.152494 187.214418 
L 131.708584 190.107849 
L 132.264675 194.458117 
L 133.09881 203.065657 
L 136.157306 238.229074 
L 136.991441 244.572591 
L 137.547531 247.557845 
L 138.103621 249.575883 
L 138.659711 250.718529 
L 138.937756 251.004117 
L 139.215801 251.123809 
L 139.493847 251.099313 
L 140.049937 250.700047 
L 140.606027 249.966495 
L 141.718207 248.017103 
L 143.664523 244.579338 
L 145.610838 241.655691 
L 148.669334 237.505643 
L 150.337604 235.152585 
L 151.449785 233.229009 
L 152.561965 230.756699 
L 153.674145 227.573866 
L 154.786326 223.646627 
L 156.176551 217.872672 
L 159.235047 204.7918 
L 160.069182 202.314649 
L 160.625272 201.216008 
L 161.181362 200.644685 
L 161.459407 200.571051 
L 161.737453 200.642485 
L 162.015498 200.86016 
L 162.571588 201.717364 
L 163.127678 203.091912 
L 163.961813 205.908189 
L 166.186174 214.297468 
L 166.742264 215.736262 
L 167.298354 216.670914 
L 167.854444 217.050378 
L 168.132489 217.028083 
L 168.410534 216.86644 
L 168.966624 216.147849 
L 169.522715 214.946825 
L 170.35685 212.381813 
L 171.190985 209.0699 
L 172.303165 203.685531 
L 173.415346 197.253418 
L 174.805571 187.720174 
L 176.473841 174.451843 
L 179.254292 151.925001 
L 180.366473 144.48387 
L 181.478653 138.530524 
L 182.312788 135.06621 
L 183.146923 132.373146 
L 183.981058 130.331492 
L 184.815194 128.833878 
L 185.649329 127.836593 
L 186.205419 127.472677 
L 186.761509 127.392003 
L 187.317599 127.646348 
L 187.87369 128.293651 
L 188.42978 129.385399 
L 188.98587 130.959287 
L 189.820005 134.239369 
L 190.65414 138.528324 
L 192.044366 147.175761 
L 193.990681 159.283405 
L 195.102861 164.675842 
L 195.936997 167.784161 
L 197.049177 171.057643 
L 198.439402 175.067464 
L 199.273538 178.136765 
L 200.385718 183.346144 
L 202.610079 194.754559 
L 203.166169 196.76101 
L 203.722259 198.075126 
L 204.000304 198.440068 
L 204.278349 198.604058 
L 204.556394 198.565481 
L 204.834439 198.330351 
L 205.390529 197.310184 
L 205.946619 195.668676 
L 206.780755 192.42497 
L 208.449025 185.586698 
L 209.28316 183.200637 
L 209.83925 182.313949 
L 210.117296 182.122824 
L 210.395341 182.116663 
L 210.673386 182.308376 
L 210.951431 182.705735 
L 211.507521 184.161251 
L 212.063611 186.547752 
L 212.619701 189.899415 
L 213.453836 196.69119 
L 214.566017 208.410862 
L 216.512332 229.739466 
L 217.068422 233.972829 
L 217.624513 236.569964 
L 217.902558 237.144367 
L 218.180603 237.190865 
L 218.458648 236.690096 
L 218.736693 235.627098 
L 219.292783 231.824978 
L 219.848873 225.907129 
L 220.683008 213.733919 
L 223.741504 162.532391 
L 224.297594 156.935187 
L 224.853684 153.489649 
L 225.13173 152.628924 
L 225.409775 152.357271 
L 225.68782 152.676009 
L 225.965865 153.578684 
L 226.521955 157.086122 
L 227.078045 162.717649 
L 227.91218 174.616713 
L 229.024361 195.256942 
L 232.082856 255.795308 
L 232.916992 266.834233 
L 233.473082 271.820804 
L 234.029172 274.759706 
L 234.307217 275.457174 
L 234.585262 275.65358 
L 234.863307 275.367406 
L 235.141352 274.624319 
L 235.697442 271.892677 
L 236.253533 267.75319 
L 237.087668 259.648033 
L 240.146164 226.938884 
L 240.980299 221.178717 
L 241.536389 218.860716 
L 241.814434 218.232628 
L 242.092479 217.984297 
L 242.370524 218.131271 
L 242.648569 218.682645 
L 242.926614 219.64194 
L 243.482704 222.758033 
L 244.038795 227.348417 
L 244.87293 236.377225 
L 246.819245 259.260355 
L 247.375336 263.909119 
L 247.931426 266.943217 
L 248.209471 267.780766 
L 248.487516 268.148056 
L 248.765561 268.041272 
L 249.043606 267.468482 
L 249.321651 266.442741 
L 249.877741 263.124375 
L 250.433831 258.302674 
L 251.267967 248.792459 
L 252.380147 232.998133 
L 254.048417 205.13782 
L 255.994733 172.435858 
L 256.828868 161.731512 
L 257.384958 156.746556 
L 257.941048 153.87498 
L 258.219093 153.29955 
L 258.497139 153.313631 
L 258.775184 153.915904 
L 259.053229 155.096247 
L 259.609319 159.088906 
L 260.165409 164.9959 
L 260.999544 176.49335 
L 263.50195 213.445837 
L 264.336085 221.528992 
L 264.892175 224.957076 
L 265.448265 226.719889 
L 265.72631 226.974087 
L 266.004356 226.812151 
L 266.282401 226.242002 
L 266.838491 223.906546 
L 267.394581 220.042672 
L 267.950671 214.743378 
L 268.784806 204.369651 
L 269.896987 186.964913 
L 272.677437 140.826083 
L 273.511573 130.817593 
L 274.345708 123.349618 
L 275.457888 116.005883 
L 276.570068 108.867941 
L 277.404204 102.056071 
L 278.516384 90.475599 
L 280.740744 65.555656 
L 281.57488 58.37503 
L 282.409015 52.712113 
L 283.79924 45.130901 
L 286.301646 32.661395 
L 287.135781 29.739508 
L 287.691871 28.454581 
L 288.247962 27.672624 
L 288.804052 27.265584 
L 290.194277 26.596132 
L 290.750367 26.013808 
L 291.584502 24.639113 
L 292.696683 22.582497 
L 293.252773 21.995479 
L 293.530818 21.927273 
L 293.808863 22.046524 
L 294.086908 22.374063 
L 294.642998 23.709888 
L 295.199088 25.97215 
L 296.033224 30.932318 
L 297.145404 39.561567 
L 300.481945 68.717807 
L 303.818486 98.295755 
L 304.652621 103.766666 
L 305.486756 107.956465 
L 306.598936 112.114287 
L 308.267207 117.991358 
L 309.657432 124.140816 
L 311.047658 130.060132 
L 311.603748 131.774687 
L 312.159838 132.936988 
L 312.715928 133.524299 
L 312.993973 133.615241 
L 313.550063 133.451105 
L 314.106153 132.927013 
L 314.940289 131.706187 
L 315.774424 130.133325 
L 316.608559 128.097392 
L 317.442694 125.259846 
L 318.27683 121.354756 
L 320.779235 108.079384 
L 321.05728 107.477844 
L 321.335325 107.273958 
L 321.61337 107.524636 
L 321.891416 108.279163 
L 322.169461 109.577291 
L 322.725551 113.926825 
L 323.281641 120.697478 
L 324.115776 135.239441 
L 324.949911 154.24535 
L 326.618182 199.453928 
L 328.008407 235.210964 
L 328.842542 251.583507 
L 329.398633 259.213124 
L 329.954723 263.690711 
L 330.232768 264.647365 
L 330.510813 264.714251 
L 330.788858 263.88213 
L 331.066903 262.152906 
L 331.622993 256.076936 
L 332.179083 246.770607 
L 333.013219 227.875883 
L 336.349759 143.049182 
L 336.90585 135.203944 
L 337.46194 130.605198 
L 337.739985 129.589872 
L 338.01803 129.445831 
L 338.296075 130.169996 
L 338.57412 131.748871 
L 339.13021 137.36969 
L 339.6863 146.004953 
L 340.520436 163.586588 
L 341.910661 199.882237 
L 343.300886 234.79747 
L 344.135022 250.53239 
L 344.691112 257.782543 
L 345.247202 262.106408 
L 345.525247 263.129949 
L 345.803292 263.392215 
L 346.081337 262.902007 
L 346.359382 261.675899 
L 346.915472 257.119838 
L 347.471562 249.98923 
L 348.305698 235.252328 
L 349.417878 210.428754 
L 351.364193 165.294983 
L 352.198329 150.711802 
L 352.754419 143.991168 
L 353.310509 140.111013 
L 353.588554 139.299427 
L 353.866599 139.247062 
L 354.144644 139.942037 
L 354.422689 141.360296 
L 354.978779 146.197105 
L 355.53487 153.314365 
L 356.369005 166.955266 
L 358.593365 205.441743 
L 359.427501 216.056027 
L 360.261636 223.528989 
L 360.817726 226.794696 
L 361.373816 228.777385 
L 361.651861 229.314384 
L 361.929906 229.560662 
L 362.207951 229.523551 
L 362.485996 229.2076 
L 362.764042 228.617649 
L 363.320132 226.62616 
L 363.876222 223.563605 
L 364.710357 217.030283 
L 365.544492 208.422597 
L 367.212763 187.712694 
L 368.324943 174.801384 
L 369.159078 167.543164 
L 369.715168 164.306059 
L 370.271259 162.449956 
L 370.549304 162.024728 
L 370.827349 161.91237 
L 371.105394 162.086627 
L 371.383439 162.515669 
L 371.939529 163.98028 
L 373.051709 168.131355 
L 373.885845 170.927096 
L 374.441935 172.064168 
L 374.71998 172.324967 
L 374.998025 172.351517 
L 375.27607 172.126508 
L 375.554115 171.637473 
L 376.110205 169.838723 
L 376.666295 166.943531 
L 377.50043 160.68861 
L 378.612611 149.590719 
L 381.115016 122.85985 
L 381.949152 116.327848 
L 382.783287 111.63772 
L 383.339377 109.457746 
L 383.895467 107.895886 
L 384.451557 106.802965 
L 385.285693 105.732486 
L 386.119828 105.052326 
L 386.953963 104.685183 
L 387.510053 104.697504 
L 388.066143 105.028857 
L 388.622233 105.789252 
L 389.178324 107.076672 
L 389.734414 108.95463 
L 390.568549 112.895951 
L 391.402684 118.009547 
L 393.349 132.035339 
L 394.739225 141.215668 
L 395.851405 147.189109 
L 397.241631 153.261266 
L 398.909901 159.527042 
L 400.022082 163.145518 
L 400.856217 165.301877 
L 401.690352 166.785703 
L 402.246442 167.369053 
L 402.802532 167.658308 
L 403.358622 167.717421 
L 405.582983 167.601983 
L 406.139073 167.900332 
L 406.973208 168.674222 
L 408.363434 170.186064 
L 408.919524 170.533551 
L 409.475614 170.567288 
L 410.031704 170.216427 
L 410.587794 169.456912 
L 411.143885 168.313093 
L 411.97802 166.025601 
L 414.480425 158.490447 
L 415.036516 157.448571 
L 415.592606 156.904678 
L 415.870651 156.859647 
L 416.148696 156.985792 
L 416.426741 157.300863 
L 416.982831 158.546773 
L 417.538921 160.691543 
L 418.095011 163.792675 
L 418.929147 170.238135 
L 419.763282 178.639735 
L 421.153507 195.688331 
L 423.655913 227.131623 
L 424.768093 237.818367 
L 425.602228 243.767165 
L 426.436364 247.976766 
L 426.436364 247.976766 
" clip-path="url(#p2ecd40f8bf)" style="fill: none; stroke-dasharray: 11.1,4.8; stroke-dashoffset: 0; stroke: #000000; stroke-width: 3"/>
   </g>
   <g id="line2d_2">
    <path d="M 27.163636 179.038707 
L 27.441681 174.905088 
L 27.719727 175.84194 
L 27.997772 180.415163 
L 28.275817 195.461122 
L 28.553862 192.450346 
L 28.831907 176.708678 
L 29.109952 181.972769 
L 29.387997 183.683804 
L 29.666042 182.536025 
L 29.944087 167.295566 
L 30.222132 181.165583 
L 30.500177 186.319663 
L 30.778222 177.820521 
L 31.056267 176.668194 
L 31.334312 176.118727 
L 31.612358 171.861162 
L 31.890403 187.289079 
L 32.168448 165.627802 
L 32.446493 168.121527 
L 33.002583 180.572698 
L 33.280628 172.604395 
L 33.558673 169.479354 
L 33.836718 178.721436 
L 34.114763 178.557007 
L 34.392808 166.057724 
L 34.670853 171.959585 
L 34.948898 209.409614 
L 35.226944 169.228823 
L 35.504989 174.637541 
L 35.783034 169.751154 
L 36.061079 187.370487 
L 36.339124 172.654706 
L 36.617169 168.876348 
L 36.895214 169.786211 
L 37.173259 178.748719 
L 37.451304 170.396258 
L 37.729349 178.973874 
L 38.007394 169.292482 
L 38.285439 177.546814 
L 38.563484 174.681986 
L 38.84153 162.174049 
L 39.119575 163.158426 
L 39.39762 193.832522 
L 39.675665 164.45098 
L 40.231755 161.162976 
L 40.5098 158.348166 
L 40.787845 176.717039 
L 41.06589 168.173452 
L 41.343935 164.511999 
L 41.62198 175.573073 
L 41.900025 170.068865 
L 42.17807 167.396629 
L 42.456115 168.254127 
L 42.734161 177.98451 
L 43.012206 177.233797 
L 43.290251 154.11495 
L 43.846341 170.96054 
L 44.124386 174.074433 
L 44.402431 160.764004 
L 44.680476 161.310538 
L 44.958521 157.03449 
L 45.236566 182.194111 
L 45.514611 162.434261 
L 45.792656 162.105989 
L 46.070701 162.224801 
L 46.348747 162.845555 
L 46.626792 168.774552 
L 47.182882 157.555355 
L 47.460927 152.962917 
L 48.295062 178.106256 
L 48.573107 159.732396 
L 48.851152 166.222007 
L 49.129197 167.458089 
L 49.407242 161.004414 
L 49.685287 179.199617 
L 49.963332 159.664189 
L 50.241378 162.406832 
L 51.075513 167.224572 
L 51.353558 164.374706 
L 51.631603 159.648494 
L 51.909648 167.342357 
L 52.187693 162.710462 
L 52.743783 178.870171 
L 53.021828 160.861693 
L 53.299873 166.07914 
L 53.577918 165.044011 
L 53.855964 158.542665 
L 54.134009 197.611907 
L 54.412054 170.066959 
L 54.690099 165.907083 
L 54.968144 169.74382 
L 55.246189 171.768019 
L 55.524234 170.822953 
L 55.802279 177.658878 
L 56.080324 167.021566 
L 56.358369 181.168223 
L 56.636414 165.761135 
L 56.914459 179.992428 
L 57.192504 208.980571 
L 57.47055 164.782479 
L 57.748595 171.827278 
L 58.02664 171.613124 
L 58.304685 166.402132 
L 58.58273 168.347269 
L 58.860775 168.48911 
L 59.13882 178.880732 
L 59.416865 169.572497 
L 59.69491 174.6924 
L 59.972955 168.761204 
L 60.251 167.872023 
L 60.529045 162.585343 
L 60.80709 182.140279 
L 61.085135 168.137516 
L 61.363181 171.897539 
L 61.641226 185.551641 
L 62.197316 170.142793 
L 62.475361 173.397646 
L 62.753406 170.531644 
L 63.031451 164.139429 
L 63.309496 190.907554 
L 63.587541 171.694092 
L 63.865586 190.385956 
L 64.143631 187.743643 
L 64.421676 170.787896 
L 64.699721 180.59206 
L 64.977767 185.7435 
L 65.255812 182.726417 
L 65.533857 168.285957 
L 65.811902 179.095473 
L 66.089947 208.227657 
L 66.367992 166.168762 
L 66.646037 175.213998 
L 66.924082 174.18635 
L 67.202127 163.894178 
L 67.480172 184.452413 
L 67.758217 170.876051 
L 68.036262 175.346598 
L 68.314307 214.094754 
L 68.870398 171.67957 
L 69.148443 171.145651 
L 69.426488 182.459017 
L 69.704533 181.919817 
L 69.982578 184.895243 
L 70.260623 170.107443 
L 70.538668 198.668157 
L 70.816713 172.576965 
L 71.094758 164.938841 
L 71.372803 164.463008 
L 71.650848 181.934925 
L 71.928893 165.731652 
L 72.206938 167.249068 
L 72.484984 168.061681 
L 72.763029 171.719174 
L 73.041074 171.276197 
L 73.319119 171.759072 
L 73.597164 171.166187 
L 73.875209 183.711967 
L 74.153254 181.853077 
L 74.431299 182.486446 
L 74.709344 170.150713 
L 74.987389 171.53905 
L 75.265434 184.380979 
L 75.543479 166.979762 
L 75.821524 162.902467 
L 76.09957 178.634014 
L 76.377615 182.966974 
L 76.65566 171.690572 
L 76.933705 170.532231 
L 77.21175 170.226694 
L 77.489795 182.298695 
L 77.76784 168.426477 
L 78.045885 168.122994 
L 78.32393 186.727583 
L 78.601975 181.656671 
L 78.88002 181.573797 
L 79.158065 167.214011 
L 79.43611 167.046208 
L 79.714155 192.209349 
L 79.992201 170.469011 
L 80.270246 160.494991 
L 80.548291 165.168544 
L 80.826336 182.246623 
L 81.104381 163.395023 
L 81.382426 174.064605 
L 81.660471 162.650029 
L 81.938516 183.979953 
L 82.216561 163.556812 
L 82.494606 174.064165 
L 82.772651 163.623405 
L 83.050696 167.98042 
L 83.328741 165.831982 
L 83.606787 170.86593 
L 83.884832 197.865519 
L 84.162877 174.373809 
L 84.440922 163.917354 
L 84.718967 164.414309 
L 84.997012 157.896975 
L 85.275057 186.55626 
L 85.553102 164.395681 
L 85.831147 171.716681 
L 86.109192 173.589358 
L 86.387237 191.765345 
L 86.665282 168.210856 
L 86.943327 174.383636 
L 87.221372 167.381961 
L 87.499418 182.058871 
L 87.777463 168.629191 
L 88.055508 167.998462 
L 88.333553 178.623747 
L 88.611598 172.821629 
L 88.889643 162.11699 
L 89.167688 162.499388 
L 89.445733 154.053344 
L 90.001823 176.184 
L 90.279868 168.807115 
L 90.557913 167.813497 
L 90.835958 189.450718 
L 91.114004 165.750721 
L 91.670094 169.248478 
L 91.948139 174.144693 
L 92.504229 169.035057 
L 92.782274 217.420601 
L 93.060319 157.618868 
L 93.338364 163.74163 
L 93.616409 163.519555 
L 93.894454 156.155724 
L 94.172499 181.927298 
L 94.450544 170.219214 
L 94.72859 167.433593 
L 95.006635 190.684159 
L 95.28468 184.274342 
L 95.84077 165.822301 
L 96.118815 169.612101 
L 96.39686 178.057411 
L 96.674905 170.368242 
L 97.230995 175.040181 
L 97.50904 193.074474 
L 97.787085 153.280921 
L 98.06513 157.112818 
L 98.343175 154.669551 
L 98.621221 180.922679 
L 98.899266 170.934871 
L 99.177311 171.781074 
L 99.455356 186.671698 
L 99.733401 169.498569 
L 100.011446 191.146645 
L 100.289491 170.572128 
L 100.567536 171.40205 
L 100.845581 181.219268 
L 101.123626 169.339567 
L 101.679716 176.902004 
L 101.957761 184.174892 
L 102.235807 154.280113 
L 102.513852 156.675122 
L 102.791897 157.389312 
L 103.069942 195.369593 
L 103.347987 171.157973 
L 103.626032 177.74542 
L 103.904077 187.167187 
L 104.182122 166.922556 
L 104.460167 198.734311 
L 104.738212 167.977046 
L 105.016257 163.655822 
L 105.294302 182.739471 
L 105.572347 182.979148 
L 105.850393 172.073849 
L 106.128438 177.172337 
L 106.406483 189.633482 
L 106.684528 162.023408 
L 106.962573 155.068964 
L 107.240618 191.896332 
L 107.518663 170.975208 
L 107.796708 176.067242 
L 108.074753 173.623242 
L 108.352798 184.338002 
L 108.630843 185.5446 
L 108.908888 193.955734 
L 109.186933 169.083462 
L 109.743024 183.98054 
L 110.021069 182.182523 
L 110.299114 172.937654 
L 110.577159 177.414361 
L 110.855204 194.356614 
L 111.133249 166.685226 
L 111.411294 155.615351 
L 111.689339 178.803871 
L 111.967384 170.384376 
L 112.245429 171.594055 
L 112.523474 171.530983 
L 112.801519 186.301035 
L 113.079564 161.263893 
L 113.35761 190.136452 
L 113.635655 169.228823 
L 113.9137 170.664391 
L 114.191745 183.942843 
L 114.46979 184.003862 
L 114.747835 167.850314 
L 115.02588 176.874281 
L 115.303925 176.529287 
L 115.58197 188.479689 
L 115.860015 178.578129 
L 116.13806 183.297739 
L 116.416105 191.64096 
L 116.69415 173.466733 
L 116.972195 172.410189 
L 117.250241 186.801071 
L 117.528286 162.072399 
L 117.806331 173.514844 
L 118.084376 172.490864 
L 118.362421 168.830584 
L 118.640466 172.289324 
L 118.918511 170.360027 
L 119.196556 173.426396 
L 119.752646 196.221664 
L 120.030691 160.812849 
L 120.308736 156.577286 
L 120.586781 157.713771 
L 120.864827 187.325456 
L 121.142872 172.279789 
L 121.420917 172.094531 
L 121.698962 185.966895 
L 121.977007 159.584541 
L 122.255052 173.747921 
L 122.533097 173.399846 
L 122.811142 170.762814 
L 123.089187 175.829619 
L 123.367232 177.5364 
L 123.645277 172.817082 
L 123.923322 185.054539 
L 124.479413 171.918367 
L 124.757458 153.659799 
L 125.035503 175.492545 
L 125.313548 185.555748 
L 125.591593 171.248915 
L 125.869638 171.098127 
L 126.147683 188.458567 
L 126.425728 158.034415 
L 126.703773 161.514718 
L 126.981818 189.291422 
L 127.259863 170.933404 
L 127.537908 165.624722 
L 127.815953 166.044376 
L 128.093998 172.005056 
L 128.372044 174.479566 
L 128.650089 188.520613 
L 128.928134 157.626055 
L 129.206179 162.930337 
L 129.484224 158.485313 
L 129.762269 178.748866 
L 130.318359 169.126293 
L 130.596404 165.821714 
L 130.874449 158.431921 
L 131.152494 156.821216 
L 131.430539 172.924013 
L 131.708584 170.091601 
L 131.98663 170.473999 
L 132.264675 184.780832 
L 132.54272 179.71388 
L 132.820765 178.822793 
L 133.09881 175.730902 
L 133.376855 186.42322 
L 133.6549 157.096097 
L 133.932945 155.9756 
L 134.21099 171.318882 
L 134.489035 196.523827 
L 134.76708 183.806136 
L 135.045125 159.359092 
L 135.32317 163.763192 
L 135.601215 156.946775 
L 135.879261 197.695955 
L 136.157306 170.435275 
L 136.435351 166.157027 
L 136.713396 182.744605 
L 136.991441 162.585783 
L 137.269486 188.069569 
L 137.547531 177.543 
L 137.825576 182.856963 
L 138.103621 157.088909 
L 138.381666 155.354405 
L 138.659711 185.742913 
L 138.937756 169.482581 
L 139.215801 168.717053 
L 139.493847 168.470922 
L 139.771892 160.339509 
L 140.049937 168.947195 
L 140.327982 173.388699 
L 140.606027 172.776305 
L 140.884072 183.760665 
L 141.162117 182.785969 
L 141.440162 183.952231 
L 141.718207 178.413553 
L 141.996252 178.86489 
L 142.274297 190.656436 
L 142.552342 179.30244 
L 142.830387 187.656368 
L 143.108433 171.614151 
L 143.386478 170.433368 
L 143.664523 171.066003 
L 143.942568 185.179071 
L 144.220613 162.130045 
L 144.498658 181.308304 
L 144.776703 172.21569 
L 145.054748 169.988778 
L 145.332793 185.074488 
L 145.610838 183.129203 
L 145.888883 172.290351 
L 146.166928 179.296719 
L 146.444973 179.015972 
L 146.723018 187.856734 
L 147.001064 182.0178 
L 147.279109 180.056821 
L 147.557154 185.6131 
L 147.835199 194.800764 
L 148.113244 193.268093 
L 148.669334 166.930183 
L 148.947379 181.80922 
L 149.225424 170.185037 
L 149.503469 169.640557 
L 149.781514 185.817867 
L 150.059559 184.238405 
L 150.337604 184.046106 
L 150.61565 173.494896 
L 150.893695 186.388017 
L 151.17174 176.787886 
L 151.449785 188.687683 
L 151.72783 180.137935 
L 152.28392 188.122521 
L 152.561965 187.072577 
L 152.84001 169.327539 
L 153.118055 165.996998 
L 153.3961 176.270689 
L 153.674145 194.229148 
L 154.230236 173.137727 
L 154.508281 171.167213 
L 154.786326 171.381368 
L 155.064371 182.145119 
L 155.342416 178.423087 
L 155.620461 188.871034 
L 156.176551 162.932977 
L 156.454596 182.955679 
L 156.732641 186.85901 
L 157.010686 187.445294 
L 157.288731 181.154435 
L 157.566776 182.235182 
L 157.844821 184.370272 
L 158.122867 171.898859 
L 158.400912 172.942495 
L 158.678957 185.911156 
L 158.957002 185.143281 
L 159.235047 188.596447 
L 159.513092 176.708385 
L 159.791137 194.710848 
L 160.069182 197.953967 
L 160.347227 186.465024 
L 160.625272 185.892675 
L 160.903317 187.809356 
L 161.181362 176.65558 
L 161.459407 182.712922 
L 161.737453 183.194329 
L 162.015498 182.570348 
L 162.293543 183.380468 
L 162.571588 172.250747 
L 162.849633 171.463216 
L 163.127678 181.969689 
L 163.405723 184.96829 
L 163.683768 163.233967 
L 163.961813 181.382084 
L 164.239858 178.916669 
L 164.517903 188.291497 
L 164.795948 179.09474 
L 165.073993 161.423629 
L 165.352038 178.31469 
L 165.630084 184.565798 
L 165.908129 184.376579 
L 166.186174 178.130165 
L 166.464219 179.232033 
L 166.742264 183.536243 
L 167.020309 171.53509 
L 167.298354 172.066075 
L 167.576399 184.76147 
L 167.854444 184.156851 
L 168.132489 184.782005 
L 168.410534 159.269617 
L 168.688579 178.174316 
L 168.966624 177.995218 
L 169.24467 188.081156 
L 169.522715 174.031455 
L 169.80076 175.680297 
L 170.078805 186.515483 
L 170.35685 187.014052 
L 170.91294 162.532098 
L 171.190985 182.028508 
L 171.46903 173.118512 
L 171.747075 172.024711 
L 172.02512 180.064742 
L 172.303165 184.82733 
L 172.58121 183.870969 
L 172.859256 175.112788 
L 173.137301 182.312923 
L 173.415346 177.913663 
L 173.693391 187.43972 
L 173.971436 175.772706 
L 174.527526 192.165345 
L 174.805571 190.246023 
L 175.083616 177.638196 
L 175.361661 170.942645 
L 175.639706 188.483209 
L 176.195796 168.407849 
L 176.473841 183.655788 
L 176.751887 183.332943 
L 177.029932 183.721061 
L 177.307977 161.045485 
L 177.586022 177.621475 
L 177.864067 187.453948 
L 178.142112 187.128756 
L 178.420157 195.563946 
L 178.698202 182.154947 
L 178.976247 174.136919 
L 179.254292 174.024121 
L 179.532337 186.418966 
L 179.810382 178.22008 
L 180.088427 196.501238 
L 180.366473 177.238197 
L 180.644518 173.670033 
L 180.922563 171.778874 
L 181.200608 184.176946 
L 181.478653 161.441817 
L 181.756698 177.43827 
L 182.034743 173.692768 
L 182.312788 178.445382 
L 182.590833 190.224754 
L 182.868878 177.601086 
L 183.424968 188.369825 
L 183.703013 187.557798 
L 183.981058 168.15013 
L 184.259104 156.914065 
L 184.537149 185.305657 
L 184.815194 176.291077 
L 185.093239 173.826102 
L 185.371284 165.453545 
L 185.649329 183.785454 
L 185.927374 183.872583 
L 186.205419 158.038083 
L 186.483464 177.883887 
L 186.761509 186.813098 
L 187.039554 177.13728 
L 187.317599 187.966159 
L 187.595644 185.145921 
L 187.87369 188.187647 
L 188.151735 187.683357 
L 188.42978 177.797492 
L 188.707825 160.045267 
L 188.98587 179.933022 
L 189.263915 177.336767 
L 189.54196 171.638206 
L 189.820005 173.677367 
L 190.09805 162.21952 
L 190.376095 162.106283 
L 190.65414 175.078611 
L 190.932185 179.432253 
L 191.21023 178.503028 
L 191.488276 189.734986 
L 191.766321 182.69444 
L 192.322411 188.035245 
L 192.600456 188.572245 
L 192.878501 184.003862 
L 193.156546 182.027628 
L 193.434591 187.938436 
L 193.990681 173.16765 
L 194.268726 184.394474 
L 194.546771 183.935949 
L 194.824816 184.175626 
L 195.102861 166.202939 
L 195.380907 177.131267 
L 195.658952 177.871713 
L 195.936997 197.432369 
L 196.215042 188.05094 
L 196.493087 188.127508 
L 196.771132 188.955082 
L 197.049177 200.170612 
L 197.327222 189.203854 
L 197.605267 186.712769 
L 197.883312 191.021086 
L 198.161357 179.646114 
L 198.717447 168.430731 
L 198.995493 183.975113 
L 199.273538 184.842731 
L 199.551583 172.290937 
L 199.829628 187.886071 
L 200.107673 178.685353 
L 200.385718 188.815589 
L 200.663763 180.264668 
L 200.941808 184.798874 
L 201.219853 187.16924 
L 201.497898 188.171952 
L 201.775943 185.677347 
L 202.053988 184.538955 
L 202.332033 186.820726 
L 202.888124 174.668491 
L 203.166169 174.078246 
L 203.444214 183.001737 
L 203.722259 183.393962 
L 204.000304 184.35003 
L 204.278349 173.153862 
L 204.556394 189.601799 
L 204.834439 178.822206 
L 205.112484 187.464069 
L 205.390529 186.99381 
L 205.946619 199.565846 
L 206.224664 189.317531 
L 206.50271 186.86077 
L 206.780755 189.584198 
L 207.0588 179.841053 
L 207.336845 173.998745 
L 207.61489 163.075845 
L 207.892935 183.955457 
L 208.17098 183.288352 
L 208.449025 176.45052 
L 208.72707 175.554298 
L 209.005115 175.589502 
L 209.28316 191.427979 
L 209.561205 186.279619 
L 209.83925 187.649034 
L 210.117296 197.248871 
L 210.395341 199.232293 
L 210.673386 188.677268 
L 210.951431 187.223365 
L 211.229476 198.980001 
L 211.507521 178.674645 
L 211.785566 173.685728 
L 212.063611 185.393519 
L 212.341656 183.605623 
L 212.619701 183.662242 
L 212.897746 184.433638 
L 213.175791 174.168015 
L 213.453836 185.495462 
L 213.731881 177.583631 
L 214.009927 192.86164 
L 214.287972 195.3715 
L 214.566017 175.87729 
L 214.844062 177.244064 
L 215.122107 179.169694 
L 215.400152 200.336508 
L 215.678197 178.274059 
L 215.956242 177.837096 
L 216.234287 169.469527 
L 216.512332 181.529059 
L 216.790377 181.221762 
L 217.068422 184.067669 
L 217.346467 171.299226 
L 217.624513 175.460129 
L 217.902558 174.784369 
L 218.180603 188.988232 
L 218.458648 181.465106 
L 219.014738 189.907923 
L 219.292783 195.519061 
L 219.848873 186.949805 
L 220.126918 188.908438 
L 220.404963 178.946298 
L 220.683008 173.84693 
L 220.961053 180.802694 
L 221.239099 184.683582 
L 221.517144 183.74497 
L 221.795189 184.840238 
L 222.073234 174.272599 
L 222.351279 182.369688 
L 222.629324 177.667533 
L 222.907369 188.660107 
L 223.185414 188.517973 
L 223.463459 196.573845 
L 223.741504 181.181131 
L 224.019549 195.54209 
L 224.297594 194.050343 
L 224.575639 190.458857 
L 224.853684 177.74586 
L 225.13173 184.140862 
L 225.409775 172.674948 
L 225.68782 174.333911 
L 225.965865 184.343722 
L 226.24391 174.416346 
L 226.521955 174.655583 
L 226.8 174.259104 
L 227.078045 188.458714 
L 227.35609 177.840616 
L 227.634135 185.119959 
L 227.91218 189.254605 
L 228.190225 198.979708 
L 228.46827 201.020482 
L 228.746316 199.245348 
L 229.024361 199.083412 
L 229.302406 179.636433 
L 229.580451 172.024124 
L 229.858496 169.261239 
L 230.136541 182.771301 
L 230.692631 184.891723 
L 230.970676 171.637473 
L 231.248721 188.345476 
L 231.526766 197.517884 
L 231.804811 187.419038 
L 232.082856 189.841916 
L 232.360901 178.791403 
L 232.638947 178.239295 
L 232.916992 178.66335 
L 233.195037 180.981058 
L 233.473082 180.959056 
L 233.751127 179.2313 
L 234.029172 185.331913 
L 234.307217 171.669596 
L 234.585262 183.61281 
L 234.863307 182.862683 
L 235.141352 186.9633 
L 235.419397 174.68932 
L 235.697442 174.875458 
L 235.975487 187.495019 
L 236.253533 171.540223 
L 236.809623 194.412352 
L 237.087668 180.502585 
L 237.365713 181.802179 
L 237.643758 191.217785 
L 237.921803 195.134903 
L 238.199848 176.636365 
L 238.477893 184.01633 
L 238.755938 176.039226 
L 239.033983 182.815745 
L 239.312028 183.243321 
L 239.590073 183.051755 
L 239.868119 171.926875 
L 240.146164 186.226227 
L 240.424209 194.450489 
L 240.702254 185.833122 
L 240.980299 188.181486 
L 241.258344 178.648829 
L 241.536389 188.822336 
L 241.814434 193.068167 
L 242.092479 180.602328 
L 242.370524 181.490482 
L 242.648569 176.725693 
L 242.926614 178.533538 
L 243.204659 171.489765 
L 243.482704 183.806136 
L 243.76075 182.420293 
L 244.038795 182.492754 
L 244.31684 173.446051 
L 244.594885 172.478542 
L 244.87293 186.68798 
L 245.150975 168.007996 
L 245.42902 183.962498 
L 245.707065 177.555468 
L 245.98511 179.201817 
L 246.263155 192.068829 
L 246.5412 180.776732 
L 246.819245 183.122016 
L 247.09729 176.506992 
L 247.375336 183.488425 
L 247.653381 177.834309 
L 247.931426 183.375187 
L 248.209471 183.066863 
L 248.487516 182.998217 
L 248.765561 171.968532 
L 249.043606 176.5884 
L 249.321651 188.670521 
L 249.599696 183.255789 
L 249.877741 187.182001 
L 250.155786 179.040028 
L 250.711876 198.439775 
L 250.989921 180.707058 
L 251.267967 177.543147 
L 252.102102 172.456394 
L 252.380147 176.15349 
L 252.658192 186.077493 
L 252.936237 189.639643 
L 253.214282 175.674723 
L 253.492327 175.831672 
L 253.770372 184.79946 
L 254.048417 177.007908 
L 254.326462 180.133535 
L 254.604507 190.25013 
L 254.882553 181.051025 
L 255.160598 183.513067 
L 255.438643 203.399063 
L 255.716688 191.423138 
L 255.994733 188.827323 
L 256.272778 175.057196 
L 256.550823 172.746235 
L 256.828868 191.492812 
L 257.106913 183.484318 
L 257.384958 183.364773 
L 257.663003 172.354744 
L 257.941048 174.101569 
L 258.219093 187.484898 
L 258.497139 182.75766 
L 258.775184 185.738659 
L 259.053229 180.099798 
L 259.331274 195.906446 
L 259.887364 181.551648 
L 260.165409 199.076224 
L 260.443454 191.536816 
L 260.721499 175.618691 
L 260.999544 174.482353 
L 261.277589 178.112123 
L 261.833679 190.368501 
L 262.111724 174.758407 
L 262.38977 174.28844 
L 262.667815 184.550103 
L 262.94586 178.552166 
L 263.50195 188.820723 
L 263.779995 180.172992 
L 264.05804 197.548101 
L 264.336085 183.468183 
L 264.61413 200.525287 
L 264.892175 175.988768 
L 265.17022 175.242307 
L 265.448265 172.491597 
L 265.72631 184.715852 
L 266.004356 184.04904 
L 266.282401 184.402541 
L 266.560446 172.577699 
L 266.838491 171.74279 
L 267.116536 187.139317 
L 267.394581 180.176219 
L 267.672626 187.403783 
L 267.950671 186.076319 
L 268.228716 178.650003 
L 268.506761 175.149018 
L 268.784806 191.247414 
L 269.062851 177.938453 
L 269.340896 171.408797 
L 269.618942 171.804689 
L 269.896987 173.037984 
L 270.175032 168.386873 
L 270.453077 184.967704 
L 270.731122 177.909703 
L 271.009167 173.747334 
L 271.287212 174.897607 
L 271.565257 168.776018 
L 271.843302 158.41828 
L 272.399392 178.55686 
L 272.677437 180.3163 
L 272.955482 177.311538 
L 273.233527 179.900899 
L 273.511573 173.607987 
L 273.789618 193.146201 
L 274.067663 170.924896 
L 274.345708 170.422807 
L 274.623753 160.700491 
L 274.901798 185.09737 
L 275.179843 185.474634 
L 275.457888 173.611654 
L 275.735933 168.686103 
L 276.013978 186.671258 
L 276.292023 157.347948 
L 276.570068 184.319813 
L 276.848113 180.484396 
L 277.126159 173.204174 
L 277.404204 173.197133 
L 277.682249 173.796912 
L 277.960294 175.122762 
L 278.238339 171.870696 
L 278.516384 170.785109 
L 278.794429 172.046713 
L 279.072474 161.095796 
L 279.350519 186.886586 
L 279.628564 176.543662 
L 279.906609 171.457495 
L 280.184654 172.822363 
L 280.462699 161.062793 
L 280.740744 158.184177 
L 281.296835 175.002337 
L 281.57488 176.045533 
L 281.852925 174.325404 
L 282.13097 177.431669 
L 282.965105 167.458382 
L 283.24315 172.576965 
L 283.521195 156.910398 
L 283.79924 185.836349 
L 284.077285 184.780539 
L 284.35533 173.177331 
L 284.633376 170.241656 
L 284.911421 173.765522 
L 285.189466 152.48723 
L 285.467511 185.283508 
L 285.745556 172.311766 
L 286.023601 173.601826 
L 286.301646 161.192019 
L 286.579691 173.234097 
L 286.857736 173.766402 
L 287.135781 171.089472 
L 287.413826 172.288737 
L 287.691871 167.182768 
L 287.969916 173.517925 
L 288.247962 157.327999 
L 288.526007 164.804041 
L 288.804052 164.055674 
L 289.082097 193.397173 
L 289.360142 156.21777 
L 289.638187 151.792842 
L 289.916232 161.891688 
L 290.194277 178.158621 
L 290.750367 173.338974 
L 291.028412 182.582376 
L 291.306457 175.64392 
L 291.584502 189.385151 
L 291.862547 170.275246 
L 292.140593 166.660584 
L 292.418638 173.082282 
L 292.696683 174.769408 
L 292.974728 156.001709 
L 293.252773 169.952547 
L 293.530818 173.108684 
L 294.086908 153.889208 
L 294.364953 183.404523 
L 294.642998 172.237252 
L 294.921043 173.863212 
L 295.199088 148.477116 
L 295.477133 173.439597 
L 295.755179 174.545132 
L 296.033224 170.275979 
L 296.311269 172.365011 
L 296.589314 168.760763 
L 296.867359 173.329733 
L 297.145404 160.745082 
L 297.423449 160.661767 
L 297.701494 165.367443 
L 297.979539 188.630917 
L 298.257584 155.120742 
L 298.535629 153.223129 
L 298.813674 176.801967 
L 299.091719 178.893053 
L 299.369764 174.139999 
L 299.64781 172.813269 
L 299.925855 174.478392 
L 300.2039 174.570068 
L 300.481945 174.438495 
L 300.75999 169.969562 
L 301.038035 168.402128 
L 301.31608 163.290292 
L 301.594125 185.245811 
L 301.87217 181.675153 
L 302.150215 171.183055 
L 302.42826 173.105897 
L 302.98435 154.14678 
L 303.262396 187.412731 
L 303.818486 154.884146 
L 304.096531 182.258944 
L 304.374576 172.49057 
L 304.652621 171.527169 
L 304.930666 192.359257 
L 305.208711 171.190389 
L 305.486756 166.431321 
L 305.764801 171.268423 
L 306.042846 182.032615 
L 306.320891 155.387555 
L 306.598936 163.966345 
L 306.876982 185.989924 
L 307.155027 158.571415 
L 307.433072 158.610725 
L 307.711117 159.473504 
L 307.989162 173.449865 
L 308.267207 160.061841 
L 308.545252 159.924548 
L 308.823297 172.157898 
L 309.101342 173.915724 
L 309.379387 180.716446 
L 309.657432 191.397029 
L 309.935477 163.665062 
L 310.491567 184.846398 
L 310.769613 156.131668 
L 311.047658 158.637128 
L 311.325703 180.637385 
L 311.603748 157.728585 
L 312.437883 171.821558 
L 312.715928 163.088752 
L 312.993973 183.599316 
L 313.272018 173.276634 
L 313.550063 170.552033 
L 313.828108 186.151127 
L 314.106153 171.045468 
L 314.384199 163.425532 
L 314.940289 180.303538 
L 315.218334 155.310694 
L 315.496379 173.337067 
L 315.774424 176.476482 
L 316.052469 160.706945 
L 316.330514 165.618855 
L 316.608559 154.197972 
L 316.886604 172.534868 
L 317.164649 158.448936 
L 317.442694 177.311538 
L 317.720739 169.073048 
L 317.998785 172.645759 
L 318.27683 172.207769 
L 318.554875 191.91672 
L 318.83292 166.86227 
L 319.38901 181.900602 
L 319.667055 156.176993 
L 319.9451 157.969142 
L 320.223145 191.499706 
L 320.50119 163.488898 
L 320.779235 158.117584 
L 321.61337 183.481971 
L 321.891416 183.801442 
L 322.169461 172.980778 
L 322.447506 171.176748 
L 322.725551 158.549266 
L 323.003596 175.150632 
L 323.281641 167.881997 
L 323.559686 173.464093 
L 323.837731 161.079662 
L 324.115776 172.062701 
L 324.393821 171.585988 
L 324.671866 162.173902 
L 324.949911 170.408726 
L 325.227956 173.187159 
L 325.506002 158.617473 
L 325.784047 173.490789 
L 326.340137 183.952377 
L 326.618182 167.738983 
L 326.896227 189.219548 
L 327.174272 163.973386 
L 327.452317 158.206766 
L 327.730362 171.322549 
L 328.008407 173.57645 
L 328.286452 162.616439 
L 328.564497 174.095115 
L 328.842542 168.11434 
L 329.120587 200.700571 
L 329.398633 158.868884 
L 329.676678 160.092938 
L 329.954723 180.512999 
L 330.232768 173.317558 
L 330.510813 182.527517 
L 330.788858 183.410097 
L 331.066903 170.473852 
L 331.344948 186.887906 
L 331.622993 171.497686 
L 331.901038 172.924453 
L 332.179083 180.210689 
L 332.457128 173.513817 
L 332.735173 185.854684 
L 333.291264 176.213776 
L 333.569309 183.132723 
L 333.847354 164.365611 
L 334.125399 165.668726 
L 334.681489 176.329801 
L 334.959534 159.747944 
L 335.237579 184.25454 
L 335.515624 172.794347 
L 335.793669 173.547261 
L 336.071714 178.804311 
L 336.349759 173.149022 
L 336.627805 170.595304 
L 337.183895 187.109541 
L 337.46194 187.721054 
L 337.739985 173.482134 
L 338.01803 182.650729 
L 338.296075 164.197808 
L 338.57412 161.660225 
L 338.852165 189.017569 
L 339.13021 167.061023 
L 339.408255 180.321727 
L 339.6863 178.424114 
L 339.964345 174.350486 
L 340.24239 184.286957 
L 340.520436 186.576649 
L 340.798481 170.907295 
L 341.076526 181.50471 
L 341.354571 176.350923 
L 341.632616 186.341665 
L 341.910661 188.095678 
L 342.188706 176.11946 
L 342.466751 184.601148 
L 342.744796 168.183133 
L 343.022841 171.870549 
L 343.300886 167.833299 
L 343.578931 173.601239 
L 343.856976 183.644054 
L 344.135022 181.421542 
L 344.413067 173.104871 
L 344.691112 172.569631 
L 344.969157 185.257692 
L 345.247202 186.378922 
L 345.525247 171.972493 
L 345.803292 174.876925 
L 346.081337 188.416176 
L 346.359382 194.567981 
L 346.637427 180.479556 
L 346.915472 185.122452 
L 347.193517 169.625155 
L 347.471562 168.377046 
L 347.749607 181.203134 
L 348.027653 175.667536 
L 348.305698 177.392946 
L 348.583743 177.205927 
L 348.861788 175.581581 
L 349.139833 187.815517 
L 349.417878 189.806419 
L 349.695923 188.596741 
L 349.973968 173.91587 
L 350.252013 175.451328 
L 350.808103 196.464567 
L 351.086148 177.011281 
L 351.364193 196.9338 
L 351.642239 175.916307 
L 351.920284 177.019642 
L 352.198329 168.062708 
L 352.476374 173.869519 
L 352.754419 182.89202 
L 353.032464 180.750182 
L 353.310509 173.001314 
L 353.588554 174.062845 
L 353.866599 184.319667 
L 354.144644 183.992274 
L 354.422689 174.306042 
L 354.700734 174.897314 
L 355.256825 197.258552 
L 355.53487 177.776957 
L 355.812915 184.637231 
L 356.09096 173.696435 
L 356.64705 178.08176 
L 356.925095 173.346454 
L 357.20314 179.912487 
L 357.481185 178.653523 
L 357.75923 173.693649 
L 358.037275 172.793467 
L 358.31532 183.406137 
L 358.593365 182.402838 
L 358.87141 174.803144 
L 359.149456 175.563832 
L 359.427501 184.917685 
L 359.705546 174.842895 
L 359.983591 174.339632 
L 360.261636 170.751373 
L 360.539681 176.684183 
L 360.817726 177.938453 
L 361.095771 166.826773 
L 361.651861 181.43885 
L 361.929906 181.183185 
L 362.485996 171.176748 
L 362.764042 171.375354 
L 363.042087 166.382623 
L 363.598177 180.267162 
L 363.876222 175.06321 
L 364.154267 174.82808 
L 364.432312 174.947332 
L 364.710357 184.686516 
L 364.988402 169.048258 
L 365.266447 167.77184 
L 365.544492 180.073102 
L 365.822537 178.082787 
L 366.100582 182.036282 
L 366.378628 182.453003 
L 366.656673 187.071991 
L 367.212763 174.089687 
L 367.490808 172.481036 
L 367.768853 176.112713 
L 368.046898 174.068859 
L 368.324943 183.482118 
L 368.602988 173.151515 
L 368.881033 172.791266 
L 369.159078 166.658383 
L 369.437123 173.511177 
L 369.715168 174.020894 
L 369.993213 164.788493 
L 370.271259 171.227499 
L 370.549304 182.828507 
L 370.827349 181.27046 
L 371.383439 173.853384 
L 371.661484 207.802576 
L 371.939529 174.118877 
L 372.217574 175.743223 
L 372.495619 174.574322 
L 372.773664 182.201592 
L 373.051709 177.459099 
L 373.607799 183.920987 
L 373.885845 166.754313 
L 374.16389 163.656995 
L 374.441935 194.038316 
L 374.71998 181.044425 
L 375.27607 177.541093 
L 375.554115 173.84297 
L 375.83216 180.680802 
L 376.110205 201.664559 
L 376.38825 194.366294 
L 376.666295 172.233732 
L 376.94434 174.555693 
L 377.222385 183.524802 
L 378.056521 164.86462 
L 378.334566 174.393317 
L 378.612611 174.075606 
L 378.890656 165.156809 
L 379.168701 173.215321 
L 379.446746 177.505157 
L 379.724791 176.763977 
L 380.002836 177.174684 
L 380.280881 170.263218 
L 380.558926 183.721061 
L 381.115016 172.895703 
L 381.393062 172.123721 
L 381.671107 179.706986 
L 382.227197 171.384741 
L 382.505242 168.190174 
L 382.783287 169.057059 
L 383.061332 165.943166 
L 383.339377 170.641362 
L 383.617422 183.293339 
L 384.173512 178.283887 
L 384.451557 172.75577 
L 384.729602 180.083517 
L 385.007648 218.214733 
L 385.285693 188.613022 
L 385.563738 171.60667 
L 386.119828 178.520483 
L 386.675918 172.173299 
L 386.953963 166.25149 
L 387.232008 179.182161 
L 387.510053 178.420153 
L 387.788098 164.900557 
L 388.066143 180.683442 
L 388.344188 181.575117 
L 388.622233 180.815015 
L 389.178324 171.948877 
L 389.456369 177.524372 
L 389.734414 170.6264 
L 390.012459 175.453088 
L 390.290504 176.817662 
L 390.568549 176.183413 
L 390.846594 175.91308 
L 391.124639 173.518951 
L 391.402684 166.303122 
L 391.680729 178.043623 
L 391.958774 172.542202 
L 392.236819 173.979383 
L 392.514865 183.319742 
L 392.79291 177.20094 
L 393.070955 176.272302 
L 393.349 179.903099 
L 393.627045 170.894093 
L 393.90509 169.828308 
L 394.183135 165.061173 
L 394.739225 182.582816 
L 395.01727 176.378206 
L 395.295315 176.262181 
L 395.57336 200.582786 
L 395.851405 175.263136 
L 396.12945 182.010173 
L 396.407496 181.037384 
L 396.685541 163.791502 
L 396.963586 188.52736 
L 397.241631 178.783922 
L 397.519676 177.474647 
L 397.797721 177.547547 
L 398.075766 174.286533 
L 398.353811 164.874155 
L 398.631856 165.732679 
L 398.909901 184.212003 
L 399.187946 171.608577 
L 399.465991 175.315501 
L 399.744036 182.702801 
L 400.022082 176.335815 
L 400.300127 190.447709 
L 400.578172 190.01808 
L 400.856217 178.538232 
L 401.134262 196.296178 
L 401.412307 190.975614 
L 401.690352 183.311234 
L 401.968397 182.330084 
L 402.246442 188.11372 
L 402.524487 178.647362 
L 402.802532 174.76002 
L 403.080577 174.518436 
L 403.358622 175.053969 
L 403.636668 186.215813 
L 403.914713 176.033359 
L 404.192758 177.184365 
L 404.470803 175.664602 
L 404.748848 193.874473 
L 405.026893 181.536833 
L 405.304938 176.55833 
L 405.582983 191.040594 
L 405.861028 175.148138 
L 406.139073 185.616621 
L 406.417118 184.35707 
L 406.695163 180.717326 
L 406.973208 189.628642 
L 407.251253 190.885699 
L 407.529299 190.641475 
L 407.807344 172.680082 
L 408.085389 188.396961 
L 408.363434 175.804243 
L 408.641479 176.906111 
L 408.919524 172.435125 
L 409.197569 188.25732 
L 409.475614 175.77652 
L 409.753659 168.709572 
L 410.309749 185.006134 
L 410.587794 179.510874 
L 410.865839 178.695767 
L 411.143885 175.988034 
L 411.42193 187.126116 
L 411.699975 190.345619 
L 411.97802 191.353905 
L 412.256065 172.579459 
L 412.53411 183.284392 
L 412.812155 175.859541 
L 413.0902 176.851106 
L 413.368245 210.487426 
L 413.64629 171.531423 
L 413.924335 178.542485 
L 414.20238 177.820521 
L 414.480425 176.240619 
L 414.75847 179.085352 
L 415.036516 179.414211 
L 415.314561 179.343951 
L 415.592606 175.169554 
L 415.870651 173.557235 
L 416.148696 190.210966 
L 416.426741 180.586926 
L 416.982831 177.038417 
L 417.260876 174.340512 
L 417.538921 183.321355 
L 417.816966 208.641445 
L 418.095011 174.169042 
L 418.373056 176.294891 
L 418.651102 168.117567 
L 418.929147 201.873433 
L 419.207192 180.765877 
L 419.485237 178.157301 
L 419.763282 179.101194 
L 420.041327 165.64467 
L 420.597417 189.572463 
L 420.875462 185.021829 
L 421.153507 172.026765 
L 421.431552 182.251317 
L 421.709597 175.912493 
L 421.987642 181.715197 
L 422.265688 207.87841 
L 422.543733 176.892616 
L 422.821778 183.709033 
L 423.099823 181.161916 
L 423.377868 176.699584 
L 423.655913 176.005929 
L 423.933958 181.917764 
L 424.212003 183.40643 
L 424.490048 174.841281 
L 425.046138 179.91454 
L 425.324183 174.182537 
L 425.602228 190.971654 
L 425.880273 173.530979 
L 426.436364 187.141077 
L 426.436364 187.141077 
" clip-path="url(#p2ecd40f8bf)" style="fill: none; stroke: #ff00ff; stroke-width: 3; stroke-linecap: square"/>
   </g>
   <g id="patch_3">
    <path d="M 7.2 331.2 
L 7.2 7.2 
" style="fill: none; stroke: #000000; stroke-width: 0.8; stroke-linejoin: miter; stroke-linecap: square"/>
   </g>
   <g id="patch_4">
    <path d="M 446.4 331.2 
L 446.4 7.2 
" style="fill: none; stroke: #000000; stroke-width: 0.8; stroke-linejoin: miter; stroke-linecap: square"/>
   </g>
   <g id="patch_5">
    <path d="M 7.2 331.2 
L 446.4 331.2 
" style="fill: none; stroke: #000000; stroke-width: 0.8; stroke-linejoin: miter; stroke-linecap: square"/>
   </g>
   <g id="patch_6">
    <path d="M 7.2 7.2 
L 446.4 7.2 
" style="fill: none; stroke: #000000; stroke-width: 0.8; stroke-linejoin: miter; stroke-linecap: square"/>
   </g>
  </g>
 </g>
 <defs>
  <clipPath id="p2ecd40f8bf">
   <rect x="7.2" y="7.2" width="439.2" height="324"/>
  </clipPath>
 </defs>
</svg>
