<?xml version="1.0" encoding="utf-8" standalone="no"?>
<!DOCTYPE svg PUBLIC "-//W3C//DTD SVG 1.1//EN"
  "http://www.w3.org/Graphics/SVG/1.1/DTD/svg11.dtd">
<svg xmlns:xlink="http://www.w3.org/1999/xlink" width="453.6pt" height="338.4pt" viewBox="0 0 453.6 338.4" xmlns="http://www.w3.org/2000/svg" version="1.1">
 <metadata>
  <rdf:RDF xmlns:dc="http://purl.org/dc/elements/1.1/" xmlns:cc="http://creativecommons.org/ns#" xmlns:rdf="http://www.w3.org/1999/02/22-rdf-syntax-ns#">
   <cc:Work>
    <dc:type rdf:resource="http://purl.org/dc/dcmitype/StillImage"/>
    <dc:date>2025-05-15T17:31:12.922711</dc:date>
    <dc:format>image/svg+xml</dc:format>
    <dc:creator>
     <cc:Agent>
      <dc:title>Matplotlib v3.10.1, https://matplotlib.org/</dc:title>
     </cc:Agent>
    </dc:creator>
   </cc:Work>
  </rdf:RDF>
 </metadata>
 <defs>
  <style type="text/css">*{stroke-linejoin: round; stroke-linecap: butt}</style>
 </defs>
 <g id="figure_1">
  <g id="patch_1">
   <path d="M 0 338.4 
L 453.6 338.4 
L 453.6 0 
L 0 0 
z
" style="fill: #ffffff"/>
  </g>
  <g id="axes_1">
   <g id="patch_2">
    <path d="M 7.2 331.2 
L 446.4 331.2 
L 446.4 7.2 
L 7.2 7.2 
z
" style="fill: #ffffff"/>
   </g>
   <g id="matplotlib.axis_1"/>
   <g id="matplotlib.axis_2"/>
   <g id="line2d_1">
    <path d="M 27.163636 244.27785 
L 28.275817 246.919452 
L 28.831907 247.861902 
L 29.387997 248.45216 
L 29.944087 248.65631 
L 30.500177 248.471842 
L 31.056267 247.919617 
L 31.612358 247.03615 
L 32.446493 245.194315 
L 33.836718 241.275634 
L 35.226944 237.492854 
L 36.061079 235.958125 
L 36.617169 235.42427 
L 37.173259 235.338926 
L 37.729349 235.711407 
L 38.285439 236.517153 
L 38.84153 237.705209 
L 39.675665 240.054496 
L 41.06589 244.881856 
L 44.124386 255.85507 
L 45.514611 260.034444 
L 46.904837 263.559986 
L 48.295062 266.443526 
L 49.407242 268.217744 
L 50.241378 269.178935 
L 51.075513 269.802779 
L 51.909648 270.112541 
L 52.743783 270.169987 
L 53.855964 270.001524 
L 58.58273 269.005553 
L 60.529045 268.561792 
L 61.363181 268.185299 
L 62.197316 267.528856 
L 62.753406 266.853047 
L 63.309496 265.926929 
L 64.143631 263.981573 
L 64.977767 261.327364 
L 66.089947 256.869354 
L 68.036262 248.764245 
L 68.870398 246.344091 
L 69.426488 245.366528 
L 69.982578 244.957832 
L 70.260623 244.967978 
L 70.538668 245.115895 
L 71.094758 245.793755 
L 71.650848 246.909113 
L 72.484984 249.174451 
L 74.431299 255.528676 
L 76.65566 262.472303 
L 78.32393 267.011453 
L 79.43611 269.381091 
L 80.270246 270.630428 
L 80.826336 271.173486 
L 81.382426 271.479903 
L 81.938516 271.559409 
L 82.494606 271.432039 
L 83.328741 270.916498 
L 84.440922 269.813141 
L 86.943327 267.125986 
L 87.777463 266.542076 
L 88.889643 266.078014 
L 91.948139 265.152468 
L 93.060319 264.44595 
L 94.72859 263.072929 
L 95.84077 261.942318 
L 96.674905 260.763154 
L 97.230995 259.651739 
L 97.787085 258.129064 
L 98.343175 256.045383 
L 98.899266 253.249879 
L 99.733401 247.447128 
L 100.567536 239.546909 
L 101.679716 226.255938 
L 103.347987 205.515071 
L 104.182122 198.219916 
L 104.738212 195.537482 
L 105.016257 194.962927 
L 105.294302 194.924888 
L 105.572347 195.427408 
L 105.850393 196.462408 
L 106.406483 200.038676 
L 106.962573 205.367096 
L 107.796708 215.702639 
L 110.299114 248.619482 
L 111.133249 256.542566 
L 111.967384 262.43007 
L 112.801519 266.580108 
L 113.635655 269.423456 
L 114.46979 271.368256 
L 115.303925 272.719808 
L 116.13806 273.680173 
L 116.972195 274.368397 
L 118.084376 274.962455 
L 118.918511 275.194875 
L 119.752646 275.247946 
L 120.586781 275.118469 
L 121.420917 274.806528 
L 122.533097 274.131946 
L 123.923322 272.99617 
L 126.703773 270.656447 
L 128.928134 268.890316 
L 129.762269 267.882281 
L 130.318359 266.925254 
L 130.874449 265.607548 
L 131.430539 263.765818 
L 131.98663 261.192045 
L 132.54272 257.642342 
L 133.09881 252.844009 
L 133.6549 246.516917 
L 134.489035 233.657501 
L 135.32317 216.478474 
L 136.435351 187.857801 
L 138.381666 136.064456 
L 138.937756 125.328878 
L 139.493847 118.039696 
L 139.771892 115.880431 
L 140.049937 114.775623 
L 140.327982 114.746554 
L 140.606027 115.791606 
L 140.884072 117.886716 
L 141.440162 125.023953 
L 141.996252 135.564669 
L 142.830387 155.901355 
L 145.332793 220.584307 
L 146.166928 236.08182 
L 147.001064 247.358658 
L 147.835199 254.877675 
L 148.391289 258.167812 
L 148.947379 260.332254 
L 149.503469 261.554936 
L 149.781514 261.85951 
L 150.059559 261.977934 
L 150.337604 261.919869 
L 150.61565 261.69221 
L 151.17174 260.74693 
L 151.72783 259.171345 
L 152.28392 256.989099 
L 153.118055 252.648454 
L 154.230236 245.230352 
L 156.454596 229.229037 
L 157.288731 224.988263 
L 157.844821 223.258086 
L 158.122867 222.775924 
L 158.400912 222.563046 
L 158.678957 222.623715 
L 158.957002 222.956911 
L 159.513092 224.410386 
L 160.069182 226.812329 
L 160.903317 231.778441 
L 163.405723 248.580615 
L 164.239858 252.217175 
L 164.795948 253.590076 
L 165.073993 253.902683 
L 165.352038 253.935467 
L 165.630084 253.662158 
L 165.908129 253.053634 
L 166.464219 250.695696 
L 167.020309 246.545558 
L 167.576399 240.217658 
L 168.132489 231.29873 
L 168.688579 219.420035 
L 169.522715 195.566689 
L 170.35685 164.692944 
L 173.415346 39.611396 
L 173.971436 27.504657 
L 174.249481 23.888541 
L 174.527526 22.015371 
L 174.805571 21.927273 
L 175.083616 23.627346 
L 175.361661 27.079253 
L 175.917751 38.904407 
L 176.473841 56.404193 
L 177.307977 90.12142 
L 179.532337 185.832818 
L 180.366473 212.681695 
L 181.200608 232.42496 
L 182.034743 245.852658 
L 182.590833 252.014127 
L 183.146923 256.496101 
L 183.703013 259.743065 
L 184.537149 263.088554 
L 185.371284 265.359003 
L 186.483464 267.619329 
L 188.151735 270.394801 
L 189.263915 271.887145 
L 190.09805 272.654524 
L 190.65414 272.921168 
L 191.21023 272.948094 
L 191.766321 272.711541 
L 192.322411 272.207903 
L 193.156546 271.001622 
L 194.268726 268.833093 
L 195.936997 265.583786 
L 196.771132 264.387311 
L 197.883312 263.259502 
L 198.995493 262.157103 
L 199.551583 261.287447 
L 200.107673 259.947796 
L 200.663763 257.891574 
L 201.219853 254.810844 
L 201.775943 250.332679 
L 202.332033 244.047459 
L 202.888124 235.548224 
L 203.722259 217.892463 
L 204.556394 193.858729 
L 205.668574 153.219162 
L 207.61489 78.847867 
L 208.17098 63.472832 
L 208.72707 53.168915 
L 209.005115 50.207743 
L 209.28316 48.802872 
L 209.561205 48.984876 
L 209.83925 50.749446 
L 210.117296 54.058349 
L 210.673386 64.99387 
L 211.229476 80.881792 
L 212.341656 122.291607 
L 214.287972 197.024375 
L 215.122107 221.449401 
L 215.956242 239.735997 
L 216.790377 252.473205 
L 217.624513 260.842113 
L 218.180603 264.643361 
L 218.736693 267.418142 
L 219.292783 269.435724 
L 220.126918 271.499281 
L 220.961053 272.831193 
L 221.795189 273.706956 
L 222.629324 274.280333 
L 223.463459 274.625152 
L 224.297594 274.767597 
L 225.13173 274.708482 
L 225.965865 274.435593 
L 226.8 273.944834 
L 227.91218 272.994248 
L 230.970676 270.08785 
L 232.082856 269.430175 
L 233.473082 268.657899 
L 234.029172 268.146638 
L 234.585262 267.361378 
L 235.141352 266.156691 
L 235.697442 264.349382 
L 236.253533 261.726412 
L 236.809623 258.056611 
L 237.365713 253.099352 
L 237.921803 246.628424 
L 238.755938 233.744455 
L 239.590073 217.021375 
L 240.980299 183.068042 
L 242.370524 150.078526 
L 243.204659 136.212805 
L 243.76075 131.016929 
L 244.038795 129.816081 
L 244.31684 129.585848 
L 244.594885 130.330826 
L 244.87293 132.035343 
L 245.42902 138.163218 
L 245.98511 147.475964 
L 246.819245 165.803779 
L 249.321651 226.034058 
L 250.155786 241.050212 
L 250.989921 252.353365 
L 251.824057 260.354266 
L 252.658192 265.776983 
L 253.492327 269.359102 
L 254.326462 271.720934 
L 255.160598 273.29525 
L 255.994733 274.350718 
L 256.828868 275.056944 
L 257.663003 275.507591 
L 258.497139 275.753498 
L 259.331274 275.817631 
L 260.165409 275.703454 
L 260.999544 275.409839 
L 262.111724 274.752037 
L 263.50195 273.613552 
L 266.282401 271.264335 
L 268.228716 269.723603 
L 269.062851 268.684613 
L 269.618942 267.649754 
L 270.175032 266.176392 
L 270.731122 264.087068 
L 271.287212 261.166226 
L 271.843302 257.16572 
L 272.399392 251.832961 
L 273.233527 240.876055 
L 274.067663 226.064117 
L 275.179843 201.048225 
L 277.126159 154.77456 
L 277.960294 141.130109 
L 278.516384 136.065226 
L 278.794429 134.926113 
L 279.072474 134.75437 
L 279.350519 135.553121 
L 279.628564 137.304613 
L 280.184654 143.495476 
L 280.740744 152.8104 
L 281.57488 170.981661 
L 284.077285 229.48035 
L 284.911421 243.689268 
L 285.745556 254.213715 
L 286.579691 261.514171 
L 287.413826 266.312943 
L 287.969916 268.493696 
L 288.526007 270.082851 
L 289.082097 271.225351 
L 289.916232 272.337941 
L 290.750367 272.957674 
L 291.584502 273.231821 
L 292.418638 273.226841 
L 293.252773 272.953164 
L 294.086908 272.379932 
L 294.921043 271.464898 
L 295.755179 270.187007 
L 296.867359 267.998871 
L 299.091719 263.430103 
L 299.925855 262.318561 
L 300.481945 261.879952 
L 301.038035 261.678848 
L 301.594125 261.672506 
L 303.262396 261.933034 
L 303.818486 261.670149 
L 304.374576 260.94019 
L 304.930666 259.523701 
L 305.486756 257.151239 
L 306.042846 253.497902 
L 306.598936 248.204318 
L 307.155027 240.900923 
L 307.711117 231.24162 
L 308.545252 211.813934 
L 309.379387 186.472215 
L 310.769613 135.367245 
L 311.881793 95.713894 
L 312.715928 73.701496 
L 313.272018 64.971037 
L 313.550063 62.696683 
L 313.828108 61.887539 
L 314.106153 62.557441 
L 314.384199 64.688044 
L 314.940289 73.101941 
L 315.496379 86.393294 
L 316.330514 113.011669 
L 318.83292 200.738736 
L 319.667055 222.16735 
L 320.50119 237.915241 
L 321.335325 248.621076 
L 321.891416 253.509858 
L 322.447506 257.020045 
L 323.003596 259.469302 
L 323.559686 261.120863 
L 324.115776 262.184071 
L 324.671866 262.806656 
L 325.227956 263.077936 
L 325.784047 263.047577 
L 326.340137 262.742446 
L 326.896227 262.17609 
L 327.730362 260.866325 
L 328.842542 258.44544 
L 330.510813 254.576376 
L 331.344948 253.268986 
L 331.901038 252.835301 
L 332.457128 252.807969 
L 333.013219 253.192494 
L 333.569309 253.954803 
L 334.403444 255.650784 
L 336.90585 261.503371 
L 337.46194 262.312752 
L 338.01803 262.748596 
L 338.296075 262.798316 
L 338.57412 262.718999 
L 338.852165 262.495521 
L 339.408255 261.542029 
L 339.964345 259.762009 
L 340.520436 256.941758 
L 341.076526 252.836387 
L 341.632616 247.179744 
L 342.188706 239.717513 
L 343.022841 224.759833 
L 343.856976 205.273074 
L 345.247202 165.668661 
L 346.637427 127.314761 
L 347.193517 115.805003 
L 347.749607 107.89362 
L 348.027653 105.500976 
L 348.305698 104.225085 
L 348.583743 104.093794 
L 348.861788 105.11134 
L 349.139833 107.257791 
L 349.695923 114.743408 
L 350.252013 125.956688 
L 351.086148 147.839357 
L 353.588554 218.880972 
L 354.422689 236.322211 
L 355.256825 249.293291 
L 356.09096 258.329869 
L 356.925095 264.332094 
L 357.75923 268.21412 
L 358.593365 270.736675 
L 359.427501 272.415607 
L 360.261636 273.563782 
L 361.095771 274.365029 
L 361.929906 274.910379 
L 362.764042 275.24488 
L 363.598177 275.385837 
L 364.432312 275.334951 
L 365.266447 275.091923 
L 366.378628 274.484904 
L 367.768853 273.385823 
L 371.105394 270.577643 
L 372.495619 269.379559 
L 373.329754 268.33142 
L 373.885845 267.320201 
L 374.441935 265.908746 
L 374.998025 263.930795 
L 375.554115 261.178367 
L 376.110205 257.408252 
L 376.666295 252.36951 
L 377.50043 241.959534 
L 378.334566 227.780622 
L 379.446746 203.641401 
L 381.393062 158.655621 
L 381.949152 149.103568 
L 382.505242 142.527611 
L 382.783287 140.540386 
L 383.061332 139.48461 
L 383.339377 139.383786 
L 383.617422 140.240686 
L 383.895467 142.037118 
L 384.451557 148.275803 
L 385.007648 157.579376 
L 385.841783 175.618237 
L 388.344188 233.046518 
L 389.178324 246.813764 
L 390.012459 256.939582 
L 390.846594 263.920065 
L 391.680729 268.500003 
L 392.514865 271.426413 
L 393.349 273.279544 
L 394.183135 274.450912 
L 395.01727 275.191891 
L 395.851405 275.642166 
L 396.685541 275.880859 
L 397.797721 275.947421 
L 398.909901 275.782385 
L 400.300127 275.319381 
L 402.246442 274.376416 
L 406.417118 272.110472 
L 407.251253 271.387081 
L 408.085389 270.310004 
L 408.641479 269.277691 
L 409.197569 267.880887 
L 409.753659 265.986434 
L 410.309749 263.429902 
L 410.865839 260.02851 
L 411.42193 255.593737 
L 412.256065 246.634151 
L 413.0902 234.631401 
L 414.20238 214.372057 
L 416.426741 171.764156 
L 416.982831 164.443958 
L 417.538921 159.72464 
L 417.816966 158.469129 
L 418.095011 157.989756 
L 418.373056 158.29655 
L 418.651102 159.383321 
L 419.207192 163.792016 
L 419.763282 170.861282 
L 420.597417 185.219212 
L 423.655913 242.977643 
L 424.490048 253.529658 
L 425.324183 261.176965 
L 426.158319 266.401801 
L 426.436364 267.712148 
L 426.436364 267.712148 
" clip-path="url(#pbbd0d5f6f2)" style="fill: none; stroke-dasharray: 11.1,4.8; stroke-dashoffset: 0; stroke: #000000; stroke-width: 3"/>
   </g>
   <g id="line2d_2">
    <path d="M 27.163636 286.974691 
L 28.275817 282.761748 
L 30.222132 274.113999 
L 32.446493 264.433152 
L 33.558673 260.394053 
L 34.392808 258.155114 
L 34.948898 257.215824 
L 35.504989 256.827376 
L 35.783034 256.864111 
L 36.061079 257.064967 
L 36.617169 257.978587 
L 37.173259 259.586976 
L 37.729349 261.87719 
L 38.563484 266.490174 
L 39.675665 274.428316 
L 41.62198 290.765288 
L 43.012206 301.770123 
L 44.124386 308.757746 
L 44.958521 312.555734 
L 45.514611 314.355026 
L 46.070701 315.581622 
L 46.626792 316.270892 
L 47.182882 316.472727 
L 47.738972 316.245848 
L 48.295062 315.65397 
L 49.129197 314.224704 
L 50.241378 311.646393 
L 54.134009 301.887566 
L 55.246189 299.815729 
L 56.080324 298.674989 
L 56.914459 297.945782 
L 57.748595 297.57832 
L 59.13882 297.098627 
L 59.69491 296.566625 
L 60.251 295.584188 
L 60.80709 293.976128 
L 61.363181 291.592547 
L 61.919271 288.331191 
L 62.753406 281.735228 
L 63.865586 270.191198 
L 66.646037 238.646237 
L 67.480172 231.777751 
L 68.314307 226.849372 
L 68.870398 224.58936 
L 69.426488 223.041397 
L 69.982578 222.0876 
L 70.538668 221.612659 
L 71.094758 221.5206 
L 71.650848 221.744488 
L 72.206938 222.247409 
L 72.763029 223.016056 
L 73.597164 224.666944 
L 74.431299 226.903683 
L 75.543479 230.63645 
L 78.045885 239.409253 
L 78.88002 241.401757 
L 79.43611 242.261583 
L 79.992201 242.700317 
L 80.548291 242.701174 
L 81.104381 242.269106 
L 81.660471 241.430332 
L 82.494606 239.515082 
L 83.606787 236.105321 
L 86.109192 227.94074 
L 87.499418 224.220182 
L 92.226184 212.601956 
L 93.338364 210.673177 
L 94.450544 208.722028 
L 95.006635 207.368234 
L 95.562725 205.502411 
L 96.118815 202.924804 
L 96.674905 199.459369 
L 97.50904 192.333912 
L 98.343175 182.809949 
L 99.455356 166.986149 
L 101.957761 129.531625 
L 102.791897 120.863704 
L 103.347987 117.033578 
L 103.904077 114.941383 
L 104.182122 114.566155 
L 104.460167 114.637668 
L 104.738212 115.149036 
L 105.016257 116.089481 
L 105.572347 119.195658 
L 106.128438 123.807542 
L 106.962573 133.154208 
L 108.074753 149.108517 
L 110.299114 186.360227 
L 111.689339 207.480111 
L 112.523474 217.458338 
L 113.35761 224.864193 
L 113.9137 228.345752 
L 114.46979 230.750109 
L 115.02588 232.218399 
L 115.58197 232.930711 
L 116.13806 233.086473 
L 116.69415 232.885947 
L 118.362421 231.885031 
L 118.918511 231.848274 
L 119.474601 232.081114 
L 120.030691 232.592593 
L 120.864827 233.793022 
L 122.533097 236.530307 
L 123.089187 237.075661 
L 123.645277 237.246535 
L 124.201367 236.977971 
L 124.757458 236.252241 
L 125.313548 235.097785 
L 126.147683 232.709354 
L 127.259863 228.735058 
L 128.928134 221.872225 
L 130.040314 216.407973 
L 130.874449 211.380628 
L 131.708584 205.22848 
L 132.820765 194.964511 
L 133.932945 182.373899 
L 137.547531 138.430252 
L 138.103621 134.188163 
L 138.659711 131.386823 
L 138.937756 130.587247 
L 139.215801 130.211954 
L 139.493847 130.272182 
L 139.771892 130.774135 
L 140.049937 131.718562 
L 140.606027 134.912244 
L 141.162117 139.757364 
L 141.996252 149.735722 
L 143.108433 166.778958 
L 146.166928 216.554738 
L 147.001064 226.507932 
L 147.835199 233.924368 
L 148.391289 237.466705 
L 148.947379 239.983116 
L 149.503469 241.606969 
L 150.059559 242.497569 
L 150.61565 242.823061 
L 151.17174 242.745103 
L 151.72783 242.409272 
L 153.95219 240.650796 
L 154.508281 240.4647 
L 155.064371 240.44895 
L 155.898506 240.722859 
L 158.400912 242.01792 
L 158.957002 241.960332 
L 159.513092 241.676546 
L 160.069182 241.165794 
L 160.903317 240.020401 
L 161.737453 238.498372 
L 162.571588 236.614138 
L 163.405723 234.220208 
L 164.239858 230.984555 
L 165.073993 226.445988 
L 165.908129 220.128993 
L 166.742264 211.680846 
L 167.576399 201.002141 
L 168.688579 183.795973 
L 171.190985 143.179596 
L 172.02512 133.723583 
L 172.58121 129.659692 
L 172.859256 128.396065 
L 173.137301 127.671522 
L 173.415346 127.496314 
L 173.693391 127.873456 
L 173.971436 128.797469 
L 174.527526 132.226983 
L 175.083616 137.596801 
L 175.917751 148.644465 
L 177.029932 166.98307 
L 179.254292 204.45132 
L 180.366473 219.117233 
L 181.200608 227.639599 
L 182.034743 234.227665 
L 182.868878 239.271617 
L 183.703013 243.204272 
L 184.815194 247.302742 
L 185.927374 250.46037 
L 186.761509 252.26955 
L 187.595644 253.615117 
L 188.42978 254.576262 
L 191.766321 257.842941 
L 193.156546 259.529476 
L 193.712636 259.971663 
L 194.268726 260.123883 
L 194.824816 259.879407 
L 195.380907 259.142347 
L 195.936997 257.835803 
L 196.493087 255.907355 
L 197.327222 251.804156 
L 198.161357 246.292741 
L 199.273538 237.038508 
L 200.663763 223.169487 
L 202.610079 200.97647 
L 205.946619 161.838084 
L 206.780755 154.948723 
L 207.336845 151.85548 
L 207.892935 150.20402 
L 208.17098 149.962777 
L 208.449025 150.123247 
L 208.72707 150.687254 
L 209.28316 153.002633 
L 209.83925 156.802843 
L 210.673386 164.853523 
L 211.785566 178.558951 
L 214.566017 214.625542 
L 215.956242 229.144931 
L 217.068422 238.636932 
L 218.180603 246.346084 
L 219.014738 250.950357 
L 219.848873 254.513196 
L 220.683008 257.065308 
L 221.517144 258.769352 
L 222.629324 260.302599 
L 223.463459 261.488489 
L 224.019549 262.5485 
L 224.853684 264.770039 
L 225.68782 267.799918 
L 228.190225 277.954409 
L 228.746316 279.180069 
L 229.024361 279.506441 
L 229.302406 279.619738 
L 229.580451 279.508696 
L 229.858496 279.166398 
L 230.414586 277.783435 
L 230.970676 275.507234 
L 231.804811 270.654349 
L 232.916992 262.35531 
L 236.253533 234.573064 
L 237.643758 221.255644 
L 239.033983 205.032508 
L 241.536389 174.492465 
L 242.370524 167.783195 
L 242.926614 165.186494 
L 243.204659 164.521784 
L 243.482704 164.294839 
L 243.76075 164.508233 
L 244.038795 165.1566 
L 244.594885 167.702751 
L 245.150975 171.759844 
L 245.98511 180.108388 
L 247.375336 197.479184 
L 249.599696 225.292544 
L 250.989921 239.570053 
L 252.102102 248.989485 
L 253.214282 256.669579 
L 254.326462 262.609872 
L 255.160598 265.974164 
L 255.994733 268.564298 
L 257.384958 271.981461 
L 258.497139 274.961286 
L 259.331274 277.866013 
L 260.443454 282.793127 
L 262.667815 293.353916 
L 263.223905 295.160148 
L 263.779995 296.299184 
L 264.05804 296.583684 
L 264.336085 296.666064 
L 264.61413 296.542275 
L 264.892175 296.21158 
L 265.448265 294.945544 
L 266.004356 292.933748 
L 266.838491 288.766009 
L 267.950671 281.79087 
L 269.896987 267.8864 
L 271.009167 258.788589 
L 272.121347 247.700187 
L 273.233527 233.909321 
L 276.570068 188.909106 
L 277.126159 184.404898 
L 277.682249 181.578525 
L 277.960294 180.835087 
L 278.238339 180.544988 
L 278.516384 180.704028 
L 278.794429 181.301119 
L 279.350519 183.733105 
L 279.906609 187.635228 
L 280.740744 195.63769 
L 282.13097 212.088718 
L 283.79924 231.620911 
L 284.911421 242.386153 
L 286.023601 250.975896 
L 287.135781 257.739059 
L 288.247962 263.133735 
L 289.360142 267.39682 
L 290.194277 269.85286 
L 291.028412 271.664096 
L 291.862547 272.907157 
L 292.974728 274.032587 
L 294.086908 275.167817 
L 294.921043 276.362055 
L 296.033224 278.49059 
L 297.423449 281.279689 
L 297.979539 282.077834 
L 298.535629 282.516392 
L 298.813674 282.569867 
L 299.091719 282.49952 
L 299.64781 281.959797 
L 300.2039 280.862028 
L 300.75999 279.200988 
L 301.594125 275.696036 
L 302.42826 271.069898 
L 303.540441 263.294567 
L 304.652621 253.640392 
L 305.764801 241.844846 
L 306.876982 227.73786 
L 308.823297 199.290035 
L 310.213522 180.366613 
L 311.047658 171.800055 
L 311.603748 167.812957 
L 312.159838 165.418631 
L 312.437883 164.851521 
L 312.715928 164.711267 
L 312.993973 164.996351 
L 313.272018 165.699974 
L 313.828108 168.311897 
L 314.384199 172.40049 
L 315.218334 180.836847 
L 316.330514 194.989499 
L 318.83292 228.155806 
L 319.9451 239.740817 
L 321.05728 248.689554 
L 322.169461 255.565013 
L 323.559686 262.417034 
L 324.949911 268.042866 
L 326.062092 271.547808 
L 326.896227 273.49392 
L 327.730362 274.929742 
L 329.398633 277.129734 
L 332.179083 280.779363 
L 332.735173 281.053932 
L 333.291264 280.962247 
L 333.847354 280.448833 
L 334.403444 279.497565 
L 334.959534 278.129143 
L 335.793669 275.400328 
L 336.90585 270.776169 
L 338.01803 265.177184 
L 339.13021 258.290859 
L 339.964345 251.884533 
L 341.076526 241.221227 
L 342.188706 228.088297 
L 345.803292 182.260086 
L 346.637427 175.742301 
L 347.193517 173.080445 
L 347.471562 172.303526 
L 347.749607 171.908325 
L 348.027653 171.898888 
L 348.305698 172.274776 
L 348.583743 173.030511 
L 349.139833 175.638518 
L 349.695923 179.591917 
L 350.530058 187.603068 
L 351.920284 204.316654 
L 353.866599 227.90836 
L 354.978779 239.10611 
L 356.09096 248.429613 
L 357.481185 258.027123 
L 358.593365 264.263147 
L 359.427501 267.96944 
L 360.261636 270.704503 
L 360.817726 271.967305 
L 361.373816 272.809137 
L 361.929906 273.286333 
L 362.485996 273.477158 
L 363.320132 273.42045 
L 365.822537 272.92228 
L 368.324943 272.780618 
L 369.159078 272.366004 
L 369.715168 271.865271 
L 370.271259 271.131908 
L 370.827349 270.117376 
L 371.383439 268.770236 
L 372.217574 266.009799 
L 373.051709 262.207764 
L 373.885845 257.215571 
L 374.71998 250.944088 
L 375.83216 240.632428 
L 377.222385 225.360295 
L 379.168701 203.868109 
L 380.002836 196.592455 
L 380.836971 191.38601 
L 381.393062 189.22426 
L 381.949152 188.122245 
L 382.227197 187.950469 
L 382.505242 188.014239 
L 382.783287 188.296903 
L 383.339377 189.440932 
L 383.895467 191.215928 
L 384.729602 194.698015 
L 386.119828 201.671823 
L 387.510053 209.667862 
L 388.622233 217.433129 
L 389.734414 227.216395 
L 390.846594 239.27606 
L 394.183135 277.843664 
L 395.01727 283.819548 
L 395.57336 286.355933 
L 396.12945 287.718548 
L 396.407496 287.980908 
L 396.685541 287.984505 
L 396.963586 287.749036 
L 397.519676 286.655688 
L 398.075766 284.908134 
L 399.187946 280.339155 
L 400.578172 274.68047 
L 401.412307 272.194481 
L 401.968397 271.07389 
L 402.524487 270.390009 
L 403.080577 270.095357 
L 403.636668 270.097325 
L 405.026893 270.454989 
L 405.582983 270.274634 
L 406.139073 269.625871 
L 406.695163 268.327708 
L 407.251253 266.215473 
L 407.807344 263.145536 
L 408.363434 258.997331 
L 409.197569 250.556432 
L 410.031704 239.31295 
L 411.143885 220.161307 
L 412.812155 185.67363 
L 414.20238 158.28741 
L 415.036516 145.79748 
L 415.592606 139.938599 
L 416.148696 136.305457 
L 416.426741 135.342421 
L 416.704786 134.938509 
L 416.982831 135.074341 
L 417.260876 135.722906 
L 417.816966 138.411687 
L 418.373056 142.664467 
L 419.207192 151.127286 
L 421.153507 174.641386 
L 423.655913 203.743099 
L 426.436364 233.920188 
L 426.436364 233.920188 
" clip-path="url(#pbbd0d5f6f2)" style="fill: none; stroke: #ff00ff; stroke-width: 3; stroke-linecap: square"/>
   </g>
   <g id="patch_3">
    <path d="M 7.2 331.2 
L 7.2 7.2 
" style="fill: none; stroke: #000000; stroke-width: 0.8; stroke-linejoin: miter; stroke-linecap: square"/>
   </g>
   <g id="patch_4">
    <path d="M 446.4 331.2 
L 446.4 7.2 
" style="fill: none; stroke: #000000; stroke-width: 0.8; stroke-linejoin: miter; stroke-linecap: square"/>
   </g>
   <g id="patch_5">
    <path d="M 7.2 331.2 
L 446.4 331.2 
" style="fill: none; stroke: #000000; stroke-width: 0.8; stroke-linejoin: miter; stroke-linecap: square"/>
   </g>
   <g id="patch_6">
    <path d="M 7.2 7.2 
L 446.4 7.2 
" style="fill: none; stroke: #000000; stroke-width: 0.8; stroke-linejoin: miter; stroke-linecap: square"/>
   </g>
  </g>
 </g>
 <defs>
  <clipPath id="pbbd0d5f6f2">
   <rect x="7.2" y="7.2" width="439.2" height="324"/>
  </clipPath>
 </defs>
</svg>
