<?xml version="1.0" encoding="utf-8" standalone="no"?>
<!DOCTYPE svg PUBLIC "-//W3C//DTD SVG 1.1//EN"
  "http://www.w3.org/Graphics/SVG/1.1/DTD/svg11.dtd">
<svg xmlns:xlink="http://www.w3.org/1999/xlink" width="453.6pt" height="338.4pt" viewBox="0 0 453.6 338.4" xmlns="http://www.w3.org/2000/svg" version="1.1">
 <metadata>
  <rdf:RDF xmlns:dc="http://purl.org/dc/elements/1.1/" xmlns:cc="http://creativecommons.org/ns#" xmlns:rdf="http://www.w3.org/1999/02/22-rdf-syntax-ns#">
   <cc:Work>
    <dc:type rdf:resource="http://purl.org/dc/dcmitype/StillImage"/>
    <dc:date>2025-05-15T17:03:14.029436</dc:date>
    <dc:format>image/svg+xml</dc:format>
    <dc:creator>
     <cc:Agent>
      <dc:title>Matplotlib v3.10.1, https://matplotlib.org/</dc:title>
     </cc:Agent>
    </dc:creator>
   </cc:Work>
  </rdf:RDF>
 </metadata>
 <defs>
  <style type="text/css">*{stroke-linejoin: round; stroke-linecap: butt}</style>
 </defs>
 <g id="figure_1">
  <g id="patch_1">
   <path d="M 0 338.4 
L 453.6 338.4 
L 453.6 0 
L 0 0 
z
" style="fill: #ffffff"/>
  </g>
  <g id="axes_1">
   <g id="patch_2">
    <path d="M 7.2 331.2 
L 446.4 331.2 
L 446.4 7.2 
L 7.2 7.2 
z
" style="fill: #ffffff"/>
   </g>
   <g id="matplotlib.axis_1"/>
   <g id="matplotlib.axis_2"/>
   <g id="line2d_1">
    <path d="M 27.163636 295.802518 
L 27.719727 294.786871 
L 28.275817 293.431054 
L 29.109952 290.673811 
L 29.944087 287.004156 
L 31.056267 280.809263 
L 32.446493 271.512653 
L 34.114763 258.620099 
L 35.504989 246.037237 
L 38.007394 222.044385 
L 38.563484 218.241628 
L 39.119575 215.698767 
L 39.39762 214.977016 
L 39.675665 214.648086 
L 39.95371 214.72081 
L 40.231755 215.194411 
L 40.5098 216.058728 
L 41.06589 218.87289 
L 41.900025 225.278772 
L 44.680476 249.88056 
L 45.236566 252.908082 
L 45.792656 254.924226 
L 46.348747 255.965888 
L 46.626792 256.159002 
L 46.904837 256.164665 
L 47.460927 255.734897 
L 49.129197 253.624549 
L 49.407242 253.562661 
L 49.685287 253.673942 
L 49.963332 253.982232 
L 50.519423 255.252613 
L 51.075513 257.42702 
L 51.909648 262.216104 
L 53.299873 272.528421 
L 54.690099 282.256141 
L 55.524234 286.621204 
L 56.358369 289.709449 
L 57.192504 291.724972 
L 58.02664 292.997696 
L 58.860775 293.846976 
L 60.251 294.887603 
L 62.197316 296.09435 
L 63.587541 296.750534 
L 64.977767 297.171217 
L 66.646037 297.415388 
L 70.538668 297.622533 
L 76.377615 297.874153 
L 84.718967 297.665746 
L 86.109192 297.395348 
L 86.943327 297.046374 
L 87.777463 296.505396 
L 88.889643 295.481143 
L 93.616409 290.357563 
L 94.172499 289.295066 
L 94.72859 287.759915 
L 95.28468 285.603625 
L 95.84077 282.718129 
L 96.674905 276.964661 
L 97.787085 267.196366 
L 99.177311 254.655849 
L 100.011446 249.093006 
L 100.567536 246.835355 
L 100.845581 246.205978 
L 101.123626 245.918835 
L 101.401671 245.970038 
L 101.679716 246.347209 
L 102.235807 247.991335 
L 102.791897 250.610742 
L 103.904077 257.487597 
L 105.294302 265.825113 
L 106.128438 269.237152 
L 106.684528 270.485656 
L 106.962573 270.72639 
L 107.240618 270.667698 
L 107.518663 270.269604 
L 107.796708 269.485652 
L 108.352798 266.543245 
L 108.908888 261.360976 
L 109.464978 253.443654 
L 110.021069 242.397456 
L 110.855204 219.736581 
L 111.967384 180.595446 
L 113.35761 131.316318 
L 113.9137 116.946511 
L 114.46979 107.93985 
L 114.747835 105.75386 
L 115.02588 105.193795 
L 115.303925 106.263645 
L 115.58197 108.922376 
L 116.13806 118.628138 
L 116.69415 133.195298 
L 117.806331 170.574128 
L 119.196556 216.357089 
L 120.030691 236.996543 
L 120.864827 251.431975 
L 121.420917 258.074692 
L 121.977007 262.888758 
L 122.811142 267.772056 
L 123.645277 271.067564 
L 124.757458 274.362057 
L 125.869638 276.972547 
L 126.703773 278.468036 
L 127.537908 279.468641 
L 128.093998 279.839036 
L 128.650089 279.983202 
L 129.206179 279.932509 
L 130.040314 279.599256 
L 131.708584 278.766413 
L 132.54272 278.651327 
L 133.09881 278.777184 
L 133.6549 279.083977 
L 134.489035 279.867377 
L 135.879261 281.683379 
L 136.713396 282.649753 
L 137.269486 283.036773 
L 137.825576 283.113276 
L 138.381666 282.823544 
L 138.937756 282.160045 
L 139.771892 280.590563 
L 141.440162 277.10938 
L 141.996252 276.48594 
L 142.274297 276.359377 
L 142.552342 276.371016 
L 142.830387 276.526608 
L 143.386478 277.270088 
L 143.942568 278.547926 
L 144.776703 281.233583 
L 147.279109 290.29434 
L 148.113244 292.474641 
L 148.947379 294.084392 
L 149.781514 295.225305 
L 150.61565 296.025897 
L 151.72783 296.747212 
L 152.84001 297.210118 
L 153.95219 297.469267 
L 155.064371 297.489314 
L 155.898506 297.265546 
L 156.732641 296.729757 
L 157.288731 296.14362 
L 158.122867 294.851404 
L 158.957002 293.028695 
L 160.069182 289.865921 
L 163.961813 277.772217 
L 165.073993 274.357127 
L 165.908129 271.16458 
L 166.742264 267.206707 
L 169.80076 251.252112 
L 170.35685 249.670186 
L 170.91294 248.827849 
L 171.190985 248.684062 
L 171.46903 248.715993 
L 171.747075 248.912173 
L 172.303165 249.739391 
L 172.859256 251.040265 
L 173.693391 253.62758 
L 174.805571 257.918472 
L 175.917751 263.140698 
L 177.029932 269.411576 
L 180.088427 287.728075 
L 180.922563 291.243817 
L 181.756698 293.774903 
L 182.590833 295.439286 
L 183.424968 296.448226 
L 184.259104 297.017678 
L 185.093239 297.317614 
L 186.205419 297.483344 
L 188.151735 297.48841 
L 191.488276 297.466832 
L 194.546771 297.717994 
L 198.161357 297.991477 
L 200.941808 297.972459 
L 204.556394 297.712352 
L 206.50271 297.431155 
L 207.892935 297.00652 
L 208.72707 296.554586 
L 209.28316 296.081663 
L 209.83925 295.353924 
L 210.395341 294.206534 
L 210.951431 292.410439 
L 211.507521 289.678638 
L 212.063611 285.690666 
L 212.619701 280.13699 
L 213.175791 272.772967 
L 214.009927 258.082277 
L 214.844062 239.238531 
L 216.234287 201.377582 
L 218.736693 131.405473 
L 219.848873 106.791552 
L 220.404963 97.628627 
L 220.961053 91.388896 
L 221.239099 89.571962 
L 221.517144 88.726477 
L 221.795189 88.918119 
L 222.073234 90.198394 
L 222.351279 92.601387 
L 222.907369 100.802991 
L 223.463459 113.336559 
L 224.297594 138.88461 
L 227.35609 245.124745 
L 228.190225 263.681523 
L 229.024361 276.138232 
L 229.580451 281.650658 
L 230.136541 285.491302 
L 230.692631 288.137131 
L 231.248721 289.99252 
L 232.082856 291.932424 
L 233.195037 293.804988 
L 234.307217 295.275356 
L 235.419397 296.352293 
L 236.253533 296.883995 
L 237.365713 297.278572 
L 238.755938 297.449848 
L 241.814434 297.473778 
L 245.98511 297.370176 
L 249.043606 297.0629 
L 250.433831 296.711882 
L 251.546012 296.165912 
L 252.380147 295.523837 
L 253.214282 294.616663 
L 254.048417 293.32997 
L 254.604507 292.155619 
L 255.160598 290.616164 
L 255.716688 288.589631 
L 256.272778 285.941089 
L 257.106913 280.525541 
L 257.941048 273.15341 
L 259.053229 260.533665 
L 261.277589 233.475498 
L 262.111724 226.61647 
L 262.667815 223.922739 
L 262.94586 223.19763 
L 263.223905 222.893434 
L 263.50195 223.004536 
L 263.779995 223.517486 
L 264.336085 225.660722 
L 264.892175 229.091719 
L 265.72631 236.005383 
L 269.618942 272.05063 
L 270.731122 279.512407 
L 271.843302 285.407834 
L 272.677437 288.844706 
L 273.511573 291.489851 
L 274.345708 293.414901 
L 275.179843 294.719248 
L 276.013978 295.527265 
L 276.848113 295.973944 
L 277.960294 296.222006 
L 283.521195 296.848103 
L 285.745556 297.140544 
L 288.526007 297.210989 
L 291.862547 297.357223 
L 294.921043 297.465158 
L 297.423449 297.260517 
L 299.64781 297.152169 
L 303.818486 297.206659 
L 304.652621 296.936907 
L 305.486756 296.47689 
L 306.320891 295.81168 
L 307.433072 294.613907 
L 308.823297 292.684047 
L 310.213522 290.366587 
L 311.603748 287.61718 
L 312.437883 285.57181 
L 313.272018 282.977277 
L 314.106153 279.577071 
L 314.940289 275.189617 
L 316.052469 267.919049 
L 317.720739 256.500345 
L 318.554875 252.445266 
L 319.110965 250.923394 
L 319.38901 250.570314 
L 319.667055 250.495784 
L 319.9451 250.694475 
L 320.223145 251.152675 
L 320.779235 252.753493 
L 321.61337 256.343455 
L 323.003596 262.61209 
L 323.559686 264.296352 
L 324.115776 265.230805 
L 324.393821 265.407995 
L 324.671866 265.403726 
L 324.949911 265.236554 
L 325.506002 264.519402 
L 326.896227 262.125939 
L 327.452317 261.694032 
L 327.730362 261.711955 
L 328.008407 261.911289 
L 328.286452 262.303297 
L 328.842542 263.677839 
L 329.398633 265.799192 
L 330.232768 270.095501 
L 333.013219 286.106546 
L 333.847354 289.456486 
L 334.681489 291.866837 
L 335.515624 293.479962 
L 336.349759 294.494774 
L 337.183895 295.101196 
L 338.01803 295.448744 
L 339.408255 295.73897 
L 342.466751 296.288622 
L 346.081337 297.075921 
L 349.695923 297.470628 
L 354.700734 297.901579 
L 357.75923 297.904074 
L 360.261636 297.712598 
L 365.822537 296.923961 
L 372.217574 295.983994 
L 373.607799 295.781504 
L 374.71998 295.39921 
L 375.83216 294.772375 
L 377.222385 293.718197 
L 382.783287 288.950265 
L 383.617422 287.973762 
L 384.173512 287.012582 
L 384.729602 285.555474 
L 385.285693 283.298505 
L 385.841783 279.873088 
L 386.397873 274.8864 
L 386.953963 267.986334 
L 387.788098 253.549675 
L 388.622233 234.142482 
L 389.734414 202.163539 
L 392.236819 126.7541 
L 393.627045 93.316574 
L 395.295315 59.914426 
L 396.685541 35.991749 
L 397.241631 28.660771 
L 397.797721 23.696843 
L 398.075766 22.36359 
L 398.353811 21.927273 
L 398.631856 22.472683 
L 398.909901 24.068018 
L 399.187946 26.761357 
L 399.744036 35.516462 
L 400.300127 48.624145 
L 401.134262 75.150264 
L 403.914713 174.510534 
L 404.470803 186.806059 
L 405.026893 194.517171 
L 405.304938 196.558841 
L 405.582983 197.385165 
L 405.861028 197.020711 
L 406.139073 195.514118 
L 406.695163 189.387085 
L 407.251253 179.856893 
L 409.753659 130.831633 
L 410.031704 128.365356 
L 410.309749 127.01804 
L 410.587794 126.856382 
L 410.865839 127.911962 
L 411.143885 130.180487 
L 411.699975 138.16418 
L 412.256065 150.111455 
L 413.368245 181.296583 
L 414.75847 220.680137 
L 415.592606 238.744647 
L 416.426741 251.23252 
L 416.982831 256.748384 
L 417.538921 260.509392 
L 418.095011 263.032923 
L 418.929147 265.591374 
L 420.319372 269.568005 
L 421.153507 272.682148 
L 423.099823 281.315286 
L 424.212003 285.75745 
L 425.324183 289.232997 
L 426.436364 291.818902 
L 426.436364 291.818902 
" clip-path="url(#pcef9fad81b)" style="fill: none; stroke-dasharray: 11.1,4.8; stroke-dashoffset: 0; stroke: #000000; stroke-width: 3"/>
   </g>
   <g id="line2d_2">
    <path d="M 27.163636 282.102227 
L 27.997772 279.089267 
L 28.831907 275.120042 
L 29.944087 268.479077 
L 31.890403 254.826059 
L 33.280628 245.549528 
L 34.392808 239.490465 
L 35.226944 236.007206 
L 36.061079 233.500115 
L 36.617169 232.365963 
L 37.173259 231.642973 
L 37.729349 231.306667 
L 38.285439 231.326978 
L 38.84153 231.669105 
L 39.39762 232.294546 
L 40.231755 233.672121 
L 41.343935 236.087897 
L 44.124386 242.465109 
L 44.958521 243.805683 
L 45.792656 244.73307 
L 46.626792 245.304763 
L 48.851152 246.416954 
L 49.407242 246.948466 
L 49.963332 247.691574 
L 50.797468 249.276533 
L 51.631603 251.483577 
L 52.465738 254.33728 
L 53.577918 259.123684 
L 54.968144 266.429756 
L 57.748595 281.619 
L 58.58273 285.016126 
L 59.416865 287.524895 
L 60.251 289.205744 
L 61.085135 290.293497 
L 63.031451 292.423853 
L 63.865586 293.81362 
L 64.977767 296.247918 
L 66.924082 300.700286 
L 67.758217 301.969918 
L 68.314307 302.467132 
L 68.870398 302.680199 
L 69.426488 302.640308 
L 70.260623 302.236231 
L 72.484984 300.828761 
L 74.987389 299.839293 
L 75.543479 299.206772 
L 76.09957 298.233486 
L 76.65566 296.867903 
L 77.489795 294.074801 
L 78.601975 289.266848 
L 80.548291 280.599521 
L 81.382426 277.899969 
L 81.938516 276.618579 
L 82.494606 275.741239 
L 83.050696 275.206272 
L 83.884832 274.823635 
L 84.997012 274.445566 
L 85.553102 274.049388 
L 86.109192 273.403402 
L 86.665282 272.471171 
L 87.499418 270.557721 
L 88.889643 266.489297 
L 90.557913 261.708742 
L 91.670094 259.185923 
L 95.28468 251.784326 
L 98.621221 243.697966 
L 99.733401 241.746193 
L 100.845581 240.27389 
L 102.791897 238.240518 
L 104.182122 236.591173 
L 105.294302 234.891121 
L 106.406483 232.783414 
L 107.518663 230.251995 
L 108.630843 227.257908 
L 109.743024 223.687311 
L 110.855204 219.346939 
L 111.967384 214.017656 
L 113.079564 207.563276 
L 114.46979 198.060852 
L 117.528286 176.426543 
L 118.362421 171.97994 
L 119.196556 168.737669 
L 119.752646 167.346305 
L 120.308736 166.616628 
L 120.586781 166.506696 
L 120.864827 166.568012 
L 121.142872 166.800028 
L 121.698962 167.767789 
L 122.255052 169.380338 
L 123.089187 172.889522 
L 123.923322 177.465157 
L 125.591593 188.354567 
L 127.259863 199.003019 
L 128.372044 204.873542 
L 129.484224 209.500999 
L 130.596404 212.984382 
L 131.708584 215.561706 
L 132.820765 217.511525 
L 134.21099 219.471017 
L 138.103621 224.70882 
L 139.493847 227.007494 
L 140.327982 228.800939 
L 141.162117 231.184529 
L 141.996252 234.436943 
L 142.830387 238.808372 
L 143.664523 244.434963 
L 144.776703 253.761404 
L 148.391289 286.859012 
L 149.225424 292.19545 
L 150.059559 296.18065 
L 150.893695 298.931707 
L 151.449785 300.186546 
L 152.005875 301.062022 
L 152.561965 301.624495 
L 153.118055 301.928038 
L 153.674145 302.010704 
L 154.230236 301.892322 
L 154.786326 301.573196 
L 155.342416 301.033978 
L 155.898506 300.236531 
L 156.454596 299.125558 
L 157.010686 297.63313 
L 157.844821 294.517524 
L 158.678957 290.156153 
L 159.513092 284.443896 
L 160.625272 274.934689 
L 163.683768 246.519896 
L 164.517903 240.864091 
L 165.352038 236.6758 
L 166.186174 233.842187 
L 166.742264 232.570361 
L 167.298354 231.675297 
L 168.132489 230.828848 
L 168.966624 230.346461 
L 170.078805 229.988578 
L 171.46903 229.792258 
L 172.859256 229.850905 
L 173.971436 230.131674 
L 174.805571 230.545561 
L 175.639706 231.241154 
L 176.195796 231.940255 
L 176.751887 232.901466 
L 177.307977 234.198996 
L 177.864067 235.910002 
L 178.698202 239.403884 
L 179.532337 244.146626 
L 180.366473 250.141311 
L 181.756698 262.28148 
L 184.259104 284.735955 
L 185.371284 292.443682 
L 186.205419 296.962892 
L 187.039554 300.52945 
L 188.151735 304.176259 
L 189.263915 307.01292 
L 190.65414 309.897351 
L 192.044366 312.224785 
L 193.156546 313.667007 
L 194.268726 314.705655 
L 195.102861 315.214868 
L 195.936997 315.496387 
L 196.771132 315.556059 
L 197.605267 315.399258 
L 198.439402 315.028709 
L 199.273538 314.439898 
L 200.107673 313.611868 
L 200.941808 312.492433 
L 201.775943 310.982014 
L 202.610079 308.926535 
L 203.444214 306.130089 
L 204.278349 302.391828 
L 205.112484 297.565676 
L 206.224664 289.414697 
L 207.61489 277.106381 
L 209.83925 256.887248 
L 210.951431 248.66477 
L 211.785566 243.819567 
L 212.619701 240.141171 
L 213.453836 237.516001 
L 214.287972 235.736606 
L 215.122107 234.541935 
L 216.512332 233.11862 
L 217.624513 231.906666 
L 218.736693 230.352653 
L 221.239099 226.617412 
L 221.795189 226.126769 
L 222.351279 225.877552 
L 222.907369 225.900244 
L 223.463459 226.209345 
L 224.019549 226.806867 
L 224.575639 227.689202 
L 225.409775 229.549826 
L 226.24391 232.108312 
L 227.078045 235.505981 
L 227.91218 239.946391 
L 228.746316 245.614525 
L 229.858496 255.147717 
L 231.526766 272.394525 
L 233.195037 289.174797 
L 234.307217 297.857151 
L 235.141352 302.600863 
L 235.975487 305.904589 
L 236.809623 308.030177 
L 237.365713 308.95473 
L 238.199848 309.834644 
L 239.033983 310.325886 
L 240.146164 310.652959 
L 241.536389 310.785796 
L 243.204659 310.695713 
L 244.87293 310.383612 
L 246.263155 309.915852 
L 247.375336 309.323394 
L 248.209471 308.676287 
L 249.043606 307.76352 
L 249.877741 306.457926 
L 250.711876 304.583803 
L 251.546012 301.924721 
L 252.380147 298.257196 
L 253.214282 293.407631 
L 254.048417 287.320703 
L 255.160598 277.508724 
L 258.775184 243.270524 
L 259.887364 235.708727 
L 260.721499 231.450258 
L 261.555634 228.337128 
L 262.38977 226.255704 
L 262.94586 225.388533 
L 263.50195 224.914044 
L 264.05804 224.827201 
L 264.61413 225.138436 
L 265.17022 225.873067 
L 265.72631 227.069059 
L 266.282401 228.772083 
L 267.116536 232.377645 
L 267.950671 237.343748 
L 268.784806 243.679252 
L 269.896987 253.964261 
L 273.511573 289.800259 
L 274.345708 295.767918 
L 275.179843 300.359123 
L 276.013978 303.657482 
L 276.848113 305.868729 
L 277.682249 307.254355 
L 278.516384 308.073131 
L 279.350519 308.543326 
L 280.740744 308.972887 
L 282.68706 309.524242 
L 283.79924 310.032878 
L 284.911421 310.770887 
L 286.023601 311.75494 
L 287.969916 313.855339 
L 289.360142 315.260009 
L 290.472322 316.060257 
L 291.306457 316.391485 
L 292.140593 316.47162 
L 292.974728 316.30959 
L 293.808863 315.931651 
L 294.921043 315.151508 
L 296.311269 313.848569 
L 298.535629 311.365429 
L 300.75999 308.983387 
L 302.42826 307.559803 
L 304.096531 306.122934 
L 304.930666 305.029182 
L 305.486756 303.995041 
L 306.042846 302.618332 
L 306.876982 299.741105 
L 307.711117 295.727744 
L 308.545252 290.543456 
L 309.657432 282.115698 
L 313.272018 253.221635 
L 314.662244 244.695958 
L 316.052469 237.517955 
L 317.442694 231.439305 
L 318.554875 227.61118 
L 319.38901 225.568809 
L 319.9451 224.666603 
L 320.50119 224.148466 
L 321.05728 224.008122 
L 321.61337 224.224534 
L 322.169461 224.765775 
L 322.725551 225.595848 
L 323.559686 227.313293 
L 324.393821 229.546399 
L 325.227956 232.315297 
L 326.062092 235.721979 
L 326.896227 239.912017 
L 328.008407 246.921055 
L 329.120587 255.552468 
L 331.344948 275.453424 
L 332.735173 286.882872 
L 333.847354 294.053052 
L 334.681489 298.026948 
L 335.515624 300.840334 
L 336.349759 302.665668 
L 336.90585 303.449548 
L 337.46194 303.972494 
L 338.296075 304.412974 
L 339.408255 304.633802 
L 341.632616 304.694176 
L 344.135022 304.828444 
L 345.525247 305.138268 
L 346.637427 305.600744 
L 348.027653 306.44389 
L 350.530058 308.054224 
L 351.364193 308.358613 
L 352.198329 308.458032 
L 353.032464 308.339148 
L 353.866599 308.018398 
L 354.978779 307.344341 
L 356.64705 306.019125 
L 358.31532 304.41574 
L 359.427501 302.996952 
L 360.261636 301.583475 
L 361.095771 299.784478 
L 362.207951 296.822741 
L 364.154267 291.37915 
L 364.988402 289.73875 
L 365.544492 289.079072 
L 366.100582 288.806395 
L 366.656673 288.910417 
L 367.212763 289.342317 
L 368.046898 290.421669 
L 369.715168 292.849265 
L 370.549304 293.595455 
L 371.105394 293.80718 
L 371.661484 293.785638 
L 372.217574 293.553072 
L 373.051709 292.894372 
L 374.441935 291.361874 
L 377.50043 287.6872 
L 378.334566 286.266134 
L 379.168701 284.320685 
L 380.002836 281.696747 
L 380.836971 278.346345 
L 381.949152 272.907075 
L 390.568549 226.359403 
L 393.90509 207.467062 
L 394.739225 203.746765 
L 395.57336 201.023415 
L 396.12945 199.926306 
L 396.407496 199.622818 
L 396.685541 199.491117 
L 396.963586 199.533788 
L 397.241631 199.750722 
L 397.797721 200.687687 
L 398.353811 202.228241 
L 399.187946 205.380065 
L 401.134262 213.465434 
L 401.968397 215.90558 
L 402.524487 216.982434 
L 403.080577 217.643983 
L 403.636668 217.969295 
L 404.470803 218.077273 
L 405.582983 218.15235 
L 406.139073 218.382866 
L 406.695163 218.819321 
L 407.251253 219.47992 
L 408.085389 220.872646 
L 409.197569 223.364297 
L 410.309749 226.493678 
L 411.42193 230.426657 
L 412.256065 234.142757 
L 413.0902 238.704301 
L 414.20238 246.175375 
L 416.148696 261.538208 
L 417.538921 271.497816 
L 418.373056 276.01629 
L 419.207192 279.180547 
L 419.763282 280.568635 
L 420.319372 281.467188 
L 420.875462 281.986013 
L 421.431552 282.24881 
L 423.655913 282.888315 
L 424.490048 283.503746 
L 425.602228 284.678657 
L 426.436364 285.68611 
L 426.436364 285.68611 
" clip-path="url(#pcef9fad81b)" style="fill: none; stroke: #ff00ff; stroke-width: 3; stroke-linecap: square"/>
   </g>
   <g id="patch_3">
    <path d="M 7.2 331.2 
L 7.2 7.2 
" style="fill: none; stroke: #000000; stroke-width: 0.8; stroke-linejoin: miter; stroke-linecap: square"/>
   </g>
   <g id="patch_4">
    <path d="M 446.4 331.2 
L 446.4 7.2 
" style="fill: none; stroke: #000000; stroke-width: 0.8; stroke-linejoin: miter; stroke-linecap: square"/>
   </g>
   <g id="patch_5">
    <path d="M 7.2 331.2 
L 446.4 331.2 
" style="fill: none; stroke: #000000; stroke-width: 0.8; stroke-linejoin: miter; stroke-linecap: square"/>
   </g>
   <g id="patch_6">
    <path d="M 7.2 7.2 
L 446.4 7.2 
" style="fill: none; stroke: #000000; stroke-width: 0.8; stroke-linejoin: miter; stroke-linecap: square"/>
   </g>
  </g>
 </g>
 <defs>
  <clipPath id="pcef9fad81b">
   <rect x="7.2" y="7.2" width="439.2" height="324"/>
  </clipPath>
 </defs>
</svg>
