<?xml version="1.0" encoding="utf-8" standalone="no"?>
<!DOCTYPE svg PUBLIC "-//W3C//DTD SVG 1.1//EN"
  "http://www.w3.org/Graphics/SVG/1.1/DTD/svg11.dtd">
<svg xmlns:xlink="http://www.w3.org/1999/xlink" width="453.6pt" height="338.4pt" viewBox="0 0 453.6 338.4" xmlns="http://www.w3.org/2000/svg" version="1.1">
 <metadata>
  <rdf:RDF xmlns:dc="http://purl.org/dc/elements/1.1/" xmlns:cc="http://creativecommons.org/ns#" xmlns:rdf="http://www.w3.org/1999/02/22-rdf-syntax-ns#">
   <cc:Work>
    <dc:type rdf:resource="http://purl.org/dc/dcmitype/StillImage"/>
    <dc:date>2025-05-15T10:33:16.402409</dc:date>
    <dc:format>image/svg+xml</dc:format>
    <dc:creator>
     <cc:Agent>
      <dc:title>Matplotlib v3.10.1, https://matplotlib.org/</dc:title>
     </cc:Agent>
    </dc:creator>
   </cc:Work>
  </rdf:RDF>
 </metadata>
 <defs>
  <style type="text/css">*{stroke-linejoin: round; stroke-linecap: butt}</style>
 </defs>
 <g id="figure_1">
  <g id="patch_1">
   <path d="M 0 338.4 
L 453.6 338.4 
L 453.6 0 
L 0 0 
z
" style="fill: #ffffff"/>
  </g>
  <g id="axes_1">
   <g id="patch_2">
    <path d="M 7.2 331.2 
L 446.4 331.2 
L 446.4 7.2 
L 7.2 7.2 
z
" style="fill: #ffffff"/>
   </g>
   <g id="matplotlib.axis_1"/>
   <g id="matplotlib.axis_2"/>
   <g id="line2d_1">
    <path d="M 27.163636 200.28331 
L 28.228364 166.222965 
L 29.293091 139.511984 
L 30.357818 119.373407 
L 31.156364 108.108474 
L 31.954909 99.722631 
L 32.753455 93.952883 
L 33.285818 91.437736 
L 33.818182 89.908917 
L 34.084364 89.494958 
L 34.350545 89.305157 
L 34.616727 89.332931 
L 34.882909 89.572171 
L 35.415273 90.663118 
L 35.947636 92.539954 
L 36.48 95.216654 
L 37.278545 100.687892 
L 38.077091 107.86841 
L 38.875636 116.898024 
L 39.940364 131.943842 
L 41.005091 150.886942 
L 42.069818 174.49672 
L 43.134545 203.650525 
L 43.666909 216.909631 
L 44.465455 223.388503 
L 46.328727 238.702738 
L 48.990545 260.577122 
L 50.321455 269.894173 
L 51.386182 276.061285 
L 52.450909 280.904574 
L 53.249455 283.613512 
L 54.048 285.522441 
L 54.580364 286.360345 
L 55.112727 286.865328 
L 55.645091 287.056526 
L 56.177455 286.958848 
L 56.709818 286.603109 
L 57.242182 286.017862 
L 58.040727 284.781426 
L 59.105455 282.704558 
L 61.767273 276.976853 
L 62.565818 274.323595 
L 63.098182 272.100189 
L 63.630545 262.388153 
L 68.688 156.88141 
L 69.752727 140.318379 
L 70.817455 127.340428 
L 71.616 120.197639 
L 72.148364 116.716422 
L 72.680727 114.282718 
L 73.213091 112.903357 
L 73.479273 112.590276 
L 73.745455 112.532287 
L 74.011636 112.742647 
L 74.277818 113.186838 
L 74.810182 114.798048 
L 75.342545 117.329558 
L 76.141091 122.731589 
L 76.939636 129.816442 
L 77.205818 134.411973 
L 78.004364 165.037178 
L 78.536727 179.20563 
L 79.069091 188.922564 
L 79.601455 195.270396 
L 80.133818 199.035225 
L 80.666182 200.88578 
L 80.932364 201.230655 
L 81.198545 201.282139 
L 81.464727 201.089081 
L 81.997091 200.132756 
L 82.795636 197.725527 
L 86.522182 184.755195 
L 87.586909 182.16589 
L 88.651636 180.170154 
L 89.716364 178.661833 
L 90.781091 177.541505 
L 91.845818 176.703746 
L 93.442909 175.799554 
L 93.709091 175.681909 
L 94.241455 174.298606 
L 94.773818 173.500735 
L 95.04 173.38676 
L 95.306182 173.492141 
L 95.572364 173.845207 
L 95.838545 174.475442 
L 96.370909 176.69064 
L 96.903273 180.392689 
L 97.435636 185.859977 
L 97.968 193.422343 
L 98.766545 209.241418 
L 99.298909 223.181163 
L 99.565091 219.241043 
L 100.363636 202.37794 
L 101.162182 190.110544 
L 101.694545 184.405615 
L 102.226909 180.528627 
L 102.759273 178.313648 
L 103.025455 177.81641 
L 103.291636 177.698783 
L 103.557818 177.922819 
L 103.824 178.469574 
L 104.356364 180.45425 
L 104.888727 183.5421 
L 105.687273 189.784305 
L 106.752 200.259003 
L 110.478545 239.605851 
L 111.543273 245.15402 
L 114.737455 263.351317 
L 115.269818 265.28145 
L 115.802182 266.44924 
L 116.068364 266.413496 
L 116.334545 265.398251 
L 118.197818 254.136084 
L 119.528727 244.881222 
L 120.859636 233.855257 
L 121.924364 223.303601 
L 123.255273 207.526196 
L 124.586182 188.679997 
L 126.183273 162.322504 
L 128.578909 118.335497 
L 129.643636 92.83834 
L 130.708364 61.721261 
L 131.240727 43.692878 
L 131.506909 40.805116 
L 133.370182 90.715646 
L 134.701091 120.401064 
L 135.765818 139.003379 
L 136.564364 149.171044 
L 137.096727 153.864451 
L 137.629091 156.701879 
L 137.895273 157.375724 
L 138.161455 157.519387 
L 138.427636 157.105024 
L 138.693818 156.150577 
L 139.226182 152.382052 
L 139.758545 146.065058 
L 140.290909 137.035355 
L 141.089455 117.937883 
L 141.888 91.581978 
L 142.420364 69.652959 
L 142.686545 72.28152 
L 143.485091 108.847716 
L 144.283636 135.011889 
L 145.082182 152.400082 
L 145.614545 160.010237 
L 146.146909 165.174679 
L 146.679273 168.455544 
L 147.211636 170.420073 
L 148.010182 172.175491 
L 148.542545 173.345687 
L 149.074909 175.114139 
L 149.607273 178.005878 
L 150.139636 182.428699 
L 150.672 188.876075 
L 151.204364 197.661569 
L 151.736727 209.153698 
L 152.002909 209.143691 
L 152.801455 190.28379 
L 153.6 176.798611 
L 154.398545 167.308276 
L 155.197091 160.633204 
L 155.995636 155.676733 
L 159.189818 138.203743 
L 160.520727 128.927691 
L 161.585455 124.012495 
L 162.650182 117.778805 
L 163.714909 109.973829 
L 164.779636 100.500567 
L 166.110545 86.096186 
L 167.441455 68.800672 
L 169.038545 47.611667 
L 169.304727 46.907397 
L 170.103273 45.946402 
L 170.901818 45.365184 
L 171.700364 45.116341 
L 172.498909 45.118729 
L 173.297455 45.302701 
L 177.290182 46.890754 
L 177.822545 47.470884 
L 178.354909 48.27008 
L 178.887273 49.337467 
L 179.419636 50.719181 
L 180.218182 53.511893 
L 181.016727 57.36037 
L 181.815273 62.428867 
L 182.613818 68.937435 
L 183.412364 77.061058 
L 184.477091 90.664031 
L 185.541818 107.687457 
L 186.606545 128.334376 
L 187.937455 159.340114 
L 189.268364 195.918635 
L 190.599273 234.530542 
L 191.397818 229.957711 
L 192.728727 220.292989 
L 193.527273 214.075319 
L 194.592 213.420259 
L 195.922909 212.289266 
L 197.253818 210.851987 
L 198.850909 208.785051 
L 200.980364 205.603081 
L 207.634909 195.183685 
L 209.232 193.172008 
L 210.030545 192.291534 
L 210.562909 190.265575 
L 211.095273 188.736906 
L 211.361455 188.421648 
L 211.627636 188.403899 
L 211.893818 188.727759 
L 212.16 189.34991 
L 212.692364 191.573948 
L 213.224727 195.090637 
L 213.757091 199.936503 
L 214.555636 209.65679 
L 215.354182 222.343114 
L 216.418909 243.868962 
L 217.749818 274.218968 
L 218.016 272.760985 
L 218.814545 266.519075 
L 219.613091 261.866209 
L 220.411636 258.473819 
L 221.210182 256.056995 
L 222.008727 254.360501 
L 222.807273 253.145506 
L 225.202909 249.965143 
L 226.001455 248.1459 
L 226.533818 246.437354 
L 226.8 245.390148 
L 227.332364 245.285328 
L 227.864727 244.991932 
L 228.663273 244.20545 
L 229.461818 242.880123 
L 230.260364 240.880471 
L 231.058909 238.004586 
L 231.857455 233.940106 
L 232.656 228.303585 
L 233.454545 220.558361 
L 234.253091 210.099138 
L 235.051636 196.145962 
L 235.850182 177.817016 
L 236.648727 153.971053 
L 237.181091 138.543404 
L 238.245818 164.138192 
L 239.310545 184.495871 
L 240.109091 196.210824 
L 240.907636 204.893 
L 241.706182 210.790127 
L 242.238545 213.321874 
L 242.770909 214.882004 
L 243.303273 215.593762 
L 243.835636 215.690093 
L 244.368 215.501828 
L 245.166545 214.89482 
L 247.029818 213.160251 
L 247.562182 212.91693 
L 248.094545 212.927218 
L 248.626909 213.260585 
L 248.893091 213.565739 
L 249.159273 214.128251 
L 249.691636 220.949673 
L 250.224 226.787732 
L 250.756364 230.119702 
L 251.022545 230.935139 
L 251.288727 231.243497 
L 251.554909 231.07522 
L 251.821091 230.460751 
L 252.353455 227.985605 
L 252.885818 224.060882 
L 253.684364 216.064919 
L 254.749091 202.634253 
L 259.274182 141.421124 
L 260.605091 126.240931 
L 261.669818 114.376258 
L 262.734545 105.17008 
L 263.533091 99.826002 
L 264.331636 95.678068 
L 265.130182 92.644203 
L 265.928727 90.693279 
L 266.461091 90.058567 
L 266.727273 89.906863 
L 267.259636 90.071085 
L 267.525818 90.383516 
L 268.058182 91.48986 
L 268.590545 93.403652 
L 268.856727 95.828104 
L 272.050909 180.669823 
L 273.381818 211.735849 
L 274.446545 231.736618 
L 275.245091 242.04993 
L 275.777455 245.81167 
L 276.043636 246.534857 
L 276.309818 246.465584 
L 276.576 245.36233 
L 277.108364 240.897808 
L 277.640727 233.679554 
L 278.173091 223.78861 
L 278.971636 204.206664 
L 279.770182 179.402067 
L 280.834909 138.893371 
L 282.165818 77.525334 
L 282.964364 42.37793 
L 283.230545 45.953249 
L 290.417455 185.639549 
L 292.014545 210.706814 
L 293.611636 234.232647 
L 294.410182 247.628218 
L 294.942545 253.35698 
L 295.474909 256.721461 
L 295.741091 257.559075 
L 296.007273 257.881079 
L 296.273455 257.69242 
L 296.539636 257.025395 
L 296.805818 255.989118 
L 297.072 257.083414 
L 297.338182 257.567757 
L 297.604364 257.508465 
L 297.870545 256.924951 
L 298.402909 254.527413 
L 298.935273 250.88898 
L 299.733818 243.822131 
L 301.330909 226.872353 
L 304.258909 195.534863 
L 306.122182 177.945844 
L 308.251636 160.142787 
L 310.114909 144.998918 
L 310.647273 137.063849 
L 311.179636 132.0463 
L 311.445818 130.723259 
L 311.712 130.353436 
L 311.978182 130.917379 
L 312.244364 132.447145 
L 312.776727 138.851605 
L 313.309091 149.87247 
L 313.575273 155.861443 
L 313.841455 151.865529 
L 314.373818 140.067974 
L 314.906182 132.166771 
L 315.438545 127.474558 
L 315.704727 126.117194 
L 315.970909 125.374774 
L 316.237091 125.106111 
L 316.503273 125.276126 
L 316.769455 125.80162 
L 317.301818 127.654527 
L 319.165091 135.98872 
L 319.697455 137.009723 
L 319.963636 137.038199 
L 320.229818 136.675083 
L 320.496 135.905328 
L 321.028364 132.87989 
L 321.560727 127.630352 
L 322.093091 119.896496 
L 322.625455 109.433762 
L 323.424 88.050691 
L 324.222545 59.296388 
L 325.021091 24.041435 
L 326.352 60.553031 
L 326.618182 67.016182 
L 327.682909 102.303842 
L 329.013818 137.630267 
L 330.610909 172.871114 
L 335.136 268.413261 
L 336.200727 291.817844 
L 336.466909 291.893125 
L 337.797818 285.017154 
L 339.394909 275.486246 
L 341.790545 259.601476 
L 343.121455 250.584572 
L 343.387636 247.288381 
L 344.984727 215.835406 
L 347.114182 168.593167 
L 349.776 104.261841 
L 351.106909 69.906208 
L 351.373091 67.297187 
L 352.704 90.764488 
L 354.034909 110.702976 
L 355.632 131.22435 
L 357.229091 148.914178 
L 358.826182 164.34899 
L 361.488 187.312284 
L 365.480727 216.960202 
L 365.746909 218.021847 
L 366.013091 218.594876 
L 366.279273 218.719464 
L 366.545455 218.408068 
L 366.811636 217.714771 
L 367.344 215.354364 
L 367.876364 211.889949 
L 368.674909 205.073593 
L 369.739636 193.877314 
L 373.998545 145.75705 
L 374.797091 139.692586 
L 375.329455 136.862742 
L 375.861818 135.253937 
L 376.128 134.98329 
L 376.394182 135.113083 
L 376.926545 136.098868 
L 377.458909 137.543416 
L 378.257455 140.71322 
L 379.056 144.807361 
L 380.120727 151.375498 
L 381.717818 162.692783 
L 387.041455 203.343957 
L 387.307636 202.844463 
L 389.170909 193.093962 
L 391.034182 184.371924 
L 393.429818 173.908295 
L 394.228364 170.644794 
L 395.026909 166.513047 
L 396.357818 158.549678 
L 398.487273 146.020272 
L 399.552 140.987185 
L 400.350545 138.018349 
L 401.149091 135.789351 
L 401.681455 134.717242 
L 402.213818 133.949822 
L 402.746182 133.474275 
L 403.278545 133.286739 
L 403.810909 133.324818 
L 404.343273 133.554964 
L 405.141818 134.166431 
L 407.271273 136.519271 
L 408.336 137.505705 
L 409.134545 137.967383 
L 409.666909 138.08752 
L 409.933091 138.760365 
L 410.731636 143.606231 
L 411.796364 151.881189 
L 413.659636 168.959883 
L 414.990545 180.304556 
L 415.522909 183.916444 
L 415.789091 185.168716 
L 416.055273 181.444187 
L 416.853818 166.186289 
L 417.652364 155.504664 
L 418.184727 150.573633 
L 418.717091 147.154056 
L 419.249455 145.007345 
L 419.781818 143.878757 
L 420.048 143.60667 
L 420.580364 143.497944 
L 421.911273 143.936552 
L 422.177455 143.831899 
L 422.443636 143.577597 
L 422.709818 143.126488 
L 423.242182 141.476795 
L 423.774545 138.523531 
L 424.306909 133.95393 
L 424.839273 127.437356 
L 425.371636 118.643733 
L 426.170182 100.414629 
L 426.436364 92.850753 
L 426.436364 92.850753 
" clip-path="url(#p78f6c248a4)" style="fill: none; stroke: #ffa500; stroke-width: 3; stroke-linecap: square"/>
   </g>
   <g id="line2d_2">
    <path d="M 27.163636 68.172298 
L 27.696 68.81556 
L 28.494545 70.299363 
L 29.293091 72.297461 
L 30.357818 75.719197 
L 31.688727 80.702932 
L 34.616727 92.568167 
L 36.48 99.562114 
L 38.077091 104.627556 
L 39.141818 107.457733 
L 40.206545 109.822634 
L 41.537455 112.100192 
L 42.602182 113.31837 
L 43.400727 113.929416 
L 43.666909 114.069603 
L 43.933091 115.906288 
L 44.465455 121.734884 
L 44.997818 125.793193 
L 45.530182 128.464539 
L 46.062545 130.10828 
L 46.594909 131.035814 
L 47.127273 131.470419 
L 47.925818 131.702952 
L 48.724364 131.948793 
L 49.256727 132.36442 
L 49.789091 133.125783 
L 50.321455 134.359849 
L 50.853818 136.16639 
L 51.386182 138.638805 
L 52.184727 143.809129 
L 52.983273 151.031377 
L 53.781818 160.663576 
L 54.580364 173.105824 
L 55.378909 188.820167 
L 56.443636 209.734468 
L 57.242182 221.831445 
L 58.040727 231.081795 
L 58.839273 237.587081 
L 59.371636 240.388395 
L 59.904 242.009279 
L 60.170182 242.392374 
L 60.436364 242.490057 
L 60.702545 242.193593 
L 60.968727 241.544713 
L 61.501091 239.113801 
L 62.033455 235.395574 
L 62.832 227.837781 
L 63.896727 215.196656 
L 66.824727 178.30731 
L 67.623273 170.9217 
L 67.889455 168.955002 
L 68.421818 186.839643 
L 69.220364 212.688136 
L 70.018909 232.158408 
L 70.817455 246.007155 
L 71.616 255.067089 
L 72.148364 258.820274 
L 72.680727 260.968008 
L 72.946909 261.52524 
L 73.213091 261.767447 
L 73.479273 261.68502 
L 73.745455 261.342264 
L 74.277818 259.948717 
L 74.810182 257.694829 
L 75.608727 253.14329 
L 76.673455 245.548966 
L 77.205818 242.108709 
L 78.802909 238.33475 
L 80.4 235.148777 
L 81.997091 232.529653 
L 83.594182 230.401007 
L 85.191273 228.671275 
L 87.054545 227.01936 
L 89.716364 225.012028 
L 92.644364 222.731968 
L 93.709091 221.756384 
L 96.104727 205.695129 
L 96.370909 207.327564 
L 97.169455 219.597699 
L 97.701818 225.567825 
L 98.234182 229.746544 
L 98.766545 232.216686 
L 99.032727 232.833438 
L 99.298909 233.068806 
L 99.565091 232.941268 
L 99.831273 232.470672 
L 100.363636 230.58576 
L 100.896 227.597296 
L 101.694545 221.488729 
L 103.025455 208.849439 
L 104.356364 196.672133 
L 105.154909 191.376528 
L 105.687273 189.299041 
L 105.953455 188.813829 
L 106.219636 188.731718 
L 106.485818 189.086575 
L 106.752 189.91215 
L 107.018182 191.248569 
L 107.550545 195.703535 
L 108.082909 202.593312 
L 108.615273 212.174299 
L 109.413818 232.377159 
L 110.744727 272.155377 
L 111.543273 289.443601 
L 112.075636 302.473299 
L 114.737455 238.405396 
L 115.802182 218.626161 
L 116.600727 207.341837 
L 117.399273 199.466908 
L 117.931636 196.171164 
L 118.464 194.446883 
L 118.730182 194.171118 
L 118.996364 194.263894 
L 119.262545 194.714827 
L 119.794909 196.642138 
L 120.327273 199.842691 
L 121.125818 206.749515 
L 122.190545 219.148434 
L 123.521455 237.830902 
L 126.449455 280.155573 
L 127.248 291.451442 
L 128.578909 312.373139 
L 128.845091 316.077751 
L 129.111273 316.472727 
L 129.377455 309.411194 
L 130.442182 267.083483 
L 131.506909 235.234566 
L 132.305455 216.748298 
L 133.104 202.085391 
L 133.902545 190.721038 
L 134.701091 182.079566 
L 135.499636 175.801854 
L 136.298182 171.599776 
L 136.830545 169.889251 
L 137.362909 168.899858 
L 137.629091 168.70228 
L 137.895273 168.65407 
L 138.161455 168.765974 
L 138.693818 169.57279 
L 139.226182 170.975826 
L 140.024727 174.288424 
L 140.823273 178.971552 
L 141.621818 184.939343 
L 142.686545 194.84721 
L 143.485091 203.62304 
L 144.017455 214.666527 
L 145.614545 251.609341 
L 146.413091 265.559243 
L 147.211636 275.180521 
L 147.477818 276.809081 
L 147.744 277.644843 
L 148.010182 277.704583 
L 148.276364 277.037602 
L 148.542545 275.74514 
L 149.074909 271.373917 
L 149.607273 265.03025 
L 150.405818 252.655625 
L 151.736727 227.3974 
L 154.398545 175.522551 
L 155.463273 158.589302 
L 156.528 145.063981 
L 157.326545 137.228808 
L 158.125091 131.299316 
L 158.923636 127.058158 
L 159.189818 125.992913 
L 159.456 126.509296 
L 159.722182 127.953581 
L 160.254545 133.746204 
L 161.319273 153.898458 
L 162.117818 164.915531 
L 162.916364 172.607788 
L 163.448727 176.018823 
L 163.981091 178.201885 
L 164.513455 179.280779 
L 164.779636 179.436767 
L 165.045818 179.396923 
L 165.312 179.154787 
L 165.844364 178.209565 
L 166.642909 176.037178 
L 167.707636 173.093675 
L 168.24 172.256153 
L 168.506182 172.14841 
L 168.772364 172.28096 
L 169.038545 172.737406 
L 169.304727 173.534408 
L 169.837091 176.383958 
L 170.369455 181.225146 
L 170.901818 188.502758 
L 171.434182 196.649713 
L 171.700364 195.713025 
L 171.966545 195.475866 
L 172.232727 195.917353 
L 172.498909 196.970142 
L 173.031273 200.837272 
L 173.563636 206.822347 
L 174.362182 219.108528 
L 175.426909 239.943712 
L 177.290182 278.549821 
L 178.621091 298.151281 
L 179.419636 307.278126 
L 179.952 311.842018 
L 180.484364 314.927949 
L 180.750545 315.848883 
L 181.016727 316.304049 
L 181.282909 316.275045 
L 181.549091 314.900481 
L 182.081455 294.697468 
L 183.678545 232.16529 
L 184.743273 198.211379 
L 185.541818 178.267887 
L 186.340364 164.148567 
L 186.872727 158.553505 
L 187.138909 156.984553 
L 187.405091 156.370399 
L 187.671273 156.663256 
L 187.937455 157.958575 
L 188.203636 160.341015 
L 188.736 168.382439 
L 189.268364 181.33827 
L 189.800727 199.580892 
L 190.599273 238.009748 
L 191.397818 291.492113 
L 191.664 312.949669 
L 191.930182 311.536595 
L 192.994909 237.793481 
L 193.527273 207.773221 
L 194.592 202.570147 
L 195.922909 194.91108 
L 196.987636 187.751139 
L 198.318545 177.449888 
L 199.915636 163.497598 
L 202.577455 139.454119 
L 203.642182 131.429004 
L 204.440727 126.897922 
L 204.973091 124.84138 
L 205.505455 123.757297 
L 205.771636 123.633508 
L 206.037818 123.816918 
L 206.304 124.328578 
L 206.570182 125.204478 
L 207.102545 128.170208 
L 207.634909 132.845234 
L 208.167273 139.476011 
L 208.965818 153.594647 
L 209.764364 173.280641 
L 210.562909 198.274468 
L 210.829091 199.356602 
L 211.095273 199.141265 
L 211.361455 198.663497 
L 211.893818 197.008739 
L 212.692364 193.240021 
L 213.757091 186.729442 
L 216.418909 169.653259 
L 217.217455 165.708092 
L 218.016 162.817714 
L 218.548364 161.593093 
L 219.080727 161.022374 
L 219.346909 161.018143 
L 219.613091 161.190545 
L 219.879273 161.587036 
L 220.411636 163.019067 
L 220.944 165.408213 
L 221.210182 167.006624 
L 221.476364 161.240897 
L 222.274909 137.431706 
L 223.073455 119.153655 
L 223.872 106.418489 
L 224.404364 101.009576 
L 224.936727 98.093812 
L 225.202909 97.550814 
L 225.469091 97.704765 
L 225.735273 98.464671 
L 226.001455 99.885448 
L 226.533818 104.708912 
L 226.8 108.145922 
L 227.598545 108.321028 
L 228.130909 108.620889 
L 228.929455 109.415855 
L 229.728 110.577817 
L 230.526545 112.19633 
L 231.325091 114.301188 
L 232.123636 116.988773 
L 233.188364 121.648507 
L 233.986909 126.041316 
L 235.051636 133.366322 
L 236.116364 142.590881 
L 237.181091 154.085625 
L 238.245818 168.106121 
L 239.310545 185.035341 
L 240.375273 205.212638 
L 241.44 228.936295 
L 242.770909 264.081763 
L 243.303273 276.049513 
L 243.835636 281.442859 
L 244.634182 286.741679 
L 245.166545 289.055313 
L 245.698909 290.333133 
L 245.965091 290.619246 
L 246.231273 290.649096 
L 246.497455 290.395423 
L 247.029818 289.22431 
L 247.562182 287.202485 
L 248.360727 282.598509 
L 249.159273 276.548068 
L 250.490182 264.078862 
L 254.216727 227.275226 
L 255.281455 219.271354 
L 256.346182 213.051823 
L 257.144727 209.535459 
L 257.943273 206.969469 
L 258.741818 205.174453 
L 259.274182 204.326239 
L 260.072727 203.492992 
L 260.338909 202.446313 
L 260.605091 201.98899 
L 260.871273 202.128132 
L 261.137455 202.928488 
L 261.403636 204.511801 
L 261.936 209.887647 
L 262.468364 218.725916 
L 263.000727 231.127494 
L 263.799273 257.244252 
L 264.065455 266.302114 
L 264.864 255.71693 
L 265.396364 250.787676 
L 265.928727 247.26425 
L 266.461091 244.926649 
L 266.993455 243.591679 
L 267.525818 243.017676 
L 267.792 242.960241 
L 268.324364 243.199322 
L 268.856727 243.782739 
L 269.921455 245.421745 
L 270.986182 246.985996 
L 271.784727 247.776564 
L 272.317091 248.050933 
L 272.849455 248.113469 
L 273.381818 247.965039 
L 273.914182 247.643983 
L 274.712727 246.887874 
L 276.576 244.764065 
L 277.108364 243.963165 
L 277.906909 242.372404 
L 278.971636 239.467472 
L 279.770182 236.639911 
L 280.834909 231.790323 
L 281.899636 225.508283 
L 282.964364 217.585776 
L 284.029091 207.840515 
L 285.093818 196.121278 
L 286.424727 178.433566 
L 288.021818 155.531174 
L 289.885091 139.92956 
L 291.482182 128.131514 
L 293.079273 117.987462 
L 293.345455 116.463015 
L 294.410182 100.719775 
L 295.208727 91.338876 
L 296.007273 84.339505 
L 296.539636 81.097703 
L 297.072 79.062316 
L 297.338182 78.514665 
L 297.604364 78.281255 
L 297.870545 78.343509 
L 298.136727 78.731924 
L 298.669091 80.456355 
L 299.201455 83.415412 
L 299.733818 87.582746 
L 300.532364 95.981704 
L 301.330909 106.720001 
L 302.395636 124.068148 
L 303.992727 154.468914 
L 305.589818 184.584741 
L 306.388364 195.057868 
L 307.186909 202.59606 
L 307.985455 207.745526 
L 308.784 211.058975 
L 309.316364 212.34937 
L 309.848727 213.048821 
L 310.114909 214.827772 
L 310.913455 222.728835 
L 311.445818 226.137245 
L 311.978182 228.287696 
L 312.510545 229.351018 
L 312.776727 229.522289 
L 313.042909 229.476116 
L 313.309091 229.22837 
L 313.841455 228.186493 
L 314.373818 226.50562 
L 315.172364 222.985209 
L 316.237091 216.913318 
L 318.100364 204.370139 
L 319.697455 194.184759 
L 320.496 190.329199 
L 321.028364 188.565926 
L 321.294545 187.995531 
L 321.560727 187.692878 
L 321.826909 187.668905 
L 322.093091 187.952483 
L 322.359273 188.576222 
L 322.891636 190.986172 
L 323.424 195.354762 
L 324.222545 203.234309 
L 324.754909 205.756339 
L 325.021091 206.268508 
L 325.287273 206.353673 
L 325.553455 205.964855 
L 325.819636 205.141281 
L 326.352 202.236437 
L 328.747636 184.707925 
L 330.610909 171.543991 
L 331.941818 163.848741 
L 333.006545 158.977981 
L 333.805091 156.143362 
L 334.603636 154.123213 
L 335.136 153.26587 
L 335.668364 152.833389 
L 335.934545 152.802086 
L 336.200727 152.923558 
L 336.733091 153.566837 
L 337.265455 154.885858 
L 337.797818 156.994806 
L 338.330182 159.992944 
L 338.862545 164.114912 
L 339.394909 169.559 
L 340.193455 180.739644 
L 340.992 196.543779 
L 341.258182 203.071378 
L 341.524364 204.059893 
L 341.790545 203.627587 
L 342.322909 201.722213 
L 342.855273 198.482159 
L 343.92 190.682168 
L 347.912727 163.502005 
L 349.509818 154.569915 
L 350.574545 149.690447 
L 351.373091 146.826175 
L 351.905455 145.458892 
L 352.437818 144.62223 
L 352.704 144.442103 
L 352.970182 144.450986 
L 353.236364 144.701128 
L 353.502545 145.199533 
L 354.034909 147.054758 
L 354.567273 150.312992 
L 355.099636 155.34197 
L 355.632 162.623577 
L 356.164364 172.766049 
L 356.696727 186.338245 
L 357.229091 204.388907 
L 357.761455 227.831496 
L 358.826182 280.155661 
L 359.358545 282.333052 
L 362.020364 295.110539 
L 362.552727 296.554194 
L 362.818909 296.966485 
L 363.085091 297.146556 
L 363.351273 297.057749 
L 363.617455 296.665713 
L 363.883636 295.961674 
L 364.416 293.48079 
L 364.948364 289.400777 
L 365.480727 283.486732 
L 366.013091 275.578171 
L 366.811636 259.436693 
L 367.610182 237.613968 
L 369.207273 189.02317 
L 370.005818 175.160856 
L 370.538182 169.141485 
L 371.070545 165.231421 
L 371.602909 163.066609 
L 371.869091 162.491202 
L 372.135273 162.227173 
L 372.401455 162.191359 
L 372.667636 162.35012 
L 373.2 163.086518 
L 374.530909 165.354245 
L 374.797091 165.55788 
L 375.063273 165.597311 
L 375.329455 165.432353 
L 375.595636 165.025626 
L 375.861818 164.358979 
L 376.394182 162.082668 
L 376.926545 158.06365 
L 377.458909 152.243129 
L 378.257455 140.312902 
L 378.789818 130.845819 
L 379.056 128.347333 
L 379.588364 126.206415 
L 379.854545 125.706886 
L 380.120727 125.505024 
L 380.386909 125.561064 
L 380.653091 125.838383 
L 381.185455 126.938442 
L 381.984 129.485822 
L 383.581091 135.857961 
L 385.178182 141.872373 
L 386.242909 145.069371 
L 387.041455 146.908391 
L 387.84 148.212155 
L 388.372364 148.760139 
L 388.904727 149.040232 
L 389.437091 148.978627 
L 389.703273 148.852837 
L 390.235636 148.270337 
L 390.768 147.303934 
L 391.300364 145.912897 
L 392.098909 142.780436 
L 392.897455 138.155885 
L 394.760727 124.153068 
L 395.559273 114.965465 
L 396.357818 103.049194 
L 397.156364 87.708607 
L 397.954909 68.53336 
L 398.753455 44.642936 
L 399.285818 25.83207 
L 399.552 21.927273 
L 400.350545 24.462575 
L 401.149091 27.876779 
L 402.213818 33.750249 
L 403.278545 41.011754 
L 404.609455 51.764025 
L 406.472727 68.998584 
L 409.933091 101.744359 
L 410.731636 104.80196 
L 411.796364 110.122987 
L 413.127273 118.338394 
L 416.055273 138.123651 
L 416.321455 136.186018 
L 417.652364 109.191661 
L 418.450909 96.472753 
L 419.249455 87.234658 
L 419.781818 83.294169 
L 420.048 82.055556 
L 420.314182 81.346739 
L 420.580364 81.188258 
L 420.846545 81.561048 
L 421.112727 82.565109 
L 421.645091 86.33237 
L 422.177455 92.695924 
L 422.709818 101.725065 
L 423.508364 120.547816 
L 424.306909 146.021149 
L 425.105455 178.381573 
L 426.170182 232.439738 
L 426.436364 247.907595 
L 426.436364 247.907595 
" clip-path="url(#p78f6c248a4)" style="fill: none; stroke: #ff0000; stroke-width: 3; stroke-linecap: square"/>
   </g>
   <g id="line2d_3">
    <path d="M 27.163636 83.52535 
L 27.962182 134.955498 
L 28.760727 175.273155 
L 29.559273 206.300039 
L 30.357818 229.68328 
L 31.156364 246.766486 
L 31.954909 258.822728 
L 32.753455 266.762813 
L 33.285818 270.337008 
L 33.818182 272.655319 
L 34.350545 274.070583 
L 34.882909 274.693449 
L 35.415273 274.635658 
L 35.947636 274.092919 
L 36.48 273.174778 
L 37.544727 270.57752 
L 42.336 256.651455 
L 44.199273 252.105165 
L 44.731636 249.492185 
L 45.264 245.604681 
L 45.796364 240.231275 
L 46.594909 229.050042 
L 47.393455 213.413246 
L 48.192 192.742836 
L 48.990545 166.349159 
L 50.055273 121.646558 
L 51.386182 55.307374 
L 51.652364 59.682907 
L 52.717091 99.991891 
L 53.781818 132.095177 
L 54.846545 156.429037 
L 55.645091 170.073161 
L 56.443636 180.341767 
L 57.242182 187.782766 
L 58.040727 192.941564 
L 58.839273 196.322078 
L 59.371636 197.794479 
L 59.904 198.70407 
L 60.968727 199.986512 
L 63.098182 202.921272 
L 64.162909 204.159271 
L 65.227636 205.123154 
L 66.026182 205.627186 
L 66.558545 205.828144 
L 67.090909 205.900221 
L 67.623273 205.821745 
L 68.155636 205.571339 
L 68.688 205.128061 
L 69.220364 204.471658 
L 70.018909 203.022809 
L 70.817455 200.959806 
L 71.616 198.215093 
L 72.414545 194.710903 
L 73.479273 188.850644 
L 74.544 181.646075 
L 76.141091 170.274163 
L 76.673455 171.143217 
L 78.004364 174.491251 
L 81.198545 183.124691 
L 82.263273 185.145796 
L 83.061818 186.132722 
L 83.594182 186.466212 
L 84.126545 186.513728 
L 84.658909 186.237603 
L 85.191273 185.579726 
L 85.723636 184.480773 
L 86.256 182.895933 
L 86.788364 180.752601 
L 87.586909 176.299873 
L 88.385455 170.044685 
L 89.184 161.551696 
L 89.982545 150.288589 
L 90.781091 135.614122 
L 91.579636 116.628658 
L 92.644364 84.888489 
L 92.910545 82.881315 
L 93.442909 82.333489 
L 93.975273 82.342654 
L 94.773818 82.698748 
L 95.572364 83.406283 
L 96.370909 84.409712 
L 97.701818 86.551806 
L 99.565091 89.598259 
L 100.363636 90.541312 
L 100.896 90.953604 
L 101.428364 91.156344 
L 101.960727 91.126024 
L 102.493091 90.827339 
L 103.025455 90.262518 
L 103.824 88.930963 
L 104.622545 87.0194 
L 105.687273 83.773069 
L 108.881455 72.908806 
L 109.68 71.065045 
L 110.212364 70.284318 
L 110.478545 69.289878 
L 111.277091 63.432191 
L 112.075636 55.868104 
L 112.874182 46.173826 
L 113.672727 33.891665 
L 114.205091 24.678798 
L 115.269818 55.645209 
L 116.068364 73.974489 
L 116.866909 87.589119 
L 117.399273 94.015138 
L 117.931636 98.219006 
L 118.464 100.393386 
L 118.730182 100.755958 
L 118.996364 100.651375 
L 119.262545 100.113275 
L 119.794909 97.896304 
L 120.327273 94.423128 
L 121.392 85.390652 
L 122.190545 78.91767 
L 122.722909 76.009982 
L 122.989091 75.257379 
L 123.255273 75.109713 
L 123.521455 75.729696 
L 123.787636 77.208461 
L 124.053818 79.667481 
L 124.586182 88.079676 
L 125.384727 107.715319 
L 126.715636 76.805053 
L 127.248 68.06387 
L 127.780364 62.016523 
L 128.312727 57.937901 
L 128.845091 55.756533 
L 129.111273 55.350545 
L 129.377455 55.38887 
L 129.643636 55.865716 
L 129.909818 56.750552 
L 130.442182 59.766879 
L 130.974545 64.357196 
L 131.773091 73.926701 
L 132.571636 86.445959 
L 133.636364 107.330626 
L 134.967273 139.165476 
L 136.298182 176.59854 
L 137.895273 226.000737 
L 138.427636 230.922217 
L 138.96 234.144084 
L 139.492364 235.974861 
L 139.758545 236.42784 
L 140.024727 236.597328 
L 140.290909 236.477375 
L 140.557091 236.066716 
L 141.089455 234.564346 
L 141.621818 232.234391 
L 142.420364 227.24768 
L 143.218909 220.865104 
L 143.751273 216.455055 
L 149.074909 186.691925 
L 150.938182 174.778806 
L 154.132364 153.705023 
L 154.664727 151.136627 
L 155.197091 149.388531 
L 155.463273 148.908578 
L 155.729455 148.760192 
L 155.995636 149.002398 
L 156.261818 149.700313 
L 156.528 150.925355 
L 157.060364 155.275765 
L 157.592727 162.946366 
L 158.125091 174.756702 
L 158.657455 192.079823 
L 159.189818 216.268335 
L 159.722182 244.466973 
L 159.988364 244.422064 
L 160.254545 242.862264 
L 161.319273 241.105578 
L 162.117818 240.211806 
L 162.916364 239.686337 
L 163.714909 239.522493 
L 164.513455 239.696722 
L 165.312 240.160945 
L 166.376727 241.151453 
L 167.973818 243.079685 
L 169.304727 244.591149 
L 170.103273 245.193254 
L 170.635636 245.375835 
L 171.168 245.323978 
L 171.700364 244.982057 
L 172.232727 244.290159 
L 172.765091 243.184294 
L 173.297455 241.596329 
L 173.829818 239.454103 
L 174.628364 235.010047 
L 175.426909 228.842001 
L 176.225455 220.66448 
L 176.757818 213.912467 
L 177.290182 204.095216 
L 178.621091 208.321794 
L 179.419636 210.054625 
L 179.952 210.633455 
L 180.218182 210.729611 
L 180.484364 210.664328 
L 180.750545 210.445936 
L 181.282909 209.518798 
L 181.815273 207.852839 
L 182.347636 205.413614 
L 182.88 202.09632 
L 183.678545 195.366358 
L 184.477091 186.22419 
L 185.275636 174.281129 
L 186.074182 159.095274 
L 186.872727 140.019677 
L 187.671273 116.264576 
L 188.469818 86.884463 
L 189.268364 50.661 
L 189.800727 21.927273 
L 190.066909 26.568362 
L 191.131636 91.24423 
L 192.196364 143.348347 
L 192.994909 174.265205 
L 194.059636 206.387461 
L 194.858182 223.019505 
L 195.656727 235.195424 
L 197.52 261.310044 
L 198.318545 276.591089 
L 198.850909 289.461919 
L 199.117091 288.665489 
L 199.649455 281.876516 
L 200.448 268.492826 
L 201.778909 241.394625 
L 203.642182 203.438656 
L 204.440727 190.488979 
L 205.239273 181.260899 
L 205.771636 177.792595 
L 206.037818 177.037245 
L 206.304 176.969609 
L 206.570182 177.664522 
L 206.836364 179.221105 
L 207.368727 184.98197 
L 207.901091 194.865539 
L 208.699636 215.425739 
L 209.232 209.239767 
L 210.296727 195.681994 
L 211.627636 187.29163 
L 212.692364 181.706829 
L 213.757091 177.240301 
L 214.555636 174.66447 
L 215.354182 172.81396 
L 215.886545 172.009601 
L 216.418909 171.56627 
L 216.685091 171.476233 
L 217.217455 171.649197 
L 217.749818 172.237482 
L 218.282182 173.327226 
L 218.814545 174.953719 
L 219.346909 177.153547 
L 220.145455 181.807145 
L 220.944 188.243566 
L 221.742545 196.923372 
L 222.541091 208.319037 
L 223.339636 223.023385 
L 224.138182 241.788254 
L 224.936727 265.60341 
L 226.001455 298.877735 
L 227.332364 308.818918 
L 227.864727 311.679094 
L 228.397091 313.684961 
L 228.929455 314.838792 
L 229.195636 315.104613 
L 229.461818 315.17366 
L 229.728 315.04928 
L 229.994182 314.734917 
L 230.526545 313.550919 
L 231.058909 311.650598 
L 231.857455 307.517255 
L 232.656 301.908304 
L 233.454545 294.835546 
L 234.519273 282.971778 
L 235.584 268.079639 
L 236.648727 249.554207 
L 237.713455 226.405856 
L 238.778182 197.347935 
L 239.842909 160.478498 
L 240.907636 113.245423 
L 241.972364 55.827426 
L 242.238545 53.978732 
L 243.037091 62.342964 
L 243.569455 69.454784 
L 244.634182 88.625712 
L 245.965091 117.509369 
L 247.828364 164.258593 
L 251.821091 267.434073 
L 252.087273 273.622999 
L 252.353455 273.944678 
L 253.418182 249.294655 
L 254.482909 230.942556 
L 255.281455 220.423608 
L 256.08 212.12451 
L 256.878545 205.674395 
L 257.677091 200.760858 
L 258.475636 197.187278 
L 259.274182 194.828855 
L 259.806545 193.894958 
L 260.072727 193.615971 
L 261.137455 188.462739 
L 262.734545 179.277496 
L 264.597818 167.072671 
L 265.928727 156.967207 
L 266.993455 147.379566 
L 268.058182 135.783206 
L 269.122909 121.258495 
L 270.187636 102.120449 
L 270.986182 92.660302 
L 271.518545 88.729065 
L 272.050909 86.525998 
L 272.317091 86.080332 
L 272.583273 86.01239 
L 272.849455 86.300874 
L 273.115636 86.928072 
L 273.648 89.175574 
L 274.180364 92.534371 
L 274.978909 99.201279 
L 276.309818 112.88796 
L 276.842182 119.592948 
L 278.439273 151.295705 
L 282.964364 244.634262 
L 285.093818 282.528569 
L 287.223273 316.472727 
L 287.489455 316.462201 
L 289.086545 288.761928 
L 290.683636 264.519301 
L 293.345455 227.871911 
L 294.144 189.09932 
L 294.676364 171.086984 
L 295.208727 158.193531 
L 295.741091 149.322976 
L 296.273455 143.435408 
L 296.805818 139.521745 
L 298.402909 130.26023 
L 298.935273 125.254777 
L 299.467636 118.165746 
L 300 108.42526 
L 300.532364 98.138317 
L 300.798545 97.8209 
L 301.064727 98.050764 
L 301.330909 98.719781 
L 301.863273 101.156311 
L 302.661818 106.584818 
L 305.057455 124.51097 
L 305.856 128.721264 
L 306.654545 131.669086 
L 307.453091 133.506614 
L 307.985455 134.211779 
L 308.517818 134.63327 
L 309.316364 134.907429 
L 310.647273 134.979621 
L 311.445818 134.693137 
L 312.510545 133.885092 
L 313.309091 133.046552 
L 314.373818 131.684869 
L 316.237091 128.700671 
L 318.100364 125.007831 
L 319.697455 121.017886 
L 320.762182 117.793026 
L 321.826909 113.91595 
L 322.891636 109.093908 
L 323.956364 103.091417 
L 324.754909 97.588472 
L 325.819636 88.406451 
L 326.618182 79.848749 
L 327.949091 56.739281 
L 329.28 91.723253 
L 330.610909 121.591186 
L 331.941818 146.414779 
L 333.006545 162.518098 
L 334.071273 175.009188 
L 334.869818 181.800175 
L 335.402182 185.011262 
L 335.934545 187.094455 
L 336.200727 187.691351 
L 336.466909 187.97966 
L 336.733091 187.950034 
L 336.999273 187.592781 
L 337.265455 186.883411 
L 337.797818 184.376708 
L 338.330182 180.381066 
L 338.862545 174.810117 
L 339.661091 163.138151 
L 340.459636 147.242013 
L 341.258182 126.686299 
L 342.056727 101.043091 
L 343.387636 48.739781 
L 344.452364 102.670031 
L 344.984727 121.332512 
L 345.517091 134.664696 
L 346.049455 143.445784 
L 346.581818 148.380555 
L 346.848 149.618518 
L 347.114182 150.140554 
L 347.380364 150.020434 
L 347.646545 149.32798 
L 348.178909 146.489674 
L 348.711273 142.096303 
L 349.776 130.517535 
L 351.639273 109.321525 
L 352.171636 104.704751 
L 352.437818 109.18822 
L 353.236364 132.703133 
L 354.034909 149.331473 
L 354.833455 160.262556 
L 355.365818 164.943709 
L 355.898182 167.857278 
L 356.430545 169.316231 
L 356.696727 169.600573 
L 356.962909 169.602873 
L 357.229091 169.393611 
L 357.761455 168.414866 
L 358.56 166.074017 
L 359.890909 162.003506 
L 360.689455 161.202905 
L 361.221818 160.958785 
L 361.754182 160.939052 
L 362.286545 161.176694 
L 362.818909 161.621693 
L 363.617455 162.72226 
L 364.416 164.267423 
L 365.480727 166.940349 
L 365.746909 167.690985 
L 366.279273 172.326685 
L 367.876364 193.231375 
L 368.941091 203.399979 
L 370.005818 211.185301 
L 371.070545 217.14643 
L 372.135273 221.67221 
L 373.2 225.168666 
L 374.264727 227.878214 
L 375.329455 229.997836 
L 376.394182 231.660275 
L 377.192727 235.80834 
L 377.458909 236.280314 
L 377.725091 236.2552 
L 377.991273 235.761667 
L 378.523636 233.706169 
L 379.322182 228.818071 
L 380.653091 218.422789 
L 382.250182 206.21001 
L 383.314909 199.732991 
L 384.113455 196.21631 
L 384.645818 194.591854 
L 385.178182 193.643385 
L 385.444364 193.451522 
L 385.710545 193.441813 
L 385.976727 193.621905 
L 386.242909 194.000243 
L 386.775273 195.545722 
L 387.307636 198.057499 
L 387.84 201.713146 
L 388.372364 206.732468 
L 389.170909 217.068779 
L 389.969455 231.690068 
L 390.501818 244.311604 
L 390.768 243.788651 
L 392.098909 218.840637 
L 393.163636 202.117396 
L 394.228364 189.411515 
L 395.026909 182.638909 
L 395.559273 179.743449 
L 396.091636 178.317563 
L 396.357818 178.213744 
L 396.624 178.48713 
L 396.890182 179.194569 
L 397.422545 181.874816 
L 397.954909 186.302026 
L 398.487273 192.495389 
L 399.285818 205.089306 
L 400.084364 221.544058 
L 401.149091 249.084379 
L 402.746182 295.79052 
L 403.278545 302.661608 
L 403.544727 304.681117 
L 403.810909 305.837516 
L 404.077091 306.147739 
L 404.343273 305.588181 
L 404.609455 304.265591 
L 405.141818 299.399794 
L 405.674182 291.835927 
L 406.472727 276.050834 
L 407.537455 248.427643 
L 408.868364 206.91342 
L 409.933091 174.142698 
L 411.530182 158.756016 
L 413.127273 145.244495 
L 414.990545 131.421016 
L 417.12 117.392497 
L 422.443636 83.396469 
L 424.040727 71.389819 
L 425.637818 57.600891 
L 426.436364 49.871582 
L 426.436364 49.871582 
" clip-path="url(#p78f6c248a4)" style="fill: none; stroke: #0000ff; stroke-width: 3; stroke-linecap: square"/>
   </g>
   <g id="patch_3">
    <path d="M 7.2 331.2 
L 7.2 7.2 
" style="fill: none; stroke: #000000; stroke-width: 0.8; stroke-linejoin: miter; stroke-linecap: square"/>
   </g>
   <g id="patch_4">
    <path d="M 446.4 331.2 
L 446.4 7.2 
" style="fill: none; stroke: #000000; stroke-width: 0.8; stroke-linejoin: miter; stroke-linecap: square"/>
   </g>
   <g id="patch_5">
    <path d="M 7.2 331.2 
L 446.4 331.2 
" style="fill: none; stroke: #000000; stroke-width: 0.8; stroke-linejoin: miter; stroke-linecap: square"/>
   </g>
   <g id="patch_6">
    <path d="M 7.2 7.2 
L 446.4 7.2 
" style="fill: none; stroke: #000000; stroke-width: 0.8; stroke-linejoin: miter; stroke-linecap: square"/>
   </g>
  </g>
 </g>
 <defs>
  <clipPath id="p78f6c248a4">
   <rect x="7.2" y="7.2" width="439.2" height="324"/>
  </clipPath>
 </defs>
</svg>
