<?xml version="1.0" encoding="utf-8" standalone="no"?>
<!DOCTYPE svg PUBLIC "-//W3C//DTD SVG 1.1//EN"
  "http://www.w3.org/Graphics/SVG/1.1/DTD/svg11.dtd">
<svg xmlns:xlink="http://www.w3.org/1999/xlink" width="453.6pt" height="338.4pt" viewBox="0 0 453.6 338.4" xmlns="http://www.w3.org/2000/svg" version="1.1">
 <metadata>
  <rdf:RDF xmlns:dc="http://purl.org/dc/elements/1.1/" xmlns:cc="http://creativecommons.org/ns#" xmlns:rdf="http://www.w3.org/1999/02/22-rdf-syntax-ns#">
   <cc:Work>
    <dc:type rdf:resource="http://purl.org/dc/dcmitype/StillImage"/>
    <dc:date>2025-05-15T17:31:15.762008</dc:date>
    <dc:format>image/svg+xml</dc:format>
    <dc:creator>
     <cc:Agent>
      <dc:title>Matplotlib v3.10.1, https://matplotlib.org/</dc:title>
     </cc:Agent>
    </dc:creator>
   </cc:Work>
  </rdf:RDF>
 </metadata>
 <defs>
  <style type="text/css">*{stroke-linejoin: round; stroke-linecap: butt}</style>
 </defs>
 <g id="figure_1">
  <g id="patch_1">
   <path d="M 0 338.4 
L 453.6 338.4 
L 453.6 0 
L 0 0 
z
" style="fill: #ffffff"/>
  </g>
  <g id="axes_1">
   <g id="patch_2">
    <path d="M 7.2 331.2 
L 446.4 331.2 
L 446.4 7.2 
L 7.2 7.2 
z
" style="fill: #ffffff"/>
   </g>
   <g id="matplotlib.axis_1"/>
   <g id="matplotlib.axis_2"/>
   <g id="line2d_1">
    <path d="M 27.163636 262.607535 
L 28.275817 265.4669 
L 28.831907 266.487042 
L 29.387997 267.125959 
L 29.944087 267.346938 
L 30.500177 267.147263 
L 31.056267 266.549515 
L 31.612358 265.593218 
L 32.446493 263.59955 
L 33.836718 259.357829 
L 35.226944 255.263211 
L 36.061079 253.601965 
L 36.617169 253.024102 
L 36.895214 252.915686 
L 37.173259 252.931723 
L 37.729349 253.334909 
L 38.285439 254.207077 
L 38.84153 255.493072 
L 39.675665 258.036025 
L 41.06589 263.261333 
L 44.124386 275.139135 
L 45.514611 279.663039 
L 46.904837 283.479213 
L 48.295062 286.60046 
L 49.407242 288.520938 
L 50.241378 289.561366 
L 51.075513 290.236637 
L 51.909648 290.571934 
L 52.743783 290.634116 
L 53.855964 290.451765 
L 58.58273 289.373691 
L 60.529045 288.893348 
L 61.363181 288.485818 
L 62.197316 287.775261 
L 62.753406 287.04374 
L 63.309496 286.041277 
L 64.143631 283.935554 
L 64.977767 281.062542 
L 66.089947 276.237033 
L 68.036262 267.463771 
L 68.870398 264.844109 
L 69.426488 263.78596 
L 69.982578 263.343572 
L 70.260623 263.354555 
L 70.538668 263.514666 
L 71.094758 264.248405 
L 71.650848 265.455709 
L 72.484984 267.907792 
L 74.431299 274.785834 
L 76.65566 282.301866 
L 78.32393 287.215205 
L 79.43611 289.780187 
L 80.270246 291.132513 
L 80.826336 291.72034 
L 81.382426 292.052016 
L 81.938516 292.138076 
L 82.494606 292.000206 
L 83.050696 291.668936 
L 83.884832 290.89169 
L 85.553102 288.856883 
L 86.943327 287.33918 
L 87.777463 286.707134 
L 88.611598 286.300119 
L 90.001823 285.923815 
L 91.392049 285.484248 
L 92.504229 284.851584 
L 93.894454 283.732036 
L 95.28468 282.380101 
L 96.118815 281.353523 
L 96.95295 279.896351 
L 97.50904 278.490225 
L 98.06513 276.559167 
L 98.621221 273.938167 
L 99.177311 270.471303 
L 100.011446 263.438954 
L 100.845581 254.159322 
L 102.235807 235.265464 
L 103.347987 220.649309 
L 104.182122 212.752771 
L 104.738212 209.849208 
L 105.016257 209.227289 
L 105.294302 209.186114 
L 105.572347 209.73006 
L 105.850393 210.850381 
L 106.406483 214.721462 
L 106.962573 220.489135 
L 107.796708 231.676699 
L 110.299114 267.307073 
L 111.133249 275.883305 
L 111.967384 282.256151 
L 112.801519 286.748302 
L 113.635655 289.826044 
L 114.46979 291.931165 
L 115.303925 293.394134 
L 116.13806 294.433667 
L 116.972195 295.178625 
L 117.806331 295.694718 
L 118.640466 296.010826 
L 119.474601 296.133305 
L 120.308736 296.059379 
L 121.142872 295.786896 
L 122.255052 295.131835 
L 123.645277 293.956171 
L 126.981818 290.936806 
L 128.928134 289.248954 
L 129.762269 288.15782 
L 130.318359 287.1219 
L 130.874449 285.695568 
L 131.430539 283.702013 
L 131.98663 280.916069 
L 132.54272 277.073742 
L 133.09881 271.879854 
L 133.6549 265.031182 
L 134.489035 251.111687 
L 135.32317 232.516491 
L 136.435351 201.536444 
L 138.381666 145.473465 
L 138.937756 133.852889 
L 139.493847 125.962816 
L 139.771892 123.625551 
L 140.049937 122.429667 
L 140.327982 122.398201 
L 140.606027 123.529404 
L 140.884072 125.797226 
L 141.440162 133.522828 
L 141.996252 144.932478 
L 142.830387 166.945638 
L 145.332793 236.960792 
L 146.166928 253.735858 
L 147.001064 265.942313 
L 147.835199 274.081167 
L 148.391289 277.64253 
L 148.947379 279.9854 
L 149.503469 281.308874 
L 149.781514 281.638556 
L 150.059559 281.766743 
L 150.337604 281.703891 
L 150.61565 281.457465 
L 151.17174 280.43426 
L 151.72783 278.72879 
L 152.28392 276.366648 
L 153.118055 271.668178 
L 154.230236 263.638558 
L 156.454596 246.318159 
L 157.288731 241.727792 
L 157.844821 239.854986 
L 158.122867 239.333077 
L 158.400912 239.102651 
L 158.678957 239.16832 
L 158.957002 239.528985 
L 159.513092 241.102277 
L 160.069182 243.702227 
L 160.903317 249.077726 
L 163.405723 267.265003 
L 164.239858 271.201346 
L 164.795948 272.687424 
L 165.073993 273.025801 
L 165.352038 273.061288 
L 165.630084 272.765448 
L 165.908129 272.106759 
L 166.186174 271.04978 
L 166.742264 267.575403 
L 167.298354 261.960186 
L 167.854444 253.763175 
L 168.410534 242.550803 
L 169.24467 219.371528 
L 170.078805 188.366463 
L 171.190985 137.4261 
L 172.859256 60.220278 
L 173.415346 41.069204 
L 173.971436 27.964434 
L 174.249481 24.05022 
L 174.527526 22.022634 
L 174.805571 21.927273 
L 175.083616 23.767494 
L 175.361661 27.503962 
L 175.917751 40.303933 
L 176.473841 59.246332 
L 177.307977 95.74307 
L 179.532337 199.34453 
L 180.366473 228.406721 
L 181.200608 249.777541 
L 182.034743 264.312164 
L 182.590833 270.98156 
L 183.146923 275.833009 
L 183.703013 279.347641 
L 184.537149 282.968918 
L 185.371284 285.426534 
L 186.483464 287.873191 
L 188.151735 290.877462 
L 189.263915 292.492829 
L 190.09805 293.323468 
L 190.65414 293.612093 
L 191.21023 293.641239 
L 191.766321 293.385185 
L 192.322411 292.840029 
L 193.156546 291.534307 
L 194.268726 289.187013 
L 195.936997 285.669846 
L 196.771132 284.374739 
L 197.883312 283.153958 
L 198.995493 281.960682 
L 199.551583 281.019335 
L 200.107673 279.569248 
L 200.663763 277.34352 
L 201.219853 274.008826 
L 201.775943 269.1615 
L 202.332033 262.358152 
L 202.888124 253.158274 
L 203.722259 234.047044 
L 204.556394 208.032065 
L 205.668574 164.042336 
L 207.61489 83.540172 
L 208.17098 66.89768 
L 208.72707 55.74435 
L 209.005115 52.539071 
L 209.28316 51.018388 
L 209.561205 51.215396 
L 209.83925 53.125429 
L 210.117296 56.707105 
L 210.673386 68.544107 
L 211.229476 85.741765 
L 212.341656 130.565238 
L 214.287972 211.458675 
L 215.122107 237.897201 
L 215.956242 257.69127 
L 216.790377 271.478483 
L 217.624513 280.537289 
L 218.180603 284.651897 
L 218.736693 287.65542 
L 219.292783 289.839323 
L 220.126918 292.072991 
L 220.961053 293.514701 
L 221.795189 294.462659 
L 222.629324 295.083302 
L 223.463459 295.456546 
L 224.297594 295.610735 
L 225.13173 295.546746 
L 225.965865 295.251361 
L 226.8 294.720146 
L 227.91218 293.691198 
L 230.970676 290.545207 
L 232.082856 289.833317 
L 233.473082 288.997377 
L 234.029172 288.44397 
L 234.585262 287.593976 
L 235.141352 286.28998 
L 235.697442 284.333684 
L 236.253533 281.494486 
L 236.809623 277.522161 
L 237.365713 272.156246 
L 237.921803 265.151881 
L 238.755938 251.20581 
L 239.590073 233.104147 
L 240.980299 196.351838 
L 242.370524 160.642799 
L 243.204659 145.634044 
L 243.76075 140.009841 
L 244.038795 138.71 
L 244.31684 138.460787 
L 244.594885 139.267178 
L 244.87293 141.112209 
L 245.42902 147.74524 
L 245.98511 157.825692 
L 246.819245 177.664378 
L 249.321651 242.859798 
L 250.155786 259.113824 
L 250.989921 271.348763 
L 251.824057 280.009227 
L 252.658192 285.87897 
L 253.492327 289.756385 
L 254.326462 292.312916 
L 255.160598 294.017013 
L 255.994733 295.159489 
L 256.828868 295.923933 
L 257.663003 296.41173 
L 258.497139 296.677909 
L 259.331274 296.747329 
L 260.165409 296.623739 
L 260.999544 296.30592 
L 262.111724 295.593891 
L 263.50195 294.361554 
L 266.004356 292.044278 
L 268.228716 290.150934 
L 269.062851 289.026294 
L 269.618942 287.906125 
L 270.175032 286.311304 
L 270.731122 284.049745 
L 271.287212 280.888121 
L 271.843302 276.557829 
L 272.399392 270.785459 
L 273.233527 258.92531 
L 274.067663 242.892336 
L 275.179843 215.814235 
L 277.126159 165.725955 
L 277.960294 150.95671 
L 278.516384 145.474299 
L 278.794429 144.241282 
L 279.072474 144.055381 
L 279.350519 144.919978 
L 279.628564 146.815856 
L 280.184654 153.517068 
L 280.740744 163.599877 
L 281.57488 183.269104 
L 284.077285 246.590189 
L 284.911421 261.970433 
L 285.745556 273.362473 
L 286.579691 281.264749 
L 287.413826 286.459113 
L 287.969916 288.819638 
L 288.526007 290.539796 
L 289.082097 291.77648 
L 289.638187 292.650078 
L 290.472322 293.47511 
L 291.306457 293.885257 
L 292.140593 293.976456 
L 292.974728 293.779274 
L 293.808863 293.272019 
L 294.642998 292.409374 
L 295.477133 291.156406 
L 296.589314 288.91912 
L 299.091719 283.338622 
L 299.925855 282.135449 
L 300.481945 281.660684 
L 301.038035 281.443002 
L 301.594125 281.436137 
L 303.262396 281.718142 
L 303.818486 281.433585 
L 304.374576 280.643452 
L 304.930666 279.110193 
L 305.486756 276.542154 
L 306.042846 272.587652 
L 306.598936 266.857685 
L 307.155027 258.952228 
L 307.711117 248.496651 
L 308.545252 227.467425 
L 309.379387 200.036637 
L 310.769613 144.718779 
L 311.881793 101.796565 
L 312.715928 77.969555 
L 313.272018 68.519392 
L 313.550063 66.057549 
L 313.828108 65.181703 
L 314.106153 65.906829 
L 314.384199 68.213069 
L 314.940289 77.320575 
L 315.496379 91.707613 
L 316.330514 120.5203 
L 318.83292 215.479232 
L 319.667055 238.674335 
L 320.50119 255.720418 
L 321.335325 267.3088 
L 321.891416 272.600593 
L 322.447506 276.400145 
L 323.003596 279.05131 
L 323.559686 280.839018 
L 324.115776 281.989873 
L 324.671866 282.663781 
L 325.227956 282.957425 
L 325.784047 282.924563 
L 326.340137 282.594278 
L 326.896227 281.981235 
L 327.730362 280.563497 
L 328.842542 277.943044 
L 330.510813 273.75503 
L 331.344948 272.339864 
L 331.901038 271.870428 
L 332.457128 271.840843 
L 333.013219 272.257066 
L 333.569309 273.082217 
L 334.403444 274.918008 
L 336.90585 281.253059 
L 337.46194 282.129162 
L 338.01803 282.600935 
L 338.296075 282.654754 
L 338.57412 282.568898 
L 338.852165 282.326998 
L 339.408255 281.294903 
L 339.964345 279.368146 
L 340.520436 276.315405 
L 341.076526 271.871603 
L 341.632616 265.74865 
L 342.188706 257.671263 
L 343.022841 241.480532 
L 343.856976 220.387363 
L 345.247202 177.518122 
L 346.637427 136.00248 
L 347.193517 123.543904 
L 347.749607 114.980339 
L 348.027653 112.390455 
L 348.305698 111.009385 
L 348.583743 110.867271 
L 348.861788 111.968699 
L 349.139833 114.292095 
L 349.695923 122.394796 
L 350.252013 134.532454 
L 351.086148 158.219042 
L 353.588554 235.117041 
L 354.422689 253.996065 
L 355.256825 268.036429 
L 356.09096 277.817946 
L 356.925095 284.31497 
L 357.75923 288.517015 
L 358.593365 291.247519 
L 359.427501 293.064856 
L 360.261636 294.307681 
L 361.095771 295.17498 
L 361.929906 295.765287 
L 362.764042 296.127363 
L 363.598177 296.27994 
L 364.432312 296.224859 
L 365.266447 295.961796 
L 366.100582 295.498978 
L 367.212763 294.625746 
L 372.495619 289.778528 
L 373.329754 288.643984 
L 373.885845 287.549404 
L 374.441935 286.021595 
L 374.998025 283.88059 
L 375.554115 280.901263 
L 376.110205 276.820355 
L 376.666295 271.36624 
L 377.50043 260.098107 
L 378.334566 244.750343 
L 379.446746 218.621181 
L 381.393062 169.926955 
L 381.949152 159.587469 
L 382.505242 152.469417 
L 382.783287 150.318373 
L 383.061332 149.175563 
L 383.339377 149.066427 
L 383.617422 149.993967 
L 383.895467 151.93849 
L 384.451557 158.691466 
L 385.007648 168.761989 
L 385.841783 188.2879 
L 388.344188 250.450338 
L 389.178324 265.352499 
L 390.012459 276.313049 
L 390.846594 283.868975 
L 391.680729 288.826465 
L 392.514865 291.994117 
L 393.349 294.000012 
L 394.183135 295.267943 
L 395.01727 296.070005 
L 395.851405 296.557399 
L 396.685541 296.815769 
L 397.797721 296.887818 
L 398.909901 296.709177 
L 400.300127 296.208005 
L 402.246442 295.187306 
L 406.417118 292.734566 
L 407.251253 291.951542 
L 408.085389 290.785675 
L 408.641479 289.668262 
L 409.197569 288.156312 
L 409.753659 286.105688 
L 410.309749 283.338405 
L 410.865839 279.656617 
L 411.42193 274.856258 
L 412.256065 265.158081 
L 413.0902 252.165872 
L 414.20238 230.23643 
L 416.426741 184.116104 
L 416.982831 176.192459 
L 417.538921 171.084099 
L 417.816966 169.725089 
L 418.095011 169.206198 
L 418.373056 169.538284 
L 418.651102 170.714643 
L 419.207192 175.486774 
L 419.763282 183.138801 
L 420.597417 198.680341 
L 423.655913 261.200145 
L 424.490048 272.622025 
L 425.324183 280.899745 
L 426.158319 286.555296 
L 426.436364 287.973663 
L 426.436364 287.973663 
" clip-path="url(#pb6e6a6c7cf)" style="fill: none; stroke-dasharray: 11.1,4.8; stroke-dashoffset: 0; stroke: #000000; stroke-width: 3"/>
   </g>
   <g id="line2d_2">
    <path d="M 27.163636 298.692765 
L 28.275817 296.635186 
L 29.387997 295.058289 
L 30.222132 294.196372 
L 31.056267 293.608252 
L 31.890403 293.295447 
L 32.724538 293.263933 
L 33.558673 293.512188 
L 34.392808 294.040978 
L 35.226944 294.651939 
L 37.729349 293.148125 
L 38.84153 291.370121 
L 39.95371 289.977645 
L 40.787845 289.220667 
L 41.62198 288.735706 
L 42.456115 288.547168 
L 43.290251 288.677007 
L 44.124386 289.144598 
L 44.958521 289.973062 
L 45.792656 291.182369 
L 46.626792 292.786604 
L 47.460927 294.807106 
L 48.573107 298.17802 
L 49.685287 302.348503 
L 50.797468 307.350549 
L 52.187693 314.815702 
L 52.465738 316.472727 
L 52.743783 315.97273 
L 53.577918 310.938549 
L 54.690099 302.592067 
L 55.802279 292.527158 
L 57.192504 279.592437 
L 60.80709 248.557635 
L 63.309496 227.904628 
L 64.977767 215.69211 
L 66.367992 206.985741 
L 67.480172 201.233033 
L 68.592352 196.745962 
L 69.426488 194.315025 
L 69.982578 193.17906 
L 70.260623 192.764459 
L 70.538668 192.820235 
L 70.816713 194.038859 
L 75.265434 226.382171 
L 78.32393 244.1344 
L 80.826336 257.488892 
L 83.050696 268.213371 
L 84.997012 276.533146 
L 86.665282 282.749249 
L 88.055508 287.189575 
L 88.333553 287.977733 
L 88.611598 288.393512 
L 89.445733 285.925521 
L 90.279868 282.637685 
L 91.392049 277.14541 
L 92.226184 272.100042 
L 93.616409 261.600697 
L 95.562725 245.049356 
L 100.567536 201.29669 
L 101.957761 191.10477 
L 103.069942 184.21462 
L 104.182122 178.730126 
L 105.016257 175.699069 
L 105.572347 174.256805 
L 106.128438 173.308539 
L 106.406483 175.609863 
L 108.908888 218.716691 
L 110.299114 238.937334 
L 111.689339 255.927528 
L 113.079564 270.043056 
L 114.191745 279.435621 
L 115.303925 287.281846 
L 116.416105 293.713113 
L 117.528286 298.86143 
L 118.640466 302.859778 
L 119.474601 305.184129 
L 120.308736 306.993328 
L 121.142872 308.34438 
L 121.977007 309.29414 
L 122.811142 309.901767 
L 124.201367 310.68897 
L 124.757458 310.991417 
L 125.313548 310.993897 
L 125.869638 310.71045 
L 126.425728 310.15495 
L 126.981818 309.34124 
L 127.259863 308.841814 
L 128.093998 305.415255 
L 129.762269 297.363467 
L 131.708584 286.794177 
L 138.937756 246.143116 
L 140.606027 238.527174 
L 141.162117 236.270055 
L 141.440162 236.62226 
L 142.830387 248.140391 
L 144.776703 262.939236 
L 146.166928 272.020985 
L 147.557154 279.592413 
L 148.947379 285.819659 
L 150.337604 290.870129 
L 151.449785 294.17593 
L 152.561965 296.922246 
L 153.674145 299.195569 
L 155.064371 301.504256 
L 156.454596 303.379812 
L 158.122867 305.25665 
L 158.400912 305.545689 
L 158.957002 304.414115 
L 159.791137 302.037472 
L 160.903317 298.012444 
L 162.015498 293.08895 
L 162.849633 288.307646 
L 164.517903 277.174406 
L 166.464219 262.42222 
L 168.966624 241.499169 
L 175.917751 181.59795 
L 176.195796 182.433771 
L 178.420157 204.612545 
L 182.590833 243.237576 
L 184.259104 256.115602 
L 185.927374 267.244657 
L 187.317599 275.197786 
L 188.707825 281.960579 
L 190.09805 287.545947 
L 191.21023 291.174101 
L 192.322411 294.06589 
L 193.156546 295.758319 
L 193.434591 296.231827 
L 193.990681 295.239797 
L 194.824816 292.96117 
L 195.658952 289.875165 
L 196.493087 286.002113 
L 197.049177 282.992932 
L 197.883312 275.7719 
L 200.385718 251.499531 
L 204.278349 211.08082 
L 209.005115 162.394552 
L 210.395341 149.60226 
L 210.673386 147.348343 
L 210.951431 148.250833 
L 214.009927 191.210965 
L 215.678197 212.361993 
L 217.624513 234.04671 
L 219.292783 250.270872 
L 220.961053 264.298877 
L 222.351279 274.30576 
L 223.741504 282.773536 
L 224.853684 288.429669 
L 225.965865 293.082789 
L 227.078045 296.710767 
L 227.91218 298.748318 
L 228.46827 299.793279 
L 228.746316 300.147856 
L 229.302406 298.662394 
L 230.136541 295.450592 
L 230.970676 291.149278 
L 231.804811 285.86256 
L 232.916992 275.564903 
L 234.585262 257.791976 
L 237.087668 228.276668 
L 240.424209 188.981156 
L 242.092479 171.770486 
L 243.482704 159.739987 
L 244.594885 152.185798 
L 245.42902 147.945534 
L 245.707065 146.79995 
L 245.98511 147.761753 
L 246.5412 157.127222 
L 248.209471 186.421821 
L 249.877741 212.275465 
L 251.267967 230.961222 
L 252.658192 247.028618 
L 254.048417 260.631859 
L 255.438643 271.926546 
L 256.550823 279.405899 
L 257.663003 285.590727 
L 258.775184 290.563593 
L 259.887364 294.40769 
L 260.721499 296.600697 
L 261.555634 298.241752 
L 262.38977 299.361374 
L 263.223905 300.015842 
L 263.50195 299.911552 
L 264.05804 299.326774 
L 264.61413 298.360397 
L 265.17022 297.021658 
L 266.004356 294.333419 
L 266.560446 292.101509 
L 267.116536 288.755004 
L 268.506761 278.603085 
L 270.175032 264.40003 
L 272.121347 245.575866 
L 274.623753 218.886472 
L 280.184654 157.498666 
L 280.462699 157.926434 
L 284.077285 207.135474 
L 285.745556 226.423994 
L 287.413826 242.964041 
L 288.804052 254.685107 
L 290.194277 264.559335 
L 291.306457 271.146376 
L 292.418638 276.580386 
L 293.530818 280.872818 
L 294.364953 283.350287 
L 295.199088 285.196913 
L 296.033224 286.417036 
L 296.589314 286.884103 
L 297.145404 287.082338 
L 297.423449 287.081891 
L 297.701494 286.760491 
L 298.535629 283.707403 
L 299.64781 278.605663 
L 300.75999 272.442604 
L 301.594125 266.963443 
L 302.98435 255.937279 
L 304.652621 240.920871 
L 306.876982 218.774253 
L 313.550063 150.536978 
L 314.384199 143.305612 
L 314.662244 142.1323 
L 314.940289 142.72742 
L 315.774424 146.931146 
L 316.886604 154.124666 
L 317.998785 162.941266 
L 319.667055 178.368218 
L 326.896227 247.521246 
L 328.286452 258.242091 
L 329.676678 267.206822 
L 330.788858 272.847972 
L 331.622993 276.079633 
L 332.179083 277.699803 
L 332.457128 278.009709 
L 335.793669 279.359397 
L 336.071714 279.055468 
L 337.739985 271.47545 
L 339.964345 260.190292 
L 343.300886 241.816766 
L 347.749607 217.390516 
L 349.973968 206.2862 
L 350.530058 204.675762 
L 351.086148 203.892217 
L 351.642239 203.503046 
L 352.198329 203.499129 
L 352.754419 203.870549 
L 353.032464 204.268221 
L 353.310509 205.188927 
L 354.978779 213.655476 
L 357.75923 229.179623 
L 361.095771 247.54989 
L 362.764042 255.589782 
L 364.154267 261.283071 
L 365.266447 265.001377 
L 366.378628 267.863118 
L 367.212763 269.354895 
L 367.768853 269.995869 
L 368.046898 270.204616 
L 369.715168 267.48237 
L 370.549304 266.44198 
L 373.607799 256.608283 
L 378.890656 239.725927 
L 381.393062 230.842789 
L 383.617422 222.044166 
L 385.563738 213.402466 
L 386.119828 209.454191 
L 386.953963 202.658831 
L 387.232008 201.420065 
L 387.510053 201.127981 
L 387.788098 201.069002 
L 388.066143 201.162673 
L 388.622233 201.790235 
L 389.178324 202.975285 
L 389.734414 204.680941 
L 390.568549 208.135968 
L 391.402684 212.560656 
L 392.514865 219.719472 
L 393.90509 230.233156 
L 396.12945 249.119114 
L 398.909901 272.480165 
L 400.300127 282.411931 
L 401.412307 288.775249 
L 402.246442 292.443404 
L 402.524487 292.45128 
L 403.914713 288.807887 
L 405.582983 282.390323 
L 407.807344 272.799911 
L 410.865839 258.44407 
L 415.314561 237.594016 
L 417.260876 229.4268 
L 418.929147 223.349114 
L 419.485237 221.939399 
L 419.763282 221.719545 
L 420.041327 222.22965 
L 420.875462 226.024418 
L 421.987642 232.151689 
L 423.377868 241.253516 
L 425.046138 253.760466 
L 426.436364 265.000383 
L 426.436364 265.000383 
" clip-path="url(#pb6e6a6c7cf)" style="fill: none; stroke: #ff00ff; stroke-width: 3; stroke-linecap: square"/>
   </g>
   <g id="patch_3">
    <path d="M 7.2 331.2 
L 7.2 7.2 
" style="fill: none; stroke: #000000; stroke-width: 0.8; stroke-linejoin: miter; stroke-linecap: square"/>
   </g>
   <g id="patch_4">
    <path d="M 446.4 331.2 
L 446.4 7.2 
" style="fill: none; stroke: #000000; stroke-width: 0.8; stroke-linejoin: miter; stroke-linecap: square"/>
   </g>
   <g id="patch_5">
    <path d="M 7.2 331.2 
L 446.4 331.2 
" style="fill: none; stroke: #000000; stroke-width: 0.8; stroke-linejoin: miter; stroke-linecap: square"/>
   </g>
   <g id="patch_6">
    <path d="M 7.2 7.2 
L 446.4 7.2 
" style="fill: none; stroke: #000000; stroke-width: 0.8; stroke-linejoin: miter; stroke-linecap: square"/>
   </g>
  </g>
 </g>
 <defs>
  <clipPath id="pb6e6a6c7cf">
   <rect x="7.2" y="7.2" width="439.2" height="324"/>
  </clipPath>
 </defs>
</svg>
