<?xml version="1.0" encoding="utf-8" standalone="no"?>
<!DOCTYPE svg PUBLIC "-//W3C//DTD SVG 1.1//EN"
  "http://www.w3.org/Graphics/SVG/1.1/DTD/svg11.dtd">
<svg xmlns:xlink="http://www.w3.org/1999/xlink" width="453.6pt" height="338.4pt" viewBox="0 0 453.6 338.4" xmlns="http://www.w3.org/2000/svg" version="1.1">
 <metadata>
  <rdf:RDF xmlns:dc="http://purl.org/dc/elements/1.1/" xmlns:cc="http://creativecommons.org/ns#" xmlns:rdf="http://www.w3.org/1999/02/22-rdf-syntax-ns#">
   <cc:Work>
    <dc:type rdf:resource="http://purl.org/dc/dcmitype/StillImage"/>
    <dc:date>2025-05-15T17:06:15.662194</dc:date>
    <dc:format>image/svg+xml</dc:format>
    <dc:creator>
     <cc:Agent>
      <dc:title>Matplotlib v3.10.1, https://matplotlib.org/</dc:title>
     </cc:Agent>
    </dc:creator>
   </cc:Work>
  </rdf:RDF>
 </metadata>
 <defs>
  <style type="text/css">*{stroke-linejoin: round; stroke-linecap: butt}</style>
 </defs>
 <g id="figure_1">
  <g id="patch_1">
   <path d="M 0 338.4 
L 453.6 338.4 
L 453.6 0 
L 0 0 
z
" style="fill: #ffffff"/>
  </g>
  <g id="axes_1">
   <g id="patch_2">
    <path d="M 7.2 331.2 
L 446.4 331.2 
L 446.4 7.2 
L 7.2 7.2 
z
" style="fill: #ffffff"/>
   </g>
   <g id="matplotlib.axis_1"/>
   <g id="matplotlib.axis_2"/>
   <g id="line2d_1">
    <path d="M 27.163636 167.662165 
L 27.997772 163.525704 
L 28.831907 159.306628 
L 29.387997 157.367147 
L 29.666042 156.830401 
L 29.944087 156.634482 
L 30.222132 156.807029 
L 30.500177 157.358408 
L 31.056267 159.573476 
L 31.612358 163.089458 
L 32.724538 172.305394 
L 33.558673 178.860464 
L 34.114763 181.997106 
L 34.670853 183.67746 
L 34.948898 183.910267 
L 35.226944 183.733553 
L 35.504989 183.166017 
L 36.061079 180.99627 
L 36.895214 175.996667 
L 38.007394 169.122618 
L 38.563484 166.872288 
L 38.84153 166.223457 
L 39.119575 165.924802 
L 39.39762 165.980489 
L 39.675665 166.377714 
L 40.231755 168.063759 
L 41.343935 173.273102 
L 41.900025 175.481972 
L 42.17807 176.179172 
L 42.456115 176.500997 
L 42.734161 176.382002 
L 43.012206 175.773818 
L 43.290251 174.645656 
L 43.846341 170.80216 
L 44.402431 165.016439 
L 45.514611 149.900666 
L 46.348747 139.001936 
L 46.904837 133.859559 
L 47.182882 132.270356 
L 47.460927 131.455583 
L 47.738972 131.478346 
L 48.017017 132.378782 
L 48.295062 134.170104 
L 48.851152 140.347053 
L 49.407242 149.584736 
L 50.519423 173.729367 
L 51.631603 197.510205 
L 52.187693 206.295993 
L 52.743783 211.838135 
L 53.021828 213.242088 
L 53.299873 213.704044 
L 53.577918 213.235788 
L 53.855964 211.871364 
L 54.412054 206.705716 
L 54.968144 198.883267 
L 56.080324 178.782015 
L 57.47055 153.589195 
L 58.58273 137.069671 
L 60.529045 109.279495 
L 61.641226 88.564775 
L 63.587541 49.649161 
L 64.143631 42.05586 
L 64.699721 37.858225 
L 64.977767 37.281137 
L 65.255812 37.815139 
L 65.533857 39.503319 
L 65.811902 42.365998 
L 66.367992 51.5672 
L 66.924082 65.070906 
L 67.758217 91.714526 
L 70.260623 179.36266 
L 70.816713 192.370775 
L 71.372803 201.1338 
L 71.650848 203.839175 
L 71.928893 205.433561 
L 72.206938 205.953337 
L 72.484984 205.458051 
L 72.763029 204.027168 
L 73.319119 198.76661 
L 74.153254 186.67458 
L 76.377615 150.818581 
L 79.43611 109.070772 
L 80.548291 87.43143 
L 81.938516 59.861664 
L 82.494606 51.674102 
L 83.050696 46.6181 
L 83.328741 45.512903 
L 83.606787 45.450307 
L 83.884832 46.469636 
L 84.162877 48.583087 
L 84.718967 56.009429 
L 85.275057 67.280893 
L 86.109192 89.446413 
L 87.777463 137.004737 
L 88.611598 153.823424 
L 89.167688 160.455724 
L 89.445733 162.286168 
L 89.723778 163.140775 
L 90.001823 163.064866 
L 90.279868 162.126831 
L 90.835958 158.048089 
L 91.670094 148.255065 
L 93.060319 131.046672 
L 93.616409 126.456386 
L 94.172499 123.890126 
L 94.450544 123.376345 
L 94.72859 123.336613 
L 95.006635 123.716562 
L 95.562725 125.446405 
L 96.95295 131.194831 
L 97.230995 131.86927 
L 97.50904 132.219242 
L 97.787085 132.201256 
L 98.06513 131.791431 
L 98.343175 130.985702 
L 98.899266 128.258276 
L 99.733401 122.115063 
L 100.845581 113.403965 
L 101.401671 110.45115 
L 101.679716 109.605994 
L 101.957761 109.260086 
L 102.235807 109.453262 
L 102.513852 110.208995 
L 102.791897 111.534195 
L 103.347987 115.839036 
L 103.904077 122.111608 
L 104.738212 134.198252 
L 107.518663 177.110196 
L 108.908888 193.765482 
L 111.133249 217.433728 
L 111.967384 224.625332 
L 112.523474 228.095179 
L 113.079564 230.077238 
L 113.35761 230.413288 
L 113.635655 230.272649 
L 113.9137 229.635301 
L 114.191745 228.489355 
L 114.747835 224.670451 
L 115.303925 218.896925 
L 116.13806 207.055282 
L 117.250241 187.145986 
L 119.474601 145.961954 
L 120.308736 134.253532 
L 120.864827 128.446574 
L 121.420917 124.464369 
L 121.977007 122.399289 
L 122.255052 122.087423 
L 122.533097 122.245134 
L 122.811142 122.855553 
L 123.367232 125.343974 
L 123.923322 129.320183 
L 124.757458 137.434784 
L 126.147683 154.156833 
L 132.264675 230.808684 
L 133.376855 241.375428 
L 134.21099 247.38237 
L 135.32317 253.492252 
L 136.713396 260.793197 
L 137.547531 266.376088 
L 138.659711 275.543248 
L 140.049937 287.087353 
L 140.606027 290.411988 
L 141.162117 292.332466 
L 141.440162 292.652359 
L 141.718207 292.501965 
L 141.996252 291.859739 
L 142.274297 290.717248 
L 142.830387 286.956469 
L 143.386478 281.398576 
L 144.220613 270.55848 
L 145.888883 247.523009 
L 146.444973 241.978124 
L 147.001064 238.481348 
L 147.279109 237.619424 
L 147.557154 237.383671 
L 147.835199 237.783436 
L 148.113244 238.81435 
L 148.669334 242.67878 
L 149.225424 248.673223 
L 150.059559 260.604188 
L 152.561965 299.368697 
L 153.3961 308.143611 
L 153.95219 312.216459 
L 154.508281 314.883626 
L 155.064371 316.242258 
L 155.342416 316.472727 
L 155.620461 316.429235 
L 155.898506 316.130783 
L 156.454596 314.838101 
L 157.010686 312.722212 
L 157.844821 308.203362 
L 158.678957 302.204956 
L 159.513092 294.724349 
L 160.625272 282.256334 
L 161.737453 266.733885 
L 163.127678 243.3835 
L 166.742264 179.498523 
L 167.576399 168.70131 
L 168.410534 160.463751 
L 169.24467 154.832795 
L 169.80076 152.437253 
L 170.35685 151.015821 
L 170.634895 150.633636 
L 170.91294 150.449504 
L 171.190985 150.447167 
L 171.46903 150.61128 
L 172.02512 151.377785 
L 172.58121 152.633478 
L 173.415346 155.212643 
L 174.527526 159.486593 
L 176.751887 168.360585 
L 177.586022 170.707248 
L 178.142112 171.603316 
L 178.420157 171.795475 
L 178.698202 171.793951 
L 178.976247 171.584618 
L 179.254292 171.154367 
L 179.810382 169.599003 
L 180.366473 167.102758 
L 181.200608 161.720664 
L 182.312788 152.322933 
L 184.259104 135.371228 
L 185.093239 129.989439 
L 185.649329 127.36292 
L 186.205419 125.511542 
L 186.761509 124.361125 
L 187.317599 123.788508 
L 187.87369 123.638012 
L 188.42978 123.745422 
L 190.09805 124.260219 
L 190.932185 124.182582 
L 192.044366 123.766762 
L 193.712636 122.906769 
L 194.268726 122.383132 
L 194.824816 121.498649 
L 195.380907 120.042057 
L 195.936997 117.807884 
L 196.493087 114.64157 
L 197.327222 108.064449 
L 198.439402 96.741262 
L 199.551583 85.433418 
L 200.107673 81.159875 
L 200.663763 78.530408 
L 200.941808 77.965616 
L 201.219853 77.949357 
L 201.497898 78.502971 
L 201.775943 79.63215 
L 202.332033 83.564562 
L 202.888124 89.497527 
L 203.722259 101.106566 
L 205.668574 129.632354 
L 206.50271 138.041951 
L 207.0588 141.800292 
L 207.61489 144.256499 
L 208.17098 145.770404 
L 209.561205 148.645481 
L 210.117296 150.695725 
L 210.673386 153.783488 
L 211.229476 158.037216 
L 212.063611 166.438075 
L 215.122107 200.650607 
L 215.678197 204.397261 
L 216.234287 207.032723 
L 216.790377 208.701493 
L 217.346467 209.634752 
L 217.902558 210.086241 
L 218.458648 210.262955 
L 219.014738 210.262243 
L 219.570828 210.025067 
L 219.848873 209.753645 
L 220.126918 209.325631 
L 220.683008 207.791301 
L 221.239099 204.959818 
L 221.795189 200.364349 
L 222.351279 193.627891 
L 222.907369 184.555846 
L 223.741504 166.772703 
L 225.13173 130.275799 
L 226.24391 102.788851 
L 226.8 92.310312 
L 227.35609 85.063122 
L 227.634135 82.809845 
L 227.91218 81.515944 
L 228.190225 81.190157 
L 228.46827 81.820391 
L 228.746316 83.375146 
L 229.302406 89.041059 
L 229.858496 97.602779 
L 230.692631 114.160613 
L 232.916992 160.662008 
L 233.751127 173.579887 
L 234.585262 183.384597 
L 235.697442 193.144291 
L 237.087668 203.140755 
L 237.921803 208.072884 
L 238.477893 210.18979 
L 238.755938 210.671052 
L 239.033983 210.654489 
L 239.312028 210.053418 
L 239.590073 208.788376 
L 240.146164 203.991805 
L 240.702254 195.868161 
L 241.258344 184.334014 
L 242.092479 161.4026 
L 244.594885 84.505849 
L 245.150975 74.346593 
L 245.42902 71.082421 
L 245.707065 69.13471 
L 245.98511 68.544614 
L 246.263155 69.323618 
L 246.5412 71.45038 
L 247.09729 79.506042 
L 247.653381 91.943065 
L 248.487516 116.189009 
L 250.155786 166.516219 
L 250.711876 178.85457 
L 251.267967 187.513945 
L 251.824057 192.282977 
L 252.102102 193.272228 
L 252.380147 193.418152 
L 252.658192 192.814846 
L 252.936237 191.57409 
L 253.492327 187.684561 
L 255.160598 173.843788 
L 255.716688 171.036897 
L 256.272778 169.601543 
L 256.550823 169.329817 
L 256.828868 169.279414 
L 257.941048 169.674099 
L 258.219093 169.484581 
L 258.497139 169.020695 
L 258.775184 168.222486 
L 259.331274 165.476769 
L 259.887364 161.171825 
L 260.721499 152.511536 
L 261.833679 140.792851 
L 262.38977 137.062964 
L 262.667815 136.157243 
L 262.94586 136.024936 
L 263.223905 136.746424 
L 263.50195 138.378002 
L 264.05804 144.483514 
L 264.61413 154.313019 
L 265.448265 175.006196 
L 268.228716 254.727012 
L 268.784806 264.492803 
L 269.340896 270.457879 
L 269.618942 271.948208 
L 269.896987 272.446542 
L 270.175032 271.978083 
L 270.453077 270.582767 
L 271.009167 265.242845 
L 271.565257 256.991974 
L 272.399392 240.639714 
L 274.345708 195.273492 
L 276.013978 159.146884 
L 277.404204 133.790764 
L 278.516384 117.079995 
L 279.350519 107.26624 
L 279.906609 102.360938 
L 280.462699 98.964053 
L 281.01879 97.174052 
L 281.296835 96.885965 
L 281.57488 96.989717 
L 281.852925 97.464781 
L 282.409015 99.409648 
L 282.965105 102.408089 
L 285.467511 117.735634 
L 286.023601 119.39597 
L 286.301646 119.848576 
L 286.579691 120.054149 
L 286.857736 120.026306 
L 287.135781 119.785167 
L 287.691871 118.764922 
L 288.526007 116.352918 
L 290.194277 111.118069 
L 291.028412 109.122089 
L 292.418638 106.497805 
L 293.530818 104.275116 
L 294.921043 100.896115 
L 296.033224 98.318677 
L 296.589314 97.382064 
L 297.145404 96.823877 
L 297.701494 96.714333 
L 298.257584 97.08219 
L 298.813674 97.910173 
L 299.369764 99.140766 
L 300.2039 101.533565 
L 302.150215 107.541523 
L 302.98435 109.328983 
L 303.540441 110.037667 
L 304.096531 110.322807 
L 304.652621 110.210824 
L 305.208711 109.789414 
L 306.320891 108.707285 
L 306.876982 108.528132 
L 307.155027 108.649566 
L 307.433072 108.956147 
L 307.711117 109.478158 
L 308.267207 111.260842 
L 308.823297 114.114986 
L 309.657432 120.312869 
L 312.159838 142.144777 
L 312.715928 144.510748 
L 312.993973 145.043124 
L 313.272018 145.116391 
L 313.550063 144.729531 
L 313.828108 143.89982 
L 314.384199 141.053501 
L 315.218334 134.741197 
L 316.330514 126.182526 
L 316.886604 123.603462 
L 317.164649 123.048221 
L 317.442694 123.072203 
L 317.720739 123.724692 
L 317.998785 125.035665 
L 318.554875 129.666599 
L 319.110965 136.833815 
L 319.9451 151.343234 
L 322.169461 193.239812 
L 322.725551 200.017222 
L 323.281641 204.25083 
L 323.559686 205.379195 
L 323.837731 205.865132 
L 324.115776 205.742175 
L 324.393821 205.055745 
L 324.949911 202.229851 
L 325.506002 197.915559 
L 326.618182 186.867451 
L 328.286452 167.760734 
L 329.120587 155.881696 
L 329.954723 140.591851 
L 330.788858 120.977552 
L 332.179083 80.632985 
L 333.291264 48.643041 
L 334.125399 30.826974 
L 334.681489 23.93941 
L 334.959534 22.292793 
L 335.237579 21.927273 
L 335.515624 22.87171 
L 335.793669 25.130474 
L 336.349759 33.467821 
L 336.90585 46.443825 
L 337.739985 72.645204 
L 340.520436 168.886763 
L 341.354571 187.273313 
L 341.910661 195.618485 
L 342.466751 201.181764 
L 343.022841 204.496847 
L 343.578931 206.17588 
L 343.856976 206.579812 
L 344.135022 206.772479 
L 344.413067 206.794225 
L 344.691112 206.671776 
L 345.247202 206.014308 
L 345.803292 204.675491 
L 346.359382 202.304846 
L 346.915472 198.418771 
L 347.471562 192.526251 
L 348.027653 184.266844 
L 348.861788 167.298067 
L 349.973968 138.271303 
L 351.364193 102.451175 
L 351.920284 92.228306 
L 352.476374 86.054405 
L 352.754419 84.740383 
L 353.032464 84.696383 
L 353.310509 85.955023 
L 353.588554 88.520267 
L 354.144644 97.441917 
L 354.700734 110.922861 
L 355.53487 137.528882 
L 357.481185 204.989795 
L 358.31532 225.02276 
L 358.87141 233.184613 
L 359.149456 235.636553 
L 359.427501 237.044978 
L 359.705546 237.476042 
L 359.983591 237.024553 
L 360.261636 235.807779 
L 360.817726 231.628233 
L 362.485996 215.904073 
L 363.042087 212.947701 
L 363.320132 212.216763 
L 363.598177 211.989342 
L 363.876222 212.235969 
L 364.154267 212.901363 
L 364.710357 215.167139 
L 365.822537 220.484909 
L 366.100582 221.332504 
L 366.378628 221.794358 
L 366.656673 221.800861 
L 366.934718 221.303949 
L 367.212763 220.280047 
L 367.768853 216.678808 
L 368.324943 211.293462 
L 370.271259 189.358006 
L 370.827349 185.962442 
L 371.105394 185.209961 
L 371.383439 185.150616 
L 371.661484 185.802902 
L 371.939529 187.161026 
L 372.495619 191.855369 
L 373.329754 202.761517 
L 374.998025 227.221875 
L 375.554115 232.454692 
L 375.83216 234.041659 
L 376.110205 234.848912 
L 376.38825 234.8293 
L 376.666295 233.95691 
L 376.94434 232.22595 
L 377.50043 226.26565 
L 378.056521 217.285061 
L 378.890656 199.474582 
L 381.949152 127.786057 
L 382.783287 114.031659 
L 383.617422 103.385654 
L 384.451557 95.330804 
L 385.285693 89.498949 
L 385.841783 86.847229 
L 386.397873 85.307615 
L 386.675918 85.006318 
L 386.953963 85.046863 
L 387.232008 85.450388 
L 387.510053 86.234472 
L 388.066143 88.998176 
L 388.622233 93.380451 
L 389.456369 102.806634 
L 390.568549 119.440275 
L 392.79291 154.812777 
L 393.627045 164.552858 
L 394.183135 169.1592 
L 394.739225 172.100634 
L 395.01727 172.940506 
L 395.295315 173.369639 
L 395.57336 173.404799 
L 395.851405 173.068545 
L 396.12945 172.38994 
L 396.685541 170.149569 
L 397.519676 165.224553 
L 399.187946 154.369113 
L 400.022082 150.508849 
L 400.578172 148.854509 
L 401.134262 147.889646 
L 401.690352 147.459904 
L 402.524487 147.331459 
L 403.080577 147.240612 
L 403.636668 146.914622 
L 404.192758 146.240082 
L 404.748848 145.205408 
L 406.973208 140.36067 
L 407.251253 140.131623 
L 407.529299 140.071669 
L 407.807344 140.195541 
L 408.085389 140.511369 
L 408.641479 141.716254 
L 409.197569 143.610514 
L 410.309749 148.668345 
L 411.42193 153.550986 
L 411.97802 155.264062 
L 412.53411 156.282477 
L 412.812155 156.523007 
L 413.0902 156.595765 
L 413.368245 156.51945 
L 413.924335 156.028127 
L 415.036516 154.720304 
L 415.314561 154.566861 
L 415.592606 154.563914 
L 415.870651 154.744286 
L 416.148696 155.137039 
L 416.704786 156.636412 
L 417.260876 159.134893 
L 418.095011 164.576332 
L 420.597417 183.783245 
L 421.153507 186.252866 
L 421.431552 187.01876 
L 421.709597 187.450332 
L 421.987642 187.542906 
L 422.265688 187.300445 
L 422.543733 186.736364 
L 423.099823 184.741604 
L 423.933958 180.160259 
L 425.324183 171.847605 
L 425.880273 169.655299 
L 426.158319 169.01094 
L 426.436364 168.721024 
L 426.436364 168.721024 
" clip-path="url(#p4f14fa9fb5)" style="fill: none; stroke-dasharray: 11.1,4.8; stroke-dashoffset: 0; stroke: #000000; stroke-width: 3"/>
   </g>
   <g id="line2d_2">
    <path d="M 27.163636 160.06734 
L 30.500177 159.889712 
L 33.558673 159.514944 
L 48.017017 157.07713 
L 50.519423 156.315503 
L 52.465738 155.548491 
L 54.134009 154.521031 
L 56.358369 154.760951 
L 64.977767 158.949542 
L 67.202127 159.653043 
L 68.870398 159.977001 
L 69.426488 159.951597 
L 71.094758 159.467591 
L 71.650848 159.909324 
L 73.875209 162.193391 
L 74.987389 163.32887 
L 78.32393 165.298429 
L 80.548291 166.371108 
L 82.494606 167.075829 
L 84.162877 167.463197 
L 85.553102 167.608205 
L 86.387237 167.449783 
L 87.777463 166.928686 
L 88.055508 166.819142 
L 90.279868 168.121681 
L 93.060319 169.843293 
L 94.72859 170.411947 
L 96.118815 170.665585 
L 97.50904 170.688957 
L 98.899266 170.45422 
L 100.011446 170.062279 
L 101.123626 169.474521 
L 102.235807 168.678039 
L 103.626032 167.395824 
L 105.294302 165.651856 
L 107.518663 165.162058 
L 109.743024 164.899477 
L 112.801519 164.800298 
L 118.918511 164.680694 
L 121.420917 164.366592 
L 123.089187 164.135107 
L 128.928134 164.082672 
L 132.820765 163.782797 
L 135.045125 163.407624 
L 136.991441 162.868642 
L 139.215801 161.978164 
L 140.606027 161.410932 
L 143.108433 160.820024 
L 146.723018 160.232875 
L 160.069182 158.521324 
L 162.849633 156.490286 
L 165.352038 154.962663 
L 168.132489 153.528529 
L 171.46903 152.062486 
L 175.361661 150.584555 
L 177.029932 150.179404 
L 178.698202 150.032058 
L 181.478653 150.039679 
L 184.815194 150.301041 
L 191.488276 151.134206 
L 194.546771 151.961885 
L 195.936997 152.301898 
L 203.444214 153.841004 
L 207.892935 154.524791 
L 212.619701 154.99386 
L 226.8 155.321171 
L 229.302406 155.45673 
L 231.804811 155.701934 
L 234.863307 156.224657 
L 240.702254 157.516729 
L 244.594885 158.267889 
L 245.707065 158.387493 
L 246.5412 158.374384 
L 247.375336 158.669585 
L 249.877741 159.847134 
L 257.384958 163.597954 
L 259.331274 164.248919 
L 260.999544 164.587916 
L 262.38977 164.679068 
L 263.50195 164.547777 
L 271.009167 162.640205 
L 281.852925 159.975579 
L 284.911421 159.185093 
L 287.135781 158.855749 
L 289.638187 158.72019 
L 292.140593 158.811951 
L 294.921043 159.153896 
L 297.423449 159.663408 
L 297.979539 159.797747 
L 301.31608 159.442389 
L 303.818486 159.368919 
L 306.320891 159.522972 
L 308.823297 159.917961 
L 311.047658 160.481636 
L 313.272018 161.254542 
L 314.662244 161.87807 
L 315.496379 162.308117 
L 318.554875 162.233327 
L 329.398633 160.096301 
L 331.622993 159.948548 
L 332.457128 160.462329 
L 333.847354 161.296307 
L 335.793669 162.309947 
L 340.520436 163.433638 
L 342.188706 164.084196 
L 343.578931 164.83434 
L 344.969157 165.830602 
L 346.359382 167.129178 
L 347.749607 168.78799 
L 348.861788 170.42973 
L 349.417878 171.278646 
L 350.530058 172.147785 
L 352.198329 173.191909 
L 355.53487 174.902343 
L 358.593365 176.158646 
L 364.432312 178.483969 
L 365.822537 179.006591 
L 366.934718 178.895421 
L 368.324943 178.487323 
L 370.549304 177.562295 
L 372.495619 176.517459 
L 375.27607 174.733047 
L 379.446746 172.062222 
L 381.393062 171.068907 
L 382.505242 170.676255 
L 384.173512 170.291428 
L 386.119828 169.654181 
L 389.734414 168.120665 
L 395.01727 165.874197 
L 397.519676 165.061964 
L 399.465991 164.636591 
L 401.412307 164.4487 
L 405.861028 163.99335 
L 409.475614 163.909616 
L 417.538921 164.005137 
L 418.651102 164.199126 
L 419.763282 164.209085 
L 421.987642 164.080233 
L 424.212003 164.172705 
L 426.436364 164.454594 
L 426.436364 164.454594 
" clip-path="url(#p4f14fa9fb5)" style="fill: none; stroke: #ff00ff; stroke-width: 3; stroke-linecap: square"/>
   </g>
   <g id="patch_3">
    <path d="M 7.2 331.2 
L 7.2 7.2 
" style="fill: none; stroke: #000000; stroke-width: 0.8; stroke-linejoin: miter; stroke-linecap: square"/>
   </g>
   <g id="patch_4">
    <path d="M 446.4 331.2 
L 446.4 7.2 
" style="fill: none; stroke: #000000; stroke-width: 0.8; stroke-linejoin: miter; stroke-linecap: square"/>
   </g>
   <g id="patch_5">
    <path d="M 7.2 331.2 
L 446.4 331.2 
" style="fill: none; stroke: #000000; stroke-width: 0.8; stroke-linejoin: miter; stroke-linecap: square"/>
   </g>
   <g id="patch_6">
    <path d="M 7.2 7.2 
L 446.4 7.2 
" style="fill: none; stroke: #000000; stroke-width: 0.8; stroke-linejoin: miter; stroke-linecap: square"/>
   </g>
  </g>
 </g>
 <defs>
  <clipPath id="p4f14fa9fb5">
   <rect x="7.2" y="7.2" width="439.2" height="324"/>
  </clipPath>
 </defs>
</svg>
