<?xml version="1.0" encoding="utf-8" standalone="no"?>
<!DOCTYPE svg PUBLIC "-//W3C//DTD SVG 1.1//EN"
  "http://www.w3.org/Graphics/SVG/1.1/DTD/svg11.dtd">
<svg xmlns:xlink="http://www.w3.org/1999/xlink" width="453.6pt" height="338.4pt" viewBox="0 0 453.6 338.4" xmlns="http://www.w3.org/2000/svg" version="1.1">
 <metadata>
  <rdf:RDF xmlns:dc="http://purl.org/dc/elements/1.1/" xmlns:cc="http://creativecommons.org/ns#" xmlns:rdf="http://www.w3.org/1999/02/22-rdf-syntax-ns#">
   <cc:Work>
    <dc:type rdf:resource="http://purl.org/dc/dcmitype/StillImage"/>
    <dc:date>2025-05-15T18:29:14.368179</dc:date>
    <dc:format>image/svg+xml</dc:format>
    <dc:creator>
     <cc:Agent>
      <dc:title>Matplotlib v3.10.1, https://matplotlib.org/</dc:title>
     </cc:Agent>
    </dc:creator>
   </cc:Work>
  </rdf:RDF>
 </metadata>
 <defs>
  <style type="text/css">*{stroke-linejoin: round; stroke-linecap: butt}</style>
 </defs>
 <g id="figure_1">
  <g id="patch_1">
   <path d="M 0 338.4 
L 453.6 338.4 
L 453.6 0 
L 0 0 
z
" style="fill: #ffffff"/>
  </g>
  <g id="axes_1">
   <g id="patch_2">
    <path d="M 7.2 331.2 
L 446.4 331.2 
L 446.4 7.2 
L 7.2 7.2 
z
" style="fill: #ffffff"/>
   </g>
   <g id="matplotlib.axis_1"/>
   <g id="matplotlib.axis_2"/>
   <g id="line2d_1">
    <path d="M 27.163636 229.981095 
L 29.109952 236.57209 
L 30.222132 239.496776 
L 31.056267 241.042713 
L 31.612358 241.712522 
L 32.168448 242.067106 
L 32.724538 242.087491 
L 33.280628 241.760902 
L 33.836718 241.084844 
L 34.392808 240.07101 
L 35.226944 237.988712 
L 36.339124 234.466409 
L 38.563484 227.138352 
L 39.95371 223.468768 
L 41.62198 219.136128 
L 42.456115 216.254001 
L 43.290251 212.522203 
L 44.402431 206.159425 
L 46.626792 192.165662 
L 47.182882 189.743244 
L 47.738972 188.331612 
L 48.017017 188.092308 
L 48.295062 188.204892 
L 48.573107 188.695418 
L 48.851152 189.584347 
L 49.407242 192.611462 
L 49.963332 197.327487 
L 50.797468 207.383661 
L 51.909648 225.148631 
L 54.690099 273.125515 
L 55.524234 283.780264 
L 56.358369 291.621146 
L 56.914459 295.28612 
L 57.47055 297.796579 
L 58.02664 299.284233 
L 58.58273 299.906317 
L 58.860775 299.944744 
L 59.13882 299.829035 
L 59.69491 299.214385 
L 60.251 298.209244 
L 61.363181 295.507986 
L 64.421676 287.459801 
L 65.533857 285.19429 
L 66.367992 283.893276 
L 67.202127 282.955942 
L 68.036262 282.346155 
L 69.148443 281.871604 
L 70.538668 281.316849 
L 71.372803 280.708246 
L 72.206938 279.721877 
L 73.041074 278.268668 
L 73.875209 276.305833 
L 74.709344 273.823747 
L 75.821524 269.718039 
L 76.933705 264.728164 
L 78.32393 257.366846 
L 81.938516 237.133094 
L 82.772651 233.81308 
L 83.606787 231.46366 
L 84.162877 230.46376 
L 84.718967 229.899681 
L 85.275057 229.731057 
L 85.831147 229.900513 
L 86.387237 230.337745 
L 87.221372 231.327087 
L 88.889643 233.498585 
L 89.445733 233.963435 
L 90.001823 234.134604 
L 90.279868 234.073373 
L 90.557913 233.892957 
L 91.114004 233.103534 
L 91.670094 231.618425 
L 92.226184 229.285207 
L 92.782274 225.961362 
L 93.338364 221.532466 
L 94.172499 212.690348 
L 95.006635 201.303099 
L 96.39686 178.174394 
L 98.343175 144.88318 
L 99.455356 129.774817 
L 100.289491 121.347152 
L 101.123626 115.472532 
L 101.679716 112.892476 
L 102.235807 111.306575 
L 102.513852 110.869645 
L 102.791897 110.664031 
L 103.069942 110.687011 
L 103.347987 110.937226 
L 103.626032 111.414573 
L 104.182122 113.05349 
L 104.738212 115.609154 
L 105.294302 119.074964 
L 106.128438 125.892537 
L 107.240618 137.506366 
L 111.133249 182.098754 
L 112.245429 191.236618 
L 113.35761 198.483488 
L 116.416105 216.624661 
L 117.806331 227.128122 
L 120.864827 251.229538 
L 122.255052 259.924804 
L 123.923322 268.612358 
L 126.147683 278.886166 
L 127.537908 284.287043 
L 128.372044 286.753884 
L 128.928134 287.954183 
L 129.484224 288.733425 
L 130.040314 289.036076 
L 130.318359 288.990998 
L 130.596404 288.804836 
L 131.152494 287.977743 
L 131.708584 286.48714 
L 132.264675 284.259249 
L 132.820765 281.216083 
L 133.6549 274.956767 
L 134.489035 266.475482 
L 135.32317 255.673779 
L 136.435351 237.883435 
L 138.103621 206.349039 
L 140.049937 170.412658 
L 141.162117 154.09616 
L 141.996252 144.508488 
L 142.830387 136.995404 
L 143.664523 131.117256 
L 144.776703 124.97322 
L 146.166928 118.782215 
L 148.113244 111.375466 
L 150.337604 102.932331 
L 151.72783 96.541507 
L 152.84001 90.434915 
L 154.230236 81.437226 
L 155.620461 70.982044 
L 157.844821 52.246051 
L 159.791137 36.569073 
L 160.903317 29.442574 
L 161.737453 25.48838 
L 162.293543 23.629638 
L 162.849633 22.437126 
L 163.405723 21.927273 
L 163.683768 21.928079 
L 163.961813 22.096854 
L 164.517903 22.924199 
L 165.073993 24.371613 
L 165.630084 26.388245 
L 166.464219 30.345765 
L 167.576399 37.005046 
L 169.24467 48.845 
L 173.137301 77.316021 
L 174.527526 85.869876 
L 175.917751 93.010133 
L 177.029932 97.599967 
L 178.142112 101.217669 
L 179.254292 104.045722 
L 182.590833 111.737509 
L 183.703013 115.356319 
L 185.093239 120.90488 
L 187.595644 132.315967 
L 191.21023 148.481026 
L 193.156546 156.362452 
L 194.268726 160.034531 
L 195.102861 162.152005 
L 195.936997 163.612269 
L 196.493087 164.191315 
L 197.049177 164.447779 
L 197.605267 164.385389 
L 198.161357 164.018609 
L 198.717447 163.373091 
L 199.551583 161.975166 
L 202.053988 157.243166 
L 202.610079 156.844486 
L 202.888124 156.837179 
L 203.166169 156.978992 
L 203.444214 157.283432 
L 204.000304 158.422223 
L 204.556394 160.309338 
L 205.112484 162.947954 
L 205.946619 168.184263 
L 207.0588 176.89505 
L 209.561205 197.411799 
L 210.673386 204.773116 
L 211.785566 210.60422 
L 212.619701 213.937137 
L 213.453836 216.284768 
L 214.009927 217.22641 
L 214.566017 217.607653 
L 214.844062 217.573409 
L 215.122107 217.383015 
L 215.678197 216.525936 
L 216.234287 215.037853 
L 216.790377 212.953716 
L 217.624513 208.87129 
L 219.014738 200.464087 
L 220.683008 190.29868 
L 221.795189 184.866987 
L 222.629324 181.820091 
L 223.463459 179.640051 
L 224.297594 178.163761 
L 225.409775 176.793856 
L 226.24391 175.728441 
L 226.8 174.766388 
L 227.35609 173.457009 
L 227.91218 171.686811 
L 228.46827 169.362513 
L 229.302406 164.711096 
L 230.136541 158.648903 
L 231.248721 148.790607 
L 233.473082 128.11806 
L 234.307217 122.153886 
L 235.141352 117.919845 
L 235.697442 116.089727 
L 236.253533 114.969785 
L 236.809623 114.417448 
L 237.365713 114.249631 
L 238.755938 114.224131 
L 239.312028 113.937228 
L 239.868119 113.341804 
L 240.424209 112.419362 
L 241.258344 110.524939 
L 243.204659 105.633688 
L 243.76075 104.655106 
L 244.31684 104.013569 
L 244.87293 103.726264 
L 245.42902 103.765723 
L 245.98511 104.065023 
L 248.209471 105.757158 
L 248.765561 105.787446 
L 249.321651 105.533653 
L 249.877741 105.000366 
L 250.711876 103.797725 
L 252.102102 101.672288 
L 252.658192 101.234098 
L 252.936237 101.190758 
L 253.214282 101.294069 
L 253.492327 101.565651 
L 254.048417 102.696227 
L 254.604507 104.736545 
L 255.160598 107.818289 
L 255.716688 112.044418 
L 256.550823 120.655069 
L 257.384958 131.969547 
L 258.497139 150.651164 
L 262.111724 215.4928 
L 262.94586 225.921902 
L 263.779995 233.958169 
L 264.61413 240.054555 
L 265.72631 246.363158 
L 267.950671 258.247939 
L 269.618942 268.858188 
L 271.843302 283.230951 
L 272.955482 289.20853 
L 274.067663 293.872043 
L 274.901798 296.494532 
L 276.013978 299.105782 
L 278.516384 304.352927 
L 279.628564 306.84605 
L 280.184654 307.674655 
L 280.462699 307.866184 
L 280.740744 307.856382 
L 281.01879 307.604454 
L 281.296835 307.071117 
L 281.852925 305.017897 
L 282.409015 301.467045 
L 282.965105 296.309479 
L 283.79924 285.706764 
L 284.911421 267.732727 
L 286.579691 240.368243 
L 287.413826 230.031642 
L 287.969916 225.07838 
L 288.526007 221.764715 
L 289.082097 220.019186 
L 289.360142 219.683601 
L 289.638187 219.669339 
L 289.916232 219.9446 
L 290.472322 221.22664 
L 291.028412 223.248186 
L 292.140593 228.412833 
L 293.530818 234.578993 
L 294.364953 237.168195 
L 294.921043 238.297587 
L 295.477133 238.981834 
L 296.033224 239.312757 
L 296.867359 239.447641 
L 297.701494 239.617323 
L 298.257584 239.980247 
L 298.813674 240.645671 
L 299.369764 241.637457 
L 300.2039 243.639047 
L 301.87217 248.010592 
L 302.42826 249.01412 
L 302.98435 249.553656 
L 303.262396 249.617558 
L 303.540441 249.532213 
L 303.818486 249.292632 
L 304.374576 248.344488 
L 304.930666 246.790287 
L 305.764801 243.464501 
L 306.876982 237.741597 
L 309.379387 224.293946 
L 310.491567 219.51024 
L 311.881793 214.531049 
L 314.940289 204.70032 
L 316.052469 201.768477 
L 316.886604 200.250208 
L 317.442694 199.653347 
L 317.998785 199.39837 
L 318.554875 199.447531 
L 319.38901 199.900437 
L 320.223145 200.402856 
L 320.779235 200.492938 
L 321.335325 200.199132 
L 321.891416 199.396279 
L 322.447506 198.021359 
L 323.281641 194.96189 
L 325.227956 186.852802 
L 325.506002 186.225149 
L 325.784047 185.887322 
L 326.062092 185.890396 
L 326.340137 186.28134 
L 326.618182 187.10158 
L 327.174272 190.159991 
L 327.730362 195.237756 
L 328.286452 202.350068 
L 329.120587 216.458028 
L 330.232768 239.747066 
L 332.179083 281.298732 
L 333.013219 295.302423 
L 333.847354 305.705319 
L 334.403444 310.56414 
L 334.959534 313.859335 
L 335.515624 315.758193 
L 335.793669 316.249273 
L 336.071714 316.472727 
L 336.349759 316.457583 
L 336.627805 316.232668 
L 337.183895 315.26487 
L 337.739985 313.776031 
L 338.852165 309.912902 
L 341.354571 300.722626 
L 342.466751 297.388601 
L 343.578931 294.750439 
L 344.691112 292.80048 
L 345.803292 291.403966 
L 347.193517 290.096779 
L 349.139833 288.305894 
L 350.252013 286.970082 
L 351.086148 285.679197 
L 351.920284 284.042976 
L 352.754419 281.98318 
L 353.866599 278.519538 
L 355.256825 273.208315 
L 359.427501 256.46809 
L 362.485996 245.39284 
L 363.598177 242.218393 
L 364.432312 240.600466 
L 364.988402 239.949506 
L 365.544492 239.630854 
L 366.100582 239.59404 
L 366.934718 239.870309 
L 367.768853 240.159429 
L 368.324943 240.096233 
L 368.881033 239.619968 
L 369.437123 238.543366 
L 369.993213 236.680466 
L 370.549304 233.859292 
L 371.105394 229.936923 
L 371.939529 221.796792 
L 372.773664 210.948952 
L 373.885845 193.01813 
L 376.666295 145.326359 
L 377.50043 134.38365 
L 378.334566 125.858067 
L 379.168701 119.529835 
L 380.002836 114.897517 
L 380.836971 111.401722 
L 381.949152 107.80821 
L 382.783287 105.725257 
L 383.617422 104.275979 
L 384.173512 103.77933 
L 384.451557 103.701923 
L 384.729602 103.751613 
L 385.007648 103.936665 
L 385.563738 104.742441 
L 386.119828 106.165211 
L 386.675918 108.230223 
L 387.510053 112.536028 
L 388.344188 118.228519 
L 389.456369 127.703354 
L 391.124639 144.61951 
L 393.349 167.059886 
L 394.46118 175.995488 
L 395.295315 181.296556 
L 396.12945 185.5088 
L 397.241631 189.958232 
L 399.465991 198.294781 
L 400.578172 203.536029 
L 401.968397 211.382027 
L 405.582983 232.993596 
L 406.695163 238.073654 
L 407.529299 240.972361 
L 408.085389 242.398003 
L 408.641479 243.372454 
L 409.197569 243.852296 
L 409.475614 243.89168 
L 409.753659 243.788419 
L 410.031704 243.535055 
L 410.587794 242.546469 
L 411.143885 240.858215 
L 411.699975 238.399134 
L 412.256065 235.10094 
L 413.0902 228.468697 
L 413.924335 219.774717 
L 415.036516 205.315197 
L 418.929147 150.738802 
L 419.763282 143.024437 
L 420.597417 137.303675 
L 421.431552 133.245515 
L 422.265688 130.365 
L 423.377868 127.498496 
L 425.324183 122.70461 
L 426.436364 119.202818 
L 426.436364 119.202818 
" clip-path="url(#pd8d6462107)" style="fill: none; stroke-dasharray: 11.1,4.8; stroke-dashoffset: 0; stroke: #000000; stroke-width: 3"/>
   </g>
   <g id="line2d_2">
    <path d="M 27.163636 210.214511 
L 27.441681 210.47163 
L 27.719727 175.073046 
L 28.831907 210.029559 
L 29.109952 198.085236 
L 29.387997 209.459584 
L 29.666042 200.986992 
L 29.944087 166.432258 
L 30.222132 203.504557 
L 30.778222 186.127281 
L 31.056267 210.302728 
L 31.334312 214.083864 
L 31.612358 192.005631 
L 31.890403 193.585257 
L 32.168448 219.400327 
L 32.446493 187.582909 
L 32.724538 181.508822 
L 33.002583 200.376676 
L 33.280628 211.464852 
L 33.558673 211.840149 
L 33.836718 194.815087 
L 34.114763 194.080949 
L 34.392808 200.15937 
L 34.670853 200.839786 
L 34.948898 184.288142 
L 35.226944 186.561767 
L 35.504989 211.752788 
L 35.783034 190.455259 
L 36.061079 199.698602 
L 36.339124 196.770943 
L 36.617169 196.939062 
L 36.895214 218.956921 
L 37.173259 183.102635 
L 37.451304 188.700054 
L 37.729349 214.332491 
L 38.007394 190.734905 
L 38.285439 195.021357 
L 38.563484 196.778376 
L 38.84153 218.422979 
L 39.119575 179.59671 
L 39.39762 213.127808 
L 39.675665 209.610141 
L 39.95371 209.993854 
L 40.231755 196.257209 
L 40.5098 207.349418 
L 40.787845 207.352819 
L 41.06589 212.21096 
L 41.343935 204.142188 
L 41.62198 202.156977 
L 41.900025 210.058889 
L 42.17807 199.890887 
L 42.456115 213.09175 
L 42.734161 200.935437 
L 43.012206 209.766872 
L 43.290251 206.111171 
L 43.568296 192.917994 
L 43.846341 193.496334 
L 44.124386 187.093794 
L 44.402431 211.961829 
L 44.680476 210.863279 
L 44.958521 198.835375 
L 45.236566 198.628148 
L 45.514611 217.256622 
L 45.792656 190.485648 
L 46.070701 200.584029 
L 46.348747 228.757665 
L 46.626792 209.727714 
L 46.904837 209.583431 
L 47.182882 199.790322 
L 47.460927 209.297083 
L 47.738972 210.39586 
L 48.017017 215.840883 
L 48.295062 196.423969 
L 48.573107 191.921773 
L 48.851152 214.15923 
L 49.129197 211.868924 
L 49.407242 196.424724 
L 49.685287 196.178743 
L 49.963332 225.451812 
L 50.241378 189.336728 
L 50.519423 222.427669 
L 50.797468 217.30402 
L 51.075513 203.459529 
L 51.353558 210.540697 
L 51.909648 194.479352 
L 52.187693 205.754899 
L 52.465738 187.56071 
L 52.743783 211.994762 
L 53.021828 209.652725 
L 53.299873 210.917354 
L 53.577918 193.095084 
L 54.134009 195.903104 
L 54.412054 210.663309 
L 54.968144 215.959388 
L 55.246189 216.742486 
L 55.524234 218.451302 
L 55.802279 212.557682 
L 56.080324 193.97028 
L 56.358369 207.944968 
L 56.636414 203.205434 
L 56.914459 201.606859 
L 57.192504 184.343703 
L 57.47055 186.484712 
L 57.748595 211.227967 
L 58.02664 191.794272 
L 58.304685 194.761013 
L 58.58273 194.019743 
L 58.860775 211.723054 
L 59.13882 190.157547 
L 59.972955 217.968209 
L 60.251 212.916524 
L 60.529045 189.657824 
L 60.80709 211.341937 
L 61.085135 213.614982 
L 61.363181 205.31235 
L 61.641226 181.703526 
L 61.919271 209.047222 
L 62.197316 216.738908 
L 62.475361 211.697453 
L 62.753406 209.041149 
L 63.031451 194.837539 
L 63.309496 210.205037 
L 63.587541 200.827691 
L 63.865586 183.540119 
L 64.143631 189.400705 
L 64.421676 212.286528 
L 64.699721 210.928239 
L 64.977767 189.50263 
L 65.255812 210.996122 
L 65.533857 216.82894 
L 65.811902 208.490047 
L 66.089947 184.366129 
L 66.367992 187.537956 
L 66.646037 199.314965 
L 66.924082 189.928247 
L 67.202127 192.450826 
L 67.480172 190.039621 
L 67.758217 210.862876 
L 68.036262 218.800166 
L 68.314307 205.883912 
L 68.592352 201.279236 
L 68.870398 213.959613 
L 69.148443 188.623932 
L 69.426488 201.637323 
L 69.704533 190.06938 
L 69.982578 209.583986 
L 70.260623 211.622666 
L 70.538668 198.922383 
L 70.816713 217.596213 
L 71.094758 210.718241 
L 71.372803 188.43079 
L 71.650848 198.635078 
L 71.928893 193.185242 
L 72.206938 190.030852 
L 72.484984 209.617852 
L 72.763029 186.803716 
L 73.041074 211.629797 
L 73.319119 210.009955 
L 73.597164 193.121718 
L 73.875209 202.184947 
L 74.153254 184.090642 
L 74.431299 210.555916 
L 74.709344 207.41846 
L 74.987389 183.134838 
L 75.543479 211.420202 
L 75.821524 190.529492 
L 76.09957 200.573093 
L 76.377615 201.857023 
L 76.65566 193.95312 
L 76.933705 207.622638 
L 77.21175 184.277735 
L 77.489795 184.102031 
L 77.76784 215.393924 
L 78.045885 190.269047 
L 78.32393 184.923707 
L 78.601975 193.322646 
L 78.88002 209.555159 
L 79.158065 213.58923 
L 79.43611 189.201516 
L 79.714155 211.753619 
L 79.992201 200.412734 
L 80.270246 213.774283 
L 80.548291 191.032138 
L 80.826336 191.160093 
L 81.104381 198.318517 
L 81.382426 211.42388 
L 81.660471 206.258629 
L 81.938516 195.436919 
L 82.216561 215.535157 
L 82.494606 212.131309 
L 82.772651 194.409327 
L 83.050696 192.696076 
L 83.328741 206.741066 
L 83.606787 210.971025 
L 83.884832 183.014241 
L 84.162877 212.485465 
L 84.440922 208.452755 
L 84.718967 194.472624 
L 84.997012 190.971764 
L 85.275057 192.148906 
L 85.553102 209.650533 
L 85.831147 216.526037 
L 86.109192 186.261888 
L 86.387237 182.779019 
L 86.665282 213.034349 
L 86.943327 191.734905 
L 87.221372 182.52059 
L 88.055508 218.039065 
L 88.333553 186.481058 
L 88.611598 215.913528 
L 88.889643 210.334906 
L 89.167688 192.71631 
L 89.445733 199.291683 
L 89.723778 198.251113 
L 90.001823 210.193017 
L 90.279868 217.104982 
L 90.557913 185.137989 
L 90.835958 183.357712 
L 91.114004 209.702315 
L 91.392049 196.019543 
L 91.670094 190.03753 
L 91.948139 191.261438 
L 92.226184 209.611073 
L 92.504229 218.795227 
L 92.782274 182.35179 
L 93.060319 217.232332 
L 93.338364 209.68644 
L 93.616409 196.010623 
L 93.894454 199.549406 
L 94.172499 197.583018 
L 94.450544 211.148796 
L 94.72859 217.546322 
L 95.006635 188.266249 
L 95.28468 183.560731 
L 95.562725 212.91534 
L 95.84077 196.556811 
L 96.118815 190.896574 
L 96.39686 194.846056 
L 96.674905 210.222045 
L 96.95295 218.888711 
L 97.230995 183.960318 
L 97.50904 216.217212 
L 97.787085 204.229272 
L 98.06513 212.519683 
L 98.343175 196.27384 
L 98.621221 197.526348 
L 98.899266 195.368079 
L 99.177311 210.087766 
L 99.455356 215.094296 
L 99.733401 190.515205 
L 100.011446 207.48667 
L 100.289491 195.966603 
L 100.567536 191.981693 
L 100.845581 194.140239 
L 101.123626 211.199418 
L 101.401671 214.187653 
L 101.679716 209.883739 
L 101.957761 210.963567 
L 102.235807 208.686943 
L 102.513852 194.866138 
L 102.791897 198.74688 
L 103.069942 193.384632 
L 103.347987 212.759718 
L 103.626032 202.38532 
L 103.904077 202.69795 
L 104.182122 214.271562 
L 104.460167 208.924559 
L 104.738212 196.086746 
L 105.016257 198.850771 
L 105.294302 178.563499 
L 105.572347 209.961222 
L 105.850393 194.36833 
L 106.128438 214.546571 
L 106.406483 195.803976 
L 106.684528 212.122868 
L 106.962573 197.479556 
L 107.240618 189.534657 
L 107.518663 197.138932 
L 107.796708 193.66133 
L 108.352798 215.805631 
L 108.630843 212.246514 
L 108.908888 210.608932 
L 109.186933 195.306546 
L 109.464978 195.896704 
L 109.743024 179.086757 
L 110.299114 208.192562 
L 110.577159 186.417535 
L 110.855204 205.977648 
L 111.133249 212.914231 
L 111.411294 194.986004 
L 111.689339 184.525884 
L 112.245429 194.139231 
L 112.523474 188.624587 
L 112.801519 210.58507 
L 113.079564 213.857008 
L 113.35761 207.592022 
L 113.635655 189.047658 
L 113.9137 179.264704 
L 114.191745 189.836451 
L 114.46979 211.364262 
L 114.747835 187.045162 
L 115.02588 213.504162 
L 115.303925 181.238752 
L 115.58197 190.41968 
L 115.860015 212.063981 
L 116.13806 189.602464 
L 116.416105 187.653463 
L 116.69415 189.198291 
L 116.972195 207.951671 
L 117.250241 176.615253 
L 117.528286 192.696656 
L 117.806331 184.823848 
L 118.084376 191.450321 
L 118.362421 192.056077 
L 118.640466 188.34988 
L 118.918511 210.368192 
L 119.196556 172.05606 
L 119.474601 211.962635 
L 119.752646 170.305164 
L 120.308736 208.226529 
L 120.586781 189.623177 
L 120.864827 189.725429 
L 121.142872 191.331614 
L 121.420917 211.720963 
L 121.698962 174.800204 
L 121.977007 206.064077 
L 122.255052 192.366061 
L 122.533097 190.312085 
L 122.811142 193.695624 
L 123.089187 190.257507 
L 123.367232 211.426249 
L 123.645277 172.023605 
L 123.923322 210.280479 
L 124.201367 170.450656 
L 124.479413 192.432558 
L 124.757458 200.996517 
L 125.035503 188.98741 
L 125.313548 188.62499 
L 125.591593 190.098861 
L 125.869638 204.817213 
L 126.147683 179.603262 
L 126.425728 177.767298 
L 126.703773 174.826662 
L 126.981818 212.292575 
L 127.259863 189.287189 
L 127.537908 190.1547 
L 127.815953 188.7313 
L 128.093998 208.597718 
L 128.372044 172.150653 
L 128.650089 206.369449 
L 128.928134 172.844903 
L 129.206179 210.461626 
L 129.484224 189.215047 
L 129.762269 189.563231 
L 130.040314 190.7662 
L 130.318359 198.584354 
L 130.596404 183.479418 
L 130.874449 181.360306 
L 131.152494 172.895349 
L 131.430539 210.549516 
L 131.708584 189.333427 
L 131.98663 189.490384 
L 132.264675 191.486228 
L 132.54272 210.097139 
L 132.820765 173.690492 
L 133.09881 195.576641 
L 133.376855 208.466109 
L 133.6549 183.769772 
L 133.932945 192.117282 
L 134.21099 208.134934 
L 134.489035 184.878527 
L 134.76708 182.599787 
L 135.045125 209.280276 
L 135.32317 189.19058 
L 135.601215 208.969562 
L 135.879261 209.234542 
L 136.157306 188.352803 
L 136.435351 188.878732 
L 136.713396 191.294599 
L 136.991441 175.475002 
L 137.547531 208.854383 
L 137.825576 172.177262 
L 138.103621 208.293 
L 138.381666 205.336691 
L 138.659711 187.500159 
L 138.937756 190.723465 
L 139.215801 212.78227 
L 139.493847 176.135739 
L 139.771892 184.564663 
L 140.049937 188.796386 
L 140.327982 186.889666 
L 140.606027 190.590118 
L 140.884072 192.041034 
L 141.162117 207.042382 
L 141.440162 188.924592 
L 141.718207 187.792026 
L 141.996252 168.540863 
L 142.274297 191.685719 
L 142.552342 201.23378 
L 142.830387 186.406397 
L 143.108433 191.541588 
L 143.386478 206.928135 
L 143.664523 169.549481 
L 143.942568 177.240915 
L 144.220613 196.58841 
L 144.498658 176.151513 
L 145.054748 192.528234 
L 145.332793 187.222227 
L 145.610838 206.042482 
L 146.166928 174.610263 
L 146.444973 168.935713 
L 147.001064 205.270421 
L 147.279109 184.535408 
L 147.557154 186.36084 
L 147.835199 195.551091 
L 148.113244 179.379354 
L 148.391289 173.074858 
L 148.669334 179.552665 
L 148.947379 174.72335 
L 149.503469 193.142506 
L 149.781514 185.493833 
L 150.059559 185.68521 
L 150.337604 188.48993 
L 150.61565 172.63178 
L 150.893695 172.393106 
L 151.17174 169.569589 
L 151.449785 184.000383 
L 151.72783 189.483178 
L 152.005875 201.646848 
L 152.28392 170.302241 
L 152.84001 172.139314 
L 153.118055 171.801814 
L 153.674145 193.25955 
L 153.95219 184.360636 
L 154.230236 184.240972 
L 154.508281 194.925908 
L 154.786326 175.143801 
L 155.064371 171.07652 
L 155.342416 170.610713 
L 155.620461 169.383226 
L 156.176551 194.739318 
L 156.454596 205.148614 
L 156.732641 169.138303 
L 157.010686 178.30502 
L 157.288731 171.732419 
L 157.566776 179.503226 
L 157.844821 172.044671 
L 158.122867 191.057034 
L 158.678957 185.17183 
L 158.957002 204.54684 
L 159.513092 170.398295 
L 159.791137 169.78115 
L 160.069182 181.127176 
L 160.347227 186.781946 
L 160.625272 203.616738 
L 160.903317 202.693817 
L 161.181362 172.794003 
L 161.459407 193.001121 
L 161.737453 171.621901 
L 162.015498 175.491582 
L 162.293543 173.77183 
L 162.571588 188.724748 
L 162.849633 185.397829 
L 163.127678 185.068519 
L 163.405723 185.431922 
L 163.683768 174.193642 
L 163.961813 171.896608 
L 164.517903 170.055957 
L 164.795948 189.028886 
L 165.073993 190.559704 
L 165.352038 204.867507 
L 165.630084 187.567437 
L 165.908129 200.401042 
L 166.186174 180.635062 
L 166.464219 202.978805 
L 166.742264 181.217888 
L 167.020309 196.85465 
L 167.298354 188.825691 
L 167.854444 183.46251 
L 168.132489 187.680072 
L 168.410534 170.129989 
L 168.688579 168.529725 
L 169.24467 169.677184 
L 169.522715 171.520959 
L 169.80076 189.998397 
L 170.078805 173.802118 
L 170.35685 170.953706 
L 170.91294 176.430906 
L 171.190985 175.039382 
L 171.46903 193.109548 
L 171.747075 185.667874 
L 172.02512 185.203982 
L 172.303165 203.42279 
L 172.859256 178.327395 
L 173.137301 170.827515 
L 173.415346 177.550597 
L 173.693391 187.817047 
L 174.249481 195.258368 
L 174.527526 182.597444 
L 174.805571 203.898021 
L 175.083616 200.515415 
L 175.361661 204.445595 
L 175.639706 190.568221 
L 175.917751 186.764836 
L 176.195796 198.060618 
L 176.473841 196.13243 
L 176.751887 186.622519 
L 177.029932 202.409964 
L 177.307977 192.400178 
L 177.586022 191.498726 
L 177.864067 193.023043 
L 178.142112 193.054188 
L 178.420157 195.841748 
L 178.698202 209.092351 
L 178.976247 187.023618 
L 179.254292 206.075693 
L 179.532337 180.659504 
L 180.088427 195.875185 
L 180.366473 191.349026 
L 180.644518 184.893847 
L 180.922563 185.233186 
L 181.200608 208.013683 
L 181.478653 193.222812 
L 181.756698 188.981489 
L 182.034743 173.204678 
L 182.312788 176.883258 
L 182.590833 182.793256 
L 183.146923 202.211178 
L 183.424968 189.0976 
L 183.703013 209.634533 
L 183.981058 204.352867 
L 184.259104 206.483671 
L 184.537149 177.249281 
L 184.815194 209.995693 
L 185.093239 186.654041 
L 185.371284 188.464077 
L 185.649329 186.02785 
L 185.927374 185.646305 
L 186.205419 194.9727 
L 186.483464 191.199552 
L 187.039554 177.51023 
L 187.317599 182.563628 
L 187.595644 180.561535 
L 187.87369 195.89358 
L 188.151735 181.919043 
L 188.707825 187.570738 
L 188.98587 196.856691 
L 189.54196 186.397578 
L 189.820005 185.014469 
L 190.09805 192.242087 
L 190.376095 209.241447 
L 190.65414 194.349507 
L 190.932185 191.211622 
L 191.21023 189.590445 
L 191.488276 177.779393 
L 191.766321 176.105804 
L 192.044366 191.352251 
L 192.322411 174.235621 
L 192.600456 199.361833 
L 192.878501 197.620361 
L 193.156546 185.852473 
L 193.434591 189.406627 
L 193.712636 210.41947 
L 193.990681 183.489371 
L 194.268726 183.896165 
L 194.824816 186.700582 
L 195.102861 208.998565 
L 195.380907 194.31733 
L 195.658952 193.940496 
L 195.936997 181.531954 
L 196.215042 177.78408 
L 196.493087 179.974375 
L 196.771132 187.040198 
L 197.049177 206.76576 
L 197.327222 206.730962 
L 197.605267 207.893514 
L 197.883312 201.488278 
L 198.161357 181.131006 
L 198.439402 208.237313 
L 198.717447 209.098197 
L 199.273538 209.713629 
L 199.551583 194.011 
L 199.829628 189.922754 
L 200.107673 180.360204 
L 200.385718 193.248438 
L 200.663763 192.287242 
L 200.941808 188.493634 
L 201.219853 182.422747 
L 201.497898 195.190081 
L 202.053988 174.620795 
L 202.610079 211.333924 
L 202.888124 184.978185 
L 203.166169 187.647365 
L 203.444214 188.132499 
L 203.722259 187.898486 
L 204.000304 186.793587 
L 204.278349 210.179814 
L 204.556394 193.498753 
L 204.834439 191.885034 
L 205.112484 213.273426 
L 205.390529 193.495125 
L 205.668574 192.640717 
L 205.946619 211.815757 
L 206.224664 200.075662 
L 206.50271 174.390487 
L 206.780755 188.383267 
L 207.0588 208.637606 
L 207.336845 184.398861 
L 207.61489 182.408888 
L 208.17098 185.249036 
L 208.449025 188.806011 
L 208.72707 208.799577 
L 209.005115 191.874048 
L 209.28316 193.342073 
L 209.561205 212.77587 
L 209.83925 194.224803 
L 210.117296 190.619952 
L 210.395341 199.355332 
L 210.673386 181.49267 
L 210.951431 185.627608 
L 211.229476 192.000062 
L 211.507521 210.214435 
L 211.785566 185.228903 
L 212.063611 192.917969 
L 212.341656 189.856508 
L 212.619701 188.737372 
L 212.897746 189.174655 
L 213.175791 209.888174 
L 213.453836 192.525764 
L 213.731881 208.675881 
L 214.009927 208.305373 
L 214.287972 212.061789 
L 214.566017 210.008619 
L 214.844062 205.549461 
L 215.122107 210.232351 
L 215.400152 207.432117 
L 215.678197 185.433333 
L 215.956242 209.67301 
L 216.234287 189.467656 
L 216.512332 191.818033 
L 216.790377 206.350097 
L 217.068422 208.140503 
L 217.346467 192.721451 
L 217.624513 192.462719 
L 217.902558 212.722979 
L 218.180603 183.141087 
L 218.458648 183.458504 
L 218.736693 207.039409 
L 219.014738 209.083003 
L 219.292783 208.342514 
L 219.570828 210.59084 
L 220.126918 193.661985 
L 220.404963 191.291424 
L 220.683008 211.782269 
L 220.961053 189.74463 
L 221.239099 187.284743 
L 221.517144 187.208671 
L 221.795189 188.948782 
L 222.073234 208.222472 
L 222.351279 191.975142 
L 222.629324 208.421308 
L 222.907369 181.992192 
L 223.185414 184.295777 
L 223.463459 192.974437 
L 223.741504 197.162088 
L 224.019549 215.278392 
L 224.297594 211.8977 
L 224.575639 213.171677 
L 224.853684 212.862701 
L 225.13173 191.131367 
L 225.409775 207.474777 
L 225.68782 208.944919 
L 225.965865 208.023207 
L 226.24391 209.372122 
L 226.521955 192.115871 
L 226.8 195.54275 
L 227.078045 197.379117 
L 227.35609 180.878322 
L 227.634135 185.325814 
L 227.91218 209.11838 
L 228.190225 211.472739 
L 228.46827 194.006288 
L 228.746316 192.512636 
L 229.024361 199.761597 
L 229.302406 191.958158 
L 229.580451 209.25077 
L 229.858496 210.831354 
L 230.136541 189.563206 
L 230.414586 186.780056 
L 230.692631 187.565925 
L 230.970676 206.742578 
L 231.248721 191.955286 
L 231.526766 207.027163 
L 231.804811 180.425467 
L 232.082856 179.715896 
L 232.360901 187.024853 
L 232.638947 208.211158 
L 232.916992 214.950694 
L 233.195037 209.363328 
L 233.473082 182.955429 
L 233.751127 180.804745 
L 234.029172 208.74127 
L 234.307217 213.076354 
L 234.585262 199.649492 
L 234.863307 203.491253 
L 235.141352 190.163922 
L 235.697442 206.303834 
L 235.975487 192.856057 
L 236.253533 202.938614 
L 236.531578 188.931345 
L 236.809623 196.278476 
L 237.087668 209.755759 
L 237.365713 197.041945 
L 237.921803 207.48415 
L 238.199848 206.498311 
L 238.477893 208.891474 
L 238.755938 209.71698 
L 239.033983 191.140489 
L 239.312028 188.424516 
L 239.590073 189.296562 
L 239.868119 209.472939 
L 240.146164 194.747784 
L 240.424209 186.430512 
L 240.702254 191.653013 
L 240.980299 187.896042 
L 241.258344 208.544802 
L 241.536389 212.870563 
L 241.814434 195.627717 
L 242.092479 194.277971 
L 242.370524 206.098925 
L 242.648569 202.40946 
L 242.926614 206.231768 
L 243.482704 207.905206 
L 243.76075 191.13298 
L 244.31684 207.195434 
L 244.594885 208.554806 
L 244.87293 185.838237 
L 245.150975 210.037169 
L 245.42902 193.845979 
L 245.707065 207.741319 
L 245.98511 212.085928 
L 246.263155 205.323588 
L 246.5412 207.468502 
L 246.819245 204.573071 
L 247.09729 207.976566 
L 247.375336 207.87517 
L 247.653381 189.817603 
L 247.931426 193.109346 
L 248.209471 197.947505 
L 248.487516 192.23866 
L 248.765561 208.433453 
L 249.043606 208.113416 
L 249.321651 185.256192 
L 249.599696 214.568972 
L 249.877741 207.297535 
L 250.155786 190.588253 
L 250.433831 206.407346 
L 250.711876 209.807541 
L 250.989921 185.997588 
L 251.546012 212.267529 
L 251.824057 187.375455 
L 252.102102 209.809179 
L 252.380147 208.034622 
L 252.658192 207.165121 
L 252.936237 197.419434 
L 253.214282 210.079955 
L 253.492327 192.623683 
L 253.770372 198.191571 
L 254.048417 200.863876 
L 254.326462 224.645229 
L 254.604507 193.308862 
L 255.160598 214.528026 
L 255.438643 209.910071 
L 255.716688 198.28377 
L 255.994733 207.002872 
L 256.272778 207.793731 
L 256.550823 208.041047 
L 256.828868 209.4903 
L 257.106913 192.814103 
L 257.384958 191.523471 
L 257.663003 207.560071 
L 257.941048 201.028014 
L 258.219093 188.655832 
L 258.497139 212.669258 
L 258.775184 210.465053 
L 259.053229 185.19476 
L 259.331274 210.269089 
L 259.609319 211.481483 
L 259.887364 214.812181 
L 260.165409 184.872832 
L 260.443454 181.791038 
L 260.721499 210.809608 
L 260.999544 201.419588 
L 261.277589 199.981927 
L 261.555634 207.575467 
L 261.833679 208.357557 
L 262.111724 198.515942 
L 262.38977 209.498918 
L 262.667815 193.006438 
L 262.94586 212.753217 
L 263.223905 210.789097 
L 263.50195 182.68546 
L 263.779995 212.201561 
L 264.05804 187.977053 
L 264.336085 194.189577 
L 264.61413 210.025578 
L 264.892175 208.039284 
L 265.17022 195.051393 
L 265.448265 207.944137 
L 265.72631 208.232979 
L 266.004356 187.424062 
L 266.282401 186.739638 
L 266.560446 203.904648 
L 266.838491 198.839079 
L 267.116536 179.559014 
L 267.394581 203.990422 
L 267.672626 204.138459 
L 267.950671 180.391551 
L 268.228716 209.168801 
L 268.506761 210.718896 
L 268.784806 185.460597 
L 269.062851 200.203088 
L 269.340896 204.778685 
L 269.618942 193.963653 
L 269.896987 178.719675 
L 270.175032 208.495213 
L 270.453077 188.950269 
L 270.731122 189.324305 
L 271.009167 209.385326 
L 271.287212 184.394301 
L 271.565257 199.422787 
L 271.843302 195.098135 
L 272.121347 207.43252 
L 272.399392 179.246763 
L 272.677437 208.86872 
L 272.955482 187.480656 
L 273.233527 188.086714 
L 273.511573 208.615986 
L 273.789618 206.990021 
L 274.067663 184.724468 
L 274.345708 209.760975 
L 274.623753 186.730517 
L 274.901798 194.912754 
L 275.457888 187.917788 
L 275.735933 190.776884 
L 276.013978 180.258355 
L 276.292023 205.927126 
L 276.570068 205.2742 
L 276.848113 209.54765 
L 277.126159 183.408184 
L 277.404204 206.726351 
L 277.682249 191.113905 
L 278.238339 209.197048 
L 278.516384 186.524147 
L 278.794429 208.900999 
L 279.072474 211.371822 
L 279.350519 184.527244 
L 279.628564 186.075399 
L 279.906609 192.667905 
L 280.184654 209.014968 
L 280.740744 194.74912 
L 281.01879 213.675331 
L 281.296835 184.2701 
L 281.57488 211.417253 
L 281.852925 189.104454 
L 282.13097 196.25532 
L 282.409015 208.417478 
L 282.68706 208.917982 
L 282.965105 197.306144 
L 283.24315 210.011492 
L 283.521195 190.238281 
L 283.79924 192.733848 
L 284.077285 185.938448 
L 284.633376 208.923727 
L 284.911421 206.083832 
L 285.189466 198.486864 
L 285.467511 198.164155 
L 285.745556 194.60902 
L 286.023601 212.416498 
L 286.301646 211.519935 
L 286.579691 192.729766 
L 286.857736 197.253481 
L 287.413826 216.474684 
L 287.691871 190.067994 
L 287.969916 212.195438 
L 288.247962 198.677158 
L 288.526007 209.031448 
L 288.804052 188.051236 
L 289.082097 220.251938 
L 289.360142 216.481386 
L 289.638187 206.429495 
L 289.916232 214.732859 
L 290.472322 201.942922 
L 290.750367 208.450638 
L 291.028412 184.654594 
L 291.306457 193.304276 
L 291.584502 207.465529 
L 291.862547 204.884188 
L 292.140593 208.465354 
L 292.418638 205.527489 
L 292.696683 189.763226 
L 292.974728 189.491417 
L 293.252773 190.313698 
L 293.530818 205.629691 
L 293.808863 206.561582 
L 294.364953 182.236838 
L 294.642998 205.075717 
L 294.921043 207.802021 
L 295.199088 207.777478 
L 295.477133 185.756646 
L 295.755179 193.373646 
L 296.033224 205.787026 
L 296.311269 182.476519 
L 296.589314 207.241067 
L 296.867359 206.249482 
L 297.145404 204.546689 
L 297.423449 189.062021 
L 297.701494 206.592198 
L 297.979539 185.731977 
L 298.257584 192.34565 
L 298.535629 201.816303 
L 298.813674 182.576555 
L 299.091719 205.72698 
L 299.369764 206.160131 
L 299.64781 207.084815 
L 300.2039 184.70761 
L 300.481945 202.420244 
L 300.75999 194.257611 
L 301.038035 192.71757 
L 301.31608 189.690354 
L 301.87217 186.297895 
L 302.150215 195.473406 
L 302.42826 199.785157 
L 302.706305 199.746201 
L 302.98435 180.635012 
L 303.262396 170.897918 
L 303.540441 195.833609 
L 303.818486 206.684422 
L 304.096531 203.860779 
L 304.652621 169.352333 
L 304.930666 196.777948 
L 305.208711 169.459475 
L 305.486756 192.234251 
L 305.764801 178.22479 
L 306.042846 204.866298 
L 306.320891 192.250025 
L 306.598936 174.466786 
L 306.876982 173.298615 
L 307.155027 199.737936 
L 307.433072 192.477813 
L 307.711117 196.073971 
L 307.989162 203.733631 
L 308.267207 206.589149 
L 308.545252 192.415423 
L 308.823297 205.631279 
L 309.101342 176.002795 
L 309.657432 204.034845 
L 309.935477 190.885411 
L 310.213522 204.3125 
L 310.491567 184.241073 
L 310.769613 183.916575 
L 311.047658 205.295719 
L 311.325703 188.358447 
L 311.603748 191.522185 
L 312.159838 172.186585 
L 312.715928 183.868724 
L 312.993973 197.767794 
L 313.272018 193.274115 
L 313.550063 205.133924 
L 313.828108 177.403089 
L 314.106153 208.211133 
L 314.384199 194.238788 
L 314.662244 202.730682 
L 314.940289 190.123404 
L 315.218334 187.731878 
L 315.496379 200.699132 
L 315.774424 179.781007 
L 316.052469 187.996859 
L 316.330514 207.175376 
L 316.608559 194.551493 
L 316.886604 188.624284 
L 317.164649 207.039913 
L 317.442694 204.148412 
L 317.720739 206.511565 
L 317.998785 178.290657 
L 318.27683 187.567463 
L 318.554875 204.917953 
L 318.83292 200.121195 
L 319.110965 208.140856 
L 319.38901 190.784847 
L 319.667055 187.673142 
L 319.9451 207.795444 
L 320.50119 190.860239 
L 320.779235 211.985943 
L 321.05728 213.00963 
L 321.335325 202.405831 
L 321.61337 207.83057 
L 321.891416 206.737085 
L 322.169461 194.160171 
L 322.447506 210.393844 
L 322.725551 197.958768 
L 323.003596 201.3192 
L 323.281641 210.867286 
L 323.559686 184.211994 
L 323.837731 207.969334 
L 324.115776 207.81399 
L 324.393821 197.447731 
L 324.671866 213.597243 
L 324.949911 188.14225 
L 325.227956 185.090239 
L 325.506002 190.228832 
L 325.784047 219.734224 
L 326.062092 209.859146 
L 326.340137 207.059869 
L 326.618182 189.026215 
L 326.896227 197.432209 
L 327.174272 197.397789 
L 327.452317 210.575319 
L 327.730362 204.021213 
L 328.008407 203.220149 
L 328.286452 205.333365 
L 328.564497 205.28758 
L 329.120587 199.100784 
L 329.398633 189.667878 
L 329.676678 204.834322 
L 329.954723 205.376957 
L 330.232768 201.753283 
L 330.788858 209.530466 
L 331.066903 183.649075 
L 331.344948 211.480046 
L 331.622993 192.141926 
L 331.901038 207.85476 
L 332.179083 181.365094 
L 332.457128 203.201931 
L 332.735173 199.916563 
L 333.013219 200.577427 
L 333.291264 184.256746 
L 333.569309 214.375176 
L 333.847354 211.700578 
L 334.125399 190.406552 
L 334.681489 210.460668 
L 334.959534 186.533974 
L 335.237579 207.597238 
L 335.515624 182.729909 
L 335.793669 205.306756 
L 336.071714 188.504343 
L 336.349759 182.21741 
L 336.627805 206.329258 
L 336.90585 190.299486 
L 337.183895 185.279878 
L 337.46194 197.817559 
L 337.739985 191.465238 
L 338.01803 179.01963 
L 338.296075 182.867564 
L 338.57412 195.399249 
L 338.852165 201.430726 
L 339.13021 196.689604 
L 339.408255 208.509324 
L 339.6863 207.46379 
L 339.964345 191.393702 
L 340.24239 193.906656 
L 340.520436 185.741049 
L 340.798481 199.565835 
L 341.076526 178.613894 
L 341.632616 205.328124 
L 341.910661 198.463354 
L 342.188706 194.62943 
L 342.466751 186.718296 
L 343.022841 183.484458 
L 343.300886 187.421088 
L 343.856976 209.774103 
L 344.135022 191.63608 
L 344.413067 205.318876 
L 344.691112 182.396289 
L 344.969157 200.527485 
L 345.247202 176.992062 
L 345.525247 192.079712 
L 345.803292 196.524558 
L 346.081337 185.036417 
L 346.359382 184.082906 
L 346.915472 202.574959 
L 347.193517 193.472951 
L 347.471562 189.918193 
L 347.749607 190.070539 
L 348.027653 178.839516 
L 348.583743 203.272132 
L 348.861788 189.912649 
L 349.139833 186.416703 
L 349.417878 177.51784 
L 349.695923 206.966637 
L 349.973968 189.870972 
L 350.252013 195.629128 
L 350.530058 185.877722 
L 350.808103 204.326838 
L 351.364193 178.049211 
L 351.642239 193.257912 
L 351.920284 188.043601 
L 352.198329 197.683129 
L 352.476374 195.43004 
L 352.754419 191.244052 
L 353.032464 190.420033 
L 353.310509 204.881946 
L 353.588554 177.8822 
L 353.866599 199.225463 
L 354.144644 204.108877 
L 354.422689 199.920167 
L 354.700734 203.783799 
L 354.978779 186.967679 
L 355.256825 181.711186 
L 355.53487 197.061171 
L 355.812915 178.979918 
L 356.09096 195.049679 
L 356.369005 188.634036 
L 356.64705 198.527936 
L 356.925095 197.055325 
L 357.20314 211.800084 
L 357.481185 211.174699 
L 357.75923 205.471449 
L 358.037275 197.238564 
L 358.31532 183.164143 
L 358.593365 204.294509 
L 358.87141 215.804573 
L 359.149456 196.592088 
L 359.427501 208.36363 
L 359.705546 201.862163 
L 359.983591 217.129323 
L 360.261636 190.812615 
L 360.539681 183.742483 
L 360.817726 181.462912 
L 361.095771 182.785319 
L 361.373816 182.328155 
L 361.651861 183.917482 
L 362.207951 211.063526 
L 362.485996 192.211749 
L 363.042087 214.522684 
L 363.320132 178.55987 
L 363.598177 209.320265 
L 363.876222 203.876779 
L 364.154267 203.675298 
L 364.432312 204.075666 
L 364.710357 183.640986 
L 364.988402 212.123926 
L 365.266447 186.590115 
L 365.544492 188.618086 
L 365.822537 210.811725 
L 366.100582 210.623396 
L 366.378628 212.49819 
L 366.656673 183.851136 
L 366.934718 222.648932 
L 367.212763 212.269091 
L 367.490808 222.972749 
L 367.768853 184.355445 
L 368.046898 184.214514 
L 368.324943 196.340791 
L 368.602988 193.983635 
L 368.881033 185.128817 
L 369.159078 196.75789 
L 369.437123 201.420369 
L 369.715168 188.886821 
L 369.993213 189.556554 
L 370.271259 188.967529 
L 370.549304 194.766027 
L 370.827349 207.612281 
L 371.105394 185.8399 
L 371.383439 210.570481 
L 371.661484 204.255603 
L 371.939529 205.604493 
L 372.217574 209.769971 
L 372.495619 193.540632 
L 372.773664 201.293876 
L 373.051709 203.251672 
L 373.329754 203.117216 
L 373.607799 188.8109 
L 373.885845 208.630374 
L 374.16389 195.378662 
L 374.71998 205.794787 
L 374.998025 194.131874 
L 375.27607 209.388551 
L 375.554115 210.796102 
L 375.83216 197.020703 
L 376.110205 188.776681 
L 376.38825 195.578582 
L 376.666295 205.92375 
L 376.94434 224.468945 
L 377.222385 210.878952 
L 377.50043 209.363757 
L 377.778476 213.819816 
L 378.056521 214.101502 
L 378.334566 190.451782 
L 378.612611 189.791952 
L 378.890656 191.81123 
L 379.168701 214.183067 
L 379.446746 204.632865 
L 380.280881 210.493753 
L 380.558926 204.31759 
L 380.836971 185.679516 
L 381.115016 201.547014 
L 381.393062 205.054324 
L 381.671107 176.820162 
L 381.949152 175.820564 
L 382.227197 198.438157 
L 382.505242 194.712205 
L 382.783287 220.260077 
L 383.061332 206.146952 
L 383.339377 210.241397 
L 383.617422 180.557453 
L 383.895467 204.224409 
L 384.173512 202.940479 
L 384.729602 205.962932 
L 385.007648 183.755737 
L 385.285693 208.328479 
L 385.563738 201.041067 
L 385.841783 204.066065 
L 386.119828 201.431557 
L 386.397873 203.025471 
L 386.675918 195.930066 
L 386.953963 195.766532 
L 387.232008 220.138825 
L 387.510053 189.899143 
L 387.788098 192.538011 
L 388.066143 198.214274 
L 388.344188 199.288029 
L 388.622233 201.161966 
L 388.900279 206.017788 
L 389.178324 195.231381 
L 389.456369 226.675972 
L 389.734414 209.653582 
L 390.012459 201.954085 
L 390.290504 207.88341 
L 390.568549 178.118808 
L 391.124639 197.339103 
L 391.402684 177.396688 
L 391.680729 210.639422 
L 391.958774 189.507292 
L 392.236819 191.095637 
L 392.514865 181.508973 
L 393.349 209.123848 
L 393.627045 190.107428 
L 393.90509 184.508497 
L 394.183135 194.889245 
L 394.46118 195.862737 
L 394.739225 206.001913 
L 395.01727 183.65797 
L 395.295315 182.161194 
L 395.57336 191.482247 
L 395.851405 184.828535 
L 396.12945 185.399568 
L 396.407496 183.436934 
L 396.685541 182.553499 
L 396.963586 184.130908 
L 397.241631 183.278818 
L 397.519676 183.373486 
L 397.797721 219.269021 
L 398.353811 190.943291 
L 398.909901 196.130288 
L 399.187946 178.289649 
L 399.465991 192.803167 
L 399.744036 193.426183 
L 400.022082 194.81917 
L 400.300127 187.013438 
L 400.578172 205.775738 
L 400.856217 185.381803 
L 401.134262 186.469215 
L 401.412307 207.169656 
L 401.690352 208.511062 
L 401.968397 198.745973 
L 402.246442 176.885425 
L 402.524487 198.921426 
L 402.802532 208.677721 
L 403.080577 204.515947 
L 403.358622 197.518764 
L 403.636668 179.933001 
L 403.914713 211.282848 
L 404.192758 209.571614 
L 404.470803 195.033023 
L 404.748848 208.371265 
L 405.026893 188.742059 
L 405.304938 184.298801 
L 405.582983 186.68312 
L 405.861028 201.025494 
L 406.139073 178.297813 
L 406.417118 181.688382 
L 406.695163 196.730374 
L 407.251253 209.081188 
L 407.529299 220.917261 
L 407.807344 173.596857 
L 408.085389 205.124147 
L 408.363434 186.024675 
L 408.641479 183.46382 
L 409.197569 218.302962 
L 409.475614 205.519098 
L 409.753659 186.367215 
L 410.031704 188.396799 
L 410.309749 206.847628 
L 410.587794 206.857934 
L 410.865839 190.963298 
L 411.143885 224.67078 
L 411.42193 186.519939 
L 411.699975 184.205493 
L 411.97802 187.005022 
L 412.256065 204.681749 
L 412.53411 194.722637 
L 412.812155 173.671593 
L 413.0902 177.158972 
L 413.368245 222.803571 
L 413.64629 187.862705 
L 413.924335 185.170091 
L 414.20238 186.906498 
L 414.480425 187.032865 
L 414.75847 212.359627 
L 415.036516 199.776287 
L 415.314561 197.169648 
L 415.592606 181.480953 
L 415.870651 228.487444 
L 416.148696 202.514434 
L 416.426741 196.639486 
L 416.704786 204.336791 
L 416.982831 202.769033 
L 417.260876 202.095545 
L 417.538921 187.894807 
L 417.816966 184.672711 
L 418.095011 201.761044 
L 418.651102 190.647645 
L 418.929147 189.852174 
L 419.207192 171.209564 
L 419.485237 205.582722 
L 419.763282 198.841801 
L 420.041327 196.787674 
L 420.319372 203.463182 
L 420.597417 169.751618 
L 420.875462 203.249757 
L 421.153507 190.929608 
L 421.431552 189.235836 
L 421.709597 200.53003 
L 421.987642 187.212652 
L 422.265688 202.532299 
L 422.543733 208.771709 
L 422.821778 203.265178 
L 423.099823 184.734799 
L 423.377868 186.189066 
L 423.655913 198.221279 
L 423.933958 196.943951 
L 424.212003 194.984921 
L 424.490048 183.029486 
L 425.046138 209.962558 
L 425.324183 187.604906 
L 425.602228 196.613229 
L 425.880273 193.147319 
L 426.158319 200.071606 
L 426.436364 189.198467 
L 426.436364 189.198467 
" clip-path="url(#pd8d6462107)" style="fill: none; stroke: #ff00ff; stroke-width: 3; stroke-linecap: square"/>
   </g>
   <g id="patch_3">
    <path d="M 7.2 331.2 
L 7.2 7.2 
" style="fill: none; stroke: #000000; stroke-width: 0.8; stroke-linejoin: miter; stroke-linecap: square"/>
   </g>
   <g id="patch_4">
    <path d="M 446.4 331.2 
L 446.4 7.2 
" style="fill: none; stroke: #000000; stroke-width: 0.8; stroke-linejoin: miter; stroke-linecap: square"/>
   </g>
   <g id="patch_5">
    <path d="M 7.2 331.2 
L 446.4 331.2 
" style="fill: none; stroke: #000000; stroke-width: 0.8; stroke-linejoin: miter; stroke-linecap: square"/>
   </g>
   <g id="patch_6">
    <path d="M 7.2 7.2 
L 446.4 7.2 
" style="fill: none; stroke: #000000; stroke-width: 0.8; stroke-linejoin: miter; stroke-linecap: square"/>
   </g>
  </g>
 </g>
 <defs>
  <clipPath id="pd8d6462107">
   <rect x="7.2" y="7.2" width="439.2" height="324"/>
  </clipPath>
 </defs>
</svg>
