<?xml version="1.0" encoding="utf-8" standalone="no"?>
<!DOCTYPE svg PUBLIC "-//W3C//DTD SVG 1.1//EN"
  "http://www.w3.org/Graphics/SVG/1.1/DTD/svg11.dtd">
<svg xmlns:xlink="http://www.w3.org/1999/xlink" width="453.6pt" height="338.4pt" viewBox="0 0 453.6 338.4" xmlns="http://www.w3.org/2000/svg" version="1.1">
 <metadata>
  <rdf:RDF xmlns:dc="http://purl.org/dc/elements/1.1/" xmlns:cc="http://creativecommons.org/ns#" xmlns:rdf="http://www.w3.org/1999/02/22-rdf-syntax-ns#">
   <cc:Work>
    <dc:type rdf:resource="http://purl.org/dc/dcmitype/StillImage"/>
    <dc:date>2025-05-15T16:57:45.959834</dc:date>
    <dc:format>image/svg+xml</dc:format>
    <dc:creator>
     <cc:Agent>
      <dc:title>Matplotlib v3.10.1, https://matplotlib.org/</dc:title>
     </cc:Agent>
    </dc:creator>
   </cc:Work>
  </rdf:RDF>
 </metadata>
 <defs>
  <style type="text/css">*{stroke-linejoin: round; stroke-linecap: butt}</style>
 </defs>
 <g id="figure_1">
  <g id="patch_1">
   <path d="M 0 338.4 
L 453.6 338.4 
L 453.6 0 
L 0 0 
z
" style="fill: #ffffff"/>
  </g>
  <g id="axes_1">
   <g id="patch_2">
    <path d="M 7.2 331.2 
L 446.4 331.2 
L 446.4 7.2 
L 7.2 7.2 
z
" style="fill: #ffffff"/>
   </g>
   <g id="matplotlib.axis_1"/>
   <g id="matplotlib.axis_2"/>
   <g id="line2d_1">
    <path d="M 27.163636 110.646986 
L 27.719727 105.720684 
L 29.944087 83.705652 
L 30.500177 80.68045 
L 31.056267 79.0908 
L 31.334312 78.772151 
L 31.612358 78.711557 
L 31.890403 78.853484 
L 32.446493 79.501154 
L 33.280628 80.510755 
L 33.558673 80.666137 
L 33.836718 80.678821 
L 34.114763 80.53578 
L 34.670853 79.780637 
L 35.226944 78.486583 
L 36.061079 75.896503 
L 37.451304 70.774795 
L 38.285439 66.992907 
L 39.119575 62.181535 
L 41.62198 45.868345 
L 42.17807 44.077204 
L 42.456115 43.63094 
L 42.734161 43.475901 
L 43.012206 43.585688 
L 43.568296 44.422937 
L 44.958521 47.257275 
L 45.236566 47.465708 
L 45.514611 47.453024 
L 45.792656 47.200195 
L 46.070701 46.70268 
L 46.626792 45.021327 
L 47.460927 41.221269 
L 49.685287 30.013161 
L 50.797468 25.755784 
L 51.631603 23.346627 
L 52.187693 22.304802 
L 52.465738 22.020348 
L 52.743783 21.927273 
L 53.021828 22.050945 
L 53.299873 22.415103 
L 53.577918 23.04109 
L 54.134009 25.149081 
L 54.690099 28.483677 
L 55.246189 33.098871 
L 56.080324 42.451216 
L 56.914459 54.667554 
L 58.02664 74.886817 
L 60.80709 128.769658 
L 61.641226 139.763675 
L 62.475361 147.290855 
L 63.309496 152.295406 
L 65.533857 163.400754 
L 66.646037 170.749582 
L 69.148443 188.293919 
L 69.982578 192.445794 
L 70.538668 194.149002 
L 70.816713 194.617035 
L 71.094758 194.813984 
L 71.372803 194.737536 
L 71.650848 194.396431 
L 72.206938 193.00056 
L 73.041074 189.658508 
L 74.153254 184.900444 
L 74.709344 183.224491 
L 75.265434 182.320907 
L 75.543479 182.179665 
L 75.821524 182.240944 
L 76.09957 182.491802 
L 76.65566 183.497203 
L 77.21175 185.056341 
L 78.045885 188.2053 
L 78.88002 192.207621 
L 79.992201 198.807048 
L 82.216561 212.978651 
L 83.050696 216.797735 
L 83.884832 219.612189 
L 85.275057 223.98141 
L 86.109192 227.601145 
L 87.499418 235.289707 
L 88.333553 239.484863 
L 88.889643 241.402504 
L 89.167688 241.991209 
L 89.445733 242.302231 
L 89.723778 242.323229 
L 90.001823 242.051973 
L 90.279868 241.495579 
L 90.835958 239.605021 
L 91.670094 235.347815 
L 93.060319 227.916281 
L 93.616409 226.170478 
L 93.894454 225.758839 
L 94.172499 225.698845 
L 94.450544 226.009353 
L 94.72859 226.698161 
L 95.28468 229.180682 
L 95.84077 232.964198 
L 96.95295 242.913733 
L 98.06513 252.792391 
L 98.899266 258.094679 
L 99.455356 260.186129 
L 99.733401 260.782119 
L 100.011446 261.090999 
L 100.289491 261.132394 
L 100.567536 260.931417 
L 101.123626 259.926359 
L 101.957761 257.445038 
L 103.347987 253.128868 
L 103.904077 252.034762 
L 104.460167 251.50725 
L 104.738212 251.46217 
L 105.016257 251.553531 
L 105.572347 252.080015 
L 107.518663 254.682864 
L 107.796708 254.759227 
L 108.074753 254.697005 
L 108.352798 254.487115 
L 108.908888 253.629297 
L 109.464978 252.254938 
L 110.577159 248.610863 
L 111.689339 245.139568 
L 112.245429 243.916306 
L 112.801519 243.185589 
L 113.079564 243.021978 
L 113.35761 242.994639 
L 113.635655 243.100741 
L 114.191745 243.676162 
L 115.02588 245.191077 
L 115.860015 246.802752 
L 116.416105 247.406027 
L 116.69415 247.432767 
L 116.972195 247.218934 
L 117.250241 246.727418 
L 117.806331 244.799749 
L 118.362421 241.528918 
L 119.196556 234.314389 
L 121.698962 208.868943 
L 122.255052 205.479068 
L 122.811142 203.514889 
L 123.089187 203.06554 
L 123.367232 202.954124 
L 123.645277 203.159043 
L 123.923322 203.654588 
L 124.479413 205.406561 
L 125.035503 207.975215 
L 125.869638 212.871006 
L 128.372044 228.497187 
L 128.928134 230.795185 
L 129.484224 232.331184 
L 130.040314 233.120009 
L 130.596404 233.307274 
L 131.98663 233.007993 
L 132.264675 233.147949 
L 132.54272 233.44003 
L 133.09881 234.573988 
L 133.6549 236.518797 
L 134.21099 239.269573 
L 135.045125 244.696475 
L 136.157306 253.66495 
L 139.215801 280.20733 
L 139.771892 283.162082 
L 140.327982 284.683168 
L 140.606027 284.821838 
L 140.884072 284.519901 
L 141.162117 283.772556 
L 141.718207 280.983471 
L 142.274297 276.645274 
L 143.108433 267.965024 
L 144.776703 247.177196 
L 147.279109 216.444117 
L 148.391289 205.099996 
L 149.225424 198.677806 
L 150.059559 194.280816 
L 150.61565 192.312352 
L 151.449785 190.33746 
L 152.28392 189.10717 
L 152.84001 188.705216 
L 153.118055 188.690303 
L 153.3961 188.8426 
L 153.674145 189.199046 
L 153.95219 189.797607 
L 154.508281 191.851947 
L 155.064371 195.193227 
L 155.620461 199.846731 
L 156.454596 208.872456 
L 158.957002 238.237432 
L 159.791137 245.402253 
L 160.903317 252.909464 
L 162.571588 262.276208 
L 163.683768 267.606864 
L 164.517903 270.60027 
L 165.073993 271.955517 
L 165.630084 272.786338 
L 166.186174 273.167809 
L 166.742264 273.237915 
L 168.132489 273.19172 
L 168.688579 273.483887 
L 169.24467 274.072678 
L 170.078805 275.46435 
L 172.02512 279.118281 
L 172.58121 279.66979 
L 173.137301 279.854912 
L 173.693391 279.679732 
L 174.249481 279.200043 
L 175.083616 278.109537 
L 177.029932 275.371875 
L 178.698202 273.215975 
L 179.254292 272.16815 
L 179.810382 270.744425 
L 180.366473 268.826013 
L 181.200608 264.838948 
L 182.034743 259.438271 
L 183.146923 250.331383 
L 186.483464 220.711522 
L 187.595644 213.434599 
L 188.707825 207.630168 
L 190.65414 197.875353 
L 191.766321 190.70539 
L 194.268726 172.873343 
L 194.824816 170.38988 
L 195.380907 169.024263 
L 195.658952 168.786775 
L 195.936997 168.836827 
L 196.215042 169.150506 
L 196.771132 170.410792 
L 198.161357 174.545869 
L 198.717447 175.326381 
L 198.995493 175.369147 
L 199.273538 175.174769 
L 199.829628 174.17991 
L 200.941808 171.581003 
L 201.219853 171.332288 
L 201.497898 171.436762 
L 201.775943 171.976187 
L 202.053988 173.013727 
L 202.610079 176.71831 
L 203.166169 182.54211 
L 204.000304 194.159629 
L 205.390529 213.74545 
L 205.946619 219.161382 
L 206.50271 222.584939 
L 207.0588 224.182902 
L 207.336845 224.44533 
L 207.61489 224.456728 
L 208.17098 224.072772 
L 208.72707 223.668331 
L 209.005115 223.610824 
L 209.28316 223.699614 
L 209.561205 223.951414 
L 210.117296 224.934275 
L 210.951431 227.296722 
L 213.175791 234.95803 
L 214.287972 239.717294 
L 216.512332 250.344153 
L 217.068422 251.948458 
L 217.624513 252.775936 
L 217.902558 252.893523 
L 218.180603 252.823331 
L 218.458648 252.575387 
L 219.014738 251.585242 
L 219.570828 249.976566 
L 220.126918 247.746703 
L 220.961053 243.09757 
L 221.795189 236.72526 
L 224.575639 212.823011 
L 225.13173 210.975819 
L 225.409775 210.710821 
L 225.68782 210.886258 
L 225.965865 211.481991 
L 226.521955 213.787445 
L 227.35609 219.226861 
L 229.580451 235.201774 
L 230.970676 242.709414 
L 234.585262 260.601025 
L 235.141352 262.091257 
L 235.419397 262.469129 
L 235.697442 262.552777 
L 235.975487 262.308519 
L 236.253533 261.706187 
L 236.809623 259.331569 
L 237.365713 255.306879 
L 237.921803 249.648831 
L 238.755938 238.507573 
L 240.424209 211.263101 
L 241.814434 190.086003 
L 242.648569 180.12344 
L 243.482704 173.001643 
L 244.038795 170.146479 
L 244.31684 169.358854 
L 244.594885 169.02632 
L 244.87293 169.162333 
L 245.150975 169.774435 
L 245.42902 170.858599 
L 245.98511 174.36666 
L 246.819245 182.327506 
L 248.487516 200.272854 
L 249.043606 204.240379 
L 249.599696 206.329086 
L 249.877741 206.615254 
L 250.155786 206.405535 
L 250.433831 205.731553 
L 250.989921 203.186726 
L 251.824057 197.392665 
L 253.214282 187.369766 
L 253.770372 184.55874 
L 254.326462 182.725518 
L 254.882553 181.798623 
L 255.438643 181.55325 
L 256.828868 181.672123 
L 257.106913 181.463175 
L 257.663003 180.54125 
L 258.219093 178.861097 
L 259.053229 175.066524 
L 260.721499 166.545342 
L 261.277589 164.781112 
L 261.833679 163.937865 
L 262.111724 163.851303 
L 262.38977 163.953463 
L 262.94586 164.546967 
L 263.779995 165.521772 
L 264.05804 165.608591 
L 264.336085 165.476691 
L 264.61413 165.078079 
L 264.892175 164.378301 
L 265.448265 162.011996 
L 266.004356 158.418315 
L 267.116536 148.90793 
L 267.950671 141.941087 
L 268.506761 138.518387 
L 269.062851 136.640085 
L 269.340896 136.374914 
L 269.618942 136.583348 
L 269.896987 137.263072 
L 270.453077 139.964224 
L 271.009167 144.194862 
L 272.121347 155.230446 
L 273.233527 165.45715 
L 273.789618 168.777262 
L 274.067663 169.812574 
L 274.345708 170.402907 
L 274.623753 170.546377 
L 274.901798 170.262009 
L 275.179843 169.583571 
L 275.735933 167.260719 
L 277.682249 157.125033 
L 277.960294 156.465793 
L 278.238339 156.175511 
L 278.516384 156.279556 
L 278.794429 156.788899 
L 279.072474 157.700539 
L 279.628564 160.665491 
L 280.184654 164.960921 
L 281.01879 173.291067 
L 282.13097 186.693385 
L 284.077285 213.582354 
L 285.467511 231.946113 
L 286.301646 240.177785 
L 286.857736 243.844571 
L 287.413826 245.904568 
L 287.691871 246.350318 
L 287.969916 246.44005 
L 288.247962 246.212419 
L 288.804052 245.002184 
L 290.750367 239.101763 
L 291.028412 238.776171 
L 291.306457 238.689781 
L 291.584502 238.853991 
L 291.862547 239.27043 
L 292.418638 240.807285 
L 293.252773 244.428648 
L 294.642998 250.811843 
L 295.199088 252.280049 
L 295.477133 252.621496 
L 295.755179 252.673176 
L 296.033224 252.428147 
L 296.311269 251.890007 
L 296.867359 250.003049 
L 297.701494 245.616515 
L 300.481945 228.926225 
L 302.150215 220.950724 
L 303.262396 216.269366 
L 304.096531 213.545673 
L 304.930666 211.684254 
L 307.155027 207.894481 
L 308.267207 204.97641 
L 309.101342 202.891645 
L 309.657432 201.866275 
L 310.491567 200.871158 
L 311.047658 200.258542 
L 311.603748 199.275767 
L 312.159838 197.554989 
L 312.715928 194.847237 
L 313.550063 188.913306 
L 316.330514 165.640473 
L 317.164649 160.995539 
L 317.998785 157.626576 
L 318.554875 156.267644 
L 318.83292 155.971534 
L 319.110965 156.007016 
L 319.38901 156.43871 
L 319.667055 157.328838 
L 320.223145 160.702772 
L 320.779235 166.404101 
L 321.335325 174.361518 
L 322.447506 194.72168 
L 323.559686 214.256935 
L 324.115776 221.085708 
L 324.671866 225.040805 
L 324.949911 225.868712 
L 325.227956 225.943789 
L 325.506002 225.305633 
L 325.784047 224.012093 
L 326.340137 219.75703 
L 327.174272 210.510443 
L 329.120587 187.259464 
L 329.676678 182.55788 
L 330.232768 179.365897 
L 330.510813 178.390493 
L 330.788858 177.838212 
L 331.066903 177.701856 
L 331.344948 177.962312 
L 331.622993 178.588213 
L 332.179083 180.767253 
L 333.013219 185.548286 
L 334.681489 195.620293 
L 336.627805 206.19633 
L 337.46194 212.232249 
L 339.6863 230.086579 
L 340.24239 232.891006 
L 340.798481 234.404893 
L 341.076526 234.650008 
L 341.354571 234.558475 
L 341.632616 234.144265 
L 342.188706 232.432144 
L 342.744796 229.728506 
L 343.578931 224.394592 
L 345.525247 211.29764 
L 346.081337 208.785809 
L 346.637427 207.24844 
L 346.915472 206.859341 
L 347.193517 206.707215 
L 347.471562 206.764466 
L 348.027653 207.341429 
L 348.861788 208.543265 
L 349.139833 208.798751 
L 349.417878 208.89414 
L 349.695923 208.793437 
L 349.973968 208.473844 
L 350.530058 207.175076 
L 351.364193 204.014547 
L 352.198329 200.789139 
L 352.754419 199.517625 
L 353.032464 199.31502 
L 353.310509 199.446405 
L 353.588554 199.924294 
L 354.144644 201.892929 
L 354.700734 205.02809 
L 355.53487 211.175083 
L 357.20314 225.393223 
L 358.31532 236.35433 
L 359.427501 249.699397 
L 361.095771 270.584757 
L 361.651861 275.672269 
L 362.207951 278.91936 
L 362.485996 279.748896 
L 362.764042 280.024693 
L 363.042087 279.74641 
L 363.320132 278.929816 
L 363.876222 275.809054 
L 364.432312 271.026393 
L 365.544492 258.492177 
L 366.934718 242.645907 
L 367.768853 235.567819 
L 368.324943 232.386035 
L 368.881033 230.529244 
L 369.159078 230.088208 
L 369.437123 229.955708 
L 369.715168 230.113062 
L 369.993213 230.537386 
L 370.549304 232.090182 
L 371.105394 234.408664 
L 371.939529 238.927697 
L 373.051709 246.327434 
L 374.16389 255.133842 
L 375.554115 268.143204 
L 377.778476 289.636809 
L 378.612611 295.454739 
L 379.168701 297.996439 
L 379.724791 299.284665 
L 380.002836 299.438633 
L 380.280881 299.269495 
L 380.558926 298.789978 
L 381.115016 296.990823 
L 381.949152 292.731775 
L 383.339377 284.80804 
L 383.895467 282.58589 
L 384.451557 281.412508 
L 384.729602 281.279752 
L 385.007648 281.465731 
L 385.285693 281.972159 
L 385.841783 283.91714 
L 386.397873 286.993593 
L 387.232008 293.260144 
L 389.456369 311.945723 
L 390.012459 314.903218 
L 390.290504 315.844555 
L 390.568549 316.376867 
L 390.846594 316.472727 
L 391.124639 316.11791 
L 391.402684 315.311472 
L 391.958774 312.41637 
L 392.514865 308.088244 
L 394.739225 288.513993 
L 395.295315 286.132862 
L 395.57336 285.562069 
L 395.851405 285.397602 
L 396.12945 285.613834 
L 396.407496 286.1704 
L 396.963586 288.09027 
L 398.909901 296.682287 
L 399.465991 297.870324 
L 399.744036 298.067145 
L 400.022082 297.969142 
L 400.300127 297.559645 
L 400.578172 296.823999 
L 401.134262 294.335994 
L 401.690352 290.46943 
L 402.524487 282.250442 
L 403.914713 264.674309 
L 404.748848 254.927722 
L 405.304938 250.173515 
L 405.861028 247.425225 
L 406.139073 246.8864 
L 406.417118 246.91014 
L 406.695163 247.474419 
L 406.973208 248.540499 
L 407.529299 251.940916 
L 408.363434 259.080368 
L 409.753659 271.397837 
L 410.587794 276.948668 
L 411.42193 280.766981 
L 411.97802 282.469932 
L 412.53411 283.588891 
L 413.0902 284.166283 
L 413.368245 284.259273 
L 413.64629 284.226534 
L 414.20238 283.811723 
L 414.75847 283.013042 
L 416.704786 279.627109 
L 417.260876 279.124794 
L 417.816966 278.897077 
L 420.319372 278.423559 
L 421.153507 278.171416 
L 421.709597 278.259263 
L 422.265688 278.651876 
L 423.099823 279.728584 
L 424.212003 281.233043 
L 424.768093 281.613228 
L 425.324183 281.647767 
L 426.158319 281.270838 
L 426.436364 281.127797 
L 426.436364 281.127797 
" clip-path="url(#pdca05b7ff2)" style="fill: none; stroke-dasharray: 11.1,4.8; stroke-dashoffset: 0; stroke: #000000; stroke-width: 3"/>
   </g>
   <g id="line2d_2">
    <path d="M 27.163636 193.617719 
L 27.441681 173.221732 
L 27.719727 210.342976 
L 27.997772 181.393497 
L 28.275817 176.056841 
L 28.553862 217.953033 
L 28.831907 185.003547 
L 29.109952 182.334105 
L 29.387997 173.203992 
L 29.666042 176.650603 
L 29.944087 188.201872 
L 30.222132 187.524549 
L 30.500177 194.165714 
L 30.778222 194.689455 
L 31.056267 217.94052 
L 31.334312 207.497926 
L 31.612358 170.916964 
L 31.890403 156.357976 
L 32.168448 201.038882 
L 32.446493 199.341588 
L 32.724538 181.941835 
L 33.002583 225.090685 
L 33.280628 195.861123 
L 33.558673 190.221073 
L 33.836718 175.947139 
L 34.114763 181.974403 
L 34.392808 154.98276 
L 34.670853 197.749367 
L 34.948898 199.665294 
L 35.226944 214.263792 
L 35.504989 180.357842 
L 35.783034 220.87239 
L 36.061079 207.774323 
L 36.339124 167.573626 
L 36.895214 220.571052 
L 37.173259 181.475688 
L 37.451304 212.601979 
L 37.729349 193.818439 
L 38.007394 232.376093 
L 38.285439 176.02136 
L 38.563484 183.629616 
L 38.84153 110.470349 
L 39.119575 173.462305 
L 39.39762 191.5069 
L 39.675665 196.053444 
L 39.95371 221.012174 
L 40.231755 222.985266 
L 40.787845 187.490524 
L 41.06589 210.955422 
L 41.343935 224.838542 
L 41.62198 205.532804 
L 41.900025 208.403824 
L 42.17807 195.06647 
L 42.456115 205.358053 
L 43.012206 163.251028 
L 43.290251 165.253773 
L 43.568296 168.405132 
L 43.846341 187.778577 
L 44.124386 189.420506 
L 44.402431 219.556224 
L 44.680476 217.696005 
L 45.236566 192.142571 
L 45.514611 235.097386 
L 46.070701 177.84344 
L 46.348747 229.908057 
L 46.626792 183.795369 
L 46.904837 213.098809 
L 47.460927 169.299717 
L 47.738972 159.336469 
L 48.017017 164.711863 
L 48.851152 222.751206 
L 49.685287 176.181113 
L 49.963332 198.999112 
L 50.241378 246.577863 
L 50.519423 225.019551 
L 50.797468 222.32234 
L 51.075513 211.955338 
L 51.353558 234.368897 
L 51.631603 211.427997 
L 52.187693 140.124663 
L 52.743783 181.700834 
L 53.021828 195.583783 
L 53.299873 188.960615 
L 53.577918 224.39982 
L 53.855964 190.413994 
L 54.134009 181.193548 
L 54.690099 223.637735 
L 54.968144 236.985373 
L 55.246189 234.368382 
L 55.524234 191.3798 
L 55.802279 231.261933 
L 56.358369 212.854208 
L 56.636414 160.896207 
L 56.914459 175.559497 
L 57.47055 217.688206 
L 57.748595 237.610417 
L 58.304685 227.277268 
L 58.58273 216.018337 
L 58.860775 226.195418 
L 59.13882 257.7852 
L 59.416865 242.289632 
L 59.69491 205.855739 
L 59.972955 195.049672 
L 60.251 194.73685 
L 60.529045 178.522049 
L 60.80709 191.019755 
L 61.085135 173.107831 
L 61.363181 180.832646 
L 61.641226 205.800631 
L 61.919271 211.337836 
L 62.197316 241.274804 
L 62.475361 235.64821 
L 62.753406 237.008085 
L 63.031451 223.371451 
L 63.309496 227.484501 
L 63.587541 218.273825 
L 63.865586 230.945425 
L 64.143631 209.129399 
L 64.421676 201.030998 
L 64.699721 203.9273 
L 64.977767 194.091066 
L 65.255812 218.660439 
L 65.533857 169.820202 
L 65.811902 179.231769 
L 66.646037 228.478932 
L 66.924082 245.043751 
L 67.202127 187.431559 
L 67.758217 250.731109 
L 68.036262 224.156505 
L 68.314307 230.678884 
L 68.592352 245.761527 
L 68.870398 186.977667 
L 69.148443 209.473417 
L 69.426488 192.187652 
L 69.704533 198.268738 
L 69.982578 137.636658 
L 70.260623 183.196979 
L 70.538668 192.985562 
L 70.816713 214.747251 
L 71.372803 236.770426 
L 71.650848 229.948081 
L 71.928893 191.775412 
L 72.206938 246.201106 
L 72.484984 234.716086 
L 72.763029 234.262194 
L 73.041074 234.035077 
L 73.319119 217.532052 
L 73.597164 238.205464 
L 74.153254 187.497037 
L 74.431299 153.069318 
L 75.543479 227.012269 
L 75.821524 230.675456 
L 76.09957 232.54853 
L 76.65566 257.873133 
L 76.933705 240.567912 
L 77.21175 239.132617 
L 77.489795 230.739991 
L 77.76784 191.1274 
L 78.045885 237.479118 
L 78.601975 153.468359 
L 80.270246 223.742466 
L 80.548291 246.202648 
L 80.826336 223.712298 
L 81.104381 221.978836 
L 81.382426 214.246308 
L 81.660471 213.075754 
L 81.938516 228.178537 
L 82.216561 205.012234 
L 82.494606 222.949527 
L 82.772651 219.94738 
L 83.050696 180.784823 
L 83.328741 171.328689 
L 83.606787 177.412003 
L 83.884832 190.892826 
L 84.162877 190.00964 
L 84.718967 241.124221 
L 84.997012 214.896292 
L 85.275057 211.601292 
L 85.553102 243.824174 
L 85.831147 236.181035 
L 86.109192 238.828108 
L 86.387237 242.683531 
L 86.665282 225.526922 
L 86.943327 221.891332 
L 87.221372 194.228279 
L 87.499418 211.70808 
L 87.777463 156.105062 
L 88.055508 165.556739 
L 88.333553 190.133569 
L 88.611598 202.693153 
L 88.889643 223.615195 
L 89.167688 225.953817 
L 89.445733 246.978018 
L 89.723778 211.109861 
L 90.001823 227.251985 
L 90.279868 263.595545 
L 90.557913 235.321846 
L 90.835958 218.798338 
L 91.114004 211.538127 
L 91.392049 232.253707 
L 91.670094 244.624655 
L 92.226184 225.01578 
L 92.504229 225.502925 
L 92.782274 206.652021 
L 93.060319 226.141853 
L 93.338364 232.669117 
L 93.616409 235.286193 
L 93.894454 244.288864 
L 94.172499 249.35435 
L 95.006635 236.739315 
L 95.28468 213.095552 
L 95.562725 199.745685 
L 95.84077 242.247294 
L 96.118815 236.985116 
L 96.39686 203.825225 
L 96.674905 194.365749 
L 96.95295 209.965276 
L 97.230995 214.400062 
L 97.50904 222.052542 
L 97.787085 214.898263 
L 98.06513 211.354034 
L 98.621221 230.156172 
L 98.899266 227.345574 
L 99.177311 230.036785 
L 99.455356 229.749846 
L 99.733401 241.15636 
L 100.011446 215.771422 
L 100.289491 237.413296 
L 100.567536 242.605968 
L 100.845581 230.14923 
L 101.123626 157.4178 
L 101.401671 191.445621 
L 101.679716 199.983601 
L 101.957761 190.975017 
L 102.235807 219.496745 
L 102.513852 223.754208 
L 102.791897 247.122173 
L 103.069942 243.947417 
L 103.347987 230.707852 
L 103.626032 224.975927 
L 104.182122 239.918271 
L 104.460167 240.553171 
L 104.738212 234.953059 
L 105.016257 193.215421 
L 105.294302 197.732398 
L 105.572347 182.423409 
L 105.850393 176.004819 
L 106.128438 190.710789 
L 106.406483 194.442797 
L 106.684528 208.614828 
L 106.962573 212.260103 
L 107.240618 233.852955 
L 107.518663 238.47312 
L 107.796708 226.040464 
L 108.074753 222.011575 
L 108.908888 231.495478 
L 109.186933 212.128461 
L 109.743024 195.743622 
L 110.021069 204.160845 
L 110.577159 198.018909 
L 110.855204 204.459954 
L 111.133249 208.235843 
L 111.411294 200.085333 
L 111.689339 216.758482 
L 111.967384 226.705189 
L 112.245429 226.578775 
L 112.523474 217.026994 
L 112.801519 233.370095 
L 113.079564 205.697614 
L 113.35761 209.531611 
L 113.635655 203.978208 
L 114.191745 183.871732 
L 114.46979 153.707046 
L 114.747835 192.75853 
L 115.02588 208.996214 
L 115.303925 201.441694 
L 115.58197 198.851272 
L 115.860015 197.623553 
L 116.13806 205.537175 
L 116.416105 217.070447 
L 116.69415 214.769877 
L 116.972195 217.450118 
L 117.250241 217.929378 
L 117.528286 207.926877 
L 117.806331 209.259327 
L 118.084376 195.403546 
L 118.362421 187.989668 
L 118.640466 184.376189 
L 119.196556 182.193464 
L 119.752646 200.953263 
L 120.030691 203.177556 
L 120.308736 181.624557 
L 120.586781 206.872796 
L 121.142872 226.599087 
L 121.420917 208.53418 
L 121.977007 225.868798 
L 122.255052 211.964337 
L 122.533097 206.499895 
L 122.811142 205.417789 
L 123.089187 211.802012 
L 123.367232 190.648225 
L 123.645277 196.473397 
L 123.923322 196.64892 
L 124.201367 197.264279 
L 124.479413 192.59852 
L 124.757458 193.190481 
L 125.035503 234.226113 
L 125.313548 246.951878 
L 125.591593 234.522222 
L 125.869638 235.015967 
L 126.147683 226.246841 
L 126.425728 192.507073 
L 126.703773 184.053426 
L 126.981818 212.394659 
L 127.537908 183.756545 
L 127.815953 202.739091 
L 128.093998 211.924055 
L 128.372044 225.02555 
L 128.650089 193.238647 
L 128.928134 194.468423 
L 129.206179 197.201029 
L 129.484224 226.596944 
L 129.762269 229.457422 
L 130.040314 218.997429 
L 130.318359 227.841718 
L 130.596404 229.831094 
L 131.152494 184.702295 
L 131.430539 201.05928 
L 131.708584 192.326236 
L 132.264675 212.874777 
L 132.54272 201.710807 
L 132.820765 223.372908 
L 133.09881 222.112107 
L 133.376855 205.934588 
L 133.6549 203.839281 
L 133.932945 221.122476 
L 134.21099 219.505229 
L 134.489035 206.306117 
L 134.76708 202.854963 
L 135.045125 223.914818 
L 135.32317 210.233617 
L 135.601215 183.315166 
L 135.879261 201.342448 
L 136.157306 193.520616 
L 136.435351 175.303583 
L 136.713396 215.978741 
L 136.991441 209.608402 
L 137.269486 207.067346 
L 137.547531 212.115948 
L 138.103621 191.712505 
L 138.381666 211.344264 
L 138.659711 217.365528 
L 138.937756 201.388643 
L 139.215801 193.976307 
L 139.493847 228.382857 
L 139.771892 221.81694 
L 140.049937 195.144633 
L 140.327982 201.270713 
L 140.606027 154.913596 
L 140.884072 199.486857 
L 141.162117 223.826028 
L 141.440162 210.968192 
L 141.718207 220.28077 
L 141.996252 200.653726 
L 142.274297 200.79231 
L 142.552342 198.619098 
L 142.830387 213.139518 
L 143.108433 193.352377 
L 143.386478 211.350777 
L 143.664523 211.658542 
L 143.942568 220.462464 
L 144.220613 219.435209 
L 144.498658 190.916309 
L 144.776703 200.626129 
L 145.054748 187.023948 
L 145.332793 184.479378 
L 145.610838 220.574052 
L 145.888883 216.366983 
L 146.166928 215.911549 
L 146.444973 214.582441 
L 146.723018 191.261785 
L 147.001064 184.724836 
L 147.279109 211.747761 
L 147.557154 213.840839 
L 147.835199 206.986955 
L 148.113244 207.140023 
L 148.391289 213.861323 
L 148.669334 202.323595 
L 148.947379 157.23542 
L 149.225424 199.918637 
L 149.503469 178.262878 
L 149.781514 189.600572 
L 150.059559 206.44513 
L 150.337604 210.350261 
L 150.61565 222.276574 
L 150.893695 201.670011 
L 151.17174 200.231888 
L 151.449785 192.209078 
L 151.72783 204.049172 
L 152.005875 210.681081 
L 152.28392 205.799946 
L 152.84001 227.161823 
L 153.3961 186.196213 
L 153.674145 191.148226 
L 153.95219 190.742843 
L 154.508281 215.55956 
L 154.786326 221.369219 
L 155.064371 223.227553 
L 155.342416 214.649805 
L 155.620461 183.971749 
L 155.898506 179.984427 
L 156.176551 198.873212 
L 156.454596 201.494231 
L 156.732641 205.912733 
L 157.010686 195.817242 
L 157.288731 219.824565 
L 157.844821 191.286039 
L 158.122867 198.166235 
L 158.400912 183.390586 
L 158.957002 205.255721 
L 159.235047 226.653424 
L 159.513092 230.724907 
L 159.791137 216.106441 
L 160.069182 193.223906 
L 160.347227 201.761201 
L 160.625272 199.935864 
L 160.903317 183.913813 
L 161.181362 213.8123 
L 161.459407 218.165923 
L 161.737453 229.758074 
L 162.015498 218.465118 
L 162.293543 183.818766 
L 162.571588 196.53519 
L 162.849633 203.035972 
L 163.127678 218.094446 
L 163.405723 222.070712 
L 163.961813 247.419568 
L 164.517903 181.254741 
L 164.795948 177.963769 
L 165.073993 205.867738 
L 165.352038 221.795943 
L 165.630084 217.709375 
L 165.908129 218.30665 
L 166.186174 224.032748 
L 166.464219 223.695928 
L 166.742264 194.617721 
L 167.020309 192.28784 
L 167.298354 210.239788 
L 167.576399 186.701099 
L 167.854444 209.842976 
L 168.132489 218.455948 
L 168.410534 221.444382 
L 168.688579 217.45766 
L 168.966624 191.205648 
L 169.24467 185.253119 
L 169.522715 199.514711 
L 169.80076 207.717415 
L 170.35685 212.71888 
L 170.634895 227.924337 
L 171.190985 192.335835 
L 171.46903 194.574097 
L 171.747075 211.31581 
L 172.02512 196.63555 
L 172.859256 223.330998 
L 173.137301 219.995717 
L 173.415346 195.560728 
L 173.693391 183.224833 
L 173.971436 203.194268 
L 174.249481 194.436112 
L 174.527526 199.426778 
L 174.805571 217.467173 
L 175.361661 228.348747 
L 175.639706 182.34079 
L 175.917751 198.655008 
L 176.195796 168.343168 
L 176.473841 199.28228 
L 177.029932 222.410273 
L 177.307977 225.119654 
L 177.586022 225.158478 
L 177.864067 221.662415 
L 178.420157 195.19537 
L 178.698202 188.789292 
L 179.254292 218.479945 
L 179.532337 211.047726 
L 179.810382 208.672336 
L 180.366473 195.785532 
L 180.644518 206.451986 
L 180.922563 198.602814 
L 181.200608 202.095106 
L 181.478653 211.480105 
L 182.034743 217.303392 
L 182.312788 189.901995 
L 182.590833 182.276255 
L 182.868878 195.459426 
L 183.146923 182.609303 
L 183.703013 207.686133 
L 183.981058 228.555638 
L 184.537149 216.086472 
L 184.815194 196.168289 
L 185.093239 196.02919 
L 185.371284 211.830637 
L 185.649329 216.463572 
L 186.205419 217.803907 
L 186.483464 215.987826 
L 186.761509 189.291178 
L 187.039554 184.079908 
L 187.317599 186.350995 
L 187.595644 180.802992 
L 187.87369 187.742667 
L 188.42978 229.839664 
L 188.707825 211.416513 
L 188.98587 212.417371 
L 189.263915 184.035171 
L 189.54196 211.810668 
L 189.820005 220.856191 
L 190.09805 215.35944 
L 190.376095 218.538824 
L 190.65414 229.711022 
L 190.932185 227.554693 
L 191.488276 173.933938 
L 191.766321 178.661233 
L 192.044366 180.915351 
L 192.322411 191.457877 
L 192.878501 225.528636 
L 193.156546 226.496927 
L 193.434591 213.173972 
L 193.712636 192.324522 
L 193.990681 229.85072 
L 194.268726 195.751078 
L 194.546771 213.645776 
L 194.824816 217.313419 
L 195.102861 217.271424 
L 195.380907 213.081154 
L 195.936997 190.144025 
L 196.215042 190.423079 
L 196.493087 185.073911 
L 197.049177 205.62228 
L 197.327222 223.922103 
L 197.605267 227.385427 
L 198.161357 197.467571 
L 198.439402 174.824666 
L 198.717447 204.893534 
L 198.995493 217.38104 
L 199.273538 215.577986 
L 199.551583 232.968569 
L 199.829628 223.710498 
L 200.107673 227.633113 
L 200.385718 195.566471 
L 200.663763 188.735469 
L 200.941808 186.942014 
L 201.497898 204.235665 
L 201.775943 221.459809 
L 202.053988 219.248115 
L 202.332033 210.209106 
L 202.610079 208.813235 
L 202.888124 193.022757 
L 203.444214 234.848671 
L 203.722259 228.690537 
L 204.000304 240.669558 
L 204.556394 219.058365 
L 204.834439 196.221083 
L 205.112484 198.807391 
L 205.390529 181.090188 
L 205.668574 184.653787 
L 206.224664 224.037376 
L 206.50271 213.478223 
L 206.780755 209.471446 
L 207.0588 218.950549 
L 207.336845 191.1268 
L 208.17098 235.412693 
L 208.449025 242.089855 
L 209.005115 224.326886 
L 209.28316 197.363011 
L 209.561205 184.337708 
L 209.83925 180.473029 
L 210.117296 190.511698 
L 210.395341 209.855146 
L 210.673386 208.046607 
L 210.951431 229.179996 
L 211.229476 240.276259 
L 211.507521 223.261149 
L 211.785566 186.053429 
L 212.063611 213.104294 
L 212.341656 216.94866 
L 212.619701 217.959632 
L 212.897746 210.240045 
L 213.175791 208.34503 
L 213.453836 213.224966 
L 213.731881 210.744503 
L 214.009927 170.936076 
L 214.566017 186.236751 
L 214.844062 202.103677 
L 215.122107 226.58066 
L 215.678197 212.295414 
L 216.234287 238.415612 
L 216.512332 214.009763 
L 216.790377 227.007469 
L 217.068422 233.547846 
L 217.346467 235.287907 
L 217.624513 231.508162 
L 217.902558 218.986888 
L 218.180603 213.97651 
L 218.458648 189.562176 
L 218.736693 180.817048 
L 219.570828 218.816507 
L 219.848873 227.035152 
L 220.126918 242.273177 
L 220.404963 214.812044 
L 220.683008 231.405316 
L 220.961053 210.768243 
L 221.239099 219.278712 
L 221.517144 210.845034 
L 221.795189 215.068472 
L 222.073234 209.860545 
L 222.629324 217.856444 
L 222.907369 180.115984 
L 223.185414 176.145974 
L 223.463459 179.160463 
L 223.741504 196.651063 
L 224.019549 221.440354 
L 224.297594 220.258402 
L 224.575639 224.823544 
L 224.853684 233.29776 
L 225.13173 206.495953 
L 225.409775 192.733419 
L 225.68782 192.198536 
L 225.965865 229.753531 
L 226.24391 224.563516 
L 226.521955 238.15627 
L 227.078045 220.740233 
L 227.35609 169.910877 
L 227.634135 179.937804 
L 227.91218 182.014855 
L 228.46827 216.489626 
L 228.746316 235.404637 
L 229.024361 228.041838 
L 229.302406 241.17453 
L 229.858496 193.864377 
L 230.136541 202.69821 
L 230.414586 205.566829 
L 230.970676 231.117777 
L 231.248721 217.098901 
L 231.526766 228.095318 
L 231.804811 179.713601 
L 232.082856 181.497885 
L 232.360901 180.407122 
L 232.638947 189.125254 
L 232.916992 212.162143 
L 233.195037 218.69712 
L 233.473082 210.181852 
L 233.751127 224.498209 
L 234.307217 190.837461 
L 234.585262 202.172755 
L 234.863307 189.36077 
L 235.141352 210.143199 
L 235.419397 202.541199 
L 235.697442 233.667233 
L 236.253533 199.261111 
L 236.531578 190.568263 
L 236.809623 192.062866 
L 237.087668 198.143523 
L 237.365713 226.350029 
L 237.643758 208.929707 
L 237.921803 212.444197 
L 238.199848 238.907814 
L 238.477893 188.297347 
L 238.755938 189.530637 
L 239.033983 204.761806 
L 239.312028 198.831474 
L 239.590073 228.339405 
L 239.868119 229.391429 
L 240.146164 226.646824 
L 240.424209 221.775031 
L 240.980299 183.095077 
L 241.258344 185.878334 
L 241.536389 193.279528 
L 241.814434 220.037541 
L 242.092479 218.327048 
L 242.370524 219.390214 
L 242.648569 239.60005 
L 242.926614 207.102142 
L 243.204659 194.675657 
L 243.482704 196.727597 
L 244.038795 207.807148 
L 244.31684 230.201509 
L 244.594885 234.179147 
L 244.87293 226.664051 
L 245.150975 184.481863 
L 245.42902 187.1987 
L 245.707065 187.27592 
L 245.98511 197.363097 
L 246.263155 231.225251 
L 246.5412 224.162761 
L 246.819245 242.062172 
L 247.09729 226.620856 
L 247.375336 229.809154 
L 247.653381 202.901244 
L 248.209471 230.822439 
L 248.487516 234.230912 
L 248.765561 230.04287 
L 249.043606 210.009414 
L 249.321651 212.730193 
L 249.599696 185.833339 
L 249.877741 192.68251 
L 250.155786 191.305751 
L 250.433831 200.321106 
L 250.711876 227.337004 
L 250.989921 196.9548 
L 251.546012 237.865217 
L 251.824057 237.87293 
L 252.102102 212.264303 
L 252.658192 230.948254 
L 252.936237 231.093866 
L 253.214282 229.464107 
L 253.492327 215.036847 
L 253.770372 212.950025 
L 254.048417 190.31672 
L 254.326462 195.005791 
L 254.604507 195.893348 
L 254.882553 210.136343 
L 255.160598 230.47405 
L 255.438643 221.164128 
L 255.716688 225.345228 
L 255.994733 224.288919 
L 256.272778 235.590273 
L 256.550823 188.498753 
L 256.828868 187.357082 
L 257.106913 223.713841 
L 257.384958 223.924674 
L 257.663003 210.064351 
L 257.941048 228.048352 
L 258.219093 215.702429 
L 258.497139 186.79923 
L 259.053229 180.238113 
L 259.331274 187.624223 
L 259.609319 219.337934 
L 259.887364 225.784293 
L 260.165409 204.098109 
L 260.443454 238.115474 
L 260.721499 213.187427 
L 260.999544 172.315149 
L 261.277589 170.185817 
L 261.555634 194.435598 
L 261.833679 201.0064 
L 262.111724 224.287805 
L 262.38977 233.588899 
L 262.667815 215.136436 
L 262.94586 186.99558 
L 263.223905 193.887346 
L 263.50195 190.627827 
L 263.779995 189.277465 
L 264.05804 218.959291 
L 264.336085 220.925612 
L 264.892175 234.472256 
L 265.17022 214.739452 
L 265.448265 185.901046 
L 265.72631 200.742602 
L 266.004356 189.161764 
L 266.282401 216.932719 
L 266.560446 195.508192 
L 266.838491 227.872058 
L 267.116536 215.567616 
L 267.394581 192.876374 
L 267.672626 198.622783 
L 267.950671 194.020274 
L 268.228716 194.662116 
L 268.506761 217.85173 
L 268.784806 218.138326 
L 269.062851 192.397114 
L 269.340896 202.769259 
L 269.618942 196.55833 
L 269.896987 170.521351 
L 270.175032 178.089327 
L 270.731122 201.998517 
L 271.009167 205.712956 
L 271.287212 227.895026 
L 271.565257 238.135958 
L 271.843302 201.769514 
L 272.121347 202.062367 
L 272.677437 193.910143 
L 272.955482 222.121363 
L 273.233527 190.208732 
L 273.789618 230.276501 
L 274.067663 203.747491 
L 274.345708 192.257072 
L 274.623753 203.798657 
L 274.901798 184.467036 
L 275.179843 208.757269 
L 275.457888 187.135278 
L 275.735933 226.689762 
L 276.013978 233.09584 
L 276.292023 190.701019 
L 276.570068 215.55476 
L 276.848113 207.178933 
L 277.126159 218.417209 
L 277.404204 222.362364 
L 277.682249 202.285885 
L 277.960294 198.998255 
L 278.238339 226.988443 
L 278.516384 188.734612 
L 278.794429 184.219093 
L 279.072474 204.130762 
L 279.350519 211.199251 
L 279.628564 210.621688 
L 279.906609 183.891358 
L 280.184654 228.942423 
L 280.462699 214.385835 
L 280.740744 189.176505 
L 281.01879 207.765496 
L 281.296835 207.721701 
L 281.57488 206.361997 
L 281.852925 219.05228 
L 282.13097 225.222585 
L 282.409015 213.304414 
L 282.68706 225.514323 
L 282.965105 218.291995 
L 283.24315 192.206249 
L 283.521195 207.032635 
L 283.79924 202.89713 
L 284.077285 195.96414 
L 284.35533 219.833135 
L 284.633376 228.596176 
L 285.189466 202.670956 
L 285.745556 215.062044 
L 286.023601 210.309466 
L 286.301646 217.561791 
L 286.579691 199.009397 
L 286.857736 207.953446 
L 287.135781 222.466838 
L 287.413826 221.129846 
L 287.691871 206.224784 
L 287.969916 230.732107 
L 288.247962 225.620254 
L 288.526007 227.732616 
L 288.804052 223.586998 
L 289.082097 231.841896 
L 289.360142 197.045304 
L 289.638187 199.866186 
L 289.916232 209.759842 
L 290.194277 210.938109 
L 290.472322 207.24364 
L 290.750367 236.976803 
L 291.028412 215.577044 
L 291.306457 217.962975 
L 291.584502 224.778549 
L 291.862547 220.859362 
L 292.140593 190.162451 
L 292.418638 197.393179 
L 292.696683 191.667082 
L 292.974728 213.46331 
L 293.252773 214.310415 
L 293.530818 234.242397 
L 293.808863 197.969971 
L 294.086908 201.044196 
L 294.364953 205.72444 
L 294.642998 196.606925 
L 294.921043 229.094206 
L 295.199088 216.457401 
L 295.477133 220.219749 
L 295.755179 200.599903 
L 296.311269 215.061273 
L 296.589314 185.802743 
L 296.867359 180.566962 
L 297.423449 200.775084 
L 297.701494 202.257088 
L 297.979539 232.06747 
L 298.535629 196.576328 
L 298.813674 209.326605 
L 299.091719 202.609934 
L 299.369764 231.596352 
L 299.64781 221.053398 
L 299.925855 218.15941 
L 300.2039 218.46349 
L 300.481945 228.619402 
L 300.75999 216.657436 
L 301.038035 181.946892 
L 301.594125 213.861666 
L 301.87217 217.386183 
L 302.150215 210.12563 
L 302.42826 224.77135 
L 302.706305 198.781508 
L 302.98435 201.44975 
L 303.262396 208.990729 
L 303.540441 201.454293 
L 303.818486 224.993668 
L 304.096531 219.130015 
L 304.374576 204.186985 
L 304.652621 166.323539 
L 304.930666 175.248818 
L 305.208711 218.214603 
L 305.486756 195.871236 
L 305.764801 191.232302 
L 306.320891 204.484551 
L 306.598936 201.583792 
L 306.876982 225.056232 
L 307.155027 217.310334 
L 307.433072 194.932085 
L 307.711117 207.992356 
L 307.989162 200.048308 
L 308.267207 216.86347 
L 308.545252 218.507285 
L 308.823297 201.49226 
L 309.101342 195.826413 
L 309.379387 184.068938 
L 309.657432 202.450609 
L 309.935477 183.842678 
L 310.213522 205.03666 
L 310.491567 212.311012 
L 310.769613 212.544043 
L 311.047658 200.241915 
L 311.325703 225.231412 
L 311.603748 225.160878 
L 311.881793 207.504696 
L 312.437883 229.687367 
L 312.993973 236.17375 
L 313.272018 203.93827 
L 313.550063 202.062881 
L 313.828108 203.079595 
L 314.106153 200.418038 
L 314.384199 191.197763 
L 314.662244 206.832515 
L 314.940289 211.432025 
L 315.218334 207.025865 
L 315.496379 210.235417 
L 315.774424 196.461056 
L 316.052469 225.553833 
L 316.330514 190.644883 
L 316.608559 199.502713 
L 317.164649 234.505081 
L 317.442694 233.013735 
L 317.720739 200.45352 
L 317.998785 210.108489 
L 318.27683 225.317031 
L 318.554875 226.215302 
L 318.83292 203.057826 
L 319.38901 221.338965 
L 319.667055 217.694891 
L 319.9451 203.146016 
L 320.223145 224.35054 
L 320.50119 201.840221 
L 320.779235 201.063737 
L 321.05728 204.484637 
L 321.61337 222.921844 
L 321.891416 241.195784 
L 322.169461 193.162885 
L 322.447506 171.066604 
L 322.725551 224.753609 
L 323.003596 229.013386 
L 323.281641 223.47044 
L 323.559686 197.524821 
L 323.837731 202.107705 
L 324.115776 211.775786 
L 324.393821 229.382687 
L 324.671866 223.25155 
L 324.949911 203.442297 
L 325.227956 211.047554 
L 325.784047 206.145507 
L 326.062092 238.45675 
L 326.618182 212.941198 
L 326.896227 218.007284 
L 327.174272 227.38097 
L 327.452317 226.778124 
L 327.730362 196.303102 
L 328.008407 196.148319 
L 328.286452 178.597983 
L 328.564497 196.12038 
L 328.842542 222.224551 
L 329.120587 222.871193 
L 329.398633 212.773645 
L 329.676678 208.910252 
L 329.954723 210.370145 
L 330.232768 235.641782 
L 330.510813 226.409337 
L 330.788858 227.022382 
L 331.066903 230.182483 
L 331.344948 226.96256 
L 331.622993 231.354408 
L 331.901038 231.283445 
L 332.457128 182.474832 
L 332.735173 191.511613 
L 333.013219 189.93302 
L 333.569309 219.333306 
L 333.847354 217.903667 
L 334.125399 207.063403 
L 334.403444 207.369197 
L 334.681489 225.19096 
L 334.959534 227.808893 
L 335.237579 236.791338 
L 336.071714 228.872916 
L 336.349759 233.130808 
L 336.627805 204.944785 
L 336.90585 194.643603 
L 337.183895 196.53339 
L 337.46194 206.99124 
L 337.739985 209.715361 
L 338.01803 219.700722 
L 338.296075 213.620578 
L 338.57412 198.182004 
L 338.852165 204.556286 
L 339.13021 214.183229 
L 339.408255 216.720515 
L 339.6863 250.886063 
L 339.964345 203.64396 
L 340.24239 192.782356 
L 340.520436 190.098773 
L 340.798481 226.201417 
L 341.076526 215.329529 
L 341.354571 209.477703 
L 341.632616 185.060969 
L 341.910661 203.994064 
L 342.188706 205.249893 
L 342.466751 221.968723 
L 342.744796 224.54389 
L 343.022841 213.189398 
L 343.300886 214.49648 
L 343.578931 234.190631 
L 343.856976 234.026507 
L 344.135022 249.496449 
L 344.413067 210.011728 
L 344.691112 205.374679 
L 344.969157 198.424891 
L 345.247202 201.721091 
L 345.525247 189.166564 
L 345.803292 198.416835 
L 346.081337 194.413743 
L 346.637427 211.208336 
L 346.915472 234.860584 
L 347.193517 223.075684 
L 347.471562 228.676481 
L 347.749607 227.494443 
L 348.027653 223.637478 
L 348.305698 227.53001 
L 348.583743 221.748805 
L 348.861788 194.710539 
L 349.139833 204.926701 
L 349.417878 223.560258 
L 349.695923 234.347128 
L 349.973968 207.511553 
L 350.252013 200.481888 
L 350.530058 210.042153 
L 350.808103 209.652797 
L 351.086148 205.942558 
L 351.364193 228.084348 
L 351.642239 223.823285 
L 351.920284 216.758996 
L 352.198329 244.466273 
L 352.476374 225.798177 
L 352.754419 251.950515 
L 353.032464 200.777312 
L 353.588554 229.170997 
L 353.866599 231.934714 
L 354.144644 220.233204 
L 354.422689 195.113008 
L 354.700734 206.770893 
L 354.978779 209.067349 
L 355.256825 212.895689 
L 355.53487 222.489207 
L 355.812915 216.932548 
L 356.09096 219.162411 
L 356.369005 218.54011 
L 356.64705 224.824401 
L 356.925095 244.686191 
L 357.20314 228.596176 
L 357.481185 230.070467 
L 357.75923 215.956029 
L 358.037275 226.93025 
L 358.31532 231.149574 
L 358.593365 221.409672 
L 358.87141 222.080396 
L 359.149456 233.549475 
L 359.427501 237.26897 
L 359.705546 234.099956 
L 359.983591 238.889816 
L 360.261636 221.810769 
L 360.539681 223.002235 
L 360.817726 221.802285 
L 361.095771 222.182813 
L 361.373816 239.548541 
L 361.651861 230.819097 
L 361.929906 257.343136 
L 362.207951 231.463767 
L 362.485996 237.843191 
L 362.764042 219.426981 
L 363.042087 218.388241 
L 363.320132 210.674482 
L 363.876222 177.101666 
L 364.154267 189.593887 
L 364.432312 219.904527 
L 364.710357 220.708094 
L 364.988402 225.800491 
L 365.266447 226.299892 
L 365.544492 245.209675 
L 365.822537 224.712214 
L 366.100582 232.087354 
L 366.378628 233.284647 
L 366.656673 239.044427 
L 366.934718 224.459299 
L 367.212763 225.0888 
L 367.490808 219.167982 
L 367.768853 219.557423 
L 368.046898 215.453543 
L 368.324943 204.918045 
L 368.602988 211.23679 
L 368.881033 204.042572 
L 369.159078 228.782498 
L 369.437123 230.615548 
L 369.715168 222.338196 
L 369.993213 240.836168 
L 370.271259 228.141427 
L 370.549304 231.141261 
L 370.827349 246.520784 
L 371.105394 241.187385 
L 371.383439 229.134487 
L 371.939529 222.988522 
L 372.217574 215.085699 
L 372.495619 198.909208 
L 372.773664 213.372464 
L 373.051709 212.86235 
L 373.329754 201.903299 
L 373.607799 229.0193 
L 373.885845 222.380362 
L 374.16389 220.523486 
L 374.441935 221.509946 
L 374.71998 249.132804 
L 374.998025 232.168773 
L 375.27607 245.755785 
L 375.554115 210.2595 
L 376.110205 228.146227 
L 376.38825 226.517153 
L 376.666295 223.247865 
L 376.94434 238.979291 
L 377.222385 242.065515 
L 377.50043 238.394357 
L 377.778476 228.532412 
L 378.056521 227.314378 
L 378.334566 229.443023 
L 378.612611 222.210239 
L 378.890656 239.204352 
L 379.168701 231.034215 
L 379.446746 232.578699 
L 379.724791 237.167153 
L 380.002836 216.512938 
L 380.280881 209.157596 
L 380.558926 228.443622 
L 380.836971 219.836221 
L 381.115016 205.13085 
L 381.393062 200.56665 
L 381.671107 210.262414 
L 381.949152 215.863126 
L 382.227197 228.551781 
L 382.505242 223.840255 
L 382.783287 246.540925 
L 383.061332 238.008601 
L 383.339377 225.555719 
L 383.617422 246.392398 
L 383.895467 227.217789 
L 384.173512 237.406097 
L 384.451557 201.040682 
L 384.729602 237.665954 
L 385.007648 235.768967 
L 385.285693 226.217701 
L 385.563738 204.937243 
L 385.841783 209.675595 
L 386.119828 221.479178 
L 386.397873 222.013547 
L 386.675918 221.86742 
L 386.953963 240.719095 
L 387.232008 227.896398 
L 387.510053 245.082318 
L 387.788098 228.136114 
L 388.066143 245.894455 
L 388.344188 253.632382 
L 388.622233 234.49274 
L 388.900279 223.562915 
L 389.178324 250.615837 
L 389.456369 235.228257 
L 389.734414 231.173657 
L 390.012459 230.942254 
L 390.290504 215.003337 
L 390.568549 215.749653 
L 390.846594 214.387035 
L 391.124639 224.516807 
L 391.402684 217.056905 
L 391.958774 228.290896 
L 392.236819 242.299403 
L 392.514865 229.091377 
L 392.79291 243.430275 
L 393.070955 233.971484 
L 393.349 232.445085 
L 393.627045 244.154394 
L 394.183135 219.669525 
L 394.739225 249.032615 
L 395.01727 250.40646 
L 395.295315 256.692466 
L 395.57336 236.343617 
L 395.851405 235.068675 
L 396.12945 227.977046 
L 396.407496 229.911571 
L 396.685541 229.167997 
L 396.963586 231.165086 
L 397.241631 248.164856 
L 397.519676 242.782948 
L 397.797721 254.447348 
L 398.075766 237.716948 
L 398.353811 228.643399 
L 398.631856 214.296102 
L 398.909901 236.484001 
L 399.187946 215.340156 
L 399.465991 205.370308 
L 399.744036 214.758564 
L 400.022082 232.217111 
L 400.300127 223.882936 
L 400.856217 244.160993 
L 401.134262 223.65599 
L 401.412307 235.448775 
L 401.690352 238.093534 
L 401.968397 250.414517 
L 402.246442 240.036286 
L 402.524487 240.45941 
L 402.802532 241.700242 
L 403.080577 236.85116 
L 403.358622 235.979458 
L 403.636668 219.085534 
L 404.192758 228.762186 
L 404.470803 245.638798 
L 404.748848 227.789781 
L 405.026893 233.472598 
L 405.304938 227.208447 
L 405.582983 255.867559 
L 405.861028 230.405915 
L 406.139073 242.721069 
L 406.417118 231.222766 
L 406.695163 235.769653 
L 406.973208 218.715118 
L 407.251253 216.482513 
L 407.529299 218.829277 
L 407.807344 232.624893 
L 408.363434 189.74387 
L 408.641479 197.703258 
L 408.919524 239.459494 
L 409.197569 213.679115 
L 409.475614 233.673489 
L 409.753659 231.095066 
L 410.031704 245.949991 
L 410.309749 231.945427 
L 410.587794 255.653126 
L 410.865839 217.210402 
L 411.143885 220.566167 
L 411.42193 252.728884 
L 411.699975 241.961727 
L 411.97802 220.561367 
L 412.53411 258.712267 
L 412.812155 259.737037 
L 413.0902 248.531929 
L 413.368245 258.468094 
L 413.64629 221.820197 
L 413.924335 234.211972 
L 414.20238 229.710765 
L 414.480425 230.14503 
L 414.75847 252.790592 
L 415.314561 222.544658 
L 415.592606 213.677572 
L 415.870651 264.215275 
L 416.148696 247.952823 
L 416.426741 243.149421 
L 416.704786 243.812175 
L 417.260876 196.524563 
L 417.538921 220.494175 
L 417.816966 210.595634 
L 418.095011 234.599614 
L 418.373056 241.46584 
L 418.651102 230.026158 
L 418.929147 237.816708 
L 419.207192 214.769192 
L 419.485237 203.688012 
L 419.763282 216.279564 
L 420.041327 201.77997 
L 420.319372 245.610344 
L 420.597417 237.157811 
L 420.875462 234.373439 
L 421.153507 227.449962 
L 421.431552 215.351812 
L 421.709597 208.322233 
L 421.987642 212.73165 
L 422.265688 196.132378 
L 422.543733 229.497532 
L 422.821778 233.478768 
L 423.099823 244.672564 
L 423.377868 233.033961 
L 423.933958 198.715601 
L 424.212003 197.045904 
L 424.490048 203.746806 
L 424.768093 232.190799 
L 425.046138 229.127973 
L 425.324183 219.068479 
L 425.602228 226.836574 
L 425.880273 216.874354 
L 426.158319 193.809269 
L 426.436364 196.23351 
L 426.436364 196.23351 
" clip-path="url(#pdca05b7ff2)" style="fill: none; stroke: #ff00ff; stroke-width: 3; stroke-linecap: square"/>
   </g>
   <g id="patch_3">
    <path d="M 7.2 331.2 
L 7.2 7.2 
" style="fill: none; stroke: #000000; stroke-width: 0.8; stroke-linejoin: miter; stroke-linecap: square"/>
   </g>
   <g id="patch_4">
    <path d="M 446.4 331.2 
L 446.4 7.2 
" style="fill: none; stroke: #000000; stroke-width: 0.8; stroke-linejoin: miter; stroke-linecap: square"/>
   </g>
   <g id="patch_5">
    <path d="M 7.2 331.2 
L 446.4 331.2 
" style="fill: none; stroke: #000000; stroke-width: 0.8; stroke-linejoin: miter; stroke-linecap: square"/>
   </g>
   <g id="patch_6">
    <path d="M 7.2 7.2 
L 446.4 7.2 
" style="fill: none; stroke: #000000; stroke-width: 0.8; stroke-linejoin: miter; stroke-linecap: square"/>
   </g>
  </g>
 </g>
 <defs>
  <clipPath id="pdca05b7ff2">
   <rect x="7.2" y="7.2" width="439.2" height="324"/>
  </clipPath>
 </defs>
</svg>
