<?xml version="1.0" encoding="utf-8" standalone="no"?>
<!DOCTYPE svg PUBLIC "-//W3C//DTD SVG 1.1//EN"
  "http://www.w3.org/Graphics/SVG/1.1/DTD/svg11.dtd">
<svg xmlns:xlink="http://www.w3.org/1999/xlink" width="453.6pt" height="338.4pt" viewBox="0 0 453.6 338.4" xmlns="http://www.w3.org/2000/svg" version="1.1">
 <metadata>
  <rdf:RDF xmlns:dc="http://purl.org/dc/elements/1.1/" xmlns:cc="http://creativecommons.org/ns#" xmlns:rdf="http://www.w3.org/1999/02/22-rdf-syntax-ns#">
   <cc:Work>
    <dc:type rdf:resource="http://purl.org/dc/dcmitype/StillImage"/>
    <dc:date>2025-05-15T16:53:24.117610</dc:date>
    <dc:format>image/svg+xml</dc:format>
    <dc:creator>
     <cc:Agent>
      <dc:title>Matplotlib v3.10.1, https://matplotlib.org/</dc:title>
     </cc:Agent>
    </dc:creator>
   </cc:Work>
  </rdf:RDF>
 </metadata>
 <defs>
  <style type="text/css">*{stroke-linejoin: round; stroke-linecap: butt}</style>
 </defs>
 <g id="figure_1">
  <g id="patch_1">
   <path d="M 0 338.4 
L 453.6 338.4 
L 453.6 0 
L 0 0 
z
" style="fill: #ffffff"/>
  </g>
  <g id="axes_1">
   <g id="patch_2">
    <path d="M 7.2 331.2 
L 446.4 331.2 
L 446.4 7.2 
L 7.2 7.2 
z
" style="fill: #ffffff"/>
   </g>
   <g id="matplotlib.axis_1"/>
   <g id="matplotlib.axis_2"/>
   <g id="line2d_1">
    <path d="M 27.163636 311.098473 
L 27.997772 310.336938 
L 28.831907 309.276357 
L 29.666042 307.90059 
L 30.778222 305.567738 
L 31.890403 302.679991 
L 33.002583 299.205975 
L 34.114763 294.968422 
L 35.226944 289.665553 
L 36.339124 283.06458 
L 37.729349 273.209431 
L 39.95371 257.125146 
L 40.787845 252.325175 
L 41.62198 248.66667 
L 42.17807 246.91584 
L 42.734161 245.711892 
L 43.290251 245.027565 
L 43.846341 244.822026 
L 44.402431 245.047402 
L 44.958521 245.654271 
L 45.514611 246.596224 
L 46.348747 248.54922 
L 47.460927 251.988672 
L 48.851152 257.318671 
L 53.299873 275.560584 
L 54.134009 277.816336 
L 54.968144 279.373753 
L 55.524234 279.967283 
L 56.080324 280.139723 
L 56.358369 280.039473 
L 56.636414 279.793106 
L 57.192504 278.770457 
L 57.748595 276.836245 
L 58.304685 273.670242 
L 58.860775 268.878983 
L 59.416865 262.027404 
L 59.972955 252.694907 
L 60.80709 233.374672 
L 61.641226 207.515104 
L 62.753406 165.134591 
L 64.421676 100.376319 
L 65.255812 76.415386 
L 65.811902 65.866803 
L 66.367992 60.224546 
L 66.646037 59.269431 
L 66.924082 59.523767 
L 67.202127 60.934602 
L 67.758217 66.926178 
L 68.314307 76.5155 
L 69.148443 95.766524 
L 73.041074 195.394284 
L 73.875209 210.12675 
L 74.709344 221.643515 
L 75.543479 230.326732 
L 76.377615 236.816685 
L 77.489795 243.325333 
L 79.714155 254.04041 
L 81.938516 265.353432 
L 88.055508 297.371038 
L 89.445733 303.169054 
L 90.557913 306.963631 
L 91.670094 309.958406 
L 92.782274 312.231841 
L 93.894454 313.937426 
L 95.006635 315.211451 
L 95.84077 315.910596 
L 96.674905 316.355018 
L 97.230995 316.472727 
L 97.787085 316.408943 
L 98.343175 316.120035 
L 98.899266 315.552578 
L 99.455356 314.641647 
L 100.011446 313.306251 
L 100.567536 311.443403 
L 101.123626 308.92218 
L 101.679716 305.579337 
L 102.235807 301.219626 
L 103.069942 292.286473 
L 103.904077 279.801771 
L 104.738212 263.164419 
L 105.572347 242.216361 
L 106.684528 208.641512 
L 109.186933 130.206628 
L 110.021069 111.470281 
L 110.577159 102.708412 
L 111.133249 97.239142 
L 111.411294 95.761108 
L 111.689339 95.109068 
L 111.967384 95.259782 
L 112.245429 96.180733 
L 112.523474 97.830153 
L 113.079564 103.110024 
L 113.635655 110.634894 
L 114.46979 124.977379 
L 118.084376 193.050724 
L 119.196556 208.814805 
L 120.586781 225.175383 
L 122.533097 244.90135 
L 124.757458 265.139782 
L 126.147683 276.151706 
L 127.537908 285.414314 
L 128.650089 291.480929 
L 129.762269 296.451688 
L 130.874449 300.491484 
L 131.98663 303.736634 
L 133.09881 306.249875 
L 133.932945 307.666279 
L 134.76708 308.694408 
L 135.601215 309.359534 
L 136.435351 309.696541 
L 137.269486 309.739158 
L 138.103621 309.507837 
L 138.937756 309.00377 
L 139.771892 308.211541 
L 140.606027 307.106875 
L 141.440162 305.666511 
L 142.552342 303.197164 
L 143.664523 300.094398 
L 145.054748 295.373746 
L 146.723018 288.672338 
L 148.947379 278.62042 
L 151.17174 268.655591 
L 152.28392 264.564611 
L 153.118055 262.292 
L 153.674145 261.26875 
L 154.230236 260.692279 
L 154.508281 260.580585 
L 154.786326 260.588997 
L 155.342416 260.965469 
L 155.898506 261.80825 
L 156.454596 263.086278 
L 157.288731 265.719238 
L 158.400912 270.277292 
L 160.069182 278.455592 
L 163.127678 293.775537 
L 164.517903 299.422921 
L 165.630084 302.954527 
L 166.464219 305.01568 
L 167.298354 306.631162 
L 168.410534 308.240528 
L 169.522715 309.41649 
L 170.634895 310.294507 
L 171.747075 310.903331 
L 172.58121 311.153634 
L 173.415346 311.190446 
L 174.249481 310.985105 
L 175.083616 310.51955 
L 175.917751 309.784406 
L 176.751887 308.772099 
L 177.586022 307.468328 
L 178.698202 305.224954 
L 179.810382 302.299902 
L 180.922563 298.556595 
L 182.034743 293.881962 
L 183.146923 288.230863 
L 184.537149 279.877422 
L 186.483464 266.414378 
L 189.54196 244.931012 
L 190.932185 236.695021 
L 192.322411 229.732083 
L 195.658952 214.0688 
L 196.493087 208.772836 
L 197.327222 201.948486 
L 198.161357 192.885884 
L 198.995493 180.929386 
L 199.829628 165.791352 
L 201.219853 135.180834 
L 202.610079 105.581481 
L 203.166169 96.929662 
L 203.722259 91.33904 
L 204.000304 89.887189 
L 204.278349 89.401943 
L 204.556394 89.912312 
L 204.834439 91.426534 
L 205.390529 97.396212 
L 205.946619 106.97647 
L 206.780755 126.751565 
L 208.17098 167.325235 
L 209.83925 214.384566 
L 210.951431 239.559319 
L 212.063611 258.951709 
L 212.897746 269.993972 
L 213.731881 278.377274 
L 214.566017 284.421679 
L 215.400152 288.457431 
L 215.956242 290.204013 
L 216.512332 291.319196 
L 217.068422 291.908709 
L 217.624513 292.073337 
L 218.180603 291.905091 
L 218.736693 291.485802 
L 219.570828 290.543425 
L 222.351279 286.991497 
L 223.185414 286.379366 
L 223.741504 286.186365 
L 224.297594 286.182345 
L 224.853684 286.368909 
L 225.68782 286.978747 
L 226.521955 287.903236 
L 230.136541 292.423412 
L 231.526766 293.551141 
L 233.751127 295.241027 
L 235.141352 296.649328 
L 238.199848 300.032615 
L 238.755938 300.348317 
L 239.312028 300.433892 
L 239.868119 300.216048 
L 240.424209 299.607855 
L 240.980299 298.503956 
L 241.536389 296.77729 
L 242.092479 294.280537 
L 242.648569 290.852566 
L 243.204659 286.331954 
L 244.038795 277.213506 
L 244.87293 265.136568 
L 245.98511 245.065967 
L 248.209471 202.825667 
L 249.043606 191.771614 
L 249.599696 187.083377 
L 249.877741 185.626593 
L 250.155786 184.771875 
L 250.433831 184.512841 
L 250.711876 184.832281 
L 250.989921 185.703069 
L 251.546012 188.947401 
L 252.102102 193.876482 
L 252.936237 203.454303 
L 255.438643 234.398481 
L 256.272778 242.017185 
L 257.106913 247.536389 
L 257.663003 250.077334 
L 258.219093 251.804518 
L 258.775184 252.844815 
L 259.331274 253.351233 
L 259.887364 253.489874 
L 260.721499 253.366661 
L 261.555634 253.278955 
L 262.111724 253.427573 
L 262.667815 253.825695 
L 263.223905 254.506001 
L 264.05804 256.050509 
L 264.892175 258.12757 
L 266.282401 262.314745 
L 269.618942 273.388016 
L 271.565257 280.655047 
L 275.457888 295.789479 
L 276.848113 300.026543 
L 277.960294 302.749417 
L 279.072474 304.976833 
L 280.462699 307.244812 
L 281.57488 308.695197 
L 282.68706 309.753977 
L 283.521195 310.234369 
L 284.35533 310.424674 
L 285.189466 310.337957 
L 286.023601 310.010268 
L 287.135781 309.267749 
L 288.247962 308.227626 
L 289.360142 306.873173 
L 290.472322 305.099728 
L 291.306457 303.388899 
L 292.140593 301.250708 
L 292.974728 298.603762 
L 294.086908 294.230944 
L 295.477133 287.666829 
L 297.423449 278.312495 
L 298.257584 275.088088 
L 299.091719 272.700935 
L 299.64781 271.638188 
L 300.2039 271.007156 
L 300.75999 270.789797 
L 301.31608 270.949711 
L 301.87217 271.438212 
L 302.706305 272.668542 
L 303.540441 274.340124 
L 304.930666 277.747454 
L 306.598936 282.529784 
L 308.267207 288.015906 
L 312.437883 302.385548 
L 313.550063 305.218903 
L 314.384199 306.856185 
L 315.218334 308.076903 
L 316.052469 308.920953 
L 316.886604 309.449907 
L 317.720739 309.728192 
L 318.554875 309.806377 
L 319.667055 309.643199 
L 320.50119 309.323386 
L 321.61337 308.61323 
L 322.725551 307.556325 
L 323.837731 306.126989 
L 324.949911 304.248851 
L 325.784047 302.434093 
L 326.618182 300.124159 
L 327.452317 297.14392 
L 328.286452 293.303592 
L 329.120587 288.429662 
L 329.954723 282.38986 
L 331.066903 272.402268 
L 332.179083 260.169372 
L 333.291264 245.651857 
L 334.403444 228.552369 
L 335.515624 208.078932 
L 336.627805 183.013393 
L 337.739985 152.408585 
L 339.408255 98.168946 
L 340.798481 54.473533 
L 341.632616 34.879384 
L 342.188706 26.378396 
L 342.466751 23.740191 
L 342.744796 22.246947 
L 343.022841 21.927273 
L 343.300886 22.789431 
L 343.578931 24.820992 
L 344.135022 32.245252 
L 344.691112 43.731079 
L 345.525247 67.012777 
L 346.915472 114.859346 
L 348.861788 181.748622 
L 350.252013 221.09591 
L 351.364193 246.265542 
L 352.476374 266.025674 
L 353.310509 277.60826 
L 354.144644 286.760582 
L 354.978779 293.851874 
L 355.812915 299.253813 
L 356.64705 303.296281 
L 357.481185 306.248121 
L 358.31532 308.318172 
L 359.149456 309.673393 
L 359.705546 310.252219 
L 360.261636 310.617384 
L 361.095771 310.840525 
L 361.929906 310.760254 
L 362.764042 310.445962 
L 363.598177 309.932907 
L 364.710357 308.948036 
L 365.822537 307.598789 
L 366.934718 305.885835 
L 368.602988 302.839587 
L 370.549304 299.314948 
L 371.939529 297.258451 
L 373.885845 294.909205 
L 375.27607 293.046309 
L 376.110205 291.599403 
L 376.94434 289.779847 
L 377.778476 287.502663 
L 378.612611 284.682655 
L 379.446746 281.200168 
L 380.280881 276.853304 
L 381.115016 271.32945 
L 381.949152 264.233605 
L 382.783287 255.207657 
L 383.895467 240.004355 
L 387.232008 190.141348 
L 387.788098 185.605921 
L 388.344188 183.178458 
L 388.622233 182.806642 
L 388.900279 183.004658 
L 389.178324 183.767067 
L 389.734414 186.91989 
L 390.290504 192.058066 
L 391.124639 202.798295 
L 392.236819 220.7588 
L 394.46118 257.885719 
L 395.57336 272.593974 
L 396.407496 281.010852 
L 397.241631 287.152429 
L 397.797721 290.082675 
L 398.353811 292.194357 
L 398.909901 293.598544 
L 399.465991 294.406822 
L 400.022082 294.721455 
L 400.578172 294.62964 
L 401.134262 294.202543 
L 401.690352 293.49812 
L 402.524487 292.028083 
L 403.636668 289.533001 
L 406.417118 282.946524 
L 407.529299 280.990645 
L 408.641479 279.57317 
L 409.753659 278.551309 
L 411.699975 277.134682 
L 413.0902 276.270463 
L 413.924335 275.951065 
L 414.480425 275.896834 
L 415.036516 276.015149 
L 415.592606 276.340534 
L 416.148696 276.899435 
L 416.704786 277.707775 
L 417.538921 279.392707 
L 418.373056 281.605324 
L 419.485237 285.208328 
L 423.655913 299.752099 
L 424.768093 302.575653 
L 425.880273 304.744426 
L 426.436364 305.606526 
L 426.436364 305.606526 
" clip-path="url(#pb76e7db70f)" style="fill: none; stroke-dasharray: 11.1,4.8; stroke-dashoffset: 0; stroke: #000000; stroke-width: 3"/>
   </g>
   <g id="line2d_2">
    <path d="M 27.163636 266.332911 
L 30.222132 266.384699 
L 33.280628 266.220088 
L 35.504989 265.901844 
L 38.563484 264.959495 
L 41.343935 263.891869 
L 43.568296 262.998153 
L 47.460927 262.879826 
L 51.353558 262.985086 
L 52.743783 263.0062 
L 58.860775 261.46327 
L 62.197316 260.462194 
L 64.977767 259.60083 
L 72.484984 258.985285 
L 76.65566 258.35958 
L 81.660471 257.900811 
L 85.553102 257.692924 
L 89.167688 257.990566 
L 91.948139 258.226101 
L 94.72859 258.272156 
L 105.294302 259.055108 
L 110.577159 259.369362 
L 113.635655 259.560426 
L 116.972195 259.968566 
L 118.362421 260.082914 
L 121.977007 259.990363 
L 125.869638 260.116696 
L 135.879261 260.813978 
L 139.493847 261.396536 
L 143.664523 262.324204 
L 147.835199 263.364554 
L 153.118055 264.948924 
L 160.069182 267.030258 
L 164.795948 267.948537 
L 168.132489 268.437632 
L 170.91294 268.538442 
L 181.478653 268.393726 
L 186.205419 268.025748 
L 187.87369 267.729566 
L 194.546771 265.124165 
L 205.112484 260.445176 
L 209.561205 259.075705 
L 218.458648 257.624554 
L 221.795189 257.34503 
L 229.580451 257.693353 
L 233.473082 257.650342 
L 245.98511 257.191214 
L 250.989921 257.538331 
L 263.50195 258.247263 
L 280.462699 256.904756 
L 282.13097 257.044951 
L 284.633376 257.454957 
L 287.135781 258.077901 
L 289.638187 258.919181 
L 292.140593 259.984177 
L 296.589314 261.986876 
L 302.706305 263.921689 
L 305.208711 264.466286 
L 307.155027 264.696218 
L 309.101342 264.662071 
L 310.769613 264.423422 
L 314.384199 263.690868 
L 317.164649 263.558084 
L 320.223145 263.654261 
L 323.559686 263.993337 
L 329.398633 264.882367 
L 331.066903 265.083367 
L 333.847354 264.877787 
L 336.627805 264.42507 
L 339.13021 263.803862 
L 342.744796 262.629981 
L 353.310509 258.803197 
L 355.53487 257.698739 
L 357.75923 256.55359 
L 361.929906 255.986642 
L 374.998025 254.453171 
L 378.612611 253.891727 
L 382.505242 254.229667 
L 385.841783 254.863201 
L 390.290504 255.901437 
L 394.183135 256.782644 
L 397.797721 257.376339 
L 400.300127 257.607943 
L 402.246442 257.587523 
L 403.636668 257.399019 
L 405.304938 257.43791 
L 406.973208 257.720007 
L 408.641479 258.223417 
L 410.587794 259.059829 
L 412.812155 260.293845 
L 416.982831 262.776027 
L 418.095011 263.171676 
L 420.597417 263.496884 
L 423.099823 263.614593 
L 425.880273 263.529518 
L 426.436364 263.488078 
L 426.436364 263.488078 
" clip-path="url(#pb76e7db70f)" style="fill: none; stroke: #ff00ff; stroke-width: 3; stroke-linecap: square"/>
   </g>
   <g id="patch_3">
    <path d="M 7.2 331.2 
L 7.2 7.2 
" style="fill: none; stroke: #000000; stroke-width: 0.8; stroke-linejoin: miter; stroke-linecap: square"/>
   </g>
   <g id="patch_4">
    <path d="M 446.4 331.2 
L 446.4 7.2 
" style="fill: none; stroke: #000000; stroke-width: 0.8; stroke-linejoin: miter; stroke-linecap: square"/>
   </g>
   <g id="patch_5">
    <path d="M 7.2 331.2 
L 446.4 331.2 
" style="fill: none; stroke: #000000; stroke-width: 0.8; stroke-linejoin: miter; stroke-linecap: square"/>
   </g>
   <g id="patch_6">
    <path d="M 7.2 7.2 
L 446.4 7.2 
" style="fill: none; stroke: #000000; stroke-width: 0.8; stroke-linejoin: miter; stroke-linecap: square"/>
   </g>
  </g>
 </g>
 <defs>
  <clipPath id="pb76e7db70f">
   <rect x="7.2" y="7.2" width="439.2" height="324"/>
  </clipPath>
 </defs>
</svg>
