<?xml version="1.0" encoding="utf-8" standalone="no"?>
<!DOCTYPE svg PUBLIC "-//W3C//DTD SVG 1.1//EN"
  "http://www.w3.org/Graphics/SVG/1.1/DTD/svg11.dtd">
<svg xmlns:xlink="http://www.w3.org/1999/xlink" width="453.6pt" height="338.4pt" viewBox="0 0 453.6 338.4" xmlns="http://www.w3.org/2000/svg" version="1.1">
 <metadata>
  <rdf:RDF xmlns:dc="http://purl.org/dc/elements/1.1/" xmlns:cc="http://creativecommons.org/ns#" xmlns:rdf="http://www.w3.org/1999/02/22-rdf-syntax-ns#">
   <cc:Work>
    <dc:type rdf:resource="http://purl.org/dc/dcmitype/StillImage"/>
    <dc:date>2025-05-15T09:41:23.870568</dc:date>
    <dc:format>image/svg+xml</dc:format>
    <dc:creator>
     <cc:Agent>
      <dc:title>Matplotlib v3.10.1, https://matplotlib.org/</dc:title>
     </cc:Agent>
    </dc:creator>
   </cc:Work>
  </rdf:RDF>
 </metadata>
 <defs>
  <style type="text/css">*{stroke-linejoin: round; stroke-linecap: butt}</style>
 </defs>
 <g id="figure_1">
  <g id="patch_1">
   <path d="M 0 338.4 
L 453.6 338.4 
L 453.6 0 
L 0 0 
z
" style="fill: #ffffff"/>
  </g>
  <g id="axes_1">
   <g id="patch_2">
    <path d="M 7.2 331.2 
L 446.4 331.2 
L 446.4 7.2 
L 7.2 7.2 
z
" style="fill: #ffffff"/>
   </g>
   <g id="matplotlib.axis_1"/>
   <g id="matplotlib.axis_2"/>
   <g id="line2d_1">
    <path d="M 27.163636 236.301347 
L 28.228364 245.684817 
L 29.293091 253.387669 
L 30.357818 259.759869 
L 31.422545 265.057396 
L 32.753455 270.465897 
L 34.084364 274.797891 
L 35.415273 278.291818 
L 36.746182 281.192168 
L 39.674182 287.202171 
L 40.472727 289.380833 
L 40.738909 290.235896 
L 41.005091 290.680879 
L 41.537455 282.0694 
L 43.134545 254.888581 
L 43.666909 246.584458 
L 43.933091 244.526568 
L 45.264 244.168034 
L 46.328727 243.612334 
L 47.127273 242.970555 
L 47.925818 242.088291 
L 48.724364 240.920061 
L 49.522909 239.42991 
L 50.587636 236.886023 
L 51.652364 233.626069 
L 52.717091 229.580628 
L 53.781818 224.658068 
L 54.846545 218.735694 
L 55.911273 211.610883 
L 56.976 202.934404 
L 58.040727 192.128805 
L 58.839273 182.059499 
L 59.637818 169.667489 
L 60.436364 154.121984 
L 60.702545 153.008495 
L 61.501091 176.068297 
L 62.299636 191.433138 
L 62.832 198.334905 
L 63.364364 203.064724 
L 63.896727 206.013968 
L 64.429091 207.440161 
L 64.695273 207.645745 
L 64.961455 207.558078 
L 65.227636 207.198183 
L 65.76 205.734525 
L 66.292364 203.372837 
L 67.090909 198.314171 
L 67.889455 191.63701 
L 68.954182 180.326826 
L 70.018909 166.098719 
L 71.083636 148.60215 
L 72.148364 127.2764 
L 73.213091 101.380013 
L 74.277818 70.149731 
L 75.608727 24.485257 
L 75.874909 25.712705 
L 76.407273 35.864148 
L 77.205818 53.871656 
L 78.270545 65.38868 
L 79.335273 79.540268 
L 80.666182 100.297423 
L 84.392727 161.615091 
L 85.457455 174.315583 
L 86.256 180.808781 
L 86.788364 183.404591 
L 87.054545 184.133211 
L 87.320727 184.463682 
L 87.586909 184.384091 
L 87.853091 183.884316 
L 88.119273 182.956116 
L 88.651636 179.792018 
L 89.184 174.869642 
L 89.982545 164.238227 
L 90.781091 149.944047 
L 91.845818 126.087208 
L 92.378182 112.414467 
L 92.644364 110.37276 
L 93.442909 115.452195 
L 93.709091 116.866581 
L 94.507636 124.405861 
L 95.04 127.743028 
L 95.572364 130.01546 
L 96.104727 131.434113 
L 96.637091 132.160943 
L 97.169455 132.369704 
L 97.701818 132.191333 
L 98.234182 131.743209 
L 99.298909 130.418587 
L 100.629818 128.73545 
L 101.428364 128.044347 
L 101.960727 127.799507 
L 102.493091 127.761831 
L 103.025455 127.954195 
L 103.557818 128.408587 
L 104.090182 129.131783 
L 104.888727 130.740991 
L 105.687273 133.026274 
L 106.485818 136.014001 
L 107.284364 139.740848 
L 108.615273 146.889307 
L 108.881455 147.074157 
L 110.478545 142.942323 
L 111.277091 141.869757 
L 112.075636 140.369679 
L 113.140364 137.737009 
L 114.205091 134.420172 
L 115.269818 130.443763 
L 116.600727 124.570451 
L 118.197818 116.299145 
L 120.061091 105.319238 
L 123.521455 84.654183 
L 124.586182 79.612494 
L 125.384727 76.69501 
L 126.183273 74.716189 
L 126.715636 74.004036 
L 126.981818 73.845995 
L 128.046545 63.910371 
L 129.111273 51.755669 
L 130.176 37.828309 
L 131.240727 48.337216 
L 132.039273 54.189811 
L 132.837818 58.353634 
L 133.370182 60.261913 
L 133.902545 61.560709 
L 134.434909 62.337118 
L 134.967273 62.692983 
L 135.499636 62.741825 
L 136.298182 62.508151 
L 137.096727 62.291366 
L 137.629091 62.372968 
L 138.161455 62.7831 
L 138.693818 63.641356 
L 139.226182 65.057796 
L 139.758545 67.129929 
L 140.290909 69.939583 
L 141.089455 75.660928 
L 141.355636 78.002689 
L 141.621818 83.437621 
L 142.686545 121.519293 
L 143.485091 141.82692 
L 144.549818 164.700783 
L 145.348364 175.583849 
L 145.880727 180.304714 
L 146.413091 183.544251 
L 146.945455 185.777936 
L 148.542545 191.183689 
L 149.074909 194.102921 
L 149.607273 198.29435 
L 150.139636 204.136184 
L 150.672 211.963703 
L 151.470545 228.021754 
L 152.269091 249.895155 
L 152.535273 258.503454 
L 154.132364 196.14131 
L 155.197091 166.334622 
L 155.995636 149.558669 
L 156.794182 136.84271 
L 157.592727 127.560145 
L 158.391273 121.076787 
L 159.189818 116.856662 
L 159.722182 115.005142 
L 160.254545 113.729538 
L 160.520727 112.336412 
L 160.786909 111.96134 
L 161.053091 112.567663 
L 161.319273 114.118409 
L 161.851636 119.903554 
L 162.384 129.014946 
L 163.182545 148.292633 
L 163.981091 173.421249 
L 165.045818 210.016369 
L 166.110545 189.570153 
L 168.24 149.962604 
L 169.570909 128.827076 
L 170.901818 111.282351 
L 171.966545 99.959237 
L 173.031273 90.980377 
L 174.096 84.210589 
L 174.894545 80.486867 
L 175.693091 77.842453 
L 176.225455 76.649644 
L 176.757818 75.9189 
L 177.024 74.61582 
L 178.621091 61.380459 
L 179.685818 54.053399 
L 180.484364 49.688628 
L 181.282909 46.520755 
L 181.815273 45.21757 
L 182.081455 45.373277 
L 182.88 49.020278 
L 183.944727 55.234111 
L 185.808 67.994663 
L 187.405091 78.253007 
L 188.203636 82.226185 
L 188.736 84.207903 
L 189.268364 85.513756 
L 189.534545 85.895289 
L 189.800727 86.07194 
L 190.066909 86.017042 
L 190.333091 85.744656 
L 190.599273 85.24425 
L 191.131636 83.423084 
L 191.664 80.525158 
L 192.196364 76.425714 
L 192.994909 67.880126 
L 193.793455 56.040787 
L 194.592 40.154762 
L 194.858182 33.978007 
L 195.124364 35.292498 
L 195.922909 66.747518 
L 196.721455 89.887253 
L 197.52 106.001159 
L 198.052364 113.433995 
L 198.584727 118.696261 
L 199.117091 122.051476 
L 199.649455 123.915742 
L 199.915636 124.386865 
L 200.181818 124.622874 
L 200.448 124.641712 
L 200.980364 124.245642 
L 202.311273 122.694616 
L 202.577455 122.630553 
L 202.843636 122.736821 
L 203.109818 123.077237 
L 203.376 123.689793 
L 203.908364 125.843948 
L 204.440727 129.61221 
L 204.973091 135.270721 
L 205.505455 143.180263 
L 206.037818 153.72739 
L 206.836364 175.145811 
L 207.901091 206.942906 
L 208.699636 181.461164 
L 209.498182 164.114947 
L 210.030545 156.533374 
L 210.296727 154.980065 
L 211.095273 153.596279 
L 212.692364 150.313677 
L 213.224727 149.722978 
L 213.490909 149.588234 
L 213.757091 149.630018 
L 214.023273 149.858706 
L 214.555636 150.857746 
L 215.088 152.70888 
L 215.620364 155.516532 
L 216.418909 161.501537 
L 217.217455 169.478627 
L 218.548364 185.798284 
L 220.145455 205.161313 
L 220.677818 209.920407 
L 221.210182 213.062708 
L 221.476364 213.831147 
L 221.742545 214.056543 
L 222.008727 213.549895 
L 222.274909 212.365689 
L 222.807273 207.464029 
L 223.872 192.220493 
L 224.670545 186.01772 
L 225.469091 181.818776 
L 226.267636 179.175494 
L 226.8 178.02899 
L 227.598545 177.022708 
L 230.260364 174.273966 
L 231.058909 172.851425 
L 231.857455 170.894128 
L 232.656 168.289251 
L 233.454545 164.935141 
L 234.253091 160.736803 
L 235.317818 153.662133 
L 236.382545 144.677146 
L 237.447273 133.502207 
L 237.979636 127.367587 
L 239.310545 145.864056 
L 240.641455 161.784158 
L 241.972364 175.360638 
L 243.303273 186.735675 
L 243.569455 188.044539 
L 252.087273 206.460407 
L 253.684364 209.14269 
L 255.015273 210.958852 
L 256.08 212.106646 
L 257.144727 212.970108 
L 258.209455 213.554389 
L 259.274182 213.901179 
L 260.605091 214.068402 
L 263.000727 214.159001 
L 263.266909 214.056894 
L 264.065455 212.433869 
L 265.928727 206.061493 
L 267.259636 202.24791 
L 268.590545 199.122972 
L 269.655273 197.207731 
L 270.453818 196.256857 
L 270.986182 195.863017 
L 271.518545 195.708548 
L 272.050909 195.822672 
L 272.583273 196.235113 
L 273.115636 197.00593 
L 273.648 198.168805 
L 274.180364 199.727934 
L 274.978909 202.984176 
L 275.777455 207.406313 
L 278.971636 229.062042 
L 280.302545 240.79822 
L 281.899636 257.279671 
L 285.093818 291.569725 
L 286.158545 300.165412 
L 286.690909 303.192409 
L 286.957091 293.580185 
L 288.021818 231.957968 
L 289.086545 182.45175 
L 289.885091 153.346506 
L 290.683636 131.168293 
L 291.482182 115.716663 
L 292.014545 108.989975 
L 292.546909 104.974714 
L 292.813091 103.967879 
L 293.079273 103.535117 
L 293.345455 103.723127 
L 293.611636 104.307365 
L 294.144 106.68919 
L 294.676364 110.571936 
L 295.474909 118.852951 
L 296.539636 133.439443 
L 298.136727 157.695003 
L 298.402909 157.243192 
L 298.935273 155.684458 
L 299.201455 155.328504 
L 299.467636 155.24606 
L 299.733818 155.397202 
L 300.266182 156.40337 
L 300.798545 158.201133 
L 301.597091 162.06871 
L 302.661818 168.687813 
L 305.589818 187.883785 
L 306.654545 193.050492 
L 307.453091 195.883206 
L 308.251636 197.805197 
L 308.784 198.602603 
L 309.316364 199.052913 
L 309.848727 199.19906 
L 310.381091 199.095882 
L 310.913455 198.810364 
L 311.445818 198.363022 
L 311.978182 202.59843 
L 313.309091 213.362183 
L 314.906182 224.355608 
L 316.503273 233.872137 
L 318.100364 242.153258 
L 319.431273 247.812212 
L 320.229818 250.413539 
L 320.762182 251.682362 
L 321.294545 252.450857 
L 321.560727 252.606068 
L 321.826909 252.59538 
L 322.093091 252.397811 
L 322.359273 251.990733 
L 322.891636 250.449248 
L 323.424 247.755018 
L 323.956364 243.66229 
L 324.488727 237.842814 
L 325.021091 229.940769 
L 325.553455 219.532969 
L 326.352 198.125617 
L 327.682909 150.279688 
L 328.481455 112.609763 
L 329.812364 44.192565 
L 330.344727 44.414511 
L 330.877091 45.050645 
L 331.409455 46.11259 
L 331.941818 47.60619 
L 332.740364 50.648991 
L 333.538909 54.648434 
L 334.603636 61.33246 
L 335.934545 71.550617 
L 337.797818 88.031168 
L 340.193455 109.059814 
L 341.258182 116.764755 
L 342.056727 121.357371 
L 342.855273 124.673998 
L 343.121455 125.461643 
L 343.653818 126.082608 
L 344.186182 126.710509 
L 344.984727 128.133375 
L 345.783273 130.11769 
L 346.848 133.527681 
L 347.912727 137.721964 
L 349.509818 144.574038 
L 351.106909 135.682451 
L 352.171636 130.888446 
L 353.236364 127.198099 
L 354.034909 125.075106 
L 354.833455 123.484771 
L 355.898182 122.123001 
L 356.696727 121.495943 
L 357.761455 121.073153 
L 359.358545 120.914444 
L 359.890909 120.922906 
L 360.157091 121.153719 
L 360.423273 121.760692 
L 360.955636 123.964847 
L 361.754182 128.816489 
L 363.085091 138.820952 
L 365.214545 154.802273 
L 366.545455 163.220262 
L 367.610182 168.637918 
L 368.408727 171.719844 
L 368.941091 173.127304 
L 369.473455 173.929819 
L 369.739636 174.058313 
L 370.005818 173.974658 
L 370.272 173.652096 
L 370.538182 173.060327 
L 371.070545 170.928494 
L 371.602909 167.257047 
L 372.135273 161.651415 
L 372.667636 153.638081 
L 373.466182 137.400719 
L 373.732364 136.630648 
L 374.264727 137.673772 
L 374.797091 139.48888 
L 375.329455 142.081574 
L 376.128 147.350072 
L 376.660364 151.095598 
L 379.322182 162.40709 
L 380.386909 166.128073 
L 381.185455 168.340357 
L 381.984 169.886134 
L 382.516364 170.457407 
L 382.782545 170.582311 
L 383.048727 170.582056 
L 383.314909 170.450604 
L 383.847273 169.759905 
L 384.379636 168.426506 
L 384.912 166.35425 
L 385.444364 163.386362 
L 385.976727 159.427965 
L 386.509091 154.306589 
L 387.307636 145.335173 
L 388.106182 167.483891 
L 388.904727 182.432219 
L 389.437091 188.483657 
L 389.969455 191.490011 
L 390.235636 191.930367 
L 390.501818 191.59879 
L 390.768 190.637698 
L 391.300364 186.797025 
L 391.832727 180.744841 
L 392.631273 168.420273 
L 393.163636 158.912759 
L 393.696 158.56697 
L 394.228364 157.750323 
L 394.760727 156.485674 
L 395.559273 153.81812 
L 396.357818 150.35144 
L 397.688727 143.315481 
L 399.285818 134.660781 
L 400.084364 131.38262 
L 400.616727 129.998044 
L 400.882909 129.624816 
L 401.149091 129.502677 
L 401.415273 129.66121 
L 401.681455 130.130243 
L 401.947636 130.940009 
L 402.48 133.703086 
L 403.012364 138.190909 
L 403.810909 146.930196 
L 404.609455 151.717459 
L 405.674182 160.022526 
L 407.005091 172.779444 
L 410.199273 204.91477 
L 413.393455 220.059464 
L 422.709818 262.591946 
L 424.040727 267.424443 
L 424.839273 269.673837 
L 425.371636 270.756168 
L 425.904 271.452183 
L 426.436364 271.672874 
L 426.436364 271.672874 
" clip-path="url(#p22b05a186f)" style="fill: none; stroke: #ffa500; stroke-width: 3; stroke-linecap: square"/>
   </g>
   <g id="line2d_2">
    <path d="M 27.163636 108.663358 
L 27.962182 98.811829 
L 28.760727 91.112962 
L 29.559273 85.379222 
L 30.357818 81.440981 
L 30.890182 79.71943 
L 31.422545 78.652166 
L 31.954909 78.16972 
L 32.221091 78.123002 
L 32.753455 78.407818 
L 33.285818 79.119813 
L 33.818182 80.19826 
L 34.616727 82.394796 
L 35.681455 86.090866 
L 37.810909 94.676395 
L 39.674182 101.939198 
L 39.940364 102.763975 
L 40.206545 102.07461 
L 41.005091 96.938679 
L 41.537455 94.710454 
L 42.069818 93.354126 
L 42.602182 92.593465 
L 43.134545 92.333176 
L 43.666909 92.444992 
L 43.933091 92.679175 
L 44.465455 93.977093 
L 44.997818 96.110356 
L 45.796364 100.61865 
L 46.861091 108.52763 
L 48.192 120.461159 
L 52.717091 163.259869 
L 53.781818 170.583944 
L 54.580364 174.519886 
L 55.112727 176.203682 
L 55.645091 176.994847 
L 55.911273 177.014273 
L 56.177455 176.759224 
L 56.443636 176.21081 
L 56.976 174.15367 
L 57.508364 170.672664 
L 58.040727 165.581019 
L 59.904 210.7965 
L 61.501091 243.078794 
L 62.033455 250.20253 
L 62.565818 255.210537 
L 63.098182 258.293257 
L 63.364364 259.165835 
L 63.630545 259.62117 
L 63.896727 259.704136 
L 64.162909 259.430307 
L 64.429091 258.765499 
L 64.961455 256.475594 
L 65.493818 253.004525 
L 66.292364 245.75179 
L 67.090909 236.379016 
L 68.155636 221.063797 
L 69.486545 198.058719 
L 70.817455 171.248221 
L 72.414545 134.454512 
L 72.946909 123.346884 
L 73.213091 123.025253 
L 74.277818 136.163317 
L 75.342545 146.284055 
L 76.141091 152.071323 
L 76.939636 156.488852 
L 77.472 157.992283 
L 78.536727 159.850545 
L 79.335273 160.831168 
L 80.4 161.686352 
L 81.198545 162.012671 
L 81.997091 162.080824 
L 82.529455 161.981315 
L 83.061818 161.755436 
L 83.594182 161.393724 
L 84.392727 160.574671 
L 85.191273 159.382898 
L 85.989818 157.767721 
L 87.054545 154.907979 
L 88.119273 151.239437 
L 89.716364 144.624776 
L 91.047273 139.337931 
L 91.579636 137.845191 
L 92.112 137.072662 
L 92.378182 137.044362 
L 92.644364 137.364079 
L 92.910545 138.02272 
L 93.442909 140.786201 
L 93.709091 142.999749 
L 93.975273 143.016586 
L 94.507636 142.363527 
L 95.04 141.117488 
L 95.572364 139.294585 
L 96.370909 135.602043 
L 97.435636 129.342791 
L 99.831273 114.415672 
L 100.629818 110.975643 
L 101.162182 109.583324 
L 101.428364 109.201493 
L 101.694545 109.047191 
L 101.960727 109.166047 
L 102.226909 109.556218 
L 102.759273 111.167936 
L 103.291636 114.034262 
L 103.824 118.188025 
L 104.622545 126.945535 
L 105.421091 138.76191 
L 106.485818 158.948609 
L 107.816727 190.175827 
L 108.349091 202.379564 
L 108.881455 207.761345 
L 109.68 213.064999 
L 111.010909 221.08052 
L 112.075636 227.376394 
L 113.140364 232.526431 
L 114.205091 236.698777 
L 115.802182 241.896383 
L 117.133091 246.455283 
L 117.931636 249.905131 
L 118.730182 254.299853 
L 119.528727 259.986169 
L 120.327273 267.315081 
L 121.125818 276.620461 
L 121.924364 288.189938 
L 122.190545 292.590667 
L 122.456727 294.096326 
L 122.722909 294.260051 
L 122.989091 293.770495 
L 123.255273 292.587989 
L 123.787636 288.401537 
L 124.32 281.986111 
L 125.118545 268.956128 
L 126.183273 246.743557 
L 126.981818 227.712491 
L 131.506909 70.324276 
L 132.571636 44.935476 
L 133.370182 31.131572 
L 133.636364 27.656413 
L 133.902545 29.341587 
L 136.298182 167.71265 
L 137.096727 198.651585 
L 137.895273 221.59512 
L 138.427636 232.410296 
L 138.96 239.55039 
L 139.226182 241.682179 
L 139.492364 242.910578 
L 139.758545 243.090829 
L 140.024727 242.358025 
L 140.290909 240.520629 
L 140.823273 233.799832 
L 141.355636 222.729677 
L 141.888 207.086508 
L 142.686545 174.399467 
L 143.751273 119.039873 
L 144.549818 104.371656 
L 145.348364 85.896817 
L 146.413091 55.081477 
L 147.477818 21.927273 
L 149.607273 96.169223 
L 150.938182 135.971866 
L 152.002909 162.416254 
L 153.067636 183.649334 
L 153.866182 196.016625 
L 154.664727 205.525237 
L 155.463273 212.348177 
L 155.995636 215.517804 
L 156.528 217.808626 
L 157.060364 219.214893 
L 157.592727 219.937193 
L 157.858909 220.132481 
L 158.391273 220.08392 
L 159.189818 219.360514 
L 160.254545 218.002202 
L 160.786909 215.743306 
L 161.319273 212.411836 
L 161.851636 207.932782 
L 162.650182 198.761874 
L 163.448727 186.236269 
L 164.247273 170.092561 
L 165.045818 150.052773 
L 166.110545 116.970795 
L 167.175273 76.471694 
L 167.973818 42.526825 
L 168.24 43.044735 
L 169.837091 93.586203 
L 171.168 128.671861 
L 172.498909 157.395721 
L 173.563636 176.053066 
L 174.628364 191.184295 
L 175.693091 203.147292 
L 176.757818 212.353672 
L 177.024 213.500123 
L 177.822545 214.904932 
L 178.621091 216.753696 
L 179.685818 219.744662 
L 183.944727 232.675054 
L 185.009455 234.771221 
L 185.808 235.759288 
L 186.340364 236.07746 
L 186.872727 236.122992 
L 187.405091 235.875089 
L 187.937455 235.29747 
L 188.469818 234.405953 
L 189.268364 232.459542 
L 189.800727 230.743696 
L 191.397818 224.690055 
L 192.994909 219.576061 
L 193.527273 217.971786 
L 194.592 217.666974 
L 195.656727 217.160765 
L 196.987636 216.251788 
L 198.318545 215.036789 
L 199.649455 213.495892 
L 200.980364 211.58971 
L 202.311273 209.23156 
L 203.376 206.941405 
L 204.440727 204.200765 
L 205.505455 200.874052 
L 206.570182 196.838338 
L 207.634909 191.911608 
L 208.699636 185.882212 
L 209.764364 178.512508 
L 210.296727 173.74223 
L 211.361455 159.206072 
L 212.426182 141.42079 
L 213.490909 119.966423 
L 214.555636 98.35447 
L 215.354182 93.983027 
L 215.886545 92.142164 
L 216.418909 91.065683 
L 216.685091 90.799741 
L 216.951273 90.718192 
L 217.217455 90.817139 
L 217.483636 91.078587 
L 218.016 92.068076 
L 218.548364 93.662485 
L 219.346909 97.088241 
L 220.145455 101.617006 
L 221.210182 109.122718 
L 222.541091 120.401573 
L 224.404364 138.512628 
L 227.864727 172.860317 
L 228.397091 176.457107 
L 229.461818 146.392974 
L 230.526545 122.423389 
L 231.591273 103.587663 
L 232.656 89.048625 
L 233.454545 80.580565 
L 234.253091 73.911304 
L 235.051636 68.954237 
L 235.850182 65.501479 
L 236.382545 63.980824 
L 236.914909 63.126501 
L 237.447273 62.835769 
L 237.713455 62.951412 
L 238.245818 63.614372 
L 238.778182 64.90051 
L 239.310545 66.833263 
L 239.842909 69.442038 
L 240.641455 74.684237 
L 241.44 81.737454 
L 242.238545 90.719842 
L 243.037091 101.993728 
L 243.835636 116.457169 
L 244.900364 141.049282 
L 245.965091 170.890213 
L 247.296 215.722651 
L 247.562182 224.201639 
L 247.828364 227.964494 
L 248.360727 228.795397 
L 248.893091 229.215616 
L 249.425455 229.274306 
L 249.957818 229.0219 
L 250.490182 228.509414 
L 251.288727 227.365395 
L 252.619636 224.87566 
L 254.482909 221.387737 
L 255.281455 220.269042 
L 256.08 219.546952 
L 256.612364 219.3211 
L 257.144727 219.317764 
L 257.677091 219.554949 
L 258.209455 220.053337 
L 258.741818 220.790701 
L 259.540364 222.384811 
L 260.338909 224.193002 
L 261.403636 226.227265 
L 262.734545 229.470375 
L 263.799273 232.754786 
L 264.864 236.88569 
L 265.928727 242.15058 
L 266.993455 248.916186 
L 267.792 255.262525 
L 268.590545 263.011186 
L 269.389091 272.499981 
L 269.655273 273.353712 
L 270.453818 268.613258 
L 271.252364 262.241764 
L 272.050909 254.135079 
L 273.115636 240.451695 
L 274.180364 223.49255 
L 275.511273 198.44163 
L 276.576 176.826069 
L 276.842182 174.060745 
L 277.906909 173.300453 
L 278.705455 172.502143 
L 279.504 171.436178 
L 280.302545 170.073477 
L 281.101091 168.323362 
L 281.899636 166.187062 
L 282.964364 162.647225 
L 284.029091 158.347693 
L 285.626182 150.716453 
L 287.755636 140.395328 
L 288.554182 137.697104 
L 289.086545 136.721449 
L 289.352727 136.580648 
L 289.618909 136.722046 
L 289.885091 137.187305 
L 290.151273 138.021035 
L 290.683636 141.016434 
L 291.216 146.256386 
L 291.748364 154.273688 
L 292.014545 160.923163 
L 293.877818 228.379946 
L 294.676364 249.263901 
L 295.474909 264.352174 
L 296.007273 271.035945 
L 296.539636 274.903005 
L 296.805818 275.716045 
L 297.072 275.834774 
L 297.338182 275.203941 
L 297.604364 273.811531 
L 298.136727 268.77931 
L 298.669091 260.695605 
L 299.201455 249.531687 
L 300 226.963479 
L 300.798545 197.502158 
L 301.863273 147.587626 
L 302.661818 104.029975 
L 303.194182 96.903128 
L 303.460364 94.918355 
L 303.726545 93.776162 
L 303.992727 93.510447 
L 304.258909 94.043473 
L 304.525091 95.248905 
L 305.057455 99.681637 
L 305.589818 106.251915 
L 306.388364 119.257272 
L 307.719273 146.191568 
L 310.114909 196.831816 
L 311.978182 219.177805 
L 313.575273 235.626747 
L 314.906182 247.27589 
L 316.237091 257.010718 
L 317.301818 263.467961 
L 318.366545 268.774604 
L 319.431273 272.91674 
L 320.229818 275.364849 
L 321.028364 277.189376 
L 321.826909 278.443518 
L 322.359273 279.010177 
L 323.157818 279.355874 
L 323.690182 279.340113 
L 324.488727 278.817528 
L 325.287273 277.778692 
L 326.085818 276.504971 
L 326.618182 276.097968 
L 327.416727 278.022821 
L 327.949091 278.539761 
L 328.215273 278.510561 
L 328.481455 278.292679 
L 328.747636 277.867632 
L 329.28 276.368524 
L 329.812364 273.943712 
L 330.344727 270.532506 
L 331.143273 263.442526 
L 331.941818 253.833177 
L 332.740364 241.495266 
L 333.538909 226.281514 
L 334.603636 201.135588 
L 335.668364 170.046906 
L 336.733091 132.546233 
L 337.797818 94.93068 
L 339.128727 85.22234 
L 339.927273 80.859008 
L 340.459636 78.795654 
L 340.992 77.552037 
L 341.258182 77.292696 
L 341.524364 77.263623 
L 341.790545 77.526545 
L 342.056727 78.060221 
L 342.589091 80.069678 
L 343.387636 84.567754 
L 344.186182 85.116616 
L 344.984727 85.924327 
L 346.049455 87.430147 
L 347.114182 89.492325 
L 348.178909 92.155823 
L 349.243636 95.449942 
L 350.308364 99.40646 
L 351.639273 105.319326 
L 353.236364 113.774289 
L 355.099636 125.040977 
L 358.826182 148.483031 
L 359.890909 154.127392 
L 360.689455 165.971892 
L 361.488 180.996028 
L 362.286545 199.75469 
L 363.085091 222.82521 
L 363.883636 250.677748 
L 364.149818 252.183549 
L 366.279273 206.14859 
L 367.610182 181.400384 
L 368.674909 165.154542 
L 369.473455 155.509527 
L 370.272 148.309312 
L 370.804364 144.983328 
L 371.336727 142.916059 
L 371.602909 142.357348 
L 371.869091 142.136261 
L 372.135273 142.231522 
L 372.401455 142.679172 
L 372.933818 144.58329 
L 373.466182 147.890682 
L 373.998545 152.583317 
L 374.797091 162.276928 
L 375.063273 166.223175 
L 375.329455 172.178422 
L 375.861818 189.338296 
L 376.394182 200.485655 
L 376.926545 206.323679 
L 377.192727 207.73149 
L 377.458909 208.396794 
L 377.725091 208.419108 
L 377.991273 207.919342 
L 378.523636 205.737571 
L 379.322182 200.614562 
L 381.717818 183.527529 
L 382.516364 179.585363 
L 383.048727 177.774933 
L 383.581091 176.740465 
L 383.847273 176.531703 
L 384.113455 176.541693 
L 384.379636 176.781073 
L 384.645818 177.261693 
L 385.178182 179.000897 
L 385.710545 181.885938 
L 386.242909 186.107283 
L 386.775273 191.887222 
L 387.573818 203.967749 
L 388.372364 221.167853 
L 389.170909 244.996185 
L 389.969455 270.384695 
L 390.235636 270.047119 
L 390.768 268.529453 
L 391.300364 265.854908 
L 391.832727 262.074866 
L 392.631273 254.46055 
L 394.760727 231.665331 
L 395.559273 224.956735 
L 396.091636 221.734991 
L 396.624 219.869935 
L 396.890182 219.568292 
L 397.156364 219.677685 
L 397.422545 220.334395 
L 397.688727 221.479951 
L 398.221091 225.583327 
L 398.753455 232.308373 
L 399.285818 241.976571 
L 399.818182 254.910614 
L 400.616727 281.111677 
L 401.415273 316.472727 
L 401.681455 309.718602 
L 402.48 276.300954 
L 403.278545 251.096724 
L 404.077091 233.477007 
L 404.609455 225.498767 
L 405.141818 220.279049 
L 405.674182 217.580974 
L 405.940364 217.087046 
L 406.206545 217.165505 
L 406.472727 217.732634 
L 407.005091 220.303619 
L 407.537455 224.563202 
L 408.336 233.593835 
L 409.400727 249.437862 
L 409.933091 259.137639 
L 412.062545 309.017225 
L 412.328727 309.813207 
L 414.192 213.092141 
L 415.256727 170.634541 
L 416.321455 138.063978 
L 417.12 119.890843 
L 417.918545 106.826655 
L 418.450909 100.744687 
L 418.983273 96.640363 
L 419.515636 94.285206 
L 419.781818 93.766997 
L 420.048 93.62286 
L 420.314182 93.832307 
L 420.580364 94.374795 
L 421.112727 96.37033 
L 421.645091 99.419592 
L 422.443636 105.507178 
L 424.040727 120.357243 
L 425.371636 132.16391 
L 426.170182 137.662114 
L 426.436364 139.144619 
L 426.436364 139.144619 
" clip-path="url(#p22b05a186f)" style="fill: none; stroke: #ff0000; stroke-width: 3; stroke-linecap: square"/>
   </g>
   <g id="line2d_3">
    <path d="M 27.163636 188.549519 
L 27.962182 168.595836 
L 28.760727 155.420183 
L 29.293091 149.658108 
L 29.825455 145.983228 
L 30.357818 143.961061 
L 30.624 143.535374 
L 30.890182 143.426367 
L 31.156364 143.607653 
L 31.422545 144.054144 
L 31.954909 145.646867 
L 32.487273 148.024549 
L 33.285818 152.710267 
L 34.616727 162.367185 
L 38.875636 195.151268 
L 40.206545 203.42196 
L 41.537455 210.234111 
L 42.602182 214.583538 
L 43.933091 219.23762 
L 47.393455 244.120443 
L 49.522909 261.177981 
L 50.853818 272.252226 
L 51.386182 274.870793 
L 52.983273 281.14768 
L 54.048 284.604766 
L 54.846545 286.595218 
L 55.378909 287.532418 
L 55.911273 288.085759 
L 56.177455 288.193794 
L 56.443636 288.175289 
L 56.709818 288.019047 
L 57.242182 287.246128 
L 57.774545 285.770121 
L 58.306909 283.437511 
L 58.839273 280.164018 
L 59.371636 275.729072 
L 60.170182 266.599404 
L 60.702545 257.532232 
L 61.767273 233.064786 
L 63.098182 196.207278 
L 64.695273 145.36702 
L 64.961455 136.351872 
L 66.026182 164.375324 
L 66.824727 178.067386 
L 67.357091 184.311838 
L 67.889455 188.521385 
L 68.421818 191.008539 
L 68.688 191.679444 
L 68.954182 191.998274 
L 69.220364 191.984914 
L 69.486545 191.6577 
L 70.018909 190.078495 
L 70.551273 187.437338 
L 71.349818 181.721707 
L 72.148364 174.14785 
L 73.213091 161.867884 
L 75.874909 129.176182 
L 76.407273 124.846067 
L 76.939636 122.506518 
L 77.205818 122.316208 
L 78.004364 122.363451 
L 78.802909 122.765192 
L 79.335273 123.293829 
L 79.867636 124.240551 
L 80.4 129.250744 
L 84.392727 192.756495 
L 85.723636 210.235129 
L 87.054545 224.80303 
L 88.119273 234.326213 
L 89.184 242.143154 
L 90.248727 248.529311 
L 91.579636 255.09176 
L 93.709091 264.451867 
L 94.773818 273.535687 
L 95.572364 281.986322 
L 96.370909 292.376096 
L 97.435636 309.807151 
L 97.701818 314.870282 
L 97.968 316.472727 
L 99.032727 312.165689 
L 100.363636 307.717584 
L 103.291636 298.298553 
L 104.356364 293.992235 
L 105.421091 288.639299 
L 106.219636 283.649825 
L 107.018182 277.540124 
L 107.816727 269.979264 
L 108.615273 260.572988 
L 109.413818 248.814469 
L 110.212364 234.063202 
L 111.543273 205.789775 
L 111.809455 207.966261 
L 112.874182 229.364317 
L 113.672727 241.663086 
L 114.471273 251.423301 
L 115.269818 259.097628 
L 116.068364 265.125822 
L 116.866909 269.803508 
L 117.665455 273.410392 
L 118.464 276.183292 
L 119.262545 278.314729 
L 120.061091 279.944336 
L 121.125818 281.4942 
L 122.190545 282.574273 
L 123.255273 283.324714 
L 124.586182 283.95931 
L 126.449455 284.518606 
L 127.248 284.778858 
L 128.312727 285.2612 
L 129.111273 285.425063 
L 129.643636 285.374251 
L 130.176 285.157787 
L 130.708364 284.741472 
L 131.506909 283.663519 
L 132.305455 281.9814 
L 133.104 279.616659 
L 133.902545 276.530305 
L 134.701091 272.711687 
L 135.765818 266.487886 
L 137.096727 257.018632 
L 138.693818 243.685363 
L 140.024727 231.555033 
L 140.290909 227.095195 
L 141.089455 209.4871 
L 141.888 195.573189 
L 142.686545 184.956223 
L 143.485091 176.943372 
L 144.549818 168.884268 
L 145.614545 162.60588 
L 146.413091 158.913742 
L 147.211636 156.217431 
L 147.744 154.939984 
L 148.276364 154.130289 
L 148.542545 153.902917 
L 148.808727 153.822808 
L 149.341091 154.056464 
L 149.873455 154.938702 
L 150.405818 156.486341 
L 150.938182 158.720114 
L 151.736727 163.56914 
L 152.535273 170.422119 
L 153.333818 179.328892 
L 154.398545 194.618619 
L 155.463273 213.463316 
L 158.657455 273.911927 
L 159.189818 279.139918 
L 159.456 280.441848 
L 159.722182 280.528471 
L 159.988364 279.31348 
L 160.254545 278.81683 
L 161.053091 281.772469 
L 161.851636 284.010203 
L 162.650182 285.703269 
L 163.714909 287.366704 
L 164.779636 288.552545 
L 165.844364 289.424813 
L 167.175273 290.232308 
L 169.038545 291.080072 
L 172.498909 292.588573 
L 173.563636 293.266195 
L 174.628364 294.208965 
L 175.426909 295.185936 
L 176.225455 296.516856 
L 178.621091 301.616082 
L 179.952 305.078248 
L 181.549091 309.910359 
L 183.146182 315.335064 
L 183.412364 315.375336 
L 185.541818 311.053903 
L 187.138909 308.256843 
L 188.469818 306.286356 
L 189.800727 304.682077 
L 190.865455 303.680422 
L 191.930182 302.942082 
L 192.994909 302.476269 
L 193.527273 302.349388 
L 195.390545 290.253617 
L 196.455273 284.637585 
L 197.253818 281.361792 
L 198.052364 279.065093 
L 198.584727 278.144855 
L 199.117091 277.760513 
L 199.383273 277.778666 
L 199.649455 277.939209 
L 200.181818 278.708938 
L 200.714182 280.092987 
L 201.246545 282.110168 
L 201.778909 284.774004 
L 202.045091 283.604927 
L 203.109818 253.022546 
L 203.908364 237.742085 
L 204.440727 230.771216 
L 204.973091 225.887463 
L 205.505455 222.730028 
L 206.037818 220.878631 
L 206.570182 220.076818 
L 206.836364 219.953073 
L 207.102545 219.973342 
L 207.634909 220.346237 
L 209.498182 222.262654 
L 210.030545 222.334082 
L 210.296727 222.199355 
L 210.562909 221.890224 
L 211.095273 220.692263 
L 211.627636 218.574607 
L 212.16 215.298009 
L 212.692364 210.74298 
L 213.224727 204.728945 
L 214.023273 192.396881 
L 214.821818 175.594172 
L 215.886545 149.01 
L 216.152727 148.510489 
L 216.418909 148.375288 
L 216.685091 148.619531 
L 216.951273 149.17761 
L 217.483636 151.152463 
L 218.016 154.178972 
L 218.814545 160.191576 
L 221.476364 182.908161 
L 222.008727 185.445552 
L 222.274909 186.116904 
L 222.541091 186.286085 
L 222.807273 185.894071 
L 223.073455 184.851913 
L 223.339636 183.0627 
L 223.872 176.913219 
L 224.404364 166.644526 
L 224.936727 151.248461 
L 225.469091 129.673552 
L 226.001455 100.675006 
L 226.533818 62.897883 
L 227.066182 21.927273 
L 227.864727 48.642818 
L 228.663273 66.517004 
L 229.195636 74.451089 
L 229.728 79.832352 
L 230.260364 83.126734 
L 230.792727 84.698969 
L 231.058909 84.972426 
L 231.325091 84.959803 
L 231.591273 84.689366 
L 232.123636 83.542853 
L 232.922182 80.829935 
L 234.519273 74.878532 
L 235.051636 73.581018 
L 235.317818 73.19327 
L 235.584 73.005909 
L 235.850182 73.063055 
L 236.116364 73.392499 
L 236.382545 74.178493 
L 237.181091 83.542994 
L 238.245818 99.458058 
L 240.109091 127.774314 
L 240.641455 133.677594 
L 241.173818 137.551756 
L 241.44 138.49832 
L 241.706182 138.66693 
L 241.972364 137.9539 
L 242.238545 136.248378 
L 242.504727 133.431684 
L 243.037091 123.951522 
L 243.835636 105.341394 
L 244.634182 86.907251 
L 245.432727 63.624678 
L 246.497455 24.597688 
L 246.763636 24.566227 
L 247.828364 55.943227 
L 248.893091 79.816007 
L 249.691636 93.33887 
L 250.490182 103.644738 
L 251.288727 111.06388 
L 252.087273 116.042209 
L 252.619636 118.212112 
L 253.152 119.562365 
L 253.684364 120.261298 
L 254.216727 120.429786 
L 254.749091 120.174517 
L 255.547636 119.335257 
L 256.612364 118.100665 
L 257.144727 117.78014 
L 257.410909 117.771853 
L 257.677091 117.886759 
L 257.943273 118.145187 
L 258.475636 119.224249 
L 259.008 121.175172 
L 259.540364 124.24724 
L 260.072727 128.603304 
L 260.338909 133.039476 
L 260.605091 131.891243 
L 261.137455 121.111671 
L 261.669818 114.511617 
L 262.202182 110.990723 
L 262.468364 110.076638 
L 262.734545 109.633325 
L 263.000727 109.534887 
L 263.266909 109.750407 
L 263.799273 110.798535 
L 264.597818 113.281379 
L 266.461091 119.396072 
L 267.259636 121.281476 
L 268.058182 122.593755 
L 268.856727 123.362491 
L 269.389091 123.623782 
L 270.187636 123.687967 
L 270.986182 123.475273 
L 271.784727 123.070215 
L 273.115636 122.129655 
L 275.511273 120.1278 
L 276.576 119.144666 
L 276.842182 118.225911 
L 277.374545 114.272202 
L 277.906909 108.779001 
L 278.439273 101.554031 
L 279.237818 86.826123 
L 280.036364 66.953927 
L 280.302545 72.464421 
L 281.101091 107.907314 
L 281.899636 133.792992 
L 282.698182 151.032185 
L 283.230545 158.285807 
L 283.762909 162.640957 
L 284.029091 163.886593 
L 284.295273 164.563106 
L 284.561455 164.718321 
L 284.827636 164.461491 
L 285.093818 163.811399 
L 285.626182 161.609877 
L 286.424727 156.95397 
L 287.489455 150.630094 
L 288.021818 148.39381 
L 288.554182 147.229899 
L 288.820364 147.188695 
L 289.086545 147.525828 
L 289.352727 148.2706 
L 289.618909 149.450364 
L 290.151273 153.321769 
L 290.683636 159.200348 
L 291.216 167.153886 
L 292.014545 183.007626 
L 292.813091 203.364357 
L 293.877818 232.253466 
L 294.676364 239.643096 
L 295.474909 244.63123 
L 296.007273 246.686719 
L 296.539636 247.78963 
L 296.805818 248.004405 
L 297.072 248.007065 
L 297.338182 247.807779 
L 297.870545 246.84706 
L 298.402909 245.215599 
L 299.201455 241.73778 
L 300.266182 235.784551 
L 302.395636 223.338924 
L 303.194182 220.013475 
L 303.726545 218.626328 
L 303.992727 218.26401 
L 304.258909 218.141248 
L 304.525091 218.277282 
L 304.791273 218.692954 
L 305.057455 219.409241 
L 305.589818 221.828435 
L 306.122182 225.761471 
L 306.654545 231.364048 
L 307.453091 243.214833 
L 308.251636 259.86008 
L 309.316364 284.418509 
L 310.381091 264.992535 
L 311.445818 246.767693 
L 312.776727 219.718284 
L 317.035636 127.972015 
L 317.834182 117.12062 
L 318.366545 112.429724 
L 318.632727 110.981032 
L 318.898909 110.219195 
L 319.165091 110.172425 
L 319.431273 110.863914 
L 319.697455 112.415292 
L 320.229818 118.075945 
L 320.762182 127.511479 
L 321.294545 141.144753 
L 321.826909 156.223049 
L 322.625455 155.492392 
L 323.956364 154.512612 
L 324.488727 153.816575 
L 325.021091 152.761092 
L 325.553455 151.228499 
L 326.085818 149.117655 
L 326.618182 146.345765 
L 327.150545 142.460543 
L 327.949091 134.483111 
L 328.747636 123.410701 
L 329.546182 108.65932 
L 330.344727 89.647048 
L 331.143273 65.783415 
L 331.675636 46.889314 
L 331.941818 47.141844 
L 332.740364 81.98059 
L 333.538909 107.849133 
L 334.337455 125.54809 
L 334.869818 133.211563 
L 335.402182 137.887923 
L 335.668364 139.185508 
L 335.934545 139.854156 
L 336.200727 139.885125 
L 336.466909 139.334754 
L 336.733091 138.256254 
L 337.265455 134.565152 
L 337.797818 129.107327 
L 338.596364 118.126226 
L 339.661091 99.629969 
L 341.524364 61.891399 
L 341.790545 56.362576 
L 342.056727 62.338294 
L 343.121455 95.019918 
L 343.653818 103.600514 
L 344.984727 121.89433 
L 348.711273 176.32676 
L 349.776 187.529166 
L 350.574545 193.175537 
L 351.106909 195.323539 
L 351.373091 195.845926 
L 351.639273 195.985533 
L 351.905455 195.740737 
L 352.171636 195.036019 
L 352.437818 193.930351 
L 352.970182 190.291743 
L 353.502545 184.717353 
L 354.034909 177.104275 
L 354.833455 161.70656 
L 355.632 141.026792 
L 356.430545 121.676 
L 356.962909 112.68134 
L 357.495273 106.426706 
L 358.027636 102.585305 
L 358.293818 101.463669 
L 358.56 100.827236 
L 358.826182 100.650181 
L 359.092364 100.846706 
L 359.358545 101.428205 
L 359.890909 103.507799 
L 361.754182 103.92915 
L 363.351273 104.491021 
L 364.416 105.026575 
L 365.746909 105.946331 
L 366.811636 106.967597 
L 367.876364 108.287302 
L 368.941091 109.986926 
L 370.005818 112.146278 
L 371.070545 114.871064 
L 372.135273 118.219503 
L 373.2 122.274634 
L 374.530909 128.373685 
L 376.128 137.054544 
L 377.192727 143.924702 
L 378.257455 149.814991 
L 379.056 153.183654 
L 379.854545 155.734739 
L 380.653091 157.56528 
L 381.451636 158.783088 
L 382.250182 159.43016 
L 382.782545 159.615502 
L 383.314909 159.617907 
L 383.847273 159.454704 
L 384.645818 158.889339 
L 385.178182 158.33751 
L 386.242909 156.810254 
L 387.573818 154.392843 
L 388.904727 151.409311 
L 390.235636 147.700197 
L 391.300364 144.085377 
L 392.365091 139.788759 
L 396.357818 121.614571 
L 398.753455 110.074918 
L 399.818182 106.107568 
L 400.350545 104.658174 
L 400.882909 103.698144 
L 401.415273 103.299669 
L 401.681455 103.341805 
L 401.947636 103.561767 
L 402.48 104.587194 
L 403.012364 106.483009 
L 403.544727 109.357744 
L 404.077091 113.323092 
L 404.875636 121.559602 
L 405.674182 132.879468 
L 406.472727 147.718578 
L 407.271273 166.405339 
L 407.803636 181.165244 
L 408.069818 184.490912 
L 408.602182 175.476606 
L 409.400727 163.972882 
L 410.199273 156.386007 
L 410.465455 155.508263 
L 410.731636 155.671115 
L 410.997818 156.785675 
L 411.530182 161.028887 
L 412.328727 170.784805 
L 416.055273 222.435364 
L 417.12 232.915373 
L 418.184727 241.107869 
L 418.983273 245.916718 
L 419.781818 249.720053 
L 420.580364 252.608477 
L 421.378909 254.714181 
L 421.911273 255.66923 
L 422.443636 256.272828 
L 422.976 256.505927 
L 423.242182 256.504812 
L 423.774545 256.126869 
L 424.306909 255.228392 
L 424.839273 253.75743 
L 425.371636 251.613607 
L 425.904 248.674164 
L 426.436364 244.672614 
L 426.436364 244.672614 
" clip-path="url(#p22b05a186f)" style="fill: none; stroke: #0000ff; stroke-width: 3; stroke-linecap: square"/>
   </g>
   <g id="patch_3">
    <path d="M 7.2 331.2 
L 7.2 7.2 
" style="fill: none; stroke: #000000; stroke-width: 0.8; stroke-linejoin: miter; stroke-linecap: square"/>
   </g>
   <g id="patch_4">
    <path d="M 446.4 331.2 
L 446.4 7.2 
" style="fill: none; stroke: #000000; stroke-width: 0.8; stroke-linejoin: miter; stroke-linecap: square"/>
   </g>
   <g id="patch_5">
    <path d="M 7.2 331.2 
L 446.4 331.2 
" style="fill: none; stroke: #000000; stroke-width: 0.8; stroke-linejoin: miter; stroke-linecap: square"/>
   </g>
   <g id="patch_6">
    <path d="M 7.2 7.2 
L 446.4 7.2 
" style="fill: none; stroke: #000000; stroke-width: 0.8; stroke-linejoin: miter; stroke-linecap: square"/>
   </g>
  </g>
 </g>
 <defs>
  <clipPath id="p22b05a186f">
   <rect x="7.2" y="7.2" width="439.2" height="324"/>
  </clipPath>
 </defs>
</svg>
