<?xml version="1.0" encoding="utf-8" standalone="no"?>
<!DOCTYPE svg PUBLIC "-//W3C//DTD SVG 1.1//EN"
  "http://www.w3.org/Graphics/SVG/1.1/DTD/svg11.dtd">
<svg xmlns:xlink="http://www.w3.org/1999/xlink" width="453.6pt" height="338.4pt" viewBox="0 0 453.6 338.4" xmlns="http://www.w3.org/2000/svg" version="1.1">
 <metadata>
  <rdf:RDF xmlns:dc="http://purl.org/dc/elements/1.1/" xmlns:cc="http://creativecommons.org/ns#" xmlns:rdf="http://www.w3.org/1999/02/22-rdf-syntax-ns#">
   <cc:Work>
    <dc:type rdf:resource="http://purl.org/dc/dcmitype/StillImage"/>
    <dc:date>2025-05-15T18:07:37.851855</dc:date>
    <dc:format>image/svg+xml</dc:format>
    <dc:creator>
     <cc:Agent>
      <dc:title>Matplotlib v3.10.1, https://matplotlib.org/</dc:title>
     </cc:Agent>
    </dc:creator>
   </cc:Work>
  </rdf:RDF>
 </metadata>
 <defs>
  <style type="text/css">*{stroke-linejoin: round; stroke-linecap: butt}</style>
 </defs>
 <g id="figure_1">
  <g id="patch_1">
   <path d="M 0 338.4 
L 453.6 338.4 
L 453.6 0 
L 0 0 
z
" style="fill: #ffffff"/>
  </g>
  <g id="axes_1">
   <g id="patch_2">
    <path d="M 7.2 331.2 
L 446.4 331.2 
L 446.4 7.2 
L 7.2 7.2 
z
" style="fill: #ffffff"/>
   </g>
   <g id="matplotlib.axis_1"/>
   <g id="matplotlib.axis_2"/>
   <g id="line2d_1">
    <path d="M 27.163636 209.010305 
L 27.441681 209.070126 
L 27.719727 208.878794 
L 27.997772 208.418977 
L 28.553862 206.624171 
L 29.109952 203.588395 
L 29.666042 199.326439 
L 30.500177 191.057446 
L 32.446493 170.149546 
L 33.002583 165.846044 
L 33.558673 162.930381 
L 33.836718 162.044942 
L 34.114763 161.552247 
L 34.392808 161.44928 
L 34.670853 161.726527 
L 34.948898 162.367031 
L 35.504989 164.64351 
L 36.061079 168.04405 
L 36.895214 174.616588 
L 39.119575 193.144007 
L 39.675665 196.354723 
L 40.231755 198.475197 
L 40.5098 199.060308 
L 40.787845 199.296764 
L 41.06589 199.163275 
L 41.343935 198.63968 
L 41.62198 197.709682 
L 42.17807 194.567925 
L 42.734161 189.649732 
L 43.290251 182.927878 
L 44.124386 169.634241 
L 45.236566 147.293001 
L 46.904837 112.934046 
L 47.460927 104.35003 
L 48.017017 98.486389 
L 48.295062 96.751216 
L 48.573107 95.874633 
L 48.851152 95.877647 
L 49.129197 96.760165 
L 49.407242 98.500237 
L 49.963332 104.360581 
L 50.519423 112.892312 
L 51.631603 134.711935 
L 53.021828 162.285826 
L 53.855964 175.635798 
L 54.690099 185.9873 
L 55.524234 193.59073 
L 56.080324 197.148782 
L 56.636414 199.265488 
L 56.914459 199.657195 
L 57.192504 199.513343 
L 57.47055 198.757625 
L 57.748595 197.30912 
L 58.304685 192.031438 
L 58.860775 183.171682 
L 59.416865 170.492642 
L 60.251 144.803712 
L 63.031451 46.163646 
L 63.587541 35.22157 
L 63.865586 31.81208 
L 64.143631 29.845067 
L 64.421676 29.325994 
L 64.699721 30.224338 
L 64.977767 32.478585 
L 65.533857 40.651205 
L 66.089947 52.819933 
L 67.202127 84.029689 
L 68.870398 130.5797 
L 69.704533 148.5384 
L 70.538668 162.045225 
L 71.094758 168.619929 
L 71.650848 173.260498 
L 72.206938 175.886856 
L 72.484984 176.397074 
L 72.763029 176.339326 
L 73.041074 175.69072 
L 73.319119 174.430343 
L 73.875209 170.024158 
L 74.431299 163.135184 
L 75.265434 148.748196 
L 77.76784 100.470642 
L 78.32393 95.122683 
L 78.601975 93.822552 
L 78.88002 93.507245 
L 79.158065 94.199657 
L 79.43611 95.896206 
L 79.992201 102.167662 
L 80.548291 111.827318 
L 81.382426 130.842439 
L 83.328741 177.863761 
L 84.162877 191.636999 
L 84.718967 197.382506 
L 85.275057 200.313243 
L 85.553102 200.776734 
L 85.831147 200.623179 
L 86.109192 199.899209 
L 86.665282 196.947841 
L 87.221372 192.352585 
L 88.055508 183.264004 
L 89.723778 161.306087 
L 91.114004 144.193919 
L 91.670094 139.159948 
L 92.226184 135.915318 
L 92.504229 135.124179 
L 92.782274 134.966761 
L 93.060319 135.494219 
L 93.338364 136.748284 
L 93.894454 141.547966 
L 94.450544 149.457658 
L 95.006635 160.332284 
L 95.84077 181.301607 
L 98.899266 266.904463 
L 99.455356 276.839576 
L 100.011446 283.502739 
L 100.289491 285.509036 
L 100.567536 286.598241 
L 100.845581 286.754623 
L 101.123626 285.972057 
L 101.401671 284.248942 
L 101.957761 278.013849 
L 102.513852 268.171905 
L 103.347987 247.159342 
L 104.182122 219.807117 
L 106.128438 144.307249 
L 107.240618 106.883501 
L 107.796708 93.479361 
L 108.352798 84.906084 
L 108.630843 82.640062 
L 108.908888 81.787501 
L 109.186933 82.367337 
L 109.464978 84.372786 
L 110.021069 92.510362 
L 110.577159 105.666176 
L 111.411294 132.882556 
L 112.801519 188.855673 
L 114.191745 243.492953 
L 115.303925 278.349315 
L 116.13806 297.405039 
L 116.69415 306.484671 
L 117.250241 312.63724 
L 117.806331 315.89958 
L 118.084376 316.472727 
L 118.362421 316.360623 
L 118.640466 315.584368 
L 118.918511 314.168364 
L 119.474601 309.544563 
L 120.030691 302.797934 
L 120.864827 289.60114 
L 123.645277 240.927828 
L 124.479413 231.566616 
L 125.035503 227.577762 
L 125.591593 225.347444 
L 125.869638 224.833741 
L 126.147683 224.674156 
L 126.425728 224.828277 
L 126.703773 225.250789 
L 127.259863 226.712483 
L 128.372044 230.839066 
L 129.484224 234.637908 
L 130.040314 235.936626 
L 130.596404 236.693945 
L 130.874449 236.848537 
L 131.152494 236.844769 
L 131.430539 236.677365 
L 131.98663 235.835355 
L 132.54272 234.306492 
L 133.09881 232.107639 
L 133.932945 227.725947 
L 136.435351 213.268588 
L 136.991441 211.523052 
L 137.269486 211.015849 
L 137.547531 210.764979 
L 137.825576 210.770914 
L 138.103621 211.02574 
L 138.659711 212.208869 
L 139.215801 214.097409 
L 140.884072 220.568958 
L 141.440162 221.699896 
L 141.718207 221.871445 
L 141.996252 221.734564 
L 142.274297 221.262782 
L 142.552342 220.437447 
L 143.108433 217.686831 
L 143.664523 213.490065 
L 144.498658 204.813822 
L 145.888883 186.568172 
L 147.279109 168.88785 
L 148.113244 160.683388 
L 148.947379 154.879568 
L 149.503469 152.314726 
L 150.059559 150.676679 
L 150.61565 149.845503 
L 150.893695 149.70052 
L 151.17174 149.723789 
L 151.449785 149.9122 
L 152.005875 150.787653 
L 152.561965 152.369554 
L 153.118055 154.746644 
L 153.674145 158.016144 
L 154.508281 164.730179 
L 155.342416 173.510708 
L 158.122867 205.73732 
L 158.678957 209.467391 
L 159.235047 211.381743 
L 159.513092 211.606706 
L 159.791137 211.341989 
L 160.069182 210.599743 
L 160.625272 207.803626 
L 161.181362 203.568329 
L 163.961813 179.439727 
L 164.517903 177.190568 
L 164.795948 176.536686 
L 165.073993 176.174183 
L 165.352038 176.072535 
L 165.630084 176.195285 
L 166.186174 176.942713 
L 168.132489 180.531005 
L 168.688579 181.035287 
L 170.078805 181.999105 
L 170.634895 183.005598 
L 171.190985 184.835448 
L 171.747075 187.73293 
L 172.303165 191.827295 
L 173.137301 200.142448 
L 174.527526 217.698419 
L 175.639706 231.222389 
L 176.473841 238.689597 
L 177.029932 241.82542 
L 177.586022 243.379059 
L 177.864067 243.585652 
L 178.142112 243.444061 
L 178.420157 242.987352 
L 178.976247 241.294759 
L 179.810382 237.497425 
L 181.478653 229.539971 
L 182.312788 226.86698 
L 182.868878 225.801703 
L 183.146923 225.504296 
L 183.424968 225.372973 
L 183.703013 225.417627 
L 183.981058 225.649938 
L 184.259104 226.08319 
L 184.815194 227.612147 
L 185.371284 230.128096 
L 185.927374 233.731744 
L 186.761509 241.234468 
L 187.87369 254.505967 
L 189.820005 278.716434 
L 190.376095 283.422193 
L 190.932185 286.22547 
L 191.21023 286.785616 
L 191.488276 286.729093 
L 191.766321 286.021797 
L 192.044366 284.638011 
L 192.600456 279.772479 
L 193.156546 272.078989 
L 193.712636 261.637897 
L 194.546771 241.348645 
L 195.658952 207.99816 
L 197.605267 148.287719 
L 198.439402 129.738538 
L 198.995493 121.740481 
L 199.273538 119.273801 
L 199.551583 117.89708 
L 199.829628 117.641783 
L 200.107673 118.523736 
L 200.385718 120.54228 
L 200.941808 127.903036 
L 201.497898 139.387172 
L 202.332033 163.02176 
L 203.722259 212.238732 
L 205.112484 259.983929 
L 205.946619 281.816647 
L 206.50271 292.115205 
L 207.0588 298.566971 
L 207.336845 300.301202 
L 207.61489 301.041564 
L 207.892935 300.805485 
L 208.17098 299.621697 
L 208.449025 297.53118 
L 209.005115 290.839849 
L 209.561205 281.242087 
L 210.395341 262.773735 
L 213.453836 189.582186 
L 214.287972 177.406958 
L 214.844062 172.484714 
L 215.122107 171.027353 
L 215.400152 170.237816 
L 215.678197 170.104892 
L 215.956242 170.607385 
L 216.234287 171.717504 
L 216.790377 175.616015 
L 217.346467 181.448662 
L 218.180603 192.887296 
L 220.961053 234.923445 
L 221.517144 240.553079 
L 222.073234 244.248011 
L 222.351279 245.248004 
L 222.629324 245.621812 
L 222.907369 245.329303 
L 223.185414 244.332985 
L 223.463459 242.601674 
L 224.019549 236.84524 
L 224.575639 227.970693 
L 225.409775 209.045821 
L 226.521955 175.432597 
L 228.746316 104.035383 
L 229.580451 86.237963 
L 230.136541 79.299248 
L 230.414586 77.45084 
L 230.692631 76.696912 
L 230.970676 77.023429 
L 231.248721 78.39478 
L 231.804811 84.041653 
L 232.360901 93.019449 
L 233.195037 110.945836 
L 235.697442 169.49444 
L 236.531578 182.706024 
L 237.087668 188.33773 
L 237.365713 190.065555 
L 237.643758 191.013547 
L 237.921803 191.141949 
L 238.199848 190.416848 
L 238.477893 188.805838 
L 239.033983 182.834332 
L 239.590073 173.132849 
L 240.146164 159.803413 
L 240.980299 133.891028 
L 243.76075 37.815616 
L 244.31684 27.148713 
L 244.594885 23.895322 
L 244.87293 22.140366 
L 245.150975 21.927273 
L 245.42902 23.263862 
L 245.707065 26.123474 
L 246.263155 36.12877 
L 246.819245 51.065542 
L 247.931426 90.274109 
L 249.321651 140.43097 
L 250.155786 163.076964 
L 250.711876 173.479055 
L 251.267967 179.914806 
L 251.546012 181.692466 
L 251.824057 182.565846 
L 252.102102 182.59147 
L 252.380147 181.831702 
L 252.658192 180.354558 
L 253.214282 175.522657 
L 254.048417 164.586892 
L 255.160598 145.690564 
L 257.106913 111.480735 
L 257.941048 101.221178 
L 258.497139 97.360349 
L 258.775184 96.520224 
L 259.053229 96.473215 
L 259.331274 97.252955 
L 259.609319 98.878096 
L 260.165409 104.65714 
L 260.721499 113.617036 
L 261.555634 131.915536 
L 264.336085 200.06567 
L 264.892175 208.670883 
L 265.448265 214.466883 
L 266.004356 217.46639 
L 266.282401 217.980564 
L 266.560446 217.8922 
L 266.838491 217.250659 
L 267.394581 214.52303 
L 267.950671 210.230833 
L 268.784806 201.713798 
L 270.175032 184.336252 
L 272.399392 155.563878 
L 273.233527 147.842691 
L 273.789618 144.882374 
L 274.067663 144.246674 
L 274.345708 144.246486 
L 274.623753 144.926651 
L 274.901798 146.320234 
L 275.457888 151.312567 
L 276.013978 159.191831 
L 276.848113 175.682242 
L 279.628564 238.742258 
L 280.184654 246.135421 
L 280.740744 250.49309 
L 281.01879 251.534533 
L 281.296835 251.857093 
L 281.57488 251.508909 
L 281.852925 250.550085 
L 282.409015 247.075405 
L 283.24315 238.996613 
L 284.35533 224.925497 
L 285.467511 207.691521 
L 286.579691 186.372978 
L 288.804052 139.691173 
L 289.360142 131.938616 
L 289.916232 127.640579 
L 290.194277 126.958248 
L 290.472322 127.285612 
L 290.750367 128.604962 
L 291.306457 133.983537 
L 291.862547 142.331003 
L 294.364953 186.089513 
L 294.921043 192.097571 
L 295.477133 196.44874 
L 296.311269 201.114367 
L 297.423449 207.238486 
L 298.257584 213.404338 
L 299.925855 227.05737 
L 300.481945 230.150235 
L 301.038035 231.782724 
L 301.31608 231.995534 
L 301.594125 231.806558 
L 301.87217 231.23407 
L 302.42826 229.072711 
L 303.262396 224.000492 
L 305.486756 209.066452 
L 306.320891 205.236051 
L 307.155027 202.629853 
L 307.711117 201.47932 
L 308.267207 200.702689 
L 309.101342 200.010089 
L 310.213522 199.258611 
L 310.769613 198.599266 
L 311.325703 197.541619 
L 311.881793 195.960378 
L 312.437883 193.7798 
L 313.272018 189.349122 
L 314.106153 183.636681 
L 315.218334 174.401987 
L 316.886604 158.127213 
L 318.554875 142.094735 
L 319.110965 138.212804 
L 319.667055 135.820924 
L 319.9451 135.328134 
L 320.223145 135.369962 
L 320.50119 135.984465 
L 320.779235 137.197739 
L 321.335325 141.454797 
L 321.891416 148.04627 
L 322.725551 161.464164 
L 324.949911 201.066793 
L 325.506002 207.86062 
L 326.062092 212.472739 
L 326.618182 214.80998 
L 326.896227 215.145823 
L 327.174272 214.951854 
L 327.452317 214.252 
L 328.008407 211.420745 
L 328.564497 206.786205 
L 329.120587 200.372686 
L 329.954723 187.164588 
L 330.788858 169.056666 
L 331.622993 145.658722 
L 332.735173 107.69772 
L 334.403444 50.803179 
L 334.959534 37.134415 
L 335.515624 28.28634 
L 335.793669 25.962099 
L 336.071714 25.137612 
L 336.349759 25.84764 
L 336.627805 28.09303 
L 337.183895 37.018353 
L 337.739985 51.242554 
L 338.57412 79.931651 
L 340.520436 153.408359 
L 341.354571 175.40132 
L 341.910661 184.354905 
L 342.188706 186.971937 
L 342.466751 188.34131 
L 342.744796 188.484408 
L 343.022841 187.441646 
L 343.300886 185.269924 
L 343.856976 177.83126 
L 344.413067 166.836334 
L 345.247202 145.314307 
L 346.915472 93.408895 
L 348.305698 52.838586 
L 349.139833 35.118886 
L 349.695923 27.774804 
L 349.973968 25.723665 
L 350.252013 24.85622 
L 350.530058 25.231817 
L 350.808103 26.891909 
L 351.086148 29.858538 
L 351.642239 39.686068 
L 352.198329 54.42482 
L 353.032464 84.163273 
L 356.09096 206.40439 
L 356.64705 219.700382 
L 357.20314 228.283927 
L 357.481185 230.785181 
L 357.75923 232.12469 
L 358.037275 232.350972 
L 358.31532 231.531101 
L 358.593365 229.744868 
L 359.149456 223.647409 
L 359.983591 209.761689 
L 363.042087 151.583125 
L 363.598177 145.410962 
L 364.154267 141.807691 
L 364.432312 141.080706 
L 364.710357 141.120178 
L 364.988402 141.954746 
L 365.266447 143.607489 
L 365.822537 149.409519 
L 366.378628 158.506485 
L 367.212763 177.806578 
L 368.324943 211.33059 
L 370.271259 272.40136 
L 371.105394 291.259347 
L 371.661484 299.482367 
L 372.217574 303.718794 
L 372.495619 304.276303 
L 372.773664 303.786339 
L 373.051709 302.259831 
L 373.607799 296.201374 
L 374.16389 286.411809 
L 374.998025 265.771828 
L 376.110205 230.380379 
L 378.334566 155.215035 
L 379.168701 133.874542 
L 379.724791 123.771083 
L 380.280881 117.640558 
L 380.558926 116.194031 
L 380.836971 115.869304 
L 381.115016 116.680509 
L 381.393062 118.626232 
L 381.949152 125.840121 
L 382.505242 137.185775 
L 383.339377 160.659271 
L 384.729602 209.826691 
L 386.119828 258.086911 
L 386.953963 280.810813 
L 387.510053 292.09269 
L 388.066143 299.921271 
L 388.622233 304.218555 
L 388.900279 305.070173 
L 389.178324 305.093442 
L 389.456369 304.326891 
L 389.734414 302.81621 
L 390.290504 297.786572 
L 390.846594 290.496941 
L 391.680729 276.540661 
L 394.739225 221.636967 
L 395.57336 211.265117 
L 396.407496 203.85349 
L 396.963586 200.529256 
L 397.519676 198.438645 
L 397.797721 197.837802 
L 398.075766 197.524474 
L 398.353811 197.492821 
L 398.631856 197.736625 
L 398.909901 198.249009 
L 399.465991 200.052858 
L 400.022082 202.825895 
L 400.856217 208.51403 
L 403.636668 229.962765 
L 404.192758 232.142212 
L 404.470803 232.720918 
L 404.748848 232.93109 
L 405.026893 232.761426 
L 405.304938 232.208251 
L 405.861028 229.972657 
L 406.417118 226.33698 
L 407.251253 218.732419 
L 408.641479 202.71737 
L 410.587794 180.285693 
L 411.699975 169.835181 
L 412.53411 163.516528 
L 413.368245 158.647228 
L 413.924335 156.306783 
L 414.480425 154.789979 
L 414.75847 154.371612 
L 415.036516 154.196389 
L 415.314561 154.276747 
L 415.592606 154.622858 
L 415.870651 155.243296 
L 416.426741 157.326654 
L 416.982831 160.532 
L 417.816966 167.279477 
L 418.929147 178.937517 
L 420.597417 197.120803 
L 421.431552 203.866773 
L 421.987642 206.787053 
L 422.543733 208.248465 
L 422.821778 208.416904 
L 423.099823 208.219543 
L 423.377868 207.672491 
L 423.933958 205.634447 
L 424.490048 202.573706 
L 425.602228 194.805605 
L 426.436364 188.982285 
L 426.436364 188.982285 
" clip-path="url(#pb3a2299e0d)" style="fill: none; stroke-dasharray: 11.1,4.8; stroke-dashoffset: 0; stroke: #000000; stroke-width: 3"/>
   </g>
   <g id="line2d_2">
    <path d="M 27.163636 140.596018 
L 28.831907 142.65036 
L 30.500177 144.334191 
L 31.890403 145.435643 
L 33.002583 146.130975 
L 34.114763 146.554053 
L 35.226944 146.701767 
L 36.617169 146.568937 
L 37.451304 146.397294 
L 38.285439 146.010863 
L 39.119575 145.396171 
L 39.95371 144.526748 
L 40.231755 144.176491 
L 40.5098 144.170274 
L 40.787845 144.625287 
L 43.568296 151.091089 
L 45.236566 154.512355 
L 46.070701 155.449512 
L 46.626792 155.793174 
L 47.182882 155.924497 
L 47.738972 155.846683 
L 48.295062 155.56369 
L 48.851152 155.087009 
L 49.685287 154.02616 
L 50.519423 152.576429 
L 51.631603 150.101836 
L 52.743783 147.08509 
L 54.412054 141.851591 
L 55.246189 139.27714 
L 58.02664 133.119012 
L 58.860775 131.512995 
L 59.972955 129.772452 
L 60.80709 128.22748 
L 61.085135 128.096063 
L 64.699721 132.498197 
L 74.153254 143.774045 
L 77.21175 148.109387 
L 85.275057 158.901206 
L 87.499418 162.191243 
L 88.889643 164.626176 
L 90.279868 167.454888 
L 91.392049 170.157459 
L 92.504229 173.394364 
L 93.894454 178.232859 
L 95.28468 183.990894 
L 96.39686 188.715024 
L 98.06513 191.781605 
L 99.733401 194.372919 
L 101.401671 196.523351 
L 103.069942 198.268133 
L 104.738212 199.643912 
L 106.128438 200.524263 
L 107.518663 201.181065 
L 108.352798 201.448515 
L 109.464978 201.56175 
L 112.801519 203.601772 
L 114.46979 204.139027 
L 116.13806 204.455369 
L 117.806331 204.538553 
L 119.474601 204.377367 
L 121.142872 203.961261 
L 122.533097 203.395462 
L 125.869638 201.452848 
L 129.484224 200.423369 
L 132.264675 199.597939 
L 137.269486 197.963472 
L 140.606027 197.773082 
L 143.108433 197.850143 
L 145.610838 198.173079 
L 147.557154 198.684333 
L 149.225424 199.347164 
L 151.17174 200.231472 
L 152.84001 200.176362 
L 154.230236 199.934913 
L 155.620461 199.466428 
L 157.010686 198.724182 
L 158.400912 197.676993 
L 159.791137 196.286894 
L 161.181362 194.520633 
L 162.571588 192.400818 
L 163.961813 189.874412 
L 166.464219 185.026685 
L 167.576399 183.681146 
L 168.688579 182.637725 
L 169.80076 181.881725 
L 170.91294 181.553041 
L 172.303165 181.410132 
L 173.693391 181.486344 
L 176.195796 181.908479 
L 178.420157 182.463162 
L 178.976247 182.771591 
L 184.537149 187.526055 
L 185.371284 188.11955 
L 187.039554 188.27904 
L 188.707825 188.394442 
L 192.044366 188.545454 
L 195.658952 188.443146 
L 196.493087 188.311918 
L 208.17098 185.603506 
L 211.785566 185.078687 
L 216.790377 184.627819 
L 220.126918 184.286606 
L 224.575639 183.428864 
L 225.409775 183.106869 
L 227.634135 182.263069 
L 229.580451 181.756714 
L 231.526766 181.473061 
L 233.195037 181.435473 
L 234.029172 181.567738 
L 234.585262 182.331745 
L 235.975487 184.304505 
L 237.365713 185.883768 
L 238.477893 186.863035 
L 239.590073 187.59247 
L 240.702254 188.073954 
L 241.814434 188.310882 
L 242.926614 188.308055 
L 244.038795 188.071317 
L 245.707065 187.419131 
L 247.653381 186.43082 
L 249.321651 185.346984 
L 251.267967 183.779403 
L 252.936237 182.137776 
L 254.604507 180.159929 
L 255.160598 179.414291 
L 255.438643 179.365587 
L 258.775184 180.787244 
L 263.779995 183.240924 
L 266.838491 184.767055 
L 268.506761 185.997003 
L 270.175032 186.990684 
L 271.843302 187.765243 
L 273.789618 188.412058 
L 275.457888 188.734147 
L 277.126159 188.527931 
L 279.628564 187.939335 
L 281.852925 187.257474 
L 284.077285 186.396435 
L 286.301646 185.303461 
L 288.804052 183.823868 
L 291.028412 182.500467 
L 296.311269 179.883435 
L 297.701494 179.180285 
L 298.535629 178.464322 
L 304.374576 173.208214 
L 308.267207 170.018788 
L 312.715928 166.695214 
L 313.828108 165.790086 
L 314.940289 164.143749 
L 316.052469 163.056428 
L 316.886604 162.500049 
L 317.720739 162.161003 
L 318.554875 162.016398 
L 319.38901 162.057189 
L 320.223145 162.272166 
L 321.335325 162.816015 
L 322.447506 163.635698 
L 323.559686 164.711526 
L 324.949911 166.383488 
L 326.618182 168.807586 
L 328.564497 172.103747 
L 331.066903 176.841442 
L 331.344948 177.423727 
L 331.622993 177.731591 
L 334.403444 176.721518 
L 336.071714 176.684401 
L 337.46194 176.877051 
L 338.852165 177.319253 
L 339.964345 177.880247 
L 341.076526 178.650849 
L 342.188706 179.648769 
L 343.300886 180.893508 
L 344.691112 182.826419 
L 346.637427 185.745192 
L 348.861788 186.77825 
L 350.252013 187.58352 
L 354.144644 191.075628 
L 355.53487 191.883347 
L 356.64705 192.269402 
L 357.75923 192.381506 
L 358.593365 192.261677 
L 359.427501 191.950987 
L 360.261636 191.468183 
L 360.539681 191.540721 
L 366.656673 196.033387 
L 368.324943 196.688681 
L 369.715168 197.889615 
L 371.105394 198.805105 
L 372.217574 199.293467 
L 373.329754 199.536046 
L 374.441935 199.504864 
L 375.27607 199.423 
L 377.50043 199.654086 
L 379.724791 200.114186 
L 382.227197 200.867266 
L 383.617422 201.486385 
L 385.841783 202.508516 
L 388.066143 203.336678 
L 393.070955 205.358896 
L 397.519676 206.86204 
L 399.744036 207.639048 
L 402.524487 209.144454 
L 405.582983 211.507885 
L 407.807344 212.638352 
L 410.031704 213.511827 
L 412.256065 214.131323 
L 414.480425 214.500515 
L 416.704786 214.622417 
L 417.538921 214.548654 
L 418.373056 213.966557 
L 419.207192 213.042306 
L 420.597417 211.57364 
L 421.987642 210.474072 
L 423.377868 209.675491 
L 424.768093 209.158302 
L 426.158319 208.901498 
L 426.436364 208.879265 
L 426.436364 208.879265 
" clip-path="url(#pb3a2299e0d)" style="fill: none; stroke: #ff00ff; stroke-width: 3; stroke-linecap: square"/>
   </g>
   <g id="patch_3">
    <path d="M 7.2 331.2 
L 7.2 7.2 
" style="fill: none; stroke: #000000; stroke-width: 0.8; stroke-linejoin: miter; stroke-linecap: square"/>
   </g>
   <g id="patch_4">
    <path d="M 446.4 331.2 
L 446.4 7.2 
" style="fill: none; stroke: #000000; stroke-width: 0.8; stroke-linejoin: miter; stroke-linecap: square"/>
   </g>
   <g id="patch_5">
    <path d="M 7.2 331.2 
L 446.4 331.2 
" style="fill: none; stroke: #000000; stroke-width: 0.8; stroke-linejoin: miter; stroke-linecap: square"/>
   </g>
   <g id="patch_6">
    <path d="M 7.2 7.2 
L 446.4 7.2 
" style="fill: none; stroke: #000000; stroke-width: 0.8; stroke-linejoin: miter; stroke-linecap: square"/>
   </g>
  </g>
 </g>
 <defs>
  <clipPath id="pb3a2299e0d">
   <rect x="7.2" y="7.2" width="439.2" height="324"/>
  </clipPath>
 </defs>
</svg>
