<?xml version="1.0" encoding="utf-8" standalone="no"?>
<!DOCTYPE svg PUBLIC "-//W3C//DTD SVG 1.1//EN"
  "http://www.w3.org/Graphics/SVG/1.1/DTD/svg11.dtd">
<svg xmlns:xlink="http://www.w3.org/1999/xlink" width="453.6pt" height="338.4pt" viewBox="0 0 453.6 338.4" xmlns="http://www.w3.org/2000/svg" version="1.1">
 <metadata>
  <rdf:RDF xmlns:dc="http://purl.org/dc/elements/1.1/" xmlns:cc="http://creativecommons.org/ns#" xmlns:rdf="http://www.w3.org/1999/02/22-rdf-syntax-ns#">
   <cc:Work>
    <dc:type rdf:resource="http://purl.org/dc/dcmitype/StillImage"/>
    <dc:date>2025-05-15T17:25:48.511882</dc:date>
    <dc:format>image/svg+xml</dc:format>
    <dc:creator>
     <cc:Agent>
      <dc:title>Matplotlib v3.10.1, https://matplotlib.org/</dc:title>
     </cc:Agent>
    </dc:creator>
   </cc:Work>
  </rdf:RDF>
 </metadata>
 <defs>
  <style type="text/css">*{stroke-linejoin: round; stroke-linecap: butt}</style>
 </defs>
 <g id="figure_1">
  <g id="patch_1">
   <path d="M 0 338.4 
L 453.6 338.4 
L 453.6 0 
L 0 0 
z
" style="fill: #ffffff"/>
  </g>
  <g id="axes_1">
   <g id="patch_2">
    <path d="M 7.2 331.2 
L 446.4 331.2 
L 446.4 7.2 
L 7.2 7.2 
z
" style="fill: #ffffff"/>
   </g>
   <g id="matplotlib.axis_1"/>
   <g id="matplotlib.axis_2"/>
   <g id="line2d_1">
    <path d="M 27.163636 316.472727 
L 28.553862 316.19965 
L 29.944087 315.699087 
L 31.334312 314.958996 
L 33.002583 313.831412 
L 34.670853 312.43437 
L 35.783034 311.203718 
L 36.895214 309.562211 
L 38.007394 307.400282 
L 39.119575 304.713222 
L 41.06589 299.218392 
L 42.456115 295.460284 
L 43.290251 293.645855 
L 44.124386 292.353783 
L 44.680476 291.837928 
L 45.236566 291.619163 
L 45.792656 291.699301 
L 46.348747 292.065302 
L 46.904837 292.688653 
L 47.738972 294.007611 
L 50.519423 298.971494 
L 51.075513 299.499166 
L 51.631603 299.72925 
L 52.187693 299.63759 
L 52.743783 299.223978 
L 53.299873 298.510095 
L 54.134009 296.96611 
L 55.246189 294.300128 
L 58.02664 286.695574 
L 64.421676 268.953183 
L 66.089947 264.383407 
L 66.924082 262.58995 
L 67.758217 261.257734 
L 68.870398 260.033877 
L 69.704533 259.129572 
L 70.260623 258.273643 
L 70.816713 257.036061 
L 71.372803 255.282249 
L 71.928893 252.917928 
L 72.763029 248.155401 
L 73.597164 242.060846 
L 75.265434 227.608747 
L 76.933705 213.857269 
L 78.045885 206.66382 
L 78.88002 202.473898 
L 79.714155 199.184729 
L 80.826336 195.844958 
L 81.938516 193.261065 
L 83.606787 190.062042 
L 86.109192 185.800344 
L 86.943327 184.660462 
L 87.777463 183.907108 
L 88.333553 183.719569 
L 88.889643 183.844211 
L 89.445733 184.313679 
L 90.001823 185.141005 
L 90.557913 186.319328 
L 91.392049 188.697292 
L 92.226184 191.725842 
L 93.338364 196.690291 
L 94.450544 202.83504 
L 95.562725 210.466782 
L 96.674905 219.688426 
L 99.733401 246.814989 
L 100.567536 252.149136 
L 101.401671 255.951689 
L 101.957761 257.671879 
L 102.513852 258.830233 
L 103.069942 259.530192 
L 103.626032 259.880406 
L 104.182122 259.981672 
L 105.016257 259.851919 
L 107.796708 259.104617 
L 108.630843 259.14814 
L 109.743024 259.474815 
L 111.411294 260.086475 
L 111.967384 260.119277 
L 112.523474 259.968441 
L 113.079564 259.587896 
L 113.635655 258.952049 
L 114.46979 257.522128 
L 115.58197 254.901752 
L 118.918511 246.326253 
L 120.030691 244.216736 
L 120.864827 243.034564 
L 121.698962 242.254811 
L 122.255052 241.975206 
L 122.811142 241.885223 
L 123.367232 241.967206 
L 124.201367 242.346963 
L 125.313548 243.151072 
L 127.259863 244.877846 
L 128.650089 246.360442 
L 130.040314 248.22889 
L 131.430539 250.575367 
L 132.820765 253.45562 
L 134.76708 258.183487 
L 136.435351 261.995984 
L 137.547531 263.900728 
L 138.381666 264.867617 
L 138.937756 265.272263 
L 139.493847 265.477022 
L 140.049937 265.478269 
L 140.606027 265.282053 
L 141.440162 264.683284 
L 142.830387 263.505844 
L 143.386478 263.319211 
L 143.942568 263.501976 
L 144.498658 264.170327 
L 145.054748 265.396051 
L 145.610838 267.19283 
L 146.444973 270.839777 
L 147.835199 278.47493 
L 150.059559 290.769423 
L 152.005875 300.185629 
L 153.674145 307.290752 
L 154.786326 311.046851 
L 155.620461 313.137758 
L 156.454596 314.57415 
L 157.010686 315.186951 
L 157.566776 315.543746 
L 158.122867 315.658288 
L 158.678957 315.536699 
L 159.235047 315.175203 
L 159.791137 314.560559 
L 160.347227 313.674276 
L 161.181362 311.79873 
L 162.015498 309.253573 
L 163.127678 304.941476 
L 167.020309 288.543316 
L 170.634895 275.845944 
L 172.58121 267.121294 
L 174.527526 258.662735 
L 177.586022 246.810185 
L 179.254292 240.793475 
L 180.088427 238.449546 
L 180.644518 237.329182 
L 181.200608 236.652734 
L 181.478653 236.499144 
L 181.756698 236.474952 
L 182.034743 236.582403 
L 182.590833 237.191361 
L 183.146923 238.303198 
L 183.981058 240.783325 
L 185.093239 245.088157 
L 186.761509 251.666452 
L 187.595644 254.231466 
L 188.42978 256.139761 
L 189.54196 257.969951 
L 190.65414 259.799988 
L 191.488276 261.740101 
L 192.322411 264.427151 
L 193.434591 269.118963 
L 196.493087 283.290506 
L 197.327222 286.038575 
L 197.883312 287.37181 
L 198.439402 288.232841 
L 198.717447 288.464501 
L 198.995493 288.550976 
L 199.273538 288.482639 
L 199.551583 288.250192 
L 200.107673 287.259607 
L 200.663763 285.525337 
L 201.219853 283.023129 
L 202.053988 277.886272 
L 203.166169 268.970858 
L 205.668574 247.374468 
L 206.50271 241.912794 
L 207.336845 237.747788 
L 208.449025 233.538142 
L 209.28316 230.290418 
L 209.83925 227.431852 
L 210.395341 223.58544 
L 210.951431 218.430745 
L 211.785566 207.802618 
L 212.619701 193.644743 
L 213.731881 170.578585 
L 215.956242 123.050239 
L 217.068422 104.488143 
L 217.902558 93.840685 
L 218.736693 86.150414 
L 219.292783 82.802388 
L 219.848873 81.032825 
L 220.126918 80.785384 
L 220.404963 80.98255 
L 220.683008 81.63302 
L 221.239099 84.287768 
L 221.795189 88.631914 
L 222.629324 97.582544 
L 224.297594 116.560722 
L 224.853684 120.417356 
L 225.13173 121.492605 
L 225.409775 121.919513 
L 225.68782 121.658058 
L 225.965865 120.685914 
L 226.24391 118.999049 
L 226.8 113.558174 
L 227.35609 105.67091 
L 228.46827 85.157883 
L 229.858496 59.83345 
L 230.414586 52.770268 
L 230.970676 48.584531 
L 231.248721 47.723265 
L 231.526766 47.731327 
L 231.804811 48.622847 
L 232.082856 50.394464 
L 232.638947 56.479109 
L 233.195037 65.630975 
L 234.029172 83.827534 
L 237.643758 172.164669 
L 238.755938 191.730036 
L 239.868119 207.715879 
L 240.980299 220.840028 
L 241.814434 228.710736 
L 242.648569 234.533408 
L 243.204659 237.13718 
L 243.76075 238.702598 
L 244.038795 239.117039 
L 244.31684 239.308643 
L 244.594885 239.301425 
L 244.87293 239.124631 
L 245.42902 238.402131 
L 246.5412 236.628173 
L 246.819245 236.366914 
L 247.09729 236.259558 
L 247.375336 236.340615 
L 247.653381 236.639426 
L 247.931426 237.179152 
L 248.487516 239.039615 
L 249.043606 241.964451 
L 249.877741 248.158252 
L 250.989921 258.669195 
L 252.658192 274.621996 
L 253.492327 280.924706 
L 254.326462 285.602415 
L 254.882553 287.825652 
L 255.438643 289.398459 
L 255.994733 290.390776 
L 256.550823 290.86198 
L 256.828868 290.914586 
L 257.106913 290.848411 
L 257.663003 290.359997 
L 258.219093 289.384584 
L 258.775184 287.896918 
L 259.331274 285.87601 
L 260.165409 281.868226 
L 261.277589 275.079182 
L 263.50195 260.734589 
L 264.61413 254.981201 
L 268.506761 237.446112 
L 269.340896 234.360036 
L 269.896987 232.952546 
L 270.453077 232.203464 
L 270.731122 232.09247 
L 271.009167 232.156932 
L 271.287212 232.39131 
L 271.843302 233.329026 
L 272.399392 234.797762 
L 273.233527 237.710552 
L 274.901798 244.739008 
L 278.516384 260.333225 
L 279.350519 263.057848 
L 280.184654 265.104568 
L 281.01879 266.516003 
L 282.13097 267.830054 
L 282.965105 268.88135 
L 283.521195 269.833468 
L 284.077285 271.092526 
L 284.911421 273.661058 
L 285.745556 277.046986 
L 286.857736 282.554027 
L 290.472322 301.547298 
L 291.862547 307.298137 
L 292.974728 310.878554 
L 293.808863 312.901517 
L 294.642998 314.347228 
L 295.477133 315.238445 
L 296.033224 315.539541 
L 296.589314 315.611498 
L 297.145404 315.450668 
L 297.701494 315.043156 
L 298.257584 314.364475 
L 298.813674 313.381848 
L 299.369764 312.058375 
L 300.2039 309.359031 
L 301.038035 305.740821 
L 302.150215 299.539014 
L 303.540441 290.202018 
L 305.486756 277.126181 
L 306.598936 271.303259 
L 307.433072 268.121844 
L 308.267207 265.940619 
L 308.823297 264.961732 
L 309.379387 264.28254 
L 310.213522 263.670227 
L 311.047658 263.373662 
L 312.159838 263.274229 
L 313.550063 263.439928 
L 314.384199 263.502575 
L 314.940289 263.379157 
L 315.496379 262.997321 
L 316.052469 262.23831 
L 316.608559 260.994513 
L 317.164649 259.191356 
L 317.998785 255.416475 
L 319.110965 248.859098 
L 320.779235 238.957354 
L 321.61337 235.575139 
L 322.169461 234.208317 
L 322.725551 233.548201 
L 323.003596 233.454494 
L 323.559686 233.645882 
L 324.115776 234.189591 
L 326.062092 236.439342 
L 327.174272 237.145832 
L 328.008407 237.807129 
L 328.564497 238.609486 
L 329.120587 239.889536 
L 329.676678 241.772017 
L 330.232768 244.328181 
L 331.066903 249.425824 
L 332.179083 258.134153 
L 334.681489 278.855638 
L 335.515624 283.749864 
L 336.071714 286.008415 
L 336.627805 287.368964 
L 336.90585 287.699536 
L 337.183895 287.795072 
L 337.46194 287.657446 
L 337.739985 287.291181 
L 338.296075 285.904384 
L 338.852165 283.724746 
L 339.6863 279.262004 
L 341.354571 268.290907 
L 342.466751 261.626305 
L 343.300886 257.844085 
L 344.135022 255.27923 
L 344.691112 254.153764 
L 345.525247 253.01775 
L 346.637427 251.678244 
L 347.193517 250.731165 
L 347.749607 249.431977 
L 348.305698 247.690489 
L 349.139833 244.089762 
L 349.973968 239.082159 
L 350.808103 232.367728 
L 351.642239 223.599866 
L 352.476374 212.482241 
L 353.588554 193.832206 
L 354.700734 171.125298 
L 356.09096 137.949508 
L 358.037275 85.114653 
L 359.427501 48.807804 
L 360.261636 32.305367 
L 360.817726 25.186611 
L 361.095771 23.053449 
L 361.373816 21.954359 
L 361.651861 21.927273 
L 361.929906 22.988296 
L 362.207951 25.130116 
L 362.764042 32.507677 
L 363.320132 43.535723 
L 364.154267 64.999913 
L 366.100582 118.070078 
L 366.934718 133.504159 
L 367.490808 139.640999 
L 367.768853 141.376892 
L 368.046898 142.229154 
L 368.324943 142.222877 
L 368.602988 141.399697 
L 368.881033 139.81584 
L 369.437123 134.657363 
L 370.271259 123.291403 
L 372.217574 93.694293 
L 373.051709 84.983119 
L 373.607799 81.417502 
L 373.885845 80.348781 
L 374.16389 79.759202 
L 374.441935 79.646365 
L 374.71998 80.005914 
L 374.998025 80.833375 
L 375.554115 83.876216 
L 376.110205 88.755116 
L 376.666295 95.461936 
L 377.50043 108.885386 
L 378.334566 125.993643 
L 379.724791 159.91291 
L 381.393062 200.122992 
L 382.227197 216.350172 
L 383.061332 228.876996 
L 383.895467 237.689978 
L 384.451557 241.718934 
L 385.007648 244.511387 
L 385.563738 246.312398 
L 386.119828 247.386566 
L 386.675918 248.012431 
L 387.788098 249.057181 
L 388.344188 250.003329 
L 388.900279 251.507545 
L 389.456369 253.687147 
L 390.290504 258.257144 
L 391.402684 266.195994 
L 393.070955 278.497001 
L 393.90509 283.132191 
L 394.46118 285.258459 
L 395.01727 286.482974 
L 395.295315 286.732565 
L 395.57336 286.730955 
L 395.851405 286.473294 
L 396.12945 285.956707 
L 396.685541 284.146316 
L 397.241631 281.326018 
L 398.075766 275.391753 
L 399.187946 265.224215 
L 401.134262 247.000527 
L 401.968397 240.921064 
L 402.802532 236.148114 
L 403.914713 231.174604 
L 405.861028 223.802312 
L 406.695163 221.192781 
L 407.251253 219.905432 
L 407.807344 219.120606 
L 408.085389 218.943817 
L 408.363434 218.919447 
L 408.641479 219.049935 
L 409.197569 219.771048 
L 409.753659 221.075395 
L 410.309749 222.906348 
L 411.143885 226.49048 
L 412.256065 232.466042 
L 415.870651 253.322881 
L 416.704786 256.341626 
L 417.260876 257.734695 
L 417.816966 258.661516 
L 418.373056 259.187824 
L 418.929147 259.405324 
L 419.763282 259.38391 
L 420.875462 259.266851 
L 421.431552 259.389319 
L 421.987642 259.742614 
L 422.543733 260.392134 
L 423.099823 261.388855 
L 423.655913 262.767915 
L 424.490048 265.583072 
L 425.324183 269.260868 
L 426.436364 275.291346 
L 426.436364 275.291346 
" clip-path="url(#pb5b6ea34ea)" style="fill: none; stroke-dasharray: 11.1,4.8; stroke-dashoffset: 0; stroke: #000000; stroke-width: 3"/>
   </g>
   <g id="line2d_2">
    <path d="M 27.163636 241.562392 
L 28.275817 243.809096 
L 29.387997 246.677389 
L 30.222132 249.400096 
L 31.056267 252.756189 
L 31.890403 256.879432 
L 32.724538 261.898121 
L 33.836718 269.79603 
L 34.114763 270.374974 
L 34.670853 270.913529 
L 34.948898 271.088183 
L 35.226944 271.425713 
L 35.783034 272.556156 
L 36.895214 273.86764 
L 37.729349 274.596374 
L 38.563484 275.012336 
L 39.119575 275.07924 
L 39.675665 274.95513 
L 40.231755 274.569724 
L 41.06589 273.113293 
L 41.900025 271.105954 
L 42.734161 268.51406 
L 43.568296 265.309802 
L 44.680476 260.030532 
L 45.792656 253.580708 
L 46.348747 250.249791 
L 47.182882 246.98706 
L 48.017017 244.55132 
L 48.851152 242.902613 
L 49.407242 242.214662 
L 49.963332 241.836353 
L 50.519423 241.749567 
L 51.075513 241.93068 
L 51.631603 242.357267 
L 52.465738 243.411097 
L 53.021828 244.338552 
L 53.577918 245.84893 
L 54.690099 249.836498 
L 55.524234 253.39755 
L 56.636414 259.261912 
L 58.02664 268.036843 
L 58.58273 271.903152 
L 58.860775 272.988387 
L 59.13882 273.039214 
L 59.416865 272.925811 
L 59.972955 272.187244 
L 60.529045 270.907986 
L 61.363181 268.167801 
L 62.475361 263.456226 
L 64.421676 253.887462 
L 66.646037 243.13954 
L 68.036262 237.366404 
L 69.148443 233.882727 
L 70.260623 231.059186 
L 71.928893 227.090502 
L 73.597164 223.263046 
L 74.431299 221.747874 
L 75.543479 220.276969 
L 76.09957 219.760605 
L 76.65566 219.563208 
L 77.21175 219.752485 
L 77.489795 220.095227 
L 78.32393 224.618552 
L 79.158065 227.763432 
L 79.714155 229.159049 
L 80.270246 230.05124 
L 80.826336 230.500829 
L 81.382426 230.558831 
L 81.938516 230.328974 
L 82.772651 229.635532 
L 84.162877 228.343432 
L 84.718967 228.09839 
L 84.997012 228.094599 
L 85.275057 228.599195 
L 87.777463 241.599599 
L 88.333553 242.513756 
L 88.889643 243.938523 
L 89.445733 245.870262 
L 90.279868 249.731205 
L 91.114004 254.755048 
L 92.226184 263.086623 
L 93.060319 269.227082 
L 93.338364 269.443536 
L 93.894454 269.303287 
L 94.72859 269.384699 
L 95.562725 269.713965 
L 96.95295 270.563737 
L 99.177311 271.956379 
L 99.733401 272.118737 
L 100.845581 271.776283 
L 101.957761 271.194949 
L 102.791897 270.585151 
L 103.904077 268.325278 
L 105.850393 264.062976 
L 107.518663 259.60405 
L 109.464978 253.606076 
L 112.801519 243.010636 
L 113.9137 240.098609 
L 114.747835 238.32692 
L 115.58197 237.012835 
L 116.13806 236.440561 
L 116.69415 236.094872 
L 117.250241 236.015658 
L 117.806331 236.188877 
L 118.362421 236.612911 
L 118.918511 237.24514 
L 119.196556 236.912361 
L 119.752646 230.308184 
L 120.864827 215.07316 
L 121.142872 215.368295 
L 121.977007 218.432127 
L 122.533097 220.987044 
L 123.089187 221.243527 
L 123.645277 221.877373 
L 124.201367 222.876008 
L 124.757458 224.361743 
L 125.591593 227.49497 
L 126.703773 232.680399 
L 128.093998 240.352347 
L 131.430539 260.544578 
L 131.708584 260.167292 
L 132.54272 253.214081 
L 133.376855 247.71889 
L 134.21099 243.49045 
L 135.045125 240.353969 
L 135.879261 238.138421 
L 136.713396 236.687249 
L 140.049937 232.840458 
L 142.552342 231.169296 
L 144.220613 229.877359 
L 145.332793 228.775418 
L 146.444973 227.613997 
L 146.723018 228.623412 
L 147.835199 235.160027 
L 148.947379 240.386392 
L 150.059559 244.467134 
L 150.337604 245.326994 
L 150.893695 245.962956 
L 152.005875 246.750321 
L 152.84001 247.945791 
L 153.3961 248.385926 
L 153.95219 248.537199 
L 154.508281 248.428278 
L 155.064371 248.082038 
L 155.898506 247.19597 
L 157.566776 245.126031 
L 158.957002 244.503444 
L 160.069182 243.76146 
L 161.181362 242.717435 
L 162.293543 241.348261 
L 164.239858 238.469645 
L 165.073993 234.554841 
L 167.576399 222.31435 
L 168.410534 219.224373 
L 168.966624 217.746595 
L 169.522715 216.853492 
L 170.91294 223.533869 
L 171.747075 226.468596 
L 172.58121 228.668197 
L 173.415346 230.296225 
L 174.527526 231.875935 
L 176.473841 233.759601 
L 179.254292 236.487295 
L 180.366473 237.238196 
L 181.200608 237.529314 
L 181.756698 237.656054 
L 182.034743 239.211039 
L 183.146923 248.413483 
L 183.424968 249.952564 
L 183.703013 250.581534 
L 190.376095 253.75182 
L 192.600456 255.041199 
L 193.434591 255.203347 
L 193.990681 255.190461 
L 195.380907 250.041933 
L 196.493087 247.026072 
L 197.327222 245.297551 
L 198.439402 243.555459 
L 199.551583 242.267668 
L 200.941808 241.042179 
L 202.332033 239.820443 
L 202.888124 239.322287 
L 203.444214 239.053201 
L 204.000304 238.976569 
L 204.556394 239.083402 
L 205.390529 239.514462 
L 206.50271 240.483914 
L 209.005115 243.216066 
L 209.28316 242.970194 
L 210.951431 233.081699 
L 211.785566 229.640207 
L 212.619701 226.942344 
L 213.731881 224.123074 
L 216.790377 216.948821 
L 217.624513 214.211405 
L 218.458648 210.752251 
L 219.292783 206.395071 
L 219.848873 203.619156 
L 220.126918 204.751216 
L 222.351279 219.399041 
L 224.297594 230.786817 
L 225.965865 239.134743 
L 227.078045 244.500449 
L 228.190225 250.950134 
L 229.580451 257.369483 
L 230.414586 261.007686 
L 231.248721 263.765192 
L 235.419397 270.629835 
L 237.643758 274.3405 
L 237.921803 274.767073 
L 239.312028 268.02914 
L 240.146164 265.061055 
L 240.980299 262.906887 
L 241.814434 261.515796 
L 242.370524 260.989334 
L 242.926614 260.757682 
L 243.204659 260.780727 
L 243.76075 261.253112 
L 244.594885 262.091074 
L 245.98511 263.11548 
L 246.5412 263.303 
L 247.09729 263.243131 
L 247.653381 262.850877 
L 248.209471 262.043087 
L 248.765561 260.733475 
L 249.321651 258.853783 
L 249.599696 257.772056 
L 249.877741 258.563495 
L 250.711876 263.374972 
L 251.546012 267.020235 
L 252.102102 268.794352 
L 252.658192 270.03466 
L 253.214282 270.773098 
L 253.492327 270.294714 
L 256.550823 253.431902 
L 257.941048 247.879804 
L 258.775184 245.051703 
L 259.609319 242.853513 
L 260.443454 241.28222 
L 260.999544 240.586135 
L 261.555634 240.180501 
L 262.94586 232.642754 
L 264.05804 227.881797 
L 264.892175 225.124982 
L 265.72631 223.129171 
L 266.282401 222.253671 
L 266.560446 222.644413 
L 268.228716 226.377116 
L 272.677437 237.11089 
L 272.955482 237.107032 
L 273.789618 235.609251 
L 274.623753 233.637579 
L 275.457888 231.132314 
L 276.292023 228.036616 
L 277.404204 222.886298 
L 277.682249 221.175246 
L 277.960294 220.218324 
L 279.072474 224.927451 
L 283.24315 235.910357 
L 284.633376 240.521544 
L 285.745556 244.910653 
L 287.135781 251.401427 
L 289.360142 262.984781 
L 291.862547 276.002928 
L 292.140593 276.209044 
L 293.808863 269.937186 
L 294.921043 266.607536 
L 296.589314 259.903567 
L 298.257584 257.330462 
L 299.925855 255.253583 
L 304.930666 249.320374 
L 306.598936 246.885113 
L 307.989162 244.452593 
L 309.101342 242.125019 
L 310.213522 239.324773 
L 311.325703 235.874795 
L 312.437883 231.518172 
L 312.993973 228.890654 
L 313.272018 228.268009 
L 313.550063 228.405964 
L 314.940289 230.474924 
L 315.496379 230.726742 
L 316.052469 230.570973 
L 316.886604 229.854266 
L 317.164649 229.559015 
L 317.442694 229.716695 
L 317.998785 231.416171 
L 319.110965 234.720391 
L 319.9451 236.58405 
L 320.779235 237.994505 
L 321.891416 239.352147 
L 323.837731 241.341384 
L 324.393821 242.161205 
L 324.949911 243.277826 
L 325.506002 244.791217 
L 326.062092 246.854706 
L 326.896227 250.197155 
L 327.730362 252.689597 
L 328.564497 254.471081 
L 329.120587 255.351735 
L 329.398633 255.622678 
L 329.954723 255.558221 
L 330.510813 255.112596 
L 331.066903 254.336984 
L 332.735173 248.708445 
L 333.569309 246.719923 
L 334.125399 245.898912 
L 334.681489 245.555753 
L 334.959534 244.950994 
L 336.349759 234.839668 
L 337.46194 228.285804 
L 338.296075 224.361013 
L 338.57412 223.245827 
L 338.852165 223.627221 
L 339.6863 226.006203 
L 340.798481 228.507235 
L 343.856976 234.996022 
L 345.525247 239.049065 
L 347.749607 242.746671 
L 348.861788 244.10855 
L 349.139833 244.184899 
L 349.417878 244.042894 
L 349.695923 243.69003 
L 349.973968 243.516879 
L 350.252013 243.864876 
L 350.530058 244.0019 
L 350.808103 243.915698 
L 351.364193 243.252491 
L 352.198329 241.5481 
L 353.032464 239.834058 
L 353.588554 239.127909 
L 353.866599 239.00056 
L 354.144644 239.046972 
L 354.700734 237.144186 
L 355.53487 234.351637 
L 356.369005 232.178653 
L 357.20314 230.555933 
L 358.037275 229.409092 
L 358.87141 228.653771 
L 359.705546 228.223119 
L 360.539681 228.047663 
L 361.373816 228.100233 
L 362.207951 228.373743 
L 362.764042 228.708586 
L 363.598177 232.172039 
L 364.154267 233.71903 
L 364.432312 233.236326 
L 365.266447 230.293403 
L 365.822537 227.942899 
L 366.934718 227.547194 
L 368.046898 227.341927 
L 369.437123 227.316002 
L 370.827349 227.512765 
L 372.495619 227.97227 
L 374.16389 228.644124 
L 376.110205 229.681978 
L 378.056521 231.001059 
L 380.836971 233.232813 
L 382.505242 234.635399 
L 383.339377 234.945536 
L 383.895467 235.633496 
L 384.451557 236.781758 
L 384.729602 236.185758 
L 385.563738 232.799263 
L 386.119828 231.222105 
L 386.675918 230.127891 
L 387.232008 229.448761 
L 387.788098 229.106748 
L 388.344188 229.027227 
L 389.178324 229.229212 
L 390.846594 229.796139 
L 391.402684 229.742101 
L 391.958774 229.445603 
L 392.514865 228.840619 
L 393.070955 227.868043 
L 393.627045 226.458019 
L 394.183135 224.581724 
L 395.01727 220.805254 
L 395.851405 215.801232 
L 396.685541 209.512375 
L 397.519676 202.939037 
L 398.909901 209.601024 
L 400.300127 215.224255 
L 400.578172 216.238727 
L 401.134262 219.733001 
L 402.246442 224.811543 
L 405.582983 238.163294 
L 407.529299 245.603705 
L 410.309749 256.303838 
L 411.42193 259.781084 
L 412.256065 261.817813 
L 413.0902 263.229065 
L 413.64629 263.763599 
L 414.20238 263.938319 
L 414.75847 263.711845 
L 415.314561 263.058524 
L 415.870651 261.95833 
L 416.426741 260.37433 
L 417.260876 257.050319 
L 418.095011 253.272764 
L 418.373056 252.946157 
L 419.763282 250.06015 
L 422.265688 245.506653 
L 423.655913 243.38535 
L 424.768093 242.016521 
L 425.880273 240.98363 
L 426.436364 240.60716 
L 426.436364 240.60716 
" clip-path="url(#pb5b6ea34ea)" style="fill: none; stroke: #ff00ff; stroke-width: 3; stroke-linecap: square"/>
   </g>
   <g id="patch_3">
    <path d="M 7.2 331.2 
L 7.2 7.2 
" style="fill: none; stroke: #000000; stroke-width: 0.8; stroke-linejoin: miter; stroke-linecap: square"/>
   </g>
   <g id="patch_4">
    <path d="M 446.4 331.2 
L 446.4 7.2 
" style="fill: none; stroke: #000000; stroke-width: 0.8; stroke-linejoin: miter; stroke-linecap: square"/>
   </g>
   <g id="patch_5">
    <path d="M 7.2 331.2 
L 446.4 331.2 
" style="fill: none; stroke: #000000; stroke-width: 0.8; stroke-linejoin: miter; stroke-linecap: square"/>
   </g>
   <g id="patch_6">
    <path d="M 7.2 7.2 
L 446.4 7.2 
" style="fill: none; stroke: #000000; stroke-width: 0.8; stroke-linejoin: miter; stroke-linecap: square"/>
   </g>
  </g>
 </g>
 <defs>
  <clipPath id="pb5b6ea34ea">
   <rect x="7.2" y="7.2" width="439.2" height="324"/>
  </clipPath>
 </defs>
</svg>
