<?xml version="1.0" encoding="utf-8" standalone="no"?>
<!DOCTYPE svg PUBLIC "-//W3C//DTD SVG 1.1//EN"
  "http://www.w3.org/Graphics/SVG/1.1/DTD/svg11.dtd">
<svg xmlns:xlink="http://www.w3.org/1999/xlink" width="453.6pt" height="338.4pt" viewBox="0 0 453.6 338.4" xmlns="http://www.w3.org/2000/svg" version="1.1">
 <metadata>
  <rdf:RDF xmlns:dc="http://purl.org/dc/elements/1.1/" xmlns:cc="http://creativecommons.org/ns#" xmlns:rdf="http://www.w3.org/1999/02/22-rdf-syntax-ns#">
   <cc:Work>
    <dc:type rdf:resource="http://purl.org/dc/dcmitype/StillImage"/>
    <dc:date>2025-05-15T16:57:37.011544</dc:date>
    <dc:format>image/svg+xml</dc:format>
    <dc:creator>
     <cc:Agent>
      <dc:title>Matplotlib v3.10.1, https://matplotlib.org/</dc:title>
     </cc:Agent>
    </dc:creator>
   </cc:Work>
  </rdf:RDF>
 </metadata>
 <defs>
  <style type="text/css">*{stroke-linejoin: round; stroke-linecap: butt}</style>
 </defs>
 <g id="figure_1">
  <g id="patch_1">
   <path d="M 0 338.4 
L 453.6 338.4 
L 453.6 0 
L 0 0 
z
" style="fill: #ffffff"/>
  </g>
  <g id="axes_1">
   <g id="patch_2">
    <path d="M 7.2 331.2 
L 446.4 331.2 
L 446.4 7.2 
L 7.2 7.2 
z
" style="fill: #ffffff"/>
   </g>
   <g id="matplotlib.axis_1"/>
   <g id="matplotlib.axis_2"/>
   <g id="line2d_1">
    <path d="M 27.163636 303.224182 
L 27.997772 308.655424 
L 28.553862 311.299148 
L 29.109952 313.085762 
L 29.666042 314.021191 
L 29.944087 314.19337 
L 30.222132 314.189551 
L 30.500177 314.029547 
L 31.056267 313.329963 
L 31.890403 311.675156 
L 33.836718 307.535522 
L 34.948898 305.845636 
L 36.339124 303.940811 
L 37.173259 302.366486 
L 38.007394 300.205605 
L 39.119575 296.548195 
L 40.5098 291.961958 
L 41.343935 289.916958 
L 41.900025 288.971573 
L 42.456115 288.348073 
L 43.012206 288.001099 
L 43.568296 287.879819 
L 44.124386 287.946067 
L 44.680476 288.186386 
L 45.236566 288.610962 
L 45.792656 289.242782 
L 46.626792 290.618309 
L 47.460927 292.506701 
L 48.573107 295.697721 
L 49.963332 300.486763 
L 53.577918 313.701197 
L 54.412054 315.445691 
L 54.968144 316.131632 
L 55.524234 316.446804 
L 56.080324 316.414863 
L 56.636414 316.053501 
L 57.192504 315.359608 
L 57.748595 314.312737 
L 58.58273 312.050502 
L 59.416865 309.047162 
L 61.641226 300.492538 
L 62.475361 298.254333 
L 64.143631 294.415714 
L 64.699721 292.614247 
L 65.533857 288.972574 
L 66.646037 282.647945 
L 68.592352 271.19615 
L 70.538668 261.613724 
L 72.763029 251.141683 
L 73.597164 248.09934 
L 74.431299 245.828367 
L 76.65566 240.764164 
L 77.489795 237.963184 
L 78.601975 233.207272 
L 80.826336 223.103982 
L 81.660471 220.373715 
L 82.216561 219.166638 
L 82.772651 218.507295 
L 83.328741 218.372977 
L 83.884832 218.649029 
L 84.997012 219.512151 
L 85.275057 219.581043 
L 85.553102 219.519359 
L 85.831147 219.298187 
L 86.387237 218.299355 
L 86.943327 216.523964 
L 87.777463 212.683995 
L 89.167688 205.873065 
L 89.723778 204.123012 
L 90.001823 203.602286 
L 90.279868 203.3393 
L 90.557913 203.336239 
L 90.835958 203.584587 
L 91.392049 204.753176 
L 92.226184 207.676702 
L 93.616409 212.832269 
L 94.172499 214.080019 
L 94.450544 214.414692 
L 94.72859 214.532438 
L 95.006635 214.421316 
L 95.28468 214.074383 
L 95.84077 212.668605 
L 96.39686 210.351519 
L 97.230995 205.426031 
L 98.621221 195.044017 
L 100.011446 185.031547 
L 101.123626 178.623236 
L 103.069942 169.313703 
L 105.572347 157.861156 
L 106.406483 155.203385 
L 106.962573 154.052369 
L 107.518663 153.482233 
L 107.796708 153.434895 
L 108.074753 153.555591 
L 108.352798 153.850218 
L 108.908888 154.974462 
L 109.464978 156.797775 
L 110.299114 160.636116 
L 111.967384 169.161533 
L 112.523474 170.897323 
L 112.801519 171.35144 
L 113.079564 171.488888 
L 113.35761 171.29247 
L 113.635655 170.757398 
L 114.191745 168.714624 
L 114.747835 165.563163 
L 116.13806 155.380406 
L 116.972195 149.943139 
L 117.528286 147.381211 
L 118.084376 145.929028 
L 118.362421 145.654855 
L 118.640466 145.688612 
L 118.918511 146.028601 
L 119.196556 146.669118 
L 119.752646 148.810741 
L 120.308736 152.006924 
L 121.142872 158.446682 
L 122.533097 171.821225 
L 124.201367 187.637834 
L 125.035503 193.930473 
L 125.869638 198.613278 
L 126.425728 200.668686 
L 126.981818 201.724776 
L 127.259863 201.836816 
L 127.537908 201.652406 
L 127.815953 201.16143 
L 128.372044 199.248173 
L 128.928134 196.159814 
L 129.762269 189.863084 
L 131.152494 178.737252 
L 131.708584 175.58092 
L 132.264675 173.715864 
L 132.54272 173.295838 
L 132.820765 173.19877 
L 133.09881 173.391153 
L 133.6549 174.443207 
L 135.045125 177.961569 
L 135.32317 178.324489 
L 135.601215 178.469396 
L 135.879261 178.374025 
L 136.157306 178.028832 
L 136.713396 176.608068 
L 137.269486 174.334924 
L 138.103621 169.786104 
L 139.493847 160.549011 
L 140.884072 149.813288 
L 143.942568 124.906551 
L 144.776703 120.767404 
L 145.332793 119.099323 
L 145.888883 118.268037 
L 146.166928 118.132453 
L 146.444973 118.159447 
L 147.001064 118.617544 
L 147.557154 119.4719 
L 150.059559 124.046128 
L 150.61565 124.550032 
L 151.17174 124.749789 
L 151.72783 124.605412 
L 152.28392 124.051499 
L 152.84001 122.979825 
L 153.3961 121.225695 
L 153.95219 118.56901 
L 154.508281 114.769713 
L 155.064371 109.629856 
L 155.898506 99.27158 
L 157.010686 81.467549 
L 158.678957 53.627198 
L 159.513092 42.705855 
L 160.347227 34.621753 
L 161.181362 28.880981 
L 162.015498 24.816527 
L 162.571588 22.958511 
L 163.127678 21.981623 
L 163.405723 21.927273 
L 163.683768 22.230026 
L 163.961813 22.941702 
L 164.239858 24.10936 
L 164.795948 27.956411 
L 165.352038 33.916255 
L 166.186174 46.443204 
L 168.688579 89.869182 
L 169.24467 96.051326 
L 169.80076 100.08333 
L 170.35685 102.067524 
L 170.634895 102.393292 
L 170.91294 102.353079 
L 171.190985 102.016847 
L 171.747075 100.760442 
L 172.58121 98.571927 
L 173.137301 97.708804 
L 173.415346 97.610317 
L 173.693391 97.775372 
L 173.971436 98.219943 
L 174.527526 99.951976 
L 175.083616 102.706148 
L 175.917751 108.188693 
L 177.586022 119.680841 
L 178.420157 123.818736 
L 179.254292 126.579141 
L 180.366473 129.056719 
L 181.200608 131.13734 
L 181.756698 133.113324 
L 182.312788 135.786568 
L 183.146923 141.337908 
L 183.981058 148.730037 
L 185.649329 166.58288 
L 186.761509 177.25006 
L 187.595644 182.770648 
L 188.151735 184.986519 
L 188.707825 186.112099 
L 188.98587 186.339797 
L 189.263915 186.400854 
L 189.820005 186.225197 
L 190.376095 186.006765 
L 190.65414 186.007684 
L 190.932185 186.139594 
L 191.21023 186.436281 
L 191.766321 187.614513 
L 192.322411 189.618911 
L 193.156546 193.949731 
L 195.380907 206.757073 
L 195.936997 208.788033 
L 196.493087 210.121956 
L 197.049177 210.859652 
L 197.605267 211.216868 
L 198.439402 211.700108 
L 198.995493 212.46747 
L 199.551583 213.909662 
L 200.107673 216.155325 
L 200.941808 220.84798 
L 202.332033 229.114349 
L 202.888124 230.988548 
L 203.166169 231.357368 
L 203.444214 231.290884 
L 203.722259 230.768308 
L 204.000304 229.788094 
L 204.556394 226.550669 
L 205.390529 219.365269 
L 206.50271 209.222308 
L 207.0588 205.676897 
L 207.336845 204.558261 
L 207.61489 203.935986 
L 207.892935 203.830013 
L 208.17098 204.239783 
L 208.449025 205.144886 
L 209.005115 208.275601 
L 209.83925 215.330301 
L 211.507521 230.48669 
L 212.063611 233.941893 
L 212.619701 236.048285 
L 212.897746 236.545411 
L 213.175791 236.658036 
L 213.453836 236.382527 
L 213.731881 235.72022 
L 214.287972 233.264183 
L 214.844062 229.3958 
L 215.678197 221.368859 
L 217.068422 204.611442 
L 218.458648 188.610464 
L 219.292783 181.42736 
L 219.848873 178.056494 
L 220.404963 175.951744 
L 220.683008 175.398083 
L 220.961053 175.18544 
L 221.239099 175.317295 
L 221.517144 175.794176 
L 222.073234 177.767126 
L 222.629324 181.023336 
L 223.463459 187.880672 
L 225.409775 205.929822 
L 225.965865 209.29959 
L 226.521955 211.124753 
L 226.8 211.412257 
L 227.078045 211.288027 
L 227.35609 210.773618 
L 227.91218 208.724972 
L 228.746316 203.923143 
L 230.136541 195.486042 
L 230.692631 193.152995 
L 231.248721 191.72853 
L 231.526766 191.360601 
L 231.804811 191.205731 
L 232.082856 191.242076 
L 232.638947 191.774254 
L 233.473082 193.220119 
L 234.307217 194.63579 
L 234.863307 195.192416 
L 235.419397 195.295106 
L 235.975487 194.946267 
L 236.809623 193.886475 
L 237.365713 193.204368 
L 237.643758 192.995955 
L 237.921803 192.934703 
L 238.199848 193.062022 
L 238.477893 193.415369 
L 238.755938 194.026345 
L 239.312028 196.109944 
L 239.868119 199.403849 
L 240.702254 206.454291 
L 241.814434 218.558028 
L 243.76075 240.467115 
L 244.87293 250.27831 
L 245.707065 255.452981 
L 246.263155 257.677494 
L 246.819245 258.865202 
L 247.09729 259.075688 
L 247.375336 259.044213 
L 247.653381 258.788421 
L 248.209471 257.703959 
L 249.043606 255.126907 
L 250.433831 250.535202 
L 251.267967 248.626119 
L 252.102102 247.457056 
L 253.492327 246.216278 
L 254.604507 245.056719 
L 257.663003 241.464972 
L 258.497139 241.00099 
L 259.053229 240.957883 
L 259.609319 241.176105 
L 260.165409 241.668473 
L 260.999544 242.827698 
L 262.38977 244.878724 
L 262.94586 245.299988 
L 263.50195 245.352237 
L 264.05804 245.065722 
L 265.448265 243.939405 
L 265.72631 243.882995 
L 266.004356 243.952707 
L 266.282401 244.170568 
L 266.838491 245.10357 
L 267.394581 246.703233 
L 268.228716 250.068005 
L 269.618942 255.919969 
L 270.175032 257.373975 
L 270.453077 257.768732 
L 270.731122 257.911482 
L 271.009167 257.788685 
L 271.287212 257.394109 
L 271.843302 255.805285 
L 272.399392 253.255435 
L 273.233527 248.157601 
L 274.623753 239.336373 
L 275.179843 236.879932 
L 275.735933 235.540416 
L 276.013978 235.3514 
L 276.292023 235.496654 
L 276.570068 235.973689 
L 277.126159 237.861523 
L 277.682249 240.799131 
L 278.794429 248.413741 
L 279.906609 255.693843 
L 280.462699 258.355538 
L 281.01879 260.065364 
L 281.296835 260.524086 
L 281.57488 260.707439 
L 281.852925 260.612152 
L 282.13097 260.238294 
L 282.68706 258.671149 
L 283.24315 256.067687 
L 284.077285 250.483147 
L 285.189466 240.997066 
L 286.579691 229.059902 
L 287.413826 223.435706 
L 288.247962 219.463339 
L 289.082097 216.919487 
L 289.916232 215.233205 
L 291.584502 212.248454 
L 292.696683 209.639718 
L 293.808863 206.265234 
L 294.642998 203.056751 
L 295.755179 197.779571 
L 298.257584 185.007335 
L 299.091719 181.837535 
L 299.925855 179.451182 
L 300.75999 177.682191 
L 301.594125 176.369906 
L 302.42826 175.473806 
L 302.98435 175.134457 
L 303.540441 175.03839 
L 304.096531 175.227907 
L 304.652621 175.752877 
L 305.208711 176.660554 
L 305.764801 177.995715 
L 306.320891 179.79657 
L 307.155027 183.394383 
L 308.267207 189.552232 
L 310.491567 202.293549 
L 311.881793 209.693317 
L 312.715928 215.556329 
L 313.550063 223.60712 
L 314.384199 233.99783 
L 317.164649 272.105469 
L 317.998785 279.729568 
L 318.554875 283.260396 
L 319.110965 285.573322 
L 319.667055 286.732018 
L 319.9451 286.902792 
L 320.223145 286.815464 
L 320.50119 286.481681 
L 321.05728 285.126984 
L 321.61337 282.963946 
L 322.447506 278.566614 
L 327.452317 248.958775 
L 328.286452 245.533127 
L 328.842542 244.053672 
L 329.120587 243.61596 
L 329.398633 243.393521 
L 329.676678 243.386522 
L 329.954723 243.58628 
L 330.510813 244.523484 
L 331.344948 246.761911 
L 332.179083 248.96807 
L 332.735173 249.892361 
L 333.013219 250.109972 
L 333.291264 250.146984 
L 333.569309 250.000631 
L 334.125399 249.179767 
L 334.681489 247.734736 
L 335.515624 244.645807 
L 336.349759 240.666024 
L 337.183895 235.793564 
L 338.296075 227.900273 
L 339.964345 215.939175 
L 340.520436 213.342378 
L 341.076526 212.028757 
L 341.354571 211.905362 
L 341.632616 212.138306 
L 341.910661 212.709542 
L 342.466751 214.728258 
L 343.300886 219.168308 
L 344.413067 225.144835 
L 344.969157 227.184256 
L 345.525247 228.253217 
L 345.803292 228.399863 
L 346.081337 228.292053 
L 346.359382 227.940472 
L 346.915472 226.56866 
L 347.471562 224.430502 
L 348.305698 220.136917 
L 351.364193 202.67229 
L 351.920284 200.882456 
L 352.476374 199.781951 
L 353.032464 199.274499 
L 353.588554 199.176707 
L 355.256825 199.326693 
L 356.09096 199.010776 
L 357.20314 198.507332 
L 358.037275 198.442518 
L 359.427501 198.618593 
L 359.983591 198.384939 
L 360.539681 197.75817 
L 361.095771 196.659501 
L 361.651861 195.075728 
L 362.485996 191.900125 
L 363.598177 186.570418 
L 364.988402 178.724478 
L 367.212763 165.901065 
L 368.046898 162.463909 
L 368.602988 160.955122 
L 369.159078 160.13263 
L 369.437123 159.975145 
L 369.715168 159.978846 
L 369.993213 160.13469 
L 370.549304 160.855577 
L 371.105394 162.026462 
L 372.217574 165.136013 
L 373.051709 167.355864 
L 373.607799 168.303003 
L 373.885845 168.509801 
L 374.16389 168.492853 
L 374.441935 168.22163 
L 374.71998 167.671586 
L 375.27607 165.678125 
L 375.83216 162.50518 
L 376.666295 155.972472 
L 378.334566 141.818295 
L 378.890656 138.556797 
L 379.446746 136.613986 
L 379.724791 136.179962 
L 380.002836 136.105018 
L 380.280881 136.377549 
L 380.558926 136.978465 
L 381.115016 139.057723 
L 381.949152 143.862655 
L 384.173512 158.683954 
L 384.729602 160.919111 
L 385.007648 161.602151 
L 385.285693 161.96688 
L 385.563738 162.005757 
L 385.841783 161.724822 
L 386.119828 161.144166 
L 386.675918 159.241345 
L 388.066143 153.377651 
L 388.344188 152.700205 
L 388.622233 152.384371 
L 388.900279 152.495437 
L 389.178324 153.08294 
L 389.456369 154.178324 
L 390.012459 157.920488 
L 390.568549 163.586956 
L 391.402684 174.770701 
L 393.627045 207.083454 
L 394.46118 216.49107 
L 395.295315 223.84819 
L 396.12945 229.205365 
L 396.685541 231.671504 
L 397.241631 233.25646 
L 397.797721 233.997134 
L 398.075766 234.077783 
L 398.353811 233.987032 
L 398.909901 233.375555 
L 399.744036 231.743582 
L 401.690352 227.549347 
L 402.524487 226.29752 
L 403.358622 225.438906 
L 404.192758 224.879178 
L 405.582983 224.074817 
L 406.139073 223.568827 
L 406.973208 222.414152 
L 409.197569 218.586205 
L 409.753659 218.235668 
L 410.309749 218.302389 
L 410.865839 218.681937 
L 411.699975 219.309471 
L 411.97802 219.377945 
L 412.256065 219.311545 
L 412.53411 219.07835 
L 412.812155 218.654233 
L 413.368245 217.181276 
L 413.924335 214.887107 
L 414.75847 210.254604 
L 416.982831 196.978716 
L 418.373056 190.515345 
L 422.543733 172.843586 
L 425.602228 161.044788 
L 426.436364 158.955873 
L 426.436364 158.955873 
" clip-path="url(#p7f6d42c0ab)" style="fill: none; stroke-dasharray: 11.1,4.8; stroke-dashoffset: 0; stroke: #000000; stroke-width: 3"/>
   </g>
   <g id="line2d_2">
    <path d="M 27.163636 195.999908 
L 27.997772 196.613347 
L 28.831907 196.894936 
L 29.944087 196.930154 
L 31.890403 196.87341 
L 33.280628 197.137663 
L 34.670853 197.435588 
L 35.504989 197.416789 
L 36.339124 197.133766 
L 37.173259 196.555824 
L 38.285439 195.409358 
L 40.5098 192.963172 
L 41.343935 192.414965 
L 42.17807 192.179669 
L 43.012206 192.223528 
L 44.402431 192.634037 
L 45.792656 192.986187 
L 46.904837 193.041345 
L 48.851152 193.060936 
L 49.685287 193.301242 
L 50.519423 193.772362 
L 51.631603 194.721852 
L 54.968144 197.889204 
L 58.58273 200.613528 
L 59.972955 202.184639 
L 61.641226 204.066978 
L 62.475361 204.709888 
L 63.031451 204.952113 
L 63.587541 205.02465 
L 64.143631 204.924785 
L 64.977767 204.474759 
L 65.811902 203.731636 
L 67.202127 202.103378 
L 71.094758 197.308297 
L 72.484984 195.925186 
L 73.875209 194.846861 
L 79.714155 191.133932 
L 80.548291 190.94077 
L 81.382426 191.05409 
L 82.216561 191.468661 
L 83.328741 192.342359 
L 84.997012 193.660502 
L 85.831147 194.051377 
L 86.665282 194.205078 
L 87.777463 194.154638 
L 89.167688 194.124332 
L 90.001823 194.359001 
L 90.835958 194.856281 
L 91.948139 195.835229 
L 93.338364 197.087306 
L 94.172499 197.562086 
L 94.72859 197.694163 
L 95.28468 197.669311 
L 96.118815 197.369187 
L 97.230995 196.651681 
L 98.899266 195.541074 
L 100.011446 195.080459 
L 101.401671 194.80797 
L 103.904077 194.378022 
L 105.572347 194.051628 
L 106.406483 194.062147 
L 107.240618 194.28293 
L 108.074753 194.735962 
L 109.186933 195.62868 
L 111.133249 197.272718 
L 111.967384 197.6992 
L 112.801519 197.854807 
L 113.635655 197.746593 
L 114.747835 197.298056 
L 119.474601 194.917658 
L 120.586781 194.600364 
L 121.420917 194.580494 
L 121.977007 194.734125 
L 122.533097 195.058404 
L 123.089187 195.574831 
L 123.923322 196.715702 
L 125.035503 198.77683 
L 126.703773 201.957303 
L 127.259863 202.700634 
L 127.815953 203.162223 
L 128.372044 203.30251 
L 128.928134 203.114997 
L 129.484224 202.627847 
L 130.318359 201.470528 
L 132.54272 197.986689 
L 133.376855 197.251039 
L 133.932945 197.016077 
L 134.489035 196.962853 
L 135.32317 197.129759 
L 137.547531 197.806621 
L 138.381666 197.8015 
L 139.493847 197.513816 
L 141.440162 196.637057 
L 143.108433 196.016063 
L 144.776703 195.662326 
L 149.503469 194.969504 
L 151.17174 195.025997 
L 154.230236 195.207499 
L 157.844821 195.168107 
L 160.069182 195.517767 
L 162.015498 195.749932 
L 165.630084 196.006267 
L 167.020309 196.442086 
L 170.078805 197.545736 
L 171.190985 197.673889 
L 175.083616 197.80502 
L 176.751887 198.316117 
L 178.698202 198.885962 
L 180.088427 199.012738 
L 184.537149 199.036073 
L 186.761509 199.591961 
L 188.42978 199.905234 
L 189.820005 199.948439 
L 193.434591 199.916226 
L 195.102861 200.232519 
L 200.385718 201.637448 
L 201.775943 202.342334 
L 204.834439 204.201337 
L 205.668574 204.388851 
L 206.50271 204.332691 
L 207.61489 203.94421 
L 209.83925 202.995359 
L 210.673386 202.87671 
L 211.785566 202.990754 
L 215.122107 203.717708 
L 216.234287 203.576419 
L 217.346467 203.195451 
L 219.570828 202.097492 
L 221.239099 201.385148 
L 222.629324 201.036977 
L 224.019549 200.927804 
L 225.965865 201.035294 
L 229.024361 201.195298 
L 234.863307 201.249426 
L 236.809623 201.238155 
L 238.755938 200.989362 
L 241.258344 200.656149 
L 242.370524 200.70915 
L 243.482704 200.949956 
L 245.150975 201.586646 
L 247.09729 202.346925 
L 248.209471 202.575222 
L 249.321651 202.593311 
L 251.267967 202.312793 
L 252.658192 202.18482 
L 253.770372 202.271953 
L 255.438643 202.68185 
L 257.384958 203.157826 
L 258.775184 203.226536 
L 260.443454 203.010819 
L 262.667815 202.705658 
L 264.05804 202.777568 
L 265.448265 203.117627 
L 267.116536 203.807457 
L 269.896987 205.05728 
L 271.009167 205.321101 
L 272.121347 205.33951 
L 273.233527 205.124988 
L 276.013978 204.383674 
L 276.848113 204.392107 
L 277.682249 204.59519 
L 278.516384 204.998198 
L 279.628564 205.799317 
L 283.521195 208.993496 
L 284.35533 209.329756 
L 285.189466 209.457033 
L 286.023601 209.386751 
L 287.135781 209.064238 
L 289.360142 208.314339 
L 290.194277 208.239339 
L 291.028412 208.347998 
L 292.140593 208.742463 
L 294.086908 209.551833 
L 294.921043 209.65277 
L 295.755179 209.489079 
L 296.589314 209.060314 
L 297.979539 207.975838 
L 299.369764 206.969535 
L 300.2039 206.647509 
L 301.038035 206.613113 
L 301.87217 206.851929 
L 302.98435 207.46694 
L 305.208711 208.811869 
L 306.320891 209.20472 
L 307.711117 209.425044 
L 309.657432 209.71245 
L 310.769613 210.11312 
L 311.881793 210.734282 
L 316.608559 213.736439 
L 318.27683 214.308566 
L 321.05728 214.950738 
L 322.725551 215.156299 
L 323.837731 215.058493 
L 324.949911 214.676607 
L 326.062092 214.033335 
L 328.008407 212.813039 
L 328.842542 212.52644 
L 329.676678 212.494019 
L 330.510813 212.72187 
L 331.622993 213.321283 
L 333.291264 214.29262 
L 334.125399 214.559418 
L 334.959534 214.594051 
L 335.793669 214.405537 
L 337.183895 213.778726 
L 338.57412 213.153974 
L 339.6863 212.915631 
L 340.520436 212.94801 
L 341.632616 213.244892 
L 345.247202 214.561756 
L 346.359382 214.55157 
L 347.471562 214.257889 
L 348.861788 213.595568 
L 351.642239 212.180412 
L 352.754419 211.867111 
L 354.144644 211.733405 
L 355.812915 211.823753 
L 358.593365 212.239549 
L 360.539681 212.470392 
L 361.651861 212.354678 
L 362.485996 212.069846 
L 363.598177 211.410809 
L 364.988402 210.261547 
L 366.934718 208.616425 
L 368.046898 207.946827 
L 369.159078 207.583948 
L 370.271259 207.529361 
L 371.383439 207.723859 
L 373.329754 208.368272 
L 375.27607 208.958404 
L 376.94434 209.202716 
L 380.002836 209.478253 
L 381.115016 209.819968 
L 382.505242 210.498388 
L 385.841783 212.302443 
L 387.788098 212.986039 
L 391.402684 213.934277 
L 393.349 214.259197 
L 395.295315 214.356042 
L 403.080577 214.257624 
L 406.139073 213.968034 
L 407.529299 214.099749 
L 409.197569 214.541566 
L 411.143885 215.092111 
L 412.256065 215.177477 
L 413.368245 214.990478 
L 414.480425 214.551668 
L 418.095011 212.881067 
L 419.207192 212.679361 
L 420.597417 212.645465 
L 423.377868 212.669204 
L 424.768093 212.400596 
L 426.158319 211.894147 
L 426.436364 211.774147 
L 426.436364 211.774147 
" clip-path="url(#p7f6d42c0ab)" style="fill: none; stroke: #ff00ff; stroke-width: 3; stroke-linecap: square"/>
   </g>
   <g id="patch_3">
    <path d="M 7.2 331.2 
L 7.2 7.2 
" style="fill: none; stroke: #000000; stroke-width: 0.8; stroke-linejoin: miter; stroke-linecap: square"/>
   </g>
   <g id="patch_4">
    <path d="M 446.4 331.2 
L 446.4 7.2 
" style="fill: none; stroke: #000000; stroke-width: 0.8; stroke-linejoin: miter; stroke-linecap: square"/>
   </g>
   <g id="patch_5">
    <path d="M 7.2 331.2 
L 446.4 331.2 
" style="fill: none; stroke: #000000; stroke-width: 0.8; stroke-linejoin: miter; stroke-linecap: square"/>
   </g>
   <g id="patch_6">
    <path d="M 7.2 7.2 
L 446.4 7.2 
" style="fill: none; stroke: #000000; stroke-width: 0.8; stroke-linejoin: miter; stroke-linecap: square"/>
   </g>
  </g>
 </g>
 <defs>
  <clipPath id="p7f6d42c0ab">
   <rect x="7.2" y="7.2" width="439.2" height="324"/>
  </clipPath>
 </defs>
</svg>
