<?xml version="1.0" encoding="utf-8" standalone="no"?>
<!DOCTYPE svg PUBLIC "-//W3C//DTD SVG 1.1//EN"
  "http://www.w3.org/Graphics/SVG/1.1/DTD/svg11.dtd">
<svg xmlns:xlink="http://www.w3.org/1999/xlink" width="453.6pt" height="338.4pt" viewBox="0 0 453.6 338.4" xmlns="http://www.w3.org/2000/svg" version="1.1">
 <metadata>
  <rdf:RDF xmlns:dc="http://purl.org/dc/elements/1.1/" xmlns:cc="http://creativecommons.org/ns#" xmlns:rdf="http://www.w3.org/1999/02/22-rdf-syntax-ns#">
   <cc:Work>
    <dc:type rdf:resource="http://purl.org/dc/dcmitype/StillImage"/>
    <dc:date>2025-05-15T18:12:26.475572</dc:date>
    <dc:format>image/svg+xml</dc:format>
    <dc:creator>
     <cc:Agent>
      <dc:title>Matplotlib v3.10.1, https://matplotlib.org/</dc:title>
     </cc:Agent>
    </dc:creator>
   </cc:Work>
  </rdf:RDF>
 </metadata>
 <defs>
  <style type="text/css">*{stroke-linejoin: round; stroke-linecap: butt}</style>
 </defs>
 <g id="figure_1">
  <g id="patch_1">
   <path d="M 0 338.4 
L 453.6 338.4 
L 453.6 0 
L 0 0 
z
" style="fill: #ffffff"/>
  </g>
  <g id="axes_1">
   <g id="patch_2">
    <path d="M 7.2 331.2 
L 446.4 331.2 
L 446.4 7.2 
L 7.2 7.2 
z
" style="fill: #ffffff"/>
   </g>
   <g id="matplotlib.axis_1"/>
   <g id="matplotlib.axis_2"/>
   <g id="line2d_1">
    <path d="M 27.163636 287.389971 
L 27.997772 293.944397 
L 28.553862 296.772689 
L 29.109952 298.436365 
L 29.666042 299.12724 
L 29.944087 299.193395 
L 30.500177 298.965379 
L 31.890403 297.984422 
L 32.446493 297.940233 
L 33.002583 298.168842 
L 34.392808 299.025511 
L 34.670853 299.018249 
L 34.948898 298.875571 
L 35.226944 298.56692 
L 35.783034 297.348707 
L 36.339124 295.212363 
L 36.895214 292.117106 
L 37.729349 285.910245 
L 39.95371 267.891994 
L 40.5098 265.393794 
L 40.787845 264.714773 
L 41.06589 264.455819 
L 41.343935 264.634987 
L 41.62198 265.259585 
L 42.17807 267.818812 
L 42.734161 271.973493 
L 43.568296 280.471476 
L 45.792656 305.035561 
L 46.348747 309.194644 
L 46.904837 312.052288 
L 47.460927 313.619207 
L 47.738972 313.964907 
L 48.017017 314.060435 
L 48.295062 313.945231 
L 48.851152 313.260054 
L 50.241378 311.005791 
L 50.797468 310.668739 
L 51.075513 310.708112 
L 51.353558 310.891291 
L 51.909648 311.655494 
L 52.743783 313.488093 
L 53.577918 315.399125 
L 54.134009 316.249471 
L 54.412054 316.451946 
L 54.690099 316.472727 
L 54.968144 316.293972 
L 55.246189 315.904039 
L 55.802279 314.477664 
L 56.358369 312.234428 
L 57.192504 307.665926 
L 59.416865 294.368598 
L 60.251 291.052352 
L 61.085135 288.768503 
L 62.197316 285.859386 
L 62.753406 283.688629 
L 63.309496 280.647549 
L 64.143631 274.19931 
L 65.255812 262.805964 
L 66.646037 248.506998 
L 67.480172 242.38389 
L 68.036262 239.661952 
L 68.592352 237.827387 
L 70.260623 233.379172 
L 70.816713 230.793164 
L 71.372803 227.271739 
L 72.484984 218.107272 
L 73.597164 209.03641 
L 74.153254 205.771471 
L 74.709344 203.764061 
L 74.987389 203.24631 
L 75.265434 203.027165 
L 75.543479 203.067789 
L 76.09957 203.711995 
L 77.21175 205.395213 
L 77.489795 205.517131 
L 77.76784 205.416039 
L 78.045885 205.061546 
L 78.601975 203.546994 
L 79.158065 201.03971 
L 80.270246 194.361879 
L 81.104381 189.725803 
L 81.660471 187.555337 
L 82.216561 186.301181 
L 82.494606 185.992027 
L 83.050696 185.830378 
L 83.884832 185.88584 
L 84.162877 185.725286 
L 84.440922 185.368401 
L 84.718967 184.759345 
L 85.275057 182.612878 
L 85.831147 179.078515 
L 86.665282 171.313183 
L 89.445733 141.362394 
L 90.001823 138.052092 
L 90.557913 136.032482 
L 91.114004 135.100597 
L 91.392049 134.945137 
L 91.948139 135.027504 
L 93.060319 135.558998 
L 93.616409 135.508541 
L 94.172499 135.09872 
L 94.72859 134.3195 
L 95.28468 133.168582 
L 95.84077 131.585094 
L 96.39686 129.414292 
L 96.95295 126.409502 
L 97.50904 122.287088 
L 98.06513 116.832286 
L 98.899266 106.151859 
L 101.123626 74.858715 
L 101.679716 70.900475 
L 101.957761 70.022689 
L 102.235807 69.931809 
L 102.513852 70.632483 
L 102.791897 72.101292 
L 103.347987 77.116375 
L 104.182122 88.431555 
L 106.128438 117.010716 
L 106.962573 125.74952 
L 108.074753 134.704161 
L 109.743024 148.016874 
L 110.855204 156.737487 
L 111.411294 159.734635 
L 111.689339 160.634656 
L 111.967384 161.051963 
L 112.245429 160.939586 
L 112.523474 160.267135 
L 112.801519 159.02232 
L 113.35761 154.86632 
L 113.9137 148.767535 
L 116.416105 117.337568 
L 116.69415 115.688719 
L 116.972195 114.741906 
L 117.250241 114.539789 
L 117.528286 115.104422 
L 117.806331 116.436006 
L 118.362421 121.298087 
L 118.918511 128.737037 
L 119.752646 143.343994 
L 122.255052 190.875046 
L 123.367232 206.930635 
L 124.201367 216.348347 
L 125.035503 223.442122 
L 125.591593 226.695934 
L 126.147683 228.558609 
L 126.425728 228.908365 
L 126.703773 228.843719 
L 126.981818 228.35133 
L 127.259863 227.424405 
L 127.815953 224.274524 
L 128.372044 219.483234 
L 129.206179 209.723632 
L 130.596404 189.676799 
L 132.264675 166.450298 
L 133.376855 153.944535 
L 134.489035 144.134699 
L 135.32317 138.73813 
L 135.879261 136.266912 
L 136.435351 134.831487 
L 136.713396 134.521104 
L 136.991441 134.478401 
L 137.269486 134.68872 
L 137.825576 135.756423 
L 139.493847 140.164929 
L 139.771892 140.320657 
L 140.049937 140.118361 
L 140.327982 139.503718 
L 140.606027 138.439143 
L 141.162117 134.905272 
L 141.718207 129.621303 
L 142.830387 115.785699 
L 143.942568 102.777358 
L 144.498658 98.487686 
L 145.054748 96.239635 
L 145.332793 95.880672 
L 145.610838 95.980379 
L 145.888883 96.47174 
L 146.444973 98.267826 
L 147.279109 101.312638 
L 147.557154 101.93852 
L 147.835199 102.181441 
L 148.113244 101.946587 
L 148.391289 101.157267 
L 148.669334 99.757395 
L 149.225424 95.014461 
L 149.781514 87.731842 
L 150.61565 72.970677 
L 152.561965 35.358329 
L 153.118055 28.009433 
L 153.674145 23.451209 
L 153.95219 22.308402 
L 154.230236 21.927273 
L 154.508281 22.285297 
L 154.786326 23.340553 
L 155.342416 27.290971 
L 156.176551 36.559816 
L 158.122867 60.832211 
L 158.957002 68.196549 
L 159.791137 73.211273 
L 160.347227 75.485782 
L 160.903317 77.083147 
L 161.459407 78.080863 
L 161.737453 78.353973 
L 162.015498 78.467467 
L 162.293543 78.412854 
L 162.571588 78.183117 
L 163.127678 77.199858 
L 163.683768 75.606136 
L 165.073993 71.085811 
L 165.352038 70.618785 
L 165.630084 70.478587 
L 165.908129 70.735586 
L 166.186174 71.448416 
L 166.464219 72.65797 
L 167.020309 76.622086 
L 167.576399 82.493593 
L 169.80076 110.232151 
L 170.35685 113.327397 
L 170.634895 113.801686 
L 170.91294 113.541291 
L 171.190985 112.574814 
L 171.747075 108.804748 
L 172.859256 97.427357 
L 173.415346 92.373393 
L 173.971436 89.391283 
L 174.249481 88.958714 
L 174.527526 89.32371 
L 174.805571 90.51322 
L 175.361661 95.302051 
L 175.917751 102.876461 
L 177.029932 122.71054 
L 178.142112 141.77045 
L 178.976247 152.045614 
L 179.532337 156.707767 
L 180.088427 159.966227 
L 180.922563 163.222474 
L 181.756698 165.54449 
L 182.312788 166.69199 
L 182.868878 167.268019 
L 183.146923 167.226143 
L 183.424968 166.898956 
L 183.703013 166.244538 
L 184.259104 163.846189 
L 184.815194 159.990249 
L 185.649329 152.172873 
L 186.761509 141.532356 
L 187.317599 137.924096 
L 187.595644 136.824483 
L 187.87369 136.24327 
L 188.151735 136.182221 
L 188.42978 136.614478 
L 188.98587 138.719091 
L 190.65414 147.476196 
L 190.932185 148.06342 
L 191.21023 148.148937 
L 191.488276 147.687095 
L 191.766321 146.661156 
L 192.322411 142.998417 
L 193.156546 134.479496 
L 194.268726 122.114735 
L 194.824816 117.644554 
L 195.380907 115.207592 
L 195.658952 114.826597 
L 195.936997 114.990034 
L 196.215042 115.655088 
L 196.771132 118.205947 
L 198.439402 128.113299 
L 198.717447 128.982371 
L 198.995493 129.425912 
L 199.273538 129.416326 
L 199.551583 128.951824 
L 199.829628 128.056318 
L 200.385718 125.184105 
L 202.053988 114.318968 
L 202.610079 112.401925 
L 202.888124 112.024549 
L 203.166169 112.038627 
L 203.444214 112.415779 
L 204.000304 114.032249 
L 205.112484 118.168227 
L 205.390529 118.774423 
L 205.668574 119.015891 
L 205.946619 118.822891 
L 206.224664 118.148473 
L 206.50271 116.971477 
L 207.0588 113.159647 
L 207.892935 104.623051 
L 209.561205 86.412414 
L 210.117296 82.239611 
L 210.951431 77.976195 
L 212.063611 73.077087 
L 212.619701 69.376628 
L 213.175791 64.204299 
L 214.009927 53.81906 
L 215.400152 35.075253 
L 215.956242 29.937112 
L 216.234287 28.321871 
L 216.512332 27.43318 
L 216.790377 27.301474 
L 217.068422 27.925993 
L 217.346467 29.273086 
L 217.902558 33.8558 
L 218.736693 43.802481 
L 219.848873 57.126479 
L 220.404963 61.686333 
L 220.961053 64.196388 
L 221.239099 64.689291 
L 221.517144 64.733469 
L 221.795189 64.402171 
L 222.351279 62.991795 
L 223.185414 60.615591 
L 223.463459 60.167268 
L 223.741504 60.028948 
L 224.019549 60.254193 
L 224.297594 60.872277 
L 224.853684 63.278223 
L 225.409775 66.984782 
L 227.078045 79.295869 
L 227.634135 81.485754 
L 227.91218 81.99555 
L 228.190225 82.125245 
L 228.46827 81.915217 
L 229.024361 80.751271 
L 229.858496 78.591106 
L 230.136541 78.187541 
L 230.414586 78.106895 
L 230.692631 78.426641 
L 230.970676 79.201235 
L 231.526766 82.200885 
L 232.082856 86.992734 
L 234.307217 109.914059 
L 234.863307 112.588847 
L 235.141352 113.205747 
L 235.419397 113.390881 
L 235.697442 113.217433 
L 236.253533 112.20631 
L 236.809623 111.146361 
L 237.087668 110.929205 
L 237.365713 111.085156 
L 237.643758 111.71725 
L 237.921803 112.905062 
L 238.477893 117.119339 
L 239.033983 123.750937 
L 239.868119 137.057818 
L 241.258344 159.700938 
L 241.814434 165.876101 
L 242.370524 169.454731 
L 242.648569 170.24586 
L 242.926614 170.417922 
L 243.204659 170.038201 
L 243.482704 169.194916 
L 244.038795 166.537312 
L 245.42902 159.120909 
L 245.98511 157.389246 
L 246.5412 156.538007 
L 247.653381 155.688086 
L 247.931426 155.184278 
L 248.487516 153.319591 
L 249.043606 150.0776 
L 249.877741 142.894643 
L 250.989921 132.464802 
L 251.546012 129.115999 
L 251.824057 128.341316 
L 252.102102 128.290881 
L 252.380147 129.025588 
L 252.658192 130.57587 
L 253.214282 136.081129 
L 253.770372 144.396748 
L 255.160598 171.093927 
L 255.994733 185.205791 
L 256.550823 191.817233 
L 257.106913 195.735831 
L 257.384958 196.712028 
L 257.663003 197.103816 
L 257.941048 196.993898 
L 258.219093 196.483431 
L 258.775184 194.722495 
L 259.609319 192.013138 
L 259.887364 191.51809 
L 260.165409 191.362675 
L 260.443454 191.597842 
L 260.721499 192.252372 
L 261.277589 194.81713 
L 261.833679 198.834541 
L 264.336085 219.844096 
L 264.892175 222.228009 
L 265.448265 223.510098 
L 266.004356 223.987046 
L 266.838491 224.068608 
L 267.394581 224.227352 
L 267.950671 224.70249 
L 269.340896 226.504274 
L 269.618942 226.628628 
L 269.896987 226.549926 
L 270.175032 226.219924 
L 270.453077 225.59936 
L 271.009167 223.391174 
L 271.565257 219.893816 
L 272.399392 212.832218 
L 273.511573 202.979769 
L 274.067663 199.324583 
L 274.623753 197.172038 
L 274.901798 196.720877 
L 275.179843 196.676744 
L 275.457888 197.004892 
L 276.013978 198.5419 
L 277.404204 203.512604 
L 277.682249 203.972257 
L 277.960294 204.081661 
L 278.238339 203.800194 
L 278.516384 203.10971 
L 279.072474 200.548573 
L 279.906609 194.509294 
L 281.01879 185.97529 
L 281.57488 183.183254 
L 281.852925 182.393085 
L 282.13097 182.043307 
L 282.409015 182.130344 
L 282.68706 182.625369 
L 283.24315 184.612489 
L 284.911421 192.206139 
L 285.189466 192.779598 
L 285.467511 192.996262 
L 285.745556 192.843328 
L 286.023601 192.332079 
L 286.579691 190.397115 
L 288.247962 182.831219 
L 288.526007 182.198945 
L 288.804052 181.909344 
L 289.082097 181.98018 
L 289.360142 182.405353 
L 289.916232 184.178355 
L 291.862547 192.329688 
L 292.140593 192.715756 
L 292.418638 192.76657 
L 292.696683 192.483517 
L 292.974728 191.890102 
L 293.530818 189.964322 
L 294.921043 184.256633 
L 295.477133 183.128954 
L 295.755179 182.986499 
L 296.033224 183.123278 
L 296.311269 183.508519 
L 296.867359 184.796283 
L 297.701494 186.73413 
L 297.979539 186.978146 
L 298.257584 186.854574 
L 298.535629 186.277673 
L 298.813674 185.178507 
L 299.369764 181.239105 
L 299.925855 174.926292 
L 300.75999 161.737509 
L 302.706305 128.013481 
L 303.262396 121.74355 
L 303.818486 118.067269 
L 304.096531 117.234912 
L 304.374576 117.045956 
L 304.652621 117.455755 
L 304.930666 118.404377 
L 305.486756 121.626704 
L 306.320891 128.58513 
L 309.935477 162.763626 
L 311.325703 179.528738 
L 312.715928 195.811807 
L 313.550063 202.587557 
L 314.106153 205.411235 
L 314.662244 207.067279 
L 315.218334 207.991433 
L 315.774424 208.764865 
L 316.330514 209.988496 
L 316.886604 212.149488 
L 317.442694 215.505934 
L 318.27683 222.66373 
L 320.50119 244.119195 
L 321.05728 247.54813 
L 321.61337 249.860012 
L 322.169461 251.266778 
L 323.003596 252.482634 
L 323.559686 253.275529 
L 324.115776 254.406224 
L 324.671866 255.987992 
L 326.618182 262.589847 
L 327.174272 263.442908 
L 327.452317 263.521688 
L 327.730362 263.352083 
L 328.008407 262.935949 
L 328.564497 261.430336 
L 329.398633 257.982228 
L 330.788858 251.844249 
L 331.622993 249.166824 
L 333.291264 244.546524 
L 333.847354 242.099451 
L 334.403444 238.791383 
L 335.237579 232.251225 
L 337.183895 215.460885 
L 337.739985 212.405392 
L 338.296075 210.780296 
L 338.57412 210.525376 
L 338.852165 210.622021 
L 339.13021 211.036133 
L 339.6863 212.614236 
L 341.076526 217.724511 
L 341.632616 218.747277 
L 341.910661 218.823342 
L 342.188706 218.575862 
L 342.466751 218.000012 
L 343.022841 215.926951 
L 343.856976 211.138074 
L 345.247202 202.750569 
L 345.803292 200.484105 
L 346.359382 199.010782 
L 347.749607 196.359032 
L 348.305698 194.09373 
L 348.861788 190.233723 
L 349.417878 184.458638 
L 350.252013 172.35825 
L 352.476374 135.36021 
L 353.032464 129.536211 
L 353.588554 126.120504 
L 353.866599 125.305867 
L 354.144644 125.037159 
L 354.422689 125.253824 
L 354.700734 125.88098 
L 355.256825 128.024341 
L 356.925095 135.729742 
L 357.481185 137.344626 
L 358.037275 138.409736 
L 359.149456 140.156237 
L 359.705546 141.588064 
L 360.261636 143.700968 
L 361.373816 149.446243 
L 361.929906 152.137813 
L 362.485996 153.765478 
L 362.764042 153.943351 
L 363.042087 153.585193 
L 363.320132 152.624481 
L 363.598177 151.013128 
L 364.154267 145.763884 
L 364.710357 137.951939 
L 365.544492 122.722897 
L 366.934718 96.604787 
L 367.490808 89.182485 
L 368.046898 84.718069 
L 368.324943 83.698052 
L 368.602988 83.482661 
L 368.881033 84.034087 
L 369.159078 85.289026 
L 369.715168 89.554609 
L 370.549304 98.685669 
L 371.661484 111.237174 
L 372.495619 118.155468 
L 373.051709 121.203832 
L 373.607799 123.222951 
L 374.441935 125.194116 
L 375.27607 127.137795 
L 375.83216 128.900228 
L 376.666295 132.439641 
L 380.002836 148.697503 
L 380.836971 151.449004 
L 381.393062 152.624012 
L 381.671107 152.89634 
L 381.949152 152.886284 
L 382.227197 152.531925 
L 382.505242 151.769376 
L 382.783287 150.536202 
L 383.339377 146.445989 
L 383.895467 139.982096 
L 384.729602 126.066695 
L 386.675918 88.707682 
L 387.232008 82.749072 
L 387.510053 81.33673 
L 387.788098 81.082167 
L 388.066143 82.01584 
L 388.344188 84.121683 
L 388.900279 91.547605 
L 389.734414 108.501605 
L 391.124639 138.261271 
L 391.680729 146.100143 
L 392.236819 150.392497 
L 392.514865 151.243312 
L 392.79291 151.342572 
L 393.070955 150.823681 
L 393.627045 148.60421 
L 394.46118 145.091902 
L 394.739225 144.549749 
L 395.01727 144.530487 
L 395.295315 145.10198 
L 395.57336 146.287781 
L 396.12945 150.36986 
L 398.075766 169.238289 
L 398.353811 170.304786 
L 398.631856 170.548958 
L 398.909901 169.910472 
L 399.187946 168.372458 
L 399.744036 162.753437 
L 400.578172 149.60997 
L 401.968397 126.652713 
L 402.524487 121.085266 
L 402.802532 119.514291 
L 403.080577 118.789931 
L 403.358622 118.890308 
L 403.636668 119.755894 
L 404.192758 123.382567 
L 405.304938 134.317758 
L 406.139073 141.221795 
L 406.695163 143.702532 
L 406.973208 144.206943 
L 407.251253 144.245556 
L 407.529299 143.869388 
L 408.085389 142.173233 
L 409.753659 135.727462 
L 410.309749 134.704764 
L 410.865839 134.26491 
L 411.42193 133.948181 
L 411.699975 133.644658 
L 411.97802 133.13989 
L 412.53411 131.268968 
L 413.0902 128.00061 
L 413.64629 123.353428 
L 415.870651 102.595888 
L 416.148696 101.380613 
L 416.426741 100.718531 
L 416.704786 100.626109 
L 416.982831 101.092264 
L 417.260876 102.078628 
L 417.816966 105.331077 
L 419.485237 117.229079 
L 419.763282 118.223287 
L 420.041327 118.66294 
L 420.319372 118.489313 
L 420.597417 117.667012 
L 420.875462 116.185443 
L 421.431552 111.324635 
L 422.265688 100.164043 
L 424.768093 62.130321 
L 425.602228 54.089265 
L 426.436364 48.398513 
L 426.436364 48.398513 
" clip-path="url(#p2310c71c08)" style="fill: none; stroke-dasharray: 11.1,4.8; stroke-dashoffset: 0; stroke: #000000; stroke-width: 3"/>
   </g>
   <g id="line2d_2">
    <path d="M 27.163636 283.302707 
L 27.997772 282.119789 
L 28.831907 280.456906 
L 29.109952 279.790511 
L 29.944087 277.094439 
L 30.778222 275.098682 
L 33.002583 270.387324 
L 34.670853 265.998794 
L 35.226944 265.263954 
L 35.783034 265.053434 
L 37.173259 264.797933 
L 37.729349 264.502544 
L 38.285439 263.955419 
L 38.84153 263.063276 
L 39.39762 261.781657 
L 39.95371 261.636633 
L 40.5098 261.916044 
L 41.06589 262.488989 
L 43.012206 264.926063 
L 43.568296 265.222681 
L 43.846341 265.226793 
L 44.124386 265.113377 
L 44.402431 264.870981 
L 44.680476 264.798748 
L 45.236566 265.11036 
L 45.514611 265.149197 
L 45.792656 265.064786 
L 46.070701 264.827451 
L 46.348747 264.403597 
L 46.904837 262.871102 
L 47.460927 260.230592 
L 48.017017 256.244164 
L 48.573107 251.158323 
L 49.129197 244.472314 
L 49.963332 231.424052 
L 50.519423 229.334365 
L 51.075513 228.075137 
L 51.631603 227.458103 
L 52.187693 227.303001 
L 52.743783 227.439534 
L 53.021828 227.566145 
L 53.299873 227.521274 
L 54.134009 224.611096 
L 54.968144 220.810707 
L 55.802279 215.692097 
L 56.080324 215.29318 
L 56.636414 214.828433 
L 57.192504 213.952836 
L 58.02664 211.979124 
L 58.860775 209.361452 
L 60.251 204.039808 
L 62.197316 196.288375 
L 64.143631 190.469314 
L 65.811902 184.531329 
L 68.870398 173.306962 
L 71.372803 165.766249 
L 71.928893 163.818994 
L 75.265434 147.258637 
L 77.21175 139.393911 
L 78.32393 135.544451 
L 80.270246 129.624432 
L 81.938516 125.325911 
L 83.328741 122.404738 
L 83.606787 122.103964 
L 84.997012 121.860753 
L 86.109192 121.858161 
L 87.221372 122.105439 
L 88.055508 122.504669 
L 88.889643 123.114485 
L 90.557913 124.540055 
L 91.670094 125.021606 
L 92.504229 125.230629 
L 93.338364 125.953201 
L 94.172499 126.323247 
L 95.006635 126.479667 
L 96.118815 126.438641 
L 97.50904 126.122359 
L 100.845581 125.19492 
L 101.957761 125.138475 
L 102.791897 125.315721 
L 104.738212 127.446658 
L 106.406483 129.486111 
L 109.464978 133.793436 
L 110.855204 136.450482 
L 112.245429 139.542734 
L 113.9137 143.826015 
L 114.747835 146.19547 
L 116.972195 154.948441 
L 118.918511 161.675455 
L 121.420917 169.538974 
L 125.035503 180.223781 
L 125.591593 180.564062 
L 126.425728 180.70046 
L 127.259863 180.579123 
L 128.093998 180.222172 
L 128.928134 179.652802 
L 130.040314 178.602997 
L 131.430539 176.898954 
L 133.09881 174.412139 
L 136.157306 169.264389 
L 140.049937 162.6121 
L 142.274297 159.282804 
L 145.054748 157.491746 
L 152.28392 152.564416 
L 153.95219 152.418721 
L 155.620461 152.029101 
L 157.288731 151.402034 
L 158.957002 150.522728 
L 160.625272 149.397708 
L 162.293543 147.963333 
L 163.961813 146.189437 
L 165.908129 143.945207 
L 167.020309 144.293309 
L 169.80076 145.137711 
L 172.02512 145.595621 
L 173.971436 145.775727 
L 175.639706 145.727058 
L 176.751887 145.701808 
L 178.976247 145.972817 
L 179.532337 146.229034 
L 181.200608 147.102127 
L 183.146923 147.870196 
L 185.371284 148.502134 
L 188.151735 149.049784 
L 192.044366 149.573524 
L 193.990681 149.709029 
L 195.936997 149.722794 
L 197.883312 150.019769 
L 199.551583 150.062628 
L 200.385718 150.085511 
L 201.219853 150.336543 
L 203.166169 150.899522 
L 205.112484 151.233278 
L 207.0588 151.318282 
L 208.72707 151.178576 
L 210.395341 150.829669 
L 211.785566 150.563218 
L 214.009927 150.346688 
L 216.234287 150.322063 
L 217.068422 150.54199 
L 220.126918 151.48154 
L 223.185414 152.200314 
L 226.24391 152.682535 
L 227.91218 152.839805 
L 228.746316 152.479278 
L 230.970676 151.211022 
L 233.195037 149.693968 
L 235.697442 147.699787 
L 235.975487 147.461269 
L 237.087668 147.271598 
L 237.643758 147.298189 
L 239.590073 147.480262 
L 241.814434 147.452196 
L 244.038795 147.18941 
L 245.707065 146.992007 
L 247.653381 147.229811 
L 249.877741 147.750736 
L 252.102102 148.511028 
L 254.604507 149.617367 
L 257.384958 151.111986 
L 261.277589 153.270274 
L 262.667815 153.93296 
L 264.61413 154.398645 
L 266.838491 155.165999 
L 270.175032 156.582542 
L 272.955482 157.712701 
L 275.179843 158.41123 
L 276.848113 158.725858 
L 278.238339 158.796203 
L 281.852925 158.755399 
L 286.023601 158.799867 
L 288.247962 158.554332 
L 289.916232 158.155147 
L 291.306457 157.642267 
L 292.974728 156.759476 
L 294.364953 155.773223 
L 295.755179 154.513235 
L 296.867359 153.219862 
L 299.369764 149.012512 
L 300.75999 146.70616 
L 302.98435 142.9552 
L 303.262396 142.453985 
L 303.540441 142.406031 
L 304.930666 143.390451 
L 306.320891 144.658395 
L 307.989162 146.511127 
L 309.935477 149.057203 
L 312.159838 152.375236 
L 314.384199 155.701404 
L 317.998785 158.465754 
L 319.667055 159.910854 
L 321.61337 162.305426 
L 323.559686 165.096815 
L 325.506002 168.323633 
L 327.452317 172.032583 
L 329.398633 176.279485 
L 331.344948 180.625736 
L 335.515624 171.590986 
L 339.13021 165.435398 
L 344.413067 157.015737 
L 346.359382 153.473129 
L 349.417878 147.652504 
L 352.198329 143.210881 
L 354.144644 139.710327 
L 356.09096 135.688715 
L 357.75923 131.730207 
L 360.539681 124.416483 
L 362.485996 118.456108 
L 366.100582 106.924173 
L 368.046898 102.977196 
L 369.715168 100.0638 
L 371.383439 97.601296 
L 373.051709 95.590759 
L 374.441935 94.262973 
L 375.83216 93.245258 
L 377.222385 92.537433 
L 379.724791 91.582733 
L 381.115016 91.374247 
L 382.505242 91.377018 
L 383.617422 91.402894 
L 384.729602 91.396011 
L 385.841783 91.639357 
L 386.953963 92.119478 
L 388.066143 92.820822 
L 389.456369 93.981327 
L 391.124639 95.749101 
L 392.79291 97.864395 
L 394.739225 100.681034 
L 398.075766 105.727826 
L 399.187946 107.056281 
L 400.300127 108.715008 
L 400.856217 109.789079 
L 402.246442 115.744002 
L 403.636668 120.747934 
L 405.026893 124.903084 
L 406.417118 128.315506 
L 407.807344 131.085577 
L 409.197569 133.318768 
L 410.587794 135.122429 
L 412.256065 136.870001 
L 414.480425 138.794866 
L 417.816966 141.613248 
L 418.373056 142.370143 
L 421.153507 147.635878 
L 423.933958 153.362964 
L 426.436364 158.878256 
L 426.436364 158.878256 
" clip-path="url(#p2310c71c08)" style="fill: none; stroke: #ff00ff; stroke-width: 3; stroke-linecap: square"/>
   </g>
   <g id="patch_3">
    <path d="M 7.2 331.2 
L 7.2 7.2 
" style="fill: none; stroke: #000000; stroke-width: 0.8; stroke-linejoin: miter; stroke-linecap: square"/>
   </g>
   <g id="patch_4">
    <path d="M 446.4 331.2 
L 446.4 7.2 
" style="fill: none; stroke: #000000; stroke-width: 0.8; stroke-linejoin: miter; stroke-linecap: square"/>
   </g>
   <g id="patch_5">
    <path d="M 7.2 331.2 
L 446.4 331.2 
" style="fill: none; stroke: #000000; stroke-width: 0.8; stroke-linejoin: miter; stroke-linecap: square"/>
   </g>
   <g id="patch_6">
    <path d="M 7.2 7.2 
L 446.4 7.2 
" style="fill: none; stroke: #000000; stroke-width: 0.8; stroke-linejoin: miter; stroke-linecap: square"/>
   </g>
  </g>
 </g>
 <defs>
  <clipPath id="p2310c71c08">
   <rect x="7.2" y="7.2" width="439.2" height="324"/>
  </clipPath>
 </defs>
</svg>
