<?xml version="1.0" encoding="utf-8" standalone="no"?>
<!DOCTYPE svg PUBLIC "-//W3C//DTD SVG 1.1//EN"
  "http://www.w3.org/Graphics/SVG/1.1/DTD/svg11.dtd">
<svg xmlns:xlink="http://www.w3.org/1999/xlink" width="453.6pt" height="338.4pt" viewBox="0 0 453.6 338.4" xmlns="http://www.w3.org/2000/svg" version="1.1">
 <metadata>
  <rdf:RDF xmlns:dc="http://purl.org/dc/elements/1.1/" xmlns:cc="http://creativecommons.org/ns#" xmlns:rdf="http://www.w3.org/1999/02/22-rdf-syntax-ns#">
   <cc:Work>
    <dc:type rdf:resource="http://purl.org/dc/dcmitype/StillImage"/>
    <dc:date>2025-05-15T17:52:05.013610</dc:date>
    <dc:format>image/svg+xml</dc:format>
    <dc:creator>
     <cc:Agent>
      <dc:title>Matplotlib v3.10.1, https://matplotlib.org/</dc:title>
     </cc:Agent>
    </dc:creator>
   </cc:Work>
  </rdf:RDF>
 </metadata>
 <defs>
  <style type="text/css">*{stroke-linejoin: round; stroke-linecap: butt}</style>
 </defs>
 <g id="figure_1">
  <g id="patch_1">
   <path d="M 0 338.4 
L 453.6 338.4 
L 453.6 0 
L 0 0 
z
" style="fill: #ffffff"/>
  </g>
  <g id="axes_1">
   <g id="patch_2">
    <path d="M 7.2 331.2 
L 446.4 331.2 
L 446.4 7.2 
L 7.2 7.2 
z
" style="fill: #ffffff"/>
   </g>
   <g id="matplotlib.axis_1"/>
   <g id="matplotlib.axis_2"/>
   <g id="line2d_1">
    <path d="M 27.163636 219.34167 
L 28.275817 219.520282 
L 30.222132 219.586131 
L 30.778222 219.803459 
L 31.334312 220.19835 
L 32.168448 221.167488 
L 33.002583 222.575179 
L 34.114763 224.965455 
L 36.617169 231.168197 
L 39.95371 239.914354 
L 41.900025 245.65761 
L 43.290251 250.396601 
L 44.680476 255.903592 
L 46.070701 262.307573 
L 47.738972 271.245248 
L 50.797468 288.308173 
L 51.631603 291.658628 
L 52.187693 293.292725 
L 52.743783 294.398084 
L 53.299873 294.968978 
L 53.577918 295.060316 
L 53.855964 295.029068 
L 54.412054 294.627522 
L 54.968144 293.833456 
L 55.802279 292.07828 
L 56.914459 289.088029 
L 59.69491 281.363259 
L 60.80709 278.973389 
L 61.641226 277.589849 
L 62.475361 276.591919 
L 63.309496 275.990099 
L 64.143631 275.7558 
L 64.977767 275.827001 
L 66.089947 276.240691 
L 69.426488 277.994326 
L 71.094758 279.034732 
L 72.763029 280.383823 
L 75.821524 282.903088 
L 78.045885 284.697675 
L 79.43611 286.185848 
L 80.826336 288.045217 
L 83.606787 292.32562 
L 85.553102 295.063907 
L 87.221372 296.97168 
L 89.167688 298.808761 
L 91.114004 300.418927 
L 92.226184 301.066798 
L 93.060319 301.25066 
L 93.616409 301.158119 
L 94.172499 300.843558 
L 94.72859 300.265839 
L 95.28468 299.389479 
L 95.84077 298.187413 
L 96.674905 295.751324 
L 97.50904 292.597416 
L 98.899266 286.173823 
L 100.845581 276.909207 
L 101.957761 272.724715 
L 102.791897 270.394462 
L 103.626032 268.726864 
L 104.460167 267.592121 
L 105.294302 266.827541 
L 106.406483 266.170746 
L 107.240618 265.926352 
L 107.796708 265.923981 
L 108.352798 266.093752 
L 108.908888 266.467269 
L 109.464978 267.056793 
L 110.299114 268.317747 
L 111.967384 271.54211 
L 112.801519 272.982996 
L 113.635655 273.973779 
L 114.191745 274.310476 
L 114.747835 274.36762 
L 115.303925 274.150528 
L 115.860015 273.677967 
L 116.69415 272.546612 
L 117.528286 271.002514 
L 119.196556 267.255966 
L 120.586781 264.293712 
L 121.420917 262.911629 
L 122.255052 261.937342 
L 123.089187 261.381487 
L 123.923322 261.190715 
L 124.757458 261.258257 
L 127.259863 261.697081 
L 127.815953 261.582489 
L 128.372044 261.306222 
L 128.928134 260.834846 
L 129.484224 260.133405 
L 130.040314 259.157222 
L 130.596404 257.84844 
L 131.152494 256.127391 
L 131.708584 253.888018 
L 132.264675 251.002926 
L 133.09881 245.165538 
L 133.932945 237.146191 
L 134.76708 226.715059 
L 135.879261 209.329444 
L 139.771892 142.602127 
L 140.884072 129.109967 
L 141.996252 118.69821 
L 143.108433 110.659557 
L 144.220613 104.40001 
L 145.332793 99.534605 
L 146.444973 95.728339 
L 147.835199 91.864455 
L 151.449785 82.293018 
L 153.95219 74.884604 
L 157.010686 65.768384 
L 158.122867 63.291901 
L 158.957002 62.015129 
L 159.513092 61.459613 
L 160.069182 61.128743 
L 160.625272 60.995893 
L 161.459407 61.08674 
L 162.571588 61.539384 
L 167.020309 63.675478 
L 169.80076 65.025754 
L 172.02512 66.337585 
L 174.249481 67.913895 
L 177.586022 70.601711 
L 183.703013 75.73102 
L 190.376095 80.602996 
L 192.322411 81.669451 
L 194.268726 82.453711 
L 196.493087 83.367399 
L 199.551583 84.787115 
L 200.385718 84.880672 
L 201.219853 84.761304 
L 203.166169 84.271671 
L 203.722259 84.368649 
L 204.278349 84.718692 
L 204.834439 85.410919 
L 205.390529 86.53953 
L 205.946619 88.209533 
L 206.50271 90.539584 
L 207.0588 93.658602 
L 207.892935 100.097438 
L 208.72707 108.966046 
L 209.561205 120.394702 
L 210.673386 139.106713 
L 214.009927 199.41318 
L 215.400152 218.765051 
L 217.068422 238.458903 
L 219.848873 268.575384 
L 221.239099 281.356755 
L 222.351279 289.813485 
L 223.463459 296.648245 
L 224.297594 300.72751 
L 225.13173 303.920405 
L 225.965865 306.268781 
L 226.8 307.862112 
L 227.634135 308.857688 
L 228.46827 309.460508 
L 232.638947 311.793607 
L 234.863307 313.258712 
L 236.531578 314.047782 
L 241.258344 315.850956 
L 242.092479 315.883728 
L 242.648569 315.716209 
L 243.204659 315.338476 
L 243.76075 314.692621 
L 244.31684 313.721128 
L 244.87293 312.369954 
L 245.707065 309.534232 
L 246.5412 305.672804 
L 247.653381 299.090482 
L 251.546012 273.690873 
L 252.658192 268.718802 
L 253.492327 265.942611 
L 254.326462 263.916875 
L 255.160598 262.556369 
L 255.716688 261.973416 
L 256.272778 261.617649 
L 256.828868 261.46075 
L 257.384958 261.476975 
L 258.219093 261.785557 
L 259.053229 262.397675 
L 259.887364 263.280539 
L 261.277589 265.160791 
L 262.667815 266.933225 
L 263.223905 267.392339 
L 263.779995 267.621082 
L 264.336085 267.583924 
L 264.892175 267.271785 
L 265.448265 266.708343 
L 266.282401 265.511206 
L 268.228716 262.464946 
L 269.062851 261.615278 
L 269.896987 261.178859 
L 270.731122 261.084523 
L 273.511573 261.167715 
L 274.623753 260.731229 
L 276.570068 259.839389 
L 277.404204 259.765139 
L 278.238339 260.00042 
L 279.072474 260.526636 
L 281.852925 262.70768 
L 282.409015 262.868779 
L 282.965105 262.856822 
L 283.521195 262.661375 
L 284.35533 262.040383 
L 285.189466 261.093025 
L 286.301646 259.478777 
L 287.413826 257.533557 
L 288.526007 255.082072 
L 289.360142 252.725499 
L 290.472322 248.809959 
L 293.252773 238.148152 
L 294.086908 235.836495 
L 294.921043 234.074697 
L 296.033224 232.270557 
L 299.925855 226.723561 
L 301.31608 225.202464 
L 303.818486 222.636455 
L 305.208711 220.81548 
L 307.711117 217.440789 
L 308.823297 216.366848 
L 309.657432 215.840802 
L 310.491567 215.57788 
L 311.325703 215.603522 
L 312.159838 215.94574 
L 312.993973 216.636104 
L 313.828108 217.680948 
L 314.662244 219.058763 
L 315.774424 221.33421 
L 317.164649 224.788198 
L 318.554875 228.935192 
L 320.50119 235.68969 
L 321.891416 240.335293 
L 323.003596 243.293415 
L 324.115776 245.484756 
L 326.062092 248.910257 
L 326.896227 250.927762 
L 327.730362 253.493263 
L 329.120587 258.701868 
L 330.788858 264.939194 
L 331.901038 268.147637 
L 332.735173 269.883048 
L 333.569309 271.076222 
L 334.403444 271.802694 
L 334.959534 272.059824 
L 335.515624 272.149994 
L 336.071714 272.078149 
L 336.627805 271.845307 
L 337.46194 271.209546 
L 338.296075 270.284036 
L 341.354571 266.46212 
L 342.188706 265.827884 
L 343.022841 265.447694 
L 344.135022 265.252925 
L 345.525247 265.28314 
L 347.749607 265.576852 
L 349.417878 265.999213 
L 351.642239 266.818972 
L 354.144644 267.944467 
L 355.256825 268.651971 
L 356.369005 269.596246 
L 357.75923 271.119613 
L 360.261636 274.354375 
L 365.266447 280.719707 
L 366.378628 281.728781 
L 367.490808 282.421178 
L 368.881033 283.28514 
L 369.715168 284.158367 
L 370.549304 285.452144 
L 372.773664 289.536693 
L 373.329754 290.004004 
L 373.607799 290.054525 
L 373.885845 289.964999 
L 374.16389 289.72633 
L 374.71998 288.787627 
L 375.27607 287.257621 
L 376.110205 284.06984 
L 378.334566 274.518151 
L 379.168701 272.098134 
L 379.724791 271.024464 
L 380.280881 270.336099 
L 380.836971 269.95076 
L 381.671107 269.727707 
L 383.339377 269.690413 
L 384.173512 269.81327 
L 384.729602 270.052989 
L 385.285693 270.494658 
L 385.841783 271.187867 
L 386.675918 272.749341 
L 387.510053 274.897324 
L 388.900279 279.266254 
L 390.290504 283.4343 
L 391.124639 285.235729 
L 391.680729 285.989842 
L 392.236819 286.333991 
L 392.79291 286.250748 
L 393.349 285.749649 
L 393.90509 284.872493 
L 394.739225 283.017172 
L 397.241631 276.759319 
L 398.075766 275.388414 
L 398.631856 274.784053 
L 399.187946 274.419615 
L 399.744036 274.274198 
L 400.300127 274.319046 
L 401.134262 274.674746 
L 401.968397 275.295975 
L 403.358622 276.688592 
L 405.026893 278.343217 
L 405.861028 278.888164 
L 406.695163 279.118399 
L 407.251253 279.057834 
L 407.807344 278.786749 
L 408.363434 278.246408 
L 408.919524 277.34925 
L 409.475614 275.970215 
L 410.031704 273.9437 
L 410.587794 271.074223 
L 411.143885 267.157802 
L 411.699975 262.006544 
L 412.53411 251.676286 
L 413.368245 238.14673 
L 414.480425 215.885582 
L 417.816966 145.064621 
L 418.651102 132.243754 
L 419.485237 122.435918 
L 420.319372 115.459349 
L 421.153507 110.829768 
L 421.987642 107.890682 
L 422.821778 105.958469 
L 425.880273 99.961303 
L 426.436364 98.618275 
L 426.436364 98.618275 
" clip-path="url(#p4fb4484d5d)" style="fill: none; stroke-dasharray: 11.1,4.8; stroke-dashoffset: 0; stroke: #000000; stroke-width: 3"/>
   </g>
   <g id="line2d_2">
    <path d="M 27.163636 316.472727 
L 27.441681 316.286037 
L 27.997772 316.470221 
L 28.553862 316.132542 
L 29.387997 314.910796 
L 29.944087 313.314586 
L 30.222132 313.467827 
L 30.500177 314.628753 
L 30.778222 313.785148 
L 31.334312 309.266941 
L 32.168448 305.059789 
L 32.446493 304.547749 
L 32.724538 304.368629 
L 33.002583 303.989506 
L 33.280628 304.009525 
L 33.558673 304.834618 
L 34.392808 311.022879 
L 34.670853 311.66091 
L 34.948898 311.081615 
L 35.226944 308.277089 
L 36.061079 295.673772 
L 36.339124 293.116502 
L 36.895214 286.102267 
L 37.173259 284.265135 
L 37.451304 283.865468 
L 37.729349 284.820515 
L 38.563484 292.059395 
L 38.84153 292.810121 
L 39.119575 292.9804 
L 39.39762 292.831867 
L 39.675665 290.560028 
L 40.231755 283.215769 
L 40.787845 280.330914 
L 41.06589 279.782376 
L 41.343935 280.068229 
L 41.62198 281.138173 
L 41.900025 283.095723 
L 43.012206 294.279596 
L 43.290251 293.290117 
L 43.568296 290.742552 
L 43.846341 286.857836 
L 44.680476 270.282579 
L 45.236566 266.454262 
L 45.514611 265.995216 
L 45.792656 266.745264 
L 46.070701 269.356494 
L 46.626792 279.409502 
L 46.904837 284.553698 
L 47.182882 285.753071 
L 47.460927 282.145859 
L 47.738972 274.841095 
L 48.017017 264.586475 
L 48.295062 258.911237 
L 48.573107 256.750178 
L 48.851152 255.936855 
L 49.129197 255.775688 
L 49.685287 256.057375 
L 49.963332 257.744518 
L 50.519423 282.106701 
L 50.797468 287.359291 
L 51.075513 289.27538 
L 51.353558 289.614109 
L 51.631603 287.978928 
L 51.909648 282.049829 
L 52.465738 257.015742 
L 52.743783 254.926867 
L 53.021828 254.690467 
L 53.299873 254.646128 
L 53.577918 254.899599 
L 54.134009 265.870191 
L 55.246189 273.3766 
L 55.524234 273.938043 
L 55.802279 272.898212 
L 56.080324 270.775498 
L 56.914459 261.577916 
L 57.192504 260.468002 
L 57.748595 262.531608 
L 58.02664 261.907534 
L 58.304685 260.287358 
L 58.58273 260.418649 
L 58.860775 261.03622 
L 59.13882 261.36787 
L 59.69491 260.753856 
L 59.972955 261.14895 
L 60.251 261.779494 
L 60.529045 261.619207 
L 61.085135 258.523798 
L 61.363181 257.733204 
L 61.641226 258.128908 
L 62.197316 258.449481 
L 62.475361 258.518311 
L 62.753406 262.136176 
L 63.587541 264.963311 
L 63.865586 264.47317 
L 64.421676 262.265028 
L 64.699721 262.467284 
L 64.977767 266.997855 
L 65.533857 283.960414 
L 65.811902 287.503013 
L 66.089947 289.280427 
L 66.367992 289.909718 
L 66.646037 289.812232 
L 66.924082 288.646682 
L 67.202127 288.212617 
L 67.480172 285.015894 
L 68.036262 275.470082 
L 68.314307 274.099516 
L 68.592352 274.149241 
L 68.870398 275.645814 
L 69.426488 281.567919 
L 69.704533 282.122554 
L 69.982578 281.893471 
L 70.260623 281.224888 
L 70.538668 280.033916 
L 71.372803 273.044035 
L 71.650848 268.500254 
L 71.928893 268.506453 
L 72.484984 276.514113 
L 73.041074 273.227322 
L 73.319119 273.379614 
L 73.597164 273.265327 
L 73.875209 274.444681 
L 74.987389 281.311873 
L 75.265434 281.28403 
L 75.821524 278.110036 
L 76.09957 278.9197 
L 76.377615 278.858051 
L 76.65566 277.864558 
L 77.21175 274.95667 
L 77.489795 275.836079 
L 78.045885 279.826139 
L 78.32393 282.12086 
L 78.601975 282.480015 
L 78.88002 279.753008 
L 79.43611 271.263438 
L 79.714155 269.308868 
L 79.992201 270.278819 
L 80.270246 271.912781 
L 80.826336 268.211183 
L 81.104381 269.515663 
L 81.382426 268.663115 
L 81.660471 268.641673 
L 82.494606 274.791844 
L 82.772651 274.775382 
L 83.606787 265.070011 
L 83.884832 266.325985 
L 84.162877 269.427322 
L 84.718967 278.796301 
L 84.997012 281.404075 
L 85.275057 282.340323 
L 85.553102 281.477038 
L 85.831147 280.097123 
L 86.109192 279.626628 
L 86.387237 278.584426 
L 86.665282 272.62794 
L 86.943327 263.14796 
L 87.221372 257.695538 
L 87.499418 256.589045 
L 87.777463 256.986577 
L 88.055508 258.655394 
L 88.333553 263.835343 
L 88.611598 271.80659 
L 88.889643 276.541177 
L 89.167688 277.397044 
L 89.445733 260.622395 
L 89.723778 263.70019 
L 90.001823 263.225224 
L 90.557913 260.267644 
L 90.835958 259.958926 
L 91.114004 260.311137 
L 91.392049 261.021689 
L 91.670094 262.389647 
L 91.948139 265.5506 
L 93.060319 288.279889 
L 93.338364 290.862326 
L 93.616409 291.171281 
L 93.894454 290.95883 
L 94.72859 288.139028 
L 95.006635 288.442208 
L 95.562725 291.549913 
L 95.84077 291.720683 
L 96.39686 288.906589 
L 97.50904 282.169705 
L 98.06513 280.030325 
L 98.899266 278.167382 
L 99.455356 273.957486 
L 100.011446 269.048657 
L 100.289491 268.34996 
L 100.845581 271.913086 
L 101.679716 278.648107 
L 101.957761 279.583982 
L 102.235807 278.808563 
L 102.513852 276.567768 
L 103.069942 267.576844 
L 103.904077 247.809319 
L 104.182122 246.816301 
L 104.460167 249.673583 
L 104.738212 254.981808 
L 105.016257 264.459418 
L 105.294302 268.431966 
L 105.850393 271.469893 
L 106.128438 271.839785 
L 106.406483 270.791656 
L 106.962573 266.794922 
L 107.518663 258.304098 
L 107.796708 257.195675 
L 108.074753 258.51892 
L 108.352798 261.722249 
L 108.630843 263.557246 
L 108.908888 263.606803 
L 109.186933 266.608587 
L 109.464978 272.879616 
L 109.743024 274.232907 
L 110.299114 271.119173 
L 110.577159 271.788705 
L 110.855204 270.866413 
L 111.411294 265.241306 
L 111.967384 267.077287 
L 112.801519 273.105684 
L 113.079564 272.921449 
L 113.635655 265.027128 
L 114.191745 262.669505 
L 114.46979 262.568123 
L 114.747835 263.351909 
L 115.303925 259.017869 
L 115.860015 258.160037 
L 116.13806 258.297425 
L 116.416105 257.870898 
L 116.69415 257.927432 
L 116.972195 257.86497 
L 117.250241 258.27534 
L 117.528286 262.816039 
L 117.806331 272.717839 
L 118.084376 275.663123 
L 118.640466 272.531369 
L 118.918511 272.659205 
L 119.196556 272.299509 
L 119.474601 271.461018 
L 119.752646 271.299241 
L 120.030691 271.365971 
L 120.308736 271.623778 
L 120.586781 272.122285 
L 120.864827 271.91312 
L 121.142872 271.221875 
L 121.420917 270.19932 
L 121.698962 269.620804 
L 121.977007 269.320927 
L 122.255052 268.70505 
L 122.811142 265.658485 
L 123.089187 262.859735 
L 123.367232 261.413565 
L 123.645277 261.078697 
L 123.923322 261.84392 
L 124.757458 265.894444 
L 125.035503 251.748299 
L 125.313548 256.878557 
L 125.591593 259.41425 
L 125.869638 259.732113 
L 126.147683 257.930107 
L 126.981818 244.400382 
L 127.259863 243.798156 
L 127.815953 246.680369 
L 128.093998 247.060999 
L 128.650089 246.767727 
L 129.206179 246.989865 
L 129.484224 247.554053 
L 130.040314 249.87848 
L 130.596404 248.71332 
L 131.152494 247.40071 
L 131.430539 247.071804 
L 131.708584 245.978115 
L 131.98663 241.888841 
L 132.264675 240.436742 
L 133.09881 264.070082 
L 133.376855 264.765968 
L 133.6549 263.449937 
L 133.932945 260.486869 
L 134.489035 257.866494 
L 135.045125 252.637159 
L 135.32317 251.933957 
L 135.879261 251.759511 
L 136.157306 252.026261 
L 137.547531 246.385132 
L 138.103621 245.681829 
L 138.381666 245.785344 
L 138.659711 245.563612 
L 138.937756 245.154766 
L 139.493847 243.421895 
L 139.771892 242.845988 
L 140.049937 242.804053 
L 140.327982 242.583371 
L 140.606027 242.716458 
L 140.884072 242.009327 
L 141.162117 242.050855 
L 141.440162 243.143663 
L 141.718207 246.036004 
L 141.996252 245.301605 
L 142.274297 239.52573 
L 143.108433 211.165966 
L 143.664523 183.376148 
L 144.220613 165.446974 
L 144.776703 153.099244 
L 145.054748 151.811395 
L 145.332793 152.435538 
L 145.610838 154.864463 
L 145.888883 154.498636 
L 146.166928 151.960843 
L 146.444973 147.847146 
L 147.001064 134.030381 
L 147.279109 131.04279 
L 147.557154 129.836575 
L 148.113244 129.21958 
L 148.669334 129.432336 
L 149.225424 130.142515 
L 149.503469 130.596819 
L 149.781514 130.33366 
L 150.059559 129.46946 
L 150.337604 125.854305 
L 150.61565 114.691416 
L 151.449785 71.025326 
L 151.72783 69.052432 
L 152.005875 68.360645 
L 152.84001 75.882737 
L 153.118055 78.905048 
L 153.3961 77.620655 
L 154.508281 40.595215 
L 154.786326 32.042574 
L 155.064371 27.43755 
L 155.342416 25.885019 
L 155.898506 24.663527 
L 156.176551 24.431328 
L 156.454596 24.363616 
L 156.732641 24.528069 
L 157.010686 24.868865 
L 157.566776 26.073386 
L 157.844821 26.323639 
L 158.400912 25.668266 
L 159.235047 23.72833 
L 159.791137 22.036682 
L 160.069182 21.927273 
L 160.347227 22.615096 
L 161.737453 33.071667 
L 162.015498 33.386414 
L 162.293543 33.013473 
L 162.849633 31.327787 
L 163.683768 29.029747 
L 163.961813 28.920981 
L 164.239858 29.463015 
L 164.795948 32.830458 
L 165.352038 37.560303 
L 165.630084 38.668083 
L 166.186174 37.106135 
L 166.742264 36.534055 
L 167.020309 35.736788 
L 167.298354 35.706608 
L 167.576399 35.914215 
L 167.854444 39.197043 
L 168.688579 69.327886 
L 169.24467 74.762187 
L 169.522715 76.905699 
L 169.80076 75.845341 
L 170.35685 67.174653 
L 170.91294 57.569241 
L 171.190985 56.026431 
L 171.46903 57.262386 
L 171.747075 67.052304 
L 172.303165 104.196027 
L 172.58121 110.255859 
L 172.859256 112.960002 
L 173.137301 114.403869 
L 173.415346 114.30496 
L 174.249481 109.210202 
L 174.527526 108.884751 
L 174.805571 109.123691 
L 175.917751 114.142641 
L 176.195796 121.366651 
L 176.751887 144.04447 
L 177.029932 148.184757 
L 177.307977 148.672663 
L 177.586022 146.540938 
L 177.864067 143.077805 
L 178.142112 137.358023 
L 178.420157 136.377673 
L 178.698202 134.488851 
L 178.976247 136.996362 
L 179.532337 149.17134 
L 180.088427 163.562318 
L 180.644518 166.226931 
L 180.922563 167.169716 
L 181.200608 167.576395 
L 181.478653 166.848601 
L 181.756698 165.113156 
L 182.312788 160.630515 
L 182.590833 159.875759 
L 183.424968 163.951078 
L 183.703013 164.409073 
L 183.981058 165.153397 
L 184.259104 165.009234 
L 184.537149 163.423168 
L 185.093239 154.333167 
L 185.371284 147.405646 
L 185.649329 145.859144 
L 185.927374 146.849114 
L 186.483464 152.75645 
L 187.317599 167.026976 
L 187.595644 167.798567 
L 187.87369 167.063626 
L 188.151735 166.905846 
L 188.42978 167.7232 
L 188.707825 168.020096 
L 189.263915 167.239935 
L 189.820005 167.375596 
L 190.09805 166.763072 
L 190.376095 166.612304 
L 190.65414 163.581998 
L 190.932185 157.786883 
L 191.21023 157.23506 
L 191.488276 158.320382 
L 191.766321 160.879617 
L 192.044366 167.465562 
L 192.322411 170.397569 
L 192.600456 171.600938 
L 193.156546 175.148381 
L 193.434591 175.311818 
L 193.712636 174.862968 
L 193.990681 174.904937 
L 194.546771 172.477569 
L 194.824816 168.696233 
L 195.102861 170.133834 
L 195.658952 182.017166 
L 195.936997 188.626179 
L 196.493087 206.871286 
L 197.049177 216.183596 
L 197.605267 222.79725 
L 197.883312 224.197082 
L 198.161357 224.108301 
L 198.717447 212.660575 
L 198.995493 211.126131 
L 199.273538 210.640292 
L 199.829628 207.899295 
L 200.107673 209.390246 
L 200.663763 217.288225 
L 201.219853 229.355047 
L 201.775943 233.18665 
L 202.053988 233.187158 
L 202.610079 223.715104 
L 202.888124 220.783166 
L 203.166169 215.573714 
L 203.444214 214.581982 
L 203.722259 216.213099 
L 204.000304 216.594339 
L 204.278349 215.557319 
L 205.112484 208.534209 
L 205.390529 207.969683 
L 205.668574 209.805155 
L 206.224664 214.327766 
L 206.50271 215.506036 
L 206.780755 216.109753 
L 207.0588 217.249305 
L 207.61489 221.316021 
L 207.892935 221.565664 
L 208.72707 212.253592 
L 209.005115 210.96344 
L 209.28316 210.491929 
L 209.561205 211.228563 
L 209.83925 213.168025 
L 210.395341 221.198346 
L 211.507521 248.872522 
L 211.785566 251.3026 
L 212.063611 248.565295 
L 212.341656 244.277254 
L 213.453836 221.434034 
L 213.731881 219.785168 
L 214.009927 220.48085 
L 214.287972 223.111963 
L 215.122107 238.205127 
L 215.400152 240.326825 
L 215.678197 240.770831 
L 215.956242 240.035213 
L 216.234287 239.920384 
L 217.068422 235.086108 
L 217.346467 232.198171 
L 217.624513 231.071591 
L 217.902558 232.14621 
L 218.180603 234.820985 
L 218.736693 244.420537 
L 219.570828 262.999224 
L 219.848873 263.731557 
L 220.126918 262.423046 
L 220.961053 256.971673 
L 221.239099 256.901082 
L 221.517144 257.440474 
L 221.795189 258.369507 
L 222.351279 258.862121 
L 222.907369 257.268366 
L 223.185414 255.946882 
L 223.741504 251.954179 
L 224.019549 251.772485 
L 224.297594 252.668017 
L 224.575639 252.752056 
L 224.853684 251.521825 
L 225.409775 247.102696 
L 226.521955 237.78036 
L 226.8 237.166143 
L 227.35609 239.111702 
L 228.190225 244.082349 
L 228.46827 244.905868 
L 228.746316 246.403356 
L 229.024361 246.441666 
L 229.580451 243.270619 
L 229.858496 244.38016 
L 230.414586 249.91154 
L 230.970676 250.497203 
L 231.248721 249.447244 
L 231.804811 239.975867 
L 232.082856 240.23591 
L 232.360901 238.377303 
L 232.638947 233.859976 
L 232.916992 231.238178 
L 233.473082 231.315341 
L 233.751127 230.940063 
L 234.585262 249.209253 
L 234.863307 251.458923 
L 235.141352 251.689496 
L 235.419397 249.126705 
L 235.697442 244.339174 
L 235.975487 245.972323 
L 236.253533 245.364507 
L 236.531578 243.918404 
L 236.809623 243.923214 
L 237.087668 245.429984 
L 237.365713 247.977126 
L 237.643758 246.228165 
L 237.921803 240.344947 
L 238.199848 243.804388 
L 238.755938 258.446636 
L 239.033983 257.160887 
L 239.312028 254.811834 
L 239.590073 254.356718 
L 239.868119 254.326198 
L 240.146164 252.845206 
L 240.702254 242.825122 
L 240.980299 241.758125 
L 241.258344 245.124348 
L 241.814434 254.674886 
L 242.092479 251.821533 
L 242.648569 254.196431 
L 242.926614 254.053182 
L 243.482704 250.090051 
L 243.76075 249.918518 
L 244.038795 251.711141 
L 245.150975 262.234102 
L 245.42902 262.476768 
L 246.5412 255.854341 
L 246.819245 255.763934 
L 247.09729 256.122852 
L 247.375336 255.502029 
L 247.931426 251.588453 
L 248.765561 240.776589 
L 249.043606 240.072609 
L 249.877741 236.856544 
L 250.711876 230.392405 
L 250.989921 230.423636 
L 251.267967 231.449918 
L 252.102102 237.116146 
L 252.658192 241.765442 
L 252.936237 243.372746 
L 253.492327 245.154902 
L 253.770372 244.708897 
L 254.048417 244.95329 
L 254.326462 246.31698 
L 254.604507 246.350345 
L 254.882553 244.649585 
L 255.160598 243.72123 
L 255.438643 243.379114 
L 255.994733 243.55339 
L 256.272778 243.581877 
L 256.828868 244.695585 
L 257.106913 244.415591 
L 257.384958 244.338225 
L 257.663003 239.876179 
L 257.941048 238.344073 
L 258.219093 238.07641 
L 258.497139 238.406129 
L 258.775184 239.397792 
L 259.053229 241.946594 
L 259.331274 245.521644 
L 259.609319 245.302181 
L 259.887364 243.865021 
L 260.165409 251.634724 
L 260.443454 252.0434 
L 260.721499 248.41368 
L 260.999544 242.812894 
L 261.277589 242.656401 
L 261.555634 243.498516 
L 261.833679 243.315026 
L 262.111724 242.415869 
L 262.667815 249.3754 
L 262.94586 250.188756 
L 263.223905 250.565593 
L 263.779995 252.548175 
L 264.05804 252.416307 
L 264.336085 253.111922 
L 264.61413 256.577426 
L 264.892175 256.00809 
L 265.448265 250.365505 
L 265.72631 247.047009 
L 266.004356 246.250826 
L 266.282401 251.374376 
L 266.560446 251.209347 
L 266.838491 247.562724 
L 267.116536 245.726541 
L 267.672626 250.052723 
L 267.950671 249.806738 
L 268.228716 247.328832 
L 268.784806 238.450299 
L 269.618942 239.977832 
L 269.896987 244.908171 
L 270.453077 256.24388 
L 270.731122 253.264384 
L 271.009167 241.735769 
L 271.287212 238.15845 
L 271.565257 239.602385 
L 271.843302 243.471045 
L 272.121347 249.475867 
L 272.399392 252.768382 
L 273.233527 255.834559 
L 273.511573 256.780765 
L 274.067663 260.266424 
L 274.345708 261.082728 
L 274.623753 260.39023 
L 275.179843 256.123969 
L 275.457888 241.795859 
L 275.735933 237.792453 
L 276.013978 237.475165 
L 276.292023 239.693638 
L 276.570068 236.17912 
L 277.126159 240.868554 
L 277.404204 240.218601 
L 277.682249 238.975058 
L 277.960294 237.04105 
L 278.238339 236.47544 
L 278.516384 237.12939 
L 279.072474 238.809657 
L 279.628564 240.639777 
L 279.906609 243.370307 
L 280.184654 244.071612 
L 280.462699 244.067682 
L 281.57488 240.919499 
L 281.852925 239.710778 
L 282.409015 235.955694 
L 282.965105 235.309534 
L 283.79924 236.523099 
L 284.077285 237.601579 
L 284.35533 242.03927 
L 284.633376 242.179267 
L 284.911421 241.858186 
L 285.189466 241.883082 
L 285.467511 243.855977 
L 285.745556 247.627862 
L 286.023601 248.995854 
L 286.579691 245.518968 
L 286.857736 243.430905 
L 287.135781 242.197931 
L 287.413826 241.873733 
L 287.691871 242.146918 
L 287.969916 243.811603 
L 288.804052 259.082024 
L 289.082097 261.200504 
L 289.360142 261.687969 
L 289.638187 263.395605 
L 290.194277 269.490698 
L 290.472322 270.872273 
L 291.028412 276.215896 
L 291.306457 277.927765 
L 291.584502 277.461572 
L 291.862547 274.210957 
L 292.418638 260.212634 
L 292.974728 208.734195 
L 293.252773 203.986804 
L 293.530818 203.811003 
L 293.808863 201.785911 
L 294.086908 202.999103 
L 294.364953 209.410739 
L 294.921043 262.653348 
L 295.199088 267.184359 
L 295.477133 265.798211 
L 295.755179 246.678573 
L 296.311269 235.573878 
L 296.589314 232.98138 
L 296.867359 231.781771 
L 297.145404 232.182318 
L 297.423449 233.489847 
L 297.701494 236.353701 
L 297.979539 236.824534 
L 298.257584 236.148634 
L 298.535629 234.511894 
L 299.091719 228.423779 
L 299.64781 226.029099 
L 299.925855 224.982561 
L 300.481945 221.949072 
L 300.75999 222.089543 
L 301.038035 226.297948 
L 301.594125 242.412414 
L 301.87217 241.698407 
L 302.150215 241.908589 
L 302.42826 241.028807 
L 302.706305 238.735339 
L 303.262396 228.296925 
L 303.540441 223.576157 
L 303.818486 221.808499 
L 304.096531 223.673102 
L 304.652621 228.942034 
L 304.930666 230.980913 
L 305.208711 234.979916 
L 305.486756 236.469139 
L 305.764801 237.311017 
L 306.042846 232.107154 
L 306.320891 224.045941 
L 306.598936 223.657181 
L 306.876982 217.757061 
L 307.433072 197.684239 
L 307.711117 195.173815 
L 308.267207 194.501573 
L 308.545252 194.525115 
L 309.101342 195.041372 
L 309.379387 195.442461 
L 309.657432 196.226585 
L 309.935477 197.348253 
L 310.769613 204.380915 
L 311.047658 217.898717 
L 311.325703 216.515212 
L 311.881793 235.765294 
L 312.159838 243.390326 
L 312.437883 239.006492 
L 312.715928 238.916695 
L 312.993973 242.83752 
L 313.550063 239.061028 
L 313.828108 238.656111 
L 314.106153 239.584229 
L 314.384199 241.751012 
L 314.662244 240.886676 
L 314.940289 227.668379 
L 315.218334 225.471212 
L 315.496379 229.603674 
L 315.774424 230.462929 
L 316.052469 227.999893 
L 316.330514 223.312084 
L 316.608559 228.638872 
L 316.886604 242.519893 
L 317.164649 238.550461 
L 317.442694 237.376189 
L 317.720739 238.229651 
L 317.998785 237.491085 
L 318.27683 234.098746 
L 318.554875 234.21869 
L 318.83292 237.837741 
L 319.110965 232.947372 
L 319.38901 221.478949 
L 319.667055 223.021048 
L 319.9451 225.494889 
L 320.223145 229.353116 
L 320.779235 245.541527 
L 321.05728 248.421809 
L 321.61337 244.430529 
L 321.891416 243.174623 
L 322.447506 241.837591 
L 322.725551 240.577383 
L 323.003596 240.567052 
L 323.281641 242.355305 
L 324.393821 251.809 
L 325.506002 243.006884 
L 325.784047 238.62427 
L 326.340137 215.80825 
L 326.618182 214.503499 
L 327.174272 218.075703 
L 327.452317 219.22098 
L 327.730362 221.031522 
L 328.564497 234.838836 
L 328.842542 262.570732 
L 329.120587 262.44276 
L 329.398633 261.957395 
L 329.676678 260.431521 
L 330.510813 249.874009 
L 330.788858 248.977833 
L 331.066903 248.63758 
L 331.344948 251.270522 
L 331.622993 256.86599 
L 331.901038 257.95995 
L 332.735173 244.803639 
L 333.013219 245.080652 
L 333.291264 240.320694 
L 334.959534 258.314328 
L 335.515624 266.921945 
L 335.793669 268.205187 
L 336.071714 266.011949 
L 336.627805 258.90287 
L 337.739985 241.944155 
L 338.01803 242.966203 
L 338.296075 242.582253 
L 338.57412 241.452591 
L 339.13021 237.646054 
L 339.408255 237.92703 
L 339.964345 243.477379 
L 340.24239 244.11839 
L 340.798481 242.769841 
L 341.076526 243.409565 
L 341.354571 245.6256 
L 341.632616 249.339765 
L 342.188706 261.709885 
L 342.466751 264.11134 
L 343.022841 264.692125 
L 343.300886 263.137019 
L 343.856976 257.694318 
L 344.413067 247.423236 
L 344.691112 241.321639 
L 344.969157 237.976823 
L 345.247202 237.312101 
L 345.525247 238.813112 
L 346.359382 245.928356 
L 346.637427 246.115504 
L 346.915472 245.923309 
L 347.471562 244.490654 
L 347.749607 244.251816 
L 348.027653 244.499257 
L 348.305698 244.147826 
L 348.861788 236.741342 
L 349.139833 231.461299 
L 349.695923 216.385444 
L 349.973968 214.891411 
L 350.808103 217.799198 
L 351.364193 215.839379 
L 351.642239 215.920742 
L 351.920284 222.963972 
L 352.198329 233.765064 
L 352.476374 237.403253 
L 352.754419 238.2746 
L 353.032464 237.38154 
L 354.422689 219.340721 
L 354.700734 218.427304 
L 354.978779 219.047348 
L 355.256825 221.950291 
L 355.53487 217.149787 
L 355.812915 219.584708 
L 356.09096 220.712879 
L 356.64705 217.789951 
L 356.925095 219.790249 
L 357.481185 231.52349 
L 357.75923 233.356523 
L 358.037275 232.235397 
L 358.31532 227.504637 
L 358.593365 219.889869 
L 359.149456 237.682738 
L 359.427501 235.888219 
L 359.983591 229.313045 
L 360.261636 231.102314 
L 361.373816 251.845718 
L 361.651861 253.711608 
L 361.929906 254.048169 
L 362.207951 252.393375 
L 363.042087 241.354936 
L 363.320132 237.860571 
L 363.598177 237.353426 
L 363.876222 238.882517 
L 364.432312 248.913373 
L 364.710357 246.440921 
L 365.266447 214.052244 
L 365.544492 217.800926 
L 366.656673 254.653546 
L 367.490808 243.982594 
L 367.768853 243.05976 
L 368.046898 243.442219 
L 368.324943 242.294774 
L 368.602988 243.280713 
L 368.881033 240.439926 
L 369.437123 253.261301 
L 369.715168 256.66133 
L 369.993213 257.10371 
L 370.271259 255.528111 
L 370.549304 253.24511 
L 370.827349 252.360417 
L 371.105394 252.412514 
L 371.383439 252.809165 
L 371.661484 252.520839 
L 371.939529 253.073848 
L 372.495619 257.255732 
L 372.773664 257.856332 
L 373.051709 257.879467 
L 373.329754 253.381042 
L 373.607799 254.007115 
L 374.441935 257.600897 
L 374.71998 257.582063 
L 374.998025 257.744619 
L 375.27607 258.37469 
L 375.554115 256.837062 
L 375.83216 253.017145 
L 376.666295 233.076563 
L 376.94434 228.428318 
L 377.222385 227.898376 
L 377.50043 228.37026 
L 377.778476 235.018024 
L 378.056521 231.482571 
L 378.334566 223.5914 
L 378.612611 219.060863 
L 378.890656 217.450646 
L 379.168701 217.185929 
L 379.446746 215.979071 
L 380.002836 209.622479 
L 380.280881 210.110791 
L 380.558926 212.629039 
L 380.836971 220.996328 
L 381.115016 239.600725 
L 381.393062 242.224758 
L 381.671107 241.55902 
L 381.949152 240.039007 
L 382.227197 226.686166 
L 382.505242 226.906949 
L 383.339377 239.271412 
L 383.617422 241.704606 
L 383.895467 238.011204 
L 384.173512 229.328829 
L 384.451557 226.413658 
L 384.729602 232.26297 
L 385.007648 235.528455 
L 385.285693 236.979266 
L 385.563738 235.647924 
L 386.119828 234.42728 
L 386.397873 233.526328 
L 386.953963 230.492025 
L 387.232008 217.635694 
L 387.788098 208.310885 
L 388.066143 208.597145 
L 388.344188 212.359817 
L 388.622233 214.278041 
L 388.900279 211.717451 
L 389.178324 208.127531 
L 389.456369 211.715215 
L 390.012459 235.339207 
L 390.290504 235.406749 
L 390.568549 233.165581 
L 390.846594 233.310151 
L 391.124639 232.083274 
L 391.680729 237.061746 
L 391.958774 236.844147 
L 392.236819 231.950966 
L 392.514865 229.357486 
L 392.79291 231.935994 
L 393.070955 232.314863 
L 393.90509 220.799797 
L 394.183135 220.299223 
L 394.46118 221.128466 
L 394.739225 222.440669 
L 395.295315 214.311812 
L 395.57336 215.479953 
L 395.851405 215.271262 
L 396.12945 214.453706 
L 396.407496 212.717447 
L 396.963586 207.718346 
L 397.241631 207.989059 
L 397.797721 210.327713 
L 398.353811 211.561365 
L 398.631856 211.710778 
L 398.909901 213.072402 
L 399.744036 224.049667 
L 400.022082 189.636846 
L 400.300127 183.297088 
L 400.578172 182.276633 
L 400.856217 186.497707 
L 401.412307 203.451408 
L 401.690352 205.483174 
L 401.968397 206.147625 
L 402.246442 206.025242 
L 402.802532 208.111272 
L 403.080577 208.566795 
L 403.636668 206.985878 
L 403.914713 206.742332 
L 404.192758 207.63214 
L 404.470803 205.487069 
L 405.861028 208.180542 
L 406.139073 208.019815 
L 406.417118 207.425041 
L 406.973208 205.282985 
L 407.807344 201.413986 
L 408.085389 201.089212 
L 408.363434 201.803118 
L 408.641479 202.86622 
L 408.919524 199.602123 
L 409.197569 199.629154 
L 409.475614 199.915448 
L 409.753659 200.555375 
L 410.031704 200.724943 
L 410.309749 200.642971 
L 410.587794 199.973303 
L 410.865839 197.729086 
L 411.42193 191.193882 
L 411.699975 190.721965 
L 411.97802 191.00355 
L 412.256065 191.119667 
L 412.53411 189.773692 
L 413.0902 184.929526 
L 413.368245 185.348331 
L 413.64629 186.292538 
L 413.924335 187.952007 
L 415.314561 200.914191 
L 416.148696 212.097166 
L 416.426741 212.235368 
L 416.704786 211.640187 
L 417.260876 206.531405 
L 417.538921 206.567311 
L 417.816966 186.121582 
L 418.095011 182.693337 
L 419.207192 158.891581 
L 420.041327 147.813002 
L 420.319372 145.507475 
L 421.987642 139.791691 
L 422.543733 144.614856 
L 422.821778 150.046244 
L 423.099823 151.872672 
L 423.655913 147.821131 
L 423.933958 147.199529 
L 424.490048 145.258916 
L 425.046138 146.228291 
L 425.602228 143.232502 
L 425.880273 141.965316 
L 426.158319 141.91803 
L 426.436364 142.629124 
L 426.436364 142.629124 
" clip-path="url(#p4fb4484d5d)" style="fill: none; stroke: #ff00ff; stroke-width: 3; stroke-linecap: square"/>
   </g>
   <g id="patch_3">
    <path d="M 7.2 331.2 
L 7.2 7.2 
" style="fill: none; stroke: #000000; stroke-width: 0.8; stroke-linejoin: miter; stroke-linecap: square"/>
   </g>
   <g id="patch_4">
    <path d="M 446.4 331.2 
L 446.4 7.2 
" style="fill: none; stroke: #000000; stroke-width: 0.8; stroke-linejoin: miter; stroke-linecap: square"/>
   </g>
   <g id="patch_5">
    <path d="M 7.2 331.2 
L 446.4 331.2 
" style="fill: none; stroke: #000000; stroke-width: 0.8; stroke-linejoin: miter; stroke-linecap: square"/>
   </g>
   <g id="patch_6">
    <path d="M 7.2 7.2 
L 446.4 7.2 
" style="fill: none; stroke: #000000; stroke-width: 0.8; stroke-linejoin: miter; stroke-linecap: square"/>
   </g>
  </g>
 </g>
 <defs>
  <clipPath id="p4fb4484d5d">
   <rect x="7.2" y="7.2" width="439.2" height="324"/>
  </clipPath>
 </defs>
</svg>
