<?xml version="1.0" encoding="utf-8" standalone="no"?>
<!DOCTYPE svg PUBLIC "-//W3C//DTD SVG 1.1//EN"
  "http://www.w3.org/Graphics/SVG/1.1/DTD/svg11.dtd">
<svg xmlns:xlink="http://www.w3.org/1999/xlink" width="453.6pt" height="338.4pt" viewBox="0 0 453.6 338.4" xmlns="http://www.w3.org/2000/svg" version="1.1">
 <metadata>
  <rdf:RDF xmlns:dc="http://purl.org/dc/elements/1.1/" xmlns:cc="http://creativecommons.org/ns#" xmlns:rdf="http://www.w3.org/1999/02/22-rdf-syntax-ns#">
   <cc:Work>
    <dc:type rdf:resource="http://purl.org/dc/dcmitype/StillImage"/>
    <dc:date>2025-05-15T09:43:09.112867</dc:date>
    <dc:format>image/svg+xml</dc:format>
    <dc:creator>
     <cc:Agent>
      <dc:title>Matplotlib v3.10.1, https://matplotlib.org/</dc:title>
     </cc:Agent>
    </dc:creator>
   </cc:Work>
  </rdf:RDF>
 </metadata>
 <defs>
  <style type="text/css">*{stroke-linejoin: round; stroke-linecap: butt}</style>
 </defs>
 <g id="figure_1">
  <g id="patch_1">
   <path d="M 0 338.4 
L 453.6 338.4 
L 453.6 0 
L 0 0 
z
" style="fill: #ffffff"/>
  </g>
  <g id="axes_1">
   <g id="patch_2">
    <path d="M 7.2 331.2 
L 446.4 331.2 
L 446.4 7.2 
L 7.2 7.2 
z
" style="fill: #ffffff"/>
   </g>
   <g id="matplotlib.axis_1"/>
   <g id="matplotlib.axis_2"/>
   <g id="line2d_1">
    <path d="M 27.163636 54.377242 
L 27.962182 80.240377 
L 28.760727 99.48153 
L 29.559273 113.481994 
L 30.357818 123.414985 
L 31.156364 130.158702 
L 31.688727 133.264302 
L 32.221091 135.463717 
L 32.753455 136.905316 
L 33.285818 137.719348 
L 33.818182 137.965065 
L 34.350545 137.778846 
L 34.882909 137.209584 
L 35.681455 135.756205 
L 36.48 133.680298 
L 37.544727 130.052276 
L 38.609455 125.527654 
L 39.674182 119.982171 
L 40.738909 113.237681 
L 41.803636 104.982035 
L 42.868364 94.767266 
L 43.666909 85.495656 
L 44.199273 75.57262 
L 44.997818 60.326397 
L 45.530182 57.5126 
L 46.062545 56.168088 
L 46.328727 55.997722 
L 46.594909 56.100953 
L 46.861091 56.453763 
L 47.393455 57.819466 
L 47.925818 59.930468 
L 48.724364 64.196275 
L 49.789091 71.247455 
L 51.918545 87.449617 
L 54.314182 105.218149 
L 55.645091 113.627132 
L 56.709818 119.122247 
L 57.508364 122.338469 
L 58.306909 124.568362 
L 58.839273 125.435291 
L 59.105455 125.657975 
L 59.371636 125.727533 
L 59.637818 125.62762 
L 59.904 125.339644 
L 60.702545 124.050259 
L 61.501091 123.409771 
L 62.299636 122.506763 
L 63.098182 121.242079 
L 63.896727 119.519212 
L 64.695273 117.244936 
L 65.493818 114.330612 
L 65.76 117.333209 
L 70.551273 194.601967 
L 72.414545 220.052793 
L 73.745455 235.671261 
L 75.076364 248.983483 
L 76.141091 257.984012 
L 78.004364 271.290454 
L 79.335273 279.870169 
L 80.4 285.317777 
L 81.198545 288.267835 
L 81.730909 289.618062 
L 82.263273 290.440192 
L 82.795636 290.717581 
L 83.061818 290.638016 
L 83.594182 290.067874 
L 84.126545 288.962508 
L 84.658909 287.334074 
L 85.457455 283.98458 
L 86.522182 278.097111 
L 86.788364 275.611308 
L 87.586909 253.825575 
L 88.917818 220.009376 
L 89.982545 198.518763 
L 90.781091 186.133258 
L 91.579636 177.261667 
L 92.112 173.408863 
L 92.644364 171.287239 
L 92.910545 170.890152 
L 93.176727 170.954697 
L 93.442909 171.479121 
L 93.709091 172.461184 
L 94.241455 176.86687 
L 94.773818 184.082272 
L 95.306182 194.094503 
L 96.104727 214.350057 
L 96.903273 240.84837 
L 97.701818 271.839641 
L 97.968 272.744592 
L 98.234182 273.013708 
L 98.500364 272.748683 
L 98.766545 271.966358 
L 99.298909 269.034569 
L 99.831273 264.561818 
L 100.629818 255.712998 
L 101.960727 237.607674 
L 104.090182 208.422602 
L 105.154909 196.930789 
L 105.953455 190.530455 
L 106.485818 187.475663 
L 107.018182 185.482745 
L 107.550545 184.560663 
L 107.816727 184.501103 
L 108.082909 184.711348 
L 108.349091 185.216627 
L 108.881455 187.032911 
L 109.68 190.836321 
L 109.946182 190.087844 
L 110.212364 188.640698 
L 110.478545 187.808627 
L 111.543273 186.533944 
L 112.341818 185.916736 
L 113.140364 185.557535 
L 113.938909 185.432938 
L 114.737455 185.533272 
L 115.536 185.860995 
L 116.334545 186.429125 
L 117.133091 187.259949 
L 117.931636 188.383165 
L 118.730182 189.848052 
L 119.794909 192.422285 
L 120.859636 195.813078 
L 121.924364 200.156808 
L 122.989091 205.55905 
L 124.053818 212.075589 
L 125.384727 221.708288 
L 128.046545 242.110447 
L 129.111273 248.552407 
L 129.909818 252.017134 
L 130.442182 253.329158 
L 130.708364 253.585265 
L 130.974545 253.551627 
L 131.240727 253.201089 
L 131.506909 252.506028 
L 132.039273 249.953705 
L 132.571636 245.554962 
L 133.104 239.162397 
L 133.636364 230.353456 
L 133.902545 229.691768 
L 135.233455 236.434502 
L 136.032 239.373063 
L 136.564364 240.62429 
L 137.096727 241.163303 
L 137.362909 241.118587 
L 137.629091 240.856086 
L 137.895273 240.371682 
L 138.427636 238.594311 
L 138.96 235.707953 
L 139.492364 231.619026 
L 140.290909 223.002484 
L 141.089455 211.206913 
L 141.888 196.05754 
L 142.952727 170.484575 
L 143.485091 155.441058 
L 144.017455 132.350708 
L 145.082182 72.408223 
L 145.348364 55.431883 
L 145.614545 47.593145 
L 146.679273 117.360685 
L 147.477818 154.918618 
L 148.276364 181.822911 
L 149.074909 200.765625 
L 149.873455 213.810026 
L 150.672 222.677439 
L 151.470545 228.731098 
L 152.269091 233.023019 
L 153.333818 237.331856 
L 156.261818 248.198999 
L 159.722182 262.160251 
L 160.254545 263.805318 
L 161.053091 274.651573 
L 161.851636 288.53599 
L 162.117818 293.917441 
L 162.384 291.002159 
L 163.714909 232.200973 
L 164.779636 193.135579 
L 165.844364 161.063017 
L 166.909091 135.731802 
L 167.707636 120.921923 
L 168.506182 109.459289 
L 169.304727 101.072305 
L 169.837091 97.111152 
L 170.369455 94.319686 
L 170.901818 92.554877 
L 171.168 92.072378 
L 171.434182 91.832647 
L 171.700364 91.791565 
L 171.966545 91.931875 
L 172.232727 92.294535 
L 172.765091 93.543874 
L 173.297455 95.406929 
L 174.096 99.089867 
L 175.160727 105.1231 
L 176.757818 114.864235 
L 177.024 117.31381 
L 177.822545 129.389632 
L 178.621091 145.147268 
L 179.419636 165.280473 
L 180.218182 190.452593 
L 181.282909 232.927223 
L 181.815273 253.245959 
L 182.347636 257.717924 
L 182.613818 259.016997 
L 182.88 259.64459 
L 183.146182 259.600401 
L 183.412364 258.957108 
L 183.678545 257.691116 
L 184.210909 253.328026 
L 184.743273 246.705609 
L 185.541818 233.112565 
L 186.606545 209.782651 
L 189.002182 153.867647 
L 189.800727 141.517982 
L 190.333091 137.204299 
L 190.599273 136.524362 
L 190.865455 137.040833 
L 191.131636 138.79934 
L 191.397818 141.916299 
L 191.930182 152.78683 
L 192.196364 160.82383 
L 192.462545 165.043235 
L 192.994909 148.214139 
L 193.527273 138.339506 
L 194.325818 137.371593 
L 195.922909 134.809816 
L 196.455273 134.548351 
L 196.721455 134.596613 
L 196.987636 134.883272 
L 197.52 136.021831 
L 198.052364 138.121738 
L 198.584727 141.350741 
L 199.117091 145.725607 
L 199.915636 154.456414 
L 200.980364 169.618682 
L 203.642182 211.057817 
L 204.174545 216.283679 
L 204.440727 218.06213 
L 204.706909 219.088769 
L 204.973091 219.395538 
L 205.239273 218.782333 
L 205.505455 217.249968 
L 205.771636 214.651955 
L 206.304 205.977794 
L 207.102545 186.568917 
L 208.699636 218.233997 
L 209.498182 227.567582 
L 210.030545 231.511073 
L 210.562909 233.453806 
L 211.095273 234.548826 
L 211.627636 235.000523 
L 211.893818 234.994659 
L 212.16 234.838531 
L 212.692364 234.077221 
L 213.224727 232.752143 
L 214.023273 229.871641 
L 215.088 224.843637 
L 217.483636 212.992843 
L 218.282182 210.284015 
L 218.814545 209.117936 
L 219.346909 208.526851 
L 220.411636 176.591474 
L 221.210182 160.600742 
L 221.742545 153.27349 
L 222.274909 148.079395 
L 222.807273 144.642437 
L 223.339636 142.673027 
L 223.872 141.756554 
L 224.138182 141.584327 
L 224.670545 141.795582 
L 225.202909 142.393443 
L 226.001455 143.59503 
L 226.8 144.735854 
L 227.332364 146.708917 
L 227.864727 149.333334 
L 228.663273 154.601043 
L 229.461818 161.612774 
L 230.526545 173.558583 
L 231.857455 191.916225 
L 234.785455 234.170726 
L 235.584 242.235553 
L 236.116364 245.825539 
L 236.382545 246.999637 
L 236.648727 247.524162 
L 236.914909 244.940163 
L 237.713455 235.062356 
L 238.245818 230.641554 
L 238.778182 227.753845 
L 239.310545 226.084041 
L 239.842909 225.40837 
L 240.109091 225.372064 
L 240.641455 225.73152 
L 241.173818 226.472281 
L 242.504727 228.530359 
L 243.037091 228.929334 
L 243.303273 228.947303 
L 243.569455 228.776085 
L 243.835636 228.300776 
L 244.101818 227.458303 
L 244.634182 224.599219 
L 245.166545 219.958393 
L 245.698909 213.344627 
L 246.497455 199.4485 
L 247.296 180.339519 
L 248.094545 155.715111 
L 249.425455 110.250797 
L 249.957818 104.249288 
L 250.490182 100.957153 
L 250.756364 100.222791 
L 251.022545 100.02976 
L 251.288727 100.348723 
L 251.554909 101.188685 
L 252.087273 104.259331 
L 252.619636 108.940747 
L 253.418182 118.705197 
L 254.482909 135.769372 
L 255.813818 161.651275 
L 258.475636 215.604287 
L 259.274182 227.762737 
L 259.806545 233.404956 
L 260.072727 235.249313 
L 260.605091 236.126179 
L 260.871273 236.432088 
L 261.137455 236.559055 
L 261.403636 236.517833 
L 261.669818 236.314865 
L 261.936 235.900712 
L 262.468364 234.212589 
L 263.000727 231.366453 
L 263.533091 228.372256 
L 264.065455 228.242875 
L 265.130182 228.019568 
L 265.928727 227.59834 
L 266.461091 227.11305 
L 266.993455 226.411062 
L 267.792 224.857103 
L 268.590545 222.590833 
L 269.389091 219.52147 
L 270.187636 215.610212 
L 271.252364 209.147193 
L 272.583273 199.417619 
L 275.511273 177.115406 
L 276.309818 172.506567 
L 276.576 171.245728 
L 276.842182 168.492816 
L 279.237818 126.627836 
L 284.827636 24.997725 
L 285.093818 27.119436 
L 287.489455 80.981182 
L 292.280727 182.473599 
L 293.345455 202.770437 
L 294.676364 209.537425 
L 295.741091 213.862502 
L 296.805818 217.404534 
L 297.870545 220.320851 
L 299.201455 223.279057 
L 300.532364 225.670775 
L 302.129455 227.949931 
L 303.460364 229.552881 
L 306.122182 232.370242 
L 309.582545 236.068612 
L 309.848727 236.363417 
L 310.114909 237.511501 
L 310.913455 242.437503 
L 311.445818 244.754997 
L 311.978182 246.322628 
L 312.510545 247.173273 
L 312.776727 247.340703 
L 313.042909 247.342485 
L 313.309091 247.188947 
L 313.841455 246.444811 
L 314.373818 245.169922 
L 315.172364 242.408201 
L 316.237091 237.505699 
L 317.834182 228.667491 
L 318.100364 224.050849 
L 319.431273 191.343065 
L 320.229818 177.283911 
L 321.028364 166.724056 
L 321.826909 159.044027 
L 322.625455 153.6299 
L 323.424 149.939869 
L 324.222545 147.546158 
L 325.021091 146.079366 
L 325.819636 145.303765 
L 326.352 145.005694 
L 326.618182 144.925181 
L 327.150545 143.327665 
L 327.416727 143.146046 
L 327.682909 143.343501 
L 327.949091 143.897841 
L 328.481455 146.056473 
L 329.013818 149.363443 
L 329.812364 156.074699 
L 331.143273 170.066244 
L 332.740364 186.936826 
L 333.538909 193.393252 
L 334.071273 196.296727 
L 334.337455 197.255071 
L 334.603636 197.795708 
L 334.869818 197.892557 
L 335.136 197.540905 
L 335.402182 196.677602 
L 335.934545 193.203364 
L 336.200727 190.705904 
L 336.733091 192.800201 
L 337.265455 195.740158 
L 338.064 201.392173 
L 339.661091 214.976114 
L 340.992 225.55996 
L 341.790545 230.154341 
L 342.322909 232.022346 
L 342.589091 232.530943 
L 342.855273 232.672842 
L 343.653818 231.964042 
L 344.186182 231.389882 
L 344.718545 230.443853 
L 345.250909 228.997795 
L 345.783273 226.93495 
L 346.315636 224.033643 
L 346.848 220.158288 
L 347.380364 215.071682 
L 348.178909 204.697502 
L 348.977455 190.406131 
L 349.776 171.481122 
L 350.574545 147.377512 
L 351.106909 130.249661 
L 351.373091 133.26223 
L 352.704 174.081365 
L 353.768727 200.224882 
L 354.833455 220.595229 
L 355.632 232.392363 
L 356.430545 241.490069 
L 357.229091 248.231816 
L 358.027636 253.029661 
L 358.826182 256.226247 
L 359.358545 257.672559 
L 359.890909 258.696827 
L 360.955636 260.038267 
L 361.488 260.5253 
L 362.020364 260.815383 
L 362.552727 260.797221 
L 363.085091 260.462322 
L 363.617455 259.696596 
L 364.149818 258.466695 
L 364.682182 256.687406 
L 365.214545 254.276051 
L 366.013091 249.371275 
L 366.811636 242.712258 
L 367.610182 234.156567 
L 368.408727 223.529181 
L 368.941091 216.226543 
L 369.207273 216.849053 
L 369.473455 217.185124 
L 369.739636 217.180331 
L 370.005818 216.897579 
L 370.272 216.313622 
L 370.804364 214.307483 
L 371.336727 211.259134 
L 372.135273 205.045274 
L 373.466182 191.910783 
L 374.797091 179.023422 
L 375.329455 175.179089 
L 375.861818 172.758148 
L 376.128 172.230749 
L 376.394182 172.248577 
L 376.660364 172.840399 
L 376.926545 173.959823 
L 377.458909 177.952577 
L 377.991273 184.352006 
L 378.523636 193.350029 
L 379.854545 218.607525 
L 380.120727 220.688646 
L 380.386909 221.680066 
L 380.653091 221.851451 
L 380.919273 221.177746 
L 381.185455 219.8421 
L 381.717818 215.381471 
L 382.516364 205.494355 
L 385.444364 164.360226 
L 385.976727 160.130761 
L 386.509091 158.044425 
L 386.775273 157.903659 
L 387.041455 158.496289 
L 387.307636 159.780443 
L 387.84 164.931718 
L 388.372364 173.798744 
L 388.904727 186.898149 
L 389.437091 204.796941 
L 390.235636 242.134797 
L 390.501818 243.142765 
L 391.566545 210.153203 
L 392.631273 183.748852 
L 393.696 163.237923 
L 394.494545 151.58059 
L 395.559273 139.443567 
L 396.624 129.707997 
L 398.487273 115.110339 
L 400.882909 96.055124 
L 402.746182 79.051466 
L 404.343273 62.714367 
L 404.609455 63.119022 
L 404.875636 66.165492 
L 406.206545 92.652384 
L 407.537455 114.450644 
L 408.868364 132.487788 
L 409.933091 145.917515 
L 410.997818 164.513966 
L 412.062545 179.721389 
L 413.127273 192.320063 
L 414.458182 205.301657 
L 415.789091 215.990762 
L 417.12 225.04528 
L 418.717091 234.331726 
L 420.580364 243.628345 
L 422.709818 252.848138 
L 426.436364 267.823182 
L 426.436364 267.823182 
" clip-path="url(#p74f9bcdb8d)" style="fill: none; stroke: #ffa500; stroke-width: 3; stroke-linecap: square"/>
   </g>
   <g id="line2d_2">
    <path d="M 27.163636 149.72728 
L 28.228364 170.97788 
L 29.026909 183.563212 
L 29.825455 192.988501 
L 30.357818 197.491124 
L 30.890182 200.6043 
L 31.422545 202.394724 
L 31.688727 202.822764 
L 31.954909 202.958096 
L 32.221091 202.816637 
L 32.487273 202.415739 
L 33.019636 200.911596 
L 33.552 198.596687 
L 34.350545 194.019502 
L 36.746182 179.033025 
L 37.278545 176.836682 
L 37.810909 175.533796 
L 38.077091 175.266256 
L 38.343273 175.284023 
L 38.609455 175.60791 
L 38.875636 176.257606 
L 39.408 178.622454 
L 39.940364 182.543016 
L 40.472727 188.075175 
L 41.271273 199.54678 
L 42.069818 214.91213 
L 42.602182 224.551492 
L 42.868364 223.330146 
L 44.199273 202.54656 
L 45.264 185.308666 
L 46.328727 172.512817 
L 47.393455 163.061149 
L 48.192 157.637664 
L 48.990545 153.345769 
L 49.789091 149.976263 
L 50.587636 147.397 
L 51.386182 145.46602 
L 52.184727 144.11761 
L 52.983273 143.30967 
L 53.515636 143.052506 
L 54.048 143.037162 
L 54.580364 143.263181 
L 55.112727 143.738833 
L 55.645091 144.483378 
L 56.177455 145.520234 
L 56.976 147.684203 
L 57.774545 150.673458 
L 58.573091 154.626376 
L 58.839273 156.182424 
L 59.105455 153.844191 
L 59.904 144.337397 
L 60.436364 140.66501 
L 60.702545 139.791252 
L 60.968727 139.324641 
L 61.234909 139.193601 
L 61.501091 139.363318 
L 61.767273 139.801417 
L 62.299636 141.368841 
L 63.098182 145.07541 
L 64.162909 151.607311 
L 66.026182 164.931244 
L 68.155636 179.771231 
L 69.220364 185.986584 
L 70.018909 189.727844 
L 70.817455 192.358854 
L 71.349818 193.305559 
L 71.616 193.483843 
L 71.882182 193.437836 
L 72.148364 193.144515 
L 72.414545 192.578808 
L 72.946909 190.519009 
L 73.479273 187.012432 
L 74.011636 181.772972 
L 74.544 174.333991 
L 76.673455 136.364109 
L 77.205818 131.701337 
L 77.472 130.30628 
L 77.738182 129.658085 
L 78.004364 129.694022 
L 78.270545 130.464673 
L 78.536727 131.902128 
L 79.069091 136.703313 
L 79.601455 143.906654 
L 80.4 158.82352 
L 81.464727 185.12515 
L 82.795636 225.5716 
L 85.457455 316.472727 
L 86.256 289.388189 
L 87.054545 268.626048 
L 87.853091 253.291811 
L 88.651636 242.509264 
L 89.184 237.420638 
L 89.716364 233.771698 
L 90.248727 231.308464 
L 90.781091 229.859703 
L 91.313455 229.251729 
L 91.579636 229.202764 
L 91.845818 229.298165 
L 92.378182 229.859071 
L 92.910545 230.809006 
L 93.709091 232.66057 
L 94.507636 235.748315 
L 95.306182 239.724496 
L 96.370909 246.241118 
L 97.701818 255.884364 
L 100.363636 276.989037 
L 100.629818 276.186378 
L 102.493091 239.882415 
L 103.291636 230.52132 
L 104.090182 224.39159 
L 104.622545 221.806928 
L 105.154909 220.21697 
L 105.687273 219.455037 
L 105.953455 219.326735 
L 106.219636 219.336865 
L 106.752 219.691248 
L 107.550545 220.766798 
L 109.147636 223.15518 
L 109.68 223.578822 
L 110.212364 223.655709 
L 110.478545 223.537828 
L 110.744727 223.285799 
L 111.277091 222.298469 
L 111.809455 220.517648 
L 112.341818 217.751604 
L 112.874182 213.796131 
L 113.406545 208.437674 
L 114.205091 197.264982 
L 115.003636 181.537244 
L 115.802182 160.54616 
L 116.600727 136.012983 
L 117.399273 147.096155 
L 117.931636 152.263969 
L 118.464 155.733756 
L 118.996364 157.772075 
L 119.262545 158.306453 
L 119.528727 158.545201 
L 119.794909 158.481191 
L 120.061091 158.171673 
L 120.593455 156.905971 
L 121.125818 154.928537 
L 121.924364 150.997318 
L 124.32 138.081148 
L 125.118545 135.147775 
L 125.650909 133.938902 
L 125.917091 133.593763 
L 126.183273 133.434493 
L 126.449455 133.469043 
L 126.715636 133.704087 
L 127.514182 135.088627 
L 128.046545 136.564391 
L 128.578909 138.584749 
L 129.377455 142.845096 
L 130.176 148.908613 
L 130.974545 157.189821 
L 131.773091 168.067585 
L 132.571636 182.240276 
L 133.636364 204.270727 
L 134.701091 212.797205 
L 135.499636 217.724523 
L 136.298182 221.178958 
L 136.830545 222.550182 
L 137.096727 222.936262 
L 137.362909 223.112114 
L 137.629091 223.06983 
L 137.895273 222.801342 
L 138.161455 222.288927 
L 138.693818 220.473625 
L 139.226182 217.606501 
L 139.758545 213.525009 
L 140.557091 205.023996 
L 141.355636 193.346175 
L 142.154182 178.112365 
L 142.952727 158.975874 
L 143.751273 139.405049 
L 144.549818 136.829561 
L 145.348364 133.398256 
L 146.413091 127.445976 
L 147.477818 119.945864 
L 148.542545 110.911615 
L 149.873455 97.424356 
L 151.204364 81.557642 
L 152.801455 59.440946 
L 153.6 47.184541 
L 153.866182 49.009586 
L 155.197091 69.402712 
L 156.528 86.71378 
L 157.592727 98.292795 
L 158.657455 107.853417 
L 159.722182 115.562554 
L 160.254545 118.785324 
L 161.053091 119.028549 
L 162.117818 119.585768 
L 163.182545 120.418795 
L 164.247273 121.545189 
L 165.578182 123.19116 
L 168.24 127.140602 
L 170.635636 130.709091 
L 171.966545 132.426236 
L 173.297455 133.778789 
L 174.628364 134.666855 
L 175.693091 135.01928 
L 176.757818 135.032605 
L 177.290182 134.845473 
L 178.088727 134.271277 
L 179.952 132.619688 
L 180.484364 132.429729 
L 181.016727 132.545741 
L 181.549091 133.081383 
L 182.081455 134.157565 
L 182.613818 135.91932 
L 183.146182 138.490718 
L 183.678545 142.004677 
L 184.477091 149.337723 
L 185.275636 157.849955 
L 185.541818 157.891106 
L 185.808 157.693265 
L 186.074182 157.26986 
L 186.606545 155.802384 
L 187.138909 153.603161 
L 187.937455 149.179594 
L 189.002182 141.850533 
L 191.930182 120.805016 
L 192.728727 116.515684 
L 193.527273 113.377657 
L 194.059636 112.370506 
L 194.592 111.669361 
L 195.124364 111.283667 
L 195.656727 111.170271 
L 196.189091 111.307474 
L 196.721455 111.687374 
L 197.253818 112.308129 
L 197.786182 113.174882 
L 198.318545 114.300959 
L 199.117091 116.51923 
L 199.915636 119.512277 
L 200.714182 123.466758 
L 201.512727 128.621281 
L 202.311273 135.371547 
L 203.109818 144.236519 
L 203.908364 155.869554 
L 204.706909 171.156542 
L 205.505455 190.980212 
L 209.232 119.404745 
L 210.030545 109.281743 
L 210.562909 106.279461 
L 211.095273 104.893112 
L 211.361455 104.644691 
L 211.627636 104.706261 
L 211.893818 105.087372 
L 212.16 105.797067 
L 212.692364 108.257106 
L 213.224727 112.171014 
L 213.757091 117.548906 
L 214.555636 128.442435 
L 215.354182 142.828418 
L 216.418909 167.45538 
L 217.483636 198.006217 
L 218.814545 243.750405 
L 219.879273 282.877031 
L 220.145455 285.986787 
L 220.944 283.504863 
L 222.274909 278.186687 
L 224.936727 266.919169 
L 226.001455 263.210673 
L 226.8 260.939826 
L 228.397091 243.181441 
L 229.195636 236.258764 
L 229.728 232.842321 
L 230.260364 230.595109 
L 230.526545 229.978673 
L 230.792727 229.681384 
L 231.058909 229.786985 
L 231.325091 230.250093 
L 231.591273 231.141829 
L 232.123636 234.168478 
L 232.656 238.97745 
L 233.188364 245.699621 
L 233.986909 259.506615 
L 235.051636 282.167253 
L 236.116364 273.207327 
L 237.447273 264.025667 
L 241.706182 236.643993 
L 243.037091 225.588857 
L 243.569455 221.449368 
L 245.965091 214.331755 
L 248.360727 206.999279 
L 249.425455 203.191121 
L 250.490182 198.702929 
L 251.554909 193.283043 
L 252.619636 186.539124 
L 253.684364 178.035363 
L 254.749091 167.139525 
L 255.547636 156.93206 
L 256.346182 144.513504 
L 257.410909 126.433962 
L 257.677091 128.623616 
L 259.274182 155.189757 
L 260.072727 166.739997 
L 261.137455 176.509091 
L 262.202182 184.064066 
L 263.000727 188.24663 
L 263.799273 191.238597 
L 264.331636 192.620083 
L 264.864 193.5496 
L 265.396364 194.098462 
L 265.928727 194.315993 
L 266.461091 194.286042 
L 267.259636 193.967465 
L 268.324364 193.566138 
L 268.856727 193.638856 
L 269.389091 194.069581 
L 269.921455 195.003233 
L 270.187636 195.698049 
L 270.453818 193.503242 
L 271.252364 171.87677 
L 272.050909 156.615854 
L 272.583273 149.812919 
L 273.115636 145.523095 
L 273.381818 144.249089 
L 273.648 143.576455 
L 273.914182 143.440061 
L 274.180364 143.805969 
L 274.446545 144.70262 
L 274.978909 147.850689 
L 275.511273 152.696924 
L 276.309818 162.581916 
L 276.842182 169.720113 
L 278.173091 183.513914 
L 280.302545 208.773666 
L 281.899636 226.874126 
L 282.165818 226.902225 
L 282.698182 223.95076 
L 283.230545 222.174855 
L 283.762909 221.345453 
L 284.029091 221.234953 
L 284.295273 221.277958 
L 284.827636 221.709192 
L 286.690909 223.926339 
L 286.957091 223.946845 
L 287.223273 223.821195 
L 287.489455 223.52761 
L 288.021818 222.300944 
L 288.554182 220.126626 
L 289.086545 216.84771 
L 289.618909 212.339302 
L 290.417455 203.17633 
L 291.216 190.890508 
L 292.280727 169.864373 
L 293.611636 141.506781 
L 294.410182 131.920193 
L 295.208727 119.008113 
L 296.007273 102.345802 
L 296.805818 81.144841 
L 297.604364 54.598574 
L 298.402909 21.927273 
L 298.935273 24.587769 
L 299.467636 28.63435 
L 300 34.163752 
L 300.798545 45.359864 
L 301.597091 60.108401 
L 302.661818 85.015948 
L 303.992727 123.412878 
L 306.122182 194.179396 
L 307.719273 244.902413 
L 308.784 271.900355 
L 309.582545 286.096174 
L 310.114909 291.965755 
L 310.381091 293.603049 
L 310.647273 294.078767 
L 310.913455 293.385553 
L 311.179636 293.108195 
L 311.445818 294.262351 
L 311.712 294.560415 
L 311.978182 293.953405 
L 312.244364 292.693599 
L 312.776727 288.325556 
L 313.575273 278.500304 
L 314.64 261.56863 
L 316.769455 222.736349 
L 322.625455 115.718945 
L 326.352 48.623014 
L 326.884364 39.031827 
L 327.416727 30.655253 
L 327.682909 28.91195 
L 328.481455 36.779093 
L 329.546182 49.569736 
L 331.143273 71.994124 
L 333.272727 105.467747 
L 335.934545 150.95485 
L 338.596364 200.308389 
L 340.725818 242.673714 
L 340.992 243.465897 
L 343.387636 227.784165 
L 344.186182 226.908361 
L 344.984727 225.596512 
L 345.783273 223.865051 
L 346.848 220.919906 
L 347.912727 217.244376 
L 348.977455 212.794922 
L 350.042182 207.477135 
L 351.106909 201.133411 
L 352.171636 193.523757 
L 353.236364 184.342904 
L 354.301091 173.209503 
L 355.365818 159.665098 
L 356.430545 143.185934 
L 356.962909 132.160328 
L 357.495273 125.552918 
L 357.761455 123.792199 
L 358.027636 123.069003 
L 358.293818 123.295971 
L 358.56 124.391219 
L 359.092364 129.123988 
L 359.624727 136.725873 
L 360.157091 144.745844 
L 365.214545 207.59384 
L 366.545455 220.326179 
L 367.610182 228.800339 
L 368.674909 235.473867 
L 369.473455 239.006111 
L 370.005818 240.554618 
L 370.538182 241.248082 
L 370.804364 241.26132 
L 371.070545 241.023731 
L 371.336727 240.510947 
L 371.869091 238.547444 
L 372.401455 235.088893 
L 372.667636 229.46797 
L 375.329455 141.598056 
L 376.394182 111.767747 
L 376.926545 101.77977 
L 377.991273 87.297948 
L 379.056 76.292409 
L 380.120727 67.927914 
L 381.185455 61.524262 
L 382.250182 56.646286 
L 383.314909 52.879025 
L 384.379636 49.960697 
L 385.444364 47.689266 
L 386.509091 45.890503 
L 387.573818 44.453381 
L 388.904727 43.047211 
L 390.501818 41.750574 
L 392.098909 40.72836 
L 393.163636 40.146106 
L 393.962182 37.16038 
L 394.760727 35.040688 
L 396.357818 31.303817 
L 396.624 41.168759 
L 397.688727 94.117877 
L 398.753455 136.970169 
L 399.818182 170.978328 
L 400.882909 197.125023 
L 401.681455 212.030812 
L 402.48 223.229188 
L 403.278545 230.93427 
L 403.810909 234.228881 
L 404.343273 236.071254 
L 404.609455 236.476497 
L 404.875636 236.513795 
L 405.141818 236.231104 
L 405.408 235.610674 
L 405.940364 233.351936 
L 406.472727 229.774792 
L 407.005091 224.915548 
L 407.803636 215.250387 
L 408.602182 202.815724 
L 409.666909 183.856876 
L 409.933091 181.707303 
L 410.731636 179.969214 
L 412.328727 175.552756 
L 414.458182 169.762582 
L 415.256727 168.150398 
L 416.055273 167.033889 
L 416.587636 166.596843 
L 417.12 166.417506 
L 417.652364 166.499967 
L 418.184727 166.810661 
L 418.983273 167.634788 
L 421.112727 170.35379 
L 421.645091 170.599095 
L 421.911273 170.567608 
L 422.177455 170.408276 
L 422.443636 170.091982 
L 422.976 168.883987 
L 423.508364 166.775636 
L 424.040727 163.508553 
L 424.573091 158.846238 
L 425.105455 152.541586 
L 425.904 139.305224 
L 426.436364 127.535812 
L 426.436364 127.535812 
" clip-path="url(#p74f9bcdb8d)" style="fill: none; stroke: #ff0000; stroke-width: 3; stroke-linecap: square"/>
   </g>
   <g id="line2d_3">
    <path d="M 27.163636 230.889291 
L 28.494545 202.365414 
L 29.825455 178.734621 
L 30.890182 163.231392 
L 31.954909 150.63824 
L 33.019636 140.907919 
L 33.818182 135.468282 
L 34.616727 131.564486 
L 35.149091 129.857454 
L 35.681455 128.765172 
L 36.213818 128.285236 
L 36.48 128.287782 
L 36.746182 128.426389 
L 37.278545 129.093194 
L 37.810909 130.237108 
L 38.609455 132.694689 
L 39.940364 137.925722 
L 41.005091 141.856239 
L 41.537455 143.224224 
L 41.803636 143.659198 
L 42.069818 143.868293 
L 42.336 143.812535 
L 42.602182 143.466553 
L 42.868364 142.790777 
L 43.134545 141.743598 
L 44.199273 136.026536 
L 44.731636 134.397647 
L 45.530182 131.151597 
L 46.328727 126.796569 
L 47.127273 120.926821 
L 48.192 112.262992 
L 48.724364 110.862089 
L 50.055273 107.43965 
L 52.184727 101.13491 
L 54.048 95.832458 
L 55.112727 93.350158 
L 55.911273 91.896271 
L 56.709818 90.851602 
L 57.242182 90.394085 
L 57.774545 90.149561 
L 58.306909 90.110007 
L 58.839273 90.258042 
L 59.371636 90.585747 
L 60.170182 91.412718 
L 60.702545 92.153014 
L 61.501091 93.685413 
L 62.299636 95.774277 
L 63.098182 98.538811 
L 63.896727 102.110144 
L 64.695273 106.604674 
L 65.493818 112.179863 
L 66.558545 121.63692 
L 67.623273 133.842114 
L 68.688 149.385318 
L 69.752727 169.055986 
L 70.817455 193.576268 
L 71.616 215.823319 
L 71.882182 215.540557 
L 72.680727 205.637237 
L 73.479273 198.313689 
L 74.011636 194.852416 
L 74.544 192.500946 
L 75.076364 191.246594 
L 75.342545 191.016045 
L 75.608727 191.032398 
L 75.874909 191.286367 
L 76.407273 192.465605 
L 76.939636 194.494075 
L 77.472 198.191444 
L 79.867636 218.637169 
L 80.4 221.250289 
L 80.666182 222.068824 
L 80.932364 222.484047 
L 81.198545 222.530852 
L 81.464727 222.130534 
L 81.730909 221.312034 
L 82.263273 218.286886 
L 82.795636 213.390466 
L 83.328 206.582344 
L 84.392727 189.954285 
L 85.191273 193.215486 
L 85.457455 193.699802 
L 85.723636 193.861698 
L 85.989818 193.731088 
L 86.256 193.33687 
L 86.788364 191.867533 
L 87.320727 189.66278 
L 88.119273 185.389354 
L 89.450182 176.890457 
L 91.313455 165.022765 
L 92.378182 159.397769 
L 93.176727 156.022065 
L 93.709091 154.233274 
L 97.701818 89.975649 
L 99.032727 73.412759 
L 100.097455 63.072304 
L 100.896 57.141671 
L 101.694545 52.785608 
L 102.226909 50.753978 
L 102.759273 49.429198 
L 103.025455 50.314667 
L 107.816727 92.286985 
L 109.68 106.212484 
L 110.212364 109.805868 
L 110.478545 113.855434 
L 112.874182 168.238882 
L 114.471273 199.618971 
L 115.802182 221.924266 
L 117.133091 240.319838 
L 118.197818 251.952842 
L 118.996364 258.569549 
L 119.262545 257.957581 
L 120.061091 250.65388 
L 120.859636 241.402314 
L 121.924364 226.286913 
L 123.255273 203.476173 
L 124.852364 171.50492 
L 127.780364 111.004768 
L 128.845091 95.350872 
L 129.643636 86.357195 
L 130.442182 79.811688 
L 130.708364 78.159432 
L 130.974545 77.553529 
L 131.773091 83.503404 
L 132.305455 86.191253 
L 132.837818 88.021951 
L 133.370182 89.145816 
L 133.902545 89.676894 
L 134.434909 89.71938 
L 134.967273 89.36757 
L 135.499636 88.705803 
L 136.298182 87.268418 
L 137.629091 84.198914 
L 140.823273 76.525293 
L 142.154182 74.004651 
L 143.218909 72.42025 
L 143.485091 72.08733 
L 143.751273 71.426775 
L 145.082182 65.867562 
L 146.945455 57.986058 
L 147.744 55.464713 
L 148.276364 54.356719 
L 148.808727 53.853661 
L 149.074909 53.866565 
L 149.341091 54.089846 
L 149.607273 54.514813 
L 149.873455 55.253353 
L 150.405818 66.844955 
L 151.204364 83.701106 
L 152.002909 95.760653 
L 152.535273 101.383191 
L 153.067636 105.233687 
L 153.6 107.549289 
L 153.866182 108.172168 
L 154.132364 108.492658 
L 154.398545 108.533705 
L 154.664727 108.318728 
L 154.930909 107.870516 
L 155.463273 106.34607 
L 156.261818 102.951599 
L 157.592727 95.798276 
L 158.923636 88.846587 
L 159.722182 85.525659 
L 160.254545 83.868487 
L 160.786909 83.090112 
L 161.319273 81.989088 
L 162.117818 79.697098 
L 162.916364 76.633545 
L 163.981091 71.304443 
L 165.045818 64.552895 
L 166.110545 56.46119 
L 167.707636 42.271434 
L 169.837091 21.927273 
L 170.103273 23.40653 
L 171.168 38.92512 
L 172.232727 51.562883 
L 173.297455 61.419205 
L 174.362182 68.923636 
L 175.426909 74.782833 
L 176.757818 81.355218 
L 177.024 82.136438 
L 177.822545 82.874223 
L 178.621091 84.015152 
L 179.419636 85.583665 
L 180.218182 87.661626 
L 181.016727 90.342874 
L 181.815273 93.805463 
L 182.613818 98.234104 
L 183.412364 103.932538 
L 184.210909 111.190338 
L 185.009455 120.384122 
L 185.808 131.894737 
L 188.736 178.774026 
L 190.066909 196.426968 
L 191.397818 211.008905 
L 192.462545 220.21417 
L 193.261091 225.648171 
L 194.059636 229.831622 
L 194.858182 232.833025 
L 195.656727 234.793157 
L 196.189091 235.569469 
L 196.721455 235.969954 
L 197.253818 236.032955 
L 197.786182 235.788949 
L 198.318545 235.244336 
L 199.117091 233.980995 
L 199.915636 232.240606 
L 200.980364 229.308989 
L 202.311273 224.94355 
L 203.908364 219.051514 
L 204.706909 215.77898 
L 206.037818 196.591971 
L 207.102545 184.284151 
L 208.167273 174.129522 
L 209.498182 163.912436 
L 210.030545 160.455429 
L 210.296727 155.201783 
L 210.829091 140.852827 
L 211.361455 131.0589 
L 211.893818 124.868469 
L 212.426182 121.598402 
L 212.692364 120.799854 
L 212.958545 120.477012 
L 213.224727 120.585211 
L 213.490909 121.083441 
L 214.023273 122.976815 
L 214.555636 125.807045 
L 215.354182 131.275088 
L 216.951273 144.45836 
L 224.138182 207.635317 
L 225.735273 224.215965 
L 226.8 236.637874 
L 227.864727 260.002299 
L 228.130909 263.196659 
L 228.397091 262.944002 
L 228.663273 262.086743 
L 228.929455 260.63623 
L 229.461818 255.990145 
L 229.994182 249.40149 
L 230.792727 236.61621 
L 232.123636 210.646824 
L 233.986909 174.036421 
L 235.051636 157.614718 
L 235.850182 148.835842 
L 236.382545 144.903903 
L 236.914909 142.567356 
L 237.181091 142.000657 
L 237.447273 141.829553 
L 237.713455 142.045197 
L 237.979636 142.634667 
L 238.512 144.862365 
L 239.044364 148.322883 
L 239.842909 155.453804 
L 241.173818 170.140305 
L 242.504727 184.405316 
L 243.569455 193.987383 
L 244.368 210.780857 
L 244.900364 225.284177 
L 246.497455 185.304127 
L 247.296 169.87467 
L 248.094545 158.667884 
L 248.626909 153.750722 
L 249.159273 150.975426 
L 249.425455 150.330408 
L 249.691636 150.162131 
L 249.957818 150.513976 
L 250.224 151.30917 
L 250.756364 154.104709 
L 251.288727 158.363002 
L 252.087273 166.711205 
L 254.216727 191.194355 
L 254.749091 195.493378 
L 255.281455 198.233281 
L 255.547636 198.886014 
L 255.813818 199.044469 
L 256.08 198.55895 
L 256.346182 197.498077 
L 256.612364 195.828238 
L 257.144727 190.313179 
L 257.677091 181.96222 
L 258.209455 170.592669 
L 258.475636 169.600081 
L 259.540364 194.978742 
L 260.338909 208.852441 
L 261.936 228.895012 
L 263.000727 239.922671 
L 264.065455 248.802031 
L 265.130182 255.562729 
L 265.928727 259.36893 
L 266.727273 262.317335 
L 267.792 265.410519 
L 269.122909 269.240763 
L 269.921455 272.411484 
L 270.453818 275.256492 
L 270.986182 278.920162 
L 271.518545 283.61958 
L 271.784727 281.517637 
L 272.849455 221.199806 
L 273.914182 174.745071 
L 274.712727 149.110615 
L 275.511273 131.367539 
L 276.043636 123.872238 
L 276.576 119.802833 
L 276.842182 119.183343 
L 277.108364 118.993243 
L 277.374545 118.962783 
L 277.640727 119.162626 
L 277.906909 119.566649 
L 278.439273 121.089954 
L 278.971636 123.726064 
L 279.504 127.647698 
L 280.036364 133.01028 
L 280.834909 144.170384 
L 281.633455 159.398225 
L 282.432 179.110852 
L 283.230545 203.602429 
L 283.762909 222.703422 
L 284.029091 221.726889 
L 286.158545 152.37194 
L 287.223273 123.234436 
L 288.021818 105.707408 
L 288.820364 93.144364 
L 289.352727 88.066281 
L 289.618909 86.649823 
L 289.885091 86.047186 
L 290.151273 86.313708 
L 290.417455 87.479058 
L 290.683636 89.588498 
L 291.216 96.822369 
L 291.748364 108.376401 
L 292.280727 124.606301 
L 293.079273 154.65006 
L 293.345455 154.116033 
L 294.942545 153.435797 
L 296.539636 152.483088 
L 297.604364 151.591282 
L 298.402909 150.665311 
L 299.201455 149.399627 
L 300 147.652672 
L 300.798545 145.244372 
L 301.597091 142.007907 
L 302.395636 137.727985 
L 303.194182 132.230852 
L 303.992727 125.310799 
L 304.791273 116.817599 
L 305.856 102.856584 
L 306.920727 85.75519 
L 308.251636 60.080329 
L 308.784 48.589008 
L 309.050182 47.292898 
L 309.582545 62.686435 
L 310.114909 81.019648 
L 311.179636 123.83149 
L 311.978182 148.87178 
L 312.776727 168.308861 
L 313.575273 182.591507 
L 314.373818 192.130473 
L 314.906182 196.059208 
L 315.438545 198.26784 
L 315.704727 198.720231 
L 315.970909 198.782968 
L 316.237091 198.478911 
L 316.503273 197.821498 
L 317.035636 195.503517 
L 317.568 191.917709 
L 318.366545 184.477156 
L 319.431273 171.401987 
L 320.762182 151.21168 
L 322.625455 119.008763 
L 323.956364 95.288652 
L 324.222545 93.125192 
L 324.754909 91.981225 
L 325.287273 91.162049 
L 325.819636 90.611098 
L 326.352 90.27407 
L 326.884364 90.171208 
L 327.150545 90.889594 
L 327.682909 94.189893 
L 328.215273 99.538781 
L 329.013818 110.399165 
L 330.344727 132.83017 
L 333.006545 179.041048 
L 334.337455 198.037467 
L 335.402182 210.352581 
L 336.466909 220.054469 
L 337.531636 227.36026 
L 338.330182 231.454664 
L 338.596364 232.163595 
L 338.862545 232.335814 
L 339.394909 231.141996 
L 340.725818 227.898298 
L 341.524364 226.371701 
L 342.322909 225.294035 
L 342.855273 224.864143 
L 343.121455 224.738502 
L 343.387636 224.39712 
L 343.92 222.868117 
L 344.718545 219.667143 
L 345.517091 215.323351 
L 346.315636 209.857178 
L 347.646545 198.751314 
L 349.509818 182.637373 
L 350.308364 177.732719 
L 350.840727 175.941373 
L 351.106909 175.610139 
L 351.373091 175.7674 
L 351.639273 176.416297 
L 351.905455 177.630147 
L 352.437818 181.964739 
L 352.970182 189.20982 
L 353.502545 199.800442 
L 354.034909 214.155323 
L 354.833455 243.535011 
L 355.632 283.51733 
L 356.164364 316.417672 
L 356.430545 311.705826 
L 357.229091 289.826045 
L 358.027636 273.953763 
L 358.826182 263.036511 
L 359.358545 258.054461 
L 360.157091 252.935309 
L 360.689455 250.998079 
L 360.955636 250.525478 
L 361.221818 250.309123 
L 361.488 250.294345 
L 362.020364 250.686815 
L 362.818909 251.835057 
L 364.149818 253.777716 
L 364.948364 254.458106 
L 365.480727 254.634989 
L 366.013091 254.596532 
L 366.545455 254.365005 
L 367.344 253.687464 
L 368.408727 252.327432 
L 370.005818 249.846331 
L 371.602909 247.349077 
L 372.933818 245.524669 
L 374.264727 244.003364 
L 376.128 243.195907 
L 377.458909 242.886842 
L 377.991273 242.302978 
L 378.523636 241.206764 
L 379.056 239.578437 
L 379.588364 237.277353 
L 380.386909 232.545225 
L 381.185455 226.23564 
L 382.250182 215.671791 
L 384.379636 190.945916 
L 385.444364 179.679403 
L 386.242909 173.033343 
L 386.775273 169.815286 
L 387.307636 167.72831 
L 387.573818 167.177341 
L 387.84 166.949285 
L 388.106182 167.052955 
L 388.372364 167.494794 
L 388.904727 169.405803 
L 389.437091 172.686194 
L 389.969455 177.285324 
L 390.768 186.322119 
L 391.832727 201.425091 
L 393.163636 221.992006 
L 393.696 239.190495 
L 394.228364 249.300989 
L 394.760727 256.025561 
L 395.293091 260.124333 
L 395.825455 262.169235 
L 396.091636 262.622244 
L 396.357818 262.740771 
L 396.624 262.619795 
L 397.156364 261.818048 
L 399.019636 257.831347 
L 399.285818 257.621045 
L 399.552 257.589022 
L 399.818182 257.779933 
L 400.084364 258.218555 
L 400.350545 258.920881 
L 400.882909 261.283082 
L 401.415273 265.103841 
L 401.947636 270.590929 
L 402.48 277.976341 
L 403.278545 293.19545 
L 404.343273 316.472727 
L 405.674182 289.238816 
L 407.271273 261.103099 
L 409.933091 218.979016 
L 410.731636 215.963795 
L 411.796364 211.017999 
L 413.127273 203.469151 
L 414.458182 194.544804 
L 416.055273 182.197676 
L 417.918545 165.917556 
L 422.976 120.154644 
L 424.040727 112.930569 
L 424.839273 108.770785 
L 425.371636 106.737838 
L 425.904 105.347855 
L 426.436364 104.664284 
L 426.436364 104.664284 
" clip-path="url(#p74f9bcdb8d)" style="fill: none; stroke: #0000ff; stroke-width: 3; stroke-linecap: square"/>
   </g>
   <g id="patch_3">
    <path d="M 7.2 331.2 
L 7.2 7.2 
" style="fill: none; stroke: #000000; stroke-width: 0.8; stroke-linejoin: miter; stroke-linecap: square"/>
   </g>
   <g id="patch_4">
    <path d="M 446.4 331.2 
L 446.4 7.2 
" style="fill: none; stroke: #000000; stroke-width: 0.8; stroke-linejoin: miter; stroke-linecap: square"/>
   </g>
   <g id="patch_5">
    <path d="M 7.2 331.2 
L 446.4 331.2 
" style="fill: none; stroke: #000000; stroke-width: 0.8; stroke-linejoin: miter; stroke-linecap: square"/>
   </g>
   <g id="patch_6">
    <path d="M 7.2 7.2 
L 446.4 7.2 
" style="fill: none; stroke: #000000; stroke-width: 0.8; stroke-linejoin: miter; stroke-linecap: square"/>
   </g>
  </g>
 </g>
 <defs>
  <clipPath id="p74f9bcdb8d">
   <rect x="7.2" y="7.2" width="439.2" height="324"/>
  </clipPath>
 </defs>
</svg>
