<?xml version="1.0" encoding="utf-8" standalone="no"?>
<!DOCTYPE svg PUBLIC "-//W3C//DTD SVG 1.1//EN"
  "http://www.w3.org/Graphics/SVG/1.1/DTD/svg11.dtd">
<svg xmlns:xlink="http://www.w3.org/1999/xlink" width="453.6pt" height="338.4pt" viewBox="0 0 453.6 338.4" xmlns="http://www.w3.org/2000/svg" version="1.1">
 <metadata>
  <rdf:RDF xmlns:dc="http://purl.org/dc/elements/1.1/" xmlns:cc="http://creativecommons.org/ns#" xmlns:rdf="http://www.w3.org/1999/02/22-rdf-syntax-ns#">
   <cc:Work>
    <dc:type rdf:resource="http://purl.org/dc/dcmitype/StillImage"/>
    <dc:date>2025-05-15T17:10:43.870742</dc:date>
    <dc:format>image/svg+xml</dc:format>
    <dc:creator>
     <cc:Agent>
      <dc:title>Matplotlib v3.10.1, https://matplotlib.org/</dc:title>
     </cc:Agent>
    </dc:creator>
   </cc:Work>
  </rdf:RDF>
 </metadata>
 <defs>
  <style type="text/css">*{stroke-linejoin: round; stroke-linecap: butt}</style>
 </defs>
 <g id="figure_1">
  <g id="patch_1">
   <path d="M 0 338.4 
L 453.6 338.4 
L 453.6 0 
L 0 0 
z
" style="fill: #ffffff"/>
  </g>
  <g id="axes_1">
   <g id="patch_2">
    <path d="M 7.2 331.2 
L 446.4 331.2 
L 446.4 7.2 
L 7.2 7.2 
z
" style="fill: #ffffff"/>
   </g>
   <g id="matplotlib.axis_1"/>
   <g id="matplotlib.axis_2"/>
   <g id="line2d_1">
    <path d="M 27.163636 44.305413 
L 29.387997 77.626599 
L 31.890403 119.941622 
L 33.280628 141.471003 
L 34.392808 155.255461 
L 35.504989 165.795833 
L 36.617169 173.761844 
L 37.729349 179.825395 
L 38.563484 183.373429 
L 39.39762 186.152123 
L 40.231755 188.186173 
L 41.06589 189.540624 
L 41.900025 190.334485 
L 42.734161 190.727201 
L 43.846341 190.890227 
L 45.514611 191.037196 
L 46.348747 191.326789 
L 47.182882 191.87598 
L 48.017017 192.753865 
L 48.851152 194.047422 
L 49.685287 195.833152 
L 50.519423 198.148801 
L 51.631603 201.968962 
L 54.412054 212.101168 
L 54.968144 213.42811 
L 55.524234 214.293865 
L 56.080324 214.641171 
L 56.358369 214.612236 
L 56.636414 214.447767 
L 57.192504 213.727017 
L 57.748595 212.542196 
L 58.58273 210.140907 
L 60.529045 204.181036 
L 61.085135 202.992009 
L 61.641226 202.192379 
L 62.197316 201.80246 
L 62.753406 201.804077 
L 63.309496 202.14186 
L 63.865586 202.741413 
L 64.699721 203.978908 
L 66.367992 207.025055 
L 68.314307 210.982002 
L 69.982578 214.933405 
L 73.875209 224.543739 
L 75.265434 227.262035 
L 76.65566 229.483284 
L 77.489795 230.481514 
L 78.32393 231.140779 
L 78.88002 231.355107 
L 79.43611 231.366133 
L 79.992201 231.165856 
L 80.548291 230.75849 
L 81.382426 229.775102 
L 82.216561 228.315824 
L 83.050696 226.216553 
L 83.884832 223.175663 
L 84.718967 218.797517 
L 85.553102 212.752648 
L 86.387237 205.004492 
L 88.889643 179.492929 
L 89.445733 176.144885 
L 89.723778 175.140677 
L 90.001823 174.642996 
L 90.279868 174.685277 
L 90.557913 175.290635 
L 90.835958 176.470903 
L 91.392049 180.547118 
L 91.948139 186.778561 
L 92.782274 199.472127 
L 94.172499 225.819797 
L 95.84077 257.525734 
L 96.95295 275.020531 
L 98.06513 288.660497 
L 98.899266 296.445409 
L 99.733401 302.354588 
L 100.567536 306.683475 
L 101.401671 309.767598 
L 102.235807 311.914581 
L 103.069942 313.396407 
L 103.904077 314.446702 
L 105.016257 315.442291 
L 106.128438 316.097572 
L 106.962573 316.377246 
L 107.796708 316.472727 
L 108.630843 316.379909 
L 109.743024 315.987584 
L 111.133249 315.191026 
L 112.523474 314.140148 
L 113.9137 312.793326 
L 115.303925 311.108073 
L 119.474601 305.574414 
L 120.864827 304.286943 
L 123.923322 301.730705 
L 125.035503 300.424356 
L 126.147683 298.785161 
L 130.040314 292.612504 
L 130.874449 291.78314 
L 131.708584 291.210167 
L 132.820765 290.74603 
L 134.489035 290.125623 
L 135.045125 289.719395 
L 135.601215 289.114185 
L 136.157306 288.26116 
L 136.991441 286.423929 
L 137.825576 283.835024 
L 138.659711 280.504584 
L 139.771892 275.137297 
L 141.162117 267.385543 
L 142.830387 256.8184 
L 144.220613 246.566093 
L 145.610838 234.445682 
L 147.001064 220.363889 
L 148.391289 203.870432 
L 149.781514 184.294325 
L 151.17174 161.241175 
L 154.508281 103.203521 
L 155.620461 88.551466 
L 156.454596 80.434472 
L 157.010686 76.550323 
L 157.566776 73.954692 
L 157.844821 73.155427 
L 158.122867 72.695648 
L 158.400912 72.578691 
L 158.678957 72.804975 
L 158.957002 73.372378 
L 159.513092 75.509307 
L 160.069182 78.917828 
L 160.903317 86.125605 
L 162.015498 98.746391 
L 163.683768 121.112957 
L 166.464219 158.42748 
L 168.132489 178.275611 
L 169.522715 192.393159 
L 170.634895 201.696261 
L 171.747075 209.095043 
L 172.859256 214.857462 
L 173.971436 219.375443 
L 175.361661 224.018053 
L 179.254292 235.970337 
L 180.366473 238.752246 
L 181.200608 240.292959 
L 182.034743 241.328917 
L 182.868878 241.946084 
L 183.981058 242.37645 
L 185.649329 242.754638 
L 186.483464 242.699626 
L 187.039554 242.419887 
L 187.595644 241.864449 
L 188.151735 240.994958 
L 188.98587 239.12191 
L 190.376095 235.045556 
L 191.488276 231.937064 
L 192.322411 230.253788 
L 192.878501 229.535219 
L 193.434591 229.134796 
L 193.990681 229.009394 
L 194.546771 229.095512 
L 195.380907 229.465159 
L 197.327222 230.409038 
L 199.273538 231.190829 
L 200.107673 231.865691 
L 200.941808 232.921122 
L 201.775943 234.367401 
L 204.834439 240.348969 
L 205.668574 241.353795 
L 206.50271 241.936986 
L 207.0588 242.105495 
L 207.892935 242.080375 
L 208.72707 241.786046 
L 209.83925 241.093128 
L 211.507521 239.931463 
L 212.341656 239.611658 
L 213.175791 239.555604 
L 214.844062 239.672925 
L 215.400152 239.454792 
L 215.956242 238.922441 
L 216.512332 237.984575 
L 217.068422 236.593994 
L 217.902558 233.67947 
L 219.014738 228.547799 
L 221.239099 216.478428 
L 223.185414 205.299437 
L 224.297594 197.622671 
L 225.409775 188.376605 
L 227.634135 169.136265 
L 228.190225 166.10734 
L 228.46827 165.150348 
L 228.746316 164.625626 
L 229.024361 164.569164 
L 229.302406 165.008402 
L 229.580451 165.960753 
L 230.136541 169.420036 
L 230.692631 174.8596 
L 231.526766 186.115872 
L 232.916992 209.338271 
L 234.307217 231.69819 
L 235.419397 245.912006 
L 236.253533 254.137894 
L 237.087668 260.60404 
L 238.199848 267.244092 
L 239.312028 272.358307 
L 240.424209 276.43188 
L 241.814434 280.620054 
L 243.482704 284.862571 
L 245.150975 288.477268 
L 246.5412 290.938269 
L 248.487516 293.835966 
L 250.989921 297.249288 
L 252.102102 298.41279 
L 252.936237 298.951732 
L 253.492327 299.116766 
L 254.048417 299.118199 
L 254.604507 298.952649 
L 255.438643 298.403515 
L 256.272778 297.549855 
L 257.663003 295.731719 
L 262.94586 288.158784 
L 266.838491 281.64768 
L 267.672626 280.785366 
L 268.506761 280.252102 
L 269.340896 279.999916 
L 271.565257 279.673038 
L 272.121347 279.346655 
L 272.677437 278.814278 
L 273.233527 278.043505 
L 274.067663 276.389928 
L 274.901798 274.121697 
L 276.013978 270.249713 
L 277.404204 264.456161 
L 279.350519 255.314617 
L 281.296835 245.265766 
L 282.68706 236.927102 
L 283.79924 228.984465 
L 284.633376 221.752828 
L 285.467511 212.969252 
L 286.301646 202.256713 
L 287.413826 184.516925 
L 288.804052 157.515447 
L 291.306457 107.786228 
L 292.418638 90.645297 
L 293.252773 80.774167 
L 294.086908 73.374915 
L 294.921043 68.280625 
L 295.477133 66.11775 
L 296.033224 64.919512 
L 296.311269 64.675763 
L 296.589314 64.666657 
L 296.867359 64.89049 
L 297.145404 65.344621 
L 297.701494 66.935575 
L 298.257584 69.426727 
L 298.813674 72.80852 
L 299.64781 79.507945 
L 300.481945 88.072641 
L 301.594125 102.099075 
L 302.98435 123.03337 
L 306.320891 175.625881 
L 307.433072 189.549765 
L 308.545252 200.620593 
L 309.657432 209.263613 
L 311.047658 217.929964 
L 314.940289 239.808459 
L 315.774424 243.290464 
L 316.608559 245.705074 
L 317.164649 246.690174 
L 317.720739 247.24218 
L 318.27683 247.47048 
L 319.110965 247.497373 
L 319.9451 247.519157 
L 320.50119 247.691202 
L 321.05728 248.064507 
L 321.61337 248.664451 
L 322.447506 249.964161 
L 323.559686 252.210304 
L 326.340137 258.147992 
L 327.174272 259.479339 
L 328.008407 260.414877 
L 328.564497 260.782916 
L 329.120587 260.925696 
L 329.676678 260.830324 
L 330.232768 260.498371 
L 330.788858 259.940674 
L 331.622993 258.711155 
L 332.457128 257.047647 
L 333.569309 254.209171 
L 334.959534 249.898357 
L 336.90585 243.690888 
L 337.739985 241.66538 
L 338.296075 240.750375 
L 338.852165 240.268429 
L 339.13021 240.205659 
L 339.408255 240.267613 
L 339.964345 240.774114 
L 340.520436 241.788618 
L 341.076526 243.284504 
L 341.910661 246.302698 
L 343.300886 252.607903 
L 344.969157 260.188272 
L 345.803292 263.222054 
L 346.637427 265.489521 
L 347.471562 266.991749 
L 348.305698 267.87656 
L 349.139833 268.374554 
L 350.808103 269.217317 
L 351.642239 269.898887 
L 354.422689 272.481085 
L 354.978779 272.644415 
L 355.53487 272.571339 
L 356.09096 272.231853 
L 356.64705 271.612211 
L 357.20314 270.712898 
L 358.037275 268.84827 
L 358.87141 266.322274 
L 359.705546 262.966584 
L 360.539681 258.486992 
L 361.373816 252.401449 
L 362.207951 243.992611 
L 363.042087 232.477018 
L 363.876222 217.321061 
L 364.988402 191.756556 
L 367.212763 137.903749 
L 367.768853 129.113395 
L 368.324943 124.02477 
L 368.602988 123.048524 
L 368.881033 123.166731 
L 369.159078 124.383477 
L 369.437123 126.67655 
L 369.993213 134.275218 
L 370.549304 145.304755 
L 371.661484 173.710526 
L 373.329754 216.46562 
L 374.16389 232.595044 
L 374.998025 244.326701 
L 375.83216 252.291235 
L 376.666295 257.498841 
L 377.50043 260.934976 
L 378.334566 263.327802 
L 379.168701 265.082268 
L 380.002836 266.406177 
L 381.115016 267.737967 
L 382.227197 268.73174 
L 383.339377 269.438543 
L 384.451557 269.893474 
L 385.563738 270.095654 
L 386.675918 270.013967 
L 387.788098 269.634154 
L 388.900279 268.93491 
L 390.012459 267.938096 
L 391.402684 266.373549 
L 392.79291 264.478996 
L 394.739225 261.358035 
L 396.12945 259.244045 
L 396.963586 258.357332 
L 397.519676 258.01609 
L 398.075766 257.891149 
L 398.631856 257.973027 
L 399.465991 258.409215 
L 401.690352 259.989663 
L 402.524487 260.183736 
L 403.080577 260.11649 
L 403.914713 259.734219 
L 404.748848 259.040996 
L 405.582983 258.070519 
L 406.695163 256.370352 
L 407.807344 254.159469 
L 408.919524 251.34421 
L 410.309749 247.009076 
L 414.75847 232.017795 
L 416.148696 228.700059 
L 417.816966 224.729262 
L 418.929147 221.281136 
L 420.041327 216.898845 
L 421.153507 211.36907 
L 421.987642 206.195048 
L 422.821778 199.7893 
L 423.655913 191.666796 
L 424.490048 181.297098 
L 425.324183 168.340875 
L 426.436364 147.093005 
L 426.436364 147.093005 
" clip-path="url(#pf9eb99611b)" style="fill: none; stroke-dasharray: 11.1,4.8; stroke-dashoffset: 0; stroke: #000000; stroke-width: 3"/>
   </g>
   <g id="line2d_2">
    <path d="M 27.163636 160.571065 
L 27.441681 165.081513 
L 27.997772 178.511435 
L 28.831907 191.228288 
L 29.387997 193.726496 
L 29.666042 193.721422 
L 29.944087 193.899724 
L 30.222132 192.536878 
L 30.778222 183.554494 
L 31.056267 182.99359 
L 31.334312 186.074355 
L 31.612358 199.182778 
L 32.446493 220.140864 
L 32.724538 226.649022 
L 33.002583 230.548308 
L 33.280628 230.917667 
L 33.836718 225.620293 
L 35.226944 197.070474 
L 35.504989 194.169644 
L 35.783034 194.967206 
L 36.061079 229.138089 
L 36.895214 243.194988 
L 37.173259 245.155892 
L 37.451304 245.139625 
L 38.563484 236.510508 
L 38.84153 235.39388 
L 39.119575 235.019272 
L 39.39762 235.442018 
L 39.95371 230.849197 
L 40.231755 227.84587 
L 40.5098 233.658998 
L 40.787845 232.100125 
L 41.06589 233.320086 
L 41.343935 235.371392 
L 42.17807 243.384099 
L 42.734161 248.718697 
L 43.012206 248.91184 
L 43.290251 245.538076 
L 43.846341 227.210309 
L 44.124386 217.238296 
L 44.402431 212.142372 
L 44.680476 213.203147 
L 44.958521 228.630537 
L 46.070701 243.11602 
L 46.348747 241.180941 
L 46.626792 234.242703 
L 47.460927 200.498389 
L 47.738972 197.120384 
L 48.017017 199.952847 
L 48.851152 219.394012 
L 49.129197 222.163843 
L 49.407242 230.550324 
L 50.519423 210.45695 
L 50.797468 211.200744 
L 51.909648 232.587832 
L 52.187693 235.17811 
L 52.465738 235.607008 
L 52.743783 232.599405 
L 53.577918 206.656096 
L 53.855964 231.654822 
L 54.134009 234.948507 
L 54.968144 257.720198 
L 55.524234 267.949253 
L 55.802279 265.502468 
L 56.358369 253.590997 
L 56.914459 244.586368 
L 57.192504 244.209779 
L 57.47055 247.462347 
L 58.02664 264.771569 
L 58.304685 275.847524 
L 58.58273 278.131665 
L 58.860775 277.03702 
L 59.13882 271.251401 
L 59.972955 249.014373 
L 60.251 242.795633 
L 60.529045 241.775767 
L 60.80709 243.844973 
L 61.085135 250.307565 
L 61.641226 267.189489 
L 61.919271 269.054795 
L 62.197316 266.808695 
L 62.475361 260.754319 
L 62.753406 258.373381 
L 63.309496 240.41751 
L 63.587541 242.635752 
L 64.699721 287.670539 
L 64.977767 289.659248 
L 65.255812 288.652451 
L 65.811902 280.467594 
L 66.089947 273.011446 
L 66.367992 260.272035 
L 66.646037 254.120202 
L 66.924082 259.735739 
L 67.202127 277.426417 
L 67.480172 284.099322 
L 67.758217 287.686736 
L 68.036262 289.616602 
L 68.314307 290.055788 
L 68.592352 288.998297 
L 68.870398 286.387947 
L 69.148443 281.144585 
L 69.982578 250.938087 
L 70.260623 262.490069 
L 70.538668 279.979349 
L 70.816713 289.706865 
L 71.094758 292.473569 
L 71.372803 292.842268 
L 71.650848 291.281639 
L 71.928893 290.535083 
L 72.484984 286.723106 
L 72.763029 283.137465 
L 73.041074 281.01821 
L 73.319119 283.276579 
L 73.875209 291.528881 
L 74.153254 292.90768 
L 74.431299 293.09653 
L 74.709344 292.885922 
L 74.987389 291.577228 
L 75.821524 285.776264 
L 76.09957 285.14828 
L 76.377615 287.403364 
L 76.933705 295.04619 
L 77.76784 300.2207 
L 78.045885 300.487874 
L 78.601975 296.403683 
L 79.43611 295.620893 
L 79.714155 297.46743 
L 79.992201 300.911176 
L 80.270246 301.449662 
L 81.104381 300.571899 
L 81.382426 300.575322 
L 81.660471 301.377385 
L 81.938516 302.855745 
L 82.216561 301.596161 
L 82.494606 299.37997 
L 82.772651 298.615704 
L 83.050696 300.654707 
L 83.328741 303.571263 
L 83.606787 302.789359 
L 83.884832 300.66343 
L 84.162877 300.300744 
L 84.718967 301.32353 
L 84.997012 302.322264 
L 85.275057 302.877294 
L 85.831147 303.232959 
L 86.109192 303.710099 
L 86.665282 304.316847 
L 87.221372 306.148039 
L 87.499418 306.003416 
L 88.333553 302.367135 
L 88.611598 302.079314 
L 89.167688 301.998158 
L 89.445733 308.888066 
L 89.723778 311.451773 
L 90.001823 312.597719 
L 90.279868 312.736903 
L 90.835958 311.74366 
L 91.114004 310.77374 
L 91.392049 308.007662 
L 91.670094 303.510491 
L 91.948139 301.011032 
L 92.504229 300.674205 
L 92.782274 300.168356 
L 93.060319 301.400029 
L 93.616409 307.625268 
L 93.894454 308.363709 
L 94.172499 306.903545 
L 94.450544 303.867895 
L 95.006635 296.787953 
L 95.28468 296.059939 
L 95.562725 295.739396 
L 95.84077 295.791131 
L 96.39686 296.180893 
L 96.95295 297.986469 
L 97.230995 297.92481 
L 97.50904 296.757228 
L 97.787085 296.271781 
L 98.06513 297.961236 
L 98.343175 301.689709 
L 98.621221 302.865007 
L 98.899266 302.713746 
L 99.177311 302.198947 
L 100.011446 299.420253 
L 100.289491 299.192249 
L 100.845581 298.431946 
L 101.123626 297.209691 
L 101.679716 292.675314 
L 101.957761 289.744889 
L 102.235807 288.362945 
L 102.513852 289.01896 
L 102.791897 292.484934 
L 103.069942 293.509909 
L 103.347987 293.492774 
L 103.626032 292.056314 
L 103.904077 289.343414 
L 104.460167 280.179739 
L 105.016257 262.689017 
L 105.294302 254.540654 
L 105.572347 253.558187 
L 105.850393 260.641325 
L 106.406483 281.264148 
L 106.684528 287.007694 
L 106.962573 287.321912 
L 107.240618 301.105084 
L 107.518663 301.147904 
L 107.796708 299.436588 
L 108.074753 293.141071 
L 108.630843 276.290741 
L 108.908888 276.139063 
L 109.186933 281.533964 
L 109.464978 289.703911 
L 109.743024 294.246404 
L 110.021069 295.829363 
L 110.299114 295.817963 
L 110.577159 294.367392 
L 110.855204 290.364253 
L 111.133249 282.624056 
L 111.411294 270.293263 
L 111.689339 264.05937 
L 111.967384 261.486226 
L 112.245429 268.990964 
L 112.801519 289.173124 
L 113.079564 293.146319 
L 113.35761 294.602712 
L 113.635655 293.901913 
L 113.9137 291.445013 
L 114.191745 283.59422 
L 115.02588 238.943373 
L 115.303925 235.573328 
L 115.58197 239.925841 
L 115.860015 247.902193 
L 116.13806 264.962453 
L 116.416105 269.857692 
L 116.69415 270.991769 
L 116.972195 264.920189 
L 118.084376 213.35413 
L 118.362421 211.22483 
L 118.640466 212.315704 
L 118.918511 215.596355 
L 119.474601 229.387469 
L 119.752646 236.535429 
L 120.030691 239.107773 
L 120.586781 227.146356 
L 121.142872 213.259105 
L 121.420917 211.139711 
L 121.698962 211.903107 
L 121.977007 214.388768 
L 122.255052 218.407616 
L 123.089187 233.477499 
L 123.367232 231.522608 
L 124.479413 208.918827 
L 124.757458 209.147839 
L 125.035503 227.273461 
L 125.313548 229.634172 
L 125.591593 234.473591 
L 126.425728 261.335591 
L 126.703773 260.929354 
L 127.537908 227.490899 
L 127.815953 223.650909 
L 128.093998 224.780676 
L 128.372044 227.611227 
L 128.650089 232.488914 
L 128.928134 240.826805 
L 129.484224 267.335571 
L 129.762269 273.108452 
L 130.040314 271.535902 
L 130.318359 259.691876 
L 130.874449 228.521853 
L 131.152494 223.494121 
L 131.430539 223.650005 
L 131.708584 225.975298 
L 131.98663 230.849301 
L 132.54272 250.971801 
L 132.820765 261.644161 
L 133.09881 267.806577 
L 133.376855 264.823374 
L 134.21099 237.294481 
L 134.489035 236.546586 
L 134.76708 238.460186 
L 135.32317 250.413573 
L 136.157306 269.936816 
L 136.435351 267.577304 
L 137.547531 241.567296 
L 137.825576 241.637366 
L 138.103621 242.540727 
L 138.381666 245.676825 
L 139.215801 261.047492 
L 139.493847 259.568316 
L 140.327982 236.488194 
L 140.606027 236.577311 
L 140.884072 235.686149 
L 141.162117 235.366804 
L 141.440162 237.07176 
L 141.718207 239.98604 
L 142.274297 252.08551 
L 142.552342 254.355922 
L 142.830387 259.161559 
L 143.386478 235.918358 
L 143.664523 234.797871 
L 143.942568 231.335235 
L 144.220613 223.206093 
L 144.498658 222.056793 
L 144.776703 230.676595 
L 145.610838 243.217162 
L 145.888883 244.592277 
L 146.444973 238.154918 
L 146.723018 232.440116 
L 147.001064 207.64972 
L 147.279109 171.294969 
L 147.557154 157.362952 
L 147.835199 171.089905 
L 148.113244 206.319338 
L 148.391289 226.808695 
L 148.669334 230.894763 
L 148.947379 232.792166 
L 149.225424 231.043626 
L 149.503469 220.235611 
L 149.781514 187.707156 
L 150.337604 97.732503 
L 150.61565 84.427114 
L 150.893695 89.233723 
L 151.17174 108.38241 
L 151.72783 172.497065 
L 152.005875 178.793729 
L 152.28392 160.931319 
L 153.118055 74.603895 
L 153.3961 62.590952 
L 153.674145 42.614951 
L 153.95219 40.086957 
L 155.064371 79.575842 
L 155.342416 79.960807 
L 155.898506 66.485441 
L 156.176551 53.120236 
L 156.454596 28.43199 
L 156.732641 24.129249 
L 157.010686 26.41923 
L 157.288731 32.405377 
L 157.566776 40.981803 
L 158.122867 70.849702 
L 158.400912 76.714322 
L 158.678957 75.406149 
L 158.957002 68.903674 
L 159.791137 36.489846 
L 160.069182 34.576351 
L 160.347227 34.869558 
L 160.625272 42.283651 
L 160.903317 65.112342 
L 161.181362 73.167539 
L 161.737453 79.271304 
L 162.015498 79.509596 
L 162.293543 77.056641 
L 162.571588 68.916394 
L 162.849633 43.388288 
L 163.127678 28.984761 
L 163.405723 27.543957 
L 163.683768 30.194712 
L 163.961813 38.237761 
L 164.517903 65.224259 
L 165.073993 79.192093 
L 165.352038 81.460177 
L 165.630084 81.048275 
L 166.464219 75.480251 
L 166.742264 77.658106 
L 167.020309 85.395436 
L 167.576399 108.288775 
L 168.132489 145.855805 
L 168.410534 141.76939 
L 168.688579 128.290739 
L 169.24467 95.706673 
L 169.522715 89.678261 
L 169.80076 90.920188 
L 170.078805 100.344782 
L 170.35685 120.577878 
L 170.91294 196.79461 
L 171.190985 215.689503 
L 171.46903 216.672701 
L 171.747075 206.187888 
L 172.58121 148.553517 
L 172.859256 135.306971 
L 173.137301 134.551152 
L 173.415346 151.740324 
L 173.971436 217.223316 
L 174.249481 227.853099 
L 174.527526 230.883953 
L 174.805571 232.0523 
L 175.083616 231.137017 
L 175.361661 225.932721 
L 175.639706 210.867149 
L 176.195796 159.759079 
L 176.473841 151.510756 
L 176.751887 163.954978 
L 177.307977 216.50851 
L 177.586022 227.621063 
L 177.864067 233.577529 
L 178.142112 236.272981 
L 178.420157 235.747494 
L 178.698202 236.03952 
L 179.810382 227.515055 
L 180.088427 228.628452 
L 181.478653 237.446576 
L 181.756698 237.805161 
L 182.034743 237.320583 
L 182.312788 237.215791 
L 182.590833 236.22599 
L 182.868878 234.589853 
L 183.424968 230.314639 
L 184.259104 227.803327 
L 184.537149 226.302394 
L 185.371284 216.482408 
L 185.927374 221.816728 
L 186.205419 222.991956 
L 187.317599 230.589356 
L 187.595644 230.025011 
L 187.87369 229.181292 
L 188.151735 228.797091 
L 188.42978 228.862503 
L 188.707825 228.615105 
L 188.98587 227.27718 
L 189.263915 224.207955 
L 189.820005 215.155605 
L 190.09805 211.405808 
L 190.376095 204.51762 
L 191.21023 173.848718 
L 191.488276 169.168623 
L 191.766321 167.495435 
L 192.044366 167.996905 
L 192.322411 170.740461 
L 192.600456 169.766508 
L 193.434591 151.942435 
L 193.990681 141.91728 
L 194.268726 146.744812 
L 195.102861 192.236198 
L 195.380907 199.273806 
L 195.658952 201.87538 
L 195.936997 200.535544 
L 196.215042 196.802222 
L 196.771132 181.764489 
L 197.049177 177.760342 
L 197.327222 180.102527 
L 198.161357 198.608145 
L 198.439402 199.524228 
L 198.717447 197.500484 
L 198.995493 190.849475 
L 199.273538 177.357477 
L 199.829628 137.892418 
L 200.107673 130.494418 
L 200.385718 133.888167 
L 200.663763 146.703278 
L 201.219853 191.063611 
L 201.497898 213.999284 
L 201.775943 226.06789 
L 202.053988 230.034639 
L 202.332033 227.848615 
L 202.610079 220.997721 
L 203.166169 199.800022 
L 203.444214 193.973651 
L 203.722259 197.527976 
L 204.278349 219.965238 
L 204.556394 230.768874 
L 204.834439 237.073984 
L 205.112484 239.734818 
L 205.390529 238.18891 
L 205.668574 232.805165 
L 206.224664 218.768634 
L 206.50271 215.357507 
L 206.780755 218.045104 
L 207.336845 229.567856 
L 207.892935 243.91605 
L 208.17098 246.656895 
L 208.449025 246.251562 
L 208.72707 243.343851 
L 209.561205 228.393635 
L 209.83925 228.041202 
L 210.117296 232.55954 
L 210.951431 257.663162 
L 211.229476 257.557085 
L 211.785566 255.263594 
L 212.063611 250.272148 
L 212.619701 229.985666 
L 212.897746 224.633168 
L 213.175791 226.165869 
L 214.009927 258.049587 
L 214.566017 268.533218 
L 214.844062 269.543491 
L 215.678197 253.778301 
L 215.956242 252.264681 
L 216.234287 251.538474 
L 216.512332 252.923946 
L 216.790377 256.712358 
L 217.068422 264.838285 
L 217.624513 286.188826 
L 217.902558 287.965172 
L 218.180603 287.184171 
L 218.458648 284.087366 
L 219.014738 269.911322 
L 219.292783 266.910671 
L 219.570828 267.853933 
L 219.848873 271.9408 
L 220.404963 285.56072 
L 220.683008 286.474874 
L 220.961053 286.606602 
L 221.517144 288.48899 
L 221.795189 289.642113 
L 222.351279 290.599574 
L 222.629324 291.776697 
L 222.907369 291.934249 
L 223.185414 290.175403 
L 223.463459 291.19977 
L 224.297594 299.551355 
L 224.575639 298.617199 
L 225.13173 292.664974 
L 225.409775 291.318516 
L 225.68782 291.682628 
L 225.965865 292.953107 
L 226.24391 295.519212 
L 226.8 305.736207 
L 227.078045 306.88429 
L 227.35609 307.109514 
L 227.634135 307.793786 
L 228.190225 310.858285 
L 228.46827 310.783958 
L 229.024361 305.861418 
L 229.302406 305.555819 
L 229.580451 306.818843 
L 229.858496 309.178024 
L 230.136541 309.234417 
L 231.526766 301.961298 
L 232.082856 294.792119 
L 232.360901 293.297302 
L 232.638947 293.521605 
L 233.195037 297.82624 
L 233.473082 299.880414 
L 233.751127 300.98851 
L 234.029172 300.560342 
L 234.307217 298.997298 
L 234.863307 291.98555 
L 235.141352 291.29052 
L 235.419397 291.353047 
L 235.697442 291.779755 
L 235.975487 292.732054 
L 236.809623 298.994413 
L 237.087668 299.097988 
L 237.365713 297.876568 
L 237.921803 292.466443 
L 238.199848 292.052109 
L 238.477893 292.17977 
L 238.755938 292.96402 
L 239.312028 295.407678 
L 239.868119 296.653792 
L 240.980299 292.512183 
L 242.092479 277.301154 
L 242.370524 279.352321 
L 243.482704 297.254545 
L 243.76075 296.61052 
L 244.038795 293.641342 
L 244.31684 289.155937 
L 245.150975 270.242449 
L 245.42902 269.628089 
L 245.707065 272.086431 
L 246.263155 280.803031 
L 246.5412 282.474968 
L 246.819245 281.442659 
L 247.09729 277.477822 
L 247.375336 270.685006 
L 247.931426 248.924735 
L 248.209471 241.750325 
L 248.487516 238.305692 
L 248.765561 238.055444 
L 249.043606 241.276383 
L 249.877741 255.094294 
L 250.155786 249.993678 
L 250.711876 235.22093 
L 251.546012 218.57285 
L 251.824057 217.945978 
L 252.102102 219.824091 
L 252.658192 230.299902 
L 252.936237 235.366109 
L 253.214282 234.696347 
L 254.048417 218.146211 
L 254.326462 216.124066 
L 254.882553 219.244002 
L 255.160598 218.167795 
L 255.438643 216.320893 
L 255.716688 216.520814 
L 256.272778 222.756688 
L 256.550823 223.758689 
L 256.828868 222.605775 
L 257.106913 220.852994 
L 257.384958 222.434111 
L 257.941048 230.922325 
L 258.219093 232.405498 
L 258.497139 231.305344 
L 259.331274 217.478465 
L 259.887364 219.319111 
L 260.443454 218.493535 
L 260.721499 219.384349 
L 261.555634 224.54141 
L 261.833679 225.121257 
L 262.111724 224.192036 
L 262.667815 220.699196 
L 263.223905 220.35003 
L 263.50195 220.25424 
L 263.779995 220.749176 
L 264.61413 224.427478 
L 264.892175 225.884062 
L 265.17022 226.572871 
L 265.448265 226.016138 
L 265.72631 225.14722 
L 266.004356 224.995055 
L 266.282401 225.289514 
L 266.560446 226.210671 
L 266.838491 225.916351 
L 267.116536 226.007865 
L 267.394581 226.310874 
L 267.672626 226.238268 
L 267.950671 225.823829 
L 268.228716 225.142945 
L 268.784806 221.816554 
L 269.062851 221.166778 
L 269.340896 221.554697 
L 269.618942 221.555601 
L 269.896987 221.301112 
L 270.175032 221.622681 
L 270.453077 223.930805 
L 271.009167 229.961823 
L 271.287212 230.422523 
L 271.565257 228.635021 
L 272.121347 219.841261 
L 272.399392 220.316246 
L 272.955482 226.011828 
L 273.233527 226.732821 
L 273.789618 222.963665 
L 274.067663 223.925556 
L 274.623753 227.365984 
L 274.901798 227.554852 
L 275.179843 226.180884 
L 275.457888 228.151242 
L 275.735933 227.136555 
L 276.013978 226.865383 
L 276.570068 228.659663 
L 277.126159 230.192225 
L 277.404204 228.717742 
L 277.682249 224.856689 
L 277.960294 223.919752 
L 278.238339 226.382439 
L 278.516384 230.042459 
L 278.794429 229.69371 
L 279.072474 228.161148 
L 279.350519 228.18294 
L 279.628564 229.888765 
L 279.906609 227.70872 
L 280.184654 210.558231 
L 280.462699 175.276107 
L 280.740744 155.848428 
L 281.01879 152.295493 
L 281.296835 158.534183 
L 281.57488 178.738744 
L 281.852925 213.371891 
L 282.13097 224.827875 
L 282.409015 225.861818 
L 282.68706 226.06372 
L 282.965105 220.192651 
L 283.79924 136.038287 
L 284.077285 128.70052 
L 284.35533 129.470069 
L 284.633376 141.99152 
L 285.467511 219.799692 
L 285.745556 222.23287 
L 286.023601 213.508311 
L 286.301646 186.140845 
L 286.857736 115.224511 
L 287.135781 90.412914 
L 287.413826 81.421597 
L 287.691871 83.304333 
L 288.526007 131.686782 
L 288.804052 131.697765 
L 289.082097 124.42694 
L 289.916232 67.510486 
L 290.194277 34.681942 
L 290.472322 21.927273 
L 290.750367 24.41481 
L 291.028412 36.653203 
L 291.306457 65.792184 
L 291.862547 86.490898 
L 292.140593 89.941335 
L 292.418638 87.367184 
L 292.696683 81.211076 
L 292.974728 64.309045 
L 293.252773 35.410581 
L 293.530818 30.50203 
L 293.808863 34.093858 
L 294.086908 46.315915 
L 294.642998 81.02624 
L 294.921043 90.141221 
L 295.199088 92.584061 
L 295.477133 91.542542 
L 296.033224 75.841651 
L 296.311269 62.454706 
L 296.589314 43.418735 
L 296.867359 38.571356 
L 297.145404 43.732936 
L 297.423449 53.715271 
L 297.701494 78.829407 
L 298.257584 100.517002 
L 298.535629 104.126347 
L 298.813674 102.509499 
L 299.091719 96.136648 
L 299.64781 73.465335 
L 299.925855 68.217159 
L 300.2039 67.821906 
L 300.481945 73.18669 
L 300.75999 81.753385 
L 301.038035 102.426674 
L 301.87217 127.809984 
L 302.150215 126.862551 
L 302.706305 105.150731 
L 302.98435 102.11004 
L 303.262396 102.16433 
L 303.540441 104.559589 
L 303.818486 113.519729 
L 304.374576 159.423955 
L 304.930666 207.296106 
L 305.208711 208.733504 
L 305.486756 196.234505 
L 305.764801 158.14397 
L 306.042846 136.389886 
L 306.320891 127.683296 
L 306.598936 129.49266 
L 306.876982 142.172046 
L 307.433072 221.905775 
L 307.989162 211.500972 
L 308.267207 211.408102 
L 308.545252 211.617164 
L 308.823297 212.857735 
L 309.101342 218.386971 
L 309.379387 220.478282 
L 309.657432 210.005252 
L 309.935477 205.777237 
L 310.491567 219.581211 
L 311.047658 209.595609 
L 311.325703 209.125282 
L 311.603748 208.280381 
L 311.881793 207.94623 
L 312.437883 211.744895 
L 312.993973 194.041461 
L 313.550063 215.796901 
L 313.828108 210.795897 
L 314.106153 209.581046 
L 314.662244 214.844984 
L 314.940289 212.705083 
L 315.218334 208.889735 
L 315.496379 206.670346 
L 315.774424 207.693479 
L 316.052469 210.482288 
L 316.330514 211.097481 
L 316.608559 208.836975 
L 316.886604 208.815982 
L 317.164649 212.931071 
L 317.720739 224.647697 
L 317.998785 221.772969 
L 318.27683 213.342869 
L 318.554875 208.476061 
L 318.83292 209.853191 
L 319.110965 210.011021 
L 319.38901 204.329099 
L 319.667055 204.664675 
L 319.9451 209.409244 
L 320.223145 207.515003 
L 320.50119 208.864189 
L 320.779235 213.057586 
L 321.05728 215.272075 
L 321.335325 212.261032 
L 321.61337 207.748151 
L 321.891416 208.177744 
L 322.169461 211.340361 
L 322.447506 210.275868 
L 322.725551 208.419234 
L 323.003596 209.440733 
L 323.281641 208.183166 
L 323.559686 205.865624 
L 324.115776 211.91913 
L 324.393821 209.98975 
L 324.671866 205.522853 
L 324.949911 203.137883 
L 325.227956 206.273633 
L 325.506002 205.343196 
L 325.784047 202.571557 
L 326.062092 202.639715 
L 326.340137 205.985361 
L 326.618182 207.229095 
L 326.896227 205.749328 
L 327.174272 206.215902 
L 327.452317 206.343911 
L 328.008407 203.496085 
L 328.286452 203.918588 
L 328.564497 199.28385 
L 328.842542 189.354346 
L 329.120587 195.176233 
L 329.954723 227.69725 
L 330.232768 229.549782 
L 330.510813 228.708184 
L 330.788858 227.509633 
L 331.066903 224.816267 
L 331.344948 216.554041 
L 331.901038 184.80942 
L 332.179083 182.084911 
L 332.457128 183.076172 
L 332.735173 189.072747 
L 333.013219 197.637912 
L 333.291264 211.440912 
L 333.569309 215.426012 
L 333.847354 214.187422 
L 334.125399 208.331647 
L 335.515624 157.751949 
L 335.793669 157.274461 
L 336.349759 158.903056 
L 336.627805 160.939486 
L 336.90585 160.381433 
L 337.183895 157.041522 
L 337.46194 152.124595 
L 337.739985 150.49527 
L 338.01803 147.569415 
L 338.57412 145.04441 
L 338.852165 144.493864 
L 339.6863 144.610507 
L 339.964345 145.178501 
L 340.24239 145.264976 
L 340.520436 144.57436 
L 341.354571 140.323094 
L 341.632616 140.61147 
L 342.188706 143.188124 
L 342.744796 147.329003 
L 343.300886 154.493507 
L 343.856976 164.823861 
L 344.691112 176.52714 
L 344.969157 180.774096 
L 345.247202 182.389971 
L 345.525247 183.349881 
L 346.081337 181.861495 
L 346.359382 180.182051 
L 346.637427 180.824528 
L 346.915472 180.272939 
L 347.193517 181.933928 
L 347.471562 185.386659 
L 348.027653 199.882847 
L 348.305698 201.973116 
L 348.583743 199.914198 
L 349.695923 179.490392 
L 349.973968 179.386887 
L 350.252013 178.959796 
L 350.808103 179.51646 
L 351.086148 186.3237 
L 351.642239 193.198924 
L 351.920284 193.151725 
L 352.198329 192.40814 
L 352.754419 192.329798 
L 353.032464 194.466432 
L 353.588554 202.215405 
L 353.866599 204.377724 
L 354.700734 216.216484 
L 354.978779 215.292929 
L 355.256825 211.359651 
L 355.812915 210.010326 
L 356.09096 211.366742 
L 356.369005 214.223395 
L 356.925095 222.903813 
L 357.75923 243.138126 
L 358.037275 244.645594 
L 358.31532 242.644859 
L 359.149456 226.211262 
L 359.427501 225.184027 
L 359.705546 227.163735 
L 360.539681 247.938236 
L 361.095771 252.110952 
L 361.651861 253.964145 
L 362.207951 255.948266 
L 362.485996 255.977879 
L 362.764042 255.427576 
L 363.042087 256.130218 
L 363.320132 260.054806 
L 364.154267 280.837892 
L 364.432312 271.469013 
L 364.710357 272.149202 
L 365.266447 272.374338 
L 365.544492 273.243586 
L 365.822537 276.345622 
L 366.656673 295.904264 
L 366.934718 298.730228 
L 367.212763 299.545307 
L 367.490808 298.596519 
L 367.768853 296.167477 
L 368.046898 290.031892 
L 368.602988 274.801017 
L 368.881033 272.553474 
L 369.159078 273.76379 
L 369.715168 284.600479 
L 369.993213 291.44192 
L 370.271259 295.477243 
L 370.549304 296.912243 
L 370.827349 294.28952 
L 371.105394 289.13119 
L 371.939529 268.845333 
L 372.217574 267.539715 
L 372.495619 268.106962 
L 372.773664 271.677796 
L 373.051709 278.207296 
L 373.329754 288.526093 
L 373.607799 294.404877 
L 373.885845 296.39562 
L 374.16389 295.618547 
L 374.441935 292.278861 
L 375.27607 275.499905 
L 375.554115 275.789584 
L 376.110205 280.157981 
L 376.38825 283.422661 
L 376.666295 288.434822 
L 376.94434 291.358156 
L 377.222385 290.923975 
L 377.50043 288.000015 
L 378.056521 276.667017 
L 378.334566 272.756089 
L 378.612611 271.307863 
L 378.890656 272.780401 
L 379.446746 279.255662 
L 380.002836 285.86034 
L 380.280881 286.247461 
L 380.558926 283.353895 
L 381.393062 268.88473 
L 381.671107 266.223618 
L 381.949152 265.163329 
L 382.227197 273.1202 
L 382.783287 278.726908 
L 383.339377 282.362981 
L 383.617422 282.682569 
L 383.895467 281.547363 
L 385.007648 270.50799 
L 385.285693 269.980435 
L 385.841783 274.443683 
L 386.397873 278.978113 
L 386.675918 277.970498 
L 386.953963 275.231791 
L 387.788098 261.37994 
L 388.066143 251.168871 
L 388.344188 245.190753 
L 388.622233 245.880847 
L 389.456369 264.429876 
L 389.734414 265.824593 
L 390.012459 264.804136 
L 390.290504 260.339116 
L 391.402684 219.408749 
L 391.680729 218.863833 
L 391.958774 222.776187 
L 392.79291 239.966368 
L 393.070955 241.400707 
L 393.349 238.233781 
L 394.46118 213.121955 
L 394.739225 210.002576 
L 395.01727 210.941459 
L 395.295315 217.506861 
L 395.57336 219.874801 
L 395.851405 225.227577 
L 396.12945 227.617866 
L 396.407496 228.644127 
L 396.685541 229.161654 
L 396.963586 228.339693 
L 397.241631 220.706529 
L 397.797721 195.859133 
L 398.075766 194.793979 
L 398.353811 201.629998 
L 398.909901 229.90722 
L 399.187946 235.776968 
L 399.744036 239.380682 
L 400.022082 237.550916 
L 400.300127 237.243805 
L 400.578172 235.300523 
L 400.856217 232.567673 
L 401.134262 231.943234 
L 401.412307 233.593899 
L 401.690352 236.034272 
L 401.968397 237.447202 
L 402.246442 237.444699 
L 402.802532 236.574669 
L 403.636668 236.075632 
L 403.914713 233.83518 
L 404.192758 230.131749 
L 404.470803 223.56002 
L 404.748848 223.35791 
L 405.304938 231.195652 
L 405.582983 233.568735 
L 406.139073 235.859168 
L 406.417118 235.775091 
L 406.695163 234.040905 
L 407.251253 223.830949 
L 407.529299 216.919682 
L 407.807344 214.702065 
L 408.085389 213.722238 
L 408.919524 226.816063 
L 409.197569 227.733501 
L 409.475614 226.674638 
L 410.031704 219.954116 
L 410.865839 212.382124 
L 411.143885 212.001851 
L 411.42193 209.286831 
L 411.699975 209.471806 
L 411.97802 208.693117 
L 412.256065 210.79621 
L 412.53411 206.756195 
L 413.0902 194.956084 
L 413.368245 172.173028 
L 414.20238 144.297905 
L 414.480425 146.234271 
L 414.75847 157.12532 
L 415.314561 187.680463 
L 415.592606 197.173076 
L 415.870651 197.37602 
L 416.148696 195.450186 
L 416.426741 189.431019 
L 416.704786 186.054474 
L 417.538921 149.8774 
L 417.816966 170.518157 
L 418.095011 172.939552 
L 418.373056 178.751743 
L 418.651102 181.101157 
L 419.485237 191.684922 
L 420.041327 185.802905 
L 420.597417 167.455048 
L 420.875462 162.088474 
L 421.709597 182.120641 
L 421.987642 187.522841 
L 422.543733 184.911361 
L 422.821778 181.424082 
L 423.377868 164.583032 
L 423.655913 154.178577 
L 424.212003 144.444092 
L 424.490048 146.57732 
L 424.768093 150.341124 
L 425.324183 162.476046 
L 425.602228 167.656602 
L 425.880273 163.547873 
L 426.158319 156.087276 
L 426.436364 144.481212 
L 426.436364 144.481212 
" clip-path="url(#pf9eb99611b)" style="fill: none; stroke: #ff00ff; stroke-width: 3; stroke-linecap: square"/>
   </g>
   <g id="patch_3">
    <path d="M 7.2 331.2 
L 7.2 7.2 
" style="fill: none; stroke: #000000; stroke-width: 0.8; stroke-linejoin: miter; stroke-linecap: square"/>
   </g>
   <g id="patch_4">
    <path d="M 446.4 331.2 
L 446.4 7.2 
" style="fill: none; stroke: #000000; stroke-width: 0.8; stroke-linejoin: miter; stroke-linecap: square"/>
   </g>
   <g id="patch_5">
    <path d="M 7.2 331.2 
L 446.4 331.2 
" style="fill: none; stroke: #000000; stroke-width: 0.8; stroke-linejoin: miter; stroke-linecap: square"/>
   </g>
   <g id="patch_6">
    <path d="M 7.2 7.2 
L 446.4 7.2 
" style="fill: none; stroke: #000000; stroke-width: 0.8; stroke-linejoin: miter; stroke-linecap: square"/>
   </g>
  </g>
 </g>
 <defs>
  <clipPath id="pf9eb99611b">
   <rect x="7.2" y="7.2" width="439.2" height="324"/>
  </clipPath>
 </defs>
</svg>
