<?xml version="1.0" encoding="utf-8" standalone="no"?>
<!DOCTYPE svg PUBLIC "-//W3C//DTD SVG 1.1//EN"
  "http://www.w3.org/Graphics/SVG/1.1/DTD/svg11.dtd">
<svg xmlns:xlink="http://www.w3.org/1999/xlink" width="453.6pt" height="338.4pt" viewBox="0 0 453.6 338.4" xmlns="http://www.w3.org/2000/svg" version="1.1">
 <metadata>
  <rdf:RDF xmlns:dc="http://purl.org/dc/elements/1.1/" xmlns:cc="http://creativecommons.org/ns#" xmlns:rdf="http://www.w3.org/1999/02/22-rdf-syntax-ns#">
   <cc:Work>
    <dc:type rdf:resource="http://purl.org/dc/dcmitype/StillImage"/>
    <dc:date>2025-05-15T18:32:13.890722</dc:date>
    <dc:format>image/svg+xml</dc:format>
    <dc:creator>
     <cc:Agent>
      <dc:title>Matplotlib v3.10.1, https://matplotlib.org/</dc:title>
     </cc:Agent>
    </dc:creator>
   </cc:Work>
  </rdf:RDF>
 </metadata>
 <defs>
  <style type="text/css">*{stroke-linejoin: round; stroke-linecap: butt}</style>
 </defs>
 <g id="figure_1">
  <g id="patch_1">
   <path d="M 0 338.4 
L 453.6 338.4 
L 453.6 0 
L 0 0 
z
" style="fill: #ffffff"/>
  </g>
  <g id="axes_1">
   <g id="patch_2">
    <path d="M 7.2 331.2 
L 446.4 331.2 
L 446.4 7.2 
L 7.2 7.2 
z
" style="fill: #ffffff"/>
   </g>
   <g id="matplotlib.axis_1"/>
   <g id="matplotlib.axis_2"/>
   <g id="line2d_1">
    <path d="M 27.163636 81.081032 
L 28.275817 68.626849 
L 29.109952 61.141046 
L 29.944087 55.358314 
L 30.778222 51.081267 
L 31.612358 47.890261 
L 34.392808 38.472195 
L 37.173259 26.867539 
L 37.729349 25.620002 
L 38.007394 25.304976 
L 38.285439 25.226981 
L 38.563484 25.405774 
L 38.84153 25.85619 
L 39.39762 27.609077 
L 39.95371 30.505917 
L 40.787845 36.817385 
L 41.900025 47.856704 
L 43.568296 65.111488 
L 44.402431 71.775036 
L 44.958521 75.019097 
L 45.514611 77.27403 
L 46.070701 78.675679 
L 46.626792 79.511214 
L 47.460927 80.667605 
L 48.017017 82.182165 
L 48.573107 84.997253 
L 49.129197 89.684617 
L 49.685287 96.710221 
L 50.241378 106.367909 
L 51.075513 125.886435 
L 52.187693 159.821725 
L 54.968144 252.041748 
L 55.802279 272.63637 
L 56.636414 287.91837 
L 57.192504 295.218448 
L 57.748595 300.435423 
L 58.304685 303.845905 
L 58.860775 305.754102 
L 59.13882 306.238949 
L 59.416865 306.458003 
L 59.69491 306.443817 
L 59.972955 306.226479 
L 60.529045 305.287523 
L 61.085135 303.829289 
L 61.919271 300.996614 
L 64.699721 290.910146 
L 65.255812 289.623385 
L 65.811902 288.793421 
L 66.367992 288.455592 
L 66.646037 288.470589 
L 67.202127 288.842654 
L 67.758217 289.606671 
L 68.592352 291.255521 
L 70.538668 295.419526 
L 71.372803 296.686562 
L 72.206938 297.54519 
L 73.041074 298.074477 
L 73.875209 298.359413 
L 74.709344 298.423707 
L 75.543479 298.216637 
L 76.09957 297.885384 
L 76.933705 297.049201 
L 77.76784 295.805746 
L 78.88002 293.662105 
L 81.938516 287.414899 
L 83.328741 285.183967 
L 84.162877 284.190498 
L 84.718967 283.770528 
L 85.275057 283.626813 
L 85.831147 283.834077 
L 86.387237 284.452404 
L 86.943327 285.508289 
L 87.777463 287.833152 
L 89.445733 293.176091 
L 90.001823 294.113817 
L 90.279868 294.213546 
L 90.557913 293.999642 
L 90.835958 293.422289 
L 91.114004 292.434456 
L 91.670094 289.059829 
L 92.226184 283.59899 
L 92.782274 275.892546 
L 93.616409 260.130266 
L 94.450544 239.91234 
L 95.84077 200.044968 
L 97.787085 145.007082 
L 98.899266 119.931647 
L 99.733401 105.014845 
L 100.567536 93.098338 
L 101.401671 83.642181 
L 102.235807 76.197837 
L 103.069942 70.602191 
L 103.626032 67.959159 
L 104.182122 66.286082 
L 104.460167 65.842078 
L 104.738212 65.672095 
L 105.016257 65.781898 
L 105.294302 66.172133 
L 105.850393 67.776544 
L 106.406483 70.396125 
L 107.240618 75.839409 
L 111.133249 104.393992 
L 112.801519 115.145429 
L 113.9137 124.180255 
L 115.02588 135.240239 
L 116.69415 154.64472 
L 119.752646 193.783024 
L 121.420917 213.90148 
L 122.533097 224.988607 
L 123.645277 233.662835 
L 124.757458 240.315565 
L 128.372044 259.842933 
L 131.98663 283.259898 
L 132.54272 285.477097 
L 133.09881 286.811472 
L 133.376855 287.090804 
L 133.6549 287.083289 
L 133.932945 286.769818 
L 134.21099 286.133417 
L 134.76708 283.83479 
L 135.32317 280.103031 
L 135.879261 274.907013 
L 136.713396 264.456869 
L 137.825576 246.288394 
L 141.996252 171.566598 
L 142.830387 161.646227 
L 143.664523 153.895408 
L 144.498658 147.834542 
L 145.888883 139.765783 
L 147.279109 131.771293 
L 148.391289 123.976975 
L 149.503469 114.320518 
L 150.893695 99.736427 
L 154.230236 62.718313 
L 155.342416 53.499641 
L 156.176551 48.331673 
L 157.010686 44.688824 
L 157.566776 43.05293 
L 158.122867 41.982179 
L 158.678957 41.399222 
L 159.235047 41.214663 
L 159.791137 41.330685 
L 160.625272 41.840246 
L 161.737453 42.584505 
L 162.293543 42.755525 
L 162.849633 42.676752 
L 163.405723 42.286451 
L 163.961813 41.553334 
L 164.517903 40.482194 
L 165.352038 38.354878 
L 167.020309 33.700552 
L 167.576399 32.648651 
L 168.132489 32.158719 
L 168.410534 32.178541 
L 168.688579 32.399636 
L 168.966624 32.83755 
L 169.522715 34.41132 
L 170.078805 36.960549 
L 170.634895 40.491846 
L 171.46903 47.511685 
L 172.58121 59.487532 
L 174.527526 84.00631 
L 176.195796 104.180412 
L 177.586022 118.147148 
L 178.698202 127.078585 
L 179.810382 134.267824 
L 181.200608 141.602754 
L 183.424968 151.75546 
L 185.093239 158.606093 
L 186.205419 162.372769 
L 187.039554 164.55748 
L 187.87369 166.111751 
L 188.42978 166.791424 
L 188.98587 167.195815 
L 189.54196 167.340501 
L 190.09805 167.243622 
L 190.65414 166.922766 
L 191.488276 166.060898 
L 192.322411 164.804325 
L 193.712636 162.131139 
L 195.102861 159.445838 
L 195.936997 158.218707 
L 196.771132 157.429523 
L 197.605267 157.043563 
L 201.497898 156.195946 
L 202.053988 156.540285 
L 202.610079 157.466188 
L 203.166169 159.204305 
L 203.722259 161.956556 
L 204.278349 165.861214 
L 205.112484 173.949569 
L 206.224664 188.25585 
L 208.72707 222.633977 
L 209.561205 230.350074 
L 210.117296 233.758029 
L 210.673386 235.730974 
L 210.951431 236.195059 
L 211.229476 236.327276 
L 211.507521 236.143106 
L 211.785566 235.65855 
L 212.341656 233.852187 
L 212.897746 231.016176 
L 213.731881 224.961238 
L 214.566017 216.748083 
L 215.400152 206.281258 
L 216.512332 188.931507 
L 220.126918 127.225701 
L 220.961053 118.032616 
L 221.795189 111.599103 
L 222.629324 107.311173 
L 223.741504 103.269344 
L 224.575639 100.195978 
L 225.409775 96.198523 
L 226.24391 90.81082 
L 227.078045 83.9048 
L 228.190225 72.696858 
L 230.692631 45.938628 
L 231.526766 39.306175 
L 232.082856 36.102601 
L 232.638947 33.974313 
L 233.195037 32.907448 
L 233.473082 32.74174 
L 233.751127 32.793694 
L 234.029172 33.035777 
L 234.585262 33.962263 
L 236.253533 37.616513 
L 236.809623 38.196361 
L 237.087668 38.249739 
L 237.365713 38.12886 
L 237.643758 37.827502 
L 238.199848 36.694691 
L 238.755938 34.927812 
L 239.590073 31.449959 
L 240.980299 25.379862 
L 241.536389 23.556689 
L 242.092479 22.368814 
L 242.370524 22.050614 
L 242.648569 21.927273 
L 242.926614 22.001187 
L 243.204659 22.270154 
L 243.76075 23.362283 
L 244.31684 25.103574 
L 245.150975 28.598271 
L 248.209471 42.531061 
L 250.711876 52.409067 
L 251.546012 56.798118 
L 252.380147 62.197546 
L 253.492327 71.189941 
L 254.604507 82.573567 
L 255.438643 93.127165 
L 256.272778 105.930513 
L 257.384958 127.197262 
L 258.497139 153.149982 
L 261.277589 220.981986 
L 262.111724 235.189995 
L 262.667815 241.968787 
L 263.223905 246.581103 
L 263.779995 249.220021 
L 264.05804 249.899403 
L 264.336085 250.218737 
L 264.61413 250.232211 
L 264.892175 249.996347 
L 265.448265 248.998116 
L 267.116536 245.163259 
L 267.672626 244.462046 
L 268.228716 244.249114 
L 268.506761 244.329927 
L 269.062851 244.844606 
L 269.618942 245.777667 
L 270.453077 247.784622 
L 271.843302 252.042688 
L 276.570068 267.593137 
L 277.682249 272.873498 
L 279.628564 282.810615 
L 280.184654 284.19147 
L 280.462699 284.297353 
L 280.740744 283.905271 
L 281.01879 282.934961 
L 281.296835 281.309173 
L 281.852925 275.81996 
L 282.409015 267.006811 
L 282.965105 254.673864 
L 283.79924 229.877729 
L 284.911421 187.983417 
L 286.857736 111.654943 
L 287.691871 86.222051 
L 288.526007 68.133548 
L 289.082097 60.414471 
L 289.638187 56.032222 
L 289.916232 55.00416 
L 290.194277 54.689912 
L 290.472322 55.036032 
L 290.750367 55.986487 
L 291.306457 59.461684 
L 291.862547 64.628746 
L 292.974728 78.088836 
L 294.642998 99.270658 
L 295.477133 107.498064 
L 296.033224 111.4939 
L 296.589314 114.151766 
L 297.145404 115.462009 
L 297.423449 115.636268 
L 297.701494 115.514935 
L 297.979539 115.122885 
L 298.535629 113.647776 
L 299.369764 110.229196 
L 301.31608 101.474738 
L 302.150215 99.002468 
L 302.706305 97.966179 
L 303.262396 97.372534 
L 303.818486 97.131616 
L 304.374576 97.131228 
L 306.598936 97.465493 
L 307.155027 97.26759 
L 307.711117 96.865435 
L 308.267207 96.21854 
L 308.823297 95.275146 
L 309.379387 93.968659 
L 309.935477 92.218817 
L 310.769613 88.578301 
L 311.603748 83.513787 
L 312.437883 76.957709 
L 313.550063 66.300139 
L 315.774424 44.403532 
L 316.608559 38.695881 
L 317.164649 36.22808 
L 317.720739 34.91952 
L 317.998785 34.691883 
L 318.27683 34.731982 
L 318.554875 35.019346 
L 319.110965 36.228792 
L 319.9451 39.14092 
L 321.891416 46.559093 
L 324.115776 53.53229 
L 324.671866 56.551241 
L 325.227956 60.833469 
L 325.784047 66.72283 
L 326.340137 74.479414 
L 327.174272 89.909663 
L 328.008407 109.848677 
L 329.120587 142.387177 
L 333.291264 274.147012 
L 334.125399 291.859985 
L 334.959534 304.611866 
L 335.515624 310.383358 
L 336.071714 314.131151 
L 336.627805 316.073487 
L 336.90585 316.448597 
L 337.183895 316.472727 
L 337.46194 316.181638 
L 338.01803 314.794726 
L 338.57412 312.56279 
L 339.408255 308.182873 
L 341.910661 293.956369 
L 342.744796 290.424975 
L 343.578931 287.848991 
L 344.413067 286.157224 
L 345.247202 285.142507 
L 346.081337 284.54951 
L 347.193517 284.059577 
L 348.583743 283.648223 
L 349.973968 283.486078 
L 351.642239 283.340258 
L 352.198329 283.090498 
L 352.754419 282.625992 
L 353.310509 281.885554 
L 353.866599 280.827241 
L 354.700734 278.617945 
L 355.53487 275.737883 
L 357.20314 268.854892 
L 358.87141 262.273648 
L 359.983591 258.780571 
L 360.817726 256.723574 
L 361.651861 255.151974 
L 362.485996 254.099329 
L 363.042087 253.733806 
L 363.598177 253.692703 
L 364.154267 254.033739 
L 364.710357 254.81285 
L 365.266447 256.066929 
L 366.100582 258.823067 
L 367.490808 264.871657 
L 368.324943 268.066323 
L 368.881033 269.263299 
L 369.159078 269.422496 
L 369.437123 269.216949 
L 369.715168 268.596355 
L 369.993213 267.513101 
L 370.549304 263.798314 
L 371.105394 257.826229 
L 371.661484 249.493782 
L 372.495619 232.7449 
L 373.607799 204.032252 
L 376.94434 110.435456 
L 378.056521 86.514793 
L 379.168701 67.72323 
L 380.002836 56.970174 
L 380.836971 49.183467 
L 381.393062 45.720384 
L 381.949152 43.669897 
L 382.227197 43.166101 
L 382.505242 42.996701 
L 382.783287 43.143558 
L 383.061332 43.585035 
L 383.617422 45.233302 
L 384.451557 49.068482 
L 386.119828 57.606186 
L 386.953963 60.589702 
L 387.510053 61.890358 
L 388.066143 62.739561 
L 389.734414 64.603093 
L 390.290504 65.754496 
L 390.846594 67.464563 
L 391.402684 69.805459 
L 392.236819 74.459656 
L 393.349 82.236581 
L 395.851405 100.428862 
L 397.241631 108.739511 
L 399.187946 120.155981 
L 400.022082 126.266371 
L 400.856217 133.695103 
L 401.968397 145.807247 
L 403.636668 167.153934 
L 405.582983 191.439504 
L 407.251253 209.051129 
L 409.753659 232.732138 
L 410.865839 241.856393 
L 411.699975 247.052023 
L 412.256065 249.331702 
L 412.53411 250.042762 
L 412.812155 250.440382 
L 413.0902 250.508434 
L 413.368245 250.234316 
L 413.64629 249.610224 
L 414.20238 247.305119 
L 414.75847 243.634415 
L 415.592606 235.883013 
L 416.704786 222.73267 
L 418.373056 202.782513 
L 419.207192 195.175636 
L 419.763282 191.441707 
L 420.319372 188.80483 
L 420.875462 187.168159 
L 421.431552 186.352997 
L 421.987642 186.132518 
L 422.543733 186.266095 
L 423.933958 186.787089 
L 424.490048 186.683603 
L 425.046138 186.274257 
L 425.602228 185.517041 
L 426.158319 184.382838 
L 426.436364 183.666822 
L 426.436364 183.666822 
" clip-path="url(#pffaa7a0c37)" style="fill: none; stroke-dasharray: 11.1,4.8; stroke-dashoffset: 0; stroke: #000000; stroke-width: 3"/>
   </g>
   <g id="line2d_2">
    <path d="M 27.163636 144.009597 
L 33.558673 149.783875 
L 39.119575 154.655701 
L 41.06589 156.873839 
L 43.290251 159.799927 
L 45.792656 163.506584 
L 48.851152 168.463368 
L 53.577918 176.558396 
L 56.358369 181.419954 
L 58.02664 183.930834 
L 59.416865 185.683656 
L 60.80709 187.138133 
L 61.919271 188.098143 
L 62.475361 188.268612 
L 63.031451 188.181871 
L 64.421676 187.654269 
L 66.089947 186.765193 
L 68.592352 185.098529 
L 71.372803 183.207466 
L 76.377615 180.315323 
L 81.104381 177.926813 
L 92.504229 172.808823 
L 98.899266 169.840984 
L 101.679716 168.223002 
L 104.738212 166.179317 
L 106.406483 164.867518 
L 108.352798 163.071747 
L 110.577159 160.696063 
L 113.079564 157.646763 
L 118.362421 150.957983 
L 120.030691 149.421268 
L 121.142872 148.673089 
L 121.977007 148.313883 
L 122.533097 148.243532 
L 123.367232 148.611257 
L 124.201367 149.240078 
L 125.035503 150.190079 
L 125.869638 151.535693 
L 126.703773 153.356437 
L 127.537908 155.729659 
L 128.372044 158.700154 
L 129.206179 162.440561 
L 130.040314 167.094952 
L 130.874449 172.798166 
L 131.98663 182.298697 
L 133.09881 194.339648 
L 134.76708 214.051608 
L 135.879261 221.456144 
L 136.991441 227.523974 
L 138.103621 232.330566 
L 139.215801 236.033206 
L 141.162117 241.343658 
L 141.440162 241.819177 
L 141.718207 241.732696 
L 141.996252 241.207782 
L 142.552342 239.268911 
L 143.108433 235.963697 
L 143.942568 229.052883 
L 145.610838 213.543019 
L 145.888883 211.728947 
L 146.166928 211.037775 
L 146.444973 209.745313 
L 147.001064 205.390142 
L 147.557154 198.750206 
L 148.391289 184.718852 
L 149.225424 166.196192 
L 149.781514 153.520039 
L 150.337604 148.054179 
L 150.893695 139.630975 
L 151.72783 122.632138 
L 154.786326 53.011134 
L 156.176551 25.860531 
L 156.454596 24.781487 
L 156.732641 24.253594 
L 157.010686 24.180262 
L 157.288731 24.451756 
L 158.400912 26.643529 
L 158.678957 26.575186 
L 158.957002 25.678952 
L 159.235047 25.789143 
L 159.513092 26.772506 
L 160.069182 30.868038 
L 160.903317 40.578069 
L 161.181362 44.332857 
L 161.459407 46.162832 
L 161.737453 45.78199 
L 162.293543 44.46773 
L 162.849633 42.998515 
L 163.405723 42.269544 
L 163.683768 42.159741 
L 163.961813 42.302063 
L 164.239858 42.900567 
L 165.073993 46.992666 
L 165.908129 50.024249 
L 166.464219 51.424149 
L 167.576399 53.471267 
L 168.966624 57.499493 
L 169.522715 58.685035 
L 170.078805 59.457279 
L 170.35685 59.658422 
L 170.91294 59.790768 
L 171.747075 61.034547 
L 172.859256 62.693244 
L 173.415346 63.125975 
L 173.693391 63.177799 
L 173.971436 63.097601 
L 174.249481 62.869122 
L 174.805571 62.072066 
L 175.361661 65.212674 
L 176.195796 71.662512 
L 177.586022 84.895872 
L 180.366473 112.167095 
L 181.478653 120.95187 
L 182.312788 126.078509 
L 185.927374 138.807327 
L 187.317599 142.91031 
L 188.42978 145.631854 
L 189.54196 147.772969 
L 190.376095 148.963693 
L 191.21023 149.764117 
L 191.766321 150.050413 
L 192.044366 150.121671 
L 192.878501 149.537872 
L 193.434591 149.363905 
L 193.990681 149.356423 
L 194.546771 149.509013 
L 195.380907 150.024177 
L 196.215042 150.862659 
L 197.049177 152.001883 
L 197.883312 153.558745 
L 199.551583 157.249531 
L 201.775943 162.835137 
L 203.444214 166.907575 
L 204.278349 166.506489 
L 205.112484 165.855157 
L 205.946619 164.946291 
L 207.0588 163.270687 
L 208.17098 161.20692 
L 209.561205 158.109585 
L 210.951431 154.322018 
L 212.619701 149.043535 
L 214.287972 143.437458 
L 215.678197 142.336584 
L 217.068422 141.52505 
L 218.458648 140.984524 
L 219.848873 140.601576 
L 220.961053 140.498382 
L 222.351279 140.615115 
L 223.741504 140.98229 
L 224.019549 141.083476 
L 224.297594 141.355261 
L 228.46827 148.144775 
L 230.692631 151.663277 
L 233.473082 156.594442 
L 235.141352 159.684553 
L 235.419397 159.826713 
L 239.312028 159.74752 
L 240.980299 159.620259 
L 242.648569 159.7585 
L 244.038795 160.083016 
L 245.42902 160.624578 
L 246.819245 161.425618 
L 248.209471 162.517099 
L 249.321651 163.617908 
L 249.599696 163.965648 
L 250.155786 165.384431 
L 252.102102 170.603673 
L 254.048417 175.147225 
L 255.994733 179.027104 
L 257.384958 181.341182 
L 259.053229 183.642076 
L 260.443454 185.213741 
L 261.833679 186.476339 
L 263.779995 187.763229 
L 266.004356 188.945727 
L 268.784806 190.117017 
L 271.843302 191.160755 
L 272.677437 191.396458 
L 277.960294 191.10404 
L 283.79924 191.434225 
L 287.135781 191.905857 
L 291.028412 192.537302 
L 295.477133 192.650958 
L 300.2039 192.535488 
L 303.818486 192.217579 
L 307.155027 191.71644 
L 311.047658 190.972115 
L 315.774424 190.315309 
L 323.559686 189.267166 
L 326.062092 188.23755 
L 330.510813 186.122023 
L 335.237579 183.897731 
L 338.01803 182.811659 
L 339.964345 182.239262 
L 342.744796 181.709198 
L 344.691112 181.169255 
L 346.359382 180.395164 
L 353.310509 176.671567 
L 358.31532 173.661783 
L 371.105394 165.926447 
L 372.217574 165.047153 
L 379.446746 158.023687 
L 382.227197 155.650433 
L 383.895467 154.474867 
L 386.119828 153.287478 
L 389.178324 152.224792 
L 393.349 150.977482 
L 397.241631 150.030104 
L 401.134262 149.084735 
L 402.524487 148.695341 
L 418.095011 142.529953 
L 421.987642 139.76792 
L 423.933958 137.992101 
L 425.046138 136.729503 
L 426.436364 134.903091 
L 426.436364 134.903091 
" clip-path="url(#pffaa7a0c37)" style="fill: none; stroke: #ff00ff; stroke-width: 3; stroke-linecap: square"/>
   </g>
   <g id="patch_3">
    <path d="M 7.2 331.2 
L 7.2 7.2 
" style="fill: none; stroke: #000000; stroke-width: 0.8; stroke-linejoin: miter; stroke-linecap: square"/>
   </g>
   <g id="patch_4">
    <path d="M 446.4 331.2 
L 446.4 7.2 
" style="fill: none; stroke: #000000; stroke-width: 0.8; stroke-linejoin: miter; stroke-linecap: square"/>
   </g>
   <g id="patch_5">
    <path d="M 7.2 331.2 
L 446.4 331.2 
" style="fill: none; stroke: #000000; stroke-width: 0.8; stroke-linejoin: miter; stroke-linecap: square"/>
   </g>
   <g id="patch_6">
    <path d="M 7.2 7.2 
L 446.4 7.2 
" style="fill: none; stroke: #000000; stroke-width: 0.8; stroke-linejoin: miter; stroke-linecap: square"/>
   </g>
  </g>
 </g>
 <defs>
  <clipPath id="pffaa7a0c37">
   <rect x="7.2" y="7.2" width="439.2" height="324"/>
  </clipPath>
 </defs>
</svg>
