<?xml version="1.0" encoding="utf-8" standalone="no"?>
<!DOCTYPE svg PUBLIC "-//W3C//DTD SVG 1.1//EN"
  "http://www.w3.org/Graphics/SVG/1.1/DTD/svg11.dtd">
<svg xmlns:xlink="http://www.w3.org/1999/xlink" width="453.6pt" height="338.4pt" viewBox="0 0 453.6 338.4" xmlns="http://www.w3.org/2000/svg" version="1.1">
 <metadata>
  <rdf:RDF xmlns:dc="http://purl.org/dc/elements/1.1/" xmlns:cc="http://creativecommons.org/ns#" xmlns:rdf="http://www.w3.org/1999/02/22-rdf-syntax-ns#">
   <cc:Work>
    <dc:type rdf:resource="http://purl.org/dc/dcmitype/StillImage"/>
    <dc:date>2025-05-15T17:21:27.119088</dc:date>
    <dc:format>image/svg+xml</dc:format>
    <dc:creator>
     <cc:Agent>
      <dc:title>Matplotlib v3.10.1, https://matplotlib.org/</dc:title>
     </cc:Agent>
    </dc:creator>
   </cc:Work>
  </rdf:RDF>
 </metadata>
 <defs>
  <style type="text/css">*{stroke-linejoin: round; stroke-linecap: butt}</style>
 </defs>
 <g id="figure_1">
  <g id="patch_1">
   <path d="M 0 338.4 
L 453.6 338.4 
L 453.6 0 
L 0 0 
z
" style="fill: #ffffff"/>
  </g>
  <g id="axes_1">
   <g id="patch_2">
    <path d="M 7.2 331.2 
L 446.4 331.2 
L 446.4 7.2 
L 7.2 7.2 
z
" style="fill: #ffffff"/>
   </g>
   <g id="matplotlib.axis_1"/>
   <g id="matplotlib.axis_2"/>
   <g id="line2d_1">
    <path d="M 27.163636 21.927273 
L 28.275817 32.419937 
L 29.387997 44.779851 
L 30.778222 63.184838 
L 32.168448 85.186579 
L 33.558673 111.041172 
L 34.948898 140.842232 
L 36.617169 181.234386 
L 40.231755 270.582114 
L 41.343935 291.791556 
L 42.17807 303.878203 
L 42.734161 309.810891 
L 43.290251 313.907493 
L 43.846341 316.098932 
L 44.124386 316.472727 
L 44.402431 316.36841 
L 44.680476 315.793308 
L 44.958521 314.758702 
L 45.514611 311.378074 
L 46.070701 306.401735 
L 46.904837 296.477133 
L 48.295062 275.907919 
L 50.241378 246.635977 
L 51.353558 232.691261 
L 52.465738 221.335779 
L 53.577918 212.182891 
L 54.690099 204.674622 
L 55.802279 198.443845 
L 56.914459 193.428315 
L 57.748595 190.54696 
L 58.58273 188.504011 
L 59.13882 187.630119 
L 59.69491 187.147108 
L 60.251 187.039951 
L 60.80709 187.280983 
L 61.363181 187.830273 
L 62.197316 189.117768 
L 63.587541 191.966231 
L 64.977767 194.717498 
L 65.811902 195.866714 
L 66.367992 196.309093 
L 66.924082 196.45396 
L 67.480172 196.291145 
L 68.036262 195.83378 
L 68.870398 194.679542 
L 70.260623 192.070959 
L 71.372803 190.142907 
L 71.928893 189.464435 
L 72.484984 189.063593 
L 73.041074 188.981012 
L 73.597164 189.235012 
L 74.153254 189.822958 
L 74.709344 190.723278 
L 75.543479 192.575378 
L 76.65566 195.718307 
L 80.270246 206.567765 
L 81.382426 209.103606 
L 82.772651 211.699263 
L 84.997012 215.299556 
L 86.109192 216.784776 
L 86.665282 217.278779 
L 87.221372 217.499146 
L 87.777463 217.362513 
L 88.333553 216.799432 
L 88.889643 215.765813 
L 89.445733 214.252723 
L 90.279868 211.165286 
L 91.392049 205.995092 
L 93.060319 198.096602 
L 93.894454 194.978826 
L 94.72859 192.722673 
L 95.28468 191.701857 
L 95.84077 191.022232 
L 96.39686 190.617932 
L 97.230995 190.351294 
L 98.899266 190.055345 
L 99.733401 189.596046 
L 100.567536 188.750971 
L 101.401671 187.464711 
L 102.235807 185.736894 
L 103.347987 182.843642 
L 106.128438 175.014477 
L 106.684528 173.962868 
L 107.240618 173.30251 
L 107.518663 173.147063 
L 107.796708 173.121375 
L 108.074753 173.233802 
L 108.630843 173.898483 
L 109.186933 175.174946 
L 109.743024 177.066771 
L 110.577159 180.990719 
L 111.689339 187.896017 
L 113.35761 200.286106 
L 115.58197 216.711993 
L 116.972195 225.388085 
L 118.084376 231.147378 
L 119.196556 235.867618 
L 120.308736 239.658267 
L 121.420917 242.656577 
L 122.533097 244.948545 
L 123.367232 246.199979 
L 124.201367 247.008456 
L 124.757458 247.27674 
L 125.313548 247.313708 
L 125.869638 247.113843 
L 126.425728 246.68052 
L 127.259863 245.626606 
L 128.093998 244.174484 
L 129.762269 240.668133 
L 131.152494 237.969312 
L 131.98663 236.791362 
L 132.54272 236.268954 
L 133.09881 235.987208 
L 133.6549 235.962014 
L 134.21099 236.201852 
L 134.76708 236.707835 
L 135.32317 237.476668 
L 136.157306 239.106013 
L 136.991441 241.278474 
L 138.103621 244.96283 
L 139.215801 249.470196 
L 140.606027 256.076169 
L 144.776703 276.852823 
L 145.610838 279.673992 
L 146.166928 281.04168 
L 146.723018 281.933356 
L 147.279109 282.291508 
L 147.557154 282.250999 
L 147.835199 282.051999 
L 148.391289 281.133771 
L 148.947379 279.430736 
L 149.503469 276.806181 
L 150.059559 273.090002 
L 150.61565 268.085999 
L 151.449785 257.711813 
L 152.28392 243.357568 
L 153.118055 224.725586 
L 154.230236 193.827016 
L 157.288731 102.812935 
L 158.122867 87.350394 
L 158.678957 81.240853 
L 158.957002 79.543665 
L 159.235047 78.76314 
L 159.513092 78.891828 
L 159.791137 79.908527 
L 160.069182 81.779728 
L 160.625272 87.896679 
L 161.181362 96.771237 
L 162.015498 113.952126 
L 165.352038 189.271033 
L 166.186174 201.859135 
L 167.020309 210.587385 
L 167.576399 214.349836 
L 168.132489 216.638057 
L 168.410534 217.291541 
L 168.688579 217.655457 
L 168.966624 217.759362 
L 169.24467 217.633391 
L 169.80076 216.8103 
L 170.35685 215.41293 
L 171.46903 211.665094 
L 173.971436 202.744635 
L 175.361661 198.591881 
L 176.473841 195.866508 
L 177.307977 194.299489 
L 178.142112 193.264059 
L 178.698202 192.914881 
L 179.254292 192.855601 
L 179.810382 193.083336 
L 180.366473 193.579068 
L 181.200608 194.743063 
L 182.312788 196.79898 
L 184.259104 200.482431 
L 185.371284 202.124003 
L 188.707825 206.452004 
L 189.820005 208.637597 
L 191.488276 212.608352 
L 193.156546 216.396943 
L 194.268726 218.336893 
L 195.102861 219.393112 
L 195.936997 220.060634 
L 196.493087 220.244609 
L 197.049177 220.163716 
L 197.605267 219.752088 
L 198.161357 218.9362 
L 198.717447 217.644712 
L 199.273538 215.823817 
L 200.107673 212.059885 
L 200.941808 207.16485 
L 202.610079 195.487443 
L 204.000304 186.396759 
L 204.834439 182.211277 
L 205.668574 179.278958 
L 206.224664 178.044856 
L 206.780755 177.368525 
L 207.0588 177.230327 
L 207.336845 177.220365 
L 207.61489 177.33485 
L 208.17098 177.924649 
L 208.72707 178.981568 
L 209.28316 180.494164 
L 210.117296 183.59251 
L 210.951431 187.597762 
L 214.009927 203.823167 
L 214.566017 205.408793 
L 215.122107 206.164412 
L 215.400152 206.222745 
L 215.678197 206.078085 
L 216.234287 205.255817 
L 217.068422 203.152105 
L 217.902558 201.007885 
L 218.458648 200.170138 
L 218.736693 200.053101 
L 219.014738 200.181006 
L 219.292783 200.576909 
L 219.848873 202.225767 
L 220.404963 205.019972 
L 221.239099 211.091515 
L 222.351279 221.444418 
L 224.575639 242.508665 
L 225.965865 253.36401 
L 227.35609 262.366268 
L 228.190225 266.453525 
L 228.746316 268.258324 
L 229.024361 268.7923 
L 229.302406 269.036996 
L 229.580451 268.959725 
L 229.858496 268.529902 
L 230.136541 267.719284 
L 230.692631 264.862424 
L 231.248721 260.251358 
L 231.804811 253.840311 
L 232.638947 241.003149 
L 233.751127 218.989141 
L 236.531578 159.311522 
L 237.365713 147.057325 
L 237.921803 141.823034 
L 238.199848 140.209043 
L 238.477893 139.298225 
L 238.755938 139.104082 
L 239.033983 139.629166 
L 239.312028 140.86405 
L 239.868119 145.369316 
L 240.424209 152.319033 
L 241.258344 166.278857 
L 244.038795 218.215574 
L 244.87293 228.566665 
L 245.42902 233.31177 
L 245.98511 236.369319 
L 246.5412 237.888337 
L 246.819245 238.13822 
L 247.09729 238.089849 
L 247.375336 237.777475 
L 247.931426 236.500683 
L 248.765561 233.475573 
L 250.989921 224.57121 
L 251.824057 222.466758 
L 252.380147 221.609498 
L 252.936237 221.150322 
L 253.492327 221.008461 
L 254.326462 221.141883 
L 255.160598 221.309844 
L 255.716688 221.245459 
L 256.272778 220.9386 
L 256.828868 220.342792 
L 257.384958 219.450334 
L 258.219093 217.62981 
L 261.277589 210.188231 
L 261.833679 209.457642 
L 262.38977 209.067338 
L 262.94586 209.038439 
L 263.50195 209.374361 
L 264.05804 210.065512 
L 264.61413 211.092709 
L 265.448265 213.210459 
L 266.282401 215.943283 
L 267.394581 220.398943 
L 268.784806 226.964243 
L 271.565257 240.45777 
L 272.399392 243.533968 
L 273.233527 245.759493 
L 273.789618 246.719505 
L 274.345708 247.257515 
L 274.901798 247.393737 
L 275.457888 247.163284 
L 276.013978 246.613047 
L 276.848113 245.305915 
L 277.960294 242.981467 
L 279.628564 239.412172 
L 280.184654 238.546308 
L 280.740744 238.007886 
L 281.296835 237.899864 
L 281.57488 238.038473 
L 282.13097 238.758153 
L 282.68706 240.134157 
L 283.24315 242.229059 
L 283.79924 245.07925 
L 284.633376 250.770453 
L 285.467511 258.005003 
L 287.135781 275.219978 
L 288.247962 286.103729 
L 289.082097 292.134106 
L 289.638187 294.492188 
L 289.916232 295.051029 
L 290.194277 295.148677 
L 290.472322 294.753639 
L 290.750367 293.838869 
L 291.306457 290.367016 
L 291.862547 284.628595 
L 292.418638 276.62801 
L 293.252773 260.706665 
L 294.364953 233.912354 
L 296.589314 178.461753 
L 297.423449 163.891423 
L 297.979539 157.493632 
L 298.535629 154.010952 
L 298.813674 153.368048 
L 299.091719 153.434203 
L 299.369764 154.177019 
L 299.64781 155.552653 
L 300.2039 159.984312 
L 301.038035 169.838643 
L 304.096531 210.844143 
L 304.930666 217.63689 
L 305.486756 220.632236 
L 306.042846 222.463094 
L 306.320891 222.976033 
L 306.598936 223.244277 
L 306.876982 223.286679 
L 307.155027 223.124358 
L 307.711117 222.268951 
L 308.267207 220.846881 
L 309.101342 217.998171 
L 313.828108 200.142021 
L 315.496379 195.241018 
L 316.608559 192.560475 
L 317.720739 190.503406 
L 318.554875 189.39124 
L 319.667055 188.356222 
L 321.61337 186.740873 
L 322.447506 185.65913 
L 323.281641 184.165553 
L 324.393821 181.558041 
L 326.340137 176.684536 
L 326.896227 175.758816 
L 327.452317 175.283667 
L 327.730362 175.252422 
L 328.008407 175.374564 
L 328.286452 175.658739 
L 328.842542 176.73192 
L 329.398633 178.472045 
L 330.232768 182.178632 
L 331.622993 190.021464 
L 332.735173 196.069173 
L 333.569309 199.662056 
L 334.403444 202.274632 
L 335.237579 204.126073 
L 336.90585 207.402219 
L 337.739985 209.665823 
L 338.852165 213.601339 
L 341.632616 224.169339 
L 343.300886 229.002211 
L 344.413067 232.472212 
L 345.525247 236.855253 
L 348.583743 250.041469 
L 349.139833 251.287427 
L 349.417878 251.652701 
L 349.695923 251.832271 
L 349.973968 251.819221 
L 350.252013 251.609723 
L 350.808103 250.598252 
L 351.364193 248.81626 
L 351.920284 246.31397 
L 352.754419 241.376986 
L 353.866599 233.109599 
L 356.369005 213.203172 
L 357.20314 208.661391 
L 357.75923 206.892202 
L 358.037275 206.451633 
L 358.31532 206.324798 
L 358.593365 206.517459 
L 358.87141 207.027888 
L 359.427501 208.958493 
L 359.983591 211.952563 
L 360.817726 217.811562 
L 362.207951 228.057595 
L 363.042087 232.455786 
L 363.598177 234.126463 
L 363.876222 234.544266 
L 364.154267 234.683493 
L 364.432312 234.552253 
L 364.710357 234.164995 
L 365.266447 232.701553 
L 365.822537 230.485002 
L 366.934718 224.674951 
L 368.881033 214.080233 
L 369.715168 210.538314 
L 370.549304 208.008525 
L 371.105394 206.986886 
L 371.661484 206.552904 
L 371.939529 206.566571 
L 372.217574 206.736797 
L 372.773664 207.547703 
L 373.329754 208.971008 
L 373.885845 210.967068 
L 374.71998 214.893692 
L 375.83216 221.408562 
L 378.334566 236.917251 
L 379.168701 240.532859 
L 379.724791 241.946407 
L 380.002836 242.274219 
L 380.280881 242.315386 
L 380.558926 242.047513 
L 380.836971 241.450757 
L 381.393062 239.213335 
L 381.949152 235.540917 
L 382.505242 230.471129 
L 383.339377 220.607454 
L 386.397873 179.840557 
L 386.953963 175.186925 
L 387.510053 172.072689 
L 388.066143 170.534034 
L 388.344188 170.333593 
L 388.622233 170.488092 
L 388.900279 170.972339 
L 389.456369 172.80863 
L 390.012459 175.576076 
L 391.124639 182.779298 
L 393.070955 195.893019 
L 394.183135 201.753706 
L 395.01727 205.068919 
L 395.851405 207.491469 
L 396.685541 209.138186 
L 397.519676 210.168512 
L 398.353811 210.75267 
L 399.187946 211.0289 
L 400.022082 211.064057 
L 400.856217 210.830599 
L 401.412307 210.473312 
L 401.968397 209.906073 
L 402.524487 209.091297 
L 403.358622 207.369491 
L 404.470803 204.295063 
L 405.861028 200.290099 
L 406.417118 199.109843 
L 406.973208 198.402472 
L 407.251253 198.264975 
L 407.529299 198.286834 
L 407.807344 198.475379 
L 408.363434 199.360961 
L 408.919524 200.901139 
L 409.753659 204.243646 
L 411.42193 212.696655 
L 412.53411 217.685179 
L 413.368245 220.251113 
L 413.924335 221.24937 
L 414.480425 221.646466 
L 414.75847 221.623083 
L 415.036516 221.457674 
L 415.592606 220.730461 
L 416.148696 219.539584 
L 416.982831 217.103449 
L 419.485237 209.066103 
L 420.041327 207.952415 
L 420.597417 207.315068 
L 420.875462 207.197701 
L 421.153507 207.223307 
L 421.431552 207.396661 
L 421.987642 208.198634 
L 422.543733 209.612553 
L 423.099823 211.629855 
L 423.933958 215.740042 
L 424.768093 221.078609 
L 425.880273 230.034472 
L 426.436364 235.323679 
L 426.436364 235.323679 
" clip-path="url(#p2a339097e9)" style="fill: none; stroke-dasharray: 11.1,4.8; stroke-dashoffset: 0; stroke: #000000; stroke-width: 3"/>
   </g>
   <g id="line2d_2">
    <path d="M 27.163636 177.463538 
L 27.719727 179.963152 
L 27.997772 180.818683 
L 28.275817 181.157322 
L 29.109952 180.195951 
L 29.387997 180.216946 
L 29.666042 180.113164 
L 29.944087 180.527056 
L 30.222132 181.287615 
L 30.500177 180.855033 
L 31.056267 181.411651 
L 31.612358 182.658144 
L 32.446493 186.823742 
L 33.280628 189.83539 
L 33.836718 192.122459 
L 34.670853 195.710485 
L 34.948898 195.786479 
L 35.504989 196.336099 
L 35.783034 196.56367 
L 36.061079 193.204326 
L 36.339124 194.119055 
L 36.895214 194.956184 
L 37.173259 195.201003 
L 37.451304 196.32169 
L 37.729349 198.50152 
L 38.563484 207.766052 
L 38.84153 208.90971 
L 39.119575 208.651388 
L 39.39762 208.580251 
L 39.675665 208.298875 
L 39.95371 208.414595 
L 40.231755 208.683827 
L 40.5098 205.484334 
L 41.06589 205.871098 
L 41.343935 205.86447 
L 41.62198 204.713031 
L 41.900025 204.894371 
L 42.17807 205.289121 
L 42.456115 206.009871 
L 42.734161 205.218273 
L 43.568296 206.561549 
L 43.846341 205.876984 
L 44.402431 205.601454 
L 44.680476 205.718574 
L 44.958521 203.323606 
L 45.792656 205.646614 
L 46.348747 206.822959 
L 47.182882 208.972572 
L 47.738972 209.908584 
L 48.017017 209.856137 
L 48.573107 208.551187 
L 49.129197 207.810183 
L 49.407242 209.515852 
L 49.963332 209.770963 
L 50.241378 209.720492 
L 51.909648 208.620677 
L 52.187693 208.371411 
L 52.465738 207.97131 
L 52.743783 207.979255 
L 53.021828 207.725955 
L 53.299873 207.969746 
L 53.855964 209.254689 
L 54.134009 209.690358 
L 54.968144 212.813774 
L 55.246189 213.4659 
L 55.524234 213.569311 
L 56.080324 213.186994 
L 56.358369 212.809905 
L 56.914459 211.658837 
L 57.192504 211.865042 
L 57.47055 211.753397 
L 57.748595 211.847628 
L 58.02664 212.075322 
L 58.304685 215.626504 
L 58.860775 216.285998 
L 59.416865 216.452642 
L 59.69491 216.278835 
L 60.251 215.27782 
L 60.529045 215.307131 
L 61.085135 213.933103 
L 61.363181 213.097414 
L 61.641226 212.946579 
L 62.197316 211.841741 
L 62.475361 211.752903 
L 62.753406 213.034264 
L 63.587541 211.620304 
L 64.421676 209.454307 
L 64.977767 207.976415 
L 65.533857 207.055429 
L 65.811902 206.831439 
L 66.089947 207.024224 
L 66.367992 207.547373 
L 67.202127 210.686639 
L 67.758217 213.021914 
L 68.036262 213.33079 
L 68.592352 212.321418 
L 68.870398 212.087014 
L 69.148443 212.198782 
L 69.426488 211.903944 
L 69.704533 212.096853 
L 70.538668 213.498668 
L 71.094758 215.959297 
L 71.928893 220.18327 
L 72.206938 220.739517 
L 72.484984 220.988618 
L 72.763029 221.014718 
L 73.041074 220.905296 
L 73.597164 219.643654 
L 74.153254 220.652038 
L 74.987389 221.088325 
L 75.265434 221.046746 
L 76.09957 220.298784 
L 76.377615 220.263422 
L 76.933705 220.689294 
L 77.76784 222.058793 
L 78.045885 222.323291 
L 78.32393 222.744058 
L 78.601975 222.734466 
L 79.158065 222.00717 
L 79.992201 220.964577 
L 80.270246 220.942758 
L 80.548291 222.320162 
L 80.826336 222.772216 
L 81.660471 223.309691 
L 81.938516 223.377329 
L 82.494606 223.153298 
L 82.772651 223.719673 
L 83.328741 225.715486 
L 83.606787 227.056786 
L 83.884832 227.268055 
L 84.162877 227.190167 
L 84.718967 224.59484 
L 84.997012 225.484745 
L 85.275057 225.239473 
L 85.553102 224.692118 
L 85.831147 224.436306 
L 86.109192 224.724392 
L 86.387237 225.626359 
L 87.221372 230.353721 
L 87.499418 231.168167 
L 87.777463 231.29772 
L 88.055508 230.649011 
L 88.333553 228.932351 
L 88.611598 225.466508 
L 89.167688 215.703321 
L 89.445733 219.76028 
L 90.001823 216.041796 
L 90.279868 215.333478 
L 90.557913 216.247342 
L 90.835958 216.47586 
L 91.114004 217.202538 
L 91.392049 218.462781 
L 91.670094 221.919155 
L 92.504229 225.968415 
L 92.782274 226.660802 
L 93.894454 230.477387 
L 94.72859 229.223031 
L 95.006635 229.372878 
L 95.28468 229.245631 
L 95.562725 229.379588 
L 95.84077 229.702708 
L 96.118815 231.219544 
L 96.95295 232.822213 
L 97.230995 232.792161 
L 97.50904 232.995073 
L 97.787085 232.936657 
L 98.06513 232.619836 
L 98.621221 231.59054 
L 99.455356 231.447979 
L 100.289491 231.281459 
L 100.567536 231.788553 
L 101.401671 231.28397 
L 102.235807 229.447473 
L 102.513852 228.813337 
L 102.791897 227.050611 
L 103.347987 225.850843 
L 103.904077 225.503641 
L 104.738212 226.662778 
L 105.016257 226.486995 
L 105.572347 227.060944 
L 106.406483 227.567956 
L 107.240618 227.448819 
L 107.518663 227.676184 
L 108.352798 228.882704 
L 108.630843 229.108463 
L 109.186933 229.271937 
L 109.464978 227.754401 
L 109.743024 227.501965 
L 110.299114 226.660514 
L 110.577159 226.744082 
L 111.411294 230.750653 
L 111.689339 229.616216 
L 111.967384 230.016852 
L 112.245429 229.777384 
L 112.523474 229.093931 
L 113.35761 228.094604 
L 113.635655 228.046933 
L 113.9137 229.043378 
L 115.303925 229.395932 
L 115.58197 229.255305 
L 115.860015 229.27593 
L 116.13806 229.943904 
L 116.69415 229.791999 
L 117.250241 229.373949 
L 118.362421 228.73405 
L 118.918511 227.172959 
L 119.196556 226.935138 
L 119.474601 225.992375 
L 119.752646 223.915051 
L 120.864827 211.74714 
L 121.142872 211.062287 
L 121.420917 211.721081 
L 121.698962 212.995197 
L 121.977007 213.430867 
L 122.533097 207.30914 
L 123.367232 204.080625 
L 123.645277 203.87265 
L 123.923322 204.33162 
L 124.201367 205.47149 
L 124.757458 208.467495 
L 125.035503 209.229165 
L 125.591593 208.223169 
L 125.869638 208.37594 
L 126.425728 210.992509 
L 126.981818 215.458419 
L 127.259863 219.409085 
L 127.815953 222.873116 
L 128.372044 224.970488 
L 128.650089 225.404017 
L 129.206179 225.473507 
L 129.484224 226.614736 
L 129.762269 226.369216 
L 130.040314 226.335748 
L 130.318359 226.584725 
L 130.596404 226.649275 
L 131.708584 220.340404 
L 132.264675 215.53322 
L 132.54272 214.067266 
L 133.09881 212.393707 
L 133.376855 212.245794 
L 133.6549 212.728188 
L 133.932945 216.769462 
L 134.489035 217.205914 
L 134.76708 217.109954 
L 135.045125 216.7327 
L 135.879261 213.269575 
L 136.157306 213.313047 
L 136.435351 212.283627 
L 136.991441 211.835854 
L 137.269486 212.357357 
L 138.103621 212.12991 
L 138.381666 212.411985 
L 138.659711 211.857302 
L 138.937756 211.635001 
L 139.215801 211.694652 
L 139.493847 211.870229 
L 139.771892 211.171091 
L 140.327982 207.681866 
L 140.606027 207.884119 
L 141.162117 208.991262 
L 141.440162 209.060834 
L 142.552342 207.171725 
L 143.108433 207.275095 
L 143.386478 207.32149 
L 143.942568 206.975318 
L 144.498658 206.11847 
L 144.776703 205.919963 
L 145.888883 206.811803 
L 146.444973 207.632218 
L 147.001064 208.048992 
L 147.279109 208.437855 
L 147.557154 208.131202 
L 147.835199 207.414034 
L 148.391289 204.073503 
L 148.947379 195.547547 
L 149.503469 187.353148 
L 149.781514 183.643557 
L 150.059559 181.83497 
L 150.337604 180.836961 
L 150.61565 180.306772 
L 151.17174 180.240699 
L 151.449785 180.601239 
L 152.005875 183.231599 
L 152.561965 187.276949 
L 152.84001 188.253016 
L 153.118055 187.844476 
L 153.3961 187.163204 
L 153.674145 186.040089 
L 153.95219 184.129038 
L 154.230236 181.214214 
L 154.508281 180.018192 
L 154.786326 180.312865 
L 155.064371 180.772082 
L 155.342416 180.641789 
L 155.620461 179.857476 
L 155.898506 178.086805 
L 156.176551 177.449253 
L 156.454596 172.905208 
L 157.010686 161.226401 
L 157.288731 159.846156 
L 157.566776 159.331323 
L 157.844821 159.206381 
L 158.122867 159.435228 
L 158.678957 161.768692 
L 158.957002 163.725068 
L 159.235047 168.224571 
L 159.513092 176.280442 
L 160.069182 185.461158 
L 160.347227 187.703726 
L 160.625272 188.290519 
L 160.903317 187.627526 
L 161.459407 184.80047 
L 161.737453 184.654822 
L 162.015498 186.676694 
L 163.127678 203.597655 
L 163.405723 205.436704 
L 163.683768 206.014441 
L 163.961813 206.075615 
L 164.795948 204.588501 
L 165.073993 205.309457 
L 166.186174 202.495534 
L 166.464219 201.554705 
L 166.742264 201.375382 
L 167.298354 201.742797 
L 167.576399 201.348871 
L 168.132489 202.575274 
L 168.688579 203.865569 
L 169.24467 205.716475 
L 169.522715 207.264145 
L 170.078805 208.026474 
L 170.634895 208.325469 
L 171.190985 208.453828 
L 171.747075 208.686503 
L 172.303165 208.074145 
L 172.859256 206.703822 
L 173.415346 204.306096 
L 173.693391 203.472219 
L 173.971436 205.017131 
L 175.361661 201.315525 
L 175.917751 200.482101 
L 176.195796 200.463988 
L 176.751887 199.684492 
L 177.307977 199.22544 
L 177.586022 199.109884 
L 177.864067 199.213666 
L 178.142112 199.745131 
L 178.420157 202.100867 
L 178.976247 210.709898 
L 179.254292 215.688748 
L 179.532337 218.15934 
L 180.366473 220.489387 
L 180.644518 220.680649 
L 180.922563 220.143585 
L 182.034743 219.193123 
L 182.590833 218.339527 
L 182.868878 219.736074 
L 183.424968 219.284884 
L 183.981058 218.624279 
L 184.537149 217.363871 
L 184.815194 217.221557 
L 185.093239 217.736967 
L 185.371284 217.177179 
L 185.649329 216.889052 
L 185.927374 216.820468 
L 186.205419 217.025068 
L 186.761509 217.772823 
L 187.039554 218.308981 
L 187.317599 220.160669 
L 187.87369 220.550479 
L 188.42978 220.547062 
L 189.54196 219.751841 
L 190.09805 218.265468 
L 190.65414 217.309613 
L 190.932185 214.908635 
L 191.21023 213.833561 
L 191.488276 213.570999 
L 191.766321 218.203471 
L 192.044366 217.877634 
L 192.600456 215.910556 
L 192.878501 214.606429 
L 193.434591 210.633328 
L 193.712636 209.22756 
L 194.268726 208.411302 
L 194.546771 208.167223 
L 194.824816 207.147066 
L 195.102861 207.325195 
L 195.658952 208.042117 
L 195.936997 208.727917 
L 196.493087 213.184277 
L 196.771132 216.149941 
L 197.049177 217.848818 
L 197.327222 218.513746 
L 197.605267 218.743375 
L 198.161357 218.430177 
L 198.439402 218.063256 
L 198.717447 218.044237 
L 198.995493 217.828852 
L 199.551583 216.857312 
L 200.385718 216.514186 
L 201.219853 216.399989 
L 201.775943 215.95905 
L 202.332033 215.031395 
L 203.166169 212.591391 
L 203.444214 211.995994 
L 203.722259 211.786001 
L 204.278349 213.689642 
L 204.834439 217.023627 
L 205.112484 219.129232 
L 205.668574 220.160093 
L 205.946619 220.259635 
L 206.224664 220.226948 
L 206.50271 219.916344 
L 206.780755 219.842408 
L 207.0588 219.987068 
L 207.336845 220.330894 
L 207.61489 220.431465 
L 207.892935 220.668751 
L 208.17098 221.242248 
L 208.72707 222.911937 
L 209.005115 223.181292 
L 209.28316 222.877974 
L 209.83925 220.236416 
L 210.395341 219.003385 
L 210.673386 218.898903 
L 210.951431 219.182049 
L 211.507521 220.504825 
L 212.063611 222.430284 
L 212.341656 222.625044 
L 212.897746 222.443539 
L 213.453836 221.924754 
L 213.731881 221.816567 
L 214.009927 222.174184 
L 215.400152 221.236361 
L 216.234287 223.990674 
L 216.512332 223.115301 
L 217.346467 214.976273 
L 217.624513 214.557234 
L 218.458648 214.227199 
L 219.570828 214.504376 
L 220.126918 214.913122 
L 220.683008 215.184371 
L 221.239099 215.532808 
L 221.795189 215.720323 
L 222.629324 216.48364 
L 223.185414 217.34724 
L 223.463459 217.786162 
L 223.741504 217.870101 
L 224.575639 218.549972 
L 224.853684 218.407947 
L 225.13173 218.576072 
L 225.409775 219.048133 
L 225.68782 219.154797 
L 225.965865 218.985601 
L 226.24391 219.008613 
L 226.521955 219.275869 
L 226.8 219.183819 
L 228.46827 216.159327 
L 229.302406 213.42041 
L 229.580451 213.229478 
L 230.414586 213.171556 
L 230.970676 213.460466 
L 231.248721 214.119877 
L 231.526766 213.796388 
L 232.638947 209.847533 
L 232.916992 209.632436 
L 234.029172 209.779855 
L 234.307217 209.702338 
L 235.141352 209.108011 
L 235.697442 209.209117 
L 236.253533 209.495104 
L 237.087668 211.175249 
L 237.643758 212.316931 
L 238.199848 212.442778 
L 238.477893 212.71448 
L 238.755938 213.221245 
L 239.033983 213.39217 
L 239.312028 213.219351 
L 240.146164 211.868747 
L 240.702254 211.254372 
L 241.258344 210.964515 
L 241.536389 210.905729 
L 241.814434 210.960852 
L 242.648569 211.625368 
L 242.926614 212.314708 
L 243.482704 214.624995 
L 243.76075 215.932909 
L 244.31684 220.00477 
L 244.87293 224.974193 
L 245.707065 228.840343 
L 245.98511 229.360034 
L 246.263155 229.087633 
L 246.819245 229.302565 
L 247.09729 229.164903 
L 247.375336 228.668965 
L 247.653381 227.400612 
L 247.931426 224.702162 
L 248.487516 217.368317 
L 249.043606 213.49591 
L 249.321651 212.165437 
L 249.599696 211.526732 
L 250.433831 210.75053 
L 250.711876 211.465681 
L 251.546012 216.061515 
L 252.102102 218.510205 
L 252.380147 219.121616 
L 252.936237 219.577169 
L 253.214282 219.548847 
L 254.048417 221.699777 
L 254.604507 224.268057 
L 255.160598 226.815013 
L 255.438643 227.079675 
L 255.994733 226.282848 
L 256.272778 226.359872 
L 256.828868 228.566459 
L 257.106913 229.068655 
L 257.384958 229.324713 
L 257.663003 228.310689 
L 258.219093 227.795568 
L 258.497139 227.434493 
L 258.775184 225.518296 
L 259.331274 220.058081 
L 259.609319 218.772891 
L 260.165409 217.918843 
L 260.443454 217.672582 
L 260.721499 217.727952 
L 260.999544 218.542357 
L 261.277589 221.082808 
L 261.833679 229.69258 
L 262.111724 229.918916 
L 262.38977 229.134728 
L 262.667815 229.603166 
L 263.223905 231.50446 
L 263.779995 232.618848 
L 264.336085 233.453796 
L 264.61413 233.395915 
L 265.17022 231.726761 
L 266.004356 227.667662 
L 266.282401 227.110962 
L 266.838491 226.454597 
L 267.116536 225.826966 
L 267.394581 225.80877 
L 267.672626 225.154381 
L 267.950671 223.608934 
L 268.506761 217.406314 
L 268.784806 215.314912 
L 269.340896 213.622745 
L 269.618942 213.521598 
L 269.896987 213.970853 
L 270.731122 216.436257 
L 271.009167 216.531888 
L 271.287212 216.178923 
L 272.121347 213.541235 
L 272.399392 213.973611 
L 272.955482 215.506338 
L 273.233527 215.85885 
L 273.511573 215.770382 
L 274.345708 213.135535 
L 274.623753 212.865027 
L 274.901798 213.044433 
L 275.179843 213.582073 
L 275.457888 212.794961 
L 275.735933 212.649807 
L 276.013978 212.355463 
L 276.292023 211.563659 
L 276.570068 211.156683 
L 277.126159 211.770193 
L 277.404204 211.840753 
L 277.960294 210.719572 
L 278.238339 209.95642 
L 278.794429 206.996025 
L 279.628564 197.811768 
L 279.906609 197.941156 
L 280.184654 197.315995 
L 280.462699 197.025768 
L 280.740744 196.954632 
L 281.852925 197.604946 
L 282.68706 197.11086 
L 283.24315 196.985136 
L 284.077285 196.967599 
L 284.35533 196.387887 
L 284.911421 195.9022 
L 285.467511 195.474558 
L 286.023601 195.273169 
L 286.857736 195.502633 
L 287.135781 195.489872 
L 287.413826 195.631733 
L 287.691871 195.909857 
L 288.247962 197.167918 
L 288.526007 198.465663 
L 288.804052 198.672074 
L 289.360142 199.65724 
L 289.638187 199.919267 
L 289.916232 199.944132 
L 290.194277 199.655099 
L 290.750367 198.880091 
L 291.028412 198.654867 
L 291.584502 198.54668 
L 291.862547 198.639182 
L 292.140593 198.549273 
L 292.418638 197.707904 
L 292.696683 195.702787 
L 292.974728 191.860926 
L 293.252773 192.922991 
L 293.808863 188.995832 
L 294.364953 185.046031 
L 295.199088 177.745202 
L 295.477133 177.227405 
L 296.311269 173.886709 
L 296.867359 173.039988 
L 297.145404 173.276986 
L 297.423449 174.071343 
L 297.701494 176.979827 
L 297.979539 178.605508 
L 298.535629 185.918646 
L 299.64781 199.434362 
L 300.481945 204.070457 
L 301.038035 206.304174 
L 301.594125 207.531442 
L 301.87217 207.9392 
L 302.150215 206.184954 
L 302.42826 205.80663 
L 302.98435 203.762487 
L 303.540441 200.928351 
L 304.096531 197.745201 
L 304.374576 196.53193 
L 304.930666 195.563643 
L 305.208711 195.599499 
L 305.486756 195.485837 
L 306.042846 196.761682 
L 306.320891 197.897272 
L 306.598936 197.861045 
L 307.155027 199.933017 
L 307.433072 200.508901 
L 307.989162 200.937819 
L 308.545252 201.88614 
L 309.379387 204.357267 
L 309.935477 204.760579 
L 310.491567 204.710026 
L 310.769613 204.464589 
L 311.047658 206.670147 
L 311.325703 206.521864 
L 311.603748 206.736755 
L 312.159838 206.061989 
L 313.272018 203.342008 
L 313.550063 203.074094 
L 313.828108 203.005551 
L 314.106153 202.148003 
L 314.384199 202.075631 
L 314.940289 200.618981 
L 315.218334 200.071297 
L 315.496379 203.419608 
L 316.052469 204.522469 
L 316.330514 204.656056 
L 316.608559 204.924341 
L 316.886604 205.372196 
L 317.998785 208.240789 
L 318.27683 208.294923 
L 318.554875 208.649206 
L 318.83292 208.817825 
L 319.38901 210.073581 
L 319.667055 211.219956 
L 319.9451 210.402299 
L 320.223145 210.680999 
L 320.779235 208.793619 
L 321.05728 209.270867 
L 321.61337 211.033017 
L 321.891416 211.00453 
L 322.447506 210.651112 
L 322.725551 210.367472 
L 323.281641 208.625082 
L 324.115776 204.002614 
L 324.393821 203.702301 
L 324.671866 202.465153 
L 325.227956 201.048599 
L 326.062092 198.671868 
L 326.340137 198.108952 
L 326.618182 197.862774 
L 326.896227 198.07219 
L 327.174272 198.507077 
L 328.564497 204.664619 
L 328.842542 205.013426 
L 329.120587 206.211342 
L 329.954723 212.730823 
L 330.510813 214.330528 
L 330.788858 214.121442 
L 331.066903 213.711584 
L 331.622993 211.317604 
L 332.179083 206.664466 
L 332.735173 204.028713 
L 333.013219 203.339044 
L 333.291264 203.292402 
L 333.569309 202.784402 
L 333.847354 202.549792 
L 334.125399 202.586348 
L 334.681489 203.255516 
L 335.237579 204.581667 
L 335.793669 206.004108 
L 336.627805 206.568342 
L 337.46194 208.338107 
L 337.739985 205.834418 
L 338.01803 206.024444 
L 338.57412 206.06981 
L 338.852165 206.157413 
L 339.408255 205.793621 
L 339.964345 204.864772 
L 341.354571 202.269445 
L 341.632616 202.014993 
L 341.910661 202.020138 
L 342.188706 203.409275 
L 342.466751 205.562058 
L 343.022841 212.591555 
L 343.300886 214.323695 
L 343.578931 214.592103 
L 343.856976 214.276435 
L 344.691112 212.349412 
L 344.969157 211.468563 
L 345.525247 207.08548 
L 345.803292 206.212371 
L 346.081337 206.891667 
L 346.359382 208.20308 
L 346.637427 200.738201 
L 346.915472 201.116566 
L 347.471562 201.560386 
L 348.305698 202.444487 
L 348.583743 202.373227 
L 349.139833 201.819861 
L 349.417878 201.73868 
L 349.695923 201.450018 
L 350.252013 200.703044 
L 350.530058 200.618817 
L 350.808103 200.734372 
L 351.086148 199.72426 
L 351.364193 199.904077 
L 351.920284 200.909949 
L 353.310509 203.964493 
L 353.588554 204.220634 
L 353.866599 204.29634 
L 354.422689 205.215432 
L 355.256825 206.948642 
L 355.53487 207.228659 
L 355.812915 208.409738 
L 356.64705 217.153632 
L 356.925095 216.04406 
L 357.20314 213.573386 
L 357.481185 212.73988 
L 357.75923 211.120826 
L 358.037275 208.003009 
L 358.31532 206.167746 
L 358.593365 205.598861 
L 359.427501 205.065338 
L 359.705546 205.024706 
L 359.983591 204.863373 
L 360.261636 204.39831 
L 360.539681 204.220881 
L 360.817726 204.198815 
L 361.095771 204.383161 
L 361.373816 205.169531 
L 361.929906 207.484017 
L 362.207951 207.255088 
L 362.764042 204.644982 
L 363.042087 205.037426 
L 363.876222 208.582515 
L 364.154267 211.099872 
L 364.432312 211.139681 
L 364.710357 211.336747 
L 364.988402 211.295827 
L 365.544492 211.954786 
L 365.822537 211.540152 
L 366.378628 210.353887 
L 367.212763 207.233558 
L 367.490808 207.047236 
L 367.768853 206.711232 
L 368.046898 206.93271 
L 368.324943 206.923571 
L 368.602988 207.063868 
L 368.881033 204.586319 
L 369.437123 205.547155 
L 369.993213 207.379206 
L 370.271259 207.637117 
L 370.827349 207.136486 
L 371.383439 205.719644 
L 371.661484 204.66256 
L 372.217574 203.769033 
L 372.773664 203.932177 
L 373.051709 204.261018 
L 373.329754 202.27702 
L 373.607799 202.337288 
L 373.885845 201.946408 
L 374.16389 201.797714 
L 374.441935 201.839704 
L 374.998025 200.939672 
L 375.554115 201.389708 
L 376.110205 202.501421 
L 376.38825 203.958236 
L 376.666295 204.779598 
L 376.94434 206.01193 
L 377.50043 206.607039 
L 377.778476 205.20337 
L 378.056521 205.42596 
L 378.612611 205.465068 
L 378.890656 205.583588 
L 379.168701 205.269361 
L 379.724791 203.476747 
L 380.280881 202.299744 
L 380.558926 202.219386 
L 381.949152 204.687466 
L 382.227197 200.559619 
L 382.505242 201.830277 
L 383.339377 203.3008 
L 383.617422 202.892959 
L 384.173512 200.75195 
L 384.729602 198.054282 
L 385.007648 197.481692 
L 385.285693 197.924812 
L 385.563738 198.761901 
L 385.841783 200.644464 
L 386.397873 202.699393 
L 386.675918 201.604805 
L 387.232008 203.064255 
L 387.788098 204.292923 
L 388.066143 204.405432 
L 388.622233 204.233313 
L 389.456369 203.308251 
L 390.290504 205.754225 
L 390.846594 208.124163 
L 391.124639 208.435344 
L 391.402684 207.98436 
L 391.958774 208.655751 
L 392.236819 208.787979 
L 392.514865 208.3943 
L 392.79291 207.694133 
L 393.070955 206.442494 
L 393.627045 203.389803 
L 394.183135 202.433578 
L 394.46118 202.35499 
L 394.739225 201.844273 
L 395.01727 201.981483 
L 395.295315 203.154122 
L 395.57336 203.239996 
L 396.407496 206.214677 
L 396.685541 207.185393 
L 396.963586 207.250766 
L 397.241631 207.140726 
L 397.519676 207.473108 
L 397.797721 208.022933 
L 399.465991 208.067888 
L 399.744036 207.816111 
L 400.022082 203.372636 
L 400.578172 202.518876 
L 400.856217 202.529579 
L 401.134262 202.944089 
L 401.690352 203.187426 
L 401.968397 203.054745 
L 402.802532 201.070788 
L 403.636668 200.821317 
L 403.914713 200.81613 
L 404.192758 201.403376 
L 404.748848 203.492926 
L 405.026893 203.954201 
L 405.304938 204.140111 
L 406.139073 204.04411 
L 406.695163 203.559452 
L 406.973208 203.418784 
L 407.251253 203.573654 
L 407.529299 203.282728 
L 407.807344 203.238679 
L 408.085389 203.460404 
L 408.641479 206.188783 
L 408.919524 206.566119 
L 409.753659 203.574848 
L 410.031704 203.084509 
L 410.309749 202.829192 
L 410.587794 202.835696 
L 410.865839 202.679138 
L 411.143885 202.707791 
L 411.699975 201.987205 
L 411.97802 201.508475 
L 412.53411 201.43244 
L 412.812155 202.321727 
L 413.0902 203.96684 
L 413.924335 205.937006 
L 414.20238 206.13366 
L 414.480425 206.604569 
L 415.314561 206.551381 
L 415.592606 206.890967 
L 416.426741 207.249695 
L 416.704786 206.552492 
L 417.260876 201.861728 
L 417.538921 200.92868 
L 417.816966 201.865392 
L 418.373056 199.305962 
L 418.929147 198.004223 
L 419.207192 198.458295 
L 420.041327 201.160326 
L 420.597417 201.972302 
L 420.875462 202.087241 
L 421.153507 201.956371 
L 421.431552 201.226152 
L 421.987642 198.87655 
L 422.265688 202.072709 
L 423.099823 201.412885 
L 423.377868 200.422286 
L 423.655913 200.310271 
L 423.933958 200.03614 
L 424.212003 199.348817 
L 424.768093 196.503113 
L 425.046138 194.402983 
L 426.158319 182.20185 
L 426.436364 181.673349 
L 426.436364 181.673349 
" clip-path="url(#p2a339097e9)" style="fill: none; stroke: #ff00ff; stroke-width: 3; stroke-linecap: square"/>
   </g>
   <g id="patch_3">
    <path d="M 7.2 331.2 
L 7.2 7.2 
" style="fill: none; stroke: #000000; stroke-width: 0.8; stroke-linejoin: miter; stroke-linecap: square"/>
   </g>
   <g id="patch_4">
    <path d="M 446.4 331.2 
L 446.4 7.2 
" style="fill: none; stroke: #000000; stroke-width: 0.8; stroke-linejoin: miter; stroke-linecap: square"/>
   </g>
   <g id="patch_5">
    <path d="M 7.2 331.2 
L 446.4 331.2 
" style="fill: none; stroke: #000000; stroke-width: 0.8; stroke-linejoin: miter; stroke-linecap: square"/>
   </g>
   <g id="patch_6">
    <path d="M 7.2 7.2 
L 446.4 7.2 
" style="fill: none; stroke: #000000; stroke-width: 0.8; stroke-linejoin: miter; stroke-linecap: square"/>
   </g>
  </g>
 </g>
 <defs>
  <clipPath id="p2a339097e9">
   <rect x="7.2" y="7.2" width="439.2" height="324"/>
  </clipPath>
 </defs>
</svg>
