<?xml version="1.0" encoding="utf-8" standalone="no"?>
<!DOCTYPE svg PUBLIC "-//W3C//DTD SVG 1.1//EN"
  "http://www.w3.org/Graphics/SVG/1.1/DTD/svg11.dtd">
<svg xmlns:xlink="http://www.w3.org/1999/xlink" width="453.6pt" height="338.4pt" viewBox="0 0 453.6 338.4" xmlns="http://www.w3.org/2000/svg" version="1.1">
 <metadata>
  <rdf:RDF xmlns:dc="http://purl.org/dc/elements/1.1/" xmlns:cc="http://creativecommons.org/ns#" xmlns:rdf="http://www.w3.org/1999/02/22-rdf-syntax-ns#">
   <cc:Work>
    <dc:type rdf:resource="http://purl.org/dc/dcmitype/StillImage"/>
    <dc:date>2025-05-15T09:37:24.372674</dc:date>
    <dc:format>image/svg+xml</dc:format>
    <dc:creator>
     <cc:Agent>
      <dc:title>Matplotlib v3.10.1, https://matplotlib.org/</dc:title>
     </cc:Agent>
    </dc:creator>
   </cc:Work>
  </rdf:RDF>
 </metadata>
 <defs>
  <style type="text/css">*{stroke-linejoin: round; stroke-linecap: butt}</style>
 </defs>
 <g id="figure_1">
  <g id="patch_1">
   <path d="M 0 338.4 
L 453.6 338.4 
L 453.6 0 
L 0 0 
z
" style="fill: #ffffff"/>
  </g>
  <g id="axes_1">
   <g id="patch_2">
    <path d="M 7.2 331.2 
L 446.4 331.2 
L 446.4 7.2 
L 7.2 7.2 
z
" style="fill: #ffffff"/>
   </g>
   <g id="matplotlib.axis_1"/>
   <g id="matplotlib.axis_2"/>
   <g id="line2d_1">
    <path d="M 27.163636 304.016879 
L 29.026909 306.126781 
L 29.825455 306.740897 
L 30.624 307.020567 
L 31.156364 306.994891 
L 31.688727 306.800338 
L 32.487273 306.229185 
L 33.552 305.107736 
L 35.681455 302.714068 
L 37.012364 301.619562 
L 38.875636 300.243248 
L 39.674182 299.350532 
L 40.472727 298.0664 
L 41.271273 296.310361 
L 42.336 293.305367 
L 44.199273 287.70175 
L 44.997818 286.005215 
L 45.530182 285.315519 
L 46.062545 285.020464 
L 46.594909 285.115048 
L 47.127273 285.560308 
L 47.925818 286.737985 
L 49.256727 289.376007 
L 50.853818 292.40177 
L 52.184727 294.371589 
L 53.781818 296.285365 
L 55.911273 298.471862 
L 57.242182 299.546926 
L 58.306909 300.133562 
L 59.105455 300.375857 
L 59.904 300.437829 
L 60.968727 300.251323 
L 62.033455 299.792583 
L 63.098182 299.082858 
L 64.162909 298.072274 
L 64.961455 297.036304 
L 65.76 295.679145 
L 66.558545 293.940823 
L 67.623273 291.013305 
L 68.954182 286.596888 
L 73.213091 271.94249 
L 74.810182 266.969885 
L 75.608727 264.960859 
L 76.141091 263.970781 
L 76.673455 263.350672 
L 77.205818 263.160432 
L 77.472 263.238162 
L 78.004364 263.745473 
L 78.536727 264.706315 
L 79.335273 266.892637 
L 80.4 270.806011 
L 84.392727 286.816049 
L 85.723636 291.049443 
L 87.054545 294.564427 
L 88.651636 298.059192 
L 91.047273 302.675308 
L 92.378182 304.933025 
L 93.442909 306.317482 
L 94.241455 306.973793 
L 94.773818 307.194602 
L 95.306182 307.233857 
L 95.838545 307.096252 
L 96.637091 306.59422 
L 97.701818 305.51781 
L 99.831273 302.834889 
L 101.162182 300.945036 
L 101.960727 299.50604 
L 102.759273 297.63256 
L 103.557818 295.178499 
L 104.356364 292.073395 
L 105.421091 287.005831 
L 108.349091 272.066718 
L 109.147636 269.388793 
L 109.68 268.262843 
L 110.212364 267.728215 
L 110.478545 267.69007 
L 110.744727 267.804524 
L 111.277091 268.47811 
L 111.809455 269.703547 
L 112.608 272.411883 
L 113.672727 277.132915 
L 116.600727 290.853541 
L 117.931636 295.751203 
L 119.262545 299.822081 
L 121.125818 304.730869 
L 122.456727 307.747886 
L 123.521455 309.714779 
L 124.586182 311.178197 
L 125.384727 311.938474 
L 126.183273 312.441461 
L 126.981818 312.731511 
L 128.046545 312.856597 
L 129.111273 312.727167 
L 130.176 312.328786 
L 130.974545 311.814662 
L 131.773091 311.075234 
L 132.571636 310.069415 
L 133.370182 308.743693 
L 134.168727 307.008206 
L 134.967273 304.703829 
L 135.765818 301.579349 
L 136.564364 297.303335 
L 137.362909 291.528986 
L 138.161455 284.009979 
L 139.226182 271.307203 
L 142.420364 229.815171 
L 142.952727 225.760856 
L 143.485091 223.318357 
L 143.751273 222.749779 
L 144.017455 222.62886 
L 144.283636 222.956101 
L 144.549818 223.725206 
L 145.082182 226.528917 
L 145.614545 230.857277 
L 146.413091 239.601067 
L 148.276364 264.420784 
L 149.341091 277.298462 
L 150.405818 287.414422 
L 151.204364 293.130889 
L 152.002909 297.542915 
L 153.067636 302.025048 
L 154.132364 305.522769 
L 155.197091 308.340726 
L 156.261818 310.497734 
L 157.060364 311.660289 
L 157.858909 312.456855 
L 158.657455 312.95276 
L 159.722182 313.296057 
L 161.319273 313.482825 
L 162.916364 313.481445 
L 163.981091 313.303299 
L 164.779636 312.988836 
L 165.578182 312.440647 
L 166.376727 311.575424 
L 167.175273 310.291148 
L 167.973818 308.446378 
L 168.772364 305.835616 
L 169.570909 302.178889 
L 170.369455 297.149729 
L 171.168 290.459653 
L 171.966545 281.991598 
L 173.031273 268.330119 
L 175.160727 239.970881 
L 175.959273 232.474798 
L 176.491636 229.276694 
L 177.024 227.727976 
L 177.290182 227.595768 
L 177.556364 227.890459 
L 177.822545 228.602937 
L 178.354909 231.213687 
L 178.887273 235.24021 
L 179.685818 243.361015 
L 181.282909 263.313404 
L 182.88 282.174674 
L 183.944727 292.041726 
L 184.743273 297.819606 
L 185.541818 302.338907 
L 186.340364 305.798789 
L 187.138909 308.40241 
L 187.937455 310.323938 
L 188.736 311.703441 
L 189.534545 312.656506 
L 190.333091 313.283132 
L 191.131636 313.67071 
L 192.196364 313.939208 
L 193.527273 314.035763 
L 195.124364 313.922016 
L 196.455273 313.620121 
L 197.52 313.185513 
L 198.584727 312.502408 
L 199.383273 311.757754 
L 200.181818 310.724528 
L 200.980364 309.268425 
L 201.778909 307.183214 
L 202.577455 304.185205 
L 203.376 299.937805 
L 204.174545 294.118453 
L 204.973091 286.52706 
L 206.037818 273.775238 
L 209.232 232.442372 
L 209.764364 228.231542 
L 210.296727 225.504254 
L 210.562909 224.74225 
L 210.829091 224.394881 
L 211.095273 224.465519 
L 211.361455 224.951925 
L 211.627636 225.846417 
L 212.16 228.803702 
L 212.692364 233.177971 
L 213.490909 241.889167 
L 214.821818 259.710575 
L 216.418909 280.836932 
L 217.483636 292.056322 
L 218.282182 298.478494 
L 219.080727 303.284023 
L 219.879273 306.736341 
L 220.677818 309.151246 
L 221.476364 310.817769 
L 222.274909 311.961365 
L 223.073455 312.74086 
L 223.872 313.262457 
L 224.936727 313.678343 
L 226.267636 313.905562 
L 227.864727 313.905624 
L 229.195636 313.701917 
L 230.260364 313.362043 
L 231.325091 312.805405 
L 232.389818 311.959977 
L 233.188364 311.070702 
L 233.986909 309.875886 
L 234.785455 308.24517 
L 235.584 305.985173 
L 236.382545 302.842645 
L 237.181091 298.53427 
L 237.979636 292.809223 
L 238.778182 285.538876 
L 239.842909 273.630728 
L 242.770909 238.376806 
L 243.569455 232.188604 
L 244.101818 229.704576 
L 244.368 229.014157 
L 244.634182 228.707818 
L 244.900364 228.791781 
L 245.166545 229.267284 
L 245.432727 230.130526 
L 245.965091 232.979559 
L 246.497455 237.208453 
L 247.296 245.678589 
L 248.626909 263.097545 
L 250.224 283.635802 
L 251.288727 294.335774 
L 252.087273 300.329082 
L 252.885818 304.716236 
L 253.684364 307.799468 
L 254.482909 309.92129 
L 255.281455 311.38206 
L 256.08 312.404544 
L 257.144727 313.328097 
L 258.209455 313.912703 
L 259.274182 314.241401 
L 260.338909 314.341595 
L 261.403636 314.21284 
L 262.468364 313.85023 
L 263.533091 313.25779 
L 264.597818 312.442778 
L 265.662545 311.380877 
L 266.727273 309.951677 
L 267.525818 308.469194 
L 268.324364 306.407411 
L 269.122909 303.484209 
L 269.921455 299.378436 
L 270.72 293.793678 
L 271.518545 286.548505 
L 272.583273 274.396489 
L 276.043636 230.727729 
L 276.576 226.533341 
L 277.108364 223.717841 
L 277.374545 222.875904 
L 277.640727 222.428991 
L 277.906909 222.384661 
L 278.173091 222.745829 
L 278.439273 223.510554 
L 278.971636 226.218303 
L 279.504 230.394818 
L 280.302545 238.987756 
L 281.367273 253.359359 
L 283.496727 282.777976 
L 284.561455 293.979726 
L 285.36 300.228129 
L 286.158545 304.789947 
L 286.957091 307.989608 
L 287.755636 310.18862 
L 288.554182 311.700747 
L 289.352727 312.756264 
L 290.151273 313.504026 
L 291.216 314.167462 
L 292.280727 314.542287 
L 293.345455 314.66976 
L 294.410182 314.551708 
L 295.474909 314.170126 
L 296.539636 313.501878 
L 297.604364 312.519135 
L 298.669091 311.175 
L 299.733818 309.375835 
L 300.532364 307.62233 
L 301.330909 305.378188 
L 302.129455 302.443197 
L 302.928 298.553706 
L 303.726545 293.421599 
L 304.525091 286.817151 
L 305.589818 275.655344 
L 307.186909 255.498609 
L 308.517818 239.325029 
L 309.316364 231.75607 
L 309.848727 228.07825 
L 310.381091 225.682687 
L 310.647273 224.998888 
L 310.913455 224.668364 
L 311.179636 224.694699 
L 311.445818 225.078084 
L 311.712 225.815228 
L 312.244364 228.321009 
L 312.776727 232.119082 
L 313.575273 239.908811 
L 314.64 253.075584 
L 317.035636 284.034514 
L 318.100364 294.356499 
L 318.898909 300.089157 
L 319.697455 304.271152 
L 320.496 307.225237 
L 321.294545 309.300635 
L 322.093091 310.788131 
L 322.891636 311.885677 
L 323.956364 312.924761 
L 324.754909 313.442188 
L 325.553455 313.752092 
L 326.352 313.864663 
L 327.150545 313.796338 
L 328.215273 313.472717 
L 329.546182 312.822271 
L 331.409455 311.648873 
L 332.474182 310.700305 
L 333.272727 309.646611 
L 334.071273 308.071963 
L 334.603636 306.600372 
L 335.402182 303.528329 
L 336.200727 299.130525 
L 336.999273 293.133965 
L 337.797818 285.416592 
L 338.862545 272.72618 
L 341.790545 235.654047 
L 342.589091 228.935163 
L 343.121455 225.886252 
L 343.653818 224.059881 
L 343.92 223.610721 
L 344.186182 223.469139 
L 344.452364 223.63157 
L 344.718545 224.093071 
L 345.250909 225.888174 
L 345.783273 228.79473 
L 346.581818 235.066227 
L 347.380364 243.306073 
L 348.711273 259.941054 
L 350.574545 283.645849 
L 351.639273 294.468534 
L 352.437818 300.661165 
L 353.236364 305.248229 
L 354.034909 308.472206 
L 354.833455 310.648586 
L 355.632 312.078159 
L 356.430545 312.999793 
L 357.229091 313.578923 
L 358.027636 313.916523 
L 359.092364 314.081622 
L 360.157091 313.972518 
L 361.221818 313.618282 
L 362.552727 312.899903 
L 364.149818 311.779183 
L 365.480727 310.57438 
L 366.279273 309.563905 
L 367.077818 308.134803 
L 367.876364 306.0479 
L 368.674909 303.008497 
L 369.473455 298.693558 
L 370.272 292.809126 
L 371.070545 285.182113 
L 372.135273 272.439736 
L 375.329455 230.359539 
L 376.128 223.638838 
L 376.660364 220.781282 
L 377.192727 219.333547 
L 377.458909 219.149391 
L 377.725091 219.32404 
L 377.991273 219.852677 
L 378.523636 221.938486 
L 379.056 225.312943 
L 379.854545 232.487825 
L 380.919273 245.018543 
L 384.113455 285.490439 
L 385.178182 295.07797 
L 385.976727 300.509677 
L 386.775273 304.641194 
L 387.573818 307.730275 
L 388.372364 310.010703 
L 389.170909 311.654166 
L 389.969455 312.773836 
L 390.768 313.447272 
L 391.566545 313.741843 
L 392.365091 313.731306 
L 393.163636 313.498465 
L 394.494545 312.843334 
L 398.487273 310.591536 
L 399.285818 309.803714 
L 400.084364 308.645483 
L 400.882909 306.980447 
L 401.681455 304.67268 
L 402.48 301.581739 
L 403.278545 297.566484 
L 404.077091 292.506429 
L 405.141818 284.066921 
L 406.472727 271.309432 
L 408.336 253.168018 
L 409.134545 247.143331 
L 409.666909 244.190027 
L 410.199273 242.25102 
L 410.465455 241.691852 
L 410.731636 241.416149 
L 410.997818 241.427437 
L 411.264 241.725947 
L 411.530182 242.308991 
L 412.062545 244.302185 
L 412.594909 247.325565 
L 413.393455 253.509141 
L 414.458182 263.907574 
L 416.853818 288.399571 
L 417.918545 296.812135 
L 418.717091 301.661452 
L 419.515636 305.350757 
L 420.314182 308.068532 
L 421.112727 310.015119 
L 421.911273 311.351942 
L 422.709818 312.188161 
L 423.508364 312.597357 
L 424.306909 312.64423 
L 425.105455 312.405578 
L 426.170182 311.808845 
L 426.436364 311.635567 
L 426.436364 311.635567 
" clip-path="url(#pe63643879d)" style="fill: none; stroke: #ffa500; stroke-width: 3; stroke-linecap: square"/>
   </g>
   <g id="line2d_2">
    <path d="M 27.163636 21.927273 
L 28.760727 93.534815 
L 29.559273 122.141768 
L 30.357818 143.806987 
L 31.156364 158.888215 
L 31.954909 168.772294 
L 32.753455 175.107863 
L 33.552 179.186405 
L 34.084364 181.017955 
L 34.616727 182.24865 
L 35.149091 182.906379 
L 35.415273 183.025998 
L 35.681455 183.007319 
L 36.213818 182.583238 
L 36.746182 181.709699 
L 37.544727 179.838832 
L 38.875636 176.594239 
L 39.408 175.7207 
L 39.940364 175.274314 
L 40.206545 175.235839 
L 40.472727 175.326456 
L 41.005091 175.905559 
L 41.537455 176.991827 
L 42.336 179.456017 
L 43.400727 183.834009 
L 46.328727 196.609703 
L 47.393455 200.226796 
L 48.458182 203.179472 
L 49.789091 206.148037 
L 51.652364 209.610951 
L 53.781818 213.632339 
L 56.177455 218.291099 
L 56.976 219.481362 
L 57.774545 220.308895 
L 58.573091 220.741341 
L 59.371636 220.833354 
L 60.436364 220.657694 
L 61.767273 220.458062 
L 62.832 220.54924 
L 64.429091 220.787066 
L 65.227636 220.646827 
L 65.76 220.364382 
L 66.558545 219.609067 
L 67.357091 218.454478 
L 68.421818 216.421628 
L 71.882182 209.303137 
L 72.946909 207.778567 
L 74.011636 206.71097 
L 74.810182 206.199064 
L 75.608727 205.908815 
L 76.673455 205.789204 
L 78.270545 205.930005 
L 83.328 206.705958 
L 83.860364 206.97111 
L 84.392727 207.486088 
L 84.925091 208.418731 
L 85.457455 209.975367 
L 85.989818 212.379611 
L 86.522182 215.841964 
L 87.054545 220.516612 
L 87.853091 229.899099 
L 88.917818 246.085842 
L 90.781091 275.359714 
L 91.313455 281.255584 
L 91.845818 285.129473 
L 92.112 286.204593 
L 92.378182 286.669103 
L 92.644364 286.512686 
L 92.910545 285.734227 
L 93.442909 282.370295 
L 93.975273 276.796739 
L 94.773818 265.132414 
L 96.370909 236.244148 
L 97.435636 218.337097 
L 98.234182 207.61992 
L 99.032727 199.706244 
L 99.831273 194.481768 
L 100.363636 192.299742 
L 100.896 190.983442 
L 101.428364 190.38789 
L 101.694545 190.318182 
L 101.960727 190.382035 
L 102.493091 190.852675 
L 103.025455 191.704189 
L 103.824 193.497264 
L 107.018182 201.63064 
L 107.816727 202.878628 
L 108.615273 203.705318 
L 109.413818 204.198553 
L 110.478545 204.524485 
L 111.809455 204.649951 
L 113.672727 204.731087 
L 114.205091 205.006001 
L 114.737455 205.628608 
L 115.269818 206.806889 
L 115.802182 208.778125 
L 116.334545 211.776527 
L 116.866909 216.00033 
L 117.665455 224.86366 
L 118.464 236.621661 
L 119.794909 260.315283 
L 121.125818 283.566143 
L 121.924364 294.82451 
L 122.722909 303.290521 
L 123.521455 309.066223 
L 124.053818 311.687942 
L 124.586182 313.57219 
L 125.118545 314.907447 
L 125.650909 315.825035 
L 126.183273 316.362037 
L 126.449455 316.472727 
L 126.715636 316.455162 
L 126.981818 316.284804 
L 127.248 315.93461 
L 127.780364 314.556415 
L 128.312727 312.030888 
L 128.845091 308.082834 
L 129.377455 302.509833 
L 130.176 290.971532 
L 131.240727 270.526971 
L 133.636364 221.032986 
L 134.434909 209.311502 
L 135.233455 201.340391 
L 135.765818 198.004066 
L 136.298182 196.028923 
L 136.830545 195.17072 
L 137.096727 195.081499 
L 137.362909 195.179086 
L 137.895273 195.823436 
L 138.427636 196.909423 
L 139.492364 199.804945 
L 141.355636 205.054237 
L 142.154182 206.744432 
L 142.952727 207.880051 
L 143.485091 208.304132 
L 144.017455 208.467247 
L 144.549818 208.391123 
L 145.348364 207.932755 
L 146.413091 207.156803 
L 146.945455 207.035515 
L 147.211636 207.132821 
L 147.477818 207.377345 
L 147.744 207.803936 
L 148.276364 209.347194 
L 148.808727 212.037501 
L 149.341091 216.113533 
L 149.873455 221.730032 
L 150.672 233.068973 
L 151.736727 252.599572 
L 153.866182 293.583215 
L 154.664727 304.658678 
L 155.197091 309.939479 
L 155.729455 313.502207 
L 156.261818 315.463408 
L 156.528 315.905334 
L 156.794182 316.031359 
L 157.060364 315.872155 
L 157.326545 315.463966 
L 157.858909 314.032796 
L 158.657455 310.755298 
L 159.722182 304.953666 
L 160.520727 299.549349 
L 161.319273 292.815631 
L 162.117818 284.215232 
L 162.916364 273.393213 
L 163.981091 255.77056 
L 166.376727 213.880761 
L 167.175273 203.551139 
L 167.973818 196.217961 
L 168.506182 192.94325 
L 169.038545 190.796354 
L 169.570909 189.580433 
L 170.103273 189.093062 
L 170.369455 189.064067 
L 170.901818 189.342045 
L 171.434182 189.964362 
L 172.232727 191.364027 
L 173.297455 193.812048 
L 175.693091 199.623159 
L 176.491636 200.84605 
L 177.024 201.297738 
L 177.556364 201.433799 
L 178.088727 201.262599 
L 178.621091 200.820953 
L 179.685818 199.454469 
L 180.484364 198.575637 
L 180.750545 198.445993 
L 181.016727 198.453796 
L 181.282909 198.631958 
L 181.549091 199.020355 
L 182.081455 200.575042 
L 182.613818 203.410056 
L 183.146182 207.765181 
L 183.678545 213.779276 
L 184.477091 225.853457 
L 185.541818 246.245604 
L 187.138909 277.384765 
L 187.937455 288.802055 
L 188.469818 293.913056 
L 189.002182 296.893335 
L 189.268364 297.614077 
L 189.534545 297.859158 
L 189.800727 297.670679 
L 190.066909 297.095478 
L 190.599273 294.997099 
L 191.397818 290.312687 
L 193.527273 276.969603 
L 195.922909 264.190845 
L 196.721455 257.991065 
L 197.52 249.910657 
L 198.584727 236.461065 
L 200.714182 207.859423 
L 201.512727 199.67753 
L 202.311273 193.830447 
L 202.843636 191.22629 
L 203.376 189.548366 
L 203.908364 188.655594 
L 204.174545 188.457919 
L 204.440727 188.40159 
L 204.973091 188.653084 
L 205.505455 189.300779 
L 206.304 190.844871 
L 207.368727 193.676259 
L 210.296727 202.191905 
L 210.829091 203.108378 
L 211.361455 203.647049 
L 211.893818 203.777817 
L 212.426182 203.507081 
L 212.958545 202.888108 
L 214.821818 200.216482 
L 215.088 200.1833 
L 215.354182 200.357845 
L 215.620364 200.781926 
L 215.886545 201.499038 
L 216.418909 203.966292 
L 216.951273 208.021976 
L 217.483636 213.811053 
L 218.282182 225.665535 
L 219.346909 245.884814 
L 220.944 276.887351 
L 221.742545 288.404741 
L 222.274909 293.716489 
L 222.807273 297.032745 
L 223.073455 297.975982 
L 223.339636 298.480922 
L 223.605818 298.587709 
L 223.872 298.340955 
L 224.404364 296.987575 
L 225.202909 293.586562 
L 226.8 286.062396 
L 227.864727 282.244272 
L 229.195636 277.656887 
L 229.728 275.069741 
L 230.260364 271.633877 
L 231.058909 264.450147 
L 231.857455 254.663935 
L 232.922182 238.436769 
L 234.785455 209.487996 
L 235.584 200.201146 
L 236.382545 193.804517 
L 236.914909 191.136235 
L 237.447273 189.613052 
L 237.713455 189.23108 
L 237.979636 189.06908 
L 238.245818 189.108397 
L 238.512 189.32448 
L 239.044364 190.208052 
L 239.576727 191.57063 
L 240.375273 194.233899 
L 243.303273 204.901445 
L 244.101818 206.611997 
L 244.634182 207.215353 
L 245.166545 207.351695 
L 245.698909 207.021857 
L 246.231273 206.253155 
L 247.029818 204.434711 
L 248.626909 200.360628 
L 248.893091 199.983949 
L 249.159273 199.800767 
L 249.425455 199.855972 
L 249.691636 200.1925 
L 249.957818 200.857207 
L 250.490182 203.322231 
L 251.022545 207.517593 
L 251.554909 213.586886 
L 252.353455 226.119452 
L 253.418182 247.731422 
L 255.281455 287.10573 
L 256.08 299.821196 
L 256.878545 308.555987 
L 257.410909 312.171133 
L 257.943273 314.217095 
L 258.209455 314.731792 
L 258.475636 314.955682 
L 258.741818 314.92557 
L 259.008 314.673798 
L 259.540364 313.629905 
L 260.072727 312.020014 
L 260.871273 308.772628 
L 261.669818 304.502262 
L 262.468364 298.839201 
L 263.266909 291.213267 
L 264.065455 281.153816 
L 265.130182 263.918165 
L 268.324364 206.931793 
L 269.122909 197.966425 
L 269.655273 193.856931 
L 270.187636 191.16551 
L 270.72 189.733225 
L 270.986182 189.42987 
L 271.252364 189.36658 
L 271.518545 189.517704 
L 272.050909 190.363074 
L 272.583273 191.783096 
L 273.381818 194.646823 
L 276.576 207.26861 
L 277.108364 208.554239 
L 277.640727 209.398213 
L 278.173091 209.759565 
L 278.439273 209.751752 
L 278.971636 209.361687 
L 279.504 208.498471 
L 280.302545 206.501857 
L 281.633455 202.822588 
L 282.165818 202.072847 
L 282.432 202.038551 
L 282.698182 202.297015 
L 282.964364 202.898984 
L 283.230545 203.887947 
L 283.762909 207.183287 
L 284.295273 212.405542 
L 284.827636 219.614641 
L 285.626182 233.787209 
L 287.223273 268.480453 
L 288.288 289.459228 
L 289.086545 301.002825 
L 289.618909 306.251561 
L 290.151273 309.577016 
L 290.683636 311.18886 
L 290.949818 311.44816 
L 291.216 311.400203 
L 291.482182 311.088485 
L 292.014545 309.833528 
L 292.813091 306.853806 
L 293.611636 302.957056 
L 294.410182 298.053774 
L 295.208727 291.60166 
L 296.007273 282.934065 
L 296.805818 271.671794 
L 297.870545 253.094194 
L 300 213.909202 
L 300.798545 202.733639 
L 301.597091 194.767277 
L 302.129455 191.235498 
L 302.661818 188.974846 
L 303.194182 187.786804 
L 303.460364 187.529456 
L 303.726545 187.461697 
L 303.992727 187.560399 
L 304.525091 188.172683 
L 305.057455 189.225497 
L 305.856 191.412825 
L 306.920727 195.096281 
L 309.848727 205.814573 
L 310.647273 207.744824 
L 311.179636 208.579046 
L 311.712 209.003688 
L 312.244364 208.991697 
L 312.776727 208.536674 
L 313.309091 207.655603 
L 314.107636 205.633901 
L 315.172364 202.075077 
L 316.503273 197.632961 
L 317.301818 195.770741 
L 317.834182 195.073133 
L 318.366545 194.857051 
L 318.898909 195.101022 
L 319.431273 195.735883 
L 320.229818 197.16176 
L 321.294545 199.165616 
L 321.826909 199.878831 
L 322.359273 200.245476 
L 322.891636 200.201427 
L 323.424 199.723528 
L 323.956364 198.83633 
L 324.754909 196.88071 
L 327.682909 188.551319 
L 328.215273 187.645441 
L 328.747636 187.057139 
L 329.28 186.785008 
L 329.812364 186.811781 
L 330.344727 187.098677 
L 331.143273 187.910594 
L 332.474182 189.811017 
L 333.805091 191.679373 
L 334.869818 192.773173 
L 335.668364 193.314354 
L 336.733091 193.764366 
L 338.330182 194.381109 
L 339.394909 195.071466 
L 340.459636 196.03757 
L 343.387636 198.864218 
L 344.718545 199.747791 
L 346.049455 200.381818 
L 347.646545 200.863896 
L 349.243636 201.294665 
L 350.042182 201.716516 
L 350.840727 202.393486 
L 351.905455 203.66852 
L 353.236364 205.307126 
L 353.768727 205.723684 
L 354.301091 205.880936 
L 354.833455 205.721173 
L 355.365818 205.21651 
L 355.898182 204.368067 
L 356.696727 202.5421 
L 358.027636 198.635583 
L 359.358545 194.863468 
L 360.157091 193.169647 
L 360.689455 192.381431 
L 361.221818 191.895456 
L 361.754182 191.718682 
L 362.286545 191.846386 
L 362.818909 192.262935 
L 363.351273 192.94576 
L 364.149818 194.398121 
L 365.214545 196.930061 
L 367.610182 203.07826 
L 368.408727 204.510264 
L 368.941091 205.111681 
L 369.473455 205.377948 
L 370.005818 205.285655 
L 370.538182 204.833414 
L 371.070545 204.04548 
L 371.869091 202.346927 
L 374.797091 195.078716 
L 375.329455 194.291888 
L 375.861818 193.795317 
L 376.394182 193.600978 
L 376.926545 193.69996 
L 377.458909 194.06995 
L 377.991273 194.6814 
L 378.789818 195.981241 
L 379.854545 198.258623 
L 381.451636 202.365607 
L 383.581091 207.875039 
L 384.645818 210.085497 
L 385.444364 211.327349 
L 386.242909 212.134253 
L 386.775273 212.404427 
L 387.307636 212.445965 
L 387.84 212.253583 
L 388.372364 211.832294 
L 389.170909 210.805129 
L 390.235636 208.872367 
L 392.365091 204.667797 
L 393.163636 203.52325 
L 393.962182 202.774633 
L 394.760727 202.421085 
L 395.559273 202.414396 
L 396.357818 202.690705 
L 397.156364 203.203454 
L 398.221091 204.225036 
L 399.285818 205.603792 
L 401.681455 208.99477 
L 402.213818 209.429445 
L 402.746182 209.600356 
L 403.278545 209.45398 
L 403.810909 208.954338 
L 404.343273 208.095581 
L 405.141818 206.188188 
L 406.206545 202.822869 
L 408.069818 196.682746 
L 408.868364 194.6814 
L 409.666909 193.296508 
L 410.199273 192.734699 
L 410.731636 192.44919 
L 411.264 192.415447 
L 411.796364 192.602254 
L 412.594909 193.2151 
L 413.659636 194.47033 
L 414.990545 196.446315 
L 417.918545 201.050423 
L 418.717091 201.777296 
L 419.249455 201.90723 
L 419.515636 201.822188 
L 419.781818 201.611126 
L 420.314182 200.721418 
L 420.846545 199.01199 
L 421.378909 196.193426 
L 421.911273 191.913021 
L 422.443636 185.775136 
L 422.976 177.386913 
L 423.774545 159.907568 
L 424.573091 136.23988 
L 425.637818 96.545489 
L 426.436364 63.55749 
L 426.436364 63.55749 
" clip-path="url(#pe63643879d)" style="fill: none; stroke: #ff0000; stroke-width: 3; stroke-linecap: square"/>
   </g>
   <g id="line2d_3">
    <path d="M 27.163636 172.992858 
L 29.825455 141.473793 
L 30.357818 137.72084 
L 30.890182 135.619108 
L 31.156364 135.239032 
L 31.422545 135.315981 
L 31.688727 135.846427 
L 32.221091 138.208378 
L 32.753455 142.129748 
L 33.552 150.265731 
L 37.278545 192.823349 
L 38.343273 201.133165 
L 40.206545 213.467064 
L 43.134545 232.097874 
L 43.933091 235.882015 
L 44.465455 237.697396 
L 44.997818 238.851396 
L 45.264 239.168076 
L 45.530182 239.310554 
L 45.796364 239.282087 
L 46.062545 239.088555 
L 46.594909 238.241833 
L 47.127273 236.859917 
L 47.925818 234.022524 
L 49.256727 228.132244 
L 51.652364 216.252096 
L 52.983273 208.670277 
L 54.314182 199.857772 
L 56.709818 183.531654 
L 57.508364 179.736593 
L 58.040727 178.134758 
L 58.573091 177.396236 
L 58.839273 177.364617 
L 59.105455 177.557236 
L 59.371636 177.968149 
L 59.904 179.40176 
L 60.436364 181.547093 
L 61.234909 185.753735 
L 63.098182 197.479274 
L 66.824727 221.99299 
L 68.954182 238.260417 
L 74.277818 279.867834 
L 75.076364 284.32556 
L 75.874909 287.542287 
L 76.407273 288.873068 
L 76.939636 289.487781 
L 77.205818 289.515011 
L 77.472 289.351839 
L 77.738182 288.997408 
L 78.270545 287.717555 
L 78.802909 285.696385 
L 79.601455 281.376094 
L 80.4 275.723146 
L 81.464727 266.635355 
L 83.328 248.33506 
L 85.457455 225.359608 
L 87.586909 199.946378 
L 91.313455 154.607872 
L 92.378182 143.917153 
L 93.176727 137.672121 
L 93.709091 134.65439 
L 94.241455 132.704783 
L 94.507636 132.155535 
L 94.773818 131.894965 
L 95.04 131.920966 
L 95.306182 132.226375 
L 95.838545 133.623381 
L 96.370909 135.940388 
L 97.169455 140.700228 
L 99.032727 154.158747 
L 101.694545 174.104943 
L 102.759273 184.615737 
L 103.824 197.945858 
L 105.154909 218.106671 
L 107.284364 251.178628 
L 108.082909 261.024338 
L 108.881455 268.406116 
L 109.413818 271.786041 
L 109.946182 273.890381 
L 110.212364 274.467148 
L 110.478545 274.733056 
L 110.744727 274.694989 
L 111.010909 274.361209 
L 111.543273 272.844681 
L 112.075636 270.267239 
L 112.874182 264.613727 
L 113.672727 257.108291 
L 114.737455 244.812375 
L 116.334545 223.0301 
L 118.197818 194.402624 
L 120.061091 162.140814 
L 124.053818 89.517851 
L 125.118545 75.80366 
L 125.917091 68.437292 
L 126.449455 64.967434 
L 126.981818 62.615806 
L 127.514182 61.320925 
L 127.780364 61.045696 
L 128.046545 61.005053 
L 128.312727 61.189165 
L 128.578909 61.588536 
L 129.111273 63.002395 
L 129.643636 65.199563 
L 130.442182 69.936265 
L 131.240727 76.48207 
L 132.039273 85.032539 
L 132.837818 95.804438 
L 133.902545 113.795549 
L 134.967273 135.647532 
L 136.564364 173.674884 
L 140.557091 271.836064 
L 141.621818 291.475678 
L 142.420364 302.166871 
L 142.952727 307.025871 
L 143.485091 309.951083 
L 143.751273 310.678864 
L 144.017455 310.920763 
L 144.283636 310.68515 
L 144.549818 309.984458 
L 145.082182 307.25539 
L 145.614545 302.898536 
L 146.413091 293.760773 
L 147.477818 277.905817 
L 149.074909 249.518928 
L 151.204364 207.043635 
L 152.801455 170.977731 
L 157.326545 64.120519 
L 158.391273 46.705009 
L 159.189818 36.838697 
L 159.988364 29.633618 
L 160.520727 26.212497 
L 161.053091 23.821209 
L 161.585455 22.404417 
L 161.851636 22.049464 
L 162.117818 21.927273 
L 162.384 22.037614 
L 162.650182 22.38277 
L 163.182545 23.796349 
L 163.714909 26.224891 
L 164.247273 29.750367 
L 164.779636 34.468582 
L 165.578182 43.993196 
L 166.376727 56.680239 
L 167.175273 72.628414 
L 168.24 98.709159 
L 169.570909 137.575246 
L 173.829818 268.575661 
L 174.894545 291.671146 
L 175.693091 304.00661 
L 176.225455 309.605307 
L 176.757818 313.042755 
L 177.024 313.953373 
L 177.290182 314.333532 
L 177.556364 314.193364 
L 177.822545 313.545781 
L 178.354909 310.791399 
L 178.887273 306.215439 
L 179.685818 296.305007 
L 180.484364 283.276408 
L 181.549091 262.037866 
L 182.88 230.73541 
L 184.477091 187.867326 
L 188.203636 83.843312 
L 189.268364 61.848263 
L 190.066909 49.497756 
L 190.865455 40.649287 
L 191.664 34.824132 
L 192.196364 32.277102 
L 192.728727 30.541365 
L 193.261091 29.415604 
L 193.793455 28.7373 
L 194.325818 28.393215 
L 194.858182 28.325412 
L 195.390545 28.532682 
L 195.922909 29.068341 
L 196.455273 30.038764 
L 196.987636 31.596726 
L 197.52 33.932238 
L 198.052364 37.258678 
L 198.584727 41.796221 
L 199.383273 51.313496 
L 200.181818 64.516536 
L 200.980364 81.563488 
L 202.045091 109.720948 
L 203.642182 159.631302 
L 206.037818 235.211225 
L 207.368727 270.175762 
L 208.433455 292.155183 
L 209.232 304.398533 
L 209.764364 310.304647 
L 210.296727 314.283046 
L 210.829091 316.255175 
L 211.095273 316.472727 
L 211.361455 316.173624 
L 211.627636 315.357633 
L 212.16 312.186528 
L 212.692364 307.008922 
L 213.490909 295.688268 
L 214.289455 280.508224 
L 215.354182 255.210449 
L 216.685091 217.354726 
L 219.346909 132.078762 
L 220.677818 93.022593 
L 221.742545 67.884814 
L 222.541091 53.565633 
L 223.339636 43.164838 
L 224.138182 36.224262 
L 224.670545 33.160025 
L 225.202909 31.061435 
L 225.735273 29.693942 
L 226.267636 28.852592 
L 226.8 28.374482 
L 227.332364 28.146795 
L 227.864727 28.110155 
L 228.397091 28.259471 
L 228.929455 28.643743 
L 229.461818 29.366341 
L 229.994182 30.583483 
L 230.526545 32.494343 
L 231.058909 35.327294 
L 231.591273 39.317643 
L 232.123636 44.680998 
L 232.922182 55.646824 
L 233.720727 70.28595 
L 234.785455 95.007489 
L 236.382545 139.343883 
L 239.576727 229.326642 
L 240.907636 261.310084 
L 241.972364 282.455353 
L 242.770909 294.763473 
L 243.569455 303.359672 
L 244.101818 306.784862 
L 244.368 307.76455 
L 244.634182 308.242766 
L 244.900364 308.212902 
L 245.166545 307.671003 
L 245.432727 306.615848 
L 245.965091 302.975608 
L 246.497455 297.341457 
L 247.296 285.372664 
L 248.094545 269.629446 
L 249.159273 243.833929 
L 250.490182 205.988336 
L 254.749091 79.567287 
L 255.813818 57.747907 
L 256.612364 45.839186 
L 257.410909 37.50264 
L 258.209455 32.126452 
L 258.741818 29.811428 
L 259.274182 28.254274 
L 259.806545 27.266611 
L 260.338909 26.706144 
L 260.871273 26.48353 
L 261.403636 26.565027 
L 261.936 26.971981 
L 262.468364 27.776638 
L 263.000727 29.09982 
L 263.533091 31.103324 
L 264.065455 33.975988 
L 264.597818 37.917056 
L 265.130182 43.114557 
L 265.928727 53.59202 
L 266.727273 67.508863 
L 267.792 91.189929 
L 269.122909 127.13976 
L 273.381818 248.448289 
L 274.446545 272.041683 
L 275.245091 286.304207 
L 276.043636 297.135497 
L 276.576 302.28676 
L 277.108364 305.701326 
L 277.374545 306.742214 
L 277.640727 307.333097 
L 277.906909 307.471248 
L 278.173091 307.154811 
L 278.439273 306.383192 
L 278.971636 303.478392 
L 279.504 298.778214 
L 280.036364 292.326447 
L 280.834909 279.512414 
L 281.633455 263.202356 
L 282.698182 236.634468 
L 284.029091 197.080106 
L 287.755636 79.480208 
L 288.554182 61.21931 
L 289.352727 47.324921 
L 290.151273 37.630485 
L 290.683636 33.178301 
L 291.216 30.018978 
L 291.748364 27.865262 
L 292.280727 26.454352 
L 292.813091 25.570551 
L 293.345455 25.06242 
L 293.877818 24.846232 
L 294.410182 24.905555 
L 294.942545 25.285315 
L 295.474909 26.085337 
L 296.007273 27.450355 
L 296.539636 29.559355 
L 297.072 32.609758 
L 297.604364 36.797773 
L 298.402909 45.577316 
L 299.201455 57.651418 
L 300 73.00217 
L 301.064727 97.783364 
L 302.928 147.835696 
L 305.856 226.507411 
L 307.186909 257.291175 
L 308.251636 277.074155 
L 309.050182 288.083733 
L 309.582545 293.341639 
L 310.114909 296.840418 
L 310.647273 298.541603 
L 310.913455 298.714077 
L 311.179636 298.435425 
L 311.445818 297.707975 
L 311.978182 294.923619 
L 312.510545 290.411797 
L 313.309091 280.594245 
L 314.107636 267.517127 
L 315.172364 246.083239 
L 316.769455 208.564237 
L 319.165091 146.236337 
L 321.560727 83.938168 
L 322.625455 61.521225 
L 323.424 48.472136 
L 324.222545 38.876787 
L 325.021091 32.443255 
L 325.553455 29.622031 
L 326.085818 27.73424 
L 326.618182 26.580266 
L 327.150545 25.989444 
L 327.682909 25.834194 
L 328.215273 26.036583 
L 328.747636 26.570996 
L 329.28 27.464523 
L 329.812364 28.796008 
L 330.344727 30.691279 
L 330.877091 33.315064 
L 331.409455 36.8585 
L 331.941818 41.521395 
L 332.740364 51.016707 
L 333.538909 63.909212 
L 334.337455 80.348208 
L 335.402182 107.348674 
L 336.733091 147.19182 
L 340.193455 254.887462 
L 341.258182 280.471509 
L 342.056727 295.124586 
L 342.855273 305.409224 
L 343.387636 309.773816 
L 343.92 312.162819 
L 344.186182 312.628403 
L 344.452364 312.615298 
L 344.718545 312.128485 
L 344.984727 311.172487 
L 345.517091 307.868428 
L 346.049455 302.732812 
L 346.848 291.677663 
L 347.646545 276.805087 
L 348.711273 251.769941 
L 350.042182 214.263724 
L 354.301091 87.515804 
L 355.365818 64.210056 
L 356.164364 50.863722 
L 356.962909 41.06379 
L 357.761455 34.413262 
L 358.293818 31.431539 
L 358.826182 29.387286 
L 359.358545 28.106433 
L 359.890909 27.448827 
L 360.423273 27.313152 
L 360.955636 27.63624 
L 361.488 28.388703 
L 362.020364 29.566184 
L 362.552727 31.18698 
L 363.351273 34.540492 
L 364.149818 39.210497 
L 364.948364 45.540676 
L 365.746909 53.966706 
L 366.545455 64.936641 
L 367.344 78.796391 
L 368.408727 101.964005 
L 369.739636 137.674351 
L 371.869091 203.594801 
L 373.466182 251.141883 
L 374.530909 277.345272 
L 375.329455 292.581057 
L 376.128 303.350118 
L 376.660364 307.881029 
L 377.192727 310.248844 
L 377.458909 310.622658 
L 377.725091 310.461625 
L 377.991273 309.772 
L 378.523636 306.842965 
L 379.056 301.93031 
L 379.854545 291.147205 
L 380.653091 276.838826 
L 381.717818 253.65136 
L 383.314909 213.722245 
L 385.710545 147.800478 
L 388.106182 81.90566 
L 389.170909 59.200145 
L 389.969455 46.919652 
L 390.501818 41.159911 
L 391.034182 37.240595 
L 391.566545 34.955698 
L 391.832727 34.342019 
L 392.098909 34.030395 
L 392.365091 33.981852 
L 392.631273 34.157643 
L 393.163636 35.035597 
L 393.962182 37.183818 
L 396.091636 44.193776 
L 397.156364 48.238795 
L 397.954909 52.287009 
L 398.753455 57.950664 
L 399.552 65.903746 
L 400.350545 76.653454 
L 401.149091 90.410097 
L 402.213818 113.136329 
L 403.544727 146.807355 
L 407.005091 237.866006 
L 408.069818 259.866475 
L 408.868364 272.52887 
L 409.400727 278.762388 
L 409.933091 283.042854 
L 410.465455 285.261351 
L 410.731636 285.578433 
L 410.997818 285.364744 
L 411.264 284.623321 
L 411.796364 281.588795 
L 412.328727 276.577479 
L 413.127273 265.724868 
L 413.925818 251.561592 
L 415.256727 223.113414 
L 419.781818 121.2642 
L 421.112727 97.091682 
L 421.911273 85.826802 
L 422.709818 77.837801 
L 423.242182 74.545279 
L 423.774545 72.905347 
L 424.040727 72.68096 
L 424.306909 72.828222 
L 424.573091 73.321027 
L 425.105455 75.213629 
L 425.904 79.744553 
L 426.436364 83.406792 
L 426.436364 83.406792 
" clip-path="url(#pe63643879d)" style="fill: none; stroke: #0000ff; stroke-width: 3; stroke-linecap: square"/>
   </g>
   <g id="patch_3">
    <path d="M 7.2 331.2 
L 7.2 7.2 
" style="fill: none; stroke: #000000; stroke-width: 0.8; stroke-linejoin: miter; stroke-linecap: square"/>
   </g>
   <g id="patch_4">
    <path d="M 446.4 331.2 
L 446.4 7.2 
" style="fill: none; stroke: #000000; stroke-width: 0.8; stroke-linejoin: miter; stroke-linecap: square"/>
   </g>
   <g id="patch_5">
    <path d="M 7.2 331.2 
L 446.4 331.2 
" style="fill: none; stroke: #000000; stroke-width: 0.8; stroke-linejoin: miter; stroke-linecap: square"/>
   </g>
   <g id="patch_6">
    <path d="M 7.2 7.2 
L 446.4 7.2 
" style="fill: none; stroke: #000000; stroke-width: 0.8; stroke-linejoin: miter; stroke-linecap: square"/>
   </g>
  </g>
 </g>
 <defs>
  <clipPath id="pe63643879d">
   <rect x="7.2" y="7.2" width="439.2" height="324"/>
  </clipPath>
 </defs>
</svg>
