<?xml version="1.0" encoding="utf-8" standalone="no"?>
<!DOCTYPE svg PUBLIC "-//W3C//DTD SVG 1.1//EN"
  "http://www.w3.org/Graphics/SVG/1.1/DTD/svg11.dtd">
<svg xmlns:xlink="http://www.w3.org/1999/xlink" width="453.6pt" height="338.4pt" viewBox="0 0 453.6 338.4" xmlns="http://www.w3.org/2000/svg" version="1.1">
 <metadata>
  <rdf:RDF xmlns:dc="http://purl.org/dc/elements/1.1/" xmlns:cc="http://creativecommons.org/ns#" xmlns:rdf="http://www.w3.org/1999/02/22-rdf-syntax-ns#">
   <cc:Work>
    <dc:type rdf:resource="http://purl.org/dc/dcmitype/StillImage"/>
    <dc:date>2025-05-15T17:08:21.582966</dc:date>
    <dc:format>image/svg+xml</dc:format>
    <dc:creator>
     <cc:Agent>
      <dc:title>Matplotlib v3.10.1, https://matplotlib.org/</dc:title>
     </cc:Agent>
    </dc:creator>
   </cc:Work>
  </rdf:RDF>
 </metadata>
 <defs>
  <style type="text/css">*{stroke-linejoin: round; stroke-linecap: butt}</style>
 </defs>
 <g id="figure_1">
  <g id="patch_1">
   <path d="M 0 338.4 
L 453.6 338.4 
L 453.6 0 
L 0 0 
z
" style="fill: #ffffff"/>
  </g>
  <g id="axes_1">
   <g id="patch_2">
    <path d="M 7.2 331.2 
L 446.4 331.2 
L 446.4 7.2 
L 7.2 7.2 
z
" style="fill: #ffffff"/>
   </g>
   <g id="matplotlib.axis_1"/>
   <g id="matplotlib.axis_2"/>
   <g id="line2d_1">
    <path d="M 27.163636 175.499651 
L 27.719727 175.016804 
L 28.553862 173.750072 
L 29.944087 171.489417 
L 30.500177 170.898958 
L 31.056267 170.619593 
L 31.612358 170.707593 
L 32.168448 171.201182 
L 32.724538 172.129153 
L 33.280628 173.514863 
L 33.836718 175.384107 
L 34.670853 179.165378 
L 35.504989 184.245358 
L 36.339124 190.79324 
L 37.173259 198.974033 
L 38.285439 212.580811 
L 39.39762 229.089168 
L 43.012206 286.547832 
L 43.846341 294.934355 
L 44.402431 298.455184 
L 44.680476 299.539107 
L 44.958521 300.162855 
L 45.236566 300.328738 
L 45.514611 300.046312 
L 45.792656 299.332566 
L 46.348747 296.717348 
L 46.904837 292.759639 
L 48.017017 282.331681 
L 49.407242 268.861993 
L 50.241378 262.494421 
L 51.075513 257.815846 
L 53.299873 247.319062 
L 53.855964 242.95008 
L 54.412054 237.162412 
L 55.246189 225.549915 
L 56.358369 205.219316 
L 59.416865 144.558035 
L 60.251 132.397237 
L 61.085135 122.769839 
L 61.919271 115.232718 
L 63.031451 107.417105 
L 64.143631 101.116298 
L 65.255812 95.810853 
L 66.367992 91.59289 
L 67.202127 89.386696 
L 67.758217 88.475588 
L 68.314307 88.060694 
L 68.592352 88.04789 
L 68.870398 88.167868 
L 69.426488 88.810727 
L 69.982578 89.992831 
L 70.538668 91.71649 
L 71.372803 95.334439 
L 72.206938 100.24866 
L 73.041074 106.553401 
L 74.153254 117.219254 
L 75.265434 130.213964 
L 78.32393 167.91906 
L 79.158065 175.465987 
L 79.992201 181.038807 
L 80.826336 184.763742 
L 81.382426 186.424071 
L 82.216561 188.120125 
L 83.884832 190.928082 
L 84.718967 192.98307 
L 85.553102 195.697781 
L 87.777463 203.566669 
L 88.333553 204.588323 
L 88.611598 204.795365 
L 88.889643 204.765823 
L 89.167688 204.478713 
L 89.445733 203.918358 
L 90.001823 201.942689 
L 90.557913 198.831633 
L 91.392049 192.271947 
L 92.504229 181.197133 
L 94.172499 164.520706 
L 95.006635 158.100547 
L 95.84077 153.614086 
L 96.39686 151.739658 
L 96.95295 150.713007 
L 97.230995 150.494474 
L 97.50904 150.457562 
L 97.787085 150.590344 
L 98.343175 151.316331 
L 98.899266 152.575756 
L 99.733401 155.272541 
L 100.845581 159.991713 
L 102.235807 167.154849 
L 103.626032 175.48997 
L 105.016257 185.109998 
L 106.684528 198.291701 
L 109.186933 218.289785 
L 110.021069 223.518722 
L 110.577159 226.178097 
L 111.133249 228.003059 
L 111.411294 228.561853 
L 111.689339 228.867387 
L 111.967384 228.910107 
L 112.245429 228.684142 
L 112.523474 228.187242 
L 113.079564 226.393507 
L 113.635655 223.602163 
L 114.46979 217.887069 
L 117.528286 194.39089 
L 118.084376 191.797844 
L 118.640466 190.016787 
L 119.196556 188.982267 
L 119.752646 188.539579 
L 120.308736 188.459011 
L 121.142872 188.372947 
L 121.420917 188.188264 
L 121.698962 187.854687 
L 122.255052 186.572966 
L 122.811142 184.21363 
L 123.367232 180.512803 
L 123.923322 175.278744 
L 124.757458 164.362381 
L 125.591593 149.897332 
L 126.703773 126.230524 
L 129.762269 57.447097 
L 130.596404 43.447907 
L 131.430539 32.977542 
L 131.98663 28.063258 
L 132.54272 24.776638 
L 133.09881 23.034554 
L 133.376855 22.705474 
L 133.6549 22.713905 
L 133.932945 23.040113 
L 134.21099 23.663673 
L 134.76708 25.717912 
L 135.32317 28.706616 
L 136.157306 34.579412 
L 137.269486 44.203437 
L 140.884072 77.429566 
L 141.718207 82.958854 
L 142.552342 86.834558 
L 143.108433 88.37391 
L 143.386478 88.817535 
L 143.664523 89.044812 
L 143.942568 89.060051 
L 144.220613 88.871184 
L 144.776703 87.9281 
L 145.332793 86.33972 
L 146.166928 83.126673 
L 147.835199 76.333152 
L 148.391289 74.738652 
L 148.947379 73.770897 
L 149.225424 73.559733 
L 149.503469 73.544869 
L 149.781514 73.733111 
L 150.059559 74.128395 
L 150.61565 75.544209 
L 151.17174 77.772574 
L 152.005875 82.516541 
L 152.84001 88.681631 
L 154.230236 101.044099 
L 156.176551 118.65418 
L 157.010686 124.470452 
L 157.566776 127.216453 
L 158.122867 128.809705 
L 158.400912 129.116551 
L 158.678957 129.071895 
L 158.957002 128.66081 
L 159.235047 127.872865 
L 159.791137 125.146226 
L 160.347227 120.902219 
L 161.181362 111.915182 
L 162.293543 96.129628 
L 165.352038 49.406642 
L 166.186174 40.364457 
L 167.020309 34.028176 
L 167.576399 31.405713 
L 168.132489 30.082584 
L 168.410534 29.904771 
L 168.688579 30.045297 
L 168.966624 30.498478 
L 169.522715 32.319006 
L 170.078805 35.302964 
L 170.91294 41.766968 
L 171.747075 50.260165 
L 173.137301 67.50925 
L 176.473841 110.973034 
L 178.698202 135.735258 
L 180.922563 160.933799 
L 183.703013 193.240951 
L 184.537149 200.487028 
L 185.093239 204.032715 
L 185.649329 206.400483 
L 186.205419 207.562913 
L 186.483464 207.712807 
L 186.761509 207.600574 
L 187.039554 207.253881 
L 187.595644 206.000827 
L 189.263915 201.188034 
L 189.54196 200.792125 
L 189.820005 200.650663 
L 190.09805 200.808177 
L 190.376095 201.302453 
L 190.65414 202.165344 
L 191.21023 205.082475 
L 191.766321 209.645506 
L 192.600456 219.415553 
L 193.712636 236.566083 
L 195.936997 272.415424 
L 196.771132 282.048568 
L 197.327222 286.587242 
L 197.883312 289.551152 
L 198.439402 291.008998 
L 198.717447 291.220537 
L 198.995493 291.120982 
L 199.273538 290.739751 
L 199.829628 289.258108 
L 200.385718 287.026682 
L 201.219853 282.762127 
L 202.610079 274.372731 
L 204.000304 264.614926 
L 205.112484 255.008139 
L 206.224664 243.091668 
L 207.61489 224.965015 
L 212.063611 162.620671 
L 213.453836 147.71687 
L 214.566017 138.300324 
L 215.400152 132.853165 
L 216.234287 128.875158 
L 216.790377 127.049758 
L 217.346467 125.868779 
L 217.902558 125.293622 
L 218.180603 125.215302 
L 218.458648 125.26483 
L 219.014738 125.702958 
L 219.570828 126.510451 
L 220.404963 128.169656 
L 222.073234 131.574442 
L 222.629324 132.280569 
L 223.185414 132.583543 
L 223.463459 132.554314 
L 223.741504 132.391241 
L 224.297594 131.632776 
L 224.853684 130.266989 
L 225.409775 128.285762 
L 226.24391 124.236243 
L 227.35609 117.296137 
L 229.580451 102.647531 
L 230.414586 98.544924 
L 231.248721 95.732283 
L 231.804811 94.583406 
L 232.360901 93.948978 
L 232.916992 93.729258 
L 233.473082 93.800895 
L 235.975487 94.646174 
L 236.531578 94.525884 
L 237.365713 94.087506 
L 240.146164 92.217949 
L 240.702254 92.161926 
L 241.258344 92.32325 
L 241.814434 92.746014 
L 242.370524 93.472065 
L 242.926614 94.543809 
L 243.482704 96.003404 
L 244.31684 99.007036 
L 245.150975 103.09559 
L 245.98511 108.363437 
L 246.819245 114.8671 
L 247.931426 125.493606 
L 249.043606 138.354098 
L 250.155786 153.481554 
L 251.546012 175.733986 
L 252.936237 201.74258 
L 255.438643 254.43267 
L 256.828868 281.730605 
L 257.941048 299.082554 
L 258.775184 308.365445 
L 259.331274 312.578599 
L 259.887364 315.219236 
L 260.165409 315.978014 
L 260.443454 316.387787 
L 260.721499 316.472727 
L 260.999544 316.260315 
L 261.277589 315.781028 
L 261.833679 314.151802 
L 262.667815 310.526109 
L 264.61413 300.202452 
L 266.560446 289.401008 
L 267.672626 281.685761 
L 268.506761 274.419698 
L 269.618942 262.332598 
L 270.731122 247.507928 
L 272.121347 225.79037 
L 274.345708 186.734727 
L 277.126159 138.044129 
L 278.516384 117.294076 
L 279.628564 103.833694 
L 280.462699 95.837521 
L 281.296835 89.568693 
L 282.13097 84.740348 
L 283.24315 79.789402 
L 284.911421 73.621939 
L 286.023601 69.976448 
L 286.857736 68.000716 
L 287.413826 67.371785 
L 287.691871 67.334436 
L 287.969916 67.511499 
L 288.247962 67.920897 
L 288.804052 69.495849 
L 289.360142 72.132677 
L 289.916232 75.82957 
L 290.750367 83.173515 
L 291.862547 95.415756 
L 294.642998 127.629787 
L 296.033224 140.477288 
L 297.423449 151.04621 
L 301.31608 177.459644 
L 303.540441 191.911389 
L 304.652621 197.808292 
L 305.486756 201.275722 
L 306.320891 203.787201 
L 306.876982 204.901727 
L 307.433072 205.566696 
L 307.989162 205.79391 
L 308.545252 205.60954 
L 309.101342 205.04981 
L 309.657432 204.165059 
L 310.491567 202.364204 
L 313.828108 194.181538 
L 314.662244 192.885951 
L 315.496379 192.036425 
L 316.330514 191.599359 
L 316.886604 191.525286 
L 317.442694 191.63677 
L 317.998785 191.968411 
L 318.554875 192.582166 
L 319.110965 193.566659 
L 319.667055 195.036435 
L 320.223145 197.12315 
L 320.779235 199.968769 
L 321.335325 203.711754 
L 322.169461 211.267987 
L 323.003596 221.37411 
L 323.837731 234.011447 
L 325.227956 259.416592 
L 327.174272 295.581711 
L 328.008407 307.151863 
L 328.564497 312.49166 
L 329.120587 315.595533 
L 329.398633 316.257442 
L 329.676678 316.316338 
L 329.954723 315.776343 
L 330.232768 314.649513 
L 330.788858 310.727779 
L 331.344948 304.80352 
L 332.179083 292.929644 
L 333.569309 268.507368 
L 335.793669 228.835847 
L 337.46194 203.438634 
L 341.632616 143.418651 
L 345.525247 81.475463 
L 346.637427 68.538399 
L 347.471562 61.430038 
L 348.027653 58.01326 
L 348.583743 55.657172 
L 349.139833 54.333418 
L 349.417878 54.042998 
L 349.695923 53.989785 
L 349.973968 54.163912 
L 350.252013 54.554762 
L 350.808103 55.938099 
L 351.364193 58.040303 
L 352.198329 62.305233 
L 353.310509 69.506592 
L 354.978779 82.115199 
L 358.037275 107.299125 
L 364.988402 167.24822 
L 366.378628 181.368262 
L 368.046898 200.898863 
L 373.607799 269.647377 
L 374.998025 283.302933 
L 376.110205 292.110159 
L 376.94434 297.106261 
L 377.50043 299.536235 
L 378.056521 301.174329 
L 378.612611 301.97464 
L 378.890656 302.050274 
L 379.168701 301.906251 
L 379.446746 301.541383 
L 380.002836 300.147678 
L 380.558926 297.875905 
L 381.115016 294.741616 
L 381.949152 288.476847 
L 382.783287 280.430771 
L 383.895467 267.185675 
L 385.285693 247.39507 
L 388.900279 193.402712 
L 390.012459 180.801661 
L 390.846594 173.60099 
L 391.402684 170.025137 
L 391.958774 167.523713 
L 392.514865 166.181285 
L 392.79291 165.970309 
L 393.070955 166.07817 
L 393.349 166.513239 
L 393.627045 167.28101 
L 394.183135 169.825028 
L 394.739225 173.697047 
L 395.57336 181.80383 
L 396.685541 195.882588 
L 398.631856 221.946518 
L 399.465991 229.996154 
L 400.022082 233.309567 
L 400.300127 234.228919 
L 400.578172 234.614771 
L 400.856217 234.442955 
L 401.134262 233.695045 
L 401.412307 232.359799 
L 401.968397 227.912373 
L 402.524487 221.139213 
L 403.358622 206.953155 
L 404.470803 181.986826 
L 408.085389 92.38733 
L 408.919524 78.703543 
L 409.475614 72.241038 
L 410.031704 68.043061 
L 410.309749 66.798314 
L 410.587794 66.112548 
L 410.865839 65.969836 
L 411.143885 66.347632 
L 411.42193 67.218455 
L 411.97802 70.295098 
L 412.53411 74.860628 
L 413.64629 86.75349 
L 415.036516 101.803814 
L 415.870651 108.140345 
L 416.426741 110.494372 
L 416.704786 111.027621 
L 416.982831 111.113185 
L 417.260876 110.746382 
L 417.538921 109.930395 
L 418.095011 107.001835 
L 418.651102 102.49314 
L 419.485237 93.335161 
L 420.875462 74.370536 
L 422.821778 48.032112 
L 423.933958 36.166605 
L 424.768093 29.429482 
L 425.602228 24.679956 
L 426.158319 22.624968 
L 426.436364 21.927273 
L 426.436364 21.927273 
" clip-path="url(#pa672cb6fc0)" style="fill: none; stroke-dasharray: 11.1,4.8; stroke-dashoffset: 0; stroke: #000000; stroke-width: 3"/>
   </g>
   <g id="line2d_2">
    <path d="M 27.163636 160.424221 
L 27.997772 158.693691 
L 28.831907 157.449943 
L 29.666042 156.613471 
L 30.500177 156.063234 
L 31.612358 155.584509 
L 33.002583 155.246872 
L 33.836718 155.226948 
L 34.670853 155.41925 
L 35.504989 155.868434 
L 36.339124 156.563256 
L 38.84153 158.949136 
L 39.39762 159.201958 
L 39.95371 159.248987 
L 40.5098 159.067802 
L 41.06589 158.655468 
L 41.900025 157.648491 
L 43.012206 155.803105 
L 44.958521 152.451344 
L 45.792656 151.379225 
L 46.626792 150.63475 
L 47.460927 150.207239 
L 48.295062 150.043542 
L 49.407242 150.117989 
L 50.519423 150.412781 
L 51.909648 151.026286 
L 53.299873 151.922342 
L 56.358369 154.095559 
L 57.192504 154.356937 
L 58.02664 154.368242 
L 58.860775 154.142401 
L 59.972955 153.580922 
L 62.197316 152.352663 
L 63.309496 152.01971 
L 64.421676 151.963188 
L 65.533857 152.172665 
L 66.646037 152.623597 
L 67.758217 153.314485 
L 68.870398 154.266251 
L 69.982578 155.492324 
L 71.928893 158.084183 
L 73.319119 159.793977 
L 74.153254 160.524025 
L 74.987389 160.936484 
L 75.821524 161.01649 
L 76.65566 160.812322 
L 78.045885 160.119623 
L 79.43611 159.461087 
L 80.270246 159.253858 
L 81.104381 159.228876 
L 82.216561 159.450595 
L 83.606787 160.007952 
L 85.553102 161.066767 
L 86.943327 162.062128 
L 88.333553 163.3599 
L 90.835958 165.852267 
L 91.670094 166.33068 
L 92.226184 166.45809 
L 92.782274 166.413809 
L 93.338364 166.197774 
L 94.172499 165.582957 
L 95.28468 164.379743 
L 97.50904 161.840846 
L 98.343175 161.177564 
L 99.177311 160.744932 
L 100.011446 160.526961 
L 101.123626 160.490424 
L 102.513852 160.691282 
L 104.182122 161.147523 
L 105.572347 161.727551 
L 107.796708 162.967739 
L 109.186933 163.64064 
L 110.299114 163.932996 
L 111.411294 163.956354 
L 112.523474 163.750874 
L 116.69415 162.723474 
L 118.084376 162.734341 
L 120.030691 163.00565 
L 121.977007 163.4662 
L 123.645277 164.082765 
L 127.815953 165.912537 
L 128.928134 166.043008 
L 130.318359 165.945327 
L 133.376855 165.604754 
L 136.713396 165.47672 
L 138.103621 165.115412 
L 140.327982 164.195686 
L 141.718207 163.71109 
L 142.830387 163.507234 
L 144.220613 163.503486 
L 145.610838 163.720396 
L 147.279109 164.190314 
L 149.225424 164.973824 
L 152.28392 166.247863 
L 153.674145 166.552523 
L 155.064371 166.626659 
L 158.678957 166.62797 
L 160.069182 166.913144 
L 163.127678 167.660242 
L 164.517903 167.686599 
L 166.464219 167.407983 
L 168.688579 167.138173 
L 170.91294 167.16684 
L 172.859256 167.146355 
L 174.249481 166.913519 
L 175.917751 166.371776 
L 178.142112 165.638043 
L 179.254292 165.508197 
L 180.366473 165.601881 
L 182.034743 166.039198 
L 184.259104 166.640586 
L 186.205419 166.910708 
L 191.488276 167.482742 
L 195.380907 167.978455 
L 196.771132 167.892891 
L 197.883312 167.577551 
L 198.995493 166.985531 
L 200.107673 166.129759 
L 203.166169 163.530155 
L 204.000304 163.142428 
L 204.834439 162.999279 
L 205.668574 163.090652 
L 206.780755 163.481814 
L 209.561205 164.629754 
L 210.951431 164.85978 
L 215.678197 165.090305 
L 217.346467 165.05152 
L 221.517144 164.704452 
L 222.907369 164.996683 
L 224.853684 165.695191 
L 227.634135 166.651641 
L 229.580451 167.061727 
L 230.970676 167.150102 
L 232.360901 167.018257 
L 233.751127 166.667442 
L 235.975487 165.833968 
L 237.921803 165.182115 
L 239.312028 164.960646 
L 240.702254 164.992811 
L 242.648569 165.313272 
L 246.5412 165.962502 
L 248.765561 166.188905 
L 249.877741 166.096033 
L 250.989921 165.760145 
L 252.102102 165.187674 
L 254.604507 163.754247 
L 255.438643 163.519413 
L 256.272778 163.500051 
L 257.106913 163.695663 
L 258.219093 164.213111 
L 261.277589 165.820914 
L 262.667815 166.178725 
L 264.336085 166.340985 
L 267.116536 166.361221 
L 269.062851 166.145373 
L 271.565257 165.558162 
L 273.511573 165.178805 
L 275.179843 165.074628 
L 279.906609 164.960646 
L 288.804052 163.851241 
L 294.642998 162.559277 
L 301.038035 162.229135 
L 302.42826 162.42812 
L 304.096531 162.940196 
L 306.598936 163.75356 
L 307.989162 163.975653 
L 309.657432 164.002135 
L 312.159838 163.772859 
L 318.83292 162.99166 
L 321.05728 163.20757 
L 322.725551 163.309748 
L 323.837731 163.188958 
L 324.949911 162.864437 
L 326.340137 162.221078 
L 328.842542 160.992944 
L 330.232768 160.569118 
L 332.179083 160.263896 
L 337.183895 159.771244 
L 338.57412 159.933442 
L 340.520436 160.437524 
L 342.466751 160.910065 
L 344.135022 161.068329 
L 353.588554 161.171818 
L 355.53487 160.960217 
L 358.31532 160.374381 
L 360.817726 159.935628 
L 363.876222 159.45659 
L 366.100582 158.826347 
L 368.324943 158.2199 
L 369.715168 158.038153 
L 371.105394 158.052206 
L 373.051709 158.322016 
L 382.227197 160.104883 
L 384.173512 160.865284 
L 388.344188 162.614863 
L 389.456369 162.849323 
L 390.568549 162.856692 
L 391.680729 162.602559 
L 392.79291 162.10185 
L 394.183135 161.20136 
L 395.851405 159.84744 
L 400.022082 156.2353 
L 401.134262 155.629165 
L 402.246442 155.294963 
L 403.358622 155.188288 
L 411.699975 154.99836 
L 413.368245 154.794566 
L 415.036516 154.367992 
L 417.538921 153.707645 
L 418.651102 153.668298 
L 419.763282 153.868094 
L 421.153507 154.394973 
L 424.212003 155.694868 
L 425.602228 155.96549 
L 426.436364 155.997967 
L 426.436364 155.997967 
" clip-path="url(#pa672cb6fc0)" style="fill: none; stroke: #ff00ff; stroke-width: 3; stroke-linecap: square"/>
   </g>
   <g id="patch_3">
    <path d="M 7.2 331.2 
L 7.2 7.2 
" style="fill: none; stroke: #000000; stroke-width: 0.8; stroke-linejoin: miter; stroke-linecap: square"/>
   </g>
   <g id="patch_4">
    <path d="M 446.4 331.2 
L 446.4 7.2 
" style="fill: none; stroke: #000000; stroke-width: 0.8; stroke-linejoin: miter; stroke-linecap: square"/>
   </g>
   <g id="patch_5">
    <path d="M 7.2 331.2 
L 446.4 331.2 
" style="fill: none; stroke: #000000; stroke-width: 0.8; stroke-linejoin: miter; stroke-linecap: square"/>
   </g>
   <g id="patch_6">
    <path d="M 7.2 7.2 
L 446.4 7.2 
" style="fill: none; stroke: #000000; stroke-width: 0.8; stroke-linejoin: miter; stroke-linecap: square"/>
   </g>
  </g>
 </g>
 <defs>
  <clipPath id="pa672cb6fc0">
   <rect x="7.2" y="7.2" width="439.2" height="324"/>
  </clipPath>
 </defs>
</svg>
