<?xml version="1.0" encoding="utf-8" standalone="no"?>
<!DOCTYPE svg PUBLIC "-//W3C//DTD SVG 1.1//EN"
  "http://www.w3.org/Graphics/SVG/1.1/DTD/svg11.dtd">
<svg xmlns:xlink="http://www.w3.org/1999/xlink" width="453.6pt" height="338.4pt" viewBox="0 0 453.6 338.4" xmlns="http://www.w3.org/2000/svg" version="1.1">
 <metadata>
  <rdf:RDF xmlns:dc="http://purl.org/dc/elements/1.1/" xmlns:cc="http://creativecommons.org/ns#" xmlns:rdf="http://www.w3.org/1999/02/22-rdf-syntax-ns#">
   <cc:Work>
    <dc:type rdf:resource="http://purl.org/dc/dcmitype/StillImage"/>
    <dc:date>2025-05-15T17:50:21.699723</dc:date>
    <dc:format>image/svg+xml</dc:format>
    <dc:creator>
     <cc:Agent>
      <dc:title>Matplotlib v3.10.1, https://matplotlib.org/</dc:title>
     </cc:Agent>
    </dc:creator>
   </cc:Work>
  </rdf:RDF>
 </metadata>
 <defs>
  <style type="text/css">*{stroke-linejoin: round; stroke-linecap: butt}</style>
 </defs>
 <g id="figure_1">
  <g id="patch_1">
   <path d="M 0 338.4 
L 453.6 338.4 
L 453.6 0 
L 0 0 
z
" style="fill: #ffffff"/>
  </g>
  <g id="axes_1">
   <g id="patch_2">
    <path d="M 7.2 331.2 
L 446.4 331.2 
L 446.4 7.2 
L 7.2 7.2 
z
" style="fill: #ffffff"/>
   </g>
   <g id="matplotlib.axis_1"/>
   <g id="matplotlib.axis_2"/>
   <g id="line2d_1">
    <path d="M 27.163636 38.008204 
L 28.275817 52.521126 
L 29.944087 74.678048 
L 30.778222 83.552864 
L 31.612358 90.31276 
L 32.446493 95.204127 
L 33.558673 100.037877 
L 34.670853 104.818981 
L 35.504989 109.329263 
L 36.617169 116.982486 
L 40.5098 146.57955 
L 41.343935 150.845864 
L 42.456115 155.219029 
L 44.402431 162.093465 
L 45.236566 165.992914 
L 46.070701 170.85431 
L 47.182882 178.638246 
L 51.353558 209.31254 
L 52.465738 215.965957 
L 53.299873 219.92819 
L 53.855964 221.829138 
L 54.412054 222.976472 
L 54.690099 223.231666 
L 54.968144 223.26082 
L 55.246189 223.057704 
L 55.524234 222.620239 
L 56.080324 221.052675 
L 56.636414 218.617427 
L 57.47055 213.602074 
L 58.58273 205.252631 
L 61.363181 183.597689 
L 63.865586 165.090091 
L 64.977767 155.058791 
L 68.036262 125.273423 
L 68.592352 121.740791 
L 69.148443 119.401414 
L 69.426488 118.708162 
L 69.704533 118.331973 
L 69.982578 118.261473 
L 70.260623 118.476904 
L 70.538668 118.950744 
L 71.094758 120.52763 
L 73.041074 127.642894 
L 73.597164 128.531103 
L 73.875209 128.591711 
L 74.153254 128.367724 
L 74.431299 127.846382 
L 74.987389 125.899192 
L 75.543479 122.79218 
L 76.377615 116.266855 
L 77.489795 105.185724 
L 80.270246 75.953869 
L 81.104381 69.57669 
L 81.660471 66.689882 
L 82.216561 65.147937 
L 82.494606 64.9194 
L 82.772651 65.054267 
L 83.050696 65.539333 
L 83.606787 67.445796 
L 84.440922 71.916834 
L 85.553102 78.130462 
L 86.109192 80.237568 
L 86.665282 81.353844 
L 86.943327 81.56653 
L 87.221372 81.602608 
L 88.055508 81.344447 
L 88.333553 81.419695 
L 88.611598 81.726051 
L 88.889643 82.346825 
L 89.167688 83.353308 
L 89.723778 86.715662 
L 90.279868 91.965339 
L 91.114004 102.707078 
L 92.504229 121.557284 
L 93.060319 126.549071 
L 93.338364 128.087159 
L 93.616409 128.908552 
L 93.894454 128.987386 
L 94.172499 128.324277 
L 94.450544 126.946674 
L 95.006635 122.274102 
L 95.84077 111.801356 
L 97.50904 89.092478 
L 98.06513 83.687237 
L 98.621221 80.021395 
L 99.177311 78.140254 
L 99.455356 77.834293 
L 99.733401 77.917577 
L 100.011446 78.359419 
L 100.567536 80.190115 
L 101.123626 83.081621 
L 101.957761 88.996731 
L 102.791897 96.486922 
L 103.904077 108.672509 
L 105.294302 126.733914 
L 107.518663 155.929071 
L 108.630843 167.612876 
L 110.021069 179.358328 
L 112.245429 197.431949 
L 116.416105 234.276645 
L 117.528286 241.231547 
L 118.640466 246.742377 
L 119.474601 249.976343 
L 120.308736 252.253183 
L 120.864827 253.061198 
L 121.142872 253.203063 
L 121.420917 253.148686 
L 121.698962 252.883873 
L 121.977007 252.396903 
L 122.533097 250.72872 
L 123.089187 248.131973 
L 123.923322 242.656998 
L 125.035503 233.261532 
L 128.650089 199.106338 
L 129.762269 186.516322 
L 131.152494 167.696902 
L 134.21099 124.095623 
L 135.601215 107.708559 
L 136.713396 96.953492 
L 137.547531 91.066349 
L 138.103621 88.669182 
L 138.381666 88.035549 
L 138.659711 87.82091 
L 138.937756 88.050683 
L 139.215801 88.744059 
L 139.771892 91.557251 
L 140.327982 96.246169 
L 141.162117 106.427247 
L 142.274297 124.264764 
L 145.332793 180.238278 
L 147.835199 228.396105 
L 149.503469 260.263975 
L 150.337604 273.215985 
L 150.893695 279.837948 
L 151.449785 284.477285 
L 152.005875 286.940452 
L 152.28392 287.333789 
L 152.561965 287.175529 
L 152.84001 286.482969 
L 153.3961 283.609391 
L 153.95219 279.020486 
L 154.786326 269.830757 
L 157.288731 239.720536 
L 158.122867 232.425821 
L 158.957002 227.014373 
L 159.791137 223.068263 
L 162.293543 212.768514 
L 163.127678 207.492873 
L 163.961813 200.496403 
L 164.795948 191.606033 
L 165.908129 176.859826 
L 167.298354 154.501246 
L 171.190985 88.18738 
L 172.02512 79.243177 
L 172.58121 75.542938 
L 172.859256 74.46457 
L 173.137301 73.930048 
L 173.415346 73.953267 
L 173.693391 74.54098 
L 173.971436 75.692518 
L 174.527526 79.644044 
L 175.083616 85.643798 
L 175.917751 97.844297 
L 177.307977 123.311916 
L 179.254292 158.767017 
L 180.366473 175.144339 
L 181.756698 191.803759 
L 184.259104 220.258656 
L 185.927374 242.841074 
L 188.707825 281.074167 
L 190.09805 296.873816 
L 191.21023 307.136213 
L 192.044366 312.872501 
L 192.600456 315.366244 
L 192.878501 316.111116 
L 193.156546 316.472727 
L 193.434591 316.415729 
L 193.712636 315.907183 
L 193.990681 314.918269 
L 194.546771 311.412628 
L 195.102861 305.799745 
L 195.658952 298.117466 
L 196.493087 283.1595 
L 197.883312 252.283079 
L 199.829628 208.71407 
L 200.941808 188.162917 
L 202.332033 166.726003 
L 206.50271 107.576881 
L 207.336845 99.805037 
L 207.892935 96.949807 
L 208.17098 96.341446 
L 208.449025 96.31291 
L 208.72707 96.876093 
L 209.005115 98.031785 
L 209.561205 102.067757 
L 210.117296 108.208709 
L 210.951431 120.55812 
L 212.619701 150.750265 
L 214.287972 179.816441 
L 216.234287 209.05193 
L 219.014738 247.296015 
L 220.126918 259.667459 
L 220.961053 266.746817 
L 221.795189 271.758053 
L 222.351279 274.033508 
L 222.907369 275.588547 
L 223.463459 276.56302 
L 224.019549 277.092325 
L 224.575639 277.285291 
L 225.13173 277.207842 
L 225.68782 276.876078 
L 226.24391 276.257455 
L 226.8 275.279804 
L 227.35609 273.845253 
L 227.91218 271.847569 
L 228.46827 269.189125 
L 229.302406 263.810553 
L 230.136541 256.693311 
L 231.248721 244.722957 
L 232.638947 226.862444 
L 235.419397 187.269219 
L 237.643758 152.829478 
L 240.980299 98.797763 
L 241.814434 89.159318 
L 242.370524 84.683829 
L 242.926614 82.020563 
L 243.204659 81.402855 
L 243.482704 81.263685 
L 243.76075 81.594745 
L 244.038795 82.379961 
L 244.594885 85.211922 
L 245.150975 89.499354 
L 245.98511 97.937917 
L 247.653381 118.103114 
L 251.546012 167.62984 
L 253.492327 192.463579 
L 254.604507 203.619538 
L 255.438643 209.877181 
L 256.272778 214.598913 
L 259.053229 228.309384 
L 261.277589 241.600317 
L 261.833679 243.663506 
L 262.111724 244.287347 
L 262.38977 244.597388 
L 262.667815 244.569915 
L 262.94586 244.187915 
L 263.223905 243.442116 
L 263.779995 240.858029 
L 264.336085 236.88541 
L 265.17022 228.695983 
L 266.282401 214.859053 
L 271.843302 140.753782 
L 274.067663 115.853673 
L 275.179843 105.275487 
L 276.013978 99.252067 
L 276.570068 96.650647 
L 276.848113 95.879253 
L 277.126159 95.502274 
L 277.404204 95.545622 
L 277.682249 96.029427 
L 277.960294 96.966548 
L 278.516384 100.214708 
L 279.072474 105.232509 
L 279.906609 115.628845 
L 281.01879 133.064283 
L 283.521195 173.440523 
L 285.467511 200.135892 
L 288.247962 238.93987 
L 289.916232 261.049042 
L 291.028412 273.016108 
L 291.862547 280.071418 
L 292.696683 285.385511 
L 293.252773 287.939603 
L 293.808863 289.67899 
L 294.364953 290.57113 
L 294.642998 290.686895 
L 294.921043 290.575272 
L 295.199088 290.231032 
L 295.755179 288.826439 
L 296.311269 286.443318 
L 296.867359 283.066893 
L 297.701494 276.147402 
L 298.535629 267.068307 
L 299.64781 251.847024 
L 301.038035 228.643015 
L 305.208711 154.018306 
L 306.876982 130.575746 
L 309.657432 95.448441 
L 310.491567 86.731019 
L 311.047658 82.265717 
L 311.603748 79.306555 
L 311.881793 78.492753 
L 312.159838 78.165106 
L 312.437883 78.345621 
L 312.715928 79.047652 
L 312.993973 80.274264 
L 313.550063 84.263822 
L 314.106153 90.141048 
L 314.940289 101.780318 
L 316.608559 129.816346 
L 318.27683 156.218267 
L 321.891416 209.621987 
L 325.506002 271.088948 
L 326.340137 281.114449 
L 327.174272 288.434746 
L 327.730362 291.805915 
L 328.286452 294.020329 
L 328.842542 295.132735 
L 329.120587 295.289684 
L 329.398633 295.184751 
L 329.676678 294.818602 
L 330.232768 293.293818 
L 330.788858 290.677238 
L 331.344948 286.905152 
L 331.901038 281.90565 
L 332.735173 271.991363 
L 333.569309 259.198416 
L 334.681489 238.321544 
L 338.296075 165.337446 
L 339.408255 148.32659 
L 341.076526 127.054291 
L 342.744796 105.329987 
L 346.081337 58.354633 
L 346.637427 53.576274 
L 347.193517 50.756034 
L 347.471562 50.16617 
L 347.749607 50.152174 
L 348.027653 50.723739 
L 348.305698 51.88136 
L 348.861788 55.908529 
L 349.417878 62.052498 
L 350.252013 74.547113 
L 351.642239 100.621609 
L 353.588554 137.220928 
L 354.700734 154.007302 
L 355.53487 164.002129 
L 356.369005 171.96067 
L 357.481185 180.261003 
L 359.705546 195.550462 
L 360.539681 203.141642 
L 361.651861 215.912099 
L 363.320132 239.098007 
L 364.710357 257.340866 
L 365.544492 265.535041 
L 366.100582 269.367353 
L 366.656673 271.777465 
L 366.934718 272.445593 
L 367.212763 272.763226 
L 367.490808 272.740451 
L 367.768853 272.389943 
L 368.046898 271.725894 
L 368.602988 269.516426 
L 369.159078 266.224597 
L 369.993213 259.450395 
L 370.827349 250.636583 
L 371.939529 235.912854 
L 373.329754 213.402419 
L 376.110205 162.40546 
L 378.056521 128.766539 
L 379.446746 108.421865 
L 380.280881 99.102017 
L 380.836971 94.674599 
L 381.393062 91.997214 
L 381.671107 91.382968 
L 381.949152 91.276761 
L 382.227197 91.688014 
L 382.505242 92.618433 
L 383.061332 96.000891 
L 383.617422 101.271735 
L 384.451557 112.110383 
L 385.563738 130.109646 
L 388.622233 181.213084 
L 390.290504 204.489373 
L 391.958774 224.376256 
L 393.349 238.534379 
L 394.739225 250.622958 
L 395.851405 258.70195 
L 396.685541 263.62623 
L 397.519676 267.372042 
L 398.075766 269.134562 
L 398.631856 270.273465 
L 399.187946 270.777188 
L 399.465991 270.791333 
L 399.744036 270.648392 
L 400.300127 269.897325 
L 400.856217 268.534152 
L 401.412307 266.560763 
L 402.246442 262.425952 
L 403.080577 256.784657 
L 403.914713 249.492884 
L 404.748848 240.441435 
L 405.861028 225.697527 
L 407.251253 203.945948 
L 410.309749 154.771549 
L 411.97802 132.047068 
L 413.368245 115.509433 
L 414.480425 104.710202 
L 415.036516 100.731574 
L 415.592606 98.105796 
L 415.870651 97.396471 
L 416.148696 97.135268 
L 416.426741 97.350674 
L 416.704786 98.064575 
L 416.982831 99.291286 
L 417.538921 103.297585 
L 418.095011 109.304485 
L 418.929147 121.565147 
L 420.041327 141.959599 
L 422.265688 183.598233 
L 423.377868 200.498604 
L 424.490048 214.489936 
L 425.602228 226.111674 
L 426.436364 233.207452 
L 426.436364 233.207452 
" clip-path="url(#pbfe982eadf)" style="fill: none; stroke-dasharray: 11.1,4.8; stroke-dashoffset: 0; stroke: #000000; stroke-width: 3"/>
   </g>
   <g id="line2d_2">
    <path d="M 27.163636 43.016831 
L 27.441681 42.231368 
L 27.719727 41.886262 
L 27.997772 42.015739 
L 28.553862 43.012578 
L 28.831907 43.95274 
L 29.387997 47.409877 
L 29.944087 53.212524 
L 31.890403 74.415287 
L 33.002583 85.275424 
L 33.558673 89.104224 
L 33.836718 90.436623 
L 34.114763 89.616244 
L 35.226944 69.437125 
L 35.783034 63.005049 
L 36.339124 58.789106 
L 36.617169 57.607597 
L 36.895214 57.147951 
L 37.173259 57.494145 
L 37.451304 58.720461 
L 37.729349 60.918393 
L 38.007394 64.170534 
L 39.675665 104.727932 
L 40.787845 124.771245 
L 41.900025 140.986771 
L 42.17807 144.881422 
L 42.734161 155.789654 
L 43.290251 162.683503 
L 43.846341 166.605701 
L 44.402431 168.593667 
L 45.514611 171.043801 
L 45.792656 172.136388 
L 46.348747 175.549162 
L 46.904837 181.598002 
L 47.738972 195.159733 
L 49.129197 219.158503 
L 49.685287 225.15116 
L 49.963332 226.507645 
L 50.241378 224.104988 
L 51.909648 203.431134 
L 52.465738 199.259157 
L 52.743783 198.206581 
L 53.021828 198.014839 
L 53.299873 198.706682 
L 53.577918 200.380725 
L 53.855964 203.643994 
L 54.412054 216.163707 
L 54.968144 224.088791 
L 55.524234 228.152261 
L 55.802279 228.936834 
L 56.080324 228.999248 
L 56.358369 228.412994 
L 56.636414 227.248499 
L 57.192504 223.454961 
L 57.748595 217.853502 
L 58.304685 211.067913 
L 59.416865 197.571811 
L 61.641226 168.879697 
L 62.475361 160.687772 
L 63.031451 156.978507 
L 63.865586 152.741174 
L 64.977767 145.402344 
L 66.924082 130.703714 
L 68.314307 118.972851 
L 69.148443 111.965476 
L 70.538668 95.493124 
L 70.816713 95.0133 
L 71.650848 97.985717 
L 72.484984 100.164881 
L 74.709344 105.369231 
L 75.543479 108.299511 
L 76.377615 112.400988 
L 76.65566 114.414473 
L 78.32393 142.409205 
L 79.43611 156.417402 
L 80.548291 167.058917 
L 81.382426 173.151946 
L 82.216561 177.754068 
L 83.050696 180.981431 
L 83.606787 182.426739 
L 84.162877 183.34707 
L 84.440922 183.617299 
L 84.718967 183.687774 
L 85.275057 182.794792 
L 85.831147 181.396814 
L 86.665282 178.404219 
L 87.499418 174.40435 
L 88.333553 169.373072 
L 88.889643 165.184033 
L 90.279868 148.759678 
L 92.226184 123.699331 
L 92.782274 126.513067 
L 93.338364 128.349252 
L 93.894454 129.263846 
L 94.172499 129.389069 
L 94.450544 129.311274 
L 94.72859 129.029226 
L 95.28468 127.901847 
L 95.84077 126.072684 
L 96.674905 122.177613 
L 97.50904 117.114633 
L 98.621221 109.019173 
L 99.733401 99.524447 
L 103.069942 69.87778 
L 104.182122 62.070525 
L 105.016257 57.507696 
L 105.294302 56.498987 
L 105.572347 57.307794 
L 106.128438 64.667767 
L 108.352798 98.84032 
L 110.299114 131.485987 
L 112.245429 160.802807 
L 114.191745 187.023965 
L 116.13806 210.346545 
L 118.084376 230.945374 
L 120.030691 248.973025 
L 123.367232 276.577795 
L 123.923322 278.571646 
L 124.479413 279.713046 
L 124.757458 280.053824 
L 125.313548 272.106658 
L 126.981818 242.398516 
L 129.484224 193.106559 
L 133.6549 109.94383 
L 135.32317 80.59845 
L 136.713396 59.540791 
L 137.825576 45.507643 
L 138.937756 34.509919 
L 139.771892 27.178087 
L 140.606027 21.927273 
L 140.884072 23.703393 
L 143.664523 67.460064 
L 145.888883 99.309066 
L 147.835199 124.284348 
L 149.503469 143.262918 
L 152.561965 174.675988 
L 153.95219 186.742757 
L 155.342416 196.851259 
L 156.732641 205.336162 
L 157.566776 208.679426 
L 157.844821 209.458534 
L 158.122867 207.231027 
L 160.903317 169.450916 
L 163.127678 141.838555 
L 165.073993 120.153643 
L 166.742264 103.763833 
L 168.410534 89.674157 
L 169.80076 79.897804 
L 170.91294 73.464739 
L 172.02512 68.349979 
L 172.859256 65.428502 
L 173.693391 63.32597 
L 173.971436 62.812961 
L 174.249481 63.4324 
L 175.083616 73.611822 
L 176.751887 97.780375 
L 179.810382 146.74686 
L 182.868878 194.449591 
L 184.815194 221.645358 
L 186.483464 242.130216 
L 187.87369 256.791655 
L 188.98587 266.718182 
L 190.09805 274.88209 
L 191.488276 282.822135 
L 192.044366 284.979142 
L 192.322411 285.62143 
L 192.600456 285.938741 
L 192.878501 285.923409 
L 195.380907 258.471039 
L 198.995493 222.544868 
L 201.219853 202.568766 
L 203.444214 184.653406 
L 205.668574 168.487707 
L 208.17098 151.944361 
L 209.005115 146.724704 
L 209.28316 145.990304 
L 209.561205 147.661454 
L 210.951431 160.123353 
L 216.512332 205.445881 
L 218.458648 219.074477 
L 219.848873 227.476442 
L 221.239099 234.530059 
L 222.351279 239.032947 
L 223.185414 241.66916 
L 224.019549 243.613011 
L 224.575639 244.501319 
L 225.13173 245.032306 
L 225.68782 245.175704 
L 226.24391 244.931316 
L 226.8 244.272411 
L 227.35609 243.112663 
L 227.634135 241.515821 
L 230.136541 220.046316 
L 239.033983 153.139692 
L 240.702254 142.872906 
L 242.092479 135.624309 
L 243.204659 130.863111 
L 244.038795 127.981892 
L 244.31684 128.148856 
L 245.150975 132.981468 
L 246.819245 144.279169 
L 248.765561 159.151316 
L 252.102102 185.332489 
L 256.550823 216.290785 
L 257.941048 223.676277 
L 259.053229 228.517396 
L 260.165409 232.31086 
L 260.999544 234.42358 
L 261.833679 235.866489 
L 262.38977 236.395027 
L 262.667815 236.5112 
L 263.779995 228.185125 
L 268.784806 189.964952 
L 271.843302 169.354031 
L 273.789618 157.609865 
L 275.179843 150.45014 
L 276.292023 145.72779 
L 277.126159 142.87528 
L 277.960294 140.691344 
L 278.516384 139.654594 
L 278.794429 139.268044 
L 279.072474 139.261021 
L 279.350519 140.285309 
L 280.462699 147.342263 
L 281.852925 157.583653 
L 283.79924 173.657067 
L 289.916232 225.679105 
L 290.472322 230.646041 
L 292.140593 247.05363 
L 293.530818 258.937114 
L 294.921043 268.991115 
L 296.033224 275.574724 
L 297.145404 281.266144 
L 297.423449 280.498732 
L 301.594125 226.704604 
L 304.374576 193.49568 
L 306.598936 169.273591 
L 308.545252 150.249793 
L 311.047658 128.183129 
L 312.159838 120.874739 
L 312.715928 117.685704 
L 312.993973 116.766066 
L 313.272018 118.223763 
L 316.052469 147.045378 
L 319.38901 184.982339 
L 324.671866 245.006885 
L 327.452317 273.801151 
L 329.676678 294.620629 
L 331.344948 309.040969 
L 331.901038 304.95235 
L 333.013219 294.769764 
L 334.403444 279.676696 
L 336.071714 258.589857 
L 338.01803 230.920152 
L 344.135022 141.283434 
L 345.525247 124.933955 
L 346.637427 114.182326 
L 347.471562 107.729231 
L 347.749607 105.923437 
L 348.027653 105.218909 
L 348.305698 105.378083 
L 348.861788 106.086098 
L 349.417878 107.28462 
L 349.973968 108.954509 
L 350.808103 112.308776 
L 351.642239 116.595838 
L 352.476374 121.731815 
L 353.310509 128.645495 
L 354.700734 142.270975 
L 356.369005 160.719622 
L 358.593365 187.945359 
L 361.929906 231.992659 
L 365.544492 279.525731 
L 366.100582 278.198821 
L 366.934718 275.367058 
L 367.768853 271.669959 
L 368.881033 265.408755 
L 369.993213 257.725314 
L 371.383439 246.317474 
L 373.329754 227.900974 
L 375.554115 204.685541 
L 379.446746 163.645302 
L 382.227197 137.576988 
L 382.783287 133.573608 
L 383.061332 132.993288 
L 383.617422 133.36463 
L 384.173512 134.176553 
L 384.729602 135.414516 
L 385.563738 138.028177 
L 386.397873 141.464789 
L 387.510053 147.201808 
L 388.622233 154.114251 
L 390.012459 164.171467 
L 391.680729 177.943832 
L 393.90509 198.483091 
L 396.963586 229.2424 
L 400.578172 266.928222 
L 400.856217 268.256047 
L 401.412307 267.654462 
L 401.968397 266.690066 
L 402.802532 264.59295 
L 403.636668 261.717839 
L 404.470803 258.034291 
L 405.582983 251.905926 
L 406.695163 244.382476 
L 408.085389 233.027579 
L 409.475614 221.178739 
L 411.143885 206.558448 
L 412.812155 189.89198 
L 414.75847 168.18825 
L 417.260876 137.51319 
L 418.651102 121.134384 
L 418.929147 121.054982 
L 419.485237 121.595514 
L 420.041327 122.451403 
L 420.875462 124.333953 
L 421.709597 126.94435 
L 422.543733 130.30255 
L 423.655913 135.921442 
L 424.768093 142.848846 
L 425.880273 151.08773 
L 426.436364 155.689926 
L 426.436364 155.689926 
" clip-path="url(#pbfe982eadf)" style="fill: none; stroke: #ff00ff; stroke-width: 3; stroke-linecap: square"/>
   </g>
   <g id="patch_3">
    <path d="M 7.2 331.2 
L 7.2 7.2 
" style="fill: none; stroke: #000000; stroke-width: 0.8; stroke-linejoin: miter; stroke-linecap: square"/>
   </g>
   <g id="patch_4">
    <path d="M 446.4 331.2 
L 446.4 7.2 
" style="fill: none; stroke: #000000; stroke-width: 0.8; stroke-linejoin: miter; stroke-linecap: square"/>
   </g>
   <g id="patch_5">
    <path d="M 7.2 331.2 
L 446.4 331.2 
" style="fill: none; stroke: #000000; stroke-width: 0.8; stroke-linejoin: miter; stroke-linecap: square"/>
   </g>
   <g id="patch_6">
    <path d="M 7.2 7.2 
L 446.4 7.2 
" style="fill: none; stroke: #000000; stroke-width: 0.8; stroke-linejoin: miter; stroke-linecap: square"/>
   </g>
  </g>
 </g>
 <defs>
  <clipPath id="pbfe982eadf">
   <rect x="7.2" y="7.2" width="439.2" height="324"/>
  </clipPath>
 </defs>
</svg>
