<?xml version="1.0" encoding="utf-8" standalone="no"?>
<!DOCTYPE svg PUBLIC "-//W3C//DTD SVG 1.1//EN"
  "http://www.w3.org/Graphics/SVG/1.1/DTD/svg11.dtd">
<svg xmlns:xlink="http://www.w3.org/1999/xlink" width="453.6pt" height="338.4pt" viewBox="0 0 453.6 338.4" xmlns="http://www.w3.org/2000/svg" version="1.1">
 <metadata>
  <rdf:RDF xmlns:dc="http://purl.org/dc/elements/1.1/" xmlns:cc="http://creativecommons.org/ns#" xmlns:rdf="http://www.w3.org/1999/02/22-rdf-syntax-ns#">
   <cc:Work>
    <dc:type rdf:resource="http://purl.org/dc/dcmitype/StillImage"/>
    <dc:date>2025-05-15T17:30:58.613384</dc:date>
    <dc:format>image/svg+xml</dc:format>
    <dc:creator>
     <cc:Agent>
      <dc:title>Matplotlib v3.10.1, https://matplotlib.org/</dc:title>
     </cc:Agent>
    </dc:creator>
   </cc:Work>
  </rdf:RDF>
 </metadata>
 <defs>
  <style type="text/css">*{stroke-linejoin: round; stroke-linecap: butt}</style>
 </defs>
 <g id="figure_1">
  <g id="patch_1">
   <path d="M 0 338.4 
L 453.6 338.4 
L 453.6 0 
L 0 0 
z
" style="fill: #ffffff"/>
  </g>
  <g id="axes_1">
   <g id="patch_2">
    <path d="M 7.2 331.2 
L 446.4 331.2 
L 446.4 7.2 
L 7.2 7.2 
z
" style="fill: #ffffff"/>
   </g>
   <g id="matplotlib.axis_1"/>
   <g id="matplotlib.axis_2"/>
   <g id="line2d_1">
    <path d="M 27.163636 85.254409 
L 28.275817 81.250367 
L 29.109952 79.014042 
L 29.944087 77.29246 
L 31.334312 75.04954 
L 34.114763 70.801993 
L 35.504989 68.149395 
L 38.84153 61.323812 
L 39.675665 60.241199 
L 40.5098 59.597778 
L 41.06589 59.426428 
L 41.62198 59.465407 
L 42.17807 59.715936 
L 42.734161 60.176003 
L 43.568296 61.244435 
L 44.402431 62.72736 
L 45.514611 65.250258 
L 46.626792 68.304124 
L 47.738972 71.906107 
L 49.129197 77.29058 
L 51.909648 88.950047 
L 52.743783 91.218624 
L 53.299873 92.031153 
L 53.577918 92.196699 
L 53.855964 92.194786 
L 54.134009 92.024623 
L 54.690099 91.191846 
L 55.246189 89.75509 
L 56.080324 86.681437 
L 57.192504 81.42729 
L 58.58273 73.636527 
L 59.69491 66.271335 
L 63.031451 42.418103 
L 63.587541 40.177095 
L 64.143631 38.809789 
L 64.699721 38.208612 
L 65.255812 38.134743 
L 66.089947 38.289769 
L 66.367992 38.239875 
L 66.646037 38.076703 
L 67.202127 37.309551 
L 67.758217 35.884106 
L 68.592352 32.705387 
L 69.704533 28.08213 
L 70.260623 26.547397 
L 70.538668 26.161332 
L 70.816713 26.08921 
L 71.094758 26.365626 
L 71.372803 27.015577 
L 71.928893 29.482084 
L 72.484984 33.464822 
L 73.319119 41.788467 
L 75.543479 67.041884 
L 76.09957 71.364619 
L 76.65566 74.183884 
L 76.933705 74.99394 
L 77.21175 75.406387 
L 77.489795 75.435605 
L 77.76784 75.105865 
L 78.045885 74.449154 
L 78.601975 72.316939 
L 79.43611 67.789711 
L 80.826336 59.987108 
L 81.382426 57.732943 
L 81.938516 56.28903 
L 82.216561 55.902206 
L 82.494606 55.745761 
L 82.772651 55.8194 
L 83.050696 56.119296 
L 83.606787 57.368939 
L 84.162877 59.416535 
L 84.997012 63.770202 
L 85.831147 69.3655 
L 86.943327 78.265225 
L 88.611598 93.685362 
L 91.114004 117.50659 
L 91.948139 123.730567 
L 92.504229 126.773336 
L 93.060319 128.655732 
L 93.338364 129.095749 
L 93.616409 129.172421 
L 93.894454 128.869013 
L 94.172499 128.173719 
L 94.72859 125.589005 
L 95.28468 121.442633 
L 96.118815 112.599859 
L 97.230995 97.306768 
L 99.455356 65.391896 
L 100.289491 56.128859 
L 101.123626 49.088429 
L 101.957761 44.148457 
L 102.791897 40.901376 
L 103.626032 38.827267 
L 104.460167 37.450595 
L 105.294302 36.453426 
L 106.128438 35.728123 
L 106.684528 35.439011 
L 107.240618 35.386577 
L 107.796708 35.666587 
L 108.352798 36.384207 
L 108.908888 37.640479 
L 109.464978 39.51956 
L 110.021069 42.07715 
L 110.855204 47.218977 
L 111.689339 53.832581 
L 112.801519 64.478028 
L 115.02588 88.709873 
L 117.250241 111.972383 
L 118.640466 124.549328 
L 119.752646 133.003398 
L 120.586781 138.068667 
L 121.420917 141.722358 
L 121.977007 143.228417 
L 122.255052 143.674336 
L 122.533097 143.905953 
L 122.811142 143.918649 
L 123.089187 143.709721 
L 123.367232 143.278922 
L 123.923322 141.763019 
L 124.479413 139.417523 
L 125.313548 134.532178 
L 126.425728 126.090887 
L 128.372044 108.868078 
L 130.318359 92.280857 
L 131.430539 84.556015 
L 132.264675 80.215307 
L 132.820765 78.195544 
L 133.376855 76.954739 
L 133.6549 76.636937 
L 133.932945 76.520955 
L 134.21099 76.603234 
L 134.489035 76.877209 
L 135.045125 77.958569 
L 135.601215 79.656704 
L 136.435351 83.042916 
L 139.215801 95.320444 
L 140.327982 98.761761 
L 142.274297 104.120627 
L 142.830387 106.339738 
L 143.386478 109.274325 
L 143.942568 113.147926 
L 144.776703 121.129084 
L 145.610838 132.069348 
L 146.444973 146.023708 
L 147.557154 168.654388 
L 152.005875 266.594536 
L 153.118055 283.893383 
L 153.95219 293.678047 
L 154.786326 300.443017 
L 155.342416 303.144043 
L 155.620461 303.921879 
L 155.898506 304.305224 
L 156.176551 304.285537 
L 156.454596 303.855471 
L 156.732641 303.009165 
L 157.288731 300.055328 
L 157.844821 295.425854 
L 158.678957 285.468413 
L 159.513092 272.282961 
L 160.625272 250.88391 
L 165.073993 159.722031 
L 166.186174 143.278411 
L 167.020309 133.975916 
L 167.854444 127.567661 
L 168.410534 124.929112 
L 168.966624 123.530114 
L 169.24467 123.257408 
L 169.522715 123.241085 
L 169.80076 123.455816 
L 170.35685 124.463571 
L 171.190985 126.945066 
L 172.859256 132.313842 
L 173.415346 133.507275 
L 173.971436 134.233387 
L 174.527526 134.496909 
L 175.083616 134.375222 
L 176.751887 133.417857 
L 177.029932 133.483284 
L 177.307977 133.70382 
L 177.586022 134.114322 
L 178.142112 135.638419 
L 178.698202 138.298783 
L 179.254292 142.285611 
L 179.810382 147.714637 
L 180.644518 158.592904 
L 181.478653 172.434316 
L 182.868878 199.874411 
L 184.815194 238.656846 
L 185.927374 256.431482 
L 186.761509 266.42753 
L 187.317599 271.34549 
L 187.87369 274.85817 
L 188.42978 277.012439 
L 188.707825 277.605429 
L 188.98587 277.892893 
L 189.263915 277.889413 
L 189.54196 277.610532 
L 189.820005 277.072103 
L 190.376095 275.279257 
L 190.932185 272.628176 
L 191.766321 267.245937 
L 192.600456 260.348307 
L 193.712636 248.89762 
L 194.824816 234.873554 
L 196.215042 214.085301 
L 200.663763 143.984703 
L 201.497898 134.548667 
L 202.332033 127.343993 
L 202.888124 123.869616 
L 203.444214 121.44753 
L 204.000304 120.003122 
L 204.556394 119.404023 
L 204.834439 119.366017 
L 205.390529 119.680851 
L 206.224664 120.694608 
L 207.0588 121.67166 
L 207.61489 121.974029 
L 207.892935 121.965158 
L 208.17098 121.833513 
L 208.72707 121.177445 
L 209.28316 119.999066 
L 210.117296 117.398045 
L 212.341656 109.525992 
L 212.897746 108.545213 
L 213.175791 108.355148 
L 213.453836 108.394127 
L 213.731881 108.679282 
L 214.009927 109.223277 
L 214.566017 111.114263 
L 215.122107 114.068752 
L 215.956242 120.294527 
L 217.068422 130.940715 
L 219.014738 150.036769 
L 219.848873 156.174396 
L 220.404963 159.149611 
L 220.961053 161.144047 
L 221.517144 162.146179 
L 221.795189 162.285459 
L 222.073234 162.194573 
L 222.351279 161.884767 
L 222.907369 160.663732 
L 223.463459 158.74765 
L 224.297594 154.883762 
L 225.68782 146.977313 
L 228.746316 128.042205 
L 229.858496 119.929632 
L 230.970676 110.321966 
L 232.360901 96.251196 
L 235.141352 67.327105 
L 235.975487 60.655295 
L 236.809623 55.717764 
L 237.365713 53.499543 
L 237.921803 52.144702 
L 238.199848 51.775653 
L 238.477893 51.597476 
L 238.755938 51.595333 
L 239.033983 51.751777 
L 239.590073 52.460691 
L 240.424209 54.180756 
L 242.092479 57.865841 
L 242.648569 58.698156 
L 243.204659 59.237764 
L 243.76075 59.502836 
L 244.594885 59.537594 
L 245.42902 59.485028 
L 245.98511 59.649289 
L 246.5412 60.164461 
L 247.09729 61.192364 
L 247.653381 62.879979 
L 248.209471 65.345101 
L 248.765561 68.664039 
L 249.599696 75.285459 
L 250.433831 83.722777 
L 251.824057 100.548506 
L 253.770372 124.454766 
L 254.882553 135.34845 
L 255.716688 141.404869 
L 256.272778 144.352202 
L 256.828868 146.440937 
L 257.384958 147.721678 
L 257.941048 148.272201 
L 258.219093 148.303431 
L 258.497139 148.18923 
L 259.053229 147.577254 
L 259.609319 146.537247 
L 260.443454 144.356687 
L 261.277589 141.579105 
L 262.38977 136.939194 
L 263.223905 132.546101 
L 264.05804 127.109606 
L 264.892175 120.445447 
L 266.004356 109.600982 
L 267.394581 93.564005 
L 269.896987 64.070065 
L 271.009167 53.940879 
L 271.843302 48.535795 
L 272.399392 46.099561 
L 272.955482 44.589463 
L 273.511573 43.935687 
L 273.789618 43.893542 
L 274.067663 44.016416 
L 274.623753 44.66874 
L 275.457888 46.306988 
L 276.848113 49.265484 
L 277.404204 50.109902 
L 277.960294 50.643079 
L 278.516384 50.85697 
L 279.072474 50.794379 
L 279.906609 50.38701 
L 280.740744 50.017565 
L 281.296835 50.071483 
L 281.57488 50.255859 
L 282.13097 51.048799 
L 282.68706 52.538155 
L 283.24315 54.852372 
L 283.79924 58.074753 
L 284.633376 64.653006 
L 285.467511 73.146253 
L 286.857736 90.167999 
L 288.804052 114.24063 
L 289.916232 125.122392 
L 290.750367 131.165703 
L 291.584502 135.299033 
L 292.140593 137.054862 
L 292.696683 138.101513 
L 293.252773 138.541595 
L 293.808863 138.490019 
L 294.364953 138.063358 
L 295.199088 136.948757 
L 296.311269 134.958047 
L 297.423449 132.546349 
L 298.257584 130.301516 
L 299.091719 127.434977 
L 299.925855 123.725357 
L 300.75999 119.047637 
L 301.87217 111.388403 
L 305.208711 86.791615 
L 305.764801 84.165596 
L 306.320891 82.378785 
L 306.876982 81.517285 
L 307.155027 81.445362 
L 307.433072 81.611436 
L 307.711117 82.010132 
L 308.267207 83.464036 
L 308.823297 85.693008 
L 309.657432 90.137033 
L 312.993973 109.881916 
L 314.106153 114.540064 
L 316.052469 122.055022 
L 316.886604 126.589092 
L 317.720739 132.942489 
L 318.554875 141.723414 
L 319.38901 153.287642 
L 320.50119 172.974238 
L 321.891416 202.725862 
L 324.671866 263.604794 
L 325.784047 283.290095 
L 326.896227 298.909002 
L 327.730362 307.697264 
L 328.286452 312.018544 
L 328.842542 314.968091 
L 329.120587 315.880335 
L 329.398633 316.389175 
L 329.676678 316.472727 
L 329.954723 316.109597 
L 330.232768 315.279859 
L 330.788858 312.153372 
L 331.344948 306.997131 
L 331.901038 299.793586 
L 332.735173 285.350313 
L 333.847354 260.486548 
L 335.793669 209.40064 
L 337.46194 167.422965 
L 338.852165 138.079022 
L 339.964345 119.333699 
L 340.798481 108.306243 
L 341.632616 99.973777 
L 342.466751 94.270347 
L 343.022841 91.805126 
L 343.578931 90.260039 
L 344.135022 89.466538 
L 344.691112 89.232333 
L 345.247202 89.358735 
L 346.915472 90.135879 
L 347.471562 90.107189 
L 348.027653 89.837896 
L 348.861788 89.035327 
L 350.252013 87.434211 
L 350.808103 87.153805 
L 351.086148 87.186848 
L 351.364193 87.369542 
L 351.642239 87.726654 
L 352.198329 89.059631 
L 352.754419 91.353732 
L 353.310509 94.732029 
L 353.866599 99.256058 
L 354.700734 108.148017 
L 355.812915 123.313025 
L 359.983591 185.046135 
L 361.095771 196.605005 
L 361.929906 203.422294 
L 362.764042 208.631328 
L 363.320132 211.145487 
L 363.876222 212.802582 
L 364.154267 213.276829 
L 364.432312 213.494908 
L 364.710357 213.441485 
L 364.988402 213.100862 
L 365.266447 212.458595 
L 365.822537 210.218197 
L 366.378628 206.642729 
L 366.934718 201.703862 
L 367.768853 191.826226 
L 368.881033 174.699232 
L 370.549304 143.845423 
L 373.051709 97.4952 
L 374.441935 76.343966 
L 375.554115 63.251304 
L 376.38825 56.030653 
L 377.222385 51.093319 
L 377.778476 48.989827 
L 378.334566 47.714296 
L 378.890656 47.118725 
L 379.446746 47.028236 
L 380.002836 47.256505 
L 381.393062 48.071573 
L 381.949152 48.129481 
L 382.505242 47.9054 
L 383.061332 47.377433 
L 383.895467 46.087821 
L 385.563738 43.019445 
L 386.119828 42.43911 
L 386.397873 42.337111 
L 386.675918 42.391227 
L 386.953963 42.62309 
L 387.232008 43.051631 
L 387.788098 44.563345 
L 388.344188 47.019991 
L 388.900279 50.453592 
L 389.734414 57.336225 
L 390.846594 69.044861 
L 393.90509 103.136204 
L 394.739225 110.066111 
L 395.57336 115.480578 
L 396.407496 119.434263 
L 396.963586 121.321853 
L 397.519676 122.655621 
L 398.075766 123.460895 
L 398.631856 123.744945 
L 398.909901 123.688587 
L 399.187946 123.496197 
L 399.744036 122.687494 
L 400.300127 121.282808 
L 400.856217 119.245551 
L 401.690352 114.949873 
L 402.524487 109.167446 
L 403.636668 99.367851 
L 405.026893 84.656464 
L 408.919524 41.735076 
L 410.031704 32.452583 
L 410.865839 27.263764 
L 411.42193 24.771502 
L 411.97802 23.075379 
L 412.53411 22.149903 
L 412.812155 21.956458 
L 413.0902 21.927273 
L 413.368245 22.048003 
L 413.924335 22.675034 
L 414.480425 23.697001 
L 415.870651 27.02514 
L 416.982831 29.476972 
L 417.816966 30.827064 
L 418.651102 31.771469 
L 420.041327 33.185735 
L 420.597417 34.098119 
L 421.153507 35.466052 
L 421.709597 37.466457 
L 422.265688 40.258384 
L 422.821778 43.966191 
L 423.655913 51.39305 
L 424.490048 61.030874 
L 425.602228 76.733659 
L 426.436364 89.883965 
L 426.436364 89.883965 
" clip-path="url(#pd6d3756fbc)" style="fill: none; stroke-dasharray: 11.1,4.8; stroke-dashoffset: 0; stroke: #000000; stroke-width: 3"/>
   </g>
   <g id="line2d_2">
    <path d="M 27.163636 73.778131 
L 27.719727 71.997685 
L 28.275817 70.694717 
L 28.553862 70.630939 
L 28.831907 70.781844 
L 29.109952 71.062118 
L 29.666042 71.871118 
L 29.944087 72.177082 
L 30.500177 72.400734 
L 30.778222 72.102157 
L 31.056267 71.569969 
L 31.334312 70.469054 
L 31.612358 69.842979 
L 32.168448 64.917946 
L 33.002583 57.265852 
L 33.280628 56.249556 
L 33.558673 55.978977 
L 33.836718 58.568061 
L 34.114763 59.635207 
L 35.783034 68.310819 
L 36.061079 56.147755 
L 36.339124 56.278246 
L 37.173259 57.123752 
L 37.451304 58.073203 
L 38.563484 65.959073 
L 38.84153 66.911459 
L 39.119575 67.023153 
L 39.39762 65.652977 
L 39.95371 52.937181 
L 40.231755 50.887408 
L 40.5098 51.30289 
L 41.06589 50.291376 
L 41.343935 50.022215 
L 41.62198 50.35433 
L 41.900025 51.040126 
L 42.17807 53.86513 
L 42.734161 70.770598 
L 43.012206 74.259765 
L 43.568296 77.570954 
L 43.846341 78.815914 
L 44.124386 79.319742 
L 44.402431 79.300714 
L 44.958521 78.710024 
L 46.070701 75.728213 
L 46.348747 76.152236 
L 46.626792 77.51697 
L 46.904837 79.577295 
L 47.738972 88.271176 
L 48.295062 92.462001 
L 48.851152 94.054312 
L 49.129197 94.302005 
L 49.407242 98.059739 
L 49.685287 97.790875 
L 50.241378 97.867086 
L 51.075513 101.143285 
L 51.353558 102.646392 
L 51.631603 105.249475 
L 51.909648 105.676135 
L 52.187693 105.11341 
L 52.743783 103.630832 
L 53.577918 101.929828 
L 53.855964 96.912491 
L 54.690099 96.161762 
L 54.968144 96.009703 
L 55.524234 96.071173 
L 57.192504 97.051886 
L 58.02664 97.777816 
L 58.304685 97.744212 
L 58.860775 98.01001 
L 59.69491 98.128827 
L 60.251 98.126255 
L 60.80709 97.856632 
L 61.641226 97.512513 
L 61.919271 97.220796 
L 62.197316 96.591687 
L 62.475361 95.517846 
L 63.031451 91.837839 
L 64.143631 86.487926 
L 65.533857 80.154959 
L 65.811902 80.527438 
L 66.646037 84.686243 
L 66.924082 84.474594 
L 67.202127 83.020755 
L 67.480172 77.327581 
L 68.314307 51.006654 
L 68.870398 45.715342 
L 69.148443 43.516743 
L 70.260623 38.51606 
L 70.538668 37.899054 
L 70.816713 37.655945 
L 71.094758 37.617823 
L 71.372803 37.251544 
L 71.650848 37.384014 
L 71.928893 40.394185 
L 72.763029 68.569658 
L 73.041074 71.304864 
L 73.875209 75.306631 
L 74.431299 76.916584 
L 75.821524 78.974997 
L 76.09957 78.937106 
L 76.377615 79.838277 
L 76.65566 81.122316 
L 76.933705 83.162789 
L 77.21175 86.170355 
L 77.76784 95.084821 
L 78.045885 97.771221 
L 78.32393 98.727102 
L 78.601975 99.114519 
L 79.158065 99.560571 
L 79.714155 100.473614 
L 80.270246 101.016619 
L 80.548291 100.382663 
L 80.826336 100.614296 
L 81.382426 101.682069 
L 82.216561 103.406882 
L 82.494606 103.503968 
L 83.050696 102.853226 
L 83.606787 102.027407 
L 84.440922 101.656874 
L 84.718967 101.438465 
L 85.275057 100.264967 
L 86.109192 99.313241 
L 86.387237 99.021853 
L 87.221372 98.644263 
L 87.499418 98.311884 
L 88.055508 96.896101 
L 88.611598 95.15127 
L 88.889643 94.202743 
L 89.167688 93.683185 
L 89.445733 95.53051 
L 90.835958 97.576193 
L 91.114004 97.822962 
L 91.392049 97.909627 
L 91.948139 97.63542 
L 92.504229 96.7387 
L 92.782274 96.097918 
L 93.338364 93.770113 
L 93.616409 92.216518 
L 93.894454 89.429801 
L 94.450544 86.882896 
L 94.72859 86.026903 
L 95.006635 84.751834 
L 95.562725 83.759118 
L 95.84077 83.626054 
L 96.39686 82.876842 
L 96.95295 81.906715 
L 97.50904 80.685135 
L 98.343175 79.207817 
L 98.899266 79.207322 
L 99.455356 79.248577 
L 99.733401 79.185425 
L 100.011446 78.972919 
L 100.289491 78.317 
L 100.567536 75.88723 
L 101.123626 59.653114 
L 101.401671 58.127055 
L 101.679716 60.689163 
L 101.957761 61.062631 
L 102.235807 59.192783 
L 102.513852 55.747476 
L 102.791897 57.30681 
L 103.069942 58.184798 
L 104.182122 49.725749 
L 105.572347 43.545235 
L 105.850393 42.77838 
L 106.128438 42.695673 
L 106.406483 42.730365 
L 106.684528 41.989068 
L 106.962573 40.551916 
L 107.240618 53.66654 
L 107.518663 55.223862 
L 107.796708 55.736495 
L 108.074753 54.173699 
L 108.352798 51.886819 
L 108.630843 52.684541 
L 109.186933 67.492222 
L 109.743024 73.091906 
L 110.299114 77.553838 
L 110.855204 80.289374 
L 111.133249 80.785485 
L 111.411294 80.891112 
L 111.689339 80.872447 
L 111.967384 80.967586 
L 112.245429 82.36355 
L 112.801519 90.512381 
L 113.35761 98.379554 
L 113.9137 101.496209 
L 114.46979 104.969728 
L 115.303925 112.891527 
L 115.860015 119.339552 
L 116.13806 121.396382 
L 118.084376 148.848678 
L 118.918511 153.251631 
L 119.474601 154.453721 
L 119.752646 154.551927 
L 120.030691 154.268256 
L 120.308736 153.328468 
L 120.864827 148.891928 
L 121.420917 143.363954 
L 123.089187 121.055083 
L 123.645277 117.212267 
L 123.923322 116.118194 
L 124.479413 114.979273 
L 124.757458 114.532133 
L 125.035503 119.30862 
L 125.591593 117.479515 
L 126.147683 116.443235 
L 126.425728 116.440235 
L 126.703773 116.817446 
L 127.537908 118.397637 
L 128.093998 119.382077 
L 128.372044 119.612786 
L 128.650089 119.698164 
L 128.928134 119.305388 
L 130.318359 114.319775 
L 130.596404 113.536366 
L 130.874449 113.411349 
L 131.430539 113.560357 
L 131.98663 112.660125 
L 132.264675 111.466411 
L 132.54272 109.220094 
L 133.376855 98.611978 
L 133.6549 97.094954 
L 133.932945 96.638383 
L 134.489035 97.047632 
L 134.76708 96.771744 
L 135.32317 95.47369 
L 135.601215 94.062853 
L 135.879261 91.866332 
L 136.435351 77.19122 
L 136.713396 75.611869 
L 136.991441 76.539521 
L 137.269486 76.060064 
L 137.547531 72.84916 
L 138.103621 59.987735 
L 138.381666 60.734705 
L 138.659711 63.976476 
L 138.937756 65.227504 
L 139.215801 64.673353 
L 139.771892 62.420539 
L 140.884072 57.460187 
L 141.440162 52.827234 
L 141.718207 55.877803 
L 142.274297 68.286778 
L 142.830387 69.890961 
L 143.108433 67.92195 
L 143.386478 68.107942 
L 144.220613 87.693116 
L 144.498658 90.928226 
L 144.776703 92.565155 
L 145.610838 93.674875 
L 146.166928 93.387543 
L 146.444973 93.691364 
L 146.723018 95.132506 
L 147.001064 98.108678 
L 147.279109 99.263247 
L 148.391289 115.925904 
L 149.225424 124.487496 
L 149.781514 129.364794 
L 150.61565 137.371279 
L 151.449785 144.366399 
L 151.72783 144.515209 
L 152.005875 145.743334 
L 153.118055 153.104519 
L 153.674145 155.373623 
L 153.95219 155.525369 
L 154.230236 155.542039 
L 154.508281 155.274691 
L 155.064371 153.058862 
L 155.898506 147.647116 
L 157.566776 129.338907 
L 159.235047 119.107062 
L 159.791137 117.149363 
L 160.347227 114.677464 
L 160.903317 109.812004 
L 161.181362 108.621753 
L 161.459407 108.231186 
L 161.737453 108.484996 
L 162.293543 111.516883 
L 162.849633 114.406918 
L 163.127678 115.311981 
L 163.405723 115.777951 
L 163.683768 115.999476 
L 163.961813 115.951098 
L 164.795948 116.938011 
L 165.073993 116.069355 
L 165.352038 115.610376 
L 165.630084 115.373154 
L 166.742264 112.923086 
L 167.020309 111.522226 
L 167.854444 100.709501 
L 168.132489 99.154917 
L 168.410534 98.879655 
L 168.688579 99.210516 
L 168.966624 99.184398 
L 169.24467 98.410453 
L 169.522715 95.846334 
L 169.80076 94.696216 
L 170.078805 94.08109 
L 170.35685 90.524946 
L 170.634895 81.835781 
L 170.91294 77.979378 
L 171.190985 77.334836 
L 171.46903 73.105394 
L 172.02512 55.337568 
L 172.303165 55.543314 
L 172.859256 62.845683 
L 173.137301 62.839813 
L 173.415346 62.348121 
L 173.693391 62.158501 
L 173.971436 62.146893 
L 174.527526 60.723393 
L 174.805571 60.292116 
L 175.083616 59.558502 
L 175.361661 57.648719 
L 176.473841 42.674502 
L 176.751887 44.122735 
L 177.029932 50.667746 
L 177.864067 62.292125 
L 178.142112 70.234387 
L 178.420157 81.758482 
L 178.698202 87.439026 
L 179.254292 92.882232 
L 179.810382 93.379794 
L 180.088427 93.4317 
L 180.366473 93.227241 
L 180.644518 95.113544 
L 181.756698 114.784294 
L 182.590833 122.729853 
L 183.146923 125.573555 
L 183.424968 127.684962 
L 183.703013 130.676171 
L 183.981058 135.182887 
L 184.537149 147.22461 
L 184.815194 151.044359 
L 185.093239 153.205298 
L 185.649329 155.161991 
L 185.927374 155.359954 
L 186.483464 155.386946 
L 187.317599 156.156802 
L 187.595644 156.732306 
L 187.87369 158.067657 
L 188.151735 160.300817 
L 188.42978 164.677832 
L 188.98587 181.283388 
L 189.54196 195.786227 
L 190.09805 200.950874 
L 190.376095 201.509955 
L 190.65414 201.683102 
L 191.21023 203.367271 
L 191.488276 203.290978 
L 192.044366 197.639669 
L 192.322411 192.347746 
L 192.878501 171.575273 
L 193.434591 153.72568 
L 193.990681 143.339715 
L 194.546771 132.527865 
L 195.102861 125.658587 
L 195.658952 121.894059 
L 195.936997 120.799789 
L 196.493087 120.066389 
L 196.771132 120.181991 
L 197.049177 120.583952 
L 197.327222 121.269881 
L 198.439402 125.089992 
L 198.717447 125.577232 
L 199.273538 125.889494 
L 199.829628 125.982392 
L 200.941808 126.641097 
L 201.497898 127.483767 
L 201.775943 127.623096 
L 202.053988 127.529952 
L 202.332033 126.374591 
L 202.610079 122.423247 
L 203.166169 108.749755 
L 203.444214 105.802735 
L 204.000304 103.27527 
L 204.278349 102.917631 
L 204.556394 103.32345 
L 204.834439 102.770255 
L 205.112484 102.577634 
L 205.390529 99.056875 
L 205.946619 80.736415 
L 206.780755 65.71237 
L 207.336845 52.767941 
L 207.61489 50.129754 
L 207.892935 48.810529 
L 208.17098 49.015978 
L 209.28316 54.419842 
L 209.561205 54.179734 
L 209.83925 52.237039 
L 210.951431 38.876007 
L 211.229476 38.598305 
L 211.785566 46.809497 
L 212.063611 46.968876 
L 212.341656 50.144891 
L 212.619701 61.799807 
L 212.897746 78.689809 
L 213.175791 87.450172 
L 213.731881 93.370692 
L 214.009927 94.673725 
L 214.287972 95.028232 
L 214.566017 94.110637 
L 214.844062 93.944893 
L 215.122107 96.635052 
L 215.956242 115.50503 
L 216.512332 120.96855 
L 217.902558 129.761776 
L 218.458648 137.699338 
L 219.292783 151.259866 
L 219.570828 153.337932 
L 220.126918 155.205604 
L 222.073234 160.236989 
L 222.907369 162.741222 
L 223.185414 164.544357 
L 223.741504 172.636813 
L 224.019549 176.978626 
L 224.297594 179.073627 
L 224.575639 179.020137 
L 225.13173 174.409411 
L 226.521955 158.536991 
L 227.91218 146.426625 
L 228.46827 140.148433 
L 229.024361 135.648824 
L 229.858496 124.187551 
L 230.414586 121.022864 
L 230.970676 119.743179 
L 231.248721 119.588004 
L 231.526766 119.688321 
L 231.804811 119.924867 
L 232.082856 120.414795 
L 233.195037 124.920703 
L 233.473082 125.414538 
L 233.751127 125.661126 
L 234.307217 125.806985 
L 234.863307 125.313545 
L 235.141352 125.140563 
L 235.419397 125.654284 
L 235.975487 125.211381 
L 236.253533 124.818737 
L 236.809623 123.364271 
L 237.087668 121.052939 
L 237.643758 110.797664 
L 237.921803 106.473329 
L 238.199848 104.796333 
L 238.477893 104.071738 
L 238.755938 103.943655 
L 239.033983 104.24238 
L 239.312028 104.243221 
L 239.590073 103.882251 
L 239.868119 103.971388 
L 240.146164 102.62499 
L 240.424209 95.336537 
L 240.702254 81.46472 
L 241.258344 66.768766 
L 241.536389 56.178325 
L 241.814434 51.71204 
L 242.092479 51.091769 
L 242.370524 53.796504 
L 242.926614 60.226557 
L 243.204659 61.524875 
L 243.482704 62.133867 
L 243.76075 62.189764 
L 244.038795 62.023591 
L 244.594885 61.899233 
L 244.87293 61.570054 
L 245.150975 60.251653 
L 245.707065 55.202262 
L 246.263155 44.673522 
L 246.5412 43.936281 
L 246.819245 50.318582 
L 247.375336 57.962069 
L 247.653381 68.265178 
L 247.931426 83.032198 
L 248.209471 89.682342 
L 248.765561 95.876244 
L 249.043606 95.949981 
L 249.321651 94.80425 
L 249.599696 94.778593 
L 249.877741 96.73814 
L 250.433831 110.802347 
L 250.989921 122.2222 
L 251.267967 124.76228 
L 252.102102 129.391242 
L 252.380147 131.77524 
L 252.936237 140.139776 
L 253.770372 152.702954 
L 254.326462 156.304541 
L 254.882553 158.947262 
L 255.160598 160.901911 
L 255.438643 163.667753 
L 256.272778 177.356167 
L 257.106913 191.443475 
L 257.384958 194.674627 
L 257.663003 201.498215 
L 257.941048 203.027028 
L 258.219093 203.495949 
L 258.497139 203.531779 
L 258.775184 203.236698 
L 259.053229 203.258232 
L 259.331274 203.070822 
L 259.887364 203.200884 
L 260.165409 202.638489 
L 260.443454 201.2217 
L 260.721499 198.91045 
L 260.999544 195.446841 
L 261.555634 182.432104 
L 261.833679 174.109598 
L 262.111724 170.400291 
L 262.667815 157.403543 
L 263.223905 151.609607 
L 263.779995 146.038729 
L 264.892175 131.158465 
L 265.17022 127.301155 
L 265.448265 125.354833 
L 265.72631 124.491354 
L 266.004356 124.396676 
L 266.282401 124.547597 
L 266.560446 127.949852 
L 267.394581 129.270875 
L 267.672626 129.985791 
L 268.784806 133.903135 
L 269.062851 134.405825 
L 269.340896 134.383054 
L 270.175032 132.675752 
L 270.731122 131.588687 
L 271.009167 132.798395 
L 271.287212 132.49741 
L 271.565257 131.332239 
L 271.843302 128.493484 
L 272.677437 111.954723 
L 273.233527 108.469728 
L 273.789618 105.83723 
L 274.067663 103.793245 
L 274.623753 102.590693 
L 274.901798 101.328354 
L 275.735933 82.821308 
L 276.013978 77.930868 
L 276.570068 54.257461 
L 276.848113 53.837891 
L 277.404204 60.582712 
L 277.682249 62.263732 
L 277.960294 62.959751 
L 278.794429 61.561974 
L 279.072474 61.147878 
L 279.350519 60.236318 
L 280.184654 55.301326 
L 280.740744 48.166053 
L 281.01879 48.748169 
L 281.852925 72.829703 
L 282.13097 71.427243 
L 282.409015 76.637596 
L 282.68706 88.987938 
L 282.965105 94.034658 
L 283.24315 95.952554 
L 283.79924 97.40626 
L 284.077285 97.7052 
L 284.35533 100.384971 
L 284.633376 104.494277 
L 285.745556 126.715873 
L 286.579691 138.246547 
L 287.135781 141.146162 
L 287.691871 142.574262 
L 288.804052 144.709248 
L 289.360142 147.159546 
L 289.638187 149.062223 
L 290.472322 158.577372 
L 291.028412 170.006063 
L 291.584502 182.609869 
L 291.862547 186.500766 
L 292.140593 187.695122 
L 292.418638 187.764705 
L 292.696683 186.019841 
L 292.974728 183.45671 
L 293.252773 174.36692 
L 293.808863 170.847282 
L 294.642998 166.053746 
L 294.921043 164.605744 
L 295.199088 163.826918 
L 295.755179 160.499192 
L 296.033224 157.227312 
L 297.145404 140.359554 
L 297.423449 139.860343 
L 297.701494 140.635541 
L 297.979539 140.97585 
L 298.257584 140.422359 
L 298.813674 136.434327 
L 299.925855 126.220241 
L 300.2039 125.435215 
L 300.481945 125.241704 
L 300.75999 125.211414 
L 301.038035 125.365386 
L 301.87217 127.261368 
L 302.150215 128.522553 
L 303.818486 139.933569 
L 304.374576 141.316605 
L 304.652621 141.806451 
L 305.208711 142.097492 
L 305.486756 142.143265 
L 305.764801 141.748163 
L 306.042846 140.458205 
L 306.320891 137.669477 
L 307.711117 114.820239 
L 308.267207 109.979925 
L 309.101342 107.693953 
L 309.379387 105.310004 
L 309.657432 99.945021 
L 309.935477 89.29156 
L 310.213522 85.048433 
L 310.491567 84.947621 
L 310.769613 84.723837 
L 311.047658 79.844378 
L 311.325703 71.95 
L 311.603748 72.06542 
L 311.881793 73.361759 
L 312.159838 71.497551 
L 312.437883 68.460008 
L 312.715928 67.91242 
L 313.272018 67.946815 
L 313.550063 67.620141 
L 313.828108 66.793334 
L 314.384199 63.149998 
L 314.662244 63.422193 
L 314.940289 64.803646 
L 315.218334 67.165615 
L 315.496379 72.306814 
L 316.052469 87.687048 
L 316.330514 85.635396 
L 317.164649 76.901415 
L 317.442694 79.614592 
L 317.998785 108.003956 
L 318.27683 110.294628 
L 318.554875 109.532406 
L 319.110965 105.032319 
L 319.38901 104.284393 
L 319.667055 105.495865 
L 319.9451 110.793789 
L 320.779235 131.452276 
L 321.891416 143.891311 
L 322.169461 145.708791 
L 322.725551 147.177783 
L 323.003596 147.896787 
L 323.281641 149.502421 
L 324.393821 161.091877 
L 325.784047 181.842684 
L 326.340137 189.657125 
L 326.896227 195.176608 
L 327.452317 198.346159 
L 328.008407 199.99801 
L 328.286452 200.325953 
L 328.564497 200.422758 
L 328.842542 211.516251 
L 329.676678 211.555264 
L 330.788858 212.317254 
L 331.066903 212.037953 
L 331.344948 211.348809 
L 331.622993 209.609139 
L 331.901038 205.931243 
L 332.179083 195.887319 
L 333.013219 148.925664 
L 333.291264 140.430801 
L 333.569309 139.248316 
L 333.847354 138.88395 
L 334.125399 137.060122 
L 334.959534 129.262515 
L 335.515624 125.505688 
L 336.071714 123.486518 
L 336.349759 123.154651 
L 336.627805 123.726478 
L 337.46194 127.017665 
L 337.739985 132.217829 
L 338.296075 135.518563 
L 339.408255 140.160667 
L 339.964345 140.907851 
L 340.24239 140.90922 
L 340.520436 140.53369 
L 341.076526 139.085194 
L 341.354571 137.727154 
L 341.632616 135.111342 
L 343.300886 106.787867 
L 343.578931 106.096893 
L 343.856976 106.398735 
L 344.413067 108.558404 
L 344.691112 107.465337 
L 345.247202 89.118693 
L 345.525247 87.14932 
L 345.803292 87.09926 
L 346.081337 85.451218 
L 346.359382 79.37953 
L 346.637427 83.302217 
L 347.471562 73.340423 
L 347.749607 71.109638 
L 348.027653 70.622266 
L 349.139833 73.542706 
L 349.695923 76.221488 
L 349.973968 78.494715 
L 350.530058 94.163434 
L 350.808103 91.721627 
L 351.086148 86.984961 
L 351.364193 86.03739 
L 351.642239 86.46161 
L 352.198329 89.678846 
L 352.476374 95.896657 
L 352.754419 105.736533 
L 353.032464 106.580077 
L 353.588554 102.344353 
L 353.866599 101.636527 
L 354.144644 103.11965 
L 354.422689 109.131418 
L 355.256825 145.634031 
L 355.53487 151.032718 
L 355.812915 152.915625 
L 356.09096 151.838338 
L 356.369005 147.223176 
L 356.64705 144.465133 
L 356.925095 144.832006 
L 357.481185 146.13433 
L 357.75923 146.732506 
L 358.037275 148.701731 
L 358.87141 161.989602 
L 359.427501 170.832046 
L 359.705546 173.953516 
L 360.261636 182.380511 
L 362.207951 201.668526 
L 362.764042 204.167335 
L 363.042087 204.887378 
L 363.320132 205.280963 
L 364.154267 207.083883 
L 364.432312 212.922125 
L 364.710357 213.356337 
L 364.988402 213.489516 
L 365.266447 213.430767 
L 366.100582 212.387133 
L 366.378628 211.848564 
L 366.656673 210.851379 
L 366.934718 209.017146 
L 367.212763 205.861941 
L 367.490808 201.13126 
L 368.046898 185.128035 
L 369.159078 147.745933 
L 369.437123 144.390406 
L 369.993213 142.506461 
L 370.271259 142.12605 
L 370.549304 142.052791 
L 371.383439 142.61522 
L 371.939529 143.146303 
L 372.217574 143.18553 
L 373.051709 143.885029 
L 373.329754 142.491406 
L 373.607799 142.67669 
L 373.885845 142.641767 
L 374.441935 142.200497 
L 375.554115 140.53036 
L 375.83216 139.332277 
L 376.110205 137.499693 
L 377.222385 126.954547 
L 377.50043 125.960824 
L 377.778476 125.522259 
L 378.056521 124.318537 
L 378.334566 122.50813 
L 378.612611 119.185779 
L 378.890656 114.376463 
L 379.446746 109.692099 
L 380.002836 99.077453 
L 380.280881 99.086884 
L 380.558926 100.706236 
L 380.836971 100.484101 
L 381.115016 101.887715 
L 381.393062 100.256755 
L 381.949152 86.314795 
L 382.783287 81.308737 
L 383.061332 80.353746 
L 383.617422 79.744589 
L 384.173512 78.761337 
L 384.451557 79.295141 
L 385.285693 84.78191 
L 385.563738 89.533977 
L 386.119828 110.669498 
L 386.397873 109.795252 
L 386.953963 99.192346 
L 387.510053 93.89368 
L 387.788098 97.244704 
L 388.066143 103.379907 
L 388.622233 105.533607 
L 390.846594 139.784346 
L 391.124639 141.894401 
L 391.680729 153.065803 
L 392.79291 176.904856 
L 393.349 185.869233 
L 393.627045 188.062061 
L 394.183135 190.116599 
L 394.739225 191.551344 
L 395.295315 193.273437 
L 395.57336 193.051153 
L 396.407496 198.508176 
L 396.685541 201.151211 
L 397.797721 207.066801 
L 398.075766 208.087251 
L 398.353811 208.67959 
L 398.631856 208.80807 
L 399.187946 207.788427 
L 399.744036 206.583534 
L 400.022082 191.17372 
L 400.300127 189.920383 
L 400.856217 184.142095 
L 401.690352 175.358252 
L 402.524487 171.458715 
L 403.080577 168.619102 
L 403.636668 164.044123 
L 404.192758 160.598684 
L 404.470803 153.282217 
L 405.304938 148.329714 
L 405.582983 147.68786 
L 406.139073 145.624121 
L 406.417118 145.853034 
L 406.973208 147.166768 
L 407.251253 147.187676 
L 407.529299 146.667689 
L 407.807344 144.506206 
L 408.363434 143.163188 
L 408.641479 143.059985 
L 408.919524 134.463964 
L 409.197569 134.936266 
L 409.475614 134.851052 
L 409.753659 134.484344 
L 410.031704 135.151492 
L 411.143885 130.368443 
L 411.699975 128.180793 
L 412.256065 126.640075 
L 412.812155 125.6203 
L 413.0902 124.785924 
L 413.924335 115.520876 
L 414.480425 106.011432 
L 415.870651 85.147958 
L 416.426741 88.753535 
L 416.704786 88.000663 
L 416.982831 86.016515 
L 417.538921 78.251639 
L 417.816966 89.539781 
L 418.095011 87.825751 
L 418.651102 83.456353 
L 418.929147 82.575165 
L 419.207192 82.355503 
L 419.485237 82.977951 
L 419.763282 84.919063 
L 420.319372 92.570233 
L 420.597417 94.701888 
L 420.875462 95.570874 
L 421.153507 95.927623 
L 421.431552 97.728383 
L 421.709597 101.041682 
L 421.987642 106.25746 
L 422.265688 103.450973 
L 422.543733 108.429232 
L 423.099823 112.995521 
L 424.212003 123.313882 
L 424.768093 129.343178 
L 425.880273 145.262228 
L 426.436364 149.698108 
L 426.436364 149.698108 
" clip-path="url(#pd6d3756fbc)" style="fill: none; stroke: #ff00ff; stroke-width: 3; stroke-linecap: square"/>
   </g>
   <g id="patch_3">
    <path d="M 7.2 331.2 
L 7.2 7.2 
" style="fill: none; stroke: #000000; stroke-width: 0.8; stroke-linejoin: miter; stroke-linecap: square"/>
   </g>
   <g id="patch_4">
    <path d="M 446.4 331.2 
L 446.4 7.2 
" style="fill: none; stroke: #000000; stroke-width: 0.8; stroke-linejoin: miter; stroke-linecap: square"/>
   </g>
   <g id="patch_5">
    <path d="M 7.2 331.2 
L 446.4 331.2 
" style="fill: none; stroke: #000000; stroke-width: 0.8; stroke-linejoin: miter; stroke-linecap: square"/>
   </g>
   <g id="patch_6">
    <path d="M 7.2 7.2 
L 446.4 7.2 
" style="fill: none; stroke: #000000; stroke-width: 0.8; stroke-linejoin: miter; stroke-linecap: square"/>
   </g>
  </g>
 </g>
 <defs>
  <clipPath id="pd6d3756fbc">
   <rect x="7.2" y="7.2" width="439.2" height="324"/>
  </clipPath>
 </defs>
</svg>
