<?xml version="1.0" encoding="utf-8" standalone="no"?>
<!DOCTYPE svg PUBLIC "-//W3C//DTD SVG 1.1//EN"
  "http://www.w3.org/Graphics/SVG/1.1/DTD/svg11.dtd">
<svg xmlns:xlink="http://www.w3.org/1999/xlink" width="453.6pt" height="338.4pt" viewBox="0 0 453.6 338.4" xmlns="http://www.w3.org/2000/svg" version="1.1">
 <metadata>
  <rdf:RDF xmlns:dc="http://purl.org/dc/elements/1.1/" xmlns:cc="http://creativecommons.org/ns#" xmlns:rdf="http://www.w3.org/1999/02/22-rdf-syntax-ns#">
   <cc:Work>
    <dc:type rdf:resource="http://purl.org/dc/dcmitype/StillImage"/>
    <dc:date>2025-05-15T16:50:50.706030</dc:date>
    <dc:format>image/svg+xml</dc:format>
    <dc:creator>
     <cc:Agent>
      <dc:title>Matplotlib v3.10.1, https://matplotlib.org/</dc:title>
     </cc:Agent>
    </dc:creator>
   </cc:Work>
  </rdf:RDF>
 </metadata>
 <defs>
  <style type="text/css">*{stroke-linejoin: round; stroke-linecap: butt}</style>
 </defs>
 <g id="figure_1">
  <g id="patch_1">
   <path d="M 0 338.4 
L 453.6 338.4 
L 453.6 0 
L 0 0 
z
" style="fill: #ffffff"/>
  </g>
  <g id="axes_1">
   <g id="patch_2">
    <path d="M 7.2 331.2 
L 446.4 331.2 
L 446.4 7.2 
L 7.2 7.2 
z
" style="fill: #ffffff"/>
   </g>
   <g id="matplotlib.axis_1"/>
   <g id="matplotlib.axis_2"/>
   <g id="line2d_1">
    <path d="M 27.163636 168.49792 
L 28.275817 185.189233 
L 29.109952 194.487449 
L 29.666042 198.900829 
L 30.222132 201.802027 
L 30.778222 203.247579 
L 31.056267 203.483251 
L 31.334312 203.447019 
L 31.612358 203.190035 
L 32.168448 202.263051 
L 33.002583 200.889626 
L 33.280628 200.717331 
L 33.558673 200.78912 
L 33.836718 201.151322 
L 34.114763 201.836239 
L 34.670853 204.220553 
L 35.226944 207.864213 
L 36.617169 219.717466 
L 37.451304 225.514928 
L 38.007394 227.516737 
L 38.285439 227.794249 
L 38.563484 227.549042 
L 38.84153 226.769788 
L 39.39762 223.633479 
L 39.95371 218.550436 
L 40.787845 207.947893 
L 41.900025 189.952251 
L 43.290251 163.260642 
L 44.680476 132.108317 
L 46.904837 80.410472 
L 47.738972 66.622712 
L 48.295062 60.845554 
L 48.573107 59.116545 
L 48.851152 58.181037 
L 49.129197 58.029493 
L 49.407242 58.635779 
L 49.685287 59.95682 
L 50.241378 64.507498 
L 51.075513 75.005273 
L 52.465738 97.429101 
L 54.412054 129.182328 
L 55.246189 140.384091 
L 55.802279 145.998825 
L 56.358369 149.444279 
L 56.636414 150.177655 
L 56.914459 150.178215 
L 57.192504 149.411861 
L 57.47055 147.86715 
L 58.02664 142.53004 
L 58.58273 134.629142 
L 60.529045 102.576979 
L 61.085135 97.649966 
L 61.363181 96.569084 
L 61.641226 96.494153 
L 61.919271 97.441103 
L 62.197316 99.392323 
L 62.753406 106.07448 
L 63.587541 121.507904 
L 66.367992 180.944672 
L 67.202127 194.020704 
L 68.036262 204.184546 
L 68.592352 209.118064 
L 69.148443 212.240352 
L 69.426488 213.015456 
L 69.704533 213.215569 
L 69.982578 212.817922 
L 70.260623 211.813316 
L 70.816713 208.060401 
L 71.372803 202.347965 
L 73.041074 182.767455 
L 73.597164 179.42733 
L 73.875209 178.959576 
L 74.153254 179.397829 
L 74.431299 180.776863 
L 74.987389 186.312068 
L 75.543479 195.094184 
L 76.65566 218.025026 
L 77.489795 234.238041 
L 78.045885 241.996257 
L 78.601975 246.210084 
L 78.88002 246.836224 
L 79.158065 246.457309 
L 79.43611 245.095325 
L 79.992201 239.634041 
L 80.548291 231.067856 
L 81.382426 214.192245 
L 84.440922 147.426878 
L 85.275057 133.809843 
L 86.109192 123.530465 
L 86.665282 118.930769 
L 87.221372 116.426096 
L 87.499418 116.02385 
L 87.777463 116.212185 
L 88.055508 116.997272 
L 88.333553 118.374511 
L 88.889643 122.835452 
L 89.445733 129.33275 
L 90.279868 141.907938 
L 92.504229 178.210608 
L 93.338364 188.489762 
L 94.172499 196.177983 
L 95.006635 201.631639 
L 95.84077 205.270476 
L 96.39686 206.784003 
L 96.95295 207.552713 
L 97.230995 207.645703 
L 97.50904 207.540038 
L 97.787085 207.237848 
L 98.343175 206.08484 
L 99.177311 203.319929 
L 100.289491 199.418387 
L 100.845581 198.315519 
L 101.123626 198.147935 
L 101.401671 198.283326 
L 101.679716 198.743004 
L 102.235807 200.655637 
L 102.791897 203.783197 
L 103.904077 212.228574 
L 104.738212 218.291657 
L 105.294302 221.08046 
L 105.572347 221.90447 
L 105.850393 222.282936 
L 106.128438 222.178505 
L 106.406483 221.565713 
L 106.684528 220.428632 
L 107.240618 216.564555 
L 107.796708 210.625309 
L 108.630843 198.103852 
L 109.464978 181.742434 
L 110.577159 154.977689 
L 112.523474 100.382011 
L 113.9137 64.566276 
L 114.747835 48.691793 
L 115.303925 41.374074 
L 115.860015 36.890027 
L 116.13806 35.708526 
L 116.416105 35.210486 
L 116.69415 35.365843 
L 116.972195 36.137694 
L 117.528286 39.355552 
L 118.084376 44.484921 
L 118.918511 54.928405 
L 120.030691 72.239914 
L 123.645277 131.538262 
L 124.479413 141.088526 
L 125.313548 148.021834 
L 126.147683 152.617268 
L 126.981818 155.645893 
L 128.093998 159.1757 
L 128.650089 161.519968 
L 129.206179 164.671532 
L 129.762269 168.868197 
L 130.596404 177.420698 
L 131.430539 188.69683 
L 132.54272 207.015974 
L 134.489035 239.890801 
L 135.32317 250.307028 
L 135.879261 255.053445 
L 136.435351 257.81241 
L 136.713396 258.433054 
L 136.991441 258.563285 
L 137.269486 258.224415 
L 137.547531 257.450545 
L 138.103621 254.767632 
L 138.937756 248.715654 
L 140.606027 235.335301 
L 141.162117 232.11217 
L 141.718207 230.027803 
L 141.996252 229.467508 
L 142.274297 229.244623 
L 142.552342 229.364759 
L 142.830387 229.828475 
L 143.386478 231.766683 
L 143.942568 234.981737 
L 144.776703 241.906632 
L 145.888883 254.055569 
L 148.113244 280.056427 
L 148.947379 286.936005 
L 149.503469 289.813535 
L 149.781514 290.66615 
L 150.059559 291.111918 
L 150.337604 291.150169 
L 150.61565 290.787182 
L 150.893695 290.042477 
L 151.449785 287.522998 
L 152.28392 281.853299 
L 153.674145 271.658947 
L 154.230236 269.022136 
L 154.508281 268.27788 
L 154.786326 267.983206 
L 155.064371 268.17199 
L 155.342416 268.867116 
L 155.620461 270.074303 
L 156.176551 273.975958 
L 156.732641 279.62468 
L 157.844821 294.071558 
L 158.957002 307.970928 
L 159.513092 312.928002 
L 160.069182 315.848606 
L 160.347227 316.454668 
L 160.625272 316.472727 
L 160.903317 315.908618 
L 161.181362 314.781857 
L 161.737453 310.981269 
L 162.293543 305.451336 
L 163.405723 291.174398 
L 165.352038 265.500743 
L 166.186174 256.986268 
L 167.020309 250.807985 
L 167.576399 248.18026 
L 168.132489 246.854957 
L 168.410534 246.700048 
L 168.688579 246.885018 
L 168.966624 247.40583 
L 169.522715 249.399675 
L 170.078805 252.49134 
L 171.190985 260.539631 
L 172.02512 266.197439 
L 172.58121 268.705701 
L 172.859256 269.378168 
L 173.137301 269.586695 
L 173.415346 269.287197 
L 173.693391 268.4458 
L 173.971436 267.04007 
L 174.527526 262.510032 
L 175.083616 255.762592 
L 175.917751 242.03619 
L 177.029932 219.128455 
L 179.532337 165.520669 
L 180.644518 146.734893 
L 181.478653 135.764203 
L 182.312788 127.434812 
L 183.146923 121.377337 
L 183.981058 117.010957 
L 184.815194 113.728376 
L 185.927374 110.324202 
L 186.761509 108.3538 
L 187.595644 106.979029 
L 188.151735 106.416041 
L 188.98587 105.947502 
L 189.820005 105.469316 
L 190.376095 104.801223 
L 190.932185 103.629818 
L 191.488276 101.853698 
L 192.322411 98.173021 
L 193.712636 91.754916 
L 194.268726 90.462927 
L 194.546771 90.352999 
L 194.824816 90.677623 
L 195.102861 91.484695 
L 195.380907 92.809326 
L 195.936997 97.099991 
L 196.493087 103.589325 
L 197.327222 117.047188 
L 198.439402 139.948754 
L 201.497898 206.538236 
L 202.610079 225.795244 
L 203.444214 236.898856 
L 204.000304 242.191659 
L 204.556394 245.460779 
L 204.834439 246.262468 
L 205.112484 246.481314 
L 205.390529 246.107559 
L 205.668574 245.140418 
L 206.224664 241.482736 
L 206.780755 235.728124 
L 207.61489 224.068815 
L 210.117296 185.835565 
L 210.951431 177.905727 
L 211.507521 174.696394 
L 212.063611 173.058244 
L 212.341656 172.760429 
L 212.619701 172.759307 
L 212.897746 173.012366 
L 213.453836 174.088425 
L 215.122107 178.251214 
L 215.400152 178.554974 
L 215.678197 178.6188 
L 215.956242 178.397598 
L 216.234287 177.848183 
L 216.512332 176.930397 
L 217.068422 173.841873 
L 217.624513 168.896801 
L 218.180603 161.980992 
L 219.014738 148.089362 
L 220.404963 119.063131 
L 221.517144 97.647499 
L 222.073234 90.205494 
L 222.629324 86.07344 
L 222.907369 85.431259 
L 223.185414 85.794245 
L 223.463459 87.178551 
L 223.741504 89.575876 
L 224.297594 97.278006 
L 224.853684 108.449819 
L 225.68782 130.199946 
L 229.302406 234.300408 
L 229.858496 244.466269 
L 230.414586 251.441641 
L 230.692631 253.581421 
L 230.970676 254.761799 
L 231.248721 254.955631 
L 231.526766 254.156411 
L 231.804811 252.380627 
L 232.360901 246.092977 
L 232.916992 236.757184 
L 235.141352 194.627887 
L 235.697442 190.203291 
L 235.975487 189.661391 
L 236.253533 190.287868 
L 236.531578 192.07285 
L 237.087668 198.864934 
L 237.643758 209.155305 
L 239.868119 255.169542 
L 240.424209 260.49566 
L 240.702254 261.577888 
L 240.980299 261.568017 
L 241.258344 260.4776 
L 241.536389 258.342756 
L 242.092479 251.194528 
L 242.648569 240.77774 
L 243.482704 220.704125 
L 244.87293 180.901037 
L 247.653381 100.295414 
L 248.487516 82.679697 
L 249.043606 74.80258 
L 249.599696 70.736258 
L 249.877741 70.239451 
L 250.155786 70.776191 
L 250.433831 72.321463 
L 250.989921 78.192957 
L 251.546012 87.116072 
L 254.326462 138.033429 
L 254.882553 143.133521 
L 255.438643 145.949357 
L 255.716688 146.622722 
L 255.994733 146.895186 
L 256.272778 146.836857 
L 256.550823 146.51829 
L 257.106913 145.343745 
L 257.941048 142.867114 
L 259.053229 138.742688 
L 259.887364 134.784275 
L 261.555634 126.213378 
L 261.833679 125.335862 
L 262.111724 124.829184 
L 262.38977 124.776352 
L 262.667815 125.252182 
L 262.94586 126.32039 
L 263.50195 130.405668 
L 264.05804 137.18575 
L 264.892175 151.956579 
L 266.004356 177.34072 
L 267.950671 222.759215 
L 269.062851 243.792568 
L 269.896987 256.185702 
L 270.453077 262.424108 
L 271.009167 266.630644 
L 271.287212 267.843889 
L 271.565257 268.399474 
L 271.843302 268.258362 
L 272.121347 267.394307 
L 272.399392 265.794183 
L 272.955482 260.437891 
L 273.511573 252.498182 
L 274.623753 231.725067 
L 275.735933 211.116059 
L 276.292023 203.283361 
L 276.848113 197.882874 
L 277.404204 195.001867 
L 277.682249 194.421044 
L 277.960294 194.321548 
L 278.238339 194.612071 
L 278.794429 195.938946 
L 279.628564 198.097234 
L 279.906609 198.431392 
L 280.184654 198.421745 
L 280.462699 197.997625 
L 280.740744 197.104742 
L 281.296835 193.779087 
L 281.852925 188.33418 
L 282.68706 176.489901 
L 283.79924 155.651726 
L 286.023601 111.322302 
L 286.857736 98.784467 
L 287.413826 92.573542 
L 287.969916 88.174969 
L 288.526007 85.485438 
L 288.804052 84.711231 
L 289.082097 84.267818 
L 289.360142 84.11448 
L 289.638187 84.209377 
L 289.916232 84.5128 
L 290.472322 85.616005 
L 291.028412 87.233403 
L 291.862547 90.546382 
L 292.418638 93.504564 
L 292.974728 97.290906 
L 293.808863 104.940989 
L 294.642998 115.224629 
L 295.755179 132.57809 
L 297.701494 168.15647 
L 299.925855 207.863091 
L 301.038035 223.764831 
L 301.87217 232.595068 
L 302.706305 238.624051 
L 303.540441 242.524135 
L 305.208711 248.914646 
L 306.042846 253.437168 
L 307.155027 261.148272 
L 308.823297 273.152396 
L 309.657432 277.87907 
L 310.213522 280.181723 
L 310.769613 281.56816 
L 311.047658 281.833108 
L 311.325703 281.759748 
L 311.603748 281.303996 
L 311.881793 280.423564 
L 312.437883 277.231169 
L 312.993973 271.947564 
L 313.550063 264.53607 
L 314.384199 250.048922 
L 316.330514 213.763302 
L 316.886604 206.984229 
L 317.442694 203.040398 
L 317.720739 202.170286 
L 317.998785 201.998439 
L 318.27683 202.462604 
L 318.554875 203.477081 
L 319.110965 206.716364 
L 320.50119 215.848566 
L 320.779235 216.865287 
L 321.05728 217.387108 
L 321.335325 217.355475 
L 321.61337 216.731242 
L 321.891416 215.496348 
L 322.447506 211.209161 
L 323.003596 204.667331 
L 323.837731 191.365722 
L 324.949911 169.106786 
L 328.286452 97.992538 
L 328.842542 90.97712 
L 329.120587 88.691966 
L 329.398633 87.342882 
L 329.676678 87.006481 
L 329.954723 87.739744 
L 330.232768 89.579354 
L 330.788858 96.602623 
L 331.344948 107.860247 
L 332.179083 131.194233 
L 334.681489 210.571692 
L 335.515624 227.580899 
L 336.071714 234.564235 
L 336.627805 238.067569 
L 336.90585 238.573574 
L 337.183895 238.292921 
L 337.46194 237.25859 
L 338.01803 233.056653 
L 338.57412 226.186834 
L 339.13021 216.830177 
L 339.964345 198.590226 
L 341.354571 160.622597 
L 342.466751 131.148242 
L 343.022841 119.923933 
L 343.578931 112.506943 
L 343.856976 110.459031 
L 344.135022 109.584095 
L 344.413067 109.885612 
L 344.691112 111.330827 
L 345.247202 117.339282 
L 345.803292 126.665765 
L 348.027653 168.943913 
L 348.583743 174.411479 
L 348.861788 175.885409 
L 349.139833 176.50897 
L 349.417878 176.302126 
L 349.695923 175.303465 
L 350.252013 171.148191 
L 350.808103 164.521672 
L 351.642239 150.920677 
L 352.476374 133.779108 
L 353.588554 106.209085 
L 356.09096 39.059532 
L 356.64705 29.06563 
L 357.20314 23.138274 
L 357.481185 21.927273 
L 357.75923 21.953521 
L 358.037275 23.231376 
L 358.31532 25.74334 
L 358.87141 34.255011 
L 359.427501 46.801258 
L 360.261636 70.974061 
L 363.042087 158.183993 
L 364.154267 185.258331 
L 364.988402 200.962874 
L 365.544492 208.711443 
L 366.100582 213.876819 
L 366.378628 215.395394 
L 366.656673 216.172853 
L 366.934718 216.202242 
L 367.212763 215.49388 
L 367.490808 214.077381 
L 368.046898 209.336798 
L 368.881033 198.758483 
L 370.271259 179.824305 
L 370.827349 174.661508 
L 371.383439 171.982746 
L 371.661484 171.693007 
L 371.939529 172.125091 
L 372.217574 173.270472 
L 372.773664 177.580093 
L 373.329754 184.234768 
L 374.16389 197.359819 
L 376.38825 235.3141 
L 377.222385 245.056738 
L 377.778476 248.955925 
L 378.056521 250.004839 
L 378.334566 250.412581 
L 378.612611 250.159186 
L 378.890656 249.229735 
L 379.168701 247.620413 
L 379.724791 242.388071 
L 380.280881 234.616619 
L 381.115016 218.929575 
L 382.505242 186.579933 
L 383.895467 155.920713 
L 384.729602 142.833351 
L 385.285693 137.410205 
L 385.563738 135.804922 
L 385.841783 134.960833 
L 386.119828 134.879957 
L 386.397873 135.551078 
L 386.675918 136.951312 
L 387.232008 141.786008 
L 387.788098 148.974954 
L 388.622233 162.948581 
L 390.846594 203.409554 
L 391.680729 214.196956 
L 392.236819 219.013704 
L 392.79291 221.777268 
L 393.070955 222.398585 
L 393.349 222.540594 
L 393.627045 222.237619 
L 393.90509 221.538006 
L 394.46118 219.191832 
L 396.12945 210.810504 
L 396.407496 210.28285 
L 396.685541 210.272755 
L 396.963586 210.86502 
L 397.241631 212.128854 
L 397.797721 216.848573 
L 398.353811 224.566856 
L 399.187946 241.10012 
L 401.690352 297.478986 
L 402.246442 304.427437 
L 402.524487 306.554765 
L 402.802532 307.744903 
L 403.080577 307.998298 
L 403.358622 307.338394 
L 403.636668 305.809387 
L 404.192758 300.404301 
L 404.748848 292.432847 
L 405.861028 271.913576 
L 407.529299 240.663998 
L 408.363434 228.835423 
L 408.919524 223.152824 
L 409.475614 219.45936 
L 409.753659 218.38947 
L 410.031704 217.839494 
L 410.309749 217.803151 
L 410.587794 218.264624 
L 410.865839 219.198674 
L 411.42193 222.344855 
L 412.256065 229.489718 
L 413.924335 245.59617 
L 414.480425 249.26978 
L 415.036516 251.234797 
L 415.314561 251.469123 
L 415.592606 251.170299 
L 415.870651 250.323069 
L 416.426741 246.981598 
L 416.982831 241.532316 
L 417.816966 229.898021 
L 418.929147 209.64583 
L 422.265688 143.919842 
L 423.099823 131.943761 
L 423.933958 123.26619 
L 424.490048 119.476033 
L 425.046138 117.301705 
L 425.324183 116.805684 
L 425.602228 116.68824 
L 425.880273 116.934232 
L 426.158319 117.526272 
L 426.436364 118.445852 
L 426.436364 118.445852 
" clip-path="url(#p191e0758a5)" style="fill: none; stroke-dasharray: 11.1,4.8; stroke-dashoffset: 0; stroke: #000000; stroke-width: 3"/>
   </g>
   <g id="line2d_2">
    <path d="M 27.163636 191.163253 
L 27.997772 189.814393 
L 28.831907 188.933624 
L 29.666042 188.403053 
L 31.612358 187.385996 
L 32.446493 186.649255 
L 33.558673 185.280877 
L 37.451304 179.878035 
L 38.563484 178.842133 
L 39.95371 177.862653 
L 41.900025 176.817104 
L 44.402431 175.741942 
L 46.348747 175.114007 
L 48.017017 174.782653 
L 49.685287 174.691234 
L 51.353558 174.861061 
L 56.358369 175.683501 
L 58.304685 175.531621 
L 60.529045 175.384452 
L 62.197316 175.512216 
L 63.865586 175.862078 
L 69.704533 177.364051 
L 71.650848 177.42081 
L 74.431299 177.447507 
L 76.09957 177.706959 
L 80.270246 178.578754 
L 81.938516 178.578754 
L 84.718967 178.556096 
L 86.943327 178.848526 
L 89.445733 179.138938 
L 95.562725 179.362159 
L 97.230995 179.245164 
L 99.177311 178.847517 
L 101.123626 178.487335 
L 102.513852 178.455142 
L 104.182122 178.684083 
L 106.962573 179.369338 
L 110.299114 180.140179 
L 111.967384 180.299238 
L 114.46979 180.258295 
L 116.69415 180.30608 
L 120.586781 180.509335 
L 123.367232 180.26783 
L 125.313548 180.207033 
L 126.981818 180.366877 
L 128.650089 180.732556 
L 130.040314 181.2334 
L 131.708584 182.107664 
L 134.21099 183.490287 
L 135.045125 183.726408 
L 135.879261 183.759274 
L 136.713396 183.585857 
L 138.103621 182.981927 
L 139.493847 182.401889 
L 140.327982 182.282875 
L 141.162117 182.423201 
L 141.996252 182.82814 
L 143.108433 183.678847 
L 145.332793 185.537638 
L 146.444973 186.131472 
L 147.557154 186.403039 
L 148.669334 186.415378 
L 150.61565 186.149532 
L 157.844821 185.098599 
L 159.235047 185.173866 
L 160.625272 185.472578 
L 163.683768 186.213694 
L 165.073993 186.296364 
L 173.415346 186.105336 
L 177.029932 185.783629 
L 178.698202 185.913299 
L 182.868878 186.396758 
L 185.371284 186.302085 
L 188.151735 186.256543 
L 192.600456 186.243644 
L 197.327222 186.136296 
L 203.722259 186.067871 
L 208.72707 185.87718 
L 212.897746 185.615148 
L 214.844062 185.766804 
L 218.736693 186.172527 
L 220.961053 186.120816 
L 224.297594 185.79709 
L 229.580451 185.183401 
L 231.248721 185.277961 
L 235.697442 185.697033 
L 237.087668 185.525187 
L 239.312028 184.979024 
L 240.980299 184.642959 
L 242.370524 184.569151 
L 244.31684 184.729107 
L 247.375336 184.98811 
L 254.326462 185.1963 
L 259.609319 184.804149 
L 262.111724 184.757037 
L 263.50195 184.484798 
L 264.892175 183.950189 
L 266.838491 182.891292 
L 268.784806 181.860662 
L 270.175032 181.352302 
L 271.565257 181.074566 
L 273.511573 180.959702 
L 277.404204 180.851569 
L 278.794429 180.584602 
L 280.462699 180.022736 
L 282.68706 179.243369 
L 283.79924 179.085993 
L 284.911421 179.175954 
L 286.023601 179.501251 
L 287.691871 180.26783 
L 290.194277 181.441478 
L 291.862547 181.946361 
L 293.530818 182.177658 
L 295.199088 182.156795 
L 296.589314 181.92202 
L 297.979539 181.45191 
L 300.2039 180.371364 
L 301.594125 179.78841 
L 302.706305 179.536585 
L 303.818486 179.511571 
L 305.208711 179.728622 
L 309.101342 180.50081 
L 311.881793 180.939736 
L 313.272018 181.412089 
L 315.218334 182.382371 
L 317.164649 183.329433 
L 318.554875 183.750637 
L 319.9451 183.917211 
L 322.725551 183.90734 
L 326.618182 183.86449 
L 328.008407 183.55658 
L 329.676678 182.950294 
L 332.457128 181.702501 
L 334.681489 180.46413 
L 336.627805 179.422507 
L 337.739985 179.076683 
L 338.852165 179.01039 
L 339.964345 179.208933 
L 343.578931 180.174279 
L 344.413067 180.098227 
L 345.525247 179.72077 
L 346.915472 178.913474 
L 349.139833 177.548573 
L 350.252013 177.13511 
L 351.364193 176.973022 
L 352.754419 177.046607 
L 356.369005 177.44717 
L 357.75923 177.348011 
L 359.149456 177.002972 
L 360.261636 176.485302 
L 361.373816 175.691914 
L 362.485996 174.603291 
L 364.154267 172.569065 
L 366.100582 170.239716 
L 367.212763 169.234997 
L 368.324943 168.534151 
L 369.437123 168.088831 
L 370.827349 167.769592 
L 373.329754 167.487929 
L 376.666295 167.325505 
L 378.056521 167.452596 
L 379.446746 167.785856 
L 381.671107 168.615251 
L 383.339377 169.138979 
L 384.451557 169.277735 
L 385.563738 169.212227 
L 387.232008 168.850923 
L 392.514865 167.39034 
L 395.57336 165.896892 
L 396.407496 165.855164 
L 397.241631 166.111027 
L 398.075766 166.651917 
L 399.465991 167.953777 
L 400.856217 169.225463 
L 401.690352 169.741339 
L 402.524487 169.995968 
L 403.358622 170.003147 
L 404.470803 169.751995 
L 406.417118 169.284802 
L 407.529299 169.311947 
L 408.641479 169.576335 
L 411.143885 170.316553 
L 412.256065 170.412347 
L 413.64629 170.282565 
L 415.592606 169.81582 
L 417.538921 169.116208 
L 419.763282 168.024445 
L 421.987642 166.953658 
L 423.377868 166.52707 
L 424.490048 166.388875 
L 425.602228 166.448775 
L 426.436364 166.623537 
L 426.436364 166.623537 
" clip-path="url(#p191e0758a5)" style="fill: none; stroke: #ff00ff; stroke-width: 3; stroke-linecap: square"/>
   </g>
   <g id="patch_3">
    <path d="M 7.2 331.2 
L 7.2 7.2 
" style="fill: none; stroke: #000000; stroke-width: 0.8; stroke-linejoin: miter; stroke-linecap: square"/>
   </g>
   <g id="patch_4">
    <path d="M 446.4 331.2 
L 446.4 7.2 
" style="fill: none; stroke: #000000; stroke-width: 0.8; stroke-linejoin: miter; stroke-linecap: square"/>
   </g>
   <g id="patch_5">
    <path d="M 7.2 331.2 
L 446.4 331.2 
" style="fill: none; stroke: #000000; stroke-width: 0.8; stroke-linejoin: miter; stroke-linecap: square"/>
   </g>
   <g id="patch_6">
    <path d="M 7.2 7.2 
L 446.4 7.2 
" style="fill: none; stroke: #000000; stroke-width: 0.8; stroke-linejoin: miter; stroke-linecap: square"/>
   </g>
  </g>
 </g>
 <defs>
  <clipPath id="p191e0758a5">
   <rect x="7.2" y="7.2" width="439.2" height="324"/>
  </clipPath>
 </defs>
</svg>
