<?xml version="1.0" encoding="utf-8" standalone="no"?>
<!DOCTYPE svg PUBLIC "-//W3C//DTD SVG 1.1//EN"
  "http://www.w3.org/Graphics/SVG/1.1/DTD/svg11.dtd">
<svg xmlns:xlink="http://www.w3.org/1999/xlink" width="453.6pt" height="338.4pt" viewBox="0 0 453.6 338.4" xmlns="http://www.w3.org/2000/svg" version="1.1">
 <metadata>
  <rdf:RDF xmlns:dc="http://purl.org/dc/elements/1.1/" xmlns:cc="http://creativecommons.org/ns#" xmlns:rdf="http://www.w3.org/1999/02/22-rdf-syntax-ns#">
   <cc:Work>
    <dc:type rdf:resource="http://purl.org/dc/dcmitype/StillImage"/>
    <dc:date>2025-05-15T17:03:39.063937</dc:date>
    <dc:format>image/svg+xml</dc:format>
    <dc:creator>
     <cc:Agent>
      <dc:title>Matplotlib v3.10.1, https://matplotlib.org/</dc:title>
     </cc:Agent>
    </dc:creator>
   </cc:Work>
  </rdf:RDF>
 </metadata>
 <defs>
  <style type="text/css">*{stroke-linejoin: round; stroke-linecap: butt}</style>
 </defs>
 <g id="figure_1">
  <g id="patch_1">
   <path d="M 0 338.4 
L 453.6 338.4 
L 453.6 0 
L 0 0 
z
" style="fill: #ffffff"/>
  </g>
  <g id="axes_1">
   <g id="patch_2">
    <path d="M 7.2 331.2 
L 446.4 331.2 
L 446.4 7.2 
L 7.2 7.2 
z
" style="fill: #ffffff"/>
   </g>
   <g id="matplotlib.axis_1"/>
   <g id="matplotlib.axis_2"/>
   <g id="line2d_1">
    <path d="M 27.163636 293.810785 
L 30.222132 280.665674 
L 30.778222 279.26296 
L 31.334312 278.445822 
L 31.612358 278.272354 
L 31.890403 278.258761 
L 32.168448 278.404184 
L 32.724538 279.156752 
L 33.280628 280.478324 
L 34.114763 283.347664 
L 35.226944 288.287117 
L 37.729349 299.939557 
L 38.563484 302.910339 
L 39.39762 305.021937 
L 39.95371 305.854138 
L 40.5098 306.167026 
L 40.787845 306.115678 
L 41.06589 305.920237 
L 41.62198 305.086351 
L 42.17807 303.655497 
L 42.734161 301.639959 
L 43.568296 297.611793 
L 44.680476 290.785589 
L 47.460927 272.53645 
L 48.573107 267.140623 
L 49.407242 264.14869 
L 50.241378 261.920814 
L 51.353558 259.696136 
L 52.743783 257.052719 
L 53.577918 254.902348 
L 54.134009 252.97288 
L 54.690099 250.467173 
L 55.246189 247.203525 
L 55.802279 242.974783 
L 56.636414 234.319391 
L 57.47055 222.184094 
L 58.304685 205.882834 
L 59.13882 185.045455 
L 60.251 150.680802 
L 63.309496 48.421245 
L 63.865586 35.88224 
L 64.421676 27.120679 
L 64.977767 22.563927 
L 65.255812 21.927273 
L 65.533857 22.387644 
L 65.811902 23.927396 
L 66.367992 30.103454 
L 66.924082 40.054077 
L 67.758217 60.829265 
L 68.870398 96.054015 
L 72.484984 217.988967 
L 73.597164 246.557048 
L 74.431299 263.581258 
L 75.265434 276.807777 
L 76.09957 286.498315 
L 76.933705 293.085715 
L 77.489795 296.008116 
L 78.045885 297.938633 
L 78.601975 299.029053 
L 79.158065 299.42534 
L 79.43611 299.407328 
L 79.992201 299.024259 
L 80.548291 298.287106 
L 81.660471 296.236737 
L 83.050696 293.649236 
L 83.884832 292.515953 
L 84.718967 291.829291 
L 85.275057 291.615944 
L 86.109192 291.60232 
L 86.943327 291.845136 
L 89.723778 292.899139 
L 90.835958 293.006606 
L 92.226184 292.870295 
L 94.450544 292.369209 
L 96.39686 291.763244 
L 98.06513 291.005216 
L 100.289491 289.717806 
L 101.123626 289.067019 
L 101.679716 288.454078 
L 102.235807 287.57255 
L 102.791897 286.272072 
L 103.347987 284.368076 
L 103.904077 281.652057 
L 104.460167 277.910433 
L 105.016257 272.950568 
L 105.850393 262.940529 
L 106.684528 249.797538 
L 107.796708 228.347701 
L 110.021069 183.711956 
L 110.855204 170.940294 
L 111.689339 161.777238 
L 112.245429 157.709763 
L 112.801519 155.142827 
L 113.35761 153.892731 
L 113.635655 153.699397 
L 113.9137 153.762637 
L 114.191745 154.061819 
L 114.747835 155.301639 
L 115.303925 157.318608 
L 115.860015 160.059967 
L 116.69415 165.482791 
L 117.528286 172.4141 
L 118.640466 183.663904 
L 120.864827 209.46269 
L 122.811142 230.804183 
L 124.201367 243.993028 
L 125.591593 255.143686 
L 126.703773 262.290923 
L 127.537908 266.4371 
L 128.372044 269.474457 
L 128.928134 270.901658 
L 129.484224 271.901047 
L 130.040314 272.544662 
L 130.596404 272.925408 
L 132.820765 273.999917 
L 133.376855 274.648827 
L 133.932945 275.579876 
L 134.76708 277.54371 
L 135.601215 280.154796 
L 136.713396 284.430189 
L 140.884072 301.540477 
L 141.996252 304.742085 
L 142.830387 306.534739 
L 143.664523 307.748053 
L 144.220613 308.187331 
L 144.776703 308.277233 
L 145.332793 307.955988 
L 145.888883 307.153112 
L 146.444973 305.799439 
L 147.001064 303.8402 
L 147.835199 299.713388 
L 148.669334 294.237533 
L 150.059559 283.020929 
L 151.72783 269.351559 
L 152.561965 263.872173 
L 153.3961 259.936966 
L 153.95219 258.305623 
L 154.508281 257.504424 
L 154.786326 257.413177 
L 155.064371 257.522905 
L 155.342416 257.827037 
L 155.898506 258.983517 
L 156.454596 260.795782 
L 157.288731 264.498871 
L 158.678957 272.183836 
L 160.347227 281.278185 
L 161.181362 284.88995 
L 162.015498 287.574959 
L 162.571588 288.811275 
L 163.127678 289.611262 
L 163.683768 290.003692 
L 164.239858 290.036219 
L 164.795948 289.772865 
L 165.630084 288.99509 
L 167.298354 287.185665 
L 167.854444 286.839745 
L 168.410534 286.748968 
L 168.966624 286.964028 
L 169.522715 287.514222 
L 170.078805 288.406691 
L 170.91294 290.352544 
L 171.747075 292.916306 
L 173.137301 298.061077 
L 175.083616 305.377848 
L 176.195796 308.649825 
L 177.029932 310.325462 
L 177.586022 310.997225 
L 178.142112 311.282712 
L 178.698202 311.166876 
L 179.254292 310.641693 
L 179.810382 309.70371 
L 180.366473 308.351043 
L 181.200608 305.536992 
L 182.034743 301.760988 
L 182.868878 296.996352 
L 183.981058 289.097357 
L 185.093239 279.578933 
L 187.317599 257.886633 
L 188.707825 245.132607 
L 189.820005 236.74419 
L 190.65414 231.747074 
L 191.488276 227.769501 
L 192.600456 223.555071 
L 193.990681 218.488864 
L 194.824816 214.484364 
L 195.658952 208.873086 
L 196.493087 200.840935 
L 197.327222 189.586345 
L 198.161357 174.508669 
L 198.995493 155.473214 
L 200.385718 117.008771 
L 202.053988 71.070388 
L 202.888124 54.501919 
L 203.444214 47.489961 
L 203.722259 45.369927 
L 204.000304 44.217186 
L 204.278349 44.044156 
L 204.556394 44.848459 
L 204.834439 46.613329 
L 205.390529 52.893937 
L 205.946619 62.522933 
L 206.780755 82.171939 
L 207.892935 115.241321 
L 211.785566 239.981098 
L 212.897746 265.737346 
L 213.731881 280.281714 
L 214.566017 290.885845 
L 215.400152 298.047668 
L 215.956242 301.229138 
L 216.512332 303.363992 
L 217.068422 304.633414 
L 217.624513 305.201502 
L 217.902558 305.268559 
L 218.458648 305.05073 
L 219.014738 304.460864 
L 219.848873 303.096309 
L 221.239099 300.148333 
L 225.68782 290.111425 
L 226.521955 288.765257 
L 227.35609 287.799115 
L 228.190225 287.20036 
L 229.024361 286.873305 
L 232.082856 285.959446 
L 233.473082 285.433262 
L 234.307217 285.375763 
L 234.863307 285.539611 
L 235.419397 285.904308 
L 235.975487 286.48624 
L 236.809623 287.754465 
L 237.921803 290.002245 
L 239.590073 293.455152 
L 240.146164 294.254153 
L 240.702254 294.695753 
L 240.980299 294.744564 
L 241.258344 294.656711 
L 241.536389 294.414185 
L 242.092479 293.38639 
L 242.648569 291.490716 
L 243.204659 288.540616 
L 243.76075 284.346615 
L 244.31684 278.736886 
L 245.150975 267.414105 
L 245.98511 252.594245 
L 247.09729 228.500569 
L 249.043606 184.653611 
L 249.877741 170.24478 
L 250.433831 163.322277 
L 250.989921 158.855669 
L 251.267967 157.574696 
L 251.546012 156.924637 
L 251.824057 156.890616 
L 252.102102 157.448826 
L 252.380147 158.567844 
L 252.936237 162.328707 
L 253.492327 167.804104 
L 254.326462 178.297233 
L 257.384958 219.511919 
L 258.219093 227.602696 
L 259.053229 233.984874 
L 260.165409 240.500705 
L 261.555634 246.928815 
L 263.223905 253.528744 
L 264.336085 257.053079 
L 265.17022 258.975305 
L 265.72631 259.872811 
L 266.282401 260.479988 
L 266.838491 260.842809 
L 267.672626 261.087166 
L 268.784806 261.320182 
L 269.340896 261.600304 
L 269.896987 262.094133 
L 270.453077 262.859754 
L 271.009167 263.935601 
L 271.843302 266.168263 
L 272.677437 269.133949 
L 273.789618 274.107986 
L 275.179843 281.575263 
L 279.072474 303.580799 
L 280.184654 308.403325 
L 281.296835 312.141371 
L 282.13097 314.207299 
L 282.965105 315.626914 
L 283.521195 316.200903 
L 284.077285 316.462806 
L 284.633376 316.399993 
L 285.189466 316.001622 
L 285.745556 315.260656 
L 286.301646 314.177443 
L 287.135781 311.933362 
L 287.969916 309.011355 
L 289.082097 304.257919 
L 291.028412 294.616715 
L 292.696683 286.597344 
L 293.808863 282.315678 
L 294.642998 280.009718 
L 295.199088 278.96966 
L 295.755179 278.329158 
L 296.311269 278.056153 
L 296.867359 278.089149 
L 297.701494 278.5198 
L 299.091719 279.389479 
L 299.64781 279.512526 
L 300.2039 279.410494 
L 300.75999 279.05989 
L 301.31608 278.470075 
L 302.150215 277.232124 
L 304.096531 274.069656 
L 304.652621 273.508817 
L 305.208711 273.255216 
L 305.764801 273.370481 
L 306.320891 273.895672 
L 306.876982 274.849214 
L 307.433072 276.226823 
L 308.267207 279.028418 
L 309.379387 283.874912 
L 311.047658 292.468527 
L 313.272018 303.75295 
L 314.384199 308.429569 
L 315.218334 311.262741 
L 316.052469 313.403402 
L 316.608559 314.406087 
L 317.164649 315.050004 
L 317.720739 315.325586 
L 318.27683 315.229337 
L 318.83292 314.763113 
L 319.38901 313.932437 
L 319.9451 312.744845 
L 320.779235 310.310473 
L 321.61337 307.10741 
L 322.447506 303.139891 
L 323.559686 296.649901 
L 324.671866 288.791277 
L 326.062092 277.229043 
L 332.457128 218.983366 
L 333.847354 204.364386 
L 334.959534 190.252641 
L 336.071714 173.311739 
L 337.183895 153.175223 
L 338.852165 118.163359 
L 340.24239 89.499487 
L 341.076526 75.875814 
L 341.632616 69.354791 
L 342.188706 65.351416 
L 342.466751 64.377367 
L 342.744796 64.113114 
L 343.022841 64.564475 
L 343.300886 65.727603 
L 343.856976 70.128155 
L 344.413067 77.118246 
L 345.247202 91.808443 
L 346.359382 117.401194 
L 348.027653 163.028273 
L 350.252013 224.111201 
L 351.364193 249.703468 
L 352.476374 270.085607 
L 353.310509 281.798269 
L 354.144644 290.671951 
L 354.978779 297.048131 
L 355.812915 301.289112 
L 356.369005 303.089747 
L 356.925095 304.166551 
L 357.481185 304.596886 
L 357.75923 304.593249 
L 358.31532 304.195579 
L 358.87141 303.341123 
L 359.705546 301.370951 
L 360.817726 297.838537 
L 362.485996 291.532417 
L 364.710357 282.241856 
L 366.656673 273.065958 
L 368.324943 265.203896 
L 369.159078 262.053151 
L 369.715168 260.493268 
L 370.271259 259.468266 
L 370.827349 259.031624 
L 371.105394 259.040571 
L 371.383439 259.199961 
L 371.939529 259.953945 
L 372.495619 261.243819 
L 373.329754 264.023007 
L 374.441935 268.86017 
L 378.612611 288.747183 
L 379.446746 291.186216 
L 380.002836 292.083784 
L 380.280881 292.25263 
L 380.558926 292.20328 
L 380.836971 291.909933 
L 381.115016 291.345137 
L 381.671107 289.286302 
L 382.227197 285.79498 
L 382.783287 280.65485 
L 383.339377 273.700673 
L 384.173512 259.743077 
L 385.007648 241.90291 
L 388.344188 163.505083 
L 388.900279 155.333173 
L 389.456369 149.663613 
L 390.012459 146.524373 
L 390.290504 145.864459 
L 390.568549 145.772344 
L 390.846594 146.209862 
L 391.124639 147.134624 
L 391.680729 150.259286 
L 392.514865 157.413569 
L 393.627045 169.647793 
L 395.851405 194.496947 
L 396.685541 201.663071 
L 397.519676 206.95549 
L 398.075766 209.397714 
L 398.631856 211.026421 
L 399.187946 211.947022 
L 399.744036 212.300277 
L 400.300127 212.247486 
L 401.134262 211.776385 
L 401.968397 211.322693 
L 402.524487 211.27813 
L 403.080577 211.591248 
L 403.636668 212.368398 
L 404.192758 213.687209 
L 404.748848 215.589257 
L 405.582983 219.521727 
L 406.695163 226.444464 
L 408.641479 240.74485 
L 413.368245 276.799494 
L 415.870651 296.551741 
L 416.982831 303.562311 
L 417.816966 307.665226 
L 418.651102 310.707072 
L 419.485237 312.729356 
L 420.041327 313.565772 
L 420.597417 314.043349 
L 421.153507 314.206732 
L 421.709597 314.095006 
L 422.265688 313.73508 
L 422.821778 313.137252 
L 423.377868 312.295099 
L 424.212003 310.522897 
L 425.046138 308.027471 
L 425.880273 304.662003 
L 426.436364 301.86641 
L 426.436364 301.86641 
" clip-path="url(#p5f6b42bd89)" style="fill: none; stroke-dasharray: 11.1,4.8; stroke-dashoffset: 0; stroke: #000000; stroke-width: 3"/>
   </g>
   <g id="line2d_2">
    <path d="M 27.163636 256.933411 
L 29.109952 257.856178 
L 31.056267 258.543911 
L 33.280628 259.079456 
L 34.948898 259.308594 
L 36.061079 259.07169 
L 39.95371 257.922241 
L 45.514611 255.872612 
L 47.460927 255.452621 
L 49.129197 255.318437 
L 50.519423 255.401644 
L 51.909648 255.692019 
L 53.021828 255.977428 
L 54.968144 255.193521 
L 56.914459 254.630978 
L 59.416865 254.145126 
L 62.753406 253.739823 
L 65.255812 253.607352 
L 71.650848 253.349003 
L 73.597164 253.115893 
L 76.65566 252.120524 
L 78.32393 251.886592 
L 80.270246 251.840058 
L 82.772651 252.013143 
L 89.445733 252.57955 
L 90.835958 252.362785 
L 92.226184 251.904424 
L 93.060319 251.491667 
L 94.450544 250.283546 
L 95.84077 249.426951 
L 97.230995 248.822378 
L 98.621221 248.487869 
L 100.011446 248.37169 
L 101.679716 248.445613 
L 103.904077 248.775992 
L 108.074753 249.448811 
L 109.743024 249.472406 
L 110.577159 249.33468 
L 113.079564 248.375053 
L 116.416105 247.371542 
L 119.474601 246.679719 
L 122.533097 246.155349 
L 125.035503 245.97916 
L 127.259863 246.028932 
L 134.76708 246.637736 
L 137.269486 247.187172 
L 139.493847 247.917505 
L 141.440162 248.797523 
L 143.386478 249.939175 
L 144.220613 250.426426 
L 151.17174 251.892747 
L 153.3961 252.749717 
L 155.620461 253.868493 
L 157.844821 255.266287 
L 160.069182 256.951196 
L 161.737453 258.300766 
L 162.849633 258.934488 
L 163.961813 259.363841 
L 165.352038 259.63475 
L 166.742264 259.634148 
L 168.132489 259.38685 
L 169.522715 258.91639 
L 174.527526 256.669376 
L 177.029932 255.431269 
L 180.366473 255.033059 
L 191.766321 253.240746 
L 193.712636 253.212552 
L 196.215042 253.271263 
L 197.605267 252.978237 
L 198.995493 252.463487 
L 200.663763 251.608496 
L 202.888124 250.175515 
L 206.224664 247.695868 
L 208.449025 246.163718 
L 210.117296 245.253347 
L 211.785566 244.618663 
L 212.341656 244.496985 
L 212.897746 244.640734 
L 215.678197 245.560271 
L 219.570828 246.587471 
L 223.185414 247.565587 
L 229.024361 249.391303 
L 231.526766 250.159646 
L 234.029172 250.606534 
L 236.253533 250.759386 
L 238.199848 250.669101 
L 240.146164 250.353824 
L 241.814434 249.885414 
L 243.482704 249.208169 
L 245.150975 248.318898 
L 247.09729 247.007024 
L 249.043606 245.625372 
L 250.989921 244.58142 
L 252.936237 243.819224 
L 254.882553 243.299133 
L 256.828868 242.990722 
L 259.053229 242.859026 
L 261.555634 242.93377 
L 262.94586 243.142886 
L 265.72631 243.694058 
L 267.672626 243.467799 
L 269.618942 243.017736 
L 272.121347 242.184025 
L 275.457888 240.791353 
L 278.794429 239.375493 
L 280.462699 238.903555 
L 282.68706 238.039859 
L 283.24315 237.890745 
L 284.35533 238.36298 
L 285.745556 239.180806 
L 287.413826 240.447045 
L 289.082097 241.983919 
L 291.306457 244.367408 
L 293.808863 247.37862 
L 296.589314 250.99758 
L 298.813674 254.10007 
L 299.091719 254.418241 
L 299.925855 254.662379 
L 300.75999 255.181649 
L 301.594125 255.955029 
L 302.706305 257.313703 
L 304.096531 259.437459 
L 306.042846 262.91045 
L 309.379387 268.976639 
L 310.769613 271.064192 
L 311.881793 272.366063 
L 312.715928 273.062798 
L 313.550063 273.482711 
L 313.828108 273.506229 
L 314.384199 272.94403 
L 317.998785 268.791557 
L 320.223145 266.510702 
L 322.447506 264.516265 
L 324.949911 262.569653 
L 327.452317 260.889922 
L 329.676678 259.581747 
L 329.954723 259.596099 
L 331.066903 260.747495 
L 332.179083 261.479604 
L 333.013219 261.772677 
L 334.125399 261.896506 
L 335.237579 261.758138 
L 336.349759 261.394458 
L 337.739985 260.677255 
L 339.408255 259.518695 
L 341.632616 257.646382 
L 346.081337 253.799551 
L 347.193517 253.158228 
L 348.027653 252.949902 
L 350.252013 252.764436 
L 352.754419 252.788619 
L 356.369005 253.076311 
L 357.481185 253.096732 
L 361.095771 252.781001 
L 362.764042 252.296268 
L 364.432312 251.541009 
L 365.266447 250.972225 
L 368.602988 248.015462 
L 371.661484 245.514784 
L 374.16389 244.016694 
L 376.38825 242.929172 
L 378.612611 242.091707 
L 380.558926 241.695265 
L 382.227197 241.549201 
L 383.339377 241.720159 
L 389.178324 242.932722 
L 390.012459 243.304764 
L 392.514865 244.412582 
L 394.46118 245.055947 
L 396.407496 245.462822 
L 398.075766 245.591695 
L 399.744036 245.490555 
L 400.300127 245.303291 
L 401.968397 244.614721 
L 403.358622 244.30592 
L 404.748848 244.236893 
L 405.582983 244.354144 
L 406.695163 244.716573 
L 408.085389 245.421872 
L 409.475614 246.378316 
L 411.143885 247.815184 
L 413.0902 249.819843 
L 416.148696 253.34356 
L 418.095011 255.5323 
L 419.485237 255.271793 
L 420.875462 255.012342 
L 423.099823 255.019474 
L 425.324183 254.815755 
L 426.436364 254.634849 
L 426.436364 254.634849 
" clip-path="url(#p5f6b42bd89)" style="fill: none; stroke: #ff00ff; stroke-width: 3; stroke-linecap: square"/>
   </g>
   <g id="patch_3">
    <path d="M 7.2 331.2 
L 7.2 7.2 
" style="fill: none; stroke: #000000; stroke-width: 0.8; stroke-linejoin: miter; stroke-linecap: square"/>
   </g>
   <g id="patch_4">
    <path d="M 446.4 331.2 
L 446.4 7.2 
" style="fill: none; stroke: #000000; stroke-width: 0.8; stroke-linejoin: miter; stroke-linecap: square"/>
   </g>
   <g id="patch_5">
    <path d="M 7.2 331.2 
L 446.4 331.2 
" style="fill: none; stroke: #000000; stroke-width: 0.8; stroke-linejoin: miter; stroke-linecap: square"/>
   </g>
   <g id="patch_6">
    <path d="M 7.2 7.2 
L 446.4 7.2 
" style="fill: none; stroke: #000000; stroke-width: 0.8; stroke-linejoin: miter; stroke-linecap: square"/>
   </g>
  </g>
 </g>
 <defs>
  <clipPath id="p5f6b42bd89">
   <rect x="7.2" y="7.2" width="439.2" height="324"/>
  </clipPath>
 </defs>
</svg>
