<?xml version="1.0" encoding="utf-8" standalone="no"?>
<!DOCTYPE svg PUBLIC "-//W3C//DTD SVG 1.1//EN"
  "http://www.w3.org/Graphics/SVG/1.1/DTD/svg11.dtd">
<svg xmlns:xlink="http://www.w3.org/1999/xlink" width="453.6pt" height="338.4pt" viewBox="0 0 453.6 338.4" xmlns="http://www.w3.org/2000/svg" version="1.1">
 <metadata>
  <rdf:RDF xmlns:dc="http://purl.org/dc/elements/1.1/" xmlns:cc="http://creativecommons.org/ns#" xmlns:rdf="http://www.w3.org/1999/02/22-rdf-syntax-ns#">
   <cc:Work>
    <dc:type rdf:resource="http://purl.org/dc/dcmitype/StillImage"/>
    <dc:date>2025-05-15T17:23:25.963124</dc:date>
    <dc:format>image/svg+xml</dc:format>
    <dc:creator>
     <cc:Agent>
      <dc:title>Matplotlib v3.10.1, https://matplotlib.org/</dc:title>
     </cc:Agent>
    </dc:creator>
   </cc:Work>
  </rdf:RDF>
 </metadata>
 <defs>
  <style type="text/css">*{stroke-linejoin: round; stroke-linecap: butt}</style>
 </defs>
 <g id="figure_1">
  <g id="patch_1">
   <path d="M 0 338.4 
L 453.6 338.4 
L 453.6 0 
L 0 0 
z
" style="fill: #ffffff"/>
  </g>
  <g id="axes_1">
   <g id="patch_2">
    <path d="M 7.2 331.2 
L 446.4 331.2 
L 446.4 7.2 
L 7.2 7.2 
z
" style="fill: #ffffff"/>
   </g>
   <g id="matplotlib.axis_1"/>
   <g id="matplotlib.axis_2"/>
   <g id="line2d_1">
    <path d="M 27.163636 145.598087 
L 27.719727 141.222735 
L 27.997772 140.189017 
L 28.275817 139.961461 
L 28.553862 140.537297 
L 28.831907 141.892345 
L 29.387997 146.751224 
L 29.944087 154.012816 
L 31.056267 172.947209 
L 33.002583 207.108191 
L 34.114763 222.839662 
L 35.504989 238.970623 
L 37.173259 255.615438 
L 38.563484 267.376304 
L 39.39762 272.821786 
L 39.95371 275.52756 
L 40.5098 277.404983 
L 41.06589 278.437818 
L 41.343935 278.648702 
L 41.62198 278.669657 
L 41.900025 278.515995 
L 42.456115 277.761853 
L 43.290251 275.851671 
L 45.236566 270.905762 
L 45.792656 269.971254 
L 46.348747 269.357436 
L 46.904837 269.061165 
L 47.460927 269.056487 
L 48.017017 269.305967 
L 48.573107 269.773688 
L 49.407242 270.831204 
L 50.241378 272.272743 
L 51.353558 274.720042 
L 54.690099 282.888127 
L 55.524234 284.100061 
L 56.080324 284.56804 
L 56.636414 284.757181 
L 57.192504 284.682167 
L 57.748595 284.376091 
L 58.58273 283.589483 
L 61.085135 280.768541 
L 61.919271 280.309866 
L 62.475361 280.238691 
L 63.031451 280.354017 
L 63.865586 280.820325 
L 64.977767 281.77603 
L 67.480172 284.267818 
L 68.314307 285.452221 
L 69.148443 287.165873 
L 69.982578 289.582704 
L 70.816713 292.717202 
L 72.484984 300.266229 
L 73.875209 306.11056 
L 74.709344 308.748494 
L 75.543479 310.5769 
L 76.09957 311.366696 
L 76.65566 311.858036 
L 77.21175 312.101332 
L 77.76784 312.144238 
L 78.32393 312.018344 
L 78.88002 311.73166 
L 79.43611 311.266126 
L 79.992201 310.573756 
L 80.548291 309.57676 
L 81.104381 308.176662 
L 81.660471 306.2708 
L 82.494606 302.275161 
L 83.328741 296.801122 
L 84.440922 287.548679 
L 86.387237 270.647991 
L 87.221372 265.581892 
L 87.777463 263.490596 
L 88.055508 262.865092 
L 88.333553 262.519564 
L 88.611598 262.445823 
L 88.889643 262.629577 
L 89.167688 263.051407 
L 89.723778 264.511543 
L 90.557913 267.820598 
L 94.172499 284.020786 
L 95.28468 287.636019 
L 96.118815 289.685272 
L 96.674905 290.647622 
L 97.230995 291.246049 
L 97.787085 291.477331 
L 98.343175 291.380211 
L 99.177311 290.81931 
L 100.289491 290.007883 
L 100.845581 289.89845 
L 101.401671 290.137962 
L 101.957761 290.77888 
L 102.513852 291.811261 
L 103.347987 293.930749 
L 105.016257 298.562589 
L 105.572347 299.690438 
L 106.128438 300.438509 
L 106.684528 300.775729 
L 107.240618 300.727044 
L 107.796708 300.369361 
L 110.021069 298.377135 
L 110.577159 298.370029 
L 111.133249 298.721067 
L 111.689339 299.439793 
L 112.523474 301.132314 
L 113.635655 304.149483 
L 115.58197 309.514799 
L 116.416105 311.23037 
L 117.250241 312.42028 
L 117.806331 312.904605 
L 118.362421 313.143131 
L 118.918511 313.142939 
L 119.474601 312.911248 
L 120.030691 312.453558 
L 120.864827 311.3576 
L 121.698962 309.801051 
L 122.811142 307.120581 
L 126.425728 297.599958 
L 127.537908 295.512587 
L 131.152494 289.284665 
L 132.820765 285.616061 
L 135.32317 280.00514 
L 136.157306 278.559555 
L 136.991441 277.539013 
L 137.825576 276.961657 
L 138.659711 276.70732 
L 139.771892 276.388298 
L 140.327982 275.994121 
L 140.884072 275.304343 
L 141.440162 274.240523 
L 141.996252 272.761531 
L 142.830387 269.790326 
L 143.942568 264.784033 
L 146.723018 251.742198 
L 148.391289 244.118833 
L 149.503469 237.816373 
L 150.61565 230.011297 
L 151.72783 220.449005 
L 152.561965 211.649308 
L 153.3961 200.641976 
L 154.230236 186.477776 
L 155.064371 168.368819 
L 156.176551 138.012227 
L 159.235047 47.09474 
L 160.069182 31.650636 
L 160.625272 25.352864 
L 160.903317 23.431819 
L 161.181362 22.302751 
L 161.459407 21.927273 
L 161.737453 22.253151 
L 162.015498 23.21633 
L 162.571588 26.749947 
L 163.405723 34.780587 
L 165.352038 55.384726 
L 166.464219 64.184131 
L 168.688579 79.743758 
L 170.078805 92.044538 
L 171.190985 101.372408 
L 171.747075 104.758486 
L 172.303165 106.782154 
L 172.58121 107.207029 
L 172.859256 107.223442 
L 173.137301 106.833622 
L 173.415346 106.052069 
L 173.971436 103.431649 
L 174.805571 97.582393 
L 176.195796 86.997977 
L 176.751887 83.86976 
L 177.307977 81.811442 
L 177.864067 80.848083 
L 178.142112 80.726075 
L 178.420157 80.793664 
L 178.976247 81.298647 
L 179.810382 82.150334 
L 180.088427 82.242644 
L 180.366473 82.162762 
L 180.644518 81.878198 
L 180.922563 81.368353 
L 181.478653 79.656536 
L 182.034743 77.125274 
L 183.981058 67.069279 
L 184.537149 65.823179 
L 184.815194 65.724835 
L 185.093239 66.01084 
L 185.371284 66.69227 
L 185.927374 69.222023 
L 186.483464 73.150706 
L 187.317599 80.895026 
L 189.263915 99.976495 
L 190.09805 106.136207 
L 190.932185 110.945282 
L 192.600456 118.782408 
L 193.990681 124.583437 
L 194.546771 126.177996 
L 194.824816 126.688022 
L 195.102861 126.963647 
L 195.380907 126.977629 
L 195.658952 126.709029 
L 195.936997 126.144945 
L 196.493087 124.127784 
L 197.049177 121.014742 
L 197.883312 114.798856 
L 199.829628 99.17988 
L 200.663763 94.692089 
L 201.219853 92.977458 
L 201.497898 92.545626 
L 201.775943 92.409344 
L 202.053988 92.575278 
L 202.332033 93.049843 
L 202.888124 94.952944 
L 203.444214 98.183919 
L 204.000304 102.815083 
L 204.834439 112.517057 
L 205.668574 125.561949 
L 206.780755 147.540511 
L 209.83925 213.622137 
L 210.673386 226.381441 
L 211.507521 235.213525 
L 212.063611 238.934183 
L 212.619701 241.064318 
L 212.897746 241.58568 
L 213.175791 241.775231 
L 213.453836 241.656629 
L 213.731881 241.253565 
L 214.287972 239.682528 
L 214.844062 237.22087 
L 215.678197 232.147629 
L 216.790377 223.535164 
L 218.736693 207.704133 
L 219.570828 202.839862 
L 220.126918 200.87596 
L 220.404963 200.34996 
L 220.683008 200.149737 
L 220.961053 200.28496 
L 221.239099 200.759525 
L 221.795189 202.712373 
L 222.351279 205.925099 
L 223.185414 212.733009 
L 224.297594 224.199574 
L 226.24391 244.364986 
L 227.078045 250.964021 
L 227.91218 255.737541 
L 228.46827 257.886632 
L 229.024361 259.262321 
L 229.580451 259.94365 
L 229.858496 260.049914 
L 230.136541 260.012404 
L 230.692631 259.536956 
L 231.248721 258.570849 
L 231.804811 257.156553 
L 232.638947 254.27633 
L 233.751127 249.363557 
L 235.141352 243.13467 
L 235.697442 241.318154 
L 236.253533 240.239834 
L 236.531578 240.03486 
L 236.809623 240.072764 
L 237.087668 240.360524 
L 237.365713 240.897939 
L 237.921803 242.684403 
L 238.755938 246.812944 
L 240.702254 257.99929 
L 241.258344 260.201415 
L 241.814434 261.593196 
L 242.092479 261.972389 
L 242.370524 262.147762 
L 242.648569 262.132278 
L 242.926614 261.943773 
L 243.482704 261.136007 
L 244.31684 259.228093 
L 245.98511 255.148168 
L 246.819245 253.660609 
L 247.653381 252.662639 
L 248.209471 252.286187 
L 248.765561 252.187944 
L 249.321651 252.447494 
L 249.877741 253.168713 
L 250.433831 254.460833 
L 250.989921 256.414463 
L 251.546012 259.073693 
L 252.380147 264.307993 
L 253.770372 275.129612 
L 255.160598 285.38027 
L 255.994733 289.773372 
L 256.550823 291.717805 
L 257.106913 292.887082 
L 257.663003 293.391833 
L 258.219093 293.408615 
L 259.053229 292.972978 
L 259.887364 292.548685 
L 260.443454 292.465215 
L 261.277589 292.625483 
L 262.111724 292.771635 
L 262.667815 292.561916 
L 263.223905 291.89879 
L 263.779995 290.670342 
L 264.336085 288.863133 
L 265.17022 285.307953 
L 266.560446 279.129385 
L 267.116536 277.409002 
L 267.672626 276.468608 
L 267.950671 276.32927 
L 268.228716 276.41666 
L 268.506761 276.726108 
L 269.062851 277.956712 
L 269.618942 279.849991 
L 272.121347 289.613355 
L 272.677437 290.67458 
L 272.955482 290.955688 
L 273.233527 291.068334 
L 273.511573 291.015276 
L 273.789618 290.80171 
L 274.345708 289.921269 
L 274.901798 288.486403 
L 275.735933 285.377912 
L 276.570068 281.059229 
L 277.404204 275.252182 
L 278.238339 267.615292 
L 279.072474 258.020415 
L 280.462699 238.884167 
L 281.852925 220.097212 
L 282.68706 211.354838 
L 283.24315 207.078336 
L 283.79924 204.116728 
L 284.35533 202.407017 
L 284.633376 201.97917 
L 284.911421 201.807461 
L 285.189466 201.869444 
L 285.467511 202.143876 
L 286.023601 203.257465 
L 286.579691 205.038402 
L 287.135781 207.442816 
L 287.969916 212.273292 
L 288.804052 218.75905 
L 289.638187 227.016243 
L 290.750367 240.376881 
L 292.974728 268.294066 
L 293.808863 276.40896 
L 294.642998 282.466337 
L 295.477133 286.606095 
L 296.311269 289.284927 
L 297.145404 291.050629 
L 297.979539 292.311445 
L 298.813674 293.234658 
L 299.64781 293.787864 
L 300.2039 293.888663 
L 300.75999 293.741985 
L 301.31608 293.350769 
L 302.150215 292.383937 
L 305.764801 287.424032 
L 307.433072 285.386799 
L 310.491567 281.248651 
L 311.047658 280.890554 
L 311.603748 280.725189 
L 312.437883 280.74731 
L 313.550063 280.801148 
L 314.106153 280.56802 
L 314.662244 280.00451 
L 315.218334 279.021624 
L 315.774424 277.573377 
L 316.608559 274.567071 
L 317.998785 268.189828 
L 319.110965 263.44148 
L 319.667055 261.720376 
L 320.223145 260.634762 
L 320.50119 260.358388 
L 320.779235 260.26628 
L 321.05728 260.357927 
L 321.335325 260.62848 
L 321.891416 261.667062 
L 322.447506 263.272648 
L 323.281641 266.421798 
L 325.784047 276.500381 
L 326.618182 278.88424 
L 327.174272 280.031629 
L 327.730362 280.787386 
L 328.286452 281.123936 
L 328.842542 281.025445 
L 329.398633 280.498331 
L 329.954723 279.575436 
L 330.788858 277.592283 
L 333.291264 270.791685 
L 334.125399 269.383024 
L 334.681489 268.791134 
L 335.515624 268.296891 
L 337.46194 267.514713 
L 338.296075 266.786891 
L 339.408255 265.379806 
L 341.076526 263.217982 
L 341.910661 262.551631 
L 342.744796 262.259897 
L 343.856976 262.249562 
L 344.969157 262.193788 
L 345.803292 261.848418 
L 346.637427 261.180738 
L 349.417878 258.502112 
L 350.252013 258.115314 
L 351.364193 257.865581 
L 352.754419 257.733994 
L 353.588554 257.86096 
L 354.144644 258.173791 
L 354.700734 258.773763 
L 355.256825 259.742414 
L 355.812915 261.130333 
L 356.64705 263.981119 
L 358.037275 269.986379 
L 359.149456 274.33907 
L 359.705546 275.803106 
L 360.261636 276.57074 
L 360.539681 276.659121 
L 360.817726 276.540458 
L 361.095771 276.212902 
L 361.651861 274.947159 
L 362.207951 272.933099 
L 363.042087 268.770213 
L 364.154267 261.824676 
L 366.378628 246.050657 
L 369.159078 225.835414 
L 369.993213 221.505361 
L 370.549304 219.724301 
L 370.827349 219.235461 
L 371.105394 219.03391 
L 371.383439 219.126096 
L 371.661484 219.510997 
L 372.217574 221.117365 
L 372.773664 223.697698 
L 373.607799 228.800197 
L 374.998025 237.624998 
L 375.554115 240.279674 
L 376.110205 242.085405 
L 376.666295 242.961396 
L 376.94434 243.058429 
L 377.222385 242.945422 
L 377.50043 242.641851 
L 378.056521 241.558718 
L 378.890656 239.150392 
L 380.836971 233.06597 
L 383.339377 226.021172 
L 384.451557 221.700102 
L 385.563738 216.395568 
L 387.510053 205.814304 
L 389.178324 195.696843 
L 391.402684 181.963373 
L 391.958774 179.640147 
L 392.514865 178.327438 
L 392.79291 178.128442 
L 393.070955 178.263406 
L 393.349 178.743836 
L 393.90509 180.740261 
L 394.46118 184.018111 
L 395.295315 190.746702 
L 397.241631 207.770743 
L 398.075766 212.985872 
L 398.909901 216.765608 
L 400.300127 222.491292 
L 401.134262 227.329885 
L 401.968397 233.804734 
L 405.026893 259.995912 
L 405.861028 264.248182 
L 406.695163 267.278478 
L 408.363434 272.902935 
L 409.197569 276.673193 
L 411.97802 290.48826 
L 412.53411 292.04417 
L 413.0902 292.881326 
L 413.368245 293.025553 
L 413.64629 292.992943 
L 413.924335 292.792368 
L 414.480425 291.935131 
L 415.036516 290.564241 
L 415.870651 287.804863 
L 417.260876 282.126843 
L 419.207192 273.028545 
L 421.153507 264.094846 
L 421.987642 261.415623 
L 422.543733 260.394513 
L 422.821778 260.165274 
L 423.099823 260.140761 
L 423.377868 260.329479 
L 423.655913 260.735977 
L 424.212003 262.199377 
L 424.768093 264.483033 
L 425.602228 269.186189 
L 426.436364 274.884951 
L 426.436364 274.884951 
" clip-path="url(#p4c35a44d87)" style="fill: none; stroke-dasharray: 11.1,4.8; stroke-dashoffset: 0; stroke: #000000; stroke-width: 3"/>
   </g>
   <g id="line2d_2">
    <path d="M 27.163636 255.284387 
L 29.387997 251.638765 
L 30.500177 250.159784 
L 31.334312 249.348135 
L 31.890403 248.994423 
L 32.446493 248.838829 
L 33.002583 248.916173 
L 33.558673 249.268202 
L 34.114763 249.965139 
L 34.670853 250.872842 
L 35.226944 251.048986 
L 35.504989 251.560853 
L 35.783034 251.674805 
L 37.729349 248.714711 
L 39.95371 245.750429 
L 41.62198 243.877937 
L 42.734161 242.932274 
L 43.568296 242.47366 
L 44.402431 242.327782 
L 44.958521 242.459673 
L 45.514611 242.815946 
L 45.792656 243.177296 
L 46.626792 245.323899 
L 48.295062 249.485649 
L 49.963332 253.081266 
L 51.353558 255.616738 
L 52.743783 257.698843 
L 53.021828 258.059298 
L 56.080324 254.96917 
L 56.358369 252.88908 
L 57.192504 242.514597 
L 57.748595 237.734993 
L 58.304685 234.545243 
L 58.860775 232.811633 
L 59.13882 232.4379 
L 59.416865 232.395234 
L 59.69491 232.654458 
L 59.972955 233.184004 
L 60.529045 235.06754 
L 61.085135 237.887981 
L 61.919271 243.609128 
L 63.031451 253.280212 
L 64.977767 270.823645 
L 66.089947 279.384241 
L 66.367992 280.668373 
L 67.480172 267.116754 
L 68.036262 263.53177 
L 68.314307 262.63636 
L 68.592352 262.304251 
L 68.870398 262.514189 
L 69.148443 263.2459 
L 69.426488 264.484671 
L 70.260623 266.351265 
L 70.816713 268.800799 
L 71.650848 274.010164 
L 74.987389 297.437753 
L 75.821524 301.394875 
L 76.09957 300.077044 
L 76.933705 292.745036 
L 77.76784 285.837476 
L 79.158065 273.015559 
L 79.992201 267.083601 
L 80.548291 264.245239 
L 81.104381 262.522171 
L 81.382426 262.15401 
L 81.660471 262.133127 
L 81.938516 262.496881 
L 82.216561 263.289652 
L 82.772651 266.210402 
L 83.050696 268.442488 
L 83.328741 268.905081 
L 84.162877 262.771583 
L 85.275057 252.790865 
L 86.943327 235.175655 
L 87.777463 225.956386 
L 88.611598 222.120182 
L 89.445733 219.362872 
L 90.001823 218.209961 
L 90.557913 217.690164 
L 90.835958 217.681608 
L 91.114004 217.876586 
L 91.392049 218.273149 
L 91.948139 219.672787 
L 92.504229 222.096947 
L 95.28468 245.080121 
L 96.39686 254.403127 
L 96.674905 255.602593 
L 96.95295 255.889324 
L 98.06513 253.273187 
L 99.177311 250.012071 
L 100.011446 246.900475 
L 100.845581 243.019389 
L 101.679716 238.220366 
L 102.791897 230.227529 
L 103.904077 220.378128 
L 105.572347 204.906286 
L 106.684528 199.145355 
L 106.962573 198.309012 
L 108.352798 204.815033 
L 108.908888 206.062292 
L 109.186933 206.409177 
L 109.464978 206.547147 
L 109.743024 206.531296 
L 110.021069 206.364001 
L 110.577159 205.581795 
L 111.133249 204.291566 
L 111.967384 201.618079 
L 113.079564 197.075341 
L 113.635655 194.609529 
L 114.191745 193.396976 
L 114.46979 193.105039 
L 115.02588 193.414876 
L 115.58197 193.966295 
L 116.13806 194.857168 
L 116.69415 196.191165 
L 117.250241 198.079587 
L 117.806331 200.638475 
L 118.362421 203.992064 
L 118.918511 208.286758 
L 119.474601 213.673899 
L 119.752646 214.195846 
L 120.030691 213.5671 
L 120.864827 209.400786 
L 121.698962 206.232605 
L 122.533097 204.049544 
L 123.089187 204.057222 
L 123.645277 204.414271 
L 124.201367 205.212024 
L 124.757458 206.542272 
L 125.313548 208.438529 
L 126.147683 212.36728 
L 126.981818 217.536467 
L 128.093998 226.208945 
L 129.206179 236.706656 
L 130.596404 252.055704 
L 131.98663 269.733488 
L 133.09881 285.175707 
L 136.157306 300.816821 
L 137.825576 308.548785 
L 138.103621 308.970953 
L 138.381666 308.483279 
L 140.049937 295.361528 
L 141.162117 282.742767 
L 142.274297 269.675434 
L 142.830387 268.984615 
L 143.386478 267.834473 
L 143.942568 266.231802 
L 144.776703 262.929991 
L 145.610838 258.54239 
L 146.444973 253.040064 
L 147.557154 243.927002 
L 148.669334 232.789186 
L 150.059559 216.086148 
L 151.72783 193.671588 
L 152.005875 194.546803 
L 152.84001 198.68959 
L 153.674145 201.689259 
L 154.230236 202.985668 
L 154.786326 203.675091 
L 155.064371 203.788205 
L 155.342416 203.740203 
L 155.620461 203.530704 
L 156.176551 202.62613 
L 156.454596 201.929795 
L 157.288731 205.376224 
L 158.400912 215.604806 
L 159.235047 221.829224 
L 160.069182 226.416418 
L 160.625272 228.363164 
L 160.903317 228.980382 
L 161.737453 232.26376 
L 162.293543 233.536956 
L 162.571588 233.841692 
L 162.849633 233.913604 
L 163.127678 233.729085 
L 163.405723 233.303895 
L 163.961813 231.644965 
L 164.517903 228.878042 
L 165.073993 224.945588 
L 167.020309 229.428031 
L 167.854444 230.759293 
L 168.410534 231.278921 
L 168.966624 231.398969 
L 169.24467 231.287837 
L 169.80076 230.673466 
L 170.35685 229.458606 
L 170.91294 227.545542 
L 171.46903 224.824346 
L 172.02512 221.190358 
L 172.859256 213.772266 
L 173.693391 203.601569 
L 174.527526 194.217739 
L 174.805571 192.833951 
L 176.473841 198.659758 
L 177.029932 199.611781 
L 177.586022 200.056627 
L 178.142112 200.010427 
L 178.698202 199.45885 
L 179.254292 198.412355 
L 179.532337 197.777654 
L 179.810382 197.724935 
L 180.088427 198.084428 
L 181.478653 201.818347 
L 183.146923 206.94013 
L 185.371284 214.510861 
L 187.595644 221.89499 
L 187.87369 222.55654 
L 189.820005 206.970074 
L 190.09805 204.512514 
L 190.376095 204.174917 
L 191.21023 205.830402 
L 192.044366 207.801295 
L 193.712636 225.130749 
L 194.824816 234.322595 
L 195.658952 239.412385 
L 196.215042 241.7754 
L 196.771132 243.197897 
L 197.049177 243.532364 
L 197.327222 243.604569 
L 197.605267 243.391833 
L 197.883312 242.886113 
L 198.439402 240.98533 
L 198.995493 237.770037 
L 199.551583 233.199944 
L 200.385718 223.590449 
L 200.941808 217.121082 
L 201.497898 215.874375 
L 201.775943 215.681739 
L 202.053988 215.735684 
L 202.332033 216.012806 
L 202.888124 217.166911 
L 203.444214 218.931074 
L 204.556394 223.590888 
L 206.224664 230.865472 
L 206.50271 231.454243 
L 207.0588 231.58314 
L 207.336845 231.42727 
L 207.892935 230.635563 
L 208.449025 229.056336 
L 209.005115 226.58377 
L 209.28316 224.983491 
L 209.83925 219.399954 
L 210.395341 213.563791 
L 211.507521 225.209257 
L 212.063611 228.748177 
L 212.619701 230.824169 
L 212.897746 231.350045 
L 213.175791 231.588712 
L 213.453836 231.555222 
L 213.731881 231.269555 
L 214.009927 230.779398 
L 214.566017 229.161322 
L 215.400152 225.484387 
L 216.234287 220.673015 
L 217.346467 213.161914 
L 217.902558 212.205759 
L 218.458648 211.637589 
L 218.736693 211.512554 
L 219.014738 211.519353 
L 219.292783 211.646021 
L 219.848873 212.290707 
L 220.404963 213.488389 
L 220.961053 215.240484 
L 221.795189 218.919175 
L 222.907369 210.68032 
L 223.463459 207.964054 
L 224.019549 206.332739 
L 224.297594 205.929118 
L 224.575639 205.805264 
L 224.853684 205.991461 
L 225.13173 206.45693 
L 225.68782 208.362227 
L 226.24391 211.615581 
L 227.078045 218.871444 
L 227.91218 228.47343 
L 228.190225 232.356937 
L 228.46827 233.389495 
L 229.024361 228.505682 
L 229.580451 224.984617 
L 230.136541 222.599678 
L 230.692631 221.164117 
L 231.248721 220.514455 
L 231.526766 220.442813 
L 231.804811 220.515277 
L 232.360901 221.051048 
L 232.916992 222.033669 
L 233.751127 224.167637 
L 234.863307 227.907612 
L 236.531578 234.052025 
L 236.809623 234.142365 
L 237.087668 234.044055 
L 237.643758 233.471663 
L 238.199848 232.336482 
L 238.755938 230.53517 
L 239.312028 227.971464 
L 239.868119 224.561205 
L 240.702254 217.547319 
L 241.536389 207.882258 
L 242.092479 199.676578 
L 242.370524 200.149466 
L 244.038795 211.74647 
L 244.594885 214.040877 
L 245.98511 219.289542 
L 249.043606 231.368259 
L 249.877741 233.782434 
L 250.433831 234.950565 
L 251.267967 236.283627 
L 254.048417 248.916285 
L 254.882553 251.573979 
L 255.160598 252.272149 
L 255.438643 252.309636 
L 256.272778 251.950459 
L 257.106913 251.863496 
L 257.941048 252.013241 
L 259.053229 252.480635 
L 261.555634 253.86748 
L 262.38977 253.105284 
L 263.223905 252.011384 
L 264.336085 250.075715 
L 265.448265 247.65957 
L 266.004356 246.290282 
L 266.838491 241.725164 
L 267.672626 239.149773 
L 268.506761 237.306696 
L 269.062851 236.603967 
L 269.340896 236.442671 
L 269.618942 236.420877 
L 269.896987 236.549593 
L 270.175032 236.839538 
L 270.731122 237.953566 
L 272.399392 243.27067 
L 273.233527 247.451816 
L 274.067663 253.295735 
L 274.901798 261.23389 
L 275.179843 263.8146 
L 275.457888 261.678842 
L 276.292023 249.802206 
L 277.126159 234.657648 
L 277.404204 228.959477 
L 277.682249 226.106852 
L 278.238339 225.056574 
L 279.072474 223.167071 
L 279.628564 223.047349 
L 280.184654 222.590267 
L 281.01879 221.476453 
L 283.79924 217.161226 
L 284.35533 216.699629 
L 284.911421 216.503627 
L 285.467511 216.644626 
L 286.023601 217.153728 
L 286.857736 218.305829 
L 287.413826 216.128735 
L 288.247962 212.89176 
L 289.082097 210.392131 
L 289.916232 208.574282 
L 290.750367 207.360986 
L 291.306457 206.847313 
L 291.862547 206.535754 
L 292.418638 206.40115 
L 293.252773 206.468942 
L 294.086908 206.77253 
L 295.477133 207.54402 
L 296.311269 208.027568 
L 297.145404 211.570788 
L 297.979539 216.103372 
L 298.813674 221.746618 
L 299.64781 228.57926 
L 300.2039 227.512108 
L 301.31608 225.312611 
L 301.87217 230.086316 
L 303.262396 242.031961 
L 304.374576 249.865393 
L 305.486756 256.256454 
L 306.598936 261.262067 
L 307.433072 264.148724 
L 308.267207 266.314465 
L 309.101342 267.8002 
L 309.657432 268.437299 
L 310.213522 268.828717 
L 310.769613 268.987941 
L 311.325703 268.967577 
L 312.159838 268.681685 
L 312.437883 268.382076 
L 313.828108 253.49176 
L 314.384199 256.329284 
L 315.218334 261.978322 
L 316.052469 262.432691 
L 316.608559 263.854974 
L 317.164649 266.253771 
L 317.720739 269.617481 
L 317.998785 270.024569 
L 319.667055 258.764037 
L 320.50119 254.685788 
L 321.335325 251.457392 
L 322.447506 248.159515 
L 323.559686 245.560523 
L 326.062092 240.078775 
L 326.618182 241.336104 
L 327.174272 243.431442 
L 327.730362 246.320322 
L 328.564497 252.021678 
L 329.676678 261.836051 
L 333.291264 299.185019 
L 334.681489 314.567194 
L 334.959534 316.288681 
L 335.237579 316.472727 
L 335.793669 314.955033 
L 336.349759 312.725586 
L 337.183895 308.002894 
L 337.46194 306.066608 
L 338.57412 294.156079 
L 340.24239 277.186146 
L 341.632616 264.981402 
L 342.744796 256.943964 
L 343.578931 252.178178 
L 344.413067 248.685915 
L 344.969157 247.206439 
L 345.803292 246.602403 
L 346.359382 245.822606 
L 346.915472 244.539081 
L 347.471562 242.611456 
L 348.027653 239.866867 
L 348.583743 237.127524 
L 352.476374 250.670283 
L 352.754419 251.409543 
L 353.032464 251.684661 
L 353.588554 251.117921 
L 354.144644 250.598895 
L 354.700734 250.325268 
L 355.256825 250.392193 
L 355.812915 250.826592 
L 356.369005 251.706743 
L 356.925095 253.086889 
L 357.481185 255.005858 
L 358.31532 259.011648 
L 359.149456 264.451603 
L 359.983591 271.35976 
L 360.539681 276.772145 
L 361.373816 269.617689 
L 361.929906 266.143409 
L 362.485996 263.810879 
L 363.042087 262.603381 
L 363.320132 262.080308 
L 363.598177 259.132439 
L 364.710357 242.752961 
L 365.822537 229.719372 
L 368.046898 216.394262 
L 369.715168 205.223923 
L 370.827349 196.440786 
L 372.217574 184.430502 
L 373.607799 198.4064 
L 374.71998 207.166752 
L 375.554115 212.271097 
L 376.38825 216.178965 
L 377.222385 219.02657 
L 377.778476 220.428179 
L 378.056521 220.76322 
L 378.334566 220.681762 
L 381.115016 214.721891 
L 381.671107 214.298322 
L 381.949152 214.327692 
L 382.227197 214.498027 
L 382.783287 215.442542 
L 383.339377 216.898794 
L 383.895467 218.018226 
L 384.729602 220.564077 
L 385.563738 223.961796 
L 386.397873 227.423445 
L 386.675918 228.020985 
L 387.510053 228.665683 
L 389.178324 230.433234 
L 392.514865 234.118454 
L 394.46118 235.88004 
L 397.241631 237.992674 
L 400.578172 240.544616 
L 401.134262 241.26717 
L 401.412307 241.316854 
L 401.690352 241.128693 
L 401.968397 240.715052 
L 402.524487 239.155177 
L 403.358622 234.549949 
L 403.914713 232.472752 
L 404.470803 231.140883 
L 405.026893 230.410168 
L 405.582983 230.150056 
L 406.139073 230.262404 
L 406.695163 230.621896 
L 407.529299 231.28061 
L 408.363434 231.579402 
L 408.919524 231.529037 
L 409.475614 231.233374 
L 410.031704 230.634752 
L 410.587794 229.706392 
L 411.143885 228.399187 
L 411.97802 225.68738 
L 412.812155 221.95238 
L 413.64629 217.11838 
L 414.480425 211.337164 
L 414.75847 210.883515 
L 415.870651 213.918758 
L 416.148696 214.421219 
L 416.426741 214.050424 
L 416.982831 212.896612 
L 417.260876 212.648061 
L 417.538921 212.645843 
L 417.816966 212.884724 
L 418.651102 214.217629 
L 419.207192 216.606204 
L 420.875462 226.064231 
L 422.265688 232.992786 
L 423.933958 240.10362 
L 425.324183 244.94456 
L 426.436364 247.959174 
L 426.436364 247.959174 
" clip-path="url(#p4c35a44d87)" style="fill: none; stroke: #ff00ff; stroke-width: 3; stroke-linecap: square"/>
   </g>
   <g id="patch_3">
    <path d="M 7.2 331.2 
L 7.2 7.2 
" style="fill: none; stroke: #000000; stroke-width: 0.8; stroke-linejoin: miter; stroke-linecap: square"/>
   </g>
   <g id="patch_4">
    <path d="M 446.4 331.2 
L 446.4 7.2 
" style="fill: none; stroke: #000000; stroke-width: 0.8; stroke-linejoin: miter; stroke-linecap: square"/>
   </g>
   <g id="patch_5">
    <path d="M 7.2 331.2 
L 446.4 331.2 
" style="fill: none; stroke: #000000; stroke-width: 0.8; stroke-linejoin: miter; stroke-linecap: square"/>
   </g>
   <g id="patch_6">
    <path d="M 7.2 7.2 
L 446.4 7.2 
" style="fill: none; stroke: #000000; stroke-width: 0.8; stroke-linejoin: miter; stroke-linecap: square"/>
   </g>
  </g>
 </g>
 <defs>
  <clipPath id="p4c35a44d87">
   <rect x="7.2" y="7.2" width="439.2" height="324"/>
  </clipPath>
 </defs>
</svg>
