<?xml version="1.0" encoding="utf-8" standalone="no"?>
<!DOCTYPE svg PUBLIC "-//W3C//DTD SVG 1.1//EN"
  "http://www.w3.org/Graphics/SVG/1.1/DTD/svg11.dtd">
<svg xmlns:xlink="http://www.w3.org/1999/xlink" width="453.6pt" height="338.4pt" viewBox="0 0 453.6 338.4" xmlns="http://www.w3.org/2000/svg" version="1.1">
 <metadata>
  <rdf:RDF xmlns:dc="http://purl.org/dc/elements/1.1/" xmlns:cc="http://creativecommons.org/ns#" xmlns:rdf="http://www.w3.org/1999/02/22-rdf-syntax-ns#">
   <cc:Work>
    <dc:type rdf:resource="http://purl.org/dc/dcmitype/StillImage"/>
    <dc:date>2025-05-15T16:51:29.176642</dc:date>
    <dc:format>image/svg+xml</dc:format>
    <dc:creator>
     <cc:Agent>
      <dc:title>Matplotlib v3.10.1, https://matplotlib.org/</dc:title>
     </cc:Agent>
    </dc:creator>
   </cc:Work>
  </rdf:RDF>
 </metadata>
 <defs>
  <style type="text/css">*{stroke-linejoin: round; stroke-linecap: butt}</style>
 </defs>
 <g id="figure_1">
  <g id="patch_1">
   <path d="M 0 338.4 
L 453.6 338.4 
L 453.6 0 
L 0 0 
z
" style="fill: #ffffff"/>
  </g>
  <g id="axes_1">
   <g id="patch_2">
    <path d="M 7.2 331.2 
L 446.4 331.2 
L 446.4 7.2 
L 7.2 7.2 
z
" style="fill: #ffffff"/>
   </g>
   <g id="matplotlib.axis_1"/>
   <g id="matplotlib.axis_2"/>
   <g id="line2d_1">
    <path d="M 27.163636 293.256268 
L 27.997772 292.146118 
L 28.275817 292.229427 
L 28.553862 292.745331 
L 28.831907 293.743511 
L 29.387997 297.18593 
L 30.222132 304.904241 
L 31.056267 312.61147 
L 31.612358 315.810077 
L 31.890403 316.472727 
L 32.168448 316.415022 
L 32.446493 315.604097 
L 32.724538 314.045684 
L 33.280628 308.898869 
L 34.114763 297.702217 
L 35.226944 282.583927 
L 35.783034 277.608316 
L 36.061079 276.122129 
L 36.339124 275.357062 
L 36.617169 275.307765 
L 36.895214 275.935257 
L 37.451304 278.885848 
L 39.119575 291.156346 
L 39.39762 292.039116 
L 39.675665 292.235924 
L 39.95371 291.678747 
L 40.231755 290.328606 
L 40.787845 285.309048 
L 41.343935 277.653028 
L 43.568296 242.814581 
L 44.124386 238.608623 
L 44.402431 237.577961 
L 44.680476 237.228292 
L 44.958521 237.487773 
L 45.236566 238.252076 
L 45.792656 240.74676 
L 46.626792 244.491461 
L 46.904837 245.092203 
L 47.182882 245.132711 
L 47.460927 244.507512 
L 47.738972 243.145142 
L 48.295062 238.099215 
L 48.851152 230.162696 
L 49.685287 214.471943 
L 51.075513 188.016751 
L 51.631603 180.587346 
L 52.187693 175.882299 
L 52.465738 174.550883 
L 52.743783 173.83091 
L 53.021828 173.631809 
L 53.299873 173.840464 
L 53.855964 174.958639 
L 54.412054 176.087132 
L 54.690099 176.322537 
L 54.968144 176.192988 
L 55.246189 175.613646 
L 55.524234 174.533687 
L 56.080324 170.803125 
L 56.636414 165.167157 
L 58.02664 146.983631 
L 58.860775 137.523856 
L 59.416865 133.244525 
L 59.972955 130.868308 
L 60.251 130.352786 
L 60.529045 130.22209 
L 60.80709 130.403612 
L 61.363181 131.371219 
L 62.197316 133.025934 
L 62.475361 133.31828 
L 62.753406 133.383246 
L 63.031451 133.192934 
L 63.309496 132.736646 
L 63.865586 131.097599 
L 65.811902 123.533294 
L 66.089947 123.193562 
L 66.367992 123.231395 
L 66.646037 123.678512 
L 66.924082 124.553256 
L 67.480172 127.550087 
L 68.314307 134.531993 
L 69.704533 147.31572 
L 70.260623 150.601075 
L 70.538668 151.540786 
L 70.816713 151.96077 
L 71.094758 151.851093 
L 71.372803 151.221689 
L 71.928893 148.552362 
L 72.763029 142.035153 
L 73.875209 132.641872 
L 74.431299 129.347345 
L 74.987389 127.667026 
L 75.265434 127.482447 
L 75.543479 127.709062 
L 75.821524 128.30369 
L 76.377615 130.311895 
L 77.489795 134.942423 
L 77.76784 135.624181 
L 78.045885 135.934106 
L 78.32393 135.804939 
L 78.601975 135.200376 
L 78.88002 134.100544 
L 79.43611 130.466284 
L 80.270246 122.209904 
L 81.660471 107.489816 
L 82.216561 103.815813 
L 82.494606 102.782476 
L 82.772651 102.331155 
L 83.050696 102.460704 
L 83.328741 103.143991 
L 83.884832 105.922613 
L 84.997012 114.376566 
L 85.553102 118.139228 
L 86.109192 120.446658 
L 86.387237 120.888807 
L 86.665282 120.816963 
L 86.943327 120.233035 
L 87.499418 117.685614 
L 88.333553 111.62584 
L 89.167688 105.636382 
L 89.723778 103.267808 
L 90.001823 102.84897 
L 90.279868 103.01062 
L 90.557913 103.762694 
L 91.114004 106.941811 
L 91.948139 114.747635 
L 93.060319 125.571308 
L 93.616409 128.698834 
L 93.894454 129.33397 
L 94.172499 129.283908 
L 94.450544 128.538331 
L 94.72859 127.123607 
L 95.28468 122.546962 
L 97.230995 101.983397 
L 97.50904 100.467785 
L 97.787085 99.662592 
L 98.06513 99.613676 
L 98.343175 100.327153 
L 98.621221 101.768246 
L 99.177311 106.517623 
L 101.123626 127.019279 
L 101.401671 128.213502 
L 101.679716 128.598329 
L 101.957761 128.126372 
L 102.235807 126.792281 
L 102.791897 121.726101 
L 103.626032 109.875969 
L 104.738212 93.499637 
L 105.294302 88.363523 
L 105.572347 87.023318 
L 105.850393 86.588429 
L 106.128438 87.055036 
L 106.406483 88.382248 
L 106.962573 93.24092 
L 108.908888 115.633844 
L 109.186933 117.097483 
L 109.464978 117.734912 
L 109.743024 117.511353 
L 110.021069 116.428336 
L 110.577159 111.953344 
L 111.411294 101.467875 
L 112.245429 90.930433 
L 112.801519 86.418754 
L 113.079564 85.34873 
L 113.35761 85.164534 
L 113.635655 85.881449 
L 113.9137 87.465467 
L 114.46979 92.849215 
L 116.13806 113.833911 
L 116.416105 115.839823 
L 116.69415 116.949591 
L 116.972195 117.065383 
L 117.250241 116.138283 
L 117.528286 114.169822 
L 118.084376 107.391221 
L 118.918511 92.419295 
L 120.030691 72.806523 
L 120.586781 67.163676 
L 120.864827 65.920155 
L 121.142872 65.803981 
L 121.420917 66.798721 
L 121.698962 68.834059 
L 122.255052 75.473939 
L 123.923322 100.160535 
L 124.201367 102.499301 
L 124.479413 103.845239 
L 124.757458 104.111216 
L 125.035503 103.271247 
L 125.313548 101.354758 
L 125.869638 94.706853 
L 126.981818 75.548077 
L 127.537908 66.925978 
L 128.093998 61.382872 
L 128.372044 60.15158 
L 128.650089 60.040374 
L 128.928134 61.042375 
L 129.206179 63.096821 
L 129.762269 69.795552 
L 131.430539 93.906246 
L 131.708584 95.827321 
L 131.98663 96.613024 
L 132.264675 96.165143 
L 132.54272 94.448901 
L 133.09881 87.400883 
L 133.6549 76.474412 
L 135.32317 40.3099 
L 135.879261 34.120958 
L 136.157306 32.913742 
L 136.435351 33.006223 
L 136.713396 34.344517 
L 137.269486 40.217801 
L 139.215801 68.513817 
L 139.493847 70.012996 
L 139.771892 70.317953 
L 140.049937 69.379007 
L 140.327982 67.219088 
L 140.884072 59.678095 
L 142.830387 24.992509 
L 143.108433 22.779088 
L 143.386478 21.927273 
L 143.664523 22.521136 
L 143.942568 24.572142 
L 144.498658 32.709291 
L 145.332793 51.986534 
L 146.444973 78.039704 
L 147.001064 85.580314 
L 147.279109 87.212483 
L 147.557154 87.300377 
L 147.835199 85.854317 
L 148.113244 82.967927 
L 148.669334 73.620505 
L 150.337604 39.195546 
L 150.61565 36.054262 
L 150.893695 34.365153 
L 151.17174 34.250508 
L 151.449785 35.748923 
L 151.72783 38.815306 
L 152.28392 49.03709 
L 154.230236 95.639684 
L 154.508281 99.028603 
L 154.786326 100.806371 
L 155.064371 100.872865 
L 155.342416 99.220061 
L 155.620461 95.932412 
L 156.176551 85.215742 
L 158.122867 39.847114 
L 158.400912 37.237403 
L 158.678957 36.390555 
L 158.957002 37.378417 
L 159.235047 40.178822 
L 159.791137 50.675373 
L 160.625272 74.512064 
L 161.459407 98.808101 
L 162.015498 109.988322 
L 162.293543 113.163999 
L 162.571588 114.496179 
L 162.849633 113.921041 
L 163.127678 111.47298 
L 163.683768 101.563795 
L 164.517903 78.459306 
L 165.352038 54.665798 
L 165.908129 43.523793 
L 166.186174 40.220476 
L 166.464219 38.627669 
L 166.742264 38.778237 
L 167.020309 40.615239 
L 167.576399 48.668314 
L 168.410534 67.332587 
L 169.24467 84.98798 
L 169.80076 91.560601 
L 170.078805 92.584767 
L 170.35685 91.965681 
L 170.634895 89.71481 
L 171.190985 80.815651 
L 172.02512 60.268137 
L 172.859256 39.529547 
L 173.415346 30.372818 
L 173.693391 28.006919 
L 173.971436 27.310639 
L 174.249481 28.321429 
L 174.527526 30.991903 
L 175.083616 40.684408 
L 175.917751 62.017243 
L 176.751887 82.985506 
L 177.307977 92.23892 
L 177.586022 94.733604 
L 177.864067 95.661467 
L 178.142112 95.012574 
L 178.420157 92.867176 
L 178.976247 84.798815 
L 180.644518 52.466134 
L 180.922563 49.453253 
L 181.200608 47.845542 
L 181.478653 47.776373 
L 181.756698 49.292367 
L 182.034743 52.355311 
L 182.590833 62.562191 
L 183.703013 91.692061 
L 184.537149 110.161818 
L 184.815194 113.948938 
L 185.093239 116.195988 
L 185.371284 116.799788 
L 185.649329 115.740846 
L 185.927374 113.089098 
L 186.483464 103.691996 
L 188.42978 60.636531 
L 188.707825 57.73218 
L 188.98587 56.390447 
L 189.263915 56.688525 
L 189.54196 58.619918 
L 190.09805 66.930946 
L 190.932185 86.977842 
L 192.044366 113.8213 
L 192.600456 121.509421 
L 192.878501 123.195473 
L 193.156546 123.358651 
L 193.434591 122.037936 
L 193.712636 119.354852 
L 194.268726 110.753007 
L 195.658952 84.861105 
L 196.215042 79.587417 
L 196.493087 79.024125 
L 196.771132 79.973389 
L 197.049177 82.432916 
L 197.605267 91.470795 
L 198.439402 111.94379 
L 199.273538 132.955236 
L 199.829628 142.786462 
L 200.107673 145.671323 
L 200.385718 147.005413 
L 200.663763 146.732939 
L 200.941808 144.881416 
L 201.497898 136.954832 
L 202.332033 118.174004 
L 203.166169 98.980452 
L 203.722259 90.309819 
L 204.000304 87.940481 
L 204.278349 87.045865 
L 204.556394 87.657689 
L 204.834439 89.719778 
L 205.390529 97.602414 
L 206.50271 121.09708 
L 207.0588 131.543951 
L 207.61489 138.002309 
L 207.892935 139.266084 
L 208.17098 139.103287 
L 208.449025 137.520416 
L 208.72707 134.608805 
L 209.28316 125.48647 
L 210.951431 92.110517 
L 211.507521 86.930837 
L 211.785566 86.396972 
L 212.063611 87.301524 
L 212.341656 89.605132 
L 212.897746 97.87527 
L 213.731881 115.965551 
L 214.566017 133.632409 
L 215.122107 141.327408 
L 215.400152 143.3402 
L 215.678197 144.000939 
L 215.956242 143.297016 
L 216.234287 141.28499 
L 216.790377 133.911761 
L 217.902558 112.367214 
L 218.458648 102.68732 
L 219.014738 96.407044 
L 219.292783 94.930412 
L 219.570828 94.648766 
L 219.848873 95.542236 
L 220.126918 97.528659 
L 220.683008 104.178092 
L 222.351279 128.628901 
L 222.629324 130.815953 
L 222.907369 131.996419 
L 223.185414 132.103803 
L 223.463459 131.127024 
L 223.741504 129.119583 
L 224.297594 122.507982 
L 225.965865 97.125107 
L 226.521955 92.894309 
L 226.8 92.313057 
L 227.078045 92.811382 
L 227.35609 94.365592 
L 227.91218 100.254162 
L 228.746316 113.454817 
L 229.580451 126.444524 
L 230.136541 132.083549 
L 230.414586 133.547189 
L 230.692631 134.009974 
L 230.970676 133.466555 
L 231.248721 131.966993 
L 231.804811 126.534329 
L 233.751127 102.016644 
L 234.029172 100.463963 
L 234.307217 99.810867 
L 234.585262 100.087926 
L 234.863307 101.271831 
L 235.419397 106.04987 
L 236.253533 117.04895 
L 237.087668 128.044209 
L 237.643758 132.931161 
L 237.921803 134.266398 
L 238.199848 134.789563 
L 238.477893 134.498746 
L 238.755938 133.431779 
L 239.312028 129.35537 
L 241.258344 111.287254 
L 241.536389 110.365887 
L 241.814434 110.172519 
L 242.092479 110.722052 
L 242.370524 111.97933 
L 242.926614 116.300316 
L 244.594885 133.203253 
L 244.87293 134.857968 
L 245.150975 135.827104 
L 245.42902 136.047987 
L 245.707065 135.491575 
L 245.98511 134.171624 
L 246.5412 129.485302 
L 247.375336 119.110275 
L 248.209471 108.543025 
L 248.765561 103.478755 
L 249.043606 101.890916 
L 249.321651 101.015026 
L 249.599696 100.863311 
L 249.877741 101.413609 
L 250.155786 102.604775 
L 250.711876 106.514948 
L 252.380147 120.545635 
L 252.658192 121.807117 
L 252.936237 122.525561 
L 253.214282 122.680333 
L 253.492327 122.286717 
L 253.770372 121.385604 
L 254.326462 118.407116 
L 255.438643 111.225728 
L 255.994733 109.228223 
L 256.272778 109.03944 
L 256.550823 109.490378 
L 256.828868 110.620018 
L 257.384958 114.885209 
L 257.941048 121.454009 
L 260.165409 151.651609 
L 260.721499 155.397457 
L 260.999544 156.382643 
L 261.277589 156.813328 
L 261.555634 156.756005 
L 261.833679 156.297424 
L 262.38977 154.630479 
L 263.223905 152.154521 
L 263.50195 151.812495 
L 263.779995 151.869054 
L 264.05804 152.389162 
L 264.336085 153.411034 
L 264.892175 156.948992 
L 265.72631 165.248555 
L 267.116536 180.558303 
L 267.672626 184.747828 
L 268.228716 187.090034 
L 268.506761 187.565812 
L 268.784806 187.624664 
L 269.062851 187.330789 
L 269.618942 186.019246 
L 270.453077 183.759585 
L 270.731122 183.320875 
L 271.009167 183.173365 
L 271.287212 183.370555 
L 271.565257 183.948367 
L 272.121347 186.262294 
L 272.677437 189.918718 
L 274.623753 204.53639 
L 275.179843 206.578607 
L 275.457888 207.026488 
L 275.735933 207.110561 
L 276.013978 206.87057 
L 276.570068 205.673672 
L 277.682249 202.784226 
L 277.960294 202.488059 
L 278.238339 202.512516 
L 278.516384 202.911482 
L 278.794429 203.712089 
L 279.350519 206.534277 
L 279.906609 210.785329 
L 281.852925 227.989783 
L 282.409015 230.622806 
L 282.68706 231.25756 
L 282.965105 231.431056 
L 283.24315 231.166225 
L 283.521195 230.508925 
L 284.077285 228.285186 
L 285.467511 221.625434 
L 285.745556 220.84126 
L 286.023601 220.408282 
L 286.301646 220.363953 
L 286.579691 220.726232 
L 286.857736 221.492828 
L 287.413826 224.118208 
L 288.247962 229.91468 
L 289.360142 237.685345 
L 289.916232 240.217863 
L 290.194277 240.982547 
L 290.472322 241.403296 
L 290.750367 241.493484 
L 291.028412 241.290561 
L 291.584502 240.212895 
L 292.696683 237.378478 
L 292.974728 236.95964 
L 293.252773 236.779265 
L 293.530818 236.876713 
L 293.808863 237.272622 
L 294.364953 238.959438 
L 294.921043 241.661248 
L 296.589314 250.96778 
L 297.145404 252.504411 
L 297.423449 252.724148 
L 297.701494 252.549887 
L 297.979539 251.986214 
L 298.535629 249.797633 
L 299.369764 244.685594 
L 300.481945 237.632609 
L 301.038035 235.338936 
L 301.31608 234.675903 
L 301.594125 234.357189 
L 301.87217 234.379736 
L 302.150215 234.722526 
L 302.706305 236.192662 
L 304.096531 241.206106 
L 304.374576 241.798441 
L 304.652621 242.086965 
L 304.930666 242.026585 
L 305.208711 241.591697 
L 305.486756 240.771982 
L 306.042846 238.068261 
L 306.876982 232.129247 
L 307.989162 224.126615 
L 308.545252 221.645689 
L 308.823297 221.010935 
L 309.101342 220.817949 
L 309.379387 221.072079 
L 309.657432 221.755366 
L 310.213522 224.234764 
L 312.159838 235.656122 
L 312.437883 236.34323 
L 312.715928 236.570992 
L 312.993973 236.309601 
L 313.272018 235.558673 
L 313.828108 232.701327 
L 314.662244 226.005653 
L 315.774424 216.639888 
L 316.330514 213.548283 
L 316.608559 212.64182 
L 316.886604 212.198143 
L 317.164649 212.219543 
L 317.442694 212.673921 
L 317.998785 214.664547 
L 319.38901 221.437416 
L 319.667055 222.20898 
L 319.9451 222.552152 
L 320.223145 222.398909 
L 320.50119 221.712183 
L 320.779235 220.47898 
L 321.335325 216.468684 
L 322.169461 207.652452 
L 323.281641 195.501567 
L 323.837731 191.576109 
L 324.115776 190.507231 
L 324.393821 190.107501 
L 324.671866 190.404433 
L 324.949911 191.380065 
L 325.506002 195.162217 
L 326.340137 203.846989 
L 327.174272 212.649081 
L 327.730362 216.530975 
L 328.008407 217.50355 
L 328.286452 217.726726 
L 328.564497 217.170314 
L 328.842542 215.835841 
L 329.398633 211.01462 
L 330.232768 199.907773 
L 331.344948 184.129125 
L 331.901038 178.573026 
L 332.457128 175.693516 
L 332.735173 175.342319 
L 333.013219 175.690841 
L 333.291264 176.671441 
L 333.847354 180.090932 
L 335.237579 190.291316 
L 335.515624 191.386179 
L 335.793669 191.883358 
L 336.071714 191.721326 
L 336.349759 190.872568 
L 336.627805 189.343963 
L 337.183895 184.4658 
L 338.296075 170.584152 
L 339.13021 161.365133 
L 339.6863 157.917363 
L 339.964345 157.269999 
L 340.24239 157.38388 
L 340.520436 158.23646 
L 341.076526 161.905877 
L 341.910661 170.551287 
L 342.744796 179.245995 
L 343.300886 183.041522 
L 343.578931 184.01448 
L 343.856976 184.311029 
L 344.135022 183.921235 
L 344.413067 182.882165 
L 344.969157 179.162686 
L 346.637427 164.86755 
L 346.915472 163.680206 
L 347.193517 163.178441 
L 347.471562 163.432954 
L 347.749607 164.472788 
L 348.305698 168.817466 
L 348.861788 175.634282 
L 350.530058 198.509863 
L 351.086148 202.374178 
L 351.364193 203.060521 
L 351.642239 202.875178 
L 351.920284 201.842223 
L 352.476374 197.534995 
L 353.310509 187.565048 
L 354.144644 177.888593 
L 354.700734 174.084277 
L 354.978779 173.3922 
L 355.256825 173.605059 
L 355.53487 174.733552 
L 356.09096 179.557448 
L 356.925095 191.346818 
L 358.037275 207.452969 
L 358.593365 211.996367 
L 358.87141 212.878754 
L 359.149456 212.749205 
L 359.427501 211.605426 
L 359.705546 209.500154 
L 360.261636 202.837727 
L 362.207951 174.665911 
L 362.485996 172.899989 
L 362.764042 172.177723 
L 363.042087 172.549557 
L 363.320132 174.010139 
L 363.876222 179.892595 
L 364.710357 193.742525 
L 365.544492 208.151542 
L 366.100582 214.87817 
L 366.378628 216.820263 
L 366.656673 217.669021 
L 366.934718 217.383937 
L 367.212763 215.979148 
L 367.768853 210.15134 
L 368.602988 196.448539 
L 369.437123 182.498103 
L 369.993213 176.279354 
L 370.271259 174.652536 
L 370.549304 174.150771 
L 370.827349 174.805778 
L 371.105394 176.585457 
L 371.661484 183.099991 
L 372.773664 202.448697 
L 373.329754 211.229771 
L 373.885845 216.835931 
L 374.16389 218.037798 
L 374.441935 218.053466 
L 374.71998 216.871854 
L 374.998025 214.541113 
L 375.554115 206.9256 
L 377.50043 173.567226 
L 377.778476 171.342723 
L 378.056521 170.3262 
L 378.334566 170.583388 
L 378.612611 172.108554 
L 379.168701 178.635317 
L 380.002836 194.373457 
L 380.836971 210.919464 
L 381.393062 218.692423 
L 381.671107 220.952466 
L 381.949152 221.959817 
L 382.227197 221.659064 
L 382.505242 220.069696 
L 383.061332 213.427906 
L 383.895467 197.838423 
L 384.729602 182.162956 
L 385.285693 175.430596 
L 385.563738 173.824031 
L 385.841783 173.544297 
L 386.119828 174.622346 
L 386.397873 177.013467 
L 386.953963 185.210996 
L 388.900279 222.538776 
L 389.178324 225.047982 
L 389.456369 226.176093 
L 389.734414 225.840946 
L 390.012459 224.030695 
L 390.568549 216.32232 
L 391.402684 197.554102 
L 392.514865 171.669844 
L 393.070955 163.844913 
L 393.349 161.961671 
L 393.627045 161.54398 
L 393.90509 162.580374 
L 394.183135 164.97761 
L 394.739225 173.149534 
L 396.407496 203.88979 
L 396.685541 206.660769 
L 396.963586 208.121734 
L 397.241631 208.160331 
L 397.519676 206.743314 
L 397.797721 203.911955 
L 398.353811 194.548864 
L 400.578172 147.874808 
L 400.856217 145.785968 
L 401.134262 145.147393 
L 401.412307 145.959847 
L 401.690352 148.150721 
L 402.246442 156.013485 
L 404.192758 190.411311 
L 404.470803 192.243345 
L 404.748848 192.683201 
L 405.026893 191.680436 
L 405.304938 189.2618 
L 405.861028 180.637408 
L 406.695163 161.625378 
L 407.529299 142.588126 
L 408.085389 133.899532 
L 408.363434 131.425102 
L 408.641479 130.351639 
L 408.919524 130.702454 
L 409.197569 132.424428 
L 409.753659 139.411684 
L 410.865839 160.60962 
L 411.42193 169.928763 
L 411.97802 175.43671 
L 412.256065 176.316805 
L 412.53411 175.837205 
L 412.812155 174.009757 
L 413.368245 166.719456 
L 414.20238 149.858555 
L 415.036516 132.907467 
L 415.592606 125.529653 
L 415.870651 123.69418 
L 416.148696 123.25547 
L 416.426741 124.245242 
L 416.704786 126.617638 
L 417.260876 134.956945 
L 419.207192 173.808745 
L 419.485237 176.580107 
L 419.763282 177.97687 
L 420.041327 177.917637 
L 420.319372 176.395528 
L 420.597417 173.481624 
L 421.153507 164.121973 
L 423.099823 124.073657 
L 423.377868 121.468913 
L 423.655913 120.298765 
L 423.933958 120.625123 
L 424.212003 122.431552 
L 424.768093 130.025282 
L 425.602228 147.987924 
L 426.436364 166.332718 
L 426.436364 166.332718 
" clip-path="url(#p8b3fe2827f)" style="fill: none; stroke-dasharray: 11.1,4.8; stroke-dashoffset: 0; stroke: #000000; stroke-width: 3"/>
   </g>
   <g id="line2d_2">
    <path d="M 27.163636 175.057234 
L 28.275817 173.906576 
L 29.387997 173.098326 
L 30.222132 172.744072 
L 31.056267 172.625605 
L 31.890403 172.760886 
L 32.724538 173.167878 
L 33.558673 173.862629 
L 34.392808 174.862337 
L 35.504989 176.651569 
L 35.783034 176.632462 
L 40.231755 167.886546 
L 46.626792 154.758882 
L 53.021828 141.364095 
L 53.577918 139.776256 
L 54.412054 142.691307 
L 61.363181 168.115072 
L 63.309496 174.252805 
L 64.977767 178.819896 
L 66.367992 182.025764 
L 67.480172 184.132182 
L 68.592352 185.788044 
L 69.426488 186.712086 
L 70.260623 187.345693 
L 70.816713 187.526451 
L 71.372803 187.541737 
L 71.928893 187.408748 
L 72.206938 187.21729 
L 72.763029 186.3949 
L 74.153254 183.819582 
L 75.821524 180.213984 
L 77.489795 176.056178 
L 79.43611 170.533708 
L 85.831147 150.722982 
L 87.777463 143.733433 
L 90.279868 133.152426 
L 92.504229 123.720931 
L 94.172499 118.859583 
L 96.118815 112.399697 
L 103.347987 87.308785 
L 104.738212 83.660386 
L 105.850393 81.384674 
L 106.684528 80.261532 
L 107.240618 79.833904 
L 107.796708 79.69824 
L 108.352798 79.878616 
L 108.908888 80.386495 
L 109.464978 81.244807 
L 109.743024 81.864657 
L 110.577159 85.354845 
L 111.689339 89.063242 
L 112.523474 91.0596 
L 113.079564 91.884665 
L 113.635655 92.311146 
L 114.191745 92.369233 
L 114.747835 92.074977 
L 115.303925 91.445191 
L 115.860015 90.49822 
L 116.69415 88.520969 
L 117.528286 85.933804 
L 118.640466 81.649887 
L 120.030691 75.199172 
L 121.977007 64.771026 
L 123.645277 54.775093 
L 125.869638 41.642079 
L 126.981818 35.946495 
L 127.259863 36.125342 
L 129.484224 48.28387 
L 130.874449 55.386917 
L 132.264675 61.187211 
L 133.376855 64.980445 
L 134.489035 68.10415 
L 135.601215 70.63361 
L 136.713396 72.651752 
L 137.825576 74.249908 
L 139.215801 75.801825 
L 141.162117 77.756912 
L 142.274297 88.953946 
L 143.386478 97.552734 
L 144.220613 102.380452 
L 145.054748 105.89892 
L 145.888883 108.397426 
L 146.444973 109.41968 
L 147.001064 109.923738 
L 147.279109 109.985264 
L 147.835199 109.744891 
L 148.391289 109.023389 
L 148.947379 107.848656 
L 149.781514 105.256523 
L 150.61565 101.721241 
L 151.449785 97.299368 
L 152.561965 90.122565 
L 154.230236 78.312177 
L 155.342416 84.158329 
L 156.176551 87.643932 
L 157.010686 90.369053 
L 157.844821 92.437638 
L 158.678957 93.83593 
L 159.235047 94.412979 
L 159.791137 94.726725 
L 160.347227 94.797423 
L 160.903317 94.646091 
L 161.459407 94.292983 
L 162.293543 94.344191 
L 162.849633 94.157319 
L 163.683768 93.566896 
L 164.517903 92.681451 
L 166.186174 90.672863 
L 172.859256 88.934457 
L 174.527526 88.124296 
L 175.917751 87.203693 
L 177.307977 86.018642 
L 178.142112 84.85843 
L 179.254292 83.734141 
L 180.366473 82.917866 
L 181.200608 82.536096 
L 182.034743 82.369861 
L 182.868878 82.436355 
L 183.703013 82.752394 
L 184.537149 83.334411 
L 185.371284 84.198073 
L 186.205419 85.360577 
L 187.317599 87.404323 
L 188.42978 90.040403 
L 189.54196 93.31009 
L 194.268726 109.347072 
L 196.493087 117.974521 
L 198.717447 125.669138 
L 200.941808 132.531813 
L 203.166169 138.637063 
L 204.000304 140.980797 
L 205.112484 145.108414 
L 206.50271 151.167042 
L 208.449025 160.779677 
L 211.507521 176.038216 
L 214.844062 190.726586 
L 216.512332 197.062274 
L 217.902558 201.413831 
L 218.458648 202.806391 
L 218.736693 202.901929 
L 221.239099 196.506243 
L 225.965865 184.225427 
L 227.91218 179.839094 
L 229.024361 178.02655 
L 229.858496 177.069643 
L 230.692631 176.465844 
L 231.526766 176.215153 
L 232.082856 176.249928 
L 232.638947 176.443297 
L 233.473082 176.831945 
L 234.029172 175.704598 
L 235.419397 172.893111 
L 236.809623 170.621603 
L 238.199848 168.808677 
L 240.146164 166.678565 
L 243.482704 163.12494 
L 244.594885 161.64716 
L 247.653381 155.967627 
L 248.487516 154.128715 
L 249.321651 152.732334 
L 250.155786 151.74409 
L 250.989921 151.128826 
L 251.824057 150.85062 
L 252.658192 150.872785 
L 253.492327 151.159399 
L 254.326462 151.674156 
L 255.438643 152.696029 
L 256.828868 154.358005 
L 258.775184 157.094973 
L 260.721499 159.795637 
L 261.833679 160.304663 
L 263.50195 161.647543 
L 266.282401 164.306552 
L 268.784806 166.619714 
L 270.453077 167.870878 
L 271.843302 168.625244 
L 272.955482 168.969181 
L 274.067663 169.054018 
L 274.623753 169.072744 
L 275.457888 169.332989 
L 276.570068 169.983028 
L 277.682249 170.899809 
L 278.794429 171.794426 
L 279.906609 172.440644 
L 281.296835 173.545825 
L 284.633376 176.361517 
L 285.745556 176.980984 
L 286.579691 177.230911 
L 287.413826 177.247726 
L 288.247962 176.983659 
L 289.082097 176.431832 
L 289.360142 176.544185 
L 290.194277 177.383389 
L 291.028412 177.934452 
L 291.862547 178.191257 
L 292.696683 178.143488 
L 293.808863 177.694078 
L 294.642998 177.008499 
L 295.199088 176.565203 
L 296.033224 177.23435 
L 296.867359 177.62338 
L 297.701494 177.757898 
L 298.535629 177.665799 
L 299.369764 177.361224 
L 300.481945 176.66227 
L 301.594125 175.666765 
L 302.98435 174.071283 
L 304.096531 172.739486 
L 305.208711 173.833203 
L 306.320891 174.663236 
L 307.711117 175.422953 
L 309.657432 176.172734 
L 311.881793 176.827359 
L 314.384199 175.052266 
L 315.218334 174.768327 
L 316.052469 174.671643 
L 316.886604 174.754952 
L 317.720739 175.023987 
L 318.554875 175.483715 
L 319.38901 176.147512 
L 322.447506 179.097338 
L 324.393821 180.623651 
L 326.340137 181.861439 
L 328.286452 182.810703 
L 328.564497 182.705611 
L 330.232768 181.038667 
L 332.179083 179.418345 
L 334.403444 177.899294 
L 335.237579 177.359314 
L 337.183895 175.300664 
L 339.13021 173.564169 
L 341.076526 172.153266 
L 343.578931 170.69918 
L 344.969157 170.066337 
L 345.525247 170.29066 
L 346.359382 170.985411 
L 347.193517 172.031359 
L 348.027653 173.433473 
L 349.139833 175.862427 
L 350.252013 178.971992 
L 351.642239 183.280749 
L 352.476374 183.158461 
L 353.310509 183.227248 
L 354.144644 183.583795 
L 354.978779 184.197148 
L 356.09096 185.361563 
L 357.20314 186.854629 
L 358.87141 189.54956 
L 361.651861 194.406322 
L 363.042087 195.236354 
L 364.154267 195.678504 
L 365.266447 195.89633 
L 366.100582 195.870343 
L 366.934718 195.626531 
L 367.768853 195.172917 
L 368.881033 194.394475 
L 370.271259 195.556597 
L 371.939529 197.287743 
L 373.607799 199.341806 
L 374.998025 201.332051 
L 376.94434 204.525308 
L 378.890656 207.864164 
L 379.168701 207.657802 
L 381.671107 203.437323 
L 383.617422 200.50584 
L 385.563738 198.014595 
L 386.119828 197.437164 
L 388.344188 195.982696 
L 390.846594 194.627205 
L 391.680729 194.237793 
L 392.514865 194.490395 
L 394.183135 195.275716 
L 395.851405 196.340008 
L 397.241631 197.475379 
L 398.353811 199.666635 
L 399.465991 201.379055 
L 400.578172 202.776201 
L 401.412307 203.471334 
L 402.246442 203.899726 
L 403.080577 204.069783 
L 403.358622 203.859218 
L 404.748848 200.732073 
L 405.861028 198.718135 
L 406.973208 197.131825 
L 408.641479 195.281066 
L 409.753659 194.293969 
L 410.865839 193.6103 
L 411.97802 193.192991 
L 413.0902 192.999622 
L 414.480425 193.009941 
L 418.095011 193.28509 
L 420.875462 193.262543 
L 422.265688 194.120855 
L 423.933958 195.429341 
L 425.602228 196.966354 
L 426.436364 197.826194 
L 426.436364 197.826194 
" clip-path="url(#p8b3fe2827f)" style="fill: none; stroke: #ff00ff; stroke-width: 3; stroke-linecap: square"/>
   </g>
   <g id="patch_3">
    <path d="M 7.2 331.2 
L 7.2 7.2 
" style="fill: none; stroke: #000000; stroke-width: 0.8; stroke-linejoin: miter; stroke-linecap: square"/>
   </g>
   <g id="patch_4">
    <path d="M 446.4 331.2 
L 446.4 7.2 
" style="fill: none; stroke: #000000; stroke-width: 0.8; stroke-linejoin: miter; stroke-linecap: square"/>
   </g>
   <g id="patch_5">
    <path d="M 7.2 331.2 
L 446.4 331.2 
" style="fill: none; stroke: #000000; stroke-width: 0.8; stroke-linejoin: miter; stroke-linecap: square"/>
   </g>
   <g id="patch_6">
    <path d="M 7.2 7.2 
L 446.4 7.2 
" style="fill: none; stroke: #000000; stroke-width: 0.8; stroke-linejoin: miter; stroke-linecap: square"/>
   </g>
  </g>
 </g>
 <defs>
  <clipPath id="p8b3fe2827f">
   <rect x="7.2" y="7.2" width="439.2" height="324"/>
  </clipPath>
 </defs>
</svg>
