<?xml version="1.0" encoding="utf-8" standalone="no"?>
<!DOCTYPE svg PUBLIC "-//W3C//DTD SVG 1.1//EN"
  "http://www.w3.org/Graphics/SVG/1.1/DTD/svg11.dtd">
<svg xmlns:xlink="http://www.w3.org/1999/xlink" width="453.6pt" height="338.4pt" viewBox="0 0 453.6 338.4" xmlns="http://www.w3.org/2000/svg" version="1.1">
 <metadata>
  <rdf:RDF xmlns:dc="http://purl.org/dc/elements/1.1/" xmlns:cc="http://creativecommons.org/ns#" xmlns:rdf="http://www.w3.org/1999/02/22-rdf-syntax-ns#">
   <cc:Work>
    <dc:type rdf:resource="http://purl.org/dc/dcmitype/StillImage"/>
    <dc:date>2025-05-15T18:03:29.437629</dc:date>
    <dc:format>image/svg+xml</dc:format>
    <dc:creator>
     <cc:Agent>
      <dc:title>Matplotlib v3.10.1, https://matplotlib.org/</dc:title>
     </cc:Agent>
    </dc:creator>
   </cc:Work>
  </rdf:RDF>
 </metadata>
 <defs>
  <style type="text/css">*{stroke-linejoin: round; stroke-linecap: butt}</style>
 </defs>
 <g id="figure_1">
  <g id="patch_1">
   <path d="M 0 338.4 
L 453.6 338.4 
L 453.6 0 
L 0 0 
z
" style="fill: #ffffff"/>
  </g>
  <g id="axes_1">
   <g id="patch_2">
    <path d="M 7.2 331.2 
L 446.4 331.2 
L 446.4 7.2 
L 7.2 7.2 
z
" style="fill: #ffffff"/>
   </g>
   <g id="matplotlib.axis_1"/>
   <g id="matplotlib.axis_2"/>
   <g id="line2d_1">
    <path d="M 27.163636 279.661519 
L 27.441681 279.828379 
L 27.719727 279.527463 
L 28.275817 278.010485 
L 29.666042 273.219332 
L 30.222132 272.157473 
L 30.500177 271.908216 
L 30.778222 271.842092 
L 31.056267 271.932754 
L 31.612358 272.440308 
L 32.446493 273.276157 
L 32.724538 273.379218 
L 33.002583 273.330658 
L 33.280628 273.112139 
L 33.836718 272.16858 
L 34.670853 269.873093 
L 35.504989 267.612477 
L 36.061079 266.669435 
L 36.617169 266.305236 
L 37.173259 266.389441 
L 38.007394 266.700689 
L 38.285439 266.688807 
L 38.563484 266.563016 
L 39.119575 265.925539 
L 39.675665 264.815637 
L 41.06589 261.572717 
L 41.62198 260.779745 
L 42.17807 260.456615 
L 42.734161 260.529197 
L 43.568296 261.032359 
L 45.236566 262.285875 
L 45.792656 262.965196 
L 46.626792 264.49199 
L 47.738972 266.695781 
L 48.017017 267.019169 
L 48.295062 267.159166 
L 48.573107 267.077544 
L 48.851152 266.746407 
L 49.129197 266.151033 
L 49.685287 264.17351 
L 50.519423 259.642721 
L 52.465738 248.057839 
L 54.134009 239.55315 
L 54.968144 233.693939 
L 55.802279 226.134358 
L 58.304685 201.782626 
L 59.13882 195.805632 
L 59.972955 191.193221 
L 60.80709 187.961925 
L 61.363181 186.694978 
L 61.641226 186.364874 
L 61.919271 186.245282 
L 62.197316 186.335686 
L 62.475361 186.628854 
L 63.031451 187.735656 
L 63.865586 190.240363 
L 64.977767 193.687338 
L 65.811902 195.648846 
L 66.924082 198.091819 
L 67.480172 199.856505 
L 68.036262 202.287855 
L 68.870398 207.25155 
L 70.260623 217.695276 
L 71.928893 229.856419 
L 73.319119 238.385905 
L 74.153254 242.542938 
L 74.987389 245.532985 
L 75.543479 246.781851 
L 76.09957 247.51929 
L 77.76784 249.002431 
L 78.32393 250.0599 
L 79.158065 252.367526 
L 80.548291 256.401609 
L 81.104381 257.459078 
L 81.660471 258.119285 
L 83.328741 259.504016 
L 83.884832 260.43466 
L 84.718967 262.366464 
L 86.109192 265.630306 
L 86.943327 266.996439 
L 88.333553 269.098202 
L 90.001823 272.21559 
L 90.279868 272.433851 
L 90.557913 272.448315 
L 90.835958 272.219206 
L 91.114004 271.717593 
L 91.670094 269.858371 
L 92.226184 266.934448 
L 93.338364 259.154798 
L 94.450544 251.551824 
L 95.28468 247.106531 
L 96.39686 242.493087 
L 97.50904 238.713942 
L 98.06513 237.356333 
L 98.621221 236.677012 
L 98.899266 236.667713 
L 99.177311 236.905346 
L 99.455356 237.393011 
L 100.011446 239.061352 
L 100.845581 242.765074 
L 101.957761 247.914226 
L 102.791897 250.67413 
L 103.626032 252.447598 
L 105.016257 255.056657 
L 107.518663 260.545469 
L 109.464978 263.425224 
L 110.855204 266.192102 
L 111.133249 266.490952 
L 111.411294 266.574898 
L 111.689339 266.397706 
L 111.967384 265.922181 
L 112.523474 264.019823 
L 113.079564 260.947121 
L 115.02588 248.282557 
L 115.58197 246.496433 
L 115.860015 246.08135 
L 116.13806 245.953493 
L 116.416105 246.067918 
L 116.972195 246.769453 
L 117.806331 248.052673 
L 118.362421 248.517608 
L 118.918511 248.557386 
L 120.030691 248.230123 
L 120.308736 248.289273 
L 120.864827 248.768673 
L 121.420917 249.683561 
L 122.533097 251.764144 
L 123.089187 252.280738 
L 123.367232 252.335755 
L 123.923322 252.122144 
L 124.479413 251.779642 
L 124.757458 251.715584 
L 125.035503 251.807279 
L 125.313548 252.11362 
L 125.591593 252.674124 
L 126.147683 254.629433 
L 126.981818 259.205941 
L 127.815953 263.97023 
L 128.372044 266.043064 
L 128.650089 266.54881 
L 128.928134 266.668143 
L 129.206179 266.414237 
L 129.484224 265.82842 
L 130.040314 263.952408 
L 130.874449 260.805058 
L 131.430539 259.575047 
L 131.708584 259.404313 
L 131.98663 259.548959 
L 132.264675 259.988839 
L 132.820765 261.551278 
L 133.932945 265.319316 
L 134.489035 266.451949 
L 134.76708 266.722902 
L 135.045125 266.817181 
L 135.601215 266.637923 
L 136.157306 266.34863 
L 136.435351 266.306011 
L 136.713396 266.3866 
L 137.269486 266.961827 
L 138.659711 269.110084 
L 138.937756 269.141338 
L 139.215801 268.893114 
L 139.493847 268.331318 
L 140.049937 266.269333 
L 140.884072 261.479213 
L 141.718207 256.512419 
L 142.274297 254.099924 
L 142.830387 252.640287 
L 144.220613 250.31613 
L 144.776703 248.086252 
L 145.332793 244.407585 
L 146.166928 236.588674 
L 147.279109 225.543891 
L 147.835199 221.471838 
L 148.391289 218.786323 
L 148.947379 217.188497 
L 149.781514 215.354846 
L 150.337604 213.498207 
L 150.893695 210.718672 
L 152.561965 200.565014 
L 153.118055 198.962281 
L 153.3961 198.791805 
L 153.674145 199.041578 
L 153.95219 199.665882 
L 154.508281 201.757313 
L 155.620461 206.676581 
L 156.176551 208.297654 
L 156.732641 209.179996 
L 157.566776 210.07138 
L 158.122867 211.304748 
L 158.678957 213.594293 
L 159.513092 218.873369 
L 160.625272 226.17052 
L 161.181362 228.269183 
L 161.459407 228.748841 
L 161.737453 228.863525 
L 162.015498 228.666961 
L 162.571588 227.687498 
L 163.127678 226.676524 
L 163.405723 226.45103 
L 163.683768 226.53911 
L 163.961813 227.004819 
L 164.239858 227.877863 
L 164.795948 230.782672 
L 165.630084 237.071431 
L 166.464219 243.354508 
L 167.020309 246.441674 
L 167.576399 248.402924 
L 168.132489 249.494487 
L 169.24467 251.136224 
L 169.80076 252.498482 
L 171.46903 257.511512 
L 172.02512 258.249725 
L 172.303165 258.339096 
L 172.859256 258.116185 
L 173.415346 257.779624 
L 173.693391 257.758702 
L 173.971436 257.937444 
L 174.249481 258.369833 
L 174.805571 260.101973 
L 175.361661 262.888482 
L 176.751887 270.679239 
L 177.029932 271.612208 
L 177.307977 272.155923 
L 177.586022 272.271124 
L 177.864067 271.95006 
L 178.142112 271.210814 
L 178.698202 268.655223 
L 179.532337 263.17855 
L 181.200608 252.147198 
L 183.981058 236.440928 
L 184.537149 234.589713 
L 184.815194 234.095849 
L 185.093239 233.916074 
L 185.371284 234.042381 
L 185.649329 234.449716 
L 186.205419 235.905995 
L 187.317599 239.449831 
L 187.87369 240.51169 
L 188.151735 240.745191 
L 188.42978 240.785743 
L 188.98587 240.422061 
L 189.820005 239.530936 
L 190.09805 239.362526 
L 190.376095 239.328948 
L 190.65414 239.445698 
L 191.21023 240.111846 
L 193.156546 243.390153 
L 193.712636 243.647158 
L 194.546771 243.820992 
L 195.102861 244.312531 
L 195.658952 245.417526 
L 196.493087 248.068688 
L 197.327222 250.595866 
L 197.605267 251.053052 
L 197.883312 251.198473 
L 198.161357 250.982279 
L 198.439402 250.37528 
L 198.995493 247.993781 
L 199.551583 244.291609 
L 201.775943 227.419644 
L 202.332033 224.805161 
L 202.888124 222.949039 
L 203.444214 221.710246 
L 204.000304 221.036865 
L 204.278349 220.938971 
L 204.556394 221.031958 
L 204.834439 221.345789 
L 205.112484 221.913526 
L 205.668574 223.908096 
L 206.224664 227.095482 
L 207.0588 233.630398 
L 208.17098 242.626626 
L 208.72707 245.774751 
L 209.28316 247.489327 
L 209.561205 247.803416 
L 209.83925 247.797476 
L 210.117296 247.521614 
L 210.673386 246.418169 
L 212.063611 243.122557 
L 213.175791 240.886479 
L 213.731881 239.216588 
L 214.287972 236.823724 
L 215.400152 230.374563 
L 216.234287 226.072109 
L 216.790377 224.626678 
L 217.068422 224.488489 
L 217.346467 224.75531 
L 217.624513 225.405702 
L 218.180603 227.65392 
L 219.848873 236.243589 
L 220.404963 237.93776 
L 220.961053 238.822169 
L 221.517144 239.185851 
L 222.351279 239.607392 
L 222.907369 240.189593 
L 224.297594 241.964094 
L 224.575639 242.046491 
L 224.853684 241.947563 
L 225.13173 241.652588 
L 225.68782 240.499292 
L 227.634135 235.101141 
L 227.91218 234.845685 
L 228.190225 234.793251 
L 228.46827 234.921883 
L 229.024361 235.538696 
L 229.580451 236.213885 
L 229.858496 236.4027 
L 230.136541 236.410966 
L 230.414586 236.195288 
L 230.692631 235.731903 
L 231.248721 234.058138 
L 232.082856 230.176707 
L 233.195037 224.840031 
L 233.751127 222.979259 
L 234.307217 221.745632 
L 235.975487 218.967906 
L 236.809623 216.564451 
L 238.199848 212.211371 
L 238.755938 211.149253 
L 239.312028 210.553104 
L 240.146164 209.805334 
L 240.702254 208.710929 
L 241.258344 206.659533 
L 241.814434 203.513992 
L 242.926614 194.990446 
L 243.76075 188.842459 
L 244.31684 185.854221 
L 244.87293 183.95677 
L 245.42902 182.912733 
L 246.263155 181.824786 
L 246.819245 180.57747 
L 247.375336 178.450651 
L 247.931426 175.389315 
L 249.877741 163.049172 
L 250.433831 161.281645 
L 250.711876 160.928811 
L 250.989921 160.947667 
L 251.267967 161.342603 
L 251.546012 162.105354 
L 252.102102 164.69969 
L 252.658192 168.633296 
L 253.492327 176.867032 
L 254.326462 187.638795 
L 257.384958 230.809793 
L 257.941048 235.17863 
L 258.497139 238.075432 
L 259.053229 239.890227 
L 261.277589 245.45343 
L 262.38977 248.649598 
L 262.94586 249.552088 
L 263.223905 249.743227 
L 263.50195 249.763891 
L 263.779995 249.629318 
L 264.336085 249.023612 
L 265.448265 247.612793 
L 266.004356 247.297412 
L 267.394581 247.065203 
L 267.672626 246.813364 
L 268.228716 245.813237 
L 268.784806 244.084972 
L 269.618942 240.476562 
L 270.731122 235.753341 
L 271.287212 234.232488 
L 271.843302 233.400513 
L 272.399392 233.065244 
L 273.511573 232.680381 
L 274.345708 231.97523 
L 274.901798 231.563246 
L 275.179843 231.52476 
L 275.457888 231.677672 
L 275.735933 232.079065 
L 276.013978 232.776984 
L 276.570068 235.165974 
L 277.126159 238.868404 
L 277.960294 246.247177 
L 279.906609 264.393838 
L 281.852925 281.072855 
L 283.79924 298.947787 
L 284.35533 302.141631 
L 284.911421 303.841742 
L 285.189466 304.150407 
L 285.467511 304.148857 
L 285.745556 303.894693 
L 286.301646 302.913681 
L 287.135781 301.296999 
L 287.691871 300.666754 
L 288.247962 300.452109 
L 289.082097 300.349565 
L 289.638187 299.91201 
L 290.194277 298.905168 
L 291.028412 296.467619 
L 291.862547 293.943023 
L 292.418638 292.9212 
L 292.696683 292.709655 
L 292.974728 292.706297 
L 293.252773 292.888396 
L 293.808863 293.663546 
L 294.642998 295.048793 
L 295.199088 295.520185 
L 295.477133 295.528451 
L 295.755179 295.386645 
L 296.311269 294.757434 
L 297.145404 293.718821 
L 297.423449 293.588381 
L 297.701494 293.65373 
L 297.979539 293.949997 
L 298.535629 295.262663 
L 299.091719 297.422801 
L 301.31608 307.428455 
L 302.42826 310.553591 
L 304.652621 316.255241 
L 304.930666 316.472727 
L 305.208711 316.401954 
L 305.486756 315.998236 
L 305.764801 315.231093 
L 306.320891 312.597755 
L 307.155027 306.412314 
L 308.545252 294.91577 
L 309.379387 290.082773 
L 310.213522 286.857159 
L 311.047658 283.737706 
L 311.603748 280.914002 
L 312.437883 275.016047 
L 313.550063 264.844566 
L 316.608559 234.584805 
L 319.9451 196.896162 
L 322.447506 174.3086 
L 324.671866 151.709155 
L 325.784047 143.462246 
L 326.896227 135.208621 
L 327.730362 127.050567 
L 328.842542 113.253887 
L 330.510813 92.423261 
L 331.622993 81.595964 
L 336.071714 43.728837 
L 338.296075 28.488535 
L 339.13021 23.980218 
L 339.6863 22.248594 
L 339.964345 21.927273 
L 340.24239 22.026459 
L 340.520436 22.565267 
L 340.798481 23.545762 
L 341.354571 26.74503 
L 342.188706 33.891335 
L 344.135022 52.101279 
L 344.969157 57.720015 
L 345.803292 61.972102 
L 346.915472 66.305552 
L 348.027653 69.648174 
L 349.139833 72.88257 
L 349.695923 75.027727 
L 350.252013 77.870803 
L 351.086148 83.679904 
L 353.588554 104.031389 
L 354.144644 106.783803 
L 354.700734 108.708375 
L 355.812915 111.380716 
L 356.64705 113.689634 
L 357.75923 117.831427 
L 359.149456 122.921429 
L 360.817726 128.329137 
L 361.651861 132.184479 
L 363.042087 140.438104 
L 363.876222 144.975867 
L 364.710357 148.43524 
L 366.100582 153.468933 
L 366.934718 157.760281 
L 368.046898 165.335359 
L 369.159078 172.681328 
L 369.993213 176.738658 
L 371.661484 183.480987 
L 372.495619 188.337489 
L 374.16389 199.348951 
L 374.71998 201.539827 
L 374.998025 202.10214 
L 375.27607 202.27959 
L 375.554115 202.066237 
L 375.83216 201.474478 
L 376.38825 199.248474 
L 376.94434 195.837403 
L 377.778476 188.98943 
L 378.890656 177.31931 
L 380.836971 155.094913 
L 381.393062 151.283482 
L 381.671107 150.298853 
L 381.949152 150.020409 
L 382.227197 150.480436 
L 382.505242 151.67816 
L 383.061332 156.10563 
L 383.895467 166.252572 
L 385.007648 180.071466 
L 385.563738 184.749226 
L 386.119828 187.376365 
L 386.397873 187.992662 
L 386.675918 188.237786 
L 386.953963 188.211181 
L 388.344188 187.293194 
L 388.622233 187.406069 
L 389.178324 188.008935 
L 390.012459 189.153449 
L 390.290504 189.376618 
L 390.568549 189.449458 
L 390.846594 189.360862 
L 391.402684 188.762646 
L 392.236819 187.632596 
L 392.514865 187.503706 
L 392.79291 187.627947 
L 393.070955 188.06421 
L 393.349 188.850983 
L 393.90509 191.481997 
L 394.739225 197.362389 
L 395.851405 205.025804 
L 396.407496 207.342988 
L 396.963586 208.462705 
L 397.519676 208.7941 
L 398.075766 209.006162 
L 398.353811 209.276858 
L 398.631856 209.739984 
L 399.187946 211.339876 
L 400.022082 215.021126 
L 400.856217 218.443304 
L 401.134262 219.139157 
L 401.412307 219.524278 
L 401.690352 219.591951 
L 401.968397 219.368008 
L 402.524487 218.325779 
L 403.080577 217.18204 
L 403.358622 216.879574 
L 403.636668 216.90592 
L 403.914713 217.353291 
L 404.192758 218.277478 
L 404.748848 221.589363 
L 405.582983 229.266468 
L 406.417118 237.102169 
L 406.973208 240.52073 
L 407.251253 241.396099 
L 407.529299 241.666278 
L 407.807344 241.345731 
L 408.085389 240.482761 
L 408.641479 237.462493 
L 410.031704 226.895818 
L 411.97802 211.632785 
L 413.0902 199.674922 
L 413.924335 190.954813 
L 414.480425 187.126592 
L 414.75847 186.154878 
L 415.036516 185.902522 
L 415.314561 186.385279 
L 415.592606 187.56673 
L 416.148696 191.657898 
L 417.816966 206.413635 
L 418.095011 207.624273 
L 418.373056 208.255034 
L 418.651102 208.318834 
L 418.929147 207.875079 
L 419.485237 205.851322 
L 420.597417 200.683314 
L 421.153507 199.056559 
L 421.709597 198.264362 
L 422.543733 197.501094 
L 422.821778 196.999481 
L 423.377868 195.197342 
L 423.933958 192.211945 
L 425.880273 179.952391 
L 426.158319 179.187056 
L 426.436364 178.82699 
L 426.436364 178.82699 
" clip-path="url(#pa0d94a6e85)" style="fill: none; stroke-dasharray: 11.1,4.8; stroke-dashoffset: 0; stroke: #000000; stroke-width: 3"/>
   </g>
   <g id="line2d_2">
    <path d="M 27.163636 182.249427 
L 29.387997 184.520374 
L 30.500177 185.523859 
L 31.056267 185.566994 
L 32.168448 185.454118 
L 32.446493 185.990343 
L 33.836718 190.556261 
L 34.114763 191.044959 
L 36.061079 192.721307 
L 37.451304 193.717558 
L 38.84153 194.42865 
L 39.95371 194.736024 
L 41.06589 194.769344 
L 41.900025 194.591377 
L 43.846341 193.794531 
L 44.680476 193.255982 
L 45.514611 192.487031 
L 46.626792 191.100492 
L 47.738972 189.293704 
L 48.017017 188.775819 
L 48.295062 188.942937 
L 50.241378 191.327536 
L 51.631603 195.384091 
L 53.577918 201.770486 
L 56.914459 213.955134 
L 58.860775 222.298388 
L 64.699721 248.829372 
L 65.533857 255.456242 
L 66.924082 266.643089 
L 67.202127 267.883431 
L 68.036262 269.742395 
L 69.704533 272.206808 
L 71.650848 274.648748 
L 72.484984 275.42054 
L 73.319119 275.950565 
L 74.153254 276.202147 
L 74.987389 276.143513 
L 75.543479 275.918278 
L 76.377615 275.27331 
L 77.21175 274.248646 
L 78.045885 272.809931 
L 78.88002 270.951484 
L 79.992201 267.772622 
L 80.270246 266.854117 
L 80.548291 266.920241 
L 82.772651 269.525167 
L 84.718967 271.224504 
L 88.889643 273.150108 
L 90.279868 273.511466 
L 91.392049 273.586114 
L 92.504229 273.41228 
L 93.338364 273.086051 
L 94.172499 272.567132 
L 95.006635 271.83331 
L 95.84077 270.863404 
L 96.95295 269.167168 
L 97.230995 268.741494 
L 97.50904 268.526849 
L 99.455356 268.013871 
L 100.567536 267.539896 
L 102.235807 266.488369 
L 104.460167 264.812279 
L 106.406483 263.075489 
L 108.352798 261.00343 
L 110.021069 258.91794 
L 111.689339 256.515002 
L 113.635655 253.280348 
L 116.13806 248.847711 
L 117.806331 247.700872 
L 118.918511 247.063654 
L 119.196556 246.736391 
L 126.425728 230.26582 
L 129.206179 223.142245 
L 131.430539 216.863559 
L 133.6549 209.917434 
L 135.879261 202.157674 
L 136.713396 199.435997 
L 137.825576 197.650906 
L 138.659711 196.616685 
L 139.771892 195.624049 
L 140.606027 195.163247 
L 141.440162 194.939304 
L 142.274297 194.933621 
L 143.108433 195.126311 
L 144.220613 195.659952 
L 145.332793 196.469197 
L 146.723018 197.803043 
L 148.391289 199.765843 
L 150.61565 202.769063 
L 153.95219 207.398521 
L 159.235047 208.492151 
L 159.791137 208.555951 
L 167.854444 211.032245 
L 170.35685 211.506478 
L 172.02512 211.645959 
L 173.693391 211.277369 
L 178.420157 210.131304 
L 182.312788 208.700339 
L 184.815194 208.198209 
L 187.317599 207.948694 
L 189.820005 207.944045 
L 190.65414 208.095923 
L 192.878501 208.844468 
L 195.102861 209.804817 
L 199.273538 211.940934 
L 205.390529 215.190569 
L 209.83925 217.484764 
L 213.453836 219.356385 
L 226.24391 225.023939 
L 226.521955 225.160578 
L 226.8 225.503338 
L 235.419397 246.673883 
L 237.921803 252.030448 
L 239.868119 255.746568 
L 241.814434 258.98458 
L 243.482704 261.321136 
L 244.31684 262.193147 
L 244.87293 262.060898 
L 245.707065 261.555669 
L 246.819245 260.595063 
L 248.209471 259.063877 
L 249.043606 257.948034 
L 250.433831 255.535023 
L 252.102102 252.186459 
L 254.048417 247.756148 
L 256.550823 241.416763 
L 259.887364 232.24825 
L 262.111724 225.950451 
L 262.667815 225.272421 
L 267.394581 220.557208 
L 269.062851 219.571546 
L 270.731122 218.8292 
L 272.399392 218.333012 
L 274.067663 218.083497 
L 275.735933 218.079364 
L 277.404204 218.318547 
L 279.628564 218.932261 
L 280.740744 219.352252 
L 282.965105 221.159815 
L 285.745556 223.692418 
L 286.301646 224.16071 
L 288.247962 226.838476 
L 290.194277 229.11304 
L 292.140593 231.015398 
L 294.086908 232.579645 
L 296.033224 233.834711 
L 297.979539 234.817789 
L 298.813674 235.160291 
L 299.369764 234.893729 
L 302.42826 232.7837 
L 303.818486 231.685679 
L 304.374576 230.872301 
L 306.320891 227.941663 
L 308.267207 225.417325 
L 310.213522 223.248147 
L 312.159838 221.394607 
L 314.106153 219.818995 
L 316.330514 218.310798 
L 316.886604 217.977336 
L 317.164649 217.651107 
L 317.998785 215.830113 
L 319.9451 210.926859 
L 326.062092 194.816613 
L 327.730362 191.065622 
L 329.120587 188.444165 
L 330.232768 186.791581 
L 331.066903 185.864552 
L 331.901038 185.248514 
L 332.735173 184.962837 
L 333.291264 184.971878 
L 333.847354 185.151653 
L 334.681489 185.716548 
L 336.90585 187.183417 
L 339.13021 188.377008 
L 340.798481 189.252377 
L 341.910661 190.018228 
L 343.300886 191.504211 
L 344.969157 193.667965 
L 346.637427 196.255844 
L 348.305698 199.284635 
L 349.973968 202.746591 
L 351.642239 206.671157 
L 352.754419 209.792419 
L 354.422689 215.135035 
L 354.978779 216.710389 
L 359.705546 220.475327 
L 360.539681 221.149483 
L 363.042087 221.473129 
L 364.988402 221.938064 
L 366.656673 222.55901 
L 368.324943 223.448585 
L 369.437123 224.105176 
L 372.217574 224.132039 
L 374.71998 223.917911 
L 376.94434 223.496628 
L 378.890656 222.920109 
L 381.115016 222.008837 
L 383.339377 220.923215 
L 386.397873 221.285347 
L 387.232008 221.947104 
L 388.900279 223.204753 
L 390.290504 224.012706 
L 391.680729 224.545573 
L 392.79291 224.736454 
L 393.90509 224.687636 
L 395.01727 224.370706 
L 396.12945 223.756734 
L 398.909901 221.887438 
L 401.412307 219.797298 
L 403.636668 217.986893 
L 408.919524 211.065823 
L 409.753659 209.340141 
L 412.53411 202.912676 
L 416.704786 192.628836 
L 419.207192 186.677672 
L 419.763282 185.766916 
L 420.597417 185.052466 
L 421.431552 184.643582 
L 421.987642 184.535614 
L 422.265688 184.56661 
L 422.821778 184.994866 
L 423.655913 185.895548 
L 424.768093 187.474776 
L 425.880273 189.506283 
L 426.436364 190.695741 
L 426.436364 190.695741 
" clip-path="url(#pa0d94a6e85)" style="fill: none; stroke: #ff00ff; stroke-width: 3; stroke-linecap: square"/>
   </g>
   <g id="patch_3">
    <path d="M 7.2 331.2 
L 7.2 7.2 
" style="fill: none; stroke: #000000; stroke-width: 0.8; stroke-linejoin: miter; stroke-linecap: square"/>
   </g>
   <g id="patch_4">
    <path d="M 446.4 331.2 
L 446.4 7.2 
" style="fill: none; stroke: #000000; stroke-width: 0.8; stroke-linejoin: miter; stroke-linecap: square"/>
   </g>
   <g id="patch_5">
    <path d="M 7.2 331.2 
L 446.4 331.2 
" style="fill: none; stroke: #000000; stroke-width: 0.8; stroke-linejoin: miter; stroke-linecap: square"/>
   </g>
   <g id="patch_6">
    <path d="M 7.2 7.2 
L 446.4 7.2 
" style="fill: none; stroke: #000000; stroke-width: 0.8; stroke-linejoin: miter; stroke-linecap: square"/>
   </g>
  </g>
 </g>
 <defs>
  <clipPath id="pa0d94a6e85">
   <rect x="7.2" y="7.2" width="439.2" height="324"/>
  </clipPath>
 </defs>
</svg>
