<?xml version="1.0" encoding="utf-8" standalone="no"?>
<!DOCTYPE svg PUBLIC "-//W3C//DTD SVG 1.1//EN"
  "http://www.w3.org/Graphics/SVG/1.1/DTD/svg11.dtd">
<svg xmlns:xlink="http://www.w3.org/1999/xlink" width="453.6pt" height="338.4pt" viewBox="0 0 453.6 338.4" xmlns="http://www.w3.org/2000/svg" version="1.1">
 <metadata>
  <rdf:RDF xmlns:dc="http://purl.org/dc/elements/1.1/" xmlns:cc="http://creativecommons.org/ns#" xmlns:rdf="http://www.w3.org/1999/02/22-rdf-syntax-ns#">
   <cc:Work>
    <dc:type rdf:resource="http://purl.org/dc/dcmitype/StillImage"/>
    <dc:date>2025-05-15T17:47:18.906598</dc:date>
    <dc:format>image/svg+xml</dc:format>
    <dc:creator>
     <cc:Agent>
      <dc:title>Matplotlib v3.10.1, https://matplotlib.org/</dc:title>
     </cc:Agent>
    </dc:creator>
   </cc:Work>
  </rdf:RDF>
 </metadata>
 <defs>
  <style type="text/css">*{stroke-linejoin: round; stroke-linecap: butt}</style>
 </defs>
 <g id="figure_1">
  <g id="patch_1">
   <path d="M 0 338.4 
L 453.6 338.4 
L 453.6 0 
L 0 0 
z
" style="fill: #ffffff"/>
  </g>
  <g id="axes_1">
   <g id="patch_2">
    <path d="M 7.2 331.2 
L 446.4 331.2 
L 446.4 7.2 
L 7.2 7.2 
z
" style="fill: #ffffff"/>
   </g>
   <g id="matplotlib.axis_1"/>
   <g id="matplotlib.axis_2"/>
   <g id="line2d_1">
    <path d="M 27.163636 63.093797 
L 28.275817 84.538447 
L 29.109952 95.907909 
L 29.666042 100.402488 
L 29.944087 101.690114 
L 30.222132 102.369349 
L 30.500177 102.487607 
L 30.778222 102.110366 
L 31.334312 100.209782 
L 32.724538 93.821228 
L 33.002583 93.201583 
L 33.280628 93.06214 
L 33.558673 93.497889 
L 33.836718 94.589927 
L 34.114763 96.404931 
L 34.670853 102.384767 
L 35.226944 111.623296 
L 36.061079 131.308848 
L 37.173259 166.033796 
L 39.95371 259.658535 
L 40.787845 280.755138 
L 41.62198 296.646331 
L 42.17807 304.348162 
L 42.734161 309.892288 
L 43.290251 313.484191 
L 43.846341 315.349693 
L 44.124386 315.702126 
L 44.402431 315.699022 
L 44.680476 315.359545 
L 44.958521 314.698992 
L 45.514611 312.453505 
L 46.070701 308.995159 
L 46.626792 304.288992 
L 47.460927 294.683074 
L 48.295062 281.63713 
L 49.129197 264.763588 
L 50.241378 236.15836 
L 51.631603 192.452866 
L 53.855964 121.484233 
L 54.690099 101.616588 
L 55.246189 91.858692 
L 55.802279 85.123892 
L 56.358369 81.328531 
L 56.636414 80.437569 
L 56.914459 80.137418 
L 57.192504 80.35287 
L 57.47055 80.998666 
L 58.02664 83.206529 
L 59.416865 89.612143 
L 59.69491 90.364904 
L 59.972955 90.793125 
L 60.251 90.859362 
L 60.529045 90.54107 
L 60.80709 89.831079 
L 61.363181 87.280455 
L 61.919271 83.430751 
L 63.309496 71.074054 
L 64.143631 64.577813 
L 64.699721 61.706814 
L 64.977767 60.845887 
L 65.255812 60.404491 
L 65.533857 60.394559 
L 65.811902 60.816372 
L 66.089947 61.657517 
L 66.646037 64.491152 
L 67.480172 70.958559 
L 69.426488 87.673555 
L 69.982578 90.610071 
L 70.538668 92.084636 
L 70.816713 92.231728 
L 71.094758 91.984198 
L 71.372803 91.354021 
L 71.928893 89.043558 
L 72.484984 85.579425 
L 73.875209 74.565339 
L 74.709344 68.599559 
L 75.265434 65.690635 
L 75.821524 63.897497 
L 76.09957 63.443726 
L 76.377615 63.278894 
L 76.65566 63.385979 
L 76.933705 63.739913 
L 77.489795 65.047683 
L 79.43611 70.979623 
L 79.714155 71.347814 
L 79.992201 71.474482 
L 80.270246 71.334318 
L 80.548291 70.909742 
L 81.104381 69.177795 
L 81.660471 66.303633 
L 82.494606 60.204537 
L 85.275057 37.113881 
L 85.831147 34.400426 
L 86.387237 32.770079 
L 86.665282 32.359679 
L 86.943327 32.203656 
L 87.221372 32.281787 
L 87.499418 32.568403 
L 88.055508 33.637494 
L 90.279868 39.017268 
L 90.557913 39.25879 
L 90.835958 39.331676 
L 91.114004 39.228955 
L 91.392049 38.950029 
L 91.948139 37.888347 
L 92.504229 36.245265 
L 93.616409 31.903905 
L 94.72859 27.5573 
L 95.562725 25.23226 
L 96.118815 24.375417 
L 96.39686 24.177465 
L 96.674905 24.133694 
L 96.95295 24.239338 
L 97.50904 24.860264 
L 98.06513 25.929916 
L 99.177311 28.789622 
L 100.289491 31.500794 
L 100.845581 32.47245 
L 101.401671 33.099985 
L 101.957761 33.37831 
L 102.513852 33.343269 
L 103.069942 33.059337 
L 103.904077 32.339215 
L 105.572347 30.75372 
L 106.406483 30.230868 
L 107.240618 29.971444 
L 108.074753 29.93336 
L 110.577159 30.22438 
L 111.689339 30.457052 
L 112.523474 30.910583 
L 113.079564 31.433034 
L 113.9137 32.60048 
L 114.747835 34.183092 
L 118.362421 42.155459 
L 119.196556 44.288395 
L 119.752646 46.169035 
L 120.308736 48.682576 
L 120.864827 52.102858 
L 121.420917 56.72891 
L 121.977007 62.862807 
L 122.811142 75.471439 
L 123.645277 92.693749 
L 124.479413 114.590608 
L 125.591593 149.838968 
L 128.650089 252.374493 
L 129.484224 273.446868 
L 130.318359 289.366613 
L 130.874449 296.942417 
L 131.430539 302.07294 
L 131.98663 304.7909 
L 132.264675 305.259488 
L 132.54272 305.142331 
L 132.820765 304.444554 
L 133.09881 303.170644 
L 133.6549 298.911 
L 134.21099 292.396799 
L 135.045125 278.505887 
L 135.879261 259.958646 
L 136.991441 229.059455 
L 138.659711 174.630694 
L 140.606027 112.661831 
L 141.718207 84.846688 
L 142.552342 69.604695 
L 143.108433 62.348926 
L 143.664523 57.330734 
L 144.220613 54.303432 
L 144.776703 52.882049 
L 145.054748 52.623707 
L 145.332793 52.578534 
L 145.888883 52.853216 
L 146.444973 53.175032 
L 146.723018 53.205668 
L 147.001064 53.084366 
L 147.279109 52.773803 
L 147.835199 51.486016 
L 148.391289 49.255566 
L 149.225424 44.376538 
L 151.17174 31.589017 
L 151.72783 29.445349 
L 152.005875 28.853016 
L 152.28392 28.618101 
L 152.561965 28.756783 
L 152.84001 29.276431 
L 153.3961 31.432514 
L 153.95219 34.934451 
L 154.786326 42.014655 
L 156.454596 57.025978 
L 157.010686 60.547858 
L 157.566776 62.756042 
L 157.844821 63.321503 
L 158.122867 63.524541 
L 158.400912 63.377089 
L 158.678957 62.900371 
L 159.235047 61.092536 
L 160.069182 56.943001 
L 161.181362 51.124633 
L 161.737453 49.141153 
L 162.015498 48.555588 
L 162.293543 48.290277 
L 162.571588 48.372253 
L 162.849633 48.819697 
L 163.127678 49.640857 
L 163.683768 52.388632 
L 164.239858 56.487748 
L 165.073993 64.548819 
L 167.020309 84.860944 
L 167.854444 90.904976 
L 168.410534 93.492804 
L 168.966624 94.99448 
L 169.522715 95.660299 
L 170.634895 96.160445 
L 170.91294 96.487667 
L 171.190985 97.032465 
L 171.747075 99.035088 
L 172.303165 102.641147 
L 172.859256 108.215229 
L 173.415346 115.981515 
L 174.249481 131.83202 
L 175.083616 152.239176 
L 176.473841 192.895263 
L 178.420157 250.140279 
L 179.532337 276.350725 
L 180.366473 291.40648 
L 181.200608 302.392233 
L 181.756698 307.571833 
L 182.312788 311.166839 
L 182.868878 313.293327 
L 183.146923 313.837965 
L 183.424968 314.050353 
L 183.703013 313.938322 
L 183.981058 313.507398 
L 184.537149 311.700103 
L 185.093239 308.630632 
L 185.649329 304.275397 
L 186.483464 295.24393 
L 187.317599 283.095596 
L 188.151735 267.777354 
L 189.263915 242.675305 
L 190.65414 205.46529 
L 192.878501 144.437969 
L 193.712636 126.063551 
L 194.546771 112.335409 
L 195.102861 106.108364 
L 195.658952 102.213487 
L 195.936997 101.080761 
L 196.215042 100.437369 
L 196.493087 100.231207 
L 196.771132 100.401887 
L 197.049177 100.88277 
L 197.605267 102.489369 
L 198.717447 106.26743 
L 199.273538 107.423582 
L 199.551583 107.65261 
L 199.829628 107.611282 
L 200.107673 107.28506 
L 200.385718 106.669981 
L 200.941808 104.611773 
L 201.775943 99.842072 
L 203.722259 87.236884 
L 204.278349 85.092495 
L 204.556394 84.469286 
L 204.834439 84.175743 
L 205.112484 84.222678 
L 205.390529 84.611973 
L 205.668574 85.334739 
L 206.224664 87.698624 
L 207.0588 92.994861 
L 208.72707 104.548378 
L 209.28316 106.963364 
L 209.561205 107.683126 
L 209.83925 108.037941 
L 210.117296 108.009668 
L 210.395341 107.591539 
L 210.673386 106.786557 
L 211.229476 104.082874 
L 211.785566 100.127967 
L 212.897746 90.015215 
L 214.009927 80.184913 
L 214.566017 76.545255 
L 215.122107 74.214568 
L 215.400152 73.598968 
L 215.678197 73.360809 
L 215.956242 73.494085 
L 216.234287 73.982016 
L 216.790377 75.903624 
L 217.624513 80.468485 
L 219.014738 88.509613 
L 219.570828 90.39538 
L 219.848873 90.842302 
L 220.126918 90.912144 
L 220.404963 90.582999 
L 220.683008 89.843694 
L 221.239099 87.14822 
L 221.795189 82.963604 
L 222.629324 74.591409 
L 224.575639 53.832802 
L 225.13173 49.892031 
L 225.68782 47.540079 
L 225.965865 47.013463 
L 226.24391 46.925881 
L 226.521955 47.266639 
L 226.8 48.014234 
L 227.35609 50.587325 
L 228.190225 56.363723 
L 229.580451 66.630495 
L 230.136541 69.365695 
L 230.414586 70.219334 
L 230.692631 70.683757 
L 230.970676 70.738942 
L 231.248721 70.376998 
L 231.526766 69.602612 
L 232.082856 66.897527 
L 232.638947 62.899209 
L 235.141352 42.296384 
L 235.697442 40.338093 
L 235.975487 40.016637 
L 236.253533 40.158323 
L 236.531578 40.765754 
L 237.087668 43.324107 
L 237.643758 47.458704 
L 238.477893 55.671954 
L 239.868119 69.787749 
L 240.424209 73.795318 
L 240.980299 76.140582 
L 241.258344 76.603323 
L 241.536389 76.573208 
L 241.814434 76.053039 
L 242.092479 75.059957 
L 242.648569 71.790532 
L 243.482704 64.492634 
L 245.150975 48.766234 
L 245.707065 45.500533 
L 245.98511 44.521868 
L 246.263155 44.028691 
L 246.5412 44.041987 
L 246.819245 44.567682 
L 247.09729 45.597927 
L 247.653381 49.066465 
L 248.487516 57.050366 
L 250.433831 77.777737 
L 250.989921 81.182961 
L 251.267967 82.129108 
L 251.546012 82.52425 
L 251.824057 82.352489 
L 252.102102 81.614947 
L 252.658192 78.529577 
L 253.214282 73.603093 
L 254.326462 60.654623 
L 255.160598 51.34401 
L 255.716688 46.877344 
L 255.994733 45.440743 
L 256.272778 44.63416 
L 256.550823 44.516021 
L 256.828868 45.13034 
L 257.106913 46.505469 
L 257.663003 51.575841 
L 258.219093 59.648286 
L 259.053229 76.668359 
L 260.165409 105.656955 
L 262.667815 173.493123 
L 264.05804 203.779878 
L 266.282401 245.470496 
L 269.062851 295.382572 
L 269.896987 306.69721 
L 270.453077 312.156497 
L 271.009167 315.522896 
L 271.287212 316.318227 
L 271.565257 316.472727 
L 271.843302 315.954301 
L 272.121347 314.734974 
L 272.677437 310.108741 
L 273.233527 302.486904 
L 273.789618 291.886962 
L 274.623753 270.829145 
L 275.735933 235.461946 
L 277.960294 162.287012 
L 278.794429 142.034196 
L 279.628564 127.716004 
L 280.462699 118.450844 
L 281.57488 109.961071 
L 282.409015 102.820957 
L 282.965105 96.406492 
L 283.79924 83.602552 
L 284.911421 61.857711 
L 286.301646 35.322745 
L 286.857736 27.832862 
L 287.413826 23.245055 
L 287.691871 22.168195 
L 287.969916 21.927273 
L 288.247962 22.511636 
L 288.526007 23.887566 
L 289.082097 28.767676 
L 289.916232 39.992208 
L 291.306457 60.765673 
L 291.862547 66.786037 
L 292.418638 70.285852 
L 292.696683 70.947706 
L 292.974728 70.851994 
L 293.252773 70.003441 
L 293.530818 68.4294 
L 294.086908 63.324827 
L 294.921043 52.085958 
L 296.311269 31.775956 
L 296.867359 26.06992 
L 297.423449 23.006095 
L 297.701494 22.630215 
L 297.979539 23.073494 
L 298.257584 24.34358 
L 298.813674 29.287204 
L 299.369764 37.091615 
L 300.2039 52.606247 
L 301.87217 84.990015 
L 302.42826 92.457632 
L 302.98435 96.999707 
L 303.262396 98.063351 
L 303.540441 98.308758 
L 303.818486 97.75459 
L 304.096531 96.444137 
L 304.652621 91.829978 
L 305.486756 81.438981 
L 306.876982 63.518734 
L 307.433072 59.242251 
L 307.711117 58.165871 
L 307.989162 57.898599 
L 308.267207 58.492814 
L 308.545252 59.980835 
L 309.101342 65.663363 
L 309.657432 74.801775 
L 310.491567 93.992268 
L 311.881793 134.595413 
L 313.550063 182.915107 
L 314.662244 208.882248 
L 315.774424 229.528964 
L 317.442694 255.151342 
L 320.223145 294.71405 
L 321.05728 304.281584 
L 321.61337 309.216498 
L 322.169461 312.632074 
L 322.447506 313.673893 
L 322.725551 314.222194 
L 323.003596 314.241036 
L 323.281641 313.696319 
L 323.559686 312.556305 
L 324.115776 308.380099 
L 324.671866 301.540937 
L 325.227956 291.973403 
L 326.062092 272.738519 
L 327.174272 239.933057 
L 329.120587 179.321862 
L 329.954723 159.783403 
L 330.510813 150.520926 
L 331.066903 144.437768 
L 331.622993 141.268701 
L 331.901038 140.599838 
L 332.179083 140.410737 
L 332.457128 140.585862 
L 333.013219 141.528004 
L 333.569309 142.407553 
L 333.847354 142.522408 
L 334.125399 142.281366 
L 334.403444 141.60165 
L 334.681489 140.419667 
L 335.237579 136.410657 
L 335.793669 130.220294 
L 336.627805 117.694279 
L 338.296075 91.172769 
L 338.852165 85.44667 
L 339.13021 83.629183 
L 339.408255 82.59221 
L 339.6863 82.371432 
L 339.964345 82.979223 
L 340.24239 84.403529 
L 340.798481 89.535614 
L 341.354571 97.21664 
L 343.856976 137.000387 
L 344.413067 140.78914 
L 344.691112 141.429088 
L 344.969157 141.193333 
L 345.247202 140.084275 
L 345.525247 138.129268 
L 346.081337 131.914156 
L 346.915472 118.25906 
L 348.583743 88.622706 
L 349.139833 82.136437 
L 349.695923 78.741945 
L 349.973968 78.328782 
L 350.252013 78.78912 
L 350.530058 80.104099 
L 351.086148 85.098462 
L 351.642239 92.687341 
L 353.866599 128.007345 
L 354.422689 132.394638 
L 354.700734 133.304302 
L 354.978779 133.28548 
L 355.256825 132.316947 
L 355.53487 130.404269 
L 356.09096 123.903944 
L 356.64705 114.355132 
L 357.75923 90.066154 
L 358.87141 67.110697 
L 359.427501 59.092996 
L 359.983591 54.500062 
L 360.261636 53.620153 
L 360.539681 53.701488 
L 360.817726 54.722483 
L 361.095771 56.63456 
L 361.651861 62.81399 
L 362.485996 76.230767 
L 363.876222 99.70351 
L 364.432312 105.941008 
L 364.710357 107.894013 
L 364.988402 108.966187 
L 365.266447 109.112038 
L 365.544492 108.313063 
L 365.822537 106.579875 
L 366.378628 100.488388 
L 366.934718 91.454098 
L 369.437123 44.31831 
L 369.993213 39.435878 
L 370.271259 38.389654 
L 370.549304 38.316168 
L 370.827349 39.212777 
L 371.105394 41.049646 
L 371.661484 47.289706 
L 372.495619 61.515871 
L 374.16389 93.105631 
L 374.71998 100.111467 
L 375.27607 103.810755 
L 375.554115 104.277862 
L 375.83216 103.800984 
L 376.110205 102.399224 
L 376.666295 97.031584 
L 377.222385 88.848089 
L 379.446746 50.458614 
L 380.002836 45.403339 
L 380.280881 44.177585 
L 380.558926 43.884402 
L 380.836971 44.538728 
L 381.115016 46.127226 
L 381.671107 51.918562 
L 382.227197 60.632117 
L 384.729602 106.176523 
L 385.285693 110.644311 
L 385.563738 111.456861 
L 385.841783 111.273927 
L 386.119828 110.094307 
L 386.397873 107.946714 
L 386.953963 100.999066 
L 387.788098 85.539618 
L 389.456369 51.563787 
L 390.012459 44.06233 
L 390.568549 40.143465 
L 390.846594 39.692418 
L 391.124639 40.280386 
L 391.402684 41.897718 
L 391.958774 48.044269 
L 392.514865 57.528726 
L 393.627045 82.478197 
L 394.739225 107.080741 
L 395.295315 116.251391 
L 395.851405 122.172599 
L 396.12945 123.769907 
L 396.407496 124.434925 
L 396.685541 124.185954 
L 396.963586 123.069328 
L 397.519676 118.551962 
L 398.353811 107.863978 
L 399.465991 92.911323 
L 400.022082 88.162647 
L 400.300127 86.99432 
L 400.578172 86.784555 
L 400.856217 87.620613 
L 401.134262 89.564007 
L 401.690352 96.885253 
L 402.246442 108.70332 
L 403.080577 133.785385 
L 404.192758 176.253873 
L 406.139073 251.030801 
L 406.973208 275.552251 
L 407.807344 293.44951 
L 408.363434 301.666244 
L 408.919524 307.122167 
L 409.475614 310.112746 
L 409.753659 310.790699 
L 410.031704 310.983385 
L 410.309749 310.735094 
L 410.587794 310.088898 
L 411.143885 307.762236 
L 411.699975 304.289353 
L 412.53411 297.385956 
L 413.368245 288.73934 
L 414.20238 278.194262 
L 415.036516 265.07311 
L 415.870651 248.345459 
L 416.704786 227.00389 
L 417.816966 190.73866 
L 419.485237 125.273627 
L 420.597417 84.229446 
L 421.431552 60.923458 
L 421.987642 50.542712 
L 422.543733 44.764552 
L 422.821778 43.599789 
L 423.099823 43.528746 
L 423.377868 44.476575 
L 423.655913 46.343279 
L 424.212003 52.327961 
L 425.324183 68.953453 
L 426.158319 80.242821 
L 426.436364 82.971534 
L 426.436364 82.971534 
" clip-path="url(#pb0a16e8fed)" style="fill: none; stroke-dasharray: 11.1,4.8; stroke-dashoffset: 0; stroke: #000000; stroke-width: 3"/>
   </g>
   <g id="line2d_2">
    <path d="M 27.163636 145.462207 
L 30.778222 149.485514 
L 32.446493 150.990755 
L 33.836718 151.924888 
L 34.948898 152.520826 
L 35.504989 153.485114 
L 37.451304 157.083604 
L 38.007394 157.611422 
L 39.119575 158.219933 
L 40.231755 158.583959 
L 41.343935 158.676948 
L 42.17807 158.550881 
L 43.012206 158.2424 
L 43.846341 157.741774 
L 44.680476 157.035348 
L 45.236566 156.444096 
L 45.792656 155.318619 
L 47.460927 149.442023 
L 49.129197 142.629132 
L 50.797468 134.793285 
L 52.465738 125.854666 
L 53.855964 118.350567 
L 57.192504 107.333957 
L 66.089947 76.742566 
L 67.480172 72.908841 
L 68.870398 69.658478 
L 70.260623 66.946465 
L 71.650848 64.589948 
L 72.484984 63.458664 
L 72.763029 63.223509 
L 73.041074 63.157992 
L 73.597164 63.332036 
L 74.153254 63.715685 
L 74.709344 64.316628 
L 75.543479 65.638815 
L 76.377615 67.466954 
L 77.21175 69.817263 
L 78.601975 74.423012 
L 79.158065 73.903604 
L 80.270246 72.837637 
L 81.660471 71.853966 
L 83.050696 71.181379 
L 84.718967 70.66942 
L 86.665282 70.336471 
L 87.221372 70.456852 
L 92.504229 72.461958 
L 93.616409 73.127416 
L 94.450544 73.999677 
L 95.562725 75.590618 
L 96.674905 77.578304 
L 98.06513 80.491032 
L 100.011446 85.130099 
L 103.626032 94.500863 
L 106.128438 100.765793 
L 107.518663 103.771069 
L 108.908888 106.255055 
L 109.464978 107.001168 
L 110.577159 107.027118 
L 111.689339 106.793846 
L 112.801519 106.320251 
L 113.9137 105.770248 
L 114.747835 105.671172 
L 115.58197 105.861795 
L 116.416105 106.354411 
L 117.250241 107.153747 
L 118.084376 108.266689 
L 118.918511 109.708095 
L 120.030691 112.160765 
L 121.142872 115.243171 
L 122.255052 118.987512 
L 123.645277 124.526913 
L 125.035503 131.180938 
L 125.869638 135.256266 
L 126.147683 135.973746 
L 126.703773 136.227843 
L 128.650089 136.78914 
L 133.932945 138.469826 
L 135.601215 138.674786 
L 137.547531 138.758404 
L 140.327982 139.941588 
L 140.884072 139.24253 
L 143.386478 135.50704 
L 144.220613 135.086347 
L 145.054748 134.868212 
L 145.888883 134.841261 
L 146.723018 134.994039 
L 147.835199 135.457462 
L 148.947379 136.190319 
L 150.337604 137.443145 
L 151.72783 139.01178 
L 153.3961 141.222126 
L 154.786326 143.344049 
L 156.454596 146.356493 
L 157.844821 149.297334 
L 159.513092 153.355923 
L 160.625272 156.556387 
L 162.849633 163.621413 
L 163.405723 164.600799 
L 165.073993 167.026397 
L 166.186174 167.223467 
L 167.298354 167.167202 
L 168.410534 166.839698 
L 169.522715 166.237874 
L 170.634895 165.373663 
L 172.02512 163.968299 
L 173.693391 161.922706 
L 175.361661 159.543642 
L 177.586022 155.946834 
L 178.142112 154.385607 
L 180.922563 145.172148 
L 181.756698 142.414842 
L 182.312788 141.483712 
L 183.424968 140.1912 
L 186.205419 137.147319 
L 187.87369 134.958518 
L 189.263915 132.763189 
L 190.65414 130.110926 
L 192.044366 126.887915 
L 193.434591 123.116943 
L 194.824816 118.552363 
L 196.771132 111.031323 
L 197.327222 108.328681 
L 199.273538 97.459565 
L 200.941808 89.219043 
L 202.610079 82.010569 
L 204.000304 76.816613 
L 205.390529 72.389993 
L 206.780755 68.744448 
L 208.449025 65.212356 
L 209.28316 63.901822 
L 210.117296 62.933049 
L 212.619701 60.869715 
L 214.566017 59.543643 
L 215.400152 59.050026 
L 215.678197 59.031604 
L 216.234287 59.387341 
L 220.404963 62.736539 
L 224.019549 65.54054 
L 225.409775 65.816302 
L 226.8 65.886504 
L 228.46827 65.492443 
L 230.692631 64.714013 
L 234.029172 63.253304 
L 235.697442 62.616559 
L 236.809623 62.469667 
L 237.921803 62.414482 
L 239.033983 62.140682 
L 240.424209 61.542582 
L 241.814434 60.682296 
L 243.482704 59.336521 
L 245.150975 57.676659 
L 247.653381 54.823961 
L 250.989921 51.015385 
L 251.546012 50.795048 
L 252.102102 50.736499 
L 252.380147 50.765894 
L 254.882553 54.776786 
L 255.994733 57.267941 
L 257.384958 61.080682 
L 259.053229 66.481961 
L 260.999544 73.605976 
L 266.838491 96.425194 
L 270.453077 110.902252 
L 271.287212 113.125253 
L 274.067663 117.504577 
L 276.570068 121.038952 
L 278.794429 123.815681 
L 281.01879 126.237114 
L 282.965105 127.999936 
L 286.579691 130.880987 
L 287.135781 130.851232 
L 288.526007 130.376157 
L 289.916232 129.680142 
L 291.584502 128.586142 
L 293.530818 127.021912 
L 295.755179 124.946684 
L 297.145404 123.721411 
L 299.369764 122.041405 
L 300.2039 121.740493 
L 301.038035 121.664484 
L 301.87217 121.81518 
L 302.706305 122.188858 
L 303.262396 123.394388 
L 304.930666 127.740273 
L 306.876982 133.519154 
L 309.379387 141.765162 
L 309.935477 143.307646 
L 311.603748 146.16571 
L 312.993973 148.180988 
L 314.106153 149.461606 
L 316.052469 151.176573 
L 317.720739 152.365804 
L 318.83292 152.995981 
L 319.110965 152.992818 
L 319.667055 152.438289 
L 320.50119 151.535513 
L 323.837731 149.477545 
L 327.730362 146.821638 
L 328.286452 146.317728 
L 330.510813 143.117864 
L 331.344948 142.351167 
L 332.457128 141.751025 
L 333.569309 141.385197 
L 334.125399 141.261292 
L 334.681489 140.530637 
L 335.515624 138.947745 
L 336.349759 136.841521 
L 336.90585 135.386579 
L 337.739985 133.161335 
L 338.57412 130.239076 
L 339.408255 126.554165 
L 340.520436 120.338573 
L 341.632616 112.503245 
L 342.744796 102.906898 
L 343.856976 91.410167 
L 344.413067 84.905076 
L 344.691112 84.072182 
L 347.193517 84.375136 
L 348.027653 84.74597 
L 348.861788 85.410267 
L 349.695923 86.418126 
L 350.530058 87.822089 
L 351.364193 89.694199 
L 352.198329 92.103858 
L 353.032464 95.118666 
L 353.866599 98.220775 
L 354.700734 99.285461 
L 355.53487 100.462878 
L 356.64705 101.252963 
L 357.75923 101.735447 
L 358.593365 101.892871 
L 359.427501 101.87473 
L 360.261636 101.677459 
L 361.095771 101.299898 
L 362.207951 100.511615 
L 363.320132 99.390824 
L 364.432312 97.927512 
L 365.544492 96.108183 
L 366.378628 94.551122 
L 366.934718 94.60947 
L 370.549304 95.537276 
L 371.661484 95.483893 
L 371.939529 95.508642 
L 372.217574 95.697743 
L 373.051709 96.761187 
L 374.16389 98.605065 
L 375.27607 100.993659 
L 376.38825 103.98584 
L 377.50043 107.63555 
L 378.612611 111.990566 
L 379.446746 115.280455 
L 381.949152 122.781151 
L 383.895467 129.298456 
L 385.563738 135.740713 
L 386.675918 140.158041 
L 386.953963 140.204616 
L 393.349 137.580746 
L 396.407496 136.354551 
L 398.353811 138.54147 
L 400.300127 140.377939 
L 401.412307 141.152765 
L 403.080577 142.072962 
L 405.861028 143.208771 
L 410.865839 145.213316 
L 413.0902 146.388411 
L 414.20238 147.14846 
L 416.148696 148.721781 
L 416.704786 149.048163 
L 418.929147 149.410627 
L 423.377868 147.917279 
L 424.768093 147.748682 
L 425.324183 147.84972 
L 426.436364 150.124061 
L 426.436364 150.124061 
" clip-path="url(#pb0a16e8fed)" style="fill: none; stroke: #ff00ff; stroke-width: 3; stroke-linecap: square"/>
   </g>
   <g id="patch_3">
    <path d="M 7.2 331.2 
L 7.2 7.2 
" style="fill: none; stroke: #000000; stroke-width: 0.8; stroke-linejoin: miter; stroke-linecap: square"/>
   </g>
   <g id="patch_4">
    <path d="M 446.4 331.2 
L 446.4 7.2 
" style="fill: none; stroke: #000000; stroke-width: 0.8; stroke-linejoin: miter; stroke-linecap: square"/>
   </g>
   <g id="patch_5">
    <path d="M 7.2 331.2 
L 446.4 331.2 
" style="fill: none; stroke: #000000; stroke-width: 0.8; stroke-linejoin: miter; stroke-linecap: square"/>
   </g>
   <g id="patch_6">
    <path d="M 7.2 7.2 
L 446.4 7.2 
" style="fill: none; stroke: #000000; stroke-width: 0.8; stroke-linejoin: miter; stroke-linecap: square"/>
   </g>
  </g>
 </g>
 <defs>
  <clipPath id="pb0a16e8fed">
   <rect x="7.2" y="7.2" width="439.2" height="324"/>
  </clipPath>
 </defs>
</svg>
