<?xml version="1.0" encoding="utf-8" standalone="no"?>
<!DOCTYPE svg PUBLIC "-//W3C//DTD SVG 1.1//EN"
  "http://www.w3.org/Graphics/SVG/1.1/DTD/svg11.dtd">
<svg xmlns:xlink="http://www.w3.org/1999/xlink" width="453.6pt" height="338.4pt" viewBox="0 0 453.6 338.4" xmlns="http://www.w3.org/2000/svg" version="1.1">
 <metadata>
  <rdf:RDF xmlns:dc="http://purl.org/dc/elements/1.1/" xmlns:cc="http://creativecommons.org/ns#" xmlns:rdf="http://www.w3.org/1999/02/22-rdf-syntax-ns#">
   <cc:Work>
    <dc:type rdf:resource="http://purl.org/dc/dcmitype/StillImage"/>
    <dc:date>2025-05-15T18:08:47.050528</dc:date>
    <dc:format>image/svg+xml</dc:format>
    <dc:creator>
     <cc:Agent>
      <dc:title>Matplotlib v3.10.1, https://matplotlib.org/</dc:title>
     </cc:Agent>
    </dc:creator>
   </cc:Work>
  </rdf:RDF>
 </metadata>
 <defs>
  <style type="text/css">*{stroke-linejoin: round; stroke-linecap: butt}</style>
 </defs>
 <g id="figure_1">
  <g id="patch_1">
   <path d="M 0 338.4 
L 453.6 338.4 
L 453.6 0 
L 0 0 
z
" style="fill: #ffffff"/>
  </g>
  <g id="axes_1">
   <g id="patch_2">
    <path d="M 7.2 331.2 
L 446.4 331.2 
L 446.4 7.2 
L 7.2 7.2 
z
" style="fill: #ffffff"/>
   </g>
   <g id="matplotlib.axis_1"/>
   <g id="matplotlib.axis_2"/>
   <g id="line2d_1">
    <path d="M 27.163636 301.135017 
L 31.056267 301.214563 
L 42.734161 300.989228 
L 47.182882 300.402044 
L 51.909648 300.388292 
L 53.299873 300.031739 
L 55.524234 299.187427 
L 57.192504 298.403353 
L 58.304685 297.647943 
L 59.13882 296.851651 
L 60.251 295.460837 
L 62.475361 292.505352 
L 63.309496 291.803738 
L 64.143631 291.413516 
L 66.367992 290.690488 
L 66.924082 290.229025 
L 67.758217 289.155076 
L 68.592352 287.636712 
L 69.704533 285.106414 
L 71.928893 279.299407 
L 73.597164 274.394752 
L 75.265434 268.656807 
L 76.65566 263.169681 
L 77.76784 257.911767 
L 78.601975 252.884991 
L 79.43611 246.360334 
L 80.270246 237.938761 
L 81.382426 223.789702 
L 83.884832 189.509716 
L 84.718967 181.889127 
L 85.275057 178.696733 
L 85.831147 177.052499 
L 86.109192 176.774323 
L 86.387237 176.822583 
L 86.665282 177.161715 
L 87.221372 178.545719 
L 88.055508 181.693144 
L 89.167688 185.991895 
L 89.723778 187.507285 
L 90.279868 188.312641 
L 90.557913 188.403067 
L 90.835958 188.267074 
L 91.114004 187.894189 
L 91.670094 186.407534 
L 92.226184 183.902911 
L 92.782274 180.377114 
L 93.616409 173.283903 
L 94.72859 161.17093 
L 96.95295 135.717182 
L 97.787085 128.902591 
L 98.343175 125.773633 
L 98.899266 123.84882 
L 99.177311 123.333334 
L 99.455356 123.106625 
L 99.733401 123.158947 
L 100.011446 123.479766 
L 100.567536 124.885229 
L 101.123626 127.248208 
L 101.679716 130.51421 
L 102.513852 137.026774 
L 103.347987 145.354378 
L 104.460167 158.760246 
L 107.240618 193.667516 
L 108.074753 201.403042 
L 108.908888 207.156244 
L 109.743024 211.022438 
L 110.299114 212.694928 
L 110.855204 213.773861 
L 111.411294 214.378258 
L 111.967384 214.627213 
L 112.523474 214.638028 
L 114.191745 214.45486 
L 114.747835 214.74456 
L 115.303925 215.410863 
L 115.860015 216.546768 
L 116.416105 218.207631 
L 117.250241 221.681363 
L 118.362421 227.762813 
L 120.586781 240.652153 
L 121.420917 244.395836 
L 122.255052 247.299405 
L 123.089187 249.496721 
L 124.201367 251.746209 
L 126.425728 255.975832 
L 127.537908 258.786009 
L 128.650089 262.431556 
L 129.762269 266.915495 
L 132.54272 278.645244 
L 133.376855 281.130246 
L 134.21099 282.82956 
L 134.76708 283.552008 
L 135.32317 284.011047 
L 136.157306 284.393184 
L 137.269486 284.851069 
L 137.825576 285.26408 
L 138.381666 285.886909 
L 139.215801 287.268108 
L 140.049937 289.133945 
L 142.830387 295.970198 
L 143.664523 297.305946 
L 144.498658 298.146365 
L 145.332793 298.583242 
L 146.444973 298.815985 
L 148.113244 299.130176 
L 149.503469 299.66762 
L 151.72783 300.583297 
L 153.118055 300.861106 
L 154.786326 300.927467 
L 160.347227 300.827594 
L 162.015498 300.448068 
L 165.352038 299.393042 
L 166.186174 298.884625 
L 167.020309 298.066991 
L 167.854444 296.855764 
L 168.966624 294.666229 
L 171.190985 289.974222 
L 172.02512 288.855315 
L 172.58121 288.420317 
L 173.137301 288.218629 
L 173.971436 288.233233 
L 175.083616 288.37026 
L 175.639706 288.24659 
L 176.195796 287.852083 
L 176.751887 287.094477 
L 177.307977 285.903483 
L 177.864067 284.237479 
L 178.698202 280.836793 
L 179.532337 276.465287 
L 180.922563 267.798058 
L 182.868878 255.733234 
L 183.981058 250.076621 
L 186.761509 237.018404 
L 187.595644 230.975567 
L 188.42978 222.567561 
L 189.263915 211.111512 
L 190.09805 196.163992 
L 190.932185 177.617023 
L 192.044366 147.877706 
L 195.658952 44.486269 
L 196.493087 29.937751 
L 197.049177 24.177231 
L 197.327222 22.601142 
L 197.605267 21.927273 
L 197.883312 22.167626 
L 198.161357 23.324477 
L 198.439402 25.389737 
L 198.995493 32.167618 
L 199.551583 42.257496 
L 200.385718 62.770691 
L 201.497898 97.496452 
L 204.556394 199.73174 
L 205.668574 227.506267 
L 206.50271 243.200108 
L 207.336845 254.694897 
L 208.17098 262.505165 
L 208.72707 265.956617 
L 209.28316 268.194758 
L 209.83925 269.360656 
L 210.117296 269.580799 
L 210.395341 269.579307 
L 210.673386 269.371934 
L 211.229476 268.408577 
L 211.785566 266.844859 
L 212.897746 262.67862 
L 214.009927 258.62781 
L 214.566017 257.217029 
L 215.122107 256.462789 
L 215.400152 256.36905 
L 215.678197 256.474569 
L 215.956242 256.780722 
L 216.512332 257.974527 
L 217.068422 259.860984 
L 217.902558 263.633149 
L 219.848873 273.114183 
L 220.683008 275.890271 
L 221.239099 276.981038 
L 221.517144 277.271766 
L 221.795189 277.385349 
L 222.073234 277.31819 
L 222.351279 277.068026 
L 222.907369 276.016003 
L 223.463459 274.237038 
L 224.019549 271.760219 
L 224.853684 266.856172 
L 225.965865 258.55727 
L 229.302406 231.435414 
L 230.136541 226.969998 
L 230.692631 225.168953 
L 230.970676 224.690152 
L 231.248721 224.518107 
L 231.526766 224.667565 
L 231.804811 225.148777 
L 232.360901 227.119585 
L 232.916992 230.395585 
L 233.751127 237.429935 
L 234.863307 249.363486 
L 236.531578 267.387285 
L 237.365713 274.480514 
L 238.199848 279.70222 
L 238.755938 282.117903 
L 239.312028 283.714757 
L 239.868119 284.529337 
L 240.146164 284.651523 
L 240.424209 284.585564 
L 240.702254 284.331056 
L 241.258344 283.247725 
L 241.814434 281.374981 
L 242.370524 278.684393 
L 243.204659 273.103341 
L 244.038795 265.806772 
L 245.42902 251.098578 
L 247.09729 233.769586 
L 247.931426 227.076026 
L 248.765561 222.174526 
L 249.599696 218.80389 
L 251.824057 211.266861 
L 252.658192 206.548401 
L 253.492327 200.094339 
L 254.604507 189.116998 
L 258.219093 150.289912 
L 259.053229 143.720872 
L 259.887364 138.802693 
L 260.443454 136.591394 
L 260.999544 135.338279 
L 261.277589 135.096643 
L 261.555634 135.123898 
L 261.833679 135.427311 
L 262.111724 136.013055 
L 262.667815 138.045964 
L 263.223905 141.229996 
L 264.05804 148.081606 
L 264.892175 157.147848 
L 266.004356 171.824315 
L 270.453077 234.41723 
L 271.843302 249.826188 
L 273.233527 262.629005 
L 274.345708 270.975969 
L 275.457888 277.602517 
L 276.292023 281.452497 
L 277.126159 284.413351 
L 277.960294 286.628859 
L 278.794429 288.307756 
L 280.462699 290.97994 
L 282.13097 293.76941 
L 284.35533 297.538507 
L 285.467511 298.934662 
L 286.301646 299.668763 
L 287.135781 300.162345 
L 288.247962 300.550784 
L 289.916232 300.851089 
L 293.252773 301.19621 
L 296.033224 301.248868 
L 301.31608 301.093179 
L 303.262396 300.83492 
L 304.652621 300.412936 
L 305.764801 299.833222 
L 306.876982 298.969376 
L 307.989162 297.786674 
L 309.101342 296.295021 
L 310.769613 293.624779 
L 313.550063 289.11013 
L 316.052469 285.310684 
L 316.886604 283.443404 
L 317.720739 280.814024 
L 318.554875 277.140317 
L 319.38901 272.223554 
L 320.223145 266.006021 
L 321.335325 255.908288 
L 323.003596 238.313693 
L 325.506002 209.594687 
L 326.618182 194.564966 
L 327.730362 176.643297 
L 329.398633 145.293986 
L 330.788858 120.573294 
L 331.622993 109.494507 
L 332.179083 104.468025 
L 332.735173 101.600675 
L 333.013219 101.01252 
L 333.291264 100.992823 
L 333.569309 101.536743 
L 333.847354 102.633749 
L 334.403444 106.417562 
L 334.959534 112.160864 
L 335.793669 123.907622 
L 336.90585 143.818265 
L 339.6863 197.048882 
L 340.520436 209.251597 
L 341.354571 218.43546 
L 341.910661 222.86045 
L 342.466751 226.057665 
L 343.022841 228.236433 
L 343.578931 229.671062 
L 344.413067 231.112637 
L 345.247202 232.624845 
L 345.803292 234.10437 
L 346.359382 236.166754 
L 347.193517 240.511701 
L 348.027653 246.266369 
L 349.695923 260.113482 
L 351.086148 271.000539 
L 351.920284 276.146889 
L 352.754419 279.909791 
L 353.310509 281.606313 
L 353.866599 282.657215 
L 354.422689 283.075633 
L 354.700734 283.050579 
L 354.978779 282.869256 
L 355.53487 282.030213 
L 356.09096 280.529362 
L 356.64705 278.315914 
L 357.20314 275.325975 
L 358.037275 269.261388 
L 358.87141 261.259654 
L 359.983591 248.082188 
L 361.929906 224.08071 
L 362.764042 216.766748 
L 363.320132 213.777477 
L 363.598177 212.93435 
L 363.876222 212.545607 
L 364.154267 212.615822 
L 364.432312 213.141096 
L 364.710357 214.109436 
L 365.266447 217.289381 
L 365.822537 221.919494 
L 366.656673 230.87581 
L 369.715168 266.513721 
L 370.549304 273.178976 
L 371.383439 277.78561 
L 371.939529 279.700531 
L 372.495619 280.725116 
L 372.773664 280.920238 
L 373.051709 280.915637 
L 373.329754 280.721784 
L 373.885845 279.815128 
L 374.441935 278.31194 
L 375.27607 275.23901 
L 377.50043 266.132762 
L 378.334566 263.874285 
L 378.890656 263.008557 
L 379.446746 262.689465 
L 379.724791 262.728958 
L 380.280881 263.167903 
L 380.836971 264.00366 
L 381.949152 266.307043 
L 382.783287 267.902553 
L 383.339377 268.540323 
L 383.617422 268.656052 
L 383.895467 268.602871 
L 384.173512 268.355903 
L 384.451557 267.890599 
L 385.007648 266.209393 
L 385.563738 263.374983 
L 386.119828 259.218956 
L 386.675918 253.592698 
L 387.510053 242.138889 
L 388.344188 226.882343 
L 389.456369 200.872501 
L 390.846594 161.792169 
L 392.514865 114.815817 
L 393.349 96.056433 
L 393.90509 86.570389 
L 394.46118 79.91589 
L 395.01727 76.246124 
L 395.295315 75.525969 
L 395.57336 75.523729 
L 395.851405 76.207482 
L 396.12945 77.536463 
L 396.685541 81.932214 
L 397.241631 88.269946 
L 398.075766 100.383415 
L 399.744036 128.936685 
L 402.246442 171.405914 
L 404.192758 201.008998 
L 405.861028 223.077926 
L 406.973208 235.388032 
L 408.085389 245.386904 
L 409.197569 253.145192 
L 410.309749 259.215951 
L 412.53411 269.475297 
L 415.036516 280.511881 
L 415.870651 283.34637 
L 416.704786 285.340197 
L 417.260876 286.15676 
L 417.816966 286.589593 
L 418.373056 286.70776 
L 419.207192 286.527218 
L 420.041327 286.294482 
L 420.597417 286.308358 
L 421.153507 286.559401 
L 421.709597 287.091112 
L 422.265688 287.903821 
L 423.099823 289.557772 
L 426.158319 296.366256 
L 426.436364 296.831173 
L 426.436364 296.831173 
" clip-path="url(#pff20f863ed)" style="fill: none; stroke-dasharray: 11.1,4.8; stroke-dashoffset: 0; stroke: #000000; stroke-width: 3"/>
   </g>
   <g id="line2d_2">
    <path d="M 27.163636 312.131327 
L 27.441681 312.61982 
L 27.719727 312.83875 
L 28.275817 312.883636 
L 28.553862 312.6787 
L 28.831907 312.267201 
L 29.109952 311.579514 
L 29.666042 309.284967 
L 30.222132 306.830741 
L 30.500177 306.485877 
L 30.778222 305.924629 
L 31.056267 305.722325 
L 31.334312 305.733393 
L 31.612358 307.445365 
L 32.446493 307.757797 
L 32.724538 308.055848 
L 33.002583 308.036661 
L 33.836718 307.666959 
L 34.670853 306.445166 
L 34.948898 306.905326 
L 35.226944 306.988138 
L 35.783034 307.672929 
L 36.061079 312.464304 
L 36.339124 312.553886 
L 37.173259 312.382408 
L 37.729349 311.840979 
L 38.285439 311.11598 
L 39.119575 309.35869 
L 39.39762 310.112462 
L 39.675665 310.155227 
L 40.231755 310.672892 
L 40.5098 312.277411 
L 40.787845 312.438554 
L 41.62198 312.462868 
L 41.900025 312.101752 
L 42.734161 310.105814 
L 43.568296 307.209795 
L 43.846341 307.484029 
L 44.124386 307.335729 
L 44.402431 307.499576 
L 44.680476 307.927534 
L 44.958521 310.509387 
L 45.236566 310.650332 
L 45.514611 310.565943 
L 46.070701 309.965246 
L 46.348747 309.193115 
L 47.460927 305.13034 
L 48.017017 303.473957 
L 48.295062 303.607965 
L 48.573107 303.416605 
L 49.129197 303.534045 
L 49.407242 305.668188 
L 49.963332 305.277865 
L 50.241378 304.949424 
L 50.519423 304.880819 
L 52.187693 301.715298 
L 52.465738 301.366977 
L 52.743783 301.799737 
L 53.021828 301.943823 
L 53.577918 302.83362 
L 53.855964 311.387956 
L 55.524234 313.750672 
L 55.802279 313.809863 
L 56.080324 313.641307 
L 56.636414 312.394501 
L 56.914459 311.691451 
L 57.47055 310.731681 
L 58.02664 309.300971 
L 58.304685 310.459861 
L 58.860775 309.385836 
L 59.416865 307.947365 
L 60.80709 296.766773 
L 61.363181 289.244344 
L 61.641226 287.73315 
L 61.919271 285.586125 
L 62.197316 284.49658 
L 62.475361 284.301507 
L 62.753406 288.931815 
L 63.031451 289.203787 
L 63.587541 289.365499 
L 63.865586 289.714724 
L 64.143631 289.105863 
L 64.421676 287.47295 
L 64.977767 282.722354 
L 65.811902 272.343588 
L 66.646037 267.549334 
L 66.924082 267.307775 
L 67.202127 270.155268 
L 67.758217 269.984828 
L 68.036262 270.04955 
L 68.314307 270.499104 
L 68.592352 269.850413 
L 68.870398 268.578113 
L 69.982578 260.774899 
L 70.260623 258.348382 
L 70.538668 257.158257 
L 70.816713 255.241109 
L 71.094758 254.94289 
L 71.372803 257.046403 
L 71.650848 251.51019 
L 72.206938 255.912713 
L 73.041074 267.054472 
L 73.319119 268.111713 
L 73.597164 268.518758 
L 73.875209 266.950344 
L 74.153254 264.693906 
L 74.987389 255.291507 
L 75.265434 254.04253 
L 75.543479 253.790027 
L 75.821524 254.153118 
L 76.09957 253.633687 
L 76.65566 255.277495 
L 77.489795 259.423463 
L 77.76784 258.872293 
L 78.045885 257.794497 
L 78.88002 250.305669 
L 79.158065 249.033023 
L 79.43611 248.368348 
L 79.992201 246.561913 
L 80.270246 246.338589 
L 80.548291 246.507091 
L 80.826336 245.575256 
L 81.660471 240.423349 
L 82.216561 234.755819 
L 82.772651 225.895725 
L 83.606787 205.985646 
L 84.162877 202.018947 
L 84.440922 201.514806 
L 84.718967 202.778334 
L 84.997012 208.773232 
L 86.109192 217.871004 
L 86.387237 218.764478 
L 86.665282 218.31819 
L 86.943327 217.608867 
L 87.221372 217.623144 
L 87.777463 213.352981 
L 88.055508 212.581154 
L 88.333553 213.612092 
L 88.611598 214.186832 
L 88.889643 215.246743 
L 89.167688 217.36688 
L 89.445733 236.602872 
L 91.114004 246.673032 
L 91.392049 247.14248 
L 91.670094 244.463619 
L 93.338364 235.573765 
L 93.616409 235.246119 
L 93.894454 230.9236 
L 94.450544 232.135132 
L 94.72859 233.315967 
L 95.006635 233.734085 
L 95.28468 233.075677 
L 95.562725 229.973876 
L 95.84077 225.625244 
L 96.95295 200.589512 
L 97.230995 197.139761 
L 97.787085 194.208752 
L 98.06513 193.458838 
L 98.343175 191.716962 
L 98.899266 190.877528 
L 100.289491 190.705406 
L 101.401671 189.370568 
L 101.679716 189.427096 
L 101.957761 189.649103 
L 102.513852 190.548125 
L 102.791897 190.526684 
L 103.904077 192.095924 
L 104.460167 192.97018 
L 104.738212 193.293564 
L 105.016257 192.718319 
L 105.572347 192.779198 
L 105.850393 193.039428 
L 106.128438 193.477484 
L 106.406483 194.839961 
L 106.684528 197.554365 
L 106.962573 201.547199 
L 107.240618 207.575525 
L 107.796708 208.507402 
L 108.074753 209.493917 
L 108.908888 214.560819 
L 109.186933 215.073595 
L 109.464978 213.997244 
L 110.299114 209.624182 
L 110.855204 208.088087 
L 111.133249 207.65181 
L 111.411294 207.451065 
L 111.689339 206.513853 
L 112.245429 206.843162 
L 112.523474 207.404471 
L 113.635655 210.876391 
L 113.9137 209.649308 
L 115.02588 207.066613 
L 115.303925 206.837853 
L 115.58197 206.90033 
L 115.860015 207.34785 
L 116.13806 206.781402 
L 116.69415 208.165928 
L 117.250241 210.811152 
L 117.806331 213.392786 
L 118.084376 213.841289 
L 118.640466 212.988287 
L 119.196556 212.744368 
L 119.474601 212.809394 
L 119.752646 213.260179 
L 120.030691 214.134947 
L 120.308736 215.677668 
L 120.586781 216.383212 
L 121.142872 222.025385 
L 121.698962 233.090835 
L 121.977007 240.164914 
L 122.533097 246.427065 
L 123.089187 241.901378 
L 123.367232 239.929673 
L 123.645277 240.081405 
L 123.923322 241.075217 
L 124.201367 242.604939 
L 124.479413 244.973004 
L 124.757458 248.626493 
L 125.035503 265.154505 
L 125.313548 266.494267 
L 125.869638 267.7816 
L 126.147683 268.814628 
L 126.425728 269.363578 
L 126.703773 269.056561 
L 126.981818 268.007771 
L 128.372044 255.971048 
L 128.928134 253.271686 
L 129.206179 252.933418 
L 129.484224 250.843558 
L 129.762269 251.492698 
L 130.040314 252.61966 
L 130.874449 258.206725 
L 131.152494 259.244442 
L 131.430539 259.783869 
L 131.708584 259.795714 
L 133.09881 261.060892 
L 133.376855 261.35497 
L 133.6549 261.93687 
L 133.932945 260.167632 
L 134.21099 260.320591 
L 134.489035 259.915669 
L 134.76708 259.905384 
L 135.32317 259.548667 
L 135.601215 258.484422 
L 135.879261 256.680752 
L 136.435351 247.136316 
L 136.713396 245.422473 
L 137.269486 246.669505 
L 137.825576 252.004319 
L 139.215801 274.08217 
L 139.771892 281.64252 
L 141.440162 294.244093 
L 141.996252 301.472076 
L 142.274297 306.037361 
L 142.552342 308.466116 
L 142.830387 309.499343 
L 143.386478 312.424746 
L 143.942568 313.53563 
L 144.498658 314.301918 
L 144.776703 314.488179 
L 145.332793 314.510863 
L 145.610838 314.402829 
L 145.888883 314.172663 
L 146.166928 313.780848 
L 146.444973 313.108959 
L 147.001064 310.805856 
L 147.835199 308.882719 
L 148.113244 308.726331 
L 148.391289 308.992603 
L 150.059559 312.625703 
L 150.61565 313.235361 
L 152.84001 314.355217 
L 154.230236 315.531821 
L 154.786326 315.801376 
L 155.620461 315.463514 
L 155.898506 315.322917 
L 156.176551 314.876422 
L 156.732641 314.82518 
L 157.288731 315.067144 
L 157.844821 315.787704 
L 158.122867 316.207641 
L 158.400912 316.27229 
L 158.678957 316.472727 
L 158.957002 316.463778 
L 159.235047 316.278347 
L 160.625272 314.584817 
L 162.015498 314.38053 
L 162.571588 313.901709 
L 163.127678 313.023636 
L 164.239858 310.589528 
L 164.795948 309.995977 
L 165.073993 309.831205 
L 165.352038 309.824661 
L 165.908129 310.13814 
L 166.742264 310.732101 
L 167.020309 310.729633 
L 167.576399 310.362218 
L 167.854444 309.945178 
L 168.132489 309.20771 
L 169.24467 304.571504 
L 170.078805 294.981931 
L 170.634895 291.150021 
L 171.190985 288.553206 
L 171.747075 284.844977 
L 172.58121 277.91626 
L 172.859256 276.989427 
L 173.137301 277.105654 
L 173.415346 277.799631 
L 173.693391 278.981913 
L 173.971436 279.579367 
L 175.639706 288.67062 
L 176.195796 289.93408 
L 176.473841 289.986521 
L 177.029932 289.558058 
L 177.307977 289.251152 
L 177.586022 288.679102 
L 178.142112 286.805175 
L 178.420157 279.200592 
L 179.254292 266.730622 
L 179.810382 264.050762 
L 180.644518 261.077153 
L 181.200608 259.364396 
L 181.478653 257.181695 
L 181.756698 253.869164 
L 182.034743 253.089656 
L 182.312788 253.039377 
L 182.590833 252.840787 
L 183.146923 248.445544 
L 183.703013 244.025175 
L 183.981058 242.425054 
L 184.537149 240.693488 
L 184.815194 240.489042 
L 185.093239 239.541143 
L 185.649329 238.566516 
L 185.927374 238.50759 
L 186.205419 238.26126 
L 186.483464 237.763147 
L 187.039554 236.09329 
L 187.317599 233.191392 
L 187.595644 231.631491 
L 188.42978 225.712745 
L 188.98587 221.850347 
L 189.54196 218.52468 
L 190.09805 215.966863 
L 190.65414 215.029558 
L 191.488276 213.065888 
L 191.766321 211.726571 
L 192.600456 210.866602 
L 193.156546 210.324939 
L 193.990681 208.847534 
L 194.546771 207.964721 
L 195.102861 207.828865 
L 195.936997 207.701147 
L 196.493087 206.314698 
L 197.049177 203.826951 
L 197.327222 203.494633 
L 197.605267 202.667613 
L 197.883312 200.810579 
L 198.161357 200.010429 
L 198.995493 199.695902 
L 200.107673 203.15557 
L 200.385718 204.637489 
L 200.663763 204.921521 
L 201.219853 206.876717 
L 202.053988 211.210675 
L 202.610079 214.484132 
L 204.000304 224.234511 
L 204.278349 225.393679 
L 204.834439 225.713703 
L 205.946619 219.112518 
L 206.50271 217.050549 
L 207.0588 214.264801 
L 207.892935 212.27734 
L 208.17098 212.284931 
L 208.72707 213.340679 
L 209.005115 214.113394 
L 209.561205 217.375789 
L 210.673386 229.521591 
L 210.951431 230.746143 
L 211.507521 231.843756 
L 211.785566 231.688544 
L 212.063611 231.18304 
L 212.341656 230.271437 
L 212.897746 229.419855 
L 213.453836 228.498143 
L 213.731881 228.446676 
L 214.009927 227.934679 
L 214.566017 225.651627 
L 214.844062 225.02147 
L 215.400152 225.972412 
L 215.678197 225.878789 
L 215.956242 226.5662 
L 216.790377 230.441948 
L 217.346467 235.582374 
L 218.458648 251.050954 
L 219.014738 253.979795 
L 219.848873 257.409622 
L 220.126918 257.588725 
L 220.404963 257.951671 
L 220.683008 257.698737 
L 220.961053 256.8671 
L 221.239099 255.21759 
L 221.517144 254.461383 
L 221.795189 254.198442 
L 222.073234 253.201172 
L 222.629324 250.114465 
L 223.185414 246.987636 
L 223.463459 244.309176 
L 223.741504 242.822829 
L 224.575639 241.346177 
L 225.13173 239.253871 
L 226.521955 230.924767 
L 227.078045 228.087095 
L 227.634135 226.644828 
L 227.91218 226.264608 
L 228.190225 226.241055 
L 228.746316 227.35203 
L 229.024361 226.913804 
L 229.580451 225.181888 
L 230.414586 220.398778 
L 230.692631 220.197563 
L 230.970676 220.148508 
L 231.804811 219.517282 
L 232.360901 217.538165 
L 232.638947 216.367806 
L 233.195037 216.299113 
L 233.473082 215.83612 
L 233.751127 215.649524 
L 234.029172 215.939574 
L 234.307217 216.423505 
L 234.585262 217.475242 
L 234.863307 219.697971 
L 235.697442 232.666951 
L 235.975487 235.31403 
L 236.253533 236.530994 
L 236.531578 237.166691 
L 236.809623 237.343092 
L 237.365713 237.048852 
L 237.643758 236.498798 
L 239.033983 230.612326 
L 239.312028 230.620803 
L 239.868119 232.514308 
L 240.146164 232.704225 
L 240.424209 232.268517 
L 240.702254 230.96391 
L 240.980299 228.335322 
L 241.814434 216.414699 
L 242.370524 209.815266 
L 243.204659 196.98843 
L 243.482704 195.003884 
L 243.76075 193.89815 
L 244.31684 193.117329 
L 245.98511 190.853436 
L 246.819245 190.464924 
L 247.931426 190.693702 
L 248.487516 191.30676 
L 248.765561 192.463209 
L 249.599696 193.998543 
L 250.433831 194.090354 
L 250.711876 194.411857 
L 250.989921 194.169469 
L 251.267967 194.084882 
L 251.546012 194.237999 
L 251.824057 194.570599 
L 252.102102 194.348627 
L 252.380147 195.066088 
L 253.214282 198.501306 
L 253.770372 202.534912 
L 254.048417 203.405285 
L 254.882553 204.870559 
L 255.160598 205.660091 
L 255.994733 207.024226 
L 256.272778 207.663112 
L 256.550823 207.632155 
L 257.106913 208.185634 
L 257.384958 208.533725 
L 257.663003 209.880292 
L 258.219093 208.455457 
L 258.497139 207.092637 
L 258.775184 204.146899 
L 259.331274 193.669431 
L 259.609319 191.180736 
L 259.887364 189.910454 
L 260.165409 189.396019 
L 261.277589 188.44135 
L 261.833679 188.339922 
L 262.38977 188.270493 
L 262.667815 188.412573 
L 263.779995 189.428703 
L 264.336085 190.978101 
L 264.61413 192.670691 
L 265.72631 205.12377 
L 266.560446 210.045677 
L 267.394581 211.148018 
L 268.506761 210.439823 
L 269.062851 209.361976 
L 269.340896 209.309057 
L 269.618942 209.641571 
L 269.896987 209.35801 
L 270.175032 210.123262 
L 271.287212 214.226031 
L 271.843302 215.133858 
L 272.677437 215.045929 
L 272.955482 215.291165 
L 273.789618 213.86815 
L 274.067663 213.835911 
L 274.345708 212.994519 
L 274.623753 213.350921 
L 274.901798 214.201033 
L 275.179843 217.270291 
L 275.457888 238.443163 
L 275.735933 239.17945 
L 276.292023 237.87056 
L 276.848113 234.75181 
L 277.126159 233.849556 
L 277.404204 233.622847 
L 277.682249 232.03257 
L 277.960294 232.454429 
L 278.238339 233.66325 
L 278.516384 236.087194 
L 278.794429 236.703497 
L 279.350519 245.540551 
L 279.628564 248.604085 
L 279.906609 250.125079 
L 281.01879 260.634033 
L 281.57488 264.639002 
L 282.13097 272.724265 
L 282.965105 288.329177 
L 283.79924 297.44474 
L 284.077285 302.798848 
L 284.35533 305.452962 
L 284.911421 307.605211 
L 285.745556 309.455593 
L 286.301646 309.641879 
L 287.691871 309.684933 
L 288.526007 309.57888 
L 288.804052 309.633874 
L 290.194277 309.350748 
L 290.750367 309.64396 
L 291.584502 310.338184 
L 292.418638 311.282989 
L 292.974728 311.887099 
L 293.252773 310.640124 
L 294.364953 310.630258 
L 296.867359 310.167256 
L 297.423449 310.03868 
L 297.701494 310.085005 
L 298.535629 309.95637 
L 299.369764 310.070387 
L 300.2039 310.255953 
L 301.31608 310.241551 
L 301.87217 310.138171 
L 302.150215 309.496272 
L 302.706305 309.274266 
L 303.540441 308.669231 
L 304.096531 307.916593 
L 304.652621 307.156368 
L 304.930666 306.953008 
L 305.208711 306.951534 
L 306.598936 308.687101 
L 306.876982 308.75168 
L 307.155027 308.525006 
L 307.989162 306.588812 
L 308.267207 305.718231 
L 308.545252 304.39607 
L 308.823297 302.268438 
L 309.935477 289.935876 
L 311.047658 280.396746 
L 313.550063 248.574608 
L 313.828108 242.969564 
L 314.384199 237.690859 
L 314.662244 238.126652 
L 315.218334 240.37464 
L 315.496379 239.025025 
L 315.774424 239.336666 
L 316.052469 239.338081 
L 316.330514 239.152003 
L 316.886604 237.923061 
L 317.164649 237.594214 
L 317.720739 238.020052 
L 317.998785 238.887309 
L 318.27683 240.703555 
L 318.554875 243.599439 
L 318.83292 244.807106 
L 319.38901 249.196318 
L 319.9451 252.222821 
L 320.223145 251.440189 
L 320.50119 246.385897 
L 320.779235 238.84832 
L 321.61337 224.740037 
L 322.169461 213.780854 
L 322.725551 208.855972 
L 323.003596 206.730303 
L 323.281641 203.122681 
L 323.559686 201.342718 
L 323.837731 200.495385 
L 324.115776 200.45434 
L 324.393821 197.047514 
L 325.227956 195.486284 
L 325.784047 194.357552 
L 326.062092 193.991815 
L 326.618182 194.104315 
L 326.896227 194.165878 
L 327.174272 194.352414 
L 327.452317 194.677157 
L 327.730362 193.885232 
L 328.008407 193.955686 
L 328.286452 194.215472 
L 328.564497 194.80791 
L 328.842542 201.710507 
L 329.398633 198.652679 
L 331.344948 183.100102 
L 331.622993 180.851581 
L 331.901038 179.73557 
L 332.179083 177.351551 
L 332.457128 178.347727 
L 332.735173 180.851444 
L 333.013219 184.585133 
L 333.291264 185.006466 
L 333.847354 189.444955 
L 334.403444 191.612473 
L 336.071714 193.805476 
L 336.627805 195.164354 
L 336.90585 196.756353 
L 337.46194 201.816868 
L 337.739985 201.348882 
L 338.296075 204.387594 
L 338.57412 205.264303 
L 338.852165 205.629501 
L 339.13021 205.345444 
L 339.6863 204.342779 
L 340.24239 201.761367 
L 340.798481 198.822023 
L 341.076526 197.281738 
L 341.354571 197.081652 
L 341.632616 197.472771 
L 341.910661 198.480549 
L 342.188706 196.569021 
L 342.466751 197.148361 
L 342.744796 197.250559 
L 343.022841 196.875615 
L 343.300886 196.141439 
L 343.856976 194.105537 
L 344.691112 192.752738 
L 344.969157 192.630561 
L 345.247202 192.771982 
L 345.525247 192.593029 
L 345.803292 192.949071 
L 346.081337 193.61416 
L 346.359382 194.699616 
L 346.637427 199.083296 
L 347.471562 200.889129 
L 347.749607 201.085617 
L 348.027653 200.862533 
L 348.583743 199.944172 
L 349.417878 197.100391 
L 349.973968 196.454897 
L 350.252013 196.804151 
L 350.530058 197.769473 
L 350.808103 199.413443 
L 351.086148 200.19033 
L 351.364193 201.714029 
L 351.642239 203.870065 
L 352.476374 214.670207 
L 353.032464 217.315593 
L 353.310509 217.666403 
L 353.866599 216.828594 
L 354.144644 216.943137 
L 354.422689 216.677794 
L 354.700734 217.557691 
L 354.978779 219.428994 
L 355.256825 222.527192 
L 356.09096 227.494486 
L 356.369005 227.818178 
L 356.64705 226.289905 
L 357.481185 214.365007 
L 358.037275 206.078594 
L 358.31532 203.722206 
L 358.87141 201.270528 
L 359.149456 201.337238 
L 359.427501 202.474579 
L 359.705546 204.970559 
L 359.983591 203.560463 
L 360.261636 205.222104 
L 360.539681 206.105481 
L 360.817726 205.664331 
L 361.095771 204.168092 
L 361.929906 196.744743 
L 362.485996 193.233086 
L 363.042087 191.546558 
L 363.320132 190.825155 
L 363.598177 190.685862 
L 363.876222 190.991395 
L 364.154267 192.04651 
L 364.432312 196.566157 
L 364.710357 197.000203 
L 364.988402 197.111668 
L 365.266447 196.769621 
L 365.544492 195.961238 
L 366.378628 191.645148 
L 366.934718 190.296786 
L 367.212763 190.194152 
L 367.490808 190.695976 
L 367.768853 191.667239 
L 368.046898 193.497549 
L 369.437123 211.007895 
L 369.715168 212.427636 
L 369.993213 213.091912 
L 370.271259 213.089647 
L 370.827349 212.69462 
L 371.105394 212.634579 
L 371.383439 212.752644 
L 371.661484 213.272379 
L 372.217574 215.06708 
L 372.495619 216.657523 
L 372.773664 219.061795 
L 373.051709 222.917747 
L 373.329754 223.595814 
L 373.607799 224.764052 
L 373.885845 223.968134 
L 374.16389 221.518431 
L 374.998025 207.659855 
L 375.554115 196.600252 
L 375.83216 193.772971 
L 376.110205 192.437313 
L 376.666295 191.461502 
L 376.94434 191.424107 
L 377.222385 191.648311 
L 377.50043 192.095446 
L 377.778476 191.549875 
L 378.334566 191.988948 
L 378.890656 191.780372 
L 380.280881 190.043822 
L 380.558926 190.041505 
L 380.836971 190.224981 
L 381.115016 190.266222 
L 381.671107 190.932893 
L 381.949152 191.497973 
L 382.227197 192.775718 
L 382.505242 192.839966 
L 383.061332 192.47776 
L 383.339377 191.931582 
L 383.895467 190.381235 
L 384.729602 189.087503 
L 385.007648 188.964034 
L 385.285693 189.103148 
L 385.563738 189.114946 
L 386.119828 189.637493 
L 386.397873 190.036623 
L 386.675918 189.446186 
L 387.788098 189.56939 
L 388.622233 189.449281 
L 389.734414 189.401021 
L 390.846594 187.909219 
L 391.124639 185.504571 
L 391.680729 183.308867 
L 391.958774 181.939627 
L 392.236819 179.787464 
L 393.627045 158.842635 
L 393.90509 158.33439 
L 394.46118 163.616255 
L 395.01727 172.303449 
L 395.295315 177.59394 
L 395.57336 177.950204 
L 396.12945 185.49786 
L 396.685541 189.647222 
L 397.241631 191.631375 
L 398.075766 193.941144 
L 398.909901 196.695832 
L 399.744036 198.706539 
L 400.022082 204.332853 
L 401.134262 206.694379 
L 401.412307 206.391701 
L 401.968397 205.360867 
L 402.246442 205.340554 
L 402.524487 205.055051 
L 402.802532 204.955581 
L 403.080577 205.183983 
L 403.636668 206.467448 
L 404.192758 209.317349 
L 404.470803 208.742352 
L 405.582983 216.21757 
L 405.861028 216.509493 
L 406.139073 216.351024 
L 406.417118 216.062931 
L 406.695163 216.266968 
L 407.251253 215.680113 
L 407.529299 215.902821 
L 408.085389 217.079685 
L 408.363434 218.162508 
L 408.641479 220.324135 
L 408.919524 213.818847 
L 409.475614 216.085561 
L 409.753659 216.814924 
L 410.031704 217.98282 
L 410.587794 216.740554 
L 410.865839 217.352253 
L 411.143885 219.983746 
L 411.699975 221.71503 
L 411.97802 223.504055 
L 412.256065 226.947993 
L 412.53411 228.345248 
L 412.812155 230.35183 
L 413.0902 233.344641 
L 413.368245 229.901828 
L 413.924335 235.578599 
L 414.75847 245.550686 
L 415.314561 248.869343 
L 415.870651 255.500506 
L 416.982831 267.676945 
L 417.538921 271.80123 
L 417.816966 271.701069 
L 418.373056 273.413946 
L 418.651102 273.918085 
L 418.929147 275.337647 
L 419.485237 275.489401 
L 419.763282 275.476823 
L 420.319372 279.356176 
L 420.875462 283.4062 
L 421.431552 289.913776 
L 423.377868 308.635943 
L 423.933958 310.706475 
L 424.212003 310.906709 
L 424.490048 311.885742 
L 424.768093 312.236359 
L 425.046138 312.397132 
L 425.324183 312.392858 
L 425.602228 312.97382 
L 425.880273 313.026671 
L 426.436364 313.418355 
L 426.436364 313.418355 
" clip-path="url(#pff20f863ed)" style="fill: none; stroke: #ff00ff; stroke-width: 3; stroke-linecap: square"/>
   </g>
   <g id="patch_3">
    <path d="M 7.2 331.2 
L 7.2 7.2 
" style="fill: none; stroke: #000000; stroke-width: 0.8; stroke-linejoin: miter; stroke-linecap: square"/>
   </g>
   <g id="patch_4">
    <path d="M 446.4 331.2 
L 446.4 7.2 
" style="fill: none; stroke: #000000; stroke-width: 0.8; stroke-linejoin: miter; stroke-linecap: square"/>
   </g>
   <g id="patch_5">
    <path d="M 7.2 331.2 
L 446.4 331.2 
" style="fill: none; stroke: #000000; stroke-width: 0.8; stroke-linejoin: miter; stroke-linecap: square"/>
   </g>
   <g id="patch_6">
    <path d="M 7.2 7.2 
L 446.4 7.2 
" style="fill: none; stroke: #000000; stroke-width: 0.8; stroke-linejoin: miter; stroke-linecap: square"/>
   </g>
  </g>
 </g>
 <defs>
  <clipPath id="pff20f863ed">
   <rect x="7.2" y="7.2" width="439.2" height="324"/>
  </clipPath>
 </defs>
</svg>
