<?xml version="1.0" encoding="utf-8" standalone="no"?>
<!DOCTYPE svg PUBLIC "-//W3C//DTD SVG 1.1//EN"
  "http://www.w3.org/Graphics/SVG/1.1/DTD/svg11.dtd">
<svg xmlns:xlink="http://www.w3.org/1999/xlink" width="453.6pt" height="338.4pt" viewBox="0 0 453.6 338.4" xmlns="http://www.w3.org/2000/svg" version="1.1">
 <metadata>
  <rdf:RDF xmlns:dc="http://purl.org/dc/elements/1.1/" xmlns:cc="http://creativecommons.org/ns#" xmlns:rdf="http://www.w3.org/1999/02/22-rdf-syntax-ns#">
   <cc:Work>
    <dc:type rdf:resource="http://purl.org/dc/dcmitype/StillImage"/>
    <dc:date>2025-05-15T17:31:03.574628</dc:date>
    <dc:format>image/svg+xml</dc:format>
    <dc:creator>
     <cc:Agent>
      <dc:title>Matplotlib v3.10.1, https://matplotlib.org/</dc:title>
     </cc:Agent>
    </dc:creator>
   </cc:Work>
  </rdf:RDF>
 </metadata>
 <defs>
  <style type="text/css">*{stroke-linejoin: round; stroke-linecap: butt}</style>
 </defs>
 <g id="figure_1">
  <g id="patch_1">
   <path d="M 0 338.4 
L 453.6 338.4 
L 453.6 0 
L 0 0 
z
" style="fill: #ffffff"/>
  </g>
  <g id="axes_1">
   <g id="patch_2">
    <path d="M 7.2 331.2 
L 446.4 331.2 
L 446.4 7.2 
L 7.2 7.2 
z
" style="fill: #ffffff"/>
   </g>
   <g id="matplotlib.axis_1"/>
   <g id="matplotlib.axis_2"/>
   <g id="line2d_1">
    <path d="M 27.163636 249.475345 
L 28.275817 252.178695 
L 28.831907 253.143175 
L 29.387997 253.747231 
L 29.944087 253.956153 
L 30.500177 253.767373 
L 31.056267 253.202239 
L 31.612358 252.298121 
L 32.446493 250.413233 
L 33.836718 246.402952 
L 35.226944 242.531748 
L 36.061079 240.961144 
L 36.617169 240.414811 
L 37.173259 240.327472 
L 37.729349 240.70866 
L 38.285439 241.53324 
L 38.84153 242.749067 
L 39.675665 245.15327 
L 41.06589 250.09347 
L 44.124386 261.323186 
L 45.514611 265.600253 
L 46.904837 269.208206 
L 48.295062 272.159149 
L 49.407242 273.97484 
L 50.241378 274.958499 
L 51.075513 275.596926 
L 51.909648 275.913928 
L 52.743783 275.972717 
L 53.855964 275.800316 
L 58.58273 274.781064 
L 60.529045 274.32693 
L 61.363181 273.941637 
L 62.197316 273.269849 
L 62.753406 272.578242 
L 63.309496 271.630477 
L 64.143631 269.639648 
L 64.977767 266.923395 
L 66.089947 262.361179 
L 68.036262 254.066611 
L 68.870398 251.589885 
L 69.426488 250.589472 
L 69.982578 250.171222 
L 70.260623 250.181605 
L 70.538668 250.33298 
L 71.094758 251.026685 
L 71.650848 252.168115 
L 72.484984 254.486405 
L 74.431299 260.989162 
L 76.65566 268.095098 
L 78.32393 272.740352 
L 79.43611 275.165381 
L 80.270246 276.443921 
L 80.826336 276.999673 
L 81.382426 277.313252 
L 81.938516 277.394617 
L 82.494606 277.26427 
L 83.328741 276.736678 
L 84.440922 275.60753 
L 86.943327 272.857562 
L 87.777463 272.260003 
L 88.889643 271.785093 
L 91.948139 270.837912 
L 93.060319 270.114879 
L 94.72859 268.709764 
L 95.84077 267.552724 
L 96.674905 266.345997 
L 97.230995 265.208602 
L 97.787085 263.650334 
L 98.343175 261.517947 
L 98.899266 258.657097 
L 99.733401 252.718706 
L 100.567536 244.633817 
L 101.679716 231.032167 
L 103.347987 209.806477 
L 104.182122 202.340797 
L 104.738212 199.59566 
L 105.016257 199.007674 
L 105.294302 198.968747 
L 105.572347 199.483013 
L 105.850393 200.542207 
L 106.406483 204.20207 
L 106.962573 209.655043 
L 107.796708 220.232182 
L 110.299114 253.918463 
L 111.133249 262.026752 
L 111.967384 268.051877 
L 112.801519 272.298924 
L 113.635655 275.208736 
L 114.46979 277.198995 
L 115.303925 278.582141 
L 116.13806 279.564954 
L 116.972195 280.269265 
L 118.084376 280.87721 
L 118.918511 281.115063 
L 119.752646 281.169374 
L 120.586781 281.036871 
L 121.420917 280.717638 
L 122.533097 280.027288 
L 123.923322 278.864962 
L 126.703773 276.470548 
L 128.928134 274.663133 
L 129.762269 273.631535 
L 130.318359 272.652137 
L 130.874449 271.30363 
L 131.430539 269.418849 
L 131.98663 266.784914 
L 132.54272 263.152235 
L 133.09881 258.24174 
L 133.6549 251.766751 
L 134.489035 238.606743 
L 135.32317 221.026152 
L 136.435351 191.736464 
L 138.381666 138.732439 
L 138.937756 127.745914 
L 139.493847 120.286345 
L 139.771892 118.076607 
L 140.049937 116.945974 
L 140.327982 116.916225 
L 140.606027 117.985706 
L 140.884072 120.12979 
L 141.440162 127.433861 
L 141.996252 138.220969 
L 142.830387 159.033029 
L 145.332793 225.22796 
L 146.166928 241.087732 
L 147.001064 252.628168 
L 147.835199 260.322944 
L 148.391289 263.689988 
L 148.947379 265.905025 
L 149.503469 267.156287 
L 149.781514 267.46798 
L 150.059559 267.589173 
L 150.337604 267.52975 
L 150.61565 267.29677 
L 151.17174 266.329394 
L 151.72783 264.716979 
L 152.28392 262.483722 
L 153.118055 258.041614 
L 154.230236 250.450112 
L 156.454596 234.074763 
L 157.288731 229.734859 
L 157.844821 227.964239 
L 158.122867 227.470807 
L 158.400912 227.252953 
L 158.678957 227.31504 
L 158.957002 227.656025 
L 159.513092 229.143475 
L 160.069182 231.601564 
L 160.903317 236.68376 
L 163.405723 253.878689 
L 164.239858 257.600253 
L 164.795948 259.005247 
L 165.073993 259.325161 
L 165.352038 259.358712 
L 165.630084 259.079014 
L 165.908129 258.456265 
L 166.464219 256.04321 
L 167.020309 251.796061 
L 167.576399 245.320245 
L 168.132489 236.192835 
L 168.688579 224.036473 
L 169.522715 199.62555 
L 170.35685 168.030124 
L 173.415346 40.024766 
L 173.971436 27.635029 
L 174.249481 23.934386 
L 174.527526 22.017431 
L 174.805571 21.927273 
L 175.083616 23.667086 
L 175.361661 27.199682 
L 175.917751 39.301251 
L 176.473841 57.210099 
L 177.307977 91.715473 
L 179.532337 189.664147 
L 180.366473 217.140623 
L 181.200608 237.345392 
L 182.034743 251.086964 
L 182.590833 257.392459 
L 183.146923 261.979201 
L 183.703013 265.302064 
L 184.537149 268.725754 
L 185.371284 271.049275 
L 186.483464 273.362436 
L 188.151735 276.202786 
L 189.263915 277.730014 
L 190.09805 278.51533 
L 190.65414 278.788208 
L 191.21023 278.815763 
L 191.766321 278.57368 
L 192.322411 278.058269 
L 193.156546 276.823791 
L 194.268726 274.604573 
L 195.936997 271.279312 
L 196.771132 270.05487 
L 197.883312 268.900698 
L 198.995493 267.77253 
L 199.551583 266.882546 
L 200.107673 265.51158 
L 200.663763 263.407293 
L 201.219853 260.25455 
L 201.775943 255.671708 
L 202.332033 249.239569 
L 202.888124 240.541662 
L 203.722259 222.473194 
L 204.556394 197.877666 
L 205.668574 156.28814 
L 207.61489 80.178399 
L 208.17098 64.443969 
L 208.72707 53.899195 
L 209.005115 50.868806 
L 209.28316 49.431095 
L 209.561205 49.617354 
L 209.83925 51.42317 
L 210.117296 54.80942 
L 210.673386 66.000562 
L 211.229476 82.259868 
L 212.341656 124.637646 
L 214.287972 201.11731 
L 215.122107 226.113276 
L 215.956242 244.827325 
L 216.790377 257.862269 
L 217.624513 266.426802 
L 218.180603 270.316905 
L 218.736693 273.156547 
L 219.292783 275.22129 
L 220.126918 277.333084 
L 220.961053 278.696129 
L 221.795189 279.592364 
L 222.629324 280.179143 
L 223.463459 280.532022 
L 224.297594 280.677797 
L 225.13173 280.6173 
L 225.965865 280.338033 
L 226.8 279.835802 
L 227.91218 278.862996 
L 230.970676 275.888659 
L 232.082856 275.215612 
L 233.473082 274.425284 
L 234.029172 273.902072 
L 234.585262 273.098456 
L 235.141352 271.865609 
L 235.697442 270.016054 
L 236.253533 267.331771 
L 236.809623 263.576188 
L 237.365713 258.503052 
L 237.921803 251.880864 
L 238.755938 238.69573 
L 239.590073 221.581744 
L 240.980299 186.834744 
L 242.370524 153.074091 
L 243.204659 138.884255 
L 243.76075 133.566925 
L 244.038795 132.338007 
L 244.31684 132.102392 
L 244.594885 132.864784 
L 244.87293 134.609145 
L 245.42902 140.880259 
L 245.98511 150.410693 
L 246.819245 169.166925 
L 249.321651 230.8051 
L 250.155786 246.172261 
L 250.989921 257.739627 
L 251.824057 265.927552 
L 252.658192 271.477025 
L 253.492327 275.142878 
L 254.326462 277.559917 
L 255.160598 279.171034 
L 255.994733 280.251173 
L 256.828868 280.973907 
L 257.663003 281.435089 
L 258.497139 281.686744 
L 259.331274 281.752376 
L 260.165409 281.63553 
L 260.999544 281.335052 
L 262.111724 280.661873 
L 263.50195 279.496776 
L 266.282401 277.092646 
L 268.228716 275.515899 
L 269.062851 274.452622 
L 269.618942 273.393573 
L 270.175032 271.88577 
L 270.731122 269.747608 
L 271.287212 266.758491 
L 271.843302 262.664472 
L 272.399392 257.207059 
L 273.233527 245.994033 
L 274.067663 230.835862 
L 275.179843 205.235218 
L 277.126159 157.879896 
L 277.960294 143.916502 
L 278.516384 138.733227 
L 278.794429 137.567487 
L 279.072474 137.391729 
L 279.350519 138.209151 
L 279.628564 140.001584 
L 280.184654 146.33716 
L 280.740744 155.869822 
L 281.57488 174.465841 
L 284.077285 234.33195 
L 284.911421 248.873005 
L 285.745556 259.643464 
L 286.579691 267.114569 
L 287.413826 272.025514 
L 287.969916 274.257242 
L 288.526007 275.883544 
L 289.082097 277.05275 
L 289.916232 278.191347 
L 290.750367 278.825567 
L 291.584502 279.106121 
L 292.418638 279.101026 
L 293.252773 278.820951 
L 294.086908 278.23432 
L 294.921043 277.297897 
L 295.755179 275.990135 
L 296.867359 273.750851 
L 299.091719 269.075286 
L 299.925855 267.937762 
L 300.481945 267.488901 
L 301.038035 267.283096 
L 301.594125 267.276606 
L 303.262396 267.543223 
L 303.818486 267.274193 
L 304.374576 266.527171 
L 304.930666 265.077572 
L 305.486756 262.649652 
L 306.042846 258.910918 
L 306.598936 253.493595 
L 307.155027 246.019482 
L 307.711117 236.13439 
L 308.545252 216.252578 
L 309.379387 190.31849 
L 310.769613 138.01893 
L 311.881793 97.438673 
L 312.715928 74.91173 
L 313.272018 65.977195 
L 313.550063 63.649678 
L 313.828108 62.82162 
L 314.106153 63.507181 
L 314.384199 65.687586 
L 314.940289 74.298161 
L 315.496379 87.900202 
L 316.330514 115.140788 
L 318.83292 204.918495 
L 319.667055 226.848008 
L 320.50119 242.964009 
L 321.335325 253.920096 
L 321.891416 258.923153 
L 322.447506 262.515392 
L 323.003596 265.021901 
L 323.559686 266.712067 
L 324.115776 267.800129 
L 324.671866 268.437266 
L 325.227956 268.714888 
L 325.784047 268.683819 
L 326.340137 268.371556 
L 326.896227 267.791961 
L 327.730362 266.45158 
L 328.842542 263.974106 
L 330.510813 260.014601 
L 331.344948 258.676651 
L 331.901038 258.232828 
L 332.457128 258.204858 
L 333.013219 258.598371 
L 333.569309 259.378499 
L 334.403444 261.114124 
L 336.90585 267.103517 
L 337.46194 267.931817 
L 338.01803 268.377849 
L 338.296075 268.428732 
L 338.57412 268.34756 
L 338.852165 268.118859 
L 339.408255 267.143078 
L 339.964345 265.32145 
L 340.520436 262.435275 
L 341.076526 258.23394 
L 341.632616 252.445072 
L 342.188706 244.80841 
L 343.022841 229.50109 
L 343.856976 209.558824 
L 345.247202 169.028649 
L 346.637427 129.778217 
L 347.193517 117.999416 
L 347.749607 109.903102 
L 348.027653 107.45453 
L 348.305698 106.148815 
L 348.583743 106.014456 
L 348.861788 107.055786 
L 349.139833 109.252411 
L 349.695923 116.913006 
L 350.252013 128.388399 
L 351.086148 150.782581 
L 353.588554 223.48481 
L 354.422689 241.333741 
L 355.256825 254.608023 
L 356.09096 263.855834 
L 356.925095 269.998362 
L 357.75923 273.971131 
L 358.593365 276.552651 
L 359.427501 278.270829 
L 360.261636 279.445843 
L 361.095771 280.265819 
L 361.929906 280.823917 
L 362.764042 281.166237 
L 363.598177 281.310489 
L 364.432312 281.258413 
L 365.266447 281.009704 
L 366.378628 280.388496 
L 367.768853 279.263724 
L 371.105394 276.389902 
L 372.495619 275.163812 
L 373.329754 274.091173 
L 373.885845 273.056316 
L 374.441935 271.611868 
L 374.998025 269.587683 
L 375.554115 266.770916 
L 376.110205 262.912674 
L 376.666295 257.75615 
L 377.50043 247.102838 
L 378.334566 232.592491 
L 379.446746 207.88901 
L 381.393062 161.851677 
L 381.949152 152.076342 
L 382.505242 145.346671 
L 382.783287 143.312995 
L 383.061332 142.232539 
L 383.339377 142.129358 
L 383.617422 143.006289 
L 383.895467 144.844713 
L 384.451557 151.229229 
L 385.007648 160.750275 
L 385.841783 179.210798 
L 388.344188 237.981478 
L 389.178324 252.070537 
L 390.012459 262.433048 
L 390.846594 269.576702 
L 391.680729 274.263697 
L 392.514865 277.258513 
L 393.349 279.15496 
L 394.183135 280.35371 
L 395.01727 281.112009 
L 395.851405 281.572809 
L 396.685541 281.817082 
L 397.797721 281.885199 
L 398.909901 281.716306 
L 400.300127 281.242479 
L 402.246442 280.277472 
L 406.417118 277.958561 
L 407.251253 277.218261 
L 408.085389 276.116007 
L 408.641479 275.059563 
L 409.197569 273.630109 
L 409.753659 271.691373 
L 410.309749 269.075081 
L 410.865839 265.594181 
L 411.42193 261.055744 
L 412.256065 251.886726 
L 413.0902 239.603408 
L 414.20238 218.870498 
L 416.426741 175.266627 
L 416.982831 167.775318 
L 417.538921 162.945685 
L 417.816966 161.660826 
L 418.095011 161.170247 
L 418.373056 161.484213 
L 418.651102 162.596387 
L 419.207192 167.108137 
L 419.763282 174.342648 
L 420.597417 189.036198 
L 423.655913 248.144746 
L 424.490048 258.943416 
L 425.324183 266.769481 
L 426.158319 272.116449 
L 426.436364 273.457426 
L 426.436364 273.457426 
" clip-path="url(#pdcb003729b)" style="fill: none; stroke-dasharray: 11.1,4.8; stroke-dashoffset: 0; stroke: #000000; stroke-width: 3"/>
   </g>
   <g id="line2d_2">
    <path d="M 27.163636 214.903163 
L 28.553862 214.55059 
L 29.944087 214.463504 
L 31.056267 214.609828 
L 31.890403 214.861539 
L 32.446493 215.846423 
L 33.280628 217.174526 
L 34.114763 218.249961 
L 34.670853 220.871781 
L 36.617169 230.344349 
L 39.119575 241.154317 
L 42.456115 254.49014 
L 46.070701 268.21103 
L 47.460927 271.795379 
L 48.851152 274.802222 
L 50.241378 277.283301 
L 51.353558 278.923896 
L 52.743783 269.855069 
L 56.636414 244.457714 
L 57.748595 238.811728 
L 58.58273 235.414955 
L 59.416865 232.893603 
L 59.69491 232.412479 
L 59.972955 232.979934 
L 60.80709 235.248765 
L 61.641226 236.692936 
L 62.197316 237.283409 
L 62.753406 237.632516 
L 63.587541 237.83218 
L 64.699721 237.75491 
L 65.811902 237.707085 
L 66.367992 237.85961 
L 66.924082 238.192114 
L 67.480172 238.732747 
L 67.758217 239.129319 
L 68.036262 240.285424 
L 71.650848 267.72752 
L 73.041074 275.382318 
L 74.709344 283.294848 
L 77.21175 293.911185 
L 80.270246 307.042694 
L 81.382426 312.037336 
L 82.494606 314.100502 
L 83.328741 315.285771 
L 84.162877 316.093163 
L 84.718967 316.390223 
L 85.275057 316.472727 
L 85.831147 316.319537 
L 86.665282 309.605208 
L 88.055508 296.866567 
L 89.723778 278.595466 
L 91.392049 257.746071 
L 93.060319 236.581629 
L 94.450544 223.520952 
L 95.562725 215.149741 
L 96.39686 210.163631 
L 97.230995 206.358186 
L 98.06513 203.774343 
L 98.621221 202.756458 
L 99.177311 202.316181 
L 99.455356 202.316541 
L 99.733401 202.467671 
L 100.289491 203.239642 
L 100.845581 204.632488 
L 101.401671 206.656147 
L 101.679716 207.908375 
L 101.957761 208.634648 
L 102.235807 207.639184 
L 102.513852 208.200663 
L 105.850393 231.676155 
L 107.240618 239.802183 
L 108.630843 246.39099 
L 110.021069 251.867903 
L 111.133249 255.356276 
L 111.967384 257.405215 
L 112.801519 258.945251 
L 113.9137 260.563165 
L 116.13806 265.325411 
L 117.806331 268.346109 
L 119.196556 270.375486 
L 120.308736 271.617157 
L 120.586781 271.316506 
L 121.420917 268.820446 
L 122.533097 264.669643 
L 123.645277 259.259892 
L 125.035503 251.215738 
L 126.703773 239.94539 
L 128.372044 227.131505 
L 129.206179 218.560606 
L 130.596404 205.074149 
L 131.708584 196.181648 
L 132.820765 189.124606 
L 133.6549 185.093682 
L 134.489035 182.190481 
L 135.045125 180.915359 
L 135.601215 180.169219 
L 135.879261 179.995567 
L 136.157306 179.957601 
L 136.435351 180.054648 
L 136.991441 180.657671 
L 137.269486 183.088831 
L 138.937756 205.236817 
L 140.049937 217.482594 
L 141.440162 228.688368 
L 142.274297 233.991336 
L 143.942568 241.379566 
L 145.610838 247.788 
L 146.723018 251.418959 
L 148.113244 255.314258 
L 149.503469 258.620581 
L 150.893695 261.320853 
L 152.005875 263.050075 
L 153.118055 264.389816 
L 154.230236 265.333616 
L 155.064371 265.785746 
L 155.342416 265.78713 
L 156.732641 259.28058 
L 157.844821 253.105398 
L 159.513092 242.201884 
L 161.181362 230.185194 
L 165.073993 198.526078 
L 166.464219 189.599106 
L 167.576399 183.807596 
L 168.410534 180.346868 
L 169.24467 177.705835 
L 169.80076 176.435293 
L 170.35685 175.586536 
L 170.91294 175.165866 
L 171.190985 175.121541 
L 171.46903 175.190854 
L 171.747075 175.375931 
L 172.02512 177.330221 
L 173.971436 204.248737 
L 175.083616 216.856159 
L 176.473841 229.335491 
L 177.864067 240.012642 
L 179.254292 248.907119 
L 180.366473 254.738946 
L 181.200608 258.193552 
L 182.590833 261.804352 
L 183.703013 264.193145 
L 184.815194 266.138262 
L 185.927374 267.664657 
L 187.039554 268.76876 
L 187.87369 269.324329 
L 188.707825 269.649619 
L 189.54196 269.738719 
L 190.09805 269.661088 
L 190.376095 268.642674 
L 192.044366 258.978759 
L 193.990681 245.167632 
L 197.049177 221.432483 
L 199.829628 200.190939 
L 201.497898 188.996308 
L 202.888124 181.080254 
L 204.000304 175.948249 
L 204.834439 172.915551 
L 205.668574 170.456871 
L 206.224664 169.325653 
L 206.50271 168.957615 
L 206.780755 169.50921 
L 207.336845 176.343886 
L 209.28316 201.885336 
L 210.395341 213.351072 
L 212.063611 228.295398 
L 213.453836 239.016548 
L 215.122107 249.983691 
L 216.512332 257.794571 
L 217.902558 264.42687 
L 219.292783 269.910863 
L 220.404963 273.487874 
L 221.517144 276.333997 
L 222.351279 278.001425 
L 223.185414 279.266789 
L 224.019549 280.116953 
L 224.575639 280.459666 
L 224.853684 280.563702 
L 225.13173 280.161041 
L 226.8 269.75971 
L 228.746316 254.504198 
L 231.526766 230.624109 
L 234.863307 202.260893 
L 236.253533 192.471838 
L 237.365713 185.926613 
L 238.477893 180.72552 
L 239.312028 177.816163 
L 240.146164 175.830694 
L 240.702254 175.063822 
L 241.258344 174.776645 
L 241.536389 175.577711 
L 242.092479 182.600402 
L 243.76075 204.686447 
L 244.594885 213.88476 
L 246.263155 228.943163 
L 247.931426 241.65183 
L 249.321651 250.752308 
L 250.711876 258.59404 
L 252.102102 265.228285 
L 253.492327 270.710377 
L 254.604507 274.300084 
L 255.716688 277.186671 
L 256.828868 279.399752 
L 257.663003 280.617257 
L 258.497139 281.458191 
L 259.053229 281.780059 
L 259.331274 281.696677 
L 259.887364 281.077738 
L 261.833679 267.587544 
L 264.05804 249.477422 
L 269.618942 203.069873 
L 271.287212 191.197013 
L 272.677437 182.860554 
L 273.789618 177.473191 
L 274.623753 174.31273 
L 275.457888 172.007826 
L 276.013978 170.978674 
L 276.292023 170.625144 
L 276.570068 171.385825 
L 277.960294 183.366666 
L 281.01879 209.89175 
L 282.965105 225.59068 
L 284.35533 233.987836 
L 286.579691 246.293617 
L 288.247962 254.406679 
L 289.638187 260.238 
L 290.750367 264.179436 
L 291.862547 267.387936 
L 292.696683 269.271304 
L 293.530818 270.64945 
L 294.086908 271.268253 
L 294.364953 270.829766 
L 295.755179 265.275503 
L 296.589314 261.364097 
L 298.257584 251.801686 
L 300.2039 239.142623 
L 304.096531 211.717017 
L 306.320891 196.845604 
L 307.989162 187.126131 
L 309.657432 178.934043 
L 310.769613 174.81954 
L 311.047658 175.148667 
L 312.159838 183.578397 
L 317.164649 222.489537 
L 319.38901 237.885037 
L 321.335325 249.730078 
L 323.003596 258.403144 
L 324.393821 264.43422 
L 325.506002 268.389219 
L 326.340137 270.779599 
L 327.174272 272.53499 
L 328.008407 273.801941 
L 328.564497 274.370252 
L 328.842542 274.427667 
L 329.676678 273.369025 
L 330.510813 271.935704 
L 331.344948 270.119375 
L 332.457128 266.994279 
L 333.569309 263.199933 
L 334.959534 257.600737 
L 336.627805 249.761965 
L 337.183895 245.911182 
L 339.408255 228.016359 
L 343.022841 196.789934 
L 346.081337 169.150334 
L 346.359382 168.245873 
L 347.193517 171.165462 
L 348.027653 175.074943 
L 348.861788 179.94692 
L 350.252013 189.726143 
L 351.920284 203.32657 
L 354.422689 225.863957 
L 359.705546 273.945676 
L 360.261636 278.292238 
L 361.095771 282.684002 
L 362.207951 287.138033 
L 363.042087 289.618966 
L 363.598177 290.8483 
L 364.154267 290.585851 
L 364.710357 290.087731 
L 365.544492 288.901574 
L 366.378628 287.2557 
L 367.212763 285.1423 
L 368.324943 281.58403 
L 369.437123 277.173164 
L 370.549304 271.906991 
L 371.939529 264.149237 
L 373.329754 255.127245 
L 374.998025 242.763463 
L 376.110205 233.296455 
L 378.890656 206.882116 
L 381.671107 180.151638 
L 381.949152 180.036155 
L 382.505242 180.775068 
L 383.061332 181.97328 
L 383.617422 183.6245 
L 384.451557 186.980145 
L 385.285693 191.452968 
L 386.119828 197.105228 
L 387.232008 206.525671 
L 388.344188 218.16659 
L 389.456369 232.043664 
L 390.846594 252.512336 
L 392.236819 273.54682 
L 393.627045 285.560966 
L 395.01727 295.421777 
L 396.12945 301.798582 
L 397.241631 306.858776 
L 398.075766 309.807653 
L 398.909901 312.063359 
L 399.187946 312.579499 
L 400.300127 309.314001 
L 401.690352 304.474643 
L 402.802532 299.725083 
L 403.914713 294.138865 
L 405.304938 285.909048 
L 406.417118 278.184949 
L 407.807344 266.320143 
L 408.919524 256.883086 
L 410.865839 245.761336 
L 413.0902 231.525509 
L 416.148696 210.246799 
L 417.538921 200.470485 
L 417.816966 199.743149 
L 418.095011 200.251045 
L 418.651102 201.876354 
L 419.207192 204.057975 
L 420.041327 208.407205 
L 420.875462 214.058221 
L 421.709597 221.038128 
L 422.821778 230.76225 
L 423.933958 237.78619 
L 425.046138 243.230394 
L 425.880273 246.359451 
L 426.436364 248.020632 
L 426.436364 248.020632 
" clip-path="url(#pdcb003729b)" style="fill: none; stroke: #ff00ff; stroke-width: 3; stroke-linecap: square"/>
   </g>
   <g id="patch_3">
    <path d="M 7.2 331.2 
L 7.2 7.2 
" style="fill: none; stroke: #000000; stroke-width: 0.8; stroke-linejoin: miter; stroke-linecap: square"/>
   </g>
   <g id="patch_4">
    <path d="M 446.4 331.2 
L 446.4 7.2 
" style="fill: none; stroke: #000000; stroke-width: 0.8; stroke-linejoin: miter; stroke-linecap: square"/>
   </g>
   <g id="patch_5">
    <path d="M 7.2 331.2 
L 446.4 331.2 
" style="fill: none; stroke: #000000; stroke-width: 0.8; stroke-linejoin: miter; stroke-linecap: square"/>
   </g>
   <g id="patch_6">
    <path d="M 7.2 7.2 
L 446.4 7.2 
" style="fill: none; stroke: #000000; stroke-width: 0.8; stroke-linejoin: miter; stroke-linecap: square"/>
   </g>
  </g>
 </g>
 <defs>
  <clipPath id="pdcb003729b">
   <rect x="7.2" y="7.2" width="439.2" height="324"/>
  </clipPath>
 </defs>
</svg>
