<?xml version="1.0" encoding="utf-8" standalone="no"?>
<!DOCTYPE svg PUBLIC "-//W3C//DTD SVG 1.1//EN"
  "http://www.w3.org/Graphics/SVG/1.1/DTD/svg11.dtd">
<svg xmlns:xlink="http://www.w3.org/1999/xlink" width="453.6pt" height="338.4pt" viewBox="0 0 453.6 338.4" xmlns="http://www.w3.org/2000/svg" version="1.1">
 <metadata>
  <rdf:RDF xmlns:dc="http://purl.org/dc/elements/1.1/" xmlns:cc="http://creativecommons.org/ns#" xmlns:rdf="http://www.w3.org/1999/02/22-rdf-syntax-ns#">
   <cc:Work>
    <dc:type rdf:resource="http://purl.org/dc/dcmitype/StillImage"/>
    <dc:date>2025-05-15T17:35:52.926237</dc:date>
    <dc:format>image/svg+xml</dc:format>
    <dc:creator>
     <cc:Agent>
      <dc:title>Matplotlib v3.10.1, https://matplotlib.org/</dc:title>
     </cc:Agent>
    </dc:creator>
   </cc:Work>
  </rdf:RDF>
 </metadata>
 <defs>
  <style type="text/css">*{stroke-linejoin: round; stroke-linecap: butt}</style>
 </defs>
 <g id="figure_1">
  <g id="patch_1">
   <path d="M 0 338.4 
L 453.6 338.4 
L 453.6 0 
L 0 0 
z
" style="fill: #ffffff"/>
  </g>
  <g id="axes_1">
   <g id="patch_2">
    <path d="M 7.2 331.2 
L 446.4 331.2 
L 446.4 7.2 
L 7.2 7.2 
z
" style="fill: #ffffff"/>
   </g>
   <g id="matplotlib.axis_1"/>
   <g id="matplotlib.axis_2"/>
   <g id="line2d_1">
    <path d="M 27.163636 228.242053 
L 27.441681 228.457684 
L 27.719727 228.487268 
L 28.275817 228.245713 
L 29.109952 227.809876 
L 29.944087 227.692149 
L 30.778222 227.63298 
L 31.334312 227.261802 
L 31.890403 226.314185 
L 32.446493 224.557724 
L 33.002583 221.847242 
L 33.836718 215.99349 
L 34.948898 205.857621 
L 36.061079 195.764757 
L 36.895214 190.270898 
L 37.451304 188.184434 
L 37.729349 187.657709 
L 38.007394 187.463733 
L 38.285439 187.58024 
L 38.563484 187.966668 
L 39.119575 189.337921 
L 40.231755 192.50925 
L 40.5098 192.945391 
L 40.787845 193.096974 
L 41.06589 192.913062 
L 41.343935 192.351873 
L 41.62198 191.396631 
L 42.17807 188.312531 
L 43.012206 181.353786 
L 44.124386 171.167898 
L 44.680476 167.577203 
L 44.958521 166.499049 
L 45.236566 165.989098 
L 45.514611 166.088831 
L 45.792656 166.814717 
L 46.070701 168.158521 
L 46.626792 172.532137 
L 47.460927 182.103461 
L 48.851152 198.724115 
L 49.407242 203.246872 
L 49.963332 205.931125 
L 50.241378 206.596622 
L 50.519423 206.862882 
L 50.797468 206.786634 
L 51.075513 206.445345 
L 51.909648 204.63917 
L 52.465738 203.581451 
L 52.743783 203.295366 
L 53.021828 203.228572 
L 53.299873 203.407604 
L 53.577918 203.842526 
L 54.134009 205.465704 
L 54.690099 207.966961 
L 55.524234 212.899935 
L 56.914459 222.950711 
L 58.02664 232.466526 
L 59.416865 246.705786 
L 64.977767 308.398771 
L 65.533857 312.662894 
L 66.089947 315.454047 
L 66.367992 316.177493 
L 66.646037 316.404104 
L 66.924082 316.115274 
L 67.202127 315.303837 
L 67.758217 312.148369 
L 68.314307 307.139603 
L 69.148443 296.934958 
L 70.538668 275.940232 
L 72.484984 242.83907 
L 74.987389 198.916261 
L 75.821524 188.504982 
L 76.377615 183.822713 
L 76.933705 181.015547 
L 77.21175 180.263737 
L 77.489795 179.894389 
L 77.76784 179.86084 
L 78.045885 180.10819 
L 78.601975 181.239413 
L 79.43611 183.851993 
L 80.548291 188.13411 
L 81.382426 192.140512 
L 82.216561 197.312297 
L 83.606787 208.036804 
L 84.440922 213.936 
L 84.997012 216.685827 
L 85.275057 217.55933 
L 85.553102 218.05891 
L 85.831147 218.170538 
L 86.109192 217.895738 
L 86.387237 217.252201 
L 86.943327 214.997075 
L 87.777463 210.008896 
L 88.889643 203.300246 
L 89.445733 201.205852 
L 89.723778 200.689192 
L 90.001823 200.593423 
L 90.279868 200.957891 
L 90.557913 201.81767 
L 91.114004 205.120756 
L 91.670094 210.625594 
L 92.226184 218.328525 
L 93.060319 233.609034 
L 94.450544 265.34306 
L 95.562725 290.071828 
L 96.39686 304.164538 
L 96.95295 310.389925 
L 97.50904 313.840781 
L 97.787085 314.556907 
L 98.06513 314.65237 
L 98.343175 314.184814 
L 98.621221 313.223015 
L 99.177311 310.127478 
L 100.011446 303.733581 
L 103.626032 273.392311 
L 104.460167 263.161742 
L 105.572347 245.803918 
L 107.518663 213.363221 
L 108.352798 203.543326 
L 108.908888 199.445426 
L 109.464978 197.4163 
L 109.743024 197.127776 
L 110.021069 197.268073 
L 110.299114 197.775278 
L 110.855204 199.589993 
L 111.967384 203.927314 
L 112.245429 204.612636 
L 112.523474 204.961854 
L 112.801519 204.90116 
L 113.079564 204.37169 
L 113.35761 203.326475 
L 113.9137 199.580538 
L 114.46979 193.636813 
L 115.303925 181.227213 
L 117.528286 143.505239 
L 118.084376 137.097313 
L 118.640466 132.952443 
L 118.918511 131.779741 
L 119.196556 131.199947 
L 119.474601 131.196287 
L 119.752646 131.737957 
L 120.030691 132.789881 
L 120.586781 136.259189 
L 121.142872 141.277257 
L 121.977007 151.166385 
L 122.811142 163.57629 
L 123.923322 184.227745 
L 125.035503 209.672183 
L 128.093998 284.439198 
L 128.928134 298.771632 
L 129.762269 308.780929 
L 130.318359 313.055116 
L 130.874449 315.499034 
L 131.152494 316.063425 
L 131.430539 316.2054 
L 131.708584 315.93609 
L 131.98663 315.267543 
L 132.54272 312.787026 
L 133.09881 308.892862 
L 133.932945 300.824548 
L 135.32317 283.971642 
L 136.435351 270.930399 
L 137.269486 263.27581 
L 137.825576 259.538107 
L 138.381666 256.868799 
L 138.937756 255.073604 
L 140.884072 250.195528 
L 141.440162 247.448446 
L 141.996252 243.521647 
L 142.830387 235.315476 
L 143.942568 221.091467 
L 145.888883 195.60067 
L 148.669334 163.481742 
L 149.503469 148.000852 
L 150.337604 127.202084 
L 151.449785 92.506566 
L 152.84001 48.242163 
L 153.3961 34.629362 
L 153.95219 25.485334 
L 154.230236 22.954188 
L 154.508281 21.927273 
L 154.786326 22.475042 
L 155.064371 24.63379 
L 155.342416 28.401687 
L 155.898506 40.585591 
L 156.454596 58.292634 
L 157.288731 92.410493 
L 159.513092 188.164609 
L 160.347227 212.649535 
L 160.903317 223.951701 
L 161.459407 231.597598 
L 162.015498 236.302742 
L 162.571588 238.994315 
L 164.239858 244.417415 
L 164.795948 247.705556 
L 165.352038 252.269183 
L 166.186174 261.20246 
L 168.132489 283.558985 
L 168.688579 287.827224 
L 169.24467 290.429739 
L 169.522715 291.074497 
L 169.80076 291.29272 
L 170.078805 291.108656 
L 170.35685 290.561344 
L 170.91294 288.567598 
L 171.747075 284.200235 
L 173.137301 276.834322 
L 173.971436 273.597725 
L 175.361661 268.905391 
L 175.917751 266.321176 
L 176.473841 262.870168 
L 177.307977 255.78607 
L 178.420157 243.366405 
L 180.088427 224.171907 
L 180.922563 217.164058 
L 181.478653 213.869511 
L 182.034743 211.538746 
L 182.868878 209.100929 
L 183.703013 206.493839 
L 184.259104 203.822701 
L 184.815194 199.944701 
L 185.371284 194.664338 
L 186.205419 184.278374 
L 188.42978 153.862533 
L 188.98587 149.485563 
L 189.263915 148.218617 
L 189.54196 147.623879 
L 189.820005 147.721782 
L 190.09805 148.513242 
L 190.376095 149.978128 
L 190.932185 154.758301 
L 191.766321 165.514833 
L 193.990681 197.901851 
L 194.824816 205.970469 
L 195.380907 209.657848 
L 195.936997 212.245418 
L 196.771132 214.846102 
L 197.883312 217.903363 
L 198.439402 219.966648 
L 198.995493 222.686891 
L 199.829628 228.314032 
L 200.663763 236.065762 
L 201.497898 246.020159 
L 202.610079 262.100668 
L 204.278349 286.819066 
L 205.112484 295.749751 
L 205.668574 299.324434 
L 205.946619 300.288216 
L 206.224664 300.685318 
L 206.50271 300.517724 
L 206.780755 299.804952 
L 207.336845 296.884787 
L 207.892935 292.322075 
L 209.005115 280.485254 
L 210.117296 268.875196 
L 210.951431 262.356253 
L 211.507521 259.345961 
L 212.063611 257.286946 
L 212.897746 255.342913 
L 213.731881 253.551988 
L 214.287972 251.730258 
L 214.844062 249.000561 
L 215.400152 245.160991 
L 216.234287 237.325692 
L 217.624513 220.891085 
L 218.736693 208.549499 
L 219.570828 201.659988 
L 220.404963 197.044817 
L 221.239099 193.906428 
L 222.351279 189.797852 
L 223.185414 185.51177 
L 225.409775 172.083795 
L 225.965865 170.448112 
L 226.24391 170.158063 
L 226.521955 170.247426 
L 226.8 170.723827 
L 227.35609 172.786807 
L 227.91218 176.129237 
L 228.746316 182.719244 
L 230.692631 198.674706 
L 233.751127 220.525702 
L 234.585262 229.214069 
L 235.697442 243.486573 
L 238.199848 278.053536 
L 239.033983 285.978045 
L 239.590073 289.292111 
L 240.146164 290.918645 
L 240.424209 291.131683 
L 240.702254 290.989251 
L 240.980299 290.541062 
L 241.536389 288.974155 
L 242.648569 285.199243 
L 243.204659 284.085709 
L 243.482704 283.891581 
L 243.76075 283.963254 
L 244.038795 284.296155 
L 244.594885 285.641789 
L 246.263155 290.864813 
L 246.5412 291.147238 
L 246.819245 291.090204 
L 247.09729 290.6533 
L 247.375336 289.815481 
L 247.931426 286.920934 
L 248.487516 282.532222 
L 249.321651 273.884877 
L 252.658192 236.362826 
L 254.604507 217.886284 
L 255.716688 209.117398 
L 256.550823 204.063646 
L 257.384958 200.411952 
L 258.219093 197.9476 
L 258.775184 196.826136 
L 259.331274 196.069446 
L 259.887364 195.703453 
L 260.165409 195.685763 
L 260.443454 195.791596 
L 260.999544 196.420189 
L 261.555634 197.641386 
L 262.111724 199.440241 
L 262.94586 202.969327 
L 264.61413 210.395019 
L 265.448265 213.006683 
L 266.282401 214.707025 
L 269.618942 220.041982 
L 270.453077 221.317162 
L 271.287212 222.21598 
L 272.121347 223.067828 
L 272.677437 223.975186 
L 273.233527 225.456542 
L 273.789618 227.715938 
L 274.345708 230.846703 
L 275.179843 237.001178 
L 277.126159 252.851417 
L 277.682249 256.056295 
L 278.238339 258.147639 
L 278.516384 258.740243 
L 278.794429 259.026632 
L 279.072474 259.011382 
L 279.350519 258.708218 
L 279.906609 257.296706 
L 280.462699 254.941236 
L 281.296835 249.961903 
L 282.13097 243.566786 
L 283.24315 233.054555 
L 284.35533 220.248463 
L 286.301646 194.121144 
L 287.413826 180.660534 
L 287.969916 175.599157 
L 288.526007 172.12131 
L 288.804052 171.045901 
L 289.082097 170.428897 
L 289.360142 170.267251 
L 289.638187 170.542965 
L 289.916232 171.225542 
L 290.472322 173.6292 
L 291.306457 178.878759 
L 292.418638 185.736246 
L 292.974728 187.794956 
L 293.252773 188.293622 
L 293.530818 188.400369 
L 293.808863 188.103 
L 294.086908 187.407309 
L 294.642998 184.901172 
L 295.477133 179.007161 
L 297.145404 165.833856 
L 297.701494 162.891883 
L 298.257584 161.216856 
L 298.535629 160.877702 
L 298.813674 160.855743 
L 299.091719 161.129323 
L 299.64781 162.409383 
L 300.481945 165.431874 
L 301.594125 169.346168 
L 302.150215 170.561875 
L 302.706305 171.164238 
L 303.262396 171.302401 
L 304.096531 171.364619 
L 304.374576 171.561341 
L 304.652621 171.942278 
L 304.930666 172.559891 
L 305.486756 174.687835 
L 306.042846 178.223632 
L 306.598936 183.274639 
L 307.433072 193.487976 
L 308.823297 214.965355 
L 310.213522 236.267058 
L 311.047658 246.522179 
L 311.881793 253.996059 
L 312.437883 257.330865 
L 312.993973 259.388965 
L 313.272018 259.970284 
L 313.550063 260.273143 
L 313.828108 260.315232 
L 314.106153 260.115766 
L 314.384199 259.691519 
L 314.940289 258.243102 
L 315.496379 256.104179 
L 316.330514 251.871471 
L 317.720739 243.209638 
L 318.83292 236.480249 
L 319.667055 232.765725 
L 320.223145 231.295044 
L 320.50119 230.896722 
L 320.779235 230.72135 
L 321.05728 230.753069 
L 321.335325 230.968395 
L 321.891416 231.816584 
L 323.003596 233.860654 
L 323.281641 234.139114 
L 323.559686 234.224817 
L 323.837731 234.076285 
L 324.115776 233.662103 
L 324.671866 231.957186 
L 325.227956 229.049982 
L 326.062092 222.674691 
L 327.174272 211.686974 
L 330.510813 177.150662 
L 331.901038 164.774612 
L 332.735173 158.967524 
L 333.291264 156.259177 
L 333.847354 154.770806 
L 334.125399 154.550295 
L 334.403444 154.705537 
L 334.681489 155.252696 
L 334.959534 156.200008 
L 335.515624 159.303323 
L 336.071714 163.977357 
L 336.90585 173.644755 
L 338.01803 190.369716 
L 342.466751 263.476801 
L 343.856976 280.378049 
L 344.969157 291.323677 
L 345.803292 297.577581 
L 346.359382 300.427293 
L 346.915472 301.918714 
L 347.193517 302.079598 
L 347.471562 301.822336 
L 347.749607 301.134727 
L 348.305698 298.479143 
L 348.861788 294.259702 
L 349.695923 285.841103 
L 351.086148 271.382553 
L 351.642239 267.381335 
L 352.198329 265.116754 
L 352.476374 264.688847 
L 352.754419 264.722397 
L 353.032464 265.187513 
L 353.588554 267.211149 
L 354.422689 271.89113 
L 355.256825 276.464364 
L 355.812915 278.346178 
L 356.09096 278.741603 
L 356.369005 278.714153 
L 356.64705 278.237143 
L 356.925095 277.297456 
L 357.481185 274.044541 
L 358.037275 269.099672 
L 358.87141 259.194379 
L 361.929906 218.676523 
L 362.764042 211.122125 
L 363.598177 205.403485 
L 366.934718 185.405327 
L 368.324943 176.092943 
L 368.881033 173.475483 
L 369.437123 171.996567 
L 369.715168 171.758672 
L 369.993213 171.878534 
L 370.271259 172.364695 
L 370.827349 174.421575 
L 371.383439 177.830494 
L 372.217574 185.04269 
L 373.329754 197.269903 
L 377.50043 245.900296 
L 378.334566 252.962129 
L 379.168701 258.401699 
L 380.002836 262.401697 
L 381.393062 267.453924 
L 382.505242 271.773098 
L 384.451557 280.079459 
L 385.007648 281.581098 
L 385.285693 282.017239 
L 385.563738 282.211368 
L 385.841783 282.150064 
L 386.119828 281.827686 
L 386.675918 280.42822 
L 387.232008 278.151134 
L 388.066143 273.639814 
L 390.568549 259.371885 
L 391.680729 252.719049 
L 392.514865 246.1998 
L 393.349 237.833202 
L 394.739225 220.824597 
L 395.851405 207.614997 
L 396.685541 200.206691 
L 397.241631 197.054272 
L 397.797721 195.451528 
L 398.075766 195.198993 
L 398.353811 195.270056 
L 398.631856 195.61531 
L 399.187946 196.877375 
L 400.022082 199.034294 
L 400.300127 199.48355 
L 400.578172 199.656177 
L 400.856217 199.477755 
L 401.134262 198.880272 
L 401.412307 197.811877 
L 401.968397 194.138223 
L 402.524487 188.39427 
L 403.358622 176.576358 
L 405.026893 150.844617 
L 405.582983 145.203141 
L 405.861028 143.426245 
L 406.139073 142.438064 
L 406.417118 142.283127 
L 406.695163 142.977294 
L 406.973208 144.512634 
L 407.529299 149.945799 
L 408.085389 158.021433 
L 409.475614 183.70163 
L 410.309749 197.700859 
L 410.865839 204.711149 
L 411.42193 209.421782 
L 411.97802 211.88034 
L 412.256065 212.38114 
L 412.53411 212.497038 
L 412.812155 212.325021 
L 413.924335 210.956818 
L 414.20238 211.013242 
L 414.480425 211.437183 
L 414.75847 212.317091 
L 415.036516 213.721284 
L 415.592606 218.287046 
L 416.148696 225.30923 
L 416.982831 240.035565 
L 418.373056 270.942446 
L 419.485237 294.214106 
L 420.319372 307.03133 
L 420.875462 312.597472 
L 421.431552 315.685995 
L 421.709597 316.348595 
L 421.987642 316.472727 
L 422.265688 316.108869 
L 422.543733 315.312072 
L 423.099823 312.660911 
L 423.933958 306.937087 
L 426.436364 286.86695 
L 426.436364 286.86695 
" clip-path="url(#p0f6a6cc91e)" style="fill: none; stroke-dasharray: 11.1,4.8; stroke-dashoffset: 0; stroke: #000000; stroke-width: 3"/>
   </g>
   <g id="line2d_2">
    <path d="M 27.163636 222.199205 
L 30.222132 224.019105 
L 32.724538 225.265921 
L 33.280628 225.452577 
L 34.948898 225.244876 
L 39.95371 224.719371 
L 42.456115 224.739806 
L 44.958521 224.969466 
L 47.182882 225.351014 
L 47.738972 225.663938 
L 50.241378 227.754368 
L 50.797468 228.259743 
L 52.743783 228.292682 
L 55.524234 228.430539 
L 57.748595 228.193254 
L 59.972955 228.192339 
L 62.197316 228.416815 
L 64.421676 228.851126 
L 66.924082 229.568167 
L 69.148443 230.253794 
L 71.928893 229.919521 
L 76.377615 228.815442 
L 78.601975 228.661725 
L 80.270246 228.781588 
L 81.660471 229.128976 
L 82.772651 229.616051 
L 83.884832 230.337363 
L 84.997012 231.328898 
L 86.109192 232.642508 
L 86.943327 233.862179 
L 88.333553 233.721272 
L 90.279868 233.299465 
L 90.835958 233.257376 
L 91.670094 233.508386 
L 92.504229 234.056461 
L 93.338364 234.859815 
L 94.450544 236.264923 
L 95.84077 238.430991 
L 98.06513 242.426718 
L 100.845581 247.361218 
L 102.235807 249.392784 
L 102.513852 249.587065 
L 103.347987 249.599875 
L 104.182122 249.383329 
L 106.128438 248.352449 
L 108.630843 246.775934 
L 111.133249 244.930415 
L 113.635655 242.800336 
L 116.13806 240.380208 
L 120.586781 235.89771 
L 121.698962 235.237093 
L 122.533097 234.908919 
L 123.645277 234.808271 
L 123.923322 234.811626 
L 125.035503 234.062255 
L 125.869638 233.719137 
L 126.703773 233.56298 
L 127.537908 233.59104 
L 128.372044 233.798436 
L 129.484224 234.349865 
L 131.152494 235.343841 
L 132.820765 235.788522 
L 134.76708 236.567782 
L 136.713396 237.43427 
L 137.269486 237.17899 
L 139.771892 235.569536 
L 142.830387 233.536141 
L 143.942568 233.05608 
L 146.166928 232.335074 
L 148.669334 231.76382 
L 151.449785 231.356043 
L 154.786326 231.079413 
L 156.176551 231.070873 
L 157.010686 230.860122 
L 164.795948 229.778613 
L 166.742264 229.108236 
L 168.410534 228.292072 
L 169.80076 227.415214 
L 170.91294 226.179988 
L 172.58121 224.378998 
L 173.415346 223.044649 
L 174.805571 221.261958 
L 176.751887 219.593641 
L 178.698202 218.221777 
L 180.366473 217.28453 
L 182.034743 216.572064 
L 183.703013 216.091088 
L 185.371284 215.848618 
L 187.039554 215.853803 
L 188.707825 216.115488 
L 192.878501 217.265621 
L 197.049177 218.901914 
L 201.219853 220.472634 
L 203.722259 221.1912 
L 205.946619 221.590742 
L 207.0588 221.668515 
L 207.892935 221.375416 
L 211.229476 220.12982 
L 214.566017 219.136759 
L 217.624513 218.447778 
L 221.517144 217.824675 
L 224.853684 217.538285 
L 227.078045 218.08941 
L 235.419397 220.506488 
L 237.365713 220.701074 
L 239.033983 220.63672 
L 240.424209 220.38571 
L 242.926614 219.812931 
L 245.150975 219.515257 
L 247.653381 219.016592 
L 250.433831 218.222082 
L 253.770372 217.03169 
L 259.331274 214.96993 
L 260.999544 215.748885 
L 262.667815 216.299094 
L 264.336085 216.628488 
L 266.282401 216.75811 
L 268.228716 216.654412 
L 270.453077 216.303974 
L 277.126159 215.000429 
L 279.072474 214.775039 
L 280.740744 214.358722 
L 282.68706 213.641681 
L 284.911421 212.552242 
L 287.413826 211.037641 
L 290.194277 209.084459 
L 293.252773 206.852207 
L 293.808863 206.666466 
L 296.589314 206.415151 
L 306.320891 205.318697 
L 308.545252 205.395555 
L 311.047658 205.727084 
L 313.272018 206.20867 
L 320.223145 208.068524 
L 321.891416 208.333564 
L 333.847354 207.618352 
L 336.071714 207.492695 
L 340.24239 207.592123 
L 342.744796 207.773594 
L 350.252013 208.811184 
L 352.198329 207.650987 
L 354.144644 206.226054 
L 356.369005 204.297577 
L 357.75923 203.193498 
L 358.31532 203.556136 
L 359.149456 204.362235 
L 360.261636 205.818277 
L 361.373816 207.680266 
L 362.764042 210.513966 
L 364.432312 214.560628 
L 366.100582 219.203553 
L 366.934718 221.506259 
L 368.602988 225.396458 
L 369.993213 228.193559 
L 371.383439 230.502059 
L 372.495619 231.943766 
L 373.051709 232.436637 
L 374.441935 232.643118 
L 376.110205 232.642203 
L 381.115016 232.325009 
L 382.783287 232.183797 
L 384.451557 231.680557 
L 386.675918 230.72928 
L 387.232008 230.434656 
L 391.402684 227.190128 
L 393.070955 226.194628 
L 394.46118 225.621544 
L 395.57336 225.377854 
L 396.685541 225.362604 
L 397.797721 225.611784 
L 398.909901 225.987232 
L 400.300127 225.992112 
L 403.914713 225.947888 
L 405.861028 226.190358 
L 407.529299 226.645714 
L 409.475614 227.439919 
L 410.309749 228.148725 
L 411.42193 229.471179 
L 413.0902 231.921502 
L 415.314561 235.172739 
L 416.426741 236.404305 
L 416.982831 236.827027 
L 417.538921 237.054857 
L 417.816966 237.104876 
L 418.651102 238.138806 
L 420.319372 240.116998 
L 422.265688 242.053406 
L 424.768093 244.17708 
L 426.436364 245.508379 
L 426.436364 245.508379 
" clip-path="url(#p0f6a6cc91e)" style="fill: none; stroke: #ff00ff; stroke-width: 3; stroke-linecap: square"/>
   </g>
   <g id="patch_3">
    <path d="M 7.2 331.2 
L 7.2 7.2 
" style="fill: none; stroke: #000000; stroke-width: 0.8; stroke-linejoin: miter; stroke-linecap: square"/>
   </g>
   <g id="patch_4">
    <path d="M 446.4 331.2 
L 446.4 7.2 
" style="fill: none; stroke: #000000; stroke-width: 0.8; stroke-linejoin: miter; stroke-linecap: square"/>
   </g>
   <g id="patch_5">
    <path d="M 7.2 331.2 
L 446.4 331.2 
" style="fill: none; stroke: #000000; stroke-width: 0.8; stroke-linejoin: miter; stroke-linecap: square"/>
   </g>
   <g id="patch_6">
    <path d="M 7.2 7.2 
L 446.4 7.2 
" style="fill: none; stroke: #000000; stroke-width: 0.8; stroke-linejoin: miter; stroke-linecap: square"/>
   </g>
  </g>
 </g>
 <defs>
  <clipPath id="p0f6a6cc91e">
   <rect x="7.2" y="7.2" width="439.2" height="324"/>
  </clipPath>
 </defs>
</svg>
