<?xml version="1.0" encoding="utf-8" standalone="no"?>
<!DOCTYPE svg PUBLIC "-//W3C//DTD SVG 1.1//EN"
  "http://www.w3.org/Graphics/SVG/1.1/DTD/svg11.dtd">
<svg xmlns:xlink="http://www.w3.org/1999/xlink" width="453.6pt" height="338.4pt" viewBox="0 0 453.6 338.4" xmlns="http://www.w3.org/2000/svg" version="1.1">
 <metadata>
  <rdf:RDF xmlns:dc="http://purl.org/dc/elements/1.1/" xmlns:cc="http://creativecommons.org/ns#" xmlns:rdf="http://www.w3.org/1999/02/22-rdf-syntax-ns#">
   <cc:Work>
    <dc:type rdf:resource="http://purl.org/dc/dcmitype/StillImage"/>
    <dc:date>2025-05-15T09:38:18.321121</dc:date>
    <dc:format>image/svg+xml</dc:format>
    <dc:creator>
     <cc:Agent>
      <dc:title>Matplotlib v3.10.1, https://matplotlib.org/</dc:title>
     </cc:Agent>
    </dc:creator>
   </cc:Work>
  </rdf:RDF>
 </metadata>
 <defs>
  <style type="text/css">*{stroke-linejoin: round; stroke-linecap: butt}</style>
 </defs>
 <g id="figure_1">
  <g id="patch_1">
   <path d="M 0 338.4 
L 453.6 338.4 
L 453.6 0 
L 0 0 
z
" style="fill: #ffffff"/>
  </g>
  <g id="axes_1">
   <g id="patch_2">
    <path d="M 7.2 331.2 
L 446.4 331.2 
L 446.4 7.2 
L 7.2 7.2 
z
" style="fill: #ffffff"/>
   </g>
   <g id="matplotlib.axis_1"/>
   <g id="matplotlib.axis_2"/>
   <g id="line2d_1">
    <path d="M 27.163636 87.183779 
L 29.293091 135.957365 
L 30.624 161.95147 
L 31.688727 178.779425 
L 32.487273 188.487133 
L 33.285818 195.311495 
L 33.818182 198.099686 
L 34.084364 198.931933 
L 34.350545 199.360771 
L 34.616727 199.392241 
L 34.882909 199.002939 
L 35.149091 198.194227 
L 35.681455 195.255122 
L 36.213818 190.498459 
L 36.746182 183.837151 
L 37.544727 170.154579 
L 38.343273 151.865827 
L 38.875636 137.056739 
L 39.141818 136.131523 
L 39.674182 141.004162 
L 40.206545 144.153899 
L 40.738909 145.781085 
L 41.005091 146.112038 
L 41.271273 146.129472 
L 41.537455 145.888705 
L 42.069818 144.727919 
L 42.602182 142.859545 
L 44.199273 136.327065 
L 46.328727 131.410306 
L 47.127273 130.118902 
L 47.659636 129.635753 
L 47.925818 129.551641 
L 48.192 129.590265 
L 48.458182 129.764563 
L 48.990545 130.58158 
L 49.522909 132.132905 
L 50.055273 134.625475 
L 50.587636 138.159045 
L 51.12 143.000329 
L 51.652364 149.283158 
L 51.918545 149.357299 
L 52.983273 132.651869 
L 53.781818 123.466512 
L 54.314182 119.061274 
L 54.846545 116.123564 
L 55.112727 115.213605 
L 55.378909 114.721608 
L 55.645091 114.597222 
L 55.911273 114.918308 
L 56.177455 115.621894 
L 56.709818 118.337744 
L 57.242182 122.790438 
L 57.774545 129.025163 
L 58.573091 141.841456 
L 59.371636 158.917288 
L 60.170182 180.36042 
L 60.702545 193.71232 
L 62.033455 222.099925 
L 63.364364 253.698511 
L 63.630545 255.739648 
L 66.026182 242.866086 
L 68.155636 230.080025 
L 70.018909 217.571889 
L 72.148364 201.651514 
L 74.544 181.750649 
L 76.939636 160.187731 
L 77.472 153.432321 
L 78.536727 136.970695 
L 79.867636 112.398193 
L 80.666182 95.249713 
L 80.932364 99.100261 
L 81.730909 117.084472 
L 82.529455 129.277552 
L 83.061818 134.243222 
L 83.594182 136.831193 
L 83.860364 137.283777 
L 84.126545 137.154966 
L 84.392727 136.507912 
L 84.658909 135.36082 
L 85.191273 131.625002 
L 85.723636 126.148866 
L 86.522182 115.167941 
L 87.586909 96.779725 
L 90.781091 38.27013 
L 91.579636 28.557436 
L 91.845818 26.16046 
L 92.112 27.413188 
L 93.442909 86.236969 
L 94.241455 110.714704 
L 94.773818 120.834984 
L 95.306182 126.058626 
L 95.572364 127.148327 
L 95.838545 127.400102 
L 96.104727 126.922518 
L 96.370909 125.788857 
L 96.903273 122.023 
L 97.701818 113.998272 
L 99.298909 97.250531 
L 99.831273 93.455724 
L 100.363636 91.30803 
L 100.629818 90.974584 
L 100.896 91.191175 
L 101.162182 92.004101 
L 101.428364 93.446578 
L 101.960727 98.375608 
L 102.226909 101.957404 
L 103.557818 110.398375 
L 104.356364 119.207553 
L 105.421091 134.2168 
L 107.550545 169.138465 
L 109.413818 198.135747 
L 110.212364 208.667494 
L 110.478545 210.839539 
L 111.277091 214.762296 
L 113.938909 229.32256 
L 114.471273 231.06042 
L 114.737455 231.578892 
L 115.003636 231.815709 
L 115.269818 231.733897 
L 115.536 231.295894 
L 115.802182 230.463577 
L 116.334545 227.353035 
L 116.866909 222.11957 
L 117.133091 218.326572 
L 118.464 188.940735 
L 119.262545 177.174061 
L 119.794909 172.030651 
L 120.327273 169.007724 
L 120.593455 168.26332 
L 120.859636 168.008473 
L 121.125818 168.226013 
L 121.392 168.899015 
L 121.924364 171.51462 
L 122.456727 175.665292 
L 123.255273 184.298346 
L 124.32 199.14353 
L 126.981818 241.63468 
L 128.046545 262.744243 
L 128.312727 266.379103 
L 128.578909 265.635999 
L 128.845091 264.03096 
L 129.377455 258.748083 
L 130.176 246.925357 
L 131.506909 221.575449 
L 133.636364 180.369514 
L 134.701091 163.863524 
L 135.499636 154.318106 
L 136.298182 147.493366 
L 136.830545 144.620896 
L 137.362909 143.099715 
L 137.629091 142.857438 
L 137.895273 142.966164 
L 138.161455 143.429632 
L 138.427636 144.25088 
L 138.96 146.978546 
L 139.492364 151.169264 
L 140.024727 156.841346 
L 140.823273 168.164057 
L 142.154182 189.001093 
L 143.218909 201.37028 
L 143.751273 205.566784 
L 145.082182 208.561068 
L 146.413091 210.990611 
L 148.010182 213.443109 
L 149.873455 215.994791 
L 157.060364 225.026188 
L 157.858909 225.707099 
L 158.923636 226.239203 
L 159.722182 226.259156 
L 160.254545 226.066239 
L 160.786909 225.478604 
L 161.585455 224.141342 
L 162.650182 221.756629 
L 164.513455 216.79483 
L 167.175273 209.074185 
L 169.304727 202.377238 
L 171.168 195.740263 
L 172.765091 189.179254 
L 174.362182 181.696154 
L 175.426909 176.281377 
L 175.959273 177.992868 
L 178.354909 185.964463 
L 179.419636 188.639311 
L 179.952 190.397546 
L 180.484364 192.746619 
L 181.016727 195.88548 
L 181.549091 200.031509 
L 182.347636 208.558988 
L 183.146182 220.425706 
L 183.944727 236.257711 
L 184.743273 256.631612 
L 185.541818 282.122769 
L 186.074182 299.036245 
L 186.340364 293.993143 
L 187.405091 266.936256 
L 188.469818 245.382414 
L 189.534545 228.649382 
L 190.599273 216.11463 
L 191.397818 209.090706 
L 192.196364 203.836209 
L 192.994909 200.097152 
L 193.527273 198.334221 
L 194.325818 197.960904 
L 195.656727 197.045871 
L 197.253818 195.986358 
L 198.318545 195.595845 
L 199.117091 195.519862 
L 199.915636 195.611418 
L 200.181818 194.707936 
L 200.980364 188.10179 
L 201.778909 183.46523 
L 202.311273 181.381546 
L 202.843636 179.972145 
L 203.376 179.131314 
L 203.908364 178.712544 
L 204.706909 178.511885 
L 205.505455 178.329791 
L 206.037818 177.946134 
L 206.570182 177.18937 
L 207.102545 175.905901 
L 207.634909 174.031962 
L 208.433455 169.914189 
L 209.232 164.201113 
L 210.296727 155.631298 
L 210.562909 155.494762 
L 211.095273 154.797989 
L 211.627636 153.551581 
L 212.16 151.756346 
L 212.958545 147.898372 
L 213.757091 142.527626 
L 214.555636 135.326866 
L 215.354182 126.074743 
L 216.152727 114.40649 
L 216.951273 100.106692 
L 217.217455 94.68979 
L 217.483636 92.96443 
L 217.749818 96.726353 
L 218.814545 122.77957 
L 219.613091 138.282957 
L 220.411636 150.295471 
L 221.210182 158.975628 
L 221.742545 163.059552 
L 222.274909 165.877527 
L 222.807273 167.576834 
L 223.339636 168.369448 
L 223.605818 168.455034 
L 223.872 168.336038 
L 224.404364 167.712334 
L 225.202909 165.930969 
L 227.066182 160.316699 
L 227.864727 157.246528 
L 229.195636 151.02676 
L 230.526545 143.643398 
L 232.123636 133.461529 
L 234.519273 116.353394 
L 239.842909 77.517697 
L 241.706182 65.775427 
L 243.303273 57.044602 
L 243.835636 55.486676 
L 244.900364 52.574283 
L 245.965091 48.981496 
L 247.562182 42.630811 
L 248.360727 39.183127 
L 248.626909 38.743465 
L 252.885818 111.428717 
L 254.482909 133.942308 
L 255.813818 149.495203 
L 256.878545 159.533444 
L 257.943273 167.461209 
L 258.741818 172.041659 
L 259.540364 175.528222 
L 260.072727 177.277257 
L 261.403636 178.880057 
L 262.468364 179.778693 
L 263.266909 180.253889 
L 264.331636 180.578048 
L 265.396364 180.605348 
L 266.461091 180.374544 
L 269.655273 179.407044 
L 270.187636 179.546265 
L 270.72 179.908925 
L 271.252364 180.593954 
L 271.784727 181.685559 
L 272.317091 183.28412 
L 272.849455 185.587854 
L 273.381818 188.711608 
L 273.914182 192.851992 
L 274.446545 198.23731 
L 275.245091 207.658096 
L 275.511273 207.168153 
L 276.309818 202.749326 
L 276.842182 201.046823 
L 277.374545 200.336497 
L 277.906909 199.965848 
L 278.439273 199.980367 
L 278.971636 200.295213 
L 279.504 200.966504 
L 280.036364 201.912313 
L 280.834909 203.905503 
L 281.633455 206.523767 
L 282.698182 210.92546 
L 283.762909 216.319775 
L 285.093818 224.366686 
L 286.424727 233.753676 
L 288.021818 246.583303 
L 290.151273 265.753814 
L 294.144 302.964508 
L 294.410182 304.815776 
L 295.208727 299.100644 
L 296.007273 294.711768 
L 296.805818 291.329641 
L 297.604364 288.706874 
L 298.669091 286.034378 
L 299.733818 283.976131 
L 302.661818 278.844534 
L 303.460364 276.814949 
L 304.258909 274.064504 
L 305.057455 270.20926 
L 305.856 264.750776 
L 306.654545 256.97593 
L 307.453091 245.953015 
L 308.251636 230.477008 
L 309.050182 208.854574 
L 309.316364 201.627111 
L 310.114909 193.818571 
L 311.179636 186.471075 
L 311.978182 182.137054 
L 312.776727 178.782488 
L 313.575273 176.38761 
L 314.107636 175.31587 
L 314.64 174.662355 
L 315.172364 174.426732 
L 315.704727 174.61052 
L 316.237091 175.2168 
L 316.769455 176.250583 
L 317.301818 177.718709 
L 318.100364 180.761239 
L 318.898909 184.827825 
L 319.697455 189.985631 
L 319.963636 191.94859 
L 320.229818 190.662865 
L 320.762182 174.068338 
L 321.294545 162.289428 
L 321.826909 154.933997 
L 322.093091 152.777455 
L 322.359273 151.60071 
L 322.625455 151.325463 
L 322.891636 151.873587 
L 323.157818 153.263799 
L 323.690182 158.144988 
L 324.222545 165.496187 
L 325.021091 180.072137 
L 326.884364 216.548042 
L 329.812364 238.684831 
L 330.344727 240.875082 
L 330.610909 241.490341 
L 330.877091 241.727457 
L 331.143273 241.541667 
L 331.409455 240.88781 
L 331.675636 239.720028 
L 332.208 235.500122 
L 332.740364 228.634617 
L 333.272727 213.569944 
L 334.603636 175.034767 
L 335.668364 150.740944 
L 336.466909 136.471764 
L 337.265455 125.496878 
L 338.064 117.630279 
L 338.596364 114.024167 
L 339.128727 111.567307 
L 339.661091 110.175603 
L 339.927273 109.855973 
L 340.193455 109.755095 
L 340.459636 109.857905 
L 340.725818 110.148795 
L 341.258182 111.228506 
L 341.790545 112.856921 
L 342.589091 116.06145 
L 343.387636 119.292701 
L 344.186182 120.660861 
L 344.984727 122.545545 
L 345.783273 125.019593 
L 346.581818 128.149123 
L 347.646545 133.505736 
L 348.711273 140.393011 
L 349.776 148.979558 
L 350.840727 159.43555 
L 351.905455 171.862761 
L 352.171636 175.293046 
L 352.437818 175.009987 
L 353.236364 160.582536 
L 354.034909 149.427875 
L 354.833455 141.498091 
L 355.365818 138.092577 
L 355.898182 136.110719 
L 356.164364 135.633487 
L 356.430545 135.48956 
L 356.696727 135.670811 
L 356.962909 136.167566 
L 357.495273 138.065487 
L 358.027636 141.087871 
L 358.826182 147.489258 
L 359.890909 158.889023 
L 360.955636 180.945079 
L 363.085091 226.070751 
L 363.883636 238.486936 
L 364.416 244.143354 
L 364.948364 247.168458 
L 365.214545 247.506693 
L 365.480727 247.100437 
L 365.746909 245.706955 
L 366.013091 243.460744 
L 366.545455 237.869605 
L 367.077818 240.825336 
L 367.610182 242.52883 
L 367.876364 242.885275 
L 368.142545 242.949681 
L 368.408727 242.748775 
L 368.941091 241.65322 
L 369.473455 239.815929 
L 370.272 236.144332 
L 372.135273 227.203772 
L 372.667636 225.572074 
L 373.2 224.778723 
L 373.466182 224.785728 
L 373.732364 225.065013 
L 373.998545 225.70479 
L 374.264727 226.677391 
L 374.797091 229.869139 
L 375.329455 234.898907 
L 375.861818 242.035007 
L 376.660364 254.987274 
L 377.458909 259.621279 
L 378.257455 265.554445 
L 379.056 273.083231 
L 379.588364 279.11548 
L 379.854545 280.292797 
L 381.717818 246.917096 
L 382.782545 231.302012 
L 383.581091 221.866532 
L 384.379636 214.730221 
L 384.912 211.290262 
L 385.444364 208.92479 
L 385.976727 207.614416 
L 386.242909 207.340152 
L 386.509091 207.308085 
L 386.775273 207.507016 
L 387.041455 207.931869 
L 387.573818 209.391462 
L 388.372364 212.759266 
L 390.768 224.511912 
L 391.300364 225.565938 
L 391.566545 225.568562 
L 391.832727 225.19744 
L 392.098909 224.372234 
L 392.631273 221.10379 
L 393.429818 214.186758 
L 394.494545 209.45061 
L 395.559273 203.634812 
L 396.624 196.757913 
L 397.954909 186.426237 
L 399.019636 177.917903 
L 399.552 175.146381 
L 400.616727 171.119998 
L 401.681455 167.997342 
L 402.48 166.155952 
L 403.544727 164.395058 
L 404.343273 163.509431 
L 404.875636 163.1138 
L 405.674182 162.800913 
L 406.206545 162.746699 
L 407.005091 162.917135 
L 407.803636 163.331112 
L 408.868364 164.208838 
L 409.666909 165.072976 
L 409.933091 165.951738 
L 410.731636 171.519298 
L 412.062545 183.431487 
L 414.192 202.777697 
L 415.522909 212.859503 
L 416.587636 219.453632 
L 417.652364 224.738949 
L 418.717091 228.813059 
L 419.515636 231.15023 
L 420.314182 232.866215 
L 421.112727 234.040994 
L 421.645091 234.512722 
L 422.177455 234.736494 
L 422.709818 234.703725 
L 422.976 234.614619 
L 423.508364 234.170489 
L 424.306909 232.896456 
L 424.839273 231.634449 
L 425.637818 228.954484 
L 426.170182 226.577846 
L 426.436364 225.188039 
L 426.436364 225.188039 
" clip-path="url(#p2c0ced4b3c)" style="fill: none; stroke: #ffa500; stroke-width: 3; stroke-linecap: square"/>
   </g>
   <g id="line2d_2">
    <path d="M 27.163636 310.237048 
L 27.962182 280.542355 
L 28.760727 259.316239 
L 29.559273 244.84805 
L 30.091636 238.232423 
L 30.624 233.602131 
L 31.156364 230.644907 
L 31.688727 229.118328 
L 31.954909 228.793431 
L 32.221091 228.761716 
L 32.487273 228.963411 
L 33.019636 229.993341 
L 33.552 231.752085 
L 34.350545 235.477826 
L 35.415273 241.883225 
L 37.012364 253.396548 
L 39.408 272.806061 
L 41.803636 293.985102 
L 42.336 298.89764 
L 42.602182 299.528257 
L 42.868364 299.303401 
L 43.933091 293.507976 
L 45.264 291.292889 
L 46.594909 288.593421 
L 47.659636 285.883456 
L 48.724364 282.510726 
L 49.789091 278.290401 
L 50.853818 272.960021 
L 51.918545 266.339198 
L 52.983273 258.141952 
L 54.048 248.187082 
L 55.112727 236.349354 
L 56.443636 219.021002 
L 60.170182 167.668162 
L 60.436364 165.291674 
L 61.767273 164.196057 
L 63.630545 162.550472 
L 65.227636 161.442092 
L 65.76 161.229029 
L 66.558545 161.191423 
L 67.090909 161.379907 
L 67.889455 162.275014 
L 68.421818 163.287766 
L 68.954182 164.771429 
L 69.752727 168.147747 
L 70.285091 171.281253 
L 71.083636 177.779103 
L 71.882182 186.937151 
L 72.680727 199.520323 
L 73.479273 216.53405 
L 74.277818 239.124027 
L 75.342545 273.192124 
L 75.608727 272.807036 
L 76.141091 271.439911 
L 76.673455 269.23795 
L 78.004364 261.691915 
L 79.867636 249.421157 
L 83.594182 222.969593 
L 85.989818 204.677075 
L 88.651636 182.515813 
L 90.514909 167.392529 
L 91.313455 162.065954 
L 92.112 158.247042 
L 92.644364 156.983149 
L 92.910545 156.885255 
L 93.176727 157.173546 
L 93.442909 157.663647 
L 93.709091 156.582602 
L 94.507636 156.421716 
L 95.306182 155.931721 
L 96.104727 155.139265 
L 96.903273 153.952303 
L 97.701818 152.341023 
L 98.500364 150.22198 
L 99.298909 147.557341 
L 100.363636 143.058299 
L 101.428364 137.369118 
L 102.493091 130.489989 
L 103.824 120.284841 
L 105.421091 106.095893 
L 109.946182 64.201033 
L 111.809455 51.047975 
L 112.341818 49.657764 
L 112.608 49.555253 
L 112.874182 49.851199 
L 113.140364 50.624992 
L 113.406545 51.83943 
L 113.938909 55.819947 
L 116.334545 79.424625 
L 117.931636 97.746443 
L 119.528727 118.968331 
L 121.658182 150.808097 
L 124.053818 186.104992 
L 125.118545 199.019863 
L 125.917091 206.710215 
L 126.715636 212.187089 
L 126.981818 213.456891 
L 128.578909 263.97122 
L 128.845091 257.010591 
L 129.643636 222.466333 
L 130.442182 197.282731 
L 131.240727 179.462434 
L 132.039273 167.31435 
L 132.837818 159.324489 
L 133.636364 154.247055 
L 134.434909 151.033554 
L 135.233455 148.873149 
L 137.629091 143.328333 
L 138.427636 140.813238 
L 139.492364 136.745115 
L 141.355636 128.265328 
L 142.952727 121.268747 
L 143.751273 118.095152 
L 144.549818 112.238676 
L 145.348364 103.840245 
L 146.146909 92.015565 
L 146.945455 75.783523 
L 147.744 53.858419 
L 148.808727 21.927273 
L 150.139636 62.27144 
L 151.204364 87.424564 
L 152.002909 101.465267 
L 152.801455 111.187143 
L 153.333818 115.331636 
L 153.866182 117.682685 
L 154.132364 118.205598 
L 154.398545 118.365571 
L 154.664727 118.117659 
L 154.930909 117.548572 
L 155.463273 115.437079 
L 155.995636 112.268926 
L 156.794182 106.125019 
L 158.923636 88.757875 
L 159.456 85.935019 
L 159.988364 84.382781 
L 160.254545 85.63888 
L 162.117818 123.49146 
L 162.916364 135.695566 
L 163.714909 144.596036 
L 164.247273 148.415053 
L 164.779636 150.39498 
L 165.045818 150.630287 
L 165.312 150.358358 
L 165.578182 149.534108 
L 166.110545 146.17015 
L 166.642909 140.415887 
L 167.175273 132.128762 
L 167.973818 114.600276 
L 168.772364 90.596702 
L 169.570909 59.710892 
L 170.103273 36.359165 
L 171.168 101.997134 
L 172.232727 153.262815 
L 173.031273 182.492612 
L 173.829818 204.003476 
L 174.362182 214.188961 
L 174.894545 221.080063 
L 175.426909 224.829443 
L 175.693091 225.561742 
L 175.959273 225.524786 
L 176.225455 224.736421 
L 176.491636 223.261483 
L 177.024 218.125386 
L 177.556364 210.368715 
L 178.354909 194.107556 
L 179.153455 172.792962 
L 180.218182 137.258689 
L 180.750545 119.406694 
L 181.549091 103.709679 
L 182.081455 96.610113 
L 182.613818 91.823008 
L 183.146182 88.8748 
L 183.678545 87.538504 
L 183.944727 87.358219 
L 184.210909 87.455691 
L 184.477091 87.801269 
L 185.009455 89.135616 
L 185.808 92.333 
L 187.138909 99.268994 
L 188.736 107.644901 
L 189.800727 112.110884 
L 190.599273 114.594097 
L 191.397818 116.205833 
L 191.930182 116.804941 
L 192.462545 117.049746 
L 192.994909 116.898639 
L 193.527273 116.430167 
L 194.059636 115.717049 
L 194.592 114.675154 
L 195.390545 112.367135 
L 195.922909 110.289175 
L 196.721455 106.193295 
L 197.52 100.775516 
L 198.318545 93.820368 
L 199.117091 85.095425 
L 199.649455 78.198196 
L 199.915636 77.671051 
L 200.448 78.849657 
L 201.246545 81.695319 
L 202.045091 85.782227 
L 202.843636 91.076621 
L 203.908364 99.978443 
L 204.973091 110.884982 
L 206.304 127.120904 
L 207.901091 149.855704 
L 210.296727 187.096316 
L 211.095273 192.22949 
L 212.16 200.759138 
L 213.490909 213.80425 
L 215.088 232.144371 
L 219.346909 283.369581 
L 220.411636 293.207965 
L 221.210182 298.903257 
L 221.742545 301.543548 
L 222.008727 301.961406 
L 222.274909 301.767841 
L 222.541091 301.300923 
L 223.073455 299.586669 
L 223.605818 296.905697 
L 224.404364 291.285943 
L 225.469091 281.355933 
L 227.066182 264.72445 
L 227.864727 258.720313 
L 228.663273 251.115619 
L 229.728 238.757356 
L 233.188364 195.306878 
L 233.720727 191.478415 
L 234.253091 189.583645 
L 234.519273 189.52298 
L 234.785455 190.105321 
L 235.051636 191.432506 
L 235.584 196.561607 
L 236.116364 205.470926 
L 236.648727 218.725714 
L 237.181091 233.134493 
L 237.713455 232.996202 
L 238.512 232.415976 
L 239.576727 231.616322 
L 240.109091 231.503541 
L 240.641455 231.752234 
L 241.173818 232.483234 
L 241.706182 233.808917 
L 242.238545 235.839116 
L 242.770909 238.653265 
L 243.303273 242.315267 
L 243.835636 247.283816 
L 244.634182 257.455871 
L 245.432727 271.226466 
L 246.231273 289.164212 
L 247.296 316.472727 
L 248.893091 219.996297 
L 249.425455 200.578483 
L 249.957818 186.931348 
L 250.490182 178.066087 
L 251.022545 173.103033 
L 251.288727 171.757774 
L 251.554909 171.00741 
L 251.821091 170.765704 
L 252.087273 170.881119 
L 252.619636 171.711531 
L 253.152 172.554364 
L 253.418182 172.689486 
L 253.684364 172.469137 
L 253.950545 171.765148 
L 254.216727 170.490105 
L 254.482909 168.541411 
L 255.015273 162.009616 
L 255.547636 151.408925 
L 256.08 135.803273 
L 256.612364 114.394341 
L 256.878545 101.294813 
L 257.144727 95.619097 
L 257.677091 98.16416 
L 258.209455 101.823345 
L 259.008 108.901105 
L 262.734545 145.322462 
L 263.533091 150.60562 
L 264.331636 154.443879 
L 264.864 156.16643 
L 265.396364 157.168718 
L 265.662545 157.406185 
L 265.928727 157.465683 
L 266.194909 157.345826 
L 266.461091 157.045614 
L 266.993455 155.900857 
L 267.525818 154.024898 
L 268.058182 151.412823 
L 268.856727 146.13523 
L 270.453818 133.878596 
L 271.252364 130.336565 
L 272.050909 127.863728 
L 272.583273 126.769585 
L 273.115636 126.090298 
L 273.648 125.789278 
L 274.180364 125.848671 
L 274.712727 126.266703 
L 275.245091 127.034773 
L 275.777455 128.128266 
L 276.842182 130.831055 
L 277.640727 130.987657 
L 278.439273 131.345717 
L 279.237818 131.963979 
L 280.036364 132.845848 
L 280.834909 134.056599 
L 281.633455 135.661506 
L 282.432 137.723702 
L 283.230545 140.353843 
L 284.029091 143.624507 
L 284.827636 147.642911 
L 285.892364 154.341789 
L 286.957091 162.80416 
L 288.021818 173.222003 
L 289.086545 185.754876 
L 290.417455 204.441233 
L 291.482182 221.449561 
L 293.345455 218.103686 
L 294.676364 215.353776 
L 295.741091 212.709871 
L 296.805818 209.499012 
L 297.870545 205.585876 
L 298.935273 200.851817 
L 300 195.191454 
L 301.064727 188.505418 
L 302.129455 180.679584 
L 302.395636 182.578875 
L 303.194182 203.119035 
L 303.992727 218.431541 
L 304.791273 228.887304 
L 305.323636 233.34221 
L 305.856 235.843251 
L 306.122182 236.399319 
L 306.388364 236.490656 
L 306.654545 236.16906 
L 306.920727 235.379379 
L 307.453091 232.571147 
L 307.985455 228.070183 
L 308.784 218.381839 
L 309.582545 205.265939 
L 309.848727 200.144922 
L 310.114909 197.379273 
L 310.913455 196.692349 
L 311.712 195.661734 
L 312.510545 194.203185 
L 313.309091 192.148135 
L 314.107636 189.445381 
L 314.906182 185.92267 
L 315.704727 181.407784 
L 316.503273 175.707322 
L 317.301818 168.627665 
L 318.100364 159.903267 
L 318.898909 149.252944 
L 319.963636 131.505391 
L 321.028364 108.948612 
L 322.093091 80.742416 
L 322.359273 72.897201 
L 323.690182 64.24545 
L 324.754909 58.933482 
L 325.553455 55.999635 
L 326.352 53.842969 
L 326.618182 53.249304 
L 329.28 52.998249 
L 331.941818 52.512169 
L 334.603636 51.793221 
L 336.733091 51.001381 
L 338.330182 50.205379 
L 339.661091 49.326003 
L 340.725818 48.420239 
L 341.790545 47.26221 
L 342.855273 45.765572 
L 343.387636 44.995975 
L 346.049455 42.777546 
L 348.178909 40.77592 
L 350.574545 38.230962 
L 352.970182 35.320061 
L 354.833455 32.742589 
L 356.696727 29.826456 
L 357.229091 28.923555 
L 357.495273 28.778487 
L 358.293818 29.549488 
L 359.092364 32.39573 
L 359.890909 35.369868 
L 361.488 50.906068 
L 365.746909 93.641294 
L 367.610182 109.605867 
L 369.473455 123.610491 
L 371.336727 136.012281 
L 373.2 146.904915 
L 374.530909 153.501089 
L 375.595636 157.791703 
L 376.394182 160.267331 
L 376.660364 162.192904 
L 378.523636 186.286629 
L 380.386909 207.317346 
L 381.984 222.935217 
L 383.581091 236.324187 
L 384.912 245.724885 
L 386.242909 253.418642 
L 387.307636 258.207503 
L 388.106182 260.943381 
L 388.904727 262.835426 
L 389.437091 263.605738 
L 389.969455 263.946005 
L 390.235636 263.9325 
L 390.501818 263.794547 
L 391.034182 263.134528 
L 391.566545 261.924106 
L 392.098909 260.113119 
L 392.631273 257.64608 
L 393.696 251.043831 
L 394.494545 244.19895 
L 395.026909 238.267931 
L 395.293091 234.249536 
L 395.825455 218.495963 
L 397.156364 179.152109 
L 398.221091 154.204991 
L 399.019636 140.306019 
L 399.552 133.571923 
L 400.084364 129.004377 
L 400.616727 126.67975 
L 400.882909 126.372691 
L 401.149091 126.644339 
L 401.415273 127.51822 
L 401.947636 130.975701 
L 402.48 136.762899 
L 403.012364 144.832291 
L 403.810909 161.042019 
L 404.609455 181.935797 
L 405.674182 216.271873 
L 405.940364 225.883917 
L 406.206545 219.719575 
L 407.005091 189.023776 
L 407.537455 174.74709 
L 408.069818 164.651625 
L 408.602182 158.095128 
L 409.134545 154.402042 
L 409.400727 153.415555 
L 409.666909 152.885847 
L 409.933091 152.715744 
L 410.199273 152.792711 
L 410.731636 153.346331 
L 411.264 153.967542 
L 411.530182 154.153358 
L 411.796364 154.16728 
L 412.062545 153.982535 
L 412.328727 153.540626 
L 412.861091 151.735173 
L 413.393455 148.441195 
L 413.925818 143.383213 
L 414.458182 136.307612 
L 415.256727 121.407512 
L 415.789091 108.320466 
L 416.055273 106.834152 
L 416.587636 110.972658 
L 417.386182 119.071298 
L 418.450909 132.375814 
L 421.911273 178.446338 
L 422.709818 185.14483 
L 423.242182 187.627455 
L 423.508364 188.093723 
L 423.774545 187.993889 
L 424.040727 187.20664 
L 424.306909 185.680622 
L 424.839273 180.145566 
L 425.371636 170.538622 
L 425.904 156.10221 
L 426.436364 135.81867 
L 426.436364 135.81867 
" clip-path="url(#p2c0ced4b3c)" style="fill: none; stroke: #ff0000; stroke-width: 3; stroke-linecap: square"/>
   </g>
   <g id="line2d_3">
    <path d="M 27.163636 205.79376 
L 27.696 212.887909 
L 28.228364 217.872935 
L 28.760727 221.096101 
L 29.293091 222.945339 
L 29.559273 223.481885 
L 29.825455 223.696431 
L 30.091636 223.744746 
L 30.357818 223.640321 
L 30.890182 222.83986 
L 31.422545 221.533278 
L 32.221091 218.895421 
L 33.552 213.133267 
L 34.882909 206.439752 
L 36.746182 195.93548 
L 38.609455 184.071589 
L 40.206545 172.5064 
L 42.069818 157.226707 
L 43.666909 143.221397 
L 44.731636 126.697973 
L 44.997818 124.923016 
L 45.264 124.606424 
L 45.530182 125.907695 
L 45.796364 128.983028 
L 46.062545 133.98518 
L 46.594909 150.527319 
L 47.127273 176.551603 
L 47.393455 193.447106 
L 47.659636 197.99786 
L 48.458182 152.34643 
L 48.990545 131.042959 
L 49.522909 115.823018 
L 50.055273 105.837061 
L 50.587636 99.984746 
L 50.853818 98.393708 
L 51.12 97.502358 
L 51.386182 97.207659 
L 51.652364 97.440648 
L 51.918545 98.096498 
L 52.450909 100.281061 
L 54.048 108.332896 
L 54.580364 109.803673 
L 54.846545 110.070511 
L 55.112727 110.019879 
L 55.378909 109.568103 
L 55.645091 108.724436 
L 56.177455 105.788728 
L 56.709818 101.11674 
L 57.242182 94.720075 
L 58.040727 82.059752 
L 58.573091 73.998313 
L 59.637818 67.561146 
L 60.436364 63.692603 
L 61.234909 57.025817 
L 62.033455 51.87937 
L 62.832 48.089619 
L 63.630545 45.471733 
L 64.162909 44.301291 
L 64.695273 43.522459 
L 65.227636 43.085045 
L 65.76 42.949229 
L 66.292364 43.078057 
L 66.824727 43.416174 
L 67.623273 44.27299 
L 68.421818 45.449647 
L 69.486545 47.389352 
L 71.083636 50.878697 
L 72.946909 55.673545 
L 74.277818 59.63482 
L 75.608727 64.252613 
L 76.939636 69.8804 
L 78.004364 75.724095 
L 79.867636 87.163502 
L 80.666182 92.721047 
L 81.464727 102.093887 
L 83.328 125.313169 
L 85.191273 146.061494 
L 87.320727 167.254501 
L 89.184 183.807613 
L 93.442909 219.963247 
L 93.709091 222.823393 
L 94.773818 240.577134 
L 95.838545 262.428217 
L 96.903273 289.263862 
L 97.968 316.472727 
L 98.766545 306.305161 
L 99.565091 298.333349 
L 100.363636 292.149574 
L 101.162182 287.462423 
L 101.960727 284.030505 
L 102.759273 281.709677 
L 103.291636 280.730102 
L 103.824 280.16982 
L 104.356364 280.014464 
L 104.888727 280.264477 
L 105.421091 280.919734 
L 105.953455 281.964322 
L 106.752 284.299752 
L 107.550545 287.542614 
L 108.349091 291.68814 
L 109.413818 298.533476 
L 110.744727 307.601614 
L 111.010909 308.476636 
L 111.277091 305.808118 
L 112.608 283.448396 
L 113.938909 264.596448 
L 115.536 245.426915 
L 117.133091 228.994714 
L 119.262545 209.630175 
L 122.722909 178.704617 
L 124.053818 164.636298 
L 125.384727 149.722943 
L 125.650909 148.596462 
L 125.917091 148.090736 
L 126.183273 148.086997 
L 126.449455 148.68082 
L 126.715636 149.773435 
L 126.981818 151.40408 
L 127.514182 152.105909 
L 128.046545 153.0678 
L 128.845091 155.165319 
L 129.643636 158.114879 
L 130.442182 162.085073 
L 131.240727 167.163489 
L 132.305455 175.664248 
L 133.370182 185.991017 
L 134.967273 203.924139 
L 137.362909 231.252653 
L 138.427636 241.179964 
L 139.226182 246.929645 
L 140.024727 250.89584 
L 140.557091 252.435829 
L 140.823273 252.856969 
L 141.089455 253.040985 
L 141.355636 252.98624 
L 141.621818 252.692809 
L 142.154182 251.39885 
L 142.420364 250.407297 
L 142.686545 248.65968 
L 143.485091 239.794475 
L 144.283636 228.281042 
L 145.614545 205.650869 
L 149.341091 139.430716 
L 150.405818 125.492015 
L 151.204364 117.963357 
L 151.736727 114.563601 
L 152.269091 112.546438 
L 152.535273 112.085779 
L 152.801455 112.020662 
L 153.067636 112.32723 
L 153.333818 113.007413 
L 153.866182 115.486429 
L 154.398545 119.433098 
L 155.197091 127.963992 
L 155.995636 139.290705 
L 157.060364 157.841089 
L 158.657455 188.277976 
L 159.456 176.799217 
L 160.254545 168.132894 
L 164.513455 130.83978 
L 165.844364 121.690238 
L 166.909091 115.89442 
L 167.707636 112.519015 
L 168.506182 109.911416 
L 169.304727 108.004243 
L 170.103273 106.651005 
L 172.498909 103.196579 
L 173.031273 101.816937 
L 173.563636 99.863063 
L 174.096 97.167666 
L 174.628364 93.513397 
L 175.160727 88.644883 
L 175.693091 82.323377 
L 176.491636 69.466406 
L 177.024 59.500971 
L 177.556364 53.384136 
L 177.822545 56.145984 
L 179.952 112.759079 
L 181.016727 133.40965 
L 182.081455 150.092731 
L 183.146182 163.64702 
L 184.210909 174.765551 
L 185.541818 185.949619 
L 186.872727 194.882867 
L 188.203636 202.168634 
L 189.268364 207.144373 
L 190.865455 213.424868 
L 192.462545 218.64671 
L 193.527273 221.604118 
L 194.325818 225.856626 
L 195.124364 228.757871 
L 195.656727 229.947835 
L 196.189091 230.56177 
L 196.455273 230.667941 
L 196.721455 230.650543 
L 197.253818 230.284696 
L 197.786182 229.590196 
L 199.649455 226.705015 
L 199.915636 226.529804 
L 200.181818 226.508868 
L 200.448 226.649467 
L 200.714182 226.976681 
L 200.980364 227.515703 
L 201.512727 229.420015 
L 202.045091 232.511886 
L 202.311273 231.280471 
L 203.376 187.230674 
L 204.174545 162.476947 
L 204.973091 143.851597 
L 205.771636 130.383229 
L 206.570182 120.992921 
L 207.368727 114.727595 
L 208.167273 110.657382 
L 208.965818 107.950398 
L 210.296727 104.314071 
L 210.829091 101.351748 
L 211.361455 97.105604 
L 211.893818 91.013172 
L 212.426182 82.579418 
L 213.224727 64.939397 
L 214.023273 40.663139 
L 214.555636 22.405716 
L 214.821818 21.927273 
L 216.152727 33.968702 
L 217.749818 46.200687 
L 219.613091 58.535938 
L 221.476364 69.468583 
L 223.605818 80.584094 
L 225.469091 89.151979 
L 226.8 94.595109 
L 228.397091 118.209478 
L 229.728 140.837202 
L 230.792727 161.267143 
L 231.058909 162.842012 
L 231.591273 159.247452 
L 232.123636 156.803636 
L 232.656 155.329084 
L 233.188364 154.655959 
L 233.454545 154.549164 
L 233.986909 154.742564 
L 234.519273 155.30533 
L 236.648727 158.135349 
L 236.914909 158.214511 
L 237.181091 158.160472 
L 237.447273 157.938052 
L 237.713455 157.546442 
L 238.245818 156.07663 
L 238.778182 153.535552 
L 239.310545 149.671591 
L 239.842909 144.206199 
L 240.375273 136.827612 
L 240.907636 127.189777 
L 241.706182 107.600589 
L 242.504727 83.429528 
L 243.037091 100.491543 
L 244.368 145.324341 
L 245.166545 164.94334 
L 245.965091 179.043085 
L 246.497455 185.715734 
L 247.029818 190.400574 
L 247.562182 193.250274 
L 247.828364 194.050419 
L 248.094545 194.4602 
L 248.360727 194.487114 
L 248.626909 194.148523 
L 248.893091 193.475925 
L 249.425455 191.193266 
L 249.957818 187.738314 
L 250.756364 180.68637 
L 251.554909 171.73769 
L 251.821091 167.044704 
L 252.619636 138.391332 
L 253.152 125.060552 
L 253.684364 115.804725 
L 254.216727 110.227991 
L 254.482909 108.745258 
L 254.749091 107.986669 
L 255.015273 107.995096 
L 255.281455 108.67412 
L 255.547636 109.993211 
L 256.08 114.399591 
L 256.612364 120.890989 
L 257.410909 133.885987 
L 258.475636 155.715936 
L 262.202182 238.227507 
L 263.000727 254.007528 
L 263.266909 257.065423 
L 263.533091 249.30461 
L 264.331636 213.146662 
L 265.130182 186.15731 
L 265.928727 167.061733 
L 266.461091 158.099201 
L 266.993455 151.755978 
L 267.525818 147.698213 
L 268.058182 145.608963 
L 268.324364 145.194161 
L 268.590545 145.147093 
L 268.856727 145.439352 
L 269.389091 146.89324 
L 269.921455 149.277066 
L 270.72 154.064698 
L 272.317091 165.675683 
L 273.914182 176.894706 
L 274.978909 183.03087 
L 276.043636 187.750173 
L 276.842182 190.953369 
L 278.173091 199.819095 
L 278.971636 203.933269 
L 279.770182 206.894477 
L 280.302545 208.116034 
L 280.568727 208.52923 
L 280.834909 208.713395 
L 281.101091 208.759173 
L 281.367273 208.669689 
L 281.899636 207.858703 
L 282.432 206.373293 
L 282.964364 204.163519 
L 283.762909 199.436272 
L 284.561455 193.006961 
L 284.827636 194.417889 
L 285.626182 200.735428 
L 286.424727 205.344021 
L 287.223273 208.421346 
L 287.755636 209.830176 
L 288.288 210.7789 
L 288.820364 211.333986 
L 289.352727 211.558311 
L 289.618909 211.603861 
L 290.417455 211.249408 
L 291.216 210.525256 
L 292.280727 209.212652 
L 293.345455 207.721035 
L 294.144 202.439308 
L 295.474909 191.233497 
L 297.072 177.869851 
L 297.870545 172.743691 
L 298.402909 170.304 
L 298.935273 168.831985 
L 299.201455 168.505421 
L 299.467636 168.475136 
L 299.733818 168.757792 
L 300 169.369269 
L 300.532364 171.638514 
L 301.064727 175.394636 
L 301.597091 180.73659 
L 302.395636 191.937977 
L 303.194182 207.275264 
L 303.992727 226.828761 
L 305.057455 259.739003 
L 306.122182 300.701227 
L 306.388364 311.62199 
L 306.654545 314.644612 
L 307.186909 305.106522 
L 308.251636 286.107735 
L 309.316364 270.441081 
L 310.114909 261.051989 
L 311.445818 249.635041 
L 315.704727 209.225845 
L 317.035636 195.413163 
L 318.100364 181.737025 
L 318.898909 168.640587 
L 319.697455 151.898693 
L 320.496 130.232491 
L 321.294545 102.257459 
L 322.359273 57.478892 
L 322.891636 63.16544 
L 323.424 71.135622 
L 324.222545 86.836358 
L 325.287273 113.103569 
L 327.949091 182.520711 
L 329.013818 203.232861 
L 330.078545 219.308371 
L 330.877091 228.382553 
L 331.675636 235.085724 
L 332.474182 239.593895 
L 333.006545 241.484364 
L 333.538909 242.580823 
L 333.805091 242.856545 
L 334.071273 242.907774 
L 334.337455 242.787548 
L 334.869818 242.086956 
L 335.668364 240.149358 
L 335.934545 240.1372 
L 336.733091 242.011289 
L 337.265455 242.47071 
L 337.531636 242.538118 
L 338.064 242.173869 
L 338.596364 241.336241 
L 339.128727 240.049357 
L 339.927273 237.234077 
L 340.725818 233.417649 
L 341.524364 228.584476 
L 342.589091 220.462073 
L 343.387636 212.862575 
L 344.186182 202.55633 
L 345.250909 185.457543 
L 346.581818 159.278895 
L 350.308364 80.246961 
L 351.106909 69.106344 
L 351.639273 64.304702 
L 351.905455 62.817036 
L 352.171636 62.094806 
L 352.704 88.925678 
L 353.768727 142.835967 
L 354.833455 184.982215 
L 355.632 208.880443 
L 356.430545 226.291214 
L 356.962909 234.370446 
L 357.495273 239.768229 
L 358.027636 242.597449 
L 358.293818 243.109574 
L 358.56 242.989432 
L 358.826182 242.338406 
L 359.358545 239.352329 
L 362.020364 215.989901 
L 363.351273 201.257604 
L 364.682182 184.178814 
L 366.279273 163.457184 
L 366.545455 165.154753 
L 367.876364 186.499139 
L 368.941091 200.404369 
L 369.739636 208.811982 
L 370.538182 215.288265 
L 371.070545 218.374518 
L 371.602909 220.339267 
L 371.869091 220.862953 
L 372.135273 221.060049 
L 372.401455 220.914885 
L 372.667636 220.411941 
L 372.933818 219.535321 
L 373.466182 216.569303 
L 373.998545 211.832145 
L 374.530909 205.217063 
L 375.329455 191.423833 
L 376.128 172.6304 
L 377.192727 140.547471 
L 380.120727 51.198783 
L 380.386909 43.883311 
L 380.653091 40.647882 
L 381.717818 59.606151 
L 382.782545 74.544173 
L 383.847273 86.746277 
L 385.178182 99.535042 
L 387.041455 115.01011 
L 389.969455 138.91716 
L 391.300364 151.632101 
L 392.365091 163.613136 
L 393.163636 174.161536 
L 394.494545 217.969477 
L 396.091636 279.986311 
L 396.890182 310.018141 
L 397.156364 301.415051 
L 397.954909 258.377106 
L 398.753455 225.597363 
L 399.552 200.692985 
L 400.350545 181.773674 
L 401.149091 167.463245 
L 401.947636 156.670015 
L 402.746182 148.470197 
L 403.544727 142.305715 
L 404.343273 137.594505 
L 405.141818 133.995468 
L 405.940364 131.22105 
L 406.738909 129.03517 
L 407.803636 126.76934 
L 409.134545 124.613376 
L 409.666909 123.886248 
L 410.997818 119.993846 
L 411.264 119.710733 
L 411.530182 119.594142 
L 411.796364 119.62469 
L 412.062545 119.816843 
L 412.594909 120.745676 
L 413.127273 122.239855 
L 413.925818 125.52151 
L 414.724364 129.91086 
L 415.789091 137.231318 
L 417.12 148.114016 
L 419.249455 167.963634 
L 422.709818 200.596961 
L 424.306909 213.762115 
L 425.637818 223.183454 
L 426.436364 228.048527 
L 426.436364 228.048527 
" clip-path="url(#p2c0ced4b3c)" style="fill: none; stroke: #0000ff; stroke-width: 3; stroke-linecap: square"/>
   </g>
   <g id="patch_3">
    <path d="M 7.2 331.2 
L 7.2 7.2 
" style="fill: none; stroke: #000000; stroke-width: 0.8; stroke-linejoin: miter; stroke-linecap: square"/>
   </g>
   <g id="patch_4">
    <path d="M 446.4 331.2 
L 446.4 7.2 
" style="fill: none; stroke: #000000; stroke-width: 0.8; stroke-linejoin: miter; stroke-linecap: square"/>
   </g>
   <g id="patch_5">
    <path d="M 7.2 331.2 
L 446.4 331.2 
" style="fill: none; stroke: #000000; stroke-width: 0.8; stroke-linejoin: miter; stroke-linecap: square"/>
   </g>
   <g id="patch_6">
    <path d="M 7.2 7.2 
L 446.4 7.2 
" style="fill: none; stroke: #000000; stroke-width: 0.8; stroke-linejoin: miter; stroke-linecap: square"/>
   </g>
  </g>
 </g>
 <defs>
  <clipPath id="p2c0ced4b3c">
   <rect x="7.2" y="7.2" width="439.2" height="324"/>
  </clipPath>
 </defs>
</svg>
