<?xml version="1.0" encoding="utf-8" standalone="no"?>
<!DOCTYPE svg PUBLIC "-//W3C//DTD SVG 1.1//EN"
  "http://www.w3.org/Graphics/SVG/1.1/DTD/svg11.dtd">
<svg xmlns:xlink="http://www.w3.org/1999/xlink" width="453.6pt" height="338.4pt" viewBox="0 0 453.6 338.4" xmlns="http://www.w3.org/2000/svg" version="1.1">
 <metadata>
  <rdf:RDF xmlns:dc="http://purl.org/dc/elements/1.1/" xmlns:cc="http://creativecommons.org/ns#" xmlns:rdf="http://www.w3.org/1999/02/22-rdf-syntax-ns#">
   <cc:Work>
    <dc:type rdf:resource="http://purl.org/dc/dcmitype/StillImage"/>
    <dc:date>2025-05-15T17:06:38.583400</dc:date>
    <dc:format>image/svg+xml</dc:format>
    <dc:creator>
     <cc:Agent>
      <dc:title>Matplotlib v3.10.1, https://matplotlib.org/</dc:title>
     </cc:Agent>
    </dc:creator>
   </cc:Work>
  </rdf:RDF>
 </metadata>
 <defs>
  <style type="text/css">*{stroke-linejoin: round; stroke-linecap: butt}</style>
 </defs>
 <g id="figure_1">
  <g id="patch_1">
   <path d="M 0 338.4 
L 453.6 338.4 
L 453.6 0 
L 0 0 
z
" style="fill: #ffffff"/>
  </g>
  <g id="axes_1">
   <g id="patch_2">
    <path d="M 7.2 331.2 
L 446.4 331.2 
L 446.4 7.2 
L 7.2 7.2 
z
" style="fill: #ffffff"/>
   </g>
   <g id="matplotlib.axis_1"/>
   <g id="matplotlib.axis_2"/>
   <g id="line2d_1">
    <path d="M 27.163636 21.927273 
L 27.719727 23.292681 
L 28.275817 25.300307 
L 29.109952 29.281899 
L 31.334312 40.850901 
L 32.168448 43.669841 
L 32.724538 44.926033 
L 33.558673 46.170583 
L 34.392808 47.261999 
L 34.948898 48.315262 
L 35.504989 49.883024 
L 36.061079 52.088738 
L 36.895214 56.619121 
L 38.007394 64.388079 
L 39.95371 78.449639 
L 43.012206 98.660841 
L 44.402431 110.764197 
L 45.792656 122.783437 
L 46.626792 128.412239 
L 47.460927 132.327494 
L 48.017017 134.084786 
L 48.851152 135.906887 
L 49.963332 138.113119 
L 50.519423 139.640566 
L 51.353558 142.838537 
L 52.187693 147.141179 
L 53.577918 155.944697 
L 54.968144 164.640439 
L 55.802279 168.776721 
L 56.358369 170.845064 
L 56.914459 172.280411 
L 57.47055 173.068269 
L 57.748595 173.229327 
L 58.02664 173.246762 
L 58.58273 172.897471 
L 59.13882 172.131946 
L 60.251 169.950871 
L 61.085135 168.411638 
L 61.641226 167.719482 
L 62.197316 167.440994 
L 62.475361 167.491078 
L 62.753406 167.682769 
L 63.309496 168.521863 
L 63.865586 169.989544 
L 64.421676 172.072986 
L 65.255812 176.259986 
L 66.367992 183.426754 
L 69.982578 208.776754 
L 71.094758 214.47342 
L 71.928893 217.540792 
L 72.484984 218.85871 
L 73.041074 219.485106 
L 73.319119 219.505999 
L 73.597164 219.312031 
L 73.875209 218.886288 
L 74.431299 217.273255 
L 74.987389 214.552091 
L 75.543479 210.654443 
L 76.377615 202.602358 
L 77.21175 192.200907 
L 79.992201 154.465548 
L 80.826336 147.445228 
L 81.382426 144.575743 
L 81.938516 142.985158 
L 82.494606 142.336285 
L 83.050696 142.201796 
L 83.606787 142.149493 
L 84.162877 141.831266 
L 84.718967 141.065886 
L 85.553102 139.181713 
L 86.665282 136.61374 
L 87.221372 135.985212 
L 87.499418 135.933687 
L 87.777463 136.073334 
L 88.055508 136.402972 
L 88.611598 137.574471 
L 89.445733 140.175526 
L 90.557913 143.732556 
L 91.392049 145.665978 
L 93.338364 149.165173 
L 93.894454 150.93232 
L 94.450544 153.408337 
L 95.28468 158.591628 
L 96.118815 165.430717 
L 97.50904 179.195635 
L 99.455356 198.554084 
L 100.567536 207.510418 
L 101.401671 212.809294 
L 102.235807 216.891832 
L 103.069942 219.813476 
L 103.626032 221.125026 
L 104.182122 221.895017 
L 104.460167 222.059591 
L 104.738212 222.066853 
L 105.016257 221.909916 
L 105.294302 221.582986 
L 105.850393 220.405494 
L 106.406483 218.529015 
L 107.240618 214.500739 
L 108.352798 207.53206 
L 109.743024 198.747763 
L 110.577159 194.988955 
L 111.133249 193.598043 
L 111.411294 193.298836 
L 111.689339 193.279759 
L 111.967384 193.546663 
L 112.245429 194.101419 
L 112.801519 196.059652 
L 113.35761 199.087833 
L 114.191745 205.349774 
L 115.303925 215.926635 
L 117.806331 240.694357 
L 118.640466 246.340796 
L 119.196556 248.60374 
L 119.474601 249.189446 
L 119.752646 249.377305 
L 120.030691 249.149938 
L 120.308736 248.497953 
L 120.864827 245.928626 
L 121.420917 241.788079 
L 122.255052 233.291636 
L 123.923322 214.607996 
L 124.479413 210.154266 
L 125.035503 207.443822 
L 125.313548 206.834831 
L 125.591593 206.747285 
L 125.869638 207.181702 
L 126.147683 208.125143 
L 126.703773 211.423281 
L 127.259863 216.302582 
L 128.372044 228.968677 
L 130.040314 248.691805 
L 131.152494 259.196219 
L 131.98663 265.376839 
L 132.820765 270.266687 
L 133.6549 274.028578 
L 134.489035 276.711818 
L 135.045125 277.84306 
L 135.601215 278.390497 
L 135.879261 278.432973 
L 136.157306 278.316178 
L 136.435351 278.037315 
L 136.991441 276.983938 
L 137.547531 275.270563 
L 138.381666 271.565989 
L 139.493847 265.075384 
L 141.440162 253.084818 
L 142.274297 249.378025 
L 142.830387 247.797526 
L 143.108433 247.322247 
L 143.386478 247.074103 
L 143.664523 247.062864 
L 143.942568 247.295332 
L 144.220613 247.774818 
L 144.776703 249.472545 
L 145.332793 252.129648 
L 146.166928 257.776346 
L 147.279109 267.716437 
L 149.225424 286.127439 
L 149.781514 290.020101 
L 150.337604 292.680634 
L 150.61565 293.471546 
L 150.893695 293.876772 
L 151.17174 293.887088 
L 151.449785 293.502265 
L 151.72783 292.730459 
L 152.28392 290.104478 
L 152.84001 286.260458 
L 154.230236 274.09307 
L 155.064371 267.470973 
L 155.620461 264.235714 
L 156.176551 262.28774 
L 156.454596 261.847473 
L 156.732641 261.772174 
L 157.010686 262.057376 
L 157.288731 262.692129 
L 157.844821 264.937178 
L 158.400912 268.32269 
L 159.235047 275.025013 
L 162.571588 304.629099 
L 163.127678 307.712017 
L 163.683768 309.799639 
L 164.239858 310.809978 
L 164.517903 310.898317 
L 164.795948 310.708312 
L 165.073993 310.244674 
L 165.630084 308.539398 
L 166.186174 305.913186 
L 167.020309 300.661008 
L 169.80076 281.37793 
L 170.35685 278.867304 
L 170.91294 277.124536 
L 171.46903 276.17804 
L 171.747075 275.994879 
L 172.02512 275.992257 
L 172.303165 276.156514 
L 172.859256 276.920482 
L 173.415346 278.149615 
L 174.249481 280.565895 
L 177.029932 289.113489 
L 177.864067 291.000601 
L 178.698202 292.310767 
L 179.254292 292.798323 
L 179.810382 292.928403 
L 180.366473 292.656312 
L 180.922563 291.953407 
L 181.478653 290.818333 
L 182.312788 288.348684 
L 183.146923 285.052851 
L 184.259104 279.651732 
L 185.927374 270.262451 
L 188.707825 254.407462 
L 190.09805 247.840607 
L 191.21023 243.518196 
L 192.600456 239.022681 
L 194.824816 232.78241 
L 196.771132 227.167036 
L 198.161357 222.466286 
L 200.107673 215.734137 
L 200.941808 213.67565 
L 201.497898 212.809813 
L 202.053988 212.399833 
L 202.610079 212.439053 
L 203.166169 212.869868 
L 204.000304 214.045199 
L 206.780755 218.760531 
L 207.61489 219.625013 
L 208.449025 220.121213 
L 209.28316 220.27792 
L 210.117296 220.179366 
L 210.951431 219.891196 
L 211.785566 219.39001 
L 212.619701 218.574142 
L 213.175791 217.771559 
L 214.009927 216.063458 
L 214.844062 213.770458 
L 216.790377 208.099352 
L 217.346467 207.13012 
L 217.902558 206.703685 
L 218.180603 206.702878 
L 218.736693 207.090381 
L 219.292783 207.885731 
L 220.683008 210.281464 
L 221.239099 210.758184 
L 221.517144 210.785877 
L 221.795189 210.650322 
L 222.073234 210.341663 
L 222.629324 209.192699 
L 223.185414 207.359935 
L 224.019549 203.523207 
L 225.409775 195.458731 
L 227.35609 184.284868 
L 228.46827 179.199958 
L 229.302406 176.268487 
L 229.858496 174.816512 
L 230.414586 173.842496 
L 230.970676 173.414794 
L 231.248721 173.426782 
L 231.526766 173.600462 
L 232.082856 174.46163 
L 232.638947 176.038441 
L 233.195037 178.319338 
L 234.029172 182.860211 
L 236.809623 199.757973 
L 237.365713 201.8413 
L 237.921803 203.186998 
L 238.477893 203.782416 
L 238.755938 203.806363 
L 239.033983 203.656716 
L 239.590073 202.876927 
L 240.146164 201.53365 
L 240.980299 198.66696 
L 242.370524 192.517491 
L 243.482704 187.978923 
L 244.038795 186.499284 
L 244.31684 186.066855 
L 244.594885 185.876749 
L 244.87293 185.951414 
L 245.150975 186.307276 
L 245.42902 186.952489 
L 245.98511 189.099647 
L 246.5412 192.281105 
L 247.375336 198.460169 
L 249.043606 211.547915 
L 249.877741 216.187342 
L 250.433831 218.139639 
L 250.989921 219.152875 
L 251.267967 219.324595 
L 251.546012 219.290591 
L 251.824057 219.068008 
L 252.380147 218.134308 
L 252.936237 216.679134 
L 253.770372 213.795586 
L 254.882553 209.083684 
L 256.828868 199.615069 
L 262.38977 170.644122 
L 264.892175 157.716916 
L 266.282401 151.686087 
L 268.228716 144.396357 
L 269.896987 137.975979 
L 271.287212 131.852417 
L 272.677437 124.840858 
L 274.345708 115.258041 
L 276.013978 104.384307 
L 277.682249 92.185711 
L 279.350519 78.341834 
L 281.852925 56.966683 
L 282.68706 51.88356 
L 283.24315 49.732426 
L 283.521195 49.091593 
L 283.79924 48.754491 
L 284.077285 48.722965 
L 284.35533 48.992405 
L 284.633376 49.550591 
L 285.189466 51.444734 
L 286.023601 55.699887 
L 287.413826 63.425071 
L 287.969916 65.701617 
L 288.526007 67.181832 
L 289.082097 67.835086 
L 289.360142 67.886784 
L 289.916232 67.591639 
L 291.028412 66.580363 
L 291.306457 66.491232 
L 291.584502 66.542988 
L 291.862547 66.764821 
L 292.140593 67.179556 
L 292.696683 68.637669 
L 293.252773 70.9326 
L 294.086908 75.657412 
L 296.867359 93.030943 
L 297.701494 96.573709 
L 298.813674 100.22428 
L 300.481945 105.465234 
L 302.42826 112.124102 
L 302.98435 113.443058 
L 303.540441 114.167431 
L 303.818486 114.261058 
L 304.096531 114.158959 
L 304.374576 113.855919 
L 304.930666 112.654047 
L 305.486756 110.715669 
L 306.320891 106.684195 
L 307.433072 99.873519 
L 309.101342 87.88693 
L 312.159838 64.563776 
L 312.715928 61.79662 
L 313.272018 60.106645 
L 313.550063 59.721246 
L 313.828108 59.657186 
L 314.106153 59.915559 
L 314.384199 60.489825 
L 314.940289 62.527218 
L 315.496379 65.588827 
L 316.608559 73.657078 
L 317.998785 84.010577 
L 318.83292 88.8825 
L 319.667055 92.44564 
L 320.779235 95.923395 
L 321.61337 98.726313 
L 322.169461 101.230975 
L 322.725551 104.519229 
L 323.559686 111.174984 
L 324.671866 122.895564 
L 326.618182 144.884114 
L 327.452317 151.960483 
L 328.008407 155.380921 
L 328.564497 157.780919 
L 329.120587 159.309345 
L 329.676678 160.200137 
L 331.344948 162.106067 
L 331.901038 163.478335 
L 332.457128 165.592064 
L 333.013219 168.5782 
L 333.847354 174.797176 
L 334.681489 182.921101 
L 336.349759 202.288137 
L 337.46194 214.30023 
L 338.296075 221.017049 
L 338.852165 224.003214 
L 339.408255 225.712957 
L 339.6863 226.103342 
L 339.964345 226.206968 
L 340.24239 226.050059 
L 340.520436 225.664689 
L 341.076526 224.355963 
L 342.188706 220.634992 
L 343.300886 217.011625 
L 344.135022 214.923543 
L 345.247202 212.80137 
L 347.193517 209.659564 
L 348.027653 208.722434 
L 348.583743 208.469276 
L 348.861788 208.494462 
L 349.417878 208.887786 
L 349.973968 209.745842 
L 350.530058 211.029583 
L 351.364193 213.543696 
L 353.032464 218.715115 
L 353.588554 219.838979 
L 354.144644 220.450189 
L 354.422689 220.542259 
L 354.700734 220.486786 
L 354.978779 220.284462 
L 355.53487 219.465367 
L 356.09096 218.171885 
L 357.20314 214.70145 
L 358.87141 209.415743 
L 359.705546 207.531829 
L 360.539681 206.284023 
L 361.373816 205.570311 
L 362.207951 205.226697 
L 363.320132 205.049501 
L 364.432312 205.064543 
L 365.266447 205.247474 
L 366.100582 205.636734 
L 366.934718 206.28019 
L 368.324943 207.741242 
L 369.715168 209.130713 
L 370.549304 209.662791 
L 371.383439 209.878256 
L 372.217574 209.818605 
L 373.051709 209.511473 
L 373.885845 208.928735 
L 374.71998 207.983133 
L 375.27607 207.06727 
L 376.110205 205.155634 
L 377.222385 201.712978 
L 378.890656 196.382 
L 379.446746 195.236378 
L 380.002836 194.661968 
L 380.280881 194.609896 
L 380.558926 194.716058 
L 381.115016 195.380925 
L 381.671107 196.576745 
L 382.505242 199.057892 
L 384.451557 205.18569 
L 385.285693 207.150061 
L 386.397873 209.139416 
L 387.510053 211.055086 
L 388.344188 212.939144 
L 389.178324 215.535328 
L 390.012459 219.018962 
L 391.124639 224.930546 
L 393.070955 237.050818 
L 395.57336 252.141809 
L 396.963586 259.384366 
L 397.797721 262.491217 
L 398.353811 263.633956 
L 398.631856 263.854032 
L 398.909901 263.816599 
L 399.187946 263.510158 
L 399.465991 262.929437 
L 400.022082 260.955586 
L 400.578172 257.991322 
L 401.412307 252.206215 
L 402.802532 242.113193 
L 403.358622 239.136019 
L 403.914713 237.319393 
L 404.192758 236.930536 
L 404.470803 236.917741 
L 404.748848 237.291815 
L 405.026893 238.054429 
L 405.582983 240.708651 
L 406.139073 244.7305 
L 406.973208 252.749042 
L 409.753659 281.920152 
L 410.587794 287.346687 
L 411.143885 289.614847 
L 411.699975 290.819169 
L 411.97802 291.045959 
L 412.256065 291.039446 
L 412.53411 290.814068 
L 413.0902 289.769941 
L 413.64629 288.052791 
L 414.480425 284.566132 
L 416.704786 274.294328 
L 417.260876 272.602826 
L 417.816966 271.652123 
L 418.095011 271.497895 
L 418.373056 271.573366 
L 418.651102 271.884907 
L 419.207192 273.217868 
L 419.763282 275.452946 
L 420.597417 280.219975 
L 421.987642 290.345013 
L 423.655913 302.474564 
L 424.768093 309.1196 
L 425.880273 314.370654 
L 426.436364 316.472727 
L 426.436364 316.472727 
" clip-path="url(#p0373a1dc5b)" style="fill: none; stroke-dasharray: 11.1,4.8; stroke-dashoffset: 0; stroke: #000000; stroke-width: 3"/>
   </g>
   <g id="line2d_2">
    <path d="M 27.163636 74.837279 
L 27.719727 74.958369 
L 28.275817 75.259795 
L 29.109952 76.05307 
L 29.944087 77.254452 
L 30.778222 78.871088 
L 31.612358 80.908971 
L 32.724538 84.286385 
L 34.392808 89.895506 
L 35.504989 94.552569 
L 36.895214 101.187403 
L 37.173259 101.402609 
L 39.39762 99.455615 
L 41.06589 98.242648 
L 42.734161 97.30523 
L 44.124386 96.772633 
L 45.514611 96.496912 
L 46.626792 96.512358 
L 47.738972 96.807444 
L 48.851152 97.324998 
L 49.963332 98.073204 
L 51.075513 99.063818 
L 52.465738 100.655325 
L 53.299873 101.900913 
L 53.855964 103.64711 
L 54.968144 107.747774 
L 56.080324 109.285682 
L 57.47055 111.634385 
L 58.860775 114.42618 
L 60.529045 118.316306 
L 62.753406 124.228467 
L 64.977767 130.799097 
L 67.758217 139.709497 
L 72.484984 155.050245 
L 72.763029 155.607163 
L 73.597164 156.434385 
L 74.709344 157.204722 
L 75.821524 157.663028 
L 76.933705 157.872586 
L 77.76784 157.867744 
L 79.43611 157.536637 
L 83.328741 156.561065 
L 84.440922 156.511845 
L 85.553102 156.677716 
L 86.665282 157.098214 
L 87.777463 157.637208 
L 88.889643 158.461721 
L 90.001823 159.610714 
L 90.557913 160.319728 
L 94.172499 161.388264 
L 96.674905 162.679152 
L 98.06513 163.755871 
L 99.455356 165.13396 
L 100.845581 166.841023 
L 103.626032 170.80521 
L 105.016257 173.237367 
L 106.406483 176.155438 
L 107.796708 179.565761 
L 113.635655 194.870834 
L 116.13806 200.632858 
L 121.698962 212.425192 
L 123.645277 215.858857 
L 125.313548 218.429279 
L 126.147683 219.482196 
L 128.372044 219.185841 
L 130.318359 219.134259 
L 132.264675 219.305663 
L 133.6549 219.565535 
L 136.435351 220.001767 
L 143.108433 220.715622 
L 145.888883 220.827375 
L 147.557154 220.789682 
L 151.17174 220.063781 
L 159.791137 218.778484 
L 168.410534 217.583384 
L 174.249481 216.707634 
L 180.366473 215.494898 
L 182.312788 215.589187 
L 184.815194 215.953204 
L 188.151735 216.695761 
L 191.488276 217.621364 
L 193.990681 218.303003 
L 196.215042 218.045551 
L 198.439402 217.544365 
L 198.717447 217.463908 
L 199.829628 216.128181 
L 202.332033 212.788575 
L 205.390529 208.290927 
L 209.005115 202.530863 
L 210.673386 199.681492 
L 211.785566 196.904222 
L 218.458648 180.042107 
L 220.961053 174.292474 
L 223.463459 169.410926 
L 225.68782 165.532903 
L 227.634135 162.58175 
L 232.360901 156.183446 
L 234.307217 154.132019 
L 236.253533 152.435733 
L 237.921803 151.260113 
L 239.590073 150.337623 
L 241.258344 149.664802 
L 242.648569 149.309027 
L 244.31684 149.320842 
L 245.42902 149.396573 
L 246.819245 149.086041 
L 247.931426 149.148516 
L 249.043606 149.491209 
L 250.155786 150.101784 
L 251.267967 150.968485 
L 252.658192 152.392508 
L 254.048417 154.181354 
L 255.438643 156.324995 
L 257.106913 159.323811 
L 259.053229 163.359464 
L 260.999544 167.911634 
L 262.94586 172.736527 
L 269.340896 181.348786 
L 271.287212 183.49992 
L 272.955482 185.011489 
L 274.345708 185.981067 
L 275.457888 186.536602 
L 276.570068 186.872666 
L 277.682249 186.966783 
L 278.794429 186.79901 
L 279.906609 186.353383 
L 281.01879 185.527602 
L 286.023601 181.38671 
L 288.526007 179.370497 
L 290.194277 178.266632 
L 291.584502 177.565917 
L 292.974728 177.117178 
L 294.086908 176.973323 
L 295.199088 177.049054 
L 296.311269 177.37071 
L 297.423449 177.964687 
L 300.481945 183.929064 
L 302.706305 187.45258 
L 306.320891 193.034728 
L 308.545252 197.303511 
L 310.213522 200.950767 
L 311.881793 205.147046 
L 313.550063 210.044617 
L 314.662244 213.570957 
L 315.496379 214.545722 
L 316.886604 215.842085 
L 318.27683 216.85218 
L 319.667055 217.568975 
L 320.779235 217.924981 
L 321.61337 218.057078 
L 323.281641 217.8149 
L 324.949911 217.324203 
L 326.618182 216.561474 
L 328.286452 215.515992 
L 329.954723 214.175942 
L 331.344948 212.829437 
L 331.622993 212.838486 
L 333.847354 218.663504 
L 337.739985 228.373461 
L 339.408255 233.264461 
L 341.076526 238.845111 
L 342.744796 245.289752 
L 344.413067 252.75786 
L 346.081337 261.380896 
L 347.749607 271.319546 
L 348.583743 276.774092 
L 348.861788 277.152978 
L 350.530058 277.70298 
L 351.642239 277.857612 
L 352.754419 277.777674 
L 353.588554 277.530943 
L 354.422689 277.096727 
L 355.256825 276.452494 
L 356.09096 275.575707 
L 357.20314 274.003334 
L 358.31532 271.919228 
L 359.427501 269.267139 
L 360.539681 265.99168 
L 361.651861 262.03683 
L 365.266447 247.29415 
L 365.822537 244.028719 
L 367.768853 231.903779 
L 369.437123 222.740192 
L 371.105394 214.722025 
L 372.773664 207.855271 
L 374.16389 203.0162 
L 375.554115 198.980547 
L 376.666295 196.331685 
L 377.50043 194.74767 
L 378.334566 193.596948 
L 379.168701 192.74869 
L 380.002836 192.187219 
L 380.836971 191.89121 
L 381.949152 191.811733 
L 382.505242 191.885908 
L 382.783287 192.058349 
L 383.339377 192.944531 
L 385.563738 197.238384 
L 392.236819 210.466095 
L 392.514865 210.29446 
L 395.295315 206.546229 
L 396.963586 204.586843 
L 398.075766 203.604528 
L 399.465991 202.648148 
L 402.246442 201.191678 
L 403.080577 201.168912 
L 403.914713 201.421523 
L 404.748848 201.980285 
L 405.582983 202.864622 
L 406.417118 204.09949 
L 406.695163 204.644938 
L 408.641479 212.567375 
L 410.865839 220.732682 
L 418.095011 246.161352 
L 420.041327 254.774706 
L 421.153507 259.199274 
L 422.265688 262.220625 
L 424.212003 266.890541 
L 425.880273 270.396652 
L 426.436364 271.498961 
L 426.436364 271.498961 
" clip-path="url(#p0373a1dc5b)" style="fill: none; stroke: #ff00ff; stroke-width: 3; stroke-linecap: square"/>
   </g>
   <g id="patch_3">
    <path d="M 7.2 331.2 
L 7.2 7.2 
" style="fill: none; stroke: #000000; stroke-width: 0.8; stroke-linejoin: miter; stroke-linecap: square"/>
   </g>
   <g id="patch_4">
    <path d="M 446.4 331.2 
L 446.4 7.2 
" style="fill: none; stroke: #000000; stroke-width: 0.8; stroke-linejoin: miter; stroke-linecap: square"/>
   </g>
   <g id="patch_5">
    <path d="M 7.2 331.2 
L 446.4 331.2 
" style="fill: none; stroke: #000000; stroke-width: 0.8; stroke-linejoin: miter; stroke-linecap: square"/>
   </g>
   <g id="patch_6">
    <path d="M 7.2 7.2 
L 446.4 7.2 
" style="fill: none; stroke: #000000; stroke-width: 0.8; stroke-linejoin: miter; stroke-linecap: square"/>
   </g>
  </g>
 </g>
 <defs>
  <clipPath id="p0373a1dc5b">
   <rect x="7.2" y="7.2" width="439.2" height="324"/>
  </clipPath>
 </defs>
</svg>
