<?xml version="1.0" encoding="utf-8" standalone="no"?>
<!DOCTYPE svg PUBLIC "-//W3C//DTD SVG 1.1//EN"
  "http://www.w3.org/Graphics/SVG/1.1/DTD/svg11.dtd">
<svg xmlns:xlink="http://www.w3.org/1999/xlink" width="453.6pt" height="338.4pt" viewBox="0 0 453.6 338.4" xmlns="http://www.w3.org/2000/svg" version="1.1">
 <metadata>
  <rdf:RDF xmlns:dc="http://purl.org/dc/elements/1.1/" xmlns:cc="http://creativecommons.org/ns#" xmlns:rdf="http://www.w3.org/1999/02/22-rdf-syntax-ns#">
   <cc:Work>
    <dc:type rdf:resource="http://purl.org/dc/dcmitype/StillImage"/>
    <dc:date>2025-05-15T18:18:58.047143</dc:date>
    <dc:format>image/svg+xml</dc:format>
    <dc:creator>
     <cc:Agent>
      <dc:title>Matplotlib v3.10.1, https://matplotlib.org/</dc:title>
     </cc:Agent>
    </dc:creator>
   </cc:Work>
  </rdf:RDF>
 </metadata>
 <defs>
  <style type="text/css">*{stroke-linejoin: round; stroke-linecap: butt}</style>
 </defs>
 <g id="figure_1">
  <g id="patch_1">
   <path d="M 0 338.4 
L 453.6 338.4 
L 453.6 0 
L 0 0 
z
" style="fill: #ffffff"/>
  </g>
  <g id="axes_1">
   <g id="patch_2">
    <path d="M 7.2 331.2 
L 446.4 331.2 
L 446.4 7.2 
L 7.2 7.2 
z
" style="fill: #ffffff"/>
   </g>
   <g id="matplotlib.axis_1"/>
   <g id="matplotlib.axis_2"/>
   <g id="line2d_1">
    <path d="M 27.163636 21.927273 
L 29.387997 77.152173 
L 30.500177 100.163833 
L 31.612358 118.470632 
L 32.446493 129.068497 
L 33.280628 137.357989 
L 34.392808 145.792639 
L 35.783034 154.037526 
L 38.007394 165.590733 
L 39.95371 174.712329 
L 41.62198 181.391226 
L 43.290251 187.109749 
L 45.236566 193.007639 
L 46.626792 196.67776 
L 47.460927 198.45689 
L 48.295062 199.725306 
L 48.851152 200.201737 
L 49.407242 200.32855 
L 49.963332 200.06836 
L 50.519423 199.393121 
L 51.075513 198.286166 
L 51.631603 196.741658 
L 52.465738 193.614348 
L 53.299873 189.55562 
L 54.412054 182.820046 
L 55.802279 172.601633 
L 57.748595 156.156975 
L 59.69491 140.062737 
L 60.80709 132.746605 
L 61.641226 128.861665 
L 62.197316 127.223462 
L 62.753406 126.434139 
L 63.031451 126.373049 
L 63.309496 126.538485 
L 63.587541 126.93052 
L 64.143631 128.384724 
L 64.699721 130.68996 
L 65.533857 135.549681 
L 66.646037 143.952017 
L 69.704533 168.812287 
L 70.816713 175.792113 
L 71.928893 181.187677 
L 72.763029 184.29223 
L 73.597164 186.732412 
L 74.709344 189.211108 
L 75.821524 191.081855 
L 76.933705 192.49025 
L 77.76784 193.199809 
L 78.32393 193.452121 
L 78.88002 193.482903 
L 79.43611 193.254991 
L 79.992201 192.740119 
L 80.548291 191.921947 
L 81.382426 190.128155 
L 82.216561 187.716457 
L 83.328741 183.779181 
L 88.055508 165.194212 
L 88.889643 160.341894 
L 89.723778 153.693341 
L 90.557913 145.031691 
L 93.060319 115.951963 
L 93.616409 112.175162 
L 93.894454 111.050628 
L 94.172499 110.490165 
L 94.450544 110.517373 
L 94.72859 111.141515 
L 95.006635 112.35588 
L 95.562725 116.456404 
L 96.118815 122.492997 
L 96.95295 134.077679 
L 99.177311 166.510406 
L 100.011446 175.289167 
L 100.845581 181.338853 
L 101.401671 183.90592 
L 101.957761 185.426393 
L 102.235807 185.841479 
L 102.513852 186.055386 
L 102.791897 186.090581 
L 103.069942 185.971099 
L 103.626032 185.361254 
L 104.460167 183.844502 
L 106.128438 180.06916 
L 107.240618 177.124683 
L 108.074753 174.232725 
L 108.908888 170.414347 
L 110.021069 163.849278 
L 111.967384 151.433695 
L 112.801519 147.723638 
L 113.35761 146.29781 
L 113.635655 145.941042 
L 113.9137 145.828381 
L 114.191745 145.958294 
L 114.46979 146.324179 
L 115.02588 147.71131 
L 115.58197 149.845458 
L 116.416105 154.013381 
L 118.640466 165.898336 
L 119.752646 170.386774 
L 121.142872 174.826084 
L 122.533097 179.365546 
L 123.645277 183.795593 
L 125.035503 190.444803 
L 126.703773 199.670635 
L 130.040314 218.688087 
L 130.874449 221.998741 
L 131.708584 224.243033 
L 132.264675 225.200454 
L 133.09881 226.112833 
L 133.932945 226.910325 
L 134.489035 227.684147 
L 135.045125 228.832389 
L 135.601215 230.453305 
L 136.435351 233.817025 
L 137.547531 239.682638 
L 139.771892 251.947884 
L 140.884072 256.626267 
L 142.274297 261.279923 
L 143.942568 266.973024 
L 147.279109 279.391306 
L 147.835199 280.656257 
L 148.391289 281.524942 
L 148.947379 282.023293 
L 149.503469 282.220423 
L 150.337604 282.177496 
L 151.449785 282.078803 
L 152.005875 282.208168 
L 152.84001 282.707577 
L 155.342416 284.707653 
L 155.898506 284.820643 
L 156.732641 284.726655 
L 157.844821 284.556332 
L 158.400912 284.703787 
L 158.957002 285.138057 
L 159.513092 285.914213 
L 160.069182 287.039514 
L 160.903317 289.286104 
L 162.849633 295.649411 
L 164.795948 301.567762 
L 166.464219 306.745444 
L 168.966624 314.840067 
L 169.522715 315.945199 
L 170.078805 316.469445 
L 170.35685 316.472727 
L 170.634895 316.287268 
L 170.91294 315.906466 
L 171.46903 314.553253 
L 172.02512 312.455797 
L 172.859256 308.213835 
L 174.805571 297.503017 
L 175.361661 295.470663 
L 175.917751 294.277014 
L 176.195796 294.020909 
L 176.473841 293.992971 
L 176.751887 294.185433 
L 177.307977 295.171813 
L 177.864067 296.805202 
L 180.366473 305.272166 
L 180.922563 305.957617 
L 181.200608 306.017905 
L 181.478653 305.882339 
L 181.756698 305.550409 
L 182.312788 304.319085 
L 182.868878 302.402018 
L 183.703013 298.527145 
L 187.595644 278.385888 
L 191.766321 261.471071 
L 193.990681 251.2973 
L 195.102861 247.410173 
L 196.215042 244.442171 
L 197.605267 240.819172 
L 198.439402 237.830272 
L 199.273538 233.715196 
L 200.107673 228.266237 
L 201.219853 219.006632 
L 202.888124 202.385486 
L 204.556394 186.063081 
L 205.668574 177.219327 
L 206.50271 171.992189 
L 207.61489 166.548045 
L 210.951431 152.767104 
L 211.785566 149.878319 
L 212.341656 148.515441 
L 212.897746 147.758505 
L 213.175791 147.631073 
L 213.453836 147.674802 
L 213.731881 147.886047 
L 214.287972 148.77202 
L 214.844062 150.168525 
L 216.234287 154.698358 
L 217.068422 157.161919 
L 217.624513 158.373256 
L 218.180603 159.133401 
L 218.736693 159.400521 
L 219.014738 159.346652 
L 219.570828 158.873941 
L 220.126918 157.941686 
L 220.683008 156.593068 
L 221.517144 153.901048 
L 222.629324 149.374643 
L 225.409775 137.200613 
L 226.24391 134.534744 
L 226.8 133.240907 
L 227.35609 132.364052 
L 227.91218 131.888788 
L 228.46827 131.760991 
L 229.024361 131.890356 
L 230.692631 132.622382 
L 231.248721 132.601447 
L 231.804811 132.331264 
L 232.360901 131.812671 
L 233.195037 130.689595 
L 234.585262 128.725954 
L 235.141352 128.198936 
L 235.697442 127.909496 
L 236.253533 127.862229 
L 236.809623 128.025185 
L 237.643758 128.545054 
L 239.033983 129.761935 
L 240.146164 131.036333 
L 240.980299 132.395235 
L 241.814434 134.264925 
L 242.926614 137.480024 
L 244.31684 141.524928 
L 244.87293 142.605369 
L 245.150975 142.930916 
L 245.42902 143.080632 
L 245.707065 143.031797 
L 245.98511 142.763547 
L 246.263155 142.257391 
L 246.819245 140.473847 
L 247.375336 137.602241 
L 247.931426 133.62904 
L 248.765561 125.752189 
L 249.877741 112.544038 
L 252.102102 84.797937 
L 252.936237 76.633471 
L 253.770372 70.4081 
L 254.604507 65.970795 
L 255.438643 62.810624 
L 260.443454 47.12115 
L 260.999544 46.332557 
L 261.277589 46.141591 
L 261.555634 46.086227 
L 261.833679 46.160848 
L 262.38977 46.651576 
L 263.223905 47.956099 
L 264.336085 49.716301 
L 264.892175 50.160673 
L 265.17022 50.207065 
L 265.448265 50.120773 
L 266.004356 49.533249 
L 266.560446 48.407985 
L 267.394581 45.89464 
L 270.175032 36.223232 
L 270.731122 35.004344 
L 271.287212 34.177821 
L 271.843302 33.749788 
L 272.399392 33.70872 
L 272.955482 34.032918 
L 273.511573 34.694808 
L 274.067663 35.664156 
L 274.901798 37.623165 
L 276.013978 40.991445 
L 277.404204 46.001685 
L 279.350519 53.814162 
L 281.01879 61.354925 
L 282.409015 68.803742 
L 283.521195 75.898746 
L 284.911421 86.464115 
L 286.579691 101.399789 
L 291.862547 150.88939 
L 294.086908 169.434058 
L 295.477133 179.477734 
L 296.867359 187.920152 
L 298.257584 194.825211 
L 299.64781 200.492892 
L 301.87217 208.31073 
L 304.096531 216.529941 
L 305.764801 222.555337 
L 306.598936 224.956057 
L 307.433072 226.693208 
L 307.989162 227.445403 
L 308.545252 227.889884 
L 309.101342 228.076219 
L 309.935477 228.051673 
L 310.769613 227.991422 
L 311.325703 228.13771 
L 311.881793 228.576612 
L 312.437883 229.418308 
L 312.993973 230.750076 
L 313.550063 232.62965 
L 314.384199 236.516376 
L 315.218334 241.591426 
L 316.608559 251.797219 
L 318.27683 263.731083 
L 319.110965 268.157409 
L 319.667055 270.270038 
L 320.223145 271.695575 
L 320.779235 272.499267 
L 321.335325 272.801983 
L 321.891416 272.753621 
L 322.725551 272.336129 
L 324.115776 271.323672 
L 324.671866 270.716343 
L 325.227956 269.80433 
L 325.784047 268.415958 
L 326.340137 266.386047 
L 326.896227 263.584247 
L 327.730362 257.783992 
L 328.564497 250.090996 
L 329.676678 237.377439 
L 331.344948 215.128987 
L 334.959534 165.934698 
L 336.349759 149.928394 
L 337.46194 139.625258 
L 338.296075 133.718724 
L 339.13021 129.438832 
L 339.6863 127.430184 
L 340.24239 126.014422 
L 340.798481 125.105362 
L 341.354571 124.620871 
L 341.910661 124.499237 
L 342.466751 124.710737 
L 343.022841 125.262556 
L 343.578931 126.19627 
L 344.135022 127.581688 
L 344.691112 129.501527 
L 345.247202 132.039307 
L 346.081337 137.153419 
L 346.915472 143.939726 
L 348.027653 155.48035 
L 349.417878 172.882138 
L 351.642239 201.435943 
L 352.754419 212.900779 
L 353.588554 219.45487 
L 354.422689 224.156084 
L 354.978779 226.314923 
L 355.53487 227.768506 
L 356.09096 228.593644 
L 356.64705 228.868897 
L 357.20314 228.668813 
L 357.75923 228.064657 
L 358.31532 227.128864 
L 359.149456 225.283756 
L 360.817726 221.366101 
L 361.373816 220.499386 
L 361.929906 220.097868 
L 362.207951 220.112311 
L 362.485996 220.287193 
L 363.042087 221.152231 
L 363.598177 222.723655 
L 364.154267 224.9674 
L 364.988402 229.355504 
L 367.212763 242.159839 
L 367.768853 244.273489 
L 368.324943 245.498504 
L 368.602988 245.726197 
L 368.881033 245.677106 
L 369.159078 245.34069 
L 369.437123 244.709984 
L 369.993213 242.559315 
L 370.549304 239.253074 
L 371.383439 232.342215 
L 372.495619 220.396353 
L 374.998025 191.585166 
L 375.83216 184.172201 
L 376.666295 178.601681 
L 377.50043 174.841439 
L 378.056521 173.18872 
L 378.612611 172.049924 
L 379.446746 170.930678 
L 380.836971 169.26709 
L 381.671107 167.713318 
L 382.505242 165.519868 
L 383.617422 161.775382 
L 385.007648 156.972302 
L 385.563738 155.520724 
L 386.119828 154.607142 
L 386.397873 154.405964 
L 386.675918 154.400675 
L 386.953963 154.60747 
L 387.232008 155.039807 
L 387.788098 156.614659 
L 388.344188 159.153096 
L 389.178324 164.642138 
L 390.290504 174.254353 
L 392.236819 191.520392 
L 393.070955 196.766678 
L 393.627045 199.112981 
L 394.183135 200.482607 
L 394.46118 200.806768 
L 394.739225 200.900683 
L 395.01727 200.77398 
L 395.295315 200.438549 
L 395.851405 199.190484 
L 396.407496 197.253029 
L 397.241631 193.233071 
L 398.075766 188.05342 
L 399.187946 179.610455 
L 400.856217 164.799186 
L 402.524487 150.534629 
L 403.358622 144.999085 
L 403.914713 142.239629 
L 404.470803 140.34481 
L 405.026893 139.374259 
L 405.304938 139.242596 
L 405.582983 139.344681 
L 405.861028 139.675881 
L 406.417118 140.990653 
L 406.973208 143.09048 
L 407.807344 147.40017 
L 410.587794 163.760797 
L 411.143885 165.818426 
L 411.699975 167.048656 
L 411.97802 167.314208 
L 412.256065 167.33113 
L 412.53411 167.091401 
L 412.812155 166.590461 
L 413.368245 164.804656 
L 413.924335 162.014126 
L 414.75847 156.207598 
L 416.148696 144.103338 
L 417.260876 135.079122 
L 417.816966 131.683926 
L 418.373056 129.352977 
L 418.929147 128.193101 
L 419.207192 128.050277 
L 419.485237 128.180956 
L 419.763282 128.56205 
L 420.319372 129.947102 
L 421.153507 132.970031 
L 422.265688 136.849609 
L 422.821778 137.991905 
L 423.099823 138.265626 
L 423.377868 138.322704 
L 423.655913 138.160113 
L 423.933958 137.782521 
L 424.490048 136.441562 
L 425.324183 133.36947 
L 426.436364 128.919728 
L 426.436364 128.919728 
" clip-path="url(#pb0ba231ab4)" style="fill: none; stroke-dasharray: 11.1,4.8; stroke-dashoffset: 0; stroke: #000000; stroke-width: 3"/>
   </g>
   <g id="line2d_2">
    <path d="M 27.163636 190.881516 
L 27.997772 189.165153 
L 29.387997 185.441492 
L 30.500177 182.650452 
L 31.334312 181.202923 
L 31.890403 180.6344 
L 32.446493 180.364874 
L 33.002583 180.330517 
L 34.948898 180.598548 
L 35.504989 180.387814 
L 36.061079 179.952669 
L 36.895214 178.923326 
L 38.84153 176.180319 
L 39.39762 175.77953 
L 39.95371 175.703049 
L 40.5098 175.981693 
L 41.06589 176.603829 
L 41.900025 178.05785 
L 44.402431 183.038366 
L 44.958521 183.666702 
L 45.514611 184.021572 
L 46.070701 184.123912 
L 46.626792 184.02646 
L 48.851152 183.25395 
L 49.407242 183.329629 
L 49.963332 183.582379 
L 50.797468 184.242446 
L 52.743783 185.989554 
L 53.299873 186.219727 
L 53.855964 186.245951 
L 54.412054 186.070266 
L 55.246189 185.512795 
L 56.914459 184.258712 
L 57.47055 184.088571 
L 58.02664 184.126246 
L 58.58273 184.371702 
L 59.416865 185.035889 
L 60.80709 186.195948 
L 61.363181 186.359342 
L 61.919271 186.198647 
L 62.475361 185.644276 
L 63.031451 184.660449 
L 63.587541 183.249136 
L 64.421676 180.420457 
L 65.533857 175.719826 
L 68.036262 164.712456 
L 69.148443 160.733711 
L 70.260623 157.546732 
L 71.094758 155.70611 
L 71.928893 154.391594 
L 72.484984 153.845866 
L 73.041074 153.592387 
L 73.597164 153.647642 
L 74.153254 154.014549 
L 74.709344 154.679028 
L 75.543479 156.153875 
L 76.65566 158.703983 
L 78.601975 163.233597 
L 79.714155 165.239947 
L 81.660471 168.055205 
L 82.772651 169.91709 
L 83.884832 172.271272 
L 86.387237 178.0042 
L 87.221372 179.238187 
L 87.777463 179.710023 
L 88.333553 179.887823 
L 88.889643 179.792704 
L 89.445733 179.471059 
L 90.279868 178.709929 
L 91.948139 177.100064 
L 92.782274 176.642015 
L 93.616409 176.527421 
L 94.450544 176.725207 
L 95.562725 177.31368 
L 98.06513 178.790386 
L 99.177311 179.17779 
L 100.567536 179.40355 
L 104.460167 179.758968 
L 105.572347 180.209686 
L 106.406483 180.797684 
L 107.240618 181.667318 
L 108.074753 182.855168 
L 109.186933 184.900834 
L 111.689339 189.896522 
L 112.523474 190.931883 
L 113.079564 191.280736 
L 113.635655 191.329645 
L 114.191745 191.08594 
L 114.747835 190.585948 
L 115.58197 189.496062 
L 117.250241 187.209572 
L 117.806331 186.758562 
L 118.362421 186.584482 
L 118.918511 186.720668 
L 119.474601 187.167702 
L 120.030691 187.891157 
L 121.142872 189.878906 
L 122.533097 192.339111 
L 123.089187 192.992576 
L 123.645277 193.351021 
L 124.201367 193.389572 
L 124.757458 193.122234 
L 125.313548 192.601343 
L 127.815953 189.731888 
L 128.372044 189.59439 
L 128.928134 189.785867 
L 129.484224 190.306064 
L 130.318359 191.597348 
L 132.264675 195.168447 
L 132.820765 195.770086 
L 133.376855 195.999931 
L 133.932945 195.817536 
L 134.489035 195.233039 
L 135.045125 194.307458 
L 136.435351 191.273077 
L 137.269486 189.693812 
L 137.825576 189.02904 
L 138.381666 188.782601 
L 138.659711 188.830379 
L 139.215801 189.268514 
L 139.771892 190.128665 
L 140.606027 192.031107 
L 143.386478 199.184211 
L 144.220613 200.551721 
L 145.054748 201.51206 
L 148.391289 204.758378 
L 150.337604 207.15111 
L 151.17174 207.845861 
L 152.005875 208.209157 
L 152.84001 208.293479 
L 154.508281 208.321745 
L 155.342416 208.66148 
L 156.176551 209.348572 
L 158.400912 211.673138 
L 158.957002 211.850756 
L 159.513092 211.664276 
L 160.069182 211.051039 
L 160.625272 209.991059 
L 161.459407 207.638811 
L 162.849633 202.523167 
L 163.961813 198.621269 
L 164.795948 196.461883 
L 165.352038 195.497532 
L 165.908129 194.896003 
L 166.464219 194.585373 
L 167.576399 194.374383 
L 168.132489 194.211719 
L 168.688579 193.85601 
L 169.24467 193.233363 
L 169.80076 192.317374 
L 170.634895 190.46158 
L 172.58121 185.662621 
L 173.137301 184.768332 
L 173.693391 184.301749 
L 173.971436 184.251126 
L 174.249481 184.328738 
L 174.805571 184.870417 
L 175.361661 185.901912 
L 176.195796 188.212984 
L 177.586022 193.186971 
L 178.976247 197.993151 
L 179.810382 200.275556 
L 180.644518 202.020805 
L 181.478653 203.313766 
L 182.590833 204.597719 
L 184.537149 206.412155 
L 185.649329 207.237147 
L 186.483464 207.61204 
L 187.317599 207.689616 
L 188.151735 207.453534 
L 188.98587 206.965395 
L 191.488276 205.268873 
L 192.600456 204.864219 
L 194.268726 204.32812 
L 195.102861 203.79844 
L 195.936997 202.987015 
L 197.327222 201.180385 
L 198.439402 199.793727 
L 199.273538 199.098976 
L 199.829628 198.86935 
L 200.385718 198.829304 
L 201.219853 199.053313 
L 202.888124 199.70408 
L 203.444214 199.69467 
L 204.000304 199.463949 
L 204.556394 198.977999 
L 205.112484 198.230692 
L 205.946619 196.672763 
L 207.336845 193.38297 
L 208.72707 190.234105 
L 209.561205 188.846645 
L 210.117296 188.214224 
L 210.673386 187.829447 
L 211.229476 187.683012 
L 211.785566 187.750959 
L 212.619701 188.176075 
L 213.731881 189.12777 
L 216.790377 192.006926 
L 218.180603 192.941917 
L 219.292783 193.447416 
L 220.404963 193.717125 
L 221.795189 193.766216 
L 223.741504 193.738461 
L 224.575639 193.916225 
L 225.409775 194.30516 
L 226.24391 194.915224 
L 229.024361 197.303141 
L 229.580451 197.454682 
L 230.136541 197.3689 
L 230.692631 197.013045 
L 231.248721 196.37705 
L 232.082856 194.941447 
L 233.195037 192.422814 
L 234.585262 189.283905 
L 235.419397 187.949694 
L 235.975487 187.419759 
L 236.531578 187.199105 
L 237.087668 187.268255 
L 237.643758 187.576296 
L 238.755938 188.590759 
L 239.868119 189.524072 
L 240.424209 189.758185 
L 240.980299 189.769673 
L 241.536389 189.543329 
L 242.092479 189.092064 
L 242.926614 188.080883 
L 245.98511 183.863504 
L 247.375336 182.597166 
L 248.487516 181.554912 
L 249.599696 180.151988 
L 250.989921 177.881983 
L 252.102102 176.128018 
L 252.936237 175.25419 
L 253.492327 175.01603 
L 254.048417 175.103161 
L 254.604507 175.52193 
L 255.160598 176.242467 
L 255.994733 177.739342 
L 257.663003 180.950282 
L 258.219093 181.694964 
L 258.775184 182.151518 
L 259.331274 182.297405 
L 259.887364 182.150606 
L 260.443454 181.765646 
L 261.555634 180.61642 
L 262.667815 179.547905 
L 263.50195 179.071037 
L 264.61413 178.803954 
L 265.448265 178.570425 
L 266.004356 178.213767 
L 266.560446 177.589078 
L 267.116536 176.634611 
L 267.950671 174.56057 
L 269.062851 170.913573 
L 270.453077 166.474116 
L 271.009167 165.276492 
L 271.565257 164.622808 
L 271.843302 164.526267 
L 272.121347 164.589217 
L 272.399392 164.810565 
L 272.955482 165.701607 
L 273.511573 167.103583 
L 274.623753 170.776074 
L 275.735933 174.232907 
L 276.292023 175.396066 
L 276.848113 176.005473 
L 277.126159 176.082684 
L 277.404204 176.006275 
L 277.960294 175.411676 
L 278.516384 174.296405 
L 279.350519 171.921762 
L 281.57488 164.968743 
L 282.409015 163.14395 
L 283.24315 161.885818 
L 284.077285 161.059623 
L 285.189466 160.327087 
L 286.579691 159.692259 
L 287.413826 159.52602 
L 287.969916 159.578503 
L 288.526007 159.801309 
L 289.082097 160.210377 
L 289.916232 161.146462 
L 292.418638 164.384173 
L 292.974728 164.688676 
L 293.530818 164.725549 
L 294.086908 164.497454 
L 294.921043 163.753247 
L 296.867359 161.618006 
L 297.423449 161.320506 
L 297.979539 161.28159 
L 298.535629 161.518 
L 299.091719 162.011573 
L 299.925855 163.117289 
L 301.87217 165.926055 
L 302.42826 166.41164 
L 302.98435 166.663186 
L 303.540441 166.681787 
L 304.096531 166.504169 
L 306.320891 165.428397 
L 306.876982 165.509364 
L 307.433072 165.845014 
L 307.989162 166.430788 
L 308.823297 167.670209 
L 310.491567 170.270356 
L 311.047658 170.783806 
L 311.603748 170.987392 
L 312.159838 170.852227 
L 312.715928 170.390056 
L 313.550063 169.201404 
L 316.052469 164.926436 
L 316.608559 164.366776 
L 317.164649 164.037983 
L 317.720739 163.927838 
L 318.27683 164.00038 
L 319.110965 164.332456 
L 320.50119 164.966153 
L 321.335325 165.100224 
L 321.891416 165.01426 
L 322.447506 164.77092 
L 323.281641 164.109504 
L 324.115776 163.120571 
L 325.227956 161.384368 
L 326.618182 158.754934 
L 329.398633 153.388984 
L 330.232768 152.228452 
L 331.066903 151.48822 
L 331.622993 151.266654 
L 332.179083 151.270629 
L 332.735173 151.489497 
L 333.569309 152.156639 
L 334.681489 153.435814 
L 336.349759 155.324615 
L 337.183895 155.973558 
L 338.296075 156.497767 
L 340.24239 157.20853 
L 341.076526 157.780116 
L 341.910661 158.609083 
L 343.300886 160.404152 
L 344.691112 162.182881 
L 345.803292 163.227433 
L 346.915472 163.903766 
L 348.861788 164.940477 
L 349.973968 165.889327 
L 351.364193 167.475376 
L 353.310509 169.693263 
L 354.700734 170.864664 
L 356.369005 171.904985 
L 357.75923 172.544664 
L 358.593365 172.738804 
L 359.427501 172.698247 
L 360.261636 172.374596 
L 361.095771 171.77872 
L 362.485996 170.417228 
L 363.876222 169.135937 
L 364.710357 168.6358 
L 365.544492 168.402453 
L 366.378628 168.418938 
L 367.490808 168.722712 
L 371.383439 170.115351 
L 372.773664 170.304858 
L 374.16389 170.256096 
L 375.27607 169.974205 
L 376.110205 169.562949 
L 376.94434 168.932789 
L 377.778476 168.046671 
L 378.612611 166.883585 
L 379.724791 164.91367 
L 381.115016 161.929512 
L 384.729602 153.855714 
L 386.675918 150.196389 
L 388.622233 146.967651 
L 391.402684 142.470168 
L 392.514865 140.022582 
L 393.627045 136.86872 
L 396.407496 128.250033 
L 396.963586 127.175757 
L 397.519676 126.528236 
L 398.075766 126.333513 
L 398.631856 126.569012 
L 399.187946 127.16507 
L 400.022082 128.492279 
L 401.412307 130.773334 
L 401.968397 131.388176 
L 402.524487 131.745746 
L 403.080577 131.850164 
L 403.636668 131.747058 
L 405.861028 130.942491 
L 406.417118 131.037135 
L 406.973208 131.322819 
L 407.807344 132.043319 
L 409.197569 133.394964 
L 409.753659 133.700342 
L 410.309749 133.730066 
L 410.865839 133.419655 
L 411.42193 132.740514 
L 411.97802 131.705225 
L 412.812155 129.616267 
L 415.036516 123.617386 
L 415.592606 122.693701 
L 416.148696 122.172702 
L 416.704786 122.070106 
L 417.260876 122.35455 
L 417.816966 122.952687 
L 418.929147 124.651872 
L 420.041327 126.214688 
L 420.597417 126.697064 
L 421.153507 126.91316 
L 421.709597 126.866038 
L 422.265688 126.600961 
L 424.212003 125.289654 
L 424.768093 125.242095 
L 425.324183 125.494516 
L 425.880273 126.082405 
L 426.436364 127.00536 
L 426.436364 127.00536 
" clip-path="url(#pb0ba231ab4)" style="fill: none; stroke: #ff00ff; stroke-width: 3; stroke-linecap: square"/>
   </g>
   <g id="patch_3">
    <path d="M 7.2 331.2 
L 7.2 7.2 
" style="fill: none; stroke: #000000; stroke-width: 0.8; stroke-linejoin: miter; stroke-linecap: square"/>
   </g>
   <g id="patch_4">
    <path d="M 446.4 331.2 
L 446.4 7.2 
" style="fill: none; stroke: #000000; stroke-width: 0.8; stroke-linejoin: miter; stroke-linecap: square"/>
   </g>
   <g id="patch_5">
    <path d="M 7.2 331.2 
L 446.4 331.2 
" style="fill: none; stroke: #000000; stroke-width: 0.8; stroke-linejoin: miter; stroke-linecap: square"/>
   </g>
   <g id="patch_6">
    <path d="M 7.2 7.2 
L 446.4 7.2 
" style="fill: none; stroke: #000000; stroke-width: 0.8; stroke-linejoin: miter; stroke-linecap: square"/>
   </g>
  </g>
 </g>
 <defs>
  <clipPath id="pb0ba231ab4">
   <rect x="7.2" y="7.2" width="439.2" height="324"/>
  </clipPath>
 </defs>
</svg>
