<?xml version="1.0" encoding="utf-8" standalone="no"?>
<!DOCTYPE svg PUBLIC "-//W3C//DTD SVG 1.1//EN"
  "http://www.w3.org/Graphics/SVG/1.1/DTD/svg11.dtd">
<svg xmlns:xlink="http://www.w3.org/1999/xlink" width="453.6pt" height="338.4pt" viewBox="0 0 453.6 338.4" xmlns="http://www.w3.org/2000/svg" version="1.1">
 <metadata>
  <rdf:RDF xmlns:dc="http://purl.org/dc/elements/1.1/" xmlns:cc="http://creativecommons.org/ns#" xmlns:rdf="http://www.w3.org/1999/02/22-rdf-syntax-ns#">
   <cc:Work>
    <dc:type rdf:resource="http://purl.org/dc/dcmitype/StillImage"/>
    <dc:date>2025-05-15T17:08:19.079319</dc:date>
    <dc:format>image/svg+xml</dc:format>
    <dc:creator>
     <cc:Agent>
      <dc:title>Matplotlib v3.10.1, https://matplotlib.org/</dc:title>
     </cc:Agent>
    </dc:creator>
   </cc:Work>
  </rdf:RDF>
 </metadata>
 <defs>
  <style type="text/css">*{stroke-linejoin: round; stroke-linecap: butt}</style>
 </defs>
 <g id="figure_1">
  <g id="patch_1">
   <path d="M 0 338.4 
L 453.6 338.4 
L 453.6 0 
L 0 0 
z
" style="fill: #ffffff"/>
  </g>
  <g id="axes_1">
   <g id="patch_2">
    <path d="M 7.2 331.2 
L 446.4 331.2 
L 446.4 7.2 
L 7.2 7.2 
z
" style="fill: #ffffff"/>
   </g>
   <g id="matplotlib.axis_1"/>
   <g id="matplotlib.axis_2"/>
   <g id="line2d_1">
    <path d="M 27.163636 175.499651 
L 27.719727 175.016804 
L 28.553862 173.750072 
L 29.944087 171.489417 
L 30.500177 170.898958 
L 31.056267 170.619593 
L 31.612358 170.707593 
L 32.168448 171.201182 
L 32.724538 172.129153 
L 33.280628 173.514863 
L 33.836718 175.384107 
L 34.670853 179.165378 
L 35.504989 184.245358 
L 36.339124 190.79324 
L 37.173259 198.974033 
L 38.285439 212.580811 
L 39.39762 229.089168 
L 43.012206 286.547832 
L 43.846341 294.934355 
L 44.402431 298.455184 
L 44.680476 299.539107 
L 44.958521 300.162855 
L 45.236566 300.328738 
L 45.514611 300.046312 
L 45.792656 299.332566 
L 46.348747 296.717348 
L 46.904837 292.759639 
L 48.017017 282.331681 
L 49.407242 268.861993 
L 50.241378 262.494421 
L 51.075513 257.815846 
L 53.299873 247.319062 
L 53.855964 242.95008 
L 54.412054 237.162412 
L 55.246189 225.549915 
L 56.358369 205.219316 
L 59.416865 144.558035 
L 60.251 132.397237 
L 61.085135 122.769839 
L 61.919271 115.232718 
L 63.031451 107.417105 
L 64.143631 101.116298 
L 65.255812 95.810853 
L 66.367992 91.59289 
L 67.202127 89.386696 
L 67.758217 88.475588 
L 68.314307 88.060694 
L 68.592352 88.04789 
L 68.870398 88.167868 
L 69.426488 88.810727 
L 69.982578 89.992831 
L 70.538668 91.71649 
L 71.372803 95.334439 
L 72.206938 100.24866 
L 73.041074 106.553401 
L 74.153254 117.219254 
L 75.265434 130.213964 
L 78.32393 167.91906 
L 79.158065 175.465987 
L 79.992201 181.038807 
L 80.826336 184.763742 
L 81.382426 186.424071 
L 82.216561 188.120125 
L 83.884832 190.928082 
L 84.718967 192.98307 
L 85.553102 195.697781 
L 87.777463 203.566669 
L 88.333553 204.588323 
L 88.611598 204.795365 
L 88.889643 204.765823 
L 89.167688 204.478713 
L 89.445733 203.918358 
L 90.001823 201.942689 
L 90.557913 198.831633 
L 91.392049 192.271947 
L 92.504229 181.197133 
L 94.172499 164.520706 
L 95.006635 158.100547 
L 95.84077 153.614086 
L 96.39686 151.739658 
L 96.95295 150.713007 
L 97.230995 150.494474 
L 97.50904 150.457562 
L 97.787085 150.590344 
L 98.343175 151.316331 
L 98.899266 152.575756 
L 99.733401 155.272541 
L 100.845581 159.991713 
L 102.235807 167.154849 
L 103.626032 175.48997 
L 105.016257 185.109998 
L 106.684528 198.291701 
L 109.186933 218.289785 
L 110.021069 223.518722 
L 110.577159 226.178097 
L 111.133249 228.003059 
L 111.411294 228.561853 
L 111.689339 228.867387 
L 111.967384 228.910107 
L 112.245429 228.684142 
L 112.523474 228.187242 
L 113.079564 226.393507 
L 113.635655 223.602163 
L 114.46979 217.887069 
L 117.528286 194.39089 
L 118.084376 191.797844 
L 118.640466 190.016787 
L 119.196556 188.982267 
L 119.752646 188.539579 
L 120.308736 188.459011 
L 121.142872 188.372947 
L 121.420917 188.188264 
L 121.698962 187.854687 
L 122.255052 186.572966 
L 122.811142 184.21363 
L 123.367232 180.512803 
L 123.923322 175.278744 
L 124.757458 164.362381 
L 125.591593 149.897332 
L 126.703773 126.230524 
L 129.762269 57.447097 
L 130.596404 43.447907 
L 131.430539 32.977542 
L 131.98663 28.063258 
L 132.54272 24.776638 
L 133.09881 23.034554 
L 133.376855 22.705474 
L 133.6549 22.713905 
L 133.932945 23.040113 
L 134.21099 23.663673 
L 134.76708 25.717912 
L 135.32317 28.706616 
L 136.157306 34.579412 
L 137.269486 44.203437 
L 140.884072 77.429566 
L 141.718207 82.958854 
L 142.552342 86.834558 
L 143.108433 88.37391 
L 143.386478 88.817535 
L 143.664523 89.044812 
L 143.942568 89.060051 
L 144.220613 88.871184 
L 144.776703 87.9281 
L 145.332793 86.33972 
L 146.166928 83.126673 
L 147.835199 76.333152 
L 148.391289 74.738652 
L 148.947379 73.770897 
L 149.225424 73.559733 
L 149.503469 73.544869 
L 149.781514 73.733111 
L 150.059559 74.128395 
L 150.61565 75.544209 
L 151.17174 77.772574 
L 152.005875 82.516541 
L 152.84001 88.681631 
L 154.230236 101.044099 
L 156.176551 118.65418 
L 157.010686 124.470452 
L 157.566776 127.216453 
L 158.122867 128.809705 
L 158.400912 129.116551 
L 158.678957 129.071895 
L 158.957002 128.66081 
L 159.235047 127.872865 
L 159.791137 125.146226 
L 160.347227 120.902219 
L 161.181362 111.915182 
L 162.293543 96.129628 
L 165.352038 49.406642 
L 166.186174 40.364457 
L 167.020309 34.028176 
L 167.576399 31.405713 
L 168.132489 30.082584 
L 168.410534 29.904771 
L 168.688579 30.045297 
L 168.966624 30.498478 
L 169.522715 32.319006 
L 170.078805 35.302964 
L 170.91294 41.766968 
L 171.747075 50.260165 
L 173.137301 67.50925 
L 176.473841 110.973034 
L 178.698202 135.735258 
L 180.922563 160.933799 
L 183.703013 193.240951 
L 184.537149 200.487028 
L 185.093239 204.032715 
L 185.649329 206.400483 
L 186.205419 207.562913 
L 186.483464 207.712807 
L 186.761509 207.600574 
L 187.039554 207.253881 
L 187.595644 206.000827 
L 189.263915 201.188034 
L 189.54196 200.792125 
L 189.820005 200.650663 
L 190.09805 200.808177 
L 190.376095 201.302453 
L 190.65414 202.165344 
L 191.21023 205.082475 
L 191.766321 209.645506 
L 192.600456 219.415553 
L 193.712636 236.566083 
L 195.936997 272.415424 
L 196.771132 282.048568 
L 197.327222 286.587242 
L 197.883312 289.551152 
L 198.439402 291.008998 
L 198.717447 291.220537 
L 198.995493 291.120982 
L 199.273538 290.739751 
L 199.829628 289.258108 
L 200.385718 287.026682 
L 201.219853 282.762127 
L 202.610079 274.372731 
L 204.000304 264.614926 
L 205.112484 255.008139 
L 206.224664 243.091668 
L 207.61489 224.965015 
L 212.063611 162.620671 
L 213.453836 147.71687 
L 214.566017 138.300324 
L 215.400152 132.853165 
L 216.234287 128.875158 
L 216.790377 127.049758 
L 217.346467 125.868779 
L 217.902558 125.293622 
L 218.180603 125.215302 
L 218.458648 125.26483 
L 219.014738 125.702958 
L 219.570828 126.510451 
L 220.404963 128.169656 
L 222.073234 131.574442 
L 222.629324 132.280569 
L 223.185414 132.583543 
L 223.463459 132.554314 
L 223.741504 132.391241 
L 224.297594 131.632776 
L 224.853684 130.266989 
L 225.409775 128.285762 
L 226.24391 124.236243 
L 227.35609 117.296137 
L 229.580451 102.647531 
L 230.414586 98.544924 
L 231.248721 95.732283 
L 231.804811 94.583406 
L 232.360901 93.948978 
L 232.916992 93.729258 
L 233.473082 93.800895 
L 235.975487 94.646174 
L 236.531578 94.525884 
L 237.365713 94.087506 
L 240.146164 92.217949 
L 240.702254 92.161926 
L 241.258344 92.32325 
L 241.814434 92.746014 
L 242.370524 93.472065 
L 242.926614 94.543809 
L 243.482704 96.003404 
L 244.31684 99.007036 
L 245.150975 103.09559 
L 245.98511 108.363437 
L 246.819245 114.8671 
L 247.931426 125.493606 
L 249.043606 138.354098 
L 250.155786 153.481554 
L 251.546012 175.733986 
L 252.936237 201.74258 
L 255.438643 254.43267 
L 256.828868 281.730605 
L 257.941048 299.082554 
L 258.775184 308.365445 
L 259.331274 312.578599 
L 259.887364 315.219236 
L 260.165409 315.978014 
L 260.443454 316.387787 
L 260.721499 316.472727 
L 260.999544 316.260315 
L 261.277589 315.781028 
L 261.833679 314.151802 
L 262.667815 310.526109 
L 264.61413 300.202452 
L 266.560446 289.401008 
L 267.672626 281.685761 
L 268.506761 274.419698 
L 269.618942 262.332598 
L 270.731122 247.507928 
L 272.121347 225.79037 
L 274.345708 186.734727 
L 277.126159 138.044129 
L 278.516384 117.294076 
L 279.628564 103.833694 
L 280.462699 95.837521 
L 281.296835 89.568693 
L 282.13097 84.740348 
L 283.24315 79.789402 
L 284.911421 73.621939 
L 286.023601 69.976448 
L 286.857736 68.000716 
L 287.413826 67.371785 
L 287.691871 67.334436 
L 287.969916 67.511499 
L 288.247962 67.920897 
L 288.804052 69.495849 
L 289.360142 72.132677 
L 289.916232 75.82957 
L 290.750367 83.173515 
L 291.862547 95.415756 
L 294.642998 127.629787 
L 296.033224 140.477288 
L 297.423449 151.04621 
L 301.31608 177.459644 
L 303.540441 191.911389 
L 304.652621 197.808292 
L 305.486756 201.275722 
L 306.320891 203.787201 
L 306.876982 204.901727 
L 307.433072 205.566696 
L 307.989162 205.79391 
L 308.545252 205.60954 
L 309.101342 205.04981 
L 309.657432 204.165059 
L 310.491567 202.364204 
L 313.828108 194.181538 
L 314.662244 192.885951 
L 315.496379 192.036425 
L 316.330514 191.599359 
L 316.886604 191.525286 
L 317.442694 191.63677 
L 317.998785 191.968411 
L 318.554875 192.582166 
L 319.110965 193.566659 
L 319.667055 195.036435 
L 320.223145 197.12315 
L 320.779235 199.968769 
L 321.335325 203.711754 
L 322.169461 211.267987 
L 323.003596 221.37411 
L 323.837731 234.011447 
L 325.227956 259.416592 
L 327.174272 295.581711 
L 328.008407 307.151863 
L 328.564497 312.49166 
L 329.120587 315.595533 
L 329.398633 316.257442 
L 329.676678 316.316338 
L 329.954723 315.776343 
L 330.232768 314.649513 
L 330.788858 310.727779 
L 331.344948 304.80352 
L 332.179083 292.929644 
L 333.569309 268.507368 
L 335.793669 228.835847 
L 337.46194 203.438634 
L 341.632616 143.418651 
L 345.525247 81.475463 
L 346.637427 68.538399 
L 347.471562 61.430038 
L 348.027653 58.01326 
L 348.583743 55.657172 
L 349.139833 54.333418 
L 349.417878 54.042998 
L 349.695923 53.989785 
L 349.973968 54.163912 
L 350.252013 54.554762 
L 350.808103 55.938099 
L 351.364193 58.040303 
L 352.198329 62.305233 
L 353.310509 69.506592 
L 354.978779 82.115199 
L 358.037275 107.299125 
L 364.988402 167.24822 
L 366.378628 181.368262 
L 368.046898 200.898863 
L 373.607799 269.647377 
L 374.998025 283.302933 
L 376.110205 292.110159 
L 376.94434 297.106261 
L 377.50043 299.536235 
L 378.056521 301.174329 
L 378.612611 301.97464 
L 378.890656 302.050274 
L 379.168701 301.906251 
L 379.446746 301.541383 
L 380.002836 300.147678 
L 380.558926 297.875905 
L 381.115016 294.741616 
L 381.949152 288.476847 
L 382.783287 280.430771 
L 383.895467 267.185675 
L 385.285693 247.39507 
L 388.900279 193.402712 
L 390.012459 180.801661 
L 390.846594 173.60099 
L 391.402684 170.025137 
L 391.958774 167.523713 
L 392.514865 166.181285 
L 392.79291 165.970309 
L 393.070955 166.07817 
L 393.349 166.513239 
L 393.627045 167.28101 
L 394.183135 169.825028 
L 394.739225 173.697047 
L 395.57336 181.80383 
L 396.685541 195.882588 
L 398.631856 221.946518 
L 399.465991 229.996154 
L 400.022082 233.309567 
L 400.300127 234.228919 
L 400.578172 234.614771 
L 400.856217 234.442955 
L 401.134262 233.695045 
L 401.412307 232.359799 
L 401.968397 227.912373 
L 402.524487 221.139213 
L 403.358622 206.953155 
L 404.470803 181.986826 
L 408.085389 92.38733 
L 408.919524 78.703543 
L 409.475614 72.241038 
L 410.031704 68.043061 
L 410.309749 66.798314 
L 410.587794 66.112548 
L 410.865839 65.969836 
L 411.143885 66.347632 
L 411.42193 67.218455 
L 411.97802 70.295098 
L 412.53411 74.860628 
L 413.64629 86.75349 
L 415.036516 101.803814 
L 415.870651 108.140345 
L 416.426741 110.494372 
L 416.704786 111.027621 
L 416.982831 111.113185 
L 417.260876 110.746382 
L 417.538921 109.930395 
L 418.095011 107.001835 
L 418.651102 102.49314 
L 419.485237 93.335161 
L 420.875462 74.370536 
L 422.821778 48.032112 
L 423.933958 36.166605 
L 424.768093 29.429482 
L 425.602228 24.679956 
L 426.158319 22.624968 
L 426.436364 21.927273 
L 426.436364 21.927273 
" clip-path="url(#pfddb24d389)" style="fill: none; stroke-dasharray: 11.1,4.8; stroke-dashoffset: 0; stroke: #000000; stroke-width: 3"/>
   </g>
   <g id="line2d_2">
    <path d="M 27.163636 181.212434 
L 28.275817 181.252219 
L 28.831907 181.401801 
L 29.109952 181.41323 
L 29.944087 180.995275 
L 30.500177 180.519985 
L 31.334312 180.473955 
L 31.612358 180.175291 
L 32.724538 181.235293 
L 33.280628 181.550946 
L 34.948898 181.480058 
L 35.504989 181.724698 
L 35.783034 181.758549 
L 36.061079 182.758656 
L 36.617169 183.528239 
L 36.895214 183.778187 
L 37.451304 183.516872 
L 37.729349 183.267797 
L 38.563484 181.89614 
L 39.119575 180.820648 
L 39.95371 180.183785 
L 40.231755 180.101468 
L 40.787845 180.686118 
L 41.343935 181.031749 
L 41.62198 180.896907 
L 42.456115 181.210498 
L 42.734161 181.096953 
L 43.012206 181.236605 
L 43.290251 181.241539 
L 43.846341 181.076593 
L 44.124386 181.046114 
L 44.402431 180.855374 
L 44.680476 180.45678 
L 44.958521 179.838965 
L 45.236566 179.981178 
L 45.792656 179.891928 
L 46.904837 179.354807 
L 48.295062 179.081687 
L 49.129197 178.803571 
L 49.407242 179.714865 
L 49.685287 180.129948 
L 49.963332 180.274034 
L 50.519423 180.229565 
L 51.075513 179.86857 
L 51.909648 179.080563 
L 52.743783 178.499598 
L 53.021828 178.408599 
L 53.299873 178.487918 
L 53.577918 178.978073 
L 53.855964 182.529068 
L 55.246189 181.793587 
L 55.524234 181.727758 
L 56.914459 180.841883 
L 57.192504 180.835887 
L 57.47055 180.961799 
L 57.748595 181.275577 
L 58.02664 181.7746 
L 58.304685 181.296063 
L 58.860775 181.609779 
L 59.972955 182.567166 
L 60.251 182.983748 
L 60.529045 182.524009 
L 61.085135 182.773896 
L 61.363181 182.838163 
L 61.641226 182.286115 
L 62.475361 182.294733 
L 62.753406 180.700795 
L 63.865586 179.826412 
L 64.143631 179.751402 
L 64.421676 179.804927 
L 64.977767 180.314255 
L 65.533857 181.566809 
L 65.811902 182.394038 
L 66.089947 182.824297 
L 66.924082 184.738323 
L 67.202127 184.087157 
L 67.758217 185.30511 
L 68.314307 186.047462 
L 69.148443 186.633111 
L 69.426488 186.574215 
L 71.372803 187.3408 
L 71.650848 188.180083 
L 72.763029 188.824691 
L 74.709344 188.422037 
L 75.821524 187.503497 
L 76.65566 186.77601 
L 77.21175 185.873397 
L 78.045885 183.21752 
L 78.88002 182.038227 
L 79.158065 182.113486 
L 79.43611 182.513142 
L 79.714155 183.230823 
L 80.548291 185.998059 
L 81.104381 186.495333 
L 81.938516 186.970373 
L 83.050696 187.200711 
L 84.440922 187.86899 
L 84.718967 187.852127 
L 84.997012 187.712787 
L 86.109192 186.203976 
L 87.221372 184.454835 
L 88.889643 181.886272 
L 89.167688 181.801269 
L 89.445733 182.736047 
L 90.279868 181.109569 
L 91.114004 180.131197 
L 91.392049 179.989921 
L 91.948139 180.492629 
L 92.504229 181.656996 
L 93.338364 183.926708 
L 93.894454 185.2138 
L 94.450544 185.133544 
L 94.72859 185.22754 
L 95.28468 185.559868 
L 95.84077 186.025415 
L 96.118815 186.516756 
L 96.95295 187.01453 
L 97.230995 187.080671 
L 97.787085 186.647414 
L 98.343175 186.017233 
L 99.177311 183.15369 
L 99.733401 180.848566 
L 100.289491 178.188067 
L 100.845581 176.697306 
L 101.123626 176.273543 
L 101.401671 176.080116 
L 101.957761 176.02147 
L 102.513852 176.313265 
L 102.791897 177.070855 
L 103.347987 176.92171 
L 103.626032 176.966866 
L 103.904077 177.330422 
L 104.182122 177.477756 
L 104.460167 177.822138 
L 104.738212 178.383367 
L 105.016257 179.692132 
L 106.128438 182.703445 
L 106.684528 183.177611 
L 106.962573 183.131081 
L 107.240618 182.763403 
L 108.352798 180.139878 
L 109.464978 176.510563 
L 110.021069 174.590792 
L 110.855204 172.674081 
L 112.245429 170.565818 
L 113.35761 169.072184 
L 114.747835 166.470394 
L 115.860015 166.141876 
L 116.13806 166.91252 
L 117.250241 165.237888 
L 118.640466 162.447856 
L 119.196556 162.041392 
L 120.308736 162.348801 
L 120.586781 163.354029 
L 121.142872 163.351469 
L 121.977007 163.580932 
L 122.811142 163.105392 
L 123.089187 162.784181 
L 123.367232 162.663204 
L 123.645277 162.672073 
L 123.923322 162.921896 
L 124.479413 163.024387 
L 124.757458 162.954061 
L 125.035503 162.087735 
L 125.869638 160.99613 
L 126.981818 159.39351 
L 127.537908 159.078669 
L 128.928134 158.723857 
L 130.040314 157.795325 
L 130.874449 157.394108 
L 131.430539 157.357508 
L 133.6549 157.688525 
L 134.76708 157.837045 
L 136.435351 159.421802 
L 137.269486 159.052938 
L 137.825576 158.755273 
L 138.103621 158.806237 
L 138.381666 159.286648 
L 138.659711 159.517547 
L 139.215801 160.46463 
L 139.771892 161.597955 
L 140.327982 162.270356 
L 140.884072 162.343055 
L 141.996252 162.325754 
L 142.274297 162.293152 
L 142.552342 162.078804 
L 142.830387 162.044453 
L 143.108433 161.544993 
L 143.386478 161.406528 
L 143.664523 161.621064 
L 144.220613 163.074102 
L 144.498658 163.874412 
L 144.776703 164.275504 
L 145.332793 164.264824 
L 146.444973 165.020854 
L 146.723018 164.947405 
L 147.279109 164.271507 
L 148.391289 161.862644 
L 148.669334 161.713311 
L 148.947379 161.863206 
L 149.225424 162.146006 
L 149.503469 162.253056 
L 149.781514 162.190725 
L 150.337604 161.661036 
L 150.893695 161.237022 
L 151.17174 161.190805 
L 151.72783 160.660991 
L 152.28392 160.14067 
L 152.84001 160.095452 
L 153.3961 160.204251 
L 154.230236 160.737437 
L 155.342416 161.809181 
L 155.898506 162.01716 
L 156.732641 162.154625 
L 157.566776 162.105597 
L 158.400912 162.078804 
L 159.235047 162.255429 
L 159.791137 162.382152 
L 160.069182 162.296463 
L 161.181362 161.081507 
L 161.737453 160.925055 
L 162.015498 160.915686 
L 162.849633 161.234711 
L 163.961813 161.343884 
L 164.517903 161.110799 
L 166.742264 159.186718 
L 167.576399 158.921655 
L 168.132489 158.968872 
L 168.688579 159.213949 
L 169.24467 159.439165 
L 169.522715 159.942685 
L 170.91294 160.891828 
L 171.747075 161.352254 
L 172.02512 161.346757 
L 172.58121 160.946665 
L 173.137301 160.412729 
L 174.527526 159.162735 
L 175.361661 158.76614 
L 176.473841 158.165064 
L 177.029932 158.034281 
L 177.586022 158.058514 
L 178.142112 158.234702 
L 178.420157 157.874456 
L 178.976247 157.560115 
L 180.088427 156.20276 
L 180.644518 155.979418 
L 181.200608 155.943568 
L 181.478653 155.927142 
L 181.756698 155.751953 
L 182.590833 154.677211 
L 183.146923 153.987198 
L 183.424968 153.794271 
L 183.703013 153.830308 
L 184.259104 154.584089 
L 184.537149 154.607573 
L 185.093239 154.068328 
L 185.649329 153.516842 
L 185.927374 153.354457 
L 186.761509 153.495482 
L 187.317599 153.636133 
L 187.87369 153.430403 
L 188.151735 153.173272 
L 188.98587 151.487149 
L 189.54196 150.540379 
L 190.09805 150.108184 
L 190.932185 150.044291 
L 191.766321 150.102188 
L 192.322411 150.539629 
L 193.156546 151.174182 
L 193.712636 151.455234 
L 194.268726 151.353368 
L 195.102861 151.082559 
L 195.658952 151.267428 
L 196.215042 151.733475 
L 197.327222 153.262084 
L 197.605267 153.35708 
L 198.439402 153.106569 
L 198.717447 153.204562 
L 198.995493 153.444643 
L 200.663763 155.581011 
L 201.219853 156.058799 
L 201.497898 155.987412 
L 201.775943 155.59725 
L 202.332033 153.638319 
L 202.888124 151.780317 
L 203.444214 150.528137 
L 204.000304 149.928123 
L 204.556394 149.731824 
L 204.834439 149.767486 
L 205.946619 150.443822 
L 206.50271 150.505029 
L 206.780755 150.350638 
L 207.61489 149.526656 
L 208.17098 149.380884 
L 208.72707 149.372952 
L 209.83925 149.224057 
L 211.229476 149.35459 
L 212.341656 149.160977 
L 212.897746 149.368643 
L 213.453836 149.703969 
L 214.009927 150.132229 
L 214.844062 150.260389 
L 215.400152 149.944799 
L 216.234287 149.605725 
L 216.512332 149.568127 
L 217.346467 149.994201 
L 218.458648 149.991453 
L 221.239099 149.058049 
L 221.795189 149.397435 
L 222.351279 149.83269 
L 224.297594 151.73641 
L 225.68782 152.492502 
L 226.24391 152.36478 
L 227.634135 151.150948 
L 229.024361 150.715505 
L 229.302406 150.732306 
L 229.858496 151.114162 
L 230.692631 152.157738 
L 231.526766 152.191589 
L 233.473082 152.278028 
L 234.585262 152.940748 
L 235.697442 152.845441 
L 237.087668 152.404814 
L 237.643758 151.907415 
L 239.033983 150.072146 
L 239.590073 150.003382 
L 240.702254 150.008192 
L 241.536389 149.710152 
L 242.926614 149.021762 
L 243.482704 149.026696 
L 244.31684 149.486622 
L 245.150975 149.91788 
L 246.263155 150.264948 
L 247.09729 150.206177 
L 247.931426 150.042792 
L 249.877741 150.412219 
L 250.433831 150.255767 
L 251.546012 149.695912 
L 252.102102 149.697473 
L 252.658192 150.117302 
L 253.492327 150.925232 
L 254.048417 150.929105 
L 254.604507 150.526514 
L 255.160598 149.943612 
L 255.994733 150.304358 
L 257.106913 150.259639 
L 257.384958 150.387549 
L 257.663003 150.851284 
L 258.219093 150.977695 
L 258.497139 150.913303 
L 259.053229 150.605208 
L 259.887364 150.352449 
L 260.721499 150.408097 
L 260.999544 150.540878 
L 261.833679 151.500514 
L 262.111724 151.966498 
L 262.667815 152.285211 
L 263.223905 152.392947 
L 264.336085 152.663444 
L 265.17022 152.394509 
L 265.72631 152.17329 
L 266.282401 152.225628 
L 266.560446 152.658073 
L 267.672626 152.782485 
L 268.506761 152.526665 
L 269.340896 152.28927 
L 269.618942 152.469019 
L 270.175032 153.24722 
L 270.731122 154.24589 
L 271.009167 155.048637 
L 271.287212 155.021531 
L 272.121347 154.185933 
L 272.399392 154.211227 
L 272.955482 153.433901 
L 273.789618 152.2829 
L 274.345708 151.968746 
L 274.901798 151.834404 
L 275.179843 151.917845 
L 276.013978 151.50676 
L 277.126159 151.410328 
L 277.682249 151.322202 
L 278.516384 150.710009 
L 279.072474 150.522641 
L 279.350519 150.598713 
L 279.628564 150.880326 
L 279.906609 151.866818 
L 280.184654 151.953694 
L 281.57488 153.007139 
L 282.13097 152.994398 
L 282.965105 152.963108 
L 283.521195 152.920388 
L 283.79924 152.844941 
L 284.077285 152.932692 
L 284.35533 153.183827 
L 284.911421 152.690612 
L 285.467511 152.619475 
L 286.023601 153.13405 
L 286.579691 153.493421 
L 287.413826 153.20731 
L 287.969916 153.300182 
L 288.526007 153.699963 
L 288.804052 153.961716 
L 289.082097 153.883771 
L 289.360142 153.930051 
L 289.916232 154.414272 
L 290.750367 155.318634 
L 291.306457 155.505752 
L 292.140593 155.331812 
L 292.696683 155.152501 
L 293.252773 155.137886 
L 293.530818 155.121211 
L 294.921043 155.503316 
L 295.477133 155.128518 
L 296.311269 154.283676 
L 296.867359 154.239645 
L 297.423449 154.528628 
L 297.701494 154.83485 
L 298.813674 154.011493 
L 299.925855 154.095122 
L 302.150215 154.092124 
L 302.706305 154.020862 
L 304.096531 154.179375 
L 304.930666 154.195488 
L 306.320891 155.071371 
L 306.598936 155.55859 
L 307.433072 154.521009 
L 307.711117 154.30666 
L 307.989162 154.336327 
L 308.545252 154.80331 
L 309.657432 155.936885 
L 309.935477 156.26022 
L 310.491567 156.443091 
L 310.769613 156.66787 
L 311.047658 157.578103 
L 312.159838 156.908263 
L 313.272018 156.335167 
L 313.828108 155.713355 
L 314.940289 154.162637 
L 315.218334 153.901134 
L 315.496379 155.253555 
L 315.774424 154.965633 
L 316.052469 154.864454 
L 316.608559 154.928971 
L 317.164649 155.361853 
L 317.998785 156.072914 
L 318.83292 156.280955 
L 319.667055 155.842452 
L 319.9451 156.125565 
L 320.779235 154.384355 
L 321.05728 154.108612 
L 321.335325 154.027419 
L 321.61337 154.1078 
L 322.169461 154.643423 
L 322.725551 155.56827 
L 323.281641 156.664122 
L 323.559686 156.877659 
L 324.115776 156.875223 
L 324.393821 157.818308 
L 324.949911 157.328529 
L 326.340137 155.198281 
L 326.896227 154.965945 
L 328.008407 154.862143 
L 328.842542 155.079802 
L 329.120587 154.697135 
L 329.398633 154.640612 
L 329.954723 154.905425 
L 331.066903 155.873867 
L 331.901038 156.253474 
L 332.179083 156.360524 
L 333.013219 156.049181 
L 333.291264 156.733761 
L 333.847354 156.084469 
L 334.681489 154.917916 
L 335.237579 154.520884 
L 336.071714 154.324647 
L 337.46194 154.231088 
L 337.739985 154.614193 
L 338.296075 154.302975 
L 338.852165 154.168383 
L 339.6863 154.264315 
L 340.520436 154.782949 
L 341.076526 155.260362 
L 341.910661 155.039331 
L 342.188706 155.968925 
L 343.300886 154.740417 
L 344.413067 153.080212 
L 344.969157 153.049109 
L 346.359382 153.472623 
L 346.637427 153.714578 
L 347.193517 153.582733 
L 348.861788 153.546509 
L 349.695923 153.578111 
L 349.973968 153.708832 
L 350.252013 153.656681 
L 350.530058 153.732253 
L 350.808103 154.04016 
L 351.086148 155.559526 
L 353.310509 152.883351 
L 353.588554 152.89603 
L 354.700734 153.361951 
L 355.256825 153.486114 
L 355.53487 153.594787 
L 355.812915 153.399425 
L 356.369005 153.381937 
L 357.75923 153.72201 
L 358.87141 153.907504 
L 359.427501 153.735375 
L 359.705546 153.831495 
L 359.983591 155.599873 
L 360.539681 154.222344 
L 361.095771 152.473266 
L 361.373816 152.272719 
L 362.764042 152.445473 
L 363.598177 152.188591 
L 364.154267 151.801427 
L 364.432312 151.937956 
L 365.266447 151.30103 
L 365.544492 151.151073 
L 365.822537 151.156382 
L 366.656673 151.583705 
L 368.046898 152.399755 
L 368.602988 152.513175 
L 368.881033 153.664925 
L 370.271259 152.587685 
L 370.827349 152.560579 
L 371.939529 152.138189 
L 372.495619 152.056559 
L 372.773664 152.23612 
L 373.051709 153.02294 
L 373.885845 165.294723 
L 374.441935 180.965046 
L 374.71998 182.935719 
L 374.998025 183.456289 
L 376.666295 184.73851 
L 377.50043 184.708594 
L 377.778476 185.626446 
L 378.334566 184.861673 
L 380.002836 182.921292 
L 380.558926 182.163076 
L 380.836971 181.650188 
L 381.115016 181.381315 
L 381.671107 180.445475 
L 381.949152 180.321875 
L 382.227197 183.851823 
L 382.505242 183.35967 
L 383.061332 182.722869 
L 384.173512 181.264085 
L 385.285693 180.51605 
L 385.563738 180.805284 
L 385.841783 180.784736 
L 386.397873 181.135926 
L 386.675918 183.987789 
L 387.232008 183.605809 
L 387.510053 183.244251 
L 387.788098 182.684584 
L 388.622233 182.183749 
L 389.178324 181.989449 
L 389.456369 181.990073 
L 390.290504 181.419601 
L 390.846594 180.871737 
L 391.124639 181.915876 
L 391.958774 180.68287 
L 392.236819 180.292521 
L 393.349 179.888243 
L 393.627045 179.940019 
L 394.183135 180.314942 
L 394.46118 180.804659 
L 395.01727 180.940314 
L 395.295315 180.892847 
L 395.57336 183.405825 
L 395.851405 181.443271 
L 396.12945 173.256295 
L 396.407496 159.140876 
L 396.685541 152.523917 
L 396.963586 151.125529 
L 397.519676 150.399728 
L 398.075766 150.286121 
L 398.631856 149.985395 
L 398.909901 150.194373 
L 399.744036 149.814016 
L 400.022082 148.619109 
L 401.134262 148.164804 
L 401.690352 148.19928 
L 402.524487 148.665701 
L 404.192758 149.723143 
L 404.470803 152.617039 
L 405.861028 150.381054 
L 406.417118 150.119613 
L 406.695163 150.004007 
L 407.251253 150.196621 
L 407.807344 150.31585 
L 408.641479 150.025929 
L 408.919524 151.769325 
L 409.197569 151.150761 
L 409.753659 150.651051 
L 410.031704 150.456938 
L 410.587794 150.82243 
L 412.256065 152.455216 
L 413.0902 151.86838 
L 413.368245 155.025903 
L 414.20238 152.651203 
L 414.480425 151.581082 
L 415.314561 150.532447 
L 415.592606 150.223103 
L 416.426741 149.799714 
L 416.982831 149.740568 
L 417.538921 149.64245 
L 417.816966 152.56289 
L 418.095011 152.313441 
L 419.207192 152.308257 
L 420.041327 152.677934 
L 421.153507 152.888785 
L 421.431552 152.795975 
L 421.709597 152.870111 
L 421.987642 153.077652 
L 422.265688 155.725534 
L 423.377868 154.384293 
L 425.602228 154.656538 
L 426.158319 154.411149 
L 426.436364 154.439254 
L 426.436364 154.439254 
" clip-path="url(#pfddb24d389)" style="fill: none; stroke: #ff00ff; stroke-width: 3; stroke-linecap: square"/>
   </g>
   <g id="patch_3">
    <path d="M 7.2 331.2 
L 7.2 7.2 
" style="fill: none; stroke: #000000; stroke-width: 0.8; stroke-linejoin: miter; stroke-linecap: square"/>
   </g>
   <g id="patch_4">
    <path d="M 446.4 331.2 
L 446.4 7.2 
" style="fill: none; stroke: #000000; stroke-width: 0.8; stroke-linejoin: miter; stroke-linecap: square"/>
   </g>
   <g id="patch_5">
    <path d="M 7.2 331.2 
L 446.4 331.2 
" style="fill: none; stroke: #000000; stroke-width: 0.8; stroke-linejoin: miter; stroke-linecap: square"/>
   </g>
   <g id="patch_6">
    <path d="M 7.2 7.2 
L 446.4 7.2 
" style="fill: none; stroke: #000000; stroke-width: 0.8; stroke-linejoin: miter; stroke-linecap: square"/>
   </g>
  </g>
 </g>
 <defs>
  <clipPath id="pfddb24d389">
   <rect x="7.2" y="7.2" width="439.2" height="324"/>
  </clipPath>
 </defs>
</svg>
