<?xml version="1.0" encoding="utf-8" standalone="no"?>
<!DOCTYPE svg PUBLIC "-//W3C//DTD SVG 1.1//EN"
  "http://www.w3.org/Graphics/SVG/1.1/DTD/svg11.dtd">
<svg xmlns:xlink="http://www.w3.org/1999/xlink" width="453.6pt" height="338.4pt" viewBox="0 0 453.6 338.4" xmlns="http://www.w3.org/2000/svg" version="1.1">
 <metadata>
  <rdf:RDF xmlns:dc="http://purl.org/dc/elements/1.1/" xmlns:cc="http://creativecommons.org/ns#" xmlns:rdf="http://www.w3.org/1999/02/22-rdf-syntax-ns#">
   <cc:Work>
    <dc:type rdf:resource="http://purl.org/dc/dcmitype/StillImage"/>
    <dc:date>2025-05-15T17:07:13.670826</dc:date>
    <dc:format>image/svg+xml</dc:format>
    <dc:creator>
     <cc:Agent>
      <dc:title>Matplotlib v3.10.1, https://matplotlib.org/</dc:title>
     </cc:Agent>
    </dc:creator>
   </cc:Work>
  </rdf:RDF>
 </metadata>
 <defs>
  <style type="text/css">*{stroke-linejoin: round; stroke-linecap: butt}</style>
 </defs>
 <g id="figure_1">
  <g id="patch_1">
   <path d="M 0 338.4 
L 453.6 338.4 
L 453.6 0 
L 0 0 
z
" style="fill: #ffffff"/>
  </g>
  <g id="axes_1">
   <g id="patch_2">
    <path d="M 7.2 331.2 
L 446.4 331.2 
L 446.4 7.2 
L 7.2 7.2 
z
" style="fill: #ffffff"/>
   </g>
   <g id="matplotlib.axis_1"/>
   <g id="matplotlib.axis_2"/>
   <g id="line2d_1">
    <path d="M 27.163636 279.838843 
L 27.719727 277.370543 
L 28.553862 272.462073 
L 29.944087 262.319886 
L 31.890403 248.076684 
L 32.724538 243.310148 
L 33.280628 240.904786 
L 33.836718 239.23635 
L 34.392808 238.363261 
L 34.670853 238.227362 
L 34.948898 238.284834 
L 35.226944 238.524403 
L 35.783034 239.481536 
L 36.617169 241.734639 
L 37.729349 244.869637 
L 38.285439 245.834667 
L 38.563484 246.047131 
L 38.84153 246.042006 
L 39.119575 245.796592 
L 39.39762 245.293123 
L 39.95371 243.466658 
L 40.5098 240.523246 
L 41.06589 236.501113 
L 41.900025 228.684229 
L 43.012206 215.793519 
L 46.904837 167.587745 
L 48.017017 157.233474 
L 49.129197 149.087929 
L 50.519423 141.015344 
L 53.577918 125.23896 
L 54.412054 122.052942 
L 54.968144 120.682116 
L 55.246189 120.276889 
L 55.524234 120.07585 
L 55.802279 120.088111 
L 56.080324 120.318417 
L 56.358369 120.767717 
L 56.914459 122.308758 
L 57.47055 124.644082 
L 58.304685 129.358044 
L 61.363181 148.644552 
L 61.919271 150.557718 
L 62.475361 151.548827 
L 62.753406 151.678917 
L 63.031451 151.564732 
L 63.309496 151.212611 
L 63.865586 149.844442 
L 64.421676 147.723404 
L 65.533857 142.143224 
L 66.646037 136.682885 
L 67.202127 134.729176 
L 67.758217 133.637321 
L 68.036262 133.480582 
L 68.314307 133.611925 
L 68.592352 134.048584 
L 68.870398 134.804603 
L 69.426488 137.311851 
L 69.982578 141.173791 
L 70.816713 149.452653 
L 71.650848 160.414822 
L 73.041074 182.807972 
L 74.987389 214.46555 
L 75.821524 224.78095 
L 76.377615 229.857889 
L 76.933705 233.334379 
L 77.489795 235.199944 
L 77.76784 235.556848 
L 78.045885 235.559125 
L 78.32393 235.236272 
L 78.88002 233.7617 
L 79.714155 230.13705 
L 81.104381 223.616894 
L 81.660471 221.945839 
L 81.938516 221.465526 
L 82.216561 221.258527 
L 82.494606 221.343293 
L 82.772651 221.732311 
L 83.050696 222.430062 
L 83.606787 224.737751 
L 84.162877 228.169562 
L 84.997012 234.985392 
L 87.777463 260.206896 
L 88.333553 263.562786 
L 88.889643 265.866983 
L 89.445733 267.021852 
L 89.723778 267.157333 
L 90.001823 267.002948 
L 90.279868 266.569516 
L 90.835958 264.942001 
L 91.670094 261.069394 
L 93.060319 254.042011 
L 93.616409 252.417989 
L 93.894454 252.086936 
L 94.172499 252.132223 
L 94.450544 252.581674 
L 94.72859 253.449525 
L 95.28468 256.419282 
L 95.84077 260.839392 
L 98.06513 281.392601 
L 98.343175 282.736513 
L 98.621221 283.521421 
L 98.899266 283.692356 
L 99.177311 283.211702 
L 99.455356 282.060135 
L 100.011446 277.761763 
L 100.567536 271.016312 
L 101.401671 257.409517 
L 103.626032 217.903852 
L 104.182122 210.978089 
L 104.738212 206.130696 
L 105.294302 203.527827 
L 105.572347 203.078755 
L 105.850393 203.187208 
L 106.128438 203.836483 
L 106.406483 205.003538 
L 106.962573 208.773121 
L 107.518663 214.2182 
L 108.352798 224.793325 
L 111.967384 275.297108 
L 112.801519 282.307105 
L 113.35761 285.428286 
L 113.9137 287.313438 
L 114.191745 287.810036 
L 114.46979 288.023449 
L 114.747835 287.966053 
L 115.02588 287.652121 
L 115.58197 286.313105 
L 116.13806 284.128332 
L 116.972195 279.54074 
L 118.084376 271.665435 
L 120.586781 252.811486 
L 121.420917 248.461185 
L 121.977007 246.597139 
L 122.533097 245.649496 
L 122.811142 245.5169 
L 123.089187 245.598895 
L 123.367232 245.878283 
L 123.923322 246.932368 
L 125.035503 250.080615 
L 125.869638 252.073878 
L 126.147683 252.44737 
L 126.425728 252.614927 
L 126.703773 252.546864 
L 126.981818 252.219722 
L 127.259863 251.616607 
L 127.815953 249.551902 
L 128.372044 246.370895 
L 129.206179 239.846905 
L 131.708584 217.696133 
L 132.264675 214.450707 
L 132.820765 212.296492 
L 133.376855 211.250721 
L 133.6549 211.117745 
L 133.932945 211.218303 
L 134.21099 211.526921 
L 134.76708 212.648461 
L 135.601215 215.102526 
L 136.991441 219.263328 
L 137.547531 220.454526 
L 138.103621 221.249645 
L 138.659711 221.640637 
L 139.215801 221.66292 
L 139.771892 221.383911 
L 140.606027 220.600522 
L 141.996252 219.207792 
L 142.552342 218.912308 
L 143.108433 218.871729 
L 143.664523 219.104768 
L 144.220613 219.580184 
L 146.166928 221.594971 
L 146.723018 221.642573 
L 147.001064 221.48629 
L 147.557154 220.757602 
L 148.113244 219.449107 
L 148.947379 216.496242 
L 150.337604 210.106063 
L 151.449785 205.391342 
L 152.28392 202.900493 
L 152.84001 201.844397 
L 153.3961 201.234449 
L 153.95219 200.983037 
L 154.508281 200.975825 
L 156.454596 201.271005 
L 157.010686 201.106636 
L 157.566776 200.736029 
L 158.122867 200.130294 
L 158.957002 198.76706 
L 161.181362 194.512078 
L 161.459407 194.407838 
L 161.737453 194.542408 
L 162.015498 194.967071 
L 162.293543 195.732467 
L 162.849633 198.47021 
L 163.405723 203.063495 
L 163.961813 209.673542 
L 164.795948 223.225256 
L 165.908129 246.126165 
L 167.298354 274.93861 
L 168.132489 287.694522 
L 168.688579 293.023898 
L 168.966624 294.602938 
L 169.24467 295.433587 
L 169.522715 295.516531 
L 169.80076 294.867484 
L 170.078805 293.515296 
L 170.634895 288.883594 
L 171.190985 282.086062 
L 172.303165 264.402736 
L 173.971436 236.821309 
L 175.083616 222.524963 
L 176.195796 211.821835 
L 177.864067 196.703798 
L 178.698202 186.612175 
L 179.532337 173.80251 
L 180.644518 153.053198 
L 182.590833 115.334861 
L 183.424968 102.851732 
L 183.981058 96.711028 
L 184.537149 92.523919 
L 185.093239 90.311358 
L 185.371284 89.914368 
L 185.649329 89.957681 
L 185.927374 90.407891 
L 186.483464 92.364485 
L 187.039554 95.407505 
L 189.54196 110.878384 
L 190.09805 112.479213 
L 190.376095 112.862879 
L 190.65414 112.965106 
L 190.932185 112.792956 
L 191.21023 112.361156 
L 191.766321 110.810245 
L 192.600456 107.219494 
L 196.493087 87.322317 
L 197.327222 81.690701 
L 198.161357 74.422573 
L 199.273538 62.267118 
L 201.497898 36.252697 
L 202.332033 28.956326 
L 202.888124 25.438687 
L 203.444214 23.113839 
L 203.722259 22.411496 
L 204.000304 22.016556 
L 204.278349 21.927273 
L 204.556394 22.139851 
L 204.834439 22.64928 
L 205.390529 24.530142 
L 205.946619 27.502518 
L 206.780755 33.795595 
L 207.892935 44.852628 
L 210.673386 74.942706 
L 211.507521 81.70057 
L 212.341656 86.852367 
L 213.175791 90.633908 
L 214.287972 94.398897 
L 215.678197 99.026954 
L 216.512332 102.729537 
L 217.346467 107.625898 
L 218.180603 113.93731 
L 219.292783 124.531188 
L 220.961053 143.575242 
L 223.185414 168.827115 
L 224.853684 185.109018 
L 226.8 202.134946 
L 227.91218 210.321829 
L 228.746316 214.792199 
L 229.302406 216.6381 
L 229.580451 217.169736 
L 229.858496 217.427942 
L 230.136541 217.40919 
L 230.414586 217.116781 
L 230.692631 216.559029 
L 231.248721 214.7088 
L 231.804811 212.02796 
L 232.916992 205.088759 
L 235.975487 185.025961 
L 237.365713 175.36329 
L 240.146164 154.643018 
L 240.702254 152.24912 
L 240.980299 151.512536 
L 241.258344 151.114749 
L 241.536389 151.069804 
L 241.814434 151.382674 
L 242.092479 152.048917 
L 242.648569 154.376953 
L 243.204659 157.839968 
L 244.31684 166.797979 
L 245.707065 177.783266 
L 246.5412 182.467277 
L 247.09729 184.565046 
L 247.653381 185.926534 
L 248.209471 186.731446 
L 249.043606 187.418833 
L 249.599696 187.893073 
L 250.155786 188.629846 
L 250.711876 189.775833 
L 251.267967 191.404373 
L 252.102102 194.736538 
L 253.214282 200.413631 
L 255.438643 212.343107 
L 256.550823 216.931686 
L 257.384958 219.360279 
L 257.941048 220.452894 
L 258.497139 221.128399 
L 259.053229 221.414773 
L 259.609319 221.358515 
L 260.165409 221.019035 
L 260.999544 220.10753 
L 261.833679 218.836198 
L 262.667815 217.221969 
L 263.50195 215.150356 
L 264.336085 212.468529 
L 265.448265 207.933398 
L 267.116536 200.829677 
L 267.672626 199.166518 
L 268.228716 198.197882 
L 268.506761 198.017949 
L 268.784806 198.05405 
L 269.062851 198.307777 
L 269.618942 199.444312 
L 270.175032 201.314393 
L 271.287212 206.384917 
L 272.399392 211.365475 
L 272.955482 213.159029 
L 273.511573 214.247126 
L 273.789618 214.500929 
L 274.067663 214.560261 
L 274.345708 214.432107 
L 274.901798 213.670014 
L 275.457888 212.38289 
L 277.126159 207.910091 
L 277.682249 207.116794 
L 277.960294 206.974556 
L 278.238339 207.022387 
L 278.516384 207.267193 
L 279.072474 208.344927 
L 279.628564 210.132483 
L 280.462699 213.764155 
L 282.13097 221.559136 
L 282.965105 224.444469 
L 283.79924 226.354371 
L 284.35533 227.154121 
L 284.911421 227.658007 
L 285.467511 227.924565 
L 286.023601 227.980937 
L 286.579691 227.817783 
L 287.135781 227.40223 
L 287.691871 226.698938 
L 288.526007 225.091542 
L 289.638187 222.227543 
L 290.750367 219.51493 
L 291.306457 218.621759 
L 291.862547 218.207384 
L 292.140593 218.199412 
L 292.418638 218.325934 
L 292.974728 218.958582 
L 293.530818 220.014109 
L 295.755179 224.964792 
L 296.311269 225.390822 
L 296.589314 225.365502 
L 296.867359 225.164046 
L 297.145404 224.776812 
L 297.701494 223.42732 
L 298.257584 221.317935 
L 299.091719 216.874176 
L 300.2039 209.298948 
L 301.87217 197.889795 
L 302.706305 193.943507 
L 303.262396 192.430974 
L 303.540441 192.054141 
L 303.818486 191.937185 
L 304.096531 192.07798 
L 304.374576 192.468327 
L 304.930666 193.932954 
L 305.486756 196.145704 
L 308.267207 208.801249 
L 308.823297 210.083172 
L 309.379387 210.844582 
L 310.213522 211.438663 
L 310.769613 211.873347 
L 311.325703 212.682625 
L 311.881793 214.110013 
L 312.437883 216.299 
L 313.272018 220.995386 
L 315.774424 237.48759 
L 316.330514 239.381169 
L 316.608559 239.862355 
L 316.886604 240.008503 
L 317.164649 239.810501 
L 317.442694 239.266718 
L 317.998785 237.168874 
L 318.554875 233.830636 
L 319.38901 226.937974 
L 320.779235 212.604655 
L 322.447506 195.865328 
L 323.281641 189.4299 
L 324.115776 184.907486 
L 324.671866 183.035279 
L 325.227956 182.050358 
L 325.506002 181.866326 
L 325.784047 181.869325 
L 326.062092 182.042007 
L 326.618182 182.819778 
L 327.452317 184.754316 
L 330.232768 192.245272 
L 332.457128 197.32745 
L 333.291264 199.991094 
L 334.125399 203.395269 
L 336.349759 213.535596 
L 336.90585 215.007283 
L 337.183895 215.368552 
L 337.46194 215.42982 
L 337.739985 215.158176 
L 338.01803 214.525983 
L 338.57412 212.102666 
L 339.13021 208.081064 
L 339.6863 202.517852 
L 340.520436 191.734818 
L 343.856976 143.672497 
L 344.691112 136.093777 
L 345.525247 130.970298 
L 346.081337 128.666025 
L 346.915472 126.313277 
L 348.861788 121.912944 
L 349.695923 119.071304 
L 350.530058 115.272644 
L 351.642239 108.960245 
L 353.310509 99.311392 
L 353.866599 96.979674 
L 354.422689 95.530725 
L 354.700734 95.213641 
L 354.978779 95.203582 
L 355.256825 95.523019 
L 355.53487 96.18892 
L 356.09096 98.605518 
L 356.64705 102.481693 
L 357.481185 110.838146 
L 358.593365 125.48035 
L 360.261636 148.438047 
L 361.095771 156.890995 
L 361.651861 160.450771 
L 361.929906 161.5044 
L 362.207951 162.047651 
L 362.485996 162.072781 
L 362.764042 161.581649 
L 363.042087 160.586289 
L 363.598177 157.180216 
L 364.154267 152.141275 
L 365.266447 138.936974 
L 366.656673 122.341138 
L 367.212763 117.486457 
L 367.768853 114.329555 
L 368.046898 113.478331 
L 368.324943 113.140104 
L 368.602988 113.32201 
L 368.881033 114.020254 
L 369.437123 116.897273 
L 369.993213 121.535656 
L 370.827349 130.967717 
L 373.329754 162.467759 
L 374.16389 169.826764 
L 374.71998 173.333433 
L 375.27607 175.72585 
L 375.83216 177.072989 
L 376.110205 177.384682 
L 376.38825 177.473206 
L 376.666295 177.352416 
L 376.94434 177.035522 
L 377.50043 175.867139 
L 378.056521 174.074838 
L 378.890656 170.471256 
L 381.115016 159.717034 
L 381.671107 158.185787 
L 381.949152 157.815787 
L 382.227197 157.76435 
L 382.505242 158.069552 
L 382.783287 158.765936 
L 383.339377 161.446662 
L 383.895467 165.97625 
L 384.451557 172.417448 
L 385.285693 185.516447 
L 386.397873 208.275308 
L 390.012459 289.710182 
L 390.846594 302.515178 
L 391.402684 308.815961 
L 391.958774 313.228972 
L 392.514865 315.757705 
L 392.79291 316.335159 
L 393.070955 316.472727 
L 393.349 316.186923 
L 393.627045 315.496689 
L 394.183135 312.986481 
L 394.739225 309.116379 
L 395.57336 301.164433 
L 396.685541 287.580072 
L 399.465991 250.906367 
L 400.300127 243.143463 
L 400.856217 239.551194 
L 401.412307 237.326638 
L 401.690352 236.722915 
L 401.968397 236.443868 
L 402.246442 236.471959 
L 402.524487 236.785171 
L 403.080577 238.161995 
L 403.636668 240.342327 
L 404.470803 244.590932 
L 407.251253 259.793127 
L 408.363434 264.497105 
L 409.475614 268.196347 
L 410.587794 271.005418 
L 411.42193 272.566046 
L 412.256065 273.593786 
L 412.812155 273.9051 
L 413.368245 273.839276 
L 413.924335 273.320092 
L 414.480425 272.274055 
L 415.036516 270.640618 
L 415.592606 268.380645 
L 416.426741 263.793927 
L 417.260876 257.831029 
L 418.373056 248.019326 
L 419.763282 233.531963 
L 423.377868 194.463982 
L 424.490048 185.346878 
L 425.602228 178.336615 
L 426.436364 174.262324 
L 426.436364 174.262324 
" clip-path="url(#pada8d2aa0f)" style="fill: none; stroke-dasharray: 11.1,4.8; stroke-dashoffset: 0; stroke: #000000; stroke-width: 3"/>
   </g>
   <g id="line2d_2">
    <path d="M 27.163636 226.941353 
L 30.500177 222.741717 
L 34.948898 217.11344 
L 35.504989 217.313682 
L 38.007394 218.843031 
L 39.675665 220.074163 
L 41.343935 221.574358 
L 42.17807 222.44312 
L 42.456115 222.499605 
L 43.012206 222.183015 
L 47.182882 219.262531 
L 49.129197 218.150557 
L 50.797468 217.432725 
L 51.909648 217.108999 
L 53.299873 216.952336 
L 54.412054 216.540808 
L 55.802279 215.751838 
L 57.192504 214.700753 
L 58.860775 213.155916 
L 60.80709 211.044216 
L 63.587541 207.662779 
L 64.421676 206.517779 
L 69.982578 197.672472 
L 74.431299 193.108529 
L 76.377615 191.481888 
L 78.045885 190.377695 
L 79.43611 189.702835 
L 80.826336 189.291193 
L 81.938516 189.170706 
L 83.050696 189.260103 
L 83.606787 189.293432 
L 84.162877 188.797062 
L 86.109192 186.825702 
L 89.167688 184.150024 
L 90.557913 183.130408 
L 91.948139 182.411248 
L 93.060319 182.064214 
L 94.172499 181.936249 
L 95.28468 182.033352 
L 96.39686 182.37101 
L 97.50904 182.95951 
L 98.621221 183.813012 
L 99.733401 184.944764 
L 100.845581 186.36566 
L 101.957761 188.09468 
L 104.738212 192.69423 
L 106.684528 195.872882 
L 108.908888 197.879204 
L 111.411294 199.824144 
L 113.9137 201.481913 
L 116.69415 203.038214 
L 119.752646 204.470612 
L 121.977007 205.345106 
L 123.367232 205.441373 
L 124.757458 205.313864 
L 129.206179 204.696932 
L 132.820765 203.973444 
L 135.879261 203.150614 
L 138.937756 202.089583 
L 141.718207 200.886997 
L 145.888883 198.39558 
L 149.503469 196.479338 
L 152.84001 194.957847 
L 155.898506 193.804913 
L 158.957002 192.895078 
L 160.903317 192.468821 
L 175.917751 192.120951 
L 179.810382 192.699544 
L 184.815194 193.563067 
L 189.54196 194.158439 
L 192.878501 194.406206 
L 199.829628 194.376255 
L 215.122107 195.090556 
L 217.902558 194.641637 
L 220.404963 194.008723 
L 222.629324 193.233419 
L 224.853684 192.232062 
L 227.078045 190.985556 
L 230.136541 189.173326 
L 232.360901 188.164717 
L 234.029172 187.609319 
L 235.697442 187.265967 
L 237.365713 187.125475 
L 239.033983 187.180784 
L 240.980299 187.485378 
L 242.926614 188.03717 
L 244.87293 188.837034 
L 245.98511 189.485056 
L 247.931426 190.683467 
L 250.155786 191.669223 
L 252.380147 192.421977 
L 254.604507 192.95627 
L 257.106913 193.312605 
L 259.609319 193.428839 
L 262.111724 193.325207 
L 263.779995 193.090802 
L 271.843302 191.691316 
L 274.345708 191.601805 
L 276.848113 191.746016 
L 279.072474 192.102275 
L 281.01879 192.438642 
L 283.521195 192.307033 
L 286.023601 192.403832 
L 288.804052 192.739706 
L 291.862547 193.334584 
L 295.755179 194.339092 
L 298.535629 195.02424 
L 303.540441 195.421002 
L 313.828108 196.178046 
L 315.774424 196.381172 
L 320.50119 196.099051 
L 328.286452 195.619838 
L 329.676678 195.687408 
L 332.735173 196.087738 
L 334.959534 195.72962 
L 337.46194 195.070361 
L 339.964345 194.177191 
L 342.744796 192.952019 
L 345.525247 191.707449 
L 347.749607 191.32048 
L 349.695923 191.209294 
L 356.369005 191.325149 
L 359.149456 191.62219 
L 360.539681 191.916383 
L 363.042087 193.008314 
L 365.266447 194.191692 
L 366.934718 195.106993 
L 374.441935 195.846804 
L 375.554115 195.901429 
L 378.890656 195.614486 
L 381.671107 195.585105 
L 384.173512 195.775514 
L 388.066143 196.338505 
L 393.070955 197.3131 
L 396.12945 198.149216 
L 398.909901 199.12738 
L 401.412307 200.005101 
L 403.080577 199.807707 
L 404.748848 199.847679 
L 405.861028 199.778212 
L 411.699975 199.363152 
L 418.929147 198.907665 
L 420.597417 198.369539 
L 424.490048 196.56957 
L 426.436364 195.534124 
L 426.436364 195.534124 
" clip-path="url(#pada8d2aa0f)" style="fill: none; stroke: #ff00ff; stroke-width: 3; stroke-linecap: square"/>
   </g>
   <g id="patch_3">
    <path d="M 7.2 331.2 
L 7.2 7.2 
" style="fill: none; stroke: #000000; stroke-width: 0.8; stroke-linejoin: miter; stroke-linecap: square"/>
   </g>
   <g id="patch_4">
    <path d="M 446.4 331.2 
L 446.4 7.2 
" style="fill: none; stroke: #000000; stroke-width: 0.8; stroke-linejoin: miter; stroke-linecap: square"/>
   </g>
   <g id="patch_5">
    <path d="M 7.2 331.2 
L 446.4 331.2 
" style="fill: none; stroke: #000000; stroke-width: 0.8; stroke-linejoin: miter; stroke-linecap: square"/>
   </g>
   <g id="patch_6">
    <path d="M 7.2 7.2 
L 446.4 7.2 
" style="fill: none; stroke: #000000; stroke-width: 0.8; stroke-linejoin: miter; stroke-linecap: square"/>
   </g>
  </g>
 </g>
 <defs>
  <clipPath id="pada8d2aa0f">
   <rect x="7.2" y="7.2" width="439.2" height="324"/>
  </clipPath>
 </defs>
</svg>
