<?xml version="1.0" encoding="utf-8" standalone="no"?>
<!DOCTYPE svg PUBLIC "-//W3C//DTD SVG 1.1//EN"
  "http://www.w3.org/Graphics/SVG/1.1/DTD/svg11.dtd">
<svg xmlns:xlink="http://www.w3.org/1999/xlink" width="453.6pt" height="338.4pt" viewBox="0 0 453.6 338.4" xmlns="http://www.w3.org/2000/svg" version="1.1">
 <metadata>
  <rdf:RDF xmlns:dc="http://purl.org/dc/elements/1.1/" xmlns:cc="http://creativecommons.org/ns#" xmlns:rdf="http://www.w3.org/1999/02/22-rdf-syntax-ns#">
   <cc:Work>
    <dc:type rdf:resource="http://purl.org/dc/dcmitype/StillImage"/>
    <dc:date>2025-05-15T17:28:02.987983</dc:date>
    <dc:format>image/svg+xml</dc:format>
    <dc:creator>
     <cc:Agent>
      <dc:title>Matplotlib v3.10.1, https://matplotlib.org/</dc:title>
     </cc:Agent>
    </dc:creator>
   </cc:Work>
  </rdf:RDF>
 </metadata>
 <defs>
  <style type="text/css">*{stroke-linejoin: round; stroke-linecap: butt}</style>
 </defs>
 <g id="figure_1">
  <g id="patch_1">
   <path d="M 0 338.4 
L 453.6 338.4 
L 453.6 0 
L 0 0 
z
" style="fill: #ffffff"/>
  </g>
  <g id="axes_1">
   <g id="patch_2">
    <path d="M 7.2 331.2 
L 446.4 331.2 
L 446.4 7.2 
L 7.2 7.2 
z
" style="fill: #ffffff"/>
   </g>
   <g id="matplotlib.axis_1"/>
   <g id="matplotlib.axis_2"/>
   <g id="line2d_1">
    <path d="M 27.163636 21.927273 
L 27.997772 43.396237 
L 28.831907 70.754855 
L 29.944087 115.541073 
L 32.168448 211.290406 
L 33.002583 236.77104 
L 33.558673 247.173796 
L 33.836718 250.068465 
L 34.114763 251.33771 
L 34.392808 250.953252 
L 34.670853 248.917526 
L 34.948898 245.265057 
L 35.504989 233.397763 
L 36.061079 216.200258 
L 36.895214 183.126067 
L 39.39762 77.194488 
L 40.231755 53.111579 
L 40.787845 42.204173 
L 41.343935 35.680367 
L 41.62198 34.080867 
L 41.900025 33.583602 
L 42.17807 34.176471 
L 42.456115 35.841998 
L 43.012206 42.296949 
L 43.568296 52.716594 
L 44.402431 75.086764 
L 45.236566 104.266767 
L 46.626792 162.678423 
L 48.573107 245.346481 
L 49.407242 273.997324 
L 50.241378 295.805614 
L 50.797468 306.056283 
L 51.353558 312.777739 
L 51.631603 314.837445 
L 51.909648 316.058751 
L 52.187693 316.472727 
L 52.465738 316.116569 
L 52.743783 315.032974 
L 53.299873 310.875029 
L 53.855964 304.410612 
L 54.690099 291.354869 
L 56.080324 264.27114 
L 58.304685 219.85854 
L 59.416865 201.475571 
L 60.529045 186.992918 
L 61.363181 178.84522 
L 62.197316 172.96511 
L 62.753406 170.227398 
L 63.309496 168.354599 
L 63.865586 167.258061 
L 64.421676 166.832635 
L 64.699721 166.834913 
L 65.255812 167.189284 
L 65.811902 167.899125 
L 66.924082 169.853938 
L 68.036262 171.730115 
L 68.870398 172.650843 
L 69.426488 172.929759 
L 69.982578 172.912005 
L 70.538668 172.594124 
L 71.094758 171.98735 
L 71.928893 170.5877 
L 72.763029 168.695301 
L 73.875209 165.611074 
L 76.09957 158.528059 
L 78.045885 152.579722 
L 79.158065 149.743736 
L 80.270246 147.506353 
L 81.104381 146.260557 
L 81.938516 145.377772 
L 82.772651 144.819193 
L 83.606787 144.517887 
L 84.997012 144.336224 
L 86.387237 144.123728 
L 87.221372 143.793238 
L 88.055508 143.237369 
L 89.167688 142.143187 
L 92.782274 138.058144 
L 93.616409 137.646348 
L 94.450544 137.552119 
L 95.28468 137.72357 
L 97.50904 138.469115 
L 98.06513 138.439224 
L 98.621221 138.218911 
L 99.177311 137.767601 
L 99.733401 137.056817 
L 100.567536 135.478568 
L 101.401671 133.312004 
L 102.513852 129.702349 
L 105.294302 120.083357 
L 106.128438 117.954069 
L 106.962573 116.491534 
L 107.518663 115.936529 
L 108.074753 115.735894 
L 108.630843 115.892812 
L 109.186933 116.399544 
L 109.743024 117.239436 
L 110.577159 119.06514 
L 111.411294 121.4649 
L 112.801519 126.362419 
L 116.972195 142.055243 
L 118.084376 145.260526 
L 118.918511 147.173939 
L 119.752646 148.630897 
L 120.586781 149.618516 
L 121.142872 150.009494 
L 121.698962 150.177488 
L 122.255052 150.109536 
L 122.811142 149.790281 
L 123.367232 149.206366 
L 123.923322 148.353473 
L 124.757458 146.60389 
L 126.147683 142.881034 
L 127.259863 140.021088 
L 128.093998 138.508904 
L 128.650089 137.948832 
L 129.206179 137.780956 
L 129.762269 137.986736 
L 130.318359 138.51024 
L 131.152494 139.706899 
L 133.09881 142.785312 
L 133.932945 143.639384 
L 134.489035 143.956323 
L 135.045125 144.062964 
L 135.601215 143.973762 
L 136.435351 143.562752 
L 137.547531 142.927618 
L 138.103621 142.856917 
L 138.381666 142.953778 
L 138.659711 143.168514 
L 139.215801 144.042342 
L 139.771892 145.651465 
L 140.327982 148.145611 
L 140.884072 151.637352 
L 141.718207 158.879995 
L 142.552342 168.549695 
L 143.664523 184.990185 
L 144.776703 205.006709 
L 146.444973 240.032217 
L 148.391289 281.099742 
L 149.225424 294.421302 
L 149.781514 300.428989 
L 150.059559 302.356228 
L 150.337604 303.481754 
L 150.61565 303.752304 
L 150.893695 303.124025 
L 151.17174 301.563922 
L 151.72783 295.575914 
L 152.28392 285.772627 
L 152.84001 272.344877 
L 153.674145 246.295843 
L 154.786326 203.718766 
L 157.566776 93.349895 
L 158.678957 60.076954 
L 159.513092 41.963632 
L 160.069182 33.531675 
L 160.625272 28.198126 
L 160.903317 26.735001 
L 161.181362 26.094212 
L 161.459407 26.288326 
L 161.737453 27.327282 
L 162.015498 29.21866 
L 162.571588 35.567166 
L 163.127678 45.299634 
L 163.961813 65.902153 
L 164.795948 92.726309 
L 166.186174 146.0459 
L 167.854444 208.91818 
L 168.688579 233.408368 
L 169.24467 245.692053 
L 169.80076 254.313607 
L 170.35685 259.128838 
L 170.634895 260.116967 
L 170.91294 260.185351 
L 171.190985 259.367101 
L 171.46903 257.703774 
L 172.02512 252.048455 
L 172.58121 243.693092 
L 173.415346 227.30877 
L 175.083616 187.968635 
L 176.473841 157.12507 
L 177.307977 142.297984 
L 178.142112 131.136093 
L 178.698202 125.839701 
L 179.254292 122.206242 
L 179.810382 120.105589 
L 180.088427 119.573247 
L 180.366473 119.350067 
L 180.644518 119.406745 
L 180.922563 119.712136 
L 181.478653 120.944892 
L 182.312788 123.887362 
L 185.371284 136.309465 
L 186.205419 138.635106 
L 187.039554 140.348513 
L 187.87369 141.515831 
L 188.707825 142.236435 
L 189.54196 142.624624 
L 190.65414 142.83661 
L 192.322411 143.090074 
L 193.156546 143.422056 
L 193.990681 143.984171 
L 195.102861 145.096499 
L 197.883312 148.219219 
L 198.439402 148.51534 
L 198.995493 148.591422 
L 199.551583 148.417811 
L 200.107673 147.97797 
L 200.663763 147.268836 
L 201.497898 145.724562 
L 202.332033 143.68208 
L 203.722259 139.576533 
L 205.390529 134.788601 
L 206.224664 133.132305 
L 206.780755 132.519011 
L 207.0588 132.393162 
L 207.336845 132.402 
L 207.61489 132.554322 
L 208.17098 133.32041 
L 208.72707 134.739267 
L 209.28316 136.832969 
L 210.117296 141.211187 
L 210.951431 146.908927 
L 212.341656 158.332609 
L 214.287972 174.365075 
L 215.400152 181.45944 
L 216.234287 185.17342 
L 216.790377 186.712037 
L 217.068422 187.155452 
L 217.346467 187.356637 
L 217.624513 187.293477 
L 217.902558 186.942406 
L 218.180603 186.277067 
L 218.736693 183.899893 
L 219.292783 179.96509 
L 219.848873 174.332316 
L 220.683008 162.684236 
L 221.795189 142.429371 
L 223.463459 111.554422 
L 224.019549 104.330987 
L 224.575639 99.847502 
L 224.853684 98.772882 
L 225.13173 98.512505 
L 225.409775 99.067824 
L 225.68782 100.417787 
L 226.24391 105.315267 
L 226.8 112.6466 
L 227.91218 131.304362 
L 229.024361 149.223374 
L 229.858496 158.68533 
L 230.414586 162.439138 
L 230.692631 163.542589 
L 230.970676 164.162404 
L 231.248721 164.337272 
L 231.526766 164.115388 
L 231.804811 163.551898 
L 232.360901 161.638838 
L 233.473082 156.317897 
L 234.307217 152.548849 
L 235.141352 149.845074 
L 235.697442 148.760202 
L 236.253533 148.224129 
L 236.809623 148.167607 
L 237.365713 148.509173 
L 237.921803 149.177065 
L 238.755938 150.689169 
L 239.590073 152.765038 
L 240.424209 155.429064 
L 241.536389 159.942635 
L 242.926614 166.845676 
L 244.87293 176.572055 
L 245.707065 179.772272 
L 246.5412 182.034085 
L 247.09729 182.994366 
L 247.653381 183.543597 
L 248.209471 183.729267 
L 248.765561 183.609467 
L 249.321651 183.241821 
L 250.155786 182.32942 
L 250.989921 181.073843 
L 252.102102 178.930455 
L 253.214282 176.260498 
L 254.604507 172.277854 
L 258.497139 160.546228 
L 259.887364 157.190194 
L 261.555634 153.790482 
L 264.336085 148.264978 
L 265.72631 144.828188 
L 267.116536 140.75646 
L 270.731122 129.729255 
L 271.287212 128.636998 
L 271.843302 127.970285 
L 272.121347 127.838623 
L 272.399392 127.865882 
L 272.677437 128.071152 
L 272.955482 128.473639 
L 273.511573 129.946701 
L 274.067663 132.428199 
L 274.623753 136.037776 
L 275.179843 140.853281 
L 276.013978 150.36956 
L 276.848113 162.41891 
L 278.238339 186.32864 
L 279.906609 214.809053 
L 280.740744 225.588725 
L 281.296835 230.479056 
L 281.852925 233.081296 
L 282.13097 233.426122 
L 282.409015 233.092805 
L 282.68706 232.060134 
L 282.965105 230.315068 
L 283.521195 224.680527 
L 284.077285 216.269192 
L 284.911421 199.009745 
L 286.023601 169.747808 
L 288.247962 109.247281 
L 289.082097 92.503129 
L 289.638187 84.354646 
L 290.194277 78.825174 
L 290.750367 75.924535 
L 291.028412 75.427584 
L 291.306457 75.534853 
L 291.584502 76.216925 
L 291.862547 77.439586 
L 292.418638 81.359502 
L 292.974728 86.991294 
L 293.808863 98.021995 
L 294.921043 116.410856 
L 296.033224 138.248606 
L 297.423449 170.468529 
L 299.091719 215.864034 
L 300.75999 261.514889 
L 301.594125 279.722755 
L 302.150215 288.693239 
L 302.706305 294.541593 
L 302.98435 296.190092 
L 303.262396 296.958026 
L 303.540441 296.840426 
L 303.818486 295.846484 
L 304.096531 293.999392 
L 304.652621 287.903663 
L 305.208711 278.983455 
L 306.042846 261.592661 
L 309.379387 184.482982 
L 310.213522 171.053425 
L 311.047658 161.174252 
L 311.603748 156.47615 
L 312.159838 153.144115 
L 312.715928 151.00925 
L 313.272018 149.876183 
L 313.550063 149.620047 
L 313.828108 149.535206 
L 314.106153 149.594752 
L 314.662244 150.043627 
L 315.496379 151.178069 
L 316.608559 152.696615 
L 317.164649 153.188696 
L 317.720739 153.404178 
L 318.27683 153.30987 
L 318.83292 152.899881 
L 319.38901 152.192593 
L 320.223145 150.656725 
L 321.335325 148.010532 
L 323.281641 143.194202 
L 324.115776 141.596195 
L 324.949911 140.496279 
L 325.506002 140.077177 
L 326.062092 139.916725 
L 326.618182 140.006712 
L 327.174272 140.328874 
L 328.008407 141.18542 
L 329.120587 142.831308 
L 331.901038 147.358902 
L 332.735173 148.289842 
L 333.569309 148.87898 
L 334.403444 149.14191 
L 335.515624 149.172508 
L 336.349759 149.207623 
L 336.90585 149.372004 
L 337.46194 149.730931 
L 338.01803 150.339826 
L 338.57412 151.229799 
L 339.408255 153.08123 
L 340.798481 157.064621 
L 341.910661 160.098925 
L 342.466751 161.216673 
L 343.022841 161.920073 
L 343.578931 162.133237 
L 343.856976 162.042739 
L 344.413067 161.463224 
L 344.969157 160.376545 
L 345.803292 157.938371 
L 346.915472 153.716756 
L 348.583743 147.322058 
L 349.417878 144.971947 
L 349.973968 143.944264 
L 350.530058 143.43168 
L 350.808103 143.385056 
L 351.086148 143.484509 
L 351.364193 143.732592 
L 351.920284 144.679793 
L 352.476374 146.218215 
L 353.310509 149.553745 
L 354.144644 153.914956 
L 355.812915 164.31178 
L 357.481185 174.241897 
L 358.31532 178.14512 
L 359.149456 181.040417 
L 359.705546 182.369995 
L 360.261636 183.232904 
L 360.817726 183.676516 
L 361.373816 183.779308 
L 361.929906 183.648824 
L 363.320132 183.160985 
L 363.876222 183.245159 
L 364.432312 183.641244 
L 364.988402 184.393034 
L 365.822537 186.144934 
L 368.046898 191.721186 
L 368.602988 192.419754 
L 368.881033 192.55774 
L 369.159078 192.538297 
L 369.437123 192.353216 
L 369.993213 191.47161 
L 370.549304 189.92117 
L 371.383439 186.482415 
L 372.495619 180.388591 
L 374.71998 166.178962 
L 377.222385 149.022543 
L 380.558926 124.949178 
L 381.393062 120.734241 
L 381.949152 118.795061 
L 382.505242 117.650132 
L 382.783287 117.389441 
L 383.061332 117.338418 
L 383.339377 117.49565 
L 383.617422 117.857483 
L 384.173512 119.170996 
L 384.729602 121.21772 
L 385.563738 125.494168 
L 386.397873 130.974383 
L 387.510053 139.696451 
L 389.734414 159.604722 
L 391.402684 173.747302 
L 392.514865 181.375227 
L 393.349 185.785968 
L 394.183135 188.98422 
L 394.739225 190.450723 
L 395.295315 191.410847 
L 395.851405 191.897821 
L 396.407496 191.95014 
L 396.963586 191.608967 
L 397.519676 190.915662 
L 398.353811 189.305322 
L 399.187946 187.127133 
L 400.300127 183.55432 
L 402.246442 176.270004 
L 403.914713 170.200178 
L 404.748848 167.802186 
L 405.304938 166.634554 
L 405.861028 165.917878 
L 406.139073 165.755029 
L 406.417118 165.734723 
L 406.695163 165.864067 
L 407.251253 166.592526 
L 407.807344 167.956629 
L 408.363434 169.931984 
L 409.197569 173.8748 
L 410.587794 181.942056 
L 411.97802 189.690684 
L 412.812155 193.406784 
L 413.924335 197.235024 
L 415.592606 202.566099 
L 416.426741 206.308634 
L 417.260876 211.408398 
L 418.095011 218.070504 
L 419.207192 229.261344 
L 420.875462 249.223427 
L 422.265688 265.28484 
L 423.099823 272.550068 
L 423.655913 275.609313 
L 423.933958 276.450502 
L 424.212003 276.76638 
L 424.490048 276.509616 
L 424.768093 275.636259 
L 425.046138 274.106636 
L 425.602228 268.949682 
L 426.158319 260.849747 
L 426.436364 255.674057 
L 426.436364 255.674057 
" clip-path="url(#p154857740a)" style="fill: none; stroke-dasharray: 11.1,4.8; stroke-dashoffset: 0; stroke: #000000; stroke-width: 3"/>
   </g>
   <g id="line2d_2">
    <path d="M 27.163636 142.336791 
L 27.997772 142.805384 
L 28.831907 143.55796 
L 29.387997 144.094976 
L 31.612358 143.829532 
L 32.724538 143.882675 
L 33.558673 143.924939 
L 34.670853 143.926353 
L 35.226944 143.947092 
L 37.451304 143.758987 
L 39.39762 143.581684 
L 40.787845 143.251116 
L 42.17807 144.295139 
L 43.846341 145.781673 
L 44.958521 147.028137 
L 46.626792 149.03684 
L 47.460927 148.278137 
L 51.353558 144.615652 
L 52.465738 144.048666 
L 54.134009 141.958186 
L 55.246189 140.928225 
L 56.080324 140.410141 
L 56.636414 140.314616 
L 57.47055 140.42762 
L 58.304685 140.793264 
L 59.13882 141.2965 
L 60.251 141.728367 
L 62.753406 142.496773 
L 65.255812 143.701484 
L 67.202127 144.963188 
L 68.314307 145.903829 
L 69.426488 147.18262 
L 70.538668 148.651832 
L 73.875209 148.147811 
L 75.543479 148.160105 
L 78.601975 148.379789 
L 79.158065 148.393458 
L 80.270246 148.994812 
L 81.382426 149.831837 
L 82.772651 151.172805 
L 84.162877 152.915946 
L 86.109192 155.705938 
L 88.611598 159.413515 
L 89.445733 160.101988 
L 90.279868 160.510878 
L 91.114004 160.659193 
L 91.948139 160.563118 
L 92.782274 160.240956 
L 93.616409 159.709832 
L 94.72859 158.726769 
L 96.118815 157.094512 
L 96.674905 156.526544 
L 98.899266 155.482443 
L 105.016257 152.852551 
L 106.684528 151.810138 
L 107.240618 151.455218 
L 110.299114 150.989807 
L 112.245429 151.105089 
L 117.250241 151.541199 
L 118.640466 151.577649 
L 120.864827 151.954133 
L 125.035503 152.764803 
L 126.425728 152.694258 
L 126.981818 152.575637 
L 128.093998 152.146205 
L 133.6549 152.919363 
L 135.601215 153.433519 
L 137.269486 154.077608 
L 137.825576 154.369447 
L 140.049937 156.259333 
L 141.162117 156.807543 
L 142.274297 157.150994 
L 143.386478 157.302099 
L 145.054748 157.4305 
L 146.166928 157.563968 
L 147.279109 157.487532 
L 148.391289 157.207791 
L 149.503469 156.727611 
L 152.84001 154.886942 
L 154.230236 154.457903 
L 155.620461 154.270701 
L 157.010686 154.321056 
L 158.400912 154.609243 
L 160.069182 155.182159 
L 161.737453 155.962426 
L 163.683768 157.154961 
L 165.073993 157.592445 
L 168.688579 157.571196 
L 171.46903 157.330575 
L 173.971436 156.896469 
L 177.307977 156.047818 
L 179.810382 155.152622 
L 180.922563 154.597538 
L 181.756698 154.185938 
L 183.981058 154.177886 
L 187.039554 154.391993 
L 190.376095 154.871937 
L 193.990681 155.620468 
L 198.161357 156.498814 
L 204.556394 156.968428 
L 213.453836 157.44413 
L 218.736693 157.515656 
L 222.629324 157.795162 
L 225.68782 158.218505 
L 227.91218 158.708387 
L 231.804811 161.018788 
L 240.424209 165.445947 
L 243.482704 166.733457 
L 245.150975 167.27118 
L 250.711876 167.288777 
L 258.497139 167.058565 
L 264.05804 166.719827 
L 266.838491 166.11812 
L 269.618942 165.726867 
L 271.843302 165.417195 
L 281.852925 162.597155 
L 282.68706 162.743232 
L 286.579691 163.55178 
L 291.028412 164.25899 
L 295.755179 164.803233 
L 300.75999 164.982735 
L 303.262396 163.756539 
L 305.764801 162.796376 
L 307.989162 162.173026 
L 310.213522 161.774742 
L 312.437883 161.610126 
L 314.106153 161.673796 
L 316.052469 162.028913 
L 317.998785 162.663968 
L 321.335325 163.959845 
L 322.447506 164.865607 
L 324.671866 166.54437 
L 326.896227 167.936244 
L 329.120587 169.064047 
L 331.344948 169.950288 
L 335.237579 171.062498 
L 337.183895 171.2486 
L 339.13021 171.200759 
L 341.076526 170.938064 
L 343.022841 170.477484 
L 345.247202 169.727736 
L 347.471562 168.740432 
L 349.695923 167.713534 
L 356.09096 165.328308 
L 359.983591 163.733522 
L 362.485996 162.489611 
L 364.988402 161.11447 
L 367.768853 161.09436 
L 371.105394 161.317226 
L 376.38825 161.886293 
L 379.724791 163.161234 
L 381.393062 163.587563 
L 384.451557 164.181611 
L 391.958774 165.216285 
L 397.519676 165.803578 
L 400.022082 165.279406 
L 402.246442 165.018322 
L 405.026893 164.900526 
L 407.807344 165.002768 
L 410.587794 165.323437 
L 412.256065 165.663982 
L 415.314561 166.721791 
L 417.538921 167.706071 
L 419.207192 168.645299 
L 426.436364 172.999282 
L 426.436364 172.999282 
" clip-path="url(#p154857740a)" style="fill: none; stroke: #ff00ff; stroke-width: 3; stroke-linecap: square"/>
   </g>
   <g id="patch_3">
    <path d="M 7.2 331.2 
L 7.2 7.2 
" style="fill: none; stroke: #000000; stroke-width: 0.8; stroke-linejoin: miter; stroke-linecap: square"/>
   </g>
   <g id="patch_4">
    <path d="M 446.4 331.2 
L 446.4 7.2 
" style="fill: none; stroke: #000000; stroke-width: 0.8; stroke-linejoin: miter; stroke-linecap: square"/>
   </g>
   <g id="patch_5">
    <path d="M 7.2 331.2 
L 446.4 331.2 
" style="fill: none; stroke: #000000; stroke-width: 0.8; stroke-linejoin: miter; stroke-linecap: square"/>
   </g>
   <g id="patch_6">
    <path d="M 7.2 7.2 
L 446.4 7.2 
" style="fill: none; stroke: #000000; stroke-width: 0.8; stroke-linejoin: miter; stroke-linecap: square"/>
   </g>
  </g>
 </g>
 <defs>
  <clipPath id="p154857740a">
   <rect x="7.2" y="7.2" width="439.2" height="324"/>
  </clipPath>
 </defs>
</svg>
