<?xml version="1.0" encoding="utf-8" standalone="no"?>
<!DOCTYPE svg PUBLIC "-//W3C//DTD SVG 1.1//EN"
  "http://www.w3.org/Graphics/SVG/1.1/DTD/svg11.dtd">
<svg xmlns:xlink="http://www.w3.org/1999/xlink" width="453.6pt" height="338.4pt" viewBox="0 0 453.6 338.4" xmlns="http://www.w3.org/2000/svg" version="1.1">
 <metadata>
  <rdf:RDF xmlns:dc="http://purl.org/dc/elements/1.1/" xmlns:cc="http://creativecommons.org/ns#" xmlns:rdf="http://www.w3.org/1999/02/22-rdf-syntax-ns#">
   <cc:Work>
    <dc:type rdf:resource="http://purl.org/dc/dcmitype/StillImage"/>
    <dc:date>2025-05-15T09:25:20.431869</dc:date>
    <dc:format>image/svg+xml</dc:format>
    <dc:creator>
     <cc:Agent>
      <dc:title>Matplotlib v3.10.1, https://matplotlib.org/</dc:title>
     </cc:Agent>
    </dc:creator>
   </cc:Work>
  </rdf:RDF>
 </metadata>
 <defs>
  <style type="text/css">*{stroke-linejoin: round; stroke-linecap: butt}</style>
 </defs>
 <g id="figure_1">
  <g id="patch_1">
   <path d="M 0 338.4 
L 453.6 338.4 
L 453.6 0 
L 0 0 
z
" style="fill: #ffffff"/>
  </g>
  <g id="axes_1">
   <g id="patch_2">
    <path d="M 7.2 331.2 
L 446.4 331.2 
L 446.4 7.2 
L 7.2 7.2 
z
" style="fill: #ffffff"/>
   </g>
   <g id="matplotlib.axis_1"/>
   <g id="matplotlib.axis_2"/>
   <g id="line2d_1">
    <path d="M 27.163636 185.16919 
L 35.149091 183.185471 
L 42.868364 181.495591 
L 48.724364 180.418084 
L 60.968727 178.150647 
L 70.817455 174.000711 
L 77.738182 170.871428 
L 83.328 167.886387 
L 88.917818 164.842672 
L 92.112 163.443964 
L 94.507636 162.199347 
L 102.493091 157.529114 
L 104.888727 156.429283 
L 106.752 155.818009 
L 108.349091 155.54378 
L 109.68 155.548871 
L 110.744727 155.763567 
L 111.809455 156.260655 
L 112.874182 157.05864 
L 113.938909 158.203082 
L 114.737455 159.322452 
L 115.802182 161.533279 
L 116.866909 163.274967 
L 117.931636 164.570936 
L 118.996364 165.437549 
L 119.794909 165.828633 
L 120.593455 166.011446 
L 121.392 165.999175 
L 122.190545 165.80602 
L 123.255273 165.29264 
L 124.32 164.523429 
L 125.650909 163.2674 
L 127.248 161.409946 
L 131.240727 155.939955 
L 131.506909 156.074471 
L 133.104 158.965884 
L 134.434909 160.963964 
L 135.765818 162.620329 
L 137.096727 163.969757 
L 138.693818 165.238233 
L 140.290909 166.193189 
L 142.154182 167.018369 
L 144.816 168.011106 
L 145.880727 171.567534 
L 146.945455 174.332999 
L 147.744 175.911914 
L 148.542545 177.086139 
L 149.341091 177.873055 
L 150.139636 178.289956 
L 150.672 178.371882 
L 151.470545 178.210399 
L 152.269091 177.724924 
L 153.067636 176.932768 
L 153.866182 175.851424 
L 154.930909 173.990353 
L 155.995636 171.689708 
L 157.326545 168.70163 
L 158.657455 170.972376 
L 159.722182 172.32004 
L 160.786909 173.295221 
L 161.851636 173.917398 
L 162.916364 174.212774 
L 163.981091 174.232621 
L 165.045818 174.030144 
L 166.376727 173.54984 
L 169.038545 172.425053 
L 171.168 172.327581 
L 174.096 172.439344 
L 178.354909 172.592399 
L 179.685818 172.460903 
L 181.549091 171.809863 
L 183.146182 171.477286 
L 184.743273 171.396624 
L 186.074182 171.549205 
L 187.405091 171.924278 
L 188.736 172.542338 
L 190.066909 173.424988 
L 191.397818 174.592305 
L 193.793455 176.941967 
L 195.656727 178.436006 
L 197.786182 179.859592 
L 200.181818 181.169211 
L 202.843636 182.35038 
L 205.239273 183.401132 
L 206.304 184.285617 
L 207.634909 185.702497 
L 209.232 187.743932 
L 212.426182 192.327955 
L 215.620364 196.824627 
L 217.217455 198.727306 
L 218.548364 200.00779 
L 218.814545 200.222644 
L 219.080727 200.257388 
L 221.742545 198.062959 
L 227.598545 193.116776 
L 229.728 191.651898 
L 231.325091 190.816658 
L 232.656 190.348116 
L 233.188364 190.163038 
L 234.519273 188.594577 
L 236.382545 186.589826 
L 238.245818 184.882619 
L 240.109091 183.454012 
L 241.972364 182.282832 
L 244.101818 181.216078 
L 245.965091 180.489652 
L 246.763636 180.162218 
L 247.828364 179.652481 
L 248.893091 179.379279 
L 249.957818 179.317288 
L 251.288727 179.499293 
L 252.619636 179.919283 
L 254.216727 180.666452 
L 256.346182 181.927414 
L 259.540364 183.839082 
L 261.669818 184.538428 
L 269.655273 187.44257 
L 271.518545 187.784355 
L 273.648 188.114282 
L 275.511273 188.729954 
L 278.705455 190.101687 
L 281.367273 191.166203 
L 283.230545 191.677758 
L 284.827636 191.8631 
L 286.158545 191.782613 
L 286.690909 191.811326 
L 288.288 192.469722 
L 289.885091 192.88089 
L 291.482182 193.063212 
L 293.079273 193.034402 
L 294.942545 192.767713 
L 297.072 192.207413 
L 299.467636 191.316977 
L 300.798545 190.783775 
L 302.661818 191.346445 
L 304.791273 191.757815 
L 307.719273 192.082746 
L 313.042909 192.643933 
L 315.172364 193.087483 
L 318.366545 193.859573 
L 320.496 194.080554 
L 322.891636 194.094801 
L 325.819636 193.864796 
L 330.610909 193.220999 
L 333.272727 192.496047 
L 335.402182 192.15047 
L 337.265455 192.09278 
L 338.862545 192.264024 
L 340.459636 192.669451 
L 342.056727 193.327785 
L 343.653818 194.254607 
L 345.250909 195.483819 
L 346.315636 196.310921 
L 347.912727 195.867432 
L 349.776 195.593089 
L 352.171636 195.48424 
L 357.229091 195.346651 
L 359.092364 195.069411 
L 360.689455 194.626142 
L 362.286545 193.915657 
L 362.818909 193.671344 
L 365.214545 193.753902 
L 367.876364 194.093414 
L 371.070545 194.744138 
L 376.660364 196.166951 
L 379.854545 197.110882 
L 385.178182 199.264352 
L 387.84 200.096695 
L 389.969455 200.553387 
L 392.098909 200.771506 
L 393.962182 200.730652 
L 395.559273 200.501806 
L 395.825455 200.379176 
L 397.156364 199.163474 
L 398.487273 198.211493 
L 399.818182 197.496663 
L 401.415273 196.911021 
L 403.012364 196.577996 
L 404.875636 196.446043 
L 407.005091 196.54011 
L 411.264 197.043114 
L 413.127273 197.332468 
L 416.055273 198.295913 
L 418.983273 199.491487 
L 421.911273 200.925852 
L 424.839273 202.602362 
L 426.436364 203.618581 
L 426.436364 203.618581 
" clip-path="url(#pb9dd6efc20)" style="fill: none; stroke: #ffa500; stroke-width: 3; stroke-linecap: square"/>
   </g>
   <g id="line2d_2">
    <path d="M 27.163636 137.047153 
L 29.293091 144.029407 
L 32.221091 153.633832 
L 33.552 157.331149 
L 34.616727 159.741345 
L 35.415273 161.144829 
L 36.213818 162.142499 
L 36.746182 162.556213 
L 37.278545 162.750842 
L 37.810909 162.711253 
L 38.343273 162.42254 
L 38.875636 161.870044 
L 39.408 161.039228 
L 40.206545 159.240201 
L 41.005091 156.736219 
L 41.803636 153.481795 
L 42.602182 149.433142 
L 43.666909 142.845711 
L 43.933091 142.486158 
L 46.861091 154.442035 
L 50.321455 169.561308 
L 55.112727 191.620024 
L 60.968727 219.045545 
L 62.033455 204.579673 
L 68.954182 108.262179 
L 71.083636 82.100307 
L 72.946909 61.908393 
L 74.544 47.118371 
L 75.874909 36.853251 
L 76.939636 30.134481 
L 78.004364 24.908048 
L 78.536727 22.866639 
L 78.802909 22.177889 
L 79.069091 21.927273 
L 79.601455 22.061877 
L 80.4 22.550047 
L 81.198545 23.37384 
L 81.997091 24.517034 
L 83.061818 26.528036 
L 84.126545 29.08128 
L 85.457455 32.990291 
L 86.788364 37.668512 
L 88.385455 44.233646 
L 89.982545 51.767993 
L 91.845818 61.691942 
L 93.975273 74.403442 
L 95.838545 86.862833 
L 97.968 102.356968 
L 98.766545 104.286227 
L 99.565091 106.788769 
L 100.629818 110.946815 
L 101.960727 117.357578 
L 103.291636 124.938466 
L 104.888727 135.308678 
L 107.018182 150.747914 
L 110.478545 177.781192 
L 113.672727 203.492009 
L 115.536 216.750334 
L 116.600727 222.955284 
L 118.197818 231.639488 
L 120.061091 243.091153 
L 123.521455 266.128303 
L 126.183273 283.260894 
L 128.046545 293.837643 
L 129.377455 300.214053 
L 130.442182 304.394002 
L 131.506909 307.611966 
L 132.305455 309.314102 
L 132.571636 309.734862 
L 132.837818 309.514656 
L 134.168727 306.160527 
L 135.233455 303.993288 
L 136.298182 302.253483 
L 137.362909 300.915094 
L 138.427636 299.945134 
L 139.492364 299.313927 
L 140.557091 298.991544 
L 141.621818 298.947822 
L 142.686545 299.152643 
L 143.751273 299.577034 
L 145.082182 300.369512 
L 146.679273 301.617893 
L 148.808727 303.413135 
L 152.535273 303.617279 
L 155.197091 303.999916 
L 157.326545 304.525448 
L 159.189818 305.190022 
L 161.053091 306.073511 
L 162.916364 307.201769 
L 164.247273 308.183844 
L 166.110545 304.379543 
L 166.909091 303.273908 
L 167.707636 302.486734 
L 168.506182 302.000495 
L 169.304727 301.799631 
L 170.103273 301.866562 
L 170.901818 302.179663 
L 171.700364 302.720451 
L 172.765091 303.76473 
L 173.829818 305.13897 
L 175.160727 307.244536 
L 176.757818 310.222813 
L 179.153455 315.250938 
L 179.685818 316.308634 
L 179.952 316.472727 
L 182.347636 316.363927 
L 184.210909 316.085025 
L 186.074182 315.566843 
L 187.671273 314.886618 
L 189.268364 313.946101 
L 190.865455 312.709005 
L 192.462545 311.135858 
L 194.059636 309.216435 
L 194.858182 308.136105 
L 195.124364 307.511084 
L 199.649455 284.027393 
L 202.311273 271.273354 
L 204.440727 262.006914 
L 206.304 254.768452 
L 207.901091 249.324018 
L 209.498182 244.674594 
L 210.829091 241.472487 
L 211.361455 240.585166 
L 212.426182 240.410218 
L 217.749818 239.59601 
L 220.677818 238.907172 
L 223.073455 238.11211 
L 225.202909 237.175509 
L 227.332364 235.97631 
L 227.864727 235.548674 
L 228.663273 234.271823 
L 229.461818 232.482707 
L 230.526545 229.403898 
L 231.857455 224.642381 
L 233.454545 217.967484 
L 239.044364 193.484369 
L 240.375273 189.069817 
L 241.44 186.368477 
L 242.238545 184.929494 
L 242.770909 184.286522 
L 243.303273 183.923449 
L 243.835636 183.883236 
L 244.101818 184.202251 
L 248.360727 192.162206 
L 252.353455 199.177712 
L 256.346182 205.747578 
L 260.072727 211.455563 
L 268.856727 219.351797 
L 276.309818 226.025078 
L 277.906909 229.519901 
L 278.971636 231.224695 
L 280.036364 232.509867 
L 281.101091 233.473741 
L 282.432 234.375388 
L 286.158545 236.651954 
L 287.223273 237.655348 
L 288.288 238.995322 
L 289.352727 240.77135 
L 290.417455 243.084614 
L 291.482182 246.045243 
L 292.014545 247.799945 
L 292.280727 248.21016 
L 293.345455 245.542335 
L 294.410182 243.439251 
L 295.474909 241.786849 
L 296.539636 240.531084 
L 297.604364 239.619439 
L 298.669091 238.994401 
L 299.733818 238.600482 
L 301.064727 238.348883 
L 302.928 238.251928 
L 305.323636 238.125655 
L 306.654545 237.84069 
L 307.719273 237.408674 
L 307.985455 237.265142 
L 308.251636 237.434631 
L 310.913455 244.016062 
L 311.712 245.25798 
L 312.510545 246.162773 
L 313.309091 246.752796 
L 314.107636 247.050191 
L 314.906182 247.077126 
L 315.704727 246.854587 
L 316.503273 246.403509 
L 317.568 245.488586 
L 318.632727 244.262609 
L 319.963636 242.370657 
L 321.560727 239.70385 
L 323.956364 235.250138 
L 324.222545 235.333285 
L 325.287273 237.490846 
L 326.352 239.086799 
L 327.416727 240.236349 
L 328.481455 241.026382 
L 329.812364 241.670258 
L 333.538909 243.148668 
L 334.603636 243.943467 
L 335.668364 245.098073 
L 336.466909 246.26399 
L 337.265455 247.737866 
L 338.330182 250.267716 
L 339.394909 253.535879 
L 339.927273 255.311657 
L 340.459636 256.160059 
L 341.258182 256.935375 
L 342.056727 257.34545 
L 342.589091 257.416053 
L 343.121455 257.330076 
L 343.92 256.912587 
L 344.718545 256.156983 
L 345.517091 255.072786 
L 346.581818 253.130768 
L 347.646545 250.640212 
L 348.711273 247.631435 
L 350.042182 243.179326 
L 351.639273 236.886576 
L 353.236364 229.640978 
L 355.099636 220.109631 
L 355.898182 216.377623 
L 359.092364 209.250608 
L 365.480727 195.177857 
L 367.876364 189.218185 
L 370.005818 183.347989 
L 372.401455 176.589446 
L 372.667636 177.729129 
L 375.595636 198.092462 
L 377.458909 209.803052 
L 379.588364 221.720779 
L 381.185455 229.52688 
L 382.516364 235.134039 
L 383.847273 239.80989 
L 384.912 242.806158 
L 385.976727 245.071093 
L 386.775273 246.260821 
L 387.573818 246.990192 
L 388.106182 247.209694 
L 388.638545 247.208215 
L 389.170909 246.97943 
L 389.703273 246.51691 
L 389.969455 246.168194 
L 391.300364 240.108294 
L 392.631273 235.14423 
L 393.696 231.950919 
L 394.760727 229.365573 
L 395.825455 227.262805 
L 396.890182 225.593721 
L 397.954909 224.322839 
L 399.019636 223.394463 
L 400.084364 222.768749 
L 401.149091 222.399338 
L 402.213818 222.238268 
L 403.544727 222.267219 
L 405.408 222.570179 
L 408.336 223.214608 
L 409.400727 224.15005 
L 416.853818 230.899043 
L 418.717091 232.228554 
L 420.314182 233.135204 
L 421.911273 233.779853 
L 423.242182 234.080504 
L 424.573091 234.139906 
L 425.904 233.927097 
L 426.436364 233.761252 
L 426.436364 233.761252 
" clip-path="url(#pb9dd6efc20)" style="fill: none; stroke: #ff0000; stroke-width: 3; stroke-linecap: square"/>
   </g>
   <g id="line2d_3">
    <path d="M 27.163636 139.723309 
L 28.494545 140.59073 
L 29.825455 141.19765 
L 30.890182 141.476356 
L 31.954909 141.556483 
L 33.019636 141.416156 
L 34.084364 141.053636 
L 35.149091 140.459145 
L 36.213818 139.624555 
L 37.544727 138.221317 
L 38.875636 136.426978 
L 40.206545 134.243328 
L 41.803636 131.094539 
L 43.400727 127.400874 
L 46.062545 120.396481 
L 47.659636 115.388483 
L 49.256727 109.692876 
L 50.853818 103.259729 
L 52.717091 94.742073 
L 54.314182 86.51801 
L 56.177455 75.766564 
L 58.040727 63.652645 
L 59.105455 56.597655 
L 59.371636 55.444962 
L 59.637818 54.804474 
L 60.968727 53.282924 
L 62.565818 51.870803 
L 64.162909 50.727942 
L 66.026182 49.722652 
L 67.889455 49.043522 
L 69.752727 48.664359 
L 71.616 48.558319 
L 73.479273 48.69747 
L 75.342545 49.053916 
L 77.738182 49.756325 
L 80.133818 50.602836 
L 82.529455 51.641974 
L 85.191273 53.020247 
L 87.853091 54.643922 
L 90.514909 56.537103 
L 92.910545 58.490327 
L 94.773818 60.238458 
L 99.032727 64.583373 
L 102.759273 68.591261 
L 103.025455 68.486695 
L 105.421091 65.798864 
L 107.550545 63.682613 
L 109.946182 61.560428 
L 114.471273 57.972592 
L 117.665455 55.853233 
L 123.255273 52.486203 
L 126.715636 50.278027 
L 127.514182 49.638996 
L 129.643636 47.649782 
L 131.506909 45.631688 
L 133.370182 43.274442 
L 134.967273 40.926097 
L 136.564364 38.218901 
L 138.161455 35.110966 
L 140.024727 31.452624 
L 141.888 28.305029 
L 143.485091 26.052945 
L 144.816 24.561891 
L 146.146909 23.395294 
L 147.211636 22.699152 
L 148.276364 22.218215 
L 149.341091 21.965932 
L 150.405818 21.946883 
L 151.470545 22.164985 
L 152.535273 22.628716 
L 153.6 23.352035 
L 154.664727 24.348968 
L 155.729455 25.622922 
L 156.794182 27.185957 
L 158.125091 29.578895 
L 159.456 32.47914 
L 160.786909 35.932635 
L 162.117818 39.936748 
L 163.714909 45.440131 
L 165.312 51.723716 
L 167.175273 60.06753 
L 167.441455 61.353001 
L 167.707636 62.061151 
L 168.506182 62.47662 
L 169.570909 62.693177 
L 170.369455 62.640069 
L 171.434182 62.294017 
L 172.498909 61.668926 
L 173.563636 60.801417 
L 174.894545 59.419738 
L 176.491636 57.407438 
L 179.153455 53.578818 
L 185.808 43.5726 
L 187.405091 41.693727 
L 188.736 40.454886 
L 189.800727 39.732814 
L 190.865455 39.285024 
L 191.930182 39.16299 
L 192.728727 39.298208 
L 193.793455 39.82372 
L 194.592 40.454974 
L 195.656727 41.721484 
L 196.455273 43.014574 
L 201.512727 52.676688 
L 203.376 55.575739 
L 205.505455 58.501721 
L 208.167273 61.762501 
L 211.095273 65.349494 
L 213.224727 68.426477 
L 214.821818 71.131408 
L 216.152727 73.767343 
L 217.483636 76.850014 
L 218.282182 79.148658 
L 219.879273 90.38385 
L 221.476364 99.920156 
L 222.807273 106.663979 
L 224.138182 112.42084 
L 225.469091 117.279347 
L 226.8 121.342027 
L 228.130909 124.876633 
L 229.461818 127.799735 
L 230.792727 130.197817 
L 232.123636 132.160065 
L 233.720727 134.072347 
L 235.584 135.919127 
L 235.850182 136.164722 
L 236.116364 136.234965 
L 236.382545 135.934629 
L 239.044364 130.366094 
L 242.238545 123.749256 
L 244.368 119.915176 
L 245.698909 117.943571 
L 246.763636 116.747778 
L 247.562182 116.114031 
L 248.360727 115.733973 
L 249.159273 115.631989 
L 249.957818 115.831358 
L 250.756364 116.354236 
L 251.554909 117.221218 
L 252.353455 118.451316 
L 253.418182 120.23528 
L 254.216727 120.597834 
L 255.015273 120.696413 
L 255.813818 120.55275 
L 256.612364 120.188299 
L 257.677091 119.396107 
L 258.741818 118.299647 
L 260.072727 116.568212 
L 261.403636 114.053451 
L 263.266909 110.033222 
L 267.259636 100.684732 
L 270.187636 94.09788 
L 270.72 93.530988 
L 271.784727 92.722592 
L 273.115636 91.409558 
L 274.978909 89.208685 
L 279.237818 83.985149 
L 280.568727 82.751416 
L 281.899636 81.858399 
L 282.964364 81.435942 
L 283.762909 81.30801 
L 284.561455 81.353867 
L 285.36 81.600216 
L 286.158545 82.050429 
L 286.957091 82.726574 
L 287.755636 83.651913 
L 288.820364 85.298586 
L 289.885091 87.471931 
L 290.151273 88.109399 
L 290.417455 87.560765 
L 291.482182 83.092078 
L 292.546909 79.702154 
L 293.345455 77.86252 
L 294.144 76.635512 
L 294.676364 76.127275 
L 295.208727 75.835419 
L 295.741091 75.753239 
L 296.273455 75.885332 
L 296.805818 76.199063 
L 297.604364 77.023821 
L 298.402909 78.219158 
L 299.467636 80.360339 
L 300.532364 83.056931 
L 301.863273 87.099106 
L 303.460364 92.77275 
L 305.323636 100.268526 
L 307.985455 111.969521 
L 310.913455 124.859392 
L 311.712 127.198134 
L 315.172364 136.876067 
L 322.625455 158.09511 
L 324.222545 161.85642 
L 325.553455 164.41149 
L 326.085818 165.400681 
L 329.812364 176.206886 
L 331.675636 181.309425 
L 332.740364 183.64915 
L 333.538909 184.975333 
L 334.337455 185.831386 
L 334.869818 186.096697 
L 335.402182 186.084179 
L 335.934545 185.759379 
L 336.466909 185.095848 
L 336.999273 184.355342 
L 338.596364 183.154686 
L 339.661091 182.086404 
L 340.725818 180.684421 
L 341.790545 178.845603 
L 342.855273 176.464612 
L 344.186182 172.757823 
L 345.250909 169.036656 
L 346.315636 164.480399 
L 346.848 161.854629 
L 347.114182 162.049083 
L 347.912727 164.540792 
L 348.445091 165.529895 
L 348.977455 166.048876 
L 349.509818 166.152862 
L 350.042182 165.892959 
L 350.574545 165.326559 
L 351.373091 164.034364 
L 352.437818 161.780735 
L 354.567273 157.109115 
L 355.365818 155.827208 
L 355.898182 155.238757 
L 356.430545 154.908593 
L 356.962909 154.872006 
L 357.495273 155.023464 
L 358.293818 154.825745 
L 359.092364 154.374672 
L 360.157091 153.473824 
L 363.085091 150.337746 
L 363.883636 149.880704 
L 364.416 149.775103 
L 364.948364 149.862006 
L 365.480727 150.171857 
L 366.013091 150.741014 
L 366.545455 151.598691 
L 367.077818 152.774821 
L 367.876364 154.861367 
L 368.941091 155.407402 
L 370.005818 155.716884 
L 372.135273 156.019678 
L 373.466182 156.297172 
L 374.530909 156.74879 
L 375.329455 157.303445 
L 376.128 158.10503 
L 376.660364 158.854226 
L 377.192727 159.918786 
L 377.725091 159.08553 
L 377.991273 159.035706 
L 378.257455 159.335268 
L 378.523636 159.998966 
L 379.056 162.373909 
L 379.588364 166.1592 
L 380.120727 171.365339 
L 380.919273 181.826738 
L 381.717818 195.474408 
L 382.782545 218.653672 
L 383.847273 247.520471 
L 384.645818 272.904504 
L 384.912 273.629345 
L 385.444364 271.337645 
L 385.976727 269.795923 
L 386.509091 268.932413 
L 386.775273 268.737758 
L 387.041455 268.686432 
L 387.307636 268.770237 
L 387.84 269.315189 
L 388.372364 270.305661 
L 389.170909 272.4771 
L 390.235636 276.304694 
L 392.098909 284.083658 
L 392.365091 283.800388 
L 393.163636 280.782249 
L 393.962182 278.969605 
L 394.760727 277.8026 
L 396.357818 275.875311 
L 396.890182 274.946531 
L 397.422545 273.692609 
L 397.954909 272.004859 
L 398.487273 269.774334 
L 399.285818 265.169563 
L 400.084364 258.707554 
L 400.350545 258.736342 
L 401.149091 263.079559 
L 401.947636 266.339443 
L 402.746182 268.751171 
L 403.544727 270.550404 
L 404.875636 272.866349 
L 405.940364 274.789745 
L 406.738909 276.695409 
L 407.537455 279.325866 
L 408.069818 281.70024 
L 409.134545 287.252108 
L 409.933091 290.255693 
L 410.731636 292.279688 
L 411.264 293.064425 
L 411.796364 293.397742 
L 412.328727 293.275853 
L 412.861091 292.703262 
L 413.393455 291.681271 
L 413.925818 290.211539 
L 414.724364 287.17443 
L 415.256727 285.103948 
L 416.587636 281.525546 
L 417.386182 279.857838 
L 417.918545 279.070716 
L 418.450909 278.619524 
L 418.983273 278.576586 
L 419.249455 278.731112 
L 419.781818 279.439244 
L 420.314182 280.752781 
L 420.846545 282.757668 
L 421.112727 283.941683 
L 421.645091 284.552387 
L 422.177455 285.682175 
L 422.709818 287.442299 
L 423.508364 291.244765 
L 424.306909 296.408913 
L 425.105455 302.890217 
L 426.170182 313.488555 
L 426.436364 316.472727 
L 426.436364 316.472727 
" clip-path="url(#pb9dd6efc20)" style="fill: none; stroke: #0000ff; stroke-width: 3; stroke-linecap: square"/>
   </g>
   <g id="patch_3">
    <path d="M 7.2 331.2 
L 7.2 7.2 
" style="fill: none; stroke: #000000; stroke-width: 0.8; stroke-linejoin: miter; stroke-linecap: square"/>
   </g>
   <g id="patch_4">
    <path d="M 446.4 331.2 
L 446.4 7.2 
" style="fill: none; stroke: #000000; stroke-width: 0.8; stroke-linejoin: miter; stroke-linecap: square"/>
   </g>
   <g id="patch_5">
    <path d="M 7.2 331.2 
L 446.4 331.2 
" style="fill: none; stroke: #000000; stroke-width: 0.8; stroke-linejoin: miter; stroke-linecap: square"/>
   </g>
   <g id="patch_6">
    <path d="M 7.2 7.2 
L 446.4 7.2 
" style="fill: none; stroke: #000000; stroke-width: 0.8; stroke-linejoin: miter; stroke-linecap: square"/>
   </g>
  </g>
 </g>
 <defs>
  <clipPath id="pb9dd6efc20">
   <rect x="7.2" y="7.2" width="439.2" height="324"/>
  </clipPath>
 </defs>
</svg>
