<?xml version="1.0" encoding="utf-8" standalone="no"?>
<!DOCTYPE svg PUBLIC "-//W3C//DTD SVG 1.1//EN"
  "http://www.w3.org/Graphics/SVG/1.1/DTD/svg11.dtd">
<svg xmlns:xlink="http://www.w3.org/1999/xlink" width="453.6pt" height="338.4pt" viewBox="0 0 453.6 338.4" xmlns="http://www.w3.org/2000/svg" version="1.1">
 <metadata>
  <rdf:RDF xmlns:dc="http://purl.org/dc/elements/1.1/" xmlns:cc="http://creativecommons.org/ns#" xmlns:rdf="http://www.w3.org/1999/02/22-rdf-syntax-ns#">
   <cc:Work>
    <dc:type rdf:resource="http://purl.org/dc/dcmitype/StillImage"/>
    <dc:date>2025-05-15T17:17:58.399251</dc:date>
    <dc:format>image/svg+xml</dc:format>
    <dc:creator>
     <cc:Agent>
      <dc:title>Matplotlib v3.10.1, https://matplotlib.org/</dc:title>
     </cc:Agent>
    </dc:creator>
   </cc:Work>
  </rdf:RDF>
 </metadata>
 <defs>
  <style type="text/css">*{stroke-linejoin: round; stroke-linecap: butt}</style>
 </defs>
 <g id="figure_1">
  <g id="patch_1">
   <path d="M 0 338.4 
L 453.6 338.4 
L 453.6 0 
L 0 0 
z
" style="fill: #ffffff"/>
  </g>
  <g id="axes_1">
   <g id="patch_2">
    <path d="M 7.2 331.2 
L 446.4 331.2 
L 446.4 7.2 
L 7.2 7.2 
z
" style="fill: #ffffff"/>
   </g>
   <g id="matplotlib.axis_1"/>
   <g id="matplotlib.axis_2"/>
   <g id="line2d_1">
    <path d="M 27.163636 289.453597 
L 29.109952 291.091557 
L 34.670853 295.812839 
L 35.783034 296.313198 
L 36.617169 296.476455 
L 37.729349 296.442118 
L 39.39762 296.090906 
L 41.06589 295.805372 
L 43.568296 295.553767 
L 44.402431 295.176913 
L 45.236566 294.447039 
L 46.070701 293.270409 
L 46.904837 291.602691 
L 47.738972 289.453072 
L 48.851152 285.941752 
L 50.519423 279.778805 
L 53.577918 267.531277 
L 55.246189 259.922569 
L 56.914459 250.980188 
L 61.919271 221.512264 
L 67.480172 188.001361 
L 68.870398 178.175897 
L 70.260623 166.683571 
L 73.875209 135.635992 
L 76.377615 115.848757 
L 77.489795 105.222596 
L 78.88002 89.757114 
L 83.884832 31.020752 
L 84.718967 24.92826 
L 85.275057 22.579419 
L 85.553102 22.026404 
L 85.831147 21.927273 
L 86.109192 22.303935 
L 86.387237 23.171602 
L 86.943327 26.400342 
L 87.499418 31.571399 
L 88.333553 42.546542 
L 89.445733 61.367962 
L 91.670094 100.834605 
L 92.782274 116.737032 
L 93.894454 129.578827 
L 95.562725 145.710628 
L 98.343175 172.579355 
L 100.845581 196.61991 
L 102.235807 208.129546 
L 103.626032 218.04332 
L 106.128438 233.811953 
L 110.021069 257.360128 
L 111.411294 264.032085 
L 112.523474 268.278688 
L 113.635655 271.664026 
L 115.02588 275.068284 
L 117.250241 279.746347 
L 119.196556 283.471396 
L 120.586781 285.735655 
L 122.533097 288.426817 
L 126.703773 293.777941 
L 128.093998 295.153302 
L 129.484224 296.185484 
L 130.874449 296.913978 
L 132.820765 297.61087 
L 134.76708 298.366942 
L 136.157306 299.183427 
L 140.049937 301.801201 
L 141.162117 302.20083 
L 142.274297 302.378638 
L 143.664523 302.33784 
L 145.332793 302.014274 
L 148.947379 301.157272 
L 150.059559 301.141095 
L 151.449785 301.375506 
L 155.064371 302.268704 
L 156.176551 302.25183 
L 157.288731 302.025427 
L 158.678957 301.502346 
L 163.127678 299.601675 
L 164.795948 299.154915 
L 165.908129 299.055159 
L 166.742264 299.159921 
L 167.576399 299.448136 
L 168.688579 300.084028 
L 171.190985 301.648033 
L 172.303165 301.976795 
L 173.693391 302.058885 
L 175.361661 302.156386 
L 176.473841 302.500968 
L 177.586022 303.124854 
L 181.756698 305.915168 
L 183.146923 306.369208 
L 190.376095 307.922226 
L 191.488276 307.867148 
L 192.600456 307.547095 
L 193.712636 306.955122 
L 194.824816 306.108239 
L 196.215042 304.758024 
L 199.551583 301.348701 
L 200.663763 300.608286 
L 201.775943 300.169371 
L 202.888124 299.981069 
L 204.834439 299.944763 
L 206.780755 299.830846 
L 208.72707 299.431793 
L 210.673386 299.05006 
L 212.063611 299.029914 
L 213.731881 299.278055 
L 216.512332 299.717937 
L 219.292783 299.873964 
L 221.517144 299.836999 
L 222.907369 299.615776 
L 224.019549 299.249845 
L 225.13173 298.663716 
L 226.24391 297.840333 
L 227.91218 296.265874 
L 230.136541 294.142942 
L 231.526766 293.137066 
L 232.916992 292.4477 
L 236.809623 290.911376 
L 239.868119 289.091932 
L 240.702254 288.998943 
L 241.536389 289.137599 
L 243.204659 289.491603 
L 243.76075 289.387429 
L 244.31684 289.070121 
L 244.87293 288.501498 
L 245.42902 287.668283 
L 246.263155 285.960067 
L 247.375336 283.07381 
L 249.043606 278.623629 
L 249.877741 276.908472 
L 250.433831 276.095181 
L 250.989921 275.584257 
L 251.546012 275.384007 
L 252.102102 275.477674 
L 252.658192 275.82232 
L 253.492327 276.663432 
L 255.160598 278.446293 
L 255.716688 278.764582 
L 256.272778 278.849623 
L 256.828868 278.684326 
L 257.384958 278.281944 
L 258.219093 277.319627 
L 261.555634 272.824261 
L 262.38977 272.249512 
L 263.223905 272.01806 
L 263.779995 272.068001 
L 264.336085 272.288637 
L 264.892175 272.684744 
L 265.72631 273.603299 
L 266.560446 274.874605 
L 267.950671 277.539086 
L 270.175032 281.861829 
L 271.287212 283.498532 
L 272.399392 284.736898 
L 274.901798 287.253599 
L 276.292023 289.113554 
L 278.794429 292.574478 
L 279.906609 293.678231 
L 281.01879 294.434393 
L 282.13097 294.888824 
L 283.24315 295.055783 
L 284.077285 294.97543 
L 284.911421 294.707488 
L 286.023601 294.092548 
L 289.360142 291.930801 
L 290.750367 291.396424 
L 292.696683 290.907371 
L 294.086908 290.74106 
L 295.755179 290.795103 
L 297.423449 290.823941 
L 298.535629 290.628151 
L 301.594125 289.887284 
L 302.706305 289.995101 
L 304.096531 290.416098 
L 311.881793 293.172482 
L 312.993973 293.221486 
L 314.106153 292.99856 
L 315.218334 292.521267 
L 316.330514 291.785963 
L 317.442694 290.725767 
L 318.27683 289.660569 
L 319.38901 287.820574 
L 320.50119 285.512925 
L 322.169461 281.390791 
L 324.393821 275.758066 
L 325.227956 274.082703 
L 326.062092 272.887867 
L 326.618182 272.404022 
L 327.174272 272.17527 
L 327.730362 272.179474 
L 328.564497 272.521854 
L 331.344948 274.205494 
L 332.179083 274.38152 
L 333.291264 274.373397 
L 336.90585 274.072436 
L 337.739985 274.404907 
L 338.296075 274.84701 
L 338.852165 275.507931 
L 339.6863 276.944676 
L 340.520436 278.888629 
L 341.910661 282.878704 
L 343.856976 288.513613 
L 344.969157 291.150802 
L 346.081337 293.252563 
L 347.193517 294.844675 
L 348.027653 295.699238 
L 348.861788 296.238789 
L 349.695923 296.432756 
L 350.252013 296.364992 
L 351.086148 295.982377 
L 351.920284 295.316762 
L 353.310509 293.848374 
L 354.978779 292.130553 
L 356.09096 291.3005 
L 357.20314 290.774535 
L 358.31532 290.518865 
L 359.427501 290.512979 
L 360.261636 290.690155 
L 361.095771 291.046495 
L 362.207951 291.810556 
L 363.598177 293.11893 
L 365.822537 295.26545 
L 367.212763 296.243732 
L 368.602988 296.912055 
L 370.271259 297.428171 
L 371.939529 297.71217 
L 373.885845 297.827627 
L 375.83216 297.733598 
L 377.50043 297.413398 
L 382.227197 296.194055 
L 383.617422 296.187593 
L 385.285693 296.438924 
L 386.675918 296.857562 
L 387.788098 297.381931 
L 389.178324 298.32878 
L 392.236819 300.707059 
L 393.070955 301.078773 
L 393.90509 301.261565 
L 395.01727 301.264294 
L 399.465991 300.895662 
L 400.578172 301.092223 
L 401.690352 301.495259 
L 402.802532 302.11625 
L 406.695163 304.633977 
L 407.807344 304.987133 
L 409.197569 305.18632 
L 411.143885 305.22029 
L 422.543733 304.879178 
L 425.602228 304.903452 
L 426.436364 304.76229 
L 426.436364 304.76229 
" clip-path="url(#p833158dedf)" style="fill: none; stroke-dasharray: 11.1,4.8; stroke-dashoffset: 0; stroke: #000000; stroke-width: 3"/>
   </g>
   <g id="line2d_2">
    <path d="M 27.163636 279.655791 
L 29.109952 286.438021 
L 31.056267 292.308736 
L 32.724538 296.618776 
L 34.392808 300.271504 
L 35.226944 301.695422 
L 35.504989 301.493915 
L 37.173259 298.151777 
L 38.84153 294.152275 
L 40.787845 288.781964 
L 43.012206 281.92018 
L 46.070701 271.64742 
L 53.299873 246.483712 
L 56.358369 232.321139 
L 59.13882 220.447757 
L 63.031451 205.006333 
L 71.372803 172.560063 
L 72.206938 169.691047 
L 76.65566 152.625754 
L 85.831147 117.234963 
L 88.889643 106.395009 
L 90.001823 102.852574 
L 90.835958 101.137078 
L 91.670094 100.006905 
L 92.226184 99.570067 
L 92.782274 99.387041 
L 93.338364 99.456709 
L 93.616409 99.910725 
L 94.450544 102.850872 
L 95.562725 107.650746 
L 96.95295 114.921992 
L 98.343175 123.436663 
L 100.011446 135.053475 
L 101.957761 150.173738 
L 104.460167 171.501899 
L 108.352798 205.897426 
L 110.299114 217.339654 
L 111.967384 225.924705 
L 113.635655 233.381404 
L 115.303925 239.711666 
L 116.69415 244.126002 
L 120.030691 253.429331 
L 121.420917 257.279624 
L 123.089187 263.680997 
L 125.313548 272.597459 
L 128.093998 278.980757 
L 131.152494 285.432135 
L 134.21099 291.373509 
L 137.825576 297.883699 
L 142.830387 306.782871 
L 145.888883 312.337724 
L 147.557154 313.705708 
L 148.947379 314.554142 
L 150.059559 315.009148 
L 151.17174 315.243735 
L 152.28392 315.236256 
L 153.3961 314.96536 
L 154.508281 314.414532 
L 155.620461 313.561564 
L 156.454596 312.898782 
L 157.566776 312.017162 
L 158.957002 310.513843 
L 160.069182 309.000618 
L 161.181362 307.15111 
L 162.293543 304.90733 
L 163.405723 302.216241 
L 164.517903 299.026184 
L 165.073993 297.349372 
L 165.630084 296.32993 
L 167.298354 293.484474 
L 168.966624 290.184569 
L 169.24467 289.579151 
L 169.80076 289.246948 
L 173.693391 287.675702 
L 176.195796 286.414515 
L 177.586022 285.435611 
L 178.976247 284.181151 
L 180.366473 282.618188 
L 181.756698 280.709695 
L 183.703013 277.793094 
L 183.981058 277.88686 
L 185.927374 281.788049 
L 187.87369 285.182159 
L 189.54196 287.651844 
L 191.488276 290.065641 
L 193.434591 292.198603 
L 194.824816 293.325772 
L 195.936997 293.953021 
L 197.049177 294.340633 
L 198.161357 294.474113 
L 199.273538 294.334125 
L 200.385718 293.916738 
L 202.053988 293.051225 
L 206.780755 292.542046 
L 208.449025 292.508395 
L 211.229476 292.657777 
L 212.897746 293.034932 
L 214.844062 293.701796 
L 216.512332 294.516041 
L 217.624513 295.272045 
L 222.629324 299.623034 
L 223.741504 300.564072 
L 224.297594 300.475025 
L 225.965865 299.945916 
L 226.521955 299.549443 
L 228.190225 297.928744 
L 229.858496 295.982618 
L 232.082856 293.355979 
L 233.751127 291.776476 
L 235.141352 290.76097 
L 236.253533 290.189708 
L 237.365713 289.867677 
L 238.477893 289.826434 
L 239.312028 289.999083 
L 240.146164 290.36136 
L 240.702254 290.765491 
L 242.370524 292.610279 
L 243.76075 293.708683 
L 246.5412 293.205926 
L 252.102102 292.412442 
L 253.770372 291.907305 
L 254.882553 291.407506 
L 256.272778 289.924622 
L 257.106913 289.510659 
L 257.384958 289.45852 
L 258.219093 289.758893 
L 259.331274 290.405275 
L 260.721499 291.524633 
L 262.111724 292.961454 
L 263.779995 295.029434 
L 265.72631 297.770102 
L 267.394581 300.756019 
L 272.677437 310.548165 
L 274.067663 313.206135 
L 274.901798 313.88902 
L 276.292023 314.708623 
L 277.682249 315.270652 
L 279.072474 315.246042 
L 285.189466 314.960294 
L 286.857736 315.161356 
L 288.247962 315.517151 
L 289.638187 316.088114 
L 290.472322 316.472727 
L 292.140593 316.304133 
L 297.145404 315.946238 
L 299.091719 315.556379 
L 300.75999 314.979353 
L 302.150215 314.276232 
L 303.540441 313.326858 
L 304.652621 312.345223 
L 305.764801 311.03889 
L 306.598936 309.865998 
L 307.433072 307.884671 
L 308.823297 304.77244 
L 310.213522 302.131309 
L 311.603748 299.940405 
L 312.993973 298.183168 
L 314.106153 297.084006 
L 315.218334 296.242957 
L 316.330514 295.631715 
L 317.442694 295.242542 
L 318.554875 295.06853 
L 319.667055 295.102141 
L 321.335325 295.235183 
L 322.447506 295.472987 
L 323.559686 295.969708 
L 324.949911 295.440333 
L 326.618182 295.052874 
L 328.564497 294.853402 
L 331.344948 294.829809 
L 334.959534 294.779538 
L 337.183895 294.609854 
L 339.6863 295.184208 
L 340.798481 295.208086 
L 342.744796 294.862974 
L 344.691112 294.257815 
L 346.359382 293.520704 
L 348.305698 292.393628 
L 350.252013 290.9757 
L 352.198329 289.498354 
L 354.144644 288.307566 
L 356.369005 286.691188 
L 357.481185 285.882095 
L 359.983591 287.884343 
L 362.764042 289.81379 
L 366.378628 292.050803 
L 368.046898 292.775576 
L 372.773664 294.611343 
L 374.71998 295.098784 
L 378.890656 295.767057 
L 380.280881 295.719805 
L 381.949152 295.550081 
L 383.617422 295.751096 
L 387.232008 295.833256 
L 389.456369 295.505753 
L 392.236819 294.841515 
L 396.12945 293.836207 
L 398.353811 294.509207 
L 400.856217 295.511464 
L 402.802532 296.088556 
L 404.748848 296.43563 
L 406.417118 296.51999 
L 408.085389 296.379682 
L 409.753659 295.989279 
L 411.143885 295.377757 
L 414.480425 292.899184 
L 416.704786 291.825457 
L 418.095011 291.38584 
L 419.485237 291.194837 
L 420.875462 291.255232 
L 422.265688 291.551523 
L 423.377868 291.998339 
L 424.490048 292.563186 
L 425.602228 292.910393 
L 426.436364 293.023651 
L 426.436364 293.023651 
" clip-path="url(#p833158dedf)" style="fill: none; stroke: #ff00ff; stroke-width: 3; stroke-linecap: square"/>
   </g>
   <g id="patch_3">
    <path d="M 7.2 331.2 
L 7.2 7.2 
" style="fill: none; stroke: #000000; stroke-width: 0.8; stroke-linejoin: miter; stroke-linecap: square"/>
   </g>
   <g id="patch_4">
    <path d="M 446.4 331.2 
L 446.4 7.2 
" style="fill: none; stroke: #000000; stroke-width: 0.8; stroke-linejoin: miter; stroke-linecap: square"/>
   </g>
   <g id="patch_5">
    <path d="M 7.2 331.2 
L 446.4 331.2 
" style="fill: none; stroke: #000000; stroke-width: 0.8; stroke-linejoin: miter; stroke-linecap: square"/>
   </g>
   <g id="patch_6">
    <path d="M 7.2 7.2 
L 446.4 7.2 
" style="fill: none; stroke: #000000; stroke-width: 0.8; stroke-linejoin: miter; stroke-linecap: square"/>
   </g>
  </g>
 </g>
 <defs>
  <clipPath id="p833158dedf">
   <rect x="7.2" y="7.2" width="439.2" height="324"/>
  </clipPath>
 </defs>
</svg>
