<?xml version="1.0" encoding="utf-8" standalone="no"?>
<!DOCTYPE svg PUBLIC "-//W3C//DTD SVG 1.1//EN"
  "http://www.w3.org/Graphics/SVG/1.1/DTD/svg11.dtd">
<svg xmlns:xlink="http://www.w3.org/1999/xlink" width="453.6pt" height="338.4pt" viewBox="0 0 453.6 338.4" xmlns="http://www.w3.org/2000/svg" version="1.1">
 <metadata>
  <rdf:RDF xmlns:dc="http://purl.org/dc/elements/1.1/" xmlns:cc="http://creativecommons.org/ns#" xmlns:rdf="http://www.w3.org/1999/02/22-rdf-syntax-ns#">
   <cc:Work>
    <dc:type rdf:resource="http://purl.org/dc/dcmitype/StillImage"/>
    <dc:date>2025-05-15T16:52:43.809592</dc:date>
    <dc:format>image/svg+xml</dc:format>
    <dc:creator>
     <cc:Agent>
      <dc:title>Matplotlib v3.10.1, https://matplotlib.org/</dc:title>
     </cc:Agent>
    </dc:creator>
   </cc:Work>
  </rdf:RDF>
 </metadata>
 <defs>
  <style type="text/css">*{stroke-linejoin: round; stroke-linecap: butt}</style>
 </defs>
 <g id="figure_1">
  <g id="patch_1">
   <path d="M 0 338.4 
L 453.6 338.4 
L 453.6 0 
L 0 0 
z
" style="fill: #ffffff"/>
  </g>
  <g id="axes_1">
   <g id="patch_2">
    <path d="M 7.2 331.2 
L 446.4 331.2 
L 446.4 7.2 
L 7.2 7.2 
z
" style="fill: #ffffff"/>
   </g>
   <g id="matplotlib.axis_1"/>
   <g id="matplotlib.axis_2"/>
   <g id="line2d_1">
    <path d="M 27.163636 258.626255 
L 28.553862 259.575666 
L 29.944087 260.919183 
L 32.168448 263.090703 
L 33.280628 263.894557 
L 34.392808 264.453861 
L 35.783034 264.867787 
L 37.451304 265.103174 
L 40.5098 265.265868 
L 50.241378 265.463621 
L 101.679716 265.553394 
L 116.416105 265.69448 
L 136.157306 265.565824 
L 139.771892 265.392875 
L 141.718207 265.088074 
L 143.108433 264.627785 
L 144.220613 264.03085 
L 145.332793 263.198314 
L 147.001064 261.594326 
L 148.947379 259.694113 
L 150.059559 258.921405 
L 150.893695 258.600023 
L 151.72783 258.533922 
L 152.561965 258.723304 
L 153.3961 259.138262 
L 154.786326 260.155467 
L 156.454596 261.365904 
L 157.288731 261.734653 
L 158.122867 261.855475 
L 158.957002 261.715233 
L 159.791137 261.351282 
L 161.459407 260.285763 
L 162.849633 259.52201 
L 163.683768 259.285867 
L 164.517903 259.270824 
L 165.352038 259.487442 
L 166.186174 259.919453 
L 167.298354 260.759805 
L 171.190985 264.08214 
L 172.58121 264.806183 
L 173.971436 265.245427 
L 175.639706 265.527429 
L 178.420157 265.725676 
L 183.703013 265.832681 
L 208.72707 265.786222 
L 222.907369 265.638773 
L 242.092479 265.750384 
L 248.487516 265.6093 
L 258.219093 265.521086 
L 266.838491 265.623194 
L 274.067663 265.582451 
L 277.960294 265.390916 
L 280.184654 265.091594 
L 281.57488 264.692137 
L 282.68706 264.159839 
L 283.79924 263.392298 
L 285.189466 262.12247 
L 288.526007 258.842697 
L 289.360142 258.326845 
L 290.194277 258.046674 
L 291.028412 258.029375 
L 291.862547 258.273467 
L 292.696683 258.744908 
L 294.086908 259.84277 
L 295.755179 261.116034 
L 296.589314 261.518842 
L 297.423449 261.695832 
L 298.257584 261.647678 
L 299.369764 261.309407 
L 302.42826 260.143818 
L 303.262396 260.078604 
L 304.096531 260.189534 
L 305.208711 260.607122 
L 306.320891 261.276689 
L 311.047658 264.468433 
L 312.437883 264.991956 
L 314.106153 265.369979 
L 316.330514 265.623595 
L 319.9451 265.780231 
L 331.622993 265.901307 
L 366.656673 265.861731 
L 373.607799 265.908941 
L 390.290504 265.696644 
L 417.260876 265.374671 
L 419.485237 265.064608 
L 420.875462 264.695427 
L 422.265688 264.077109 
L 423.377868 263.343237 
L 424.768093 262.131376 
L 426.436364 260.47681 
L 426.436364 260.47681 
" clip-path="url(#p4d4f489a72)" style="fill: none; stroke-dasharray: 11.1,4.8; stroke-dashoffset: 0; stroke: #000000; stroke-width: 3"/>
   </g>
   <g id="line2d_2">
    <path d="M 27.163636 21.927273 
L 28.553862 24.263772 
L 29.109952 25.528615 
L 29.666042 27.233417 
L 30.222132 29.551669 
L 30.778222 32.629059 
L 31.612358 38.871019 
L 32.446493 47.086854 
L 33.558673 60.53874 
L 36.339124 96.051095 
L 37.451304 106.874239 
L 38.563484 115.195211 
L 39.95371 123.51097 
L 44.680476 149.525848 
L 45.792656 155.686711 
L 46.626792 161.648303 
L 47.460927 169.589561 
L 48.295062 179.807654 
L 49.685287 200.372439 
L 50.797468 216.279286 
L 51.631603 225.275691 
L 52.187693 229.173622 
L 52.743783 231.215271 
L 53.021828 231.551539 
L 53.299873 231.460883 
L 53.577918 230.979506 
L 54.134009 229.027645 
L 54.968144 224.47166 
L 56.358369 216.574426 
L 56.914459 214.529011 
L 57.192504 213.888914 
L 57.47055 213.531502 
L 57.748595 213.462859 
L 58.02664 213.687327 
L 58.304685 214.195639 
L 58.860775 216.011661 
L 59.416865 218.740618 
L 60.251 224.017509 
L 62.475361 238.886009 
L 63.309496 243.084872 
L 64.143631 246.379779 
L 65.533857 250.752134 
L 66.924082 255.189948 
L 68.870398 262.43492 
L 69.982578 266.304177 
L 70.816713 268.605919 
L 71.650848 270.235705 
L 72.206938 270.947053 
L 72.763029 271.400624 
L 73.597164 271.723279 
L 75.821524 272.229274 
L 76.65566 272.829691 
L 77.489795 273.746971 
L 78.88002 275.713604 
L 80.270246 277.586974 
L 81.104381 278.396219 
L 81.938516 278.893525 
L 82.772651 279.094243 
L 83.606787 279.049639 
L 84.440922 278.811847 
L 85.275057 278.391874 
L 86.109192 277.748881 
L 86.943327 276.784101 
L 87.777463 275.383997 
L 88.611598 273.462837 
L 89.723778 270.102183 
L 92.504229 260.815561 
L 93.060319 259.637609 
L 93.616409 258.916703 
L 94.172499 258.698027 
L 94.450544 258.778836 
L 95.006635 259.298734 
L 95.562725 260.23426 
L 96.39686 262.182646 
L 98.343175 267.00336 
L 99.177311 268.35046 
L 99.733401 268.899321 
L 100.289491 269.190406 
L 100.845581 269.269187 
L 101.679716 269.124659 
L 103.904077 268.532062 
L 104.738212 268.574059 
L 105.572347 268.822568 
L 106.684528 269.464403 
L 107.796708 270.417018 
L 108.908888 271.64276 
L 110.299114 273.523371 
L 112.245429 276.654633 
L 113.9137 279.246303 
L 114.747835 280.230198 
L 115.58197 280.883329 
L 116.416105 281.181945 
L 117.250241 281.166594 
L 118.362421 280.818161 
L 119.752646 280.118978 
L 120.864827 279.366791 
L 121.698962 278.576663 
L 122.533097 277.491683 
L 123.645277 275.556621 
L 126.425728 270.180674 
L 127.259863 269.216474 
L 127.815953 268.858483 
L 128.372044 268.723802 
L 128.928134 268.783467 
L 129.762269 269.142327 
L 131.98663 270.370676 
L 132.820765 270.491744 
L 133.6549 270.316803 
L 134.489035 269.867577 
L 135.601215 268.953773 
L 137.269486 267.210739 
L 138.659711 265.493773 
L 139.771892 263.808667 
L 140.884072 261.673176 
L 141.996252 258.928578 
L 143.108433 255.48306 
L 144.498658 250.279158 
L 147.279109 239.367385 
L 148.391289 236.101152 
L 149.225424 234.387951 
L 149.781514 233.633447 
L 150.337604 233.197544 
L 150.893695 233.084875 
L 151.449785 233.293993 
L 152.005875 233.816787 
L 152.561965 234.638197 
L 153.3961 236.34966 
L 156.176551 242.914855 
L 156.732641 243.528595 
L 157.010686 243.657773 
L 157.288731 243.654587 
L 157.566776 243.516141 
L 158.122867 242.821013 
L 158.678957 241.581947 
L 159.513092 238.836481 
L 160.625272 234.114534 
L 162.015498 228.166265 
L 162.849633 225.480464 
L 163.405723 224.324814 
L 163.961813 223.791013 
L 164.239858 223.77798 
L 164.517903 223.941624 
L 164.795948 224.286292 
L 165.352038 225.520434 
L 165.908129 227.466503 
L 166.742264 231.619893 
L 167.576399 237.017273 
L 168.966624 247.814349 
L 171.747075 270.134911 
L 172.859256 277.557141 
L 173.971436 283.565365 
L 174.805571 287.052301 
L 175.639706 289.662217 
L 176.473841 291.452172 
L 177.029932 292.242301 
L 177.586022 292.763068 
L 178.142112 293.059656 
L 178.976247 293.195495 
L 180.088427 293.041698 
L 182.590833 292.555977 
L 183.703013 292.586679 
L 184.815194 292.849669 
L 185.927374 293.385497 
L 187.039554 294.238477 
L 188.151735 295.431491 
L 189.54196 297.331507 
L 191.766321 300.468273 
L 192.600456 301.277807 
L 193.156546 301.607703 
L 193.712636 301.741226 
L 194.268726 301.668237 
L 194.824816 301.393951 
L 195.658952 300.651033 
L 196.771132 299.252667 
L 198.161357 297.498048 
L 198.995493 296.809292 
L 199.551583 296.604229 
L 200.107673 296.633193 
L 200.663763 296.899369 
L 201.219853 297.390303 
L 202.053988 298.474993 
L 203.444214 300.845669 
L 205.668574 304.681618 
L 207.0588 306.60915 
L 208.17098 307.799846 
L 209.005115 308.428068 
L 209.83925 308.757385 
L 210.395341 308.77766 
L 210.951431 308.625311 
L 211.507521 308.294546 
L 212.341656 307.479218 
L 213.175791 306.335153 
L 214.566017 303.938699 
L 220.126918 293.644142 
L 221.239099 292.253307 
L 222.073234 291.574109 
L 222.907369 291.238999 
L 223.741504 291.224518 
L 224.853684 291.546304 
L 226.24391 292.021308 
L 227.078045 292.072284 
L 227.91218 291.815956 
L 228.746316 291.235813 
L 229.858496 290.096383 
L 231.248721 288.621553 
L 232.082856 288.030694 
L 232.638947 287.846485 
L 233.195037 287.854305 
L 233.751127 288.058499 
L 234.307217 288.452115 
L 235.141352 289.355202 
L 236.253533 291.016848 
L 237.921803 294.087287 
L 240.424209 298.746093 
L 241.258344 299.924625 
L 242.092479 300.712726 
L 242.648569 300.966737 
L 243.204659 300.970213 
L 243.76075 300.703458 
L 244.31684 300.160389 
L 244.87293 299.341875 
L 245.707065 297.630123 
L 246.819245 294.593282 
L 248.487516 289.124941 
L 250.155786 283.787806 
L 251.267967 280.882171 
L 252.102102 279.182582 
L 252.936237 277.92469 
L 253.770372 277.110522 
L 254.326462 276.813354 
L 254.882553 276.71285 
L 255.438643 276.813354 
L 255.994733 277.118631 
L 256.550823 277.630999 
L 257.384958 278.776512 
L 258.219093 280.323461 
L 259.887364 284.095979 
L 260.999544 286.477083 
L 261.833679 287.853436 
L 262.667815 288.743779 
L 263.223905 289.059194 
L 263.779995 289.184317 
L 264.61413 289.122045 
L 266.004356 288.928568 
L 266.560446 289.022699 
L 267.116536 289.299592 
L 267.672626 289.785602 
L 268.506761 290.925613 
L 269.340896 292.49776 
L 270.731122 295.713307 
L 272.955482 300.872605 
L 274.067663 302.900642 
L 274.901798 303.997785 
L 275.457888 304.461783 
L 276.013978 304.662212 
L 276.570068 304.561129 
L 277.126159 304.120591 
L 277.682249 303.322932 
L 278.238339 302.158013 
L 279.072474 299.753449 
L 280.184654 295.513747 
L 281.57488 289.137685 
L 285.745556 268.264438 
L 287.413826 260.600361 
L 288.247962 257.583505 
L 288.804052 256.071023 
L 289.360142 255.048895 
L 289.916232 254.573601 
L 290.194277 254.549271 
L 290.472322 254.664836 
L 291.028412 255.311016 
L 291.584502 256.455371 
L 292.418638 258.896429 
L 294.921043 267.032613 
L 295.477133 268.110641 
L 296.033224 268.709899 
L 296.311269 268.819382 
L 296.589314 268.801135 
L 297.145404 268.395643 
L 297.701494 267.540056 
L 298.535629 265.594277 
L 301.31608 258.025491 
L 301.87217 257.167877 
L 302.42826 256.737477 
L 302.706305 256.698665 
L 302.98435 256.784108 
L 303.540441 257.333549 
L 304.096531 258.386668 
L 304.652621 259.921453 
L 305.486756 263.028965 
L 306.598936 268.345246 
L 308.267207 277.739323 
L 311.881793 298.59693 
L 313.272018 305.289855 
L 314.384199 309.516523 
L 315.218334 311.911529 
L 316.052469 313.642687 
L 316.886604 314.776904 
L 317.720739 315.429456 
L 318.554875 315.735892 
L 319.667055 315.827127 
L 321.335325 315.678833 
L 322.725551 315.348647 
L 323.837731 314.838887 
L 325.227956 313.901622 
L 326.618182 312.988108 
L 327.452317 312.69181 
L 328.286452 312.703106 
L 329.120587 313.039374 
L 330.232768 313.868604 
L 331.901038 315.228448 
L 332.735173 315.627857 
L 333.291264 315.717065 
L 333.847354 315.64958 
L 334.681489 315.264942 
L 335.515624 314.596461 
L 338.57412 311.729637 
L 339.408255 311.406692 
L 339.964345 311.3841 
L 340.520436 311.518781 
L 341.354571 311.994365 
L 342.466751 313.019389 
L 345.247202 315.901564 
L 346.081337 316.361507 
L 346.637427 316.472727 
L 347.193517 316.405242 
L 347.749607 316.151231 
L 348.583743 315.421346 
L 349.417878 314.308562 
L 350.530058 312.368286 
L 355.256825 303.298313 
L 357.20314 300.43873 
L 360.539681 295.987883 
L 361.929906 294.10872 
L 362.485996 293.044595 
L 363.042087 291.556441 
L 363.598177 289.435721 
L 364.154267 286.467235 
L 364.710357 282.470538 
L 365.544492 274.341305 
L 366.378628 263.767828 
L 368.046898 238.453292 
L 369.437123 218.911504 
L 370.271259 210.031822 
L 371.105394 203.797972 
L 371.661484 201.056271 
L 372.217574 199.305996 
L 372.773664 198.381766 
L 373.051709 198.173806 
L 373.329754 198.105452 
L 373.885845 198.30617 
L 374.441935 198.823751 
L 375.554115 200.291051 
L 376.666295 201.698685 
L 377.50043 202.45203 
L 378.334566 202.891409 
L 379.168701 203.077356 
L 382.227197 203.411596 
L 383.617422 203.950031 
L 388.066143 205.977777 
L 389.456369 206.196743 
L 391.124639 206.185737 
L 393.90509 205.974591 
L 394.739225 205.715077 
L 395.57336 205.185911 
L 396.407496 204.275583 
L 397.241631 202.912263 
L 398.075766 201.101454 
L 399.465991 197.415538 
L 400.856217 193.802899 
L 401.690352 192.157473 
L 402.246442 191.389357 
L 402.802532 190.904794 
L 403.358622 190.686698 
L 403.914713 190.696256 
L 404.748848 190.995161 
L 406.139073 191.626859 
L 406.973208 191.726783 
L 407.529299 191.597316 
L 408.363434 191.0919 
L 409.197569 190.264408 
L 410.587794 188.441434 
L 417.260876 179.060971 
L 418.651102 177.556019 
L 419.763282 176.616437 
L 420.875462 175.937239 
L 422.265688 175.393012 
L 423.933958 174.812869 
L 424.768093 174.320487 
L 425.602228 173.563666 
L 426.436364 172.493459 
L 426.436364 172.493459 
" clip-path="url(#p4d4f489a72)" style="fill: none; stroke: #ff00ff; stroke-width: 3; stroke-linecap: square"/>
   </g>
   <g id="patch_3">
    <path d="M 7.2 331.2 
L 7.2 7.2 
" style="fill: none; stroke: #000000; stroke-width: 0.8; stroke-linejoin: miter; stroke-linecap: square"/>
   </g>
   <g id="patch_4">
    <path d="M 446.4 331.2 
L 446.4 7.2 
" style="fill: none; stroke: #000000; stroke-width: 0.8; stroke-linejoin: miter; stroke-linecap: square"/>
   </g>
   <g id="patch_5">
    <path d="M 7.2 331.2 
L 446.4 331.2 
" style="fill: none; stroke: #000000; stroke-width: 0.8; stroke-linejoin: miter; stroke-linecap: square"/>
   </g>
   <g id="patch_6">
    <path d="M 7.2 7.2 
L 446.4 7.2 
" style="fill: none; stroke: #000000; stroke-width: 0.8; stroke-linejoin: miter; stroke-linecap: square"/>
   </g>
  </g>
 </g>
 <defs>
  <clipPath id="p4d4f489a72">
   <rect x="7.2" y="7.2" width="439.2" height="324"/>
  </clipPath>
 </defs>
</svg>
