<?xml version="1.0" encoding="utf-8" standalone="no"?>
<!DOCTYPE svg PUBLIC "-//W3C//DTD SVG 1.1//EN"
  "http://www.w3.org/Graphics/SVG/1.1/DTD/svg11.dtd">
<svg xmlns:xlink="http://www.w3.org/1999/xlink" width="453.6pt" height="338.4pt" viewBox="0 0 453.6 338.4" xmlns="http://www.w3.org/2000/svg" version="1.1">
 <metadata>
  <rdf:RDF xmlns:dc="http://purl.org/dc/elements/1.1/" xmlns:cc="http://creativecommons.org/ns#" xmlns:rdf="http://www.w3.org/1999/02/22-rdf-syntax-ns#">
   <cc:Work>
    <dc:type rdf:resource="http://purl.org/dc/dcmitype/StillImage"/>
    <dc:date>2025-05-15T17:25:44.529333</dc:date>
    <dc:format>image/svg+xml</dc:format>
    <dc:creator>
     <cc:Agent>
      <dc:title>Matplotlib v3.10.1, https://matplotlib.org/</dc:title>
     </cc:Agent>
    </dc:creator>
   </cc:Work>
  </rdf:RDF>
 </metadata>
 <defs>
  <style type="text/css">*{stroke-linejoin: round; stroke-linecap: butt}</style>
 </defs>
 <g id="figure_1">
  <g id="patch_1">
   <path d="M 0 338.4 
L 453.6 338.4 
L 453.6 0 
L 0 0 
z
" style="fill: #ffffff"/>
  </g>
  <g id="axes_1">
   <g id="patch_2">
    <path d="M 7.2 331.2 
L 446.4 331.2 
L 446.4 7.2 
L 7.2 7.2 
z
" style="fill: #ffffff"/>
   </g>
   <g id="matplotlib.axis_1"/>
   <g id="matplotlib.axis_2"/>
   <g id="line2d_1">
    <path d="M 27.163636 21.927273 
L 28.275817 33.202449 
L 29.387997 46.594112 
L 30.778222 66.459621 
L 32.168448 90.0428 
L 33.558673 117.643689 
L 35.226944 156.152626 
L 37.173259 206.993238 
L 39.675665 271.683798 
L 40.787845 294.384269 
L 41.62198 306.79017 
L 42.17807 312.380752 
L 42.734161 315.631434 
L 43.012206 316.353755 
L 43.290251 316.472727 
L 43.568296 315.995826 
L 43.846341 314.937146 
L 44.402431 311.164182 
L 44.958521 305.398106 
L 45.792656 293.762978 
L 47.182882 269.938047 
L 48.851152 241.946795 
L 49.963332 227.010848 
L 51.075513 215.611326 
L 52.187693 207.081104 
L 53.299873 200.543143 
L 54.412054 195.485786 
L 55.246189 192.649833 
L 55.802279 191.277356 
L 56.358369 190.367011 
L 56.914459 189.948456 
L 57.192504 189.928035 
L 57.47055 190.032793 
L 58.02664 190.605472 
L 58.58273 191.625967 
L 59.416865 193.845705 
L 60.80709 198.580343 
L 62.197316 203.131674 
L 63.031451 205.143839 
L 63.587541 206.046136 
L 64.143631 206.555729 
L 64.699721 206.660408 
L 65.255812 206.366951 
L 65.811902 205.698952 
L 66.367992 204.693207 
L 67.202127 202.662445 
L 68.592352 198.420193 
L 70.260623 193.371639 
L 71.094758 191.45186 
L 71.650848 190.523473 
L 72.206938 189.907021 
L 72.763029 189.603413 
L 73.319119 189.590289 
L 73.875209 189.825617 
L 74.709344 190.514036 
L 76.933705 192.660301 
L 77.489795 192.928817 
L 78.045885 193.002965 
L 78.601975 192.862997 
L 79.158065 192.503085 
L 79.992201 191.571923 
L 80.826336 190.248574 
L 82.494606 187.007904 
L 83.884832 184.535788 
L 84.718967 183.454348 
L 85.553102 182.749831 
L 86.387237 182.396977 
L 87.221372 182.31375 
L 88.611598 182.487104 
L 91.670094 182.951812 
L 92.782274 182.971519 
L 93.616409 182.804113 
L 94.450544 182.344598 
L 95.006635 181.810619 
L 95.84077 180.591789 
L 96.674905 178.841796 
L 97.787085 175.813774 
L 99.733401 170.224263 
L 100.289491 169.080571 
L 100.845581 168.352779 
L 101.123626 168.177323 
L 101.401671 168.142034 
L 101.679716 168.256268 
L 101.957761 168.526727 
L 102.513852 169.555153 
L 103.069942 171.241785 
L 103.626032 173.565844 
L 104.460167 178.121577 
L 105.572347 185.711913 
L 109.743024 216.299428 
L 111.133249 224.176005 
L 112.245429 229.357587 
L 113.35761 233.528309 
L 114.191745 235.963788 
L 115.02588 237.782735 
L 115.860015 238.988083 
L 116.416105 239.470516 
L 116.972195 239.725114 
L 117.528286 239.786851 
L 118.362421 239.614647 
L 121.420917 238.524881 
L 122.533097 238.511796 
L 124.757458 238.63289 
L 125.591593 238.403708 
L 126.425728 237.870997 
L 127.259863 236.978931 
L 128.093998 235.719578 
L 129.206179 233.565661 
L 131.708584 228.369288 
L 132.54272 227.19114 
L 133.09881 226.705456 
L 133.6549 226.495544 
L 134.21099 226.576511 
L 134.76708 226.949864 
L 135.32317 227.604858 
L 136.157306 229.068572 
L 136.991441 231.023045 
L 138.103621 234.20519 
L 139.771892 239.719484 
L 142.274297 248.007122 
L 143.386478 250.845374 
L 144.220613 252.266741 
L 144.776703 252.783155 
L 145.332793 252.904923 
L 145.888883 252.593187 
L 146.444973 251.808575 
L 147.001064 250.500649 
L 147.557154 248.599824 
L 148.113244 246.007208 
L 148.669334 242.589457 
L 149.225424 238.178847 
L 150.059559 229.276858 
L 150.893695 217.054144 
L 151.72783 201.038145 
L 152.84001 173.765447 
L 154.230236 132.700294 
L 155.898506 83.2299 
L 156.732641 63.30991 
L 157.566776 49.184626 
L 158.122867 43.677113 
L 158.400912 42.196349 
L 158.678957 41.587985 
L 158.957002 41.857254 
L 159.235047 43.000271 
L 159.513092 45.003872 
L 160.069182 51.49223 
L 160.625272 61.032678 
L 161.459407 80.114328 
L 162.849633 119.801016 
L 164.517903 167.884224 
L 165.630084 193.24428 
L 166.464219 206.962706 
L 167.020309 213.468313 
L 167.576399 217.98146 
L 168.132489 220.703575 
L 168.410534 221.472129 
L 168.688579 221.892072 
L 168.966624 221.999685 
L 169.24467 221.831208 
L 169.522715 221.422169 
L 170.078805 220.02035 
L 170.91294 216.929402 
L 173.693391 205.456566 
L 174.527526 202.994046 
L 175.361661 201.132038 
L 176.195796 199.748102 
L 177.586022 198.001043 
L 181.200608 193.928615 
L 182.034743 193.428617 
L 182.590833 193.30106 
L 183.146923 193.347848 
L 183.981058 193.720607 
L 184.815194 194.371358 
L 187.039554 196.313341 
L 187.87369 196.652991 
L 188.42978 196.649065 
L 188.98587 196.425672 
L 189.54196 195.959218 
L 190.09805 195.232536 
L 190.932185 193.632225 
L 191.766321 191.422558 
L 192.878501 187.652191 
L 195.658952 177.407741 
L 196.493087 175.434909 
L 197.049177 174.653469 
L 197.605267 174.324842 
L 198.161357 174.429957 
L 198.717447 174.915641 
L 199.551583 176.183638 
L 200.941808 178.975499 
L 202.332033 181.610144 
L 203.444214 183.206847 
L 204.278349 184.059144 
L 205.112484 184.615248 
L 205.946619 184.869648 
L 206.780755 184.812511 
L 207.61489 184.442647 
L 208.449025 183.7892 
L 211.229476 181.256101 
L 211.785566 181.273389 
L 212.341656 181.722356 
L 212.897746 182.714779 
L 213.453836 184.338167 
L 214.009927 186.640419 
L 214.844062 191.336317 
L 215.956242 199.38149 
L 217.624513 211.856661 
L 218.458648 216.242252 
L 219.014738 217.83384 
L 219.292783 218.139786 
L 219.570828 218.08602 
L 219.848873 217.652556 
L 220.126918 216.823812 
L 220.683008 213.94345 
L 221.239099 209.425306 
L 222.073234 199.780418 
L 223.185414 182.8442 
L 225.13173 151.865132 
L 225.965865 142.806799 
L 226.521955 139.368113 
L 226.8 138.540558 
L 227.078045 138.333184 
L 227.35609 138.751739 
L 227.634135 139.790474 
L 228.190225 143.650452 
L 228.746316 149.653324 
L 229.580451 161.763906 
L 232.360901 206.928448 
L 233.195037 215.656211 
L 233.751127 219.414524 
L 234.307217 221.544651 
L 234.585262 222.044847 
L 234.863307 222.20698 
L 235.141352 222.066853 
L 235.419397 221.665031 
L 235.975487 220.255678 
L 238.199848 213.164706 
L 238.755938 212.473749 
L 239.033983 212.401068 
L 239.312028 212.512567 
L 239.590073 212.803644 
L 240.146164 213.877788 
L 240.980299 216.441299 
L 243.204659 224.308201 
L 243.76075 225.603478 
L 244.31684 226.440033 
L 244.87293 226.799984 
L 245.150975 226.805218 
L 245.707065 226.486543 
L 246.263155 225.766046 
L 246.819245 224.690872 
L 247.653381 222.506344 
L 248.765561 218.694225 
L 249.877741 214.013196 
L 251.267967 207.164252 
L 253.214282 196.339828 
L 255.994733 180.714351 
L 257.106913 175.625829 
L 257.941048 172.83135 
L 258.497139 171.62394 
L 259.053229 171.030921 
L 259.331274 170.982269 
L 259.609319 171.105029 
L 259.887364 171.400507 
L 260.443454 172.505142 
L 260.999544 174.263264 
L 261.833679 177.962616 
L 262.94586 184.295582 
L 266.282401 204.409425 
L 267.950671 212.709196 
L 269.618942 219.99533 
L 270.731122 224.126838 
L 271.565257 226.628732 
L 272.399392 228.465442 
L 272.955482 229.272457 
L 273.511573 229.730742 
L 274.067663 229.845452 
L 274.623753 229.638316 
L 275.179843 229.1472 
L 276.013978 228.002834 
L 277.960294 224.900665 
L 278.516384 224.383419 
L 279.072474 224.245434 
L 279.350519 224.35257 
L 279.906609 224.975566 
L 280.462699 226.193444 
L 281.01879 228.025356 
L 281.852925 231.826968 
L 283.24315 239.832568 
L 284.35533 245.755663 
L 284.911421 247.868105 
L 285.467511 249.126507 
L 285.745556 249.384991 
L 286.023601 249.376347 
L 286.301646 249.090385 
L 286.579691 248.519451 
L 287.135781 246.506374 
L 287.691871 243.316021 
L 288.247962 238.933365 
L 289.082097 230.045174 
L 289.916232 218.159057 
L 290.750367 202.942063 
L 291.584502 184.17544 
L 292.696683 154.07464 
L 295.477133 73.905152 
L 296.311269 57.405214 
L 296.867359 50.275224 
L 297.145404 48.016985 
L 297.423449 46.668814 
L 297.701494 46.24558 
L 297.979539 46.750138 
L 298.257584 48.173488 
L 298.813674 53.686829 
L 299.369764 62.500635 
L 300.2039 80.929432 
L 301.31608 112.100847 
L 303.540441 176.905086 
L 304.374576 196.033167 
L 305.208711 210.506746 
L 305.764801 217.434713 
L 306.320891 222.271849 
L 306.876982 225.201536 
L 307.155027 226.027663 
L 307.433072 226.47445 
L 307.711117 226.579009 
L 307.989162 226.379089 
L 308.267207 225.91212 
L 308.823297 224.324418 
L 309.657432 220.820268 
L 312.715928 206.519647 
L 313.550063 203.796263 
L 314.384199 201.713717 
L 315.218334 200.139179 
L 316.330514 198.518567 
L 318.554875 195.783961 
L 319.667055 194.657637 
L 320.50119 194.106053 
L 321.05728 193.936268 
L 321.61337 193.94626 
L 322.169461 194.140113 
L 323.003596 194.759897 
L 323.837731 195.729283 
L 324.949911 197.48566 
L 326.062092 199.743225 
L 327.174272 202.519186 
L 330.788858 212.254082 
L 331.344948 213.057807 
L 331.901038 213.501183 
L 332.457128 213.568431 
L 333.013219 213.266212 
L 333.569309 212.618237 
L 334.125399 211.654402 
L 334.959534 209.677724 
L 335.793669 207.113737 
L 336.90585 202.818432 
L 338.296075 196.253389 
L 339.964345 188.208375 
L 340.798481 185.242407 
L 341.354571 184.031983 
L 341.632616 183.707559 
L 341.910661 183.586584 
L 342.188706 183.676592 
L 342.466751 183.981666 
L 343.022841 185.231622 
L 343.578931 187.284152 
L 344.413067 191.596626 
L 347.193517 208.225192 
L 347.749607 210.297151 
L 348.305698 211.561103 
L 348.583743 211.869151 
L 348.861788 211.95908 
L 349.139833 211.83517 
L 349.417878 211.506504 
L 349.973968 210.295803 
L 350.808103 207.440936 
L 352.476374 201.150635 
L 353.032464 199.881765 
L 353.310509 199.527841 
L 353.588554 199.383274 
L 353.866599 199.45647 
L 354.144644 199.750441 
L 354.700734 200.97621 
L 355.256825 202.948526 
L 356.369005 208.241013 
L 357.481185 213.280169 
L 358.037275 214.871083 
L 358.31532 215.298798 
L 358.593365 215.437496 
L 358.87141 215.258592 
L 359.149456 214.738292 
L 359.427501 213.857724 
L 359.983591 210.966776 
L 360.539681 206.54768 
L 361.373816 197.224638 
L 362.485996 180.9722 
L 364.432312 151.510375 
L 364.988402 145.401754 
L 365.544492 141.195544 
L 365.822537 139.90907 
L 366.100582 139.203522 
L 366.378628 139.092777 
L 366.656673 139.579928 
L 366.934718 140.657045 
L 367.490808 144.494461 
L 368.046898 150.333734 
L 368.881033 161.9258 
L 371.661484 203.850228 
L 372.495619 211.71598 
L 373.051709 215.058711 
L 373.607799 216.906246 
L 373.885845 217.307275 
L 374.16389 217.390106 
L 374.441935 217.182811 
L 374.71998 216.71608 
L 375.27607 215.138727 
L 376.110205 211.689453 
L 378.056521 203.008875 
L 378.890656 200.403413 
L 379.446746 199.190689 
L 380.002836 198.351993 
L 380.836971 197.601242 
L 382.505242 196.531461 
L 383.061332 195.937688 
L 383.895467 194.634679 
L 384.729602 192.842021 
L 386.397873 188.458374 
L 387.510053 185.838281 
L 388.066143 184.895144 
L 388.622233 184.308469 
L 389.178324 184.146891 
L 389.456369 184.241855 
L 390.012459 184.803947 
L 390.568549 185.870953 
L 391.124639 187.428243 
L 391.958774 190.578271 
L 393.070955 195.850456 
L 395.295315 206.632137 
L 396.12945 209.741562 
L 396.963586 212.144884 
L 397.797721 213.948089 
L 398.909901 215.76767 
L 400.856217 218.407192 
L 402.246442 220.010794 
L 403.636668 221.245524 
L 405.026893 222.51586 
L 405.861028 223.61661 
L 406.695163 225.123146 
L 407.807344 227.759417 
L 411.699975 237.938959 
L 412.812155 239.904852 
L 414.20238 241.83494 
L 415.592606 243.789334 
L 416.426741 245.310819 
L 417.260876 247.296855 
L 418.095011 249.864966 
L 419.207192 254.246948 
L 420.597417 260.871745 
L 421.987642 267.441506 
L 422.821778 270.492367 
L 423.377868 271.862227 
L 423.933958 272.558577 
L 424.212003 272.622771 
L 424.490048 272.48324 
L 424.768093 272.1311 
L 425.324183 270.755609 
L 425.880273 268.434524 
L 426.436364 265.103846 
L 426.436364 265.103846 
" clip-path="url(#pc0052f696f)" style="fill: none; stroke-dasharray: 11.1,4.8; stroke-dashoffset: 0; stroke: #000000; stroke-width: 3"/>
   </g>
   <g id="line2d_2">
    <path d="M 27.163636 144.138912 
L 27.441681 144.39236 
L 29.944087 148.663597 
L 31.890403 151.471596 
L 35.783034 156.824471 
L 36.617169 158.039137 
L 37.729349 159.308958 
L 39.119575 161.310933 
L 40.5098 163.485112 
L 42.17807 166.533832 
L 43.846341 169.583226 
L 46.070701 170.702215 
L 47.460927 171.261174 
L 48.295062 171.423267 
L 49.129197 171.367994 
L 50.519423 171.074022 
L 51.075513 171.4013 
L 51.631603 172.035279 
L 52.465738 173.478652 
L 53.577918 176.069086 
L 55.246189 180.23739 
L 56.636414 181.571088 
L 58.02664 181.759628 
L 59.13882 182.150507 
L 60.251 183.344674 
L 61.085135 184.491854 
L 62.475361 186.230587 
L 64.421676 188.612259 
L 65.533857 190.16951 
L 66.367992 191.119665 
L 67.202127 191.413557 
L 68.870398 191.664706 
L 69.426488 191.809353 
L 70.260623 192.308241 
L 71.372803 193.230085 
L 72.484984 194.508193 
L 72.763029 194.943203 
L 73.319119 196.129321 
L 74.431299 197.754216 
L 75.543479 198.96797 
L 76.933705 200.077284 
L 78.045885 200.589098 
L 79.158065 200.798296 
L 80.270246 200.758328 
L 81.382426 200.614871 
L 82.494606 202.251503 
L 83.328741 202.980842 
L 83.884832 203.237304 
L 84.997012 203.422394 
L 85.831147 203.266328 
L 86.665282 202.848844 
L 87.499418 202.207649 
L 88.333553 201.340325 
L 89.445733 199.81761 
L 90.001823 198.94977 
L 91.392049 198.746877 
L 92.226184 198.550565 
L 92.504229 198.768209 
L 93.894454 200.450201 
L 95.006635 201.488619 
L 96.118815 202.234572 
L 96.95295 202.603524 
L 97.787085 202.765775 
L 98.621221 202.712643 
L 99.455356 202.43699 
L 100.289491 201.932075 
L 101.123626 201.191673 
L 102.235807 199.834462 
L 103.347987 198.053422 
L 104.460167 196.068933 
L 105.016257 196.321905 
L 106.128438 196.758502 
L 106.684528 196.968929 
L 108.630843 198.625624 
L 110.021069 199.439618 
L 111.133249 199.812971 
L 112.245429 199.881012 
L 113.35761 199.735097 
L 114.46979 199.371934 
L 115.58197 198.786131 
L 116.69415 197.976023 
L 118.084376 196.644228 
L 119.474601 195.229205 
L 120.864827 194.526908 
L 122.255052 193.586428 
L 123.645277 192.366726 
L 124.201367 192.029733 
L 128.093998 190.375536 
L 133.376855 187.969914 
L 135.879261 188.198066 
L 138.659711 188.221499 
L 141.440162 188.044101 
L 141.718207 187.97717 
L 142.274297 187.450091 
L 143.386478 186.304496 
L 146.166928 183.967035 
L 148.113244 182.331038 
L 153.3961 177.652863 
L 156.454596 175.301365 
L 158.400912 174.08206 
L 160.069182 173.286821 
L 161.459407 172.856886 
L 161.737453 172.818345 
L 166.464219 174.608624 
L 167.854444 175.303942 
L 170.35685 176.973445 
L 172.58121 178.74711 
L 174.527526 180.576762 
L 177.586022 183.840865 
L 178.976247 185.417426 
L 181.200608 189.265469 
L 182.590833 191.191274 
L 183.981058 192.757525 
L 185.371284 193.982541 
L 186.761509 194.888088 
L 188.151735 195.489157 
L 189.54196 195.805413 
L 190.932185 195.852082 
L 192.322411 195.640385 
L 193.990681 195.085788 
L 195.380907 194.526789 
L 199.273538 195.934675 
L 202.053988 196.774243 
L 205.946619 197.897078 
L 209.005115 199.026812 
L 211.785566 200.299805 
L 212.341656 200.862333 
L 213.731881 202.348608 
L 215.122107 203.535082 
L 216.512332 204.445824 
L 217.902558 205.104862 
L 219.292783 205.537533 
L 220.683008 205.767747 
L 222.351279 205.981544 
L 224.297594 206.506126 
L 226.521955 206.877298 
L 228.190225 207.047282 
L 230.970676 206.355889 
L 238.199848 204.423858 
L 240.424209 204.095469 
L 242.370524 204.010259 
L 244.038795 204.123542 
L 245.42902 204.417157 
L 248.765561 205.535789 
L 254.048417 207.495932 
L 254.604507 207.713893 
L 265.72631 202.743809 
L 267.950671 201.725176 
L 269.896987 200.595561 
L 271.843302 199.195963 
L 273.789618 197.48003 
L 275.735933 195.412512 
L 277.404204 193.348245 
L 279.350519 190.568834 
L 281.852925 186.853186 
L 283.521195 186.45517 
L 285.745556 186.127851 
L 288.247962 185.995616 
L 290.750367 186.081341 
L 293.530818 186.394187 
L 300.481945 187.533239 
L 300.75999 187.627211 
L 302.706305 189.850201 
L 305.208711 193.069261 
L 308.823297 198.143548 
L 312.715928 203.574535 
L 314.940289 206.151488 
L 315.774424 206.940819 
L 318.27683 207.490896 
L 321.05728 207.908024 
L 323.281641 208.030982 
L 325.506002 207.927176 
L 327.452317 207.637644 
L 329.398633 207.143396 
L 331.344948 206.633168 
L 333.013219 206.499663 
L 334.681489 206.594865 
L 336.349759 206.923888 
L 338.01803 207.491531 
L 339.6863 208.302828 
L 341.354571 209.359962 
L 343.022841 210.666301 
L 344.969157 212.506619 
L 346.359382 213.83437 
L 352.198329 216.63543 
L 356.925095 218.953344 
L 361.929906 221.867488 
L 364.432312 223.340481 
L 366.378628 224.196029 
L 368.324943 224.806375 
L 369.993213 225.109388 
L 371.661484 225.195628 
L 373.329754 225.054312 
L 374.998025 224.673703 
L 376.666295 224.045196 
L 378.334566 223.156857 
L 379.168701 222.574266 
L 382.227197 219.622255 
L 384.451557 217.740501 
L 387.510053 215.48143 
L 391.680729 212.726166 
L 396.12945 209.779944 
L 397.241631 208.841407 
L 398.631856 207.980704 
L 400.022082 207.394902 
L 401.968397 206.856878 
L 405.026893 206.281345 
L 407.807344 205.696613 
L 409.475614 205.142372 
L 410.865839 204.478219 
L 412.256065 203.564741 
L 413.924335 202.133065 
L 415.036516 200.985766 
L 415.592606 200.099687 
L 418.373056 194.572467 
L 420.875462 190.071215 
L 423.377868 186.02694 
L 426.158319 181.951935 
L 426.436364 181.563792 
L 426.436364 181.563792 
" clip-path="url(#pc0052f696f)" style="fill: none; stroke: #ff00ff; stroke-width: 3; stroke-linecap: square"/>
   </g>
   <g id="patch_3">
    <path d="M 7.2 331.2 
L 7.2 7.2 
" style="fill: none; stroke: #000000; stroke-width: 0.8; stroke-linejoin: miter; stroke-linecap: square"/>
   </g>
   <g id="patch_4">
    <path d="M 446.4 331.2 
L 446.4 7.2 
" style="fill: none; stroke: #000000; stroke-width: 0.8; stroke-linejoin: miter; stroke-linecap: square"/>
   </g>
   <g id="patch_5">
    <path d="M 7.2 331.2 
L 446.4 331.2 
" style="fill: none; stroke: #000000; stroke-width: 0.8; stroke-linejoin: miter; stroke-linecap: square"/>
   </g>
   <g id="patch_6">
    <path d="M 7.2 7.2 
L 446.4 7.2 
" style="fill: none; stroke: #000000; stroke-width: 0.8; stroke-linejoin: miter; stroke-linecap: square"/>
   </g>
  </g>
 </g>
 <defs>
  <clipPath id="pc0052f696f">
   <rect x="7.2" y="7.2" width="439.2" height="324"/>
  </clipPath>
 </defs>
</svg>
