<?xml version="1.0" encoding="utf-8" standalone="no"?>
<!DOCTYPE svg PUBLIC "-//W3C//DTD SVG 1.1//EN"
  "http://www.w3.org/Graphics/SVG/1.1/DTD/svg11.dtd">
<svg xmlns:xlink="http://www.w3.org/1999/xlink" width="453.6pt" height="338.4pt" viewBox="0 0 453.6 338.4" xmlns="http://www.w3.org/2000/svg" version="1.1">
 <metadata>
  <rdf:RDF xmlns:dc="http://purl.org/dc/elements/1.1/" xmlns:cc="http://creativecommons.org/ns#" xmlns:rdf="http://www.w3.org/1999/02/22-rdf-syntax-ns#">
   <cc:Work>
    <dc:type rdf:resource="http://purl.org/dc/dcmitype/StillImage"/>
    <dc:date>2025-05-15T09:45:56.985138</dc:date>
    <dc:format>image/svg+xml</dc:format>
    <dc:creator>
     <cc:Agent>
      <dc:title>Matplotlib v3.10.1, https://matplotlib.org/</dc:title>
     </cc:Agent>
    </dc:creator>
   </cc:Work>
  </rdf:RDF>
 </metadata>
 <defs>
  <style type="text/css">*{stroke-linejoin: round; stroke-linecap: butt}</style>
 </defs>
 <g id="figure_1">
  <g id="patch_1">
   <path d="M 0 338.4 
L 453.6 338.4 
L 453.6 0 
L 0 0 
z
" style="fill: #ffffff"/>
  </g>
  <g id="axes_1">
   <g id="patch_2">
    <path d="M 7.2 331.2 
L 446.4 331.2 
L 446.4 7.2 
L 7.2 7.2 
z
" style="fill: #ffffff"/>
   </g>
   <g id="matplotlib.axis_1"/>
   <g id="matplotlib.axis_2"/>
   <g id="line2d_1">
    <path d="M 27.163636 290.673732 
L 30.091636 300.902932 
L 30.890182 302.797351 
L 31.688727 304.030828 
L 32.221091 304.488949 
L 32.753455 304.682396 
L 33.285818 304.647422 
L 34.084364 304.261035 
L 35.149091 303.350399 
L 37.278545 301.063517 
L 38.875636 299.106407 
L 40.206545 297.124898 
L 42.868364 292.973113 
L 43.666909 292.197002 
L 44.199273 291.906222 
L 44.731636 291.810966 
L 45.264 291.906582 
L 46.062545 292.362876 
L 47.127273 293.37209 
L 49.256727 295.552981 
L 50.321455 296.263473 
L 51.386182 296.638023 
L 52.450909 296.748619 
L 54.048 296.65564 
L 56.443636 296.515203 
L 57.774545 296.647595 
L 59.105455 297.002434 
L 63.098182 298.332314 
L 64.162909 298.262231 
L 64.961455 298.006282 
L 65.76 297.565442 
L 66.558545 296.920821 
L 67.357091 296.025655 
L 68.155636 294.792998 
L 68.954182 293.096586 
L 69.752727 290.790617 
L 70.551273 287.750441 
L 71.349818 283.927434 
L 72.414545 277.772258 
L 74.810182 263.342578 
L 75.608727 260.081078 
L 76.141091 258.742355 
L 76.407273 258.358685 
L 76.673455 258.175094 
L 76.939636 258.195319 
L 77.205818 258.420048 
L 77.738182 259.471195 
L 78.270545 261.275217 
L 79.069091 265.171736 
L 80.133818 271.834141 
L 82.263273 285.437287 
L 83.328 290.574295 
L 84.126545 293.491701 
L 84.925091 295.743383 
L 85.989818 298.033699 
L 87.320727 300.243562 
L 88.385455 301.636673 
L 89.184 302.416541 
L 89.982545 302.914299 
L 90.781091 303.112024 
L 91.579636 303.040389 
L 92.644364 302.657061 
L 95.838545 301.27068 
L 97.968 300.447925 
L 99.032727 299.818929 
L 99.831273 299.116064 
L 100.629818 298.054687 
L 101.162182 297.040709 
L 101.694545 295.688208 
L 102.493091 292.837172 
L 103.291636 288.774735 
L 104.090182 283.358281 
L 105.154909 274.153984 
L 108.349091 243.971149 
L 108.881455 240.854304 
L 109.413818 238.838843 
L 109.68 238.284276 
L 109.946182 238.04544 
L 110.212364 238.127375 
L 110.478545 238.530634 
L 111.010909 240.281197 
L 111.543273 243.214104 
L 112.341818 249.493827 
L 113.406545 260.238598 
L 115.536 282.679488 
L 116.600727 291.506729 
L 117.399273 296.611991 
L 118.197818 300.508283 
L 118.996364 303.402929 
L 119.794909 305.536346 
L 120.593455 307.123383 
L 121.392 308.322521 
L 122.456727 309.477276 
L 123.255273 310.053349 
L 124.053818 310.373998 
L 124.852364 310.420098 
L 125.650909 310.183857 
L 126.449455 309.688936 
L 127.514182 308.746041 
L 129.377455 307.024285 
L 130.442182 306.339231 
L 132.837818 305.03796 
L 133.370182 304.457625 
L 133.902545 303.623078 
L 134.434909 302.459205 
L 134.967273 300.891946 
L 135.765818 297.634833 
L 136.564364 293.125146 
L 137.362909 287.261915 
L 138.427636 277.427606 
L 140.024727 259.856503 
L 141.355636 245.794754 
L 142.154182 239.327707 
L 142.686545 236.338777 
L 143.218909 234.623318 
L 143.485091 234.281708 
L 143.751273 234.295533 
L 144.017455 234.667033 
L 144.283636 235.393248 
L 144.816 237.872923 
L 145.348364 241.61227 
L 146.146909 249.151861 
L 147.477818 264.712929 
L 149.074909 283.250082 
L 150.139636 293.115202 
L 150.938182 298.744476 
L 151.736727 302.911547 
L 152.535273 305.842192 
L 153.333818 307.838672 
L 154.132364 309.201122 
L 154.930909 310.167867 
L 155.995636 311.083451 
L 157.060364 311.654034 
L 157.858909 311.818936 
L 158.657455 311.719344 
L 159.456 311.351084 
L 160.520727 310.522323 
L 163.182545 308.169968 
L 164.247273 307.572949 
L 165.844364 306.763925 
L 166.642909 306.01691 
L 167.175273 305.221795 
L 167.707636 304.088466 
L 168.24 302.529154 
L 168.772364 300.46079 
L 169.570909 296.252384 
L 170.369455 290.591013 
L 171.434182 280.823756 
L 172.765091 266.036141 
L 174.362182 248.327875 
L 175.160727 241.417799 
L 175.693091 238.07992 
L 176.225455 235.970929 
L 176.491636 235.416835 
L 176.757818 235.209039 
L 177.024 235.351473 
L 177.290182 235.843444 
L 177.822545 237.850135 
L 178.354909 241.133387 
L 179.153455 248.086985 
L 180.218182 259.941107 
L 182.613818 287.552605 
L 183.678545 296.718512 
L 184.477091 301.798741 
L 185.275636 305.458611 
L 186.074182 307.960916 
L 186.872727 309.622018 
L 187.671273 310.732365 
L 188.469818 311.50348 
L 189.534545 312.185239 
L 190.333091 312.451796 
L 191.131636 312.465269 
L 191.930182 312.187647 
L 192.728727 311.618403 
L 193.793455 310.505913 
L 195.922909 308.078465 
L 196.987636 307.255978 
L 198.052364 306.74991 
L 199.383273 306.135961 
L 199.915636 305.696375 
L 200.448 305.026721 
L 200.980364 304.039716 
L 201.512727 302.648044 
L 202.045091 300.769662 
L 202.843636 296.889341 
L 203.642182 291.601763 
L 204.440727 284.890108 
L 205.505455 274.056836 
L 208.167273 245.553329 
L 208.965818 239.794677 
L 209.498182 237.375659 
L 209.764364 236.648926 
L 210.030545 236.259975 
L 210.296727 236.215259 
L 210.562909 236.516727 
L 210.829091 237.161595 
L 211.361455 239.447967 
L 211.893818 242.964669 
L 212.692364 250.160193 
L 214.023273 265.313525 
L 215.886545 286.619527 
L 216.951273 296.048512 
L 217.749818 301.299213 
L 218.548364 305.054081 
L 219.346909 307.556997 
L 220.145455 309.1311 
L 220.944 310.091749 
L 221.742545 310.684994 
L 222.807273 311.147185 
L 223.872 311.315636 
L 224.670545 311.220725 
L 225.469091 310.908109 
L 226.267636 310.383572 
L 227.598545 309.184079 
L 229.195636 307.731914 
L 230.260364 307.064283 
L 231.325091 306.679169 
L 232.656 306.250352 
L 233.188364 305.914306 
L 233.720727 305.368845 
L 234.253091 304.525429 
L 234.785455 303.29274 
L 235.317818 301.582662 
L 236.116364 297.956299 
L 236.914909 292.903822 
L 237.713455 286.397707 
L 238.778182 275.809054 
L 241.44 248.118609 
L 242.238545 242.652892 
L 242.770909 240.394777 
L 243.037091 239.729324 
L 243.303273 239.385309 
L 243.569455 239.366839 
L 243.835636 239.673951 
L 244.101818 240.302607 
L 244.634182 242.489118 
L 245.166545 245.819583 
L 245.965091 252.604913 
L 247.029818 263.890312 
L 249.159273 287.265499 
L 250.224 296.388217 
L 251.022545 301.510314 
L 251.821091 305.204046 
L 252.619636 307.697115 
L 253.418182 309.294706 
L 254.216727 310.29253 
L 255.015273 310.915041 
L 255.813818 311.290531 
L 256.612364 311.460867 
L 257.410909 311.414566 
L 258.209455 311.126952 
L 259.008 310.592527 
L 260.072727 309.555877 
L 263.000727 306.347088 
L 264.065455 305.588196 
L 266.461091 304.166724 
L 266.993455 303.566153 
L 267.525818 302.70229 
L 268.058182 301.484907 
L 268.590545 299.819811 
L 269.122909 297.613992 
L 269.921455 293.11285 
L 270.72 287.023001 
L 271.784727 276.47563 
L 273.381818 257.387722 
L 274.712727 242.54277 
L 275.511273 236.081981 
L 276.043636 233.288488 
L 276.576 231.879754 
L 276.842182 231.718158 
L 277.108364 231.921301 
L 277.374545 232.485507 
L 277.906909 234.659826 
L 278.439273 238.125988 
L 279.237818 245.35752 
L 280.302545 257.575539 
L 282.698182 285.954236 
L 283.762909 295.328057 
L 284.561455 300.474722 
L 285.36 304.136914 
L 286.158545 306.597337 
L 286.957091 308.183459 
L 287.755636 309.181818 
L 288.554182 309.789805 
L 289.352727 310.108178 
L 290.151273 310.163229 
L 290.949818 309.945036 
L 291.748364 309.445403 
L 292.546909 308.686107 
L 293.877818 307.03735 
L 295.474909 305.068708 
L 296.539636 304.139266 
L 297.604364 303.590284 
L 299.467636 302.886915 
L 300 302.484807 
L 300.532364 301.856997 
L 301.064727 300.910699 
L 301.597091 299.542783 
L 302.129455 297.644004 
L 302.661818 295.106093 
L 303.460364 289.897701 
L 304.258909 282.848467 
L 305.323636 270.744924 
L 308.251636 233.741764 
L 309.050182 227.387402 
L 309.582545 224.929435 
L 309.848727 224.28806 
L 310.114909 224.050752 
L 310.381091 224.220109 
L 310.647273 224.793769 
L 311.179636 227.119106 
L 311.712 230.910253 
L 312.510545 238.925931 
L 313.575273 252.59362 
L 315.970909 284.360143 
L 317.035636 294.747482 
L 317.834182 300.415089 
L 318.632727 304.43332 
L 319.431273 307.127867 
L 320.229818 308.86217 
L 321.028364 309.952991 
L 321.826909 310.628672 
L 322.625455 311.024903 
L 323.424 311.201777 
L 324.222545 311.170217 
L 325.021091 310.920322 
L 325.819636 310.449025 
L 326.884364 309.52572 
L 329.546182 306.975183 
L 330.610909 306.380507 
L 333.006545 305.358572 
L 333.538909 304.819876 
L 334.071273 303.996054 
L 334.603636 302.78975 
L 335.136 301.098 
L 335.668364 298.817845 
L 336.466909 294.094487 
L 337.265455 287.628442 
L 338.064 279.416482 
L 339.394909 262.761865 
L 341.258182 239.01711 
L 342.056727 231.333587 
L 342.589091 227.701782 
L 343.121455 225.488005 
L 343.387636 224.954892 
L 343.653818 224.818356 
L 343.92 225.083377 
L 344.186182 225.750165 
L 344.718545 228.266067 
L 345.250909 232.271435 
L 346.049455 240.680821 
L 347.114182 254.983174 
L 349.243636 284.596133 
L 350.308364 295.735198 
L 351.106909 301.755266 
L 351.905455 305.923859 
L 352.704 308.595713 
L 353.236364 309.751853 
L 353.768727 310.54497 
L 354.567273 311.265447 
L 355.365818 311.634196 
L 356.430545 311.819271 
L 357.495273 311.76925 
L 358.56 311.4877 
L 359.624727 310.950516 
L 360.955636 309.968299 
L 364.149818 307.448512 
L 365.746909 306.211835 
L 366.545455 305.270039 
L 367.344 303.833384 
L 367.876364 302.46376 
L 368.408727 300.656244 
L 369.207273 296.918506 
L 370.005818 291.714005 
L 370.804364 284.914435 
L 371.869091 273.592793 
L 374.797091 239.840552 
L 375.595636 233.765588 
L 376.128 231.186747 
L 376.660364 229.941208 
L 376.926545 229.844332 
L 377.192727 230.104894 
L 377.458909 230.723524 
L 377.991273 233.018455 
L 378.523636 236.656975 
L 379.322182 244.322125 
L 380.386909 257.505068 
L 382.782545 288.559094 
L 383.581091 296.430883 
L 384.379636 302.428227 
L 385.178182 306.651242 
L 385.976727 309.408917 
L 386.509091 310.62618 
L 387.307636 311.799247 
L 388.106182 312.457091 
L 388.904727 312.802735 
L 389.703273 312.937786 
L 390.501818 312.892186 
L 391.300364 312.659482 
L 392.098909 312.228788 
L 393.163636 311.362286 
L 394.760727 309.651097 
L 396.890182 307.406334 
L 398.753455 305.874298 
L 399.818182 304.918235 
L 400.616727 303.907135 
L 401.415273 302.405196 
L 402.213818 300.151965 
L 403.012364 296.87796 
L 403.810909 292.361906 
L 404.609455 286.504603 
L 405.674182 276.807194 
L 408.336 250.510392 
L 409.134545 245.181 
L 409.666909 242.994072 
L 409.933091 242.370227 
L 410.199273 242.077239 
L 410.465455 242.12314 
L 410.731636 242.511134 
L 410.997818 243.239785 
L 411.530182 245.68918 
L 412.062545 249.364661 
L 412.861091 256.775381 
L 414.192 272.060178 
L 415.789091 289.945339 
L 416.587636 297.02958 
L 417.386182 302.45587 
L 418.184727 306.272492 
L 418.983273 308.722381 
L 419.515636 309.75895 
L 420.048 310.435018 
L 420.580364 310.840983 
L 421.378909 311.106217 
L 422.177455 311.124379 
L 423.774545 310.864724 
L 426.436364 310.373954 
L 426.436364 310.373954 
" clip-path="url(#pb2f27507a4)" style="fill: none; stroke: #ffa500; stroke-width: 3; stroke-linecap: square"/>
   </g>
   <g id="line2d_2">
    <path d="M 27.163636 21.927273 
L 28.760727 98.110806 
L 29.559273 128.565259 
L 30.357818 151.142702 
L 30.890182 161.786511 
L 31.422545 169.309024 
L 31.954909 174.261817 
L 32.487273 177.26459 
L 33.019636 178.907805 
L 33.552 179.686277 
L 34.084364 179.976271 
L 34.882909 180.007416 
L 36.746182 179.710258 
L 38.609455 179.198906 
L 40.206545 178.802502 
L 41.005091 178.78183 
L 41.803636 178.984166 
L 42.602182 179.469325 
L 43.400727 180.279222 
L 44.199273 181.419625 
L 45.264 183.404108 
L 46.594909 186.446023 
L 48.192 190.620361 
L 49.256727 193.902375 
L 50.055273 197.005491 
L 50.853818 201.047499 
L 51.652364 206.307386 
L 52.717091 215.136526 
L 54.314182 229.03203 
L 54.846545 232.457391 
L 55.378909 234.667911 
L 55.645091 235.229712 
L 55.911273 235.400622 
L 56.177455 235.169897 
L 56.443636 234.536704 
L 56.976 232.115298 
L 57.508364 228.336538 
L 58.306909 220.875778 
L 60.170182 202.502713 
L 60.968727 197.02368 
L 61.501091 194.579398 
L 62.033455 193.07594 
L 62.565818 192.398092 
L 62.832 192.318703 
L 63.098182 192.380448 
L 63.630545 192.831153 
L 64.429091 193.964402 
L 65.493818 195.463164 
L 66.026182 195.933997 
L 66.558545 196.12723 
L 67.090909 196.022208 
L 67.623273 195.631871 
L 68.421818 194.612755 
L 70.018909 191.867726 
L 71.083636 190.221474 
L 72.148364 189.030342 
L 73.213091 188.24526 
L 74.544 187.577059 
L 75.874909 187.124424 
L 76.673455 187.023809 
L 77.472 187.136283 
L 78.270545 187.531852 
L 79.069091 188.271173 
L 79.867636 189.451008 
L 80.4 190.572942 
L 80.932364 192.069781 
L 81.464727 194.066114 
L 81.997091 196.71411 
L 82.529455 200.177244 
L 83.328 207.215959 
L 84.126545 216.700623 
L 85.191273 232.826775 
L 87.853091 276.557324 
L 88.651636 285.835239 
L 89.450182 292.142633 
L 89.982545 294.738254 
L 90.514909 296.179685 
L 90.781091 296.516542 
L 91.047273 296.622946 
L 91.313455 296.519575 
L 91.579636 296.223791 
L 92.112 295.108742 
L 92.644364 293.369873 
L 93.442909 289.683463 
L 94.241455 284.712748 
L 95.04 278.396809 
L 96.104727 267.819152 
L 97.435636 251.548552 
L 100.629818 209.901727 
L 101.694545 199.535228 
L 102.493091 193.660345 
L 103.291636 189.36334 
L 104.090182 186.443547 
L 104.888727 184.617572 
L 105.421091 183.85785 
L 105.953455 183.363316 
L 106.752 182.971319 
L 107.284364 182.904886 
L 107.816727 183.024805 
L 108.349091 183.430574 
L 108.881455 184.288154 
L 109.413818 185.82662 
L 109.946182 188.314458 
L 110.478545 192.029814 
L 111.010909 197.208925 
L 111.809455 208.013997 
L 112.608 222.337611 
L 113.938909 251.325267 
L 115.269818 279.920938 
L 116.068364 293.681923 
L 116.866909 303.737476 
L 117.399273 308.31372 
L 117.931636 311.317595 
L 118.464 312.949783 
L 118.730182 313.320547 
L 118.996364 313.432189 
L 119.262545 313.308693 
L 119.528727 312.97349 
L 120.061091 311.746524 
L 120.593455 309.874236 
L 121.392 306.040622 
L 122.456727 299.405742 
L 124.586182 284.965253 
L 125.118545 282.382587 
L 125.650909 280.682312 
L 125.917091 280.216445 
L 126.183273 280.024862 
L 126.449455 280.111693 
L 126.715636 280.479978 
L 127.248 282.017061 
L 127.780364 284.493874 
L 128.845091 291.194085 
L 129.909818 297.743232 
L 130.442182 299.911856 
L 130.708364 300.539259 
L 130.974545 300.801688 
L 131.240727 300.657518 
L 131.506909 300.071188 
L 131.773091 299.014304 
L 132.305455 295.413898 
L 132.837818 289.7827 
L 133.636364 277.741012 
L 134.701091 256.556208 
L 136.830545 211.993162 
L 137.629091 200.115217 
L 138.161455 194.724949 
L 138.693818 191.57745 
L 138.96 190.869555 
L 139.226182 190.742202 
L 139.492364 191.188772 
L 139.758545 192.20155 
L 140.290909 195.85653 
L 140.823273 201.538452 
L 141.621818 213.318819 
L 142.686545 233.30119 
L 144.816 275.208515 
L 145.880727 291.28257 
L 146.679273 300.150854 
L 147.477818 306.51779 
L 148.276364 310.882878 
L 149.074909 313.756917 
L 149.607273 315.039016 
L 150.139636 315.896045 
L 150.672 316.367976 
L 151.204364 316.472727 
L 151.736727 316.223806 
L 152.269091 315.636097 
L 152.801455 314.730276 
L 153.6 312.828768 
L 154.398545 310.332935 
L 155.463273 306.115601 
L 156.528 300.918569 
L 159.189818 287.134705 
L 159.722182 285.44132 
L 160.254545 284.494701 
L 160.520727 284.329304 
L 160.786909 284.370102 
L 161.053091 284.612131 
L 161.585455 285.635936 
L 162.384 288.084354 
L 163.182545 290.56668 
L 163.714909 291.492901 
L 163.981091 291.558232 
L 164.247273 291.28257 
L 164.513455 290.616299 
L 165.045818 287.939634 
L 165.578182 283.289788 
L 166.110545 276.605288 
L 166.909091 263.097084 
L 168.24 234.758053 
L 169.570909 206.980547 
L 170.369455 194.00795 
L 171.168 185.025544 
L 171.700364 181.385996 
L 172.232727 179.580421 
L 172.498909 179.340874 
L 172.765091 179.528042 
L 173.031273 180.132847 
L 173.563636 182.555622 
L 174.096 186.559875 
L 174.628364 192.09845 
L 175.426909 203.14335 
L 176.491636 222.214111 
L 179.685818 284.484225 
L 180.484364 295.153951 
L 181.282909 302.905807 
L 182.081455 308.034475 
L 182.613818 310.22846 
L 183.146182 311.606488 
L 183.678545 312.295088 
L 183.944727 312.41445 
L 184.210909 312.400391 
L 184.743273 312.01612 
L 185.275636 311.232692 
L 186.074182 309.501267 
L 189.268364 301.510412 
L 190.066909 300.212602 
L 190.865455 299.271772 
L 191.664 298.639681 
L 192.462545 298.27829 
L 193.261091 298.167749 
L 194.325818 298.338384 
L 195.124364 298.485587 
L 195.656727 298.375047 
L 196.189091 297.871415 
L 196.721455 296.714467 
L 197.253818 294.608969 
L 197.786182 291.254728 
L 198.318545 286.389592 
L 198.850909 279.845406 
L 199.649455 266.85048 
L 200.714182 244.727605 
L 202.843636 198.563242 
L 203.642182 185.96197 
L 204.174545 179.821899 
L 204.706909 175.506425 
L 205.239273 172.876627 
L 205.505455 172.128203 
L 205.771636 171.718571 
L 206.037818 171.615753 
L 206.304 171.794379 
L 206.570182 172.22772 
L 207.102545 173.785752 
L 207.634909 176.192823 
L 208.167273 179.441489 
L 208.965818 186.058722 
L 209.764364 195.114733 
L 210.562909 206.887376 
L 211.627636 226.469489 
L 214.555636 283.857097 
L 215.354182 294.481063 
L 216.152727 301.684079 
L 216.685091 304.684094 
L 217.217455 306.435368 
L 217.483636 306.910331 
L 217.749818 307.15622 
L 218.016 307.203909 
L 218.282182 307.081517 
L 218.814545 306.441708 
L 219.613091 304.86355 
L 221.742545 300.240994 
L 223.073455 298.066032 
L 224.670545 295.530228 
L 226.267636 292.442827 
L 227.332364 290.521471 
L 228.130909 289.465691 
L 229.728 287.651842 
L 230.260364 286.404203 
L 230.792727 284.30036 
L 231.325091 280.981405 
L 231.857455 276.141627 
L 232.389818 269.592753 
L 233.188364 256.564477 
L 234.253091 234.576118 
L 236.116364 195.167937 
L 236.914909 182.654314 
L 237.447273 176.568273 
L 237.979636 172.324473 
L 238.512 169.814312 
L 238.778182 169.153827 
L 239.044364 168.855844 
L 239.310545 168.894433 
L 239.576727 169.250308 
L 240.109091 170.840318 
L 240.641455 173.533802 
L 241.173818 177.316697 
L 241.972364 185.145462 
L 242.770909 195.752061 
L 243.835636 214.14938 
L 245.432727 247.41943 
L 246.763636 273.62953 
L 247.562182 286.014419 
L 248.360727 295.08228 
L 248.893091 299.274803 
L 249.425455 302.123758 
L 249.957818 303.819899 
L 250.490182 304.583203 
L 250.756364 304.683543 
L 251.022545 304.632822 
L 251.554909 304.177982 
L 252.353455 302.923725 
L 255.281455 297.588035 
L 257.677091 293.766825 
L 261.936 285.741513 
L 262.468364 284.121181 
L 263.000727 281.742779 
L 263.533091 278.283514 
L 264.065455 273.454489 
L 264.864 263.252005 
L 265.662545 249.534575 
L 266.993455 221.558867 
L 268.324364 194.279476 
L 269.122909 181.582548 
L 269.921455 172.796412 
L 270.453818 169.156864 
L 270.986182 167.156397 
L 271.252364 166.715611 
L 271.518545 166.618859 
L 271.784727 166.84379 
L 272.050909 167.373884 
L 272.583273 169.302134 
L 273.115636 172.358383 
L 273.648 176.569379 
L 274.446545 185.209411 
L 275.245091 196.821071 
L 276.309818 216.639703 
L 279.504 281.413915 
L 280.302545 291.931477 
L 281.101091 298.990873 
L 281.633455 301.959188 
L 282.165818 303.766972 
L 282.698182 304.643297 
L 282.964364 304.802353 
L 283.230545 304.809245 
L 283.762909 304.456675 
L 284.295273 303.747951 
L 285.093818 302.285019 
L 288.021818 296.51158 
L 289.086545 294.972015 
L 290.417455 293.422801 
L 292.014545 291.898122 
L 293.079273 291.183884 
L 294.144 290.81064 
L 294.942545 290.541595 
L 295.474909 290.121765 
L 296.007273 289.246817 
L 296.539636 287.635304 
L 297.072 284.97821 
L 297.604364 280.987192 
L 298.136727 275.440622 
L 298.935273 264.03764 
L 300 243.849348 
L 302.129455 200.026453 
L 302.928 188.4702 
L 303.460364 183.577503 
L 303.726545 182.086729 
L 303.992727 181.260021 
L 304.258909 181.113918 
L 304.525091 181.648147 
L 304.791273 182.861338 
L 305.323636 187.260608 
L 305.856 194.115184 
L 306.654545 208.281388 
L 307.985455 238.238269 
L 309.582545 273.672257 
L 310.381091 287.39355 
L 311.179636 297.451859 
L 311.712 302.170896 
L 312.244364 305.495364 
L 312.776727 307.655442 
L 313.309091 308.890954 
L 313.841455 309.415812 
L 314.107636 309.467636 
L 314.64 309.236081 
L 315.172364 308.638173 
L 315.970909 307.204186 
L 316.769455 305.275111 
L 318.366545 300.595769 
L 319.963636 296.124829 
L 321.028364 293.824438 
L 321.826909 292.520564 
L 322.625455 291.532596 
L 323.690182 290.610235 
L 324.488727 290.168074 
L 325.287273 289.939276 
L 326.085818 289.958573 
L 326.884364 290.259318 
L 327.682909 290.847579 
L 328.747636 291.975582 
L 330.344727 293.767929 
L 331.143273 294.387613 
L 331.941818 294.721439 
L 333.006545 294.823985 
L 334.071273 294.88904 
L 334.869818 295.192819 
L 335.402182 295.6019 
L 336.200727 296.574432 
L 336.999273 297.951081 
L 338.330182 300.826222 
L 340.193455 304.874301 
L 341.258182 306.751275 
L 342.589091 308.624665 
L 344.452364 310.793289 
L 345.783273 312.065187 
L 346.581818 312.523887 
L 347.114182 312.607688 
L 347.646545 312.459107 
L 348.178909 312.037346 
L 348.711273 311.315666 
L 349.243636 310.286348 
L 350.042182 308.197943 
L 351.106909 304.626758 
L 353.502545 296.100019 
L 354.301091 293.934428 
L 355.099636 292.332563 
L 355.898182 291.309862 
L 356.430545 290.932757 
L 356.962909 290.779491 
L 357.495273 290.83352 
L 358.027636 291.077204 
L 358.826182 291.763048 
L 359.890909 293.100554 
L 360.689455 294.075842 
L 361.221818 294.432546 
L 361.488 294.440817 
L 361.754182 294.292511 
L 362.020364 293.951794 
L 362.286545 293.382556 
L 362.818909 291.415441 
L 363.351273 288.129564 
L 363.883636 283.333893 
L 364.682182 273.192883 
L 365.480727 259.924507 
L 368.142545 211.417861 
L 368.941091 202.280257 
L 369.473455 198.797004 
L 369.739636 197.904417 
L 370.005818 197.592924 
L 370.272 197.863897 
L 370.538182 198.714305 
L 371.070545 202.103834 
L 371.602909 207.61374 
L 372.401455 219.29624 
L 373.466182 239.302873 
L 375.595636 280.454341 
L 376.394182 292.108451 
L 377.192727 300.761443 
L 377.991273 306.66196 
L 378.523636 309.355718 
L 379.056 311.286721 
L 379.588364 312.633324 
L 380.120727 313.526465 
L 380.653091 314.04774 
L 381.185455 314.234913 
L 381.717818 314.097359 
L 382.250182 313.629011 
L 382.782545 312.824633 
L 383.581091 311.010234 
L 384.379636 308.573117 
L 385.976727 302.699337 
L 387.307636 298.002354 
L 388.372364 294.988003 
L 390.235636 290.160906 
L 390.768 288.078565 
L 391.300364 285.231543 
L 391.832727 281.372568 
L 392.631273 273.304528 
L 393.429818 262.392498 
L 394.494545 244.396261 
L 396.357818 212.05712 
L 397.156364 201.405586 
L 397.954909 193.762066 
L 398.487273 190.314101 
L 399.019636 188.014263 
L 399.552 186.651668 
L 400.084364 185.994774 
L 400.616727 185.82331 
L 401.149091 185.950936 
L 402.213818 186.556013 
L 403.278545 187.094104 
L 404.875636 187.687603 
L 405.408 188.168908 
L 405.940364 189.088514 
L 406.472727 190.700848 
L 407.005091 193.270288 
L 407.537455 197.037742 
L 408.069818 202.180195 
L 408.868364 212.569298 
L 409.933091 230.630037 
L 412.062545 269.454651 
L 412.861091 280.388457 
L 413.659636 287.964443 
L 414.192 291.130959 
L 414.724364 292.935985 
L 414.990545 293.388343 
L 415.256727 293.577999 
L 415.522909 293.534167 
L 415.789091 293.287177 
L 416.321455 292.298932 
L 417.12 289.975113 
L 420.314182 278.782183 
L 420.846545 276.220191 
L 421.378909 272.580366 
L 421.911273 267.204705 
L 422.443636 259.353612 
L 422.976 248.307058 
L 423.508364 233.479816 
L 424.306909 203.549954 
L 425.105455 164.995482 
L 426.436364 89.347836 
L 426.436364 89.347836 
" clip-path="url(#pb2f27507a4)" style="fill: none; stroke: #ff0000; stroke-width: 3; stroke-linecap: square"/>
   </g>
   <g id="line2d_3">
    <path d="M 27.163636 227.326139 
L 28.760727 209.459686 
L 30.091636 195.268991 
L 30.890182 188.615742 
L 31.688727 183.919156 
L 32.221091 181.93104 
L 32.753455 180.805375 
L 33.019636 180.535131 
L 33.285818 180.438774 
L 33.552 180.497947 
L 34.084364 181.004376 
L 34.616727 181.895594 
L 35.681455 184.253437 
L 39.141818 192.648655 
L 39.940364 195.481422 
L 41.005091 200.265762 
L 43.134545 210.627126 
L 43.933091 213.211006 
L 44.465455 214.174205 
L 44.731636 214.405009 
L 44.997818 214.466815 
L 45.264 214.363146 
L 45.796364 213.689072 
L 46.328727 212.472457 
L 47.127273 209.912015 
L 49.522909 201.359281 
L 50.321455 199.383314 
L 51.12 198.076565 
L 51.652364 197.555679 
L 52.184727 197.275682 
L 52.717091 197.191632 
L 53.515636 197.32254 
L 55.911273 198.023878 
L 56.709818 197.909122 
L 57.508364 197.476219 
L 58.306909 196.69938 
L 59.105455 195.599927 
L 60.436364 193.277512 
L 61.767273 190.978299 
L 62.565818 190.035395 
L 63.098182 189.741538 
L 63.630545 189.794163 
L 64.162909 190.247738 
L 64.695273 191.139456 
L 65.227636 192.488068 
L 66.026182 195.362909 
L 66.824727 199.206724 
L 67.889455 205.713853 
L 68.954182 213.760087 
L 70.018909 223.508728 
L 71.083636 235.179483 
L 72.414545 252.224513 
L 74.544 279.925075 
L 75.342545 287.786589 
L 75.874909 291.578672 
L 76.407273 294.003712 
L 76.673455 294.66967 
L 76.939636 294.962961 
L 77.205818 294.883876 
L 77.472 294.437394 
L 78.004364 292.485059 
L 78.536727 289.230119 
L 79.335273 282.284932 
L 80.4 270.182714 
L 81.730909 252.255017 
L 83.594182 224.002964 
L 87.054545 170.328447 
L 87.853091 161.036682 
L 88.651636 153.99665 
L 89.184 150.638924 
L 89.716364 148.319688 
L 90.248727 146.947261 
L 90.781091 146.381264 
L 91.047273 146.346994 
L 91.579636 146.658003 
L 92.112 147.316223 
L 94.507636 150.798441 
L 95.838545 152.344095 
L 96.370909 153.211375 
L 96.903273 154.396705 
L 97.435636 155.999997 
L 98.234182 159.337287 
L 99.032727 163.883345 
L 99.831273 169.637722 
L 100.896 179.146272 
L 101.960727 190.867053 
L 103.025455 205.157617 
L 104.090182 222.310512 
L 105.687273 252.453451 
L 107.550545 287.313917 
L 108.349091 298.8858 
L 108.881455 304.655678 
L 109.413818 308.572844 
L 109.68 309.777911 
L 109.946182 310.458721 
L 110.212364 310.604689 
L 110.478545 310.210315 
L 110.744727 309.274705 
L 111.277091 305.798478 
L 111.809455 300.25554 
L 112.608 288.385085 
L 113.406545 272.860363 
L 114.737455 241.206097 
L 118.197818 154.392369 
L 119.262545 133.999296 
L 120.327273 118.198172 
L 121.125818 109.199948 
L 121.924364 102.366097 
L 122.722909 97.476884 
L 123.255273 95.242848 
L 123.787636 93.82481 
L 124.053818 93.424386 
L 124.32 93.230899 
L 124.586182 93.243803 
L 124.852364 93.460728 
L 125.384727 94.486857 
L 125.917091 96.238078 
L 126.715636 99.946017 
L 129.377455 114.015073 
L 130.176 116.814246 
L 132.305455 123.089158 
L 132.837818 125.694685 
L 133.370182 129.250814 
L 133.902545 133.966974 
L 134.701091 143.5076 
L 135.499636 156.117747 
L 136.564364 177.261483 
L 138.161455 215.079591 
L 140.290909 265.231168 
L 141.355636 284.991454 
L 142.154182 295.869969 
L 142.686545 300.893921 
L 143.218909 303.966477 
L 143.485091 304.736094 
L 143.751273 304.980473 
L 144.017455 304.692051 
L 144.283636 303.865916 
L 144.816 300.595197 
L 145.348364 295.189202 
L 145.880727 287.7248 
L 146.679273 272.993036 
L 147.744 248.015795 
L 151.736727 146.897612 
L 152.801455 128.48041 
L 153.866182 114.298414 
L 154.930909 103.136256 
L 155.995636 94.174988 
L 156.794182 88.965232 
L 157.326545 86.410531 
L 157.858909 84.749198 
L 158.125091 84.290435 
L 158.391273 84.093243 
L 158.657455 84.162046 
L 158.923636 84.49644 
L 159.456 85.930349 
L 159.988364 88.274463 
L 160.786909 93.028071 
L 162.650182 105.013232 
L 163.448727 108.719117 
L 164.247273 111.362197 
L 165.578182 115.300719 
L 166.110545 117.656456 
L 166.642909 120.976154 
L 167.175273 125.548283 
L 167.973818 135.179885 
L 168.772364 148.341018 
L 169.837091 170.885499 
L 171.434182 211.49754 
L 173.297455 258.561328 
L 174.362182 280.354084 
L 175.160727 292.772258 
L 175.693091 298.860712 
L 176.225455 303.04526 
L 176.757818 305.22136 
L 177.024 305.529 
L 177.290182 305.304481 
L 177.556364 304.540779 
L 178.088727 301.376666 
L 178.621091 296.021677 
L 179.153455 288.506629 
L 179.952 273.405459 
L 181.016727 247.201969 
L 182.88 192.56974 
L 184.210909 155.461265 
L 185.275636 131.183971 
L 186.074182 116.853273 
L 186.872727 105.667256 
L 187.671273 97.150162 
L 188.469818 90.814593 
L 189.268364 86.377139 
L 189.800727 84.461924 
L 190.333091 83.438604 
L 190.599273 83.282617 
L 190.865455 83.374155 
L 191.131636 83.718662 
L 191.664 85.17327 
L 192.196364 87.619193 
L 192.994909 92.899858 
L 194.325818 104.162139 
L 195.390545 112.841366 
L 196.189091 117.891499 
L 196.987636 121.369643 
L 197.786182 123.625362 
L 198.850909 126.315387 
L 199.383273 128.337677 
L 199.915636 131.299035 
L 200.448 135.502499 
L 200.980364 141.162081 
L 201.778909 152.58574 
L 202.577455 167.405011 
L 203.642182 191.408822 
L 207.102545 274.994034 
L 207.901091 289.21781 
L 208.699636 299.781972 
L 209.232 304.546825 
L 209.764364 307.371444 
L 210.030545 308.033299 
L 210.296727 308.185378 
L 210.562909 307.821876 
L 210.829091 306.937937 
L 211.361455 303.593906 
L 211.893818 298.135279 
L 212.426182 290.57022 
L 213.224727 275.39778 
L 214.023273 256.047927 
L 215.354182 216.982849 
L 217.749818 143.856812 
L 218.814545 117.703664 
L 219.879273 97.18394 
L 220.944 81.710803 
L 221.742545 72.923096 
L 222.541091 66.426027 
L 223.073455 63.449501 
L 223.605818 61.662307 
L 223.872 61.242291 
L 224.138182 61.148049 
L 224.404364 61.382934 
L 224.670545 61.945332 
L 225.202909 64.019395 
L 225.735273 67.246502 
L 226.533818 73.758178 
L 228.929455 95.486459 
L 229.728 100.558766 
L 230.526545 104.211771 
L 232.389818 111.594396 
L 232.922182 114.918712 
L 233.454545 119.374987 
L 234.253091 128.635923 
L 235.051636 141.231341 
L 236.116364 162.79949 
L 237.713455 201.833415 
L 239.842909 254.26295 
L 240.907636 275.765365 
L 241.706182 288.363477 
L 242.504727 297.277269 
L 243.037091 300.936273 
L 243.303273 302.036382 
L 243.569455 302.63348 
L 243.835636 302.716548 
L 244.101818 302.275948 
L 244.368 301.303256 
L 244.900364 297.735755 
L 245.432727 291.980773 
L 245.965091 284.042248 
L 246.763636 268.176089 
L 247.828364 240.45467 
L 249.159273 198.560328 
L 251.288727 130.46864 
L 252.353455 102.523752 
L 253.418182 80.653459 
L 254.216727 68.266487 
L 255.015273 59.172458 
L 255.547636 54.903281 
L 256.08 52.078915 
L 256.612364 50.719497 
L 256.878545 50.591775 
L 257.144727 50.829189 
L 257.410909 51.425154 
L 257.943273 53.645584 
L 258.475636 57.1087 
L 259.274182 64.126085 
L 261.936 90.400335 
L 262.734545 95.749645 
L 263.533091 99.555249 
L 265.662545 107.956823 
L 266.194909 111.388075 
L 266.727273 115.957552 
L 267.525818 125.365873 
L 268.324364 138.071334 
L 269.389091 159.773192 
L 270.72 192.260082 
L 273.115636 251.988692 
L 274.180364 273.546594 
L 274.978909 286.142099 
L 275.777455 295.085618 
L 276.309818 298.817552 
L 276.842182 300.650829 
L 277.108364 300.829372 
L 277.374545 300.503344 
L 277.640727 299.664585 
L 278.173091 296.421508 
L 278.705455 291.060582 
L 279.237818 283.575652 
L 280.036364 268.476885 
L 280.834909 249.147758 
L 282.165818 210.060752 
L 284.561455 137.497524 
L 285.626182 112.557252 
L 286.424727 98.311562 
L 287.223273 87.803586 
L 288.021818 80.645646 
L 288.554182 77.516591 
L 289.086545 75.57204 
L 289.352727 75.016454 
L 289.618909 74.726407 
L 289.885091 74.692787 
L 290.151273 74.906675 
L 290.417455 75.358222 
L 290.949818 76.92591 
L 291.482182 79.279118 
L 292.280727 83.931532 
L 294.942545 100.718458 
L 295.741091 103.915122 
L 296.539636 106.041205 
L 298.402909 110.07734 
L 298.935273 112.1579 
L 299.467636 115.155318 
L 300 119.294878 
L 300.798545 127.97895 
L 301.597091 139.796765 
L 302.661818 160.067611 
L 303.992727 190.671994 
L 306.654545 253.966411 
L 307.719273 273.901301 
L 308.517818 285.048398 
L 309.050182 290.351146 
L 309.582545 293.808671 
L 309.848727 294.816228 
L 310.114909 295.330379 
L 310.381091 295.343006 
L 310.647273 294.847188 
L 310.913455 293.837 
L 311.445818 290.256097 
L 311.978182 284.580374 
L 312.510545 276.822617 
L 313.309091 261.435523 
L 314.373818 234.809142 
L 315.970909 187.088749 
L 317.568 141.067242 
L 318.632727 116.857627 
L 319.431273 103.174599 
L 320.229818 93.149648 
L 321.028364 86.19731 
L 321.826909 81.653728 
L 322.359273 79.71469 
L 322.891636 78.562085 
L 323.157818 78.27683 
L 323.424 78.188996 
L 323.690182 78.30313 
L 323.956364 78.624375 
L 324.488727 79.903771 
L 325.021091 82.036332 
L 325.819636 86.721365 
L 326.884364 94.973798 
L 328.481455 107.777591 
L 329.28 112.638204 
L 330.078545 115.943332 
L 330.610909 117.371307 
L 331.409455 118.826564 
L 332.208 120.334016 
L 332.740364 121.929724 
L 333.272727 124.386532 
L 333.805091 127.989729 
L 334.337455 132.955663 
L 335.136 143.229421 
L 335.934545 156.949212 
L 336.999273 180.077211 
L 338.330182 214.572171 
L 340.725818 278.042361 
L 341.790545 299.545854 
L 342.589091 310.451071 
L 343.121455 314.748107 
L 343.387636 315.939064 
L 343.653818 316.472727 
L 343.92 316.340018 
L 344.186182 315.536091 
L 344.452364 314.059615 
L 344.984727 309.103004 
L 345.517091 301.532958 
L 346.315636 285.55311 
L 347.114182 264.622641 
L 348.178909 230.733101 
L 351.639273 113.364982 
L 352.704 87.565506 
L 353.502545 73.329278 
L 354.301091 63.334788 
L 354.833455 58.829374 
L 355.365818 55.885397 
L 355.898182 54.371449 
L 356.164364 54.115618 
L 356.430545 54.177417 
L 356.696727 54.546537 
L 357.229091 56.164928 
L 357.761455 58.885027 
L 358.56 64.792855 
L 359.624727 75.219247 
L 361.754182 97.407484 
L 362.552727 103.60873 
L 363.351273 108.030963 
L 364.149818 111.009561 
L 365.480727 115.176649 
L 366.013091 117.554664 
L 366.545455 120.828629 
L 367.077818 125.248036 
L 367.876364 134.363255 
L 368.674909 146.59596 
L 369.739636 167.380661 
L 371.070545 198.840324 
L 374.264727 277.874001 
L 375.063273 292.555403 
L 375.861818 303.015447 
L 376.394182 307.229863 
L 376.660364 308.438138 
L 376.926545 309.023004 
L 377.192727 308.970033 
L 377.458909 308.267802 
L 377.725091 306.907479 
L 378.257455 302.190785 
L 378.789818 294.803515 
L 379.588364 278.796329 
L 380.386909 257.212159 
L 381.451636 221.089684 
L 383.314909 147.081233 
L 384.645818 97.040365 
L 385.710545 64.904987 
L 386.509091 46.862857 
L 387.307636 34.117368 
L 387.84 28.348077 
L 388.372364 24.529815 
L 388.904727 22.452574 
L 389.170909 22.006504 
L 389.437091 21.927273 
L 389.703273 22.196779 
L 389.969455 22.798889 
L 390.501818 24.944108 
L 391.034182 28.258295 
L 391.832727 35.179348 
L 392.897455 47.239474 
L 395.559273 79.414038 
L 396.357818 86.307546 
L 397.156364 91.478238 
L 398.487273 98.074711 
L 399.285818 102.554739 
L 400.084364 108.739201 
L 400.882909 117.332051 
L 401.681455 128.54751 
L 402.746182 147.14914 
L 404.077091 174.594113 
L 408.602182 272.945186 
L 409.400727 283.806914 
L 409.933091 288.378253 
L 410.199273 289.750043 
L 410.465455 290.474514 
L 410.731636 290.530694 
L 410.997818 289.904328 
L 411.264 288.587972 
L 411.796364 283.88899 
L 412.328727 276.505889 
L 413.127273 260.796589 
L 413.925818 240.388106 
L 415.256727 199.556173 
L 417.386182 133.169797 
L 418.450909 107.258276 
L 419.249455 92.974753 
L 420.048 83.373523 
L 420.580364 79.439583 
L 421.112727 77.272453 
L 421.378909 76.780211 
L 421.645091 76.640849 
L 421.911273 76.822363 
L 422.177455 77.292942 
L 422.709818 78.976957 
L 423.508364 82.922748 
L 424.573091 89.750893 
L 426.436364 102.282073 
L 426.436364 102.282073 
" clip-path="url(#pb2f27507a4)" style="fill: none; stroke: #0000ff; stroke-width: 3; stroke-linecap: square"/>
   </g>
   <g id="patch_3">
    <path d="M 7.2 331.2 
L 7.2 7.2 
" style="fill: none; stroke: #000000; stroke-width: 0.8; stroke-linejoin: miter; stroke-linecap: square"/>
   </g>
   <g id="patch_4">
    <path d="M 446.4 331.2 
L 446.4 7.2 
" style="fill: none; stroke: #000000; stroke-width: 0.8; stroke-linejoin: miter; stroke-linecap: square"/>
   </g>
   <g id="patch_5">
    <path d="M 7.2 331.2 
L 446.4 331.2 
" style="fill: none; stroke: #000000; stroke-width: 0.8; stroke-linejoin: miter; stroke-linecap: square"/>
   </g>
   <g id="patch_6">
    <path d="M 7.2 7.2 
L 446.4 7.2 
" style="fill: none; stroke: #000000; stroke-width: 0.8; stroke-linejoin: miter; stroke-linecap: square"/>
   </g>
  </g>
 </g>
 <defs>
  <clipPath id="pb2f27507a4">
   <rect x="7.2" y="7.2" width="439.2" height="324"/>
  </clipPath>
 </defs>
</svg>
