<?xml version="1.0" encoding="utf-8" standalone="no"?>
<!DOCTYPE svg PUBLIC "-//W3C//DTD SVG 1.1//EN"
  "http://www.w3.org/Graphics/SVG/1.1/DTD/svg11.dtd">
<svg xmlns:xlink="http://www.w3.org/1999/xlink" width="453.6pt" height="338.4pt" viewBox="0 0 453.6 338.4" xmlns="http://www.w3.org/2000/svg" version="1.1">
 <metadata>
  <rdf:RDF xmlns:dc="http://purl.org/dc/elements/1.1/" xmlns:cc="http://creativecommons.org/ns#" xmlns:rdf="http://www.w3.org/1999/02/22-rdf-syntax-ns#">
   <cc:Work>
    <dc:type rdf:resource="http://purl.org/dc/dcmitype/StillImage"/>
    <dc:date>2025-05-15T17:34:02.761390</dc:date>
    <dc:format>image/svg+xml</dc:format>
    <dc:creator>
     <cc:Agent>
      <dc:title>Matplotlib v3.10.1, https://matplotlib.org/</dc:title>
     </cc:Agent>
    </dc:creator>
   </cc:Work>
  </rdf:RDF>
 </metadata>
 <defs>
  <style type="text/css">*{stroke-linejoin: round; stroke-linecap: butt}</style>
 </defs>
 <g id="figure_1">
  <g id="patch_1">
   <path d="M 0 338.4 
L 453.6 338.4 
L 453.6 0 
L 0 0 
z
" style="fill: #ffffff"/>
  </g>
  <g id="axes_1">
   <g id="patch_2">
    <path d="M 7.2 331.2 
L 446.4 331.2 
L 446.4 7.2 
L 7.2 7.2 
z
" style="fill: #ffffff"/>
   </g>
   <g id="matplotlib.axis_1"/>
   <g id="matplotlib.axis_2"/>
   <g id="line2d_1">
    <path d="M 27.163636 305.375833 
L 27.719727 308.579755 
L 28.275817 310.763618 
L 28.831907 311.893608 
L 29.109952 312.053119 
L 29.387997 311.936843 
L 29.666042 311.540555 
L 30.222132 309.890505 
L 30.778222 307.064786 
L 31.334312 303.024099 
L 32.168448 294.622392 
L 33.002583 283.424071 
L 34.114763 264.598049 
L 35.783034 231.223629 
L 37.729349 192.855339 
L 39.119575 169.843663 
L 40.231755 154.662721 
L 41.343935 142.210027 
L 42.456115 132.188202 
L 43.568296 124.200527 
L 44.680476 117.822416 
L 45.792656 112.739452 
L 46.904837 108.796669 
L 47.738972 106.563369 
L 48.573107 104.939098 
L 49.407242 103.900379 
L 49.963332 103.508261 
L 50.519423 103.326189 
L 51.075513 103.321371 
L 51.909648 103.563379 
L 53.299873 104.306626 
L 56.914459 106.564843 
L 58.304685 107.770785 
L 61.085135 110.41116 
L 61.919271 110.913154 
L 62.753406 111.168177 
L 63.587541 111.16282 
L 64.421676 110.91887 
L 65.533857 110.300421 
L 66.924082 109.202053 
L 68.314307 107.792538 
L 69.426488 106.32136 
L 70.538668 104.387559 
L 71.650848 101.90186 
L 72.763029 98.855669 
L 74.153254 94.352647 
L 76.09957 87.094124 
L 78.601975 76.786067 
L 81.660471 63.149434 
L 86.943327 39.429782 
L 88.333553 34.287744 
L 89.723778 30.063008 
L 90.835958 27.388549 
L 91.948139 25.324413 
L 93.060319 23.815016 
L 93.894454 23.012948 
L 94.72859 22.481975 
L 95.562725 22.235689 
L 96.39686 22.302671 
L 96.95295 22.54112 
L 97.787085 23.220872 
L 98.621221 24.313487 
L 99.455356 25.840609 
L 100.289491 27.80774 
L 101.401671 31.091588 
L 102.513852 35.070433 
L 103.904077 40.867234 
L 105.572347 48.782066 
L 107.518663 59.088182 
L 109.743024 72.100469 
L 114.46979 100.52517 
L 115.860015 107.448455 
L 117.250241 113.348589 
L 118.640466 118.28335 
L 120.030691 122.34036 
L 121.142872 124.97153 
L 122.255052 127.041958 
L 123.089187 128.218777 
L 123.923322 129.080278 
L 124.757458 129.642387 
L 125.591593 129.93599 
L 126.425728 130.004123 
L 127.537908 129.856207 
L 129.206179 129.608842 
L 130.040314 129.769198 
L 130.596404 130.092031 
L 131.152494 130.648352 
L 131.708584 131.49432 
L 132.264675 132.68696 
L 132.820765 134.285164 
L 133.6549 137.57739 
L 134.489035 142.13722 
L 135.32317 148.18153 
L 136.157306 155.913571 
L 136.991441 165.490174 
L 138.103621 181.220856 
L 139.493847 205.168998 
L 143.386478 276.970116 
L 144.220613 288.159035 
L 145.054748 296.592615 
L 145.610838 300.570112 
L 146.166928 303.199502 
L 146.723018 304.478288 
L 147.001064 304.613836 
L 147.279109 304.415764 
L 147.557154 303.885942 
L 148.113244 301.839424 
L 148.669334 298.494938 
L 149.225424 293.884952 
L 150.059559 284.722075 
L 151.17174 268.87393 
L 152.84001 240.564803 
L 154.230236 217.877507 
L 155.064371 206.967251 
L 155.898506 199.267677 
L 156.454596 196.263194 
L 156.732641 195.44944 
L 157.010686 195.106149 
L 157.288731 195.235908 
L 157.566776 195.836632 
L 157.844821 196.900663 
L 158.400912 200.366764 
L 158.957002 205.483885 
L 159.791137 215.767997 
L 160.903317 232.848942 
L 163.683768 277.224654 
L 164.795948 290.674181 
L 165.630084 298.236876 
L 166.464219 303.525446 
L 167.020309 305.783357 
L 167.576399 307.029281 
L 167.854444 307.27226 
L 168.132489 307.261204 
L 168.410534 306.995142 
L 168.688579 306.473014 
L 169.24467 304.655813 
L 169.80076 301.803577 
L 170.35685 297.921432 
L 171.190985 290.22655 
L 172.02512 280.461924 
L 173.137301 264.8091 
L 175.083616 233.47185 
L 177.029932 202.863717 
L 178.420157 184.009974 
L 179.810382 168.150611 
L 181.200608 154.975811 
L 182.590833 144.103128 
L 183.981058 135.254132 
L 185.371284 128.120946 
L 186.761509 122.273593 
L 188.42978 116.320498 
L 190.376095 110.202589 
L 192.322411 104.779892 
L 195.102861 97.870018 
L 197.049177 92.779251 
L 198.995493 87.038934 
L 201.219853 79.719469 
L 202.888124 73.553705 
L 204.556394 66.490018 
L 206.50271 57.0106 
L 209.561205 41.838 
L 210.951431 36.07327 
L 212.341656 31.302029 
L 213.453836 28.204675 
L 214.566017 25.745726 
L 215.400152 24.320642 
L 216.234287 23.247226 
L 217.068422 22.510128 
L 217.902558 22.080007 
L 218.736693 21.927273 
L 219.570828 22.029383 
L 220.404963 22.3776 
L 221.239099 22.985012 
L 222.073234 23.873406 
L 222.907369 25.069605 
L 223.741504 26.602444 
L 224.853684 29.208339 
L 225.965865 32.483522 
L 227.35609 37.455892 
L 228.746316 43.261142 
L 230.414586 51.245402 
L 232.082856 60.328964 
L 238.199848 95.112217 
L 239.590073 101.484035 
L 240.980299 106.76953 
L 242.092479 110.100012 
L 242.926614 112.02619 
L 243.76075 113.437684 
L 244.594885 114.326222 
L 245.150975 114.629137 
L 245.707065 114.700434 
L 246.263155 114.540761 
L 246.819245 114.151196 
L 247.375336 113.532927 
L 248.209471 112.180147 
L 249.043606 110.336519 
L 250.155786 107.185701 
L 251.267967 103.360633 
L 252.658192 97.834891 
L 254.604507 89.137837 
L 259.609319 66.208353 
L 260.999544 60.913941 
L 262.111724 57.451974 
L 262.94586 55.428863 
L 263.779995 53.989181 
L 264.336085 53.397841 
L 264.892175 53.129191 
L 265.448265 53.201279 
L 266.004356 53.628668 
L 266.560446 54.421712 
L 267.116536 55.588536 
L 267.950671 58.056833 
L 268.784806 61.425642 
L 269.618942 65.754645 
L 270.453077 71.12715 
L 271.287212 77.663315 
L 272.399392 88.462005 
L 273.511573 102.032338 
L 274.623753 118.686074 
L 275.735933 138.478332 
L 277.126159 167.288751 
L 279.072474 213.131685 
L 281.01879 258.38238 
L 282.13097 279.48501 
L 282.965105 291.728846 
L 283.79924 300.669903 
L 284.35533 304.85962 
L 284.911421 307.729401 
L 285.467511 309.371882 
L 285.745556 309.759379 
L 286.023601 309.869849 
L 286.301646 309.710643 
L 286.579691 309.288396 
L 287.135781 307.676781 
L 287.691871 305.075687 
L 288.247962 301.52486 
L 289.082097 294.515644 
L 289.916232 285.655142 
L 291.028412 271.442612 
L 294.086908 229.688561 
L 294.921043 222.3024 
L 295.477133 219.314815 
L 295.755179 218.45975 
L 296.033224 218.040775 
L 296.311269 218.057458 
L 296.589314 218.503003 
L 296.867359 219.365583 
L 297.423449 222.270904 
L 297.979539 226.601742 
L 298.813674 235.319721 
L 299.925855 249.954552 
L 303.262396 297.163102 
L 304.096531 305.638767 
L 304.930666 311.723939 
L 305.486756 314.396134 
L 306.042846 315.971471 
L 306.320891 316.354995 
L 306.598936 316.472727 
L 306.876982 316.327005 
L 307.155027 315.919481 
L 307.711117 314.323111 
L 308.267207 311.688075 
L 308.823297 308.021781 
L 309.657432 300.643171 
L 310.491567 291.176048 
L 311.603748 275.824288 
L 313.272018 248.753643 
L 316.886604 187.66523 
L 318.27683 168.525938 
L 319.667055 152.84419 
L 321.05728 139.985392 
L 322.447506 129.288453 
L 323.837731 120.247569 
L 325.784047 109.315417 
L 329.398633 90.713714 
L 331.622993 80.241274 
L 333.291264 73.537202 
L 334.681489 68.880043 
L 336.071714 65.007372 
L 337.46194 61.754731 
L 338.852165 58.990602 
L 339.964345 57.166533 
L 340.798481 56.12199 
L 341.632616 55.452161 
L 342.188706 55.253658 
L 342.744796 55.270197 
L 343.300886 55.501706 
L 343.856976 55.935423 
L 344.691112 56.913235 
L 345.803292 58.653243 
L 348.027653 62.723663 
L 350.530058 67.626246 
L 351.920284 70.842069 
L 353.588554 75.338619 
L 356.369005 82.956002 
L 357.481185 85.417971 
L 358.593365 87.326425 
L 359.427501 88.366438 
L 360.261636 89.089623 
L 361.095771 89.530674 
L 361.929906 89.72231 
L 362.764042 89.67334 
L 363.598177 89.358309 
L 364.432312 88.738673 
L 365.266447 87.779377 
L 366.100582 86.471504 
L 367.212763 84.226302 
L 368.602988 80.772246 
L 370.827349 74.420563 
L 373.885845 65.084709 
L 375.83216 58.45082 
L 380.836971 40.553425 
L 381.949152 37.716848 
L 382.783287 36.093836 
L 383.617422 34.925142 
L 384.451557 34.21526 
L 385.007648 33.99256 
L 385.563738 33.966097 
L 386.119828 34.132422 
L 386.675918 34.488477 
L 387.510053 35.379352 
L 388.344188 36.718469 
L 389.178324 38.534736 
L 390.012459 40.851486 
L 391.124639 44.713264 
L 392.514865 50.626198 
L 394.183135 58.842183 
L 397.519676 76.707687 
L 401.134262 97.011394 
L 405.582983 123.764617 
L 411.42193 158.984786 
L 412.53411 167.646281 
L 413.64629 177.914069 
L 414.75847 190.21216 
L 416.148696 208.584403 
L 418.095011 238.30105 
L 420.597417 276.644801 
L 421.709597 290.923326 
L 422.543733 299.468544 
L 423.377868 305.661328 
L 423.933958 308.324786 
L 424.490048 309.747694 
L 424.768093 309.983321 
L 425.046138 309.897857 
L 425.324183 309.489614 
L 425.602228 308.7571 
L 426.158319 306.31762 
L 426.436364 304.612524 
L 426.436364 304.612524 
" clip-path="url(#pcea82316c0)" style="fill: none; stroke-dasharray: 11.1,4.8; stroke-dashoffset: 0; stroke: #000000; stroke-width: 3"/>
   </g>
   <g id="line2d_2">
    <path d="M 27.163636 109.531646 
L 28.831907 108.995892 
L 30.222132 108.329515 
L 31.612358 107.424294 
L 33.002583 106.24467 
L 34.392808 104.753502 
L 35.226944 103.67757 
L 35.783034 102.824986 
L 36.339124 102.576614 
L 43.568296 100.75686 
L 46.070701 99.570476 
L 48.295062 98.302728 
L 50.241378 96.929131 
L 51.909648 95.493692 
L 53.855964 93.452855 
L 54.412054 92.858674 
L 56.080324 92.125926 
L 57.748595 91.630044 
L 59.416865 91.34446 
L 61.363181 91.2403 
L 63.309496 91.340073 
L 65.811902 91.704074 
L 69.148443 92.263379 
L 70.538668 92.143615 
L 73.597164 95.680115 
L 77.76784 99.018865 
L 83.606787 104.010039 
L 86.109192 106.196779 
L 88.889643 106.156078 
L 90.279868 106.438032 
L 91.670094 106.940924 
L 93.338364 107.802713 
L 95.006635 108.907336 
L 96.39686 110.015016 
L 96.95295 110.640153 
L 98.343175 112.814416 
L 100.011446 115.83907 
L 101.679716 119.297333 
L 103.626032 123.841667 
L 106.684528 131.483426 
L 107.240618 131.907831 
L 111.133249 134.246693 
L 113.635655 135.083205 
L 116.13806 135.672532 
L 118.640466 136.165501 
L 124.757458 143.477092 
L 127.815953 147.506668 
L 130.874449 151.923976 
L 131.430539 152.557742 
L 133.932945 154.681633 
L 136.435351 157.109231 
L 138.659711 159.571236 
L 142.274297 163.704001 
L 144.220613 165.472521 
L 146.166928 166.93604 
L 147.835199 167.929385 
L 149.781514 168.814903 
L 151.449785 169.352527 
L 153.118055 169.681796 
L 154.508281 169.803466 
L 155.064371 169.490592 
L 156.454596 167.982741 
L 158.122867 165.819479 
L 159.791137 163.295633 
L 160.903317 161.602366 
L 164.517903 159.740473 
L 169.24467 157.249165 
L 170.91294 156.114376 
L 172.58121 154.694541 
L 174.805571 152.394581 
L 177.029932 149.526868 
L 179.810382 145.567043 
L 187.317599 134.356245 
L 190.376095 128.869226 
L 192.044366 126.42207 
L 193.712636 124.404675 
L 195.380907 122.755308 
L 197.049177 121.41353 
L 198.995493 120.147077 
L 201.219853 118.975542 
L 205.668574 116.963936 
L 206.50271 116.770862 
L 209.28316 116.433646 
L 213.453836 116.16327 
L 214.844062 116.166578 
L 217.346467 116.762376 
L 219.848873 117.60137 
L 222.351279 118.697903 
L 222.907369 118.875589 
L 226.521955 119.196445 
L 227.91218 119.180661 
L 229.858496 118.978275 
L 231.804811 118.563219 
L 233.751127 117.914999 
L 235.697442 117.018838 
L 236.253533 116.823355 
L 237.921803 116.920252 
L 239.590073 117.25326 
L 240.424209 117.573685 
L 242.092479 118.424615 
L 246.819245 121.147325 
L 248.209471 121.624762 
L 249.321651 122.11543 
L 251.824057 123.475652 
L 257.384958 126.602956 
L 257.941048 126.79657 
L 259.331274 126.803077 
L 260.999544 126.590659 
L 262.667815 126.15759 
L 264.892175 125.205017 
L 266.560446 124.733441 
L 268.228716 124.507217 
L 269.618942 124.527423 
L 271.009167 124.754798 
L 272.399392 125.205988 
L 273.789618 125.887753 
L 274.623753 126.50516 
L 276.292023 128.102214 
L 278.238339 130.309663 
L 284.911421 138.236827 
L 286.857736 140.496626 
L 289.360142 143.790793 
L 291.028412 145.923745 
L 292.974728 147.388666 
L 294.642998 148.894935 
L 296.311269 150.660686 
L 298.257584 153.237458 
L 300.2039 156.179165 
L 302.42826 159.971048 
L 304.652621 164.209698 
L 306.042846 166.839071 
L 306.320891 166.788771 
L 307.711117 164.125853 
L 314.106153 156.966564 
L 316.052469 154.358584 
L 317.720739 151.736115 
L 319.110965 149.120117 
L 320.50119 145.962504 
L 321.61337 142.919945 
L 323.003596 138.375 
L 324.393821 132.988544 
L 325.506002 127.72099 
L 326.618182 121.428847 
L 328.008407 112.263453 
L 329.398633 112.558781 
L 331.066903 113.145771 
L 334.403444 114.833824 
L 337.46194 116.49218 
L 338.852165 116.458383 
L 340.24239 116.239062 
L 341.076526 115.701222 
L 341.910661 115.026108 
L 345.525247 110.775557 
L 347.193517 109.148625 
L 348.583743 108.085709 
L 349.695923 107.48405 
L 350.808103 107.112894 
L 351.920284 107.00086 
L 352.754419 107.107357 
L 353.310509 107.594753 
L 356.369005 111.708822 
L 358.87141 115.218823 
L 359.983591 115.900876 
L 363.042087 117.725124 
L 364.432312 118.839168 
L 365.544492 119.989093 
L 366.656673 121.454482 
L 367.490808 123.177627 
L 368.324943 125.60393 
L 369.159078 128.831007 
L 369.993213 132.968051 
L 370.827349 138.115086 
L 371.939529 146.708951 
L 374.998025 173.480079 
L 376.38825 183.31958 
L 377.778476 195.194489 
L 378.890656 206.422148 
L 379.168701 207.159894 
L 380.002836 208.007589 
L 380.836971 208.532773 
L 381.671107 208.761514 
L 382.505242 208.716355 
L 383.339377 208.425341 
L 384.173512 207.916229 
L 385.285693 206.925005 
L 386.397873 205.619038 
L 387.788098 203.623934 
L 389.456369 200.826691 
L 391.124639 197.624962 
L 393.627045 191.865697 
L 395.851405 187.807645 
L 399.187946 182.258389 
L 400.856217 179.357849 
L 402.524487 175.342115 
L 403.914713 171.402856 
L 404.470803 169.876237 
L 405.304938 169.060506 
L 406.139073 168.527089 
L 406.417118 168.408835 
L 408.919524 170.364173 
L 409.753659 170.678197 
L 410.309749 170.38668 
L 411.699975 169.255702 
L 413.0902 167.816129 
L 413.924335 166.732107 
L 416.426741 162.565725 
L 419.485237 157.610613 
L 420.319372 156.709275 
L 421.153507 156.129728 
L 421.709597 155.972284 
L 421.987642 157.664688 
L 423.377868 175.698746 
L 424.490048 187.294793 
L 425.880273 199.297771 
L 426.436364 203.44215 
L 426.436364 203.44215 
" clip-path="url(#pcea82316c0)" style="fill: none; stroke: #ff00ff; stroke-width: 3; stroke-linecap: square"/>
   </g>
   <g id="patch_3">
    <path d="M 7.2 331.2 
L 7.2 7.2 
" style="fill: none; stroke: #000000; stroke-width: 0.8; stroke-linejoin: miter; stroke-linecap: square"/>
   </g>
   <g id="patch_4">
    <path d="M 446.4 331.2 
L 446.4 7.2 
" style="fill: none; stroke: #000000; stroke-width: 0.8; stroke-linejoin: miter; stroke-linecap: square"/>
   </g>
   <g id="patch_5">
    <path d="M 7.2 331.2 
L 446.4 331.2 
" style="fill: none; stroke: #000000; stroke-width: 0.8; stroke-linejoin: miter; stroke-linecap: square"/>
   </g>
   <g id="patch_6">
    <path d="M 7.2 7.2 
L 446.4 7.2 
" style="fill: none; stroke: #000000; stroke-width: 0.8; stroke-linejoin: miter; stroke-linecap: square"/>
   </g>
  </g>
 </g>
 <defs>
  <clipPath id="pcea82316c0">
   <rect x="7.2" y="7.2" width="439.2" height="324"/>
  </clipPath>
 </defs>
</svg>
