<?xml version="1.0" encoding="utf-8" standalone="no"?>
<!DOCTYPE svg PUBLIC "-//W3C//DTD SVG 1.1//EN"
  "http://www.w3.org/Graphics/SVG/1.1/DTD/svg11.dtd">
<svg xmlns:xlink="http://www.w3.org/1999/xlink" width="453.6pt" height="338.4pt" viewBox="0 0 453.6 338.4" xmlns="http://www.w3.org/2000/svg" version="1.1">
 <metadata>
  <rdf:RDF xmlns:dc="http://purl.org/dc/elements/1.1/" xmlns:cc="http://creativecommons.org/ns#" xmlns:rdf="http://www.w3.org/1999/02/22-rdf-syntax-ns#">
   <cc:Work>
    <dc:type rdf:resource="http://purl.org/dc/dcmitype/StillImage"/>
    <dc:date>2025-05-15T09:52:41.306529</dc:date>
    <dc:format>image/svg+xml</dc:format>
    <dc:creator>
     <cc:Agent>
      <dc:title>Matplotlib v3.10.1, https://matplotlib.org/</dc:title>
     </cc:Agent>
    </dc:creator>
   </cc:Work>
  </rdf:RDF>
 </metadata>
 <defs>
  <style type="text/css">*{stroke-linejoin: round; stroke-linecap: butt}</style>
 </defs>
 <g id="figure_1">
  <g id="patch_1">
   <path d="M 0 338.4 
L 453.6 338.4 
L 453.6 0 
L 0 0 
z
" style="fill: #ffffff"/>
  </g>
  <g id="axes_1">
   <g id="patch_2">
    <path d="M 7.2 331.2 
L 446.4 331.2 
L 446.4 7.2 
L 7.2 7.2 
z
" style="fill: #ffffff"/>
   </g>
   <g id="matplotlib.axis_1"/>
   <g id="matplotlib.axis_2"/>
   <g id="line2d_1">
    <path d="M 27.163636 241.881522 
L 28.228364 241.387506 
L 29.293091 240.618163 
L 30.357818 239.590278 
L 31.688727 237.963724 
L 33.019636 235.983947 
L 34.616727 233.17884 
L 36.213818 229.945878 
L 38.077091 225.68669 
L 40.206545 220.249037 
L 42.602182 213.511842 
L 43.933091 209.346255 
L 45.264 202.838117 
L 46.594909 195.268851 
L 48.192 184.835059 
L 50.055273 170.918918 
L 52.184727 153.01378 
L 55.378909 123.717866 
L 56.177455 116.343123 
L 56.443636 115.119064 
L 56.709818 114.79573 
L 57.508364 114.547608 
L 58.839273 113.847463 
L 60.702545 112.626231 
L 62.565818 110.589088 
L 63.364364 110.089349 
L 63.896727 110.011013 
L 64.429091 110.2035 
L 64.961455 110.749237 
L 65.493818 111.692799 
L 66.026182 113.105482 
L 66.558545 115.071276 
L 67.357091 119.164908 
L 68.155636 124.85948 
L 68.954182 132.368388 
L 69.752727 141.865684 
L 70.817455 157.942687 
L 71.882182 178.221275 
L 72.148364 183.973151 
L 72.414545 187.098897 
L 73.745455 163.07235 
L 74.810182 147.745615 
L 75.608727 138.6285 
L 76.407273 131.592172 
L 77.205818 126.387736 
L 77.738182 123.744885 
L 78.270545 122.506342 
L 78.536727 122.41361 
L 78.802909 122.65162 
L 79.069091 123.198902 
L 79.601455 125.200195 
L 80.133818 128.455234 
L 80.932364 135.47246 
L 81.730909 145.008925 
L 82.529455 157.125354 
L 83.594182 177.341688 
L 84.658909 202.567311 
L 85.723636 233.467421 
L 87.054545 278.813064 
L 87.320727 277.278224 
L 88.385455 255.218349 
L 89.184 242.575688 
L 89.982545 232.863538 
L 90.781091 225.642308 
L 91.579636 220.309062 
L 93.442909 209.636864 
L 93.709091 207.506208 
L 94.507636 206.656686 
L 95.306182 205.429309 
L 96.104727 203.79338 
L 96.903273 201.68265 
L 97.701818 198.989403 
L 98.500364 195.613963 
L 99.298909 191.440977 
L 100.097455 186.348059 
L 101.162182 177.784949 
L 102.226909 167.02102 
L 103.291636 153.676529 
L 104.356364 137.684709 
L 105.687273 113.783155 
L 107.018182 85.984756 
L 108.082909 61.557075 
L 108.349091 63.104327 
L 109.413818 75.623287 
L 110.212364 83.172574 
L 111.010909 88.068879 
L 113.140364 99.364605 
L 114.471273 105.302999 
L 115.802182 110.091157 
L 116.866909 113.050917 
L 117.931636 115.140659 
L 118.730182 116.228568 
L 119.528727 116.846427 
L 120.061091 117.068355 
L 120.859636 117.067197 
L 121.658182 116.757065 
L 122.456727 116.180991 
L 123.255273 115.386411 
L 124.32 114.089108 
L 126.981818 110.361893 
L 128.046545 106.934433 
L 129.111273 102.738307 
L 130.442182 96.288079 
L 131.773091 88.396953 
L 133.104 78.967354 
L 134.701091 65.685205 
L 136.830545 45.648244 
L 138.693818 28.84111 
L 138.96 26.8102 
L 139.226182 28.456874 
L 140.024727 63.396323 
L 140.823273 94.58045 
L 141.621818 118.20156 
L 142.154182 129.512824 
L 142.686545 137.093379 
L 143.218909 140.89735 
L 143.485091 141.434238 
L 143.751273 141.118401 
L 144.017455 140.498858 
L 144.549818 138.235678 
L 145.082182 134.667681 
L 145.880727 127.077645 
L 146.679273 117.113405 
L 147.744 101.094425 
L 151.470545 41.729735 
L 152.269091 33.290468 
L 152.535273 31.159171 
L 152.801455 30.885152 
L 154.132364 35.508423 
L 155.463273 40.929274 
L 156.794182 47.406838 
L 158.125091 55.107039 
L 159.456 64.111197 
L 160.520727 71.238853 
L 161.585455 76.544746 
L 162.650182 83.133213 
L 163.714909 91.137453 
L 164.779636 100.670248 
L 166.110545 114.873522 
L 167.441455 131.764469 
L 168.772364 151.297618 
L 170.369455 175.521875 
L 171.434182 185.495017 
L 172.232727 191.188798 
L 173.031273 195.426831 
L 173.829818 198.402927 
L 174.362182 199.726205 
L 174.894545 200.635866 
L 175.426909 201.124334 
L 175.959273 201.304163 
L 176.491636 201.221254 
L 177.024 200.860946 
L 177.556364 200.019966 
L 178.088727 198.627656 
L 178.621091 196.617085 
L 179.153455 193.904947 
L 179.952 188.378495 
L 180.750545 180.963987 
L 181.549091 171.53667 
L 182.613818 155.812672 
L 183.678545 136.566673 
L 185.009455 108.093464 
L 186.606545 68.89839 
L 186.872727 61.993998 
L 187.138909 63.836863 
L 188.203636 87.498388 
L 189.268364 106.175704 
L 190.066909 117.134191 
L 190.865455 125.734292 
L 191.664 132.253008 
L 192.462545 137.00723 
L 193.261091 140.288358 
L 193.527273 141.11417 
L 194.059636 144.493543 
L 194.592 146.388778 
L 194.858182 146.790729 
L 195.124364 146.789377 
L 195.390545 146.428174 
L 195.656727 145.640406 
L 196.189091 142.881192 
L 196.721455 138.437979 
L 197.253818 132.240982 
L 198.052364 119.568615 
L 198.850909 102.611428 
L 199.649455 81.197124 
L 200.980364 39.203229 
L 201.512727 59.472004 
L 202.577455 98.114388 
L 203.642182 127.308756 
L 204.706909 149.134141 
L 205.771636 165.890607 
L 208.699636 207.859256 
L 209.498182 224.399929 
L 210.562909 248.348539 
L 211.361455 263.389344 
L 211.627636 269.126977 
L 212.426182 257.972166 
L 217.217455 186.559111 
L 218.016 178.469785 
L 218.814545 172.800652 
L 219.346909 170.615036 
L 219.613091 170.019237 
L 219.879273 169.818894 
L 220.145455 169.999495 
L 220.411636 170.553255 
L 220.677818 171.53516 
L 221.210182 174.76347 
L 221.742545 179.757854 
L 222.274909 186.524324 
L 223.073455 200.210162 
L 223.872 218.050517 
L 224.936727 246.836908 
L 225.202909 247.420852 
L 226.267636 236.369579 
L 228.663273 215.705832 
L 229.728 209.582501 
L 230.792727 204.690137 
L 232.123636 199.604584 
L 233.720727 194.369144 
L 235.850182 188.247402 
L 237.979636 182.827112 
L 240.375273 177.365346 
L 243.835636 170.130202 
L 245.166545 167.656838 
L 246.231273 165.250048 
L 247.296 162.368115 
L 248.360727 158.878278 
L 249.425455 154.676412 
L 250.490182 149.569554 
L 251.554909 143.337532 
L 251.821091 141.561943 
L 252.087273 140.643662 
L 253.418182 146.16727 
L 254.749091 152.531948 
L 256.08 159.873948 
L 257.410909 168.375206 
L 258.741818 178.278597 
L 260.072727 189.918962 
L 262.734545 224.257433 
L 265.130182 258.277869 
L 266.993455 286.619713 
L 267.259636 284.036087 
L 268.324364 260.91541 
L 269.389091 241.925465 
L 270.453818 226.134603 
L 271.784727 209.699505 
L 273.381818 193.13909 
L 276.842182 159.713641 
L 278.705455 127.851052 
L 280.302545 96.530197 
L 280.834909 85.142072 
L 281.101091 86.621943 
L 284.029091 134.928462 
L 285.892364 162.357704 
L 287.489455 183.168538 
L 288.820364 197.921481 
L 289.885091 207.105776 
L 290.417455 210.420453 
L 290.949818 212.634168 
L 291.216 213.237788 
L 291.482182 213.418697 
L 291.748364 213.180423 
L 292.014545 212.481964 
L 292.280727 211.194729 
L 292.813091 206.793116 
L 293.345455 199.369312 
L 293.877818 188.162675 
L 294.676364 164.528415 
L 295.208727 143.918364 
L 295.474909 145.126253 
L 296.273455 168.723926 
L 297.072 185.756377 
L 297.870545 197.377579 
L 298.402909 202.595586 
L 298.935273 206.143384 
L 299.467636 208.308872 
L 300 209.375627 
L 300.266182 209.583625 
L 300.532364 209.622187 
L 301.064727 209.321992 
L 302.661818 207.812925 
L 302.928 207.821001 
L 303.194182 207.978384 
L 303.460364 208.339938 
L 303.726545 208.905338 
L 304.258909 210.846957 
L 304.791273 214.060827 
L 305.323636 218.789469 
L 305.856 225.27891 
L 306.388364 233.772426 
L 308.251636 188.002984 
L 308.784 181.103727 
L 309.316364 176.481264 
L 309.848727 173.701903 
L 310.381091 172.345067 
L 310.647273 172.040325 
L 310.913455 171.949348 
L 311.445818 172.116308 
L 312.244364 172.48233 
L 312.510545 172.393741 
L 312.776727 172.112341 
L 313.042909 171.540059 
L 313.309091 170.657329 
L 313.841455 167.557154 
L 314.373818 162.237005 
L 314.906182 154.105183 
L 315.438545 142.543918 
L 315.970909 126.921676 
L 316.769455 94.362787 
L 317.301818 65.66477 
L 317.568 59.494002 
L 317.834182 59.908698 
L 318.100364 61.226455 
L 318.632727 66.337825 
L 319.165091 74.516153 
L 319.963636 91.698376 
L 321.028364 121.928249 
L 322.625455 176.883557 
L 325.021091 260.391219 
L 326.085818 290.236181 
L 326.618182 302.198847 
L 327.416727 312.485696 
L 327.682909 315.273843 
L 327.949091 310.688477 
L 329.013818 273.731093 
L 330.078545 244.294553 
L 331.143273 221.805278 
L 331.941818 208.997491 
L 332.740364 199.099824 
L 333.538909 191.513045 
L 334.603636 183.804733 
L 336.733091 169.72301 
L 337.531636 162.284056 
L 338.330182 152.256226 
L 339.128727 138.714754 
L 339.927273 122.714261 
L 340.193455 122.012554 
L 340.459636 121.730635 
L 340.725818 121.856303 
L 340.992 122.313223 
L 341.524364 124.179929 
L 342.056727 127.094148 
L 342.855273 132.907611 
L 343.653818 138.760505 
L 346.049455 153.307127 
L 347.114182 158.496921 
L 347.912727 161.486562 
L 348.711273 163.528023 
L 349.243636 164.275341 
L 349.509818 164.446919 
L 349.776 164.480592 
L 350.042182 164.371638 
L 350.574545 163.707396 
L 351.106909 162.418256 
L 351.639273 160.456026 
L 352.171636 157.7479 
L 352.970182 152.280349 
L 353.768727 144.998689 
L 354.567273 135.672497 
L 355.632 119.951061 
L 355.898182 115.349912 
L 356.430545 126.882385 
L 357.761455 156.611991 
L 359.092364 181.584198 
L 360.157091 197.887238 
L 361.488 213.981999 
L 362.552727 224.084811 
L 363.351273 229.565644 
L 363.883636 232.042413 
L 364.416 233.441886 
L 364.682182 233.700867 
L 364.948364 233.655379 
L 365.214545 233.293421 
L 365.480727 232.603091 
L 366.013091 230.189506 
L 366.545455 226.234823 
L 367.077818 220.698864 
L 367.876364 209.094972 
L 368.674909 193.217198 
L 369.473455 172.659658 
L 370.272 147.000878 
L 371.336727 111.045042 
L 372.933818 158.111157 
L 374.530909 198.756133 
L 376.128 233.578245 
L 376.394182 238.893154 
L 376.660364 241.942925 
L 377.458909 245.202831 
L 378.257455 249.438051 
L 379.322182 256.340376 
L 380.653091 266.468307 
L 382.516364 282.479517 
L 384.912 304.991336 
L 385.710545 312.878479 
L 386.242909 293.804879 
L 387.307636 256.008821 
L 388.372364 227.086873 
L 389.170909 210.671122 
L 389.969455 198.165198 
L 390.768 188.947064 
L 391.566545 182.449687 
L 392.365091 178.01455 
L 393.163636 175.199331 
L 393.962182 174.615093 
L 396.624 172.330539 
L 397.422545 171.898926 
L 398.221091 171.726296 
L 398.753455 171.765183 
L 399.285818 171.942852 
L 400.084364 172.477423 
L 400.882909 173.322205 
L 401.947636 174.905009 
L 403.278545 177.400695 
L 406.472727 183.763546 
L 407.537455 185.33313 
L 408.336 186.167545 
L 409.134545 186.678661 
L 409.933091 186.850906 
L 410.465455 186.698069 
L 410.731636 186.533936 
L 410.997818 185.624889 
L 411.530182 182.63222 
L 417.12 148.074374 
L 418.184727 142.836985 
L 418.983273 139.674415 
L 419.781818 137.404423 
L 420.314182 136.510317 
L 420.580364 136.279961 
L 420.846545 136.208946 
L 421.112727 136.309087 
L 421.378909 136.613267 
L 421.911273 137.844524 
L 422.443636 139.995519 
L 422.976 143.265727 
L 423.508364 147.763189 
L 424.306909 157.256675 
L 425.105455 170.651377 
L 425.904 188.745597 
L 426.436364 203.900649 
L 426.436364 203.900649 
" clip-path="url(#p50239af2a7)" style="fill: none; stroke: #ffa500; stroke-width: 3; stroke-linecap: square"/>
   </g>
   <g id="line2d_2">
    <path d="M 27.163636 164.796166 
L 27.696 159.550807 
L 28.228364 156.256793 
L 28.760727 154.749077 
L 29.026909 154.625182 
L 29.293091 154.84748 
L 29.559273 155.459264 
L 30.091636 157.603517 
L 30.624 160.84883 
L 31.422545 167.310102 
L 32.753455 180.431848 
L 34.350545 195.728448 
L 35.149091 201.496264 
L 35.681455 204.178925 
L 36.213818 205.72702 
L 36.48 206.011616 
L 36.746182 205.97868 
L 37.012364 205.553414 
L 37.278545 204.788883 
L 37.810909 202.013191 
L 38.077091 196.454909 
L 39.141818 167.536192 
L 40.206545 145.468004 
L 41.271273 128.909134 
L 42.069818 119.400795 
L 42.868364 111.884724 
L 43.666909 105.98355 
L 44.731636 99.786061 
L 45.796364 94.721181 
L 47.393455 88.412508 
L 48.990545 82.093372 
L 50.055273 76.774347 
L 51.12 70.611953 
L 52.184727 97.889457 
L 52.983273 113.182519 
L 53.781818 124.713868 
L 54.580364 133.147096 
L 55.378909 139.214317 
L 56.177455 143.692748 
L 58.573091 155.411195 
L 59.371636 161.349324 
L 60.170182 169.539178 
L 60.968727 180.391723 
L 61.767273 194.061137 
L 62.832 217.21303 
L 63.630545 234.898539 
L 64.162909 241.14529 
L 64.695273 244.726433 
L 64.961455 245.65408 
L 65.227636 246.055943 
L 65.493818 245.966569 
L 65.76 245.418602 
L 66.292364 243.00899 
L 66.824727 239.123799 
L 67.623273 231.012264 
L 68.688 216.92753 
L 72.148364 166.321561 
L 72.680727 161.506822 
L 73.213091 158.824381 
L 73.479273 158.440021 
L 73.745455 158.871765 
L 74.011636 160.11496 
L 74.277818 162.440605 
L 74.810182 170.464105 
L 75.342545 184.030209 
L 75.874909 204.410554 
L 76.407273 226.874846 
L 77.205818 203.228252 
L 79.069091 178.144985 
L 80.133818 166.169277 
L 80.932364 158.981597 
L 81.730909 153.657726 
L 82.263273 151.35278 
L 82.795636 150.097366 
L 83.061818 149.905037 
L 83.328 150.027229 
L 83.594182 150.445665 
L 83.860364 151.16786 
L 84.392727 153.670332 
L 84.925091 157.537997 
L 85.457455 162.840888 
L 86.256 173.672189 
L 87.054545 188.048173 
L 87.853091 206.081753 
L 88.917818 235.973676 
L 89.450182 251.395584 
L 89.716364 247.425715 
L 90.248727 234.535431 
L 90.781091 225.431501 
L 91.313455 219.727045 
L 91.579636 217.990202 
L 91.845818 217.019358 
L 92.112 216.647042 
L 92.378182 216.895182 
L 92.644364 217.674865 
L 93.176727 220.654806 
L 93.709091 225.171325 
L 94.773818 236.502638 
L 96.637091 257.005166 
L 97.701818 266.078039 
L 98.500364 270.919156 
L 99.032727 273.131651 
L 99.565091 274.536434 
L 99.831273 274.917866 
L 100.097455 275.097291 
L 100.363636 275.091208 
L 100.629818 274.910896 
L 100.896 274.569541 
L 101.428364 273.322527 
L 101.960727 271.532283 
L 102.759273 267.819723 
L 104.090182 259.800718 
L 106.219636 245.254061 
L 107.018182 238.913958 
L 107.816727 234.190634 
L 108.615273 230.782944 
L 109.413818 228.435889 
L 109.946182 227.41565 
L 110.212364 227.089805 
L 110.478545 223.00589 
L 111.010909 210.821746 
L 111.543273 203.443993 
L 112.075636 199.687063 
L 112.341818 198.844994 
L 112.608 198.589919 
L 112.874182 198.860812 
L 113.140364 199.534254 
L 113.672727 201.860329 
L 114.471273 207.074087 
L 115.802182 217.971926 
L 118.197818 237.614135 
L 119.528727 246.668311 
L 120.593455 252.471556 
L 121.392 255.778171 
L 121.924364 257.334719 
L 122.456727 258.322892 
L 122.722909 258.560024 
L 122.989091 258.562179 
L 123.255273 258.354116 
L 123.521455 257.911408 
L 124.053818 256.206461 
L 124.586182 253.160736 
L 125.118545 248.414177 
L 125.650909 241.625139 
L 126.183273 232.306758 
L 126.715636 219.680152 
L 126.981818 211.527078 
L 127.780364 208.994612 
L 128.578909 205.632804 
L 129.377455 201.48401 
L 130.442182 194.749413 
L 131.773091 184.571074 
L 133.370182 170.184723 
L 135.765818 145.687352 
L 138.96 112.742875 
L 140.290909 100.865018 
L 141.355636 92.855739 
L 142.420364 86.527737 
L 143.218909 83.063637 
L 144.017455 80.52126 
L 144.283636 80.041342 
L 144.549818 79.822503 
L 144.816 79.879139 
L 145.082182 80.164218 
L 145.614545 81.412364 
L 146.146909 83.436234 
L 146.945455 87.643771 
L 147.744 92.845029 
L 148.010182 99.649491 
L 148.808727 126.222725 
L 149.341091 138.267244 
L 149.873455 146.366411 
L 150.405818 151.038101 
L 150.672 152.275854 
L 150.938182 152.789937 
L 151.204364 152.751805 
L 151.470545 152.113704 
L 152.002909 149.476541 
L 152.535273 145.274446 
L 153.333818 136.942202 
L 154.930909 116.992846 
L 156.528 97.975641 
L 157.592727 87.68308 
L 158.657455 79.812215 
L 159.456 75.48396 
L 161.053091 68.158112 
L 162.117818 63.575731 
L 162.916364 60.88632 
L 163.714909 58.80167 
L 164.513455 57.259105 
L 165.312 56.212786 
L 165.844364 55.795631 
L 166.376727 56.681275 
L 166.909091 58.57644 
L 170.635636 73.732353 
L 173.031273 84.462153 
L 175.693091 97.544494 
L 177.024 103.756045 
L 179.419636 107.384313 
L 181.282909 110.647867 
L 184.743273 116.910612 
L 185.541818 117.854771 
L 186.074182 118.206652 
L 186.606545 118.217361 
L 187.138909 117.829016 
L 187.671273 116.887315 
L 188.203636 115.256021 
L 188.736 112.775758 
L 189.268364 109.232427 
L 189.800727 104.361701 
L 190.333091 97.932803 
L 191.131636 84.521721 
L 191.930182 65.323423 
L 192.196364 57.37517 
L 192.462545 58.068765 
L 193.527273 138.052109 
L 194.059636 141.228514 
L 194.592 146.141147 
L 195.390545 156.093853 
L 196.455273 172.707288 
L 199.117091 215.885556 
L 199.915636 225.725682 
L 200.714182 233.088767 
L 201.246545 236.480737 
L 201.778909 238.521066 
L 202.045091 239.070051 
L 202.311273 239.309088 
L 202.577455 239.244718 
L 202.843636 238.885929 
L 203.109818 238.244151 
L 203.642182 236.079918 
L 204.174545 232.93623 
L 204.973091 226.726645 
L 206.304 213.81467 
L 208.167273 195.81012 
L 208.965818 190.075063 
L 209.498182 187.369263 
L 210.030545 185.785459 
L 210.296727 183.940935 
L 211.095273 172.515889 
L 211.893818 158.449905 
L 212.958545 135.025495 
L 214.023273 105.637586 
L 215.088 69.653924 
L 215.620364 49.032848 
L 215.886545 47.081345 
L 217.483636 92.695081 
L 218.282182 109.587064 
L 219.080727 121.924738 
L 219.613091 127.605545 
L 220.145455 131.342206 
L 220.677818 133.093743 
L 220.944 133.310879 
L 221.210182 133.046657 
L 221.476364 132.392475 
L 222.008727 129.87271 
L 222.541091 125.941614 
L 223.339636 117.882405 
L 224.670545 100.889017 
L 226.001455 83.81315 
L 226.8 75.922779 
L 227.332364 72.323479 
L 227.598545 71.340696 
L 227.864727 78.676534 
L 228.929455 140.898684 
L 229.728 177.818587 
L 230.526545 206.406351 
L 231.325091 226.766489 
L 231.857455 235.903197 
L 232.389818 241.573198 
L 232.656 243.146298 
L 232.922182 243.87807 
L 233.188364 243.777292 
L 233.454545 242.939265 
L 233.986909 238.783875 
L 234.519273 231.653059 
L 235.051636 221.726994 
L 235.850182 201.71513 
L 236.648727 176.239514 
L 237.713455 134.919631 
L 239.044364 73.487706 
L 240.109091 21.927273 
L 240.375273 22.338002 
L 241.44 58.348595 
L 242.504727 86.244659 
L 243.303273 102.835394 
L 244.368 118.450544 
L 246.763636 151.662315 
L 248.360727 170.672392 
L 249.691636 183.862792 
L 251.022545 194.921491 
L 254.216727 219.783708 
L 255.281455 230.839747 
L 256.08 241.287321 
L 256.878545 254.123817 
L 257.677091 269.913507 
L 258.209455 282.337399 
L 258.475636 282.974574 
L 259.540364 268.045861 
L 260.338909 257.658123 
L 261.137455 247.840934 
L 261.669818 243.610604 
L 262.202182 241.202857 
L 262.468364 240.640486 
L 262.734545 240.492329 
L 263.000727 240.763898 
L 263.266909 241.445599 
L 263.799273 243.954497 
L 264.331636 247.9571 
L 265.130182 256.54689 
L 265.928727 268.011929 
L 266.993455 287.205489 
L 268.324364 316.472727 
L 268.590545 312.054741 
L 269.389091 274.457554 
L 270.187636 248.807153 
L 270.72 237.442768 
L 271.252364 230.023643 
L 271.784727 226.054099 
L 272.050909 225.251979 
L 272.317091 225.079699 
L 272.583273 225.569036 
L 272.849455 226.601082 
L 273.381818 230.170282 
L 273.914182 235.371215 
L 274.712727 245.391552 
L 276.309818 269.177174 
L 276.842182 275.574159 
L 277.640727 278.493645 
L 278.439273 282.28983 
L 279.504 288.481791 
L 282.964364 310.235436 
L 284.029091 294.724184 
L 285.36 271.676942 
L 287.489455 229.629953 
L 289.618909 188.544832 
L 290.683636 171.449837 
L 291.482182 161.152167 
L 292.280727 153.528056 
L 292.813091 150.091327 
L 293.345455 148.132327 
L 295.741091 147.997547 
L 299.201455 147.6404 
L 300.266182 147.782272 
L 301.064727 148.115877 
L 301.863273 148.78909 
L 302.661818 149.949402 
L 303.460364 151.764018 
L 303.992727 153.436587 
L 304.525091 155.587776 
L 305.057455 158.312457 
L 305.856 163.723758 
L 306.654545 171.146412 
L 307.719273 183.490889 
L 307.985455 183.42026 
L 310.381091 158.940849 
L 311.978182 147.508289 
L 314.107636 132.197021 
L 315.172364 125.84379 
L 315.970909 122.149089 
L 316.503273 120.329451 
L 317.035636 119.099388 
L 317.568 118.517942 
L 317.834182 118.487025 
L 318.100364 118.637219 
L 318.366545 118.975775 
L 318.898909 120.263984 
L 319.431273 122.35276 
L 319.963636 125.263432 
L 320.762182 131.191555 
L 321.560727 139.027993 
L 322.625455 152.217989 
L 323.956364 172.51624 
L 325.021091 191.102825 
L 325.819636 207.164923 
L 326.884364 226.237079 
L 327.416727 237.17026 
L 327.949091 244.936779 
L 328.481455 249.868614 
L 329.013818 252.298429 
L 329.28 252.681467 
L 329.546182 252.552547 
L 329.812364 251.958175 
L 330.344727 249.53727 
L 330.877091 245.726109 
L 331.675636 238.045528 
L 333.006545 222.312856 
L 334.869818 200.62384 
L 335.668364 193.436274 
L 336.466909 188.347473 
L 336.999273 186.325648 
L 337.265455 185.791727 
L 337.531636 185.570131 
L 337.797818 186.72041 
L 338.862545 198.27596 
L 339.661091 204.134876 
L 340.193455 206.819635 
L 340.725818 208.660402 
L 341.258182 209.777806 
L 341.790545 210.288966 
L 342.056727 210.348086 
L 342.589091 210.131302 
L 343.121455 209.525979 
L 343.387636 208.959806 
L 343.92 207.042871 
L 344.718545 203.190805 
L 348.178909 184.86939 
L 348.977455 182.193778 
L 349.509818 180.966717 
L 350.042182 180.215335 
L 350.574545 179.960953 
L 350.840727 180.024349 
L 351.373091 180.535869 
L 351.905455 181.558847 
L 352.171636 182.259842 
L 352.437818 183.533463 
L 353.502545 190.856001 
L 354.567273 196.701645 
L 355.632 201.397975 
L 356.696727 205.202219 
L 357.761455 208.305098 
L 359.092364 211.444485 
L 359.890909 213.019897 
L 360.955636 218.480769 
L 362.286545 223.893685 
L 366.013091 237.584623 
L 367.610182 242.89519 
L 368.941091 246.660415 
L 370.005818 249.139835 
L 371.070545 251.0979 
L 372.135273 252.543493 
L 372.933818 253.335092 
L 373.732364 253.887891 
L 374.797091 254.329778 
L 375.861818 254.537539 
L 376.394182 254.581632 
L 376.660364 254.771152 
L 377.192727 255.767993 
L 377.725091 257.208073 
L 378.523636 260.242802 
L 379.056 262.885018 
L 379.322182 262.337446 
L 379.588364 260.3203 
L 381.717818 220.199651 
L 382.782545 204.440821 
L 383.581091 195.641878 
L 384.379636 189.59511 
L 384.912 187.089065 
L 385.444364 185.643771 
L 385.710545 185.274018 
L 385.976727 185.116556 
L 386.242909 185.165977 
L 386.775273 185.713013 
L 387.307636 186.692276 
L 388.638545 189.534672 
L 389.170909 190.212318 
L 389.437091 190.351153 
L 389.703273 190.326399 
L 389.969455 190.094033 
L 390.235636 189.651852 
L 390.768 188.083444 
L 391.300364 185.519437 
L 391.832727 181.897797 
L 392.631273 174.463618 
L 393.163636 168.252101 
L 393.962182 153.201421 
L 394.760727 133.745046 
L 395.559273 156.386762 
L 396.624 182.42409 
L 397.688727 202.003746 
L 398.487273 213.265079 
L 399.285818 222.137645 
L 400.084364 229.044574 
L 400.882909 234.349826 
L 401.681455 238.345433 
L 402.48 241.337224 
L 403.278545 243.577638 
L 404.077091 245.268347 
L 405.408 247.441761 
L 407.005091 250.0295 
L 407.803636 251.735408 
L 408.602182 253.95841 
L 409.400727 256.880635 
L 409.933091 259.702297 
L 410.731636 267.464467 
L 411.530182 278.549136 
L 411.796364 282.290289 
L 412.062545 282.94987 
L 412.328727 282.137681 
L 412.861091 279.027606 
L 413.393455 274.108329 
L 414.192 264.069592 
L 415.256727 247.189486 
L 418.450909 193.506929 
L 419.249455 183.489045 
L 420.048 175.948106 
L 420.580364 172.446928 
L 421.112727 170.268387 
L 421.378909 169.667006 
L 421.645091 169.391249 
L 421.911273 169.438862 
L 422.177455 169.805437 
L 422.709818 171.465883 
L 423.242182 174.290302 
L 423.774545 178.186813 
L 424.573091 185.806728 
L 425.637818 198.272133 
L 426.436364 208.558092 
L 426.436364 208.558092 
" clip-path="url(#p50239af2a7)" style="fill: none; stroke: #ff0000; stroke-width: 3; stroke-linecap: square"/>
   </g>
   <g id="line2d_3">
    <path d="M 27.163636 314.24574 
L 27.696 313.676526 
L 28.228364 312.836315 
L 29.026909 311.02465 
L 29.825455 308.53775 
L 30.624 305.339134 
L 31.688727 300.007594 
L 32.753455 293.533142 
L 34.084364 284.097118 
L 36.746182 263.009729 
L 38.343273 251.314733 
L 39.408 245.149175 
L 40.206545 241.89669 
L 40.738909 240.573333 
L 41.005091 240.19101 
L 41.271273 240.038393 
L 41.803636 240.198735 
L 42.336 232.184154 
L 43.134545 221.280968 
L 43.666909 216.300042 
L 43.933091 215.178266 
L 44.731636 214.202356 
L 47.393455 210.343197 
L 48.192 209.628156 
L 48.990545 209.254576 
L 49.789091 209.160097 
L 51.386182 209.158578 
L 51.918545 208.939731 
L 52.450909 208.453659 
L 52.983273 207.594621 
L 53.515636 206.255587 
L 54.048 204.33263 
L 54.580364 201.729025 
L 55.378909 196.364942 
L 56.177455 189.064647 
L 56.976 179.714033 
L 58.040727 164.067177 
L 59.371636 140.276613 
L 60.436364 119.053005 
L 60.702545 108.310529 
L 60.968727 104.615811 
L 61.767273 119.40169 
L 62.565818 130.247256 
L 63.364364 137.895806 
L 64.162909 143.12698 
L 64.961455 146.81996 
L 66.558545 153.283549 
L 67.090909 156.241466 
L 67.623273 160.131235 
L 68.155636 165.278911 
L 68.688 172.027026 
L 69.486545 185.940762 
L 70.285091 205.483655 
L 71.083636 232.032766 
L 71.882182 266.860474 
L 72.148364 280.627429 
L 72.414545 280.66984 
L 73.479273 208.354352 
L 74.544 151.763035 
L 75.342545 119.719669 
L 76.141091 96.583112 
L 76.673455 86.126769 
L 76.939636 82.368374 
L 77.205818 80.75044 
L 78.004364 80.023188 
L 80.4 77.377844 
L 80.932364 77.078597 
L 81.464727 77.06399 
L 81.997091 77.431794 
L 82.529455 78.278551 
L 83.061818 79.699679 
L 83.594182 81.789473 
L 84.126545 84.653779 
L 84.925091 90.828673 
L 85.723636 99.53829 
L 86.522182 111.308264 
L 87.320727 126.627327 
L 88.119273 146.06174 
L 88.917818 170.157519 
L 89.982545 210.491899 
L 90.248727 222.208045 
L 90.514909 223.255172 
L 92.112 171.173905 
L 93.442909 134.023383 
L 93.709091 127.455544 
L 94.773818 114.306297 
L 95.838545 104.088719 
L 96.903273 96.231337 
L 97.968 90.239766 
L 99.032727 85.747079 
L 100.097455 82.418409 
L 101.162182 79.991921 
L 102.226909 78.279236 
L 103.025455 77.339747 
L 103.824 76.643605 
L 104.622545 76.145112 
L 105.421091 75.804292 
L 106.485818 75.546338 
L 107.550545 75.463542 
L 108.881455 75.551692 
L 110.212364 75.815686 
L 110.744727 76.15389 
L 111.277091 76.722749 
L 111.809455 77.509428 
L 112.608 79.170515 
L 113.406545 81.477217 
L 114.205091 84.514804 
L 115.003636 88.351325 
L 116.068364 94.808962 
L 117.399273 103.951253 
L 117.665455 103.788226 
L 118.996364 98.938638 
L 120.061091 95.898206 
L 120.859636 94.217719 
L 121.658182 93.095786 
L 122.190545 92.695204 
L 122.722909 92.564603 
L 123.255273 92.721222 
L 123.787636 93.179143 
L 124.32 93.911538 
L 124.852364 94.943988 
L 125.650909 96.996896 
L 126.715636 100.654957 
L 126.981818 101.727083 
L 127.780364 110.198391 
L 128.845091 124.751685 
L 130.176 147.022489 
L 131.773091 177.841972 
L 133.902545 223.396816 
L 134.701091 241.519494 
L 134.967273 244.031863 
L 135.499636 245.968403 
L 136.032 247.132885 
L 136.564364 247.618514 
L 136.830545 247.65123 
L 137.096727 247.525781 
L 137.629091 246.857326 
L 138.161455 245.719556 
L 138.96 243.092084 
L 139.758545 239.475811 
L 140.557091 234.918834 
L 141.621818 227.370583 
L 142.686545 218.275641 
L 144.549818 201.684862 
L 147.477818 177.730894 
L 148.276364 173.207536 
L 148.808727 171.283667 
L 149.074909 170.73089 
L 149.341091 170.524533 
L 149.607273 170.680661 
L 149.873455 171.216654 
L 150.139636 172.163921 
L 150.672 175.544373 
L 151.204364 181.044887 
L 151.736727 189.131826 
L 152.002909 194.155862 
L 152.269091 196.883756 
L 152.801455 198.187196 
L 153.067636 198.339409 
L 153.333818 198.224713 
L 153.6 197.825975 
L 154.132364 196.361518 
L 154.930909 192.883743 
L 156.794182 183.550677 
L 157.326545 181.899728 
L 157.592727 181.445503 
L 157.858909 181.275357 
L 158.125091 181.457986 
L 158.391273 181.999378 
L 158.657455 182.981388 
L 159.189818 186.336129 
L 159.722182 191.837108 
L 160.254545 199.790856 
L 160.786909 212.120814 
L 161.585455 236.865263 
L 162.384 268.995717 
L 163.182545 308.263443 
L 163.714909 289.599492 
L 164.779636 253.465553 
L 165.844364 225.949507 
L 166.642909 210.188544 
L 167.441455 198.063441 
L 168.24 189.306765 
L 168.772364 185.178784 
L 169.304727 182.369648 
L 169.837091 180.884493 
L 170.103273 180.614556 
L 170.369455 180.65864 
L 170.635636 181.017086 
L 170.901818 181.691177 
L 171.434182 183.996351 
L 171.966545 187.617272 
L 172.498909 192.635418 
L 173.297455 202.840224 
L 174.096 216.567749 
L 174.894545 234.229109 
L 175.693091 256.352235 
L 176.491636 283.537985 
L 177.024 301.868313 
L 177.290182 303.412019 
L 177.556364 303.012462 
L 178.621091 287.570265 
L 179.685818 274.824204 
L 180.750545 264.201651 
L 182.081455 253.18797 
L 183.412364 244.075907 
L 184.743273 236.304156 
L 186.340364 228.192541 
L 188.469818 218.659939 
L 193.527273 196.714891 
L 194.858182 179.65708 
L 195.656727 167.003552 
L 196.455273 151.423409 
L 197.253818 132.025162 
L 198.052364 108.030823 
L 199.117091 67.840572 
L 200.181818 21.927273 
L 201.246545 74.927145 
L 202.045091 105.131088 
L 202.843636 128.547159 
L 203.642182 146.513463 
L 204.440727 160.120648 
L 205.239273 170.337928 
L 206.037818 177.920203 
L 206.836364 183.511623 
L 207.634909 187.553534 
L 208.433455 190.334071 
L 208.965818 191.599905 
L 209.498182 192.399347 
L 210.030545 192.776307 
L 210.296727 193.848539 
L 211.627636 203.223029 
L 213.224727 214.214312 
L 214.289455 223.449362 
L 215.088 232.47083 
L 215.886545 244.023243 
L 216.685091 258.899278 
L 217.749818 283.066206 
L 218.016 277.815525 
L 219.080727 240.270602 
L 219.879273 218.65943 
L 220.677818 202.051429 
L 221.476364 189.64001 
L 222.274909 180.72373 
L 223.073455 174.621738 
L 223.872 170.525165 
L 224.670545 167.694181 
L 226.533818 161.905981 
L 226.8 160.787032 
L 227.332364 156.656672 
L 227.864727 150.649722 
L 228.397091 142.241195 
L 228.929455 130.783969 
L 229.461818 115.842787 
L 229.994182 96.936801 
L 230.260364 93.407339 
L 232.123636 127.251558 
L 233.454545 147.38069 
L 234.519273 160.051406 
L 235.317818 167.33756 
L 236.116364 172.706138 
L 236.914909 176.246361 
L 237.447273 177.674222 
L 237.979636 178.427369 
L 238.245818 178.58326 
L 238.512 178.608005 
L 239.044364 178.288595 
L 239.576727 177.591067 
L 240.375273 176.077189 
L 242.504727 171.820625 
L 243.037091 171.191417 
L 243.303273 171.001309 
L 243.569455 170.5423 
L 244.368 167.53247 
L 245.166545 163.438223 
L 245.965091 158.005099 
L 246.763636 150.97834 
L 247.296 146.601226 
L 247.562182 146.172239 
L 248.094545 145.936405 
L 248.626909 145.320549 
L 249.159273 144.357446 
L 249.957818 142.38456 
L 252.619636 134.85706 
L 253.152 134.035971 
L 253.418182 133.812497 
L 253.684364 133.734775 
L 253.950545 133.818343 
L 254.216727 134.078334 
L 254.482909 134.529758 
L 255.015273 136.106576 
L 255.547636 138.628306 
L 256.08 142.185805 
L 256.878545 149.644291 
L 257.677091 159.880794 
L 258.475636 172.909334 
L 259.540364 194.526457 
L 260.605091 220.934048 
L 261.936 260.861152 
L 263.533091 316.472727 
L 264.331636 310.290385 
L 265.396364 300.351406 
L 266.993455 283.091768 
L 272.317091 223.13765 
L 274.180364 205.604854 
L 275.777455 192.858242 
L 276.842182 184.89331 
L 278.705455 164.513756 
L 280.834909 143.999895 
L 283.496727 120.631507 
L 287.223273 89.839254 
L 288.820364 78.131324 
L 289.885091 71.769614 
L 290.683636 68.334342 
L 291.216 66.906192 
L 291.482182 66.513458 
L 291.748364 66.385964 
L 292.014545 66.558033 
L 292.280727 67.038408 
L 292.546909 70.519519 
L 294.676364 123.187648 
L 295.474909 134.528951 
L 296.007273 139.578171 
L 296.539636 143.012952 
L 297.072 145.23289 
L 297.604364 146.523189 
L 298.136727 147.249931 
L 299.467636 148.436138 
L 300 149.355947 
L 300.532364 150.855534 
L 301.064727 153.103176 
L 301.597091 156.244415 
L 302.395636 162.908673 
L 303.194182 172.057995 
L 303.992727 183.718286 
L 305.057455 203.029445 
L 306.388364 231.867254 
L 308.251636 274.77951 
L 309.582545 272.731697 
L 309.848727 272.381647 
L 310.114909 271.526503 
L 311.978182 262.363122 
L 312.776727 259.341033 
L 313.309091 257.860815 
L 313.841455 256.92909 
L 314.107636 256.686454 
L 314.373818 256.624739 
L 314.64 256.735098 
L 314.906182 257.037079 
L 315.438545 258.265895 
L 315.970909 260.402806 
L 316.503273 263.524602 
L 317.035636 267.719652 
L 317.834182 276.245643 
L 318.632727 287.697482 
L 319.431273 302.373662 
L 319.697455 303.670597 
L 320.496 288.255504 
L 321.294545 277.23698 
L 321.826909 272.063097 
L 322.359273 268.496487 
L 322.891636 266.359765 
L 323.157818 265.773179 
L 323.424 265.511195 
L 323.690182 265.528752 
L 323.956364 265.809858 
L 324.488727 267.127742 
L 325.021091 269.313521 
L 325.819636 273.898044 
L 326.618182 279.631573 
L 327.949091 281.195521 
L 329.28 283.195671 
L 330.610909 285.668338 
L 331.941818 288.628619 
L 333.538909 292.799237 
L 335.402182 298.330167 
L 337.265455 304.062315 
L 337.531636 303.594691 
L 341.258182 206.878457 
L 342.855273 171.603841 
L 344.452364 142.34109 
L 344.984727 136.096007 
L 345.517091 132.054025 
L 345.783273 130.90695 
L 346.049455 130.304753 
L 346.315636 130.333124 
L 346.581818 130.929668 
L 346.848 132.172038 
L 347.380364 136.488635 
L 347.912727 143.337778 
L 348.445091 152.760021 
L 349.243636 171.766341 
L 350.042182 196.704893 
L 350.840727 223.197991 
L 351.373091 231.810337 
L 351.905455 236.043313 
L 352.171636 236.760382 
L 352.437818 236.542184 
L 352.704 235.618091 
L 353.236364 231.662724 
L 353.768727 225.515025 
L 354.567273 213.411393 
L 357.761455 160.474829 
L 358.56 152.204277 
L 359.092364 148.587561 
L 359.624727 146.612849 
L 359.890909 146.260231 
L 360.157091 146.290919 
L 360.423273 146.497838 
L 360.689455 146.914606 
L 361.221818 148.734929 
L 361.754182 151.850641 
L 362.286545 156.627757 
L 362.818909 163.500811 
L 363.351273 172.760308 
L 364.149818 192.073801 
L 364.948364 219.305791 
L 365.480727 206.510012 
L 366.279273 187.294834 
L 367.077818 172.697342 
L 367.876364 162.965731 
L 368.408727 159.11908 
L 368.941091 157.295615 
L 369.207273 157.156605 
L 369.473455 157.48424 
L 369.739636 158.244093 
L 370.272 161.133768 
L 370.804364 165.605545 
L 371.602909 174.872038 
L 372.667636 190.754939 
L 375.329455 233.496512 
L 376.128 242.476846 
L 376.660364 245.901176 
L 377.192727 247.169349 
L 377.458909 247.603143 
L 377.725091 244.579513 
L 378.257455 231.137967 
L 380.120727 182.281235 
L 381.451636 152.928561 
L 382.516364 133.872487 
L 383.581091 119.145333 
L 384.379636 111.001099 
L 385.178182 105.283143 
L 385.710545 102.808111 
L 386.242909 101.309981 
L 386.509091 100.89683 
L 386.775273 100.691965 
L 387.041455 100.683363 
L 387.307636 100.918459 
L 387.84 101.885915 
L 388.372364 103.467472 
L 389.170909 106.786574 
L 390.501818 113.824166 
L 392.098909 122.319473 
L 392.897455 125.629376 
L 393.163636 126.518777 
L 393.962182 143.930056 
L 394.760727 166.422597 
L 395.825455 204.761591 
L 397.156364 256.61575 
L 397.688727 259.802162 
L 397.954909 260.193719 
L 398.221091 259.913254 
L 398.487273 258.967672 
L 399.019636 255.155595 
L 399.552 249.104631 
L 400.350545 236.629509 
L 401.415273 215.438898 
L 404.875636 141.694809 
L 405.674182 129.372953 
L 406.472727 120.340038 
L 407.005091 116.305184 
L 407.537455 113.938405 
L 407.803636 113.414157 
L 408.069818 113.32455 
L 408.336 113.656539 
L 408.602182 114.405367 
L 409.134545 117.118566 
L 409.666909 121.368959 
L 409.933091 124.930583 
L 410.199273 131.851109 
L 411.264 172.82825 
L 412.062545 195.609565 
L 412.861091 212.171903 
L 413.659636 223.317514 
L 414.192 228.104488 
L 414.724364 230.997885 
L 414.990545 231.79034 
L 415.256727 232.19216 
L 415.522909 232.222295 
L 415.789091 231.8994 
L 416.055273 231.224914 
L 416.587636 228.919687 
L 417.12 225.503095 
L 417.918545 218.57918 
L 418.983273 206.622144 
L 420.314182 188.533122 
L 422.443636 155.651242 
L 426.170182 97.696215 
L 426.436364 93.878339 
L 426.436364 93.878339 
" clip-path="url(#p50239af2a7)" style="fill: none; stroke: #0000ff; stroke-width: 3; stroke-linecap: square"/>
   </g>
   <g id="patch_3">
    <path d="M 7.2 331.2 
L 7.2 7.2 
" style="fill: none; stroke: #000000; stroke-width: 0.8; stroke-linejoin: miter; stroke-linecap: square"/>
   </g>
   <g id="patch_4">
    <path d="M 446.4 331.2 
L 446.4 7.2 
" style="fill: none; stroke: #000000; stroke-width: 0.8; stroke-linejoin: miter; stroke-linecap: square"/>
   </g>
   <g id="patch_5">
    <path d="M 7.2 331.2 
L 446.4 331.2 
" style="fill: none; stroke: #000000; stroke-width: 0.8; stroke-linejoin: miter; stroke-linecap: square"/>
   </g>
   <g id="patch_6">
    <path d="M 7.2 7.2 
L 446.4 7.2 
" style="fill: none; stroke: #000000; stroke-width: 0.8; stroke-linejoin: miter; stroke-linecap: square"/>
   </g>
  </g>
 </g>
 <defs>
  <clipPath id="p50239af2a7">
   <rect x="7.2" y="7.2" width="439.2" height="324"/>
  </clipPath>
 </defs>
</svg>
