<?xml version="1.0" encoding="utf-8" standalone="no"?>
<!DOCTYPE svg PUBLIC "-//W3C//DTD SVG 1.1//EN"
  "http://www.w3.org/Graphics/SVG/1.1/DTD/svg11.dtd">
<svg xmlns:xlink="http://www.w3.org/1999/xlink" width="453.6pt" height="338.4pt" viewBox="0 0 453.6 338.4" xmlns="http://www.w3.org/2000/svg" version="1.1">
 <metadata>
  <rdf:RDF xmlns:dc="http://purl.org/dc/elements/1.1/" xmlns:cc="http://creativecommons.org/ns#" xmlns:rdf="http://www.w3.org/1999/02/22-rdf-syntax-ns#">
   <cc:Work>
    <dc:type rdf:resource="http://purl.org/dc/dcmitype/StillImage"/>
    <dc:date>2025-05-15T17:31:01.160515</dc:date>
    <dc:format>image/svg+xml</dc:format>
    <dc:creator>
     <cc:Agent>
      <dc:title>Matplotlib v3.10.1, https://matplotlib.org/</dc:title>
     </cc:Agent>
    </dc:creator>
   </cc:Work>
  </rdf:RDF>
 </metadata>
 <defs>
  <style type="text/css">*{stroke-linejoin: round; stroke-linecap: butt}</style>
 </defs>
 <g id="figure_1">
  <g id="patch_1">
   <path d="M 0 338.4 
L 453.6 338.4 
L 453.6 0 
L 0 0 
z
" style="fill: #ffffff"/>
  </g>
  <g id="axes_1">
   <g id="patch_2">
    <path d="M 7.2 331.2 
L 446.4 331.2 
L 446.4 7.2 
L 7.2 7.2 
z
" style="fill: #ffffff"/>
   </g>
   <g id="matplotlib.axis_1"/>
   <g id="matplotlib.axis_2"/>
   <g id="line2d_1">
    <path d="M 27.163636 269.536656 
L 28.275817 272.288144 
L 28.831907 273.269797 
L 29.387997 273.884609 
L 29.944087 274.097252 
L 30.500177 273.90511 
L 31.056267 273.329913 
L 31.612358 272.409696 
L 32.446493 270.491245 
L 33.836718 266.409555 
L 35.226944 262.469419 
L 36.061079 260.870848 
L 36.617169 260.314786 
L 36.895214 260.210461 
L 37.173259 260.225893 
L 37.729349 260.613868 
L 38.285439 261.453131 
L 38.84153 262.690608 
L 39.675665 265.137621 
L 41.06589 270.165788 
L 44.124386 281.595465 
L 45.514611 285.948692 
L 46.904837 289.620889 
L 48.295062 292.624378 
L 49.407242 294.472399 
L 50.241378 295.473574 
L 51.075513 296.123369 
L 51.909648 296.446016 
L 52.743783 296.505852 
L 53.855964 296.330381 
L 58.58273 295.29298 
L 60.529045 294.830759 
L 61.363181 294.438605 
L 62.197316 293.754855 
L 62.753406 293.050934 
L 63.309496 292.086292 
L 64.143631 290.060013 
L 64.977767 287.295394 
L 66.089947 282.651941 
L 68.036262 274.209676 
L 68.870398 271.688849 
L 69.426488 270.670622 
L 69.982578 270.244924 
L 70.260623 270.255493 
L 70.538668 270.409563 
L 71.094758 271.11562 
L 71.650848 272.277375 
L 72.484984 274.636946 
L 74.431299 281.255493 
L 76.65566 288.48796 
L 78.32393 293.215929 
L 79.43611 295.68414 
L 80.270246 296.985446 
L 80.826336 297.551094 
L 81.382426 297.870257 
L 81.938516 297.953071 
L 82.494606 297.820402 
L 83.328741 297.283416 
L 84.440922 296.134162 
L 86.943327 293.335227 
L 87.777463 292.727027 
L 88.611598 292.335368 
L 90.001823 291.973261 
L 91.392049 291.550278 
L 92.504229 290.941483 
L 93.894454 289.864174 
L 95.562725 288.262364 
L 96.39686 287.170207 
L 96.95295 286.173201 
L 97.50904 284.820125 
L 98.06513 282.961922 
L 98.621221 280.439807 
L 99.177311 277.10374 
L 100.011446 270.336708 
L 100.845581 261.407178 
L 102.235807 243.226146 
L 103.347987 229.161428 
L 104.182122 221.562811 
L 104.738212 218.768793 
L 105.016257 218.170337 
L 105.294302 218.130716 
L 105.572347 218.65414 
L 105.850393 219.732194 
L 106.406483 223.457227 
L 106.962573 229.007298 
L 107.796708 239.772778 
L 110.299114 274.058891 
L 111.133249 282.311559 
L 111.967384 288.44397 
L 112.801519 292.766642 
L 113.635655 295.728267 
L 114.46979 297.753966 
L 115.303925 299.16174 
L 116.13806 300.162054 
L 116.972195 300.878906 
L 118.084376 301.497676 
L 118.918511 301.739764 
L 119.752646 301.795043 
L 120.586781 301.66018 
L 121.420917 301.335263 
L 122.533097 300.63262 
L 123.923322 299.449597 
L 126.703773 297.012547 
L 128.928134 295.172949 
L 129.762269 294.122982 
L 130.318359 293.126144 
L 130.874449 291.753625 
L 131.430539 289.835283 
L 131.98663 287.154447 
L 132.54272 283.457083 
L 133.09881 278.45915 
L 133.6549 271.868864 
L 134.489035 258.474523 
L 135.32317 240.580886 
L 136.435351 210.769653 
L 138.381666 156.821815 
L 138.937756 145.63966 
L 139.493847 138.047263 
L 139.771892 135.798178 
L 140.049937 134.647412 
L 140.327982 134.617133 
L 140.606027 135.705658 
L 140.884072 137.88792 
L 141.440162 145.322051 
L 141.996252 156.301239 
L 142.830387 177.483887 
L 145.332793 244.857513 
L 146.166928 260.99969 
L 147.001064 272.74562 
L 147.835199 280.577412 
L 148.391289 284.004412 
L 148.947379 286.25889 
L 149.503469 287.532432 
L 149.781514 287.849676 
L 150.059559 287.973027 
L 150.337604 287.912546 
L 150.61565 287.675417 
L 151.17174 286.690815 
L 151.72783 285.04969 
L 152.28392 282.776666 
L 153.118055 278.25546 
L 154.230236 270.528781 
L 156.454596 253.861846 
L 157.288731 249.444663 
L 157.844821 247.642515 
L 158.122867 247.140296 
L 158.400912 246.918564 
L 158.678957 246.981755 
L 158.957002 247.328812 
L 159.513092 248.842748 
L 160.069182 251.344607 
L 160.903317 256.517299 
L 163.405723 274.018408 
L 164.239858 277.80624 
L 164.795948 279.236252 
L 165.073993 279.561863 
L 165.352038 279.59601 
L 165.630084 279.311332 
L 165.908129 278.677494 
L 166.186174 277.660393 
L 166.742264 274.317097 
L 167.298354 268.913731 
L 167.854444 261.025976 
L 168.410534 250.236624 
L 169.24467 227.931856 
L 170.078805 198.096548 
L 171.190985 149.078061 
L 172.859256 74.785056 
L 173.415346 56.356513 
L 173.971436 43.746159 
L 174.249481 39.979621 
L 174.527526 38.028531 
L 174.805571 37.936768 
L 175.083616 39.707561 
L 175.361661 43.30306 
L 175.917751 55.620114 
L 176.473841 73.847855 
L 177.307977 108.967646 
L 179.532337 208.660435 
L 180.366473 236.626169 
L 181.200608 257.190712 
L 182.034743 271.176973 
L 182.590833 277.594746 
L 183.146923 282.263161 
L 183.703013 285.645192 
L 184.537149 289.129846 
L 185.371284 291.494741 
L 186.483464 293.849091 
L 188.151735 296.740017 
L 189.263915 298.29444 
L 190.09805 299.09374 
L 190.65414 299.371476 
L 191.21023 299.399522 
L 191.766321 299.153128 
L 192.322411 298.62854 
L 193.156546 297.372081 
L 194.268726 295.113346 
L 195.936997 291.728874 
L 196.771132 290.482629 
L 197.883312 289.307905 
L 198.995493 288.159648 
L 199.551583 287.253817 
L 200.107673 285.858439 
L 200.663763 283.716683 
L 201.219853 280.5078 
L 201.775943 275.843354 
L 202.332033 269.296682 
L 202.888124 260.443897 
L 203.722259 242.053694 
L 204.556394 217.020207 
L 205.668574 174.690121 
L 207.61489 97.225138 
L 208.17098 81.210534 
L 208.72707 70.477996 
L 209.005115 67.393646 
L 209.28316 65.930334 
L 209.561205 66.11991 
L 209.83925 67.957882 
L 210.117296 71.404428 
L 210.673386 82.794844 
L 211.229476 99.34367 
L 212.341656 142.476045 
L 214.287972 220.317538 
L 215.122107 245.758593 
L 215.956242 264.805872 
L 216.790377 278.072921 
L 217.624513 286.789958 
L 218.180603 290.74933 
L 218.736693 293.639536 
L 219.292783 295.741045 
L 220.126918 297.890442 
L 220.961053 299.277758 
L 221.795189 300.189951 
L 222.629324 300.787179 
L 223.463459 301.146342 
L 224.297594 301.294713 
L 225.13173 301.233138 
L 225.965865 300.948898 
L 226.8 300.437724 
L 227.91218 299.447596 
L 230.970676 296.420297 
L 232.082856 295.735265 
L 233.473082 294.930864 
L 234.029172 294.398336 
L 234.585262 293.58041 
L 235.141352 292.325611 
L 235.697442 290.443122 
L 236.253533 287.711042 
L 236.809623 283.888585 
L 237.365713 278.725114 
L 237.921803 271.985009 
L 238.755938 258.565095 
L 239.590073 241.14637 
L 240.980299 205.780651 
L 242.370524 171.418841 
L 243.204659 156.976335 
L 243.76075 151.564322 
L 244.038795 150.313522 
L 244.31684 150.073711 
L 244.594885 150.849679 
L 244.87293 152.6251 
L 245.42902 159.007881 
L 245.98511 168.708018 
L 246.819245 187.798231 
L 249.321651 250.533962 
L 250.155786 266.174756 
L 250.989921 277.948096 
L 251.824057 286.281818 
L 252.658192 291.930108 
L 253.492327 295.661236 
L 254.326462 298.121314 
L 255.160598 299.761119 
L 255.994733 300.860492 
L 256.828868 301.596095 
L 257.663003 302.065489 
L 258.497139 302.321625 
L 259.331274 302.388426 
L 260.165409 302.269499 
L 260.999544 301.963671 
L 262.111724 301.278505 
L 263.50195 300.092661 
L 266.282401 297.645723 
L 268.228716 296.040899 
L 269.062851 294.95869 
L 269.618942 293.880782 
L 270.175032 292.346131 
L 270.731122 290.169896 
L 271.287212 287.127554 
L 271.843302 282.960634 
L 272.399392 277.406044 
L 273.233527 265.993354 
L 274.067663 250.565271 
L 275.179843 224.508771 
L 277.126159 176.31022 
L 277.960294 162.098188 
L 278.516384 156.822617 
L 278.794429 155.63612 
L 279.072474 155.457233 
L 279.350519 156.28921 
L 279.628564 158.11356 
L 280.184654 164.56195 
L 280.740744 174.264355 
L 281.57488 193.191502 
L 284.077285 254.123612 
L 284.911421 268.923591 
L 285.745556 279.885833 
L 286.579691 287.489972 
L 287.413826 292.488363 
L 287.969916 294.75983 
L 288.526007 296.415091 
L 289.082097 297.605116 
L 289.638187 298.445755 
L 290.472322 299.239661 
L 291.306457 299.634334 
L 292.140593 299.722093 
L 292.974728 299.53235 
L 293.808863 299.044232 
L 294.642998 298.214133 
L 295.477133 297.008437 
L 296.589314 294.85556 
L 299.091719 289.485602 
L 299.925855 288.327823 
L 300.481945 287.870969 
L 301.038035 287.6615 
L 301.594125 287.654894 
L 303.262396 287.926259 
L 303.818486 287.652438 
L 304.374576 286.892115 
L 304.930666 285.416703 
L 305.486756 282.945551 
L 306.042846 279.140244 
L 306.598936 273.626457 
L 307.155027 266.019257 
L 307.711117 255.958147 
L 308.545252 235.722311 
L 309.379387 209.32643 
L 310.769613 156.095601 
L 311.881793 114.792755 
L 312.715928 91.864689 
L 313.272018 82.771062 
L 313.550063 80.402099 
L 313.828108 79.559297 
L 314.106153 80.257065 
L 314.384199 82.476296 
L 314.940289 91.240194 
L 315.496379 105.084439 
L 316.330514 132.810082 
L 318.83292 224.186408 
L 319.667055 246.506407 
L 320.50119 262.909377 
L 321.335325 274.060552 
L 321.891416 279.152696 
L 322.447506 282.8089 
L 323.003596 285.360041 
L 323.559686 287.080303 
L 324.115776 288.187739 
L 324.671866 288.836222 
L 325.227956 289.118787 
L 325.784047 289.087165 
L 326.340137 288.769341 
L 326.896227 288.179426 
L 327.730362 286.815177 
L 328.842542 284.293588 
L 330.510813 280.263579 
L 331.344948 278.901805 
L 331.901038 278.450079 
L 332.457128 278.421611 
L 333.013219 278.822131 
L 333.569309 279.61615 
L 334.403444 281.38268 
L 336.90585 287.478723 
L 337.46194 288.321772 
L 338.01803 288.775746 
L 338.296075 288.827535 
L 338.57412 288.744918 
L 338.852165 288.512144 
L 339.408255 287.518989 
L 339.964345 285.664924 
L 340.520436 282.727356 
L 341.076526 278.45121 
L 341.632616 272.559264 
L 342.188706 264.78662 
L 343.022841 249.206732 
L 343.856976 228.909365 
L 345.247202 187.657493 
L 346.637427 147.708151 
L 347.193517 135.719612 
L 347.749607 127.479132 
L 348.027653 124.986959 
L 348.305698 123.657994 
L 348.583743 123.521242 
L 348.861788 124.581115 
L 349.139833 126.816855 
L 349.695923 134.613857 
L 350.252013 146.293586 
L 351.086148 169.086527 
L 353.588554 243.083323 
L 354.422689 261.25008 
L 355.256825 274.760729 
L 356.09096 284.17321 
L 356.925095 290.425115 
L 357.75923 294.468625 
L 358.593365 297.096112 
L 359.427501 298.844885 
L 360.261636 300.040821 
L 361.095771 300.875399 
L 361.929906 301.443434 
L 362.764042 301.79185 
L 363.598177 301.93867 
L 364.432312 301.885667 
L 365.266447 301.632529 
L 366.378628 301.00026 
L 367.768853 299.85546 
L 371.105394 296.930465 
L 372.495619 295.682544 
L 373.329754 294.590804 
L 373.885845 293.53752 
L 374.441935 292.067352 
L 374.998025 290.007123 
L 375.554115 287.1402 
L 376.110205 283.213256 
L 376.666295 277.964913 
L 377.50043 267.121904 
L 378.334566 252.35318 
L 379.446746 227.209818 
L 381.393062 180.352725 
L 381.949152 170.403326 
L 382.505242 163.553824 
L 382.783287 161.483935 
L 383.061332 160.38424 
L 383.339377 160.279222 
L 383.617422 161.171767 
L 383.895467 163.042928 
L 384.451557 169.541128 
L 385.007648 179.231711 
L 385.841783 198.02095 
L 388.344188 257.838125 
L 389.178324 272.178059 
L 390.012459 282.72509 
L 390.846594 289.995946 
L 391.680729 294.7664 
L 392.514865 297.814543 
L 393.349 299.744759 
L 394.183135 300.964854 
L 395.01727 301.736656 
L 395.851405 302.205661 
L 396.685541 302.454284 
L 397.797721 302.523614 
L 398.909901 302.351714 
L 400.300127 301.869449 
L 402.246442 300.887259 
L 406.417118 298.527057 
L 407.251253 297.773574 
L 408.085389 296.651693 
L 408.641479 295.576438 
L 409.197569 294.12153 
L 409.753659 292.148272 
L 410.309749 289.485393 
L 410.865839 285.942511 
L 411.42193 281.32326 
L 412.256065 271.990975 
L 413.0902 259.488936 
L 414.20238 238.386847 
L 416.426741 194.006547 
L 416.982831 186.381844 
L 417.538921 181.466213 
L 417.816966 180.158475 
L 418.095011 179.659161 
L 418.373056 179.978717 
L 418.651102 181.110695 
L 419.207192 185.702783 
L 419.763282 193.066115 
L 420.597417 208.021305 
L 423.655913 268.182364 
L 424.490048 279.17332 
L 425.324183 287.138739 
L 426.158319 292.580918 
L 426.436364 293.945772 
L 426.436364 293.945772 
" clip-path="url(#p653fdf89ca)" style="fill: none; stroke-dasharray: 11.1,4.8; stroke-dashoffset: 0; stroke: #000000; stroke-width: 3"/>
   </g>
   <g id="line2d_2">
    <path d="M 27.163636 284.917847 
L 27.719727 285.030919 
L 27.997772 284.917916 
L 28.553862 284.28382 
L 29.109952 283.016592 
L 29.666042 281.028064 
L 30.222132 278.268815 
L 31.056267 272.709786 
L 32.168448 263.158028 
L 34.392808 242.896989 
L 35.226944 237.450711 
L 35.783034 235.00749 
L 36.339124 233.617361 
L 36.617169 233.321243 
L 36.895214 233.283713 
L 37.173259 233.493635 
L 37.451304 233.93584 
L 38.007394 235.439431 
L 38.84153 238.888223 
L 40.5098 247.594588 
L 41.900025 254.339622 
L 43.568296 261.111601 
L 46.070701 271.21025 
L 48.295062 280.262406 
L 49.963332 285.962392 
L 51.631603 291.604295 
L 52.743783 296.071878 
L 54.968144 306.375522 
L 56.080324 310.979708 
L 56.914459 313.636173 
L 57.748595 315.434919 
L 58.304685 316.137567 
L 58.860775 316.453871 
L 59.416865 316.401424 
L 59.972955 315.992762 
L 60.529045 315.226486 
L 61.085135 314.07957 
L 61.641226 312.501056 
L 62.197316 310.409652 
L 62.753406 307.696846 
L 63.587541 302.188384 
L 64.421676 294.610858 
L 65.255812 284.77185 
L 66.367992 268.558299 
L 68.592352 234.837802 
L 69.148443 228.889151 
L 69.704533 224.859076 
L 69.982578 223.658843 
L 70.260623 223.032377 
L 70.538668 222.988065 
L 70.816713 223.52247 
L 71.094758 224.620881 
L 71.650848 228.39356 
L 72.206938 233.980748 
L 73.041074 244.772995 
L 75.543479 279.448106 
L 76.377615 288.050404 
L 77.21175 294.564988 
L 78.045885 299.179003 
L 78.601975 301.348193 
L 79.158065 302.893347 
L 79.714155 303.881826 
L 80.270246 304.359935 
L 80.548291 304.416849 
L 80.826336 304.355948 
L 81.382426 303.89028 
L 81.938516 302.985386 
L 82.494606 301.677809 
L 83.328741 299.104698 
L 85.553102 291.712188 
L 86.109192 290.658822 
L 86.387237 290.361238 
L 86.665282 290.233136 
L 86.943327 290.282352 
L 87.221372 290.511955 
L 87.777463 291.499769 
L 88.333553 293.125665 
L 89.167688 296.442506 
L 91.114004 304.771392 
L 91.948139 307.149909 
L 92.504229 308.10056 
L 93.060319 308.538756 
L 93.338364 308.576332 
L 93.894454 308.318959 
L 94.450544 307.657254 
L 95.006635 306.620477 
L 95.562725 305.199003 
L 96.118815 303.330764 
L 96.674905 300.894257 
L 97.230995 297.71017 
L 97.787085 293.552634 
L 98.343175 288.171954 
L 99.177311 277.293488 
L 100.011446 262.592005 
L 101.123626 237.336287 
L 103.626032 176.402133 
L 104.182122 167.752223 
L 104.738212 162.644679 
L 105.016257 161.5728 
L 105.294302 161.5311 
L 105.572347 162.524711 
L 105.850393 164.536128 
L 106.406483 171.43724 
L 106.962573 181.693204 
L 107.796708 201.595392 
L 110.299114 265.172837 
L 111.133249 280.269143 
L 111.967384 291.11198 
L 112.523474 296.216637 
L 113.079564 299.909421 
L 113.635655 302.467455 
L 114.191745 304.158949 
L 114.747835 305.225008 
L 115.303925 305.870468 
L 116.13806 306.404391 
L 118.084376 307.37816 
L 119.474601 308.477832 
L 120.586781 309.264546 
L 121.142872 309.45222 
L 121.698962 309.42099 
L 122.255052 309.130188 
L 122.811142 308.566227 
L 123.645277 307.257963 
L 126.425728 302.062894 
L 126.981818 301.556901 
L 127.537908 301.35076 
L 128.093998 301.420619 
L 128.928134 301.879161 
L 129.762269 302.377204 
L 130.318359 302.441518 
L 130.596404 302.315089 
L 130.874449 302.044175 
L 131.430539 300.941364 
L 131.98663 298.864556 
L 132.54272 295.526476 
L 133.09881 290.63536 
L 133.6549 283.918439 
L 134.489035 269.966873 
L 135.32317 251.174255 
L 136.435351 219.796211 
L 138.381666 162.530759 
L 139.215801 145.670809 
L 139.771892 139.336041 
L 140.049937 137.862144 
L 140.327982 137.565568 
L 140.606027 138.452958 
L 140.884072 140.506534 
L 141.440162 147.923767 
L 141.996252 159.232409 
L 142.830387 181.567003 
L 145.610838 262.398993 
L 146.444973 279.444922 
L 147.279109 291.816462 
L 148.113244 300.0408 
L 148.669334 303.641683 
L 149.225424 306.063229 
L 149.781514 307.575503 
L 150.337604 308.423782 
L 150.893695 308.820095 
L 151.449785 308.938161 
L 152.561965 308.832971 
L 155.064371 308.366135 
L 155.620461 308.05721 
L 156.176551 307.568767 
L 157.010686 306.439218 
L 157.844821 304.856122 
L 160.347227 299.615205 
L 160.903317 298.945069 
L 161.459407 298.602257 
L 162.015498 298.583377 
L 162.571588 298.828813 
L 163.961813 299.672967 
L 164.239858 299.67189 
L 164.517903 299.537602 
L 164.795948 299.232434 
L 165.073993 298.716749 
L 165.630084 296.88824 
L 166.186174 293.712516 
L 166.742264 288.844931 
L 167.298354 281.953373 
L 167.854444 272.743489 
L 168.688579 254.118703 
L 169.522715 229.545357 
L 170.634895 188.828066 
L 172.859256 102.779516 
L 173.693391 80.826044 
L 174.249481 72.448606 
L 174.527526 70.428803 
L 174.805571 69.928126 
L 175.083616 70.966828 
L 175.361661 73.536478 
L 175.917751 83.091603 
L 176.473841 97.973268 
L 177.307977 128.044537 
L 180.366473 252.386906 
L 181.200608 275.625846 
L 182.034743 292.090835 
L 182.590833 299.654317 
L 183.146923 304.915327 
L 183.703013 308.304822 
L 184.259104 310.257882 
L 184.815194 311.181954 
L 185.371284 311.43589 
L 185.927374 311.316311 
L 187.317599 310.725314 
L 187.87369 310.686844 
L 188.42978 310.831306 
L 189.263915 311.354918 
L 191.766321 313.325414 
L 192.322411 313.434706 
L 192.878501 313.338451 
L 193.434591 313.040776 
L 194.268726 312.292555 
L 195.936997 310.56919 
L 196.493087 310.219641 
L 197.049177 310.073874 
L 197.605267 310.128382 
L 199.273538 310.57769 
L 199.551583 310.466383 
L 199.829628 310.221635 
L 200.107673 309.806901 
L 200.663763 308.312864 
L 201.219853 305.663983 
L 201.775943 301.537677 
L 202.332033 295.629603 
L 202.888124 287.679043 
L 203.722259 271.545272 
L 204.556394 250.304965 
L 205.668574 215.477305 
L 207.61489 152.008785 
L 208.449025 132.533405 
L 209.005115 124.579935 
L 209.28316 122.366432 
L 209.561205 121.394313 
L 209.83925 121.683649 
L 210.117296 123.230177 
L 210.395341 126.005487 
L 210.951431 135.010857 
L 211.507521 148.031133 
L 212.341656 172.989955 
L 214.844062 252.983815 
L 215.678197 272.133406 
L 216.512332 285.669138 
L 217.068422 291.766261 
L 217.624513 295.847086 
L 218.180603 298.268769 
L 218.736693 299.41147 
L 219.014738 299.619948 
L 219.292783 299.645014 
L 219.848873 299.304287 
L 220.961053 297.980053 
L 221.795189 297.164813 
L 222.351279 296.908265 
L 222.907369 296.921623 
L 223.463459 297.186878 
L 224.297594 297.92795 
L 225.68782 299.297871 
L 226.24391 299.591193 
L 226.8 299.613189 
L 227.35609 299.322273 
L 227.91218 298.720048 
L 228.746316 297.351456 
L 230.414586 294.343701 
L 230.970676 293.756782 
L 231.526766 293.55653 
L 232.082856 293.77974 
L 232.638947 294.395529 
L 233.473082 295.808846 
L 234.307217 297.223102 
L 234.863307 297.72992 
L 235.141352 297.737848 
L 235.419397 297.528086 
L 235.697442 297.059234 
L 235.975487 296.290277 
L 236.531578 293.692399 
L 237.087668 289.435585 
L 237.643758 283.26929 
L 238.199848 275.020161 
L 239.033983 258.638091 
L 240.146164 230.17975 
L 242.648569 160.496384 
L 243.204659 149.746891 
L 243.76075 142.512865 
L 244.038795 140.384779 
L 244.31684 139.305797 
L 244.594885 139.294386 
L 244.87293 140.349494 
L 245.150975 142.449856 
L 245.707065 149.607631 
L 246.263155 160.242059 
L 247.09729 181.032507 
L 249.877741 256.316442 
L 250.711876 271.869893 
L 251.546012 282.575577 
L 252.102102 287.228589 
L 252.658192 290.208116 
L 253.214282 291.856329 
L 253.770372 292.537005 
L 254.326462 292.600999 
L 255.160598 292.203632 
L 255.994733 291.887696 
L 256.550823 291.948413 
L 257.106913 292.285039 
L 257.663003 292.883025 
L 258.497139 294.133551 
L 260.165409 296.741418 
L 260.721499 297.304509 
L 261.277589 297.61293 
L 261.833679 297.65266 
L 262.38977 297.44519 
L 263.223905 296.797301 
L 264.61413 295.571796 
L 265.17022 295.31275 
L 265.72631 295.295337 
L 266.282401 295.546409 
L 266.838491 296.047293 
L 268.784806 298.333863 
L 269.062851 298.453785 
L 269.340896 298.443177 
L 269.618942 298.272092 
L 269.896987 297.909483 
L 270.453077 296.481365 
L 271.009167 293.899525 
L 271.565257 289.906271 
L 272.121347 284.258869 
L 272.677437 276.749942 
L 273.511573 261.706265 
L 274.345708 242.152984 
L 275.457888 210.566897 
L 277.126159 161.736576 
L 277.960294 143.28047 
L 278.516384 135.243737 
L 278.794429 132.753638 
L 279.072474 131.353243 
L 279.350519 131.069957 
L 279.628564 131.91056 
L 279.906609 133.860664 
L 280.462699 140.926973 
L 281.01879 151.758858 
L 281.852925 173.355679 
L 284.911421 260.196488 
L 285.745556 275.817942 
L 286.579691 286.536961 
L 287.135781 291.253852 
L 287.691871 294.370875 
L 288.247962 296.229812 
L 288.804052 297.170725 
L 289.360142 297.500592 
L 289.916232 297.469477 
L 290.750367 297.123594 
L 292.418638 296.177641 
L 293.252773 295.486173 
L 294.086908 294.43503 
L 294.921043 292.918333 
L 296.033224 290.223788 
L 298.257584 284.45864 
L 298.813674 283.474515 
L 299.369764 282.838014 
L 299.925855 282.59102 
L 300.481945 282.739537 
L 301.038035 283.249334 
L 301.87217 284.514065 
L 303.262396 286.801231 
L 303.818486 287.248019 
L 304.096531 287.265363 
L 304.374576 287.106398 
L 304.652621 286.740651 
L 304.930666 286.136341 
L 305.486756 284.080222 
L 306.042846 280.664264 
L 306.598936 275.605912 
L 307.155027 268.630656 
L 307.989162 254.078423 
L 308.823297 234.311188 
L 309.935477 200.791815 
L 312.159838 130.068876 
L 312.715928 117.94071 
L 313.272018 110.227726 
L 313.550063 108.263417 
L 313.828108 107.639655 
L 314.106153 108.382835 
L 314.384199 110.491034 
L 314.940289 118.654929 
L 315.496379 131.574667 
L 316.330514 157.785366 
L 319.110965 255.251849 
L 319.9451 275.161896 
L 320.50119 284.828581 
L 321.05728 291.796139 
L 321.61337 296.412812 
L 322.169461 299.121356 
L 322.725551 300.397726 
L 323.003596 300.643964 
L 323.281641 300.700786 
L 323.837731 300.435967 
L 325.506002 299.108754 
L 326.062092 299.03988 
L 326.618182 299.26167 
L 327.174272 299.762302 
L 328.008407 300.938431 
L 329.398633 303.498482 
L 330.788858 305.963629 
L 331.901038 307.464539 
L 333.013219 308.528124 
L 334.681489 309.701436 
L 336.071714 310.465787 
L 336.627805 310.593798 
L 337.183895 310.491655 
L 337.739985 310.03002 
L 338.296075 309.047544 
L 338.852165 307.346794 
L 339.408255 304.686663 
L 339.964345 300.776671 
L 340.520436 295.273181 
L 341.076526 287.785745 
L 341.632616 277.896308 
L 342.466751 257.685401 
L 343.300886 230.179887 
L 344.135022 195.371794 
L 345.525247 126.28882 
L 346.915472 60.539847 
L 347.471562 41.035049 
L 348.027653 27.795548 
L 348.305698 23.891307 
L 348.583743 21.927273 
L 348.861788 21.953897 
L 349.139833 23.981123 
L 349.417878 27.978296 
L 349.973968 41.559738 
L 350.530058 61.693431 
L 351.364193 100.840227 
L 353.866599 226.512742 
L 354.700734 255.833544 
L 355.53487 276.083219 
L 356.09096 285.042214 
L 356.64705 291.037103 
L 357.20314 294.74384 
L 357.75923 296.829608 
L 358.31532 297.887006 
L 358.87141 298.39426 
L 360.261636 299.239033 
L 361.095771 300.136527 
L 362.207951 301.862114 
L 364.154267 305.053442 
L 364.988402 305.918744 
L 365.544492 306.193095 
L 366.100582 306.18668 
L 366.656673 305.88598 
L 367.212763 305.297434 
L 368.046898 303.937434 
L 369.159078 301.494236 
L 373.329754 291.188713 
L 374.16389 288.151127 
L 374.71998 285.275323 
L 375.27607 281.322279 
L 375.83216 275.875726 
L 376.38825 268.477831 
L 376.94434 258.672963 
L 377.778476 238.633623 
L 378.612611 211.699402 
L 379.724791 166.488936 
L 381.671107 83.003529 
L 382.505242 58.067666 
L 383.061332 48.592 
L 383.339377 46.355081 
L 383.617422 45.872458 
L 383.895467 47.166448 
L 384.173512 50.222845 
L 384.729602 61.387324 
L 385.285693 78.563967 
L 386.119828 112.768828 
L 388.622233 226.171579 
L 389.456369 253.46016 
L 390.290504 272.744841 
L 390.846594 281.543841 
L 391.402684 287.661149 
L 391.958774 291.674154 
L 392.514865 294.151857 
L 393.070955 295.595945 
L 393.627045 296.407748 
L 394.46118 297.046838 
L 396.12945 297.805003 
L 397.241631 298.140598 
L 398.075766 298.164129 
L 398.909901 297.91182 
L 399.744036 297.377095 
L 400.856217 296.335712 
L 403.358622 293.805929 
L 405.861028 291.549511 
L 406.695163 290.395698 
L 407.529299 288.77026 
L 408.363434 286.486669 
L 409.197569 283.280128 
L 410.031704 278.724058 
L 410.865839 272.194742 
L 411.699975 262.939492 
L 412.53411 250.285032 
L 413.368245 233.96503 
L 414.480425 207.473565 
L 416.426741 160.445702 
L 416.982831 150.719744 
L 417.538921 144.085605 
L 417.816966 142.108968 
L 418.095011 141.092491 
L 418.373056 141.06518 
L 418.651102 142.037757 
L 418.929147 144.002158 
L 419.485237 150.78344 
L 420.041327 160.99445 
L 420.875462 181.269236 
L 423.933958 262.934955 
L 424.768093 277.31058 
L 425.324183 284.180555 
L 425.880273 289.07348 
L 426.436364 292.288155 
L 426.436364 292.288155 
" clip-path="url(#p653fdf89ca)" style="fill: none; stroke: #ff00ff; stroke-width: 3; stroke-linecap: square"/>
   </g>
   <g id="patch_3">
    <path d="M 7.2 331.2 
L 7.2 7.2 
" style="fill: none; stroke: #000000; stroke-width: 0.8; stroke-linejoin: miter; stroke-linecap: square"/>
   </g>
   <g id="patch_4">
    <path d="M 446.4 331.2 
L 446.4 7.2 
" style="fill: none; stroke: #000000; stroke-width: 0.8; stroke-linejoin: miter; stroke-linecap: square"/>
   </g>
   <g id="patch_5">
    <path d="M 7.2 331.2 
L 446.4 331.2 
" style="fill: none; stroke: #000000; stroke-width: 0.8; stroke-linejoin: miter; stroke-linecap: square"/>
   </g>
   <g id="patch_6">
    <path d="M 7.2 7.2 
L 446.4 7.2 
" style="fill: none; stroke: #000000; stroke-width: 0.8; stroke-linejoin: miter; stroke-linecap: square"/>
   </g>
  </g>
 </g>
 <defs>
  <clipPath id="p653fdf89ca">
   <rect x="7.2" y="7.2" width="439.2" height="324"/>
  </clipPath>
 </defs>
</svg>
