<?xml version="1.0" encoding="utf-8" standalone="no"?>
<!DOCTYPE svg PUBLIC "-//W3C//DTD SVG 1.1//EN"
  "http://www.w3.org/Graphics/SVG/1.1/DTD/svg11.dtd">
<svg xmlns:xlink="http://www.w3.org/1999/xlink" width="453.6pt" height="338.4pt" viewBox="0 0 453.6 338.4" xmlns="http://www.w3.org/2000/svg" version="1.1">
 <metadata>
  <rdf:RDF xmlns:dc="http://purl.org/dc/elements/1.1/" xmlns:cc="http://creativecommons.org/ns#" xmlns:rdf="http://www.w3.org/1999/02/22-rdf-syntax-ns#">
   <cc:Work>
    <dc:type rdf:resource="http://purl.org/dc/dcmitype/StillImage"/>
    <dc:date>2025-05-15T17:55:48.241878</dc:date>
    <dc:format>image/svg+xml</dc:format>
    <dc:creator>
     <cc:Agent>
      <dc:title>Matplotlib v3.10.1, https://matplotlib.org/</dc:title>
     </cc:Agent>
    </dc:creator>
   </cc:Work>
  </rdf:RDF>
 </metadata>
 <defs>
  <style type="text/css">*{stroke-linejoin: round; stroke-linecap: butt}</style>
 </defs>
 <g id="figure_1">
  <g id="patch_1">
   <path d="M 0 338.4 
L 453.6 338.4 
L 453.6 0 
L 0 0 
z
" style="fill: #ffffff"/>
  </g>
  <g id="axes_1">
   <g id="patch_2">
    <path d="M 7.2 331.2 
L 446.4 331.2 
L 446.4 7.2 
L 7.2 7.2 
z
" style="fill: #ffffff"/>
   </g>
   <g id="matplotlib.axis_1"/>
   <g id="matplotlib.axis_2"/>
   <g id="line2d_1">
    <path d="M 27.163636 308.883802 
L 30.500177 315.205739 
L 31.334312 316.080919 
L 31.890403 316.386713 
L 32.446493 316.472727 
L 33.002583 316.358078 
L 33.836718 315.878277 
L 34.948898 314.867355 
L 37.451304 312.426519 
L 38.563484 311.661393 
L 39.95371 310.995287 
L 41.62198 310.173059 
L 42.734161 309.293104 
L 43.846341 308.086974 
L 45.792656 305.870284 
L 46.626792 305.236645 
L 47.460927 304.910065 
L 48.295062 304.852835 
L 50.797468 304.952745 
L 51.631603 304.646784 
L 52.465738 304.106445 
L 53.855964 302.865204 
L 57.748595 298.951347 
L 58.58273 297.774107 
L 59.416865 296.222208 
L 60.251 294.199867 
L 61.363181 290.785193 
L 64.143631 281.537802 
L 65.255812 278.866295 
L 67.202127 274.604688 
L 68.036262 272.086655 
L 68.870398 268.85606 
L 69.982578 263.455776 
L 71.094758 256.915073 
L 72.206938 249.100406 
L 73.319119 239.682752 
L 74.709344 225.747382 
L 78.601975 185.376975 
L 79.992201 169.53701 
L 81.382426 150.209389 
L 83.606787 118.137428 
L 84.440922 109.358449 
L 84.997012 105.255972 
L 85.553102 102.676329 
L 85.831147 101.951257 
L 86.109192 101.58417 
L 86.387237 101.552698 
L 86.665282 101.829089 
L 87.221372 103.171157 
L 87.777463 105.312252 
L 90.557913 117.897906 
L 91.392049 120.18549 
L 92.226184 121.762265 
L 93.894454 124.534893 
L 94.72859 126.57366 
L 95.562725 129.307839 
L 98.06513 138.559799 
L 98.621221 139.616998 
L 98.899266 139.854785 
L 99.177311 139.873766 
L 99.455356 139.66067 
L 99.733401 139.207857 
L 100.289491 137.582675 
L 100.845581 135.059253 
L 101.679716 129.956286 
L 103.904077 114.858611 
L 104.738212 110.935965 
L 105.294302 109.175247 
L 105.850393 108.078391 
L 106.406483 107.565966 
L 106.962573 107.529583 
L 107.518663 107.856136 
L 108.074753 108.448498 
L 108.908888 109.699345 
L 109.743024 111.335674 
L 110.577159 113.427992 
L 111.411294 116.099792 
L 112.245429 119.42949 
L 113.35761 124.802399 
L 117.806331 148.750864 
L 119.196556 157.3436 
L 120.586781 167.649096 
L 122.533097 184.176572 
L 125.035503 207.53098 
L 127.259863 228.336885 
L 128.372044 237.090355 
L 129.484224 244.228093 
L 130.596404 250.014585 
L 131.98663 256.051322 
L 133.376855 261.199544 
L 134.489035 264.639683 
L 135.601215 267.421202 
L 136.991441 270.229931 
L 138.659711 273.614521 
L 139.771892 276.451136 
L 141.162117 280.700929 
L 143.108433 286.591948 
L 144.498658 289.932248 
L 146.166928 293.759719 
L 147.279109 296.920566 
L 150.61565 307.21033 
L 151.72783 309.462022 
L 153.118055 311.607999 
L 155.342416 314.625219 
L 156.176551 315.458138 
L 157.010686 315.926827 
L 157.566776 316.000692 
L 158.122867 315.883777 
L 158.957002 315.388443 
L 159.791137 314.583033 
L 160.903317 313.148184 
L 162.015498 311.37012 
L 163.405723 308.673101 
L 164.795948 305.452179 
L 166.186174 301.664631 
L 167.298354 297.971151 
L 168.132489 294.520551 
L 168.966624 290.226719 
L 169.80076 284.924 
L 170.91294 276.325612 
L 174.249481 248.666009 
L 175.361661 242.127044 
L 176.195796 238.344748 
L 177.029932 235.336457 
L 177.864067 232.984916 
L 178.698202 231.27466 
L 179.254292 230.496806 
L 179.810382 229.986008 
L 180.644518 229.559212 
L 181.478653 229.104236 
L 182.034743 228.436203 
L 182.590833 227.19476 
L 183.146923 225.153216 
L 183.703013 222.132892 
L 184.259104 218.029334 
L 185.093239 209.83275 
L 186.205419 195.660547 
L 187.87369 170.461917 
L 190.65414 124.965236 
L 194.268726 62.708408 
L 195.102861 52.703138 
L 195.658952 47.889366 
L 196.215042 44.615986 
L 196.771132 42.793746 
L 197.049177 42.371256 
L 197.327222 42.235798 
L 197.605267 42.354575 
L 197.883312 42.693619 
L 198.439402 43.897208 
L 199.273538 46.559595 
L 200.663763 51.944274 
L 201.775943 56.859147 
L 202.610079 61.343482 
L 203.444214 66.937847 
L 204.556394 76.370301 
L 207.61489 104.760736 
L 208.449025 109.528517 
L 209.005115 111.572038 
L 209.561205 112.755536 
L 209.83925 113.054221 
L 210.117296 113.176681 
L 210.395341 113.137472 
L 210.673386 112.950372 
L 211.229476 112.180342 
L 211.785566 110.943351 
L 212.619701 108.321147 
L 213.453836 104.920144 
L 215.956242 94.029067 
L 216.512332 92.770192 
L 216.790377 92.45728 
L 217.068422 92.377479 
L 217.346467 92.540843 
L 217.624513 92.951504 
L 218.180603 94.500431 
L 218.736693 96.937075 
L 219.570828 101.874008 
L 222.629324 122.197656 
L 223.463459 126.11161 
L 224.019549 128.059175 
L 224.575639 129.391031 
L 225.13173 130.019212 
L 225.409775 130.040219 
L 225.68782 129.851054 
L 225.965865 129.442673 
L 226.521955 127.944764 
L 227.078045 125.536397 
L 227.91218 120.365516 
L 229.024361 111.431065 
L 230.692631 97.622276 
L 231.526766 92.226762 
L 232.360901 88.457016 
L 232.916992 86.911946 
L 233.473082 86.116504 
L 233.751127 85.980579 
L 234.029172 86.004529 
L 234.307217 86.174811 
L 234.863307 86.89088 
L 235.697442 88.60933 
L 237.087668 91.597802 
L 237.643758 92.250381 
L 237.921803 92.373718 
L 238.199848 92.341174 
L 238.477893 92.14281 
L 239.033983 91.230228 
L 239.590073 89.64445 
L 240.424209 86.173681 
L 241.536389 80.181731 
L 243.76075 67.623886 
L 244.594885 63.982874 
L 245.150975 62.209079 
L 245.707065 61.090709 
L 245.98511 60.803833 
L 246.263155 60.70661 
L 246.5412 60.800384 
L 246.819245 61.081784 
L 247.375336 62.168506 
L 247.931426 63.836873 
L 250.155786 71.656578 
L 250.711876 72.612734 
L 250.989921 72.799151 
L 251.267967 72.771674 
L 251.546012 72.520831 
L 251.824057 72.041963 
L 252.380147 70.397878 
L 252.936237 67.866038 
L 253.770372 62.5513 
L 254.882553 53.189001 
L 257.663003 27.495173 
L 258.219093 24.194238 
L 258.775184 22.277464 
L 259.053229 21.927273 
L 259.331274 22.020443 
L 259.609319 22.577611 
L 259.887364 23.612828 
L 260.443454 27.138649 
L 260.999544 32.567623 
L 261.833679 43.946394 
L 262.94586 63.820562 
L 264.61413 99.117282 
L 269.062851 195.196919 
L 270.453077 219.878408 
L 271.565257 235.261527 
L 272.399392 243.806928 
L 273.233527 249.885617 
L 274.067663 253.957435 
L 274.901798 256.74501 
L 276.570068 261.646773 
L 277.404204 264.954207 
L 278.238339 269.139618 
L 279.628564 277.527326 
L 281.296835 287.475586 
L 282.13097 291.421724 
L 282.965105 294.393931 
L 283.79924 296.444563 
L 284.633376 297.820853 
L 287.135781 301.255049 
L 288.247962 303.478552 
L 291.584502 310.749982 
L 292.696683 312.586814 
L 293.808863 314.012218 
L 294.642998 314.743791 
L 295.199088 315.030104 
L 295.755179 315.131774 
L 296.311269 315.037416 
L 296.867359 314.74727 
L 297.701494 313.975205 
L 298.535629 312.871944 
L 299.64781 311.036851 
L 301.038035 308.309188 
L 302.42826 305.090386 
L 304.096531 300.611622 
L 306.042846 294.737913 
L 307.155027 290.778903 
L 308.267207 285.97602 
L 309.657432 278.778426 
L 311.603748 268.691385 
L 312.437883 265.336757 
L 313.272018 262.78768 
L 314.106153 260.905735 
L 317.164649 255.007681 
L 318.554875 251.293572 
L 321.05728 243.753201 
L 321.891416 240.684421 
L 322.725551 236.65551 
L 323.559686 231.058816 
L 324.393821 223.369064 
L 325.227956 213.32361 
L 326.340137 196.516683 
L 328.008407 166.752708 
L 329.954723 132.3568 
L 331.066903 115.763378 
L 332.179083 102.361235 
L 333.291264 92.120088 
L 334.125399 86.187848 
L 335.237579 80.039433 
L 336.071714 76.47111 
L 336.90585 73.76016 
L 337.46194 72.489436 
L 338.01803 71.710929 
L 338.296075 71.524277 
L 338.57412 71.481736 
L 338.852165 71.589424 
L 339.13021 71.852954 
L 339.6863 72.867689 
L 340.24239 74.561234 
L 340.798481 76.96013 
L 341.632616 81.912829 
L 342.466751 88.466935 
L 343.578931 99.347371 
L 346.081337 125.438179 
L 346.915472 131.365021 
L 347.471562 133.924494 
L 348.027653 135.336834 
L 348.305698 135.6408 
L 348.583743 135.704953 
L 348.861788 135.557452 
L 349.417878 134.761231 
L 350.252013 132.864275 
L 351.086148 130.962896 
L 351.642239 130.057544 
L 352.198329 129.591753 
L 352.476374 129.54091 
L 352.754419 129.613228 
L 353.310509 130.11739 
L 353.866599 131.065848 
L 354.700734 133.200279 
L 355.53487 136.007887 
L 356.925095 141.620648 
L 358.87141 149.603327 
L 359.983591 153.21199 
L 360.817726 155.247482 
L 361.651861 156.749464 
L 362.485996 157.83225 
L 363.876222 159.150309 
L 364.988402 160.250264 
L 365.822537 161.351251 
L 366.934718 163.274827 
L 368.324943 165.841861 
L 368.881033 166.565277 
L 369.437123 166.910967 
L 369.715168 166.904633 
L 369.993213 166.763933 
L 370.549304 166.054607 
L 371.105394 164.773457 
L 371.939529 161.913876 
L 373.329754 155.770839 
L 374.71998 149.982671 
L 375.83216 146.366603 
L 377.50043 141.289613 
L 378.334566 138.030576 
L 379.446746 132.650692 
L 381.115016 124.454254 
L 381.671107 122.512282 
L 382.227197 121.258961 
L 382.505242 120.915493 
L 382.783287 120.761619 
L 383.061332 120.789974 
L 383.339377 120.986739 
L 383.895467 121.801591 
L 385.007648 124.290188 
L 385.841783 125.845079 
L 386.397873 126.29376 
L 386.675918 126.287777 
L 386.953963 126.11921 
L 387.510053 125.309503 
L 388.066143 123.963148 
L 390.012459 118.320143 
L 390.568549 117.536608 
L 390.846594 117.41329 
L 391.124639 117.483075 
L 391.402684 117.74682 
L 391.958774 118.819823 
L 392.79291 121.462079 
L 394.183135 126.246444 
L 394.739225 127.3958 
L 395.01727 127.689925 
L 395.295315 127.778983 
L 395.57336 127.660285 
L 395.851405 127.340631 
L 396.407496 126.167364 
L 397.241631 123.521951 
L 398.353811 120.019436 
L 398.909901 118.986227 
L 399.187946 118.749726 
L 399.465991 118.720904 
L 399.744036 118.905899 
L 400.022082 119.304283 
L 400.578172 120.709549 
L 401.134262 122.832365 
L 401.968397 127.065622 
L 403.080577 134.180911 
L 404.192758 143.146366 
L 405.026893 151.684713 
L 405.861028 162.195724 
L 406.973208 179.012794 
L 408.919524 209.63688 
L 409.753659 219.83764 
L 410.587794 227.06621 
L 411.143885 230.253182 
L 411.699975 232.351444 
L 412.256065 233.653572 
L 413.0902 234.829499 
L 413.924335 235.946855 
L 414.480425 236.997613 
L 415.314561 239.253715 
L 416.148696 242.317233 
L 417.260876 247.387519 
L 418.651102 254.889607 
L 420.041327 263.55755 
L 423.655913 287.172092 
L 424.768093 292.5834 
L 425.880273 296.786589 
L 426.436364 298.535364 
L 426.436364 298.535364 
" clip-path="url(#p92d7a0ec8f)" style="fill: none; stroke-dasharray: 11.1,4.8; stroke-dashoffset: 0; stroke: #000000; stroke-width: 3"/>
   </g>
   <g id="line2d_2">
    <path d="M 27.163636 177.33976 
L 29.109952 205.170922 
L 29.944087 214.832442 
L 30.500177 219.707386 
L 30.778222 218.61508 
L 31.890403 203.232546 
L 32.446493 199.5966 
L 33.002583 197.300959 
L 33.558673 196.270624 
L 33.836718 196.180046 
L 34.114763 196.366746 
L 34.392808 196.803062 
L 34.948898 198.375628 
L 35.783034 201.725984 
L 36.895214 203.632469 
L 38.007394 205.971149 
L 39.119575 208.804802 
L 40.5098 213.035877 
L 42.456115 219.870087 
L 46.070701 232.835212 
L 47.182882 236.188627 
L 48.295062 238.751609 
L 48.573107 239.324415 
L 50.241378 235.93792 
L 51.075513 234.780887 
L 51.909648 233.923718 
L 52.743783 233.370087 
L 53.021828 233.243905 
L 54.134009 233.33119 
L 54.690099 231.939107 
L 55.246189 231.25488 
L 55.524234 231.115632 
L 56.080324 231.190942 
L 56.636414 231.581891 
L 58.02664 233.086943 
L 58.860775 233.796308 
L 59.416865 233.985951 
L 59.972955 233.842377 
L 60.529045 233.308779 
L 61.085135 232.321131 
L 61.641226 230.807388 
L 62.197316 228.752106 
L 63.031451 224.507663 
L 63.865586 218.82196 
L 64.699721 211.624297 
L 65.811902 199.607708 
L 66.924082 184.803116 
L 67.480172 177.36601 
L 67.758217 175.81223 
L 68.592352 173.555476 
L 69.426488 171.849907 
L 70.260623 170.697239 
L 70.538668 170.374214 
L 70.816713 170.2424 
L 71.094758 170.371485 
L 71.372803 170.754591 
L 71.928893 172.208468 
L 72.484984 174.509332 
L 73.319119 179.329564 
L 74.153254 185.519575 
L 75.265434 195.788492 
L 76.933705 214.960222 
L 78.045885 228.889522 
L 78.32393 228.779476 
L 79.158065 216.92935 
L 79.992201 208.534568 
L 80.548291 204.673366 
L 81.104381 202.036976 
L 81.660471 200.498786 
L 81.938516 200.112192 
L 82.216561 199.967877 
L 82.494606 200.058075 
L 82.772651 200.383302 
L 83.328741 201.739723 
L 83.884832 203.953068 
L 84.440922 207.027246 
L 85.275057 213.249947 
L 86.109192 221.464284 
L 86.943327 231.716891 
L 88.055508 247.27987 
L 88.611598 246.61136 
L 89.167688 245.605316 
L 89.723778 243.973917 
L 90.279868 241.385115 
L 90.835958 237.53925 
L 91.948139 226.999884 
L 92.504229 219.399931 
L 93.060319 209.610261 
L 93.338364 210.370752 
L 93.894454 218.914604 
L 94.450544 224.745498 
L 95.006635 228.176756 
L 95.28468 229.064784 
L 95.562725 229.498459 
L 95.84077 229.484428 
L 96.118815 229.066343 
L 96.39686 228.303532 
L 96.95295 225.803126 
L 97.787085 220.258386 
L 98.899266 210.837595 
L 101.401671 188.887274 
L 102.513852 180.991763 
L 103.626032 174.565066 
L 105.016257 167.882596 
L 105.294302 167.216336 
L 106.962573 195.261998 
L 107.240618 197.541406 
L 107.796708 199.16501 
L 108.352798 200.046733 
L 108.908888 200.368248 
L 109.464978 200.390094 
L 110.577159 200.298152 
L 111.133249 200.557073 
L 111.689339 201.202364 
L 112.245429 202.3612 
L 112.801519 204.135588 
L 113.35761 206.601297 
L 114.191745 211.707119 
L 115.02588 218.582146 
L 115.860015 227.264827 
L 116.972195 241.461769 
L 118.362421 259.978435 
L 119.474601 268.643353 
L 121.420917 286.440988 
L 122.533097 296.329601 
L 122.811142 296.391133 
L 125.313548 282.840023 
L 125.869638 275.959047 
L 127.815953 245.650742 
L 130.318359 206.641812 
L 130.874449 201.90487 
L 132.264675 192.834377 
L 133.6549 185.452557 
L 135.32317 177.985129 
L 136.713396 171.499911 
L 137.547531 166.809748 
L 138.381666 161.058704 
L 138.937756 156.493613 
L 139.215801 156.636047 
L 140.884072 169.842126 
L 141.718207 179.583204 
L 142.830387 196.203869 
L 144.220613 221.240558 
L 145.054748 236.327807 
L 145.610838 241.168969 
L 146.444973 246.397923 
L 147.001064 248.600258 
L 147.279109 249.391462 
L 147.835199 251.742467 
L 148.113244 252.392727 
L 148.391289 252.709365 
L 148.669334 252.653124 
L 148.947379 252.264601 
L 149.225424 251.495238 
L 149.781514 249.400903 
L 150.61565 259.898039 
L 151.449785 267.657099 
L 152.28392 273.010481 
L 152.84001 275.396145 
L 153.3961 276.954095 
L 153.95219 277.778199 
L 154.230236 277.944749 
L 154.508281 277.966663 
L 155.064371 277.629718 
L 155.620461 276.832927 
L 156.454596 275.059873 
L 157.566776 272.53252 
L 158.122867 271.610623 
L 158.957002 269.571666 
L 159.791137 266.785524 
L 160.903317 261.987015 
L 162.015498 256.084982 
L 162.849633 250.788065 
L 165.630084 203.993485 
L 168.132489 161.820004 
L 168.688579 155.256992 
L 170.078805 147.592876 
L 170.91294 143.569869 
L 171.190985 142.702304 
L 171.46903 142.972109 
L 172.58121 146.488751 
L 175.083616 154.65397 
L 178.976247 163.959229 
L 180.088427 165.746119 
L 180.922563 166.665268 
L 181.756698 167.169021 
L 182.312788 167.263379 
L 182.868878 167.151794 
L 183.424968 166.800258 
L 183.981058 166.205596 
L 184.815194 164.777822 
L 185.649329 162.628698 
L 186.483464 159.624363 
L 187.317599 155.589157 
L 187.87369 152.94008 
L 188.151735 153.02259 
L 189.263915 159.258913 
L 189.820005 161.24633 
L 190.09805 161.669638 
L 190.65414 159.698825 
L 191.21023 157.002958 
L 191.766321 153.411406 
L 192.044366 151.250238 
L 192.322411 150.770007 
L 192.600456 149.796234 
L 193.156546 146.264995 
L 193.434591 146.508141 
L 194.268726 155.182764 
L 194.824816 159.056457 
L 195.380907 161.420802 
L 195.658952 162.067808 
L 195.936997 162.373021 
L 196.215042 162.365421 
L 196.493087 162.046722 
L 196.771132 161.429883 
L 197.327222 159.386985 
L 197.883312 156.421723 
L 198.717447 150.575969 
L 200.107673 138.744073 
L 200.941808 132.277622 
L 201.775943 135.609659 
L 204.556394 147.971168 
L 205.112484 149.498055 
L 205.668574 150.406759 
L 206.224664 150.75886 
L 206.50271 151.364552 
L 207.0588 153.078792 
L 207.336845 153.692611 
L 207.61489 154.773389 
L 209.005115 167.452896 
L 209.28316 168.964407 
L 209.561205 169.770938 
L 210.951431 171.541877 
L 211.507521 171.971763 
L 211.785566 172.09888 
L 212.341656 171.99277 
L 212.619701 171.764708 
L 213.175791 170.88389 
L 213.731881 169.285562 
L 214.287972 166.884425 
L 214.844062 163.524735 
L 215.400152 159.094107 
L 216.234287 150.012624 
L 217.068422 138.683311 
L 217.346467 137.561823 
L 219.014738 140.803672 
L 220.126918 143.419172 
L 221.239099 146.568202 
L 222.629324 151.188346 
L 224.297594 156.753089 
L 225.13173 158.738089 
L 225.68782 159.386206 
L 225.965865 159.421966 
L 226.24391 158.78369 
L 227.078045 153.922875 
L 227.91218 151.040045 
L 228.746316 147.107052 
L 229.580451 141.911967 
L 230.414586 135.150591 
L 231.248721 126.437266 
L 231.526766 125.765356 
L 233.195037 140.38775 
L 235.141352 159.47998 
L 237.087668 179.291378 
L 238.199848 188.977745 
L 239.312028 201.133183 
L 240.424209 216.516088 
L 241.536389 235.99687 
L 241.814434 241.618361 
L 242.092479 243.325547 
L 243.204659 199.535604 
L 244.038795 175.883125 
L 244.31684 171.861239 
L 248.209471 148.766883 
L 249.321651 144.099735 
L 250.155786 141.591436 
L 250.711876 140.428712 
L 251.267967 139.665814 
L 251.824057 139.285145 
L 252.380147 139.266943 
L 252.936237 139.59488 
L 253.492327 140.228809 
L 254.326462 141.646664 
L 255.160598 143.469275 
L 255.438643 144.998344 
L 256.272778 152.932714 
L 258.775184 176.964167 
L 259.609319 181.866305 
L 260.443454 185.660713 
L 261.277589 188.559241 
L 261.555634 189.328151 
L 262.667815 198.233584 
L 263.223905 201.345246 
L 263.779995 203.548731 
L 264.336085 204.903144 
L 264.892175 205.500476 
L 265.17022 205.53263 
L 265.448265 205.395292 
L 266.004356 204.633095 
L 266.560446 203.297215 
L 267.116536 201.431576 
L 267.950671 197.743755 
L 269.062851 191.455917 
L 270.453077 181.98779 
L 271.565257 174.059833 
L 274.345708 159.97851 
L 274.623753 163.383255 
L 275.735933 184.052066 
L 276.848113 200.773823 
L 277.682249 210.379531 
L 278.516384 217.160492 
L 279.072474 219.997604 
L 279.628564 221.43062 
L 279.906609 221.617038 
L 280.184654 221.44698 
L 280.462699 220.917581 
L 280.740744 220.021067 
L 281.296835 217.104085 
L 281.852925 212.707317 
L 282.409015 206.808245 
L 283.24315 195.094005 
L 284.35533 177.112876 
L 285.189466 195.833207 
L 286.023601 208.65124 
L 286.857736 217.175146 
L 287.135781 219.535866 
L 287.413826 220.435713 
L 287.691871 220.782893 
L 287.969916 220.817201 
L 288.247962 220.589119 
L 288.804052 219.54904 
L 290.472322 215.528615 
L 290.750367 215.284953 
L 291.028412 215.305843 
L 291.306457 215.64329 
L 291.584502 216.352743 
L 291.862547 217.498347 
L 292.418638 221.285866 
L 293.530818 231.528086 
L 293.808863 231.836856 
L 294.086908 231.38533 
L 294.364953 230.24758 
L 294.921043 226.28096 
L 295.755179 217.3701 
L 296.311269 210.446792 
L 297.423449 207.593603 
L 298.535629 205.366743 
L 299.369764 204.086343 
L 299.64781 203.744435 
L 299.925855 201.28234 
L 301.038035 185.694359 
L 301.87217 176.704632 
L 302.706305 170.283674 
L 303.262396 167.429511 
L 303.818486 165.646693 
L 304.096531 165.159973 
L 304.374576 164.966773 
L 304.652621 165.064718 
L 304.930666 165.454527 
L 305.208711 166.142047 
L 305.764801 168.426434 
L 306.320891 171.956572 
L 306.876982 176.739758 
L 307.711117 186.240867 
L 308.545252 198.486318 
L 309.101342 208.065571 
L 309.379387 210.20615 
L 310.213522 204.756656 
L 310.769613 202.174168 
L 311.325703 200.332235 
L 311.881793 199.261902 
L 312.159838 198.97334 
L 312.437883 198.86271 
L 312.715928 198.943252 
L 312.993973 199.162857 
L 313.828108 200.246237 
L 314.384199 199.56697 
L 314.940289 199.36276 
L 315.218334 199.448485 
L 315.774424 200.035314 
L 316.330514 201.186364 
L 316.886604 202.934396 
L 317.442694 205.325224 
L 317.998785 208.409556 
L 318.83292 214.4671 
L 319.667055 222.445024 
L 321.335325 201.934666 
L 323.003596 184.652652 
L 323.837731 178.489973 
L 324.393821 175.534513 
L 324.949911 173.528193 
L 325.506002 172.451029 
L 325.784047 172.237124 
L 326.062092 172.240067 
L 326.340137 172.429194 
L 326.896227 173.330209 
L 327.452317 174.774557 
L 329.120587 179.874075 
L 329.398633 180.398056 
L 329.676678 180.676845 
L 329.954723 180.658604 
L 330.232768 180.268776 
L 330.510813 179.436521 
L 330.788858 178.079302 
L 331.066903 176.112727 
L 331.622993 174.86457 
L 331.901038 173.924306 
L 332.735173 176.674767 
L 333.847354 178.336245 
L 334.681489 179.460813 
L 335.237579 179.9218 
L 335.793669 180.088448 
L 336.349759 179.899691 
L 336.90585 179.271511 
L 337.46194 178.249321 
L 338.01803 176.831379 
L 338.852165 174.095319 
L 340.24239 168.423122 
L 341.632616 162.942837 
L 342.188706 161.345814 
L 342.744796 160.373756 
L 343.022841 160.204215 
L 343.300886 160.252953 
L 343.578931 160.596947 
L 343.856976 161.230409 
L 344.413067 163.555311 
L 344.969157 167.484621 
L 345.247202 170.174583 
L 345.525247 168.291366 
L 347.193517 146.38309 
L 348.305698 130.091627 
L 349.417878 135.64844 
L 349.973968 137.291979 
L 350.530058 138.297146 
L 351.086148 138.79819 
L 351.642239 138.888242 
L 352.198329 138.644512 
L 352.754419 138.126864 
L 353.588554 136.883891 
L 354.422689 135.14268 
L 355.256825 133.337159 
L 357.481185 152.978178 
L 358.31532 157.403174 
L 359.149456 160.49949 
L 359.983591 162.54077 
L 360.539681 163.432033 
L 361.095771 164.029462 
L 361.651861 164.386883 
L 362.485996 164.608339 
L 363.598177 164.548064 
L 363.876222 165.506656 
L 364.432312 169.641755 
L 366.100582 183.365189 
L 366.378628 183.773901 
L 366.934718 180.952086 
L 367.212763 180.200024 
L 367.490808 180.103901 
L 367.768853 180.207 
L 368.324943 180.802013 
L 368.881033 181.91592 
L 369.437123 183.507731 
L 370.271259 186.732888 
L 371.105394 190.874165 
L 372.217574 197.624559 
L 373.607799 207.507663 
L 376.666295 229.850414 
L 377.50043 234.469905 
L 378.056521 236.787557 
L 378.612611 238.315107 
L 378.890656 238.721422 
L 379.168701 238.888333 
L 379.446746 238.758254 
L 379.724791 238.338765 
L 380.002836 237.58563 
L 380.558926 235.027229 
L 381.115016 230.863015 
L 381.393062 228.294636 
L 381.671107 227.861448 
L 382.227197 234.591604 
L 382.783287 239.011621 
L 385.007648 249.847226 
L 385.841783 252.56832 
L 386.119828 253.086371 
L 386.397873 250.926641 
L 388.344188 228.955926 
L 390.290504 209.425129 
L 391.958774 194.675111 
L 393.349 184.233242 
L 394.46118 177.49908 
L 395.295315 173.598757 
L 396.12945 170.841232 
L 396.685541 169.691994 
L 397.241631 169.13009 
L 397.519676 169.220805 
L 398.075766 170.570969 
L 399.187946 173.165364 
L 399.465991 174.796949 
L 400.856217 186.298024 
L 401.690352 191.188158 
L 402.246442 193.314716 
L 402.802532 194.652135 
L 403.358622 195.255275 
L 403.636668 195.311223 
L 403.914713 195.191307 
L 404.192758 194.932093 
L 404.748848 193.944855 
L 405.304938 192.385033 
L 405.861028 190.240839 
L 406.695163 185.911411 
L 407.251253 182.255452 
L 410.865839 245.101388 
L 411.42193 251.735666 
L 411.97802 254.842437 
L 412.53411 256.813991 
L 412.812155 257.351072 
L 413.0902 257.606071 
L 413.368245 257.544754 
L 413.64629 257.195148 
L 413.924335 256.548814 
L 414.480425 254.358279 
L 415.036516 251.016089 
L 415.870651 243.920034 
L 416.704786 234.490854 
L 418.373056 213.60501 
L 418.929147 210.089917 
L 419.207192 210.378605 
L 420.875462 224.738629 
L 422.265688 234.422384 
L 423.099823 239.140132 
L 425.046138 246.928276 
L 426.436364 251.936865 
L 426.436364 251.936865 
" clip-path="url(#p92d7a0ec8f)" style="fill: none; stroke: #ff00ff; stroke-width: 3; stroke-linecap: square"/>
   </g>
   <g id="patch_3">
    <path d="M 7.2 331.2 
L 7.2 7.2 
" style="fill: none; stroke: #000000; stroke-width: 0.8; stroke-linejoin: miter; stroke-linecap: square"/>
   </g>
   <g id="patch_4">
    <path d="M 446.4 331.2 
L 446.4 7.2 
" style="fill: none; stroke: #000000; stroke-width: 0.8; stroke-linejoin: miter; stroke-linecap: square"/>
   </g>
   <g id="patch_5">
    <path d="M 7.2 331.2 
L 446.4 331.2 
" style="fill: none; stroke: #000000; stroke-width: 0.8; stroke-linejoin: miter; stroke-linecap: square"/>
   </g>
   <g id="patch_6">
    <path d="M 7.2 7.2 
L 446.4 7.2 
" style="fill: none; stroke: #000000; stroke-width: 0.8; stroke-linejoin: miter; stroke-linecap: square"/>
   </g>
  </g>
 </g>
 <defs>
  <clipPath id="p92d7a0ec8f">
   <rect x="7.2" y="7.2" width="439.2" height="324"/>
  </clipPath>
 </defs>
</svg>
