<?xml version="1.0" encoding="utf-8" standalone="no"?>
<!DOCTYPE svg PUBLIC "-//W3C//DTD SVG 1.1//EN"
  "http://www.w3.org/Graphics/SVG/1.1/DTD/svg11.dtd">
<svg xmlns:xlink="http://www.w3.org/1999/xlink" width="453.6pt" height="338.4pt" viewBox="0 0 453.6 338.4" xmlns="http://www.w3.org/2000/svg" version="1.1">
 <metadata>
  <rdf:RDF xmlns:dc="http://purl.org/dc/elements/1.1/" xmlns:cc="http://creativecommons.org/ns#" xmlns:rdf="http://www.w3.org/1999/02/22-rdf-syntax-ns#">
   <cc:Work>
    <dc:type rdf:resource="http://purl.org/dc/dcmitype/StillImage"/>
    <dc:date>2025-05-15T17:15:00.656670</dc:date>
    <dc:format>image/svg+xml</dc:format>
    <dc:creator>
     <cc:Agent>
      <dc:title>Matplotlib v3.10.1, https://matplotlib.org/</dc:title>
     </cc:Agent>
    </dc:creator>
   </cc:Work>
  </rdf:RDF>
 </metadata>
 <defs>
  <style type="text/css">*{stroke-linejoin: round; stroke-linecap: butt}</style>
 </defs>
 <g id="figure_1">
  <g id="patch_1">
   <path d="M 0 338.4 
L 453.6 338.4 
L 453.6 0 
L 0 0 
z
" style="fill: #ffffff"/>
  </g>
  <g id="axes_1">
   <g id="patch_2">
    <path d="M 7.2 331.2 
L 446.4 331.2 
L 446.4 7.2 
L 7.2 7.2 
z
" style="fill: #ffffff"/>
   </g>
   <g id="matplotlib.axis_1"/>
   <g id="matplotlib.axis_2"/>
   <g id="line2d_1">
    <path d="M 27.163636 187.089862 
L 27.997772 209.702141 
L 28.553862 218.501768 
L 28.831907 220.803545 
L 29.109952 221.666186 
L 29.387997 221.090234 
L 29.666042 219.101174 
L 30.222132 211.109102 
L 30.778222 198.377722 
L 31.612358 172.730947 
L 33.558673 107.461607 
L 34.114763 94.173797 
L 34.670853 85.527412 
L 34.948898 83.181528 
L 35.226944 82.228054 
L 35.504989 82.688184 
L 35.783034 84.555997 
L 36.061079 87.798098 
L 36.617169 98.146312 
L 37.173259 112.996583 
L 38.007394 141.433735 
L 40.787845 242.691217 
L 41.62198 264.029328 
L 42.456115 279.454739 
L 43.012206 286.766943 
L 43.568296 292.094223 
L 44.124386 295.830618 
L 44.680476 298.369803 
L 45.236566 300.071406 
L 46.070701 301.70337 
L 50.797468 308.621152 
L 51.353558 308.964735 
L 51.631603 308.969209 
L 51.909648 308.829796 
L 52.187693 308.519066 
L 52.465738 308.006539 
L 53.021828 306.239026 
L 53.577918 303.227464 
L 54.134009 298.639862 
L 54.690099 292.135076 
L 55.246189 283.399597 
L 56.080324 265.62227 
L 56.914459 242.088896 
L 58.02664 203.237688 
L 60.251 122.315674 
L 61.085135 101.562758 
L 61.641226 93.196372 
L 61.919271 90.861742 
L 62.197316 89.800217 
L 62.475361 90.013697 
L 62.753406 91.478275 
L 63.031451 94.145644 
L 63.587541 102.778472 
L 64.421676 122.267321 
L 66.646037 182.674526 
L 67.202127 192.570609 
L 67.758217 198.273739 
L 68.036262 199.358627 
L 68.314307 199.20525 
L 68.592352 197.795669 
L 68.870398 195.135531 
L 69.426488 186.198841 
L 69.982578 172.884685 
L 70.816713 146.563939 
L 73.319119 61.095357 
L 73.875209 49.120602 
L 74.431299 41.834495 
L 74.709344 40.08969 
L 74.987389 39.636475 
L 75.265434 40.463912 
L 75.543479 42.536664 
L 76.09957 50.162875 
L 76.65566 61.801865 
L 77.489795 84.573938 
L 79.43611 141.137511 
L 79.992201 152.860782 
L 80.548291 160.902293 
L 80.826336 163.356904 
L 81.104381 164.702496 
L 81.382426 164.913265 
L 81.660471 163.98216 
L 81.938516 161.92066 
L 82.494606 154.545844 
L 83.050696 143.249715 
L 83.884832 120.624827 
L 86.387237 46.832381 
L 86.943327 36.695116 
L 87.499418 30.745653 
L 87.777463 29.463599 
L 88.055508 29.331508 
L 88.333553 30.337538 
L 88.611598 32.447798 
L 89.167688 39.746197 
L 89.723778 50.577452 
L 90.557913 71.471047 
L 92.504229 123.198561 
L 93.338364 138.452383 
L 93.894454 144.406817 
L 94.172499 145.951066 
L 94.450544 146.498278 
L 94.72859 146.037064 
L 95.006635 144.571084 
L 95.562725 138.721989 
L 96.118815 129.305196 
L 96.95295 109.879072 
L 99.455356 44.38857 
L 100.011446 35.221726 
L 100.567536 29.824943 
L 100.845581 28.663728 
L 101.123626 28.553237 
L 101.401671 29.487189 
L 101.679716 31.439237 
L 102.235807 38.201406 
L 102.791897 48.284306 
L 103.626032 67.913923 
L 105.850393 124.232158 
L 106.684528 138.345508 
L 107.240618 143.858295 
L 107.518663 145.31266 
L 107.796708 145.870808 
L 108.074753 145.529936 
L 108.352798 144.301749 
L 108.908888 139.30811 
L 109.464978 131.29421 
L 110.299114 115.072679 
L 112.245429 74.422573 
L 112.801519 66.793741 
L 113.35761 62.551575 
L 113.635655 61.872633 
L 113.9137 62.209528 
L 114.191745 63.578936 
L 114.46979 65.977692 
L 115.02588 73.755245 
L 115.58197 85.155042 
L 116.416105 107.647657 
L 118.084376 161.981984 
L 119.474601 204.742305 
L 120.586781 232.242025 
L 121.420917 248.50486 
L 122.255052 261.542202 
L 123.367232 275.193863 
L 124.479413 286.064751 
L 125.869638 297.173024 
L 126.981818 304.319492 
L 127.815953 308.515813 
L 128.650089 311.534108 
L 129.206179 312.792866 
L 129.762269 313.357589 
L 130.040314 313.346856 
L 130.318359 313.118938 
L 130.596404 312.653792 
L 131.152494 310.918071 
L 131.708584 307.922936 
L 132.264675 303.411457 
L 132.820765 297.103159 
L 133.376855 288.725838 
L 134.21099 271.824054 
L 135.045125 249.535226 
L 136.157306 212.665326 
L 138.381666 134.600256 
L 139.215801 113.652116 
L 139.771892 104.553509 
L 140.327982 99.880407 
L 140.606027 99.242091 
L 140.884072 99.712162 
L 141.162117 101.245204 
L 141.718207 107.213964 
L 142.274297 116.394185 
L 143.386478 140.258104 
L 144.498658 163.639345 
L 145.054748 172.361967 
L 145.610838 177.93183 
L 145.888883 179.343129 
L 146.166928 179.770947 
L 146.444973 179.188216 
L 146.723018 177.586258 
L 147.279109 171.385852 
L 147.835199 161.475037 
L 148.669334 140.993082 
L 151.449785 64.754792 
L 152.005875 56.342945 
L 152.28392 53.730618 
L 152.561965 52.263012 
L 152.84001 51.976053 
L 153.118055 52.882935 
L 153.3961 54.974261 
L 153.95219 62.558444 
L 154.508281 74.206879 
L 155.342416 97.396918 
L 157.566776 164.304097 
L 158.122867 175.666883 
L 158.678957 183.059097 
L 158.957002 185.116032 
L 159.235047 186.039771 
L 159.513092 185.825523 
L 159.791137 184.48793 
L 160.069182 182.061201 
L 160.625272 174.166559 
L 161.181362 162.758808 
L 162.015498 140.961675 
L 163.961813 87.366755 
L 164.517903 76.377333 
L 165.073993 69.001974 
L 165.352038 66.853348 
L 165.630084 65.790558 
L 165.908129 65.833489 
L 166.186174 66.979971 
L 166.464219 69.206597 
L 167.020309 76.705144 
L 167.576399 87.752094 
L 168.410534 109.108484 
L 170.634895 169.477187 
L 171.46903 184.688892 
L 172.02512 191.12013 
L 172.58121 194.471457 
L 172.859256 195.034801 
L 173.137301 194.905873 
L 173.415346 194.136369 
L 173.971436 190.936295 
L 174.805571 183.191686 
L 176.195796 168.825314 
L 176.751887 164.903865 
L 177.029932 163.697595 
L 177.307977 163.090597 
L 177.586022 163.140532 
L 177.864067 163.891237 
L 178.142112 165.371767 
L 178.698202 170.55959 
L 179.254292 178.620487 
L 180.088427 195.324743 
L 181.478653 230.364044 
L 182.868878 264.817518 
L 183.703013 281.547103 
L 184.537149 294.222537 
L 185.371284 302.824839 
L 185.927374 306.516337 
L 186.483464 308.795158 
L 187.039554 309.857405 
L 187.317599 309.987961 
L 187.595644 309.876815 
L 187.87369 309.540462 
L 188.42978 308.244873 
L 188.98587 306.18848 
L 189.820005 301.819532 
L 190.65414 296.085808 
L 191.766321 286.736756 
L 193.712636 267.81437 
L 197.049177 233.39018 
L 198.161357 219.49031 
L 199.273538 202.491547 
L 200.385718 181.84153 
L 203.722259 115.964287 
L 204.278349 109.219382 
L 204.834439 104.832018 
L 205.112484 103.569351 
L 205.390529 102.925522 
L 205.668574 102.881778 
L 205.946619 103.406349 
L 206.224664 104.454678 
L 206.780755 107.889426 
L 207.61489 115.309477 
L 209.005115 128.46985 
L 209.561205 132.381765 
L 210.117296 134.944878 
L 210.395341 135.657216 
L 210.673386 135.974227 
L 210.951431 135.893246 
L 211.229476 135.419243 
L 211.507521 134.562748 
L 212.063611 131.768891 
L 212.619701 127.683852 
L 213.453836 119.637325 
L 216.512332 86.853662 
L 217.068422 83.602342 
L 217.346467 82.580224 
L 217.624513 81.987099 
L 217.902558 81.829881 
L 218.180603 82.104729 
L 218.458648 82.796415 
L 219.014738 85.313525 
L 219.848873 91.232078 
L 221.517144 104.678823 
L 222.073234 107.90113 
L 222.629324 109.984909 
L 222.907369 110.570306 
L 223.185414 110.854645 
L 223.463459 110.850668 
L 223.741504 110.578169 
L 224.297594 109.33177 
L 224.853684 107.35193 
L 225.965865 102.178388 
L 227.634135 94.363733 
L 228.46827 91.539734 
L 229.024361 90.377706 
L 229.302406 90.063949 
L 229.580451 89.948216 
L 229.858496 90.041128 
L 230.136541 90.35005 
L 230.692631 91.617869 
L 231.248721 93.693061 
L 232.082856 97.927681 
L 233.473082 105.420896 
L 234.029172 107.562473 
L 234.585262 108.811583 
L 234.863307 109.062119 
L 235.141352 109.06004 
L 235.419397 108.814475 
L 235.975487 107.667269 
L 236.531578 105.833937 
L 239.033983 96.268873 
L 239.590073 94.9668 
L 240.146164 94.090421 
L 240.702254 93.61687 
L 241.258344 93.528477 
L 241.814434 93.833965 
L 242.370524 94.569666 
L 242.926614 95.784703 
L 243.482704 97.513329 
L 244.31684 101.02585 
L 247.375336 115.625314 
L 247.931426 117.112804 
L 248.765561 118.616969 
L 249.877741 120.413697 
L 250.433831 121.803395 
L 250.989921 123.802487 
L 251.546012 126.521688 
L 252.380147 131.965244 
L 253.492327 141.30449 
L 255.160598 157.952665 
L 256.828868 177.06607 
L 258.219093 195.670496 
L 260.165409 225.339269 
L 262.667815 263.222249 
L 264.05804 280.727303 
L 265.17022 291.694129 
L 266.004356 297.808357 
L 266.560446 300.803311 
L 267.116536 302.905708 
L 267.672626 304.09842 
L 267.950671 304.34803 
L 268.228716 304.362694 
L 268.506761 304.139001 
L 268.784806 303.673065 
L 269.340896 301.995662 
L 269.896987 299.289543 
L 270.453077 295.516047 
L 271.287212 287.814255 
L 272.121347 277.743081 
L 273.233527 261.238951 
L 280.184654 149.647603 
L 281.57488 130.240233 
L 282.409015 121.567772 
L 282.965105 117.511926 
L 283.521195 114.896482 
L 284.077285 113.599741 
L 284.35533 113.36841 
L 284.633376 113.360457 
L 285.189466 113.823253 
L 286.579691 115.57217 
L 286.857736 115.708148 
L 287.135781 115.710814 
L 287.413826 115.566024 
L 287.969916 114.806281 
L 288.526007 113.414324 
L 289.082097 111.415323 
L 289.916232 107.342395 
L 290.750367 102.020673 
L 291.862547 93.131931 
L 293.808863 76.531929 
L 294.364953 73.312876 
L 294.921043 71.564501 
L 295.199088 71.341621 
L 295.477133 71.583662 
L 295.755179 72.296044 
L 296.311269 75.080095 
L 296.867359 79.438491 
L 297.979539 90.867436 
L 299.091719 101.729375 
L 299.64781 105.589185 
L 300.2039 108.010762 
L 300.481945 108.665482 
L 300.75999 108.965502 
L 301.038035 108.93554 
L 301.31608 108.608271 
L 301.87217 107.212517 
L 302.706305 103.85735 
L 304.652621 94.143339 
L 306.042846 87.56618 
L 306.876982 84.550032 
L 307.433072 83.343627 
L 307.711117 83.0681 
L 307.989162 83.04442 
L 308.267207 83.291115 
L 308.545252 83.820567 
L 309.101342 85.736418 
L 309.657432 88.725452 
L 310.491567 94.770041 
L 315.218334 134.385014 
L 316.052469 144.620432 
L 316.886604 157.451864 
L 317.998785 178.08376 
L 321.891416 255.085612 
L 323.003596 271.879254 
L 323.837731 281.827555 
L 324.671866 289.235654 
L 325.227956 292.711277 
L 325.784047 295.030068 
L 326.340137 296.236925 
L 326.618182 296.443084 
L 326.896227 296.39629 
L 327.174272 296.105308 
L 327.730362 294.824836 
L 328.286452 292.658223 
L 328.842542 289.644492 
L 329.676678 283.584945 
L 330.510813 275.725868 
L 331.622993 262.613465 
L 333.013219 242.638458 
L 334.403444 219.504093 
L 335.793669 193.097982 
L 337.183895 162.632772 
L 339.964345 98.538791 
L 340.798481 84.516726 
L 341.354571 77.887689 
L 341.910661 73.663825 
L 342.188706 72.455296 
L 342.466751 71.824437 
L 342.744796 71.739027 
L 343.022841 72.155773 
L 343.300886 73.022888 
L 343.856976 75.866951 
L 344.691112 81.904264 
L 346.081337 92.240503 
L 346.637427 95.124334 
L 347.193517 96.76267 
L 347.471562 97.033903 
L 347.749607 96.905833 
L 348.027653 96.358712 
L 348.305698 95.378124 
L 348.861788 92.085726 
L 349.417878 87.030899 
L 350.252013 76.440916 
L 351.364193 58.425819 
L 352.754419 35.850732 
L 353.588554 26.2694 
L 354.144644 22.74739 
L 354.422689 21.987557 
L 354.700734 21.927273 
L 354.978779 22.572774 
L 355.256825 23.914931 
L 355.812915 28.585368 
L 356.369005 35.600422 
L 357.20314 49.364766 
L 359.427501 88.987963 
L 359.983591 95.932837 
L 360.539681 100.601692 
L 360.817726 101.967981 
L 361.095771 102.645703 
L 361.373816 102.615064 
L 361.651861 101.867748 
L 361.929906 100.40674 
L 362.485996 95.419654 
L 363.042087 87.937691 
L 363.876222 73.167317 
L 365.822537 36.042521 
L 366.378628 28.775755 
L 366.934718 24.394854 
L 367.212763 23.434647 
L 367.490808 23.339837 
L 367.768853 24.12222 
L 368.046898 25.775333 
L 368.602988 31.582581 
L 369.159078 40.381259 
L 369.993213 57.843495 
L 372.495619 115.676334 
L 373.051709 124.615283 
L 373.607799 130.796618 
L 373.885845 132.731765 
L 374.16389 133.851811 
L 374.441935 134.13755 
L 374.71998 133.581888 
L 374.998025 132.189524 
L 375.554115 126.984258 
L 376.110205 118.838312 
L 376.94434 102.340531 
L 379.168701 54.209909 
L 379.724791 46.567836 
L 380.280881 42.303617 
L 380.558926 41.576909 
L 380.836971 41.823016 
L 381.115016 43.043882 
L 381.393062 45.221793 
L 381.949152 52.285879 
L 382.505242 62.525365 
L 383.339377 82.252502 
L 385.841783 145.31379 
L 386.675918 158.842194 
L 387.232008 164.254523 
L 387.510053 165.79719 
L 387.788098 166.555261 
L 388.066143 166.537185 
L 388.344188 165.764382 
L 388.622233 164.270972 
L 389.178324 159.325642 
L 390.012459 148.097433 
L 391.958774 118.522159 
L 392.514865 113.355757 
L 392.79291 111.832341 
L 393.070955 111.111417 
L 393.349 111.244458 
L 393.627045 112.265627 
L 393.90509 114.190516 
L 394.46118 120.721354 
L 395.01727 130.60501 
L 395.851405 150.624169 
L 397.241631 191.891803 
L 398.909901 240.492452 
L 400.022082 266.197635 
L 400.856217 281.002354 
L 401.690352 292.20085 
L 402.524487 300.3423 
L 403.358622 306.086463 
L 404.192758 310.065304 
L 405.026893 312.804751 
L 405.861028 314.673943 
L 406.695163 315.872914 
L 407.251253 316.324525 
L 407.807344 316.472727 
L 408.363434 316.27181 
L 408.919524 315.660406 
L 409.475614 314.565734 
L 410.031704 312.904961 
L 410.587794 310.587028 
L 411.143885 307.509037 
L 411.97802 301.20824 
L 412.812155 292.497887 
L 413.64629 280.967897 
L 414.480425 266.394689 
L 415.592606 242.653777 
L 418.095011 185.571823 
L 418.929147 172.332503 
L 419.485237 166.667062 
L 420.041327 163.813373 
L 420.319372 163.446879 
L 420.597417 163.762037 
L 420.875462 164.722832 
L 421.431552 168.376573 
L 421.987642 173.897178 
L 423.099823 187.95047 
L 424.212003 201.461837 
L 424.768093 206.474094 
L 425.324183 209.685873 
L 425.602228 210.508249 
L 425.880273 210.766422 
L 426.158319 210.43965 
L 426.436364 209.516408 
L 426.436364 209.516408 
" clip-path="url(#pc792d53779)" style="fill: none; stroke-dasharray: 11.1,4.8; stroke-dashoffset: 0; stroke: #000000; stroke-width: 3"/>
   </g>
   <g id="line2d_2">
    <path d="M 27.163636 162.521829 
L 31.056267 161.329659 
L 38.563484 158.94089 
L 39.119575 158.915403 
L 41.62198 159.383757 
L 43.290251 159.376346 
L 44.958521 159.154822 
L 46.904837 158.671148 
L 49.129197 157.869695 
L 51.631603 156.863709 
L 53.577918 157.062186 
L 54.968144 157.043929 
L 56.914459 156.870262 
L 59.972955 158.997062 
L 61.085135 159.421762 
L 62.197316 159.637185 
L 63.309496 159.65255 
L 64.421676 159.478295 
L 65.533857 158.903201 
L 71.650848 155.597427 
L 75.265434 154.170176 
L 79.43611 152.611963 
L 79.714155 152.524564 
L 79.992201 152.727876 
L 80.270246 153.180459 
L 81.938516 157.071269 
L 83.328741 159.616533 
L 84.718967 161.687206 
L 85.831147 162.958731 
L 86.943327 163.852825 
L 88.333553 164.6193 
L 88.889643 164.535246 
L 89.445733 164.00828 
L 90.001823 163.046898 
L 90.557913 161.659956 
L 91.392049 158.800257 
L 92.226184 155.036251 
L 93.338364 148.694309 
L 95.562725 128.758075 
L 96.39686 124.495754 
L 96.95295 122.799529 
L 97.50904 121.935261 
L 98.06513 121.646675 
L 98.343175 121.704157 
L 98.899266 122.169122 
L 99.455356 123.070762 
L 100.289491 125.098685 
L 101.123626 127.784491 
L 102.235807 132.113514 
L 103.904077 139.019478 
L 105.572347 143.102891 
L 116.69415 166.163866 
L 118.918511 169.968814 
L 119.752646 171.153257 
L 120.864827 172.445208 
L 127.259863 177.492036 
L 133.376855 182.297818 
L 143.108433 191.715741 
L 143.942568 192.722223 
L 147.557154 198.145985 
L 148.391289 199.145599 
L 149.503469 199.920435 
L 150.61565 200.467737 
L 151.72783 200.792928 
L 152.84001 200.91336 
L 153.95219 200.845981 
L 155.342416 200.521785 
L 156.732641 199.960157 
L 158.122867 198.960227 
L 160.069182 197.466456 
L 161.459407 197.0949 
L 162.849633 196.511807 
L 164.517903 195.557474 
L 166.186174 194.357531 
L 168.132489 192.692217 
L 170.91294 189.958373 
L 172.58121 188.129966 
L 173.971436 188.91375 
L 175.639706 189.573441 
L 177.307977 189.995249 
L 179.254292 190.244971 
L 181.200608 190.28135 
L 183.424968 190.144106 
L 184.815194 189.795914 
L 186.205419 189.225113 
L 187.595644 188.421987 
L 188.98587 187.376731 
L 190.932185 185.817569 
L 192.044366 185.008434 
L 193.156546 183.105327 
L 193.990681 181.325002 
L 194.546771 179.965447 
L 194.824816 179.722593 
L 195.658952 179.616621 
L 196.493087 179.31154 
L 197.327222 178.808615 
L 198.439402 177.835032 
L 199.551583 176.52383 
L 200.663763 174.888386 
L 202.053988 172.414614 
L 203.444214 169.501228 
L 205.112484 165.504989 
L 207.0588 160.300762 
L 207.336845 159.515984 
L 207.61489 158.045667 
L 209.005115 147.552346 
L 210.673386 136.979399 
L 211.785566 131.424223 
L 212.897746 127.002425 
L 213.731881 124.4319 
L 214.566017 122.493499 
L 215.400152 121.183879 
L 215.956242 120.656867 
L 216.512332 120.407506 
L 217.068422 120.439275 
L 217.624513 120.745079 
L 218.180603 121.32424 
L 218.736693 122.176262 
L 219.570828 123.97403 
L 220.126918 125.50915 
L 220.404963 125.781016 
L 220.961053 125.592888 
L 226.8 122.281194 
L 228.46827 120.748243 
L 229.858496 119.191973 
L 230.970676 117.708188 
L 231.526766 116.568258 
L 232.916992 113.6067 
L 234.029172 111.67806 
L 234.863307 110.557156 
L 235.697442 109.765735 
L 236.531578 109.349214 
L 237.087668 109.302758 
L 237.921803 109.524508 
L 238.755938 110.0315 
L 239.312028 110.619112 
L 239.590073 111.008021 
L 240.424209 113.647823 
L 242.370524 120.491018 
L 244.038795 127.232218 
L 247.931426 143.03976 
L 251.267967 158.256751 
L 252.380147 162.053791 
L 253.492327 165.209307 
L 254.604507 167.787922 
L 255.716688 169.81946 
L 256.828868 171.432986 
L 257.941048 172.711109 
L 259.053229 173.670503 
L 260.165409 174.340723 
L 261.277589 174.758328 
L 262.38977 174.953732 
L 263.223905 174.980981 
L 263.779995 174.766055 
L 264.892175 173.816649 
L 266.282401 172.293232 
L 267.672626 170.41611 
L 269.340896 167.735049 
L 271.009167 164.630011 
L 272.677437 161.062448 
L 274.623753 156.189422 
L 281.296835 139.395915 
L 281.57488 138.878665 
L 283.79924 138.189465 
L 287.413826 137.350232 
L 290.750367 136.714583 
L 296.033224 135.995512 
L 297.979539 135.413594 
L 298.813674 134.984013 
L 300.2039 133.745659 
L 302.150215 131.677154 
L 304.374576 128.921303 
L 306.598936 126.246885 
L 308.545252 124.25986 
L 310.213522 122.852131 
L 311.881793 121.75364 
L 313.272018 121.102129 
L 314.662244 120.706215 
L 315.774424 120.595951 
L 316.052469 120.787603 
L 319.38901 125.208317 
L 322.169461 128.567597 
L 324.393821 130.811395 
L 325.784047 132.033707 
L 330.788858 135.937307 
L 333.291264 138.649233 
L 336.071714 141.86544 
L 338.57412 145.100852 
L 340.798481 148.344038 
L 343.022841 152.040755 
L 345.525247 156.445155 
L 347.193517 157.663671 
L 348.861788 158.582394 
L 350.808103 159.351762 
L 354.978779 160.653926 
L 364.432312 163.470468 
L 366.378628 163.000803 
L 368.602988 162.248336 
L 371.105394 161.142164 
L 373.885845 159.80439 
L 379.168701 160.45807 
L 383.061332 161.3725 
L 386.119828 162.331261 
L 389.178324 163.331598 
L 391.680729 163.368789 
L 393.070955 163.228834 
L 395.57336 162.622062 
L 398.631856 161.846367 
L 403.914713 160.827096 
L 406.417118 160.589665 
L 410.309749 160.559523 
L 412.256065 160.820995 
L 413.368245 161.030046 
L 415.592606 160.760304 
L 424.768093 158.209166 
L 426.436364 157.414175 
L 426.436364 157.414175 
" clip-path="url(#pc792d53779)" style="fill: none; stroke: #ff00ff; stroke-width: 3; stroke-linecap: square"/>
   </g>
   <g id="patch_3">
    <path d="M 7.2 331.2 
L 7.2 7.2 
" style="fill: none; stroke: #000000; stroke-width: 0.8; stroke-linejoin: miter; stroke-linecap: square"/>
   </g>
   <g id="patch_4">
    <path d="M 446.4 331.2 
L 446.4 7.2 
" style="fill: none; stroke: #000000; stroke-width: 0.8; stroke-linejoin: miter; stroke-linecap: square"/>
   </g>
   <g id="patch_5">
    <path d="M 7.2 331.2 
L 446.4 331.2 
" style="fill: none; stroke: #000000; stroke-width: 0.8; stroke-linejoin: miter; stroke-linecap: square"/>
   </g>
   <g id="patch_6">
    <path d="M 7.2 7.2 
L 446.4 7.2 
" style="fill: none; stroke: #000000; stroke-width: 0.8; stroke-linejoin: miter; stroke-linecap: square"/>
   </g>
  </g>
 </g>
 <defs>
  <clipPath id="pc792d53779">
   <rect x="7.2" y="7.2" width="439.2" height="324"/>
  </clipPath>
 </defs>
</svg>
