<?xml version="1.0" encoding="utf-8" standalone="no"?>
<!DOCTYPE svg PUBLIC "-//W3C//DTD SVG 1.1//EN"
  "http://www.w3.org/Graphics/SVG/1.1/DTD/svg11.dtd">
<svg xmlns:xlink="http://www.w3.org/1999/xlink" width="453.6pt" height="338.4pt" viewBox="0 0 453.6 338.4" xmlns="http://www.w3.org/2000/svg" version="1.1">
 <metadata>
  <rdf:RDF xmlns:dc="http://purl.org/dc/elements/1.1/" xmlns:cc="http://creativecommons.org/ns#" xmlns:rdf="http://www.w3.org/1999/02/22-rdf-syntax-ns#">
   <cc:Work>
    <dc:type rdf:resource="http://purl.org/dc/dcmitype/StillImage"/>
    <dc:date>2025-05-15T17:27:28.078756</dc:date>
    <dc:format>image/svg+xml</dc:format>
    <dc:creator>
     <cc:Agent>
      <dc:title>Matplotlib v3.10.1, https://matplotlib.org/</dc:title>
     </cc:Agent>
    </dc:creator>
   </cc:Work>
  </rdf:RDF>
 </metadata>
 <defs>
  <style type="text/css">*{stroke-linejoin: round; stroke-linecap: butt}</style>
 </defs>
 <g id="figure_1">
  <g id="patch_1">
   <path d="M 0 338.4 
L 453.6 338.4 
L 453.6 0 
L 0 0 
z
" style="fill: #ffffff"/>
  </g>
  <g id="axes_1">
   <g id="patch_2">
    <path d="M 7.2 331.2 
L 446.4 331.2 
L 446.4 7.2 
L 7.2 7.2 
z
" style="fill: #ffffff"/>
   </g>
   <g id="matplotlib.axis_1"/>
   <g id="matplotlib.axis_2"/>
   <g id="line2d_1">
    <path d="M 27.163636 21.927273 
L 27.719727 38.810047 
L 28.275817 49.646544 
L 28.831907 55.678493 
L 29.109952 57.304669 
L 29.387997 58.215569 
L 29.666042 58.556506 
L 29.944087 58.459732 
L 30.222132 58.04324 
L 30.778222 56.647017 
L 31.890403 53.589594 
L 32.446493 52.678695 
L 32.724538 52.483574 
L 33.002583 52.486983 
L 33.280628 52.701512 
L 33.558673 53.135551 
L 34.114763 54.681811 
L 34.670853 57.144238 
L 35.226944 60.529629 
L 36.061079 67.362971 
L 36.895214 76.347724 
L 38.007394 91.557496 
L 39.675665 118.820699 
L 40.787845 136.050872 
L 41.62198 145.843099 
L 42.17807 150.007472 
L 42.456115 151.230818 
L 42.734161 151.827602 
L 43.012206 151.765852 
L 43.290251 151.021273 
L 43.568296 149.5777 
L 44.124386 144.575216 
L 44.680476 136.818649 
L 45.514611 120.563629 
L 46.626792 92.864193 
L 48.295062 50.918504 
L 49.129197 36.19663 
L 49.685287 30.36233 
L 49.963332 28.794518 
L 50.241378 28.154294 
L 50.519423 28.439132 
L 50.797468 29.628074 
L 51.353558 34.546873 
L 51.909648 42.410443 
L 52.743783 58.166645 
L 55.246189 109.544503 
L 56.080324 121.999405 
L 56.914459 131.410116 
L 57.748595 138.508149 
L 58.860775 145.959471 
L 60.251 153.84197 
L 61.085135 157.722603 
L 61.919271 160.514547 
L 62.475361 161.678813 
L 63.031451 162.368842 
L 64.421676 163.611286 
L 64.977767 164.79112 
L 65.533857 166.832597 
L 66.089947 169.910858 
L 66.924082 176.459243 
L 68.036262 187.684981 
L 69.704533 204.731167 
L 71.372803 218.972474 
L 72.484984 229.061007 
L 74.987389 253.962084 
L 75.543479 257.039141 
L 75.821524 257.828566 
L 76.09957 258.058795 
L 76.377615 257.706246 
L 76.65566 256.766927 
L 77.21175 253.213965 
L 77.76784 247.767964 
L 80.270246 219.217711 
L 80.826336 216.15689 
L 81.104381 215.371053 
L 81.382426 215.079575 
L 81.660471 215.262859 
L 81.938516 215.888682 
L 82.494606 218.290647 
L 83.328741 223.955217 
L 85.553102 241.034829 
L 86.387237 245.267247 
L 86.943327 246.985441 
L 87.221372 247.48619 
L 87.499418 247.741464 
L 87.777463 247.7487 
L 88.055508 247.507493 
L 88.333553 247.019117 
L 88.889643 245.315634 
L 89.445733 242.688424 
L 90.279868 237.220513 
L 91.392049 227.844671 
L 95.006635 195.375364 
L 96.118815 187.346475 
L 96.95295 182.821424 
L 97.50904 181.03081 
L 97.787085 180.629481 
L 98.06513 180.611147 
L 98.343175 181.01002 
L 98.621221 181.852446 
L 99.177311 184.915948 
L 99.733401 189.760719 
L 100.567536 199.675409 
L 102.235807 221.078348 
L 102.791897 225.927517 
L 103.347987 228.688229 
L 103.626032 229.22083 
L 103.904077 229.196118 
L 104.182122 228.646625 
L 104.738212 226.202305 
L 105.572347 220.444705 
L 106.406483 214.672739 
L 106.962573 212.186065 
L 107.240618 211.597852 
L 107.518663 211.52008 
L 107.796708 211.9849 
L 108.074753 213.004708 
L 108.630843 216.660143 
L 109.186933 222.206195 
L 110.299114 236.722148 
L 111.411294 251.107364 
L 111.967384 256.621886 
L 112.523474 260.416807 
L 112.801519 261.593172 
L 113.079564 262.272187 
L 113.35761 262.455935 
L 113.635655 262.157269 
L 113.9137 261.399005 
L 114.46979 258.639509 
L 115.02588 254.523916 
L 116.416105 241.410874 
L 117.250241 234.360047 
L 117.806331 231.14503 
L 118.084376 230.157336 
L 118.362421 229.642031 
L 118.640466 229.630754 
L 118.918511 230.142959 
L 119.196556 231.185346 
L 119.752646 234.817761 
L 120.308736 240.305342 
L 121.142872 251.039045 
L 122.811142 273.665199 
L 123.367232 279.215841 
L 123.923322 283.002131 
L 124.201367 284.16604 
L 124.479413 284.832727 
L 124.757458 285.008906 
L 125.035503 284.712374 
L 125.313548 283.97068 
L 125.869638 281.301973 
L 126.425728 277.360378 
L 127.537908 267.323534 
L 128.928134 254.785663 
L 129.762269 249.028396 
L 130.318359 246.261485 
L 130.874449 244.408835 
L 131.430539 243.451599 
L 131.708584 243.289797 
L 131.98663 243.324582 
L 132.264675 243.542759 
L 132.820765 244.471694 
L 133.376855 245.953819 
L 134.21099 248.930204 
L 136.713396 258.857959 
L 137.269486 260.232021 
L 137.825576 260.932862 
L 138.103621 260.986912 
L 138.381666 260.825777 
L 138.659711 260.441173 
L 139.215801 258.991211 
L 139.771892 256.667722 
L 140.606027 251.812115 
L 142.274297 239.730552 
L 143.664523 230.534751 
L 144.498658 226.241132 
L 145.332793 223.064798 
L 145.888883 221.65756 
L 146.444973 220.918405 
L 146.723018 220.833028 
L 147.001064 220.955598 
L 147.279109 221.298217 
L 147.835199 222.677536 
L 148.391289 224.993229 
L 149.225424 230.048307 
L 150.61565 240.944552 
L 152.005875 251.380925 
L 153.118055 257.937523 
L 157.010686 277.603755 
L 157.844821 280.558765 
L 158.400912 281.639299 
L 158.678957 281.880101 
L 158.957002 281.921347 
L 159.235047 281.770548 
L 159.791137 280.948269 
L 160.347227 279.559246 
L 161.181362 276.789593 
L 162.849633 270.215221 
L 163.961813 265.004479 
L 165.073993 258.410604 
L 167.576399 242.287429 
L 168.132489 240.610159 
L 168.410534 240.328695 
L 168.688579 240.472449 
L 168.966624 241.072177 
L 169.24467 242.148956 
L 169.80076 245.764753 
L 170.35685 251.267187 
L 171.190985 262.492973 
L 173.971436 305.069314 
L 174.527526 310.570616 
L 175.083616 314.287037 
L 175.639706 316.181565 
L 175.917751 316.472727 
L 176.195796 316.355026 
L 176.473841 315.85628 
L 177.029932 313.842424 
L 177.586022 310.696792 
L 178.420157 304.416562 
L 179.810382 291.466788 
L 182.312788 267.011302 
L 183.146923 260.763156 
L 183.703013 257.698998 
L 184.259104 255.654684 
L 184.815194 254.646832 
L 185.093239 254.508812 
L 185.371284 254.590363 
L 185.649329 254.866665 
L 186.205419 255.886534 
L 187.039554 258.104392 
L 188.42978 261.827275 
L 189.263915 263.497249 
L 190.932185 266.116234 
L 192.878501 269.032191 
L 193.434591 269.461427 
L 193.990681 269.484875 
L 194.546771 269.024157 
L 195.102861 268.065908 
L 195.936997 265.83167 
L 197.327222 261.007904 
L 198.995493 255.393366 
L 200.663763 249.829528 
L 201.775943 245.162939 
L 203.166169 238.108369 
L 204.556394 231.236808 
L 205.390529 228.119292 
L 205.946619 226.623435 
L 206.50271 225.556121 
L 207.336845 224.475409 
L 208.17098 223.463599 
L 208.72707 222.540719 
L 209.561205 220.625521 
L 210.673386 217.774579 
L 211.229476 216.888213 
L 211.507521 216.742445 
L 211.785566 216.853094 
L 212.063611 217.256223 
L 212.341656 217.978939 
L 212.897746 220.436813 
L 213.453836 224.211468 
L 214.287972 231.834057 
L 216.512332 253.903362 
L 217.624513 261.815521 
L 219.292783 272.765362 
L 220.126918 279.952779 
L 222.629324 304.222037 
L 223.185414 307.181553 
L 223.463459 307.975497 
L 223.741504 308.271248 
L 224.019549 308.056422 
L 224.297594 307.334236 
L 224.853684 304.459376 
L 225.409775 299.974789 
L 226.521955 288.395119 
L 227.634135 277.735338 
L 228.190225 274.200578 
L 228.746316 272.322942 
L 229.024361 272.039463 
L 229.302406 272.184314 
L 229.580451 272.735965 
L 230.136541 274.925047 
L 230.692631 278.266103 
L 231.804811 286.770564 
L 233.195037 297.035353 
L 234.029172 301.477859 
L 234.585262 303.396944 
L 235.141352 304.335637 
L 235.419397 304.398954 
L 235.697442 304.172297 
L 235.975487 303.642949 
L 236.531578 301.639965 
L 237.087668 298.360182 
L 237.921803 291.200618 
L 239.033983 278.538222 
L 241.536389 248.246266 
L 242.926614 234.762043 
L 244.038795 225.852987 
L 245.150975 218.604965 
L 246.5412 211.423783 
L 247.653381 205.321788 
L 248.487516 198.977274 
L 249.321651 190.388258 
L 250.433831 175.938371 
L 252.102102 153.907726 
L 252.936237 145.890425 
L 253.492327 142.254123 
L 254.048417 140.018979 
L 254.326462 139.3974 
L 254.604507 139.080161 
L 254.882553 139.043493 
L 255.160598 139.26186 
L 255.716688 140.35975 
L 256.272778 142.172584 
L 257.106913 145.846007 
L 258.497139 153.292322 
L 260.443454 163.506811 
L 263.779995 179.453437 
L 265.72631 190.052947 
L 266.282401 191.865638 
L 266.560446 192.35008 
L 266.838491 192.505171 
L 267.116536 192.305734 
L 267.394581 191.737942 
L 267.950671 189.507876 
L 268.506761 185.980937 
L 271.009167 167.622237 
L 271.287212 166.799838 
L 271.565257 166.405185 
L 271.843302 166.444214 
L 272.121347 166.905362 
L 272.677437 168.968726 
L 273.233527 172.216215 
L 275.735933 188.858498 
L 277.682249 198.709244 
L 278.516384 204.926157 
L 279.350519 213.113164 
L 281.57488 236.920178 
L 282.13097 240.779209 
L 282.68706 243.058031 
L 282.965105 243.563215 
L 283.24315 243.64535 
L 283.521195 243.317716 
L 283.79924 242.602629 
L 284.35533 240.138497 
L 285.189466 234.481342 
L 287.691871 214.887601 
L 288.247962 211.91819 
L 288.804052 209.847293 
L 289.360142 208.74132 
L 289.638187 208.5557 
L 289.916232 208.611323 
L 290.194277 208.901465 
L 290.750367 210.143598 
L 291.306457 212.17319 
L 292.140593 216.366579 
L 294.642998 230.489619 
L 295.199088 232.124176 
L 295.477133 232.472397 
L 295.755179 232.44269 
L 296.033224 231.98705 
L 296.311269 231.060904 
L 296.867359 227.644996 
L 297.423449 221.977195 
L 297.979539 214.022538 
L 298.813674 198.328777 
L 301.038035 151.722459 
L 301.594125 144.505956 
L 301.87217 142.219266 
L 302.150215 140.908803 
L 302.42826 140.613236 
L 302.706305 141.342914 
L 302.98435 143.078357 
L 303.540441 149.34417 
L 304.096531 158.703215 
L 305.486756 188.34044 
L 306.320891 204.402854 
L 306.876982 212.468006 
L 307.433072 217.964694 
L 307.989162 220.960128 
L 308.267207 221.635435 
L 308.545252 221.855793 
L 308.823297 221.702502 
L 309.379387 220.612563 
L 311.603748 214.606507 
L 312.437883 212.562765 
L 312.993973 210.640652 
L 313.550063 207.957462 
L 314.384199 202.370342 
L 316.608559 185.586284 
L 317.164649 183.478885 
L 317.442694 182.971341 
L 317.720739 182.835514 
L 317.998785 183.058792 
L 318.27683 183.614783 
L 318.83292 185.562943 
L 319.667055 189.775167 
L 320.779235 195.500104 
L 321.61337 198.582311 
L 322.169461 199.915508 
L 322.725551 200.77231 
L 323.281641 201.284634 
L 323.837731 201.546369 
L 324.393821 201.558123 
L 324.949911 201.202082 
L 325.506002 200.252631 
L 326.062092 198.420818 
L 326.618182 195.423 
L 327.174272 191.059381 
L 328.008407 181.89815 
L 329.120587 166.029463 
L 330.510813 145.899985 
L 331.344948 137.17022 
L 331.901038 133.678328 
L 332.179083 132.710304 
L 332.457128 132.26513 
L 332.735173 132.329026 
L 333.013219 132.875289 
L 333.569309 135.249597 
L 334.125399 138.962598 
L 336.627805 158.082494 
L 337.183895 160.611631 
L 338.01803 163.222235 
L 338.852165 165.683709 
L 339.408255 168.121365 
L 339.964345 171.732489 
L 340.520436 176.757551 
L 341.354571 186.749215 
L 343.022841 208.576192 
L 343.578931 213.346444 
L 343.856976 214.823503 
L 344.135022 215.616779 
L 344.413067 215.698997 
L 344.691112 215.071278 
L 344.969157 213.764558 
L 345.525247 209.384512 
L 346.637427 196.841467 
L 347.193517 191.116577 
L 347.749607 187.440674 
L 348.027653 186.697168 
L 348.305698 186.809201 
L 348.583743 187.83373 
L 348.861788 189.795003 
L 349.417878 196.456065 
L 349.973968 206.333752 
L 351.086148 231.952396 
L 352.476374 263.130348 
L 353.310509 276.157393 
L 353.866599 281.850287 
L 354.422689 285.373304 
L 354.978779 287.146334 
L 355.256825 287.529329 
L 355.53487 287.656167 
L 355.812915 287.579778 
L 356.369005 286.989038 
L 356.925095 286.006244 
L 357.75923 283.9857 
L 358.593365 281.192265 
L 359.427501 277.374862 
L 360.539681 270.703524 
L 363.042087 254.56608 
L 363.876222 250.543339 
L 364.710357 247.335868 
L 365.544492 244.769299 
L 366.378628 242.845374 
L 366.934718 242.073222 
L 367.212763 241.901049 
L 367.490808 241.903469 
L 367.768853 242.104276 
L 368.046898 242.525275 
L 368.602988 244.093969 
L 369.159078 246.678621 
L 369.993213 252.290894 
L 372.217574 269.722125 
L 372.773664 272.303034 
L 373.051709 273.088693 
L 373.329754 273.515389 
L 373.607799 273.580906 
L 373.885845 273.295139 
L 374.16389 272.679567 
L 374.71998 270.598919 
L 375.554115 266.09989 
L 376.666295 260.057463 
L 377.222385 258.055993 
L 377.50043 257.463274 
L 377.778476 257.17734 
L 378.056521 257.211136 
L 378.334566 257.567105 
L 378.612611 258.236845 
L 379.168701 260.435654 
L 380.002836 265.349482 
L 381.671107 276.042106 
L 382.227197 278.372319 
L 382.783287 279.585985 
L 383.061332 279.727343 
L 383.339377 279.548696 
L 383.617422 279.051786 
L 384.173512 277.143251 
L 384.729602 274.137385 
L 385.563738 268.038621 
L 388.622233 243.136149 
L 389.456369 238.872844 
L 390.290504 235.933831 
L 391.958774 230.829972 
L 392.514865 228.315605 
L 393.349 223.27538 
L 395.851405 205.966041 
L 396.407496 204.004183 
L 396.685541 203.474812 
L 396.963586 203.246885 
L 397.241631 203.305798 
L 397.519676 203.626255 
L 398.075766 204.907167 
L 399.187946 208.763207 
L 400.022082 211.441211 
L 400.578172 212.726928 
L 401.134262 213.593767 
L 402.802532 215.546898 
L 403.358622 216.893208 
L 403.914713 218.986457 
L 404.470803 221.922192 
L 405.304938 227.756098 
L 407.251253 242.629129 
L 407.807344 245.20446 
L 408.085389 245.951208 
L 408.363434 246.294303 
L 408.641479 246.216126 
L 408.919524 245.712969 
L 409.197569 244.794917 
L 409.753659 241.826186 
L 410.587794 235.302107 
L 411.97802 223.9077 
L 412.53411 221.085441 
L 412.812155 220.323064 
L 413.0902 220.053628 
L 413.368245 220.304825 
L 413.64629 221.089398 
L 414.20238 224.232568 
L 414.75847 229.285537 
L 415.592606 239.51966 
L 417.538921 265.536103 
L 418.373056 273.328553 
L 418.929147 276.655138 
L 419.485237 278.440744 
L 419.763282 278.781682 
L 420.041327 278.779775 
L 420.319372 278.458852 
L 420.875462 276.966547 
L 421.431552 274.531574 
L 422.265688 269.644329 
L 424.212003 257.362245 
L 424.768093 255.044048 
L 425.324183 253.825995 
L 425.602228 253.705344 
L 425.880273 253.938827 
L 426.158319 254.537577 
L 426.436364 255.50156 
L 426.436364 255.50156 
" clip-path="url(#p48d84b37b6)" style="fill: none; stroke-dasharray: 11.1,4.8; stroke-dashoffset: 0; stroke: #000000; stroke-width: 3"/>
   </g>
   <g id="line2d_2">
    <path d="M 27.163636 63.431269 
L 27.997772 65.320445 
L 28.831907 66.700717 
L 29.666042 67.539281 
L 30.222132 67.794054 
L 30.778222 67.794936 
L 31.334312 67.53909 
L 31.890403 67.015763 
L 32.446493 66.229484 
L 33.280628 64.528683 
L 34.114763 62.191663 
L 35.226944 58.432338 
L 35.504989 58.202265 
L 36.061079 57.986044 
L 36.617169 57.564974 
L 37.173259 56.8347 
L 38.285439 54.669794 
L 39.39762 52.006691 
L 40.5098 49.317862 
L 40.787845 49.76921 
L 44.124386 66.761013 
L 46.626792 80.604079 
L 48.851152 94.044481 
L 51.075513 108.832397 
L 52.465738 119.122822 
L 55.524234 146.862955 
L 59.69491 176.212313 
L 61.641226 189.539467 
L 63.309496 199.035293 
L 64.699721 205.870256 
L 66.089947 211.617772 
L 67.202127 215.369062 
L 68.314307 218.323465 
L 69.148443 219.983497 
L 69.982578 221.377407 
L 70.816713 223.372106 
L 71.650848 224.728013 
L 72.206938 225.19884 
L 73.041074 225.25711 
L 73.875209 225.010466 
L 74.709344 224.455763 
L 75.543479 223.595361 
L 76.377615 222.433193 
L 77.489795 220.413317 
L 78.601975 217.854259 
L 80.548291 212.946713 
L 81.660471 211.254471 
L 83.050696 208.653189 
L 84.440922 205.503832 
L 85.831147 201.808403 
L 87.499418 196.652425 
L 88.889643 192.232921 
L 89.723778 189.679442 
L 91.114004 189.295971 
L 92.226184 188.784517 
L 93.338364 188.046065 
L 94.450544 187.03689 
L 95.562725 185.707043 
L 96.674905 184.018973 
L 97.787085 181.930265 
L 98.899266 179.398482 
L 101.401671 183.209449 
L 102.791897 184.961701 
L 104.182122 186.371489 
L 105.016257 187.12253 
L 106.128438 188.534655 
L 106.962573 189.266645 
L 107.240618 189.257204 
L 109.186933 187.945262 
L 110.855204 186.564966 
L 112.245429 185.15315 
L 113.635655 183.437901 
L 115.02588 181.359445 
L 116.416105 178.860921 
L 117.528286 176.716329 
L 118.640466 175.562386 
L 119.752646 174.115095 
L 120.864827 172.34992 
L 122.255052 169.665621 
L 122.811142 168.177822 
L 124.757458 161.665438 
L 125.035503 160.666253 
L 125.313548 160.571792 
L 126.981818 160.97982 
L 128.650089 161.594652 
L 130.318359 162.438508 
L 131.98663 163.533132 
L 133.6549 164.903892 
L 135.32317 166.569074 
L 136.435351 167.923311 
L 137.825576 170.05789 
L 139.215801 172.649135 
L 140.327982 175.145537 
L 141.996252 179.588191 
L 143.664523 184.244278 
L 146.723018 187.682001 
L 148.669334 190.242084 
L 150.337604 192.863155 
L 151.72783 195.448725 
L 153.118055 198.483308 
L 154.508281 201.616381 
L 156.454596 205.674444 
L 160.069182 214.089259 
L 161.737453 218.907994 
L 162.571588 221.379601 
L 164.795948 225.680134 
L 167.298354 230.014714 
L 170.35685 234.820622 
L 171.46903 236.470402 
L 173.137301 237.060582 
L 174.527526 237.384926 
L 175.083616 237.332855 
L 176.473841 236.858499 
L 178.420157 235.918608 
L 179.532337 235.443465 
L 181.200608 235.356776 
L 182.590833 235.502807 
L 183.981058 235.890952 
L 185.371284 236.562742 
L 186.483464 237.335788 
L 187.595644 238.340195 
L 192.600456 243.425195 
L 193.990681 244.126787 
L 194.268726 244.295062 
L 194.546771 244.241108 
L 197.049177 238.304217 
L 203.444214 222.772032 
L 205.390529 218.802804 
L 206.224664 217.425035 
L 207.61489 215.570311 
L 208.72707 214.419325 
L 209.005115 214.184054 
L 209.28316 214.520915 
L 211.507521 222.849828 
L 212.619701 225.931165 
L 213.731881 228.367008 
L 214.844062 230.257829 
L 215.956242 231.706313 
L 217.068422 232.812095 
L 218.458648 233.861992 
L 222.629324 236.655582 
L 224.019549 238.382204 
L 225.409775 241.027355 
L 227.078045 244.39844 
L 227.91218 242.47808 
L 229.858496 238.184961 
L 231.526766 235.069626 
L 232.916992 232.914472 
L 234.307217 231.196838 
L 235.419397 230.158695 
L 236.531578 229.43667 
L 237.365713 229.112517 
L 238.199848 228.983629 
L 239.033983 229.055702 
L 239.868119 229.241358 
L 240.424209 230.144843 
L 243.204659 235.058134 
L 244.594885 237.623797 
L 246.5412 242.672462 
L 248.765561 247.830155 
L 251.267967 253.066646 
L 255.994733 262.289222 
L 257.941048 264.735818 
L 259.331274 266.920989 
L 260.721499 269.51252 
L 261.833679 271.883729 
L 262.111724 272.040727 
L 263.50195 271.909382 
L 264.892175 271.542195 
L 266.282401 270.964962 
L 267.950671 270.032867 
L 269.896987 268.672049 
L 271.565257 267.27473 
L 272.955482 265.829512 
L 274.623753 263.383416 
L 276.570068 260.1267 
L 279.072474 255.455665 
L 279.906609 253.949579 
L 282.13097 250.730723 
L 284.077285 248.268582 
L 287.969916 243.881908 
L 290.194277 241.436051 
L 292.974728 236.964595 
L 297.423449 229.309164 
L 306.876982 211.396496 
L 307.155027 211.134237 
L 308.267207 210.830921 
L 309.379387 210.799045 
L 310.491567 211.045354 
L 311.603748 211.577503 
L 312.715928 212.398757 
L 313.828108 213.510834 
L 317.442694 217.67628 
L 318.83292 219.829527 
L 320.50119 222.872931 
L 323.837731 229.797778 
L 324.949911 231.854418 
L 326.896227 234.620113 
L 329.398633 237.709508 
L 332.735173 241.826841 
L 334.125399 243.898478 
L 335.515624 246.343262 
L 336.90585 249.259804 
L 338.296075 252.739585 
L 339.6863 256.880927 
L 340.520436 259.725133 
L 340.798481 260.08686 
L 342.188706 259.030002 
L 343.300886 257.908675 
L 346.359382 253.585801 
L 348.583743 250.079604 
L 349.417878 248.860478 
L 351.642239 246.198209 
L 353.588554 243.516914 
L 355.256825 240.828538 
L 356.369005 238.822323 
L 356.64705 238.657767 
L 358.87141 239.136415 
L 360.261636 239.255695 
L 361.651861 239.146548 
L 362.764042 238.843232 
L 363.876222 238.303478 
L 364.988402 237.482558 
L 365.266447 237.252008 
L 366.378628 238.173278 
L 369.159078 245.310007 
L 372.495619 253.906569 
L 374.998025 258.243318 
L 377.50043 262.153872 
L 380.002836 265.648505 
L 382.505242 268.741572 
L 383.339377 269.84199 
L 383.895467 271.05072 
L 384.451557 271.44709 
L 385.563738 271.899798 
L 386.675918 272.082498 
L 387.510053 272.04683 
L 387.788098 271.903136 
L 388.622233 270.852333 
L 390.012459 268.706238 
L 391.402684 266.166063 
L 393.070955 262.674552 
L 395.295315 257.4244 
L 398.075766 250.232096 
L 403.914713 234.855908 
L 405.304938 231.652693 
L 406.973208 227.111214 
L 408.919524 221.081101 
L 411.699975 211.606423 
L 417.816966 190.427335 
L 419.207192 186.269161 
L 419.763282 185.621022 
L 422.265688 183.406787 
L 425.046138 181.251323 
L 426.436364 180.254307 
L 426.436364 180.254307 
" clip-path="url(#p48d84b37b6)" style="fill: none; stroke: #ff00ff; stroke-width: 3; stroke-linecap: square"/>
   </g>
   <g id="patch_3">
    <path d="M 7.2 331.2 
L 7.2 7.2 
" style="fill: none; stroke: #000000; stroke-width: 0.8; stroke-linejoin: miter; stroke-linecap: square"/>
   </g>
   <g id="patch_4">
    <path d="M 446.4 331.2 
L 446.4 7.2 
" style="fill: none; stroke: #000000; stroke-width: 0.8; stroke-linejoin: miter; stroke-linecap: square"/>
   </g>
   <g id="patch_5">
    <path d="M 7.2 331.2 
L 446.4 331.2 
" style="fill: none; stroke: #000000; stroke-width: 0.8; stroke-linejoin: miter; stroke-linecap: square"/>
   </g>
   <g id="patch_6">
    <path d="M 7.2 7.2 
L 446.4 7.2 
" style="fill: none; stroke: #000000; stroke-width: 0.8; stroke-linejoin: miter; stroke-linecap: square"/>
   </g>
  </g>
 </g>
 <defs>
  <clipPath id="p48d84b37b6">
   <rect x="7.2" y="7.2" width="439.2" height="324"/>
  </clipPath>
 </defs>
</svg>
