<?xml version="1.0" encoding="utf-8" standalone="no"?>
<!DOCTYPE svg PUBLIC "-//W3C//DTD SVG 1.1//EN"
  "http://www.w3.org/Graphics/SVG/1.1/DTD/svg11.dtd">
<svg xmlns:xlink="http://www.w3.org/1999/xlink" width="453.6pt" height="338.4pt" viewBox="0 0 453.6 338.4" xmlns="http://www.w3.org/2000/svg" version="1.1">
 <metadata>
  <rdf:RDF xmlns:dc="http://purl.org/dc/elements/1.1/" xmlns:cc="http://creativecommons.org/ns#" xmlns:rdf="http://www.w3.org/1999/02/22-rdf-syntax-ns#">
   <cc:Work>
    <dc:type rdf:resource="http://purl.org/dc/dcmitype/StillImage"/>
    <dc:date>2025-05-15T09:28:11.377141</dc:date>
    <dc:format>image/svg+xml</dc:format>
    <dc:creator>
     <cc:Agent>
      <dc:title>Matplotlib v3.10.1, https://matplotlib.org/</dc:title>
     </cc:Agent>
    </dc:creator>
   </cc:Work>
  </rdf:RDF>
 </metadata>
 <defs>
  <style type="text/css">*{stroke-linejoin: round; stroke-linecap: butt}</style>
 </defs>
 <g id="figure_1">
  <g id="patch_1">
   <path d="M 0 338.4 
L 453.6 338.4 
L 453.6 0 
L 0 0 
z
" style="fill: #ffffff"/>
  </g>
  <g id="axes_1">
   <g id="patch_2">
    <path d="M 7.2 331.2 
L 446.4 331.2 
L 446.4 7.2 
L 7.2 7.2 
z
" style="fill: #ffffff"/>
   </g>
   <g id="matplotlib.axis_1"/>
   <g id="matplotlib.axis_2"/>
   <g id="line2d_1">
    <path d="M 27.163636 66.704716 
L 27.429818 58.121101 
L 27.696 59.008518 
L 28.760727 67.307124 
L 29.026909 68.132322 
L 29.293091 68.464504 
L 30.091636 72.689387 
L 30.624 78.260538 
L 31.156364 85.871922 
L 31.422545 97.973323 
L 31.954909 101.670306 
L 32.487273 103.360221 
L 33.019636 103.257499 
L 33.285818 103.114064 
L 33.552 105.891134 
L 34.350545 110.010908 
L 35.149091 119.236854 
L 35.415273 121.229176 
L 35.681455 131.340959 
L 36.746182 139.780262 
L 37.012364 140.382161 
L 37.544727 139.901137 
L 37.810909 139.998153 
L 38.077091 141.17732 
L 38.343273 143.489921 
L 38.609455 146.82226 
L 39.674182 169.675082 
L 39.940364 176.885655 
L 40.206545 180.570103 
L 40.472727 182.618649 
L 40.738909 182.172948 
L 41.005091 179.599312 
L 41.537455 169.085217 
L 42.336 153.935168 
L 43.933091 129.972781 
L 44.997818 120.050974 
L 46.594909 112.224368 
L 47.127273 110.034925 
L 47.393455 112.150368 
L 47.925818 113.84497 
L 48.192 114.181191 
L 48.458182 116.495547 
L 48.724364 116.064365 
L 48.990545 115.362868 
L 49.789091 110.748833 
L 50.587636 104.887951 
L 51.386182 98.414354 
L 51.652364 98.470219 
L 51.918545 97.583082 
L 52.184727 97.393984 
L 52.450909 96.006915 
L 52.717091 102.146011 
L 53.515636 97.197055 
L 54.580364 93.60483 
L 54.846545 93.863328 
L 55.378909 96.780216 
L 55.645091 96.614924 
L 56.709818 104.1617 
L 56.976 109.096436 
L 57.508364 108.964343 
L 58.040727 107.294126 
L 58.573091 102.417115 
L 59.904 82.707754 
L 60.170182 81.670512 
L 60.702545 78.333643 
L 60.968727 75.575235 
L 61.234909 63.021391 
L 62.299636 53.424955 
L 62.565818 52.964576 
L 63.098182 55.26724 
L 63.630545 59.16591 
L 63.896727 60.395745 
L 64.429091 61.739432 
L 64.961455 61.594013 
L 65.227636 61.018238 
L 65.493818 62.027127 
L 66.026182 58.523789 
L 66.558545 54.586636 
L 66.824727 53.389807 
L 67.090909 53.073513 
L 67.357091 53.087611 
L 67.623273 54.714674 
L 68.155636 55.85994 
L 68.421818 55.844824 
L 68.688 56.399515 
L 68.954182 56.276796 
L 69.486545 56.576886 
L 69.752727 60.31725 
L 70.018909 61.132775 
L 70.551273 64.877757 
L 71.083636 70.880546 
L 71.616 81.770916 
L 72.148364 96.396032 
L 72.414545 99.732392 
L 72.946909 101.152396 
L 73.479273 96.908553 
L 73.745455 93.764943 
L 74.011636 94.02755 
L 74.277818 91.941636 
L 74.544 91.6972 
L 74.810182 92.641798 
L 75.874909 103.488751 
L 76.141091 107.164227 
L 76.673455 110.259838 
L 76.939636 110.988213 
L 77.738182 117.249273 
L 78.802909 130.070148 
L 79.335273 132.756908 
L 80.133818 134.645735 
L 80.4 135.046282 
L 80.666182 135.079937 
L 80.932364 134.78917 
L 82.529455 131.809536 
L 82.795636 131.906903 
L 83.328 132.803555 
L 83.860364 133.642131 
L 84.392727 133.906721 
L 85.457455 133.846433 
L 86.788364 135.792529 
L 87.586909 135.851939 
L 88.385455 136.172271 
L 88.917818 136.069707 
L 89.184 135.73203 
L 89.716364 134.577002 
L 89.982545 134.46861 
L 90.248727 134.808605 
L 90.781091 137.158337 
L 91.313455 140.266026 
L 91.579636 140.854267 
L 91.845818 140.666134 
L 93.442909 137.885571 
L 93.709091 137.555478 
L 94.241455 135.788526 
L 94.773818 133.052433 
L 95.04 132.752027 
L 95.306182 110.485699 
L 95.838545 110.047899 
L 96.104727 110.230923 
L 97.435636 113.120159 
L 98.234182 118.139639 
L 98.766545 124.672997 
L 99.565091 137.603195 
L 100.097455 142.627293 
L 100.363636 144.481008 
L 100.629818 147.475652 
L 101.162182 157.516561 
L 101.428364 159.721225 
L 103.025455 163.809134 
L 103.557818 165.342271 
L 103.824 165.543607 
L 104.622545 167.367142 
L 104.888727 168.217551 
L 105.421091 172.397393 
L 106.485818 176.373214 
L 106.752 177.108524 
L 107.018182 177.290986 
L 107.816727 177.100851 
L 108.082909 176.427305 
L 108.349091 176.50924 
L 108.615273 176.934435 
L 109.147636 178.168045 
L 109.413818 178.462683 
L 109.946182 177.081311 
L 110.212364 175.992471 
L 110.478545 175.773825 
L 110.744727 175.900959 
L 111.010909 176.183036 
L 111.277091 176.75336 
L 112.075636 179.339979 
L 112.341818 177.461703 
L 113.140364 175.358751 
L 115.269818 167.077762 
L 115.536 166.323825 
L 115.802182 165.913553 
L 116.068364 165.78476 
L 116.334545 165.785269 
L 116.866909 164.951592 
L 117.399273 162.637815 
L 117.665455 160.922654 
L 117.931636 158.000342 
L 118.996364 137.357495 
L 119.262545 135.8163 
L 119.528727 135.339665 
L 119.794909 136.274115 
L 120.061091 138.580255 
L 120.859636 152.958583 
L 121.125818 158.602346 
L 121.392 168.090794 
L 121.658182 185.492006 
L 121.924364 194.156046 
L 122.456727 198.664884 
L 122.989091 203.136372 
L 123.521455 210.943297 
L 124.053818 219.502597 
L 124.586182 224.723631 
L 124.852364 226.071594 
L 125.118545 226.652303 
L 125.384727 226.923802 
L 125.650909 226.716848 
L 126.183273 225.745451 
L 126.449455 225.550339 
L 126.715636 225.619133 
L 127.248 226.972687 
L 128.046545 231.316172 
L 129.111273 235.36206 
L 129.377455 226.48277 
L 129.643636 226.433209 
L 129.909818 226.231891 
L 130.442182 225.300961 
L 130.974545 223.531262 
L 131.773091 220.415084 
L 132.305455 218.774933 
L 132.571636 217.716166 
L 132.837818 217.123001 
L 133.104 216.942584 
L 133.636364 217.091663 
L 134.701091 217.907231 
L 134.967273 217.899313 
L 135.233455 217.742922 
L 135.765818 218.565065 
L 136.032 219.760911 
L 136.298182 220.373757 
L 136.564364 220.248133 
L 136.830545 219.45853 
L 137.362909 216.545347 
L 137.629091 213.915504 
L 137.895273 206.483529 
L 138.427636 199.357392 
L 138.96 192.752141 
L 139.492364 184.871347 
L 140.024727 180.846457 
L 141.089455 177.763294 
L 141.888 175.924721 
L 142.686545 175.298173 
L 142.952727 175.258619 
L 143.218909 175.461613 
L 143.485091 175.954822 
L 143.751273 176.97212 
L 144.017455 179.444149 
L 144.816 196.999408 
L 145.348364 202.413703 
L 145.880727 207.81397 
L 146.146909 212.18909 
L 146.413091 212.879473 
L 146.945455 232.797535 
L 148.010182 250.995564 
L 148.808727 260.599265 
L 149.341091 264.262685 
L 150.405818 267.954169 
L 151.736727 272.274584 
L 152.269091 274.385959 
L 152.535273 275.984436 
L 152.801455 276.09221 
L 153.6 277.069033 
L 153.866182 276.907673 
L 154.132364 276.933011 
L 154.398545 276.780921 
L 154.664727 278.681124 
L 154.930909 278.334002 
L 155.729455 283.196744 
L 156.528 285.182365 
L 157.060364 286.833524 
L 157.592727 287.849892 
L 158.125091 288.164788 
L 159.722182 288.694292 
L 160.786909 289.413492 
L 161.053091 289.478301 
L 161.319273 289.392042 
L 162.384 289.458772 
L 163.182545 289.201484 
L 163.448727 288.822521 
L 164.247273 288.893238 
L 165.578182 288.995593 
L 166.376727 289.127928 
L 166.642909 289.267891 
L 167.175273 290.04534 
L 167.973818 291.233986 
L 168.24 291.545994 
L 168.506182 291.653535 
L 168.772364 291.520528 
L 169.304727 290.812047 
L 169.837091 289.635162 
L 171.966545 284.347345 
L 172.498909 283.89774 
L 172.765091 283.54206 
L 173.031273 282.816802 
L 173.563636 280.460306 
L 173.829818 278.913956 
L 174.096 276.493889 
L 174.628364 269.769769 
L 174.894545 268.685309 
L 175.160727 268.242333 
L 175.959273 267.733271 
L 176.491636 267.563221 
L 177.290182 267.399443 
L 177.822545 267.008206 
L 178.088727 266.572503 
L 178.621091 264.802861 
L 179.685818 259.981635 
L 179.952 259.424294 
L 180.218182 259.213149 
L 180.484364 256.497184 
L 180.750545 256.756661 
L 181.282909 257.925624 
L 181.549091 258.245938 
L 181.815273 258.177201 
L 182.347636 256.949355 
L 183.146182 254.096947 
L 183.678545 252.192385 
L 183.944727 252.309283 
L 184.210909 252.873287 
L 184.743273 254.467827 
L 185.541818 259.845517 
L 185.808 260.242214 
L 186.074182 259.761076 
L 186.606545 257.586323 
L 187.138909 254.551953 
L 187.937455 250.730601 
L 188.469818 248.751038 
L 188.736 248.233751 
L 189.002182 246.171802 
L 189.800727 247.141391 
L 190.066909 246.597081 
L 190.333091 245.409829 
L 191.397818 237.822431 
L 191.664 236.838384 
L 191.930182 236.57066 
L 192.196364 236.870574 
L 192.728727 238.313173 
L 192.994909 238.309715 
L 193.793455 234.829841 
L 194.325818 230.951247 
L 194.858182 227.367949 
L 195.656727 224.561701 
L 196.721455 223.077441 
L 196.987636 222.815255 
L 197.253818 222.365033 
L 197.52 220.652603 
L 198.052364 219.33274 
L 198.318545 217.487136 
L 199.383273 204.612038 
L 199.915636 201.143041 
L 200.448 198.160545 
L 201.246545 190.988718 
L 202.045091 182.327847 
L 202.311273 180.510675 
L 202.577455 177.466083 
L 203.376 164.96978 
L 203.908364 161.269566 
L 205.239273 155.804438 
L 205.505455 154.040699 
L 207.102545 139.120848 
L 207.634909 137.405687 
L 208.167273 135.979082 
L 209.498182 131.342065 
L 210.030545 130.499855 
L 210.562909 130.180384 
L 211.361455 130.086388 
L 211.893818 129.91237 
L 212.958545 129.937247 
L 213.757091 130.16985 
L 214.289455 130.687462 
L 214.821818 131.808026 
L 215.354182 133.942782 
L 215.886545 136.171112 
L 216.418909 137.867874 
L 216.685091 139.363405 
L 216.951273 141.88396 
L 217.483636 151.241614 
L 218.282182 176.188978 
L 218.814545 180.558543 
L 219.346909 183.13203 
L 219.613091 183.733894 
L 220.411636 184.437365 
L 220.677818 185.428856 
L 220.944 186.885342 
L 222.008727 195.237285 
L 222.274909 195.701394 
L 222.541091 195.669371 
L 223.073455 195.245132 
L 223.339636 195.360723 
L 223.872 196.702672 
L 224.404364 198.424082 
L 225.469091 201.729271 
L 225.735273 202.229818 
L 226.001455 202.030984 
L 226.533818 199.204327 
L 227.066182 195.098327 
L 227.598545 191.136244 
L 227.864727 190.007349 
L 228.130909 189.493239 
L 228.397091 189.263814 
L 228.663273 189.544741 
L 228.929455 190.166128 
L 229.461818 193.471141 
L 229.994182 196.593454 
L 230.260364 197.077139 
L 230.792727 196.393576 
L 231.058909 196.317189 
L 231.591273 196.595658 
L 231.857455 196.819193 
L 232.389818 197.878231 
L 232.656 197.829846 
L 233.188364 197.185707 
L 233.720727 197.333934 
L 233.986909 197.14696 
L 234.253091 196.503979 
L 235.051636 191.926926 
L 235.850182 186.385427 
L 236.648727 182.998444 
L 237.181091 181.851668 
L 237.713455 180.84306 
L 238.245818 177.99616 
L 238.778182 174.931852 
L 239.576727 171.726901 
L 239.842909 169.314976 
L 240.641455 158.076079 
L 241.173818 154.768371 
L 241.972364 152.347115 
L 242.770909 149.59178 
L 243.303273 147.229021 
L 243.569455 147.225896 
L 243.835636 146.755739 
L 244.101818 146.820048 
L 244.368 147.522861 
L 244.634182 148.672112 
L 245.166545 154.699639 
L 245.698909 161.211683 
L 246.231273 165.582073 
L 246.763636 167.582259 
L 247.029818 167.893936 
L 247.296 167.709771 
L 247.562182 167.300797 
L 247.828364 167.287454 
L 248.360727 166.124755 
L 248.626909 166.213203 
L 248.893091 166.877989 
L 250.490182 175.993428 
L 251.288727 182.501478 
L 252.087273 188.21818 
L 252.619636 190.247712 
L 253.418182 191.342021 
L 253.950545 193.087668 
L 255.813818 200.831856 
L 256.08 201.066293 
L 256.346182 202.477335 
L 256.612364 202.170899 
L 256.878545 201.195262 
L 257.144727 199.255715 
L 257.410909 196.269971 
L 258.475636 178.586402 
L 259.274182 171.643614 
L 259.806545 165.041585 
L 260.605091 152.772802 
L 261.137455 146.453157 
L 261.669818 142.482313 
L 261.936 141.251372 
L 262.202182 140.582022 
L 262.468364 140.516923 
L 262.734545 140.938063 
L 263.000727 141.810891 
L 264.065455 146.914729 
L 264.331636 147.493577 
L 264.597818 146.792923 
L 264.864 148.769585 
L 265.662545 146.912447 
L 265.928727 146.24436 
L 266.194909 146.135687 
L 266.461091 146.257036 
L 266.727273 146.542817 
L 266.993455 147.815857 
L 267.259636 151.216508 
L 267.792 161.255486 
L 268.058182 164.331399 
L 268.324364 165.904634 
L 268.590545 166.138642 
L 268.856727 165.673892 
L 269.122909 167.963687 
L 269.655273 167.346303 
L 269.921455 166.646334 
L 270.187636 165.403982 
L 270.72 164.569163 
L 270.986182 164.52443 
L 271.252364 164.231574 
L 271.518545 164.118213 
L 271.784727 163.43961 
L 272.050909 161.16558 
L 272.583273 152.396694 
L 273.115636 139.91325 
L 273.381818 139.701978 
L 274.446545 109.384535 
L 274.712727 107.236085 
L 274.978909 106.237432 
L 275.245091 105.896296 
L 275.511273 106.119804 
L 276.309818 107.901345 
L 276.842182 108.411162 
L 277.374545 108.112776 
L 277.640727 108.895908 
L 277.906909 108.883988 
L 278.173091 108.994733 
L 278.439273 108.950298 
L 278.705455 108.378332 
L 278.971636 108.072273 
L 280.036364 105.536989 
L 280.302545 105.214287 
L 280.834909 104.944605 
L 281.367273 105.35328 
L 281.633455 106.215293 
L 282.165818 111.550365 
L 282.698182 114.31762 
L 282.964364 115.090184 
L 284.029091 120.574537 
L 284.561455 122.32711 
L 285.093818 122.116803 
L 285.36 122.704675 
L 285.626182 124.11634 
L 285.892364 127.576735 
L 286.957091 165.85955 
L 287.223273 169.984546 
L 287.489455 172.075393 
L 287.755636 173.206421 
L 288.021818 177.025 
L 288.288 182.862462 
L 289.086545 211.653466 
L 289.618909 217.002758 
L 289.885091 218.767849 
L 290.151273 219.725868 
L 290.417455 221.439545 
L 290.683636 221.129194 
L 290.949818 220.29923 
L 291.216 218.786529 
L 291.482182 214.081806 
L 292.014545 184.472083 
L 292.280727 173.722313 
L 293.079273 119.454131 
L 293.611636 101.028941 
L 293.877818 95.55061 
L 294.144 94.121388 
L 294.410182 93.718208 
L 295.474909 93.611255 
L 295.741091 93.554356 
L 296.007273 93.84033 
L 296.273455 94.738702 
L 296.539636 96.678846 
L 296.805818 99.963871 
L 297.338182 112.639872 
L 297.870545 128.607938 
L 298.402909 144.185079 
L 298.935273 154.143087 
L 299.201455 152.429507 
L 300 139.147955 
L 300.266182 137.963503 
L 300.532364 140.305581 
L 301.064727 151.270231 
L 302.129455 185.9226 
L 302.661818 201.608545 
L 303.194182 216.055913 
L 303.460364 218.242302 
L 303.726545 219.175119 
L 303.992727 219.588464 
L 304.791273 219.990345 
L 306.388364 220.413065 
L 306.654545 220.30383 
L 306.920727 220.063028 
L 307.186909 219.576315 
L 307.453091 219.558566 
L 307.719273 218.087956 
L 307.985455 212.904711 
L 308.784 174.060956 
L 309.316364 161.153835 
L 309.582545 158.284279 
L 309.848727 157.693317 
L 310.114909 158.368251 
L 311.712 164.66488 
L 311.978182 164.646235 
L 312.244364 164.023619 
L 312.510545 162.561111 
L 313.841455 150.192732 
L 314.107636 149.421239 
L 314.373818 149.334177 
L 314.64 149.08472 
L 315.704727 144.945828 
L 315.970909 146.245835 
L 316.237091 145.575273 
L 317.301818 141.70773 
L 317.568 141.78266 
L 317.834182 142.253344 
L 318.100364 142.971431 
L 318.632727 146.212337 
L 319.165091 148.840863 
L 319.431273 149.588761 
L 319.963636 149.959075 
L 321.028364 154.653378 
L 321.294545 155.698345 
L 321.826909 160.90336 
L 323.157818 174.274616 
L 323.424 175.954585 
L 323.690182 176.815702 
L 323.956364 176.921856 
L 324.222545 176.616447 
L 324.488727 178.305914 
L 324.754909 174.258253 
L 326.085818 140.277016 
L 326.618182 134.37967 
L 327.150545 130.829475 
L 327.416727 128.39865 
L 327.949091 118.048838 
L 328.747636 99.959956 
L 329.013818 97.930258 
L 329.28 97.455834 
L 329.546182 98.505296 
L 329.812364 100.103918 
L 330.344727 109.405374 
L 330.610909 114.58121 
L 331.143273 120.26674 
L 331.409455 121.741292 
L 331.675636 122.538804 
L 331.941818 121.658514 
L 332.208 119.886507 
L 333.006545 109.414135 
L 333.272727 108.429614 
L 333.538909 108.792379 
L 333.805091 110.025918 
L 334.071273 112.545718 
L 334.869818 124.417869 
L 335.402182 128.830043 
L 335.934545 131.479127 
L 336.733091 133.339302 
L 337.265455 136.004837 
L 337.797818 139.747519 
L 338.064 142.884545 
L 339.128727 161.348517 
L 339.394909 161.537528 
L 339.661091 159.925493 
L 340.725818 143.15672 
L 341.258182 139.27113 
L 341.790545 138.314207 
L 342.056727 138.495283 
L 342.322909 139.87561 
L 342.855273 146.482037 
L 343.653818 156.755707 
L 344.186182 160.024668 
L 344.718545 164.306644 
L 345.250909 170.60107 
L 346.315636 185.441172 
L 346.581818 187.408493 
L 346.848 188.299939 
L 347.114182 188.64255 
L 347.380364 188.260991 
L 347.646545 187.335994 
L 348.178909 183.337499 
L 348.711273 178.565844 
L 348.977455 176.893029 
L 349.243636 176.087319 
L 349.509818 175.6513 
L 350.042182 176.533529 
L 350.574545 179.578534 
L 351.106909 180.899029 
L 351.373091 181.379922 
L 351.905455 179.570668 
L 352.171636 178.461393 
L 353.236364 176.663489 
L 353.768727 175.152394 
L 354.034909 175.308531 
L 354.301091 175.261735 
L 354.833455 177.749591 
L 355.365818 184.253252 
L 355.632 187.622311 
L 355.898182 188.712793 
L 356.164364 188.243513 
L 356.696727 186.255563 
L 356.962909 185.649503 
L 357.229091 185.822678 
L 357.495273 186.401333 
L 358.027636 187.909909 
L 358.293818 188.312492 
L 358.56 193.083963 
L 358.826182 191.567241 
L 359.358545 187.152715 
L 359.890909 184.34638 
L 360.955636 179.225793 
L 361.488 176.451884 
L 361.754182 175.591608 
L 362.020364 175.465124 
L 362.286545 175.53441 
L 362.552727 176.553139 
L 362.818909 174.889094 
L 364.149818 187.352199 
L 364.416 188.213229 
L 364.682182 188.486501 
L 364.948364 188.174254 
L 365.214545 188.063948 
L 365.480727 188.161833 
L 365.746909 188.397017 
L 366.279273 188.459815 
L 366.545455 188.209419 
L 366.811636 188.391732 
L 367.077818 185.806421 
L 367.610182 187.298046 
L 367.876364 188.668542 
L 368.408727 192.634444 
L 368.941091 194.692259 
L 369.473455 196.846098 
L 370.272 200.956733 
L 370.538182 201.42747 
L 371.070545 200.42103 
L 371.336727 198.152048 
L 371.602909 198.651963 
L 371.869091 199.872765 
L 372.401455 204.947293 
L 372.933818 211.169887 
L 373.2 212.806869 
L 373.466182 212.846257 
L 373.732364 211.68311 
L 373.998545 209.235914 
L 375.329455 192.18359 
L 375.595636 180.55741 
L 375.861818 180.526775 
L 376.128 181.448146 
L 376.660364 186.037637 
L 377.725091 196.444516 
L 378.257455 199.524194 
L 378.523636 200.216034 
L 378.789818 200.090024 
L 379.588364 197.837957 
L 379.854545 195.5619 
L 380.386909 194.666126 
L 380.919273 193.944669 
L 381.185455 193.025167 
L 381.717818 188.916042 
L 381.984 186.820674 
L 382.516364 185.034998 
L 383.847273 181.74252 
L 384.113455 175.692952 
L 384.645818 171.710548 
L 384.912 170.54 
L 385.178182 170.388718 
L 385.976727 173.647207 
L 389.703273 196.564741 
L 391.300364 215.075772 
L 391.566545 215.371499 
L 391.832727 214.186336 
L 392.098909 211.777466 
L 392.897455 207.871308 
L 393.163636 207.260666 
L 393.429818 207.183875 
L 393.696 207.730454 
L 394.494545 213.180204 
L 395.293091 215.827901 
L 395.559273 216.067974 
L 395.825455 215.222359 
L 396.091636 213.587272 
L 397.422545 199.139711 
L 397.954909 197.634937 
L 398.753455 196.703365 
L 399.285818 194.91934 
L 400.084364 192.001786 
L 400.616727 191.047865 
L 400.882909 190.957951 
L 401.149091 187.399697 
L 401.415273 187.101363 
L 401.681455 186.979812 
L 401.947636 187.173511 
L 402.48 189.138155 
L 402.746182 189.537701 
L 403.012364 189.344143 
L 403.278545 188.948126 
L 403.544727 187.814183 
L 404.077091 183.431636 
L 404.343273 179.305815 
L 404.875636 165.99763 
L 405.141818 159.102261 
L 405.408 144.277723 
L 405.674182 140.893769 
L 405.940364 139.020654 
L 406.206545 138.051021 
L 406.738909 137.660868 
L 407.271273 137.159706 
L 407.803636 137.364413 
L 408.336 138.108974 
L 408.602182 138.271142 
L 408.868364 138.940229 
L 409.134545 140.20235 
L 409.400727 142.854998 
L 409.666909 162.0787 
L 410.199273 166.461326 
L 410.731636 172.227843 
L 410.997818 176.203296 
L 411.530182 193.664549 
L 412.062545 202.341318 
L 413.393455 217.420931 
L 413.659636 221.601757 
L 413.925818 215.369805 
L 414.990545 227.570312 
L 415.256727 228.49565 
L 415.789091 228.739823 
L 416.055273 229.737318 
L 416.321455 229.972256 
L 416.587636 230.392088 
L 417.12 233.796716 
L 417.918545 242.144831 
L 418.184727 229.6868 
L 418.983273 237.476011 
L 419.249455 240.181969 
L 419.515636 241.365894 
L 420.048 242.09972 
L 420.314182 243.05946 
L 420.846545 243.50679 
L 421.378909 245.509662 
L 422.177455 249.078669 
L 422.443636 245.753352 
L 422.976 248.729677 
L 424.306909 254.709569 
L 425.105455 260.271674 
L 425.637818 263.588546 
L 425.904 264.728177 
L 426.170182 264.236008 
L 426.436364 258.259452 
L 426.436364 258.259452 
" clip-path="url(#p7f94fae50d)" style="fill: none; stroke: #ffa500; stroke-width: 3; stroke-linecap: square"/>
   </g>
   <g id="line2d_2">
    <path d="M 27.163636 105.451735 
L 27.429818 279.915252 
L 27.696 307.667579 
L 27.962182 312.09682 
L 28.228364 313.02902 
L 28.494545 313.343362 
L 28.760727 313.452453 
L 30.091636 313.426271 
L 30.624 313.584654 
L 31.954909 314.167925 
L 32.753455 314.16033 
L 33.818182 313.936007 
L 34.616727 313.879442 
L 35.149091 314.155158 
L 35.415273 314.383359 
L 35.681455 315.275801 
L 36.48 316.138021 
L 37.012364 316.401293 
L 37.544727 316.450101 
L 38.609455 315.990789 
L 39.674182 315.309579 
L 39.940364 315.032408 
L 40.738909 314.807116 
L 41.537455 314.168249 
L 42.069818 313.134393 
L 43.400727 310.197997 
L 43.933091 309.340949 
L 44.199273 308.611254 
L 44.997818 308.25877 
L 45.530182 307.405439 
L 46.328727 305.822736 
L 46.861091 305.325445 
L 47.393455 305.158496 
L 48.192 305.447949 
L 48.458182 305.332717 
L 48.990545 305.946049 
L 49.522909 306.568916 
L 50.055273 306.919299 
L 50.587636 307.0195 
L 51.12 307.027258 
L 51.652364 306.724067 
L 52.184727 306.353806 
L 52.450909 305.942817 
L 52.717091 305.107263 
L 53.515636 304.340235 
L 54.314182 303.509531 
L 55.112727 303.094824 
L 55.911273 302.951309 
L 59.105455 302.886017 
L 61.767273 302.89539 
L 74.011636 303.093208 
L 74.810182 303.287794 
L 75.874909 303.110663 
L 76.939636 302.963916 
L 80.133818 302.833491 
L 83.061818 302.875674 
L 85.989818 303.022582 
L 93.176727 302.783876 
L 97.701818 302.690624 
L 99.831273 302.511392 
L 100.896 302.363837 
L 102.493091 302.079231 
L 103.025455 301.840364 
L 103.557818 301.347112 
L 103.824 301.750181 
L 104.622545 301.228809 
L 105.421091 301.395759 
L 106.219636 301.807233 
L 107.018182 301.85911 
L 107.550545 301.607151 
L 107.816727 301.434062 
L 108.082909 301.68392 
L 108.881455 301.151072 
L 110.478545 301.667597 
L 112.075636 301.674222 
L 112.341818 301.929576 
L 113.140364 301.882707 
L 114.737455 302.437371 
L 116.068364 302.561816 
L 118.464 302.661209 
L 119.794909 302.732805 
L 124.586182 302.552927 
L 126.183273 302.371432 
L 128.578909 302.593978 
L 129.111273 302.53919 
L 129.377455 302.774179 
L 131.773091 302.777735 
L 137.629091 302.929491 
L 137.895273 303.265329 
L 138.427636 303.123754 
L 138.693818 303.296521 
L 140.290909 306.150978 
L 140.823273 306.79841 
L 141.089455 306.997036 
L 141.355636 306.980389 
L 141.621818 306.792916 
L 142.154182 305.932958 
L 142.686545 303.034704 
L 142.952727 302.68222 
L 144.017455 305.95413 
L 144.549818 306.978612 
L 145.082182 307.304268 
L 145.348364 307.372146 
L 146.146909 307.168349 
L 146.413091 307.511782 
L 147.477818 305.17191 
L 148.542545 304.265892 
L 149.341091 303.325611 
L 149.873455 303.051673 
L 150.405818 302.58121 
L 150.672 302.539028 
L 152.535273 298.754473 
L 153.333818 298.212899 
L 153.6 298.036738 
L 153.866182 298.072778 
L 154.132364 297.893062 
L 154.398545 297.401912 
L 154.664727 296.618722 
L 154.930909 296.302116 
L 155.463273 291.871906 
L 155.995636 286.368406 
L 156.528 282.767447 
L 157.060364 281.468701 
L 157.858909 279.140305 
L 158.125091 277.869845 
L 158.657455 272.473172 
L 159.456 262.264877 
L 159.722182 260.838294 
L 159.988364 260.631424 
L 160.254545 261.052757 
L 160.520727 262.136229 
L 161.053091 266.80644 
L 161.585455 271.519638 
L 163.182545 280.062968 
L 163.448727 283.603161 
L 164.513455 287.975027 
L 165.578182 292.12936 
L 166.110545 293.172912 
L 166.909091 294.067617 
L 167.175273 294.261232 
L 167.441455 294.29 
L 167.707636 294.11287 
L 168.772364 292.541318 
L 169.038545 292.490894 
L 169.304727 292.695822 
L 169.570909 293.10859 
L 171.434182 297.72983 
L 171.966545 298.472453 
L 172.498909 298.698231 
L 173.031273 298.839482 
L 173.829818 299.389946 
L 174.628364 299.92554 
L 176.225455 300.684327 
L 178.088727 300.315681 
L 179.952 300.937901 
L 180.218182 300.901215 
L 180.484364 300.652811 
L 182.613818 300.370145 
L 183.412364 300.496367 
L 183.678545 300.602063 
L 184.210909 300.516892 
L 184.477091 300.403923 
L 184.743273 300.445782 
L 185.541818 300.035116 
L 186.074182 300.060651 
L 186.606545 300.31665 
L 188.203636 302.194625 
L 188.469818 302.039474 
L 189.534545 300.614346 
L 189.800727 300.443357 
L 190.599273 300.436247 
L 191.131636 300.673498 
L 191.664 300.926265 
L 192.196364 300.943073 
L 192.994909 300.610467 
L 193.527273 300.737174 
L 194.059636 300.986386 
L 195.656727 302.775634 
L 196.721455 304.117044 
L 197.253818 304.610942 
L 197.52 305.595343 
L 198.052364 308.595254 
L 198.318545 308.866122 
L 204.706909 308.873556 
L 237.713455 308.804708 
L 237.979636 308.245517 
L 238.245818 305.835828 
L 238.512 297.275689 
L 239.044364 264.721273 
L 239.310545 259.436276 
L 239.576727 258.133008 
L 239.842909 257.837737 
L 240.375273 257.781816 
L 243.037091 257.845818 
L 244.900364 257.738667 
L 248.893091 257.806869 
L 249.691636 258.014867 
L 250.224 258.4084 
L 251.288727 259.23943 
L 251.821091 259.498017 
L 252.087273 259.385692 
L 252.885818 259.877487 
L 253.684364 260.452196 
L 254.216727 261.318616 
L 255.015273 262.891623 
L 255.547636 263.142125 
L 256.08 262.954813 
L 256.346182 261.827542 
L 256.878545 262.097443 
L 257.410909 261.846454 
L 258.475636 261.318454 
L 258.741818 261.17203 
L 259.274182 260.346336 
L 259.806545 259.255266 
L 260.605091 258.341817 
L 261.936 258.20929 
L 262.734545 258.317414 
L 264.597818 259.047755 
L 264.864 258.485006 
L 265.662545 258.788524 
L 266.461091 258.903917 
L 266.993455 259.357409 
L 267.792 260.172924 
L 268.324364 260.028923 
L 268.856727 259.73446 
L 269.122909 258.993937 
L 269.921455 259.01317 
L 270.986182 258.865451 
L 272.050909 259.011392 
L 273.115636 258.44622 
L 273.648 258.197654 
L 274.446545 258.086624 
L 275.511273 258.347958 
L 276.309818 258.543675 
L 278.705455 258.499714 
L 279.770182 258.774624 
L 280.302545 259.151188 
L 280.834909 259.778904 
L 282.432 262.19021 
L 284.561455 264.490324 
L 284.827636 264.545275 
L 285.36 264.342285 
L 285.626182 264.31384 
L 285.892364 264.492589 
L 286.158545 264.530243 
L 287.223273 266.0984 
L 287.755636 267.099771 
L 288.021818 267.445629 
L 288.288 268.092416 
L 289.352727 271.484082 
L 289.885091 272.386708 
L 290.151273 272.603111 
L 290.417455 270.946549 
L 290.683636 270.916975 
L 290.949818 270.737905 
L 291.216 270.248371 
L 292.546909 265.717635 
L 292.813091 265.265109 
L 293.079273 265.054688 
L 293.345455 265.046604 
L 293.611636 265.244099 
L 293.877818 265.690322 
L 294.410182 267.435609 
L 295.208727 270.743721 
L 297.072 277.818773 
L 297.870545 279.504747 
L 298.669091 280.952341 
L 298.935273 280.04115 
L 299.467636 280.245918 
L 300.532364 280.316382 
L 301.064727 280.815127 
L 301.330909 281.3045 
L 301.863273 283.035244 
L 302.928 286.386022 
L 303.194182 286.397334 
L 303.726545 287.497452 
L 304.258909 288.080077 
L 305.323636 288.519996 
L 306.122182 288.702298 
L 306.654545 288.482177 
L 306.920727 288.264967 
L 307.186909 287.903755 
L 307.453091 283.813584 
L 308.517818 281.832661 
L 309.050182 281.281067 
L 309.848727 281.226603 
L 310.913455 281.357188 
L 311.445818 281.387572 
L 311.978182 281.114602 
L 312.510545 280.834523 
L 313.042909 280.448908 
L 313.575273 280.277433 
L 314.107636 280.250928 
L 317.568 280.769553 
L 319.431273 281.522683 
L 320.762182 281.448016 
L 322.093091 281.335853 
L 322.359273 280.730442 
L 322.625455 276.43001 
L 322.891636 256.273943 
L 323.157818 226.951839 
L 323.424 216.828556 
L 323.690182 215.205777 
L 323.956364 215.008119 
L 324.222545 215.04044 
L 324.488727 219.524305 
L 325.287273 218.115659 
L 326.085818 216.718171 
L 326.618182 216.30056 
L 327.682909 215.967465 
L 328.215273 215.874056 
L 329.812364 215.955509 
L 330.344727 215.697897 
L 330.610909 215.355426 
L 331.143273 214.065575 
L 332.208 210.888205 
L 332.740364 210.079326 
L 333.006545 209.809908 
L 333.538909 209.91981 
L 334.337455 210.287965 
L 334.869818 210.781059 
L 336.466909 212.423238 
L 337.265455 213.127719 
L 338.064 214.43826 
L 338.862545 215.673651 
L 339.394909 216.082704 
L 339.927273 215.97296 
L 340.725818 215.350423 
L 340.992 215.361896 
L 341.524364 215.734739 
L 343.387636 216.897403 
L 343.92 217.033166 
L 344.718545 216.944919 
L 345.517091 216.764879 
L 346.581818 215.441408 
L 346.848 215.337809 
L 347.114182 215.445771 
L 347.912727 216.262577 
L 348.178909 216.335953 
L 348.445091 216.281002 
L 348.977455 215.878419 
L 349.776 214.917125 
L 350.042182 214.038425 
L 350.308364 214.045535 
L 350.840727 214.705247 
L 351.373091 215.707105 
L 352.970182 219.469354 
L 353.236364 219.499744 
L 353.768727 219.100391 
L 354.034909 218.654163 
L 354.301091 217.461442 
L 355.099636 216.044396 
L 355.365818 215.877936 
L 355.632 216.03244 
L 356.430545 217.607221 
L 356.962909 217.992186 
L 357.495273 218.001078 
L 357.761455 218.201483 
L 358.027636 218.9496 
L 358.293818 220.313635 
L 358.56 223.033954 
L 359.092364 222.759207 
L 359.358545 222.570442 
L 359.890909 221.599615 
L 361.488 218.402046 
L 362.020364 217.447222 
L 362.818909 216.669847 
L 365.480727 216.256757 
L 366.013091 216.360032 
L 366.545455 216.284882 
L 366.811636 216.058942 
L 367.077818 214.51276 
L 367.610182 214.973209 
L 367.876364 214.985165 
L 368.142545 214.722865 
L 368.408727 214.086424 
L 368.941091 211.334433 
L 371.336727 194.428458 
L 371.869091 192.510883 
L 372.401455 191.242529 
L 372.667636 190.890043 
L 373.2 190.720669 
L 374.530909 190.678806 
L 374.797091 191.419497 
L 375.063273 196.473053 
L 375.861818 255.4935 
L 376.128 258.677493 
L 376.660364 260.725811 
L 377.458909 262.528634 
L 377.725091 262.807099 
L 377.991273 262.898409 
L 378.257455 262.789481 
L 378.789818 262.120876 
L 379.322182 261.19983 
L 380.120727 259.561693 
L 380.386909 259.490902 
L 380.919273 259.697127 
L 381.185455 259.503512 
L 381.984 258.433615 
L 382.516364 258.22028 
L 383.581091 258.209777 
L 385.710545 258.543838 
L 386.509091 258.93058 
L 387.041455 259.260603 
L 388.372364 259.621811 
L 388.904727 259.279832 
L 390.235636 257.520807 
L 390.501818 257.525012 
L 391.034182 257.899149 
L 391.566545 258.513935 
L 392.098909 259.261411 
L 392.365091 258.972119 
L 392.631273 255.686632 
L 393.163636 256.245339 
L 393.696 256.64291 
L 394.228364 256.720974 
L 394.760727 257.113536 
L 395.293091 257.175111 
L 396.357818 256.592001 
L 396.624 256.227559 
L 396.890182 255.285985 
L 397.422545 255.267239 
L 397.688727 255.468289 
L 398.221091 256.613819 
L 399.285818 259.972682 
L 399.552 259.931306 
L 400.350545 258.603797 
L 400.882909 258.166303 
L 401.149091 257.214384 
L 401.681455 258.994419 
L 401.947636 260.425203 
L 402.213818 262.721279 
L 402.48 266.971935 
L 402.746182 274.954941 
L 403.278545 297.352781 
L 403.544727 303.863146 
L 403.810909 306.303866 
L 404.077091 307.143784 
L 404.875636 308.166003 
L 405.674182 308.865476 
L 408.336 309.060061 
L 408.868364 309.039859 
L 409.134545 308.873879 
L 409.400727 308.192669 
L 409.666909 305.848757 
L 409.933091 305.730454 
L 410.465455 305.118253 
L 413.659636 300.040288 
L 413.925818 300.136288 
L 415.256727 299.052008 
L 415.789091 298.992371 
L 416.321455 299.115523 
L 417.12 299.34437 
L 417.918545 299.246593 
L 418.184727 300.058066 
L 418.717091 300.258792 
L 419.249455 300.209015 
L 420.314182 299.994389 
L 421.112727 299.592774 
L 422.177455 298.96328 
L 422.443636 299.279401 
L 423.508364 299.056694 
L 423.774545 299.019361 
L 424.040727 298.854513 
L 424.306909 298.251686 
L 424.573091 296.594801 
L 424.839273 293.149479 
L 425.105455 286.914667 
L 425.637818 263.533885 
L 425.904 245.325124 
L 426.170182 203.892994 
L 426.436364 21.927273 
L 426.436364 21.927273 
" clip-path="url(#p7f94fae50d)" style="fill: none; stroke: #ff0000; stroke-width: 3; stroke-linecap: square"/>
   </g>
   <g id="line2d_3">
    <path d="M 27.163636 316.472727 
L 27.429818 307.017742 
L 27.962182 298.293861 
L 28.494545 293.724455 
L 29.026909 291.239419 
L 30.357818 286.757378 
L 31.422545 283.4102 
L 32.221091 282.12282 
L 33.019636 281.536528 
L 33.552 281.165127 
L 34.616727 280.158665 
L 35.415273 278.856608 
L 35.947636 276.332797 
L 36.746182 273.433518 
L 37.544727 271.650647 
L 37.810909 271.166656 
L 38.343273 269.492788 
L 38.875636 266.836835 
L 40.206545 259.273709 
L 40.472727 258.254058 
L 40.738909 257.887584 
L 41.005091 258.396505 
L 41.271273 259.384726 
L 42.602182 266.463035 
L 43.134545 267.552301 
L 43.400727 267.809365 
L 44.199273 268.01724 
L 44.465455 267.944311 
L 45.530182 268.190226 
L 46.328727 268.329676 
L 46.861091 268.679291 
L 47.127273 268.961403 
L 47.393455 268.834836 
L 48.192 268.955223 
L 48.458182 268.44316 
L 48.724364 268.547303 
L 49.522909 269.678213 
L 50.587636 271.022168 
L 51.386182 271.728229 
L 52.184727 271.764746 
L 52.450909 271.720925 
L 52.717091 270.589695 
L 52.983273 270.049748 
L 54.048 269.246781 
L 55.112727 267.997388 
L 55.911273 267.474215 
L 56.709818 267.058702 
L 56.976 266.643483 
L 57.508364 266.618062 
L 59.371636 267.329582 
L 60.436364 267.651262 
L 60.968727 267.829388 
L 61.234909 280.569809 
L 61.501091 285.39152 
L 61.767273 286.169814 
L 62.033455 286.376739 
L 62.565818 286.322435 
L 63.098182 285.972604 
L 63.896727 284.87546 
L 64.429091 283.596946 
L 65.493818 280.69495 
L 66.026182 280.366755 
L 66.292364 280.214222 
L 68.954182 276.938019 
L 70.285091 275.807877 
L 70.551273 275.377007 
L 70.817455 274.499066 
L 72.148364 267.90161 
L 72.414545 267.631129 
L 72.946909 267.776605 
L 73.479273 268.611015 
L 73.745455 269.297887 
L 74.011636 269.640445 
L 74.544 270.996562 
L 74.810182 271.396393 
L 75.076364 271.191621 
L 75.608727 269.954702 
L 76.407273 268.0421 
L 76.939636 267.616114 
L 77.472 267.170242 
L 77.738182 266.652073 
L 78.004364 265.878618 
L 78.536727 260.732587 
L 79.335273 254.423419 
L 79.867636 252.064474 
L 80.133818 251.687677 
L 80.4 251.756102 
L 80.666182 252.24713 
L 80.932364 253.066648 
L 81.464727 255.940623 
L 81.997091 258.445505 
L 82.263273 258.965083 
L 82.529455 260.391789 
L 82.795636 260.021211 
L 83.328 258.249713 
L 84.126545 256.097822 
L 84.925091 255.556128 
L 85.457455 254.849137 
L 85.989818 253.518849 
L 86.522182 252.292403 
L 86.788364 253.17741 
L 87.586909 252.797097 
L 88.385455 253.174641 
L 89.716364 254.437635 
L 89.982545 254.364237 
L 90.248727 254.017553 
L 91.579636 250.48886 
L 91.845818 250.189964 
L 92.644364 249.978248 
L 93.442909 250.043466 
L 94.507636 249.629831 
L 95.04 249.261693 
L 95.306182 248.016567 
L 95.572364 248.038122 
L 95.838545 250.116675 
L 96.104727 251.156814 
L 96.370909 251.284102 
L 97.435636 250.661754 
L 97.968 250.335343 
L 98.766545 249.964686 
L 100.097455 249.146292 
L 100.629818 248.443724 
L 101.694545 246.131462 
L 103.557818 240.165641 
L 103.824 240.159347 
L 104.356364 239.009841 
L 105.154909 237.644779 
L 105.687273 236.119674 
L 106.219636 233.93117 
L 106.752 231.73229 
L 107.018182 231.473441 
L 107.550545 231.390373 
L 107.816727 231.456876 
L 108.082909 232.0387 
L 108.349091 232.123673 
L 108.615273 231.997294 
L 109.413818 231.026581 
L 110.212364 231.210009 
L 110.478545 230.523936 
L 112.075636 224.329932 
L 112.608 224.294275 
L 113.140364 224.410506 
L 113.672727 224.848483 
L 114.205091 225.279446 
L 115.003636 226.71432 
L 115.536 227.422479 
L 115.802182 227.418608 
L 116.334545 226.931483 
L 116.600727 227.539105 
L 116.866909 227.333767 
L 117.133091 227.704687 
L 117.399273 228.780501 
L 117.931636 233.079559 
L 118.730182 241.464253 
L 118.996364 242.375283 
L 119.262545 241.844478 
L 119.528727 240.976522 
L 119.794909 239.500039 
L 120.327273 234.048437 
L 120.593455 230.896225 
L 120.859636 229.553161 
L 121.392 225.237363 
L 122.989091 217.710794 
L 124.586182 203.718766 
L 125.118545 201.530806 
L 125.384727 200.733382 
L 125.650909 200.349313 
L 125.917091 200.379264 
L 126.449455 200.939625 
L 126.715636 201.091074 
L 127.248 200.813615 
L 128.046545 199.317407 
L 128.578909 197.527378 
L 129.111273 194.501598 
L 129.377455 189.830416 
L 129.643636 189.422233 
L 130.176 190.856388 
L 130.708364 193.694018 
L 131.506909 199.334674 
L 131.773091 199.972967 
L 132.305455 200.327999 
L 132.571636 200.346618 
L 132.837818 200.082405 
L 133.370182 198.686382 
L 133.902545 196.549634 
L 134.701091 193.622151 
L 134.967273 193.350608 
L 135.233455 193.503365 
L 135.499636 193.296833 
L 135.765818 192.723498 
L 136.298182 190.578252 
L 136.830545 189.172618 
L 137.096727 188.939734 
L 137.362909 188.973275 
L 137.629091 189.470302 
L 138.427636 199.596017 
L 139.226182 209.64803 
L 139.492364 211.504712 
L 140.290909 214.169763 
L 140.557091 214.47203 
L 141.355636 214.727728 
L 141.621818 214.995005 
L 141.888 215.083006 
L 142.154182 214.870224 
L 142.952727 213.298287 
L 143.485091 211.497443 
L 144.017455 208.572919 
L 144.549818 204.00553 
L 145.880727 187.670652 
L 146.146909 182.912234 
L 146.413091 181.47886 
L 146.945455 162.389745 
L 147.744 133.803368 
L 148.542545 107.646727 
L 148.808727 102.925212 
L 149.074909 100.563015 
L 149.341091 99.210637 
L 150.672 96.340256 
L 151.204364 94.199707 
L 152.535273 85.873186 
L 152.801455 86.005402 
L 153.333818 84.516384 
L 154.132364 81.182061 
L 154.398545 78.60824 
L 154.664727 74.552091 
L 154.930909 73.693308 
L 155.197091 68.701584 
L 155.729455 53.670374 
L 156.261818 46.428076 
L 157.326545 37.819654 
L 158.391273 25.963215 
L 158.657455 24.185519 
L 158.923636 23.273927 
L 159.722182 22.317145 
L 160.254545 22.066757 
L 161.053091 21.927273 
L 161.851636 22.099184 
L 162.650182 22.322675 
L 163.182545 22.505664 
L 163.448727 23.322821 
L 163.981091 23.310637 
L 164.513455 23.322312 
L 165.045818 23.595242 
L 165.312 23.80195 
L 166.642909 26.132686 
L 166.909091 26.085196 
L 167.441455 25.683228 
L 167.707636 25.959985 
L 168.506182 24.863595 
L 168.772364 25.025341 
L 169.038545 25.555945 
L 169.304727 26.868346 
L 169.570909 28.872448 
L 170.369455 39.794682 
L 170.901818 44.105363 
L 171.168 44.871115 
L 171.434182 45.236057 
L 171.700364 45.010863 
L 171.966545 46.673688 
L 172.498909 45.803757 
L 172.765091 46.313662 
L 173.297455 50.689458 
L 173.829818 57.213722 
L 175.160727 82.627258 
L 175.693091 85.772097 
L 176.225455 86.825368 
L 176.757818 86.770715 
L 177.024 86.643696 
L 177.290182 86.730547 
L 177.556364 86.973631 
L 178.088727 88.075006 
L 178.354909 89.29831 
L 178.621091 91.141737 
L 179.153455 97.381501 
L 179.952 108.065725 
L 180.218182 109.639504 
L 180.484364 116.836507 
L 180.750545 117.302697 
L 181.016727 117.126361 
L 181.282909 116.519265 
L 181.549091 116.334766 
L 181.815273 116.617475 
L 182.347636 118.570523 
L 183.146182 122.310958 
L 183.678545 124.513762 
L 183.944727 123.791058 
L 184.210909 122.083973 
L 185.009455 112.162851 
L 185.541818 101.785809 
L 185.808 100.31526 
L 186.074182 100.710066 
L 186.606545 103.861277 
L 187.138909 110.257047 
L 188.469818 124.038812 
L 188.736 125.435888 
L 189.002182 129.843409 
L 189.534545 130.541938 
L 189.800727 131.29217 
L 190.599273 135.406361 
L 191.664 138.786963 
L 191.930182 139.246656 
L 192.196364 139.462089 
L 192.994909 139.022884 
L 193.261091 139.43823 
L 193.527273 139.425555 
L 194.059636 139.870641 
L 194.592 141.925498 
L 195.124364 145.423393 
L 195.656727 151.567441 
L 196.455273 158.553013 
L 196.987636 160.126758 
L 197.253818 160.656185 
L 197.52 163.462696 
L 197.786182 164.188596 
L 198.318545 166.716103 
L 198.850909 173.040962 
L 199.383273 180.61905 
L 199.915636 185.569341 
L 202.311273 200.561252 
L 202.843636 202.190501 
L 203.376 203.018516 
L 204.973091 204.277424 
L 205.505455 205.005351 
L 205.771636 205.416748 
L 206.037818 206.079813 
L 206.304 206.03407 
L 206.570182 206.109044 
L 206.836364 206.533107 
L 207.634909 209.394175 
L 207.901091 209.886857 
L 208.699636 213.29697 
L 208.965818 214.80092 
L 210.562909 228.234799 
L 210.829091 229.390002 
L 211.095273 229.846228 
L 211.893818 231.813357 
L 212.16 232.023698 
L 212.426182 232.627494 
L 212.692364 232.732752 
L 212.958545 232.592811 
L 213.757091 231.521799 
L 214.289455 229.661062 
L 215.354182 225.647768 
L 215.620364 225.288786 
L 215.886545 225.1455 
L 216.152727 225.638287 
L 216.418909 225.780502 
L 216.685091 226.079389 
L 216.951273 226.067169 
L 217.217455 225.670327 
L 217.749818 224.093651 
L 218.548364 220.45764 
L 219.346909 218.54664 
L 219.613091 218.180925 
L 220.411636 219.149022 
L 220.944 218.771369 
L 221.742545 217.72225 
L 222.541091 217.063661 
L 222.807273 216.609234 
L 223.073455 215.347473 
L 224.138182 203.786498 
L 224.404364 202.579504 
L 224.936727 201.695589 
L 225.469091 201.549591 
L 226.001455 201.609441 
L 226.533818 201.966764 
L 228.397091 203.803185 
L 228.663273 203.880591 
L 228.929455 204.107453 
L 229.461818 204.135183 
L 229.994182 204.091995 
L 230.526545 203.89058 
L 230.792727 203.22087 
L 231.058909 202.043046 
L 231.591273 198.118726 
L 232.389818 191.256601 
L 232.656 190.06517 
L 232.922182 189.701106 
L 233.188364 190.538312 
L 233.454545 191.834281 
L 234.785455 201.368858 
L 235.051636 201.952508 
L 235.850182 204.345262 
L 236.116364 204.689286 
L 236.648727 204.900497 
L 236.914909 205.148505 
L 237.181091 205.836825 
L 237.713455 208.249971 
L 237.979636 208.720936 
L 238.245818 209.454832 
L 239.310545 214.967266 
L 240.109091 219.961632 
L 241.44 226.770544 
L 242.238545 229.296138 
L 243.037091 231.908547 
L 243.303273 233.002742 
L 243.569455 232.596999 
L 244.101818 234.232217 
L 244.368 234.549994 
L 244.634182 234.520412 
L 244.900364 233.627868 
L 245.432727 230.264296 
L 246.231273 224.15673 
L 246.763636 220.008393 
L 247.029818 218.599335 
L 247.296 217.970934 
L 247.562182 217.794775 
L 247.828364 216.000347 
L 248.360727 217.248941 
L 248.626909 217.311161 
L 248.893091 217.081902 
L 249.159273 216.302061 
L 249.691636 213.828618 
L 251.288727 203.925008 
L 252.353455 199.41445 
L 252.619636 199.191371 
L 252.885818 199.221857 
L 253.418182 199.798335 
L 253.684364 199.922186 
L 253.950545 199.863566 
L 254.216727 199.404241 
L 255.547636 194.781559 
L 255.813818 194.444627 
L 256.08 194.328133 
L 256.346182 192.833067 
L 256.612364 193.027959 
L 256.878545 193.670808 
L 257.144727 194.968796 
L 257.677091 199.389511 
L 258.209455 204.691709 
L 259.274182 218.042397 
L 260.072727 224.849887 
L 260.338909 226.939769 
L 260.605091 226.163711 
L 261.137455 231.008902 
L 261.936 236.069411 
L 262.202182 236.663945 
L 262.468364 236.721495 
L 262.734545 236.27438 
L 263.000727 235.231932 
L 263.799273 229.48291 
L 264.331636 226.233752 
L 264.597818 225.370334 
L 264.864 222.901773 
L 265.130182 222.493809 
L 265.396364 222.336671 
L 265.928727 222.504202 
L 266.727273 222.637902 
L 267.259636 222.432739 
L 268.058182 221.657041 
L 268.324364 221.524746 
L 268.590545 221.611694 
L 268.856727 221.939952 
L 269.122909 221.448464 
L 270.453818 224.023233 
L 270.986182 224.982534 
L 271.252364 225.391051 
L 272.317091 226.248526 
L 272.849455 227.24739 
L 273.115636 228.257982 
L 273.381818 228.750559 
L 273.648 230.430563 
L 274.446545 236.862489 
L 274.978909 238.690545 
L 275.245091 239.275152 
L 275.511273 239.585178 
L 276.043636 239.700523 
L 277.374545 239.707133 
L 277.640727 239.610942 
L 278.439273 239.858617 
L 279.237818 240.32198 
L 279.770182 240.476984 
L 281.367273 239.855281 
L 281.633455 239.804869 
L 282.432 238.642116 
L 283.762909 236.317911 
L 284.561455 235.693145 
L 285.093818 235.595839 
L 285.892364 235.603722 
L 286.424727 234.620921 
L 286.957091 233.666474 
L 287.223273 232.953365 
L 287.755636 229.656401 
L 288.021818 226.965305 
L 288.288 223.009542 
L 288.554182 215.621597 
L 289.086545 193.268778 
L 289.618909 181.367158 
L 290.151273 168.898032 
L 290.417455 162.564061 
L 290.683636 163.212168 
L 290.949818 164.72185 
L 291.216 168.960813 
L 291.482182 185.055855 
L 291.748364 208.492818 
L 292.280727 229.882596 
L 292.546909 234.817007 
L 292.813091 236.323634 
L 293.079273 236.617114 
L 293.611636 236.706651 
L 293.877818 237.440354 
L 294.144 239.173264 
L 294.410182 239.666832 
L 295.741091 239.77849 
L 296.007273 239.653665 
L 296.273455 239.351969 
L 296.539636 238.822007 
L 296.805818 237.903989 
L 297.072 236.280428 
L 298.136727 227.269485 
L 298.669091 223.470789 
L 298.935273 215.845835 
L 299.201455 215.254803 
L 299.467636 215.415048 
L 299.733818 216.288973 
L 300 217.89718 
L 300.266182 218.284059 
L 300.532364 217.315488 
L 302.129455 201.108823 
L 302.928 180.334261 
L 303.460364 165.955547 
L 303.726545 162.605757 
L 303.992727 161.27385 
L 305.589818 158.231365 
L 305.856 157.293842 
L 306.122182 156.791223 
L 306.388364 157.161362 
L 306.920727 158.843657 
L 307.186909 159.718855 
L 307.453091 160.006901 
L 307.719273 162.246784 
L 307.985455 168.333387 
L 308.784 204.06394 
L 309.316364 214.558257 
L 309.582545 216.829487 
L 309.848727 217.836629 
L 310.114909 218.06249 
L 310.647273 218.084734 
L 311.179636 216.919936 
L 311.445818 215.922327 
L 311.712 212.189652 
L 311.978182 212.453225 
L 312.244364 213.581891 
L 313.309091 219.867276 
L 313.841455 221.875485 
L 314.107636 221.969174 
L 314.64 221.629039 
L 315.438545 221.989663 
L 315.704727 221.962055 
L 315.970909 220.446677 
L 316.237091 220.968546 
L 317.035636 224.336401 
L 317.301818 224.746174 
L 317.834182 224.929479 
L 318.632727 224.794673 
L 318.898909 224.618022 
L 319.165091 224.295636 
L 319.697455 223.122543 
L 319.963636 222.33266 
L 320.762182 218.956157 
L 321.560727 216.907849 
L 321.826909 215.079249 
L 322.093091 211.998008 
L 322.625455 204.845528 
L 322.891636 202.524053 
L 323.157818 201.326732 
L 323.424 200.730451 
L 323.690182 200.45185 
L 323.956364 200.373935 
L 324.222545 200.550218 
L 324.754909 206.512189 
L 325.553455 224.791794 
L 327.150545 246.700175 
L 327.416727 248.278401 
L 327.682909 249.00675 
L 328.481455 250.021095 
L 329.013818 251.964048 
L 329.28 252.191068 
L 329.812364 252.081394 
L 331.409455 250.231972 
L 332.208 248.833553 
L 332.740364 248.787375 
L 333.006545 242.67144 
L 334.071273 242.5779 
L 334.337455 241.428535 
L 335.402182 234.838382 
L 335.668364 234.121875 
L 335.934545 233.747277 
L 336.466909 233.462804 
L 337.265455 233.271879 
L 337.531636 233.056078 
L 337.797818 232.398428 
L 338.064 231.165837 
L 338.330182 229.389317 
L 338.596364 225.90954 
L 338.862545 224.403124 
L 339.128727 223.995283 
L 339.394909 224.028113 
L 339.661091 224.351228 
L 339.927273 225.093033 
L 340.459636 228.012932 
L 340.992 230.716212 
L 341.258182 230.758944 
L 341.524364 229.529785 
L 342.056727 229.205275 
L 342.322909 228.871846 
L 342.589091 227.987528 
L 343.653818 221.295382 
L 344.452364 217.285283 
L 344.984727 212.285176 
L 345.517091 203.516105 
L 345.783273 195.44451 
L 346.049455 191.709368 
L 346.315636 189.88664 
L 346.581818 189.089717 
L 346.848 188.845834 
L 347.114182 188.795553 
L 347.380364 189.005763 
L 347.646545 189.575956 
L 347.912727 191.161024 
L 348.445091 198.245131 
L 348.711273 201.277197 
L 348.977455 202.943138 
L 349.243636 203.159528 
L 349.509818 202.842286 
L 349.776 200.772156 
L 350.042182 194.945885 
L 350.308364 192.983963 
L 350.574545 192.087952 
L 350.840727 191.704812 
L 351.373091 191.556497 
L 351.639273 192.425252 
L 351.905455 193.857089 
L 352.704 199.700705 
L 353.502545 204.431568 
L 353.768727 205.585376 
L 354.034909 205.896701 
L 354.301091 204.576601 
L 354.567273 204.972758 
L 355.099636 206.176776 
L 355.898182 209.011553 
L 356.430545 209.763682 
L 356.962909 209.887796 
L 358.293818 209.46088 
L 358.56 202.580356 
L 358.826182 206.71708 
L 359.358545 209.198238 
L 359.624727 209.845398 
L 360.423273 210.945421 
L 360.689455 211.452727 
L 361.221818 213.252035 
L 362.286545 217.472634 
L 362.552727 218.019907 
L 362.818909 217.484476 
L 363.351273 217.114249 
L 363.617455 217.011765 
L 363.883636 217.12969 
L 364.416 215.752172 
L 365.480727 212.544974 
L 366.013091 211.618941 
L 366.279273 211.433407 
L 366.811636 211.380957 
L 368.142545 210.743498 
L 368.674909 209.254392 
L 369.207273 206.576937 
L 369.739636 201.81283 
L 370.538182 191.977927 
L 371.070545 189.39244 
L 371.336727 190.983355 
L 372.667636 165.773436 
L 372.933818 163.951498 
L 373.2 163.436783 
L 373.466182 165.215954 
L 374.264727 176.128242 
L 374.530909 180.131706 
L 375.595636 205.443328 
L 375.861818 204.928797 
L 376.660364 204.284061 
L 377.192727 202.927706 
L 378.523636 197.367019 
L 379.322182 196.403302 
L 379.588364 195.242104 
L 379.854545 196.443857 
L 380.653091 191.007732 
L 381.185455 189.149136 
L 381.451636 190.311239 
L 381.717818 191.995808 
L 382.516364 202.107267 
L 383.048727 205.699614 
L 383.581091 206.983487 
L 383.847273 207.292267 
L 384.113455 208.221442 
L 385.178182 209.305858 
L 385.976727 208.580977 
L 386.242909 208.193492 
L 387.041455 205.060425 
L 387.573818 202.073716 
L 387.84 200.499647 
L 388.106182 198.154743 
L 388.372364 197.369494 
L 389.170909 184.106921 
L 389.703273 180.213 
L 390.235636 178.661982 
L 390.768 177.781157 
L 391.300364 176.774928 
L 391.566545 176.643993 
L 391.832727 176.860971 
L 392.365091 178.016411 
L 392.631273 175.797491 
L 393.163636 176.372099 
L 393.429818 176.180121 
L 393.696 175.451281 
L 394.228364 172.972431 
L 394.494545 172.867287 
L 396.091636 175.164359 
L 396.624 176.742054 
L 396.890182 176.124801 
L 397.422545 176.538585 
L 397.954909 176.881459 
L 398.753455 176.502692 
L 399.285818 177.187808 
L 399.818182 178.218545 
L 400.616727 180.541645 
L 400.882909 180.952391 
L 401.149091 182.787716 
L 401.681455 182.15454 
L 401.947636 181.555467 
L 402.746182 178.40911 
L 403.278545 177.427591 
L 403.544727 177.152072 
L 403.810909 177.348079 
L 404.077091 177.951874 
L 404.609455 181.095449 
L 405.141818 185.399159 
L 405.408 190.966887 
L 406.206545 195.96975 
L 406.472727 196.993421 
L 407.005091 200.615396 
L 408.336 210.574562 
L 408.602182 211.328692 
L 408.868364 211.653422 
L 409.134545 211.658873 
L 409.400727 210.047207 
L 409.666909 188.557235 
L 409.933091 187.688454 
L 410.199273 186.075023 
L 410.465455 182.919379 
L 410.997818 168.125731 
L 411.796364 143.017551 
L 412.062545 138.68863 
L 412.328727 136.38867 
L 413.393455 131.33104 
L 413.659636 128.979693 
L 413.925818 133.664374 
L 414.990545 124.730582 
L 415.256727 123.914584 
L 415.522909 123.720148 
L 415.789091 123.676082 
L 416.055273 123.338457 
L 416.587636 123.75031 
L 417.12 122.378673 
L 417.918545 118.057213 
L 418.184727 128.28557 
L 418.717091 126.837493 
L 418.983273 125.760468 
L 419.515636 122.337819 
L 420.048 120.044689 
L 420.580364 115.532164 
L 422.177455 97.073336 
L 422.443636 102.680898 
L 422.976 95.981792 
L 423.508364 91.274919 
L 423.774545 90.590961 
L 424.040727 89.510566 
L 424.306909 87.904868 
L 424.839273 82.009348 
L 425.371636 73.091619 
L 425.637818 70.067603 
L 425.904 68.988928 
L 426.170182 73.265005 
L 426.436364 95.571976 
L 426.436364 95.571976 
" clip-path="url(#p7f94fae50d)" style="fill: none; stroke: #0000ff; stroke-width: 3; stroke-linecap: square"/>
   </g>
   <g id="patch_3">
    <path d="M 7.2 331.2 
L 7.2 7.2 
" style="fill: none; stroke: #000000; stroke-width: 0.8; stroke-linejoin: miter; stroke-linecap: square"/>
   </g>
   <g id="patch_4">
    <path d="M 446.4 331.2 
L 446.4 7.2 
" style="fill: none; stroke: #000000; stroke-width: 0.8; stroke-linejoin: miter; stroke-linecap: square"/>
   </g>
   <g id="patch_5">
    <path d="M 7.2 331.2 
L 446.4 331.2 
" style="fill: none; stroke: #000000; stroke-width: 0.8; stroke-linejoin: miter; stroke-linecap: square"/>
   </g>
   <g id="patch_6">
    <path d="M 7.2 7.2 
L 446.4 7.2 
" style="fill: none; stroke: #000000; stroke-width: 0.8; stroke-linejoin: miter; stroke-linecap: square"/>
   </g>
  </g>
 </g>
 <defs>
  <clipPath id="p7f94fae50d">
   <rect x="7.2" y="7.2" width="439.2" height="324"/>
  </clipPath>
 </defs>
</svg>
