<?xml version="1.0" encoding="utf-8" standalone="no"?>
<!DOCTYPE svg PUBLIC "-//W3C//DTD SVG 1.1//EN"
  "http://www.w3.org/Graphics/SVG/1.1/DTD/svg11.dtd">
<svg xmlns:xlink="http://www.w3.org/1999/xlink" width="453.6pt" height="338.4pt" viewBox="0 0 453.6 338.4" xmlns="http://www.w3.org/2000/svg" version="1.1">
 <metadata>
  <rdf:RDF xmlns:dc="http://purl.org/dc/elements/1.1/" xmlns:cc="http://creativecommons.org/ns#" xmlns:rdf="http://www.w3.org/1999/02/22-rdf-syntax-ns#">
   <cc:Work>
    <dc:type rdf:resource="http://purl.org/dc/dcmitype/StillImage"/>
    <dc:date>2025-05-15T09:33:28.358997</dc:date>
    <dc:format>image/svg+xml</dc:format>
    <dc:creator>
     <cc:Agent>
      <dc:title>Matplotlib v3.10.1, https://matplotlib.org/</dc:title>
     </cc:Agent>
    </dc:creator>
   </cc:Work>
  </rdf:RDF>
 </metadata>
 <defs>
  <style type="text/css">*{stroke-linejoin: round; stroke-linecap: butt}</style>
 </defs>
 <g id="figure_1">
  <g id="patch_1">
   <path d="M 0 338.4 
L 453.6 338.4 
L 453.6 0 
L 0 0 
z
" style="fill: #ffffff"/>
  </g>
  <g id="axes_1">
   <g id="patch_2">
    <path d="M 7.2 331.2 
L 446.4 331.2 
L 446.4 7.2 
L 7.2 7.2 
z
" style="fill: #ffffff"/>
   </g>
   <g id="matplotlib.axis_1"/>
   <g id="matplotlib.axis_2"/>
   <g id="line2d_1">
    <path d="M 27.163636 290.695462 
L 30.357818 299.250108 
L 31.156364 300.636196 
L 31.954909 301.593044 
L 32.753455 302.198994 
L 33.818182 302.669847 
L 38.077091 303.985778 
L 39.408 304.124163 
L 42.336 304.239255 
L 43.933091 304.700499 
L 44.997818 304.912234 
L 45.796364 304.80396 
L 46.328727 304.54045 
L 47.127273 303.81436 
L 47.925818 302.703104 
L 48.990545 300.780835 
L 51.12 296.836975 
L 51.918545 295.779088 
L 52.717091 295.062577 
L 53.515636 294.657418 
L 54.580364 294.443174 
L 56.443636 294.201244 
L 57.508364 293.841637 
L 60.170182 292.762518 
L 61.234909 292.688778 
L 62.565818 292.916221 
L 63.896727 293.11874 
L 64.695273 293.035075 
L 65.493818 292.736709 
L 66.558545 292.060871 
L 68.421818 290.786794 
L 69.220364 290.479794 
L 70.018909 290.384071 
L 71.083636 290.514439 
L 72.680727 290.770695 
L 73.479273 290.656472 
L 74.277818 290.235238 
L 75.076364 289.439014 
L 75.874909 288.245923 
L 76.939636 286.09347 
L 78.270545 282.787994 
L 80.666182 276.770295 
L 81.730909 274.629202 
L 82.795636 272.946959 
L 83.860364 271.668177 
L 85.191273 270.438729 
L 87.586909 268.600753 
L 88.917818 267.811836 
L 89.982545 267.474667 
L 90.781091 267.442302 
L 91.845818 267.666878 
L 95.04 268.660783 
L 95.838545 268.624823 
L 96.903273 268.321789 
L 98.234182 267.642023 
L 100.896 266.1849 
L 102.226909 265.723512 
L 105.154909 265.057076 
L 108.082909 264.240705 
L 110.212364 263.479899 
L 111.277091 262.880769 
L 112.075636 262.220732 
L 112.874182 261.316983 
L 113.938909 259.707024 
L 115.536 256.726157 
L 116.866909 254.419802 
L 117.665455 253.435185 
L 118.197818 253.016231 
L 118.730182 252.808667 
L 119.262545 252.818815 
L 119.794909 253.043522 
L 120.327273 253.471873 
L 121.125818 254.457636 
L 122.190545 256.292083 
L 123.521455 259.12431 
L 126.715636 266.116553 
L 128.046545 268.455765 
L 129.377455 270.303366 
L 130.442182 271.424088 
L 131.506909 272.259354 
L 133.104 273.16787 
L 134.434909 273.951402 
L 135.499636 274.872883 
L 136.298182 275.837394 
L 137.362909 277.510744 
L 141.089455 284.003946 
L 141.888 284.781547 
L 142.686545 285.256229 
L 143.751273 285.565417 
L 145.348364 285.940621 
L 146.146909 286.327719 
L 146.945455 286.917571 
L 148.010182 287.988776 
L 150.139636 290.582029 
L 157.060364 298.920013 
L 158.125091 299.800491 
L 158.923636 300.200975 
L 159.722182 300.37072 
L 160.520727 300.333297 
L 161.585455 300.03012 
L 162.916364 299.357948 
L 163.981091 298.604519 
L 165.045818 297.591754 
L 166.110545 296.234907 
L 167.175273 294.512594 
L 170.635636 288.387378 
L 171.434182 287.458905 
L 172.232727 286.795715 
L 175.160727 284.757749 
L 175.959273 283.698551 
L 177.024 281.804485 
L 180.750545 274.476844 
L 182.347636 271.589885 
L 183.412364 269.070713 
L 184.477091 265.869523 
L 187.937455 254.597283 
L 189.002182 252.266683 
L 190.066909 250.543034 
L 191.397818 248.868354 
L 192.728727 247.476444 
L 193.793455 246.684186 
L 194.592 246.433926 
L 195.124364 246.483869 
L 195.656727 246.724956 
L 196.455273 247.439475 
L 197.253818 248.516298 
L 198.584727 250.774663 
L 200.181818 253.433987 
L 201.246545 254.800321 
L 202.311273 255.762313 
L 203.376 256.385223 
L 204.706909 256.857008 
L 206.570182 257.24143 
L 209.232 257.536888 
L 212.16 257.914625 
L 214.023273 258.139157 
L 215.088 258.088314 
L 216.152727 257.834661 
L 217.483636 257.273597 
L 219.613091 256.350835 
L 220.677818 256.142867 
L 221.742545 256.145602 
L 224.936727 256.340481 
L 226.267636 256.092459 
L 228.663273 255.561123 
L 229.994182 255.52217 
L 233.188364 255.635403 
L 234.519273 255.330082 
L 237.979636 254.241088 
L 239.310545 254.195464 
L 241.972364 254.238424 
L 243.037091 253.982313 
L 244.101818 253.511151 
L 246.231273 252.225531 
L 247.828364 251.3875 
L 248.893091 251.041637 
L 250.224 250.874953 
L 251.821091 250.941421 
L 254.216727 251.063573 
L 256.08 250.912848 
L 260.072727 250.500627 
L 265.396364 250.248475 
L 266.461091 250.558817 
L 267.525818 251.08375 
L 268.856727 252.012586 
L 269.921455 253.010604 
L 270.986182 254.367985 
L 271.784727 255.728114 
L 272.849455 258.100322 
L 273.914182 261.083788 
L 277.374545 271.372354 
L 278.439273 273.584177 
L 280.036364 276.22099 
L 281.367273 278.563146 
L 282.432 280.892344 
L 284.029091 285.067117 
L 286.957091 292.837376 
L 289.086545 297.806959 
L 290.417455 300.50743 
L 291.482182 302.208796 
L 292.280727 303.084545 
L 292.813091 303.434447 
L 293.345455 303.575803 
L 293.877818 303.495744 
L 294.410182 303.187458 
L 294.942545 302.651356 
L 295.741091 301.441391 
L 296.539636 299.806041 
L 297.870545 296.423123 
L 302.928 282.145792 
L 305.057455 276.266526 
L 306.122182 273.8549 
L 307.186909 272.028718 
L 308.251636 270.732775 
L 310.647273 268.147104 
L 311.445818 266.873049 
L 312.510545 264.720474 
L 315.438545 258.314978 
L 316.237091 257.098162 
L 317.035636 256.214475 
L 317.834182 255.608485 
L 318.898909 255.068989 
L 321.560727 253.838536 
L 323.424 252.626393 
L 325.553455 251.003443 
L 326.884364 249.731929 
L 327.949091 248.409125 
L 329.013818 246.752006 
L 332.740364 240.513984 
L 333.538909 239.792614 
L 334.337455 239.421536 
L 335.136 239.363609 
L 335.934545 239.543921 
L 337.265455 240.13821 
L 344.452364 243.982889 
L 346.315636 245.466579 
L 348.977455 247.613936 
L 350.840727 248.788727 
L 354.301091 250.846024 
L 355.898182 252.17392 
L 358.027636 253.977336 
L 358.826182 254.389237 
L 359.624727 254.528669 
L 360.423273 254.352812 
L 361.221818 253.863062 
L 362.020364 253.104833 
L 363.351273 251.47802 
L 364.948364 249.568437 
L 365.746909 248.892704 
L 366.545455 248.506528 
L 367.344 248.425053 
L 368.142545 248.599918 
L 371.070545 249.587275 
L 372.135273 249.493195 
L 374.264727 249.073881 
L 375.063273 249.160806 
L 375.861818 249.459899 
L 377.192727 250.274445 
L 378.257455 250.886988 
L 379.056 251.112862 
L 379.854545 251.033231 
L 380.653091 250.625263 
L 381.451636 249.943917 
L 383.847273 247.646533 
L 384.645818 247.29611 
L 385.178182 247.257399 
L 385.710545 247.376123 
L 386.509091 247.821723 
L 387.307636 248.528311 
L 388.372364 249.761262 
L 389.703273 251.642996 
L 391.300364 254.309 
L 393.429818 257.949992 
L 394.494545 259.305073 
L 395.293091 259.944627 
L 396.091636 260.231615 
L 396.890182 260.209757 
L 398.221091 259.816273 
L 399.019636 259.65842 
L 399.552 259.707968 
L 400.084364 259.940659 
L 400.616727 260.39164 
L 401.149091 261.076396 
L 401.947636 262.5195 
L 403.012364 265.009459 
L 404.875636 269.466967 
L 405.674182 270.900705 
L 406.472727 271.940761 
L 407.537455 272.875351 
L 408.868364 273.955927 
L 409.666909 274.919086 
L 410.465455 276.271947 
L 411.530182 278.662089 
L 414.192 285.202 
L 414.990545 286.58563 
L 415.789091 287.603082 
L 417.12 288.845035 
L 418.184727 289.938071 
L 418.983273 291.045306 
L 420.048 292.943133 
L 422.443636 297.552883 
L 423.242182 298.658569 
L 424.040727 299.416015 
L 424.839273 299.844647 
L 425.637818 300.009782 
L 426.436364 299.996472 
L 426.436364 299.996472 
" clip-path="url(#p684e94d375)" style="fill: none; stroke: #ffa500; stroke-width: 3; stroke-linecap: square"/>
   </g>
   <g id="line2d_2">
    <path d="M 27.163636 142.190352 
L 28.760727 213.759368 
L 29.559273 242.393998 
L 30.357818 263.865145 
L 31.156364 278.35169 
L 31.688727 284.760574 
L 32.221091 289.178062 
L 32.753455 292.122478 
L 33.285818 294.03223 
L 33.818182 295.237853 
L 34.350545 295.953855 
L 34.882909 296.298495 
L 35.415273 296.327691 
L 35.947636 296.06321 
L 36.48 295.511735 
L 37.278545 294.206406 
L 38.343273 291.778333 
L 39.940364 287.334124 
L 42.336 280.617213 
L 43.134545 279.020685 
L 43.666909 278.376431 
L 44.199273 278.179989 
L 44.465455 278.276228 
L 44.997818 278.897721 
L 45.530182 280.121654 
L 46.062545 281.943327 
L 46.861091 285.687863 
L 47.925818 292.026978 
L 50.055273 305.193347 
L 51.12 310.181362 
L 51.918545 312.87911 
L 52.717091 314.723545 
L 53.515636 315.84604 
L 54.048 316.268862 
L 54.580364 316.462584 
L 55.112727 316.421761 
L 55.645091 316.101861 
L 56.177455 315.410353 
L 56.709818 314.213882 
L 57.242182 312.344707 
L 57.774545 309.629639 
L 58.306909 305.910092 
L 59.105455 298.249069 
L 59.904 288.138202 
L 61.234909 267.465442 
L 62.832 242.374695 
L 63.896727 229.127176 
L 64.695273 221.781357 
L 65.493818 216.533066 
L 66.292364 212.990912 
L 67.090909 210.689021 
L 67.889455 209.208772 
L 68.688 208.222601 
L 69.752727 207.282444 
L 73.479273 204.505024 
L 74.011636 204.464952 
L 74.544 204.766042 
L 75.076364 205.554047 
L 75.608727 206.991985 
L 76.141091 209.244148 
L 76.673455 212.459475 
L 77.472 219.323593 
L 78.270545 228.716236 
L 79.335273 244.58629 
L 81.997091 287.129517 
L 82.795636 296.408345 
L 83.594182 303.073299 
L 84.126545 306.123853 
L 84.658909 308.207285 
L 85.191273 309.499255 
L 85.723636 310.190021 
L 86.256 310.459449 
L 86.788364 310.46514 
L 87.853091 310.128416 
L 91.047273 308.794634 
L 91.845818 308.07789 
L 92.644364 306.95589 
L 93.442909 305.348968 
L 94.241455 303.259103 
L 95.572364 298.979668 
L 99.032727 287.348968 
L 101.694545 279.329451 
L 102.759273 276.686626 
L 103.557818 275.163329 
L 104.356364 274.088337 
L 105.154909 273.421321 
L 106.219636 272.941596 
L 107.550545 272.437621 
L 108.349091 271.945773 
L 109.413818 270.990773 
L 111.543273 268.870479 
L 112.341818 268.426626 
L 112.874182 268.320239 
L 113.672727 268.450129 
L 114.471273 268.876168 
L 115.802182 269.942751 
L 117.399273 271.152826 
L 118.730182 271.805494 
L 120.859636 272.723134 
L 121.658182 273.326811 
L 122.456727 274.181609 
L 123.521455 275.710348 
L 126.715636 280.826521 
L 127.514182 281.631097 
L 128.312727 282.150655 
L 129.111273 282.427011 
L 130.176 282.542305 
L 136.032 282.461649 
L 137.629091 282.285988 
L 141.355636 281.710515 
L 142.420364 281.851044 
L 143.485091 282.209291 
L 145.082182 283.040833 
L 147.744 284.467395 
L 149.607273 285.147523 
L 151.736727 285.689347 
L 152.801455 285.792764 
L 153.6 285.705428 
L 154.132364 285.503048 
L 154.664727 285.112636 
L 155.197091 284.432014 
L 155.729455 283.323623 
L 156.261818 281.614026 
L 156.794182 279.104801 
L 157.326545 275.598769 
L 157.858909 270.935602 
L 158.657455 261.590466 
L 159.722182 245.131579 
L 162.384 199.863636 
L 163.182545 190.500689 
L 163.714909 186.042869 
L 164.247273 182.980931 
L 164.779636 181.17633 
L 165.045818 180.683736 
L 165.312 180.426932 
L 165.578182 180.376949 
L 165.844364 180.505356 
L 166.376727 181.187962 
L 167.175273 182.916851 
L 170.103273 190.278014 
L 170.901818 191.655593 
L 171.700364 192.638297 
L 172.498909 193.267461 
L 173.297455 193.623485 
L 174.362182 193.833783 
L 178.887273 194.387728 
L 185.541818 195.763569 
L 187.138909 195.750955 
L 189.268364 195.458511 
L 191.930182 195.097545 
L 193.527273 195.100021 
L 194.858182 195.294483 
L 196.189091 195.700972 
L 197.786182 196.447904 
L 199.649455 197.339816 
L 200.714182 197.615177 
L 201.778909 197.636701 
L 204.706909 197.393994 
L 205.505455 197.601817 
L 206.570182 198.126082 
L 208.965818 199.474211 
L 209.764364 199.681542 
L 210.562909 199.702074 
L 211.627636 199.472728 
L 213.224727 198.824269 
L 215.354182 198.017716 
L 217.483636 197.520171 
L 220.411636 197.017684 
L 221.742545 197.043913 
L 223.073455 197.332143 
L 224.936727 197.746551 
L 225.735273 197.712412 
L 226.533818 197.477624 
L 227.598545 196.863795 
L 229.195636 195.561435 
L 231.058909 194.104448 
L 232.123636 193.519324 
L 233.188364 193.177898 
L 234.253091 193.091056 
L 235.317818 193.248659 
L 236.648727 193.703893 
L 239.842909 194.935984 
L 241.173818 195.142077 
L 245.166545 195.486715 
L 249.159273 196.356111 
L 250.490182 196.331128 
L 252.087273 196.087676 
L 254.482909 195.471626 
L 259.008 194.209593 
L 260.605091 194.030466 
L 262.734545 194.037146 
L 274.712727 194.518109 
L 277.108364 194.242994 
L 278.705455 193.858028 
L 279.770182 193.402548 
L 280.834909 192.708066 
L 281.899636 191.71546 
L 282.964364 190.367331 
L 284.029091 188.597369 
L 285.093818 186.310567 
L 286.158545 183.410191 
L 287.223273 179.857398 
L 288.820364 173.626148 
L 290.417455 167.557452 
L 291.216 165.195677 
L 292.014545 163.586538 
L 292.546909 163.007848 
L 293.079273 162.850491 
L 293.611636 163.114239 
L 294.144 163.781501 
L 294.676364 164.816654 
L 295.474909 166.946599 
L 296.539636 170.537244 
L 299.733818 181.894312 
L 301.064727 185.5478 
L 302.129455 187.839798 
L 303.194182 189.556574 
L 303.992727 190.469755 
L 304.791273 191.077395 
L 305.589818 191.42105 
L 306.654545 191.574439 
L 308.251636 191.495024 
L 312.510545 191.087542 
L 313.841455 190.633046 
L 316.769455 189.507829 
L 318.100364 189.306195 
L 320.496 189.275761 
L 322.625455 189.150321 
L 323.956364 188.895 
L 325.287273 188.421455 
L 326.884364 187.577296 
L 328.747636 186.602756 
L 329.812364 186.326895 
L 330.610909 186.338271 
L 331.409455 186.547331 
L 332.474182 187.084711 
L 335.136 188.641409 
L 335.934545 188.809642 
L 336.733091 188.736906 
L 337.531636 188.429373 
L 338.596364 187.761374 
L 340.459636 186.535955 
L 341.258182 186.224963 
L 342.056727 186.103974 
L 343.121455 186.212594 
L 344.718545 186.694049 
L 347.646545 187.574575 
L 349.243636 188.169593 
L 350.840727 189.056308 
L 352.704 190.102855 
L 353.502545 190.351996 
L 354.301091 190.393306 
L 355.099636 190.202803 
L 355.898182 189.791608 
L 356.962909 188.980851 
L 360.157091 186.326394 
L 361.221818 185.769237 
L 362.286545 185.434491 
L 363.351273 185.31524 
L 364.416 185.415689 
L 365.480727 185.739541 
L 366.811636 186.405073 
L 368.941091 187.556273 
L 370.005818 187.8497 
L 370.804364 187.861322 
L 371.869091 187.603771 
L 373.466182 186.871938 
L 375.063273 186.209127 
L 376.128 185.982256 
L 377.458909 185.926831 
L 381.984 185.94415 
L 383.847273 186.000313 
L 385.976727 186.323928 
L 389.703273 187.016426 
L 390.768 187.543404 
L 391.832727 188.394243 
L 393.163636 189.802247 
L 394.760727 191.481909 
L 395.825455 192.273618 
L 396.624 192.615535 
L 397.422545 192.735533 
L 398.221091 192.652404 
L 399.285818 192.280298 
L 400.616727 191.50863 
L 403.544727 189.616195 
L 404.609455 189.2295 
L 405.674182 189.115191 
L 406.738909 189.265368 
L 407.803636 189.633022 
L 409.400727 190.443534 
L 411.796364 191.665732 
L 412.861091 191.959659 
L 413.925818 192.004682 
L 414.990545 191.820368 
L 418.184727 191.026429 
L 419.515636 190.914104 
L 420.048 190.608063 
L 420.580364 189.796559 
L 421.112727 188.069891 
L 421.645091 184.892907 
L 422.177455 179.632001 
L 422.709818 171.625602 
L 423.242182 160.279919 
L 424.040727 136.177327 
L 424.839273 103.612593 
L 426.170182 36.167889 
L 426.436364 21.927273 
L 426.436364 21.927273 
" clip-path="url(#p684e94d375)" style="fill: none; stroke: #ff0000; stroke-width: 3; stroke-linecap: square"/>
   </g>
   <g id="line2d_3">
    <path d="M 27.163636 198.114258 
L 28.228364 181.490974 
L 31.156364 133.079452 
L 32.221091 119.579307 
L 33.552 105.736656 
L 37.012364 73.197817 
L 37.810909 67.767696 
L 38.343273 65.235852 
L 38.875636 63.622852 
L 39.408 62.82067 
L 39.940364 62.586276 
L 40.738909 62.51189 
L 41.005091 62.356008 
L 41.271273 62.051407 
L 41.803636 60.830824 
L 42.336 58.609393 
L 42.868364 55.325825 
L 43.666909 48.796611 
L 44.997818 37.496478 
L 45.530182 34.670216 
L 45.796364 33.939874 
L 46.062545 33.753251 
L 46.328727 34.16233 
L 46.594909 35.206402 
L 47.127273 39.281021 
L 47.659636 45.985271 
L 48.458182 60.395376 
L 49.522909 84.95896 
L 51.12 122.273897 
L 51.918545 136.955562 
L 52.717091 147.793227 
L 53.515636 155.05956 
L 54.314182 159.71336 
L 55.378909 164.007468 
L 56.443636 168.328384 
L 57.774545 174.99739 
L 58.839273 180.27816 
L 59.637818 183.161577 
L 60.170182 184.267991 
L 60.436364 184.547004 
L 60.702545 184.642686 
L 60.968727 184.561023 
L 61.501091 183.91633 
L 62.033455 182.757501 
L 64.162909 177.098543 
L 64.695273 176.356114 
L 65.227636 176.080402 
L 65.76 176.253331 
L 66.292364 176.798638 
L 67.090909 178.056633 
L 68.688 180.660992 
L 69.486545 181.514148 
L 70.551273 182.230682 
L 71.616 182.953017 
L 72.414545 183.871237 
L 72.946909 184.783338 
L 73.745455 186.711114 
L 74.544 189.387357 
L 75.342545 192.844873 
L 76.407273 198.620449 
L 77.738182 207.377003 
L 80.133818 225.264022 
L 84.925091 261.03219 
L 86.522182 271.14213 
L 87.586909 276.679327 
L 88.651636 281.091827 
L 89.450182 283.626372 
L 90.248727 285.48421 
L 91.047273 286.66963 
L 91.579636 287.1011 
L 92.112 287.268938 
L 92.644364 287.205178 
L 93.442909 286.77123 
L 94.507636 285.834732 
L 96.370909 284.201902 
L 98.766545 282.319016 
L 99.831273 281.020119 
L 102.759273 276.936706 
L 103.557818 276.384417 
L 104.356364 276.180751 
L 105.421091 276.23194 
L 106.485818 276.239485 
L 107.284364 275.996862 
L 108.082909 275.504891 
L 109.68 274.339185 
L 110.212364 274.16396 
L 110.744727 274.225372 
L 111.277091 274.582076 
L 111.809455 275.268606 
L 112.341818 276.288599 
L 113.140364 278.375825 
L 114.471273 282.753053 
L 115.802182 286.996107 
L 116.600727 288.946774 
L 117.399273 290.281165 
L 117.931636 290.82928 
L 118.464 291.13524 
L 118.996364 291.239944 
L 119.794909 291.114434 
L 120.593455 290.753154 
L 121.658182 289.982906 
L 122.456727 289.139882 
L 123.255273 287.969196 
L 124.053818 286.383763 
L 124.852364 284.344804 
L 125.917091 280.981276 
L 127.514182 275.020044 
L 136.830545 237.939339 
L 139.226182 226.68961 
L 140.024727 224.103228 
L 140.557091 223.06236 
L 141.089455 222.642765 
L 141.355636 222.666343 
L 141.621818 222.836929 
L 142.154182 223.563837 
L 142.952727 225.300522 
L 144.017455 227.601772 
L 144.549818 228.161765 
L 144.816 228.188933 
L 145.082182 228.015161 
L 145.348364 227.621734 
L 145.880727 226.124306 
L 146.413091 223.646396 
L 147.211636 218.18024 
L 148.010182 210.982825 
L 149.341091 196.741296 
L 154.664727 135.954292 
L 157.858909 95.963621 
L 158.657455 88.683718 
L 159.189818 85.166001 
L 159.722182 82.879876 
L 159.988364 82.221164 
L 160.254545 81.88856 
L 160.520727 81.877482 
L 160.786909 82.179942 
L 161.053091 82.783018 
L 161.585455 84.827429 
L 162.117818 87.858941 
L 162.916364 93.902602 
L 163.981091 104.096514 
L 165.045818 116.423759 
L 166.110545 131.207584 
L 167.441455 153.466012 
L 170.103273 200.27181 
L 170.901818 210.356233 
L 171.700364 217.405973 
L 172.232727 220.550004 
L 172.765091 222.736954 
L 173.563636 225.010571 
L 174.362182 227.254176 
L 174.894545 229.309972 
L 175.426909 232.08705 
L 176.225455 237.790347 
L 177.290182 247.864815 
L 179.685818 272.390574 
L 180.750545 280.585324 
L 181.815273 286.653869 
L 182.88 291.342705 
L 185.808 302.583125 
L 187.138909 306.95535 
L 187.937455 308.979709 
L 188.736 310.495557 
L 189.534545 311.564999 
L 190.333091 312.311715 
L 191.664 313.204503 
L 194.858182 315.010482 
L 195.656727 315.223124 
L 196.455273 315.19254 
L 197.253818 314.865215 
L 198.052364 314.230769 
L 199.117091 312.985297 
L 202.843636 308.085895 
L 204.706909 306.313136 
L 207.368727 304.044075 
L 208.433455 303.392283 
L 209.498182 302.976597 
L 211.095273 302.646772 
L 214.821818 302.084323 
L 215.620364 302.236913 
L 216.418909 302.654675 
L 217.217455 303.392172 
L 218.016 304.464828 
L 219.080727 306.35457 
L 223.073455 314.178887 
L 223.872 315.159968 
L 224.670545 315.836808 
L 225.469091 316.20242 
L 226.267636 316.250753 
L 227.066182 315.978146 
L 227.864727 315.394176 
L 228.663273 314.535925 
L 229.994182 312.709251 
L 231.591273 310.511072 
L 232.389818 309.679388 
L 233.188364 309.139911 
L 233.986909 308.934368 
L 234.785455 309.065146 
L 235.584 309.494695 
L 236.648727 310.396279 
L 238.778182 312.329977 
L 239.576727 312.787321 
L 240.375273 313.026664 
L 241.44 313.06004 
L 244.368 312.832551 
L 245.432727 313.028964 
L 247.029818 313.599985 
L 249.957818 314.709679 
L 255.547636 316.446741 
L 256.612364 316.440892 
L 257.677091 316.203402 
L 259.008 315.623205 
L 260.605091 314.618438 
L 261.936 313.522875 
L 263.000727 312.362727 
L 263.799273 311.224302 
L 264.597818 309.768151 
L 265.396364 307.925068 
L 266.461091 304.801552 
L 267.525818 300.945764 
L 269.122909 294.143583 
L 271.784727 281.560867 
L 273.914182 270.499022 
L 275.777455 259.592803 
L 277.906909 245.729989 
L 279.504 233.864834 
L 280.568727 224.500781 
L 281.633455 213.290747 
L 282.698182 199.789241 
L 284.029091 179.626287 
L 285.626182 151.668793 
L 288.021818 105.388305 
L 290.949818 47.978997 
L 291.748364 35.498556 
L 292.546909 26.487007 
L 293.079273 23.015428 
L 293.345455 22.15798 
L 293.611636 21.927273 
L 293.877818 22.344831 
L 294.144 23.425034 
L 294.676364 27.587346 
L 295.208727 34.348953 
L 296.007273 48.856583 
L 297.072 74.189887 
L 299.733818 141.487873 
L 300.798545 162.101348 
L 301.863273 178.435532 
L 303.194182 194.932192 
L 304.791273 211.704599 
L 305.856 221.117432 
L 306.654545 226.821993 
L 307.453091 231.142584 
L 308.251636 234.095067 
L 309.050182 235.926836 
L 309.848727 237.060217 
L 311.179636 238.709234 
L 311.978182 240.193775 
L 312.776727 242.290355 
L 313.841455 245.958129 
L 316.503273 255.855827 
L 317.568 258.640968 
L 318.632727 260.676399 
L 320.229818 263.530724 
L 321.028364 265.433952 
L 321.826909 267.848234 
L 322.891636 271.779436 
L 325.553455 282.032991 
L 326.618182 285.036534 
L 327.682909 287.262999 
L 329.28 289.859876 
L 330.610909 292.161486 
L 331.941818 294.96665 
L 334.071273 299.637715 
L 334.869818 300.936454 
L 335.668364 301.759232 
L 336.200727 302.004491 
L 336.733091 302.001923 
L 337.265455 301.764901 
L 338.064 301.034906 
L 339.128727 299.596325 
L 341.258182 296.59142 
L 342.322909 295.495522 
L 344.984727 293.054541 
L 346.049455 291.630648 
L 348.711273 287.728269 
L 349.509818 287.001064 
L 350.308364 286.621677 
L 351.106909 286.556489 
L 352.171636 286.769824 
L 353.502545 287.009434 
L 354.301091 286.885757 
L 355.099636 286.465694 
L 355.898182 285.767913 
L 358.293818 283.410827 
L 358.826182 283.200328 
L 359.358545 283.203319 
L 359.890909 283.432996 
L 360.423273 283.879848 
L 361.221818 284.88381 
L 364.149818 289.090096 
L 364.948364 289.639061 
L 365.480727 289.786716 
L 366.013091 289.769349 
L 366.811636 289.484575 
L 368.142545 288.638446 
L 369.207273 288.070171 
L 369.739636 287.961272 
L 370.272 288.021279 
L 370.804364 288.270335 
L 371.602909 288.99265 
L 372.667636 290.442819 
L 374.264727 292.714289 
L 375.063273 293.430934 
L 375.595636 293.652374 
L 376.128 293.652841 
L 376.660364 293.442208 
L 377.458909 292.80006 
L 380.120727 290.066333 
L 380.919273 289.756065 
L 381.717818 289.802723 
L 382.782545 290.216066 
L 383.847273 290.553906 
L 384.379636 290.516511 
L 384.912 290.269758 
L 385.444364 289.788748 
L 386.242909 288.639517 
L 387.307636 286.500901 
L 394.760727 269.878196 
L 395.825455 268.2647 
L 397.422545 266.051139 
L 398.221091 264.440903 
L 399.019636 262.060645 
L 399.818182 258.651528 
L 400.616727 254.092711 
L 401.681455 246.37006 
L 404.875636 220.974488 
L 405.674182 216.724842 
L 406.472727 213.810219 
L 407.271273 211.96897 
L 408.868364 209.082788 
L 409.400727 207.539345 
L 409.933091 205.370057 
L 410.465455 202.448113 
L 411.264 196.568542 
L 412.328727 186.333698 
L 414.990545 158.596184 
L 416.055273 150.091186 
L 418.450909 132.671093 
L 419.515636 122.262345 
L 420.846545 106.258657 
L 422.709818 83.792047 
L 423.508364 76.577155 
L 424.040727 73.053434 
L 424.573091 70.63669 
L 425.105455 69.299165 
L 425.371636 69.005027 
L 425.637818 68.936031 
L 425.904 69.069546 
L 426.436364 69.84118 
L 426.436364 69.84118 
" clip-path="url(#p684e94d375)" style="fill: none; stroke: #0000ff; stroke-width: 3; stroke-linecap: square"/>
   </g>
   <g id="patch_3">
    <path d="M 7.2 331.2 
L 7.2 7.2 
" style="fill: none; stroke: #000000; stroke-width: 0.8; stroke-linejoin: miter; stroke-linecap: square"/>
   </g>
   <g id="patch_4">
    <path d="M 446.4 331.2 
L 446.4 7.2 
" style="fill: none; stroke: #000000; stroke-width: 0.8; stroke-linejoin: miter; stroke-linecap: square"/>
   </g>
   <g id="patch_5">
    <path d="M 7.2 331.2 
L 446.4 331.2 
" style="fill: none; stroke: #000000; stroke-width: 0.8; stroke-linejoin: miter; stroke-linecap: square"/>
   </g>
   <g id="patch_6">
    <path d="M 7.2 7.2 
L 446.4 7.2 
" style="fill: none; stroke: #000000; stroke-width: 0.8; stroke-linejoin: miter; stroke-linecap: square"/>
   </g>
  </g>
 </g>
 <defs>
  <clipPath id="p684e94d375">
   <rect x="7.2" y="7.2" width="439.2" height="324"/>
  </clipPath>
 </defs>
</svg>
