<?xml version="1.0" encoding="utf-8" standalone="no"?>
<!DOCTYPE svg PUBLIC "-//W3C//DTD SVG 1.1//EN"
  "http://www.w3.org/Graphics/SVG/1.1/DTD/svg11.dtd">
<svg xmlns:xlink="http://www.w3.org/1999/xlink" width="453.6pt" height="338.4pt" viewBox="0 0 453.6 338.4" xmlns="http://www.w3.org/2000/svg" version="1.1">
 <metadata>
  <rdf:RDF xmlns:dc="http://purl.org/dc/elements/1.1/" xmlns:cc="http://creativecommons.org/ns#" xmlns:rdf="http://www.w3.org/1999/02/22-rdf-syntax-ns#">
   <cc:Work>
    <dc:type rdf:resource="http://purl.org/dc/dcmitype/StillImage"/>
    <dc:date>2025-05-15T09:27:01.817371</dc:date>
    <dc:format>image/svg+xml</dc:format>
    <dc:creator>
     <cc:Agent>
      <dc:title>Matplotlib v3.10.1, https://matplotlib.org/</dc:title>
     </cc:Agent>
    </dc:creator>
   </cc:Work>
  </rdf:RDF>
 </metadata>
 <defs>
  <style type="text/css">*{stroke-linejoin: round; stroke-linecap: butt}</style>
 </defs>
 <g id="figure_1">
  <g id="patch_1">
   <path d="M 0 338.4 
L 453.6 338.4 
L 453.6 0 
L 0 0 
z
" style="fill: #ffffff"/>
  </g>
  <g id="axes_1">
   <g id="patch_2">
    <path d="M 7.2 331.2 
L 446.4 331.2 
L 446.4 7.2 
L 7.2 7.2 
z
" style="fill: #ffffff"/>
   </g>
   <g id="matplotlib.axis_1"/>
   <g id="matplotlib.axis_2"/>
   <g id="line2d_1">
    <path d="M 27.163636 72.975326 
L 27.429818 62.926324 
L 27.696 62.732432 
L 28.760727 68.132498 
L 29.026909 69.882613 
L 29.825455 71.927585 
L 30.357818 73.918766 
L 30.624 74.3648 
L 30.890182 75.361295 
L 31.156364 78.270159 
L 31.422545 88.260541 
L 32.221091 102.048258 
L 32.487273 104.457998 
L 33.285818 108.772786 
L 34.084364 113.578642 
L 34.616727 117.082769 
L 34.882909 117.947556 
L 35.415273 120.825416 
L 35.681455 129.126182 
L 36.213818 132.010064 
L 36.746182 135.550235 
L 37.012364 137.354089 
L 37.810909 148.964161 
L 38.875636 163.430849 
L 39.408 166.205162 
L 39.674182 167.064911 
L 39.940364 167.347549 
L 40.206545 166.889945 
L 40.738909 168.6619 
L 41.271273 167.740617 
L 41.537455 167.511174 
L 41.803636 166.470315 
L 42.336 161.548992 
L 42.868364 157.521213 
L 43.134545 154.337347 
L 43.666909 143.882058 
L 43.933091 136.410791 
L 44.199273 124.510444 
L 44.465455 120.208506 
L 44.731636 118.243169 
L 45.530182 115.152474 
L 46.861091 106.751216 
L 47.127273 106.064432 
L 47.393455 106.061746 
L 48.192 101.386843 
L 48.990545 103.977149 
L 49.256727 105.083475 
L 49.522909 105.412831 
L 49.789091 104.453819 
L 50.321455 100.886858 
L 50.853818 97.165454 
L 51.386182 95.252328 
L 51.652364 95.072166 
L 51.918545 94.343247 
L 52.450909 92.035211 
L 52.717091 95.397449 
L 52.983273 94.949096 
L 53.249455 95.128732 
L 53.781818 96.288342 
L 54.048 96.296769 
L 54.580364 95.394271 
L 54.846545 95.179031 
L 55.112727 95.697608 
L 55.645091 98.662495 
L 55.911273 100.652253 
L 56.177455 101.363353 
L 56.709818 101.716515 
L 56.976 103.632905 
L 57.242182 102.949071 
L 57.508364 102.891978 
L 57.774545 103.867913 
L 58.040727 103.815929 
L 58.306909 102.145327 
L 58.839273 96.654671 
L 59.904 81.938947 
L 60.968727 72.840073 
L 61.234909 60.717007 
L 61.501091 60.52617 
L 62.299636 60.783089 
L 62.565818 60.684089 
L 62.832 60.46597 
L 63.098182 60.419393 
L 63.630545 60.557965 
L 64.162909 60.43881 
L 64.695273 60.881193 
L 64.961455 61.115605 
L 65.227636 61.742223 
L 65.493818 63.380909 
L 65.76 64.025874 
L 66.026182 64.111654 
L 66.292364 63.620359 
L 66.558545 62.589963 
L 67.090909 58.738502 
L 67.623273 55.506199 
L 67.889455 54.582282 
L 68.155636 54.28307 
L 68.421818 54.692237 
L 68.688 55.618453 
L 69.220364 56.483697 
L 69.486545 57.505841 
L 69.752727 61.615836 
L 70.285091 65.074229 
L 70.817455 68.474476 
L 71.083636 71.283779 
L 71.349818 75.965002 
L 72.414545 100.901061 
L 72.680727 103.270263 
L 72.946909 103.808995 
L 73.213091 102.759375 
L 73.745455 99.707251 
L 74.544 101.360526 
L 74.810182 102.443222 
L 75.874909 108.660689 
L 76.407273 111.414374 
L 76.939636 114.780053 
L 77.738182 121.769628 
L 78.536727 130.409125 
L 79.069091 132.456274 
L 79.601455 133.453225 
L 80.133818 133.877139 
L 80.932364 133.817448 
L 81.730909 133.625522 
L 82.263273 133.4626 
L 82.529455 133.46339 
L 82.795636 133.298133 
L 83.328 132.735876 
L 83.594182 132.671549 
L 83.860364 132.878433 
L 84.392727 133.714568 
L 85.191273 134.974301 
L 86.522182 136.078047 
L 87.054545 137.445803 
L 87.320727 137.697332 
L 87.853091 137.775651 
L 88.385455 138.15276 
L 89.450182 139.292934 
L 90.248727 138.536364 
L 90.781091 137.929198 
L 91.313455 139.354188 
L 91.579636 139.581472 
L 91.845818 139.608157 
L 92.112 139.769166 
L 93.176727 141.509924 
L 93.442909 141.695792 
L 93.709091 140.884235 
L 94.773818 131.653268 
L 95.04 131.194557 
L 95.306182 111.323187 
L 95.838545 112.303775 
L 96.370909 113.827537 
L 97.701818 121.098996 
L 97.968 121.802792 
L 98.234182 121.959183 
L 98.500364 122.693071 
L 98.766545 125.361045 
L 99.032727 130.150486 
L 99.831273 155.496588 
L 100.097455 159.70611 
L 100.363636 162.006105 
L 101.162182 165.023485 
L 101.428364 165.560514 
L 102.226909 165.947594 
L 102.493091 165.668783 
L 102.759273 165.210231 
L 103.025455 164.97847 
L 103.291636 165.227436 
L 103.824 166.704674 
L 104.888727 176.825358 
L 105.421091 179.223871 
L 105.687273 179.734442 
L 105.953455 179.743343 
L 106.219636 179.974533 
L 106.485818 179.881511 
L 106.752 179.275021 
L 107.018182 178.263533 
L 107.284364 177.829393 
L 107.550545 177.854639 
L 107.816727 178.547936 
L 108.082909 179.66233 
L 108.615273 183.045029 
L 108.881455 183.689924 
L 109.147636 183.234734 
L 109.413818 182.288161 
L 110.212364 176.635382 
L 110.478545 176.08142 
L 110.744727 175.988749 
L 111.010909 176.080524 
L 111.277091 176.722663 
L 111.809455 178.88313 
L 112.341818 182.246947 
L 112.608 184.508758 
L 112.874182 185.753981 
L 113.140364 185.915182 
L 113.406545 184.856837 
L 113.672727 182.766183 
L 114.737455 168.437057 
L 115.269818 166.471035 
L 115.536 166.136956 
L 116.068364 166.025369 
L 116.334545 165.758917 
L 116.866909 164.320426 
L 117.399273 161.933984 
L 117.665455 161.420498 
L 117.931636 164.01916 
L 118.464 183.279019 
L 118.996364 180.544919 
L 119.262545 180.709176 
L 119.528727 182.776778 
L 120.061091 190.680728 
L 120.593455 193.827138 
L 121.924364 197.191026 
L 122.456727 200.432731 
L 122.989091 206.212416 
L 124.053818 222.849631 
L 124.586182 227.048478 
L 125.384727 231.348256 
L 125.650909 231.900804 
L 125.917091 231.881896 
L 126.449455 231.631368 
L 126.981818 231.696932 
L 128.312727 232.398806 
L 128.578909 233.019201 
L 129.111273 235.360436 
L 129.377455 227.426903 
L 129.909818 228.222492 
L 130.708364 228.792887 
L 132.039273 230.254622 
L 132.305455 230.313454 
L 132.571636 230.112469 
L 133.370182 230.041024 
L 133.636364 230.167034 
L 133.902545 230.158932 
L 134.168727 229.897414 
L 135.499636 226.10804 
L 136.032 224.201043 
L 136.564364 222.410039 
L 137.362909 218.424729 
L 137.629091 216.997386 
L 138.427636 208.270389 
L 139.226182 197.275595 
L 139.758545 190.31425 
L 140.290909 183.294416 
L 140.557091 181.62075 
L 141.355636 179.140461 
L 141.888 177.914401 
L 142.154182 178.008634 
L 142.420364 178.506916 
L 142.686545 179.602463 
L 143.218909 183.367793 
L 145.348364 201.720054 
L 145.880727 209.094682 
L 146.146909 213.172058 
L 146.413091 213.618505 
L 147.211636 226.484807 
L 147.744 242.561511 
L 148.276364 246.609993 
L 148.542545 247.614291 
L 149.074909 250.974137 
L 150.139636 259.995535 
L 150.405818 260.756297 
L 151.204364 261.068132 
L 151.470545 261.591717 
L 151.736727 262.449982 
L 152.269091 265.117448 
L 152.535273 266.067883 
L 153.067636 267.081868 
L 153.866182 268.627786 
L 154.664727 270.498324 
L 154.930909 270.503928 
L 155.463273 272.167711 
L 155.995636 275.095782 
L 156.794182 283.928948 
L 157.858909 287.395104 
L 158.391273 288.009687 
L 158.923636 288.237504 
L 160.786909 288.513906 
L 161.851636 288.906991 
L 162.384 288.819034 
L 164.247273 288.421716 
L 165.045818 288.463447 
L 166.110545 288.54085 
L 168.24 288.079902 
L 169.038545 288.344315 
L 169.570909 288.478532 
L 169.837091 288.197674 
L 170.369455 287.061315 
L 172.232727 282.077889 
L 172.765091 280.845081 
L 173.031273 279.822206 
L 173.297455 278.295716 
L 173.563636 276.029604 
L 174.096 269.278136 
L 174.362182 268.272499 
L 174.894545 267.762059 
L 175.693091 267.291108 
L 176.225455 267.05595 
L 177.024 266.38114 
L 178.354909 264.257778 
L 178.621091 263.49886 
L 179.153455 260.942429 
L 180.218182 254.459773 
L 180.484364 249.455752 
L 181.016727 247.063314 
L 181.282909 246.50358 
L 181.549091 246.231313 
L 181.815273 246.449603 
L 182.347636 247.26755 
L 182.613818 247.36738 
L 182.88 247.187459 
L 183.146182 246.561174 
L 183.678545 244.687089 
L 183.944727 244.541118 
L 184.210909 244.877465 
L 184.477091 245.535325 
L 184.743273 245.718705 
L 185.808 248.38707 
L 186.340364 249.371903 
L 186.606545 249.837552 
L 186.872727 249.824886 
L 187.138909 249.563376 
L 187.405091 248.829322 
L 187.671273 247.34144 
L 188.469818 241.601411 
L 188.736 240.417565 
L 189.002182 237.287298 
L 189.800727 234.797713 
L 190.066909 234.426161 
L 190.333091 234.875628 
L 190.599273 235.872298 
L 190.865455 236.313838 
L 191.131636 235.361998 
L 191.664 231.121025 
L 192.196364 226.85714 
L 192.462545 226.208041 
L 192.728727 226.212904 
L 194.059636 227.808454 
L 195.124364 226.566979 
L 195.656727 224.946069 
L 196.721455 221.007319 
L 197.253818 219.751518 
L 197.52 218.232303 
L 197.786182 217.58783 
L 198.850909 212.081216 
L 199.383273 208.461296 
L 199.649455 207.312834 
L 200.181818 201.47503 
L 200.980364 189.531898 
L 201.512727 181.184951 
L 201.778909 178.777063 
L 202.311273 176.794275 
L 202.843636 176.130779 
L 203.109818 175.19546 
L 203.642182 171.281174 
L 203.908364 167.888564 
L 205.239273 142.077202 
L 205.505455 139.868394 
L 206.037818 138.225144 
L 206.836364 137.347295 
L 207.368727 136.288704 
L 207.901091 134.694945 
L 208.965818 130.881002 
L 209.498182 130.161809 
L 209.764364 130.062248 
L 210.829091 130.205911 
L 212.426182 129.883086 
L 213.490909 129.7291 
L 213.757091 129.842355 
L 214.023273 130.151328 
L 214.555636 131.551038 
L 215.886545 135.692686 
L 216.152727 136.8583 
L 216.418909 138.728307 
L 217.217455 147.291697 
L 217.483636 153.022119 
L 218.016 168.888955 
L 218.548364 175.801169 
L 219.080727 181.38791 
L 219.346909 182.75715 
L 220.411636 185.401767 
L 220.677818 186.908999 
L 221.476364 193.275757 
L 221.742545 194.247699 
L 222.008727 194.409857 
L 222.541091 192.859217 
L 222.807273 192.688692 
L 223.073455 193.742859 
L 223.605818 198.020885 
L 224.404364 205.06794 
L 224.936727 208.117447 
L 225.202909 208.691239 
L 225.469091 208.556934 
L 225.735273 207.573176 
L 226.001455 205.672349 
L 227.066182 193.481771 
L 227.332364 193.447018 
L 227.598545 194.463079 
L 228.663273 200.667459 
L 229.195636 201.261739 
L 229.461818 201.357973 
L 229.728 201.06747 
L 229.994182 200.448874 
L 230.260364 200.112689 
L 230.526545 200.206896 
L 231.058909 199.739487 
L 231.325091 200.481467 
L 232.389818 209.520677 
L 232.656 210.043002 
L 232.922182 209.891685 
L 233.188364 209.032621 
L 233.720727 205.250042 
L 234.253091 199.487773 
L 234.785455 193.957204 
L 235.584 188.962531 
L 235.850182 189.164516 
L 236.116364 190.185984 
L 236.914909 196.019961 
L 237.181091 196.206804 
L 237.447273 195.452015 
L 237.713455 193.591384 
L 238.245818 187.580395 
L 238.778182 179.51318 
L 239.310545 175.215298 
L 239.842909 172.979313 
L 240.109091 172.298358 
L 240.375273 171.940201 
L 240.907636 171.636636 
L 241.173818 170.729099 
L 241.44 168.71427 
L 241.972364 159.866907 
L 242.504727 152.042777 
L 243.037091 146.605563 
L 243.303273 145.197304 
L 243.569455 146.324223 
L 243.835636 146.730511 
L 244.101818 148.31586 
L 244.634182 154.148881 
L 245.432727 166.72618 
L 245.698909 167.847324 
L 245.965091 168.034369 
L 246.231273 167.526114 
L 246.763636 165.202752 
L 247.029818 163.457272 
L 247.296 162.778546 
L 247.562182 163.45218 
L 247.828364 166.349282 
L 249.691636 176.98979 
L 249.957818 177.665628 
L 250.224 177.591067 
L 250.756364 176.652789 
L 251.288727 176.639525 
L 251.554909 177.160218 
L 251.821091 178.654995 
L 252.353455 187.611663 
L 252.885818 193.705385 
L 253.418182 196.38672 
L 253.684364 196.835485 
L 253.950545 196.836714 
L 255.015273 195.886287 
L 255.281455 195.929862 
L 255.813818 195.441192 
L 256.08 195.042454 
L 256.346182 196.417207 
L 256.612364 195.465305 
L 257.144727 192.040278 
L 257.677091 185.492629 
L 258.209455 179.071008 
L 259.540364 166.275826 
L 260.338909 153.65562 
L 260.605091 152.512636 
L 261.137455 147.541102 
L 261.669818 145.457207 
L 262.468364 144.518912 
L 262.734545 143.665378 
L 264.331636 134.664292 
L 264.597818 135.100285 
L 265.396364 143.001417 
L 265.928727 145.46135 
L 266.461091 148.149005 
L 266.993455 150.801513 
L 267.259636 150.412905 
L 267.525818 149.034755 
L 268.058182 145.209628 
L 268.324364 143.880758 
L 268.590545 143.738184 
L 268.856727 144.145121 
L 269.122909 156.359567 
L 269.389091 157.031744 
L 269.655273 156.117466 
L 269.921455 152.91571 
L 270.187636 147.78782 
L 270.453818 145.274095 
L 271.252364 144.135166 
L 271.518545 143.049486 
L 271.784727 141.481342 
L 272.050909 138.300724 
L 272.317091 137.55797 
L 272.583273 135.962017 
L 272.849455 135.139049 
L 273.115636 133.150204 
L 273.381818 142.428644 
L 273.648 138.982926 
L 273.914182 132.733874 
L 274.446545 115.733903 
L 274.978909 108.002399 
L 275.245091 105.948403 
L 276.043636 103.397897 
L 276.309818 102.88406 
L 277.108364 102.2323 
L 277.374545 102.097802 
L 277.640727 102.562411 
L 278.705455 102.458057 
L 279.770182 102.758532 
L 280.568727 103.055549 
L 281.101091 103.778131 
L 281.367273 104.390055 
L 281.633455 105.384319 
L 281.899636 110.042035 
L 282.432 113.201989 
L 282.698182 114.203522 
L 283.230545 114.795081 
L 283.496727 114.890692 
L 283.762909 114.855281 
L 284.029091 115.116607 
L 284.561455 115.155669 
L 284.827636 115.245926 
L 285.36 118.23899 
L 285.626182 121.558356 
L 285.892364 127.389901 
L 286.158545 145.037313 
L 286.690909 163.857836 
L 286.957091 168.515955 
L 287.489455 171.829228 
L 287.755636 173.146748 
L 288.288 178.182195 
L 288.554182 184.562076 
L 289.352727 212.31661 
L 289.885091 217.224986 
L 290.151273 218.327625 
L 290.417455 221.186208 
L 290.683636 220.770063 
L 290.949818 219.795128 
L 291.216 217.942598 
L 291.482182 213.494347 
L 292.280727 175.23045 
L 292.546909 168.33581 
L 293.079273 127.287619 
L 293.611636 108.831354 
L 294.144 97.258467 
L 294.410182 94.73958 
L 294.676364 94.645478 
L 294.942545 94.245581 
L 295.208727 94.146318 
L 295.474909 94.233555 
L 295.741091 94.478623 
L 296.007273 95.134017 
L 296.273455 96.414168 
L 296.539636 98.548906 
L 297.338182 109.199193 
L 297.604364 113.742143 
L 298.136727 131.022734 
L 298.669091 151.316281 
L 298.935273 158.691515 
L 299.201455 158.614302 
L 299.467636 156.094134 
L 300 148.147952 
L 300.266182 146.402981 
L 300.532364 147.370894 
L 300.798545 150.402547 
L 301.064727 155.332911 
L 301.863273 176.286767 
L 302.661818 192.801851 
L 303.194182 216.404151 
L 303.460364 218.23484 
L 303.726545 219.095449 
L 303.992727 219.484312 
L 305.323636 220.209017 
L 306.122182 220.24377 
L 306.654545 219.935885 
L 306.920727 219.649253 
L 307.186909 219.171064 
L 307.453091 219.771339 
L 307.719273 219.193334 
L 307.985455 217.445563 
L 308.251636 211.236408 
L 308.784 184.205175 
L 309.316364 167.455275 
L 309.848727 159.75611 
L 310.381091 155.607474 
L 310.913455 152.89603 
L 311.179636 153.473245 
L 311.445818 155.718886 
L 311.712 159.986132 
L 311.978182 161.1288 
L 312.244364 161.394778 
L 312.510545 160.594194 
L 313.042909 155.110947 
L 313.575273 149.648189 
L 314.373818 145.220847 
L 315.172364 141.585802 
L 315.438545 140.891047 
L 315.704727 140.750299 
L 315.970909 144.389469 
L 316.237091 144.154391 
L 317.035636 142.91583 
L 317.568 142.37831 
L 317.834182 142.271023 
L 318.100364 142.541127 
L 318.366545 142.354468 
L 318.898909 142.398938 
L 319.431273 143.288673 
L 319.697455 144.443753 
L 319.963636 146.271063 
L 320.229818 151.394845 
L 320.762182 157.204603 
L 321.028364 158.824451 
L 322.093091 160.911453 
L 322.625455 162.753511 
L 323.424 165.177488 
L 324.222545 163.675531 
L 324.488727 166.233727 
L 326.352 136.932844 
L 326.884364 132.302411 
L 327.416727 123.276413 
L 328.215273 106.737329 
L 328.481455 104.527433 
L 329.013818 105.016428 
L 329.28 104.739003 
L 330.078545 102.513412 
L 330.344727 102.29991 
L 330.877091 103.835785 
L 331.143273 102.733005 
L 331.675636 99.229756 
L 331.941818 99.670927 
L 332.208 101.17787 
L 332.474182 104.489757 
L 333.006545 115.359691 
L 333.272727 118.529143 
L 333.538909 119.200987 
L 333.805091 118.401526 
L 334.337455 115.855936 
L 334.603636 116.28589 
L 336.733091 131.391785 
L 337.531636 137.048435 
L 338.064 138.586698 
L 338.596364 139.563916 
L 339.394909 141.712295 
L 339.661091 141.833732 
L 339.927273 141.662839 
L 340.459636 140.684041 
L 341.258182 138.285959 
L 341.524364 140.088901 
L 342.056727 138.943459 
L 342.322909 139.35612 
L 342.855273 142.888179 
L 343.653818 149.811813 
L 344.718545 158.795114 
L 345.250909 163.073456 
L 346.049455 172.945386 
L 346.581818 176.616167 
L 346.848 177.715751 
L 347.114182 177.945598 
L 347.380364 177.495341 
L 347.912727 175.816048 
L 348.977455 169.376265 
L 349.243636 168.683354 
L 349.509818 168.367938 
L 349.776 168.941572 
L 350.042182 168.728737 
L 350.308364 168.663919 
L 350.574545 168.477805 
L 350.840727 168.969346 
L 351.905455 172.385929 
L 352.171636 172.442267 
L 352.704 171.04707 
L 352.970182 170.954416 
L 353.236364 171.119858 
L 353.768727 172.018511 
L 354.034909 172.666364 
L 354.567273 172.157056 
L 354.833455 172.634851 
L 355.099636 174.555253 
L 356.164364 187.405096 
L 356.430545 188.734694 
L 356.696727 188.208541 
L 357.761455 183.15114 
L 358.027636 182.133508 
L 358.293818 181.87601 
L 358.56 187.877913 
L 359.624727 181.570987 
L 359.890909 181.50077 
L 360.423273 182.413732 
L 360.689455 182.215408 
L 360.955636 181.727009 
L 361.488 179.796995 
L 362.020364 176.764069 
L 362.286545 175.581917 
L 362.552727 176.259432 
L 362.818909 172.278195 
L 363.351273 178.162506 
L 364.149818 188.781394 
L 364.682182 193.35641 
L 364.948364 193.808414 
L 365.214545 193.393375 
L 366.013091 189.127489 
L 366.279273 188.456708 
L 366.545455 188.125474 
L 366.811636 188.989207 
L 367.077818 187.578754 
L 369.207273 200.672655 
L 369.473455 200.711578 
L 370.005818 198.718115 
L 370.272 196.744351 
L 370.538182 195.831012 
L 370.804364 195.544274 
L 371.070545 197.173961 
L 371.336727 197.449946 
L 372.135273 208.633268 
L 373.2 219.6954 
L 373.466182 218.420779 
L 373.998545 210.005976 
L 374.797091 195.332027 
L 375.063273 192.674656 
L 375.329455 192.056315 
L 375.595636 182.78855 
L 377.192727 194.185427 
L 377.458909 194.705294 
L 377.725091 194.195864 
L 378.523636 190.722688 
L 378.789818 189.970498 
L 379.056 189.918602 
L 379.322182 190.14743 
L 379.588364 191.05027 
L 379.854545 190.4815 
L 380.386909 194.272014 
L 380.919273 196.553171 
L 381.185455 196.027949 
L 381.451636 194.400403 
L 382.782545 179.734591 
L 383.581091 161.495621 
L 383.847273 160.11266 
L 384.113455 158.007803 
L 384.379636 159.287743 
L 384.645818 162.033106 
L 385.178182 170.414192 
L 385.444364 172.320023 
L 385.976727 173.56148 
L 386.242909 174.157989 
L 386.775273 176.607678 
L 389.170909 196.657078 
L 390.235636 206.511601 
L 390.501818 209.771784 
L 390.768 211.083721 
L 391.034182 210.971106 
L 391.300364 211.190384 
L 391.566545 212.229953 
L 392.098909 215.98172 
L 392.631273 224.359541 
L 392.897455 227.134933 
L 393.163636 228.225521 
L 393.429818 229.894236 
L 393.696 229.989417 
L 393.962182 231.835767 
L 394.228364 232.825599 
L 394.494545 233.311899 
L 396.357818 209.496949 
L 396.624 209.286177 
L 396.890182 203.240024 
L 397.156364 204.025887 
L 397.422545 203.910138 
L 397.688727 203.353718 
L 397.954909 202.076894 
L 398.753455 199.92352 
L 399.818182 195.394167 
L 400.084364 194.543557 
L 400.616727 194.42607 
L 400.882909 195.125811 
L 401.149091 191.881165 
L 401.681455 193.81362 
L 402.213818 194.846526 
L 402.48 194.428212 
L 403.012364 192.487094 
L 404.077091 184.845619 
L 404.875636 171.288477 
L 405.141818 167.883455 
L 405.408 143.502315 
L 405.940364 137.525544 
L 406.472727 135.016594 
L 407.005091 133.035719 
L 407.271273 132.673305 
L 407.537455 132.552255 
L 408.336 132.932383 
L 408.602182 132.717828 
L 408.868364 134.027315 
L 409.134545 136.822854 
L 409.400727 142.552292 
L 409.666909 162.515869 
L 410.199273 168.408668 
L 410.465455 174.154022 
L 410.997818 190.233078 
L 411.530182 198.73101 
L 412.062545 203.054173 
L 412.594909 204.548028 
L 412.861091 202.82121 
L 413.393455 205.675387 
L 413.659636 209.131436 
L 413.925818 200.31334 
L 414.458182 207.552776 
L 414.990545 212.824373 
L 415.256727 213.093844 
L 415.789091 211.527666 
L 416.055273 211.659593 
L 417.12 206.839947 
L 417.386182 207.646079 
L 417.652364 209.271904 
L 417.918545 214.514568 
L 418.184727 207.049929 
L 419.249455 227.749412 
L 420.048 235.550403 
L 420.580364 238.592441 
L 420.846545 238.650561 
L 421.112727 239.171464 
L 421.378909 236.335652 
L 421.911273 237.87072 
L 422.177455 241.784163 
L 422.443636 231.655227 
L 422.976 242.49923 
L 423.508364 250.18561 
L 424.306909 256.387905 
L 424.839273 261.78984 
L 425.105455 263.686949 
L 425.371636 266.446093 
L 425.637818 267.798554 
L 426.170182 272.779591 
L 426.436364 270.478393 
L 426.436364 270.478393 
" clip-path="url(#p4178fa878f)" style="fill: none; stroke: #ffa500; stroke-width: 3; stroke-linecap: square"/>
   </g>
   <g id="line2d_2">
    <path d="M 27.163636 113.110679 
L 27.429818 280.063449 
L 27.696 306.358029 
L 27.962182 310.344641 
L 28.228364 311.041381 
L 28.760727 311.392236 
L 29.026909 311.489308 
L 31.156364 311.024763 
L 31.688727 310.55649 
L 31.954909 310.649057 
L 32.487273 311.578148 
L 33.285818 313.093396 
L 33.818182 313.522064 
L 34.350545 313.697569 
L 34.882909 313.618048 
L 35.415273 313.531382 
L 35.681455 314.148291 
L 35.947636 314.317895 
L 36.48 315.055794 
L 37.278545 316.06394 
L 37.810909 316.421008 
L 38.343273 316.437626 
L 38.609455 316.331702 
L 39.141818 315.691962 
L 40.472727 313.787807 
L 41.271273 313.6415 
L 41.803636 313.55965 
L 42.336 313.087494 
L 42.868364 312.340431 
L 43.400727 311.071046 
L 44.731636 307.119847 
L 45.264 306.605912 
L 45.796364 306.44687 
L 46.594909 306.283323 
L 47.127273 305.987916 
L 47.659636 305.535018 
L 48.724364 305.291485 
L 49.256727 305.951106 
L 50.321455 307.611572 
L 50.587636 307.747162 
L 51.12 307.681308 
L 51.386182 307.480332 
L 52.184727 306.2841 
L 52.450909 305.798276 
L 52.717091 305.007726 
L 53.249455 304.353541 
L 54.314182 303.660994 
L 55.378909 303.31542 
L 57.242182 303.114598 
L 60.968727 303.086176 
L 61.767273 303.085088 
L 66.026182 303.07375 
L 68.155636 303.214775 
L 69.486545 303.293365 
L 70.285091 303.180917 
L 73.213091 303.251585 
L 74.277818 303.23186 
L 76.141091 303.270999 
L 77.472 303.225492 
L 79.601455 303.039892 
L 84.392727 303.152961 
L 86.256 303.187907 
L 89.184 303.029485 
L 100.629818 302.783933 
L 101.428364 302.540711 
L 102.493091 301.83108 
L 103.025455 301.403188 
L 103.557818 301.084638 
L 103.824 301.395267 
L 104.356364 301.429746 
L 104.888727 301.104052 
L 105.687273 300.218139 
L 105.953455 299.912791 
L 106.485818 299.788073 
L 106.752 299.742566 
L 107.284364 300.053505 
L 108.615273 301.591895 
L 108.881455 301.605718 
L 109.413818 301.346343 
L 109.946182 300.835048 
L 110.744727 299.760117 
L 111.010909 299.48785 
L 111.277091 299.562246 
L 111.809455 300.674764 
L 112.075636 301.202833 
L 112.341818 301.191184 
L 112.874182 302.060012 
L 113.406545 302.220453 
L 115.536 302.477032 
L 116.600727 302.779119 
L 117.399273 302.834721 
L 118.996364 302.801795 
L 121.392 302.936297 
L 126.183273 302.759549 
L 129.111273 302.786729 
L 129.377455 302.990502 
L 136.298182 303.021409 
L 136.830545 303.112269 
L 137.629091 303.493099 
L 138.161455 304.150701 
L 138.693818 304.557003 
L 139.492364 304.948085 
L 139.758545 304.808302 
L 140.290909 304.234881 
L 140.557091 304.200245 
L 140.823273 304.560731 
L 141.621818 307.173741 
L 142.154182 307.786612 
L 142.420364 307.820159 
L 142.686545 307.72169 
L 142.952727 307.432961 
L 143.218909 306.903805 
L 143.485091 306.03715 
L 144.283636 302.003634 
L 144.549818 303.294297 
L 145.082182 306.727678 
L 145.348364 307.633627 
L 145.614545 308.018807 
L 145.880727 308.122091 
L 146.413091 308.080311 
L 146.945455 307.639684 
L 147.744 306.520955 
L 148.808727 304.885804 
L 149.607273 304.25445 
L 150.139636 304.163436 
L 151.204364 304.074596 
L 152.269091 303.15793 
L 152.801455 302.700064 
L 153.6 302.685619 
L 154.132364 302.688881 
L 154.398545 302.447522 
L 154.930909 301.309068 
L 155.463273 299.076111 
L 155.995636 295.644594 
L 157.326545 284.121194 
L 158.391273 281.556952 
L 158.657455 281.099241 
L 159.189818 279.974765 
L 159.456 279.539574 
L 159.722182 278.871101 
L 160.520727 275.800534 
L 161.053091 274.599334 
L 161.319273 274.377541 
L 161.585455 274.950653 
L 162.117818 277.171961 
L 163.182545 283.192258 
L 163.448727 285.84208 
L 163.981091 288.134987 
L 164.513455 289.956202 
L 165.312 293.418939 
L 165.844364 294.551646 
L 166.376727 295.390188 
L 167.175273 296.13073 
L 167.441455 296.229354 
L 167.973818 296.003993 
L 168.506182 295.559637 
L 169.038545 295.000817 
L 169.570909 295.08391 
L 169.837091 295.434454 
L 170.369455 296.6647 
L 171.168 298.540742 
L 171.700364 299.321354 
L 172.232727 299.63866 
L 174.894545 300.398304 
L 175.959273 301.047052 
L 176.491636 301.168664 
L 177.024 301.114613 
L 177.822545 300.957281 
L 178.621091 301.014591 
L 179.153455 301.400703 
L 179.685818 302.152115 
L 179.952 302.635453 
L 180.218182 302.830528 
L 180.484364 302.053179 
L 181.016727 302.083776 
L 181.549091 301.744879 
L 182.613818 301.126107 
L 182.88 301.066156 
L 183.412364 301.27552 
L 184.210909 301.875655 
L 185.275636 302.281958 
L 186.074182 302.329949 
L 186.872727 302.844351 
L 187.405091 303.774685 
L 187.937455 304.892327 
L 188.203636 305.312453 
L 188.469818 305.460778 
L 189.002182 304.908946 
L 190.066909 302.62893 
L 190.599273 301.959835 
L 191.131636 301.530235 
L 191.397818 301.467488 
L 191.930182 301.800172 
L 192.994909 302.868424 
L 193.527273 302.909428 
L 194.325818 302.841089 
L 194.858182 303.294763 
L 195.390545 303.791148 
L 195.656727 304.237055 
L 196.189091 305.882612 
L 196.721455 307.813015 
L 196.987636 308.434273 
L 197.253818 308.732787 
L 197.786182 308.839178 
L 211.095273 308.831878 
L 216.685091 308.843682 
L 241.706182 308.844924 
L 241.972364 308.759812 
L 242.238545 308.460521 
L 242.504727 307.285257 
L 242.770909 303.099998 
L 243.835636 262.110496 
L 244.101818 260.498022 
L 244.368 259.969956 
L 244.900364 259.741953 
L 246.497455 259.697377 
L 247.562182 259.774568 
L 248.094545 259.972128 
L 249.691636 261.013356 
L 250.756364 262.300758 
L 251.288727 263.037727 
L 251.554909 263.002004 
L 251.821091 262.698517 
L 252.087273 262.017777 
L 252.619636 262.004263 
L 252.885818 262.073689 
L 253.684364 262.525342 
L 255.015273 263.401782 
L 255.281455 263.815694 
L 256.08 265.857304 
L 256.346182 265.48113 
L 256.612364 266.019142 
L 256.878545 266.227263 
L 257.144727 266.154418 
L 257.677091 265.656794 
L 258.209455 264.846519 
L 259.540364 261.497629 
L 260.338909 260.990836 
L 260.605091 260.431238 
L 261.669818 260.343018 
L 263.000727 260.216284 
L 263.799273 260.286175 
L 264.331636 260.721365 
L 264.597818 261.092412 
L 264.864 260.630506 
L 265.396364 261.080298 
L 266.194909 261.287331 
L 267.792 261.585533 
L 268.058182 261.494209 
L 268.590545 261.72827 
L 268.856727 261.786201 
L 269.122909 260.918614 
L 269.389091 260.99907 
L 269.921455 260.769513 
L 270.986182 260.371288 
L 272.050909 260.338361 
L 272.583273 260.313976 
L 273.115636 260.434188 
L 273.648 260.744662 
L 273.914182 260.751961 
L 275.511273 260.185064 
L 276.309818 259.992476 
L 277.108364 259.831103 
L 278.971636 259.823804 
L 280.036364 259.975236 
L 281.101091 260.339138 
L 282.165818 261.021278 
L 283.496727 262.151969 
L 284.295273 262.554385 
L 285.093818 262.69541 
L 285.626182 262.987713 
L 285.892364 263.271006 
L 286.158545 263.291507 
L 288.021818 265.995068 
L 288.554182 267.269733 
L 289.086545 269.087844 
L 289.618909 270.988117 
L 290.151273 271.974205 
L 290.417455 271.088917 
L 290.683636 271.278397 
L 290.949818 271.218135 
L 291.216 270.92599 
L 291.482182 270.19679 
L 292.546909 265.563912 
L 292.813091 264.961917 
L 293.079273 264.67567 
L 293.345455 264.627992 
L 293.611636 264.70161 
L 293.877818 264.963936 
L 294.144 265.455507 
L 294.410182 266.280691 
L 294.942545 268.320437 
L 296.805818 274.867094 
L 298.402909 278.466973 
L 298.669091 279.342325 
L 298.935273 278.694353 
L 299.467636 279.313124 
L 300 279.312971 
L 300.532364 279.396376 
L 301.064727 279.90332 
L 301.597091 281.179539 
L 302.928 285.757276 
L 303.194182 285.433135 
L 303.726545 286.491449 
L 304.258909 286.864825 
L 305.589818 287.10758 
L 306.654545 286.893247 
L 307.186909 286.725196 
L 307.453091 283.773446 
L 307.719273 283.537057 
L 308.251636 282.424384 
L 308.784 281.187149 
L 309.316364 280.482644 
L 309.848727 280.109268 
L 310.381091 279.870705 
L 310.913455 279.734648 
L 311.978182 279.766177 
L 312.510545 279.765091 
L 314.107636 279.004669 
L 314.906182 279.010419 
L 315.970909 279.30629 
L 317.301818 279.778447 
L 318.898909 280.176985 
L 321.028364 280.795135 
L 323.424 280.684708 
L 323.956364 280.864717 
L 324.222545 281.046745 
L 324.488727 284.910969 
L 325.021091 284.830206 
L 325.287273 284.634509 
L 325.553455 283.47726 
L 325.819636 276.571979 
L 326.352 227.0509 
L 326.618182 220.339768 
L 326.884364 218.955288 
L 327.150545 218.487949 
L 327.682909 218.251721 
L 328.215273 218.288993 
L 329.28 218.544796 
L 329.812364 218.315704 
L 330.344727 217.5879 
L 330.877091 216.226262 
L 331.409455 214.000292 
L 332.474182 208.677203 
L 333.006545 207.643279 
L 333.805091 208.237822 
L 334.869818 208.63527 
L 335.668364 209.256841 
L 336.466909 210.323385 
L 336.999273 211.371758 
L 337.797818 213.06406 
L 338.330182 213.416002 
L 339.128727 213.720884 
L 339.661091 214.048441 
L 340.193455 214.332045 
L 340.459636 214.597171 
L 340.725818 215.021954 
L 340.992 215.681113 
L 341.790545 218.498202 
L 342.322909 219.074267 
L 343.121455 219.280369 
L 343.92 219.422636 
L 344.984727 219.321056 
L 345.783273 219.499981 
L 346.581818 219.975554 
L 347.114182 219.85984 
L 347.912727 219.212339 
L 348.445091 218.478319 
L 350.042182 215.502346 
L 351.106909 217.422959 
L 352.171636 218.863188 
L 352.970182 219.809989 
L 353.768727 220.341471 
L 354.034909 220.302022 
L 354.301091 219.808128 
L 354.833455 220.464795 
L 355.099636 220.454235 
L 356.164364 219.324005 
L 356.430545 219.447487 
L 357.495273 220.545088 
L 357.761455 220.555648 
L 358.027636 220.433422 
L 358.293818 220.550065 
L 358.56 224.308979 
L 359.092364 224.800089 
L 359.358545 224.914091 
L 359.890909 224.82975 
L 360.689455 223.861206 
L 361.221818 222.865958 
L 362.286545 220.650549 
L 362.552727 220.35002 
L 362.818909 219.307704 
L 364.948364 220.105707 
L 365.214545 220.130558 
L 365.746909 219.860306 
L 366.279273 218.991639 
L 366.545455 218.251563 
L 366.811636 217.059834 
L 367.077818 214.049064 
L 367.610182 215.102405 
L 367.876364 215.278223 
L 368.142545 214.845829 
L 368.408727 213.989109 
L 368.941091 211.044816 
L 369.739636 205.027472 
L 370.272 201.928166 
L 371.070545 199.273999 
L 371.336727 197.503572 
L 372.667636 195.154287 
L 373.2 194.72127 
L 373.998545 194.396348 
L 374.530909 194.470435 
L 374.797091 194.982666 
L 375.063273 196.064896 
L 375.329455 199.349948 
L 375.861818 220.343648 
L 376.394182 252.648585 
L 376.660364 259.605589 
L 376.926545 261.404128 
L 377.192727 261.803907 
L 377.991273 262.11205 
L 378.523636 261.995876 
L 379.322182 260.872019 
L 379.588364 260.223894 
L 379.854545 259.199284 
L 380.120727 259.07348 
L 380.386909 259.2524 
L 381.185455 260.613578 
L 381.451636 260.647281 
L 382.250182 260.134897 
L 382.782545 260.004902 
L 383.581091 260.027729 
L 384.379636 260.318479 
L 385.178182 260.473795 
L 386.242909 260.649612 
L 387.041455 260.97173 
L 388.106182 261.648591 
L 388.372364 262.042005 
L 388.638545 262.113138 
L 389.170909 261.907348 
L 390.235636 260.609693 
L 390.501818 260.61187 
L 391.034182 261.282981 
L 391.566545 261.941671 
L 391.832727 262.036259 
L 392.098909 261.770515 
L 392.365091 260.765009 
L 392.631273 256.553346 
L 392.897455 255.384138 
L 393.163636 255.096807 
L 393.429818 255.199784 
L 394.228364 255.974955 
L 394.494545 256.134462 
L 394.760727 256.78135 
L 395.559273 259.401501 
L 396.091636 259.792273 
L 396.357818 259.612422 
L 396.624 259.009799 
L 396.890182 257.538662 
L 397.156364 257.803937 
L 398.221091 259.63137 
L 398.753455 259.825046 
L 399.019636 259.877698 
L 399.818182 260.569156 
L 400.084364 260.503149 
L 400.616727 260.671356 
L 400.882909 260.650854 
L 401.149091 260.221252 
L 401.415273 262.660622 
L 401.947636 271.790005 
L 403.278545 302.065604 
L 403.544727 304.970606 
L 403.810909 306.641479 
L 404.077091 307.575384 
L 404.609455 308.397308 
L 405.141818 308.785905 
L 405.408 309.28462 
L 405.940364 309.316925 
L 407.537455 309.149341 
L 408.868364 309.133188 
L 409.134545 309.029127 
L 409.400727 308.553399 
L 409.666909 307.127301 
L 409.933091 306.901009 
L 410.199273 306.489114 
L 411.796364 302.843264 
L 412.328727 302.227907 
L 413.393455 301.306272 
L 413.659636 300.91985 
L 413.925818 301.25129 
L 414.458182 300.48528 
L 414.990545 300.153528 
L 415.522909 300.143433 
L 416.321455 300.375939 
L 416.853818 300.814235 
L 417.386182 301.382841 
L 417.652364 301.56751 
L 417.918545 301.553999 
L 418.184727 301.90796 
L 418.717091 301.545922 
L 419.515636 300.825729 
L 420.580364 300.248115 
L 421.378909 300.100256 
L 421.645091 299.630118 
L 421.911273 298.14174 
L 422.177455 293.314102 
L 422.443636 283.845512 
L 422.976 243.524952 
L 423.242182 233.538234 
L 423.508364 228.822733 
L 423.774545 227.070318 
L 424.040727 226.327757 
L 424.306909 225.951895 
L 424.573091 225.774059 
L 425.105455 225.638164 
L 425.371636 224.906787 
L 425.637818 223.365759 
L 425.904 217.341884 
L 426.170182 187.636909 
L 426.436364 21.927273 
L 426.436364 21.927273 
" clip-path="url(#p4178fa878f)" style="fill: none; stroke: #ff0000; stroke-width: 3; stroke-linecap: square"/>
   </g>
   <g id="line2d_3">
    <path d="M 27.163636 316.472727 
L 27.429818 307.325566 
L 27.962182 300.587504 
L 28.494545 296.577445 
L 29.293091 292.399801 
L 30.357818 288.988922 
L 30.890182 288.2567 
L 31.156364 287.607906 
L 31.422545 286.423006 
L 31.954909 285.101947 
L 32.487273 283.74611 
L 33.818182 281.558157 
L 34.350545 280.748977 
L 35.415273 279.710245 
L 35.947636 277.938529 
L 36.746182 275.399457 
L 37.278545 273.218713 
L 38.875636 266.047917 
L 40.738909 262.590296 
L 41.271273 262.652384 
L 41.537455 262.743997 
L 41.803636 263.090777 
L 42.336 264.645245 
L 42.868364 265.678998 
L 43.933091 268.797687 
L 44.199273 270.297243 
L 44.465455 270.571963 
L 44.731636 270.449289 
L 45.264 269.816749 
L 45.530182 269.777116 
L 46.062545 270.361069 
L 46.861091 271.217556 
L 48.192 272.315965 
L 49.256727 272.194168 
L 49.789091 272.176796 
L 52.450909 272.548906 
L 52.717091 272.260465 
L 53.249455 271.128467 
L 53.781818 270.015877 
L 54.314182 269.490211 
L 54.846545 268.997521 
L 55.378909 268.458793 
L 56.177455 267.988039 
L 56.709818 267.874305 
L 56.976 267.529044 
L 57.508364 267.290836 
L 58.040727 267.241955 
L 58.573091 267.420195 
L 59.637818 267.959563 
L 60.702545 268.927476 
L 60.968727 269.425236 
L 61.234909 284.156306 
L 61.501091 286.423373 
L 61.767273 286.769341 
L 62.299636 286.871132 
L 63.098182 286.806633 
L 64.162909 286.304321 
L 64.695273 285.752962 
L 65.227636 284.919601 
L 65.76 283.845253 
L 67.090909 280.55978 
L 67.623273 278.956324 
L 68.155636 277.845011 
L 68.688 277.125994 
L 69.220364 276.762399 
L 69.752727 276.464412 
L 70.285091 276.035982 
L 70.551273 275.45745 
L 71.616 271.352055 
L 72.148364 268.738504 
L 72.414545 267.940387 
L 72.680727 267.585917 
L 72.946909 267.755726 
L 73.745455 269.689484 
L 74.277818 269.452378 
L 74.810182 269.417485 
L 75.874909 268.757066 
L 76.407273 267.660957 
L 77.205818 265.489733 
L 78.004364 263.508072 
L 78.270545 258.319139 
L 79.867636 252.615162 
L 80.133818 252.447438 
L 80.4 252.414235 
L 80.666182 252.542584 
L 81.198545 253.42074 
L 82.529455 257.017508 
L 83.328 259.409274 
L 83.594182 259.115202 
L 84.126545 257.282876 
L 84.925091 253.136811 
L 85.457455 251.783696 
L 85.989818 250.972035 
L 86.522182 250.839713 
L 86.788364 251.203361 
L 87.320727 251.325091 
L 88.651636 251.716816 
L 89.184 251.251215 
L 90.781091 250.817842 
L 91.313455 250.315689 
L 91.845818 250.415185 
L 92.112 250.321346 
L 92.644364 249.830859 
L 93.442909 248.776754 
L 93.709091 248.674752 
L 94.241455 248.798826 
L 95.04 249.189484 
L 95.306182 247.602098 
L 95.572364 249.521895 
L 95.838545 250.13374 
L 98.234182 250.12573 
L 99.032727 249.933919 
L 99.565091 249.603817 
L 100.097455 249.100329 
L 100.629818 248.313689 
L 100.896 247.72293 
L 101.162182 246.795186 
L 102.226909 241.778554 
L 103.025455 240.070978 
L 103.824 238.541852 
L 105.154909 230.385311 
L 105.687273 229.623387 
L 105.953455 229.520349 
L 106.219636 229.259612 
L 106.485818 229.379714 
L 107.284364 231.47977 
L 107.550545 231.608387 
L 107.816727 231.119216 
L 108.082909 230.045922 
L 108.615273 227.075409 
L 108.881455 226.512888 
L 109.147636 226.85894 
L 109.413818 227.730864 
L 109.946182 230.561085 
L 110.212364 231.190302 
L 110.478545 230.878546 
L 111.010909 229.498491 
L 111.809455 225.428182 
L 112.075636 223.875997 
L 112.608 220.155313 
L 113.140364 218.342969 
L 113.406545 218.242512 
L 113.672727 218.636501 
L 115.003636 225.264944 
L 115.536 226.233454 
L 116.334545 227.272285 
L 117.133091 229.808632 
L 117.665455 232.990891 
L 118.464 238.238261 
L 118.730182 239.228865 
L 118.996364 239.008279 
L 119.262545 238.250129 
L 119.528727 236.624136 
L 120.593455 226.145172 
L 122.190545 218.473219 
L 122.722909 213.978962 
L 123.521455 205.479503 
L 124.32 200.738439 
L 124.586182 199.527942 
L 125.118545 198.800796 
L 125.384727 197.662974 
L 125.650909 197.114305 
L 126.183273 197.124769 
L 126.449455 196.626908 
L 127.248 193.944756 
L 127.514182 192.843337 
L 127.780364 192.30062 
L 128.312727 193.274282 
L 128.578909 193.23737 
L 128.845091 192.60207 
L 129.111273 191.474939 
L 129.377455 184.471275 
L 129.643636 184.117621 
L 129.909818 184.029919 
L 130.442182 184.108088 
L 130.974545 182.372168 
L 131.506909 179.702183 
L 132.039273 176.058325 
L 132.305455 176.128462 
L 132.837818 179.44781 
L 133.636364 181.79152 
L 133.902545 182.3317 
L 134.701091 186.274858 
L 134.967273 186.236954 
L 135.499636 185.8588 
L 135.765818 186.080106 
L 136.298182 186.223874 
L 137.629091 187.260985 
L 138.161455 188.367373 
L 138.427636 189.767521 
L 138.96 196.345288 
L 139.492364 203.745557 
L 140.024727 207.607841 
L 140.290909 208.444354 
L 141.355636 210.037551 
L 141.888 211.307967 
L 142.154182 211.175119 
L 142.686545 209.742851 
L 143.485091 206.564015 
L 144.283636 202.685395 
L 144.816 198.919722 
L 145.614545 190.905264 
L 146.413091 182.264986 
L 146.945455 164.565125 
L 147.477818 144.830939 
L 148.010182 133.583282 
L 149.074909 118.290553 
L 149.607273 106.557289 
L 149.873455 102.631232 
L 150.139636 100.748777 
L 150.405818 99.900054 
L 150.672 99.803267 
L 151.470545 99.00816 
L 151.736727 98.500328 
L 152.535273 96.264413 
L 152.801455 95.784091 
L 153.333818 94.052252 
L 153.866182 92.576295 
L 154.132364 90.867139 
L 155.729455 75.401885 
L 155.995636 72.748113 
L 156.261818 67.773401 
L 156.794182 52.62883 
L 157.592727 41.065265 
L 158.657455 27.989631 
L 158.923636 25.788864 
L 159.456 23.893014 
L 159.988364 22.729998 
L 160.520727 22.176519 
L 161.053091 21.973463 
L 161.851636 21.935138 
L 162.384 22.039001 
L 163.182545 22.462283 
L 163.714909 23.944471 
L 164.247273 25.055959 
L 164.513455 25.400888 
L 165.045818 25.470884 
L 165.312 25.461492 
L 165.844364 26.189779 
L 166.110545 26.808936 
L 166.376727 27.888682 
L 167.175273 32.122589 
L 167.707636 33.706271 
L 168.772364 34.378781 
L 169.304727 34.263121 
L 169.570909 34.597234 
L 169.837091 36.080336 
L 170.369455 41.155153 
L 171.168 50.397831 
L 171.434182 51.61578 
L 171.700364 52.216679 
L 171.966545 53.117878 
L 172.232727 53.317457 
L 172.498909 53.695111 
L 172.765091 54.645502 
L 173.031273 56.433679 
L 173.563636 62.695828 
L 174.096 72.491809 
L 174.628364 82.368005 
L 174.894545 84.718071 
L 175.160727 85.965251 
L 175.693091 86.984287 
L 176.225455 87.572019 
L 177.024 88.549693 
L 177.556364 89.327559 
L 178.088727 90.550529 
L 178.354909 91.732927 
L 178.621091 93.920966 
L 179.153455 102.788694 
L 179.952 117.434456 
L 180.218182 120.294971 
L 180.484364 124.649367 
L 181.016727 127.986007 
L 181.282909 128.62028 
L 181.549091 128.802567 
L 182.613818 128.26761 
L 182.88 128.605165 
L 183.678545 130.771609 
L 183.944727 130.789973 
L 184.210909 130.34982 
L 184.477091 129.382592 
L 184.743273 128.939454 
L 185.275636 126.94427 
L 185.808 124.536339 
L 186.606545 122.103671 
L 186.872727 122.250178 
L 187.138909 123.291037 
L 187.671273 127.458792 
L 188.469818 134.439045 
L 188.736 135.465438 
L 189.002182 138.600497 
L 189.268364 139.164844 
L 189.534545 139.399168 
L 189.800727 139.23305 
L 190.599273 138.159308 
L 190.865455 138.020315 
L 191.131636 138.291735 
L 191.664 139.499589 
L 192.728727 142.62164 
L 192.994909 142.613792 
L 193.261091 143.090076 
L 194.059636 143.59424 
L 194.592 144.925374 
L 195.124364 146.847611 
L 195.656727 151.54618 
L 196.987636 166.647124 
L 197.253818 167.621111 
L 197.52 170.347566 
L 198.052364 173.187505 
L 198.584727 177.484632 
L 199.383273 184.041313 
L 199.915636 187.121983 
L 200.448 189.438209 
L 200.980364 193.687215 
L 201.512727 197.728819 
L 202.045091 200.223531 
L 202.577455 201.711171 
L 203.109818 202.696683 
L 203.908364 203.71198 
L 204.174545 204.390495 
L 204.706909 206.897304 
L 205.239273 211.113268 
L 205.771636 214.840185 
L 206.037818 216.115525 
L 206.304 216.254826 
L 207.102545 215.901892 
L 207.368727 216.215754 
L 207.901091 217.232087 
L 208.167273 218.189826 
L 208.699636 222.280403 
L 209.764364 230.654765 
L 210.030545 230.61091 
L 210.296727 230.309653 
L 210.562909 230.36255 
L 211.627636 233.317965 
L 211.893818 233.242754 
L 212.16 232.904409 
L 212.692364 233.157649 
L 212.958545 233.512848 
L 213.224727 233.641141 
L 213.490909 233.55371 
L 213.757091 233.318395 
L 214.289455 232.331943 
L 215.620364 227.574595 
L 216.152727 226.761494 
L 216.685091 224.76754 
L 216.951273 224.627186 
L 217.217455 225.16569 
L 217.483636 225.399039 
L 218.016 226.193145 
L 218.282182 226.110384 
L 218.548364 224.676563 
L 219.080727 220.246904 
L 219.613091 218.054537 
L 219.879273 217.777174 
L 220.411636 217.540902 
L 220.944 217.138635 
L 221.210182 217.201188 
L 222.274909 218.387606 
L 222.541091 218.472105 
L 222.807273 218.101939 
L 223.073455 217.342665 
L 223.339636 215.900031 
L 223.605818 212.917439 
L 224.138182 205.021477 
L 224.670545 201.134157 
L 225.202909 199.220751 
L 225.469091 199.018204 
L 225.735273 199.273244 
L 226.267636 201.062255 
L 226.8 202.462193 
L 227.066182 202.628284 
L 227.598545 202.374921 
L 228.130909 201.909039 
L 229.728 201.74968 
L 229.994182 201.783072 
L 230.792727 202.452107 
L 231.058909 202.236323 
L 231.325091 201.120174 
L 231.857455 197.012698 
L 232.922182 186.552449 
L 233.188364 185.318725 
L 233.454545 185.902814 
L 233.720727 188.168135 
L 234.785455 201.326477 
L 235.584 203.757618 
L 235.850182 203.642352 
L 236.116364 203.245677 
L 236.382545 202.021372 
L 236.648727 200.208581 
L 236.914909 199.464845 
L 237.181091 199.41035 
L 237.447273 199.551582 
L 237.713455 199.84938 
L 237.979636 200.512147 
L 238.245818 201.802209 
L 238.778182 206.035826 
L 239.576727 213.198848 
L 240.109091 215.896362 
L 240.375273 216.312542 
L 240.641455 216.464641 
L 240.907636 216.788449 
L 241.44 220.204066 
L 242.504727 228.586723 
L 243.303273 232.836791 
L 243.569455 232.156959 
L 243.835636 233.222555 
L 244.101818 233.729299 
L 244.368 233.90121 
L 244.634182 233.714061 
L 244.900364 232.154396 
L 245.965091 223.190152 
L 246.231273 222.449137 
L 246.497455 222.529465 
L 246.763636 223.00273 
L 247.296 224.691398 
L 247.562182 224.897755 
L 247.828364 223.214529 
L 248.094545 222.440833 
L 248.360727 221.293653 
L 248.893091 216.657935 
L 249.425455 211.257282 
L 249.691636 209.59099 
L 249.957818 208.673692 
L 250.224 208.681583 
L 250.490182 209.129777 
L 250.756364 209.874717 
L 251.022545 210.143178 
L 251.288727 210.625827 
L 251.554909 210.139088 
L 251.821091 208.725816 
L 252.087273 204.027871 
L 252.619636 200.351051 
L 252.885818 199.247595 
L 253.418182 198.228005 
L 253.684364 197.987458 
L 253.950545 198.057165 
L 254.482909 198.411679 
L 255.015273 198.47231 
L 255.281455 198.083587 
L 255.813818 197.891723 
L 256.08 198.326461 
L 256.346182 195.919039 
L 256.612364 196.819632 
L 257.144727 200.158809 
L 257.943273 208.166895 
L 258.741818 217.378542 
L 259.274182 220.75507 
L 259.540364 221.323314 
L 260.072727 225.295685 
L 260.338909 229.677644 
L 260.605091 225.879458 
L 261.137455 230.376823 
L 261.669818 232.987696 
L 262.202182 233.572022 
L 262.468364 234.173596 
L 262.734545 234.21071 
L 263.000727 234.494999 
L 263.266909 234.5728 
L 263.533091 234.383938 
L 264.065455 231.45383 
L 264.597818 229.464748 
L 264.864 225.030884 
L 265.396364 223.9601 
L 266.461091 222.851658 
L 266.993455 222.51356 
L 267.259636 222.688534 
L 268.324364 223.909775 
L 268.856727 224.336586 
L 269.122909 223.631824 
L 269.921455 224.39942 
L 270.986182 225.740447 
L 271.518545 227.056597 
L 272.050909 228.942861 
L 273.115636 233.773146 
L 273.381818 230.996358 
L 273.648 231.871538 
L 274.978909 239.123729 
L 275.511273 241.021756 
L 276.043636 242.04641 
L 276.576 242.443603 
L 277.108364 242.788742 
L 277.374545 242.841775 
L 277.640727 242.543753 
L 278.971636 244.39975 
L 279.237818 244.353981 
L 279.504 243.938261 
L 279.770182 243.064082 
L 280.036364 242.575442 
L 280.568727 242.69256 
L 281.367273 243.012756 
L 281.633455 243.021152 
L 281.899636 242.875791 
L 282.698182 241.916081 
L 284.029091 240.856279 
L 284.561455 240.978023 
L 284.827636 241.120799 
L 285.36 240.659596 
L 285.892364 239.820476 
L 286.158545 237.48888 
L 286.690909 235.850791 
L 287.223273 234.240284 
L 288.021818 229.541021 
L 288.288 226.51173 
L 288.554182 221.68327 
L 289.885091 182.444868 
L 290.151273 179.2205 
L 290.417455 167.778714 
L 290.683636 168.845433 
L 290.949818 171.544535 
L 291.216 179.41354 
L 291.748364 214.029067 
L 292.280727 229.614828 
L 292.813091 237.977234 
L 293.079273 239.307166 
L 293.345455 239.628516 
L 293.877818 239.759758 
L 294.676364 242.382876 
L 295.208727 242.634791 
L 295.741091 242.70183 
L 296.007273 242.614408 
L 296.273455 242.365074 
L 296.539636 241.905152 
L 296.805818 241.091252 
L 297.072 239.653454 
L 297.604364 233.732793 
L 298.136727 228.608713 
L 298.669091 225.024853 
L 298.935273 215.149456 
L 299.201455 215.169663 
L 299.467636 215.438845 
L 299.733818 215.913382 
L 300 216.156897 
L 300.266182 215.41848 
L 301.597091 209.167207 
L 301.863273 208.309627 
L 302.129455 205.721103 
L 302.395636 201.212651 
L 302.928 188.843122 
L 303.194182 174.918949 
L 303.460364 169.935494 
L 303.726545 167.29797 
L 303.992727 165.773313 
L 304.525091 164.241124 
L 305.057455 162.756723 
L 305.323636 162.370643 
L 305.589818 162.210074 
L 305.856 162.186689 
L 306.388364 162.437111 
L 306.920727 163.395807 
L 307.186909 164.375377 
L 307.453091 164.32643 
L 307.719273 166.235693 
L 307.985455 170.184021 
L 308.251636 178.984895 
L 308.784 204.952288 
L 309.316364 217.502401 
L 309.848727 221.316107 
L 310.381091 222.683864 
L 310.647273 222.472302 
L 310.913455 223.036605 
L 311.179636 223.044066 
L 311.445818 222.628694 
L 311.712 217.860233 
L 311.978182 217.854571 
L 312.244364 218.18477 
L 312.510545 219.080342 
L 313.042909 221.684192 
L 313.575273 223.254628 
L 314.107636 223.760222 
L 314.906182 223.82224 
L 315.704727 225.132324 
L 315.970909 223.418392 
L 316.237091 224.47722 
L 316.769455 227.576816 
L 317.035636 228.026678 
L 317.568 228.329814 
L 318.632727 228.469535 
L 319.165091 228.405841 
L 319.431273 228.27804 
L 319.697455 227.810754 
L 319.963636 226.303477 
L 320.229818 222.959998 
L 320.496 222.077786 
L 321.294545 221.458629 
L 321.560727 221.284234 
L 322.093091 220.378901 
L 322.359273 219.567669 
L 322.625455 217.074888 
L 323.157818 208.580283 
L 323.424 208.709401 
L 323.956364 207.333428 
L 324.222545 206.803939 
L 324.488727 222.858417 
L 324.754909 221.288421 
L 325.021091 225.565982 
L 325.287273 227.286707 
L 325.553455 230.765773 
L 326.352 235.72852 
L 326.618182 237.054687 
L 327.416727 247.455934 
L 327.682909 248.101232 
L 327.949091 249.219765 
L 328.215273 250.908942 
L 328.481455 251.865061 
L 328.747636 250.982911 
L 329.013818 251.406517 
L 329.546182 251.695371 
L 330.078545 251.653885 
L 330.877091 251.443017 
L 331.675636 251.89898 
L 332.208 251.3713 
L 332.740364 249.976339 
L 333.006545 239.102222 
L 333.272727 238.425823 
L 333.538909 238.361848 
L 334.071273 239.505955 
L 334.337455 239.48904 
L 334.869818 238.177349 
L 335.136 236.766228 
L 336.200727 233.974543 
L 336.733091 233.506589 
L 337.265455 233.175337 
L 337.797818 232.770314 
L 338.330182 231.973865 
L 339.661091 229.776828 
L 339.927273 229.718261 
L 340.459636 230.455466 
L 340.992 231.45735 
L 341.258182 231.231138 
L 341.524364 229.519041 
L 342.056727 229.297208 
L 342.322909 229.049244 
L 342.589091 228.559836 
L 342.855273 227.665985 
L 343.387636 224.684112 
L 343.92 221.971799 
L 344.452364 220.132393 
L 344.984727 217.359791 
L 345.517091 212.812347 
L 345.783273 207.478162 
L 346.315636 204.148394 
L 346.581818 203.036274 
L 346.848 202.8562 
L 347.114182 202.911265 
L 347.380364 203.65652 
L 348.711273 209.497134 
L 349.243636 209.870292 
L 349.509818 209.622802 
L 349.776 208.770277 
L 350.042182 203.408292 
L 350.308364 204.617138 
L 350.574545 205.103386 
L 351.373091 202.738265 
L 351.905455 200.903485 
L 352.171636 201.283965 
L 352.704 203.809075 
L 352.970182 204.653761 
L 353.236364 205.071705 
L 353.768727 207.349079 
L 354.034909 208.169642 
L 354.301091 206.532765 
L 354.567273 208.079868 
L 354.833455 208.905241 
L 355.365818 209.491893 
L 356.430545 209.641297 
L 357.229091 210.172638 
L 358.293818 210.46243 
L 358.56 209.131603 
L 359.092364 210.058856 
L 359.890909 210.688863 
L 360.423273 211.046036 
L 360.689455 211.290139 
L 361.221818 212.567762 
L 362.552727 218.21214 
L 362.818909 216.692916 
L 363.351273 217.098923 
L 363.617455 217.300715 
L 363.883636 217.229638 
L 364.416 215.512134 
L 364.948364 213.777732 
L 365.480727 213.068335 
L 365.746909 212.950506 
L 366.013091 212.665673 
L 366.545455 212.465057 
L 366.811636 212.320008 
L 367.077818 211.104981 
L 367.610182 210.994491 
L 367.876364 211.0019 
L 368.142545 210.891883 
L 368.408727 209.888507 
L 368.674909 207.447737 
L 369.207273 200.474647 
L 369.473455 199.353872 
L 369.739636 199.206952 
L 370.005818 199.583666 
L 370.538182 201.427918 
L 370.804364 200.936447 
L 371.336727 191.460078 
L 371.602909 179.1932 
L 372.135273 165.640149 
L 372.933818 157.765579 
L 373.2 156.491151 
L 373.466182 157.173757 
L 373.732364 160.422511 
L 375.063273 193.55678 
L 375.329455 194.473227 
L 375.595636 203.878519 
L 375.861818 202.427791 
L 376.394182 203.493264 
L 376.660364 203.044017 
L 377.458909 200.879521 
L 377.725091 200.532003 
L 377.991273 201.141259 
L 378.523636 202.646455 
L 378.789818 203.029331 
L 379.056 203.140252 
L 379.322182 202.689959 
L 379.854545 199.307093 
L 380.653091 190.512671 
L 380.919273 188.985749 
L 381.185455 189.48318 
L 381.451636 191.206908 
L 382.250182 201.368086 
L 382.782545 207.73192 
L 383.314909 210.48305 
L 383.581091 211.08215 
L 383.847273 211.273267 
L 384.113455 210.077571 
L 384.379636 209.758915 
L 385.178182 209.340698 
L 385.976727 208.574727 
L 386.775273 207.04604 
L 387.041455 205.972588 
L 387.573818 202.066211 
L 387.84 199.4827 
L 388.638545 185.355128 
L 389.170909 180.706402 
L 389.703273 178.761289 
L 390.501818 176.770012 
L 390.768 176.570643 
L 391.300364 177.070795 
L 391.832727 176.879458 
L 392.098909 176.678974 
L 392.365091 176.151013 
L 392.631273 155.315513 
L 392.897455 151.978082 
L 393.429818 149.825683 
L 393.696 150.970404 
L 394.228364 148.038629 
L 394.494545 147.510484 
L 395.825455 172.787862 
L 396.357818 176.002838 
L 396.624 176.559916 
L 396.890182 175.28397 
L 397.156364 175.042273 
L 397.954909 175.146065 
L 399.019636 173.555546 
L 399.285818 174.037843 
L 399.818182 176.405702 
L 400.350545 177.434719 
L 400.616727 177.567418 
L 400.882909 177.023551 
L 401.681455 172.392469 
L 401.947636 172.108206 
L 402.213818 171.563918 
L 402.48 171.52367 
L 403.012364 170.864397 
L 403.278545 171.277276 
L 403.544727 172.472139 
L 404.077091 176.157254 
L 404.609455 180.470981 
L 404.875636 181.925738 
L 405.141818 182.542894 
L 405.408 189.034134 
L 405.674182 189.527588 
L 406.206545 192.035143 
L 406.472727 193.672827 
L 407.537455 203.075372 
L 408.069818 206.246282 
L 408.336 206.993565 
L 408.602182 209.672854 
L 409.134545 210.682648 
L 409.400727 208.575824 
L 409.666909 183.983614 
L 410.199273 172.377475 
L 410.997818 146.599717 
L 411.530182 137.351649 
L 412.062545 134.039605 
L 412.594909 133.569641 
L 412.861091 134.998652 
L 413.393455 133.293287 
L 413.659636 131.283497 
L 413.925818 137.320855 
L 414.458182 133.293603 
L 414.990545 129.87027 
L 415.256727 129.566845 
L 415.522909 130.184878 
L 415.789091 130.39594 
L 416.055273 130.043726 
L 416.321455 130.473837 
L 416.587636 131.278371 
L 416.853818 131.472842 
L 417.12 132.732979 
L 417.386182 132.430414 
L 417.652364 131.813574 
L 417.918545 129.224427 
L 418.184727 134.043081 
L 418.717091 128.713785 
L 419.515636 122.739331 
L 419.781818 121.385181 
L 420.314182 117.157085 
L 420.580364 115.527617 
L 420.846545 115.325 
L 421.112727 114.180839 
L 421.378909 116.284836 
L 421.911273 112.403091 
L 422.177455 107.044652 
L 422.443636 116.25787 
L 423.242182 90.241012 
L 423.774545 79.853806 
L 424.573091 68.447756 
L 424.839273 66.958334 
L 425.105455 66.933035 
L 425.371636 65.763278 
L 425.637818 65.916667 
L 425.904 64.955285 
L 426.170182 67.703211 
L 426.436364 85.559683 
L 426.436364 85.559683 
" clip-path="url(#p4178fa878f)" style="fill: none; stroke: #0000ff; stroke-width: 3; stroke-linecap: square"/>
   </g>
   <g id="patch_3">
    <path d="M 7.2 331.2 
L 7.2 7.2 
" style="fill: none; stroke: #000000; stroke-width: 0.8; stroke-linejoin: miter; stroke-linecap: square"/>
   </g>
   <g id="patch_4">
    <path d="M 446.4 331.2 
L 446.4 7.2 
" style="fill: none; stroke: #000000; stroke-width: 0.8; stroke-linejoin: miter; stroke-linecap: square"/>
   </g>
   <g id="patch_5">
    <path d="M 7.2 331.2 
L 446.4 331.2 
" style="fill: none; stroke: #000000; stroke-width: 0.8; stroke-linejoin: miter; stroke-linecap: square"/>
   </g>
   <g id="patch_6">
    <path d="M 7.2 7.2 
L 446.4 7.2 
" style="fill: none; stroke: #000000; stroke-width: 0.8; stroke-linejoin: miter; stroke-linecap: square"/>
   </g>
  </g>
 </g>
 <defs>
  <clipPath id="p4178fa878f">
   <rect x="7.2" y="7.2" width="439.2" height="324"/>
  </clipPath>
 </defs>
</svg>
