<?xml version="1.0" encoding="utf-8" standalone="no"?>
<!DOCTYPE svg PUBLIC "-//W3C//DTD SVG 1.1//EN"
  "http://www.w3.org/Graphics/SVG/1.1/DTD/svg11.dtd">
<svg xmlns:xlink="http://www.w3.org/1999/xlink" width="453.6pt" height="338.4pt" viewBox="0 0 453.6 338.4" xmlns="http://www.w3.org/2000/svg" version="1.1">
 <metadata>
  <rdf:RDF xmlns:dc="http://purl.org/dc/elements/1.1/" xmlns:cc="http://creativecommons.org/ns#" xmlns:rdf="http://www.w3.org/1999/02/22-rdf-syntax-ns#">
   <cc:Work>
    <dc:type rdf:resource="http://purl.org/dc/dcmitype/StillImage"/>
    <dc:date>2025-05-15T16:54:31.371620</dc:date>
    <dc:format>image/svg+xml</dc:format>
    <dc:creator>
     <cc:Agent>
      <dc:title>Matplotlib v3.10.1, https://matplotlib.org/</dc:title>
     </cc:Agent>
    </dc:creator>
   </cc:Work>
  </rdf:RDF>
 </metadata>
 <defs>
  <style type="text/css">*{stroke-linejoin: round; stroke-linecap: butt}</style>
 </defs>
 <g id="figure_1">
  <g id="patch_1">
   <path d="M 0 338.4 
L 453.6 338.4 
L 453.6 0 
L 0 0 
z
" style="fill: #ffffff"/>
  </g>
  <g id="axes_1">
   <g id="patch_2">
    <path d="M 7.2 331.2 
L 446.4 331.2 
L 446.4 7.2 
L 7.2 7.2 
z
" style="fill: #ffffff"/>
   </g>
   <g id="matplotlib.axis_1"/>
   <g id="matplotlib.axis_2"/>
   <g id="line2d_1">
    <path d="M 27.163636 229.086305 
L 27.997772 231.96787 
L 28.831907 233.855026 
L 29.387997 234.687878 
L 29.944087 235.246753 
L 30.500177 235.571932 
L 31.056267 235.694037 
L 31.612358 235.635599 
L 32.168448 235.41142 
L 33.002583 234.782969 
L 33.836718 233.821151 
L 34.670853 232.547749 
L 35.783034 230.434801 
L 38.007394 225.509217 
L 41.62198 217.372486 
L 42.456115 214.320999 
L 43.290251 210.00423 
L 44.124386 204.037389 
L 44.958521 196.206304 
L 46.070701 182.960667 
L 47.460927 163.036982 
L 54.134009 62.202679 
L 54.968144 53.388824 
L 55.802279 47.12344 
L 56.358369 44.367086 
L 56.914459 42.57037 
L 57.47055 41.460799 
L 59.13882 38.986627 
L 59.69491 37.627228 
L 60.529045 34.952958 
L 61.641226 31.41161 
L 62.197316 30.444153 
L 62.475361 30.323617 
L 62.753406 30.497636 
L 63.031451 30.997118 
L 63.309496 31.844762 
L 63.865586 34.628356 
L 64.421676 38.843653 
L 65.255812 47.519822 
L 66.367992 62.102124 
L 69.426488 104.129396 
L 71.094758 123.783196 
L 72.484984 138.061077 
L 73.319119 145.105531 
L 74.153254 150.396136 
L 74.709344 152.73743 
L 75.265434 154.058793 
L 75.543479 154.34163 
L 75.821524 154.386326 
L 76.09957 154.210112 
L 76.65566 153.287107 
L 77.21175 151.790234 
L 79.992201 143.252132 
L 81.104381 141.143966 
L 82.772651 138.150494 
L 84.162877 135.025697 
L 86.665282 129.369704 
L 87.777463 126.646602 
L 88.611598 124.090061 
L 89.723778 119.872432 
L 91.948139 110.918134 
L 92.782274 108.456411 
L 93.616409 106.727333 
L 94.450544 105.592842 
L 95.562725 104.552382 
L 97.787085 102.731568 
L 98.621221 102.377631 
L 99.177311 102.400468 
L 99.733401 102.670938 
L 100.289491 103.181633 
L 101.123626 104.293736 
L 102.791897 106.718478 
L 103.626032 107.461002 
L 104.182122 107.693655 
L 105.016257 107.723428 
L 106.406483 107.589521 
L 106.962573 107.734192 
L 107.518663 108.086745 
L 108.074753 108.662996 
L 108.908888 109.889548 
L 110.577159 112.980345 
L 111.967384 115.855363 
L 112.801519 118.07347 
L 113.635655 121.060219 
L 114.46979 125.033421 
L 115.58197 131.770049 
L 118.362421 149.962922 
L 119.196556 154.072787 
L 120.030691 157.248417 
L 120.864827 159.575784 
L 121.698962 161.208479 
L 122.533097 162.300189 
L 123.367232 162.96779 
L 124.201367 163.289798 
L 125.035503 163.343667 
L 127.815953 163.174357 
L 128.372044 163.423362 
L 128.928134 163.860498 
L 129.762269 164.903203 
L 130.596404 166.381267 
L 132.820765 170.832217 
L 133.376855 171.398827 
L 133.6549 171.490171 
L 133.932945 171.426423 
L 134.21099 171.189248 
L 134.76708 170.135424 
L 135.32317 168.250027 
L 135.879261 165.533654 
L 136.713396 160.141409 
L 138.937756 144.501902 
L 139.493847 142.14551 
L 140.049937 140.962369 
L 140.327982 140.847433 
L 140.606027 141.053027 
L 140.884072 141.570862 
L 141.440162 143.470772 
L 141.996252 146.337247 
L 143.108433 153.778525 
L 144.498658 163.125925 
L 145.332793 167.487446 
L 146.166928 170.68731 
L 147.001064 172.975014 
L 149.781514 179.494804 
L 150.61565 182.371107 
L 151.449785 185.959146 
L 152.561965 191.910268 
L 153.95219 200.975664 
L 156.454596 217.986828 
L 157.288731 222.387623 
L 158.122867 225.662923 
L 158.678957 227.181887 
L 159.235047 228.190979 
L 159.791137 228.741039 
L 160.347227 228.903791 
L 160.903317 228.763789 
L 161.737453 228.177705 
L 163.405723 226.517575 
L 165.073993 224.721937 
L 165.908129 223.523006 
L 166.742264 221.877622 
L 167.576399 219.663658 
L 168.688579 215.8436 
L 170.634895 207.844648 
L 172.303165 201.338909 
L 173.693391 196.900981 
L 174.805571 194.117013 
L 175.639706 192.504284 
L 176.473841 191.290538 
L 177.307977 190.411487 
L 180.366473 187.684519 
L 182.312788 185.430354 
L 182.868878 185.027617 
L 183.424968 184.856778 
L 183.981058 184.962204 
L 184.537149 185.364199 
L 185.093239 186.058179 
L 185.927374 187.583671 
L 187.039554 190.266143 
L 189.54196 196.656403 
L 190.376095 198.176688 
L 190.932185 198.869094 
L 191.488276 199.261148 
L 192.044366 199.327478 
L 192.600456 199.056088 
L 193.156546 198.452278 
L 193.712636 197.541731 
L 194.546771 195.710278 
L 197.327222 188.912412 
L 198.161357 187.618245 
L 198.995493 186.71226 
L 200.385718 185.306724 
L 201.219853 184.028336 
L 202.053988 182.276938 
L 204.000304 177.844473 
L 204.556394 177.104013 
L 205.112484 176.811858 
L 205.390529 176.847549 
L 205.946619 177.271034 
L 206.50271 178.097494 
L 207.61489 180.405766 
L 208.449025 182.059733 
L 209.005115 182.868618 
L 209.561205 183.367757 
L 210.117296 183.568093 
L 210.673386 183.537803 
L 212.619701 183.134043 
L 213.453836 183.35746 
L 215.122107 184.054709 
L 215.678197 184.037503 
L 216.234287 183.783197 
L 216.790377 183.282001 
L 217.624513 182.153452 
L 219.570828 179.27307 
L 220.126918 178.796576 
L 220.683008 178.585045 
L 221.239099 178.653502 
L 221.795189 178.9884 
L 222.629324 179.903472 
L 224.019549 182.016552 
L 225.13173 183.596163 
L 225.965865 184.376224 
L 226.521955 184.619304 
L 227.078045 184.61323 
L 227.634135 184.351946 
L 228.190225 183.845224 
L 229.024361 182.682182 
L 230.136541 180.594228 
L 232.360901 176.158801 
L 233.195037 174.893246 
L 234.029172 173.944155 
L 236.531578 171.563604 
L 237.087668 170.648164 
L 237.921803 168.69683 
L 238.755938 165.964368 
L 239.590073 162.486406 
L 240.702254 156.927519 
L 242.370524 147.244766 
L 244.038795 136.131688 
L 247.375336 112.814695 
L 248.209471 108.495001 
L 249.043606 105.13139 
L 249.877741 102.53869 
L 253.214282 93.402453 
L 255.438643 86.021574 
L 255.994733 84.847768 
L 256.272778 84.499231 
L 256.550823 84.345081 
L 256.828868 84.409578 
L 257.106913 84.713163 
L 257.384958 85.272027 
L 257.941048 87.191912 
L 258.497139 90.179933 
L 259.331274 96.432907 
L 260.721499 109.565608 
L 262.111724 121.978646 
L 262.94586 127.584611 
L 263.779995 131.540015 
L 264.61413 134.125018 
L 265.448265 135.892287 
L 266.560446 138.069596 
L 267.394581 140.252162 
L 268.228716 143.201574 
L 269.340896 148.139607 
L 270.731122 154.29941 
L 271.287212 156.053626 
L 271.843302 157.037061 
L 272.121347 157.167482 
L 272.399392 157.021482 
L 272.677437 156.575072 
L 272.955482 155.807122 
L 273.511573 153.235982 
L 274.067663 149.198234 
L 274.623753 143.643519 
L 275.457888 132.545314 
L 276.570068 113.455417 
L 279.072474 67.63147 
L 279.906609 57.648748 
L 280.462699 53.740654 
L 280.740744 52.690378 
L 281.01879 52.255006 
L 281.296835 52.431744 
L 281.57488 53.209092 
L 281.852925 54.567805 
L 282.409015 58.921574 
L 282.965105 65.237461 
L 283.79924 77.759099 
L 284.911421 98.70507 
L 286.579691 135.426569 
L 288.526007 178.302059 
L 289.638187 197.912407 
L 290.472322 208.338558 
L 291.028412 212.807743 
L 291.584502 215.125827 
L 291.862547 215.463192 
L 292.140593 215.258755 
L 292.418638 214.526424 
L 292.974728 211.573117 
L 293.530818 206.875729 
L 294.364953 197.47638 
L 296.033224 177.309089 
L 296.589314 172.432308 
L 297.145404 169.312893 
L 297.423449 168.502561 
L 297.701494 168.214766 
L 297.979539 168.450382 
L 298.257584 169.197527 
L 298.813674 172.11993 
L 299.369764 176.671148 
L 300.2039 185.601604 
L 302.42826 211.125176 
L 303.262396 218.437729 
L 304.096531 224.027872 
L 304.930666 228.096152 
L 305.764801 230.96089 
L 306.598936 232.917967 
L 307.433072 234.192468 
L 307.989162 234.735551 
L 308.545252 235.062759 
L 309.101342 235.191223 
L 309.657432 235.134923 
L 310.213522 234.905092 
L 311.047658 234.254561 
L 311.881793 233.260343 
L 312.715928 231.943691 
L 313.828108 229.713549 
L 314.940289 226.986544 
L 316.608559 222.182696 
L 318.83292 215.069666 
L 320.223145 209.972989 
L 321.05728 206.22408 
L 321.891416 201.578191 
L 322.725551 195.700346 
L 323.559686 188.315226 
L 324.671866 175.912546 
L 326.062092 156.808916 
L 328.842542 116.405422 
L 329.954723 103.348842 
L 331.344948 89.75081 
L 333.569309 68.423424 
L 337.183895 31.367731 
L 338.01803 25.740475 
L 338.57412 23.283204 
L 339.13021 22.047285 
L 339.408255 21.927273 
L 339.6863 22.15475 
L 339.964345 22.736401 
L 340.520436 24.966445 
L 341.076526 28.57704 
L 341.910661 36.300869 
L 343.022841 49.770744 
L 347.193517 104.12387 
L 348.305698 115.333468 
L 349.417878 124.409225 
L 350.530058 131.459691 
L 351.920284 138.45499 
L 353.866599 148.070172 
L 355.812915 158.004462 
L 356.369005 160.092098 
L 356.925095 161.453698 
L 357.20314 161.802341 
L 357.481185 161.904518 
L 357.75923 161.747387 
L 358.037275 161.323465 
L 358.593365 159.675635 
L 359.149456 157.025131 
L 359.983591 151.543761 
L 362.764042 130.932769 
L 363.598177 126.744625 
L 364.432312 123.682017 
L 365.544492 120.687572 
L 366.934718 117.693889 
L 367.768853 116.313685 
L 368.324943 115.70392 
L 368.881033 115.39552 
L 369.437123 115.365561 
L 370.827349 115.596929 
L 371.105394 115.471878 
L 371.383439 115.217547 
L 371.939529 114.222176 
L 372.495619 112.480002 
L 373.051709 109.99064 
L 374.16389 103.48906 
L 375.27607 97.196286 
L 375.83216 95.021409 
L 376.38825 93.804511 
L 376.666295 93.577844 
L 376.94434 93.598013 
L 377.222385 93.847542 
L 377.778476 94.925981 
L 378.612611 97.459759 
L 380.002836 101.767828 
L 380.558926 102.958409 
L 381.115016 103.750899 
L 381.671107 104.187705 
L 382.227197 104.352146 
L 383.061332 104.293536 
L 384.729602 104.047612 
L 385.285693 104.167724 
L 385.841783 104.503951 
L 386.397873 105.136765 
L 386.953963 106.14411 
L 387.510053 107.586752 
L 388.344188 110.625313 
L 389.178324 114.651137 
L 390.568549 122.887743 
L 394.46118 147.069375 
L 396.12945 155.954874 
L 397.519676 162.121256 
L 398.631856 165.986999 
L 399.465991 168.157354 
L 400.300127 169.66526 
L 400.856217 170.320924 
L 401.412307 170.736914 
L 402.246442 171.038004 
L 403.914713 171.395721 
L 404.748848 171.862306 
L 405.582983 172.59489 
L 407.807344 174.809005 
L 408.641479 175.320355 
L 409.475614 175.609197 
L 410.865839 175.797585 
L 411.699975 175.761558 
L 412.256065 175.605543 
L 412.812155 175.26651 
L 413.368245 174.675086 
L 413.924335 173.783744 
L 414.75847 171.897641 
L 416.426741 167.548419 
L 416.982831 166.663231 
L 417.260876 166.452686 
L 417.538921 166.427186 
L 417.816966 166.603437 
L 418.095011 166.991974 
L 418.651102 168.413999 
L 419.207192 170.638217 
L 420.041327 175.106598 
L 421.987642 186.394131 
L 422.821778 189.934319 
L 423.655913 192.454483 
L 424.768093 194.857841 
L 426.158319 197.822725 
L 426.436364 198.513797 
L 426.436364 198.513797 
" clip-path="url(#p4b3c7111a7)" style="fill: none; stroke-dasharray: 11.1,4.8; stroke-dashoffset: 0; stroke: #000000; stroke-width: 3"/>
   </g>
   <g id="line2d_2">
    <path d="M 27.163636 189.161031 
L 28.275817 200.67273 
L 29.387997 209.980329 
L 29.944087 216.462264 
L 30.222132 217.85135 
L 30.500177 219.897421 
L 31.334312 222.131031 
L 31.612358 227.443776 
L 31.890403 228.65919 
L 32.168448 228.14539 
L 32.446493 226.125262 
L 33.002583 220.406107 
L 33.558673 217.708687 
L 33.836718 217.432193 
L 34.114763 217.326524 
L 34.392808 216.485414 
L 34.948898 213.151836 
L 35.783034 202.749933 
L 36.061079 209.487309 
L 36.895214 199.170668 
L 37.451304 192.617988 
L 38.563484 174.140987 
L 38.84153 171.614542 
L 39.119575 171.435335 
L 39.39762 175.992982 
L 39.675665 177.251078 
L 40.231755 176.603196 
L 40.5098 182.480131 
L 40.787845 181.584142 
L 41.62198 177.589712 
L 42.17807 176.16538 
L 42.456115 176.205193 
L 42.734161 177.348889 
L 43.012206 177.82128 
L 43.290251 178.0061 
L 43.568296 178.039826 
L 43.846341 178.849255 
L 44.124386 177.869774 
L 44.402431 175.763659 
L 44.680476 172.756468 
L 44.958521 174.483412 
L 46.070701 155.548987 
L 46.904837 135.452313 
L 47.460927 132.172368 
L 48.017017 130.659505 
L 48.295062 130.413643 
L 48.851152 129.374269 
L 49.129197 129.111369 
L 49.407242 130.520983 
L 49.963332 130.394884 
L 50.241378 130.417684 
L 51.075513 130.95643 
L 51.353558 131.093181 
L 51.631603 131.405322 
L 52.465738 131.489064 
L 52.743783 131.639086 
L 53.299873 131.554571 
L 53.577918 131.687205 
L 53.855964 136.667877 
L 54.134009 136.576003 
L 54.690099 137.160498 
L 54.968144 137.248256 
L 55.246189 137.529067 
L 55.524234 138.243446 
L 55.802279 139.989549 
L 56.080324 143.24355 
L 56.636414 152.232073 
L 56.914459 154.888683 
L 57.192504 156.197492 
L 57.748595 157.1417 
L 58.02664 157.534191 
L 58.304685 158.934725 
L 59.69491 160.188131 
L 60.251 160.342469 
L 61.363181 160.330819 
L 61.641226 160.5224 
L 61.919271 160.431873 
L 62.475361 159.921166 
L 62.753406 159.929722 
L 63.309496 159.490035 
L 64.699721 158.625353 
L 65.255812 158.766943 
L 65.811902 159.133665 
L 66.367992 159.635142 
L 66.924082 159.927577 
L 67.202127 160.841925 
L 68.592352 160.14071 
L 69.148443 159.877362 
L 69.704533 159.791824 
L 70.260623 159.773589 
L 70.538668 159.823155 
L 71.372803 159.368326 
L 71.650848 158.73399 
L 72.206938 159.170634 
L 73.041074 160.114118 
L 73.597164 160.501346 
L 75.265434 160.906284 
L 76.09957 160.566478 
L 76.933705 160.107982 
L 77.76784 159.783617 
L 79.714155 158.453554 
L 80.548291 158.153186 
L 81.382426 157.429845 
L 82.494606 156.576014 
L 83.050696 155.708039 
L 83.606787 154.650329 
L 84.162877 154.121412 
L 84.718967 153.275065 
L 84.997012 153.26591 
L 85.831147 151.365944 
L 86.387237 150.834533 
L 86.665282 150.307462 
L 87.221372 148.689928 
L 88.055508 145.740958 
L 88.889643 145.209447 
L 89.167688 145.934086 
L 89.445733 149.562892 
L 90.001823 149.879598 
L 90.557913 149.72354 
L 91.948139 148.953201 
L 92.226184 148.922069 
L 92.504229 149.151093 
L 93.338364 150.565846 
L 93.616409 150.821486 
L 93.894454 151.340475 
L 94.172499 151.207841 
L 95.28468 149.801893 
L 95.562725 149.658757 
L 95.84077 149.381838 
L 96.118815 149.627974 
L 96.674905 148.991143 
L 96.95295 149.021202 
L 97.230995 149.950443 
L 97.787085 150.571558 
L 98.06513 150.351365 
L 98.343175 153.099624 
L 99.177311 150.843388 
L 99.455356 150.813554 
L 100.289491 151.987933 
L 100.567536 152.195429 
L 100.845581 152.010982 
L 101.123626 151.976333 
L 101.401671 152.378902 
L 101.957761 154.484093 
L 102.235807 155.060082 
L 102.513852 155.232131 
L 102.791897 155.761123 
L 104.182122 153.821544 
L 104.738212 153.518956 
L 105.016257 153.567949 
L 105.294302 153.732963 
L 106.406483 154.92191 
L 106.962573 155.263811 
L 107.240618 156.280486 
L 107.796708 156.248506 
L 108.352798 156.393214 
L 109.186933 156.28298 
L 109.743024 156.634336 
L 110.577159 157.121844 
L 111.133249 157.39552 
L 111.411294 157.607331 
L 111.689339 158.076529 
L 111.967384 158.094614 
L 112.245429 157.885123 
L 112.523474 157.409789 
L 113.079564 155.402308 
L 114.46979 148.626965 
L 114.747835 148.212124 
L 115.02588 148.543024 
L 115.303925 149.158227 
L 115.58197 150.578793 
L 115.860015 152.776531 
L 116.416105 157.825354 
L 116.69415 158.827585 
L 116.972195 159.257144 
L 117.528286 159.334899 
L 118.084376 159.129299 
L 118.640466 158.539416 
L 119.196556 157.754035 
L 120.030691 154.098612 
L 120.308736 153.728398 
L 120.586781 153.664912 
L 121.142872 152.981957 
L 121.420917 152.585674 
L 121.977007 152.349142 
L 122.533097 152.604059 
L 122.811142 152.983104 
L 123.089187 153.058589 
L 123.367232 153.296543 
L 124.201367 154.774233 
L 124.757458 154.67268 
L 125.035503 149.644962 
L 125.591593 148.420842 
L 125.869638 148.119177 
L 126.147683 148.191369 
L 126.981818 149.28253 
L 127.259863 149.539917 
L 127.537908 149.594373 
L 127.815953 149.903446 
L 128.093998 150.478986 
L 128.372044 151.583144 
L 128.650089 152.129648 
L 128.928134 152.317262 
L 129.206179 152.037275 
L 129.484224 152.525556 
L 130.318359 148.840249 
L 130.874449 148.362918 
L 131.430539 148.208731 
L 132.264675 149.616774 
L 132.54272 150.339292 
L 132.820765 151.8999 
L 133.376855 158.920756 
L 133.932945 160.419425 
L 135.045125 153.186334 
L 135.601215 152.380922 
L 136.157306 151.871937 
L 136.435351 151.72436 
L 136.991441 151.834618 
L 137.825576 152.475765 
L 138.103621 152.588643 
L 138.381666 153.256156 
L 138.659711 153.479991 
L 139.493847 154.943188 
L 140.049937 155.783898 
L 140.884072 156.263573 
L 141.162117 156.277941 
L 141.440162 156.163966 
L 141.996252 156.465655 
L 142.274297 156.518116 
L 142.552342 156.275746 
L 142.830387 154.840139 
L 143.386478 153.403559 
L 143.664523 153.038408 
L 143.942568 152.908817 
L 145.332793 153.35983 
L 145.888883 153.962735 
L 146.723018 155.502165 
L 147.001064 155.725201 
L 147.279109 156.425418 
L 147.557154 156.283978 
L 148.391289 155.490266 
L 148.947379 155.41967 
L 149.225424 155.431145 
L 149.781514 156.144708 
L 150.337604 157.819866 
L 150.893695 160.646628 
L 151.17174 161.409582 
L 151.449785 161.444681 
L 151.72783 161.307082 
L 152.561965 157.511915 
L 153.118055 155.434263 
L 153.674145 154.560426 
L 153.95219 154.372213 
L 154.230236 154.581954 
L 154.508281 155.819994 
L 154.786326 158.752325 
L 155.064371 162.97064 
L 155.342416 168.942068 
L 155.898506 189.394968 
L 156.454596 197.125071 
L 157.010686 201.515186 
L 157.288731 202.741177 
L 158.122867 235.81278 
L 158.400912 235.44945 
L 158.678957 236.807702 
L 158.957002 237.123461 
L 159.235047 237.615109 
L 159.513092 235.501661 
L 159.791137 234.403016 
L 160.069182 234.034223 
L 160.347227 236.066624 
L 160.625272 217.436608 
L 161.459407 219.107076 
L 161.737453 216.679863 
L 163.127678 189.358498 
L 163.961813 177.322173 
L 164.517903 172.477603 
L 165.630084 164.824681 
L 166.186174 163.334069 
L 166.742264 162.76534 
L 167.020309 162.754987 
L 167.298354 163.102327 
L 167.854444 164.307439 
L 168.410534 165.037366 
L 168.688579 165.103321 
L 168.966624 164.783796 
L 171.747075 155.900493 
L 172.303165 155.1204 
L 172.859256 154.478605 
L 174.249481 152.497592 
L 174.805571 152.287352 
L 175.361661 152.334823 
L 176.195796 152.783491 
L 177.029932 153.256755 
L 177.586022 153.19287 
L 178.142112 152.84795 
L 178.420157 151.725333 
L 178.698202 151.691457 
L 179.810382 151.99841 
L 180.644518 152.040617 
L 181.200608 151.922426 
L 181.478653 151.769985 
L 182.034743 151.095911 
L 182.868878 149.908086 
L 183.146923 150.274459 
L 183.703013 151.29243 
L 184.259104 151.86378 
L 184.815194 152.841814 
L 185.371284 153.07882 
L 185.649329 153.04195 
L 185.927374 152.806391 
L 186.483464 152.045931 
L 187.039554 151.838909 
L 187.317599 151.286244 
L 188.151735 152.55998 
L 188.42978 152.546136 
L 188.98587 152.238634 
L 189.820005 152.120717 
L 190.65414 152.000381 
L 191.488276 151.642689 
L 191.766321 151.435143 
L 192.322411 151.459764 
L 192.600456 151.529511 
L 193.156546 152.062395 
L 193.434591 152.4369 
L 193.712636 152.5968 
L 194.268726 151.882613 
L 194.824816 150.616385 
L 195.380907 149.459967 
L 195.658952 149.184694 
L 196.215042 149.073064 
L 197.049177 150.611147 
L 197.327222 150.465715 
L 198.161357 148.967794 
L 198.439402 148.753613 
L 198.995493 148.747676 
L 199.551583 148.781203 
L 200.385718 148.535166 
L 200.663763 148.239863 
L 200.941808 148.192666 
L 202.053988 147.280363 
L 202.610079 147.424548 
L 202.888124 147.798953 
L 203.444214 149.703509 
L 204.000304 152.234942 
L 204.834439 154.376205 
L 205.112484 154.628402 
L 205.390529 154.515375 
L 205.946619 152.964121 
L 206.224664 152.19922 
L 206.50271 151.843349 
L 206.780755 151.829779 
L 207.0588 151.979576 
L 207.61489 152.649385 
L 209.28316 155.445913 
L 209.83925 155.865694 
L 210.117296 155.955173 
L 210.395341 155.702526 
L 210.673386 155.058935 
L 211.785566 149.880272 
L 212.063611 149.405611 
L 212.341656 149.241196 
L 212.897746 149.272203 
L 213.175791 149.382511 
L 213.453836 149.793088 
L 213.731881 150.45449 
L 214.287972 152.579687 
L 214.844062 154.647885 
L 215.400152 155.680574 
L 215.678197 155.814281 
L 215.956242 155.635997 
L 216.234287 155.162832 
L 216.790377 153.263366 
L 217.346467 149.828884 
L 217.902558 143.985751 
L 218.180603 139.383052 
L 218.458648 136.912192 
L 218.736693 136.418997 
L 219.292783 137.179033 
L 220.126918 139.117982 
L 220.404963 139.194963 
L 220.961053 139.917382 
L 221.239099 139.980194 
L 221.795189 139.76287 
L 222.351279 139.169444 
L 222.629324 139.242185 
L 222.907369 139.64423 
L 223.185414 139.483731 
L 223.463459 138.692738 
L 223.741504 138.452638 
L 224.019549 142.039337 
L 224.297594 147.747965 
L 224.575639 149.254217 
L 224.853684 149.33282 
L 225.13173 148.870807 
L 226.24391 146.18778 
L 226.8 143.982059 
L 227.078045 143.130249 
L 227.91218 141.971286 
L 228.46827 140.4686 
L 229.024361 138.13953 
L 229.302406 136.332087 
L 229.580451 135.706282 
L 229.858496 136.165576 
L 230.414586 137.433052 
L 230.692631 137.696475 
L 230.970676 137.594324 
L 231.248721 137.202606 
L 231.526766 137.009679 
L 232.082856 137.869796 
L 232.360901 138.000859 
L 232.638947 137.856175 
L 232.916992 137.510357 
L 233.195037 137.354923 
L 233.751127 137.51143 
L 234.029172 137.787226 
L 234.307217 139.05502 
L 235.141352 141.306341 
L 235.419397 143.788932 
L 236.253533 143.95654 
L 237.087668 142.544256 
L 237.643758 141.614267 
L 238.199848 141.314049 
L 238.477893 141.36611 
L 239.590073 143.438549 
L 239.868119 145.041914 
L 240.146164 144.279358 
L 240.980299 140.892073 
L 241.258344 140.703237 
L 241.536389 140.799002 
L 241.814434 141.114935 
L 242.370524 142.596916 
L 242.648569 142.406583 
L 242.926614 141.759674 
L 243.204659 142.296598 
L 244.038795 140.245514 
L 244.31684 144.948169 
L 244.594885 144.100549 
L 245.42902 139.344661 
L 245.707065 138.986121 
L 245.98511 138.968559 
L 246.5412 139.392157 
L 246.819245 139.722234 
L 247.375336 139.85185 
L 247.653381 140.223636 
L 248.487516 140.481123 
L 248.765561 143.329787 
L 249.043606 143.100988 
L 249.877741 141.272366 
L 250.155786 141.251761 
L 250.433831 141.361246 
L 250.711876 141.662561 
L 251.267967 143.349718 
L 251.546012 143.689 
L 251.824057 143.453641 
L 252.102102 144.6484 
L 252.658192 143.352736 
L 252.936237 142.32082 
L 253.214282 147.020831 
L 253.492327 145.961575 
L 254.326462 140.299346 
L 254.604507 139.868115 
L 255.438643 139.35631 
L 255.716688 139.197233 
L 256.550823 138.093531 
L 256.828868 137.468374 
L 257.106913 135.814071 
L 257.384958 135.180009 
L 257.663003 136.146768 
L 257.941048 136.055143 
L 258.775184 138.764356 
L 259.609319 140.164466 
L 259.887364 140.097089 
L 260.721499 141.03965 
L 260.999544 140.313615 
L 261.555634 142.199062 
L 261.833679 143.621373 
L 262.111724 138.380222 
L 262.38977 137.636082 
L 262.667815 137.471567 
L 263.223905 137.62336 
L 263.50195 137.355272 
L 263.779995 136.892585 
L 264.61413 134.838781 
L 264.892175 134.561563 
L 265.448265 134.347706 
L 265.72631 134.568248 
L 266.004356 135.026021 
L 266.282401 135.831009 
L 266.560446 135.328284 
L 267.116536 136.865569 
L 267.672626 138.415345 
L 267.950671 138.602036 
L 268.228716 138.593281 
L 268.784806 138.279143 
L 269.618942 137.233888 
L 269.896987 137.067776 
L 270.453077 136.610752 
L 270.731122 136.391906 
L 271.009167 136.764465 
L 271.287212 136.164753 
L 271.565257 135.984149 
L 272.121347 135.823176 
L 272.677437 134.867767 
L 273.511573 132.590353 
L 273.789618 132.448563 
L 274.067663 132.965033 
L 274.345708 132.589829 
L 274.623753 134.110126 
L 275.179843 142.979953 
L 275.457888 133.004272 
L 275.735933 133.877386 
L 276.013978 134.149689 
L 276.292023 133.932615 
L 276.848113 131.891857 
L 277.404204 130.617472 
L 277.682249 130.898881 
L 277.960294 130.814191 
L 278.238339 130.410824 
L 278.516384 129.673339 
L 278.794429 129.961084 
L 279.072474 129.137686 
L 279.350519 128.694307 
L 279.628564 128.483593 
L 279.906609 132.460063 
L 280.462699 129.955496 
L 281.01879 127.857963 
L 281.57488 127.884405 
L 282.68706 128.292237 
L 283.521195 128.431158 
L 283.79924 128.500007 
L 284.077285 128.432231 
L 284.35533 130.090725 
L 285.467511 127.181494 
L 286.023601 126.876387 
L 286.301646 126.835401 
L 286.857736 127.43217 
L 287.135781 127.529931 
L 287.413826 127.333461 
L 287.691871 128.164716 
L 287.969916 127.669301 
L 288.247962 127.573136 
L 288.526007 127.725702 
L 288.804052 132.453952 
L 289.082097 132.764198 
L 289.638187 132.230566 
L 289.916232 133.103405 
L 290.194277 141.104608 
L 291.028412 182.049249 
L 291.306457 189.420513 
L 291.862547 218.378296 
L 292.418638 305.594741 
L 292.696683 314.509799 
L 292.974728 316.472727 
L 293.252773 314.583388 
L 293.530818 307.653858 
L 293.808863 290.998544 
L 294.364953 248.74467 
L 294.642998 242.683364 
L 295.477133 144.450633 
L 295.755179 130.448517 
L 296.033224 126.33829 
L 296.311269 125.594967 
L 296.589314 125.665712 
L 296.867359 125.353945 
L 297.423449 125.245856 
L 297.701494 129.00111 
L 298.813674 125.957324 
L 299.64781 127.681699 
L 299.925855 128.632368 
L 300.2039 130.558102 
L 300.481945 135.042859 
L 300.75999 145.190264 
L 301.31608 178.46512 
L 301.594125 182.579064 
L 301.87217 184.031235 
L 302.150215 184.62748 
L 303.540441 190.498303 
L 303.818486 191.158782 
L 304.374576 194.184733 
L 304.930666 199.037709 
L 305.208711 203.030643 
L 306.598936 260.141421 
L 307.433072 270.012086 
L 307.989162 276.918043 
L 308.823297 289.237948 
L 309.379387 297.961152 
L 309.935477 304.799257 
L 310.213522 306.343402 
L 310.491567 304.628581 
L 310.769613 301.352677 
L 311.047658 306.748216 
L 311.325703 303.242365 
L 311.603748 295.182036 
L 312.437883 255.327684 
L 312.993973 231.151584 
L 313.272018 230.184227 
L 313.828108 235.556765 
L 314.106153 236.174987 
L 314.384199 238.311161 
L 314.662244 238.040054 
L 314.940289 238.12205 
L 315.218334 238.332614 
L 315.496379 240.219433 
L 315.774424 239.478281 
L 316.886604 232.996745 
L 317.164649 231.729893 
L 317.442694 231.472407 
L 317.720739 230.811254 
L 317.998785 231.511571 
L 318.27683 232.680412 
L 318.554875 234.571547 
L 318.83292 235.320083 
L 319.110965 237.028419 
L 319.38901 237.657691 
L 319.667055 237.707881 
L 319.9451 236.373827 
L 320.223145 236.291033 
L 320.779235 232.949922 
L 321.61337 225.168781 
L 321.891416 223.389102 
L 323.003596 202.136775 
L 323.281641 187.452196 
L 323.559686 183.494036 
L 323.837731 175.75438 
L 324.115776 160.48109 
L 324.393821 132.255212 
L 324.949911 128.808956 
L 325.506002 126.853686 
L 326.062092 125.715154 
L 326.618182 125.025314 
L 327.174272 124.853465 
L 327.452317 124.884323 
L 327.730362 125.160942 
L 328.286452 128.909012 
L 328.564497 131.107125 
L 328.842542 125.218092 
L 329.120587 124.907048 
L 329.398633 124.859277 
L 329.676678 125.457019 
L 330.232768 127.711084 
L 330.510813 127.629313 
L 330.788858 127.245728 
L 331.066903 126.489135 
L 331.622993 126.098041 
L 331.901038 126.163896 
L 332.179083 125.89496 
L 332.457128 126.153195 
L 332.735173 126.109391 
L 333.013219 125.746735 
L 333.291264 123.373081 
L 333.569309 122.930674 
L 333.847354 122.752639 
L 334.403444 123.025093 
L 334.681489 122.817023 
L 335.237579 121.955759 
L 335.793669 120.718767 
L 336.071714 120.281474 
L 336.627805 120.128609 
L 337.183895 121.339982 
L 337.46194 122.039101 
L 337.739985 121.35208 
L 338.57412 122.27047 
L 338.852165 122.314424 
L 339.13021 121.832778 
L 339.964345 119.549102 
L 340.24239 119.193281 
L 340.798481 119.013375 
L 341.076526 119.356274 
L 341.910661 119.686776 
L 342.188706 126.047426 
L 342.466751 125.030977 
L 343.300886 120.481436 
L 343.578931 120.181119 
L 344.413067 119.700571 
L 344.691112 119.534559 
L 344.969157 119.541743 
L 345.525247 120.690154 
L 345.803292 122.204639 
L 346.081337 123.073088 
L 346.359382 123.328703 
L 346.637427 121.992977 
L 346.915472 122.42361 
L 347.471562 122.007071 
L 348.027653 122.3023 
L 348.583743 122.723054 
L 348.861788 123.212832 
L 349.417878 124.931095 
L 349.695923 126.016868 
L 350.530058 130.294005 
L 350.808103 131.656647 
L 351.086148 131.181687 
L 351.364193 131.858306 
L 351.642239 131.875144 
L 351.920284 131.425977 
L 352.198329 130.717852 
L 353.310509 125.906759 
L 353.866599 124.475717 
L 354.144644 124.224767 
L 354.422689 124.612468 
L 354.700734 125.528812 
L 354.978779 127.042997 
L 355.256825 129.656127 
L 355.53487 129.10865 
L 355.812915 130.286347 
L 356.369005 131.44289 
L 356.64705 130.502823 
L 356.925095 128.805314 
L 357.481185 127.488472 
L 357.75923 127.527486 
L 358.31532 126.822056 
L 358.593365 126.469478 
L 358.87141 126.856929 
L 359.705546 126.458527 
L 359.983591 126.876586 
L 360.539681 123.730997 
L 361.095771 120.23091 
L 361.651861 117.615186 
L 362.207951 115.774291 
L 362.764042 114.860791 
L 363.042087 114.82926 
L 363.320132 114.951068 
L 363.876222 115.764737 
L 364.154267 116.347311 
L 364.432312 114.720024 
L 364.988402 115.102886 
L 365.544492 115.918575 
L 366.100582 117.300175 
L 366.378628 118.185787 
L 367.768853 124.504404 
L 368.602988 125.881614 
L 368.881033 130.833175 
L 369.159078 130.808579 
L 369.437123 130.400622 
L 369.715168 129.171837 
L 370.271259 125.383156 
L 370.827349 123.047868 
L 371.661484 123.201507 
L 371.939529 122.969514 
L 372.217574 123.160147 
L 372.773664 121.915023 
L 373.051709 121.146256 
L 373.329754 123.191005 
L 373.885845 120.363619 
L 374.16389 119.427044 
L 374.441935 118.95847 
L 374.998025 118.593694 
L 375.27607 118.496407 
L 375.554115 118.534174 
L 375.83216 118.892739 
L 376.38825 120.112444 
L 376.666295 122.156619 
L 376.94434 122.282868 
L 377.50043 122.306341 
L 377.778476 129.918203 
L 378.056521 129.912241 
L 378.612611 129.194163 
L 379.168701 127.828378 
L 379.724791 127.129283 
L 380.002836 127.605116 
L 380.280881 127.453748 
L 380.558926 126.552471 
L 380.836971 124.76229 
L 381.115016 124.247317 
L 381.671107 120.934619 
L 381.949152 120.20332 
L 382.227197 123.661475 
L 382.783287 121.080724 
L 383.061332 119.829364 
L 383.339377 119.15706 
L 383.895467 119.084095 
L 384.173512 119.07499 
L 385.285693 121.410278 
L 385.563738 123.346863 
L 386.397873 122.292571 
L 386.675918 131.336747 
L 386.953963 131.371621 
L 387.232008 130.606247 
L 387.510053 129.452822 
L 388.066143 126.114155 
L 388.344188 125.340424 
L 388.622233 125.051357 
L 388.900279 126.133139 
L 389.178324 126.627906 
L 389.456369 126.543216 
L 389.734414 125.561815 
L 390.012459 125.729473 
L 390.568549 121.999039 
L 390.846594 121.018336 
L 391.124639 128.28201 
L 391.402684 127.648646 
L 391.680729 126.152821 
L 392.514865 120.132301 
L 392.79291 119.999865 
L 393.070955 120.321661 
L 393.90509 126.688573 
L 394.183135 127.602048 
L 394.46118 130.279911 
L 395.01727 131.792999 
L 395.295315 132.51644 
L 395.57336 138.185978 
L 395.851405 137.256189 
L 396.12945 137.170676 
L 396.407496 137.224808 
L 396.963586 137.061116 
L 397.241631 136.736751 
L 397.519676 136.101492 
L 397.797721 135.885839 
L 398.075766 135.450168 
L 398.353811 134.183416 
L 398.631856 132.194994 
L 398.909901 131.174353 
L 399.465991 125.15518 
L 399.744036 123.103771 
L 400.022082 130.690662 
L 400.300127 130.271629 
L 400.856217 128.804366 
L 401.412307 126.545736 
L 401.690352 126.409858 
L 401.968397 127.027182 
L 402.524487 131.033187 
L 403.358622 135.72519 
L 403.914713 135.920638 
L 404.192758 135.730778 
L 404.470803 139.793728 
L 405.026893 137.445749 
L 405.582983 136.358055 
L 406.417118 135.117072 
L 406.695163 135.174945 
L 406.973208 134.837584 
L 407.529299 133.772415 
L 407.807344 133.929023 
L 408.363434 132.952959 
L 408.641479 132.684572 
L 408.919524 135.850292 
L 409.197569 134.238345 
L 409.753659 132.795304 
L 410.309749 130.698969 
L 410.587794 130.647456 
L 410.865839 131.022336 
L 411.699975 139.030224 
L 411.97802 140.175916 
L 412.256065 144.496657 
L 412.812155 143.86292 
L 413.0902 143.164099 
L 413.368245 144.571743 
L 413.924335 141.22719 
L 414.480425 139.780656 
L 414.75847 139.257951 
L 415.036516 138.382766 
L 416.148696 132.456172 
L 416.426741 132.07765 
L 416.704786 132.182596 
L 417.260876 131.162479 
L 417.538921 130.225605 
L 417.816966 134.072633 
L 418.373056 132.835067 
L 418.651102 132.129362 
L 419.207192 130.226802 
L 419.485237 130.117741 
L 419.763282 130.346465 
L 420.319372 135.763207 
L 420.597417 137.789496 
L 420.875462 138.606302 
L 421.153507 143.63442 
L 421.431552 143.446656 
L 421.709597 143.673684 
L 421.987642 143.332256 
L 422.265688 151.417282 
L 422.543733 150.745927 
L 422.821778 150.418319 
L 423.099823 150.398213 
L 423.377868 149.792863 
L 423.655913 148.736426 
L 425.324183 139.115063 
L 425.602228 140.454232 
L 426.436364 135.927423 
L 426.436364 135.927423 
" clip-path="url(#p4b3c7111a7)" style="fill: none; stroke: #ff00ff; stroke-width: 3; stroke-linecap: square"/>
   </g>
   <g id="patch_3">
    <path d="M 7.2 331.2 
L 7.2 7.2 
" style="fill: none; stroke: #000000; stroke-width: 0.8; stroke-linejoin: miter; stroke-linecap: square"/>
   </g>
   <g id="patch_4">
    <path d="M 446.4 331.2 
L 446.4 7.2 
" style="fill: none; stroke: #000000; stroke-width: 0.8; stroke-linejoin: miter; stroke-linecap: square"/>
   </g>
   <g id="patch_5">
    <path d="M 7.2 331.2 
L 446.4 331.2 
" style="fill: none; stroke: #000000; stroke-width: 0.8; stroke-linejoin: miter; stroke-linecap: square"/>
   </g>
   <g id="patch_6">
    <path d="M 7.2 7.2 
L 446.4 7.2 
" style="fill: none; stroke: #000000; stroke-width: 0.8; stroke-linejoin: miter; stroke-linecap: square"/>
   </g>
  </g>
 </g>
 <defs>
  <clipPath id="p4b3c7111a7">
   <rect x="7.2" y="7.2" width="439.2" height="324"/>
  </clipPath>
 </defs>
</svg>
