<?xml version="1.0" encoding="utf-8" standalone="no"?>
<!DOCTYPE svg PUBLIC "-//W3C//DTD SVG 1.1//EN"
  "http://www.w3.org/Graphics/SVG/1.1/DTD/svg11.dtd">
<svg xmlns:xlink="http://www.w3.org/1999/xlink" width="453.6pt" height="338.4pt" viewBox="0 0 453.6 338.4" xmlns="http://www.w3.org/2000/svg" version="1.1">
 <metadata>
  <rdf:RDF xmlns:dc="http://purl.org/dc/elements/1.1/" xmlns:cc="http://creativecommons.org/ns#" xmlns:rdf="http://www.w3.org/1999/02/22-rdf-syntax-ns#">
   <cc:Work>
    <dc:type rdf:resource="http://purl.org/dc/dcmitype/StillImage"/>
    <dc:date>2025-05-15T09:38:14.401335</dc:date>
    <dc:format>image/svg+xml</dc:format>
    <dc:creator>
     <cc:Agent>
      <dc:title>Matplotlib v3.10.1, https://matplotlib.org/</dc:title>
     </cc:Agent>
    </dc:creator>
   </cc:Work>
  </rdf:RDF>
 </metadata>
 <defs>
  <style type="text/css">*{stroke-linejoin: round; stroke-linecap: butt}</style>
 </defs>
 <g id="figure_1">
  <g id="patch_1">
   <path d="M 0 338.4 
L 453.6 338.4 
L 453.6 0 
L 0 0 
z
" style="fill: #ffffff"/>
  </g>
  <g id="axes_1">
   <g id="patch_2">
    <path d="M 7.2 331.2 
L 446.4 331.2 
L 446.4 7.2 
L 7.2 7.2 
z
" style="fill: #ffffff"/>
   </g>
   <g id="matplotlib.axis_1"/>
   <g id="matplotlib.axis_2"/>
   <g id="line2d_1">
    <path d="M 27.163636 243.143994 
L 30.624 247.921105 
L 33.019636 250.845875 
L 34.882909 252.81856 
L 36.746182 254.477119 
L 38.343273 255.63252 
L 39.940364 256.529742 
L 41.537455 257.172881 
L 43.134545 257.568025 
L 44.731636 257.729235 
L 46.594909 257.680113 
L 48.990545 257.35853 
L 51.386182 256.81242 
L 54.846545 255.856683 
L 58.040727 255.218385 
L 60.702545 254.908244 
L 62.832 254.843207 
L 64.961455 255.004233 
L 66.824727 255.364312 
L 68.688 255.963706 
L 70.285091 256.691347 
L 71.882182 257.642959 
L 73.479273 258.84013 
L 74.011636 259.579882 
L 75.342545 261.504743 
L 76.407273 262.715889 
L 77.738182 263.906214 
L 78.802909 264.562362 
L 79.867636 264.937667 
L 80.932364 265.065384 
L 81.997091 264.986671 
L 83.328 264.652171 
L 84.925091 263.993631 
L 87.320727 262.709262 
L 90.781091 260.837161 
L 92.644364 260.085068 
L 93.176727 260.078335 
L 94.773818 260.962206 
L 96.104727 261.440167 
L 97.435636 261.677436 
L 98.766545 261.689593 
L 100.097455 261.491378 
L 101.694545 260.995901 
L 103.291636 260.24408 
L 104.888727 259.264817 
L 106.752 257.872665 
L 108.881455 256.008496 
L 110.744727 254.137471 
L 112.075636 252.594388 
L 112.341818 252.565438 
L 113.672727 254.49493 
L 115.269818 256.390231 
L 116.866909 257.897604 
L 118.464 259.08174 
L 120.061091 260.001285 
L 121.924364 260.807057 
L 124.053818 261.468349 
L 126.715636 262.04908 
L 130.708364 262.810171 
L 131.240727 263.341709 
L 132.305455 264.617059 
L 133.370182 265.599306 
L 134.434909 266.318938 
L 135.499636 266.802517 
L 136.564364 267.078659 
L 137.895273 267.170259 
L 139.226182 267.029936 
L 140.823273 266.62267 
L 142.952727 265.810574 
L 145.880727 264.4327 
L 148.010182 263.582397 
L 149.341091 263.251558 
L 149.607273 263.258194 
L 150.672 264.088505 
L 151.736727 264.684589 
L 152.801455 265.070028 
L 154.132364 265.287585 
L 155.463273 265.250537 
L 156.794182 265.001414 
L 158.391273 264.484008 
L 160.786909 263.428859 
L 164.779636 261.613623 
L 166.376727 261.105939 
L 166.642909 261.043645 
L 166.909091 261.138598 
L 168.772364 262.706734 
L 170.635636 263.998801 
L 172.765091 265.186058 
L 174.894545 266.124897 
L 177.822545 267.151105 
L 184.477091 269.17085 
L 186.340364 269.430165 
L 188.469818 269.481253 
L 194.592 269.45577 
L 196.189091 269.711548 
L 197.786182 270.191133 
L 198.318545 270.672236 
L 199.117091 271.371182 
L 199.915636 271.809404 
L 200.714182 272.017218 
L 201.512727 272.02389 
L 202.577455 271.767208 
L 203.642182 271.270747 
L 205.239273 270.222677 
L 209.498182 267.181794 
L 210.562909 266.716346 
L 211.627636 266.49889 
L 212.426182 266.531149 
L 213.224727 266.758231 
L 213.490909 266.88145 
L 214.289455 267.911643 
L 215.620364 269.437938 
L 216.951273 270.564353 
L 218.282182 271.347582 
L 219.613091 271.841827 
L 220.944 272.099474 
L 222.541091 272.169115 
L 224.670545 272.000913 
L 228.929455 271.574137 
L 230.526545 271.472697 
L 231.591273 271.053831 
L 232.656 270.385226 
L 233.986909 269.291593 
L 236.382545 266.955818 
L 238.778182 264.713614 
L 240.109091 263.750924 
L 241.173818 263.228506 
L 242.238545 262.991628 
L 243.037091 263.039258 
L 243.835636 263.318412 
L 244.634182 263.869192 
L 245.432727 264.744153 
L 246.763636 266.656949 
L 247.828364 267.842353 
L 248.893091 268.758527 
L 250.224 269.585195 
L 251.554909 270.119981 
L 252.885818 270.42536 
L 254.749091 270.591547 
L 260.338909 270.849458 
L 262.734545 271.308304 
L 264.331636 271.266332 
L 266.194909 270.979111 
L 270.986182 270.103522 
L 272.583273 270.08163 
L 273.914182 270.271119 
L 275.245091 270.699703 
L 276.309818 271.261605 
L 277.906909 272.47502 
L 279.237818 273.173593 
L 280.568727 273.606219 
L 281.899636 273.800831 
L 283.230545 273.79128 
L 284.827636 273.551093 
L 286.690909 273.022469 
L 289.086545 272.074877 
L 291.216 271.112433 
L 291.482182 271.209177 
L 292.546909 272.122192 
L 293.611636 272.758734 
L 294.676364 273.149418 
L 295.741091 273.30879 
L 297.072 273.241913 
L 298.402909 272.951594 
L 300.266182 272.306884 
L 304.525091 270.744349 
L 306.122182 270.459006 
L 306.388364 270.440449 
L 306.654545 270.572508 
L 307.985455 271.809633 
L 309.316364 272.781759 
L 310.913455 273.652454 
L 312.244364 274.132758 
L 313.575273 274.392934 
L 314.906182 274.456786 
L 316.503273 274.302097 
L 318.100364 273.932204 
L 319.963636 273.275481 
L 321.826909 272.44309 
L 322.093091 272.547014 
L 323.157818 273.483997 
L 323.956364 273.916926 
L 324.754909 274.129576 
L 325.553455 274.131863 
L 326.352 273.933622 
L 327.150545 273.543855 
L 328.215273 272.733874 
L 329.28 271.600024 
L 330.344727 270.156507 
L 331.675636 267.935322 
L 333.006545 265.274941 
L 334.603636 261.538873 
L 336.200727 257.251349 
L 337.797818 252.465385 
L 338.064 252.37953 
L 338.862545 252.895887 
L 339.661091 253.670786 
L 340.725818 255.052443 
L 342.056727 257.247737 
L 343.653818 260.399295 
L 346.848 267.414147 
L 348.977455 271.854616 
L 350.574545 274.676165 
L 351.639273 276.192987 
L 352.704 277.345987 
L 353.502545 277.931599 
L 354.301091 278.236468 
L 355.099636 278.28365 
L 355.898182 278.089772 
L 356.696727 277.667131 
L 357.495273 277.028061 
L 358.56 275.859945 
L 359.624727 274.356711 
L 360.955636 272.031333 
L 362.286545 269.224124 
L 363.883636 265.272535 
L 365.746909 259.946018 
L 367.876364 253.053371 
L 369.207273 248.576788 
L 370.272 249.824078 
L 371.336727 251.426014 
L 372.667636 253.856395 
L 374.264727 257.258275 
L 376.926545 263.594081 
L 379.854545 270.372331 
L 381.451636 273.543982 
L 382.782545 275.716567 
L 383.581091 276.762627 
L 383.847273 276.963199 
L 385.710545 277.123654 
L 387.573818 277.138406 
L 388.904727 276.895375 
L 389.969455 276.460751 
L 391.034182 275.744025 
L 392.098909 274.691474 
L 393.163636 273.234469 
L 394.228364 271.376489 
L 395.293091 269.026357 
L 396.357818 266.139894 
L 397.422545 262.657414 
L 398.753455 257.974975 
L 399.552 257.493138 
L 400.084364 257.382442 
L 400.882909 257.496575 
L 401.681455 257.917346 
L 402.48 258.614923 
L 403.544727 259.915918 
L 404.875636 262.020634 
L 406.472727 265.041736 
L 411.530182 275.042656 
L 412.594909 276.568275 
L 413.393455 277.350978 
L 416.055273 278.077039 
L 417.652364 278.309471 
L 418.983273 278.299311 
L 420.314182 278.037836 
L 421.378909 277.602783 
L 422.443636 276.927551 
L 423.508364 275.973306 
L 424.573091 274.69775 
L 425.637818 273.054711 
L 426.436364 271.554255 
L 426.436364 271.554255 
" clip-path="url(#pd3164b8b9a)" style="fill: none; stroke: #ffa500; stroke-width: 3; stroke-linecap: square"/>
   </g>
   <g id="line2d_2">
    <path d="M 27.163636 167.674202 
L 28.494545 155.881685 
L 29.825455 145.949274 
L 31.156364 137.594962 
L 32.487273 130.568746 
L 33.818182 124.598506 
L 35.415273 118.462078 
L 37.544727 111.280683 
L 40.472727 101.407366 
L 42.336 94.765774 
L 42.602182 96.437272 
L 44.199273 112.571982 
L 46.328727 136.033945 
L 50.055273 180.333234 
L 53.249455 217.38559 
L 55.378909 239.703788 
L 56.976 254.501777 
L 58.573091 267.214457 
L 58.839273 269.101946 
L 59.904 252.240309 
L 61.767273 219.639957 
L 66.824727 129.559208 
L 68.421818 105.71745 
L 69.752727 89.365884 
L 70.817455 79.273535 
L 71.616 73.726893 
L 72.148364 71.09921 
L 72.680727 69.394688 
L 72.946909 68.925883 
L 73.213091 68.711872 
L 73.479273 68.758396 
L 73.745455 69.072513 
L 74.011636 69.661351 
L 74.544 71.691208 
L 74.810182 74.983132 
L 77.738182 140.044642 
L 79.601455 172.557726 
L 81.464727 201.113651 
L 83.061818 222.324724 
L 84.658909 240.435007 
L 85.989818 253.103516 
L 87.320727 263.507177 
L 88.385455 270.148603 
L 89.450182 275.281224 
L 90.248727 278.123164 
L 91.047273 280.087716 
L 91.579636 280.893672 
L 91.845818 281.144207 
L 92.644364 264.698827 
L 95.838545 192.895426 
L 98.234182 141.716947 
L 99.831273 111.599364 
L 101.162182 89.961569 
L 102.226909 75.421074 
L 103.291636 63.798836 
L 104.090182 57.18816 
L 104.888727 52.552583 
L 105.421091 50.659806 
L 105.953455 49.77669 
L 106.219636 49.721721 
L 106.485818 49.931835 
L 106.752 50.41242 
L 107.284364 52.206742 
L 107.550545 53.5311 
L 107.816727 58.923826 
L 109.413818 110.274322 
L 110.478545 139.828436 
L 112.075636 174.154048 
L 113.406545 198.578341 
L 114.737455 219.494389 
L 116.068364 237.155407 
L 117.399273 251.767084 
L 118.730182 263.580698 
L 119.794909 271.166006 
L 120.859636 277.186445 
L 121.924364 281.750159 
L 122.722909 284.283335 
L 123.521455 286.097212 
L 124.053818 286.91309 
L 124.586182 287.436188 
L 124.852364 287.592054 
L 125.118545 286.147232 
L 126.183273 274.162604 
L 127.248 259.443943 
L 128.578909 236.652139 
L 130.176 205.151139 
L 133.104 141.617386 
L 135.233455 97.19472 
L 136.564364 73.198221 
L 137.629091 57.332859 
L 138.427636 47.901223 
L 139.226182 41.038773 
L 139.758545 38.028064 
L 140.290909 36.387711 
L 140.557091 36.113219 
L 140.823273 36.219469 
L 141.089455 42.027577 
L 142.686545 98.712688 
L 143.751273 131.342276 
L 145.348364 168.748786 
L 146.679273 195.331421 
L 148.010182 218.097594 
L 149.341091 237.325931 
L 150.672 253.232067 
L 151.736727 263.750639 
L 152.801455 272.437897 
L 153.866182 279.362475 
L 154.930909 284.662809 
L 155.729455 287.631942 
L 156.528 289.754435 
L 157.060364 290.730627 
L 157.592727 291.370106 
L 158.125091 291.683042 
L 158.391273 291.442875 
L 159.722182 272.143066 
L 160.786909 253.95234 
L 162.650182 216.560568 
L 166.110545 140.549262 
L 168.24 96.107337 
L 169.837091 67.480984 
L 170.901818 51.865343 
L 171.700364 42.4191 
L 172.498909 35.261037 
L 173.031273 31.902451 
L 173.563636 29.753791 
L 173.829818 29.158651 
L 174.096 28.896325 
L 174.362182 33.534746 
L 176.225455 103.36052 
L 177.290182 136.747432 
L 178.887273 176.811998 
L 180.484364 210.970737 
L 181.815273 235.221083 
L 183.146182 255.818831 
L 184.477091 273.002832 
L 185.541818 284.40406 
L 186.606545 293.783493 
L 187.671273 301.257808 
L 188.469818 305.641648 
L 189.268364 308.996937 
L 190.066909 311.375395 
L 190.599273 312.430496 
L 191.131636 313.055561 
L 191.664 313.258511 
L 191.930182 310.605433 
L 193.527273 284.356867 
L 195.124364 251.608239 
L 197.52 197.242554 
L 201.512727 106.134359 
L 203.109818 74.940014 
L 204.440727 53.457802 
L 205.505455 40.14414 
L 206.304 32.799278 
L 206.836364 29.32691 
L 207.368727 27.105936 
L 207.634909 28.639283 
L 208.167273 47.360402 
L 209.764364 106.958573 
L 210.562909 131.949811 
L 212.16 173.322442 
L 213.757091 208.330616 
L 215.088 232.959615 
L 216.418909 253.772423 
L 217.749818 270.993253 
L 218.814545 282.29459 
L 219.879273 291.540507 
L 220.944 298.802862 
L 221.742545 302.986175 
L 222.541091 306.145692 
L 223.339636 308.308087 
L 223.872 309.187335 
L 224.404364 309.646325 
L 224.936727 309.692589 
L 225.202909 308.285835 
L 227.066182 272.557043 
L 229.728 211.201918 
L 233.454545 125.082234 
L 235.051636 92.531263 
L 236.382545 69.272391 
L 237.447273 53.930698 
L 238.245818 44.740356 
L 239.044364 37.751483 
L 239.576727 34.427992 
L 240.109091 32.27424 
L 240.375273 31.667039 
L 240.641455 31.373621 
L 240.907636 33.511835 
L 241.44 52.707113 
L 243.037091 112.88638 
L 243.835636 137.898352 
L 245.432727 178.982252 
L 246.763636 208.2808 
L 248.094545 233.38991 
L 249.425455 254.646247 
L 250.756364 272.289336 
L 251.821091 283.948076 
L 252.885818 293.577033 
L 253.950545 301.245554 
L 255.015273 307.066761 
L 255.813818 310.286935 
L 256.612364 312.531747 
L 257.144727 313.51689 
L 257.677091 314.107604 
L 258.209455 314.312712 
L 258.475636 314.216143 
L 260.072727 287.64755 
L 261.936 248.783351 
L 264.597818 187.375829 
L 268.058182 107.87782 
L 269.655273 75.789843 
L 270.986182 53.257626 
L 272.050909 38.772837 
L 272.849455 30.4062 
L 273.648 24.449127 
L 274.180364 21.927273 
L 274.446545 23.896806 
L 275.777455 56.409065 
L 279.237818 142.10617 
L 281.633455 195.904248 
L 283.496727 232.680803 
L 285.093818 259.718862 
L 286.424727 278.642207 
L 287.489455 291.187725 
L 288.554182 301.193599 
L 289.352727 306.968487 
L 290.151273 311.184605 
L 290.683636 313.0463 
L 291.216 314.153197 
L 291.482182 312.702664 
L 292.813091 296.133578 
L 293.877818 279.974737 
L 295.474909 250.830399 
L 297.338182 212.333113 
L 303.194182 86.944768 
L 304.525091 64.032861 
L 305.589818 48.911675 
L 306.388364 39.861642 
L 307.186909 33.026211 
L 307.453091 34.404343 
L 308.784 65.999462 
L 312.244364 148.81344 
L 314.64 200.622374 
L 316.503273 236.159861 
L 318.100364 262.407048 
L 319.431273 280.876059 
L 320.496 293.167177 
L 321.560727 303.084965 
L 322.359273 308.89087 
L 323.157818 313.188752 
L 323.690182 315.183425 
L 324.222545 316.472727 
L 324.488727 316.450238 
L 325.287273 312.854806 
L 326.085818 308.01278 
L 326.884364 301.975936 
L 327.949091 291.876967 
L 329.013818 279.586783 
L 330.344727 261.338358 
L 331.675636 240.10056 
L 333.272727 211.09091 
L 335.136 173.189901 
L 337.797818 113.757206 
L 340.992 39.531479 
L 341.258182 37.53375 
L 342.056727 46.767509 
L 343.121455 62.381728 
L 344.452364 86.44991 
L 346.315636 124.766959 
L 351.373091 231.042259 
L 352.970182 259.542145 
L 354.301091 279.929762 
L 355.365818 293.613122 
L 356.430545 304.647298 
L 357.229091 311.050787 
L 357.761455 314.357224 
L 358.293818 313.735321 
L 358.826182 312.603083 
L 359.358545 310.972301 
L 360.157091 307.613348 
L 360.955636 303.105661 
L 361.754182 297.468294 
L 362.818909 288.18308 
L 363.883636 276.80697 
L 365.214545 259.654088 
L 366.545455 239.186098 
L 367.876364 215.331313 
L 369.473455 182.134973 
L 371.070545 143.863571 
L 372.667636 100.387873 
L 374.530909 42.953636 
L 375.063273 28.741355 
L 375.329455 28.695428 
L 375.861818 31.351623 
L 376.394182 35.277154 
L 377.192727 43.195737 
L 378.257455 56.942144 
L 379.322182 73.680422 
L 380.919273 102.852213 
L 383.314909 151.836947 
L 387.573818 239.467402 
L 389.437091 273.104733 
L 391.034182 297.841218 
L 391.832727 308.279043 
L 392.365091 307.741309 
L 392.897455 306.895837 
L 393.696 305.064894 
L 394.494545 302.536734 
L 395.293091 299.27718 
L 396.357818 293.810055 
L 397.422545 287.012144 
L 398.487273 278.841501 
L 399.818182 266.663546 
L 401.149091 252.200474 
L 402.48 235.372865 
L 404.077091 211.933023 
L 405.674182 184.773998 
L 407.271273 153.695999 
L 408.868364 118.486534 
L 409.400727 105.953283 
L 409.666909 102.781022 
L 410.199273 102.474876 
L 410.731636 102.619785 
L 411.264 103.20304 
L 411.796364 104.211876 
L 412.328727 105.634005 
L 413.127273 108.515745 
L 413.925818 112.259674 
L 414.990545 118.525509 
L 416.055273 126.166246 
L 417.386182 137.517012 
L 418.717091 150.72711 
L 420.314182 168.804334 
L 422.177455 192.637902 
L 424.306909 223.037851 
L 426.436364 256.30536 
L 426.436364 256.30536 
" clip-path="url(#pd3164b8b9a)" style="fill: none; stroke: #ff0000; stroke-width: 3; stroke-linecap: square"/>
   </g>
   <g id="line2d_3">
    <path d="M 27.163636 45.481582 
L 28.494545 58.876073 
L 29.825455 70.2024 
L 31.156364 79.763759 
L 32.753455 89.426243 
L 34.616727 99.140219 
L 37.544727 114.242357 
L 38.875636 122.463013 
L 39.940364 130.263162 
L 40.206545 132.423269 
L 42.602182 164.64857 
L 43.400727 171.56347 
L 44.199273 176.648268 
L 44.997818 180.107074 
L 45.530182 181.673463 
L 46.062545 182.740419 
L 46.594909 183.383813 
L 47.127273 183.66143 
L 47.659636 183.642285 
L 48.192 183.379749 
L 48.990545 182.645861 
L 50.055273 181.286022 
L 51.918545 178.823552 
L 52.717091 178.069975 
L 53.249455 177.76454 
L 53.515636 177.681718 
L 53.781818 177.079968 
L 55.112727 170.058309 
L 59.904 143.114058 
L 61.234909 137.429669 
L 61.767273 135.858944 
L 62.299636 134.929989 
L 62.565818 134.748913 
L 62.832 134.748562 
L 63.098182 134.966295 
L 63.364364 135.402779 
L 63.896727 136.983266 
L 64.429091 139.591584 
L 64.961455 143.333441 
L 65.76 151.338963 
L 66.558545 162.52405 
L 66.824727 167.684612 
L 68.688 235.019721 
L 69.486545 255.773101 
L 70.285091 271.834721 
L 71.083636 283.747908 
L 71.882182 292.077837 
L 72.414545 295.907287 
L 72.946909 298.595001 
L 73.479273 300.339306 
L 74.011636 301.348193 
L 74.544 301.837237 
L 76.141091 302.589816 
L 76.673455 303.475515 
L 77.205818 305.169967 
L 77.472 306.06524 
L 77.738182 306.337984 
L 78.004364 306.413938 
L 78.270545 306.315045 
L 78.802909 305.663979 
L 79.335273 304.552768 
L 80.4 301.534508 
L 81.730909 297.632265 
L 82.529455 295.923182 
L 83.061818 295.262633 
L 83.328 295.111177 
L 83.594182 295.092664 
L 83.860364 295.225605 
L 84.126545 295.503497 
L 84.658909 296.584364 
L 85.191273 298.405705 
L 85.723636 301.041399 
L 86.256 304.562702 
L 87.054545 311.638815 
L 87.586909 316.472727 
L 89.982545 313.096828 
L 90.781091 311.392351 
L 91.579636 308.96835 
L 92.378182 305.572853 
L 93.176727 300.954157 
L 93.709091 297.089845 
L 94.507636 288.102529 
L 95.306182 276.114024 
L 96.104727 260.586962 
L 96.903273 240.967911 
L 97.701818 216.647709 
L 98.234182 199.577468 
L 99.298909 180.210121 
L 100.097455 168.989096 
L 100.896 160.576357 
L 101.428364 156.537096 
L 101.960727 153.731708 
L 102.493091 152.181226 
L 102.759273 151.868461 
L 103.025455 151.860789 
L 103.291636 152.157103 
L 103.557818 152.756685 
L 104.090182 154.882487 
L 104.622545 158.212492 
L 105.421091 165.430035 
L 106.219636 175.313087 
L 107.284364 189.254966 
L 108.349091 163.262537 
L 109.413818 143.636077 
L 110.212364 132.298092 
L 110.744727 127.124064 
L 111.809455 118.986326 
L 113.140364 110.57701 
L 116.600727 90.075053 
L 117.665455 82.177642 
L 118.464 75.287751 
L 118.996364 74.192608 
L 119.528727 73.761918 
L 119.794909 73.731756 
L 120.327273 74.008373 
L 120.859636 74.669384 
L 121.392 75.689737 
L 122.190545 77.747965 
L 123.255273 81.27072 
L 124.852364 87.521632 
L 128.578909 102.40142 
L 129.643636 105.894189 
L 130.442182 107.937617 
L 130.974545 108.930968 
L 131.506909 109.582201 
L 132.039273 109.836626 
L 132.305455 109.793368 
L 132.571636 109.634413 
L 132.837818 107.828241 
L 133.902545 92.568061 
L 134.701091 84.608326 
L 135.233455 80.880023 
L 135.765818 78.307817 
L 136.298182 76.832195 
L 136.564364 76.452154 
L 136.830545 76.310545 
L 137.096727 76.39327 
L 137.362909 76.66692 
L 137.895273 77.782639 
L 138.427636 79.528312 
L 139.226182 83.077875 
L 140.823273 91.841126 
L 141.888 97.354921 
L 142.686545 100.427989 
L 143.218909 101.669534 
L 143.485091 101.979385 
L 143.751273 102.067991 
L 144.017455 102.001874 
L 144.549818 101.487282 
L 145.082182 100.426005 
L 145.614545 98.77482 
L 146.413091 90.318997 
L 147.477818 80.089604 
L 148.542545 71.859748 
L 149.607273 65.410678 
L 150.672 60.559053 
L 151.470545 57.832511 
L 152.269091 55.797896 
L 153.067636 54.379296 
L 153.866182 53.521321 
L 154.398545 53.213998 
L 154.930909 53.094879 
L 155.463273 53.144862 
L 156.261818 53.507153 
L 157.060364 54.144902 
L 158.125091 55.323297 
L 159.722182 57.523678 
L 162.916364 62.095104 
L 163.714909 62.977097 
L 163.981091 63.040949 
L 164.247273 62.11001 
L 165.045818 57.362652 
L 165.844364 54.166742 
L 166.376727 52.841805 
L 166.909091 52.123051 
L 167.175273 51.979599 
L 167.441455 51.973542 
L 167.707636 52.099807 
L 168.24 52.727479 
L 168.772364 53.81746 
L 169.570909 56.214682 
L 170.369455 59.375233 
L 171.434182 64.466712 
L 175.959273 87.41245 
L 176.757818 90.054196 
L 177.290182 91.059731 
L 178.088727 92.05066 
L 178.621091 92.469167 
L 179.153455 92.646907 
L 179.685818 92.579262 
L 180.218182 92.262249 
L 180.750545 91.639826 
L 181.282909 90.710414 
L 181.815273 89.47375 
L 182.613818 86.931619 
L 182.88 85.871974 
L 183.412364 81.372687 
L 184.743273 69.806664 
L 186.074182 60.318286 
L 187.138909 54.18932 
L 188.203636 49.2549 
L 189.268364 45.430633 
L 190.066909 43.239189 
L 190.865455 41.584615 
L 191.664 40.426796 
L 192.462545 39.727512 
L 193.261091 39.448666 
L 194.059636 39.523455 
L 194.858182 39.890838 
L 195.656727 40.52864 
L 196.455273 41.410808 
L 197.52 42.910728 
L 198.850909 45.18869 
L 203.642182 53.856698 
L 204.440727 54.829913 
L 205.239273 55.520718 
L 205.771636 55.779743 
L 206.037818 55.720315 
L 206.304 55.400738 
L 206.836364 54.424556 
L 207.368727 53.81588 
L 207.901091 53.582522 
L 208.433455 53.68714 
L 208.965818 54.105243 
L 209.498182 54.825454 
L 211.361455 58.17398 
L 212.426182 60.509018 
L 213.757091 64.021116 
L 215.354182 68.95076 
L 217.483636 76.374766 
L 221.742545 91.482048 
L 223.339636 96.188078 
L 224.404364 98.75377 
L 225.469091 100.704887 
L 226.267636 101.7238 
L 226.8 102.166974 
L 227.332364 102.400981 
L 227.864727 102.436006 
L 228.397091 102.250787 
L 228.929455 101.840392 
L 229.461818 101.18635 
L 230.260364 99.665116 
L 231.058909 97.450655 
L 231.857455 94.465983 
L 232.656 90.525722 
L 233.986909 83.773648 
L 235.051636 79.412528 
L 236.116364 75.941161 
L 237.181091 73.315672 
L 237.979636 71.876725 
L 238.778182 70.864131 
L 239.576727 70.250539 
L 240.375273 70.006788 
L 241.173818 70.10189 
L 241.972364 70.504228 
L 242.770909 71.182304 
L 245.166545 73.86794 
L 246.497455 75.798569 
L 248.094545 78.569897 
L 249.957818 82.281944 
L 255.813818 94.391386 
L 257.144727 96.454126 
L 257.410909 96.802021 
L 257.677091 96.965119 
L 257.943273 96.320558 
L 260.871273 82.396376 
L 262.202182 77.898159 
L 263.533091 74.251141 
L 264.597818 71.965314 
L 265.662545 70.24134 
L 266.461091 69.311103 
L 267.259636 68.668438 
L 268.058182 68.295806 
L 268.856727 68.185711 
L 269.655273 68.301687 
L 270.453818 68.616963 
L 271.518545 69.3038 
L 272.849455 70.46901 
L 277.108364 74.553144 
L 278.705455 75.344195 
L 279.770182 75.687473 
L 280.568727 75.805784 
L 281.101091 72.169335 
L 282.432 63.196919 
L 283.496727 57.370429 
L 284.561455 52.786187 
L 285.36 50.100989 
L 286.158545 48.049854 
L 286.957091 46.606606 
L 287.755636 45.741134 
L 288.288 45.479405 
L 288.820364 45.440254 
L 289.352727 45.616677 
L 289.885091 46.010535 
L 290.683636 46.948883 
L 291.482182 48.274873 
L 292.546909 50.56904 
L 296.539636 60.594815 
L 300.798545 72.298479 
L 302.129455 75.171792 
L 302.928 76.507158 
L 303.726545 77.471963 
L 304.525091 78.000846 
L 304.791273 78.058185 
L 305.057455 77.92588 
L 305.323636 77.567697 
L 309.316364 68.483746 
L 310.381091 66.438334 
L 312.244364 63.584913 
L 313.841455 61.496962 
L 315.438545 59.816861 
L 316.769455 58.770683 
L 317.834182 58.196329 
L 318.898909 57.871064 
L 319.963636 57.816569 
L 320.762182 57.961075 
L 321.826909 58.427405 
L 322.625455 58.9812 
L 323.424 59.719775 
L 324.488727 61.012251 
L 325.553455 62.655676 
L 328.215273 67.622611 
L 329.546182 70.662638 
L 330.877091 74.359972 
L 331.941818 77.857253 
L 332.208 77.303809 
L 334.603636 58.16766 
L 336.466909 44.873046 
L 337.797818 36.655831 
L 339.128727 29.851825 
L 339.927273 26.620838 
L 340.725818 24.127302 
L 341.258182 22.973241 
L 341.790545 22.224904 
L 342.322909 21.927273 
L 342.589091 21.977536 
L 342.855273 22.16358 
L 343.387636 22.94415 
L 343.92 24.241137 
L 344.452364 26.029385 
L 345.250909 29.65595 
L 346.049455 34.282081 
L 347.114182 42.012286 
L 348.178909 51.386056 
L 349.509818 65.305006 
L 350.840727 81.642351 
L 352.437818 104.352555 
L 354.034909 130.625488 
L 354.567273 138.452568 
L 354.833455 140.426438 
L 355.365818 141.999691 
L 355.898182 143.140445 
L 356.430545 143.832777 
L 356.962909 144.158902 
L 357.495273 144.079144 
L 358.027636 143.651965 
L 358.56 142.88918 
L 359.358545 141.124563 
L 360.423273 138.001899 
L 361.488 134.200631 
L 362.552727 129.635209 
L 363.883636 122.924603 
L 365.480727 113.633645 
L 369.739636 87.713101 
L 370.538182 84.369438 
L 371.070545 82.844412 
L 371.602909 82.056258 
L 371.869091 82.009207 
L 372.135273 82.228029 
L 372.401455 82.728365 
L 372.933818 84.68129 
L 373.466182 88.202237 
L 374.264727 96.026139 
L 374.797091 96.405179 
L 375.329455 96.489361 
L 376.660364 96.38369 
L 376.926545 96.519611 
L 377.192727 96.783868 
L 377.725091 97.848024 
L 378.257455 99.80267 
L 378.789818 102.906637 
L 379.322182 107.34985 
L 379.854545 113.318282 
L 380.653091 125.553252 
L 381.451636 142.141212 
L 382.250182 163.470614 
L 383.314909 199.876408 
L 384.379636 245.732825 
L 384.912 269.201556 
L 385.444364 275.521477 
L 385.976727 279.812249 
L 386.509091 282.78481 
L 387.041455 284.465716 
L 387.307636 284.87998 
L 387.573818 284.974449 
L 387.84 284.800235 
L 388.106182 284.368178 
L 388.638545 282.719244 
L 389.170909 280.102064 
L 389.969455 274.550975 
L 390.768 267.232553 
L 391.832727 255.226706 
L 393.429818 233.889544 
L 394.760727 214.286565 
L 396.091636 191.363773 
L 397.422545 164.826117 
L 398.753455 134.396699 
L 400.350545 92.109088 
L 400.882909 77.021574 
L 402.213818 69.508892 
L 403.278545 64.482337 
L 404.077091 61.447278 
L 404.875636 59.180604 
L 405.408 58.174665 
L 405.940364 57.632018 
L 406.206545 57.548696 
L 406.472727 57.599855 
L 406.738909 57.792816 
L 407.271273 58.633849 
L 407.803636 60.156979 
L 408.336 62.436662 
L 408.868364 65.528252 
L 409.666909 71.964857 
L 410.199273 79.171393 
L 410.997818 94.082238 
L 411.796364 113.252077 
L 412.861091 145.667478 
L 414.724364 207.716655 
L 415.522909 222.803896 
L 416.055273 229.803417 
L 416.587636 234.454268 
L 417.12 236.849998 
L 417.386182 237.256233 
L 417.652364 237.08843 
L 417.918545 236.456325 
L 418.450909 233.633056 
L 418.983273 228.907152 
L 419.515636 222.388998 
L 420.314182 209.466024 
L 421.112727 193.091644 
L 422.177455 166.523194 
L 423.508364 126.956806 
L 425.105455 72.488052 
L 426.436364 23.301297 
L 426.436364 23.301297 
" clip-path="url(#pd3164b8b9a)" style="fill: none; stroke: #0000ff; stroke-width: 3; stroke-linecap: square"/>
   </g>
   <g id="patch_3">
    <path d="M 7.2 331.2 
L 7.2 7.2 
" style="fill: none; stroke: #000000; stroke-width: 0.8; stroke-linejoin: miter; stroke-linecap: square"/>
   </g>
   <g id="patch_4">
    <path d="M 446.4 331.2 
L 446.4 7.2 
" style="fill: none; stroke: #000000; stroke-width: 0.8; stroke-linejoin: miter; stroke-linecap: square"/>
   </g>
   <g id="patch_5">
    <path d="M 7.2 331.2 
L 446.4 331.2 
" style="fill: none; stroke: #000000; stroke-width: 0.8; stroke-linejoin: miter; stroke-linecap: square"/>
   </g>
   <g id="patch_6">
    <path d="M 7.2 7.2 
L 446.4 7.2 
" style="fill: none; stroke: #000000; stroke-width: 0.8; stroke-linejoin: miter; stroke-linecap: square"/>
   </g>
  </g>
 </g>
 <defs>
  <clipPath id="pd3164b8b9a">
   <rect x="7.2" y="7.2" width="439.2" height="324"/>
  </clipPath>
 </defs>
</svg>
