<?xml version="1.0" encoding="utf-8" standalone="no"?>
<!DOCTYPE svg PUBLIC "-//W3C//DTD SVG 1.1//EN"
  "http://www.w3.org/Graphics/SVG/1.1/DTD/svg11.dtd">
<svg xmlns:xlink="http://www.w3.org/1999/xlink" width="453.6pt" height="338.4pt" viewBox="0 0 453.6 338.4" xmlns="http://www.w3.org/2000/svg" version="1.1">
 <metadata>
  <rdf:RDF xmlns:dc="http://purl.org/dc/elements/1.1/" xmlns:cc="http://creativecommons.org/ns#" xmlns:rdf="http://www.w3.org/1999/02/22-rdf-syntax-ns#">
   <cc:Work>
    <dc:type rdf:resource="http://purl.org/dc/dcmitype/StillImage"/>
    <dc:date>2025-05-15T18:20:49.708000</dc:date>
    <dc:format>image/svg+xml</dc:format>
    <dc:creator>
     <cc:Agent>
      <dc:title>Matplotlib v3.10.1, https://matplotlib.org/</dc:title>
     </cc:Agent>
    </dc:creator>
   </cc:Work>
  </rdf:RDF>
 </metadata>
 <defs>
  <style type="text/css">*{stroke-linejoin: round; stroke-linecap: butt}</style>
 </defs>
 <g id="figure_1">
  <g id="patch_1">
   <path d="M 0 338.4 
L 453.6 338.4 
L 453.6 0 
L 0 0 
z
" style="fill: #ffffff"/>
  </g>
  <g id="axes_1">
   <g id="patch_2">
    <path d="M 7.2 331.2 
L 446.4 331.2 
L 446.4 7.2 
L 7.2 7.2 
z
" style="fill: #ffffff"/>
   </g>
   <g id="matplotlib.axis_1"/>
   <g id="matplotlib.axis_2"/>
   <g id="line2d_1">
    <path d="M 27.163636 265.113459 
L 28.275817 252.879337 
L 29.109952 246.199235 
L 29.944087 241.276376 
L 30.778222 237.542972 
L 31.612358 234.849128 
L 32.168448 233.872489 
L 32.446493 233.73299 
L 32.724538 233.878743 
L 33.002583 234.347101 
L 33.280628 235.170079 
L 33.836718 237.964524 
L 34.392808 242.316556 
L 35.226944 251.362248 
L 37.451304 278.078818 
L 38.007394 282.044675 
L 38.285439 283.276136 
L 38.563484 283.951679 
L 38.84153 284.038903 
L 39.119575 283.512516 
L 39.39762 282.354433 
L 39.95371 278.106332 
L 40.5098 271.290532 
L 41.343935 256.533637 
L 42.17807 237.252291 
L 45.236566 160.357189 
L 46.070701 147.28252 
L 46.626792 141.578383 
L 47.182882 138.100889 
L 47.738972 136.4651 
L 48.017017 136.180667 
L 48.295062 136.157057 
L 48.851152 136.595826 
L 49.685287 137.400438 
L 49.963332 137.462402 
L 50.241378 137.348135 
L 50.519423 137.034733 
L 51.075513 135.807016 
L 51.909648 132.940601 
L 52.465738 131.111664 
L 52.743783 130.495347 
L 53.021828 130.215094 
L 53.299873 130.373869 
L 53.577918 131.068762 
L 53.855964 132.385743 
L 54.412054 137.147714 
L 54.968144 144.962664 
L 55.802279 162.068353 
L 57.192504 198.856882 
L 58.304685 226.318508 
L 59.13882 241.206887 
L 59.69491 247.734353 
L 60.251 251.645197 
L 60.529045 252.735444 
L 60.80709 253.337659 
L 61.085135 253.52946 
L 61.363181 253.393674 
L 61.919271 252.481112 
L 62.753406 250.759268 
L 63.031451 250.395952 
L 63.309496 250.245658 
L 63.587541 250.358983 
L 63.865586 250.774587 
L 64.143631 251.51836 
L 64.699721 254.032505 
L 65.255812 257.871272 
L 66.089947 265.557476 
L 67.480172 279.136652 
L 68.036262 282.925111 
L 68.314307 284.154417 
L 68.592352 284.860494 
L 68.870398 284.999591 
L 69.148443 284.543276 
L 69.426488 283.480428 
L 69.982578 279.584543 
L 70.538668 273.598185 
L 71.650848 257.769607 
L 72.763029 242.206554 
L 73.319119 236.474681 
L 73.875209 232.777265 
L 74.153254 231.745369 
L 74.431299 231.249688 
L 74.709344 231.263017 
L 74.987389 231.74357 
L 75.543479 233.882441 
L 76.377615 239.02689 
L 78.045885 250.201945 
L 78.88002 254.350524 
L 79.714155 257.323511 
L 80.270246 258.677882 
L 80.826336 259.378677 
L 81.104381 259.374459 
L 81.382426 259.047346 
L 81.660471 258.316564 
L 81.938516 257.090492 
L 82.494606 252.74708 
L 83.050696 245.174649 
L 83.606787 233.591569 
L 84.162877 217.496357 
L 84.997012 185.065939 
L 86.387237 117.377884 
L 87.499418 67.240642 
L 88.055508 48.690798 
L 88.611598 35.998508 
L 89.167688 29.363428 
L 89.445733 28.183741 
L 89.723778 28.287305 
L 90.001823 29.538801 
L 90.557913 34.896356 
L 91.114004 43.119071 
L 91.948139 58.978639 
L 93.060319 85.094828 
L 94.172499 117.611669 
L 95.562725 166.478552 
L 97.230995 223.694597 
L 98.06513 246.003368 
L 98.899266 263.033734 
L 99.733401 275.614384 
L 100.567536 285.046198 
L 101.401671 292.316607 
L 102.235807 297.892137 
L 103.069942 301.91856 
L 103.626032 303.761608 
L 104.182122 304.99507 
L 104.738212 305.72668 
L 105.294302 306.091527 
L 106.128438 306.255358 
L 107.240618 306.386489 
L 108.074753 306.769987 
L 108.908888 307.451856 
L 110.299114 308.738531 
L 110.855204 309.002662 
L 111.133249 308.998822 
L 111.411294 308.865885 
L 111.689339 308.571573 
L 111.967384 308.081191 
L 112.523474 306.361169 
L 113.079564 303.382633 
L 113.635655 298.812284 
L 114.191745 292.365576 
L 115.02588 278.890458 
L 115.860015 261.246845 
L 117.528286 219.161841 
L 121.977007 106.946472 
L 122.811142 91.122671 
L 123.367232 85.470178 
L 123.645277 84.563151 
L 123.923322 85.07278 
L 124.201367 87.05322 
L 124.479413 90.513995 
L 125.035503 101.684197 
L 125.591593 117.767061 
L 126.703773 158.852586 
L 128.093998 210.401064 
L 128.928134 234.934311 
L 129.762269 253.665254 
L 130.596404 267.644213 
L 131.430539 278.202754 
L 132.264675 286.25586 
L 133.09881 292.298035 
L 133.932945 296.595206 
L 134.76708 299.438011 
L 135.601215 301.283078 
L 136.435351 302.564785 
L 137.547531 303.849046 
L 138.937756 305.108722 
L 140.049937 305.83888 
L 140.884072 306.176511 
L 141.718207 306.297779 
L 142.552342 306.156395 
L 143.386478 305.702603 
L 143.942568 305.188753 
L 144.498658 304.457737 
L 145.054748 303.457291 
L 145.888883 301.352717 
L 146.723018 298.436338 
L 147.279109 295.878183 
L 147.835199 292.540394 
L 148.391289 288.030692 
L 148.947379 281.804812 
L 149.503469 273.205303 
L 150.059559 261.586188 
L 150.893695 237.630789 
L 151.72783 206.328972 
L 154.508281 94.519032 
L 155.342416 72.273082 
L 156.176551 55.363115 
L 157.288731 37.178011 
L 158.122867 26.535199 
L 158.678957 22.489771 
L 158.957002 21.927273 
L 159.235047 22.593365 
L 159.513092 24.659012 
L 159.791137 28.26244 
L 160.347227 40.403501 
L 160.903317 59.088848 
L 161.737453 97.223502 
L 163.961813 210.403292 
L 164.795948 240.462003 
L 165.630084 261.179174 
L 166.464219 274.755739 
L 167.298354 283.887403 
L 168.132489 290.469836 
L 168.966624 295.402219 
L 169.522715 297.848081 
L 170.078805 299.55772 
L 170.634895 300.530585 
L 170.91294 300.758644 
L 171.190985 300.830608 
L 171.46903 300.761671 
L 172.02512 300.270933 
L 172.859256 298.956759 
L 173.971436 297.101527 
L 174.527526 296.542132 
L 175.083616 296.412221 
L 175.361661 296.533565 
L 175.917751 297.163715 
L 176.473841 298.277382 
L 177.307977 300.607887 
L 178.698202 304.734757 
L 179.254292 305.90367 
L 179.810382 306.553144 
L 180.088427 306.650104 
L 180.366473 306.58542 
L 180.644518 306.356977 
L 181.200608 305.417833 
L 181.756698 303.84736 
L 182.312788 301.591131 
L 182.868878 298.504097 
L 183.424968 294.335983 
L 183.981058 288.71401 
L 184.537149 281.168093 
L 185.093239 271.22799 
L 185.927374 251.200678 
L 186.761509 225.352073 
L 189.820005 122.94413 
L 190.65414 104.336517 
L 191.488276 90.378599 
L 192.322411 80.287123 
L 192.878501 75.901667 
L 193.156546 74.610913 
L 193.434591 74.056316 
L 193.712636 74.352034 
L 193.990681 75.612778 
L 194.268726 77.94502 
L 194.824816 86.155655 
L 195.380907 99.35373 
L 196.215042 127.849335 
L 197.605267 188.7889 
L 198.717447 235.152777 
L 199.551583 262.022014 
L 200.385718 280.757646 
L 200.941808 289.264588 
L 201.497898 295.305861 
L 202.053988 299.529739 
L 202.610079 302.489959 
L 203.166169 304.605952 
L 204.000304 306.772797 
L 204.556394 307.717641 
L 205.112484 308.317394 
L 205.668574 308.617773 
L 206.224664 308.677224 
L 207.0588 308.458769 
L 209.005115 307.729668 
L 209.83925 307.788179 
L 210.673386 308.169711 
L 211.785566 309.040831 
L 213.175791 310.167735 
L 214.009927 310.58728 
L 214.844062 310.693791 
L 215.400152 310.563555 
L 215.956242 310.261741 
L 216.512332 309.770861 
L 217.068422 309.025694 
L 217.624513 307.898398 
L 218.180603 306.196043 
L 218.736693 303.661667 
L 219.292783 299.990723 
L 219.848873 294.876514 
L 220.404963 288.08381 
L 221.239099 274.633783 
L 222.351279 251.845917 
L 224.575639 204.826903 
L 225.68782 186.855358 
L 226.8 172.729876 
L 227.634135 164.660394 
L 228.190225 161.073609 
L 228.46827 160.033191 
L 228.746316 159.604972 
L 229.024361 159.869332 
L 229.302406 160.897639 
L 229.580451 162.747093 
L 230.136541 169.038087 
L 230.692631 178.751916 
L 231.526766 198.72585 
L 234.307217 272.877114 
L 235.141352 287.115079 
L 235.975487 296.760169 
L 236.809623 303.017531 
L 237.643758 307.117026 
L 238.477893 309.91307 
L 239.312028 311.843266 
L 239.868119 312.705395 
L 240.424209 313.244412 
L 240.980299 313.490379 
L 241.536389 313.485881 
L 242.092479 313.280086 
L 242.926614 312.713696 
L 244.87293 311.232385 
L 245.707065 310.900747 
L 246.5412 310.824295 
L 248.487516 310.913584 
L 249.043606 310.621769 
L 249.599696 309.968889 
L 250.155786 308.824665 
L 250.711876 307.080339 
L 251.267967 304.673107 
L 252.102102 299.832123 
L 252.936237 293.642247 
L 254.048417 283.446755 
L 255.160598 270.591773 
L 255.994733 258.446111 
L 257.106913 238.415458 
L 260.443454 173.571035 
L 261.833679 153.160147 
L 262.94586 138.837504 
L 263.50195 133.172165 
L 264.05804 129.590555 
L 264.336085 128.900103 
L 264.61413 129.108502 
L 264.892175 130.322593 
L 265.17022 132.626448 
L 265.72631 140.688183 
L 266.282401 153.299707 
L 267.116536 179.286272 
L 269.618942 265.538031 
L 270.453077 283.866561 
L 271.009167 292.070953 
L 271.565257 297.506757 
L 272.121347 300.74174 
L 272.677437 302.364929 
L 272.955482 302.740806 
L 273.233527 302.905067 
L 273.511573 302.909647 
L 274.067663 302.618928 
L 275.457888 301.559652 
L 276.013978 301.373614 
L 276.570068 301.433668 
L 277.126159 301.751606 
L 277.960294 302.635631 
L 279.628564 305.036995 
L 281.01879 306.813165 
L 281.852925 307.594167 
L 282.68706 308.108008 
L 283.24315 308.271957 
L 283.79924 308.236121 
L 284.35533 307.923215 
L 284.911421 307.230713 
L 285.467511 306.023634 
L 286.023601 304.145675 
L 286.579691 301.449722 
L 287.135781 297.838401 
L 287.969916 290.721355 
L 289.082097 278.655418 
L 290.472322 260.774595 
L 291.584502 243.85482 
L 292.696683 222.842345 
L 295.477133 164.862469 
L 296.033224 158.420201 
L 296.311269 156.408527 
L 296.589314 155.223221 
L 296.867359 154.844272 
L 297.145404 155.225594 
L 297.423449 156.299543 
L 297.979539 160.178402 
L 298.813674 168.896307 
L 300.2039 186.55742 
L 301.31608 202.83367 
L 302.42826 223.027831 
L 305.764801 289.860628 
L 306.598936 299.233105 
L 307.155027 303.256697 
L 307.711117 305.83535 
L 308.267207 307.323075 
L 308.823297 308.047673 
L 309.379387 308.273882 
L 309.935477 308.195028 
L 310.769613 307.742759 
L 311.603748 306.961958 
L 312.437883 305.843289 
L 313.550063 303.896841 
L 314.940289 301.383695 
L 315.496379 300.69446 
L 316.052469 300.360858 
L 316.330514 300.354087 
L 316.886604 300.687371 
L 317.442694 301.473657 
L 318.27683 303.305628 
L 319.38901 305.800208 
L 319.667055 306.170787 
L 319.9451 306.34927 
L 320.223145 306.288602 
L 320.50119 305.942857 
L 320.779235 305.269086 
L 321.335325 302.79429 
L 321.891416 298.665397 
L 322.447506 292.865421 
L 323.281641 281.527199 
L 325.506002 248.65784 
L 326.062092 243.082722 
L 326.618182 239.21481 
L 327.174272 236.945389 
L 327.730362 235.943226 
L 328.286452 235.711317 
L 328.842542 235.671562 
L 329.120587 235.548836 
L 329.398633 235.275579 
L 329.676678 234.800362 
L 330.232768 233.083272 
L 330.788858 230.170266 
L 331.344948 225.990093 
L 332.179083 217.592587 
L 334.125399 195.377588 
L 334.681489 191.458614 
L 334.959534 190.415563 
L 335.237579 190.10455 
L 335.515624 190.596525 
L 335.793669 191.943117 
L 336.349759 197.294694 
L 336.90585 206.098066 
L 337.739985 224.645016 
L 340.24239 287.722622 
L 341.076526 301.447812 
L 341.632616 307.658714 
L 342.188706 311.825675 
L 342.744796 314.372386 
L 343.300886 315.744654 
L 343.856976 316.3395 
L 344.413067 316.472727 
L 345.247202 316.274507 
L 346.359382 315.743498 
L 350.530058 313.482027 
L 351.364193 313.373636 
L 352.476374 313.45767 
L 354.422689 313.709116 
L 355.256825 313.569784 
L 355.812915 313.302551 
L 356.369005 312.844139 
L 356.925095 312.150911 
L 357.481185 311.188497 
L 358.31532 309.184181 
L 359.149456 306.419829 
L 359.983591 302.766864 
L 360.817726 298.03875 
L 361.651861 292.00781 
L 362.764042 281.796249 
L 365.822537 250.858706 
L 366.378628 247.314723 
L 366.934718 244.912761 
L 367.490808 243.667826 
L 367.768853 243.464197 
L 368.046898 243.526275 
L 368.324943 243.842648 
L 368.881033 245.195786 
L 369.437123 247.453931 
L 369.993213 250.57604 
L 370.827349 256.816057 
L 371.939529 267.692344 
L 374.71998 297.510981 
L 375.554115 303.73215 
L 376.38825 308.096002 
L 377.222385 310.948233 
L 378.056521 312.812651 
L 378.890656 314.120039 
L 379.724791 315.08792 
L 380.558926 315.751819 
L 381.115016 315.988244 
L 381.671107 316.033853 
L 382.227197 315.887681 
L 383.061332 315.361431 
L 385.841783 313.10625 
L 386.675918 312.917768 
L 387.510053 312.99529 
L 388.900279 313.275595 
L 389.456369 313.162675 
L 390.012459 312.665194 
L 390.568549 311.540356 
L 391.124639 309.499541 
L 391.680729 306.236954 
L 392.236819 301.488172 
L 392.79291 295.108463 
L 393.627045 282.651257 
L 396.685541 231.623125 
L 397.241631 226.033086 
L 397.797721 222.018878 
L 398.353811 219.314477 
L 398.909901 217.578776 
L 399.465991 216.50198 
L 400.022082 215.900814 
L 400.300127 215.767324 
L 400.578172 215.758765 
L 400.856217 215.894115 
L 401.134262 216.19657 
L 401.690352 217.399024 
L 402.246442 219.525846 
L 402.802532 222.637238 
L 403.636668 228.956948 
L 405.026893 242.074656 
L 407.807344 270.844249 
L 410.309749 297.946922 
L 411.143885 304.436195 
L 411.699975 307.481024 
L 412.256065 309.462119 
L 412.812155 310.462885 
L 413.0902 310.641807 
L 413.368245 310.63659 
L 413.64629 310.471706 
L 414.20238 309.763558 
L 415.036516 308.131187 
L 416.148696 305.885356 
L 416.704786 305.081998 
L 417.260876 304.624127 
L 417.816966 304.554714 
L 418.373056 304.865467 
L 418.929147 305.500455 
L 419.763282 306.855396 
L 421.431552 309.719785 
L 422.265688 310.72205 
L 422.821778 311.150096 
L 423.377868 311.381707 
L 423.933958 311.427677 
L 424.490048 311.291197 
L 425.046138 310.901721 
L 425.602228 310.077288 
L 426.158319 308.531491 
L 426.436364 307.367241 
L 426.436364 307.367241 
" clip-path="url(#p627ee4ac88)" style="fill: none; stroke-dasharray: 11.1,4.8; stroke-dashoffset: 0; stroke: #000000; stroke-width: 3"/>
   </g>
   <g id="line2d_2">
    <path d="M 27.163636 249.973458 
L 27.997772 252.638938 
L 28.831907 254.591956 
L 29.387997 255.456817 
L 29.944087 255.911318 
L 30.500177 255.964777 
L 31.056267 255.586892 
L 31.612358 254.766089 
L 32.168448 253.52048 
L 33.002583 250.877661 
L 33.836718 247.33857 
L 34.948898 241.470811 
L 35.504989 238.12173 
L 35.783034 235.507136 
L 36.617169 224.17329 
L 37.451304 220.454271 
L 38.84153 214.78306 
L 40.787845 207.150901 
L 43.012206 198.453833 
L 43.568296 197.940706 
L 44.402431 199.125086 
L 45.236566 199.89067 
L 45.792656 200.157901 
L 46.348747 200.219559 
L 46.904837 200.076607 
L 47.460927 199.710734 
L 48.017017 199.118954 
L 48.851152 197.800625 
L 49.685287 196.26808 
L 51.353558 211.820637 
L 52.743783 222.500089 
L 53.577918 227.802387 
L 54.412054 231.893978 
L 55.246189 235.095866 
L 56.358369 238.462692 
L 57.748595 241.858571 
L 62.475361 252.730169 
L 64.421676 257.934446 
L 64.699721 257.826602 
L 65.533857 256.013328 
L 66.367992 253.675796 
L 67.202127 250.596649 
L 68.036262 246.517728 
L 68.870398 241.11048 
L 69.982578 233.357126 
L 70.538668 237.521291 
L 72.206938 245.607018 
L 73.319119 250.001853 
L 74.153254 252.595003 
L 74.987389 254.497303 
L 75.543479 255.35421 
L 76.09957 255.8672 
L 76.65566 256.04268 
L 77.21175 255.919035 
L 77.489795 255.71771 
L 78.045885 254.883778 
L 78.601975 253.534452 
L 79.43611 250.636665 
L 80.270246 246.851371 
L 81.382426 240.749974 
L 83.328741 228.490436 
L 84.440922 221.468207 
L 84.718967 220.784048 
L 84.997012 220.73689 
L 86.387237 222.671902 
L 87.221372 223.572966 
L 87.777463 223.962747 
L 88.611598 226.746528 
L 89.445733 228.90499 
L 90.279868 230.506244 
L 91.114004 231.611496 
L 91.948139 232.280605 
L 92.782274 232.562145 
L 93.616409 232.504591 
L 94.450544 232.147108 
L 95.28468 231.521054 
L 96.118815 230.651447 
L 97.230995 229.138339 
L 98.343175 227.245217 
L 100.567536 222.902242 
L 101.401671 220.636656 
L 101.679716 219.773633 
L 103.904077 233.388047 
L 104.460167 235.521766 
L 105.016257 236.958105 
L 105.572347 237.600358 
L 106.128438 237.915613 
L 106.962573 238.090373 
L 113.35761 238.432598 
L 114.747835 238.804382 
L 116.13806 239.452009 
L 117.250241 240.2016 
L 118.640466 241.497192 
L 120.030691 243.284789 
L 121.142872 245.170745 
L 121.977007 246.900887 
L 122.533097 248.249593 
L 123.367232 254.838258 
L 123.645277 255.12508 
L 125.313548 252.636956 
L 125.869638 252.06779 
L 126.425728 251.763077 
L 126.981818 251.816244 
L 127.259863 251.992406 
L 127.537908 251.9855 
L 128.372044 246.195897 
L 129.206179 241.821243 
L 129.762269 239.770181 
L 130.318359 238.479098 
L 130.596404 238.136375 
L 130.874449 237.983303 
L 131.152494 238.050809 
L 131.430539 238.332648 
L 131.98663 239.56492 
L 132.54272 241.714395 
L 133.09881 244.823873 
L 133.6549 248.925339 
L 134.489035 257.028796 
L 135.32317 267.554138 
L 135.601215 266.697588 
L 136.713396 262.027568 
L 137.825576 258.37101 
L 140.327982 251.25687 
L 141.440162 249.167675 
L 141.718207 250.02697 
L 143.386478 260.881833 
L 144.498658 266.850809 
L 145.610838 271.552029 
L 146.444973 274.143481 
L 147.001064 275.391692 
L 147.557154 276.244128 
L 148.113244 276.689048 
L 148.669334 276.712164 
L 148.947379 276.443134 
L 149.503469 274.472948 
L 150.337604 270.259316 
L 151.449785 263.188388 
L 154.786326 240.655512 
L 155.620461 236.622272 
L 156.176551 234.614065 
L 156.732641 233.221187 
L 157.288731 232.49741 
L 157.566776 232.364785 
L 157.844821 232.382699 
L 158.122867 232.59194 
L 158.678957 233.503278 
L 159.235047 235.118771 
L 159.791137 237.454244 
L 160.625272 242.246056 
L 161.181362 246.26887 
L 161.459407 246.836535 
L 161.737453 247.108215 
L 162.015498 247.124582 
L 162.571588 246.725614 
L 163.127678 245.880106 
L 163.961813 243.94671 
L 165.073993 240.501919 
L 167.020309 233.538983 
L 167.576399 233.639921 
L 168.132489 233.940217 
L 168.688579 234.451584 
L 169.522715 235.610892 
L 170.35685 237.208433 
L 171.46903 239.869664 
L 173.693391 245.506325 
L 174.527526 246.940673 
L 174.805571 247.143086 
L 175.361661 247.166795 
L 175.917751 246.909821 
L 176.473841 246.349942 
L 177.029932 245.466218 
L 177.586022 244.238293 
L 178.420157 241.700829 
L 179.254292 238.28167 
L 180.088427 233.861427 
L 180.644518 230.424644 
L 180.922563 229.725112 
L 181.478653 231.424893 
L 182.034743 233.757319 
L 182.868878 238.57114 
L 183.703013 245.250401 
L 184.537149 252.211553 
L 186.205419 255.206137 
L 187.317599 256.86271 
L 188.42978 258.120858 
L 189.263915 258.720546 
L 189.820005 258.916543 
L 190.376095 258.917271 
L 190.932185 258.696738 
L 191.488276 258.21917 
L 191.766321 257.878974 
L 192.322411 259.875904 
L 194.824816 267.660271 
L 195.658952 270.847296 
L 196.771132 276.010041 
L 197.883312 282.28961 
L 198.161357 284.06701 
L 198.439402 284.307332 
L 198.995493 284.37005 
L 199.551583 284.044143 
L 200.107673 283.350444 
L 200.663763 282.313261 
L 201.497898 280.184694 
L 202.610079 276.44811 
L 204.000304 270.817688 
L 206.50271 260.475118 
L 207.336845 257.782415 
L 208.17098 255.883177 
L 208.449025 255.47862 
L 208.72707 255.451091 
L 209.561205 259.241643 
L 210.673386 262.371895 
L 211.507521 264.139515 
L 212.063611 264.669553 
L 212.619701 264.893194 
L 213.175791 264.877267 
L 214.009927 264.554108 
L 215.956242 263.545227 
L 216.512332 263.463229 
L 217.068422 263.560649 
L 217.624513 263.89092 
L 218.180603 264.466517 
L 218.736693 265.317644 
L 219.570828 267.101566 
L 220.404963 269.484316 
L 221.517144 273.395658 
L 222.351279 276.668432 
L 222.629324 275.564313 
L 225.68782 256.329333 
L 226.8 247.26451 
L 229.858496 242.191954 
L 231.248721 242.840332 
L 232.638947 243.174159 
L 234.307217 243.310596 
L 238.199848 243.538754 
L 241.258344 244.26926 
L 242.092479 244.078974 
L 242.648569 243.674249 
L 243.204659 242.957071 
L 243.76075 241.804676 
L 244.31684 240.526088 
L 244.87293 240.18916 
L 245.42902 239.555175 
L 245.98511 238.596404 
L 246.263155 238.626727 
L 247.375336 242.177646 
L 248.765561 247.446834 
L 255.160598 272.953421 
L 257.663003 282.061578 
L 259.887364 289.293916 
L 260.999544 292.608926 
L 261.277589 292.380152 
L 261.555634 291.21395 
L 262.94586 278.186275 
L 263.779995 266.064705 
L 264.61413 256.569526 
L 265.448265 249.600527 
L 266.004356 246.310156 
L 266.560446 244.044815 
L 267.116536 242.785702 
L 267.394581 242.511856 
L 267.672626 242.482298 
L 267.950671 242.688921 
L 268.228716 243.11414 
L 268.506761 243.927111 
L 269.062851 246.604006 
L 269.896987 252.424132 
L 270.731122 260.391994 
L 271.565257 270.536772 
L 272.677437 287.552474 
L 273.233527 297.455999 
L 273.511573 299.040733 
L 273.789618 299.059477 
L 274.067663 298.947573 
L 274.623753 298.350054 
L 275.179843 297.295823 
L 275.457888 295.995496 
L 276.848113 286.433641 
L 278.238339 278.265142 
L 280.184654 268.60269 
L 281.01879 265.44228 
L 281.852925 262.994703 
L 282.68706 261.188923 
L 283.521195 259.916042 
L 284.35533 259.028506 
L 286.579691 257.002561 
L 287.135781 256.188571 
L 287.691871 255.095568 
L 287.969916 254.416093 
L 289.082097 245.135461 
L 289.360142 242.748366 
L 289.916232 240.450956 
L 290.472322 239.316338 
L 290.750367 239.044719 
L 291.028412 238.942602 
L 291.306457 238.995272 
L 291.862547 239.493655 
L 292.418638 240.411224 
L 293.252773 242.304789 
L 295.199088 246.912088 
L 295.755179 247.701878 
L 296.311269 248.168651 
L 297.145404 248.056857 
L 297.979539 247.635313 
L 298.535629 247.139296 
L 299.091719 246.408262 
L 299.64781 245.40799 
L 300.481945 243.294764 
L 301.31608 240.296391 
L 302.150215 236.224138 
L 302.98435 231.626272 
L 304.096531 236.499952 
L 305.208711 240.389077 
L 306.320891 243.400748 
L 307.433072 245.67836 
L 308.545252 247.384327 
L 309.657432 248.700351 
L 311.325703 250.21068 
L 313.272018 251.599156 
L 313.550063 251.771145 
L 313.828108 251.773243 
L 314.662244 250.984555 
L 315.218334 250.198554 
L 316.052469 248.465104 
L 316.886604 245.952436 
L 317.720739 242.438202 
L 318.554875 237.653158 
L 319.38901 231.46043 
L 319.667055 232.266412 
L 321.05728 248.243094 
L 322.447506 261.624933 
L 323.559686 270.576489 
L 323.837731 271.981681 
L 324.393821 273.321602 
L 325.227956 274.585285 
L 326.340137 275.720738 
L 328.008407 276.696367 
L 328.564497 277.557921 
L 329.120587 278.937405 
L 329.676678 280.997612 
L 330.232768 283.952384 
L 330.788858 287.993126 
L 331.622993 294.612402 
L 331.901038 294.274337 
L 332.735173 287.036683 
L 333.847354 279.580681 
L 334.959534 273.844609 
L 338.296075 258.512194 
L 339.13021 251.751478 
L 339.6863 248.430233 
L 340.24239 246.077711 
L 340.798481 244.604817 
L 341.354571 243.900945 
L 341.632616 243.80313 
L 341.910661 243.867965 
L 342.466751 244.392728 
L 343.022841 245.366068 
L 343.856976 247.408732 
L 345.803292 252.810009 
L 346.359382 253.588132 
L 348.583743 256.350287 
L 349.139833 257.034951 
L 349.695923 257.389977 
L 350.252013 257.368702 
L 350.530058 257.182864 
L 351.086148 256.302095 
L 352.198329 253.92124 
L 353.588554 250.313058 
L 356.09096 243.015414 
L 358.593365 235.885871 
L 359.705546 233.267174 
L 360.261636 232.603286 
L 360.539681 232.497747 
L 360.817726 232.564786 
L 361.095771 232.82378 
L 361.373816 233.272456 
L 361.929906 234.853247 
L 362.485996 237.455324 
L 363.042087 241.248969 
L 363.598177 245.568611 
L 364.154267 245.032922 
L 364.710357 244.870411 
L 364.988402 244.949768 
L 365.544492 245.467535 
L 366.378628 246.651945 
L 367.212763 248.140869 
L 368.046898 250.177417 
L 368.881033 252.808998 
L 369.715168 256.086844 
L 370.827349 261.536733 
L 371.939529 268.293337 
L 373.051709 276.404649 
L 374.16389 285.381729 
L 374.441935 285.162976 
L 375.83216 276.435428 
L 376.94434 270.767184 
L 378.056521 266.227775 
L 379.168701 262.751027 
L 380.002836 260.794706 
L 380.836971 259.351975 
L 381.671107 258.366157 
L 382.505242 257.808137 
L 384.173512 257.253402 
L 384.729602 257.388591 
L 385.285693 257.738985 
L 386.119828 258.632003 
L 386.953963 259.915162 
L 388.066143 262.16281 
L 388.622233 263.630594 
L 389.734414 267.427003 
L 391.958774 275.477752 
L 392.236819 276.23888 
L 392.514865 275.659942 
L 395.01727 257.652944 
L 396.963586 245.073596 
L 398.631856 235.674991 
L 399.744036 230.341352 
L 400.578172 227.539879 
L 401.412307 225.298086 
L 402.246442 223.734344 
L 403.080577 222.781192 
L 403.636668 222.442144 
L 404.192758 222.316318 
L 404.748848 222.359158 
L 405.582983 222.678624 
L 406.417118 223.171464 
L 406.695163 223.526106 
L 408.641479 229.802096 
L 409.197569 230.566815 
L 409.475614 230.747616 
L 409.753659 230.780573 
L 410.031704 230.675056 
L 410.309749 230.943161 
L 411.699975 243.505812 
L 412.812155 251.757358 
L 413.924335 258.177524 
L 414.75847 261.674721 
L 415.314561 263.35759 
L 415.870651 264.488959 
L 416.426741 265.068529 
L 416.704786 265.136464 
L 416.982831 265.068728 
L 417.260876 264.862725 
L 417.816966 264.011935 
L 418.373056 262.718212 
L 418.929147 260.88377 
L 419.485237 258.218834 
L 420.319372 251.945768 
L 421.153507 244.302018 
L 422.265688 232.729771 
L 422.543733 232.96746 
L 423.377868 234.849855 
L 423.933958 235.759509 
L 424.490048 236.339936 
L 425.046138 236.595975 
L 425.602228 236.501284 
L 426.158319 236.031877 
L 426.436364 235.661189 
L 426.436364 235.661189 
" clip-path="url(#p627ee4ac88)" style="fill: none; stroke: #ff00ff; stroke-width: 3; stroke-linecap: square"/>
   </g>
   <g id="patch_3">
    <path d="M 7.2 331.2 
L 7.2 7.2 
" style="fill: none; stroke: #000000; stroke-width: 0.8; stroke-linejoin: miter; stroke-linecap: square"/>
   </g>
   <g id="patch_4">
    <path d="M 446.4 331.2 
L 446.4 7.2 
" style="fill: none; stroke: #000000; stroke-width: 0.8; stroke-linejoin: miter; stroke-linecap: square"/>
   </g>
   <g id="patch_5">
    <path d="M 7.2 331.2 
L 446.4 331.2 
" style="fill: none; stroke: #000000; stroke-width: 0.8; stroke-linejoin: miter; stroke-linecap: square"/>
   </g>
   <g id="patch_6">
    <path d="M 7.2 7.2 
L 446.4 7.2 
" style="fill: none; stroke: #000000; stroke-width: 0.8; stroke-linejoin: miter; stroke-linecap: square"/>
   </g>
  </g>
 </g>
 <defs>
  <clipPath id="p627ee4ac88">
   <rect x="7.2" y="7.2" width="439.2" height="324"/>
  </clipPath>
 </defs>
</svg>
