<?xml version="1.0" encoding="utf-8" standalone="no"?>
<!DOCTYPE svg PUBLIC "-//W3C//DTD SVG 1.1//EN"
  "http://www.w3.org/Graphics/SVG/1.1/DTD/svg11.dtd">
<svg xmlns:xlink="http://www.w3.org/1999/xlink" width="453.6pt" height="338.4pt" viewBox="0 0 453.6 338.4" xmlns="http://www.w3.org/2000/svg" version="1.1">
 <metadata>
  <rdf:RDF xmlns:dc="http://purl.org/dc/elements/1.1/" xmlns:cc="http://creativecommons.org/ns#" xmlns:rdf="http://www.w3.org/1999/02/22-rdf-syntax-ns#">
   <cc:Work>
    <dc:type rdf:resource="http://purl.org/dc/dcmitype/StillImage"/>
    <dc:date>2025-05-15T18:29:43.848805</dc:date>
    <dc:format>image/svg+xml</dc:format>
    <dc:creator>
     <cc:Agent>
      <dc:title>Matplotlib v3.10.1, https://matplotlib.org/</dc:title>
     </cc:Agent>
    </dc:creator>
   </cc:Work>
  </rdf:RDF>
 </metadata>
 <defs>
  <style type="text/css">*{stroke-linejoin: round; stroke-linecap: butt}</style>
 </defs>
 <g id="figure_1">
  <g id="patch_1">
   <path d="M 0 338.4 
L 453.6 338.4 
L 453.6 0 
L 0 0 
z
" style="fill: #ffffff"/>
  </g>
  <g id="axes_1">
   <g id="patch_2">
    <path d="M 7.2 331.2 
L 446.4 331.2 
L 446.4 7.2 
L 7.2 7.2 
z
" style="fill: #ffffff"/>
   </g>
   <g id="matplotlib.axis_1"/>
   <g id="matplotlib.axis_2"/>
   <g id="line2d_1">
    <path d="M 27.163636 174.454087 
L 32.446493 135.980183 
L 34.114763 123.917895 
L 34.948898 119.045003 
L 35.504989 116.590158 
L 36.061079 114.90986 
L 36.617169 114.061849 
L 36.895214 113.947689 
L 37.173259 114.030006 
L 37.451304 114.295587 
L 38.007394 115.302683 
L 38.84153 117.652484 
L 40.5098 122.779858 
L 41.06589 123.965462 
L 41.62198 124.719132 
L 42.17807 125.016953 
L 42.734161 124.879868 
L 43.290251 124.355906 
L 43.846341 123.504658 
L 44.680476 121.730679 
L 45.514611 119.458306 
L 46.626792 115.677866 
L 47.738972 110.936312 
L 48.851152 105.177224 
L 50.519423 95.04278 
L 56.080324 59.567898 
L 56.914459 55.582194 
L 57.47055 53.619996 
L 58.02664 52.385967 
L 58.304685 52.083786 
L 58.58273 52.009595 
L 58.860775 52.174955 
L 59.13882 52.587928 
L 59.69491 54.176198 
L 60.251 56.781869 
L 60.80709 60.365303 
L 61.641226 67.391453 
L 62.753406 79.215907 
L 64.421676 100.036372 
L 67.202127 134.8399 
L 68.314307 146.404785 
L 69.426488 155.825066 
L 70.538668 163.072203 
L 71.650848 168.49469 
L 72.763029 172.668613 
L 76.377615 185.003618 
L 77.76784 191.23375 
L 80.548291 204.111016 
L 81.938516 209.398334 
L 85.275057 221.472117 
L 86.943327 227.586701 
L 87.777463 229.87645 
L 88.333553 230.868416 
L 88.889643 231.322746 
L 89.167688 231.326578 
L 89.445733 231.174892 
L 90.001823 230.397835 
L 90.557913 229.008421 
L 91.392049 225.922457 
L 92.504229 220.570329 
L 94.172499 212.463422 
L 95.006635 209.49981 
L 95.562725 208.19225 
L 96.118815 207.49566 
L 96.39686 207.387908 
L 96.674905 207.441884 
L 96.95295 207.656265 
L 97.50904 208.552899 
L 98.06513 210.031435 
L 98.899266 213.166354 
L 100.011446 218.466884 
L 101.679716 226.589317 
L 102.513852 229.795718 
L 103.347987 232.063005 
L 103.904077 233.002978 
L 104.460167 233.488886 
L 105.016257 233.54154 
L 105.572347 233.190471 
L 106.128438 232.470824 
L 106.684528 231.421117 
L 107.518663 229.329299 
L 108.908888 224.982021 
L 110.577159 219.796377 
L 111.689339 217.027525 
L 113.35761 213.646647 
L 114.747835 210.693605 
L 117.250241 204.617471 
L 119.752646 198.363687 
L 120.864827 194.903795 
L 121.977007 190.743217 
L 123.367232 184.623545 
L 124.757458 177.579624 
L 126.425728 167.885306 
L 131.98663 133.928401 
L 133.09881 128.612939 
L 133.932945 125.424112 
L 134.76708 123.108796 
L 135.32317 122.081022 
L 135.879261 121.443495 
L 136.435351 121.146929 
L 136.991441 121.129884 
L 137.547531 121.331911 
L 138.381666 121.956622 
L 139.215801 122.943171 
L 140.049937 124.360795 
L 140.884072 126.29954 
L 141.718207 128.770372 
L 143.108433 133.745269 
L 145.332793 142.648987 
L 146.723018 149.073548 
L 148.947379 160.913395 
L 150.337604 167.692131 
L 151.72783 173.302045 
L 155.342416 186.427518 
L 156.732641 190.566493 
L 159.791137 198.879986 
L 160.903317 202.822483 
L 162.293543 208.581704 
L 163.683768 215.377286 
L 165.073993 223.46378 
L 170.634895 257.946563 
L 172.859256 269.819773 
L 174.527526 277.400736 
L 176.473841 285.127572 
L 177.864067 289.945233 
L 178.976247 293.080152 
L 180.088427 295.538432 
L 183.703013 302.731594 
L 187.039554 310.111522 
L 188.707825 313.233822 
L 189.820005 314.877851 
L 190.65414 315.749315 
L 191.488276 316.268917 
L 192.322411 316.466914 
L 193.156546 316.412212 
L 193.990681 316.164468 
L 194.824816 315.72791 
L 195.658952 315.052197 
L 196.493087 314.073707 
L 197.327222 312.778106 
L 198.717447 310.124801 
L 200.663763 306.392258 
L 201.775943 304.641138 
L 202.610079 303.614488 
L 203.444214 302.949411 
L 204.000304 302.772489 
L 204.556394 302.842584 
L 205.112484 303.159696 
L 205.946619 303.999449 
L 207.336845 305.49166 
L 207.892935 305.709014 
L 208.17098 305.666402 
L 208.449025 305.505269 
L 209.005115 304.788463 
L 209.561205 303.513474 
L 210.117296 301.682283 
L 210.951431 297.988388 
L 212.063611 291.665963 
L 213.731881 280.389387 
L 215.956242 265.127569 
L 217.068422 259.087836 
L 217.902558 255.846289 
L 218.458648 254.376738 
L 219.014738 253.453347 
L 219.570828 253.034362 
L 220.126918 253.054512 
L 220.683008 253.435773 
L 221.239099 254.095763 
L 222.073234 255.434439 
L 224.019549 258.837978 
L 224.575639 259.501602 
L 225.13173 259.851152 
L 225.409775 259.876983 
L 225.68782 259.78872 
L 226.24391 259.233311 
L 226.8 258.13062 
L 227.35609 256.463931 
L 228.190225 252.965456 
L 229.302406 246.798747 
L 230.692631 237.617423 
L 232.916992 221.231178 
L 236.253533 195.912014 
L 237.365713 189.143584 
L 238.477893 183.733517 
L 239.590073 179.475229 
L 240.980299 175.153187 
L 243.204659 168.488612 
L 244.31684 164.23541 
L 245.150975 160.244421 
L 246.263155 153.690702 
L 247.931426 141.978096 
L 249.599696 130.739243 
L 250.711876 124.996076 
L 251.546012 121.838894 
L 252.380147 119.566917 
L 253.214282 117.998863 
L 254.048417 116.95378 
L 254.882553 116.29531 
L 255.716688 115.928781 
L 256.550823 115.786213 
L 257.384958 115.822879 
L 258.219093 116.042545 
L 259.053229 116.53506 
L 259.609319 117.108439 
L 260.165409 117.972635 
L 260.721499 119.22252 
L 261.277589 120.954878 
L 261.833679 123.253611 
L 262.667815 127.885894 
L 263.50195 133.963944 
L 264.61413 143.975243 
L 267.950671 176.222648 
L 269.062851 184.058293 
L 269.896987 188.508434 
L 270.731122 191.802107 
L 271.565257 194.031076 
L 272.121347 194.962461 
L 272.677437 195.472747 
L 273.233527 195.587238 
L 273.789618 195.348809 
L 274.345708 194.828415 
L 276.292023 192.591584 
L 276.570068 192.49949 
L 276.848113 192.534108 
L 277.126159 192.715456 
L 277.404204 193.063355 
L 277.960294 194.318194 
L 278.516384 196.37797 
L 279.072474 199.248232 
L 279.906609 204.880344 
L 282.965105 227.834776 
L 283.521195 230.33329 
L 284.077285 231.984057 
L 284.633376 232.81826 
L 284.911421 232.958516 
L 285.189466 232.936318 
L 285.745556 232.482716 
L 286.301646 231.616867 
L 287.135781 229.852402 
L 288.526007 226.280728 
L 289.638187 222.696501 
L 290.472322 219.19829 
L 291.306457 214.819631 
L 292.696683 206.060199 
L 293.808863 199.28001 
L 294.642998 195.578782 
L 295.199088 194.186989 
L 295.477133 193.873445 
L 295.755179 193.830965 
L 296.033224 194.064571 
L 296.311269 194.574923 
L 296.867359 196.400234 
L 297.423449 199.209188 
L 298.257584 204.897322 
L 299.925855 218.827137 
L 301.31608 229.58246 
L 302.150215 234.597326 
L 302.98435 238.229252 
L 303.540441 239.835029 
L 304.096531 240.775927 
L 304.374576 240.996254 
L 304.652621 241.049568 
L 304.930666 240.936399 
L 305.208711 240.65668 
L 305.764801 239.602348 
L 306.320891 237.902098 
L 307.155027 234.221548 
L 307.989162 229.401772 
L 311.047658 209.956782 
L 311.603748 207.675093 
L 312.159838 206.130955 
L 312.715928 205.365393 
L 312.993973 205.27125 
L 313.272018 205.359712 
L 313.550063 205.619942 
L 314.106153 206.59341 
L 314.940289 208.896768 
L 316.886604 214.979178 
L 317.442694 216.102152 
L 317.998785 216.701296 
L 318.27683 216.777931 
L 318.554875 216.6972 
L 318.83292 216.455666 
L 319.38901 215.489795 
L 319.9451 213.901195 
L 320.779235 210.476449 
L 321.891416 204.411612 
L 323.559686 193.522507 
L 325.784047 177.38863 
L 327.452317 163.596165 
L 329.120587 147.784289 
L 330.788858 129.861701 
L 332.179083 112.88272 
L 333.847354 89.393756 
L 336.90585 44.291744 
L 337.739985 34.91064 
L 338.57412 27.970771 
L 339.13021 24.822507 
L 339.6863 22.849012 
L 339.964345 22.283099 
L 340.24239 21.98105 
L 340.520436 21.927273 
L 340.798481 22.106309 
L 341.076526 22.500189 
L 341.632616 23.858883 
L 342.188706 25.859068 
L 343.022841 29.761926 
L 344.413067 37.705455 
L 348.027653 59.156776 
L 349.695923 67.662452 
L 351.364193 75.024873 
L 352.476374 79.052594 
L 353.310509 81.445272 
L 354.144644 83.214428 
L 354.978779 84.34414 
L 355.53487 84.770194 
L 356.09096 84.978364 
L 356.925095 85.002412 
L 358.593365 84.833616 
L 359.149456 84.953854 
L 359.705546 85.253327 
L 360.261636 85.768701 
L 360.817726 86.525211 
L 361.651861 88.140105 
L 362.485996 90.331417 
L 363.598177 94.09217 
L 364.710357 98.700471 
L 366.100582 105.49242 
L 367.490808 113.335067 
L 369.437123 125.818983 
L 373.607799 153.359056 
L 376.666295 172.935384 
L 378.890656 188.87133 
L 381.671107 208.66336 
L 383.339377 218.950348 
L 385.007648 227.931165 
L 388.344188 244.257753 
L 394.46118 273.160814 
L 396.407496 281.575717 
L 398.075766 287.897811 
L 399.465991 292.371472 
L 400.578172 295.226341 
L 401.412307 296.886886 
L 402.524487 298.542145 
L 403.636668 299.757676 
L 404.748848 300.668845 
L 405.582983 301.122976 
L 406.417118 301.313904 
L 407.251253 301.226434 
L 408.363434 300.802759 
L 410.031704 300.155718 
L 411.143885 299.989565 
L 414.480425 299.889938 
L 415.314561 300.021672 
L 416.148696 300.34004 
L 417.260876 301.025332 
L 420.041327 302.884337 
L 423.099823 304.467585 
L 424.490048 304.953031 
L 426.436364 305.270078 
L 426.436364 305.270078 
" clip-path="url(#pd990db4858)" style="fill: none; stroke-dasharray: 11.1,4.8; stroke-dashoffset: 0; stroke: #000000; stroke-width: 3"/>
   </g>
   <g id="line2d_2">
    <path d="M 27.163636 186.542669 
L 29.944087 184.527157 
L 31.612358 183.595573 
L 33.002583 183.052254 
L 34.392808 182.735539 
L 36.061079 182.412282 
L 37.173259 182.042913 
L 39.39762 180.78662 
L 41.343935 179.435259 
L 43.012206 178.1131 
L 43.568296 178.128757 
L 45.514611 178.423539 
L 47.182882 178.441575 
L 48.573107 178.242653 
L 49.963332 177.803651 
L 51.075513 177.246458 
L 52.187693 176.683518 
L 54.968144 175.934142 
L 56.914459 175.713022 
L 58.58273 175.726698 
L 60.251 175.96876 
L 61.919271 176.465041 
L 63.587541 177.22545 
L 64.421676 177.735472 
L 64.977767 178.114289 
L 66.367992 178.819071 
L 68.314307 180.107801 
L 73.597164 183.852236 
L 77.76784 186.229389 
L 80.548291 187.562647 
L 82.772651 188.385025 
L 84.440922 188.808238 
L 92.226184 189.991 
L 96.39686 190.444008 
L 99.455356 190.553676 
L 105.294302 190.041342 
L 106.684528 190.175784 
L 108.074753 190.54337 
L 109.464978 191.155925 
L 110.855204 192.02217 
L 112.523474 193.404118 
L 114.191745 195.10232 
L 115.860015 197.151394 
L 117.528286 199.584702 
L 119.196556 202.436069 
L 119.752646 203.455056 
L 120.030691 203.729755 
L 123.367232 204.796639 
L 124.201367 204.92137 
L 127.259863 205.112298 
L 135.601215 205.190387 
L 136.435351 205.004876 
L 137.825576 204.77682 
L 138.659711 204.62857 
L 140.606027 202.758136 
L 141.996252 201.766896 
L 143.386478 201.084973 
L 144.498658 200.752533 
L 145.888883 200.598536 
L 147.279109 200.701267 
L 148.669334 201.038859 
L 150.059559 201.515387 
L 152.28392 201.302063 
L 154.508281 201.104264 
L 158.400912 200.487745 
L 162.849633 199.818902 
L 165.352038 199.707781 
L 168.410534 199.433611 
L 178.976247 198.41753 
L 181.756698 198.458094 
L 185.093239 198.73973 
L 189.263915 199.19287 
L 190.376095 198.012684 
L 191.766321 196.216706 
L 193.990681 192.908763 
L 197.883312 187.040733 
L 199.273538 185.317493 
L 200.385718 184.204561 
L 201.497898 183.392489 
L 202.332033 183.01691 
L 202.888124 182.907968 
L 212.063611 183.076434 
L 218.736693 183.061371 
L 221.239099 183.339109 
L 223.463459 183.812597 
L 225.409775 184.46935 
L 227.078045 185.256779 
L 228.746316 186.295784 
L 229.302406 186.80138 
L 230.136541 187.634526 
L 230.970676 188.157233 
L 231.804811 188.405043 
L 232.638947 188.412904 
L 233.473082 188.215238 
L 234.585262 187.687378 
L 235.975487 186.681207 
L 237.921803 184.904454 
L 240.702254 182.342848 
L 242.092479 181.359536 
L 242.648569 181.139803 
L 243.76075 181.641634 
L 244.87293 181.86097 
L 246.263155 181.879534 
L 248.209471 181.63985 
L 252.102102 181.068321 
L 254.326462 181.049228 
L 255.716688 181.311308 
L 256.828868 181.727915 
L 257.941048 182.360223 
L 259.609319 183.414093 
L 263.50195 184.692253 
L 269.062851 186.508645 
L 271.565257 187.574935 
L 273.789618 188.817883 
L 275.735933 190.153058 
L 276.292023 190.638173 
L 278.794429 193.364149 
L 281.852925 196.331923 
L 284.911421 198.969834 
L 287.969916 201.295192 
L 289.916232 202.552145 
L 291.862547 203.538959 
L 293.530818 204.189633 
L 294.086908 204.229933 
L 296.867359 203.945259 
L 298.813674 203.950874 
L 300.481945 204.164331 
L 302.150215 204.626456 
L 303.540441 205.238746 
L 304.930666 206.092769 
L 306.598936 207.421007 
L 307.711117 208.408878 
L 309.101342 209.978253 
L 310.213522 211.42587 
L 314.384199 213.654046 
L 315.774424 214.289327 
L 318.83292 215.221769 
L 321.335325 216.199268 
L 323.559686 217.287557 
L 325.784047 218.48307 
L 326.340137 218.313812 
L 328.008407 217.414931 
L 329.954723 216.102482 
L 340.520436 208.413634 
L 341.632616 207.859216 
L 343.300886 207.428935 
L 343.856976 207.463421 
L 346.359382 207.746774 
L 348.861788 207.793548 
L 351.920284 207.574806 
L 355.256825 207.103631 
L 363.598177 205.54291 
L 372.773664 203.10511 
L 373.329754 202.987778 
L 376.666295 202.978463 
L 380.836971 203.19694 
L 385.841783 203.679413 
L 388.344188 204.142331 
L 390.846594 204.664443 
L 392.236819 204.296262 
L 401.690352 200.924038 
L 402.524487 200.837229 
L 403.358622 201.104264 
L 404.748848 201.95571 
L 405.861028 202.927395 
L 407.251253 204.488115 
L 411.97802 210.179223 
L 414.20238 212.094779 
L 416.148696 213.480823 
L 417.260876 213.990779 
L 419.207192 214.628043 
L 420.041327 214.744449 
L 421.987642 214.649118 
L 425.880273 214.326324 
L 426.436364 214.343104 
L 426.436364 214.343104 
" clip-path="url(#pd990db4858)" style="fill: none; stroke: #ff00ff; stroke-width: 3; stroke-linecap: square"/>
   </g>
   <g id="patch_3">
    <path d="M 7.2 331.2 
L 7.2 7.2 
" style="fill: none; stroke: #000000; stroke-width: 0.8; stroke-linejoin: miter; stroke-linecap: square"/>
   </g>
   <g id="patch_4">
    <path d="M 446.4 331.2 
L 446.4 7.2 
" style="fill: none; stroke: #000000; stroke-width: 0.8; stroke-linejoin: miter; stroke-linecap: square"/>
   </g>
   <g id="patch_5">
    <path d="M 7.2 331.2 
L 446.4 331.2 
" style="fill: none; stroke: #000000; stroke-width: 0.8; stroke-linejoin: miter; stroke-linecap: square"/>
   </g>
   <g id="patch_6">
    <path d="M 7.2 7.2 
L 446.4 7.2 
" style="fill: none; stroke: #000000; stroke-width: 0.8; stroke-linejoin: miter; stroke-linecap: square"/>
   </g>
  </g>
 </g>
 <defs>
  <clipPath id="pd990db4858">
   <rect x="7.2" y="7.2" width="439.2" height="324"/>
  </clipPath>
 </defs>
</svg>
