<?xml version="1.0" encoding="utf-8" standalone="no"?>
<!DOCTYPE svg PUBLIC "-//W3C//DTD SVG 1.1//EN"
  "http://www.w3.org/Graphics/SVG/1.1/DTD/svg11.dtd">
<svg xmlns:xlink="http://www.w3.org/1999/xlink" width="453.6pt" height="338.4pt" viewBox="0 0 453.6 338.4" xmlns="http://www.w3.org/2000/svg" version="1.1">
 <metadata>
  <rdf:RDF xmlns:dc="http://purl.org/dc/elements/1.1/" xmlns:cc="http://creativecommons.org/ns#" xmlns:rdf="http://www.w3.org/1999/02/22-rdf-syntax-ns#">
   <cc:Work>
    <dc:type rdf:resource="http://purl.org/dc/dcmitype/StillImage"/>
    <dc:date>2025-05-15T18:03:29.481659</dc:date>
    <dc:format>image/svg+xml</dc:format>
    <dc:creator>
     <cc:Agent>
      <dc:title>Matplotlib v3.10.1, https://matplotlib.org/</dc:title>
     </cc:Agent>
    </dc:creator>
   </cc:Work>
  </rdf:RDF>
 </metadata>
 <defs>
  <style type="text/css">*{stroke-linejoin: round; stroke-linecap: butt}</style>
 </defs>
 <g id="figure_1">
  <g id="patch_1">
   <path d="M 0 338.4 
L 453.6 338.4 
L 453.6 0 
L 0 0 
z
" style="fill: #ffffff"/>
  </g>
  <g id="axes_1">
   <g id="patch_2">
    <path d="M 7.2 331.2 
L 446.4 331.2 
L 446.4 7.2 
L 7.2 7.2 
z
" style="fill: #ffffff"/>
   </g>
   <g id="matplotlib.axis_1"/>
   <g id="matplotlib.axis_2"/>
   <g id="line2d_1">
    <path d="M 27.163636 26.873444 
L 27.441681 27.067305 
L 27.719727 27.742103 
L 28.275817 30.383021 
L 29.109952 36.704662 
L 31.056267 53.348085 
L 32.168448 60.531763 
L 33.280628 67.797142 
L 34.114763 74.996254 
L 34.948898 84.424367 
L 36.061079 100.394724 
L 38.285439 137.895385 
L 39.675665 159.053909 
L 40.787845 172.467595 
L 41.900025 183.136045 
L 43.012206 191.489617 
L 43.568296 194.43177 
L 43.846341 195.418956 
L 44.124386 195.991576 
L 44.402431 196.075875 
L 44.680476 195.601612 
L 44.958521 194.509192 
L 45.514611 190.305869 
L 46.070701 183.313149 
L 46.904837 168.101022 
L 49.963332 103.881483 
L 50.519423 97.42201 
L 51.075513 93.382801 
L 51.353558 92.249582 
L 51.631603 91.685723 
L 51.909648 91.672989 
L 52.187693 92.191668 
L 52.465738 93.221335 
L 53.021828 96.746601 
L 53.577918 102.131737 
L 54.412054 113.39583 
L 55.524234 133.128304 
L 59.416865 208.9528 
L 60.529045 224.878664 
L 61.363181 233.736449 
L 62.197316 239.802622 
L 62.753406 242.525674 
L 63.587541 245.321336 
L 64.977767 249.345926 
L 65.811902 252.698061 
L 66.924082 258.338512 
L 69.426488 271.540433 
L 70.538668 276.234955 
L 71.094758 277.943851 
L 71.650848 278.972346 
L 71.928893 279.175682 
L 72.206938 279.149272 
L 72.484984 278.879924 
L 72.763029 278.357908 
L 73.319119 276.544925 
L 73.875209 273.728074 
L 74.709344 267.766651 
L 75.543479 259.927251 
L 76.377615 250.177453 
L 77.489795 233.874638 
L 78.88002 208.877567 
L 81.104381 167.896973 
L 82.216561 151.030962 
L 83.328741 137.545507 
L 84.162877 130.50394 
L 84.718967 127.77154 
L 84.997012 127.077795 
L 85.275057 126.85057 
L 85.553102 127.084875 
L 85.831147 127.757889 
L 86.387237 130.234286 
L 87.221372 135.67489 
L 88.055508 141.061299 
L 88.611598 143.649041 
L 89.167688 145.144771 
L 89.445733 145.516907 
L 90.001823 145.754625 
L 90.557913 145.806325 
L 90.835958 145.972324 
L 91.114004 146.338807 
L 91.392049 146.971736 
L 91.948139 149.21831 
L 92.504229 152.873003 
L 93.338364 160.628894 
L 97.50904 204.773416 
L 98.899266 215.73923 
L 102.235807 238.252162 
L 103.069942 243.159341 
L 103.626032 245.0227 
L 103.904077 245.319706 
L 104.182122 245.121235 
L 104.460167 244.38939 
L 104.738212 243.101325 
L 105.294302 238.854121 
L 105.850393 232.556674 
L 106.684528 220.168555 
L 108.630843 185.847561 
L 110.299114 157.741497 
L 111.133249 146.945555 
L 111.689339 142.210818 
L 111.967384 140.791594 
L 112.245429 140.073196 
L 112.523474 140.082008 
L 112.801519 140.819965 
L 113.079564 142.263842 
L 113.635655 147.050228 
L 114.46979 157.639829 
L 116.416105 184.10138 
L 117.250241 192.26165 
L 118.084376 198.52497 
L 119.196556 204.957855 
L 120.030691 208.399535 
L 120.586781 209.900358 
L 121.142872 210.768406 
L 121.698962 211.146757 
L 123.089187 211.595654 
L 123.645277 212.169089 
L 124.757458 213.97405 
L 125.313548 214.712415 
L 125.869638 215.031324 
L 126.425728 214.894969 
L 127.537908 214.27997 
L 127.815953 214.379957 
L 128.093998 214.706914 
L 128.372044 215.31412 
L 128.928134 217.503951 
L 129.484224 221.017604 
L 130.318359 228.099385 
L 131.430539 237.737965 
L 131.98663 241.120687 
L 132.264675 242.201952 
L 132.54272 242.808572 
L 132.820765 242.902497 
L 133.09881 242.456733 
L 133.376855 241.453094 
L 133.932945 237.728796 
L 134.489035 231.661121 
L 135.045125 223.217546 
L 135.879261 206.265835 
L 136.991441 177.764153 
L 138.381666 142.407787 
L 139.215801 127.614098 
L 139.771892 121.820406 
L 140.049937 120.152514 
L 140.327982 119.233938 
L 140.606027 118.979972 
L 140.884072 119.291342 
L 141.162117 120.061033 
L 141.718207 122.56957 
L 142.830387 129.38758 
L 143.942568 137.714818 
L 144.776703 146.259551 
L 145.610838 157.612426 
L 148.669334 203.590432 
L 150.893695 231.006953 
L 154.508281 282.288547 
L 155.620461 292.869413 
L 156.454596 299.181503 
L 157.288731 303.738474 
L 157.844821 305.565312 
L 158.400912 306.450117 
L 158.957002 306.645456 
L 159.791137 306.611405 
L 160.069182 306.759654 
L 160.347227 307.078206 
L 160.903317 308.342102 
L 161.459407 310.407242 
L 162.571588 315.171955 
L 162.849633 315.976536 
L 163.127678 316.437633 
L 163.405723 316.472727 
L 163.683768 316.011809 
L 163.961813 315.003917 
L 164.517903 311.253541 
L 165.073993 305.232242 
L 165.908129 292.594487 
L 167.020309 271.141351 
L 168.688579 233.610612 
L 170.35685 196.892783 
L 171.190985 183.019453 
L 171.747075 176.312126 
L 172.303165 171.517337 
L 173.137301 166.772362 
L 174.527526 160.013234 
L 177.029932 145.68851 
L 177.586022 144.566955 
L 177.864067 144.41807 
L 178.142112 144.499363 
L 178.698202 145.15832 
L 179.810382 147.235226 
L 180.644518 149.022563 
L 181.200608 150.774602 
L 181.756698 153.516832 
L 182.312788 157.674262 
L 182.868878 163.419004 
L 183.703013 174.518219 
L 185.649329 202.089355 
L 186.761509 214.189712 
L 189.263915 237.476639 
L 190.09805 243.30214 
L 190.65414 245.579683 
L 190.932185 246.120824 
L 191.21023 246.237009 
L 191.488276 245.919934 
L 191.766321 245.168223 
L 192.322411 242.389421 
L 192.878501 237.981998 
L 193.434591 231.984181 
L 194.268726 219.892534 
L 195.102861 203.995423 
L 197.883312 144.299135 
L 198.439402 137.821936 
L 198.717447 135.842724 
L 198.995493 134.707314 
L 199.273538 134.379746 
L 199.551583 134.798897 
L 199.829628 135.883472 
L 200.385718 139.673095 
L 201.219853 148.013729 
L 202.610079 164.840418 
L 204.000304 183.92448 
L 205.668574 207.555071 
L 206.50271 216.36355 
L 207.0588 220.322534 
L 207.61489 222.782707 
L 208.17098 224.02223 
L 208.72707 224.463436 
L 209.561205 224.543838 
L 212.619701 224.660837 
L 212.897746 224.816981 
L 213.175791 225.109658 
L 213.731881 226.265111 
L 214.287972 228.39466 
L 214.844062 231.578503 
L 215.678197 237.854098 
L 217.068422 248.278923 
L 217.624513 251.060195 
L 218.180603 252.665259 
L 218.458648 253.018142 
L 218.736693 253.082219 
L 219.014738 252.871676 
L 219.292783 252.401182 
L 219.848873 250.710572 
L 220.404963 247.980286 
L 220.961053 244.044096 
L 221.517144 238.667823 
L 222.351279 227.620563 
L 223.463459 208.163804 
L 225.409775 172.802141 
L 226.521955 157.509638 
L 228.190225 138.528823 
L 229.302406 127.549766 
L 229.858496 123.654451 
L 230.414586 121.576067 
L 230.692631 121.343443 
L 230.970676 121.674832 
L 231.248721 122.561216 
L 231.804811 125.849122 
L 232.638947 133.562379 
L 234.863307 156.466931 
L 235.975487 165.016453 
L 237.087668 171.751641 
L 237.643758 174.253353 
L 238.199848 175.986239 
L 238.755938 176.928551 
L 239.312028 177.254286 
L 240.146164 177.484464 
L 240.424209 177.772099 
L 240.702254 178.296839 
L 240.980299 179.13458 
L 241.536389 181.993657 
L 242.092479 186.673587 
L 242.648569 193.191585 
L 243.482704 205.779755 
L 245.707065 245.400592 
L 247.931426 282.381428 
L 249.043606 298.096979 
L 249.877741 307.127283 
L 250.433831 311.296276 
L 250.989921 313.699554 
L 251.267967 314.181966 
L 251.546012 314.164063 
L 251.824057 313.632548 
L 252.102102 312.574739 
L 252.658192 308.836306 
L 253.214282 302.886929 
L 253.770372 294.738145 
L 254.604507 278.784725 
L 255.994733 245.735979 
L 257.384958 212.8419 
L 258.497139 191.9813 
L 259.331274 180.127574 
L 260.165409 170.945888 
L 260.999544 163.744076 
L 261.833679 158.079456 
L 262.667815 153.778642 
L 263.50195 150.589094 
L 266.282401 141.877189 
L 267.116536 139.73325 
L 267.672626 138.889346 
L 267.950671 138.693091 
L 268.228716 138.650203 
L 268.506761 138.750444 
L 269.062851 139.297953 
L 272.121347 143.593674 
L 272.677437 144.859785 
L 273.233527 146.737431 
L 274.067663 150.744702 
L 275.735933 159.840001 
L 276.570068 162.902261 
L 277.126159 164.166691 
L 277.682249 164.934802 
L 278.238339 165.333222 
L 278.794429 165.373411 
L 279.072474 165.195135 
L 279.350519 164.81765 
L 279.628564 164.173975 
L 279.906609 163.187807 
L 280.462699 159.875554 
L 281.01879 154.354878 
L 281.57488 146.345582 
L 282.409015 129.892456 
L 284.077285 88.88456 
L 285.189466 64.032376 
L 286.301646 44.621256 
L 287.135781 33.621519 
L 287.969916 25.857784 
L 288.526007 22.854813 
L 288.804052 22.115684 
L 289.082097 21.927273 
L 289.360142 22.304707 
L 289.638187 23.24651 
L 290.194277 26.725475 
L 290.750367 31.994324 
L 291.862547 45.571106 
L 295.477133 93.683985 
L 297.979539 131.076967 
L 299.091719 143.192809 
L 300.481945 155.128695 
L 301.594125 162.880205 
L 302.150215 165.517915 
L 302.706305 166.920585 
L 302.98435 167.119693 
L 303.262396 166.997855 
L 303.540441 166.590317 
L 304.096531 165.146339 
L 304.930666 162.58437 
L 305.208711 161.989389 
L 305.486756 161.664419 
L 305.764801 161.66992 
L 306.042846 162.045317 
L 306.320891 162.805024 
L 306.876982 165.397911 
L 307.711117 171.08428 
L 308.545252 176.730869 
L 309.101342 179.066887 
L 309.379387 179.522762 
L 309.657432 179.403368 
L 309.935477 178.653441 
L 310.213522 177.236713 
L 310.769613 172.33506 
L 311.325703 164.680327 
L 312.159838 148.433338 
L 313.272018 120.060676 
L 315.218334 68.471329 
L 316.052469 52.663202 
L 316.608559 45.468827 
L 317.164649 40.884708 
L 317.720739 38.505956 
L 317.998785 37.970009 
L 318.27683 37.777217 
L 318.554875 37.866202 
L 318.83292 38.186079 
L 319.38901 39.3738 
L 319.9451 41.215536 
L 320.50119 43.80557 
L 321.05728 47.378105 
L 321.61337 52.188328 
L 322.447506 61.915638 
L 323.559686 78.368407 
L 325.506002 107.381688 
L 328.286452 145.731806 
L 329.676678 170.549607 
L 331.344948 204.944408 
L 334.403444 270.25708 
L 335.237579 283.915308 
L 336.071714 294.075522 
L 336.627805 298.881364 
L 337.183895 302.257185 
L 337.739985 304.402397 
L 338.296075 305.492754 
L 338.57412 305.679204 
L 338.852165 305.634712 
L 339.13021 305.35948 
L 339.408255 304.853127 
L 339.964345 303.145072 
L 340.520436 300.508381 
L 341.076526 296.947689 
L 341.910661 289.936275 
L 342.744796 281.01421 
L 343.856976 266.268069 
L 345.247202 243.892918 
L 346.637427 221.966869 
L 347.193517 215.517659 
L 347.749607 211.352945 
L 348.027653 210.25482 
L 348.305698 209.839337 
L 348.583743 210.09641 
L 348.861788 210.991199 
L 349.417878 214.4476 
L 350.252013 222.451446 
L 351.642239 236.811825 
L 352.476374 243.032154 
L 353.032464 245.836068 
L 353.588554 247.720259 
L 354.144644 248.895017 
L 354.700734 249.541112 
L 355.256825 249.774652 
L 355.812915 249.680829 
L 356.64705 249.185351 
L 357.20314 248.868046 
L 357.75923 248.809979 
L 358.037275 248.940477 
L 358.593365 249.616726 
L 359.149456 250.892668 
L 359.983591 253.694544 
L 361.095771 257.606489 
L 361.651861 258.979921 
L 362.207951 259.775462 
L 362.764042 260.050362 
L 363.320132 259.987126 
L 364.432312 259.722616 
L 366.100582 259.770267 
L 366.656673 259.275731 
L 367.212763 258.201444 
L 367.768853 256.446019 
L 368.324943 253.992034 
L 369.159078 249.009011 
L 369.993213 242.296896 
L 370.827349 233.24064 
L 371.661484 221.158339 
L 372.773664 200.839288 
L 374.441935 169.560995 
L 375.27607 157.342161 
L 376.666295 141.205142 
L 378.334566 120.985161 
L 379.168701 112.022754 
L 379.724791 108.485009 
L 380.002836 107.80415 
L 380.280881 107.960472 
L 380.558926 108.997728 
L 380.836971 110.920962 
L 381.393062 117.257985 
L 382.227197 131.531671 
L 384.729602 179.128875 
L 388.344188 235.548362 
L 389.456369 250.179057 
L 390.568549 261.569777 
L 391.680729 270.450483 
L 392.514865 275.511361 
L 393.070955 277.862201 
L 393.627045 279.277554 
L 393.90509 279.642814 
L 394.183135 279.802676 
L 394.46118 279.786784 
L 395.01727 279.37479 
L 395.851405 278.297167 
L 396.685541 276.987735 
L 397.241631 275.657191 
L 397.797721 273.392636 
L 398.353811 269.642616 
L 398.909901 264.028779 
L 399.744036 251.972634 
L 400.856217 230.751637 
L 402.802532 187.746855 
L 403.914713 158.611633 
L 406.417118 89.175658 
L 406.973208 80.989614 
L 407.251253 78.785979 
L 407.529299 77.898321 
L 407.807344 78.303362 
L 408.085389 79.92745 
L 408.641479 86.322846 
L 409.475614 101.165892 
L 411.143885 132.783571 
L 411.97802 144.454285 
L 412.812155 153.166495 
L 413.64629 159.353411 
L 414.20238 161.978897 
L 414.75847 163.266299 
L 415.036516 163.41498 
L 415.314561 163.27073 
L 415.870651 162.350575 
L 416.426741 161.21053 
L 416.704786 160.839616 
L 416.982831 160.763874 
L 417.260876 161.103259 
L 417.538921 161.967232 
L 417.816966 163.44544 
L 418.373056 168.46068 
L 418.929147 176.259 
L 419.763282 192.219628 
L 423.377868 269.202607 
L 424.490048 288.003415 
L 425.324183 299.17916 
L 425.880273 304.597353 
L 426.436364 308.151525 
L 426.436364 308.151525 
" clip-path="url(#p8c3c506fd8)" style="fill: none; stroke-dasharray: 11.1,4.8; stroke-dashoffset: 0; stroke: #000000; stroke-width: 3"/>
   </g>
   <g id="line2d_2">
    <path d="M 27.163636 134.9297 
L 29.109952 137.786128 
L 30.778222 140.573793 
L 32.446493 143.981754 
L 34.114763 148.145398 
L 38.285439 152.192348 
L 41.343935 155.005532 
L 43.012206 156.315601 
L 44.680476 157.285673 
L 46.070701 157.879126 
L 47.460927 158.236644 
L 48.295062 158.450625 
L 49.685287 159.228262 
L 50.241378 159.472295 
L 51.631603 161.956536 
L 53.577918 165.873193 
L 55.524234 170.259987 
L 58.860775 178.627311 
L 61.641226 186.217406 
L 64.143631 193.706903 
L 64.977767 196.561497 
L 66.924082 204.596669 
L 67.202127 205.054938 
L 68.314307 205.471084 
L 72.763029 207.414743 
L 74.709344 208.018281 
L 76.377615 208.316408 
L 78.045885 208.366427 
L 79.43611 208.192277 
L 80.270246 207.98614 
L 81.104381 208.386546 
L 82.772651 209.429049 
L 84.718967 210.664904 
L 88.333553 211.910284 
L 91.670094 212.975708 
L 93.616409 213.370359 
L 95.28468 213.486136 
L 96.674905 213.381463 
L 97.787085 213.304193 
L 99.733401 213.288301 
L 101.679716 213.018036 
L 105.572347 212.089171 
L 109.186933 210.99069 
L 112.801519 209.651842 
L 116.69415 208.1772 
L 119.196556 207.64105 
L 122.255052 203.370033 
L 124.479413 199.907673 
L 126.981818 195.618676 
L 129.484224 190.847826 
L 131.708584 186.135093 
L 133.932945 180.91392 
L 136.991441 173.582987 
L 138.103621 172.51089 
L 139.215801 171.792543 
L 140.327982 171.406959 
L 141.440162 171.316802 
L 142.552342 171.490137 
L 143.664523 171.894058 
L 145.054748 172.674598 
L 146.723018 173.935411 
L 148.669334 175.724938 
L 152.28392 179.449516 
L 153.95219 181.091584 
L 160.069182 181.767451 
L 166.742264 182.829819 
L 170.078805 183.124024 
L 172.02512 183.14776 
L 180.088427 181.832496 
L 182.868878 181.69497 
L 186.483464 181.758079 
L 190.09805 182.011485 
L 192.044366 182.514832 
L 196.771132 183.937061 
L 201.497898 185.613969 
L 210.117296 188.994985 
L 214.566017 190.753849 
L 219.292783 192.413235 
L 225.68782 194.40075 
L 226.521955 194.644732 
L 226.8 194.885098 
L 234.307217 208.45312 
L 237.087668 212.987016 
L 239.312028 216.214766 
L 241.258344 218.659531 
L 242.926614 220.417326 
L 244.038795 221.392695 
L 244.31684 221.510586 
L 244.87293 221.34181 
L 245.98511 220.699968 
L 247.375336 219.581215 
L 248.765561 218.152262 
L 250.433831 216.154764 
L 252.380147 213.426134 
L 254.604507 209.87051 
L 257.384958 204.934068 
L 261.277589 197.484097 
L 262.111724 195.858278 
L 262.667815 195.467294 
L 266.560446 193.436586 
L 272.955482 190.379879 
L 276.292023 189.140203 
L 279.628564 188.144612 
L 280.740744 187.897879 
L 283.521195 188.127753 
L 287.135781 188.503149 
L 290.472322 188.668691 
L 293.530818 189.050607 
L 296.311269 189.633109 
L 299.091719 190.335615 
L 301.038035 189.633924 
L 302.98435 189.169899 
L 307.989162 188.383297 
L 310.213522 188.429802 
L 312.993973 188.719779 
L 316.886604 189.2625 
L 317.164649 189.16776 
L 317.998785 188.199878 
L 319.38901 186.170952 
L 321.05728 183.296493 
L 323.559686 178.460343 
L 326.896227 171.985436 
L 328.564497 169.275143 
L 329.676678 167.807734 
L 330.788858 166.6846 
L 331.622993 166.108974 
L 332.457128 165.784106 
L 333.291264 165.731897 
L 334.125399 165.977102 
L 336.627805 167.241124 
L 338.852165 168.114979 
L 341.632616 168.943093 
L 343.578931 169.315331 
L 346.359382 169.644784 
L 349.417878 169.78389 
L 352.754419 169.908631 
L 355.256825 170.303944 
L 360.539681 169.270304 
L 363.320132 169.351903 
L 365.822537 169.633884 
L 368.046898 170.097196 
L 369.437123 170.437498 
L 371.661484 170.202022 
L 373.885845 169.74365 
L 376.38825 168.996575 
L 379.168701 167.926618 
L 382.783287 166.255109 
L 383.895467 165.842427 
L 386.397873 165.093162 
L 387.232008 165.339946 
L 390.568549 166.392432 
L 393.070955 166.948702 
L 395.01727 167.164669 
L 397.241631 167.150968 
L 400.022082 166.931842 
L 401.690352 166.583237 
L 403.358622 165.985964 
L 404.192758 165.271233 
L 405.861028 163.549145 
L 407.807344 161.207321 
L 409.475614 158.882561 
L 411.699975 155.188901 
L 414.480425 150.12354 
L 418.095011 143.056658 
L 419.485237 140.307908 
L 420.319372 139.486415 
L 421.153507 138.944713 
L 421.987642 138.635584 
L 422.543733 138.590659 
L 423.377868 138.76221 
L 424.212003 139.146827 
L 425.046138 139.7414 
L 426.158319 140.861937 
L 426.436364 141.199081 
L 426.436364 141.199081 
" clip-path="url(#p8c3c506fd8)" style="fill: none; stroke: #ff00ff; stroke-width: 3; stroke-linecap: square"/>
   </g>
   <g id="patch_3">
    <path d="M 7.2 331.2 
L 7.2 7.2 
" style="fill: none; stroke: #000000; stroke-width: 0.8; stroke-linejoin: miter; stroke-linecap: square"/>
   </g>
   <g id="patch_4">
    <path d="M 446.4 331.2 
L 446.4 7.2 
" style="fill: none; stroke: #000000; stroke-width: 0.8; stroke-linejoin: miter; stroke-linecap: square"/>
   </g>
   <g id="patch_5">
    <path d="M 7.2 331.2 
L 446.4 331.2 
" style="fill: none; stroke: #000000; stroke-width: 0.8; stroke-linejoin: miter; stroke-linecap: square"/>
   </g>
   <g id="patch_6">
    <path d="M 7.2 7.2 
L 446.4 7.2 
" style="fill: none; stroke: #000000; stroke-width: 0.8; stroke-linejoin: miter; stroke-linecap: square"/>
   </g>
  </g>
 </g>
 <defs>
  <clipPath id="p8c3c506fd8">
   <rect x="7.2" y="7.2" width="439.2" height="324"/>
  </clipPath>
 </defs>
</svg>
