<?xml version="1.0" encoding="utf-8" standalone="no"?>
<!DOCTYPE svg PUBLIC "-//W3C//DTD SVG 1.1//EN"
  "http://www.w3.org/Graphics/SVG/1.1/DTD/svg11.dtd">
<svg xmlns:xlink="http://www.w3.org/1999/xlink" width="453.6pt" height="338.4pt" viewBox="0 0 453.6 338.4" xmlns="http://www.w3.org/2000/svg" version="1.1">
 <metadata>
  <rdf:RDF xmlns:dc="http://purl.org/dc/elements/1.1/" xmlns:cc="http://creativecommons.org/ns#" xmlns:rdf="http://www.w3.org/1999/02/22-rdf-syntax-ns#">
   <cc:Work>
    <dc:type rdf:resource="http://purl.org/dc/dcmitype/StillImage"/>
    <dc:date>2025-05-15T18:30:49.790002</dc:date>
    <dc:format>image/svg+xml</dc:format>
    <dc:creator>
     <cc:Agent>
      <dc:title>Matplotlib v3.10.1, https://matplotlib.org/</dc:title>
     </cc:Agent>
    </dc:creator>
   </cc:Work>
  </rdf:RDF>
 </metadata>
 <defs>
  <style type="text/css">*{stroke-linejoin: round; stroke-linecap: butt}</style>
 </defs>
 <g id="figure_1">
  <g id="patch_1">
   <path d="M 0 338.4 
L 453.6 338.4 
L 453.6 0 
L 0 0 
z
" style="fill: #ffffff"/>
  </g>
  <g id="axes_1">
   <g id="patch_2">
    <path d="M 7.2 331.2 
L 446.4 331.2 
L 446.4 7.2 
L 7.2 7.2 
z
" style="fill: #ffffff"/>
   </g>
   <g id="matplotlib.axis_1"/>
   <g id="matplotlib.axis_2"/>
   <g id="line2d_1">
    <path d="M 27.163636 289.815245 
L 27.441681 290.501999 
L 27.719727 290.854603 
L 27.997772 290.897246 
L 28.275817 290.646631 
L 28.553862 290.11827 
L 29.109952 288.298822 
L 29.666042 285.600675 
L 30.500177 280.358036 
L 32.168448 269.263088 
L 32.724538 266.704537 
L 33.280628 265.270103 
L 33.558673 265.043765 
L 33.836718 265.164272 
L 34.114763 265.633826 
L 34.670853 267.577249 
L 35.226944 270.692839 
L 36.061079 276.868839 
L 37.729349 289.926103 
L 38.563484 294.857765 
L 39.39762 298.30433 
L 40.231755 300.53223 
L 41.06589 301.984893 
L 42.17807 303.339442 
L 43.290251 304.352081 
L 44.124386 304.830981 
L 44.958521 304.986663 
L 45.792656 304.818982 
L 46.904837 304.272249 
L 48.017017 303.758633 
L 48.851152 303.658848 
L 49.407242 303.790577 
L 50.241378 304.275347 
L 52.465738 305.998947 
L 53.021828 306.069293 
L 53.577918 305.811554 
L 54.134009 305.15384 
L 54.690099 304.049009 
L 55.246189 302.485167 
L 56.080324 299.353225 
L 57.47055 292.815993 
L 58.58273 287.718923 
L 59.416865 284.820909 
L 59.972955 283.573379 
L 60.529045 282.962087 
L 60.80709 282.9032 
L 61.085135 283.00694 
L 61.641226 283.678955 
L 62.197316 284.902241 
L 63.031451 287.486891 
L 64.699721 293.02807 
L 65.255812 294.216506 
L 65.811902 294.766504 
L 66.089947 294.766006 
L 66.367992 294.572763 
L 66.924082 293.616419 
L 67.480172 291.978401 
L 68.592352 287.472367 
L 69.426488 284.168667 
L 69.982578 282.573546 
L 70.538668 281.742009 
L 70.816713 281.656819 
L 71.094758 281.800315 
L 71.372803 282.168691 
L 71.928893 283.527857 
L 72.484984 285.568672 
L 75.265434 297.310734 
L 75.821524 298.61893 
L 76.377615 299.463296 
L 76.933705 299.939577 
L 77.76784 300.25631 
L 78.88002 300.603358 
L 79.714155 301.148339 
L 81.660471 302.802181 
L 82.216561 302.925028 
L 82.494606 302.847328 
L 83.050696 302.327591 
L 83.606787 301.215396 
L 84.162877 299.382636 
L 84.718967 296.683761 
L 85.275057 292.959105 
L 85.831147 288.055715 
L 86.665282 278.193705 
L 87.499418 265.080381 
L 88.611598 242.959702 
L 90.835958 195.033269 
L 91.392049 186.317154 
L 91.948139 180.449254 
L 92.226184 178.773241 
L 92.504229 178.007926 
L 92.782274 178.184629 
L 93.060319 179.314557 
L 93.338364 181.387282 
L 93.894454 188.213509 
L 94.450544 198.163287 
L 95.562725 224.066688 
L 96.95295 256.927214 
L 97.787085 271.340987 
L 98.343175 277.623636 
L 98.899266 281.150431 
L 99.177311 281.943956 
L 99.455356 282.153411 
L 99.733401 281.840181 
L 100.011446 281.074977 
L 100.567536 278.505122 
L 102.791897 265.89872 
L 103.347987 264.564597 
L 103.626032 264.339496 
L 103.904077 264.406135 
L 104.182122 264.749484 
L 104.738212 266.165054 
L 105.572347 269.571701 
L 106.962573 275.864644 
L 107.796708 278.508794 
L 108.352798 279.574801 
L 108.908888 280.166323 
L 109.743024 280.563825 
L 110.299114 280.832794 
L 110.855204 281.35587 
L 111.411294 282.295866 
L 111.967384 283.747822 
L 112.801519 286.903397 
L 113.9137 292.502889 
L 115.860015 302.804299 
L 116.69415 306.048165 
L 117.250241 307.520111 
L 117.806331 308.357154 
L 118.084376 308.527856 
L 118.362421 308.533386 
L 118.640466 308.376764 
L 119.196556 307.599849 
L 119.752646 306.263826 
L 120.586781 303.44314 
L 123.089187 293.999365 
L 123.645277 292.819989 
L 124.201367 292.291952 
L 124.479413 292.29543 
L 124.757458 292.482002 
L 125.313548 293.393251 
L 125.869638 294.9612 
L 126.703773 298.256649 
L 129.206179 309.247396 
L 130.040314 311.668434 
L 130.596404 312.793123 
L 131.152494 313.571788 
L 131.708584 314.069826 
L 132.54272 314.447686 
L 133.6549 314.599831 
L 135.879261 314.843139 
L 138.937756 315.388109 
L 139.771892 315.289245 
L 140.884072 314.884895 
L 143.942568 313.4235 
L 144.776703 313.397763 
L 145.610838 313.638103 
L 146.444973 314.113234 
L 149.781514 316.363813 
L 150.61565 316.472727 
L 151.449785 316.288885 
L 152.28392 315.84693 
L 153.674145 314.782611 
L 155.064371 313.80188 
L 155.898506 313.467607 
L 156.732641 313.387915 
L 157.566776 313.533921 
L 160.069182 314.194957 
L 160.625272 314.117536 
L 161.181362 313.868658 
L 161.737453 313.412372 
L 162.293543 312.717898 
L 163.127678 311.182134 
L 163.961813 309.050779 
L 165.352038 304.616989 
L 166.464219 301.334184 
L 167.020309 300.219409 
L 167.576399 299.649815 
L 167.854444 299.599588 
L 168.132489 299.713623 
L 168.410534 299.991913 
L 168.966624 301.016354 
L 169.522715 302.576211 
L 170.634895 306.622554 
L 171.747075 310.552422 
L 172.58121 312.607322 
L 173.137301 313.394001 
L 173.693391 313.715821 
L 174.249481 313.633379 
L 174.805571 313.243442 
L 175.917751 312.005241 
L 177.029932 310.887456 
L 177.586022 310.579792 
L 178.142112 310.49157 
L 178.698202 310.624752 
L 179.254292 310.955988 
L 180.088427 311.721769 
L 182.034743 313.692004 
L 182.868878 314.216297 
L 183.703013 314.467326 
L 184.537149 314.497006 
L 185.927374 314.284291 
L 188.707825 313.80164 
L 190.09805 313.790739 
L 191.488276 314.067238 
L 192.878501 314.388833 
L 193.434591 314.376072 
L 193.990681 314.194984 
L 194.546771 313.796001 
L 195.102861 313.149108 
L 195.936997 311.718061 
L 197.049177 309.197459 
L 198.717447 305.440605 
L 199.829628 303.627872 
L 200.941808 301.933113 
L 201.497898 300.747992 
L 202.053988 299.089844 
L 202.610079 296.803065 
L 203.444214 292.039094 
L 204.556394 283.599638 
L 205.946619 272.6317 
L 206.780755 267.931768 
L 207.336845 266.16079 
L 207.61489 265.730009 
L 207.892935 265.601727 
L 208.17098 265.764215 
L 208.449025 266.19773 
L 209.005115 267.766552 
L 209.83925 271.354258 
L 212.341656 283.236951 
L 213.453836 287.197935 
L 214.287972 289.434325 
L 214.844062 290.38739 
L 215.122107 290.636429 
L 215.400152 290.700284 
L 215.678197 290.555056 
L 215.956242 290.179847 
L 216.512332 288.681028 
L 217.068422 286.159206 
L 217.902558 280.725379 
L 219.570828 268.477485 
L 220.126918 265.804473 
L 220.404963 264.98675 
L 220.683008 264.561485 
L 220.961053 264.546405 
L 221.239099 264.943854 
L 221.517144 265.740431 
L 222.073234 268.401975 
L 222.907369 274.241706 
L 224.019549 282.246891 
L 224.575639 284.849424 
L 224.853684 285.556095 
L 225.13173 285.802891 
L 225.409775 285.560561 
L 225.68782 284.815938 
L 226.24391 281.851475 
L 226.8 277.137466 
L 227.91218 264.48996 
L 229.024361 252.146089 
L 229.580451 247.793654 
L 230.136541 245.30117 
L 230.414586 244.827418 
L 230.692631 244.878618 
L 230.970676 245.444092 
L 231.248721 246.499435 
L 231.804811 249.922197 
L 232.638947 257.516093 
L 235.141352 282.942031 
L 235.975487 288.685959 
L 236.809623 292.609855 
L 237.365713 294.336924 
L 237.921803 295.468221 
L 238.477893 296.094863 
L 239.033983 296.288307 
L 239.590073 296.110848 
L 240.146164 295.63343 
L 240.980299 294.550037 
L 242.092479 293.033917 
L 242.926614 292.335665 
L 243.76075 291.815044 
L 244.038795 291.501238 
L 244.31684 291.008705 
L 244.594885 290.25003 
L 244.87293 289.123141 
L 245.42902 285.299269 
L 245.98511 278.558118 
L 246.5412 267.984489 
L 247.09729 252.929182 
L 247.931426 221.696277 
L 249.043606 167.956373 
L 250.433831 101.574377 
L 250.989921 82.531737 
L 251.546012 70.661618 
L 251.824057 67.773756 
L 252.102102 67.003449 
L 252.380147 68.346374 
L 252.658192 71.744331 
L 253.214282 84.219258 
L 253.770372 103.021672 
L 254.882553 151.594782 
L 256.272778 211.07339 
L 257.106913 236.312013 
L 257.663003 247.102308 
L 258.219093 253.02886 
L 258.497139 254.304261 
L 258.775184 254.577021 
L 259.053229 253.965484 
L 259.331274 252.604514 
L 259.887364 248.226315 
L 261.555634 232.664155 
L 262.111724 230.2125 
L 262.38977 229.920968 
L 262.667815 230.306475 
L 262.94586 231.381035 
L 263.50195 235.539882 
L 264.05804 242.092415 
L 264.892175 255.11619 
L 266.838491 287.123304 
L 267.672626 296.214896 
L 268.228716 299.75784 
L 268.506761 300.728947 
L 268.784806 301.168275 
L 269.062851 301.087599 
L 269.340896 300.506655 
L 269.618942 299.452919 
L 270.175032 296.07453 
L 271.009167 288.554974 
L 272.955482 268.467255 
L 273.511573 264.618712 
L 274.067663 262.475933 
L 274.345708 262.125157 
L 274.623753 262.273156 
L 274.901798 262.916874 
L 275.457888 265.611644 
L 276.013978 269.927362 
L 276.848113 278.443188 
L 278.516384 296.209397 
L 279.350519 302.582304 
L 279.906609 305.443839 
L 280.462699 307.217439 
L 281.01879 308.026951 
L 281.296835 308.123064 
L 281.57488 308.043755 
L 282.13097 307.446529 
L 282.68706 306.399566 
L 283.521195 304.305375 
L 285.467511 299.148681 
L 286.023601 298.115051 
L 286.579691 297.429187 
L 287.135781 297.08092 
L 287.969916 296.951441 
L 288.526007 296.796495 
L 288.804052 296.573557 
L 289.082097 296.186752 
L 289.360142 295.583623 
L 289.916232 293.524056 
L 290.472322 290.026539 
L 291.028412 284.837749 
L 291.862547 273.799734 
L 292.974728 254.558677 
L 294.364953 230.767285 
L 294.921043 224.02112 
L 295.477133 219.928219 
L 295.755179 219.010631 
L 296.033224 218.87804 
L 296.311269 219.528577 
L 296.589314 220.938317 
L 297.145404 225.832583 
L 297.979539 237.111196 
L 299.64781 262.554615 
L 300.2039 268.515267 
L 300.75999 272.108277 
L 301.038035 272.928421 
L 301.31608 273.091515 
L 301.594125 272.618712 
L 301.87217 271.550851 
L 302.42826 267.883094 
L 303.262396 259.869171 
L 304.374576 248.871432 
L 304.930666 245.028284 
L 305.208711 243.789327 
L 305.486756 243.067857 
L 305.764801 242.888087 
L 306.042846 243.256079 
L 306.320891 244.160846 
L 306.876982 247.46055 
L 307.433072 252.420021 
L 308.545252 265.133536 
L 309.657432 277.606432 
L 310.491567 284.463965 
L 311.047658 287.274107 
L 311.325703 288.092376 
L 311.603748 288.508717 
L 311.881793 288.520594 
L 312.159838 288.128365 
L 312.437883 287.334469 
L 312.993973 284.561269 
L 313.550063 280.264329 
L 314.384199 271.18931 
L 315.218334 259.383375 
L 316.608559 235.8826 
L 317.998785 213.523267 
L 318.554875 206.94452 
L 319.110965 202.529291 
L 319.38901 201.226802 
L 319.667055 200.541942 
L 319.9451 200.459415 
L 320.223145 200.941493 
L 320.50119 201.927595 
L 321.05728 205.061068 
L 322.447506 214.078304 
L 322.725551 215.075125 
L 323.003596 215.563296 
L 323.281641 215.486245 
L 323.559686 214.819613 
L 323.837731 213.573472 
L 324.393821 209.559006 
L 326.062092 194.143385 
L 326.340137 192.714751 
L 326.618182 192.002359 
L 326.896227 192.10666 
L 327.174272 193.09553 
L 327.452317 195.001281 
L 328.008407 201.512282 
L 328.564497 211.207951 
L 329.676678 236.43061 
L 331.066903 267.377201 
L 331.901038 280.834726 
L 332.457128 287.186538 
L 333.013219 291.666009 
L 333.569309 294.634471 
L 334.125399 296.475619 
L 334.681489 297.506617 
L 335.237579 297.94126 
L 335.515624 297.972338 
L 335.793669 297.884836 
L 336.349759 297.327749 
L 336.90585 296.180995 
L 337.46194 294.354323 
L 338.01803 291.807102 
L 338.852165 286.734571 
L 341.632616 267.950804 
L 342.188706 265.92009 
L 342.744796 264.791167 
L 343.022841 264.529168 
L 343.300886 264.431596 
L 343.856976 264.578924 
L 344.691112 265.014131 
L 345.247202 264.973519 
L 345.525247 264.762922 
L 346.081337 263.898085 
L 346.637427 262.480788 
L 348.583743 256.729242 
L 348.861788 256.37051 
L 349.139833 256.239303 
L 349.417878 256.355955 
L 349.695923 256.731197 
L 350.252013 258.252108 
L 350.808103 260.6977 
L 351.920284 267.239599 
L 352.754419 271.956797 
L 353.310509 274.162917 
L 353.588554 274.821093 
L 353.866599 275.115813 
L 354.144644 275.002974 
L 354.422689 274.445199 
L 354.700734 273.412823 
L 355.256825 269.845941 
L 355.812915 264.23171 
L 356.64705 252.197941 
L 357.75923 231.236158 
L 359.427501 199.509576 
L 359.983591 191.96445 
L 360.539681 187.105516 
L 360.817726 185.829468 
L 361.095771 185.368699 
L 361.373816 185.734756 
L 361.651861 186.917345 
L 362.207951 191.564636 
L 362.764042 198.72091 
L 364.710357 227.540444 
L 364.988402 229.848706 
L 365.266447 231.198107 
L 365.544492 231.460177 
L 365.822537 230.536557 
L 366.100582 228.36429 
L 366.656673 220.220843 
L 367.212763 207.355509 
L 368.046898 181.602926 
L 369.437123 136.927735 
L 369.993213 124.576154 
L 370.549304 118.002783 
L 370.827349 117.200205 
L 371.105394 118.123967 
L 371.383439 120.76255 
L 371.939529 130.893437 
L 372.495619 146.575665 
L 373.607799 187.884825 
L 374.998025 238.358024 
L 375.554115 253.127679 
L 376.110205 263.507764 
L 376.666295 269.345742 
L 376.94434 270.641269 
L 377.222385 270.945108 
L 377.50043 270.348712 
L 377.778476 268.958062 
L 378.334566 264.270629 
L 379.168701 254.392593 
L 380.280881 240.940668 
L 380.836971 235.849551 
L 381.393062 232.57793 
L 381.671107 231.718973 
L 381.949152 231.397584 
L 382.227197 231.610338 
L 382.505242 232.340594 
L 383.061332 235.227562 
L 383.617422 239.696613 
L 385.007648 254.096332 
L 385.841783 261.629843 
L 386.397873 264.912558 
L 386.675918 265.867207 
L 386.953963 266.321631 
L 387.232008 266.263949 
L 387.510053 265.699233 
L 387.788098 264.649639 
L 388.344188 261.26613 
L 389.178324 253.989778 
L 390.290504 243.961146 
L 390.846594 240.503718 
L 391.124639 239.439681 
L 391.402684 238.89204 
L 391.680729 238.896819 
L 391.958774 239.473407 
L 392.236819 240.623654 
L 392.79291 244.565595 
L 393.349 250.403674 
L 394.46118 265.487691 
L 395.57336 280.206525 
L 396.12945 285.539651 
L 396.685541 288.694991 
L 396.963586 289.322257 
L 397.241631 289.27258 
L 397.519676 288.53366 
L 397.797721 287.110879 
L 398.353811 282.326766 
L 398.909901 275.325778 
L 400.022082 257.533492 
L 401.134262 240.881147 
L 401.690352 235.265642 
L 402.246442 232.326176 
L 402.524487 231.963271 
L 402.802532 232.352173 
L 403.080577 233.477251 
L 403.636668 237.775919 
L 404.192758 244.377015 
L 405.304938 261.709001 
L 406.695163 283.6227 
L 407.529299 293.610268 
L 408.085389 298.363199 
L 408.641479 301.499161 
L 409.197569 303.049675 
L 409.475614 303.259856 
L 409.753659 303.115837 
L 410.031704 302.637946 
L 410.587794 300.774732 
L 411.143885 297.889442 
L 411.97802 292.263075 
L 413.368245 282.386511 
L 413.924335 279.405839 
L 414.480425 277.490262 
L 414.75847 276.99095 
L 415.036516 276.804332 
L 415.314561 276.918605 
L 415.592606 277.307314 
L 416.148696 278.719093 
L 416.982831 281.240466 
L 417.260876 281.757169 
L 417.538921 281.896487 
L 417.816966 281.519171 
L 418.095011 280.483193 
L 418.373056 278.64623 
L 418.929147 272.027215 
L 419.485237 260.721181 
L 420.041327 244.146594 
L 420.875462 209.405298 
L 421.987642 149.052285 
L 423.377868 71.50552 
L 424.212003 37.952056 
L 424.768093 25.336102 
L 425.046138 22.444542 
L 425.324183 21.927273 
L 425.602228 23.785082 
L 425.880273 27.960116 
L 426.436364 42.723411 
L 426.436364 42.723411 
" clip-path="url(#p45a12e731e)" style="fill: none; stroke-dasharray: 11.1,4.8; stroke-dashoffset: 0; stroke: #000000; stroke-width: 3"/>
   </g>
   <g id="line2d_2">
    <path d="M 27.163636 224.446345 
L 28.275817 224.340539 
L 29.109952 224.482708 
L 29.944087 224.833569 
L 30.778222 225.43571 
L 31.612358 226.335182 
L 32.446493 227.615645 
L 33.280628 229.385168 
L 34.114763 231.747173 
L 34.392808 231.88529 
L 34.948898 231.709526 
L 35.504989 231.693158 
L 35.783034 232.120858 
L 37.173259 236.778162 
L 38.563484 241.429243 
L 39.39762 243.634862 
L 39.95371 244.697287 
L 40.5098 245.3503 
L 41.06589 245.543351 
L 41.343935 245.445386 
L 41.900025 244.834121 
L 42.456115 243.655888 
L 42.734161 242.828712 
L 43.012206 242.595953 
L 43.568296 247.294536 
L 44.958521 261.046187 
L 46.070701 270.798559 
L 46.904837 276.38115 
L 47.738972 280.655989 
L 48.573107 283.78931 
L 49.407242 285.949412 
L 49.963332 286.931927 
L 50.519423 287.622293 
L 51.075513 288.040324 
L 52.187693 289.746608 
L 53.021828 290.70448 
L 53.299873 290.81169 
L 53.577918 290.729891 
L 53.855964 290.476065 
L 54.412054 289.422552 
L 54.968144 287.641632 
L 55.524234 285.133406 
L 56.358369 280.025073 
L 57.192504 273.360066 
L 58.304685 262.181814 
L 59.416865 251.669861 
L 60.529045 244.088023 
L 61.641226 238.175354 
L 62.753406 233.457912 
L 64.143631 228.637332 
L 65.811902 223.746057 
L 67.202127 220.199413 
L 68.314307 217.857717 
L 69.148443 216.3918 
L 70.260623 211.21557 
L 71.094758 205.956317 
L 71.928893 200.744471 
L 72.206938 203.6077 
L 73.597164 222.913966 
L 74.709344 235.693752 
L 75.821524 246.125623 
L 76.933705 254.247847 
L 77.76784 258.859583 
L 78.601975 262.236955 
L 79.158065 263.832174 
L 79.714155 264.921394 
L 80.270246 265.526975 
L 80.826336 265.653842 
L 81.382426 265.33118 
L 81.938516 264.58593 
L 82.494606 263.442226 
L 83.884832 259.603994 
L 85.275057 255.102338 
L 87.221372 247.984862 
L 87.777463 244.818395 
L 88.055508 240.584406 
L 88.333553 241.840357 
L 89.167688 252.52953 
L 90.001823 259.93579 
L 90.557913 263.130173 
L 91.114004 264.968917 
L 91.392049 265.41207 
L 91.670094 265.551451 
L 91.948139 265.367149 
L 92.226184 264.898474 
L 92.782274 263.120074 
L 93.338364 260.279947 
L 94.172499 254.186972 
L 95.006635 246.139339 
L 96.118815 232.878081 
L 97.50904 213.154815 
L 99.177311 188.932317 
L 100.011446 191.396874 
L 100.845581 193.207509 
L 101.957761 194.991086 
L 103.347987 196.699714 
L 103.904077 197.479124 
L 105.572347 200.171661 
L 107.240618 204.005907 
L 108.074753 206.393656 
L 108.908888 209.342645 
L 109.743024 213.015212 
L 110.577159 217.569802 
L 111.411294 223.164477 
L 112.245429 229.966859 
L 113.35761 241.204304 
L 114.46979 255.299234 
L 115.58197 272.628967 
L 116.69415 291.431573 
L 117.250241 291.096211 
L 117.806331 290.386152 
L 118.362421 289.313967 
L 119.196556 287.103973 
L 120.308736 283.247165 
L 122.533097 274.483664 
L 124.201367 272.048165 
L 125.035503 271.090768 
L 125.869638 270.416785 
L 126.425728 270.252024 
L 126.981818 270.324392 
L 127.537908 270.665725 
L 128.093998 271.261339 
L 128.928134 272.677924 
L 129.762269 274.765204 
L 130.596404 277.53653 
L 131.430539 281.036454 
L 132.54272 286.880782 
L 133.6549 294.050484 
L 135.045125 304.753281 
L 135.879261 311.961489 
L 136.157306 312.245696 
L 136.435351 310.378763 
L 138.937756 276.308545 
L 139.771892 265.821801 
L 140.049937 264.429015 
L 140.606027 263.554589 
L 141.440162 262.601557 
L 142.274297 261.18819 
L 143.108433 259.362996 
L 144.220613 256.340775 
L 145.610838 251.816764 
L 147.557154 244.498992 
L 156.176551 210.733643 
L 156.454596 210.057958 
L 157.288731 209.656992 
L 159.513092 200.891308 
L 160.625272 197.268108 
L 161.737453 194.448638 
L 162.571588 192.958766 
L 163.127678 192.271188 
L 163.683768 191.858169 
L 164.239858 191.705421 
L 164.795948 191.811843 
L 165.073993 191.967087 
L 165.352038 191.880438 
L 165.908129 191.16555 
L 166.464219 190.740699 
L 167.020309 190.606158 
L 167.576399 190.726089 
L 168.132489 191.083669 
L 168.688579 191.664663 
L 168.966624 192.887201 
L 170.078805 208.321676 
L 171.190985 220.827227 
L 172.303165 230.79894 
L 173.415346 238.616431 
L 174.249481 243.313655 
L 174.805571 245.457369 
L 175.917751 246.972298 
L 177.029932 248.889437 
L 178.142112 251.33176 
L 179.254292 254.362635 
L 179.810382 256.125965 
L 180.366473 256.854755 
L 183.703013 260.229545 
L 184.259104 260.527099 
L 185.371284 261.026733 
L 186.205419 261.763162 
L 186.761509 262.024034 
L 187.317599 262.044787 
L 187.87369 261.763066 
L 188.42978 261.168255 
L 188.98587 260.188499 
L 189.54196 258.7945 
L 190.376095 255.790208 
L 191.21023 251.608769 
L 192.044366 246.139121 
L 193.156546 233.303285 
L 196.215042 194.581017 
L 196.493087 193.992143 
L 198.161357 206.194593 
L 199.273538 218.208315 
L 200.941808 235.042154 
L 202.053988 243.986723 
L 202.888124 249.008382 
L 203.444214 251.384497 
L 204.000304 252.883867 
L 204.278349 253.260674 
L 204.556394 253.388183 
L 204.834439 253.262594 
L 205.112484 252.997993 
L 205.390529 252.394529 
L 205.946619 250.235614 
L 206.50271 246.666025 
L 207.0588 241.53858 
L 207.61489 234.715142 
L 208.449025 220.94245 
L 209.28316 202.329217 
L 210.117296 184.450262 
L 210.395341 179.229039 
L 211.229476 180.964382 
L 212.063611 182.288968 
L 212.897746 183.289103 
L 213.731881 184.027553 
L 214.844062 184.686204 
L 215.956242 185.071923 
L 219.570828 186.037938 
L 220.404963 186.668056 
L 221.239099 187.689622 
L 222.073234 189.245077 
L 222.907369 191.519776 
L 223.185414 193.0293 
L 224.853684 216.981069 
L 225.68782 225.647766 
L 226.521955 232.014295 
L 226.8 233.663826 
L 228.190225 237.778263 
L 230.414586 238.948949 
L 231.248721 239.180925 
L 232.082856 239.195763 
L 232.916992 238.93884 
L 233.751127 238.400318 
L 234.585262 237.561301 
L 235.697442 236.017237 
L 236.809623 234.054597 
L 238.477893 230.569576 
L 241.536389 223.994274 
L 242.092479 223.614092 
L 243.204659 225.451997 
L 244.31684 227.536331 
L 248.765561 239.871898 
L 250.711876 243.57326 
L 251.824057 245.243817 
L 252.658192 246.116737 
L 253.214282 246.454882 
L 253.492327 247.165769 
L 254.604507 252.426199 
L 255.438643 255.513225 
L 256.272778 257.662678 
L 256.828868 258.459224 
L 257.106913 258.642293 
L 257.384958 258.669442 
L 257.663003 258.531001 
L 257.941048 258.216765 
L 258.497139 257.0165 
L 259.053229 254.932656 
L 259.609319 251.90994 
L 260.165409 247.823182 
L 260.999544 239.415483 
L 261.555634 232.113008 
L 262.38977 228.803185 
L 263.223905 224.714608 
L 263.779995 221.723547 
L 264.336085 221.591593 
L 264.61413 222.64355 
L 267.394581 240.646099 
L 271.287212 265.50165 
L 272.677437 272.838578 
L 273.789618 277.468648 
L 274.345708 279.100937 
L 274.901798 279.400987 
L 275.179843 279.4013 
L 275.735933 279.057309 
L 276.292023 278.192432 
L 276.848113 276.751785 
L 277.404204 274.744294 
L 277.960294 272.013964 
L 278.794429 266.263186 
L 279.350519 259.769094 
L 280.184654 246.445047 
L 281.296835 223.66064 
L 282.409015 195.941047 
L 282.965105 180.489093 
L 283.24315 181.766303 
L 284.077285 193.256886 
L 284.911421 202.353597 
L 285.745556 209.51651 
L 286.579691 215.160098 
L 287.413826 219.653004 
L 288.526007 224.391512 
L 289.916232 229.106064 
L 292.140593 235.567981 
L 296.311269 247.65542 
L 297.423449 257.223167 
L 298.535629 268.885952 
L 299.091719 274.199219 
L 299.369764 274.246045 
L 299.64781 273.91093 
L 299.925855 273.242151 
L 300.481945 272.485474 
L 301.038035 270.975283 
L 301.594125 268.638598 
L 302.42826 263.905562 
L 303.818486 254.12101 
L 305.208711 244.53437 
L 306.042846 240.259552 
L 306.598936 238.545735 
L 306.876982 238.131675 
L 307.155027 238.044071 
L 307.433072 238.332901 
L 307.711117 239.041843 
L 307.989162 240.171942 
L 308.545252 243.99809 
L 309.101342 250.118133 
L 309.657432 258.87336 
L 310.213522 270.643462 
L 310.491567 277.820727 
L 310.769613 279.47822 
L 312.159838 282.402708 
L 312.715928 283.196506 
L 313.272018 283.537637 
L 313.828108 283.513075 
L 314.384199 283.92567 
L 314.940289 284.142698 
L 315.496379 284.156338 
L 316.052469 283.954708 
L 316.608559 283.526381 
L 316.886604 283.205397 
L 317.998785 280.55673 
L 318.554875 279.500367 
L 319.38901 277.258001 
L 320.223145 274.084517 
L 321.05728 269.725818 
L 321.891416 263.905567 
L 322.725551 256.321658 
L 323.559686 246.625857 
L 324.393821 234.434229 
L 325.227956 219.321875 
L 326.062092 200.876769 
L 326.896227 182.047681 
L 327.452317 188.04308 
L 328.564497 200.012589 
L 329.676678 210.057048 
L 331.066903 220.508293 
L 332.179083 224.820778 
L 334.681489 233.874584 
L 336.071714 240.8493 
L 337.183895 247.535903 
L 338.296075 255.462394 
L 339.408255 264.923935 
L 342.466751 294.561015 
L 343.022841 301.51866 
L 344.413067 304.789564 
L 344.969157 305.704919 
L 345.803292 306.061954 
L 346.359382 306.102601 
L 346.915472 305.989258 
L 347.749607 305.547039 
L 348.583743 304.840406 
L 349.973968 303.611047 
L 350.808103 303.232198 
L 351.364193 303.213395 
L 351.920284 303.416692 
L 352.476374 303.868217 
L 353.032464 304.585428 
L 353.588554 305.578956 
L 354.422689 307.606154 
L 355.256825 310.28687 
L 355.53487 311.323126 
L 355.812915 309.761265 
L 357.20314 285.687565 
L 358.31532 270.38465 
L 359.427501 258.468605 
L 360.261636 251.60845 
L 361.095771 246.461834 
L 361.929906 242.898246 
L 362.485996 241.398901 
L 363.042087 240.553357 
L 363.320132 240.371688 
L 363.598177 240.348308 
L 363.876222 240.482854 
L 364.432312 241.25025 
L 364.988402 242.638763 
L 365.544492 244.644131 
L 365.822537 245.878345 
L 366.378628 249.883854 
L 367.212763 257.948229 
L 368.046898 268.215763 
L 369.159078 284.821879 
L 369.715168 292.86442 
L 370.549304 287.024578 
L 371.383439 282.477879 
L 372.495619 277.806379 
L 373.607799 274.126842 
L 375.27607 269.492569 
L 375.83216 268.162734 
L 377.50043 267.179769 
L 381.393062 265.300677 
L 383.061332 264.666821 
L 383.339377 263.711288 
L 384.173512 257.148803 
L 385.007648 248.471002 
L 385.841783 237.067937 
L 386.953963 216.651607 
L 388.066143 195.203224 
L 388.900279 200.549449 
L 390.568549 213.088171 
L 394.739225 245.431614 
L 396.407496 256.393319 
L 397.797721 264.038835 
L 398.909901 268.9978 
L 399.744036 271.792693 
L 400.300127 272.518983 
L 400.856217 273.087685 
L 401.412307 273.599529 
L 401.968397 273.860922 
L 402.524487 273.842584 
L 403.080577 273.495996 
L 403.636668 272.771662 
L 404.192758 271.617889 
L 404.748848 269.945427 
L 405.582983 264.695167 
L 406.417118 257.969523 
L 407.807344 266.050736 
L 409.197569 272.99805 
L 410.031704 276.455691 
L 410.587794 277.398488 
L 411.143885 278.011151 
L 411.699975 278.322972 
L 412.256065 278.361366 
L 412.812155 278.157125 
L 413.368245 277.735355 
L 414.20238 276.75471 
L 415.036516 275.420197 
L 416.148696 273.228965 
L 417.816966 269.368536 
L 418.095011 268.237663 
L 418.929147 262.909978 
L 419.763282 255.917525 
L 421.431552 239.70261 
L 422.543733 228.806246 
L 422.821778 226.691651 
L 424.768093 218.616778 
L 426.436364 211.865703 
L 426.436364 211.865703 
" clip-path="url(#p45a12e731e)" style="fill: none; stroke: #ff00ff; stroke-width: 3; stroke-linecap: square"/>
   </g>
   <g id="patch_3">
    <path d="M 7.2 331.2 
L 7.2 7.2 
" style="fill: none; stroke: #000000; stroke-width: 0.8; stroke-linejoin: miter; stroke-linecap: square"/>
   </g>
   <g id="patch_4">
    <path d="M 446.4 331.2 
L 446.4 7.2 
" style="fill: none; stroke: #000000; stroke-width: 0.8; stroke-linejoin: miter; stroke-linecap: square"/>
   </g>
   <g id="patch_5">
    <path d="M 7.2 331.2 
L 446.4 331.2 
" style="fill: none; stroke: #000000; stroke-width: 0.8; stroke-linejoin: miter; stroke-linecap: square"/>
   </g>
   <g id="patch_6">
    <path d="M 7.2 7.2 
L 446.4 7.2 
" style="fill: none; stroke: #000000; stroke-width: 0.8; stroke-linejoin: miter; stroke-linecap: square"/>
   </g>
  </g>
 </g>
 <defs>
  <clipPath id="p45a12e731e">
   <rect x="7.2" y="7.2" width="439.2" height="324"/>
  </clipPath>
 </defs>
</svg>
