<?xml version="1.0" encoding="utf-8" standalone="no"?>
<!DOCTYPE svg PUBLIC "-//W3C//DTD SVG 1.1//EN"
  "http://www.w3.org/Graphics/SVG/1.1/DTD/svg11.dtd">
<svg xmlns:xlink="http://www.w3.org/1999/xlink" width="453.6pt" height="338.4pt" viewBox="0 0 453.6 338.4" xmlns="http://www.w3.org/2000/svg" version="1.1">
 <metadata>
  <rdf:RDF xmlns:dc="http://purl.org/dc/elements/1.1/" xmlns:cc="http://creativecommons.org/ns#" xmlns:rdf="http://www.w3.org/1999/02/22-rdf-syntax-ns#">
   <cc:Work>
    <dc:type rdf:resource="http://purl.org/dc/dcmitype/StillImage"/>
    <dc:date>2025-05-15T16:55:38.604783</dc:date>
    <dc:format>image/svg+xml</dc:format>
    <dc:creator>
     <cc:Agent>
      <dc:title>Matplotlib v3.10.1, https://matplotlib.org/</dc:title>
     </cc:Agent>
    </dc:creator>
   </cc:Work>
  </rdf:RDF>
 </metadata>
 <defs>
  <style type="text/css">*{stroke-linejoin: round; stroke-linecap: butt}</style>
 </defs>
 <g id="figure_1">
  <g id="patch_1">
   <path d="M 0 338.4 
L 453.6 338.4 
L 453.6 0 
L 0 0 
z
" style="fill: #ffffff"/>
  </g>
  <g id="axes_1">
   <g id="patch_2">
    <path d="M 7.2 331.2 
L 446.4 331.2 
L 446.4 7.2 
L 7.2 7.2 
z
" style="fill: #ffffff"/>
   </g>
   <g id="matplotlib.axis_1"/>
   <g id="matplotlib.axis_2"/>
   <g id="line2d_1">
    <path d="M 27.163636 261.924779 
L 28.553862 250.487905 
L 29.387997 245.690763 
L 29.944087 243.788762 
L 30.222132 243.268129 
L 30.500177 243.037499 
L 30.778222 243.089683 
L 31.056267 243.409292 
L 31.612358 244.747827 
L 32.446493 247.915617 
L 33.280628 251.202775 
L 33.836718 252.634963 
L 34.114763 252.934817 
L 34.392808 252.879942 
L 34.670853 252.419123 
L 34.948898 251.508574 
L 35.504989 248.209545 
L 36.061079 242.838794 
L 36.617169 235.457147 
L 37.451304 221.287286 
L 39.675665 180.249957 
L 40.231755 173.256895 
L 40.787845 168.773986 
L 41.06589 167.569673 
L 41.343935 167.078645 
L 41.62198 167.298918 
L 41.900025 168.214367 
L 42.456115 172.001929 
L 43.012206 178.076795 
L 43.846341 190.383362 
L 47.738972 254.370651 
L 48.851152 267.613752 
L 49.963332 278.570622 
L 51.075513 287.333865 
L 51.909648 292.306626 
L 52.743783 295.738715 
L 53.299873 297.120317 
L 53.855964 297.763424 
L 54.134009 297.807762 
L 54.412054 297.667727 
L 54.690099 297.343605 
L 55.246189 296.143625 
L 55.802279 294.207107 
L 56.358369 291.532995 
L 57.192504 286.153275 
L 58.02664 279.209056 
L 59.13882 267.818666 
L 60.529045 250.813462 
L 61.919271 231.124833 
L 63.309496 208.372897 
L 64.699721 181.428706 
L 65.811902 155.475026 
L 67.202127 116.530431 
L 69.148443 60.715581 
L 69.704533 49.748423 
L 70.260623 43.394458 
L 70.538668 42.296703 
L 70.816713 42.721775 
L 71.094758 44.731042 
L 71.372803 48.348537 
L 71.928893 60.304409 
L 72.484984 77.986908 
L 73.319119 112.568369 
L 75.543479 212.889904 
L 76.377615 240.880539 
L 77.21175 261.168445 
L 78.045885 274.837247 
L 78.88002 283.70748 
L 79.714155 289.508095 
L 80.548291 293.484748 
L 81.382426 296.353007 
L 82.216561 298.488991 
L 83.328741 300.649959 
L 85.553102 304.249382 
L 86.943327 306.205396 
L 87.777463 307.003641 
L 88.333553 307.294138 
L 88.889643 307.364353 
L 89.445733 307.208398 
L 90.001823 306.833731 
L 90.835958 305.899166 
L 91.670094 304.584325 
L 92.782274 302.354397 
L 93.894454 299.642505 
L 95.28468 295.564746 
L 96.39686 291.648023 
L 97.50904 286.920553 
L 98.343175 282.410275 
L 99.177311 276.411967 
L 100.011446 268.109213 
L 100.845581 256.740503 
L 101.679716 242.082131 
L 104.460167 187.618433 
L 105.016257 181.393982 
L 105.294302 179.44349 
L 105.572347 178.321145 
L 105.850393 178.039803 
L 106.128438 178.589965 
L 106.406483 179.940594 
L 106.962573 184.822709 
L 107.518663 192.094537 
L 108.630843 210.780301 
L 110.299114 239.20841 
L 111.411294 254.602894 
L 112.523474 267.296535 
L 113.9137 280.71699 
L 115.303925 291.948479 
L 116.416105 299.088109 
L 117.250241 303.29582 
L 118.084376 306.577724 
L 118.918511 309.057077 
L 119.752646 310.892258 
L 120.586781 312.234325 
L 121.420917 313.208102 
L 122.533097 314.098577 
L 123.645277 314.65921 
L 124.757458 314.974386 
L 126.147683 315.102956 
L 127.259863 314.992452 
L 128.093998 314.713015 
L 128.928134 314.138938 
L 129.484224 313.505178 
L 130.040314 312.590923 
L 130.596404 311.315402 
L 131.152494 309.589569 
L 131.708584 307.316652 
L 132.54272 302.644043 
L 133.376855 296.095619 
L 134.21099 287.258531 
L 135.045125 275.796291 
L 136.157306 256.350552 
L 139.493847 191.959888 
L 140.049937 186.159576 
L 140.606027 183.185552 
L 140.884072 182.826127 
L 141.162117 183.224983 
L 141.440162 184.368074 
L 141.996252 188.759941 
L 142.552342 195.624525 
L 143.386478 209.37147 
L 146.723018 270.489172 
L 147.835199 284.91425 
L 148.669334 293.267652 
L 149.503469 299.759127 
L 150.337604 304.642183 
L 151.17174 308.175509 
L 152.005875 310.62231 
L 152.84001 312.240923 
L 153.674145 313.271086 
L 154.508281 313.914378 
L 155.620461 314.421869 
L 157.010686 314.774415 
L 158.678957 314.984098 
L 160.069182 314.982231 
L 161.181362 314.799889 
L 162.293543 314.359789 
L 163.127678 313.77435 
L 163.961813 312.866279 
L 164.795948 311.488865 
L 165.352038 310.203075 
L 165.908129 308.518815 
L 166.464219 306.315456 
L 167.020309 303.435556 
L 167.576399 299.682773 
L 168.132489 294.829153 
L 168.966624 284.954015 
L 169.80076 271.324522 
L 170.634895 253.590866 
L 171.747075 224.393563 
L 173.693391 170.647765 
L 174.527526 154.084555 
L 175.083616 147.298482 
L 175.361661 145.391272 
L 175.639706 144.525636 
L 175.917751 144.714909 
L 176.195796 145.951644 
L 176.473841 148.208744 
L 177.029932 155.580763 
L 177.586022 166.266212 
L 178.420157 186.803363 
L 181.200608 260.841057 
L 182.034743 277.205485 
L 182.868878 289.661778 
L 183.703013 298.56666 
L 184.537149 304.576756 
L 185.093239 307.339757 
L 185.649329 309.352009 
L 186.205419 310.797471 
L 187.039554 312.230606 
L 187.87369 313.113235 
L 188.707825 313.689365 
L 189.820005 314.205865 
L 191.21023 314.613462 
L 192.600456 314.787081 
L 193.990681 314.714691 
L 195.380907 314.394993 
L 196.493087 313.90478 
L 197.327222 313.289026 
L 197.883312 312.678627 
L 198.439402 311.830949 
L 198.995493 310.658198 
L 199.551583 309.049532 
L 200.107673 306.864517 
L 200.663763 303.924833 
L 201.219853 300.002139 
L 201.775943 294.801608 
L 202.332033 287.952633 
L 202.888124 279.018786 
L 203.722259 260.68676 
L 204.556394 235.229555 
L 205.390529 202.103297 
L 206.50271 148.183975 
L 208.17098 65.836183 
L 209.005115 36.700497 
L 209.561205 25.479275 
L 209.83925 22.714971 
L 210.117296 21.927273 
L 210.395341 23.121419 
L 210.673386 26.258208 
L 211.229476 37.997795 
L 211.785566 56.061819 
L 212.619701 91.598802 
L 215.122107 207.01548 
L 215.956242 235.974621 
L 216.790377 258.382504 
L 217.624513 275.025741 
L 218.458648 287.061628 
L 219.292783 295.605405 
L 220.126918 301.563202 
L 220.961053 305.647104 
L 221.795189 308.422558 
L 222.629324 310.327629 
L 223.463459 311.681732 
L 224.575639 312.976434 
L 225.68782 313.8999 
L 226.8 314.540952 
L 227.91218 314.940571 
L 229.302406 315.162687 
L 230.692631 315.117575 
L 231.804811 314.829909 
L 232.638947 314.37116 
L 233.473082 313.584592 
L 234.029172 312.802673 
L 234.585262 311.74282 
L 235.141352 310.321051 
L 235.697442 308.424457 
L 236.253533 305.900435 
L 236.809623 302.548974 
L 237.365713 298.127444 
L 237.921803 292.367729 
L 238.755938 280.655086 
L 239.590073 264.737689 
L 240.702254 237.276755 
L 243.204659 170.974084 
L 243.76075 161.446697 
L 244.31684 155.571708 
L 244.594885 154.134145 
L 244.87293 153.723332 
L 245.150975 154.331498 
L 245.42902 155.929181 
L 245.98511 161.875603 
L 246.5412 170.961947 
L 247.375336 188.711318 
L 249.877741 246.367383 
L 250.989921 265.632674 
L 251.824057 276.79059 
L 252.658192 285.60024 
L 253.492327 292.565128 
L 254.326462 298.093993 
L 255.160598 302.478254 
L 255.994733 305.924993 
L 256.828868 308.590056 
L 257.663003 310.605594 
L 258.497139 312.091641 
L 259.331274 313.157882 
L 260.165409 313.900938 
L 261.277589 314.529333 
L 262.38977 314.879711 
L 263.779995 315.068005 
L 265.17022 315.027455 
L 266.282401 314.770295 
L 267.116536 314.362962 
L 267.950671 313.671956 
L 268.784806 312.570354 
L 269.618942 310.891587 
L 270.453077 308.416383 
L 271.009167 306.169159 
L 271.565257 303.282238 
L 272.121347 299.567742 
L 272.677437 294.798497 
L 273.511573 285.111575 
L 274.345708 271.689694 
L 275.179843 254.155124 
L 276.292023 225.343051 
L 278.238339 173.846847 
L 278.794429 163.230743 
L 279.350519 155.980467 
L 279.628564 153.789596 
L 279.906609 152.609247 
L 280.184654 152.454501 
L 280.462699 153.319829 
L 280.740744 155.179605 
L 281.296835 161.688008 
L 281.852925 171.435685 
L 282.68706 190.501047 
L 285.745556 266.853494 
L 286.579691 281.83941 
L 287.413826 293.251452 
L 288.247962 301.409837 
L 289.082097 306.874186 
L 289.638187 309.341983 
L 290.194277 311.095229 
L 290.750367 312.308013 
L 291.306457 313.128674 
L 292.140593 313.879276 
L 292.974728 314.297939 
L 294.086908 314.611613 
L 295.477133 314.80278 
L 296.867359 314.764401 
L 297.979539 314.511921 
L 299.369764 313.916633 
L 301.038035 312.917317 
L 302.42826 311.833382 
L 303.262396 310.897875 
L 304.096531 309.503278 
L 304.652621 308.172041 
L 305.208711 306.39439 
L 305.764801 304.044024 
L 306.320891 300.975824 
L 307.155027 294.677464 
L 307.989162 285.855924 
L 308.823297 274.053396 
L 309.657432 259.111959 
L 310.769613 235.110021 
L 312.715928 192.050458 
L 313.550063 179.076285 
L 314.106153 173.867371 
L 314.384199 172.447834 
L 314.662244 171.851617 
L 314.940289 172.083547 
L 315.218334 173.131789 
L 315.496379 174.968926 
L 316.052469 180.828012 
L 316.608559 189.17844 
L 317.720739 210.811258 
L 319.9451 256.529631 
L 321.05728 274.345899 
L 321.891416 284.72447 
L 322.725551 292.743292 
L 323.559686 298.742752 
L 324.393821 303.107943 
L 325.227956 306.229606 
L 326.062092 308.465703 
L 326.896227 310.111964 
L 328.008407 311.746186 
L 329.120587 312.979827 
L 330.232768 313.903733 
L 331.344948 314.535542 
L 332.457128 314.897386 
L 333.569309 315.029896 
L 334.681489 314.951758 
L 335.515624 314.717619 
L 336.349759 314.238038 
L 336.90585 313.702756 
L 337.46194 312.913039 
L 338.01803 311.776916 
L 338.57412 310.182348 
L 339.13021 307.994618 
L 339.6863 305.049869 
L 340.24239 301.141913 
L 340.798481 296.006668 
L 341.354571 289.32007 
L 341.910661 280.711823 
L 342.744796 263.358135 
L 343.578931 239.761113 
L 344.413067 209.724305 
L 346.081337 137.66902 
L 347.193517 94.196223 
L 347.749607 78.574977 
L 348.305698 68.85753 
L 348.583743 66.494299 
L 348.861788 65.874134 
L 349.139833 67.007751 
L 349.417878 69.866511 
L 349.973968 80.455175 
L 350.530058 96.698571 
L 351.364193 128.613506 
L 353.866599 231.064193 
L 354.700734 255.813323 
L 355.53487 274.198826 
L 356.369005 287.090787 
L 357.20314 295.788443 
L 358.037275 301.558546 
L 358.87141 305.404443 
L 359.705546 308.042121 
L 360.539681 309.934877 
L 361.373816 311.355415 
L 362.485996 312.760853 
L 363.598177 313.755773 
L 364.710357 314.428795 
L 365.822537 314.850711 
L 367.212763 315.126664 
L 368.602988 315.200571 
L 369.993213 315.048434 
L 370.827349 314.784029 
L 371.661484 314.316 
L 372.495619 313.561471 
L 373.329754 312.41643 
L 374.16389 310.745936 
L 374.998025 308.354568 
L 375.83216 304.927206 
L 376.38825 301.835899 
L 377.222385 295.539471 
L 378.056521 286.6759 
L 378.890656 274.763032 
L 380.002836 254.228183 
L 382.783287 198.437042 
L 383.339377 191.273724 
L 383.895467 186.621759 
L 384.173512 185.300616 
L 384.451557 184.656083 
L 384.729602 184.67719 
L 385.007648 185.341202 
L 385.285693 186.615109 
L 385.841783 190.8201 
L 386.397873 196.893083 
L 387.232008 208.539677 
L 388.900279 236.11147 
L 390.846594 267.47867 
L 391.958774 282.470573 
L 393.070955 294.317676 
L 393.90509 300.973378 
L 394.739225 305.84238 
L 395.57336 309.207135 
L 396.407496 311.4217 
L 397.241631 312.828924 
L 398.075766 313.707139 
L 398.909901 314.252208 
L 400.022082 314.66206 
L 401.134262 314.838759 
L 402.524487 314.829277 
L 404.192758 314.56443 
L 405.582983 314.125393 
L 406.417118 313.683441 
L 407.251253 312.974711 
L 407.807344 312.260666 
L 408.363434 311.260604 
L 408.919524 309.87056 
L 409.475614 307.961866 
L 410.031704 305.377911 
L 410.587794 301.935345 
L 411.143885 297.434157 
L 411.97802 288.268037 
L 412.812155 275.75104 
L 413.64629 259.760385 
L 415.036516 227.288605 
L 416.426741 194.660205 
L 417.260876 179.730412 
L 417.816966 173.146399 
L 418.373056 169.791047 
L 418.651102 169.394357 
L 418.929147 169.856986 
L 419.207192 171.162501 
L 419.763282 176.161805 
L 420.319372 183.97996 
L 421.153507 199.698795 
L 424.490048 270.115826 
L 425.324183 282.45831 
L 426.158319 291.841128 
L 426.436364 294.348719 
L 426.436364 294.348719 
" clip-path="url(#p7ef5d3e261)" style="fill: none; stroke-dasharray: 11.1,4.8; stroke-dashoffset: 0; stroke: #000000; stroke-width: 3"/>
   </g>
   <g id="line2d_2">
    <path d="M 27.163636 252.136202 
L 28.275817 240.913696 
L 29.944087 221.049518 
L 32.168448 194.973454 
L 33.280628 184.39691 
L 34.114763 178.21159 
L 34.948898 173.828308 
L 35.504989 172.010659 
L 36.061079 171.123677 
L 36.339124 171.032884 
L 36.617169 171.175168 
L 36.895214 171.546558 
L 37.451304 172.94831 
L 38.007394 175.158986 
L 38.84153 179.737139 
L 39.95371 187.426507 
L 42.734161 207.630852 
L 44.124386 215.911952 
L 45.514611 222.758297 
L 46.904837 228.346544 
L 48.017017 231.885844 
L 48.851152 233.929723 
L 49.685287 235.420625 
L 50.519423 236.391143 
L 51.353558 236.948091 
L 52.743783 237.441909 
L 53.855964 237.9638 
L 54.690099 238.624962 
L 56.080324 240.138323 
L 56.914459 240.980525 
L 57.47055 241.332195 
L 58.02664 241.396422 
L 58.58273 241.067484 
L 59.13882 240.243359 
L 59.69491 238.826954 
L 60.251 236.730488 
L 60.80709 233.881793 
L 61.641226 228.088816 
L 62.475361 220.441627 
L 63.587541 207.69234 
L 66.924082 166.691369 
L 67.758217 160.433607 
L 68.314307 157.894951 
L 68.592352 157.150938 
L 68.870398 156.763799 
L 69.148443 156.732987 
L 69.426488 157.057132 
L 69.704533 157.728428 
L 70.260623 160.073035 
L 70.816713 163.658348 
L 71.650848 171.028091 
L 72.763029 183.555119 
L 76.377615 227.220596 
L 78.045885 243.399355 
L 79.992201 259.763261 
L 81.382426 269.909119 
L 82.494606 276.752177 
L 83.606787 282.209917 
L 84.440922 285.278543 
L 85.275057 287.38254 
L 85.831147 288.219538 
L 86.387237 288.597501 
L 86.943327 288.52944 
L 87.499418 288.05233 
L 88.055508 287.222727 
L 88.889643 285.483821 
L 93.060319 275.694975 
L 94.172499 273.089765 
L 95.006635 270.365003 
L 95.562725 267.882631 
L 96.118815 264.670899 
L 96.95295 258.171021 
L 97.787085 249.398842 
L 98.899266 234.332885 
L 102.513852 180.785029 
L 103.347987 173.424325 
L 103.904077 170.27682 
L 104.460167 168.564754 
L 104.738212 168.238281 
L 105.016257 168.254577 
L 105.294302 168.603646 
L 105.572347 169.273847 
L 106.128438 171.526701 
L 106.684528 174.906052 
L 107.518663 181.831139 
L 108.630843 193.883111 
L 110.021069 211.963328 
L 113.079564 252.880216 
L 114.46979 267.885233 
L 115.58197 277.65121 
L 116.69415 285.758666 
L 118.084376 294.188761 
L 119.196556 299.749482 
L 120.030691 303.075698 
L 120.864827 305.453445 
L 121.420917 306.40931 
L 121.977007 306.813703 
L 122.255052 306.803843 
L 122.533097 306.653753 
L 123.089187 305.946989 
L 123.645277 304.744763 
L 124.479413 302.187758 
L 125.869638 296.755626 
L 129.484224 281.285686 
L 130.318359 276.494587 
L 131.152494 270.443472 
L 131.98663 262.851196 
L 133.09881 250.261722 
L 134.489035 231.520342 
L 136.713396 201.327214 
L 137.825576 189.591307 
L 138.659711 183.180716 
L 139.215801 180.152351 
L 139.771892 178.134354 
L 140.327982 177.122891 
L 140.606027 176.992384 
L 140.884072 177.110018 
L 141.162117 177.477985 
L 141.718207 178.96738 
L 142.274297 181.471937 
L 142.830387 185.003979 
L 143.664523 192.21966 
L 144.498658 201.603428 
L 145.610838 216.81838 
L 148.947379 265.23045 
L 150.059559 277.601363 
L 151.17174 287.517703 
L 152.28392 295.436451 
L 153.3961 301.750908 
L 154.230236 305.520274 
L 155.064371 308.440864 
L 155.898506 310.467762 
L 156.454596 311.301336 
L 157.010686 311.710112 
L 157.566776 311.687653 
L 158.122867 311.231495 
L 158.678957 310.3478 
L 159.235047 309.052727 
L 160.069182 306.41287 
L 161.181362 301.876348 
L 162.849633 293.875708 
L 164.239858 286.271108 
L 165.073993 280.67081 
L 165.908129 273.607 
L 166.742264 264.561071 
L 167.576399 253.294606 
L 168.688579 235.23315 
L 171.46903 187.546743 
L 172.303165 176.627977 
L 173.137301 168.390151 
L 173.693391 164.441938 
L 174.249481 161.695266 
L 174.805571 160.094809 
L 175.083616 159.707944 
L 175.361661 159.590447 
L 175.639706 159.739989 
L 175.917751 160.155338 
L 176.473841 161.789483 
L 177.029932 164.526569 
L 177.586022 168.41576 
L 178.420157 176.50062 
L 179.254292 187.286277 
L 180.366473 205.302816 
L 183.981058 269.107726 
L 185.093239 283.134695 
L 185.927374 291.223116 
L 186.761509 297.486082 
L 187.595644 302.225417 
L 188.42978 305.711446 
L 189.263915 308.155885 
L 189.820005 309.284298 
L 190.376095 310.054604 
L 190.932185 310.494192 
L 191.488276 310.619222 
L 192.044366 310.439689 
L 192.600456 309.955046 
L 193.156546 309.164609 
L 193.990681 307.405298 
L 194.824816 304.994822 
L 195.936997 300.95828 
L 197.605267 293.817918 
L 198.717447 288.324847 
L 199.551583 283.296562 
L 200.385718 276.839136 
L 201.219853 268.355497 
L 202.053988 257.490687 
L 203.166169 239.536046 
L 206.224664 186.335342 
L 207.0588 176.053774 
L 207.892935 168.857128 
L 208.449025 165.78412 
L 209.005115 164.012484 
L 209.28316 163.583303 
L 209.561205 163.440609 
L 209.83925 163.573307 
L 210.117296 163.970716 
L 210.673386 165.527214 
L 211.229476 168.073812 
L 211.785566 171.612291 
L 212.619701 178.855772 
L 213.453836 188.533831 
L 214.287972 200.619627 
L 215.678197 224.949664 
L 217.902558 265.100765 
L 219.014738 280.786117 
L 219.848873 289.730707 
L 220.683008 296.453666 
L 221.517144 301.407181 
L 222.351279 305.089039 
L 223.185414 307.901033 
L 224.019549 310.087744 
L 224.853684 311.754619 
L 225.68782 312.913022 
L 226.24391 313.38397 
L 226.8 313.592809 
L 227.35609 313.518038 
L 227.91218 313.138294 
L 228.46827 312.436323 
L 229.024361 311.406098 
L 229.858496 309.261018 
L 230.692631 306.483396 
L 232.082856 300.853245 
L 233.473082 294.251618 
L 234.307217 289.470104 
L 235.141352 283.474725 
L 235.975487 275.662656 
L 236.809623 265.584174 
L 237.921803 248.585947 
L 241.814434 183.619071 
L 242.648569 175.11133 
L 243.204659 171.09218 
L 243.76075 168.365228 
L 244.31684 166.871176 
L 244.594885 166.565792 
L 244.87293 166.544566 
L 245.150975 166.802293 
L 245.42902 167.334729 
L 245.98511 169.217563 
L 246.5412 172.197587 
L 247.09729 176.302052 
L 247.931426 184.632726 
L 248.765561 195.571485 
L 249.877741 213.733732 
L 253.492327 277.775281 
L 254.326462 288.285955 
L 255.160598 296.456268 
L 255.994733 302.584893 
L 256.828868 307.105119 
L 257.663003 310.428733 
L 258.497139 312.859067 
L 259.331274 314.587428 
L 260.165409 315.725838 
L 260.721499 316.190213 
L 261.277589 316.433151 
L 261.833679 316.4578 
L 262.38977 316.260465 
L 262.94586 315.830326 
L 263.50195 315.154922 
L 264.336085 313.656351 
L 265.17022 311.572347 
L 266.282401 307.965397 
L 267.394581 303.532541 
L 268.506761 298.110407 
L 269.340896 292.940933 
L 270.175032 286.224821 
L 271.009167 277.384034 
L 271.843302 266.043756 
L 272.955482 247.185838 
L 276.292023 185.10833 
L 277.126159 174.321989 
L 277.960294 166.876243 
L 278.516384 163.810766 
L 279.072474 162.214555 
L 279.350519 161.944777 
L 279.628564 162.014481 
L 279.906609 162.414903 
L 280.184654 163.13769 
L 280.740744 165.525845 
L 281.296835 169.144298 
L 282.13097 176.847772 
L 282.965105 187.241496 
L 284.077285 204.949913 
L 285.745556 236.907419 
L 287.413826 268.227729 
L 288.526007 284.983704 
L 289.360142 294.638209 
L 290.194277 301.891823 
L 291.028412 307.104023 
L 291.862547 310.711932 
L 292.696683 313.109673 
L 293.252773 314.189745 
L 293.808863 314.93321 
L 294.364953 315.390601 
L 294.921043 315.599303 
L 295.477133 315.583965 
L 296.033224 315.356228 
L 296.589314 314.915545 
L 297.145404 314.248631 
L 297.979539 312.776764 
L 298.813674 310.668932 
L 299.64781 307.882409 
L 300.75999 303.183199 
L 302.150215 296.111719 
L 303.540441 287.944966 
L 304.652621 280.023069 
L 305.486756 272.559931 
L 306.320891 263.206017 
L 307.155027 251.612942 
L 308.267207 232.737769 
L 311.881793 166.007748 
L 312.715928 156.155908 
L 313.272018 151.758932 
L 313.828108 149.221919 
L 314.106153 148.659219 
L 314.384199 148.563359 
L 314.662244 148.928039 
L 314.940289 149.741482 
L 315.496379 152.663579 
L 316.052469 157.205853 
L 316.886604 166.737245 
L 317.720739 179.055572 
L 318.83292 198.803074 
L 322.725551 272.932964 
L 323.837731 287.98824 
L 324.671866 296.411899 
L 325.506002 302.554218 
L 326.340137 306.769197 
L 326.896227 308.713381 
L 327.452317 310.107327 
L 328.008407 311.061685 
L 328.564497 311.671768 
L 329.120587 312.020289 
L 329.676678 312.171474 
L 330.510813 312.128474 
L 331.344948 311.823501 
L 332.179083 311.23574 
L 333.013219 310.267414 
L 333.847354 308.795821 
L 334.681489 306.736604 
L 335.515624 304.100308 
L 336.627805 299.876154 
L 338.01803 293.818055 
L 339.13021 288.101082 
L 339.964345 282.684836 
L 340.798481 275.605961 
L 341.632616 266.260127 
L 342.466751 254.300044 
L 343.578931 234.50064 
L 346.915472 169.550472 
L 347.749607 158.72743 
L 348.305698 153.795964 
L 348.861788 150.841685 
L 349.139833 150.11794 
L 349.417878 149.894996 
L 349.695923 150.164911 
L 349.973968 150.916319 
L 350.530058 153.803632 
L 351.086148 158.416295 
L 351.920284 168.199526 
L 352.754419 180.850351 
L 354.144644 206.313868 
L 356.64705 254.14297 
L 357.75923 271.260339 
L 358.593365 281.468779 
L 359.427501 289.520225 
L 360.261636 295.768402 
L 361.095771 300.636737 
L 361.929906 304.478546 
L 362.764042 307.516223 
L 363.598177 309.850011 
L 364.432312 311.507573 
L 364.988402 312.23707 
L 365.544492 312.66584 
L 366.100582 312.796347 
L 366.656673 312.631467 
L 367.212763 312.175993 
L 367.768853 311.435815 
L 368.602988 309.821937 
L 369.437123 307.674803 
L 370.827349 303.284126 
L 373.607799 293.47556 
L 374.441935 289.785348 
L 375.27607 284.864152 
L 376.110205 277.975492 
L 376.94434 268.481895 
L 377.778476 256.069626 
L 378.890656 235.361192 
L 382.227197 168.420553 
L 383.061332 157.611205 
L 383.617422 152.772997 
L 384.173512 149.953745 
L 384.451557 149.308605 
L 384.729602 149.167827 
L 385.007648 149.52429 
L 385.285693 150.365533 
L 385.841783 153.442376 
L 386.397873 158.263192 
L 387.232008 168.407543 
L 388.066143 181.493985 
L 389.456369 207.841197 
L 391.958774 257.377298 
L 393.070955 275.094615 
L 393.90509 285.6057 
L 394.739225 293.78738 
L 395.57336 299.959416 
L 396.407496 304.539759 
L 397.241631 307.902266 
L 398.075766 310.314112 
L 398.909901 311.920046 
L 399.465991 312.576826 
L 400.022082 312.91042 
L 400.578172 312.924252 
L 401.134262 312.621059 
L 401.690352 312.003856 
L 402.246442 311.074832 
L 403.080577 309.114488 
L 403.914713 306.509278 
L 405.026893 302.163929 
L 406.417118 295.693083 
L 408.085389 286.851063 
L 409.197569 279.96254 
L 410.031704 273.73778 
L 410.865839 266.10182 
L 411.699975 256.648074 
L 412.812155 240.92027 
L 414.20238 217.15129 
L 416.148696 183.134703 
L 416.982831 171.367299 
L 417.816966 162.6525 
L 418.373056 158.803981 
L 418.929147 156.59084 
L 419.207192 156.092914 
L 419.485237 155.988974 
L 419.763282 156.267517 
L 420.041327 156.913205 
L 420.597417 159.240557 
L 421.153507 162.828609 
L 421.987642 170.268329 
L 422.821778 179.808897 
L 423.933958 195.223376 
L 425.324183 217.733162 
L 426.436364 237.030805 
L 426.436364 237.030805 
" clip-path="url(#p7ef5d3e261)" style="fill: none; stroke: #ff00ff; stroke-width: 3; stroke-linecap: square"/>
   </g>
   <g id="patch_3">
    <path d="M 7.2 331.2 
L 7.2 7.2 
" style="fill: none; stroke: #000000; stroke-width: 0.8; stroke-linejoin: miter; stroke-linecap: square"/>
   </g>
   <g id="patch_4">
    <path d="M 446.4 331.2 
L 446.4 7.2 
" style="fill: none; stroke: #000000; stroke-width: 0.8; stroke-linejoin: miter; stroke-linecap: square"/>
   </g>
   <g id="patch_5">
    <path d="M 7.2 331.2 
L 446.4 331.2 
" style="fill: none; stroke: #000000; stroke-width: 0.8; stroke-linejoin: miter; stroke-linecap: square"/>
   </g>
   <g id="patch_6">
    <path d="M 7.2 7.2 
L 446.4 7.2 
" style="fill: none; stroke: #000000; stroke-width: 0.8; stroke-linejoin: miter; stroke-linecap: square"/>
   </g>
  </g>
 </g>
 <defs>
  <clipPath id="p7ef5d3e261">
   <rect x="7.2" y="7.2" width="439.2" height="324"/>
  </clipPath>
 </defs>
</svg>
