<?xml version="1.0" encoding="utf-8" standalone="no"?>
<!DOCTYPE svg PUBLIC "-//W3C//DTD SVG 1.1//EN"
  "http://www.w3.org/Graphics/SVG/1.1/DTD/svg11.dtd">
<svg xmlns:xlink="http://www.w3.org/1999/xlink" width="453.6pt" height="338.4pt" viewBox="0 0 453.6 338.4" xmlns="http://www.w3.org/2000/svg" version="1.1">
 <metadata>
  <rdf:RDF xmlns:dc="http://purl.org/dc/elements/1.1/" xmlns:cc="http://creativecommons.org/ns#" xmlns:rdf="http://www.w3.org/1999/02/22-rdf-syntax-ns#">
   <cc:Work>
    <dc:type rdf:resource="http://purl.org/dc/dcmitype/StillImage"/>
    <dc:date>2025-05-15T02:51:39.709361</dc:date>
    <dc:format>image/svg+xml</dc:format>
    <dc:creator>
     <cc:Agent>
      <dc:title>Matplotlib v3.10.1, https://matplotlib.org/</dc:title>
     </cc:Agent>
    </dc:creator>
   </cc:Work>
  </rdf:RDF>
 </metadata>
 <defs>
  <style type="text/css">*{stroke-linejoin: round; stroke-linecap: butt}</style>
 </defs>
 <g id="figure_1">
  <g id="patch_1">
   <path d="M 0 338.4 
L 453.6 338.4 
L 453.6 0 
L 0 0 
z
" style="fill: #ffffff"/>
  </g>
  <g id="axes_1">
   <g id="patch_2">
    <path d="M 7.2 331.2 
L 446.4 331.2 
L 446.4 7.2 
L 7.2 7.2 
z
" style="fill: #ffffff"/>
   </g>
   <g id="matplotlib.axis_1"/>
   <g id="matplotlib.axis_2"/>
   <g id="line2d_1">
    <path d="M 27.163636 291.971915 
L 29.293091 257.433561 
L 31.422545 226.475388 
L 33.552 198.531983 
L 35.947636 169.981167 
L 39.674182 128.838558 
L 42.069818 101.381927 
L 43.666909 82.564372 
L 44.199273 78.920286 
L 44.731636 77.023277 
L 44.997818 76.702506 
L 45.264 76.717622 
L 45.530182 77.111638 
L 46.062545 78.77908 
L 46.594909 81.469949 
L 47.393455 86.886517 
L 49.789091 104.907912 
L 50.321455 107.628117 
L 50.853818 109.357235 
L 51.12 109.80032 
L 51.386182 109.878867 
L 51.652364 109.63106 
L 51.918545 108.99612 
L 52.450909 106.535028 
L 52.983273 102.288147 
L 53.515636 96.167801 
L 54.048 88.088823 
L 54.846545 73.077451 
L 55.911273 99.09222 
L 56.976 118.555671 
L 57.774545 129.576413 
L 58.573091 138.116471 
L 59.371636 144.597283 
L 60.170182 149.406614 
L 60.702545 151.712842 
L 61.767273 155.27171 
L 62.565818 157.319808 
L 63.364364 158.779542 
L 63.896727 159.422558 
L 64.429091 159.817961 
L 64.961455 159.993383 
L 65.76 159.923193 
L 67.623273 159.360163 
L 68.155636 159.480108 
L 68.688 159.924913 
L 69.220364 160.811927 
L 69.486545 161.468251 
L 69.752727 160.888981 
L 70.285091 156.265694 
L 70.817455 153.500246 
L 71.083636 152.764832 
L 71.349818 152.465251 
L 71.616 152.53509 
L 71.882182 153.011848 
L 72.148364 153.80792 
L 72.680727 156.399069 
L 73.479273 162.313937 
L 74.544 172.754391 
L 76.673455 194.958745 
L 76.939636 197.208064 
L 77.205818 198.409958 
L 78.536727 200.186882 
L 80.932364 203.484793 
L 81.730909 204.29477 
L 82.529455 204.793114 
L 83.061818 204.917746 
L 83.594182 204.846616 
L 84.126545 204.559527 
L 84.658909 204.039414 
L 85.191273 203.272845 
L 85.723636 202.250614 
L 86.522182 200.222732 
L 87.320727 197.627352 
L 88.385455 193.322351 
L 88.917818 190.857801 
L 91.047273 176.79891 
L 92.112 171.344043 
L 93.176727 167.075901 
L 93.709091 165.417044 
L 94.773818 148.726572 
L 95.838545 135.74518 
L 96.903273 125.600583 
L 97.968 117.62338 
L 99.032727 111.282052 
L 100.097455 106.232955 
L 101.162182 102.188462 
L 102.226909 98.98086 
L 103.291636 96.521998 
L 104.090182 95.167391 
L 104.888727 94.252534 
L 105.421091 93.920702 
L 105.953455 93.829322 
L 106.485818 94.008747 
L 107.018182 94.493985 
L 107.550545 95.324204 
L 108.082909 96.546472 
L 108.615273 98.22745 
L 109.147636 100.412961 
L 109.68 107.091386 
L 110.212364 113.92364 
L 110.478545 115.57242 
L 111.010909 116.190787 
L 111.543273 117.21402 
L 112.341818 119.336539 
L 113.672727 123.864777 
L 115.269818 129.36191 
L 116.334545 132.264314 
L 117.133091 133.879386 
L 117.931636 135.089646 
L 119.528727 137.207354 
L 120.061091 138.260713 
L 120.593455 139.760247 
L 121.125818 141.901692 
L 121.658182 144.908924 
L 122.190545 149.027592 
L 122.722909 154.502587 
L 123.255273 161.590829 
L 124.053818 175.86022 
L 124.32 180.995624 
L 125.650909 194.184198 
L 126.715636 202.776152 
L 126.981818 204.666384 
L 129.377455 208.471224 
L 139.492364 223.407481 
L 141.621818 226.2296 
L 143.485091 228.370957 
L 144.017455 228.7892 
L 144.283636 228.878649 
L 144.549818 227.558303 
L 146.679273 206.451462 
L 148.010182 195.776324 
L 149.074909 189.237541 
L 149.873455 185.69134 
L 150.405818 184.017726 
L 150.938182 182.938796 
L 151.470545 182.455253 
L 151.736727 182.432816 
L 152.002909 182.573591 
L 152.535273 183.300824 
L 153.067636 184.637735 
L 153.6 186.58333 
L 154.398545 190.612698 
L 155.197091 195.909813 
L 156.261818 204.829499 
L 157.060364 212.782888 
L 158.391273 193.538109 
L 158.923636 189.904144 
L 159.189818 188.988461 
L 159.456 188.639469 
L 159.722182 188.826838 
L 159.988364 189.48411 
L 160.254545 190.637215 
L 161.585455 191.40467 
L 162.916364 192.485452 
L 163.981091 193.667007 
L 165.045818 195.233413 
L 166.110545 197.285848 
L 166.909091 199.223376 
L 167.973818 202.467504 
L 169.038545 206.57591 
L 170.103273 211.691572 
L 171.168 217.936559 
L 172.498909 227.375024 
L 174.096 240.835159 
L 176.757818 264.334025 
L 177.290182 267.017094 
L 178.354909 270.727104 
L 178.887273 272.025619 
L 179.419636 272.811095 
L 179.685818 271.464507 
L 180.218182 261.986882 
L 181.815273 231.174361 
L 183.146182 209.293937 
L 184.477091 191.33283 
L 185.541818 179.94309 
L 186.606545 171.231735 
L 187.405091 166.419121 
L 188.203636 162.982357 
L 188.736 161.417548 
L 189.268364 160.388627 
L 189.800727 159.84965 
L 190.333091 159.763132 
L 190.865455 160.060536 
L 191.397818 160.697916 
L 192.196364 162.136899 
L 193.793455 165.734566 
L 194.059636 163.233692 
L 195.124364 150.144821 
L 195.922909 143.063426 
L 196.455273 139.647677 
L 196.987636 137.298594 
L 197.52 135.912965 
L 197.786182 135.595565 
L 198.052364 135.491175 
L 198.318545 135.589877 
L 198.584727 135.897305 
L 199.117091 137.06636 
L 199.649455 138.871636 
L 200.448 142.498447 
L 202.045091 151.359048 
L 203.109818 156.90102 
L 203.908364 160.079865 
L 204.440727 161.513862 
L 204.973091 162.239515 
L 205.239273 162.328982 
L 205.505455 162.220221 
L 205.771636 161.877979 
L 206.304 160.551304 
L 206.836364 158.325905 
L 207.368727 154.797954 
L 207.901091 151.272302 
L 208.433455 149.039583 
L 208.965818 147.93991 
L 209.232 147.764944 
L 209.498182 147.813417 
L 209.764364 148.06549 
L 210.562909 149.489374 
L 211.095273 150.759238 
L 211.893818 153.358339 
L 212.692364 156.843401 
L 213.490909 161.240827 
L 214.555636 168.573768 
L 215.620364 177.575942 
L 216.951273 191.053027 
L 218.282182 206.780063 
L 220.145455 231.869142 
L 223.605818 282.910223 
L 225.469091 308.913763 
L 225.735273 305.727487 
L 227.332364 229.253081 
L 228.130909 197.786544 
L 228.929455 174.92109 
L 229.728 159.037268 
L 230.526545 148.7087 
L 231.058909 144.244928 
L 231.591273 141.319543 
L 232.123636 139.593621 
L 232.656 138.802096 
L 232.922182 138.6808 
L 233.188364 138.705203 
L 233.720727 139.089896 
L 234.519273 140.174751 
L 236.116364 142.568585 
L 236.914909 143.337708 
L 237.447273 143.597435 
L 237.979636 143.664606 
L 238.512 143.545381 
L 239.310545 143.038654 
L 240.109091 142.309858 
L 241.972364 140.500069 
L 242.770909 140.032563 
L 243.303273 139.895501 
L 243.569455 139.492391 
L 244.101818 137.653494 
L 244.900364 133.861093 
L 245.698909 128.559729 
L 245.965091 126.349481 
L 246.231273 125.818492 
L 246.497455 127.396608 
L 248.893091 162.834392 
L 250.224 179.953606 
L 251.288727 191.118538 
L 252.087273 197.357416 
L 252.619636 200.210126 
L 253.152 201.86298 
L 253.418182 202.127544 
L 253.684364 202.023321 
L 253.950545 201.527892 
L 254.216727 200.571127 
L 254.749091 197.224576 
L 255.281455 191.691039 
L 255.813818 183.712361 
L 256.346182 172.958553 
L 257.144727 150.806429 
L 257.943273 120.225536 
L 258.741818 79.650346 
L 259.540364 32.372801 
L 261.936 120.39613 
L 262.734545 142.172427 
L 263.533091 158.592006 
L 264.065455 166.41812 
L 264.597818 171.670265 
L 265.130182 174.385457 
L 265.396364 174.805561 
L 265.662545 174.621659 
L 265.928727 173.818337 
L 266.194909 172.461272 
L 266.727273 167.964688 
L 267.259636 161.2824 
L 268.058182 147.519227 
L 268.856727 129.694198 
L 270.453818 89.435495 
L 270.986182 87.521773 
L 271.518545 86.382985 
L 272.050909 85.897326 
L 272.583273 85.919587 
L 273.115636 86.322995 
L 273.648 87.057374 
L 274.446545 88.554328 
L 275.777455 91.662474 
L 276.576 93.662186 
L 277.108364 96.018976 
L 278.173091 102.46069 
L 279.770182 113.986298 
L 281.367273 125.186659 
L 282.165818 129.425552 
L 282.698182 131.345541 
L 283.230545 132.343721 
L 283.496727 132.430116 
L 283.762909 132.234644 
L 284.029091 131.672843 
L 284.561455 129.528291 
L 285.093818 125.800251 
L 285.626182 120.304451 
L 285.892364 116.878168 
L 286.158545 117.441672 
L 287.489455 160.119542 
L 288.554182 188.193241 
L 289.618909 209.917791 
L 290.417455 221.688423 
L 290.949818 227.318493 
L 291.482182 231.221008 
L 292.014545 233.394264 
L 292.280727 233.84065 
L 292.546909 233.888956 
L 292.813091 233.549146 
L 293.079273 232.832814 
L 293.345455 231.753086 
L 293.877818 227.716029 
L 294.410182 221.644023 
L 295.208727 208.892381 
L 296.007273 191.960994 
L 297.072 163.487416 
L 298.136727 128.959977 
L 299.467636 78.944636 
L 300 57.193866 
L 300.266182 51.749541 
L 300.532364 52.49786 
L 301.597091 64.779582 
L 302.661818 74.200561 
L 303.726545 81.350706 
L 304.791273 86.75251 
L 305.856 90.745966 
L 306.920727 93.687555 
L 307.985455 95.788322 
L 308.784 96.949617 
L 309.582545 97.818916 
L 310.114909 98.35066 
L 311.445818 100.156903 
L 312.510545 101.371218 
L 313.841455 102.603194 
L 315.438545 103.6976 
L 316.769455 104.342161 
L 318.100364 104.782999 
L 319.963636 105.142534 
L 322.625455 105.33704 
L 326.884364 105.527052 
L 327.416727 105.74238 
L 327.949091 106.142733 
L 328.481455 106.811136 
L 329.013818 107.863529 
L 329.546182 109.380778 
L 330.078545 111.518957 
L 330.610909 114.369394 
L 330.877091 116.119614 
L 331.143273 115.800266 
L 333.538909 100.912595 
L 334.071273 98.582508 
L 334.603636 97.033378 
L 334.869818 96.630882 
L 335.136 96.478318 
L 335.402182 96.63162 
L 335.668364 97.10046 
L 335.934545 97.900816 
L 336.466909 100.623408 
L 336.999273 104.994991 
L 337.531636 111.145131 
L 338.330182 123.970658 
L 339.128727 141.456166 
L 339.927273 163.852814 
L 340.992 201.431446 
L 342.056727 247.479674 
L 343.121455 299.764967 
L 343.387636 298.831664 
L 344.452364 263.31839 
L 345.517091 236.390875 
L 346.581818 215.733123 
L 347.646545 199.684395 
L 348.711273 187.063573 
L 349.776 176.909734 
L 350.840727 168.560952 
L 352.171636 159.937659 
L 353.502545 152.647292 
L 355.365818 143.712639 
L 359.358545 124.979565 
L 359.890909 122.108587 
L 360.955636 105.209705 
L 362.020364 84.428813 
L 362.286545 78.418475 
L 362.818909 102.18302 
L 363.617455 136.36295 
L 364.416 163.236466 
L 365.214545 183.87897 
L 366.013091 199.44268 
L 366.811636 210.814346 
L 367.610182 218.784597 
L 368.408727 224.055466 
L 368.941091 226.371253 
L 369.473455 227.950756 
L 370.005818 228.927464 
L 370.538182 229.446691 
L 371.070545 229.64743 
L 371.869091 229.614275 
L 372.667636 229.539046 
L 373.2 229.648299 
L 373.732364 230.013513 
L 374.264727 230.737315 
L 374.530909 231.260237 
L 374.797091 226.316732 
L 375.861818 191.080037 
L 376.394182 177.26287 
L 376.660364 173.121449 
L 378.257455 159.715414 
L 379.588364 149.04643 
L 380.386909 143.841748 
L 381.185455 140.108582 
L 381.717818 138.524303 
L 382.250182 137.758849 
L 382.516364 137.700317 
L 382.782545 137.863538 
L 383.048727 138.250776 
L 383.581091 139.698256 
L 384.113455 142.030608 
L 384.912 147.110622 
L 385.710545 153.913275 
L 386.775273 165.193359 
L 388.372364 185.169365 
L 390.768 215.425125 
L 391.832727 226.512572 
L 392.365091 230.603773 
L 392.897455 233.162486 
L 393.163636 233.929336 
L 393.696 234.500819 
L 393.962182 234.565057 
L 394.228364 234.502267 
L 394.494545 234.298009 
L 395.026909 233.343702 
L 395.559273 231.735661 
L 396.091636 229.455961 
L 396.890182 224.754776 
L 397.688727 218.692603 
L 398.753455 208.922956 
L 403.012364 166.991087 
L 403.810909 161.532243 
L 404.609455 157.381764 
L 405.408 154.644301 
L 405.940364 153.526177 
L 406.472727 152.959952 
L 406.738909 152.848645 
L 407.271273 152.935408 
L 407.803636 153.379723 
L 408.868364 154.847375 
L 409.666909 156.064218 
L 409.933091 157.281728 
L 410.465455 162.575016 
L 411.530182 176.93634 
L 411.796364 177.201791 
L 412.062545 177.190783 
L 412.594909 177.550099 
L 413.127273 178.295758 
L 413.925818 179.920881 
L 415.256727 183.382505 
L 417.918545 190.500127 
L 418.717091 192.132273 
L 419.515636 193.229215 
L 420.048 193.549626 
L 420.314182 193.551592 
L 420.580364 193.429383 
L 420.846545 193.166882 
L 421.378909 192.148653 
L 421.911273 190.328067 
L 422.443636 187.455649 
L 422.976 183.322278 
L 423.508364 177.562494 
L 424.040727 169.820781 
L 424.573091 159.561709 
L 425.371636 138.123177 
L 426.170182 107.161138 
L 426.436364 94.171037 
L 426.436364 94.171037 
" clip-path="url(#pf4b6d4b6e5)" style="fill: none; stroke: #ffa500; stroke-width: 3; stroke-linecap: square"/>
   </g>
   <g id="line2d_2">
    <path d="M 27.163636 151.473655 
L 29.293091 137.225823 
L 30.624 129.860895 
L 31.688727 125.325634 
L 32.487273 122.950375 
L 33.019636 121.930127 
L 33.552 121.414429 
L 33.818182 121.368607 
L 34.084364 121.471768 
L 34.350545 121.72428 
L 34.882909 122.700128 
L 35.415273 124.341166 
L 35.947636 126.691759 
L 36.746182 131.641119 
L 37.544727 138.420598 
L 38.343273 147.157076 
L 39.141818 157.987736 
L 40.206545 175.834868 
L 41.271273 197.733138 
L 42.336 223.805227 
L 44.731636 286.067674 
L 46.062545 314.865265 
L 46.328727 315.813146 
L 46.861091 315.16003 
L 47.393455 313.957857 
L 47.925818 312.217365 
L 48.724364 308.496073 
L 49.522909 303.357366 
L 50.321455 296.755275 
L 51.386182 285.587887 
L 52.450909 271.692471 
L 53.781818 250.729894 
L 55.378909 221.336086 
L 58.573091 160.431377 
L 59.371636 148.700027 
L 60.170182 140.462727 
L 60.436364 138.742019 
L 60.968727 137.770998 
L 61.501091 137.251824 
L 62.565818 138.340384 
L 63.896727 139.378276 
L 66.026182 140.686517 
L 68.688 142.327256 
L 70.018909 143.401367 
L 71.083636 144.525179 
L 72.148364 146.033702 
L 72.946909 147.54665 
L 73.745455 149.530298 
L 74.544 152.153434 
L 75.342545 155.664321 
L 76.141091 160.387767 
L 76.939636 166.774565 
L 77.738182 175.779935 
L 78.802909 190.400679 
L 79.867636 207.728207 
L 81.198545 233.154086 
L 82.529455 262.880418 
L 83.594182 288.294964 
L 83.860364 286.258003 
L 85.191273 245.176883 
L 86.522182 209.955625 
L 87.853091 180.392021 
L 88.917818 161.075359 
L 89.716364 149.430017 
L 90.514909 140.571225 
L 91.047273 136.416602 
L 91.579636 133.843466 
L 91.845818 133.253048 
L 92.112 133.129101 
L 92.378182 133.49673 
L 92.644364 134.382532 
L 92.910545 135.840984 
L 93.442909 140.671295 
L 93.709091 144.044155 
L 94.507636 145.147338 
L 95.306182 146.60077 
L 96.104727 148.525974 
L 96.903273 150.900092 
L 97.968 154.993443 
L 99.032727 160.250407 
L 100.097455 166.804551 
L 101.162182 174.885012 
L 102.226909 184.631494 
L 103.557818 199.515468 
L 104.888727 217.681405 
L 105.953455 234.743552 
L 107.284364 259.434924 
L 108.881455 294.359178 
L 109.68 313.562058 
L 113.406545 260.388388 
L 114.737455 246.177174 
L 116.068364 234.337624 
L 117.399273 224.586719 
L 118.730182 216.65007 
L 120.061091 210.298279 
L 121.125818 206.196404 
L 122.190545 202.884553 
L 123.255273 200.229386 
L 124.32 198.18515 
L 125.384727 196.638074 
L 126.449455 195.519036 
L 126.981818 195.097967 
L 128.046545 185.212106 
L 129.377455 170.681241 
L 131.240727 147.529795 
L 134.168727 110.624815 
L 135.233455 99.47047 
L 136.032 92.787585 
L 136.830545 88.078798 
L 137.362909 86.327806 
L 137.629091 85.906157 
L 137.895273 85.862038 
L 138.161455 86.15923 
L 138.427636 86.874508 
L 138.693818 87.99976 
L 138.96 90.017222 
L 140.557091 123.374201 
L 141.089455 129.917865 
L 141.621818 133.929158 
L 141.888 135.049495 
L 142.154182 135.552868 
L 142.420364 135.493177 
L 142.686545 134.89449 
L 142.952727 133.777437 
L 143.751273 128.797687 
L 144.816 128.071822 
L 146.146909 126.924133 
L 147.477818 125.485309 
L 149.074909 123.368671 
L 150.672 120.856175 
L 152.535273 117.441391 
L 154.664727 113.038119 
L 158.391273 104.616513 
L 160.254545 100.401549 
L 161.053091 99.700492 
L 161.851636 98.723889 
L 162.650182 97.451358 
L 163.714909 95.250292 
L 164.779636 92.445308 
L 165.844364 89.043516 
L 167.175273 84.069893 
L 169.837091 73.654087 
L 170.369455 72.05076 
L 171.168 66.487667 
L 171.700364 64.389201 
L 171.966545 63.888706 
L 172.232727 63.780612 
L 172.498909 64.083335 
L 172.765091 64.855934 
L 173.297455 67.823876 
L 173.829818 72.829662 
L 174.362182 79.983318 
L 175.160727 94.929943 
L 175.959273 114.970977 
L 180.750545 252.652407 
L 181.282909 264.248192 
L 181.549091 265.627141 
L 185.275636 202.857999 
L 186.074182 194.207863 
L 186.606545 190.351592 
L 187.138909 188.262869 
L 187.405091 187.9214 
L 187.671273 188.141327 
L 187.937455 188.873889 
L 188.203636 190.176556 
L 188.736 194.543452 
L 189.268364 201.420035 
L 189.800727 210.93832 
L 190.599273 230.398777 
L 191.397818 256.341644 
L 191.930182 275.706494 
L 192.462545 272.170502 
L 192.994909 266.540322 
L 198.318545 195.303568 
L 200.714182 163.440839 
L 202.045091 148.306117 
L 202.843636 140.95964 
L 203.642182 135.596267 
L 204.174545 133.492551 
L 204.440727 132.992039 
L 204.706909 132.951748 
L 204.973091 133.378137 
L 205.239273 134.317415 
L 205.505455 135.818969 
L 206.037818 140.908709 
L 206.570182 149.121922 
L 207.102545 161.211789 
L 207.634909 173.755977 
L 210.562909 223.717279 
L 211.627636 236.026354 
L 212.426182 243.011259 
L 213.224727 248.13519 
L 213.757091 250.540857 
L 214.289455 252.17324 
L 214.821818 253.003717 
L 215.088 253.141556 
L 215.354182 253.093311 
L 215.620364 252.83264 
L 216.152727 251.754777 
L 216.685091 249.913211 
L 217.217455 247.261204 
L 218.016 241.785462 
L 218.814545 234.331594 
L 219.346909 228.229734 
L 219.879273 230.515193 
L 220.145455 231.074904 
L 220.411636 231.209034 
L 220.677818 230.936631 
L 220.944 230.23014 
L 221.476364 227.722454 
L 222.008727 223.875848 
L 222.807273 215.929534 
L 223.872 202.310463 
L 226.001455 173.156333 
L 226.533818 167.865231 
L 226.8 165.886024 
L 227.598545 165.285565 
L 228.929455 164.148322 
L 229.461818 163.866614 
L 229.994182 163.844159 
L 230.260364 163.939156 
L 230.792727 164.575273 
L 231.325091 165.855828 
L 231.857455 167.955453 
L 232.389818 171.230155 
L 232.922182 175.91137 
L 233.454545 182.35455 
L 233.986909 190.987059 
L 234.519273 202.284611 
L 235.317818 225.371748 
L 235.850182 243.9947 
L 236.116364 245.514714 
L 236.648727 240.632226 
L 237.447273 229.969667 
L 238.245818 215.708966 
L 239.576727 186.285348 
L 241.173818 150.729251 
L 241.706182 141.858381 
L 242.238545 136.069216 
L 242.504727 134.697474 
L 242.770909 134.556356 
L 243.037091 135.82018 
L 243.303273 138.672285 
L 243.835636 147.795545 
L 244.368 162.107808 
L 244.900364 182.397203 
L 245.965091 230.82773 
L 246.497455 240.864504 
L 247.029818 247.318117 
L 247.562182 250.556192 
L 247.828364 251.169099 
L 248.094545 251.189008 
L 248.360727 250.640656 
L 248.893091 248.224736 
L 249.425455 244.386732 
L 250.490182 234.378829 
L 251.821091 221.717216 
L 252.619636 216.104913 
L 253.152 213.707076 
L 253.418182 212.973382 
L 253.684364 212.582114 
L 253.950545 212.546413 
L 254.216727 212.841482 
L 254.482909 213.519031 
L 255.015273 215.937285 
L 255.547636 219.742161 
L 256.612364 228.426373 
L 258.475636 203.042683 
L 259.274182 197.71775 
L 259.806545 195.435609 
L 260.072727 194.543373 
L 261.403636 192.422689 
L 262.202182 191.328011 
L 262.734545 190.906967 
L 263.000727 190.796723 
L 263.533091 190.927122 
L 263.799273 191.138342 
L 264.331636 191.987328 
L 264.864 193.333017 
L 265.396364 195.269983 
L 266.194909 199.191959 
L 267.259636 206.107842 
L 270.453818 229.156662 
L 270.986182 231.310027 
L 271.252364 231.964341 
L 271.518545 232.308847 
L 271.784727 232.312482 
L 272.050909 231.919572 
L 272.317091 231.075738 
L 272.849455 228.02695 
L 273.381818 222.824666 
L 273.914182 215.282735 
L 274.446545 205.029412 
L 274.978909 191.298648 
L 276.043636 163.854482 
L 277.108364 142.772237 
L 277.906909 130.430543 
L 278.705455 121.613921 
L 279.237818 117.900189 
L 279.504 116.725938 
L 279.770182 116.05736 
L 280.036364 115.850389 
L 280.302545 116.179516 
L 280.568727 116.978959 
L 281.101091 120.203836 
L 281.633455 125.555481 
L 282.165818 133.064459 
L 282.964364 148.452659 
L 283.762909 168.78109 
L 284.827636 203.464595 
L 285.626182 233.800648 
L 285.892364 229.567979 
L 287.755636 172.385745 
L 289.086545 137.949405 
L 290.151273 116.020562 
L 290.949818 103.561188 
L 291.748364 94.946603 
L 292.280727 91.480766 
L 292.546909 90.480023 
L 292.813091 89.970944 
L 293.079273 89.947857 
L 293.345455 90.414292 
L 295.208727 90.893157 
L 296.273455 91.400938 
L 297.072 91.958683 
L 297.870545 92.743115 
L 298.669091 93.861327 
L 299.467636 95.437898 
L 300.266182 97.61579 
L 301.064727 100.652552 
L 301.863273 104.791128 
L 302.129455 106.171947 
L 303.460364 97.825183 
L 304.258909 94.180693 
L 304.791273 92.596169 
L 305.057455 92.118673 
L 305.323636 91.877556 
L 305.589818 91.900396 
L 305.856 92.227382 
L 306.122182 92.854773 
L 306.654545 95.087177 
L 307.186909 98.857229 
L 307.719273 104.300237 
L 308.251636 111.591675 
L 309.050182 126.350148 
L 310.114909 150.750196 
L 311.179636 158.748959 
L 312.510545 170.651702 
L 313.841455 184.644696 
L 315.438545 204.027669 
L 317.301818 229.728233 
L 319.697455 266.193911 
L 319.963636 266.119845 
L 320.229818 261.677444 
L 321.560727 229.596903 
L 322.625455 208.372215 
L 323.690182 191.0668 
L 324.754909 177.314687 
L 325.819636 166.841718 
L 327.682909 152.141373 
L 328.215273 150.187447 
L 328.481455 149.736391 
L 328.747636 149.609389 
L 329.013818 149.770784 
L 329.28 150.183778 
L 329.812364 151.669232 
L 330.610909 155.016038 
L 332.208 162.097503 
L 332.740364 163.451653 
L 333.006545 163.755342 
L 333.272727 163.778551 
L 333.538909 163.445649 
L 334.603636 152.139916 
L 335.402182 146.675068 
L 336.200727 143.190182 
L 337.265455 140.057826 
L 338.064 137.747578 
L 338.862545 134.602161 
L 339.394909 131.70764 
L 339.927273 127.965747 
L 340.725818 120.448975 
L 341.524364 110.275955 
L 342.322909 97.17446 
L 343.387636 76.943414 
L 347.646545 39.702863 
L 347.912727 37.188681 
L 348.178909 36.918402 
L 348.445091 37.020123 
L 348.711273 37.745092 
L 354.567273 99.855865 
L 358.293818 140.194484 
L 359.890909 155.324607 
L 360.423273 155.827542 
L 360.955636 156.795261 
L 361.754182 158.935828 
L 362.818909 162.72823 
L 364.948364 171.628367 
L 369.739636 192.34516 
L 371.336727 201.006813 
L 371.869091 204.16222 
L 372.135273 201.47122 
L 372.933818 187.842747 
L 373.732364 178.286163 
L 374.530909 171.894941 
L 375.063273 169.00028 
L 375.595636 167.048145 
L 376.128 165.820452 
L 376.394182 165.485759 
L 376.660364 163.976411 
L 377.192727 159.61027 
L 377.725091 157.116366 
L 377.991273 156.53743 
L 378.257455 156.392731 
L 378.523636 156.671841 
L 378.789818 157.362592 
L 379.322182 160.017154 
L 379.854545 164.116492 
L 380.653091 172.686756 
L 381.717818 187.320799 
L 383.847273 217.912103 
L 384.379636 223.413977 
L 384.912 227.052129 
L 385.178182 228.00827 
L 385.444364 228.245693 
L 385.710545 227.76509 
L 385.976727 226.373421 
L 386.242909 224.122303 
L 386.775273 216.366536 
L 387.041455 210.749528 
L 388.638545 153.97539 
L 389.437091 136.421202 
L 389.969455 128.346701 
L 390.501818 122.689314 
L 391.034182 118.904145 
L 391.566545 116.513331 
L 392.365091 114.236387 
L 392.897455 112.713012 
L 394.494545 106.346491 
L 395.026909 102.763044 
L 395.825455 95.312266 
L 396.624 84.702551 
L 397.422545 70.448609 
L 398.221091 51.96968 
L 398.487273 44.829155 
L 399.019636 56.015892 
L 402.213818 129.262243 
L 403.810909 160.563857 
L 405.141818 182.345456 
L 406.206545 196.67244 
L 407.271273 208.214648 
L 408.336 217.140162 
L 409.134545 222.205008 
L 409.666909 224.885737 
L 409.933091 228.939763 
L 410.731636 245.379575 
L 411.264 251.633213 
L 411.530182 253.208393 
L 411.796364 253.698696 
L 412.062545 253.066573 
L 412.328727 251.277738 
L 412.861091 244.112012 
L 413.127273 240.533717 
L 413.659636 247.309203 
L 413.925818 249.262339 
L 414.192 250.11589 
L 414.458182 249.996665 
L 414.724364 249.02762 
L 415.256727 245.006306 
L 416.055273 235.349235 
L 418.450909 201.902525 
L 419.249455 194.530285 
L 419.781818 191.435938 
L 420.314182 189.833225 
L 420.580364 189.590036 
L 420.846545 189.692389 
L 421.112727 190.128355 
L 421.645091 191.936529 
L 422.177455 194.818032 
L 422.976 200.595469 
L 425.105455 216.967935 
L 425.637818 219.708172 
L 426.170182 221.423113 
L 426.436364 221.863108 
L 426.436364 221.863108 
" clip-path="url(#pf4b6d4b6e5)" style="fill: none; stroke: #ff0000; stroke-width: 3; stroke-linecap: square"/>
   </g>
   <g id="line2d_3">
    <path d="M 27.163636 299.631268 
L 27.962182 289.737159 
L 29.026909 272.794575 
L 30.357818 247.421471 
L 33.552 183.943911 
L 34.616727 167.096214 
L 35.415273 157.257413 
L 36.213818 150.356655 
L 36.746182 147.56396 
L 37.012364 146.787025 
L 37.278545 146.382545 
L 37.544727 146.409178 
L 37.810909 146.858812 
L 38.077091 147.727462 
L 38.609455 150.798406 
L 39.141818 155.676716 
L 39.674182 162.362322 
L 40.472727 175.742944 
L 41.537455 196.580217 
L 42.336 189.08287 
L 42.868364 186.657163 
L 43.134545 186.177938 
L 43.400727 186.201551 
L 43.666909 186.619742 
L 44.199273 188.34196 
L 44.731636 191.028729 
L 45.530182 196.379584 
L 46.594909 205.15817 
L 48.724364 225.230192 
L 52.184727 257.694636 
L 54.048 273.119476 
L 55.378909 282.497043 
L 56.443636 288.464064 
L 57.242182 291.646519 
L 57.774545 292.960224 
L 58.040727 293.322182 
L 58.306909 293.460319 
L 58.573091 293.351951 
L 58.839273 292.972535 
L 59.105455 291.126205 
L 60.436364 261.950822 
L 60.968727 261.300068 
L 61.501091 260.223192 
L 62.033455 258.712321 
L 62.832 255.592109 
L 63.630545 251.458107 
L 64.429091 246.28633 
L 65.493818 237.807149 
L 66.558545 227.585041 
L 67.889455 212.640489 
L 69.752727 188.958844 
L 71.882182 162.286496 
L 72.946909 151.900957 
L 73.479273 148.227447 
L 74.011636 145.956823 
L 74.277818 145.450869 
L 74.544 145.450676 
L 74.810182 145.960001 
L 75.076364 147.109902 
L 75.608727 151.375586 
L 76.141091 158.843219 
L 76.673455 170.024724 
L 77.205818 182.112774 
L 77.738182 185.778085 
L 78.270545 187.012731 
L 78.536727 186.232828 
L 79.601455 180.684983 
L 80.932364 172.423016 
L 83.328 155.490373 
L 84.658909 146.734724 
L 85.457455 142.556418 
L 85.989818 140.495118 
L 86.522182 139.24383 
L 86.788364 138.95531 
L 87.054545 138.937016 
L 87.320727 139.232032 
L 87.586909 139.831245 
L 88.119273 142.134945 
L 88.651636 146.091691 
L 89.184 151.984402 
L 89.716364 160.117927 
L 90.514909 177.227046 
L 91.313455 201.311879 
L 92.112 233.670003 
L 92.644364 260.521359 
L 93.176727 266.648934 
L 93.709091 271.153941 
L 94.241455 273.904922 
L 94.773818 275.474343 
L 95.04 275.800289 
L 95.306182 275.827299 
L 95.572364 275.53439 
L 95.838545 274.919315 
L 96.370909 272.704564 
L 96.903273 269.135755 
L 97.435636 264.16412 
L 98.234182 253.967917 
L 99.032727 240.318513 
L 99.831273 223.010859 
L 100.896 193.939911 
L 101.960727 157.531571 
L 103.291636 108.131631 
L 104.090182 139.812934 
L 104.888727 162.266693 
L 105.421091 172.413747 
L 105.953455 179.202908 
L 106.485818 183.022145 
L 106.752 183.972896 
L 107.018182 184.35105 
L 107.284364 184.244527 
L 107.550545 183.662378 
L 108.082909 181.417958 
L 108.881455 176.180332 
L 110.212364 166.838997 
L 110.744727 164.899081 
L 111.277091 163.921846 
L 111.543273 163.771862 
L 111.809455 163.891912 
L 112.075636 164.363509 
L 112.341818 165.197292 
L 112.874182 168.102856 
L 113.406545 173.050434 
L 113.938909 180.425887 
L 114.205091 185.115178 
L 115.269818 209.757037 
L 116.068364 223.78603 
L 116.866909 234.31431 
L 117.665455 241.973903 
L 118.464 247.392354 
L 119.262545 251.36343 
L 121.125818 259.660202 
L 121.924364 264.933151 
L 122.722909 272.485168 
L 123.521455 283.132731 
L 124.32 297.687673 
L 125.118545 316.472727 
L 125.384727 316.251847 
L 126.715636 300.437709 
L 126.981818 297.656936 
L 128.046545 296.765635 
L 129.111273 295.5807 
L 130.176 294.039676 
L 131.240727 292.098444 
L 132.305455 289.71393 
L 133.636364 286.06235 
L 134.967273 281.618531 
L 136.298182 276.315697 
L 137.629091 270.050327 
L 138.96 262.597608 
L 140.024727 255.493825 
L 141.089455 246.958696 
L 142.154182 236.373169 
L 142.952727 226.530181 
L 143.751273 215.661406 
L 145.082182 204.53702 
L 145.880727 196.780841 
L 146.413091 194.776494 
L 146.945455 193.486537 
L 147.477818 192.805257 
L 147.744 192.691616 
L 148.010182 192.727378 
L 148.276364 192.910384 
L 148.808727 193.706781 
L 149.341091 195.053356 
L 150.139636 198.026178 
L 150.938182 202.011392 
L 152.002909 208.598419 
L 153.6 220.246851 
L 156.261818 240.110918 
L 157.592727 248.232593 
L 158.391273 252.059879 
L 159.189818 254.94707 
L 159.722182 256.303995 
L 160.254545 257.167439 
L 161.053091 257.500336 
L 161.851636 257.556345 
L 162.650182 257.379299 
L 163.182545 257.135438 
L 163.981091 256.587076 
L 164.779636 255.828935 
L 165.578182 254.858832 
L 165.844364 254.420061 
L 166.642909 251.862801 
L 168.506182 244.304516 
L 170.103273 238.678388 
L 172.232727 232.281056 
L 173.563636 228.866693 
L 174.894545 225.940457 
L 176.225455 223.491269 
L 177.024 222.358257 
L 178.354909 221.561711 
L 180.218182 220.167163 
L 181.815273 218.700722 
L 182.88 217.439795 
L 183.678545 216.231888 
L 184.477091 214.673655 
L 185.275636 212.620413 
L 186.074182 209.900103 
L 186.872727 206.315357 
L 187.671273 201.563478 
L 188.469818 195.435047 
L 189.268364 187.524092 
L 190.066909 177.52753 
L 190.865455 165.05175 
L 191.664 149.665253 
L 192.728727 123.835071 
L 193.793455 94.62887 
L 194.858182 109.768526 
L 195.922909 122.011975 
L 196.987636 132.074759 
L 198.318545 142.322042 
L 199.649455 150.557358 
L 200.980364 157.06468 
L 202.045091 161.090422 
L 202.843636 163.352285 
L 203.642182 164.954453 
L 204.174545 165.615342 
L 204.706909 165.948261 
L 205.239273 165.941853 
L 205.771636 165.598453 
L 206.304 164.936423 
L 207.102545 163.430604 
L 209.232 158.688232 
L 209.498182 158.430225 
L 209.764364 158.350624 
L 210.030545 158.514863 
L 210.296727 158.973978 
L 210.562909 159.733181 
L 211.095273 162.316991 
L 211.627636 165.504105 
L 212.692364 168.767255 
L 213.224727 169.910511 
L 213.757091 170.60746 
L 214.023273 170.772191 
L 214.289455 170.779819 
L 214.555636 170.651272 
L 215.088 169.899073 
L 215.620364 168.4537 
L 216.152727 166.257427 
L 216.685091 163.240996 
L 217.483636 157.046632 
L 218.282182 148.663106 
L 219.080727 137.86603 
L 219.879273 124.408284 
L 220.944 101.856982 
L 222.008727 73.253137 
L 223.073455 37.680959 
L 223.339636 27.587855 
L 223.605818 21.927273 
L 224.404364 65.359238 
L 225.202909 98.092302 
L 226.001455 121.254773 
L 226.533818 131.917841 
L 227.332364 142.912003 
L 227.598545 144.640875 
L 227.864727 145.487316 
L 228.130909 145.626133 
L 228.397091 145.221356 
L 228.929455 143.375752 
L 229.728 140.009143 
L 230.260364 138.729185 
L 230.526545 138.651639 
L 230.792727 139.081171 
L 231.058909 140.072258 
L 231.325091 141.661469 
L 231.857455 146.939905 
L 232.389818 155.258104 
L 232.922182 166.824197 
L 233.720727 190.377479 
L 234.253091 207.202484 
L 234.519273 201.814006 
L 235.317818 172.597113 
L 236.116364 149.781915 
L 236.914909 132.220652 
L 237.713455 118.974476 
L 238.512 109.230549 
L 239.310545 102.224383 
L 240.109091 97.388646 
L 240.907636 94.172617 
L 241.44 92.687391 
L 241.972364 91.602975 
L 242.770909 90.559237 
L 243.303273 90.162746 
L 244.101818 88.950485 
L 244.368 88.788792 
L 244.634182 88.789494 
L 244.900364 88.957982 
L 245.166545 89.314971 
L 245.698909 90.600775 
L 246.231273 92.599101 
L 246.763636 95.322202 
L 247.562182 100.816861 
L 248.360727 107.914372 
L 249.425455 119.705554 
L 250.490182 133.945679 
L 251.821091 154.550955 
L 253.684364 187.091119 
L 255.015273 209.777709 
L 255.813818 213.524482 
L 256.346182 215.191187 
L 256.878545 216.316633 
L 257.410909 216.970665 
L 257.943273 217.224336 
L 258.475636 217.179506 
L 259.008 216.882954 
L 259.806545 216.083845 
L 262.202182 213.01679 
L 263.533091 210.866716 
L 264.864 208.396206 
L 266.461091 204.975848 
L 268.324364 200.351867 
L 271.518545 192.080841 
L 272.317091 190.637812 
L 272.849455 190.066829 
L 273.115636 189.936202 
L 273.381818 189.933568 
L 273.648 190.080005 
L 273.914182 190.405069 
L 274.446545 191.671991 
L 274.978909 193.946055 
L 275.511273 197.533804 
L 276.043636 202.736317 
L 276.842182 212.760793 
L 277.906909 218.617435 
L 278.971636 225.790702 
L 280.036364 234.757009 
L 281.101091 245.917517 
L 281.899636 254.456201 
L 282.165818 254.234759 
L 282.432 251.674299 
L 289.352727 141.92613 
L 291.482182 112.970615 
L 294.942545 70.139636 
L 297.604364 41.220673 
L 298.402909 32.860479 
L 298.669091 33.756815 
L 299.467636 48.810463 
L 300.266182 60.577768 
L 301.330909 72.417827 
L 302.129455 79.234525 
L 303.194182 86.297644 
L 304.258909 91.732383 
L 305.589818 96.94535 
L 306.920727 101.040194 
L 308.517818 105.112864 
L 309.848727 108.126101 
L 310.381091 110.813598 
L 313.309091 127.876298 
L 314.107636 134.933535 
L 314.906182 144.421369 
L 315.704727 157.07632 
L 316.503273 173.592458 
L 317.301818 194.390379 
L 318.366545 229.206636 
L 319.165091 258.286844 
L 319.697455 264.816467 
L 320.762182 273.586701 
L 321.826909 280.522629 
L 322.891636 285.842211 
L 323.690182 288.894983 
L 324.488727 291.257239 
L 325.287273 293.004365 
L 326.085818 294.220135 
L 326.618182 294.757671 
L 327.416727 299.037853 
L 327.949091 300.957786 
L 328.481455 302.150074 
L 329.013818 302.633356 
L 329.28 302.624737 
L 329.546182 302.44279 
L 330.078545 301.600307 
L 330.610909 300.121676 
L 331.143273 298.048215 
L 331.941818 293.889462 
L 332.740364 288.557233 
L 333.272727 284.409483 
L 333.538909 279.254311 
L 334.337455 234.670017 
L 335.136 200.268835 
L 335.934545 174.936715 
L 336.733091 157.437189 
L 337.265455 149.609389 
L 337.797818 144.413469 
L 338.330182 141.629903 
L 338.596364 141.016961 
L 338.862545 140.882673 
L 339.128727 141.227584 
L 339.394909 142.001675 
L 339.927273 144.664874 
L 340.459636 148.62457 
L 341.258182 156.511394 
L 342.322909 169.550134 
L 343.121455 180.427266 
L 343.653818 194.179923 
L 344.984727 239.556754 
L 346.848 307.52184 
L 347.114182 303.031472 
L 348.178909 272.083541 
L 349.243636 246.180001 
L 350.308364 224.596831 
L 351.373091 206.674646 
L 352.437818 191.867261 
L 353.502545 179.703605 
L 354.567273 169.803392 
L 355.632 161.815988 
L 356.696727 155.460299 
L 357.761455 150.508534 
L 358.56 147.604234 
L 359.358545 145.319267 
L 359.890909 144.10497 
L 360.955636 143.80625 
L 362.286545 143.120062 
L 364.682182 141.801744 
L 365.746909 141.516823 
L 366.545455 141.495949 
L 367.344 141.704798 
L 368.142545 142.134699 
L 368.941091 142.77617 
L 370.005818 143.984586 
L 371.336727 145.899871 
L 374.530909 150.905446 
L 375.595636 152.087317 
L 376.394182 152.654455 
L 376.660364 154.146862 
L 377.725091 167.301113 
L 380.386909 201.855114 
L 381.185455 209.423064 
L 381.717818 213.160277 
L 382.250182 215.68307 
L 382.516364 216.453361 
L 382.782545 216.871718 
L 383.048727 216.937721 
L 383.314909 216.620628 
L 383.581091 215.932097 
L 384.113455 213.357908 
L 384.645818 209.155515 
L 385.178182 203.285056 
L 385.976727 191.286806 
L 386.775273 177.027431 
L 387.041455 177.420077 
L 388.106182 185.379909 
L 391.300364 210.99859 
L 392.365091 217.226092 
L 393.696 223.265688 
L 393.962182 223.858002 
L 394.228364 223.91786 
L 394.494545 223.447975 
L 394.760727 222.409012 
L 395.293091 218.514459 
L 395.825455 212.097815 
L 396.357818 203.0644 
L 397.156364 184.448189 
L 397.954909 159.440624 
L 398.753455 128.054565 
L 399.285818 107.261419 
L 399.818182 104.943762 
L 400.084364 104.585298 
L 400.350545 104.658244 
L 400.616727 105.159775 
L 401.149091 107.280362 
L 401.681455 110.621181 
L 402.48 117.374238 
L 403.810909 131.486641 
L 406.472727 160.681133 
L 407.537455 169.762828 
L 408.336 174.808695 
L 408.868364 177.15395 
L 409.400727 178.577773 
L 409.666909 178.906716 
L 409.933091 178.982191 
L 410.199273 178.831374 
L 410.465455 178.47506 
L 410.997818 177.068794 
L 411.530182 174.600811 
L 412.062545 170.894541 
L 412.594909 165.757425 
L 413.127273 158.984266 
L 414.192 142.910107 
L 414.458182 147.029705 
L 415.522909 170.836157 
L 416.321455 184.662454 
L 417.12 195.192472 
L 417.918545 202.500255 
L 418.450909 205.705645 
L 418.983273 207.703488 
L 419.249455 208.265605 
L 419.515636 208.561788 
L 419.781818 208.625175 
L 420.048 208.453536 
L 420.580364 207.49786 
L 421.112727 205.868883 
L 421.911273 202.595305 
L 423.508364 195.80897 
L 424.040727 194.426659 
L 424.306909 194.054799 
L 424.573091 193.974962 
L 424.839273 194.185181 
L 425.105455 194.780944 
L 425.371636 195.740746 
L 425.904 199.09992 
L 426.436364 204.633782 
L 426.436364 204.633782 
" clip-path="url(#pf4b6d4b6e5)" style="fill: none; stroke: #0000ff; stroke-width: 3; stroke-linecap: square"/>
   </g>
   <g id="patch_3">
    <path d="M 7.2 331.2 
L 7.2 7.2 
" style="fill: none; stroke: #000000; stroke-width: 0.8; stroke-linejoin: miter; stroke-linecap: square"/>
   </g>
   <g id="patch_4">
    <path d="M 446.4 331.2 
L 446.4 7.2 
" style="fill: none; stroke: #000000; stroke-width: 0.8; stroke-linejoin: miter; stroke-linecap: square"/>
   </g>
   <g id="patch_5">
    <path d="M 7.2 331.2 
L 446.4 331.2 
" style="fill: none; stroke: #000000; stroke-width: 0.8; stroke-linejoin: miter; stroke-linecap: square"/>
   </g>
   <g id="patch_6">
    <path d="M 7.2 7.2 
L 446.4 7.2 
" style="fill: none; stroke: #000000; stroke-width: 0.8; stroke-linejoin: miter; stroke-linecap: square"/>
   </g>
  </g>
 </g>
 <defs>
  <clipPath id="pf4b6d4b6e5">
   <rect x="7.2" y="7.2" width="439.2" height="324"/>
  </clipPath>
 </defs>
</svg>
