<?xml version="1.0" encoding="utf-8" standalone="no"?>
<!DOCTYPE svg PUBLIC "-//W3C//DTD SVG 1.1//EN"
  "http://www.w3.org/Graphics/SVG/1.1/DTD/svg11.dtd">
<svg xmlns:xlink="http://www.w3.org/1999/xlink" width="453.6pt" height="338.4pt" viewBox="0 0 453.6 338.4" xmlns="http://www.w3.org/2000/svg" version="1.1">
 <metadata>
  <rdf:RDF xmlns:dc="http://purl.org/dc/elements/1.1/" xmlns:cc="http://creativecommons.org/ns#" xmlns:rdf="http://www.w3.org/1999/02/22-rdf-syntax-ns#">
   <cc:Work>
    <dc:type rdf:resource="http://purl.org/dc/dcmitype/StillImage"/>
    <dc:date>2025-05-15T17:30:49.983948</dc:date>
    <dc:format>image/svg+xml</dc:format>
    <dc:creator>
     <cc:Agent>
      <dc:title>Matplotlib v3.10.1, https://matplotlib.org/</dc:title>
     </cc:Agent>
    </dc:creator>
   </cc:Work>
  </rdf:RDF>
 </metadata>
 <defs>
  <style type="text/css">*{stroke-linejoin: round; stroke-linecap: butt}</style>
 </defs>
 <g id="figure_1">
  <g id="patch_1">
   <path d="M 0 338.4 
L 453.6 338.4 
L 453.6 0 
L 0 0 
z
" style="fill: #ffffff"/>
  </g>
  <g id="axes_1">
   <g id="patch_2">
    <path d="M 7.2 331.2 
L 446.4 331.2 
L 446.4 7.2 
L 7.2 7.2 
z
" style="fill: #ffffff"/>
   </g>
   <g id="matplotlib.axis_1"/>
   <g id="matplotlib.axis_2"/>
   <g id="line2d_1">
    <path d="M 27.163636 95.642351 
L 28.275817 91.818199 
L 29.109952 89.682345 
L 30.222132 87.567089 
L 31.612358 85.506511 
L 33.836718 82.290258 
L 35.226944 79.850186 
L 39.119575 72.398194 
L 39.95371 71.499746 
L 40.5098 71.138395 
L 41.06589 70.974743 
L 41.62198 71.011971 
L 42.17807 71.251245 
L 42.734161 71.690642 
L 43.568296 72.711073 
L 44.402431 74.127375 
L 45.514611 76.536927 
L 46.626792 79.453592 
L 47.738972 82.893748 
L 49.129197 88.036313 
L 51.909648 99.171955 
L 52.743783 101.338612 
L 53.299873 102.114636 
L 53.577918 102.272745 
L 53.855964 102.270918 
L 54.134009 102.1084 
L 54.690099 101.313037 
L 55.246189 99.94083 
L 56.080324 97.005267 
L 57.192504 91.987173 
L 58.58273 84.546425 
L 59.69491 77.51213 
L 63.031451 54.730551 
L 63.587541 52.590225 
L 64.143631 51.284348 
L 64.699721 50.71018 
L 65.255812 50.63963 
L 66.089947 50.787691 
L 66.646037 50.584197 
L 67.202127 49.851511 
L 67.758217 48.490107 
L 68.592352 45.454199 
L 69.704533 41.03865 
L 70.260623 39.572869 
L 70.538668 39.204148 
L 70.816713 39.135267 
L 71.094758 39.399264 
L 71.372803 40.020014 
L 71.928893 42.375708 
L 72.484984 46.179515 
L 73.319119 54.129203 
L 75.543479 78.24806 
L 76.09957 82.376588 
L 76.65566 85.069192 
L 76.933705 85.842854 
L 77.21175 86.236771 
L 77.489795 86.264677 
L 77.76784 85.94975 
L 78.045885 85.322544 
L 78.601975 83.286122 
L 79.43611 78.962289 
L 80.826336 71.510234 
L 81.382426 69.357341 
L 81.938516 67.978299 
L 82.216561 67.608854 
L 82.494606 67.459438 
L 82.772651 67.529768 
L 83.050696 67.816191 
L 83.606787 69.009691 
L 84.162877 70.965295 
L 84.997012 75.123365 
L 85.831147 80.467283 
L 86.943327 88.967171 
L 88.611598 103.694527 
L 91.114004 126.445539 
L 91.948139 132.389891 
L 92.504229 135.295958 
L 93.060319 137.093784 
L 93.338364 137.514032 
L 93.616409 137.587259 
L 93.894454 137.297483 
L 94.172499 136.633426 
L 94.72859 134.164835 
L 95.28468 130.204747 
L 96.118815 121.759252 
L 97.230995 107.153234 
L 99.455356 76.672201 
L 100.289491 67.825324 
L 101.123626 61.101199 
L 101.957761 56.383165 
L 102.791897 53.281967 
L 103.626032 51.301041 
L 104.460167 49.986218 
L 105.294302 49.03385 
L 106.128438 48.341132 
L 106.684528 48.065008 
L 107.240618 48.01493 
L 107.796708 48.282361 
L 108.352798 48.96774 
L 108.908888 50.167571 
L 109.464978 51.962231 
L 110.021069 54.404917 
L 110.855204 59.315736 
L 111.689339 65.632211 
L 112.801519 75.79939 
L 115.02588 98.942572 
L 117.250241 121.159967 
L 118.640466 133.171868 
L 119.752646 141.246122 
L 120.586781 146.083824 
L 121.420917 149.573366 
L 121.977007 151.011762 
L 122.255052 151.437647 
L 122.533097 151.658858 
L 122.811142 151.670984 
L 123.089187 151.471442 
L 123.367232 151.059997 
L 123.923322 149.6122 
L 124.479413 147.37208 
L 125.313548 142.706219 
L 126.425728 134.644169 
L 128.372044 118.195129 
L 130.318359 102.353122 
L 131.430539 94.975334 
L 132.264675 90.829641 
L 132.820765 88.90062 
L 133.376855 87.71556 
L 133.6549 87.412036 
L 133.932945 87.301265 
L 134.21099 87.379847 
L 134.489035 87.641514 
L 135.045125 88.674291 
L 135.601215 90.296134 
L 136.435351 93.530214 
L 139.215801 105.256149 
L 140.327982 108.542858 
L 142.274297 113.660967 
L 142.830387 115.78038 
L 143.386478 118.583125 
L 143.942568 122.282696 
L 144.776703 129.905285 
L 145.610838 140.354036 
L 146.444973 153.681468 
L 147.557154 175.29542 
L 152.005875 268.835413 
L 153.118055 285.357074 
L 153.95219 294.702143 
L 154.786326 301.163184 
L 155.342416 303.74286 
L 155.620461 304.485751 
L 155.898506 304.851873 
L 156.176551 304.83307 
L 156.454596 304.422326 
L 156.732641 303.614042 
L 157.288731 300.792912 
L 157.844821 296.371426 
L 158.678957 286.861344 
L 159.513092 274.268274 
L 160.625272 253.830618 
L 165.073993 166.764368 
L 166.186174 151.059509 
L 167.020309 142.174948 
L 167.854444 136.054597 
L 168.410534 133.534589 
L 168.966624 132.198444 
L 169.24467 131.93799 
L 169.522715 131.9224 
L 169.80076 132.127484 
L 170.35685 133.089964 
L 171.190985 135.459972 
L 172.859256 140.587546 
L 173.415346 141.727362 
L 173.971436 142.420851 
L 174.527526 142.672534 
L 175.083616 142.556314 
L 176.751887 141.641961 
L 177.029932 141.704449 
L 177.307977 141.915076 
L 177.586022 142.307136 
L 178.142112 143.76276 
L 178.698202 146.303602 
L 179.254292 150.111313 
L 179.810382 155.296429 
L 180.644518 165.685968 
L 181.478653 178.905528 
L 182.868878 205.112822 
L 184.815194 242.152879 
L 185.927374 259.128954 
L 186.761509 268.67591 
L 187.595644 275.216265 
L 188.151735 277.914397 
L 188.707825 279.35162 
L 188.98587 279.626168 
L 189.263915 279.622845 
L 189.54196 279.356494 
L 190.09805 278.095238 
L 190.65414 275.960101 
L 191.488276 271.338515 
L 192.322411 265.220321 
L 193.434591 254.898679 
L 194.546771 242.114171 
L 195.936997 222.886653 
L 198.161357 187.759837 
L 199.829628 162.544487 
L 200.941808 148.510966 
L 201.775943 140.179518 
L 202.610079 134.053954 
L 203.166169 131.243587 
L 203.722259 129.409621 
L 204.278349 128.452858 
L 204.556394 128.257726 
L 204.834439 128.221427 
L 205.390529 128.522117 
L 206.224664 129.490328 
L 207.0588 130.423485 
L 207.61489 130.71227 
L 207.892935 130.703797 
L 208.17098 130.578066 
L 208.72707 129.951474 
L 209.28316 128.826036 
L 210.117296 126.34187 
L 212.341656 118.823485 
L 212.897746 117.88677 
L 213.175791 117.705244 
L 213.453836 117.742472 
L 213.731881 118.014816 
L 214.009927 118.53437 
L 214.566017 120.3404 
L 215.122107 123.162152 
L 215.956242 129.108222 
L 217.068422 139.276109 
L 219.014738 157.514235 
L 219.848873 163.376116 
L 220.404963 166.217664 
L 220.961053 168.122496 
L 221.517144 169.079605 
L 221.795189 169.212628 
L 222.073234 169.125826 
L 222.351279 168.829939 
L 222.907369 167.663761 
L 223.463459 165.833762 
L 224.297594 162.143467 
L 225.68782 154.592231 
L 228.746316 136.507821 
L 229.858496 128.759721 
L 230.970676 119.583698 
L 232.360901 106.145086 
L 235.141352 78.520467 
L 235.975487 72.148401 
L 236.809623 67.432698 
L 237.365713 65.314136 
L 237.921803 64.020164 
L 238.199848 63.667695 
L 238.477893 63.497523 
L 238.755938 63.495476 
L 239.033983 63.644892 
L 239.590073 64.321956 
L 240.424209 65.964744 
L 242.092479 69.484269 
L 242.648569 70.279191 
L 243.204659 70.794556 
L 243.76075 71.047719 
L 244.594885 71.080915 
L 245.42902 71.030711 
L 245.98511 71.187592 
L 246.5412 71.679618 
L 247.09729 72.661341 
L 247.653381 74.273137 
L 248.209471 76.627508 
L 248.765561 79.797337 
L 249.599696 86.121276 
L 250.433831 94.17953 
L 251.824057 110.24933 
L 253.770372 133.081554 
L 254.882553 143.485817 
L 255.716688 149.27014 
L 256.272778 152.085058 
L 256.828868 154.079953 
L 257.384958 155.303154 
L 257.941048 155.828944 
L 258.219093 155.858771 
L 258.497139 155.749701 
L 259.053229 155.165218 
L 259.609319 154.171936 
L 260.443454 152.089342 
L 261.277589 149.436548 
L 262.38977 145.005094 
L 263.223905 140.80937 
L 264.05804 135.617121 
L 264.892175 129.252362 
L 266.004356 118.895106 
L 267.394581 103.578622 
L 269.896987 75.409756 
L 271.009167 65.735643 
L 271.843302 60.573393 
L 272.399392 58.246612 
L 272.955482 56.804358 
L 273.511573 56.179955 
L 273.789618 56.139703 
L 274.067663 56.257056 
L 274.623753 56.880074 
L 275.457888 58.444721 
L 276.848113 61.2703 
L 277.404204 62.076781 
L 277.960294 62.586004 
L 278.516384 62.790286 
L 279.072474 62.730507 
L 279.906609 62.34144 
L 280.740744 61.988592 
L 281.296835 62.040088 
L 281.852925 62.520682 
L 282.409015 63.59305 
L 282.965105 65.396434 
L 283.521195 68.033606 
L 284.077285 71.558265 
L 284.911421 78.484026 
L 286.023601 90.288827 
L 289.360142 128.879909 
L 290.194277 135.846331 
L 291.028412 141.006613 
L 291.584502 143.438621 
L 292.140593 145.115566 
L 292.696683 146.115194 
L 293.252773 146.535505 
L 293.808863 146.486246 
L 294.364953 146.078753 
L 295.199088 145.014228 
L 296.311269 143.112955 
L 297.423449 140.809607 
L 298.257584 138.665627 
L 299.091719 135.927874 
L 299.925855 132.384915 
L 300.75999 127.917351 
L 301.87217 120.602224 
L 305.208711 97.110495 
L 305.764801 94.602456 
L 306.320891 92.895921 
L 306.876982 92.073125 
L 307.155027 92.004433 
L 307.433072 92.163046 
L 307.711117 92.543829 
L 308.267207 93.932415 
L 308.823297 96.061245 
L 309.657432 100.305614 
L 312.993973 119.163419 
L 314.106153 123.61229 
L 316.052469 130.789623 
L 316.886604 135.119991 
L 317.720739 141.187949 
L 318.554875 149.574374 
L 319.38901 160.619056 
L 320.50119 179.421192 
L 321.891416 207.836166 
L 324.671866 265.979991 
L 325.784047 284.780891 
L 326.896227 299.698088 
L 327.730362 308.09152 
L 328.286452 312.218657 
L 328.842542 315.03569 
L 329.120587 315.906949 
L 329.398633 316.392929 
L 329.676678 316.472727 
L 329.954723 316.125912 
L 330.232768 315.333451 
L 330.788858 312.347428 
L 331.344948 307.422841 
L 331.901038 300.54293 
L 332.735173 286.748549 
L 333.847354 263.001838 
L 335.793669 214.211066 
L 337.46194 174.119321 
L 338.852165 146.093714 
L 339.964345 128.190561 
L 340.798481 117.658535 
L 341.632616 109.700422 
L 342.466751 104.25323 
L 343.022841 101.898764 
L 343.578931 100.423093 
L 344.135022 99.665242 
L 344.691112 99.441559 
L 345.247202 99.562282 
L 346.915472 100.304512 
L 347.471562 100.27711 
L 348.027653 100.019916 
L 348.861788 99.253403 
L 350.252013 97.724221 
L 350.808103 97.456413 
L 351.086148 97.487971 
L 351.364193 97.662458 
L 351.642239 98.003526 
L 352.198329 99.276616 
L 352.754419 101.46765 
L 353.310509 104.694171 
L 353.866599 109.014948 
L 354.700734 117.507419 
L 355.812915 131.991108 
L 359.983591 190.950736 
L 361.095771 201.9903 
L 361.929906 208.501309 
L 362.764042 213.476317 
L 363.320132 215.877523 
L 363.876222 217.460169 
L 364.154267 217.91311 
L 364.432312 218.121391 
L 364.710357 218.070368 
L 364.988402 217.745048 
L 365.266447 217.131637 
L 365.822537 214.991893 
L 366.378628 211.57706 
L 366.934718 206.860081 
L 367.768853 197.426218 
L 368.881033 181.068688 
L 370.549304 151.601047 
L 373.051709 107.333201 
L 374.441935 87.132227 
L 375.554115 74.627779 
L 376.38825 67.73153 
L 377.222385 63.016016 
L 377.778476 61.007027 
L 378.334566 59.788802 
L 378.890656 59.219989 
L 379.446746 59.133565 
L 380.002836 59.351578 
L 381.393062 60.130027 
L 381.949152 60.185334 
L 382.505242 59.97132 
L 383.061332 59.467073 
L 383.895467 58.2354 
L 385.563738 55.304877 
L 386.119828 54.750614 
L 386.397873 54.653198 
L 386.675918 54.704882 
L 386.953963 54.926329 
L 387.232008 55.335616 
L 387.788098 56.779414 
L 388.344188 59.125691 
L 388.900279 62.405029 
L 389.734414 68.978447 
L 390.846594 80.16105 
L 393.90509 112.720771 
L 394.739225 119.339338 
L 395.57336 124.510549 
L 396.407496 128.286608 
L 396.963586 130.089394 
L 397.519676 131.36324 
L 398.075766 132.132335 
L 398.631856 132.403624 
L 398.909901 132.349797 
L 399.187946 132.166051 
L 399.744036 131.39368 
L 400.300127 130.052103 
L 400.856217 128.106373 
L 401.690352 124.003688 
L 402.524487 118.481047 
L 403.636668 109.121719 
L 405.026893 95.07127 
L 408.919524 54.078211 
L 410.031704 45.212752 
L 410.865839 40.257051 
L 411.42193 37.876759 
L 411.97802 36.256837 
L 412.53411 35.37294 
L 412.812155 35.188186 
L 413.0902 35.160312 
L 413.368245 35.275618 
L 413.924335 35.874479 
L 414.480425 36.850532 
L 415.870651 40.029148 
L 416.982831 42.370826 
L 417.816966 43.660263 
L 418.651102 44.562239 
L 420.041327 45.912966 
L 420.597417 46.784359 
L 421.153507 48.090835 
L 421.709597 50.001368 
L 422.265688 52.667862 
L 422.821778 56.209088 
L 423.655913 63.302281 
L 424.490048 72.507107 
L 425.602228 87.504413 
L 426.436364 100.063915 
L 426.436364 100.063915 
" clip-path="url(#pf370b865da)" style="fill: none; stroke-dasharray: 11.1,4.8; stroke-dashoffset: 0; stroke: #000000; stroke-width: 3"/>
   </g>
   <g id="line2d_2">
    <path d="M 27.163636 90.380354 
L 28.275817 83.918935 
L 29.387997 75.802351 
L 30.778222 63.455256 
L 34.114763 32.258198 
L 34.948898 26.609433 
L 35.504989 23.918246 
L 36.061079 22.30434 
L 36.339124 21.952973 
L 36.617169 21.927273 
L 36.895214 22.238577 
L 37.173259 22.893878 
L 37.729349 25.235714 
L 38.285439 28.893065 
L 39.119575 36.491166 
L 40.231755 49.209533 
L 42.456115 74.993351 
L 43.568296 85.168687 
L 44.680476 93.212453 
L 45.792656 99.477527 
L 46.626792 103.1168 
L 47.460927 105.764649 
L 48.017017 106.891819 
L 48.573107 107.439971 
L 48.851152 107.481798 
L 49.129197 107.362996 
L 49.407242 107.081864 
L 49.963332 106.034819 
L 50.519423 104.366174 
L 51.353558 100.835814 
L 52.465738 94.724691 
L 55.802279 75.061571 
L 56.914459 69.981871 
L 58.02664 65.89202 
L 59.13882 62.691861 
L 60.251 60.279601 
L 61.085135 58.949472 
L 61.919271 57.992505 
L 62.753406 57.330086 
L 64.699721 56.024586 
L 65.533857 55.098674 
L 66.367992 53.767033 
L 67.480172 51.43074 
L 69.426488 47.177993 
L 70.260623 46.012146 
L 70.816713 45.643646 
L 71.372803 45.669787 
L 71.928893 46.134917 
L 72.484984 47.071097 
L 73.041074 48.498485 
L 73.875209 51.570959 
L 74.709344 55.721156 
L 75.821524 62.719389 
L 77.21175 73.138061 
L 80.548291 99.11098 
L 81.660471 106.20118 
L 82.494606 110.539658 
L 83.328741 113.869075 
L 83.884832 115.471454 
L 84.440922 116.556861 
L 84.997012 117.120509 
L 85.275057 117.208855 
L 85.553102 117.170808 
L 86.109192 116.727631 
L 86.665282 115.818348 
L 87.221372 114.474361 
L 88.055508 111.711427 
L 88.889643 108.138547 
L 90.001823 102.291107 
L 91.670094 91.980087 
L 93.338364 81.849034 
L 94.172499 77.744128 
L 95.006635 74.66 
L 95.562725 73.232738 
L 96.118815 72.302164 
L 96.674905 71.823743 
L 97.230995 71.723838 
L 97.787085 71.905065 
L 100.011446 73.117589 
L 100.567536 73.002441 
L 101.123626 72.57813 
L 101.679716 71.836593 
L 102.513852 70.221302 
L 104.460167 65.975484 
L 105.016257 65.265443 
L 105.572347 65.018138 
L 105.850393 65.098642 
L 106.128438 65.327742 
L 106.684528 66.259387 
L 107.240618 67.853513 
L 107.796708 70.130846 
L 108.630843 74.841226 
L 109.464978 81.082994 
L 110.577159 91.619208 
L 111.967384 107.529986 
L 115.02588 143.664572 
L 116.13806 154.205637 
L 117.250241 162.661115 
L 118.084376 167.527967 
L 118.918511 170.998705 
L 119.474601 172.449967 
L 120.030691 173.143126 
L 120.308736 173.188511 
L 120.586781 173.025647 
L 120.864827 172.650784 
L 121.420917 171.257034 
L 121.977007 169.011008 
L 122.811142 164.132093 
L 123.645277 157.683052 
L 125.035503 144.546894 
L 127.815953 117.239941 
L 128.928134 108.628306 
L 129.762269 103.607693 
L 130.596404 99.896169 
L 131.430539 97.419468 
L 131.98663 96.356864 
L 132.54272 95.661753 
L 133.376855 95.057349 
L 134.489035 94.374206 
L 135.045125 93.781015 
L 135.601215 92.865937 
L 136.157306 91.554516 
L 136.991441 88.807393 
L 138.103621 84.036918 
L 139.493847 78.074518 
L 140.049937 76.347102 
L 140.606027 75.282293 
L 140.884072 75.043933 
L 141.162117 75.020059 
L 141.440162 75.219868 
L 141.718207 75.650289 
L 142.274297 77.213865 
L 142.830387 79.709589 
L 143.386478 83.104959 
L 144.220613 89.76247 
L 145.332793 101.166897 
L 146.723018 118.337663 
L 149.225424 150.154715 
L 150.337604 161.252215 
L 151.17174 167.446802 
L 151.72783 170.476159 
L 152.28392 172.629304 
L 152.84001 173.940063 
L 153.118055 174.294422 
L 153.3961 174.457476 
L 153.674145 174.436153 
L 153.95219 174.237257 
L 154.508281 173.333801 
L 155.064371 171.796588 
L 155.620461 169.666592 
L 156.454596 165.438853 
L 157.288731 160.082589 
L 158.400912 151.481285 
L 160.625272 131.744339 
L 162.293543 117.736787 
L 163.683768 107.849101 
L 165.073993 99.67488 
L 166.186174 94.397891 
L 167.298354 90.314087 
L 168.410534 87.157141 
L 169.522715 84.018903 
L 170.35685 80.899058 
L 171.190985 76.676736 
L 172.303165 69.494316 
L 173.693391 60.549835 
L 174.249481 58.102929 
L 174.805571 56.835854 
L 175.083616 56.732233 
L 175.361661 57.015947 
L 175.639706 57.70331 
L 176.195796 60.318467 
L 176.751887 64.56504 
L 177.586022 73.721174 
L 178.420157 85.597974 
L 179.810382 109.152963 
L 182.590833 157.699588 
L 183.703013 173.74186 
L 184.815194 186.414874 
L 185.649329 193.498995 
L 186.483464 198.574821 
L 187.039554 200.943901 
L 187.595644 202.594783 
L 188.151735 203.610301 
L 188.707825 204.062643 
L 188.98587 204.094989 
L 189.263915 204.004596 
L 189.820005 203.463404 
L 190.376095 202.44102 
L 190.932185 200.917822 
L 191.488276 198.86159 
L 192.322411 194.706196 
L 193.156546 189.220642 
L 194.268726 179.99273 
L 195.936997 163.514021 
L 197.883312 144.423494 
L 199.273538 132.987445 
L 200.663763 123.656163 
L 202.332033 114.226111 
L 204.000304 104.51729 
L 205.112484 96.45343 
L 206.224664 86.667192 
L 208.17098 68.871393 
L 208.72707 65.118547 
L 209.28316 62.603799 
L 209.561205 61.901255 
L 209.83925 61.605132 
L 210.117296 61.733067 
L 210.395341 62.296086 
L 210.673386 63.296265 
L 211.229476 66.57932 
L 211.785566 71.455117 
L 212.619701 81.260441 
L 213.731881 97.494176 
L 217.624513 157.397512 
L 218.736693 170.961698 
L 219.848873 181.703895 
L 220.683008 187.660374 
L 221.517144 191.740461 
L 222.073234 193.427815 
L 222.629324 194.314515 
L 222.907369 194.466577 
L 223.185414 194.430199 
L 223.463459 194.209351 
L 224.019549 193.231974 
L 224.575639 191.569029 
L 225.13173 189.258028 
L 225.965865 184.670607 
L 227.078045 176.752729 
L 228.46827 164.79152 
L 232.082856 132.374978 
L 233.195037 124.28948 
L 234.307217 117.73096 
L 235.141352 113.877264 
L 235.975487 110.835844 
L 238.477893 102.915668 
L 239.312028 98.778888 
L 240.146164 93.070911 
L 241.258344 83.099541 
L 243.204659 64.459656 
L 243.76075 60.733896 
L 244.31684 58.45102 
L 244.594885 57.945198 
L 244.87293 57.899466 
L 245.150975 58.33121 
L 245.42902 59.248997 
L 245.98511 62.53728 
L 246.5412 67.676381 
L 247.375336 78.406673 
L 248.487516 96.823883 
L 252.380147 166.512354 
L 253.492327 181.553881 
L 254.326462 190.562267 
L 255.160598 197.586893 
L 255.994733 202.711664 
L 256.550823 205.141908 
L 257.106913 206.835656 
L 257.663003 207.831016 
L 257.941048 208.075928 
L 258.219093 208.155706 
L 258.497139 208.071802 
L 258.775184 207.825284 
L 259.331274 206.845136 
L 259.887364 205.217183 
L 260.443454 202.947157 
L 261.277589 198.382098 
L 262.111724 192.560579 
L 263.50195 180.827777 
L 266.282401 156.305711 
L 267.672626 146.345711 
L 269.062851 138.286324 
L 270.453077 131.643174 
L 273.789618 116.865015 
L 274.623753 111.7176 
L 275.457888 105.356652 
L 276.848113 92.559861 
L 278.238339 80.163317 
L 278.794429 76.528643 
L 279.350519 74.174524 
L 279.628564 73.563065 
L 279.906609 73.361555 
L 280.184654 73.586246 
L 280.462699 74.245389 
L 281.01879 76.862057 
L 281.57488 81.1303 
L 282.409015 90.211159 
L 283.521195 105.871734 
L 286.857736 155.988549 
L 287.969916 168.598508 
L 288.804052 175.865935 
L 289.638187 181.14116 
L 290.194277 183.565578 
L 290.750367 185.164397 
L 291.306457 186.005208 
L 291.584502 186.167191 
L 291.862547 186.172419 
L 292.140593 186.032358 
L 292.696683 185.364584 
L 293.252773 184.25313 
L 294.086908 181.91668 
L 294.921043 178.928047 
L 296.033224 174.055653 
L 297.145404 168.196716 
L 298.535629 159.659947 
L 301.31608 142.199105 
L 302.42826 136.840605 
L 303.262396 133.778776 
L 304.096531 131.535018 
L 304.930666 130.02741 
L 305.764801 129.094663 
L 307.433072 127.694802 
L 307.989162 126.833236 
L 308.545252 125.479296 
L 309.101342 123.470087 
L 309.657432 120.692034 
L 310.491567 115.040875 
L 311.603748 105.410069 
L 312.993973 93.440041 
L 313.550063 89.976767 
L 314.106153 87.855024 
L 314.384199 87.39065 
L 314.662244 87.360099 
L 314.940289 87.780946 
L 315.218334 88.66226 
L 315.774424 91.805096 
L 316.330514 96.709869 
L 317.164649 106.953866 
L 318.27683 124.547273 
L 321.891416 186.268544 
L 323.003596 200.448126 
L 323.837731 208.683733 
L 324.671866 214.884335 
L 325.506002 219.267727 
L 326.340137 222.166754 
L 326.896227 223.448065 
L 327.452317 224.30982 
L 328.008407 224.809469 
L 328.564497 224.971389 
L 329.120587 224.786068 
L 329.676678 224.21505 
L 330.232768 223.20076 
L 330.788858 221.677782 
L 331.344948 219.585928 
L 332.179083 215.293119 
L 333.013219 209.601866 
L 334.125399 200.119688 
L 338.296075 161.497095 
L 339.13021 156.178279 
L 339.964345 151.970162 
L 341.076526 147.565133 
L 342.466751 142.122067 
L 343.300886 137.634645 
L 344.135022 131.460089 
L 344.969157 123.317049 
L 346.081337 109.916609 
L 347.749607 89.618408 
L 348.305698 84.689636 
L 348.861788 81.482738 
L 349.139833 80.642368 
L 349.417878 80.356197 
L 349.695923 80.645328 
L 349.973968 81.51921 
L 350.530058 85.005035 
L 351.086148 90.664005 
L 351.920284 102.510821 
L 353.310509 127.26183 
L 354.978779 156.021273 
L 356.09096 170.806235 
L 356.925095 179.151163 
L 357.75923 185.396899 
L 358.593365 189.913297 
L 359.427501 193.057771 
L 360.261636 195.112492 
L 360.817726 195.974279 
L 361.373816 196.470589 
L 361.929906 196.618336 
L 362.485996 196.422086 
L 363.042087 195.876516 
L 363.598177 194.966918 
L 364.154267 193.672442 
L 364.988402 190.959082 
L 365.822537 187.275149 
L 366.656673 182.634091 
L 367.768853 175.187358 
L 370.827349 153.668539 
L 371.661484 149.662247 
L 372.217574 147.79458 
L 372.773664 146.592355 
L 373.329754 146.003951 
L 373.885845 145.90433 
L 375.27607 146.329176 
L 375.554115 146.232075 
L 375.83216 145.975668 
L 376.110205 145.516617 
L 376.666295 143.82983 
L 377.222385 140.888031 
L 377.778476 136.49875 
L 378.334566 130.594302 
L 379.168701 119.111797 
L 380.558926 95.62528 
L 381.671107 77.475028 
L 382.505242 67.20407 
L 383.061332 62.829813 
L 383.339377 61.503463 
L 383.617422 60.78095 
L 383.895467 60.671408 
L 384.173512 61.172821 
L 384.451557 62.272275 
L 385.007648 66.162758 
L 385.563738 72.046922 
L 386.397873 83.676103 
L 389.456369 130.618302 
L 390.290504 139.727853 
L 391.124639 146.741046 
L 391.958774 151.998288 
L 392.79291 155.912361 
L 393.627045 158.823105 
L 394.46118 160.944628 
L 395.295315 162.376299 
L 395.851405 162.958152 
L 396.407496 163.231598 
L 396.963586 163.180103 
L 397.519676 162.784768 
L 398.075766 162.02994 
L 398.631856 160.905416 
L 399.465991 158.531548 
L 400.300127 155.402696 
L 401.690352 149.000804 
L 403.636668 139.7739 
L 404.470803 136.593836 
L 405.304938 134.228913 
L 405.861028 133.164325 
L 406.417118 132.512804 
L 406.973208 132.243987 
L 407.529299 132.295861 
L 408.363434 132.759793 
L 409.197569 133.278497 
L 409.753659 133.375158 
L 410.031704 133.278907 
L 410.309749 133.055066 
L 410.865839 132.137059 
L 411.42193 130.467469 
L 411.97802 127.944784 
L 412.812155 122.52241 
L 413.64629 115.415517 
L 416.148696 92.372776 
L 416.704786 88.841156 
L 417.260876 86.406533 
L 417.816966 85.181096 
L 418.095011 85.036846 
L 418.373056 85.204151 
L 418.651102 85.677722 
L 419.207192 87.508255 
L 419.763282 90.429235 
L 420.597417 96.554154 
L 421.709597 107.079534 
L 425.046138 140.814583 
L 426.158319 149.368769 
L 426.436364 151.236531 
L 426.436364 151.236531 
" clip-path="url(#pf370b865da)" style="fill: none; stroke: #ff00ff; stroke-width: 3; stroke-linecap: square"/>
   </g>
   <g id="patch_3">
    <path d="M 7.2 331.2 
L 7.2 7.2 
" style="fill: none; stroke: #000000; stroke-width: 0.8; stroke-linejoin: miter; stroke-linecap: square"/>
   </g>
   <g id="patch_4">
    <path d="M 446.4 331.2 
L 446.4 7.2 
" style="fill: none; stroke: #000000; stroke-width: 0.8; stroke-linejoin: miter; stroke-linecap: square"/>
   </g>
   <g id="patch_5">
    <path d="M 7.2 331.2 
L 446.4 331.2 
" style="fill: none; stroke: #000000; stroke-width: 0.8; stroke-linejoin: miter; stroke-linecap: square"/>
   </g>
   <g id="patch_6">
    <path d="M 7.2 7.2 
L 446.4 7.2 
" style="fill: none; stroke: #000000; stroke-width: 0.8; stroke-linejoin: miter; stroke-linecap: square"/>
   </g>
  </g>
 </g>
 <defs>
  <clipPath id="pf370b865da">
   <rect x="7.2" y="7.2" width="439.2" height="324"/>
  </clipPath>
 </defs>
</svg>
