<?xml version="1.0" encoding="utf-8" standalone="no"?>
<!DOCTYPE svg PUBLIC "-//W3C//DTD SVG 1.1//EN"
  "http://www.w3.org/Graphics/SVG/1.1/DTD/svg11.dtd">
<svg xmlns:xlink="http://www.w3.org/1999/xlink" width="453.6pt" height="338.4pt" viewBox="0 0 453.6 338.4" xmlns="http://www.w3.org/2000/svg" version="1.1">
 <metadata>
  <rdf:RDF xmlns:dc="http://purl.org/dc/elements/1.1/" xmlns:cc="http://creativecommons.org/ns#" xmlns:rdf="http://www.w3.org/1999/02/22-rdf-syntax-ns#">
   <cc:Work>
    <dc:type rdf:resource="http://purl.org/dc/dcmitype/StillImage"/>
    <dc:date>2025-05-15T17:57:16.206963</dc:date>
    <dc:format>image/svg+xml</dc:format>
    <dc:creator>
     <cc:Agent>
      <dc:title>Matplotlib v3.10.1, https://matplotlib.org/</dc:title>
     </cc:Agent>
    </dc:creator>
   </cc:Work>
  </rdf:RDF>
 </metadata>
 <defs>
  <style type="text/css">*{stroke-linejoin: round; stroke-linecap: butt}</style>
 </defs>
 <g id="figure_1">
  <g id="patch_1">
   <path d="M 0 338.4 
L 453.6 338.4 
L 453.6 0 
L 0 0 
z
" style="fill: #ffffff"/>
  </g>
  <g id="axes_1">
   <g id="patch_2">
    <path d="M 7.2 331.2 
L 446.4 331.2 
L 446.4 7.2 
L 7.2 7.2 
z
" style="fill: #ffffff"/>
   </g>
   <g id="matplotlib.axis_1"/>
   <g id="matplotlib.axis_2"/>
   <g id="line2d_1">
    <path d="M 27.163636 186.379019 
L 28.553862 186.353697 
L 29.944087 186.534287 
L 31.334312 186.94617 
L 32.446493 187.483583 
L 33.558673 188.24464 
L 34.948898 189.487083 
L 36.895214 191.237623 
L 37.729349 191.686216 
L 38.285439 191.809742 
L 38.84153 191.776869 
L 39.675665 191.441747 
L 40.5098 190.819109 
L 41.900025 189.404047 
L 44.124386 186.777738 
L 45.236566 185.154622 
L 46.348747 183.072404 
L 47.460927 180.458207 
L 49.129197 175.856053 
L 51.353558 169.762025 
L 53.021828 165.842078 
L 54.134009 163.661162 
L 54.968144 162.366281 
L 55.802279 161.475442 
L 56.358369 161.148134 
L 56.914459 161.045677 
L 57.47055 161.156861 
L 58.304685 161.644578 
L 60.251 163.053771 
L 60.80709 163.135302 
L 61.363181 162.925815 
L 61.919271 162.371223 
L 62.475361 161.439796 
L 63.031451 160.123175 
L 63.865586 157.45359 
L 64.699721 154.029719 
L 65.811902 148.450752 
L 67.202127 140.047025 
L 68.870398 128.319897 
L 70.816713 114.613737 
L 71.928893 108.220666 
L 73.041074 103.215259 
L 75.821524 92.746512 
L 76.933705 88.988378 
L 77.489795 87.936738 
L 77.76784 87.777329 
L 78.045885 87.927169 
L 78.32393 88.432458 
L 78.601975 89.335179 
L 79.158065 92.466258 
L 79.714155 97.492288 
L 80.270246 104.405646 
L 81.104381 117.81068 
L 84.162877 171.94691 
L 84.997012 181.140183 
L 85.831147 187.214042 
L 86.665282 191.080126 
L 88.055508 195.70609 
L 89.167688 199.915071 
L 90.279868 205.168976 
L 92.226184 215.772106 
L 95.006635 230.862923 
L 95.84077 234.220984 
L 96.39686 235.788324 
L 96.95295 236.720868 
L 97.230995 236.941061 
L 97.50904 237.00191 
L 97.787085 236.912792 
L 98.343175 236.343866 
L 99.177311 234.824327 
L 100.567536 232.145252 
L 101.123626 231.530783 
L 101.679716 231.340703 
L 102.235807 231.607044 
L 102.791897 232.312892 
L 103.347987 233.406554 
L 104.182122 235.612758 
L 105.572347 240.120851 
L 107.240618 245.388689 
L 108.074753 247.398057 
L 108.908888 248.769403 
L 109.464978 249.321383 
L 110.021069 249.628975 
L 110.855204 249.804024 
L 111.967384 250.036568 
L 112.523474 250.373659 
L 113.079564 250.94916 
L 113.635655 251.788695 
L 114.46979 253.511939 
L 115.58197 256.409736 
L 117.806331 262.352606 
L 118.918511 264.742552 
L 120.030691 266.645734 
L 121.142872 268.112738 
L 122.255052 269.202837 
L 123.367232 269.967752 
L 124.479413 270.460971 
L 125.869638 270.786908 
L 127.537908 270.911576 
L 135.045125 270.945762 
L 142.552342 270.724892 
L 150.059559 270.400825 
L 155.342416 269.858021 
L 160.625272 269.321401 
L 163.127678 269.334582 
L 168.688579 269.467524 
L 171.747075 269.233062 
L 176.473841 268.824505 
L 178.142112 268.923272 
L 180.088427 269.289293 
L 186.483464 270.789281 
L 188.151735 270.836957 
L 189.820005 270.664578 
L 191.488276 270.259013 
L 193.156546 269.590203 
L 194.546771 268.799101 
L 195.936997 267.755704 
L 197.327222 266.397462 
L 198.439402 265.021085 
L 199.551583 263.329409 
L 200.663763 261.287078 
L 202.053988 258.253921 
L 204.000304 253.337446 
L 207.336845 244.148299 
L 210.117296 235.890067 
L 214.287972 222.570508 
L 215.678197 217.599288 
L 216.790377 212.87483 
L 217.902558 207.092752 
L 219.014738 199.946038 
L 220.126918 191.204921 
L 221.239099 180.653393 
L 222.351279 167.971548 
L 223.463459 152.675059 
L 224.575639 134.278156 
L 225.965865 106.958027 
L 228.746316 49.561067 
L 229.580451 36.664648 
L 230.414586 27.616017 
L 230.970676 23.933657 
L 231.526766 22.138547 
L 231.804811 21.927273 
L 232.082856 22.15616 
L 232.360901 22.810146 
L 232.916992 25.333926 
L 233.473082 29.388809 
L 234.029172 34.890226 
L 234.863307 45.72942 
L 235.697442 59.498184 
L 236.809623 81.682847 
L 239.590073 139.806019 
L 240.424209 152.009598 
L 240.980299 157.926204 
L 241.536389 162.130848 
L 242.092479 164.875813 
L 242.648569 166.550328 
L 243.482704 168.082673 
L 244.038795 169.134695 
L 244.594885 170.664542 
L 245.150975 172.927968 
L 245.707065 176.039456 
L 246.5412 182.216048 
L 247.931426 195.08171 
L 249.599696 210.449209 
L 250.711876 218.470397 
L 251.546012 222.667625 
L 252.102102 224.414579 
L 252.380147 224.934603 
L 252.658192 225.202212 
L 252.936237 225.205544 
L 253.214282 224.933762 
L 253.492327 224.377319 
L 254.048417 222.380576 
L 254.604507 219.176229 
L 255.160598 214.763269 
L 255.994733 205.977488 
L 257.106913 190.731531 
L 258.497139 167.788677 
L 260.721499 130.822949 
L 261.833679 116.540628 
L 262.667815 108.614667 
L 263.50195 102.940881 
L 264.336085 99.081658 
L 264.892175 97.293001 
L 265.448265 96.040456 
L 266.004356 95.322828 
L 266.282401 95.182254 
L 266.560446 95.202285 
L 266.838491 95.39621 
L 267.116536 95.776488 
L 267.672626 97.13609 
L 268.228716 99.319995 
L 269.062851 104.015654 
L 270.453077 114.041664 
L 271.565257 121.701948 
L 272.399392 126.253419 
L 273.511573 130.822358 
L 274.901798 136.231663 
L 275.735933 140.617061 
L 276.570068 146.354358 
L 277.682249 155.90126 
L 280.184654 178.806214 
L 281.01879 184.587241 
L 281.852925 188.663968 
L 282.409015 190.331366 
L 282.965105 191.139398 
L 283.24315 191.226417 
L 283.521195 191.108773 
L 283.79924 190.793734 
L 284.35533 189.609117 
L 284.911421 187.762818 
L 285.745556 183.999743 
L 287.135781 176.153893 
L 289.082097 165.180402 
L 290.194277 160.35573 
L 291.028412 157.784895 
L 291.584502 156.619914 
L 292.140593 155.903298 
L 292.696683 155.627645 
L 293.252773 155.771793 
L 293.808863 156.300072 
L 294.364953 157.16319 
L 295.199088 158.94856 
L 296.589314 162.629237 
L 298.257584 166.93152 
L 299.369764 169.227293 
L 300.481945 170.995873 
L 301.594125 172.314045 
L 302.706305 173.250328 
L 303.540441 173.713748 
L 304.374576 173.971466 
L 305.208711 174.037692 
L 306.320891 173.903237 
L 308.823297 173.469114 
L 310.213522 173.512055 
L 312.715928 173.913936 
L 315.496379 174.492693 
L 317.720739 175.232489 
L 319.667055 175.824679 
L 320.779235 175.908741 
L 321.61337 175.778439 
L 322.725551 175.341478 
L 324.115776 174.491714 
L 327.174272 172.279371 
L 328.842542 170.816577 
L 331.622993 168.230318 
L 332.735173 167.579532 
L 333.847354 167.240775 
L 335.237579 167.094754 
L 338.01803 167.073756 
L 339.13021 167.26703 
L 339.964345 167.592656 
L 340.798481 168.11736 
L 341.910661 169.148792 
L 343.300886 170.880706 
L 345.803292 174.160883 
L 346.915472 175.185703 
L 347.749607 175.684585 
L 348.583743 175.960304 
L 349.695923 176.03918 
L 351.086148 175.835963 
L 353.310509 175.449165 
L 354.422689 175.482525 
L 356.09096 175.817437 
L 357.481185 176.009705 
L 358.31532 175.898002 
L 359.149456 175.530158 
L 359.983591 174.880154 
L 360.817726 173.967076 
L 362.207951 172.036801 
L 364.154267 169.27697 
L 364.988402 168.392079 
L 365.822537 167.844453 
L 366.378628 167.718509 
L 366.934718 167.820696 
L 367.490808 168.183848 
L 368.046898 168.841613 
L 368.602988 169.827738 
L 369.159078 171.173006 
L 369.993213 173.916071 
L 370.827349 177.55687 
L 371.939529 183.711853 
L 373.607799 194.810073 
L 375.554115 207.611711 
L 376.666295 213.43282 
L 377.50043 216.756529 
L 378.334566 219.147674 
L 378.890656 220.246778 
L 379.446746 220.982285 
L 380.002836 221.390576 
L 380.558926 221.514425 
L 381.115016 221.403691 
L 381.949152 220.928083 
L 383.617422 219.797547 
L 384.173512 219.684476 
L 384.729602 219.843169 
L 385.285693 220.337713 
L 385.841783 221.2086 
L 386.397873 222.468199 
L 387.232008 225.044078 
L 388.344188 229.495113 
L 390.290504 238.604046 
L 393.070955 251.467217 
L 394.739225 258.326409 
L 395.851405 262.148457 
L 396.963586 265.131537 
L 397.797721 266.78345 
L 398.631856 267.980187 
L 399.465991 268.806062 
L 400.300127 269.355803 
L 401.412307 269.797846 
L 402.802532 270.047553 
L 404.192758 270.05628 
L 405.861028 269.815241 
L 407.807344 269.270597 
L 413.0902 267.514952 
L 414.20238 267.443109 
L 415.314561 267.552547 
L 416.704786 267.91555 
L 420.597417 269.183498 
L 421.709597 269.176237 
L 422.821778 268.873183 
L 423.933958 268.316264 
L 426.436364 266.781445 
L 426.436364 266.781445 
" clip-path="url(#p91f78df405)" style="fill: none; stroke-dasharray: 11.1,4.8; stroke-dashoffset: 0; stroke: #000000; stroke-width: 3"/>
   </g>
   <g id="line2d_2">
    <path d="M 27.163636 153.155599 
L 29.666042 155.203466 
L 34.114763 158.681438 
L 35.226944 159.122388 
L 36.061079 159.245257 
L 37.173259 159.16408 
L 38.563484 158.799102 
L 42.17807 157.694649 
L 43.012206 157.668203 
L 43.846341 157.875929 
L 44.680476 158.404891 
L 45.514611 159.315603 
L 46.348747 160.615005 
L 47.460927 162.842628 
L 51.909648 172.525503 
L 54.412054 177.160635 
L 55.802279 179.277927 
L 56.914459 180.500465 
L 58.02664 181.311362 
L 61.641226 183.447372 
L 63.309496 184.559501 
L 63.865586 184.738152 
L 64.421676 184.721591 
L 64.977767 184.443072 
L 65.533857 183.835878 
L 66.089947 182.839258 
L 66.646037 181.407339 
L 67.480172 178.40457 
L 68.314307 174.454707 
L 69.982578 165.004426 
L 71.094758 159.162556 
L 71.928893 155.812027 
L 72.484984 154.200904 
L 73.041074 153.084464 
L 73.597164 152.40377 
L 74.153254 152.0645 
L 74.709344 151.954986 
L 76.933705 151.899887 
L 77.76784 151.531333 
L 78.601975 150.824087 
L 79.158065 150.109902 
L 79.714155 149.144301 
L 80.548291 147.096592 
L 81.382426 144.199684 
L 82.494606 139.108014 
L 84.162877 131.191569 
L 84.718967 129.521562 
L 84.997012 129.044177 
L 85.275057 128.85501 
L 85.553102 128.986975 
L 85.831147 129.468776 
L 86.109192 130.323969 
L 86.665282 133.213937 
L 87.221372 137.706562 
L 88.055508 147.268094 
L 89.167688 164.075443 
L 91.948139 208.865058 
L 92.782274 218.653163 
L 93.616409 225.718227 
L 94.172499 228.880773 
L 94.72859 230.855927 
L 95.006635 231.423953 
L 95.28468 231.729311 
L 95.562725 231.786618 
L 95.84077 231.611279 
L 96.118815 231.219487 
L 96.674905 229.853629 
L 97.230995 227.826792 
L 98.06513 223.852771 
L 99.733401 214.232644 
L 101.123626 206.566748 
L 101.957761 202.920219 
L 102.513852 201.09238 
L 103.069942 199.847735 
L 103.626032 199.26052 
L 103.904077 199.232996 
L 104.182122 199.391143 
L 104.460167 199.740008 
L 105.016257 201.020142 
L 105.572347 203.078786 
L 106.128438 205.890575 
L 106.962573 211.380347 
L 108.074753 220.501611 
L 111.133249 247.034291 
L 112.245429 254.333658 
L 113.079564 258.598973 
L 113.9137 261.864619 
L 114.747835 264.198996 
L 115.303925 265.268276 
L 115.860015 265.964559 
L 116.416105 266.30049 
L 116.972195 266.291894 
L 117.528286 265.961799 
L 118.084376 265.344431 
L 118.918511 263.987643 
L 121.698962 258.679966 
L 122.255052 258.069381 
L 122.811142 257.761709 
L 123.367232 257.790284 
L 123.923322 258.166488 
L 124.479413 258.87765 
L 125.313548 260.486511 
L 126.425728 263.284683 
L 127.815953 266.805135 
L 128.650089 268.378482 
L 129.206179 269.064829 
L 129.762269 269.430176 
L 130.318359 269.483067 
L 130.874449 269.262591 
L 131.708584 268.561787 
L 133.6549 266.595307 
L 134.489035 266.122075 
L 135.32317 265.970158 
L 136.435351 266.107091 
L 137.825576 266.292656 
L 138.659711 266.161428 
L 139.493847 265.767611 
L 140.327982 265.121301 
L 141.440162 263.957018 
L 143.108433 261.8239 
L 145.610838 258.189384 
L 147.835199 255.069136 
L 149.225424 253.558616 
L 150.337604 252.673141 
L 151.449785 252.054196 
L 152.561965 251.687903 
L 153.3961 251.600443 
L 154.230236 251.711141 
L 155.064371 252.05367 
L 155.898506 252.638309 
L 157.010686 253.729618 
L 159.235047 256.036445 
L 160.069182 256.546322 
L 160.903317 256.745425 
L 161.737453 256.682545 
L 163.405723 256.454236 
L 163.961813 256.603551 
L 164.517903 256.97292 
L 165.073993 257.599698 
L 165.908129 259.036638 
L 166.742264 260.983717 
L 168.966624 267.137202 
L 170.35685 270.615647 
L 172.02512 274.163229 
L 173.693391 277.220808 
L 175.083616 279.330871 
L 176.473841 281.039258 
L 180.088427 284.903607 
L 181.756698 286.433921 
L 182.868878 287.162722 
L 183.981058 287.582511 
L 184.815194 287.665081 
L 185.649329 287.518422 
L 186.483464 287.098265 
L 187.317599 286.337445 
L 188.151735 285.147952 
L 188.98587 283.436331 
L 189.820005 281.131844 
L 190.65414 278.222948 
L 191.766321 273.551724 
L 195.380907 257.458743 
L 197.605267 248.507823 
L 198.717447 242.92055 
L 199.829628 236.052486 
L 201.775943 221.992677 
L 203.166169 212.671837 
L 204.000304 208.364013 
L 204.834439 205.389977 
L 205.390529 204.193386 
L 205.946619 203.5935 
L 206.224664 203.49613 
L 206.780755 203.646444 
L 207.336845 204.162156 
L 208.17098 205.356592 
L 210.117296 208.347005 
L 210.951431 209.231351 
L 211.785566 209.773378 
L 212.341656 209.930999 
L 212.897746 209.908917 
L 213.453836 209.682475 
L 214.009927 209.219574 
L 214.566017 208.484753 
L 215.122107 207.446388 
L 215.956242 205.274811 
L 216.790377 202.369175 
L 217.902558 197.539856 
L 221.517144 180.637266 
L 222.629324 176.817264 
L 223.741504 173.777272 
L 225.68782 169.33044 
L 227.078045 165.901941 
L 228.190225 162.61771 
L 229.580451 157.756583 
L 232.916992 145.432369 
L 234.029172 142.419006 
L 234.863307 140.764772 
L 235.697442 139.632875 
L 236.253533 139.159485 
L 236.809623 138.91033 
L 237.365713 138.896766 
L 237.921803 139.142556 
L 238.477893 139.686029 
L 239.033983 140.575342 
L 239.590073 141.863546 
L 240.146164 143.601323 
L 240.980299 147.133448 
L 241.814434 151.815293 
L 242.926614 159.709025 
L 244.31684 171.500939 
L 247.931426 203.108045 
L 249.043606 210.975358 
L 249.877741 215.802442 
L 250.711876 219.473182 
L 251.267967 221.171527 
L 251.824057 222.204215 
L 252.102102 222.456419 
L 252.380147 222.526713 
L 252.658192 222.412361 
L 252.936237 222.111787 
L 253.492327 220.953444 
L 254.048417 219.06914 
L 254.882553 214.980872 
L 255.716688 209.595199 
L 256.828868 200.953896 
L 261.277589 164.186509 
L 262.38977 156.982777 
L 263.50195 151.200948 
L 264.336085 147.936433 
L 265.17022 145.649348 
L 265.72631 144.662611 
L 266.282401 144.080023 
L 266.838491 143.862308 
L 267.394581 143.957574 
L 267.950671 144.305046 
L 268.784806 145.158608 
L 273.511573 150.82556 
L 274.901798 152.456713 
L 276.013978 154.149275 
L 277.126159 156.290253 
L 278.794429 160.139828 
L 280.740744 164.605641 
L 281.852925 166.632004 
L 282.68706 167.773996 
L 283.521195 168.570935 
L 284.35533 169.037279 
L 285.189466 169.208386 
L 286.023601 169.127761 
L 286.857736 168.834653 
L 287.969916 168.156745 
L 289.082097 167.167512 
L 290.194277 165.86343 
L 291.584502 163.838512 
L 295.477133 157.81757 
L 298.257584 154.308842 
L 300.481945 151.694422 
L 301.594125 150.762837 
L 302.42826 150.360109 
L 303.262396 150.23724 
L 304.096531 150.37157 
L 305.208711 150.848798 
L 307.711117 152.362235 
L 311.881793 154.912671 
L 312.993973 155.93947 
L 314.106153 157.241133 
L 315.496379 159.262397 
L 316.886604 161.68489 
L 318.83292 165.595742 
L 321.05728 170.055666 
L 322.169461 171.747965 
L 323.003596 172.574241 
L 323.559686 172.87371 
L 324.115776 172.962773 
L 324.671866 172.84758 
L 325.506002 172.341489 
L 326.618182 171.268634 
L 327.730362 170.193466 
L 328.286452 169.832693 
L 328.842542 169.679068 
L 329.398633 169.784876 
L 329.954723 170.185396 
L 330.510813 170.894507 
L 331.344948 172.515198 
L 332.179083 174.700235 
L 333.847354 179.979074 
L 335.237579 184.21103 
L 336.071714 186.261736 
L 336.90585 187.800383 
L 337.739985 188.812645 
L 338.57412 189.387374 
L 339.964345 189.884606 
L 340.798481 190.283181 
L 341.632616 190.982802 
L 342.466751 192.027635 
L 344.413067 194.820548 
L 344.969157 195.256767 
L 345.525247 195.32154 
L 345.803292 195.184633 
L 346.359382 194.528518 
L 346.915472 193.332347 
L 347.471562 191.597883 
L 348.305698 188.096068 
L 349.417878 182.272258 
L 351.364193 171.925328 
L 352.198329 168.43826 
L 353.032464 165.731071 
L 354.144644 163.026694 
L 355.53487 159.894196 
L 356.369005 157.537133 
L 357.481185 153.636086 
L 359.427501 146.604644 
L 359.983591 145.187052 
L 360.539681 144.236119 
L 361.095771 143.800532 
L 361.373816 143.77824 
L 361.929906 144.102735 
L 362.485996 144.862924 
L 363.320132 146.61048 
L 366.100582 153.241087 
L 366.934718 154.370513 
L 367.490808 154.795796 
L 368.046898 154.989221 
L 368.881033 154.98207 
L 369.993213 154.916141 
L 370.549304 155.108882 
L 371.105394 155.592787 
L 371.661484 156.447191 
L 372.217574 157.718045 
L 373.051709 160.410566 
L 373.885845 163.914011 
L 375.554115 172.238757 
L 379.168701 191.390946 
L 380.280881 198.836551 
L 381.671107 210.021507 
L 384.729602 236.040236 
L 385.841783 243.248227 
L 386.675918 247.425505 
L 387.510053 250.60377 
L 388.344188 252.923741 
L 389.178324 254.564622 
L 390.012459 255.715498 
L 391.124639 256.801602 
L 393.349 258.770291 
L 394.46118 260.157442 
L 395.57336 262.001578 
L 396.685541 264.422416 
L 397.519676 266.732581 
L 398.353811 269.604253 
L 399.187946 273.17807 
L 400.300127 279.20101 
L 401.412307 286.586811 
L 404.470803 308.08723 
L 405.304938 312.232437 
L 405.861028 314.249837 
L 406.417118 315.624974 
L 406.973208 316.350148 
L 407.251253 316.472727 
L 407.529299 316.439 
L 407.807344 316.253014 
L 408.363434 315.440776 
L 408.919524 314.071133 
L 409.475614 312.180335 
L 410.309749 308.446662 
L 411.143885 303.74271 
L 412.256065 296.175629 
L 413.64629 285.101974 
L 417.816966 250.062664 
L 418.651102 245.080981 
L 419.485237 241.570018 
L 420.041327 240.133446 
L 420.597417 239.428199 
L 420.875462 239.339898 
L 421.153507 239.418104 
L 421.709597 240.032475 
L 422.265688 241.172915 
L 423.099823 243.613416 
L 425.046138 250.621909 
L 426.158319 254.23521 
L 426.436364 255.020635 
L 426.436364 255.020635 
" clip-path="url(#p91f78df405)" style="fill: none; stroke: #ff00ff; stroke-width: 3; stroke-linecap: square"/>
   </g>
   <g id="patch_3">
    <path d="M 7.2 331.2 
L 7.2 7.2 
" style="fill: none; stroke: #000000; stroke-width: 0.8; stroke-linejoin: miter; stroke-linecap: square"/>
   </g>
   <g id="patch_4">
    <path d="M 446.4 331.2 
L 446.4 7.2 
" style="fill: none; stroke: #000000; stroke-width: 0.8; stroke-linejoin: miter; stroke-linecap: square"/>
   </g>
   <g id="patch_5">
    <path d="M 7.2 331.2 
L 446.4 331.2 
" style="fill: none; stroke: #000000; stroke-width: 0.8; stroke-linejoin: miter; stroke-linecap: square"/>
   </g>
   <g id="patch_6">
    <path d="M 7.2 7.2 
L 446.4 7.2 
" style="fill: none; stroke: #000000; stroke-width: 0.8; stroke-linejoin: miter; stroke-linecap: square"/>
   </g>
  </g>
 </g>
 <defs>
  <clipPath id="p91f78df405">
   <rect x="7.2" y="7.2" width="439.2" height="324"/>
  </clipPath>
 </defs>
</svg>
