<?xml version="1.0" encoding="utf-8" standalone="no"?>
<!DOCTYPE svg PUBLIC "-//W3C//DTD SVG 1.1//EN"
  "http://www.w3.org/Graphics/SVG/1.1/DTD/svg11.dtd">
<svg xmlns:xlink="http://www.w3.org/1999/xlink" width="453.6pt" height="338.4pt" viewBox="0 0 453.6 338.4" xmlns="http://www.w3.org/2000/svg" version="1.1">
 <metadata>
  <rdf:RDF xmlns:dc="http://purl.org/dc/elements/1.1/" xmlns:cc="http://creativecommons.org/ns#" xmlns:rdf="http://www.w3.org/1999/02/22-rdf-syntax-ns#">
   <cc:Work>
    <dc:type rdf:resource="http://purl.org/dc/dcmitype/StillImage"/>
    <dc:date>2025-05-15T17:21:20.936255</dc:date>
    <dc:format>image/svg+xml</dc:format>
    <dc:creator>
     <cc:Agent>
      <dc:title>Matplotlib v3.10.1, https://matplotlib.org/</dc:title>
     </cc:Agent>
    </dc:creator>
   </cc:Work>
  </rdf:RDF>
 </metadata>
 <defs>
  <style type="text/css">*{stroke-linejoin: round; stroke-linecap: butt}</style>
 </defs>
 <g id="figure_1">
  <g id="patch_1">
   <path d="M 0 338.4 
L 453.6 338.4 
L 453.6 0 
L 0 0 
z
" style="fill: #ffffff"/>
  </g>
  <g id="axes_1">
   <g id="patch_2">
    <path d="M 7.2 331.2 
L 446.4 331.2 
L 446.4 7.2 
L 7.2 7.2 
z
" style="fill: #ffffff"/>
   </g>
   <g id="matplotlib.axis_1"/>
   <g id="matplotlib.axis_2"/>
   <g id="line2d_1">
    <path d="M 27.163636 21.927273 
L 28.275817 32.419937 
L 29.387997 44.779851 
L 30.778222 63.184838 
L 32.168448 85.186579 
L 33.558673 111.041172 
L 34.948898 140.842232 
L 36.617169 181.234386 
L 40.231755 270.582114 
L 41.343935 291.791556 
L 42.17807 303.878203 
L 42.734161 309.810891 
L 43.290251 313.907493 
L 43.846341 316.098932 
L 44.124386 316.472727 
L 44.402431 316.36841 
L 44.680476 315.793308 
L 44.958521 314.758702 
L 45.514611 311.378074 
L 46.070701 306.401735 
L 46.904837 296.477133 
L 48.295062 275.907919 
L 50.241378 246.635977 
L 51.353558 232.691261 
L 52.465738 221.335779 
L 53.577918 212.182891 
L 54.690099 204.674622 
L 55.802279 198.443845 
L 56.914459 193.428315 
L 57.748595 190.54696 
L 58.58273 188.504011 
L 59.13882 187.630119 
L 59.69491 187.147108 
L 60.251 187.039951 
L 60.80709 187.280983 
L 61.363181 187.830273 
L 62.197316 189.117768 
L 63.587541 191.966231 
L 64.977767 194.717498 
L 65.811902 195.866714 
L 66.367992 196.309093 
L 66.924082 196.45396 
L 67.480172 196.291145 
L 68.036262 195.83378 
L 68.870398 194.679542 
L 70.260623 192.070959 
L 71.372803 190.142907 
L 71.928893 189.464435 
L 72.484984 189.063593 
L 73.041074 188.981012 
L 73.597164 189.235012 
L 74.153254 189.822958 
L 74.709344 190.723278 
L 75.543479 192.575378 
L 76.65566 195.718307 
L 80.270246 206.567765 
L 81.382426 209.103606 
L 82.772651 211.699263 
L 84.997012 215.299556 
L 86.109192 216.784776 
L 86.665282 217.278779 
L 87.221372 217.499146 
L 87.777463 217.362513 
L 88.333553 216.799432 
L 88.889643 215.765813 
L 89.445733 214.252723 
L 90.279868 211.165286 
L 91.392049 205.995092 
L 93.060319 198.096602 
L 93.894454 194.978826 
L 94.72859 192.722673 
L 95.28468 191.701857 
L 95.84077 191.022232 
L 96.39686 190.617932 
L 97.230995 190.351294 
L 98.899266 190.055345 
L 99.733401 189.596046 
L 100.567536 188.750971 
L 101.401671 187.464711 
L 102.235807 185.736894 
L 103.347987 182.843642 
L 106.128438 175.014477 
L 106.684528 173.962868 
L 107.240618 173.30251 
L 107.518663 173.147063 
L 107.796708 173.121375 
L 108.074753 173.233802 
L 108.630843 173.898483 
L 109.186933 175.174946 
L 109.743024 177.066771 
L 110.577159 180.990719 
L 111.689339 187.896017 
L 113.35761 200.286106 
L 115.58197 216.711993 
L 116.972195 225.388085 
L 118.084376 231.147378 
L 119.196556 235.867618 
L 120.308736 239.658267 
L 121.420917 242.656577 
L 122.533097 244.948545 
L 123.367232 246.199979 
L 124.201367 247.008456 
L 124.757458 247.27674 
L 125.313548 247.313708 
L 125.869638 247.113843 
L 126.425728 246.68052 
L 127.259863 245.626606 
L 128.093998 244.174484 
L 129.762269 240.668133 
L 131.152494 237.969312 
L 131.98663 236.791362 
L 132.54272 236.268954 
L 133.09881 235.987208 
L 133.6549 235.962014 
L 134.21099 236.201852 
L 134.76708 236.707835 
L 135.32317 237.476668 
L 136.157306 239.106013 
L 136.991441 241.278474 
L 138.103621 244.96283 
L 139.215801 249.470196 
L 140.606027 256.076169 
L 144.776703 276.852823 
L 145.610838 279.673992 
L 146.166928 281.04168 
L 146.723018 281.933356 
L 147.279109 282.291508 
L 147.557154 282.250999 
L 147.835199 282.051999 
L 148.391289 281.133771 
L 148.947379 279.430736 
L 149.503469 276.806181 
L 150.059559 273.090002 
L 150.61565 268.085999 
L 151.449785 257.711813 
L 152.28392 243.357568 
L 153.118055 224.725586 
L 154.230236 193.827016 
L 157.288731 102.812935 
L 158.122867 87.350394 
L 158.678957 81.240853 
L 158.957002 79.543665 
L 159.235047 78.76314 
L 159.513092 78.891828 
L 159.791137 79.908527 
L 160.069182 81.779728 
L 160.625272 87.896679 
L 161.181362 96.771237 
L 162.015498 113.952126 
L 165.352038 189.271033 
L 166.186174 201.859135 
L 167.020309 210.587385 
L 167.576399 214.349836 
L 168.132489 216.638057 
L 168.410534 217.291541 
L 168.688579 217.655457 
L 168.966624 217.759362 
L 169.24467 217.633391 
L 169.80076 216.8103 
L 170.35685 215.41293 
L 171.46903 211.665094 
L 173.971436 202.744635 
L 175.361661 198.591881 
L 176.473841 195.866508 
L 177.307977 194.299489 
L 178.142112 193.264059 
L 178.698202 192.914881 
L 179.254292 192.855601 
L 179.810382 193.083336 
L 180.366473 193.579068 
L 181.200608 194.743063 
L 182.312788 196.79898 
L 184.259104 200.482431 
L 185.371284 202.124003 
L 188.707825 206.452004 
L 189.820005 208.637597 
L 191.488276 212.608352 
L 193.156546 216.396943 
L 194.268726 218.336893 
L 195.102861 219.393112 
L 195.936997 220.060634 
L 196.493087 220.244609 
L 197.049177 220.163716 
L 197.605267 219.752088 
L 198.161357 218.9362 
L 198.717447 217.644712 
L 199.273538 215.823817 
L 200.107673 212.059885 
L 200.941808 207.16485 
L 202.610079 195.487443 
L 204.000304 186.396759 
L 204.834439 182.211277 
L 205.668574 179.278958 
L 206.224664 178.044856 
L 206.780755 177.368525 
L 207.0588 177.230327 
L 207.336845 177.220365 
L 207.61489 177.33485 
L 208.17098 177.924649 
L 208.72707 178.981568 
L 209.28316 180.494164 
L 210.117296 183.59251 
L 210.951431 187.597762 
L 214.009927 203.823167 
L 214.566017 205.408793 
L 215.122107 206.164412 
L 215.400152 206.222745 
L 215.678197 206.078085 
L 216.234287 205.255817 
L 217.068422 203.152105 
L 217.902558 201.007885 
L 218.458648 200.170138 
L 218.736693 200.053101 
L 219.014738 200.181006 
L 219.292783 200.576909 
L 219.848873 202.225767 
L 220.404963 205.019972 
L 221.239099 211.091515 
L 222.351279 221.444418 
L 224.575639 242.508665 
L 225.965865 253.36401 
L 227.35609 262.366268 
L 228.190225 266.453525 
L 228.746316 268.258324 
L 229.024361 268.7923 
L 229.302406 269.036996 
L 229.580451 268.959725 
L 229.858496 268.529902 
L 230.136541 267.719284 
L 230.692631 264.862424 
L 231.248721 260.251358 
L 231.804811 253.840311 
L 232.638947 241.003149 
L 233.751127 218.989141 
L 236.531578 159.311522 
L 237.365713 147.057325 
L 237.921803 141.823034 
L 238.199848 140.209043 
L 238.477893 139.298225 
L 238.755938 139.104082 
L 239.033983 139.629166 
L 239.312028 140.86405 
L 239.868119 145.369316 
L 240.424209 152.319033 
L 241.258344 166.278857 
L 244.038795 218.215574 
L 244.87293 228.566665 
L 245.42902 233.31177 
L 245.98511 236.369319 
L 246.5412 237.888337 
L 246.819245 238.13822 
L 247.09729 238.089849 
L 247.375336 237.777475 
L 247.931426 236.500683 
L 248.765561 233.475573 
L 250.989921 224.57121 
L 251.824057 222.466758 
L 252.380147 221.609498 
L 252.936237 221.150322 
L 253.492327 221.008461 
L 254.326462 221.141883 
L 255.160598 221.309844 
L 255.716688 221.245459 
L 256.272778 220.9386 
L 256.828868 220.342792 
L 257.384958 219.450334 
L 258.219093 217.62981 
L 261.277589 210.188231 
L 261.833679 209.457642 
L 262.38977 209.067338 
L 262.94586 209.038439 
L 263.50195 209.374361 
L 264.05804 210.065512 
L 264.61413 211.092709 
L 265.448265 213.210459 
L 266.282401 215.943283 
L 267.394581 220.398943 
L 268.784806 226.964243 
L 271.565257 240.45777 
L 272.399392 243.533968 
L 273.233527 245.759493 
L 273.789618 246.719505 
L 274.345708 247.257515 
L 274.901798 247.393737 
L 275.457888 247.163284 
L 276.013978 246.613047 
L 276.848113 245.305915 
L 277.960294 242.981467 
L 279.628564 239.412172 
L 280.184654 238.546308 
L 280.740744 238.007886 
L 281.296835 237.899864 
L 281.57488 238.038473 
L 282.13097 238.758153 
L 282.68706 240.134157 
L 283.24315 242.229059 
L 283.79924 245.07925 
L 284.633376 250.770453 
L 285.467511 258.005003 
L 287.135781 275.219978 
L 288.247962 286.103729 
L 289.082097 292.134106 
L 289.638187 294.492188 
L 289.916232 295.051029 
L 290.194277 295.148677 
L 290.472322 294.753639 
L 290.750367 293.838869 
L 291.306457 290.367016 
L 291.862547 284.628595 
L 292.418638 276.62801 
L 293.252773 260.706665 
L 294.364953 233.912354 
L 296.589314 178.461753 
L 297.423449 163.891423 
L 297.979539 157.493632 
L 298.535629 154.010952 
L 298.813674 153.368048 
L 299.091719 153.434203 
L 299.369764 154.177019 
L 299.64781 155.552653 
L 300.2039 159.984312 
L 301.038035 169.838643 
L 304.096531 210.844143 
L 304.930666 217.63689 
L 305.486756 220.632236 
L 306.042846 222.463094 
L 306.320891 222.976033 
L 306.598936 223.244277 
L 306.876982 223.286679 
L 307.155027 223.124358 
L 307.711117 222.268951 
L 308.267207 220.846881 
L 309.101342 217.998171 
L 313.828108 200.142021 
L 315.496379 195.241018 
L 316.608559 192.560475 
L 317.720739 190.503406 
L 318.554875 189.39124 
L 319.667055 188.356222 
L 321.61337 186.740873 
L 322.447506 185.65913 
L 323.281641 184.165553 
L 324.393821 181.558041 
L 326.340137 176.684536 
L 326.896227 175.758816 
L 327.452317 175.283667 
L 327.730362 175.252422 
L 328.008407 175.374564 
L 328.286452 175.658739 
L 328.842542 176.73192 
L 329.398633 178.472045 
L 330.232768 182.178632 
L 331.622993 190.021464 
L 332.735173 196.069173 
L 333.569309 199.662056 
L 334.403444 202.274632 
L 335.237579 204.126073 
L 336.90585 207.402219 
L 337.739985 209.665823 
L 338.852165 213.601339 
L 341.632616 224.169339 
L 343.300886 229.002211 
L 344.413067 232.472212 
L 345.525247 236.855253 
L 348.583743 250.041469 
L 349.139833 251.287427 
L 349.417878 251.652701 
L 349.695923 251.832271 
L 349.973968 251.819221 
L 350.252013 251.609723 
L 350.808103 250.598252 
L 351.364193 248.81626 
L 351.920284 246.31397 
L 352.754419 241.376986 
L 353.866599 233.109599 
L 356.369005 213.203172 
L 357.20314 208.661391 
L 357.75923 206.892202 
L 358.037275 206.451633 
L 358.31532 206.324798 
L 358.593365 206.517459 
L 358.87141 207.027888 
L 359.427501 208.958493 
L 359.983591 211.952563 
L 360.817726 217.811562 
L 362.207951 228.057595 
L 363.042087 232.455786 
L 363.598177 234.126463 
L 363.876222 234.544266 
L 364.154267 234.683493 
L 364.432312 234.552253 
L 364.710357 234.164995 
L 365.266447 232.701553 
L 365.822537 230.485002 
L 366.934718 224.674951 
L 368.881033 214.080233 
L 369.715168 210.538314 
L 370.549304 208.008525 
L 371.105394 206.986886 
L 371.661484 206.552904 
L 371.939529 206.566571 
L 372.217574 206.736797 
L 372.773664 207.547703 
L 373.329754 208.971008 
L 373.885845 210.967068 
L 374.71998 214.893692 
L 375.83216 221.408562 
L 378.334566 236.917251 
L 379.168701 240.532859 
L 379.724791 241.946407 
L 380.002836 242.274219 
L 380.280881 242.315386 
L 380.558926 242.047513 
L 380.836971 241.450757 
L 381.393062 239.213335 
L 381.949152 235.540917 
L 382.505242 230.471129 
L 383.339377 220.607454 
L 386.397873 179.840557 
L 386.953963 175.186925 
L 387.510053 172.072689 
L 388.066143 170.534034 
L 388.344188 170.333593 
L 388.622233 170.488092 
L 388.900279 170.972339 
L 389.456369 172.80863 
L 390.012459 175.576076 
L 391.124639 182.779298 
L 393.070955 195.893019 
L 394.183135 201.753706 
L 395.01727 205.068919 
L 395.851405 207.491469 
L 396.685541 209.138186 
L 397.519676 210.168512 
L 398.353811 210.75267 
L 399.187946 211.0289 
L 400.022082 211.064057 
L 400.856217 210.830599 
L 401.412307 210.473312 
L 401.968397 209.906073 
L 402.524487 209.091297 
L 403.358622 207.369491 
L 404.470803 204.295063 
L 405.861028 200.290099 
L 406.417118 199.109843 
L 406.973208 198.402472 
L 407.251253 198.264975 
L 407.529299 198.286834 
L 407.807344 198.475379 
L 408.363434 199.360961 
L 408.919524 200.901139 
L 409.753659 204.243646 
L 411.42193 212.696655 
L 412.53411 217.685179 
L 413.368245 220.251113 
L 413.924335 221.24937 
L 414.480425 221.646466 
L 414.75847 221.623083 
L 415.036516 221.457674 
L 415.592606 220.730461 
L 416.148696 219.539584 
L 416.982831 217.103449 
L 419.485237 209.066103 
L 420.041327 207.952415 
L 420.597417 207.315068 
L 420.875462 207.197701 
L 421.153507 207.223307 
L 421.431552 207.396661 
L 421.987642 208.198634 
L 422.543733 209.612553 
L 423.099823 211.629855 
L 423.933958 215.740042 
L 424.768093 221.078609 
L 425.880273 230.034472 
L 426.436364 235.323679 
L 426.436364 235.323679 
" clip-path="url(#pefa3091aef)" style="fill: none; stroke-dasharray: 11.1,4.8; stroke-dashoffset: 0; stroke: #000000; stroke-width: 3"/>
   </g>
   <g id="line2d_2">
    <path d="M 27.163636 128.578731 
L 27.441681 129.106079 
L 27.997772 129.515772 
L 30.500177 130.935084 
L 31.612358 131.842279 
L 32.724538 133.090707 
L 33.558673 134.372069 
L 36.339124 139.216756 
L 37.451304 141.501808 
L 40.231755 147.843489 
L 42.17807 152.864577 
L 43.846341 157.74759 
L 45.514611 163.283264 
L 47.182882 169.580979 
L 49.129197 178.161317 
L 53.021828 195.969302 
L 54.412054 200.584442 
L 55.524234 203.592509 
L 56.358369 205.331646 
L 57.192504 206.552451 
L 57.748595 207.041926 
L 58.304685 207.237757 
L 58.860775 207.105282 
L 59.416865 206.60745 
L 59.972955 205.707294 
L 60.529045 204.36443 
L 61.085135 202.536413 
L 61.919271 205.146148 
L 62.475361 206.285895 
L 63.031451 206.918796 
L 63.587541 207.10133 
L 64.143631 206.893354 
L 64.699721 206.355344 
L 65.533857 205.094031 
L 68.592352 199.618419 
L 68.870398 199.30868 
L 69.148443 199.938492 
L 69.982578 204.42935 
L 70.538668 206.557391 
L 71.372803 208.472311 
L 72.206938 209.937813 
L 73.319119 211.458683 
L 75.265434 214.023464 
L 76.09957 215.546887 
L 76.933705 217.608526 
L 77.76784 220.420268 
L 78.045885 221.556022 
L 78.601975 222.489605 
L 79.714155 224.048679 
L 80.548291 224.513453 
L 81.382426 224.754238 
L 82.494606 224.803968 
L 83.884832 224.60155 
L 85.831147 224.312682 
L 86.109192 224.313876 
L 86.387237 224.470475 
L 87.221372 225.454241 
L 88.055508 226.188206 
L 89.167688 226.858897 
L 91.392049 227.919192 
L 91.670094 227.954884 
L 93.338364 227.012491 
L 98.343175 224.985308 
L 99.733401 224.782973 
L 101.123626 224.833485 
L 102.235807 225.08275 
L 104.182122 225.678641 
L 105.016257 225.788392 
L 105.572347 225.92412 
L 109.186933 221.980206 
L 110.855204 220.702014 
L 112.801519 219.525834 
L 115.58197 217.954905 
L 116.972195 215.985768 
L 118.084376 214.768256 
L 119.196556 213.915195 
L 120.308736 213.370722 
L 121.420917 213.056165 
L 122.533097 212.982435 
L 123.089187 212.943286 
L 124.479413 212.334098 
L 125.313548 212.405522 
L 126.147683 212.729382 
L 128.650089 214.037955 
L 129.206179 213.77741 
L 129.762269 213.717841 
L 130.318359 213.85361 
L 131.152494 214.356381 
L 131.430539 214.551759 
L 131.708584 214.505282 
L 132.820765 213.944424 
L 133.6549 213.55552 
L 134.489035 212.799819 
L 135.601215 212.172517 
L 136.713396 211.562835 
L 137.547531 210.845214 
L 138.103621 210.118206 
L 138.659711 209.069767 
L 139.215801 208.372111 
L 139.771892 207.939776 
L 140.606027 207.580801 
L 141.718207 207.149907 
L 142.274297 206.803899 
L 143.108433 206.972642 
L 145.054748 207.603731 
L 145.610838 207.543421 
L 146.166928 207.074489 
L 148.669334 204.500939 
L 150.337604 202.947588 
L 151.17174 202.410648 
L 152.005875 202.126473 
L 152.28392 202.152325 
L 153.674145 202.811202 
L 154.508281 203.081463 
L 155.620461 203.704606 
L 156.732641 204.576151 
L 157.844821 205.440697 
L 158.678957 205.957713 
L 159.513092 205.973356 
L 160.625272 205.834418 
L 161.737453 205.614463 
L 162.849633 205.646409 
L 164.239858 205.961747 
L 166.186174 206.712632 
L 168.688579 207.691993 
L 170.634895 208.110084 
L 172.859256 208.963021 
L 178.976247 211.530561 
L 180.366473 211.941242 
L 182.034743 212.125381 
L 184.537149 212.616667 
L 185.093239 212.953371 
L 187.595644 214.678924 
L 190.932185 216.66391 
L 195.658952 219.190983 
L 200.107673 221.408068 
L 200.941808 221.79302 
L 201.497898 222.208106 
L 209.561205 225.628994 
L 212.063611 225.873073 
L 213.731881 225.843803 
L 215.400152 225.582928 
L 216.234287 225.277593 
L 217.624513 224.457013 
L 220.404963 223.226575 
L 223.185414 222.127213 
L 224.853684 221.189101 
L 226.24391 220.149554 
L 227.35609 219.041876 
L 228.746316 217.221434 
L 230.136541 215.288359 
L 234.029172 215.094175 
L 239.868119 214.890398 
L 241.814434 214.46218 
L 242.370524 214.290185 
L 243.204659 213.57351 
L 244.31684 212.599583 
L 245.42902 212.899113 
L 246.819245 213.002648 
L 248.209471 212.857411 
L 249.877741 212.428082 
L 251.824057 211.682878 
L 257.106913 209.406471 
L 264.05804 209.781543 
L 264.61413 209.81814 
L 268.784806 208.069781 
L 270.453077 207.697138 
L 271.287212 207.497726 
L 275.735933 205.947256 
L 281.296835 204.251468 
L 283.79924 203.560522 
L 285.467511 203.779571 
L 289.360142 204.480808 
L 292.696683 205.311722 
L 296.867359 206.463695 
L 299.091719 207.379947 
L 301.038035 208.393971 
L 302.42826 209.118797 
L 304.652621 209.310099 
L 306.876982 209.740664 
L 308.823297 210.336226 
L 310.769613 211.158206 
L 312.715928 212.229163 
L 314.940289 213.738219 
L 316.886604 215.314129 
L 317.442694 215.771 
L 329.398633 215.588836 
L 333.013219 215.32014 
L 337.46194 214.658752 
L 341.910661 214.051128 
L 344.413067 213.935532 
L 347.193517 213.984356 
L 348.027653 214.452259 
L 350.252013 215.661661 
L 352.476374 216.580136 
L 355.53487 217.574234 
L 360.539681 219.18102 
L 363.042087 220.227977 
L 365.266447 221.396294 
L 365.822537 221.628558 
L 366.656673 221.629628 
L 369.715168 221.338866 
L 374.16389 220.671592 
L 382.227197 219.42901 
L 385.285693 219.196746 
L 388.344188 219.191394 
L 389.734414 219.172457 
L 393.070955 218.703113 
L 404.192758 217.632362 
L 410.309749 217.386307 
L 414.20238 217.213818 
L 418.651102 215.887955 
L 425.046138 213.654032 
L 426.436364 213.171721 
L 426.436364 213.171721 
" clip-path="url(#pefa3091aef)" style="fill: none; stroke: #ff00ff; stroke-width: 3; stroke-linecap: square"/>
   </g>
   <g id="patch_3">
    <path d="M 7.2 331.2 
L 7.2 7.2 
" style="fill: none; stroke: #000000; stroke-width: 0.8; stroke-linejoin: miter; stroke-linecap: square"/>
   </g>
   <g id="patch_4">
    <path d="M 446.4 331.2 
L 446.4 7.2 
" style="fill: none; stroke: #000000; stroke-width: 0.8; stroke-linejoin: miter; stroke-linecap: square"/>
   </g>
   <g id="patch_5">
    <path d="M 7.2 331.2 
L 446.4 331.2 
" style="fill: none; stroke: #000000; stroke-width: 0.8; stroke-linejoin: miter; stroke-linecap: square"/>
   </g>
   <g id="patch_6">
    <path d="M 7.2 7.2 
L 446.4 7.2 
" style="fill: none; stroke: #000000; stroke-width: 0.8; stroke-linejoin: miter; stroke-linecap: square"/>
   </g>
  </g>
 </g>
 <defs>
  <clipPath id="pefa3091aef">
   <rect x="7.2" y="7.2" width="439.2" height="324"/>
  </clipPath>
 </defs>
</svg>
