<?xml version="1.0" encoding="utf-8" standalone="no"?>
<!DOCTYPE svg PUBLIC "-//W3C//DTD SVG 1.1//EN"
  "http://www.w3.org/Graphics/SVG/1.1/DTD/svg11.dtd">
<svg xmlns:xlink="http://www.w3.org/1999/xlink" width="453.6pt" height="338.4pt" viewBox="0 0 453.6 338.4" xmlns="http://www.w3.org/2000/svg" version="1.1">
 <metadata>
  <rdf:RDF xmlns:dc="http://purl.org/dc/elements/1.1/" xmlns:cc="http://creativecommons.org/ns#" xmlns:rdf="http://www.w3.org/1999/02/22-rdf-syntax-ns#">
   <cc:Work>
    <dc:type rdf:resource="http://purl.org/dc/dcmitype/StillImage"/>
    <dc:date>2025-05-15T01:38:59.362801</dc:date>
    <dc:format>image/svg+xml</dc:format>
    <dc:creator>
     <cc:Agent>
      <dc:title>Matplotlib v3.10.1, https://matplotlib.org/</dc:title>
     </cc:Agent>
    </dc:creator>
   </cc:Work>
  </rdf:RDF>
 </metadata>
 <defs>
  <style type="text/css">*{stroke-linejoin: round; stroke-linecap: butt}</style>
 </defs>
 <g id="figure_1">
  <g id="patch_1">
   <path d="M 0 338.4 
L 453.6 338.4 
L 453.6 0 
L 0 0 
z
" style="fill: #ffffff"/>
  </g>
  <g id="axes_1">
   <g id="patch_2">
    <path d="M 7.2 331.2 
L 446.4 331.2 
L 446.4 7.2 
L 7.2 7.2 
z
" style="fill: #ffffff"/>
   </g>
   <g id="matplotlib.axis_1"/>
   <g id="matplotlib.axis_2"/>
   <g id="line2d_1">
    <path d="M 27.163636 307.438061 
L 29.026909 307.840725 
L 30.890182 308.032094 
L 33.019636 308.019045 
L 34.882909 307.788243 
L 37.012364 306.935945 
L 39.674182 305.601104 
L 44.731636 302.949125 
L 46.062545 302.629756 
L 47.393455 302.538331 
L 48.724364 302.706193 
L 49.789091 303.045558 
L 50.853818 303.582755 
L 51.918545 304.32812 
L 53.249455 305.567562 
L 54.846545 307.111772 
L 56.443636 308.360418 
L 58.306909 309.529375 
L 60.436364 310.597761 
L 64.162909 311.914508 
L 66.292364 312.535118 
L 72.680727 312.936884 
L 80.666182 313.208239 
L 84.925091 313.111717 
L 87.853091 312.866511 
L 90.248727 312.445426 
L 92.112 311.893465 
L 95.572364 310.594113 
L 97.435636 309.666105 
L 99.032727 308.645347 
L 100.896 307.327052 
L 102.493091 306.930338 
L 104.356364 306.218901 
L 106.219636 305.266204 
L 108.349091 303.916843 
L 109.147636 303.456011 
L 114.471273 301.864446 
L 116.334545 301.543431 
L 117.931636 301.479543 
L 121.658182 301.405265 
L 123.255273 301.132373 
L 124.586182 300.661101 
L 125.650909 300.219445 
L 126.715636 300.066218 
L 127.780364 300.166139 
L 129.111273 300.584198 
L 131.506909 301.677491 
L 133.370182 300.566608 
L 134.434909 300.199847 
L 135.499636 300.042945 
L 136.564364 300.095732 
L 137.629091 300.356428 
L 138.693818 300.822073 
L 139.226182 301.294442 
L 142.420364 304.422719 
L 144.017455 305.672811 
L 145.348364 306.450722 
L 146.679273 306.977526 
L 148.010182 307.245365 
L 150.405818 307.489271 
L 152.801455 307.505553 
L 155.463273 307.303112 
L 159.456 306.932793 
L 164.513455 306.540257 
L 170.635636 306.072735 
L 174.894545 306.681926 
L 178.621091 306.92303 
L 183.944727 307.021194 
L 190.333091 306.943057 
L 197.253818 306.531614 
L 207.368727 306.160622 
L 216.951273 306.027567 
L 232.123636 306.116843 
L 243.303273 306.452963 
L 259.008 307.127314 
L 270.453818 307.627608 
L 281.101091 307.898763 
L 284.029091 307.834114 
L 288.554182 307.381906 
L 293.079273 307.152648 
L 297.870545 307.130918 
L 303.194182 307.33818 
L 308.784 307.790117 
L 312.510545 308.062153 
L 321.028364 308.071941 
L 326.085818 308.309909 
L 329.546182 308.664936 
L 333.006545 309.229254 
L 336.200727 309.96348 
L 338.862545 310.599819 
L 347.646545 309.926416 
L 353.502545 309.266688 
L 358.293818 308.508471 
L 362.818909 307.56512 
L 375.329455 304.79177 
L 379.588364 304.128936 
L 383.581091 303.725901 
L 387.307636 303.555719 
L 391.300364 303.599394 
L 400.350545 303.873827 
L 418.450909 304.361213 
L 425.371636 304.802287 
L 426.436364 304.893331 
L 426.436364 304.893331 
" clip-path="url(#p7cbef79f81)" style="fill: none; stroke: #ffa500; stroke-width: 3; stroke-linecap: square"/>
   </g>
   <g id="line2d_2">
    <path d="M 27.163636 174.034972 
L 30.091636 175.374806 
L 32.753455 176.838438 
L 35.149091 178.391132 
L 37.544727 180.191204 
L 40.206545 182.486038 
L 43.400727 185.573204 
L 44.731636 187.057587 
L 47.127273 189.638087 
L 47.659636 190.075195 
L 49.522909 190.344341 
L 52.450909 190.608669 
L 54.314182 190.561311 
L 55.911273 190.284404 
L 57.242182 189.817583 
L 58.040727 189.50825 
L 60.170182 189.010609 
L 73.479273 185.200045 
L 76.141091 184.749876 
L 78.536727 184.579527 
L 91.845818 184.036889 
L 108.881455 183.337315 
L 113.938909 182.935022 
L 130.442182 181.344765 
L 145.082182 179.906187 
L 151.736727 180.204643 
L 157.326545 180.669893 
L 163.448727 181.411497 
L 168.24 182.196833 
L 172.498909 183.11256 
L 175.959273 183.877302 
L 180.218182 183.884746 
L 186.074182 183.657419 
L 195.656727 183.020538 
L 205.239273 182.45829 
L 212.16 182.114994 
L 217.217455 180.827663 
L 222.008727 179.382614 
L 226.8 177.727602 
L 230.260364 176.27058 
L 230.792727 176.416701 
L 233.720727 177.61604 
L 235.850182 178.26794 
L 237.713455 178.602018 
L 239.310545 178.657672 
L 240.641455 178.507285 
L 241.972364 178.147917 
L 243.303273 177.547659 
L 243.835636 177.221639 
L 245.166545 177.870176 
L 246.497455 178.294371 
L 247.828364 178.52025 
L 249.425455 178.566151 
L 251.288727 178.366352 
L 253.418182 177.894114 
L 256.08 177.222429 
L 259.008 177.841498 
L 261.403636 178.136654 
L 266.194909 178.425806 
L 280.568727 178.899378 
L 288.021818 178.87889 
L 297.072 178.641538 
L 305.323636 176.745872 
L 309.050182 176.242578 
L 313.042909 175.924247 
L 316.769455 175.853285 
L 319.431273 175.986028 
L 322.625455 176.463348 
L 325.819636 176.723023 
L 329.546182 176.795688 
L 334.603636 176.62541 
L 336.733091 176.429271 
L 342.589091 175.567934 
L 346.315636 174.786627 
L 349.243636 173.95891 
L 351.106909 173.36829 
L 362.552727 176.213873 
L 364.149818 176.353402 
L 368.941091 177.589785 
L 371.070545 178.268177 
L 372.135273 178.999238 
L 373.466182 180.179485 
L 377.458909 184.22669 
L 379.588364 188.171594 
L 380.919273 190.857037 
L 381.984 193.51878 
L 383.048727 196.900891 
L 383.847273 199.684728 
L 385.976727 200.060784 
L 388.638545 200.54402 
L 391.300364 201.175792 
L 394.228364 201.285062 
L 396.357818 201.301082 
L 396.624 201.0786 
L 397.688727 197.994647 
L 398.753455 195.724129 
L 399.552 194.480548 
L 400.350545 193.576663 
L 401.149091 192.966319 
L 401.947636 192.604256 
L 402.746182 192.448356 
L 403.544727 192.38352 
L 405.141818 191.6952 
L 409.400727 190.093919 
L 410.731636 189.247548 
L 413.659636 187.360169 
L 415.789091 186.227412 
L 417.652364 185.503198 
L 418.450909 185.301696 
L 420.846545 185.470868 
L 426.436364 186.147522 
L 426.436364 186.147522 
" clip-path="url(#p7cbef79f81)" style="fill: none; stroke: #ff0000; stroke-width: 3; stroke-linecap: square"/>
   </g>
   <g id="line2d_3">
    <path d="M 27.163636 21.927273 
L 27.696 34.149584 
L 27.962182 37.86523 
L 28.228364 50.052376 
L 28.494545 73.495519 
L 29.026909 82.507893 
L 29.293091 89.992924 
L 30.091636 133.054575 
L 30.357818 139.347236 
L 30.890182 156.505565 
L 31.156364 155.079276 
L 31.422545 148.058713 
L 31.688727 157.08817 
L 32.221091 190.028934 
L 32.753455 199.465731 
L 33.019636 202.013604 
L 33.285818 201.899672 
L 33.552 202.173129 
L 33.818182 202.947571 
L 34.084364 201.660292 
L 34.350545 197.873298 
L 34.616727 191.735764 
L 35.415273 190.637689 
L 35.681455 192.037741 
L 35.947636 197.966759 
L 36.213818 209.325934 
L 36.48 227.83995 
L 36.746182 230.119808 
L 37.012364 231.033796 
L 37.278545 233.800745 
L 37.544727 238.189059 
L 38.077091 236.544176 
L 38.609455 235.534875 
L 38.875636 236.524364 
L 39.408 237.604479 
L 39.674182 238.695979 
L 40.738909 236.809864 
L 41.005091 236.238197 
L 41.537455 234.850355 
L 41.803636 234.774249 
L 42.602182 236.341103 
L 43.134545 239.185913 
L 43.400727 241.186381 
L 43.666909 241.72398 
L 44.465455 238.826466 
L 44.731636 236.897022 
L 44.997818 233.770012 
L 45.264 236.223133 
L 46.062545 248.93638 
L 46.328727 251.003522 
L 46.594909 250.915565 
L 46.861091 251.48718 
L 47.393455 256.597404 
L 47.925818 259.689977 
L 48.724364 262.904523 
L 50.587636 294.344785 
L 51.12 306.003196 
L 51.918545 304.81111 
L 52.450909 304.382743 
L 52.983273 304.263866 
L 53.515636 304.447127 
L 54.048 304.908986 
L 56.443636 309.358836 
L 58.306909 311.900849 
L 59.371636 313.012635 
L 60.170182 313.529427 
L 60.968727 313.722416 
L 69.220364 315.101136 
L 75.342545 315.927086 
L 78.536727 316.187942 
L 85.989818 316.407403 
L 96.370909 316.466648 
L 378.257455 316.472672 
L 426.436364 316.472561 
L 426.436364 316.472561 
" clip-path="url(#p7cbef79f81)" style="fill: none; stroke: #0000ff; stroke-width: 3; stroke-linecap: square"/>
   </g>
   <g id="patch_3">
    <path d="M 7.2 331.2 
L 7.2 7.2 
" style="fill: none; stroke: #000000; stroke-width: 0.8; stroke-linejoin: miter; stroke-linecap: square"/>
   </g>
   <g id="patch_4">
    <path d="M 446.4 331.2 
L 446.4 7.2 
" style="fill: none; stroke: #000000; stroke-width: 0.8; stroke-linejoin: miter; stroke-linecap: square"/>
   </g>
   <g id="patch_5">
    <path d="M 7.2 331.2 
L 446.4 331.2 
" style="fill: none; stroke: #000000; stroke-width: 0.8; stroke-linejoin: miter; stroke-linecap: square"/>
   </g>
   <g id="patch_6">
    <path d="M 7.2 7.2 
L 446.4 7.2 
" style="fill: none; stroke: #000000; stroke-width: 0.8; stroke-linejoin: miter; stroke-linecap: square"/>
   </g>
  </g>
 </g>
 <defs>
  <clipPath id="p7cbef79f81">
   <rect x="7.2" y="7.2" width="439.2" height="324"/>
  </clipPath>
 </defs>
</svg>
