<?xml version="1.0" encoding="utf-8" standalone="no"?>
<!DOCTYPE svg PUBLIC "-//W3C//DTD SVG 1.1//EN"
  "http://www.w3.org/Graphics/SVG/1.1/DTD/svg11.dtd">
<svg xmlns:xlink="http://www.w3.org/1999/xlink" width="453.6pt" height="338.4pt" viewBox="0 0 453.6 338.4" xmlns="http://www.w3.org/2000/svg" version="1.1">
 <metadata>
  <rdf:RDF xmlns:dc="http://purl.org/dc/elements/1.1/" xmlns:cc="http://creativecommons.org/ns#" xmlns:rdf="http://www.w3.org/1999/02/22-rdf-syntax-ns#">
   <cc:Work>
    <dc:type rdf:resource="http://purl.org/dc/dcmitype/StillImage"/>
    <dc:date>2025-05-15T17:15:28.924991</dc:date>
    <dc:format>image/svg+xml</dc:format>
    <dc:creator>
     <cc:Agent>
      <dc:title>Matplotlib v3.10.1, https://matplotlib.org/</dc:title>
     </cc:Agent>
    </dc:creator>
   </cc:Work>
  </rdf:RDF>
 </metadata>
 <defs>
  <style type="text/css">*{stroke-linejoin: round; stroke-linecap: butt}</style>
 </defs>
 <g id="figure_1">
  <g id="patch_1">
   <path d="M 0 338.4 
L 453.6 338.4 
L 453.6 0 
L 0 0 
z
" style="fill: #ffffff"/>
  </g>
  <g id="axes_1">
   <g id="patch_2">
    <path d="M 7.2 331.2 
L 446.4 331.2 
L 446.4 7.2 
L 7.2 7.2 
z
" style="fill: #ffffff"/>
   </g>
   <g id="matplotlib.axis_1"/>
   <g id="matplotlib.axis_2"/>
   <g id="line2d_1">
    <path d="M 27.163636 63.139105 
L 27.997772 35.28176 
L 28.553862 24.174184 
L 28.831907 21.927273 
L 29.109952 22.269887 
L 29.387997 25.411433 
L 29.666042 31.484613 
L 30.222132 52.506396 
L 30.778222 84.528303 
L 31.612358 147.678492 
L 33.002583 258.413999 
L 33.558673 290.931199 
L 34.114763 310.941973 
L 34.392808 315.571808 
L 34.670853 316.472727 
L 34.948898 313.682268 
L 35.226944 307.354961 
L 35.783034 285.251076 
L 36.617169 235.20714 
L 38.007394 145.624154 
L 38.563484 120.998919 
L 39.119575 107.648583 
L 39.39762 105.64295 
L 39.675665 106.773419 
L 39.95371 110.924515 
L 40.5098 127.336438 
L 41.343935 166.550211 
L 42.734161 237.532831 
L 43.290251 256.314099 
L 43.568296 262.139437 
L 43.846341 265.309038 
L 44.124386 265.725495 
L 44.402431 263.384149 
L 44.680476 258.370064 
L 45.236566 241.09347 
L 46.070701 201.824035 
L 47.460927 129.535599 
L 48.017017 108.517744 
L 48.573107 95.994148 
L 48.851152 93.340544 
L 49.129197 93.160989 
L 49.407242 95.407002 
L 49.685287 99.953064 
L 50.241378 115.095418 
L 51.075513 148.295601 
L 52.465738 206.073437 
L 53.021828 221.571031 
L 53.577918 229.753089 
L 53.855964 230.852697 
L 54.134009 229.95896 
L 54.412054 227.153744 
L 54.968144 216.432885 
L 55.802279 191.187286 
L 57.192504 145.334845 
L 57.748595 132.73421 
L 58.304685 125.982591 
L 58.58273 125.03538 
L 58.860775 125.721281 
L 59.13882 127.981828 
L 59.69491 136.738631 
L 60.529045 157.534511 
L 61.919271 195.484776 
L 62.475361 205.873289 
L 63.031451 211.329079 
L 63.309496 211.994781 
L 63.587541 211.261522 
L 63.865586 209.166447 
L 64.421676 201.24048 
L 64.977767 189.255326 
L 67.758217 121.162651 
L 68.314307 114.664093 
L 68.592352 112.758337 
L 68.870398 111.708499 
L 69.148443 111.453867 
L 69.426488 111.912406 
L 69.704533 112.985811 
L 70.260623 116.522771 
L 71.928893 129.55361 
L 72.484984 131.933 
L 72.763029 132.452869 
L 73.041074 132.497028 
L 73.319119 132.068115 
L 73.597164 131.188631 
L 74.153254 128.262383 
L 75.265434 119.914741 
L 75.821524 116.122924 
L 76.377615 113.763398 
L 76.65566 113.369891 
L 76.933705 113.609093 
L 77.21175 114.540199 
L 77.489795 116.202041 
L 78.045885 121.751817 
L 78.601975 130.067532 
L 79.43611 146.3022 
L 80.826336 173.984702 
L 81.382426 181.391193 
L 81.660471 183.703642 
L 81.938516 184.94538 
L 82.216561 185.044809 
L 82.494606 183.964446 
L 82.772651 181.702666 
L 83.328741 173.811319 
L 83.884832 162.08321 
L 86.387237 100.770266 
L 86.943327 94.603155 
L 87.221372 93.346155 
L 87.499418 93.341667 
L 87.777463 94.564158 
L 88.055508 96.950225 
L 88.611598 104.767786 
L 89.445733 121.670063 
L 90.557913 145.233621 
L 91.114004 153.685293 
L 91.670094 158.146122 
L 91.948139 158.631034 
L 92.226184 157.895586 
L 92.504229 155.948196 
L 93.060319 148.662511 
L 93.616409 137.66783 
L 95.562725 94.332251 
L 96.118815 88.661892 
L 96.39686 87.982219 
L 96.674905 88.890545 
L 96.95295 91.43664 
L 97.50904 101.367007 
L 98.06513 117.063233 
L 99.177311 158.883421 
L 100.289491 198.103984 
L 100.845581 210.312908 
L 101.123626 213.675588 
L 101.401671 214.998069 
L 101.679716 214.19641 
L 101.957761 211.252937 
L 102.513852 199.201011 
L 103.069942 180.00901 
L 104.182122 129.209201 
L 105.294302 81.345403 
L 105.850393 65.497733 
L 106.128438 60.468555 
L 106.406483 57.545393 
L 106.684528 56.774764 
L 106.962573 58.132539 
L 107.240618 61.525687 
L 107.796708 73.722997 
L 108.630843 101.560309 
L 110.021069 150.460703 
L 110.577159 162.980258 
L 110.855204 166.706761 
L 111.133249 168.556182 
L 111.411294 168.465843 
L 111.689339 166.43625 
L 111.967384 162.532379 
L 112.523474 149.660615 
L 113.35761 121.141441 
L 114.747835 69.850155 
L 115.303925 55.437133 
L 115.860015 47.32381 
L 116.13806 45.90465 
L 116.416105 46.270606 
L 116.69415 48.367139 
L 117.250241 57.251035 
L 117.806331 71.073994 
L 119.752646 126.61586 
L 120.308736 135.592956 
L 120.586781 137.965051 
L 120.864827 138.823325 
L 121.142872 138.15263 
L 121.420917 135.98809 
L 121.977007 127.550782 
L 122.533097 114.673744 
L 124.757458 55.407506 
L 125.313548 47.623948 
L 125.591593 45.593121 
L 125.869638 44.841738 
L 126.147683 45.344212 
L 126.425728 47.031977 
L 126.981818 53.499898 
L 127.815953 68.433071 
L 128.928134 89.633792 
L 129.484224 97.302378 
L 130.040314 101.507004 
L 130.318359 102.121027 
L 130.596404 101.707993 
L 130.874449 100.284793 
L 131.430539 94.633175 
L 131.98663 85.901228 
L 134.21099 44.692931 
L 134.76708 39.131484 
L 135.045125 37.677478 
L 135.32317 37.155084 
L 135.601215 37.561328 
L 135.879261 38.861646 
L 136.435351 43.86563 
L 137.269486 55.711572 
L 138.659711 77.257825 
L 139.215801 83.091748 
L 139.493847 84.959629 
L 139.771892 86.040215 
L 140.049937 86.298326 
L 140.327982 85.725657 
L 140.606027 84.340275 
L 141.162117 79.330848 
L 141.996252 67.557065 
L 143.664523 41.570183 
L 144.220613 36.15064 
L 144.498658 34.50451 
L 144.776703 33.631422 
L 145.054748 33.545853 
L 145.332793 34.235682 
L 145.610838 35.662923 
L 146.166928 40.457332 
L 147.001064 50.989882 
L 148.391289 69.147364 
L 148.947379 73.887178 
L 149.225424 75.380573 
L 149.503469 76.23161 
L 149.781514 76.423341 
L 150.059559 75.958686 
L 150.337604 74.861266 
L 150.893695 70.955207 
L 151.72783 61.928677 
L 153.3961 42.260461 
L 153.95219 38.027331 
L 154.508281 35.782832 
L 154.786326 35.449869 
L 155.064371 35.631444 
L 155.342416 36.298437 
L 155.898506 38.904122 
L 156.732641 45.059785 
L 158.400912 58.694828 
L 158.957002 62.023336 
L 159.513092 64.355929 
L 160.069182 65.66702 
L 160.347227 65.96396 
L 160.625272 66.048351 
L 160.903317 65.945443 
L 161.459407 65.302859 
L 163.405723 62.02098 
L 163.961813 61.700866 
L 164.517903 61.827845 
L 165.073993 62.334584 
L 167.020309 64.757291 
L 167.576399 64.958281 
L 168.132489 64.76453 
L 168.688579 64.16835 
L 169.24467 63.204137 
L 170.078805 61.205518 
L 172.859256 53.785279 
L 173.415346 53.035523 
L 173.971436 52.729101 
L 174.527526 52.862308 
L 175.083616 53.380101 
L 175.917751 54.676772 
L 177.586022 58.001576 
L 179.532337 61.720785 
L 181.478653 65.339444 
L 182.312788 67.431039 
L 183.146923 70.315765 
L 183.981058 74.167789 
L 185.371284 82.137803 
L 186.483464 88.345145 
L 187.317599 91.904438 
L 187.87369 93.561846 
L 188.42978 94.670881 
L 188.98587 95.368903 
L 190.09805 96.57473 
L 190.65414 97.800868 
L 191.21023 99.981961 
L 191.766321 103.493111 
L 192.322411 108.615938 
L 192.878501 115.478825 
L 193.712636 128.815638 
L 196.771132 183.197689 
L 197.327222 188.605897 
L 197.883312 191.667709 
L 198.161357 192.331839 
L 198.439402 192.454498 
L 198.717447 192.07962 
L 198.995493 191.262868 
L 199.551583 188.571276 
L 201.775943 174.811723 
L 202.332033 173.200157 
L 202.610079 172.866745 
L 202.888124 172.847163 
L 203.166169 173.124744 
L 203.722259 174.445991 
L 204.556394 177.628049 
L 205.390529 180.81684 
L 205.946619 182.139378 
L 206.224664 182.411741 
L 206.50271 182.380038 
L 206.780755 182.025865 
L 207.0588 181.342377 
L 207.61489 179.022802 
L 208.17098 175.610576 
L 210.673386 158.040689 
L 211.229476 156.310785 
L 211.507521 155.962392 
L 211.785566 155.966432 
L 212.063611 156.315779 
L 212.341656 156.99231 
L 212.897746 159.214813 
L 213.731881 164.12049 
L 215.400152 174.821991 
L 215.956242 177.335318 
L 216.512332 178.907606 
L 216.790377 179.306948 
L 217.068422 179.44543 
L 217.346467 179.329056 
L 217.624513 178.971684 
L 218.180603 177.624907 
L 219.014738 174.525164 
L 220.126918 170.180877 
L 220.683008 168.708243 
L 220.961053 168.271418 
L 221.239099 168.064873 
L 221.517144 168.100223 
L 221.795189 168.380274 
L 222.351279 169.636656 
L 222.907369 171.668887 
L 224.853684 180.071293 
L 225.409775 181.224656 
L 225.68782 181.381318 
L 225.965865 181.223533 
L 226.24391 180.736321 
L 226.8 178.758855 
L 227.35609 175.514009 
L 228.190225 168.77451 
L 230.136541 151.425364 
L 230.692631 148.045963 
L 231.248721 145.959474 
L 231.526766 145.435116 
L 231.804811 145.251857 
L 232.082856 145.392584 
L 232.360901 145.82823 
L 232.916992 147.419708 
L 234.585262 153.681814 
L 234.863307 154.225979 
L 235.141352 154.451153 
L 235.419397 154.304366 
L 235.697442 153.743199 
L 235.975487 152.736904 
L 236.531578 149.339211 
L 237.087668 144.171831 
L 237.921803 133.896157 
L 239.312028 115.849944 
L 239.868119 110.796357 
L 240.424209 108.107628 
L 240.702254 107.794135 
L 240.980299 108.201333 
L 241.258344 109.325238 
L 241.814434 113.582552 
L 242.370524 120.057095 
L 244.594885 149.355764 
L 245.150975 152.466224 
L 245.42902 152.8723 
L 245.707065 152.467009 
L 245.98511 151.247885 
L 246.5412 146.490677 
L 247.09729 139.096755 
L 248.487516 115.21976 
L 249.321651 102.950012 
L 249.877741 97.77719 
L 250.155786 96.336033 
L 250.433831 95.705289 
L 250.711876 95.884059 
L 250.989921 96.843165 
L 251.546012 100.844557 
L 252.380147 110.502055 
L 253.492327 124.423882 
L 254.048417 129.258691 
L 254.326462 130.725322 
L 254.604507 131.446349 
L 254.882553 131.366278 
L 255.160598 130.455203 
L 255.438643 128.70841 
L 255.994733 122.818825 
L 256.550823 114.16246 
L 257.663003 92.038824 
L 258.775184 71.042852 
L 259.331274 63.715814 
L 259.887364 59.5393 
L 260.165409 58.750098 
L 260.443454 58.83909 
L 260.721499 59.781812 
L 260.999544 61.530793 
L 261.555634 67.146949 
L 262.38977 79.308796 
L 264.05804 104.942179 
L 264.61413 110.704672 
L 265.17022 114.225192 
L 265.448265 115.112083 
L 265.72631 115.439099 
L 266.004356 115.246301 
L 266.282401 114.589465 
L 266.838491 112.181403 
L 268.506761 102.919712 
L 268.784806 102.06385 
L 269.062851 101.605086 
L 269.340896 101.587467 
L 269.618942 102.035682 
L 269.896987 102.955511 
L 270.453077 106.135156 
L 271.287212 113.495804 
L 272.677437 126.907637 
L 273.233527 130.283335 
L 273.511573 131.171909 
L 273.789618 131.437259 
L 274.067663 131.031351 
L 274.345708 129.926805 
L 274.901798 125.614334 
L 275.457888 118.708634 
L 276.292023 104.802631 
L 277.682249 80.438312 
L 278.238339 73.577052 
L 278.794429 69.77693 
L 279.072474 69.192141 
L 279.350519 69.5168 
L 279.628564 70.738281 
L 280.184654 75.669096 
L 280.740744 83.312545 
L 282.965105 118.719575 
L 283.521195 123.280955 
L 283.79924 124.422479 
L 284.077285 124.777606 
L 284.35533 124.357614 
L 284.633376 123.19937 
L 285.189466 118.925503 
L 286.023601 109.054558 
L 287.413826 91.34344 
L 287.969916 86.485176 
L 288.526007 83.848686 
L 288.804052 83.449231 
L 289.082097 83.668064 
L 289.360142 84.486051 
L 289.916232 87.759065 
L 290.472322 92.817197 
L 291.584502 105.865598 
L 292.696683 118.793418 
L 293.530818 126.243451 
L 294.086908 129.705671 
L 294.642998 131.902419 
L 294.921043 132.543151 
L 295.199088 132.900354 
L 295.477133 132.994677 
L 295.755179 132.851145 
L 296.311269 131.965769 
L 296.867359 130.491058 
L 299.369764 122.878583 
L 299.925855 121.935637 
L 300.481945 121.408361 
L 301.038035 121.284524 
L 301.594125 121.525409 
L 302.150215 122.071987 
L 302.98435 123.295264 
L 306.598936 129.449581 
L 307.155027 130.97092 
L 307.711117 133.05797 
L 308.545252 137.448605 
L 309.657432 145.337034 
L 311.325703 157.458425 
L 311.881793 160.294726 
L 312.437883 162.136572 
L 312.715928 162.659022 
L 312.993973 162.919209 
L 313.272018 162.930543 
L 313.550063 162.714852 
L 314.106153 161.729374 
L 315.774424 157.629451 
L 316.052469 157.322468 
L 316.330514 157.251263 
L 316.608559 157.452365 
L 316.886604 157.952763 
L 317.442694 159.90958 
L 317.998785 163.123846 
L 318.83292 169.866712 
L 321.05728 189.544074 
L 321.61337 192.702509 
L 322.169461 194.739509 
L 322.725551 195.684419 
L 323.003596 195.785026 
L 323.281641 195.666239 
L 323.559686 195.35168 
L 324.115776 194.233331 
L 324.949911 191.650314 
L 326.062092 187.099652 
L 327.452317 180.176389 
L 329.398633 170.019895 
L 330.232768 166.935246 
L 330.788858 165.783117 
L 331.066903 165.531347 
L 331.344948 165.50778 
L 331.622993 165.713708 
L 331.901038 166.143126 
L 332.457128 167.609813 
L 333.291264 170.910489 
L 334.403444 175.663208 
L 334.959534 177.367918 
L 335.237579 177.90737 
L 335.515624 178.196791 
L 335.793669 178.213624 
L 336.071714 177.944291 
L 336.349759 177.382339 
L 336.90585 175.39915 
L 337.46194 172.371116 
L 338.296075 166.341871 
L 340.798481 146.416723 
L 341.632616 141.58932 
L 342.466751 138.063862 
L 343.300886 135.598904 
L 344.135022 133.799422 
L 347.193517 128.205486 
L 347.749607 127.58097 
L 348.027653 127.445967 
L 348.305698 127.468916 
L 348.583743 127.680231 
L 348.861788 128.109649 
L 349.417878 129.729911 
L 349.973968 132.508082 
L 350.530058 136.539886 
L 351.364193 144.868113 
L 352.476374 159.054055 
L 353.866599 176.572544 
L 354.422689 181.528665 
L 354.978779 184.367773 
L 355.256825 184.835739 
L 355.53487 184.610228 
L 355.812915 183.666777 
L 356.09096 181.999437 
L 356.64705 176.568448 
L 357.20314 168.680524 
L 358.31532 148.546249 
L 359.427501 129.547326 
L 359.983591 123.068968 
L 360.539681 119.559502 
L 360.817726 119.009333 
L 361.095771 119.255436 
L 361.373816 120.258197 
L 361.929906 124.245448 
L 362.764042 133.55489 
L 363.876222 146.391809 
L 364.432312 150.480566 
L 364.710357 151.543478 
L 364.988402 151.849507 
L 365.266447 151.350848 
L 365.544492 150.025449 
L 366.100582 144.933932 
L 366.656673 136.913642 
L 367.490808 121.055198 
L 368.881033 93.771477 
L 369.437123 86.037578 
L 369.993213 81.528269 
L 370.271259 80.641602 
L 370.549304 80.695974 
L 370.827349 81.67831 
L 371.105394 83.546528 
L 371.661484 89.64608 
L 372.495619 103.070763 
L 374.16389 131.890636 
L 374.71998 138.460231 
L 375.27607 142.49787 
L 375.554115 143.516735 
L 375.83216 143.883926 
L 376.110205 143.634736 
L 376.38825 142.822192 
L 376.94434 139.788716 
L 377.778476 133.014653 
L 378.890656 123.668739 
L 379.446746 120.234013 
L 380.002836 118.097977 
L 380.280881 117.546181 
L 380.558926 117.325721 
L 380.836971 117.410561 
L 381.115016 117.764341 
L 381.671107 119.089796 
L 383.339377 124.005742 
L 383.617422 124.402728 
L 383.895467 124.56646 
L 384.173512 124.470678 
L 384.451557 124.097596 
L 384.729602 123.437169 
L 385.285693 121.261014 
L 385.841783 118.039285 
L 386.675918 111.778525 
L 388.344188 98.860189 
L 388.900279 95.919184 
L 389.456369 94.130812 
L 389.734414 93.694044 
L 390.012459 93.552476 
L 390.290504 93.684898 
L 390.568549 94.059551 
L 391.124639 95.364975 
L 392.514865 99.270698 
L 392.79291 99.680701 
L 393.070955 99.836802 
L 393.349 99.693102 
L 393.627045 99.213745 
L 393.90509 98.371349 
L 394.46118 95.548009 
L 395.01727 91.249173 
L 395.851405 82.625801 
L 397.241631 67.232013 
L 397.797721 62.929418 
L 398.075766 61.552901 
L 398.353811 60.790689 
L 398.631856 60.694626 
L 398.909901 61.295744 
L 399.187946 62.602066 
L 399.744036 67.238242 
L 400.300127 74.176374 
L 402.524487 106.308539 
L 403.080577 110.040037 
L 403.358622 110.67353 
L 403.636668 110.42378 
L 403.914713 109.278778 
L 404.192758 107.254796 
L 404.748848 100.775315 
L 405.582983 86.43664 
L 406.973208 60.153155 
L 407.529299 52.774046 
L 407.807344 50.359587 
L 408.085389 48.935432 
L 408.363434 48.570879 
L 408.641479 49.300884 
L 408.919524 51.125278 
L 409.475614 57.878244 
L 410.031704 68.126199 
L 412.256065 116.420144 
L 412.812155 122.539672 
L 413.0902 123.867933 
L 413.368245 123.954232 
L 413.64629 122.781735 
L 413.924335 120.372719 
L 414.480425 112.141003 
L 415.314561 93.327246 
L 416.704786 58.595512 
L 417.260876 48.931504 
L 417.538921 45.798824 
L 417.816966 43.973419 
L 418.095011 43.534126 
L 418.373056 44.513488 
L 418.651102 46.89731 
L 419.207192 55.583863 
L 419.763282 68.573124 
L 421.987642 127.241891 
L 422.543733 133.954793 
L 422.821778 135.150857 
L 423.099823 134.825076 
L 423.377868 132.977171 
L 423.655913 129.656574 
L 424.212003 119.033292 
L 425.046138 95.886359 
L 426.436364 55.18295 
L 426.436364 55.18295 
" clip-path="url(#p4923af5115)" style="fill: none; stroke-dasharray: 11.1,4.8; stroke-dashoffset: 0; stroke: #000000; stroke-width: 3"/>
   </g>
   <g id="line2d_2">
    <path d="M 27.163636 148.753973 
L 29.109952 148.740225 
L 31.056267 148.618801 
L 33.280628 148.263057 
L 35.783034 147.647575 
L 39.39762 146.333398 
L 42.456115 145.426194 
L 43.012206 145.410371 
L 46.904837 145.83025 
L 53.299873 146.580455 
L 54.412054 146.264325 
L 56.914459 145.466201 
L 58.304685 145.30202 
L 59.69491 145.382427 
L 61.363181 145.733065 
L 62.197316 146.073772 
L 64.143631 146.86937 
L 66.089947 147.430874 
L 68.036262 147.785552 
L 69.982578 147.938286 
L 76.09957 147.847218 
L 77.76784 147.6703 
L 79.158065 147.153854 
L 83.884832 144.941731 
L 87.777463 143.255874 
L 88.611598 143.436272 
L 89.167688 143.761098 
L 89.723778 144.290001 
L 90.279868 145.064502 
L 90.835958 146.132801 
L 91.670094 148.391607 
L 92.504229 151.60548 
L 92.782274 152.871065 
L 93.338364 153.714863 
L 93.894454 154.182717 
L 94.450544 154.299148 
L 95.006635 154.09294 
L 95.562725 153.599218 
L 96.39686 152.410506 
L 97.50904 150.237998 
L 99.455356 146.053516 
L 99.733401 145.755398 
L 102.513852 144.425958 
L 105.572347 142.985588 
L 107.240618 142.536194 
L 107.518663 142.8567 
L 108.908888 145.359197 
L 110.299114 147.427451 
L 111.689339 149.096138 
L 113.079564 150.396792 
L 114.46979 151.36078 
L 115.860015 152.018963 
L 117.250241 152.401808 
L 118.640466 152.539224 
L 120.030691 152.460725 
L 121.420917 152.192402 
L 122.255052 151.622538 
L 122.533097 151.425869 
L 123.089187 149.654948 
L 123.645277 148.389363 
L 124.479413 147.149477 
L 125.035503 146.549089 
L 125.313548 147.522503 
L 125.869638 150.219593 
L 126.425728 151.601328 
L 126.703773 151.835536 
L 126.981818 151.783801 
L 127.259863 151.465932 
L 127.815953 150.096766 
L 128.093998 150.054683 
L 128.650089 148.19303 
L 130.318359 142.080628 
L 130.596404 140.534095 
L 131.708584 132.120074 
L 132.54272 127.142911 
L 134.21099 118.324441 
L 135.32317 110.671174 
L 135.879261 106.38356 
L 136.157306 105.414073 
L 137.269486 103.699375 
L 138.937756 101.711528 
L 140.049937 101.334294 
L 141.162117 101.171011 
L 142.274297 101.03135 
L 143.386478 100.911721 
L 144.498658 100.602101 
L 145.888883 99.913786 
L 146.723018 99.791296 
L 147.279109 100.017143 
L 148.391289 100.62376 
L 148.669334 100.621627 
L 148.947379 100.493021 
L 149.225424 101.066532 
L 149.781514 102.953771 
L 150.337604 103.938745 
L 150.893695 104.297575 
L 151.17174 104.331747 
L 151.449785 103.786796 
L 153.674145 88.776247 
L 154.508281 80.039867 
L 155.620461 71.25181 
L 155.898506 70.003114 
L 157.566776 70.519167 
L 158.678957 70.514566 
L 158.957002 71.46621 
L 159.791137 75.424564 
L 160.625272 78.402939 
L 161.459407 80.479273 
L 162.015498 81.400448 
L 162.571588 81.975194 
L 163.127678 82.225954 
L 163.683768 82.171582 
L 164.239858 81.829642 
L 164.517903 81.977775 
L 168.966624 90.53948 
L 171.46903 95.922607 
L 172.02512 97.019073 
L 175.361661 101.009018 
L 185.649329 110.740583 
L 186.205419 110.722235 
L 187.87369 110.282997 
L 190.376095 109.334159 
L 192.044366 108.681307 
L 192.600456 108.059765 
L 192.878501 107.977562 
L 193.156546 108.096911 
L 193.434591 108.449849 
L 193.712636 109.072401 
L 194.268726 111.264492 
L 194.546771 112.865565 
L 194.824816 112.992825 
L 195.102861 112.720911 
L 195.380907 112.193579 
L 195.936997 110.414746 
L 196.493087 107.742569 
L 197.327222 102.256591 
L 198.161357 96.342766 
L 199.273538 104.558828 
L 200.107673 112.688871 
L 200.941808 123.523748 
L 201.497898 132.388902 
L 202.053988 131.544824 
L 202.888124 130.360151 
L 203.444214 129.926693 
L 204.000304 129.850157 
L 204.556394 130.186207 
L 204.834439 130.486737 
L 205.390529 129.650065 
L 206.224664 128.872478 
L 207.0588 128.317147 
L 208.17098 127.895865 
L 209.005115 126.576807 
L 209.561205 125.413344 
L 210.395341 123.067228 
L 212.063611 117.868315 
L 212.897746 116.567492 
L 213.453836 116.03786 
L 214.009927 115.741593 
L 214.566017 115.64699 
L 214.844062 115.666741 
L 216.234287 122.166758 
L 216.790377 123.765138 
L 217.346467 124.690241 
L 217.624513 124.894036 
L 217.902558 124.924673 
L 218.180603 124.78159 
L 218.458648 124.465516 
L 219.014738 123.298462 
L 219.848873 120.586895 
L 220.683008 118.868101 
L 221.517144 117.822416 
L 222.351279 117.181684 
L 224.019549 116.077362 
L 224.853684 114.579702 
L 225.68782 113.530144 
L 226.521955 112.848114 
L 227.078045 112.589723 
L 228.46827 112.264335 
L 230.414586 112.072491 
L 232.360901 111.873465 
L 234.307217 111.741212 
L 236.531578 111.839686 
L 239.312028 112.22343 
L 242.926614 112.988224 
L 247.931426 114.302906 
L 259.053229 116.598465 
L 263.223905 117.121364 
L 268.228716 117.524354 
L 272.399392 117.900578 
L 275.179843 118.378589 
L 277.960294 119.092994 
L 279.906609 119.760604 
L 281.01879 119.36575 
L 282.13097 119.242194 
L 283.521195 119.399641 
L 286.857736 119.974892 
L 287.691871 119.820082 
L 288.526007 119.51422 
L 289.082097 119.781421 
L 290.194277 120.349097 
L 291.306457 120.680376 
L 292.418638 120.80051 
L 294.086908 120.907009 
L 295.755179 120.856397 
L 298.813674 120.431917 
L 304.096531 118.52891 
L 305.764801 118.336674 
L 307.711117 118.329211 
L 310.491567 118.568973 
L 316.608559 119.419673 
L 319.9451 119.899591 
L 323.281641 120.155177 
L 326.618182 120.182727 
L 327.174272 120.103106 
L 333.847354 118.498666 
L 339.6863 117.547864 
L 344.969157 116.905056 
L 351.920284 117.003868 
L 357.75923 117.280607 
L 363.598177 117.782409 
L 373.329754 118.68546 
L 384.173512 119.507319 
L 389.734414 119.485604 
L 394.46118 119.69198 
L 399.187946 120.118424 
L 403.636668 120.707197 
L 408.641479 121.544262 
L 413.924335 122.207383 
L 418.095011 122.52009 
L 425.602228 122.48575 
L 426.436364 122.450848 
L 426.436364 122.450848 
" clip-path="url(#p4923af5115)" style="fill: none; stroke: #ff00ff; stroke-width: 3; stroke-linecap: square"/>
   </g>
   <g id="patch_3">
    <path d="M 7.2 331.2 
L 7.2 7.2 
" style="fill: none; stroke: #000000; stroke-width: 0.8; stroke-linejoin: miter; stroke-linecap: square"/>
   </g>
   <g id="patch_4">
    <path d="M 446.4 331.2 
L 446.4 7.2 
" style="fill: none; stroke: #000000; stroke-width: 0.8; stroke-linejoin: miter; stroke-linecap: square"/>
   </g>
   <g id="patch_5">
    <path d="M 7.2 331.2 
L 446.4 331.2 
" style="fill: none; stroke: #000000; stroke-width: 0.8; stroke-linejoin: miter; stroke-linecap: square"/>
   </g>
   <g id="patch_6">
    <path d="M 7.2 7.2 
L 446.4 7.2 
" style="fill: none; stroke: #000000; stroke-width: 0.8; stroke-linejoin: miter; stroke-linecap: square"/>
   </g>
  </g>
 </g>
 <defs>
  <clipPath id="p4923af5115">
   <rect x="7.2" y="7.2" width="439.2" height="324"/>
  </clipPath>
 </defs>
</svg>
