<?xml version="1.0" encoding="utf-8" standalone="no"?>
<!DOCTYPE svg PUBLIC "-//W3C//DTD SVG 1.1//EN"
  "http://www.w3.org/Graphics/SVG/1.1/DTD/svg11.dtd">
<svg xmlns:xlink="http://www.w3.org/1999/xlink" width="453.6pt" height="338.4pt" viewBox="0 0 453.6 338.4" xmlns="http://www.w3.org/2000/svg" version="1.1">
 <metadata>
  <rdf:RDF xmlns:dc="http://purl.org/dc/elements/1.1/" xmlns:cc="http://creativecommons.org/ns#" xmlns:rdf="http://www.w3.org/1999/02/22-rdf-syntax-ns#">
   <cc:Work>
    <dc:type rdf:resource="http://purl.org/dc/dcmitype/StillImage"/>
    <dc:date>2025-05-15T17:12:29.588085</dc:date>
    <dc:format>image/svg+xml</dc:format>
    <dc:creator>
     <cc:Agent>
      <dc:title>Matplotlib v3.10.1, https://matplotlib.org/</dc:title>
     </cc:Agent>
    </dc:creator>
   </cc:Work>
  </rdf:RDF>
 </metadata>
 <defs>
  <style type="text/css">*{stroke-linejoin: round; stroke-linecap: butt}</style>
 </defs>
 <g id="figure_1">
  <g id="patch_1">
   <path d="M 0 338.4 
L 453.6 338.4 
L 453.6 0 
L 0 0 
z
" style="fill: #ffffff"/>
  </g>
  <g id="axes_1">
   <g id="patch_2">
    <path d="M 7.2 331.2 
L 446.4 331.2 
L 446.4 7.2 
L 7.2 7.2 
z
" style="fill: #ffffff"/>
   </g>
   <g id="matplotlib.axis_1"/>
   <g id="matplotlib.axis_2"/>
   <g id="line2d_1">
    <path d="M 27.163636 41.967869 
L 29.109952 47.854025 
L 30.222132 50.50472 
L 31.890403 54.262923 
L 32.724538 56.630422 
L 33.836718 60.611575 
L 36.895214 72.784745 
L 37.729349 75.081253 
L 38.563484 76.794054 
L 41.62198 82.26875 
L 44.680476 89.214733 
L 45.514611 90.299311 
L 46.348747 90.927581 
L 47.182882 91.253803 
L 49.129197 91.86941 
L 50.241378 92.517922 
L 55.246189 96.20427 
L 56.080324 97.090265 
L 56.914459 98.360283 
L 57.748595 100.119803 
L 58.58273 102.390122 
L 59.69491 106.071386 
L 63.031451 117.76954 
L 64.699721 122.475375 
L 66.089947 126.434799 
L 66.924082 129.306957 
L 67.758217 132.855881 
L 68.592352 137.288065 
L 69.426488 142.734173 
L 70.538668 151.592114 
L 72.206938 167.380881 
L 73.875209 182.937105 
L 74.709344 189.102428 
L 75.543479 193.514706 
L 76.09957 195.365507 
L 76.65566 196.345805 
L 76.933705 196.525297 
L 77.21175 196.510811 
L 77.489795 196.313476 
L 78.045885 195.418414 
L 78.601975 193.929092 
L 79.43611 190.717232 
L 80.270246 186.380165 
L 81.104381 180.799271 
L 81.938516 173.721235 
L 82.772651 164.847368 
L 83.606787 153.934192 
L 84.718967 136.124054 
L 86.387237 104.545704 
L 87.499418 84.404953 
L 88.333553 73.0583 
L 88.889643 68.531333 
L 89.167688 67.408621 
L 89.445733 67.130797 
L 89.723778 67.747267 
L 90.001823 69.294869 
L 90.557913 75.251488 
L 91.114004 84.968276 
L 91.948139 105.813468 
L 93.060319 141.403045 
L 94.450544 185.984535 
L 95.28468 205.460178 
L 95.84077 213.316907 
L 96.118815 215.475775 
L 96.39686 216.407603 
L 96.674905 216.109489 
L 96.95295 214.604841 
L 97.230995 211.943017 
L 97.787085 203.466436 
L 98.621221 184.60189 
L 101.123626 121.250542 
L 101.679716 112.598714 
L 102.235807 107.203019 
L 102.513852 105.747609 
L 102.791897 105.098042 
L 103.069942 105.220262 
L 103.347987 106.069515 
L 103.904077 109.730728 
L 104.460167 115.605756 
L 105.294302 127.521631 
L 106.406483 147.18564 
L 108.074753 181.379861 
L 112.801519 282.950929 
L 113.635655 295.104768 
L 114.46979 303.79473 
L 115.02588 307.564516 
L 115.58197 309.765619 
L 115.860015 310.320188 
L 116.13806 310.544433 
L 116.416105 310.470732 
L 116.69415 310.136163 
L 117.250241 308.851155 
L 118.362421 305.088396 
L 119.196556 302.572223 
L 119.752646 301.514218 
L 120.308736 301.077576 
L 120.586781 301.088609 
L 121.142872 301.500668 
L 121.977007 302.732648 
L 122.811142 303.991082 
L 123.367232 304.46605 
L 123.645277 304.529174 
L 123.923322 304.457536 
L 124.201367 304.243892 
L 124.757458 303.385789 
L 125.313548 301.989762 
L 126.147683 299.097481 
L 128.093998 290.868648 
L 129.484224 285.579944 
L 130.596404 282.237086 
L 131.430539 280.309179 
L 132.264675 278.896052 
L 133.09881 277.999791 
L 133.6549 277.680284 
L 134.21099 277.568186 
L 134.76708 277.644645 
L 135.601215 278.058383 
L 136.435351 278.7451 
L 138.381666 280.799136 
L 139.493847 281.839034 
L 140.327982 282.389717 
L 141.162117 282.694043 
L 141.996252 282.75285 
L 142.830387 282.599548 
L 143.942568 282.139978 
L 145.054748 281.452876 
L 146.166928 280.546759 
L 147.557154 279.077414 
L 149.225424 276.901159 
L 151.449785 273.970816 
L 152.561965 272.831268 
L 153.674145 272.031492 
L 154.786326 271.547723 
L 156.454596 271.154658 
L 158.957002 270.750106 
L 159.791137 270.809681 
L 160.625272 271.119475 
L 161.459407 271.749231 
L 162.293543 272.712526 
L 163.405723 274.418562 
L 166.742264 279.932615 
L 167.854444 281.26204 
L 169.24467 282.527334 
L 170.634895 283.486695 
L 171.747075 284.052967 
L 172.859256 284.364224 
L 173.693391 284.371947 
L 174.527526 284.167512 
L 175.639706 283.614454 
L 178.698202 281.836347 
L 182.590833 280.204923 
L 183.981058 279.092212 
L 185.371284 277.999383 
L 186.205419 277.572311 
L 187.039554 277.40481 
L 187.87369 277.468486 
L 189.263915 277.655605 
L 189.820005 277.528973 
L 190.376095 277.143679 
L 190.932185 276.404606 
L 191.488276 275.229346 
L 192.044366 273.554847 
L 192.878501 270.029692 
L 193.712636 265.280734 
L 194.824816 257.226094 
L 196.215042 245.01726 
L 198.439402 222.781102 
L 201.497898 192.060687 
L 203.166169 177.474737 
L 204.556394 167.134284 
L 205.946619 158.400049 
L 207.336845 151.037426 
L 208.72707 144.932925 
L 209.83925 141.0337 
L 210.673386 138.755467 
L 211.507521 137.069816 
L 212.341656 135.988259 
L 212.897746 135.600783 
L 213.453836 135.476549 
L 214.009927 135.612439 
L 214.566017 136.005623 
L 215.122107 136.652552 
L 215.956242 138.082444 
L 216.790377 140.012582 
L 218.180603 143.987499 
L 219.570828 147.975798 
L 220.404963 149.820027 
L 220.961053 150.675948 
L 221.517144 151.201376 
L 222.073234 151.417227 
L 222.629324 151.388639 
L 224.297594 151.033684 
L 224.853684 151.306664 
L 225.409775 151.994844 
L 225.965865 153.181736 
L 226.521955 154.902019 
L 227.35609 158.42763 
L 228.46827 164.399454 
L 230.136541 173.495023 
L 230.970676 176.782527 
L 231.526766 178.159176 
L 231.804811 178.565791 
L 232.082856 178.774734 
L 232.360901 178.781354 
L 232.638947 178.583826 
L 232.916992 178.182679 
L 233.473082 176.779313 
L 234.029172 174.601235 
L 234.863307 169.957181 
L 235.697442 163.729261 
L 236.531578 155.920451 
L 237.643758 142.970505 
L 238.755938 127.122883 
L 240.146164 103.764996 
L 243.76075 39.399388 
L 244.594885 29.892407 
L 245.150975 26.345115 
L 245.42902 25.580763 
L 245.707065 25.551983 
L 245.98511 26.294846 
L 246.263155 27.834678 
L 246.819245 33.345109 
L 247.375336 42.023367 
L 248.209471 60.277006 
L 249.321651 91.116906 
L 250.711876 130.036869 
L 251.546012 147.650727 
L 252.102102 155.204354 
L 252.380147 157.49194 
L 252.658192 158.718884 
L 252.936237 158.856501 
L 253.214282 157.894766 
L 253.492327 155.841929 
L 254.048417 148.593851 
L 254.604507 137.557927 
L 255.438643 115.538218 
L 257.941048 43.312236 
L 258.497139 32.6989 
L 259.053229 25.610743 
L 259.331274 23.461061 
L 259.609319 22.240736 
L 259.887364 21.927273 
L 260.165409 22.480522 
L 260.443454 23.84705 
L 260.999544 28.746192 
L 261.555634 36.002664 
L 262.667815 54.917622 
L 266.004356 115.470585 
L 267.394581 136.743929 
L 268.506761 150.89813 
L 269.340896 159.157925 
L 270.175032 164.971027 
L 270.731122 167.375365 
L 271.287212 168.578853 
L 271.565257 168.735369 
L 271.843302 168.602309 
L 272.121347 168.187492 
L 272.677437 166.558634 
L 273.233527 163.962716 
L 274.067663 158.602133 
L 275.457888 147.484617 
L 276.848113 136.624012 
L 277.960294 129.726955 
L 279.072474 124.580257 
L 280.740744 118.468609 
L 282.13097 112.993241 
L 283.521195 106.437181 
L 287.691871 85.594579 
L 289.360142 78.760311 
L 290.750367 73.959405 
L 291.862547 70.874801 
L 292.696683 69.086405 
L 293.530818 67.76842 
L 294.364953 66.903818 
L 295.199088 66.458254 
L 295.755179 66.375703 
L 296.311269 66.450963 
L 297.145404 66.824528 
L 298.257584 67.676468 
L 300.2039 69.263882 
L 301.038035 69.642916 
L 301.87217 69.756118 
L 302.706305 69.646226 
L 305.486756 69.000736 
L 306.598936 69.112163 
L 308.823297 69.618837 
L 309.379387 69.530434 
L 309.935477 69.23563 
L 310.491567 68.687465 
L 311.047658 67.862627 
L 311.881793 66.13323 
L 313.272018 62.448129 
L 314.384199 59.632667 
L 315.218334 58.046931 
L 316.052469 57.028355 
L 316.886604 56.472372 
L 318.83292 55.551504 
L 319.667055 54.745134 
L 320.50119 53.536321 
L 321.61337 51.367788 
L 323.281641 47.422371 
L 325.227956 42.907492 
L 326.340137 40.873553 
L 327.452317 39.380154 
L 328.564497 38.294664 
L 330.788858 36.504589 
L 331.622993 35.9853 
L 332.179083 35.787868 
L 332.735173 35.769161 
L 333.291264 35.970478 
L 333.847354 36.416954 
L 334.403444 37.114008 
L 335.237579 38.598294 
L 336.349759 41.234936 
L 338.01803 46.032052 
L 340.798481 54.259229 
L 341.910661 56.924987 
L 343.022841 59.077403 
L 344.691112 62.128814 
L 345.525247 64.158867 
L 346.359382 66.832107 
L 347.471562 71.414812 
L 349.973968 82.55468 
L 350.808103 85.156402 
L 351.642239 86.903642 
L 352.476374 87.959105 
L 354.700734 90.035973 
L 355.53487 91.412669 
L 356.64705 93.924693 
L 358.31532 97.913088 
L 359.149456 99.269543 
L 359.705546 99.778615 
L 360.261636 99.966549 
L 360.817726 99.882655 
L 361.651861 99.454167 
L 362.485996 99.032155 
L 363.042087 98.963706 
L 363.598177 99.184594 
L 364.154267 99.760484 
L 364.710357 100.718094 
L 365.544492 102.845663 
L 366.378628 105.674556 
L 367.768853 111.41235 
L 374.16389 139.601602 
L 375.27607 143.268715 
L 376.110205 145.386116 
L 376.94434 146.882298 
L 377.778476 147.813814 
L 379.446746 149.148108 
L 380.002836 150.014677 
L 380.558926 151.443753 
L 381.115016 153.663419 
L 381.671107 156.885831 
L 382.227197 161.281177 
L 383.061332 170.280669 
L 383.895467 182.120518 
L 385.007648 201.377192 
L 387.510053 246.495431 
L 388.344188 258.002293 
L 389.178324 266.502618 
L 389.734414 270.361862 
L 390.290504 272.739651 
L 390.568549 273.371158 
L 390.846594 273.631954 
L 391.124639 273.524365 
L 391.402684 273.051771 
L 391.680729 272.22005 
L 392.236819 269.516974 
L 392.79291 265.53587 
L 393.627045 257.654294 
L 395.851405 235.007731 
L 396.407496 231.59664 
L 396.963586 229.857339 
L 397.241631 229.662161 
L 397.519676 229.91888 
L 397.797721 230.614231 
L 398.353811 233.22015 
L 398.909901 237.201063 
L 399.744036 244.971596 
L 401.968397 269.265556 
L 404.470803 295.976518 
L 405.582983 305.631692 
L 406.417118 310.701404 
L 406.973208 312.784556 
L 407.529299 313.778022 
L 407.807344 313.872732 
L 408.085389 313.708926 
L 408.363434 313.295212 
L 408.919524 311.752646 
L 409.475614 309.302259 
L 410.031704 305.972305 
L 410.865839 299.325587 
L 411.699975 290.698078 
L 412.812155 276.50831 
L 415.870651 234.67628 
L 416.982831 222.952703 
L 417.816966 215.915055 
L 418.651102 210.758931 
L 419.207192 208.751135 
L 419.485237 208.294538 
L 419.763282 208.260002 
L 420.041327 208.687627 
L 420.319372 209.613483 
L 420.875462 213.064362 
L 421.431552 218.715695 
L 422.265688 231.04495 
L 423.377868 252.516157 
L 425.046138 285.138361 
L 425.880273 297.271767 
L 426.436364 303.046639 
L 426.436364 303.046639 
" clip-path="url(#p0879b1f0f7)" style="fill: none; stroke-dasharray: 11.1,4.8; stroke-dashoffset: 0; stroke: #000000; stroke-width: 3"/>
   </g>
   <g id="line2d_2">
    <path d="M 27.163636 86.402964 
L 32.724538 88.220524 
L 36.061079 89.464256 
L 38.84153 90.97809 
L 41.900025 92.875035 
L 43.846341 94.06514 
L 47.182882 95.257068 
L 50.241378 96.610453 
L 53.021828 98.042455 
L 55.246189 99.553603 
L 56.636414 100.290853 
L 57.47055 100.546852 
L 58.304685 100.577215 
L 59.13882 100.371245 
L 59.972955 101.485611 
L 61.085135 103.378431 
L 62.197316 105.800181 
L 63.309496 108.911598 
L 64.421676 112.90479 
L 65.533857 118.003474 
L 66.646037 124.242042 
L 67.202127 125.960742 
L 67.480172 126.25689 
L 67.758217 126.079652 
L 68.036262 125.358902 
L 68.314307 124.002016 
L 68.592352 121.901932 
L 69.426488 112.438169 
L 69.704533 111.682451 
L 69.982578 111.60014 
L 70.260623 112.212245 
L 70.816713 114.61903 
L 71.650848 119.520234 
L 72.484984 125.798183 
L 73.597164 135.9295 
L 73.875209 138.735704 
L 74.987389 161.114301 
L 75.821524 173.505384 
L 76.65566 182.919022 
L 77.489795 190.089537 
L 78.32393 195.624288 
L 78.601975 196.834108 
L 78.88002 197.006117 
L 79.43611 196.07321 
L 79.992201 194.562973 
L 80.826336 191.417643 
L 81.382426 189.059881 
L 82.216561 187.562884 
L 82.772651 186.893075 
L 83.328741 186.500466 
L 83.884832 186.400359 
L 84.440922 186.610646 
L 84.997012 187.152096 
L 85.553102 188.049124 
L 86.109192 189.327968 
L 86.943327 192.031763 
L 87.777463 195.787759 
L 88.611598 200.064147 
L 89.445733 205.503444 
L 90.279868 211.135567 
L 91.670094 219.051152 
L 93.338364 227.293774 
L 97.50904 246.383764 
L 98.899266 263.018762 
L 101.679716 297.117841 
L 102.791897 307.450883 
L 103.626032 313.120756 
L 104.182122 315.643692 
L 104.460167 316.472727 
L 104.738212 315.854291 
L 106.406483 305.488056 
L 108.074753 293.288504 
L 109.464978 283.084205 
L 110.021069 282.286085 
L 110.577159 281.816609 
L 111.133249 281.666017 
L 111.689339 281.718301 
L 111.967384 281.5455 
L 112.245429 281.189706 
L 112.801519 279.929354 
L 113.35761 277.950649 
L 113.9137 275.269518 
L 114.747835 269.964313 
L 115.58197 263.17216 
L 116.69415 251.924702 
L 117.806331 238.326677 
L 118.084376 234.575621 
L 118.362421 233.437536 
L 120.030691 238.929884 
L 122.533097 246.902237 
L 124.201367 250.406215 
L 125.313548 252.29551 
L 126.147683 253.388098 
L 126.981818 254.142353 
L 127.537908 254.430178 
L 128.650089 254.831924 
L 130.040314 255.60292 
L 130.874449 250.550548 
L 132.54272 240.989556 
L 134.21099 232.84704 
L 135.879261 225.925832 
L 137.547531 220.019626 
L 139.215801 214.928449 
L 139.771892 213.649725 
L 140.049937 213.369095 
L 140.606027 213.61315 
L 141.162117 214.175562 
L 141.996252 215.464838 
L 144.220613 219.634333 
L 144.498658 220.828899 
L 147.279109 239.701934 
L 148.113244 243.269708 
L 148.669334 244.664344 
L 148.947379 245.015941 
L 149.225424 245.123339 
L 149.503469 244.975121 
L 149.781514 244.560712 
L 150.337604 242.881081 
L 151.17174 239.388807 
L 151.449785 239.365926 
L 151.72783 239.48498 
L 152.28392 240.074469 
L 153.118055 241.525706 
L 155.064371 245.321346 
L 155.898506 246.359013 
L 156.454596 246.708595 
L 157.010686 246.754499 
L 158.678957 246.11949 
L 159.513092 245.342308 
L 159.791137 245.006588 
L 160.069182 244.451851 
L 161.181362 240.823783 
L 163.127678 233.66912 
L 165.630084 223.416518 
L 168.410534 211.053591 
L 173.415346 188.386379 
L 175.083616 182.322842 
L 176.473841 176.539575 
L 177.307977 173.852808 
L 178.420157 171.149301 
L 179.532337 169.088357 
L 180.644518 167.563539 
L 181.756698 166.456224 
L 183.146923 165.433619 
L 185.371284 163.891581 
L 186.483464 162.794483 
L 187.317599 161.77207 
L 188.151735 161.644382 
L 189.263915 161.710433 
L 190.65414 162.046345 
L 192.600456 162.780717 
L 194.824816 163.657551 
L 195.936997 163.90717 
L 198.717447 164.253011 
L 200.663763 164.928576 
L 203.166169 165.788814 
L 204.278349 165.96797 
L 204.556394 165.976748 
L 204.834439 165.78512 
L 205.112484 165.196423 
L 206.224664 161.441291 
L 207.61489 157.095399 
L 208.72707 154.36148 
L 209.28316 153.35149 
L 209.561205 153.0186 
L 209.83925 152.900314 
L 210.117296 152.962575 
L 210.395341 153.207206 
L 210.951431 154.270775 
L 211.507521 155.982855 
L 211.785566 155.787007 
L 212.341656 154.867722 
L 212.897746 153.392598 
L 213.731881 150.465469 
L 217.346467 136.394251 
L 217.902558 134.947187 
L 218.180603 134.535488 
L 219.014738 134.274596 
L 220.126918 133.633279 
L 221.517144 132.489078 
L 225.409775 128.956512 
L 226.24391 128.503849 
L 227.078045 128.292459 
L 227.91218 128.389592 
L 228.46827 128.675714 
L 228.746316 128.967208 
L 229.580451 130.232382 
L 230.136541 130.754453 
L 230.970676 131.168791 
L 231.804811 131.295279 
L 233.751127 131.380276 
L 234.585262 131.700071 
L 235.141352 132.11369 
L 235.697442 132.737115 
L 236.253533 133.603923 
L 237.087668 135.453429 
L 237.921803 138.059228 
L 238.755938 140.820727 
L 239.590073 142.724436 
L 240.424209 144.157397 
L 241.258344 145.189931 
L 242.092479 145.887273 
L 242.926614 146.312739 
L 243.76075 146.523122 
L 244.87293 146.552526 
L 247.653381 146.272111 
L 249.877741 146.152242 
L 250.711876 146.190328 
L 250.989921 146.031126 
L 251.546012 144.884287 
L 253.770372 139.320612 
L 261.277589 119.98038 
L 262.38977 117.647464 
L 265.17022 111.705715 
L 267.394581 106.969037 
L 272.955482 97.412075 
L 277.126159 90.658583 
L 279.072474 87.715097 
L 286.857736 79.088883 
L 287.691871 78.331631 
L 291.862547 77.279286 
L 295.755179 76.542276 
L 298.535629 76.195619 
L 303.262396 75.840617 
L 308.545252 75.686979 
L 314.106153 75.764253 
L 317.442694 76.044859 
L 320.779235 76.534985 
L 326.340137 77.644362 
L 329.120587 78.083354 
L 329.954723 78.065319 
L 331.344948 76.966494 
L 332.457128 76.357172 
L 333.569309 75.973773 
L 334.681489 75.844358 
L 335.515624 75.936742 
L 336.349759 76.211304 
L 337.183895 76.688191 
L 338.01803 77.394503 
L 343.300886 82.776671 
L 344.413067 83.979007 
L 345.247202 85.113088 
L 346.359382 88.218269 
L 347.749607 92.832488 
L 349.973968 100.683462 
L 350.808103 100.745387 
L 352.198329 100.842232 
L 353.032464 101.116698 
L 353.866599 101.704916 
L 354.700734 102.716824 
L 358.593365 107.650694 
L 360.539681 109.891753 
L 362.207951 112.200493 
L 363.042087 114.238173 
L 363.876222 116.624332 
L 364.154267 117.631252 
L 364.988402 123.405405 
L 366.100582 129.379675 
L 366.656673 131.92849 
L 368.881033 147.364556 
L 369.437123 149.980188 
L 369.715168 150.21513 
L 369.993213 149.680012 
L 370.549304 147.32129 
L 371.105394 144.914026 
L 371.383439 144.309788 
L 371.939529 144.525639 
L 372.217574 144.849271 
L 372.773664 146.815048 
L 373.885845 151.931336 
L 374.998025 156.825153 
L 375.83216 159.574085 
L 376.38825 160.785296 
L 378.056521 163.0713 
L 378.890656 163.559842 
L 379.446746 163.720771 
L 379.724791 163.447456 
L 380.280881 162.156476 
L 380.836971 160.166716 
L 381.393062 157.983984 
L 381.671107 158.160358 
L 381.949152 158.570475 
L 382.227197 159.230643 
L 382.783287 162.378707 
L 383.339377 166.448742 
L 384.451557 177.501454 
L 385.563738 190.95107 
L 386.953963 214.279985 
L 388.622233 246.889382 
L 388.900279 252.757406 
L 389.178324 256.077671 
L 389.734414 256.490618 
L 390.290504 256.559091 
L 390.846594 256.338467 
L 391.402684 255.892304 
L 392.236819 254.923349 
L 393.070955 253.53574 
L 395.295315 249.504703 
L 395.57336 249.148837 
L 397.241631 255.568479 
L 398.075766 259.167432 
L 398.631856 262.448004 
L 400.022082 272.478735 
L 400.578172 274.434008 
L 401.412307 273.634305 
L 402.246442 272.468422 
L 403.080577 270.921252 
L 403.914713 268.976916 
L 404.192758 268.237147 
L 404.470803 268.70432 
L 406.973208 277.417402 
L 408.363434 281.391887 
L 409.197569 283.257173 
L 410.031704 284.626579 
L 410.587794 285.221991 
L 411.143885 285.533296 
L 411.699975 285.535455 
L 412.256065 285.204004 
L 412.812155 284.51436 
L 414.75847 280.631636 
L 415.314561 280.12019 
L 415.870651 279.867356 
L 416.426741 279.852007 
L 416.982831 280.054811 
L 417.538921 280.456101 
L 418.929147 281.882659 
L 420.041327 283.348262 
L 421.709597 286.000781 
L 423.099823 288.405407 
L 426.158319 291.041905 
L 426.436364 291.386738 
L 426.436364 291.386738 
" clip-path="url(#p0879b1f0f7)" style="fill: none; stroke: #ff00ff; stroke-width: 3; stroke-linecap: square"/>
   </g>
   <g id="patch_3">
    <path d="M 7.2 331.2 
L 7.2 7.2 
" style="fill: none; stroke: #000000; stroke-width: 0.8; stroke-linejoin: miter; stroke-linecap: square"/>
   </g>
   <g id="patch_4">
    <path d="M 446.4 331.2 
L 446.4 7.2 
" style="fill: none; stroke: #000000; stroke-width: 0.8; stroke-linejoin: miter; stroke-linecap: square"/>
   </g>
   <g id="patch_5">
    <path d="M 7.2 331.2 
L 446.4 331.2 
" style="fill: none; stroke: #000000; stroke-width: 0.8; stroke-linejoin: miter; stroke-linecap: square"/>
   </g>
   <g id="patch_6">
    <path d="M 7.2 7.2 
L 446.4 7.2 
" style="fill: none; stroke: #000000; stroke-width: 0.8; stroke-linejoin: miter; stroke-linecap: square"/>
   </g>
  </g>
 </g>
 <defs>
  <clipPath id="p0879b1f0f7">
   <rect x="7.2" y="7.2" width="439.2" height="324"/>
  </clipPath>
 </defs>
</svg>
