<?xml version="1.0" encoding="utf-8" standalone="no"?>
<!DOCTYPE svg PUBLIC "-//W3C//DTD SVG 1.1//EN"
  "http://www.w3.org/Graphics/SVG/1.1/DTD/svg11.dtd">
<svg xmlns:xlink="http://www.w3.org/1999/xlink" width="453.6pt" height="338.4pt" viewBox="0 0 453.6 338.4" xmlns="http://www.w3.org/2000/svg" version="1.1">
 <metadata>
  <rdf:RDF xmlns:dc="http://purl.org/dc/elements/1.1/" xmlns:cc="http://creativecommons.org/ns#" xmlns:rdf="http://www.w3.org/1999/02/22-rdf-syntax-ns#">
   <cc:Work>
    <dc:type rdf:resource="http://purl.org/dc/dcmitype/StillImage"/>
    <dc:date>2025-05-15T02:16:21.908839</dc:date>
    <dc:format>image/svg+xml</dc:format>
    <dc:creator>
     <cc:Agent>
      <dc:title>Matplotlib v3.10.1, https://matplotlib.org/</dc:title>
     </cc:Agent>
    </dc:creator>
   </cc:Work>
  </rdf:RDF>
 </metadata>
 <defs>
  <style type="text/css">*{stroke-linejoin: round; stroke-linecap: butt}</style>
 </defs>
 <g id="figure_1">
  <g id="patch_1">
   <path d="M 0 338.4 
L 453.6 338.4 
L 453.6 0 
L 0 0 
z
" style="fill: #ffffff"/>
  </g>
  <g id="axes_1">
   <g id="patch_2">
    <path d="M 7.2 331.2 
L 446.4 331.2 
L 446.4 7.2 
L 7.2 7.2 
z
" style="fill: #ffffff"/>
   </g>
   <g id="matplotlib.axis_1"/>
   <g id="matplotlib.axis_2"/>
   <g id="line2d_1">
    <path d="M 27.163636 151.973956 
L 28.494545 141.639752 
L 29.825455 133.018374 
L 30.890182 127.449171 
L 31.954909 123.132539 
L 32.753455 120.757175 
L 33.552 119.161538 
L 34.084364 118.518908 
L 34.616727 118.254686 
L 35.149091 118.345065 
L 35.681455 118.801388 
L 36.213818 119.648882 
L 36.746182 120.851575 
L 37.544727 123.421832 
L 38.343273 126.852539 
L 39.408 132.818109 
L 40.472727 140.405809 
L 41.537455 149.626173 
L 42.602182 160.475549 
L 43.666909 172.952145 
L 44.199273 184.661357 
L 45.530182 222.495784 
L 46.328727 244.606796 
L 46.861091 242.58458 
L 47.659636 239.95422 
L 48.458182 238.250866 
L 50.853818 234.079889 
L 51.652364 231.665331 
L 52.184727 229.416565 
L 52.983273 224.731628 
L 53.781818 217.990685 
L 54.580364 208.552799 
L 55.378909 195.5915 
L 56.177455 178.074347 
L 56.976 154.725868 
L 57.774545 123.989233 
L 58.573091 83.802054 
L 59.105455 50.577133 
L 59.371636 61.87623 
L 60.436364 122.679622 
L 60.968727 126.254028 
L 61.501091 131.218153 
L 62.299636 141.055339 
L 63.364364 157.375566 
L 67.623273 228.419087 
L 68.688 241.288049 
L 69.752727 251.119889 
L 70.551273 256.711888 
L 71.616 262.370935 
L 73.213091 269.379883 
L 73.479273 270.271088 
L 73.745455 268.274075 
L 74.544 257.217553 
L 75.608727 238.131395 
L 78.270545 186.998624 
L 79.335273 171.778684 
L 80.4 159.778389 
L 81.464727 150.7483 
L 82.263273 145.703486 
L 83.061818 141.981275 
L 83.594182 140.167834 
L 84.126545 138.841721 
L 84.658909 138.007833 
L 85.191273 137.602985 
L 85.723636 137.719049 
L 85.989818 137.922193 
L 86.522182 138.76105 
L 87.054545 140.085495 
L 87.586909 142.022918 
L 88.119273 144.590664 
L 88.917818 149.845012 
L 89.982545 158.074973 
L 91.047273 165.032842 
L 92.112 173.611436 
L 93.176727 184.077453 
L 97.169455 227.073987 
L 99.831273 254.390334 
L 101.428364 268.909533 
L 102.759273 279.081842 
L 103.824 285.381855 
L 104.356364 287.749319 
L 104.622545 288.280164 
L 104.888727 286.46743 
L 106.485818 271.010322 
L 108.349091 252.849301 
L 109.147636 243.145047 
L 109.946182 231.028363 
L 110.478545 223.351108 
L 111.010909 221.5212 
L 111.809455 217.658634 
L 112.608 212.372237 
L 113.406545 205.58491 
L 114.205091 197.132976 
L 115.269818 182.984803 
L 116.334545 165.197924 
L 117.399273 143.367448 
L 118.464 117.417286 
L 119.794909 79.376029 
L 121.392 32.399645 
L 122.456727 68.777287 
L 123.255273 89.744363 
L 124.053818 105.985622 
L 124.852364 118.177701 
L 125.650909 127.054085 
L 126.449455 133.035157 
L 126.981818 135.610365 
L 127.780364 144.811311 
L 128.578909 151.480063 
L 129.377455 156.203439 
L 130.176 159.446171 
L 130.974545 161.498939 
L 131.506909 162.408337 
L 132.039273 163.023368 
L 132.837818 163.45678 
L 133.636364 163.512152 
L 134.701091 163.181181 
L 135.765818 162.597699 
L 141.888 158.907808 
L 143.485091 158.221252 
L 143.751273 157.608503 
L 144.549818 153.479846 
L 145.348364 147.781833 
L 146.146909 140.495136 
L 147.211636 128.59219 
L 150.139636 93.943438 
L 150.672 90.180215 
L 150.938182 88.946465 
L 151.204364 89.544361 
L 153.067636 121.459602 
L 153.866182 131.073191 
L 154.664727 138.056323 
L 155.197091 141.306622 
L 155.729455 143.486918 
L 156.261818 144.635046 
L 156.528 144.859591 
L 156.794182 144.845792 
L 157.060364 144.626022 
L 157.592727 143.568924 
L 158.125091 141.783521 
L 158.923636 137.932305 
L 159.988364 131.135832 
L 160.254545 129.221688 
L 161.319273 124.595434 
L 162.650182 118.523472 
L 162.916364 118.5329 
L 163.182545 118.677476 
L 163.714909 119.415349 
L 164.247273 120.742832 
L 164.779636 122.676989 
L 165.578182 126.740003 
L 166.376727 132.161838 
L 167.441455 141.328901 
L 168.772364 155.441321 
L 170.635636 178.456275 
L 173.829818 218.852575 
L 175.160727 233.134458 
L 176.225455 242.548441 
L 176.757818 246.450582 
L 177.290182 254.361489 
L 178.354909 201.267585 
L 178.887273 184.806266 
L 179.419636 174.186404 
L 179.952 168.096149 
L 180.218182 166.38845 
L 180.484364 165.458424 
L 180.750545 165.195975 
L 181.016727 165.468062 
L 181.282909 166.222087 
L 181.815273 168.981231 
L 182.613818 175.201324 
L 183.678545 185.800996 
L 186.606545 216.406415 
L 187.671273 225.039811 
L 188.469818 229.580154 
L 189.002182 231.313292 
L 189.268364 231.69601 
L 189.534545 231.705491 
L 189.800727 231.298747 
L 190.066909 230.428517 
L 190.333091 229.042923 
L 190.865455 224.355819 
L 191.131636 220.949401 
L 192.994909 175.076858 
L 193.527273 166.903428 
L 195.390545 160.296053 
L 195.922909 159.03488 
L 196.455273 158.292461 
L 196.721455 158.145093 
L 196.987636 158.165406 
L 197.253818 158.36337 
L 197.786182 159.317168 
L 198.318545 161.028045 
L 198.850909 163.475144 
L 199.649455 168.3833 
L 200.714182 176.663217 
L 202.577455 191.464722 
L 203.109818 194.469996 
L 203.642182 196.344699 
L 203.908364 196.719289 
L 204.174545 196.717261 
L 204.440727 196.216073 
L 204.706909 195.239444 
L 205.239273 191.548149 
L 207.368727 170.663351 
L 208.699636 160.06259 
L 210.296727 149.185984 
L 214.023273 127.71076 
L 215.620364 116.835594 
L 216.951273 106.096279 
L 217.749818 98.656789 
L 218.016 106.509378 
L 219.346909 158.658913 
L 220.411636 192.256343 
L 221.476364 219.154254 
L 222.541091 239.882818 
L 223.339636 251.765837 
L 224.138182 260.900645 
L 224.936727 267.691466 
L 225.735273 272.632794 
L 226.533818 276.318712 
L 227.598545 280.224642 
L 228.397091 283.148936 
L 228.663273 282.69447 
L 229.195636 278.564612 
L 229.728 272.433082 
L 230.526545 260.516729 
L 231.857455 236.681923 
L 235.584 167.932121 
L 237.181091 142.750327 
L 238.778182 120.982387 
L 240.109091 105.518748 
L 241.173818 95.065811 
L 242.238545 86.607302 
L 243.037091 81.833557 
L 243.569455 79.870923 
L 244.634182 78.357589 
L 245.166545 77.950213 
L 245.698909 77.863731 
L 246.231273 78.215594 
L 246.763636 79.105978 
L 247.296 80.613711 
L 247.828364 82.825047 
L 249.159273 89.367219 
L 250.224 95.113037 
L 251.554909 103.876147 
L 252.885818 114.307596 
L 254.482909 128.757377 
L 256.612364 150.422385 
L 260.871273 194.709446 
L 261.936 206.059316 
L 263.266909 222.827633 
L 264.864 246.277069 
L 266.727273 277.217256 
L 268.856727 314.494489 
L 269.122909 314.978442 
L 269.655273 310.460214 
L 270.453818 301.491385 
L 271.518545 286.336006 
L 273.115636 259.69531 
L 275.245091 224.215605 
L 277.108364 195.088416 
L 277.906909 180.985757 
L 278.439273 174.669202 
L 278.971636 171.133306 
L 279.237818 170.439175 
L 279.504 170.588263 
L 279.770182 171.485415 
L 280.036364 173.208221 
L 280.568727 179.160018 
L 281.101091 188.662081 
L 281.633455 201.729341 
L 282.432 228.337565 
L 282.964364 250.917615 
L 283.230545 248.029743 
L 284.561455 222.867793 
L 285.892364 201.905536 
L 287.489455 180.674195 
L 289.352727 159.199892 
L 293.345455 114.510687 
L 293.877818 113.927713 
L 294.676364 112.663801 
L 295.474909 110.973817 
L 296.539636 108.079331 
L 297.604364 104.498623 
L 298.935273 99.128 
L 300.266182 92.823804 
L 301.863273 84.143787 
L 303.726545 72.664844 
L 304.525091 67.397662 
L 304.791273 67.999948 
L 305.057455 68.928798 
L 307.719273 97.626622 
L 308.784 105.779353 
L 310.114909 114.814761 
L 310.647273 121.550543 
L 311.179636 126.3482 
L 311.712 129.495443 
L 312.244364 131.25 
L 312.510545 131.677847 
L 312.776727 131.841717 
L 313.042909 131.765909 
L 313.309091 131.473351 
L 313.841455 130.322432 
L 314.373818 128.541997 
L 315.172364 124.898806 
L 316.237091 118.871631 
L 318.100364 106.714067 
L 321.028364 87.622107 
L 322.625455 78.507818 
L 323.956364 71.958519 
L 325.021091 67.524208 
L 326.085818 63.894798 
L 326.618182 62.421265 
L 327.150545 60.321798 
L 327.416727 59.678062 
L 327.682909 59.330851 
L 327.949091 59.299566 
L 328.215273 59.603377 
L 328.481455 60.261316 
L 329.013818 67.968469 
L 333.538909 140.668118 
L 334.603636 153.298981 
L 335.402182 160.55162 
L 336.200727 165.645855 
L 336.733091 167.748271 
L 337.265455 168.767062 
L 337.531636 168.861568 
L 337.797818 168.67656 
L 338.064 168.211266 
L 338.596364 166.441049 
L 339.128727 163.511573 
L 339.661091 159.478457 
L 340.459636 151.473164 
L 341.258182 141.231253 
L 342.322909 124.538569 
L 343.121455 110.114595 
L 343.387636 101.794464 
L 344.718545 35.982021 
L 344.984727 35.915061 
L 346.315636 58.132038 
L 348.711273 98.751997 
L 350.042182 117.696905 
L 351.373091 133.169287 
L 352.437818 143.045044 
L 353.502545 150.787222 
L 354.301091 155.2508 
L 355.099636 158.571079 
L 355.632 160.151267 
L 356.164364 161.198112 
L 356.696727 161.634473 
L 356.962909 161.679716 
L 357.495273 161.176079 
L 357.761455 160.728429 
L 358.293818 159.143694 
L 358.826182 156.787308 
L 359.358545 153.495963 
L 359.890909 149.099572 
L 360.423273 137.811413 
L 360.955636 122.09312 
L 361.488 101.34541 
L 362.286545 59.382431 
L 362.552727 42.226034 
L 362.818909 37.913685 
L 363.617455 71.423334 
L 364.416 94.86976 
L 364.948364 105.19501 
L 365.480727 111.649997 
L 365.746909 113.540088 
L 366.013091 114.547871 
L 366.279273 114.743079 
L 366.545455 114.207279 
L 366.811636 112.929744 
L 367.344 108.46743 
L 367.876364 101.786213 
L 368.674909 88.681751 
L 371.602909 36.296805 
L 372.135273 31.159996 
L 372.401455 29.646838 
L 372.667636 39.452686 
L 373.466182 100.083114 
L 374.264727 145.943498 
L 375.063273 178.346557 
L 375.595636 193.185166 
L 376.128 203.159634 
L 376.394182 206.413277 
L 376.660364 208.189015 
L 377.192727 209.71937 
L 377.458909 210.066378 
L 377.725091 210.125613 
L 377.991273 209.893396 
L 378.257455 209.368016 
L 378.789818 207.441627 
L 379.322182 204.373606 
L 380.120727 197.691038 
L 380.919273 188.858211 
L 381.984 174.385756 
L 383.847273 145.170969 
L 384.645818 132.549621 
L 384.912 133.05475 
L 385.976727 147.919369 
L 386.775273 156.416116 
L 387.573818 162.866327 
L 388.372364 167.480398 
L 389.170909 170.529379 
L 389.703273 171.855475 
L 390.235636 172.698562 
L 390.768 173.1639 
L 391.300364 173.350637 
L 391.832727 173.338629 
L 392.631273 173.126725 
L 393.163636 172.96684 
L 393.962182 172.310358 
L 394.760727 171.3672 
L 395.559273 170.138085 
L 396.890182 167.391036 
L 398.221091 163.854078 
L 399.552 159.58304 
L 401.149091 153.601283 
L 403.012364 145.635157 
L 405.408 134.388009 
L 409.933091 112.701495 
L 410.731636 106.513609 
L 411.530182 98.354628 
L 412.328727 88.036383 
L 413.127273 75.29049 
L 414.192 54.00224 
L 415.522909 24.163188 
L 416.055273 29.577087 
L 416.853818 39.708411 
L 417.918545 56.214191 
L 419.249455 80.905146 
L 422.709818 148.883174 
L 423.508364 159.916293 
L 424.040727 165.002786 
L 424.573091 167.785561 
L 424.839273 168.174099 
L 425.105455 167.832261 
L 425.371636 166.699635 
L 425.637818 164.660052 
L 426.170182 157.77146 
L 426.436364 152.794993 
L 426.436364 152.794993 
" clip-path="url(#p53b1883b1a)" style="fill: none; stroke: #ffa500; stroke-width: 3; stroke-linecap: square"/>
   </g>
   <g id="line2d_2">
    <path d="M 27.163636 283.737907 
L 27.962182 275.059646 
L 29.293091 257.393195 
L 31.156364 232.487535 
L 32.221091 221.075657 
L 33.019636 214.500725 
L 33.818182 209.638234 
L 34.616727 206.262486 
L 35.415273 203.954003 
L 37.278545 199.281944 
L 37.810909 197.19287 
L 38.343273 194.39942 
L 38.875636 190.729956 
L 39.674182 183.221707 
L 40.472727 173.016384 
L 41.271273 159.968892 
L 41.537455 155.023763 
L 41.803636 153.04733 
L 43.933091 171.80364 
L 44.731636 182.895836 
L 45.530182 191.560087 
L 46.328727 198.031331 
L 47.127273 202.582418 
L 47.659636 204.697467 
L 48.192 206.152768 
L 48.724364 207.027387 
L 49.256727 207.373342 
L 49.522909 207.36926 
L 50.055273 207.030108 
L 50.587636 206.275144 
L 51.12 205.127499 
L 51.918545 202.697254 
L 52.717091 199.414248 
L 53.515636 195.21972 
L 54.314182 189.986799 
L 55.378909 182.425144 
L 55.911273 181.331467 
L 56.443636 179.625585 
L 57.242182 175.901898 
L 58.040727 170.878687 
L 59.105455 162.456599 
L 60.436364 150.784958 
L 62.033455 145.010663 
L 62.832 143.016919 
L 63.364364 142.393987 
L 63.630545 142.367583 
L 63.896727 142.566531 
L 64.162909 143.058177 
L 64.695273 144.953061 
L 65.227636 148.364105 
L 65.76 153.603214 
L 66.292364 161.056626 
L 66.824727 171.141285 
L 67.623273 192.180851 
L 68.688 225.975341 
L 69.220364 236.018436 
L 69.752727 242.020497 
L 70.018909 243.603955 
L 70.285091 244.342166 
L 70.551273 244.321989 
L 70.817455 243.613238 
L 71.349818 240.421287 
L 72.148364 232.660938 
L 73.479273 218.923064 
L 74.011636 215.939936 
L 74.277818 215.499906 
L 74.544 215.940007 
L 74.810182 217.397292 
L 75.076364 220.010113 
L 75.608727 229.262026 
L 76.141091 244.820627 
L 76.673455 267.810014 
L 77.205818 291.930397 
L 77.472 294.818367 
L 77.738182 294.395081 
L 78.536727 286.583266 
L 79.601455 273.794901 
L 80.932364 254.745041 
L 83.061818 220.281569 
L 85.191273 186.942953 
L 86.256 173.281905 
L 87.054545 165.290884 
L 87.586909 161.282014 
L 88.119273 158.565601 
L 88.651636 157.207658 
L 88.917818 157.073528 
L 89.184 157.367842 
L 89.450182 158.075834 
L 89.982545 160.745125 
L 90.514909 165.26304 
L 91.047273 171.681404 
L 91.845818 185.116152 
L 92.644364 203.244211 
L 93.442909 226.218197 
L 94.241455 251.209624 
L 94.507636 247.667338 
L 95.838545 222.130499 
L 97.169455 200.903345 
L 98.234182 187.168806 
L 99.298909 176.353094 
L 100.097455 170.178429 
L 100.896 165.68425 
L 101.428364 163.631781 
L 101.960727 162.343115 
L 102.226909 161.988127 
L 102.493091 161.827926 
L 102.759273 161.864057 
L 103.025455 162.098258 
L 103.557818 163.16891 
L 104.090182 165.057983 
L 104.622545 167.787457 
L 105.421091 173.516105 
L 106.219636 181.304562 
L 107.018182 191.289984 
L 107.816727 203.640483 
L 108.881455 224.143818 
L 110.212364 252.769398 
L 112.608 153.486201 
L 113.672727 120.59801 
L 114.737455 95.633651 
L 115.536 82.02348 
L 116.334545 72.725869 
L 116.866909 68.766297 
L 117.399273 66.512106 
L 117.665455 66.021355 
L 117.931636 65.887137 
L 118.197818 66.148989 
L 118.464 66.766549 
L 118.996364 69.017527 
L 119.528727 72.508593 
L 120.327273 79.82008 
L 121.392 92.691465 
L 122.190545 104.072778 
L 122.456727 105.248223 
L 123.255273 96.963556 
L 123.787636 93.502143 
L 124.32 91.624886 
L 124.586182 91.184837 
L 124.852364 91.027691 
L 125.118545 91.132063 
L 125.384727 91.474428 
L 125.917091 92.676717 
L 126.715636 95.387003 
L 126.981818 96.430284 
L 127.514182 101.732368 
L 128.312727 112.741804 
L 129.377455 132.213243 
L 130.708364 161.712985 
L 133.104 216.086698 
L 134.168727 234.586283 
L 134.701091 241.300163 
L 135.233455 245.901602 
L 135.499636 247.338149 
L 136.032 244.395861 
L 136.830545 238.588789 
L 137.895273 229.055599 
L 139.226182 214.984181 
L 141.621818 186.641749 
L 143.751273 161.879384 
L 145.348364 147.561748 
L 146.945455 135.510136 
L 148.542545 125.387081 
L 150.139636 116.787051 
L 150.938182 112.282181 
L 152.535273 101.789127 
L 154.132364 92.532633 
L 155.995636 82.903366 
L 157.858909 74.501265 
L 158.923636 70.439901 
L 159.988364 67.225084 
L 160.254545 66.585263 
L 161.053091 66.422358 
L 161.851636 66.015052 
L 163.981091 64.892083 
L 164.513455 64.926844 
L 165.045818 65.242278 
L 165.578182 65.996513 
L 166.110545 67.253051 
L 166.642909 69.162893 
L 167.175273 71.886837 
L 167.707636 75.590825 
L 168.506182 83.36097 
L 169.304727 94.386102 
L 170.103273 109.441803 
L 170.901818 129.381134 
L 171.700364 155.138335 
L 172.232727 176.082868 
L 172.498909 174.838514 
L 173.297455 148.889582 
L 174.096 129.439456 
L 174.628364 120.263844 
L 175.160727 114.311283 
L 175.426909 112.54484 
L 175.693091 111.590902 
L 175.959273 111.45205 
L 176.225455 112.127879 
L 176.491636 113.615176 
L 177.024 117.360176 
L 178.088727 117.526328 
L 179.153455 117.920467 
L 180.218182 118.558989 
L 181.282909 119.420405 
L 182.613818 120.9218 
L 183.678545 122.48703 
L 184.743273 124.402912 
L 185.808 126.714687 
L 186.872727 129.461437 
L 187.937455 132.682066 
L 189.268364 137.460498 
L 190.599273 143.103911 
L 191.930182 149.672223 
L 193.261091 157.209344 
L 193.527273 158.830139 
L 196.721455 224.868883 
L 196.987636 221.04912 
L 197.786182 204.6889 
L 198.584727 192.19084 
L 199.383273 182.73661 
L 200.181818 175.676063 
L 200.980364 170.505836 
L 201.778909 166.886557 
L 202.577455 164.510595 
L 203.109818 163.490664 
L 203.642182 162.895927 
L 204.174545 162.645452 
L 204.706909 162.699332 
L 205.239273 163.028653 
L 206.037818 163.959311 
L 207.102545 165.763622 
L 208.965818 169.144628 
L 209.498182 169.724819 
L 209.764364 169.865497 
L 210.030545 169.870325 
L 210.296727 169.66913 
L 210.562909 169.078546 
L 211.095273 166.726408 
L 211.627636 162.693942 
L 212.16 156.965698 
L 212.426182 153.458761 
L 212.692364 155.773012 
L 213.757091 171.35398 
L 214.821818 183.956244 
L 215.886545 193.878183 
L 216.685091 199.69003 
L 217.483636 204.200124 
L 218.282182 207.416978 
L 218.814545 208.818522 
L 219.346909 209.586969 
L 219.613091 209.704903 
L 219.879273 209.640858 
L 220.145455 209.385379 
L 220.677818 208.253693 
L 221.210182 206.202821 
L 221.742545 203.041129 
L 222.274909 198.631501 
L 222.807273 192.703686 
L 223.339636 185.021322 
L 224.138182 169.404127 
L 224.936727 147.599617 
L 225.735273 119.567105 
L 226.001455 118.379353 
L 227.066182 119.206324 
L 228.130909 119.786014 
L 229.195636 120.649063 
L 229.994182 121.568977 
L 230.792727 122.76068 
L 231.591273 124.274154 
L 232.656 126.816075 
L 233.720727 129.993954 
L 235.051636 134.860765 
L 236.382545 140.629599 
L 238.245818 149.939974 
L 244.101818 181.401279 
L 244.900364 187.448697 
L 245.698909 194.969349 
L 246.497455 204.157445 
L 247.562182 219.427772 
L 248.626909 238.764361 
L 248.893091 238.860297 
L 250.224 232.723035 
L 251.554909 227.66171 
L 252.885818 223.54191 
L 255.281455 216.595716 
L 256.08 213.577177 
L 256.878545 209.69473 
L 257.677091 204.56784 
L 258.475636 197.749842 
L 259.274182 188.7899 
L 260.072727 177.163457 
L 264.597818 164.855875 
L 265.928727 160.124177 
L 266.993455 155.461686 
L 267.525818 153.281636 
L 268.058182 151.930961 
L 269.122909 152.091899 
L 269.921455 152.016618 
L 270.72 151.729924 
L 271.518545 151.176234 
L 272.317091 150.344295 
L 273.381818 148.816618 
L 275.777455 144.980343 
L 276.309818 144.640102 
L 276.576 144.665103 
L 276.842182 144.844528 
L 277.108364 145.194705 
L 277.640727 146.444449 
L 278.173091 148.373006 
L 278.705455 151.022283 
L 279.504 156.286849 
L 280.302545 163.102266 
L 281.101091 171.532079 
L 282.165818 185.540593 
L 283.230545 203.350163 
L 284.295273 226.136684 
L 285.093818 247.48477 
L 285.892364 271.844188 
L 286.957091 260.427038 
L 288.021818 251.053772 
L 289.352727 241.535821 
L 290.683636 232.095029 
L 291.482182 224.165737 
L 292.014545 216.619154 
L 292.546909 206.102856 
L 293.079273 191.340291 
L 293.345455 181.848973 
L 294.410182 160.378568 
L 295.741091 128.285851 
L 297.072 92.882951 
L 297.604364 87.079723 
L 298.136727 83.555599 
L 298.669091 81.481501 
L 298.935273 80.921561 
L 299.201455 80.697367 
L 299.467636 80.723192 
L 299.733818 80.973633 
L 300.266182 82.082908 
L 300.798545 83.965433 
L 301.597091 87.789418 
L 302.661818 94.181676 
L 307.453091 125.906589 
L 308.784 132.615633 
L 309.848727 136.860144 
L 310.114909 139.114457 
L 313.309091 184.495116 
L 316.237091 225.055866 
L 318.100364 247.894529 
L 319.431273 261.818623 
L 320.496 271.113724 
L 321.294545 276.760354 
L 322.093091 281.098971 
L 322.625455 283.195115 
L 323.157818 284.504981 
L 323.424 283.791199 
L 328.215273 239.598969 
L 332.740364 201.370359 
L 334.071273 192.213198 
L 335.136 186.351394 
L 335.934545 182.983152 
L 336.733091 180.616821 
L 337.265455 179.647732 
L 337.797818 179.205586 
L 338.064 179.182218 
L 338.330182 179.293209 
L 338.862545 179.923883 
L 339.394909 181.105517 
L 339.927273 182.840121 
L 340.725818 186.522981 
L 341.524364 191.426493 
L 342.589091 199.778742 
L 343.121455 203.779054 
L 343.387636 200.412217 
L 344.186182 179.251408 
L 344.718545 170.224602 
L 345.250909 164.801766 
L 345.517091 163.352952 
L 345.783273 162.687955 
L 346.049455 162.75732 
L 346.315636 163.520527 
L 346.581818 164.936528 
L 347.114182 169.613986 
L 347.646545 176.434547 
L 348.445091 190.096675 
L 349.509818 213.319047 
L 350.840727 247.663919 
L 353.236364 315.240256 
L 353.502545 311.546263 
L 354.567273 292.242947 
L 355.632 277.458334 
L 356.696727 266.200345 
L 357.761455 257.657812 
L 358.826182 251.240137 
L 359.624727 247.5019 
L 359.890909 246.42362 
L 360.423273 234.455085 
L 360.955636 226.23894 
L 361.488 221.261165 
L 361.754182 219.843487 
L 362.020364 219.070308 
L 362.286545 218.893859 
L 362.552727 219.269809 
L 362.818909 220.157024 
L 363.351273 223.390776 
L 363.883636 228.282017 
L 364.682182 238.380932 
L 365.480727 251.325596 
L 366.545455 272.428167 
L 367.077818 283.486087 
L 367.344 285.32988 
L 368.142545 288.258815 
L 368.941091 290.414099 
L 369.473455 291.383938 
L 370.005818 291.951293 
L 370.538182 292.079349 
L 371.070545 291.715427 
L 371.602909 290.803888 
L 372.135273 289.275706 
L 372.667636 287.048444 
L 373.2 283.995546 
L 373.998545 277.635767 
L 374.797091 268.635963 
L 375.595636 256.353521 
L 376.660364 235.953724 
L 377.192727 232.59742 
L 378.789818 220.473687 
L 380.386909 210.195075 
L 381.984 201.395158 
L 383.847273 192.546188 
L 385.976727 183.672482 
L 389.170909 171.470545 
L 392.631273 158.021093 
L 393.163636 155.853806 
L 394.760727 142.645077 
L 395.825455 135.173758 
L 396.890182 129.296162 
L 397.688727 126.175183 
L 398.221091 124.785182 
L 398.753455 123.984774 
L 399.019636 123.813302 
L 399.285818 123.797325 
L 399.552 123.942762 
L 400.084364 124.712113 
L 400.616727 126.117458 
L 401.149091 128.149842 
L 401.947636 132.326902 
L 402.746182 137.744769 
L 403.810909 146.685268 
L 406.472727 170.42843 
L 407.271273 174.817447 
L 408.069818 178.03862 
L 408.868364 180.354618 
L 409.933091 182.688365 
L 410.731636 185.623037 
L 411.530182 187.812191 
L 412.328727 189.407284 
L 413.127273 190.538707 
L 413.925818 191.321041 
L 414.990545 192.004375 
L 417.386182 193.28917 
L 418.184727 194.097487 
L 418.717091 194.889187 
L 419.515636 196.604181 
L 420.048 198.225284 
L 420.846545 201.616735 
L 421.645091 206.492693 
L 422.443636 213.36867 
L 423.242182 222.888096 
L 424.040727 235.839186 
L 424.839273 253.166934 
L 425.637818 276.156247 
L 426.436364 306.260173 
L 426.436364 306.260173 
" clip-path="url(#p53b1883b1a)" style="fill: none; stroke: #ff0000; stroke-width: 3; stroke-linecap: square"/>
   </g>
   <g id="line2d_3">
    <path d="M 27.163636 139.907843 
L 29.026909 133.64206 
L 29.825455 131.403003 
L 30.624 129.762773 
L 31.156364 129.033081 
L 31.688727 128.632184 
L 31.954909 128.540487 
L 32.487273 128.671457 
L 33.019636 129.143668 
L 33.552 129.945428 
L 34.084364 131.057987 
L 34.882909 133.281296 
L 35.947636 137.040359 
L 37.810909 144.94581 
L 39.940364 153.929726 
L 41.271273 158.497571 
L 42.069818 160.624478 
L 42.868364 162.203104 
L 43.400727 162.920646 
L 43.933091 163.50283 
L 45.796364 166.933344 
L 47.127273 169.840234 
L 48.458182 173.384916 
L 49.522909 176.762524 
L 51.12 182.747389 
L 53.515636 192.140954 
L 54.314182 194.259365 
L 54.846545 194.940145 
L 55.112727 194.957051 
L 55.378909 194.702986 
L 55.645091 194.131467 
L 55.911273 193.191706 
L 56.443636 189.982849 
L 56.976 184.58152 
L 57.508364 176.228664 
L 58.306909 160.718879 
L 60.436364 222.180815 
L 61.234909 229.713406 
L 61.767273 232.929839 
L 62.299636 234.958441 
L 62.832 235.99326 
L 63.098182 236.192875 
L 63.364364 236.207245 
L 63.630545 236.053724 
L 64.162909 235.240316 
L 64.695273 233.940071 
L 65.493818 231.197983 
L 66.558545 226.482876 
L 67.889455 219.385935 
L 69.486545 209.714454 
L 71.349818 197.151709 
L 72.946909 185.114344 
L 74.544 171.430674 
L 75.874909 158.279592 
L 77.472 139.956808 
L 80.133818 107.694567 
L 81.730909 113.238155 
L 83.328 119.691333 
L 84.658909 125.936259 
L 85.989818 133.125485 
L 87.320727 141.389259 
L 88.917818 152.828385 
L 90.781091 168.172888 
L 93.709091 194.276465 
L 94.507636 195.106016 
L 95.572364 196.590716 
L 96.903273 198.944389 
L 98.766545 202.801345 
L 101.162182 207.80046 
L 101.694545 208.783629 
L 101.960727 206.522758 
L 102.226909 202.637124 
L 103.291636 181.084406 
L 104.356364 164.096829 
L 105.154909 154.633135 
L 105.953455 147.95457 
L 106.485818 145.10724 
L 107.018182 143.436918 
L 107.284364 143.113163 
L 107.550545 143.072836 
L 107.816727 143.30795 
L 108.082909 143.813413 
L 108.615273 145.615441 
L 109.147636 148.51551 
L 109.946182 154.537717 
L 110.212364 156.952004 
L 110.744727 165.581265 
L 111.809455 189.436734 
L 115.269818 273.047982 
L 116.068364 286.237125 
L 116.600727 292.766916 
L 117.133091 297.289969 
L 117.665455 299.762979 
L 118.197818 300.629407 
L 118.464 300.565158 
L 118.730182 300.060748 
L 119.262545 297.881556 
L 119.794909 294.384262 
L 120.593455 287.272243 
L 121.924364 272.454295 
L 124.32 244.979937 
L 125.384727 235.1364 
L 126.183273 229.37227 
L 126.981818 225.237951 
L 129.111273 152.365233 
L 130.708364 100.780151 
L 131.773091 73.450434 
L 132.571636 58.825985 
L 133.104 52.536063 
L 133.370182 50.587527 
L 133.636364 51.342991 
L 134.967273 76.607615 
L 136.298182 97.381308 
L 138.96 137.658989 
L 140.024727 157.679764 
L 141.089455 182.134394 
L 142.154182 212.344235 
L 143.218909 249.499941 
L 144.816 312.6728 
L 145.348364 306.677413 
L 146.679273 291.572844 
L 149.074909 265.363328 
L 150.139636 250.307758 
L 150.938182 236.05627 
L 151.736727 218.33693 
L 152.535273 196.455137 
L 153.6 159.592117 
L 154.664727 112.804673 
L 155.729455 55.294224 
L 155.995636 39.169433 
L 156.261818 33.952023 
L 157.060364 74.689451 
L 157.858909 104.489546 
L 158.657455 124.992802 
L 159.189818 134.27119 
L 159.722182 140.646997 
L 160.254545 144.45692 
L 160.520727 145.848431 
L 160.786909 146.386759 
L 161.053091 146.232808 
L 161.319273 145.334488 
L 161.851636 141.66491 
L 162.384 135.740123 
L 163.182545 123.40022 
L 164.247273 102.358372 
L 167.973818 23.642907 
L 168.24 27.578744 
L 169.304727 67.03832 
L 170.369455 99.262656 
L 171.434182 124.298276 
L 172.232727 138.360766 
L 173.031273 148.46235 
L 173.563636 153.049542 
L 174.096 155.92124 
L 174.362182 156.752687 
L 174.628364 157.146896 
L 174.894545 157.124283 
L 175.160727 156.711237 
L 175.426909 155.911619 
L 175.959273 153.128211 
L 176.491636 148.793584 
L 177.290182 141.786611 
L 178.088727 134.346208 
L 178.887273 124.05549 
L 179.685818 110.241246 
L 180.484364 92.40607 
L 181.282909 69.96453 
L 182.347636 32.261916 
L 182.613818 31.411841 
L 187.138909 139.676258 
L 188.469818 164.857911 
L 189.534545 180.996879 
L 190.599273 193.344481 
L 191.397818 200.146178 
L 192.196364 205.013699 
L 192.994909 208.245433 
L 194.059636 211.04709 
L 194.325818 211.264559 
L 194.592 211.133484 
L 194.858182 210.670016 
L 195.124364 209.868818 
L 195.656727 207.147814 
L 196.189091 202.98774 
L 196.721455 197.323084 
L 197.253818 188.188975 
L 198.318545 169.916533 
L 199.383273 154.92299 
L 200.448 142.867586 
L 201.512727 133.332912 
L 202.577455 126.005255 
L 203.642182 120.52092 
L 204.440727 117.428487 
L 205.239273 115.072558 
L 206.037818 113.347302 
L 206.836364 112.143311 
L 207.634909 111.356947 
L 208.433455 110.919533 
L 209.232 110.745076 
L 210.296727 110.801063 
L 211.627636 111.060036 
L 212.958545 111.553016 
L 214.289455 112.334393 
L 215.620364 113.429027 
L 216.152727 113.932488 
L 216.418909 113.94799 
L 217.483636 113.293931 
L 218.016 113.200234 
L 218.548364 113.354501 
L 219.080727 113.802941 
L 219.613091 114.612022 
L 220.145455 115.864908 
L 220.677818 117.655648 
L 221.210182 120.072094 
L 221.742545 123.241055 
L 222.541091 129.709735 
L 223.339636 138.739385 
L 224.138182 150.974004 
L 224.936727 167.218318 
L 225.735273 188.423843 
L 226.533818 215.734028 
L 227.598545 254.47072 
L 229.195636 316.472727 
L 229.461818 314.857902 
L 230.260364 299.655389 
L 231.058909 287.676507 
L 231.857455 278.225947 
L 232.922182 268.589333 
L 233.986909 261.370657 
L 235.051636 255.8576 
L 236.116364 251.523104 
L 237.181091 248.019486 
L 238.512 244.500058 
L 239.842909 241.721382 
L 240.907636 239.96097 
L 241.972364 238.586481 
L 243.037091 237.588933 
L 243.303273 237.399009 
L 243.569455 236.411881 
L 244.900364 226.684633 
L 245.965091 217.363513 
L 247.029818 206.075784 
L 248.094545 192.454264 
L 249.159273 176.214242 
L 250.490182 154.15866 
L 250.756364 155.723029 
L 251.554909 167.083152 
L 252.353455 174.881782 
L 252.885818 178.32498 
L 253.418182 180.565214 
L 253.950545 181.725851 
L 254.216727 181.936684 
L 254.482909 181.906426 
L 254.749091 181.631284 
L 255.281455 180.484666 
L 255.813818 178.615265 
L 256.346182 176.074073 
L 257.144727 171.160571 
L 258.209455 162.968751 
L 259.540364 150.761432 
L 260.072727 145.446111 
L 261.137455 144.056409 
L 262.202182 142.265581 
L 263.266909 139.944044 
L 264.331636 136.947644 
L 265.396364 133.149765 
L 266.461091 128.419068 
L 267.525818 122.661434 
L 268.856727 113.978644 
L 270.453818 101.673432 
L 272.583273 84.722934 
L 273.381818 79.812197 
L 273.914182 77.648017 
L 274.180364 77.025243 
L 274.446545 76.772626 
L 274.712727 76.942975 
L 274.978909 77.592469 
L 275.245091 78.860612 
L 275.511273 79.026642 
L 276.043636 75.535558 
L 276.576 73.318885 
L 276.842182 72.795129 
L 277.108364 72.541809 
L 277.374545 72.443512 
L 277.640727 72.499832 
L 277.906909 72.709612 
L 278.439273 73.58014 
L 278.971636 75.052234 
L 279.770182 78.258203 
L 280.568727 82.505277 
L 281.899636 91.165052 
L 284.029091 105.386496 
L 284.827636 109.368137 
L 285.36 111.200012 
L 285.892364 112.187359 
L 286.158545 112.302283 
L 286.424727 112.1625 
L 286.690909 111.693747 
L 286.957091 110.934473 
L 287.489455 108.346379 
L 288.021818 104.23182 
L 288.288 106.834169 
L 289.086545 134.808201 
L 289.885091 155.878332 
L 290.683636 171.11754 
L 291.482182 181.63397 
L 292.280727 188.661967 
L 293.079273 193.35016 
L 293.345455 194.582611 
L 294.144 194.941101 
L 294.942545 195.575708 
L 296.007273 196.778849 
L 297.072 198.345975 
L 298.136727 200.361189 
L 298.935273 202.298086 
L 299.733818 204.762785 
L 300.532364 207.929788 
L 301.330909 212.035341 
L 302.129455 217.206209 
L 303.194182 225.998981 
L 304.258909 237.048235 
L 305.589818 253.672304 
L 308.784 295.432528 
L 309.582545 293.517625 
L 309.848727 292.997558 
L 310.114909 291.780563 
L 310.913455 284.993886 
L 311.712 276.675482 
L 312.776727 262.951459 
L 313.841455 245.958247 
L 314.906182 225.472723 
L 316.237091 194.769726 
L 317.568 158.375063 
L 319.165091 107.438527 
L 320.762182 49.338503 
L 321.560727 21.927273 
L 322.093091 47.145847 
L 323.424 111.045481 
L 324.488727 153.729883 
L 325.553455 188.733491 
L 326.618182 216.058942 
L 327.682909 225.561154 
L 328.747636 233.339313 
L 329.812364 239.635828 
L 330.877091 244.661519 
L 331.941818 248.594006 
L 333.006545 251.474122 
L 333.805091 253.010946 
L 334.337455 253.742929 
L 334.869818 254.23666 
L 335.402182 254.464158 
L 335.934545 254.452707 
L 336.466909 254.186286 
L 336.999273 253.616164 
L 337.531636 252.772633 
L 338.330182 250.875844 
L 339.927273 206.092454 
L 341.258182 174.575539 
L 342.322909 153.730936 
L 343.387636 137.219047 
L 344.186182 128.331989 
L 344.984727 122.234167 
L 345.517091 119.556396 
L 346.049455 117.885951 
L 346.581818 117.144567 
L 346.848 117.098394 
L 347.114182 117.253697 
L 347.380364 117.601153 
L 347.912727 118.836027 
L 348.445091 120.728646 
L 349.243636 124.637973 
L 350.308364 131.439292 
L 352.171636 145.598675 
L 353.502545 155.119321 
L 354.301091 159.439588 
L 354.833455 161.301396 
L 355.099636 159.742275 
L 356.430545 135.751307 
L 357.229091 124.674858 
L 358.027636 116.12151 
L 358.826182 109.969317 
L 359.358545 107.086313 
L 359.890909 105.077278 
L 360.423273 103.70543 
L 360.955636 103.138485 
L 361.488 103.025476 
L 362.818909 103.135044 
L 363.351273 102.906426 
L 363.883636 102.366009 
L 364.416 101.452907 
L 364.948364 100.09751 
L 365.746909 97.202357 
L 366.545455 93.127878 
L 366.811636 94.066736 
L 368.142545 113.048442 
L 369.473455 128.986259 
L 371.070545 145.223761 
L 372.667636 159.045555 
L 373.998545 168.922699 
L 375.329455 177.261605 
L 376.394182 182.748197 
L 377.192727 185.946397 
L 378.257455 189.133854 
L 379.322182 191.520331 
L 379.854545 192.326506 
L 380.386909 192.565737 
L 380.919273 192.35795 
L 381.451636 191.803154 
L 382.250182 190.515734 
L 385.444364 184.599998 
L 386.242909 183.783464 
L 386.775273 183.486289 
L 387.307636 183.398086 
L 387.84 183.519207 
L 388.372364 183.84118 
L 389.170909 184.659408 
L 389.969455 185.81821 
L 391.300364 188.220181 
L 393.163636 191.679997 
L 393.696 191.822676 
L 394.228364 192.175645 
L 394.760727 192.74683 
L 395.559273 194.071039 
L 396.357818 196.041415 
L 397.156364 198.76995 
L 397.954909 202.456452 
L 398.753455 207.321569 
L 399.019636 210.04805 
L 400.882909 242.253592 
L 401.947636 257.460418 
L 402.746182 266.385753 
L 403.544727 272.631771 
L 404.077091 275.137153 
L 404.343273 275.83624 
L 404.609455 276.185144 
L 404.875636 276.119365 
L 405.141818 275.668639 
L 405.408 274.831893 
L 405.940364 271.894074 
L 406.472727 267.265449 
L 407.005091 260.929095 
L 407.803636 248.183483 
L 408.602182 231.606412 
L 409.666909 203.666352 
L 410.465455 174.371684 
L 410.997818 153.585605 
L 411.264 149.135932 
L 411.796364 151.94067 
L 412.861091 159.259109 
L 416.321455 184.551893 
L 417.652364 192.418177 
L 418.983273 199.049226 
L 420.314182 204.517594 
L 421.378909 208.019404 
L 422.177455 210.008083 
L 422.709818 210.966787 
L 423.242182 211.554905 
L 423.508364 211.682943 
L 423.774545 211.68296 
L 424.040727 211.540079 
L 424.306909 211.237619 
L 424.839273 210.079159 
L 425.371636 208.025321 
L 425.904 204.814278 
L 426.436364 200.201234 
L 426.436364 200.201234 
" clip-path="url(#p53b1883b1a)" style="fill: none; stroke: #0000ff; stroke-width: 3; stroke-linecap: square"/>
   </g>
   <g id="patch_3">
    <path d="M 7.2 331.2 
L 7.2 7.2 
" style="fill: none; stroke: #000000; stroke-width: 0.8; stroke-linejoin: miter; stroke-linecap: square"/>
   </g>
   <g id="patch_4">
    <path d="M 446.4 331.2 
L 446.4 7.2 
" style="fill: none; stroke: #000000; stroke-width: 0.8; stroke-linejoin: miter; stroke-linecap: square"/>
   </g>
   <g id="patch_5">
    <path d="M 7.2 331.2 
L 446.4 331.2 
" style="fill: none; stroke: #000000; stroke-width: 0.8; stroke-linejoin: miter; stroke-linecap: square"/>
   </g>
   <g id="patch_6">
    <path d="M 7.2 7.2 
L 446.4 7.2 
" style="fill: none; stroke: #000000; stroke-width: 0.8; stroke-linejoin: miter; stroke-linecap: square"/>
   </g>
  </g>
 </g>
 <defs>
  <clipPath id="p53b1883b1a">
   <rect x="7.2" y="7.2" width="439.2" height="324"/>
  </clipPath>
 </defs>
</svg>
