<?xml version="1.0" encoding="utf-8" standalone="no"?>
<!DOCTYPE svg PUBLIC "-//W3C//DTD SVG 1.1//EN"
  "http://www.w3.org/Graphics/SVG/1.1/DTD/svg11.dtd">
<svg xmlns:xlink="http://www.w3.org/1999/xlink" width="453.6pt" height="338.4pt" viewBox="0 0 453.6 338.4" xmlns="http://www.w3.org/2000/svg" version="1.1">
 <metadata>
  <rdf:RDF xmlns:dc="http://purl.org/dc/elements/1.1/" xmlns:cc="http://creativecommons.org/ns#" xmlns:rdf="http://www.w3.org/1999/02/22-rdf-syntax-ns#">
   <cc:Work>
    <dc:type rdf:resource="http://purl.org/dc/dcmitype/StillImage"/>
    <dc:date>2025-05-15T18:12:15.002496</dc:date>
    <dc:format>image/svg+xml</dc:format>
    <dc:creator>
     <cc:Agent>
      <dc:title>Matplotlib v3.10.1, https://matplotlib.org/</dc:title>
     </cc:Agent>
    </dc:creator>
   </cc:Work>
  </rdf:RDF>
 </metadata>
 <defs>
  <style type="text/css">*{stroke-linejoin: round; stroke-linecap: butt}</style>
 </defs>
 <g id="figure_1">
  <g id="patch_1">
   <path d="M 0 338.4 
L 453.6 338.4 
L 453.6 0 
L 0 0 
z
" style="fill: #ffffff"/>
  </g>
  <g id="axes_1">
   <g id="patch_2">
    <path d="M 7.2 331.2 
L 446.4 331.2 
L 446.4 7.2 
L 7.2 7.2 
z
" style="fill: #ffffff"/>
   </g>
   <g id="matplotlib.axis_1"/>
   <g id="matplotlib.axis_2"/>
   <g id="line2d_1">
    <path d="M 27.163636 287.389971 
L 27.997772 293.944397 
L 28.553862 296.772689 
L 29.109952 298.436365 
L 29.666042 299.12724 
L 29.944087 299.193395 
L 30.500177 298.965379 
L 31.890403 297.984422 
L 32.446493 297.940233 
L 33.002583 298.168842 
L 34.392808 299.025511 
L 34.670853 299.018249 
L 34.948898 298.875571 
L 35.226944 298.56692 
L 35.783034 297.348707 
L 36.339124 295.212363 
L 36.895214 292.117106 
L 37.729349 285.910245 
L 39.95371 267.891994 
L 40.5098 265.393794 
L 40.787845 264.714773 
L 41.06589 264.455819 
L 41.343935 264.634987 
L 41.62198 265.259585 
L 42.17807 267.818812 
L 42.734161 271.973493 
L 43.568296 280.471476 
L 45.792656 305.035561 
L 46.348747 309.194644 
L 46.904837 312.052288 
L 47.460927 313.619207 
L 47.738972 313.964907 
L 48.017017 314.060435 
L 48.295062 313.945231 
L 48.851152 313.260054 
L 50.241378 311.005791 
L 50.797468 310.668739 
L 51.075513 310.708112 
L 51.353558 310.891291 
L 51.909648 311.655494 
L 52.743783 313.488093 
L 53.577918 315.399125 
L 54.134009 316.249471 
L 54.412054 316.451946 
L 54.690099 316.472727 
L 54.968144 316.293972 
L 55.246189 315.904039 
L 55.802279 314.477664 
L 56.358369 312.234428 
L 57.192504 307.665926 
L 59.416865 294.368598 
L 60.251 291.052352 
L 61.085135 288.768503 
L 62.197316 285.859386 
L 62.753406 283.688629 
L 63.309496 280.647549 
L 64.143631 274.19931 
L 65.255812 262.805964 
L 66.646037 248.506998 
L 67.480172 242.38389 
L 68.036262 239.661952 
L 68.592352 237.827387 
L 70.260623 233.379172 
L 70.816713 230.793164 
L 71.372803 227.271739 
L 72.484984 218.107272 
L 73.597164 209.03641 
L 74.153254 205.771471 
L 74.709344 203.764061 
L 74.987389 203.24631 
L 75.265434 203.027165 
L 75.543479 203.067789 
L 76.09957 203.711995 
L 77.21175 205.395213 
L 77.489795 205.517131 
L 77.76784 205.416039 
L 78.045885 205.061546 
L 78.601975 203.546994 
L 79.158065 201.03971 
L 80.270246 194.361879 
L 81.104381 189.725803 
L 81.660471 187.555337 
L 82.216561 186.301181 
L 82.494606 185.992027 
L 83.050696 185.830378 
L 83.884832 185.88584 
L 84.162877 185.725286 
L 84.440922 185.368401 
L 84.718967 184.759345 
L 85.275057 182.612878 
L 85.831147 179.078515 
L 86.665282 171.313183 
L 89.445733 141.362394 
L 90.001823 138.052092 
L 90.557913 136.032482 
L 91.114004 135.100597 
L 91.392049 134.945137 
L 91.948139 135.027504 
L 93.060319 135.558998 
L 93.616409 135.508541 
L 94.172499 135.09872 
L 94.72859 134.3195 
L 95.28468 133.168582 
L 95.84077 131.585094 
L 96.39686 129.414292 
L 96.95295 126.409502 
L 97.50904 122.287088 
L 98.06513 116.832286 
L 98.899266 106.151859 
L 101.123626 74.858715 
L 101.679716 70.900475 
L 101.957761 70.022689 
L 102.235807 69.931809 
L 102.513852 70.632483 
L 102.791897 72.101292 
L 103.347987 77.116375 
L 104.182122 88.431555 
L 106.128438 117.010716 
L 106.962573 125.74952 
L 108.074753 134.704161 
L 109.743024 148.016874 
L 110.855204 156.737487 
L 111.411294 159.734635 
L 111.689339 160.634656 
L 111.967384 161.051963 
L 112.245429 160.939586 
L 112.523474 160.267135 
L 112.801519 159.02232 
L 113.35761 154.86632 
L 113.9137 148.767535 
L 116.416105 117.337568 
L 116.69415 115.688719 
L 116.972195 114.741906 
L 117.250241 114.539789 
L 117.528286 115.104422 
L 117.806331 116.436006 
L 118.362421 121.298087 
L 118.918511 128.737037 
L 119.752646 143.343994 
L 122.255052 190.875046 
L 123.367232 206.930635 
L 124.201367 216.348347 
L 125.035503 223.442122 
L 125.591593 226.695934 
L 126.147683 228.558609 
L 126.425728 228.908365 
L 126.703773 228.843719 
L 126.981818 228.35133 
L 127.259863 227.424405 
L 127.815953 224.274524 
L 128.372044 219.483234 
L 129.206179 209.723632 
L 130.596404 189.676799 
L 132.264675 166.450298 
L 133.376855 153.944535 
L 134.489035 144.134699 
L 135.32317 138.73813 
L 135.879261 136.266912 
L 136.435351 134.831487 
L 136.713396 134.521104 
L 136.991441 134.478401 
L 137.269486 134.68872 
L 137.825576 135.756423 
L 139.493847 140.164929 
L 139.771892 140.320657 
L 140.049937 140.118361 
L 140.327982 139.503718 
L 140.606027 138.439143 
L 141.162117 134.905272 
L 141.718207 129.621303 
L 142.830387 115.785699 
L 143.942568 102.777358 
L 144.498658 98.487686 
L 145.054748 96.239635 
L 145.332793 95.880672 
L 145.610838 95.980379 
L 145.888883 96.47174 
L 146.444973 98.267826 
L 147.279109 101.312638 
L 147.557154 101.93852 
L 147.835199 102.181441 
L 148.113244 101.946587 
L 148.391289 101.157267 
L 148.669334 99.757395 
L 149.225424 95.014461 
L 149.781514 87.731842 
L 150.61565 72.970677 
L 152.561965 35.358329 
L 153.118055 28.009433 
L 153.674145 23.451209 
L 153.95219 22.308402 
L 154.230236 21.927273 
L 154.508281 22.285297 
L 154.786326 23.340553 
L 155.342416 27.290971 
L 156.176551 36.559816 
L 158.122867 60.832211 
L 158.957002 68.196549 
L 159.791137 73.211273 
L 160.347227 75.485782 
L 160.903317 77.083147 
L 161.459407 78.080863 
L 161.737453 78.353973 
L 162.015498 78.467467 
L 162.293543 78.412854 
L 162.571588 78.183117 
L 163.127678 77.199858 
L 163.683768 75.606136 
L 165.073993 71.085811 
L 165.352038 70.618785 
L 165.630084 70.478587 
L 165.908129 70.735586 
L 166.186174 71.448416 
L 166.464219 72.65797 
L 167.020309 76.622086 
L 167.576399 82.493593 
L 169.80076 110.232151 
L 170.35685 113.327397 
L 170.634895 113.801686 
L 170.91294 113.541291 
L 171.190985 112.574814 
L 171.747075 108.804748 
L 172.859256 97.427357 
L 173.415346 92.373393 
L 173.971436 89.391283 
L 174.249481 88.958714 
L 174.527526 89.32371 
L 174.805571 90.51322 
L 175.361661 95.302051 
L 175.917751 102.876461 
L 177.029932 122.71054 
L 178.142112 141.77045 
L 178.976247 152.045614 
L 179.532337 156.707767 
L 180.088427 159.966227 
L 180.922563 163.222474 
L 181.756698 165.54449 
L 182.312788 166.69199 
L 182.868878 167.268019 
L 183.146923 167.226143 
L 183.424968 166.898956 
L 183.703013 166.244538 
L 184.259104 163.846189 
L 184.815194 159.990249 
L 185.649329 152.172873 
L 186.761509 141.532356 
L 187.317599 137.924096 
L 187.595644 136.824483 
L 187.87369 136.24327 
L 188.151735 136.182221 
L 188.42978 136.614478 
L 188.98587 138.719091 
L 190.65414 147.476196 
L 190.932185 148.06342 
L 191.21023 148.148937 
L 191.488276 147.687095 
L 191.766321 146.661156 
L 192.322411 142.998417 
L 193.156546 134.479496 
L 194.268726 122.114735 
L 194.824816 117.644554 
L 195.380907 115.207592 
L 195.658952 114.826597 
L 195.936997 114.990034 
L 196.215042 115.655088 
L 196.771132 118.205947 
L 198.439402 128.113299 
L 198.717447 128.982371 
L 198.995493 129.425912 
L 199.273538 129.416326 
L 199.551583 128.951824 
L 199.829628 128.056318 
L 200.385718 125.184105 
L 202.053988 114.318968 
L 202.610079 112.401925 
L 202.888124 112.024549 
L 203.166169 112.038627 
L 203.444214 112.415779 
L 204.000304 114.032249 
L 205.112484 118.168227 
L 205.390529 118.774423 
L 205.668574 119.015891 
L 205.946619 118.822891 
L 206.224664 118.148473 
L 206.50271 116.971477 
L 207.0588 113.159647 
L 207.892935 104.623051 
L 209.561205 86.412414 
L 210.117296 82.239611 
L 210.951431 77.976195 
L 212.063611 73.077087 
L 212.619701 69.376628 
L 213.175791 64.204299 
L 214.009927 53.81906 
L 215.400152 35.075253 
L 215.956242 29.937112 
L 216.234287 28.321871 
L 216.512332 27.43318 
L 216.790377 27.301474 
L 217.068422 27.925993 
L 217.346467 29.273086 
L 217.902558 33.8558 
L 218.736693 43.802481 
L 219.848873 57.126479 
L 220.404963 61.686333 
L 220.961053 64.196388 
L 221.239099 64.689291 
L 221.517144 64.733469 
L 221.795189 64.402171 
L 222.351279 62.991795 
L 223.185414 60.615591 
L 223.463459 60.167268 
L 223.741504 60.028948 
L 224.019549 60.254193 
L 224.297594 60.872277 
L 224.853684 63.278223 
L 225.409775 66.984782 
L 227.078045 79.295869 
L 227.634135 81.485754 
L 227.91218 81.99555 
L 228.190225 82.125245 
L 228.46827 81.915217 
L 229.024361 80.751271 
L 229.858496 78.591106 
L 230.136541 78.187541 
L 230.414586 78.106895 
L 230.692631 78.426641 
L 230.970676 79.201235 
L 231.526766 82.200885 
L 232.082856 86.992734 
L 234.307217 109.914059 
L 234.863307 112.588847 
L 235.141352 113.205747 
L 235.419397 113.390881 
L 235.697442 113.217433 
L 236.253533 112.20631 
L 236.809623 111.146361 
L 237.087668 110.929205 
L 237.365713 111.085156 
L 237.643758 111.71725 
L 237.921803 112.905062 
L 238.477893 117.119339 
L 239.033983 123.750937 
L 239.868119 137.057818 
L 241.258344 159.700938 
L 241.814434 165.876101 
L 242.370524 169.454731 
L 242.648569 170.24586 
L 242.926614 170.417922 
L 243.204659 170.038201 
L 243.482704 169.194916 
L 244.038795 166.537312 
L 245.42902 159.120909 
L 245.98511 157.389246 
L 246.5412 156.538007 
L 247.653381 155.688086 
L 247.931426 155.184278 
L 248.487516 153.319591 
L 249.043606 150.0776 
L 249.877741 142.894643 
L 250.989921 132.464802 
L 251.546012 129.115999 
L 251.824057 128.341316 
L 252.102102 128.290881 
L 252.380147 129.025588 
L 252.658192 130.57587 
L 253.214282 136.081129 
L 253.770372 144.396748 
L 255.160598 171.093927 
L 255.994733 185.205791 
L 256.550823 191.817233 
L 257.106913 195.735831 
L 257.384958 196.712028 
L 257.663003 197.103816 
L 257.941048 196.993898 
L 258.219093 196.483431 
L 258.775184 194.722495 
L 259.609319 192.013138 
L 259.887364 191.51809 
L 260.165409 191.362675 
L 260.443454 191.597842 
L 260.721499 192.252372 
L 261.277589 194.81713 
L 261.833679 198.834541 
L 264.336085 219.844096 
L 264.892175 222.228009 
L 265.448265 223.510098 
L 266.004356 223.987046 
L 266.838491 224.068608 
L 267.394581 224.227352 
L 267.950671 224.70249 
L 269.340896 226.504274 
L 269.618942 226.628628 
L 269.896987 226.549926 
L 270.175032 226.219924 
L 270.453077 225.59936 
L 271.009167 223.391174 
L 271.565257 219.893816 
L 272.399392 212.832218 
L 273.511573 202.979769 
L 274.067663 199.324583 
L 274.623753 197.172038 
L 274.901798 196.720877 
L 275.179843 196.676744 
L 275.457888 197.004892 
L 276.013978 198.5419 
L 277.404204 203.512604 
L 277.682249 203.972257 
L 277.960294 204.081661 
L 278.238339 203.800194 
L 278.516384 203.10971 
L 279.072474 200.548573 
L 279.906609 194.509294 
L 281.01879 185.97529 
L 281.57488 183.183254 
L 281.852925 182.393085 
L 282.13097 182.043307 
L 282.409015 182.130344 
L 282.68706 182.625369 
L 283.24315 184.612489 
L 284.911421 192.206139 
L 285.189466 192.779598 
L 285.467511 192.996262 
L 285.745556 192.843328 
L 286.023601 192.332079 
L 286.579691 190.397115 
L 288.247962 182.831219 
L 288.526007 182.198945 
L 288.804052 181.909344 
L 289.082097 181.98018 
L 289.360142 182.405353 
L 289.916232 184.178355 
L 291.862547 192.329688 
L 292.140593 192.715756 
L 292.418638 192.76657 
L 292.696683 192.483517 
L 292.974728 191.890102 
L 293.530818 189.964322 
L 294.921043 184.256633 
L 295.477133 183.128954 
L 295.755179 182.986499 
L 296.033224 183.123278 
L 296.311269 183.508519 
L 296.867359 184.796283 
L 297.701494 186.73413 
L 297.979539 186.978146 
L 298.257584 186.854574 
L 298.535629 186.277673 
L 298.813674 185.178507 
L 299.369764 181.239105 
L 299.925855 174.926292 
L 300.75999 161.737509 
L 302.706305 128.013481 
L 303.262396 121.74355 
L 303.818486 118.067269 
L 304.096531 117.234912 
L 304.374576 117.045956 
L 304.652621 117.455755 
L 304.930666 118.404377 
L 305.486756 121.626704 
L 306.320891 128.58513 
L 309.935477 162.763626 
L 311.325703 179.528738 
L 312.715928 195.811807 
L 313.550063 202.587557 
L 314.106153 205.411235 
L 314.662244 207.067279 
L 315.218334 207.991433 
L 315.774424 208.764865 
L 316.330514 209.988496 
L 316.886604 212.149488 
L 317.442694 215.505934 
L 318.27683 222.66373 
L 320.50119 244.119195 
L 321.05728 247.54813 
L 321.61337 249.860012 
L 322.169461 251.266778 
L 323.003596 252.482634 
L 323.559686 253.275529 
L 324.115776 254.406224 
L 324.671866 255.987992 
L 326.618182 262.589847 
L 327.174272 263.442908 
L 327.452317 263.521688 
L 327.730362 263.352083 
L 328.008407 262.935949 
L 328.564497 261.430336 
L 329.398633 257.982228 
L 330.788858 251.844249 
L 331.622993 249.166824 
L 333.291264 244.546524 
L 333.847354 242.099451 
L 334.403444 238.791383 
L 335.237579 232.251225 
L 337.183895 215.460885 
L 337.739985 212.405392 
L 338.296075 210.780296 
L 338.57412 210.525376 
L 338.852165 210.622021 
L 339.13021 211.036133 
L 339.6863 212.614236 
L 341.076526 217.724511 
L 341.632616 218.747277 
L 341.910661 218.823342 
L 342.188706 218.575862 
L 342.466751 218.000012 
L 343.022841 215.926951 
L 343.856976 211.138074 
L 345.247202 202.750569 
L 345.803292 200.484105 
L 346.359382 199.010782 
L 347.749607 196.359032 
L 348.305698 194.09373 
L 348.861788 190.233723 
L 349.417878 184.458638 
L 350.252013 172.35825 
L 352.476374 135.36021 
L 353.032464 129.536211 
L 353.588554 126.120504 
L 353.866599 125.305867 
L 354.144644 125.037159 
L 354.422689 125.253824 
L 354.700734 125.88098 
L 355.256825 128.024341 
L 356.925095 135.729742 
L 357.481185 137.344626 
L 358.037275 138.409736 
L 359.149456 140.156237 
L 359.705546 141.588064 
L 360.261636 143.700968 
L 361.373816 149.446243 
L 361.929906 152.137813 
L 362.485996 153.765478 
L 362.764042 153.943351 
L 363.042087 153.585193 
L 363.320132 152.624481 
L 363.598177 151.013128 
L 364.154267 145.763884 
L 364.710357 137.951939 
L 365.544492 122.722897 
L 366.934718 96.604787 
L 367.490808 89.182485 
L 368.046898 84.718069 
L 368.324943 83.698052 
L 368.602988 83.482661 
L 368.881033 84.034087 
L 369.159078 85.289026 
L 369.715168 89.554609 
L 370.549304 98.685669 
L 371.661484 111.237174 
L 372.495619 118.155468 
L 373.051709 121.203832 
L 373.607799 123.222951 
L 374.441935 125.194116 
L 375.27607 127.137795 
L 375.83216 128.900228 
L 376.666295 132.439641 
L 380.002836 148.697503 
L 380.836971 151.449004 
L 381.393062 152.624012 
L 381.671107 152.89634 
L 381.949152 152.886284 
L 382.227197 152.531925 
L 382.505242 151.769376 
L 382.783287 150.536202 
L 383.339377 146.445989 
L 383.895467 139.982096 
L 384.729602 126.066695 
L 386.675918 88.707682 
L 387.232008 82.749072 
L 387.510053 81.33673 
L 387.788098 81.082167 
L 388.066143 82.01584 
L 388.344188 84.121683 
L 388.900279 91.547605 
L 389.734414 108.501605 
L 391.124639 138.261271 
L 391.680729 146.100143 
L 392.236819 150.392497 
L 392.514865 151.243312 
L 392.79291 151.342572 
L 393.070955 150.823681 
L 393.627045 148.60421 
L 394.46118 145.091902 
L 394.739225 144.549749 
L 395.01727 144.530487 
L 395.295315 145.10198 
L 395.57336 146.287781 
L 396.12945 150.36986 
L 398.075766 169.238289 
L 398.353811 170.304786 
L 398.631856 170.548958 
L 398.909901 169.910472 
L 399.187946 168.372458 
L 399.744036 162.753437 
L 400.578172 149.60997 
L 401.968397 126.652713 
L 402.524487 121.085266 
L 402.802532 119.514291 
L 403.080577 118.789931 
L 403.358622 118.890308 
L 403.636668 119.755894 
L 404.192758 123.382567 
L 405.304938 134.317758 
L 406.139073 141.221795 
L 406.695163 143.702532 
L 406.973208 144.206943 
L 407.251253 144.245556 
L 407.529299 143.869388 
L 408.085389 142.173233 
L 409.753659 135.727462 
L 410.309749 134.704764 
L 410.865839 134.26491 
L 411.42193 133.948181 
L 411.699975 133.644658 
L 411.97802 133.13989 
L 412.53411 131.268968 
L 413.0902 128.00061 
L 413.64629 123.353428 
L 415.870651 102.595888 
L 416.148696 101.380613 
L 416.426741 100.718531 
L 416.704786 100.626109 
L 416.982831 101.092264 
L 417.260876 102.078628 
L 417.816966 105.331077 
L 419.485237 117.229079 
L 419.763282 118.223287 
L 420.041327 118.66294 
L 420.319372 118.489313 
L 420.597417 117.667012 
L 420.875462 116.185443 
L 421.431552 111.324635 
L 422.265688 100.164043 
L 424.768093 62.130321 
L 425.602228 54.089265 
L 426.436364 48.398513 
L 426.436364 48.398513 
" clip-path="url(#pc715bb04ff)" style="fill: none; stroke-dasharray: 11.1,4.8; stroke-dashoffset: 0; stroke: #000000; stroke-width: 3"/>
   </g>
   <g id="line2d_2">
    <path d="M 27.163636 194.299199 
L 28.275817 224.667094 
L 28.553862 225.145473 
L 28.831907 223.251267 
L 29.944087 252.576777 
L 30.500177 261.432493 
L 30.778222 263.914303 
L 31.056267 265.049289 
L 31.334312 264.827798 
L 31.612358 267.47014 
L 32.168448 277.690914 
L 33.002583 288.264215 
L 34.948898 307.213245 
L 35.504989 312.969693 
L 35.783034 313.83653 
L 36.339124 300.255668 
L 36.895214 293.841718 
L 37.173259 292.242119 
L 37.451304 283.917696 
L 38.563484 231.821136 
L 39.39762 197.990362 
L 39.95371 183.525144 
L 40.5098 175.476914 
L 41.06589 171.528864 
L 41.62198 169.934092 
L 41.900025 170.750874 
L 42.17807 171.139512 
L 42.456115 171.200471 
L 42.734161 171.024565 
L 43.290251 170.254441 
L 44.402431 167.731872 
L 44.680476 167.328754 
L 44.958521 167.524503 
L 45.514611 168.486801 
L 46.070701 169.084417 
L 46.626792 169.437122 
L 47.460927 169.686858 
L 48.573107 169.733338 
L 48.851152 169.715818 
L 49.407242 170.073708 
L 49.685287 170.585516 
L 49.963332 171.550674 
L 50.519423 174.675506 
L 51.075513 179.205618 
L 51.909648 188.200593 
L 53.021828 203.494392 
L 54.690099 238.962843 
L 54.968144 241.605721 
L 55.246189 243.077502 
L 55.524234 243.643297 
L 55.802279 243.557132 
L 56.080324 242.897127 
L 57.192504 239.122659 
L 57.47055 238.593869 
L 57.748595 238.411349 
L 58.02664 238.628729 
L 58.304685 239.289806 
L 58.58273 240.425864 
L 59.13882 233.341542 
L 59.972955 223.928075 
L 60.80709 217.438508 
L 61.641226 213.048369 
L 62.475361 210.127509 
L 63.309496 207.746881 
L 64.421676 205.358923 
L 65.811902 203.067141 
L 69.704533 197.169289 
L 70.538668 195.610985 
L 71.094758 193.404654 
L 72.206938 188.693451 
L 74.153254 185.136005 
L 77.489795 178.387942 
L 80.826336 171.056743 
L 84.440922 162.800251 
L 84.997012 163.224463 
L 85.831147 164.256301 
L 87.221372 166.417762 
L 89.723778 170.414079 
L 90.557913 171.193857 
L 91.114004 171.46433 
L 91.670094 171.507413 
L 92.226184 171.29772 
L 92.782274 170.813621 
L 93.338364 170.028659 
L 94.450544 168.008781 
L 95.562725 165.13583 
L 95.84077 165.384673 
L 97.50904 168.203457 
L 101.401671 174.956169 
L 102.791897 176.858955 
L 103.904077 177.997517 
L 104.738212 178.568674 
L 105.294302 178.773719 
L 106.128438 178.775686 
L 106.962573 178.484118 
L 107.796708 178.062588 
L 108.908888 179.200434 
L 110.021069 182.33617 
L 111.133249 184.8355 
L 111.967384 186.269025 
L 112.801519 187.299433 
L 113.635655 187.892222 
L 113.9137 187.983929 
L 114.747835 189.491106 
L 115.58197 190.621086 
L 116.416105 191.32614 
L 116.972195 191.557821 
L 117.528286 191.577843 
L 118.084376 191.37977 
L 118.640466 190.950374 
L 119.196556 190.270526 
L 120.030691 188.762276 
L 120.586781 187.610844 
L 120.864827 187.72007 
L 121.698962 188.417258 
L 122.533097 188.780332 
L 123.367232 188.902608 
L 124.201367 188.746545 
L 125.035503 188.3445 
L 125.869638 187.720606 
L 126.981818 186.572034 
L 128.093998 185.095783 
L 129.484224 182.838146 
L 130.874449 180.148431 
L 131.708584 178.299631 
L 132.820765 175.005866 
L 133.6549 172.718732 
L 134.489035 172.27414 
L 135.32317 172.133452 
L 136.157306 172.252152 
L 136.991441 172.586802 
L 138.103621 173.299543 
L 139.493847 174.472964 
L 140.327982 175.348203 
L 141.996252 177.07848 
L 143.108433 177.926189 
L 143.942568 178.341999 
L 144.776703 178.529525 
L 145.610838 178.459448 
L 146.444973 178.098341 
L 147.279109 177.415812 
L 147.835199 176.699853 
L 148.391289 175.953326 
L 155.898506 168.578151 
L 157.844821 167.034148 
L 160.347227 165.499262 
L 162.015498 164.652626 
L 162.571588 164.806364 
L 163.683768 165.178913 
L 164.239858 165.068436 
L 166.742264 164.170136 
L 170.634895 162.487589 
L 178.142112 159.220459 
L 180.366473 158.438179 
L 183.424968 157.263685 
L 188.707825 156.709689 
L 191.21023 156.224697 
L 193.990681 155.442237 
L 196.493087 154.53339 
L 198.161357 153.706418 
L 200.385718 152.364242 
L 202.332033 150.934292 
L 204.000304 149.465728 
L 205.668574 147.958909 
L 211.229476 144.544655 
L 217.902558 140.671508 
L 220.961053 138.633395 
L 223.463459 136.684666 
L 225.409775 134.899507 
L 226.521955 133.859803 
L 227.91218 133.150817 
L 229.580451 132.251802 
L 234.585262 131.344028 
L 238.199848 130.90766 
L 241.814434 130.701721 
L 245.707065 130.728178 
L 249.321651 130.983814 
L 252.658192 131.421255 
L 253.214282 131.718185 
L 255.438643 133.038909 
L 257.941048 134.250229 
L 260.999544 135.470307 
L 267.394581 137.922264 
L 269.340896 138.981095 
L 271.009167 140.124841 
L 272.677437 141.548177 
L 274.345708 142.997613 
L 276.013978 144.137604 
L 277.960294 145.163185 
L 279.906609 145.927589 
L 283.521195 147.011627 
L 286.023601 147.861839 
L 287.969916 148.770149 
L 289.638187 149.819685 
L 290.194277 150.241573 
L 290.750367 150.135565 
L 297.145404 147.948898 
L 301.594125 146.695211 
L 304.652621 146.052904 
L 307.155027 145.754186 
L 309.379387 145.581856 
L 311.325703 145.236301 
L 313.272018 144.688383 
L 315.496379 143.792585 
L 317.164649 142.883739 
L 318.83292 141.753579 
L 320.779235 140.12788 
L 322.447506 138.452305 
L 323.281641 137.602987 
L 324.393821 138.303214 
L 325.506002 138.736364 
L 326.618182 138.945878 
L 327.730362 138.957319 
L 329.120587 138.761928 
L 330.788858 138.287125 
L 336.349759 136.461744 
L 338.01803 136.391132 
L 339.408255 136.543619 
L 340.798481 136.91295 
L 341.076526 137.072767 
L 341.354571 137.451394 
L 343.578931 141.959518 
L 345.525247 145.406307 
L 347.193517 147.895804 
L 348.583743 149.598194 
L 349.695923 150.726923 
L 350.808103 151.558722 
L 351.920284 152.070172 
L 352.754419 152.220872 
L 353.588554 152.161522 
L 354.422689 151.883719 
L 355.256825 151.3678 
L 356.09096 150.609295 
L 356.925095 149.600876 
L 358.037275 147.834845 
L 359.149456 145.587576 
L 360.261636 142.826891 
L 361.095771 140.804331 
L 362.207951 142.88499 
L 363.042087 144.070746 
L 364.154267 145.238982 
L 365.266447 146.06953 
L 366.378628 146.602789 
L 367.212763 146.815163 
L 368.046898 146.853777 
L 369.159078 146.64462 
L 370.271259 146.153192 
L 371.383439 145.413994 
L 372.495619 144.436859 
L 373.885845 142.901973 
L 375.554115 140.653989 
L 377.222385 138.021121 
L 379.168701 134.516233 
L 380.280881 132.407329 
L 380.558926 132.293097 
L 382.227197 133.904137 
L 384.173512 135.403628 
L 385.841783 136.393277 
L 386.675918 136.926179 
L 387.510053 137.494297 
L 388.344188 137.826624 
L 389.178324 137.952475 
L 390.012459 137.864165 
L 390.846594 137.568664 
L 391.958774 136.913486 
L 393.070955 135.959233 
L 394.46118 134.463497 
L 396.407496 131.953799 
L 399.187946 127.995917 
L 400.578172 125.798703 
L 401.412307 124.764719 
L 403.636668 123.093614 
L 416.426741 113.812613 
L 417.538921 113.010132 
L 417.816966 113.162619 
L 418.651102 114.901656 
L 420.875462 120.309868 
L 423.099823 126.462282 
L 425.324183 133.244669 
L 426.436364 136.818383 
L 426.436364 136.818383 
" clip-path="url(#pc715bb04ff)" style="fill: none; stroke: #ff00ff; stroke-width: 3; stroke-linecap: square"/>
   </g>
   <g id="patch_3">
    <path d="M 7.2 331.2 
L 7.2 7.2 
" style="fill: none; stroke: #000000; stroke-width: 0.8; stroke-linejoin: miter; stroke-linecap: square"/>
   </g>
   <g id="patch_4">
    <path d="M 446.4 331.2 
L 446.4 7.2 
" style="fill: none; stroke: #000000; stroke-width: 0.8; stroke-linejoin: miter; stroke-linecap: square"/>
   </g>
   <g id="patch_5">
    <path d="M 7.2 331.2 
L 446.4 331.2 
" style="fill: none; stroke: #000000; stroke-width: 0.8; stroke-linejoin: miter; stroke-linecap: square"/>
   </g>
   <g id="patch_6">
    <path d="M 7.2 7.2 
L 446.4 7.2 
" style="fill: none; stroke: #000000; stroke-width: 0.8; stroke-linejoin: miter; stroke-linecap: square"/>
   </g>
  </g>
 </g>
 <defs>
  <clipPath id="pc715bb04ff">
   <rect x="7.2" y="7.2" width="439.2" height="324"/>
  </clipPath>
 </defs>
</svg>
