<?xml version="1.0" encoding="utf-8" standalone="no"?>
<!DOCTYPE svg PUBLIC "-//W3C//DTD SVG 1.1//EN"
  "http://www.w3.org/Graphics/SVG/1.1/DTD/svg11.dtd">
<svg xmlns:xlink="http://www.w3.org/1999/xlink" width="453.6pt" height="338.4pt" viewBox="0 0 453.6 338.4" xmlns="http://www.w3.org/2000/svg" version="1.1">
 <metadata>
  <rdf:RDF xmlns:dc="http://purl.org/dc/elements/1.1/" xmlns:cc="http://creativecommons.org/ns#" xmlns:rdf="http://www.w3.org/1999/02/22-rdf-syntax-ns#">
   <cc:Work>
    <dc:type rdf:resource="http://purl.org/dc/dcmitype/StillImage"/>
    <dc:date>2025-05-15T17:33:16.353299</dc:date>
    <dc:format>image/svg+xml</dc:format>
    <dc:creator>
     <cc:Agent>
      <dc:title>Matplotlib v3.10.1, https://matplotlib.org/</dc:title>
     </cc:Agent>
    </dc:creator>
   </cc:Work>
  </rdf:RDF>
 </metadata>
 <defs>
  <style type="text/css">*{stroke-linejoin: round; stroke-linecap: butt}</style>
 </defs>
 <g id="figure_1">
  <g id="patch_1">
   <path d="M 0 338.4 
L 453.6 338.4 
L 453.6 0 
L 0 0 
z
" style="fill: #ffffff"/>
  </g>
  <g id="axes_1">
   <g id="patch_2">
    <path d="M 7.2 331.2 
L 446.4 331.2 
L 446.4 7.2 
L 7.2 7.2 
z
" style="fill: #ffffff"/>
   </g>
   <g id="matplotlib.axis_1"/>
   <g id="matplotlib.axis_2"/>
   <g id="line2d_1">
    <path d="M 27.163636 208.528391 
L 28.275817 188.835469 
L 31.334312 131.22975 
L 32.446493 114.64442 
L 33.558673 101.240531 
L 34.670853 90.375816 
L 35.783034 81.415521 
L 36.617169 75.940249 
L 37.451304 71.916298 
L 38.007394 70.332888 
L 38.285439 69.948188 
L 38.563484 69.869959 
L 38.84153 70.123893 
L 39.119575 70.733862 
L 39.675665 73.106169 
L 40.231755 77.13045 
L 40.787845 82.892699 
L 41.62198 94.822549 
L 42.456115 110.432208 
L 43.568296 135.672601 
L 46.070701 195.092368 
L 46.904837 210.21506 
L 47.738972 221.262915 
L 48.295062 226.28517 
L 48.851152 229.553763 
L 49.407242 231.263231 
L 49.685287 231.604563 
L 49.963332 231.642067 
L 50.241378 231.401846 
L 50.519423 230.907856 
L 51.075513 229.232835 
L 51.631603 226.718609 
L 52.465738 221.41739 
L 53.299873 214.124847 
L 54.134009 204.568791 
L 54.968144 192.609698 
L 56.080324 173.323203 
L 59.972955 101.621267 
L 61.085135 86.439181 
L 62.197316 74.068788 
L 63.309496 64.42426 
L 64.143631 59.373257 
L 64.699721 57.366651 
L 64.977767 56.852175 
L 65.255812 56.701087 
L 65.533857 56.940482 
L 65.811902 57.593903 
L 66.089947 58.683241 
L 66.646037 62.231128 
L 67.202127 67.653531 
L 68.036262 79.20818 
L 68.870398 94.340867 
L 70.260623 124.582286 
L 72.206938 166.666403 
L 73.041074 180.982107 
L 73.875209 191.758351 
L 74.431299 196.805636 
L 74.987389 200.190209 
L 75.543479 202.086947 
L 75.821524 202.560781 
L 76.09957 202.773659 
L 76.377615 202.771098 
L 76.933705 202.310069 
L 78.601975 200.215239 
L 79.43611 199.777339 
L 79.992201 199.519606 
L 80.548291 198.902614 
L 80.826336 198.321639 
L 81.382426 196.312886 
L 81.938516 192.78119 
L 82.494606 187.318887 
L 83.050696 179.656018 
L 83.884832 163.930047 
L 84.997012 136.51924 
L 86.943327 86.64702 
L 87.499418 76.48529 
L 88.055508 69.709371 
L 88.333553 67.774385 
L 88.611598 66.871574 
L 88.889643 67.025718 
L 89.167688 68.242519 
L 89.445733 70.508015 
L 90.001823 78.04334 
L 90.557913 89.180823 
L 91.392049 111.139737 
L 94.72859 209.616903 
L 95.562725 226.171255 
L 96.39686 237.688731 
L 96.95295 242.701157 
L 97.50904 245.830226 
L 98.06513 247.389928 
L 98.343175 247.698052 
L 98.621221 247.761824 
L 98.899266 247.635931 
L 99.455356 247.038353 
L 100.289491 246.085481 
L 100.567536 245.942902 
L 100.845581 245.950667 
L 101.123626 246.134219 
L 101.401671 246.509338 
L 101.957761 247.845671 
L 102.513852 249.872267 
L 104.182122 256.780027 
L 104.460167 257.401231 
L 104.738212 257.680112 
L 105.016257 257.548271 
L 105.294302 256.939293 
L 105.572347 255.793782 
L 106.128438 251.691768 
L 106.684528 244.94311 
L 107.240618 235.425383 
L 108.074753 216.186634 
L 109.186933 183.29882 
L 111.411294 114.452854 
L 112.245429 96.459819 
L 112.801519 88.764071 
L 113.079564 86.352526 
L 113.35761 84.92673 
L 113.635655 84.488831 
L 113.9137 85.023215 
L 114.191745 86.49998 
L 114.747835 92.089745 
L 115.303925 100.759015 
L 116.13806 118.107387 
L 120.030691 207.948655 
L 120.864827 220.984447 
L 121.698962 230.885222 
L 122.255052 235.658004 
L 122.811142 238.871663 
L 123.089187 239.861294 
L 123.367232 240.422609 
L 123.645277 240.54338 
L 123.923322 240.213944 
L 124.201367 239.429095 
L 124.757458 236.492417 
L 125.313548 231.796872 
L 126.147683 221.881228 
L 127.537908 200.823556 
L 128.650089 184.437639 
L 129.484224 174.87704 
L 130.040314 170.267488 
L 130.596404 167.036234 
L 131.152494 164.914475 
L 132.820765 160.106667 
L 133.376855 157.000149 
L 133.932945 152.247853 
L 134.489035 145.536285 
L 135.32317 131.640638 
L 136.435351 107.20368 
L 138.659711 55.447196 
L 139.493847 42.291707 
L 140.049937 36.982227 
L 140.327982 35.49018 
L 140.606027 34.802559 
L 140.884072 34.92647 
L 141.162117 35.857037 
L 141.440162 37.580549 
L 141.996252 43.296455 
L 142.552342 51.772425 
L 143.386478 68.767156 
L 144.498658 97.030055 
L 146.444973 153.599634 
L 150.337604 268.738624 
L 151.449785 294.466315 
L 152.28392 308.042439 
L 152.84001 313.662438 
L 153.118055 315.356377 
L 153.3961 316.291735 
L 153.674145 316.472727 
L 153.95219 315.915461 
L 154.230236 314.648352 
L 154.786326 310.161555 
L 155.342416 303.4675 
L 156.454596 285.905507 
L 158.122867 258.706504 
L 158.957002 247.950829 
L 160.069182 236.8829 
L 161.737453 221.889241 
L 162.571588 212.357967 
L 163.683768 196.493052 
L 165.908129 162.793376 
L 166.464219 156.782645 
L 167.020309 152.608185 
L 167.576399 150.496751 
L 167.854444 150.240834 
L 168.132489 150.511703 
L 168.410534 151.292091 
L 168.966624 154.270154 
L 169.522715 158.880532 
L 170.35685 168.015292 
L 173.693391 208.219275 
L 175.361661 223.728981 
L 177.307977 240.049804 
L 178.142112 245.471464 
L 178.698202 247.732003 
L 178.976247 248.289931 
L 179.254292 248.390711 
L 179.532337 247.981311 
L 179.810382 247.012992 
L 180.088427 245.442138 
L 180.644518 240.358175 
L 181.200608 232.545291 
L 181.756698 221.976722 
L 182.590833 201.296151 
L 183.703013 166.618408 
L 186.483464 74.441759 
L 187.317599 54.880182 
L 187.87369 45.804072 
L 188.42978 40.32467 
L 188.707825 38.994037 
L 188.98587 38.611649 
L 189.263915 39.169576 
L 189.54196 40.64758 
L 190.09805 46.225698 
L 190.65414 54.968571 
L 191.488276 72.846536 
L 192.878501 109.925002 
L 194.546771 153.99276 
L 195.380907 171.856599 
L 196.215042 185.56572 
L 196.771132 192.166512 
L 197.327222 196.703204 
L 197.883312 199.245846 
L 198.161357 199.814347 
L 198.439402 199.951062 
L 198.717447 199.688372 
L 198.995493 199.06568 
L 199.551583 196.923764 
L 200.385718 192.270514 
L 201.497898 185.927621 
L 202.053988 183.804539 
L 202.332033 183.196965 
L 202.610079 182.949805 
L 202.888124 183.097424 
L 203.166169 183.66386 
L 203.444214 184.663404 
L 204.000304 187.9695 
L 204.556394 192.915757 
L 205.390529 202.767546 
L 207.336845 227.81976 
L 207.892935 232.587504 
L 208.449025 235.159554 
L 208.72707 235.476021 
L 209.005115 235.088182 
L 209.28316 233.968692 
L 209.83925 229.487842 
L 210.395341 222.080889 
L 211.229476 206.146997 
L 212.341656 178.991527 
L 213.731881 144.925159 
L 214.566017 129.719778 
L 215.122107 123.221501 
L 215.400152 121.218282 
L 215.678197 120.076158 
L 215.956242 119.79546 
L 216.234287 120.359665 
L 216.512332 121.736393 
L 217.068422 126.719658 
L 217.624513 134.207566 
L 218.736693 153.850676 
L 220.404963 183.766871 
L 221.239099 194.617956 
L 221.795189 199.621212 
L 222.351279 202.797285 
L 222.629324 203.735535 
L 222.907369 204.275206 
L 223.185414 204.45025 
L 223.463459 204.299575 
L 223.741504 203.86531 
L 224.297594 202.32816 
L 225.13173 199.029746 
L 226.521955 193.467489 
L 227.35609 191.143838 
L 227.91218 190.113068 
L 228.746316 189.120628 
L 229.858496 187.931583 
L 230.414586 186.940548 
L 230.970676 185.426527 
L 231.526766 183.227695 
L 232.082856 180.214193 
L 232.916992 173.952172 
L 233.751127 165.370796 
L 234.585262 154.250576 
L 235.419397 140.425475 
L 236.531578 117.827018 
L 238.199848 77.727946 
L 239.590073 45.749469 
L 240.424209 31.427074 
L 240.980299 25.19157 
L 241.258344 23.251958 
L 241.536389 22.15502 
L 241.814434 21.927273 
L 242.092479 22.581437 
L 242.370524 24.112557 
L 242.926614 29.708436 
L 243.482704 38.357137 
L 244.31684 55.702121 
L 247.09729 118.661762 
L 247.931426 131.404216 
L 248.765561 140.844292 
L 249.877741 150.510546 
L 251.546012 164.704653 
L 253.492327 182.246076 
L 254.048417 185.953064 
L 254.604507 188.402443 
L 254.882553 189.063629 
L 255.160598 189.31525 
L 255.438643 189.142932 
L 255.716688 188.540975 
L 256.272778 186.081518 
L 256.828868 182.097301 
L 257.663003 173.948042 
L 260.165409 147.040806 
L 260.999544 140.809928 
L 261.833679 136.270675 
L 262.94586 131.691936 
L 264.05804 127.040256 
L 265.17022 121.241329 
L 266.838491 112.239236 
L 267.394581 110.357036 
L 267.672626 109.840247 
L 267.950671 109.670324 
L 268.228716 109.89072 
L 268.506761 110.541663 
L 268.784806 111.658591 
L 269.340896 115.402669 
L 269.896987 121.284203 
L 270.453077 129.35069 
L 271.287212 145.346207 
L 272.399392 172.543723 
L 275.179843 244.743201 
L 276.013978 259.60725 
L 276.570068 266.510797 
L 277.126159 270.905322 
L 277.404204 272.182756 
L 277.682249 272.875911 
L 277.960294 273.014112 
L 278.238339 272.632055 
L 278.516384 271.768565 
L 279.072474 268.761754 
L 279.628564 264.324025 
L 280.462699 255.659215 
L 281.57488 241.644531 
L 283.24315 217.678764 
L 285.189466 186.269531 
L 287.135781 150.49642 
L 289.082097 114.526953 
L 289.916232 102.058175 
L 290.750367 93.169088 
L 291.306457 89.776007 
L 291.584502 88.930442 
L 291.862547 88.678243 
L 292.140593 89.02924 
L 292.418638 89.98525 
L 292.974728 93.677368 
L 293.530818 99.602931 
L 294.364953 112.045274 
L 295.477133 133.08659 
L 297.701494 176.82326 
L 298.813674 194.515276 
L 299.925855 208.625454 
L 301.038035 219.801102 
L 302.150215 228.604361 
L 302.98435 233.641816 
L 303.540441 236.142825 
L 304.096531 237.866584 
L 304.652621 238.74197 
L 304.930666 238.844485 
L 305.208711 238.717849 
L 305.486756 238.358343 
L 306.042846 236.93296 
L 306.598936 234.554871 
L 307.155027 231.203672 
L 307.989162 224.251057 
L 308.823297 214.733495 
L 309.657432 202.260587 
L 310.491567 186.485466 
L 311.603748 160.314836 
L 313.550063 106.235609 
L 314.662244 78.214666 
L 315.496379 62.89884 
L 316.052469 56.583537 
L 316.330514 54.766928 
L 316.608559 53.893194 
L 316.886604 53.982575 
L 317.164649 55.041018 
L 317.442694 57.059106 
L 317.998785 63.866167 
L 318.554875 74.043345 
L 319.38901 94.335828 
L 322.447506 177.750523 
L 323.281641 191.583802 
L 323.837731 197.300535 
L 324.393821 200.294294 
L 324.671866 200.858995 
L 324.949911 200.873534 
L 325.227956 200.404161 
L 325.784047 198.318748 
L 326.896227 191.957268 
L 327.452317 189.070981 
L 328.008407 187.190599 
L 328.286452 186.765834 
L 328.564497 186.731222 
L 328.842542 187.103614 
L 329.120587 187.884167 
L 329.676678 190.586571 
L 330.510813 196.784324 
L 331.622993 205.815743 
L 332.179083 208.990164 
L 332.457128 209.930479 
L 332.735173 210.342026 
L 333.013219 210.165991 
L 333.291264 209.357765 
L 333.569309 207.886948 
L 334.125399 202.913017 
L 334.681489 195.293103 
L 335.515624 179.494108 
L 336.627805 152.624541 
L 339.408255 81.870438 
L 340.24239 65.576544 
L 341.076526 53.315358 
L 341.632616 47.635468 
L 342.188706 44.020836 
L 342.466751 42.982549 
L 342.744796 42.443951 
L 343.022841 42.390752 
L 343.300886 42.803539 
L 343.578931 43.660256 
L 344.135022 46.604203 
L 344.691112 51.00732 
L 345.525247 59.881207 
L 346.637427 75.037437 
L 348.027653 98.099071 
L 351.920284 167.136272 
L 352.754419 176.086901 
L 353.310509 180.015854 
L 353.866599 182.402534 
L 354.422689 183.492285 
L 354.700734 183.661877 
L 354.978779 183.650725 
L 355.53487 183.316084 
L 356.09096 182.938571 
L 356.369005 182.860011 
L 356.64705 182.909906 
L 356.925095 183.11758 
L 357.481185 184.068551 
L 358.037275 185.716147 
L 359.983591 192.723448 
L 360.261636 193.086754 
L 360.539681 193.097162 
L 360.817726 192.700649 
L 361.095771 191.853927 
L 361.651861 188.688015 
L 362.207951 183.490798 
L 363.042087 172.144236 
L 364.154267 152.219602 
L 366.378628 110.423039 
L 367.212763 98.314841 
L 368.046898 89.38701 
L 368.602988 85.350917 
L 369.159078 82.879564 
L 369.437123 82.228456 
L 369.715168 81.962462 
L 369.993213 82.076294 
L 370.271259 82.564667 
L 370.549304 83.421466 
L 371.105394 86.210938 
L 371.661484 90.385563 
L 372.495619 99.116376 
L 373.329754 110.649795 
L 374.441935 130.102992 
L 375.554115 153.786325 
L 377.222385 195.165971 
L 379.168701 243.619498 
L 380.002836 260.227628 
L 380.836971 272.124518 
L 381.393062 276.894492 
L 381.671107 278.266676 
L 381.949152 278.960079 
L 382.227197 278.987009 
L 382.505242 278.371257 
L 382.783287 277.148426 
L 383.339377 273.079041 
L 384.173512 263.893973 
L 386.397873 235.986037 
L 387.232008 228.863912 
L 388.066143 224.119794 
L 389.734414 216.602891 
L 390.290504 212.733581 
L 390.846594 207.425835 
L 391.680729 196.365176 
L 392.514865 181.886901 
L 395.01727 134.797132 
L 395.57336 127.90862 
L 396.12945 123.576463 
L 396.407496 122.470356 
L 396.685541 122.098377 
L 396.963586 122.466473 
L 397.241631 123.565972 
L 397.797721 127.862195 
L 398.353811 134.679748 
L 399.187946 148.593239 
L 401.134262 187.996099 
L 402.246442 208.366233 
L 403.358622 224.739677 
L 404.470803 237.410924 
L 405.582983 247.137894 
L 406.417118 252.372532 
L 406.973208 254.492227 
L 407.251253 255.015955 
L 407.529299 255.116405 
L 407.807344 254.744178 
L 408.085389 253.849627 
L 408.363434 252.385749 
L 408.919524 247.591241 
L 409.475614 240.115476 
L 410.031704 229.863539 
L 410.865839 209.515792 
L 411.97802 174.991946 
L 414.75847 83.795923 
L 415.592606 64.769392 
L 416.148696 55.857422 
L 416.704786 50.229988 
L 416.982831 48.66946 
L 417.260876 47.937562 
L 417.538921 48.0167 
L 417.816966 48.880934 
L 418.095011 50.497635 
L 418.651102 55.821984 
L 419.207192 63.598851 
L 420.041327 78.837688 
L 421.709597 115.743093 
L 423.099823 145.028418 
L 423.933958 159.177256 
L 424.768093 169.827111 
L 425.324183 174.882987 
L 425.880273 178.392049 
L 426.436364 180.551064 
L 426.436364 180.551064 
" clip-path="url(#p49e9e1b9a3)" style="fill: none; stroke-dasharray: 11.1,4.8; stroke-dashoffset: 0; stroke: #000000; stroke-width: 3"/>
   </g>
   <g id="line2d_2">
    <path d="M 27.163636 137.247998 
L 29.666042 137.387108 
L 31.056267 137.197278 
L 32.724538 136.843224 
L 33.836718 137.068245 
L 38.007394 138.158492 
L 39.119575 138.11851 
L 41.06589 139.397597 
L 42.17807 139.882499 
L 43.290251 140.108017 
L 44.124386 140.071504 
L 44.958521 139.831944 
L 46.070701 139.333659 
L 47.182882 140.268935 
L 48.295062 140.897243 
L 49.129197 141.120943 
L 49.963332 141.098309 
L 50.797468 140.799767 
L 51.631603 140.195745 
L 52.465738 139.259478 
L 53.021828 138.498172 
L 54.134009 138.49685 
L 58.58273 138.664542 
L 59.416865 138.896503 
L 60.251 139.349354 
L 60.80709 139.86383 
L 61.919271 141.600394 
L 63.031451 143.735784 
L 64.421676 146.957786 
L 65.811902 150.790253 
L 67.202127 155.224595 
L 68.592352 159.625894 
L 69.426488 162.030748 
L 69.704533 163.462162 
L 70.816713 171.022516 
L 71.928893 177.154266 
L 73.041074 182.076815 
L 74.153254 185.974707 
L 74.987389 188.121497 
L 77.21175 188.692146 
L 79.43611 189.040417 
L 81.938516 189.188448 
L 82.772651 189.14351 
L 83.606787 189.387861 
L 84.718967 190.011048 
L 87.499418 191.759177 
L 88.333553 191.999894 
L 89.167688 191.969329 
L 89.723778 192.009807 
L 91.114004 192.466788 
L 94.450544 193.815264 
L 95.28468 193.78883 
L 96.118815 193.584626 
L 97.230995 193.054785 
L 98.06513 192.460014 
L 102.791897 187.675089 
L 103.904077 186.961695 
L 104.738212 186.655223 
L 105.294302 186.607311 
L 106.128438 186.788386 
L 106.962573 187.152352 
L 107.796708 187.713584 
L 108.074753 187.571334 
L 110.299114 183.192174 
L 111.967384 180.616489 
L 113.9137 178.052699 
L 115.58197 176.19966 
L 117.250241 174.636571 
L 118.918511 173.33865 
L 120.586781 172.289542 
L 122.255052 171.483133 
L 124.479413 170.695888 
L 125.313548 170.504405 
L 128.093998 172.288055 
L 130.040314 173.385736 
L 130.596404 173.508655 
L 135.32317 173.913099 
L 139.771892 174.347777 
L 140.884072 174.555781 
L 141.162117 174.726778 
L 143.664523 178.158932 
L 145.332793 179.967033 
L 147.001064 181.40902 
L 148.669334 182.519092 
L 150.337604 183.333762 
L 152.005875 183.891029 
L 153.674145 184.232691 
L 158.678957 184.440696 
L 162.293543 184.382045 
L 165.073993 184.133233 
L 166.742264 183.814204 
L 171.747075 182.388904 
L 175.361661 181.121217 
L 178.698202 179.768115 
L 180.366473 178.641026 
L 188.151735 171.775066 
L 190.65414 169.139738 
L 192.322411 167.242752 
L 192.878501 167.059034 
L 195.658952 166.570827 
L 198.717447 166.26072 
L 202.053988 166.156966 
L 205.390529 166.27625 
L 209.83925 166.687798 
L 218.180603 167.354602 
L 223.185414 167.634805 
L 226.8 167.366662 
L 228.190225 167.216813 
L 230.136541 166.691433 
L 232.638947 165.746575 
L 240.146164 162.706638 
L 242.092479 162.23264 
L 243.76075 162.029592 
L 245.42902 162.056687 
L 248.209471 162.256265 
L 250.711876 162.089564 
L 257.941048 161.251764 
L 269.062851 159.79243 
L 276.848113 157.864714 
L 279.072474 157.590128 
L 281.296835 157.58385 
L 283.24315 157.784915 
L 285.189466 158.192168 
L 286.857736 158.542917 
L 290.472322 157.818619 
L 293.530818 156.976193 
L 295.755179 156.364571 
L 299.925855 155.409965 
L 305.486756 154.087263 
L 308.267207 153.210968 
L 311.047658 152.259666 
L 314.662244 152.038279 
L 317.442694 151.878352 
L 320.779235 153.001642 
L 323.559686 154.161939 
L 325.227956 155.070781 
L 326.618182 156.066195 
L 327.730362 157.090191 
L 328.842542 158.397033 
L 329.954723 160.079241 
L 331.622993 162.886722 
L 332.735173 163.732782 
L 334.125399 164.482853 
L 335.515624 164.971886 
L 337.183895 165.307271 
L 337.739985 165.285958 
L 343.022841 163.734434 
L 345.247202 163.339077 
L 347.193517 163.194185 
L 350.530058 163.31826 
L 353.032464 163.581776 
L 355.812915 164.099887 
L 358.31532 164.806012 
L 359.149456 165.048546 
L 359.705546 164.883662 
L 361.651861 164.082044 
L 363.876222 163.434901 
L 366.378628 162.954294 
L 370.271259 162.475339 
L 376.38825 161.738485 
L 379.168701 161.150819 
L 381.393062 160.464851 
L 383.895467 159.603921 
L 385.007648 159.673145 
L 390.846594 160.163005 
L 397.241631 160.472285 
L 404.192758 160.589422 
L 409.197569 160.216369 
L 410.865839 159.790117 
L 412.53411 159.11687 
L 414.20238 158.168047 
L 415.870651 156.979828 
L 417.260876 155.746671 
L 418.095011 154.883428 
L 418.651102 156.920847 
L 421.709597 170.274923 
L 425.602228 187.142439 
L 426.436364 190.440109 
L 426.436364 190.440109 
" clip-path="url(#p49e9e1b9a3)" style="fill: none; stroke: #ff00ff; stroke-width: 3; stroke-linecap: square"/>
   </g>
   <g id="patch_3">
    <path d="M 7.2 331.2 
L 7.2 7.2 
" style="fill: none; stroke: #000000; stroke-width: 0.8; stroke-linejoin: miter; stroke-linecap: square"/>
   </g>
   <g id="patch_4">
    <path d="M 446.4 331.2 
L 446.4 7.2 
" style="fill: none; stroke: #000000; stroke-width: 0.8; stroke-linejoin: miter; stroke-linecap: square"/>
   </g>
   <g id="patch_5">
    <path d="M 7.2 331.2 
L 446.4 331.2 
" style="fill: none; stroke: #000000; stroke-width: 0.8; stroke-linejoin: miter; stroke-linecap: square"/>
   </g>
   <g id="patch_6">
    <path d="M 7.2 7.2 
L 446.4 7.2 
" style="fill: none; stroke: #000000; stroke-width: 0.8; stroke-linejoin: miter; stroke-linecap: square"/>
   </g>
  </g>
 </g>
 <defs>
  <clipPath id="p49e9e1b9a3">
   <rect x="7.2" y="7.2" width="439.2" height="324"/>
  </clipPath>
 </defs>
</svg>
