<?xml version="1.0" encoding="utf-8" standalone="no"?>
<!DOCTYPE svg PUBLIC "-//W3C//DTD SVG 1.1//EN"
  "http://www.w3.org/Graphics/SVG/1.1/DTD/svg11.dtd">
<svg xmlns:xlink="http://www.w3.org/1999/xlink" width="453.6pt" height="338.4pt" viewBox="0 0 453.6 338.4" xmlns="http://www.w3.org/2000/svg" version="1.1">
 <metadata>
  <rdf:RDF xmlns:dc="http://purl.org/dc/elements/1.1/" xmlns:cc="http://creativecommons.org/ns#" xmlns:rdf="http://www.w3.org/1999/02/22-rdf-syntax-ns#">
   <cc:Work>
    <dc:type rdf:resource="http://purl.org/dc/dcmitype/StillImage"/>
    <dc:date>2025-05-15T01:19:12.221237</dc:date>
    <dc:format>image/svg+xml</dc:format>
    <dc:creator>
     <cc:Agent>
      <dc:title>Matplotlib v3.10.1, https://matplotlib.org/</dc:title>
     </cc:Agent>
    </dc:creator>
   </cc:Work>
  </rdf:RDF>
 </metadata>
 <defs>
  <style type="text/css">*{stroke-linejoin: round; stroke-linecap: butt}</style>
 </defs>
 <g id="figure_1">
  <g id="patch_1">
   <path d="M 0 338.4 
L 453.6 338.4 
L 453.6 0 
L 0 0 
z
" style="fill: #ffffff"/>
  </g>
  <g id="axes_1">
   <g id="patch_2">
    <path d="M 7.2 331.2 
L 446.4 331.2 
L 446.4 7.2 
L 7.2 7.2 
z
" style="fill: #ffffff"/>
   </g>
   <g id="matplotlib.axis_1"/>
   <g id="matplotlib.axis_2"/>
   <g id="line2d_1">
    <path d="M 27.163636 278.660728 
L 28.760727 278.385341 
L 30.357818 278.338588 
L 32.221091 278.51671 
L 34.350545 278.948256 
L 37.544727 279.858402 
L 41.803636 281.108848 
L 42.069818 281.09628 
L 45.796364 279.220124 
L 47.659636 278.674405 
L 49.522909 278.375737 
L 51.386182 278.317214 
L 53.249455 278.492184 
L 55.112727 278.894288 
L 56.976 279.517374 
L 58.573091 280.069216 
L 60.436364 279.543155 
L 62.299636 279.274417 
L 63.896727 279.248315 
L 65.493818 279.428188 
L 67.090909 279.831987 
L 68.688 280.481339 
L 70.285091 281.402012 
L 71.882182 282.623918 
L 73.479273 284.181662 
L 75.608727 286.466236 
L 78.270545 287.967873 
L 80.666182 289.058381 
L 83.061818 289.916892 
L 85.723636 290.63809 
L 88.651636 291.196229 
L 96.370909 292.267866 
L 100.097455 292.408571 
L 104.356364 292.332916 
L 107.550545 292.136442 
L 108.615273 291.750041 
L 112.341818 290.151683 
L 116.068364 288.282148 
L 120.593455 285.74556 
L 125.118545 283.167113 
L 138.161455 280.587381 
L 140.024727 280.219985 
L 141.888 280.147245 
L 144.283636 280.290153 
L 148.276364 280.820462 
L 151.736727 281.210997 
L 153.866182 281.456342 
L 156.261818 282.443127 
L 158.125091 282.979718 
L 159.722182 283.206817 
L 161.053091 283.191126 
L 162.384 282.971793 
L 163.714909 282.522998 
L 165.045818 281.818734 
L 166.376727 280.835234 
L 167.707636 279.545745 
L 169.038545 278.284936 
L 170.369455 277.295254 
L 171.700364 276.546948 
L 173.031273 276.016161 
L 174.628364 275.639495 
L 176.225455 275.512708 
L 178.088727 275.623615 
L 180.218182 276.003963 
L 182.613818 276.675645 
L 184.210909 277.287591 
L 187.405091 278.851675 
L 191.664 281.218812 
L 198.052364 284.793996 
L 202.311273 286.905674 
L 209.232 290.130499 
L 212.16 291.314321 
L 219.080727 293.862518 
L 222.008727 294.759288 
L 224.670545 295.230216 
L 227.332364 295.452996 
L 229.994182 295.452917 
L 232.656 295.248953 
L 235.584 294.795878 
L 238.512 294.112712 
L 241.44 293.208997 
L 242.504727 292.723506 
L 248.094545 287.751617 
L 250.224 286.276484 
L 252.353455 285.08366 
L 254.216727 284.275963 
L 256.08 283.686046 
L 257.943273 283.307919 
L 259.540364 283.18736 
L 262.468364 282.894398 
L 265.396364 282.383555 
L 268.324364 281.645893 
L 271.252364 280.671137 
L 273.648 279.84709 
L 276.043636 279.4757 
L 278.971636 279.259775 
L 282.698182 279.249667 
L 287.223273 279.231931 
L 288.554182 279.262659 
L 290.151273 279.507485 
L 292.813091 280.182322 
L 295.474909 280.815439 
L 297.072 280.984275 
L 298.402909 280.939336 
L 299.201455 280.816093 
L 299.467636 280.671594 
L 301.863273 278.211253 
L 303.460364 276.9388 
L 305.057455 275.946431 
L 306.654545 275.21236 
L 308.251636 274.717602 
L 309.848727 274.444654 
L 311.445818 274.376742 
L 313.309091 274.538782 
L 315.172364 274.960976 
L 316.237091 275.395858 
L 319.165091 276.94221 
L 322.891636 279.203551 
L 330.877091 284.184478 
L 333.805091 285.675484 
L 335.136 286.012477 
L 342.056727 287.449192 
L 347.114182 288.610924 
L 350.574545 289.643457 
L 353.502545 290.748012 
L 356.164364 291.994829 
L 358.56 293.17734 
L 361.488 293.607743 
L 364.149818 293.764765 
L 367.077818 293.700941 
L 370.538182 293.381825 
L 375.063273 292.722045 
L 381.717818 291.535451 
L 384.379636 290.719073 
L 387.307636 289.574397 
L 393.163636 286.964742 
L 395.559273 285.927122 
L 397.422545 285.326127 
L 397.954909 285.082442 
L 399.818182 282.999846 
L 401.681455 281.25963 
L 403.544727 279.849148 
L 405.408 278.753746 
L 407.005091 278.055164 
L 408.602182 277.569527 
L 410.199273 277.286932 
L 411.796364 277.204488 
L 413.393455 277.340237 
L 413.925818 277.39511 
L 414.990545 277.120328 
L 416.321455 276.559343 
L 417.652364 275.759549 
L 418.983273 274.718014 
L 420.580364 273.147281 
L 422.177455 271.226431 
L 423.774545 268.961667 
L 425.637818 265.902972 
L 426.436364 264.462835 
L 426.436364 264.462835 
" clip-path="url(#pc7a469995f)" style="fill: none; stroke: #ffa500; stroke-width: 3; stroke-linecap: square"/>
   </g>
   <g id="line2d_2">
    <path d="M 27.163636 201.927007 
L 28.228364 201.498072 
L 29.559273 201.218568 
L 31.156364 201.130953 
L 33.552 201.275143 
L 40.472727 202.090685 
L 42.336 202.206328 
L 43.134545 201.924286 
L 45.264 201.142953 
L 50.321455 199.553311 
L 55.645091 198.129839 
L 67.090909 195.393588 
L 72.148364 194.441415 
L 76.407273 193.838014 
L 80.666182 193.458333 
L 84.658909 193.35785 
L 88.917818 193.511406 
L 105.687273 194.694049 
L 110.478545 195.008201 
L 127.248 194.646217 
L 136.830545 194.461227 
L 141.355636 194.346216 
L 143.751273 194.183451 
L 144.816 194.313078 
L 145.880727 194.705505 
L 146.679273 195.221352 
L 147.477818 195.964966 
L 148.276364 196.967403 
L 149.074909 198.261081 
L 150.405818 200.621391 
L 151.470545 201.762049 
L 152.801455 202.823914 
L 154.132364 203.555317 
L 155.463273 204.035025 
L 157.060364 204.384158 
L 159.189818 204.619175 
L 160.520727 204.531349 
L 165.045818 204.483825 
L 166.110545 204.197262 
L 167.175273 203.685453 
L 168.24 202.892664 
L 169.837091 201.188845 
L 170.901818 200.512323 
L 171.966545 200.131852 
L 173.297455 199.944491 
L 180.750545 199.713705 
L 188.203636 199.718674 
L 220.944 199.578057 
L 250.756364 199.449896 
L 254.216727 199.456927 
L 255.547636 199.797413 
L 256.612364 199.849529 
L 257.677091 199.685404 
L 258.741818 199.291828 
L 259.806545 198.659056 
L 260.338909 198.161739 
L 261.403636 196.673704 
L 262.734545 194.295619 
L 263.266909 193.243532 
L 263.799273 193.026853 
L 265.396364 192.76889 
L 266.993455 192.735866 
L 268.590545 192.904916 
L 269.921455 193.467199 
L 270.986182 194.163341 
L 271.784727 194.945192 
L 272.583273 196.040695 
L 274.180364 198.671705 
L 274.712727 198.920302 
L 275.245091 198.902702 
L 276.842182 198.469422 
L 277.108364 198.53165 
L 277.906909 199.107346 
L 278.173091 199.06127 
L 278.705455 198.609547 
L 279.237818 197.752107 
L 280.036364 195.892643 
L 281.367273 192.40393 
L 281.899636 193.630402 
L 282.964364 196.945265 
L 284.029091 200.219168 
L 284.561455 201.41942 
L 285.093818 202.126403 
L 285.892364 202.837801 
L 286.690909 203.155894 
L 287.489455 203.148222 
L 288.288 202.883473 
L 289.086545 202.425342 
L 290.151273 201.261958 
L 291.216 200.422426 
L 292.280727 199.869982 
L 293.345455 199.559473 
L 294.942545 199.208462 
L 300.532364 198.018796 
L 301.064727 197.924431 
L 303.992727 194.852196 
L 305.323636 194.011497 
L 306.654545 193.486687 
L 307.985455 193.246175 
L 309.316364 193.262651 
L 312.776727 193.592665 
L 317.301818 193.797363 
L 319.963636 194.164824 
L 322.891636 194.651879 
L 330.877091 193.621536 
L 339.394909 192.979995 
L 349.776 192.434794 
L 361.221818 192.042086 
L 370.804364 191.912415 
L 376.394182 192.028813 
L 379.322182 192.490798 
L 389.170909 194.155002 
L 393.696 194.952548 
L 395.559273 195.531098 
L 397.422545 195.87901 
L 399.285818 195.999525 
L 401.149091 195.899077 
L 403.012364 195.585908 
L 405.141818 194.979953 
L 407.271273 194.125296 
L 408.602182 193.227029 
L 410.997818 191.782587 
L 412.861091 190.890061 
L 414.458182 190.391541 
L 415.789091 190.211774 
L 417.12 190.28616 
L 418.184727 190.553937 
L 419.249455 191.02542 
L 419.515636 191.176807 
L 420.048 191.959018 
L 421.112727 193.505639 
L 421.911273 194.37054 
L 422.709818 194.964969 
L 423.508364 195.275031 
L 424.306909 195.292455 
L 425.105455 195.014996 
L 425.904 194.448332 
L 426.436364 193.917465 
L 426.436364 193.917465 
" clip-path="url(#pc7a469995f)" style="fill: none; stroke: #ff0000; stroke-width: 3; stroke-linecap: square"/>
   </g>
   <g id="line2d_3">
    <path d="M 27.163636 145.772412 
L 34.350545 146.523224 
L 41.005091 146.990449 
L 45.796364 147.120594 
L 75.076364 147.21157 
L 121.125818 147.322561 
L 136.564364 147.518911 
L 179.153455 148.136031 
L 237.979636 148.31593 
L 272.583273 148.607294 
L 304.258909 148.991619 
L 329.546182 149.090496 
L 380.120727 149.251101 
L 383.581091 149.564006 
L 386.509091 150.048911 
L 389.170909 150.711695 
L 391.566545 151.521057 
L 393.163636 152.185861 
L 393.696 153.903971 
L 394.228364 156.807147 
L 394.760727 161.096567 
L 395.293091 167.499868 
L 395.825455 177.617067 
L 396.357818 195.643238 
L 397.156364 221.65921 
L 397.422545 226.331111 
L 397.954909 229.184725 
L 398.487273 256.980552 
L 399.285818 311.165161 
L 399.552 316.390676 
L 399.818182 316.472727 
L 400.084364 308.561918 
L 400.350545 288.901823 
L 400.616727 258.152153 
L 400.882909 242.411914 
L 401.149091 238.033159 
L 401.415273 241.959989 
L 401.681455 250.783884 
L 401.947636 245.589758 
L 403.278545 198.496125 
L 403.544727 194.657647 
L 403.810909 193.380375 
L 404.077091 193.200054 
L 404.343273 193.445473 
L 404.609455 194.146794 
L 404.875636 195.538304 
L 405.674182 209.032691 
L 405.940364 220.090934 
L 406.206545 241.178884 
L 406.472727 252.837977 
L 406.738909 256.849003 
L 407.271273 243.800234 
L 407.537455 247.156867 
L 408.069818 281.208958 
L 408.336 270.727337 
L 408.868364 234.28212 
L 409.134545 225.980994 
L 409.400727 225.815614 
L 409.666909 226.580138 
L 410.199273 230.592511 
L 410.465455 233.913772 
L 410.731636 233.973367 
L 410.997818 230.532547 
L 412.594909 197.680135 
L 413.127273 193.262958 
L 413.393455 191.63478 
L 413.659636 192.466676 
L 414.192 195.848577 
L 414.724364 199.491811 
L 415.256727 202.03619 
L 415.789091 206.322739 
L 416.587636 215.990217 
L 416.853818 220.972268 
L 417.386182 239.923575 
L 417.918545 267.969658 
L 418.450909 260.327823 
L 418.717091 259.123673 
L 418.983273 260.266025 
L 419.249455 263.857798 
L 420.048 301.876553 
L 420.314182 300.826102 
L 420.580364 290.827913 
L 420.846545 271.962816 
L 421.112727 281.586357 
L 421.378909 283.135784 
L 421.645091 275.027466 
L 421.911273 257.940082 
L 422.443636 211.088189 
L 423.242182 155.751997 
L 424.839273 21.927273 
L 425.105455 22.271692 
L 425.637818 27.755044 
L 425.904 28.773799 
L 426.170182 28.782367 
L 426.436364 27.885382 
L 426.436364 27.885382 
" clip-path="url(#pc7a469995f)" style="fill: none; stroke: #0000ff; stroke-width: 3; stroke-linecap: square"/>
   </g>
   <g id="patch_3">
    <path d="M 7.2 331.2 
L 7.2 7.2 
" style="fill: none; stroke: #000000; stroke-width: 0.8; stroke-linejoin: miter; stroke-linecap: square"/>
   </g>
   <g id="patch_4">
    <path d="M 446.4 331.2 
L 446.4 7.2 
" style="fill: none; stroke: #000000; stroke-width: 0.8; stroke-linejoin: miter; stroke-linecap: square"/>
   </g>
   <g id="patch_5">
    <path d="M 7.2 331.2 
L 446.4 331.2 
" style="fill: none; stroke: #000000; stroke-width: 0.8; stroke-linejoin: miter; stroke-linecap: square"/>
   </g>
   <g id="patch_6">
    <path d="M 7.2 7.2 
L 446.4 7.2 
" style="fill: none; stroke: #000000; stroke-width: 0.8; stroke-linejoin: miter; stroke-linecap: square"/>
   </g>
  </g>
 </g>
 <defs>
  <clipPath id="pc7a469995f">
   <rect x="7.2" y="7.2" width="439.2" height="324"/>
  </clipPath>
 </defs>
</svg>
