<?xml version="1.0" encoding="utf-8" standalone="no"?>
<!DOCTYPE svg PUBLIC "-//W3C//DTD SVG 1.1//EN"
  "http://www.w3.org/Graphics/SVG/1.1/DTD/svg11.dtd">
<svg xmlns:xlink="http://www.w3.org/1999/xlink" width="453.6pt" height="338.4pt" viewBox="0 0 453.6 338.4" xmlns="http://www.w3.org/2000/svg" version="1.1">
 <metadata>
  <rdf:RDF xmlns:dc="http://purl.org/dc/elements/1.1/" xmlns:cc="http://creativecommons.org/ns#" xmlns:rdf="http://www.w3.org/1999/02/22-rdf-syntax-ns#">
   <cc:Work>
    <dc:type rdf:resource="http://purl.org/dc/dcmitype/StillImage"/>
    <dc:date>2025-05-15T00:20:42.054466</dc:date>
    <dc:format>image/svg+xml</dc:format>
    <dc:creator>
     <cc:Agent>
      <dc:title>Matplotlib v3.10.1, https://matplotlib.org/</dc:title>
     </cc:Agent>
    </dc:creator>
   </cc:Work>
  </rdf:RDF>
 </metadata>
 <defs>
  <style type="text/css">*{stroke-linejoin: round; stroke-linecap: butt}</style>
 </defs>
 <g id="figure_1">
  <g id="patch_1">
   <path d="M 0 338.4 
L 453.6 338.4 
L 453.6 0 
L 0 0 
z
" style="fill: #ffffff"/>
  </g>
  <g id="axes_1">
   <g id="patch_2">
    <path d="M 7.2 331.2 
L 446.4 331.2 
L 446.4 7.2 
L 7.2 7.2 
z
" style="fill: #ffffff"/>
   </g>
   <g id="matplotlib.axis_1"/>
   <g id="matplotlib.axis_2"/>
   <g id="line2d_1">
    <path d="M 27.163636 268.018109 
L 29.293091 266.859833 
L 36.746182 263.246686 
L 37.810909 263.272779 
L 39.141818 263.610408 
L 43.134545 264.886157 
L 44.199273 264.866402 
L 44.997818 264.660014 
L 45.796364 264.263458 
L 47.393455 263.244368 
L 48.458182 262.964758 
L 49.789091 262.865688 
L 51.652364 263.005015 
L 55.911273 263.442864 
L 57.508364 263.352116 
L 58.839273 263.087406 
L 60.170182 262.599899 
L 61.234909 262.267103 
L 62.832 261.985355 
L 64.429091 261.903802 
L 66.292364 262.021758 
L 68.421818 262.375377 
L 71.882182 263.218517 
L 75.342545 264.005578 
L 77.205818 264.230443 
L 78.270545 264.130302 
L 81.464727 263.875486 
L 89.716364 263.364506 
L 92.112 262.908771 
L 94.507636 262.209378 
L 96.370909 261.465575 
L 97.169455 261.175247 
L 97.701818 261.375257 
L 99.565091 262.181446 
L 101.428364 262.74796 
L 103.557818 263.157689 
L 106.219636 263.413532 
L 110.478545 263.539902 
L 114.205091 263.741957 
L 116.600727 264.111964 
L 118.464 264.417387 
L 123.255273 264.361549 
L 129.111273 264.057391 
L 137.362909 263.57853 
L 140.024727 263.655571 
L 143.218909 263.509644 
L 146.945455 263.096022 
L 154.132364 261.999462 
L 155.463273 261.847692 
L 158.125091 262.36975 
L 161.053091 262.700361 
L 164.247273 262.84154 
L 168.772364 262.7934 
L 174.362182 262.710772 
L 177.290182 263.128962 
L 180.750545 263.38014 
L 186.340364 263.509916 
L 191.131636 263.706827 
L 193.527273 263.786028 
L 208.433455 263.942309 
L 210.829091 264.022678 
L 231.058909 263.820131 
L 235.850182 263.743204 
L 239.310545 263.484249 
L 242.238545 263.049656 
L 242.770909 262.992379 
L 247.828364 263.315103 
L 252.885818 263.446959 
L 256.878545 263.334283 
L 259.806545 263.253555 
L 264.597818 263.468931 
L 272.849455 263.943077 
L 278.705455 263.000327 
L 283.762909 262.438193 
L 286.957091 262.233144 
L 289.086545 262.316725 
L 291.748364 262.158583 
L 298.136727 261.632316 
L 300 261.774201 
L 302.395636 261.936777 
L 305.856 261.890578 
L 310.114909 261.845414 
L 313.042909 261.876265 
L 315.704727 261.604226 
L 318.632727 261.553962 
L 321.826909 261.729815 
L 326.618182 262.142844 
L 327.949091 261.654138 
L 329.546182 261.309926 
L 331.409455 261.168532 
L 333.538909 261.256089 
L 336.200727 261.605802 
L 344.186182 262.882389 
L 346.315636 262.475202 
L 348.445091 262.291212 
L 350.840727 262.298423 
L 353.768727 262.529578 
L 358.826182 263.202023 
L 363.085091 263.693985 
L 363.617455 263.583924 
L 365.480727 262.822473 
L 367.344 262.303729 
L 369.207273 262.031045 
L 371.070545 262.003912 
L 372.933818 262.221153 
L 374.797091 262.679785 
L 376.660364 263.373407 
L 378.523636 264.269106 
L 380.653091 265.555459 
L 382.782545 267.110212 
L 383.314909 267.539318 
L 383.847273 267.521723 
L 387.041455 266.927754 
L 392.365091 265.914397 
L 394.760727 265.682716 
L 396.890182 265.674903 
L 398.753455 265.865319 
L 400.616727 266.283088 
L 402.213818 266.854172 
L 403.810909 267.647843 
L 405.674182 268.71292 
L 409.134545 268.206413 
L 414.990545 267.324096 
L 417.386182 267.184712 
L 419.249455 267.258874 
L 421.112727 267.553693 
L 422.709818 268.03143 
L 424.040727 268.625196 
L 425.371636 269.429778 
L 426.436364 270.250135 
L 426.436364 270.250135 
" clip-path="url(#p7b2427fbda)" style="fill: none; stroke: #ffa500; stroke-width: 3; stroke-linecap: square"/>
   </g>
   <g id="line2d_2">
    <path d="M 27.163636 285.173956 
L 28.494545 285.694936 
L 29.825455 285.945212 
L 31.422545 285.987595 
L 35.149091 285.942317 
L 36.213818 286.022725 
L 39.408 284.872499 
L 40.738909 284.654073 
L 41.803636 284.732304 
L 42.602182 284.999655 
L 42.868364 285.136934 
L 43.400727 285.020791 
L 45.796364 284.142299 
L 47.393455 283.765673 
L 48.990545 283.62154 
L 50.055273 283.754252 
L 52.184727 283.907477 
L 56.177455 283.896726 
L 57.242182 283.35533 
L 58.306909 283.044237 
L 59.371636 282.986336 
L 60.436364 283.206986 
L 61.501091 283.685908 
L 62.565818 284.440711 
L 63.098182 284.766394 
L 63.896727 284.413778 
L 64.695273 284.297856 
L 65.76 284.414037 
L 67.357091 284.905202 
L 69.220364 285.453682 
L 70.285091 285.516439 
L 70.551273 285.338313 
L 71.349818 284.512532 
L 72.148364 284.01186 
L 72.946909 283.786876 
L 73.745455 283.79048 
L 74.810182 284.064494 
L 76.141091 284.679077 
L 77.738182 285.416015 
L 78.270545 285.560481 
L 80.666182 284.236567 
L 81.730909 284.019521 
L 83.061818 283.980974 
L 84.658909 284.167608 
L 87.586909 284.804772 
L 89.716364 285.196851 
L 90.514909 285.262051 
L 90.781091 285.185475 
L 91.845818 284.521058 
L 92.910545 284.158354 
L 93.975273 284.074803 
L 95.04 284.293315 
L 96.370909 284.867564 
L 99.298909 286.254148 
L 100.363636 286.467002 
L 102.226909 285.018796 
L 103.291636 284.658223 
L 104.356364 284.569899 
L 105.687273 284.722944 
L 110.212364 285.537171 
L 111.277091 285.171149 
L 113.140364 284.778009 
L 115.269818 284.572375 
L 117.931636 284.561003 
L 124.852364 284.704396 
L 126.449455 284.356327 
L 127.780364 284.210733 
L 131.506909 284.073331 
L 135.499636 284.143229 
L 146.679273 284.516849 
L 154.132364 284.489129 
L 161.319273 284.703428 
L 168.772364 285.057198 
L 174.362182 285.312506 
L 183.944727 285.176872 
L 190.865455 285.29223 
L 198.318545 285.622956 
L 204.973091 286.008386 
L 210.030545 285.390717 
L 217.749818 284.677078 
L 221.742545 284.572945 
L 225.735273 284.687937 
L 228.397091 284.935649 
L 231.058909 285.419004 
L 233.188364 285.807753 
L 242.238545 284.49906 
L 246.763636 284.14703 
L 248.360727 284.298249 
L 249.957818 284.668271 
L 251.554909 285.27979 
L 252.885818 285.899855 
L 262.734545 285.01341 
L 265.662545 285.05476 
L 268.058182 285.293942 
L 270.453818 285.761352 
L 271.518545 285.944606 
L 275.777455 285.822858 
L 283.496727 285.550207 
L 287.489455 285.607085 
L 290.151273 285.848725 
L 294.410182 286.364588 
L 298.136727 286.409808 
L 307.985455 286.326754 
L 308.784 286.7298 
L 310.114909 287.315313 
L 311.712 287.647629 
L 313.575273 287.80251 
L 315.438545 287.721295 
L 317.301818 287.406691 
L 319.165091 286.850547 
L 321.028364 286.03742 
L 322.891636 284.947497 
L 325.021091 283.63422 
L 326.618182 283.851014 
L 328.215273 283.830183 
L 329.812364 283.589684 
L 331.675636 283.085297 
L 333.805091 282.28421 
L 336.733091 280.929456 
L 337.265455 280.694777 
L 337.797818 280.867096 
L 339.661091 281.546111 
L 341.524364 281.961554 
L 343.121455 282.107302 
L 345.517091 282.041528 
L 348.711273 281.701283 
L 352.970182 281.006098 
L 356.696727 280.320462 
L 363.883636 282.221681 
L 366.545455 282.594994 
L 369.739636 282.801513 
L 373.732364 282.814989 
L 378.257455 282.613428 
L 382.782545 282.133632 
L 389.437091 281.35651 
L 395.559273 281.846563 
L 403.544727 282.681175 
L 408.336 282.94279 
L 414.724364 283.039971 
L 418.983273 282.892511 
L 423.774545 282.483329 
L 426.436364 282.200638 
L 426.436364 282.200638 
" clip-path="url(#p7b2427fbda)" style="fill: none; stroke: #ff0000; stroke-width: 3; stroke-linecap: square"/>
   </g>
   <g id="line2d_3">
    <path d="M 27.163636 301.467467 
L 33.019636 304.329083 
L 39.940364 307.451782 
L 46.062545 309.974896 
L 51.652364 311.999523 
L 57.508364 313.889078 
L 60.436364 314.729567 
L 61.234909 315.620914 
L 62.033455 316.207938 
L 62.832 316.463668 
L 63.364364 316.436077 
L 63.896727 316.240882 
L 64.429091 315.870466 
L 65.227636 314.961 
L 66.026182 313.607817 
L 66.292364 313.054972 
L 66.558545 312.837952 
L 67.623273 313.391827 
L 70.018909 314.899642 
L 70.817455 315.112132 
L 71.349818 315.079805 
L 71.882182 314.871433 
L 72.414545 314.45613 
L 72.946909 313.800953 
L 73.479273 312.873985 
L 74.277818 310.897745 
L 75.076364 308.126108 
L 75.874909 304.435328 
L 76.673455 299.716895 
L 77.738182 292.06334 
L 78.004364 289.887992 
L 78.270545 281.79525 
L 79.601455 225.181666 
L 80.666182 188.49398 
L 81.730909 158.847695 
L 82.795636 135.46391 
L 83.860364 117.668885 
L 84.658909 107.499008 
L 85.457455 99.686096 
L 86.256 93.889768 
L 87.054545 89.769275 
L 87.853091 86.982602 
L 88.651636 85.192283 
L 89.450182 84.065381 
L 90.248727 83.278842 
L 90.514909 83.506161 
L 91.579636 85.836757 
L 92.644364 87.522475 
L 93.709091 88.729469 
L 100.896 91.816126 
L 102.226909 92.748242 
L 103.291636 93.741505 
L 104.356364 95.035192 
L 105.421091 96.703811 
L 106.485818 98.826032 
L 107.550545 101.480312 
L 108.082909 103.030549 
L 109.68 130.35219 
L 110.478545 140.01699 
L 112.075636 149.837252 
L 113.140364 155.230628 
L 114.205091 159.497313 
L 115.003636 161.874029 
L 115.802182 163.546984 
L 116.334545 164.272989 
L 116.866909 164.678205 
L 117.399273 164.77703 
L 117.931636 164.596674 
L 118.464 164.129677 
L 119.262545 162.96387 
L 120.061091 161.318092 
L 121.125818 158.52875 
L 125.118545 147.202125 
L 125.917091 145.876117 
L 126.449455 145.365493 
L 126.981818 145.210243 
L 127.248 145.262121 
L 127.514182 145.461438 
L 127.780364 147.047296 
L 129.377455 162.238883 
L 130.442182 169.910775 
L 131.240727 174.389943 
L 132.039273 177.823143 
L 132.837818 180.228274 
L 133.370182 181.311523 
L 133.902545 182.000677 
L 134.434909 182.318796 
L 134.967273 182.287494 
L 135.499636 181.933138 
L 136.032 181.282081 
L 136.830545 179.810505 
L 137.629091 177.83653 
L 138.693818 174.620351 
L 141.089455 166.319858 
L 142.420364 162.070677 
L 143.485091 159.402193 
L 144.283636 158.044478 
L 144.816 157.535908 
L 145.082182 157.523548 
L 146.146909 160.824357 
L 146.945455 162.641431 
L 147.744 163.937365 
L 148.542545 164.752328 
L 149.074909 165.048818 
L 149.607273 165.161249 
L 150.139636 165.102979 
L 150.938182 164.721446 
L 151.736727 164.022812 
L 152.801455 162.678071 
L 153.866182 160.958803 
L 155.463273 157.906117 
L 159.189818 150.479671 
L 160.520727 148.383996 
L 160.786909 148.080501 
L 161.319273 147.970142 
L 162.650182 147.741173 
L 164.247273 147.186886 
L 166.110545 146.263637 
L 169.304727 144.347931 
L 172.232727 142.664056 
L 174.096 141.825638 
L 175.959273 141.173545 
L 177.290182 138.629641 
L 178.354909 137.019906 
L 179.153455 136.160052 
L 179.952 135.591351 
L 180.750545 135.315033 
L 181.549091 135.340771 
L 182.347636 135.660541 
L 183.146182 136.275362 
L 183.944727 137.190377 
L 184.743273 138.403762 
L 185.808 140.482548 
L 186.872727 143.090287 
L 187.937455 146.231509 
L 189.268364 150.898459 
L 190.599273 156.386551 
L 191.131636 158.743516 
L 191.397818 158.955596 
L 192.462545 156.80906 
L 193.527273 155.096182 
L 194.592 153.7539 
L 195.656727 152.806141 
L 196.455273 152.342041 
L 197.253818 152.075818 
L 198.052364 151.995094 
L 198.850909 152.08981 
L 199.915636 152.472379 
L 200.980364 153.128369 
L 202.045091 154.032289 
L 203.376 155.474625 
L 204.973091 157.605905 
L 207.102545 160.686399 
L 208.433455 159.992294 
L 209.764364 159.525315 
L 211.095273 159.276788 
L 212.692364 159.196486 
L 214.555636 159.353597 
L 216.418909 159.739045 
L 218.548364 160.413171 
L 220.944 161.406839 
L 223.339636 162.574717 
L 223.605818 162.940397 
L 225.735273 167.804188 
L 227.066182 170.31557 
L 228.130909 171.846653 
L 229.195636 173.032026 
L 229.994182 173.669907 
L 230.792727 174.073886 
L 231.591273 174.224607 
L 232.389818 174.104153 
L 233.188364 173.694003 
L 233.986909 172.973968 
L 234.785455 171.919748 
L 235.584 170.515711 
L 236.382545 168.741044 
L 237.447273 165.761234 
L 238.512 162.024539 
L 239.044364 159.855987 
L 239.310545 159.47837 
L 240.375273 161.741233 
L 241.44 163.560362 
L 242.504727 164.958632 
L 243.569455 165.946752 
L 244.634182 166.502496 
L 245.698909 166.811135 
L 246.763636 166.882993 
L 247.828364 166.732887 
L 248.893091 166.374212 
L 250.224 165.65623 
L 251.554909 164.668725 
L 253.152 163.179233 
L 255.015273 161.103765 
L 255.547636 160.600532 
L 255.813818 161.164299 
L 256.878545 165.25988 
L 257.943273 168.599804 
L 259.008 171.224011 
L 260.072727 173.17101 
L 261.137455 174.328382 
L 261.936 174.908617 
L 262.734545 175.255968 
L 263.533091 175.38383 
L 264.331636 175.303738 
L 265.130182 175.033802 
L 266.194909 174.407859 
L 267.259636 173.513841 
L 268.590545 172.080555 
L 270.187636 170.005693 
L 272.583273 166.475933 
L 272.849455 166.070506 
L 274.712727 171.486942 
L 276.043636 174.464487 
L 277.108364 176.353217 
L 278.173091 177.868649 
L 279.237818 179.074616 
L 280.568727 180.219628 
L 281.899636 181.06074 
L 283.496727 181.796831 
L 289.086545 184.091603 
L 290.417455 185.021041 
L 292.014545 186.222882 
L 293.345455 186.542442 
L 294.942545 187.18774 
L 296.805818 188.219514 
L 299.201455 189.828424 
L 304.525091 193.519614 
L 306.388364 194.518232 
L 307.985455 195.127294 
L 309.316364 195.413084 
L 310.647273 195.45385 
L 312.510545 195.390437 
L 317.035636 195.548566 
L 325.021091 195.873893 
L 328.215273 195.769292 
L 331.409455 195.42626 
L 334.603636 195.193183 
L 338.330182 195.157562 
L 343.387636 195.355017 
L 350.308364 195.650691 
L 354.301091 195.359134 
L 358.826182 195.269983 
L 366.279273 195.394966 
L 369.207273 195.394141 
L 380.120727 193.239591 
L 383.048727 192.319001 
L 385.710545 191.239466 
L 388.106182 190.043795 
L 388.638545 189.855399 
L 389.703273 190.824365 
L 390.768 191.522991 
L 391.832727 191.999652 
L 393.163636 192.357511 
L 395.026909 192.562586 
L 399.019636 192.819961 
L 399.818182 193.142408 
L 400.616727 193.735608 
L 401.415273 194.724957 
L 402.213818 196.275607 
L 403.012364 198.598785 
L 403.810909 201.95292 
L 404.343273 204.912751 
L 404.609455 205.520777 
L 405.674182 205.833744 
L 406.738909 206.181719 
L 407.271273 206.562023 
L 407.803636 207.218847 
L 408.336 208.276147 
L 408.868364 209.878886 
L 409.400727 212.205769 
L 410.731636 220.143269 
L 411.530182 226.573765 
L 412.328727 234.741252 
L 412.861091 240.155011 
L 413.127273 240.671411 
L 413.393455 240.624878 
L 413.659636 240.026534 
L 413.925818 238.888721 
L 414.458182 235.032195 
L 414.990545 229.133329 
L 415.789091 216.618855 
L 416.587636 199.930973 
L 417.652364 171.671845 
L 418.717091 137.280985 
L 420.048 87.281568 
L 420.580364 65.703113 
L 420.846545 63.140265 
L 421.911273 80.563834 
L 422.443636 86.896945 
L 422.976 91.0716 
L 423.242182 92.193551 
L 423.508364 92.581457 
L 423.774545 92.156279 
L 424.040727 90.834397 
L 424.306909 88.521919 
L 424.839273 80.572893 
L 425.371636 67.466869 
L 425.904 48.275224 
L 426.436364 21.927273 
L 426.436364 21.927273 
" clip-path="url(#p7b2427fbda)" style="fill: none; stroke: #0000ff; stroke-width: 3; stroke-linecap: square"/>
   </g>
   <g id="patch_3">
    <path d="M 7.2 331.2 
L 7.2 7.2 
" style="fill: none; stroke: #000000; stroke-width: 0.8; stroke-linejoin: miter; stroke-linecap: square"/>
   </g>
   <g id="patch_4">
    <path d="M 446.4 331.2 
L 446.4 7.2 
" style="fill: none; stroke: #000000; stroke-width: 0.8; stroke-linejoin: miter; stroke-linecap: square"/>
   </g>
   <g id="patch_5">
    <path d="M 7.2 331.2 
L 446.4 331.2 
" style="fill: none; stroke: #000000; stroke-width: 0.8; stroke-linejoin: miter; stroke-linecap: square"/>
   </g>
   <g id="patch_6">
    <path d="M 7.2 7.2 
L 446.4 7.2 
" style="fill: none; stroke: #000000; stroke-width: 0.8; stroke-linejoin: miter; stroke-linecap: square"/>
   </g>
  </g>
 </g>
 <defs>
  <clipPath id="p7b2427fbda">
   <rect x="7.2" y="7.2" width="439.2" height="324"/>
  </clipPath>
 </defs>
</svg>
