<?xml version="1.0" encoding="utf-8" standalone="no"?>
<!DOCTYPE svg PUBLIC "-//W3C//DTD SVG 1.1//EN"
  "http://www.w3.org/Graphics/SVG/1.1/DTD/svg11.dtd">
<svg xmlns:xlink="http://www.w3.org/1999/xlink" width="453.6pt" height="338.4pt" viewBox="0 0 453.6 338.4" xmlns="http://www.w3.org/2000/svg" version="1.1">
 <metadata>
  <rdf:RDF xmlns:dc="http://purl.org/dc/elements/1.1/" xmlns:cc="http://creativecommons.org/ns#" xmlns:rdf="http://www.w3.org/1999/02/22-rdf-syntax-ns#">
   <cc:Work>
    <dc:type rdf:resource="http://purl.org/dc/dcmitype/StillImage"/>
    <dc:date>2025-05-15T17:26:42.184327</dc:date>
    <dc:format>image/svg+xml</dc:format>
    <dc:creator>
     <cc:Agent>
      <dc:title>Matplotlib v3.10.1, https://matplotlib.org/</dc:title>
     </cc:Agent>
    </dc:creator>
   </cc:Work>
  </rdf:RDF>
 </metadata>
 <defs>
  <style type="text/css">*{stroke-linejoin: round; stroke-linecap: butt}</style>
 </defs>
 <g id="figure_1">
  <g id="patch_1">
   <path d="M 0 338.4 
L 453.6 338.4 
L 453.6 0 
L 0 0 
z
" style="fill: #ffffff"/>
  </g>
  <g id="axes_1">
   <g id="patch_2">
    <path d="M 7.2 331.2 
L 446.4 331.2 
L 446.4 7.2 
L 7.2 7.2 
z
" style="fill: #ffffff"/>
   </g>
   <g id="matplotlib.axis_1"/>
   <g id="matplotlib.axis_2"/>
   <g id="line2d_1">
    <path d="M 27.163636 287.709799 
L 27.719727 285.044331 
L 28.275817 280.775876 
L 29.109952 272.018138 
L 30.222132 257.283201 
L 31.890403 231.398994 
L 37.173259 145.865823 
L 38.285439 132.654775 
L 39.119575 125.070631 
L 39.675665 121.309301 
L 40.231755 118.671252 
L 40.787845 117.190789 
L 41.06589 116.881608 
L 41.343935 116.850865 
L 41.62198 117.086867 
L 41.900025 117.573901 
L 42.456115 119.219896 
L 43.290251 122.977995 
L 45.792656 135.920943 
L 46.348747 137.838874 
L 46.904837 139.172249 
L 47.460927 139.904185 
L 47.738972 140.047979 
L 48.017017 140.047562 
L 48.295062 139.906457 
L 48.851152 139.21581 
L 49.407242 138.00051 
L 49.963332 136.281398 
L 50.797468 132.818328 
L 51.909648 126.887037 
L 53.577918 117.586844 
L 54.412054 114.330681 
L 54.968144 113.110086 
L 55.246189 112.815953 
L 55.524234 112.730956 
L 55.802279 112.844925 
L 56.358369 113.596828 
L 56.914459 114.872927 
L 58.860775 119.94239 
L 59.69491 121.223804 
L 61.363181 123.112139 
L 61.919271 124.161073 
L 62.753406 126.423202 
L 64.699721 132.539119 
L 65.255812 133.48859 
L 65.533857 133.721196 
L 65.811902 133.786871 
L 66.089947 133.692308 
L 66.646037 133.089806 
L 67.480172 131.570367 
L 68.314307 130.129506 
L 68.870398 129.606561 
L 69.148443 129.524857 
L 69.426488 129.564959 
L 69.982578 129.964431 
L 71.650848 131.770062 
L 71.928893 131.820939 
L 72.206938 131.730919 
L 72.484984 131.488747 
L 73.041074 130.544361 
L 73.597164 129.066108 
L 75.821524 122.14691 
L 76.377615 121.117444 
L 77.21175 120.143794 
L 78.045885 119.268523 
L 78.601975 118.359236 
L 79.158065 116.997702 
L 79.992201 114.061663 
L 81.938516 106.31284 
L 82.494606 105.150272 
L 82.772651 104.895364 
L 83.050696 104.877481 
L 83.328741 105.102312 
L 83.606787 105.568649 
L 84.162877 107.191551 
L 84.718967 109.634637 
L 85.553102 114.506803 
L 86.665282 122.560618 
L 88.055508 134.363716 
L 91.392049 164.101294 
L 92.226184 168.953638 
L 92.782274 171.234547 
L 93.338364 172.857887 
L 94.172499 174.499901 
L 95.28468 176.525569 
L 95.84077 177.946942 
L 96.674905 180.817368 
L 98.621221 188.267827 
L 99.177311 189.194809 
L 99.455356 189.226678 
L 99.733401 188.91314 
L 100.011446 188.215803 
L 100.567536 185.53982 
L 101.123626 180.996491 
L 101.679716 174.48306 
L 102.513852 161.060062 
L 103.347987 143.716099 
L 104.738212 108.981862 
L 106.684528 60.310643 
L 107.518663 44.101111 
L 108.352798 32.656176 
L 108.908888 28.102279 
L 109.186933 26.80715 
L 109.464978 26.180617 
L 109.743024 26.226846 
L 110.021069 26.945922 
L 110.299114 28.333592 
L 110.855204 33.079492 
L 111.411294 40.359541 
L 112.245429 55.680649 
L 113.079564 75.634211 
L 114.191745 107.815625 
L 118.640466 244.611762 
L 119.752646 267.927138 
L 120.586781 281.021363 
L 121.420917 290.450593 
L 121.977007 294.785547 
L 122.533097 297.601917 
L 122.811142 298.443329 
L 123.089187 298.9041 
L 123.367232 298.979562 
L 123.645277 298.663043 
L 123.923322 297.946302 
L 124.479413 295.273935 
L 125.035503 290.882153 
L 125.591593 284.697362 
L 126.425728 271.96132 
L 127.259863 255.105506 
L 128.372044 226.771022 
L 129.762269 184.214678 
L 133.09881 78.503949 
L 134.21099 52.078017 
L 135.045125 37.629596 
L 135.601215 30.927934 
L 136.157306 26.728657 
L 136.435351 25.593851 
L 136.713396 25.11059 
L 136.991441 25.280375 
L 137.269486 26.101581 
L 137.547531 27.569412 
L 138.103621 32.40823 
L 138.659711 39.688153 
L 139.493847 54.808379 
L 140.327982 74.247082 
L 141.718207 113.299631 
L 144.498658 193.890333 
L 145.610838 218.574642 
L 146.444973 232.450606 
L 147.279109 242.235779 
L 147.835199 246.64757 
L 148.391289 249.573176 
L 148.947379 251.222382 
L 149.225424 251.63484 
L 149.503469 251.805594 
L 149.781514 251.756728 
L 150.059559 251.507084 
L 150.61565 250.463028 
L 151.17174 248.748511 
L 151.72783 246.372966 
L 152.561965 241.445869 
L 153.3961 234.557248 
L 154.230236 225.27574 
L 155.064371 213.256003 
L 155.898506 198.382243 
L 157.010686 174.514575 
L 158.957002 126.296186 
L 160.625272 87.094153 
L 161.737453 66.727258 
L 162.571588 55.952564 
L 163.127678 51.225547 
L 163.683768 48.571845 
L 163.961813 48.034893 
L 164.239858 48.024805 
L 164.517903 48.537996 
L 164.795948 49.56813 
L 165.352038 53.139498 
L 165.908129 58.632716 
L 166.742264 70.144286 
L 167.576399 84.990325 
L 168.966624 114.870884 
L 171.747075 177.275555 
L 172.859256 196.9181 
L 173.693391 208.219596 
L 174.527526 216.412433 
L 175.083616 220.229016 
L 175.639706 222.8516 
L 176.195796 224.406222 
L 176.473841 224.820555 
L 176.751887 225.009807 
L 177.029932 224.983379 
L 177.307977 224.747585 
L 177.864067 223.656194 
L 178.420157 221.718712 
L 178.976247 218.869796 
L 179.532337 215.01234 
L 180.366473 207.111052 
L 181.200608 196.464541 
L 182.034743 183.084874 
L 183.146923 161.603767 
L 185.093239 118.321093 
L 187.039554 75.620059 
L 188.151735 55.154369 
L 188.98587 43.362276 
L 189.54196 37.739979 
L 190.09805 34.181533 
L 190.376095 33.221557 
L 190.65414 32.81729 
L 190.932185 32.965149 
L 191.21023 33.653377 
L 191.766321 36.559527 
L 192.322411 41.280458 
L 193.156546 50.994234 
L 194.546771 71.120103 
L 197.883312 124.127537 
L 199.273538 144.999327 
L 200.107673 154.653138 
L 200.663763 159.168309 
L 201.219853 161.928184 
L 201.497898 162.648532 
L 201.775943 162.953816 
L 202.053988 162.87749 
L 202.332033 162.463635 
L 202.888124 160.838316 
L 204.000304 156.063173 
L 204.834439 152.736645 
L 205.668574 150.296769 
L 207.0588 146.850395 
L 207.61489 144.832168 
L 208.17098 142.082443 
L 209.005115 136.488533 
L 210.395341 124.712427 
L 211.507521 115.694111 
L 212.619701 108.640853 
L 214.009927 101.819971 
L 216.790377 88.975255 
L 217.346467 87.464738 
L 217.624513 87.045965 
L 217.902558 86.887705 
L 218.180603 87.009927 
L 218.458648 87.426054 
L 219.014738 89.158693 
L 219.570828 92.055672 
L 220.404963 98.298709 
L 221.517144 109.152564 
L 223.463459 131.280027 
L 226.24391 163.147028 
L 227.35609 173.608602 
L 228.190225 179.657342 
L 229.024361 183.939678 
L 229.580451 185.856401 
L 230.136541 187.132583 
L 230.692631 187.903704 
L 231.248721 188.316203 
L 232.082856 188.542514 
L 232.916992 188.523401 
L 233.473082 188.379648 
L 234.029172 188.045664 
L 234.585262 187.389304 
L 235.141352 186.243722 
L 235.697442 184.427108 
L 236.253533 181.764526 
L 236.809623 178.10839 
L 237.643758 170.55501 
L 238.477893 160.470774 
L 239.590073 143.616137 
L 242.926614 88.621262 
L 243.76075 79.445167 
L 244.31684 75.330156 
L 244.87293 73.017358 
L 245.150975 72.570343 
L 245.42902 72.605693 
L 245.707065 73.124699 
L 245.98511 74.124235 
L 246.5412 77.530466 
L 247.09729 82.711667 
L 247.931426 93.406555 
L 249.043606 111.783694 
L 252.658192 175.855912 
L 253.492327 186.198097 
L 254.326462 193.699851 
L 254.882553 197.078319 
L 255.438643 199.216683 
L 255.994733 200.231226 
L 256.272778 200.367851 
L 256.550823 200.290024 
L 256.828868 200.024966 
L 257.384958 199.048753 
L 258.219093 196.914057 
L 259.609319 193.335936 
L 260.443454 191.938511 
L 260.999544 191.37586 
L 262.38977 190.363464 
L 262.94586 189.520061 
L 263.50195 187.999351 
L 264.05804 185.513662 
L 264.61413 181.817988 
L 265.17022 176.744022 
L 266.004356 166.44298 
L 266.838491 153.225345 
L 268.506761 122.042425 
L 269.896987 98.043302 
L 270.731122 87.415549 
L 271.287212 82.536484 
L 271.843302 79.637545 
L 272.121347 78.961969 
L 272.399392 78.808816 
L 272.677437 79.177003 
L 272.955482 80.060445 
L 273.511573 83.326571 
L 274.067663 88.471048 
L 274.901798 99.255455 
L 276.013978 117.879581 
L 279.072474 172.593809 
L 279.906609 183.436075 
L 280.740744 191.364146 
L 281.296835 195.010132 
L 281.852925 197.432646 
L 282.409015 198.772399 
L 282.68706 199.092398 
L 282.965105 199.212973 
L 283.24315 199.161304 
L 283.79924 198.650948 
L 284.633376 197.27151 
L 286.023601 194.836782 
L 286.857736 193.895502 
L 287.691871 193.384166 
L 288.804052 192.787312 
L 289.360142 192.145334 
L 289.916232 191.003129 
L 290.472322 189.157605 
L 291.028412 186.430265 
L 291.584502 182.686006 
L 292.418638 175.015968 
L 293.252773 164.945531 
L 294.364953 148.540869 
L 297.145404 105.584656 
L 297.979539 96.408123 
L 298.535629 92.084935 
L 299.091719 89.400156 
L 299.369764 88.706467 
L 299.64781 88.455145 
L 299.925855 88.647732 
L 300.2039 89.281352 
L 300.75999 91.83774 
L 301.31608 96.01284 
L 302.150215 104.910413 
L 303.262396 120.376712 
L 306.320891 166.138196 
L 307.155027 175.528576 
L 307.989162 182.676022 
L 308.823297 187.533077 
L 309.379387 189.60141 
L 309.935477 190.878635 
L 310.491567 191.530326 
L 311.047658 191.74015 
L 311.603748 191.68575 
L 313.272018 191.101882 
L 314.106153 190.624144 
L 314.662244 189.998298 
L 315.218334 188.922228 
L 315.774424 187.224146 
L 316.330514 184.772973 
L 317.164649 179.566197 
L 317.998785 172.652669 
L 319.38901 158.565578 
L 324.393821 104.825333 
L 325.227956 98.58611 
L 325.784047 95.77073 
L 326.340137 94.203958 
L 326.618182 93.900716 
L 326.896227 93.907428 
L 327.174272 94.206334 
L 327.730362 95.572495 
L 328.286452 97.727367 
L 331.344948 111.417736 
L 333.013219 117.780077 
L 334.125399 123.143487 
L 335.515624 129.735682 
L 336.071714 131.495521 
L 336.627805 132.413312 
L 336.90585 132.52901 
L 337.183895 132.421232 
L 337.46194 132.106673 
L 338.01803 130.971804 
L 339.6863 126.577084 
L 340.24239 125.90157 
L 340.520436 125.82837 
L 340.798481 125.932917 
L 341.354571 126.612996 
L 342.188706 128.339945 
L 343.022841 129.896046 
L 343.300886 130.179258 
L 343.578931 130.290496 
L 343.856976 130.209897 
L 344.135022 129.927123 
L 344.691112 128.763741 
L 345.247202 126.906942 
L 346.359382 122.027314 
L 347.749607 116.087081 
L 349.973968 107.599902 
L 350.808103 103.190238 
L 353.310509 88.118388 
L 353.866599 86.324867 
L 354.144644 85.884021 
L 354.422689 85.78431 
L 354.700734 86.045699 
L 354.978779 86.681404 
L 355.53487 89.094976 
L 356.09096 93.005415 
L 356.925095 101.44699 
L 357.75923 112.482198 
L 359.149456 134.798517 
L 362.207951 186.037358 
L 363.320132 200.411808 
L 364.154267 208.76674 
L 364.988402 215.034309 
L 365.822537 219.38924 
L 366.378628 221.340416 
L 366.934718 222.591087 
L 367.490808 223.161949 
L 367.768853 223.188816 
L 368.046898 223.03633 
L 368.324943 222.696134 
L 368.881033 221.408009 
L 369.437123 219.216766 
L 369.993213 215.995265 
L 370.549304 211.613238 
L 371.383439 202.620913 
L 372.217574 190.531603 
L 373.051709 175.377716 
L 374.16389 151.055571 
L 376.38825 95.36934 
L 377.778476 63.072623 
L 378.612611 47.254373 
L 379.446746 35.286867 
L 380.002836 29.829978 
L 380.558926 26.593512 
L 380.836971 25.847257 
L 381.115016 25.696647 
L 381.393062 26.148352 
L 381.671107 27.205914 
L 382.227197 31.135445 
L 382.783287 37.447805 
L 383.339377 46.055121 
L 384.173512 62.964283 
L 385.285693 91.946039 
L 386.675918 135.620306 
L 390.012459 244.573807 
L 391.124639 272.809788 
L 391.958774 289.474526 
L 392.79291 302.081676 
L 393.627045 310.707198 
L 394.183135 314.304182 
L 394.739225 316.18616 
L 395.01727 316.472727 
L 395.295315 316.310904 
L 395.57336 315.687945 
L 395.851405 314.58879 
L 396.407496 310.893231 
L 396.963586 305.083421 
L 397.519676 297.034347 
L 398.353811 280.615866 
L 399.187946 259.099826 
L 400.300127 223.614529 
L 402.246442 151.49156 
L 403.914713 92.763597 
L 405.026893 61.196982 
L 405.861028 43.12296 
L 406.695163 30.457096 
L 407.251253 25.150316 
L 407.807344 22.374475 
L 408.085389 21.927273 
L 408.363434 22.097391 
L 408.641479 22.873993 
L 408.919524 24.244114 
L 409.475614 28.699383 
L 410.031704 35.308377 
L 410.865839 48.827461 
L 411.97802 72.292217 
L 413.64629 114.287974 
L 415.592606 163.044774 
L 416.704786 186.267608 
L 417.538921 200.288106 
L 418.373056 211.091522 
L 419.207192 218.687276 
L 419.763282 222.073977 
L 420.319372 224.23975 
L 420.875462 225.308505 
L 421.153507 225.471621 
L 421.431552 225.407738 
L 421.709597 225.131112 
L 422.265688 223.988532 
L 422.821778 222.121186 
L 423.377868 219.568676 
L 424.212003 214.440936 
L 425.046138 207.605818 
L 425.880273 198.818982 
L 426.436364 191.777396 
L 426.436364 191.777396 
" clip-path="url(#p396e9ba9a4)" style="fill: none; stroke-dasharray: 11.1,4.8; stroke-dashoffset: 0; stroke: #000000; stroke-width: 3"/>
   </g>
   <g id="line2d_2">
    <path d="M 27.163636 143.851411 
L 29.387997 143.612698 
L 30.778222 143.616283 
L 31.890403 143.960814 
L 32.446493 144.143564 
L 35.226944 143.773646 
L 38.84153 143.305038 
L 40.5098 142.985664 
L 43.012206 144.239399 
L 45.236566 145.119735 
L 47.182882 145.65329 
L 48.017017 145.823742 
L 49.129197 145.508537 
L 50.519423 144.848529 
L 51.075513 144.634661 
L 53.577918 144.082766 
L 55.524234 143.371693 
L 58.304685 142.079921 
L 60.251 140.951847 
L 62.197316 139.599005 
L 63.031451 139.07977 
L 64.977767 138.153266 
L 65.255812 138.122002 
L 66.089947 138.47312 
L 68.314307 139.432971 
L 70.816713 139.957292 
L 73.041074 140.351721 
L 74.153254 140.924814 
L 78.045885 140.526258 
L 78.88002 140.480633 
L 81.382426 138.998462 
L 82.216561 138.547674 
L 84.718967 140.436301 
L 86.387237 141.100956 
L 88.055508 141.952863 
L 89.167688 142.799747 
L 91.392049 144.649772 
L 92.782274 145.359427 
L 94.172499 145.251087 
L 95.28468 144.917081 
L 96.95295 144.168825 
L 98.621221 143.416214 
L 102.235807 142.536357 
L 103.626032 142.43777 
L 104.460167 142.357671 
L 105.572347 141.99682 
L 106.684528 141.842271 
L 107.796708 141.872327 
L 108.630843 142.085923 
L 110.577159 142.926513 
L 111.967384 144.204175 
L 112.801519 145.209651 
L 113.9137 146.650075 
L 116.13806 147.919483 
L 117.806331 147.721018 
L 119.196556 147.782421 
L 120.586781 148.034869 
L 122.255052 148.584722 
L 123.645277 149.268344 
L 125.313548 150.281366 
L 127.259863 151.894805 
L 127.537908 152.128494 
L 129.206179 151.916106 
L 131.708584 151.222021 
L 133.6549 150.905607 
L 136.157306 150.795703 
L 137.547531 150.958485 
L 138.381666 151.096881 
L 139.771892 150.19689 
L 141.162117 149.622692 
L 142.552342 149.295419 
L 144.498658 148.988176 
L 145.888883 148.34082 
L 147.557154 147.830526 
L 149.225424 147.562009 
L 150.61565 147.412983 
L 152.28392 146.613829 
L 153.95219 146.060349 
L 155.898506 145.67555 
L 157.844821 145.524481 
L 160.347227 145.386961 
L 162.293543 143.804869 
L 164.239858 142.519703 
L 165.908129 141.685825 
L 167.576399 141.120027 
L 169.24467 140.788794 
L 170.634895 140.757342 
L 172.02512 140.990656 
L 173.137301 141.384064 
L 174.249481 141.971455 
L 175.361661 142.76719 
L 176.473841 143.782942 
L 177.029932 143.12554 
L 178.420157 141.429668 
L 179.810382 140.107048 
L 181.200608 139.138838 
L 182.312788 138.60791 
L 183.424968 138.28518 
L 184.537149 138.161749 
L 185.649329 138.2278 
L 187.039554 138.563911 
L 188.42978 139.165871 
L 190.376095 140.332462 
L 192.044366 141.68024 
L 193.156546 142.602261 
L 195.102861 142.389207 
L 196.493087 142.52085 
L 197.883312 142.8708 
L 199.551583 143.541041 
L 201.497898 144.608941 
L 203.722259 146.114624 
L 206.780755 148.492785 
L 210.117296 151.086105 
L 214.009927 153.200793 
L 217.346467 154.754455 
L 220.126918 155.810142 
L 222.629324 156.535616 
L 224.853684 156.974482 
L 227.078045 157.393025 
L 230.414586 158.575499 
L 233.473082 159.509484 
L 235.697442 159.974528 
L 237.643758 160.180163 
L 239.312028 160.166907 
L 240.980299 159.953456 
L 242.648569 159.518572 
L 243.76075 159.095026 
L 244.31684 159.34664 
L 245.98511 160.172055 
L 247.653381 160.744461 
L 249.321651 161.060646 
L 250.155786 161.182242 
L 250.711876 161.574337 
L 252.380147 162.78945 
L 254.048417 163.730918 
L 255.716688 164.410893 
L 257.384958 164.839545 
L 259.053229 165.024775 
L 260.721499 164.97075 
L 262.111724 164.904137 
L 263.779995 164.991218 
L 265.448265 164.860034 
L 267.116536 164.510334 
L 268.784806 163.941617 
L 270.175032 163.388388 
L 271.843302 163.974507 
L 273.511573 164.301656 
L 275.179843 164.372917 
L 276.848113 164.19096 
L 278.516384 163.759743 
L 279.906609 163.170643 
L 282.13097 161.526336 
L 284.911421 159.77054 
L 289.638187 157.052329 
L 290.194277 156.914684 
L 292.696683 156.519442 
L 294.642998 155.977196 
L 296.311269 155.282882 
L 297.979539 154.332055 
L 299.369764 153.661335 
L 301.594125 152.835586 
L 309.379387 150.029898 
L 311.047658 149.050746 
L 314.384199 146.651158 
L 315.774424 145.336584 
L 316.052469 145.041617 
L 316.608559 145.070567 
L 323.003596 146.286639 
L 324.949911 146.371698 
L 326.618182 146.227675 
L 328.008407 145.914179 
L 329.398633 145.394422 
L 330.788858 144.633932 
L 332.457128 143.433325 
L 333.847354 142.145909 
L 335.237579 140.699149 
L 335.515624 140.757175 
L 336.90585 141.983835 
L 338.296075 142.909651 
L 339.6863 143.557007 
L 341.076526 143.956021 
L 342.466751 144.133226 
L 343.578931 144.101628 
L 345.525247 143.693068 
L 348.027653 142.908171 
L 355.53487 140.217077 
L 358.31532 142.274988 
L 361.095771 144.053002 
L 363.598177 145.40476 
L 366.100582 146.516472 
L 368.602988 147.415505 
L 371.105394 148.053731 
L 373.329754 148.394636 
L 376.110205 148.770848 
L 378.056521 149.233037 
L 380.002836 149.47698 
L 389.178324 150.16771 
L 393.349 150.631316 
L 394.739225 150.783406 
L 397.241631 150.099367 
L 400.022082 149.089055 
L 404.470803 147.171332 
L 409.753659 144.751548 
L 413.64629 144.021425 
L 414.480425 143.790008 
L 416.426741 142.803644 
L 418.373056 142.042028 
L 421.153507 141.234871 
L 424.768093 140.438177 
L 426.436364 140.11872 
L 426.436364 140.11872 
" clip-path="url(#p396e9ba9a4)" style="fill: none; stroke: #ff00ff; stroke-width: 3; stroke-linecap: square"/>
   </g>
   <g id="patch_3">
    <path d="M 7.2 331.2 
L 7.2 7.2 
" style="fill: none; stroke: #000000; stroke-width: 0.8; stroke-linejoin: miter; stroke-linecap: square"/>
   </g>
   <g id="patch_4">
    <path d="M 446.4 331.2 
L 446.4 7.2 
" style="fill: none; stroke: #000000; stroke-width: 0.8; stroke-linejoin: miter; stroke-linecap: square"/>
   </g>
   <g id="patch_5">
    <path d="M 7.2 331.2 
L 446.4 331.2 
" style="fill: none; stroke: #000000; stroke-width: 0.8; stroke-linejoin: miter; stroke-linecap: square"/>
   </g>
   <g id="patch_6">
    <path d="M 7.2 7.2 
L 446.4 7.2 
" style="fill: none; stroke: #000000; stroke-width: 0.8; stroke-linejoin: miter; stroke-linecap: square"/>
   </g>
  </g>
 </g>
 <defs>
  <clipPath id="p396e9ba9a4">
   <rect x="7.2" y="7.2" width="439.2" height="324"/>
  </clipPath>
 </defs>
</svg>
