<?xml version="1.0" encoding="utf-8" standalone="no"?>
<!DOCTYPE svg PUBLIC "-//W3C//DTD SVG 1.1//EN"
  "http://www.w3.org/Graphics/SVG/1.1/DTD/svg11.dtd">
<svg xmlns:xlink="http://www.w3.org/1999/xlink" width="453.6pt" height="338.4pt" viewBox="0 0 453.6 338.4" xmlns="http://www.w3.org/2000/svg" version="1.1">
 <metadata>
  <rdf:RDF xmlns:dc="http://purl.org/dc/elements/1.1/" xmlns:cc="http://creativecommons.org/ns#" xmlns:rdf="http://www.w3.org/1999/02/22-rdf-syntax-ns#">
   <cc:Work>
    <dc:type rdf:resource="http://purl.org/dc/dcmitype/StillImage"/>
    <dc:date>2025-05-15T00:31:11.580015</dc:date>
    <dc:format>image/svg+xml</dc:format>
    <dc:creator>
     <cc:Agent>
      <dc:title>Matplotlib v3.10.1, https://matplotlib.org/</dc:title>
     </cc:Agent>
    </dc:creator>
   </cc:Work>
  </rdf:RDF>
 </metadata>
 <defs>
  <style type="text/css">*{stroke-linejoin: round; stroke-linecap: butt}</style>
 </defs>
 <g id="figure_1">
  <g id="patch_1">
   <path d="M 0 338.4 
L 453.6 338.4 
L 453.6 0 
L 0 0 
z
" style="fill: #ffffff"/>
  </g>
  <g id="axes_1">
   <g id="patch_2">
    <path d="M 7.2 331.2 
L 446.4 331.2 
L 446.4 7.2 
L 7.2 7.2 
z
" style="fill: #ffffff"/>
   </g>
   <g id="matplotlib.axis_1"/>
   <g id="matplotlib.axis_2"/>
   <g id="line2d_1">
    <path d="M 27.163636 288.906089 
L 29.026909 289.412416 
L 31.422545 289.817168 
L 37.278545 290.675161 
L 42.602182 292.049602 
L 44.731636 292.874626 
L 47.925818 294.418729 
L 50.055273 295.52242 
L 50.587636 295.074518 
L 51.918545 293.949707 
L 53.249455 293.147212 
L 54.580364 292.623708 
L 55.911273 292.337676 
L 57.508364 292.248686 
L 59.371636 292.407324 
L 62.565818 292.836716 
L 64.695273 292.481554 
L 66.824727 292.372888 
L 68.688 292.484932 
L 70.551273 292.794756 
L 72.414545 293.306403 
L 74.277818 294.026074 
L 76.141091 294.958559 
L 78.270545 296.144702 
L 80.4 296.367423 
L 82.795636 296.373636 
L 85.723636 296.140658 
L 93.176727 295.414414 
L 95.572364 295.286813 
L 101.428364 294.63368 
L 108.082909 294.125717 
L 110.478545 294.062273 
L 115.003636 294.407533 
L 125.118545 295.270139 
L 144.283636 295.89225 
L 150.139636 295.763178 
L 159.189818 295.828727 
L 172.498909 296.104466 
L 180.218182 296.358746 
L 183.412364 296.273603 
L 189.268364 296.011889 
L 195.922909 295.949874 
L 216.152727 296.194854 
L 222.274909 296.385888 
L 227.864727 295.855803 
L 233.454545 295.544313 
L 238.778182 295.471169 
L 243.303273 295.407042 
L 255.547636 294.849438 
L 260.338909 294.89409 
L 264.065455 294.93642 
L 277.906909 295.106837 
L 280.302545 295.476155 
L 283.230545 295.677927 
L 292.813091 296.112783 
L 295.208727 296.374174 
L 298.402909 296.272883 
L 308.784 295.711361 
L 311.978182 295.932827 
L 315.704727 296.048915 
L 332.740364 296.023843 
L 343.387636 295.326981 
L 345.250909 295.450823 
L 348.977455 295.659978 
L 354.833455 295.722443 
L 360.689455 295.838082 
L 363.351273 295.946402 
L 366.013091 295.828246 
L 369.473455 295.436012 
L 377.458909 294.34575 
L 380.120727 294.771224 
L 383.314909 295.038446 
L 388.638545 295.201722 
L 393.163636 295.415832 
L 393.962182 295.532993 
L 396.357818 296.164201 
L 398.753455 296.544621 
L 401.149091 296.673998 
L 403.278545 296.576525 
L 405.408 296.275347 
L 407.537455 295.765581 
L 409.666909 295.041143 
L 410.731636 294.647729 
L 411.264 294.725607 
L 413.925818 295.276821 
L 416.321455 295.565966 
L 418.717091 295.638079 
L 420.846545 295.49812 
L 422.976 295.139897 
L 424.839273 294.624011 
L 426.436364 294.012029 
L 426.436364 294.012029 
" clip-path="url(#pdab7bd83ff)" style="fill: none; stroke: #ffa500; stroke-width: 3; stroke-linecap: square"/>
   </g>
   <g id="line2d_2">
    <path d="M 27.163636 206.835541 
L 28.494545 206.338461 
L 30.357818 205.91072 
L 35.149091 204.945678 
L 37.012364 204.270604 
L 38.609455 203.45687 
L 39.408 203.00613 
L 41.005091 202.788652 
L 43.134545 202.725397 
L 47.393455 202.925793 
L 63.896727 203.94195 
L 86.522182 201.817456 
L 96.637091 201.362143 
L 113.406545 200.869567 
L 145.348364 200.268975 
L 148.542545 199.88839 
L 151.204364 199.340599 
L 153.067636 198.931327 
L 156.794182 198.789806 
L 161.319273 198.853474 
L 171.434182 199.086244 
L 173.297455 199.099762 
L 178.621091 200.808567 
L 182.613818 201.86556 
L 186.074182 202.562843 
L 189.268364 202.991585 
L 192.196364 203.173977 
L 193.527273 203.103138 
L 202.843636 198.332544 
L 205.771636 197.138647 
L 208.167273 196.381568 
L 210.296727 195.916467 
L 212.426182 195.682521 
L 213.224727 195.550682 
L 216.418909 194.877829 
L 219.879273 194.394416 
L 223.605818 194.10451 
L 228.130909 193.988006 
L 235.850182 194.065517 
L 249.957818 194.163113 
L 259.008 194.208803 
L 273.115636 194.331828 
L 302.395636 195.006042 
L 306.920727 195.434731 
L 311.712 195.906767 
L 313.841455 195.660294 
L 316.503273 195.595354 
L 320.229818 195.763429 
L 325.287273 196.012227 
L 327.416727 195.246607 
L 329.013818 194.903426 
L 330.877091 194.749492 
L 335.934545 194.499429 
L 336.999273 194.260164 
L 338.330182 193.582632 
L 339.927273 193.03018 
L 341.790545 192.649779 
L 344.452364 192.373013 
L 347.380364 192.060564 
L 348.445091 191.928128 
L 353.236364 191.790882 
L 366.279273 191.74025 
L 369.207273 191.859984 
L 373.2 191.779005 
L 377.458909 191.702679 
L 383.314909 192.283327 
L 385.444364 192.227401 
L 387.84 192.068482 
L 390.768 191.935186 
L 393.429818 191.601248 
L 396.091636 191.233058 
L 399.552 191.447806 
L 403.810909 191.885019 
L 407.271273 192.665562 
L 409.666909 192.960824 
L 412.328727 193.026624 
L 415.256727 193.04871 
L 421.112727 194.625659 
L 422.709818 195.339664 
L 424.306909 196.291372 
L 425.904 197.510164 
L 426.436364 197.976178 
L 426.436364 197.976178 
" clip-path="url(#pdab7bd83ff)" style="fill: none; stroke: #ff0000; stroke-width: 3; stroke-linecap: square"/>
   </g>
   <g id="line2d_3">
    <path d="M 27.163636 57.777419 
L 29.026909 63.377731 
L 30.624 67.60595 
L 32.487273 71.87683 
L 34.084364 74.996809 
L 35.681455 77.631163 
L 37.012364 79.481893 
L 38.343273 81.034799 
L 39.674182 82.308191 
L 41.005091 83.322452 
L 42.602182 84.22667 
L 44.199273 84.846108 
L 45.530182 85.161665 
L 47.127273 85.316617 
L 49.256727 85.272076 
L 52.450909 84.956327 
L 57.508364 84.313679 
L 60.170182 83.329439 
L 61.234909 83.163164 
L 63.364364 83.037461 
L 65.76 83.077103 
L 70.018909 83.341325 
L 76.407273 83.744277 
L 92.644364 84.637926 
L 96.104727 85.027289 
L 111.010909 86.82593 
L 117.665455 87.34212 
L 126.183273 87.788857 
L 128.046545 87.969282 
L 140.024727 89.797365 
L 144.283636 90.544384 
L 160.254545 95.774224 
L 162.916364 96.142256 
L 164.513455 96.570103 
L 165.844364 97.145194 
L 167.175273 97.99109 
L 168.24 98.913251 
L 169.304727 100.098879 
L 170.369455 101.589881 
L 171.434182 103.432693 
L 172.498909 105.668064 
L 173.829818 109.062833 
L 175.160727 113.148565 
L 177.556364 120.945378 
L 178.887273 124.553422 
L 180.484364 129.679451 
L 182.347636 136.524292 
L 184.477091 145.212297 
L 187.405091 158.27594 
L 190.599273 173.63102 
L 193.527273 188.59276 
L 196.189091 204.623318 
L 204.174545 251.092607 
L 206.037818 264.181163 
L 206.570182 267.621605 
L 206.836364 268.52319 
L 207.901091 267.861301 
L 208.699636 267.610281 
L 209.498182 267.595937 
L 210.562909 267.86583 
L 211.627636 268.318036 
L 212.692364 269.094866 
L 213.757091 270.204629 
L 215.620364 272.620807 
L 216.685091 273.870231 
L 217.483636 274.475689 
L 218.016 274.626867 
L 218.548364 274.50891 
L 219.080727 274.061418 
L 219.613091 273.239104 
L 220.145455 271.974578 
L 220.677818 270.225389 
L 221.476364 266.606782 
L 222.274909 261.694206 
L 223.605818 252.422051 
L 224.404364 248.481839 
L 225.202909 245.643836 
L 226.001455 243.724408 
L 226.8 242.507824 
L 227.332364 241.791765 
L 227.864727 241.470915 
L 228.397091 241.481107 
L 228.929455 241.756091 
L 229.728 242.513486 
L 231.591273 244.551252 
L 232.123636 244.840773 
L 232.656 244.842849 
L 233.188364 244.472552 
L 233.720727 243.643439 
L 234.253091 242.371561 
L 234.519273 242.878499 
L 235.317818 246.417274 
L 236.116364 251.043914 
L 237.181091 258.607641 
L 238.512 269.693346 
L 243.835636 316.472727 
L 244.101818 315.289739 
L 244.900364 290.852382 
L 245.698909 272.131795 
L 246.497455 258.273581 
L 247.296 248.481084 
L 247.828364 243.879171 
L 248.360727 240.608779 
L 248.893091 238.519486 
L 249.425455 237.461817 
L 249.691636 237.273078 
L 249.957818 237.295164 
L 250.224 237.519568 
L 250.756364 238.483627 
L 251.288727 240.084286 
L 252.087273 243.453383 
L 252.619636 246.238353 
L 252.885818 246.770774 
L 255.281455 218.481155 
L 256.08 212.502417 
L 256.878545 207.901444 
L 257.677091 204.425336 
L 258.475636 201.892141 
L 259.274182 200.108405 
L 260.338909 198.50586 
L 260.871273 197.998545 
L 261.403636 197.94721 
L 261.936 198.289566 
L 262.468364 198.955616 
L 263.533091 200.875615 
L 264.065455 201.884398 
L 264.597818 219.456722 
L 265.396364 245.396029 
L 265.928727 258.07239 
L 266.461091 266.735307 
L 266.727273 269.431758 
L 266.993455 270.984856 
L 267.259636 271.381953 
L 267.525818 270.564735 
L 267.792 268.462607 
L 268.324364 260.382691 
L 268.856727 246.811162 
L 269.389091 227.427175 
L 270.187636 186.908683 
L 270.986182 131.787995 
L 271.252364 110.212612 
L 271.518545 113.324462 
L 272.583273 145.896465 
L 273.381818 164.916391 
L 274.180364 179.582949 
L 274.978909 190.206823 
L 275.511273 195.213952 
L 276.043636 198.687427 
L 276.576 200.740098 
L 276.842182 201.169287 
L 277.374545 201.476162 
L 277.640727 201.492016 
L 278.173091 201.186457 
L 278.705455 200.480783 
L 278.971636 200.533434 
L 279.237818 200.852967 
L 279.770182 202.234497 
L 280.302545 204.412687 
L 281.633455 210.652065 
L 281.899636 211.423803 
L 282.165818 211.802211 
L 282.432 211.6701 
L 282.698182 210.87553 
L 282.964364 209.295438 
L 283.230545 206.772057 
L 283.762909 198.145947 
L 284.295273 183.552792 
L 284.827636 161.32364 
L 285.093818 146.77937 
L 285.36 140.588307 
L 285.892364 155.260527 
L 286.158545 158.435421 
L 286.424727 159.196223 
L 286.690909 157.818827 
L 286.957091 154.592036 
L 287.489455 143.840958 
L 289.086545 104.678715 
L 289.352727 101.569691 
L 289.618909 100.720196 
L 289.885091 102.552439 
L 290.151273 107.623359 
L 290.417455 106.518876 
L 291.216 99.875423 
L 293.345455 79.786126 
L 295.208727 76.789024 
L 296.007273 75.872533 
L 296.539636 75.487331 
L 297.072 75.354079 
L 297.338182 75.397303 
L 297.604364 75.237628 
L 298.669091 71.328934 
L 299.201455 70.07517 
L 299.733818 69.396479 
L 300 69.28361 
L 300.266182 69.314 
L 300.532364 69.495374 
L 301.064727 70.312794 
L 301.597091 71.712626 
L 302.129455 73.691517 
L 302.928 77.660043 
L 303.992727 84.602269 
L 305.323636 95.25426 
L 306.654545 106.921442 
L 307.186909 102.937255 
L 308.251636 92.376996 
L 309.848727 74.407199 
L 311.445818 52.78652 
L 311.978182 48.713991 
L 312.510545 46.694914 
L 312.776727 46.482395 
L 313.042909 48.800245 
L 313.575273 63.203538 
L 314.107636 71.016397 
L 314.373818 72.984895 
L 314.64 73.847399 
L 314.906182 73.829281 
L 315.172364 73.050941 
L 315.704727 69.690143 
L 316.503273 61.799913 
L 318.898909 34.963353 
L 319.697455 28.546762 
L 320.229818 25.420375 
L 320.762182 23.278228 
L 321.294545 22.127151 
L 321.560727 21.927273 
L 322.093091 34.667231 
L 322.891636 53.188893 
L 323.690182 67.314744 
L 324.488727 77.902934 
L 325.287273 85.753347 
L 326.085818 91.426149 
L 327.416727 98.326468 
L 327.949091 99.508146 
L 328.215273 99.739537 
L 328.481455 99.769348 
L 328.747636 99.595716 
L 329.28 98.804156 
L 329.812364 97.541158 
L 330.610909 95.031172 
L 332.474182 88.00666 
L 334.071273 82.274219 
L 335.136 79.079328 
L 336.200727 76.523292 
L 336.999273 75.060591 
L 337.797818 73.991607 
L 339.128727 72.610068 
L 339.927273 71.565048 
L 340.725818 71.0079 
L 341.258182 70.858039 
L 342.056727 70.970154 
L 342.589091 71.231742 
L 343.121455 71.640154 
L 343.653818 72.543056 
L 344.452364 74.64707 
L 345.250909 77.379389 
L 346.581818 82.933282 
L 348.445091 92.051608 
L 351.639273 109.227599 
L 357.761455 142.131591 
L 360.157091 154.949113 
L 361.488 164.524957 
L 362.020364 167.845165 
L 362.286545 167.956717 
L 363.085091 163.973847 
L 363.617455 162.18955 
L 364.149818 161.088473 
L 364.682182 160.601339 
L 364.948364 160.57511 
L 365.214545 160.686645 
L 365.746909 161.299851 
L 366.279273 162.410373 
L 367.077818 164.876187 
L 367.876364 168.141672 
L 368.941091 173.451718 
L 370.804364 184.178638 
L 373.2 197.742047 
L 374.530909 203.900842 
L 375.595636 207.701197 
L 376.394182 209.790306 
L 377.192727 211.370766 
L 377.458909 211.706337 
L 377.725091 210.812485 
L 378.789818 201.097939 
L 379.322182 197.62636 
L 379.854545 195.344176 
L 380.120727 194.664546 
L 380.386909 194.295759 
L 380.653091 194.226868 
L 380.919273 194.438816 
L 381.185455 194.908394 
L 381.717818 196.507165 
L 382.516364 199.962328 
L 383.581091 204.402688 
L 384.113455 205.487535 
L 384.379636 205.531504 
L 384.645818 205.149699 
L 384.912 204.30303 
L 385.178182 202.907148 
L 386.775273 183.479187 
L 387.573818 176.856494 
L 388.372364 172.386122 
L 388.904727 170.518406 
L 389.437091 169.444884 
L 389.703273 169.176878 
L 389.969455 169.069487 
L 390.235636 169.107233 
L 390.768 169.572281 
L 391.300364 170.431213 
L 392.365091 172.799449 
L 394.228364 177.309639 
L 394.760727 179.228505 
L 395.026909 179.592763 
L 395.559273 178.187067 
L 396.091636 175.951512 
L 396.890182 170.975896 
L 397.688727 164.334699 
L 400.350545 139.845817 
L 400.882909 137.028017 
L 401.149091 136.198342 
L 401.415273 135.812385 
L 401.681455 135.915616 
L 401.947636 136.55089 
L 402.213818 137.765784 
L 402.746182 142.115352 
L 403.278545 149.156297 
L 403.810909 159.109969 
L 404.609455 179.62353 
L 404.875636 187.969565 
L 405.141818 190.430095 
L 405.408 190.358562 
L 405.674182 189.950896 
L 406.206545 188.344953 
L 407.005091 184.579132 
L 409.666909 170.390254 
L 410.465455 168.207544 
L 411.530182 164.835035 
L 413.393455 157.727868 
L 414.192 154.987807 
L 414.724364 153.636466 
L 415.256727 152.879263 
L 415.522909 152.832283 
L 415.789091 153.027245 
L 416.055273 153.502476 
L 416.587636 155.53609 
L 417.12 159.305879 
L 417.652364 165.276295 
L 418.184727 173.927704 
L 419.249455 195.445721 
L 419.781818 199.535781 
L 420.048 200.636867 
L 420.314182 201.113792 
L 420.580364 200.977151 
L 420.846545 200.239384 
L 421.378909 197.042974 
L 421.911273 191.725757 
L 422.709818 180.377142 
L 423.774545 160.831607 
L 425.637818 125.846617 
L 426.170182 118.797017 
L 426.436364 116.237013 
L 426.436364 116.237013 
" clip-path="url(#pdab7bd83ff)" style="fill: none; stroke: #0000ff; stroke-width: 3; stroke-linecap: square"/>
   </g>
   <g id="patch_3">
    <path d="M 7.2 331.2 
L 7.2 7.2 
" style="fill: none; stroke: #000000; stroke-width: 0.8; stroke-linejoin: miter; stroke-linecap: square"/>
   </g>
   <g id="patch_4">
    <path d="M 446.4 331.2 
L 446.4 7.2 
" style="fill: none; stroke: #000000; stroke-width: 0.8; stroke-linejoin: miter; stroke-linecap: square"/>
   </g>
   <g id="patch_5">
    <path d="M 7.2 331.2 
L 446.4 331.2 
" style="fill: none; stroke: #000000; stroke-width: 0.8; stroke-linejoin: miter; stroke-linecap: square"/>
   </g>
   <g id="patch_6">
    <path d="M 7.2 7.2 
L 446.4 7.2 
" style="fill: none; stroke: #000000; stroke-width: 0.8; stroke-linejoin: miter; stroke-linecap: square"/>
   </g>
  </g>
 </g>
 <defs>
  <clipPath id="pdab7bd83ff">
   <rect x="7.2" y="7.2" width="439.2" height="324"/>
  </clipPath>
 </defs>
</svg>
