<?xml version="1.0" encoding="utf-8" standalone="no"?>
<!DOCTYPE svg PUBLIC "-//W3C//DTD SVG 1.1//EN"
  "http://www.w3.org/Graphics/SVG/1.1/DTD/svg11.dtd">
<svg xmlns:xlink="http://www.w3.org/1999/xlink" width="453.6pt" height="338.4pt" viewBox="0 0 453.6 338.4" xmlns="http://www.w3.org/2000/svg" version="1.1">
 <metadata>
  <rdf:RDF xmlns:dc="http://purl.org/dc/elements/1.1/" xmlns:cc="http://creativecommons.org/ns#" xmlns:rdf="http://www.w3.org/1999/02/22-rdf-syntax-ns#">
   <cc:Work>
    <dc:type rdf:resource="http://purl.org/dc/dcmitype/StillImage"/>
    <dc:date>2025-05-15T02:14:50.368960</dc:date>
    <dc:format>image/svg+xml</dc:format>
    <dc:creator>
     <cc:Agent>
      <dc:title>Matplotlib v3.10.1, https://matplotlib.org/</dc:title>
     </cc:Agent>
    </dc:creator>
   </cc:Work>
  </rdf:RDF>
 </metadata>
 <defs>
  <style type="text/css">*{stroke-linejoin: round; stroke-linecap: butt}</style>
 </defs>
 <g id="figure_1">
  <g id="patch_1">
   <path d="M 0 338.4 
L 453.6 338.4 
L 453.6 0 
L 0 0 
z
" style="fill: #ffffff"/>
  </g>
  <g id="axes_1">
   <g id="patch_2">
    <path d="M 7.2 331.2 
L 446.4 331.2 
L 446.4 7.2 
L 7.2 7.2 
z
" style="fill: #ffffff"/>
   </g>
   <g id="matplotlib.axis_1"/>
   <g id="matplotlib.axis_2"/>
   <g id="line2d_1">
    <path d="M 27.163636 292.309338 
L 28.228364 292.035607 
L 29.559273 291.468147 
L 31.688727 290.278889 
L 34.350545 288.819249 
L 35.947636 288.218438 
L 37.278545 287.99575 
L 38.077091 287.922762 
L 44.731636 286.147717 
L 50.321455 284.941662 
L 52.717091 284.866537 
L 55.645091 285.023453 
L 59.371636 285.470938 
L 67.090909 286.470603 
L 70.285091 286.705133 
L 74.011636 287.203802 
L 79.069091 288.126415 
L 85.723636 289.329448 
L 89.450182 289.662848 
L 92.910545 289.741979 
L 96.104727 289.581828 
L 99.032727 289.207192 
L 99.831273 289.125472 
L 103.824 289.722272 
L 118.464 291.462944 
L 122.190545 291.481112 
L 127.514182 291.260676 
L 134.701091 290.985367 
L 142.154182 290.907092 
L 146.413091 291.082141 
L 149.341091 291.199119 
L 155.729455 291.33823 
L 162.650182 291.711286 
L 166.110545 291.849614 
L 216.685091 292.113318 
L 233.454545 292.445125 
L 240.641455 292.890607 
L 251.554909 293.717534 
L 256.612364 293.7477 
L 261.137455 293.557949 
L 268.590545 292.94181 
L 277.906909 291.934891 
L 285.36 289.495752 
L 288.021818 288.971201 
L 290.417455 288.721125 
L 292.546909 288.704732 
L 294.942545 288.92918 
L 301.330909 289.572308 
L 305.323636 289.762638 
L 308.784 289.716855 
L 312.776727 289.574689 
L 318.366545 290.404293 
L 330.344727 291.878143 
L 336.466909 292.288694 
L 341.258182 292.700279 
L 344.452364 293.183689 
L 348.178909 293.81548 
L 373.732364 294.180971 
L 379.322182 293.918077 
L 384.113455 293.471845 
L 389.969455 292.859368 
L 396.357818 292.720932 
L 405.674182 292.769269 
L 410.199273 292.917878 
L 423.242182 293.675234 
L 426.170182 293.532372 
L 426.436364 293.50803 
L 426.436364 293.50803 
" clip-path="url(#p2695a0ac63)" style="fill: none; stroke: #ffa500; stroke-width: 3; stroke-linecap: square"/>
   </g>
   <g id="line2d_2">
    <path d="M 27.163636 278.998213 
L 29.293091 280.198182 
L 32.487273 282.004679 
L 34.350545 282.801776 
L 38.077091 284.185759 
L 43.933091 286.79277 
L 47.393455 286.459525 
L 51.918545 286.267705 
L 59.105455 286.21814 
L 74.277818 286.365674 
L 83.860364 286.451355 
L 99.831273 286.473303 
L 111.809455 286.683943 
L 116.068364 287.00939 
L 118.996364 287.236276 
L 125.118545 287.162239 
L 133.370182 287.093371 
L 134.967273 287.067931 
L 139.758545 285.729671 
L 144.549818 284.624271 
L 148.010182 284.014858 
L 151.204364 283.661834 
L 152.269091 283.665009 
L 157.060364 284.766705 
L 161.851636 285.796627 
L 165.045818 286.252787 
L 167.707636 286.41371 
L 169.837091 286.328367 
L 179.419636 285.616635 
L 191.397818 284.823903 
L 198.850909 284.742969 
L 202.577455 284.843832 
L 209.232 285.41634 
L 217.217455 285.874443 
L 228.397091 286.047177 
L 229.195636 285.937689 
L 242.238545 283.315692 
L 244.634182 283.244984 
L 247.828364 283.38803 
L 254.749091 283.994304 
L 260.072727 284.922912 
L 264.864 285.468682 
L 269.122909 285.737071 
L 271.518545 285.72072 
L 281.101091 284.657281 
L 289.086545 283.985503 
L 292.546909 283.862858 
L 323.424 283.158135 
L 326.352 282.912047 
L 330.078545 282.382892 
L 333.006545 282.195066 
L 335.934545 282.214843 
L 338.862545 282.4428 
L 342.056727 282.718566 
L 344.452364 282.858636 
L 347.380364 283.261535 
L 351.106909 284.011296 
L 355.632 284.942454 
L 363.085091 285.196202 
L 366.013091 285.037267 
L 368.674909 284.657602 
L 369.207273 284.598332 
L 375.063273 285.157245 
L 387.307636 286.422835 
L 393.429818 286.522425 
L 401.415273 286.409775 
L 407.005091 286.443284 
L 412.861091 286.419923 
L 414.724364 286.47781 
L 418.983273 286.862082 
L 423.508364 287.220142 
L 426.436364 287.229993 
L 426.436364 287.229993 
" clip-path="url(#p2695a0ac63)" style="fill: none; stroke: #ff0000; stroke-width: 3; stroke-linecap: square"/>
   </g>
   <g id="line2d_3">
    <path d="M 27.163636 26.053454 
L 27.962182 37.635383 
L 28.494545 42.714396 
L 29.026909 45.865731 
L 29.293091 46.770213 
L 29.559273 47.262982 
L 29.825455 47.365423 
L 30.091636 47.102448 
L 30.357818 46.505306 
L 30.890182 44.424431 
L 31.422545 41.364705 
L 31.688727 41.033734 
L 32.487273 47.836493 
L 33.019636 52.889014 
L 33.552 61.430529 
L 34.084364 76.33565 
L 34.616727 100.73784 
L 35.149091 137.925318 
L 35.681455 188.312369 
L 35.947636 191.822264 
L 36.213818 193.35627 
L 36.48 193.339521 
L 36.746182 192.205719 
L 37.810909 185.665146 
L 38.077091 186.01398 
L 38.343273 188.207681 
L 38.609455 192.808128 
L 38.875636 200.430633 
L 39.408 222.42081 
L 39.674182 223.553488 
L 39.940364 223.070769 
L 40.472727 219.077357 
L 41.005091 214.27489 
L 41.271273 212.857686 
L 41.537455 212.825611 
L 41.803636 214.747075 
L 42.069818 219.216192 
L 42.336 226.850671 
L 42.602182 238.284995 
L 42.868364 244.264975 
L 43.400727 246.368357 
L 44.465455 249.953415 
L 44.997818 253.316017 
L 45.530182 258.921477 
L 46.062545 267.679694 
L 46.328727 273.523402 
L 46.861091 265.648442 
L 47.659636 253.835762 
L 47.925818 251.315883 
L 48.192 249.868996 
L 48.458182 249.728888 
L 48.724364 251.08242 
L 48.990545 254.170393 
L 49.256727 259.150148 
L 49.789091 275.577636 
L 50.055273 287.326325 
L 50.321455 291.230534 
L 50.587636 291.657561 
L 50.853818 291.507398 
L 51.12 290.802867 
L 51.652364 287.825801 
L 52.184727 282.955514 
L 52.983273 272.615887 
L 54.048 254.486674 
L 54.846545 241.161846 
L 55.645091 231.341005 
L 56.443636 223.851901 
L 57.242182 218.308998 
L 58.040727 214.354359 
L 58.839273 211.677773 
L 59.371636 210.472648 
L 59.904 209.666947 
L 60.436364 209.217734 
L 62.565818 208.46565 
L 66.026182 206.975368 
L 69.486545 205.526887 
L 72.148364 204.625916 
L 74.810182 203.976755 
L 77.205818 203.614359 
L 80.133818 203.247485 
L 86.256 202.138429 
L 91.579636 201.273519 
L 95.306182 200.89979 
L 126.449455 198.341296 
L 142.420364 197.560164 
L 145.614545 197.233512 
L 155.463273 195.896101 
L 166.376727 194.215272 
L 180.484364 192.066094 
L 194.858182 191.423157 
L 207.901091 191.076877 
L 219.879273 190.9706 
L 239.576727 191.057091 
L 290.683636 191.466565 
L 303.992727 192.079016 
L 319.697455 192.686691 
L 340.193455 193.479462 
L 343.387636 193.737978 
L 344.186182 194.092721 
L 344.718545 194.557251 
L 345.517091 195.596258 
L 346.315636 197.010907 
L 347.114182 198.849392 
L 347.912727 201.152082 
L 348.977455 204.999005 
L 350.042182 209.776094 
L 351.639273 217.926649 
L 352.437818 224.72127 
L 353.236364 234.339775 
L 354.034909 247.352628 
L 354.833455 264.240652 
L 355.632 283.173815 
L 356.430545 294.859631 
L 357.229091 303.074012 
L 358.027636 308.576064 
L 358.826182 312.080054 
L 359.358545 313.623003 
L 359.890909 314.722967 
L 360.689455 315.705801 
L 361.488 316.472727 
L 362.286545 316.231766 
L 363.085091 315.762291 
L 363.883636 315.07244 
L 364.948364 313.807474 
L 366.013091 312.143087 
L 367.077818 310.074012 
L 368.408727 306.901464 
L 370.804364 300.337906 
L 371.602909 296.483646 
L 372.401455 291.21729 
L 373.2 284.402717 
L 373.998545 275.91562 
L 375.063273 261.741358 
L 376.128 243.969599 
L 377.192727 222.028734 
L 378.257455 218.744797 
L 379.854545 212.852261 
L 382.250182 203.907821 
L 383.314909 200.608083 
L 384.113455 198.635715 
L 384.645818 197.619847 
L 384.912 197.421654 
L 385.976727 199.287746 
L 387.041455 200.642871 
L 388.106182 201.560757 
L 389.170909 202.12614 
L 390.235636 202.42184 
L 391.566545 202.545032 
L 393.163636 202.515827 
L 393.696 202.331039 
L 394.228364 201.919967 
L 394.760727 201.195007 
L 395.293091 200.075417 
L 395.825455 198.470712 
L 396.357818 196.299826 
L 397.156364 191.784123 
L 397.954909 185.492963 
L 398.487273 180.167722 
L 398.753455 176.008825 
L 400.084364 121.584637 
L 401.149091 87.506675 
L 401.947636 68.482886 
L 402.48 59.216402 
L 403.012364 52.852953 
L 403.544727 49.556745 
L 403.810909 49.125721 
L 404.077091 49.52467 
L 404.343273 50.775905 
L 404.875636 54.395746 
L 405.940364 58.328353 
L 406.738909 60.589724 
L 407.537455 62.187257 
L 408.069818 62.847584 
L 408.602182 63.159717 
L 409.134545 63.101465 
L 409.666909 62.649058 
L 410.997818 61.181599 
L 411.530182 61.126858 
L 412.062545 61.283408 
L 412.861091 61.812729 
L 415.256727 63.802804 
L 415.789091 63.879402 
L 416.321455 63.625362 
L 416.853818 62.921619 
L 417.386182 61.631127 
L 419.515636 53.869304 
L 420.580364 51.507879 
L 422.443636 47.770429 
L 422.709818 47.967358 
L 423.242182 53.08338 
L 423.774545 56.109116 
L 424.040727 56.701957 
L 424.306909 56.603167 
L 424.573091 55.747685 
L 424.839273 54.054101 
L 425.371636 47.881981 
L 425.904 37.424111 
L 426.436364 21.927273 
L 426.436364 21.927273 
" clip-path="url(#p2695a0ac63)" style="fill: none; stroke: #0000ff; stroke-width: 3; stroke-linecap: square"/>
   </g>
   <g id="patch_3">
    <path d="M 7.2 331.2 
L 7.2 7.2 
" style="fill: none; stroke: #000000; stroke-width: 0.8; stroke-linejoin: miter; stroke-linecap: square"/>
   </g>
   <g id="patch_4">
    <path d="M 446.4 331.2 
L 446.4 7.2 
" style="fill: none; stroke: #000000; stroke-width: 0.8; stroke-linejoin: miter; stroke-linecap: square"/>
   </g>
   <g id="patch_5">
    <path d="M 7.2 331.2 
L 446.4 331.2 
" style="fill: none; stroke: #000000; stroke-width: 0.8; stroke-linejoin: miter; stroke-linecap: square"/>
   </g>
   <g id="patch_6">
    <path d="M 7.2 7.2 
L 446.4 7.2 
" style="fill: none; stroke: #000000; stroke-width: 0.8; stroke-linejoin: miter; stroke-linecap: square"/>
   </g>
  </g>
 </g>
 <defs>
  <clipPath id="p2695a0ac63">
   <rect x="7.2" y="7.2" width="439.2" height="324"/>
  </clipPath>
 </defs>
</svg>
