<?xml version="1.0" encoding="utf-8" standalone="no"?>
<!DOCTYPE svg PUBLIC "-//W3C//DTD SVG 1.1//EN"
  "http://www.w3.org/Graphics/SVG/1.1/DTD/svg11.dtd">
<svg xmlns:xlink="http://www.w3.org/1999/xlink" width="453.6pt" height="338.4pt" viewBox="0 0 453.6 338.4" xmlns="http://www.w3.org/2000/svg" version="1.1">
 <metadata>
  <rdf:RDF xmlns:dc="http://purl.org/dc/elements/1.1/" xmlns:cc="http://creativecommons.org/ns#" xmlns:rdf="http://www.w3.org/1999/02/22-rdf-syntax-ns#">
   <cc:Work>
    <dc:type rdf:resource="http://purl.org/dc/dcmitype/StillImage"/>
    <dc:date>2025-05-15T17:27:51.432336</dc:date>
    <dc:format>image/svg+xml</dc:format>
    <dc:creator>
     <cc:Agent>
      <dc:title>Matplotlib v3.10.1, https://matplotlib.org/</dc:title>
     </cc:Agent>
    </dc:creator>
   </cc:Work>
  </rdf:RDF>
 </metadata>
 <defs>
  <style type="text/css">*{stroke-linejoin: round; stroke-linecap: butt}</style>
 </defs>
 <g id="figure_1">
  <g id="patch_1">
   <path d="M 0 338.4 
L 453.6 338.4 
L 453.6 0 
L 0 0 
z
" style="fill: #ffffff"/>
  </g>
  <g id="axes_1">
   <g id="patch_2">
    <path d="M 7.2 331.2 
L 446.4 331.2 
L 446.4 7.2 
L 7.2 7.2 
z
" style="fill: #ffffff"/>
   </g>
   <g id="matplotlib.axis_1"/>
   <g id="matplotlib.axis_2"/>
   <g id="line2d_1">
    <path d="M 27.163636 21.927273 
L 27.997772 43.396237 
L 28.831907 70.754855 
L 29.944087 115.541073 
L 32.168448 211.290406 
L 33.002583 236.77104 
L 33.558673 247.173796 
L 33.836718 250.068465 
L 34.114763 251.33771 
L 34.392808 250.953252 
L 34.670853 248.917526 
L 34.948898 245.265057 
L 35.504989 233.397763 
L 36.061079 216.200258 
L 36.895214 183.126067 
L 39.39762 77.194488 
L 40.231755 53.111579 
L 40.787845 42.204173 
L 41.343935 35.680367 
L 41.62198 34.080867 
L 41.900025 33.583602 
L 42.17807 34.176471 
L 42.456115 35.841998 
L 43.012206 42.296949 
L 43.568296 52.716594 
L 44.402431 75.086764 
L 45.236566 104.266767 
L 46.626792 162.678423 
L 48.573107 245.346481 
L 49.407242 273.997324 
L 50.241378 295.805614 
L 50.797468 306.056283 
L 51.353558 312.777739 
L 51.631603 314.837445 
L 51.909648 316.058751 
L 52.187693 316.472727 
L 52.465738 316.116569 
L 52.743783 315.032974 
L 53.299873 310.875029 
L 53.855964 304.410612 
L 54.690099 291.354869 
L 56.080324 264.27114 
L 58.304685 219.85854 
L 59.416865 201.475571 
L 60.529045 186.992918 
L 61.363181 178.84522 
L 62.197316 172.96511 
L 62.753406 170.227398 
L 63.309496 168.354599 
L 63.865586 167.258061 
L 64.421676 166.832635 
L 64.699721 166.834913 
L 65.255812 167.189284 
L 65.811902 167.899125 
L 66.924082 169.853938 
L 68.036262 171.730115 
L 68.870398 172.650843 
L 69.426488 172.929759 
L 69.982578 172.912005 
L 70.538668 172.594124 
L 71.094758 171.98735 
L 71.928893 170.5877 
L 72.763029 168.695301 
L 73.875209 165.611074 
L 76.09957 158.528059 
L 78.045885 152.579722 
L 79.158065 149.743736 
L 80.270246 147.506353 
L 81.104381 146.260557 
L 81.938516 145.377772 
L 82.772651 144.819193 
L 83.606787 144.517887 
L 84.997012 144.336224 
L 86.387237 144.123728 
L 87.221372 143.793238 
L 88.055508 143.237369 
L 89.167688 142.143187 
L 92.782274 138.058144 
L 93.616409 137.646348 
L 94.450544 137.552119 
L 95.28468 137.72357 
L 97.50904 138.469115 
L 98.06513 138.439224 
L 98.621221 138.218911 
L 99.177311 137.767601 
L 99.733401 137.056817 
L 100.567536 135.478568 
L 101.401671 133.312004 
L 102.513852 129.702349 
L 105.294302 120.083357 
L 106.128438 117.954069 
L 106.962573 116.491534 
L 107.518663 115.936529 
L 108.074753 115.735894 
L 108.630843 115.892812 
L 109.186933 116.399544 
L 109.743024 117.239436 
L 110.577159 119.06514 
L 111.411294 121.4649 
L 112.801519 126.362419 
L 116.972195 142.055243 
L 118.084376 145.260526 
L 118.918511 147.173939 
L 119.752646 148.630897 
L 120.586781 149.618516 
L 121.142872 150.009494 
L 121.698962 150.177488 
L 122.255052 150.109536 
L 122.811142 149.790281 
L 123.367232 149.206366 
L 123.923322 148.353473 
L 124.757458 146.60389 
L 126.147683 142.881034 
L 127.259863 140.021088 
L 128.093998 138.508904 
L 128.650089 137.948832 
L 129.206179 137.780956 
L 129.762269 137.986736 
L 130.318359 138.51024 
L 131.152494 139.706899 
L 133.09881 142.785312 
L 133.932945 143.639384 
L 134.489035 143.956323 
L 135.045125 144.062964 
L 135.601215 143.973762 
L 136.435351 143.562752 
L 137.547531 142.927618 
L 138.103621 142.856917 
L 138.381666 142.953778 
L 138.659711 143.168514 
L 139.215801 144.042342 
L 139.771892 145.651465 
L 140.327982 148.145611 
L 140.884072 151.637352 
L 141.718207 158.879995 
L 142.552342 168.549695 
L 143.664523 184.990185 
L 144.776703 205.006709 
L 146.444973 240.032217 
L 148.391289 281.099742 
L 149.225424 294.421302 
L 149.781514 300.428989 
L 150.059559 302.356228 
L 150.337604 303.481754 
L 150.61565 303.752304 
L 150.893695 303.124025 
L 151.17174 301.563922 
L 151.72783 295.575914 
L 152.28392 285.772627 
L 152.84001 272.344877 
L 153.674145 246.295843 
L 154.786326 203.718766 
L 157.566776 93.349895 
L 158.678957 60.076954 
L 159.513092 41.963632 
L 160.069182 33.531675 
L 160.625272 28.198126 
L 160.903317 26.735001 
L 161.181362 26.094212 
L 161.459407 26.288326 
L 161.737453 27.327282 
L 162.015498 29.21866 
L 162.571588 35.567166 
L 163.127678 45.299634 
L 163.961813 65.902153 
L 164.795948 92.726309 
L 166.186174 146.0459 
L 167.854444 208.91818 
L 168.688579 233.408368 
L 169.24467 245.692053 
L 169.80076 254.313607 
L 170.35685 259.128838 
L 170.634895 260.116967 
L 170.91294 260.185351 
L 171.190985 259.367101 
L 171.46903 257.703774 
L 172.02512 252.048455 
L 172.58121 243.693092 
L 173.415346 227.30877 
L 175.083616 187.968635 
L 176.473841 157.12507 
L 177.307977 142.297984 
L 178.142112 131.136093 
L 178.698202 125.839701 
L 179.254292 122.206242 
L 179.810382 120.105589 
L 180.088427 119.573247 
L 180.366473 119.350067 
L 180.644518 119.406745 
L 180.922563 119.712136 
L 181.478653 120.944892 
L 182.312788 123.887362 
L 185.371284 136.309465 
L 186.205419 138.635106 
L 187.039554 140.348513 
L 187.87369 141.515831 
L 188.707825 142.236435 
L 189.54196 142.624624 
L 190.65414 142.83661 
L 192.322411 143.090074 
L 193.156546 143.422056 
L 193.990681 143.984171 
L 195.102861 145.096499 
L 197.883312 148.219219 
L 198.439402 148.51534 
L 198.995493 148.591422 
L 199.551583 148.417811 
L 200.107673 147.97797 
L 200.663763 147.268836 
L 201.497898 145.724562 
L 202.332033 143.68208 
L 203.722259 139.576533 
L 205.390529 134.788601 
L 206.224664 133.132305 
L 206.780755 132.519011 
L 207.0588 132.393162 
L 207.336845 132.402 
L 207.61489 132.554322 
L 208.17098 133.32041 
L 208.72707 134.739267 
L 209.28316 136.832969 
L 210.117296 141.211187 
L 210.951431 146.908927 
L 212.341656 158.332609 
L 214.287972 174.365075 
L 215.400152 181.45944 
L 216.234287 185.17342 
L 216.790377 186.712037 
L 217.068422 187.155452 
L 217.346467 187.356637 
L 217.624513 187.293477 
L 217.902558 186.942406 
L 218.180603 186.277067 
L 218.736693 183.899893 
L 219.292783 179.96509 
L 219.848873 174.332316 
L 220.683008 162.684236 
L 221.795189 142.429371 
L 223.463459 111.554422 
L 224.019549 104.330987 
L 224.575639 99.847502 
L 224.853684 98.772882 
L 225.13173 98.512505 
L 225.409775 99.067824 
L 225.68782 100.417787 
L 226.24391 105.315267 
L 226.8 112.6466 
L 227.91218 131.304362 
L 229.024361 149.223374 
L 229.858496 158.68533 
L 230.414586 162.439138 
L 230.692631 163.542589 
L 230.970676 164.162404 
L 231.248721 164.337272 
L 231.526766 164.115388 
L 231.804811 163.551898 
L 232.360901 161.638838 
L 233.473082 156.317897 
L 234.307217 152.548849 
L 235.141352 149.845074 
L 235.697442 148.760202 
L 236.253533 148.224129 
L 236.809623 148.167607 
L 237.365713 148.509173 
L 237.921803 149.177065 
L 238.755938 150.689169 
L 239.590073 152.765038 
L 240.424209 155.429064 
L 241.536389 159.942635 
L 242.926614 166.845676 
L 244.87293 176.572055 
L 245.707065 179.772272 
L 246.5412 182.034085 
L 247.09729 182.994366 
L 247.653381 183.543597 
L 248.209471 183.729267 
L 248.765561 183.609467 
L 249.321651 183.241821 
L 250.155786 182.32942 
L 250.989921 181.073843 
L 252.102102 178.930455 
L 253.214282 176.260498 
L 254.604507 172.277854 
L 258.497139 160.546228 
L 259.887364 157.190194 
L 261.555634 153.790482 
L 264.336085 148.264978 
L 265.72631 144.828188 
L 267.116536 140.75646 
L 270.731122 129.729255 
L 271.287212 128.636998 
L 271.843302 127.970285 
L 272.121347 127.838623 
L 272.399392 127.865882 
L 272.677437 128.071152 
L 272.955482 128.473639 
L 273.511573 129.946701 
L 274.067663 132.428199 
L 274.623753 136.037776 
L 275.179843 140.853281 
L 276.013978 150.36956 
L 276.848113 162.41891 
L 278.238339 186.32864 
L 279.906609 214.809053 
L 280.740744 225.588725 
L 281.296835 230.479056 
L 281.852925 233.081296 
L 282.13097 233.426122 
L 282.409015 233.092805 
L 282.68706 232.060134 
L 282.965105 230.315068 
L 283.521195 224.680527 
L 284.077285 216.269192 
L 284.911421 199.009745 
L 286.023601 169.747808 
L 288.247962 109.247281 
L 289.082097 92.503129 
L 289.638187 84.354646 
L 290.194277 78.825174 
L 290.750367 75.924535 
L 291.028412 75.427584 
L 291.306457 75.534853 
L 291.584502 76.216925 
L 291.862547 77.439586 
L 292.418638 81.359502 
L 292.974728 86.991294 
L 293.808863 98.021995 
L 294.921043 116.410856 
L 296.033224 138.248606 
L 297.423449 170.468529 
L 299.091719 215.864034 
L 300.75999 261.514889 
L 301.594125 279.722755 
L 302.150215 288.693239 
L 302.706305 294.541593 
L 302.98435 296.190092 
L 303.262396 296.958026 
L 303.540441 296.840426 
L 303.818486 295.846484 
L 304.096531 293.999392 
L 304.652621 287.903663 
L 305.208711 278.983455 
L 306.042846 261.592661 
L 309.379387 184.482982 
L 310.213522 171.053425 
L 311.047658 161.174252 
L 311.603748 156.47615 
L 312.159838 153.144115 
L 312.715928 151.00925 
L 313.272018 149.876183 
L 313.550063 149.620047 
L 313.828108 149.535206 
L 314.106153 149.594752 
L 314.662244 150.043627 
L 315.496379 151.178069 
L 316.608559 152.696615 
L 317.164649 153.188696 
L 317.720739 153.404178 
L 318.27683 153.30987 
L 318.83292 152.899881 
L 319.38901 152.192593 
L 320.223145 150.656725 
L 321.335325 148.010532 
L 323.281641 143.194202 
L 324.115776 141.596195 
L 324.949911 140.496279 
L 325.506002 140.077177 
L 326.062092 139.916725 
L 326.618182 140.006712 
L 327.174272 140.328874 
L 328.008407 141.18542 
L 329.120587 142.831308 
L 331.901038 147.358902 
L 332.735173 148.289842 
L 333.569309 148.87898 
L 334.403444 149.14191 
L 335.515624 149.172508 
L 336.349759 149.207623 
L 336.90585 149.372004 
L 337.46194 149.730931 
L 338.01803 150.339826 
L 338.57412 151.229799 
L 339.408255 153.08123 
L 340.798481 157.064621 
L 341.910661 160.098925 
L 342.466751 161.216673 
L 343.022841 161.920073 
L 343.578931 162.133237 
L 343.856976 162.042739 
L 344.413067 161.463224 
L 344.969157 160.376545 
L 345.803292 157.938371 
L 346.915472 153.716756 
L 348.583743 147.322058 
L 349.417878 144.971947 
L 349.973968 143.944264 
L 350.530058 143.43168 
L 350.808103 143.385056 
L 351.086148 143.484509 
L 351.364193 143.732592 
L 351.920284 144.679793 
L 352.476374 146.218215 
L 353.310509 149.553745 
L 354.144644 153.914956 
L 355.812915 164.31178 
L 357.481185 174.241897 
L 358.31532 178.14512 
L 359.149456 181.040417 
L 359.705546 182.369995 
L 360.261636 183.232904 
L 360.817726 183.676516 
L 361.373816 183.779308 
L 361.929906 183.648824 
L 363.320132 183.160985 
L 363.876222 183.245159 
L 364.432312 183.641244 
L 364.988402 184.393034 
L 365.822537 186.144934 
L 368.046898 191.721186 
L 368.602988 192.419754 
L 368.881033 192.55774 
L 369.159078 192.538297 
L 369.437123 192.353216 
L 369.993213 191.47161 
L 370.549304 189.92117 
L 371.383439 186.482415 
L 372.495619 180.388591 
L 374.71998 166.178962 
L 377.222385 149.022543 
L 380.558926 124.949178 
L 381.393062 120.734241 
L 381.949152 118.795061 
L 382.505242 117.650132 
L 382.783287 117.389441 
L 383.061332 117.338418 
L 383.339377 117.49565 
L 383.617422 117.857483 
L 384.173512 119.170996 
L 384.729602 121.21772 
L 385.563738 125.494168 
L 386.397873 130.974383 
L 387.510053 139.696451 
L 389.734414 159.604722 
L 391.402684 173.747302 
L 392.514865 181.375227 
L 393.349 185.785968 
L 394.183135 188.98422 
L 394.739225 190.450723 
L 395.295315 191.410847 
L 395.851405 191.897821 
L 396.407496 191.95014 
L 396.963586 191.608967 
L 397.519676 190.915662 
L 398.353811 189.305322 
L 399.187946 187.127133 
L 400.300127 183.55432 
L 402.246442 176.270004 
L 403.914713 170.200178 
L 404.748848 167.802186 
L 405.304938 166.634554 
L 405.861028 165.917878 
L 406.139073 165.755029 
L 406.417118 165.734723 
L 406.695163 165.864067 
L 407.251253 166.592526 
L 407.807344 167.956629 
L 408.363434 169.931984 
L 409.197569 173.8748 
L 410.587794 181.942056 
L 411.97802 189.690684 
L 412.812155 193.406784 
L 413.924335 197.235024 
L 415.592606 202.566099 
L 416.426741 206.308634 
L 417.260876 211.408398 
L 418.095011 218.070504 
L 419.207192 229.261344 
L 420.875462 249.223427 
L 422.265688 265.28484 
L 423.099823 272.550068 
L 423.655913 275.609313 
L 423.933958 276.450502 
L 424.212003 276.76638 
L 424.490048 276.509616 
L 424.768093 275.636259 
L 425.046138 274.106636 
L 425.602228 268.949682 
L 426.158319 260.849747 
L 426.436364 255.674057 
L 426.436364 255.674057 
" clip-path="url(#p1016ab240a)" style="fill: none; stroke-dasharray: 11.1,4.8; stroke-dashoffset: 0; stroke: #000000; stroke-width: 3"/>
   </g>
   <g id="line2d_2">
    <path d="M 27.163636 101.840926 
L 28.831907 104.899268 
L 29.666042 107.045996 
L 30.500177 109.461388 
L 31.056267 109.81132 
L 31.612358 109.931395 
L 32.446493 109.859672 
L 34.670853 109.441199 
L 35.504989 109.497367 
L 36.339124 109.924325 
L 38.007394 111.010886 
L 39.95371 112.591453 
L 41.343935 114.057406 
L 42.734161 115.946859 
L 44.124386 118.268886 
L 45.236566 120.522373 
L 46.348747 123.218764 
L 47.460927 126.468746 
L 48.573107 130.415843 
L 49.685287 135.24706 
L 50.797468 141.204078 
L 51.909648 148.611808 
L 52.743783 155.421994 
L 53.299873 160.59187 
L 54.134009 163.137196 
L 54.968144 165.023507 
L 55.802279 166.27327 
L 56.358369 166.767001 
L 56.914459 167.002279 
L 57.47055 166.990456 
L 58.02664 166.747126 
L 58.58273 166.288274 
L 59.416865 165.226341 
L 60.251 163.754261 
L 61.363181 161.240947 
L 62.475361 158.187829 
L 63.865586 153.730622 
L 65.533857 147.602232 
L 66.089947 145.539993 
L 66.367992 145.339751 
L 67.480172 145.603349 
L 68.592352 145.672558 
L 69.704533 145.550912 
L 70.816713 145.405778 
L 74.153254 145.446038 
L 75.543479 145.108283 
L 77.21175 144.448011 
L 79.43611 143.480071 
L 81.382426 142.650548 
L 83.606787 141.463119 
L 85.553102 140.346235 
L 88.611598 141.080979 
L 91.114004 141.895222 
L 94.172499 143.144357 
L 98.621221 145.254202 
L 102.791897 147.1543 
L 105.572347 148.172713 
L 108.074753 148.912013 
L 110.021069 149.26226 
L 113.9137 149.543376 
L 115.303925 149.354211 
L 116.69415 148.909774 
L 117.806331 148.315216 
L 118.918511 147.452345 
L 119.196556 147.187765 
L 119.474601 147.572066 
L 122.811142 164.163111 
L 123.923322 168.065234 
L 124.757458 170.329483 
L 125.591593 172.050235 
L 126.425728 173.26563 
L 127.259863 174.004066 
L 127.815953 174.245079 
L 128.093998 174.245393 
L 128.650089 173.91781 
L 129.206179 173.337274 
L 130.040314 172.075491 
L 130.874449 170.383648 
L 131.98663 167.513135 
L 133.09881 164.284678 
L 133.6549 162.754701 
L 135.879261 160.299088 
L 140.884072 154.342345 
L 142.830387 151.594499 
L 145.610838 147.204891 
L 147.001064 145.048304 
L 148.113244 145.068808 
L 150.893695 145.656453 
L 154.230236 146.229841 
L 154.786326 147.064981 
L 156.454596 149.624604 
L 158.400912 152.113526 
L 159.235047 152.927887 
L 160.069182 153.102362 
L 160.625272 153.462546 
L 161.181362 154.139786 
L 161.737453 155.242884 
L 162.293543 156.881151 
L 162.849633 159.164057 
L 163.405723 162.185634 
L 163.683768 162.161007 
L 165.073993 159.707632 
L 166.742264 156.253441 
L 167.298354 155.657232 
L 167.576399 155.565478 
L 168.410534 155.713951 
L 169.24467 155.634647 
L 170.35685 155.293671 
L 171.747075 154.797544 
L 173.693391 155.252821 
L 174.805571 155.859242 
L 175.639706 156.465152 
L 175.917751 156.716849 
L 177.586022 162.572528 
L 178.420157 164.235344 
L 179.254292 165.261534 
L 182.034743 167.516121 
L 182.868878 167.788164 
L 184.537149 168.728177 
L 185.371284 169.406988 
L 186.205419 170.423555 
L 187.039554 171.875092 
L 187.87369 173.850605 
L 188.151735 173.906027 
L 188.98587 172.546833 
L 189.820005 171.588202 
L 190.65414 170.952794 
L 191.488276 170.573127 
L 193.990681 169.889642 
L 194.546771 169.915095 
L 196.215042 169.435936 
L 198.995493 169.023551 
L 200.941808 168.952457 
L 203.166169 169.122494 
L 204.556394 169.235891 
L 207.892935 167.803325 
L 210.395341 166.663698 
L 212.897746 165.557184 
L 214.844062 164.458485 
L 216.512332 163.268307 
L 217.902558 162.225227 
L 219.014738 161.752785 
L 220.126918 161.496454 
L 221.517144 161.431841 
L 222.907369 161.599049 
L 224.575639 162.036376 
L 225.965865 162.543894 
L 226.521955 162.981103 
L 228.46827 164.827153 
L 229.580451 165.679654 
L 230.692631 166.257559 
L 231.804811 166.538636 
L 237.643758 167.421617 
L 239.312028 167.372518 
L 240.702254 167.122393 
L 242.092479 166.635614 
L 243.482704 165.869605 
L 244.038795 165.474974 
L 244.31684 165.436559 
L 245.150975 166.115528 
L 247.375336 167.362856 
L 249.877741 168.481508 
L 253.770372 169.981711 
L 257.384958 170.564643 
L 260.721499 170.764021 
L 262.111724 171.130607 
L 264.892175 172.232291 
L 268.506761 173.624832 
L 269.340896 173.833518 
L 270.453077 173.666978 
L 271.843302 173.7191 
L 273.511573 174.055089 
L 274.901798 174.519675 
L 281.296835 177.243364 
L 282.68706 177.628843 
L 284.077285 177.742751 
L 286.301646 178.313389 
L 289.638187 179.461264 
L 292.696683 180.587026 
L 296.033224 179.498618 
L 301.594125 177.452483 
L 306.320891 175.270012 
L 313.550063 172.493454 
L 316.330514 171.413884 
L 319.9451 169.895298 
L 322.447506 169.098573 
L 324.671866 168.507353 
L 326.896227 167.655874 
L 328.842542 166.68106 
L 330.788858 165.613902 
L 333.013219 165.364601 
L 334.681489 165.388365 
L 336.071714 165.586682 
L 339.6863 166.508156 
L 341.354571 167.262539 
L 343.300886 168.271996 
L 348.583743 169.264132 
L 352.476374 169.002027 
L 357.20314 168.537912 
L 362.207951 169.090089 
L 364.710357 169.474351 
L 366.100582 168.905912 
L 367.768853 168.549145 
L 369.437123 168.406643 
L 371.661484 168.465089 
L 377.50043 168.859603 
L 378.890656 167.805328 
L 380.558926 166.827529 
L 381.949152 166.211839 
L 383.895467 166.24224 
L 386.953963 166.358308 
L 388.900279 166.229867 
L 394.183135 165.602432 
L 397.519676 165.603257 
L 407.807344 165.759782 
L 410.309749 165.715751 
L 411.42193 165.973497 
L 418.095011 167.685804 
L 419.485237 167.588904 
L 420.875462 167.235633 
L 421.987642 166.746576 
L 423.377868 165.864459 
L 424.768093 164.701187 
L 426.436364 163.060092 
L 426.436364 163.060092 
" clip-path="url(#p1016ab240a)" style="fill: none; stroke: #ff00ff; stroke-width: 3; stroke-linecap: square"/>
   </g>
   <g id="patch_3">
    <path d="M 7.2 331.2 
L 7.2 7.2 
" style="fill: none; stroke: #000000; stroke-width: 0.8; stroke-linejoin: miter; stroke-linecap: square"/>
   </g>
   <g id="patch_4">
    <path d="M 446.4 331.2 
L 446.4 7.2 
" style="fill: none; stroke: #000000; stroke-width: 0.8; stroke-linejoin: miter; stroke-linecap: square"/>
   </g>
   <g id="patch_5">
    <path d="M 7.2 331.2 
L 446.4 331.2 
" style="fill: none; stroke: #000000; stroke-width: 0.8; stroke-linejoin: miter; stroke-linecap: square"/>
   </g>
   <g id="patch_6">
    <path d="M 7.2 7.2 
L 446.4 7.2 
" style="fill: none; stroke: #000000; stroke-width: 0.8; stroke-linejoin: miter; stroke-linecap: square"/>
   </g>
  </g>
 </g>
 <defs>
  <clipPath id="p1016ab240a">
   <rect x="7.2" y="7.2" width="439.2" height="324"/>
  </clipPath>
 </defs>
</svg>
