<?xml version="1.0" encoding="utf-8" standalone="no"?>
<!DOCTYPE svg PUBLIC "-//W3C//DTD SVG 1.1//EN"
  "http://www.w3.org/Graphics/SVG/1.1/DTD/svg11.dtd">
<svg xmlns:xlink="http://www.w3.org/1999/xlink" width="453.6pt" height="338.4pt" viewBox="0 0 453.6 338.4" xmlns="http://www.w3.org/2000/svg" version="1.1">
 <metadata>
  <rdf:RDF xmlns:dc="http://purl.org/dc/elements/1.1/" xmlns:cc="http://creativecommons.org/ns#" xmlns:rdf="http://www.w3.org/1999/02/22-rdf-syntax-ns#">
   <cc:Work>
    <dc:type rdf:resource="http://purl.org/dc/dcmitype/StillImage"/>
    <dc:date>2025-05-15T17:48:58.648680</dc:date>
    <dc:format>image/svg+xml</dc:format>
    <dc:creator>
     <cc:Agent>
      <dc:title>Matplotlib v3.10.1, https://matplotlib.org/</dc:title>
     </cc:Agent>
    </dc:creator>
   </cc:Work>
  </rdf:RDF>
 </metadata>
 <defs>
  <style type="text/css">*{stroke-linejoin: round; stroke-linecap: butt}</style>
 </defs>
 <g id="figure_1">
  <g id="patch_1">
   <path d="M 0 338.4 
L 453.6 338.4 
L 453.6 0 
L 0 0 
z
" style="fill: #ffffff"/>
  </g>
  <g id="axes_1">
   <g id="patch_2">
    <path d="M 7.2 331.2 
L 446.4 331.2 
L 446.4 7.2 
L 7.2 7.2 
z
" style="fill: #ffffff"/>
   </g>
   <g id="matplotlib.axis_1"/>
   <g id="matplotlib.axis_2"/>
   <g id="line2d_1">
    <path d="M 27.163636 69.879856 
L 28.275817 60.529053 
L 29.109952 55.350825 
L 29.944087 51.805675 
L 30.500177 50.253671 
L 31.056267 49.212964 
L 31.890403 48.241341 
L 32.724538 47.386765 
L 33.280628 46.55326 
L 33.836718 45.314585 
L 34.392808 43.559971 
L 35.226944 39.8965 
L 36.339124 33.530007 
L 37.729349 25.604826 
L 38.285439 23.377028 
L 38.84153 22.118607 
L 39.119575 21.927273 
L 39.39762 22.058911 
L 39.675665 22.532043 
L 39.95371 23.359935 
L 40.5098 26.111684 
L 41.06589 30.336607 
L 41.900025 39.351069 
L 42.734161 51.31892 
L 43.846341 71.171798 
L 45.236566 100.568242 
L 48.851152 180.394821 
L 49.963332 200.149634 
L 51.075513 215.963745 
L 51.909648 225.13704 
L 52.743783 232.231318 
L 53.577918 237.712876 
L 54.690099 243.585139 
L 57.192504 255.418622 
L 58.02664 258.428316 
L 58.58273 259.684057 
L 58.860775 260.022031 
L 59.13882 260.146016 
L 59.416865 260.046343 
L 59.69491 259.718651 
L 60.251 258.388493 
L 60.80709 256.226029 
L 61.641226 251.742626 
L 64.699721 232.983799 
L 65.255812 230.845979 
L 65.811902 229.498091 
L 66.089947 229.157515 
L 66.367992 229.054501 
L 66.646037 229.196675 
L 66.924082 229.587253 
L 67.480172 231.104689 
L 68.036262 233.532827 
L 68.870398 238.494567 
L 70.816713 250.954812 
L 71.372803 253.253302 
L 71.928893 254.546213 
L 72.206938 254.786912 
L 72.484984 254.756707 
L 72.763029 254.463965 
L 73.319119 253.153272 
L 73.875209 251.026294 
L 74.709344 246.784585 
L 77.489795 231.570525 
L 78.32393 228.557592 
L 78.88002 227.353434 
L 79.158065 227.048676 
L 79.43611 226.966913 
L 79.714155 227.125159 
L 79.992201 227.538059 
L 80.548291 229.168868 
L 81.104381 231.89383 
L 81.938516 237.881557 
L 83.050696 248.341793 
L 84.718967 264.216111 
L 85.553102 270.132865 
L 86.387237 274.175714 
L 86.943327 275.954361 
L 87.777463 277.702343 
L 89.723778 281.010161 
L 90.557913 283.106218 
L 91.670094 286.644709 
L 95.84077 301.070343 
L 96.39686 302.216922 
L 96.95295 302.914222 
L 97.230995 303.069279 
L 97.50904 303.084994 
L 97.787085 302.955678 
L 98.343175 302.249398 
L 98.899266 300.947277 
L 99.455356 299.077734 
L 100.289491 295.34125 
L 101.401671 289.069404 
L 106.128438 260.533175 
L 108.352798 248.083925 
L 110.021069 237.262066 
L 113.079564 216.59969 
L 114.191745 210.796716 
L 115.02588 207.418231 
L 115.860015 204.831643 
L 116.69415 202.916434 
L 117.528286 201.54107 
L 118.362421 200.61399 
L 119.196556 200.102642 
L 119.752646 200.000291 
L 120.308736 200.101851 
L 120.864827 200.41865 
L 121.420917 200.956428 
L 122.255052 202.164311 
L 123.367232 204.36545 
L 125.035503 207.764496 
L 125.591593 208.495981 
L 126.147683 208.845996 
L 126.425728 208.855001 
L 126.981818 208.52315 
L 127.537908 207.746791 
L 128.372044 205.948042 
L 130.040314 202.042469 
L 130.596404 201.218761 
L 131.152494 200.751981 
L 131.708584 200.589678 
L 133.376855 200.468372 
L 133.932945 200.004551 
L 134.489035 199.166174 
L 135.32317 197.28061 
L 136.991441 193.007496 
L 137.547531 192.065722 
L 138.103621 191.567231 
L 138.381666 191.496412 
L 138.937756 191.70239 
L 139.493847 192.325962 
L 140.327982 193.867609 
L 141.440162 196.613286 
L 144.498658 204.580943 
L 145.332793 205.93498 
L 145.888883 206.383774 
L 146.166928 206.445206 
L 146.444973 206.389591 
L 147.001064 205.916178 
L 147.557154 204.968153 
L 148.391289 202.782602 
L 151.449785 193.447999 
L 152.28392 192.152409 
L 153.118055 191.343701 
L 153.95219 190.563133 
L 154.508281 189.810703 
L 155.064371 188.747546 
L 155.898506 186.526049 
L 157.844821 180.64473 
L 158.400912 179.839033 
L 158.678957 179.741018 
L 158.957002 179.878193 
L 159.235047 180.267495 
L 159.791137 181.835775 
L 160.347227 184.434533 
L 161.181362 189.93826 
L 163.405723 206.599574 
L 163.961813 209.315862 
L 164.517903 210.937181 
L 164.795948 211.306558 
L 165.073993 211.379725 
L 165.352038 211.16418 
L 165.630084 210.673318 
L 166.186174 208.949444 
L 167.020309 204.935167 
L 169.24467 192.514669 
L 169.80076 190.422336 
L 170.35685 189.08205 
L 170.634895 188.71382 
L 170.91294 188.547487 
L 171.190985 188.577207 
L 171.46903 188.792676 
L 172.02512 189.715878 
L 172.859256 191.988601 
L 174.249481 196.198013 
L 174.805571 197.332117 
L 175.361661 197.866298 
L 175.639706 197.872242 
L 175.917751 197.693816 
L 176.195796 197.329285 
L 176.751887 196.056757 
L 177.307977 194.124763 
L 178.142112 190.268962 
L 181.200608 174.529115 
L 182.034743 171.681648 
L 182.868878 169.776925 
L 183.424968 168.972146 
L 184.259104 168.261504 
L 185.927374 167.243374 
L 186.483464 166.6359 
L 187.317599 165.261811 
L 188.151735 163.342674 
L 189.54196 159.374675 
L 192.322411 151.266808 
L 193.712636 147.681759 
L 194.546771 146.01878 
L 195.102861 145.309873 
L 195.658952 145.042208 
L 195.936997 145.099507 
L 196.215042 145.292372 
L 196.771132 146.086742 
L 197.327222 147.384399 
L 198.161357 150.010683 
L 199.551583 154.610979 
L 200.107673 155.972516 
L 200.663763 156.890004 
L 201.219853 157.367167 
L 201.775943 157.49059 
L 202.610079 157.318338 
L 204.000304 157.010417 
L 204.556394 156.871024 
L 205.112484 156.504529 
L 205.668574 155.68378 
L 206.224664 154.19938 
L 206.780755 151.928111 
L 207.61489 147.138572 
L 209.28316 136.330923 
L 209.83925 134.057051 
L 210.117296 133.421514 
L 210.395341 133.17033 
L 210.673386 133.326306 
L 210.951431 133.898524 
L 211.507521 136.258369 
L 212.063611 140.053274 
L 212.897746 147.575019 
L 214.287972 160.717385 
L 215.122107 166.435534 
L 215.678197 168.78275 
L 216.234287 169.910527 
L 216.512332 170.048314 
L 216.790377 169.932977 
L 217.068422 169.593499 
L 217.624513 168.377427 
L 218.458648 165.741066 
L 219.848873 161.275571 
L 220.683008 159.468021 
L 221.239099 158.758578 
L 221.795189 158.418002 
L 222.351279 158.370934 
L 223.463459 158.697886 
L 224.019549 158.798962 
L 224.575639 158.674569 
L 225.13173 158.208682 
L 225.68782 157.321859 
L 226.24391 155.985986 
L 227.078045 153.230258 
L 229.302406 144.918836 
L 229.858496 143.662967 
L 230.414586 143.047788 
L 230.692631 142.9985 
L 230.970676 143.120648 
L 231.526766 143.845423 
L 232.082856 145.106752 
L 233.195037 148.488833 
L 234.029172 150.922099 
L 234.585262 152.137559 
L 235.141352 152.895499 
L 235.697442 153.173878 
L 236.253533 153.039331 
L 237.921803 151.968878 
L 238.199848 152.021482 
L 238.477893 152.23042 
L 238.755938 152.627222 
L 239.312028 154.093457 
L 239.868119 156.596777 
L 240.424209 160.230272 
L 241.258344 167.768447 
L 242.370524 180.976275 
L 245.42902 220.255839 
L 246.5412 231.156783 
L 247.931426 242.450193 
L 254.882553 294.641577 
L 257.106913 309.73229 
L 257.941048 313.96303 
L 258.497139 315.761192 
L 258.775184 316.265703 
L 259.053229 316.472727 
L 259.331274 316.360682 
L 259.609319 315.911887 
L 259.887364 315.113639 
L 260.443454 312.442124 
L 260.999544 308.348456 
L 261.833679 299.757456 
L 262.94586 284.809964 
L 265.448265 248.839493 
L 266.282401 240.057924 
L 266.838491 235.775243 
L 267.394581 232.83193 
L 267.950671 231.183902 
L 268.228716 230.805085 
L 268.506761 230.689927 
L 268.784806 230.807942 
L 269.340896 231.603333 
L 270.175032 233.613851 
L 271.287212 236.227482 
L 271.843302 236.959349 
L 272.121347 237.117034 
L 272.399392 237.127239 
L 272.677437 236.991162 
L 273.233527 236.315164 
L 274.067663 234.557054 
L 275.457888 231.395288 
L 276.013978 230.697325 
L 276.292023 230.55709 
L 276.570068 230.572345 
L 276.848113 230.748756 
L 277.404204 231.577311 
L 277.960294 232.968416 
L 280.184654 239.606808 
L 280.462699 239.860033 
L 280.740744 239.81771 
L 281.01879 239.426826 
L 281.296835 238.635925 
L 281.852925 235.658376 
L 282.409015 230.530838 
L 282.965105 222.985393 
L 283.521195 212.876778 
L 284.35533 192.98349 
L 285.467511 159.153033 
L 287.969916 77.754014 
L 288.804052 58.452282 
L 289.360142 49.584612 
L 289.916232 44.241479 
L 290.194277 42.911678 
L 290.472322 42.461659 
L 290.750367 42.864941 
L 291.028412 44.083972 
L 291.584502 48.76968 
L 292.140593 56.034221 
L 292.974728 70.444675 
L 295.477133 117.66187 
L 296.311269 128.039451 
L 296.867359 132.387542 
L 297.423449 134.593656 
L 297.701494 134.917802 
L 297.979539 134.752132 
L 298.257584 134.127514 
L 298.813674 131.650317 
L 299.369764 127.816737 
L 300.2039 120.291879 
L 302.150215 99.463552 
L 305.764801 61.377201 
L 307.155027 48.763506 
L 307.989162 43.058674 
L 308.545252 40.353203 
L 309.101342 38.620017 
L 309.379387 38.118159 
L 309.657432 37.848709 
L 309.935477 37.796411 
L 310.213522 37.941162 
L 310.769613 38.718083 
L 311.603748 40.634592 
L 312.715928 43.208476 
L 313.272018 44.012949 
L 313.828108 44.340565 
L 314.384199 44.199079 
L 314.940289 43.697425 
L 316.052469 42.459975 
L 316.608559 42.259661 
L 316.886604 42.383033 
L 317.164649 42.694271 
L 317.720739 43.970039 
L 318.27683 46.206868 
L 318.83292 49.417871 
L 319.667055 55.822426 
L 321.335325 71.458545 
L 322.725551 83.462673 
L 325.227956 102.991252 
L 326.062092 112.619821 
L 326.896227 125.570061 
L 327.730362 142.074226 
L 329.120587 175.450608 
L 331.066903 222.143214 
L 331.901038 237.646853 
L 332.735173 249.152414 
L 333.291264 254.591623 
L 333.847354 258.415713 
L 334.403444 260.861658 
L 334.959534 262.204648 
L 335.515624 262.716736 
L 335.793669 262.736941 
L 336.349759 262.424938 
L 336.90585 261.75042 
L 337.46194 260.776476 
L 338.296075 258.735497 
L 339.13021 255.831471 
L 339.964345 251.877606 
L 341.076526 245.03594 
L 343.300886 230.313993 
L 344.135022 226.592101 
L 344.691112 225.06622 
L 345.247202 224.326368 
L 345.525247 224.23218 
L 345.803292 224.303331 
L 346.359382 224.867564 
L 346.915472 225.854417 
L 348.305698 229.082971 
L 349.417878 231.420085 
L 350.252013 232.668913 
L 350.808103 233.2084 
L 351.364193 233.500555 
L 351.920284 233.548823 
L 352.476374 233.377464 
L 353.310509 232.838232 
L 354.144644 232.272009 
L 354.700734 232.109196 
L 355.256825 232.283234 
L 355.812915 232.898744 
L 356.369005 233.994581 
L 357.20314 236.410729 
L 358.87141 241.727076 
L 359.427501 242.78337 
L 359.705546 243.07527 
L 359.983591 243.199485 
L 360.261636 243.158488 
L 360.817726 242.634384 
L 361.651861 241.149067 
L 362.485996 239.782376 
L 362.764042 239.564434 
L 363.042087 239.536626 
L 363.320132 239.733854 
L 363.598177 240.184766 
L 364.154267 241.918155 
L 364.710357 244.784883 
L 365.544492 250.948893 
L 368.881033 279.215952 
L 369.715168 283.598663 
L 370.827349 288.145461 
L 373.885845 299.489588 
L 374.441935 300.884545 
L 374.998025 301.686083 
L 375.27607 301.824074 
L 375.554115 301.773306 
L 375.83216 301.52924 
L 376.38825 300.466338 
L 376.94434 298.693432 
L 377.778476 294.993072 
L 380.558926 281.330914 
L 381.393062 278.598707 
L 383.617422 272.229357 
L 384.173512 269.755885 
L 385.007648 264.680799 
L 385.841783 257.81607 
L 386.953963 246.243848 
L 390.846594 202.008284 
L 391.958774 192.642022 
L 393.070955 185.397303 
L 393.90509 181.235622 
L 394.739225 177.981914 
L 395.57336 175.446603 
L 396.407496 173.47078 
L 397.241631 171.970793 
L 398.075766 170.954934 
L 398.631856 170.584306 
L 399.187946 170.494047 
L 399.744036 170.708903 
L 400.300127 171.238798 
L 400.856217 172.073246 
L 401.690352 173.812707 
L 403.358622 178.171462 
L 404.470803 180.795655 
L 405.304938 182.200459 
L 405.861028 182.787346 
L 406.417118 183.067689 
L 406.973208 183.02608 
L 407.529299 182.646447 
L 408.085389 181.905982 
L 408.641479 180.77369 
L 409.197569 179.215307 
L 410.031704 176.025045 
L 410.865839 171.832828 
L 412.256065 163.310122 
L 413.64629 154.92686 
L 414.480425 150.99797 
L 415.314561 148.175759 
L 416.148696 146.248331 
L 417.816966 142.977581 
L 418.651102 140.693505 
L 420.041327 135.892333 
L 420.875462 133.221302 
L 421.431552 131.917931 
L 421.987642 131.163154 
L 422.265688 131.014627 
L 422.543733 131.020546 
L 422.821778 131.175348 
L 423.377868 131.888082 
L 424.212003 133.69821 
L 426.158319 138.410143 
L 426.436364 138.899041 
L 426.436364 138.899041 
" clip-path="url(#pc5486ea8e1)" style="fill: none; stroke-dasharray: 11.1,4.8; stroke-dashoffset: 0; stroke: #000000; stroke-width: 3"/>
   </g>
   <g id="line2d_2">
    <path d="M 27.163636 104.494427 
L 28.831907 104.137984 
L 30.500177 103.602757 
L 34.392808 102.226475 
L 35.783034 102.058508 
L 36.339124 102.150961 
L 36.895214 102.469546 
L 37.451304 102.984466 
L 38.007394 103.738171 
L 38.84153 105.319258 
L 39.675665 107.419041 
L 40.787845 111.035724 
L 41.900025 115.56367 
L 43.012206 120.966448 
L 44.402431 128.918927 
L 45.792656 138.145744 
L 47.460927 150.766991 
L 49.407242 167.446087 
L 51.631603 188.713718 
L 53.299873 205.729436 
L 54.690099 208.929673 
L 55.802279 211.037414 
L 56.914459 212.753609 
L 58.02664 214.092288 
L 59.13882 215.068044 
L 60.251 215.69159 
L 61.085135 215.939815 
L 61.919271 216.003134 
L 62.753406 215.890935 
L 63.865586 215.476683 
L 64.977767 214.776042 
L 66.089947 213.800541 
L 67.480172 212.223791 
L 68.314307 211.098029 
L 68.592352 211.461514 
L 69.982578 214.017081 
L 71.372803 216.108445 
L 72.763029 217.767494 
L 74.153254 219.038466 
L 75.543479 219.975138 
L 77.21175 220.822776 
L 78.88002 221.371575 
L 80.826336 221.736029 
L 83.328741 221.945068 
L 87.777463 222.041501 
L 91.948139 221.954558 
L 95.006635 221.675108 
L 97.50904 221.255907 
L 100.011446 220.625472 
L 102.513852 219.758548 
L 104.738212 218.773965 
L 105.572347 218.463493 
L 116.416105 215.919559 
L 125.591593 213.747835 
L 129.484224 212.633043 
L 134.489035 210.680461 
L 139.771892 208.364343 
L 152.561965 202.524147 
L 153.95219 202.196378 
L 156.454596 201.761105 
L 162.571588 201.037656 
L 170.634895 200.292421 
L 182.312788 199.43065 
L 197.605267 198.390606 
L 199.551583 198.091614 
L 202.053988 198.924149 
L 204.278349 199.479937 
L 205.946619 199.69214 
L 207.61489 199.552338 
L 208.72707 199.280745 
L 209.83925 198.781337 
L 211.229476 198.111308 
L 214.287972 197.412095 
L 215.678197 197.327806 
L 216.790377 197.417606 
L 217.902558 197.724557 
L 219.292783 198.360962 
L 220.126918 198.841543 
L 222.351279 197.962578 
L 224.575639 197.102439 
L 226.24391 196.829877 
L 228.46827 196.742475 
L 231.526766 196.908145 
L 235.697442 197.116164 
L 237.087668 196.676911 
L 239.868119 195.690849 
L 241.814434 195.907338 
L 246.263155 196.617572 
L 249.321651 196.276792 
L 254.604507 195.660082 
L 260.721499 195.032811 
L 271.009167 192.873434 
L 278.516384 191.599503 
L 281.296835 191.382657 
L 283.521195 191.38577 
L 287.413826 191.733233 
L 291.306457 192.037277 
L 295.199088 192.166262 
L 302.98435 192.542604 
L 308.545252 192.464182 
L 314.106153 192.022735 
L 322.169461 191.417199 
L 326.896227 191.108666 
L 330.232768 191.200303 
L 340.798481 191.909159 
L 348.305698 192.467499 
L 363.876222 192.691641 
L 366.656673 192.507807 
L 369.715168 191.948242 
L 370.271259 191.814716 
L 370.549304 191.638586 
L 370.827349 191.30097 
L 374.16389 184.159802 
L 378.334566 174.566795 
L 381.671107 166.899533 
L 384.173512 161.737683 
L 384.729602 161.186333 
L 387.232008 160.984947 
L 388.900279 161.048725 
L 391.124639 161.268785 
L 391.680729 160.942802 
L 392.514865 160.09195 
L 393.349 158.88644 
L 394.739225 156.361206 
L 395.57336 154.57909 
L 396.685541 152.044085 
L 396.963586 151.818566 
L 397.797721 151.782033 
L 398.631856 151.945612 
L 399.744036 152.432979 
L 400.578172 152.962185 
L 401.134262 153.604865 
L 401.412307 153.599151 
L 402.246442 151.998267 
L 403.636668 148.59792 
L 404.192758 147.203881 
L 404.470803 146.942748 
L 405.026893 145.934338 
L 406.695163 142.167546 
L 407.251253 141.94417 
L 408.085389 141.836308 
L 408.641479 141.908454 
L 409.197569 142.174281 
L 411.143885 143.909865 
L 411.97802 144.597751 
L 413.64629 145.438093 
L 414.20238 146.189145 
L 414.480425 146.72529 
L 414.75847 147.769823 
L 415.314561 152.318179 
L 415.870651 154.783997 
L 416.148696 155.448106 
L 416.426741 155.786692 
L 416.704786 155.840164 
L 416.982831 155.65138 
L 417.538921 143.26545 
L 418.095011 132.908381 
L 418.651102 127.185792 
L 418.929147 125.986966 
L 419.207192 125.658993 
L 419.485237 125.088459 
L 420.041327 123.21389 
L 421.431552 117.627328 
L 422.265688 117.163941 
L 423.933958 116.692697 
L 424.490048 116.827294 
L 425.324183 117.212004 
L 425.602228 117.741517 
L 425.880273 119.462303 
L 426.158319 122.373651 
L 426.436364 127.460396 
L 426.436364 127.460396 
" clip-path="url(#pc5486ea8e1)" style="fill: none; stroke: #ff00ff; stroke-width: 3; stroke-linecap: square"/>
   </g>
   <g id="patch_3">
    <path d="M 7.2 331.2 
L 7.2 7.2 
" style="fill: none; stroke: #000000; stroke-width: 0.8; stroke-linejoin: miter; stroke-linecap: square"/>
   </g>
   <g id="patch_4">
    <path d="M 446.4 331.2 
L 446.4 7.2 
" style="fill: none; stroke: #000000; stroke-width: 0.8; stroke-linejoin: miter; stroke-linecap: square"/>
   </g>
   <g id="patch_5">
    <path d="M 7.2 331.2 
L 446.4 331.2 
" style="fill: none; stroke: #000000; stroke-width: 0.8; stroke-linejoin: miter; stroke-linecap: square"/>
   </g>
   <g id="patch_6">
    <path d="M 7.2 7.2 
L 446.4 7.2 
" style="fill: none; stroke: #000000; stroke-width: 0.8; stroke-linejoin: miter; stroke-linecap: square"/>
   </g>
  </g>
 </g>
 <defs>
  <clipPath id="pc5486ea8e1">
   <rect x="7.2" y="7.2" width="439.2" height="324"/>
  </clipPath>
 </defs>
</svg>
