<?xml version="1.0" encoding="utf-8" standalone="no"?>
<!DOCTYPE svg PUBLIC "-//W3C//DTD SVG 1.1//EN"
  "http://www.w3.org/Graphics/SVG/1.1/DTD/svg11.dtd">
<svg xmlns:xlink="http://www.w3.org/1999/xlink" width="453.6pt" height="338.4pt" viewBox="0 0 453.6 338.4" xmlns="http://www.w3.org/2000/svg" version="1.1">
 <metadata>
  <rdf:RDF xmlns:dc="http://purl.org/dc/elements/1.1/" xmlns:cc="http://creativecommons.org/ns#" xmlns:rdf="http://www.w3.org/1999/02/22-rdf-syntax-ns#">
   <cc:Work>
    <dc:type rdf:resource="http://purl.org/dc/dcmitype/StillImage"/>
    <dc:date>2025-05-15T01:20:14.561953</dc:date>
    <dc:format>image/svg+xml</dc:format>
    <dc:creator>
     <cc:Agent>
      <dc:title>Matplotlib v3.10.1, https://matplotlib.org/</dc:title>
     </cc:Agent>
    </dc:creator>
   </cc:Work>
  </rdf:RDF>
 </metadata>
 <defs>
  <style type="text/css">*{stroke-linejoin: round; stroke-linecap: butt}</style>
 </defs>
 <g id="figure_1">
  <g id="patch_1">
   <path d="M 0 338.4 
L 453.6 338.4 
L 453.6 0 
L 0 0 
z
" style="fill: #ffffff"/>
  </g>
  <g id="axes_1">
   <g id="patch_2">
    <path d="M 7.2 331.2 
L 446.4 331.2 
L 446.4 7.2 
L 7.2 7.2 
z
" style="fill: #ffffff"/>
   </g>
   <g id="matplotlib.axis_1"/>
   <g id="matplotlib.axis_2"/>
   <g id="line2d_1">
    <path d="M 27.163636 142.99457 
L 28.760727 131.632499 
L 29.825455 125.618631 
L 30.624 122.473231 
L 31.156364 121.183213 
L 31.688727 120.61906 
L 31.954909 120.627434 
L 32.221091 120.837934 
L 32.487273 121.256019 
L 33.019636 122.734117 
L 33.552 125.093558 
L 34.084364 128.394085 
L 34.882909 135.090067 
L 35.681455 143.897296 
L 36.746182 158.828401 
L 37.810909 177.209841 
L 39.141818 204.36826 
L 40.738909 241.609636 
L 42.602182 286.123568 
L 42.868364 283.215966 
L 45.264 207.821765 
L 46.062545 191.64096 
L 46.861091 180.660527 
L 47.393455 175.620295 
L 47.925818 172.048137 
L 48.458182 169.667945 
L 48.990545 168.241146 
L 49.522909 167.515107 
L 50.055273 167.31565 
L 50.587636 167.415369 
L 51.652364 167.7962 
L 52.184727 167.717688 
L 52.450909 167.536192 
L 52.983273 166.741963 
L 53.515636 165.250961 
L 54.048 162.869522 
L 54.580364 159.332389 
L 55.112727 154.479062 
L 55.645091 147.988541 
L 56.443636 134.87258 
L 57.242182 133.831019 
L 57.774545 133.466094 
L 58.306909 133.310668 
L 59.105455 133.37668 
L 60.968727 133.808705 
L 63.364364 133.803455 
L 64.429091 133.562425 
L 65.227636 133.146166 
L 66.026182 132.412296 
L 66.824727 131.225509 
L 67.623273 129.431222 
L 68.421818 126.848027 
L 69.220364 123.263755 
L 70.018909 118.462851 
L 70.817455 112.219663 
L 71.616 104.315212 
L 72.414545 94.49395 
L 72.680727 90.773266 
L 72.946909 88.636597 
L 73.213091 94.604045 
L 74.277818 127.222608 
L 75.076364 145.860158 
L 75.874909 159.76696 
L 76.673455 169.265818 
L 76.939636 171.511653 
L 77.205818 172.784412 
L 78.270545 175.103316 
L 78.802909 175.986792 
L 79.335273 176.552736 
L 79.867636 176.630361 
L 80.133818 176.485644 
L 80.4 176.197449 
L 80.932364 175.086953 
L 81.464727 173.221889 
L 81.997091 170.525376 
L 82.529455 166.915349 
L 83.328 159.6556 
L 84.126545 150.02988 
L 84.925091 137.986484 
L 85.989818 118.186322 
L 87.320727 87.877375 
L 88.119273 67.190796 
L 88.385455 65.936541 
L 91.845818 173.41923 
L 92.910545 199.737924 
L 93.709091 215.057523 
L 94.241455 223.183999 
L 94.773818 228.338653 
L 95.04 229.794104 
L 95.306182 230.560128 
L 95.572364 230.575068 
L 95.838545 229.912117 
L 96.104727 228.565884 
L 96.637091 223.871292 
L 97.169455 216.617819 
L 97.968 201.271658 
L 98.766545 180.92108 
L 99.032727 173.143895 
L 99.298909 171.819265 
L 100.629818 189.006377 
L 101.694545 200.379272 
L 102.759273 209.703525 
L 103.824 217.043998 
L 104.622545 221.288667 
L 105.421091 224.477334 
L 106.219636 226.619341 
L 106.752 227.440316 
L 107.284364 227.775097 
L 107.550545 227.758181 
L 107.816727 227.615616 
L 108.349091 226.942631 
L 108.881455 225.730098 
L 109.413818 223.924408 
L 110.212364 220.030672 
L 110.744727 215.623555 
L 111.543273 206.428604 
L 112.341818 194.747482 
L 113.406545 175.346233 
L 114.471273 151.604397 
L 115.003636 138.153936 
L 115.269818 141.080093 
L 116.068364 163.908327 
L 116.866909 181.493678 
L 117.665455 194.582672 
L 118.464 203.887789 
L 119.262545 210.000815 
L 119.794909 212.567156 
L 120.327273 214.095368 
L 120.593455 214.512462 
L 120.859636 214.716501 
L 121.125818 214.722066 
L 121.392 214.548707 
L 121.924364 213.723702 
L 122.456727 212.354321 
L 123.255273 209.512724 
L 124.586182 203.513243 
L 126.449455 194.988231 
L 127.780364 190.290847 
L 128.046545 189.975423 
L 128.312727 190.020393 
L 128.578909 190.412863 
L 128.845091 191.196067 
L 129.377455 194.053877 
L 129.909818 198.666807 
L 130.442182 205.20954 
L 130.708364 209.196877 
L 130.974545 207.39254 
L 131.773091 183.255564 
L 132.571636 165.075135 
L 133.370182 152.11783 
L 134.168727 143.483074 
L 134.701091 139.778875 
L 135.233455 137.497331 
L 135.765818 136.465022 
L 136.032 136.366689 
L 136.298182 136.521448 
L 136.564364 136.911092 
L 137.096727 138.326584 
L 137.629091 140.483127 
L 138.427636 144.914858 
L 139.492364 152.413548 
L 141.089455 165.861867 
L 143.751273 190.485467 
L 145.348364 211.951431 
L 148.010182 248.157623 
L 148.276364 251.226184 
L 148.542545 249.381133 
L 149.873455 230.945313 
L 153.866182 172.202501 
L 154.930909 160.281955 
L 155.995636 150.960573 
L 156.794182 145.666302 
L 157.592727 141.71326 
L 158.391273 138.916703 
L 159.189818 137.088761 
L 159.988364 136.06574 
L 160.254545 135.853607 
L 161.053091 133.550311 
L 161.585455 132.667599 
L 162.117818 132.251287 
L 162.650182 132.370407 
L 162.916364 132.600552 
L 163.448727 133.480104 
L 163.981091 134.845017 
L 164.513455 136.659528 
L 165.312 140.260145 
L 166.376727 146.435688 
L 167.707636 156.144801 
L 169.304727 169.642102 
L 172.498909 196.951734 
L 173.297455 197.691714 
L 173.563636 197.432372 
L 174.628364 193.298317 
L 175.426909 191.166712 
L 175.959273 190.187722 
L 176.491636 189.553326 
L 176.757818 189.367694 
L 177.024 188.684843 
L 179.153455 178.083195 
L 185.009455 148.352465 
L 186.340364 143.102348 
L 187.405091 139.692989 
L 188.203636 137.654214 
L 189.002182 136.104802 
L 189.534545 135.354342 
L 190.066909 134.844613 
L 190.599273 134.584358 
L 191.131636 134.553688 
L 191.664 134.785079 
L 192.196364 135.244088 
L 192.728727 135.94799 
L 193.527273 137.421909 
L 194.325818 140.535445 
L 196.189091 149.263478 
L 197.52 154.934752 
L 198.318545 157.544317 
L 199.117091 159.314885 
L 199.383273 159.694364 
L 199.649455 155.79501 
L 200.448 139.096884 
L 201.246545 126.622639 
L 202.045091 117.672467 
L 202.843636 111.613585 
L 203.376 108.899209 
L 203.908364 107.067475 
L 204.440727 105.980899 
L 204.973091 105.515201 
L 205.239273 105.479843 
L 205.771636 105.776491 
L 206.304 106.429708 
L 207.102545 107.910018 
L 208.433455 111.140215 
L 210.030545 115.177457 
L 210.296727 115.514204 
L 210.829091 115.752688 
L 211.627636 116.430905 
L 212.692364 117.793395 
L 214.289455 119.933803 
L 214.821818 120.294971 
L 215.088 120.342022 
L 215.354182 120.273552 
L 215.620364 120.065528 
L 215.886545 119.692159 
L 216.418909 118.339079 
L 216.951273 115.982131 
L 217.483636 112.372754 
L 218.016 107.253027 
L 218.548364 100.359011 
L 219.346909 85.911652 
L 219.613091 81.153567 
L 219.879273 78.788017 
L 220.145455 77.455706 
L 220.411636 76.707844 
L 220.677818 76.530297 
L 220.944 76.916342 
L 221.210182 77.921421 
L 221.742545 81.443526 
L 222.274909 86.93434 
L 223.073455 98.2475 
L 224.138182 117.724872 
L 226.267636 163.278742 
L 229.195636 224.404265 
L 230.260364 240.53844 
L 231.058909 250.100352 
L 231.857455 257.501732 
L 232.656 262.669488 
L 233.188364 264.861398 
L 233.720727 266.023944 
L 233.986909 266.203584 
L 234.253091 266.104132 
L 234.519273 265.702427 
L 235.850182 247.104589 
L 236.914909 235.917268 
L 237.713455 229.65921 
L 238.512 225.221317 
L 239.044364 223.276108 
L 239.576727 222.140919 
L 239.842909 221.874897 
L 240.109091 221.81654 
L 240.375273 221.973888 
L 240.641455 222.324022 
L 241.173818 223.592761 
L 241.706182 225.605624 
L 242.504727 229.795614 
L 244.101818 239.351372 
L 244.900364 242.814032 
L 245.432727 244.468549 
L 245.965091 245.454817 
L 246.231273 245.67617 
L 246.497455 245.677856 
L 246.763636 245.463068 
L 247.029818 245.030091 
L 247.562182 243.476171 
L 248.094545 240.907113 
L 248.626909 237.86116 
L 248.893091 237.589811 
L 249.159273 237.630857 
L 249.425455 237.456532 
L 249.957818 236.533362 
L 250.490182 234.956711 
L 251.288727 231.649521 
L 252.353455 226.077449 
L 256.346182 203.742994 
L 257.677091 198.064152 
L 258.741818 194.471208 
L 259.806545 191.706059 
L 260.072727 191.134725 
L 260.605091 190.981836 
L 261.137455 190.572283 
L 261.669818 189.938142 
L 262.468364 188.603566 
L 263.799273 185.735801 
L 265.130182 182.860794 
L 265.928727 181.628545 
L 266.461091 181.240657 
L 266.727273 181.200716 
L 266.993455 181.285127 
L 267.259636 181.510786 
L 267.792 182.493122 
L 268.324364 184.248767 
L 268.856727 186.913555 
L 269.389091 190.630447 
L 269.921455 195.542527 
L 270.72 205.451281 
L 271.518545 218.603926 
L 272.849455 209.40168 
L 274.180364 201.77648 
L 276.043636 192.67973 
L 276.842182 188.68508 
L 278.173091 178.528765 
L 279.237818 168.156174 
L 280.036364 158.370586 
L 280.834909 146.344571 
L 281.899636 126.118932 
L 282.964364 100.253234 
L 283.496727 84.96895 
L 283.762909 82.895466 
L 285.093818 116.519213 
L 286.424727 144.104302 
L 287.489455 161.892235 
L 288.554182 175.992111 
L 289.352727 184.286285 
L 290.151273 190.738269 
L 290.949818 195.481571 
L 291.748364 198.651129 
L 292.280727 199.982773 
L 292.813091 200.725473 
L 293.345455 200.954355 
L 293.611636 200.817459 
L 293.877818 200.390482 
L 294.410182 198.783767 
L 294.942545 196.207471 
L 295.741091 190.699268 
L 296.539636 207.324615 
L 297.072 213.441906 
L 297.338182 215.23111 
L 297.604364 216.155764 
L 297.870545 216.40372 
L 298.136727 216.03194 
L 298.402909 215.094944 
L 298.935273 211.609277 
L 299.467636 206.512426 
L 300.266182 196.601855 
L 301.597091 176.49078 
L 304.525091 130.684161 
L 305.856 113.156782 
L 307.186909 98.700732 
L 308.251636 89.395906 
L 309.316364 81.975359 
L 309.848727 78.952396 
L 310.114909 75.375147 
L 310.913455 60.080715 
L 311.712 49.234534 
L 312.244364 45.23295 
L 312.510545 44.349887 
L 312.776727 44.3018 
L 313.042909 45.631161 
L 313.575273 75.613649 
L 314.64 136.454734 
L 315.704727 185.190723 
L 316.769455 223.014247 
L 317.568 245.003054 
L 318.366545 262.255669 
L 319.165091 275.379631 
L 319.963636 285.153645 
L 320.762182 292.361902 
L 321.826909 299.452765 
L 323.424 309.253866 
L 323.690182 311.283217 
L 323.956364 298.590621 
L 325.021091 227.135293 
L 326.085818 168.798137 
L 326.618182 144.380586 
L 327.150545 142.130222 
L 327.949091 137.36515 
L 328.747636 131.078124 
L 329.812364 120.781122 
L 331.409455 102.686499 
L 334.071273 72.297443 
L 335.136 62.453147 
L 335.934545 56.660015 
L 336.733091 52.501178 
L 337.265455 50.750572 
L 337.797818 49.902112 
L 338.064 49.808625 
L 338.330182 49.970704 
L 338.596364 50.370338 
L 339.128727 51.887411 
L 339.661091 54.38207 
L 340.193455 57.862514 
L 340.725818 70.06439 
L 343.121455 132.462138 
L 343.653818 139.858703 
L 345.517091 160.523038 
L 347.912727 186.771042 
L 349.243636 198.955344 
L 350.308364 206.67943 
L 351.106909 211.08825 
L 351.905455 214.23222 
L 352.437818 215.617972 
L 352.970182 216.447392 
L 353.502545 216.746296 
L 353.768727 216.70841 
L 354.301091 216.28957 
L 354.833455 215.442444 
L 355.632 213.517653 
L 356.430545 211.243606 
L 358.56 207.842279 
L 359.358545 206.913578 
L 359.890909 206.492035 
L 360.689455 201.097526 
L 361.488 194.315922 
L 362.552727 183.113042 
L 363.617455 169.533877 
L 364.948364 149.411179 
L 366.545455 121.083739 
L 368.408727 83.221679 
L 369.473455 59.764807 
L 369.739636 60.342619 
L 370.804364 113.880293 
L 371.602909 144.986927 
L 372.401455 168.486408 
L 373.2 185.145348 
L 373.732364 192.795233 
L 374.264727 197.902284 
L 374.797091 200.740186 
L 375.063273 201.35031 
L 375.329455 201.442129 
L 375.595636 201.07767 
L 375.861818 200.279781 
L 376.926545 195.634179 
L 377.725091 193.066495 
L 378.523636 189.294669 
L 379.322182 184.009106 
L 380.120727 176.889913 
L 380.919273 167.633594 
L 381.717818 155.994502 
L 382.782545 136.242373 
L 383.847273 111.429262 
L 384.912 81.300373 
L 386.509091 29.827053 
L 387.84 32.77728 
L 389.437091 36.39059 
L 390.235636 38.683458 
L 391.034182 41.52682 
L 391.832727 45.05119 
L 392.897455 50.947904 
L 393.163636 52.642296 
L 395.293091 56.013259 
L 396.624 58.622578 
L 397.688727 61.192835 
L 398.753455 64.399085 
L 399.552 67.365955 
L 400.350545 70.952281 
L 401.415273 77.026788 
L 402.213818 82.820307 
L 403.012364 89.970786 
L 403.810909 98.859775 
L 404.609455 109.935767 
L 405.408 123.769727 
L 406.206545 141.099475 
L 407.005091 162.892995 
L 407.803636 190.281885 
L 408.602182 224.746288 
L 409.134545 251.307768 
L 409.400727 255.544255 
L 409.666909 255.556264 
L 410.199273 255.094341 
L 410.731636 254.17879 
L 411.264 252.769543 
L 411.796364 250.848245 
L 412.594909 247.012028 
L 413.393455 242.076054 
L 414.458182 233.876008 
L 415.789091 221.390107 
L 417.386182 204.000843 
L 422.443636 146.984182 
L 423.774545 135.368422 
L 424.839273 128.046787 
L 425.637818 123.901785 
L 426.436364 121.03869 
L 426.436364 121.03869 
" clip-path="url(#pf25dfe87d5)" style="fill: none; stroke: #ffa500; stroke-width: 3; stroke-linecap: square"/>
   </g>
   <g id="line2d_2">
    <path d="M 27.163636 51.58539 
L 28.228364 70.171185 
L 29.293091 85.111138 
L 30.357818 97.005516 
L 31.422545 106.676426 
L 32.487273 114.564128 
L 33.552 121.047521 
L 34.616727 126.44978 
L 35.947636 132.072705 
L 37.278545 136.796344 
L 39.141818 142.442127 
L 41.803636 149.681545 
L 43.666909 154.627289 
L 43.933091 157.231342 
L 44.731636 167.836158 
L 45.264 172.597816 
L 45.796364 175.89434 
L 46.328727 178.124417 
L 47.127273 180.38434 
L 47.925818 182.752533 
L 48.458182 185.236571 
L 48.990545 189.047617 
L 49.522909 194.709464 
L 50.055273 202.741373 
L 50.587636 213.649465 
L 51.386182 236.482097 
L 52.184727 268.339042 
L 52.450909 281.26809 
L 52.717091 288.04101 
L 53.515636 255.041439 
L 54.846545 204.543086 
L 56.177455 163.564295 
L 57.242182 136.933055 
L 58.306909 115.132758 
L 59.371636 97.610769 
L 60.436364 83.737412 
L 60.968727 83.373927 
L 61.501091 82.577855 
L 62.033455 81.391419 
L 62.832 78.905152 
L 63.630545 75.707943 
L 64.695273 70.555123 
L 66.558545 60.214704 
L 68.688 48.69891 
L 69.752727 43.987543 
L 70.551273 41.196147 
L 71.349818 39.159496 
L 71.616 44.246779 
L 72.680727 80.983359 
L 73.479273 102.539588 
L 74.277818 118.827038 
L 75.076364 129.982981 
L 75.608727 134.737274 
L 76.141091 137.54698 
L 76.407273 138.305956 
L 76.673455 138.607432 
L 76.939636 138.56398 
L 77.738182 137.658094 
L 78.536727 136.26934 
L 79.601455 133.8119 
L 81.464727 128.706131 
L 83.328 123.76511 
L 84.392727 121.457477 
L 85.191273 120.139545 
L 85.989818 119.258571 
L 86.522182 118.939855 
L 87.054545 118.894998 
L 87.586909 119.136836 
L 88.119273 119.677394 
L 88.651636 120.542585 
L 89.450182 122.576392 
L 90.248727 125.55125 
L 91.845818 132.440105 
L 93.709091 134.759763 
L 94.773818 135.202445 
L 96.104727 136.049026 
L 100.097455 138.912806 
L 101.162182 139.275747 
L 101.960727 139.311702 
L 102.759273 139.098323 
L 103.557818 138.598812 
L 104.356364 137.781901 
L 105.154909 136.619482 
L 105.953455 135.088505 
L 107.018182 132.467861 
L 108.082909 129.172548 
L 109.413818 124.171204 
L 110.744727 119.073107 
L 111.543273 116.401217 
L 112.608 112.365222 
L 113.406545 110.229115 
L 113.938909 109.312958 
L 114.471273 108.841414 
L 115.003636 108.795118 
L 115.536 109.160552 
L 116.068364 109.907764 
L 116.866909 111.646766 
L 117.931636 114.81592 
L 121.125818 125.168102 
L 121.924364 126.96669 
L 122.722909 128.230461 
L 123.255273 128.783378 
L 123.787636 129.125199 
L 124.586182 129.280502 
L 125.384727 129.135908 
L 126.981818 128.579655 
L 128.312727 127.523066 
L 129.643636 126.033433 
L 130.708364 124.49905 
L 131.773091 122.542894 
L 132.571636 120.717041 
L 133.370182 118.469504 
L 134.434909 114.55844 
L 135.233455 110.702906 
L 136.032 105.826632 
L 136.298182 103.903851 
L 136.564364 104.517987 
L 136.830545 107.122075 
L 138.96 157.414015 
L 140.024727 178.515879 
L 141.089455 195.00139 
L 141.888 203.736006 
L 142.420364 207.720465 
L 142.952727 210.257119 
L 143.485091 211.578097 
L 144.017455 211.982804 
L 145.348364 212.31151 
L 145.880727 212.84494 
L 146.413091 213.844595 
L 146.945455 215.415671 
L 147.477818 217.640271 
L 148.276364 222.353437 
L 149.074909 228.949032 
L 149.873455 237.839803 
L 150.672 249.383696 
L 151.470545 264.292829 
L 152.269091 283.512704 
L 152.801455 299.283519 
L 153.067636 301.050732 
L 154.398545 282.117237 
L 155.729455 259.770776 
L 158.657455 207.983028 
L 159.189818 201.50269 
L 159.722182 197.618153 
L 159.988364 196.995054 
L 160.254545 197.466633 
L 160.520727 198.240049 
L 161.053091 200.813641 
L 161.585455 204.714497 
L 162.384 212.750136 
L 163.182545 223.100273 
L 164.247273 240.193749 
L 165.312 260.57559 
L 166.642909 287.437395 
L 166.909091 288.29571 
L 167.441455 287.856627 
L 167.973818 286.913502 
L 168.506182 285.549603 
L 169.304727 282.608764 
L 170.103273 278.618923 
L 170.901818 273.474038 
L 171.700364 267.045166 
L 172.765091 256.199798 
L 173.829818 242.326248 
L 174.894545 224.883859 
L 175.959273 203.306948 
L 177.024 180.557718 
L 177.556364 179.996979 
L 178.088727 179.058798 
L 178.621091 177.736705 
L 179.419636 174.996872 
L 180.218182 171.32632 
L 181.016727 166.673827 
L 182.081455 158.851663 
L 183.146182 149.088266 
L 184.210909 137.263569 
L 185.541818 119.447266 
L 186.872727 98.173114 
L 188.203636 73.52468 
L 189.534545 45.857286 
L 189.800727 47.422376 
L 191.397818 111.615095 
L 192.728727 157.519563 
L 193.527273 181.183748 
L 195.656727 202.095592 
L 199.117091 236.026591 
L 203.376 276.203311 
L 204.440727 289.183461 
L 205.505455 305.464778 
L 205.771636 304.122609 
L 207.634909 211.198021 
L 208.699636 171.266707 
L 209.498182 147.68954 
L 210.296727 129.746463 
L 211.095273 118.309479 
L 211.893818 109.756377 
L 212.692364 103.415927 
L 213.490909 98.712074 
L 214.289455 95.181963 
L 215.354182 91.591037 
L 217.483636 85.032942 
L 218.282182 81.738402 
L 219.080727 78.137802 
L 220.411636 93.901759 
L 224.404364 143.360109 
L 225.202909 149.869169 
L 225.735273 152.638637 
L 226.001455 153.43125 
L 226.267636 153.745999 
L 226.533818 153.572455 
L 226.8 152.790762 
L 227.066182 151.25766 
L 227.598545 145.963582 
L 228.130909 137.746191 
L 228.929455 119.877764 
L 229.728 95.716095 
L 230.792727 54.419939 
L 231.058909 57.007875 
L 232.123636 113.883735 
L 233.188364 156.989662 
L 234.253091 189.064638 
L 235.051636 207.392672 
L 235.850182 221.749923 
L 236.648727 232.771543 
L 237.447273 241.18423 
L 238.245818 247.45582 
L 239.044364 252.011691 
L 239.842909 255.244157 
L 240.641455 257.503308 
L 241.44 258.957951 
L 242.238545 259.879273 
L 243.037091 260.429329 
L 243.303273 260.540833 
L 243.569455 260.897401 
L 243.835636 260.753163 
L 244.101818 259.692874 
L 244.634182 255.217428 
L 245.166545 248.197568 
L 245.965091 234.224975 
L 248.094545 193.542463 
L 249.691636 170.797569 
L 250.756364 158.43593 
L 251.821091 148.964249 
L 252.619636 143.734848 
L 253.418182 139.98632 
L 254.216727 137.487622 
L 254.749091 136.396921 
L 255.281455 135.689333 
L 255.813818 135.30299 
L 256.612364 135.178164 
L 257.410909 135.387207 
L 260.072727 136.56095 
L 260.338909 139.138527 
L 260.871273 148.161646 
L 261.403636 162.162233 
L 262.202182 191.735597 
L 263.000727 230.55085 
L 264.065455 294.455545 
L 264.331636 295.601057 
L 265.396364 263.074143 
L 266.461091 238.391299 
L 267.525818 219.472417 
L 268.590545 204.908221 
L 269.655273 193.786355 
L 270.453818 187.386811 
L 271.252364 182.528998 
L 272.050909 179.226662 
L 272.583273 177.930991 
L 272.849455 177.557016 
L 273.115636 177.381524 
L 273.381818 177.416267 
L 273.648 177.642129 
L 274.180364 178.773666 
L 274.712727 180.827795 
L 275.245091 183.859439 
L 276.043636 190.317129 
L 276.576 195.935682 
L 277.108364 195.009764 
L 278.173091 192.571004 
L 279.237818 189.517397 
L 280.302545 185.851795 
L 281.633455 180.431312 
L 283.230545 172.797211 
L 285.093818 162.64015 
L 288.820364 140.538271 
L 290.949818 128.65592 
L 292.546909 120.998504 
L 293.345455 117.744992 
L 298.136727 79.672958 
L 299.733818 74.952339 
L 300.532364 73.188776 
L 301.064727 72.393301 
L 301.597091 72.009011 
L 301.863273 72.011926 
L 302.129455 72.15508 
L 302.395636 72.452342 
L 302.928 73.623522 
L 303.460364 75.650464 
L 303.992727 78.73691 
L 304.525091 83.095116 
L 305.057455 88.951697 
L 305.589818 96.587501 
L 306.388364 112.098911 
L 307.186909 133.633405 
L 307.985455 162.761376 
L 308.784 201.39514 
L 309.582545 250.929908 
L 309.848727 232.276991 
L 310.114909 223.296332 
L 310.381091 222.238988 
L 310.913455 218.68766 
L 311.712 210.379161 
L 312.776727 195.563866 
L 315.172364 160.912524 
L 315.970909 152.61706 
L 316.503273 148.601343 
L 317.035636 145.891725 
L 317.568 144.504972 
L 317.834182 144.298844 
L 318.100364 144.407025 
L 318.366545 144.851498 
L 318.898909 146.58906 
L 319.431273 149.341358 
L 320.229818 155.056733 
L 321.294545 164.600624 
L 323.690182 186.910904 
L 324.754909 194.616793 
L 325.553455 199.028413 
L 326.352 202.262947 
L 326.618182 203.100504 
L 327.150545 208.17418 
L 327.416727 210.181706 
L 327.949091 218.272446 
L 328.215273 220.675496 
L 328.481455 221.914522 
L 328.747636 222.119921 
L 329.013818 221.34619 
L 329.28 219.771085 
L 329.812364 214.650963 
L 330.610909 203.481616 
L 333.006545 165.861253 
L 333.538909 160.131674 
L 334.071273 156.327299 
L 334.337455 155.259456 
L 334.603636 154.829906 
L 334.869818 155.072955 
L 335.136 155.994677 
L 335.668364 160.200477 
L 336.200727 167.789652 
L 336.733091 179.046596 
L 337.265455 194.279361 
L 338.064 225.423749 
L 338.330182 238.16994 
L 338.596364 243.41795 
L 339.394909 249.955719 
L 339.927273 252.964058 
L 340.459636 254.866803 
L 340.725818 255.406553 
L 340.992 255.646139 
L 341.258182 255.587655 
L 341.524364 255.251346 
L 341.790545 254.587623 
L 342.322909 252.359902 
L 342.855273 248.80602 
L 343.387636 243.76725 
L 343.92 236.648584 
L 344.718545 222.358204 
L 345.517091 203.459899 
L 346.315636 179.691043 
L 347.380364 140.115709 
L 348.445091 91.545075 
L 349.509818 37.342211 
L 349.776 39.916101 
L 350.574545 56.066472 
L 351.373091 68.72439 
L 352.171636 78.49581 
L 352.970182 85.975767 
L 353.768727 91.689054 
L 354.567273 96.102965 
L 355.632 100.633749 
L 356.696727 104.207434 
L 358.027636 107.891338 
L 359.358545 110.899571 
L 359.890909 111.880054 
L 360.689455 117.864287 
L 361.488 125.712311 
L 362.286545 136.144901 
L 362.552727 142.99996 
L 363.617455 194.389132 
L 364.416 224.206283 
L 365.214545 246.79041 
L 366.013091 262.499504 
L 366.545455 269.349687 
L 367.077818 273.460621 
L 367.344 274.497257 
L 367.610182 274.914443 
L 367.876364 274.737383 
L 368.142545 273.915482 
L 368.674909 270.60877 
L 369.207273 265.149571 
L 370.005818 253.26833 
L 370.804364 237.537607 
L 371.869091 211.596276 
L 372.933818 181.135828 
L 373.998545 149.675348 
L 374.797091 132.389929 
L 375.595636 119.696126 
L 376.394182 110.770041 
L 377.192727 104.34102 
L 377.725091 101.412861 
L 378.257455 99.520839 
L 378.789818 98.467058 
L 379.056 98.215091 
L 379.322182 98.142197 
L 379.588364 98.271587 
L 380.120727 98.95895 
L 380.653091 100.230218 
L 381.451636 103.121087 
L 382.250182 107.149111 
L 383.314909 114.222904 
L 384.379636 123.31444 
L 385.444364 134.629548 
L 386.509091 148.529941 
L 387.573818 165.531546 
L 388.638545 186.239798 
L 389.703273 211.402464 
L 390.768 241.848314 
L 391.566545 268.729981 
L 391.832727 270.147843 
L 393.163636 255.016206 
L 394.494545 246.662469 
L 395.825455 239.764138 
L 396.890182 235.340939 
L 397.688727 232.75418 
L 398.487273 230.856575 
L 399.019636 230.021343 
L 399.552 229.570209 
L 400.084364 229.543962 
L 400.616727 229.988522 
L 401.149091 230.9602 
L 401.681455 232.537878 
L 402.213818 234.771071 
L 402.746182 237.732587 
L 403.544727 243.807199 
L 404.343273 252.119868 
L 405.141818 263.108948 
L 405.940364 277.290325 
L 406.472727 288.30961 
L 406.738909 285.610561 
L 408.069818 250.519886 
L 409.933091 199.049437 
L 410.997818 184.230982 
L 411.796364 176.061344 
L 412.594909 170.256642 
L 413.127273 167.585349 
L 413.659636 165.770241 
L 414.192 164.76611 
L 414.458182 164.554644 
L 414.724364 164.499377 
L 414.990545 164.585192 
L 415.522909 165.302278 
L 416.055273 166.533307 
L 416.853818 169.328424 
L 417.652364 173.072678 
L 418.450909 177.596246 
L 419.781818 186.804785 
L 421.112727 197.730794 
L 422.709818 213.45323 
L 424.040727 229.068766 
L 425.371636 247.938863 
L 426.436364 266.072404 
L 426.436364 266.072404 
" clip-path="url(#pf25dfe87d5)" style="fill: none; stroke: #ff0000; stroke-width: 3; stroke-linecap: square"/>
   </g>
   <g id="line2d_3">
    <path d="M 27.163636 31.635332 
L 27.962182 66.761001 
L 28.760727 93.770386 
L 29.559273 114.276047 
L 30.357818 129.474235 
L 31.156364 140.54554 
L 31.954909 148.222566 
L 32.753455 153.322542 
L 33.285818 155.543007 
L 33.818182 157.043489 
L 34.350545 157.933154 
L 34.882909 158.311228 
L 35.415273 158.267548 
L 35.947636 157.882644 
L 36.48 157.228234 
L 37.012364 156.367608 
L 37.810909 154.793091 
L 38.875636 152.373695 
L 42.602182 143.310689 
L 43.666909 140.93787 
L 43.933091 139.943114 
L 44.731636 134.784324 
L 45.530182 128.175334 
L 46.594909 117.151432 
L 47.925818 100.49537 
L 50.587636 66.197884 
L 51.386182 58.827074 
L 51.918545 55.442487 
L 52.184727 54.30247 
L 52.450909 53.727168 
L 52.717091 53.77292 
L 52.983273 54.28465 
L 53.249455 55.237903 
L 53.781818 58.364676 
L 54.314182 62.932012 
L 55.112727 72.023021 
L 56.443636 90.844632 
L 59.105455 129.595619 
L 60.170182 141.874971 
L 60.436364 144.52934 
L 61.501091 159.200401 
L 62.299636 167.206818 
L 62.832 170.924421 
L 63.364364 173.219413 
L 63.630545 173.803221 
L 63.896727 173.999834 
L 64.162909 173.796532 
L 64.429091 173.180008 
L 64.961455 170.650508 
L 65.493818 166.288221 
L 66.026182 159.952003 
L 66.558545 151.47994 
L 67.357091 134.346524 
L 68.155636 111.211142 
L 68.421818 102.007633 
L 68.688 99.516994 
L 69.752727 125.939086 
L 70.817455 147.264819 
L 71.616 159.872297 
L 72.414545 169.53177 
L 73.213091 176.144219 
L 73.745455 178.773139 
L 74.011636 179.57439 
L 74.277818 179.975569 
L 74.544 180.038227 
L 74.810182 179.721486 
L 75.076364 179.030576 
L 75.608727 176.537953 
L 76.141091 172.557849 
L 76.673455 167.112014 
L 76.939636 163.839998 
L 77.205818 161.968429 
L 77.738182 161.330645 
L 78.270545 160.377391 
L 79.069091 158.342373 
L 79.867636 155.572554 
L 80.932364 150.755516 
L 81.997091 144.658343 
L 83.061818 137.386358 
L 84.658909 124.640764 
L 86.788364 105.768626 
L 87.054545 105.606757 
L 87.320727 108.410196 
L 88.385455 127.716518 
L 89.184 139.076079 
L 89.982545 147.876005 
L 90.781091 154.363453 
L 91.579636 158.865287 
L 92.112 160.933012 
L 92.644364 162.350489 
L 93.176727 163.197263 
L 93.709091 163.617315 
L 93.975273 163.66965 
L 94.241455 163.273001 
L 94.507636 162.390763 
L 95.04 159.504827 
L 95.572364 155.25052 
L 96.370909 146.815711 
L 97.435636 132.581029 
L 99.032727 107.244495 
L 102.493091 50.492846 
L 103.291636 40.216928 
L 104.356364 69.48944 
L 106.219636 117.911355 
L 107.550545 146.8247 
L 108.615273 164.706822 
L 109.413818 173.905179 
L 109.946182 177.506516 
L 110.212364 178.419416 
L 110.478545 178.679371 
L 110.744727 178.281142 
L 111.010909 177.260482 
L 111.543273 173.458284 
L 112.075636 167.56221 
L 112.874182 155.303803 
L 113.140364 150.426371 
L 114.471273 114.421027 
L 115.003636 105.608057 
L 115.536 99.589905 
L 116.068364 95.876366 
L 116.600727 94.072757 
L 116.866909 93.786169 
L 117.133091 93.902181 
L 117.399273 94.347829 
L 117.931636 96.133338 
L 118.464 98.972152 
L 119.262545 104.952242 
L 120.327273 115.45934 
L 121.392 128.302161 
L 122.722909 146.983391 
L 124.852364 180.760896 
L 126.715636 209.648627 
L 126.981818 204.312045 
L 127.514182 202.386367 
L 128.312727 198.384282 
L 129.643636 190.008086 
L 130.974545 181.638851 
L 131.773091 177.612617 
L 132.305455 175.595532 
L 132.837818 174.316733 
L 133.104 173.952037 
L 133.370182 173.780275 
L 133.636364 173.812245 
L 133.902545 174.056374 
L 134.168727 174.534931 
L 134.701091 176.169737 
L 135.233455 178.684226 
L 136.032 184.071721 
L 136.830545 191.25912 
L 137.895273 203.19314 
L 139.492364 224.409479 
L 142.154182 260.315977 
L 143.218909 272.14713 
L 143.751273 277.978329 
L 144.549818 287.624762 
L 145.082182 291.621867 
L 145.348364 292.878653 
L 145.614545 284.544912 
L 146.413091 246.724017 
L 147.211636 217.482852 
L 148.010182 195.242288 
L 148.808727 178.823184 
L 149.607273 167.116983 
L 150.405818 159.337937 
L 150.938182 156.002086 
L 151.470545 153.973792 
L 152.002909 153.062955 
L 152.269091 152.986918 
L 152.535273 153.159865 
L 152.801455 153.560201 
L 153.333818 154.952361 
L 153.866182 157.04284 
L 154.664727 161.289721 
L 155.729455 168.296343 
L 157.592727 180.702513 
L 158.125091 183.211595 
L 158.657455 184.714008 
L 160.254545 141.923216 
L 161.053091 138.118121 
L 161.851636 133.147219 
L 163.182545 123.113315 
L 165.045818 108.67735 
L 165.844364 103.848531 
L 166.376727 101.573554 
L 166.909091 100.306377 
L 167.175273 100.120315 
L 167.441455 100.303129 
L 167.707636 100.876973 
L 167.973818 101.854121 
L 168.506182 105.188918 
L 169.038545 110.640089 
L 169.570909 118.544224 
L 170.103273 129.19804 
L 170.901818 151.080043 
L 171.700364 181.269107 
L 172.498909 220.965465 
L 173.297455 267.956315 
L 173.563636 268.045576 
L 174.096 263.818849 
L 174.628364 261.02069 
L 175.160727 259.202887 
L 176.491636 255.477217 
L 177.024 253.55351 
L 179.153455 253.163962 
L 180.750545 252.632766 
L 181.815273 252.086108 
L 182.88 251.32072 
L 183.944727 250.218756 
L 185.009455 248.637541 
L 185.808 247.027108 
L 186.606545 244.913772 
L 187.405091 242.157515 
L 188.203636 238.480493 
L 189.002182 233.641167 
L 189.800727 227.224435 
L 190.599273 218.723045 
L 191.397818 207.457366 
L 192.196364 192.566501 
L 192.994909 172.856832 
L 193.527273 156.340097 
L 194.325818 115.620033 
L 195.656727 32.647329 
L 196.721455 57.982389 
L 197.786182 78.583907 
L 198.850909 94.844496 
L 199.915636 107.128781 
L 200.714182 113.89548 
L 201.512727 118.611359 
L 202.045091 120.677154 
L 202.577455 121.843241 
L 202.843636 122.109008 
L 203.109818 122.162801 
L 203.376 121.99024 
L 203.642182 121.585972 
L 204.174545 120.128362 
L 204.706909 117.772257 
L 205.239273 114.46727 
L 206.037818 107.718567 
L 206.836364 98.679331 
L 207.634909 87.15051 
L 208.433455 72.954592 
L 208.699636 67.600999 
L 208.965818 70.963675 
L 209.764364 97.470933 
L 210.829091 124.187935 
L 211.361455 130.827666 
L 211.627636 132.414438 
L 211.893818 133.014617 
L 212.16 132.732382 
L 212.426182 131.645174 
L 212.958545 127.636058 
L 213.757091 118.293011 
L 216.418909 82.490214 
L 217.217455 75.822287 
L 217.749818 73.240356 
L 218.016 72.586595 
L 218.282182 72.366211 
L 218.548364 72.567986 
L 218.814545 73.199906 
L 219.346909 75.884103 
L 219.879273 80.343433 
L 220.411636 100.212117 
L 221.476364 138.70034 
L 222.541091 167.826432 
L 223.605818 189.489956 
L 224.404364 201.706474 
L 225.202909 211.170352 
L 226.001455 218.360332 
L 227.598545 229.833482 
L 228.397091 234.153854 
L 228.929455 235.904724 
L 229.461818 236.76772 
L 229.728 236.85587 
L 229.994182 236.70824 
L 230.260364 236.319807 
L 230.792727 234.801768 
L 231.325091 232.243187 
L 231.857455 228.632686 
L 232.656 221.197234 
L 233.454545 211.255298 
L 234.253091 198.728482 
L 235.317818 177.854341 
L 236.382545 152.125133 
L 237.447273 121.472277 
L 237.713455 113.025671 
L 237.979636 108.231632 
L 238.245818 112.630409 
L 240.375273 167.672428 
L 241.706182 197.399998 
L 242.770909 216.920648 
L 243.569455 227.683848 
L 244.368 233.296098 
L 245.166545 237.284656 
L 245.698909 238.960894 
L 246.231273 239.839147 
L 246.497455 239.976306 
L 246.763636 239.909302 
L 247.029818 239.636197 
L 247.562182 238.465772 
L 248.094545 236.428805 
L 248.626909 233.502007 
L 249.425455 227.507873 
L 250.224 219.563236 
L 251.288727 205.920753 
L 252.353455 188.926163 
L 253.684364 163.247369 
L 254.482909 145.678012 
L 255.015273 142.029467 
L 257.144727 131.150052 
L 258.741818 124.163813 
L 260.338909 117.810968 
L 261.137455 113.930926 
L 261.936 111.318762 
L 262.468364 110.223303 
L 263.000727 109.621632 
L 263.533091 109.434482 
L 263.799273 109.481445 
L 264.331636 109.898231 
L 264.864 110.630732 
L 265.662545 112.338993 
L 266.461091 114.714936 
L 267.259636 117.728085 
L 268.058182 121.386866 
L 269.122909 127.413146 
L 270.187636 134.976671 
L 271.252364 144.651672 
L 272.050909 153.640609 
L 272.849455 164.576818 
L 273.648 177.96196 
L 274.446545 194.518504 
L 275.245091 215.002835 
L 276.043636 240.59426 
L 276.842182 270.424183 
L 277.906909 196.641611 
L 278.705455 162.14666 
L 279.237818 146.990835 
L 279.770182 136.446939 
L 280.302545 129.350411 
L 280.834909 124.653053 
L 281.367273 121.50444 
L 283.496727 111.317217 
L 284.029091 106.7828 
L 284.561455 100.615016 
L 285.093818 92.446151 
L 285.892364 75.590703 
L 286.690909 52.17809 
L 286.957091 42.709586 
L 287.489455 70.427875 
L 288.554182 126.956261 
L 289.618909 173.316605 
L 290.683636 209.295219 
L 291.482182 229.066545 
L 292.014545 238.481371 
L 292.546909 244.666606 
L 292.813091 246.49636 
L 293.079273 247.383119 
L 293.345455 247.377786 
L 293.611636 246.733014 
L 294.144 244.079537 
L 294.676364 239.795555 
L 295.474909 230.787148 
L 296.539636 215.011806 
L 297.870545 191.294338 
L 300.266182 143.038022 
L 301.863273 110.008695 
L 302.395636 106.224563 
L 303.194182 112.758307 
L 304.525091 122.652445 
L 305.856 130.850735 
L 307.453091 139.107716 
L 309.316364 147.380567 
L 310.114909 151.051637 
L 312.244364 165.901737 
L 314.107636 177.534123 
L 317.834182 200.00564 
L 318.898909 208.21614 
L 319.963636 218.396059 
L 321.028364 231.343331 
L 322.093091 247.911379 
L 322.625455 257.845958 
L 322.891636 257.44995 
L 323.690182 247.963003 
L 324.488727 241.499479 
L 325.021091 238.679423 
L 325.553455 236.948348 
L 326.085818 236.125959 
L 326.352 236.045973 
L 327.150545 236.433133 
L 327.682909 236.973164 
L 328.215273 237.754357 
L 329.013818 239.431561 
L 329.812364 241.63368 
L 331.143273 246.083371 
L 332.740364 251.32481 
L 333.538909 253.189823 
L 334.071273 253.945107 
L 334.603636 254.21313 
L 334.869818 254.141311 
L 335.136 253.916367 
L 335.668364 252.981438 
L 336.200727 251.387061 
L 336.733091 249.113773 
L 337.531636 244.447859 
L 338.330182 238.847709 
L 338.596364 238.905504 
L 339.128727 242.037009 
L 339.661091 244.113526 
L 340.193455 245.368268 
L 340.725818 245.948977 
L 341.258182 246.054486 
L 341.790545 245.856746 
L 342.322909 245.487089 
L 343.121455 244.850407 
L 343.387636 243.843659 
L 343.92 238.377368 
L 344.718545 226.605129 
L 346.315636 201.323783 
L 347.114182 192.374769 
L 347.646545 188.954385 
L 347.912727 188.128607 
L 348.178909 187.973665 
L 348.445091 188.531621 
L 348.711273 189.784173 
L 349.243636 194.693654 
L 349.776 202.907587 
L 350.308364 214.656502 
L 350.840727 230.149232 
L 351.106909 239.304251 
L 351.905455 207.783588 
L 352.704 186.069353 
L 353.236364 176.123177 
L 353.768727 169.080705 
L 354.301091 164.398306 
L 354.833455 161.569147 
L 355.365818 160.137924 
L 355.898182 159.597805 
L 357.229091 159.162339 
L 357.495273 158.781104 
L 358.027636 157.192279 
L 358.56 154.108378 
L 359.092364 148.978961 
L 359.624727 141.20318 
L 360.157091 132.962281 
L 361.221818 118.432443 
L 362.552727 96.604882 
L 363.883636 71.521263 
L 365.480727 37.844566 
L 366.013091 25.789917 
L 366.279273 23.227297 
L 366.545455 21.927273 
L 366.811636 24.247177 
L 368.674909 46.977658 
L 371.336727 76.310949 
L 376.660364 132.424287 
L 377.725091 140.880935 
L 381.185455 171.449863 
L 381.984 176.11138 
L 382.516364 178.196223 
L 383.048727 179.299687 
L 383.314909 179.473881 
L 383.581091 179.350302 
L 383.847273 178.934648 
L 384.113455 178.235505 
L 384.645818 175.878004 
L 385.178182 172.247252 
L 385.710545 167.284856 
L 386.509091 157.309976 
L 387.041455 149.720801 
L 387.573818 144.628972 
L 388.106182 141.262363 
L 388.638545 139.523642 
L 388.904727 139.233647 
L 389.170909 139.298991 
L 389.437091 139.68149 
L 389.703273 140.383566 
L 390.235636 142.675836 
L 390.768 145.945657 
L 391.566545 152.400065 
L 392.897455 165.676174 
L 393.696 173.269501 
L 397.688727 210.362272 
L 400.084364 231.300924 
L 402.213818 248.005028 
L 404.077091 260.932123 
L 405.940364 272.288915 
L 407.803636 282.15389 
L 409.666909 290.677643 
L 410.465455 293.561854 
L 410.997818 296.642454 
L 411.796364 303.205909 
L 412.594909 311.96114 
L 412.861091 315.340691 
L 413.127273 316.472727 
L 413.393455 314.345961 
L 414.990545 266.593105 
L 418.184727 168.560671 
L 419.249455 142.319549 
L 420.048 126.583945 
L 420.846545 114.891061 
L 421.378909 109.557271 
L 421.911273 106.364767 
L 422.177455 105.611533 
L 422.443636 105.397258 
L 422.709818 105.744557 
L 422.976 106.689787 
L 423.242182 108.159984 
L 423.774545 112.909221 
L 424.306909 119.924375 
L 425.105455 134.567101 
L 425.904 153.881621 
L 426.436364 169.105969 
L 426.436364 169.105969 
" clip-path="url(#pf25dfe87d5)" style="fill: none; stroke: #0000ff; stroke-width: 3; stroke-linecap: square"/>
   </g>
   <g id="patch_3">
    <path d="M 7.2 331.2 
L 7.2 7.2 
" style="fill: none; stroke: #000000; stroke-width: 0.8; stroke-linejoin: miter; stroke-linecap: square"/>
   </g>
   <g id="patch_4">
    <path d="M 446.4 331.2 
L 446.4 7.2 
" style="fill: none; stroke: #000000; stroke-width: 0.8; stroke-linejoin: miter; stroke-linecap: square"/>
   </g>
   <g id="patch_5">
    <path d="M 7.2 331.2 
L 446.4 331.2 
" style="fill: none; stroke: #000000; stroke-width: 0.8; stroke-linejoin: miter; stroke-linecap: square"/>
   </g>
   <g id="patch_6">
    <path d="M 7.2 7.2 
L 446.4 7.2 
" style="fill: none; stroke: #000000; stroke-width: 0.8; stroke-linejoin: miter; stroke-linecap: square"/>
   </g>
  </g>
 </g>
 <defs>
  <clipPath id="pf25dfe87d5">
   <rect x="7.2" y="7.2" width="439.2" height="324"/>
  </clipPath>
 </defs>
</svg>
