<?xml version="1.0" encoding="utf-8" standalone="no"?>
<!DOCTYPE svg PUBLIC "-//W3C//DTD SVG 1.1//EN"
  "http://www.w3.org/Graphics/SVG/1.1/DTD/svg11.dtd">
<svg xmlns:xlink="http://www.w3.org/1999/xlink" width="453.6pt" height="338.4pt" viewBox="0 0 453.6 338.4" xmlns="http://www.w3.org/2000/svg" version="1.1">
 <metadata>
  <rdf:RDF xmlns:dc="http://purl.org/dc/elements/1.1/" xmlns:cc="http://creativecommons.org/ns#" xmlns:rdf="http://www.w3.org/1999/02/22-rdf-syntax-ns#">
   <cc:Work>
    <dc:type rdf:resource="http://purl.org/dc/dcmitype/StillImage"/>
    <dc:date>2025-05-15T18:22:18.454032</dc:date>
    <dc:format>image/svg+xml</dc:format>
    <dc:creator>
     <cc:Agent>
      <dc:title>Matplotlib v3.10.1, https://matplotlib.org/</dc:title>
     </cc:Agent>
    </dc:creator>
   </cc:Work>
  </rdf:RDF>
 </metadata>
 <defs>
  <style type="text/css">*{stroke-linejoin: round; stroke-linecap: butt}</style>
 </defs>
 <g id="figure_1">
  <g id="patch_1">
   <path d="M 0 338.4 
L 453.6 338.4 
L 453.6 0 
L 0 0 
z
" style="fill: #ffffff"/>
  </g>
  <g id="axes_1">
   <g id="patch_2">
    <path d="M 7.2 331.2 
L 446.4 331.2 
L 446.4 7.2 
L 7.2 7.2 
z
" style="fill: #ffffff"/>
   </g>
   <g id="matplotlib.axis_1"/>
   <g id="matplotlib.axis_2"/>
   <g id="line2d_1">
    <path d="M 27.163636 260.220587 
L 28.831907 262.647052 
L 30.222132 264.436672 
L 31.056267 265.237842 
L 31.890403 265.705878 
L 32.446493 265.813585 
L 33.280628 265.68693 
L 34.114763 265.280277 
L 35.226944 264.449962 
L 36.617169 263.105619 
L 37.729349 261.718472 
L 38.563484 260.383632 
L 39.675665 258.112276 
L 41.06589 254.601429 
L 43.290251 248.842054 
L 44.958521 245.253789 
L 48.573107 237.990315 
L 49.129197 237.346553 
L 49.685287 237.083718 
L 49.963332 237.120345 
L 50.519423 237.559676 
L 51.075513 238.49314 
L 51.631603 239.881475 
L 52.465738 242.600887 
L 54.134009 248.416951 
L 54.690099 249.84456 
L 55.246189 250.778467 
L 55.524234 251.031993 
L 55.802279 251.133971 
L 56.080324 251.081211 
L 56.358369 250.873618 
L 56.914459 250.009016 
L 57.47055 248.600785 
L 58.304685 245.70501 
L 60.80709 236.161346 
L 61.363181 234.842604 
L 61.919271 234.048611 
L 62.197316 233.861348 
L 62.475361 233.814827 
L 62.753406 233.905973 
L 63.309496 234.475065 
L 63.865586 235.492818 
L 64.699721 237.624369 
L 66.924082 243.935181 
L 67.758217 245.638526 
L 68.592352 246.806116 
L 69.426488 247.525974 
L 70.260623 247.946455 
L 71.928893 248.450717 
L 73.319119 248.927936 
L 74.431299 249.54035 
L 75.265434 250.245493 
L 76.09957 251.246797 
L 76.933705 252.577447 
L 78.045885 254.784152 
L 79.992201 258.782019 
L 80.826336 259.999262 
L 81.382426 260.500123 
L 81.938516 260.708711 
L 82.494606 260.603056 
L 83.050696 260.175496 
L 83.606787 259.435086 
L 84.440922 257.794817 
L 85.553102 254.828921 
L 87.499418 248.600462 
L 89.723778 241.625127 
L 90.835958 238.791468 
L 91.670094 237.350254 
L 92.226184 236.881886 
L 92.504229 236.827141 
L 92.782274 236.902475 
L 93.338364 237.458738 
L 93.894454 238.547741 
L 94.72859 241.032684 
L 97.230995 249.800999 
L 97.787085 250.998251 
L 98.343175 251.757334 
L 98.899266 252.126976 
L 99.455356 252.212786 
L 101.123626 252.173711 
L 101.679716 252.477781 
L 102.235807 253.052892 
L 103.069942 254.399051 
L 104.460167 257.400875 
L 105.572347 259.706919 
L 106.406483 261.023933 
L 107.240618 261.877931 
L 107.796708 262.192195 
L 108.352798 262.32489 
L 109.186933 262.247556 
L 110.299114 261.812713 
L 112.523474 260.80011 
L 113.635655 260.579219 
L 116.972195 260.237034 
L 117.528286 259.892201 
L 118.084376 259.364587 
L 118.640466 258.615222 
L 119.196556 257.599255 
L 120.030691 255.454915 
L 120.864827 252.394151 
L 121.698962 248.267901 
L 122.533097 243.059802 
L 124.201367 230.626802 
L 125.313548 223.00348 
L 125.869638 220.14871 
L 126.425728 218.225198 
L 126.703773 217.659232 
L 126.981818 217.371328 
L 127.259863 217.364756 
L 127.537908 217.636755 
L 127.815953 218.17858 
L 128.372044 220.009553 
L 128.928134 222.688344 
L 130.040314 229.666113 
L 131.708584 240.510484 
L 132.54272 244.707817 
L 133.376855 247.67054 
L 133.932945 248.960998 
L 134.489035 249.772081 
L 135.045125 250.20357 
L 135.879261 250.422605 
L 136.991441 250.637492 
L 137.547531 250.969284 
L 138.103621 251.544421 
L 138.937756 252.881565 
L 140.049937 255.273162 
L 141.440162 258.178858 
L 142.274297 259.339001 
L 142.830387 259.778267 
L 143.386478 259.963078 
L 143.942568 259.941782 
L 145.054748 259.58143 
L 145.888883 259.345954 
L 146.723018 259.355109 
L 147.557154 259.649088 
L 149.503469 260.550224 
L 150.059559 260.541419 
L 150.61565 260.305534 
L 151.17174 259.821933 
L 152.005875 258.656363 
L 153.118055 256.48164 
L 154.508281 253.22432 
L 155.620461 250.131248 
L 156.454596 247.157369 
L 157.288731 243.232463 
L 158.122867 238.120167 
L 159.235047 229.613924 
L 161.181362 213.954979 
L 162.015498 208.823976 
L 162.849633 205.108794 
L 163.961813 201.578451 
L 164.795948 198.868716 
L 165.630084 195.137769 
L 166.464219 189.942575 
L 167.576399 181.048728 
L 171.747075 144.439433 
L 172.58121 133.480733 
L 173.415346 118.767377 
L 174.527526 93.286646 
L 176.473841 44.820246 
L 177.307977 30.207139 
L 177.864067 24.377563 
L 178.142112 22.7385 
L 178.420157 21.935794 
L 178.698202 21.927273 
L 178.976247 22.648781 
L 179.532337 25.926821 
L 180.366473 33.75555 
L 181.478653 44.721443 
L 182.034743 48.784092 
L 182.590833 51.410326 
L 182.868878 52.172923 
L 183.146923 52.594453 
L 183.424968 52.709548 
L 183.703013 52.560657 
L 184.259104 51.655854 
L 185.093239 49.435985 
L 186.761509 44.790292 
L 187.595644 43.15676 
L 188.151735 42.626216 
L 188.42978 42.623269 
L 188.707825 42.850961 
L 188.98587 43.356808 
L 189.263915 44.191404 
L 189.820005 47.050081 
L 190.376095 51.793755 
L 190.932185 58.656703 
L 191.766321 72.922532 
L 192.878501 97.675458 
L 194.824816 142.246731 
L 195.658952 156.213701 
L 196.215042 162.981558 
L 196.771132 167.777356 
L 197.327222 170.859052 
L 197.883312 172.590839 
L 198.439402 173.379759 
L 198.995493 173.617027 
L 200.663763 173.80794 
L 201.219853 174.235506 
L 201.775943 174.977177 
L 202.332033 176.071 
L 202.888124 177.5611 
L 203.722259 180.667371 
L 204.556394 184.98932 
L 205.390529 190.626235 
L 206.50271 199.958683 
L 209.005115 222.236701 
L 209.83925 227.466179 
L 210.395341 229.884576 
L 210.951431 231.425435 
L 211.507521 232.165177 
L 211.785566 232.279872 
L 212.063611 232.25551 
L 212.619701 231.893651 
L 214.566017 229.924832 
L 215.122107 229.731218 
L 215.678197 229.778991 
L 216.234287 230.028098 
L 217.346467 230.858701 
L 220.683008 233.718569 
L 221.517144 234.933182 
L 222.629324 237.038815 
L 224.297594 240.276083 
L 224.853684 241.031752 
L 225.409775 241.506652 
L 225.965865 241.668084 
L 226.521955 241.518152 
L 227.078045 241.095904 
L 227.91218 240.107019 
L 229.580451 237.940574 
L 230.414586 237.26455 
L 230.970676 237.042516 
L 231.526766 236.998274 
L 232.360901 237.217994 
L 233.195037 237.713196 
L 234.029172 238.468844 
L 234.863307 239.561284 
L 235.697442 241.127794 
L 236.531578 243.286432 
L 237.643758 247.049511 
L 239.868119 255.083256 
L 240.424209 256.438618 
L 240.980299 257.304322 
L 241.536389 257.62961 
L 241.814434 257.588166 
L 242.370524 257.122761 
L 242.926614 256.211169 
L 243.76075 254.229083 
L 247.653381 243.801281 
L 248.487516 242.326007 
L 249.043606 241.642855 
L 249.599696 241.277281 
L 250.155786 241.297573 
L 250.711876 241.759464 
L 251.267967 242.692199 
L 251.824057 244.086611 
L 252.658192 246.91687 
L 255.716688 258.658587 
L 256.272778 259.963991 
L 256.828868 260.856382 
L 257.384958 261.358495 
L 257.941048 261.528545 
L 258.497139 261.446541 
L 259.331274 261.038187 
L 260.999544 259.889982 
L 261.833679 259.079291 
L 262.38977 258.270382 
L 262.94586 257.110714 
L 263.50195 255.492042 
L 264.336085 252.059672 
L 265.17022 247.438987 
L 266.838491 236.224725 
L 267.950671 229.480472 
L 268.784806 225.924579 
L 269.340896 224.484192 
L 269.896987 223.816928 
L 270.175032 223.762023 
L 270.453077 223.880892 
L 271.009167 224.590903 
L 271.565257 225.83716 
L 272.399392 228.465907 
L 273.511573 232.906941 
L 275.735933 243.162278 
L 277.126159 249.035265 
L 277.960294 251.720021 
L 278.794429 253.563245 
L 279.350519 254.337365 
L 279.906609 254.812498 
L 280.740744 255.149361 
L 284.077285 255.780572 
L 284.633376 255.695383 
L 285.189466 255.412045 
L 285.745556 254.894078 
L 286.579691 253.675961 
L 287.691871 251.453465 
L 289.360142 248.109762 
L 290.194277 246.922118 
L 291.028412 246.103148 
L 292.418638 244.930482 
L 292.974728 244.232437 
L 293.530818 243.256496 
L 294.086908 241.940082 
L 294.921043 239.290971 
L 296.033224 234.662739 
L 297.701494 226.352088 
L 299.64781 215.530617 
L 302.98435 195.862144 
L 303.818486 192.609566 
L 304.374576 191.16876 
L 304.930666 190.289326 
L 305.486756 189.877878 
L 306.042846 189.788224 
L 307.711117 189.851758 
L 308.545252 189.527552 
L 309.379387 189.16336 
L 309.935477 189.171131 
L 310.491567 189.591909 
L 311.047658 190.561026 
L 311.603748 192.133276 
L 312.437883 195.477956 
L 314.106153 202.848225 
L 314.662244 204.39853 
L 314.940289 204.857574 
L 315.218334 205.082132 
L 315.496379 205.065494 
L 315.774424 204.810707 
L 316.330514 203.647103 
L 317.164649 200.723368 
L 318.27683 196.555994 
L 318.83292 195.295153 
L 319.110965 195.030047 
L 319.38901 195.051422 
L 319.667055 195.38033 
L 319.9451 196.028013 
L 320.50119 198.273554 
L 321.05728 201.672416 
L 321.891416 208.327221 
L 323.559686 222.504071 
L 324.393821 227.775599 
L 324.949911 230.24728 
L 325.506002 231.923938 
L 326.062092 232.937503 
L 326.618182 233.465574 
L 327.174272 233.690276 
L 328.286452 233.770878 
L 331.622993 233.822973 
L 332.179083 234.018887 
L 332.735173 234.405674 
L 333.291264 235.028447 
L 334.125399 236.414609 
L 336.349759 240.793958 
L 336.90585 241.313432 
L 337.183895 241.394391 
L 337.46194 241.341364 
L 337.739985 241.147223 
L 338.296075 240.322734 
L 338.852165 238.925198 
L 339.6863 235.876594 
L 340.798481 230.582488 
L 343.300886 218.044124 
L 344.413067 213.656553 
L 345.247202 211.123231 
L 346.081337 209.3506 
L 346.637427 208.652106 
L 347.193517 208.381714 
L 347.471562 208.414138 
L 348.027653 208.816394 
L 348.583743 209.652333 
L 349.139833 210.875276 
L 349.973968 213.257035 
L 353.588554 224.489688 
L 354.978779 228.816627 
L 356.09096 233.292324 
L 357.481185 240.206678 
L 359.149456 248.450493 
L 359.983591 251.534116 
L 360.539681 253.00999 
L 361.095771 254.004719 
L 361.651861 254.557491 
L 362.207951 254.744009 
L 362.764042 254.657208 
L 363.598177 254.213151 
L 364.988402 253.114359 
L 365.822537 252.222626 
L 366.656673 250.929682 
L 367.490808 249.016684 
L 368.324943 246.391777 
L 369.715168 240.912938 
L 370.827349 236.655447 
L 371.661484 234.276068 
L 372.217574 233.247046 
L 372.773664 232.684377 
L 373.329754 232.5391 
L 373.885845 232.709551 
L 375.83216 233.803551 
L 376.38825 233.75268 
L 376.94434 233.416168 
L 377.50043 232.7968 
L 378.334566 231.41344 
L 379.446746 228.983778 
L 380.836971 225.400162 
L 382.505242 220.403078 
L 384.729602 212.892865 
L 385.563738 209.308181 
L 386.119828 206.046887 
L 386.675918 201.557913 
L 387.232008 195.309632 
L 387.788098 186.806992 
L 388.622233 169.138726 
L 389.456369 145.708384 
L 391.958774 68.072905 
L 392.514865 57.502718 
L 393.070955 51.776539 
L 393.349 50.870957 
L 393.627045 51.277321 
L 393.90509 52.958226 
L 394.46118 59.836223 
L 395.01727 70.619198 
L 396.12945 98.950215 
L 397.519676 134.378444 
L 398.353811 150.915746 
L 399.187946 163.450626 
L 400.300127 176.246748 
L 402.246442 197.951153 
L 404.748848 227.353084 
L 405.582983 234.389036 
L 406.417118 239.451948 
L 407.251253 242.94049 
L 408.363434 246.255848 
L 411.143885 253.283328 
L 411.699975 254.286927 
L 412.256065 254.931263 
L 412.812155 255.135218 
L 413.0902 255.056055 
L 413.64629 254.526392 
L 414.20238 253.517248 
L 414.75847 252.069829 
L 415.592606 249.19386 
L 416.704786 244.280766 
L 417.816966 238.165619 
L 418.929147 230.58208 
L 420.319372 219.025329 
L 421.987642 204.885233 
L 422.821778 199.73536 
L 423.377868 197.625539 
L 423.655913 197.035822 
L 423.933958 196.772752 
L 424.212003 196.840489 
L 424.490048 197.236686 
L 425.046138 198.972762 
L 425.602228 201.841001 
L 426.436364 207.788235 
L 426.436364 207.788235 
" clip-path="url(#p562bde1298)" style="fill: none; stroke-dasharray: 11.1,4.8; stroke-dashoffset: 0; stroke: #000000; stroke-width: 3"/>
   </g>
   <g id="line2d_2">
    <path d="M 27.163636 238.289951 
L 27.441681 232.436761 
L 27.719727 231.292857 
L 28.275817 288.161136 
L 28.553862 292.004455 
L 28.831907 263.891367 
L 29.387997 239.897601 
L 29.666042 234.131242 
L 29.944087 234.552064 
L 30.500177 267.044779 
L 30.778222 275.598193 
L 31.056267 263.928124 
L 31.334312 243.672028 
L 31.612358 239.341637 
L 31.890403 238.323299 
L 32.168448 249.792584 
L 32.446493 266.159374 
L 32.724538 271.901642 
L 33.002583 274.181839 
L 33.280628 257.762737 
L 33.836718 239.204401 
L 34.114763 237.035515 
L 34.392808 248.217661 
L 34.670853 267.504915 
L 34.948898 275.494696 
L 35.226944 270.540257 
L 35.783034 236.886985 
L 36.061079 235.90601 
L 36.339124 234.074525 
L 36.617169 231.187554 
L 37.173259 287.781519 
L 37.451304 298.152583 
L 37.729349 275.611365 
L 38.007394 231.846293 
L 38.285439 224.517866 
L 38.563484 222.690612 
L 38.84153 233.799359 
L 39.675665 289.470324 
L 40.231755 230.127447 
L 40.5098 223.279982 
L 40.787845 222.054836 
L 41.343935 254.200042 
L 41.62198 265.378303 
L 41.900025 262.688781 
L 42.17807 240.118057 
L 42.456115 229.182985 
L 42.734161 223.37737 
L 43.012206 222.728221 
L 43.568296 257.431447 
L 43.846341 265.064272 
L 44.124386 255.689507 
L 44.402431 233.500016 
L 44.680476 224.470117 
L 44.958521 224.412722 
L 45.236566 224.127778 
L 45.514611 233.195849 
L 46.070701 277.63276 
L 46.348747 279.092212 
L 46.626792 239.455967 
L 46.904837 218.526386 
L 47.182882 216.721648 
L 47.460927 224.024772 
L 47.738972 237.948868 
L 48.017017 246.295749 
L 48.295062 258.006316 
L 48.573107 249.450476 
L 48.851152 230.160738 
L 49.407242 216.859216 
L 49.685287 224.753645 
L 50.241378 250.130388 
L 50.519423 254.731179 
L 51.075513 227.9713 
L 51.353558 230.539011 
L 51.631603 221.256666 
L 51.909648 227.309152 
L 52.743783 260.454021 
L 53.299873 228.325743 
L 53.577918 228.298128 
L 54.134009 259.000563 
L 54.412054 257.617962 
L 54.690099 265.24345 
L 54.968144 288.066838 
L 55.524234 232.327298 
L 55.802279 216.377648 
L 56.080324 223.303451 
L 56.358369 243.540511 
L 56.636414 247.3849 
L 57.192504 256.830854 
L 57.748595 220.521206 
L 58.02664 221.435064 
L 58.860775 273.114987 
L 59.13882 270.103303 
L 59.416865 263.107826 
L 59.972955 213.173021 
L 60.251 206.306743 
L 60.80709 233.764075 
L 61.085135 222.240023 
L 61.363181 223.36336 
L 61.919271 198.318717 
L 62.197316 191.747052 
L 62.475361 210.063601 
L 62.753406 250.529113 
L 63.031451 257.680976 
L 63.309496 240.259366 
L 63.587541 235.466427 
L 63.865586 246.062005 
L 64.143631 238.109862 
L 64.421676 221.492792 
L 64.699721 216.005802 
L 64.977767 246.460007 
L 65.255812 257.715177 
L 65.533857 242.705165 
L 65.811902 236.454724 
L 66.089947 245.143439 
L 66.367992 229.73658 
L 66.646037 228.764127 
L 66.924082 233.215593 
L 67.202127 254.25143 
L 67.480172 249.773606 
L 67.758217 225.812236 
L 68.036262 222.868057 
L 68.314307 232.148308 
L 68.592352 233.941982 
L 68.870398 239.978423 
L 69.426488 280.664535 
L 69.704533 267.665693 
L 69.982578 237.893754 
L 70.260623 229.424036 
L 70.538668 242.785886 
L 70.816713 240.545046 
L 71.094758 240.186761 
L 71.650848 314.10583 
L 71.928893 315.800831 
L 72.206938 285.302863 
L 72.484984 273.332714 
L 72.763029 314.933897 
L 73.597164 274.66969 
L 73.875209 280.40491 
L 74.153254 281.300296 
L 74.709344 255.532628 
L 74.987389 275.708291 
L 75.265434 265.443888 
L 75.543479 269.239113 
L 75.821524 266.860228 
L 76.09957 268.762975 
L 76.377615 268.01742 
L 76.65566 254.336961 
L 76.933705 249.358995 
L 77.21175 264.89828 
L 77.489795 267.906037 
L 77.76784 267.783214 
L 78.32393 272.590755 
L 78.601975 263.707639 
L 78.88002 242.345609 
L 79.158065 244.462992 
L 79.43611 261.466062 
L 79.714155 269.425946 
L 80.270246 274.000581 
L 80.548291 280.954707 
L 80.826336 267.059424 
L 81.104381 242.78564 
L 81.382426 242.777105 
L 81.660471 264.03243 
L 82.216561 268.848939 
L 82.494606 267.34782 
L 82.772651 272.367627 
L 83.050696 266.60173 
L 83.328741 244.649695 
L 83.606787 244.786353 
L 84.162877 279.489218 
L 84.440922 289.8659 
L 84.718967 275.900006 
L 85.275057 266.965618 
L 85.553102 250.851795 
L 85.831147 245.463117 
L 86.387237 281.543341 
L 86.665282 284.004954 
L 86.943327 278.699597 
L 87.221372 268.947483 
L 87.777463 230.783182 
L 88.055508 238.729837 
L 88.333553 250.706471 
L 88.611598 256.70071 
L 88.889643 272.128409 
L 89.167688 266.237813 
L 89.723778 239.92679 
L 90.001823 213.108432 
L 90.279868 231.20009 
L 90.557913 273.243471 
L 90.835958 298.119191 
L 91.114004 298.222255 
L 91.392049 276.128767 
L 91.670094 263.13417 
L 92.226184 209.537201 
L 92.782274 226.875895 
L 93.338364 268.75262 
L 93.894454 253.150826 
L 94.172499 223.018436 
L 94.450544 209.432837 
L 94.72859 217.322255 
L 95.562725 260.505279 
L 96.118815 267.533569 
L 96.39686 249.974766 
L 96.674905 219.80003 
L 96.95295 225.226563 
L 97.50904 248.435662 
L 97.787085 253.71817 
L 98.343175 246.774053 
L 98.621221 238.229666 
L 98.899266 215.330179 
L 99.733401 252.392647 
L 100.011446 253.009199 
L 100.289491 228.013704 
L 101.123626 202.346068 
L 101.401671 210.632101 
L 101.957761 250.10832 
L 102.235807 247.643557 
L 102.791897 221.558825 
L 103.069942 215.515986 
L 103.347987 212.368293 
L 103.626032 234.728888 
L 103.904077 266.421656 
L 104.182122 269.080141 
L 104.460167 268.296081 
L 105.294302 220.405663 
L 105.572347 219.976363 
L 105.850393 252.528742 
L 106.128438 268.440697 
L 106.406483 274.22524 
L 106.684528 260.744424 
L 106.962573 233.490585 
L 107.240618 223.34083 
L 107.518663 222.3141 
L 107.796708 214.574975 
L 108.352798 282.429598 
L 108.630843 292.234675 
L 108.908888 290.852377 
L 109.464978 229.351981 
L 109.743024 223.551811 
L 110.021069 213.620085 
L 110.855204 303.543846 
L 111.133249 303.893638 
L 111.689339 232.146546 
L 111.967384 219.533805 
L 112.245429 215.012233 
L 112.801519 269.183725 
L 113.079564 268.195558 
L 113.35761 277.080927 
L 114.191745 219.230071 
L 114.46979 213.351303 
L 115.02588 265.591769 
L 115.303925 263.35763 
L 115.58197 273.126845 
L 115.860015 264.555897 
L 116.416105 240.580012 
L 116.69415 238.597223 
L 117.250241 278.361475 
L 117.528286 271.423872 
L 118.084376 252.026881 
L 118.640466 242.282682 
L 118.918511 244.331172 
L 119.474601 264.592582 
L 119.752646 260.871276 
L 120.030691 262.852 
L 120.586781 237.360321 
L 120.864827 238.587589 
L 121.420917 260.011593 
L 121.698962 261.198335 
L 122.533097 239.33521 
L 122.811142 234.248157 
L 123.089187 238.579183 
L 123.367232 259.071247 
L 123.923322 271.707616 
L 124.201367 259.042029 
L 124.479413 236.84822 
L 124.757458 229.127279 
L 125.313548 241.768761 
L 125.591593 253.633983 
L 126.147683 286.519169 
L 126.981818 241.742923 
L 127.259863 233.579178 
L 127.537908 236.983853 
L 128.372044 271.738033 
L 128.650089 261.118971 
L 128.928134 260.801647 
L 129.484224 237.299343 
L 129.762269 246.362374 
L 130.040314 260.96813 
L 130.318359 266.828367 
L 130.596404 270.305979 
L 130.874449 262.742393 
L 131.152494 265.720383 
L 131.430539 273.435764 
L 131.98663 248.719883 
L 132.264675 247.266179 
L 132.54272 247.562735 
L 132.820765 250.344345 
L 133.09881 247.816352 
L 133.376855 262.705419 
L 133.6549 269.025142 
L 133.932945 261.159036 
L 134.21099 258.940206 
L 134.489035 263.188201 
L 134.76708 271.698185 
L 135.045125 272.181877 
L 135.32317 256.8259 
L 135.601215 265.139346 
L 135.879261 267.808721 
L 136.157306 262.107196 
L 136.435351 269.409655 
L 136.991441 272.281648 
L 137.269486 271.745905 
L 137.547531 263.278108 
L 137.825576 262.667839 
L 138.103621 249.480214 
L 138.381666 251.955563 
L 138.937756 273.836929 
L 139.215801 279.656365 
L 139.493847 278.655951 
L 139.771892 277.137428 
L 140.049937 271.165893 
L 140.327982 261.12147 
L 140.606027 261.661546 
L 140.884072 264.298988 
L 141.440162 273.200374 
L 141.718207 268.334686 
L 142.274297 274.375576 
L 142.552342 262.172535 
L 142.830387 269.644539 
L 143.108433 271.644371 
L 143.664523 272.739487 
L 144.220613 251.285356 
L 144.498658 262.852347 
L 144.776703 254.873845 
L 145.054748 258.750918 
L 145.332793 269.790427 
L 145.888883 272.63729 
L 146.444973 243.007223 
L 146.723018 248.765306 
L 147.001064 239.007386 
L 147.557154 258.786823 
L 147.835199 262.385914 
L 148.113244 257.890167 
L 148.669334 233.723866 
L 149.781514 257.727164 
L 150.059559 256.276335 
L 150.337604 253.589773 
L 150.893695 219.496311 
L 152.005875 253.549145 
L 152.28392 254.229231 
L 152.561965 248.398009 
L 153.118055 201.75451 
L 153.3961 199.447983 
L 153.674145 213.16138 
L 153.95219 233.916808 
L 154.508281 248.031623 
L 154.786326 245.004701 
L 155.342416 201.826789 
L 155.620461 192.01257 
L 155.898506 199.611419 
L 156.176551 230.327568 
L 156.454596 248.459233 
L 156.732641 256.705389 
L 157.010686 247.03375 
L 157.288731 221.764246 
L 157.566776 183.402186 
L 157.844821 170.742556 
L 158.122867 183.781073 
L 158.400912 203.204451 
L 158.957002 216.403775 
L 159.235047 217.579078 
L 159.791137 165.772202 
L 160.069182 167.447704 
L 160.625272 215.813971 
L 160.903317 217.237042 
L 161.459407 165.383486 
L 162.015498 150.93806 
L 162.293543 155.823852 
L 162.571588 176.177444 
L 162.849633 207.386297 
L 163.127678 210.021565 
L 163.405723 175.126834 
L 163.683768 162.826658 
L 164.239858 156.716154 
L 164.517903 159.587014 
L 165.073993 205.580231 
L 165.352038 204.296108 
L 165.630084 165.859126 
L 165.908129 155.456808 
L 166.464219 146.504821 
L 166.742264 160.33418 
L 167.020309 189.58897 
L 167.298354 198.264766 
L 167.854444 146.632106 
L 168.132489 141.383727 
L 168.688579 137.642763 
L 168.966624 147.043685 
L 169.24467 197.482879 
L 169.522715 204.1549 
L 169.80076 198.039775 
L 170.078805 154.3368 
L 170.35685 145.863905 
L 170.634895 144.492699 
L 170.91294 138.263012 
L 171.190985 139.448469 
L 171.747075 202.175945 
L 172.303165 151.468677 
L 172.58121 153.580831 
L 173.137301 139.143883 
L 173.415346 145.007674 
L 173.971436 174.561973 
L 174.249481 154.240668 
L 174.527526 147.855952 
L 174.805571 150.30035 
L 175.083616 145.866244 
L 175.361661 139.503669 
L 175.639706 148.106969 
L 175.917751 164.480756 
L 176.473841 154.953077 
L 176.751887 143.214187 
L 177.029932 150.615869 
L 177.307977 142.447011 
L 177.586022 149.678151 
L 178.142112 189.979115 
L 178.698202 164.344546 
L 178.976247 150.533689 
L 179.254292 156.924081 
L 179.532337 151.42594 
L 179.810382 158.683208 
L 180.366473 216.566286 
L 180.644518 216.829276 
L 180.922563 183.976565 
L 181.200608 179.444515 
L 181.478653 161.212617 
L 181.756698 155.314069 
L 182.312788 202.213995 
L 182.590833 213.262032 
L 182.868878 200.170676 
L 183.146923 166.103398 
L 183.424968 147.499271 
L 183.703013 143.361215 
L 183.981058 137.081745 
L 184.259104 135.666777 
L 184.537149 157.123335 
L 184.815194 192.034993 
L 185.371284 169.748851 
L 185.649329 148.111273 
L 185.927374 145.939903 
L 186.205419 141.743441 
L 186.483464 153.540998 
L 186.761509 189.950684 
L 187.039554 210.680831 
L 187.317599 185.963875 
L 187.595644 175.904958 
L 187.87369 154.30166 
L 188.151735 143.929181 
L 188.42978 146.352016 
L 188.707825 153.839763 
L 189.263915 200.933887 
L 189.54196 175.074384 
L 190.376095 137.167651 
L 190.65414 143.977002 
L 191.21023 182.790877 
L 191.488276 182.079284 
L 191.766321 167.998007 
L 192.322411 155.346501 
L 192.600456 138.289154 
L 192.878501 137.862179 
L 193.156546 143.891269 
L 193.434591 167.815008 
L 193.712636 178.83725 
L 193.990681 162.941876 
L 194.268726 160.966163 
L 194.824816 146.778081 
L 195.102861 145.05753 
L 195.380907 152.299965 
L 195.658952 165.408263 
L 195.936997 169.279039 
L 196.215042 157.356666 
L 196.493087 158.971285 
L 197.049177 142.937577 
L 197.327222 157.104942 
L 197.605267 149.856809 
L 197.883312 152.252347 
L 198.161357 150.204854 
L 198.439402 150.123569 
L 198.717447 157.047798 
L 198.995493 156.729391 
L 199.273538 144.252312 
L 199.551583 173.733646 
L 199.829628 184.296843 
L 200.107673 171.04894 
L 200.385718 150.652091 
L 200.663763 148.658253 
L 200.941808 159.317524 
L 201.219853 161.022447 
L 201.497898 157.606788 
L 201.775943 198.295991 
L 202.053988 203.60862 
L 202.610079 148.486788 
L 203.166169 152.568054 
L 203.444214 147.222343 
L 203.722259 144.174479 
L 204.000304 192.852423 
L 204.278349 205.343353 
L 204.556394 200.595585 
L 204.834439 163.304103 
L 205.112484 160.61409 
L 205.390529 161.218921 
L 205.668574 157.776557 
L 205.946619 169.312409 
L 206.224664 229.093294 
L 206.50271 210.956907 
L 206.780755 204.327752 
L 207.0588 164.15655 
L 207.336845 162.922746 
L 207.61489 165.583289 
L 207.892935 163.097014 
L 208.17098 184.172013 
L 208.449025 268.12837 
L 208.72707 292.759442 
L 209.005115 252.941433 
L 209.28316 192.118458 
L 209.561205 165.096528 
L 209.83925 162.810193 
L 210.117296 165.96479 
L 210.673386 239.297413 
L 210.951431 240.180089 
L 211.229476 219.608705 
L 211.785566 163.473655 
L 212.063611 165.099597 
L 212.341656 169.184821 
L 212.619701 213.653968 
L 212.897746 226.37181 
L 213.175791 219.420746 
L 213.731881 187.360024 
L 214.287972 178.420653 
L 214.566017 185.872964 
L 215.122107 258.47633 
L 215.678197 215.994262 
L 216.234287 192.469976 
L 216.512332 178.3016 
L 216.790377 176.081334 
L 217.346467 258.383593 
L 217.624513 248.947792 
L 218.180603 184.191272 
L 218.458648 182.471083 
L 218.736693 178.300662 
L 219.292783 233.265247 
L 219.570828 249.306755 
L 219.848873 226.928915 
L 220.126918 193.817878 
L 220.404963 193.31136 
L 220.683008 182.813408 
L 220.961053 188.030693 
L 221.795189 260.665422 
L 222.073234 254.699607 
L 222.351279 221.952321 
L 222.907369 195.415881 
L 223.185414 192.680062 
L 223.741504 239.282623 
L 224.019549 261.374177 
L 224.575639 219.460695 
L 224.853684 219.21778 
L 225.409775 206.932726 
L 225.965865 229.160223 
L 226.24391 251.008313 
L 226.521955 260.848052 
L 227.078045 226.199333 
L 227.35609 220.738629 
L 227.634135 222.741985 
L 227.91218 237.609619 
L 228.190225 245.972893 
L 228.46827 243.070165 
L 229.024361 214.05093 
L 229.302406 212.826276 
L 229.580451 198.229258 
L 229.858496 210.886194 
L 230.136541 229.109687 
L 230.414586 234.434065 
L 230.692631 227.554566 
L 230.970676 203.285757 
L 231.248721 203.331844 
L 231.526766 209.217082 
L 231.804811 205.375741 
L 232.360901 229.833044 
L 232.638947 235.794656 
L 232.916992 228.132208 
L 233.195037 201.77257 
L 233.473082 200.844948 
L 233.751127 214.974364 
L 234.029172 222.920325 
L 234.307217 226.939155 
L 234.585262 227.137542 
L 234.863307 215.034764 
L 235.141352 215.599813 
L 235.419397 201.091863 
L 235.697442 198.271496 
L 236.531578 233.308273 
L 236.809623 242.917908 
L 237.087668 229.376418 
L 237.643758 190.043473 
L 237.921803 187.328199 
L 238.199848 213.422434 
L 238.477893 224.246022 
L 238.755938 250.048136 
L 239.033983 252.875053 
L 239.312028 251.929796 
L 239.590073 256.967932 
L 240.146164 220.4393 
L 240.424209 221.538908 
L 240.702254 230.53257 
L 240.980299 233.284427 
L 241.258344 229.662907 
L 241.536389 228.9087 
L 241.814434 232.78001 
L 242.092479 212.743663 
L 242.370524 209.329022 
L 242.926614 234.91949 
L 243.204659 236.725369 
L 243.482704 224.075336 
L 243.76075 224.789146 
L 244.038795 236.138526 
L 244.31684 230.810537 
L 244.594885 220.709353 
L 244.87293 223.039262 
L 245.150975 232.217273 
L 245.42902 236.493229 
L 245.707065 232.903583 
L 246.263155 216.221838 
L 246.819245 203.760624 
L 247.375336 242.024992 
L 247.653381 243.944941 
L 248.209471 221.432869 
L 248.487516 205.921501 
L 248.765561 199.208239 
L 249.043606 209.43665 
L 249.321651 238.666765 
L 249.599696 252.788252 
L 249.877741 254.653274 
L 250.989921 194.336002 
L 251.267967 206.665973 
L 251.546012 242.191591 
L 252.102102 276.394588 
L 252.380147 259.583116 
L 252.658192 230.88008 
L 252.936237 235.841422 
L 253.214282 225.749236 
L 253.492327 225.398736 
L 253.770372 252.557296 
L 254.048417 261.317546 
L 254.326462 280.112081 
L 254.604507 273.156251 
L 255.160598 237.917223 
L 255.438643 231.254612 
L 255.716688 237.910016 
L 256.272778 271.605491 
L 256.550823 275.969606 
L 257.106913 250.485466 
L 257.384958 250.93656 
L 257.663003 250.856735 
L 257.941048 264.971838 
L 258.219093 286.301544 
L 258.497139 316.472727 
L 258.775184 312.757559 
L 259.887364 208.892529 
L 260.165409 217.158357 
L 260.443454 242.885065 
L 260.721499 248.970467 
L 260.999544 236.20128 
L 261.555634 221.440928 
L 261.833679 222.10335 
L 262.111724 224.493371 
L 263.223905 277.712124 
L 263.50195 268.049642 
L 264.05804 242.834905 
L 264.336085 235.040464 
L 264.892175 265.492359 
L 265.17022 287.918351 
L 265.448265 297.912528 
L 265.72631 289.894627 
L 266.004356 268.808109 
L 266.560446 199.97135 
L 266.838491 198.391177 
L 267.116536 212.21127 
L 267.394581 210.647042 
L 267.672626 202.126941 
L 267.950671 200.933187 
L 268.506761 176.370683 
L 268.784806 175.465649 
L 269.340896 221.880208 
L 269.618942 221.825455 
L 269.896987 197.393146 
L 270.175032 193.117796 
L 270.453077 205.913225 
L 270.731122 212.025318 
L 271.009167 226.55912 
L 271.287212 228.917944 
L 271.565257 236.832434 
L 271.843302 231.395936 
L 272.121347 213.29151 
L 272.399392 217.558425 
L 272.677437 209.396405 
L 272.955482 213.46754 
L 273.233527 234.918595 
L 273.789618 258.358722 
L 274.067663 244.056382 
L 274.345708 212.922393 
L 274.623753 210.394003 
L 274.901798 200.376595 
L 275.179843 200.070651 
L 275.457888 219.509974 
L 276.013978 236.120285 
L 276.570068 225.641506 
L 276.848113 233.17521 
L 277.126159 224.640153 
L 277.404204 225.562923 
L 277.682249 225.286371 
L 277.960294 232.033993 
L 278.238339 244.793705 
L 278.794429 228.822332 
L 279.072474 232.322446 
L 279.350519 217.227134 
L 279.628564 234.267409 
L 279.906609 240.972699 
L 280.184654 236.066124 
L 280.462699 248.997331 
L 280.740744 245.818571 
L 281.01879 215.841889 
L 281.852925 178.818886 
L 282.409015 206.963482 
L 282.68706 223.292301 
L 282.965105 224.127186 
L 283.521195 200.756211 
L 283.79924 194.629336 
L 284.077285 199.480559 
L 284.35533 192.895744 
L 284.633376 211.360996 
L 284.911421 213.419416 
L 285.189466 200.749048 
L 285.467511 200.569703 
L 285.745556 199.690753 
L 286.023601 190.826717 
L 286.301646 192.179017 
L 286.579691 184.570102 
L 287.135781 216.176978 
L 287.691871 187.871698 
L 287.969916 190.721067 
L 288.247962 198.769226 
L 288.526007 224.812645 
L 288.804052 224.413501 
L 289.082097 223.449743 
L 289.360142 232.258637 
L 289.638187 224.536699 
L 289.916232 190.299581 
L 290.472322 172.37746 
L 291.028412 185.443332 
L 291.584502 216.093759 
L 291.862547 192.553087 
L 292.140593 187.51431 
L 292.418638 188.659477 
L 292.696683 185.435648 
L 293.252773 211.927207 
L 293.530818 209.727038 
L 293.808863 216.650084 
L 294.086908 192.350208 
L 294.364953 189.801461 
L 294.921043 187.075781 
L 295.199088 206.500068 
L 295.477133 199.127532 
L 296.033224 213.84665 
L 296.589314 186.916931 
L 296.867359 177.048068 
L 297.145404 179.383833 
L 297.701494 210.733483 
L 297.979539 206.675867 
L 298.257584 207.455341 
L 298.535629 201.724122 
L 299.091719 180.642233 
L 299.369764 181.58328 
L 299.64781 188.929104 
L 299.925855 193.169762 
L 300.2039 182.143512 
L 300.75999 190.453094 
L 301.038035 186.472011 
L 301.31608 180.325393 
L 301.594125 184.242314 
L 301.87217 195.974971 
L 302.150215 188.27022 
L 302.42826 187.39104 
L 302.706305 189.25734 
L 302.98435 189.47438 
L 303.262396 192.990338 
L 303.540441 191.060164 
L 303.818486 192.790759 
L 304.096531 200.33765 
L 304.374576 180.432942 
L 304.652621 175.625235 
L 305.208711 184.425471 
L 305.486756 173.286834 
L 306.042846 183.67078 
L 306.320891 190.943509 
L 306.598936 189.777124 
L 306.876982 184.804235 
L 307.155027 195.986143 
L 307.433072 198.531699 
L 307.711117 186.754311 
L 307.989162 187.836219 
L 308.267207 186.928059 
L 308.823297 168.391214 
L 309.101342 169.742626 
L 309.379387 175.925929 
L 309.657432 174.189506 
L 309.935477 166.622417 
L 310.491567 195.813233 
L 310.769613 192.356462 
L 311.047658 161.286217 
L 311.325703 157.00013 
L 311.603748 148.103445 
L 311.881793 150.78537 
L 312.159838 156.239063 
L 312.715928 183.668101 
L 312.993973 170.035549 
L 313.272018 148.25498 
L 313.550063 156.984856 
L 313.828108 173.149092 
L 314.106153 174.648493 
L 314.384199 179.642549 
L 314.940289 202.075676 
L 315.496379 164.728033 
L 315.774424 161.545489 
L 316.052469 163.729575 
L 316.330514 173.732274 
L 317.164649 219.481377 
L 317.442694 179.836105 
L 317.998785 164.766176 
L 318.27683 172.06062 
L 318.83292 198.466128 
L 319.110965 221.218652 
L 319.38901 224.576489 
L 319.667055 182.483244 
L 319.9451 163.40646 
L 320.223145 164.125065 
L 320.50119 165.849651 
L 321.335325 216.67247 
L 321.61337 230.15603 
L 322.169461 175.085137 
L 322.447506 175.633685 
L 323.281641 221.373595 
L 323.559686 254.399079 
L 323.837731 249.341836 
L 324.115776 227.534086 
L 324.393821 189.525609 
L 324.671866 185.039416 
L 324.949911 190.665173 
L 325.506002 217.763051 
L 325.784047 251.755587 
L 326.062092 250.622226 
L 326.618182 184.031 
L 326.896227 184.769522 
L 327.174272 196.998538 
L 327.452317 200.407661 
L 327.730362 198.728642 
L 328.008407 225.83026 
L 328.286452 239.550452 
L 328.842542 200.49299 
L 329.676678 215.581817 
L 329.954723 246.693317 
L 330.232768 256.057583 
L 330.510813 248.734398 
L 331.066903 188.991071 
L 331.344948 192.05561 
L 332.179083 221.869823 
L 332.457128 235.073625 
L 332.735173 229.514261 
L 333.013219 204.186617 
L 333.291264 198.263957 
L 333.569309 205.458593 
L 333.847354 218.679538 
L 334.125399 246.454837 
L 334.403444 260.568308 
L 334.681489 252.976269 
L 334.959534 238.867261 
L 335.237579 201.824211 
L 335.515624 184.234218 
L 335.793669 195.503491 
L 336.071714 223.559321 
L 336.349759 269.33279 
L 336.627805 277.266489 
L 336.90585 255.096771 
L 337.46194 185.27903 
L 337.739985 173.42069 
L 338.01803 180.886325 
L 338.296075 199.791615 
L 338.852165 259.745642 
L 339.13021 246.414426 
L 339.6863 166.505358 
L 339.964345 159.38898 
L 340.24239 176.12958 
L 340.798481 270.305142 
L 341.076526 272.471341 
L 341.354571 262.744545 
L 341.910661 174.706741 
L 342.188706 172.237047 
L 342.744796 207.37527 
L 343.300886 260.475094 
L 343.578931 254.62537 
L 344.135022 171.022271 
L 344.413067 167.510986 
L 344.969157 209.198574 
L 345.247202 246.750381 
L 345.525247 259.226739 
L 345.803292 249.489038 
L 346.081337 192.786672 
L 346.359382 163.589126 
L 346.637427 159.984828 
L 346.915472 169.897699 
L 347.749607 260.623696 
L 348.027653 247.444939 
L 348.305698 194.794433 
L 348.583743 163.341654 
L 348.861788 159.698534 
L 349.139833 174.008508 
L 349.417878 194.881011 
L 349.695923 233.003904 
L 349.973968 243.870618 
L 350.252013 222.401971 
L 350.808103 161.634796 
L 351.364193 182.983293 
L 351.920284 252.131823 
L 352.198329 244.878874 
L 353.032464 156.048236 
L 353.310509 161.039006 
L 353.588554 179.092066 
L 354.144644 233.505288 
L 354.422689 228.952693 
L 354.978779 172.245936 
L 355.256825 166.911888 
L 355.53487 169.721359 
L 355.812915 191.745023 
L 356.09096 232.207192 
L 356.369005 236.796255 
L 356.64705 228.364652 
L 356.925095 215.775423 
L 357.481185 173.016268 
L 357.75923 173.608866 
L 358.31532 232.731641 
L 358.593365 235.250391 
L 358.87141 216.781745 
L 359.149456 207.3984 
L 359.427501 204.107679 
L 359.705546 188.486741 
L 359.983591 200.115612 
L 360.539681 243.541522 
L 361.095771 195.812186 
L 361.373816 189.690345 
L 361.651861 192.647703 
L 361.929906 177.227145 
L 362.207951 194.495018 
L 362.485996 232.148351 
L 362.764042 247.488701 
L 363.320132 194.439297 
L 364.154267 178.057682 
L 364.432312 187.121297 
L 364.710357 217.733068 
L 364.988402 227.0877 
L 365.266447 207.245725 
L 365.544492 179.406812 
L 365.822537 175.487003 
L 366.100582 187.208951 
L 366.378628 189.043174 
L 366.656673 212.149035 
L 366.934718 245.41261 
L 367.212763 247.054981 
L 367.490808 232.260052 
L 367.768853 194.963566 
L 368.046898 187.972062 
L 368.324943 183.776928 
L 368.602988 187.204821 
L 369.159078 241.545749 
L 369.437123 239.624472 
L 369.993213 188.071537 
L 370.827349 167.442664 
L 371.383439 207.540208 
L 371.661484 210.305049 
L 371.939529 185.730803 
L 372.217574 172.288008 
L 372.495619 174.785484 
L 372.773664 173.075369 
L 373.051709 177.124319 
L 373.329754 202.923544 
L 373.607799 213.467655 
L 373.885845 205.875306 
L 374.16389 178.416349 
L 374.441935 171.414171 
L 374.71998 187.763991 
L 374.998025 197.483753 
L 375.27607 198.393712 
L 375.554115 219.892074 
L 375.83216 220.75196 
L 376.110205 213.241306 
L 376.38825 180.874648 
L 376.666295 171.525172 
L 376.94434 183.507756 
L 377.50043 221.547646 
L 377.778476 243.0078 
L 378.056521 247.128062 
L 378.334566 242.12927 
L 378.612611 208.554032 
L 378.890656 189.188419 
L 379.168701 185.953844 
L 379.446746 186.653356 
L 379.724791 200.182988 
L 380.002836 226.264861 
L 380.280881 241.478561 
L 380.558926 249.511295 
L 380.836971 219.835516 
L 381.115016 202.755169 
L 381.393062 199.717697 
L 381.671107 202.41353 
L 382.227197 210.791514 
L 382.505242 210.779779 
L 382.783287 204.458388 
L 383.061332 181.449626 
L 383.339377 176.255883 
L 383.617422 184.178765 
L 384.173512 220.946216 
L 384.451557 222.232599 
L 384.729602 224.618041 
L 385.007648 207.983474 
L 385.285693 183.007427 
L 385.563738 179.10757 
L 385.841783 183.224806 
L 386.675918 225.063431 
L 386.953963 227.314843 
L 387.232008 223.345105 
L 387.788098 198.553746 
L 388.066143 198.723204 
L 388.344188 212.222449 
L 388.622233 215.367672 
L 388.900279 207.309187 
L 389.456369 186.091181 
L 389.734414 193.706762 
L 390.290504 200.561095 
L 390.568549 213.887451 
L 390.846594 216.475671 
L 391.124639 210.791095 
L 391.680729 189.957978 
L 391.958774 185.24371 
L 392.236819 193.175835 
L 392.514865 205.334456 
L 392.79291 223.41677 
L 393.070955 214.996693 
L 393.627045 180.355095 
L 393.90509 174.43154 
L 394.46118 196.166809 
L 395.01727 231.021923 
L 395.295315 226.664596 
L 395.851405 174.749586 
L 396.12945 183.26287 
L 396.407496 206.023439 
L 396.963586 234.467732 
L 397.241631 251.158778 
L 397.519676 230.547677 
L 398.075766 171.911085 
L 398.353811 174.524068 
L 398.631856 186.000812 
L 399.465991 271.528684 
L 399.744036 274.251598 
L 400.022082 249.6601 
L 400.578172 176.376871 
L 400.856217 176.248178 
L 401.134262 180.196173 
L 401.690352 239.13262 
L 401.968397 236.929172 
L 402.246442 221.657932 
L 402.524487 192.182787 
L 402.802532 180.221318 
L 403.080577 186.446606 
L 403.358622 199.674267 
L 403.636668 227.764088 
L 403.914713 243.700856 
L 404.192758 237.960046 
L 404.748848 209.255645 
L 405.582983 226.147599 
L 405.861028 249.274258 
L 406.139073 255.253967 
L 406.417118 239.792962 
L 406.973208 195.246697 
L 407.251253 203.99956 
L 407.529299 208.213635 
L 408.085389 248.522622 
L 408.363434 250.807528 
L 409.197569 189.129022 
L 410.309749 260.48282 
L 410.587794 255.73337 
L 411.42193 202.326657 
L 411.699975 209.593146 
L 411.97802 222.847692 
L 412.53411 266.706773 
L 412.812155 271.396012 
L 413.0902 273.68668 
L 413.64629 223.185915 
L 413.924335 216.21375 
L 414.20238 215.015671 
L 414.75847 257.291871 
L 415.036516 258.329446 
L 415.870651 211.741913 
L 416.148696 206.491662 
L 416.426741 208.06031 
L 416.982831 260.234446 
L 417.260876 265.305526 
L 417.538921 241.750188 
L 418.095011 218.633234 
L 418.929147 234.700695 
L 419.207192 253.633636 
L 419.485237 239.076495 
L 419.763282 216.111625 
L 420.041327 210.61079 
L 420.597417 221.030115 
L 420.875462 231.463456 
L 421.431552 262.096349 
L 421.709597 258.508654 
L 421.987642 220.110913 
L 422.265688 202.63668 
L 422.543733 203.613625 
L 422.821778 216.434856 
L 423.377868 258.474236 
L 423.655913 260.10345 
L 423.933958 237.058176 
L 424.212003 197.042863 
L 424.490048 189.027576 
L 425.046138 205.978738 
L 425.880273 275.985667 
L 426.158319 272.505325 
L 426.436364 251.520543 
L 426.436364 251.520543 
" clip-path="url(#p562bde1298)" style="fill: none; stroke: #ff00ff; stroke-width: 3; stroke-linecap: square"/>
   </g>
   <g id="patch_3">
    <path d="M 7.2 331.2 
L 7.2 7.2 
" style="fill: none; stroke: #000000; stroke-width: 0.8; stroke-linejoin: miter; stroke-linecap: square"/>
   </g>
   <g id="patch_4">
    <path d="M 446.4 331.2 
L 446.4 7.2 
" style="fill: none; stroke: #000000; stroke-width: 0.8; stroke-linejoin: miter; stroke-linecap: square"/>
   </g>
   <g id="patch_5">
    <path d="M 7.2 331.2 
L 446.4 331.2 
" style="fill: none; stroke: #000000; stroke-width: 0.8; stroke-linejoin: miter; stroke-linecap: square"/>
   </g>
   <g id="patch_6">
    <path d="M 7.2 7.2 
L 446.4 7.2 
" style="fill: none; stroke: #000000; stroke-width: 0.8; stroke-linejoin: miter; stroke-linecap: square"/>
   </g>
  </g>
 </g>
 <defs>
  <clipPath id="p562bde1298">
   <rect x="7.2" y="7.2" width="439.2" height="324"/>
  </clipPath>
 </defs>
</svg>
