<?xml version="1.0" encoding="utf-8" standalone="no"?>
<!DOCTYPE svg PUBLIC "-//W3C//DTD SVG 1.1//EN"
  "http://www.w3.org/Graphics/SVG/1.1/DTD/svg11.dtd">
<svg xmlns:xlink="http://www.w3.org/1999/xlink" width="453.6pt" height="338.4pt" viewBox="0 0 453.6 338.4" xmlns="http://www.w3.org/2000/svg" version="1.1">
 <metadata>
  <rdf:RDF xmlns:dc="http://purl.org/dc/elements/1.1/" xmlns:cc="http://creativecommons.org/ns#" xmlns:rdf="http://www.w3.org/1999/02/22-rdf-syntax-ns#">
   <cc:Work>
    <dc:type rdf:resource="http://purl.org/dc/dcmitype/StillImage"/>
    <dc:date>2025-05-15T00:31:16.628459</dc:date>
    <dc:format>image/svg+xml</dc:format>
    <dc:creator>
     <cc:Agent>
      <dc:title>Matplotlib v3.10.1, https://matplotlib.org/</dc:title>
     </cc:Agent>
    </dc:creator>
   </cc:Work>
  </rdf:RDF>
 </metadata>
 <defs>
  <style type="text/css">*{stroke-linejoin: round; stroke-linecap: butt}</style>
 </defs>
 <g id="figure_1">
  <g id="patch_1">
   <path d="M 0 338.4 
L 453.6 338.4 
L 453.6 0 
L 0 0 
z
" style="fill: #ffffff"/>
  </g>
  <g id="axes_1">
   <g id="patch_2">
    <path d="M 7.2 331.2 
L 446.4 331.2 
L 446.4 7.2 
L 7.2 7.2 
z
" style="fill: #ffffff"/>
   </g>
   <g id="matplotlib.axis_1"/>
   <g id="matplotlib.axis_2"/>
   <g id="line2d_1">
    <path d="M 27.163636 81.262012 
L 28.494545 140.070256 
L 29.559273 178.451184 
L 30.624 209.293692 
L 31.688727 232.827082 
L 32.487273 245.964164 
L 33.285818 255.413874 
L 33.818182 259.813073 
L 34.350545 262.783033 
L 34.882909 264.41715 
L 35.149091 264.734277 
L 35.415273 264.766708 
L 35.681455 264.526297 
L 35.947636 263.988206 
L 36.48 262.150156 
L 37.012364 259.391924 
L 37.810909 253.697941 
L 38.343273 248.771377 
L 40.206545 226.716734 
L 41.271273 216.668838 
L 42.336 208.629581 
L 43.400727 202.534569 
L 43.933091 200.381186 
L 45.796364 195.449724 
L 47.925818 189.102428 
L 52.450909 174.960004 
L 53.515636 172.694559 
L 54.048 171.958969 
L 54.580364 171.62245 
L 54.846545 171.620791 
L 55.112727 171.742324 
L 55.378909 172.002631 
L 55.911273 173.02747 
L 56.443636 174.832809 
L 56.976 177.550081 
L 57.508364 181.356669 
L 58.040727 186.448621 
L 58.839273 197.075839 
L 59.637818 212.019242 
L 60.436364 232.456671 
L 61.501091 235.039937 
L 62.565818 238.242035 
L 63.630545 242.559615 
L 64.429091 246.710472 
L 65.227636 251.869152 
L 66.026182 258.312411 
L 66.558545 263.48575 
L 66.824727 264.120181 
L 68.155636 251.276921 
L 72.946909 201.99244 
L 73.745455 196.409886 
L 74.544 192.545776 
L 75.076364 191.026631 
L 75.342545 190.584941 
L 75.608727 190.39464 
L 75.874909 190.403208 
L 76.141091 190.647652 
L 76.673455 191.720174 
L 77.205818 193.220121 
L 78.270545 195.292727 
L 80.666182 200.25953 
L 81.198545 200.995875 
L 81.730909 201.415312 
L 81.997091 201.474345 
L 82.263273 201.414821 
L 82.529455 201.216549 
L 83.061818 200.328596 
L 83.328 201.168664 
L 84.392727 215.981843 
L 84.925091 219.761648 
L 85.191273 220.617306 
L 85.457455 220.88051 
L 85.723636 220.57532 
L 85.989818 219.631249 
L 86.522182 216.248207 
L 87.054545 210.937126 
L 87.853091 200.210837 
L 89.184 178.073689 
L 90.514909 156.852038 
L 91.313455 147.950023 
L 91.845818 144.851024 
L 92.112 144.426372 
L 92.378182 144.76096 
L 92.644364 146.065971 
L 92.910545 148.320425 
L 93.442909 156.198453 
L 93.709091 161.93372 
L 93.975273 162.448084 
L 94.507636 164.140737 
L 95.04 166.521421 
L 95.838545 171.871504 
L 96.637091 179.75881 
L 97.435636 190.544931 
L 98.234182 205.062857 
L 98.500364 204.368813 
L 99.831273 198.084088 
L 100.896 193.955685 
L 101.960727 190.735548 
L 103.025455 188.382278 
L 104.090182 186.674763 
L 105.421091 185.062957 
L 107.284364 182.849242 
L 108.615273 180.858799 
L 110.212364 178.042237 
L 110.744727 176.316823 
L 111.543273 172.610763 
L 112.341818 167.755101 
L 113.140364 161.524729 
L 113.938909 153.69168 
L 114.737455 144.029548 
L 115.802182 127.921962 
L 116.866909 107.677661 
L 117.133091 101.916902 
L 117.399273 99.198137 
L 117.665455 101.260631 
L 122.722909 161.731472 
L 123.787636 170.655152 
L 124.586182 175.701669 
L 125.384727 179.142392 
L 125.917091 180.495077 
L 126.449455 181.077515 
L 126.715636 181.077682 
L 126.981818 180.884106 
L 127.248 179.925885 
L 127.514182 178.139095 
L 128.046545 172.208409 
L 128.578909 162.90941 
L 129.111273 150.17823 
L 129.909818 124.587481 
L 130.708364 90.989173 
L 131.506909 49.444806 
L 131.773091 56.609558 
L 132.837818 104.579979 
L 133.902545 141.916053 
L 134.967273 170.656732 
L 136.032 192.535216 
L 137.096727 209.01151 
L 138.161455 221.306127 
L 139.226182 230.411698 
L 140.290909 237.185402 
L 141.355636 242.361712 
L 142.686545 247.577436 
L 144.549818 253.994537 
L 146.146909 259.390577 
L 146.413091 258.902341 
L 146.679273 256.649208 
L 148.010182 235.223734 
L 149.341091 217.15879 
L 150.938182 198.297897 
L 153.067636 175.693531 
L 156.528 141.545756 
L 160.254545 106.7486 
L 161.585455 100.862718 
L 162.916364 93.871966 
L 164.247273 85.652275 
L 165.578182 75.871006 
L 165.844364 73.687198 
L 166.110545 74.653443 
L 167.175273 100.321019 
L 168.24 121.244239 
L 169.304727 137.751932 
L 170.369455 150.421876 
L 171.434182 159.968857 
L 172.498909 167.136102 
L 173.563636 172.563853 
L 174.628364 176.745951 
L 175.693091 179.994898 
L 176.757818 182.440347 
L 177.024 183.790188 
L 178.088727 193.247412 
L 178.887273 202.152175 
L 179.685818 213.695533 
L 180.484364 228.773566 
L 181.549091 252.781543 
L 182.081455 249.519516 
L 183.944727 235.995156 
L 185.541818 222.667563 
L 187.138909 207.369875 
L 189.002182 186.982823 
L 191.131636 160.948989 
L 193.793455 128.013132 
L 196.189091 110.316685 
L 198.052364 96.477616 
L 199.649455 122.332114 
L 201.246545 144.256322 
L 202.577455 159.738922 
L 203.908364 172.889908 
L 205.239273 183.911142 
L 206.570182 193.012439 
L 207.901091 200.411514 
L 208.965818 205.251578 
L 210.030545 209.267814 
L 210.562909 213.73543 
L 211.095273 217.831783 
L 211.627636 220.599056 
L 212.16 222.239076 
L 212.426182 222.664754 
L 212.692364 222.879617 
L 212.958545 222.905372 
L 213.224727 222.755362 
L 213.757091 222.032316 
L 214.555636 220.330858 
L 215.620364 218.094293 
L 216.152727 217.538172 
L 216.418909 217.51498 
L 216.685091 217.691201 
L 216.951273 218.134181 
L 217.483636 219.870848 
L 218.016 223.042627 
L 218.548364 227.890889 
L 219.080727 234.70549 
L 219.346909 235.854794 
L 219.879273 234.327503 
L 220.677818 231.038212 
L 221.742545 225.307202 
L 224.936727 206.510978 
L 225.735273 203.317482 
L 226.267636 201.913603 
L 226.8 201.214187 
L 227.066182 201.20088 
L 227.332364 201.604604 
L 227.598545 202.446656 
L 228.130909 205.530346 
L 228.663273 210.632129 
L 229.195636 217.852728 
L 229.994182 232.949994 
L 231.591273 170.516449 
L 232.389818 153.213236 
L 232.922182 145.748395 
L 233.454545 140.697402 
L 233.986909 137.436095 
L 234.519273 135.384222 
L 236.116364 130.673083 
L 236.648727 127.784795 
L 237.181091 123.329907 
L 237.713455 116.787209 
L 238.245818 107.611263 
L 238.778182 95.237704 
L 239.576727 69.281082 
L 240.109091 46.193805 
L 240.375273 44.576837 
L 241.173818 53.528326 
L 241.972364 59.851166 
L 243.303273 68.125405 
L 243.835636 70.179577 
L 244.634182 73.020358 
L 245.432727 76.734775 
L 246.231273 81.673338 
L 247.029818 88.27973 
L 247.828364 97.049459 
L 248.626909 108.500629 
L 249.425455 123.235138 
L 250.224 141.710873 
L 251.022545 164.424061 
L 252.087273 201.731545 
L 253.152 247.422243 
L 253.950545 285.159066 
L 254.749091 263.957368 
L 255.547636 247.825024 
L 256.346182 235.97832 
L 257.144727 227.608514 
L 257.943273 222.034615 
L 258.475636 219.46715 
L 259.008 217.68647 
L 259.540364 216.457829 
L 260.072727 215.666155 
L 261.137455 215.372974 
L 263.000727 214.77326 
L 263.533091 214.791168 
L 264.065455 214.972919 
L 264.597818 215.350906 
L 265.130182 215.945212 
L 265.662545 216.764695 
L 266.461091 218.433762 
L 267.525818 221.385139 
L 268.856727 225.899437 
L 271.252364 234.305558 
L 272.317091 237.326063 
L 273.381818 239.608467 
L 274.180364 240.78529 
L 274.978909 241.579334 
L 275.777455 242.039124 
L 277.108364 242.396579 
L 277.640727 242.141706 
L 278.173091 241.429465 
L 278.705455 240.121277 
L 279.237818 238.173785 
L 279.770182 235.527387 
L 280.568727 230.822779 
L 281.367273 227.61889 
L 281.899636 226.169558 
L 282.432 225.230718 
L 282.964364 224.761044 
L 283.496727 224.73083 
L 284.029091 225.104638 
L 284.561455 225.84496 
L 285.36 227.537429 
L 286.424727 230.578457 
L 289.086545 238.925466 
L 289.885091 240.593268 
L 290.417455 241.222573 
L 290.683636 241.354061 
L 290.949818 241.343905 
L 291.216 241.183282 
L 291.482182 240.859272 
L 292.014545 239.668965 
L 292.546909 237.666022 
L 293.079273 234.740128 
L 293.345455 232.895622 
L 293.877818 225.768511 
L 294.410182 216.028894 
L 295.208727 196.066555 
L 295.741091 181.194896 
L 296.007273 181.054736 
L 296.273455 180.363844 
L 296.805818 177.720254 
L 297.338182 173.672427 
L 298.136727 165.813254 
L 300.532364 140.335444 
L 301.330909 134.585675 
L 301.863273 132.273636 
L 302.129455 131.628461 
L 302.395636 131.405935 
L 302.661818 131.563257 
L 302.928 132.155676 
L 303.460364 134.717786 
L 303.992727 139.23226 
L 304.525091 145.754715 
L 305.323636 159.656776 
L 306.122182 178.65129 
L 306.920727 202.801161 
L 307.719273 230.429501 
L 308.251636 239.915499 
L 309.050182 250.599455 
L 309.848727 258.705009 
L 310.647273 264.554966 
L 311.179636 267.298762 
L 311.712 269.092426 
L 312.244364 269.919177 
L 312.510545 269.958016 
L 312.776727 269.755162 
L 313.042909 269.311238 
L 313.575273 267.705541 
L 314.107636 265.155711 
L 314.906182 259.610807 
L 315.704727 252.099793 
L 316.769455 239.28213 
L 317.834182 223.680973 
L 319.431273 196.333885 
L 324.754909 100.121457 
L 325.819636 86.022344 
L 326.618182 77.742505 
L 326.884364 70.527613 
L 327.416727 74.925337 
L 335.934545 152.96004 
L 338.862545 182.500671 
L 343.121455 226.584992 
L 343.387636 228.212283 
L 344.186182 230.85625 
L 345.250909 235.255335 
L 347.646545 245.711779 
L 348.178909 247.43653 
L 348.445091 245.123929 
L 349.776 210.591241 
L 352.437818 141.99223 
L 353.768727 113.590913 
L 354.567273 100.005076 
L 355.365818 89.765816 
L 355.898182 85.109681 
L 356.430545 82.369725 
L 356.696727 81.755747 
L 356.962909 81.691965 
L 357.229091 82.19792 
L 357.495273 83.258529 
L 358.027636 87.207182 
L 358.56 93.622491 
L 359.092364 102.687903 
L 359.624727 115.507427 
L 359.890909 124.150031 
L 360.955636 140.860289 
L 362.020364 154.050408 
L 363.085091 164.659104 
L 364.149818 173.332458 
L 365.480727 182.178109 
L 366.811636 189.450077 
L 368.408727 196.812091 
L 370.272 204.299229 
L 375.063273 223.040678 
L 376.394182 229.284603 
L 376.926545 234.135929 
L 379.056 257.392176 
L 380.653091 277.009912 
L 382.250182 299.601726 
L 383.048727 311.854282 
L 383.314909 311.673746 
L 387.573818 240.464414 
L 389.437091 213.203062 
L 390.768 196.899214 
L 391.566545 189.288498 
L 392.098909 185.499924 
L 392.631273 183.010101 
L 392.897455 182.32739 
L 393.163636 182.114275 
L 394.494545 182.219524 
L 395.293091 182.422993 
L 396.357818 183.006081 
L 397.156364 183.764161 
L 397.688727 184.477007 
L 398.487273 185.980325 
L 399.019636 187.329893 
L 399.818182 190.014389 
L 400.616727 193.713637 
L 401.415273 198.733582 
L 402.213818 205.43814 
L 403.012364 214.219562 
L 403.810909 225.61111 
L 404.077091 230.091332 
L 404.343273 232.509937 
L 405.674182 222.794653 
L 406.472727 218.271673 
L 407.271273 215.011157 
L 407.803636 213.646648 
L 408.336 213.017229 
L 408.602182 212.995318 
L 408.868364 213.159917 
L 409.134545 213.54605 
L 409.666909 214.934067 
L 410.465455 218.259832 
L 411.264 222.765773 
L 412.328727 230.1999 
L 413.925818 243.227763 
L 415.789091 259.20107 
L 416.055273 256.319523 
L 417.918545 196.807553 
L 419.249455 160.49953 
L 420.314182 136.899066 
L 421.112727 123.225728 
L 421.911273 113.684172 
L 422.443636 109.96031 
L 422.709818 108.953054 
L 422.976 108.60314 
L 423.242182 108.8918 
L 423.508364 109.852269 
L 424.040727 114.005663 
L 424.573091 121.347417 
L 425.105455 132.148249 
L 425.637818 146.767502 
L 426.436364 176.722821 
L 426.436364 176.722821 
" clip-path="url(#pf624893800)" style="fill: none; stroke: #ffa500; stroke-width: 3; stroke-linecap: square"/>
   </g>
   <g id="line2d_2">
    <path d="M 27.163636 70.784707 
L 27.962182 106.922793 
L 28.760727 133.255348 
L 29.559273 152.464812 
L 30.357818 166.544876 
L 31.156364 176.95114 
L 31.954909 184.740571 
L 32.753455 190.695142 
L 33.818182 196.737644 
L 34.882909 201.377083 
L 36.213818 206.051047 
L 38.077091 211.654177 
L 40.206545 218.079818 
L 41.537455 222.781574 
L 42.602182 227.346495 
L 43.666909 233.01827 
L 44.199273 237.544867 
L 45.530182 251.492469 
L 46.861091 267.952979 
L 47.659636 279.019153 
L 47.925818 278.573017 
L 48.192 274.897312 
L 49.256727 248.213746 
L 50.321455 227.342256 
L 51.386182 210.885941 
L 52.450909 198.174792 
L 53.515636 188.339669 
L 54.580364 181.087496 
L 55.378909 177.013825 
L 56.177455 174.004065 
L 56.976 171.948558 
L 57.508364 171.057094 
L 58.040727 170.478395 
L 58.573091 170.231844 
L 59.105455 170.20809 
L 59.904 170.523656 
L 61.234909 171.20742 
L 62.033455 171.314302 
L 62.565818 171.118901 
L 63.098182 170.657241 
L 63.630545 169.842577 
L 64.162909 168.578104 
L 64.695273 166.841279 
L 65.493818 163.003407 
L 66.026182 159.525017 
L 66.824727 152.693746 
L 67.623273 143.443168 
L 68.421818 131.352072 
L 69.220364 115.953655 
L 70.018909 96.386411 
L 70.817455 72.21758 
L 71.349818 52.949969 
L 71.616 50.699834 
L 72.680727 52.568981 
L 73.745455 53.942988 
L 74.810182 54.898348 
L 75.874909 55.548246 
L 77.472 56.394248 
L 78.270545 57.129083 
L 79.069091 58.266414 
L 79.867636 59.960507 
L 80.666182 62.324267 
L 81.464727 65.425829 
L 82.263273 69.299814 
L 83.328 75.673919 
L 84.392727 83.43102 
L 86.256 97.628167 
L 87.320727 104.976083 
L 88.917818 118.011935 
L 93.709091 159.287691 
L 95.04 165.975667 
L 96.370909 171.387424 
L 97.701818 175.817294 
L 99.032727 179.461662 
L 100.363636 182.385949 
L 101.428364 184.18775 
L 102.226909 185.118522 
L 102.759273 185.510045 
L 103.291636 185.666041 
L 103.824 185.539724 
L 104.356364 185.020093 
L 104.888727 184.070079 
L 105.421091 182.615401 
L 105.953455 180.441513 
L 106.485818 177.514697 
L 107.018182 173.546618 
L 107.550545 168.388724 
L 108.349091 157.835506 
L 109.147636 142.912091 
L 109.413818 146.076259 
L 110.212364 168.838657 
L 110.478545 172.869358 
L 111.010909 174.535739 
L 111.809455 178.161549 
L 112.608 182.877183 
L 113.672727 190.565989 
L 115.269818 204.066898 
L 118.730182 234.126335 
L 120.061091 243.810237 
L 121.125818 250.266373 
L 122.190545 255.467789 
L 122.989091 258.542161 
L 123.787636 260.882303 
L 124.586182 262.578204 
L 125.384727 263.638138 
L 125.917091 264.049473 
L 126.449455 264.225949 
L 126.981818 264.209665 
L 127.248 263.993885 
L 127.780364 263.029971 
L 128.578909 260.711783 
L 129.909818 255.929581 
L 130.176 251.67871 
L 130.974545 234.999435 
L 131.773091 222.673383 
L 132.571636 213.598789 
L 133.370182 206.936077 
L 134.168727 201.970714 
L 134.967273 198.190013 
L 136.032 194.330661 
L 137.362909 190.558089 
L 139.492364 185.403724 
L 142.952727 177.654778 
L 143.485091 176.56693 
L 143.751273 174.760881 
L 144.549818 163.275266 
L 145.348364 147.005899 
L 146.146909 124.876966 
L 146.679273 106.827674 
L 147.744 93.38952 
L 148.542545 85.695411 
L 149.607273 77.869437 
L 150.672 72.049637 
L 151.736727 67.520433 
L 153.6 60.922696 
L 155.197091 55.06838 
L 156.528 49.268014 
L 157.858909 42.298594 
L 158.125091 42.248541 
L 158.657455 51.768414 
L 159.988364 76.164687 
L 160.520727 83.665853 
L 163.714909 121.561024 
L 165.578182 141.115417 
L 167.175273 155.706948 
L 168.772364 168.249977 
L 170.369455 178.942145 
L 171.966545 188.211043 
L 173.829818 197.971806 
L 174.096 199.108242 
L 175.693091 165.701526 
L 177.024 142.129713 
L 179.419636 104.848607 
L 181.016727 83.588184 
L 182.081455 71.836082 
L 183.146182 62.325583 
L 183.944727 56.745619 
L 184.743273 52.490715 
L 185.541818 49.549617 
L 186.074182 48.290604 
L 186.340364 47.872378 
L 186.606545 53.689844 
L 187.405091 92.886164 
L 188.203636 121.642117 
L 189.002182 141.889578 
L 189.800727 155.430454 
L 190.599273 164.241423 
L 191.397818 169.993667 
L 192.728727 177.032171 
L 193.527273 181.722805 
L 194.325818 188.064869 
L 195.124364 197.241992 
L 195.922909 210.253818 
L 196.721455 228.069954 
L 197.52 251.569786 
L 198.584727 285.639871 
L 199.649455 247.981494 
L 200.714182 218.371963 
L 201.778909 196.11954 
L 202.577455 183.737212 
L 203.376 174.645553 
L 204.174545 168.406017 
L 204.706909 165.62721 
L 205.239273 163.80313 
L 205.771636 162.837272 
L 206.037818 162.637218 
L 206.304 162.595083 
L 206.570182 162.693047 
L 206.836364 162.913009 
L 207.368727 163.753077 
L 208.167273 165.629597 
L 209.232 168.77958 
L 210.030545 171.20447 
L 210.296727 172.767918 
L 211.095273 181.560427 
L 211.893818 193.40462 
L 212.692364 208.396057 
L 213.757091 233.2292 
L 214.821818 261.875462 
L 215.088 264.847845 
L 215.354182 266.237731 
L 215.620364 266.923414 
L 215.886545 266.959637 
L 216.152727 266.281613 
L 216.685091 263.346568 
L 217.217455 258.494965 
L 218.016 248.774603 
L 221.476364 202.444584 
L 222.274909 195.753018 
L 222.807273 192.544871 
L 223.339636 190.287951 
L 223.872 188.851171 
L 224.404364 188.128923 
L 224.936727 187.980643 
L 225.469091 188.179766 
L 226.8 189.226963 
L 227.066182 190.863507 
L 227.598545 196.22055 
L 228.130909 204.068645 
L 228.929455 219.972534 
L 229.994182 247.604297 
L 231.325091 289.05009 
L 232.123636 312.59001 
L 233.188364 281.019401 
L 234.253091 257.113317 
L 235.317818 238.974904 
L 236.382545 225.04406 
L 237.447273 214.063188 
L 238.778182 203.515227 
L 239.842909 196.67991 
L 241.173818 189.514913 
L 243.037091 181.023872 
L 243.303273 179.94158 
L 243.835636 173.70602 
L 244.368 168.400382 
L 244.900364 165.178296 
L 245.432727 163.619772 
L 245.698909 163.352689 
L 245.965091 163.375916 
L 246.231273 163.656026 
L 246.763636 164.882631 
L 247.296 166.903147 
L 248.094545 170.959657 
L 249.159273 177.953542 
L 250.490182 188.618823 
L 251.821091 201.127942 
L 253.152 215.5358 
L 254.749091 235.345609 
L 257.410909 270.385059 
L 257.677091 270.26217 
L 258.475636 265.803512 
L 259.274182 260.166577 
L 260.072727 253.064651 
L 261.137455 239.714261 
L 262.468364 219.575253 
L 263.799273 195.799428 
L 265.396364 163.00439 
L 267.259636 120.099868 
L 267.525818 119.739613 
L 268.324364 124.584689 
L 268.856727 126.768585 
L 269.389091 128.211465 
L 269.921455 128.999004 
L 270.187636 129.180887 
L 270.453818 129.217018 
L 270.986182 128.944545 
L 271.518545 128.247842 
L 272.317091 126.597429 
L 273.381818 123.6077 
L 276.576 113.827203 
L 276.842182 113.470793 
L 277.640727 113.199619 
L 278.439273 112.740593 
L 279.237818 112.078405 
L 280.302545 110.882559 
L 281.367273 109.296613 
L 282.432 107.294969 
L 283.496727 104.845377 
L 284.827636 101.083488 
L 286.158545 96.482549 
L 287.489455 90.947424 
L 288.820364 84.405639 
L 290.151273 76.788304 
L 290.949818 71.915454 
L 291.216 73.095078 
L 292.280727 88.840004 
L 293.611636 109.694543 
L 294.676364 128.817543 
L 295.474909 139.463318 
L 296.007273 144.585134 
L 296.539636 147.993141 
L 296.805818 149.020675 
L 297.072 149.574716 
L 297.338182 149.656738 
L 297.604364 149.216462 
L 297.870545 148.300867 
L 298.402909 144.803657 
L 298.935273 139.080486 
L 299.467636 131.02082 
L 300.266182 114.272553 
L 301.064727 91.59037 
L 301.863273 62.583713 
L 302.661818 26.867188 
L 302.928 30.034656 
L 303.726545 51.384722 
L 305.057455 94.873815 
L 308.251636 206.200311 
L 309.050182 227.576544 
L 309.848727 243.359282 
L 310.114909 245.830222 
L 311.712 251.141115 
L 312.244364 252.353376 
L 312.776727 253.049636 
L 313.042909 253.1597 
L 313.309091 253.046879 
L 313.575273 252.738973 
L 314.107636 251.447428 
L 314.64 249.080315 
L 314.906182 247.42212 
L 315.172364 242.487696 
L 317.301818 179.732713 
L 318.100364 162.983708 
L 318.898909 150.328652 
L 319.697455 141.62583 
L 320.229818 137.888643 
L 320.762182 135.677834 
L 321.028364 135.105218 
L 321.294545 134.865031 
L 321.560727 134.938767 
L 321.826909 135.307449 
L 322.359273 136.850277 
L 322.891636 139.347903 
L 323.690182 144.551988 
L 324.754909 153.264167 
L 326.618182 170.160109 
L 327.416727 172.274157 
L 328.481455 175.826924 
L 329.546182 180.368944 
L 330.610909 186.082169 
L 331.675636 193.133226 
L 332.740364 201.75392 
L 333.805091 212.10712 
L 335.136 227.71523 
L 336.466909 246.355151 
L 338.064 272.267882 
L 338.596364 281.515318 
L 338.862545 280.39248 
L 340.193455 260.586199 
L 341.790545 233.432151 
L 345.250909 172.004387 
L 346.315636 157.157201 
L 347.380364 145.621902 
L 348.178909 139.624467 
L 348.711273 137.074541 
L 349.243636 135.835296 
L 349.509818 135.743986 
L 349.776 136.018812 
L 350.042182 136.663829 
L 350.308364 136.898592 
L 351.639273 124.036336 
L 352.171636 120.744938 
L 352.704 118.543785 
L 353.236364 117.316197 
L 353.502545 117.048008 
L 353.768727 116.983243 
L 354.034909 117.114037 
L 354.567273 117.926682 
L 355.099636 119.354499 
L 355.898182 122.414084 
L 357.229091 128.869018 
L 358.56 135.068104 
L 359.358545 137.614186 
L 359.624727 138.131955 
L 360.423273 135.507713 
L 360.689455 135.231799 
L 360.955636 135.356624 
L 361.221818 135.889878 
L 361.754182 137.979023 
L 362.286545 141.310625 
L 363.085091 148.094686 
L 365.480727 170.187602 
L 366.013091 172.712177 
L 366.279273 173.290103 
L 366.545455 173.307168 
L 366.811636 172.745543 
L 367.077818 171.442358 
L 367.610182 166.573405 
L 368.142545 158.080258 
L 368.674909 145.408611 
L 369.207273 128.037553 
L 370.005818 91.824992 
L 370.538182 61.34424 
L 370.804364 63.907035 
L 371.869091 97.671654 
L 372.933818 124.578246 
L 373.732364 140.397821 
L 374.530909 152.648311 
L 375.329455 161.497271 
L 375.861818 165.616378 
L 376.394182 168.37633 
L 376.926545 169.491487 
L 377.458909 170.033932 
L 377.991273 170.181791 
L 378.523636 169.915866 
L 379.056 169.217231 
L 379.588364 168.067041 
L 380.120727 166.455041 
L 380.919273 163.165451 
L 381.717818 158.850364 
L 382.782545 151.599463 
L 383.581091 145.157416 
L 384.113455 138.408203 
L 385.178182 125.084165 
L 386.242909 114.7198 
L 387.307636 106.828077 
L 388.372364 101.00387 
L 389.170909 97.735278 
L 389.969455 95.237564 
L 390.768 93.367487 
L 391.566545 92.02947 
L 392.365091 91.147706 
L 393.163636 90.660063 
L 394.228364 88.381697 
L 395.293091 86.712815 
L 396.357818 85.48391 
L 397.422545 84.600022 
L 398.753455 83.83362 
L 400.350545 83.237163 
L 404.875636 81.796917 
L 405.940364 81.160326 
L 407.005091 80.253755 
L 408.069818 78.962508 
L 408.868364 77.660061 
L 409.666909 75.989844 
L 410.465455 73.830615 
L 410.731636 76.511178 
L 415.789091 166.006355 
L 416.853818 180.586211 
L 417.918545 192.183405 
L 418.717091 198.679017 
L 419.515636 203.151049 
L 420.048 205.01312 
L 420.580364 205.999309 
L 420.846545 206.171984 
L 421.112727 206.13745 
L 421.378909 205.90195 
L 421.911273 204.859327 
L 422.443636 203.118131 
L 423.242182 199.411684 
L 424.306909 192.986403 
L 426.436364 178.883656 
L 426.436364 178.883656 
" clip-path="url(#pf624893800)" style="fill: none; stroke: #ff0000; stroke-width: 3; stroke-linecap: square"/>
   </g>
   <g id="line2d_3">
    <path d="M 27.163636 309.95018 
L 27.429818 310.863922 
L 27.696 311.09639 
L 27.962182 310.639614 
L 28.228364 309.653435 
L 28.760727 306.087604 
L 29.293091 300.811438 
L 30.091636 290.471102 
L 31.156364 273.563794 
L 33.285818 234.943614 
L 36.213818 182.501013 
L 38.077091 152.856791 
L 39.940364 126.675817 
L 41.803636 103.722899 
L 43.933091 79.309736 
L 44.199273 77.786958 
L 45.264 86.218219 
L 46.594909 94.899131 
L 48.192 103.750357 
L 50.055273 112.770561 
L 51.918545 120.699643 
L 53.515636 126.641021 
L 55.112727 131.826267 
L 56.976 137.023241 
L 59.105455 142.199868 
L 60.436364 145.285682 
L 61.767273 172.915224 
L 63.630545 216.70575 
L 65.227636 256.725929 
L 66.824727 219.471855 
L 67.889455 201.2794 
L 68.954182 186.918708 
L 70.018909 175.231494 
L 71.349818 163.221807 
L 72.680727 153.187429 
L 74.277818 142.865549 
L 77.205818 125.960329 
L 78.270545 122.73259 
L 79.335273 118.583357 
L 80.133818 114.688813 
L 80.932364 109.919334 
L 81.730909 104.011348 
L 82.529455 96.629987 
L 83.328 87.404953 
L 84.126545 76.76139 
L 84.392727 77.648421 
L 85.989818 100.379411 
L 90.248727 163.800339 
L 91.313455 175.699571 
L 92.112 182.50477 
L 92.644364 185.882484 
L 93.176727 188.188369 
L 93.709091 189.437612 
L 93.975273 189.608962 
L 94.241455 189.516001 
L 94.507636 189.147319 
L 94.773818 188.491469 
L 95.306182 186.228878 
L 95.838545 182.621774 
L 96.370909 177.608447 
L 97.169455 167.118493 
L 97.701818 159.360497 
L 99.032727 170.435084 
L 100.629818 181.704415 
L 103.291636 199.974319 
L 104.622545 210.982816 
L 105.687273 221.591758 
L 106.752 234.315038 
L 107.816727 249.589781 
L 108.881455 267.807824 
L 109.946182 289.305756 
L 110.478545 299.204701 
L 111.277091 305.895331 
L 111.809455 311.446508 
L 112.075636 311.591229 
L 112.341818 310.008449 
L 113.406545 283.839595 
L 115.269818 239.580929 
L 116.334545 218.837372 
L 117.399273 202.844367 
L 118.197818 194.189429 
L 118.996364 188.230917 
L 119.528727 185.590286 
L 120.061091 183.887494 
L 120.593455 182.871345 
L 121.125818 182.3432 
L 122.190545 181.655749 
L 122.722909 180.915708 
L 123.255273 179.462232 
L 123.787636 177.007619 
L 124.32 173.170449 
L 124.852364 167.649236 
L 125.384727 160.150389 
L 126.183273 144.419982 
L 127.514182 114.335335 
L 130.442182 148.225551 
L 132.039273 163.809099 
L 133.636364 176.977045 
L 135.765818 193.913919 
L 136.830545 204.616629 
L 137.629091 214.985911 
L 138.427636 228.354287 
L 139.226182 245.792871 
L 140.024727 268.505792 
L 140.557091 283.539605 
L 141.355636 232.97502 
L 142.154182 190.395571 
L 142.952727 160.393912 
L 143.485091 146.71536 
L 143.751273 143.209775 
L 144.549818 138.949815 
L 145.348364 135.93714 
L 146.146909 133.923488 
L 146.679273 132.988686 
L 147.211636 132.333468 
L 147.744 131.916278 
L 148.276364 131.703812 
L 148.808727 131.669718 
L 149.607273 131.939435 
L 150.139636 132.289472 
L 150.938182 133.074677 
L 151.736727 134.142133 
L 152.801455 136.059911 
L 153.6 137.857358 
L 154.664727 140.828055 
L 155.729455 144.511134 
L 156.794182 148.961527 
L 158.125091 155.624749 
L 159.722182 164.932613 
L 161.585455 175.73212 
L 162.384 179.088898 
L 162.916364 182.720668 
L 163.448727 185.117144 
L 163.981091 186.405529 
L 164.247273 186.692153 
L 164.513455 186.763905 
L 164.779636 186.637728 
L 165.312 185.857132 
L 165.844364 184.475892 
L 166.642909 181.473365 
L 167.707636 176.40241 
L 171.168 158.776434 
L 172.232727 154.622303 
L 173.297455 151.445951 
L 174.096 149.727227 
L 174.894545 148.528081 
L 175.693091 147.821528 
L 176.225455 147.56389 
L 176.757818 147.438538 
L 177.024 147.487871 
L 177.290182 147.739681 
L 177.556364 148.275095 
L 178.088727 150.302862 
L 178.621091 153.793384 
L 179.153455 158.988321 
L 179.685818 166.213361 
L 180.484364 181.358143 
L 181.282909 202.552143 
L 182.081455 231.120577 
L 182.613818 254.693992 
L 182.88 252.602714 
L 183.944727 207.251493 
L 184.743273 181.821945 
L 185.541818 163.110728 
L 186.340364 150.231847 
L 186.872727 144.441594 
L 187.405091 140.478247 
L 187.937455 138.008939 
L 188.469818 136.68049 
L 189.002182 136.051484 
L 189.800727 135.460557 
L 190.333091 134.605935 
L 190.865455 132.791389 
L 191.397818 129.480362 
L 191.930182 124.108739 
L 192.462545 116.08545 
L 192.994909 104.795271 
L 193.527273 89.598716 
L 194.325818 56.250708 
L 194.592 43.498179 
L 195.656727 109.090098 
L 196.721455 160.544071 
L 197.786182 199.417856 
L 198.584727 221.356847 
L 199.383273 238.037162 
L 200.181818 250.223641 
L 200.980364 258.654082 
L 201.778909 264.077449 
L 202.311273 266.33099 
L 202.843636 267.738679 
L 203.376 268.44506 
L 203.908364 268.584997 
L 204.440727 268.307665 
L 204.973091 267.726556 
L 205.771636 266.486767 
L 208.433455 261.998685 
L 210.030545 252.425269 
L 210.296727 249.52125 
L 215.088 164.272532 
L 216.418909 145.585754 
L 217.483636 133.514865 
L 218.548364 124.365903 
L 219.346909 119.442333 
L 220.145455 116.130324 
L 220.677818 114.813462 
L 221.210182 114.128434 
L 221.742545 114.017882 
L 222.274909 114.485599 
L 222.807273 115.388711 
L 223.339636 116.661032 
L 224.404364 119.996497 
L 226.533818 127.156491 
L 226.8 127.847822 
L 227.332364 141.353023 
L 228.130909 169.526187 
L 228.929455 206.671109 
L 229.994182 257.808445 
L 231.058909 263.589692 
L 231.857455 266.900959 
L 232.389818 268.461049 
L 232.922182 269.41048 
L 233.188364 269.658879 
L 233.454545 269.721673 
L 233.720727 269.622353 
L 233.986909 269.357806 
L 234.519273 268.301006 
L 235.051636 266.528349 
L 235.584 264.063053 
L 236.382545 259.062604 
L 237.181091 252.510267 
L 238.245818 241.520582 
L 239.310545 228.09499 
L 240.641455 208.213384 
L 241.972364 185.21452 
L 243.303273 159.447084 
L 243.835636 144.082638 
L 245.166545 98.114441 
L 245.432727 97.244527 
L 246.231273 99.485761 
L 246.763636 100.392508 
L 247.296 100.850902 
L 247.828364 100.84086 
L 248.360727 100.402743 
L 248.893091 99.526545 
L 249.425455 98.241214 
L 250.224 95.554893 
L 251.022545 92.026099 
L 252.087273 86.138883 
L 253.418182 77.221101 
L 255.547636 60.926295 
L 257.144727 49.148228 
L 257.943273 79.369551 
L 259.274182 127.898753 
L 260.072727 152.079347 
L 261.403636 160.286327 
L 263.000727 168.495695 
L 264.331636 174.343945 
L 265.662545 179.33293 
L 266.727273 182.594386 
L 267.525818 184.499611 
L 268.324364 185.700873 
L 268.856727 186.027279 
L 269.122909 186.020502 
L 269.655273 185.571729 
L 269.921455 185.139713 
L 270.453818 183.649694 
L 270.986182 181.317852 
L 271.518545 177.953525 
L 272.050909 173.308871 
L 272.583273 167.148233 
L 273.381818 154.403903 
L 274.180364 136.411932 
L 274.978909 111.671486 
L 275.511273 90.545157 
L 275.777455 85.892656 
L 276.842182 131.169926 
L 277.906909 144.062255 
L 278.971636 154.306097 
L 280.036364 162.025926 
L 280.834909 166.286711 
L 281.633455 169.169698 
L 282.165818 170.279746 
L 282.698182 170.803432 
L 282.964364 170.785139 
L 283.230545 170.622524 
L 283.762909 169.827005 
L 284.295273 168.320606 
L 284.827636 166.197227 
L 285.626182 161.908316 
L 286.690909 154.590614 
L 288.288 143.332142 
L 288.820364 140.89426 
L 289.086545 140.178087 
L 289.352727 139.954402 
L 289.618909 140.303825 
L 289.885091 141.282131 
L 290.151273 143.147626 
L 290.417455 145.862757 
L 290.949818 154.851764 
L 291.482182 169.700468 
L 292.014545 192.058843 
L 292.280727 206.745688 
L 292.546909 213.024339 
L 293.345455 220.630421 
L 294.144 221.789539 
L 296.539636 225.709803 
L 297.072 226.193636 
L 297.604364 226.371113 
L 298.136727 226.146278 
L 298.669091 225.426918 
L 299.201455 224.12591 
L 299.733818 222.162978 
L 300.266182 219.465983 
L 301.064727 213.910518 
L 301.863273 206.392411 
L 302.661818 196.756078 
L 303.726545 180.690013 
L 304.791273 161.086823 
L 306.388364 126.586245 
L 309.316364 59.8584 
L 309.582545 56.763913 
L 309.848727 57.666797 
L 310.114909 64.773367 
L 310.913455 95.777876 
L 311.712 120.12931 
L 312.510545 139.363019 
L 313.309091 154.510364 
L 314.373818 170.044878 
L 315.438545 181.565922 
L 316.503273 190.179084 
L 317.568 196.681789 
L 318.632727 201.685477 
L 319.963636 206.641193 
L 321.560727 212.29585 
L 322.359273 215.89228 
L 323.157818 220.789279 
L 323.690182 225.226347 
L 324.222545 230.986728 
L 324.754909 238.477324 
L 325.287273 248.306474 
L 325.819636 261.053687 
L 327.682909 316.472727 
L 327.949091 311.33091 
L 329.013818 282.286449 
L 329.812364 264.851027 
L 330.610909 251.686448 
L 331.143273 245.381954 
L 331.675636 241.07108 
L 332.208 238.620469 
L 332.474182 238.079666 
L 332.740364 237.934379 
L 333.006545 238.178824 
L 333.272727 238.817714 
L 333.805091 241.021308 
L 334.603636 246.308578 
L 335.934545 257.921125 
L 337.265455 269.014994 
L 338.064 273.66929 
L 338.596364 275.446758 
L 338.862545 275.895351 
L 339.128727 276.030969 
L 339.394909 275.833014 
L 339.661091 275.2638 
L 340.193455 273.095832 
L 340.725818 269.550614 
L 341.258182 264.670149 
L 341.790545 255.289347 
L 342.855273 234.160727 
L 343.387636 226.104538 
L 345.517091 205.921052 
L 347.646545 183.362596 
L 350.042182 155.397079 
L 352.970182 118.326403 
L 359.890909 26.402122 
L 360.157091 21.931714 
L 360.423273 21.927273 
L 361.221818 36.021996 
L 362.020364 45.224663 
L 362.818909 51.494817 
L 363.617455 56.122652 
L 364.948364 62.288768 
L 367.610182 74.247261 
L 369.739636 84.911225 
L 371.869091 96.474087 
L 373.466182 106.055057 
L 374.797091 115.270487 
L 375.861818 123.942586 
L 376.394182 128.907185 
L 376.660364 135.580765 
L 377.458909 174.085666 
L 378.523636 231.848557 
L 379.056 236.049835 
L 379.588364 238.545039 
L 379.854545 239.21769 
L 380.120727 239.541674 
L 380.386909 239.543034 
L 380.653091 239.247659 
L 381.185455 237.869649 
L 381.717818 235.612412 
L 382.516364 231.011825 
L 385.710545 210.142546 
L 386.242909 207.990831 
L 386.775273 206.615868 
L 387.041455 206.254902 
L 388.638545 205.67551 
L 389.437091 204.904877 
L 390.501818 203.520775 
L 392.631273 200.226796 
L 393.962182 198.362679 
L 395.293091 196.875004 
L 396.624 195.741044 
L 397.688727 195.096185 
L 398.753455 194.686606 
L 399.285818 194.570444 
L 399.552 193.688373 
L 401.149091 182.842614 
L 401.947636 179.598934 
L 402.48 178.176542 
L 403.012364 177.250519 
L 403.544727 176.764543 
L 404.077091 176.665219 
L 404.609455 176.899244 
L 405.141818 177.410641 
L 405.940364 178.561876 
L 408.069818 181.956365 
L 408.602182 182.264196 
L 408.868364 182.234719 
L 409.134545 182.053433 
L 409.400727 181.695654 
L 409.933091 180.703312 
L 410.731636 180.465398 
L 411.796364 179.861067 
L 412.594909 179.11051 
L 413.393455 178.043492 
L 414.192 176.586435 
L 414.990545 174.659212 
L 415.789091 172.224552 
L 416.853818 168.051152 
L 417.918545 162.765256 
L 418.983273 156.376281 
L 420.314182 147.058567 
L 424.306909 117.785231 
L 425.105455 113.626992 
L 425.904 110.819321 
L 426.436364 109.762398 
L 426.436364 109.762398 
" clip-path="url(#pf624893800)" style="fill: none; stroke: #0000ff; stroke-width: 3; stroke-linecap: square"/>
   </g>
   <g id="patch_3">
    <path d="M 7.2 331.2 
L 7.2 7.2 
" style="fill: none; stroke: #000000; stroke-width: 0.8; stroke-linejoin: miter; stroke-linecap: square"/>
   </g>
   <g id="patch_4">
    <path d="M 446.4 331.2 
L 446.4 7.2 
" style="fill: none; stroke: #000000; stroke-width: 0.8; stroke-linejoin: miter; stroke-linecap: square"/>
   </g>
   <g id="patch_5">
    <path d="M 7.2 331.2 
L 446.4 331.2 
" style="fill: none; stroke: #000000; stroke-width: 0.8; stroke-linejoin: miter; stroke-linecap: square"/>
   </g>
   <g id="patch_6">
    <path d="M 7.2 7.2 
L 446.4 7.2 
" style="fill: none; stroke: #000000; stroke-width: 0.8; stroke-linejoin: miter; stroke-linecap: square"/>
   </g>
  </g>
 </g>
 <defs>
  <clipPath id="pf624893800">
   <rect x="7.2" y="7.2" width="439.2" height="324"/>
  </clipPath>
 </defs>
</svg>
