<?xml version="1.0" encoding="utf-8" standalone="no"?>
<!DOCTYPE svg PUBLIC "-//W3C//DTD SVG 1.1//EN"
  "http://www.w3.org/Graphics/SVG/1.1/DTD/svg11.dtd">
<svg xmlns:xlink="http://www.w3.org/1999/xlink" width="453.6pt" height="338.4pt" viewBox="0 0 453.6 338.4" xmlns="http://www.w3.org/2000/svg" version="1.1">
 <metadata>
  <rdf:RDF xmlns:dc="http://purl.org/dc/elements/1.1/" xmlns:cc="http://creativecommons.org/ns#" xmlns:rdf="http://www.w3.org/1999/02/22-rdf-syntax-ns#">
   <cc:Work>
    <dc:type rdf:resource="http://purl.org/dc/dcmitype/StillImage"/>
    <dc:date>2025-05-15T17:40:21.532570</dc:date>
    <dc:format>image/svg+xml</dc:format>
    <dc:creator>
     <cc:Agent>
      <dc:title>Matplotlib v3.10.1, https://matplotlib.org/</dc:title>
     </cc:Agent>
    </dc:creator>
   </cc:Work>
  </rdf:RDF>
 </metadata>
 <defs>
  <style type="text/css">*{stroke-linejoin: round; stroke-linecap: butt}</style>
 </defs>
 <g id="figure_1">
  <g id="patch_1">
   <path d="M 0 338.4 
L 453.6 338.4 
L 453.6 0 
L 0 0 
z
" style="fill: #ffffff"/>
  </g>
  <g id="axes_1">
   <g id="patch_2">
    <path d="M 7.2 331.2 
L 446.4 331.2 
L 446.4 7.2 
L 7.2 7.2 
z
" style="fill: #ffffff"/>
   </g>
   <g id="matplotlib.axis_1"/>
   <g id="matplotlib.axis_2"/>
   <g id="line2d_1">
    <path d="M 27.163636 285.823672 
L 27.997772 282.458632 
L 28.831907 278.252785 
L 29.944087 271.459693 
L 34.392808 242.19184 
L 36.061079 233.996228 
L 37.729349 225.67573 
L 39.39762 216.04206 
L 41.900025 201.594613 
L 43.568296 193.471823 
L 44.680476 188.920023 
L 45.514611 186.358507 
L 46.070701 185.284156 
L 46.348747 184.981854 
L 46.626792 184.851194 
L 46.904837 184.899136 
L 47.182882 185.128121 
L 47.738972 186.114537 
L 48.295062 187.730433 
L 49.129197 190.987509 
L 50.797468 197.949096 
L 51.631603 200.550164 
L 52.465738 202.353081 
L 53.299873 203.590745 
L 54.968144 205.811161 
L 55.802279 207.324419 
L 56.914459 209.95451 
L 59.416865 216.468648 
L 59.972955 217.026429 
L 60.251 216.99135 
L 60.529045 216.692352 
L 60.80709 216.088177 
L 61.363181 213.8086 
L 61.919271 209.884228 
L 62.475361 204.151989 
L 63.309496 192.174293 
L 64.143631 176.710605 
L 65.533857 146.092754 
L 68.036262 85.154274 
L 69.704533 44.588148 
L 70.538668 29.374617 
L 71.094758 23.409813 
L 71.372803 22.058271 
L 71.650848 21.927273 
L 71.928893 23.087072 
L 72.206938 25.578672 
L 72.763029 34.559429 
L 73.319119 48.536022 
L 74.153254 76.925362 
L 76.933705 182.060437 
L 77.76784 203.276015 
L 78.601975 217.851357 
L 79.158065 224.306908 
L 79.714155 228.581704 
L 80.270246 231.057793 
L 80.548291 231.73458 
L 80.826336 232.092559 
L 81.104381 232.169892 
L 81.382426 232.002605 
L 81.938516 231.072986 
L 82.772651 228.698754 
L 84.440922 223.509366 
L 84.997012 222.365368 
L 85.553102 221.692203 
L 86.109192 221.505348 
L 86.665282 221.772757 
L 87.221372 222.4344 
L 87.777463 223.423939 
L 88.611598 225.403281 
L 89.723778 228.79164 
L 92.504229 238.092235 
L 93.060319 238.810916 
L 93.338364 238.805027 
L 93.616409 238.500735 
L 93.894454 237.856698 
L 94.450544 235.386608 
L 95.006635 231.086499 
L 95.562725 224.705122 
L 96.118815 216.094972 
L 96.95295 199.033816 
L 98.06513 169.953575 
L 100.011446 116.77318 
L 100.567536 105.686312 
L 101.123626 98.134913 
L 101.401671 95.890629 
L 101.679716 94.738129 
L 101.957761 94.702628 
L 102.235807 95.78573 
L 102.513852 97.965386 
L 103.069942 105.412246 
L 103.626032 116.4392 
L 104.460167 137.76457 
L 106.962573 205.711841 
L 107.796708 221.964168 
L 108.630843 233.811605 
L 109.464978 241.835555 
L 110.021069 245.510873 
L 110.577159 248.181971 
L 111.411294 250.892543 
L 112.245429 252.693798 
L 113.635655 254.961338 
L 115.303925 257.78576 
L 116.972195 260.596776 
L 117.806331 261.54844 
L 118.362421 261.868682 
L 118.918511 261.89161 
L 119.474601 261.612098 
L 120.030691 261.060928 
L 120.864827 259.877614 
L 122.255052 257.83712 
L 122.811142 257.331039 
L 123.367232 257.139141 
L 123.923322 257.307351 
L 124.479413 257.842729 
L 125.035503 258.717521 
L 125.869638 260.540245 
L 127.537908 265.073002 
L 128.928134 268.567153 
L 129.762269 270.094125 
L 130.318359 270.735456 
L 130.874449 270.975752 
L 131.152494 270.912389 
L 131.430539 270.705519 
L 131.98663 269.78418 
L 132.54272 268.034892 
L 133.09881 265.25103 
L 133.6549 261.211035 
L 134.21099 255.703126 
L 135.045125 244.353414 
L 135.879261 229.243762 
L 136.991441 204.584847 
L 138.659711 167.291701 
L 139.493847 153.973005 
L 140.049937 148.501008 
L 140.327982 146.909754 
L 140.606027 146.097316 
L 140.884072 146.054102 
L 141.162117 146.754659 
L 141.440162 148.158774 
L 141.996252 152.857512 
L 142.830387 163.59742 
L 144.220613 186.443692 
L 145.888883 213.471081 
L 147.001064 228.550192 
L 148.113244 240.600517 
L 148.947379 247.491017 
L 149.781514 252.531954 
L 150.61565 255.898857 
L 151.17174 257.39566 
L 152.005875 258.89799 
L 153.95219 261.666945 
L 154.786326 263.473253 
L 155.620461 265.887737 
L 156.732641 269.923661 
L 159.235047 279.475459 
L 160.069182 281.685561 
L 160.625272 282.685372 
L 161.181362 283.281188 
L 161.737453 283.47799 
L 162.293543 283.294353 
L 162.849633 282.74891 
L 163.405723 281.845241 
L 163.961813 280.558834 
L 164.517903 278.829421 
L 165.073993 276.560215 
L 165.630084 273.62555 
L 166.464219 267.668124 
L 167.298354 259.444555 
L 168.132489 248.648211 
L 169.24467 230.249351 
L 170.634895 202.306244 
L 172.859256 157.191083 
L 173.693391 144.51773 
L 174.249481 138.392274 
L 174.805571 134.448202 
L 175.083616 133.351566 
L 175.361661 132.855731 
L 175.639706 132.964957 
L 175.917751 133.676131 
L 176.195796 134.979108 
L 176.751887 139.284989 
L 177.307977 145.668018 
L 178.142112 158.449864 
L 179.532337 184.975384 
L 181.478653 222.200369 
L 182.590833 238.9507 
L 183.424968 248.567674 
L 184.259104 255.818303 
L 185.093239 261.136847 
L 185.927374 265.059343 
L 186.761509 268.067434 
L 187.87369 271.161369 
L 188.707825 272.87589 
L 189.263915 273.670105 
L 189.820005 274.12178 
L 190.376095 274.182093 
L 190.932185 273.824816 
L 191.488276 273.058818 
L 192.322411 271.266672 
L 194.546771 265.601586 
L 195.102861 264.747302 
L 195.658952 264.318968 
L 196.215042 264.330104 
L 196.771132 264.732085 
L 197.605267 265.818896 
L 198.439402 266.976055 
L 198.995493 267.442772 
L 199.273538 267.500516 
L 199.551583 267.402547 
L 199.829628 267.119623 
L 200.107673 266.622292 
L 200.663763 264.865714 
L 201.219853 261.889547 
L 201.775943 257.440959 
L 202.332033 251.265552 
L 202.888124 243.128537 
L 203.722259 226.872018 
L 204.556394 205.669566 
L 205.668574 171.121046 
L 207.61489 108.867576 
L 208.449025 89.876555 
L 209.005115 81.940703 
L 209.28316 79.579632 
L 209.561205 78.327086 
L 209.83925 78.184074 
L 210.117296 79.13127 
L 210.395341 81.129607 
L 210.951431 88.037902 
L 211.507521 98.29009 
L 212.341656 118.237472 
L 215.956242 213.413379 
L 217.068422 234.237675 
L 217.902558 246.20999 
L 218.736693 255.254574 
L 219.570828 261.711881 
L 220.404963 265.996932 
L 220.961053 267.850857 
L 221.517144 269.025707 
L 222.073234 269.606037 
L 222.351279 269.695127 
L 222.629324 269.660543 
L 223.185414 269.251037 
L 223.741504 268.44315 
L 224.575639 266.65826 
L 227.078045 260.538057 
L 227.634135 259.73418 
L 228.190225 259.309921 
L 228.746316 259.296888 
L 229.302406 259.696312 
L 229.858496 260.479995 
L 230.692631 262.24351 
L 232.638947 267.069617 
L 233.195037 267.834278 
L 233.473082 267.97222 
L 233.751127 267.905701 
L 234.029172 267.604111 
L 234.307217 267.038278 
L 234.863307 265.008843 
L 235.419397 261.641111 
L 235.975487 256.82447 
L 236.809623 246.826147 
L 237.643758 233.700831 
L 238.755938 212.187513 
L 240.424209 174.195476 
L 242.926614 115.892313 
L 243.76075 101.124393 
L 244.31684 94.187454 
L 244.87293 90.234644 
L 245.150975 89.520055 
L 245.42902 89.701236 
L 245.707065 90.801853 
L 245.98511 92.830368 
L 246.5412 99.621904 
L 247.09729 109.810058 
L 247.931426 130.270915 
L 251.267967 223.16526 
L 252.102102 238.263248 
L 252.936237 248.78326 
L 253.492327 253.613148 
L 254.048417 257.056078 
L 254.604507 259.441283 
L 255.160598 261.076809 
L 255.994733 262.68254 
L 257.384958 264.527659 
L 258.497139 266.098284 
L 259.609319 268.091292 
L 260.999544 271.136871 
L 262.38977 274.052954 
L 262.94586 274.872317 
L 263.50195 275.353723 
L 264.05804 275.435453 
L 264.61413 275.099118 
L 265.17022 274.378788 
L 266.004356 272.780221 
L 267.394581 269.913908 
L 267.950671 269.102966 
L 268.506761 268.595002 
L 269.062851 268.352549 
L 270.175032 268.009252 
L 270.453077 267.754215 
L 270.731122 267.34341 
L 271.287212 265.854355 
L 271.843302 263.142089 
L 272.399392 258.845865 
L 272.955482 252.698539 
L 273.789618 239.78507 
L 274.623753 222.83739 
L 277.682249 154.724588 
L 278.238339 147.073682 
L 278.794429 142.07916 
L 279.072474 140.616817 
L 279.350519 139.839701 
L 279.628564 139.730102 
L 279.906609 140.260151 
L 280.184654 141.393602 
L 280.740744 145.29363 
L 281.296835 151.0369 
L 282.13097 162.191466 
L 283.79924 189.022226 
L 285.467511 215.422657 
L 286.579691 229.631912 
L 287.413826 237.383715 
L 287.969916 240.975901 
L 288.526007 243.33551 
L 289.082097 244.60713 
L 289.360142 244.907631 
L 289.638187 245.033235 
L 290.194277 244.922683 
L 291.306457 244.362286 
L 291.862547 244.401588 
L 292.418638 244.791795 
L 293.252773 245.847864 
L 294.086908 246.787688 
L 294.364953 246.903141 
L 294.642998 246.859384 
L 294.921043 246.626839 
L 295.199088 246.183202 
L 295.755179 244.619925 
L 296.311269 242.191021 
L 297.423449 235.690292 
L 298.257584 231.033891 
L 298.813674 228.944024 
L 299.091719 228.361491 
L 299.369764 228.137607 
L 299.64781 228.295646 
L 299.925855 228.846204 
L 300.481945 231.100365 
L 301.038035 234.723231 
L 301.87217 241.909352 
L 303.262396 254.352251 
L 303.818486 258.070321 
L 304.374576 260.539343 
L 304.652621 261.24421 
L 304.930666 261.57838 
L 305.208711 261.536375 
L 305.486756 261.117283 
L 305.764801 260.323308 
L 306.320891 257.628225 
L 306.876982 253.487355 
L 307.433072 247.920191 
L 308.267207 236.868022 
L 309.101342 222.51176 
L 310.213522 198.598608 
L 312.715928 140.816218 
L 313.272018 132.297688 
L 313.828108 127.07367 
L 314.106153 125.864435 
L 314.384199 125.643109 
L 314.662244 126.423446 
L 314.940289 128.197181 
L 315.496379 134.584633 
L 316.052469 144.327978 
L 316.886604 163.566274 
L 319.38901 226.603351 
L 320.223145 242.19737 
L 321.05728 254.008961 
L 321.891416 262.59196 
L 322.725551 268.739068 
L 323.559686 273.139538 
L 324.393821 276.229971 
L 324.949911 277.669862 
L 325.506002 278.639662 
L 326.062092 279.14352 
L 326.618182 279.185304 
L 327.174272 278.778855 
L 327.730362 277.954294 
L 328.564497 276.046352 
L 329.676678 272.644434 
L 331.622993 266.396622 
L 332.457128 264.356906 
L 333.013219 263.370027 
L 333.569309 262.728516 
L 334.125399 262.457049 
L 334.681489 262.564671 
L 335.237579 263.040993 
L 335.793669 263.850178 
L 336.627805 265.525307 
L 337.739985 267.903786 
L 338.296075 268.683685 
L 338.57412 268.850495 
L 338.852165 268.815226 
L 339.13021 268.535613 
L 339.408255 267.968408 
L 339.964345 265.797465 
L 340.520436 261.965542 
L 341.076526 256.178428 
L 341.632616 248.22561 
L 342.466751 232.080733 
L 343.300886 211.24143 
L 344.691112 169.525921 
L 346.359382 119.477577 
L 347.193517 99.417886 
L 348.027653 84.869039 
L 348.583743 78.758043 
L 348.861788 76.858259 
L 349.139833 75.751946 
L 349.417878 75.450024 
L 349.695923 75.958605 
L 349.973968 77.278199 
L 350.530058 82.324395 
L 351.086148 90.468689 
L 351.920284 107.93119 
L 353.032464 138.668787 
L 355.53487 213.159151 
L 356.369005 231.909194 
L 357.20314 245.692424 
L 357.75923 252.18932 
L 358.31532 256.789245 
L 358.87141 259.812153 
L 359.427501 261.612906 
L 359.983591 262.537825 
L 360.539681 262.893643 
L 361.095771 262.929745 
L 362.764042 262.76954 
L 363.320132 262.963826 
L 363.876222 263.375657 
L 364.432312 264.026205 
L 365.266447 265.437851 
L 366.378628 267.924229 
L 368.046898 271.75442 
L 368.881033 273.186364 
L 369.715168 274.151851 
L 370.549304 274.684658 
L 371.105394 274.828216 
L 371.661484 274.79965 
L 372.217574 274.559283 
L 372.773664 274.025247 
L 373.329754 273.072689 
L 373.885845 271.539526 
L 374.441935 269.235359 
L 374.998025 265.947693 
L 375.554115 261.445674 
L 376.110205 255.490516 
L 376.94434 243.333537 
L 377.778476 226.756738 
L 378.612611 205.515557 
L 379.724791 170.902913 
L 381.949152 98.306997 
L 382.783287 79.383563 
L 383.339377 71.662705 
L 383.617422 69.473456 
L 383.895467 68.443577 
L 384.173512 68.580672 
L 384.451557 69.871829 
L 384.729602 72.28358 
L 385.285693 80.244233 
L 385.841783 91.85851 
L 386.675918 114.36613 
L 390.012459 212.98426 
L 390.846594 230.515613 
L 391.680729 244.004708 
L 392.514865 253.837229 
L 393.349 260.668074 
L 394.183135 265.259391 
L 395.01727 268.337291 
L 395.851405 270.478541 
L 396.685541 272.050358 
L 397.519676 273.196271 
L 398.075766 273.704708 
L 398.631856 273.954035 
L 399.187946 273.882781 
L 399.744036 273.433678 
L 400.300127 272.570022 
L 400.856217 271.291422 
L 401.690352 268.714306 
L 403.636668 262.025812 
L 404.192758 260.745649 
L 404.748848 260.019897 
L 405.026893 259.884412 
L 405.304938 259.900355 
L 405.582983 260.060602 
L 406.139073 260.758281 
L 406.973208 262.416029 
L 407.807344 264.107551 
L 408.363434 264.829678 
L 408.641479 264.980231 
L 408.919524 264.956792 
L 409.197569 264.738019 
L 409.475614 264.305766 
L 410.031704 262.742817 
L 410.587794 260.176764 
L 411.143885 256.546167 
L 411.97802 248.999637 
L 412.812155 238.786772 
L 413.64629 225.763797 
L 414.75847 204.123621 
L 418.095011 133.162561 
L 418.651102 126.674066 
L 418.929147 124.607161 
L 419.207192 123.39483 
L 419.485237 123.07119 
L 419.763282 123.6542 
L 420.041327 125.144869 
L 420.597417 130.767648 
L 421.153507 139.613038 
L 421.987642 157.654859 
L 425.324183 239.283706 
L 426.158319 252.818019 
L 426.436364 256.48374 
L 426.436364 256.48374 
" clip-path="url(#p3a5f85960f)" style="fill: none; stroke-dasharray: 11.1,4.8; stroke-dashoffset: 0; stroke: #000000; stroke-width: 3"/>
   </g>
   <g id="line2d_2">
    <path d="M 27.163636 293.624259 
L 27.441681 283.56241 
L 27.719727 259.987838 
L 27.997772 205.757095 
L 28.553862 248.981994 
L 28.831907 268.236871 
L 29.109952 271.449032 
L 29.387997 268.71085 
L 29.666042 262.908114 
L 29.944087 252.300574 
L 30.222132 178.259031 
L 30.500177 201.094756 
L 31.056267 270.831413 
L 31.334312 259.550307 
L 31.612358 265.889929 
L 31.890403 267.489636 
L 32.168448 259.891296 
L 32.724538 189.056033 
L 33.002583 201.173236 
L 33.280628 264.450983 
L 33.558673 245.980321 
L 33.836718 260.528318 
L 34.114763 266.051575 
L 34.392808 259.366348 
L 34.948898 182.071206 
L 35.226944 203.553634 
L 35.504989 263.314243 
L 36.061079 241.260459 
L 36.339124 244.938249 
L 36.617169 254.164484 
L 36.895214 231.147057 
L 37.173259 221.54483 
L 37.729349 268.725054 
L 38.285439 242.465077 
L 38.563484 236.105013 
L 39.119575 202.352984 
L 39.39762 208.340197 
L 39.675665 263.963706 
L 39.95371 261.945932 
L 40.5098 251.984012 
L 40.787845 265.155937 
L 41.06589 249.645889 
L 41.343935 207.596936 
L 41.62198 203.709986 
L 42.17807 278.844633 
L 42.456115 271.670608 
L 42.734161 272.217115 
L 43.012206 273.553526 
L 43.290251 262.928629 
L 43.846341 189.423896 
L 44.124386 209.50601 
L 44.402431 287.612635 
L 44.680476 286.764421 
L 44.958521 273.509703 
L 45.236566 275.347796 
L 45.514611 267.675821 
L 45.792656 228.052263 
L 46.070701 219.115702 
L 46.348747 235.524616 
L 46.626792 284.654633 
L 46.904837 282.984608 
L 47.738972 246.835427 
L 48.017017 211.204277 
L 48.295062 219.828162 
L 48.573107 235.79112 
L 48.851152 285.318677 
L 49.129197 275.765945 
L 49.407242 271.47798 
L 49.685287 273.416126 
L 49.963332 270.296449 
L 50.241378 229.369673 
L 50.519423 211.537096 
L 50.797468 214.897384 
L 51.075513 286.343614 
L 51.353558 280.056853 
L 51.909648 259.582511 
L 52.187693 254.684614 
L 52.465738 193.625099 
L 52.743783 187.254692 
L 53.021828 216.180966 
L 53.299873 286.319563 
L 53.577918 283.234305 
L 54.134009 264.038792 
L 54.690099 219.012393 
L 54.968144 199.058555 
L 55.524234 270.328563 
L 55.802279 261.489552 
L 56.080324 259.057839 
L 56.358369 241.157344 
L 56.914459 180.891473 
L 57.192504 204.931068 
L 57.47055 260.200089 
L 57.748595 272.332188 
L 58.02664 274.941487 
L 58.304685 271.126381 
L 58.58273 264.921934 
L 58.860775 245.18309 
L 59.416865 131.765758 
L 59.69491 173.602734 
L 59.972955 264.898813 
L 60.251 273.547104 
L 60.529045 266.188097 
L 60.80709 262.025733 
L 61.085135 246.43236 
L 61.363181 198.284991 
L 61.641226 123.90424 
L 61.919271 130.969468 
L 62.197316 249.162435 
L 62.475361 253.617582 
L 62.753406 253.529225 
L 63.031451 249.710304 
L 63.309496 242.60193 
L 63.587541 188.357411 
L 64.143631 133.608061 
L 64.421676 250.915177 
L 64.699721 237.508285 
L 64.977767 231.326012 
L 65.255812 222.047673 
L 65.533857 198.535334 
L 65.811902 161.382139 
L 66.367992 140.351903 
L 66.646037 212.302849 
L 66.924082 221.922107 
L 67.202127 222.053369 
L 67.480172 211.469897 
L 67.758217 192.640992 
L 68.036262 121.704124 
L 68.314307 112.191948 
L 68.592352 112.805911 
L 68.870398 210.871652 
L 69.148443 226.444987 
L 69.426488 224.01843 
L 69.704533 214.315522 
L 69.982578 181.660847 
L 70.260623 111.186566 
L 70.538668 116.189811 
L 70.816713 110.225601 
L 71.094758 211.324922 
L 71.372803 224.255793 
L 71.650848 218.965833 
L 71.928893 206.837197 
L 72.206938 150.65372 
L 72.763029 103.253521 
L 73.319119 232.333564 
L 73.597164 227.607067 
L 73.875209 206.536547 
L 74.153254 203.843003 
L 74.709344 126.867067 
L 74.987389 128.476126 
L 75.265434 206.605033 
L 75.821524 258.635384 
L 76.377615 252.694551 
L 76.65566 244.816291 
L 77.21175 123.569651 
L 77.489795 144.102339 
L 77.76784 250.346019 
L 78.045885 269.685411 
L 78.32393 272.809553 
L 78.601975 272.88249 
L 79.158065 219.362478 
L 79.43611 180.939526 
L 79.714155 190.524901 
L 79.992201 268.050783 
L 80.270246 277.013023 
L 80.548291 278.043974 
L 80.826336 274.826138 
L 81.104381 249.604963 
L 81.382426 211.937253 
L 81.660471 190.640416 
L 82.216561 273.304489 
L 82.494606 269.063658 
L 82.772651 270.200357 
L 83.328741 256.142969 
L 83.884832 204.708802 
L 84.162877 246.675404 
L 84.440922 269.773699 
L 84.718967 282.18755 
L 84.997012 272.590411 
L 85.275057 274.940886 
L 85.553102 263.831864 
L 85.831147 210.9695 
L 86.109192 198.565305 
L 86.387237 210.979744 
L 86.665282 269.141509 
L 86.943327 280.469763 
L 87.777463 246.302723 
L 88.055508 252.101187 
L 88.333553 214.730512 
L 88.611598 207.122184 
L 88.889643 267.638019 
L 89.167688 264.107976 
L 89.445733 278.424839 
L 89.723778 263.247416 
L 90.001823 241.597882 
L 90.279868 238.330897 
L 90.557913 193.264646 
L 91.114004 251.83865 
L 91.948139 255.699756 
L 92.504229 222.061027 
L 92.782274 207.473292 
L 93.616409 283.069759 
L 94.172499 248.222227 
L 95.006635 206.859869 
L 96.118815 267.057414 
L 96.39686 258.548222 
L 96.674905 231.410699 
L 96.95295 221.288445 
L 97.230995 206.202056 
L 97.50904 210.411871 
L 97.787085 209.729811 
L 98.621221 234.739385 
L 98.899266 221.206689 
L 99.177311 244.509697 
L 99.455356 213.597366 
L 100.011446 205.046376 
L 100.289491 185.415901 
L 100.567536 179.001394 
L 100.845581 205.211064 
L 101.123626 213.474413 
L 101.401671 212.162339 
L 101.957761 174.15352 
L 102.235807 190.270424 
L 102.791897 165.41582 
L 103.069942 162.57437 
L 103.347987 169.381624 
L 103.626032 148.582114 
L 103.904077 166.508641 
L 104.182122 156.761702 
L 104.460167 172.420636 
L 104.738212 169.253653 
L 105.016257 163.886526 
L 105.294302 170.081518 
L 105.572347 184.538752 
L 105.850393 172.75163 
L 106.128438 188.38857 
L 106.406483 186.114357 
L 106.962573 192.913856 
L 107.240618 194.197962 
L 107.518663 188.567636 
L 108.074753 153.529371 
L 108.352798 152.895764 
L 108.630843 220.155894 
L 108.908888 239.553223 
L 109.186933 222.16135 
L 109.464978 180.496624 
L 109.743024 175.197071 
L 110.021069 157.285475 
L 110.299114 151.863659 
L 110.577159 169.84457 
L 111.133249 242.393142 
L 111.411294 245.265496 
L 111.689339 224.364313 
L 112.245429 217.482394 
L 112.523474 208.651243 
L 112.801519 218.551202 
L 113.35761 253.204742 
L 113.635655 280.756623 
L 113.9137 266.584072 
L 114.191745 263.808391 
L 114.46979 222.991897 
L 114.747835 229.602252 
L 115.02588 221.809896 
L 115.58197 264.517035 
L 115.860015 262.488396 
L 116.13806 266.088604 
L 116.416105 273.603155 
L 116.972195 240.921496 
L 117.250241 236.48077 
L 117.528286 254.642215 
L 117.806331 263.721484 
L 118.084376 256.954245 
L 118.362421 258.596317 
L 118.640466 259.516549 
L 119.196556 237.157813 
L 119.474601 243.008681 
L 120.308736 280.453754 
L 120.586781 262.174738 
L 120.864827 259.484552 
L 121.142872 254.318735 
L 121.420917 253.647961 
L 121.698962 237.046928 
L 122.255052 268.582996 
L 122.533097 298.353037 
L 122.811142 272.958924 
L 123.089187 263.613952 
L 123.367232 237.294894 
L 123.645277 235.062416 
L 124.201367 261.772936 
L 124.757458 252.718937 
L 125.035503 259.902791 
L 125.313548 253.727499 
L 125.591593 240.990195 
L 125.869638 249.760306 
L 126.147683 253.608935 
L 126.425728 273.674979 
L 126.703773 277.156042 
L 127.259863 245.444845 
L 127.537908 240.667689 
L 127.815953 233.287244 
L 128.093998 233.217155 
L 128.372044 235.64067 
L 128.928134 264.301308 
L 129.484224 237.928114 
L 129.762269 235.60405 
L 130.318359 213.760367 
L 130.596404 217.756958 
L 130.874449 227.316274 
L 131.152494 224.816698 
L 131.430539 266.570241 
L 131.708584 266.567531 
L 131.98663 255.827575 
L 132.264675 215.787555 
L 132.54272 212.827548 
L 132.820765 201.424326 
L 133.09881 199.66649 
L 133.376855 196.362812 
L 133.6549 202.490314 
L 133.932945 213.787864 
L 134.21099 210.15886 
L 134.489035 196.002967 
L 134.76708 199.803322 
L 135.045125 174.985187 
L 135.32317 185.473769 
L 135.879261 178.340512 
L 136.157306 181.19345 
L 136.435351 187.405265 
L 136.713396 180.27245 
L 136.991441 180.02125 
L 137.269486 166.858201 
L 137.547531 172.216231 
L 138.103621 187.83708 
L 138.659711 163.855961 
L 138.937756 165.322492 
L 139.215801 157.058909 
L 139.493847 128.224732 
L 139.771892 123.050648 
L 140.049937 166.186785 
L 140.327982 162.564804 
L 140.884072 159.854338 
L 141.162117 165.878849 
L 141.440162 181.769713 
L 141.718207 171.124571 
L 141.996252 182.470133 
L 142.274297 173.184813 
L 142.830387 191.564816 
L 143.108433 189.963913 
L 143.386478 175.174924 
L 143.664523 171.06709 
L 143.942568 196.219745 
L 144.498658 211.376749 
L 145.054748 178.216315 
L 145.332793 177.684758 
L 145.610838 175.347755 
L 145.888883 181.015366 
L 146.723018 245.766695 
L 147.001064 244.395633 
L 147.279109 228.188709 
L 147.557154 223.234347 
L 147.835199 211.710839 
L 148.113244 222.707615 
L 148.391289 225.418219 
L 148.947379 251.030201 
L 149.225424 297.873653 
L 149.503469 293.499484 
L 150.059559 256.541778 
L 150.61565 239.00711 
L 151.17174 253.641326 
L 151.449785 255.460804 
L 151.72783 255.313611 
L 152.005875 259.420256 
L 152.28392 249.416103 
L 152.561965 243.975321 
L 152.84001 242.664422 
L 153.118055 243.410538 
L 153.3961 255.402058 
L 153.674145 253.046689 
L 153.95219 252.331264 
L 154.230236 252.068036 
L 154.786326 235.581544 
L 155.064371 243.318641 
L 155.342416 243.571673 
L 155.620461 284.035942 
L 155.898506 300.306161 
L 156.176551 264.740186 
L 156.454596 259.301982 
L 156.732641 257.587064 
L 157.010686 239.972793 
L 157.288731 235.610658 
L 157.566776 241.529452 
L 157.844821 251.500205 
L 158.122867 294.378029 
L 159.235047 235.255278 
L 159.513092 230.61409 
L 159.791137 236.694064 
L 160.069182 247.186549 
L 160.347227 251.87666 
L 160.625272 251.647786 
L 160.903317 247.467499 
L 161.181362 245.762008 
L 161.459407 241.025171 
L 161.737453 250.69486 
L 162.015498 254.41453 
L 162.293543 291.85782 
L 162.849633 222.607223 
L 163.405723 212.345566 
L 163.683768 221.596394 
L 163.961813 255.60938 
L 164.239858 267.406055 
L 164.517903 311.019726 
L 165.073993 239.048942 
L 165.630084 202.23863 
L 165.908129 204.918944 
L 166.186174 196.253255 
L 166.464219 205.144183 
L 166.742264 228.271115 
L 167.020309 273.144881 
L 167.298354 259.668726 
L 167.854444 203.877038 
L 168.132489 193.409828 
L 168.410534 194.806174 
L 168.688579 178.590675 
L 168.966624 182.176865 
L 169.522715 202.560057 
L 169.80076 198.700092 
L 170.078805 182.846429 
L 170.35685 173.97592 
L 170.634895 187.267341 
L 170.91294 180.085616 
L 171.190985 146.884856 
L 171.46903 151.304759 
L 171.747075 170.410908 
L 172.02512 181.568944 
L 172.303165 152.511865 
L 172.58121 172.875247 
L 172.859256 184.590759 
L 173.137301 168.865191 
L 173.415346 165.524603 
L 173.693391 165.47279 
L 173.971436 158.510704 
L 174.249481 161.9341 
L 174.527526 156.99746 
L 174.805571 162.757735 
L 175.083616 178.294187 
L 175.361661 174.717743 
L 175.639706 152.4924 
L 175.917751 167.219567 
L 176.473841 154.473235 
L 177.029932 159.636537 
L 177.307977 182.942687 
L 177.586022 172.664275 
L 177.864067 170.291135 
L 178.420157 184.248816 
L 178.698202 183.955659 
L 179.254292 190.406579 
L 179.810382 211.004987 
L 180.088427 233.594253 
L 180.366473 224.561488 
L 180.644518 203.436376 
L 180.922563 216.975943 
L 181.478653 232.860697 
L 181.756698 233.766088 
L 182.312788 274.478617 
L 182.590833 265.389297 
L 182.868878 243.430196 
L 183.146923 249.048544 
L 183.424968 249.170266 
L 183.703013 250.774294 
L 183.981058 240.424604 
L 184.259104 249.981632 
L 184.537149 266.530434 
L 184.815194 316.472727 
L 185.093239 309.065437 
L 185.371284 279.609618 
L 185.649329 269.402311 
L 185.927374 265.273761 
L 186.205419 253.231817 
L 186.483464 250.627501 
L 186.761509 258.957296 
L 187.317599 296.087453 
L 187.595644 291.205125 
L 187.87369 279.142808 
L 188.151735 246.895597 
L 188.42978 253.698323 
L 188.707825 254.52285 
L 188.98587 280.533147 
L 189.263915 279.598662 
L 189.54196 259.761597 
L 189.820005 265.546831 
L 190.09805 257.958355 
L 190.376095 246.197887 
L 190.65414 260.785152 
L 190.932185 250.085805 
L 191.21023 279.773767 
L 191.488276 287.925174 
L 191.766321 263.269286 
L 192.044366 264.611455 
L 192.322411 261.383527 
L 192.600456 247.830095 
L 192.878501 249.007776 
L 193.156546 244.476629 
L 193.712636 302.120293 
L 194.268726 255.800425 
L 194.824816 246.051474 
L 195.102861 231.774954 
L 195.380907 249.584565 
L 195.658952 259.305701 
L 195.936997 255.813627 
L 196.493087 235.50182 
L 196.771132 238.480918 
L 197.049177 231.263084 
L 197.327222 235.47471 
L 197.605267 241.870489 
L 197.883312 242.707284 
L 198.161357 240.759102 
L 198.439402 220.907629 
L 198.717447 228.069751 
L 198.995493 238.436445 
L 199.273538 242.81445 
L 199.551583 241.021231 
L 199.829628 245.75775 
L 200.107673 264.754011 
L 200.385718 241.682037 
L 200.663763 205.289268 
L 200.941808 199.742164 
L 201.219853 204.903931 
L 201.497898 203.716677 
L 201.775943 216.298665 
L 202.053988 209.364242 
L 202.332033 190.840536 
L 202.610079 199.309631 
L 202.888124 184.024255 
L 203.166169 175.192854 
L 203.444214 148.195547 
L 204.278349 174.56645 
L 204.556394 147.973834 
L 204.834439 151.066346 
L 205.112484 157.957679 
L 205.390529 162.024455 
L 205.668574 149.47176 
L 205.946619 147.049434 
L 206.224664 146.769769 
L 206.50271 147.519735 
L 206.780755 130.16162 
L 207.0588 127.446233 
L 207.336845 128.409189 
L 207.61489 130.490361 
L 207.892935 130.376836 
L 208.17098 126.698577 
L 208.72707 132.84528 
L 209.005115 127.993439 
L 209.28316 128.875315 
L 209.561205 120.562946 
L 209.83925 120.758822 
L 210.117296 127.40183 
L 210.395341 123.967264 
L 210.673386 124.88019 
L 210.951431 119.916842 
L 211.229476 129.202051 
L 211.507521 131.378914 
L 211.785566 129.011636 
L 212.063611 123.07202 
L 212.341656 124.914032 
L 212.619701 138.46922 
L 212.897746 135.241672 
L 213.175791 145.261682 
L 213.453836 147.517385 
L 214.009927 160.521856 
L 214.287972 164.11641 
L 214.566017 171.388407 
L 215.122107 166.414166 
L 215.400152 168.564141 
L 215.678197 185.692621 
L 216.234287 172.06198 
L 216.512332 169.718963 
L 216.790377 174.754861 
L 217.068422 177.320171 
L 217.346467 188.366051 
L 217.624513 205.973292 
L 217.902558 234.509515 
L 218.180603 226.693727 
L 218.458648 206.748321 
L 218.736693 197.467411 
L 219.014738 194.380802 
L 219.292783 176.597619 
L 219.848873 238.69818 
L 220.404963 273.371626 
L 220.683008 266.292767 
L 220.961053 262.674664 
L 221.239099 253.494657 
L 221.517144 238.145223 
L 221.795189 235.442279 
L 222.073234 250.442733 
L 222.629324 251.68328 
L 222.907369 247.924349 
L 223.185414 251.406449 
L 223.741504 253.860765 
L 224.019549 275.597973 
L 224.297594 282.76951 
L 225.13173 233.488359 
L 225.68782 259.356796 
L 225.965865 266.106672 
L 226.24391 285.489652 
L 226.8 278.136803 
L 227.078045 277.793533 
L 227.634135 246.041825 
L 227.91218 243.631705 
L 228.190225 257.375553 
L 228.46827 258.667767 
L 228.746316 267.561716 
L 229.024361 263.987297 
L 229.302406 269.886616 
L 229.580451 254.711233 
L 229.858496 227.516394 
L 230.136541 222.446143 
L 230.692631 244.096539 
L 230.970676 244.503856 
L 231.248721 248.547691 
L 231.804811 252.712958 
L 232.082856 253.18863 
L 232.360901 251.962751 
L 232.638947 253.484911 
L 232.916992 258.387488 
L 233.195037 247.287189 
L 233.473082 252.730474 
L 234.029172 228.957973 
L 234.307217 228.912201 
L 234.863307 233.7696 
L 235.419397 244.40831 
L 235.697442 239.024584 
L 236.253533 200.231335 
L 236.531578 163.195576 
L 236.809623 162.10447 
L 237.087668 159.410414 
L 237.365713 179.373003 
L 237.643758 180.315112 
L 237.921803 189.108316 
L 238.199848 192.968102 
L 238.477893 164.842791 
L 238.755938 152.54543 
L 239.033983 147.495667 
L 239.312028 133.337479 
L 239.590073 136.631148 
L 239.868119 143.093003 
L 240.146164 129.670168 
L 240.702254 140.399776 
L 240.980299 141.802233 
L 241.258344 145.752429 
L 241.536389 137.399057 
L 242.092479 128.926686 
L 242.648569 124.756394 
L 242.926614 129.656109 
L 243.204659 128.816382 
L 243.482704 128.968546 
L 243.76075 128.834188 
L 244.038795 139.711868 
L 244.31684 135.831208 
L 244.594885 136.000734 
L 244.87293 139.061354 
L 245.150975 135.767837 
L 245.42902 130.538981 
L 245.707065 137.408803 
L 245.98511 140.099776 
L 246.263155 148.874221 
L 246.5412 142.29627 
L 246.819245 132.03135 
L 247.09729 143.163023 
L 247.375336 141.17063 
L 247.653381 143.064981 
L 247.931426 147.162696 
L 248.209471 163.015516 
L 248.487516 168.662224 
L 248.765561 169.203692 
L 249.043606 162.059887 
L 249.321651 169.560441 
L 249.599696 173.753612 
L 249.877741 183.651954 
L 250.155786 189.314754 
L 250.433831 218.843475 
L 250.711876 232.195197 
L 250.989921 232.612621 
L 251.267967 236.204492 
L 251.824057 192.002271 
L 252.102102 193.251983 
L 252.380147 214.911678 
L 252.658192 247.552076 
L 253.214282 281.077498 
L 253.492327 290.15461 
L 254.048417 252.659465 
L 254.326462 241.276067 
L 254.604507 250.735171 
L 254.882553 268.400288 
L 255.160598 274.005074 
L 255.438643 273.303438 
L 255.716688 273.256954 
L 255.994733 276.772398 
L 256.272778 272.273379 
L 256.550823 265.038866 
L 256.828868 263.887534 
L 257.384958 275.397376 
L 257.663003 272.667536 
L 257.941048 268.555154 
L 258.219093 261.997787 
L 258.497139 261.045518 
L 258.775184 267.455373 
L 259.331274 286.747638 
L 259.609319 279.659496 
L 259.887364 279.494697 
L 260.165409 277.575242 
L 260.721499 263.910987 
L 261.277589 270.010163 
L 261.833679 280.244455 
L 262.111724 290.771206 
L 262.667815 273.412912 
L 262.94586 272.261159 
L 263.50195 245.486954 
L 263.779995 238.29758 
L 264.336085 242.010141 
L 264.61413 255.946526 
L 264.892175 256.723974 
L 265.17022 258.215155 
L 266.004356 230.595566 
L 266.282401 240.965892 
L 266.560446 238.267112 
L 266.838491 242.116478 
L 267.116536 242.461835 
L 267.672626 257.610745 
L 267.950671 265.469872 
L 268.228716 266.689433 
L 268.506761 253.041851 
L 269.062851 215.442792 
L 269.340896 197.274618 
L 269.618942 193.220851 
L 269.896987 195.078719 
L 270.175032 199.860416 
L 270.453077 217.454428 
L 270.731122 222.016693 
L 271.287212 211.813056 
L 271.565257 204.996139 
L 272.121347 183.430199 
L 272.399392 188.78993 
L 272.677437 189.762853 
L 272.955482 194.140122 
L 273.511573 174.374791 
L 273.789618 173.415111 
L 274.067663 175.862197 
L 274.345708 173.977385 
L 274.901798 183.746125 
L 275.179843 183.275879 
L 275.457888 174.79314 
L 276.013978 136.601813 
L 276.292023 138.299997 
L 276.570068 149.469535 
L 276.848113 172.245497 
L 277.126159 183.986169 
L 277.404204 179.748539 
L 277.682249 167.717212 
L 278.238339 127.038985 
L 278.516384 130.666371 
L 278.794429 142.722098 
L 279.350519 179.178593 
L 279.628564 186.072013 
L 279.906609 186.124476 
L 280.184654 175.384942 
L 280.740744 137.980173 
L 281.01879 136.929516 
L 281.296835 149.859904 
L 281.57488 175.806499 
L 281.852925 183.566493 
L 282.13097 184.088538 
L 282.409015 179.508287 
L 282.68706 176.956428 
L 283.24315 169.735193 
L 283.79924 181.77357 
L 284.35533 197.250744 
L 284.633376 189.539992 
L 284.911421 192.855199 
L 285.189466 205.589061 
L 285.467511 211.484371 
L 286.023601 251.741189 
L 286.301646 254.180015 
L 286.857736 215.348469 
L 287.135781 208.266072 
L 287.413826 217.179823 
L 287.691871 236.538542 
L 287.969916 265.203299 
L 288.804052 303.654937 
L 289.082097 270.660801 
L 289.638187 245.278222 
L 289.916232 245.850684 
L 290.472322 272.816368 
L 290.750367 282.22283 
L 291.028412 277.467793 
L 291.584502 272.498901 
L 291.862547 266.964232 
L 292.140593 271.151403 
L 292.418638 272.816299 
L 292.696683 268.247537 
L 292.974728 268.230395 
L 293.252773 264.967678 
L 293.530818 253.25471 
L 294.086908 266.755513 
L 294.364953 262.808192 
L 294.642998 261.076525 
L 294.921043 266.30552 
L 295.199088 264.245154 
L 295.477133 270.549896 
L 295.755179 264.20798 
L 296.033224 270.060718 
L 296.311269 266.923098 
L 296.589314 259.974 
L 297.145404 274.511608 
L 297.423449 270.275333 
L 297.701494 269.534616 
L 297.979539 273.841657 
L 298.257584 264.595039 
L 298.535629 259.856079 
L 298.813674 246.873236 
L 299.091719 265.462683 
L 299.369764 265.74646 
L 300.2039 283.46526 
L 301.038035 217.593306 
L 301.31608 224.070728 
L 301.594125 243.79537 
L 301.87217 278.56548 
L 302.42826 248.979008 
L 302.706305 246.473888 
L 302.98435 253.1801 
L 303.262396 254.924914 
L 303.818486 290.76962 
L 304.096531 292.647316 
L 304.374576 279.417157 
L 304.652621 246.946663 
L 305.208711 225.273714 
L 305.486756 225.135402 
L 306.042846 240.667434 
L 306.320891 260.425189 
L 306.598936 244.18632 
L 306.876982 209.965307 
L 307.433072 181.329535 
L 307.711117 179.211619 
L 308.267207 181.995477 
L 308.545252 192.542412 
L 308.823297 185.657272 
L 309.101342 168.351441 
L 309.379387 158.235242 
L 309.657432 158.178217 
L 309.935477 161.558357 
L 310.213522 162.124432 
L 310.491567 162.001134 
L 310.769613 166.610857 
L 311.325703 142.453216 
L 311.603748 137.180523 
L 311.881793 149.413297 
L 312.159838 155.57059 
L 312.437883 167.692218 
L 312.715928 172.402457 
L 312.993973 167.373375 
L 313.550063 133.830935 
L 313.828108 123.437284 
L 314.106153 130.638349 
L 315.218334 174.856054 
L 315.496379 172.345557 
L 315.774424 155.893566 
L 316.052469 148.075387 
L 316.330514 152.681267 
L 316.608559 148.920878 
L 316.886604 163.414069 
L 317.442694 179.145028 
L 317.998785 159.353569 
L 318.27683 164.924741 
L 318.554875 180.243613 
L 318.83292 182.940061 
L 319.110965 187.09245 
L 319.38901 188.879345 
L 319.667055 192.829085 
L 319.9451 190.563443 
L 320.223145 185.704938 
L 320.50119 190.987308 
L 320.779235 219.81572 
L 321.05728 235.394557 
L 321.335325 235.91833 
L 321.61337 255.141976 
L 321.891416 254.029269 
L 322.169461 237.752808 
L 322.447506 231.786428 
L 322.725551 233.716888 
L 323.559686 264.17398 
L 323.837731 269.910836 
L 324.115776 271.280231 
L 324.949911 244.689986 
L 325.227956 240.075071 
L 325.784047 260.145587 
L 326.340137 274.464302 
L 326.896227 264.995513 
L 327.174272 259.373945 
L 327.452317 256.191084 
L 327.730362 261.00222 
L 328.008407 260.05622 
L 328.564497 269.558559 
L 328.842542 269.494954 
L 329.120587 262.497036 
L 329.398633 258.485757 
L 329.676678 272.628379 
L 329.954723 277.929654 
L 330.232768 280.183172 
L 330.510813 292.441134 
L 330.788858 274.744422 
L 331.066903 271.285816 
L 331.344948 271.706571 
L 331.622993 264.402716 
L 331.901038 267.357241 
L 332.457128 284.229005 
L 332.735173 308.381866 
L 333.013219 284.438847 
L 333.569309 264.646741 
L 333.847354 259.911169 
L 334.125399 250.11364 
L 334.403444 251.331729 
L 334.681489 257.19449 
L 334.959534 256.012523 
L 335.237579 257.866237 
L 335.515624 251.583849 
L 335.793669 250.948763 
L 336.071714 255.403724 
L 336.349759 256.102547 
L 336.627805 248.687067 
L 336.90585 250.186929 
L 337.183895 247.25972 
L 337.46194 260.2738 
L 338.01803 238.187899 
L 338.296075 243.295389 
L 338.57412 260.029677 
L 338.852165 247.383945 
L 339.13021 247.808633 
L 339.408255 260.844617 
L 339.6863 257.393248 
L 339.964345 246.294463 
L 340.24239 224.917504 
L 340.520436 217.445041 
L 340.798481 216.072736 
L 341.354571 199.884996 
L 341.632616 198.191138 
L 341.910661 194.61316 
L 342.188706 193.036905 
L 342.744796 166.744662 
L 343.022841 167.713936 
L 343.300886 172.543382 
L 343.578931 171.364159 
L 343.856976 172.273021 
L 344.135022 171.320115 
L 344.413067 144.060382 
L 344.691112 130.583232 
L 344.969157 131.362782 
L 345.525247 123.830764 
L 345.803292 128.016802 
L 346.081337 136.176026 
L 346.359382 137.383297 
L 346.915472 121.215783 
L 347.471562 127.630843 
L 347.749607 125.886665 
L 348.305698 141.270331 
L 348.583743 136.320268 
L 348.861788 123.031556 
L 349.139833 117.950605 
L 349.417878 120.384752 
L 349.695923 121.808428 
L 349.973968 122.331869 
L 350.252013 128.647547 
L 350.530058 146.254221 
L 350.808103 155.270024 
L 351.086148 151.275811 
L 351.364193 133.577399 
L 351.642239 129.952556 
L 351.920284 128.188471 
L 352.198329 131.128765 
L 352.476374 141.281183 
L 352.754419 159.796138 
L 353.032464 169.539359 
L 353.310509 165.28966 
L 353.588554 152.231232 
L 353.866599 157.064854 
L 354.144644 170.19084 
L 354.422689 170.142262 
L 354.700734 180.566285 
L 355.256825 188.233324 
L 355.53487 189.378898 
L 355.812915 183.798519 
L 356.09096 195.484765 
L 356.369005 214.043917 
L 356.925095 232.279124 
L 357.20314 263.044117 
L 357.481185 267.289461 
L 357.75923 245.696025 
L 358.037275 238.979766 
L 358.593365 246.193912 
L 358.87141 239.273711 
L 359.427501 264.588154 
L 359.705546 267.230749 
L 359.983591 257.616413 
L 360.261636 258.23428 
L 360.539681 264.515618 
L 361.095771 242.6651 
L 361.373816 239.665227 
L 361.929906 263.812158 
L 362.207951 259.641008 
L 362.485996 259.709017 
L 362.764042 266.699186 
L 363.042087 267.527031 
L 363.320132 257.089591 
L 363.598177 257.094167 
L 363.876222 257.972263 
L 364.154267 254.841056 
L 364.710357 277.105528 
L 364.988402 287.236754 
L 365.266447 284.064835 
L 365.544492 266.299444 
L 365.822537 260.007724 
L 366.100582 267.503405 
L 366.378628 264.072005 
L 366.656673 258.046699 
L 366.934718 256.190849 
L 367.212763 266.283201 
L 367.490808 270.236273 
L 367.768853 263.24714 
L 368.046898 260.314215 
L 368.324943 269.519368 
L 369.159078 227.752319 
L 369.437123 241.237394 
L 369.715168 242.000713 
L 369.993213 234.766826 
L 370.271259 233.711718 
L 370.549304 242.375364 
L 370.827349 244.914637 
L 371.105394 225.793782 
L 371.383439 222.284607 
L 371.661484 236.292221 
L 371.939529 235.427086 
L 372.217574 215.584532 
L 372.495619 219.095823 
L 373.051709 248.707444 
L 373.329754 247.021563 
L 373.607799 243.625726 
L 373.885845 252.790754 
L 374.16389 253.078513 
L 374.71998 210.186785 
L 374.998025 211.852593 
L 375.27607 205.362716 
L 375.83216 175.21319 
L 376.110205 171.073394 
L 376.38825 179.163082 
L 376.666295 178.712425 
L 376.94434 177.943396 
L 377.778476 172.480357 
L 378.056521 165.969191 
L 378.612611 146.405099 
L 378.890656 145.837116 
L 379.724791 165.651717 
L 380.280881 146.476889 
L 380.558926 148.589137 
L 380.836971 137.339544 
L 381.115016 139.478127 
L 381.393062 137.134226 
L 381.671107 140.372736 
L 381.949152 139.744327 
L 382.505242 127.571454 
L 382.783287 130.446331 
L 383.061332 138.254239 
L 383.339377 140.014204 
L 383.895467 158.598848 
L 384.173512 150.559051 
L 384.451557 138.498748 
L 384.729602 132.172468 
L 385.007648 132.335663 
L 385.285693 132.327631 
L 385.563738 133.883537 
L 385.841783 141.601767 
L 386.119828 153.855858 
L 386.397873 152.436495 
L 386.675918 152.823933 
L 386.953963 149.526878 
L 387.232008 165.028036 
L 387.510053 157.94749 
L 387.788098 154.796543 
L 388.066143 165.86902 
L 388.344188 189.784488 
L 388.622233 194.624164 
L 388.900279 183.720633 
L 389.178324 181.814075 
L 389.456369 202.929344 
L 389.734414 204.178393 
L 390.012459 194.562065 
L 390.290504 223.352931 
L 390.568549 235.267512 
L 390.846594 240.585891 
L 391.124639 249.467605 
L 391.402684 250.969769 
L 391.680729 256.933882 
L 391.958774 260.04608 
L 392.236819 261.657759 
L 392.79291 298.070507 
L 393.070955 304.573869 
L 393.349 294.001021 
L 393.627045 275.661744 
L 393.90509 272.66155 
L 394.183135 268.037457 
L 394.46118 271.297526 
L 394.739225 270.896221 
L 395.01727 277.565696 
L 395.295315 281.508199 
L 396.12945 261.064954 
L 396.407496 249.606283 
L 396.685541 247.806677 
L 396.963586 247.017243 
L 397.241631 257.684787 
L 397.519676 280.020046 
L 398.075766 256.810099 
L 398.353811 250.431736 
L 398.631856 255.152116 
L 398.909901 253.19192 
L 399.187946 255.284227 
L 399.465991 264.208312 
L 399.744036 268.363937 
L 400.022082 267.85582 
L 400.578172 262.425081 
L 400.856217 261.510966 
L 401.412307 267.918879 
L 401.690352 275.29431 
L 401.968397 277.950307 
L 402.246442 273.968889 
L 403.080577 254.521039 
L 403.358622 254.098445 
L 403.914713 285.722871 
L 404.192758 287.060944 
L 405.026893 247.604615 
L 405.304938 232.228818 
L 405.582983 228.004058 
L 405.861028 235.635777 
L 406.139073 254.131658 
L 406.417118 262.904775 
L 406.973208 246.792371 
L 407.251253 240.031954 
L 407.807344 216.392809 
L 408.085389 229.118818 
L 408.641479 241.912293 
L 409.197569 230.067991 
L 409.475614 232.040352 
L 409.753659 230.668088 
L 410.031704 217.013794 
L 410.309749 219.67828 
L 410.865839 209.939732 
L 411.143885 211.403761 
L 411.42193 211.122714 
L 411.699975 214.063519 
L 411.97802 202.390185 
L 412.256065 179.378934 
L 412.53411 180.175833 
L 412.812155 186.912942 
L 413.0902 190.456747 
L 413.368245 191.290059 
L 413.64629 195.890631 
L 413.924335 191.665471 
L 414.20238 171.005475 
L 414.480425 135.002983 
L 414.75847 126.53563 
L 415.036516 133.000471 
L 415.314561 156.566047 
L 415.592606 152.546882 
L 415.870651 168.063081 
L 416.148696 167.517811 
L 416.704786 120.070596 
L 416.982831 121.48512 
L 417.260876 123.964569 
L 417.538921 123.403014 
L 417.816966 150.40375 
L 418.095011 146.569884 
L 418.373056 161.425395 
L 418.651102 165.878587 
L 418.929147 153.030716 
L 419.485237 161.847989 
L 419.763282 153.847716 
L 420.319372 132.018797 
L 420.597417 153.711934 
L 420.875462 155.325874 
L 421.153507 146.162843 
L 421.709597 176.616586 
L 421.987642 177.849474 
L 422.543733 169.684665 
L 422.821778 178.531328 
L 423.099823 174.481154 
L 423.377868 160.303433 
L 423.655913 183.004067 
L 423.933958 196.353315 
L 424.212003 201.416723 
L 424.490048 200.966177 
L 424.768093 200.204972 
L 425.324183 207.542013 
L 425.602228 206.965362 
L 426.158319 224.226485 
L 426.436364 230.099579 
L 426.436364 230.099579 
" clip-path="url(#p3a5f85960f)" style="fill: none; stroke: #ff00ff; stroke-width: 3; stroke-linecap: square"/>
   </g>
   <g id="patch_3">
    <path d="M 7.2 331.2 
L 7.2 7.2 
" style="fill: none; stroke: #000000; stroke-width: 0.8; stroke-linejoin: miter; stroke-linecap: square"/>
   </g>
   <g id="patch_4">
    <path d="M 446.4 331.2 
L 446.4 7.2 
" style="fill: none; stroke: #000000; stroke-width: 0.8; stroke-linejoin: miter; stroke-linecap: square"/>
   </g>
   <g id="patch_5">
    <path d="M 7.2 331.2 
L 446.4 331.2 
" style="fill: none; stroke: #000000; stroke-width: 0.8; stroke-linejoin: miter; stroke-linecap: square"/>
   </g>
   <g id="patch_6">
    <path d="M 7.2 7.2 
L 446.4 7.2 
" style="fill: none; stroke: #000000; stroke-width: 0.8; stroke-linejoin: miter; stroke-linecap: square"/>
   </g>
  </g>
 </g>
 <defs>
  <clipPath id="p3a5f85960f">
   <rect x="7.2" y="7.2" width="439.2" height="324"/>
  </clipPath>
 </defs>
</svg>
