<?xml version="1.0" encoding="utf-8" standalone="no"?>
<!DOCTYPE svg PUBLIC "-//W3C//DTD SVG 1.1//EN"
  "http://www.w3.org/Graphics/SVG/1.1/DTD/svg11.dtd">
<svg xmlns:xlink="http://www.w3.org/1999/xlink" width="453.6pt" height="338.4pt" viewBox="0 0 453.6 338.4" xmlns="http://www.w3.org/2000/svg" version="1.1">
 <metadata>
  <rdf:RDF xmlns:dc="http://purl.org/dc/elements/1.1/" xmlns:cc="http://creativecommons.org/ns#" xmlns:rdf="http://www.w3.org/1999/02/22-rdf-syntax-ns#">
   <cc:Work>
    <dc:type rdf:resource="http://purl.org/dc/dcmitype/StillImage"/>
    <dc:date>2025-05-15T18:23:33.461139</dc:date>
    <dc:format>image/svg+xml</dc:format>
    <dc:creator>
     <cc:Agent>
      <dc:title>Matplotlib v3.10.1, https://matplotlib.org/</dc:title>
     </cc:Agent>
    </dc:creator>
   </cc:Work>
  </rdf:RDF>
 </metadata>
 <defs>
  <style type="text/css">*{stroke-linejoin: round; stroke-linecap: butt}</style>
 </defs>
 <g id="figure_1">
  <g id="patch_1">
   <path d="M 0 338.4 
L 453.6 338.4 
L 453.6 0 
L 0 0 
z
" style="fill: #ffffff"/>
  </g>
  <g id="axes_1">
   <g id="patch_2">
    <path d="M 7.2 331.2 
L 446.4 331.2 
L 446.4 7.2 
L 7.2 7.2 
z
" style="fill: #ffffff"/>
   </g>
   <g id="matplotlib.axis_1"/>
   <g id="matplotlib.axis_2"/>
   <g id="line2d_1">
    <path d="M 27.163636 143.323628 
L 27.441681 142.802811 
L 27.719727 141.79413 
L 28.275817 138.20809 
L 28.831907 132.446142 
L 29.666042 119.943483 
L 30.778222 98.302409 
L 32.168448 71.831603 
L 32.724538 64.173861 
L 33.280628 59.178144 
L 33.558673 57.781299 
L 33.836718 57.132384 
L 34.114763 57.216668 
L 34.392808 57.998388 
L 34.948898 61.42406 
L 35.504989 66.793288 
L 37.729349 91.242403 
L 38.285439 94.268445 
L 38.563484 94.952744 
L 38.84153 95.045837 
L 39.119575 94.536257 
L 39.39762 93.423018 
L 39.95371 89.449497 
L 40.5098 83.352082 
L 41.343935 71.06955 
L 43.846341 30.079939 
L 44.402431 24.635843 
L 44.680476 22.93937 
L 44.958521 22.018391 
L 45.236566 21.927273 
L 45.514611 22.703753 
L 45.792656 24.367879 
L 46.348747 30.335451 
L 46.904837 39.563466 
L 47.738972 58.061488 
L 49.407242 98.26543 
L 49.963332 108.127022 
L 50.519423 114.569016 
L 50.797468 116.34089 
L 51.075513 117.109321 
L 51.353558 116.880994 
L 51.631603 115.687039 
L 52.187693 110.644699 
L 52.743783 102.652097 
L 53.855964 81.457503 
L 55.246189 54.945846 
L 56.080324 43.625145 
L 56.636414 39.034752 
L 56.914459 37.737453 
L 57.192504 37.134781 
L 57.47055 37.23858 
L 57.748595 38.051356 
L 58.02664 39.56544 
L 58.58273 44.616133 
L 59.13882 52.118746 
L 59.972955 66.930573 
L 62.197316 110.216974 
L 63.031451 121.052318 
L 63.587541 125.605884 
L 64.143631 128.168893 
L 64.421676 128.828818 
L 64.699721 129.167323 
L 64.977767 129.266793 
L 66.089947 129.05669 
L 66.367992 129.289193 
L 66.646037 129.790572 
L 66.924082 130.621876 
L 67.480172 133.45748 
L 68.036262 138.037319 
L 68.592352 144.400648 
L 69.426488 156.926997 
L 70.816713 182.817227 
L 72.484984 213.455484 
L 73.319119 225.229803 
L 73.875209 231.013923 
L 74.431299 234.896402 
L 74.709344 236.082535 
L 74.987389 236.752635 
L 75.265434 236.904803 
L 75.543479 236.543291 
L 75.821524 235.676375 
L 76.377615 232.494672 
L 76.933705 227.542767 
L 77.76784 217.389596 
L 78.88002 200.56504 
L 81.660471 157.247506 
L 83.606787 131.267753 
L 84.997012 114.966445 
L 85.831147 107.191084 
L 86.387237 103.336092 
L 86.943327 100.755164 
L 87.499418 99.513448 
L 87.777463 99.379732 
L 88.055508 99.546402 
L 88.333553 99.985745 
L 88.889643 101.544781 
L 89.723778 104.969238 
L 91.114004 110.916156 
L 91.948139 113.445603 
L 92.504229 114.561955 
L 93.060319 115.296293 
L 93.894454 115.972012 
L 94.72859 116.638999 
L 95.28468 117.39642 
L 95.84077 118.64049 
L 96.39686 120.582299 
L 96.95295 123.436203 
L 97.50904 127.394994 
L 98.06513 132.606435 
L 98.899266 142.91557 
L 100.011446 160.867337 
L 102.791897 210.132624 
L 103.626032 219.979864 
L 104.182122 224.20829 
L 104.738212 226.436438 
L 105.016257 226.80524 
L 105.294302 226.696126 
L 105.572347 226.133242 
L 106.128438 223.776237 
L 106.684528 220.0479 
L 107.518663 212.732763 
L 109.464978 194.691093 
L 110.299114 188.933397 
L 111.133249 184.758048 
L 111.967384 181.710518 
L 113.9137 175.127821 
L 115.303925 169.075661 
L 116.416105 164.423384 
L 117.250241 161.926892 
L 117.806331 160.959214 
L 118.084376 160.704387 
L 118.362421 160.602638 
L 118.640466 160.650019 
L 119.196556 161.163016 
L 119.752646 162.17162 
L 120.586781 164.430597 
L 121.698962 168.399487 
L 123.923322 177.684755 
L 125.869638 185.45799 
L 130.596404 203.524945 
L 131.708584 208.679361 
L 132.820765 214.954761 
L 133.6549 220.782466 
L 134.76708 230.373132 
L 135.879261 242.030896 
L 137.269486 258.965478 
L 140.884072 304.856043 
L 141.718207 311.904734 
L 142.274297 314.922576 
L 142.552342 315.8513 
L 142.830387 316.371206 
L 143.108433 316.472727 
L 143.386478 316.152142 
L 143.664523 315.410363 
L 144.220613 312.697464 
L 144.776703 308.452866 
L 145.610838 299.639363 
L 146.723018 284.544006 
L 151.17174 219.042788 
L 152.005875 210.565056 
L 152.84001 204.107647 
L 153.674145 199.512926 
L 154.508281 196.369721 
L 155.342416 194.159113 
L 156.454596 191.91631 
L 157.566776 190.121429 
L 158.122867 189.481702 
L 158.678957 189.136211 
L 158.957002 189.109559 
L 159.235047 189.1984 
L 159.791137 189.773053 
L 160.347227 190.946886 
L 160.903317 192.783149 
L 161.459407 195.309635 
L 162.293543 200.380753 
L 163.127678 206.877115 
L 164.239858 217.275622 
L 167.854444 253.059487 
L 168.966624 261.197499 
L 169.80076 265.929353 
L 170.634895 269.450092 
L 171.190985 271.087338 
L 171.747075 272.113634 
L 172.02512 272.384332 
L 172.303165 272.486385 
L 172.58121 272.414705 
L 172.859256 272.16504 
L 173.415346 271.124772 
L 173.971436 269.36968 
L 174.527526 266.937274 
L 175.361661 262.162898 
L 176.473841 254.133317 
L 177.864067 242.255199 
L 180.922563 214.970707 
L 181.756698 209.765492 
L 182.312788 207.307042 
L 182.868878 205.620061 
L 183.424968 204.529829 
L 184.815194 202.402594 
L 185.371284 200.925869 
L 185.927374 198.749354 
L 186.761509 194.155848 
L 188.98587 180.019664 
L 189.54196 177.733504 
L 190.09805 176.246451 
L 190.65414 175.438307 
L 191.21023 175.061229 
L 192.044366 174.614901 
L 192.600456 173.964543 
L 193.156546 172.801341 
L 193.712636 171.073508 
L 194.546771 167.624525 
L 196.215042 160.357225 
L 196.771132 158.677534 
L 197.327222 157.61608 
L 197.605267 157.329437 
L 197.883312 157.203542 
L 198.161357 157.230877 
L 198.439402 157.402256 
L 198.995493 158.131431 
L 199.551583 159.294557 
L 200.385718 161.674873 
L 201.219853 164.68945 
L 202.053988 168.353776 
L 203.166169 174.462429 
L 204.278349 182.079927 
L 207.0588 202.636237 
L 207.892935 206.623502 
L 208.449025 208.210709 
L 208.72707 208.66911 
L 209.005115 208.910346 
L 209.28316 208.948388 
L 209.561205 208.801915 
L 210.117296 208.056339 
L 211.229476 205.673137 
L 212.063611 204.200816 
L 212.619701 203.793896 
L 212.897746 203.810298 
L 213.175791 203.979019 
L 213.731881 204.751323 
L 214.287972 206.01149 
L 215.400152 209.345436 
L 217.902558 217.637286 
L 218.458648 220.290123 
L 219.014738 223.738726 
L 219.848873 230.775344 
L 220.683008 240.083772 
L 223.463459 274.510808 
L 224.019549 278.512272 
L 224.575639 280.567675 
L 224.853684 280.790536 
L 225.13173 280.454385 
L 225.409775 279.553983 
L 225.965865 276.081689 
L 226.521955 270.494081 
L 227.35609 258.695236 
L 228.46827 238.479708 
L 232.360901 163.041497 
L 234.585262 120.826041 
L 237.643758 59.13266 
L 238.477893 47.51142 
L 239.033983 42.335743 
L 239.590073 39.437343 
L 239.868119 38.84925 
L 240.146164 38.816903 
L 240.424209 39.314561 
L 240.702254 40.307144 
L 241.258344 43.602061 
L 242.092479 51.029957 
L 245.707065 87.759555 
L 246.819245 95.325874 
L 247.931426 101.209009 
L 249.043606 105.817626 
L 250.155786 109.362359 
L 250.989921 111.395894 
L 251.824057 112.958195 
L 252.658192 114.097631 
L 253.492327 114.805924 
L 254.048417 114.99378 
L 254.604507 114.896132 
L 255.160598 114.441603 
L 255.716688 113.550237 
L 256.272778 112.140483 
L 256.828868 110.133373 
L 257.384958 107.461326 
L 258.219093 102.109259 
L 259.053229 95.153433 
L 260.443454 80.964856 
L 261.833679 67.271431 
L 262.38977 63.376575 
L 262.94586 61.041059 
L 263.223905 60.56861 
L 263.50195 60.603007 
L 263.779995 61.163689 
L 264.05804 62.258932 
L 264.61413 66.027817 
L 265.17022 71.749901 
L 266.004356 83.276833 
L 267.394581 106.731164 
L 269.340896 138.992012 
L 270.453077 154.421393 
L 271.287212 163.859513 
L 272.121347 170.813745 
L 272.677437 173.745859 
L 272.955482 174.648311 
L 273.233527 175.166546 
L 273.511573 175.306185 
L 273.789618 175.083021 
L 274.067663 174.522188 
L 274.623753 172.548259 
L 275.735933 166.796638 
L 276.570068 163.052204 
L 277.126159 161.771003 
L 277.404204 161.623923 
L 277.682249 161.833571 
L 277.960294 162.402757 
L 278.516384 164.562415 
L 279.072474 167.860522 
L 281.296835 183.129459 
L 281.852925 185.064586 
L 282.13097 185.522456 
L 282.409015 185.62504 
L 282.68706 185.373857 
L 282.965105 184.781663 
L 283.521195 182.672652 
L 284.35533 177.777089 
L 286.023601 166.96217 
L 286.579691 164.648143 
L 286.857736 163.931952 
L 287.135781 163.545838 
L 287.413826 163.507492 
L 287.691871 163.82466 
L 287.969916 164.496582 
L 288.526007 166.855789 
L 289.082097 170.396878 
L 290.194277 179.719277 
L 291.584502 191.406578 
L 292.418638 196.323099 
L 292.974728 198.338638 
L 293.530818 199.346332 
L 293.808863 199.509282 
L 294.086908 199.474733 
L 294.364953 199.270931 
L 294.921043 198.470228 
L 295.755179 196.713921 
L 298.535629 190.211636 
L 299.369764 187.408075 
L 300.2039 183.577762 
L 301.038035 178.686906 
L 304.652621 155.510942 
L 305.764801 150.661697 
L 309.101342 138.100342 
L 309.935477 135.80545 
L 310.491567 134.990623 
L 310.769613 134.852959 
L 311.047658 134.908313 
L 311.325703 135.158661 
L 311.881793 136.217608 
L 312.437883 137.906564 
L 313.828108 143.404192 
L 314.662244 146.362427 
L 315.496379 148.494597 
L 316.330514 149.92341 
L 317.720739 152.06287 
L 318.83292 154.353207 
L 319.667055 156.007385 
L 320.223145 156.703454 
L 320.50119 156.855318 
L 320.779235 156.851217 
L 321.05728 156.681054 
L 321.61337 155.837677 
L 322.169461 154.391932 
L 323.281641 150.446126 
L 324.393821 146.697894 
L 324.949911 145.39475 
L 325.506002 144.612043 
L 325.784047 144.428819 
L 326.062092 144.386828 
L 326.340137 144.487818 
L 326.618182 144.735584 
L 327.174272 145.691871 
L 327.730362 147.319246 
L 328.286452 149.696753 
L 328.842542 152.89349 
L 329.676678 159.224776 
L 331.066903 172.423123 
L 332.179083 182.227539 
L 333.013219 187.321437 
L 333.569309 189.438421 
L 334.125399 190.753411 
L 335.237579 192.745715 
L 335.793669 194.470206 
L 336.349759 197.269895 
L 336.90585 201.357163 
L 337.739985 209.762607 
L 340.24239 238.708112 
L 341.076526 244.842658 
L 341.632616 247.443557 
L 342.188706 248.964019 
L 342.466751 249.366382 
L 342.744796 249.555833 
L 343.022841 249.548847 
L 343.300886 249.359169 
L 343.856976 248.465449 
L 344.413067 246.90611 
L 344.969157 244.670368 
L 345.803292 240.039276 
L 346.915472 231.929359 
L 348.305698 221.420143 
L 349.139833 216.904087 
L 349.695923 215.152336 
L 349.973968 214.679583 
L 350.252013 214.462114 
L 350.530058 214.476997 
L 350.808103 214.691049 
L 351.364193 215.550675 
L 352.476374 217.622252 
L 353.032464 218.078148 
L 353.310509 218.033272 
L 353.588554 217.779355 
L 354.144644 216.619646 
L 354.700734 214.637897 
L 355.53487 210.519877 
L 357.20314 201.799694 
L 357.75923 199.879222 
L 358.31532 198.868264 
L 358.593365 198.75634 
L 358.87141 198.927642 
L 359.149456 199.391739 
L 359.705546 201.220485 
L 360.261636 204.240756 
L 360.817726 208.387934 
L 361.651861 216.446521 
L 362.764042 229.627632 
L 365.822537 267.704871 
L 367.212763 281.974619 
L 368.324943 291.386542 
L 369.159078 296.893586 
L 369.715168 299.611192 
L 370.271259 301.432649 
L 370.549304 301.98103 
L 370.827349 302.279594 
L 371.105394 302.326824 
L 371.383439 302.124693 
L 371.661484 301.680491 
L 372.217574 300.112647 
L 372.773664 297.744556 
L 373.607799 293.00731 
L 374.71998 285.10894 
L 375.83216 275.617972 
L 376.94434 264.017461 
L 378.056521 249.912637 
L 380.558926 216.432473 
L 381.393062 208.984456 
L 381.949152 205.900781 
L 382.505242 204.389735 
L 382.783287 204.198082 
L 383.061332 204.353971 
L 383.339377 204.827786 
L 383.895467 206.597154 
L 384.451557 209.232374 
L 385.563738 216.088881 
L 388.344188 234.73535 
L 388.900279 237.407852 
L 389.456369 239.111007 
L 389.734414 239.493932 
L 390.012459 239.510941 
L 390.290504 239.126497 
L 390.568549 238.311899 
L 391.124639 235.312129 
L 391.680729 230.45362 
L 392.514865 219.956022 
L 393.627045 201.690732 
L 395.57336 168.294093 
L 396.407496 156.927149 
L 397.241631 148.497559 
L 397.797721 144.684482 
L 398.353811 142.361418 
L 398.631856 141.754721 
L 398.909901 141.509461 
L 399.187946 141.614475 
L 399.465991 142.054957 
L 400.022082 143.865099 
L 400.578172 146.755907 
L 401.412307 152.624918 
L 402.802532 164.633336 
L 405.861028 191.849717 
L 406.695163 197.2112 
L 407.251253 199.341016 
L 407.529299 199.843534 
L 407.807344 199.927363 
L 408.085389 199.572001 
L 408.363434 198.771071 
L 408.919524 195.883605 
L 409.475614 191.537257 
L 411.42193 173.942371 
L 411.97802 171.361594 
L 412.256065 170.854368 
L 412.53411 170.909343 
L 412.812155 171.529708 
L 413.0902 172.697466 
L 413.64629 176.496571 
L 414.480425 184.765186 
L 415.870651 199.403205 
L 416.704786 205.496899 
L 417.260876 207.989063 
L 417.816966 209.426608 
L 418.373056 210.196938 
L 419.207192 211.142747 
L 419.763282 212.285675 
L 420.319372 214.229838 
L 420.875462 217.151398 
L 421.709597 223.405385 
L 422.543733 231.556001 
L 425.602228 264.337515 
L 426.158319 268.017635 
L 426.436364 269.276359 
L 426.436364 269.276359 
" clip-path="url(#pa70e5173d1)" style="fill: none; stroke-dasharray: 11.1,4.8; stroke-dashoffset: 0; stroke: #000000; stroke-width: 3"/>
   </g>
   <g id="line2d_2">
    <path d="M 27.163636 175.671266 
L 27.997772 176.320941 
L 29.387997 177.779974 
L 29.944087 177.871548 
L 31.612358 177.74216 
L 32.168448 177.656888 
L 32.446493 177.744817 
L 32.724538 177.954162 
L 33.280628 178.85388 
L 33.558673 179.551164 
L 34.670853 179.800752 
L 35.504989 179.559972 
L 38.007394 179.902045 
L 39.95371 179.788831 
L 40.5098 179.909563 
L 41.06589 179.814648 
L 42.17807 179.278112 
L 43.846341 178.526537 
L 44.680476 178.985622 
L 46.626792 180.09833 
L 48.295062 181.10048 
L 49.685287 182.202557 
L 50.519423 183.060968 
L 51.631603 184.602616 
L 52.743783 186.52696 
L 55.524234 191.826786 
L 56.358369 192.451934 
L 57.192504 192.766976 
L 58.02664 192.818306 
L 58.860775 192.646548 
L 59.972955 192.128843 
L 61.085135 191.358134 
L 63.031451 189.654523 
L 66.924082 186.086934 
L 68.314307 185.116068 
L 69.426488 184.56222 
L 69.982578 184.45918 
L 71.372803 185.024342 
L 71.928893 185.249556 
L 73.319119 186.034769 
L 74.153254 186.347077 
L 75.821524 186.498638 
L 80.548291 186.754225 
L 81.938516 187.15431 
L 83.606787 187.775662 
L 84.997012 187.955469 
L 87.221372 187.988044 
L 88.611598 187.805124 
L 91.392049 187.394483 
L 93.060319 187.419769 
L 95.006635 187.702084 
L 96.674905 188.112117 
L 98.343175 188.754349 
L 100.011446 189.667432 
L 101.679716 190.875358 
L 103.347987 192.405843 
L 104.738212 193.84764 
L 105.850393 194.084548 
L 109.464978 194.511438 
L 111.967384 194.634068 
L 114.46979 194.536647 
L 117.250241 194.185841 
L 121.142872 193.418321 
L 124.757458 192.518526 
L 145.054748 187.977945 
L 151.72783 186.013128 
L 153.674145 186.293621 
L 155.620461 186.340851 
L 157.566776 186.14935 
L 159.235047 185.738558 
L 161.181362 185.000044 
L 163.405723 183.897283 
L 169.522715 180.667896 
L 173.415346 179.029891 
L 176.751887 177.639652 
L 179.532337 176.71199 
L 182.868878 175.840519 
L 186.483464 175.127593 
L 192.044366 174.801693 
L 208.17098 174.224914 
L 220.126918 174.101828 
L 228.46827 173.999548 
L 231.248721 174.030452 
L 234.307217 174.568354 
L 237.643758 174.919767 
L 240.980299 175.037614 
L 244.31684 174.934119 
L 249.877741 174.699565 
L 254.604507 175.097145 
L 259.331274 175.219015 
L 262.667815 175.087577 
L 265.72631 174.775345 
L 267.672626 174.576251 
L 270.453077 174.974211 
L 273.233527 175.162218 
L 276.013978 175.125467 
L 279.350519 174.781647 
L 284.35533 174.235241 
L 287.135781 174.381182 
L 290.472322 174.30692 
L 297.979539 173.984589 
L 298.535629 174.209196 
L 300.75999 175.384244 
L 302.42826 176.040524 
L 304.096531 176.466502 
L 305.764801 176.671063 
L 307.711117 176.687161 
L 311.325703 176.428233 
L 313.550063 176.273331 
L 316.052469 176.378193 
L 317.998785 176.625884 
L 319.110965 177.007746 
L 321.61337 177.881267 
L 324.115776 178.510288 
L 326.618182 178.899136 
L 329.120587 179.069071 
L 331.901038 179.044318 
L 336.349759 178.740438 
L 339.6863 178.481737 
L 343.300886 178.853197 
L 354.700734 179.820646 
L 358.31532 180.333871 
L 360.817726 180.196282 
L 366.100582 180.016703 
L 367.490808 179.680172 
L 368.602988 179.217367 
L 369.715168 178.540129 
L 371.105394 177.518312 
L 373.607799 177.010783 
L 376.94434 176.589056 
L 382.227197 175.925031 
L 383.061332 175.821308 
L 383.895467 175.921083 
L 384.729602 175.834444 
L 385.841783 175.449621 
L 386.953963 174.787418 
L 388.344188 173.650792 
L 390.568549 171.442462 
L 392.79291 169.33345 
L 393.90509 168.538139 
L 394.46118 168.243826 
L 397.519676 164.275468 
L 399.187946 162.614532 
L 400.578172 161.536373 
L 402.524487 160.739923 
L 404.470803 160.213638 
L 406.417118 159.934512 
L 408.363434 159.885004 
L 412.812155 160.160789 
L 415.592606 160.621165 
L 418.095011 161.221407 
L 421.709597 162.756828 
L 426.436364 164.934786 
L 426.436364 164.934786 
" clip-path="url(#pa70e5173d1)" style="fill: none; stroke: #ff00ff; stroke-width: 3; stroke-linecap: square"/>
   </g>
   <g id="patch_3">
    <path d="M 7.2 331.2 
L 7.2 7.2 
" style="fill: none; stroke: #000000; stroke-width: 0.8; stroke-linejoin: miter; stroke-linecap: square"/>
   </g>
   <g id="patch_4">
    <path d="M 446.4 331.2 
L 446.4 7.2 
" style="fill: none; stroke: #000000; stroke-width: 0.8; stroke-linejoin: miter; stroke-linecap: square"/>
   </g>
   <g id="patch_5">
    <path d="M 7.2 331.2 
L 446.4 331.2 
" style="fill: none; stroke: #000000; stroke-width: 0.8; stroke-linejoin: miter; stroke-linecap: square"/>
   </g>
   <g id="patch_6">
    <path d="M 7.2 7.2 
L 446.4 7.2 
" style="fill: none; stroke: #000000; stroke-width: 0.8; stroke-linejoin: miter; stroke-linecap: square"/>
   </g>
  </g>
 </g>
 <defs>
  <clipPath id="pa70e5173d1">
   <rect x="7.2" y="7.2" width="439.2" height="324"/>
  </clipPath>
 </defs>
</svg>
