<?xml version="1.0" encoding="utf-8" standalone="no"?>
<!DOCTYPE svg PUBLIC "-//W3C//DTD SVG 1.1//EN"
  "http://www.w3.org/Graphics/SVG/1.1/DTD/svg11.dtd">
<svg xmlns:xlink="http://www.w3.org/1999/xlink" width="453.6pt" height="338.4pt" viewBox="0 0 453.6 338.4" xmlns="http://www.w3.org/2000/svg" version="1.1">
 <metadata>
  <rdf:RDF xmlns:dc="http://purl.org/dc/elements/1.1/" xmlns:cc="http://creativecommons.org/ns#" xmlns:rdf="http://www.w3.org/1999/02/22-rdf-syntax-ns#">
   <cc:Work>
    <dc:type rdf:resource="http://purl.org/dc/dcmitype/StillImage"/>
    <dc:date>2025-05-15T16:49:26.542315</dc:date>
    <dc:format>image/svg+xml</dc:format>
    <dc:creator>
     <cc:Agent>
      <dc:title>Matplotlib v3.10.1, https://matplotlib.org/</dc:title>
     </cc:Agent>
    </dc:creator>
   </cc:Work>
  </rdf:RDF>
 </metadata>
 <defs>
  <style type="text/css">*{stroke-linejoin: round; stroke-linecap: butt}</style>
 </defs>
 <g id="figure_1">
  <g id="patch_1">
   <path d="M 0 338.4 
L 453.6 338.4 
L 453.6 0 
L 0 0 
z
" style="fill: #ffffff"/>
  </g>
  <g id="axes_1">
   <g id="patch_2">
    <path d="M 7.2 331.2 
L 446.4 331.2 
L 446.4 7.2 
L 7.2 7.2 
z
" style="fill: #ffffff"/>
   </g>
   <g id="matplotlib.axis_1"/>
   <g id="matplotlib.axis_2"/>
   <g id="line2d_1">
    <path d="M 27.163636 71.353785 
L 27.719727 70.215288 
L 28.275817 68.474462 
L 29.109952 64.96434 
L 31.890403 51.909765 
L 32.446493 50.17745 
L 33.002583 49.163167 
L 33.280628 49.009773 
L 33.558673 49.143005 
L 33.836718 49.601362 
L 34.114763 50.424257 
L 34.670853 53.299427 
L 35.226944 57.973477 
L 35.783034 64.482578 
L 36.617169 77.221855 
L 39.119575 119.420727 
L 39.95371 128.790003 
L 40.787845 135.236389 
L 41.900025 141.349847 
L 43.012206 146.443349 
L 43.568296 148.260568 
L 43.846341 148.764518 
L 44.124386 148.885896 
L 44.402431 148.540608 
L 44.680476 147.65135 
L 44.958521 146.156015 
L 45.514611 141.20385 
L 46.070701 133.676008 
L 46.904837 118.782431 
L 48.017017 98.405384 
L 48.573107 91.317865 
L 48.851152 89.144214 
L 49.129197 88.047661 
L 49.407242 88.103183 
L 49.685287 89.344213 
L 49.963332 91.758188 
L 50.519423 99.828886 
L 51.353558 117.95143 
L 52.743783 150.349215 
L 53.299873 159.008665 
L 53.577918 161.752021 
L 53.855964 163.319393 
L 54.134009 163.674508 
L 54.412054 162.823346 
L 54.690099 160.812206 
L 55.246189 153.695204 
L 56.080324 137.528682 
L 57.47055 108.807281 
L 58.02664 101.0764 
L 58.58273 97.064557 
L 58.860775 96.590799 
L 59.13882 97.142166 
L 59.416865 98.678028 
L 59.972955 104.380039 
L 60.80709 117.603407 
L 62.197316 141.047011 
L 62.753406 147.18357 
L 63.031451 149.110515 
L 63.309496 150.213451 
L 63.587541 150.48883 
L 63.865586 149.969074 
L 64.143631 148.720243 
L 64.699721 144.463517 
L 66.367992 129.109252 
L 66.646037 128.044514 
L 66.924082 127.826986 
L 67.202127 128.561736 
L 67.480172 130.31776 
L 68.036262 136.98451 
L 68.592352 147.605352 
L 69.426488 169.000127 
L 70.816713 206.871555 
L 71.372803 218.154098 
L 71.928893 225.453521 
L 72.206938 227.446524 
L 72.484984 228.329653 
L 72.763029 228.149917 
L 73.041074 226.992473 
L 73.597164 222.249882 
L 74.431299 211.57367 
L 75.265434 201.129524 
L 75.821524 196.543011 
L 76.09957 195.314646 
L 76.377615 194.877565 
L 76.65566 195.246865 
L 76.933705 196.401066 
L 77.489795 200.813922 
L 78.32393 211.012577 
L 79.43611 224.962843 
L 79.992201 229.448292 
L 80.270246 230.705077 
L 80.548291 231.24079 
L 80.826336 231.050314 
L 81.104381 230.162778 
L 81.660471 226.579961 
L 82.494606 218.462405 
L 83.328741 210.796569 
L 83.884832 208.095361 
L 84.162877 207.866081 
L 84.440922 208.499818 
L 84.718967 210.042265 
L 85.275057 215.85076 
L 85.831147 224.923127 
L 86.943327 248.796416 
L 87.777463 265.97099 
L 88.333553 274.281403 
L 88.889643 278.802718 
L 89.167688 279.463354 
L 89.445733 279.041674 
L 89.723778 277.580026 
L 90.279868 271.906485 
L 91.114004 258.815183 
L 92.226184 241.399323 
L 92.782274 236.472133 
L 93.060319 235.522592 
L 93.338364 235.70557 
L 93.616409 237.05972 
L 93.894454 239.578052 
L 94.450544 247.854271 
L 95.28468 266.349611 
L 96.674905 299.623127 
L 97.230995 308.69904 
L 97.787085 313.46463 
L 98.06513 314.073088 
L 98.343175 313.506423 
L 98.621221 311.828008 
L 99.177311 305.590842 
L 100.011446 291.579887 
L 101.123626 272.849542 
L 101.679716 266.823419 
L 101.957761 265.070891 
L 102.235807 264.220488 
L 102.513852 264.268613 
L 102.791897 265.172714 
L 103.347987 269.203959 
L 104.182122 278.857378 
L 105.294302 292.081355 
L 105.850393 296.56731 
L 106.406483 298.955551 
L 106.684528 299.36097 
L 106.962573 299.290099 
L 107.240618 298.804943 
L 107.796708 296.897704 
L 110.021069 287.08385 
L 111.133249 283.238673 
L 111.689339 280.652966 
L 112.245429 277.129825 
L 113.079564 269.803198 
L 115.860015 241.447905 
L 116.416105 238.542391 
L 116.972195 236.870916 
L 117.528286 236.019044 
L 118.084376 235.36702 
L 118.640466 234.216111 
L 119.196556 231.94175 
L 119.752646 228.13791 
L 120.308736 222.711431 
L 121.142872 212.192412 
L 122.533097 194.400768 
L 123.089187 189.832188 
L 123.367232 188.493894 
L 123.645277 187.873734 
L 123.923322 188.009802 
L 124.201367 188.915575 
L 124.479413 190.578995 
L 125.035503 196.010085 
L 125.869638 208.198704 
L 127.537908 235.047973 
L 128.093998 240.969031 
L 128.650089 244.139843 
L 128.928134 244.599619 
L 129.206179 244.307674 
L 129.484224 243.294303 
L 130.040314 239.342997 
L 130.874449 230.032282 
L 131.98663 216.550961 
L 132.54272 211.695959 
L 132.820765 210.11724 
L 133.09881 209.198093 
L 133.376855 208.978337 
L 133.6549 209.472054 
L 133.932945 210.666073 
L 134.489035 214.969709 
L 135.32317 224.88493 
L 136.435351 239.113311 
L 136.991441 244.096378 
L 137.269486 245.628086 
L 137.547531 246.405693 
L 137.825576 246.375298 
L 138.103621 245.511724 
L 138.381666 243.818162 
L 138.937756 238.097509 
L 139.771892 224.913198 
L 141.718207 190.525297 
L 142.274297 184.347907 
L 142.830387 180.94204 
L 143.108433 180.308607 
L 143.386478 180.355517 
L 143.664523 181.031503 
L 144.220613 183.968374 
L 145.054748 190.853158 
L 146.166928 200.051411 
L 146.723018 202.933065 
L 147.001064 203.728605 
L 147.279109 204.063356 
L 147.557154 203.940661 
L 147.835199 203.38433 
L 148.391289 201.163161 
L 149.503469 194.46632 
L 150.059559 191.537858 
L 150.61565 189.903009 
L 150.893695 189.754276 
L 151.17174 190.117699 
L 151.449785 191.018609 
L 152.005875 194.431061 
L 152.561965 199.772486 
L 153.674145 213.838304 
L 154.508281 223.960009 
L 155.064371 228.782792 
L 155.342416 230.319516 
L 155.620461 231.174528 
L 155.898506 231.298186 
L 156.176551 230.661257 
L 156.454596 229.256448 
L 157.010686 224.221001 
L 157.566776 216.565449 
L 158.678957 196.403194 
L 159.791137 176.582781 
L 160.347227 169.405496 
L 160.903317 165.103988 
L 161.181362 164.163058 
L 161.459407 164.048469 
L 161.737453 164.73793 
L 162.015498 166.184228 
L 162.571588 171.024033 
L 163.405723 181.369293 
L 164.239858 191.832284 
L 164.795948 196.83835 
L 165.073993 198.371071 
L 165.352038 199.139255 
L 165.630084 199.091434 
L 165.908129 198.208255 
L 166.186174 196.502687 
L 166.742264 190.849511 
L 167.576399 178.366059 
L 168.688579 160.74017 
L 169.24467 154.48355 
L 169.522715 152.464407 
L 169.80076 151.293589 
L 170.078805 151.011321 
L 170.35685 151.62064 
L 170.634895 153.089836 
L 171.190985 158.308667 
L 172.02512 169.972161 
L 173.137301 185.766445 
L 173.693391 190.836542 
L 173.971436 192.238362 
L 174.249481 192.794186 
L 174.527526 192.477166 
L 174.805571 191.292975 
L 175.361661 186.504639 
L 175.917751 179.075379 
L 178.142112 145.147203 
L 178.698202 141.198277 
L 178.976247 140.428371 
L 179.254292 140.49757 
L 179.532337 141.400506 
L 179.810382 143.104655 
L 180.366473 148.668267 
L 181.200608 160.8887 
L 182.590833 182.460374 
L 183.146923 188.167856 
L 183.424968 189.926514 
L 183.703013 190.858224 
L 183.981058 190.92327 
L 184.259104 190.110708 
L 184.537149 188.439994 
L 185.093239 182.747608 
L 185.927374 169.849669 
L 187.317599 146.588131 
L 187.87369 140.279435 
L 188.42978 137.019869 
L 188.707825 136.644085 
L 188.98587 137.096059 
L 189.263915 138.328376 
L 189.820005 142.802123 
L 190.65414 152.745865 
L 191.766321 166.370347 
L 192.322411 171.41005 
L 192.878501 174.836079 
L 193.434591 176.922294 
L 194.546771 179.97416 
L 195.102861 182.709614 
L 195.658952 187.209298 
L 196.215042 193.748186 
L 197.049177 206.842071 
L 198.717447 234.736778 
L 199.273538 240.91437 
L 199.829628 244.36046 
L 200.107673 244.995514 
L 200.385718 244.923833 
L 200.663763 244.189286 
L 201.219853 241.015535 
L 202.053988 233.428119 
L 203.444214 220.242238 
L 204.000304 216.758357 
L 204.556394 214.827764 
L 204.834439 214.45816 
L 205.112484 214.465962 
L 205.390529 214.823711 
L 205.946619 216.440424 
L 206.50271 218.959972 
L 209.561205 234.797923 
L 210.395341 237.388139 
L 211.229476 239.104041 
L 211.785566 239.841982 
L 212.619701 240.496337 
L 214.566017 241.490053 
L 215.122107 242.139696 
L 215.678197 243.110464 
L 216.512332 245.144653 
L 217.902558 248.814096 
L 218.458648 249.615563 
L 218.736693 249.73152 
L 219.014738 249.621287 
L 219.292783 249.26683 
L 219.848873 247.802599 
L 220.404963 245.402808 
L 221.517144 238.88469 
L 222.351279 234.129789 
L 222.907369 231.817536 
L 223.463459 230.524783 
L 223.741504 230.295757 
L 224.019549 230.340184 
L 224.297594 230.641298 
L 224.853684 231.902135 
L 225.68782 234.867274 
L 227.078045 240.123339 
L 227.91218 242.487821 
L 229.024361 244.813347 
L 231.248721 248.812272 
L 231.804811 249.29454 
L 232.082856 249.305837 
L 232.360901 249.115057 
L 232.638947 248.687044 
L 233.195037 246.994952 
L 233.751127 244.027128 
L 234.307217 239.678862 
L 235.141352 230.645502 
L 236.253533 215.027156 
L 238.199848 186.525206 
L 239.033983 177.371736 
L 239.590073 172.876105 
L 240.146164 169.632952 
L 240.702254 167.42617 
L 241.536389 165.266601 
L 242.370524 163.197103 
L 242.926614 161.230949 
L 243.482704 158.540176 
L 244.31684 153.198448 
L 245.98511 141.771629 
L 246.5412 139.403247 
L 246.819245 138.695042 
L 247.09729 138.325843 
L 247.375336 138.289673 
L 247.653381 138.563127 
L 248.209471 139.855019 
L 249.321651 143.262406 
L 249.599696 143.719952 
L 249.877741 143.814988 
L 250.155786 143.454502 
L 250.433831 142.557747 
L 250.711876 141.062006 
L 251.267967 136.12433 
L 251.824057 128.58666 
L 252.658192 113.257826 
L 254.604507 74.540808 
L 255.160598 67.282672 
L 255.716688 62.914295 
L 255.994733 61.828989 
L 256.272778 61.425545 
L 256.550823 61.631218 
L 256.828868 62.349858 
L 257.384958 64.841746 
L 258.219093 69.12907 
L 258.775184 70.745378 
L 259.053229 70.834739 
L 259.331274 70.339199 
L 259.609319 69.214278 
L 260.165409 65.042252 
L 260.721499 58.551895 
L 261.833679 41.615365 
L 262.667815 29.761801 
L 263.223905 24.366577 
L 263.50195 22.744393 
L 263.779995 21.927273 
L 264.05804 21.945206 
L 264.336085 22.797483 
L 264.61413 24.451582 
L 265.17022 29.886826 
L 266.004356 41.648496 
L 267.116536 57.780266 
L 267.672626 63.376502 
L 267.950671 65.174775 
L 268.228716 66.23384 
L 268.506761 66.540323 
L 268.784806 66.114894 
L 269.062851 65.011148 
L 269.618942 61.139426 
L 271.287212 46.576649 
L 271.565257 45.399651 
L 271.843302 44.942813 
L 272.121347 45.289418 
L 272.399392 46.487693 
L 272.677437 48.551213 
L 273.233527 55.139341 
L 274.067663 69.764428 
L 275.457888 96.226464 
L 276.013978 103.478015 
L 276.570068 107.295026 
L 276.848113 107.792795 
L 277.126159 107.362401 
L 277.404204 106.060986 
L 277.960294 101.241141 
L 278.794429 90.640461 
L 279.628564 80.097429 
L 280.184654 75.203623 
L 280.462699 73.728754 
L 280.740744 72.979414 
L 281.01879 72.969283 
L 281.296835 73.681439 
L 281.57488 75.067757 
L 282.13097 79.545354 
L 283.24315 92.217559 
L 284.077285 101.340229 
L 284.633376 105.980136 
L 285.189466 109.185902 
L 285.745556 111.08073 
L 286.301646 112.032297 
L 287.691871 113.464209 
L 288.247962 114.724691 
L 288.804052 116.681626 
L 289.638187 120.824979 
L 291.306457 131.186856 
L 294.086908 148.940506 
L 295.199088 158.436123 
L 296.311269 170.113599 
L 299.091719 200.516455 
L 300.2039 209.97489 
L 301.31608 217.41185 
L 302.150215 221.680684 
L 302.98435 224.843644 
L 303.818486 227.089129 
L 305.208711 230.365513 
L 305.764801 232.229287 
L 306.320891 234.736272 
L 307.155027 239.824353 
L 309.379387 255.236875 
L 309.935477 257.035299 
L 310.213522 257.313819 
L 310.491567 257.134337 
L 310.769613 256.479931 
L 311.325703 253.75086 
L 311.881793 249.280001 
L 312.715928 240.175264 
L 314.384199 220.939804 
L 314.940289 216.633534 
L 315.496379 214.253298 
L 315.774424 213.877209 
L 316.052469 214.064443 
L 316.330514 214.814188 
L 316.886604 217.918131 
L 317.442694 222.883416 
L 318.554875 236.203441 
L 319.667055 249.360042 
L 320.223145 254.160231 
L 320.779235 257.123293 
L 321.05728 257.842643 
L 321.335325 258.047201 
L 321.61337 257.752217 
L 321.891416 256.988238 
L 322.447506 254.247161 
L 323.281641 248.116175 
L 324.393821 239.529876 
L 324.949911 236.422741 
L 325.506002 234.693212 
L 325.784047 234.417427 
L 326.062092 234.546252 
L 326.340137 235.072745 
L 326.896227 237.231402 
L 327.452317 240.614422 
L 328.842542 251.537442 
L 329.676678 257.323748 
L 330.232768 259.992991 
L 330.788858 261.422167 
L 331.066903 261.63863 
L 331.344948 261.522521 
L 331.622993 261.083363 
L 332.179083 259.305962 
L 332.735173 256.494673 
L 333.569309 250.858214 
L 335.237579 237.2736 
L 336.627805 226.534065 
L 337.46194 221.542538 
L 338.01803 219.191278 
L 338.57412 217.78804 
L 338.852165 217.463421 
L 339.13021 217.38875 
L 339.408255 217.554201 
L 339.6863 217.940522 
L 340.24239 219.261085 
L 341.910661 224.373787 
L 342.188706 224.845417 
L 342.466751 225.078496 
L 342.744796 225.038375 
L 343.022841 224.70028 
L 343.300886 224.05013 
L 343.856976 221.81888 
L 344.413067 218.483377 
L 346.637427 203.105709 
L 346.915472 202.24411 
L 347.193517 201.886664 
L 347.471562 202.096492 
L 347.749607 202.925669 
L 348.027653 204.409454 
L 348.583743 209.392926 
L 349.139833 216.953696 
L 349.973968 232.093877 
L 351.642239 264.361419 
L 352.198329 271.409627 
L 352.476374 273.638598 
L 352.754419 274.887936 
L 353.032464 275.105818 
L 353.310509 274.274007 
L 353.588554 272.407852 
L 354.144644 265.808123 
L 354.978779 250.46556 
L 356.369005 222.073388 
L 356.925095 214.167482 
L 357.481185 209.963947 
L 357.75923 209.416127 
L 358.037275 209.915011 
L 358.31532 211.416021 
L 358.87141 217.062915 
L 359.705546 229.934917 
L 360.817726 247.347332 
L 361.373816 252.803548 
L 361.651861 254.235814 
L 361.929906 254.707393 
L 362.207951 254.194932 
L 362.485996 252.715656 
L 363.042087 247.118153 
L 363.876222 234.011856 
L 364.988402 215.262515 
L 365.544492 208.723019 
L 365.822537 206.682903 
L 366.100582 205.582399 
L 366.378628 205.465479 
L 366.656673 206.33569 
L 366.934718 208.15686 
L 367.490808 214.31814 
L 368.324943 227.817344 
L 369.437123 246.447081 
L 369.993213 253.013426 
L 370.549304 256.568989 
L 370.827349 257.124762 
L 371.105394 256.886921 
L 371.383439 255.914279 
L 371.939529 252.147116 
L 373.885845 234.489109 
L 374.16389 233.251321 
L 374.441935 232.625842 
L 374.71998 232.646206 
L 374.998025 233.314796 
L 375.27607 234.605117 
L 375.83216 238.807486 
L 376.94434 250.815053 
L 377.778476 259.008344 
L 378.334566 262.34719 
L 378.612611 263.147188 
L 378.890656 263.317653 
L 379.168701 262.852204 
L 379.446746 261.769481 
L 380.002836 257.945682 
L 380.836971 249.301278 
L 381.949152 237.014736 
L 382.505242 232.573359 
L 383.061332 230.15599 
L 383.339377 229.813489 
L 383.617422 230.062069 
L 383.895467 230.884965 
L 384.451557 234.083639 
L 385.285693 241.683821 
L 386.675918 255.477958 
L 387.232008 259.202669 
L 387.510053 260.401653 
L 387.788098 261.107224 
L 388.066143 261.299624 
L 388.344188 260.974853 
L 388.622233 260.143447 
L 389.178324 257.072331 
L 389.734414 252.421381 
L 390.846594 240.334281 
L 392.236819 225.542426 
L 392.79291 221.193198 
L 393.349 218.156428 
L 393.90509 216.5078 
L 394.183135 216.186727 
L 394.46118 216.174873 
L 394.739225 216.44316 
L 395.295315 217.673349 
L 396.12945 220.618934 
L 397.519676 225.679964 
L 398.075766 227.048501 
L 398.631856 227.885378 
L 399.187946 228.205742 
L 399.744036 228.079653 
L 400.300127 227.608885 
L 401.134262 226.511218 
L 402.246442 225.045518 
L 402.802532 224.702712 
L 403.080577 224.716998 
L 403.358622 224.888477 
L 403.636668 225.239489 
L 404.192758 226.547439 
L 404.748848 228.696724 
L 405.582983 233.193317 
L 406.695163 239.419592 
L 407.251253 241.262647 
L 407.529299 241.582352 
L 407.807344 241.413305 
L 408.085389 240.710875 
L 408.363434 239.450342 
L 408.919524 235.279279 
L 409.753659 225.650075 
L 411.143885 207.864358 
L 411.699975 203.381898 
L 411.97802 202.205711 
L 412.256065 201.85171 
L 412.53411 202.370452 
L 412.812155 203.782607 
L 413.368245 209.219066 
L 413.924335 217.736875 
L 414.75847 234.436424 
L 416.148696 263.436751 
L 416.982831 275.917467 
L 417.538921 280.926167 
L 417.816966 282.397794 
L 418.095011 283.221095 
L 418.373056 283.454934 
L 418.651102 283.178288 
L 418.929147 282.488017 
L 419.485237 280.315378 
L 420.319372 276.911335 
L 420.597417 276.213616 
L 420.875462 275.904651 
L 421.153507 276.062604 
L 421.431552 276.742845 
L 421.709597 277.97582 
L 422.265688 282.088018 
L 422.821778 288.107252 
L 424.768093 312.250196 
L 425.324183 315.791219 
L 425.602228 316.472727 
L 425.880273 316.360164 
L 426.158319 315.436256 
L 426.436364 313.71235 
L 426.436364 313.71235 
" clip-path="url(#p44e137dfa3)" style="fill: none; stroke-dasharray: 11.1,4.8; stroke-dashoffset: 0; stroke: #000000; stroke-width: 3"/>
   </g>
   <g id="line2d_2">
    <path d="M 27.163636 98.754927 
L 29.944087 116.46572 
L 30.778222 124.094575 
L 31.612358 133.604681 
L 33.002583 152.576565 
L 34.392808 171.370739 
L 35.226944 180.389965 
L 36.061079 186.931183 
L 36.617169 189.919625 
L 37.173259 191.970278 
L 37.729349 193.297731 
L 38.285439 194.141397 
L 39.39762 195.227209 
L 40.5098 196.415859 
L 41.62198 198.012409 
L 43.568296 200.921013 
L 44.680476 202.109663 
L 45.514611 202.692032 
L 46.348747 203.024351 
L 47.182882 203.119792 
L 48.017017 202.958495 
L 48.851152 202.477443 
L 49.407242 201.930332 
L 50.241378 200.691227 
L 51.075513 198.881404 
L 51.909648 196.49367 
L 53.021828 192.576558 
L 56.914459 177.979434 
L 58.58273 172.952295 
L 59.69491 170.227074 
L 60.529045 168.702053 
L 61.085135 168.001548 
L 61.641226 167.577335 
L 62.197316 167.424853 
L 62.753406 167.514417 
L 63.587541 167.98473 
L 65.533857 169.38199 
L 66.367992 169.615728 
L 67.202127 169.516944 
L 68.036262 169.157675 
L 69.982578 168.171761 
L 70.816713 168.055955 
L 71.650848 168.252206 
L 72.484984 168.761425 
L 73.319119 169.531635 
L 74.709344 171.199615 
L 76.09957 173.18117 
L 77.21175 175.073768 
L 78.32393 177.451776 
L 79.43611 180.474767 
L 80.826336 185.070398 
L 83.328741 193.59459 
L 84.718967 197.366008 
L 86.109192 200.44989 
L 88.055508 204.229616 
L 89.445733 206.525051 
L 90.835958 208.327984 
L 92.226184 210.060198 
L 93.060319 211.4683 
L 93.894454 213.403249 
L 94.72859 215.940426 
L 96.118815 221.171516 
L 97.50904 226.42601 
L 98.343175 228.902701 
L 98.899266 230.101887 
L 99.455356 230.886586 
L 100.011446 231.241448 
L 100.567536 231.171388 
L 101.123626 230.694287 
L 101.679716 229.837653 
L 102.513852 227.908124 
L 103.347987 225.307472 
L 104.460167 221.02795 
L 107.796708 207.338524 
L 108.630843 204.924954 
L 109.464978 203.090207 
L 110.855204 200.769443 
L 111.689339 199.291535 
L 112.523474 197.355775 
L 113.35761 194.759328 
L 114.191745 191.444342 
L 115.303925 185.994104 
L 116.416105 179.506482 
L 117.806331 169.944603 
L 119.474601 156.562066 
L 120.864827 145.611842 
L 121.698962 140.520569 
L 122.255052 138.204162 
L 122.811142 136.940842 
L 123.089187 136.732737 
L 123.367232 136.811157 
L 123.645277 137.171439 
L 124.201367 138.690989 
L 124.757458 141.140527 
L 125.591593 146.043857 
L 127.537908 158.161859 
L 128.372044 161.641383 
L 128.928134 163.090113 
L 129.484224 163.887882 
L 130.040314 164.168529 
L 130.596404 164.129826 
L 131.430539 163.973798 
L 131.98663 164.12547 
L 132.54272 164.6818 
L 133.09881 165.732963 
L 133.6549 167.282908 
L 134.489035 170.341056 
L 136.157306 176.7612 
L 136.713396 178.177813 
L 137.269486 178.922795 
L 137.547531 179.009219 
L 137.825576 178.894528 
L 138.103621 178.578723 
L 138.659711 177.35978 
L 139.215801 175.431214 
L 140.049937 171.519067 
L 142.830387 157.131162 
L 143.664523 154.282234 
L 144.498658 152.400983 
L 145.054748 151.623173 
L 145.610838 151.162587 
L 146.166928 150.96816 
L 146.723018 151.005242 
L 147.279109 151.260054 
L 147.835199 151.741005 
L 148.391289 152.470689 
L 149.225424 154.0873 
L 150.059559 156.351529 
L 151.17174 160.155977 
L 152.84001 165.850794 
L 153.3961 167.199322 
L 153.95219 168.073382 
L 154.508281 168.407221 
L 154.786326 168.365174 
L 155.342416 167.880576 
L 155.898506 166.924449 
L 156.732641 164.873897 
L 158.122867 161.220817 
L 158.678957 160.207952 
L 159.235047 159.687082 
L 159.513092 159.644327 
L 159.791137 159.757194 
L 160.069182 160.028723 
L 160.625272 161.034799 
L 161.181362 162.595079 
L 162.293543 166.778249 
L 163.405723 170.982695 
L 163.961813 172.5603 
L 164.517903 173.580763 
L 164.795948 173.857156 
L 165.073993 173.974987 
L 165.352038 173.93831 
L 165.908129 173.440845 
L 166.464219 172.4834 
L 167.576399 169.859395 
L 168.688579 167.42617 
L 169.24467 166.600539 
L 169.80076 166.118777 
L 170.35685 165.988079 
L 170.91294 166.183924 
L 171.46903 166.664673 
L 172.303165 167.813504 
L 173.415346 169.924947 
L 174.805571 173.162831 
L 177.864067 180.616813 
L 178.976247 182.632005 
L 180.088427 184.129468 
L 181.756698 186.22541 
L 182.590833 187.811626 
L 183.424968 190.1485 
L 184.259104 193.420325 
L 185.093239 197.645338 
L 186.483464 206.268111 
L 188.42978 218.715393 
L 189.54196 224.407981 
L 190.376095 227.649361 
L 191.21023 230.028787 
L 192.044366 231.672399 
L 192.878501 232.736125 
L 193.712636 233.343317 
L 194.268726 233.523357 
L 194.824816 233.518443 
L 195.380907 233.308059 
L 195.936997 232.86267 
L 196.493087 232.15021 
L 197.049177 231.1454 
L 197.883312 229.077472 
L 198.995493 225.439843 
L 200.941808 218.720459 
L 201.497898 217.355923 
L 202.053988 216.462309 
L 202.610079 216.110233 
L 202.888124 216.145795 
L 203.166169 216.319249 
L 203.722259 217.052479 
L 204.278349 218.219447 
L 205.390529 221.275974 
L 206.50271 224.140353 
L 207.0588 225.091769 
L 207.61489 225.565222 
L 207.892935 225.60195 
L 208.17098 225.501291 
L 208.72707 224.893188 
L 209.28316 223.785592 
L 210.117296 221.389043 
L 212.897746 212.381064 
L 213.453836 211.270428 
L 214.009927 210.531221 
L 214.566017 210.150978 
L 215.122107 210.08492 
L 215.678197 210.262326 
L 216.790377 211.003154 
L 217.902558 211.720984 
L 218.736693 212.00224 
L 219.570828 212.050467 
L 221.517144 212.005786 
L 222.351279 212.250061 
L 223.463459 212.850667 
L 224.853684 213.561 
L 225.68782 213.693015 
L 226.521955 213.560898 
L 228.46827 213.037495 
L 229.302406 213.11014 
L 230.692631 213.378123 
L 231.248721 213.185317 
L 231.804811 212.560293 
L 232.360901 211.318959 
L 232.916992 209.305692 
L 233.473082 206.415933 
L 234.307217 200.39447 
L 235.419397 189.726414 
L 237.643758 166.637824 
L 238.477893 160.436422 
L 239.033983 157.667635 
L 239.590073 156.088004 
L 239.868119 155.740183 
L 240.146164 155.671896 
L 240.424209 155.864195 
L 240.702254 156.293373 
L 241.258344 157.741394 
L 242.092479 160.840676 
L 243.204659 165.004393 
L 243.76075 166.409455 
L 244.038795 166.834885 
L 244.31684 167.046738 
L 244.594885 167.030426 
L 244.87293 166.777438 
L 245.150975 166.284025 
L 245.707065 164.593351 
L 246.263155 162.038849 
L 247.09729 156.918701 
L 248.765561 144.424105 
L 250.433831 132.541665 
L 251.546012 125.997711 
L 252.658192 120.623764 
L 253.770372 116.339783 
L 254.604507 113.848402 
L 255.438643 112.048508 
L 255.994733 111.2862 
L 256.550823 110.911733 
L 257.106913 110.948207 
L 257.663003 111.39623 
L 258.219093 112.228852 
L 259.053229 114.053569 
L 261.277589 119.582024 
L 261.833679 120.495193 
L 262.38977 121.107146 
L 262.94586 121.45365 
L 264.05804 121.744531 
L 264.61413 121.960032 
L 265.17022 122.40694 
L 265.72631 123.189208 
L 266.282401 124.360532 
L 267.116536 126.816047 
L 270.175032 137.11531 
L 270.731122 138.116725 
L 271.287212 138.741445 
L 271.843302 139.074372 
L 273.233527 139.625333 
L 273.789618 140.213174 
L 274.345708 141.269604 
L 274.901798 142.917726 
L 275.457888 145.224204 
L 276.292023 149.901293 
L 277.404204 157.900765 
L 279.350519 172.521901 
L 280.184654 177.221787 
L 280.740744 179.497059 
L 281.296835 181.078717 
L 281.852925 182.058653 
L 282.409015 182.609006 
L 283.521195 183.382054 
L 284.077285 184.129975 
L 284.633376 185.429363 
L 285.189466 187.434525 
L 285.745556 190.209796 
L 286.579691 195.711402 
L 289.638187 218.510226 
L 290.194277 220.845681 
L 290.750367 222.224198 
L 291.028412 222.561887 
L 291.306457 222.682657 
L 291.584502 222.606568 
L 292.140593 221.974351 
L 292.974728 220.338489 
L 293.808863 218.787125 
L 294.364953 218.274361 
L 294.642998 218.258657 
L 294.921043 218.429477 
L 295.199088 218.799587 
L 295.755179 220.155105 
L 296.311269 222.306974 
L 297.145404 226.792473 
L 298.535629 236.129176 
L 299.925855 245.187611 
L 300.75999 249.549048 
L 301.594125 252.820113 
L 302.42826 254.991283 
L 302.98435 255.898322 
L 303.540441 256.461745 
L 304.374576 256.877194 
L 306.042846 257.388389 
L 306.876982 257.943453 
L 307.989162 259.027594 
L 309.101342 260.06599 
L 309.657432 260.370599 
L 310.213522 260.445523 
L 310.769613 260.257175 
L 311.325703 259.807075 
L 312.159838 258.730482 
L 314.106153 255.843661 
L 314.662244 255.375932 
L 315.218334 255.215598 
L 315.774424 255.397057 
L 316.330514 255.912557 
L 317.164649 257.193202 
L 319.110965 260.573334 
L 319.667055 261.026626 
L 319.9451 261.0939 
L 320.223145 261.043546 
L 320.779235 260.5745 
L 321.335325 259.623996 
L 322.169461 257.442745 
L 324.671866 249.750162 
L 325.227956 248.676355 
L 325.784047 247.975547 
L 326.340137 247.609438 
L 326.896227 247.490644 
L 328.286452 247.440138 
L 328.842542 247.178538 
L 329.398633 246.635074 
L 329.954723 245.77378 
L 330.788858 243.930522 
L 333.569309 236.879326 
L 334.125399 236.145032 
L 334.681489 235.801872 
L 335.237579 235.84564 
L 335.793669 236.232468 
L 336.627805 237.281503 
L 338.57412 240.121718 
L 339.13021 240.6358 
L 339.6863 240.933773 
L 340.24239 241.024907 
L 341.076526 240.866397 
L 342.744796 240.355608 
L 343.300886 240.393551 
L 343.856976 240.621818 
L 344.413067 241.059963 
L 345.247202 242.095978 
L 346.359382 244.031535 
L 348.305698 248.086843 
L 353.588554 259.191727 
L 354.144644 259.823286 
L 354.700734 260.140914 
L 355.256825 260.106264 
L 355.812915 259.712243 
L 356.369005 258.987928 
L 357.20314 257.424204 
L 361.651861 247.558983 
L 362.485996 244.650277 
L 363.320132 240.680886 
L 364.432312 233.877155 
L 366.656673 219.573648 
L 367.490808 215.79838 
L 368.046898 214.051069 
L 368.602988 212.927161 
L 369.159078 212.383596 
L 369.437123 212.307508 
L 369.993213 212.494133 
L 370.549304 213.057556 
L 371.383439 214.415405 
L 372.773664 217.367676 
L 374.16389 220.210931 
L 374.998025 221.474048 
L 375.554115 222.044867 
L 376.110205 222.377693 
L 376.666295 222.475717 
L 377.222385 222.359101 
L 378.056521 221.864219 
L 379.446746 220.616198 
L 380.558926 219.704549 
L 381.393062 219.241126 
L 382.783287 218.80445 
L 383.895467 218.378109 
L 384.729602 217.769701 
L 385.563738 216.854405 
L 387.788098 214.072346 
L 388.344188 213.710442 
L 388.900279 213.604464 
L 389.456369 213.764241 
L 390.012459 214.162011 
L 390.846594 215.061299 
L 392.236819 216.61783 
L 392.79291 217.016309 
L 393.349 217.21023 
L 393.90509 217.195134 
L 394.739225 216.846401 
L 396.963586 215.555219 
L 397.519676 215.505067 
L 398.075766 215.641946 
L 398.631856 215.970618 
L 399.465991 216.796148 
L 400.300127 217.960076 
L 401.412307 219.941327 
L 402.524487 222.379922 
L 403.914713 226.057724 
L 406.417118 233.083287 
L 407.251253 234.852431 
L 408.085389 236.123755 
L 408.919524 236.942091 
L 410.031704 237.60521 
L 411.699975 238.564833 
L 413.924335 240.057838 
L 414.480425 240.133471 
L 415.036516 239.949277 
L 415.592606 239.458346 
L 416.148696 238.64462 
L 416.982831 236.871322 
L 418.373056 233.057147 
L 419.485237 230.200772 
L 420.319372 228.715568 
L 420.875462 228.159947 
L 421.431552 227.974841 
L 421.987642 228.14252 
L 422.543733 228.618 
L 423.377868 229.768048 
L 424.768093 232.257302 
L 426.436364 235.192349 
L 426.436364 235.192349 
" clip-path="url(#p44e137dfa3)" style="fill: none; stroke: #ff00ff; stroke-width: 3; stroke-linecap: square"/>
   </g>
   <g id="patch_3">
    <path d="M 7.2 331.2 
L 7.2 7.2 
" style="fill: none; stroke: #000000; stroke-width: 0.8; stroke-linejoin: miter; stroke-linecap: square"/>
   </g>
   <g id="patch_4">
    <path d="M 446.4 331.2 
L 446.4 7.2 
" style="fill: none; stroke: #000000; stroke-width: 0.8; stroke-linejoin: miter; stroke-linecap: square"/>
   </g>
   <g id="patch_5">
    <path d="M 7.2 331.2 
L 446.4 331.2 
" style="fill: none; stroke: #000000; stroke-width: 0.8; stroke-linejoin: miter; stroke-linecap: square"/>
   </g>
   <g id="patch_6">
    <path d="M 7.2 7.2 
L 446.4 7.2 
" style="fill: none; stroke: #000000; stroke-width: 0.8; stroke-linejoin: miter; stroke-linecap: square"/>
   </g>
  </g>
 </g>
 <defs>
  <clipPath id="p44e137dfa3">
   <rect x="7.2" y="7.2" width="439.2" height="324"/>
  </clipPath>
 </defs>
</svg>
