<?xml version="1.0" encoding="utf-8" standalone="no"?>
<!DOCTYPE svg PUBLIC "-//W3C//DTD SVG 1.1//EN"
  "http://www.w3.org/Graphics/SVG/1.1/DTD/svg11.dtd">
<svg xmlns:xlink="http://www.w3.org/1999/xlink" width="453.6pt" height="338.4pt" viewBox="0 0 453.6 338.4" xmlns="http://www.w3.org/2000/svg" version="1.1">
 <metadata>
  <rdf:RDF xmlns:dc="http://purl.org/dc/elements/1.1/" xmlns:cc="http://creativecommons.org/ns#" xmlns:rdf="http://www.w3.org/1999/02/22-rdf-syntax-ns#">
   <cc:Work>
    <dc:type rdf:resource="http://purl.org/dc/dcmitype/StillImage"/>
    <dc:date>2025-05-15T01:37:32.025437</dc:date>
    <dc:format>image/svg+xml</dc:format>
    <dc:creator>
     <cc:Agent>
      <dc:title>Matplotlib v3.10.1, https://matplotlib.org/</dc:title>
     </cc:Agent>
    </dc:creator>
   </cc:Work>
  </rdf:RDF>
 </metadata>
 <defs>
  <style type="text/css">*{stroke-linejoin: round; stroke-linecap: butt}</style>
 </defs>
 <g id="figure_1">
  <g id="patch_1">
   <path d="M 0 338.4 
L 453.6 338.4 
L 453.6 0 
L 0 0 
z
" style="fill: #ffffff"/>
  </g>
  <g id="axes_1">
   <g id="patch_2">
    <path d="M 7.2 331.2 
L 446.4 331.2 
L 446.4 7.2 
L 7.2 7.2 
z
" style="fill: #ffffff"/>
   </g>
   <g id="matplotlib.axis_1"/>
   <g id="matplotlib.axis_2"/>
   <g id="line2d_1">
    <path d="M 27.163636 301.741107 
L 29.825455 301.978209 
L 33.818182 302.078825 
L 38.875636 302.216717 
L 42.336 302.799116 
L 48.192 303.782599 
L 51.386182 304.095505 
L 52.184727 304.175771 
L 57.242182 305.643391 
L 60.170182 306.257493 
L 62.565818 306.545852 
L 64.695273 306.600842 
L 74.011636 306.4096 
L 78.802909 306.594183 
L 83.594182 306.782773 
L 88.119273 306.65389 
L 98.766545 306.048207 
L 108.881455 304.823484 
L 116.334545 304.048896 
L 121.392 303.582859 
L 124.586182 303.485369 
L 129.377455 303.430471 
L 136.564364 303.239179 
L 139.758545 303.382256 
L 140.557091 303.344042 
L 144.283636 302.795512 
L 147.744 302.505421 
L 150.938182 302.442554 
L 154.132364 302.603202 
L 156.528 302.717402 
L 164.779636 302.785742 
L 186.872727 302.664078 
L 197.786182 302.677123 
L 207.901091 302.778207 
L 214.821818 302.702335 
L 229.728 302.296581 
L 233.188364 302.343571 
L 238.778182 302.729796 
L 248.360727 303.365418 
L 255.015273 303.920117 
L 261.137455 304.13057 
L 272.050909 304.225059 
L 286.690909 304.204724 
L 289.618909 304.03661 
L 293.079273 303.612531 
L 296.539636 303.416521 
L 300 303.434663 
L 303.460364 303.659036 
L 307.186909 304.124676 
L 311.445818 304.687176 
L 319.431273 303.146627 
L 324.754909 302.258775 
L 329.013818 301.785927 
L 331.941818 301.653278 
L 335.668364 301.530889 
L 342.589091 301.375927 
L 347.912727 301.46642 
L 354.301091 301.609954 
L 367.344 301.227407 
L 373.2 301.321581 
L 381.451636 301.634 
L 386.242909 302.037551 
L 390.235636 302.593702 
L 391.832727 302.761306 
L 395.026909 302.870947 
L 398.753455 302.763447 
L 403.012364 302.410398 
L 411.530182 301.605316 
L 414.724364 301.445899 
L 418.184727 301.052954 
L 421.911273 300.406618 
L 426.436364 299.383687 
L 426.436364 299.383687 
" clip-path="url(#p239b6d9ec0)" style="fill: none; stroke: #ffa500; stroke-width: 3; stroke-linecap: square"/>
   </g>
   <g id="line2d_2">
    <path d="M 27.163636 192.441 
L 28.228364 192.432669 
L 29.293091 192.66213 
L 30.357818 193.119673 
L 31.422545 193.798188 
L 32.753455 194.9511 
L 34.084364 196.440004 
L 34.616727 197.945191 
L 35.681455 200.875966 
L 36.746182 203.151084 
L 37.810909 204.915472 
L 39.141818 206.677701 
L 40.738909 208.51651 
L 42.069818 209.416515 
L 44.465455 210.741373 
L 46.594909 211.613095 
L 47.925818 212.192558 
L 50.853818 212.33975 
L 55.645091 212.566147 
L 58.040727 212.931159 
L 59.904 213.410498 
L 69.220364 217.67361 
L 71.882182 218.614521 
L 74.011636 219.114866 
L 76.673455 219.413191 
L 79.601455 219.563385 
L 84.392727 219.61493 
L 89.184 219.448049 
L 91.047273 219.429878 
L 101.960727 221.887985 
L 104.888727 222.247441 
L 107.284364 222.324935 
L 109.68 222.30435 
L 113.672727 223.471702 
L 116.334545 223.990016 
L 119.262545 224.323234 
L 122.190545 224.417784 
L 126.449455 224.446672 
L 129.111273 224.766302 
L 134.434909 225.187319 
L 141.089455 225.487049 
L 148.010182 225.588322 
L 159.988364 225.741659 
L 173.031273 225.804282 
L 186.340364 225.674611 
L 193.793455 225.433432 
L 204.440727 223.953727 
L 211.627636 223.117346 
L 237.181091 221.346392 
L 239.576727 221.27119 
L 266.461091 221.094152 
L 270.72 220.781668 
L 274.712727 220.25936 
L 277.374545 219.736867 
L 280.568727 218.919043 
L 292.280727 218.234761 
L 297.072 218.206206 
L 301.330909 218.392057 
L 303.726545 218.432761 
L 309.050182 218.293935 
L 326.352 217.695081 
L 331.143273 217.629684 
L 339.394909 217.187503 
L 341.258182 217.42302 
L 343.121455 217.728895 
L 348.711273 217.64279 
L 349.509818 217.473161 
L 350.840727 217.727938 
L 352.437818 217.784952 
L 356.164364 217.784241 
L 357.495273 217.905537 
L 358.826182 217.783811 
L 360.157091 217.406201 
L 361.221818 216.825405 
L 362.286545 215.980781 
L 362.818909 215.55986 
L 363.883636 215.262264 
L 365.480727 215.10338 
L 367.610182 214.905213 
L 368.674909 214.587401 
L 371.336727 213.310059 
L 372.135273 212.625338 
L 372.933818 211.680511 
L 373.732364 210.416328 
L 374.530909 208.781768 
L 375.329455 206.728667 
L 375.861818 205.239359 
L 376.660364 203.961841 
L 377.991273 202.803838 
L 379.322182 201.900331 
L 380.653091 201.23385 
L 381.984 200.786271 
L 383.581091 200.50839 
L 385.178182 200.476455 
L 387.84 200.541036 
L 391.566545 200.556336 
L 397.688727 200.800105 
L 399.818182 201.383132 
L 402.48 201.864999 
L 408.602182 202.650765 
L 411.530182 203.121431 
L 413.127273 203.710155 
L 415.256727 204.777471 
L 418.983273 206.985454 
L 422.177455 208.78987 
L 424.306909 209.754228 
L 426.170182 210.341529 
L 426.436364 210.401177 
L 426.436364 210.401177 
" clip-path="url(#p239b6d9ec0)" style="fill: none; stroke: #ff0000; stroke-width: 3; stroke-linecap: square"/>
   </g>
   <g id="line2d_3">
    <path d="M 27.163636 21.927273 
L 27.429818 48.594608 
L 27.696 59.197107 
L 27.962182 58.271769 
L 28.760727 102.289692 
L 29.293091 112.880183 
L 29.825455 135.931539 
L 30.091636 142.961986 
L 30.890182 198.86148 
L 31.156364 202.379468 
L 31.954909 257.901427 
L 33.019636 270.397954 
L 33.552 279.545635 
L 33.818182 281.420979 
L 34.084364 282.209739 
L 34.350545 283.577 
L 34.616727 283.358981 
L 34.882909 281.049181 
L 35.681455 269.345021 
L 36.213818 265.167882 
L 36.48 265.636582 
L 37.012364 270.698988 
L 37.544727 274.138214 
L 37.810909 272.93758 
L 38.343273 277.096337 
L 38.609455 277.328589 
L 38.875636 273.756088 
L 39.141818 273.716556 
L 39.408 274.201517 
L 39.674182 270.852078 
L 39.940364 264.437287 
L 40.206545 262.487623 
L 40.472727 261.379936 
L 41.271273 252.477205 
L 41.537455 251.847413 
L 41.803636 252.28513 
L 42.069818 249.019746 
L 42.602182 232.098514 
L 42.868364 228.00375 
L 43.134545 226.805042 
L 43.400727 226.562862 
L 43.666909 227.14423 
L 43.933091 234.812671 
L 44.465455 267.057557 
L 44.997818 280.941605 
L 45.264 284.589608 
L 45.530182 284.442452 
L 45.796364 287.015138 
L 46.594909 304.456562 
L 46.861091 306.84676 
L 47.127273 303.986231 
L 47.659636 293.751126 
L 47.925818 291.070023 
L 48.192 290.141568 
L 48.458182 291.036668 
L 48.724364 293.805877 
L 48.990545 298.477658 
L 50.321455 308.735198 
L 51.12 314.93884 
L 51.386182 316.472727 
L 51.652364 311.79729 
L 53.249455 271.345581 
L 53.781818 263.871781 
L 54.048 261.94979 
L 54.314182 261.344459 
L 54.580364 262.061716 
L 55.378909 267.57261 
L 55.911273 269.743799 
L 56.443636 271.022313 
L 56.976 271.740953 
L 57.508364 272.142346 
L 58.839273 272.701377 
L 59.904 273.252254 
L 61.234909 274.027083 
L 62.565818 274.019371 
L 64.695273 273.78564 
L 66.824727 273.301969 
L 68.954182 272.577645 
L 71.349818 271.508407 
L 74.277818 269.929254 
L 77.472 268.200176 
L 87.054545 266.439576 
L 92.644364 265.627787 
L 94.507636 265.500842 
L 130.708364 265.442827 
L 426.436364 265.428694 
L 426.436364 265.428694 
" clip-path="url(#p239b6d9ec0)" style="fill: none; stroke: #0000ff; stroke-width: 3; stroke-linecap: square"/>
   </g>
   <g id="patch_3">
    <path d="M 7.2 331.2 
L 7.2 7.2 
" style="fill: none; stroke: #000000; stroke-width: 0.8; stroke-linejoin: miter; stroke-linecap: square"/>
   </g>
   <g id="patch_4">
    <path d="M 446.4 331.2 
L 446.4 7.2 
" style="fill: none; stroke: #000000; stroke-width: 0.8; stroke-linejoin: miter; stroke-linecap: square"/>
   </g>
   <g id="patch_5">
    <path d="M 7.2 331.2 
L 446.4 331.2 
" style="fill: none; stroke: #000000; stroke-width: 0.8; stroke-linejoin: miter; stroke-linecap: square"/>
   </g>
   <g id="patch_6">
    <path d="M 7.2 7.2 
L 446.4 7.2 
" style="fill: none; stroke: #000000; stroke-width: 0.8; stroke-linejoin: miter; stroke-linecap: square"/>
   </g>
  </g>
 </g>
 <defs>
  <clipPath id="p239b6d9ec0">
   <rect x="7.2" y="7.2" width="439.2" height="324"/>
  </clipPath>
 </defs>
</svg>
