<?xml version="1.0" encoding="utf-8" standalone="no"?>
<!DOCTYPE svg PUBLIC "-//W3C//DTD SVG 1.1//EN"
  "http://www.w3.org/Graphics/SVG/1.1/DTD/svg11.dtd">
<svg xmlns:xlink="http://www.w3.org/1999/xlink" width="453.6pt" height="338.4pt" viewBox="0 0 453.6 338.4" xmlns="http://www.w3.org/2000/svg" version="1.1">
 <metadata>
  <rdf:RDF xmlns:dc="http://purl.org/dc/elements/1.1/" xmlns:cc="http://creativecommons.org/ns#" xmlns:rdf="http://www.w3.org/1999/02/22-rdf-syntax-ns#">
   <cc:Work>
    <dc:type rdf:resource="http://purl.org/dc/dcmitype/StillImage"/>
    <dc:date>2025-05-15T17:14:14.453947</dc:date>
    <dc:format>image/svg+xml</dc:format>
    <dc:creator>
     <cc:Agent>
      <dc:title>Matplotlib v3.10.1, https://matplotlib.org/</dc:title>
     </cc:Agent>
    </dc:creator>
   </cc:Work>
  </rdf:RDF>
 </metadata>
 <defs>
  <style type="text/css">*{stroke-linejoin: round; stroke-linecap: butt}</style>
 </defs>
 <g id="figure_1">
  <g id="patch_1">
   <path d="M 0 338.4 
L 453.6 338.4 
L 453.6 0 
L 0 0 
z
" style="fill: #ffffff"/>
  </g>
  <g id="axes_1">
   <g id="patch_2">
    <path d="M 7.2 331.2 
L 446.4 331.2 
L 446.4 7.2 
L 7.2 7.2 
z
" style="fill: #ffffff"/>
   </g>
   <g id="matplotlib.axis_1"/>
   <g id="matplotlib.axis_2"/>
   <g id="line2d_1">
    <path d="M 27.163636 49.960561 
L 27.441681 48.989963 
L 27.719727 48.968936 
L 27.997772 49.786582 
L 28.553862 53.484293 
L 29.387997 62.459652 
L 31.056267 81.876813 
L 31.612358 86.117109 
L 32.168448 88.49582 
L 32.446493 88.947837 
L 32.724538 88.920919 
L 33.002583 88.442809 
L 33.558673 86.320096 
L 34.392808 81.213703 
L 35.504989 74.226851 
L 36.061079 72.101668 
L 36.339124 71.608294 
L 36.617169 71.553383 
L 36.895214 71.966386 
L 37.173259 72.863137 
L 37.729349 76.111237 
L 38.285439 81.184253 
L 39.119575 91.568041 
L 42.456115 138.262089 
L 43.290251 145.270601 
L 43.846341 148.465121 
L 44.402431 150.572127 
L 44.958521 151.705811 
L 45.236566 151.941288 
L 45.514611 151.968712 
L 45.792656 151.794099 
L 46.070701 151.418463 
L 46.626792 150.044678 
L 47.182882 147.76667 
L 47.738972 144.449598 
L 48.295062 139.932278 
L 49.129197 130.61029 
L 49.963332 118.12792 
L 51.075513 97.53084 
L 53.021828 60.863247 
L 53.855964 50.079756 
L 54.412054 45.756999 
L 54.690099 44.548834 
L 54.968144 43.990289 
L 55.246189 44.076297 
L 55.524234 44.790708 
L 55.802279 46.106351 
L 56.358369 50.384395 
L 56.914459 56.52358 
L 58.02664 72.457417 
L 59.972955 101.968422 
L 60.80709 111.888603 
L 61.641226 119.04101 
L 62.197316 122.107341 
L 62.753406 123.797101 
L 63.031451 124.14183 
L 63.309496 124.17071 
L 63.587541 123.902046 
L 63.865586 123.358764 
L 64.421676 121.56178 
L 65.255812 117.618712 
L 66.646037 110.573592 
L 67.202127 108.623339 
L 67.758217 107.620123 
L 68.036262 107.537029 
L 68.314307 107.754392 
L 68.592352 108.279623 
L 69.148443 110.258124 
L 69.704533 113.427753 
L 70.538668 120.190085 
L 71.372803 129.046249 
L 72.206938 139.891997 
L 73.041074 153.071172 
L 73.875209 169.302807 
L 74.709344 189.309168 
L 75.821524 221.970263 
L 78.045885 292.106812 
L 78.601975 304.748469 
L 79.158065 313.143211 
L 79.43611 315.477333 
L 79.714155 316.472727 
L 79.992201 316.091803 
L 80.270246 314.328734 
L 80.548291 311.210849 
L 81.104381 301.184963 
L 81.938516 278.468274 
L 84.440922 199.797584 
L 84.997012 188.507736 
L 85.553102 180.782089 
L 86.109192 176.320756 
L 86.387237 175.102711 
L 86.665282 174.405463 
L 86.943327 174.095569 
L 87.499418 174.069728 
L 87.777463 174.068905 
L 88.055508 173.895559 
L 88.333553 173.427518 
L 88.611598 172.558951 
L 88.889643 171.201824 
L 89.445733 166.773045 
L 90.001823 159.867578 
L 90.835958 145.108528 
L 91.948139 119.777905 
L 93.616409 81.769335 
L 94.450544 68.117813 
L 95.006635 62.219868 
L 95.562725 59.208575 
L 95.84077 58.819639 
L 96.118815 59.171904 
L 96.39686 60.249791 
L 96.95295 64.475647 
L 97.50904 71.187501 
L 98.343175 84.930731 
L 100.011446 118.629337 
L 101.123626 139.611806 
L 101.957761 152.248206 
L 102.791897 161.570954 
L 103.347987 165.918982 
L 103.904077 168.851804 
L 104.460167 170.466512 
L 104.738212 170.810101 
L 105.016257 170.858425 
L 105.294302 170.619211 
L 105.572347 170.09949 
L 106.128438 168.237271 
L 106.684528 165.300142 
L 107.240618 161.314957 
L 108.074753 153.482718 
L 109.186933 140.168262 
L 111.967384 104.118432 
L 112.801519 96.417106 
L 113.35761 92.661381 
L 113.9137 89.994246 
L 114.46979 88.282383 
L 115.02588 87.300004 
L 115.58197 86.763943 
L 116.416105 86.1344 
L 116.972195 85.437469 
L 117.528286 84.293398 
L 118.084376 82.619535 
L 118.918511 79.204549 
L 120.864827 70.423182 
L 121.420917 68.908479 
L 121.698962 68.469509 
L 121.977007 68.269372 
L 122.255052 68.32023 
L 122.533097 68.626768 
L 123.089187 69.994472 
L 123.645277 72.282551 
L 124.479413 77.027051 
L 127.537908 96.222226 
L 130.874449 113.392349 
L 132.264675 122.876537 
L 133.932945 134.23162 
L 134.76708 138.541963 
L 135.32317 140.50482 
L 135.879261 141.576564 
L 136.157306 141.74554 
L 136.435351 141.659152 
L 136.713396 141.312206 
L 137.269486 139.837403 
L 137.825576 137.352418 
L 138.659711 131.932204 
L 139.771892 122.382592 
L 141.718207 104.592679 
L 142.552342 99.117744 
L 143.108433 96.968051 
L 143.386478 96.451623 
L 143.664523 96.348768 
L 143.942568 96.684693 
L 144.220613 97.479666 
L 144.776703 100.500143 
L 145.332793 105.440916 
L 145.888883 112.207048 
L 146.723018 125.251194 
L 149.781514 178.315534 
L 150.337604 183.957228 
L 150.893695 187.237186 
L 151.17174 187.935573 
L 151.449785 188.001314 
L 151.72783 187.446126 
L 152.005875 186.296481 
L 152.561965 182.380204 
L 153.3961 173.392874 
L 155.342416 149.440406 
L 155.898506 144.665378 
L 156.454596 141.485552 
L 157.010686 139.864194 
L 157.288731 139.549929 
L 157.566776 139.487798 
L 158.122867 139.807763 
L 158.678957 140.118038 
L 158.957002 140.02956 
L 159.235047 139.653797 
L 159.513092 138.905059 
L 159.791137 137.708294 
L 160.347227 133.735712 
L 160.903317 127.429514 
L 161.459407 118.77127 
L 162.293543 102.057153 
L 164.795948 47.791171 
L 165.352038 40.288904 
L 165.908129 35.876593 
L 166.186174 34.927591 
L 166.464219 34.83734 
L 166.742264 35.601912 
L 167.020309 37.20237 
L 167.576399 42.766416 
L 168.132489 51.124393 
L 168.966624 67.655726 
L 172.58121 147.321429 
L 173.415346 159.716272 
L 174.249481 168.841734 
L 174.805571 173.202555 
L 175.361661 176.322593 
L 175.917751 178.372155 
L 176.473841 179.565943 
L 177.029932 180.154763 
L 177.864067 180.506585 
L 178.420157 180.772145 
L 178.976247 181.30675 
L 179.532337 182.218258 
L 180.366473 184.217469 
L 181.478653 186.898284 
L 181.756698 187.26708 
L 182.034743 187.405465 
L 182.312788 187.25872 
L 182.590833 186.774782 
L 182.868878 185.907735 
L 183.424968 182.878708 
L 183.981058 177.987336 
L 184.537149 171.241218 
L 185.371284 158.136017 
L 188.707825 99.67629 
L 189.54196 90.780985 
L 190.09805 87.02583 
L 190.376095 85.870042 
L 190.65414 85.231316 
L 190.932185 85.141444 
L 191.21023 85.633615 
L 191.488276 86.743866 
L 192.044366 90.958511 
L 192.600456 98.030231 
L 193.156546 108.076194 
L 193.990681 128.395806 
L 195.380907 170.858298 
L 196.493087 201.758225 
L 197.049177 212.166523 
L 197.327222 215.540722 
L 197.605267 217.536703 
L 197.883312 218.073525 
L 198.161357 217.105903 
L 198.439402 214.624654 
L 198.995493 205.267706 
L 199.551583 190.647802 
L 200.385718 161.446122 
L 202.332033 87.082388 
L 203.166169 64.406106 
L 203.722259 54.623297 
L 204.278349 49.333932 
L 204.556394 48.306839 
L 204.834439 48.277895 
L 205.112484 49.163816 
L 205.390529 50.866242 
L 205.946619 56.270496 
L 206.780755 67.551224 
L 208.449025 90.694597 
L 209.28316 98.921788 
L 210.117296 104.64284 
L 211.507521 111.659142 
L 212.619701 118.044445 
L 214.566017 130.203367 
L 215.122107 131.931191 
L 215.400152 132.182438 
L 215.678197 131.957221 
L 215.956242 131.21944 
L 216.234287 129.94794 
L 216.790377 125.802709 
L 217.346467 119.705071 
L 218.458648 103.825701 
L 219.570828 88.718566 
L 220.126918 83.80281 
L 220.404963 82.346881 
L 220.683008 81.64349 
L 220.961053 81.728358 
L 221.239099 82.611872 
L 221.517144 84.278134 
L 222.073234 89.766686 
L 222.907369 102.06621 
L 224.575639 128.613676 
L 225.13173 134.300971 
L 225.68782 137.327781 
L 225.965865 137.800192 
L 226.24391 137.605249 
L 226.521955 136.792416 
L 227.078045 133.603343 
L 227.91218 126.32167 
L 229.024361 116.135295 
L 229.580451 112.258918 
L 230.136541 109.606287 
L 230.692631 108.163215 
L 230.970676 107.834256 
L 231.248721 107.715695 
L 231.526766 107.762119 
L 232.082856 108.164862 
L 233.195037 109.088846 
L 233.751127 109.181567 
L 234.307217 108.903593 
L 234.863307 108.26246 
L 235.697442 106.747566 
L 237.643758 102.723304 
L 237.921803 102.480923 
L 238.199848 102.445266 
L 238.477893 102.668266 
L 238.755938 103.201541 
L 239.033983 104.095378 
L 239.590073 107.135996 
L 240.146164 112.024138 
L 240.980299 122.716554 
L 243.204659 156.414717 
L 243.76075 161.032802 
L 244.038795 162.244388 
L 244.31684 162.684181 
L 244.594885 162.361176 
L 244.87293 161.317427 
L 245.42902 157.385126 
L 246.263155 148.692491 
L 247.09729 140.164652 
L 247.653381 136.377766 
L 247.931426 135.333383 
L 248.209471 134.91316 
L 248.487516 135.12058 
L 248.765561 135.927206 
L 249.321651 139.086195 
L 250.155786 146.203895 
L 250.989921 153.331476 
L 251.546012 156.654564 
L 251.824057 157.670067 
L 252.102102 158.208219 
L 252.380147 158.262496 
L 252.658192 157.845883 
L 252.936237 156.99011 
L 253.492327 154.147729 
L 254.326462 147.922219 
L 255.994733 132.710836 
L 257.106913 120.538424 
L 257.941048 108.703647 
L 258.775184 93.729007 
L 260.165409 63.611387 
L 261.277589 40.602219 
L 262.111724 28.226567 
L 262.667815 23.494544 
L 262.94586 22.310635 
L 263.223905 21.927273 
L 263.50195 22.331156 
L 263.779995 23.49182 
L 264.336085 27.888235 
L 264.892175 34.609336 
L 265.72631 47.659689 
L 268.228716 89.588337 
L 269.062851 100.192401 
L 269.896987 108.182342 
L 270.453077 111.977271 
L 271.009167 114.5292 
L 271.565257 115.852318 
L 271.843302 116.069048 
L 272.121347 116.004573 
L 272.399392 115.675615 
L 272.955482 114.312154 
L 273.511573 112.199068 
L 275.735933 102.353115 
L 276.292023 101.077182 
L 276.570068 100.76374 
L 276.848113 100.674565 
L 277.126159 100.802881 
L 277.404204 101.133486 
L 277.960294 102.289084 
L 279.350519 105.903573 
L 279.628564 106.286746 
L 279.906609 106.414174 
L 280.184654 106.231012 
L 280.462699 105.688933 
L 280.740744 104.749875 
L 281.296835 101.585946 
L 281.852925 96.68026 
L 282.68706 86.461711 
L 285.189466 51.215467 
L 285.745556 46.080448 
L 286.301646 42.669578 
L 286.857736 40.965885 
L 287.135781 40.699691 
L 287.413826 40.775882 
L 287.691871 41.152468 
L 288.247962 42.628917 
L 289.082097 46.047071 
L 290.194277 51.926395 
L 291.028412 57.669108 
L 291.584502 62.74073 
L 292.140593 69.330729 
L 292.696683 77.858378 
L 293.530818 94.809934 
L 294.642998 124.421894 
L 296.311269 171.178707 
L 296.867359 182.369184 
L 297.423449 189.212013 
L 297.701494 190.707653 
L 297.979539 190.820198 
L 298.257584 189.518678 
L 298.535629 186.809679 
L 299.091719 177.391043 
L 299.64781 163.370345 
L 300.75999 127.158633 
L 301.87217 91.685272 
L 302.42826 78.255104 
L 302.98435 69.118749 
L 303.262396 66.308858 
L 303.540441 64.68085 
L 303.818486 64.200269 
L 304.096531 64.803782 
L 304.374576 66.400883 
L 304.930666 72.107368 
L 305.764801 84.865243 
L 307.155027 107.806136 
L 307.711117 114.809961 
L 308.267207 119.675304 
L 308.823297 122.164912 
L 309.101342 122.512681 
L 309.379387 122.286577 
L 309.657432 121.519536 
L 310.213522 118.545483 
L 310.769613 114.033293 
L 312.159838 99.684587 
L 312.993973 91.874705 
L 313.550063 88.050326 
L 314.106153 85.734253 
L 314.384199 85.204652 
L 314.662244 85.109017 
L 314.940289 85.445576 
L 315.218334 86.205397 
L 315.774424 88.918513 
L 316.330514 93.041387 
L 317.164649 101.258571 
L 318.554875 117.856975 
L 320.50119 140.633136 
L 321.61337 150.923062 
L 322.447506 156.764259 
L 323.281641 160.928871 
L 323.837731 162.846887 
L 324.393821 164.176401 
L 324.949911 165.020204 
L 325.506002 165.477985 
L 326.062092 165.6329 
L 326.618182 165.536252 
L 327.174272 165.201847 
L 327.730362 164.604034 
L 328.286452 163.687777 
L 328.842542 162.38233 
L 329.398633 160.616633 
L 330.232768 156.977696 
L 331.066903 152.044079 
L 331.901038 145.777529 
L 333.013219 135.396021 
L 334.403444 119.539008 
L 337.46194 82.587488 
L 338.296075 75.340332 
L 339.13021 69.933735 
L 340.24239 64.564695 
L 341.354571 59.13612 
L 342.188706 53.826108 
L 343.300886 44.972541 
L 344.691112 34.123182 
L 345.247202 31.185546 
L 345.803292 29.637149 
L 346.081337 29.47172 
L 346.359382 29.743044 
L 346.637427 30.463282 
L 347.193517 33.260695 
L 347.749607 37.809936 
L 348.583743 47.581028 
L 349.417878 60.280318 
L 350.530058 80.722229 
L 351.920284 110.811856 
L 355.256825 186.727978 
L 355.812915 194.157157 
L 356.369005 198.182496 
L 356.64705 198.760801 
L 356.925095 198.336588 
L 357.20314 196.902129 
L 357.75923 191.094182 
L 358.31532 181.769091 
L 359.149456 163.028403 
L 360.817726 123.188585 
L 361.373816 113.595083 
L 361.929906 107.262284 
L 362.207951 105.424829 
L 362.485996 104.476018 
L 362.764042 104.38488 
L 363.042087 105.096694 
L 363.320132 106.534573 
L 363.876222 111.191609 
L 364.988402 124.254755 
L 365.822537 133.509038 
L 366.378628 138.005395 
L 366.934718 140.734281 
L 367.212763 141.423801 
L 367.490808 141.696772 
L 367.768853 141.599617 
L 368.046898 141.191998 
L 368.602988 139.736005 
L 369.715168 136.460924 
L 369.993213 135.988134 
L 370.271259 135.765767 
L 370.549304 135.829418 
L 370.827349 136.201697 
L 371.105394 136.892104 
L 371.661484 139.201463 
L 372.217574 142.60144 
L 373.329754 151.488131 
L 374.998025 165.288932 
L 376.110205 172.598092 
L 377.222385 178.359995 
L 379.168701 186.893534 
L 381.393062 195.979665 
L 382.227197 198.346342 
L 382.783287 199.158604 
L 383.061332 199.255886 
L 383.339377 199.111167 
L 383.617422 198.697784 
L 383.895467 197.990149 
L 384.451557 195.602762 
L 385.007648 191.806377 
L 385.563738 186.536518 
L 386.397873 175.979764 
L 387.510053 158.009285 
L 389.734414 119.833006 
L 390.568549 108.816318 
L 391.402684 100.866088 
L 391.958774 97.296756 
L 392.514865 94.96903 
L 393.070955 93.663773 
L 393.627045 93.108268 
L 394.183135 93.00801 
L 395.295315 93.082681 
L 395.851405 92.852714 
L 396.407496 92.320452 
L 397.241631 91.060099 
L 398.075766 89.740466 
L 398.631856 89.224354 
L 398.909901 89.169253 
L 399.187946 89.285662 
L 399.465991 89.59505 
L 400.022082 90.845206 
L 400.578172 92.946512 
L 401.412307 97.436852 
L 403.358622 109.310959 
L 403.914713 111.69556 
L 404.470803 113.285884 
L 405.026893 114.086304 
L 405.304938 114.226146 
L 405.861028 114.114804 
L 407.251253 113.255864 
L 407.529299 113.296398 
L 407.807344 113.491278 
L 408.085389 113.869383 
L 408.641479 115.262992 
L 409.197569 117.596608 
L 409.753659 120.887586 
L 410.587794 127.418114 
L 411.97802 140.869626 
L 413.64629 156.500472 
L 414.75847 164.52911 
L 415.870651 170.601668 
L 416.982831 175.420332 
L 418.095011 179.390507 
L 418.929147 181.554198 
L 419.485237 182.339733 
L 419.763282 182.466528 
L 420.041327 182.384574 
L 420.319372 182.072462 
L 420.597417 181.509737 
L 421.153507 179.565563 
L 421.709597 176.450212 
L 422.265688 172.116688 
L 423.099823 163.357678 
L 423.933958 152.091897 
L 425.046138 133.867827 
L 426.436364 108.084047 
L 426.436364 108.084047 
" clip-path="url(#pd9a3e8dac8)" style="fill: none; stroke-dasharray: 11.1,4.8; stroke-dashoffset: 0; stroke: #000000; stroke-width: 3"/>
   </g>
   <g id="line2d_2">
    <path d="M 27.163636 231.366448 
L 27.441681 229.659588 
L 27.997772 207.312898 
L 28.275817 194.282875 
L 28.553862 190.084887 
L 29.666042 182.035285 
L 29.944087 183.359162 
L 30.222132 186.163289 
L 30.500177 187.003039 
L 31.056267 184.89616 
L 31.334312 183.158139 
L 31.612358 182.330803 
L 32.168448 181.627412 
L 32.446493 181.49118 
L 33.002583 183.277334 
L 33.280628 183.154466 
L 33.558673 181.796768 
L 34.392808 174.247634 
L 34.670853 173.171457 
L 34.948898 172.737871 
L 35.226944 173.298189 
L 35.783034 179.628011 
L 36.339124 171.037154 
L 36.617169 168.394023 
L 36.895214 167.407401 
L 37.173259 168.413784 
L 37.451304 167.238679 
L 38.007394 160.342078 
L 38.563484 156.675275 
L 39.119575 155.017752 
L 40.5098 138.830768 
L 42.17807 126.952987 
L 42.456115 126.016779 
L 42.734161 125.538225 
L 43.012206 125.431316 
L 43.290251 125.608779 
L 43.846341 126.565761 
L 44.680476 128.769858 
L 45.236566 130.262205 
L 45.792656 131.152875 
L 46.904837 132.327283 
L 47.738972 132.914266 
L 48.851152 133.37591 
L 51.631603 134.223513 
L 52.465738 134.735571 
L 53.855964 135.929169 
L 56.636414 138.539873 
L 58.58273 140.655873 
L 59.972955 142.374513 
L 63.865586 142.969222 
L 68.592352 143.445623 
L 77.489795 144.038622 
L 80.548291 143.824552 
L 82.494606 143.486917 
L 84.162877 142.976442 
L 85.553102 142.320045 
L 86.665282 141.589927 
L 87.777463 140.625979 
L 88.611598 139.60294 
L 92.782274 132.273133 
L 95.28468 127.38195 
L 99.455356 118.939612 
L 101.957761 113.883444 
L 104.182122 108.861602 
L 106.406483 103.668948 
L 108.630843 100.133944 
L 110.021069 98.353299 
L 110.855204 97.563774 
L 111.689339 97.047092 
L 112.523474 96.859179 
L 113.079564 96.942021 
L 113.635655 97.214105 
L 115.58197 99.191909 
L 116.416105 99.582365 
L 117.250241 99.648043 
L 117.806331 99.503387 
L 118.640466 98.990189 
L 119.474601 98.104585 
L 120.308736 96.827069 
L 121.698962 94.385151 
L 122.255052 94.279826 
L 122.811142 94.426888 
L 123.367232 94.824818 
L 124.201367 95.79909 
L 125.313548 97.595061 
L 128.372044 103.181654 
L 128.928134 103.57838 
L 130.596404 104.64151 
L 131.430539 105.406905 
L 132.264675 106.452175 
L 133.09881 107.861554 
L 133.932945 109.711992 
L 134.76708 112.072716 
L 135.601215 115.011745 
L 136.157306 116.978718 
L 137.547531 118.830297 
L 138.659711 120.031179 
L 139.771892 120.933946 
L 140.606027 121.349293 
L 141.718207 121.653488 
L 142.830387 121.672298 
L 143.664523 121.486665 
L 144.498658 121.121859 
L 145.610838 120.561414 
L 147.001064 121.001841 
L 148.391289 121.18532 
L 149.781514 121.109636 
L 151.17174 120.772951 
L 152.561965 120.172161 
L 153.95219 119.307901 
L 155.342416 118.17694 
L 157.010686 116.660527 
L 158.957002 115.935539 
L 161.459407 114.691463 
L 164.795948 113.054081 
L 166.742264 112.34062 
L 168.410534 111.95542 
L 170.078805 111.819695 
L 171.46903 111.92578 
L 172.02512 112.277665 
L 173.971436 113.601099 
L 175.639706 114.493163 
L 178.142112 115.563513 
L 181.200608 116.63456 
L 186.205419 118.109869 
L 189.263915 118.855694 
L 195.936997 120.348167 
L 200.107673 119.431593 
L 204.556394 118.682792 
L 209.561205 118.075289 
L 215.400152 117.595088 
L 218.458648 117.287473 
L 223.741504 116.84502 
L 231.804811 116.236377 
L 234.585262 115.907228 
L 237.365713 115.800953 
L 240.424209 115.908622 
L 243.76075 116.244864 
L 249.043606 116.829059 
L 252.380147 116.89347 
L 255.716688 116.730385 
L 259.609319 116.304841 
L 262.667815 115.946432 
L 277.960294 119.924017 
L 282.68706 120.753444 
L 285.467511 121.007478 
L 288.247962 121.038638 
L 290.750367 120.841288 
L 291.584502 120.444182 
L 294.364953 118.993573 
L 297.423449 117.73683 
L 301.31608 116.417323 
L 305.208711 115.320246 
L 309.379387 114.372638 
L 313.828108 113.599643 
L 317.442694 113.144649 
L 318.83292 113.835373 
L 322.447506 115.924709 
L 326.896227 118.728266 
L 331.344948 121.771796 
L 334.959534 124.687391 
L 338.01803 127.431224 
L 341.354571 130.85324 
L 343.856976 133.467364 
L 344.135022 133.525252 
L 347.749607 132.555667 
L 353.588554 130.659691 
L 356.09096 129.825198 
L 359.427501 128.520954 
L 362.764042 126.95134 
L 365.822537 125.27013 
L 368.881033 123.424948 
L 370.827349 121.928295 
L 372.773664 120.170261 
L 373.607799 119.24444 
L 376.110205 116.010337 
L 378.056521 113.813903 
L 380.280881 111.672189 
L 382.227197 110.108402 
L 383.617422 109.215451 
L 385.007648 108.688636 
L 386.397873 108.438529 
L 387.510053 108.473933 
L 388.622233 108.755011 
L 389.734414 109.308869 
L 390.012459 109.492412 
L 390.846594 109.450738 
L 393.070955 109.37119 
L 395.01727 109.548526 
L 396.963586 109.97882 
L 399.465991 110.654344 
L 400.300127 110.861257 
L 403.636668 110.997869 
L 405.026893 110.379599 
L 406.417118 109.995857 
L 408.085389 109.784003 
L 410.031704 109.794327 
L 411.97802 109.835874 
L 421.709597 109.831884 
L 425.046138 110.057608 
L 426.436364 110.229814 
L 426.436364 110.229814 
" clip-path="url(#pd9a3e8dac8)" style="fill: none; stroke: #ff00ff; stroke-width: 3; stroke-linecap: square"/>
   </g>
   <g id="patch_3">
    <path d="M 7.2 331.2 
L 7.2 7.2 
" style="fill: none; stroke: #000000; stroke-width: 0.8; stroke-linejoin: miter; stroke-linecap: square"/>
   </g>
   <g id="patch_4">
    <path d="M 446.4 331.2 
L 446.4 7.2 
" style="fill: none; stroke: #000000; stroke-width: 0.8; stroke-linejoin: miter; stroke-linecap: square"/>
   </g>
   <g id="patch_5">
    <path d="M 7.2 331.2 
L 446.4 331.2 
" style="fill: none; stroke: #000000; stroke-width: 0.8; stroke-linejoin: miter; stroke-linecap: square"/>
   </g>
   <g id="patch_6">
    <path d="M 7.2 7.2 
L 446.4 7.2 
" style="fill: none; stroke: #000000; stroke-width: 0.8; stroke-linejoin: miter; stroke-linecap: square"/>
   </g>
  </g>
 </g>
 <defs>
  <clipPath id="pd9a3e8dac8">
   <rect x="7.2" y="7.2" width="439.2" height="324"/>
  </clipPath>
 </defs>
</svg>
