<?xml version="1.0" encoding="utf-8" standalone="no"?>
<!DOCTYPE svg PUBLIC "-//W3C//DTD SVG 1.1//EN"
  "http://www.w3.org/Graphics/SVG/1.1/DTD/svg11.dtd">
<svg xmlns:xlink="http://www.w3.org/1999/xlink" width="453.6pt" height="338.4pt" viewBox="0 0 453.6 338.4" xmlns="http://www.w3.org/2000/svg" version="1.1">
 <metadata>
  <rdf:RDF xmlns:dc="http://purl.org/dc/elements/1.1/" xmlns:cc="http://creativecommons.org/ns#" xmlns:rdf="http://www.w3.org/1999/02/22-rdf-syntax-ns#">
   <cc:Work>
    <dc:type rdf:resource="http://purl.org/dc/dcmitype/StillImage"/>
    <dc:date>2025-05-15T17:27:20.637696</dc:date>
    <dc:format>image/svg+xml</dc:format>
    <dc:creator>
     <cc:Agent>
      <dc:title>Matplotlib v3.10.1, https://matplotlib.org/</dc:title>
     </cc:Agent>
    </dc:creator>
   </cc:Work>
  </rdf:RDF>
 </metadata>
 <defs>
  <style type="text/css">*{stroke-linejoin: round; stroke-linecap: butt}</style>
 </defs>
 <g id="figure_1">
  <g id="patch_1">
   <path d="M 0 338.4 
L 453.6 338.4 
L 453.6 0 
L 0 0 
z
" style="fill: #ffffff"/>
  </g>
  <g id="axes_1">
   <g id="patch_2">
    <path d="M 7.2 331.2 
L 446.4 331.2 
L 446.4 7.2 
L 7.2 7.2 
z
" style="fill: #ffffff"/>
   </g>
   <g id="matplotlib.axis_1"/>
   <g id="matplotlib.axis_2"/>
   <g id="line2d_1">
    <path d="M 27.163636 21.927273 
L 27.719727 38.810047 
L 28.275817 49.646544 
L 28.831907 55.678493 
L 29.109952 57.304669 
L 29.387997 58.215569 
L 29.666042 58.556506 
L 29.944087 58.459732 
L 30.222132 58.04324 
L 30.778222 56.647017 
L 31.890403 53.589594 
L 32.446493 52.678695 
L 32.724538 52.483574 
L 33.002583 52.486983 
L 33.280628 52.701512 
L 33.558673 53.135551 
L 34.114763 54.681811 
L 34.670853 57.144238 
L 35.226944 60.529629 
L 36.061079 67.362971 
L 36.895214 76.347724 
L 38.007394 91.557496 
L 39.675665 118.820699 
L 40.787845 136.050872 
L 41.62198 145.843099 
L 42.17807 150.007472 
L 42.456115 151.230818 
L 42.734161 151.827602 
L 43.012206 151.765852 
L 43.290251 151.021273 
L 43.568296 149.5777 
L 44.124386 144.575216 
L 44.680476 136.818649 
L 45.514611 120.563629 
L 46.626792 92.864193 
L 48.295062 50.918504 
L 49.129197 36.19663 
L 49.685287 30.36233 
L 49.963332 28.794518 
L 50.241378 28.154294 
L 50.519423 28.439132 
L 50.797468 29.628074 
L 51.353558 34.546873 
L 51.909648 42.410443 
L 52.743783 58.166645 
L 55.246189 109.544503 
L 56.080324 121.999405 
L 56.914459 131.410116 
L 57.748595 138.508149 
L 58.860775 145.959471 
L 60.251 153.84197 
L 61.085135 157.722603 
L 61.919271 160.514547 
L 62.475361 161.678813 
L 63.031451 162.368842 
L 64.421676 163.611286 
L 64.977767 164.79112 
L 65.533857 166.832597 
L 66.089947 169.910858 
L 66.924082 176.459243 
L 68.036262 187.684981 
L 69.704533 204.731167 
L 71.372803 218.972474 
L 72.484984 229.061007 
L 74.987389 253.962084 
L 75.543479 257.039141 
L 75.821524 257.828566 
L 76.09957 258.058795 
L 76.377615 257.706246 
L 76.65566 256.766927 
L 77.21175 253.213965 
L 77.76784 247.767964 
L 80.270246 219.217711 
L 80.826336 216.15689 
L 81.104381 215.371053 
L 81.382426 215.079575 
L 81.660471 215.262859 
L 81.938516 215.888682 
L 82.494606 218.290647 
L 83.328741 223.955217 
L 85.553102 241.034829 
L 86.387237 245.267247 
L 86.943327 246.985441 
L 87.221372 247.48619 
L 87.499418 247.741464 
L 87.777463 247.7487 
L 88.055508 247.507493 
L 88.333553 247.019117 
L 88.889643 245.315634 
L 89.445733 242.688424 
L 90.279868 237.220513 
L 91.392049 227.844671 
L 95.006635 195.375364 
L 96.118815 187.346475 
L 96.95295 182.821424 
L 97.50904 181.03081 
L 97.787085 180.629481 
L 98.06513 180.611147 
L 98.343175 181.01002 
L 98.621221 181.852446 
L 99.177311 184.915948 
L 99.733401 189.760719 
L 100.567536 199.675409 
L 102.235807 221.078348 
L 102.791897 225.927517 
L 103.347987 228.688229 
L 103.626032 229.22083 
L 103.904077 229.196118 
L 104.182122 228.646625 
L 104.738212 226.202305 
L 105.572347 220.444705 
L 106.406483 214.672739 
L 106.962573 212.186065 
L 107.240618 211.597852 
L 107.518663 211.52008 
L 107.796708 211.9849 
L 108.074753 213.004708 
L 108.630843 216.660143 
L 109.186933 222.206195 
L 110.299114 236.722148 
L 111.411294 251.107364 
L 111.967384 256.621886 
L 112.523474 260.416807 
L 112.801519 261.593172 
L 113.079564 262.272187 
L 113.35761 262.455935 
L 113.635655 262.157269 
L 113.9137 261.399005 
L 114.46979 258.639509 
L 115.02588 254.523916 
L 116.416105 241.410874 
L 117.250241 234.360047 
L 117.806331 231.14503 
L 118.084376 230.157336 
L 118.362421 229.642031 
L 118.640466 229.630754 
L 118.918511 230.142959 
L 119.196556 231.185346 
L 119.752646 234.817761 
L 120.308736 240.305342 
L 121.142872 251.039045 
L 122.811142 273.665199 
L 123.367232 279.215841 
L 123.923322 283.002131 
L 124.201367 284.16604 
L 124.479413 284.832727 
L 124.757458 285.008906 
L 125.035503 284.712374 
L 125.313548 283.97068 
L 125.869638 281.301973 
L 126.425728 277.360378 
L 127.537908 267.323534 
L 128.928134 254.785663 
L 129.762269 249.028396 
L 130.318359 246.261485 
L 130.874449 244.408835 
L 131.430539 243.451599 
L 131.708584 243.289797 
L 131.98663 243.324582 
L 132.264675 243.542759 
L 132.820765 244.471694 
L 133.376855 245.953819 
L 134.21099 248.930204 
L 136.713396 258.857959 
L 137.269486 260.232021 
L 137.825576 260.932862 
L 138.103621 260.986912 
L 138.381666 260.825777 
L 138.659711 260.441173 
L 139.215801 258.991211 
L 139.771892 256.667722 
L 140.606027 251.812115 
L 142.274297 239.730552 
L 143.664523 230.534751 
L 144.498658 226.241132 
L 145.332793 223.064798 
L 145.888883 221.65756 
L 146.444973 220.918405 
L 146.723018 220.833028 
L 147.001064 220.955598 
L 147.279109 221.298217 
L 147.835199 222.677536 
L 148.391289 224.993229 
L 149.225424 230.048307 
L 150.61565 240.944552 
L 152.005875 251.380925 
L 153.118055 257.937523 
L 157.010686 277.603755 
L 157.844821 280.558765 
L 158.400912 281.639299 
L 158.678957 281.880101 
L 158.957002 281.921347 
L 159.235047 281.770548 
L 159.791137 280.948269 
L 160.347227 279.559246 
L 161.181362 276.789593 
L 162.849633 270.215221 
L 163.961813 265.004479 
L 165.073993 258.410604 
L 167.576399 242.287429 
L 168.132489 240.610159 
L 168.410534 240.328695 
L 168.688579 240.472449 
L 168.966624 241.072177 
L 169.24467 242.148956 
L 169.80076 245.764753 
L 170.35685 251.267187 
L 171.190985 262.492973 
L 173.971436 305.069314 
L 174.527526 310.570616 
L 175.083616 314.287037 
L 175.639706 316.181565 
L 175.917751 316.472727 
L 176.195796 316.355026 
L 176.473841 315.85628 
L 177.029932 313.842424 
L 177.586022 310.696792 
L 178.420157 304.416562 
L 179.810382 291.466788 
L 182.312788 267.011302 
L 183.146923 260.763156 
L 183.703013 257.698998 
L 184.259104 255.654684 
L 184.815194 254.646832 
L 185.093239 254.508812 
L 185.371284 254.590363 
L 185.649329 254.866665 
L 186.205419 255.886534 
L 187.039554 258.104392 
L 188.42978 261.827275 
L 189.263915 263.497249 
L 190.932185 266.116234 
L 192.878501 269.032191 
L 193.434591 269.461427 
L 193.990681 269.484875 
L 194.546771 269.024157 
L 195.102861 268.065908 
L 195.936997 265.83167 
L 197.327222 261.007904 
L 198.995493 255.393366 
L 200.663763 249.829528 
L 201.775943 245.162939 
L 203.166169 238.108369 
L 204.556394 231.236808 
L 205.390529 228.119292 
L 205.946619 226.623435 
L 206.50271 225.556121 
L 207.336845 224.475409 
L 208.17098 223.463599 
L 208.72707 222.540719 
L 209.561205 220.625521 
L 210.673386 217.774579 
L 211.229476 216.888213 
L 211.507521 216.742445 
L 211.785566 216.853094 
L 212.063611 217.256223 
L 212.341656 217.978939 
L 212.897746 220.436813 
L 213.453836 224.211468 
L 214.287972 231.834057 
L 216.512332 253.903362 
L 217.624513 261.815521 
L 219.292783 272.765362 
L 220.126918 279.952779 
L 222.629324 304.222037 
L 223.185414 307.181553 
L 223.463459 307.975497 
L 223.741504 308.271248 
L 224.019549 308.056422 
L 224.297594 307.334236 
L 224.853684 304.459376 
L 225.409775 299.974789 
L 226.521955 288.395119 
L 227.634135 277.735338 
L 228.190225 274.200578 
L 228.746316 272.322942 
L 229.024361 272.039463 
L 229.302406 272.184314 
L 229.580451 272.735965 
L 230.136541 274.925047 
L 230.692631 278.266103 
L 231.804811 286.770564 
L 233.195037 297.035353 
L 234.029172 301.477859 
L 234.585262 303.396944 
L 235.141352 304.335637 
L 235.419397 304.398954 
L 235.697442 304.172297 
L 235.975487 303.642949 
L 236.531578 301.639965 
L 237.087668 298.360182 
L 237.921803 291.200618 
L 239.033983 278.538222 
L 241.536389 248.246266 
L 242.926614 234.762043 
L 244.038795 225.852987 
L 245.150975 218.604965 
L 246.5412 211.423783 
L 247.653381 205.321788 
L 248.487516 198.977274 
L 249.321651 190.388258 
L 250.433831 175.938371 
L 252.102102 153.907726 
L 252.936237 145.890425 
L 253.492327 142.254123 
L 254.048417 140.018979 
L 254.326462 139.3974 
L 254.604507 139.080161 
L 254.882553 139.043493 
L 255.160598 139.26186 
L 255.716688 140.35975 
L 256.272778 142.172584 
L 257.106913 145.846007 
L 258.497139 153.292322 
L 260.443454 163.506811 
L 263.779995 179.453437 
L 265.72631 190.052947 
L 266.282401 191.865638 
L 266.560446 192.35008 
L 266.838491 192.505171 
L 267.116536 192.305734 
L 267.394581 191.737942 
L 267.950671 189.507876 
L 268.506761 185.980937 
L 271.009167 167.622237 
L 271.287212 166.799838 
L 271.565257 166.405185 
L 271.843302 166.444214 
L 272.121347 166.905362 
L 272.677437 168.968726 
L 273.233527 172.216215 
L 275.735933 188.858498 
L 277.682249 198.709244 
L 278.516384 204.926157 
L 279.350519 213.113164 
L 281.57488 236.920178 
L 282.13097 240.779209 
L 282.68706 243.058031 
L 282.965105 243.563215 
L 283.24315 243.64535 
L 283.521195 243.317716 
L 283.79924 242.602629 
L 284.35533 240.138497 
L 285.189466 234.481342 
L 287.691871 214.887601 
L 288.247962 211.91819 
L 288.804052 209.847293 
L 289.360142 208.74132 
L 289.638187 208.5557 
L 289.916232 208.611323 
L 290.194277 208.901465 
L 290.750367 210.143598 
L 291.306457 212.17319 
L 292.140593 216.366579 
L 294.642998 230.489619 
L 295.199088 232.124176 
L 295.477133 232.472397 
L 295.755179 232.44269 
L 296.033224 231.98705 
L 296.311269 231.060904 
L 296.867359 227.644996 
L 297.423449 221.977195 
L 297.979539 214.022538 
L 298.813674 198.328777 
L 301.038035 151.722459 
L 301.594125 144.505956 
L 301.87217 142.219266 
L 302.150215 140.908803 
L 302.42826 140.613236 
L 302.706305 141.342914 
L 302.98435 143.078357 
L 303.540441 149.34417 
L 304.096531 158.703215 
L 305.486756 188.34044 
L 306.320891 204.402854 
L 306.876982 212.468006 
L 307.433072 217.964694 
L 307.989162 220.960128 
L 308.267207 221.635435 
L 308.545252 221.855793 
L 308.823297 221.702502 
L 309.379387 220.612563 
L 311.603748 214.606507 
L 312.437883 212.562765 
L 312.993973 210.640652 
L 313.550063 207.957462 
L 314.384199 202.370342 
L 316.608559 185.586284 
L 317.164649 183.478885 
L 317.442694 182.971341 
L 317.720739 182.835514 
L 317.998785 183.058792 
L 318.27683 183.614783 
L 318.83292 185.562943 
L 319.667055 189.775167 
L 320.779235 195.500104 
L 321.61337 198.582311 
L 322.169461 199.915508 
L 322.725551 200.77231 
L 323.281641 201.284634 
L 323.837731 201.546369 
L 324.393821 201.558123 
L 324.949911 201.202082 
L 325.506002 200.252631 
L 326.062092 198.420818 
L 326.618182 195.423 
L 327.174272 191.059381 
L 328.008407 181.89815 
L 329.120587 166.029463 
L 330.510813 145.899985 
L 331.344948 137.17022 
L 331.901038 133.678328 
L 332.179083 132.710304 
L 332.457128 132.26513 
L 332.735173 132.329026 
L 333.013219 132.875289 
L 333.569309 135.249597 
L 334.125399 138.962598 
L 336.627805 158.082494 
L 337.183895 160.611631 
L 338.01803 163.222235 
L 338.852165 165.683709 
L 339.408255 168.121365 
L 339.964345 171.732489 
L 340.520436 176.757551 
L 341.354571 186.749215 
L 343.022841 208.576192 
L 343.578931 213.346444 
L 343.856976 214.823503 
L 344.135022 215.616779 
L 344.413067 215.698997 
L 344.691112 215.071278 
L 344.969157 213.764558 
L 345.525247 209.384512 
L 346.637427 196.841467 
L 347.193517 191.116577 
L 347.749607 187.440674 
L 348.027653 186.697168 
L 348.305698 186.809201 
L 348.583743 187.83373 
L 348.861788 189.795003 
L 349.417878 196.456065 
L 349.973968 206.333752 
L 351.086148 231.952396 
L 352.476374 263.130348 
L 353.310509 276.157393 
L 353.866599 281.850287 
L 354.422689 285.373304 
L 354.978779 287.146334 
L 355.256825 287.529329 
L 355.53487 287.656167 
L 355.812915 287.579778 
L 356.369005 286.989038 
L 356.925095 286.006244 
L 357.75923 283.9857 
L 358.593365 281.192265 
L 359.427501 277.374862 
L 360.539681 270.703524 
L 363.042087 254.56608 
L 363.876222 250.543339 
L 364.710357 247.335868 
L 365.544492 244.769299 
L 366.378628 242.845374 
L 366.934718 242.073222 
L 367.212763 241.901049 
L 367.490808 241.903469 
L 367.768853 242.104276 
L 368.046898 242.525275 
L 368.602988 244.093969 
L 369.159078 246.678621 
L 369.993213 252.290894 
L 372.217574 269.722125 
L 372.773664 272.303034 
L 373.051709 273.088693 
L 373.329754 273.515389 
L 373.607799 273.580906 
L 373.885845 273.295139 
L 374.16389 272.679567 
L 374.71998 270.598919 
L 375.554115 266.09989 
L 376.666295 260.057463 
L 377.222385 258.055993 
L 377.50043 257.463274 
L 377.778476 257.17734 
L 378.056521 257.211136 
L 378.334566 257.567105 
L 378.612611 258.236845 
L 379.168701 260.435654 
L 380.002836 265.349482 
L 381.671107 276.042106 
L 382.227197 278.372319 
L 382.783287 279.585985 
L 383.061332 279.727343 
L 383.339377 279.548696 
L 383.617422 279.051786 
L 384.173512 277.143251 
L 384.729602 274.137385 
L 385.563738 268.038621 
L 388.622233 243.136149 
L 389.456369 238.872844 
L 390.290504 235.933831 
L 391.958774 230.829972 
L 392.514865 228.315605 
L 393.349 223.27538 
L 395.851405 205.966041 
L 396.407496 204.004183 
L 396.685541 203.474812 
L 396.963586 203.246885 
L 397.241631 203.305798 
L 397.519676 203.626255 
L 398.075766 204.907167 
L 399.187946 208.763207 
L 400.022082 211.441211 
L 400.578172 212.726928 
L 401.134262 213.593767 
L 402.802532 215.546898 
L 403.358622 216.893208 
L 403.914713 218.986457 
L 404.470803 221.922192 
L 405.304938 227.756098 
L 407.251253 242.629129 
L 407.807344 245.20446 
L 408.085389 245.951208 
L 408.363434 246.294303 
L 408.641479 246.216126 
L 408.919524 245.712969 
L 409.197569 244.794917 
L 409.753659 241.826186 
L 410.587794 235.302107 
L 411.97802 223.9077 
L 412.53411 221.085441 
L 412.812155 220.323064 
L 413.0902 220.053628 
L 413.368245 220.304825 
L 413.64629 221.089398 
L 414.20238 224.232568 
L 414.75847 229.285537 
L 415.592606 239.51966 
L 417.538921 265.536103 
L 418.373056 273.328553 
L 418.929147 276.655138 
L 419.485237 278.440744 
L 419.763282 278.781682 
L 420.041327 278.779775 
L 420.319372 278.458852 
L 420.875462 276.966547 
L 421.431552 274.531574 
L 422.265688 269.644329 
L 424.212003 257.362245 
L 424.768093 255.044048 
L 425.324183 253.825995 
L 425.602228 253.705344 
L 425.880273 253.938827 
L 426.158319 254.537577 
L 426.436364 255.50156 
L 426.436364 255.50156 
" clip-path="url(#peb233e57cf)" style="fill: none; stroke-dasharray: 11.1,4.8; stroke-dashoffset: 0; stroke: #000000; stroke-width: 3"/>
   </g>
   <g id="line2d_2">
    <path d="M 27.163636 216.637219 
L 28.275817 220.222237 
L 28.831907 221.528731 
L 29.109952 221.972296 
L 29.387997 222.047671 
L 29.944087 221.601651 
L 30.500177 220.679582 
L 31.056267 219.239717 
L 32.168448 215.912202 
L 32.724538 214.513762 
L 33.558673 211.635081 
L 34.948898 206.146773 
L 35.504989 206.030497 
L 36.061079 206.238719 
L 37.173259 206.996065 
L 38.563484 208.245506 
L 43.012206 212.567235 
L 43.846341 213.027823 
L 44.402431 213.172471 
L 44.958521 213.136458 
L 45.514611 212.874377 
L 46.070701 212.326242 
L 46.626792 211.425559 
L 47.182882 210.093495 
L 47.738972 208.223953 
L 48.295062 205.705831 
L 48.851152 202.395888 
L 49.407242 198.150357 
L 50.241378 189.579044 
L 51.075513 177.810595 
L 52.187693 162.161967 
L 53.021828 163.718168 
L 53.577918 163.941304 
L 54.412054 164.586844 
L 55.246189 165.553771 
L 56.358369 167.233735 
L 58.304685 170.736213 
L 60.251 174.112973 
L 61.363181 175.646381 
L 62.197316 176.515176 
L 63.031451 177.10464 
L 63.865586 177.401017 
L 64.699721 177.414536 
L 65.533857 177.174091 
L 66.367992 176.736118 
L 66.646037 176.846982 
L 67.202127 178.198048 
L 68.036262 181.063068 
L 68.870398 184.952402 
L 69.148443 187.347334 
L 70.260623 203.038019 
L 70.816713 206.971175 
L 71.650848 210.850805 
L 72.484984 213.73652 
L 73.041074 215.078145 
L 73.597164 215.9673 
L 74.153254 216.400029 
L 74.431299 216.445531 
L 74.709344 216.377343 
L 75.265434 215.895882 
L 75.821524 214.945895 
L 76.377615 213.549457 
L 77.21175 210.628028 
L 78.045885 206.743235 
L 79.158065 200.486113 
L 79.714155 201.543473 
L 80.270246 202.132997 
L 80.826336 202.268168 
L 81.382426 201.988074 
L 81.938516 201.321816 
L 82.494606 200.289001 
L 83.328741 198.146817 
L 84.162877 195.386546 
L 85.275057 190.922124 
L 87.499418 180.829585 
L 87.777463 183.474402 
L 88.611598 199.95772 
L 89.445733 210.941762 
L 90.001823 215.796736 
L 90.557913 219.032591 
L 91.114004 220.89926 
L 91.392049 221.387003 
L 91.670094 221.618877 
L 91.948139 221.605895 
L 92.226184 221.379672 
L 92.782274 220.356466 
L 93.338364 218.696494 
L 94.172499 215.254562 
L 95.28468 209.412025 
L 96.95295 199.091106 
L 98.621221 188.307633 
L 99.177311 186.489173 
L 100.567536 186.429806 
L 101.401671 186.423536 
L 102.235807 185.936615 
L 105.016257 184.178617 
L 105.294302 184.169152 
L 105.850393 184.729243 
L 106.406483 185.736845 
L 106.962573 187.194317 
L 107.796708 190.193423 
L 108.630843 194.165083 
L 109.464978 199.082643 
L 110.577159 207.115727 
L 112.245429 221.370612 
L 113.9137 237.393151 
L 115.303925 251.814619 
L 116.13806 241.27941 
L 116.972195 232.986104 
L 117.806331 226.575954 
L 118.640466 221.703754 
L 119.474601 218.089744 
L 120.308736 215.445022 
L 121.142872 213.536511 
L 121.977007 212.152686 
L 122.811142 210.844499 
L 124.201367 208.240535 
L 124.479413 207.764343 
L 125.869638 209.04876 
L 126.703773 209.389864 
L 126.981818 209.427045 
L 127.259863 209.240305 
L 128.093998 207.657508 
L 129.206179 205.011952 
L 130.318359 201.761196 
L 131.430539 197.859607 
L 132.54272 193.236398 
L 133.932945 186.309215 
L 135.045125 180.68632 
L 135.32317 181.220209 
L 137.547531 201.913163 
L 139.215801 215.457146 
L 140.049937 222.156581 
L 140.327982 225.04338 
L 141.162117 229.544638 
L 141.996252 232.503833 
L 142.552342 233.796832 
L 143.108433 234.625811 
L 143.664523 235.053032 
L 144.220613 235.135 
L 144.776703 234.918791 
L 145.332793 234.418781 
L 146.166928 233.240937 
L 147.001064 231.613854 
L 148.669334 227.62287 
L 149.503469 224.70609 
L 150.337604 221.06086 
L 151.449785 214.951807 
L 152.561965 207.220274 
L 153.674145 197.517823 
L 154.786326 185.381412 
L 155.898506 170.912117 
L 157.288731 172.808827 
L 160.625272 189.969787 
L 161.181362 190.965015 
L 163.961813 209.026134 
L 164.795948 212.287559 
L 165.352038 213.568876 
L 165.630084 213.913497 
L 165.908129 214.035234 
L 166.186174 213.947412 
L 166.464219 213.646088 
L 166.742264 213.115251 
L 167.298354 211.324554 
L 167.854444 208.602239 
L 168.410534 204.946745 
L 168.966624 200.618316 
L 169.24467 200.120273 
L 169.80076 201.371907 
L 170.35685 202.223941 
L 170.91294 202.738661 
L 171.46903 202.976078 
L 172.02512 203.084677 
L 172.303165 203.217369 
L 172.58121 203.177899 
L 172.859256 202.978188 
L 173.415346 202.146288 
L 173.971436 200.822986 
L 174.805571 198.052844 
L 175.917751 193.321823 
L 178.420157 201.673291 
L 179.254292 203.598909 
L 180.088427 205.016756 
L 180.922563 205.924699 
L 181.478653 206.253298 
L 182.034743 206.387087 
L 182.590833 206.335207 
L 183.424968 205.982396 
L 185.093239 204.816402 
L 185.649329 204.328813 
L 186.483464 203.308718 
L 188.98587 199.917677 
L 189.54196 199.624781 
L 189.820005 200.233414 
L 190.932185 212.766481 
L 191.766321 216.943204 
L 192.322411 218.833691 
L 192.878501 220.086756 
L 193.434591 220.827639 
L 193.990681 221.159827 
L 194.546771 221.186887 
L 195.102861 220.958745 
L 195.936997 220.277013 
L 197.049177 218.916816 
L 198.439402 216.776729 
L 200.385718 213.293969 
L 202.610079 208.863879 
L 203.444214 207.115656 
L 203.722259 206.882173 
L 204.834439 206.650812 
L 207.0588 206.07017 
L 207.61489 205.407428 
L 208.17098 204.362764 
L 209.005115 202.1306 
L 209.561205 200.597121 
L 210.117296 199.835876 
L 210.951431 198.216912 
L 212.063611 195.491974 
L 215.122107 187.706391 
L 215.956242 186.242291 
L 216.234287 186.206218 
L 217.068422 187.432544 
L 218.180603 189.526282 
L 219.292783 192.072275 
L 221.517144 197.4833 
L 222.907369 200.503637 
L 224.019549 203.316872 
L 225.68782 207.268803 
L 226.521955 210.002837 
L 226.8 211.165004 
L 228.46827 222.294017 
L 230.136541 231.84599 
L 230.692631 234.372516 
L 231.248721 234.938401 
L 231.804811 235.10918 
L 232.360901 234.878391 
L 232.916992 234.238609 
L 233.473082 233.182119 
L 234.029172 231.705645 
L 234.863307 228.683508 
L 235.975487 223.33415 
L 236.253533 223.502128 
L 237.087668 225.807259 
L 237.365713 226.305314 
L 238.199848 226.878709 
L 238.755938 226.976174 
L 239.312028 226.769394 
L 239.868119 226.176926 
L 240.424209 225.107705 
L 240.980299 223.468022 
L 241.536389 221.158861 
L 242.092479 218.05503 
L 242.370524 216.17389 
L 242.648569 215.208834 
L 243.204659 215.774397 
L 243.76075 216.708387 
L 245.98511 221.718488 
L 247.09729 225.091946 
L 248.487516 230.130609 
L 249.877741 236.011019 
L 251.546012 244.021204 
L 252.380147 248.322715 
L 252.936237 243.717745 
L 253.770372 237.240385 
L 254.604507 232.65456 
L 255.438643 229.5184 
L 255.716688 228.73267 
L 257.663003 218.053791 
L 258.775184 213.4014 
L 259.331274 212.386431 
L 260.165409 211.350625 
L 260.999544 210.602732 
L 263.223905 209.096336 
L 264.05804 208.990037 
L 264.892175 209.154272 
L 266.004356 209.675477 
L 267.672626 210.501762 
L 268.228716 210.594077 
L 268.784806 210.503586 
L 269.340896 210.175236 
L 269.896987 209.560345 
L 270.453077 208.615793 
L 271.009167 207.311349 
L 271.843302 204.653538 
L 272.677437 201.175475 
L 273.789618 195.494215 
L 274.901798 189.449893 
L 275.179843 189.564739 
L 278.516384 193.144917 
L 279.072474 193.656657 
L 279.906609 194.670005 
L 280.740744 195.334904 
L 281.57488 195.679514 
L 282.409015 195.736448 
L 283.24315 195.534937 
L 284.077285 195.102733 
L 285.189466 194.206163 
L 286.301646 192.98873 
L 287.413826 191.412835 
L 288.247962 190.249237 
L 289.082097 189.441382 
L 289.638187 189.152586 
L 290.194277 189.080656 
L 290.750367 189.225757 
L 291.306457 189.588962 
L 291.862547 190.169701 
L 292.696683 191.438513 
L 293.530818 193.159127 
L 294.642998 196.056142 
L 296.589314 201.538037 
L 297.145404 202.145597 
L 297.701494 202.473326 
L 298.257584 202.513738 
L 298.535629 202.42699 
L 298.813674 201.505922 
L 299.925855 191.555004 
L 300.75999 186.449881 
L 301.31608 184.042242 
L 301.87217 182.35515 
L 302.42826 181.272995 
L 302.98435 180.737818 
L 303.540441 180.676974 
L 304.096531 181.022537 
L 304.652621 181.726943 
L 305.486756 183.329087 
L 306.598936 186.244747 
L 307.989162 190.666945 
L 309.657432 196.097448 
L 311.603748 199.082321 
L 312.437883 200.038448 
L 313.272018 200.664593 
L 313.828108 200.988281 
L 314.106153 201.191234 
L 314.384199 201.163828 
L 314.662244 201.336037 
L 314.940289 201.751969 
L 315.496379 203.216832 
L 316.052469 205.415128 
L 316.886604 209.705744 
L 318.27683 218.37935 
L 320.50119 232.233359 
L 321.61337 237.736974 
L 322.447506 240.896702 
L 322.725551 241.358064 
L 323.281641 239.89959 
L 323.837731 237.937793 
L 324.671866 234.113618 
L 325.784047 227.585737 
L 326.340137 223.872355 
L 327.730362 223.494963 
L 328.842542 223.448507 
L 329.676678 223.64947 
L 330.510813 224.107721 
L 331.066903 224.5744 
L 331.622993 224.585653 
L 332.179083 224.370374 
L 332.735173 223.914769 
L 333.291264 223.206811 
L 334.125399 221.651325 
L 334.681489 220.271124 
L 335.237579 218.16847 
L 336.349759 212.673427 
L 337.46194 206.055459 
L 338.852165 196.128526 
L 340.24239 184.291317 
L 340.520436 181.691561 
L 340.798481 183.281809 
L 341.910661 201.006484 
L 343.022841 215.11951 
L 344.135022 226.121732 
L 345.247202 234.475942 
L 346.081337 239.25709 
L 346.915472 242.970174 
L 347.749607 245.780263 
L 348.305698 247.229402 
L 348.583743 247.475628 
L 349.973968 246.911615 
L 352.198329 246.278007 
L 356.369005 245.332395 
L 357.481185 245.319711 
L 358.31532 245.505772 
L 359.149456 245.945128 
L 359.983591 246.692402 
L 361.095771 247.992578 
L 361.373816 247.762171 
L 361.929906 245.457922 
L 362.207951 245.289718 
L 363.320132 246.32767 
L 363.876222 246.64616 
L 364.432312 246.741659 
L 364.988402 246.570832 
L 365.544492 246.079858 
L 366.934718 244.115414 
L 368.046898 241.869065 
L 369.437123 238.436205 
L 373.329754 228.375067 
L 374.441935 226.157912 
L 375.27607 224.820435 
L 375.554115 224.838138 
L 378.612611 246.574301 
L 379.724791 253.284513 
L 380.558926 257.340096 
L 380.836971 257.748649 
L 381.393062 253.302692 
L 382.783287 239.736989 
L 383.339377 235.126775 
L 385.007648 230.949193 
L 386.397873 227.147644 
L 389.178324 219.246404 
L 390.012459 217.396294 
L 390.846594 216.070476 
L 391.402684 215.572624 
L 392.236819 215.245955 
L 392.79291 214.779646 
L 393.070955 214.717955 
L 393.349 214.805335 
L 393.627045 215.045541 
L 394.183135 216.025474 
L 394.739225 217.777297 
L 395.295315 220.411219 
L 395.851405 224.086979 
L 396.407496 228.315427 
L 397.519676 229.673526 
L 398.353811 230.369647 
L 398.909901 230.63472 
L 399.465991 230.709011 
L 400.022082 230.556853 
L 400.578172 230.158039 
L 403.080577 224.233009 
L 404.192758 222.281404 
L 405.304938 217.851636 
L 406.139073 215.27304 
L 406.973208 213.329862 
L 407.807344 212.020781 
L 408.363434 211.489944 
L 408.919524 211.236124 
L 409.475614 211.229914 
L 410.031704 211.49364 
L 410.587794 212.011281 
L 410.865839 212.35651 
L 412.256065 208.446755 
L 413.368245 205.876348 
L 414.20238 204.704345 
L 415.592606 203.758303 
L 417.538921 202.818269 
L 418.095011 202.481361 
L 418.651102 202.151152 
L 419.207192 202.150949 
L 421.153507 202.638585 
L 421.431552 202.56141 
L 421.709597 202.110883 
L 422.543733 199.693135 
L 423.377868 196.505918 
L 424.768093 190.311082 
L 425.324183 188.691558 
L 425.880273 187.583224 
L 426.436364 186.909289 
L 426.436364 186.909289 
" clip-path="url(#peb233e57cf)" style="fill: none; stroke: #ff00ff; stroke-width: 3; stroke-linecap: square"/>
   </g>
   <g id="patch_3">
    <path d="M 7.2 331.2 
L 7.2 7.2 
" style="fill: none; stroke: #000000; stroke-width: 0.8; stroke-linejoin: miter; stroke-linecap: square"/>
   </g>
   <g id="patch_4">
    <path d="M 446.4 331.2 
L 446.4 7.2 
" style="fill: none; stroke: #000000; stroke-width: 0.8; stroke-linejoin: miter; stroke-linecap: square"/>
   </g>
   <g id="patch_5">
    <path d="M 7.2 331.2 
L 446.4 331.2 
" style="fill: none; stroke: #000000; stroke-width: 0.8; stroke-linejoin: miter; stroke-linecap: square"/>
   </g>
   <g id="patch_6">
    <path d="M 7.2 7.2 
L 446.4 7.2 
" style="fill: none; stroke: #000000; stroke-width: 0.8; stroke-linejoin: miter; stroke-linecap: square"/>
   </g>
  </g>
 </g>
 <defs>
  <clipPath id="peb233e57cf">
   <rect x="7.2" y="7.2" width="439.2" height="324"/>
  </clipPath>
 </defs>
</svg>
