<?xml version="1.0" encoding="utf-8" standalone="no"?>
<!DOCTYPE svg PUBLIC "-//W3C//DTD SVG 1.1//EN"
  "http://www.w3.org/Graphics/SVG/1.1/DTD/svg11.dtd">
<svg xmlns:xlink="http://www.w3.org/1999/xlink" width="453.6pt" height="338.4pt" viewBox="0 0 453.6 338.4" xmlns="http://www.w3.org/2000/svg" version="1.1">
 <metadata>
  <rdf:RDF xmlns:dc="http://purl.org/dc/elements/1.1/" xmlns:cc="http://creativecommons.org/ns#" xmlns:rdf="http://www.w3.org/1999/02/22-rdf-syntax-ns#">
   <cc:Work>
    <dc:type rdf:resource="http://purl.org/dc/dcmitype/StillImage"/>
    <dc:date>2025-05-15T00:31:08.548990</dc:date>
    <dc:format>image/svg+xml</dc:format>
    <dc:creator>
     <cc:Agent>
      <dc:title>Matplotlib v3.10.1, https://matplotlib.org/</dc:title>
     </cc:Agent>
    </dc:creator>
   </cc:Work>
  </rdf:RDF>
 </metadata>
 <defs>
  <style type="text/css">*{stroke-linejoin: round; stroke-linecap: butt}</style>
 </defs>
 <g id="figure_1">
  <g id="patch_1">
   <path d="M 0 338.4 
L 453.6 338.4 
L 453.6 0 
L 0 0 
z
" style="fill: #ffffff"/>
  </g>
  <g id="axes_1">
   <g id="patch_2">
    <path d="M 7.2 331.2 
L 446.4 331.2 
L 446.4 7.2 
L 7.2 7.2 
z
" style="fill: #ffffff"/>
   </g>
   <g id="matplotlib.axis_1"/>
   <g id="matplotlib.axis_2"/>
   <g id="line2d_1">
    <path d="M 27.163636 247.534178 
L 28.494545 251.269706 
L 31.156364 258.975564 
L 32.487273 262.136313 
L 33.818182 264.714952 
L 34.882909 266.346317 
L 35.681455 267.262987 
L 36.48 267.844916 
L 37.012364 268.012026 
L 37.544727 267.981394 
L 38.077091 267.740939 
L 38.609455 267.285319 
L 39.408 266.204682 
L 40.206545 264.684413 
L 41.271273 262.125006 
L 43.400727 256.834844 
L 43.933091 255.964408 
L 44.465455 255.461486 
L 44.997818 255.397415 
L 45.530182 255.812581 
L 46.062545 256.708118 
L 46.594909 258.043444 
L 47.393455 260.690404 
L 50.055273 270.485411 
L 50.853818 272.576851 
L 51.652364 274.126526 
L 52.450909 275.233471 
L 53.515636 276.259319 
L 55.112727 277.37869 
L 59.904 280.347334 
L 61.501091 281.118614 
L 62.832 281.5576 
L 64.162909 281.780639 
L 65.76 281.789358 
L 67.357091 281.565228 
L 68.688 281.142144 
L 69.486545 280.700305 
L 70.285091 280.038209 
L 71.083636 279.091274 
L 71.882182 277.820371 
L 72.946909 275.649015 
L 75.874909 269.185803 
L 76.673455 268.201892 
L 77.205818 267.900793 
L 77.738182 267.907052 
L 78.270545 268.217724 
L 78.802909 268.809094 
L 79.601455 270.125156 
L 80.932364 272.943364 
L 82.263273 275.666304 
L 83.328 277.307271 
L 84.126545 278.158382 
L 84.925091 278.728513 
L 85.989818 279.180421 
L 87.320727 279.472052 
L 89.184 279.624976 
L 91.047273 279.522118 
L 93.709091 279.087157 
L 96.637091 278.444729 
L 98.500364 277.794427 
L 100.097455 277.028912 
L 101.162182 276.308648 
L 101.960727 275.495389 
L 102.759273 274.251483 
L 103.557818 272.364938 
L 104.356364 269.654837 
L 105.154909 266.048514 
L 106.219636 260.054151 
L 108.349091 247.555469 
L 109.147636 244.365937 
L 109.68 243.085614 
L 109.946182 242.731877 
L 110.212364 242.576689 
L 110.478545 242.621773 
L 110.744727 242.865792 
L 111.277091 243.930058 
L 111.809455 245.700894 
L 112.608 249.441189 
L 113.938909 257.381551 
L 115.802182 268.414569 
L 116.866909 273.330177 
L 117.931636 277.023781 
L 118.996364 279.73966 
L 120.061091 281.836389 
L 121.392 284.002636 
L 122.722909 285.812792 
L 123.787636 286.897627 
L 124.586182 287.402074 
L 125.384727 287.583439 
L 125.917091 287.512992 
L 126.715636 287.128746 
L 127.514182 286.453732 
L 128.845091 284.912896 
L 130.974545 282.374632 
L 132.305455 281.145925 
L 133.902545 279.740637 
L 134.701091 278.769801 
L 135.499636 277.391001 
L 136.298182 275.430071 
L 137.096727 272.752896 
L 137.895273 269.308267 
L 138.96 263.66029 
L 141.621818 248.471551 
L 142.420364 245.237062 
L 142.952727 243.757581 
L 143.485091 242.900668 
L 143.751273 242.719421 
L 144.017455 242.707018 
L 144.283636 242.86423 
L 144.816 243.682475 
L 145.348364 245.146888 
L 146.146909 248.430943 
L 147.211636 254.373726 
L 150.672 275.419954 
L 151.736727 279.856116 
L 152.535273 282.372479 
L 153.333818 284.306274 
L 154.132364 285.771618 
L 154.930909 286.857728 
L 155.729455 287.617513 
L 156.528 288.07325 
L 157.326545 288.231641 
L 158.125091 288.10064 
L 158.923636 287.699659 
L 159.722182 287.064855 
L 161.053091 285.639281 
L 164.513455 281.64616 
L 166.110545 279.890458 
L 166.909091 278.759026 
L 167.707636 277.260295 
L 168.506182 275.240169 
L 169.304727 272.57391 
L 170.103273 269.195415 
L 171.168 263.629167 
L 173.031273 252.125486 
L 174.362182 244.441424 
L 175.160727 240.938583 
L 175.693091 239.303672 
L 176.225455 238.337313 
L 176.491636 238.126822 
L 176.757818 238.10643 
L 177.024 238.280053 
L 177.290182 238.64956 
L 177.822545 239.973198 
L 178.354909 242.049272 
L 179.153455 246.428049 
L 180.218182 254.052916 
L 183.146182 276.677944 
L 184.210909 282.784746 
L 185.009455 286.308658 
L 185.808 289.029314 
L 186.606545 291.091984 
L 187.405091 292.637268 
L 188.203636 293.774993 
L 189.002182 294.580019 
L 189.800727 295.098982 
L 190.599273 295.358673 
L 191.397818 295.371651 
L 192.196364 295.138721 
L 192.994909 294.65435 
L 193.793455 293.916308 
L 194.858182 292.56286 
L 196.189091 290.423605 
L 199.915636 284.15414 
L 200.980364 282.276117 
L 201.778909 280.465606 
L 202.577455 278.034386 
L 203.376 274.76234 
L 204.174545 270.535793 
L 205.239273 263.539999 
L 208.167273 243.114986 
L 208.965818 239.645317 
L 209.498182 238.280211 
L 209.764364 237.912249 
L 210.030545 237.762301 
L 210.296727 237.833562 
L 210.562909 238.126857 
L 211.095273 239.369964 
L 211.627636 241.447267 
L 212.426182 245.93308 
L 213.490909 253.761319 
L 216.152727 274.400452 
L 217.217455 280.478903 
L 218.016 283.953972 
L 218.814545 286.639446 
L 219.613091 288.707903 
L 220.411636 290.304576 
L 221.210182 291.514748 
L 222.008727 292.364979 
L 222.807273 292.84556 
L 223.339636 292.951431 
L 223.872 292.882733 
L 224.404364 292.642142 
L 225.202909 291.979164 
L 226.001455 291.003347 
L 227.332364 288.905793 
L 229.994182 284.545566 
L 231.325091 282.904776 
L 232.922182 281.376619 
L 233.986909 280.277839 
L 234.785455 279.126896 
L 235.584 277.448077 
L 236.382545 275.019539 
L 237.181091 271.683245 
L 237.979636 267.410714 
L 239.310545 258.700957 
L 240.907636 248.022773 
L 241.706182 243.860926 
L 242.238545 241.871321 
L 242.770909 240.641153 
L 243.037091 240.335015 
L 243.303273 240.242731 
L 243.569455 240.367029 
L 243.835636 240.707955 
L 244.368 242.026896 
L 244.900364 244.148379 
L 245.698909 248.630212 
L 246.763636 256.32339 
L 249.159273 274.659789 
L 250.224 281.011115 
L 251.022545 284.726949 
L 251.821091 287.631624 
L 252.619636 289.873148 
L 253.418182 291.596591 
L 254.216727 292.907514 
L 255.015273 293.865625 
L 255.813818 294.498251 
L 256.612364 294.817476 
L 257.410909 294.832103 
L 258.209455 294.552813 
L 259.008 293.994688 
L 259.806545 293.182034 
L 260.871273 291.775902 
L 265.130182 285.648667 
L 267.792 282.544627 
L 268.590545 281.116863 
L 269.389091 279.144228 
L 270.187636 276.482745 
L 270.986182 273.080268 
L 272.050909 267.557463 
L 274.446545 254.596927 
L 275.245091 251.559757 
L 275.777455 250.192141 
L 276.309818 249.418554 
L 276.576 249.264498 
L 276.842182 249.267838 
L 277.108364 249.428364 
L 277.640727 250.213669 
L 278.173091 251.59347 
L 278.971636 254.674219 
L 279.770182 258.762295 
L 281.101091 266.953733 
L 282.964364 278.353709 
L 284.029091 283.404413 
L 284.827636 286.21036 
L 285.626182 288.210332 
L 286.424727 289.534705 
L 287.223273 290.343604 
L 288.021818 290.777083 
L 288.820364 290.928401 
L 289.618909 290.842871 
L 290.417455 290.535193 
L 291.216 290.01423 
L 292.280727 289.034831 
L 295.474909 285.765965 
L 296.273455 285.314702 
L 297.072 285.092916 
L 298.136727 285.072151 
L 299.467636 285.107203 
L 300.266182 284.871312 
L 300.798545 284.495026 
L 301.330909 283.884522 
L 301.863273 282.997125 
L 302.661818 281.08012 
L 303.460364 278.420831 
L 304.525091 273.789358 
L 305.856 266.768703 
L 307.719273 257.000645 
L 308.517818 253.844079 
L 309.050182 252.351032 
L 309.582545 251.44957 
L 309.848727 251.241984 
L 310.114909 251.204791 
L 310.381091 251.34209 
L 310.647273 251.656106 
L 311.179636 252.813535 
L 311.712 254.655122 
L 312.510545 258.572827 
L 313.575273 265.438016 
L 316.503273 285.883388 
L 317.568 291.357404 
L 318.366545 294.472759 
L 319.165091 296.831982 
L 319.963636 298.575281 
L 320.762182 299.844815 
L 321.560727 300.756947 
L 322.359273 301.393912 
L 323.157818 301.807228 
L 323.956364 302.023363 
L 324.754909 302.048155 
L 325.553455 301.869718 
L 326.352 301.463448 
L 327.150545 300.802111 
L 327.949091 299.869716 
L 329.013818 298.223144 
L 330.344727 295.672629 
L 333.538909 288.83711 
L 334.603636 286.193234 
L 335.668364 282.852952 
L 336.466909 279.665358 
L 337.531636 274.375004 
L 338.862545 266.404568 
L 340.725818 255.075718 
L 341.524364 251.269886 
L 342.056727 249.388568 
L 342.589091 248.154858 
L 342.855273 247.807757 
L 343.121455 247.651695 
L 343.387636 247.692737 
L 343.653818 247.934812 
L 344.186182 249.026088 
L 344.718545 250.908209 
L 345.517091 255.073436 
L 346.581818 262.517122 
L 349.509818 284.433454 
L 350.574545 290.099574 
L 351.373091 293.261093 
L 352.171636 295.594976 
L 352.970182 297.231563 
L 353.768727 298.291475 
L 354.567273 298.873643 
L 355.099636 299.03754 
L 355.898182 299.002852 
L 356.696727 298.694034 
L 357.761455 297.962661 
L 358.826182 296.959447 
L 360.157091 295.398824 
L 362.020364 292.804838 
L 363.883636 290.253305 
L 365.214545 288.766019 
L 367.077818 286.802421 
L 367.876364 285.593977 
L 368.674909 283.830883 
L 369.473455 281.256944 
L 370.272 277.668057 
L 371.070545 272.98557 
L 372.135273 265.264991 
L 374.530909 246.948456 
L 375.329455 242.824522 
L 375.861818 241.144263 
L 376.128 240.668681 
L 376.394182 240.44806 
L 376.660364 240.487088 
L 376.926545 240.786659 
L 377.458909 242.15274 
L 377.991273 244.480873 
L 378.789818 249.50397 
L 379.854545 258.119041 
L 381.984 275.862534 
L 383.048727 282.537108 
L 383.847273 286.19357 
L 384.645818 288.790463 
L 385.444364 290.525814 
L 386.242909 291.619339 
L 387.041455 292.259483 
L 387.84 292.579014 
L 388.638545 292.654231 
L 389.437091 292.518335 
L 390.235636 292.181419 
L 391.300364 291.434511 
L 392.631273 290.119493 
L 395.026909 287.619653 
L 396.091636 286.864048 
L 397.156364 286.378777 
L 399.019636 285.612889 
L 399.818182 284.989562 
L 400.616727 283.985819 
L 401.415273 282.46033 
L 402.213818 280.274023 
L 403.012364 277.303655 
L 403.810909 273.475675 
L 404.875636 267.105134 
L 408.069818 246.482649 
L 408.602182 244.377414 
L 409.134545 243.017571 
L 409.400727 242.641024 
L 409.666909 242.474397 
L 409.933091 242.52028 
L 410.199273 242.778761 
L 410.731636 243.92225 
L 411.264 245.861003 
L 412.062545 250.091127 
L 413.127273 257.628458 
L 416.587636 284.6186 
L 417.386182 289.043452 
L 418.184727 292.413618 
L 418.983273 294.808742 
L 419.781818 296.39843 
L 420.580364 297.383157 
L 421.378909 297.943429 
L 422.177455 298.209932 
L 422.976 298.259134 
L 424.040727 298.048962 
L 425.105455 297.574845 
L 426.436364 296.750418 
L 426.436364 296.750418 
" clip-path="url(#pf6d4dbb2c4)" style="fill: none; stroke: #ffa500; stroke-width: 3; stroke-linecap: square"/>
   </g>
   <g id="line2d_2">
    <path d="M 27.163636 186.865293 
L 29.293091 188.280698 
L 30.091636 188.582753 
L 30.890182 188.677241 
L 31.688727 188.560861 
L 32.753455 188.138904 
L 34.616727 187.058271 
L 38.609455 184.606107 
L 39.674182 183.619796 
L 41.005091 182.015722 
L 43.666909 178.533725 
L 44.465455 177.866586 
L 45.264 177.541812 
L 45.796364 177.533824 
L 46.328727 177.690435 
L 47.127273 178.205721 
L 47.925818 178.996376 
L 49.256727 180.710545 
L 55.645091 189.652413 
L 56.976 191.010795 
L 58.040727 191.750652 
L 58.839273 192.05585 
L 59.637818 192.140243 
L 60.436364 192.024732 
L 61.501091 191.635316 
L 65.76 189.708093 
L 69.752727 188.533139 
L 70.817455 187.843195 
L 71.882182 186.848395 
L 73.213091 185.238519 
L 75.342545 182.561205 
L 76.141091 181.828081 
L 76.939636 181.371653 
L 77.738182 181.242641 
L 78.270545 181.350787 
L 79.069091 181.804257 
L 79.867636 182.58775 
L 80.932364 184.074398 
L 82.263273 186.445865 
L 85.723636 193.018206 
L 86.788364 194.555416 
L 87.853091 195.674787 
L 88.651636 196.207146 
L 89.450182 196.464802 
L 90.248727 196.449756 
L 91.047273 196.176589 
L 91.845818 195.673497 
L 92.910545 194.717944 
L 94.507636 192.925808 
L 97.169455 189.901625 
L 98.766545 188.420682 
L 100.363636 187.27654 
L 103.824 185.075913 
L 104.888727 183.95742 
L 105.953455 182.421703 
L 107.284364 179.988903 
L 108.881455 177.027203 
L 109.68 175.957455 
L 110.212364 175.520181 
L 110.744727 175.346558 
L 111.277091 175.454801 
L 111.809455 175.845025 
L 112.341818 176.501243 
L 113.140364 177.919308 
L 114.205091 180.420524 
L 115.802182 184.874429 
L 118.197818 191.582858 
L 119.528727 194.653451 
L 120.593455 196.554321 
L 121.392 197.620979 
L 122.190545 198.376496 
L 122.989091 198.825112 
L 123.787636 198.97276 
L 124.586182 198.827991 
L 125.384727 198.407176 
L 126.183273 197.739388 
L 127.248 196.543805 
L 129.111273 194.010742 
L 131.240727 191.205249 
L 133.104 189.177762 
L 136.032 186.161532 
L 137.096727 184.706064 
L 138.161455 182.780412 
L 139.226182 180.231706 
L 140.557091 176.249082 
L 142.154182 171.444035 
L 142.952727 169.758263 
L 143.485091 169.109427 
L 144.017455 168.908109 
L 144.283636 168.982846 
L 144.816 169.478741 
L 145.348364 170.405651 
L 146.146909 172.464107 
L 147.211636 176.016269 
L 150.139636 186.304993 
L 151.470545 190.226477 
L 152.535273 192.853177 
L 153.6 194.887406 
L 154.398545 195.945136 
L 155.197091 196.56561 
L 155.729455 196.735572 
L 156.261818 196.719456 
L 156.794182 196.530726 
L 157.592727 195.961885 
L 158.391273 195.109212 
L 159.456 193.646282 
L 161.319273 190.591104 
L 163.714909 186.691143 
L 165.045818 184.959015 
L 166.110545 183.887941 
L 167.441455 182.883819 
L 169.570909 181.446688 
L 170.369455 180.631989 
L 171.168 179.447388 
L 171.966545 177.762311 
L 172.765091 175.521331 
L 174.096 170.840423 
L 175.426909 166.240837 
L 176.225455 164.362087 
L 176.757818 163.722003 
L 177.024 163.614119 
L 177.290182 163.653832 
L 177.556364 163.842052 
L 178.088727 164.652608 
L 178.621091 165.995962 
L 179.419636 168.814605 
L 180.750545 174.715594 
L 182.613818 183.008337 
L 183.944727 187.994574 
L 185.275636 192.058817 
L 186.340364 194.602335 
L 187.138909 196.059577 
L 187.937455 197.119748 
L 188.736 197.799298 
L 189.534545 198.137371 
L 190.333091 198.183605 
L 191.131636 197.981699 
L 191.930182 197.559725 
L 192.728727 196.928533 
L 193.793455 195.763955 
L 194.858182 194.248945 
L 196.455273 191.52235 
L 198.318545 188.379206 
L 199.383273 186.940504 
L 200.448 185.827023 
L 203.376 183.139351 
L 204.174545 181.88384 
L 204.973091 180.1066 
L 205.771636 177.7205 
L 206.836364 173.700218 
L 208.699636 166.433921 
L 209.232 164.993674 
L 209.764364 164.090772 
L 210.030545 163.870142 
L 210.296727 163.812751 
L 210.562909 163.921284 
L 210.829091 164.194723 
L 211.361455 165.215743 
L 211.893818 166.803094 
L 212.692364 169.994211 
L 216.418909 186.692188 
L 217.749818 191.01751 
L 218.814545 193.808572 
L 219.879273 195.996716 
L 220.677818 197.212761 
L 221.476364 198.052855 
L 222.274909 198.528534 
L 223.073455 198.669572 
L 223.872 198.513049 
L 224.670545 198.093278 
L 225.469091 197.437648 
L 226.533818 196.235183 
L 227.864727 194.294398 
L 231.857455 188.002518 
L 232.922182 186.862282 
L 234.253091 185.778472 
L 235.850182 184.462874 
L 236.648727 183.485718 
L 237.447273 182.076968 
L 238.245818 180.090492 
L 239.044364 177.456884 
L 240.109091 173.085485 
L 241.972364 165.260284 
L 242.504727 163.686416 
L 243.037091 162.667994 
L 243.303273 162.398663 
L 243.569455 162.300436 
L 243.835636 162.377367 
L 244.101818 162.630353 
L 244.634182 163.650777 
L 245.166545 165.303191 
L 245.965091 168.738235 
L 247.296 175.881849 
L 248.893091 184.382616 
L 249.957818 189.06577 
L 251.022545 192.779731 
L 252.087273 195.596881 
L 252.885818 197.193265 
L 253.684364 198.400522 
L 254.482909 199.259182 
L 255.281455 199.802478 
L 256.08 200.056307 
L 256.878545 200.038926 
L 257.677091 199.762125 
L 258.475636 199.236385 
L 259.540364 198.178137 
L 260.605091 196.781087 
L 262.734545 193.4705 
L 264.331636 191.113859 
L 265.662545 189.5025 
L 267.525818 187.677841 
L 268.856727 186.291405 
L 269.655273 185.194918 
L 270.453818 183.73227 
L 271.252364 181.764159 
L 272.050909 179.193147 
L 273.115636 174.852103 
L 275.511273 164.288017 
L 276.043636 162.701123 
L 276.576 161.687283 
L 276.842182 161.424044 
L 277.108364 161.332944 
L 277.374545 161.417074 
L 277.640727 161.676257 
L 278.173091 162.703265 
L 278.705455 164.350342 
L 279.504 167.748043 
L 280.834909 174.747906 
L 282.432 182.978166 
L 283.496727 187.45931 
L 284.561455 190.966694 
L 285.36 192.985104 
L 286.158545 194.509867 
L 286.957091 195.564814 
L 287.755636 196.177344 
L 288.288 196.359315 
L 288.820364 196.378741 
L 289.618909 196.145875 
L 290.417455 195.65968 
L 291.482182 194.718145 
L 292.813091 193.187431 
L 294.410182 190.933556 
L 297.870545 185.766428 
L 298.935273 184.632889 
L 300 183.823238 
L 302.928 181.98557 
L 303.726545 180.928471 
L 304.525091 179.302558 
L 305.323636 177.00229 
L 306.388364 172.952224 
L 308.784 163.161097 
L 309.316364 161.785633 
L 309.848727 160.980186 
L 310.114909 160.816421 
L 310.381091 160.819985 
L 310.647273 160.99316 
L 311.179636 161.842989 
L 311.712 163.327021 
L 312.510545 166.561309 
L 313.575273 172.139772 
L 315.970909 185.287361 
L 317.035636 189.928424 
L 318.100364 193.525943 
L 318.898909 195.564147 
L 319.697455 197.086136 
L 320.496 198.14722 
L 321.294545 198.809741 
L 322.093091 199.140501 
L 322.891636 199.204222 
L 323.690182 199.055757 
L 324.754909 198.588971 
L 325.819636 197.846332 
L 326.884364 196.836512 
L 328.215273 195.242587 
L 331.675636 190.836777 
L 333.006545 189.661841 
L 335.402182 187.735751 
L 336.200727 186.66904 
L 336.999273 185.113738 
L 337.797818 182.934293 
L 338.596364 180.080055 
L 339.661091 175.382724 
L 341.790545 165.637603 
L 342.589091 163.177073 
L 343.121455 162.223838 
L 343.387636 161.983562 
L 343.653818 161.909177 
L 343.92 162.00377 
L 344.186182 162.268115 
L 344.718545 163.296386 
L 345.250909 164.951188 
L 346.049455 168.430157 
L 347.114182 174.328022 
L 349.243636 186.612869 
L 350.308364 191.440099 
L 351.106909 194.214535 
L 351.905455 196.298746 
L 352.704 197.793136 
L 353.502545 198.817246 
L 354.301091 199.481699 
L 355.099636 199.874749 
L 355.898182 200.059336 
L 356.962909 200.049276 
L 358.027636 199.791172 
L 359.092364 199.297867 
L 360.157091 198.564884 
L 361.488 197.324331 
L 363.351273 195.183518 
L 365.480727 192.795654 
L 368.142545 190.049615 
L 368.941091 188.832913 
L 369.739636 187.147756 
L 370.538182 184.852229 
L 371.336727 181.889028 
L 372.401455 177.047173 
L 374.530909 166.87504 
L 375.329455 164.120671 
L 375.861818 162.908568 
L 376.394182 162.281984 
L 376.660364 162.201963 
L 376.926545 162.280755 
L 377.192727 162.518309 
L 377.725091 163.459027 
L 378.257455 164.983263 
L 379.056 168.204822 
L 380.120727 173.705555 
L 382.516364 186.525079 
L 383.581091 190.779877 
L 384.379636 193.175098 
L 385.178182 194.970008 
L 385.976727 196.291521 
L 386.775273 197.264885 
L 387.84 198.177733 
L 388.904727 198.75321 
L 389.969455 199.025885 
L 391.034182 198.999691 
L 392.098909 198.682818 
L 393.163636 198.09377 
L 394.228364 197.256239 
L 395.559273 195.896988 
L 397.156364 193.897864 
L 400.084364 189.780205 
L 401.415273 187.642149 
L 402.48 185.426503 
L 403.278545 183.272866 
L 404.343273 179.641526 
L 406.206545 171.997988 
L 407.271273 168.04564 
L 408.069818 165.887517 
L 408.602182 164.977856 
L 409.134545 164.545831 
L 409.400727 164.515581 
L 409.666909 164.609718 
L 410.199273 165.164075 
L 410.731636 166.181497 
L 411.530182 168.47073 
L 412.594909 172.588836 
L 415.522909 184.959375 
L 416.587636 188.194119 
L 417.386182 189.990231 
L 418.184727 191.330539 
L 419.249455 192.607539 
L 420.314182 193.513671 
L 421.378909 194.164526 
L 422.443636 194.564712 
L 423.508364 194.676089 
L 424.573091 194.489466 
L 425.637818 194.062094 
L 426.436364 193.652892 
L 426.436364 193.652892 
" clip-path="url(#pf6d4dbb2c4)" style="fill: none; stroke: #ff0000; stroke-width: 3; stroke-linecap: square"/>
   </g>
   <g id="line2d_3">
    <path d="M 27.163636 124.530967 
L 27.962182 129.810719 
L 28.760727 136.734809 
L 29.825455 148.019791 
L 33.019636 183.986432 
L 34.616727 198.557501 
L 36.746182 217.714288 
L 39.408 242.619386 
L 40.206545 247.97994 
L 40.738909 250.524038 
L 41.271273 252.181925 
L 41.803636 252.975755 
L 42.069818 253.071664 
L 42.336 252.984862 
L 42.868364 252.326932 
L 43.400727 251.135435 
L 44.199273 248.621161 
L 45.264 244.398337 
L 46.861091 237.022339 
L 48.990545 227.038339 
L 50.055273 223.09929 
L 50.853818 220.93841 
L 51.652364 219.506327 
L 52.184727 218.953261 
L 52.717091 218.726846 
L 53.249455 218.851522 
L 53.781818 219.37512 
L 54.314182 220.367515 
L 54.846545 221.91353 
L 55.378909 224.099629 
L 56.177455 228.726779 
L 56.976 235.039805 
L 58.040727 245.782553 
L 62.033455 290.144246 
L 63.098182 298.45055 
L 64.162909 304.876572 
L 65.227636 309.780135 
L 66.026182 312.635298 
L 66.824727 314.801478 
L 67.357091 315.804415 
L 67.889455 316.375814 
L 68.155636 316.472727 
L 68.421818 316.428296 
L 68.688 316.230687 
L 69.220364 315.332744 
L 69.752727 313.705396 
L 70.285091 311.305575 
L 71.083636 306.267327 
L 71.882182 299.695407 
L 73.213091 286.581074 
L 74.810182 271.035537 
L 75.608727 264.979188 
L 76.141091 261.985719 
L 76.673455 259.968512 
L 77.205818 258.989925 
L 77.472 258.892633 
L 77.738182 259.049836 
L 78.004364 259.450913 
L 78.536727 260.922463 
L 79.069091 263.145031 
L 80.133818 268.960534 
L 81.464727 276.251204 
L 82.263273 279.352994 
L 82.795636 280.612954 
L 83.328 281.171443 
L 83.594182 281.1893 
L 83.860364 281.039317 
L 84.392727 280.266676 
L 84.925091 278.929462 
L 85.723636 276.058546 
L 86.788364 271.077562 
L 88.917818 259.436807 
L 90.514909 251.274784 
L 91.579636 246.937988 
L 92.378182 244.519475 
L 92.910545 243.380055 
L 93.442909 242.66684 
L 93.975273 242.420666 
L 94.241455 242.484352 
L 94.773818 243.002753 
L 95.306182 244.052298 
L 95.838545 245.620855 
L 96.637091 248.836463 
L 97.968 255.603811 
L 99.032727 260.848902 
L 99.831273 263.713841 
L 100.363636 264.775829 
L 100.629818 264.988721 
L 100.896 264.962588 
L 101.162182 264.6779 
L 101.428364 264.115353 
L 101.960727 262.082314 
L 102.493091 258.720673 
L 103.025455 253.903538 
L 103.824 243.753012 
L 104.622545 230.045685 
L 105.687273 206.936919 
L 108.349091 144.08801 
L 109.147636 131.351089 
L 109.68 125.972952 
L 109.946182 124.320643 
L 110.212364 123.380574 
L 110.478545 123.154274 
L 110.744727 123.631717 
L 111.010909 124.791327 
L 111.543273 129.016473 
L 112.075636 135.449725 
L 112.874182 148.093352 
L 115.269818 188.55562 
L 116.068364 197.432767 
L 116.600727 201.422282 
L 117.133091 203.935656 
L 117.665455 205.146837 
L 117.931636 205.336542 
L 118.197818 205.291826 
L 118.464 205.045459 
L 118.996364 204.073464 
L 119.794909 201.831308 
L 122.190545 193.656895 
L 123.521455 189.560787 
L 124.32 187.60723 
L 124.852364 186.659586 
L 125.384727 186.093817 
L 125.650909 185.980465 
L 125.917091 185.993132 
L 126.183273 186.140535 
L 126.715636 186.868058 
L 127.248 188.205715 
L 127.780364 190.169665 
L 128.578909 194.255871 
L 129.377455 199.553434 
L 130.708364 210.156284 
L 132.305455 222.723647 
L 133.104 227.294625 
L 133.636364 229.174815 
L 133.902545 229.679646 
L 134.168727 229.858544 
L 134.434909 229.686563 
L 134.701091 229.140299 
L 134.967273 228.198282 
L 135.499636 225.051978 
L 136.032 220.123141 
L 136.564364 213.334787 
L 137.362909 199.647061 
L 138.161455 182.024141 
L 139.492364 146.24831 
L 141.355636 95.674996 
L 142.154182 79.750381 
L 142.686545 72.502782 
L 143.218909 68.384992 
L 143.485091 67.559935 
L 143.751273 67.564447 
L 144.017455 68.387783 
L 144.283636 70.006525 
L 144.816 75.476446 
L 145.348364 83.558478 
L 146.146909 99.320434 
L 148.808727 156.191589 
L 149.607273 167.582119 
L 150.139636 172.977488 
L 150.672 176.711787 
L 151.204364 178.994515 
L 151.736727 180.102676 
L 152.002909 180.310727 
L 152.269091 180.33815 
L 152.801455 179.989272 
L 153.6 178.89081 
L 156.261818 174.777515 
L 158.125091 172.286341 
L 158.923636 171.540559 
L 159.456 171.312924 
L 159.988364 171.390163 
L 160.520727 171.836531 
L 161.053091 172.694401 
L 161.585455 173.978002 
L 162.384 176.657942 
L 163.448727 181.345652 
L 166.376727 195.222643 
L 166.909091 196.86505 
L 167.441455 197.840819 
L 167.707636 198.007542 
L 167.973818 197.917795 
L 168.24 197.537508 
L 168.506182 196.83186 
L 169.038545 194.305959 
L 169.570909 190.081366 
L 170.103273 183.957508 
L 170.901818 171.030453 
L 171.700364 153.916084 
L 173.031273 119.461469 
L 174.362182 85.989953 
L 175.160727 70.833285 
L 175.693091 63.933721 
L 176.225455 59.980433 
L 176.491636 59.153111 
L 176.757818 59.091577 
L 177.024 59.780625 
L 177.290182 61.193537 
L 177.822545 66.031362 
L 178.354909 73.191988 
L 179.153455 87.089783 
L 181.549091 131.997195 
L 182.347636 142.402292 
L 182.88 147.382516 
L 183.412364 150.86217 
L 183.944727 153.023699 
L 184.477091 154.120387 
L 184.743273 154.357642 
L 185.009455 154.434732 
L 185.541818 154.240015 
L 186.340364 153.491661 
L 187.671273 152.199765 
L 188.736 151.543599 
L 192.728727 149.758723 
L 193.261091 149.738656 
L 193.793455 149.915974 
L 194.325818 150.344576 
L 194.858182 151.067877 
L 195.390545 152.114635 
L 196.189091 154.312101 
L 196.987636 157.225478 
L 198.052364 162.01088 
L 200.448 173.421144 
L 200.980364 175.083266 
L 201.512727 175.928759 
L 201.778909 175.951398 
L 202.045091 175.654574 
L 202.311273 174.998672 
L 202.843636 172.458603 
L 203.376 168.062353 
L 203.908364 161.625959 
L 204.706909 148.06851 
L 205.505455 130.363127 
L 208.167273 65.417402 
L 208.699636 56.945989 
L 209.232 51.51039 
L 209.498182 50.040684 
L 209.764364 49.431937 
L 210.030545 49.686591 
L 210.296727 50.791689 
L 210.829091 55.42788 
L 211.361455 62.957539 
L 212.16 78.410838 
L 215.088 141.970337 
L 215.886545 153.161024 
L 216.418909 158.460474 
L 216.951273 162.17001 
L 217.483636 164.515546 
L 218.016 165.774191 
L 218.548364 166.235991 
L 219.080727 166.171823 
L 219.879273 165.576753 
L 221.210182 164.440195 
L 222.008727 164.029009 
L 222.807273 163.877077 
L 223.605818 163.972057 
L 224.404364 164.309734 
L 225.202909 164.91123 
L 226.001455 165.809918 
L 226.8 167.034661 
L 227.598545 168.607844 
L 228.663273 171.296369 
L 229.728 174.766771 
L 230.792727 179.121807 
L 233.720727 192.238471 
L 234.253091 193.250256 
L 234.519273 193.357797 
L 234.785455 193.145542 
L 235.051636 192.573348 
L 235.317818 191.60281 
L 235.850182 188.327546 
L 236.382545 183.086129 
L 236.914909 175.740811 
L 237.713455 160.800287 
L 238.778182 134.763152 
L 241.173818 72.598832 
L 241.972364 59.507274 
L 242.504727 54.669677 
L 242.770909 53.530064 
L 243.037091 53.260206 
L 243.303273 53.854486 
L 243.569455 55.292837 
L 244.101818 60.553084 
L 244.634182 68.620141 
L 245.432727 84.666438 
L 248.094545 143.167921 
L 248.893091 154.568686 
L 249.425455 159.72953 
L 249.957818 163.028372 
L 250.490182 164.691601 
L 250.756364 165.005366 
L 251.022545 165.031473 
L 251.288727 164.814618 
L 251.821091 163.827902 
L 252.619636 161.561176 
L 254.216727 156.924335 
L 255.015273 155.223764 
L 255.813818 153.964329 
L 256.612364 153.061111 
L 257.410909 152.469342 
L 257.943273 152.262318 
L 258.475636 152.236124 
L 259.008 152.424995 
L 259.540364 152.861777 
L 260.072727 153.571104 
L 260.871273 155.166864 
L 261.669818 157.368456 
L 262.734545 161.052448 
L 266.194909 173.911631 
L 266.727273 175.184329 
L 267.259636 175.949098 
L 267.525818 176.081209 
L 267.792 176.009149 
L 268.058182 175.701704 
L 268.324364 175.125779 
L 268.856727 173.030999 
L 269.389091 169.452977 
L 269.921455 164.152044 
L 270.453818 156.964697 
L 271.252364 142.594796 
L 272.317091 117.805245 
L 274.446545 65.250529 
L 275.245091 51.886445 
L 275.777455 46.52439 
L 276.043636 45.025961 
L 276.309818 44.337018 
L 276.576 44.456243 
L 276.842182 45.368888 
L 277.108364 47.04783 
L 277.640727 52.539363 
L 278.173091 60.506051 
L 278.971636 75.889914 
L 281.899636 137.071574 
L 282.698182 148.335032 
L 283.496727 156.091483 
L 284.029091 159.45114 
L 284.561455 161.574782 
L 285.093818 162.698454 
L 285.626182 163.073474 
L 286.158545 162.939783 
L 286.690909 162.504457 
L 290.151273 158.755226 
L 291.216 157.298529 
L 292.546909 154.981312 
L 293.611636 153.236885 
L 294.144 152.650821 
L 294.676364 152.383632 
L 295.208727 152.509985 
L 295.741091 153.072663 
L 296.273455 154.074741 
L 297.072 156.303492 
L 298.669091 162.04594 
L 299.467636 164.493829 
L 300 165.524014 
L 300.266182 165.77542 
L 300.532364 165.811375 
L 300.798545 165.600875 
L 301.064727 165.112284 
L 301.597091 163.173334 
L 302.129455 159.745787 
L 302.661818 154.609206 
L 303.194182 147.603567 
L 303.992727 133.486248 
L 305.057455 108.686515 
L 307.719273 41.037737 
L 308.517818 28.352519 
L 309.050182 23.549736 
L 309.316364 22.336229 
L 309.582545 21.927273 
L 309.848727 22.317163 
L 310.114909 23.488693 
L 310.647273 28.05494 
L 311.179636 35.288039 
L 311.978182 50.094248 
L 313.575273 86.672962 
L 314.906182 114.831282 
L 315.704727 127.621469 
L 316.503273 136.586582 
L 317.035636 140.508549 
L 317.568 142.999152 
L 318.100364 144.321667 
L 318.366545 144.635889 
L 318.632727 144.767245 
L 318.898909 144.750022 
L 319.431273 144.392805 
L 320.229818 143.410391 
L 322.093091 140.577914 
L 323.424 138.116102 
L 326.085818 132.601886 
L 326.618182 131.96584 
L 327.150545 131.694297 
L 327.416727 131.719806 
L 327.949091 132.133169 
L 328.481455 133.066741 
L 329.013818 134.542417 
L 329.812364 137.746753 
L 330.610909 141.972725 
L 333.006545 155.995134 
L 333.538909 157.927378 
L 333.805091 158.515689 
L 334.071273 158.799047 
L 334.337455 158.737934 
L 334.603636 158.294111 
L 334.869818 157.431466 
L 335.402182 154.322021 
L 335.934545 149.203049 
L 336.466909 141.969424 
L 337.265455 127.258317 
L 338.330182 101.860581 
L 340.459636 48.616834 
L 341.258182 35.078224 
L 341.790545 29.499436 
L 342.056727 27.84042 
L 342.322909 26.947438 
L 342.589091 26.814378 
L 342.855273 27.423458 
L 343.121455 28.746675 
L 343.653818 33.381216 
L 344.186182 40.345493 
L 344.984727 54.194709 
L 346.315636 82.609755 
L 348.445091 128.973232 
L 349.509818 148.033661 
L 350.574545 162.826755 
L 351.373091 171.022886 
L 352.171636 176.938754 
L 352.970182 180.901891 
L 353.502545 182.641253 
L 354.034909 183.783912 
L 354.567273 184.432555 
L 355.099636 184.687261 
L 355.632 184.648356 
L 356.430545 184.260187 
L 357.761455 183.535411 
L 358.293818 183.465967 
L 358.826182 183.620691 
L 359.358545 184.040075 
L 359.890909 184.744705 
L 360.689455 186.333162 
L 361.488 188.482314 
L 364.416 197.084723 
L 364.948364 197.658286 
L 365.214545 197.679064 
L 365.480727 197.48907 
L 365.746909 197.063304 
L 366.279273 195.406413 
L 366.811636 192.524067 
L 367.344 188.25992 
L 367.876364 182.500258 
L 368.674909 170.95245 
L 369.473455 156.055317 
L 370.538182 132.022248 
L 373.2 69.542021 
L 373.998545 56.423145 
L 374.530909 50.316475 
L 375.063273 46.556658 
L 375.329455 45.586709 
L 375.595636 45.226612 
L 375.861818 45.471575 
L 376.128 46.311801 
L 376.660364 49.717174 
L 377.192727 55.286815 
L 377.991273 67.253736 
L 378.789818 82.829173 
L 380.120727 114.133613 
L 382.250182 165.535197 
L 383.314909 185.712355 
L 384.113455 197.037084 
L 384.912 205.153913 
L 385.710545 210.578319 
L 386.509091 214.026838 
L 387.307636 216.185768 
L 388.106182 217.569747 
L 388.904727 218.500528 
L 389.969455 219.353553 
L 392.098909 220.858169 
L 393.163636 221.973757 
L 395.026909 224.071442 
L 395.559273 224.323489 
L 396.091636 224.205388 
L 396.624 223.585704 
L 397.156364 222.339989 
L 397.688727 220.359044 
L 398.221091 217.554815 
L 399.019636 211.669144 
L 399.818182 203.652825 
L 400.616727 193.41884 
L 401.681455 176.172765 
L 402.746182 154.680783 
L 404.077091 122.428673 
L 406.738909 54.771345 
L 407.537455 39.814345 
L 408.069818 32.591956 
L 408.602182 27.944055 
L 408.868364 26.655705 
L 409.134545 26.081579 
L 409.400727 26.23079 
L 409.666909 27.104935 
L 409.933091 28.698553 
L 410.465455 33.985696 
L 410.997818 41.905263 
L 411.796364 58.051859 
L 412.861091 85.307821 
L 415.522909 156.3714 
L 416.321455 172.232373 
L 417.12 184.14802 
L 417.918545 192.205175 
L 418.450909 195.675621 
L 418.983273 197.872306 
L 419.515636 199.024577 
L 419.781818 199.277256 
L 420.048 199.346884 
L 420.314182 199.254538 
L 420.846545 198.653596 
L 421.378909 197.583584 
L 422.177455 195.234634 
L 422.976 192.083106 
L 424.040727 186.780215 
L 426.436364 172.906455 
L 426.436364 172.906455 
" clip-path="url(#pf6d4dbb2c4)" style="fill: none; stroke: #0000ff; stroke-width: 3; stroke-linecap: square"/>
   </g>
   <g id="patch_3">
    <path d="M 7.2 331.2 
L 7.2 7.2 
" style="fill: none; stroke: #000000; stroke-width: 0.8; stroke-linejoin: miter; stroke-linecap: square"/>
   </g>
   <g id="patch_4">
    <path d="M 446.4 331.2 
L 446.4 7.2 
" style="fill: none; stroke: #000000; stroke-width: 0.8; stroke-linejoin: miter; stroke-linecap: square"/>
   </g>
   <g id="patch_5">
    <path d="M 7.2 331.2 
L 446.4 331.2 
" style="fill: none; stroke: #000000; stroke-width: 0.8; stroke-linejoin: miter; stroke-linecap: square"/>
   </g>
   <g id="patch_6">
    <path d="M 7.2 7.2 
L 446.4 7.2 
" style="fill: none; stroke: #000000; stroke-width: 0.8; stroke-linejoin: miter; stroke-linecap: square"/>
   </g>
  </g>
 </g>
 <defs>
  <clipPath id="pf6d4dbb2c4">
   <rect x="7.2" y="7.2" width="439.2" height="324"/>
  </clipPath>
 </defs>
</svg>
