<?xml version="1.0" encoding="utf-8" standalone="no"?>
<!DOCTYPE svg PUBLIC "-//W3C//DTD SVG 1.1//EN"
  "http://www.w3.org/Graphics/SVG/1.1/DTD/svg11.dtd">
<svg xmlns:xlink="http://www.w3.org/1999/xlink" width="453.6pt" height="338.4pt" viewBox="0 0 453.6 338.4" xmlns="http://www.w3.org/2000/svg" version="1.1">
 <metadata>
  <rdf:RDF xmlns:dc="http://purl.org/dc/elements/1.1/" xmlns:cc="http://creativecommons.org/ns#" xmlns:rdf="http://www.w3.org/1999/02/22-rdf-syntax-ns#">
   <cc:Work>
    <dc:type rdf:resource="http://purl.org/dc/dcmitype/StillImage"/>
    <dc:date>2025-05-15T17:23:08.407739</dc:date>
    <dc:format>image/svg+xml</dc:format>
    <dc:creator>
     <cc:Agent>
      <dc:title>Matplotlib v3.10.1, https://matplotlib.org/</dc:title>
     </cc:Agent>
    </dc:creator>
   </cc:Work>
  </rdf:RDF>
 </metadata>
 <defs>
  <style type="text/css">*{stroke-linejoin: round; stroke-linecap: butt}</style>
 </defs>
 <g id="figure_1">
  <g id="patch_1">
   <path d="M 0 338.4 
L 453.6 338.4 
L 453.6 0 
L 0 0 
z
" style="fill: #ffffff"/>
  </g>
  <g id="axes_1">
   <g id="patch_2">
    <path d="M 7.2 331.2 
L 446.4 331.2 
L 446.4 7.2 
L 7.2 7.2 
z
" style="fill: #ffffff"/>
   </g>
   <g id="matplotlib.axis_1"/>
   <g id="matplotlib.axis_2"/>
   <g id="line2d_1">
    <path d="M 27.163636 146.999506 
L 27.719727 142.574572 
L 27.997772 141.52914 
L 28.275817 141.299006 
L 28.553862 141.881367 
L 28.831907 143.251771 
L 29.387997 148.165709 
L 29.944087 155.509589 
L 31.056267 174.658543 
L 33.002583 209.206632 
L 34.114763 225.11637 
L 35.504989 241.430124 
L 37.173259 258.263555 
L 38.563484 270.157694 
L 39.39762 275.664883 
L 39.95371 278.401318 
L 40.5098 280.300016 
L 41.06589 281.344555 
L 41.343935 281.557829 
L 41.62198 281.579022 
L 41.900025 281.423617 
L 42.456115 280.66093 
L 43.290251 278.729102 
L 45.236566 273.727146 
L 45.792656 272.78205 
L 46.348747 272.161275 
L 46.904837 271.861647 
L 47.460927 271.856916 
L 48.017017 272.109223 
L 48.573107 272.582244 
L 49.407242 273.651744 
L 50.241378 275.109618 
L 51.353558 277.584649 
L 54.690099 285.845294 
L 55.524234 287.070961 
L 56.080324 287.544244 
L 56.636414 287.735528 
L 57.192504 287.659664 
L 57.748595 287.35012 
L 58.58273 286.554598 
L 61.085135 283.70169 
L 61.919271 283.237817 
L 62.475361 283.165835 
L 63.031451 283.282468 
L 63.865586 283.75406 
L 64.977767 284.720595 
L 67.480172 287.240619 
L 68.314307 288.438444 
L 69.148443 290.171515 
L 69.982578 292.615733 
L 70.816713 295.785751 
L 72.484984 303.420322 
L 73.875209 309.33088 
L 74.709344 311.998707 
L 75.543479 313.847832 
L 76.09957 314.646578 
L 76.65566 315.143486 
L 77.21175 315.389538 
L 77.76784 315.432931 
L 78.32393 315.30561 
L 78.88002 315.015677 
L 79.43611 314.544868 
L 79.992201 313.844653 
L 80.548291 312.836358 
L 81.104381 311.420395 
L 81.660471 309.492936 
L 82.494606 305.452019 
L 83.328741 299.915949 
L 84.440922 290.558659 
L 86.387237 273.466454 
L 87.221372 268.342948 
L 87.777463 266.227953 
L 88.055508 265.595361 
L 88.333553 265.245918 
L 88.611598 265.171341 
L 88.889643 265.357177 
L 89.167688 265.783788 
L 89.723778 267.260469 
L 90.557913 270.607022 
L 94.172499 286.990789 
L 95.28468 290.646989 
L 96.118815 292.719464 
L 96.674905 293.692718 
L 97.230995 294.297927 
L 97.787085 294.53183 
L 98.343175 294.433609 
L 99.177311 293.866353 
L 100.289491 293.04573 
L 100.845581 292.935057 
L 101.401671 293.177283 
L 101.957761 293.825464 
L 102.513852 294.869544 
L 103.347987 297.013049 
L 105.016257 301.697376 
L 105.572347 302.838006 
L 106.128438 303.594554 
L 106.684528 303.935595 
L 107.240618 303.886359 
L 107.796708 303.524622 
L 110.021069 301.509821 
L 110.577159 301.502634 
L 111.133249 301.85765 
L 111.689339 302.584521 
L 112.245429 303.652859 
L 113.079564 305.749815 
L 115.860015 313.406919 
L 116.69415 314.97148 
L 117.528286 315.988395 
L 118.084376 316.353208 
L 118.640466 316.472727 
L 119.196556 316.354677 
L 119.752646 316.005429 
L 120.308736 315.430473 
L 121.142872 314.162209 
L 121.977007 312.444116 
L 123.089187 309.593522 
L 126.147683 301.328624 
L 127.259863 299.100728 
L 129.206179 295.897762 
L 130.596404 293.427074 
L 131.98663 290.517434 
L 135.879261 281.911701 
L 136.713396 280.728021 
L 137.547531 280.000855 
L 138.381666 279.657884 
L 139.771892 279.27181 
L 140.327982 278.873167 
L 140.884072 278.175572 
L 141.440162 277.099697 
L 141.996252 275.603946 
L 142.830387 272.599071 
L 143.942568 267.536047 
L 146.723018 254.346424 
L 148.391289 246.636673 
L 149.503469 240.262794 
L 150.61565 232.369273 
L 151.72783 222.698622 
L 152.561965 213.799208 
L 153.3961 202.667143 
L 154.230236 188.342437 
L 155.064371 170.028271 
L 156.176551 139.327683 
L 159.235047 47.379934 
L 160.069182 31.760819 
L 160.625272 25.391683 
L 160.903317 23.448868 
L 161.181362 22.307006 
L 161.459407 21.927273 
L 161.737453 22.256844 
L 162.015498 23.230938 
L 162.571588 26.804597 
L 163.405723 34.926238 
L 165.352038 55.763861 
L 166.464219 64.662979 
L 168.688579 80.398926 
L 170.078805 92.839096 
L 171.190985 102.272668 
L 171.747075 105.697116 
L 172.303165 107.743716 
L 172.58121 108.173406 
L 172.859256 108.190005 
L 173.137301 107.795768 
L 173.415346 107.005358 
L 173.971436 104.355244 
L 174.805571 98.439705 
L 176.195796 87.735348 
L 176.751887 84.571683 
L 177.307977 82.49004 
L 177.864067 81.515764 
L 178.142112 81.392374 
L 178.420157 81.460729 
L 178.976247 81.971434 
L 179.810382 82.832772 
L 180.088427 82.926128 
L 180.366473 82.845341 
L 180.644518 82.557553 
L 180.922563 82.04193 
L 181.478653 80.310715 
L 182.034743 77.750769 
L 183.981058 67.580821 
L 184.537149 66.320601 
L 184.815194 66.221142 
L 185.093239 66.510388 
L 185.371284 67.19954 
L 185.927374 69.75796 
L 186.483464 73.731162 
L 187.317599 81.563239 
L 189.263915 100.860937 
L 190.09805 107.090449 
L 190.932185 111.95402 
L 192.600456 119.879955 
L 193.990681 125.74672 
L 194.546771 127.359349 
L 194.824816 127.875155 
L 195.102861 128.153903 
L 195.380907 128.168043 
L 195.658952 127.896399 
L 195.936997 127.325923 
L 196.493087 125.285904 
L 197.049177 122.137585 
L 197.883312 115.851262 
L 199.829628 100.055294 
L 200.663763 95.516648 
L 201.219853 93.782588 
L 201.497898 93.345862 
L 201.775943 93.208036 
L 202.053988 93.37585 
L 202.332033 93.855793 
L 202.888124 95.78046 
L 203.444214 99.048047 
L 204.000304 103.731691 
L 204.834439 113.543606 
L 205.668574 126.736321 
L 206.780755 148.96394 
L 209.83925 215.794393 
L 210.673386 228.698283 
L 211.507521 237.630451 
L 212.063611 241.393271 
L 212.619701 243.547544 
L 212.897746 244.074814 
L 213.175791 244.266513 
L 213.453836 244.146567 
L 213.731881 243.738936 
L 214.287972 242.150096 
L 214.844062 239.660543 
L 215.678197 234.529813 
L 216.790377 225.819753 
L 218.736693 209.809327 
L 219.570828 204.889935 
L 220.126918 202.903778 
L 220.404963 202.371818 
L 220.683008 202.169325 
L 220.961053 202.306081 
L 221.239099 202.786024 
L 221.795189 204.761001 
L 222.351279 208.010133 
L 223.185414 214.895189 
L 224.297594 226.491691 
L 226.24391 246.885615 
L 227.078045 253.55943 
L 227.91218 258.387042 
L 228.46827 260.560487 
L 229.024361 261.951764 
L 229.580451 262.640814 
L 229.858496 262.748282 
L 230.136541 262.710348 
L 230.692631 262.229511 
L 231.248721 261.252457 
L 231.804811 259.822134 
L 232.638947 256.909273 
L 233.751127 251.940829 
L 235.141352 245.641357 
L 235.697442 243.804257 
L 236.253533 242.713718 
L 236.531578 242.506421 
L 236.809623 242.544754 
L 237.087668 242.835776 
L 237.365713 243.37928 
L 237.921803 245.185988 
L 238.755938 249.361313 
L 240.702254 260.674421 
L 241.258344 262.9015 
L 241.814434 264.309053 
L 242.092479 264.692543 
L 242.370524 264.869903 
L 242.648569 264.854243 
L 242.926614 264.663602 
L 243.482704 263.846683 
L 244.31684 261.917148 
L 245.98511 257.79099 
L 246.819245 256.286575 
L 247.653381 255.277295 
L 248.209471 254.896578 
L 248.765561 254.797221 
L 249.321651 255.059712 
L 249.877741 255.789105 
L 250.433831 257.095866 
L 250.989921 259.071635 
L 251.546012 261.760999 
L 252.380147 267.054613 
L 253.770372 277.998861 
L 255.160598 288.365678 
L 255.994733 292.808562 
L 256.550823 294.775029 
L 257.106913 295.957555 
L 257.663003 296.468027 
L 258.219093 296.484999 
L 259.053229 296.044425 
L 259.887364 295.615325 
L 260.443454 295.530908 
L 261.277589 295.692993 
L 262.111724 295.8408 
L 262.667815 295.628705 
L 263.223905 294.958064 
L 263.779995 293.715696 
L 264.336085 291.888008 
L 265.17022 288.292541 
L 266.560446 282.043959 
L 267.116536 280.304081 
L 267.672626 279.35303 
L 267.950671 279.212113 
L 268.228716 279.300494 
L 268.506761 279.613449 
L 269.062851 280.857997 
L 269.618942 282.772731 
L 272.121347 292.646731 
L 272.677437 293.719982 
L 272.955482 294.004275 
L 273.233527 294.118198 
L 273.511573 294.064538 
L 273.789618 293.848552 
L 274.345708 292.958134 
L 274.901798 291.507009 
L 275.735933 288.363293 
L 276.570068 283.995671 
L 277.404204 278.12282 
L 278.238339 270.39939 
L 279.072474 260.695785 
L 280.462699 241.342688 
L 281.852925 222.342843 
L 282.68706 213.501401 
L 283.24315 209.176439 
L 283.79924 206.18127 
L 284.35533 204.452185 
L 284.633376 204.019489 
L 284.911421 203.845835 
L 285.189466 203.908521 
L 285.467511 204.186062 
L 286.023601 205.31227 
L 286.579691 207.113388 
L 287.135781 209.545049 
L 287.969916 214.430263 
L 288.804052 220.989517 
L 289.638187 229.340279 
L 290.750367 242.852318 
L 292.974728 271.085855 
L 293.808863 279.292707 
L 294.642998 285.418724 
L 295.477133 289.605394 
L 296.311269 292.314582 
L 297.145404 294.100293 
L 297.979539 295.375396 
L 298.813674 296.309071 
L 299.64781 296.868546 
L 300.2039 296.970486 
L 300.75999 296.822147 
L 301.31608 296.426498 
L 302.150215 295.448709 
L 305.764801 290.432599 
L 307.433072 288.372281 
L 310.491567 284.18724 
L 311.047658 283.825085 
L 311.603748 283.657846 
L 312.437883 283.680218 
L 313.550063 283.734666 
L 314.106153 283.498896 
L 314.662244 282.929 
L 315.218334 281.934977 
L 315.774424 280.470318 
L 316.608559 277.429945 
L 317.998785 270.980437 
L 319.110965 266.178281 
L 319.667055 264.437674 
L 320.223145 263.339757 
L 320.50119 263.060252 
L 320.779235 262.9671 
L 321.05728 263.059785 
L 321.335325 263.333405 
L 321.891416 264.383755 
L 322.447506 266.007536 
L 323.281641 269.192372 
L 325.784047 279.385164 
L 326.618182 281.796035 
L 327.174272 282.956427 
L 327.730362 283.720748 
L 328.286452 284.061112 
L 328.842542 283.961505 
L 329.398633 283.428417 
L 329.954723 282.495064 
L 330.788858 280.489439 
L 333.291264 273.611777 
L 334.125399 272.187153 
L 334.681489 271.588557 
L 335.515624 271.088713 
L 337.46194 270.297671 
L 338.296075 269.561602 
L 339.408255 268.138572 
L 341.076526 265.95225 
L 341.910661 265.278348 
L 342.744796 264.983308 
L 343.856976 264.972857 
L 344.969157 264.91645 
L 345.803292 264.567166 
L 346.637427 263.891921 
L 349.417878 261.18294 
L 350.252013 260.79176 
L 351.364193 260.539197 
L 352.754419 260.406118 
L 353.588554 260.534523 
L 354.144644 260.850899 
L 354.700734 261.45767 
L 355.256825 262.437297 
L 355.812915 263.840945 
L 356.64705 266.724034 
L 358.037275 272.797345 
L 359.149456 277.199361 
L 359.705546 278.679987 
L 360.261636 279.45632 
L 360.539681 279.545703 
L 360.817726 279.425694 
L 361.095771 279.094427 
L 361.651861 277.81434 
L 362.207951 275.777458 
L 363.042087 271.567398 
L 364.154267 264.543155 
L 366.378628 248.590388 
L 369.159078 228.146069 
L 369.993213 223.766949 
L 370.549304 221.965706 
L 370.827349 221.471327 
L 371.105394 221.267491 
L 371.383439 221.360722 
L 371.661484 221.749984 
L 372.217574 223.374556 
L 372.773664 225.984129 
L 373.607799 231.144448 
L 374.998025 240.06925 
L 375.554115 242.754009 
L 376.110205 244.580202 
L 376.666295 245.46612 
L 376.94434 245.564252 
L 377.222385 245.449965 
L 377.50043 245.142953 
L 378.056521 244.047547 
L 378.890656 241.61193 
L 380.836971 235.458561 
L 383.339377 228.333932 
L 384.173512 225.159006 
L 385.285693 220.014637 
L 386.953963 211.070936 
L 388.900279 199.457334 
L 391.402684 183.776877 
L 391.958774 181.427324 
L 392.514865 180.09974 
L 392.79291 179.898488 
L 393.070955 180.034982 
L 393.349 180.520857 
L 393.90509 182.539905 
L 394.46118 185.854899 
L 395.295315 192.659737 
L 397.241631 209.876692 
L 398.075766 215.150917 
L 398.909901 218.973486 
L 400.300127 224.764052 
L 401.134262 229.657475 
L 401.968397 236.205696 
L 405.026893 262.693669 
L 405.861028 266.994125 
L 406.695163 270.058759 
L 408.363434 275.746952 
L 409.197569 279.559934 
L 411.97802 293.53155 
L 412.53411 295.105092 
L 413.0902 295.951735 
L 413.368245 296.097596 
L 413.64629 296.064616 
L 413.924335 295.861768 
L 414.480425 294.994818 
L 415.036516 293.608393 
L 415.870651 290.817746 
L 417.260876 285.075383 
L 419.207192 275.873985 
L 420.875462 267.972437 
L 421.709597 264.897192 
L 422.265688 263.523425 
L 422.821778 262.864949 
L 423.099823 262.840158 
L 423.377868 263.031015 
L 423.655913 263.442119 
L 424.212003 264.922103 
L 424.768093 267.231637 
L 425.602228 271.988088 
L 426.436364 277.751427 
L 426.436364 277.751427 
" clip-path="url(#pf3ea052df8)" style="fill: none; stroke-dasharray: 11.1,4.8; stroke-dashoffset: 0; stroke: #000000; stroke-width: 3"/>
   </g>
   <g id="line2d_2">
    <path d="M 27.163636 291.790018 
L 28.275817 293.63638 
L 29.387997 295.055215 
L 30.222132 295.714948 
L 30.778222 295.875795 
L 31.334312 295.757391 
L 31.890403 295.319983 
L 32.446493 294.538248 
L 33.002583 293.403945 
L 33.836718 291.070354 
L 34.948898 286.972783 
L 36.895214 278.431858 
L 38.563484 271.546529 
L 39.675665 267.87102 
L 40.787845 265.047012 
L 41.900025 262.898631 
L 43.846341 259.810129 
L 46.904837 255.210073 
L 47.738972 254.38626 
L 48.573107 253.940016 
L 49.129197 253.870477 
L 49.685287 253.978497 
L 50.519423 254.439815 
L 51.353558 255.19887 
L 52.465738 256.558321 
L 53.855964 258.659159 
L 58.02664 265.357775 
L 59.13882 266.504374 
L 60.529045 267.559802 
L 62.197316 268.868294 
L 63.309496 270.085934 
L 64.421676 271.686564 
L 65.533857 273.668543 
L 67.202127 277.211713 
L 69.704533 282.638816 
L 70.816713 284.526072 
L 71.928893 285.970819 
L 73.319119 287.33068 
L 74.987389 288.634482 
L 76.377615 289.443175 
L 77.21175 289.715731 
L 78.045885 289.775615 
L 78.88002 289.597828 
L 79.714155 289.169482 
L 80.548291 288.478918 
L 81.382426 287.509605 
L 82.216561 286.236725 
L 83.050696 284.62881 
L 84.162877 281.904443 
L 85.275057 278.435001 
L 86.387237 274.141973 
L 87.777463 267.626927 
L 91.670094 248.072682 
L 92.504229 245.252545 
L 93.338364 243.235546 
L 94.172499 241.945634 
L 95.006635 241.206297 
L 95.84077 240.799946 
L 97.50904 240.340542 
L 98.343175 240.264581 
L 98.899266 240.384396 
L 99.455356 240.748122 
L 100.011446 241.461866 
L 100.567536 242.629003 
L 101.123626 244.332233 
L 101.679716 246.619829 
L 102.513852 251.13172 
L 103.626032 258.743043 
L 105.850393 274.574464 
L 106.684528 278.915672 
L 107.240618 281.015826 
L 107.796708 282.452968 
L 108.352798 283.25975 
L 108.908888 283.510127 
L 109.464978 283.309616 
L 110.021069 282.782812 
L 112.523474 279.746863 
L 113.079564 279.509829 
L 113.635655 279.54371 
L 114.191745 279.84532 
L 114.747835 280.383872 
L 115.58197 281.513257 
L 117.528286 284.309394 
L 118.084376 284.808282 
L 118.640466 285.069224 
L 119.196556 285.063805 
L 119.752646 284.782096 
L 120.308736 284.232842 
L 121.142872 282.962694 
L 122.255052 280.644268 
L 126.147683 271.762615 
L 127.259863 269.920944 
L 128.372044 268.444456 
L 129.762269 267.007633 
L 130.874449 266.155995 
L 131.708584 265.724871 
L 132.54272 265.521991 
L 133.376855 265.595492 
L 134.21099 265.975703 
L 135.045125 266.66103 
L 136.157306 267.969705 
L 139.215801 271.959665 
L 140.049937 272.562064 
L 140.606027 272.752056 
L 141.162117 272.760618 
L 141.718207 272.589616 
L 142.552342 272.022783 
L 143.386478 271.144004 
L 144.498658 269.613506 
L 145.610838 267.756306 
L 146.723018 265.491707 
L 147.557154 263.366871 
L 148.391289 260.703254 
L 149.225424 257.348526 
L 150.059559 253.192027 
L 151.17174 246.334841 
L 152.28392 238.039421 
L 153.674145 225.835692 
L 155.064371 211.549296 
L 156.454596 194.705801 
L 157.844821 175.008333 
L 161.459407 121.389937 
L 162.293543 112.275394 
L 163.127678 105.282682 
L 163.961813 100.352782 
L 164.517903 98.067145 
L 165.073993 96.432907 
L 165.630084 95.309352 
L 166.186174 94.560679 
L 167.020309 93.88997 
L 168.132489 93.425238 
L 169.80076 93.050583 
L 171.46903 92.687995 
L 172.303165 92.31375 
L 173.137301 91.655656 
L 173.971436 90.623225 
L 174.805571 89.197378 
L 176.195796 86.196311 
L 177.864067 82.643896 
L 178.698202 81.345332 
L 179.532337 80.514687 
L 180.088427 80.225009 
L 180.644518 80.127782 
L 181.478653 80.282663 
L 182.312788 80.706592 
L 183.424968 81.528401 
L 186.205419 83.733661 
L 187.039554 84.071702 
L 187.595644 84.120794 
L 188.151735 84.005305 
L 188.707825 83.718633 
L 189.54196 82.994324 
L 190.65414 81.655776 
L 192.044366 79.97996 
L 192.878501 79.320819 
L 193.434591 79.127639 
L 193.990681 79.171357 
L 194.546771 79.475471 
L 195.102861 80.055374 
L 195.658952 80.919854 
L 196.493087 82.759567 
L 197.327222 85.249814 
L 198.439402 89.540474 
L 199.551583 94.802495 
L 201.219853 103.912074 
L 204.556394 123.551433 
L 205.946619 132.77641 
L 207.336845 143.529381 
L 209.28316 160.90824 
L 211.507521 180.671377 
L 212.897746 191.117319 
L 214.287972 199.850512 
L 215.956242 208.784217 
L 217.902558 218.047128 
L 219.570828 224.984191 
L 220.961053 229.724509 
L 222.073234 232.74789 
L 223.185414 235.153752 
L 224.297594 237.053258 
L 225.409775 238.498233 
L 226.24391 239.241532 
L 226.8 239.537677 
L 227.35609 239.650114 
L 227.91218 239.567369 
L 228.46827 239.293493 
L 229.302406 238.582117 
L 231.526766 236.387013 
L 232.082856 236.175799 
L 232.638947 236.214645 
L 233.195037 236.520489 
L 233.751127 237.081903 
L 234.585262 238.320401 
L 235.975487 240.975183 
L 238.199848 245.223308 
L 242.370524 252.437798 
L 243.482704 253.911964 
L 244.31684 254.616918 
L 244.87293 254.86643 
L 245.707065 254.943529 
L 247.653381 254.773757 
L 248.209471 255.057242 
L 248.765561 255.680953 
L 249.321651 256.72823 
L 249.877741 258.251487 
L 250.711876 261.439357 
L 251.824057 267.077536 
L 254.326462 280.716312 
L 255.160598 284.033833 
L 255.994733 286.395203 
L 256.828868 287.900063 
L 257.663003 288.799153 
L 259.053229 289.766325 
L 260.721499 291.051137 
L 261.555634 291.626759 
L 262.111724 291.822898 
L 262.667815 291.767977 
L 263.223905 291.390908 
L 263.779995 290.65016 
L 264.336085 289.544638 
L 265.17022 287.310825 
L 267.394581 280.671729 
L 267.950671 279.559558 
L 268.506761 278.849822 
L 269.062851 278.559825 
L 269.618942 278.658191 
L 270.175032 279.071054 
L 271.009167 280.048518 
L 272.121347 281.407422 
L 272.677437 281.883995 
L 273.233527 282.138927 
L 273.789618 282.148444 
L 274.345708 281.919562 
L 275.179843 281.202585 
L 276.292023 279.808068 
L 281.852925 271.93307 
L 283.521195 269.581901 
L 284.35533 268.695607 
L 285.189466 268.111925 
L 286.023601 267.854762 
L 286.857736 267.887597 
L 287.969916 268.213661 
L 289.360142 268.593006 
L 290.194277 268.528796 
L 290.750367 268.285932 
L 291.306457 267.857768 
L 292.140593 266.860585 
L 292.974728 265.480004 
L 294.364953 262.59602 
L 296.311269 257.952474 
L 297.423449 254.843478 
L 298.535629 250.963405 
L 299.64781 245.991199 
L 301.038035 238.310518 
L 303.540441 223.772379 
L 304.652621 218.704357 
L 305.486756 215.751017 
L 306.598936 212.757601 
L 308.267207 209.246673 
L 311.047658 203.692013 
L 311.603748 202.95805 
L 312.159838 202.548603 
L 312.715928 202.536899 
L 313.272018 202.964744 
L 313.828108 203.836693 
L 314.384199 205.118818 
L 315.218334 207.659386 
L 316.608559 212.795536 
L 320.50119 228.127477 
L 321.891416 234.889212 
L 324.949911 250.457186 
L 325.784047 253.486669 
L 326.618182 255.598663 
L 327.174272 256.505222 
L 327.730362 257.069004 
L 328.286452 257.374575 
L 330.232768 258.026794 
L 330.788858 258.542258 
L 331.344948 259.34485 
L 332.179083 261.129961 
L 333.013219 263.534548 
L 336.071714 273.330137 
L 336.90585 274.991425 
L 337.46194 275.670149 
L 338.01803 275.984236 
L 338.57412 275.930363 
L 339.13021 275.514267 
L 339.6863 274.748517 
L 340.24239 273.651192 
L 341.076526 271.436323 
L 342.188706 267.600013 
L 345.525247 254.824625 
L 346.081337 253.436393 
L 346.637427 252.497956 
L 347.193517 252.066103 
L 347.471562 252.050301 
L 347.749607 252.168977 
L 348.305698 252.801251 
L 348.861788 253.922757 
L 349.695923 256.354759 
L 351.086148 261.48517 
L 352.476374 266.332143 
L 353.310509 268.499104 
L 354.144644 269.942348 
L 354.700734 270.507678 
L 355.256825 270.78802 
L 355.812915 270.822676 
L 356.369005 270.651583 
L 357.20314 270.078056 
L 358.037275 269.163892 
L 358.87141 267.874845 
L 359.705546 266.101347 
L 360.539681 263.703773 
L 361.373816 260.582482 
L 362.485996 255.350335 
L 365.266447 241.248922 
L 366.100582 238.470636 
L 366.656673 237.285921 
L 367.212763 236.656289 
L 367.490808 236.542758 
L 367.768853 236.555191 
L 368.324943 236.924062 
L 368.881033 237.683892 
L 369.715168 239.365719 
L 371.105394 242.957526 
L 374.441935 251.929712 
L 375.83216 255.027003 
L 376.666295 256.435865 
L 377.222385 257.091318 
L 377.778476 257.459233 
L 378.334566 257.492341 
L 378.890656 257.155893 
L 379.446746 256.436457 
L 380.002836 255.348423 
L 380.836971 253.137516 
L 383.339377 245.691001 
L 383.895467 244.678289 
L 384.451557 244.110318 
L 384.729602 244.004575 
L 385.007648 244.018783 
L 385.563738 244.393165 
L 386.119828 245.183871 
L 386.953963 246.970985 
L 390.290504 255.309896 
L 391.124639 256.657234 
L 391.958774 257.642485 
L 393.070955 258.554144 
L 396.963586 261.25055 
L 398.353811 262.707911 
L 402.246442 267.084367 
L 403.358622 267.911505 
L 404.470803 268.482026 
L 405.861028 268.907868 
L 409.197569 269.717245 
L 410.587794 270.459178 
L 413.0902 271.929245 
L 413.924335 272.14656 
L 414.75847 272.131942 
L 415.592606 271.887212 
L 416.704786 271.27953 
L 421.987642 267.867559 
L 423.099823 267.506019 
L 423.933958 267.462074 
L 424.768093 267.699199 
L 425.602228 268.275367 
L 426.436364 269.20169 
L 426.436364 269.20169 
" clip-path="url(#pf3ea052df8)" style="fill: none; stroke: #ff00ff; stroke-width: 3; stroke-linecap: square"/>
   </g>
   <g id="patch_3">
    <path d="M 7.2 331.2 
L 7.2 7.2 
" style="fill: none; stroke: #000000; stroke-width: 0.8; stroke-linejoin: miter; stroke-linecap: square"/>
   </g>
   <g id="patch_4">
    <path d="M 446.4 331.2 
L 446.4 7.2 
" style="fill: none; stroke: #000000; stroke-width: 0.8; stroke-linejoin: miter; stroke-linecap: square"/>
   </g>
   <g id="patch_5">
    <path d="M 7.2 331.2 
L 446.4 331.2 
" style="fill: none; stroke: #000000; stroke-width: 0.8; stroke-linejoin: miter; stroke-linecap: square"/>
   </g>
   <g id="patch_6">
    <path d="M 7.2 7.2 
L 446.4 7.2 
" style="fill: none; stroke: #000000; stroke-width: 0.8; stroke-linejoin: miter; stroke-linecap: square"/>
   </g>
  </g>
 </g>
 <defs>
  <clipPath id="pf3ea052df8">
   <rect x="7.2" y="7.2" width="439.2" height="324"/>
  </clipPath>
 </defs>
</svg>
