<?xml version="1.0" encoding="utf-8" standalone="no"?>
<!DOCTYPE svg PUBLIC "-//W3C//DTD SVG 1.1//EN"
  "http://www.w3.org/Graphics/SVG/1.1/DTD/svg11.dtd">
<svg xmlns:xlink="http://www.w3.org/1999/xlink" width="453.6pt" height="338.4pt" viewBox="0 0 453.6 338.4" xmlns="http://www.w3.org/2000/svg" version="1.1">
 <metadata>
  <rdf:RDF xmlns:dc="http://purl.org/dc/elements/1.1/" xmlns:cc="http://creativecommons.org/ns#" xmlns:rdf="http://www.w3.org/1999/02/22-rdf-syntax-ns#">
   <cc:Work>
    <dc:type rdf:resource="http://purl.org/dc/dcmitype/StillImage"/>
    <dc:date>2025-05-15T17:45:18.864466</dc:date>
    <dc:format>image/svg+xml</dc:format>
    <dc:creator>
     <cc:Agent>
      <dc:title>Matplotlib v3.10.1, https://matplotlib.org/</dc:title>
     </cc:Agent>
    </dc:creator>
   </cc:Work>
  </rdf:RDF>
 </metadata>
 <defs>
  <style type="text/css">*{stroke-linejoin: round; stroke-linecap: butt}</style>
 </defs>
 <g id="figure_1">
  <g id="patch_1">
   <path d="M 0 338.4 
L 453.6 338.4 
L 453.6 0 
L 0 0 
z
" style="fill: #ffffff"/>
  </g>
  <g id="axes_1">
   <g id="patch_2">
    <path d="M 7.2 331.2 
L 446.4 331.2 
L 446.4 7.2 
L 7.2 7.2 
z
" style="fill: #ffffff"/>
   </g>
   <g id="matplotlib.axis_1"/>
   <g id="matplotlib.axis_2"/>
   <g id="line2d_1">
    <path d="M 27.163636 212.644593 
L 27.719727 209.851736 
L 28.275817 208.133311 
L 28.553862 207.709057 
L 28.831907 207.583438 
L 29.109952 207.757258 
L 29.387997 208.226995 
L 29.944087 210.018608 
L 30.500177 212.849925 
L 31.334312 218.697588 
L 32.446493 228.498506 
L 36.895214 269.925113 
L 38.285439 280.256898 
L 39.39762 287.027931 
L 40.5098 292.397138 
L 41.62198 296.48901 
L 42.456115 298.848171 
L 43.290251 300.688588 
L 44.124386 302.061914 
L 44.958521 302.995696 
L 45.792656 303.510505 
L 46.348747 303.634607 
L 46.904837 303.59754 
L 47.738972 303.273948 
L 48.573107 302.677396 
L 49.685287 301.527789 
L 50.797468 299.973678 
L 51.631603 298.460565 
L 52.465738 296.517642 
L 53.299873 293.972071 
L 54.134009 290.599319 
L 54.968144 286.117084 
L 55.802279 280.165334 
L 56.636414 272.290498 
L 57.47055 261.955104 
L 58.304685 248.573885 
L 59.13882 231.618258 
L 59.972955 210.779575 
L 61.085135 177.190193 
L 63.031451 108.939083 
L 64.421676 63.700281 
L 65.255812 42.771164 
L 65.811902 32.514851 
L 66.367992 25.619427 
L 66.646037 23.4937 
L 66.924082 22.263301 
L 67.202127 21.927273 
L 67.480172 22.476091 
L 67.758217 23.892162 
L 68.314307 29.219724 
L 68.870398 37.634168 
L 69.704533 55.233776 
L 70.816713 85.637655 
L 75.265434 217.315202 
L 76.377615 241.227654 
L 77.489795 260.459848 
L 78.601975 275.502516 
L 79.714155 286.973453 
L 80.548291 293.635306 
L 81.382426 298.947697 
L 82.216561 303.172892 
L 83.050696 306.533444 
L 83.884832 309.204954 
L 84.718967 311.318471 
L 85.553102 312.972526 
L 86.387237 314.244576 
L 87.221372 315.196111 
L 88.055508 315.871213 
L 88.889643 316.29443 
L 89.723778 316.470524 
L 90.557913 316.388159 
L 91.392049 316.022651 
L 92.226184 315.334146 
L 93.060319 314.269475 
L 93.894454 312.764845 
L 94.72859 310.750255 
L 95.562725 308.160327 
L 96.39686 304.944237 
L 97.50904 299.6148 
L 98.621221 292.965887 
L 99.733401 284.657903 
L 100.567536 276.958334 
L 101.401671 267.605814 
L 102.513852 252.038538 
L 103.626032 232.857769 
L 106.962573 171.554417 
L 107.518663 164.932086 
L 108.074753 160.331512 
L 108.630843 157.926961 
L 108.908888 157.566099 
L 109.186933 157.759241 
L 109.464978 158.491339 
L 110.021069 161.477991 
L 110.577159 166.281156 
L 111.411294 176.201691 
L 112.523474 192.709904 
L 116.13806 248.99828 
L 117.528286 266.542456 
L 118.640466 278.137939 
L 119.752646 287.455197 
L 120.864827 294.580401 
L 121.698962 298.635033 
L 122.533097 301.749519 
L 123.367232 304.084375 
L 124.201367 305.788067 
L 125.035503 306.986517 
L 125.869638 307.778334 
L 126.703773 308.239666 
L 127.537908 308.428333 
L 128.372044 308.383813 
L 129.206179 308.123515 
L 130.040314 307.637112 
L 130.874449 306.886157 
L 131.708584 305.809049 
L 132.54272 304.330554 
L 133.376855 302.372357 
L 134.21099 299.861063 
L 135.045125 296.731305 
L 136.157306 291.502318 
L 137.269486 285.002937 
L 138.659711 275.16645 
L 140.327982 261.438172 
L 143.942568 231.017792 
L 145.054748 223.88097 
L 145.888883 220.077147 
L 146.444973 218.473957 
L 147.001064 217.716426 
L 147.279109 217.674053 
L 147.557154 217.862487 
L 147.835199 218.283762 
L 148.391289 219.821842 
L 148.947379 222.258013 
L 149.781514 227.437545 
L 150.893695 236.587708 
L 152.84001 255.491322 
L 154.508281 270.905356 
L 155.898506 281.541022 
L 157.010686 288.375444 
L 158.122867 293.832368 
L 159.235047 298.108673 
L 160.347227 301.415011 
L 161.459407 303.93724 
L 162.571588 305.819001 
L 163.405723 306.87166 
L 164.239858 307.649029 
L 165.073993 308.171088 
L 165.908129 308.450605 
L 166.742264 308.492629 
L 167.576399 308.293704 
L 168.410534 307.839866 
L 169.24467 307.105596 
L 170.078805 306.052616 
L 170.91294 304.621749 
L 171.747075 302.726419 
L 172.58121 300.252233 
L 173.415346 297.067159 
L 174.249481 293.049529 
L 175.361661 286.283666 
L 176.473841 277.991846 
L 178.142112 263.599857 
L 180.644518 241.968169 
L 181.756698 234.021189 
L 182.590833 229.203497 
L 183.424968 225.536243 
L 183.981058 223.774347 
L 184.537149 222.567999 
L 185.093239 221.910089 
L 185.371284 221.781458 
L 185.649329 221.782513 
L 185.927374 221.909796 
L 186.483464 222.528388 
L 187.039554 223.607213 
L 187.595644 225.115827 
L 188.42978 228.119909 
L 189.263915 231.926005 
L 190.376095 238.051948 
L 192.044366 248.69043 
L 193.990681 260.930982 
L 195.102861 266.468974 
L 195.936997 269.402358 
L 196.493087 270.625135 
L 196.771132 270.983394 
L 197.049177 271.155507 
L 197.327222 271.126138 
L 197.605267 270.877689 
L 197.883312 270.390011 
L 198.439402 268.601671 
L 198.995493 265.544685 
L 199.551583 260.972469 
L 200.107673 254.635426 
L 200.941808 241.386171 
L 201.775943 223.469949 
L 202.888124 193.591912 
L 204.834439 139.477422 
L 205.668574 123.299539 
L 206.224664 116.749233 
L 206.50271 114.897708 
L 206.780755 114.020908 
L 207.0588 114.114767 
L 207.336845 115.157362 
L 207.61489 117.110161 
L 208.17098 123.521463 
L 208.72707 132.786567 
L 209.561205 150.520971 
L 212.619701 221.025276 
L 213.453836 235.099819 
L 214.287972 245.875206 
L 215.122107 253.567539 
L 215.956242 258.680902 
L 216.512332 260.974241 
L 217.068422 262.608703 
L 217.902558 264.234313 
L 219.014738 265.689903 
L 220.126918 267.208749 
L 220.961053 268.775704 
L 221.795189 270.874063 
L 222.629324 273.538632 
L 223.741504 277.848623 
L 227.91218 295.191297 
L 229.024361 298.592673 
L 230.136541 301.299517 
L 231.248721 303.44894 
L 232.638947 305.596691 
L 234.029172 307.298059 
L 235.141352 308.297164 
L 235.975487 308.762721 
L 236.809623 308.91929 
L 237.365713 308.819078 
L 237.921803 308.526153 
L 238.477893 308.005515 
L 239.033983 307.206587 
L 239.590073 306.055935 
L 240.146164 304.451721 
L 240.702254 302.261915 
L 241.258344 299.327819 
L 241.814434 295.475476 
L 242.648569 287.612743 
L 243.482704 276.909209 
L 244.31684 263.364238 
L 245.707065 236.355346 
L 247.09729 209.585927 
L 247.931426 197.006483 
L 248.487516 190.962513 
L 249.043606 187.063549 
L 249.321651 185.939403 
L 249.599696 185.355812 
L 249.877741 185.293465 
L 250.155786 185.724351 
L 250.433831 186.613058 
L 250.989921 189.592229 
L 251.824057 196.328316 
L 255.160598 227.599731 
L 255.994733 232.826943 
L 256.828868 236.623384 
L 257.663003 239.162535 
L 258.497139 240.738802 
L 259.331274 241.723509 
L 260.721499 243.13416 
L 261.555634 244.413173 
L 262.38977 246.288277 
L 263.223905 248.811319 
L 264.336085 253.016416 
L 266.560446 262.708981 
L 271.843302 285.552448 
L 273.511573 291.815564 
L 274.901798 296.105436 
L 276.013978 298.917855 
L 277.126159 301.207269 
L 278.238339 302.970826 
L 279.072474 303.933677 
L 279.906609 304.579243 
L 280.740744 304.908442 
L 281.57488 304.926506 
L 282.409015 304.636091 
L 283.24315 304.03214 
L 284.077285 303.100394 
L 284.911421 301.819516 
L 285.745556 300.166238 
L 286.857736 297.342449 
L 287.969916 293.746692 
L 289.082097 289.264183 
L 290.194277 283.700331 
L 291.306457 276.803406 
L 292.418638 268.34324 
L 293.530818 258.186728 
L 294.921043 243.256044 
L 298.535629 202.575475 
L 299.369764 196.552708 
L 299.925855 194.014035 
L 300.2039 193.241216 
L 300.481945 192.814016 
L 300.75999 192.737675 
L 301.038035 193.012758 
L 301.31608 193.634916 
L 301.87217 195.880282 
L 302.42826 199.350687 
L 303.262396 206.444103 
L 304.374576 218.210193 
L 307.155027 248.617144 
L 308.545252 260.874169 
L 309.935477 270.932659 
L 311.325703 279.31638 
L 312.715928 286.349425 
L 313.828108 290.998923 
L 314.940289 294.712468 
L 315.774424 296.864288 
L 316.608559 298.491573 
L 317.442694 299.639898 
L 318.27683 300.370939 
L 319.110965 300.748193 
L 319.9451 300.823923 
L 320.779235 300.625409 
L 321.61337 300.147784 
L 322.447506 299.354319 
L 323.281641 298.183139 
L 324.115776 296.559385 
L 324.949911 294.407736 
L 325.784047 291.661237 
L 326.618182 288.267252 
L 327.730362 282.672452 
L 328.842542 275.811127 
L 329.954723 267.67337 
L 331.344948 255.766503 
L 332.735173 242.033832 
L 334.125399 226.395711 
L 335.515624 208.190591 
L 336.627805 190.844864 
L 337.739985 170.214556 
L 339.13021 139.653177 
L 341.910661 75.753796 
L 342.744796 62.145988 
L 343.300886 55.987947 
L 343.856976 52.571821 
L 344.135022 51.965462 
L 344.413067 52.116296 
L 344.691112 53.03013 
L 344.969157 54.704181 
L 345.525247 60.279567 
L 346.081337 68.657259 
L 346.915472 85.806126 
L 348.027653 115.069876 
L 351.920284 226.261665 
L 353.032464 249.932132 
L 354.144644 268.260593 
L 354.978779 278.797833 
L 355.812915 287.003053 
L 356.64705 293.299272 
L 357.481185 298.087598 
L 358.31532 301.704651 
L 359.149456 304.415108 
L 359.983591 306.426203 
L 360.817726 307.903324 
L 361.651861 308.976061 
L 362.485996 309.73584 
L 363.320132 310.237089 
L 364.154267 310.499343 
L 364.988402 310.512304 
L 365.822537 310.247108 
L 366.656673 309.669794 
L 367.490808 308.7568 
L 368.324943 307.508462 
L 369.437123 305.379769 
L 371.105394 301.530616 
L 374.71998 293.020808 
L 376.666295 288.343555 
L 377.778476 284.968007 
L 378.612611 281.713488 
L 379.446746 277.506815 
L 380.280881 272.014404 
L 381.115016 264.962937 
L 382.227197 253.0415 
L 385.563738 213.01547 
L 386.119828 208.839618 
L 386.675918 206.077586 
L 386.953963 205.259882 
L 387.232008 204.823211 
L 387.510053 204.764289 
L 387.788098 205.074536 
L 388.066143 205.740764 
L 388.622233 208.070018 
L 389.178324 211.583611 
L 390.012459 218.650648 
L 391.124639 230.415042 
L 395.295315 277.696674 
L 396.407496 286.717415 
L 397.241631 291.895534 
L 398.075766 295.776615 
L 398.909901 298.515889 
L 399.744036 300.305001 
L 400.300127 301.063575 
L 400.856217 301.533092 
L 401.412307 301.75498 
L 401.968397 301.761752 
L 402.524487 301.577123 
L 403.358622 300.973012 
L 404.192758 299.995112 
L 405.026893 298.643946 
L 405.861028 296.909986 
L 406.973208 293.997571 
L 408.085389 290.431003 
L 409.475614 285.19018 
L 411.699975 275.716458 
L 413.64629 267.609772 
L 415.036516 262.793043 
L 416.148696 259.779659 
L 417.260876 257.449693 
L 418.373056 255.598282 
L 419.763282 253.72799 
L 420.597417 252.915305 
L 421.153507 252.598985 
L 421.709597 252.541036 
L 422.265688 252.809638 
L 422.821778 253.462291 
L 423.377868 254.536256 
L 423.933958 256.041874 
L 424.768093 259.058461 
L 425.880273 264.189874 
L 426.436364 267.052478 
L 426.436364 267.052478 
" clip-path="url(#p7c141b7a8f)" style="fill: none; stroke-dasharray: 11.1,4.8; stroke-dashoffset: 0; stroke: #000000; stroke-width: 3"/>
   </g>
   <g id="line2d_2">
    <path d="M 27.163636 255.551805 
L 28.553862 255.80313 
L 29.944087 256.272421 
L 31.612358 257.0572 
L 32.446493 256.962222 
L 34.948898 257.475876 
L 37.729349 257.679108 
L 39.39762 257.514574 
L 41.06589 257.124495 
L 42.734161 256.524507 
L 44.680476 255.582663 
L 46.626792 254.404564 
L 48.851152 252.799396 
L 50.797468 251.401896 
L 53.299873 250.028785 
L 55.246189 249.09838 
L 57.47055 248.296388 
L 59.69491 247.743938 
L 61.919271 247.410269 
L 64.421676 247.262436 
L 67.202127 247.340039 
L 71.094758 247.473019 
L 74.431299 247.373887 
L 77.489795 247.054833 
L 80.270246 246.535622 
L 83.328741 245.893761 
L 85.831147 245.766805 
L 88.333553 245.845984 
L 91.114004 246.153927 
L 94.172499 246.717239 
L 97.50904 247.552764 
L 98.06513 247.667553 
L 99.455356 247.410791 
L 111.411294 245.012721 
L 114.46979 244.68487 
L 116.13806 244.608952 
L 120.308736 246.812087 
L 125.035503 249.196511 
L 127.259863 250.53225 
L 129.484224 251.586589 
L 133.932945 253.274689 
L 135.879261 253.746665 
L 137.547531 254.376827 
L 139.215801 255.242514 
L 139.771892 255.512878 
L 140.884072 255.249516 
L 141.996252 254.792436 
L 143.108433 254.130047 
L 144.220613 253.426295 
L 145.332793 253.494057 
L 146.723018 253.865902 
L 148.947379 254.752509 
L 149.781514 255.112241 
L 150.893695 254.986024 
L 160.625272 253.795758 
L 166.742264 253.942906 
L 173.693391 254.563586 
L 174.805571 255.083677 
L 177.029932 255.432449 
L 179.810382 255.727876 
L 182.868878 255.810969 
L 186.205419 255.668497 
L 190.376095 255.256149 
L 197.327222 254.514504 
L 201.219853 254.141572 
L 205.946619 253.458306 
L 211.229476 252.4766 
L 216.790377 251.192998 
L 220.683008 250.292701 
L 224.853684 250.075431 
L 227.91218 250.107323 
L 230.692631 250.388234 
L 233.195037 250.8546 
L 235.697442 251.53219 
L 238.477893 252.593532 
L 241.536389 253.831423 
L 243.482704 253.889616 
L 245.150975 253.712241 
L 246.5412 253.334861 
L 247.375336 253.137033 
L 249.043606 253.467722 
L 252.102102 254.376794 
L 254.882553 255.132487 
L 255.994733 255.310222 
L 257.663003 254.886447 
L 261.555634 254.175747 
L 261.833679 254.221284 
L 262.94586 254.951741 
L 264.05804 255.436907 
L 265.17022 255.666181 
L 266.004356 255.770336 
L 268.784806 257.113991 
L 271.009167 257.935359 
L 272.955482 258.398409 
L 274.623753 258.543763 
L 277.126159 258.6076 
L 280.740744 259.908165 
L 281.852925 259.995162 
L 282.68706 259.862171 
L 284.077285 259.511768 
L 287.413826 259.503852 
L 291.584502 259.521434 
L 294.086908 259.339557 
L 296.589314 259.37881 
L 299.091719 259.545421 
L 303.818486 258.611482 
L 304.930666 258.489831 
L 305.764801 258.604044 
L 306.598936 258.917489 
L 307.155027 259.109293 
L 308.267207 259.124712 
L 309.379387 259.371068 
L 310.491567 259.822342 
L 311.881793 260.627737 
L 313.550063 261.69222 
L 315.496379 262.225229 
L 317.720739 262.901362 
L 319.9451 262.046266 
L 322.447506 261.322605 
L 325.506002 260.679852 
L 329.120587 260.1509 
L 333.013219 259.785633 
L 336.349759 259.70055 
L 339.6863 259.83166 
L 344.969157 259.979265 
L 349.417878 259.878209 
L 353.588554 259.534406 
L 357.481185 258.981152 
L 360.817726 258.293384 
L 362.764042 257.726222 
L 367.490808 255.983246 
L 371.105394 254.853598 
L 374.998025 253.879004 
L 378.890656 253.13899 
L 382.783287 252.623161 
L 386.675918 252.322646 
L 389.178324 252.341793 
L 393.070955 252.581604 
L 397.241631 253.061975 
L 400.856217 253.665975 
L 403.358622 254.539404 
L 405.582983 255.531254 
L 406.417118 255.980256 
L 409.475614 259.373743 
L 412.256065 262.764957 
L 412.812155 263.507331 
L 413.0902 263.237543 
L 414.20238 260.656083 
L 415.036516 259.291508 
L 415.592606 258.707993 
L 416.148696 258.404063 
L 416.704786 258.385622 
L 417.260876 258.638361 
L 417.816966 259.025134 
L 418.095011 258.96482 
L 418.373056 259.052741 
L 419.207192 260.364081 
L 419.485237 262.22836 
L 419.763282 267.002679 
L 420.041327 267.635656 
L 420.597417 255.327271 
L 420.875462 253.992684 
L 421.431552 252.815945 
L 421.709597 252.555823 
L 422.265688 250.904671 
L 422.543733 251.069554 
L 422.821778 251.868893 
L 423.099823 253.45126 
L 423.933958 261.422965 
L 424.212003 260.273735 
L 424.490048 261.54031 
L 425.324183 272.318084 
L 425.602228 269.022054 
L 425.880273 263.596339 
L 426.436364 258.84317 
L 426.436364 258.84317 
" clip-path="url(#p7c141b7a8f)" style="fill: none; stroke: #ff00ff; stroke-width: 3; stroke-linecap: square"/>
   </g>
   <g id="patch_3">
    <path d="M 7.2 331.2 
L 7.2 7.2 
" style="fill: none; stroke: #000000; stroke-width: 0.8; stroke-linejoin: miter; stroke-linecap: square"/>
   </g>
   <g id="patch_4">
    <path d="M 446.4 331.2 
L 446.4 7.2 
" style="fill: none; stroke: #000000; stroke-width: 0.8; stroke-linejoin: miter; stroke-linecap: square"/>
   </g>
   <g id="patch_5">
    <path d="M 7.2 331.2 
L 446.4 331.2 
" style="fill: none; stroke: #000000; stroke-width: 0.8; stroke-linejoin: miter; stroke-linecap: square"/>
   </g>
   <g id="patch_6">
    <path d="M 7.2 7.2 
L 446.4 7.2 
" style="fill: none; stroke: #000000; stroke-width: 0.8; stroke-linejoin: miter; stroke-linecap: square"/>
   </g>
  </g>
 </g>
 <defs>
  <clipPath id="p7c141b7a8f">
   <rect x="7.2" y="7.2" width="439.2" height="324"/>
  </clipPath>
 </defs>
</svg>
