<?xml version="1.0" encoding="utf-8" standalone="no"?>
<!DOCTYPE svg PUBLIC "-//W3C//DTD SVG 1.1//EN"
  "http://www.w3.org/Graphics/SVG/1.1/DTD/svg11.dtd">
<svg xmlns:xlink="http://www.w3.org/1999/xlink" width="453.6pt" height="338.4pt" viewBox="0 0 453.6 338.4" xmlns="http://www.w3.org/2000/svg" version="1.1">
 <metadata>
  <rdf:RDF xmlns:dc="http://purl.org/dc/elements/1.1/" xmlns:cc="http://creativecommons.org/ns#" xmlns:rdf="http://www.w3.org/1999/02/22-rdf-syntax-ns#">
   <cc:Work>
    <dc:type rdf:resource="http://purl.org/dc/dcmitype/StillImage"/>
    <dc:date>2025-05-15T18:02:37.842103</dc:date>
    <dc:format>image/svg+xml</dc:format>
    <dc:creator>
     <cc:Agent>
      <dc:title>Matplotlib v3.10.1, https://matplotlib.org/</dc:title>
     </cc:Agent>
    </dc:creator>
   </cc:Work>
  </rdf:RDF>
 </metadata>
 <defs>
  <style type="text/css">*{stroke-linejoin: round; stroke-linecap: butt}</style>
 </defs>
 <g id="figure_1">
  <g id="patch_1">
   <path d="M 0 338.4 
L 453.6 338.4 
L 453.6 0 
L 0 0 
z
" style="fill: #ffffff"/>
  </g>
  <g id="axes_1">
   <g id="patch_2">
    <path d="M 7.2 331.2 
L 446.4 331.2 
L 446.4 7.2 
L 7.2 7.2 
z
" style="fill: #ffffff"/>
   </g>
   <g id="matplotlib.axis_1"/>
   <g id="matplotlib.axis_2"/>
   <g id="line2d_1">
    <path d="M 27.163636 222.671451 
L 29.387997 231.042153 
L 30.778222 235.614177 
L 31.890403 238.640679 
L 32.724538 240.43903 
L 33.558673 241.806979 
L 34.392808 242.764341 
L 35.226944 243.364629 
L 36.061079 243.673095 
L 37.173259 243.76409 
L 39.119575 243.550231 
L 41.06589 243.429636 
L 43.290251 243.32239 
L 44.402431 243.07144 
L 45.514611 242.60385 
L 46.626792 241.892386 
L 47.738972 240.931974 
L 49.129197 239.412952 
L 51.353558 236.551993 
L 53.577918 233.7975 
L 54.690099 232.718055 
L 55.524234 232.153955 
L 56.358369 231.891243 
L 56.914459 231.92565 
L 57.47055 232.156371 
L 58.02664 232.605464 
L 58.58273 233.287426 
L 59.416865 234.753569 
L 60.251 236.726199 
L 61.363181 239.97898 
L 63.865586 247.627261 
L 64.699721 249.494011 
L 65.533857 250.897343 
L 67.202127 253.430169 
L 67.758217 254.689432 
L 68.314307 256.382245 
L 69.148443 259.906229 
L 69.982578 264.630034 
L 71.094758 272.365113 
L 73.319119 288.299592 
L 74.153254 292.566885 
L 74.709344 294.331903 
L 74.987389 294.795028 
L 75.265434 294.93041 
L 75.543479 294.698396 
L 75.821524 294.057552 
L 76.09957 292.964149 
L 76.65566 289.239165 
L 77.21175 283.1601 
L 77.76784 274.395161 
L 78.32393 262.701766 
L 79.158065 239.526982 
L 80.270246 199.438297 
L 82.772651 101.679414 
L 83.606787 78.555874 
L 84.162877 67.541562 
L 84.718967 59.984421 
L 85.275057 55.493826 
L 85.553102 54.225559 
L 85.831147 53.507165 
L 86.109192 53.265391 
L 86.387237 53.433471 
L 86.665282 53.954892 
L 87.221372 55.897337 
L 87.777463 58.91215 
L 88.333553 63.028273 
L 88.889643 68.420959 
L 89.723778 79.380806 
L 90.557913 94.163659 
L 91.670094 119.237233 
L 94.72859 193.860132 
L 95.562725 207.520446 
L 96.118815 213.422523 
L 96.39686 215.26758 
L 96.674905 216.327308 
L 96.95295 216.578136 
L 97.230995 216.008643 
L 97.50904 214.621294 
L 98.06513 209.473945 
L 98.621221 201.452923 
L 99.455356 185.299876 
L 102.235807 126.181518 
L 103.347987 108.922501 
L 106.128438 68.297827 
L 106.962573 56.59006 
L 107.518663 50.715484 
L 108.074753 47.366364 
L 108.352798 46.858754 
L 108.630843 47.213022 
L 108.908888 48.465477 
L 109.186933 50.627783 
L 109.743024 57.609964 
L 110.299114 67.786362 
L 111.133249 87.490993 
L 113.635655 150.882548 
L 114.46979 165.91557 
L 115.303925 176.286012 
L 115.860015 180.59674 
L 116.416105 182.910826 
L 116.69415 183.355747 
L 116.972195 183.349256 
L 117.250241 182.911314 
L 117.528286 182.063053 
L 118.084376 179.233451 
L 118.640466 175.077529 
L 119.474601 166.903654 
L 120.864827 150.360028 
L 122.533097 130.671991 
L 123.645277 120.006237 
L 124.479413 113.733835 
L 125.313548 108.82055 
L 126.425728 103.814878 
L 127.815953 98.838733 
L 129.484224 93.632624 
L 130.596404 90.720738 
L 131.708584 88.464387 
L 132.54272 87.211053 
L 133.376855 86.269772 
L 134.489035 85.376563 
L 135.601215 84.759242 
L 137.269486 84.130111 
L 140.884072 82.878193 
L 141.996252 82.242863 
L 143.108433 81.380937 
L 144.776703 79.750545 
L 147.557154 77.001615 
L 148.947379 75.928124 
L 149.781514 75.50353 
L 150.61565 75.312756 
L 151.449785 75.391916 
L 152.28392 75.72266 
L 153.3961 76.431781 
L 155.064371 77.513178 
L 155.898506 77.822058 
L 156.732641 77.886284 
L 157.566776 77.702 
L 158.678957 77.143537 
L 162.849633 74.535944 
L 163.961813 74.278113 
L 165.073993 74.312471 
L 166.186174 74.586505 
L 168.688579 75.340964 
L 169.80076 75.380496 
L 170.91294 75.136476 
L 172.02512 74.624376 
L 173.415346 73.713988 
L 176.195796 71.775789 
L 177.307977 71.3347 
L 178.142112 71.227185 
L 178.976247 71.326061 
L 180.088427 71.744945 
L 181.478653 72.595939 
L 185.093239 75.035061 
L 186.205419 75.448089 
L 187.317599 75.632861 
L 191.21023 75.95482 
L 192.322411 76.440077 
L 193.434591 77.247538 
L 194.546771 78.375738 
L 195.936997 80.130825 
L 201.775943 88.008265 
L 204.000304 90.248219 
L 205.390529 91.769193 
L 206.50271 93.322817 
L 207.61489 95.25594 
L 209.28316 98.665333 
L 212.897746 106.612612 
L 214.566017 110.868313 
L 215.956242 115.04993 
L 217.346467 120.083225 
L 218.736693 126.130665 
L 220.404963 134.62179 
L 221.795189 142.760038 
L 222.907369 150.442629 
L 224.019549 159.989407 
L 224.853684 168.929895 
L 225.965865 183.745227 
L 227.078045 201.723809 
L 230.136541 253.410233 
L 230.970676 262.806231 
L 231.526766 266.894487 
L 232.082856 268.980683 
L 232.360901 269.214747 
L 232.638947 268.882124 
L 232.916992 267.964269 
L 233.195037 266.443807 
L 233.751127 261.530668 
L 234.307217 254.022941 
L 234.863307 243.828462 
L 235.697442 223.465296 
L 236.531578 197.428967 
L 237.921803 145.515459 
L 239.312028 94.455409 
L 240.146164 70.888583 
L 240.702254 59.818049 
L 241.258344 52.897019 
L 241.536389 50.99801 
L 241.814434 50.100994 
L 242.092479 50.154775 
L 242.370524 51.09386 
L 242.648569 52.84309 
L 243.204659 58.446122 
L 244.038795 70.928212 
L 245.150975 92.638927 
L 246.5412 125.204854 
L 249.599696 201.631448 
L 250.433831 216.857928 
L 251.267967 227.746888 
L 251.824057 232.640432 
L 252.380147 235.810295 
L 252.936237 237.411332 
L 253.214282 237.656816 
L 253.492327 237.539906 
L 253.770372 237.059969 
L 254.048417 236.212733 
L 254.604507 233.391036 
L 255.160598 229.035653 
L 255.994733 219.734553 
L 257.106913 203.493537 
L 258.775184 178.751512 
L 259.609319 169.433356 
L 260.443454 162.419208 
L 262.111724 149.803029 
L 262.94586 141.477349 
L 264.892175 120.814356 
L 265.448265 117.930167 
L 265.72631 117.500863 
L 266.004356 117.840953 
L 266.282401 118.994239 
L 266.560446 120.980021 
L 267.116536 127.401543 
L 267.672626 136.769357 
L 268.506761 154.828906 
L 270.731122 205.685101 
L 271.565257 219.605467 
L 272.399392 229.742602 
L 273.233527 236.639254 
L 273.789618 239.80453 
L 274.345708 242.056392 
L 274.901798 243.547229 
L 275.457888 244.387535 
L 276.013978 244.664229 
L 276.570068 244.459301 
L 277.126159 243.857378 
L 277.960294 242.404656 
L 279.072474 239.888278 
L 281.296835 234.220752 
L 282.965105 229.444386 
L 286.579691 218.786757 
L 287.969916 215.44935 
L 289.638187 212.053134 
L 291.028412 209.6869 
L 292.140593 208.153408 
L 292.974728 207.277549 
L 293.808863 206.713449 
L 294.364953 206.557959 
L 294.921043 206.61955 
L 295.477133 206.934994 
L 296.033224 207.536673 
L 296.589314 208.449526 
L 297.423449 210.42179 
L 298.257584 213.078041 
L 299.369764 217.4589 
L 301.87217 228.747661 
L 303.818486 237.090447 
L 305.486756 243.341496 
L 307.155027 248.691699 
L 308.545252 252.454261 
L 309.657432 254.939211 
L 310.769613 256.851592 
L 311.603748 257.845874 
L 312.437883 258.430204 
L 312.993973 258.595234 
L 313.828108 258.545283 
L 314.662244 258.223861 
L 317.998785 256.555987 
L 319.38901 256.295032 
L 322.169461 255.980979 
L 323.003596 255.661606 
L 323.837731 255.128375 
L 324.671866 254.360469 
L 325.784047 252.990373 
L 326.896227 251.254222 
L 328.008407 249.098748 
L 329.120587 246.400184 
L 330.232768 243.049966 
L 331.344948 239.034941 
L 332.735173 233.215757 
L 338.296075 208.750451 
L 344.413067 184.486168 
L 345.803292 180.472192 
L 347.193517 177.195375 
L 348.861788 173.89767 
L 351.642239 169.076428 
L 353.310509 165.938581 
L 354.700734 162.830405 
L 356.64705 157.806921 
L 363.042087 140.687848 
L 364.154267 138.517099 
L 365.266447 136.767357 
L 366.378628 135.365708 
L 367.490808 134.251515 
L 368.324943 133.639294 
L 369.159078 133.29447 
L 369.715168 133.254768 
L 370.271259 133.388661 
L 370.827349 133.699713 
L 371.661484 134.473816 
L 372.773664 135.95216 
L 374.441935 138.646576 
L 376.38825 142.133762 
L 377.778476 145.126809 
L 378.890656 148.126883 
L 380.002836 151.907796 
L 381.115016 156.721717 
L 382.227197 162.832699 
L 383.339377 170.37349 
L 386.675918 195.27198 
L 387.232008 197.720936 
L 387.788098 199.002625 
L 388.066143 199.134737 
L 388.344188 198.896452 
L 388.622233 198.26937 
L 389.178324 195.79528 
L 389.734414 191.64641 
L 390.290504 185.823493 
L 391.124639 174.094667 
L 391.958774 159.115232 
L 393.070955 134.993554 
L 396.685541 50.811383 
L 397.519676 39.0186 
L 398.075766 34.182522 
L 398.631856 31.790935 
L 398.909901 31.455847 
L 399.187946 31.643693 
L 399.465991 32.307036 
L 400.022082 34.849525 
L 400.578172 38.663161 
L 401.412307 45.999415 
L 402.524487 57.863452 
L 403.636668 72.107022 
L 405.026893 93.315935 
L 406.695163 118.628087 
L 407.529299 127.886776 
L 408.085389 132.030595 
L 408.641479 134.415715 
L 408.919524 134.956146 
L 409.197569 135.078668 
L 409.475614 134.801169 
L 409.753659 134.142511 
L 410.309749 131.753437 
L 410.865839 128.026184 
L 411.42193 123.019879 
L 412.256065 113.137354 
L 413.0902 100.501287 
L 414.480425 75.242917 
L 415.592606 55.688017 
L 416.426741 44.66658 
L 416.982831 39.897754 
L 417.538921 37.317344 
L 417.816966 36.790994 
L 418.095011 36.711736 
L 418.373056 37.018518 
L 418.929147 38.516066 
L 419.763282 41.983536 
L 421.153507 48.676798 
L 421.709597 52.016645 
L 422.265688 56.4252 
L 422.821778 62.459463 
L 423.377868 70.549152 
L 424.212003 86.821256 
L 425.324183 114.55135 
L 426.436364 143.769645 
L 426.436364 143.769645 
" clip-path="url(#pfbbc448c03)" style="fill: none; stroke-dasharray: 11.1,4.8; stroke-dashoffset: 0; stroke: #000000; stroke-width: 3"/>
   </g>
   <g id="line2d_2">
    <path d="M 27.163636 233.532617 
L 27.441681 210.440018 
L 27.719727 199.418922 
L 27.997772 214.058243 
L 28.275817 218.921114 
L 28.553862 219.791337 
L 28.831907 229.648166 
L 29.109952 230.054508 
L 29.666042 200.071187 
L 29.944087 198.533766 
L 30.222132 193.254158 
L 30.500177 192.408288 
L 30.778222 205.96382 
L 31.056267 225.875282 
L 31.334312 234.738073 
L 32.168448 199.786806 
L 32.446493 221.783171 
L 32.724538 232.271914 
L 33.002583 229.404928 
L 33.280628 254.262422 
L 33.558673 244.184267 
L 34.114763 209.512304 
L 34.392808 205.834441 
L 34.670853 209.638414 
L 34.948898 215.185223 
L 35.783034 251.033848 
L 36.339124 214.747989 
L 36.617169 205.653525 
L 36.895214 247.850759 
L 37.173259 254.370279 
L 37.451304 248.154905 
L 37.729349 229.789454 
L 38.007394 220.242187 
L 38.285439 225.428921 
L 38.563484 213.859172 
L 39.119575 203.281167 
L 39.39762 204.251828 
L 39.95371 226.522519 
L 40.231755 248.511905 
L 40.787845 218.882461 
L 41.06589 237.258991 
L 41.343935 273.636699 
L 41.62198 271.19621 
L 42.17807 262.82585 
L 42.734161 279.652563 
L 43.012206 275.246203 
L 43.290251 253.690587 
L 43.568296 244.83658 
L 43.846341 245.76444 
L 44.124386 257.932574 
L 44.402431 283.382451 
L 44.680476 294.789342 
L 44.958521 280.022301 
L 45.236566 272.676433 
L 45.514611 275.467139 
L 45.792656 271.505969 
L 46.348747 307.403398 
L 46.626792 316.472727 
L 46.904837 303.217681 
L 47.460927 241.237096 
L 47.738972 226.458489 
L 48.017017 226.81222 
L 48.295062 232.910269 
L 48.851152 304.374382 
L 49.407242 289.082261 
L 49.963332 234.616015 
L 50.241378 222.876964 
L 50.519423 232.683624 
L 50.797468 285.693658 
L 51.075513 304.458862 
L 51.353558 300.860842 
L 51.909648 236.295455 
L 52.187693 219.252297 
L 52.465738 213.491581 
L 52.743783 217.418246 
L 53.299873 308.487284 
L 53.577918 309.881953 
L 53.855964 304.185804 
L 54.134009 265.05004 
L 54.690099 232.91881 
L 54.968144 229.12738 
L 55.524234 284.130273 
L 55.802279 280.201851 
L 56.358369 211.461728 
L 56.636414 195.765754 
L 56.914459 202.863942 
L 57.192504 219.201249 
L 57.47055 289.580793 
L 57.748595 310.02939 
L 58.02664 305.617858 
L 58.58273 222.454225 
L 58.860775 196.192739 
L 59.13882 185.843917 
L 59.416865 187.69588 
L 59.69491 207.333356 
L 59.972955 218.872505 
L 60.251 223.111614 
L 60.529045 221.080834 
L 60.80709 214.45985 
L 61.085135 219.082753 
L 61.363181 227.459896 
L 61.919271 299.681203 
L 62.197316 304.901953 
L 62.475361 283.744771 
L 62.753406 229.016107 
L 63.309496 198.070616 
L 63.587541 190.918207 
L 63.865586 193.919843 
L 64.421676 235.905805 
L 64.699721 245.613685 
L 64.977767 249.952304 
L 65.255812 247.401323 
L 65.533857 235.774181 
L 65.811902 242.273935 
L 66.367992 250.205548 
L 66.646037 238.349807 
L 67.202127 228.602689 
L 67.480172 228.338123 
L 67.758217 221.618995 
L 68.036262 209.785753 
L 68.314307 204.381939 
L 68.870398 240.645446 
L 69.148443 241.955392 
L 69.426488 252.676539 
L 69.704533 252.581518 
L 69.982578 240.315678 
L 70.260623 240.428854 
L 70.538668 243.122538 
L 71.372803 226.740966 
L 72.206938 238.669668 
L 72.484984 230.051287 
L 73.041074 224.878608 
L 73.319119 232.135068 
L 73.597164 234.19962 
L 73.875209 239.174252 
L 74.153254 234.672042 
L 74.431299 219.129995 
L 74.709344 225.521356 
L 74.987389 249.670266 
L 75.265434 238.337753 
L 75.543479 209.950564 
L 75.821524 211.406336 
L 76.09957 226.035896 
L 76.377615 234.359062 
L 76.65566 232.778791 
L 77.21175 194.925789 
L 77.489795 184.395368 
L 78.045885 159.926646 
L 78.32393 163.916756 
L 78.601975 173.487985 
L 78.88002 172.344656 
L 79.158065 169.055223 
L 79.43611 163.020814 
L 79.714155 143.03029 
L 79.992201 135.675198 
L 80.270246 139.216459 
L 80.548291 140.370867 
L 80.826336 144.805533 
L 81.104381 154.764021 
L 81.382426 153.549926 
L 81.938516 120.160335 
L 82.216561 117.755961 
L 82.494606 114.355499 
L 82.772651 148.312631 
L 83.050696 157.207389 
L 83.606787 146.393856 
L 83.884832 108.432314 
L 84.162877 99.615301 
L 84.440922 108.804981 
L 84.997012 131.089387 
L 85.275057 134.394486 
L 85.553102 125.124572 
L 85.831147 123.302624 
L 86.387237 99.745754 
L 86.665282 97.665584 
L 86.943327 110.354359 
L 87.221372 147.629815 
L 87.499418 152.731923 
L 87.777463 152.840805 
L 88.055508 158.689027 
L 88.611598 112.923104 
L 88.889643 110.273393 
L 89.167688 126.923484 
L 89.445733 115.826742 
L 89.723778 122.161052 
L 90.001823 131.473083 
L 90.279868 133.18532 
L 90.557913 136.249327 
L 90.835958 141.980274 
L 91.392049 191.703072 
L 91.670094 183.946079 
L 91.948139 159.292927 
L 92.226184 152.294006 
L 92.504229 154.183205 
L 92.782274 148.910967 
L 93.338364 164.219585 
L 93.616409 170.795083 
L 94.172499 157.236378 
L 94.450544 155.340639 
L 95.006635 166.898285 
L 95.28468 176.308559 
L 95.562725 180.091399 
L 95.84077 176.984152 
L 96.118815 156.108325 
L 96.39686 148.136644 
L 96.674905 156.934233 
L 96.95295 173.42903 
L 97.230995 182.327693 
L 97.50904 179.501604 
L 97.787085 169.783817 
L 98.06513 168.239417 
L 98.343175 158.304501 
L 98.899266 162.102715 
L 99.177311 171.018117 
L 99.455356 170.045943 
L 99.733401 177.833779 
L 100.011446 197.045636 
L 100.289491 184.214452 
L 100.567536 148.330884 
L 100.845581 142.852595 
L 101.123626 144.323643 
L 101.401671 147.754705 
L 101.679716 161.392813 
L 101.957761 167.288375 
L 102.235807 155.152256 
L 102.513852 150.155711 
L 102.791897 150.618177 
L 103.069942 152.603715 
L 103.626032 158.510454 
L 103.904077 167.706771 
L 104.182122 163.316029 
L 104.460167 174.552301 
L 104.738212 164.214851 
L 105.016257 146.003181 
L 105.294302 136.272363 
L 105.572347 141.213613 
L 105.850393 139.848128 
L 106.406483 163.120472 
L 106.684528 161.304624 
L 106.962573 146.802784 
L 107.240618 149.760643 
L 107.518663 149.625798 
L 107.796708 141.377985 
L 108.074753 153.211471 
L 108.352798 170.781613 
L 108.630843 163.97005 
L 109.186933 172.004688 
L 109.464978 147.73123 
L 109.743024 143.827014 
L 110.299114 160.137723 
L 110.577159 151.094747 
L 110.855204 159.372282 
L 111.133249 162.311839 
L 111.411294 162.622476 
L 111.689339 162.622818 
L 111.967384 147.550607 
L 112.245429 147.88994 
L 112.523474 164.124271 
L 112.801519 165.722892 
L 113.079564 156.465228 
L 113.35761 152.46726 
L 114.191745 193.469041 
L 114.46979 193.155183 
L 114.747835 184.731188 
L 115.02588 168.869573 
L 115.303925 160.374519 
L 115.58197 164.292156 
L 115.860015 178.948607 
L 116.13806 178.061352 
L 116.972195 135.057975 
L 117.250241 140.96647 
L 117.528286 143.301981 
L 117.806331 159.030215 
L 118.362421 179.324153 
L 118.640466 173.250213 
L 118.918511 137.537848 
L 119.196556 117.789978 
L 119.474601 120.321534 
L 119.752646 130.949319 
L 120.030691 129.153726 
L 120.308736 137.251272 
L 120.586781 127.661546 
L 120.864827 130.987045 
L 121.142872 132.434032 
L 121.420917 118.866006 
L 121.698962 115.765981 
L 121.977007 129.005703 
L 122.255052 129.689007 
L 122.533097 139.057114 
L 122.811142 139.939587 
L 123.089187 110.895106 
L 123.367232 107.443059 
L 123.923322 124.399395 
L 124.201367 119.056976 
L 124.757458 105.580945 
L 125.035503 90.032408 
L 125.313548 88.354139 
L 125.591593 101.225928 
L 125.869638 97.013223 
L 126.147683 105.580945 
L 126.425728 106.271228 
L 126.703773 104.215802 
L 126.981818 111.540782 
L 127.259863 113.223297 
L 127.537908 97.001119 
L 127.815953 103.827909 
L 128.093998 106.536477 
L 128.372044 110.869387 
L 128.650089 98.839319 
L 128.928134 97.96402 
L 129.206179 99.721547 
L 129.484224 105.196907 
L 130.040314 123.597693 
L 130.318359 111.738145 
L 130.596404 89.823527 
L 130.874449 85.69125 
L 131.152494 85.855183 
L 131.430539 91.682468 
L 131.708584 102.261742 
L 132.264675 114.737927 
L 132.54272 113.707481 
L 132.820765 113.598892 
L 133.09881 111.933654 
L 133.376855 117.045083 
L 133.6549 113.093381 
L 133.932945 106.146192 
L 134.21099 107.219342 
L 134.489035 108.800589 
L 134.76708 99.123943 
L 135.045125 79.187396 
L 135.32317 79.392129 
L 135.601215 82.731293 
L 135.879261 100.71866 
L 136.157306 106.636184 
L 136.435351 104.557723 
L 136.713396 103.758217 
L 137.269486 111.241761 
L 137.547531 108.029194 
L 137.825576 114.372776 
L 138.103621 109.033139 
L 138.381666 100.287087 
L 138.659711 102.019138 
L 138.937756 106.016569 
L 139.215801 105.806371 
L 139.493847 103.979006 
L 139.771892 96.806392 
L 140.049937 107.683516 
L 140.327982 105.462254 
L 140.606027 88.266975 
L 140.884072 88.335984 
L 141.162117 100.4824 
L 141.718207 109.084774 
L 141.996252 114.663989 
L 142.274297 114.299131 
L 142.552342 102.807028 
L 142.830387 96.976961 
L 143.108433 103.536745 
L 143.386478 106.549313 
L 143.664523 107.945446 
L 143.942568 108.029633 
L 144.220613 104.263679 
L 144.498658 122.65036 
L 144.776703 100.246873 
L 145.054748 90.735526 
L 145.332793 104.200673 
L 145.610838 110.34289 
L 145.888883 113.536374 
L 146.166928 133.852567 
L 146.444973 135.82366 
L 146.723018 130.900418 
L 147.279109 88.550721 
L 147.557154 108.563987 
L 147.835199 114.594931 
L 148.113244 112.242046 
L 148.391289 110.993934 
L 148.669334 120.153405 
L 148.947379 117.004478 
L 149.225424 91.797499 
L 149.503469 90.479305 
L 149.781514 106.435404 
L 150.337604 114.993757 
L 150.61565 121.36096 
L 150.893695 122.694137 
L 151.17174 113.913726 
L 151.449785 111.671479 
L 151.72783 84.120789 
L 152.005875 90.735477 
L 152.28392 106.994746 
L 152.561965 116.03411 
L 152.84001 117.963719 
L 153.674145 84.42391 
L 153.95219 76.861792 
L 154.508281 103.488478 
L 154.786326 132.121199 
L 155.064371 115.215132 
L 155.342416 110.056118 
L 155.620461 111.77099 
L 155.898506 81.476983 
L 156.176551 67.469088 
L 156.732641 114.48971 
L 157.010686 109.801118 
L 157.288731 101.168681 
L 157.566776 96.381017 
L 157.844821 86.231754 
L 158.122867 63.058824 
L 158.400912 69.688446 
L 159.235047 124.528969 
L 160.069182 109.004247 
L 160.347227 65.206538 
L 160.625272 68.900604 
L 161.181362 99.930526 
L 161.459407 96.450025 
L 161.737453 99.474014 
L 162.293543 79.094376 
L 162.571588 66.164949 
L 162.849633 60.750252 
L 163.127678 76.532658 
L 163.405723 132.231935 
L 163.683768 137.684504 
L 163.961813 129.827317 
L 164.239858 116.436303 
L 164.517903 78.722783 
L 164.795948 64.613424 
L 165.073993 69.30719 
L 165.908129 109.985987 
L 166.464219 68.144046 
L 166.742264 70.901711 
L 167.020309 67.888411 
L 167.298354 69.777708 
L 167.854444 133.653837 
L 168.132489 134.121867 
L 168.410534 133.405621 
L 168.966624 61.891044 
L 169.24467 57.69542 
L 169.522715 66.184178 
L 169.80076 79.389054 
L 170.078805 87.058346 
L 170.35685 79.159773 
L 170.634895 84.644943 
L 170.91294 64.992045 
L 171.190985 56.408656 
L 171.46903 39.656174 
L 172.02512 124.732725 
L 172.303165 131.801289 
L 172.58121 129.562312 
L 173.137301 55.995775 
L 173.415346 48.301593 
L 173.693391 57.123975 
L 173.971436 78.183012 
L 174.527526 92.647322 
L 174.805571 82.477952 
L 175.083616 55.609541 
L 175.361661 42.752295 
L 175.639706 44.656184 
L 175.917751 67.556837 
L 176.195796 109.360809 
L 176.473841 127.264428 
L 176.751887 119.742183 
L 177.307977 69.222905 
L 177.586022 49.891918 
L 177.864067 52.466763 
L 178.420157 82.559845 
L 178.698202 86.390367 
L 178.976247 84.76666 
L 179.254292 52.559784 
L 179.532337 40.172764 
L 179.810382 50.638715 
L 180.088427 48.703786 
L 180.644518 117.308429 
L 180.922563 127.149837 
L 181.478653 66.874851 
L 181.756698 50.979806 
L 182.034743 45.663741 
L 182.312788 44.870873 
L 182.868878 81.277327 
L 183.146923 82.528708 
L 183.424968 73.194422 
L 183.703013 52.35471 
L 183.981058 41.33908 
L 184.259104 45.379263 
L 184.815194 97.710631 
L 185.093239 114.892977 
L 185.371284 115.418937 
L 185.927374 65.611903 
L 186.205419 60.361676 
L 186.483464 64.312938 
L 186.761509 75.950037 
L 187.039554 77.939627 
L 187.87369 67.499053 
L 188.42978 75.904991 
L 188.707825 97.506191 
L 188.98587 99.771474 
L 189.263915 107.66214 
L 189.54196 111.662987 
L 189.820005 97.260463 
L 190.09805 76.010359 
L 190.376095 68.135944 
L 190.65414 72.400187 
L 190.932185 80.812274 
L 191.21023 85.052846 
L 192.044366 79.307942 
L 192.322411 74.756733 
L 192.600456 75.878881 
L 192.878501 96.296586 
L 193.434591 107.819484 
L 193.712636 110.63913 
L 193.990681 109.069059 
L 194.268726 90.623618 
L 194.546771 80.022236 
L 194.824816 81.658729 
L 195.102861 87.28709 
L 195.380907 88.373904 
L 195.658952 81.524079 
L 195.936997 77.748266 
L 196.215042 89.309524 
L 196.493087 95.889659 
L 196.771132 89.705177 
L 197.049177 100.258195 
L 197.327222 118.650391 
L 197.605267 120.480489 
L 198.161357 111.064798 
L 198.439402 98.134981 
L 198.995493 95.363992 
L 199.273538 94.90094 
L 199.551583 96.140169 
L 199.829628 94.516121 
L 200.107673 95.637782 
L 200.385718 105.08583 
L 200.663763 119.219493 
L 200.941808 116.544843 
L 201.219853 107.951498 
L 201.497898 92.711987 
L 201.775943 110.409556 
L 202.332033 128.910633 
L 202.610079 126.935685 
L 202.888124 129.073687 
L 203.166169 134.120159 
L 203.444214 135.497308 
L 203.722259 117.675093 
L 204.000304 109.586234 
L 204.278349 105.579384 
L 204.556394 107.253358 
L 205.112484 158.999957 
L 205.390529 169.93589 
L 205.668574 168.538292 
L 205.946619 158.144961 
L 206.224664 135.473345 
L 206.50271 143.300127 
L 206.780755 132.936957 
L 207.0588 137.641313 
L 207.336845 172.018743 
L 207.61489 182.596017 
L 208.17098 164.826657 
L 208.449025 136.924627 
L 208.72707 140.580089 
L 209.005115 158.224365 
L 209.83925 179.573199 
L 210.673386 136.159284 
L 210.951431 128.300926 
L 211.229476 138.562731 
L 211.507521 174.265237 
L 211.785566 191.364421 
L 212.063611 197.0206 
L 212.619701 191.349146 
L 213.175791 165.620794 
L 213.453836 162.592364 
L 214.009927 188.159712 
L 214.287972 182.055904 
L 214.566017 168.184512 
L 214.844062 162.473771 
L 215.400152 140.415132 
L 215.678197 148.469535 
L 215.956242 177.318849 
L 216.234287 193.135662 
L 216.512332 195.024032 
L 217.068422 180.353525 
L 217.346467 182.728422 
L 217.902558 174.694223 
L 218.180603 172.643531 
L 218.458648 174.020924 
L 218.736693 171.395908 
L 219.292783 158.324706 
L 219.570828 162.55581 
L 219.848873 158.671506 
L 220.126918 169.683574 
L 220.404963 194.755757 
L 220.683008 203.038367 
L 220.961053 194.430137 
L 221.239099 193.227218 
L 221.517144 188.216764 
L 221.795189 177.0638 
L 222.073234 178.036511 
L 222.351279 182.65424 
L 222.629324 179.116541 
L 222.907369 179.445772 
L 223.185414 180.085836 
L 223.463459 182.785425 
L 223.741504 181.918569 
L 224.297594 173.829954 
L 224.575639 188.928862 
L 224.853684 220.290601 
L 225.13173 224.353283 
L 225.409775 215.472239 
L 225.68782 213.313349 
L 226.24391 224.632734 
L 226.521955 230.743961 
L 226.8 224.01839 
L 227.078045 225.346052 
L 227.35609 221.962769 
L 227.634135 209.088784 
L 228.190225 203.230703 
L 228.46827 204.980861 
L 228.746316 209.675114 
L 229.024361 211.832638 
L 229.580451 239.862387 
L 229.858496 240.050087 
L 230.136541 234.470286 
L 230.414586 219.64146 
L 230.692631 197.247197 
L 230.970676 209.75486 
L 231.248721 245.733986 
L 231.804811 180.805254 
L 232.082856 185.90907 
L 232.360901 181.447319 
L 232.638947 172.62728 
L 232.916992 199.646495 
L 233.195037 200.383922 
L 233.473082 186.725706 
L 233.751127 180.473339 
L 234.029172 183.497425 
L 234.863307 201.930762 
L 235.141352 224.203845 
L 235.419397 236.510485 
L 235.697442 232.848532 
L 235.975487 214.424028 
L 237.087668 193.457475 
L 237.365713 181.781626 
L 237.643758 177.2984 
L 237.921803 184.709519 
L 238.199848 179.428984 
L 238.477893 157.077473 
L 238.755938 158.113141 
L 239.312028 147.454414 
L 239.590073 153.104736 
L 239.868119 188.114276 
L 240.424209 174.670602 
L 240.702254 174.41609 
L 240.980299 185.822785 
L 241.258344 144.754484 
L 241.536389 122.514734 
L 241.814434 128.90424 
L 242.370524 181.704223 
L 242.648569 181.483726 
L 243.204659 146.743146 
L 243.482704 149.247519 
L 243.76075 174.827507 
L 244.038795 183.613432 
L 244.31684 196.91001 
L 245.42902 173.674124 
L 245.98511 171.400007 
L 246.263155 174.604131 
L 246.5412 194.055811 
L 246.819245 204.197948 
L 247.09729 191.000881 
L 247.375336 168.872794 
L 247.653381 167.529564 
L 248.765561 194.833989 
L 249.321651 189.460922 
L 249.599696 183.879218 
L 250.155786 154.799892 
L 250.433831 159.344708 
L 250.989921 195.153021 
L 251.267967 199.573923 
L 251.824057 169.110323 
L 252.102102 159.656174 
L 252.380147 160.833715 
L 252.658192 169.195778 
L 252.936237 185.219081 
L 253.214282 174.08598 
L 253.492327 170.730515 
L 253.770372 160.047679 
L 254.048417 170.890055 
L 254.326462 160.698284 
L 254.604507 156.860247 
L 255.160598 184.469794 
L 255.438643 188.623544 
L 256.272778 169.325109 
L 256.550823 167.843178 
L 257.106913 180.399352 
L 257.384958 188.303098 
L 257.663003 185.613075 
L 258.219093 164.454819 
L 258.497139 161.015656 
L 258.775184 160.952846 
L 259.053229 164.932024 
L 259.331274 171.2065 
L 259.609319 171.501422 
L 259.887364 158.695323 
L 260.165409 162.157277 
L 260.443454 160.953919 
L 260.721499 163.478302 
L 260.999544 168.972159 
L 262.111724 249.029373 
L 262.38977 239.749992 
L 262.667815 222.928989 
L 262.94586 214.633202 
L 263.223905 202.307675 
L 263.50195 195.062294 
L 263.779995 196.320947 
L 264.336085 178.724597 
L 264.61413 177.498301 
L 264.892175 169.911146 
L 265.17022 172.847776 
L 265.448265 180.829998 
L 266.838491 246.393035 
L 267.116536 230.859089 
L 267.672626 220.658143 
L 268.506761 180.480171 
L 268.784806 183.30543 
L 269.618942 216.614202 
L 269.896987 232.530867 
L 270.175032 219.906709 
L 271.009167 233.70548 
L 271.287212 260.830063 
L 271.565257 272.011236 
L 271.843302 240.853107 
L 272.121347 225.96147 
L 272.677437 211.771828 
L 272.955482 208.471805 
L 273.233527 215.539783 
L 273.789618 245.975175 
L 274.067663 247.191271 
L 274.345708 223.609511 
L 274.623753 213.150783 
L 274.901798 228.242906 
L 275.179843 250.027121 
L 275.457888 253.21836 
L 275.735933 262.973678 
L 276.013978 267.18365 
L 276.292023 255.391452 
L 276.570068 249.119417 
L 276.848113 247.146225 
L 277.126159 240.362432 
L 277.404204 225.586704 
L 277.682249 233.251067 
L 277.960294 252.885566 
L 278.238339 262.517703 
L 278.516384 257.2991 
L 278.794429 244.657226 
L 279.072474 238.804269 
L 279.350519 225.19271 
L 279.628564 226.003587 
L 280.462699 253.016507 
L 280.740744 258.606947 
L 281.296835 200.852342 
L 281.57488 184.875892 
L 281.852925 202.093963 
L 282.13097 208.233056 
L 282.409015 197.133288 
L 282.68706 194.660784 
L 282.965105 197.849486 
L 283.24315 227.60133 
L 283.521195 218.561917 
L 283.79924 202.195035 
L 284.077285 194.933549 
L 284.35533 194.919787 
L 284.633376 193.035175 
L 284.911421 198.272079 
L 285.189466 213.203101 
L 285.467511 205.33425 
L 285.745556 190.613183 
L 286.023601 184.797366 
L 286.301646 193.419164 
L 286.579691 209.751444 
L 286.857736 211.737861 
L 287.135781 196.865111 
L 287.413826 197.682723 
L 287.691871 204.685548 
L 288.247962 185.291799 
L 288.804052 201.274496 
L 289.082097 201.87454 
L 289.360142 199.698422 
L 289.638187 201.310416 
L 290.194277 171.522164 
L 290.472322 163.538819 
L 290.750367 172.713516 
L 291.028412 195.140087 
L 291.306457 185.051293 
L 291.584502 180.771043 
L 291.862547 199.833951 
L 292.140593 200.249858 
L 292.418638 181.854343 
L 292.696683 179.361732 
L 292.974728 185.825909 
L 293.252773 199.722727 
L 293.530818 196.168728 
L 294.086908 202.275074 
L 294.364953 184.107718 
L 294.921043 170.983027 
L 295.477133 174.342591 
L 296.033224 165.35735 
L 296.311269 198.500676 
L 296.589314 199.768505 
L 297.145404 172.309176 
L 297.423449 198.039187 
L 297.701494 194.456589 
L 297.979539 189.27537 
L 298.257584 187.111599 
L 298.535629 201.709339 
L 299.369764 176.071372 
L 299.64781 186.836735 
L 299.925855 176.221737 
L 300.2039 177.841051 
L 300.481945 171.518455 
L 300.75999 178.775499 
L 301.31608 174.182758 
L 301.594125 185.4468 
L 301.87217 209.935922 
L 302.150215 217.331229 
L 302.42826 215.020607 
L 302.706305 203.313572 
L 302.98435 198.802089 
L 303.540441 176.812508 
L 303.818486 175.796606 
L 304.096531 174.081539 
L 304.374576 176.780249 
L 304.652621 177.842954 
L 304.930666 162.878014 
L 305.208711 174.286564 
L 305.486756 175.045074 
L 305.764801 185.324936 
L 306.320891 233.630664 
L 306.598936 246.937833 
L 306.876982 228.197763 
L 307.155027 222.356812 
L 307.711117 188.06186 
L 307.989162 186.457529 
L 308.267207 191.587894 
L 308.545252 192.705504 
L 308.823297 199.405111 
L 309.101342 191.967638 
L 309.379387 188.098609 
L 310.213522 228.70547 
L 310.491567 231.340637 
L 310.769613 245.12628 
L 311.047658 229.615712 
L 311.325703 203.67272 
L 311.603748 198.73391 
L 311.881793 202.750863 
L 312.159838 200.456737 
L 312.715928 208.570145 
L 312.993973 222.274285 
L 313.272018 206.873672 
L 313.550063 202.857793 
L 313.828108 190.605179 
L 314.384199 200.435069 
L 314.940289 234.31753 
L 315.218334 257.781282 
L 315.496379 249.161925 
L 315.774424 234.331342 
L 316.052469 231.683339 
L 316.330514 232.46386 
L 316.608559 208.90655 
L 316.886604 206.093541 
L 317.442694 243.444107 
L 317.720739 223.328303 
L 317.998785 225.86025 
L 318.27683 225.127215 
L 319.110965 244.749026 
L 319.38901 236.323176 
L 319.667055 237.743955 
L 319.9451 241.637434 
L 320.223145 252.713484 
L 320.50119 247.137001 
L 320.779235 197.130165 
L 321.05728 193.438881 
L 321.61337 240.816308 
L 321.891416 231.619503 
L 322.169461 227.733149 
L 322.447506 231.872844 
L 322.725551 244.926135 
L 323.003596 249.706577 
L 323.281641 246.979999 
L 323.837731 227.56663 
L 324.115776 230.483982 
L 324.393821 246.852231 
L 324.671866 248.123085 
L 324.949911 192.90887 
L 325.227956 172.155931 
L 325.506002 186.009802 
L 325.784047 226.932814 
L 326.062092 237.439761 
L 326.340137 236.11244 
L 326.618182 239.120958 
L 326.896227 250.270262 
L 327.174272 245.915195 
L 327.452317 230.675342 
L 328.008407 219.178213 
L 328.286452 221.103772 
L 328.564497 215.795662 
L 328.842542 203.332655 
L 329.120587 167.639226 
L 329.398633 151.511484 
L 329.676678 144.753508 
L 329.954723 155.868746 
L 330.232768 180.475145 
L 330.510813 194.567325 
L 330.788858 199.016436 
L 331.066903 207.518079 
L 331.344948 207.549264 
L 331.622993 191.24695 
L 332.457128 168.028291 
L 332.735173 178.242073 
L 333.013219 194.795337 
L 333.291264 184.969888 
L 333.569309 157.93486 
L 333.847354 150.707244 
L 334.125399 137.195977 
L 334.403444 155.048011 
L 334.681489 186.820337 
L 334.959534 186.065341 
L 335.515624 176.053607 
L 336.071714 154.104241 
L 336.349759 155.000183 
L 336.627805 145.54906 
L 336.90585 141.150607 
L 337.46194 161.468361 
L 337.739985 151.381519 
L 338.01803 124.157571 
L 338.296075 125.273863 
L 338.57412 128.781352 
L 338.852165 167.004483 
L 339.13021 165.898537 
L 339.408255 163.93335 
L 339.6863 166.680229 
L 339.964345 165.639583 
L 340.24239 155.670798 
L 340.520436 149.907738 
L 340.798481 141.025767 
L 341.076526 140.497611 
L 341.354571 144.489771 
L 341.632616 157.017639 
L 341.910661 160.133672 
L 342.466751 120.802936 
L 342.744796 122.573738 
L 343.022841 168.488317 
L 343.300886 176.508021 
L 343.856976 148.187693 
L 344.135022 143.09598 
L 344.413067 144.116421 
L 344.691112 150.328477 
L 344.969157 145.653549 
L 345.525247 152.908252 
L 345.803292 141.45856 
L 346.081337 147.702094 
L 346.359382 148.463386 
L 346.637427 135.025618 
L 346.915472 139.034469 
L 347.193517 167.126444 
L 347.471562 170.678149 
L 348.027653 110.019418 
L 348.305698 110.578857 
L 348.583743 121.216745 
L 348.861788 124.653761 
L 349.139833 118.194952 
L 349.417878 89.828212 
L 349.695923 93.158884 
L 349.973968 88.284251 
L 350.252013 102.698391 
L 350.530058 135.635325 
L 350.808103 115.818104 
L 351.086148 112.915442 
L 351.364193 127.240905 
L 351.642239 151.284692 
L 351.920284 128.97442 
L 352.198329 122.588916 
L 352.476374 107.738371 
L 353.032464 134.558906 
L 353.310509 128.273889 
L 353.866599 96.140218 
L 354.422689 106.966391 
L 354.700734 145.082104 
L 355.256825 137.026823 
L 355.53487 152.329535 
L 355.812915 157.483082 
L 356.09096 117.343715 
L 356.369005 119.233061 
L 356.64705 127.150715 
L 356.925095 130.811009 
L 357.20314 129.932099 
L 357.481185 136.026391 
L 357.75923 131.879425 
L 358.037275 130.716915 
L 358.593365 111.204328 
L 358.87141 117.154209 
L 359.149456 140.038219 
L 359.427501 137.522085 
L 359.983591 167.630246 
L 360.261636 136.682901 
L 360.539681 120.267118 
L 360.817726 139.656914 
L 361.095771 144.252243 
L 361.373816 137.975473 
L 361.651861 135.048117 
L 361.929906 118.758296 
L 362.207951 120.886147 
L 362.485996 125.981373 
L 362.764042 120.365409 
L 363.042087 131.112569 
L 363.320132 158.006016 
L 363.598177 152.729532 
L 363.876222 157.980492 
L 364.154267 143.59134 
L 364.432312 183.678634 
L 364.988402 157.75165 
L 365.544492 140.90078 
L 365.822537 146.492977 
L 366.100582 155.447227 
L 366.378628 129.85372 
L 366.656673 122.411416 
L 368.324943 180.703498 
L 368.602988 180.988952 
L 368.881033 182.033893 
L 369.159078 172.896775 
L 369.437123 154.834152 
L 369.715168 147.629571 
L 369.993213 146.12441 
L 370.549304 154.317904 
L 370.827349 138.772002 
L 371.105394 151.619536 
L 371.383439 174.966256 
L 371.661484 178.103616 
L 371.939529 176.855163 
L 372.217574 166.215616 
L 372.495619 173.59428 
L 372.773664 176.48113 
L 373.051709 156.989723 
L 373.329754 157.336524 
L 373.607799 155.924529 
L 373.885845 142.399792 
L 374.16389 144.042971 
L 374.71998 160.154853 
L 374.998025 151.070687 
L 375.27607 158.752131 
L 375.554115 182.179963 
L 375.83216 196.091325 
L 376.110205 200.63697 
L 376.38825 179.999502 
L 376.666295 180.057383 
L 376.94434 185.637574 
L 377.222385 149.739755 
L 377.778476 138.388305 
L 378.056521 136.780021 
L 378.334566 139.234468 
L 379.168701 190.671894 
L 379.724791 201.512513 
L 380.002836 210.553341 
L 380.280881 205.79735 
L 380.836971 180.239031 
L 381.671107 183.338666 
L 381.949152 182.197874 
L 382.783287 158.193082 
L 383.061332 154.006535 
L 383.339377 164.699425 
L 383.895467 196.501522 
L 384.173512 195.83852 
L 384.451557 198.663389 
L 385.007648 191.771251 
L 385.285693 182.422519 
L 385.563738 182.348239 
L 385.841783 178.387948 
L 386.119828 166.248119 
L 386.397873 162.794217 
L 386.953963 138.708166 
L 387.232008 140.392585 
L 387.510053 150.846189 
L 388.066143 193.35933 
L 388.344188 202.118413 
L 388.622233 205.649523 
L 388.900279 190.327582 
L 389.178324 157.688986 
L 389.456369 145.319731 
L 389.734414 149.945756 
L 390.012459 159.470671 
L 390.290504 164.41602 
L 390.846594 149.481387 
L 391.680729 117.034102 
L 391.958774 119.085722 
L 392.514865 156.801584 
L 392.79291 151.118271 
L 393.349 127.633289 
L 393.627045 117.967721 
L 393.90509 116.710679 
L 394.183135 114.402595 
L 394.739225 96.14871 
L 395.295315 64.86657 
L 395.57336 60.728242 
L 395.851405 65.007076 
L 396.12945 64.68214 
L 396.407496 66.594131 
L 396.685541 72.407703 
L 396.963586 69.529589 
L 397.241631 68.841698 
L 397.519676 66.859088 
L 397.797721 62.565026 
L 398.353811 72.418391 
L 398.631856 70.891755 
L 398.909901 62.880299 
L 399.187946 60.580659 
L 399.465991 59.428984 
L 399.744036 50.566339 
L 400.022082 58.038707 
L 400.300127 54.970356 
L 400.578172 55.590312 
L 401.412307 77.074724 
L 401.690352 84.866757 
L 401.968397 84.005758 
L 402.524487 61.439266 
L 402.802532 58.467986 
L 403.080577 52.749387 
L 403.358622 55.060692 
L 403.914713 80.926817 
L 404.192758 80.740727 
L 404.470803 79.285199 
L 404.748848 75.541305 
L 405.026893 75.173469 
L 405.304938 75.56761 
L 405.861028 95.520408 
L 406.417118 90.739137 
L 406.695163 91.629614 
L 406.973208 91.85909 
L 407.251253 88.05907 
L 407.529299 78.960312 
L 407.807344 78.906871 
L 408.085389 85.461384 
L 408.363434 85.200137 
L 408.641479 80.981233 
L 408.919524 85.297256 
L 409.475614 90.736258 
L 409.753659 89.498054 
L 410.031704 91.857381 
L 410.309749 98.108773 
L 410.587794 87.657023 
L 410.865839 82.474926 
L 411.143885 87.586014 
L 411.42193 87.557708 
L 411.699975 88.105531 
L 411.97802 83.922255 
L 412.256065 84.760853 
L 412.53411 83.686483 
L 413.0902 68.619006 
L 413.64629 42.924621 
L 413.924335 40.907165 
L 414.20238 43.166591 
L 414.75847 86.088368 
L 415.036516 84.449532 
L 415.314561 88.493474 
L 415.592606 75.607873 
L 415.870651 44.962575 
L 416.704786 26.126215 
L 416.982831 27.118692 
L 417.260876 30.403928 
L 417.538921 27.316104 
L 417.816966 35.136004 
L 418.095011 37.045213 
L 418.373056 21.927273 
L 418.651102 27.964122 
L 418.929147 37.91895 
L 419.207192 55.554734 
L 419.485237 53.294234 
L 420.041327 38.744712 
L 420.319372 37.92466 
L 420.597417 39.879111 
L 420.875462 38.220412 
L 421.431552 49.98118 
L 421.709597 59.2692 
L 421.987642 87.01574 
L 422.265688 94.158633 
L 422.543733 94.750185 
L 423.099823 65.298973 
L 423.377868 61.6011 
L 423.655913 77.09283 
L 423.933958 74.59363 
L 424.212003 80.521012 
L 424.768093 119.911533 
L 425.046138 115.694386 
L 425.324183 104.976558 
L 425.602228 104.037863 
L 426.436364 124.84639 
L 426.436364 124.84639 
" clip-path="url(#pfbbc448c03)" style="fill: none; stroke: #ff00ff; stroke-width: 3; stroke-linecap: square"/>
   </g>
   <g id="patch_3">
    <path d="M 7.2 331.2 
L 7.2 7.2 
" style="fill: none; stroke: #000000; stroke-width: 0.8; stroke-linejoin: miter; stroke-linecap: square"/>
   </g>
   <g id="patch_4">
    <path d="M 446.4 331.2 
L 446.4 7.2 
" style="fill: none; stroke: #000000; stroke-width: 0.8; stroke-linejoin: miter; stroke-linecap: square"/>
   </g>
   <g id="patch_5">
    <path d="M 7.2 331.2 
L 446.4 331.2 
" style="fill: none; stroke: #000000; stroke-width: 0.8; stroke-linejoin: miter; stroke-linecap: square"/>
   </g>
   <g id="patch_6">
    <path d="M 7.2 7.2 
L 446.4 7.2 
" style="fill: none; stroke: #000000; stroke-width: 0.8; stroke-linejoin: miter; stroke-linecap: square"/>
   </g>
  </g>
 </g>
 <defs>
  <clipPath id="pfbbc448c03">
   <rect x="7.2" y="7.2" width="439.2" height="324"/>
  </clipPath>
 </defs>
</svg>
