<?xml version="1.0" encoding="utf-8" standalone="no"?>
<!DOCTYPE svg PUBLIC "-//W3C//DTD SVG 1.1//EN"
  "http://www.w3.org/Graphics/SVG/1.1/DTD/svg11.dtd">
<svg xmlns:xlink="http://www.w3.org/1999/xlink" width="453.6pt" height="338.4pt" viewBox="0 0 453.6 338.4" xmlns="http://www.w3.org/2000/svg" version="1.1">
 <metadata>
  <rdf:RDF xmlns:dc="http://purl.org/dc/elements/1.1/" xmlns:cc="http://creativecommons.org/ns#" xmlns:rdf="http://www.w3.org/1999/02/22-rdf-syntax-ns#">
   <cc:Work>
    <dc:type rdf:resource="http://purl.org/dc/dcmitype/StillImage"/>
    <dc:date>2025-05-15T18:30:45.950072</dc:date>
    <dc:format>image/svg+xml</dc:format>
    <dc:creator>
     <cc:Agent>
      <dc:title>Matplotlib v3.10.1, https://matplotlib.org/</dc:title>
     </cc:Agent>
    </dc:creator>
   </cc:Work>
  </rdf:RDF>
 </metadata>
 <defs>
  <style type="text/css">*{stroke-linejoin: round; stroke-linecap: butt}</style>
 </defs>
 <g id="figure_1">
  <g id="patch_1">
   <path d="M 0 338.4 
L 453.6 338.4 
L 453.6 0 
L 0 0 
z
" style="fill: #ffffff"/>
  </g>
  <g id="axes_1">
   <g id="patch_2">
    <path d="M 7.2 331.2 
L 446.4 331.2 
L 446.4 7.2 
L 7.2 7.2 
z
" style="fill: #ffffff"/>
   </g>
   <g id="matplotlib.axis_1"/>
   <g id="matplotlib.axis_2"/>
   <g id="line2d_1">
    <path d="M 27.163636 49.871682 
L 27.441681 53.042872 
L 27.997772 66.65232 
L 28.553862 88.070323 
L 29.944087 157.106773 
L 30.778222 194.915841 
L 31.334312 213.999527 
L 31.890403 226.786914 
L 32.168448 230.680578 
L 32.446493 232.921763 
L 32.724538 233.571699 
L 33.002583 232.726048 
L 33.280628 230.510604 
L 33.836718 222.594064 
L 34.670853 204.747585 
L 36.339124 166.213722 
L 36.895214 156.975663 
L 37.451304 150.617712 
L 38.007394 147.160123 
L 38.285439 146.422753 
L 38.563484 146.258349 
L 38.84153 146.585385 
L 39.119575 147.315286 
L 39.675665 149.625001 
L 42.456115 163.282724 
L 43.290251 167.394299 
L 44.124386 172.66337 
L 45.236566 181.591779 
L 46.348747 190.682988 
L 46.904837 194.132559 
L 47.460927 196.188874 
L 47.738972 196.562455 
L 48.017017 196.44527 
L 48.295062 195.809766 
L 48.573107 194.640498 
L 49.129197 190.706788 
L 49.685287 184.801032 
L 50.519423 173.157595 
L 52.187693 148.703394 
L 52.743783 143.260804 
L 53.299873 140.339343 
L 53.577918 139.944832 
L 53.855964 140.285456 
L 54.134009 141.352984 
L 54.690099 145.527857 
L 55.246189 151.995819 
L 56.358369 168.73447 
L 57.47055 184.529993 
L 58.02664 190.05297 
L 58.58273 193.272899 
L 58.860775 193.935452 
L 59.13882 193.953512 
L 59.416865 193.33666 
L 59.69491 192.109834 
L 60.251 187.990325 
L 61.085135 178.559505 
L 63.309496 150.074242 
L 63.865586 145.73927 
L 64.421676 143.390268 
L 64.699721 142.992593 
L 64.977767 143.098721 
L 65.255812 143.680338 
L 65.811902 146.083649 
L 66.646037 151.805716 
L 67.758217 160.000637 
L 68.314307 162.890999 
L 68.592352 163.802774 
L 68.870398 164.29742 
L 69.148443 164.343712 
L 69.426488 163.923418 
L 69.704533 163.031814 
L 70.260623 159.879655 
L 70.816713 155.101602 
L 71.650848 145.781763 
L 73.041074 129.39036 
L 73.597164 124.446089 
L 74.153254 121.330432 
L 74.431299 120.603864 
L 74.709344 120.488072 
L 74.987389 121.008629 
L 75.265434 122.178023 
L 75.821524 126.434803 
L 76.377615 133.049108 
L 77.21175 146.339496 
L 79.158065 179.249613 
L 79.714155 185.076417 
L 79.992201 186.898996 
L 80.270246 187.908081 
L 80.548291 188.062779 
L 80.826336 187.343174 
L 81.104381 185.752346 
L 81.660471 180.088723 
L 82.216561 171.574616 
L 83.328741 149.730538 
L 84.162877 134.077266 
L 84.718967 126.511899 
L 84.997012 124.03875 
L 85.275057 122.596502 
L 85.553102 122.272041 
L 85.831147 123.12457 
L 86.109192 125.182489 
L 86.665282 132.870061 
L 87.221372 144.928812 
L 88.055508 169.180336 
L 90.001823 229.207019 
L 90.557913 240.235249 
L 91.114004 246.267515 
L 91.392049 247.202204 
L 91.670094 246.702831 
L 91.948139 244.777837 
L 92.504229 236.8648 
L 93.060319 224.236627 
L 93.894454 199.370952 
L 95.28468 157.126269 
L 95.84077 145.37223 
L 96.39686 138.761765 
L 96.674905 137.645498 
L 96.95295 138.045705 
L 97.230995 139.950529 
L 97.50904 143.304901 
L 98.06513 153.935921 
L 98.899266 177.142154 
L 100.289491 219.545924 
L 100.845581 231.810096 
L 101.401671 238.669192 
L 101.679716 239.663844 
L 101.957761 238.890648 
L 102.235807 236.293352 
L 102.513852 231.86124 
L 103.069942 217.68794 
L 103.626032 197.239228 
L 104.738212 144.527719 
L 105.850393 92.588478 
L 106.406483 73.559987 
L 106.962573 62.07454 
L 107.240618 59.596496 
L 107.518663 59.412639 
L 107.796708 61.532125 
L 108.074753 65.900645 
L 108.630843 80.86132 
L 109.464978 115.486454 
L 111.411294 207.404211 
L 111.967384 224.308153 
L 112.523474 233.275131 
L 112.801519 234.456974 
L 113.079564 233.369865 
L 113.35761 230.031824 
L 113.9137 216.950232 
L 114.46979 196.441346 
L 115.58197 141.802901 
L 116.69415 88.171134 
L 117.250241 69.19307 
L 117.806331 58.63134 
L 118.084376 56.972152 
L 118.362421 57.845484 
L 118.640466 61.251802 
L 119.196556 75.311083 
L 119.752646 97.772941 
L 120.864827 157.975295 
L 121.977007 217.372002 
L 122.533097 238.912338 
L 123.089187 251.768423 
L 123.367232 254.459398 
L 123.645277 254.522906 
L 123.923322 251.93692 
L 124.201367 246.744565 
L 124.757458 229.034766 
L 125.313548 202.98902 
L 126.425728 136.399935 
L 127.537908 72.756872 
L 128.093998 50.418063 
L 128.650089 37.851711 
L 128.928134 35.710662 
L 129.206179 36.439339 
L 129.484224 40.0204 
L 129.762269 46.358729 
L 130.318359 66.550454 
L 131.152494 111.094134 
L 132.820765 210.154686 
L 133.376855 233.347964 
L 133.932945 247.047843 
L 134.21099 249.848365 
L 134.489035 249.823299 
L 134.76708 246.967287 
L 135.045125 241.347044 
L 135.601215 222.42831 
L 136.435351 178.827463 
L 138.381666 62.408031 
L 138.937756 41.241614 
L 139.215801 34.477463 
L 139.493847 30.534765 
L 139.771892 29.524879 
L 140.049937 31.479159 
L 140.327982 36.346799 
L 140.884072 54.223196 
L 141.440162 81.231988 
L 142.552342 150.422377 
L 143.664523 215.41308 
L 144.220613 237.699563 
L 144.776703 249.830009 
L 145.054748 251.642039 
L 145.332793 250.522143 
L 145.610838 246.490111 
L 146.166928 230.131918 
L 146.723018 204.148034 
L 147.557154 152.985914 
L 148.947379 65.089048 
L 149.503469 39.899122 
L 150.059559 24.965918 
L 150.337604 21.927273 
L 150.61565 21.995296 
L 150.893695 25.181045 
L 151.17174 31.410165 
L 151.72783 52.290057 
L 152.561965 100.095062 
L 154.508281 225.981773 
L 155.064371 248.744124 
L 155.342416 256.072759 
L 155.620461 260.420771 
L 155.898506 261.672748 
L 156.176551 259.791175 
L 156.454596 254.819095 
L 157.010686 236.168319 
L 157.566776 207.592964 
L 158.678957 133.167642 
L 159.791137 62.193116 
L 160.347227 37.912223 
L 160.903317 25.154966 
L 161.181362 23.653556 
L 161.459407 25.526394 
L 161.737453 30.750566 
L 162.293543 50.699483 
L 162.849633 81.538853 
L 163.961813 162.475389 
L 165.073993 241.183821 
L 165.630084 269.559917 
L 166.186174 286.564881 
L 166.464219 290.240634 
L 166.742264 290.560581 
L 167.020309 287.527083 
L 167.298354 281.22631 
L 167.854444 259.572209 
L 168.410534 227.830811 
L 169.80076 127.108538 
L 170.634895 72.344933 
L 171.190985 46.082838 
L 171.747075 31.114651 
L 172.02512 28.328224 
L 172.303165 28.752315 
L 172.58121 32.337638 
L 172.859256 38.951099 
L 173.415346 60.330912 
L 174.249481 107.571138 
L 175.917751 211.556677 
L 176.473841 235.645611 
L 177.029932 249.880984 
L 177.307977 252.858696 
L 177.586022 252.982801 
L 177.864067 250.274566 
L 178.142112 244.827546 
L 178.698202 226.431394 
L 179.532337 184.315795 
L 181.478653 73.969182 
L 182.034743 54.198215 
L 182.312788 47.877989 
L 182.590833 44.16278 
L 182.868878 43.135973 
L 183.146923 44.809213 
L 183.424968 49.121357 
L 183.981058 65.070776 
L 184.537149 89.183468 
L 185.649329 150.934409 
L 186.761509 209.573575 
L 187.317599 230.553224 
L 187.87369 243.380277 
L 188.151735 246.437321 
L 188.42978 247.217269 
L 188.707825 245.765231 
L 188.98587 242.182862 
L 189.54196 229.294875 
L 190.376095 199.274698 
L 192.044366 131.521071 
L 192.600456 115.751669 
L 193.156546 106.493397 
L 193.434591 104.604144 
L 193.712636 104.601359 
L 193.990681 106.466222 
L 194.268726 110.130202 
L 194.824816 122.353146 
L 195.658952 150.035082 
L 197.605267 222.422318 
L 198.161357 236.206002 
L 198.717447 244.466288 
L 198.995493 246.371154 
L 199.273538 246.788536 
L 199.551583 245.761897 
L 199.829628 243.369136 
L 200.385718 234.947358 
L 201.219853 215.561027 
L 203.166169 164.685474 
L 203.722259 154.650673 
L 204.278349 148.136968 
L 204.556394 146.280376 
L 204.834439 145.34995 
L 205.112484 145.310959 
L 205.390529 146.107364 
L 205.668574 147.663842 
L 206.224664 152.674407 
L 207.0588 163.190057 
L 208.17098 177.354875 
L 208.72707 182.233317 
L 209.005115 183.75169 
L 209.28316 184.551809 
L 209.561205 184.577213 
L 209.83925 183.792159 
L 210.117296 182.182384 
L 210.673386 176.550072 
L 211.229476 168.0428 
L 212.341656 145.708549 
L 213.453836 124.611042 
L 214.009927 118.078179 
L 214.287972 116.382489 
L 214.566017 115.90046 
L 214.844062 116.722901 
L 215.122107 118.908301 
L 215.678197 127.427176 
L 216.234287 141.202885 
L 217.068422 169.734735 
L 219.014738 244.017637 
L 219.570828 258.546583 
L 220.126918 267.110273 
L 220.404963 268.859639 
L 220.683008 268.843815 
L 220.961053 267.060226 
L 221.239099 263.551578 
L 221.795189 251.755636 
L 222.629324 224.68591 
L 224.575639 154.429554 
L 225.13173 142.862834 
L 225.409775 139.668772 
L 225.68782 138.378944 
L 225.965865 139.065128 
L 226.24391 141.746018 
L 226.521955 146.385787 
L 227.078045 161.133319 
L 227.91218 194.105257 
L 229.858496 280.500375 
L 230.414586 295.892948 
L 230.692631 300.683323 
L 230.970676 303.316023 
L 231.248721 303.691713 
L 231.526766 301.768448 
L 231.804811 297.563404 
L 232.360901 282.67071 
L 232.916992 260.302574 
L 234.029172 202.10653 
L 235.141352 145.177992 
L 235.697442 124.372622 
L 236.253533 111.600005 
L 236.531578 108.629889 
L 236.809623 108.030254 
L 237.087668 109.791266 
L 237.365713 113.83887 
L 237.921803 128.195647 
L 238.477893 149.368099 
L 240.980299 257.403731 
L 241.536389 268.285069 
L 241.814434 270.498657 
L 242.092479 270.445572 
L 242.370524 268.112521 
L 242.648569 263.544868 
L 243.204659 248.178163 
L 243.76075 225.830451 
L 245.150975 155.416822 
L 245.98511 117.96513 
L 246.5412 100.864123 
L 246.819245 95.466982 
L 247.09729 92.401878 
L 247.375336 91.762238 
L 247.653381 93.575534 
L 247.931426 97.801509 
L 248.487516 113.000435 
L 249.043606 135.769242 
L 250.155786 193.807929 
L 251.267967 247.896068 
L 251.824057 266.087179 
L 252.102102 271.973651 
L 252.380147 275.47175 
L 252.658192 276.468006 
L 252.936237 274.910008 
L 253.214282 270.810459 
L 253.770372 255.350749 
L 254.326462 231.424827 
L 255.160598 184.696254 
L 256.550823 103.799848 
L 257.106913 79.888315 
L 257.663003 64.83088 
L 257.941048 61.150864 
L 258.219093 60.187017 
L 258.497139 61.962799 
L 258.775184 66.43002 
L 259.331274 82.891599 
L 259.887364 107.840024 
L 260.999544 172.234342 
L 262.111724 233.940975 
L 262.667815 255.901139 
L 263.223905 268.790772 
L 263.50195 271.396043 
L 263.779995 271.334138 
L 264.05804 268.608012 
L 264.336085 263.287797 
L 264.892175 245.478157 
L 265.72631 204.716865 
L 267.672626 98.388274 
L 268.228716 80.226533 
L 268.506761 74.856567 
L 268.784806 72.200911 
L 269.062851 72.346368 
L 269.340896 75.301884 
L 269.618942 80.996733 
L 270.175032 99.946947 
L 271.009167 143.063739 
L 272.955482 255.309311 
L 273.511573 275.233457 
L 273.789618 281.544231 
L 274.067663 285.184749 
L 274.345708 286.061964 
L 274.623753 284.15254 
L 274.901798 279.503571 
L 275.457888 262.520128 
L 276.013978 236.815554 
L 277.126159 170.297194 
L 278.238339 106.623157 
L 278.794429 84.336168 
L 279.350519 71.836235 
L 279.628564 69.718521 
L 279.906609 70.454499 
L 280.184654 74.021634 
L 280.462699 80.319411 
L 281.01879 100.339094 
L 281.852925 144.396061 
L 283.521195 242.070657 
L 284.077285 264.893183 
L 284.633376 278.38359 
L 284.911421 281.160903 
L 285.189466 281.177402 
L 285.467511 278.434228 
L 285.745556 273.002821 
L 286.301646 254.70229 
L 287.135781 212.616821 
L 289.082097 101.348896 
L 289.638187 81.59966 
L 289.916232 75.471056 
L 290.194277 72.10394 
L 290.472322 71.60482 
L 290.750367 74.002687 
L 291.028412 79.246945 
L 291.584502 97.687448 
L 292.140593 125.046906 
L 293.252773 194.561419 
L 294.364953 259.956929 
L 294.921043 282.767049 
L 295.477133 295.842733 
L 295.755179 298.340272 
L 296.033224 298.076364 
L 296.311269 295.090002 
L 296.589314 289.488663 
L 297.145404 271.200919 
L 297.979539 230.368903 
L 299.64781 139.020355 
L 300.2039 117.659109 
L 300.75999 105.163396 
L 301.038035 102.69873 
L 301.31608 102.868957 
L 301.594125 105.670576 
L 301.87217 111.030457 
L 302.42826 128.797645 
L 303.262396 169.163752 
L 305.208711 275.019512 
L 305.764801 294.299969 
L 306.320891 304.46588 
L 306.598936 305.797442 
L 306.876982 304.577747 
L 307.155027 300.849964 
L 307.711117 286.358827 
L 308.267207 263.875786 
L 309.379387 204.842025 
L 310.491567 147.214263 
L 311.047658 126.203346 
L 311.603748 113.265101 
L 311.881793 110.20599 
L 312.159838 109.502673 
L 312.437883 111.138273 
L 312.715928 115.034849 
L 313.272018 129.00948 
L 313.828108 149.723576 
L 316.608559 266.677405 
L 317.164649 276.690432 
L 317.442694 278.925879 
L 317.720739 279.297982 
L 317.998785 277.853582 
L 318.27683 274.683573 
L 318.83292 263.730498 
L 319.667055 238.726792 
L 321.335325 182.578118 
L 321.891416 169.386853 
L 322.447506 161.530573 
L 322.725551 159.867544 
L 323.003596 159.776227 
L 323.281641 161.250124 
L 323.559686 164.240875 
L 324.115776 174.376614 
L 324.949911 197.538455 
L 326.618182 249.727594 
L 327.174272 261.640508 
L 327.730362 268.179363 
L 328.008407 269.152241 
L 328.286452 268.523742 
L 328.564497 266.293275 
L 329.120587 257.230085 
L 329.676678 242.756166 
L 330.510813 213.911882 
L 332.179083 152.88582 
L 332.735173 137.953544 
L 333.291264 127.778729 
L 333.569309 124.643196 
L 333.847354 122.82568 
L 334.125399 122.294237 
L 334.403444 122.983206 
L 334.681489 124.795785 
L 335.237579 131.2759 
L 336.071714 145.710744 
L 337.46194 170.583972 
L 338.01803 177.25765 
L 338.57412 180.91087 
L 338.852165 181.519704 
L 339.13021 181.322133 
L 339.408255 180.351533 
L 339.964345 176.329713 
L 340.520436 170.100086 
L 342.744796 141.025611 
L 343.300886 137.158489 
L 343.578931 136.213968 
L 343.856976 135.996648 
L 344.135022 136.538472 
L 344.413067 137.854927 
L 344.969157 142.792236 
L 345.525247 150.597879 
L 346.359382 166.550463 
L 348.305698 207.339775 
L 348.861788 214.694362 
L 349.139833 216.954663 
L 349.417878 218.132075 
L 349.695923 218.152752 
L 349.973968 216.971205 
L 350.252013 214.574899 
L 350.808103 206.261697 
L 351.364193 193.827424 
L 352.476374 161.830433 
L 353.310509 138.969507 
L 353.866599 128.188853 
L 354.144644 124.856128 
L 354.422689 123.153349 
L 354.700734 123.227111 
L 354.978779 125.178269 
L 355.256825 129.058472 
L 355.812915 142.543942 
L 356.369005 163.015736 
L 357.20314 203.327112 
L 358.87141 287.012477 
L 359.427501 305.324739 
L 359.705546 311.269781 
L 359.983591 314.783198 
L 360.261636 315.717127 
L 360.539681 313.985569 
L 360.817726 309.569407 
L 361.373816 292.950556 
L 361.929906 267.076177 
L 362.764042 216.02508 
L 364.154267 126.147054 
L 364.710357 99.066314 
L 365.266447 81.641268 
L 365.544492 77.170544 
L 365.822537 75.713147 
L 366.100582 77.307435 
L 366.378628 81.910576 
L 366.934718 99.566235 
L 367.490808 126.782811 
L 368.602988 197.549553 
L 369.715168 265.020326 
L 370.271259 288.57385 
L 370.827349 301.867783 
L 371.105394 304.213577 
L 371.383439 303.598666 
L 371.661484 300.050056 
L 371.939529 293.670288 
L 372.495619 273.192206 
L 373.329754 227.73941 
L 374.998025 125.703678 
L 375.554115 101.61428 
L 376.110205 87.325948 
L 376.38825 84.379041 
L 376.666295 84.361233 
L 376.94434 87.273833 
L 377.222385 93.038352 
L 377.778476 112.435528 
L 378.612611 156.870548 
L 380.558926 273.451514 
L 381.115016 294.264902 
L 381.393062 300.859078 
L 381.671107 304.653577 
L 381.949152 305.543831 
L 382.227197 303.499121 
L 382.505242 298.564681 
L 383.061332 280.574644 
L 383.617422 253.358491 
L 384.729602 182.947816 
L 385.841783 115.635751 
L 386.397873 92.176539 
L 386.953963 79.20057 
L 387.232008 77.156998 
L 387.510053 78.197056 
L 387.788098 82.310024 
L 388.344188 99.301991 
L 388.900279 126.459869 
L 389.734414 179.987026 
L 391.124639 271.712866 
L 391.680729 297.923734 
L 392.236819 313.392981 
L 392.514865 316.472727 
L 392.79291 316.265619 
L 393.070955 312.736546 
L 393.349 305.935219 
L 393.90509 283.13451 
L 394.46118 249.896007 
L 395.57336 165.587713 
L 396.685541 85.863782 
L 397.241631 58.223284 
L 397.797721 42.95009 
L 398.075766 40.513274 
L 398.353811 41.657772 
L 398.631856 46.347504 
L 399.187946 65.738984 
L 399.744036 96.550756 
L 400.856217 178.196263 
L 401.968397 257.423226 
L 402.524487 285.726531 
L 403.080577 302.443197 
L 403.358622 305.9218 
L 403.636668 306.0316 
L 403.914713 302.795424 
L 404.192758 296.321344 
L 404.748848 274.500307 
L 405.582983 224.592231 
L 407.529299 94.089676 
L 408.085389 70.939989 
L 408.363434 63.668448 
L 408.641479 59.554256 
L 408.919524 58.712487 
L 409.197569 61.171668 
L 409.475614 66.874493 
L 410.031704 87.355233 
L 410.587794 118.066448 
L 411.699975 196.802013 
L 412.812155 271.350638 
L 413.368245 297.171847 
L 413.924335 311.404309 
L 414.20238 313.630767 
L 414.480425 312.470867 
L 414.75847 307.937647 
L 415.314561 289.236361 
L 415.870651 259.322733 
L 416.704786 200.195166 
L 418.095011 98.069003 
L 418.651102 68.411772 
L 419.207192 50.312357 
L 419.485237 46.250744 
L 419.763282 45.688707 
L 420.041327 48.640889 
L 420.319372 55.027197 
L 420.875462 77.327268 
L 421.431552 110.217636 
L 422.821778 214.337239 
L 423.655913 270.239814 
L 424.212003 296.541702 
L 424.768093 310.889449 
L 425.046138 313.106371 
L 425.324183 311.935415 
L 425.602228 307.423083 
L 426.158319 288.984902 
L 426.436364 275.56467 
L 426.436364 275.56467 
" clip-path="url(#p5e28a6502c)" style="fill: none; stroke-dasharray: 11.1,4.8; stroke-dashoffset: 0; stroke: #000000; stroke-width: 3"/>
   </g>
   <g id="line2d_2">
    <path d="M 27.163636 179.273708 
L 31.612358 180.094293 
L 34.670853 180.479267 
L 37.173259 180.581344 
L 39.95371 180.488508 
L 43.012206 180.472811 
L 47.182882 180.710893 
L 53.299873 181.091182 
L 54.690099 180.660677 
L 56.358369 180.445382 
L 57.748595 180.422215 
L 59.416865 180.64308 
L 60.251 180.722793 
L 62.197316 180.334274 
L 63.865586 179.788863 
L 65.811902 178.890043 
L 67.758217 177.733181 
L 69.148443 176.786888 
L 71.928893 173.89775 
L 73.041074 173.093242 
L 74.153254 172.572138 
L 75.265434 172.306036 
L 76.377615 172.250925 
L 77.76784 172.40229 
L 78.601975 172.537788 
L 85.553102 170.56435 
L 87.777463 170.288839 
L 89.445733 170.305043 
L 91.392049 169.381874 
L 93.338364 168.697673 
L 95.28468 168.251766 
L 96.39686 167.984905 
L 100.289491 167.02553 
L 103.069942 166.528225 
L 107.518663 166.037081 
L 108.352798 165.638477 
L 111.967384 163.568743 
L 114.191745 162.669332 
L 116.416105 161.984625 
L 118.918511 161.559056 
L 121.142872 161.405413 
L 122.811142 161.45833 
L 126.147683 162.080583 
L 128.650089 162.274062 
L 131.152494 162.258533 
L 131.98663 162.109405 
L 135.045125 161.01411 
L 138.381666 160.066255 
L 140.049937 159.572579 
L 145.610838 157.222227 
L 148.669334 155.48206 
L 149.781514 154.873015 
L 151.449785 154.022427 
L 152.561965 153.319743 
L 153.674145 154.663754 
L 156.454596 158.37892 
L 158.400912 161.524581 
L 160.347227 164.259991 
L 161.737453 165.897447 
L 163.127678 167.222426 
L 171.190985 174.132625 
L 173.693391 176.078465 
L 176.473841 177.964511 
L 177.864067 178.618962 
L 179.810382 178.778724 
L 180.644518 178.877721 
L 181.478653 179.460477 
L 186.761509 183.40094 
L 189.263915 184.975352 
L 192.044366 186.532548 
L 193.990681 188.438342 
L 195.658952 189.74678 
L 197.049177 190.554917 
L 198.161357 190.984367 
L 199.273538 191.191813 
L 200.385718 191.149615 
L 201.497898 190.830259 
L 201.775943 190.704382 
L 202.332033 191.1643 
L 206.50271 195.320226 
L 207.892935 196.973633 
L 210.117296 197.395235 
L 212.063611 197.585126 
L 214.566017 197.772697 
L 215.956242 197.975248 
L 216.790377 197.916551 
L 217.624513 197.631544 
L 218.458648 197.042669 
L 219.292783 196.072197 
L 220.126918 194.640498 
L 220.961053 192.665794 
L 221.795189 190.056768 
L 222.907369 185.57541 
L 224.019549 180.744145 
L 227.078045 176.517495 
L 228.190225 174.711921 
L 229.024361 173.789385 
L 229.580451 173.431039 
L 230.692631 173.136622 
L 231.248721 173.284105 
L 231.526766 173.632577 
L 232.360901 175.173822 
L 233.195037 176.350221 
L 234.307217 177.491681 
L 235.419397 178.301717 
L 239.033983 180.613204 
L 240.424209 181.958776 
L 243.204659 184.486951 
L 246.5412 186.956724 
L 247.09729 187.19586 
L 249.599696 187.904114 
L 250.989921 188.337531 
L 253.214282 188.420324 
L 258.497139 189.10693 
L 260.721499 189.485574 
L 262.94586 189.580773 
L 263.779995 189.33155 
L 264.61413 188.845428 
L 266.004356 187.724476 
L 267.672626 186.364768 
L 268.506761 185.89831 
L 271.009167 181.565236 
L 271.843302 180.768831 
L 272.677437 180.326046 
L 273.233527 180.226838 
L 273.789618 180.285578 
L 274.345708 180.501548 
L 274.901798 180.735241 
L 275.735933 180.590501 
L 276.848113 180.154046 
L 278.238339 179.333081 
L 280.740744 177.558692 
L 282.13097 177.994978 
L 283.24315 178.04262 
L 285.189466 177.81821 
L 287.691871 177.456783 
L 289.082097 176.714265 
L 291.584502 175.299192 
L 292.418638 175.052249 
L 292.974728 175.044231 
L 293.808863 175.282819 
L 294.921043 175.903765 
L 295.477133 176.217466 
L 297.145404 176.845965 
L 297.979539 176.977581 
L 298.813674 177.014125 
L 299.369764 177.331413 
L 299.925855 177.883702 
L 300.75999 179.061958 
L 301.87217 181.076666 
L 304.374576 185.977136 
L 304.652621 185.335555 
L 305.486756 181.703604 
L 306.320891 178.882954 
L 307.155027 176.794905 
L 307.989162 175.364304 
L 308.545252 174.739814 
L 309.101342 174.360495 
L 309.657432 174.202336 
L 310.213522 174.242762 
L 310.769613 174.327116 
L 311.325703 174.080552 
L 311.881793 174.010968 
L 312.715928 174.16959 
L 313.828108 174.707574 
L 316.052469 175.937777 
L 319.667055 177.188994 
L 326.062092 179.090906 
L 329.120587 179.762532 
L 332.179083 180.22726 
L 337.183895 180.649621 
L 342.188706 180.883947 
L 345.803292 180.762374 
L 349.973968 180.392212 
L 354.422689 179.815701 
L 358.593365 179.063604 
L 364.432312 177.941133 
L 370.549304 176.992983 
L 376.666295 176.258272 
L 381.115016 175.91921 
L 389.734414 175.986516 
L 395.295315 175.803291 
L 400.300127 175.421567 
L 401.412307 175.202896 
L 403.914713 174.647864 
L 406.417118 174.337328 
L 408.919524 174.260316 
L 411.42193 174.397418 
L 414.20238 174.768593 
L 415.870651 175.147659 
L 416.982831 175.371436 
L 425.602228 175.947651 
L 426.436364 175.988457 
L 426.436364 175.988457 
" clip-path="url(#p5e28a6502c)" style="fill: none; stroke: #ff00ff; stroke-width: 3; stroke-linecap: square"/>
   </g>
   <g id="patch_3">
    <path d="M 7.2 331.2 
L 7.2 7.2 
" style="fill: none; stroke: #000000; stroke-width: 0.8; stroke-linejoin: miter; stroke-linecap: square"/>
   </g>
   <g id="patch_4">
    <path d="M 446.4 331.2 
L 446.4 7.2 
" style="fill: none; stroke: #000000; stroke-width: 0.8; stroke-linejoin: miter; stroke-linecap: square"/>
   </g>
   <g id="patch_5">
    <path d="M 7.2 331.2 
L 446.4 331.2 
" style="fill: none; stroke: #000000; stroke-width: 0.8; stroke-linejoin: miter; stroke-linecap: square"/>
   </g>
   <g id="patch_6">
    <path d="M 7.2 7.2 
L 446.4 7.2 
" style="fill: none; stroke: #000000; stroke-width: 0.8; stroke-linejoin: miter; stroke-linecap: square"/>
   </g>
  </g>
 </g>
 <defs>
  <clipPath id="p5e28a6502c">
   <rect x="7.2" y="7.2" width="439.2" height="324"/>
  </clipPath>
 </defs>
</svg>
