<?xml version="1.0" encoding="utf-8" standalone="no"?>
<!DOCTYPE svg PUBLIC "-//W3C//DTD SVG 1.1//EN"
  "http://www.w3.org/Graphics/SVG/1.1/DTD/svg11.dtd">
<svg xmlns:xlink="http://www.w3.org/1999/xlink" width="453.6pt" height="338.4pt" viewBox="0 0 453.6 338.4" xmlns="http://www.w3.org/2000/svg" version="1.1">
 <metadata>
  <rdf:RDF xmlns:dc="http://purl.org/dc/elements/1.1/" xmlns:cc="http://creativecommons.org/ns#" xmlns:rdf="http://www.w3.org/1999/02/22-rdf-syntax-ns#">
   <cc:Work>
    <dc:type rdf:resource="http://purl.org/dc/dcmitype/StillImage"/>
    <dc:date>2025-05-15T17:56:41.420999</dc:date>
    <dc:format>image/svg+xml</dc:format>
    <dc:creator>
     <cc:Agent>
      <dc:title>Matplotlib v3.10.1, https://matplotlib.org/</dc:title>
     </cc:Agent>
    </dc:creator>
   </cc:Work>
  </rdf:RDF>
 </metadata>
 <defs>
  <style type="text/css">*{stroke-linejoin: round; stroke-linecap: butt}</style>
 </defs>
 <g id="figure_1">
  <g id="patch_1">
   <path d="M 0 338.4 
L 453.6 338.4 
L 453.6 0 
L 0 0 
z
" style="fill: #ffffff"/>
  </g>
  <g id="axes_1">
   <g id="patch_2">
    <path d="M 7.2 331.2 
L 446.4 331.2 
L 446.4 7.2 
L 7.2 7.2 
z
" style="fill: #ffffff"/>
   </g>
   <g id="matplotlib.axis_1"/>
   <g id="matplotlib.axis_2"/>
   <g id="line2d_1">
    <path d="M 27.163636 217.89293 
L 27.997772 217.028223 
L 28.553862 216.660886 
L 29.109952 216.489819 
L 29.666042 216.516974 
L 30.500177 216.874876 
L 32.446493 218.080736 
L 33.002583 218.133321 
L 33.558673 217.899805 
L 34.114763 217.316868 
L 34.670853 216.344658 
L 35.226944 214.971099 
L 36.061079 212.203882 
L 37.173259 207.501177 
L 39.39762 197.62891 
L 40.231755 194.93566 
L 40.787845 193.684469 
L 41.343935 192.908951 
L 41.900025 192.600224 
L 42.456115 192.710595 
L 43.012206 193.158306 
L 43.846341 194.224984 
L 45.236566 196.060387 
L 45.792656 196.516085 
L 46.348747 196.722593 
L 46.904837 196.671918 
L 47.460927 196.395089 
L 48.573107 195.44556 
L 49.407242 194.754561 
L 49.963332 194.475286 
L 50.519423 194.418767 
L 51.075513 194.617535 
L 51.631603 195.07059 
L 52.465738 196.153264 
L 53.855964 198.53373 
L 55.246189 200.791629 
L 56.080324 201.824991 
L 56.914459 202.56053 
L 57.748595 202.999483 
L 58.58273 203.158896 
L 59.416865 203.062764 
L 60.251 202.742337 
L 61.363181 202.03704 
L 62.753406 200.849274 
L 66.089947 197.737798 
L 66.924082 197.401803 
L 67.480172 197.414585 
L 68.036262 197.641301 
L 68.592352 198.076399 
L 69.426488 199.042017 
L 71.372803 201.573411 
L 72.206938 202.227102 
L 73.041074 202.491185 
L 74.153254 202.46686 
L 74.987389 202.49275 
L 75.543479 202.681754 
L 76.09957 203.079913 
L 76.65566 203.719053 
L 77.489795 205.120953 
L 78.601975 207.593632 
L 80.548291 212.061582 
L 81.382426 213.517581 
L 82.216561 214.552398 
L 83.050696 215.144877 
L 83.606787 215.296169 
L 84.162877 215.257046 
L 84.718967 215.033901 
L 85.553102 214.380301 
L 86.387237 213.409945 
L 89.167688 209.777637 
L 90.001823 209.21396 
L 90.557913 209.060312 
L 91.392049 209.126606 
L 92.504229 209.560237 
L 94.172499 210.221487 
L 96.674905 210.93661 
L 97.50904 211.559832 
L 98.343175 212.522216 
L 99.455356 214.218244 
L 101.401671 217.267378 
L 102.235807 218.240381 
L 103.069942 218.935947 
L 103.904077 219.373839 
L 104.738212 219.594203 
L 105.850393 219.61661 
L 106.962573 219.401811 
L 110.855204 218.355526 
L 111.967384 218.399884 
L 113.079564 218.680266 
L 114.191745 219.183342 
L 116.13806 220.378431 
L 117.806331 221.2845 
L 119.196556 221.72853 
L 123.367232 222.673836 
L 127.259863 224.227331 
L 128.093998 224.249372 
L 128.928134 224.071475 
L 130.040314 223.562537 
L 133.09881 221.901059 
L 133.932945 221.739711 
L 134.76708 221.773547 
L 135.879261 222.082967 
L 139.493847 223.459977 
L 140.606027 223.487606 
L 141.718207 223.24825 
L 142.830387 222.780726 
L 146.444973 220.946197 
L 147.279109 220.888398 
L 148.113244 221.110817 
L 148.947379 221.607909 
L 150.337604 222.826027 
L 151.449785 223.770294 
L 152.28392 224.215441 
L 152.84001 224.318564 
L 153.3961 224.243674 
L 153.95219 223.987883 
L 154.786326 223.296824 
L 155.898506 221.974173 
L 157.566776 219.900157 
L 158.400912 219.172898 
L 159.235047 218.799575 
L 159.791137 218.76401 
L 160.625272 219.006587 
L 161.459407 219.526802 
L 165.630084 222.642298 
L 167.020309 223.225755 
L 168.688579 223.681073 
L 170.35685 223.878806 
L 173.415346 224.083521 
L 174.805571 224.501648 
L 177.586022 225.526267 
L 178.420157 225.593048 
L 179.254292 225.482005 
L 180.366473 225.111479 
L 183.146923 224.036706 
L 184.537149 223.790623 
L 186.483464 223.71662 
L 190.376095 223.690016 
L 191.488276 223.403166 
L 192.600456 222.8428 
L 193.712636 222.015906 
L 196.771132 219.482343 
L 197.883312 218.965798 
L 198.995493 218.742216 
L 201.775943 218.415197 
L 202.888124 217.984859 
L 204.000304 217.328954 
L 205.390529 216.214576 
L 206.780755 214.768191 
L 209.561205 211.676331 
L 210.395341 211.076054 
L 211.507521 210.584895 
L 213.175791 209.937613 
L 214.009927 209.345028 
L 215.122107 208.172531 
L 216.790377 206.240162 
L 217.346467 205.816458 
L 217.902558 205.608485 
L 218.458648 205.653327 
L 219.014738 205.961127 
L 219.570828 206.513175 
L 220.404963 207.694934 
L 222.629324 211.195211 
L 223.463459 211.978896 
L 224.019549 212.225653 
L 224.575639 212.237296 
L 225.13173 212.016338 
L 225.68782 211.575062 
L 226.521955 210.544816 
L 227.634135 208.632202 
L 230.692631 202.805484 
L 231.526766 201.847681 
L 232.082856 201.470701 
L 232.638947 201.295802 
L 233.473082 201.338749 
L 235.419397 201.786017 
L 235.975487 201.700692 
L 236.531578 201.436465 
L 237.365713 200.698147 
L 238.477893 199.259085 
L 239.868119 197.494052 
L 240.424209 197.044498 
L 240.980299 196.829848 
L 241.536389 196.876984 
L 242.092479 197.184434 
L 242.648569 197.722076 
L 243.76075 199.250124 
L 245.150975 201.194292 
L 245.98511 201.935931 
L 246.5412 202.163079 
L 247.09729 202.170572 
L 247.653381 201.981151 
L 248.487516 201.420791 
L 250.433831 199.64372 
L 253.492327 196.750592 
L 254.882553 195.376171 
L 255.716688 194.851537 
L 256.272778 194.740559 
L 256.828868 194.86452 
L 257.384958 195.235169 
L 258.219093 196.213239 
L 259.331274 198.050465 
L 260.999544 200.901887 
L 261.833679 201.975973 
L 262.667815 202.688557 
L 263.50195 203.027238 
L 264.336085 203.034105 
L 265.17022 202.799652 
L 266.838491 202.203907 
L 267.394581 202.167055 
L 267.950671 202.297678 
L 268.506761 202.632893 
L 269.062851 203.192954 
L 269.896987 204.448281 
L 271.009167 206.737705 
L 273.511573 212.257383 
L 274.345708 213.550589 
L 275.179843 214.41817 
L 276.013978 214.888236 
L 276.848113 215.049021 
L 277.960294 214.978453 
L 284.633376 213.879143 
L 288.247962 212.818552 
L 289.082097 212.902347 
L 289.916232 213.266538 
L 290.750367 213.936141 
L 291.584502 214.885048 
L 292.974728 216.865779 
L 294.642998 219.211061 
L 295.477133 220.075897 
L 296.311269 220.602616 
L 296.867359 220.73914 
L 297.423449 220.699792 
L 297.979539 220.492766 
L 298.813674 219.909879 
L 299.925855 218.780677 
L 302.42826 216.05205 
L 303.540441 215.153738 
L 304.652621 214.512229 
L 305.764801 214.12436 
L 306.876982 213.999155 
L 307.989162 214.123196 
L 311.603748 214.809294 
L 314.662244 214.805092 
L 315.774424 215.170346 
L 317.720739 215.92324 
L 318.554875 215.967397 
L 319.38901 215.724575 
L 320.223145 215.214822 
L 323.559686 212.774709 
L 324.671866 212.490807 
L 328.008407 212.056198 
L 330.788858 211.134222 
L 331.622993 211.227258 
L 332.457128 211.641209 
L 333.291264 212.357872 
L 334.403444 213.63732 
L 337.46194 217.360932 
L 338.57412 218.414118 
L 339.408255 218.975552 
L 340.24239 219.243404 
L 340.798481 219.215861 
L 341.354571 219.002547 
L 341.910661 218.597508 
L 342.744796 217.650525 
L 343.856976 215.899085 
L 346.081337 212.145096 
L 346.915472 211.210102 
L 347.471562 210.847721 
L 348.027653 210.713921 
L 348.583743 210.802529 
L 349.139833 211.086161 
L 349.973968 211.772517 
L 351.642239 213.304667 
L 352.476374 213.763419 
L 353.032464 213.880634 
L 353.866599 213.774666 
L 354.700734 213.398435 
L 357.481185 211.864374 
L 358.31532 211.81765 
L 358.87141 211.973435 
L 359.705546 212.493096 
L 360.539681 213.305391 
L 363.598177 216.657458 
L 364.432312 217.110092 
L 365.266447 217.250803 
L 366.100582 217.071842 
L 366.934718 216.563891 
L 367.768853 215.71674 
L 368.602988 214.541712 
L 369.993213 212.074776 
L 371.383439 209.688164 
L 372.217574 208.721693 
L 372.773664 208.374273 
L 373.329754 208.282604 
L 373.885845 208.431861 
L 374.71998 209.014994 
L 377.50043 211.554921 
L 378.612611 212.04888 
L 380.558926 212.746709 
L 381.393062 213.322815 
L 382.505242 214.451827 
L 385.841783 218.298991 
L 386.953963 219.151789 
L 388.066143 219.75762 
L 389.178324 220.108284 
L 390.012459 220.166009 
L 390.846594 220.020446 
L 391.958774 219.53379 
L 394.739225 218.019039 
L 395.57336 217.849125 
L 396.407496 217.866109 
L 397.797721 218.170168 
L 400.022082 218.699851 
L 401.968397 218.893644 
L 403.914713 218.890438 
L 407.529299 218.715249 
L 408.641479 219.000338 
L 411.699975 220.032808 
L 412.53411 220.00785 
L 413.368245 219.770306 
L 414.20238 219.331428 
L 415.314561 218.494841 
L 418.373056 215.963867 
L 419.207192 215.641174 
L 420.041327 215.61356 
L 420.875462 215.879577 
L 421.987642 216.58259 
L 424.212003 218.198111 
L 425.324183 218.660846 
L 426.158319 218.802433 
L 426.436364 218.801045 
L 426.436364 218.801045 
" clip-path="url(#pefaab7f352)" style="fill: none; stroke-dasharray: 11.1,4.8; stroke-dashoffset: 0; stroke: #000000; stroke-width: 3"/>
   </g>
   <g id="line2d_2">
    <path d="M 27.163636 94.156828 
L 27.997772 102.994917 
L 28.553862 107.102253 
L 29.109952 109.656896 
L 29.387997 110.365182 
L 29.666042 110.718831 
L 29.944087 110.745692 
L 30.222132 110.47889 
L 30.778222 109.23222 
L 31.612358 106.258835 
L 32.724538 102.095634 
L 33.558673 99.869591 
L 34.392808 98.438351 
L 34.948898 97.496386 
L 35.504989 96.048338 
L 36.061079 93.568841 
L 36.617169 89.575378 
L 37.173259 83.738525 
L 38.007394 71.460847 
L 40.5098 27.996651 
L 41.06589 23.175261 
L 41.343935 22.079213 
L 41.62198 21.927273 
L 41.900025 22.738061 
L 42.17807 24.503669 
L 42.734161 30.731908 
L 43.290251 40.061085 
L 44.402431 64.542448 
L 46.070701 101.654644 
L 46.904837 115.322198 
L 47.460927 121.979562 
L 48.017017 126.757776 
L 48.573107 129.92875 
L 49.129197 131.908426 
L 50.797468 136.20099 
L 51.353558 139.017986 
L 51.909648 143.327854 
L 52.465738 149.377787 
L 53.299873 161.712154 
L 54.412054 182.705479 
L 56.358369 220.170994 
L 57.192504 232.288491 
L 58.02664 240.892902 
L 58.58273 244.674604 
L 59.13882 247.013861 
L 59.416865 247.691331 
L 59.69491 248.071346 
L 59.972955 248.177474 
L 60.251 248.038388 
L 60.529045 247.683091 
L 61.085135 246.444661 
L 61.919271 243.782242 
L 63.031451 240.28893 
L 63.587541 239.22683 
L 63.865586 238.979639 
L 64.143631 238.95459 
L 64.421676 239.170471 
L 64.699721 239.63964 
L 65.255812 241.358611 
L 65.811902 244.094857 
L 66.646037 249.859201 
L 67.758217 259.648483 
L 70.538668 285.016111 
L 71.928893 295.380855 
L 73.319119 304.320952 
L 74.431299 310.430211 
L 75.265434 313.997515 
L 75.821524 315.618598 
L 76.377615 316.427903 
L 76.65566 316.472727 
L 76.933705 316.251738 
L 77.21175 315.747302 
L 77.76784 313.84508 
L 78.32393 310.71893 
L 78.88002 306.411205 
L 79.714155 298.07442 
L 82.494606 267.363663 
L 83.050696 263.626126 
L 83.606787 261.418705 
L 83.884832 260.929925 
L 84.162877 260.856262 
L 84.440922 261.191783 
L 84.718967 261.921987 
L 85.275057 264.474323 
L 85.831147 268.263276 
L 86.943327 278.208289 
L 88.611598 293.74972 
L 89.445733 299.83393 
L 90.279868 304.238061 
L 90.835958 306.225316 
L 91.392049 307.495222 
L 91.948139 308.097216 
L 92.226184 308.160827 
L 92.504229 308.071508 
L 92.782274 307.833216 
L 93.338364 306.91564 
L 93.894454 305.419472 
L 94.450544 303.359212 
L 95.28468 299.281045 
L 96.39686 292.360339 
L 99.177311 273.942915 
L 100.011446 269.952913 
L 100.845581 267.131468 
L 101.401671 265.892873 
L 101.957761 265.113066 
L 102.513852 264.718548 
L 103.069942 264.615057 
L 103.904077 264.784136 
L 105.294302 265.138609 
L 105.850393 265.089336 
L 106.406483 264.867852 
L 106.962573 264.461139 
L 107.796708 263.524118 
L 108.908888 261.811904 
L 110.855204 258.25218 
L 112.523474 254.838135 
L 113.35761 252.703882 
L 114.191745 250.001089 
L 115.02588 246.546339 
L 116.13806 240.710804 
L 119.474601 221.559881 
L 120.308736 218.524038 
L 121.142872 216.432468 
L 121.977007 214.966786 
L 123.645277 212.217686 
L 124.479413 210.367045 
L 127.259863 203.527088 
L 127.815953 202.700149 
L 128.372044 202.192088 
L 128.928134 201.997301 
L 129.484224 202.069811 
L 130.318359 202.513602 
L 131.708584 203.342353 
L 132.264675 203.432496 
L 132.820765 203.280226 
L 133.376855 202.85176 
L 133.932945 202.139519 
L 134.76708 200.601328 
L 136.157306 197.307911 
L 137.269486 194.801059 
L 138.103621 193.468366 
L 138.659711 192.974972 
L 139.215801 192.850223 
L 139.771892 193.113399 
L 140.327982 193.760712 
L 140.884072 194.765793 
L 141.718207 196.851761 
L 142.830387 200.424174 
L 146.723018 214.125181 
L 147.557154 215.928856 
L 148.113244 216.579135 
L 148.391289 216.706356 
L 148.669334 216.690371 
L 148.947379 216.525741 
L 149.503469 215.733904 
L 150.059559 214.328373 
L 150.61565 212.352652 
L 151.449785 208.527609 
L 153.95219 195.942919 
L 154.508281 194.074316 
L 155.064371 192.84017 
L 155.620461 192.283 
L 155.898506 192.253172 
L 156.176551 192.378087 
L 156.732641 193.038912 
L 157.288731 194.125896 
L 159.791137 199.887933 
L 160.625272 200.963216 
L 161.459407 201.572296 
L 163.683768 202.571939 
L 164.517903 202.845828 
L 165.073993 202.814517 
L 165.630084 202.47125 
L 166.186174 201.704462 
L 166.742264 200.432413 
L 167.298354 198.623795 
L 168.132489 194.982662 
L 169.522715 187.442824 
L 170.634895 181.689027 
L 171.46903 178.445708 
L 172.02512 177.003098 
L 172.58121 176.178796 
L 172.859256 175.992084 
L 173.137301 175.945612 
L 173.415346 176.028998 
L 173.971436 176.529808 
L 174.805571 177.878156 
L 177.029932 182.077282 
L 177.864067 183.157675 
L 178.698202 183.925122 
L 180.088427 184.850772 
L 182.034743 185.918475 
L 182.868878 186.077667 
L 183.424968 185.95885 
L 183.981058 185.615089 
L 184.537149 185.029739 
L 185.371284 183.742365 
L 187.87369 179.18992 
L 188.42978 178.653349 
L 188.98587 178.465978 
L 189.54196 178.670817 
L 190.09805 179.279897 
L 190.65414 180.280199 
L 191.488276 182.441643 
L 192.322411 185.2532 
L 193.712636 190.932675 
L 197.049177 205.47331 
L 197.883312 208.048717 
L 198.439402 209.220735 
L 198.995493 209.870684 
L 199.273538 209.98571 
L 199.551583 209.956871 
L 199.829628 209.785485 
L 200.385718 209.029243 
L 200.941808 207.776476 
L 201.775943 205.189534 
L 204.000304 197.530054 
L 204.834439 195.637226 
L 205.390529 194.866317 
L 205.946619 194.472459 
L 206.50271 194.395335 
L 207.0588 194.542826 
L 208.72707 195.243202 
L 209.28316 195.268581 
L 209.83925 195.125045 
L 210.673386 194.665763 
L 211.785566 194.043499 
L 212.341656 193.979394 
L 212.897746 194.223454 
L 213.453836 194.846377 
L 214.009927 195.875354 
L 214.844062 198.116558 
L 216.234287 202.918667 
L 217.346467 206.535904 
L 218.180603 208.518381 
L 218.736693 209.393274 
L 219.292783 209.923583 
L 219.848873 210.170445 
L 220.683008 210.217576 
L 221.795189 210.264048 
L 222.351279 210.500858 
L 222.907369 210.959316 
L 223.741504 212.075303 
L 224.853684 214.112327 
L 226.24391 216.581936 
L 227.078045 217.547467 
L 227.634135 217.900456 
L 228.190225 218.0374 
L 229.024361 217.945775 
L 230.970676 217.485833 
L 231.804811 217.593774 
L 232.638947 217.967692 
L 233.473082 218.572653 
L 234.585262 219.664086 
L 235.697442 221.088569 
L 236.531578 222.464437 
L 237.365713 224.204996 
L 238.199848 226.374844 
L 239.312028 229.906553 
L 242.092479 239.425737 
L 242.926614 241.38778 
L 243.482704 242.236141 
L 244.038795 242.669056 
L 244.594885 242.670374 
L 245.150975 242.251137 
L 245.707065 241.446776 
L 246.5412 239.658262 
L 249.321651 232.676253 
L 249.877741 231.921989 
L 250.433831 231.597179 
L 250.711876 231.611681 
L 251.267967 232.00933 
L 251.824057 232.891969 
L 252.380147 234.221365 
L 253.214282 236.879499 
L 255.716688 245.630576 
L 256.272778 246.829621 
L 256.828868 247.524888 
L 257.106913 247.673038 
L 257.384958 247.686881 
L 257.663003 247.574327 
L 258.219093 247.00216 
L 259.053229 245.504014 
L 260.443454 242.658674 
L 260.999544 241.894358 
L 261.555634 241.538237 
L 261.833679 241.532799 
L 262.38977 241.873923 
L 262.94586 242.641865 
L 263.779995 244.36545 
L 265.17022 247.497038 
L 265.72631 248.400935 
L 266.282401 248.948053 
L 266.838491 249.102136 
L 267.394581 248.881146 
L 267.950671 248.347707 
L 268.784806 247.169097 
L 270.731122 244.219277 
L 272.955482 241.172228 
L 273.789618 239.420629 
L 274.623753 237.062091 
L 275.735933 233.086426 
L 277.682249 225.753075 
L 278.516384 223.404919 
L 279.072474 222.322385 
L 279.628564 221.677379 
L 280.184654 221.481604 
L 280.740744 221.716106 
L 281.296835 222.335898 
L 282.13097 223.830418 
L 284.911421 229.606957 
L 285.467511 230.170554 
L 286.023601 230.388577 
L 286.579691 230.252127 
L 287.135781 229.781144 
L 287.691871 229.023585 
L 288.526007 227.501379 
L 291.028412 222.558535 
L 291.862547 221.395416 
L 292.696683 220.532388 
L 294.086908 219.467321 
L 295.755179 218.131663 
L 297.145404 216.692348 
L 298.535629 214.948659 
L 299.64781 213.247321 
L 300.75999 211.138447 
L 301.87217 208.545737 
L 302.98435 205.437055 
L 304.096531 201.730993 
L 305.208711 197.295881 
L 306.598936 190.765573 
L 308.823297 180.083764 
L 309.935477 175.725447 
L 312.715928 165.736763 
L 313.828108 160.395282 
L 316.886604 144.443512 
L 317.720739 141.617124 
L 318.27683 140.319038 
L 318.83292 139.453043 
L 319.38901 138.945806 
L 319.9451 138.696472 
L 321.05728 138.558539 
L 323.559686 138.355018 
L 324.115776 138.665985 
L 324.671866 139.402946 
L 325.227956 140.732837 
L 325.784047 142.800183 
L 326.340137 145.698422 
L 327.174272 151.631515 
L 328.286452 161.91963 
L 330.232768 180.688395 
L 331.066903 186.405608 
L 331.622993 188.924985 
L 332.179083 190.365617 
L 332.457128 190.703281 
L 332.735173 190.80809 
L 333.013219 190.704764 
L 333.569309 189.988238 
L 334.403444 188.127215 
L 335.515624 185.52989 
L 336.071714 184.653513 
L 336.627805 184.232299 
L 336.90585 184.208404 
L 337.183895 184.309752 
L 337.739985 184.867911 
L 338.296075 185.836078 
L 339.13021 187.825147 
L 344.135022 201.536042 
L 345.247202 206.135124 
L 348.027653 218.759035 
L 348.861788 221.052149 
L 349.417878 221.962309 
L 349.973968 222.428677 
L 350.530058 222.553921 
L 351.364193 222.407089 
L 352.198329 222.301621 
L 352.754419 222.464273 
L 353.310509 222.911689 
L 353.866599 223.681939 
L 354.700734 225.43189 
L 355.812915 228.627254 
L 358.037275 235.518627 
L 358.87141 237.364654 
L 359.427501 238.187966 
L 359.983591 238.655488 
L 360.539681 238.77447 
L 361.095771 238.587758 
L 361.929906 237.901224 
L 363.598177 236.30519 
L 364.154267 236.039707 
L 364.710357 235.98104 
L 365.544492 236.198733 
L 366.378628 236.441146 
L 366.934718 236.30107 
L 367.212763 236.050583 
L 367.768853 235.030176 
L 368.324943 233.114276 
L 368.881033 230.114029 
L 369.437123 225.938468 
L 370.271259 217.622118 
L 372.773664 189.803339 
L 373.329754 186.564964 
L 373.607799 185.707703 
L 373.885845 185.395088 
L 374.16389 185.633875 
L 374.441935 186.416649 
L 374.998025 189.505061 
L 375.554115 194.309477 
L 376.666295 206.891036 
L 378.056521 222.167807 
L 378.890656 228.589846 
L 379.446746 231.435021 
L 380.002836 233.230456 
L 380.558926 234.166983 
L 381.115016 234.475478 
L 381.671107 234.3855 
L 382.505242 233.915342 
L 383.895467 233.101752 
L 385.285693 232.36545 
L 386.119828 231.618767 
L 386.675918 230.863185 
L 387.510053 229.245398 
L 388.344188 227.056598 
L 391.402684 218.148142 
L 391.958774 217.235511 
L 392.514865 216.695315 
L 393.070955 216.515359 
L 393.627045 216.649172 
L 394.183135 217.025727 
L 395.01727 217.871782 
L 398.631856 222.187088 
L 401.690352 226.102274 
L 402.246442 226.480312 
L 402.802532 226.65417 
L 403.358622 226.614125 
L 403.914713 226.366439 
L 404.748848 225.653374 
L 405.582983 224.622255 
L 406.973208 222.474655 
L 410.865839 216.160392 
L 412.53411 213.743023 
L 413.368245 212.092277 
L 413.924335 210.590176 
L 414.480425 208.632419 
L 415.314561 204.647525 
L 416.148696 199.292366 
L 417.260876 190.304808 
L 420.041327 166.582323 
L 421.153507 159.644973 
L 423.377868 147.233647 
L 424.212003 140.518274 
L 425.046138 131.573893 
L 425.880273 120.236862 
L 426.436364 111.479357 
L 426.436364 111.479357 
" clip-path="url(#pefaab7f352)" style="fill: none; stroke: #ff00ff; stroke-width: 3; stroke-linecap: square"/>
   </g>
   <g id="patch_3">
    <path d="M 7.2 331.2 
L 7.2 7.2 
" style="fill: none; stroke: #000000; stroke-width: 0.8; stroke-linejoin: miter; stroke-linecap: square"/>
   </g>
   <g id="patch_4">
    <path d="M 446.4 331.2 
L 446.4 7.2 
" style="fill: none; stroke: #000000; stroke-width: 0.8; stroke-linejoin: miter; stroke-linecap: square"/>
   </g>
   <g id="patch_5">
    <path d="M 7.2 331.2 
L 446.4 331.2 
" style="fill: none; stroke: #000000; stroke-width: 0.8; stroke-linejoin: miter; stroke-linecap: square"/>
   </g>
   <g id="patch_6">
    <path d="M 7.2 7.2 
L 446.4 7.2 
" style="fill: none; stroke: #000000; stroke-width: 0.8; stroke-linejoin: miter; stroke-linecap: square"/>
   </g>
  </g>
 </g>
 <defs>
  <clipPath id="pefaab7f352">
   <rect x="7.2" y="7.2" width="439.2" height="324"/>
  </clipPath>
 </defs>
</svg>
