<?xml version="1.0" encoding="utf-8" standalone="no"?>
<!DOCTYPE svg PUBLIC "-//W3C//DTD SVG 1.1//EN"
  "http://www.w3.org/Graphics/SVG/1.1/DTD/svg11.dtd">
<svg xmlns:xlink="http://www.w3.org/1999/xlink" width="453.6pt" height="338.4pt" viewBox="0 0 453.6 338.4" xmlns="http://www.w3.org/2000/svg" version="1.1">
 <metadata>
  <rdf:RDF xmlns:dc="http://purl.org/dc/elements/1.1/" xmlns:cc="http://creativecommons.org/ns#" xmlns:rdf="http://www.w3.org/1999/02/22-rdf-syntax-ns#">
   <cc:Work>
    <dc:type rdf:resource="http://purl.org/dc/dcmitype/StillImage"/>
    <dc:date>2025-05-15T17:40:26.409618</dc:date>
    <dc:format>image/svg+xml</dc:format>
    <dc:creator>
     <cc:Agent>
      <dc:title>Matplotlib v3.10.1, https://matplotlib.org/</dc:title>
     </cc:Agent>
    </dc:creator>
   </cc:Work>
  </rdf:RDF>
 </metadata>
 <defs>
  <style type="text/css">*{stroke-linejoin: round; stroke-linecap: butt}</style>
 </defs>
 <g id="figure_1">
  <g id="patch_1">
   <path d="M 0 338.4 
L 453.6 338.4 
L 453.6 0 
L 0 0 
z
" style="fill: #ffffff"/>
  </g>
  <g id="axes_1">
   <g id="patch_2">
    <path d="M 7.2 331.2 
L 446.4 331.2 
L 446.4 7.2 
L 7.2 7.2 
z
" style="fill: #ffffff"/>
   </g>
   <g id="matplotlib.axis_1"/>
   <g id="matplotlib.axis_2"/>
   <g id="line2d_1">
    <path d="M 27.163636 316.472727 
L 27.997772 312.71687 
L 28.831907 308.022554 
L 29.944087 300.440509 
L 34.392808 267.773474 
L 36.061079 258.626019 
L 37.729349 249.339174 
L 39.39762 238.586645 
L 41.900025 222.461265 
L 43.568296 213.39509 
L 44.680476 208.314642 
L 45.514611 205.45563 
L 46.070701 204.256503 
L 46.348747 203.919092 
L 46.626792 203.773257 
L 46.904837 203.826767 
L 47.182882 204.082347 
L 47.738972 205.183325 
L 48.295062 206.986892 
L 49.129197 210.622246 
L 50.797468 218.392356 
L 51.631603 221.295512 
L 52.465738 223.307821 
L 53.299873 224.689228 
L 54.968144 227.167525 
L 55.802279 228.856533 
L 56.914459 231.792084 
L 59.416865 239.062778 
L 59.69491 239.475996 
L 59.972955 239.68534 
L 60.251 239.646186 
L 60.529045 239.312463 
L 60.80709 238.638119 
L 61.363181 236.09379 
L 61.919271 231.713639 
L 62.475361 225.315655 
L 63.309496 211.946864 
L 64.143631 194.687216 
L 65.533857 160.513393 
L 68.036262 92.497489 
L 69.704533 47.219993 
L 70.538668 30.239555 
L 71.094758 23.581996 
L 71.372803 22.073486 
L 71.650848 21.927273 
L 71.928893 23.221772 
L 72.206938 26.002747 
L 72.763029 36.026534 
L 73.319119 51.626375 
L 74.153254 83.312867 
L 76.933705 200.658381 
L 77.76784 224.337946 
L 78.601975 240.606075 
L 79.158065 247.811377 
L 79.714155 252.58265 
L 80.270246 255.346313 
L 80.548291 256.101703 
L 80.826336 256.501257 
L 81.104381 256.587572 
L 81.382426 256.400856 
L 81.938516 255.363271 
L 82.772651 252.713294 
L 84.440922 246.921208 
L 84.997012 245.644345 
L 85.553102 244.892999 
L 85.831147 244.722106 
L 86.109192 244.684442 
L 86.387237 244.774051 
L 86.943327 245.301842 
L 87.499418 246.232267 
L 88.333553 248.232819 
L 89.167688 250.817658 
L 90.279868 254.996118 
L 91.948139 261.606347 
L 92.504229 263.197738 
L 92.782274 263.719459 
L 93.060319 263.999888 
L 93.338364 263.993315 
L 93.616409 263.653681 
L 93.894454 262.934845 
L 94.450544 260.177879 
L 95.006635 255.378353 
L 95.562725 248.25584 
L 96.118815 238.645703 
L 96.95295 219.603056 
L 98.06513 187.145421 
L 100.011446 127.78863 
L 100.567536 115.414127 
L 101.123626 106.985705 
L 101.401671 104.480769 
L 101.679716 103.194417 
L 101.957761 103.154793 
L 102.235807 104.363687 
L 102.513852 106.796489 
L 103.069942 115.108232 
L 103.626032 127.415861 
L 104.460167 151.21797 
L 106.962573 227.05667 
L 107.796708 245.196549 
L 108.630843 258.419953 
L 109.464978 267.375809 
L 110.021069 271.477981 
L 110.577159 274.459301 
L 111.411294 277.48468 
L 112.245429 279.495134 
L 113.635655 282.026027 
L 115.303925 285.178478 
L 116.972195 288.315967 
L 117.806331 289.378159 
L 118.362421 289.735594 
L 118.918511 289.761184 
L 119.474601 289.449209 
L 120.030691 288.834027 
L 120.864827 287.513282 
L 122.255052 285.235804 
L 122.811142 284.670946 
L 123.367232 284.456761 
L 123.923322 284.644507 
L 124.479413 285.242065 
L 125.035503 286.218455 
L 125.869638 288.252871 
L 127.537908 293.312064 
L 128.928134 297.212028 
L 129.762269 298.916343 
L 130.318359 299.632159 
L 130.874449 299.900363 
L 131.152494 299.829641 
L 131.430539 299.598745 
L 131.708584 299.186822 
L 132.264675 297.723482 
L 132.820765 295.22401 
L 133.376855 291.446875 
L 133.932945 286.14585 
L 134.489035 279.104941 
L 135.32317 265.013934 
L 136.157306 246.87066 
L 139.215801 173.566668 
L 139.771892 165.838358 
L 140.327982 161.425279 
L 140.606027 160.518485 
L 140.884072 160.470252 
L 141.162117 161.252172 
L 141.440162 162.819362 
L 141.996252 168.063814 
L 142.830387 180.051059 
L 144.220613 205.550709 
L 145.888883 235.717072 
L 147.001064 252.547478 
L 148.113244 265.997334 
L 148.947379 273.6881 
L 149.781514 279.314493 
L 150.61565 283.07243 
L 151.17174 284.743072 
L 152.005875 286.419883 
L 153.95219 289.510427 
L 154.786326 291.52652 
L 155.620461 294.221424 
L 156.732641 298.726082 
L 159.235047 309.38723 
L 160.069182 311.854014 
L 160.625272 312.969944 
L 161.181362 313.634958 
L 161.737453 313.854617 
L 162.293543 313.649652 
L 162.849633 313.040861 
L 163.405723 312.03224 
L 163.961813 310.596429 
L 164.517903 308.66616 
L 165.073993 306.133408 
L 165.630084 302.85791 
L 166.464219 296.208586 
L 167.298354 287.029928 
L 168.132489 274.97969 
L 169.24467 254.443978 
L 170.634895 223.255545 
L 172.859256 172.900687 
L 173.693391 158.755445 
L 174.249481 151.918576 
L 174.805571 147.516437 
L 175.083616 146.292437 
L 175.361661 145.739016 
L 175.639706 145.860927 
L 175.917751 146.654698 
L 176.195796 148.109003 
L 176.751887 152.914971 
L 177.307977 160.039328 
L 178.142112 174.305663 
L 179.532337 203.911871 
L 181.478653 245.460183 
L 182.590833 264.155906 
L 183.424968 274.8898 
L 184.259104 282.98252 
L 185.093239 288.918763 
L 185.927374 293.29682 
L 186.761509 296.654272 
L 187.87369 300.107537 
L 188.707825 302.021184 
L 189.263915 302.90764 
L 189.820005 303.411772 
L 190.376095 303.47909 
L 190.932185 303.080319 
L 191.488276 302.225357 
L 192.322411 300.22507 
L 194.546771 293.902038 
L 195.102861 292.948538 
L 195.658952 292.470457 
L 195.936997 292.417132 
L 196.493087 292.658747 
L 197.049177 293.284287 
L 198.717447 295.75125 
L 198.995493 295.957061 
L 199.273538 296.021511 
L 199.551583 295.912164 
L 199.829628 295.596381 
L 200.107673 295.04129 
L 200.663763 293.080702 
L 201.219853 289.758881 
L 201.775943 284.793632 
L 202.332033 277.901011 
L 202.888124 268.818959 
L 203.722259 250.6744 
L 204.556394 227.009485 
L 205.668574 188.448483 
L 207.61489 118.964865 
L 208.449025 97.768217 
L 209.005115 88.910692 
L 209.28316 86.275405 
L 209.561205 84.877387 
L 209.83925 84.717766 
L 210.117296 85.77497 
L 210.395341 88.005394 
L 210.951431 95.716023 
L 211.507521 107.158904 
L 212.341656 129.422986 
L 215.956242 235.652668 
L 217.068422 258.895508 
L 217.902558 272.258293 
L 218.736693 282.35332 
L 219.570828 289.560581 
L 220.404963 294.3433 
L 220.961053 296.412541 
L 221.517144 297.723839 
L 222.073234 298.371569 
L 222.351279 298.471006 
L 222.629324 298.432404 
L 223.185414 297.975339 
L 223.741504 297.073623 
L 224.575639 295.081435 
L 227.078045 288.250429 
L 227.634135 287.35319 
L 228.190225 286.879657 
L 228.46827 286.814146 
L 228.746316 286.86511 
L 229.302406 287.310924 
L 229.858496 288.185624 
L 230.692631 290.153954 
L 232.638947 295.540568 
L 233.195037 296.394037 
L 233.473082 296.547999 
L 233.751127 296.473755 
L 234.029172 296.137138 
L 234.307217 295.505589 
L 234.863307 293.240455 
L 235.419397 289.481592 
L 235.975487 284.105544 
L 236.809623 272.946011 
L 237.643758 258.296314 
L 238.755938 234.28443 
L 240.424209 191.879979 
L 242.926614 126.805458 
L 243.76075 110.322385 
L 244.31684 102.579786 
L 244.87293 98.167896 
L 245.150975 97.370314 
L 245.42902 97.572537 
L 245.707065 98.80098 
L 245.98511 101.065088 
L 246.5412 108.645396 
L 247.09729 120.016807 
L 247.931426 142.853998 
L 251.267967 246.537137 
L 252.102102 263.388613 
L 252.936237 275.130424 
L 253.492327 280.521258 
L 254.048417 284.364051 
L 254.604507 287.026275 
L 255.160598 288.851752 
L 255.994733 290.643973 
L 257.106913 292.30915 
L 258.497139 294.456424 
L 259.609319 296.6809 
L 260.999544 300.080194 
L 262.38977 303.334953 
L 262.94586 304.249477 
L 263.50195 304.786793 
L 264.05804 304.878016 
L 264.61413 304.502619 
L 265.17022 303.698629 
L 266.004356 301.914404 
L 267.394581 298.715196 
L 267.950671 297.81007 
L 268.506761 297.243112 
L 269.062851 296.9725 
L 270.175032 296.589332 
L 270.453077 296.304675 
L 270.731122 295.846159 
L 271.287212 294.184165 
L 271.843302 291.156895 
L 272.399392 286.361705 
L 272.955482 279.500426 
L 273.789618 265.08718 
L 274.623753 246.171188 
L 277.682249 170.147732 
L 278.238339 161.608246 
L 278.794429 156.033658 
L 279.072474 154.401478 
L 279.350519 153.534107 
L 279.628564 153.41178 
L 279.906609 154.003389 
L 280.184654 155.268479 
L 280.740744 159.621458 
L 281.296835 166.031755 
L 282.13097 178.481817 
L 283.79924 208.428714 
L 285.467511 237.895305 
L 286.579691 253.754829 
L 287.413826 262.40693 
L 287.969916 266.416315 
L 288.526007 269.04997 
L 289.082097 270.469277 
L 289.360142 270.804678 
L 289.638187 270.94487 
L 290.194277 270.821477 
L 291.306457 270.195996 
L 291.862547 270.239863 
L 292.418638 270.675388 
L 293.252773 271.854109 
L 293.808863 272.635448 
L 294.364953 273.031947 
L 294.642998 272.983108 
L 294.921043 272.723556 
L 295.199088 272.228394 
L 295.755179 270.483557 
L 296.311269 267.77256 
L 297.423449 260.516833 
L 298.257584 255.319635 
L 298.813674 252.98705 
L 299.091719 252.336861 
L 299.369764 252.086975 
L 299.64781 252.263369 
L 299.925855 252.877869 
L 300.481945 255.393829 
L 301.038035 259.437456 
L 301.87217 267.458177 
L 303.262396 281.346201 
L 303.818486 285.496089 
L 304.374576 288.251864 
L 304.652621 289.038595 
L 304.930666 289.411576 
L 305.208711 289.364692 
L 305.486756 288.896926 
L 305.764801 288.010739 
L 306.320891 285.002648 
L 306.876982 280.380855 
L 307.433072 274.167118 
L 308.267207 261.831344 
L 309.101342 245.807739 
L 310.213522 219.117302 
L 312.715928 154.624038 
L 313.272018 145.116161 
L 313.828108 139.285423 
L 314.106153 137.935748 
L 314.384199 137.688716 
L 314.662244 138.559683 
L 314.940289 140.539419 
L 315.496379 147.668714 
L 316.052469 158.543655 
L 316.886604 180.016296 
L 319.38901 250.374529 
L 320.223145 267.779646 
L 321.05728 280.96304 
L 321.891416 290.542874 
L 322.725551 297.40391 
L 323.559686 302.315452 
L 324.393821 305.76481 
L 324.949911 307.37193 
L 325.506002 308.454363 
L 326.062092 309.016739 
L 326.340137 309.103921 
L 326.618182 309.063376 
L 327.174272 308.609722 
L 327.730362 307.689396 
L 328.286452 306.35736 
L 329.120587 303.757612 
L 332.179083 293.19523 
L 333.013219 291.411305 
L 333.569309 290.695289 
L 334.125399 290.392294 
L 334.681489 290.512415 
L 335.237579 291.044057 
L 335.793669 291.947221 
L 336.627805 293.816901 
L 337.739985 296.471618 
L 338.296075 297.342094 
L 338.57412 297.528278 
L 338.852165 297.488912 
L 339.13021 297.176825 
L 339.408255 296.543744 
L 339.6863 295.541058 
L 340.24239 292.236098 
L 340.798481 286.904267 
L 341.354571 279.258213 
L 342.188706 263.114703 
L 343.022841 241.502184 
L 344.135022 206.017406 
L 346.637427 122.754471 
L 347.471562 102.253446 
L 348.027653 92.179126 
L 348.583743 85.358396 
L 348.861788 83.237971 
L 349.139833 82.00317 
L 349.417878 81.666183 
L 349.695923 82.23383 
L 349.973968 83.706682 
L 350.530058 89.338946 
L 351.086148 98.429122 
L 351.920284 117.919727 
L 353.032464 152.227203 
L 355.53487 235.368914 
L 356.369005 256.296596 
L 357.20314 271.680617 
L 357.75923 278.932065 
L 358.31532 284.066229 
L 358.87141 287.440218 
L 359.427501 289.450112 
L 359.983591 290.48245 
L 360.539681 290.879594 
L 361.095771 290.919889 
L 362.764042 290.741077 
L 363.320132 290.957928 
L 363.876222 291.417589 
L 364.432312 292.143693 
L 365.266447 293.719288 
L 366.378628 296.494435 
L 368.046898 300.769466 
L 368.881033 302.367716 
L 369.715168 303.445336 
L 370.271259 303.890798 
L 370.827349 304.143041 
L 371.383439 304.210054 
L 371.939529 304.068339 
L 372.495619 303.650658 
L 373.051709 302.84127 
L 373.607799 301.478911 
L 374.16389 299.365559 
L 374.71998 296.27603 
L 375.27607 291.961953 
L 375.83216 286.159374 
L 376.38825 278.603449 
L 377.222385 263.454351 
L 378.056521 243.215393 
L 378.890656 217.839722 
L 380.280881 167.044614 
L 381.949152 107.177775 
L 382.783287 86.056564 
L 383.339377 77.439003 
L 383.617422 74.995493 
L 383.895467 73.846003 
L 384.173512 73.99902 
L 384.451557 75.440133 
L 384.729602 78.131986 
L 385.285693 87.017193 
L 385.841783 99.980358 
L 386.675918 125.102023 
L 390.012459 235.173711 
L 390.846594 254.741164 
L 391.680729 269.796888 
L 392.514865 280.771364 
L 393.349 288.395546 
L 394.183135 293.520101 
L 395.01727 296.955469 
L 395.851405 299.345405 
L 396.685541 301.099774 
L 397.519676 302.378774 
L 398.075766 302.946261 
L 398.631856 303.224545 
L 399.187946 303.145016 
L 399.744036 302.643754 
L 400.300127 301.679792 
L 400.856217 300.252695 
L 401.690352 297.376271 
L 403.636668 289.910973 
L 404.192758 288.482131 
L 404.748848 287.672089 
L 405.026893 287.520869 
L 405.304938 287.538664 
L 405.582983 287.717522 
L 406.139073 288.49623 
L 406.973208 290.34651 
L 407.807344 292.234485 
L 408.363434 293.040481 
L 408.641479 293.208519 
L 408.919524 293.182358 
L 409.197569 292.938177 
L 409.475614 292.455722 
L 410.031704 290.711251 
L 410.587794 287.847175 
L 411.143885 283.794919 
L 411.97802 275.371931 
L 412.812155 263.972939 
L 413.64629 249.43747 
L 414.75847 225.283993 
L 418.095011 146.081481 
L 418.651102 138.839409 
L 418.929147 136.532453 
L 419.207192 135.179321 
L 419.485237 134.818094 
L 419.763282 135.468815 
L 420.041327 137.132611 
L 420.597417 143.408421 
L 421.153507 153.28112 
L 421.987642 173.418326 
L 425.324183 264.527587 
L 426.158319 279.633782 
L 426.436364 283.725242 
L 426.436364 283.725242 
" clip-path="url(#p551148c5d5)" style="fill: none; stroke-dasharray: 11.1,4.8; stroke-dashoffset: 0; stroke: #000000; stroke-width: 3"/>
   </g>
   <g id="line2d_2">
    <path d="M 27.163636 279.472849 
L 27.997772 278.277981 
L 28.831907 277.392726 
L 29.944087 276.529491 
L 30.222132 276.096252 
L 31.612358 269.359029 
L 31.890403 269.653275 
L 32.168448 270.379695 
L 32.724538 273.078507 
L 33.002583 272.977827 
L 34.948898 271.317781 
L 36.339124 270.540389 
L 37.173259 270.326462 
L 37.451304 270.351258 
L 38.007394 270.73465 
L 38.563484 271.045005 
L 38.84153 270.909508 
L 39.675665 268.46785 
L 41.900025 261.598246 
L 42.456115 260.386528 
L 43.568296 258.723928 
L 47.460927 251.233136 
L 48.851152 249.593372 
L 49.685287 248.300903 
L 50.519423 246.599528 
L 50.797468 245.912145 
L 51.631603 245.079684 
L 52.465738 244.143134 
L 53.577918 242.385509 
L 54.134009 241.571039 
L 54.690099 241.269711 
L 55.524234 240.46976 
L 56.358369 239.306854 
L 58.304685 235.967119 
L 59.13882 233.923712 
L 60.251 230.394939 
L 61.363181 226.132764 
L 61.919271 223.642023 
L 62.197316 223.150322 
L 63.587541 226.110869 
L 65.255812 229.070714 
L 66.924082 231.446418 
L 69.148443 234.455315 
L 70.260623 236.500103 
L 71.372803 239.15899 
L 72.206938 237.210322 
L 73.041074 235.829285 
L 73.875209 234.909576 
L 74.709344 234.35695 
L 75.543479 234.091634 
L 76.377615 234.04023 
L 77.489795 234.200777 
L 79.158065 234.692772 
L 79.43611 234.815354 
L 81.660471 237.751653 
L 83.050696 239.082891 
L 84.718967 240.363101 
L 87.777463 242.385193 
L 91.114004 244.031298 
L 92.226184 244.513032 
L 94.72859 244.684565 
L 97.787085 244.666412 
L 102.791897 244.374781 
L 108.074753 244.131268 
L 112.245429 244.163624 
L 113.9137 244.309112 
L 119.474601 245.227054 
L 136.435351 247.825024 
L 144.220613 250.920289 
L 148.669334 252.40746 
L 152.561965 253.487871 
L 153.118055 253.541528 
L 158.122867 253.035808 
L 163.127678 252.769505 
L 167.854444 252.735197 
L 171.190985 252.704576 
L 174.527526 251.987337 
L 178.698202 250.849096 
L 183.703013 249.228087 
L 189.820005 247.042471 
L 196.771132 242.88103 
L 199.273538 241.796145 
L 201.775943 240.960474 
L 204.000304 240.441547 
L 206.224664 240.14578 
L 208.449025 240.085442 
L 210.673386 240.25527 
L 213.453836 240.689627 
L 216.512332 241.407645 
L 219.848873 242.428373 
L 224.019549 243.956564 
L 227.91218 245.459149 
L 228.46827 245.304936 
L 230.414586 244.654238 
L 232.638947 244.156758 
L 234.863307 243.895964 
L 237.087668 243.850538 
L 239.590073 244.012559 
L 242.648569 244.44518 
L 251.546012 246.127376 
L 259.887364 248.235665 
L 262.111724 248.496869 
L 263.50195 248.509429 
L 265.448265 247.913051 
L 268.784806 247.058765 
L 273.511573 246.122538 
L 281.57488 244.71534 
L 284.633376 244.877091 
L 290.472322 245.473892 
L 294.364953 245.752262 
L 297.145404 245.728623 
L 298.535629 245.547169 
L 302.42826 244.059867 
L 305.764801 242.539059 
L 308.823297 240.892259 
L 311.603748 239.145736 
L 314.106153 237.31705 
L 315.496379 236.154838 
L 322.725551 234.718069 
L 324.949911 234.000614 
L 326.896227 233.163493 
L 328.842542 232.079264 
L 330.788858 230.718502 
L 332.735173 229.066787 
L 333.013219 228.812358 
L 333.291264 228.717804 
L 334.959534 229.061626 
L 336.627805 229.187132 
L 338.57412 229.106758 
L 341.076526 228.745593 
L 344.969157 227.901197 
L 348.861788 227.125479 
L 351.086148 226.887297 
L 352.476374 226.917531 
L 353.866599 227.298408 
L 355.256825 227.465228 
L 356.64705 227.439745 
L 358.31532 227.200313 
L 360.261636 226.679766 
L 362.485996 225.833001 
L 365.266447 224.508206 
L 368.881033 222.516118 
L 372.495619 220.567419 
L 373.051709 220.556664 
L 377.222385 221.158187 
L 380.280881 221.797652 
L 383.061332 222.598737 
L 385.563738 223.552168 
L 388.066143 224.751727 
L 390.290504 226.048378 
L 391.958774 227.17534 
L 392.514865 227.827828 
L 394.183135 229.813798 
L 395.851405 231.437137 
L 397.519676 232.739744 
L 399.187946 233.761298 
L 400.856217 234.518793 
L 402.802532 235.032204 
L 405.026893 235.388733 
L 407.529299 235.566978 
L 411.143885 235.576267 
L 413.924335 235.605684 
L 415.870651 236.255641 
L 417.816966 236.640067 
L 419.485237 236.690029 
L 421.987642 236.526666 
L 426.436364 235.92647 
L 426.436364 235.92647 
" clip-path="url(#p551148c5d5)" style="fill: none; stroke: #ff00ff; stroke-width: 3; stroke-linecap: square"/>
   </g>
   <g id="patch_3">
    <path d="M 7.2 331.2 
L 7.2 7.2 
" style="fill: none; stroke: #000000; stroke-width: 0.8; stroke-linejoin: miter; stroke-linecap: square"/>
   </g>
   <g id="patch_4">
    <path d="M 446.4 331.2 
L 446.4 7.2 
" style="fill: none; stroke: #000000; stroke-width: 0.8; stroke-linejoin: miter; stroke-linecap: square"/>
   </g>
   <g id="patch_5">
    <path d="M 7.2 331.2 
L 446.4 331.2 
" style="fill: none; stroke: #000000; stroke-width: 0.8; stroke-linejoin: miter; stroke-linecap: square"/>
   </g>
   <g id="patch_6">
    <path d="M 7.2 7.2 
L 446.4 7.2 
" style="fill: none; stroke: #000000; stroke-width: 0.8; stroke-linejoin: miter; stroke-linecap: square"/>
   </g>
  </g>
 </g>
 <defs>
  <clipPath id="p551148c5d5">
   <rect x="7.2" y="7.2" width="439.2" height="324"/>
  </clipPath>
 </defs>
</svg>
