<?xml version="1.0" encoding="utf-8" standalone="no"?>
<!DOCTYPE svg PUBLIC "-//W3C//DTD SVG 1.1//EN"
  "http://www.w3.org/Graphics/SVG/1.1/DTD/svg11.dtd">
<svg xmlns:xlink="http://www.w3.org/1999/xlink" width="453.6pt" height="338.4pt" viewBox="0 0 453.6 338.4" xmlns="http://www.w3.org/2000/svg" version="1.1">
 <metadata>
  <rdf:RDF xmlns:dc="http://purl.org/dc/elements/1.1/" xmlns:cc="http://creativecommons.org/ns#" xmlns:rdf="http://www.w3.org/1999/02/22-rdf-syntax-ns#">
   <cc:Work>
    <dc:type rdf:resource="http://purl.org/dc/dcmitype/StillImage"/>
    <dc:date>2025-05-15T17:52:02.637628</dc:date>
    <dc:format>image/svg+xml</dc:format>
    <dc:creator>
     <cc:Agent>
      <dc:title>Matplotlib v3.10.1, https://matplotlib.org/</dc:title>
     </cc:Agent>
    </dc:creator>
   </cc:Work>
  </rdf:RDF>
 </metadata>
 <defs>
  <style type="text/css">*{stroke-linejoin: round; stroke-linecap: butt}</style>
 </defs>
 <g id="figure_1">
  <g id="patch_1">
   <path d="M 0 338.4 
L 453.6 338.4 
L 453.6 0 
L 0 0 
z
" style="fill: #ffffff"/>
  </g>
  <g id="axes_1">
   <g id="patch_2">
    <path d="M 7.2 331.2 
L 446.4 331.2 
L 446.4 7.2 
L 7.2 7.2 
z
" style="fill: #ffffff"/>
   </g>
   <g id="matplotlib.axis_1"/>
   <g id="matplotlib.axis_2"/>
   <g id="line2d_1">
    <path d="M 27.163636 265.51357 
L 28.275817 277.253135 
L 29.109952 283.912181 
L 29.944087 288.500083 
L 30.500177 290.354728 
L 31.056267 291.244397 
L 31.334312 291.335555 
L 31.612358 291.198771 
L 31.890403 290.841881 
L 32.446493 289.505374 
L 33.002583 287.412392 
L 33.836718 283.077873 
L 34.948898 275.609757 
L 36.339124 264.484027 
L 38.007394 249.276612 
L 39.95371 229.230171 
L 46.626792 156.031608 
L 48.017017 136.788102 
L 49.407242 114.192932 
L 51.631603 73.429911 
L 53.299873 44.424936 
L 54.134009 33.160887 
L 54.690099 27.632611 
L 55.246189 23.949087 
L 55.802279 22.15434 
L 56.080324 21.927273 
L 56.358369 22.102061 
L 56.636414 22.630303 
L 57.192504 24.510121 
L 59.416865 33.989067 
L 59.972955 35.302102 
L 61.085135 37.455451 
L 61.641226 39.277808 
L 62.197316 42.306452 
L 62.753406 46.91048 
L 63.309496 53.218384 
L 64.143631 65.502048 
L 66.646037 106.103301 
L 67.480172 115.626521 
L 68.592352 125.336462 
L 69.704533 135.12656 
L 70.538668 144.625295 
L 71.650848 160.759666 
L 73.597164 190.837054 
L 74.431299 200.345666 
L 74.987389 204.800811 
L 75.543479 207.712687 
L 76.09957 209.197117 
L 76.377615 209.466119 
L 76.65566 209.460603 
L 76.933705 209.212443 
L 77.489795 208.108459 
L 78.045885 206.36819 
L 78.88002 202.909871 
L 79.992201 197.047787 
L 81.104381 189.532484 
L 82.216561 179.933846 
L 83.606787 165.140654 
L 85.275057 146.969293 
L 86.109192 140.273939 
L 86.665282 137.486352 
L 86.943327 136.6921 
L 87.221372 136.324557 
L 87.499418 136.394536 
L 87.777463 136.904962 
L 88.055508 137.851422 
L 88.611598 140.992112 
L 89.167688 145.620442 
L 90.001823 154.68737 
L 94.172499 204.771847 
L 97.50904 236.89988 
L 99.177311 251.793272 
L 100.289491 259.846727 
L 101.123626 264.508558 
L 101.957761 267.901687 
L 102.513852 269.46411 
L 103.069942 270.479346 
L 103.626032 270.961217 
L 103.904077 271.0044 
L 104.182122 270.915945 
L 104.738212 270.345305 
L 105.294302 269.256885 
L 105.850393 267.662945 
L 106.684528 264.34135 
L 107.518663 259.923713 
L 108.352798 254.428583 
L 109.464978 245.574512 
L 112.245429 221.888805 
L 112.801519 218.663336 
L 113.35761 216.504731 
L 113.635655 215.874011 
L 113.9137 215.557209 
L 114.191745 215.558245 
L 114.46979 215.874913 
L 114.747835 216.499308 
L 115.303925 218.611266 
L 115.860015 221.72946 
L 116.69415 227.809502 
L 120.308736 256.917741 
L 121.420917 263.357681 
L 122.533097 268.284097 
L 123.367232 271.053308 
L 124.201367 273.024748 
L 124.757458 273.87451 
L 125.313548 274.326944 
L 125.869638 274.360822 
L 126.425728 273.965952 
L 126.981818 273.137588 
L 127.537908 271.869814 
L 128.372044 269.140949 
L 129.206179 265.427793 
L 130.318359 259.030765 
L 133.376855 239.34923 
L 133.932945 237.369868 
L 134.21099 236.77488 
L 134.489035 236.469461 
L 134.76708 236.465993 
L 135.045125 236.770435 
L 135.32317 237.382068 
L 135.879261 239.490918 
L 136.435351 242.659452 
L 137.269486 248.920309 
L 141.162117 281.063843 
L 142.552342 289.716708 
L 143.942568 297.015148 
L 145.054748 301.777919 
L 145.888883 304.622984 
L 146.723018 306.847869 
L 147.557154 308.52795 
L 148.391289 309.788686 
L 149.503469 311.032808 
L 150.893695 312.193981 
L 153.118055 313.687259 
L 156.176551 315.495172 
L 157.566776 316.075644 
L 158.957002 316.39043 
L 160.347227 316.472727 
L 162.571588 316.331166 
L 165.352038 315.918153 
L 168.132489 315.27384 
L 170.91294 314.401919 
L 172.859256 313.557006 
L 176.473841 311.838194 
L 177.864067 311.49686 
L 183.703013 310.48787 
L 188.98587 308.792668 
L 190.65414 308.115894 
L 191.766321 307.467648 
L 192.878501 306.582967 
L 193.990681 305.442779 
L 195.380907 303.671646 
L 196.493087 301.898629 
L 197.327222 300.231061 
L 198.161357 298.132731 
L 198.995493 295.500624 
L 200.107673 291.15545 
L 202.888124 279.384376 
L 203.722259 276.836542 
L 204.556394 274.965495 
L 205.946619 272.655471 
L 206.780755 271.019029 
L 207.336845 269.514158 
L 207.892935 267.540077 
L 208.72707 263.570388 
L 209.561205 258.431954 
L 212.619701 237.823435 
L 213.175791 235.607486 
L 213.731881 234.233824 
L 214.009927 233.864283 
L 214.287972 233.695344 
L 214.566017 233.712041 
L 214.844062 233.894793 
L 215.400152 234.662379 
L 216.234287 236.404036 
L 217.346467 238.705733 
L 217.902558 239.517484 
L 218.458648 240.046687 
L 219.292783 240.444281 
L 220.404963 240.85639 
L 220.961053 241.275352 
L 221.517144 241.92368 
L 222.351279 243.286161 
L 224.019549 246.166858 
L 224.575639 246.688666 
L 225.13173 246.819223 
L 225.68782 246.525861 
L 226.24391 245.828697 
L 227.078045 244.169788 
L 228.190225 241.268717 
L 230.692631 233.963728 
L 231.804811 230.128581 
L 232.916992 225.355063 
L 234.029172 219.319369 
L 235.141352 211.706285 
L 236.253533 202.123365 
L 237.365713 190.410437 
L 240.702254 152.940757 
L 241.258344 149.172213 
L 241.814434 146.853185 
L 242.092479 146.290463 
L 242.370524 146.144088 
L 242.648569 146.421646 
L 242.926614 147.126415 
L 243.482704 149.808975 
L 244.038795 154.129378 
L 244.87293 163.378264 
L 245.98511 179.743155 
L 249.321651 233.617945 
L 250.155786 243.227656 
L 250.989921 250.400824 
L 251.824057 255.350133 
L 252.380147 257.615022 
L 252.936237 259.215292 
L 253.492327 260.278408 
L 254.048417 260.892553 
L 254.604507 261.105602 
L 255.160598 260.928378 
L 255.716688 260.332116 
L 256.272778 259.261555 
L 256.828868 257.656091 
L 257.384958 255.460353 
L 258.219093 250.973402 
L 259.053229 245.059732 
L 260.165409 235.324587 
L 262.667815 212.109846 
L 263.50195 206.568825 
L 264.05804 204.003994 
L 264.61413 202.409924 
L 264.892175 201.968332 
L 265.17022 201.748978 
L 265.448265 201.735607 
L 265.72631 201.909209 
L 266.282401 202.732417 
L 266.838491 204.040679 
L 267.950671 207.459313 
L 270.731122 216.563955 
L 271.565257 218.559346 
L 272.121347 219.26307 
L 272.399392 219.334427 
L 272.677437 219.171422 
L 272.955482 218.737827 
L 273.233527 217.998872 
L 273.789618 215.483344 
L 274.345708 211.426386 
L 274.901798 205.721074 
L 275.735933 194.146816 
L 276.848113 174.200998 
L 279.350519 126.189595 
L 280.184654 114.398223 
L 280.740744 108.666728 
L 281.296835 104.889443 
L 281.57488 103.78688 
L 281.852925 103.229924 
L 282.13097 103.229406 
L 282.409015 103.791693 
L 282.68706 104.917789 
L 283.24315 108.836971 
L 283.79924 114.874954 
L 284.633376 127.397035 
L 285.745556 148.689983 
L 288.526007 205.124073 
L 289.638187 223.374421 
L 290.472322 234.252927 
L 291.028412 239.748771 
L 291.584502 243.508934 
L 291.862547 244.645885 
L 292.140593 245.244089 
L 292.418638 245.278978 
L 292.696683 244.734006 
L 292.974728 243.601902 
L 293.530818 239.599705 
L 294.086908 233.437533 
L 294.921043 221.00044 
L 297.145404 184.885637 
L 297.701494 179.095905 
L 298.257584 175.6876 
L 298.535629 174.95238 
L 298.813674 174.876434 
L 299.091719 175.452627 
L 299.369764 176.661538 
L 299.925855 180.843762 
L 300.481945 187.067925 
L 301.31608 199.224676 
L 305.208711 261.747228 
L 306.320891 274.11481 
L 307.155027 280.947142 
L 307.711117 284.271608 
L 308.267207 286.601878 
L 308.823297 287.958252 
L 309.101342 288.28331 
L 309.379387 288.381907 
L 309.657432 288.262224 
L 309.935477 287.933285 
L 310.491567 286.685081 
L 311.047658 284.71054 
L 311.881793 280.534084 
L 312.715928 275.072105 
L 313.828108 266.101993 
L 315.496379 250.381896 
L 317.442694 232.502705 
L 318.83292 222.050423 
L 320.223145 213.460577 
L 321.61337 206.108414 
L 323.003596 199.884569 
L 325.784047 188.749631 
L 326.340137 185.352909 
L 326.896227 180.943006 
L 327.730362 171.93694 
L 328.564497 159.788453 
L 329.676678 139.46742 
L 331.901038 96.618572 
L 332.735173 84.166504 
L 333.569309 74.637418 
L 334.403444 67.627185 
L 335.237579 62.433276 
L 336.071714 58.522016 
L 336.627805 56.601485 
L 337.183895 55.379655 
L 337.46194 55.098102 
L 337.739985 55.07843 
L 338.01803 55.352646 
L 338.296075 55.948862 
L 338.852165 58.184657 
L 339.408255 61.849345 
L 340.24239 69.778227 
L 341.632616 86.790367 
L 343.022841 103.07586 
L 344.135022 113.374596 
L 345.803292 127.703925 
L 346.637427 136.805116 
L 347.749607 152.071111 
L 350.808103 197.964322 
L 351.642239 206.925756 
L 352.476374 213.715773 
L 353.310509 218.590917 
L 354.144644 221.851375 
L 354.700734 223.192212 
L 355.256825 223.851797 
L 355.53487 223.910703 
L 355.812915 223.776068 
L 356.09096 223.436244 
L 356.64705 222.099209 
L 357.20314 219.842313 
L 357.75923 216.662129 
L 358.593365 210.322336 
L 359.983591 197.162749 
L 361.373816 184.462137 
L 362.207951 178.634566 
L 363.042087 174.48113 
L 363.876222 171.698357 
L 364.710357 169.717707 
L 366.100582 167.077716 
L 366.934718 165.909335 
L 367.490808 165.562499 
L 367.768853 165.58665 
L 368.046898 165.773021 
L 368.324943 166.14267 
L 368.881033 167.499544 
L 369.437123 169.751284 
L 369.993213 172.923446 
L 370.827349 179.325772 
L 371.939529 190.474616 
L 373.329754 207.449895 
L 376.110205 243.110086 
L 376.94434 251.422047 
L 377.778476 257.56858 
L 378.334566 260.355624 
L 378.890656 262.129065 
L 379.446746 262.994466 
L 379.724791 263.134879 
L 380.002836 263.110068 
L 380.558926 262.655168 
L 381.115016 261.803895 
L 382.227197 259.506581 
L 384.729602 253.702589 
L 385.563738 251.138121 
L 386.397873 247.713395 
L 387.232008 243.164104 
L 388.344188 235.35946 
L 390.846594 216.445006 
L 391.402684 213.622939 
L 391.958774 211.741391 
L 392.236819 211.178895 
L 392.514865 210.871002 
L 392.79291 210.812513 
L 393.070955 210.993293 
L 393.349 211.398592 
L 393.90509 212.804745 
L 394.739225 216.055652 
L 395.851405 221.580711 
L 398.631856 236.939749 
L 401.134262 250.716434 
L 401.968397 254.217393 
L 402.802532 256.704976 
L 403.358622 257.765827 
L 403.914713 258.373002 
L 404.470803 258.578242 
L 405.026893 258.446361 
L 405.582983 258.035388 
L 406.417118 256.992692 
L 407.251253 255.519389 
L 408.085389 253.593354 
L 408.919524 251.110514 
L 409.753659 247.975361 
L 410.865839 242.862962 
L 412.53411 235.030892 
L 413.0902 233.206496 
L 413.64629 232.191702 
L 413.924335 232.057486 
L 414.20238 232.201413 
L 414.480425 232.638726 
L 415.036516 234.423395 
L 415.592606 237.406553 
L 416.426741 243.879176 
L 417.538921 255.099587 
L 420.041327 281.313774 
L 421.153507 290.226984 
L 421.987642 295.430614 
L 422.821778 299.456573 
L 423.655913 302.453438 
L 424.490048 304.61427 
L 425.324183 306.124805 
L 426.158319 307.153152 
L 426.436364 307.415812 
L 426.436364 307.415812 
" clip-path="url(#p0094c4e295)" style="fill: none; stroke-dasharray: 11.1,4.8; stroke-dashoffset: 0; stroke: #000000; stroke-width: 3"/>
   </g>
   <g id="line2d_2">
    <path d="M 27.163636 249.689683 
L 27.997772 252.755439 
L 28.831907 254.904325 
L 29.387997 255.845028 
L 29.944087 256.402719 
L 30.500177 256.674503 
L 30.778222 256.726766 
L 31.056267 256.998583 
L 31.334312 257.979591 
L 32.724538 265.684773 
L 33.002583 266.174842 
L 33.836718 265.354785 
L 34.948898 263.834588 
L 36.339124 261.510011 
L 36.895214 259.89449 
L 37.729349 256.532523 
L 38.563484 252.126156 
L 39.675665 244.858228 
L 41.06589 234.108582 
L 46.626792 188.47493 
L 47.182882 184.745069 
L 47.460927 187.048704 
L 48.295062 198.921471 
L 49.129197 207.525239 
L 51.631603 226.790965 
L 52.465738 230.986536 
L 53.021828 233.016298 
L 53.855964 233.929089 
L 54.690099 234.430799 
L 55.524234 234.563269 
L 56.080324 234.458769 
L 56.914459 234.024029 
L 57.748595 233.271134 
L 58.58273 232.203594 
L 59.69491 230.27763 
L 60.80709 227.799274 
L 61.919271 224.747281 
L 63.309496 220.138281 
L 64.699721 214.695711 
L 66.367992 207.244371 
L 69.148443 194.069625 
L 69.426488 194.521245 
L 70.538668 205.279415 
L 71.372803 214.151499 
L 71.928893 218.547705 
L 72.484984 220.93438 
L 72.763029 221.537415 
L 73.041074 221.796605 
L 73.319119 221.76078 
L 73.597164 221.481107 
L 74.153254 220.295412 
L 74.987389 217.438331 
L 76.377615 211.373037 
L 78.045885 204.286165 
L 79.158065 200.530883 
L 79.992201 198.3951 
L 80.826336 196.893021 
L 81.382426 196.241401 
L 81.938516 195.86459 
L 82.494606 195.757549 
L 83.050696 195.910744 
L 83.606787 195.035883 
L 83.884832 194.416185 
L 85.275057 188.570004 
L 86.665282 183.563769 
L 88.055508 178.728219 
L 89.167688 184.212231 
L 90.557913 189.576181 
L 92.504229 196.855031 
L 93.616409 202.182296 
L 94.450544 207.212941 
L 95.28468 213.359771 
L 96.39686 223.560859 
L 96.674905 225.989117 
L 96.95295 225.892054 
L 97.230995 225.262771 
L 97.50904 225.13682 
L 97.787085 225.28673 
L 98.06513 225.641947 
L 98.621221 226.916742 
L 99.177311 228.975543 
L 99.733401 231.760807 
L 100.567536 236.231663 
L 100.845581 235.263508 
L 103.347987 223.115331 
L 104.738212 217.31273 
L 105.016257 216.280597 
L 105.572347 212.787447 
L 106.962573 203.639099 
L 108.352798 196.079097 
L 109.464978 191.175357 
L 110.577159 187.14428 
L 111.689339 183.831952 
L 111.967384 183.098745 
L 113.635655 188.41991 
L 114.46979 190.377578 
L 115.303925 191.801331 
L 116.13806 192.72237 
L 116.69415 193.078323 
L 117.250241 193.2252 
L 117.806331 193.187369 
L 118.640466 192.78919 
L 119.474601 191.998949 
L 120.308736 190.842703 
L 121.142872 189.268263 
L 121.420917 188.651716 
L 123.089187 193.745737 
L 123.645277 195.948365 
L 124.479413 202.958899 
L 125.313548 208.176441 
L 126.147683 211.943865 
L 126.981818 214.5397 
L 128.093998 217.107298 
L 129.762269 227.006526 
L 131.152494 233.759858 
L 133.09881 241.730716 
L 135.601215 251.657271 
L 136.713396 256.984118 
L 137.269486 259.529437 
L 137.825576 253.985433 
L 138.937756 242.911465 
L 140.049937 233.724426 
L 141.440162 224.009253 
L 142.552342 214.704452 
L 143.664523 203.476403 
L 144.776703 190.029414 
L 145.888883 175.759752 
L 146.166928 176.345538 
L 147.835199 197.461726 
L 149.503469 215.768742 
L 150.893695 228.837424 
L 152.28392 240.070804 
L 154.230236 254.982385 
L 156.732641 281.255562 
L 157.566776 266.015305 
L 159.513092 249.197282 
L 160.625272 241.263528 
L 161.181362 238.156206 
L 161.737453 236.418518 
L 162.293543 235.193246 
L 162.849633 234.438729 
L 163.405723 234.102499 
L 163.961813 234.172227 
L 164.517903 234.595534 
L 165.352038 235.695724 
L 165.908129 236.597468 
L 166.464219 238.23048 
L 167.298354 240.480917 
L 167.576399 240.941637 
L 167.854444 241.179167 
L 168.132489 241.203518 
L 168.410534 240.939915 
L 168.688579 240.390188 
L 168.966624 239.498781 
L 169.522715 236.583855 
L 170.35685 231.248818 
L 172.02512 222.00808 
L 173.137301 216.956 
L 173.971436 214.132696 
L 174.527526 212.822369 
L 174.805571 212.652712 
L 175.361661 213.086582 
L 175.917751 213.773953 
L 176.473841 214.749962 
L 176.751887 215.37973 
L 178.142112 223.610071 
L 179.254292 229.201942 
L 179.532337 228.891458 
L 180.644518 226.801654 
L 181.478653 225.622961 
L 182.034743 225.067593 
L 182.590833 224.736752 
L 183.146923 224.659896 
L 183.703013 224.865629 
L 184.259104 225.379907 
L 184.815194 226.24138 
L 185.371284 227.469135 
L 185.927374 229.07645 
L 186.761509 232.260586 
L 187.595644 236.408983 
L 188.42978 241.577154 
L 189.54196 250.093511 
L 192.600456 276.751714 
L 193.712636 275.318869 
L 195.102861 273.93004 
L 197.605267 271.548804 
L 198.717447 270.15817 
L 199.829628 268.344244 
L 200.663763 266.589033 
L 201.497898 264.382836 
L 202.332033 261.575093 
L 203.166169 257.973273 
L 204.000304 253.333821 
L 204.834439 247.285483 
L 205.668574 239.437886 
L 206.50271 229.211218 
L 207.0588 219.885542 
L 207.892935 203.661529 
L 208.449025 197.391622 
L 209.28316 186.6834 
L 209.561205 188.888978 
L 211.507521 197.086762 
L 213.731881 206.338808 
L 215.122107 213.26056 
L 216.234287 220.016115 
L 217.346467 228.226208 
L 218.736693 239.840686 
L 220.404963 230.944861 
L 220.961053 229.298913 
L 221.517144 228.205166 
L 222.073234 227.592897 
L 222.629324 227.371638 
L 223.185414 227.444048 
L 223.741504 227.748691 
L 224.297594 228.237732 
L 224.575639 228.019046 
L 225.13173 227.004061 
L 225.68782 226.345772 
L 226.24391 226.0307 
L 226.8 226.061687 
L 227.078045 226.295807 
L 227.35609 226.805439 
L 227.91218 228.733935 
L 228.46827 231.99222 
L 229.024361 236.743944 
L 229.580451 243.03348 
L 230.414586 255.485582 
L 230.692631 252.474078 
L 231.526766 239.079644 
L 232.360901 230.085978 
L 233.195037 223.857045 
L 233.751127 220.678557 
L 234.307217 218.795697 
L 234.863307 217.746191 
L 235.419397 217.346031 
L 235.975487 217.381865 
L 236.531578 217.697555 
L 238.755938 219.395331 
L 239.312028 219.510803 
L 239.868119 219.419515 
L 240.424209 219.069487 
L 240.980299 218.500164 
L 241.814434 217.195795 
L 242.926614 214.834106 
L 244.31684 211.319998 
L 244.87293 209.144612 
L 245.707065 204.604254 
L 246.819245 197.670944 
L 247.09729 197.267801 
L 247.653381 195.757273 
L 248.209471 193.309293 
L 248.765561 189.921053 
L 249.321651 185.54538 
L 250.155786 176.896778 
L 250.711876 171.044279 
L 250.989921 170.133619 
L 252.102102 171.750235 
L 252.936237 173.324917 
L 253.770372 175.362593 
L 254.604507 177.978015 
L 255.438643 181.262833 
L 256.550823 186.766215 
L 257.663003 193.547809 
L 261.555634 219.893314 
L 262.667815 220.202461 
L 264.336085 220.698856 
L 264.892175 220.653922 
L 265.448265 220.391614 
L 265.72631 220.153541 
L 266.004356 220.553708 
L 267.116536 225.234977 
L 267.672626 226.704023 
L 268.228716 227.481336 
L 268.506761 227.56985 
L 268.784806 227.480308 
L 269.062851 227.17574 
L 269.618942 225.99358 
L 270.175032 224.052633 
L 271.009167 219.876341 
L 272.121347 212.523301 
L 274.345708 196.907779 
L 274.901798 194.10418 
L 275.457888 192.230145 
L 275.735933 191.722928 
L 276.013978 191.540093 
L 276.292023 191.716987 
L 277.126159 193.467794 
L 277.404204 193.727227 
L 278.516384 199.960523 
L 279.350519 204.241148 
L 279.628564 203.896677 
L 280.184654 202.381319 
L 280.740744 201.569535 
L 281.01879 201.403203 
L 281.296835 201.383816 
L 281.57488 201.502197 
L 282.13097 202.116396 
L 282.68706 203.17593 
L 283.521195 205.472078 
L 284.633376 209.541939 
L 286.023601 215.724059 
L 289.916232 233.814878 
L 290.194277 233.769443 
L 290.750367 233.385287 
L 291.306457 233.254705 
L 292.696683 232.045937 
L 293.252773 231.944203 
L 293.808863 232.098225 
L 294.364953 232.509875 
L 294.921043 233.179612 
L 295.755179 234.632613 
L 296.311269 235.872994 
L 298.535629 236.398354 
L 299.64781 236.897991 
L 300.481945 237.502204 
L 301.31608 238.406965 
L 302.150215 239.732986 
L 302.98435 241.607773 
L 303.818486 244.179925 
L 304.652621 247.598483 
L 305.486756 252.007031 
L 306.320891 257.535884 
L 306.598936 259.652338 
L 306.876982 260.134878 
L 307.989162 248.440802 
L 309.379387 239.718888 
L 309.935477 237.477301 
L 310.213522 236.828338 
L 310.491567 236.492024 
L 310.769613 236.431095 
L 311.047658 236.619563 
L 311.325703 237.034397 
L 311.881793 238.442322 
L 312.715928 241.422104 
L 313.550063 244.439149 
L 313.828108 244.961207 
L 315.496379 246.152101 
L 315.774424 246.168003 
L 316.052469 245.906807 
L 316.330514 245.451435 
L 317.164649 243.179898 
L 317.998785 240.052888 
L 318.83292 235.683548 
L 319.667055 229.683755 
L 320.223145 224.590853 
L 320.50119 224.04171 
L 321.335325 226.104949 
L 321.891416 226.940149 
L 322.169461 226.887928 
L 322.725551 225.144157 
L 326.340137 212.669267 
L 327.730362 208.766489 
L 328.842542 206.290448 
L 329.954723 204.407889 
L 331.344948 202.318059 
L 332.179083 200.394059 
L 332.735173 199.430108 
L 333.291264 198.800825 
L 333.847354 198.579783 
L 334.125399 198.648358 
L 334.403444 198.845876 
L 334.959534 199.691463 
L 335.515624 201.186715 
L 336.071714 203.438138 
L 336.627805 206.536008 
L 337.46194 212.973642 
L 338.296075 221.854668 
L 338.57412 221.729075 
L 339.13021 217.284066 
L 339.6863 214.233854 
L 340.24239 212.455586 
L 340.520436 212.002061 
L 340.798481 211.824766 
L 341.076526 211.902633 
L 341.354571 211.813735 
L 341.632616 211.434375 
L 342.188706 210.167152 
L 342.744796 209.48452 
L 343.300886 209.194752 
L 344.413067 208.827894 
L 344.969157 208.302585 
L 345.525247 207.224799 
L 346.081337 205.355644 
L 346.637427 202.460557 
L 347.193517 198.916791 
L 347.749607 198.633968 
L 348.305698 198.589477 
L 348.861788 198.76912 
L 349.695923 199.271766 
L 349.973968 199.467412 
L 350.252013 199.872277 
L 351.920284 208.619128 
L 354.700734 223.304401 
L 356.369005 230.840102 
L 357.75923 236.071315 
L 358.87141 239.427424 
L 359.705546 241.319484 
L 360.261636 242.085265 
L 360.817726 242.18562 
L 361.095771 242.080009 
L 361.651861 241.472403 
L 361.929906 240.019352 
L 362.485996 236.206994 
L 363.042087 233.538289 
L 364.154267 229.71312 
L 364.710357 228.587166 
L 365.266447 227.941764 
L 365.822537 227.632608 
L 368.046898 227.493896 
L 368.881033 227.194952 
L 369.715168 226.611631 
L 370.549304 225.653421 
L 371.383439 224.218036 
L 372.217574 222.205422 
L 373.051709 219.494508 
L 373.885845 215.953775 
L 374.71998 211.434534 
L 375.554115 205.764754 
L 375.83216 203.587589 
L 376.110205 202.650646 
L 376.38825 204.091471 
L 377.50043 212.47057 
L 378.612611 219.427053 
L 379.724791 225.131989 
L 380.836971 229.788974 
L 382.227197 234.675198 
L 382.783287 235.641239 
L 383.061332 235.976709 
L 383.339377 235.982208 
L 384.173512 234.815273 
L 385.007648 233.233053 
L 385.841783 231.230342 
L 386.953963 227.913894 
L 387.232008 228.267615 
L 388.622233 236.815126 
L 390.012459 243.976757 
L 391.680729 251.140076 
L 392.79291 255.519276 
L 393.070955 255.479189 
L 394.739225 232.962681 
L 396.12945 216.837168 
L 397.241631 206.103609 
L 398.353811 197.516462 
L 398.909901 194.051934 
L 399.187946 192.894752 
L 400.856217 204.296009 
L 401.690352 208.0722 
L 402.524487 210.864308 
L 403.358622 212.926059 
L 404.192758 214.454312 
L 405.026893 215.602402 
L 406.139073 216.712804 
L 407.251253 217.439099 
L 408.085389 217.735026 
L 408.919524 217.777186 
L 409.475614 217.632916 
L 409.753659 217.914035 
L 410.309749 220.864351 
L 411.143885 225.176848 
L 411.97802 228.248195 
L 412.53411 229.621013 
L 413.0902 230.473895 
L 413.64629 230.816085 
L 413.924335 230.814071 
L 414.480425 230.478224 
L 415.036516 229.735767 
L 415.592606 228.629376 
L 416.426741 226.376566 
L 417.260876 224.305598 
L 418.095011 222.287351 
L 418.929147 220.197121 
L 419.207192 221.372019 
L 420.041327 228.475329 
L 420.875462 233.541339 
L 421.709597 236.962856 
L 422.265688 238.485317 
L 422.821778 239.500528 
L 423.377868 240.072893 
L 423.933958 240.274306 
L 424.490048 240.159569 
L 425.046138 239.769964 
L 425.880273 238.777333 
L 426.436364 237.896271 
L 426.436364 237.896271 
" clip-path="url(#p0094c4e295)" style="fill: none; stroke: #ff00ff; stroke-width: 3; stroke-linecap: square"/>
   </g>
   <g id="patch_3">
    <path d="M 7.2 331.2 
L 7.2 7.2 
" style="fill: none; stroke: #000000; stroke-width: 0.8; stroke-linejoin: miter; stroke-linecap: square"/>
   </g>
   <g id="patch_4">
    <path d="M 446.4 331.2 
L 446.4 7.2 
" style="fill: none; stroke: #000000; stroke-width: 0.8; stroke-linejoin: miter; stroke-linecap: square"/>
   </g>
   <g id="patch_5">
    <path d="M 7.2 331.2 
L 446.4 331.2 
" style="fill: none; stroke: #000000; stroke-width: 0.8; stroke-linejoin: miter; stroke-linecap: square"/>
   </g>
   <g id="patch_6">
    <path d="M 7.2 7.2 
L 446.4 7.2 
" style="fill: none; stroke: #000000; stroke-width: 0.8; stroke-linejoin: miter; stroke-linecap: square"/>
   </g>
  </g>
 </g>
 <defs>
  <clipPath id="p0094c4e295">
   <rect x="7.2" y="7.2" width="439.2" height="324"/>
  </clipPath>
 </defs>
</svg>
