<?xml version="1.0" encoding="utf-8" standalone="no"?>
<!DOCTYPE svg PUBLIC "-//W3C//DTD SVG 1.1//EN"
  "http://www.w3.org/Graphics/SVG/1.1/DTD/svg11.dtd">
<svg xmlns:xlink="http://www.w3.org/1999/xlink" width="453.6pt" height="338.4pt" viewBox="0 0 453.6 338.4" xmlns="http://www.w3.org/2000/svg" version="1.1">
 <metadata>
  <rdf:RDF xmlns:dc="http://purl.org/dc/elements/1.1/" xmlns:cc="http://creativecommons.org/ns#" xmlns:rdf="http://www.w3.org/1999/02/22-rdf-syntax-ns#">
   <cc:Work>
    <dc:type rdf:resource="http://purl.org/dc/dcmitype/StillImage"/>
    <dc:date>2025-05-15T00:59:16.069414</dc:date>
    <dc:format>image/svg+xml</dc:format>
    <dc:creator>
     <cc:Agent>
      <dc:title>Matplotlib v3.10.1, https://matplotlib.org/</dc:title>
     </cc:Agent>
    </dc:creator>
   </cc:Work>
  </rdf:RDF>
 </metadata>
 <defs>
  <style type="text/css">*{stroke-linejoin: round; stroke-linecap: butt}</style>
 </defs>
 <g id="figure_1">
  <g id="patch_1">
   <path d="M 0 338.4 
L 453.6 338.4 
L 453.6 0 
L 0 0 
z
" style="fill: #ffffff"/>
  </g>
  <g id="axes_1">
   <g id="patch_2">
    <path d="M 7.2 331.2 
L 446.4 331.2 
L 446.4 7.2 
L 7.2 7.2 
z
" style="fill: #ffffff"/>
   </g>
   <g id="matplotlib.axis_1"/>
   <g id="matplotlib.axis_2"/>
   <g id="line2d_1">
    <path d="M 27.163636 307.658414 
L 29.026909 307.939595 
L 30.624 307.982357 
L 32.221091 307.809064 
L 33.818182 307.394865 
L 35.681455 306.626984 
L 37.544727 305.517573 
L 40.472727 303.436382 
L 42.336 302.165698 
L 43.400727 301.909967 
L 44.465455 301.860339 
L 45.796364 302.031785 
L 47.127273 302.44684 
L 48.458182 303.095915 
L 49.789091 303.969365 
L 51.386182 305.300365 
L 53.249455 306.949729 
L 55.112727 307.965496 
L 57.508364 308.983414 
L 61.234909 310.273322 
L 64.695273 311.46622 
L 66.824727 312.188353 
L 71.616 312.675612 
L 77.205818 313.012389 
L 83.328 313.162314 
L 87.853091 313.043291 
L 90.514909 312.780443 
L 92.644364 312.362944 
L 93.975273 311.945762 
L 97.169455 310.311186 
L 99.032727 309.145538 
L 100.629818 307.91836 
L 102.759273 306.205002 
L 105.154909 305.08935 
L 107.018182 303.990225 
L 108.615273 302.810702 
L 111.010909 300.892416 
L 113.140364 299.974565 
L 114.737455 299.524968 
L 116.068364 299.373419 
L 117.133091 299.434654 
L 119.794909 299.773087 
L 120.859636 299.65702 
L 121.924364 299.335841 
L 122.989091 298.769669 
L 124.053818 297.916319 
L 125.118545 296.928818 
L 128.046545 299.066025 
L 130.176 300.523408 
L 131.506909 301.227939 
L 132.039273 301.321419 
L 133.370182 301.505865 
L 134.701091 301.961352 
L 136.032 302.694234 
L 137.362909 303.705835 
L 138.693818 304.991049 
L 138.96 305.272287 
L 141.888 306.121771 
L 143.751273 306.437556 
L 145.614545 306.502118 
L 147.211636 306.352999 
L 148.542545 306.208366 
L 150.672 306.429183 
L 153.067636 306.437531 
L 155.463273 306.209869 
L 157.858909 305.764606 
L 161.053091 305.121434 
L 171.434182 303.654005 
L 174.096 303.6514 
L 175.959273 303.994395 
L 179.153455 304.460259 
L 184.743273 305.035368 
L 194.059636 305.735563 
L 198.318545 305.929503 
L 204.440727 305.621132 
L 212.426182 305.458988 
L 233.986909 305.383835 
L 257.677091 305.307715 
L 261.669818 305.200107 
L 278.705455 306.380418 
L 283.230545 306.453755 
L 287.223273 306.306282 
L 288.820364 306.10387 
L 292.280727 305.405612 
L 295.741091 304.937743 
L 300.532364 304.533032 
L 306.654545 304.261733 
L 314.373818 304.077048 
L 320.496 305.171803 
L 326.884364 306.531548 
L 331.941818 307.935313 
L 336.999273 309.568216 
L 339.661091 310.443938 
L 341.790545 310.370112 
L 349.776 309.898715 
L 355.099636 309.353238 
L 359.624727 308.673545 
L 363.351273 307.904039 
L 366.811636 306.9738 
L 368.142545 306.480989 
L 371.336727 305.105493 
L 374.530909 303.995756 
L 377.458909 303.2266 
L 380.386909 302.71383 
L 383.314909 302.435643 
L 386.509091 302.368824 
L 389.703273 302.512671 
L 395.559273 302.854444 
L 407.537455 302.944464 
L 416.321455 303.220802 
L 424.040727 303.686915 
L 426.436364 303.885056 
L 426.436364 303.885056 
" clip-path="url(#p262572503b)" style="fill: none; stroke: #ffa500; stroke-width: 3; stroke-linecap: square"/>
   </g>
   <g id="line2d_2">
    <path d="M 27.163636 175.226508 
L 43.666909 189.174883 
L 45.264 190.191154 
L 46.062545 190.530236 
L 52.717091 191.734465 
L 54.846545 191.944903 
L 56.443636 191.896518 
L 57.508364 191.682762 
L 59.371636 191.061691 
L 60.968727 190.486811 
L 68.155636 189.251112 
L 72.946909 188.654602 
L 77.738182 188.285771 
L 110.212364 186.56724 
L 114.471273 185.947214 
L 116.866909 185.685976 
L 129.643636 184.996366 
L 147.477818 183.67343 
L 153.866182 182.954825 
L 164.779636 181.6918 
L 165.844364 181.681389 
L 171.700364 181.958392 
L 177.290182 182.445851 
L 184.477091 183.21723 
L 192.728727 184.340358 
L 195.656727 184.670741 
L 202.577455 183.884298 
L 218.814545 182.171684 
L 222.274909 180.129318 
L 229.461818 176.020807 
L 232.123636 174.149431 
L 233.454545 173.226453 
L 234.519273 172.737274 
L 235.584 172.455408 
L 236.648727 172.362544 
L 237.979636 172.484762 
L 239.310545 172.835326 
L 240.907636 173.505879 
L 242.770909 174.55154 
L 244.634182 175.833683 
L 245.166545 176.159598 
L 247.296 176.603324 
L 249.691636 176.867853 
L 252.885818 176.972691 
L 257.410909 177.087298 
L 263.799273 177.929552 
L 273.381818 178.940978 
L 276.576 178.989047 
L 280.036364 178.823078 
L 283.230545 178.452527 
L 286.424727 177.845387 
L 289.352727 177.058111 
L 292.280727 176.027197 
L 294.144 175.332425 
L 296.273455 175.55359 
L 308.251636 176.76083 
L 315.970909 177.322921 
L 317.568 177.484939 
L 320.229818 178.166623 
L 322.891636 178.615967 
L 325.287273 178.802371 
L 327.682909 178.760499 
L 329.812364 178.500947 
L 332.208 177.96606 
L 334.603636 177.360842 
L 336.733091 177.189019 
L 339.128727 176.747092 
L 342.056727 175.968647 
L 349.509818 173.843179 
L 351.905455 173.990081 
L 355.632 174.373414 
L 358.293818 174.871318 
L 359.890909 175.30437 
L 361.221818 176.103234 
L 362.286545 177.000359 
L 363.085091 177.686704 
L 368.674909 178.027726 
L 370.804364 178.248014 
L 372.667636 178.941522 
L 374.530909 179.864174 
L 376.394182 181.010143 
L 377.192727 181.679283 
L 378.789818 184.861507 
L 380.386909 188.134743 
L 381.451636 190.923207 
L 382.250182 193.569947 
L 383.048727 196.847257 
L 383.581091 198.981468 
L 385.710545 199.368285 
L 388.372364 199.874503 
L 391.300364 200.601219 
L 396.357818 201.23306 
L 397.688727 198.105928 
L 398.753455 196.239037 
L 399.552 195.201382 
L 400.350545 194.455091 
L 401.149091 193.984671 
L 401.947636 193.775242 
L 402.746182 193.812584 
L 403.278545 193.949382 
L 405.141818 193.231085 
L 407.537455 192.227726 
L 409.134545 191.290221 
L 410.465455 190.215215 
L 411.530182 189.322689 
L 414.192 187.353068 
L 416.055273 186.223286 
L 417.652364 185.504216 
L 418.450909 185.266592 
L 424.306909 185.722564 
L 426.436364 185.789453 
L 426.436364 185.789453 
" clip-path="url(#p262572503b)" style="fill: none; stroke: #ff0000; stroke-width: 3; stroke-linecap: square"/>
   </g>
   <g id="line2d_3">
    <path d="M 27.163636 21.927273 
L 27.429818 32.810128 
L 27.696 37.871462 
L 27.962182 45.407126 
L 28.494545 80.949159 
L 28.760727 84.547862 
L 29.026909 91.108415 
L 29.559273 118.856515 
L 29.825455 135.555747 
L 30.357818 146.743661 
L 30.624 157.288838 
L 30.890182 161.44383 
L 31.156364 156.185918 
L 31.422545 160.434572 
L 31.954909 188.150272 
L 32.487273 201.024079 
L 33.019636 206.535258 
L 33.285818 207.801329 
L 33.552 207.999855 
L 33.818182 206.773128 
L 34.350545 196.138861 
L 35.149091 197.925783 
L 35.681455 223.323597 
L 35.947636 236.302725 
L 36.213818 240.015395 
L 36.746182 243.372155 
L 37.012364 244.238184 
L 37.544727 241.186987 
L 37.810909 239.322712 
L 38.077091 239.292594 
L 38.343273 239.106225 
L 38.609455 239.226082 
L 38.875636 239.588189 
L 39.141818 239.257025 
L 39.408 238.644917 
L 39.674182 237.752461 
L 40.206545 234.095787 
L 40.472727 233.256702 
L 40.738909 233.915589 
L 41.005091 235.688299 
L 41.537455 240.622192 
L 41.803636 241.840633 
L 42.069818 241.917573 
L 42.336 241.631696 
L 42.602182 238.144124 
L 42.868364 232.543566 
L 43.400727 243.95451 
L 43.666909 245.607174 
L 43.933091 243.596533 
L 44.465455 252.388769 
L 44.997818 257.932791 
L 45.530182 260.931496 
L 45.796364 261.663215 
L 46.062545 264.024727 
L 46.594909 273.804008 
L 47.127273 280.209488 
L 47.659636 284.518494 
L 48.458182 289.134437 
L 49.256727 299.254321 
L 49.789091 303.095241 
L 50.321455 305.185384 
L 50.853818 306.221977 
L 51.386182 306.714727 
L 52.717091 307.619736 
L 54.846545 309.270808 
L 57.242182 311.616851 
L 58.573091 312.759481 
L 59.637818 313.405067 
L 60.436364 313.692569 
L 72.680727 315.774068 
L 76.939636 316.24865 
L 80.666182 316.343456 
L 92.644364 316.464304 
L 164.779636 316.472617 
L 426.436364 316.472617 
L 426.436364 316.472617 
" clip-path="url(#p262572503b)" style="fill: none; stroke: #0000ff; stroke-width: 3; stroke-linecap: square"/>
   </g>
   <g id="patch_3">
    <path d="M 7.2 331.2 
L 7.2 7.2 
" style="fill: none; stroke: #000000; stroke-width: 0.8; stroke-linejoin: miter; stroke-linecap: square"/>
   </g>
   <g id="patch_4">
    <path d="M 446.4 331.2 
L 446.4 7.2 
" style="fill: none; stroke: #000000; stroke-width: 0.8; stroke-linejoin: miter; stroke-linecap: square"/>
   </g>
   <g id="patch_5">
    <path d="M 7.2 331.2 
L 446.4 331.2 
" style="fill: none; stroke: #000000; stroke-width: 0.8; stroke-linejoin: miter; stroke-linecap: square"/>
   </g>
   <g id="patch_6">
    <path d="M 7.2 7.2 
L 446.4 7.2 
" style="fill: none; stroke: #000000; stroke-width: 0.8; stroke-linejoin: miter; stroke-linecap: square"/>
   </g>
  </g>
 </g>
 <defs>
  <clipPath id="p262572503b">
   <rect x="7.2" y="7.2" width="439.2" height="324"/>
  </clipPath>
 </defs>
</svg>
