<?xml version="1.0" encoding="utf-8" standalone="no"?>
<!DOCTYPE svg PUBLIC "-//W3C//DTD SVG 1.1//EN"
  "http://www.w3.org/Graphics/SVG/1.1/DTD/svg11.dtd">
<svg xmlns:xlink="http://www.w3.org/1999/xlink" width="453.6pt" height="338.4pt" viewBox="0 0 453.6 338.4" xmlns="http://www.w3.org/2000/svg" version="1.1">
 <metadata>
  <rdf:RDF xmlns:dc="http://purl.org/dc/elements/1.1/" xmlns:cc="http://creativecommons.org/ns#" xmlns:rdf="http://www.w3.org/1999/02/22-rdf-syntax-ns#">
   <cc:Work>
    <dc:type rdf:resource="http://purl.org/dc/dcmitype/StillImage"/>
    <dc:date>2025-05-15T16:56:14.115697</dc:date>
    <dc:format>image/svg+xml</dc:format>
    <dc:creator>
     <cc:Agent>
      <dc:title>Matplotlib v3.10.1, https://matplotlib.org/</dc:title>
     </cc:Agent>
    </dc:creator>
   </cc:Work>
  </rdf:RDF>
 </metadata>
 <defs>
  <style type="text/css">*{stroke-linejoin: round; stroke-linecap: butt}</style>
 </defs>
 <g id="figure_1">
  <g id="patch_1">
   <path d="M 0 338.4 
L 453.6 338.4 
L 453.6 0 
L 0 0 
z
" style="fill: #ffffff"/>
  </g>
  <g id="axes_1">
   <g id="patch_2">
    <path d="M 7.2 331.2 
L 446.4 331.2 
L 446.4 7.2 
L 7.2 7.2 
z
" style="fill: #ffffff"/>
   </g>
   <g id="matplotlib.axis_1"/>
   <g id="matplotlib.axis_2"/>
   <g id="line2d_1">
    <path d="M 27.163636 43.646303 
L 27.719727 44.285973 
L 29.944087 47.607721 
L 30.778222 48.197398 
L 31.890403 48.835396 
L 32.446493 49.416883 
L 33.002583 50.354629 
L 33.558673 51.718607 
L 34.392808 54.552853 
L 35.504989 59.357518 
L 37.451304 67.87642 
L 41.343935 83.25959 
L 42.734161 90.647504 
L 44.124386 99.263993 
L 47.182882 119.090767 
L 48.017017 122.990744 
L 48.851152 125.651813 
L 49.407242 126.758662 
L 49.963332 127.449184 
L 51.631603 128.843346 
L 52.187693 129.816894 
L 52.743783 131.387321 
L 53.299873 133.706966 
L 53.855964 136.858582 
L 54.690099 143.116837 
L 55.802279 153.657781 
L 57.47055 169.884369 
L 58.304685 175.728074 
L 58.860775 178.090318 
L 59.13882 178.739442 
L 59.416865 179.017194 
L 59.69491 178.919908 
L 59.972955 178.452879 
L 60.529045 176.4756 
L 61.085135 173.300895 
L 61.919271 167.033508 
L 63.309496 156.296812 
L 63.865586 153.246534 
L 64.421676 151.465928 
L 64.699721 151.125041 
L 64.977767 151.170211 
L 65.255812 151.603432 
L 65.533857 152.416601 
L 66.089947 155.10614 
L 66.924082 161.287474 
L 69.426488 182.331182 
L 69.982578 185.077725 
L 70.538668 186.713217 
L 70.816713 187.128194 
L 71.094758 187.296848 
L 71.372803 187.243703 
L 71.650848 186.999458 
L 72.206938 186.076676 
L 74.431299 181.280501 
L 74.987389 180.595575 
L 75.543479 180.162075 
L 76.377615 179.826654 
L 78.601975 179.177851 
L 80.270246 178.434528 
L 81.104381 177.817496 
L 81.660471 177.138509 
L 82.216561 176.124787 
L 82.772651 174.682195 
L 83.606787 171.633654 
L 84.718967 166.189833 
L 86.387237 157.749822 
L 86.943327 155.746732 
L 87.499418 154.457144 
L 87.777463 154.109375 
L 88.055508 153.963231 
L 88.333553 154.014297 
L 88.611598 154.253396 
L 89.167688 155.23882 
L 89.723778 156.767914 
L 91.114004 161.675504 
L 92.226184 165.381037 
L 93.338364 168.38428 
L 95.006635 172.762992 
L 95.84077 175.579165 
L 96.95295 180.211833 
L 99.733401 192.513617 
L 100.567536 194.977606 
L 101.123626 196.085013 
L 101.679716 196.734266 
L 102.235807 196.926951 
L 102.791897 196.686309 
L 103.347987 196.036048 
L 103.904077 195.002474 
L 104.738212 192.811714 
L 105.572347 189.942889 
L 106.962573 184.078881 
L 108.630843 177.062361 
L 109.186933 175.377647 
L 109.743024 174.327845 
L 110.021069 174.099615 
L 110.299114 174.096527 
L 110.577159 174.333976 
L 110.855204 174.823622 
L 111.411294 176.586499 
L 111.967384 179.395362 
L 112.801519 185.378566 
L 113.9137 195.605014 
L 115.58197 211.27689 
L 116.416105 217.47008 
L 117.250241 222.055776 
L 118.084376 225.172362 
L 118.918511 227.228148 
L 120.308736 229.68146 
L 121.142872 231.287303 
L 121.977007 233.419644 
L 122.811142 236.345795 
L 123.645277 240.27868 
L 124.479413 245.289344 
L 125.869638 255.422107 
L 127.259863 265.450466 
L 128.093998 269.992429 
L 128.650089 272.036445 
L 129.206179 273.212282 
L 129.484224 273.478308 
L 129.762269 273.5414 
L 130.040314 273.416823 
L 130.596404 272.691722 
L 131.430539 270.841271 
L 132.54272 268.331834 
L 133.09881 267.670061 
L 133.376855 267.59209 
L 133.6549 267.71328 
L 133.932945 268.051916 
L 134.489035 269.43328 
L 135.045125 271.786027 
L 135.601215 275.063784 
L 136.435351 281.39973 
L 138.937756 302.388557 
L 139.493847 305.601464 
L 140.049937 307.827554 
L 140.606027 309.009844 
L 140.884072 309.215907 
L 141.162117 309.178755 
L 141.440162 308.914959 
L 141.996252 307.797048 
L 142.830387 305.057815 
L 144.776703 297.806462 
L 145.332793 296.406983 
L 145.888883 295.529628 
L 146.444973 295.21661 
L 146.723018 295.269027 
L 147.279109 295.759102 
L 147.835199 296.695733 
L 148.669334 298.689841 
L 150.337604 302.937951 
L 150.893695 303.865685 
L 151.449785 304.3322 
L 151.72783 304.368345 
L 152.005875 304.265292 
L 152.561965 303.636748 
L 153.118055 302.474224 
L 153.95219 299.945471 
L 155.898506 293.384017 
L 156.454596 292.250048 
L 156.732641 291.917844 
L 157.010686 291.763125 
L 157.288731 291.797211 
L 157.566776 292.026813 
L 158.122867 293.072457 
L 158.678957 294.853706 
L 159.513092 298.650416 
L 162.293543 313.058902 
L 162.849633 314.828532 
L 163.405723 315.96428 
L 163.961813 316.457013 
L 164.239858 316.472727 
L 164.517903 316.346585 
L 165.073993 315.717377 
L 165.630084 314.673942 
L 166.464219 312.571614 
L 169.522715 304.099639 
L 170.35685 302.407144 
L 171.190985 301.191046 
L 171.747075 300.690509 
L 172.303165 300.46558 
L 172.859256 300.52595 
L 173.415346 300.844113 
L 174.249481 301.647184 
L 175.083616 302.468092 
L 175.639706 302.72625 
L 175.917751 302.693342 
L 176.195796 302.520873 
L 176.473841 302.186932 
L 177.029932 300.960479 
L 177.586022 298.909967 
L 178.142112 296.025127 
L 178.976247 290.350332 
L 181.478653 271.384577 
L 182.034743 268.664531 
L 182.590833 266.972143 
L 182.868878 266.534484 
L 183.146923 266.369454 
L 183.424968 266.469805 
L 183.703013 266.822677 
L 184.259104 268.201961 
L 185.093239 271.501243 
L 186.761509 278.72537 
L 187.317599 280.156985 
L 187.595644 280.546194 
L 187.87369 280.690794 
L 188.151735 280.57715 
L 188.42978 280.19716 
L 188.98587 278.637538 
L 189.54196 276.070539 
L 190.376095 270.622988 
L 191.488276 261.300971 
L 195.936997 221.341544 
L 197.049177 213.753977 
L 197.883312 209.290671 
L 198.717447 205.943047 
L 199.551583 203.633498 
L 200.385718 202.129229 
L 201.219853 201.125904 
L 204.000304 198.510156 
L 204.834439 197.992404 
L 205.390529 197.938637 
L 205.946619 198.210279 
L 206.50271 198.859382 
L 207.0588 199.893878 
L 207.892935 202.043112 
L 210.117296 208.461081 
L 210.951431 209.981664 
L 211.507521 210.58386 
L 212.063611 210.895549 
L 212.619701 210.989255 
L 213.453836 210.873575 
L 214.566017 210.479671 
L 215.400152 209.986123 
L 216.234287 209.149115 
L 217.068422 207.832601 
L 218.180603 205.405486 
L 219.570828 202.33735 
L 220.126918 201.488894 
L 220.683008 200.983234 
L 221.239099 200.826564 
L 221.795189 200.969449 
L 223.741504 202.001587 
L 224.297594 201.843288 
L 224.853684 201.258778 
L 225.409775 200.178512 
L 225.965865 198.566752 
L 226.8 195.122292 
L 227.634135 190.509519 
L 228.746316 182.949736 
L 230.692631 169.51424 
L 231.526766 165.648156 
L 232.082856 164.156321 
L 232.360901 163.752556 
L 232.638947 163.567974 
L 232.916992 163.586947 
L 233.195037 163.786493 
L 233.751127 164.601955 
L 235.419397 167.629573 
L 235.697442 167.843354 
L 235.975487 167.904838 
L 236.253533 167.803458 
L 236.531578 167.537175 
L 237.087668 166.539853 
L 237.921803 164.14736 
L 239.590073 158.885163 
L 240.146164 157.774969 
L 240.702254 157.207717 
L 240.980299 157.14053 
L 241.258344 157.214856 
L 241.814434 157.758805 
L 242.370524 158.761722 
L 243.204659 160.906262 
L 246.5412 170.587796 
L 247.375336 172.10019 
L 248.209471 173.103193 
L 249.043606 173.710577 
L 250.155786 174.149587 
L 253.770372 175.083602 
L 254.882553 175.174821 
L 255.716688 174.986852 
L 256.272778 174.676385 
L 256.828868 174.175527 
L 257.663003 173.028996 
L 258.497139 171.437988 
L 259.887364 168.112552 
L 261.833679 162.88502 
L 262.94586 159.227015 
L 263.779995 155.698903 
L 264.61413 151.266232 
L 265.72631 143.956867 
L 267.950671 126.908472 
L 269.340896 117.188349 
L 270.453077 111.028539 
L 271.287212 107.463082 
L 272.399392 103.753346 
L 273.511573 100.163064 
L 274.345708 96.583029 
L 275.179843 91.541087 
L 276.013978 84.71811 
L 277.126159 73.290314 
L 278.794429 55.510579 
L 279.628564 48.810399 
L 280.184654 45.71971 
L 280.740744 43.81635 
L 281.01879 43.292617 
L 281.296835 43.0297 
L 281.57488 43.004231 
L 281.852925 43.187999 
L 282.409015 44.063745 
L 283.24315 46.163908 
L 284.911421 50.679244 
L 285.745556 52.391592 
L 286.579691 53.623082 
L 287.135781 54.165337 
L 287.691871 54.459125 
L 288.247962 54.483222 
L 288.804052 54.22172 
L 289.360142 53.680751 
L 290.472322 52.068091 
L 291.306457 51.021697 
L 291.584502 50.848177 
L 291.862547 50.811089 
L 292.140593 50.93573 
L 292.418638 51.243667 
L 292.974728 52.467268 
L 293.530818 54.545521 
L 294.364953 59.120712 
L 296.867359 75.210353 
L 297.423449 77.396483 
L 297.979539 78.724359 
L 298.257584 79.072342 
L 298.535629 79.225925 
L 298.813674 79.204272 
L 299.369764 78.73585 
L 300.2039 77.361967 
L 301.87217 74.272779 
L 304.652621 69.793244 
L 305.764801 67.204164 
L 307.155027 64.036298 
L 307.711117 63.209431 
L 308.267207 62.798634 
L 308.545252 62.766176 
L 309.101342 63.043028 
L 309.657432 63.709239 
L 310.769613 65.637468 
L 311.603748 66.917408 
L 312.159838 67.388017 
L 312.715928 67.449288 
L 313.272018 67.085955 
L 313.828108 66.344882 
L 314.940289 64.228169 
L 315.774424 62.723129 
L 316.330514 62.083201 
L 316.608559 61.936436 
L 316.886604 61.929919 
L 317.164649 62.080586 
L 317.442694 62.403444 
L 317.998785 63.6225 
L 318.554875 65.675799 
L 319.110965 68.595454 
L 319.9451 74.516445 
L 321.05728 84.652209 
L 323.281641 106.142752 
L 324.393821 114.387332 
L 325.227956 119.095011 
L 326.340137 124.068266 
L 328.008407 131.234381 
L 329.120587 137.042736 
L 332.457128 155.562771 
L 333.291264 158.665808 
L 334.125399 160.924184 
L 334.959534 162.501943 
L 335.793669 163.62918 
L 336.90585 164.698341 
L 338.01803 165.402261 
L 338.852165 165.687752 
L 341.354571 166.225506 
L 341.910661 166.678793 
L 342.466751 167.415578 
L 343.022841 168.497816 
L 343.856976 170.821107 
L 344.691112 173.920028 
L 346.081337 180.238073 
L 348.027653 189.088023 
L 349.139833 193.070001 
L 349.973968 195.319801 
L 350.808103 196.856956 
L 351.364193 197.441294 
L 351.920284 197.629628 
L 352.476374 197.39263 
L 353.032464 196.708369 
L 353.588554 195.571227 
L 354.422689 193.104687 
L 355.812915 187.774874 
L 356.925095 183.726031 
L 357.481185 182.207677 
L 358.037275 181.202895 
L 358.593365 180.798229 
L 358.87141 180.831973 
L 359.149456 181.022429 
L 359.705546 181.854956 
L 360.261636 183.230275 
L 361.095771 186.037316 
L 363.042087 193.115771 
L 363.598177 194.524512 
L 364.154267 195.448172 
L 364.710357 195.846578 
L 364.988402 195.851059 
L 365.544492 195.507599 
L 366.100582 194.775273 
L 366.934718 193.205061 
L 368.324943 190.484737 
L 368.881033 189.712708 
L 369.437123 189.24242 
L 369.993213 189.099556 
L 370.549304 189.250438 
L 371.383439 189.844059 
L 372.217574 190.479849 
L 372.773664 190.646959 
L 373.329754 190.427004 
L 373.885845 189.706126 
L 374.441935 188.431781 
L 375.27607 185.593676 
L 377.222385 177.985228 
L 377.778476 176.761863 
L 378.056521 176.460593 
L 378.334566 176.390512 
L 378.612611 176.56206 
L 378.890656 176.977895 
L 379.446746 178.509368 
L 380.002836 180.831544 
L 382.227197 191.792182 
L 382.783287 193.188403 
L 383.061332 193.5023 
L 383.339377 193.542325 
L 383.617422 193.306356 
L 383.895467 192.802089 
L 384.451557 191.069482 
L 385.285693 187.164489 
L 386.675918 180.243797 
L 387.232008 178.495777 
L 387.510053 178.009625 
L 387.788098 177.822813 
L 388.066143 177.958559 
L 388.344188 178.43322 
L 388.622233 179.255136 
L 389.178324 181.934835 
L 389.734414 185.919449 
L 390.568549 193.966349 
L 391.958774 210.682797 
L 393.627045 230.510257 
L 394.46118 238.353066 
L 395.295315 244.081285 
L 395.851405 246.586928 
L 396.407496 248.020966 
L 396.685541 248.342816 
L 396.963586 248.410239 
L 397.241631 248.235047 
L 397.519676 247.832825 
L 398.075766 246.429808 
L 398.909901 243.213385 
L 400.578172 236.169467 
L 401.134262 234.761562 
L 401.412307 234.389675 
L 401.690352 234.274317 
L 401.968397 234.434331 
L 402.246442 234.88153 
L 402.802532 236.652746 
L 403.358622 239.557416 
L 404.192758 245.735707 
L 405.582983 258.806262 
L 406.973208 271.535844 
L 407.807344 277.631383 
L 408.641479 282.244756 
L 409.475614 285.5083 
L 410.309749 287.771092 
L 411.143885 289.427293 
L 413.0902 292.576486 
L 414.75847 295.431442 
L 415.870651 297.688081 
L 417.260876 301.093267 
L 418.929147 305.303625 
L 419.485237 306.338914 
L 420.041327 306.996227 
L 420.597417 307.18917 
L 420.875462 307.095507 
L 421.431552 306.519401 
L 421.987642 305.455214 
L 422.821778 303.161765 
L 424.490048 298.061168 
L 425.046138 296.875641 
L 425.602228 296.19421 
L 425.880273 296.070619 
L 426.158319 296.100396 
L 426.436364 296.284828 
L 426.436364 296.284828 
" clip-path="url(#p9ddc6e12fb)" style="fill: none; stroke-dasharray: 11.1,4.8; stroke-dashoffset: 0; stroke: #000000; stroke-width: 3"/>
   </g>
   <g id="line2d_2">
    <path d="M 27.163636 21.927273 
L 27.997772 26.427217 
L 29.109952 33.876872 
L 31.612358 51.982295 
L 32.446493 56.176446 
L 33.002583 58.048936 
L 33.558673 59.169892 
L 34.114763 59.625751 
L 34.670853 59.582875 
L 36.061079 58.893769 
L 36.339124 58.923782 
L 36.617169 59.082939 
L 36.895214 59.395935 
L 37.451304 60.561825 
L 38.007394 62.528471 
L 38.563484 65.314224 
L 39.39762 70.87887 
L 40.5098 80.104115 
L 42.734161 99.223132 
L 43.846341 106.853553 
L 44.680476 111.309592 
L 45.514611 114.701443 
L 46.348747 117.179002 
L 47.182882 118.972257 
L 48.295062 120.751105 
L 50.519423 124.058576 
L 51.909648 126.568549 
L 53.299873 129.553762 
L 54.690099 133.181604 
L 58.304685 143.362646 
L 58.860775 144.284999 
L 59.416865 144.893498 
L 59.972955 145.191574 
L 60.529045 145.212326 
L 61.085135 145.016296 
L 63.309496 143.860353 
L 63.865586 143.992926 
L 64.421676 144.488747 
L 64.977767 145.421562 
L 65.533857 146.844194 
L 66.089947 148.77431 
L 66.924082 152.580345 
L 68.036262 158.976103 
L 70.260623 172.434774 
L 71.094758 176.320731 
L 71.928893 179.176629 
L 72.763029 181.057866 
L 73.597164 182.224613 
L 75.821524 184.667871 
L 76.65566 186.148987 
L 77.76784 188.734594 
L 79.714155 193.457837 
L 80.548291 194.797119 
L 81.104381 195.289509 
L 81.660471 195.4298 
L 82.216561 195.221079 
L 82.772651 194.698503 
L 83.606787 193.462983 
L 85.553102 190.127042 
L 86.109192 189.521458 
L 86.665282 189.233159 
L 87.221372 189.31085 
L 87.777463 189.777858 
L 88.333553 190.618232 
L 89.167688 192.475801 
L 90.557913 196.471349 
L 91.670094 199.564782 
L 92.504229 201.333683 
L 93.060319 202.123291 
L 93.616409 202.557884 
L 94.172499 202.627001 
L 94.72859 202.344018 
L 95.28468 201.74941 
L 96.118815 200.404984 
L 98.343175 196.25954 
L 98.899266 195.595131 
L 99.455356 195.225023 
L 100.011446 195.184891 
L 100.567536 195.484682 
L 101.123626 196.105701 
L 101.957761 197.536222 
L 103.347987 200.643547 
L 104.460167 202.996079 
L 105.294302 204.262985 
L 105.850393 204.767552 
L 106.406483 204.971986 
L 106.962573 204.880574 
L 107.518663 204.521958 
L 108.352798 203.60938 
L 110.299114 201.217059 
L 110.855204 200.894459 
L 111.411294 200.889485 
L 111.967384 201.258563 
L 112.523474 202.032222 
L 113.079564 203.21612 
L 113.9137 205.701911 
L 115.02588 210.015944 
L 117.528286 220.379123 
L 118.640466 223.859814 
L 119.752646 226.533232 
L 121.142872 229.833671 
L 121.977007 232.637775 
L 122.811142 236.63075 
L 123.645277 242.08529 
L 124.479413 248.992648 
L 125.869638 262.75694 
L 127.537908 279.355178 
L 128.650089 288.077915 
L 129.484224 292.739073 
L 130.040314 294.923187 
L 130.596404 296.437918 
L 131.152494 297.3932 
L 131.708584 297.929667 
L 132.54272 298.302861 
L 133.376855 298.633008 
L 133.932945 299.058169 
L 134.489035 299.758938 
L 135.045125 300.78608 
L 135.879261 302.936922 
L 136.991441 306.636968 
L 138.381666 311.357124 
L 139.215801 313.461831 
L 139.771892 314.33239 
L 140.327982 314.699582 
L 140.606027 314.686204 
L 140.884072 314.541283 
L 141.440162 313.8743 
L 141.996252 312.757289 
L 142.830387 310.44043 
L 145.610838 301.926759 
L 146.444973 300.329706 
L 147.279109 299.328117 
L 148.113244 298.750489 
L 149.503469 297.953678 
L 150.059559 297.423728 
L 150.61565 296.656758 
L 151.17174 295.605433 
L 152.005875 293.457335 
L 152.84001 290.682558 
L 154.508281 284.092314 
L 155.898506 278.974952 
L 156.732641 276.662381 
L 157.288731 275.553431 
L 157.844821 274.818361 
L 158.400912 274.454771 
L 158.957002 274.440021 
L 159.513092 274.737068 
L 160.069182 275.295316 
L 160.903317 276.491562 
L 164.239858 281.87407 
L 165.073993 282.544997 
L 165.630084 282.725077 
L 166.186174 282.678771 
L 166.742264 282.405392 
L 167.298354 281.917289 
L 168.132489 280.838524 
L 169.24467 278.956087 
L 171.190985 275.541254 
L 172.02512 274.425615 
L 172.859256 273.646468 
L 173.693391 273.198669 
L 174.527526 273.006241 
L 176.473841 272.732005 
L 177.307977 272.3041 
L 178.142112 271.515349 
L 178.976247 270.325963 
L 180.088427 268.185068 
L 183.981058 259.797796 
L 185.093239 258.162325 
L 187.317599 255.178484 
L 188.151735 253.67593 
L 189.263915 251.100099 
L 190.65414 247.145712 
L 192.600456 241.566831 
L 193.712636 239.001976 
L 194.824816 236.999143 
L 196.215042 235.052734 
L 197.605267 233.456539 
L 198.717447 232.445346 
L 199.551583 231.916254 
L 200.385718 231.602572 
L 202.610079 231.012938 
L 203.166169 230.577487 
L 203.722259 229.877404 
L 204.278349 228.849919 
L 205.112484 226.625501 
L 205.946619 223.587293 
L 207.0588 218.550024 
L 209.561205 206.648103 
L 210.395341 203.573879 
L 211.229476 201.201967 
L 212.063611 199.486747 
L 212.897746 198.265461 
L 215.678197 194.720799 
L 216.512332 193.074353 
L 217.624513 190.296317 
L 219.570828 184.566683 
L 221.517144 179.124492 
L 224.853684 170.266439 
L 226.24391 165.58367 
L 229.858496 152.558392 
L 230.692631 150.519371 
L 231.526766 149.159166 
L 232.082856 148.634019 
L 232.638947 148.386709 
L 233.195037 148.367157 
L 234.029172 148.619269 
L 235.419397 149.096739 
L 235.975487 149.066554 
L 236.531578 148.81307 
L 237.087668 148.298555 
L 237.643758 147.511005 
L 238.477893 145.865931 
L 239.868119 142.363116 
L 241.258344 138.998019 
L 242.092479 137.525136 
L 242.648569 136.855066 
L 243.204659 136.440711 
L 243.76075 136.256857 
L 244.31684 136.262346 
L 245.150975 136.503481 
L 247.09729 137.226203 
L 248.487516 137.425491 
L 249.599696 137.64982 
L 250.155786 137.927315 
L 250.711876 138.385747 
L 251.267967 139.061991 
L 252.102102 140.509834 
L 253.214282 143.124769 
L 255.438643 148.738294 
L 256.272778 150.226613 
L 257.106913 151.176406 
L 257.663003 151.526962 
L 258.497139 151.726937 
L 259.609319 151.660736 
L 261.277589 151.57001 
L 264.892175 151.741686 
L 265.72631 151.429891 
L 266.838491 150.713686 
L 268.228716 149.456041 
L 269.618942 147.908039 
L 270.731122 146.354719 
L 271.565257 144.842904 
L 272.399392 142.884833 
L 273.233527 140.372974 
L 274.345708 136.12377 
L 276.013978 128.442754 
L 277.404204 122.197234 
L 278.238339 119.140332 
L 279.072474 116.865491 
L 279.628564 115.83046 
L 280.184654 115.177884 
L 280.740744 114.882552 
L 281.296835 114.902618 
L 281.852925 115.18543 
L 282.68706 115.978983 
L 283.79924 117.435059 
L 286.301646 120.817649 
L 287.413826 121.967417 
L 288.247962 122.60027 
L 289.082097 122.990787 
L 289.916232 123.099692 
L 290.750367 122.909665 
L 291.584502 122.443172 
L 292.974728 121.283113 
L 294.364953 120.149123 
L 295.477133 119.566521 
L 296.867359 119.192469 
L 297.979539 118.819274 
L 298.813674 118.249707 
L 299.64781 117.299742 
L 300.481945 115.935592 
L 301.594125 113.573456 
L 304.374576 107.185072 
L 305.208711 105.824696 
L 306.042846 104.919322 
L 306.598936 104.579571 
L 307.155027 104.439623 
L 307.711117 104.475982 
L 308.545252 104.791208 
L 309.935477 105.696067 
L 311.603748 106.786838 
L 314.384199 108.426081 
L 315.218334 109.376904 
L 316.052469 110.838468 
L 316.886604 112.921395 
L 317.720739 115.628598 
L 319.110965 121.097716 
L 320.779235 127.592433 
L 321.61337 130.166892 
L 322.447506 132.142456 
L 323.281641 133.616712 
L 325.784047 137.570585 
L 326.618182 139.545977 
L 327.730362 142.9061 
L 331.901038 156.748599 
L 333.291264 160.114553 
L 334.403444 162.293007 
L 335.237579 163.574834 
L 336.071714 164.486897 
L 336.90585 164.987863 
L 337.46194 165.103971 
L 338.296075 165.02405 
L 340.24239 164.638507 
L 340.798481 164.792862 
L 341.354571 165.187666 
L 341.910661 165.871627 
L 342.466751 166.873387 
L 343.300886 168.975865 
L 344.413067 172.696662 
L 346.637427 180.664605 
L 347.471562 182.820078 
L 348.305698 184.244597 
L 348.861788 184.820511 
L 349.695923 185.288719 
L 351.642239 185.98743 
L 352.754419 186.773951 
L 354.144644 187.767993 
L 354.700734 187.908284 
L 355.256825 187.773481 
L 355.812915 187.296355 
L 356.369005 186.440374 
L 356.925095 185.19885 
L 357.75923 182.683217 
L 358.87141 178.462826 
L 361.095771 169.823099 
L 361.929906 167.364577 
L 362.764042 165.568921 
L 363.320132 164.747927 
L 363.876222 164.205629 
L 364.432312 163.909612 
L 364.988402 163.816142 
L 365.822537 163.947343 
L 368.324943 164.669893 
L 368.881033 164.576422 
L 369.437123 164.287437 
L 369.993213 163.759373 
L 370.549304 162.94867 
L 371.105394 161.820511 
L 371.939529 159.47038 
L 372.773664 156.291024 
L 373.607799 152.305423 
L 374.71998 145.93316 
L 377.222385 130.71142 
L 378.056521 127.211864 
L 378.612611 125.865722 
L 378.890656 125.550496 
L 379.168701 125.492185 
L 379.446746 125.69902 
L 379.724791 126.173745 
L 380.280881 127.903028 
L 380.836971 130.574388 
L 381.671107 135.86514 
L 383.339377 147.142098 
L 384.173512 151.068015 
L 384.729602 152.657694 
L 385.285693 153.450561 
L 385.563738 153.593253 
L 386.119828 153.51316 
L 387.510053 152.876705 
L 387.788098 152.962801 
L 388.066143 153.18953 
L 388.622233 154.141725 
L 389.178324 155.824531 
L 389.734414 158.23486 
L 390.568549 163.015042 
L 392.236819 174.713387 
L 393.90509 185.918485 
L 397.519676 208.353376 
L 399.187946 221.454287 
L 401.134262 236.682373 
L 402.524487 245.627551 
L 404.192758 254.519048 
L 406.417118 265.249934 
L 407.529299 269.63034 
L 408.363434 271.928161 
L 408.919524 272.851029 
L 409.475614 273.243603 
L 409.753659 273.240345 
L 410.309749 272.854973 
L 410.865839 272.019745 
L 411.699975 270.157888 
L 413.0902 266.755918 
L 413.64629 265.865808 
L 413.924335 265.626045 
L 414.20238 265.554013 
L 414.480425 265.670293 
L 414.75847 265.991007 
L 415.314561 267.293072 
L 415.870651 269.497252 
L 416.704786 274.363359 
L 417.816966 282.842729 
L 419.485237 295.640763 
L 420.319372 300.403796 
L 421.153507 303.639406 
L 421.709597 305.024651 
L 422.265688 305.939629 
L 423.099823 306.798525 
L 424.212003 307.84419 
L 425.046138 309.077825 
L 425.880273 310.889945 
L 426.436364 312.404675 
L 426.436364 312.404675 
" clip-path="url(#p9ddc6e12fb)" style="fill: none; stroke: #ff00ff; stroke-width: 3; stroke-linecap: square"/>
   </g>
   <g id="patch_3">
    <path d="M 7.2 331.2 
L 7.2 7.2 
" style="fill: none; stroke: #000000; stroke-width: 0.8; stroke-linejoin: miter; stroke-linecap: square"/>
   </g>
   <g id="patch_4">
    <path d="M 446.4 331.2 
L 446.4 7.2 
" style="fill: none; stroke: #000000; stroke-width: 0.8; stroke-linejoin: miter; stroke-linecap: square"/>
   </g>
   <g id="patch_5">
    <path d="M 7.2 331.2 
L 446.4 331.2 
" style="fill: none; stroke: #000000; stroke-width: 0.8; stroke-linejoin: miter; stroke-linecap: square"/>
   </g>
   <g id="patch_6">
    <path d="M 7.2 7.2 
L 446.4 7.2 
" style="fill: none; stroke: #000000; stroke-width: 0.8; stroke-linejoin: miter; stroke-linecap: square"/>
   </g>
  </g>
 </g>
 <defs>
  <clipPath id="p9ddc6e12fb">
   <rect x="7.2" y="7.2" width="439.2" height="324"/>
  </clipPath>
 </defs>
</svg>
