<?xml version="1.0" encoding="utf-8" standalone="no"?>
<!DOCTYPE svg PUBLIC "-//W3C//DTD SVG 1.1//EN"
  "http://www.w3.org/Graphics/SVG/1.1/DTD/svg11.dtd">
<svg xmlns:xlink="http://www.w3.org/1999/xlink" width="453.6pt" height="338.4pt" viewBox="0 0 453.6 338.4" xmlns="http://www.w3.org/2000/svg" version="1.1">
 <metadata>
  <rdf:RDF xmlns:dc="http://purl.org/dc/elements/1.1/" xmlns:cc="http://creativecommons.org/ns#" xmlns:rdf="http://www.w3.org/1999/02/22-rdf-syntax-ns#">
   <cc:Work>
    <dc:type rdf:resource="http://purl.org/dc/dcmitype/StillImage"/>
    <dc:date>2025-05-15T17:11:48.980149</dc:date>
    <dc:format>image/svg+xml</dc:format>
    <dc:creator>
     <cc:Agent>
      <dc:title>Matplotlib v3.10.1, https://matplotlib.org/</dc:title>
     </cc:Agent>
    </dc:creator>
   </cc:Work>
  </rdf:RDF>
 </metadata>
 <defs>
  <style type="text/css">*{stroke-linejoin: round; stroke-linecap: butt}</style>
 </defs>
 <g id="figure_1">
  <g id="patch_1">
   <path d="M 0 338.4 
L 453.6 338.4 
L 453.6 0 
L 0 0 
z
" style="fill: #ffffff"/>
  </g>
  <g id="axes_1">
   <g id="patch_2">
    <path d="M 7.2 331.2 
L 446.4 331.2 
L 446.4 7.2 
L 7.2 7.2 
z
" style="fill: #ffffff"/>
   </g>
   <g id="matplotlib.axis_1"/>
   <g id="matplotlib.axis_2"/>
   <g id="line2d_1">
    <path d="M 27.163636 249.688109 
L 29.109952 220.960693 
L 31.056267 191.780328 
L 34.392808 139.722323 
L 34.948898 134.245995 
L 35.504989 130.798911 
L 35.783034 129.926314 
L 36.061079 129.649986 
L 36.339124 129.977429 
L 36.617169 130.904827 
L 37.173259 134.487003 
L 37.729349 140.144494 
L 38.563484 151.625106 
L 41.62198 198.871014 
L 42.456115 207.69869 
L 43.290251 214.136507 
L 44.124386 218.689979 
L 45.236566 223.159473 
L 46.626792 228.701944 
L 47.460927 232.934927 
L 48.573107 240.038403 
L 49.963332 250.905019 
L 52.465738 270.986996 
L 53.299873 275.961718 
L 53.855964 278.427678 
L 54.412054 280.149245 
L 54.968144 281.131992 
L 55.246189 281.362843 
L 55.524234 281.435062 
L 55.802279 281.36337 
L 56.358369 280.857463 
L 57.192504 279.487514 
L 58.58273 276.931762 
L 59.13882 276.233724 
L 59.69491 275.873111 
L 60.251 275.900599 
L 60.80709 276.327771 
L 61.363181 277.13076 
L 62.197316 278.919764 
L 63.309496 281.992567 
L 64.977767 286.679004 
L 65.811902 288.411804 
L 66.367992 289.12261 
L 66.924082 289.360986 
L 67.202127 289.273585 
L 67.480172 289.034793 
L 68.036262 288.074269 
L 68.592352 286.449644 
L 69.148443 284.183976 
L 69.982578 279.784837 
L 72.484984 265.312065 
L 73.041074 263.183815 
L 73.597164 261.750335 
L 74.153254 261.008925 
L 74.431299 260.871749 
L 74.987389 260.968143 
L 75.821524 261.632331 
L 76.377615 262.056586 
L 76.933705 262.177485 
L 77.21175 262.059811 
L 77.489795 261.798093 
L 78.045885 260.801723 
L 78.601975 259.169442 
L 79.43611 255.732406 
L 81.660471 245.575959 
L 82.494606 243.146964 
L 83.050696 242.095026 
L 83.606787 241.407408 
L 84.440922 240.825749 
L 85.275057 240.566774 
L 85.831147 240.587878 
L 86.387237 240.886649 
L 86.943327 241.635012 
L 87.499418 243.025758 
L 88.055508 245.225942 
L 88.611598 248.331235 
L 89.445733 254.62672 
L 90.835958 267.780044 
L 91.948139 277.628177 
L 92.782274 282.815388 
L 93.338364 284.830066 
L 93.616409 285.380068 
L 93.894454 285.631936 
L 94.172499 285.599336 
L 94.450544 285.301991 
L 95.006635 284.013344 
L 95.562725 281.996582 
L 96.674905 276.764904 
L 98.621221 267.519335 
L 100.845581 257.751538 
L 101.679716 252.805051 
L 102.513852 246.29927 
L 103.347987 237.898811 
L 104.460167 223.775201 
L 106.128438 198.460142 
L 108.074753 169.116845 
L 109.464978 151.715226 
L 110.577159 140.553502 
L 111.689339 131.594946 
L 113.35761 120.503423 
L 114.747835 110.666565 
L 115.860015 100.80426 
L 117.250241 85.835014 
L 119.196556 64.464983 
L 120.030691 57.39562 
L 120.586781 53.941034 
L 121.142872 51.698071 
L 121.420917 51.075477 
L 121.698962 50.805467 
L 121.977007 50.900413 
L 122.255052 51.370496 
L 122.533097 52.224095 
L 123.089187 55.103034 
L 123.645277 59.553947 
L 124.479413 69.102454 
L 125.313548 81.794821 
L 126.425728 102.545067 
L 130.318359 179.594461 
L 131.430539 194.958937 
L 132.264675 203.494665 
L 133.09881 209.582751 
L 133.6549 212.436944 
L 134.21099 214.488346 
L 134.76708 215.908049 
L 135.601215 217.277844 
L 136.991441 219.234672 
L 137.547531 220.45336 
L 138.103621 222.14575 
L 138.659711 224.408545 
L 139.493847 228.967874 
L 140.327982 234.871945 
L 141.718207 246.817923 
L 143.386478 261.194782 
L 144.220613 266.795586 
L 145.054748 270.7262 
L 145.610838 272.407314 
L 146.166928 273.457081 
L 146.723018 274.060984 
L 148.113244 275.118451 
L 148.669334 275.897857 
L 149.225424 277.06782 
L 150.059559 279.57068 
L 151.17174 283.892774 
L 153.3961 292.810504 
L 155.342416 299.499422 
L 156.176551 301.912227 
L 156.732641 303.089781 
L 157.010686 303.46031 
L 157.288731 303.633443 
L 157.566776 303.563747 
L 157.844821 303.201751 
L 158.122867 302.49349 
L 158.400912 301.382429 
L 158.957002 297.718183 
L 159.513092 291.748452 
L 160.069182 283.071424 
L 160.625272 271.416999 
L 161.459407 248.303286 
L 162.571588 209.020573 
L 164.239858 147.655815 
L 165.073993 125.367204 
L 165.630084 116.210199 
L 165.908129 113.579508 
L 166.186174 112.28452 
L 166.464219 112.314092 
L 166.742264 113.62663 
L 167.020309 116.152766 
L 167.576399 124.447836 
L 168.410534 143.041597 
L 171.190985 213.793927 
L 172.02512 228.477762 
L 172.859256 239.32152 
L 173.693391 247.206419 
L 174.805571 255.017191 
L 177.029932 268.154741 
L 178.142112 273.753307 
L 178.698202 275.75004 
L 179.254292 276.951572 
L 179.532337 277.214365 
L 179.810382 277.243608 
L 180.088427 277.042746 
L 180.644518 276.005461 
L 181.200608 274.29041 
L 182.868878 268.289944 
L 183.424968 267.180879 
L 183.703013 266.953757 
L 183.981058 266.970847 
L 184.259104 267.241713 
L 184.537149 267.767122 
L 185.093239 269.547922 
L 185.649329 272.175629 
L 186.761509 279.036122 
L 188.42978 289.450733 
L 189.263915 293.275585 
L 189.820005 295.085343 
L 190.376095 296.270334 
L 190.932185 296.83521 
L 191.21023 296.89227 
L 191.488276 296.805045 
L 192.044366 296.220776 
L 192.600456 295.137774 
L 193.434591 292.729554 
L 194.546771 288.463489 
L 196.215042 280.877667 
L 200.663763 259.726377 
L 201.497898 256.999182 
L 202.332033 255.046346 
L 203.166169 253.778715 
L 204.000304 252.993562 
L 205.112484 252.319897 
L 207.892935 250.785151 
L 208.449025 250.267529 
L 209.005115 249.507034 
L 209.561205 248.363133 
L 210.117296 246.670326 
L 210.673386 244.255261 
L 211.229476 240.954327 
L 212.063611 234.057527 
L 212.897746 224.604493 
L 213.731881 212.574318 
L 214.844062 192.910168 
L 216.512332 158.05983 
L 218.180603 123.839413 
L 219.014738 111.096677 
L 219.570828 105.610301 
L 219.848873 103.980543 
L 220.126918 103.1681 
L 220.404963 103.216187 
L 220.683008 104.153018 
L 220.961053 105.992808 
L 221.517144 112.354546 
L 222.073234 122.08518 
L 222.907369 141.931897 
L 224.297594 182.993633 
L 225.965865 231.174924 
L 227.078045 256.58447 
L 227.91218 271.201658 
L 228.746316 282.033854 
L 229.302406 287.202286 
L 229.858496 290.752126 
L 230.414586 292.702527 
L 230.692631 293.089136 
L 230.970676 293.094313 
L 231.248721 292.730453 
L 231.526766 292.014031 
L 232.082856 289.612305 
L 232.638947 286.116585 
L 233.751127 277.111959 
L 235.141352 266.084363 
L 235.697442 263.010748 
L 236.253533 261.199916 
L 236.531578 260.842703 
L 236.809623 260.878549 
L 237.087668 261.319608 
L 237.365713 262.17075 
L 237.921803 265.084176 
L 238.477893 269.505165 
L 239.312028 278.42351 
L 241.814434 308.44453 
L 242.370524 312.68359 
L 242.926614 315.133075 
L 243.204659 315.606009 
L 243.482704 315.551999 
L 243.76075 314.962706 
L 244.038795 313.839952 
L 244.594885 310.050661 
L 245.150975 304.395671 
L 245.98511 293.236865 
L 248.209471 260.615142 
L 249.043606 252.295612 
L 249.599696 248.714181 
L 250.155786 246.61728 
L 250.711876 245.688698 
L 251.267967 245.426519 
L 251.824057 245.190425 
L 252.102102 244.859493 
L 252.380147 244.264519 
L 252.658192 243.315929 
L 253.214282 240.022454 
L 253.770372 234.385431 
L 254.326462 225.976394 
L 254.882553 214.581274 
L 255.716688 192.032328 
L 256.828868 153.924777 
L 259.053229 73.419985 
L 259.887364 50.440685 
L 260.721499 34.254727 
L 261.277589 27.379821 
L 261.833679 23.402501 
L 262.111724 22.381604 
L 262.38977 21.927273 
L 262.667815 21.975667 
L 262.94586 22.462028 
L 263.50195 24.496757 
L 264.05804 27.575681 
L 264.892175 33.437193 
L 266.004356 42.936999 
L 266.838491 51.695219 
L 267.672626 62.64011 
L 268.506761 76.409271 
L 269.618942 99.355576 
L 271.287212 140.116589 
L 272.955482 179.302316 
L 274.067663 200.115501 
L 274.901798 212.15342 
L 275.735933 221.291998 
L 276.570068 228.057982 
L 277.404204 233.205398 
L 279.906609 247.070515 
L 281.01879 255.229439 
L 283.79924 277.148222 
L 284.35533 280.097165 
L 284.911421 282.134417 
L 285.467511 283.213909 
L 285.745556 283.409309 
L 286.023601 283.397112 
L 286.301646 283.202041 
L 286.857736 282.392932 
L 288.247962 279.815637 
L 288.526007 279.540889 
L 288.804052 279.430958 
L 289.082097 279.511119 
L 289.360142 279.799074 
L 289.916232 281.028204 
L 290.472322 283.097003 
L 291.306457 287.444984 
L 293.808863 301.801551 
L 294.364953 303.922539 
L 294.921043 305.382126 
L 295.477133 306.099908 
L 295.755179 306.155081 
L 296.033224 305.9934 
L 296.311269 305.604224 
L 296.867359 304.104338 
L 297.423449 301.597178 
L 297.979539 298.074563 
L 298.813674 291.051643 
L 300.2039 276.357892 
L 301.87217 259.053106 
L 302.98435 249.979596 
L 305.208711 233.398735 
L 306.042846 224.269679 
L 306.876982 211.885581 
L 307.711117 195.911695 
L 308.823297 170.044945 
L 310.769613 123.310406 
L 311.603748 108.123976 
L 312.159838 100.856559 
L 312.715928 96.139366 
L 312.993973 94.749827 
L 313.272018 93.991043 
L 313.550063 93.839541 
L 313.828108 94.26294 
L 314.106153 95.222762 
L 314.662244 98.570379 
L 315.218334 103.492384 
L 316.052469 112.941338 
L 320.50119 168.248438 
L 324.671866 212.770398 
L 328.286452 254.548358 
L 330.232768 273.570104 
L 331.901038 287.830562 
L 333.013219 295.656822 
L 333.847354 300.168041 
L 334.681489 303.29174 
L 335.237579 304.585674 
L 335.793669 305.290491 
L 336.349759 305.479551 
L 336.90585 305.252298 
L 337.46194 304.725923 
L 339.408255 302.43088 
L 339.964345 302.190069 
L 340.520436 302.339421 
L 341.076526 302.943873 
L 341.632616 304.020426 
L 342.466751 306.417918 
L 344.969157 314.838341 
L 345.525247 315.892319 
L 346.081337 316.413846 
L 346.359382 316.472727 
L 346.637427 316.404018 
L 347.193517 315.923208 
L 347.749607 315.07325 
L 348.861788 312.750961 
L 350.808103 308.554592 
L 353.310509 303.414811 
L 354.422689 300.353745 
L 355.256825 297.450872 
L 356.369005 292.626534 
L 357.481185 286.760634 
L 359.427501 274.999899 
L 361.929906 259.962603 
L 363.042087 254.26376 
L 363.876222 250.996851 
L 364.432312 249.541564 
L 364.988402 248.796579 
L 365.266447 248.712185 
L 365.544492 248.823256 
L 365.822537 249.125887 
L 366.378628 250.264129 
L 366.934718 251.989667 
L 369.159078 260.020519 
L 369.715168 261.105364 
L 369.993213 261.403411 
L 370.271259 261.535564 
L 370.549304 261.50801 
L 371.105394 261.025028 
L 371.661484 260.103773 
L 373.607799 256.244281 
L 374.16389 255.576516 
L 374.71998 255.169571 
L 376.110205 254.503145 
L 376.666295 253.879476 
L 377.222385 252.740312 
L 377.778476 250.909802 
L 378.334566 248.263118 
L 379.168701 242.645905 
L 380.002836 235.13465 
L 381.115016 222.798355 
L 385.563738 170.22093 
L 386.953963 157.758514 
L 388.344188 147.339472 
L 390.290504 134.69901 
L 392.79291 118.279897 
L 394.739225 103.861816 
L 397.241631 85.37103 
L 398.075766 80.640192 
L 398.631856 78.349317 
L 399.187946 76.957847 
L 399.465991 76.651727 
L 399.744036 76.630053 
L 400.022082 76.908794 
L 400.300127 77.500237 
L 400.856217 79.657949 
L 401.412307 83.138686 
L 401.968397 87.920727 
L 402.802532 97.350463 
L 403.914713 113.372722 
L 405.582983 141.654164 
L 407.807344 178.766222 
L 408.919524 194.002516 
L 409.753659 203.232443 
L 410.587794 210.413929 
L 411.42193 215.62345 
L 412.256065 219.184589 
L 413.0902 221.678322 
L 414.20238 224.754284 
L 414.75847 226.802308 
L 415.314561 229.536721 
L 415.870651 233.158955 
L 416.704786 240.495739 
L 417.538921 250.054514 
L 419.207192 273.045089 
L 420.319372 287.480742 
L 421.153507 295.858386 
L 421.709597 299.874273 
L 422.265688 302.569812 
L 422.821778 304.023256 
L 423.099823 304.336264 
L 423.377868 304.410633 
L 423.655913 304.278304 
L 424.212003 303.525356 
L 425.046138 301.647767 
L 426.436364 298.035886 
L 426.436364 298.035886 
" clip-path="url(#pdf46290f98)" style="fill: none; stroke-dasharray: 11.1,4.8; stroke-dashoffset: 0; stroke: #000000; stroke-width: 3"/>
   </g>
   <g id="line2d_2">
    <path d="M 27.163636 293.875957 
L 27.441681 291.759663 
L 27.997772 266.728741 
L 28.275817 263.97476 
L 28.553862 267.695671 
L 28.831907 267.949798 
L 29.109952 267.798077 
L 29.666042 260.946381 
L 29.944087 263.175611 
L 30.500177 245.932953 
L 30.778222 242.460816 
L 31.056267 244.888539 
L 31.334312 239.967105 
L 31.612358 228.320775 
L 31.890403 226.374631 
L 32.168448 228.745842 
L 32.446493 228.330779 
L 33.002583 223.678302 
L 33.280628 221.676084 
L 33.558673 221.160722 
L 33.836718 221.557006 
L 34.114763 220.519963 
L 34.392808 218.297315 
L 34.670853 211.466943 
L 34.948898 209.726311 
L 35.226944 214.079294 
L 35.504989 213.721796 
L 36.061079 217.078978 
L 36.339124 216.887242 
L 38.007394 208.364414 
L 38.285439 207.183635 
L 38.563484 208.104758 
L 38.84153 208.446198 
L 39.119575 208.330717 
L 39.39762 207.877922 
L 40.5098 205.401058 
L 40.787845 205.179662 
L 41.06589 204.079439 
L 41.62198 201.084668 
L 41.900025 200.404246 
L 42.17807 200.764377 
L 42.456115 202.033609 
L 42.734161 204.486165 
L 43.290251 204.263277 
L 43.568296 204.469492 
L 44.124386 205.433175 
L 45.236566 207.687765 
L 45.792656 208.451024 
L 46.626792 210.022208 
L 47.460927 212.147277 
L 48.295062 214.865895 
L 49.129197 218.208862 
L 50.241378 223.219012 
L 51.353558 227.150877 
L 52.465738 230.331066 
L 53.021828 231.697965 
L 54.690099 234.330762 
L 56.080324 236.978301 
L 57.47055 240.194819 
L 58.58273 243.289713 
L 59.69491 246.942179 
L 60.80709 250.705912 
L 62.197316 251.748922 
L 63.587541 252.527977 
L 64.977767 253.067909 
L 65.811902 253.239287 
L 66.646037 253.141357 
L 68.870398 252.454353 
L 74.987389 250.383339 
L 76.65566 249.995918 
L 77.76784 249.40702 
L 78.88002 248.52986 
L 79.992201 247.347238 
L 81.104381 245.838796 
L 82.216561 243.982772 
L 83.328741 241.753542 
L 84.718967 238.404871 
L 86.109192 234.376656 
L 87.499418 229.60747 
L 88.333553 226.08084 
L 88.611598 224.777999 
L 88.889643 224.602848 
L 91.392049 226.134193 
L 92.782274 227.236961 
L 93.894454 228.389397 
L 95.006635 229.901261 
L 95.84077 231.353191 
L 96.674905 233.156828 
L 97.50904 235.301728 
L 97.787085 235.286811 
L 98.343175 234.769605 
L 98.899266 233.86691 
L 99.455356 232.567754 
L 100.289491 229.854138 
L 101.123626 226.195531 
L 101.957761 221.570607 
L 103.069942 213.88475 
L 103.904077 206.986107 
L 104.182122 206.587278 
L 104.460167 206.390014 
L 104.738212 205.945905 
L 105.294302 204.43799 
L 107.518663 196.792936 
L 107.796708 196.385332 
L 108.074753 196.237384 
L 108.352798 196.390597 
L 108.630843 196.887444 
L 108.908888 197.773994 
L 109.464978 199.892043 
L 109.743024 200.154155 
L 110.021069 200.166616 
L 110.299114 199.972247 
L 110.855204 199.115357 
L 112.523474 195.608647 
L 112.801519 195.304765 
L 113.079564 195.193584 
L 113.35761 195.313101 
L 113.635655 195.705173 
L 113.9137 196.421134 
L 115.02588 200.54649 
L 115.860015 201.905668 
L 116.416105 202.459641 
L 116.972195 202.688408 
L 117.528286 202.550551 
L 118.084376 202.001492 
L 118.640466 200.993758 
L 119.196556 199.473294 
L 119.474601 198.504697 
L 120.308736 198.498204 
L 120.864827 197.997232 
L 121.698962 197.065667 
L 121.977007 196.882091 
L 122.255052 196.841024 
L 122.533097 196.994149 
L 122.811142 197.426938 
L 123.089187 198.182914 
L 123.645277 200.838263 
L 123.923322 202.817841 
L 124.479413 203.410073 
L 125.035503 204.938785 
L 125.591593 207.262347 
L 126.703773 213.159925 
L 128.093998 220.4631 
L 128.650089 222.743138 
L 129.484224 224.705516 
L 130.318359 226.044248 
L 130.874449 226.535917 
L 131.430539 226.663858 
L 131.98663 226.396568 
L 132.54272 225.705616 
L 133.09881 224.564413 
L 133.6549 222.950933 
L 134.21099 220.841659 
L 134.489035 220.832796 
L 136.435351 226.017571 
L 139.771892 234.127092 
L 140.884072 236.329294 
L 141.718207 237.774643 
L 142.274297 238.39557 
L 142.830387 238.740958 
L 143.386478 238.821865 
L 143.942568 238.661543 
L 144.498658 238.265523 
L 145.054748 237.655565 
L 145.888883 236.366588 
L 146.723018 234.661057 
L 147.835199 231.808444 
L 148.947379 228.360439 
L 150.337604 223.302639 
L 152.005875 216.239463 
L 152.84001 212.435013 
L 153.3961 213.087004 
L 153.95219 213.410104 
L 154.508281 213.445731 
L 155.064371 213.224861 
L 155.620461 212.789966 
L 156.454596 211.813296 
L 157.566776 210.071173 
L 161.737453 202.927179 
L 162.571588 201.998333 
L 163.405723 201.418912 
L 163.961813 201.264119 
L 164.517903 201.317823 
L 165.073993 201.600118 
L 165.630084 202.129696 
L 166.186174 202.925687 
L 167.020309 204.659298 
L 167.854444 207.094831 
L 168.688579 210.293184 
L 169.522715 213.776991 
L 170.35685 214.68855 
L 172.303165 216.863023 
L 174.527526 219.686328 
L 178.698202 225.4643 
L 183.146923 231.52922 
L 186.205419 235.318226 
L 188.707825 238.061677 
L 188.98587 238.342656 
L 189.263915 238.425405 
L 194.268726 237.55781 
L 197.605267 237.186271 
L 200.663763 237.060963 
L 203.444214 237.172933 
L 205.946619 237.491645 
L 208.449025 238.044653 
L 211.785566 239.065988 
L 214.009927 239.944202 
L 216.790377 241.182984 
L 218.736693 241.785133 
L 220.961053 242.249161 
L 223.741504 242.572699 
L 227.078045 242.721437 
L 235.419397 243.005575 
L 238.199848 243.387029 
L 240.424209 243.891072 
L 242.648569 244.617563 
L 244.594885 245.471821 
L 245.150975 245.752888 
L 248.765561 245.704361 
L 253.214282 245.394161 
L 268.506761 244.08623 
L 271.843302 244.114574 
L 275.179843 244.379319 
L 279.072474 244.779377 
L 281.01879 244.621512 
L 283.24315 244.170998 
L 285.745556 243.422042 
L 294.642998 240.508792 
L 296.589314 240.197364 
L 298.257584 240.130234 
L 299.925855 240.285992 
L 301.594125 240.708953 
L 302.98435 241.289953 
L 304.374576 242.103581 
L 305.764801 243.170372 
L 307.155027 244.514193 
L 308.267207 245.610467 
L 312.715928 242.904135 
L 315.774424 241.264066 
L 318.83292 239.836443 
L 321.61337 238.771583 
L 324.115776 238.047198 
L 326.340137 237.617568 
L 328.564497 237.406351 
L 330.788858 237.430132 
L 332.735173 237.652405 
L 334.681489 238.088704 
L 336.627805 238.755349 
L 338.57412 239.670857 
L 339.13021 239.962278 
L 339.6863 239.664276 
L 341.076526 237.938825 
L 342.466751 236.542617 
L 343.856976 235.433706 
L 345.247202 234.576465 
L 346.637427 233.934478 
L 348.305698 233.401127 
L 350.252013 233.014934 
L 353.032464 232.72869 
L 357.20314 232.322402 
L 359.149456 231.909094 
L 360.817726 231.338098 
L 362.207951 230.669259 
L 363.598177 229.790607 
L 365.266447 228.412036 
L 366.656673 226.973708 
L 368.046898 225.220703 
L 369.437123 223.122486 
L 375.27607 213.633957 
L 378.334566 209.257369 
L 381.393062 205.255567 
L 385.007648 200.922065 
L 387.788098 197.936772 
L 390.290504 195.563455 
L 392.79291 193.476031 
L 395.295315 191.663005 
L 397.797721 190.114988 
L 400.300127 188.823466 
L 402.246442 187.989918 
L 402.802532 187.918928 
L 405.304938 188.421303 
L 409.753659 189.176401 
L 413.368245 189.569 
L 416.426741 189.697292 
L 419.207192 189.608137 
L 421.709597 189.315311 
L 424.212003 188.79249 
L 426.436364 188.112156 
L 426.436364 188.112156 
" clip-path="url(#pdf46290f98)" style="fill: none; stroke: #ff00ff; stroke-width: 3; stroke-linecap: square"/>
   </g>
   <g id="patch_3">
    <path d="M 7.2 331.2 
L 7.2 7.2 
" style="fill: none; stroke: #000000; stroke-width: 0.8; stroke-linejoin: miter; stroke-linecap: square"/>
   </g>
   <g id="patch_4">
    <path d="M 446.4 331.2 
L 446.4 7.2 
" style="fill: none; stroke: #000000; stroke-width: 0.8; stroke-linejoin: miter; stroke-linecap: square"/>
   </g>
   <g id="patch_5">
    <path d="M 7.2 331.2 
L 446.4 331.2 
" style="fill: none; stroke: #000000; stroke-width: 0.8; stroke-linejoin: miter; stroke-linecap: square"/>
   </g>
   <g id="patch_6">
    <path d="M 7.2 7.2 
L 446.4 7.2 
" style="fill: none; stroke: #000000; stroke-width: 0.8; stroke-linejoin: miter; stroke-linecap: square"/>
   </g>
  </g>
 </g>
 <defs>
  <clipPath id="pdf46290f98">
   <rect x="7.2" y="7.2" width="439.2" height="324"/>
  </clipPath>
 </defs>
</svg>
