<?xml version="1.0" encoding="utf-8" standalone="no"?>
<!DOCTYPE svg PUBLIC "-//W3C//DTD SVG 1.1//EN"
  "http://www.w3.org/Graphics/SVG/1.1/DTD/svg11.dtd">
<svg xmlns:xlink="http://www.w3.org/1999/xlink" width="453.6pt" height="338.4pt" viewBox="0 0 453.6 338.4" xmlns="http://www.w3.org/2000/svg" version="1.1">
 <metadata>
  <rdf:RDF xmlns:dc="http://purl.org/dc/elements/1.1/" xmlns:cc="http://creativecommons.org/ns#" xmlns:rdf="http://www.w3.org/1999/02/22-rdf-syntax-ns#">
   <cc:Work>
    <dc:type rdf:resource="http://purl.org/dc/dcmitype/StillImage"/>
    <dc:date>2025-05-15T16:58:02.878777</dc:date>
    <dc:format>image/svg+xml</dc:format>
    <dc:creator>
     <cc:Agent>
      <dc:title>Matplotlib v3.10.1, https://matplotlib.org/</dc:title>
     </cc:Agent>
    </dc:creator>
   </cc:Work>
  </rdf:RDF>
 </metadata>
 <defs>
  <style type="text/css">*{stroke-linejoin: round; stroke-linecap: butt}</style>
 </defs>
 <g id="figure_1">
  <g id="patch_1">
   <path d="M 0 338.4 
L 453.6 338.4 
L 453.6 0 
L 0 0 
z
" style="fill: #ffffff"/>
  </g>
  <g id="axes_1">
   <g id="patch_2">
    <path d="M 7.2 331.2 
L 446.4 331.2 
L 446.4 7.2 
L 7.2 7.2 
z
" style="fill: #ffffff"/>
   </g>
   <g id="matplotlib.axis_1"/>
   <g id="matplotlib.axis_2"/>
   <g id="line2d_1">
    <path d="M 27.163636 67.303145 
L 27.441681 65.167115 
L 27.719727 64.228436 
L 27.997772 64.411505 
L 28.275817 65.62415 
L 28.831907 70.695474 
L 29.387997 78.448905 
L 31.890403 118.37305 
L 32.446493 123.573113 
L 33.002583 126.667444 
L 33.280628 127.46069 
L 33.558673 127.79888 
L 33.836718 127.732224 
L 34.114763 127.319627 
L 34.670853 125.724313 
L 36.339124 119.765343 
L 36.617169 119.240744 
L 36.895214 118.967645 
L 37.173259 118.970407 
L 37.451304 119.263911 
L 37.729349 119.853765 
L 38.285439 121.900961 
L 38.84153 124.993025 
L 39.675665 131.086711 
L 41.900025 148.653298 
L 42.734161 153.137861 
L 43.290251 155.046178 
L 43.846341 156.04059 
L 44.124386 156.198678 
L 44.402431 156.137916 
L 44.680476 155.866713 
L 45.236566 154.729918 
L 45.792656 152.870574 
L 46.626792 148.906322 
L 47.460927 143.73697 
L 48.573107 135.237205 
L 49.963332 122.350699 
L 51.631603 104.426547 
L 54.134009 77.579314 
L 55.246189 68.018769 
L 56.080324 62.518235 
L 56.636414 59.826978 
L 57.192504 58.050037 
L 57.47055 57.547369 
L 57.748595 57.328684 
L 58.02664 57.415498 
L 58.304685 57.83164 
L 58.58273 58.601719 
L 59.13882 61.305302 
L 59.69491 65.72733 
L 60.251 72.046956 
L 61.085135 85.346431 
L 61.919271 103.259783 
L 63.031451 133.361084 
L 66.646037 238.945267 
L 67.480172 255.298984 
L 68.314307 266.971341 
L 68.870398 272.331883 
L 69.426488 276.026415 
L 69.982578 278.354501 
L 70.538668 279.638172 
L 71.094758 280.192369 
L 71.650848 280.302845 
L 73.597164 280.17456 
L 74.153254 280.485173 
L 74.709344 281.026878 
L 75.543479 282.241213 
L 76.377615 283.856025 
L 77.489795 286.528258 
L 78.601975 289.856713 
L 79.714155 293.914045 
L 81.104381 299.135358 
L 81.660471 300.613846 
L 81.938516 301.063729 
L 82.216561 301.257722 
L 82.494606 301.146648 
L 82.772651 300.681493 
L 83.050696 299.814685 
L 83.606787 296.701433 
L 84.162877 291.508233 
L 84.718967 284.042227 
L 85.553102 268.497916 
L 86.387237 248.205259 
L 87.777463 207.424549 
L 89.445733 158.362328 
L 90.279868 138.535836 
L 91.114004 123.746537 
L 91.670094 116.967154 
L 92.226184 112.628767 
L 92.504229 111.32939 
L 92.782274 110.573409 
L 93.060319 110.328424 
L 93.338364 110.558487 
L 93.616409 111.226993 
L 94.172499 113.730028 
L 94.72859 117.549464 
L 95.562725 125.18001 
L 96.674905 137.758749 
L 100.011446 177.867118 
L 101.123626 187.660571 
L 101.957761 192.963938 
L 102.513852 195.478082 
L 103.069942 197.183708 
L 103.626032 198.108247 
L 103.904077 198.290101 
L 104.182122 198.292863 
L 104.460167 198.123582 
L 105.016257 197.297976 
L 105.572347 195.8752 
L 106.406483 192.760917 
L 107.240618 188.646574 
L 108.352798 181.901448 
L 110.021069 170.017433 
L 111.689339 158.427129 
L 112.523474 153.91672 
L 113.35761 150.732689 
L 113.9137 149.358369 
L 114.46979 148.485358 
L 115.02588 147.960512 
L 116.416105 146.912551 
L 116.972195 146.140411 
L 117.528286 145.002668 
L 118.362421 142.59696 
L 119.752646 137.460834 
L 120.864827 133.685423 
L 121.420917 132.340165 
L 121.977007 131.522433 
L 122.255052 131.339116 
L 122.533097 131.315578 
L 122.811142 131.456147 
L 123.367232 132.233358 
L 123.923322 133.647581 
L 124.757458 136.791461 
L 126.147683 143.534114 
L 127.259863 148.492489 
L 127.815953 150.279364 
L 128.372044 151.41686 
L 128.650089 151.719969 
L 128.928134 151.843431 
L 129.206179 151.790872 
L 129.484224 151.570785 
L 130.040314 150.680501 
L 130.874449 148.499621 
L 132.820765 142.622724 
L 133.376855 141.463216 
L 133.932945 140.722941 
L 134.489035 140.439165 
L 134.76708 140.470823 
L 135.32317 140.871424 
L 135.879261 141.694351 
L 136.435351 142.893804 
L 137.269486 145.269914 
L 140.049937 154.292959 
L 140.606027 155.22801 
L 140.884072 155.443934 
L 141.162117 155.464463 
L 141.440162 155.271459 
L 141.718207 154.850576 
L 142.274297 153.28754 
L 142.830387 150.755815 
L 143.664523 145.354915 
L 145.888883 129.199706 
L 146.166928 128.142883 
L 146.444973 127.555832 
L 146.723018 127.515434 
L 147.001064 128.09457 
L 147.279109 129.358743 
L 147.835199 134.160966 
L 148.391289 142.236963 
L 148.947379 153.669756 
L 149.781514 176.619517 
L 150.893695 214.864111 
L 152.561965 272.980129 
L 153.3961 294.962891 
L 153.95219 305.302688 
L 154.508281 311.8012 
L 154.786326 313.586797 
L 155.064371 314.412299 
L 155.342416 314.303101 
L 155.620461 313.293313 
L 155.898506 311.423168 
L 156.454596 305.281108 
L 157.010686 296.247448 
L 157.844821 278.065449 
L 158.957002 246.968375 
L 160.903317 182.686367 
L 162.293543 140.149205 
L 163.127678 120.465343 
L 163.961813 106.748449 
L 164.517903 101.061589 
L 165.073993 97.959384 
L 165.352038 97.278222 
L 165.630084 97.109416 
L 165.908129 97.396078 
L 166.186174 98.079136 
L 166.742264 100.396092 
L 167.576399 105.416094 
L 171.190985 130.726054 
L 172.58121 141.824243 
L 175.083616 162.550417 
L 175.917751 167.08622 
L 176.473841 168.8618 
L 176.751887 169.347567 
L 177.029932 169.569921 
L 177.307977 169.541106 
L 177.586022 169.281198 
L 178.142112 168.185708 
L 180.088427 162.9875 
L 180.366473 162.774874 
L 180.644518 162.850806 
L 180.922563 163.25825 
L 181.200608 164.033523 
L 181.756698 166.792385 
L 182.312788 171.246484 
L 182.868878 177.359256 
L 183.703013 189.175254 
L 186.761509 237.371101 
L 187.317599 242.9514 
L 187.87369 246.799445 
L 188.42978 248.874466 
L 188.707825 249.269687 
L 188.98587 249.263319 
L 189.263915 248.882628 
L 189.820005 247.133843 
L 190.376095 244.328028 
L 191.488276 236.902256 
L 192.878501 227.435017 
L 193.712636 223.000252 
L 194.546771 219.930448 
L 195.102861 218.669099 
L 195.658952 218.009888 
L 195.936997 217.895887 
L 196.215042 217.9206 
L 196.493087 218.080956 
L 197.049177 218.802474 
L 197.605267 220.053641 
L 198.161357 221.826068 
L 198.995493 225.371312 
L 200.941808 234.661232 
L 201.219853 235.444625 
L 201.497898 235.895662 
L 201.775943 235.938698 
L 202.053988 235.497988 
L 202.332033 234.501494 
L 202.610079 232.883034 
L 203.166169 227.564436 
L 203.722259 219.247451 
L 204.278349 207.908956 
L 205.112484 185.972919 
L 207.892935 105.38155 
L 208.449025 95.288821 
L 209.005115 88.680471 
L 209.28316 86.698985 
L 209.561205 85.567631 
L 209.83925 85.240447 
L 210.117296 85.657455 
L 210.395341 86.747133 
L 210.951431 90.622426 
L 211.785566 99.402916 
L 214.566017 132.096828 
L 215.400152 138.5933 
L 215.956242 141.543723 
L 216.512332 143.326847 
L 216.790377 143.787551 
L 217.068422 143.976762 
L 217.346467 143.915093 
L 217.624513 143.629998 
L 218.180603 142.538094 
L 219.570828 139.028528 
L 219.848873 138.617745 
L 220.126918 138.416332 
L 220.404963 138.458873 
L 220.683008 138.769032 
L 220.961053 139.359793 
L 221.517144 141.366343 
L 222.351279 146.043786 
L 223.741504 154.72357 
L 224.297594 156.983309 
L 224.575639 157.627041 
L 224.853684 157.897873 
L 225.13173 157.775071 
L 225.409775 157.250967 
L 225.965865 155.034635 
L 226.521955 151.442335 
L 227.35609 144.289394 
L 228.746316 131.751177 
L 229.302406 127.958535 
L 229.858496 125.491488 
L 230.136541 124.858062 
L 230.414586 124.670953 
L 230.692631 124.959882 
L 230.970676 125.750407 
L 231.248721 127.063882 
L 231.804811 131.323246 
L 232.360901 137.812297 
L 233.195037 151.631959 
L 234.029172 169.70711 
L 237.087668 242.356229 
L 237.643758 250.807145 
L 238.199848 256.677302 
L 238.755938 260.000995 
L 239.033983 260.789274 
L 239.312028 261.067176 
L 239.590073 260.90311 
L 239.868119 260.374142 
L 240.424209 258.556453 
L 241.536389 254.265183 
L 242.092479 252.9912 
L 242.370524 252.76565 
L 242.648569 252.85634 
L 242.926614 253.277655 
L 243.482704 255.098147 
L 244.038795 258.058897 
L 245.98511 270.521388 
L 246.263155 271.474206 
L 246.5412 271.958572 
L 246.819245 271.897562 
L 247.09729 271.224171 
L 247.375336 269.883304 
L 247.931426 265.050019 
L 248.487516 257.260354 
L 249.321651 240.394034 
L 250.433831 210.876919 
L 252.380147 157.195275 
L 253.214282 139.765423 
L 254.048417 127.648748 
L 254.604507 122.544692 
L 255.160598 119.558034 
L 255.438643 118.741951 
L 255.716688 118.302106 
L 255.994733 118.176666 
L 256.272778 118.301488 
L 256.828868 119.046833 
L 257.941048 120.878229 
L 258.219093 121.1261 
L 258.497139 121.221901 
L 258.775184 121.14634 
L 259.053229 120.888946 
L 259.609319 119.829526 
L 260.165409 118.123612 
L 261.277589 113.581338 
L 262.38977 109.289862 
L 262.94586 107.825183 
L 263.50195 106.993517 
L 263.779995 106.82434 
L 264.05804 106.813127 
L 264.336085 106.948049 
L 264.892175 107.586834 
L 265.72631 109.118582 
L 266.560446 110.68471 
L 267.116536 111.379063 
L 267.394581 111.546056 
L 267.672626 111.563905 
L 267.950671 111.414226 
L 268.228716 111.081189 
L 268.784806 109.817099 
L 269.340896 107.706338 
L 269.896987 104.737447 
L 270.731122 98.79241 
L 271.843302 88.801624 
L 273.511573 73.359442 
L 274.345708 67.800413 
L 274.901798 65.670401 
L 275.179843 65.187809 
L 275.457888 65.132776 
L 275.735933 65.528225 
L 276.013978 66.390972 
L 276.570068 69.555052 
L 277.126159 74.629427 
L 277.960294 85.582966 
L 278.794429 99.915437 
L 280.184654 128.849891 
L 285.189466 239.450553 
L 286.023601 251.025048 
L 286.579691 256.226862 
L 287.135781 259.290442 
L 287.413826 260.037168 
L 287.691871 260.290419 
L 287.969916 260.084677 
L 288.247962 259.462979 
L 288.804052 257.177641 
L 289.638187 252.015235 
L 291.306457 240.872649 
L 292.140593 236.857282 
L 292.696683 234.957807 
L 293.252773 233.584642 
L 294.086908 232.17077 
L 295.477133 230.136353 
L 296.311269 228.46183 
L 297.145404 226.292967 
L 298.257584 222.694524 
L 299.091719 219.345932 
L 299.925855 214.937198 
L 300.481945 210.994754 
L 301.038035 205.889998 
L 301.87217 195.435685 
L 302.706305 181.162204 
L 303.818486 156.810339 
L 306.042846 105.005394 
L 306.876982 91.21805 
L 307.433072 84.972047 
L 307.989162 81.177015 
L 308.267207 80.156055 
L 308.545252 79.674452 
L 308.823297 79.686406 
L 309.101342 80.139978 
L 309.657432 82.143478 
L 310.491567 87.01141 
L 313.272018 105.440251 
L 314.662244 112.434609 
L 317.720739 126.033524 
L 318.83292 130.439392 
L 319.667055 132.909655 
L 320.223145 133.92575 
L 320.50119 134.202931 
L 320.779235 134.312253 
L 321.05728 134.246874 
L 321.335325 134.002837 
L 321.891416 132.981424 
L 322.447506 131.289278 
L 323.281641 127.707119 
L 324.671866 120.123897 
L 327.174272 106.287498 
L 328.842542 98.299553 
L 329.676678 95.334867 
L 330.232768 94.16802 
L 330.510813 93.921138 
L 330.788858 93.941708 
L 331.066903 94.260441 
L 331.344948 94.905946 
L 331.901038 97.276161 
L 332.457128 101.209908 
L 333.013219 106.795278 
L 333.847354 118.300292 
L 334.681489 133.413436 
L 335.793669 158.649195 
L 337.183895 196.869798 
L 340.24239 284.72477 
L 341.076526 301.374444 
L 341.632616 309.191398 
L 342.188706 314.175661 
L 342.466751 315.609712 
L 342.744796 316.364312 
L 343.022841 316.472727 
L 343.300886 315.977253 
L 343.578931 314.928076 
L 344.135022 311.39996 
L 344.969157 303.490028 
L 347.471562 276.393111 
L 348.305698 270.486843 
L 348.861788 268.067655 
L 349.139833 267.339912 
L 349.417878 266.932138 
L 349.695923 266.836502 
L 349.973968 267.03907 
L 350.252013 267.520611 
L 350.808103 269.21725 
L 351.642239 273.096088 
L 353.310509 281.769338 
L 353.866599 283.884695 
L 354.422689 285.317922 
L 354.978779 286.038554 
L 355.256825 286.150329 
L 355.53487 286.117557 
L 356.09096 285.710773 
L 357.75923 283.838361 
L 358.037275 283.736438 
L 358.31532 283.75876 
L 358.593365 283.920456 
L 359.149456 284.69509 
L 359.705546 286.066297 
L 360.539681 289.010063 
L 361.929906 294.194544 
L 362.485996 295.304977 
L 362.764042 295.443423 
L 363.042087 295.233208 
L 363.320132 294.623938 
L 363.598177 293.568682 
L 364.154267 289.956883 
L 364.710357 284.130835 
L 365.266447 275.935932 
L 366.100582 259.174318 
L 366.934718 237.480979 
L 368.046898 202.629313 
L 371.939529 72.876066 
L 373.051709 46.091822 
L 373.885845 31.903919 
L 374.441935 25.745101 
L 374.998025 22.457024 
L 375.27607 21.927273 
L 375.554115 22.148514 
L 375.83216 23.116956 
L 376.110205 24.820974 
L 376.666295 30.347973 
L 377.222385 38.470593 
L 378.056521 54.652473 
L 379.446746 87.920162 
L 381.115016 127.669895 
L 382.227197 148.858257 
L 383.061332 160.818286 
L 383.895467 169.303788 
L 384.451557 173.121988 
L 385.007648 175.577946 
L 385.563738 176.783253 
L 385.841783 176.955522 
L 386.119828 176.863349 
L 386.397873 176.524334 
L 386.953963 175.18357 
L 387.510053 173.09948 
L 388.344188 168.992434 
L 390.846594 155.849235 
L 391.680729 152.842707 
L 392.514865 150.679635 
L 395.01727 145.185326 
L 395.851405 142.272456 
L 396.963586 137.215147 
L 399.187946 126.19895 
L 400.022082 123.297664 
L 400.578172 122.113752 
L 400.856217 121.783889 
L 401.134262 121.640104 
L 401.412307 121.687964 
L 401.690352 121.929445 
L 402.246442 122.986598 
L 402.802532 124.765188 
L 403.636668 128.548595 
L 406.417118 143.164183 
L 406.973208 145.011737 
L 407.529299 146.241118 
L 408.085389 146.861394 
L 408.363434 146.960081 
L 408.641479 146.931885 
L 409.197569 146.541796 
L 409.753659 145.78565 
L 410.587794 144.131347 
L 411.42193 141.972685 
L 412.256065 139.315231 
L 413.368245 134.891348 
L 414.480425 129.424451 
L 415.870651 121.418121 
L 418.651102 104.733449 
L 419.207192 102.367273 
L 419.763282 100.969745 
L 420.041327 100.766559 
L 420.319372 100.971147 
L 420.597417 101.643198 
L 420.875462 102.84191 
L 421.431552 107.041377 
L 421.987642 113.957041 
L 422.543733 123.840936 
L 423.377868 144.308027 
L 424.212003 170.804166 
L 425.880273 233.795413 
L 426.436364 254.807425 
L 426.436364 254.807425 
" clip-path="url(#p43ec331943)" style="fill: none; stroke-dasharray: 11.1,4.8; stroke-dashoffset: 0; stroke: #000000; stroke-width: 3"/>
   </g>
   <g id="line2d_2">
    <path d="M 27.163636 220.132232 
L 27.441681 219.697684 
L 27.719727 219.889617 
L 27.997772 220.583764 
L 28.275817 220.675237 
L 29.387997 216.84331 
L 29.666042 214.493046 
L 29.944087 211.062091 
L 30.778222 196.454109 
L 31.334312 192.682264 
L 32.168448 186.130513 
L 33.002583 182.403168 
L 33.836718 176.569762 
L 35.783034 163.207011 
L 36.339124 160.348637 
L 37.173259 157.352622 
L 38.285439 151.915117 
L 38.563484 150.335963 
L 38.84153 150.344619 
L 39.39762 150.739614 
L 39.675665 150.891519 
L 39.95371 151.206006 
L 40.231755 150.393715 
L 41.06589 143.856681 
L 41.343935 142.674335 
L 41.62198 142.621405 
L 42.17807 141.34837 
L 42.456115 141.15079 
L 42.734161 141.215921 
L 43.012206 141.521175 
L 43.290251 142.011641 
L 43.568296 140.749859 
L 44.124386 136.877204 
L 44.680476 134.673693 
L 44.958521 134.472114 
L 45.236566 134.978204 
L 45.792656 138.584478 
L 48.017017 154.179926 
L 50.519423 168.190902 
L 52.187693 176.142572 
L 53.577918 181.822342 
L 55.524234 188.404969 
L 58.58273 197.786546 
L 63.031451 210.851938 
L 65.533857 212.718414 
L 67.758217 214.107244 
L 69.982578 215.244286 
L 73.041074 216.495267 
L 76.377615 217.610008 
L 78.601975 218.17484 
L 80.270246 218.025161 
L 81.660471 217.692948 
L 82.772651 217.227751 
L 83.884832 216.524268 
L 84.997012 215.510501 
L 86.109192 214.094671 
L 86.943327 212.705305 
L 87.777463 210.974617 
L 88.889643 207.80963 
L 90.279868 203.566178 
L 92.782274 196.175053 
L 94.450544 190.597721 
L 96.118815 184.147007 
L 97.50904 177.878372 
L 98.343175 173.978346 
L 99.455356 171.86371 
L 100.845581 168.639899 
L 102.235807 164.797501 
L 103.904077 159.409546 
L 105.572347 153.159091 
L 107.240618 146.410996 
L 111.967384 134.367162 
L 113.35761 131.424859 
L 114.46979 129.489748 
L 115.303925 128.384571 
L 116.13806 127.941593 
L 116.972195 127.781402 
L 118.640466 127.820069 
L 119.474601 127.762728 
L 120.308736 127.475242 
L 120.864827 127.086101 
L 121.420917 126.490806 
L 121.977007 125.642445 
L 122.533097 124.500291 
L 122.811142 123.735077 
L 123.367232 121.019869 
L 123.923322 118.617665 
L 124.479413 117.048693 
L 125.035503 116.22387 
L 125.313548 116.065081 
L 125.591593 116.056383 
L 125.869638 116.195756 
L 126.425728 116.857337 
L 126.981818 117.967997 
L 127.815953 120.306059 
L 128.928134 124.27233 
L 130.040314 128.677828 
L 130.318359 128.718268 
L 131.430539 122.903246 
L 132.264675 119.642788 
L 133.09881 117.291782 
L 133.6549 116.216945 
L 134.21099 115.52152 
L 134.76708 115.202622 
L 135.32317 115.244669 
L 135.879261 115.64222 
L 136.435351 116.38604 
L 136.991441 117.464134 
L 137.825576 119.689782 
L 138.103621 120.670302 
L 142.274297 150.752063 
L 143.664523 159.151286 
L 144.776703 164.780847 
L 145.888883 169.198341 
L 146.723018 171.595351 
L 147.279109 172.715203 
L 148.113244 173.82879 
L 149.225424 174.91451 
L 150.059559 175.449827 
L 150.893695 175.755451 
L 151.72783 175.838803 
L 152.561965 175.707385 
L 153.3961 175.368453 
L 154.508281 174.631064 
L 155.620461 173.595883 
L 156.732641 172.24642 
L 158.122867 170.437574 
L 159.791137 169.968461 
L 161.737453 169.184902 
L 164.795948 167.669602 
L 170.078805 165.030409 
L 171.46903 164.450036 
L 171.747075 164.446944 
L 172.303165 165.278775 
L 173.693391 167.476515 
L 174.805571 168.911267 
L 176.195796 170.262213 
L 177.864067 171.558869 
L 179.532337 172.56334 
L 181.478653 173.445668 
L 183.703013 174.165537 
L 186.205419 174.721341 
L 189.54196 175.211272 
L 192.322411 175.715382 
L 193.990681 175.936871 
L 197.883312 174.79818 
L 201.775943 173.876072 
L 205.946619 173.117618 
L 210.117296 172.576036 
L 215.956242 172.059929 
L 220.404963 171.649559 
L 225.409775 170.866907 
L 233.195037 169.970934 
L 235.141352 170.101198 
L 238.477893 170.44586 
L 240.424209 170.68021 
L 242.648569 171.194008 
L 245.150975 172.014502 
L 248.765561 173.469906 
L 251.267967 174.400176 
L 258.497139 176.029993 
L 262.111724 176.592434 
L 263.50195 176.849333 
L 271.565257 179.212994 
L 277.960294 181.284511 
L 283.521195 183.022743 
L 287.413826 184.008622 
L 290.472322 184.562984 
L 294.086908 184.942808 
L 296.033224 185.12324 
L 306.876982 184.715548 
L 321.61337 184.084719 
L 322.447506 184.475633 
L 325.784047 186.416845 
L 328.842542 188.444831 
L 331.622993 190.548419 
L 334.125399 192.827862 
L 336.627805 195.437251 
L 338.57412 197.740769 
L 341.354571 201.471123 
L 343.856976 205.179114 
L 346.637427 209.696325 
L 349.139833 214.107821 
L 349.417878 214.112582 
L 349.695923 213.816419 
L 354.422689 205.093186 
L 359.149456 196.414226 
L 363.042087 189.814863 
L 368.046898 181.388062 
L 371.661484 174.158365 
L 375.83216 165.672986 
L 379.446746 159.369148 
L 384.729602 150.206895 
L 386.397873 147.31509 
L 387.788098 144.420193 
L 388.900279 141.820822 
L 390.568549 140.898549 
L 392.514865 140.087495 
L 395.57336 139.076965 
L 396.407496 138.932438 
L 397.797721 138.913764 
L 399.187946 139.123422 
L 400.022082 139.451472 
L 401.690352 140.502647 
L 403.080577 141.645131 
L 404.192758 142.871956 
L 405.304938 143.813727 
L 406.695163 144.660727 
L 408.085389 145.221808 
L 409.753659 145.628674 
L 410.865839 145.887305 
L 413.0902 146.585574 
L 417.260876 147.832268 
L 422.265688 149.644825 
L 426.436364 151.066509 
L 426.436364 151.066509 
" clip-path="url(#p43ec331943)" style="fill: none; stroke: #ff00ff; stroke-width: 3; stroke-linecap: square"/>
   </g>
   <g id="patch_3">
    <path d="M 7.2 331.2 
L 7.2 7.2 
" style="fill: none; stroke: #000000; stroke-width: 0.8; stroke-linejoin: miter; stroke-linecap: square"/>
   </g>
   <g id="patch_4">
    <path d="M 446.4 331.2 
L 446.4 7.2 
" style="fill: none; stroke: #000000; stroke-width: 0.8; stroke-linejoin: miter; stroke-linecap: square"/>
   </g>
   <g id="patch_5">
    <path d="M 7.2 331.2 
L 446.4 331.2 
" style="fill: none; stroke: #000000; stroke-width: 0.8; stroke-linejoin: miter; stroke-linecap: square"/>
   </g>
   <g id="patch_6">
    <path d="M 7.2 7.2 
L 446.4 7.2 
" style="fill: none; stroke: #000000; stroke-width: 0.8; stroke-linejoin: miter; stroke-linecap: square"/>
   </g>
  </g>
 </g>
 <defs>
  <clipPath id="p43ec331943">
   <rect x="7.2" y="7.2" width="439.2" height="324"/>
  </clipPath>
 </defs>
</svg>
