<?xml version="1.0" encoding="utf-8" standalone="no"?>
<!DOCTYPE svg PUBLIC "-//W3C//DTD SVG 1.1//EN"
  "http://www.w3.org/Graphics/SVG/1.1/DTD/svg11.dtd">
<svg xmlns:xlink="http://www.w3.org/1999/xlink" width="453.6pt" height="338.4pt" viewBox="0 0 453.6 338.4" xmlns="http://www.w3.org/2000/svg" version="1.1">
 <metadata>
  <rdf:RDF xmlns:dc="http://purl.org/dc/elements/1.1/" xmlns:cc="http://creativecommons.org/ns#" xmlns:rdf="http://www.w3.org/1999/02/22-rdf-syntax-ns#">
   <cc:Work>
    <dc:type rdf:resource="http://purl.org/dc/dcmitype/StillImage"/>
    <dc:date>2025-05-15T17:20:41.235566</dc:date>
    <dc:format>image/svg+xml</dc:format>
    <dc:creator>
     <cc:Agent>
      <dc:title>Matplotlib v3.10.1, https://matplotlib.org/</dc:title>
     </cc:Agent>
    </dc:creator>
   </cc:Work>
  </rdf:RDF>
 </metadata>
 <defs>
  <style type="text/css">*{stroke-linejoin: round; stroke-linecap: butt}</style>
 </defs>
 <g id="figure_1">
  <g id="patch_1">
   <path d="M 0 338.4 
L 453.6 338.4 
L 453.6 0 
L 0 0 
z
" style="fill: #ffffff"/>
  </g>
  <g id="axes_1">
   <g id="patch_2">
    <path d="M 7.2 331.2 
L 446.4 331.2 
L 446.4 7.2 
L 7.2 7.2 
z
" style="fill: #ffffff"/>
   </g>
   <g id="matplotlib.axis_1"/>
   <g id="matplotlib.axis_2"/>
   <g id="line2d_1">
    <path d="M 27.163636 22.540904 
L 27.441681 22.062981 
L 27.719727 21.927273 
L 27.997772 22.132585 
L 28.275817 22.674511 
L 28.831907 24.737273 
L 29.387997 28.026061 
L 30.222132 34.982877 
L 31.056267 43.923872 
L 32.446493 61.850385 
L 34.948898 98.225609 
L 37.451304 133.691733 
L 39.119575 154.317228 
L 40.5098 168.818277 
L 41.62198 178.51168 
L 42.734161 186.500681 
L 43.846341 192.750642 
L 44.680476 196.224643 
L 45.236566 197.921426 
L 45.792656 199.099882 
L 46.348747 199.751404 
L 46.626792 199.881531 
L 46.904837 199.884785 
L 47.460927 199.531367 
L 48.017017 198.748462 
L 48.851152 196.956045 
L 51.353558 190.793502 
L 51.909648 190.000917 
L 52.465738 189.590519 
L 53.021828 189.584074 
L 53.577918 189.966507 
L 54.134009 190.68578 
L 54.968144 192.198461 
L 56.358369 194.792934 
L 56.914459 195.412516 
L 57.192504 195.556297 
L 57.47055 195.566676 
L 57.748595 195.428641 
L 58.02664 195.129856 
L 58.58273 194.0125 
L 59.13882 192.171339 
L 59.69491 189.617125 
L 60.529045 184.612404 
L 61.919271 174.393652 
L 63.309496 164.639954 
L 64.143631 160.397668 
L 64.699721 158.590774 
L 65.255812 157.723664 
L 65.533857 157.659908 
L 65.811902 157.845987 
L 66.089947 158.280561 
L 66.646037 159.875696 
L 67.202127 162.381043 
L 68.036262 167.616592 
L 69.148443 176.614321 
L 71.928893 200.758609 
L 72.763029 206.193766 
L 73.597164 210.048532 
L 74.153254 211.630467 
L 74.709344 212.390803 
L 74.987389 212.464402 
L 75.265434 212.338599 
L 75.543479 212.019366 
L 76.09957 210.8343 
L 76.65566 208.994993 
L 77.489795 205.262364 
L 80.826336 188.619167 
L 81.382426 187.203026 
L 81.938516 186.532064 
L 82.216561 186.501195 
L 82.494606 186.68297 
L 82.772651 187.082125 
L 83.328741 188.541572 
L 83.884832 190.880301 
L 84.440922 194.071911 
L 85.275057 200.34022 
L 86.387237 211.01418 
L 88.055508 229.934512 
L 89.723778 248.410982 
L 90.835958 258.39627 
L 91.670094 264.157353 
L 92.504229 268.405508 
L 93.338364 271.249012 
L 93.894454 272.41954 
L 94.450544 273.022319 
L 94.72859 273.106194 
L 95.006635 273.039843 
L 95.28468 272.81853 
L 95.84077 271.891906 
L 96.39686 270.299901 
L 96.95295 268.054499 
L 97.787085 263.643948 
L 99.733401 252.291798 
L 100.289491 250.187912 
L 100.567536 249.529821 
L 100.845581 249.177331 
L 101.123626 249.154905 
L 101.401671 249.479863 
L 101.679716 250.161409 
L 102.235807 252.589141 
L 102.791897 256.342487 
L 103.626032 263.942382 
L 106.128438 289.247601 
L 106.684528 293.056486 
L 107.240618 295.697417 
L 107.796708 297.109275 
L 108.074753 297.358986 
L 108.352798 297.316183 
L 108.630843 296.993954 
L 109.186933 295.577298 
L 109.743024 293.257247 
L 110.577159 288.43708 
L 111.689339 280.330926 
L 115.02588 254.407999 
L 116.13806 247.814443 
L 117.250241 242.635607 
L 120.586781 228.775207 
L 121.698962 222.503191 
L 124.757458 204.043854 
L 125.591593 200.393021 
L 126.425728 197.76671 
L 126.981818 196.567929 
L 127.537908 195.75156 
L 128.093998 195.239597 
L 128.928134 194.838383 
L 130.318359 194.33511 
L 130.874449 193.931857 
L 131.430539 193.305026 
L 131.98663 192.404658 
L 132.820765 190.484977 
L 133.6549 187.905392 
L 135.32317 181.607758 
L 136.435351 177.820702 
L 136.991441 176.453284 
L 137.547531 175.580572 
L 138.103621 175.263213 
L 138.381666 175.318444 
L 138.937756 175.840168 
L 139.493847 176.856022 
L 140.327982 179.086555 
L 142.274297 185.536804 
L 143.942568 190.533329 
L 146.444973 197.794655 
L 148.113244 203.590828 
L 162.015498 254.49624 
L 162.849633 256.452577 
L 163.683768 257.768924 
L 164.517903 258.60809 
L 166.186174 260.063213 
L 167.020309 261.13996 
L 168.688579 263.469834 
L 169.24467 263.850002 
L 169.522715 263.888634 
L 169.80076 263.809269 
L 170.35685 263.267158 
L 170.91294 262.21125 
L 171.747075 259.825961 
L 173.693391 253.584258 
L 174.249481 252.535784 
L 174.805571 252.075881 
L 175.083616 252.078228 
L 175.361661 252.230967 
L 175.917751 252.943753 
L 176.751887 254.7539 
L 178.142112 258.04971 
L 178.698202 258.847834 
L 178.976247 259.048039 
L 179.254292 259.095835 
L 179.532337 258.980885 
L 179.810382 258.697052 
L 180.366473 257.615547 
L 180.922563 255.87171 
L 181.756698 252.170114 
L 182.868878 245.780223 
L 186.761509 221.88017 
L 188.151735 215.131775 
L 190.09805 206.962112 
L 192.044366 199.74259 
L 193.156546 196.508847 
L 193.712636 195.347998 
L 194.268726 194.590093 
L 194.824816 194.299237 
L 195.102861 194.344727 
L 195.380907 194.523207 
L 195.936997 195.286116 
L 196.493087 196.582694 
L 197.327222 199.433056 
L 198.439402 204.42952 
L 200.107673 211.988806 
L 200.663763 213.786639 
L 201.219853 214.9368 
L 201.497898 215.228789 
L 201.775943 215.316762 
L 202.053988 215.193101 
L 202.332033 214.854428 
L 202.888124 213.534683 
L 203.444214 211.39859 
L 204.278349 206.872203 
L 205.390529 199.101776 
L 208.17098 178.516149 
L 209.28316 172.333156 
L 210.117296 169.03471 
L 210.673386 167.54186 
L 211.229476 166.624606 
L 211.785566 166.267338 
L 212.063611 166.287313 
L 212.619701 166.690751 
L 213.175791 167.519908 
L 214.009927 169.378572 
L 215.400152 173.345076 
L 216.790377 177.187425 
L 217.624513 178.944504 
L 218.180603 179.774794 
L 218.736693 180.29763 
L 219.292783 180.508173 
L 219.848873 180.426996 
L 220.404963 180.101276 
L 221.517144 179.030501 
L 222.351279 178.268641 
L 222.907369 177.996443 
L 223.463459 178.042509 
L 224.019549 178.503237 
L 224.575639 179.45552 
L 225.13173 180.954445 
L 225.68782 183.031127 
L 226.521955 187.241514 
L 227.35609 192.705358 
L 228.46827 201.67438 
L 229.858496 214.872612 
L 232.082856 238.392889 
L 237.921803 301.540296 
L 238.755938 308.026768 
L 239.590073 312.820565 
L 240.146164 314.937404 
L 240.702254 316.148305 
L 240.980299 316.41794 
L 241.258344 316.472727 
L 241.536389 316.323974 
L 242.092479 315.479258 
L 242.648569 314.043152 
L 243.76075 310.237562 
L 244.87293 306.719142 
L 245.42902 305.562905 
L 245.98511 304.964987 
L 246.263155 304.885282 
L 246.5412 304.946721 
L 247.09729 305.448048 
L 247.653381 306.336513 
L 249.321651 309.369916 
L 249.877741 309.851515 
L 250.155786 309.913078 
L 250.433831 309.845595 
L 250.989921 309.325796 
L 251.546012 308.346979 
L 252.380147 306.304635 
L 253.770372 302.846758 
L 254.326462 301.896019 
L 254.882553 301.296629 
L 255.438643 301.005299 
L 256.828868 300.654971 
L 257.384958 300.111922 
L 257.941048 299.017249 
L 258.497139 297.216492 
L 259.053229 294.634591 
L 259.887364 289.3594 
L 260.999544 280.451724 
L 262.94586 264.425989 
L 264.05804 256.952781 
L 266.560446 241.513761 
L 267.672626 232.370666 
L 268.784806 220.961741 
L 270.175032 204.204995 
L 274.067663 155.537077 
L 275.457888 140.889199 
L 276.848113 128.448605 
L 277.960294 120.182464 
L 279.072474 113.470663 
L 279.906609 109.502058 
L 280.740744 106.50252 
L 281.296835 105.075465 
L 281.852925 104.135806 
L 282.409015 103.710189 
L 282.68706 103.698492 
L 282.965105 103.825098 
L 283.521195 104.503103 
L 284.077285 105.76076 
L 284.633376 107.605318 
L 285.467511 111.460784 
L 286.301646 116.56114 
L 287.413826 125.093817 
L 288.804052 138.044232 
L 290.472322 156.03065 
L 295.755179 215.667544 
L 297.145404 227.679638 
L 298.257584 235.360196 
L 299.091719 239.892555 
L 299.925855 243.31182 
L 300.481945 244.957738 
L 301.038035 246.098365 
L 301.594125 246.747601 
L 302.150215 246.930735 
L 302.706305 246.682816 
L 303.262396 246.046079 
L 303.818486 245.065604 
L 304.652621 243.046665 
L 305.764801 239.537079 
L 307.155027 234.219858 
L 310.213522 221.924609 
L 311.325703 218.419265 
L 312.437883 215.649772 
L 317.720739 204.197561 
L 318.27683 203.576104 
L 318.554875 203.44192 
L 318.83292 203.445709 
L 319.110965 203.600919 
L 319.38901 203.918978 
L 319.9451 205.076718 
L 320.50119 206.956593 
L 321.05728 209.544724 
L 321.891416 214.594544 
L 323.281641 224.945708 
L 324.671866 235.197903 
L 325.506002 240.149947 
L 326.340137 243.701502 
L 326.896227 245.186321 
L 327.452317 245.934815 
L 327.730362 246.031191 
L 328.008407 245.943176 
L 328.286452 245.671719 
L 328.842542 244.584654 
L 329.398633 242.783918 
L 329.954723 240.287777 
L 330.788858 235.30443 
L 331.901038 226.641482 
L 333.569309 211.072108 
L 334.959534 198.522165 
L 335.793669 192.424531 
L 336.627805 188.014494 
L 337.183895 186.184928 
L 337.739985 185.316355 
L 338.01803 185.251014 
L 338.296075 185.43145 
L 338.57412 185.854925 
L 339.13021 187.40733 
L 339.6863 189.836873 
L 340.520436 194.8737 
L 341.632616 203.313379 
L 343.300886 216.10391 
L 344.135022 220.813101 
L 344.691112 222.838157 
L 344.969157 223.455 
L 345.247202 223.787619 
L 345.525247 223.824851 
L 345.803292 223.559057 
L 346.081337 222.986077 
L 346.637427 220.92072 
L 347.193517 217.669659 
L 348.027653 210.797706 
L 349.139833 198.810653 
L 352.198329 163.356061 
L 353.032464 156.161477 
L 353.866599 150.580439 
L 354.700734 146.490686 
L 355.53487 143.624508 
L 356.369005 141.678818 
L 357.20314 140.403945 
L 358.037275 139.64744 
L 358.593365 139.397111 
L 359.149456 139.344167 
L 359.705546 139.490501 
L 360.261636 139.839161 
L 360.817726 140.393113 
L 361.651861 141.618501 
L 362.485996 143.343722 
L 363.320132 145.627427 
L 364.154267 148.554416 
L 364.988402 152.202819 
L 366.100582 158.207229 
L 367.768853 168.97777 
L 369.715168 181.423636 
L 370.827349 187.278664 
L 372.217574 193.306859 
L 374.16389 201.584265 
L 375.27607 207.467753 
L 376.666295 216.288155 
L 379.168701 232.782115 
L 380.280881 238.594145 
L 381.393062 243.09269 
L 382.783287 247.481001 
L 385.285693 255.047247 
L 386.953963 260.087142 
L 388.066143 262.814935 
L 390.846594 268.850131 
L 391.680729 271.558711 
L 392.79291 276.212589 
L 395.01727 286.121704 
L 395.57336 287.665604 
L 395.851405 288.150199 
L 396.12945 288.409259 
L 396.407496 288.419844 
L 396.685541 288.161175 
L 396.963586 287.615933 
L 397.519676 285.614106 
L 398.075766 282.355817 
L 398.631856 277.861411 
L 399.465991 269.057915 
L 400.856217 250.844974 
L 402.524487 229.333525 
L 403.358622 221.072367 
L 404.192758 215.220572 
L 404.748848 212.676572 
L 405.304938 211.108517 
L 405.861028 210.348057 
L 406.417118 210.18216 
L 406.973208 210.375384 
L 408.085389 210.908414 
L 408.641479 210.843896 
L 409.197569 210.358601 
L 409.753659 209.36888 
L 410.309749 207.850886 
L 411.143885 204.672209 
L 412.53411 197.914383 
L 413.64629 192.680749 
L 414.480425 189.77946 
L 415.036516 188.603619 
L 415.314561 188.280803 
L 415.592606 188.145198 
L 415.870651 188.200614 
L 416.148696 188.447709 
L 416.704786 189.503493 
L 417.260876 191.252355 
L 418.095011 194.916595 
L 420.597417 207.206551 
L 421.153507 208.728849 
L 421.431552 209.172525 
L 421.709597 209.383377 
L 421.987642 209.350902 
L 422.265688 209.070013 
L 422.543733 208.540835 
L 423.099823 206.765963 
L 423.655913 204.136852 
L 424.490048 199.023461 
L 426.436364 186.319071 
L 426.436364 186.319071 
" clip-path="url(#pf85f63f7f1)" style="fill: none; stroke-dasharray: 11.1,4.8; stroke-dashoffset: 0; stroke: #000000; stroke-width: 3"/>
   </g>
   <g id="line2d_2">
    <path d="M 27.163636 184.843354 
L 27.441681 183.573547 
L 27.719727 181.683664 
L 27.997772 177.649491 
L 28.275817 169.104871 
L 28.553862 177.628631 
L 28.831907 177.383244 
L 29.109952 180.555846 
L 29.387997 185.890283 
L 29.666042 184.488186 
L 29.944087 182.216282 
L 30.222132 176.864383 
L 30.500177 168.138378 
L 30.778222 169.238911 
L 31.334312 178.602639 
L 31.612358 180.047507 
L 31.890403 179.818678 
L 32.168448 178.508879 
L 32.446493 172.575618 
L 32.724538 169.273589 
L 33.002583 173.880454 
L 33.280628 182.0412 
L 33.558673 185.124511 
L 33.836718 185.170598 
L 34.392808 183.089735 
L 34.948898 170.454867 
L 35.504989 177.34593 
L 35.783034 183.573136 
L 36.061079 184.170374 
L 36.339124 189.679584 
L 36.617169 182.270174 
L 37.173259 174.443426 
L 37.729349 191.043975 
L 38.007394 190.434112 
L 38.285439 184.988679 
L 38.563484 186.689333 
L 38.84153 180.759326 
L 39.119575 179.894604 
L 39.39762 173.943716 
L 39.675665 181.340193 
L 39.95371 192.863718 
L 40.231755 186.76215 
L 40.5098 185.799859 
L 40.787845 183.878571 
L 41.06589 177.875212 
L 41.343935 177.110243 
L 41.62198 175.520255 
L 42.17807 189.102053 
L 42.456115 188.150655 
L 42.734161 188.38871 
L 43.012206 186.0798 
L 43.568296 179.563139 
L 43.846341 177.333244 
L 44.124386 180.3445 
L 44.402431 187.128582 
L 44.680476 186.009537 
L 44.958521 189.755099 
L 45.236566 188.081936 
L 45.514611 184.055177 
L 46.070701 179.407806 
L 46.626792 191.538804 
L 46.904837 187.339826 
L 47.182882 187.358751 
L 47.460927 186.44164 
L 47.738972 183.553881 
L 48.017017 182.098284 
L 48.295062 183.187202 
L 48.851152 191.698565 
L 49.129197 188.405864 
L 49.407242 194.287602 
L 49.685287 183.681043 
L 49.963332 180.824009 
L 50.241378 179.835626 
L 50.519423 181.202138 
L 50.797468 190.827686 
L 51.353558 198.791151 
L 51.631603 205.402232 
L 51.909648 188.301149 
L 52.187693 182.573386 
L 52.465738 179.830931 
L 52.743783 182.359671 
L 53.299873 196.950073 
L 53.577918 208.119398 
L 53.855964 199.169939 
L 54.134009 183.286398 
L 54.412054 180.806381 
L 54.690099 182.52874 
L 54.968144 187.079139 
L 55.246189 209.314823 
L 55.524234 210.147543 
L 55.802279 195.83179 
L 56.080324 190.784791 
L 56.358369 182.915127 
L 56.636414 180.711447 
L 56.914459 181.108748 
L 57.192504 184.626016 
L 57.47055 199.565572 
L 57.748595 201.815731 
L 58.02664 193.932661 
L 58.304685 193.758608 
L 58.58273 178.985299 
L 58.860775 179.062605 
L 59.13882 179.542876 
L 59.416865 186.244627 
L 59.69491 200.985317 
L 59.972955 202.152015 
L 60.251 198.492244 
L 60.529045 201.577531 
L 60.80709 187.108195 
L 61.085135 182.839715 
L 61.363181 180.611839 
L 61.641226 186.792484 
L 61.919271 200.578502 
L 62.197316 198.966027 
L 62.475361 188.907449 
L 62.753406 195.32374 
L 63.031451 185.595741 
L 63.587541 183.894716 
L 63.865586 190.166135 
L 64.143631 209.244786 
L 64.421676 206.074141 
L 64.699721 187.15698 
L 64.977767 188.250799 
L 65.255812 186.026423 
L 65.533857 185.286001 
L 65.811902 182.335557 
L 66.089947 184.998543 
L 66.367992 203.260578 
L 66.646037 201.924112 
L 66.924082 186.179018 
L 67.202127 183.165435 
L 67.480172 181.437948 
L 67.758217 181.555493 
L 68.036262 182.051414 
L 68.314307 187.708729 
L 68.592352 213.202971 
L 68.870398 209.223596 
L 69.148443 187.736797 
L 69.426488 184.550233 
L 69.704533 183.077832 
L 69.982578 183.629107 
L 70.260623 182.499271 
L 70.538668 195.835332 
L 70.816713 215.215341 
L 71.094758 208.527717 
L 71.372803 188.648553 
L 71.650848 183.746508 
L 71.928893 185.084643 
L 72.206938 182.054009 
L 72.484984 181.92417 
L 73.041074 233.521857 
L 73.319119 225.524043 
L 73.597164 187.5959 
L 73.875209 183.963826 
L 74.153254 183.846075 
L 74.431299 184.582832 
L 74.709344 184.660591 
L 74.987389 200.834761 
L 75.265434 227.869197 
L 75.543479 221.435381 
L 75.821524 195.383768 
L 76.09957 185.477125 
L 76.377615 184.382812 
L 76.65566 181.774624 
L 76.933705 184.983304 
L 77.21175 201.923412 
L 77.489795 228.074756 
L 77.76784 220.943208 
L 78.045885 195.79915 
L 78.32393 187.434718 
L 78.601975 186.229532 
L 78.88002 183.949658 
L 79.158065 186.274796 
L 79.714155 222.033897 
L 80.548291 186.164788 
L 80.826336 184.524142 
L 81.104381 184.207915 
L 81.382426 185.423068 
L 81.938516 226.402006 
L 82.216561 212.452088 
L 82.494606 187.465381 
L 82.772651 185.930604 
L 83.050696 187.51258 
L 83.328741 185.877268 
L 83.606787 186.149487 
L 83.884832 200.505664 
L 84.162877 222.333175 
L 84.440922 209.980699 
L 84.718967 189.145401 
L 85.275057 187.164044 
L 85.553102 183.886603 
L 85.831147 185.958631 
L 86.387237 224.24013 
L 86.943327 186.499939 
L 87.221372 187.902509 
L 87.499418 187.95496 
L 87.777463 184.275584 
L 88.055508 191.642511 
L 88.333553 219.788742 
L 88.611598 225.893749 
L 89.167688 186.593184 
L 89.445733 182.313069 
L 89.723778 183.622538 
L 90.001823 185.668105 
L 90.279868 192.64607 
L 90.557913 232.841835 
L 90.835958 234.753011 
L 91.114004 203.173449 
L 91.392049 187.320695 
L 91.670094 185.318229 
L 91.948139 185.567961 
L 92.226184 185.104844 
L 92.504229 190.674906 
L 92.782274 222.705435 
L 93.060319 228.494133 
L 93.616409 185.608179 
L 93.894454 186.574321 
L 94.172499 185.923644 
L 94.450544 184.436004 
L 94.72859 194.606629 
L 95.006635 222.25002 
L 95.28468 227.117675 
L 95.562725 212.025297 
L 95.84077 188.495176 
L 96.118815 190.396777 
L 96.674905 184.554249 
L 96.95295 189.93432 
L 97.230995 222.469768 
L 97.50904 225.467124 
L 98.06513 186.244936 
L 98.343175 187.4959 
L 98.621221 189.686586 
L 98.899266 188.711671 
L 99.177311 194.482329 
L 99.455356 226.677231 
L 99.733401 229.823248 
L 100.011446 219.616688 
L 100.289491 189.064182 
L 100.845581 187.225884 
L 101.401671 197.046737 
L 101.679716 222.672095 
L 101.957761 223.261879 
L 102.235807 214.862624 
L 102.513852 189.292312 
L 102.791897 189.69402 
L 103.069942 189.768978 
L 103.347987 188.641758 
L 103.626032 194.60284 
L 103.904077 204.055839 
L 104.182122 207.3666 
L 104.460167 195.495794 
L 104.738212 191.457174 
L 105.016257 194.976891 
L 105.294302 196.327835 
L 105.572347 188.24598 
L 105.850393 194.772444 
L 106.128438 207.617691 
L 106.406483 213.124656 
L 106.684528 198.074349 
L 106.962573 190.262202 
L 107.518663 197.745561 
L 107.796708 194.532968 
L 108.074753 197.165971 
L 108.352798 209.588834 
L 108.630843 212.808985 
L 108.908888 205.511787 
L 109.186933 195.023782 
L 109.464978 192.966354 
L 109.743024 196.272893 
L 110.021069 193.652348 
L 110.299114 193.3159 
L 110.577159 208.742152 
L 110.855204 214.004163 
L 111.133249 196.499354 
L 111.411294 193.77428 
L 111.689339 197.024332 
L 111.967384 194.700327 
L 112.245429 194.34901 
L 112.523474 197.723156 
L 112.801519 211.242186 
L 113.079564 215.294275 
L 113.35761 195.164679 
L 113.635655 192.191788 
L 113.9137 196.737718 
L 114.191745 193.494668 
L 114.46979 187.624256 
L 114.747835 194.18058 
L 115.02588 216.192068 
L 115.303925 220.194487 
L 115.860015 191.322907 
L 116.13806 194.718593 
L 116.416105 193.2534 
L 116.69415 190.036255 
L 116.972195 196.006954 
L 117.250241 216.641511 
L 117.528286 224.101951 
L 117.806331 211.922312 
L 118.084376 194.310728 
L 118.362421 193.787706 
L 118.640466 194.75704 
L 118.918511 191.090247 
L 119.196556 194.075123 
L 119.474601 208.747918 
L 119.752646 217.111567 
L 120.030691 204.748671 
L 120.308736 200.860235 
L 120.586781 203.725795 
L 121.142872 192.365717 
L 121.420917 196.213791 
L 121.977007 218.285555 
L 122.255052 202.318468 
L 122.533097 201.151894 
L 122.811142 207.821767 
L 123.089187 200.988797 
L 123.367232 190.395006 
L 123.645277 198.062406 
L 123.923322 215.632721 
L 124.201367 220.593621 
L 124.479413 207.569318 
L 124.757458 205.587157 
L 125.035503 205.17783 
L 125.313548 202.476087 
L 125.591593 193.411657 
L 125.869638 192.80266 
L 126.147683 215.015466 
L 126.425728 225.719532 
L 126.981818 206.111311 
L 127.259863 205.442676 
L 127.537908 209.886238 
L 127.815953 197.516649 
L 128.093998 194.071725 
L 128.372044 213.137815 
L 128.650089 224.219434 
L 128.928134 213.818805 
L 129.206179 208.685027 
L 129.484224 210.92458 
L 129.762269 211.313335 
L 130.040314 197.765392 
L 130.318359 201.391164 
L 130.874449 220.156287 
L 131.152494 210.883023 
L 131.430539 206.778875 
L 131.708584 209.49633 
L 131.98663 202.479897 
L 132.264675 190.942245 
L 132.54272 198.440473 
L 132.820765 218.972765 
L 133.09881 224.279936 
L 133.6549 200.206901 
L 133.932945 206.956037 
L 134.21099 201.608009 
L 134.489035 190.166815 
L 134.76708 192.494197 
L 135.045125 223.306586 
L 135.32317 226.94525 
L 135.601215 218.666093 
L 135.879261 201.99386 
L 136.157306 202.914039 
L 136.435351 198.676057 
L 136.713396 189.662862 
L 136.991441 189.299725 
L 137.269486 211.817061 
L 137.547531 221.6291 
L 137.825576 216.408398 
L 138.103621 213.327456 
L 138.381666 216.747297 
L 138.659711 207.533774 
L 138.937756 190.600051 
L 139.215801 191.553693 
L 139.493847 207.170925 
L 139.771892 212.145869 
L 140.049937 207.198293 
L 140.327982 209.409942 
L 140.606027 216.390935 
L 140.884072 211.429212 
L 141.162117 194.740216 
L 141.440162 197.36595 
L 141.718207 221.675763 
L 141.996252 215.597754 
L 142.274297 214.352865 
L 142.552342 211.486975 
L 142.830387 211.968996 
L 143.108433 209.422854 
L 143.386478 196.530985 
L 143.664523 196.380285 
L 143.942568 228.689458 
L 144.220613 225.536913 
L 144.498658 218.516485 
L 144.776703 216.814204 
L 145.054748 218.832382 
L 145.332793 213.532047 
L 145.610838 198.596506 
L 145.888883 195.332348 
L 146.166928 218.012677 
L 146.444973 216.394312 
L 146.723018 216.984879 
L 147.001064 214.902183 
L 147.279109 217.321472 
L 147.557154 214.651731 
L 147.835199 195.76165 
L 148.113244 198.475872 
L 148.391289 219.079395 
L 148.669334 217.049191 
L 148.947379 217.185785 
L 149.225424 216.497813 
L 149.503469 217.554544 
L 149.781514 211.585616 
L 150.059559 193.328111 
L 150.337604 198.278467 
L 150.61565 222.548846 
L 150.893695 214.732394 
L 151.17174 214.758609 
L 151.449785 216.103786 
L 151.72783 218.156869 
L 152.005875 216.130145 
L 152.28392 200.326629 
L 152.561965 199.291479 
L 152.84001 225.650155 
L 153.118055 225.780158 
L 153.674145 219.449864 
L 153.95219 220.158078 
L 154.230236 217.118487 
L 154.508281 203.029648 
L 154.786326 199.301137 
L 155.064371 212.423216 
L 155.620461 220.24494 
L 155.898506 219.715575 
L 156.176551 221.052289 
L 156.454596 216.521001 
L 156.732641 197.395212 
L 157.010686 197.8344 
L 157.288731 213.535157 
L 157.566776 217.267354 
L 157.844821 218.912757 
L 158.122867 223.295549 
L 158.400912 222.764784 
L 158.678957 217.739387 
L 158.957002 204.210987 
L 159.235047 202.922317 
L 159.513092 213.987133 
L 159.791137 218.076289 
L 160.069182 220.070496 
L 160.347227 220.713843 
L 160.625272 222.350761 
L 161.459407 204.306786 
L 161.737453 215.830784 
L 162.015498 232.307507 
L 162.293543 235.385711 
L 163.127678 217.626146 
L 163.683768 203.543382 
L 163.961813 211.320872 
L 164.239858 222.783318 
L 164.517903 227.040554 
L 164.795948 225.108167 
L 165.073993 224.213215 
L 165.630084 207.047841 
L 165.908129 205.406948 
L 166.186174 213.578238 
L 166.464219 226.181537 
L 166.742264 226.749245 
L 167.020309 226.319407 
L 167.298354 227.051324 
L 167.576399 217.670318 
L 167.854444 202.620609 
L 168.132489 208.28647 
L 168.410534 220.741623 
L 168.688579 226.225832 
L 169.24467 218.613087 
L 169.522715 225.80176 
L 170.078805 208.165074 
L 170.35685 207.06553 
L 170.634895 216.615482 
L 170.91294 230.759592 
L 171.190985 230.431401 
L 171.46903 223.106031 
L 171.747075 227.284602 
L 172.02512 220.293333 
L 172.303165 209.572009 
L 172.58121 207.29333 
L 172.859256 211.756826 
L 173.137301 222.380168 
L 173.415346 226.09066 
L 173.693391 226.537096 
L 173.971436 231.992928 
L 174.527526 213.785342 
L 174.805571 213.84815 
L 175.083616 214.597015 
L 175.361661 222.097714 
L 175.639706 220.754123 
L 175.917751 227.657747 
L 176.195796 230.012395 
L 176.751887 217.555924 
L 177.307977 226.786354 
L 177.586022 232.997209 
L 177.864067 224.008417 
L 178.420157 231.907612 
L 178.698202 228.305604 
L 178.976247 216.195302 
L 179.254292 221.481283 
L 179.532337 238.376868 
L 179.810382 244.437497 
L 180.088427 233.591791 
L 180.366473 229.866617 
L 180.644518 231.397873 
L 180.922563 229.607268 
L 181.200608 223.335973 
L 181.478653 224.158973 
L 182.034743 243.835398 
L 182.590833 231.829214 
L 182.868878 231.700796 
L 183.146923 224.221905 
L 183.424968 221.163944 
L 183.703013 229.992316 
L 183.981058 249.421749 
L 184.259104 253.302813 
L 184.537149 239.161029 
L 184.815194 233.321796 
L 185.093239 232.577276 
L 185.371284 226.395313 
L 185.649329 214.700866 
L 186.205419 240.290104 
L 186.483464 243.118431 
L 186.761509 232.015828 
L 187.039554 228.546069 
L 187.317599 235.252577 
L 187.595644 234.223709 
L 187.87369 223.573575 
L 188.151735 230.367233 
L 188.42978 246.940352 
L 188.707825 247.734192 
L 189.263915 229.81048 
L 189.54196 233.739258 
L 189.820005 232.952398 
L 190.09805 220.710568 
L 190.376095 224.303721 
L 190.65414 237.06293 
L 190.932185 243.224177 
L 191.21023 239.734216 
L 191.488276 234.13209 
L 191.766321 235.075971 
L 192.044366 231.69019 
L 192.322411 216.763442 
L 192.600456 226.128324 
L 192.878501 240.312406 
L 193.156546 245.572543 
L 193.434591 238.646739 
L 193.712636 239.309979 
L 193.990681 238.375921 
L 194.268726 237.02092 
L 194.546771 230.600099 
L 194.824816 233.988083 
L 195.102861 241.193952 
L 195.380907 241.774325 
L 195.658952 235.333261 
L 195.936997 237.867067 
L 196.215042 243.484884 
L 196.493087 245.134344 
L 197.049177 232.312058 
L 197.327222 232.911068 
L 197.605267 238.766323 
L 197.883312 237.050945 
L 198.161357 236.096458 
L 198.439402 242.63153 
L 198.717447 243.672322 
L 198.995493 241.513514 
L 199.551583 215.14654 
L 199.829628 227.110509 
L 200.107673 232.508742 
L 200.385718 235.083508 
L 200.663763 240.213518 
L 200.941808 240.657607 
L 201.219853 233.832421 
L 201.497898 233.857297 
L 201.775943 220.353959 
L 202.053988 228.659722 
L 202.332033 227.956593 
L 202.888124 240.940431 
L 203.166169 240.913619 
L 203.444214 225.217866 
L 203.722259 228.110382 
L 204.000304 217.308684 
L 204.278349 225.092681 
L 204.556394 221.147264 
L 205.112484 239.060597 
L 205.390529 239.20897 
L 205.668574 222.183628 
L 205.946619 215.967749 
L 206.224664 216.357925 
L 206.50271 230.205207 
L 206.780755 226.576552 
L 207.336845 236.386243 
L 207.61489 236.53995 
L 207.892935 223.15115 
L 208.17098 201.073929 
L 208.449025 202.482471 
L 208.72707 212.81333 
L 209.005115 213.971379 
L 209.28316 220.052704 
L 209.561205 231.070217 
L 209.83925 232.40518 
L 210.117296 209.556235 
L 210.395341 212.467862 
L 210.673386 210.543156 
L 210.951431 218.373384 
L 211.229476 211.744511 
L 211.507521 225.753634 
L 211.785566 232.280757 
L 212.063611 232.022006 
L 212.341656 210.594679 
L 212.619701 207.521562 
L 212.897746 214.245122 
L 213.175791 224.264059 
L 213.453836 219.956081 
L 214.009927 235.866084 
L 214.287972 237.133811 
L 214.844062 203.366426 
L 215.122107 209.636136 
L 215.400152 226.421754 
L 215.678197 224.125221 
L 215.956242 228.123644 
L 216.234287 234.809807 
L 216.512332 235.009971 
L 216.790377 225.90419 
L 217.068422 203.123202 
L 217.346467 199.407521 
L 217.624513 220.897388 
L 217.902558 227.96063 
L 218.458648 234.444733 
L 218.736693 233.257319 
L 219.292783 203.131542 
L 219.570828 203.863871 
L 220.404963 230.964781 
L 220.683008 234.54428 
L 220.961053 230.310808 
L 221.239099 199.795494 
L 221.517144 194.031136 
L 221.795189 196.412019 
L 222.073234 210.987821 
L 222.351279 216.559839 
L 222.907369 235.970697 
L 223.185414 234.610528 
L 223.741504 193.474178 
L 224.019549 194.747362 
L 224.297594 209.413073 
L 224.575639 213.21751 
L 225.13173 230.875839 
L 225.409775 230.374235 
L 225.965865 189.572088 
L 226.24391 193.173437 
L 226.8 213.256966 
L 227.078045 227.602455 
L 227.35609 233.007052 
L 227.634135 230.150903 
L 227.91218 195.619497 
L 228.190225 194.553437 
L 228.46827 199.912688 
L 228.746316 203.044846 
L 229.024361 199.474078 
L 229.302406 223.683933 
L 229.580451 232.277462 
L 229.858496 228.369381 
L 230.136541 199.316974 
L 230.414586 192.258366 
L 230.692631 196.408662 
L 230.970676 208.976768 
L 231.248721 211.321654 
L 231.526766 228.039233 
L 231.804811 231.910742 
L 232.082856 230.650119 
L 232.638947 192.045537 
L 232.916992 200.795573 
L 233.195037 221.895017 
L 233.473082 221.811821 
L 234.029172 231.08978 
L 234.307217 230.158646 
L 234.585262 217.959485 
L 234.863307 193.110567 
L 235.141352 191.133863 
L 235.419397 212.327459 
L 235.697442 222.263179 
L 236.253533 231.510187 
L 236.531578 227.389915 
L 236.809623 210.707797 
L 237.087668 201.686221 
L 237.365713 199.761144 
L 237.643758 213.812957 
L 237.921803 218.501432 
L 238.199848 231.129875 
L 238.477893 231.730367 
L 238.755938 225.151083 
L 239.033983 194.934676 
L 239.312028 194.390299 
L 239.590073 196.237452 
L 239.868119 214.744379 
L 240.146164 215.44761 
L 240.424209 216.655761 
L 240.702254 226.713269 
L 240.980299 224.147811 
L 241.258344 197.786974 
L 241.536389 193.148622 
L 241.814434 201.751542 
L 242.092479 222.425329 
L 242.370524 223.472195 
L 242.648569 217.013812 
L 242.926614 225.910141 
L 243.204659 223.971185 
L 243.482704 200.020637 
L 243.76075 192.585053 
L 244.594885 224.4009 
L 244.87293 225.157549 
L 245.150975 224.78465 
L 245.42902 224.647419 
L 245.707065 195.922997 
L 245.98511 194.897135 
L 246.5412 215.755744 
L 246.819245 214.209743 
L 247.09729 220.497925 
L 247.375336 219.2032 
L 247.653381 220.287114 
L 248.209471 199.210363 
L 248.765561 221.857394 
L 249.043606 219.254251 
L 249.321651 207.002701 
L 249.599696 222.702037 
L 249.877741 220.797677 
L 250.155786 203.947397 
L 250.433831 194.959655 
L 250.711876 217.094578 
L 250.989921 229.46532 
L 251.267967 227.098482 
L 251.546012 217.305924 
L 251.824057 224.121329 
L 252.102102 221.670327 
L 252.658192 191.755752 
L 252.936237 197.966916 
L 253.214282 221.928254 
L 253.492327 223.438629 
L 253.770372 222.946085 
L 254.048417 225.598754 
L 254.326462 220.811042 
L 254.604507 201.61915 
L 254.882553 198.875171 
L 255.438643 217.290974 
L 255.994733 210.929934 
L 256.272778 218.226185 
L 256.550823 219.978734 
L 256.828868 197.663601 
L 257.106913 196.790848 
L 257.663003 217.776104 
L 257.941048 205.945002 
L 258.497139 218.873733 
L 258.775184 215.863033 
L 259.053229 197.840454 
L 259.331274 192.270515 
L 259.609319 203.631541 
L 259.887364 220.488514 
L 260.165409 216.8995 
L 260.443454 204.110246 
L 260.721499 216.838607 
L 260.999544 217.291756 
L 261.555634 190.19165 
L 261.833679 191.859891 
L 262.111724 214.048314 
L 262.667815 209.918755 
L 262.94586 216.019787 
L 263.223905 216.274482 
L 263.779995 197.668811 
L 264.05804 199.523975 
L 264.336085 209.806255 
L 264.61413 200.03291 
L 264.892175 207.131448 
L 265.17022 210.653431 
L 265.448265 207.668741 
L 265.72631 201.063879 
L 266.004356 205.261973 
L 266.560446 222.291392 
L 266.838491 222.694912 
L 267.116536 215.19411 
L 267.394581 219.948153 
L 267.672626 218.789569 
L 268.228716 202.18902 
L 268.506761 220.957829 
L 268.784806 230.138815 
L 269.062851 226.118749 
L 269.340896 208.70389 
L 269.618942 219.78761 
L 269.896987 223.200306 
L 270.175032 225.108723 
L 270.453077 201.783276 
L 270.731122 197.836562 
L 271.009167 216.285602 
L 271.287212 209.646206 
L 271.565257 209.938215 
L 271.843302 218.652976 
L 272.121347 221.531283 
L 272.399392 218.735204 
L 272.677437 208.023579 
L 272.955482 208.439538 
L 273.233527 212.856246 
L 273.511573 199.519156 
L 273.789618 198.011808 
L 274.067663 212.457442 
L 274.345708 220.485301 
L 274.623753 208.608441 
L 274.901798 211.275093 
L 275.179843 210.002383 
L 275.457888 216.636075 
L 275.735933 208.558442 
L 276.013978 204.537531 
L 276.292023 221.499899 
L 276.570068 224.142684 
L 276.848113 216.767231 
L 277.126159 193.877698 
L 277.404204 201.163447 
L 277.682249 211.386172 
L 277.960294 199.920431 
L 278.238339 198.326614 
L 278.516384 217.351291 
L 278.794429 224.773015 
L 279.072474 218.682959 
L 279.350519 192.251549 
L 279.628564 194.920611 
L 279.906609 213.893331 
L 280.184654 208.827263 
L 280.462699 206.411084 
L 280.740744 217.690314 
L 281.01879 223.292707 
L 281.296835 218.318298 
L 281.57488 202.716696 
L 281.852925 203.312246 
L 282.13097 212.752251 
L 282.409015 212.534542 
L 282.68706 217.447975 
L 283.24315 223.101006 
L 283.521195 219.27958 
L 283.79924 212.297825 
L 284.077285 211.086194 
L 284.35533 216.855431 
L 284.633376 212.052418 
L 284.911421 216.287291 
L 285.189466 222.395016 
L 285.467511 223.661775 
L 285.745556 218.738231 
L 286.023601 193.769873 
L 286.301646 200.262502 
L 286.579691 213.301055 
L 286.857736 205.583162 
L 287.135781 207.830334 
L 287.413826 223.705144 
L 287.691871 229.835624 
L 287.969916 225.202359 
L 288.247962 193.757991 
L 288.526007 192.509683 
L 288.804052 197.114529 
L 289.082097 197.277132 
L 289.360142 206.272246 
L 289.638187 223.151912 
L 289.916232 228.557642 
L 291.306457 204.402523 
L 291.862547 221.357189 
L 292.140593 222.677573 
L 292.418638 213.652722 
L 292.696683 212.948132 
L 292.974728 209.741634 
L 293.252773 209.957058 
L 293.530818 203.443547 
L 293.808863 208.816966 
L 294.086908 222.67158 
L 294.364953 228.12768 
L 294.642998 219.879846 
L 294.921043 205.753816 
L 295.199088 210.106481 
L 295.477133 210.206666 
L 295.755179 205.273464 
L 296.033224 206.455585 
L 296.311269 221.479924 
L 296.589314 230.368963 
L 296.867359 222.833112 
L 297.145404 203.751166 
L 297.423449 204.595685 
L 297.701494 215.083505 
L 297.979539 210.036238 
L 298.257584 217.196781 
L 298.535629 228.091869 
L 298.813674 228.286658 
L 299.091719 221.613614 
L 299.64781 205.147475 
L 299.925855 209.589163 
L 300.2039 204.872209 
L 300.75999 223.442294 
L 301.038035 224.43912 
L 301.594125 220.146937 
L 301.87217 213.942693 
L 302.150215 217.45232 
L 302.42826 216.33554 
L 303.262396 224.942722 
L 303.540441 220.204536 
L 303.818486 203.441817 
L 304.096531 205.629146 
L 304.374576 217.200921 
L 304.652621 218.217866 
L 304.930666 217.974353 
L 305.208711 220.950045 
L 305.486756 227.831944 
L 305.764801 230.904876 
L 306.042846 212.761621 
L 306.320891 205.508121 
L 306.598936 216.991984 
L 306.876982 220.045373 
L 307.155027 219.250173 
L 307.433072 220.324676 
L 307.711117 222.387335 
L 307.989162 225.351762 
L 308.545252 214.422922 
L 309.101342 218.082528 
L 309.379387 218.750957 
L 309.657432 218.169637 
L 310.213522 226.638887 
L 310.491567 221.601361 
L 310.769613 213.894526 
L 311.047658 217.364244 
L 311.325703 217.879296 
L 311.603748 217.052486 
L 311.881793 217.416674 
L 312.159838 222.471787 
L 312.437883 224.191551 
L 312.715928 211.750648 
L 312.993973 213.774818 
L 313.272018 218.863663 
L 313.550063 218.583907 
L 313.828108 216.26956 
L 314.106153 215.615279 
L 314.384199 222.004428 
L 314.662244 223.830473 
L 314.940289 207.072058 
L 315.218334 211.918975 
L 315.496379 219.500049 
L 315.774424 219.461602 
L 316.052469 218.552729 
L 316.330514 220.531739 
L 316.608559 220.614296 
L 316.886604 222.153418 
L 317.164649 202.784921 
L 317.442694 199.319259 
L 317.998785 205.776778 
L 318.27683 219.768026 
L 318.554875 226.843664 
L 318.83292 225.927625 
L 319.667055 214.425929 
L 319.9451 217.809197 
L 320.223145 217.709156 
L 320.50119 225.032549 
L 320.779235 228.850557 
L 321.05728 225.345007 
L 321.335325 214.789313 
L 321.61337 195.729608 
L 322.169461 219.935015 
L 322.447506 217.752999 
L 322.725551 217.489614 
L 323.003596 223.794991 
L 323.281641 216.52166 
L 323.559686 215.370551 
L 323.837731 189.16655 
L 324.115776 198.133534 
L 324.393821 215.273908 
L 324.671866 217.912615 
L 324.949911 224.398964 
L 325.227956 224.507489 
L 325.506002 212.942716 
L 325.784047 209.387702 
L 326.062092 186.304264 
L 326.618182 211.443977 
L 326.896227 215.651872 
L 327.174272 226.319881 
L 327.452317 224.932364 
L 328.008407 206.775107 
L 328.286452 186.691763 
L 328.842542 214.898127 
L 329.120587 219.595765 
L 329.398633 227.711392 
L 329.676678 228.3784 
L 329.954723 223.754752 
L 330.232768 209.904978 
L 330.510813 190.438457 
L 330.788858 200.99792 
L 331.066903 219.560819 
L 331.901038 223.754237 
L 332.179083 214.216045 
L 332.457128 209.058317 
L 332.735173 188.59427 
L 333.013219 198.94216 
L 333.291264 223.332987 
L 333.569309 223.903331 
L 334.125399 228.649075 
L 334.403444 224.60545 
L 334.681489 199.42103 
L 334.959534 186.543267 
L 336.349759 228.595451 
L 336.627805 229.311594 
L 336.90585 200.676422 
L 337.183895 194.622053 
L 337.46194 207.151506 
L 338.296075 222.629508 
L 338.57412 221.301712 
L 338.852165 222.619191 
L 339.13021 204.07983 
L 339.408255 193.635483 
L 339.964345 216.535169 
L 340.24239 218.344719 
L 340.520436 219.303777 
L 340.798481 225.199023 
L 341.354571 192.436125 
L 341.632616 189.078412 
L 341.910661 201.253809 
L 342.188706 221.375702 
L 342.466751 223.156628 
L 342.744796 223.869641 
L 343.022841 221.931817 
L 343.300886 217.48253 
L 343.578931 196.937038 
L 343.856976 196.777422 
L 344.691112 222.5056 
L 345.247202 221.966454 
L 345.525247 222.958029 
L 345.803292 193.063779 
L 346.081337 193.992216 
L 346.637427 219.783182 
L 346.915472 223.565173 
L 347.471562 221.862027 
L 347.749607 223.749336 
L 348.027653 199.1415 
L 348.305698 197.855899 
L 348.861788 223.823636 
L 349.139833 224.256975 
L 349.417878 222.171273 
L 349.695923 221.906261 
L 350.252013 200.331777 
L 350.530058 195.995175 
L 351.364193 223.595115 
L 351.642239 223.489864 
L 351.920284 225.576576 
L 352.198329 217.155987 
L 352.476374 197.084319 
L 353.032464 205.77826 
L 353.310509 208.188076 
L 353.588554 215.556074 
L 353.866599 217.66136 
L 354.144644 217.020732 
L 354.422689 215.673433 
L 354.700734 199.557871 
L 355.812915 219.048176 
L 356.09096 219.692841 
L 356.369005 223.637599 
L 356.64705 223.598431 
L 356.925095 203.800259 
L 357.20314 202.751107 
L 357.481185 207.665714 
L 357.75923 218.007405 
L 358.037275 220.083737 
L 358.31532 219.291853 
L 358.593365 222.066681 
L 358.87141 220.368992 
L 359.427501 200.469977 
L 359.705546 201.448598 
L 359.983591 217.811236 
L 360.261636 221.229698 
L 360.817726 223.736116 
L 361.095771 223.048391 
L 361.373816 207.898909 
L 361.651861 204.161749 
L 361.929906 206.768743 
L 362.207951 214.332931 
L 362.485996 216.705905 
L 362.764042 220.143787 
L 363.042087 220.767323 
L 363.320132 222.226647 
L 363.598177 202.082616 
L 363.876222 204.573898 
L 364.432312 213.856614 
L 364.710357 219.864875 
L 364.988402 222.896785 
L 365.266447 224.607015 
L 365.544492 229.393513 
L 366.100582 205.174391 
L 366.378628 207.68919 
L 366.656673 218.274126 
L 366.934718 218.770088 
L 367.212763 220.69743 
L 367.768853 227.505936 
L 368.324943 201.930887 
L 368.602988 200.865445 
L 368.881033 211.008846 
L 369.715168 227.131163 
L 369.993213 227.127292 
L 370.271259 211.859256 
L 370.549304 204.540208 
L 370.827349 201.971929 
L 371.105394 201.480332 
L 371.383439 206.146319 
L 371.661484 220.681429 
L 371.939529 225.106581 
L 372.217574 223.993837 
L 372.495619 213.763101 
L 372.773664 208.117545 
L 373.051709 205.059028 
L 373.329754 205.806699 
L 373.607799 205.127438 
L 373.885845 219.830464 
L 374.16389 226.099885 
L 374.441935 225.080531 
L 374.71998 211.682732 
L 374.998025 205.775151 
L 375.27607 208.652037 
L 375.554115 217.213606 
L 375.83216 216.250903 
L 376.110205 218.577996 
L 376.38825 223.731585 
L 376.666295 224.232881 
L 377.222385 204.847044 
L 377.50043 199.059787 
L 378.334566 221.899321 
L 378.612611 225.749598 
L 378.890656 226.875831 
L 379.168701 213.47101 
L 379.724791 202.962762 
L 380.002836 197.784194 
L 380.280881 202.278435 
L 380.558926 219.275523 
L 380.836971 224.778267 
L 381.115016 224.683374 
L 381.393062 211.295522 
L 382.227197 199.223914 
L 382.505242 203.340706 
L 383.061332 225.372252 
L 383.339377 225.995767 
L 383.617422 212.753487 
L 384.173512 200.194071 
L 384.451557 203.642991 
L 385.285693 222.273393 
L 385.563738 220.350726 
L 385.841783 216.241924 
L 386.397873 192.90754 
L 386.675918 195.84602 
L 386.953963 205.327253 
L 387.232008 221.012792 
L 387.510053 227.51407 
L 387.788098 220.051056 
L 388.066143 215.817893 
L 388.344188 208.066701 
L 388.622233 195.20082 
L 388.900279 190.356168 
L 389.178324 195.132966 
L 389.456369 217.53704 
L 389.734414 222.192319 
L 390.012459 215.658153 
L 390.568549 211.330901 
L 390.846594 195.110293 
L 391.124639 193.118392 
L 391.402684 201.456753 
L 391.680729 214.455006 
L 391.958774 220.81238 
L 392.514865 213.408839 
L 392.79291 201.413775 
L 393.070955 198.942757 
L 393.349 206.229577 
L 393.627045 207.092136 
L 394.183135 213.323172 
L 394.46118 214.763654 
L 394.739225 213.353156 
L 395.295315 190.642205 
L 395.57336 199.068766 
L 396.12945 221.024118 
L 396.407496 218.902645 
L 396.685541 213.536413 
L 396.963586 211.564075 
L 397.241631 206.398419 
L 397.519676 192.864315 
L 397.797721 191.806802 
L 398.353811 217.760351 
L 398.909901 211.923877 
L 399.465991 204.547457 
L 400.022082 196.443671 
L 400.578172 216.419148 
L 401.134262 220.73944 
L 401.412307 216.042954 
L 401.968397 194.681958 
L 402.246442 200.772982 
L 402.524487 210.939798 
L 402.802532 213.269445 
L 403.080577 213.983199 
L 403.358622 219.136479 
L 403.636668 216.490132 
L 403.914713 197.664178 
L 404.192758 189.363996 
L 404.470803 195.167912 
L 404.748848 207.348622 
L 405.026893 211.907855 
L 405.304938 213.519774 
L 405.582983 215.884368 
L 405.861028 216.422978 
L 406.417118 190.834647 
L 406.695163 191.182401 
L 407.251253 210.889016 
L 407.529299 210.766343 
L 408.085389 218.8448 
L 408.363434 212.296507 
L 408.641479 200.526463 
L 409.197569 210.750466 
L 409.475614 210.013071 
L 409.753659 208.452429 
L 410.031704 212.882214 
L 410.309749 213.186043 
L 410.587794 193.310669 
L 410.865839 193.739766 
L 411.143885 206.621318 
L 411.42193 210.459651 
L 411.699975 207.44646 
L 411.97802 207.669256 
L 412.256065 216.213403 
L 412.53411 216.83282 
L 412.812155 195.86997 
L 413.0902 189.996428 
L 413.64629 210.619906 
L 413.924335 209.487413 
L 414.20238 206.93217 
L 414.480425 210.611731 
L 414.75847 210.795132 
L 415.314561 191.030754 
L 415.592606 194.827057 
L 415.870651 206.407624 
L 416.148696 207.881261 
L 416.426741 204.869943 
L 416.704786 210.28947 
L 416.982831 213.443806 
L 417.538921 190.650771 
L 418.095011 208.626234 
L 418.651102 209.724398 
L 418.929147 216.151418 
L 419.207192 211.4552 
L 419.485237 191.530588 
L 419.763282 188.72137 
L 420.319372 209.300285 
L 420.597417 205.001038 
L 420.875462 208.958955 
L 421.153507 215.522013 
L 421.431552 214.406283 
L 421.709597 193.37529 
L 421.987642 187.830887 
L 422.543733 210.160126 
L 422.821778 207.975659 
L 423.099823 208.618862 
L 423.377868 215.922053 
L 423.655913 215.479529 
L 424.212003 192.340305 
L 424.490048 194.810212 
L 424.768093 204.862118 
L 425.046138 206.610445 
L 425.324183 204.785615 
L 425.602228 214.955334 
L 425.880273 212.673668 
L 426.436364 197.241938 
L 426.436364 197.241938 
" clip-path="url(#pf85f63f7f1)" style="fill: none; stroke: #ff00ff; stroke-width: 3; stroke-linecap: square"/>
   </g>
   <g id="patch_3">
    <path d="M 7.2 331.2 
L 7.2 7.2 
" style="fill: none; stroke: #000000; stroke-width: 0.8; stroke-linejoin: miter; stroke-linecap: square"/>
   </g>
   <g id="patch_4">
    <path d="M 446.4 331.2 
L 446.4 7.2 
" style="fill: none; stroke: #000000; stroke-width: 0.8; stroke-linejoin: miter; stroke-linecap: square"/>
   </g>
   <g id="patch_5">
    <path d="M 7.2 331.2 
L 446.4 331.2 
" style="fill: none; stroke: #000000; stroke-width: 0.8; stroke-linejoin: miter; stroke-linecap: square"/>
   </g>
   <g id="patch_6">
    <path d="M 7.2 7.2 
L 446.4 7.2 
" style="fill: none; stroke: #000000; stroke-width: 0.8; stroke-linejoin: miter; stroke-linecap: square"/>
   </g>
  </g>
 </g>
 <defs>
  <clipPath id="pf85f63f7f1">
   <rect x="7.2" y="7.2" width="439.2" height="324"/>
  </clipPath>
 </defs>
</svg>
