<?xml version="1.0" encoding="utf-8" standalone="no"?>
<!DOCTYPE svg PUBLIC "-//W3C//DTD SVG 1.1//EN"
  "http://www.w3.org/Graphics/SVG/1.1/DTD/svg11.dtd">
<svg xmlns:xlink="http://www.w3.org/1999/xlink" width="453.6pt" height="338.4pt" viewBox="0 0 453.6 338.4" xmlns="http://www.w3.org/2000/svg" version="1.1">
 <metadata>
  <rdf:RDF xmlns:dc="http://purl.org/dc/elements/1.1/" xmlns:cc="http://creativecommons.org/ns#" xmlns:rdf="http://www.w3.org/1999/02/22-rdf-syntax-ns#">
   <cc:Work>
    <dc:type rdf:resource="http://purl.org/dc/dcmitype/StillImage"/>
    <dc:date>2025-05-15T17:49:34.596625</dc:date>
    <dc:format>image/svg+xml</dc:format>
    <dc:creator>
     <cc:Agent>
      <dc:title>Matplotlib v3.10.1, https://matplotlib.org/</dc:title>
     </cc:Agent>
    </dc:creator>
   </cc:Work>
  </rdf:RDF>
 </metadata>
 <defs>
  <style type="text/css">*{stroke-linejoin: round; stroke-linecap: butt}</style>
 </defs>
 <g id="figure_1">
  <g id="patch_1">
   <path d="M 0 338.4 
L 453.6 338.4 
L 453.6 0 
L 0 0 
z
" style="fill: #ffffff"/>
  </g>
  <g id="axes_1">
   <g id="patch_2">
    <path d="M 7.2 331.2 
L 446.4 331.2 
L 446.4 7.2 
L 7.2 7.2 
z
" style="fill: #ffffff"/>
   </g>
   <g id="matplotlib.axis_1"/>
   <g id="matplotlib.axis_2"/>
   <g id="line2d_1">
    <path d="M 27.163636 276.3941 
L 27.719727 281.418617 
L 28.275817 284.858173 
L 28.553862 285.857455 
L 28.831907 286.318886 
L 29.109952 286.206782 
L 29.387997 285.492431 
L 29.666042 284.15467 
L 30.222132 279.563876 
L 30.778222 272.425819 
L 31.612358 257.233728 
L 32.446493 237.466964 
L 33.836718 197.90854 
L 36.339124 124.810073 
L 37.451304 98.406463 
L 38.285439 82.801569 
L 39.119575 71.413016 
L 39.675665 66.343798 
L 40.231755 63.349916 
L 40.5098 62.628814 
L 40.787845 62.415806 
L 41.06589 62.699089 
L 41.343935 63.462904 
L 41.900025 66.351265 
L 42.456115 70.885964 
L 43.290251 80.248804 
L 44.402431 96.114799 
L 48.573107 160.181464 
L 49.407242 169.542364 
L 50.241378 176.563506 
L 50.797468 179.766565 
L 51.353558 181.744427 
L 51.631603 182.287041 
L 51.909648 182.550276 
L 52.187693 182.555173 
L 52.465738 182.328009 
L 53.021828 181.304619 
L 53.855964 178.89604 
L 55.246189 174.827232 
L 56.080324 173.146785 
L 57.47055 170.639253 
L 58.02664 169.034245 
L 58.58273 166.749563 
L 59.416865 161.888164 
L 60.529045 153.375342 
L 61.919271 142.81957 
L 62.753406 138.301257 
L 63.309496 136.28507 
L 63.865586 134.945406 
L 64.699721 133.679726 
L 65.533857 132.478672 
L 66.089947 131.369154 
L 66.924082 129.14711 
L 68.036262 126.029429 
L 68.592352 125.047128 
L 68.870398 124.827115 
L 69.148443 124.822945 
L 69.426488 125.050158 
L 69.704533 125.513916 
L 70.260623 127.117154 
L 71.094758 130.809134 
L 72.484984 137.378444 
L 73.041074 139.061679 
L 73.597164 139.877855 
L 73.875209 139.962239 
L 74.153254 139.855602 
L 74.709344 139.209162 
L 75.821524 137.527649 
L 76.09957 137.326302 
L 76.377615 137.301672 
L 76.65566 137.48416 
L 76.933705 137.893084 
L 77.489795 139.405007 
L 78.045885 141.744862 
L 80.270246 152.788075 
L 80.826336 154.195203 
L 81.104381 154.565293 
L 81.382426 154.723903 
L 81.660471 154.693117 
L 82.216561 154.195785 
L 83.606787 152.452068 
L 83.884832 152.365164 
L 84.162877 152.44242 
L 84.440922 152.701195 
L 84.997012 153.78383 
L 85.553102 155.562914 
L 86.387237 159.125373 
L 87.777463 165.128555 
L 88.333553 166.771525 
L 88.889643 167.698726 
L 89.167688 167.862426 
L 89.445733 167.81758 
L 89.723778 167.561933 
L 90.279868 166.423616 
L 90.835958 164.478334 
L 91.392049 161.783079 
L 92.226184 156.506963 
L 93.338364 147.738153 
L 95.562725 129.347246 
L 96.39686 124.5321 
L 96.95295 122.623446 
L 97.230995 122.137459 
L 97.50904 121.990388 
L 97.787085 122.196535 
L 98.06513 122.764481 
L 98.621221 124.992827 
L 99.177311 128.622556 
L 100.011446 136.31462 
L 101.401671 152.448941 
L 102.513852 164.458238 
L 103.069942 168.934856 
L 103.626032 171.904667 
L 103.904077 172.742612 
L 104.182122 173.119295 
L 104.460167 173.021603 
L 104.738212 172.443597 
L 105.016257 171.386245 
L 105.572347 167.870475 
L 106.128438 162.607182 
L 106.962573 151.915805 
L 108.074753 133.961602 
L 110.577159 91.332015 
L 111.411294 80.658504 
L 111.967384 75.497824 
L 112.523474 72.223035 
L 112.801519 71.362764 
L 113.079564 71.049107 
L 113.35761 71.298137 
L 113.635655 72.120471 
L 113.9137 73.521562 
L 114.46979 78.055244 
L 115.02588 84.834895 
L 115.860015 98.871239 
L 116.972195 123.460179 
L 118.918511 174.689639 
L 120.308736 209.71026 
L 121.420917 232.560574 
L 122.255052 245.546427 
L 123.089187 254.765904 
L 123.645277 258.957458 
L 124.201367 261.796609 
L 124.757458 263.524883 
L 125.313548 264.405759 
L 125.869638 264.691417 
L 126.425728 264.592089 
L 126.981818 264.249816 
L 127.815953 263.381109 
L 128.372044 262.48501 
L 128.928134 261.165526 
L 129.484224 259.209021 
L 130.040314 256.368706 
L 130.596404 252.392887 
L 131.152494 247.051562 
L 131.98663 236.093629 
L 132.820765 221.328571 
L 133.6549 202.829984 
L 134.76708 173.288038 
L 138.659711 63.039387 
L 139.493847 46.668981 
L 140.049937 38.468336 
L 140.606027 32.673532 
L 141.162117 29.41862 
L 141.440162 28.768375 
L 141.718207 28.775066 
L 141.996252 29.437674 
L 142.274297 30.751497 
L 142.830387 35.295845 
L 143.386478 42.299606 
L 144.220613 57.054458 
L 145.054748 76.258512 
L 146.166928 107.257643 
L 148.113244 169.611161 
L 150.059559 230.685592 
L 151.17174 260.201564 
L 152.28392 283.752654 
L 153.118055 297.084404 
L 153.95219 306.737725 
L 154.508281 311.245045 
L 155.064371 314.316111 
L 155.620461 316.037307 
L 155.898506 316.412912 
L 156.176551 316.472727 
L 156.454596 316.219346 
L 156.732641 315.653121 
L 157.288731 313.571204 
L 157.844821 310.18356 
L 158.400912 305.419127 
L 159.235047 295.504352 
L 160.069182 282.035797 
L 160.903317 264.876171 
L 162.015498 236.439308 
L 163.405723 193.482804 
L 167.298354 66.841324 
L 168.132489 47.250963 
L 168.966624 32.867897 
L 169.522715 26.508079 
L 170.078805 22.855419 
L 170.35685 22.052745 
L 170.634895 21.927273 
L 170.91294 22.46979 
L 171.190985 23.666432 
L 171.747075 27.947326 
L 172.303165 34.588972 
L 173.137301 48.47393 
L 173.971436 66.262081 
L 175.361661 101.858891 
L 178.420157 183.626779 
L 179.532337 206.293442 
L 180.366473 218.833718 
L 180.922563 224.935609 
L 181.478653 229.312499 
L 182.034743 232.141687 
L 182.590833 233.668517 
L 182.868878 234.029396 
L 183.146923 234.167401 
L 183.424968 234.113755 
L 183.703013 233.895827 
L 184.259104 233.049495 
L 184.815194 231.728811 
L 185.371284 229.923837 
L 185.927374 227.521755 
L 186.483464 224.337507 
L 187.039554 220.161043 
L 187.87369 211.664947 
L 188.707825 200.326791 
L 189.820005 181.538522 
L 192.878501 127.030856 
L 194.268726 107.265837 
L 195.658952 90.581532 
L 196.493087 82.568854 
L 197.049177 78.600864 
L 197.605267 76.12024 
L 197.883312 75.530089 
L 198.161357 75.409465 
L 198.439402 75.772864 
L 198.717447 76.623463 
L 199.273538 79.731739 
L 199.829628 84.494355 
L 200.941808 97.116202 
L 202.332033 112.728174 
L 203.166169 119.401309 
L 204.000304 123.806998 
L 206.224664 133.112991 
L 207.0588 138.627228 
L 209.005115 152.666239 
L 209.561205 155.14582 
L 210.117296 156.410701 
L 210.395341 156.582304 
L 210.673386 156.471667 
L 210.951431 156.113528 
L 211.507521 154.843339 
L 212.897746 151.112937 
L 213.175791 150.701904 
L 213.453836 150.490666 
L 213.731881 150.495369 
L 214.009927 150.719139 
L 214.566017 151.776976 
L 215.400152 154.454389 
L 216.512332 158.303525 
L 217.068422 159.628984 
L 217.624513 160.304052 
L 217.902558 160.387029 
L 218.180603 160.311494 
L 218.736693 159.760977 
L 219.570828 158.327232 
L 220.683008 156.391914 
L 221.517144 155.470143 
L 222.629324 154.784288 
L 223.463459 154.131594 
L 224.019549 153.413134 
L 224.853684 151.850184 
L 226.521955 148.414676 
L 227.078045 147.899357 
L 227.35609 147.87068 
L 227.634135 148.017727 
L 227.91218 148.351285 
L 228.46827 149.593888 
L 229.024361 151.573568 
L 229.858496 155.662933 
L 232.082856 167.939901 
L 232.638947 169.985881 
L 233.195037 171.185189 
L 233.473082 171.41628 
L 233.751127 171.380306 
L 234.029172 171.064977 
L 234.307217 170.461662 
L 234.863307 168.375345 
L 235.419397 165.130519 
L 236.253533 158.28115 
L 237.365713 146.408792 
L 239.312028 124.614132 
L 240.146164 117.790798 
L 240.702254 114.810079 
L 241.258344 113.311417 
L 241.536389 113.155449 
L 241.814434 113.405133 
L 242.092479 114.061681 
L 242.648569 116.575079 
L 243.204659 120.606241 
L 244.038795 129.122966 
L 245.150975 143.729414 
L 247.09729 170.530216 
L 247.931426 179.336357 
L 248.487516 183.581254 
L 249.043606 186.34133 
L 249.321651 187.147882 
L 249.599696 187.577411 
L 249.877741 187.642038 
L 250.155786 187.360938 
L 250.433831 186.758908 
L 250.989921 184.717874 
L 251.824057 180.136534 
L 253.770372 168.251012 
L 254.326462 165.896709 
L 254.882553 164.383842 
L 255.160598 163.974578 
L 255.438643 163.804381 
L 255.716688 163.873056 
L 255.994733 164.176386 
L 256.550823 165.448102 
L 257.106913 167.50596 
L 257.941048 171.697187 
L 260.443454 185.508815 
L 260.999544 187.531329 
L 261.555634 188.837371 
L 261.833679 189.188795 
L 262.111724 189.324594 
L 262.38977 189.235484 
L 262.667815 188.913561 
L 263.223905 187.546601 
L 263.779995 185.189728 
L 264.336085 181.840228 
L 265.17022 175.05648 
L 266.282401 163.388087 
L 268.506761 138.536009 
L 269.340896 131.936058 
L 269.896987 129.103573 
L 270.175032 128.222188 
L 270.453077 127.714821 
L 270.731122 127.588403 
L 271.009167 127.845068 
L 271.287212 128.48232 
L 271.843302 130.866707 
L 272.399392 134.637834 
L 273.233527 142.526931 
L 274.345708 155.99448 
L 276.570068 184.285363 
L 277.404204 192.338936 
L 277.960294 196.338318 
L 278.516384 199.128502 
L 279.072474 200.702093 
L 279.350519 201.051603 
L 279.628564 201.128811 
L 279.906609 200.95299 
L 280.184654 200.546829 
L 280.740744 199.148476 
L 281.57488 196.029437 
L 283.24315 189.199437 
L 283.79924 187.576054 
L 284.35533 186.559524 
L 284.633376 186.308871 
L 284.911421 186.23828 
L 285.189466 186.348699 
L 285.467511 186.63712 
L 286.023601 187.714374 
L 286.579691 189.364204 
L 287.691871 193.682843 
L 288.804052 197.827938 
L 289.360142 199.208813 
L 289.638187 199.621713 
L 289.916232 199.814503 
L 290.194277 199.763911 
L 290.472322 199.449915 
L 290.750367 198.855594 
L 291.306457 196.777277 
L 291.862547 193.471823 
L 292.418638 188.949656 
L 293.252773 180.078355 
L 294.364953 165.288935 
L 296.867359 130.425057 
L 297.701494 121.919458 
L 298.257584 117.82893 
L 298.813674 115.173624 
L 299.091719 114.411312 
L 299.369764 114.032786 
L 299.64781 114.038628 
L 299.925855 114.425517 
L 300.2039 115.186787 
L 300.75999 117.786968 
L 301.31608 121.714208 
L 302.150215 129.69244 
L 303.262396 142.943055 
L 305.208711 166.736424 
L 306.042846 174.697687 
L 306.876982 180.309592 
L 307.433072 182.572651 
L 307.711117 183.247162 
L 307.989162 183.619603 
L 308.267207 183.696133 
L 308.545252 183.486495 
L 308.823297 183.003853 
L 309.379387 181.287723 
L 309.935477 178.714862 
L 310.769613 173.725252 
L 312.715928 161.416552 
L 313.550063 157.85116 
L 314.106153 156.408762 
L 314.662244 155.704507 
L 314.940289 155.596755 
L 315.496379 155.761789 
L 316.330514 156.5433 
L 317.164649 157.279141 
L 317.720739 157.440514 
L 318.27683 157.232356 
L 318.83292 156.6607 
L 319.667055 155.31386 
L 321.335325 152.418737 
L 323.281641 149.622808 
L 323.837731 148.323166 
L 324.393821 146.534652 
L 325.227956 142.874864 
L 327.730362 130.398173 
L 328.286452 128.994197 
L 328.564497 128.604254 
L 328.842542 128.416263 
L 329.120587 128.413985 
L 329.398633 128.57274 
L 329.954723 129.242087 
L 331.066903 130.901663 
L 331.622993 131.328283 
L 331.901038 131.36256 
L 332.179083 131.270807 
L 332.735173 130.746689 
L 334.403444 128.40327 
L 334.681489 128.259229 
L 334.959534 128.262065 
L 335.237579 128.424578 
L 335.793669 129.231809 
L 336.349759 130.584612 
L 338.01803 135.126318 
L 338.57412 135.726675 
L 338.852165 135.731911 
L 339.13021 135.536236 
L 339.6863 134.601036 
L 340.520436 132.343528 
L 341.354571 130.247999 
L 341.632616 129.834372 
L 341.910661 129.637946 
L 342.188706 129.690428 
L 342.466751 130.011187 
L 342.744796 130.606744 
L 343.300886 132.581503 
L 344.135022 137.029905 
L 345.525247 144.985253 
L 346.081337 147.163298 
L 346.637427 148.420736 
L 346.915472 148.704261 
L 347.193517 148.781421 
L 347.471562 148.68259 
L 348.027653 148.114861 
L 349.139833 146.74332 
L 349.695923 146.550069 
L 349.973968 146.653967 
L 350.530058 147.261257 
L 351.364193 148.880761 
L 352.198329 150.539609 
L 352.754419 151.160547 
L 353.032464 151.233513 
L 353.310509 151.123894 
L 353.588554 150.824685 
L 354.144644 149.679314 
L 354.978779 146.912305 
L 356.09096 142.844151 
L 356.64705 141.442841 
L 356.925095 141.036923 
L 357.20314 140.864519 
L 357.481185 140.943982 
L 357.75923 141.285322 
L 358.31532 142.752059 
L 358.87141 145.181121 
L 359.705546 150.172913 
L 361.651861 162.599303 
L 362.207951 164.856036 
L 362.764042 166.027151 
L 363.042087 166.143897 
L 363.320132 165.923908 
L 363.598177 165.353877 
L 364.154267 163.135349 
L 364.710357 159.477234 
L 365.266447 154.444402 
L 366.100582 144.645949 
L 367.490808 124.430844 
L 369.159078 100.423983 
L 369.993213 91.399987 
L 370.549304 87.173053 
L 371.105394 84.600216 
L 371.383439 83.968151 
L 371.661484 83.779943 
L 371.939529 84.03513 
L 372.217574 84.728161 
L 372.773664 87.383612 
L 373.329754 91.617527 
L 374.16389 100.51593 
L 375.27607 115.888181 
L 378.612611 165.799502 
L 379.446746 174.851812 
L 380.280881 181.484271 
L 380.836971 184.545543 
L 381.393062 186.622285 
L 381.949152 187.893953 
L 382.505242 188.610352 
L 383.617422 189.612264 
L 384.173512 190.544604 
L 384.729602 192.145613 
L 385.285693 194.608734 
L 385.841783 198.01605 
L 386.675918 204.75117 
L 388.900279 224.873819 
L 389.456369 227.835048 
L 389.734414 228.653139 
L 390.012459 228.956324 
L 390.290504 228.698058 
L 390.568549 227.839508 
L 390.846594 226.350809 
L 391.402684 221.410118 
L 391.958774 213.829369 
L 392.79291 197.788474 
L 393.627045 177.044329 
L 395.295315 127.727814 
L 396.963586 80.036208 
L 397.797721 60.841148 
L 398.631856 46.268953 
L 399.187946 39.458491 
L 399.744036 35.095128 
L 400.022082 33.841811 
L 400.300127 33.205722 
L 400.578172 33.180463 
L 400.856217 33.757209 
L 401.134262 34.923549 
L 401.690352 38.962662 
L 402.246442 45.147459 
L 403.080577 58.027135 
L 403.914713 74.529583 
L 405.304938 107.541532 
L 408.641479 189.964755 
L 409.753659 212.094695 
L 410.865839 230.100144 
L 411.97802 243.957224 
L 412.812155 251.811341 
L 413.64629 257.669294 
L 414.20238 260.511536 
L 414.75847 262.492064 
L 415.314561 263.557997 
L 415.592606 263.720704 
L 415.870651 263.617715 
L 416.148696 263.232426 
L 416.426741 262.547225 
L 416.982831 260.203139 
L 417.538921 256.44 
L 418.095011 251.129752 
L 418.929147 240.076236 
L 419.763282 225.271883 
L 420.875462 200.222676 
L 422.265688 162.911118 
L 424.490048 102.206728 
L 425.602228 77.60654 
L 426.436364 63.475558 
L 426.436364 63.475558 
" clip-path="url(#pe3f2feedec)" style="fill: none; stroke-dasharray: 11.1,4.8; stroke-dashoffset: 0; stroke: #000000; stroke-width: 3"/>
   </g>
   <g id="line2d_2">
    <path d="M 27.163636 165.362555 
L 29.109952 164.948273 
L 32.724538 164.209402 
L 34.948898 163.20669 
L 36.895214 162.527404 
L 39.675665 162.67256 
L 41.900025 162.589098 
L 43.846341 162.320142 
L 46.626792 161.872771 
L 48.295062 161.586556 
L 50.241378 160.975726 
L 51.909648 160.222602 
L 53.021828 159.587774 
L 53.855964 163.246034 
L 54.412054 164.687002 
L 54.968144 165.388978 
L 55.524234 165.582544 
L 56.080324 165.486743 
L 56.914459 165.234198 
L 58.304685 166.98046 
L 58.860775 167.096066 
L 59.416865 166.846527 
L 59.972955 166.241395 
L 60.529045 165.288304 
L 61.363181 163.223659 
L 61.641226 163.478967 
L 62.197316 164.418264 
L 62.753406 165.002889 
L 63.309496 165.288474 
L 63.865586 165.30537 
L 64.699721 165.154711 
L 65.255812 164.824595 
L 66.089947 163.979135 
L 66.367992 164.050162 
L 66.924082 165.24004 
L 67.480172 165.893873 
L 68.036262 166.089257 
L 68.592352 165.900855 
L 69.148443 165.401705 
L 69.982578 164.204409 
L 70.260623 163.712773 
L 71.372803 160.524962 
L 71.928893 157.780327 
L 73.597164 147.934798 
L 74.153254 147.185115 
L 74.431299 147.069194 
L 74.987389 147.185915 
L 76.377615 147.984783 
L 77.76784 147.894606 
L 78.88002 147.734541 
L 79.43611 147.670375 
L 80.270246 147.417103 
L 80.826336 147.564417 
L 82.494606 148.10148 
L 84.162877 148.400447 
L 86.387237 148.569286 
L 89.167688 148.745083 
L 92.226184 149.157789 
L 99.455356 150.240012 
L 101.679716 150.594394 
L 103.904077 151.157905 
L 106.128438 151.749389 
L 106.962573 151.734287 
L 107.518663 151.752322 
L 108.630843 152.231207 
L 110.299114 153.093369 
L 110.855204 153.109659 
L 111.689339 153.106265 
L 113.35761 153.419 
L 116.416105 154.185288 
L 119.196556 155.354634 
L 122.533097 156.781979 
L 126.703773 157.457095 
L 130.040314 157.752571 
L 133.6549 157.843621 
L 140.884072 157.902091 
L 141.440162 157.948755 
L 145.610838 155.283365 
L 148.669334 153.620469 
L 152.84001 152.013909 
L 155.898506 151.042589 
L 158.678957 150.519901 
L 161.459407 149.957433 
L 165.908129 149.033481 
L 167.854444 148.853441 
L 169.522715 148.905899 
L 171.190985 149.20186 
L 172.58121 149.663145 
L 174.249481 150.440754 
L 175.917751 150.00211 
L 177.586022 149.786993 
L 179.254292 149.781345 
L 180.922563 149.973772 
L 182.868878 150.431978 
L 184.815194 151.125688 
L 186.761509 152.039411 
L 188.98587 153.334689 
L 191.488276 154.946097 
L 193.434591 155.030772 
L 195.380907 155.336332 
L 197.605267 155.927041 
L 200.107673 156.850993 
L 202.888124 158.135485 
L 206.224664 159.936095 
L 209.28316 161.679399 
L 212.897746 161.810665 
L 217.068422 162.171883 
L 222.907369 162.796966 
L 236.531578 163.672751 
L 241.258344 163.940859 
L 244.038795 164.474989 
L 247.653381 165.138809 
L 250.711876 165.585719 
L 253.770372 165.809368 
L 256.828868 165.810605 
L 259.887364 165.588386 
L 262.94586 165.146009 
L 263.50195 165.114422 
L 266.560446 165.479301 
L 269.062851 165.53971 
L 271.565257 165.385827 
L 274.067663 165.020439 
L 276.570068 164.444833 
L 279.350519 163.56146 
L 281.852925 162.552009 
L 282.68706 161.879825 
L 284.911421 160.093178 
L 286.301646 159.202387 
L 288.804052 158.119922 
L 291.584502 157.168844 
L 294.086908 156.507156 
L 298.813674 155.633529 
L 300.481945 155.247294 
L 303.262396 154.10665 
L 307.711117 152.572935 
L 316.608559 149.515468 
L 318.83292 148.691607 
L 321.61337 148.352013 
L 326.618182 148.03312 
L 330.232768 147.689889 
L 333.291264 147.140608 
L 335.515624 146.506096 
L 337.46194 145.862468 
L 338.57412 146.510992 
L 341.076526 147.867577 
L 343.578931 148.954721 
L 345.803292 149.694683 
L 348.027653 150.221129 
L 351.642239 150.778094 
L 354.144644 150.913675 
L 356.64705 150.837776 
L 356.925095 150.816589 
L 361.095771 152.957376 
L 364.154267 154.254933 
L 367.490808 155.422024 
L 372.217574 156.791287 
L 374.71998 157.23444 
L 376.94434 157.57435 
L 379.168701 158.232571 
L 381.393062 158.6621 
L 383.617422 158.877192 
L 389.456369 159.015391 
L 394.183135 158.852393 
L 396.12945 158.865726 
L 398.353811 158.899106 
L 400.578172 158.707334 
L 403.636668 158.165059 
L 413.0902 156.291749 
L 414.75847 156.08279 
L 416.704786 155.161432 
L 418.373056 154.593825 
L 420.597417 154.153411 
L 423.099823 153.89323 
L 425.880273 153.835876 
L 426.436364 153.847706 
L 426.436364 153.847706 
" clip-path="url(#pe3f2feedec)" style="fill: none; stroke: #ff00ff; stroke-width: 3; stroke-linecap: square"/>
   </g>
   <g id="patch_3">
    <path d="M 7.2 331.2 
L 7.2 7.2 
" style="fill: none; stroke: #000000; stroke-width: 0.8; stroke-linejoin: miter; stroke-linecap: square"/>
   </g>
   <g id="patch_4">
    <path d="M 446.4 331.2 
L 446.4 7.2 
" style="fill: none; stroke: #000000; stroke-width: 0.8; stroke-linejoin: miter; stroke-linecap: square"/>
   </g>
   <g id="patch_5">
    <path d="M 7.2 331.2 
L 446.4 331.2 
" style="fill: none; stroke: #000000; stroke-width: 0.8; stroke-linejoin: miter; stroke-linecap: square"/>
   </g>
   <g id="patch_6">
    <path d="M 7.2 7.2 
L 446.4 7.2 
" style="fill: none; stroke: #000000; stroke-width: 0.8; stroke-linejoin: miter; stroke-linecap: square"/>
   </g>
  </g>
 </g>
 <defs>
  <clipPath id="pe3f2feedec">
   <rect x="7.2" y="7.2" width="439.2" height="324"/>
  </clipPath>
 </defs>
</svg>
