<?xml version="1.0" encoding="utf-8" standalone="no"?>
<!DOCTYPE svg PUBLIC "-//W3C//DTD SVG 1.1//EN"
  "http://www.w3.org/Graphics/SVG/1.1/DTD/svg11.dtd">
<svg xmlns:xlink="http://www.w3.org/1999/xlink" width="453.6pt" height="338.4pt" viewBox="0 0 453.6 338.4" xmlns="http://www.w3.org/2000/svg" version="1.1">
 <metadata>
  <rdf:RDF xmlns:dc="http://purl.org/dc/elements/1.1/" xmlns:cc="http://creativecommons.org/ns#" xmlns:rdf="http://www.w3.org/1999/02/22-rdf-syntax-ns#">
   <cc:Work>
    <dc:type rdf:resource="http://purl.org/dc/dcmitype/StillImage"/>
    <dc:date>2025-05-15T17:58:31.484505</dc:date>
    <dc:format>image/svg+xml</dc:format>
    <dc:creator>
     <cc:Agent>
      <dc:title>Matplotlib v3.10.1, https://matplotlib.org/</dc:title>
     </cc:Agent>
    </dc:creator>
   </cc:Work>
  </rdf:RDF>
 </metadata>
 <defs>
  <style type="text/css">*{stroke-linejoin: round; stroke-linecap: butt}</style>
 </defs>
 <g id="figure_1">
  <g id="patch_1">
   <path d="M 0 338.4 
L 453.6 338.4 
L 453.6 0 
L 0 0 
z
" style="fill: #ffffff"/>
  </g>
  <g id="axes_1">
   <g id="patch_2">
    <path d="M 7.2 331.2 
L 446.4 331.2 
L 446.4 7.2 
L 7.2 7.2 
z
" style="fill: #ffffff"/>
   </g>
   <g id="matplotlib.axis_1"/>
   <g id="matplotlib.axis_2"/>
   <g id="line2d_1">
    <path d="M 27.163636 286.711272 
L 27.719727 285.274987 
L 28.275817 283.336048 
L 29.109952 279.39953 
L 29.944087 274.303326 
L 33.002583 253.69007 
L 33.836718 249.996454 
L 34.670853 247.357422 
L 36.061079 244.025823 
L 37.451304 240.42745 
L 38.563484 237.637423 
L 39.119575 236.728127 
L 39.39762 236.482832 
L 39.675665 236.40581 
L 39.95371 236.513839 
L 40.231755 236.81893 
L 40.787845 238.042189 
L 41.343935 240.064771 
L 42.17807 244.370291 
L 45.236566 262.593512 
L 45.792656 264.555812 
L 46.348747 265.822031 
L 46.904837 266.423148 
L 47.182882 266.50532 
L 47.738972 266.334084 
L 49.407242 265.142087 
L 49.685287 265.147102 
L 49.963332 265.274421 
L 50.519423 265.950881 
L 51.075513 267.225152 
L 51.631603 269.060724 
L 52.465738 272.596349 
L 54.412054 281.330713 
L 55.246189 284.074922 
L 56.080324 285.963964 
L 56.914459 287.12942 
L 57.748595 287.798498 
L 58.860775 288.286482 
L 60.80709 288.795058 
L 63.031451 289.171047 
L 65.533857 289.341226 
L 71.650848 289.398814 
L 78.601975 289.330291 
L 86.387237 289.088343 
L 88.611598 288.667303 
L 93.338364 287.518279 
L 93.894454 287.093389 
L 94.450544 286.446778 
L 95.006635 285.520111 
L 95.84077 283.521012 
L 96.674905 280.794633 
L 99.733401 269.592677 
L 100.289491 268.55729 
L 100.845581 268.079389 
L 101.123626 268.048661 
L 101.401671 268.14813 
L 101.957761 268.688647 
L 102.791897 270.083155 
L 103.904077 272.05795 
L 104.460167 272.652932 
L 104.738212 272.774493 
L 105.016257 272.754143 
L 105.294302 272.575929 
L 105.572347 272.22565 
L 106.128438 270.960375 
L 106.684528 268.874603 
L 107.240618 265.893031 
L 107.796708 261.935685 
L 108.630843 253.979698 
L 109.464978 243.339499 
L 110.299114 229.887146 
L 111.411294 208.271112 
L 113.35761 169.478228 
L 114.191745 157.656039 
L 114.747835 152.640577 
L 115.303925 150.120196 
L 115.58197 149.770198 
L 115.860015 149.983105 
L 116.13806 150.709405 
L 116.69415 153.451104 
L 117.528286 159.678652 
L 118.918511 170.861319 
L 119.752646 175.881839 
L 120.586781 179.238234 
L 121.420917 181.502469 
L 122.255052 183.680823 
L 122.811142 185.634165 
L 123.367232 188.325542 
L 123.923322 191.964211 
L 124.757458 199.406405 
L 125.591593 209.085738 
L 127.259863 232.086834 
L 128.650089 249.725941 
L 129.484224 257.855876 
L 130.318359 263.864673 
L 131.152494 268.084759 
L 131.98663 271.100339 
L 133.09881 274.197831 
L 135.32317 279.637458 
L 136.435351 281.819019 
L 137.269486 282.891424 
L 137.825576 283.271827 
L 138.381666 283.375987 
L 138.937756 283.225814 
L 139.771892 282.637533 
L 141.440162 281.168724 
L 141.996252 280.911947 
L 142.552342 280.878664 
L 143.108433 281.092042 
L 143.664523 281.543533 
L 144.498658 282.580302 
L 147.557154 286.96312 
L 148.391289 287.703938 
L 149.503469 288.35235 
L 150.893695 288.813545 
L 152.84001 289.156023 
L 155.064371 289.303326 
L 156.176551 289.212708 
L 157.010686 288.959138 
L 157.566776 288.630149 
L 158.122867 288.110642 
L 158.678957 287.337726 
L 159.235047 286.247714 
L 159.791137 284.784782 
L 160.625272 281.818432 
L 161.459407 277.945035 
L 162.849633 270.080685 
L 164.517903 260.58435 
L 165.630084 255.540801 
L 166.464219 252.697652 
L 167.298354 250.666565 
L 167.854444 249.761303 
L 168.410534 249.227922 
L 168.966624 249.086745 
L 169.522715 249.357517 
L 170.078805 250.046749 
L 170.634895 251.133709 
L 171.46903 253.379705 
L 177.029932 270.985468 
L 178.698202 277.618107 
L 180.088427 282.816472 
L 180.922563 285.200997 
L 181.756698 286.902037 
L 182.590833 287.990336 
L 183.424968 288.623273 
L 184.259104 288.967562 
L 185.649329 289.22834 
L 187.87369 289.361809 
L 194.546771 289.427766 
L 203.166169 289.316865 
L 207.0588 289.026738 
L 208.72707 288.756836 
L 209.561205 288.425709 
L 210.117296 287.961585 
L 210.673386 287.131001 
L 211.229476 285.728276 
L 211.785566 283.49124 
L 212.341656 280.095293 
L 212.897746 275.172876 
L 213.453836 268.33945 
L 214.009927 259.195176 
L 214.844062 240.317966 
L 215.678197 214.458886 
L 216.512332 181.568933 
L 217.902558 115.884092 
L 219.014738 64.63379 
L 219.848873 36.147066 
L 220.404963 25.140964 
L 220.683008 22.513236 
L 220.961053 21.927273 
L 221.239099 23.41932 
L 221.517144 26.97715 
L 222.073234 39.99625 
L 222.629324 59.942867 
L 223.463459 99.125108 
L 225.68782 209.977052 
L 226.521955 239.57851 
L 227.35609 260.164312 
L 227.91218 269.498356 
L 228.46827 276.048731 
L 229.024361 280.484224 
L 229.580451 283.400703 
L 230.136541 285.282998 
L 230.692631 286.502054 
L 231.248721 287.307416 
L 232.082856 288.057015 
L 232.916992 288.508955 
L 234.307217 288.960825 
L 235.975487 289.244886 
L 238.199848 289.382222 
L 242.926614 289.396778 
L 245.707065 289.22371 
L 249.599696 288.684671 
L 252.380147 288.183604 
L 253.214282 287.869203 
L 254.048417 287.307901 
L 254.604507 286.697441 
L 255.160598 285.807257 
L 255.716688 284.548462 
L 256.272778 282.831734 
L 257.106913 279.24989 
L 257.941048 274.412565 
L 259.053229 266.448328 
L 260.721499 254.448641 
L 261.555634 250.26245 
L 262.111724 248.610007 
L 262.38977 248.161297 
L 262.667815 247.966619 
L 262.94586 248.02012 
L 263.223905 248.310476 
L 263.779995 249.531795 
L 264.336085 251.453281 
L 265.448265 256.530158 
L 267.394581 265.576872 
L 268.506761 269.736168 
L 270.175032 275.057732 
L 272.121347 280.700354 
L 273.233527 283.430201 
L 274.345708 285.546406 
L 275.179843 286.693409 
L 276.013978 287.498217 
L 276.848113 288.023637 
L 277.960294 288.416327 
L 279.628564 288.666801 
L 287.691871 289.358399 
L 295.755179 289.403355 
L 301.87217 289.237266 
L 303.262396 288.962475 
L 304.374576 288.50719 
L 305.486756 287.756621 
L 306.320891 286.947205 
L 307.155027 285.865725 
L 307.989162 284.429954 
L 308.823297 282.542633 
L 309.657432 280.128392 
L 310.769613 276.08375 
L 312.159838 269.973242 
L 313.828108 261.605752 
L 315.496379 252.047267 
L 317.442694 240.885569 
L 317.998785 238.619997 
L 318.554875 237.187574 
L 318.83292 236.844104 
L 319.110965 236.771687 
L 319.38901 236.979466 
L 319.667055 237.469488 
L 320.223145 239.266688 
L 320.779235 242.030412 
L 321.61337 247.450851 
L 323.281641 258.940468 
L 324.115776 263.169538 
L 324.671866 265.132142 
L 325.227956 266.454018 
L 325.784047 267.269955 
L 326.618182 267.965904 
L 327.452317 268.643446 
L 328.008407 269.368976 
L 328.564497 270.431147 
L 329.398633 272.69179 
L 330.510813 276.630653 
L 332.179083 282.674718 
L 333.013219 285.023665 
L 333.847354 286.730391 
L 334.681489 287.842638 
L 335.515624 288.494552 
L 336.349759 288.839625 
L 337.46194 289.038788 
L 339.6863 289.136186 
L 356.369005 289.385918 
L 359.705546 289.250212 
L 361.651861 288.943855 
L 364.710357 288.428005 
L 366.100582 288.443658 
L 368.046898 288.720812 
L 370.549304 289.067639 
L 372.495619 289.119473 
L 374.71998 288.943066 
L 376.666295 288.58168 
L 378.612611 288.002316 
L 380.558926 287.199739 
L 382.227197 286.312889 
L 383.061332 285.642191 
L 383.617422 284.968132 
L 384.173512 283.968958 
L 384.729602 282.477039 
L 385.285693 280.297767 
L 385.841783 277.230033 
L 386.397873 273.099736 
L 387.232008 264.68795 
L 388.066143 253.644176 
L 389.178324 235.7391 
L 391.958774 189.495752 
L 393.070955 174.833676 
L 394.183135 162.644351 
L 395.57336 149.958525 
L 396.685541 141.822406 
L 397.241631 138.765415 
L 397.797721 136.699756 
L 398.075766 136.130825 
L 398.353811 135.922132 
L 398.631856 136.111224 
L 398.909901 136.732448 
L 399.187946 137.815906 
L 399.744036 141.459071 
L 400.300127 147.137781 
L 401.134262 159.286409 
L 402.246442 180.471047 
L 403.914713 212.897629 
L 404.748848 224.309374 
L 405.304938 228.927419 
L 405.582983 230.248559 
L 405.861028 230.908059 
L 406.139073 230.925091 
L 406.417118 230.335935 
L 406.695163 229.193098 
L 407.251253 225.529787 
L 408.363434 215.28531 
L 409.197569 208.318495 
L 409.753659 205.458365 
L 410.031704 204.780645 
L 410.309749 204.665688 
L 410.587794 205.137223 
L 410.865839 206.200474 
L 411.42193 210.034042 
L 411.97802 215.873037 
L 412.812155 227.277167 
L 414.75847 255.648165 
L 415.592606 264.815528 
L 416.426741 271.375802 
L 416.982831 274.447664 
L 417.538921 276.690638 
L 418.373056 278.964622 
L 419.207192 280.501412 
L 420.875462 282.905371 
L 422.543733 285.052425 
L 423.655913 286.159053 
L 424.768093 286.928989 
L 426.158319 287.585333 
L 426.436364 287.699094 
L 426.436364 287.699094 
" clip-path="url(#p095b234bef)" style="fill: none; stroke-dasharray: 11.1,4.8; stroke-dashoffset: 0; stroke: #000000; stroke-width: 3"/>
   </g>
   <g id="line2d_2">
    <path d="M 27.163636 293.619345 
L 27.719727 291.387608 
L 28.275817 288.158944 
L 29.109952 281.388356 
L 29.944087 272.39891 
L 31.056267 257.525096 
L 33.002583 227.296495 
L 34.392808 206.764584 
L 35.226944 196.621969 
L 36.061079 188.919555 
L 36.617169 185.342511 
L 37.173259 183.061227 
L 37.451304 182.398603 
L 37.729349 182.043045 
L 38.007394 181.981182 
L 38.285439 182.197669 
L 38.563484 182.674491 
L 39.119575 184.331227 
L 39.675665 186.790924 
L 40.5098 191.646272 
L 41.62198 199.594521 
L 44.958521 224.994026 
L 45.792656 229.619163 
L 46.626792 232.985208 
L 47.460927 235.198154 
L 48.295062 236.657826 
L 49.407242 238.463908 
L 49.963332 239.70836 
L 50.519423 241.356509 
L 51.353558 244.703271 
L 52.187693 249.023945 
L 54.134009 260.90944 
L 55.524234 268.802653 
L 56.914459 275.320367 
L 58.304685 280.678929 
L 59.416865 284.22578 
L 60.251 286.336745 
L 61.085135 287.836112 
L 61.641226 288.447993 
L 62.197316 288.740279 
L 62.753406 288.72937 
L 63.309496 288.452497 
L 64.143631 287.664879 
L 66.646037 284.796769 
L 67.480172 284.32044 
L 68.036262 284.227117 
L 68.592352 284.314669 
L 69.426488 284.755175 
L 70.260623 285.485926 
L 73.597164 288.809744 
L 74.431299 289.228784 
L 75.265434 289.419442 
L 76.377615 289.415008 
L 78.601975 289.282484 
L 79.714155 289.477224 
L 80.826336 289.897109 
L 82.494606 290.802964 
L 83.884832 291.752878 
L 84.997012 292.788584 
L 85.831147 293.865251 
L 86.665282 295.285934 
L 87.777463 297.731766 
L 90.835958 305.111278 
L 91.392049 305.897489 
L 91.948139 306.317373 
L 92.226184 306.367906 
L 92.504229 306.301186 
L 93.060319 305.785796 
L 93.616409 304.718701 
L 94.172499 303.061472 
L 94.72859 300.798698 
L 95.562725 296.309605 
L 96.674905 288.665818 
L 99.177311 270.247828 
L 100.289491 264.13163 
L 101.401671 259.552522 
L 103.347987 252.261125 
L 104.460167 246.947817 
L 106.128438 237.412085 
L 110.299114 211.992944 
L 111.689339 201.117114 
L 113.635655 185.430416 
L 114.46979 180.205997 
L 115.02588 177.63306 
L 115.58197 175.878285 
L 116.13806 174.937239 
L 116.416105 174.750241 
L 116.69415 174.732013 
L 116.972195 174.863411 
L 117.528286 175.485004 
L 118.362421 176.946577 
L 119.474601 178.946202 
L 120.308736 180.018013 
L 122.255052 182.036993 
L 122.811142 183.218455 
L 123.367232 185.00856 
L 123.923322 187.532514 
L 124.757458 192.785436 
L 125.591593 199.608949 
L 129.206179 231.763629 
L 130.040314 236.714764 
L 130.874449 240.596902 
L 132.264675 245.807456 
L 133.6549 251.178827 
L 135.045125 257.72223 
L 137.825576 271.529089 
L 138.937756 275.795711 
L 140.884072 281.959416 
L 141.996252 285.929599 
L 143.108433 290.837521 
L 146.166928 305.497592 
L 147.001064 307.973264 
L 147.557154 308.971247 
L 148.113244 309.439694 
L 148.391289 309.486919 
L 148.947379 309.24798 
L 149.503469 308.63983 
L 150.337604 307.263134 
L 152.561965 303.229539 
L 153.3961 302.21565 
L 154.230236 301.570621 
L 155.064371 301.216119 
L 157.010686 300.58587 
L 157.566776 300.135229 
L 158.122867 299.389909 
L 158.678957 298.232094 
L 159.235047 296.535101 
L 159.791137 294.173795 
L 160.347227 291.036273 
L 161.181362 284.71168 
L 162.015498 276.408084 
L 163.127678 262.735791 
L 165.908129 226.362136 
L 166.742264 218.565272 
L 167.298354 214.858168 
L 167.854444 212.466739 
L 168.132489 211.774556 
L 168.410534 211.414001 
L 168.688579 211.376489 
L 168.966624 211.648295 
L 169.24467 212.211683 
L 169.80076 214.125516 
L 170.35685 216.90924 
L 171.46903 224.111607 
L 173.693391 239.071636 
L 175.083616 246.691072 
L 177.029932 257.186852 
L 178.698202 267.817691 
L 180.366473 278.350491 
L 181.200608 282.598392 
L 182.034743 285.82023 
L 182.868878 287.989962 
L 183.424968 288.915947 
L 183.981058 289.502349 
L 184.537149 289.82328 
L 185.371284 289.962914 
L 186.483464 289.815328 
L 189.263915 289.294519 
L 191.766321 288.92024 
L 192.878501 288.468473 
L 193.990681 287.714145 
L 195.380907 286.438092 
L 197.049177 284.927042 
L 197.883312 284.421646 
L 198.717447 284.194883 
L 199.273538 284.222894 
L 199.829628 284.402573 
L 200.663763 284.959698 
L 201.497898 285.854786 
L 202.332033 287.07186 
L 203.444214 289.157138 
L 204.834439 292.388195 
L 208.17098 300.608391 
L 209.005115 301.869312 
L 209.561205 302.300176 
L 209.83925 302.36211 
L 210.117296 302.306581 
L 210.395341 302.120497 
L 210.951431 301.298674 
L 211.507521 299.764399 
L 212.063611 297.358683 
L 212.619701 293.895514 
L 213.175791 289.173114 
L 213.731881 282.990055 
L 214.566017 270.620136 
L 215.400152 254.324655 
L 216.512332 227.137015 
L 219.292783 155.025302 
L 219.848873 145.444738 
L 220.404963 139.068206 
L 220.683008 137.227287 
L 220.961053 136.336844 
L 221.239099 136.419329 
L 221.517144 137.482272 
L 221.795189 139.518002 
L 222.351279 146.402394 
L 222.907369 156.717932 
L 223.741504 177.34943 
L 225.409775 227.507704 
L 226.8 265.762747 
L 227.634135 283.303807 
L 228.46827 295.987689 
L 229.024361 301.845735 
L 229.580451 305.852023 
L 230.136541 308.268225 
L 230.692631 309.376282 
L 230.970676 309.527316 
L 231.248721 309.45377 
L 231.526766 309.186609 
L 232.082856 308.186655 
L 232.916992 305.897277 
L 236.531578 294.702135 
L 237.643758 292.356101 
L 238.755938 290.564166 
L 239.868119 289.210556 
L 240.980299 288.248678 
L 241.814434 287.815913 
L 242.648569 287.692116 
L 243.204659 287.814999 
L 243.76075 288.124598 
L 244.31684 288.633724 
L 245.150975 289.781968 
L 245.98511 291.370365 
L 247.09729 294.046831 
L 250.989921 304.208448 
L 251.824057 305.530107 
L 252.380147 305.990812 
L 252.658192 306.056054 
L 252.936237 305.989686 
L 253.214282 305.774817 
L 253.770372 304.824763 
L 254.326462 303.051689 
L 254.882553 300.308996 
L 255.438643 296.476123 
L 256.272778 288.552506 
L 257.106913 278.132103 
L 258.497139 256.886542 
L 260.165409 231.178845 
L 260.999544 220.918414 
L 261.833679 213.43284 
L 262.38977 210.134148 
L 262.94586 208.181748 
L 263.223905 207.690709 
L 263.50195 207.507792 
L 263.779995 207.619907 
L 264.05804 208.012555 
L 264.61413 209.584554 
L 265.17022 212.116812 
L 266.004356 217.513731 
L 266.838491 224.61088 
L 267.950671 236.361036 
L 269.340896 253.873944 
L 272.399392 293.582677 
L 273.511573 304.27355 
L 274.345708 310.054741 
L 274.901798 312.807217 
L 275.457888 314.721049 
L 276.013978 315.868659 
L 276.570068 316.342595 
L 276.848113 316.359346 
L 277.404204 316.018075 
L 277.960294 315.264732 
L 278.794429 313.575903 
L 280.184654 309.964092 
L 282.965105 302.602386 
L 286.301646 294.08568 
L 289.082097 286.733405 
L 290.194277 284.509761 
L 291.028412 283.308733 
L 291.862547 282.54237 
L 292.418638 282.272253 
L 292.974728 282.187375 
L 293.530818 282.27718 
L 294.364953 282.708959 
L 295.199088 283.448296 
L 296.311269 284.8024 
L 297.979539 287.313051 
L 300.75999 292.023699 
L 302.42826 294.758791 
L 303.262396 295.774016 
L 303.818486 296.174124 
L 304.374576 296.255906 
L 304.930666 295.927937 
L 305.486756 295.097528 
L 306.042846 293.676282 
L 306.598936 291.586149 
L 307.155027 288.767164 
L 307.989162 283.101747 
L 308.823297 275.735396 
L 309.935477 263.627149 
L 311.881793 239.03342 
L 313.550063 218.984172 
L 314.662244 208.170768 
L 315.496379 201.943018 
L 316.330514 197.547742 
L 316.886604 195.69704 
L 317.442694 194.732839 
L 317.720739 194.584761 
L 317.998785 194.657674 
L 318.27683 194.948271 
L 318.83292 196.164079 
L 319.38901 198.174191 
L 320.223145 202.478537 
L 321.335325 209.932792 
L 324.115776 229.503036 
L 325.506002 237.198553 
L 327.174272 246.193699 
L 328.286452 253.582854 
L 329.398633 262.527186 
L 332.179083 286.260384 
L 333.013219 291.564261 
L 333.847354 295.35012 
L 334.403444 296.998481 
L 334.959534 297.985695 
L 335.515624 298.383551 
L 336.071714 298.285935 
L 336.627805 297.796515 
L 337.46194 296.552133 
L 338.852165 293.825065 
L 340.798481 290.055181 
L 341.910661 288.337919 
L 342.744796 287.355631 
L 343.578931 286.676609 
L 344.413067 286.321332 
L 345.247202 286.293603 
L 346.081337 286.581244 
L 346.915472 287.159553 
L 348.027653 288.31223 
L 349.695923 290.537704 
L 351.364193 292.698006 
L 352.476374 293.776362 
L 353.588554 294.516755 
L 356.925095 296.39209 
L 358.037275 297.422096 
L 359.427501 299.012182 
L 361.373816 301.607781 
L 363.320132 304.578223 
L 368.324943 312.49072 
L 369.993213 314.736674 
L 371.105394 315.858876 
L 371.939529 316.354419 
L 372.495619 316.472727 
L 373.051709 316.398688 
L 373.607799 316.11907 
L 374.16389 315.626413 
L 374.998025 314.480492 
L 375.83216 312.840858 
L 376.666295 310.70167 
L 377.778476 307.050095 
L 378.890656 302.477181 
L 380.280881 295.593282 
L 382.505242 283.059942 
L 386.119828 261.713035 
L 387.232008 253.587428 
L 388.622233 241.476929 
L 391.402684 215.88205 
L 392.514865 208.217078 
L 393.349 203.93096 
L 394.183135 200.711446 
L 395.01727 198.280534 
L 395.851405 196.449609 
L 396.407496 195.561489 
L 396.963586 195.000774 
L 397.519676 194.850514 
L 397.797721 194.956295 
L 398.353811 195.573946 
L 398.909901 196.760757 
L 399.465991 198.503638 
L 400.300127 201.98405 
L 403.080577 214.682922 
L 403.636668 216.283917 
L 404.192758 217.387962 
L 404.748848 218.009062 
L 405.304938 218.198876 
L 405.861028 218.039114 
L 406.695163 217.369734 
L 408.085389 216.09157 
L 408.641479 215.868467 
L 409.197569 215.965802 
L 409.753659 216.463385 
L 410.309749 217.416888 
L 410.865839 218.85777 
L 411.699975 221.939693 
L 412.53411 226.0645 
L 413.64629 232.965713 
L 415.036516 243.308206 
L 418.651102 271.679842 
L 419.763282 278.271806 
L 420.597417 282.166824 
L 421.431552 285.261979 
L 422.543733 288.440532 
L 423.655913 290.86518 
L 424.768093 292.68393 
L 425.602228 293.605339 
L 426.158319 293.966105 
L 426.436364 294.06161 
L 426.436364 294.06161 
" clip-path="url(#p095b234bef)" style="fill: none; stroke: #ff00ff; stroke-width: 3; stroke-linecap: square"/>
   </g>
   <g id="patch_3">
    <path d="M 7.2 331.2 
L 7.2 7.2 
" style="fill: none; stroke: #000000; stroke-width: 0.8; stroke-linejoin: miter; stroke-linecap: square"/>
   </g>
   <g id="patch_4">
    <path d="M 446.4 331.2 
L 446.4 7.2 
" style="fill: none; stroke: #000000; stroke-width: 0.8; stroke-linejoin: miter; stroke-linecap: square"/>
   </g>
   <g id="patch_5">
    <path d="M 7.2 331.2 
L 446.4 331.2 
" style="fill: none; stroke: #000000; stroke-width: 0.8; stroke-linejoin: miter; stroke-linecap: square"/>
   </g>
   <g id="patch_6">
    <path d="M 7.2 7.2 
L 446.4 7.2 
" style="fill: none; stroke: #000000; stroke-width: 0.8; stroke-linejoin: miter; stroke-linecap: square"/>
   </g>
  </g>
 </g>
 <defs>
  <clipPath id="p095b234bef">
   <rect x="7.2" y="7.2" width="439.2" height="324"/>
  </clipPath>
 </defs>
</svg>
