<?xml version="1.0" encoding="utf-8" standalone="no"?>
<!DOCTYPE svg PUBLIC "-//W3C//DTD SVG 1.1//EN"
  "http://www.w3.org/Graphics/SVG/1.1/DTD/svg11.dtd">
<svg xmlns:xlink="http://www.w3.org/1999/xlink" width="453.6pt" height="338.4pt" viewBox="0 0 453.6 338.4" xmlns="http://www.w3.org/2000/svg" version="1.1">
 <metadata>
  <rdf:RDF xmlns:dc="http://purl.org/dc/elements/1.1/" xmlns:cc="http://creativecommons.org/ns#" xmlns:rdf="http://www.w3.org/1999/02/22-rdf-syntax-ns#">
   <cc:Work>
    <dc:type rdf:resource="http://purl.org/dc/dcmitype/StillImage"/>
    <dc:date>2025-05-15T01:16:56.617066</dc:date>
    <dc:format>image/svg+xml</dc:format>
    <dc:creator>
     <cc:Agent>
      <dc:title>Matplotlib v3.10.1, https://matplotlib.org/</dc:title>
     </cc:Agent>
    </dc:creator>
   </cc:Work>
  </rdf:RDF>
 </metadata>
 <defs>
  <style type="text/css">*{stroke-linejoin: round; stroke-linecap: butt}</style>
 </defs>
 <g id="figure_1">
  <g id="patch_1">
   <path d="M 0 338.4 
L 453.6 338.4 
L 453.6 0 
L 0 0 
z
" style="fill: #ffffff"/>
  </g>
  <g id="axes_1">
   <g id="patch_2">
    <path d="M 7.2 331.2 
L 446.4 331.2 
L 446.4 7.2 
L 7.2 7.2 
z
" style="fill: #ffffff"/>
   </g>
   <g id="matplotlib.axis_1"/>
   <g id="matplotlib.axis_2"/>
   <g id="line2d_1">
    <path d="M 27.163636 254.189648 
L 27.696 273.229483 
L 27.962182 266.075002 
L 28.228364 283.391353 
L 28.494545 293.435446 
L 28.760727 298.322827 
L 29.026909 291.929034 
L 29.293091 274.056384 
L 29.559273 272.561823 
L 29.825455 267.275584 
L 30.091636 265.475161 
L 30.357818 285.130649 
L 30.624 293.993598 
L 30.890182 293.872562 
L 31.156364 294.49754 
L 31.422545 292.472792 
L 32.221091 257.395969 
L 32.487273 247.735601 
L 32.753455 270.425983 
L 33.285818 295.856979 
L 33.552 295.391297 
L 33.818182 294.098966 
L 34.084364 272.904763 
L 34.350545 237.057083 
L 34.616727 227.082818 
L 35.149091 275.806727 
L 35.681455 293.146373 
L 35.947636 290.651894 
L 36.213818 269.790718 
L 36.48 234.274448 
L 37.012364 264.705854 
L 37.544727 275.421126 
L 38.077091 266.640187 
L 38.343273 256.327006 
L 38.609455 212.877086 
L 39.408 264.219764 
L 39.674182 260.188154 
L 39.940364 267.809782 
L 40.206545 272.178205 
L 40.472727 264.635308 
L 41.005091 219.169141 
L 41.271273 222.635488 
L 41.537455 257.632965 
L 41.803636 248.598896 
L 42.336 269.404822 
L 42.602182 263.656743 
L 43.134545 215.038211 
L 43.400727 224.1257 
L 43.666909 257.783308 
L 44.199273 246.363222 
L 44.731636 258.233592 
L 44.997818 245.374163 
L 45.264 245.662068 
L 45.796364 266.060724 
L 46.328727 241.456809 
L 46.861091 231.747608 
L 47.127273 222.993531 
L 47.393455 231.490514 
L 47.659636 261.45961 
L 47.925818 259.574646 
L 48.192 255.038823 
L 48.458182 253.042442 
L 48.724364 263.597443 
L 48.990545 256.308335 
L 49.256727 232.816592 
L 49.522909 230.41291 
L 49.789091 247.937884 
L 50.055273 272.935095 
L 50.321455 267.509021 
L 50.587636 269.982195 
L 50.853818 273.545453 
L 51.12 266.918735 
L 51.652364 218.686748 
L 51.918545 232.721964 
L 52.184727 275.460693 
L 52.450909 278.178633 
L 52.717091 270.804628 
L 52.983273 275.300935 
L 53.249455 271.985217 
L 53.515636 245.165349 
L 53.781818 242.760064 
L 54.048 252.538972 
L 54.314182 278.963508 
L 54.580364 278.284682 
L 55.112727 258.935127 
L 55.378909 249.688346 
L 55.645091 231.661249 
L 56.177455 247.589379 
L 56.443636 274.990071 
L 56.709818 270.408778 
L 56.976 270.633349 
L 57.242182 273.36978 
L 57.508364 272.322548 
L 57.774545 248.069363 
L 58.040727 236.109457 
L 58.306909 238.667836 
L 58.573091 277.334374 
L 58.839273 273.371009 
L 59.371636 260.841489 
L 59.637818 259.510337 
L 59.904 222.704721 
L 60.170182 217.480307 
L 60.436364 238.808488 
L 60.702545 277.110755 
L 60.968727 277.139973 
L 61.234909 273.001054 
L 61.501091 264.303332 
L 62.033455 232.67997 
L 62.299636 222.658697 
L 62.832 268.422368 
L 63.364364 257.110319 
L 64.162909 204.580972 
L 64.429091 221.757683 
L 64.695273 255.823975 
L 64.961455 266.428103 
L 65.227636 270.625225 
L 65.493818 269.514992 
L 65.76 262.179936 
L 66.026182 247.859491 
L 66.558545 177.090932 
L 66.824727 202.691425 
L 67.090909 263.982263 
L 67.357091 272.168724 
L 67.889455 261.96043 
L 68.155636 244.447573 
L 68.421818 215.370349 
L 68.688 168.278348 
L 68.954182 173.837719 
L 69.220364 245.51995 
L 69.486545 257.474998 
L 69.752727 258.590151 
L 70.018909 253.48666 
L 70.285091 245.367869 
L 70.551273 211.015164 
L 71.083636 177.48845 
L 71.349818 246.925993 
L 71.616 244.315783 
L 72.148364 230.255413 
L 72.680727 189.507987 
L 72.946909 185.364135 
L 73.213091 174.80155 
L 73.479273 223.632105 
L 73.745455 230.899702 
L 74.277818 223.274896 
L 74.544 207.671676 
L 74.810182 160.915702 
L 75.076364 160.280533 
L 75.342545 160.46203 
L 75.608727 220.142338 
L 75.874909 234.107699 
L 76.407273 225.269439 
L 76.673455 198.733573 
L 76.939636 153.969298 
L 77.205818 160.059114 
L 77.472 156.19266 
L 77.738182 219.086706 
L 78.004364 231.020129 
L 78.536727 220.420228 
L 78.802909 182.140153 
L 79.069091 163.06438 
L 79.335273 154.793056 
L 79.867636 240.345523 
L 80.133818 235.306854 
L 80.4 217.188653 
L 80.666182 215.198298 
L 81.198545 164.095548 
L 81.464727 167.700659 
L 81.730909 220.231489 
L 82.263273 260.270489 
L 82.529455 260.990024 
L 82.795636 256.450704 
L 83.061818 245.108787 
L 83.594182 171.018462 
L 83.860364 182.155119 
L 84.126545 254.009666 
L 84.392727 273.16672 
L 84.658909 276.12472 
L 84.925091 276.434852 
L 85.723636 210.43743 
L 85.989818 217.64724 
L 86.256 270.754013 
L 86.522182 282.208104 
L 86.788364 282.751784 
L 87.054545 280.582823 
L 87.320727 263.728812 
L 87.586909 232.501729 
L 87.853091 219.246845 
L 88.385455 276.166807 
L 89.184 281.203955 
L 89.450182 275.88286 
L 89.982545 230.295862 
L 90.248727 256.685334 
L 90.781091 283.808075 
L 91.047273 278.748444 
L 91.313455 281.113218 
L 91.579636 273.143537 
L 91.845818 234.100062 
L 92.112 224.742873 
L 92.378182 235.202991 
L 92.644364 276.20547 
L 92.910545 294.423419 
L 93.176727 294.976872 
L 93.442909 296.539457 
L 93.975273 267.369001 
L 94.241455 235.444855 
L 94.507636 228.132639 
L 94.773818 265.863142 
L 95.04 276.192746 
L 95.306182 294.071293 
L 95.572364 290.875026 
L 96.104727 254.962528 
L 96.370909 220.783397 
L 96.903273 258.899045 
L 97.169455 260.162013 
L 97.435636 264.565768 
L 97.701818 266.358 
L 98.234182 237.924846 
L 98.500364 227.319748 
L 99.032727 268.676566 
L 99.298909 287.785358 
L 99.831273 267.263773 
L 100.097455 247.93066 
L 100.363636 241.098459 
L 100.629818 228.221211 
L 101.162182 242.57977 
L 101.428364 257.707237 
L 101.694545 261.906769 
L 101.960727 260.130337 
L 102.226909 241.875061 
L 102.759273 224.593215 
L 103.025455 223.628251 
L 103.291636 218.364116 
L 104.090182 242.302038 
L 104.356364 233.264532 
L 104.622545 248.018801 
L 104.888727 230.655634 
L 105.953455 202.999064 
L 106.219636 220.45233 
L 106.485818 220.962067 
L 106.752 226.038816 
L 107.018182 216.152604 
L 107.284364 194.108381 
L 107.550545 209.068357 
L 108.082909 193.048096 
L 108.349091 191.718322 
L 108.615273 195.22791 
L 108.881455 181.964599 
L 109.147636 194.897571 
L 109.413818 184.199978 
L 109.68 195.600673 
L 109.946182 195.496968 
L 110.212364 191.892357 
L 110.744727 203.504781 
L 111.010909 195.457194 
L 111.277091 208.854293 
L 111.543273 203.003111 
L 111.809455 205.697121 
L 112.075636 213.09639 
L 112.341818 213.539335 
L 112.608 209.874357 
L 113.140364 183.668189 
L 113.406545 184.563753 
L 113.672727 230.098714 
L 113.938909 246.601347 
L 114.205091 234.226678 
L 114.471273 204.45591 
L 114.737455 201.666428 
L 115.003636 189.365122 
L 115.269818 185.010341 
L 115.536 195.349689 
L 116.068364 248.350531 
L 116.334545 251.416358 
L 116.600727 236.980941 
L 117.133091 226.214186 
L 117.399273 225.448653 
L 117.931636 239.967448 
L 118.464 268.571667 
L 118.730182 259.908904 
L 118.996364 261.233407 
L 119.262545 237.665715 
L 119.528727 237.084831 
L 119.794909 238.019246 
L 120.327273 257.449989 
L 121.125818 268.721023 
L 121.658182 250.573419 
L 121.924364 250.685775 
L 122.190545 259.978835 
L 122.456727 261.367023 
L 122.722909 259.271699 
L 123.255273 263.250412 
L 123.787636 249.167991 
L 124.586182 266.962217 
L 124.852364 275.284029 
L 125.118545 263.641584 
L 125.384727 262.441441 
L 125.650909 258.53807 
L 125.917091 261.000509 
L 126.183273 253.06243 
L 126.449455 259.162626 
L 126.715636 270.833473 
L 126.981818 287.936302 
L 127.248 271.591303 
L 127.514182 266.272716 
L 127.780364 251.659174 
L 128.046545 248.082715 
L 128.312727 257.050553 
L 128.578909 261.204768 
L 128.845091 255.228335 
L 129.111273 257.437028 
L 129.377455 264.382107 
L 129.643636 260.841502 
L 129.909818 253.550306 
L 130.176 254.823382 
L 130.974545 271.354548 
L 131.506909 251.331587 
L 131.773091 247.75608 
L 132.039273 241.385513 
L 132.305455 239.552681 
L 132.571636 239.428892 
L 133.104 254.77788 
L 133.370182 255.429688 
L 133.636364 247.057806 
L 133.902545 243.00321 
L 134.168727 230.64395 
L 134.434909 224.568136 
L 135.233455 235.222417 
L 135.499636 255.748444 
L 135.765818 255.388909 
L 136.032 252.612208 
L 136.298182 224.878487 
L 136.564364 223.618701 
L 137.362909 212.931774 
L 137.895273 228.24916 
L 138.161455 224.473797 
L 138.427636 212.656737 
L 138.693818 216.45581 
L 138.96 202.457962 
L 139.226182 204.854148 
L 139.492364 202.375167 
L 139.758545 202.123866 
L 140.024727 202.772922 
L 140.290909 207.38291 
L 140.557091 199.802909 
L 140.823273 202.972668 
L 141.089455 197.617038 
L 141.355636 195.454324 
L 141.888 207.234472 
L 142.420364 191.32385 
L 142.686545 190.348669 
L 142.952727 184.93527 
L 143.218909 171.433747 
L 143.485091 164.970412 
L 143.751273 191.596455 
L 144.283636 189.33446 
L 144.549818 187.592843 
L 144.816 189.546944 
L 145.082182 201.158332 
L 145.348364 197.732611 
L 145.614545 201.98762 
L 145.880727 196.357085 
L 146.413091 209.678648 
L 146.679273 208.995893 
L 146.945455 199.525879 
L 147.211636 198.907767 
L 147.477818 211.73469 
L 148.010182 223.170858 
L 148.542545 200.231036 
L 149.074909 202.581944 
L 149.341091 207.508815 
L 150.139636 244.735874 
L 150.405818 247.406767 
L 150.672 236.415673 
L 150.938182 232.998054 
L 151.204364 224.354423 
L 151.470545 226.648282 
L 152.269091 252.371353 
L 152.535273 276.806167 
L 152.801455 274.751029 
L 153.333818 254.494741 
L 153.6 254.022003 
L 153.866182 254.674487 
L 154.398545 258.728534 
L 154.664727 258.137739 
L 154.930909 258.420281 
L 155.197091 257.381638 
L 155.463273 253.989941 
L 155.729455 253.244725 
L 155.995636 257.4608 
L 156.261818 258.257065 
L 156.528 263.45475 
L 157.060364 254.159043 
L 157.326545 254.232929 
L 157.592727 247.830194 
L 157.858909 245.160424 
L 158.125091 255.52418 
L 158.391273 257.99272 
L 158.657455 279.339173 
L 158.923636 286.004133 
L 159.189818 265.146099 
L 159.722182 256.711673 
L 159.988364 253.298373 
L 160.254545 253.000781 
L 160.786909 262.425113 
L 161.053091 283.881551 
L 161.319273 275.722185 
L 161.851636 247.53215 
L 162.117818 248.025666 
L 162.384 247.680026 
L 162.650182 251.258303 
L 162.916364 256.995168 
L 163.182545 258.019085 
L 163.448727 256.911494 
L 163.981091 249.467949 
L 164.247273 255.040987 
L 164.513455 266.024975 
L 164.779636 270.436297 
L 165.045818 286.357651 
L 165.578182 233.127549 
L 165.844364 228.771003 
L 166.110545 226.888277 
L 166.376727 233.877782 
L 166.642909 259.758591 
L 166.909091 268.270594 
L 167.175273 284.712074 
L 167.707636 243.020121 
L 168.24 216.439377 
L 168.506182 216.189271 
L 168.772364 214.824639 
L 169.038545 222.978766 
L 169.304727 235.494908 
L 169.570909 258.429507 
L 169.837091 252.453468 
L 170.635636 210.707314 
L 170.901818 214.226962 
L 171.168 205.665968 
L 171.434182 204.033339 
L 171.966545 216.807927 
L 172.232727 214.29946 
L 172.765091 197.522892 
L 173.031273 209.15325 
L 173.297455 204.299914 
L 173.563636 179.426075 
L 173.829818 181.542783 
L 174.362182 201.620782 
L 174.628364 182.546905 
L 175.160727 207.18319 
L 175.426909 193.986461 
L 175.693091 191.685184 
L 175.959273 191.617865 
L 176.225455 185.480656 
L 176.491636 187.274082 
L 176.757818 183.575326 
L 177.024 188.543489 
L 177.290182 203.659426 
L 177.556364 200.25572 
L 177.822545 182.178004 
L 178.088727 193.033752 
L 178.354909 186.583102 
L 178.621091 182.921363 
L 178.887273 184.072212 
L 179.153455 185.91757 
L 179.419636 203.187847 
L 179.685818 197.238832 
L 179.952 195.423495 
L 180.484364 204.641541 
L 180.750545 204.444929 
L 181.282909 211.208326 
L 182.081455 237.723668 
L 182.347636 231.754894 
L 182.613818 218.14885 
L 183.146182 232.712282 
L 183.412364 239.134781 
L 183.678545 241.774779 
L 184.210909 263.385275 
L 184.477091 260.751671 
L 184.743273 246.848952 
L 185.009455 250.609458 
L 185.275636 249.222714 
L 185.808 243.850217 
L 186.340364 261.736789 
L 186.606545 286.776925 
L 186.872727 287.032975 
L 187.405091 268.468458 
L 187.671273 258.952341 
L 187.937455 253.835007 
L 188.203636 256.210858 
L 188.469818 262.788493 
L 189.002182 293.154089 
L 189.268364 294.862311 
L 189.534545 292.864863 
L 189.800727 272.158287 
L 190.066909 271.762621 
L 190.333091 274.914737 
L 190.599273 293.095691 
L 190.865455 291.779099 
L 191.131636 282.046402 
L 191.397818 285.705918 
L 191.664 280.822889 
L 191.930182 269.305081 
L 192.196364 273.964174 
L 192.462545 274.036036 
L 192.728727 291.355692 
L 192.994909 290.786096 
L 193.261091 271.460175 
L 193.527273 273.887655 
L 193.793455 273.521326 
L 194.059636 266.3607 
L 194.325818 264.306497 
L 194.592 268.193404 
L 194.858182 285.524656 
L 195.124364 289.950369 
L 195.656727 255.346466 
L 196.455273 238.69202 
L 196.721455 253.117166 
L 196.987636 257.605832 
L 197.253818 257.377034 
L 197.786182 242.111781 
L 198.052364 243.989684 
L 198.318545 240.069942 
L 198.584727 242.506718 
L 198.850909 246.906593 
L 199.117091 248.157434 
L 199.383273 245.967622 
L 199.649455 232.885264 
L 199.915636 235.794997 
L 200.181818 241.965704 
L 200.448 244.954564 
L 200.714182 245.480528 
L 200.980364 247.950345 
L 201.246545 253.306506 
L 201.512727 242.897723 
L 201.778909 220.140592 
L 202.045091 214.712006 
L 202.311273 218.503223 
L 202.577455 216.227139 
L 202.843636 222.852624 
L 203.109818 221.800151 
L 203.376 210.90678 
L 203.642182 215.132848 
L 204.440727 179.850489 
L 205.239273 199.938215 
L 205.505455 180.090729 
L 205.771636 181.234345 
L 206.037818 186.430854 
L 206.304 188.516434 
L 206.570182 180.651398 
L 206.836364 179.1595 
L 207.102545 178.51134 
L 207.368727 179.703289 
L 207.634909 167.064841 
L 207.901091 165.145553 
L 208.167273 165.784742 
L 208.433455 167.392107 
L 208.699636 166.956343 
L 208.965818 164.00278 
L 209.498182 169.12816 
L 209.764364 165.747067 
L 210.030545 165.848366 
L 210.296727 160.034781 
L 210.562909 159.453615 
L 210.829091 164.103939 
L 211.095273 162.532284 
L 211.361455 164.146496 
L 211.627636 162.472399 
L 211.893818 166.644263 
L 212.16 167.772376 
L 212.426182 166.114133 
L 212.692364 161.307049 
L 212.958545 162.644451 
L 213.224727 172.116651 
L 213.490909 172.49031 
L 213.757091 179.488488 
L 214.023273 179.434177 
L 214.555636 188.39951 
L 214.821818 190.326004 
L 215.088 195.340199 
L 215.354182 194.025331 
L 215.620364 194.600062 
L 215.886545 195.924622 
L 216.152727 206.104954 
L 216.685091 195.752403 
L 216.951273 194.444627 
L 217.217455 198.833916 
L 217.483636 200.996051 
L 218.016 222.40996 
L 218.282182 239.298054 
L 218.548364 233.680036 
L 218.814545 219.038689 
L 219.080727 212.68473 
L 219.346909 211.388033 
L 219.613091 201.430481 
L 220.145455 242.372922 
L 220.677818 265.156629 
L 220.944 260.558758 
L 221.742545 240.048945 
L 222.008727 240.282715 
L 222.274909 250.295653 
L 223.073455 248.958233 
L 223.339636 252.438085 
L 223.605818 253.706341 
L 223.872 253.739611 
L 224.138182 265.692503 
L 224.404364 270.337324 
L 225.202909 236.45083 
L 226.267636 271.17406 
L 226.533818 274.4032 
L 226.8 274.774616 
L 227.066182 271.479307 
L 227.598545 243.514646 
L 227.864727 243.279212 
L 228.130909 251.911278 
L 228.397091 252.684154 
L 228.929455 262.353624 
L 229.195636 265.289596 
L 229.461818 253.123346 
L 229.728 233.779502 
L 229.994182 228.744791 
L 230.526545 245.308388 
L 230.792727 245.639811 
L 231.058909 250.573226 
L 231.325091 251.578692 
L 231.591273 253.043509 
L 232.123636 248.19637 
L 232.656 253.799714 
L 232.922182 247.325644 
L 233.188364 247.593237 
L 233.720727 232.818787 
L 233.986909 231.276538 
L 234.253091 232.056687 
L 234.519273 235.167097 
L 234.785455 241.908672 
L 235.051636 243.302966 
L 235.584 229.043599 
L 236.116364 188.411676 
L 236.382545 187.905379 
L 236.648727 186.209952 
L 236.914909 199.446165 
L 237.181091 200.031175 
L 237.447273 205.431837 
L 237.713455 207.918166 
L 237.979636 188.408516 
L 238.245818 181.276726 
L 238.512 178.130106 
L 238.778182 167.805716 
L 239.044364 169.914251 
L 239.310545 173.974895 
L 239.576727 165.441517 
L 240.109091 172.371322 
L 240.375273 173.541334 
L 240.641455 176.225592 
L 240.907636 170.632355 
L 241.44 164.590178 
L 241.972364 161.88372 
L 242.238545 165.188707 
L 242.504727 164.944394 
L 242.770909 165.110774 
L 243.037091 164.858701 
L 243.303273 172.072646 
L 243.569455 169.528689 
L 243.835636 169.470016 
L 244.101818 171.349257 
L 244.634182 166.346754 
L 244.900364 171.488364 
L 245.166545 173.370625 
L 245.432727 179.266006 
L 245.698909 175.035786 
L 245.965091 168.426558 
L 246.231273 175.447076 
L 246.497455 174.147368 
L 246.763636 175.154668 
L 247.029818 179.227566 
L 247.296 190.58653 
L 247.562182 194.895464 
L 247.828364 195.188083 
L 248.094545 190.42194 
L 248.360727 195.026548 
L 248.626909 197.393468 
L 249.159273 207.65153 
L 249.425455 228.671494 
L 249.691636 237.967455 
L 249.957818 237.93236 
L 250.224 238.756478 
L 250.756364 206.975596 
L 251.022545 208.367493 
L 251.288727 222.995348 
L 251.554909 244.736335 
L 251.821091 257.140705 
L 252.087273 263.840259 
L 252.353455 266.249656 
L 252.619636 262.11625 
L 252.885818 244.921957 
L 253.152 239.369806 
L 253.950545 262.74681 
L 254.216727 264.092758 
L 254.482909 266.332711 
L 254.749091 266.247343 
L 255.281455 254.752222 
L 255.547636 255.24626 
L 256.08 268.831035 
L 256.346182 268.910293 
L 256.878545 262.007972 
L 257.144727 263.293491 
L 257.410909 266.917633 
L 257.677091 268.916613 
L 257.943273 273.739449 
L 258.209455 275.124534 
L 258.475636 274.271198 
L 258.741818 270.970342 
L 259.274182 261.012434 
L 259.540364 260.171691 
L 259.806545 262.051503 
L 260.338909 269.936137 
L 260.605091 274.066707 
L 260.871273 274.526791 
L 261.403636 257.540057 
L 261.669818 247.974107 
L 262.202182 239.352268 
L 262.468364 244.173867 
L 262.734545 243.561306 
L 263.000727 253.166293 
L 263.266909 256.310073 
L 263.533091 254.164301 
L 264.065455 237.260367 
L 264.331636 236.091295 
L 264.597818 244.493852 
L 264.864 242.023324 
L 265.130182 243.665564 
L 265.396364 243.687097 
L 265.662545 249.824262 
L 265.928727 251.198699 
L 266.461091 255.817225 
L 266.727273 249.933063 
L 267.525818 214.422319 
L 267.792 209.170367 
L 268.058182 209.847891 
L 268.324364 213.368381 
L 268.590545 226.23413 
L 268.856727 230.873437 
L 269.122909 228.192524 
L 269.655273 217.677279 
L 269.921455 206.771548 
L 270.187636 201.470465 
L 270.453818 205.668636 
L 270.72 206.617913 
L 270.986182 211.227164 
L 271.518545 197.284294 
L 271.784727 196.190529 
L 272.050909 196.663144 
L 272.317091 195.4948 
L 272.849455 202.925872 
L 273.115636 202.428898 
L 273.381818 196.07917 
L 273.914182 171.458343 
L 274.180364 173.035959 
L 274.446545 180.69054 
L 274.712727 195.779106 
L 274.978909 203.346942 
L 275.245091 199.942297 
L 275.511273 191.565187 
L 276.043636 165.173046 
L 276.309818 167.356837 
L 276.576 175.289088 
L 277.108364 199.504715 
L 277.374545 203.677956 
L 277.640727 203.936832 
L 277.906909 196.682579 
L 278.439273 171.131234 
L 278.705455 169.624634 
L 278.971636 179.94014 
L 279.237818 197.24387 
L 279.504 201.766815 
L 279.770182 201.731676 
L 280.834909 192.008369 
L 281.367273 202.043625 
L 281.633455 209.93346 
L 281.899636 211.908225 
L 282.165818 205.269161 
L 282.432 207.297938 
L 282.698182 215.824802 
L 282.964364 219.720909 
L 283.496727 248.176492 
L 283.762909 250.421698 
L 284.561455 220.358553 
L 284.827636 224.433777 
L 285.093818 237.131495 
L 285.626182 268.440043 
L 285.892364 277.214245 
L 286.158545 275.884124 
L 286.957091 243.80522 
L 287.223273 245.406019 
L 287.755636 266.622771 
L 288.021818 281.062765 
L 288.288 272.65319 
L 288.554182 267.837077 
L 288.820364 266.440462 
L 289.086545 262.946359 
L 289.352727 265.701545 
L 289.618909 274.206749 
L 289.885091 287.817778 
L 290.151273 292.494054 
L 290.417455 291.544302 
L 290.683636 280.742021 
L 290.949818 280.226073 
L 291.216 279.32149 
L 291.482182 277.824914 
L 292.014545 292.479498 
L 292.280727 292.504266 
L 292.546909 293.814128 
L 293.079273 268.151155 
L 293.611636 257.802322 
L 293.877818 267.550265 
L 294.144 287.568946 
L 294.410182 293.029187 
L 294.676364 293.241803 
L 294.942545 291.393627 
L 295.474909 256.023129 
L 295.741091 248.06615 
L 296.539636 290.488098 
L 296.805818 289.790059 
L 297.338182 261.130404 
L 297.870545 224.988047 
L 298.136727 230.567124 
L 298.669091 262.799247 
L 298.935273 258.490352 
L 299.201455 250.902231 
L 299.467636 247.295465 
L 299.733818 250.483465 
L 300 250.355037 
L 300.532364 267.788328 
L 300.798545 268.806601 
L 301.064727 263.319299 
L 301.597091 237.69916 
L 301.863273 229.194548 
L 302.129455 228.677103 
L 302.395636 233.892748 
L 302.928 252.635545 
L 303.194182 243.639313 
L 303.460364 223.749916 
L 303.992727 200.756171 
L 304.258909 199.811968 
L 304.791273 202.68133 
L 305.057455 211.645434 
L 305.323636 205.09459 
L 305.856 186.316159 
L 306.122182 185.253592 
L 306.654545 189.206045 
L 306.920727 189.691151 
L 307.186909 192.551341 
L 307.985455 170.372961 
L 308.251636 179.534906 
L 308.517818 184.622522 
L 308.784 193.418937 
L 309.050182 197.968242 
L 309.316364 193.870081 
L 309.848727 170.171292 
L 310.114909 161.611387 
L 310.381091 166.030477 
L 311.445818 198.985409 
L 311.712 196.402705 
L 311.978182 184.686199 
L 312.244364 178.472892 
L 312.510545 179.67239 
L 312.776727 178.027182 
L 313.042909 188.898933 
L 313.575273 202.475957 
L 314.107636 188.057821 
L 314.373818 191.542961 
L 314.64 199.727961 
L 314.906182 200.009379 
L 315.172364 204.941956 
L 315.438545 207.30726 
L 315.704727 212.037167 
L 316.237091 205.410638 
L 316.503273 208.727668 
L 316.769455 226.193873 
L 317.035636 235.466651 
L 317.301818 239.487899 
L 317.568 249.553983 
L 317.834182 250.091486 
L 318.366545 236.10347 
L 318.632727 236.670538 
L 318.898909 242.786556 
L 319.431273 260.135784 
L 319.697455 265.660612 
L 319.963636 266.267063 
L 320.496 255.286617 
L 321.028364 240.864355 
L 321.826909 266.538106 
L 322.093091 269.830926 
L 322.891636 258.525864 
L 323.157818 256.014492 
L 323.690182 258.553831 
L 324.222545 268.298123 
L 324.488727 266.987367 
L 324.754909 260.32055 
L 325.021091 258.427777 
L 325.287273 268.109015 
L 325.553455 272.715493 
L 326.085818 290.655914 
L 326.352 282.49848 
L 326.618182 279.185464 
L 327.150545 262.917686 
L 327.416727 264.316903 
L 327.682909 269.48821 
L 327.949091 277.099005 
L 328.215273 288.859683 
L 328.481455 276.65369 
L 329.28 258.100603 
L 329.546182 248.688376 
L 329.812364 250.221798 
L 330.344727 257.910289 
L 330.610909 259.200903 
L 331.143273 252.109014 
L 331.409455 254.313534 
L 331.675636 253.175036 
L 331.941818 246.272917 
L 332.208 249.380852 
L 332.474182 249.165836 
L 332.740364 251.421124 
L 333.006545 248.191967 
L 333.272727 242.291276 
L 333.538909 244.40316 
L 333.805091 250.994147 
L 334.071273 247.606729 
L 334.337455 250.037804 
L 334.603636 250.951709 
L 334.869818 248.796759 
L 335.136 244.775253 
L 335.402182 233.353718 
L 335.668364 227.303535 
L 335.934545 224.996772 
L 336.466909 214.13631 
L 336.733091 216.047978 
L 337.265455 212.620799 
L 337.797818 193.600917 
L 338.064 193.647581 
L 338.330182 194.383997 
L 338.596364 194.654987 
L 338.862545 196.143768 
L 339.128727 195.89151 
L 339.394909 177.796133 
L 339.661091 168.505439 
L 339.927273 169.015975 
L 340.459636 162.663377 
L 340.725818 166.33241 
L 340.992 171.865543 
L 341.258182 172.710606 
L 341.790545 162.938045 
L 342.322909 168.199345 
L 342.589091 166.578146 
L 343.121455 178.193001 
L 343.387636 174.2794 
L 343.653818 165.360828 
L 343.92 161.037455 
L 344.186182 163.475407 
L 344.452364 164.29985 
L 344.718545 164.382259 
L 344.984727 170.000698 
L 345.250909 181.374866 
L 345.517091 187.383379 
L 345.783273 184.301813 
L 346.049455 172.267863 
L 346.581818 168.174871 
L 346.848 169.6095 
L 347.114182 178.137945 
L 347.646545 197.733032 
L 347.912727 193.107998 
L 348.178909 183.884632 
L 348.445091 187.204919 
L 348.711273 195.011423 
L 348.977455 194.439764 
L 349.243636 203.125329 
L 349.776 209.683072 
L 350.042182 208.630494 
L 350.308364 204.286009 
L 350.574545 210.984967 
L 351.106909 228.800928 
L 351.373091 237.740329 
L 351.639273 252.347705 
L 351.905455 254.889534 
L 352.437818 240.771895 
L 352.704 242.936035 
L 352.970182 246.435379 
L 353.236364 243.738572 
L 353.768727 261.89688 
L 354.034909 262.387284 
L 354.301091 256.399707 
L 354.567273 254.284851 
L 354.833455 254.435906 
L 355.099636 253.549709 
L 355.365818 247.738002 
L 355.632 246.561024 
L 355.898182 256.976913 
L 356.164364 261.890731 
L 356.430545 258.315724 
L 356.696727 259.293477 
L 356.962909 264.710462 
L 357.229091 266.863964 
L 357.495273 259.975227 
L 357.761455 261.451034 
L 358.027636 260.829388 
L 358.293818 257.867811 
L 359.092364 276.800321 
L 359.358545 276.776804 
L 359.624727 268.596132 
L 359.890909 268.312282 
L 360.157091 270.858877 
L 360.955636 255.256297 
L 361.221818 260.259099 
L 361.488 262.657976 
L 361.754182 258.797065 
L 362.020364 258.631435 
L 362.286545 263.396634 
L 362.552727 256.177405 
L 362.818909 242.436923 
L 363.085091 238.801027 
L 363.351273 245.283933 
L 363.617455 242.495675 
L 363.883636 236.478068 
L 364.149818 238.143702 
L 364.416 246.780061 
L 364.682182 248.343118 
L 364.948364 235.348489 
L 365.214545 230.648699 
L 365.480727 237.79952 
L 365.746909 236.780185 
L 366.013091 225.671082 
L 366.279273 229.215273 
L 366.811636 246.568929 
L 367.344 244.506396 
L 367.610182 250.284693 
L 367.876364 250.770471 
L 368.142545 233.975825 
L 368.408727 224.712861 
L 368.674909 224.258627 
L 368.941091 220.363662 
L 369.473455 199.412562 
L 369.739636 197.025646 
L 370.005818 201.150151 
L 370.272 200.881865 
L 370.538182 200.849526 
L 371.070545 198.799515 
L 371.336727 197.554432 
L 371.602909 192.3489 
L 372.135273 179.456781 
L 372.401455 177.820229 
L 372.933818 188.74428 
L 373.2 191.82653 
L 373.732364 180.123858 
L 373.998545 180.273806 
L 374.264727 172.939469 
L 374.530909 174.699398 
L 374.797091 174.6269 
L 375.063273 176.765843 
L 375.329455 176.367526 
L 375.861818 168.187951 
L 376.128 169.729989 
L 376.394182 174.715717 
L 376.660364 175.855435 
L 377.192727 187.65098 
L 377.991273 170.978978 
L 378.257455 171.517016 
L 378.523636 171.12135 
L 378.789818 171.562417 
L 379.322182 184.492773 
L 379.588364 183.272989 
L 379.854545 183.526633 
L 380.120727 181.30788 
L 380.386909 190.925647 
L 380.653091 185.664294 
L 380.919273 183.79743 
L 381.185455 193.322509 
L 381.451636 207.875513 
L 381.717818 210.436395 
L 381.984 203.237057 
L 382.250182 201.583554 
L 382.516364 214.830871 
L 382.782545 215.417593 
L 383.048727 209.190689 
L 383.314909 229.392679 
L 383.581091 236.599839 
L 383.847273 239.549899 
L 384.113455 245.31894 
L 384.379636 245.958774 
L 384.645818 251.008802 
L 384.912 252.847049 
L 385.178182 251.172194 
L 385.710545 270.44853 
L 385.976727 274.391485 
L 386.242909 270.760083 
L 386.775273 272.220129 
L 387.041455 268.447184 
L 387.307636 267.900482 
L 387.84 277.953426 
L 388.106182 284.316152 
L 388.372364 284.909234 
L 388.638545 284.395565 
L 388.904727 279.681475 
L 389.170909 271.141959 
L 389.437091 266.554525 
L 389.703273 268.49797 
L 389.969455 277.516586 
L 390.235636 291.508744 
L 390.501818 285.068467 
L 390.768 284.703803 
L 391.034182 285.310434 
L 391.300364 283.744914 
L 391.566545 279.919097 
L 391.832727 280.328474 
L 392.098909 285.982113 
L 392.365091 284.881782 
L 392.631273 281.350993 
L 392.897455 279.382239 
L 393.163636 279.443168 
L 393.429818 278.880875 
L 393.696 277.626866 
L 393.962182 279.446925 
L 394.228364 282.642034 
L 394.760727 280.045824 
L 395.559273 263.884694 
L 395.825455 258.018159 
L 396.357818 271.664899 
L 396.624 270.696047 
L 397.156364 259.76607 
L 397.688727 238.644715 
L 397.954909 233.897585 
L 398.221091 239.503173 
L 398.487273 250.445202 
L 398.753455 256.077953 
L 399.818182 236.356754 
L 400.084364 227.086162 
L 400.350545 235.45085 
L 400.882909 241.910296 
L 401.415273 235.530249 
L 401.681455 238.290359 
L 401.947636 237.861336 
L 402.213818 228.718861 
L 402.48 230.425761 
L 403.012364 225.369817 
L 403.278545 224.640406 
L 403.544727 223.204452 
L 403.810909 224.546375 
L 404.077091 217.866984 
L 404.343273 203.300891 
L 404.609455 203.722365 
L 404.875636 207.965673 
L 405.141818 210.194724 
L 405.408 210.45072 
L 405.674182 213.017641 
L 405.940364 210.582287 
L 406.206545 197.5482 
L 406.472727 174.912505 
L 406.738909 169.442092 
L 407.005091 172.997677 
L 407.271273 186.969086 
L 407.537455 184.139725 
L 407.803636 194.259189 
L 408.069818 193.902498 
L 408.602182 164.462597 
L 409.134545 166.8509 
L 409.400727 166.020295 
L 409.666909 183.053966 
L 409.933091 180.025797 
L 410.199273 189.836342 
L 410.465455 193.040327 
L 410.731636 185.780104 
L 411.264 191.027825 
L 411.796364 178.355792 
L 412.062545 171.002564 
L 412.328727 184.83871 
L 412.594909 185.988813 
L 412.861091 180.712292 
L 413.393455 200.907646 
L 413.659636 201.302346 
L 414.192 196.278556 
L 414.458182 201.546616 
L 414.724364 199.184339 
L 414.990545 189.858945 
L 415.256727 205.230642 
L 415.522909 213.08942 
L 415.789091 215.914901 
L 416.055273 215.795922 
L 416.321455 214.838754 
L 416.853818 221.935826 
L 417.12 221.27277 
L 417.386182 227.053613 
L 417.918545 232.631102 
L 418.184727 238.487779 
L 418.450909 239.087212 
L 418.717091 242.718421 
L 418.983273 248.471841 
L 419.249455 246.523041 
L 419.781818 254.804803 
L 420.314182 247.750063 
L 420.580364 249.69518 
L 421.112727 257.885126 
L 421.378909 255.858658 
L 421.911273 264.512344 
L 422.177455 262.803276 
L 422.443636 262.673293 
L 422.976 270.22273 
L 423.242182 270.33656 
L 423.508364 264.329829 
L 423.774545 266.471217 
L 424.040727 272.16096 
L 424.306909 271.984721 
L 424.573091 269.775703 
L 424.839273 273.041535 
L 425.105455 274.296651 
L 425.371636 277.110531 
L 425.637818 266.32165 
L 425.904 273.570277 
L 426.170182 274.493492 
L 426.436364 265.10403 
L 426.436364 265.10403 
" clip-path="url(#pccc5594384)" style="fill: none; stroke: #ffa500; stroke-width: 3; stroke-linecap: square"/>
   </g>
   <g id="line2d_2">
    <path d="M 27.163636 180.92553 
L 27.429818 169.958888 
L 27.696 119.91579 
L 27.962182 122.032621 
L 28.228364 145.359945 
L 28.494545 143.998684 
L 28.760727 150.401423 
L 29.026909 144.917421 
L 29.293091 161.94852 
L 29.825455 116.338453 
L 30.091636 119.90696 
L 30.357818 144.089204 
L 30.624 130.108825 
L 30.890182 170.954697 
L 31.156364 171.278777 
L 31.422545 168.250205 
L 31.688727 158.839128 
L 31.954909 114.587847 
L 32.221091 133.801752 
L 32.487273 134.57558 
L 32.753455 112.784448 
L 33.019636 159.488394 
L 33.285818 179.726287 
L 33.552 178.26528 
L 33.818182 175.278484 
L 34.084364 133.235176 
L 34.616727 135.613472 
L 34.882909 116.235521 
L 35.149091 117.652576 
L 35.415273 171.881704 
L 35.681455 178.549894 
L 35.947636 172.73874 
L 36.213818 131.039149 
L 36.48 136.376521 
L 36.746182 130.419904 
L 37.012364 130.500944 
L 37.278545 113.967917 
L 37.544727 152.616218 
L 37.810909 163.217242 
L 38.077091 163.515927 
L 38.343273 115.41185 
L 38.609455 132.736806 
L 39.141818 131.259358 
L 39.408 128.363731 
L 39.674182 166.794878 
L 39.940364 166.149386 
L 40.206545 156.849545 
L 40.472727 110.157327 
L 40.738909 132.2499 
L 41.005091 133.408141 
L 41.537455 120.394497 
L 41.803636 174.887997 
L 42.069818 175.927583 
L 42.336 161.26904 
L 42.602182 110.401693 
L 42.868364 136.388617 
L 43.134545 136.311738 
L 43.400727 120.727312 
L 43.666909 116.326778 
L 43.933091 162.330913 
L 44.199273 162.242096 
L 44.465455 163.934398 
L 44.731636 113.333538 
L 44.997818 129.623955 
L 45.264 128.683255 
L 45.530182 120.214054 
L 45.796364 127.60795 
L 46.062545 143.315253 
L 46.328727 134.099015 
L 46.861091 110.407153 
L 47.127273 126.245618 
L 47.393455 133.881739 
L 47.659636 114.705877 
L 47.925818 165.985007 
L 48.192 169.165379 
L 48.724364 145.692759 
L 48.990545 111.358229 
L 49.256727 135.030832 
L 49.522909 134.964768 
L 49.789091 132.161926 
L 50.321455 175.515239 
L 50.587636 176.224521 
L 50.853818 176.234414 
L 51.386182 131.793384 
L 51.652364 129.264174 
L 51.918545 135.717686 
L 52.184727 113.813773 
L 52.450909 159.804986 
L 52.983273 169.711528 
L 53.515636 132.65459 
L 53.781818 129.371004 
L 54.048 136.504489 
L 54.314182 112.400598 
L 54.580364 141.986629 
L 54.846545 142.276536 
L 55.112727 161.06572 
L 55.378909 117.061824 
L 55.645091 130.451541 
L 55.911273 126.504837 
L 56.177455 135.086398 
L 56.443636 148.292651 
L 56.709818 153.699212 
L 56.976 149.382457 
L 57.242182 147.965929 
L 57.508364 123.179924 
L 57.774545 136.06416 
L 58.040727 131.392153 
L 58.306909 136.109859 
L 58.573091 136.938199 
L 58.839273 168.881863 
L 59.371636 149.513883 
L 59.637818 112.414169 
L 59.904 133.356402 
L 60.170182 130.43423 
L 60.436364 135.299707 
L 60.702545 112.692541 
L 60.968727 150.822019 
L 61.234909 164.963916 
L 61.501091 164.855664 
L 61.767273 134.989224 
L 62.033455 132.13503 
L 62.299636 131.339291 
L 62.565818 123.180837 
L 62.832 158.881491 
L 63.098182 159.203122 
L 63.364364 157.143174 
L 63.630545 152.686531 
L 63.896727 122.387925 
L 64.162909 128.51403 
L 64.429091 127.126259 
L 64.695273 126.449183 
L 64.961455 167.170459 
L 65.493818 162.440008 
L 65.76 160.044437 
L 66.026182 141.843388 
L 66.292364 136.350292 
L 66.558545 135.680608 
L 66.824727 129.979277 
L 67.090909 163.371035 
L 67.357091 171.509195 
L 67.623273 172.91001 
L 67.889455 172.903286 
L 68.421818 135.124056 
L 68.688 132.773745 
L 69.220364 121.36069 
L 69.486545 166.322544 
L 70.018909 171.532966 
L 70.285091 142.940848 
L 70.551273 133.87519 
L 70.817455 130.569361 
L 71.083636 131.567365 
L 71.349818 119.041312 
L 71.616 165.199943 
L 71.882182 163.852902 
L 72.148364 164.732559 
L 72.414545 125.488328 
L 72.680727 130.266462 
L 72.946909 130.702508 
L 73.213091 125.297755 
L 73.479273 162.008492 
L 73.745455 165.878071 
L 74.011636 160.746442 
L 74.277818 164.071724 
L 74.544 129.675922 
L 74.810182 128.717033 
L 75.076364 130.8599 
L 75.342545 128.213747 
L 75.608727 130.02487 
L 75.874909 166.802427 
L 76.141091 160.52346 
L 76.407273 162.89828 
L 76.673455 120.593533 
L 77.205818 130.989044 
L 77.472 122.319894 
L 77.738182 123.458788 
L 78.004364 161.482401 
L 78.270545 148.028201 
L 78.536727 157.586242 
L 78.802909 131.312044 
L 79.069091 118.868962 
L 79.335273 118.474525 
L 79.601455 118.806725 
L 79.867636 150.697018 
L 80.133818 159.810763 
L 80.4 138.434011 
L 80.666182 139.195848 
L 80.932364 120.393075 
L 81.198545 120.913408 
L 81.464727 118.15709 
L 81.730909 151.040208 
L 81.997091 165.265252 
L 82.263273 168.504455 
L 82.529455 165.987763 
L 82.795636 158.22615 
L 83.061818 138.379587 
L 83.328 135.558258 
L 83.594182 130.745327 
L 83.860364 127.952808 
L 84.126545 160.671196 
L 84.392727 169.209902 
L 84.658909 169.202704 
L 84.925091 167.456714 
L 85.457455 140.141078 
L 85.723636 129.742759 
L 85.989818 131.596543 
L 86.256 130.913657 
L 86.522182 150.687643 
L 87.054545 155.960004 
L 87.320727 149.120974 
L 87.853091 127.323047 
L 88.119273 132.140279 
L 88.385455 126.45136 
L 88.651636 142.754804 
L 88.917818 147.428215 
L 89.184 148.918655 
L 89.450182 122.153233 
L 89.716364 130.853843 
L 89.982545 128.508956 
L 90.248727 134.843191 
L 90.514909 161.232751 
L 90.781091 166.941964 
L 91.047273 162.884972 
L 91.313455 156.485797 
L 91.579636 126.50589 
L 91.845818 137.105773 
L 92.112 125.015678 
L 92.378182 134.707077 
L 92.644364 154.22899 
L 92.910545 158.738285 
L 93.176727 159.345697 
L 93.709091 129.767513 
L 93.975273 128.383464 
L 94.241455 132.938879 
L 94.507636 133.981441 
L 94.773818 140.557917 
L 95.04 154.059028 
L 95.306182 158.036718 
L 95.572364 155.418621 
L 95.838545 128.406884 
L 96.104727 138.699058 
L 96.370909 127.646012 
L 96.903273 168.811971 
L 97.169455 164.647464 
L 97.435636 151.477588 
L 97.701818 132.281361 
L 97.968 141.297264 
L 98.234182 145.513141 
L 98.500364 137.788133 
L 98.766545 165.002979 
L 99.032727 171.703121 
L 99.565091 155.108963 
L 99.831273 153.136024 
L 100.097455 126.630821 
L 100.363636 138.631712 
L 100.629818 140.589062 
L 100.896 143.684181 
L 101.162182 168.054084 
L 101.428364 169.992209 
L 101.694545 169.683035 
L 101.960727 170.434619 
L 102.493091 137.709569 
L 102.759273 138.082499 
L 103.025455 140.853688 
L 103.291636 144.889963 
L 103.557818 166.946564 
L 103.824 167.439281 
L 104.090182 170.639246 
L 104.356364 161.81669 
L 104.622545 135.889668 
L 105.154909 140.805144 
L 105.421091 146.531475 
L 105.687273 166.760713 
L 105.953455 162.92321 
L 106.219636 164.29532 
L 106.485818 129.01412 
L 106.752 135.732486 
L 107.018182 139.29634 
L 107.284364 138.406518 
L 107.550545 163.160342 
L 107.816727 162.04766 
L 108.082909 157.307799 
L 108.349091 158.507595 
L 108.615273 135.342895 
L 108.881455 138.327532 
L 109.147636 138.189171 
L 109.413818 130.425944 
L 109.68 138.965317 
L 109.946182 162.42512 
L 110.212364 159.399419 
L 110.478545 159.727423 
L 110.744727 121.378053 
L 111.010909 135.401972 
L 111.543273 132.420179 
L 111.809455 136.525064 
L 112.075636 160.294842 
L 112.341818 156.806515 
L 112.608 156.619189 
L 113.140364 121.273435 
L 113.406545 121.332213 
L 113.938909 166.794281 
L 114.205091 166.75657 
L 114.471273 138.123212 
L 114.737455 140.089428 
L 115.003636 131.095101 
L 115.269818 128.715365 
L 115.536 133.558264 
L 115.802182 163.32502 
L 116.068364 167.603081 
L 116.334545 166.783607 
L 116.866909 161.840725 
L 117.133091 135.896743 
L 117.399273 134.290186 
L 117.665455 131.956816 
L 117.931636 138.095315 
L 118.197818 166.740348 
L 118.464 171.083341 
L 118.730182 169.068714 
L 118.996364 169.734606 
L 119.262545 167.723587 
L 119.528727 118.613413 
L 119.794909 133.327347 
L 120.061091 133.257332 
L 120.327273 136.071849 
L 120.593455 170.583689 
L 120.859636 170.862316 
L 121.125818 172.406426 
L 121.392 167.393512 
L 121.658182 124.378438 
L 121.924364 137.81352 
L 122.190545 138.415015 
L 122.456727 140.767627 
L 122.722909 163.127635 
L 122.989091 165.471205 
L 123.255273 171.956292 
L 123.787636 136.436669 
L 124.053818 137.442152 
L 124.32 141.591859 
L 124.586182 167.5686 
L 124.852364 171.103882 
L 125.118545 170.38181 
L 125.384727 170.799789 
L 125.650909 161.946887 
L 125.917091 138.198792 
L 126.183273 134.188271 
L 126.449455 136.094198 
L 126.715636 159.195626 
L 126.981818 169.73537 
L 127.248 172.032898 
L 127.514182 166.044277 
L 127.780364 133.917606 
L 128.046545 116.455009 
L 128.312727 134.498034 
L 128.578909 138.04923 
L 129.111273 170.133415 
L 129.377455 169.567233 
L 129.643636 167.325551 
L 129.909818 159.759867 
L 130.176 138.877781 
L 130.442182 141.824532 
L 130.708364 141.385098 
L 130.974545 167.441177 
L 131.240727 169.94565 
L 131.506909 157.557888 
L 132.039273 155.530033 
L 132.305455 147.376793 
L 132.571636 163.782221 
L 132.837818 170.928872 
L 133.104 171.713638 
L 133.902545 168.713077 
L 134.168727 165.804476 
L 134.434909 130.227821 
L 134.701091 141.397511 
L 134.967273 124.832163 
L 135.233455 169.571868 
L 135.499636 172.178194 
L 135.765818 172.817524 
L 136.298182 168.037634 
L 136.564364 119.000863 
L 136.830545 132.495934 
L 137.096727 125.114766 
L 137.362909 139.780859 
L 137.629091 165.808373 
L 137.895273 168.811585 
L 138.161455 169.115063 
L 138.427636 163.778586 
L 138.693818 115.559235 
L 138.96 131.361096 
L 139.226182 121.990293 
L 139.758545 157.84862 
L 140.024727 148.802906 
L 140.290909 158.210929 
L 140.557091 144.010324 
L 140.823273 118.894559 
L 141.089455 128.945423 
L 141.355636 122.376706 
L 141.621818 155.203205 
L 141.888 155.362511 
L 142.154182 152.03737 
L 142.420364 151.912439 
L 142.686545 147.4118 
L 142.952727 120.475327 
L 143.218909 131.743454 
L 143.485091 127.507985 
L 143.751273 135.001829 
L 144.017455 152.701506 
L 144.549818 146.4777 
L 145.082182 120.42092 
L 145.348364 122.846354 
L 145.614545 122.314101 
L 146.146909 152.019585 
L 146.679273 155.985583 
L 146.945455 154.12051 
L 147.211636 153.893806 
L 147.477818 124.760024 
L 147.744 138.652464 
L 148.010182 160.43638 
L 148.276364 159.418626 
L 148.542545 138.89158 
L 148.808727 157.527042 
L 149.074909 160.335695 
L 149.341091 159.327105 
L 149.607273 163.344156 
L 149.873455 162.045273 
L 150.139636 164.267441 
L 150.672 165.225452 
L 150.938182 166.428426 
L 151.204364 164.113086 
L 151.470545 118.261849 
L 151.736727 130.562251 
L 152.002909 117.864638 
L 152.269091 164.584771 
L 152.535273 172.592531 
L 152.801455 174.613092 
L 153.067636 173.893881 
L 153.333818 169.487818 
L 154.132364 113.448918 
L 154.664727 163.777586 
L 154.930909 169.029423 
L 155.197091 171.567209 
L 155.463273 170.800167 
L 155.729455 132.417563 
L 156.261818 111.319131 
L 156.528 154.684242 
L 156.794182 160.239065 
L 157.060364 159.220977 
L 157.326545 168.748681 
L 157.592727 162.710533 
L 157.858909 118.498262 
L 158.125091 115.851477 
L 158.391273 132.823604 
L 158.657455 157.23717 
L 158.923636 170.703098 
L 159.189818 166.823811 
L 159.456 166.568929 
L 159.722182 161.947221 
L 159.988364 118.444978 
L 160.254545 129.460577 
L 160.520727 114.169674 
L 160.786909 157.986472 
L 161.053091 169.877286 
L 161.319273 167.646217 
L 161.585455 162.474208 
L 162.117818 126.210875 
L 162.384 115.825757 
L 162.650182 117.561476 
L 162.916364 156.715802 
L 163.182545 164.748536 
L 163.448727 168.088811 
L 163.714909 168.300048 
L 163.981091 160.275811 
L 164.247273 159.554055 
L 164.513455 136.891815 
L 164.779636 151.592002 
L 165.045818 156.803952 
L 165.312 165.332405 
L 165.578182 163.007761 
L 165.844364 162.789712 
L 166.376727 165.844153 
L 166.642909 158.459509 
L 166.909091 155.802261 
L 167.175273 165.675454 
L 167.441455 168.065285 
L 167.973818 160.671845 
L 168.24 161.81964 
L 168.772364 121.613535 
L 169.038545 128.550284 
L 169.304727 162.467133 
L 169.570909 164.135892 
L 169.837091 163.06064 
L 170.369455 157.44774 
L 170.635636 158.14569 
L 170.901818 114.452154 
L 171.168 115.30876 
L 171.434182 142.049235 
L 171.966545 152.582369 
L 172.232727 152.010017 
L 172.498909 150.244312 
L 172.765091 113.390666 
L 173.031273 103.577392 
L 173.297455 111.875349 
L 173.563636 137.345926 
L 173.829818 131.335605 
L 174.096 132.106869 
L 174.362182 135.158168 
L 174.628364 133.509914 
L 174.894545 113.287716 
L 175.160727 109.490329 
L 175.426909 110.437613 
L 175.693091 144.082796 
L 175.959273 144.927235 
L 176.225455 130.333071 
L 176.491636 132.955926 
L 176.757818 134.128756 
L 177.024 114.619606 
L 177.556364 110.941706 
L 178.088727 145.491477 
L 178.354909 128.225861 
L 178.887273 132.011697 
L 179.153455 115.472876 
L 179.419636 110.570145 
L 179.685818 110.391106 
L 179.952 138.269263 
L 180.484364 147.095822 
L 181.016727 141.498389 
L 181.282909 136.508052 
L 181.549091 147.352424 
L 182.081455 154.850254 
L 182.347636 152.253294 
L 182.613818 132.787421 
L 183.412364 140.620804 
L 183.678545 154.208309 
L 183.944727 157.394457 
L 184.210909 162.06462 
L 184.477091 162.12173 
L 185.009455 152.253505 
L 185.808 119.415893 
L 186.074182 129.159153 
L 186.340364 152.515971 
L 186.606545 162.574437 
L 187.138909 149.25096 
L 187.405091 148.65596 
L 187.671273 144.553199 
L 187.937455 129.626501 
L 188.203636 128.324791 
L 188.469818 133.976578 
L 188.736 149.620485 
L 189.002182 143.636937 
L 189.268364 144.453269 
L 189.534545 147.038518 
L 190.066909 107.714055 
L 190.599273 135.68849 
L 190.865455 133.529209 
L 191.131636 126.30164 
L 191.397818 130.472362 
L 191.664 132.789826 
L 191.930182 126.57831 
L 192.196364 114.692166 
L 192.728727 155.375731 
L 192.994909 155.279119 
L 193.261091 135.919268 
L 193.527273 130.996382 
L 193.793455 129.671111 
L 194.325818 106.332938 
L 194.592 121.67916 
L 194.858182 151.595197 
L 195.124364 158.998469 
L 195.390545 154.169492 
L 195.656727 131.051351 
L 195.922909 120.492567 
L 196.189091 134.723 
L 196.455273 134.603407 
L 196.721455 139.307173 
L 196.987636 162.246503 
L 197.253818 166.269612 
L 197.52 167.272567 
L 197.786182 166.135973 
L 198.052364 162.99965 
L 198.318545 166.608957 
L 198.584727 166.458184 
L 198.850909 170.031658 
L 199.117091 170.251121 
L 199.383273 167.813932 
L 199.649455 163.474529 
L 199.915636 147.866841 
L 200.181818 144.932098 
L 200.714182 165.000574 
L 200.980364 170.25874 
L 201.246545 170.614606 
L 201.512727 169.280575 
L 201.778909 158.833861 
L 202.045091 138.621319 
L 202.311273 138.695178 
L 202.577455 143.830056 
L 202.843636 143.243466 
L 203.109818 144.435519 
L 203.376 162.318993 
L 203.642182 158.574186 
L 203.908364 149.605878 
L 204.174545 133.503717 
L 204.440727 135.629835 
L 204.706909 140.637359 
L 204.973091 135.776184 
L 205.239273 135.000758 
L 205.505455 132.772147 
L 205.771636 128.138361 
L 206.037818 139.044583 
L 206.304 133.258737 
L 206.836364 140.859955 
L 207.102545 126.879698 
L 207.368727 134.96454 
L 207.634909 130.598083 
L 207.901091 128.176826 
L 208.167273 127.876245 
L 208.433455 131.41373 
L 208.699636 127.602561 
L 208.965818 125.78675 
L 209.232 127.663516 
L 209.498182 135.02481 
L 209.764364 132.742354 
L 210.296727 120.630331 
L 210.562909 111.190356 
L 210.829091 115.98329 
L 211.095273 116.800886 
L 211.361455 121.36399 
L 211.627636 133.953544 
L 212.426182 125.677655 
L 212.692364 110.123549 
L 212.958545 111.835022 
L 213.224727 117.092478 
L 213.490909 132.521004 
L 213.757091 133.736197 
L 214.023273 130.997172 
L 214.555636 137.657567 
L 214.821818 132.748499 
L 215.354182 140.377017 
L 215.620364 157.085607 
L 215.886545 160.068208 
L 216.418909 150.147946 
L 216.685091 133.532421 
L 216.951273 133.651277 
L 217.217455 136.400924 
L 217.483636 140.535182 
L 217.749818 159.420943 
L 218.016 167.273005 
L 218.282182 168.293148 
L 218.548364 159.796542 
L 218.814545 133.708125 
L 219.080727 132.072161 
L 219.346909 133.860882 
L 220.145455 145.560455 
L 220.411636 157.825218 
L 220.677818 162.211215 
L 220.944 153.201632 
L 221.210182 138.282378 
L 221.476364 136.622344 
L 221.742545 137.591749 
L 222.008727 142.302537 
L 222.274909 143.637077 
L 222.541091 133.76369 
L 222.807273 129.664282 
L 223.339636 151.981716 
L 223.605818 163.416471 
L 223.872 167.903223 
L 224.138182 148.814283 
L 224.670545 133.858319 
L 224.936727 129.295232 
L 225.202909 132.740212 
L 225.735273 142.871834 
L 226.001455 162.596136 
L 226.267636 150.225299 
L 226.533818 159.791626 
L 226.8 157.519791 
L 227.066182 140.637552 
L 227.332364 132.605222 
L 227.598545 134.105283 
L 228.130909 148.480801 
L 228.397091 149.437812 
L 228.663273 148.083169 
L 228.929455 162.862026 
L 229.195636 150.82158 
L 229.728 115.239483 
L 229.994182 123.232891 
L 230.260364 137.981007 
L 230.526545 167.037348 
L 230.792727 168.92298 
L 231.058909 167.459646 
L 231.325091 160.883995 
L 231.591273 162.817135 
L 231.857455 142.503925 
L 232.123636 147.828129 
L 232.389818 169.59183 
L 232.656 172.246901 
L 232.922182 173.152734 
L 233.188364 172.182267 
L 233.454545 166.529339 
L 233.986909 138.875113 
L 234.253091 138.997971 
L 234.519273 145.084592 
L 234.785455 166.341715 
L 235.051636 170.440834 
L 235.317818 170.167412 
L 235.584 161.013982 
L 235.850182 136.812075 
L 236.116364 133.915903 
L 236.382545 135.946585 
L 236.914909 143.87126 
L 237.181091 143.110951 
L 237.447273 139.987303 
L 237.713455 143.537639 
L 237.979636 132.260048 
L 238.245818 130.702876 
L 238.512 130.864587 
L 239.044364 132.320108 
L 239.310545 130.972295 
L 239.842909 133.013089 
L 240.109091 130.590902 
L 240.641455 133.939639 
L 240.907636 133.96708 
L 241.44 128.969211 
L 241.972364 127.58518 
L 242.770909 132.462507 
L 243.037091 131.784589 
L 243.303273 133.276627 
L 244.101818 126.143529 
L 244.368 118.554705 
L 244.900364 133.471659 
L 245.432727 135.440982 
L 245.698909 130.098308 
L 246.231273 125.780166 
L 246.497455 122.505236 
L 246.763636 112.585852 
L 247.029818 128.098912 
L 247.296 134.354968 
L 247.562182 135.148512 
L 248.094545 133.329769 
L 248.360727 132.59137 
L 248.626909 132.794514 
L 248.893091 134.300035 
L 249.159273 138.317473 
L 249.425455 160.717316 
L 249.691636 166.490557 
L 249.957818 162.989204 
L 250.224 157.941985 
L 250.756364 134.244522 
L 251.022545 136.277345 
L 251.288727 139.49276 
L 251.821091 155.919133 
L 252.087273 164.432733 
L 252.353455 163.715279 
L 252.619636 151.759419 
L 252.885818 130.598223 
L 253.152 136.913023 
L 253.418182 138.005761 
L 253.684364 135.101057 
L 253.950545 141.665297 
L 254.482909 136.9596 
L 255.015273 136.533123 
L 255.281455 135.177726 
L 255.547636 137.325016 
L 255.813818 140.903424 
L 256.08 139.318093 
L 256.878545 123.814197 
L 257.410909 134.855726 
L 257.677091 144.37323 
L 257.943273 167.128359 
L 258.741818 136.205154 
L 259.008 130.677121 
L 259.274182 130.8155 
L 259.806545 140.63541 
L 260.072727 147.676794 
L 260.338909 150.421051 
L 260.605091 160.276882 
L 260.871273 147.931553 
L 261.137455 143.688271 
L 261.403636 134.864802 
L 261.669818 134.64268 
L 262.202182 143.035564 
L 262.468364 161.338861 
L 262.734545 150.9759 
L 263.000727 150.439994 
L 263.266909 156.992278 
L 263.533091 137.023944 
L 263.799273 135.539736 
L 264.065455 141.809837 
L 264.331636 163.057304 
L 264.597818 173.31247 
L 264.864 169.868587 
L 265.130182 163.869212 
L 265.396364 161.577714 
L 265.662545 160.704219 
L 265.928727 137.488922 
L 266.194909 154.903133 
L 266.461091 181.918522 
L 266.727273 180.205828 
L 266.993455 175.847816 
L 267.259636 169.503206 
L 267.525818 167.048303 
L 267.792 143.024855 
L 268.058182 140.524033 
L 268.324364 142.09439 
L 268.590545 153.073804 
L 268.856727 174.067337 
L 269.122909 175.514984 
L 269.389091 172.3398 
L 269.655273 164.359998 
L 269.921455 137.863099 
L 270.187636 136.971486 
L 270.453818 138.325619 
L 270.72 139.096041 
L 270.986182 151.025479 
L 271.252364 147.360623 
L 271.518545 139.047831 
L 271.784727 138.146404 
L 272.050909 136.273097 
L 272.317091 135.541755 
L 272.583273 136.963164 
L 272.849455 137.331898 
L 273.115636 137.479968 
L 273.381818 135.860191 
L 273.914182 130.731423 
L 274.180364 132.758277 
L 274.446545 131.306233 
L 274.712727 133.637355 
L 274.978909 137.570945 
L 275.245091 135.701816 
L 275.511273 131.552811 
L 275.777455 131.52379 
L 276.043636 133.846819 
L 276.309818 132.843636 
L 276.576 132.889511 
L 276.842182 133.426891 
L 277.374545 136.442146 
L 277.640727 136.280541 
L 278.173091 131.334569 
L 278.439273 129.868795 
L 278.705455 119.424443 
L 278.971636 135.674849 
L 279.237818 135.878239 
L 279.504 135.85617 
L 279.770182 135.281044 
L 280.036364 135.168122 
L 280.568727 134.521384 
L 280.834909 131.17054 
L 281.101091 136.219462 
L 281.367273 138.362856 
L 281.633455 160.504288 
L 282.165818 137.372541 
L 282.432 136.575662 
L 282.698182 136.666884 
L 282.964364 137.069678 
L 283.230545 139.181083 
L 283.496727 175.451518 
L 283.762909 176.60601 
L 284.029091 173.004507 
L 284.295273 167.251095 
L 284.561455 155.60944 
L 284.827636 137.738098 
L 285.093818 132.822393 
L 285.36 133.342937 
L 285.892364 168.35212 
L 286.158545 171.889288 
L 286.424727 170.343554 
L 286.690909 167.771534 
L 286.957091 137.811027 
L 287.489455 123.982263 
L 288.021818 160.806326 
L 288.288 143.086548 
L 288.554182 135.547268 
L 288.820364 135.072686 
L 289.352727 120.877014 
L 289.618909 125.068382 
L 289.885091 140.413323 
L 290.151273 139.696957 
L 290.417455 135.856837 
L 290.683636 129.162243 
L 290.949818 128.078301 
L 291.216 130.158772 
L 291.482182 129.383188 
L 291.748364 156.566872 
L 292.014545 169.505637 
L 292.280727 168.874436 
L 292.546909 156.434445 
L 292.813091 134.28843 
L 293.079273 128.990051 
L 293.345455 131.132092 
L 293.611636 130.496485 
L 294.144 171.188591 
L 294.410182 169.925206 
L 294.676364 166.059129 
L 294.942545 152.381473 
L 295.208727 147.502987 
L 295.474909 128.863189 
L 295.741091 118.577616 
L 296.007273 130.182596 
L 296.273455 162.58023 
L 296.539636 169.795412 
L 296.805818 167.691091 
L 297.072 166.5631 
L 297.338182 169.081144 
L 297.604364 140.061724 
L 297.870545 134.485991 
L 298.136727 138.699971 
L 298.402909 170.000268 
L 298.669091 176.323407 
L 298.935273 176.931723 
L 299.201455 167.614668 
L 299.467636 163.3983 
L 299.733818 162.315113 
L 300 138.39918 
L 300.532364 177.473782 
L 300.798545 183.471454 
L 301.064727 179.692658 
L 301.597091 163.250441 
L 301.863273 140.434479 
L 302.129455 139.153327 
L 302.395636 142.236385 
L 302.928 180.155547 
L 303.194182 178.828986 
L 303.726545 163.881378 
L 303.992727 137.252842 
L 304.258909 132.787368 
L 304.525091 137.240061 
L 304.791273 138.624356 
L 305.057455 162.511761 
L 305.323636 141.538944 
L 305.589818 138.871882 
L 305.856 137.969981 
L 306.122182 135.709277 
L 306.388364 122.866913 
L 306.654545 136.498432 
L 307.186909 138.469282 
L 307.453091 137.294065 
L 307.985455 123.607595 
L 308.251636 131.080898 
L 308.517818 131.048946 
L 308.784 137.357636 
L 309.050182 157.391946 
L 309.316364 150.321226 
L 309.582545 136.63904 
L 309.848727 136.061157 
L 310.114909 123.422464 
L 310.381091 119.111432 
L 310.647273 118.897842 
L 310.913455 133.358193 
L 311.179636 136.806562 
L 311.445818 151.277762 
L 311.978182 135.308695 
L 312.244364 132.58814 
L 312.510545 114.559669 
L 312.776727 114.466304 
L 313.042909 127.889571 
L 313.309091 135.063469 
L 313.575273 159.521997 
L 313.841455 142.261701 
L 314.107636 137.915627 
L 314.373818 137.55388 
L 314.64 134.471366 
L 314.906182 119.574075 
L 315.172364 132.942285 
L 315.438545 140.03086 
L 315.704727 164.767865 
L 316.237091 139.23068 
L 316.769455 140.131176 
L 317.035636 133.177012 
L 317.301818 143.291341 
L 317.568 179.576418 
L 317.834182 179.276689 
L 318.100364 171.798399 
L 318.366545 143.947718 
L 318.898909 137.355582 
L 319.165091 129.245354 
L 319.431273 136.695799 
L 319.697455 163.459045 
L 319.963636 171.629455 
L 320.229818 172.641013 
L 320.496 174.690436 
L 320.762182 167.528976 
L 321.028364 136.451749 
L 321.294545 125.302565 
L 321.560727 127.697084 
L 321.826909 155.314389 
L 322.093091 169.931096 
L 322.625455 133.596888 
L 322.891636 134.498631 
L 323.157818 129.92243 
L 323.424 122.744546 
L 323.956364 166.038711 
L 324.222545 167.147022 
L 324.488727 153.895298 
L 324.754909 134.417539 
L 325.287273 135.128445 
L 325.553455 138.420984 
L 325.819636 168.930985 
L 326.085818 176.688893 
L 326.352 171.979571 
L 326.618182 163.429726 
L 326.884364 137.68966 
L 327.150545 138.367332 
L 327.682909 129.312226 
L 328.215273 174.296447 
L 328.481455 174.923943 
L 328.747636 171.502795 
L 329.013818 165.28323 
L 329.812364 116.679607 
L 330.078545 134.849722 
L 330.344727 177.285798 
L 330.610909 183.814802 
L 330.877091 176.689209 
L 331.143273 144.568332 
L 331.409455 136.554032 
L 331.675636 133.057717 
L 331.941818 122.59228 
L 332.208 142.500835 
L 332.474182 175.287622 
L 332.740364 180.823168 
L 333.006545 176.795873 
L 333.272727 143.976124 
L 333.805091 138.604009 
L 334.071273 137.588238 
L 334.337455 169.058496 
L 334.603636 182.931238 
L 334.869818 182.236475 
L 335.136 175.902223 
L 335.402182 147.295928 
L 335.668364 142.293267 
L 336.200727 137.461815 
L 336.466909 140.840204 
L 336.733091 164.809087 
L 336.999273 173.739728 
L 337.265455 168.525505 
L 337.797818 142.861985 
L 338.064 137.683287 
L 338.330182 124.517817 
L 338.862545 138.459959 
L 339.128727 144.803235 
L 339.394909 136.363002 
L 339.661091 118.668435 
L 339.927273 116.651008 
L 340.193455 113.300375 
L 340.459636 113.80891 
L 340.725818 128.153319 
L 340.992 132.071739 
L 341.258182 133.243638 
L 341.524364 131.314274 
L 341.790545 114.185264 
L 342.056727 113.302868 
L 342.322909 118.703249 
L 342.589091 118.590098 
L 342.855273 136.70614 
L 343.121455 145.596059 
L 343.653818 133.966307 
L 343.92 118.073839 
L 344.186182 122.465927 
L 344.718545 116.698796 
L 344.984727 136.616708 
L 345.250909 139.330224 
L 345.517091 143.519204 
L 345.783273 140.201946 
L 346.049455 133.541639 
L 346.315636 131.858167 
L 346.581818 119.154392 
L 346.848 119.359414 
L 347.114182 137.972667 
L 347.380364 142.593673 
L 347.646545 160.051617 
L 347.912727 143.283985 
L 348.178909 139.406383 
L 348.445091 139.218935 
L 348.711273 128.922424 
L 348.977455 123.366213 
L 349.243636 142.032592 
L 349.509818 149.567781 
L 349.776 169.683017 
L 350.042182 148.774922 
L 350.308364 143.715993 
L 350.574545 143.579651 
L 350.840727 141.136256 
L 351.106909 135.094421 
L 351.373091 150.614943 
L 351.639273 181.863079 
L 351.905455 182.026695 
L 352.437818 145.354362 
L 352.704 142.070197 
L 352.970182 133.808775 
L 353.236364 131.941717 
L 353.502545 142.348253 
L 353.768727 159.485532 
L 354.034909 163.862084 
L 354.301091 161.563002 
L 355.099636 133.854017 
L 355.365818 130.160352 
L 355.632 139.4975 
L 355.898182 164.039841 
L 356.164364 161.206574 
L 356.696727 124.669837 
L 356.962909 122.045086 
L 357.229091 123.127588 
L 357.495273 128.343997 
L 357.761455 157.866019 
L 358.027636 171.041337 
L 358.293818 166.264327 
L 358.826182 133.771819 
L 359.092364 136.119128 
L 359.358545 128.775074 
L 359.624727 134.581514 
L 360.157091 173.994848 
L 360.423273 176.307185 
L 360.689455 174.224931 
L 360.955636 146.971997 
L 361.221818 140.169256 
L 361.754182 134.827179 
L 362.020364 147.297473 
L 362.286545 168.815816 
L 362.552727 177.354259 
L 362.818909 178.366369 
L 363.085091 171.199906 
L 363.617455 137.192098 
L 363.883636 122.267296 
L 364.416 160.942774 
L 364.682182 170.841328 
L 365.480727 143.726316 
L 365.746909 138.454341 
L 366.013091 138.958716 
L 366.545455 170.669021 
L 366.811636 177.755341 
L 367.344 144.98935 
L 367.610182 139.814479 
L 367.876364 140.558338 
L 368.142545 143.078489 
L 368.408727 169.743674 
L 368.674909 179.839455 
L 368.941091 178.627519 
L 369.473455 143.166095 
L 369.739636 142.284349 
L 370.005818 142.438756 
L 370.272 139.009664 
L 370.804364 153.307865 
L 371.070545 158.545587 
L 371.336727 152.884688 
L 371.602909 138.139066 
L 372.135273 130.709934 
L 372.401455 119.16475 
L 372.667636 135.53949 
L 372.933818 141.252197 
L 373.2 140.090428 
L 373.466182 136.064054 
L 373.732364 126.42385 
L 373.998545 110.981699 
L 374.264727 111.797698 
L 374.530909 114.638496 
L 374.797091 131.742278 
L 375.063273 133.261949 
L 375.329455 131.633043 
L 375.595636 129.157819 
L 376.128 119.993705 
L 376.660364 124.842064 
L 376.926545 137.611517 
L 377.192727 140.905531 
L 377.725091 132.884753 
L 377.991273 130.834267 
L 378.257455 131.249719 
L 378.523636 126.786949 
L 378.789818 118.151086 
L 379.056 135.871901 
L 379.322182 138.322827 
L 379.588364 136.983898 
L 379.854545 138.544651 
L 380.120727 137.252579 
L 380.386909 137.395276 
L 380.653091 124.825368 
L 380.919273 122.151828 
L 381.185455 140.476631 
L 381.451636 143.183476 
L 381.717818 143.440465 
L 382.250182 140.53857 
L 382.516364 141.687523 
L 382.782545 138.48201 
L 383.048727 129.969428 
L 383.314909 146.745943 
L 383.847273 153.128808 
L 384.113455 145.556874 
L 384.379636 131.909853 
L 384.645818 133.522432 
L 385.178182 138.828536 
L 385.444364 150.850442 
L 385.710545 174.302372 
L 385.976727 168.15089 
L 386.775273 125.319033 
L 387.041455 128.194067 
L 387.307636 133.729385 
L 387.573818 143.182615 
L 387.84 160.533941 
L 388.106182 149.469571 
L 388.638545 138.997778 
L 389.170909 135.214717 
L 389.437091 137.12354 
L 389.703273 146.686041 
L 389.969455 163.016416 
L 390.501818 135.90194 
L 390.768 140.063866 
L 391.034182 138.191963 
L 391.300364 122.6805 
L 392.098909 174.589092 
L 392.365091 161.679505 
L 392.897455 123.238 
L 393.429818 127.12345 
L 393.696 141.110115 
L 393.962182 171.650136 
L 394.228364 180.44232 
L 394.494545 181.322074 
L 394.760727 168.889623 
L 395.026909 139.34678 
L 395.293091 124.462287 
L 395.559273 122.525373 
L 395.825455 130.45844 
L 396.357818 176.843257 
L 396.624 180.35101 
L 396.890182 181.7066 
L 397.688727 136.449397 
L 397.954909 122.056814 
L 398.753455 171.933811 
L 399.285818 140.44891 
L 399.818182 147.85708 
L 400.084364 145.768392 
L 400.616727 155.869694 
L 400.882909 159.031597 
L 401.415273 129.746445 
L 401.681455 137.427141 
L 401.947636 148.797991 
L 402.213818 152.184035 
L 402.48 160.456465 
L 402.746182 179.061168 
L 403.012364 177.255838 
L 403.544727 135.903713 
L 403.810909 130.24141 
L 404.077091 141.573372 
L 404.343273 145.982192 
L 404.875636 148.989354 
L 405.141818 148.3844 
L 405.408 144.550425 
L 405.674182 136.584317 
L 405.940364 139.583403 
L 406.206545 140.56745 
L 406.472727 135.931908 
L 406.738909 137.574509 
L 407.005091 136.131628 
L 407.537455 113.86983 
L 407.803636 110.745497 
L 408.069818 111.392815 
L 408.336 111.243815 
L 408.868364 136.453224 
L 409.134545 133.702349 
L 409.666909 120.853383 
L 409.933091 109.542682 
L 410.199273 111.227294 
L 410.465455 117.868184 
L 410.997818 140.102788 
L 411.264 140.942645 
L 411.530182 135.338541 
L 411.796364 132.249637 
L 412.062545 115.014605 
L 412.328727 112.577969 
L 412.594909 113.452939 
L 412.861091 118.931006 
L 413.127273 136.317216 
L 413.393455 139.020724 
L 413.659636 136.87849 
L 413.925818 137.158214 
L 414.458182 120.567708 
L 414.724364 120.358191 
L 414.990545 117.744746 
L 415.256727 134.126859 
L 415.522909 133.168375 
L 415.789091 133.418622 
L 416.055273 130.341235 
L 416.321455 120.925944 
L 416.587636 127.704492 
L 416.853818 140.422874 
L 417.12 137.013287 
L 417.386182 139.939163 
L 417.918545 136.193075 
L 418.450909 112.46826 
L 418.717091 119.279165 
L 418.983273 134.970158 
L 419.515636 149.921259 
L 419.781818 158.331593 
L 420.580364 114.142532 
L 420.846545 112.14166 
L 421.378909 130.076047 
L 421.911273 151.705293 
L 422.443636 128.69981 
L 422.709818 121.062321 
L 422.976 119.453253 
L 423.508364 140.135425 
L 424.040727 156.242256 
L 424.306909 139.545569 
L 424.573091 115.868068 
L 424.839273 117.564285 
L 425.105455 126.315984 
L 425.371636 115.018783 
L 425.904 150.804287 
L 426.170182 151.761982 
L 426.436364 134.532392 
L 426.436364 134.532392 
" clip-path="url(#pccc5594384)" style="fill: none; stroke: #ff0000; stroke-width: 3; stroke-linecap: square"/>
   </g>
   <g id="line2d_3">
    <path d="M 27.163636 282.307038 
L 27.429818 278.492276 
L 27.962182 189.127226 
L 28.228364 28.14934 
L 28.494545 23.013339 
L 29.026909 111.624874 
L 29.293091 201.364171 
L 29.559273 204.19678 
L 29.825455 187.922093 
L 30.091636 164.396269 
L 30.357818 21.927273 
L 30.624 23.558462 
L 30.890182 112.252827 
L 31.156364 150.766734 
L 31.422545 139.551029 
L 31.688727 162.732355 
L 31.954909 172.693023 
L 32.221091 162.833357 
L 32.487273 179.163064 
L 32.753455 143.289323 
L 33.019636 151.564123 
L 33.285818 179.71894 
L 33.552 165.180824 
L 33.818182 164.198445 
L 34.084364 175.364211 
L 34.616727 178.714633 
L 34.882909 179.44716 
L 35.415273 171.611241 
L 35.681455 178.032721 
L 35.947636 153.146979 
L 36.213818 163.89811 
L 36.48 168.472854 
L 37.012364 152.394464 
L 37.278545 176.358511 
L 37.544727 184.068912 
L 37.810909 203.468633 
L 38.077091 207.094188 
L 38.343273 203.014628 
L 38.609455 186.371584 
L 38.875636 177.572922 
L 39.141818 195.031622 
L 39.408 231.805807 
L 39.674182 232.139666 
L 40.206545 189.806277 
L 40.472727 181.897604 
L 41.005091 190.566358 
L 41.271273 211.216332 
L 41.537455 241.464753 
L 41.803636 251.348503 
L 42.069818 243.29417 
L 42.336 202.02757 
L 42.602182 185.519639 
L 43.134545 189.777914 
L 43.933091 240.752846 
L 44.199273 240.791294 
L 44.465455 227.348409 
L 44.731636 198.186397 
L 44.997818 194.659569 
L 45.264 158.45519 
L 45.530182 176.669151 
L 46.062545 237.735361 
L 46.328727 258.588308 
L 46.594909 253.157032 
L 46.861091 227.266 
L 47.127273 213.470075 
L 47.393455 191.763073 
L 47.925818 243.648126 
L 48.192 249.136148 
L 48.458182 239.210553 
L 48.724364 223.295744 
L 48.990545 191.734245 
L 49.256727 182.384237 
L 49.522909 181.718626 
L 50.321455 239.236388 
L 50.853818 213.132424 
L 51.386182 186.543513 
L 51.652364 192.546566 
L 51.918545 190.026143 
L 52.184727 222.856592 
L 52.450909 226.865208 
L 52.717091 222.837078 
L 53.249455 188.251054 
L 53.515636 186.238446 
L 53.781818 166.07428 
L 54.048 174.178609 
L 54.846545 226.967315 
L 55.112727 228.126872 
L 55.378909 220.80737 
L 55.911273 183.330617 
L 56.177455 201.630473 
L 56.443636 233.734373 
L 56.709818 227.47463 
L 56.976 208.920033 
L 57.242182 200.114884 
L 57.508364 182.931765 
L 57.774545 176.607467 
L 58.040727 176.587936 
L 58.306909 176.750007 
L 58.573091 219.088839 
L 58.839273 233.726192 
L 59.371636 220.417884 
L 59.637818 192.587577 
L 59.904 187.387662 
L 60.170182 192.009967 
L 60.436364 180.159234 
L 60.702545 208.658172 
L 60.968727 215.71741 
L 61.234909 211.364454 
L 61.767273 234.8963 
L 62.299636 206.015232 
L 62.565818 208.526552 
L 62.832 221.504776 
L 63.098182 225.618141 
L 63.630545 262.392582 
L 63.896727 246.064441 
L 64.429091 229.852426 
L 64.695273 239.159754 
L 64.961455 243.543557 
L 65.493818 220.042742 
L 65.76 237.097445 
L 66.026182 236.798523 
L 66.292364 223.728243 
L 66.558545 218.823608 
L 67.090909 228.705711 
L 67.357091 218.414318 
L 67.623273 219.132352 
L 67.889455 234.133111 
L 68.155636 263.554241 
L 68.421818 245.092016 
L 68.954182 229.534561 
L 69.220364 254.031532 
L 69.486545 225.69869 
L 69.752727 220.808617 
L 70.018909 236.181323 
L 70.285091 241.81853 
L 70.817455 222.685444 
L 71.083636 221.234093 
L 71.349818 251.441279 
L 71.616 240.092511 
L 71.882182 264.269572 
L 72.148364 262.0563 
L 72.414545 275.200746 
L 72.946909 238.014874 
L 73.213091 256.997687 
L 73.479273 262.445488 
L 73.745455 258.618153 
L 74.011636 274.653561 
L 74.277818 262.427444 
L 74.544 264.681104 
L 74.810182 268.51521 
L 75.076364 239.172219 
L 75.342545 239.097517 
L 75.608727 261.249089 
L 75.874909 257.539882 
L 76.141091 268.418489 
L 76.407273 261.042052 
L 76.673455 270.350263 
L 76.939636 267.848998 
L 77.205818 254.67809 
L 77.472 250.545768 
L 77.738182 265.525021 
L 78.004364 264.164282 
L 78.270545 266.801814 
L 78.536727 258.520167 
L 79.069091 254.584414 
L 79.335273 231.582456 
L 79.601455 224.259505 
L 80.4 266.054207 
L 80.666182 267.761357 
L 80.932364 267.978498 
L 81.198545 265.703419 
L 81.464727 250.317278 
L 81.730909 255.605724 
L 81.997091 249.614702 
L 82.529455 215.2406 
L 82.795636 224.173822 
L 83.061818 248.944983 
L 83.594182 220.644325 
L 83.860364 231.231322 
L 84.126545 230.387207 
L 84.392727 198.092602 
L 84.658909 192.964431 
L 84.925091 190.687523 
L 85.457455 218.894825 
L 85.723636 207.87949 
L 85.989818 203.286732 
L 86.522182 165.680511 
L 87.054545 169.339072 
L 87.320727 168.864745 
L 87.586909 200.871445 
L 88.385455 174.088501 
L 88.651636 157.138627 
L 88.917818 150.394892 
L 89.184 121.475455 
L 89.450182 112.51826 
L 89.716364 164.209927 
L 89.982545 182.83467 
L 90.248727 190.301952 
L 90.514909 209.574039 
L 90.781091 183.069152 
L 91.579636 157.003461 
L 91.845818 188.329583 
L 92.112 189.796269 
L 92.644364 172.319075 
L 93.176727 71.014694 
L 93.442909 23.903723 
L 93.709091 41.309175 
L 93.975273 147.860503 
L 94.241455 192.341227 
L 94.773818 217.236617 
L 95.306182 109.067381 
L 95.572364 71.353214 
L 95.838545 77.409427 
L 96.104727 171.904992 
L 96.370909 193.92986 
L 96.903273 212.735679 
L 97.169455 208.08912 
L 97.701818 168.080226 
L 97.968 183.903444 
L 98.234182 210.813872 
L 98.500364 213.445777 
L 98.766545 230.951493 
L 99.565091 143.090726 
L 99.831273 146.448136 
L 100.097455 188.686959 
L 100.629818 207.64923 
L 101.162182 243.195249 
L 101.428364 255.171764 
L 101.694545 250.798456 
L 101.960727 230.62808 
L 102.226909 226.959801 
L 102.493091 226.426266 
L 102.759273 224.034451 
L 103.291636 274.045679 
L 104.090182 243.892571 
L 104.356364 241.147099 
L 104.888727 217.3649 
L 105.421091 275.36387 
L 105.687273 259.24798 
L 106.219636 255.758859 
L 106.485818 265.528339 
L 106.752 236.18702 
L 107.018182 230.342737 
L 107.284364 277.533106 
L 107.550545 264.557367 
L 108.082909 261.280067 
L 108.349091 259.042361 
L 108.615273 252.939773 
L 108.881455 253.173223 
L 109.147636 245.887425 
L 109.413818 266.23738 
L 109.68 263.437698 
L 109.946182 263.933821 
L 110.212364 263.182324 
L 110.744727 254.766578 
L 111.010909 263.702728 
L 111.277091 244.942129 
L 111.543273 268.399725 
L 111.809455 269.71178 
L 112.075636 250.478019 
L 112.341818 250.950708 
L 112.608 250.94883 
L 112.874182 249.336799 
L 113.140364 253.285017 
L 113.406545 246.140222 
L 113.672727 247.113077 
L 113.938909 235.580477 
L 114.205091 241.619178 
L 114.471273 243.150476 
L 114.737455 240.546024 
L 115.003636 240.056898 
L 115.269818 243.538694 
L 115.536 253.066819 
L 115.802182 254.482004 
L 116.068364 236.468298 
L 116.334545 229.464151 
L 116.600727 233.303305 
L 117.133091 254.236497 
L 117.399273 226.243408 
L 117.665455 225.347862 
L 118.197818 247.411231 
L 118.464 263.622658 
L 118.730182 259.791672 
L 119.262545 226.151483 
L 119.528727 229.426159 
L 119.794909 203.58518 
L 120.327273 250.187787 
L 120.593455 236.056191 
L 120.859636 232.290378 
L 121.125818 237.974811 
L 121.392 208.827818 
L 121.924364 188.383077 
L 122.190545 202.274806 
L 122.456727 228.0878 
L 122.989091 223.971284 
L 123.521455 212.533018 
L 124.053818 189.187339 
L 124.586182 232.107898 
L 124.852364 225.694204 
L 125.118545 224.227921 
L 125.384727 221.443557 
L 125.650909 220.267708 
L 126.183273 175.616407 
L 126.981818 219.265727 
L 127.248 219.741801 
L 127.514182 212.831071 
L 127.780364 184.075618 
L 128.046545 187.434704 
L 128.312727 200.143097 
L 128.845091 244.413168 
L 129.377455 211.686753 
L 129.643636 208.081782 
L 129.909818 199.177361 
L 130.176 213.431689 
L 130.442182 197.260663 
L 130.708364 234.413116 
L 130.974545 233.787753 
L 131.240727 227.957366 
L 131.506909 226.164317 
L 131.773091 228.386213 
L 132.305455 242.46906 
L 132.837818 273.32165 
L 133.104 281.106384 
L 133.370182 233.864149 
L 133.636364 228.72921 
L 133.902545 242.200115 
L 134.168727 268.966473 
L 134.434909 247.323028 
L 134.701091 247.254611 
L 134.967273 261.587644 
L 135.233455 246.945331 
L 135.499636 284.073491 
L 135.765818 286.343358 
L 136.032 262.324573 
L 136.298182 270.881046 
L 136.564364 243.857915 
L 136.830545 232.412342 
L 137.096727 251.429547 
L 137.362909 253.864984 
L 137.629091 251.403226 
L 137.895273 245.623774 
L 138.161455 253.585098 
L 138.427636 265.549363 
L 138.693818 235.196302 
L 138.96 231.27904 
L 139.226182 250.976599 
L 139.492364 258.390014 
L 139.758545 257.698485 
L 140.024727 259.970127 
L 140.290909 261.253315 
L 140.557091 270.714191 
L 140.823273 240.42536 
L 141.089455 227.785534 
L 141.355636 255.595691 
L 141.621818 261.875062 
L 141.888 262.245596 
L 142.154182 261.231984 
L 142.420364 262.621722 
L 142.686545 271.048033 
L 142.952727 258.50765 
L 143.218909 235.407732 
L 143.751273 261.348347 
L 144.017455 262.607089 
L 144.283636 263.191985 
L 144.816 270.591174 
L 145.348364 239.423643 
L 145.614545 256.182466 
L 145.880727 260.133716 
L 146.146909 261.32423 
L 146.413091 261.35681 
L 146.679273 260.43974 
L 146.945455 258.919226 
L 147.211636 247.585543 
L 147.744 259.197497 
L 148.010182 260.931987 
L 148.276364 258.239526 
L 148.542545 258.602116 
L 148.808727 257.993426 
L 149.341091 238.352991 
L 149.607273 244.995478 
L 150.139636 266.732213 
L 150.405818 247.377203 
L 151.204364 257.376569 
L 151.470545 262.031704 
L 151.736727 233.743792 
L 152.002909 227.324866 
L 152.269091 243.686908 
L 152.535273 280.043557 
L 152.801455 276.725961 
L 153.333818 253.982598 
L 153.866182 171.60744 
L 154.132364 176.302778 
L 154.664727 227.404563 
L 154.930909 227.835964 
L 155.197091 249.366509 
L 155.463273 232.020793 
L 155.995636 165.633864 
L 156.261818 158.822643 
L 156.794182 214.071755 
L 157.060364 235.940188 
L 157.592727 242.186527 
L 158.125091 175.666381 
L 158.391273 171.112379 
L 158.923636 237.289159 
L 159.189818 223.398159 
L 159.456 230.186443 
L 159.722182 241.929362 
L 159.988364 177.219277 
L 160.254545 168.586654 
L 160.520727 152.413039 
L 161.053091 227.452711 
L 161.319273 212.871275 
L 161.851636 251.111295 
L 162.117818 193.091047 
L 162.384 173.514034 
L 162.650182 176.331439 
L 163.182545 215.763619 
L 163.448727 222.625674 
L 163.714909 226.556322 
L 163.981091 238.824421 
L 164.513455 154.297249 
L 164.779636 150.327915 
L 165.045818 198.645757 
L 165.578182 247.452339 
L 165.844364 250.725865 
L 166.376727 241.088891 
L 166.642909 216.494135 
L 166.909091 210.467215 
L 167.175273 280.114184 
L 167.441455 278.949025 
L 167.707636 251.942471 
L 168.24 266.035 
L 168.506182 266.730988 
L 168.772364 234.40885 
L 169.038545 224.585156 
L 169.570909 288.911064 
L 170.103273 259.278454 
L 170.369455 268.656991 
L 170.635636 264.336764 
L 170.901818 229.122506 
L 171.168 218.832351 
L 171.434182 253.324896 
L 171.700364 260.738886 
L 171.966545 260.745957 
L 172.232727 260.510167 
L 172.498909 261.328153 
L 173.031273 224.962818 
L 173.297455 230.015541 
L 173.563636 260.604198 
L 173.829818 261.842043 
L 174.096 260.937654 
L 174.362182 261.120375 
L 174.628364 261.661964 
L 174.894545 250.246346 
L 175.160727 229.077676 
L 175.693091 262.838937 
L 175.959273 263.427287 
L 176.225455 265.385018 
L 176.757818 272.274084 
L 177.024 256.180504 
L 177.290182 227.655345 
L 177.556364 232.673974 
L 177.822545 259.762476 
L 178.088727 262.138165 
L 178.354909 262.271505 
L 178.621091 265.062514 
L 178.887273 269.344999 
L 179.153455 259.899437 
L 179.419636 245.667722 
L 179.685818 241.669802 
L 179.952 256.499479 
L 180.218182 260.391868 
L 180.484364 259.76798 
L 180.750545 258.501514 
L 181.282909 240.568707 
L 181.549091 240.600791 
L 181.815273 240.462114 
L 182.081455 257.422255 
L 182.347636 256.812029 
L 182.613818 247.052618 
L 182.88 247.175323 
L 183.678545 235.481109 
L 183.944727 242.069488 
L 184.210909 265.454993 
L 184.477091 247.595537 
L 185.009455 240.423473 
L 185.275636 243.327066 
L 185.541818 260.439674 
L 185.808 231.174449 
L 186.074182 217.814885 
L 186.340364 241.662112 
L 186.606545 286.7023 
L 186.872727 255.15365 
L 187.138909 209.168147 
L 187.405091 213.074269 
L 187.671273 248.679321 
L 188.203636 203.861639 
L 188.736 196.288405 
L 189.534545 112.997933 
L 189.800727 104.001464 
L 190.066909 119.551515 
L 190.333091 111.622697 
L 190.599273 111.260914 
L 190.865455 114.134368 
L 191.131636 93.530567 
L 191.397818 96.015096 
L 191.664 96.928602 
L 192.196364 136.014774 
L 192.462545 109.093364 
L 192.728727 127.510548 
L 192.994909 159.603212 
L 193.261091 168.738516 
L 194.059636 133.194059 
L 194.325818 143.143289 
L 194.592 112.997423 
L 194.858182 129.18245 
L 195.124364 216.488342 
L 195.390545 220.623416 
L 195.922909 236.026828 
L 196.189091 254.559686 
L 196.721455 222.38072 
L 196.987636 243.278655 
L 197.253818 234.027098 
L 197.786182 245.501336 
L 198.052364 244.294557 
L 198.318545 241.85402 
L 198.584727 243.389891 
L 198.850909 243.696652 
L 199.117091 239.910689 
L 199.383273 243.838946 
L 199.649455 242.956804 
L 200.181818 246.626746 
L 200.448 251.21443 
L 200.714182 246.103819 
L 200.980364 251.908179 
L 201.246545 290.272872 
L 201.512727 264.681824 
L 201.778909 255.14219 
L 202.045091 255.562711 
L 202.311273 253.149531 
L 202.843636 271.990076 
L 203.109818 253.658966 
L 203.376 256.089316 
L 203.642182 261.236237 
L 203.908364 262.196649 
L 204.174545 262.664041 
L 204.440727 262.119169 
L 204.973091 255.618255 
L 205.239273 245.363015 
L 205.505455 258.646805 
L 205.771636 261.161136 
L 206.037818 262.357061 
L 206.304 262.616236 
L 206.570182 263.126917 
L 206.836364 264.331119 
L 207.102545 260.221985 
L 207.368727 260.20474 
L 207.634909 265.745835 
L 208.167273 265.239297 
L 208.699636 265.677822 
L 209.232 269.765213 
L 209.498182 266.079453 
L 209.764364 266.289254 
L 210.030545 266.225964 
L 210.562909 264.813882 
L 210.829091 265.207331 
L 211.627636 256.105279 
L 211.893818 264.807219 
L 212.16 264.425362 
L 212.426182 264.525165 
L 212.692364 262.359321 
L 212.958545 262.38782 
L 213.224727 261.124523 
L 213.490909 254.950129 
L 213.757091 252.761555 
L 214.023273 259.780414 
L 214.289455 260.237724 
L 214.821818 259.880884 
L 215.088 259.892814 
L 215.620364 256.204683 
L 216.152727 260.3295 
L 216.418909 260.360473 
L 216.951273 257.634185 
L 217.217455 252.766054 
L 217.483636 251.996224 
L 217.749818 248.941699 
L 218.016 249.142767 
L 218.282182 258.450728 
L 218.548364 257.429532 
L 218.814545 254.392783 
L 219.080727 255.473354 
L 219.346909 252.462633 
L 219.613091 245.647914 
L 219.879273 245.269844 
L 220.145455 245.621987 
L 220.411636 244.60253 
L 220.677818 251.857916 
L 220.944 247.612566 
L 221.210182 263.607542 
L 221.476364 259.482629 
L 222.008727 243.957288 
L 222.274909 242.995805 
L 222.541091 242.679226 
L 222.807273 245.839764 
L 223.073455 239.252083 
L 223.339636 238.643775 
L 223.605818 241.232642 
L 223.872 247.831221 
L 224.138182 250.444104 
L 224.404364 246.732295 
L 224.670545 245.635089 
L 224.936727 258.754127 
L 225.202909 253.481454 
L 225.735273 256.184888 
L 226.001455 249.335136 
L 226.267636 256.220659 
L 226.8 213.761571 
L 227.066182 222.577438 
L 227.332364 255.831498 
L 227.598545 260.020505 
L 227.864727 255.915242 
L 228.130909 261.109683 
L 228.397091 261.921319 
L 228.663273 260.341359 
L 228.929455 234.162193 
L 229.195636 233.288057 
L 229.461818 236.914008 
L 229.728 238.543037 
L 230.260364 262.364764 
L 230.526545 258.966343 
L 230.792727 259.496042 
L 231.058909 246.098188 
L 231.325091 245.011121 
L 231.591273 245.141033 
L 232.123636 261.934078 
L 232.389818 260.512822 
L 232.656 265.685134 
L 232.922182 262.163305 
L 233.188364 279.603286 
L 233.454545 261.286093 
L 233.720727 267.575151 
L 233.986909 268.537393 
L 234.253091 271.576319 
L 234.785455 262.986695 
L 235.051636 272.713092 
L 235.317818 291.114814 
L 235.584 266.11047 
L 235.850182 271.524093 
L 236.116364 267.67322 
L 236.382545 267.539542 
L 236.648727 269.399432 
L 236.914909 269.405678 
L 237.181091 269.183262 
L 237.447273 269.330028 
L 237.979636 272.762631 
L 238.245818 267.416587 
L 238.512 266.801051 
L 238.778182 273.438105 
L 239.044364 273.945582 
L 239.310545 274.001332 
L 239.576727 273.705693 
L 239.842909 273.205616 
L 240.109091 273.040003 
L 240.375273 272.474348 
L 240.641455 272.523155 
L 241.173818 274.181508 
L 241.44 274.162648 
L 241.972364 273.522151 
L 242.238545 273.679934 
L 242.504727 272.946077 
L 242.770909 273.120209 
L 243.037091 273.702682 
L 243.303273 273.51386 
L 243.569455 272.451907 
L 243.835636 271.870777 
L 244.101818 271.766273 
L 244.368 270.969332 
L 244.634182 268.847217 
L 245.166545 268.455409 
L 245.432727 267.654031 
L 245.698909 264.922775 
L 245.965091 263.655449 
L 246.231273 263.687857 
L 246.497455 262.170986 
L 246.763636 258.646761 
L 247.029818 258.269279 
L 247.562182 252.11221 
L 247.828364 251.900775 
L 248.094545 252.312298 
L 248.360727 253.368576 
L 248.893091 257.608588 
L 249.159273 257.078437 
L 249.425455 257.433912 
L 249.691636 256.660532 
L 249.957818 256.667567 
L 250.490182 268.989537 
L 250.756364 268.411023 
L 251.288727 264.479729 
L 251.821091 264.90129 
L 252.353455 306.30431 
L 252.619636 252.824722 
L 252.885818 274.170583 
L 253.418182 257.81027 
L 253.684364 266.819985 
L 254.216727 246.336778 
L 254.482909 232.938275 
L 255.281455 266.432768 
L 255.547636 260.647159 
L 256.346182 215.036016 
L 256.878545 210.341161 
L 257.144727 202.554355 
L 257.410909 208.074136 
L 257.677091 241.887227 
L 257.943273 254.678463 
L 258.209455 216.680337 
L 258.475636 214.206658 
L 258.741818 222.479781 
L 259.008 222.042182 
L 259.274182 225.95904 
L 259.540364 242.145392 
L 259.806545 246.647353 
L 260.072727 239.774672 
L 260.338909 244.4444 
L 260.605091 263.93088 
L 260.871273 222.456458 
L 261.137455 232.873536 
L 261.403636 276.678405 
L 261.669818 278.126693 
L 261.936 263.710891 
L 262.202182 259.578714 
L 262.468364 247.640753 
L 262.734545 253.468261 
L 263.000727 250.067136 
L 263.266909 238.697849 
L 263.533091 246.256919 
L 263.799273 258.304515 
L 264.065455 265.046283 
L 264.597818 255.292582 
L 265.130182 259.428481 
L 265.396364 259.445576 
L 265.662545 257.513095 
L 265.928727 260.613113 
L 266.194909 285.844628 
L 266.461091 288.76928 
L 266.993455 261.022521 
L 267.259636 260.209143 
L 267.525818 261.940306 
L 267.792 264.886653 
L 268.058182 266.58452 
L 268.324364 265.019703 
L 268.590545 262.226464 
L 268.856727 263.007916 
L 269.122909 262.490037 
L 269.389091 264.880903 
L 269.655273 270.263763 
L 269.921455 272.23079 
L 270.986182 260.682499 
L 271.518545 261.186439 
L 271.784727 263.346994 
L 272.050909 268.566659 
L 272.317091 267.925399 
L 272.583273 266.487733 
L 272.849455 262.739783 
L 273.115636 263.865931 
L 273.381818 267.771628 
L 273.648 268.158625 
L 273.914182 264.603646 
L 274.180364 262.951635 
L 274.446545 259.976439 
L 274.712727 259.291331 
L 275.511273 265.320565 
L 275.777455 266.314386 
L 276.043636 266.571722 
L 276.309818 267.01069 
L 276.576 266.379669 
L 276.842182 264.538411 
L 277.108364 264.218 
L 277.374545 266.462882 
L 277.640727 265.150884 
L 277.906909 265.548406 
L 278.173091 269.384176 
L 278.439273 270.893735 
L 278.705455 270.442499 
L 279.237818 264.99095 
L 279.770182 269.537324 
L 280.036364 267.871703 
L 280.302545 267.603087 
L 280.568727 270.311578 
L 280.834909 269.886373 
L 281.367273 261.05636 
L 281.633455 262.64598 
L 282.165818 270.511579 
L 282.432 270.7892 
L 282.698182 269.328079 
L 282.964364 269.106624 
L 283.230545 270.687295 
L 283.496727 274.440024 
L 283.762909 271.34153 
L 284.029091 262.105484 
L 284.295273 260.348509 
L 284.561455 263.000604 
L 284.827636 263.815518 
L 285.093818 260.638486 
L 285.36 263.821966 
L 285.626182 245.440363 
L 285.892364 263.06263 
L 286.158545 305.346816 
L 286.424727 246.560533 
L 286.957091 257.476016 
L 287.223273 246.773227 
L 287.489455 246.254523 
L 287.755636 231.652409 
L 288.021818 195.34163 
L 288.554182 230.765036 
L 288.820364 228.747978 
L 289.352727 221.233961 
L 289.618909 182.454392 
L 289.885091 98.774873 
L 290.151273 72.692582 
L 290.417455 64.463078 
L 290.683636 78.900851 
L 291.216 135.226655 
L 291.482182 129.026234 
L 291.748364 93.097436 
L 292.280727 72.380151 
L 292.546909 81.687857 
L 292.813091 130.059983 
L 293.079273 207.772949 
L 293.345455 228.713058 
L 293.611636 229.423087 
L 293.877818 214.800051 
L 294.410182 91.460541 
L 294.676364 85.811423 
L 294.942545 104.760615 
L 295.474909 237.994044 
L 295.741091 230.573585 
L 296.007273 213.22779 
L 296.273455 144.232411 
L 296.539636 110.882542 
L 296.805818 142.081258 
L 297.072 228.731124 
L 297.338182 241.434381 
L 297.604364 262.594733 
L 297.870545 260.691062 
L 298.136727 255.118639 
L 298.402909 242.821529 
L 298.669091 290.024336 
L 299.201455 245.900513 
L 299.733818 260.622224 
L 300 256.121637 
L 300.532364 306.610918 
L 300.798545 310.564709 
L 301.064727 291.807883 
L 301.330909 254.666845 
L 301.863273 267.765399 
L 302.129455 269.503098 
L 302.395636 265.589299 
L 302.661818 247.305722 
L 302.928 283.105234 
L 303.194182 274.079874 
L 303.460364 257.983375 
L 303.726545 259.626783 
L 303.992727 266.016114 
L 304.258909 261.531947 
L 304.525091 260.882694 
L 304.791273 258.469004 
L 305.057455 258.182033 
L 305.323636 259.640346 
L 305.856 263.461847 
L 306.122182 268.014795 
L 306.388364 262.422467 
L 306.654545 260.731486 
L 306.920727 258.163713 
L 307.186909 259.26903 
L 307.453091 260.945128 
L 307.719273 268.840458 
L 307.985455 269.223172 
L 308.251636 266.014832 
L 308.517818 259.975192 
L 308.784 257.822692 
L 309.316364 260.398329 
L 309.582545 261.075176 
L 310.114909 268.335974 
L 310.381091 267.639859 
L 310.913455 258.772201 
L 311.179636 258.710271 
L 311.712 259.880116 
L 311.978182 262.808266 
L 312.244364 267.804567 
L 312.510545 269.004605 
L 312.776727 264.611283 
L 313.042909 262.898602 
L 313.309091 258.96755 
L 313.575273 259.427019 
L 313.841455 259.151109 
L 314.107636 257.851835 
L 314.373818 258.368626 
L 314.64 266.469922 
L 314.906182 267.410442 
L 315.172364 261.48296 
L 315.438545 258.237147 
L 315.704727 258.128043 
L 315.970909 258.249318 
L 316.237091 256.9727 
L 316.503273 257.786148 
L 316.769455 264.673542 
L 317.035636 265.878622 
L 317.301818 250.488245 
L 317.568 280.947971 
L 317.834182 273.893128 
L 318.100364 246.880004 
L 318.366545 254.681369 
L 318.898909 258.620576 
L 319.165091 239.990561 
L 319.431273 234.515882 
L 319.697455 237.369023 
L 319.963636 242.812373 
L 320.229818 238.4946 
L 320.496 236.508397 
L 321.028364 254.458724 
L 321.294545 236.917221 
L 321.560727 232.497902 
L 321.826909 225.683152 
L 322.093091 233.763157 
L 322.359273 230.983155 
L 322.625455 224.990311 
L 323.157818 225.503358 
L 323.424 231.292708 
L 323.690182 230.656556 
L 324.222545 223.391962 
L 324.488727 224.038129 
L 324.754909 226.445542 
L 325.553455 215.215494 
L 325.819636 193.623029 
L 326.085818 186.609823 
L 326.352 166.175124 
L 326.618182 167.978048 
L 326.884364 201.941465 
L 327.150545 220.851243 
L 327.416727 221.024462 
L 327.682909 216.3109 
L 327.949091 219.835876 
L 328.215273 252.064799 
L 328.481455 234.179205 
L 328.747636 225.960998 
L 329.013818 228.668966 
L 329.546182 243.691126 
L 329.812364 233.697865 
L 330.078545 238.863194 
L 330.344727 237.064957 
L 330.610909 239.691455 
L 330.877091 235.702309 
L 331.143273 235.283355 
L 331.409455 235.207248 
L 331.941818 248.792691 
L 332.208 246.566594 
L 332.474182 252.979327 
L 332.740364 289.554008 
L 333.006545 259.5911 
L 333.272727 243.497963 
L 333.538909 248.77132 
L 333.805091 270.877636 
L 334.071273 243.988314 
L 334.337455 247.171272 
L 334.603636 295.169528 
L 334.869818 294.388203 
L 335.402182 246.933059 
L 335.668364 251.174696 
L 336.200727 265.170261 
L 336.733091 255.206266 
L 336.999273 257.018162 
L 337.265455 257.45631 
L 337.531636 258.146377 
L 337.797818 256.078313 
L 338.064 256.799797 
L 338.330182 263.659653 
L 338.862545 259.688748 
L 339.128727 260.710427 
L 339.394909 259.033372 
L 339.661091 253.641168 
L 339.927273 252.649041 
L 340.193455 254.329501 
L 340.459636 259.370734 
L 340.725818 260.9676 
L 340.992 261.49191 
L 341.258182 261.707378 
L 341.524364 257.584106 
L 341.790545 248.735277 
L 342.056727 243.757757 
L 342.322909 244.831103 
L 342.855273 249.969918 
L 343.121455 251.331412 
L 343.387636 252.031929 
L 343.653818 251.335072 
L 344.452364 245.960301 
L 344.718545 245.976449 
L 345.783273 250.820147 
L 346.049455 250.735736 
L 346.581818 247.165448 
L 346.848 249.849697 
L 347.114182 248.033562 
L 347.380364 249.417676 
L 348.178909 256.131667 
L 348.711273 253.943944 
L 348.977455 254.258122 
L 349.243636 252.571179 
L 349.509818 255.46789 
L 349.776 257.045133 
L 350.042182 256.922401 
L 350.308364 258.504446 
L 350.840727 266.783218 
L 351.106909 265.31406 
L 351.373091 250.62866 
L 351.639273 294.821716 
L 351.905455 296.050767 
L 352.171636 255.63352 
L 352.437818 255.31767 
L 352.704 254.5861 
L 353.502545 225.875999 
L 354.034909 245.998144 
L 354.301091 243.563562 
L 354.567273 253.032668 
L 354.833455 269.241474 
L 355.099636 231.222588 
L 355.365818 222.927519 
L 355.632 223.171068 
L 355.898182 230.923288 
L 356.164364 235.290614 
L 356.430545 230.512647 
L 356.696727 217.510249 
L 357.229091 203.025732 
L 357.495273 206.197686 
L 357.761455 212.201283 
L 358.027636 225.029058 
L 358.293818 227.868145 
L 358.56 232.261358 
L 358.826182 229.660843 
L 359.092364 224.809253 
L 359.890909 184.286179 
L 360.423273 223.942149 
L 360.689455 234.716506 
L 360.955636 237.804261 
L 361.221818 243.003403 
L 361.488 242.398651 
L 362.020364 234.100395 
L 362.286545 250.965117 
L 362.552727 237.947704 
L 362.818909 236.923603 
L 363.085091 238.518696 
L 363.351273 241.19407 
L 363.617455 252.707174 
L 363.883636 252.882917 
L 364.149818 251.128027 
L 364.416 241.849999 
L 364.682182 247.028719 
L 364.948364 245.620855 
L 365.480727 261.298088 
L 365.746909 261.30023 
L 366.013091 251.925959 
L 366.279273 252.621965 
L 366.545455 260.55458 
L 366.811636 273.570352 
L 367.077818 264.436497 
L 367.344 251.170728 
L 367.876364 248.299574 
L 368.142545 252.198845 
L 368.408727 252.67175 
L 368.674909 265.913695 
L 368.941091 263.626608 
L 369.473455 254.44884 
L 369.739636 252.401993 
L 370.005818 258.617574 
L 370.272 256.85014 
L 370.804364 259.512123 
L 371.070545 259.919337 
L 371.336727 259.565358 
L 371.869091 255.972396 
L 372.135273 255.560618 
L 372.401455 257.015344 
L 372.667636 260.25568 
L 372.933818 261.078529 
L 373.2 260.609522 
L 373.466182 257.005952 
L 373.732364 250.107046 
L 373.998545 249.430207 
L 374.264727 250.058226 
L 374.530909 249.360921 
L 374.797091 249.581156 
L 375.063273 250.08661 
L 375.595636 248.754962 
L 375.861818 247.026275 
L 376.128 247.06198 
L 376.660364 249.790976 
L 377.192727 258.827047 
L 377.458909 258.609401 
L 377.725091 256.163031 
L 377.991273 251.521085 
L 378.257455 249.345577 
L 378.523636 249.359635 
L 378.789818 248.352866 
L 379.322182 258.056954 
L 379.854545 259.795697 
L 380.120727 259.628851 
L 380.386909 262.050498 
L 380.919273 257.504449 
L 381.185455 253.352179 
L 381.451636 259.842906 
L 381.717818 263.127167 
L 381.984 263.137789 
L 382.250182 264.765453 
L 382.516364 267.71669 
L 382.782545 267.410078 
L 383.048727 263.316749 
L 383.314909 262.853908 
L 383.847273 271.455303 
L 384.379636 263.089443 
L 384.645818 257.353667 
L 384.912 259.744345 
L 385.178182 275.801447 
L 385.444364 304.908822 
L 385.710545 316.472727 
L 385.976727 315.029558 
L 386.242909 289.950121 
L 386.509091 212.647397 
L 386.775273 192.932646 
L 387.041455 198.566604 
L 387.307636 215.813496 
L 387.573818 193.771256 
L 387.84 195.71155 
L 388.638545 120.064018 
L 388.904727 116.464753 
L 389.170909 121.522997 
L 389.437091 141.220824 
L 389.703273 132.303377 
L 390.235636 123.779471 
L 390.501818 109.836942 
L 391.034182 48.076961 
L 391.832727 103.943546 
L 392.098909 110.792618 
L 392.365091 125.462802 
L 392.631273 133.983653 
L 393.163636 116.702816 
L 393.429818 117.532069 
L 393.962182 158.483087 
L 394.494545 187.184326 
L 395.026909 165.409793 
L 395.293091 162.081825 
L 395.559273 172.810334 
L 396.357818 267.060686 
L 396.624 278.817598 
L 396.890182 267.875561 
L 397.156364 248.123467 
L 397.688727 238.721708 
L 398.221091 248.336464 
L 398.753455 269.101972 
L 399.285818 244.588199 
L 399.552 241.116586 
L 400.084364 250.282231 
L 400.350545 252.505391 
L 400.882909 266.031577 
L 401.681455 240.463598 
L 402.213818 246.588847 
L 402.746182 254.531008 
L 403.278545 249.223482 
L 403.544727 248.133382 
L 404.343273 249.266548 
L 404.875636 251.899239 
L 405.141818 251.982271 
L 405.408 251.71222 
L 405.674182 250.187186 
L 405.940364 249.954894 
L 406.206545 248.471187 
L 406.472727 242.427522 
L 406.738909 243.116461 
L 407.005091 245.910951 
L 407.271273 247.034342 
L 407.537455 243.665073 
L 407.803636 241.825789 
L 408.069818 242.152871 
L 408.336 241.271696 
L 408.602182 241.961183 
L 409.134545 246.347145 
L 409.400727 245.635787 
L 409.666909 245.333375 
L 409.933091 242.918716 
L 410.199273 242.71986 
L 410.465455 244.144262 
L 410.731636 244.927786 
L 411.264 251.864789 
L 411.530182 250.901028 
L 412.062545 243.293542 
L 412.328727 243.356429 
L 412.594909 243.202364 
L 412.861091 242.181506 
L 413.393455 249.254702 
L 413.659636 250.452637 
L 413.925818 249.604598 
L 414.192 245.667581 
L 414.724364 242.21007 
L 414.990545 241.713596 
L 415.522909 249.80923 
L 415.789091 252.433446 
L 416.321455 248.067327 
L 416.853818 244.513256 
L 417.12 244.474632 
L 417.386182 249.382077 
L 417.918545 264.044575 
L 418.184727 261.074092 
L 418.450909 228.663567 
L 418.717091 221.976882 
L 418.983273 228.260624 
L 419.515636 268.09795 
L 419.781818 287.464194 
L 420.048 281.053289 
L 420.580364 213.032713 
L 420.846545 195.90222 
L 421.112727 187.231991 
L 421.911273 255.714178 
L 422.177455 248.998582 
L 422.443636 245.745935 
L 422.709818 228.189627 
L 423.242182 208.804679 
L 423.774545 246.029881 
L 424.040727 228.389066 
L 424.573091 169.85621 
L 424.839273 134.718155 
L 425.105455 134.196751 
L 425.371636 166.161131 
L 425.637818 211.692836 
L 425.904 237.812775 
L 426.170182 230.260363 
L 426.436364 218.651354 
L 426.436364 218.651354 
" clip-path="url(#pccc5594384)" style="fill: none; stroke: #0000ff; stroke-width: 3; stroke-linecap: square"/>
   </g>
   <g id="patch_3">
    <path d="M 7.2 331.2 
L 7.2 7.2 
" style="fill: none; stroke: #000000; stroke-width: 0.8; stroke-linejoin: miter; stroke-linecap: square"/>
   </g>
   <g id="patch_4">
    <path d="M 446.4 331.2 
L 446.4 7.2 
" style="fill: none; stroke: #000000; stroke-width: 0.8; stroke-linejoin: miter; stroke-linecap: square"/>
   </g>
   <g id="patch_5">
    <path d="M 7.2 331.2 
L 446.4 331.2 
" style="fill: none; stroke: #000000; stroke-width: 0.8; stroke-linejoin: miter; stroke-linecap: square"/>
   </g>
   <g id="patch_6">
    <path d="M 7.2 7.2 
L 446.4 7.2 
" style="fill: none; stroke: #000000; stroke-width: 0.8; stroke-linejoin: miter; stroke-linecap: square"/>
   </g>
  </g>
 </g>
 <defs>
  <clipPath id="pccc5594384">
   <rect x="7.2" y="7.2" width="439.2" height="324"/>
  </clipPath>
 </defs>
</svg>
