<?xml version="1.0" encoding="utf-8" standalone="no"?>
<!DOCTYPE svg PUBLIC "-//W3C//DTD SVG 1.1//EN"
  "http://www.w3.org/Graphics/SVG/1.1/DTD/svg11.dtd">
<svg xmlns:xlink="http://www.w3.org/1999/xlink" width="453.6pt" height="338.4pt" viewBox="0 0 453.6 338.4" xmlns="http://www.w3.org/2000/svg" version="1.1">
 <metadata>
  <rdf:RDF xmlns:dc="http://purl.org/dc/elements/1.1/" xmlns:cc="http://creativecommons.org/ns#" xmlns:rdf="http://www.w3.org/1999/02/22-rdf-syntax-ns#">
   <cc:Work>
    <dc:type rdf:resource="http://purl.org/dc/dcmitype/StillImage"/>
    <dc:date>2025-05-15T17:11:46.156465</dc:date>
    <dc:format>image/svg+xml</dc:format>
    <dc:creator>
     <cc:Agent>
      <dc:title>Matplotlib v3.10.1, https://matplotlib.org/</dc:title>
     </cc:Agent>
    </dc:creator>
   </cc:Work>
  </rdf:RDF>
 </metadata>
 <defs>
  <style type="text/css">*{stroke-linejoin: round; stroke-linecap: butt}</style>
 </defs>
 <g id="figure_1">
  <g id="patch_1">
   <path d="M 0 338.4 
L 453.6 338.4 
L 453.6 0 
L 0 0 
z
" style="fill: #ffffff"/>
  </g>
  <g id="axes_1">
   <g id="patch_2">
    <path d="M 7.2 331.2 
L 446.4 331.2 
L 446.4 7.2 
L 7.2 7.2 
z
" style="fill: #ffffff"/>
   </g>
   <g id="matplotlib.axis_1"/>
   <g id="matplotlib.axis_2"/>
   <g id="line2d_1">
    <path d="M 27.163636 244.786644 
L 29.109952 216.677449 
L 31.056267 188.125052 
L 34.392808 137.187347 
L 34.948898 131.82887 
L 35.504989 128.455969 
L 35.783034 127.60215 
L 36.061079 127.331768 
L 36.339124 127.652165 
L 36.617169 128.559605 
L 37.173259 132.064692 
L 37.729349 137.600433 
L 38.563484 148.833979 
L 41.62198 195.063145 
L 42.456115 203.700847 
L 43.290251 210.000121 
L 44.124386 214.455601 
L 45.236566 218.82891 
L 46.626792 224.252106 
L 47.460927 228.393994 
L 48.573107 235.344601 
L 49.963332 245.977366 
L 52.465738 265.627174 
L 53.299873 270.494838 
L 53.855964 272.907731 
L 54.412054 274.59225 
L 54.968144 275.553847 
L 55.246189 275.779731 
L 55.524234 275.850396 
L 55.802279 275.780246 
L 56.358369 275.285226 
L 57.192504 273.944759 
L 58.58273 271.444008 
L 59.13882 270.760991 
L 59.69491 270.408139 
L 60.251 270.435035 
L 60.80709 270.853015 
L 61.363181 271.638723 
L 62.197316 273.389227 
L 63.309496 276.395903 
L 64.977767 280.981486 
L 65.811902 282.676996 
L 66.367992 283.372505 
L 66.924082 283.605751 
L 67.202127 283.520232 
L 67.480172 283.286578 
L 68.036262 282.346725 
L 68.592352 280.757063 
L 69.148443 278.540152 
L 69.982578 274.235683 
L 72.484984 260.074369 
L 73.041074 257.99192 
L 73.597164 256.589288 
L 74.153254 255.863834 
L 74.431299 255.729609 
L 74.987389 255.823929 
L 75.821524 256.473824 
L 76.377615 256.888949 
L 76.933705 257.007246 
L 77.21175 256.892104 
L 77.489795 256.636019 
L 78.045885 255.661091 
L 78.601975 254.063937 
L 79.43611 250.700867 
L 81.660471 240.762989 
L 82.494606 238.386266 
L 83.050696 237.356966 
L 83.606787 236.684145 
L 84.440922 236.115004 
L 85.275057 235.861602 
L 85.831147 235.882252 
L 86.387237 236.174593 
L 86.943327 236.906852 
L 87.499418 238.267668 
L 88.055508 240.420504 
L 88.611598 243.45897 
L 89.445733 249.618975 
L 90.835958 262.489236 
L 91.948139 272.125436 
L 92.782274 277.201016 
L 93.338364 279.172338 
L 93.616409 279.710504 
L 93.894454 279.956951 
L 94.172499 279.925053 
L 94.450544 279.634107 
L 95.006635 278.373192 
L 95.562725 276.399831 
L 96.674905 271.28074 
L 98.621221 262.234138 
L 100.845581 252.676546 
L 101.679716 247.836508 
L 102.513852 241.470733 
L 103.347987 233.251054 
L 104.460167 219.431388 
L 106.128438 194.661114 
L 108.074753 165.949292 
L 109.464978 148.92216 
L 110.577159 138.000639 
L 111.689339 129.234872 
L 113.35761 118.382041 
L 114.747835 108.756875 
L 115.860015 99.106809 
L 117.250241 84.459705 
L 119.196556 63.549561 
L 120.030691 56.632333 
L 120.586781 53.25209 
L 121.142872 51.057397 
L 121.420917 50.448201 
L 121.698962 50.184001 
L 121.977007 50.276905 
L 122.255052 50.736871 
L 122.533097 51.572101 
L 123.089187 54.389084 
L 123.645277 58.744212 
L 124.479413 68.087233 
L 125.313548 80.506458 
L 126.425728 100.810153 
L 130.318359 176.201427 
L 131.430539 191.235257 
L 132.264675 199.587293 
L 133.09881 205.544362 
L 133.6549 208.337132 
L 134.21099 210.344388 
L 134.76708 211.733539 
L 135.601215 213.073855 
L 136.991441 214.988572 
L 137.547531 216.181034 
L 138.103621 217.837003 
L 138.659711 220.051102 
L 139.493847 224.512313 
L 140.327982 230.289327 
L 141.718207 241.978225 
L 143.386478 256.045691 
L 144.220613 261.525964 
L 145.054748 265.371991 
L 145.610838 267.016927 
L 146.166928 268.044102 
L 146.723018 268.635009 
L 148.113244 269.669719 
L 148.669334 270.432352 
L 149.225424 271.577138 
L 150.059559 274.026135 
L 151.17174 278.255217 
L 153.3961 286.981035 
L 155.342416 293.526006 
L 156.176551 295.886887 
L 156.732641 297.0391 
L 157.010686 297.401655 
L 157.288731 297.571062 
L 157.566776 297.502866 
L 157.844821 297.148661 
L 158.122867 296.455641 
L 158.400912 295.368491 
L 158.957002 291.7831 
L 159.513092 285.941839 
L 160.069182 277.451542 
L 160.625272 266.047923 
L 161.459407 243.431623 
L 162.571588 204.994283 
L 164.239858 144.950108 
L 165.073993 123.141153 
L 165.630084 114.181209 
L 165.908129 111.607131 
L 166.186174 110.340012 
L 166.464219 110.368948 
L 166.742264 111.653239 
L 167.020309 114.125011 
L 167.576399 122.24157 
L 168.410534 140.43519 
L 171.190985 209.664913 
L 172.02512 224.032748 
L 172.859256 234.643146 
L 173.693391 242.358361 
L 174.805571 250.001043 
L 177.029932 262.85587 
L 178.142112 268.333953 
L 178.698202 270.287716 
L 179.254292 271.463391 
L 179.532337 271.720529 
L 179.810382 271.749142 
L 180.088427 271.552603 
L 180.644518 270.537641 
L 181.200608 268.859497 
L 182.868878 262.988163 
L 183.424968 261.902966 
L 183.703013 261.680731 
L 183.981058 261.697453 
L 184.259104 261.96249 
L 184.537149 262.476593 
L 185.093239 264.219069 
L 185.649329 266.790228 
L 186.761509 273.503081 
L 188.42978 283.693567 
L 189.263915 287.436108 
L 189.820005 289.206919 
L 190.376095 290.366409 
L 190.932185 290.919128 
L 191.21023 290.974961 
L 191.488276 290.889613 
L 192.044366 290.317918 
L 192.600456 289.258222 
L 193.434591 286.901827 
L 194.546771 282.727569 
L 196.215042 275.304996 
L 200.663763 254.608886 
L 201.497898 251.940381 
L 202.332033 250.029571 
L 203.166169 248.789219 
L 204.000304 248.020963 
L 205.112484 247.361795 
L 207.892935 245.860078 
L 208.449025 245.353595 
L 209.005115 244.609466 
L 209.561205 243.490181 
L 210.117296 241.833804 
L 210.673386 239.470712 
L 211.229476 236.240815 
L 212.063611 229.492436 
L 212.897746 220.242833 
L 213.731881 208.47155 
L 214.844062 189.230577 
L 216.512332 155.130226 
L 218.180603 121.646241 
L 219.014738 109.177731 
L 219.570828 103.809423 
L 219.848873 102.214738 
L 220.126918 101.419779 
L 220.404963 101.466831 
L 220.683008 102.383502 
L 220.961053 104.183699 
L 221.517144 110.40853 
L 222.073234 119.929759 
L 222.907369 139.34937 
L 224.297594 179.527448 
L 225.965865 226.671867 
L 227.078045 251.534594 
L 227.91218 265.837216 
L 228.746316 276.436301 
L 229.302406 281.493507 
L 229.858496 284.966954 
L 230.414586 286.875381 
L 230.692631 287.253671 
L 230.970676 287.258737 
L 231.248721 286.902707 
L 231.526766 286.201703 
L 232.082856 283.851662 
L 232.638947 280.431171 
L 233.751127 271.620327 
L 235.141352 260.830047 
L 235.697442 257.822577 
L 236.253533 256.050714 
L 236.531578 255.701188 
L 236.809623 255.736263 
L 237.087668 256.167831 
L 237.365713 257.000656 
L 237.921803 259.851384 
L 238.477893 264.177233 
L 239.312028 272.903652 
L 241.814434 302.278614 
L 242.370524 306.426448 
L 242.926614 308.823219 
L 243.204659 309.285976 
L 243.482704 309.233128 
L 243.76075 308.656517 
L 244.038795 307.557925 
L 244.594885 303.85018 
L 245.150975 298.316887 
L 245.98511 287.398221 
L 248.209471 255.478525 
L 249.043606 247.338032 
L 249.599696 243.833675 
L 250.155786 241.7819 
L 250.711876 240.873301 
L 251.267967 240.616764 
L 251.824057 240.385751 
L 252.102102 240.061941 
L 252.380147 239.479771 
L 252.658192 238.551595 
L 253.214282 235.328996 
L 253.770372 229.813283 
L 254.326462 221.585211 
L 254.882553 210.435316 
L 255.716688 188.371628 
L 256.828868 151.084161 
L 259.053229 72.31185 
L 259.887364 49.82707 
L 260.721499 33.989437 
L 261.277589 27.262481 
L 261.833679 23.370754 
L 262.111724 22.371827 
L 262.38977 21.927273 
L 262.667815 21.974626 
L 262.94586 22.45052 
L 263.50195 24.441461 
L 264.05804 27.454126 
L 264.892175 33.189497 
L 266.004356 42.484864 
L 266.838491 51.054606 
L 267.672626 61.763961 
L 268.506761 75.236806 
L 269.618942 97.689302 
L 271.287212 137.573128 
L 272.955482 175.915569 
L 274.067663 196.28085 
L 274.901798 208.05971 
L 275.735933 217.001623 
L 276.570068 223.622003 
L 277.404204 228.658644 
L 279.906609 242.225381 
L 281.01879 250.208723 
L 283.79924 271.65581 
L 284.35533 274.54129 
L 284.911421 276.5347 
L 285.467511 277.590962 
L 285.745556 277.782156 
L 286.023601 277.770221 
L 286.301646 277.579349 
L 286.857736 276.787652 
L 288.247962 274.265821 
L 288.526007 273.996985 
L 288.804052 273.88942 
L 289.082097 273.967856 
L 289.360142 274.249614 
L 289.916232 275.452293 
L 290.472322 277.476571 
L 291.306457 281.730982 
L 293.808863 295.778592 
L 294.364953 297.853937 
L 294.921043 299.282113 
L 295.477133 299.984448 
L 295.755179 300.038434 
L 296.033224 299.880232 
L 296.311269 299.499431 
L 296.867359 298.031823 
L 297.423449 295.578618 
L 297.979539 292.13181 
L 298.813674 285.260025 
L 300.2039 270.882487 
L 301.87217 253.950105 
L 302.98435 245.071858 
L 305.208711 228.847821 
L 306.042846 219.915224 
L 306.876982 207.797635 
L 307.711117 192.167511 
L 308.823297 166.857419 
L 310.769613 121.128617 
L 311.603748 106.269004 
L 312.159838 99.157983 
L 312.715928 94.542305 
L 312.993973 93.182669 
L 313.272018 92.440214 
L 313.550063 92.291972 
L 313.828108 92.70626 
L 314.106153 93.645426 
L 314.662244 96.921002 
L 315.218334 101.737084 
L 316.052469 110.982694 
L 320.50119 165.099573 
L 324.671866 208.66341 
L 328.286452 249.5423 
L 330.232768 268.154693 
L 331.901038 282.108263 
L 333.013219 289.7661 
L 333.847354 294.180237 
L 334.681489 297.236713 
L 335.237579 298.502801 
L 335.793669 299.192451 
L 336.349759 299.377442 
L 336.90585 299.155079 
L 337.46194 298.640031 
L 339.408255 296.394378 
L 339.964345 296.158749 
L 340.520436 296.304888 
L 341.076526 296.896332 
L 341.632616 297.949717 
L 342.466751 300.295615 
L 344.969157 308.534828 
L 345.525247 309.566125 
L 346.081337 310.076428 
L 346.359382 310.134042 
L 346.637427 310.066812 
L 347.193517 309.596348 
L 347.749607 308.764682 
L 348.861788 306.492369 
L 350.808103 302.386307 
L 353.310509 297.357135 
L 354.422689 294.361944 
L 355.256825 291.521541 
L 356.369005 286.801024 
L 357.481185 281.06136 
L 359.427501 269.553719 
L 361.929906 254.840029 
L 363.042087 249.263826 
L 363.876222 246.067222 
L 364.432312 244.643253 
L 364.988402 243.9143 
L 365.266447 243.831722 
L 365.544492 243.940402 
L 365.822537 244.236521 
L 366.378628 245.350268 
L 366.934718 247.038672 
L 369.159078 254.896698 
L 369.715168 255.958197 
L 369.993213 256.24983 
L 370.271259 256.379139 
L 370.549304 256.352178 
L 371.105394 255.87959 
L 371.661484 254.97816 
L 373.607799 251.201725 
L 374.16389 250.548332 
L 374.71998 250.150143 
L 376.110205 249.498059 
L 376.666295 248.887811 
L 377.222385 247.773163 
L 377.778476 245.982046 
L 378.334566 243.392319 
L 379.168701 237.89599 
L 380.002836 230.546379 
L 381.115016 218.475564 
L 385.563738 167.029616 
L 386.953963 154.835395 
L 388.344188 144.640573 
L 390.290504 132.272137 
L 392.79291 116.206366 
L 394.739225 102.098566 
L 397.241631 84.005706 
L 398.075766 79.376676 
L 398.631856 77.135102 
L 399.187946 75.773577 
L 399.465991 75.474045 
L 399.744036 75.452837 
L 400.022082 75.725579 
L 400.300127 76.304294 
L 400.856217 78.415572 
L 401.412307 81.821402 
L 401.968397 86.500533 
L 402.802532 95.727339 
L 403.914713 111.404795 
L 405.582983 139.077614 
L 407.807344 175.391012 
L 408.919524 190.299418 
L 409.753659 199.330714 
L 410.587794 206.357653 
L 411.42193 211.455064 
L 412.256065 214.939566 
L 413.0902 217.379634 
L 414.20238 220.389401 
L 414.75847 222.39335 
L 415.314561 225.068918 
L 415.870651 228.613202 
L 416.704786 235.792096 
L 417.538921 245.145163 
L 419.207192 267.640977 
L 420.319372 281.765971 
L 421.153507 289.963326 
L 421.709597 293.89279 
L 422.265688 296.53032 
L 422.821778 297.952486 
L 423.099823 298.258758 
L 423.377868 298.331527 
L 423.655913 298.202046 
L 424.212003 297.465301 
L 425.046138 295.628118 
L 426.436364 292.093966 
L 426.436364 292.093966 
" clip-path="url(#p2b557c239b)" style="fill: none; stroke-dasharray: 11.1,4.8; stroke-dashoffset: 0; stroke: #000000; stroke-width: 3"/>
   </g>
   <g id="line2d_2">
    <path d="M 27.163636 264.110582 
L 29.944087 213.84428 
L 31.334312 192.406853 
L 32.724538 174.401187 
L 33.836718 162.796735 
L 34.670853 155.995594 
L 35.504989 151.03039 
L 36.061079 148.796285 
L 36.617169 147.422868 
L 36.895214 147.048507 
L 37.173259 146.872703 
L 37.451304 146.885496 
L 37.729349 147.075167 
L 38.285439 147.931175 
L 38.84153 149.321078 
L 39.675665 152.123593 
L 43.568296 166.763313 
L 44.680476 169.799247 
L 47.460927 176.827796 
L 48.295062 179.744466 
L 49.129197 183.397881 
L 50.241378 189.472753 
L 51.631603 198.578535 
L 55.524234 225.152827 
L 60.80709 258.88985 
L 63.865586 280.347691 
L 64.699721 284.537555 
L 65.255812 286.583963 
L 65.811902 288.005592 
L 66.367992 288.847154 
L 66.924082 289.212521 
L 67.480172 289.252598 
L 68.870398 289.100535 
L 69.426488 289.363275 
L 69.982578 289.969508 
L 70.538668 290.944565 
L 71.372803 293.003123 
L 73.597164 299.085809 
L 74.153254 299.947634 
L 74.709344 300.305145 
L 74.987389 300.273634 
L 75.265434 300.095833 
L 75.821524 299.298555 
L 76.377615 297.933381 
L 77.21175 294.953495 
L 78.32393 289.749206 
L 81.104381 275.931493 
L 82.494606 270.3153 
L 85.275057 259.48138 
L 86.943327 251.58141 
L 90.001823 236.577246 
L 91.392049 230.900155 
L 95.006635 216.961225 
L 96.118815 211.329018 
L 97.50904 202.90213 
L 101.957761 173.953842 
L 103.069942 168.666288 
L 105.850393 156.38599 
L 106.684528 151.310044 
L 107.518663 145.016308 
L 108.630843 134.693164 
L 110.299114 116.379852 
L 112.245429 95.397369 
L 113.35761 85.781304 
L 114.191745 80.221694 
L 115.02588 76.197052 
L 115.58197 74.380326 
L 116.13806 73.255653 
L 116.416105 72.952042 
L 116.69415 72.820329 
L 116.972195 72.860642 
L 117.250241 73.073109 
L 117.806331 74.016912 
L 118.362421 75.657233 
L 118.918511 78.001456 
L 119.752646 82.853429 
L 120.586781 89.311463 
L 121.698962 100.301288 
L 123.089187 117.027343 
L 125.591593 147.825564 
L 126.703773 158.142462 
L 127.537908 163.780013 
L 128.372044 167.692949 
L 128.928134 169.482563 
L 129.484224 170.746656 
L 130.040314 171.602428 
L 130.596404 172.160557 
L 131.430539 172.652808 
L 133.376855 173.513968 
L 134.21099 174.221948 
L 135.045125 175.33548 
L 135.879261 176.939889 
L 136.713396 179.064905 
L 137.825576 182.643641 
L 139.215801 187.978291 
L 141.996252 199.77061 
L 143.386478 206.511992 
L 144.498658 212.992415 
L 145.610838 220.718276 
L 147.279109 234.16107 
L 149.503469 252.128635 
L 150.893695 261.362932 
L 152.005875 267.279946 
L 153.118055 272.048116 
L 154.230236 275.879718 
L 155.064371 278.16446 
L 155.898506 279.81238 
L 156.454596 280.424323 
L 156.732641 280.541376 
L 157.010686 280.509499 
L 157.288731 280.309568 
L 157.566776 279.921404 
L 158.122867 278.497307 
L 158.678957 276.072115 
L 159.235047 272.496234 
L 159.791137 267.656926 
L 160.625272 257.928166 
L 161.459407 245.393822 
L 162.849633 220.010038 
L 165.073993 178.474685 
L 166.186174 161.978743 
L 167.020309 152.243136 
L 167.854444 144.636194 
L 168.688579 138.873433 
L 169.522715 134.704842 
L 170.078805 132.755587 
L 170.634895 131.488167 
L 170.91294 131.126385 
L 171.190985 130.958308 
L 171.46903 130.994714 
L 171.747075 131.246807 
L 172.02512 131.725792 
L 172.58121 133.405396 
L 173.137301 136.099252 
L 173.693391 139.836684 
L 174.527526 147.346021 
L 175.639706 160.423211 
L 177.307977 184.069477 
L 180.088427 223.9635 
L 181.478653 240.926149 
L 182.590833 252.180217 
L 183.703013 261.087613 
L 184.537149 266.286106 
L 185.649329 271.641535 
L 187.039554 276.905777 
L 188.98587 284.180216 
L 190.65414 291.482495 
L 193.434591 303.847046 
L 194.824816 308.962081 
L 195.936997 312.348785 
L 196.771132 314.386607 
L 197.605267 315.833608 
L 198.161357 316.364261 
L 198.717447 316.465064 
L 198.995493 316.333479 
L 199.551583 315.673024 
L 200.107673 314.456006 
L 200.663763 312.677102 
L 201.497898 309.028087 
L 202.610079 302.734072 
L 207.336845 272.585509 
L 208.17098 266.17251 
L 209.005115 258.229437 
L 209.83925 248.273228 
L 210.951431 231.601417 
L 212.341656 206.479836 
L 214.566017 165.812963 
L 215.678197 149.852224 
L 216.512332 140.79826 
L 217.346467 134.31129 
L 217.902558 131.354737 
L 218.458648 129.442274 
L 219.014738 128.546812 
L 219.292783 128.478808 
L 219.570828 128.666161 
L 219.848873 129.112432 
L 220.404963 130.798861 
L 220.961053 133.573343 
L 221.517144 137.456398 
L 222.351279 145.318244 
L 223.185414 155.372252 
L 224.575639 175.41763 
L 226.8 207.995957 
L 227.91218 221.414108 
L 229.024361 232.283596 
L 230.136541 240.970369 
L 231.526766 249.828523 
L 236.809623 280.13297 
L 237.921803 285.304716 
L 238.755938 288.325989 
L 239.590073 290.503682 
L 240.146164 291.462403 
L 240.702254 292.016969 
L 241.258344 292.16124 
L 241.814434 291.891008 
L 242.370524 291.205888 
L 242.926614 290.113028 
L 243.76075 287.753993 
L 244.594885 284.648854 
L 245.98511 278.365422 
L 249.877741 258.991125 
L 250.989921 252.392212 
L 252.102102 244.421062 
L 253.214282 234.866024 
L 254.882553 218.232508 
L 257.106913 195.974491 
L 258.219093 186.984409 
L 259.053229 181.848746 
L 259.609319 179.314337 
L 260.165409 177.53202 
L 260.721499 176.507056 
L 260.999544 176.272436 
L 261.277589 176.216303 
L 261.555634 176.331252 
L 262.111724 177.036184 
L 262.667815 178.295533 
L 263.50195 180.975007 
L 265.17022 187.643319 
L 266.838491 193.977969 
L 269.062851 201.942915 
L 269.896987 205.703508 
L 271.009167 211.994518 
L 272.121347 219.716988 
L 275.457888 244.309827 
L 276.570068 250.358253 
L 277.682249 254.913548 
L 278.794429 258.399445 
L 281.296835 265.741715 
L 282.409015 269.989901 
L 283.79924 276.442698 
L 289.082097 302.649154 
L 290.472322 307.827448 
L 291.584502 311.167228 
L 292.418638 313.129255 
L 293.252773 314.568164 
L 293.808863 315.215483 
L 294.364953 315.604076 
L 294.921043 315.732011 
L 295.477133 315.602638 
L 296.033224 315.223876 
L 296.589314 314.606416 
L 297.423449 313.255344 
L 298.257584 311.411443 
L 299.091719 309.058547 
L 299.925855 306.123717 
L 300.75999 302.465794 
L 301.594125 297.873471 
L 302.42826 292.080035 
L 303.262396 284.804867 
L 304.096531 275.823778 
L 305.208711 261.096844 
L 306.598936 239.104679 
L 309.101342 198.647827 
L 310.213522 184.564626 
L 311.047658 176.450257 
L 311.881793 170.421472 
L 312.715928 166.251443 
L 313.272018 164.349584 
L 313.828108 163.037687 
L 314.384199 162.226371 
L 314.940289 161.836318 
L 315.496379 161.79798 
L 316.052469 162.050524 
L 316.608559 162.539297 
L 317.442694 163.610563 
L 318.554875 165.465026 
L 320.223145 168.768315 
L 321.891416 172.53363 
L 323.837731 177.525194 
L 325.506002 182.459487 
L 326.896227 187.378519 
L 328.286452 193.179446 
L 331.622993 208.557413 
L 333.291264 217.035346 
L 334.681489 225.325068 
L 339.13021 253.239805 
L 341.632616 266.421362 
L 344.135022 278.57102 
L 345.803292 285.570547 
L 347.471562 291.564043 
L 350.808103 302.382615 
L 352.198329 306.404596 
L 353.032464 308.222202 
L 353.588554 309.038584 
L 354.144644 309.467898 
L 354.700734 309.466502 
L 355.256825 309.008189 
L 355.812915 308.083018 
L 356.369005 306.693352 
L 357.20314 303.759552 
L 358.037275 299.842689 
L 359.149456 293.17062 
L 360.261636 285.046957 
L 363.598177 259.060009 
L 364.432312 254.540153 
L 364.988402 252.344944 
L 365.544492 250.833417 
L 366.100582 249.981616 
L 366.378628 249.784733 
L 366.656673 249.726518 
L 367.212763 249.974554 
L 367.768853 250.611484 
L 368.602988 252.024741 
L 370.271259 255.070785 
L 371.105394 256.098411 
L 371.661484 256.466182 
L 372.217574 256.538693 
L 372.773664 256.287244 
L 373.329754 255.682728 
L 373.885845 254.691057 
L 374.441935 253.272218 
L 374.998025 251.382166 
L 375.83216 247.574885 
L 376.666295 242.53425 
L 377.778476 234.018903 
L 381.671107 201.351643 
L 382.505242 196.929328 
L 383.339377 193.814229 
L 384.173512 191.742491 
L 385.007648 190.302959 
L 386.397873 188.077827 
L 387.232008 186.220038 
L 388.066143 183.670753 
L 388.900279 180.356796 
L 390.012459 174.889874 
L 394.46118 151.276837 
L 395.57336 147.0449 
L 396.407496 144.598372 
L 397.241631 142.921516 
L 397.797721 142.309916 
L 398.353811 142.152229 
L 398.631856 142.252345 
L 399.187946 142.814917 
L 399.744036 143.845785 
L 400.578172 146.163176 
L 401.690352 150.230407 
L 403.358622 156.519936 
L 404.192758 158.93184 
L 404.748848 160.096997 
L 405.304938 160.878927 
L 405.861028 161.290746 
L 406.417118 161.377081 
L 406.973208 161.209756 
L 408.085389 160.490399 
L 408.919524 160.017081 
L 409.475614 159.909752 
L 410.031704 160.055848 
L 410.587794 160.50873 
L 411.143885 161.302746 
L 411.699975 162.455839 
L 412.53411 164.870427 
L 413.368245 168.102728 
L 414.20238 172.141624 
L 415.314561 178.748416 
L 416.704786 188.762303 
L 418.929147 207.050415 
L 420.875462 222.483442 
L 422.543733 234.058163 
L 424.212003 244.237616 
L 425.880273 253.2406 
L 426.436364 255.968114 
L 426.436364 255.968114 
" clip-path="url(#p2b557c239b)" style="fill: none; stroke: #ff00ff; stroke-width: 3; stroke-linecap: square"/>
   </g>
   <g id="patch_3">
    <path d="M 7.2 331.2 
L 7.2 7.2 
" style="fill: none; stroke: #000000; stroke-width: 0.8; stroke-linejoin: miter; stroke-linecap: square"/>
   </g>
   <g id="patch_4">
    <path d="M 446.4 331.2 
L 446.4 7.2 
" style="fill: none; stroke: #000000; stroke-width: 0.8; stroke-linejoin: miter; stroke-linecap: square"/>
   </g>
   <g id="patch_5">
    <path d="M 7.2 331.2 
L 446.4 331.2 
" style="fill: none; stroke: #000000; stroke-width: 0.8; stroke-linejoin: miter; stroke-linecap: square"/>
   </g>
   <g id="patch_6">
    <path d="M 7.2 7.2 
L 446.4 7.2 
" style="fill: none; stroke: #000000; stroke-width: 0.8; stroke-linejoin: miter; stroke-linecap: square"/>
   </g>
  </g>
 </g>
 <defs>
  <clipPath id="p2b557c239b">
   <rect x="7.2" y="7.2" width="439.2" height="324"/>
  </clipPath>
 </defs>
</svg>
