<?xml version="1.0" encoding="utf-8" standalone="no"?>
<!DOCTYPE svg PUBLIC "-//W3C//DTD SVG 1.1//EN"
  "http://www.w3.org/Graphics/SVG/1.1/DTD/svg11.dtd">
<svg xmlns:xlink="http://www.w3.org/1999/xlink" width="453.6pt" height="338.4pt" viewBox="0 0 453.6 338.4" xmlns="http://www.w3.org/2000/svg" version="1.1">
 <metadata>
  <rdf:RDF xmlns:dc="http://purl.org/dc/elements/1.1/" xmlns:cc="http://creativecommons.org/ns#" xmlns:rdf="http://www.w3.org/1999/02/22-rdf-syntax-ns#">
   <cc:Work>
    <dc:type rdf:resource="http://purl.org/dc/dcmitype/StillImage"/>
    <dc:date>2025-05-15T17:30:47.611289</dc:date>
    <dc:format>image/svg+xml</dc:format>
    <dc:creator>
     <cc:Agent>
      <dc:title>Matplotlib v3.10.1, https://matplotlib.org/</dc:title>
     </cc:Agent>
    </dc:creator>
   </cc:Work>
  </rdf:RDF>
 </metadata>
 <defs>
  <style type="text/css">*{stroke-linejoin: round; stroke-linecap: butt}</style>
 </defs>
 <g id="figure_1">
  <g id="patch_1">
   <path d="M 0 338.4 
L 453.6 338.4 
L 453.6 0 
L 0 0 
z
" style="fill: #ffffff"/>
  </g>
  <g id="axes_1">
   <g id="patch_2">
    <path d="M 7.2 331.2 
L 446.4 331.2 
L 446.4 7.2 
L 7.2 7.2 
z
" style="fill: #ffffff"/>
   </g>
   <g id="matplotlib.axis_1"/>
   <g id="matplotlib.axis_2"/>
   <g id="line2d_1">
    <path d="M 27.163636 252.540443 
L 28.275817 255.280208 
L 28.831907 256.257679 
L 29.387997 256.869872 
L 29.944087 257.081608 
L 30.500177 256.890285 
L 31.056267 256.317539 
L 31.612358 255.401242 
L 32.446493 253.490965 
L 33.836718 249.426665 
L 35.226944 245.503316 
L 36.061079 243.911556 
L 36.617169 243.357862 
L 36.895214 243.253982 
L 37.173259 243.269348 
L 37.729349 243.65567 
L 38.285439 244.491357 
L 38.84153 245.723562 
L 39.675665 248.160149 
L 41.06589 253.166895 
L 44.124386 264.547876 
L 45.514611 268.882556 
L 46.904837 272.539108 
L 48.295062 275.529801 
L 49.407242 277.369949 
L 50.241378 278.366858 
L 51.075513 279.013885 
L 51.909648 279.335158 
L 52.743783 279.394738 
L 53.855964 279.220014 
L 58.58273 278.187034 
L 60.529045 277.726782 
L 61.363181 277.336299 
L 62.197316 276.655462 
L 62.753406 275.954539 
L 63.309496 274.994007 
L 64.143631 272.976361 
L 64.977767 270.223521 
L 66.089947 265.599851 
L 68.036262 257.193554 
L 68.870398 254.683467 
L 69.426488 253.669577 
L 69.982578 253.245694 
L 70.260623 253.256217 
L 70.538668 253.409631 
L 71.094758 254.11268 
L 71.650848 255.269485 
L 72.484984 257.619003 
L 74.431299 264.209353 
L 76.65566 271.411006 
L 78.32393 276.118832 
L 79.43611 278.576527 
L 80.270246 279.872289 
L 80.826336 280.435528 
L 81.382426 280.753331 
L 81.938516 280.835791 
L 82.494606 280.703688 
L 83.328741 280.16899 
L 84.440922 279.024632 
L 86.943327 276.237621 
L 87.777463 275.632013 
L 88.611598 275.242022 
L 90.001823 274.881458 
L 91.392049 274.460277 
L 92.504229 273.854076 
L 93.894454 272.781356 
L 95.562725 271.186371 
L 96.39686 270.098868 
L 96.95295 269.106109 
L 97.50904 267.758798 
L 98.06513 265.908511 
L 98.621221 263.397142 
L 99.177311 260.075288 
L 100.011446 253.337086 
L 100.845581 244.4456 
L 102.235807 226.342028 
L 103.347987 212.337231 
L 104.182122 204.770988 
L 104.738212 201.988873 
L 105.016257 201.392968 
L 105.294302 201.353515 
L 105.572347 201.874709 
L 105.850393 202.94817 
L 106.406483 206.657333 
L 106.962573 212.183758 
L 107.796708 222.903372 
L 110.299114 257.043411 
L 111.133249 265.260919 
L 111.967384 271.367204 
L 112.801519 275.671459 
L 113.635655 278.620466 
L 114.46979 280.637534 
L 115.303925 282.039311 
L 116.13806 283.035363 
L 116.972195 283.749161 
L 118.084376 284.365295 
L 118.918511 284.606352 
L 119.752646 284.661395 
L 120.586781 284.527107 
L 121.420917 284.203574 
L 122.533097 283.503924 
L 123.923322 282.325942 
L 126.703773 279.899275 
L 128.928134 278.067514 
L 129.762269 277.02202 
L 130.318359 276.02943 
L 130.874449 274.662758 
L 131.430539 272.752589 
L 131.98663 270.083174 
L 132.54272 266.401563 
L 133.09881 261.424923 
L 133.6549 254.862715 
L 134.489035 241.52544 
L 135.32317 223.708037 
L 136.435351 194.023814 
L 138.381666 140.305817 
L 138.937756 129.171303 
L 139.493847 121.611253 
L 139.771892 119.37175 
L 140.049937 118.225887 
L 140.327982 118.195737 
L 140.606027 119.279624 
L 140.884072 121.452589 
L 141.440162 128.855047 
L 141.996252 139.787458 
L 142.830387 160.879859 
L 145.332793 227.966444 
L 146.166928 244.039848 
L 147.001064 255.735736 
L 147.835199 263.534161 
L 148.391289 266.946559 
L 148.947379 269.191433 
L 149.503469 270.459549 
L 149.781514 270.775442 
L 150.059559 270.898267 
L 150.337604 270.838043 
L 150.61565 270.601925 
L 151.17174 269.621518 
L 151.72783 267.987384 
L 152.28392 265.724045 
L 153.118055 261.222101 
L 154.230236 253.528341 
L 156.454596 236.932414 
L 157.288731 232.534051 
L 157.844821 230.739581 
L 158.122867 230.239502 
L 158.400912 230.018714 
L 158.678957 230.081636 
L 158.957002 230.427215 
L 159.513092 231.9347 
L 160.069182 234.4259 
L 160.903317 239.576554 
L 163.405723 257.003101 
L 164.239858 260.774795 
L 164.795948 262.198714 
L 165.073993 262.522938 
L 165.352038 262.55694 
L 165.630084 262.273474 
L 165.908129 261.642337 
L 166.186174 260.629569 
L 166.742264 257.300517 
L 167.298354 251.920171 
L 167.854444 244.066022 
L 168.410534 233.322638 
L 169.24467 211.112898 
L 170.078805 181.404702 
L 171.190985 132.595055 
L 172.859256 58.618571 
L 173.415346 40.268542 
L 173.971436 27.711913 
L 174.249481 23.961422 
L 174.527526 22.018645 
L 174.805571 21.927273 
L 175.083616 23.690522 
L 175.361661 27.270702 
L 175.917751 39.53528 
L 176.473841 57.685363 
L 177.307977 92.655528 
L 179.532337 191.923582 
L 180.366473 219.770169 
L 181.200608 240.247098 
L 182.034743 254.173771 
L 182.590833 260.564202 
L 183.146923 265.212727 
L 183.703013 268.58035 
L 184.537149 272.050157 
L 185.371284 274.404977 
L 186.483464 276.749296 
L 188.151735 279.627906 
L 189.263915 281.175706 
L 190.09805 281.971601 
L 190.65414 282.248154 
L 191.21023 282.27608 
L 191.766321 282.030736 
L 192.322411 281.508383 
L 193.156546 280.257276 
L 194.268726 278.008164 
L 195.936997 274.638112 
L 196.771132 273.397177 
L 197.883312 272.227458 
L 198.995493 271.084093 
L 199.551583 270.182121 
L 200.107673 268.792688 
L 200.663763 266.660057 
L 201.219853 263.464846 
L 201.775943 258.820272 
L 202.332033 252.301492 
L 202.888124 243.486423 
L 203.722259 225.17457 
L 204.556394 200.247738 
L 205.668574 158.097996 
L 207.61489 80.963049 
L 208.17098 65.016673 
L 208.72707 54.329861 
L 209.005115 51.258651 
L 209.28316 49.801574 
L 209.561205 49.990342 
L 209.83925 51.820484 
L 210.117296 55.252346 
L 210.673386 66.594234 
L 211.229476 83.072554 
L 212.341656 126.021166 
L 214.287972 203.53102 
L 215.122107 228.863685 
L 215.956242 247.829814 
L 216.790377 261.04034 
L 217.624513 269.720238 
L 218.180603 273.662741 
L 218.736693 276.540634 
L 219.292783 278.63319 
L 220.126918 280.773429 
L 220.961053 282.154835 
L 221.795189 283.063142 
L 222.629324 283.657825 
L 223.463459 284.015457 
L 224.297594 284.163196 
L 225.13173 284.101884 
L 225.965865 283.818855 
L 226.8 283.309859 
L 227.91218 282.323949 
L 230.970676 279.309548 
L 232.082856 278.627435 
L 233.473082 277.82646 
L 234.029172 277.296201 
L 234.585262 276.48176 
L 235.141352 275.232307 
L 235.697442 273.357838 
L 236.253533 270.637398 
L 236.809623 266.831226 
L 237.365713 261.689755 
L 237.921803 254.978365 
L 238.755938 241.615626 
L 239.590073 224.271113 
L 240.980299 189.056067 
L 242.370524 154.840654 
L 243.204659 140.459679 
L 243.76075 135.070724 
L 244.038795 133.825252 
L 244.31684 133.586463 
L 244.594885 134.359125 
L 244.87293 136.126982 
L 245.42902 142.482569 
L 245.98511 152.141379 
L 246.819245 171.15026 
L 249.321651 233.618708 
L 250.155786 249.192866 
L 250.989921 260.916046 
L 251.824057 269.214263 
L 252.658192 274.838489 
L 253.492327 278.553721 
L 254.326462 281.003318 
L 255.160598 282.636137 
L 255.994733 283.730826 
L 256.828868 284.463295 
L 257.663003 284.930688 
L 258.497139 285.185733 
L 259.331274 285.25225 
L 260.165409 285.13383 
L 260.999544 284.829304 
L 262.111724 284.147058 
L 263.50195 282.966266 
L 266.282401 280.529753 
L 268.228716 278.931766 
L 269.062851 277.854167 
L 269.618942 276.780853 
L 270.175032 275.25274 
L 270.731122 273.085776 
L 271.287212 270.056395 
L 271.843302 265.907229 
L 272.399392 260.376304 
L 273.233527 249.012237 
L 274.067663 233.649884 
L 275.179843 207.704397 
L 277.126159 159.711193 
L 277.960294 145.559711 
L 278.516384 140.306616 
L 278.794429 139.125174 
L 279.072474 138.947049 
L 279.350519 139.775481 
L 279.628564 141.592059 
L 280.184654 148.012975 
L 280.740744 157.674044 
L 281.57488 176.520553 
L 284.077285 237.193065 
L 284.911421 251.92999 
L 285.745556 262.845528 
L 286.579691 270.41727 
L 287.413826 275.394365 
L 287.969916 277.656155 
L 288.526007 279.304364 
L 289.082097 280.489319 
L 289.638187 281.326377 
L 290.472322 282.1169 
L 291.306457 282.509891 
L 292.140593 282.597276 
L 292.974728 282.408342 
L 293.808863 281.922303 
L 294.642998 281.095741 
L 295.477133 279.895182 
L 296.589314 277.751477 
L 299.091719 272.404398 
L 299.925855 271.251551 
L 300.481945 270.796644 
L 301.038035 270.588067 
L 301.594125 270.581489 
L 303.262396 270.851698 
L 303.818486 270.579044 
L 304.374576 269.82196 
L 304.930666 268.352834 
L 305.486756 265.89221 
L 306.042846 262.103115 
L 306.598936 256.61282 
L 307.155027 249.038029 
L 307.711117 239.019784 
L 308.545252 218.870162 
L 309.379387 192.586739 
L 310.769613 139.582698 
L 311.881793 98.45582 
L 312.715928 75.625437 
L 313.272018 66.570553 
L 313.550063 64.211683 
L 313.828108 63.372471 
L 314.106153 64.067267 
L 314.384199 66.277043 
L 314.940289 75.003603 
L 315.496379 88.788865 
L 316.330514 116.396384 
L 318.83292 207.383407 
L 319.667055 229.608313 
L 320.50119 245.941399 
L 321.335325 257.045065 
L 321.891416 262.115515 
L 322.447506 265.756141 
L 323.003596 268.296413 
L 323.559686 270.009346 
L 324.115776 271.112064 
L 324.671866 271.757784 
L 325.227956 272.039145 
L 325.784047 272.007658 
L 326.340137 271.691188 
L 326.896227 271.103786 
L 327.730362 269.74535 
L 328.842542 267.234504 
L 330.510813 263.221665 
L 331.344948 261.865692 
L 331.901038 261.415891 
L 332.457128 261.387544 
L 333.013219 261.786357 
L 333.569309 262.576994 
L 334.403444 264.335998 
L 336.90585 270.406069 
L 337.46194 271.245526 
L 338.01803 271.697566 
L 338.296075 271.749134 
L 338.57412 271.666869 
L 338.852165 271.435087 
L 339.408255 270.446163 
L 339.964345 268.599997 
L 340.520436 265.674945 
L 341.076526 261.417017 
L 341.632616 255.550173 
L 342.188706 247.810644 
L 343.022841 232.297133 
L 343.856976 212.086242 
L 345.247202 171.010121 
L 346.637427 131.230982 
L 347.193517 119.293519 
L 347.749607 111.088147 
L 348.027653 108.606592 
L 348.305698 107.283288 
L 348.583743 107.14712 
L 348.861788 108.202477 
L 349.139833 110.428691 
L 349.695923 118.192475 
L 350.252013 129.822443 
L 351.086148 152.518276 
L 353.588554 226.199813 
L 354.422689 244.289171 
L 355.256825 257.742259 
L 356.09096 267.114639 
L 356.925095 273.339908 
L 357.75923 277.36619 
L 358.593365 279.982484 
L 359.427501 281.723806 
L 360.261636 282.914647 
L 361.095771 283.745669 
L 361.929906 284.311284 
L 362.764042 284.658215 
L 363.598177 284.80441 
L 364.432312 284.751633 
L 365.266447 284.499574 
L 366.378628 283.869998 
L 367.768853 282.730075 
L 371.105394 279.817542 
L 372.495619 278.574937 
L 373.329754 277.487849 
L 373.885845 276.439053 
L 374.441935 274.975148 
L 374.998025 272.923697 
L 375.554115 270.068988 
L 376.110205 266.158774 
L 376.666295 260.932792 
L 377.50043 250.135979 
L 378.334566 235.430176 
L 379.446746 210.393936 
L 381.393062 163.736475 
L 381.949152 153.829465 
L 382.505242 147.009145 
L 382.783287 144.948074 
L 383.061332 143.853065 
L 383.339377 143.748494 
L 383.617422 144.637237 
L 383.895467 146.500425 
L 384.451557 152.970941 
L 385.007648 162.620237 
L 385.841783 181.329425 
L 388.344188 240.891753 
L 389.178324 255.170592 
L 390.012459 265.672688 
L 390.846594 272.912567 
L 391.680729 277.662697 
L 392.514865 280.697853 
L 393.349 282.619846 
L 394.183135 283.834743 
L 395.01727 284.603257 
L 395.851405 285.070264 
L 396.685541 285.317827 
L 397.797721 285.386862 
L 398.909901 285.215694 
L 400.300127 284.735484 
L 402.246442 283.757479 
L 406.417118 281.407332 
L 407.251253 280.657059 
L 408.085389 279.539958 
L 408.641479 278.469284 
L 409.197569 277.020575 
L 409.753659 275.055723 
L 410.309749 272.40419 
L 410.865839 268.876402 
L 411.42193 264.276831 
L 412.256065 254.984306 
L 413.0902 242.53553 
L 414.20238 221.523346 
L 416.426741 177.332125 
L 416.982831 169.739907 
L 417.538921 164.845219 
L 417.816966 163.543053 
L 418.095011 163.045866 
L 418.373056 163.364061 
L 418.651102 164.491216 
L 419.207192 169.06374 
L 419.763282 176.3957 
L 420.597417 191.287174 
L 423.655913 251.191921 
L 424.490048 262.136051 
L 425.324183 270.067533 
L 426.158319 275.486526 
L 426.436364 276.845565 
L 426.436364 276.845565 
" clip-path="url(#p5fb706c765)" style="fill: none; stroke-dasharray: 11.1,4.8; stroke-dashoffset: 0; stroke: #000000; stroke-width: 3"/>
   </g>
   <g id="line2d_2">
    <path d="M 27.163636 250.593143 
L 27.441681 261.218265 
L 27.719727 257.961619 
L 27.997772 240.987423 
L 28.275817 235.449637 
L 28.553862 227.470278 
L 29.387997 247.909645 
L 29.666042 252.102101 
L 29.944087 249.874073 
L 30.222132 240.319092 
L 30.500177 246.898 
L 31.056267 217.12792 
L 31.334312 201.836985 
L 31.890403 209.187848 
L 32.168448 218.31761 
L 32.724538 245.767811 
L 33.002583 257.821765 
L 33.558673 247.368848 
L 33.836718 243.998722 
L 34.392808 209.113198 
L 34.670853 201.190739 
L 34.948898 202.387775 
L 35.504989 246.243085 
L 35.783034 246.920176 
L 36.061079 203.061718 
L 36.617169 175.067526 
L 37.173259 156.749642 
L 37.451304 157.97036 
L 38.007394 218.534805 
L 38.285439 217.745739 
L 38.563484 207.28511 
L 38.84153 204.069576 
L 39.119575 193.959471 
L 39.39762 198.958513 
L 39.95371 229.238318 
L 40.231755 231.426237 
L 40.5098 229.89118 
L 40.787845 208.362826 
L 41.62198 196.539938 
L 42.17807 238.04936 
L 42.456115 249.48294 
L 42.734161 255.026521 
L 43.290251 238.790606 
L 43.568296 233.722572 
L 43.846341 232.12158 
L 44.124386 240.81677 
L 44.680476 252.395177 
L 44.958521 258.299275 
L 45.514611 248.054472 
L 45.792656 245.119238 
L 46.070701 248.862839 
L 46.348747 245.810931 
L 46.626792 239.284451 
L 46.904837 245.35327 
L 47.738972 276.755871 
L 48.017017 282.393586 
L 48.295062 278.072091 
L 48.573107 264.958809 
L 49.129197 253.93863 
L 49.685287 286.023616 
L 49.963332 294.122523 
L 50.241378 298.671206 
L 50.519423 296.077415 
L 50.797468 270.31303 
L 51.075513 263.168457 
L 51.353558 266.483874 
L 51.631603 286.991046 
L 51.909648 298.707527 
L 52.465738 301.107987 
L 52.743783 295.034514 
L 53.021828 276.422459 
L 53.299873 268.167454 
L 53.577918 269.159798 
L 53.855964 294.094735 
L 54.134009 307.992018 
L 54.412054 310.750918 
L 54.690099 309.99288 
L 55.524234 272.889893 
L 55.802279 265.286427 
L 56.358369 300.235968 
L 56.636414 309.254646 
L 56.914459 311.628664 
L 57.47055 272.353476 
L 57.748595 265.169023 
L 58.02664 261.945047 
L 58.58273 279.179648 
L 58.860775 293.472262 
L 59.13882 297.483159 
L 59.416865 293.944478 
L 59.69491 276.878888 
L 59.972955 271.592974 
L 60.251 272.211888 
L 60.529045 272.378572 
L 60.80709 276.412466 
L 61.085135 276.679351 
L 61.363181 277.377843 
L 61.641226 280.430116 
L 62.197316 263.857731 
L 62.475361 259.477147 
L 62.753406 257.091516 
L 63.309496 271.628793 
L 63.865586 277.748124 
L 64.421676 240.592685 
L 64.699721 231.244268 
L 64.977767 230.779078 
L 65.255812 244.125114 
L 65.811902 291.260068 
L 66.089947 295.237746 
L 66.924082 210.909255 
L 67.202127 192.673458 
L 67.480172 188.936016 
L 67.758217 198.934649 
L 68.036262 214.309496 
L 68.314307 209.871875 
L 68.592352 185.302336 
L 68.870398 180.68311 
L 69.148443 181.925502 
L 69.426488 191.952516 
L 69.704533 184.232057 
L 70.260623 158.366147 
L 70.816713 122.302159 
L 71.094758 123.807466 
L 71.650848 215.852447 
L 71.928893 230.040205 
L 72.206938 221.059057 
L 72.484984 204.666588 
L 73.041074 164.30506 
L 73.875209 241.078819 
L 74.153254 247.778735 
L 74.431299 238.888481 
L 74.987389 212.620395 
L 75.265434 211.990758 
L 75.821524 245.458719 
L 76.377615 271.083752 
L 76.65566 269.793998 
L 77.489795 237.56674 
L 77.76784 241.527901 
L 78.32393 261.240487 
L 78.601975 274.678602 
L 78.88002 281.06783 
L 79.158065 275.926561 
L 79.43611 266.21092 
L 79.714155 248.691501 
L 79.992201 239.886482 
L 80.270246 235.189276 
L 80.548291 235.483448 
L 80.826336 250.928609 
L 81.104381 272.652621 
L 81.382426 277.16553 
L 81.660471 272.294842 
L 82.216561 254.856598 
L 82.494606 249.968069 
L 82.772651 242.49816 
L 83.050696 251.254447 
L 83.328741 266.919359 
L 83.606787 269.024553 
L 84.162877 246.823351 
L 84.440922 248.704688 
L 84.718967 245.066262 
L 84.997012 245.479708 
L 85.275057 258.274042 
L 85.553102 261.213885 
L 85.831147 255.767311 
L 86.109192 241.716167 
L 86.387237 238.856038 
L 86.665282 247.477445 
L 86.943327 248.422882 
L 87.221372 249.883153 
L 87.499418 269.322009 
L 87.777463 271.181536 
L 88.055508 262.662612 
L 88.333553 241.937788 
L 88.611598 233.022848 
L 88.889643 244.567033 
L 89.167688 248.031064 
L 89.445733 253.431188 
L 89.723778 268.497672 
L 90.001823 274.327714 
L 90.279868 274.293446 
L 90.557913 265.498055 
L 90.835958 260.632523 
L 91.114004 263.932153 
L 91.392049 265.875545 
L 91.670094 266.413194 
L 91.948139 268.23608 
L 92.504229 267.631676 
L 92.782274 256.349083 
L 93.060319 253.77984 
L 93.338364 262.439804 
L 93.616409 266.773528 
L 93.894454 266.054138 
L 94.450544 250.105641 
L 94.72859 247.804333 
L 95.006635 249.448855 
L 95.28468 252.439574 
L 95.84077 270.994867 
L 96.118815 266.391566 
L 96.39686 247.813687 
L 96.674905 237.251031 
L 96.95295 231.703663 
L 97.230995 237.274759 
L 97.787085 253.680095 
L 98.06513 255.851177 
L 98.621221 219.750914 
L 98.899266 218.427302 
L 99.177311 228.553013 
L 99.455356 244.664041 
L 99.733401 247.008058 
L 100.011446 244.441553 
L 100.289491 228.976771 
L 100.567536 205.14533 
L 100.845581 191.815629 
L 101.123626 191.722271 
L 101.401671 208.415893 
L 101.679716 201.580047 
L 102.235807 126.703688 
L 102.513852 130.130714 
L 102.791897 129.639926 
L 103.069942 131.30676 
L 103.347987 135.91759 
L 103.626032 151.435712 
L 103.904077 150.151159 
L 104.182122 94.967445 
L 104.460167 83.334466 
L 105.016257 124.600273 
L 105.850393 152.819098 
L 106.128438 136.155592 
L 106.406483 84.742491 
L 106.684528 82.208657 
L 107.240618 132.769769 
L 107.518663 147.621477 
L 108.074753 189.909698 
L 108.352798 184.60932 
L 108.630843 160.946067 
L 108.908888 147.172121 
L 109.186933 156.594138 
L 109.464978 155.071127 
L 109.743024 174.144858 
L 110.021069 224.377622 
L 110.299114 248.703137 
L 110.577159 235.888088 
L 110.855204 211.910998 
L 111.133249 197.8672 
L 111.689339 210.66961 
L 112.245429 279.758044 
L 112.523474 285.260879 
L 113.079564 250.161537 
L 113.35761 241.320653 
L 113.9137 248.5464 
L 114.46979 279.049559 
L 114.747835 278.998683 
L 115.02588 270.937556 
L 115.303925 258.390122 
L 115.58197 252.241635 
L 115.860015 254.462818 
L 116.13806 255.080774 
L 116.69415 283.419878 
L 117.528286 278.410888 
L 117.806331 277.858957 
L 118.084376 280.168113 
L 118.362421 279.951238 
L 118.640466 287.773587 
L 118.918511 292.119995 
L 119.196556 290.402741 
L 119.474601 282.93776 
L 119.752646 281.127604 
L 120.030691 271.384038 
L 120.586781 286.527089 
L 121.142872 289.859343 
L 121.698962 288.932842 
L 122.255052 278.419512 
L 122.533097 296.250851 
L 122.811142 299.094736 
L 123.089187 293.072231 
L 123.367232 283.162438 
L 123.645277 279.753846 
L 124.201367 293.697898 
L 124.479413 291.933052 
L 124.757458 292.177214 
L 125.035503 298.196024 
L 125.313548 289.504804 
L 125.591593 275.8609 
L 125.869638 270.369519 
L 126.147683 271.122674 
L 126.425728 276.146311 
L 126.703773 288.452002 
L 126.981818 295.194946 
L 127.259863 294.769135 
L 127.537908 288.693882 
L 128.093998 263.190633 
L 128.372044 256.900147 
L 128.650089 265.494952 
L 129.484224 297.620868 
L 129.762269 281.41014 
L 130.318359 240.326256 
L 130.596404 241.088081 
L 131.430539 293.525967 
L 131.708584 283.911852 
L 132.54272 206.324434 
L 132.820765 217.70481 
L 133.09881 247.246288 
L 133.376855 257.469189 
L 133.6549 263.129398 
L 133.932945 250.128912 
L 134.21099 199.879219 
L 134.489035 171.535918 
L 134.76708 176.733858 
L 135.045125 196.180426 
L 135.32317 247.646502 
L 135.601215 261.123265 
L 135.879261 251.022012 
L 136.435351 153.669854 
L 136.713396 137.457119 
L 136.991441 133.230761 
L 137.269486 134.15749 
L 137.547531 213.590061 
L 137.825576 233.861376 
L 138.103621 233.218415 
L 138.381666 128.706718 
L 138.659711 133.476428 
L 138.937756 143.763575 
L 139.215801 144.908867 
L 139.493847 136.027921 
L 139.771892 199.128254 
L 140.049937 223.737673 
L 140.327982 203.478222 
L 140.606027 126.306622 
L 140.884072 141.518117 
L 141.162117 145.74557 
L 141.440162 139.639472 
L 141.718207 140.43602 
L 141.996252 210.729658 
L 142.274297 236.059243 
L 142.552342 227.198647 
L 142.830387 134.389423 
L 143.108433 134.379247 
L 143.386478 130.235569 
L 143.664523 140.925758 
L 144.498658 271.555558 
L 145.054748 219.868865 
L 145.332793 180.54134 
L 145.610838 183.641981 
L 145.888883 224.601525 
L 146.166928 235.215239 
L 146.723018 280.282004 
L 147.279109 260.489978 
L 147.557154 258.671837 
L 148.113244 284.636078 
L 148.391289 285.137041 
L 148.669334 294.660035 
L 148.947379 291.713759 
L 149.225424 279.205839 
L 149.503469 275.737747 
L 149.781514 276.407766 
L 150.059559 286.679399 
L 150.893695 298.272681 
L 151.17174 296.181586 
L 151.72783 280.323983 
L 152.005875 283.615901 
L 152.561965 301.392942 
L 152.84001 305.79098 
L 153.118055 302.699899 
L 153.3961 295.082242 
L 153.674145 292.164666 
L 153.95219 284.88494 
L 154.508281 295.595206 
L 154.786326 305.903957 
L 155.064371 305.766728 
L 155.342416 301.844671 
L 155.620461 292.561047 
L 155.898506 294.103998 
L 156.176551 287.58491 
L 156.454596 294.8645 
L 156.732641 295.58284 
L 157.010686 300.026621 
L 157.288731 294.999653 
L 157.566776 287.752917 
L 158.122867 290.685185 
L 158.400912 288.24375 
L 158.678957 290.547522 
L 159.235047 285.385674 
L 159.513092 273.282486 
L 159.791137 269.3054 
L 160.069182 280.373125 
L 160.347227 280.631341 
L 160.625272 276.456909 
L 160.903317 280.045553 
L 161.181362 280.61277 
L 161.459407 276.88596 
L 161.737453 261.853971 
L 162.015498 255.946086 
L 162.571588 264.456797 
L 163.405723 291.723432 
L 163.683768 283.395101 
L 164.239858 246.228483 
L 164.517903 248.168682 
L 165.630084 292.054107 
L 165.908129 270.334384 
L 166.186174 239.213041 
L 166.464219 226.006402 
L 166.742264 231.44239 
L 167.020309 244.441553 
L 167.576399 279.574569 
L 167.854444 273.379676 
L 168.410534 191.946448 
L 168.688579 195.712316 
L 168.966624 210.996315 
L 169.522715 259.891323 
L 169.80076 266.686239 
L 170.634895 132.537288 
L 170.91294 142.141685 
L 171.190985 161.223493 
L 171.747075 231.662459 
L 172.02512 225.147706 
L 172.303165 148.022329 
L 172.58121 140.086318 
L 172.859256 123.966803 
L 173.137301 126.117398 
L 173.415346 153.515399 
L 173.693391 167.365821 
L 173.971436 217.506688 
L 174.527526 123.693347 
L 174.805571 121.184107 
L 175.083616 117.343726 
L 175.361661 119.11026 
L 175.639706 147.21524 
L 175.917751 148.729856 
L 176.195796 219.743613 
L 176.473841 188.00477 
L 176.751887 122.684212 
L 177.029932 119.911007 
L 177.307977 120.834451 
L 177.586022 134.965856 
L 177.864067 159.021656 
L 178.420157 246.1474 
L 178.698202 242.984659 
L 178.976247 176.237641 
L 179.254292 175.574101 
L 179.532337 176.100753 
L 180.366473 259.248636 
L 180.644518 261.402927 
L 180.922563 252.117888 
L 181.200608 238.475308 
L 181.756698 223.669959 
L 182.312788 264.349751 
L 182.590833 279.432525 
L 182.868878 282.068341 
L 183.146923 276.60055 
L 183.424968 277.344899 
L 183.703013 274.56024 
L 183.981058 270.079773 
L 184.259104 280.371255 
L 184.537149 301.658412 
L 184.815194 307.378898 
L 185.093239 307.26535 
L 185.371284 289.674362 
L 185.649329 288.394098 
L 185.927374 284.769817 
L 186.205419 283.348696 
L 186.483464 301.044243 
L 186.761509 300.395807 
L 187.317599 310.365032 
L 187.87369 298.760502 
L 188.151735 297.960988 
L 188.707825 299.501566 
L 189.54196 305.296108 
L 189.820005 305.167662 
L 190.09805 304.347842 
L 190.376095 298.247585 
L 190.65414 302.893823 
L 190.932185 302.455554 
L 191.21023 302.971438 
L 191.766321 307.644529 
L 192.044366 308.924792 
L 192.322411 309.358338 
L 192.600456 307.438809 
L 192.878501 307.551605 
L 193.156546 303.048232 
L 193.434591 293.53596 
L 193.712636 298.740836 
L 193.990681 293.478969 
L 194.268726 294.740571 
L 194.546771 298.327573 
L 194.824816 298.327527 
L 195.102861 297.678908 
L 195.380907 298.937452 
L 195.936997 257.38628 
L 196.215042 250.630514 
L 196.493087 260.099209 
L 197.049177 291.26819 
L 197.327222 296.89906 
L 197.605267 289.552486 
L 198.161357 254.950275 
L 198.439402 247.389746 
L 198.717447 250.733453 
L 199.273538 288.811651 
L 199.551583 291.20221 
L 200.385718 243.870412 
L 200.663763 232.991273 
L 200.941808 240.454383 
L 201.497898 277.624377 
L 201.775943 269.499005 
L 202.610079 212.316961 
L 202.888124 213.9994 
L 203.166169 225.202188 
L 203.444214 260.765167 
L 203.722259 266.798031 
L 204.000304 247.498207 
L 204.834439 168.727624 
L 205.390529 190.052791 
L 205.668574 228.679497 
L 205.946619 233.790149 
L 206.224664 172.904292 
L 206.780755 122.763744 
L 207.0588 120.786814 
L 207.336845 142.0481 
L 207.61489 153.166199 
L 207.892935 199.29366 
L 208.17098 206.428103 
L 208.449025 127.291118 
L 208.72707 94.938471 
L 209.28316 116.917595 
L 209.561205 142.010638 
L 209.83925 155.031475 
L 210.117296 217.919358 
L 210.395341 232.951895 
L 210.673386 134.011841 
L 210.951431 105.269102 
L 211.229476 110.064091 
L 211.507521 118.216476 
L 212.063611 168.551039 
L 212.341656 259.601167 
L 212.619701 253.846094 
L 212.897746 172.704116 
L 213.175791 151.761368 
L 213.453836 155.770622 
L 213.731881 163.523341 
L 214.009927 188.199561 
L 214.287972 243.409056 
L 214.566017 264.192878 
L 214.844062 258.976321 
L 215.122107 220.637261 
L 215.400152 198.288586 
L 215.678197 201.290119 
L 215.956242 217.92205 
L 216.234287 243.568621 
L 217.068422 278.632326 
L 217.346467 257.836732 
L 217.624513 252.289682 
L 217.902558 265.921266 
L 218.180603 287.49534 
L 218.458648 290.499201 
L 218.736693 297.817165 
L 219.014738 295.982597 
L 219.292783 287.65673 
L 219.570828 269.177 
L 219.848873 272.225486 
L 220.126918 279.787657 
L 220.683008 299.457488 
L 220.961053 302.425987 
L 221.239099 296.996067 
L 221.795189 280.786891 
L 222.073234 284.985598 
L 222.629324 305.614372 
L 222.907369 304.858479 
L 223.463459 297.210388 
L 224.019549 279.741891 
L 224.575639 299.94709 
L 225.13173 298.998094 
L 225.409775 288.658839 
L 225.68782 290.299573 
L 225.965865 283.407284 
L 226.24391 280.080323 
L 226.521955 296.600782 
L 226.8 301.551686 
L 227.35609 291.87524 
L 227.634135 277.042423 
L 228.190225 285.022785 
L 228.46827 278.624204 
L 228.746316 293.378631 
L 229.024361 296.958195 
L 229.302406 294.933947 
L 229.858496 249.034131 
L 230.136541 249.367635 
L 230.414586 254.808596 
L 230.692631 262.831075 
L 231.248721 289.485731 
L 231.526766 285.110302 
L 231.804811 259.445161 
L 232.082856 248.401984 
L 232.360901 243.709022 
L 232.638947 246.244134 
L 233.473082 300.605291 
L 233.751127 293.557862 
L 234.029172 263.01642 
L 234.307217 246.271968 
L 234.585262 238.789556 
L 234.863307 245.48094 
L 235.141352 258.262954 
L 235.419397 283.829171 
L 235.697442 297.678908 
L 235.975487 283.099606 
L 236.531578 222.402974 
L 236.809623 225.696945 
L 237.643758 278.569814 
L 237.921803 273.393456 
L 238.199848 246.409084 
L 238.477893 204.932469 
L 238.755938 194.831034 
L 239.033983 207.188605 
L 239.868119 273.496122 
L 240.146164 251.42145 
L 240.702254 124.917989 
L 240.980299 132.922399 
L 241.536389 188.983106 
L 241.814434 235.511555 
L 242.092479 249.796823 
L 242.648569 127.311103 
L 242.926614 118.656569 
L 243.204659 127.402316 
L 244.038795 218.03229 
L 244.31684 224.456013 
L 244.87293 126.445974 
L 245.150975 130.125329 
L 245.42902 138.363771 
L 246.263155 240.243439 
L 246.5412 245.769271 
L 247.09729 146.684162 
L 247.375336 136.951593 
L 247.653381 152.422809 
L 248.487516 263.186161 
L 248.765561 262.646368 
L 249.321651 198.920641 
L 249.599696 193.857079 
L 249.877741 210.23198 
L 250.155786 246.775395 
L 250.433831 267.336957 
L 250.711876 270.531457 
L 251.267967 247.461931 
L 251.546012 249.072322 
L 252.658192 302.028648 
L 252.936237 294.168928 
L 253.214282 281.45221 
L 253.492327 275.717625 
L 254.048417 286.807936 
L 254.604507 298.589028 
L 254.882553 297.848603 
L 255.160598 294.206481 
L 255.438643 287.842031 
L 255.716688 291.001898 
L 255.994733 291.161463 
L 256.272778 299.585113 
L 256.550823 303.880965 
L 256.828868 306.000486 
L 257.106913 300.831429 
L 257.384958 293.031393 
L 257.663003 293.511503 
L 257.941048 294.675549 
L 258.219093 292.812829 
L 258.775184 309.257794 
L 259.053229 306.003863 
L 259.331274 291.462935 
L 259.609319 283.974957 
L 259.887364 294.574983 
L 260.165409 294.31517 
L 260.721499 303.844826 
L 261.277589 305.722216 
L 261.555634 299.156244 
L 261.833679 302.704963 
L 262.111724 303.506029 
L 262.38977 300.075399 
L 262.667815 301.789003 
L 262.94586 297.259804 
L 263.223905 301.83445 
L 263.50195 303.789295 
L 263.779995 288.86093 
L 264.05804 280.600815 
L 264.336085 284.961277 
L 264.61413 280.637318 
L 264.892175 285.654385 
L 265.17022 294.889687 
L 265.72631 272.692044 
L 266.282401 250.321558 
L 267.116536 286.877566 
L 267.394581 300.697142 
L 267.672626 296.890253 
L 267.950671 268.336738 
L 268.506761 241.48939 
L 268.784806 248.015231 
L 269.618942 296.827239 
L 269.896987 290.146396 
L 270.453077 238.690039 
L 270.731122 226.101402 
L 271.287212 251.597259 
L 271.565257 274.688048 
L 271.843302 282.263725 
L 272.121347 260.443208 
L 272.399392 223.558031 
L 272.677437 209.772723 
L 272.955482 209.164759 
L 273.233527 224.396422 
L 273.511573 251.048842 
L 273.789618 265.221314 
L 274.067663 258.437896 
L 274.623753 149.759387 
L 274.901798 152.133611 
L 275.179843 174.187476 
L 275.457888 184.898289 
L 275.735933 231.017035 
L 276.013978 258.153581 
L 276.292023 221.54916 
L 276.570068 128.252799 
L 276.848113 121.393271 
L 277.126159 128.57599 
L 277.404204 140.805069 
L 277.682249 163.408538 
L 277.960294 228.84399 
L 278.238339 252.989315 
L 278.794429 122.000048 
L 279.628564 136.734079 
L 279.906609 156.918516 
L 280.184654 247.776453 
L 280.462699 265.061886 
L 281.01879 133.139046 
L 281.296835 141.467742 
L 281.57488 157.602954 
L 281.852925 160.080071 
L 282.13097 195.248632 
L 282.409015 258.482704 
L 282.68706 277.105802 
L 282.965105 235.385528 
L 283.24315 174.165072 
L 283.521195 172.873127 
L 284.077285 212.714573 
L 284.633376 277.417677 
L 284.911421 286.055511 
L 285.189466 269.776522 
L 285.467511 237.991411 
L 285.745556 228.548222 
L 286.857736 306.761512 
L 287.135781 301.308573 
L 287.413826 283.481751 
L 287.691871 274.343912 
L 287.969916 274.530627 
L 288.247962 293.703784 
L 288.526007 290.071427 
L 288.804052 300.708504 
L 289.082097 305.66137 
L 289.916232 282.166535 
L 290.194277 285.824034 
L 290.472322 303.894653 
L 290.750367 307.194374 
L 291.306457 295.258006 
L 291.584502 300.618341 
L 291.862547 293.144781 
L 292.140593 290.837997 
L 292.418638 295.074029 
L 292.696683 314.557031 
L 292.974728 308.679878 
L 293.252773 294.597113 
L 293.530818 297.721754 
L 293.808863 290.073252 
L 294.086908 290.547978 
L 294.364953 289.853365 
L 294.642998 295.764034 
L 294.921043 316.472727 
L 295.477133 302.958662 
L 296.033224 287.594173 
L 296.311269 288.476869 
L 296.589314 291.931729 
L 296.867359 299.925735 
L 297.145404 312.534928 
L 297.423449 296.516596 
L 297.701494 272.39007 
L 297.979539 267.378434 
L 298.257584 258.364433 
L 298.535629 262.586958 
L 298.813674 275.311571 
L 299.091719 300.225975 
L 299.369764 298.33209 
L 299.64781 257.166621 
L 299.925855 234.66518 
L 300.2039 230.070183 
L 300.481945 222.852056 
L 300.75999 236.555232 
L 301.31608 285.531733 
L 301.594125 292.396189 
L 302.150215 242.843527 
L 302.42826 237.577919 
L 302.706305 229.943973 
L 302.98435 238.890899 
L 303.540441 296.064411 
L 303.818486 300.170627 
L 304.374576 238.55557 
L 304.652621 229.172155 
L 304.930666 227.703306 
L 305.208711 239.604266 
L 305.764801 300.699561 
L 306.042846 293.809872 
L 306.598936 214.008024 
L 306.876982 208.377975 
L 307.155027 210.730981 
L 307.433072 238.714679 
L 307.711117 280.227066 
L 307.989162 297.037042 
L 308.823297 154.230774 
L 309.101342 149.648508 
L 309.379387 155.453499 
L 309.935477 249.720348 
L 310.213522 247.476852 
L 310.491567 164.741412 
L 310.769613 121.553521 
L 311.047658 112.222215 
L 311.325703 117.227554 
L 311.603748 133.902285 
L 312.159838 234.781306 
L 312.437883 196.787157 
L 312.715928 138.104962 
L 313.272018 98.53688 
L 313.828108 131.092805 
L 314.384199 248.161473 
L 314.940289 137.703562 
L 315.218334 104.482227 
L 315.496379 86.613699 
L 315.774424 108.283594 
L 316.052469 117.550061 
L 316.330514 228.35375 
L 316.608559 258.947437 
L 316.886604 215.923537 
L 317.164649 146.904506 
L 317.442694 131.29298 
L 317.720739 130.500629 
L 317.998785 153.856341 
L 318.554875 272.971614 
L 318.83292 288.493752 
L 319.110965 268.773912 
L 319.38901 200.783133 
L 319.667055 213.792654 
L 320.779235 303.043349 
L 321.05728 303.567903 
L 321.335325 291.98434 
L 321.61337 273.679551 
L 322.169461 286.427252 
L 322.447506 287.739684 
L 322.725551 303.093405 
L 323.003596 309.779815 
L 323.281641 312.085983 
L 323.559686 296.824867 
L 323.837731 292.553974 
L 324.115776 292.603345 
L 324.393821 297.831218 
L 324.949911 312.22068 
L 325.227956 308.34861 
L 325.506002 309.482792 
L 325.784047 308.739173 
L 326.340137 296.851423 
L 326.618182 299.22738 
L 326.896227 304.845748 
L 327.174272 307.714364 
L 327.452317 305.248426 
L 327.730362 310.65439 
L 328.008407 308.991069 
L 328.286452 299.833929 
L 328.564497 299.286653 
L 328.842542 302.434337 
L 329.398633 298.208344 
L 329.676678 294.192062 
L 329.954723 295.614735 
L 330.232768 295.325537 
L 330.510813 287.439581 
L 330.788858 290.232772 
L 331.344948 302.482567 
L 332.457128 270.184447 
L 333.291264 286.594848 
L 333.569309 286.027084 
L 334.403444 258.234116 
L 334.959534 266.639606 
L 335.237579 269.723409 
L 335.515624 274.985504 
L 336.071714 253.946752 
L 336.349759 242.812728 
L 336.627805 239.274458 
L 336.90585 244.945938 
L 337.46194 277.023943 
L 337.739985 280.60912 
L 338.01803 269.133698 
L 338.57412 236.235554 
L 338.852165 237.928488 
L 339.13021 247.687796 
L 339.408255 265.970728 
L 339.6863 276.29488 
L 339.964345 275.327723 
L 340.24239 257.954318 
L 340.798481 214.556943 
L 341.076526 222.54739 
L 341.632616 270.982547 
L 341.910661 272.837556 
L 342.188706 262.756015 
L 342.744796 187.941437 
L 343.022841 177.08064 
L 343.300886 179.666857 
L 343.856976 269.99285 
L 344.135022 265.072791 
L 344.691112 160.902355 
L 344.969157 106.750636 
L 345.247202 109.148176 
L 345.525247 134.634908 
L 345.803292 174.284255 
L 346.081337 238.351744 
L 346.359382 242.6726 
L 346.915472 96.849056 
L 347.193517 87.452546 
L 347.471562 92.802568 
L 347.749607 120.752957 
L 348.027653 162.780543 
L 348.305698 229.892275 
L 348.583743 217.136042 
L 348.861788 140.216042 
L 349.139833 94.916158 
L 349.417878 87.329028 
L 349.695923 87.724222 
L 349.973968 115.669637 
L 350.252013 167.667749 
L 350.530058 247.233603 
L 350.808103 235.584151 
L 351.086148 154.86575 
L 351.364193 128.386583 
L 351.642239 116.687396 
L 351.920284 127.26155 
L 352.198329 154.951168 
L 352.476374 254.304074 
L 352.754419 286.505004 
L 353.032464 262.95692 
L 353.310509 212.530916 
L 353.588554 200.99499 
L 353.866599 200.108871 
L 354.144644 231.030313 
L 354.422689 289.840407 
L 354.700734 301.08604 
L 354.978779 294.861032 
L 355.812915 254.821509 
L 356.09096 259.420521 
L 356.64705 307.827912 
L 356.925095 303.179644 
L 357.20314 296.33052 
L 357.75923 272.763591 
L 358.037275 266.667988 
L 358.31532 275.568691 
L 358.593365 303.722768 
L 358.87141 303.13219 
L 359.149456 305.134763 
L 359.427501 293.667509 
L 359.705546 286.870448 
L 359.983591 285.133984 
L 360.261636 285.33206 
L 360.539681 291.138283 
L 360.817726 304.856129 
L 361.095771 310.729062 
L 361.651861 291.703036 
L 361.929906 290.301946 
L 362.207951 290.312897 
L 362.485996 292.916088 
L 363.320132 311.328196 
L 363.876222 284.609476 
L 364.154267 288.003786 
L 364.432312 289.423493 
L 364.710357 295.903978 
L 364.988402 297.230419 
L 365.266447 296.927076 
L 365.544492 300.985199 
L 365.822537 299.127133 
L 366.378628 274.755533 
L 366.656673 273.820409 
L 367.490808 286.7462 
L 367.768853 287.723486 
L 368.046898 268.626803 
L 368.324943 257.29525 
L 368.602988 257.812457 
L 368.881033 267.755924 
L 369.159078 266.153108 
L 369.437123 265.451696 
L 369.715168 270.183945 
L 369.993213 266.721374 
L 370.271259 251.90407 
L 370.549304 251.963434 
L 370.827349 249.297594 
L 371.105394 256.202203 
L 371.383439 270.45772 
L 371.939529 276.520105 
L 372.217574 256.248699 
L 372.495619 244.598791 
L 373.051709 236.913877 
L 373.329754 248.183831 
L 373.607799 264.737234 
L 373.885845 271.790092 
L 374.16389 266.83426 
L 374.441935 229.705013 
L 374.71998 209.645463 
L 374.998025 212.751214 
L 375.27607 227.067281 
L 375.554115 249.364669 
L 375.83216 261.971147 
L 376.110205 260.667475 
L 376.38825 233.307802 
L 376.666295 176.055672 
L 376.94434 165.983211 
L 377.222385 180.786962 
L 377.50043 202.019456 
L 377.778476 246.853603 
L 378.056521 260.771829 
L 378.334566 247.155714 
L 378.890656 105.25117 
L 379.168701 91.199341 
L 379.446746 149.906039 
L 379.724791 171.644424 
L 380.002836 231.93409 
L 380.280881 246.729902 
L 380.558926 187.178289 
L 380.836971 103.318317 
L 381.115016 64.755629 
L 381.393062 68.602033 
L 382.227197 217.656123 
L 382.505242 227.648232 
L 382.783287 141.357502 
L 383.339377 50.414329 
L 383.617422 54.348751 
L 384.451557 213.526408 
L 384.729602 216.200872 
L 385.007648 128.564811 
L 385.563738 58.796685 
L 386.397873 165.222526 
L 386.675918 235.229841 
L 386.953963 238.008157 
L 387.232008 170.459845 
L 387.510053 135.92124 
L 387.788098 127.111065 
L 388.066143 146.877402 
L 388.900279 273.058766 
L 389.178324 266.480771 
L 389.734414 216.879286 
L 390.568549 264.604772 
L 390.846594 290.116554 
L 391.124639 301.775223 
L 391.680729 269.666327 
L 391.958774 266.694635 
L 392.514865 289.966252 
L 392.79291 290.562945 
L 393.070955 303.921894 
L 393.349 300.289993 
L 393.627045 299.057868 
L 393.90509 284.025925 
L 394.183135 280.291495 
L 394.46118 281.96531 
L 394.739225 297.906507 
L 395.01727 306.4957 
L 395.295315 306.625834 
L 395.851405 301.062814 
L 396.12945 299.313802 
L 396.407496 291.730368 
L 396.685541 290.187188 
L 397.241631 311.098088 
L 397.519676 308.862645 
L 397.797721 303.97163 
L 398.075766 303.433844 
L 398.353811 307.577317 
L 399.187946 283.563199 
L 399.465991 283.196842 
L 400.022082 298.256711 
L 400.300127 291.762582 
L 400.578172 297.783536 
L 400.856217 309.137151 
L 401.134262 303.693565 
L 401.412307 277.100691 
L 401.968397 293.223127 
L 402.246442 282.518838 
L 402.802532 284.636169 
L 403.080577 296.177069 
L 403.358622 291.972841 
L 403.636668 292.818167 
L 403.914713 287.486032 
L 404.470803 257.105889 
L 404.748848 257.362416 
L 405.026893 267.928585 
L 405.582983 297.125107 
L 405.861028 300.450881 
L 406.139073 281.949933 
L 406.417118 243.40796 
L 406.695163 233.160146 
L 406.973208 239.136977 
L 407.529299 273.224446 
L 407.807344 291.543334 
L 408.085389 296.42301 
L 408.641479 225.417603 
L 408.919524 226.199413 
L 409.197569 235.118871 
L 409.753659 275.729853 
L 410.031704 283.586379 
L 410.309749 277.931188 
L 410.587794 221.352955 
L 410.865839 201.973325 
L 411.143885 206.574755 
L 411.42193 222.980229 
L 411.699975 258.794032 
L 411.97802 273.173159 
L 412.256065 270.91935 
L 412.812155 164.598684 
L 413.0902 168.554598 
L 413.64629 196.053303 
L 413.924335 248.854397 
L 414.20238 262.089418 
L 414.480425 208.335677 
L 414.75847 111.949307 
L 415.036516 90.18359 
L 415.314561 105.887834 
L 415.870651 170.747309 
L 416.148696 238.137333 
L 416.426741 243.974903 
L 416.982831 79.482267 
L 417.260876 64.196808 
L 417.538921 84.270001 
L 417.816966 137.272138 
L 418.095011 168.941168 
L 418.373056 222.592335 
L 418.651102 218.864704 
L 419.207192 79.608751 
L 419.485237 83.539706 
L 420.319372 172.83343 
L 420.597417 215.541575 
L 420.875462 220.976468 
L 421.153507 156.167231 
L 421.431552 133.543549 
L 421.709597 128.169297 
L 422.265688 188.235334 
L 422.821778 251.367927 
L 423.099823 251.560117 
L 423.377868 201.841731 
L 423.655913 179.466362 
L 423.933958 190.055392 
L 424.212003 211.471589 
L 424.768093 271.800861 
L 425.046138 275.103821 
L 425.324183 270.381747 
L 425.602228 250.023919 
L 425.880273 243.273446 
L 426.158319 245.260506 
L 426.436364 264.465102 
L 426.436364 264.465102 
" clip-path="url(#p5fb706c765)" style="fill: none; stroke: #ff00ff; stroke-width: 3; stroke-linecap: square"/>
   </g>
   <g id="patch_3">
    <path d="M 7.2 331.2 
L 7.2 7.2 
" style="fill: none; stroke: #000000; stroke-width: 0.8; stroke-linejoin: miter; stroke-linecap: square"/>
   </g>
   <g id="patch_4">
    <path d="M 446.4 331.2 
L 446.4 7.2 
" style="fill: none; stroke: #000000; stroke-width: 0.8; stroke-linejoin: miter; stroke-linecap: square"/>
   </g>
   <g id="patch_5">
    <path d="M 7.2 331.2 
L 446.4 331.2 
" style="fill: none; stroke: #000000; stroke-width: 0.8; stroke-linejoin: miter; stroke-linecap: square"/>
   </g>
   <g id="patch_6">
    <path d="M 7.2 7.2 
L 446.4 7.2 
" style="fill: none; stroke: #000000; stroke-width: 0.8; stroke-linejoin: miter; stroke-linecap: square"/>
   </g>
  </g>
 </g>
 <defs>
  <clipPath id="p5fb706c765">
   <rect x="7.2" y="7.2" width="439.2" height="324"/>
  </clipPath>
 </defs>
</svg>
