<?xml version="1.0" encoding="utf-8" standalone="no"?>
<!DOCTYPE svg PUBLIC "-//W3C//DTD SVG 1.1//EN"
  "http://www.w3.org/Graphics/SVG/1.1/DTD/svg11.dtd">
<svg xmlns:xlink="http://www.w3.org/1999/xlink" width="453.6pt" height="338.4pt" viewBox="0 0 453.6 338.4" xmlns="http://www.w3.org/2000/svg" version="1.1">
 <metadata>
  <rdf:RDF xmlns:dc="http://purl.org/dc/elements/1.1/" xmlns:cc="http://creativecommons.org/ns#" xmlns:rdf="http://www.w3.org/1999/02/22-rdf-syntax-ns#">
   <cc:Work>
    <dc:type rdf:resource="http://purl.org/dc/dcmitype/StillImage"/>
    <dc:date>2025-05-15T17:13:43.716771</dc:date>
    <dc:format>image/svg+xml</dc:format>
    <dc:creator>
     <cc:Agent>
      <dc:title>Matplotlib v3.10.1, https://matplotlib.org/</dc:title>
     </cc:Agent>
    </dc:creator>
   </cc:Work>
  </rdf:RDF>
 </metadata>
 <defs>
  <style type="text/css">*{stroke-linejoin: round; stroke-linecap: butt}</style>
 </defs>
 <g id="figure_1">
  <g id="patch_1">
   <path d="M 0 338.4 
L 453.6 338.4 
L 453.6 0 
L 0 0 
z
" style="fill: #ffffff"/>
  </g>
  <g id="axes_1">
   <g id="patch_2">
    <path d="M 7.2 331.2 
L 446.4 331.2 
L 446.4 7.2 
L 7.2 7.2 
z
" style="fill: #ffffff"/>
   </g>
   <g id="matplotlib.axis_1"/>
   <g id="matplotlib.axis_2"/>
   <g id="line2d_1">
    <path d="M 27.163636 316.460819 
L 28.275817 316.418993 
L 33.002583 315.774883 
L 34.670853 315.306161 
L 36.061079 314.661642 
L 37.173259 313.916815 
L 38.285439 312.939742 
L 39.675665 311.383547 
L 40.787845 309.833745 
L 41.900025 307.921693 
L 43.012206 305.51598 
L 44.124386 302.530144 
L 45.792656 297.267698 
L 47.460927 292.187761 
L 48.573107 289.547087 
L 49.407242 288.113109 
L 50.241378 287.145268 
L 51.075513 286.551486 
L 53.299873 285.287787 
L 53.855964 284.66393 
L 54.690099 283.285446 
L 55.524234 281.368086 
L 56.914459 277.415838 
L 58.304685 273.585598 
L 59.13882 271.831176 
L 59.69491 270.999644 
L 60.251 270.474806 
L 60.80709 270.26719 
L 61.363181 270.37128 
L 61.919271 270.759289 
L 62.753406 271.745843 
L 64.699721 274.360984 
L 65.255812 274.714638 
L 65.811902 274.714525 
L 66.367992 274.279467 
L 66.924082 273.351295 
L 67.480172 271.889501 
L 68.036262 269.858639 
L 68.870398 265.680552 
L 69.704533 260.053439 
L 70.538668 252.859798 
L 71.650848 240.836632 
L 73.041074 222.673731 
L 75.265434 192.730443 
L 76.09957 183.752653 
L 76.933705 176.889592 
L 77.76784 172.085014 
L 78.601975 168.792756 
L 80.270246 163.091725 
L 81.104381 158.986961 
L 81.938516 153.575702 
L 84.997012 131.595798 
L 85.831147 127.590707 
L 86.665282 124.533115 
L 91.114004 110.647002 
L 91.670094 109.63752 
L 92.226184 109.126363 
L 92.504229 109.067324 
L 92.782274 109.140071 
L 93.338364 109.677188 
L 93.894454 110.710928 
L 94.72859 113.044261 
L 95.84077 117.188768 
L 98.343175 127.07623 
L 98.899266 128.607645 
L 99.455356 129.636273 
L 100.011446 130.079757 
L 100.289491 130.072126 
L 100.567536 129.917361 
L 101.123626 129.214815 
L 101.679716 128.099759 
L 103.904077 122.825986 
L 104.460167 122.126723 
L 104.738212 121.958714 
L 105.016257 121.925059 
L 105.294302 122.030972 
L 105.850393 122.661147 
L 106.406483 123.829141 
L 106.962573 125.487844 
L 107.796708 128.690854 
L 110.299114 139.205371 
L 111.133249 141.507843 
L 111.689339 142.533827 
L 112.523474 143.513013 
L 113.635655 144.571812 
L 114.191745 145.340589 
L 114.747835 146.4306 
L 115.58197 148.745088 
L 116.69415 152.870187 
L 118.362421 159.18563 
L 119.196556 161.390033 
L 119.752646 162.333648 
L 120.308736 162.873873 
L 120.864827 163.068107 
L 121.420917 163.006699 
L 122.811142 162.65314 
L 123.367232 162.856858 
L 123.923322 163.520011 
L 124.479413 164.796599 
L 125.035503 166.794778 
L 125.591593 169.583272 
L 126.425728 175.266649 
L 127.259863 182.541795 
L 128.650089 196.900461 
L 130.596404 216.933908 
L 131.98663 229.063494 
L 136.435351 264.120934 
L 137.269486 269.504772 
L 138.103621 273.451594 
L 138.659711 275.143588 
L 139.215801 276.083256 
L 139.493847 276.289862 
L 139.771892 276.336867 
L 140.049937 276.240019 
L 140.606027 275.691694 
L 141.440162 274.307959 
L 142.830387 271.884151 
L 143.386478 271.260128 
L 143.942568 270.950766 
L 144.498658 270.988894 
L 145.054748 271.384553 
L 145.610838 272.125953 
L 146.166928 273.18868 
L 147.001064 275.319127 
L 148.113244 278.9789 
L 149.503469 284.447604 
L 152.28392 295.660799 
L 153.674145 300.330749 
L 154.786326 303.392714 
L 155.620461 305.137784 
L 156.176551 305.944639 
L 156.732641 306.402812 
L 157.288731 306.463997 
L 157.844821 306.100695 
L 158.400912 305.312121 
L 158.957002 304.11936 
L 159.791137 301.665525 
L 160.903317 297.445568 
L 162.571588 289.922674 
L 165.352038 277.10545 
L 166.464219 272.930621 
L 167.298354 270.448713 
L 168.132489 268.586799 
L 168.966624 267.296228 
L 169.80076 266.43373 
L 171.46903 264.959895 
L 172.02512 264.162607 
L 172.58121 263.00686 
L 173.137301 261.38237 
L 173.693391 259.197375 
L 174.527526 254.731296 
L 175.361661 248.776303 
L 176.473841 238.672123 
L 177.864067 223.602586 
L 186.761509 122.55888 
L 190.376095 86.197194 
L 193.434591 50.643953 
L 193.990681 46.315336 
L 194.546771 43.31751 
L 195.102861 41.667516 
L 195.380907 41.311525 
L 195.658952 41.231186 
L 195.936997 41.388306 
L 196.493087 42.229617 
L 198.161357 45.575264 
L 198.717447 46.100529 
L 199.273538 46.275391 
L 200.107673 46.394122 
L 200.663763 46.840676 
L 201.219853 47.943579 
L 201.775943 49.918139 
L 202.332033 52.824625 
L 203.166169 58.701395 
L 205.668574 78.09086 
L 206.50271 81.991692 
L 207.0588 83.650357 
L 207.61489 84.735293 
L 208.449025 85.735028 
L 209.561205 86.907119 
L 210.395341 88.160929 
L 211.229476 89.82027 
L 213.731881 95.179219 
L 214.287972 95.863835 
L 214.844062 96.148682 
L 215.122107 96.105079 
L 215.400152 95.913928 
L 215.678197 95.556509 
L 216.234287 94.273882 
L 216.790377 92.13358 
L 217.346467 89.033789 
L 218.180603 82.498413 
L 219.014738 73.897187 
L 220.404963 56.512203 
L 222.073234 35.862915 
L 222.907369 28.164971 
L 223.463459 24.641479 
L 224.019549 22.563825 
L 224.297594 22.071513 
L 224.575639 21.927273 
L 224.853684 22.107523 
L 225.13173 22.582269 
L 225.68782 24.266594 
L 226.521955 27.976025 
L 227.91218 34.347187 
L 228.746316 37.064025 
L 230.970676 43.04211 
L 231.526766 45.591577 
L 232.360901 50.69392 
L 235.141352 70.09158 
L 235.697442 72.340914 
L 236.253533 73.716937 
L 236.809623 74.301942 
L 237.087668 74.35171 
L 237.643758 74.09974 
L 238.477893 73.197661 
L 240.424209 70.423538 
L 242.370524 67.652022 
L 242.926614 67.192111 
L 243.482704 67.060851 
L 244.038795 67.301319 
L 244.594885 67.887878 
L 246.263155 70.209834 
L 246.5412 70.351293 
L 246.819245 70.33548 
L 247.09729 70.135132 
L 247.375336 69.72722 
L 247.931426 68.229034 
L 248.487516 65.807744 
L 249.321651 60.66265 
L 250.433831 51.957979 
L 252.102102 38.890912 
L 252.936237 34.346235 
L 253.492327 32.712178 
L 253.770372 32.408912 
L 254.048417 32.484315 
L 254.326462 32.959738 
L 254.604507 33.848485 
L 255.160598 36.874878 
L 255.716688 41.488267 
L 256.550823 50.86327 
L 259.053229 82.580683 
L 259.887364 89.943536 
L 260.721499 95.373127 
L 263.50195 111.236644 
L 264.892175 122.212713 
L 268.506761 151.740144 
L 271.009167 170.525446 
L 272.677437 183.230558 
L 273.789618 193.416387 
L 274.901798 205.598954 
L 278.238339 244.085532 
L 279.350519 253.466887 
L 280.184654 258.971172 
L 281.01879 263.298123 
L 281.852925 266.663635 
L 282.965105 270.092986 
L 284.633376 274.203982 
L 286.579691 279.098958 
L 288.247962 283.941754 
L 289.638187 288.613988 
L 292.974728 300.438363 
L 293.808863 302.41807 
L 294.364953 303.305646 
L 294.921043 303.805341 
L 295.477133 303.894843 
L 296.033224 303.571624 
L 296.589314 302.848263 
L 297.145404 301.743396 
L 297.979539 299.434387 
L 298.813674 296.460659 
L 299.925855 291.694171 
L 301.594125 283.473994 
L 303.540441 273.932492 
L 304.652621 269.576535 
L 305.486756 267.145178 
L 306.320891 265.438168 
L 307.155027 264.313012 
L 308.267207 263.309243 
L 309.101342 262.539601 
L 309.935477 261.420491 
L 310.491567 260.334302 
L 311.047658 258.878616 
L 311.881793 255.836329 
L 312.715928 251.597794 
L 313.550063 246.153663 
L 314.662244 237.306544 
L 316.330514 221.828398 
L 319.110965 193.387169 
L 321.61337 168.313675 
L 323.559686 151.305493 
L 326.340137 127.047813 
L 328.564497 107.176285 
L 329.398633 101.140815 
L 330.232768 96.557021 
L 331.066903 93.464722 
L 331.901038 91.405412 
L 333.013219 88.86484 
L 333.569309 87.092632 
L 334.125399 84.738426 
L 334.959534 80.011143 
L 336.349759 69.96453 
L 337.46194 62.202133 
L 338.296075 57.808062 
L 338.852165 55.821849 
L 339.408255 54.640611 
L 339.6863 54.348146 
L 339.964345 54.245203 
L 340.24239 54.32023 
L 340.520436 54.558768 
L 341.076526 55.462626 
L 341.632616 56.82835 
L 342.466751 59.464271 
L 344.135022 65.684402 
L 346.359382 73.897137 
L 347.193517 76.231321 
L 347.749607 77.280673 
L 348.305698 77.765292 
L 348.583743 77.755068 
L 348.861788 77.560433 
L 349.139833 77.174598 
L 349.695923 75.821278 
L 350.252013 73.727812 
L 351.086148 69.487679 
L 353.588554 55.61897 
L 354.422689 52.570299 
L 355.256825 50.546322 
L 356.09096 49.273192 
L 356.925095 48.446867 
L 357.75923 47.965205 
L 358.31532 47.934332 
L 358.87141 48.290648 
L 359.427501 49.191975 
L 359.983591 50.7804 
L 360.539681 53.150794 
L 361.373816 58.182947 
L 362.485996 67.004894 
L 363.876222 78.324211 
L 364.432312 81.784253 
L 364.988402 84.150137 
L 365.266447 84.854951 
L 365.544492 85.221541 
L 365.822537 85.24665 
L 366.100582 84.93539 
L 366.378628 84.301018 
L 366.934718 82.146533 
L 367.490808 79.006045 
L 368.602988 70.963112 
L 370.271259 58.867939 
L 371.105394 54.321257 
L 371.661484 52.074755 
L 372.217574 50.507531 
L 372.773664 49.651911 
L 373.051709 49.50088 
L 373.329754 49.538644 
L 373.607799 49.766456 
L 374.16389 50.783507 
L 374.71998 52.49863 
L 375.554115 56.123486 
L 377.778476 67.010132 
L 378.334566 68.806271 
L 378.890656 69.95185 
L 379.446746 70.456967 
L 379.724791 70.495984 
L 380.280881 70.234718 
L 381.115016 69.338051 
L 382.227197 68.083089 
L 383.061332 67.457788 
L 384.173512 66.982967 
L 386.953963 65.906376 
L 387.788098 65.403765 
L 388.344188 64.839934 
L 388.900279 63.935926 
L 389.456369 62.548476 
L 390.012459 60.560684 
L 390.846594 56.431713 
L 393.070955 44.093717 
L 393.627045 42.797257 
L 393.90509 42.680782 
L 394.183135 42.962071 
L 394.46118 43.662349 
L 395.01727 46.358137 
L 395.57336 50.746444 
L 396.407496 60.128163 
L 397.519676 76.268334 
L 399.744036 110.073599 
L 400.578172 120.161509 
L 401.412307 127.920799 
L 402.246442 133.292014 
L 402.802532 135.726222 
L 403.636668 138.166983 
L 405.304938 142.132969 
L 405.861028 144.114521 
L 406.695163 148.249205 
L 407.529299 153.824501 
L 408.641479 163.065275 
L 410.309749 179.06123 
L 415.314561 228.583749 
L 416.426741 235.728287 
L 417.816966 242.636336 
L 421.153507 258.07584 
L 421.987642 260.519314 
L 422.543733 261.553781 
L 423.099823 262.219176 
L 424.490048 263.566606 
L 425.046138 264.569304 
L 425.602228 266.108926 
L 426.158319 268.268034 
L 426.436364 269.583088 
L 426.436364 269.583088 
" clip-path="url(#p7660123627)" style="fill: none; stroke-dasharray: 11.1,4.8; stroke-dashoffset: 0; stroke: #000000; stroke-width: 3"/>
   </g>
   <g id="line2d_2">
    <path d="M 27.163636 188.353049 
L 27.719727 187.966023 
L 28.275817 187.805544 
L 28.831907 187.958881 
L 29.387997 188.434053 
L 29.944087 189.273384 
L 30.500177 190.307086 
L 30.778222 190.122713 
L 33.002583 183.493892 
L 33.558673 181.090933 
L 34.114763 177.840411 
L 34.670853 173.244902 
L 35.226944 166.727143 
L 35.783034 159.244582 
L 37.173259 150.122865 
L 39.675665 133.378681 
L 40.787845 127.325844 
L 41.62198 123.823177 
L 42.456115 121.361216 
L 43.012206 120.359702 
L 43.568296 119.900819 
L 43.846341 119.877038 
L 44.124386 119.988977 
L 44.680476 120.62256 
L 45.236566 121.792233 
L 45.792656 123.48543 
L 46.348747 125.678606 
L 48.851152 138.754006 
L 49.685287 142.103574 
L 50.519423 144.586309 
L 51.075513 145.646086 
L 51.631603 146.139726 
L 51.909648 146.151178 
L 52.187693 145.987516 
L 52.743783 146.576381 
L 53.021828 146.763297 
L 54.134009 151.837098 
L 55.246189 157.998666 
L 56.636414 167.220269 
L 58.304685 180.043824 
L 59.13882 178.813871 
L 59.972955 177.196253 
L 61.085135 174.549519 
L 63.309496 168.413461 
L 64.143631 166.228441 
L 64.699721 163.091073 
L 65.533857 158.154334 
L 66.367992 154.578043 
L 66.924082 153.091534 
L 67.202127 152.636623 
L 67.480172 152.407494 
L 67.758217 152.370858 
L 68.036262 152.564239 
L 68.314307 153.001948 
L 68.870398 154.609868 
L 69.426488 157.323247 
L 69.982578 161.22532 
L 70.538668 165.478947 
L 71.094758 167.94389 
L 71.650848 171.295814 
L 72.484984 177.978838 
L 73.319119 186.484326 
L 73.875209 192.575691 
L 74.153254 194.300437 
L 75.265434 194.472017 
L 76.377615 195.00832 
L 77.76784 195.646351 
L 78.32393 195.735311 
L 78.601975 195.664093 
L 80.270246 184.778011 
L 81.660471 177.123557 
L 82.772651 172.121588 
L 83.606787 169.300041 
L 84.162877 168.030845 
L 84.718967 167.397275 
L 84.997012 167.365024 
L 85.275057 167.574668 
L 85.553102 168.032399 
L 85.831147 168.77772 
L 86.387237 171.300425 
L 86.943327 175.44314 
L 87.499418 181.667419 
L 88.055508 188.360893 
L 88.889643 197.735294 
L 89.167688 197.644667 
L 90.001823 185.305594 
L 90.835958 176.395363 
L 91.392049 172.293782 
L 91.948139 169.518707 
L 92.504229 168.056443 
L 92.782274 167.725499 
L 93.060319 167.697947 
L 93.338364 167.896603 
L 93.616409 168.306208 
L 94.172499 169.743776 
L 95.006635 172.980916 
L 96.39686 179.584039 
L 96.674905 181.70155 
L 98.621221 204.27538 
L 99.455356 212.013607 
L 100.289491 217.637594 
L 100.845581 219.928451 
L 101.123626 220.555469 
L 101.401671 220.854048 
L 101.679716 220.592281 
L 102.235807 218.049379 
L 105.016257 204.032031 
L 105.294302 203.246903 
L 105.850393 202.592082 
L 106.406483 202.357992 
L 106.684528 202.415954 
L 107.240618 202.904858 
L 107.796708 203.929326 
L 108.352798 205.521346 
L 108.908888 207.713182 
L 109.743024 212.17767 
L 110.577159 218.135707 
L 111.133249 222.969817 
L 111.411294 224.079336 
L 113.35761 200.767964 
L 114.46979 190.940469 
L 115.58197 183.385725 
L 116.416105 178.970065 
L 117.250241 175.450833 
L 118.084376 172.675859 
L 118.918511 170.510623 
L 119.752646 168.833352 
L 120.586781 167.551902 
L 121.698962 166.316211 
L 122.811142 165.458699 
L 123.645277 165.072513 
L 124.479413 164.901196 
L 125.035503 164.87348 
L 125.591593 164.453038 
L 125.869638 164.462047 
L 126.147683 164.623791 
L 126.703773 165.379437 
L 128.928134 170.195154 
L 130.318359 173.371338 
L 131.152494 174.741534 
L 131.708584 175.226654 
L 131.98663 175.307658 
L 132.264675 175.251651 
L 132.54272 175.067566 
L 133.09881 174.222359 
L 133.6549 172.68686 
L 134.21099 170.374326 
L 135.045125 165.57134 
L 135.879261 159.235323 
L 136.435351 153.867841 
L 136.713396 154.137578 
L 137.547531 159.315725 
L 138.103621 161.735586 
L 138.659711 163.460809 
L 139.215801 164.592755 
L 139.771892 165.235422 
L 140.049937 165.147452 
L 141.162117 163.921909 
L 141.996252 163.396657 
L 142.552342 163.300931 
L 143.108433 163.452364 
L 143.664523 163.889245 
L 144.220613 164.674511 
L 144.776703 165.852479 
L 145.332793 167.494016 
L 145.888883 169.650581 
L 146.723018 174.042597 
L 147.557154 180.072743 
L 148.391289 188.042203 
L 149.503469 201.263309 
L 150.337604 212.752464 
L 150.61565 211.991731 
L 154.230236 191.920657 
L 154.786326 190.084373 
L 155.342416 189.023644 
L 155.620461 188.840687 
L 155.898506 188.917694 
L 156.176551 189.279561 
L 156.454596 189.952161 
L 157.010686 192.339558 
L 157.288731 193.606662 
L 157.844821 194.079352 
L 158.400912 194.763981 
L 158.957002 195.686596 
L 159.791137 197.565468 
L 160.625272 200.140158 
L 161.181362 202.259159 
L 161.459407 202.439309 
L 162.849633 196.691693 
L 164.239858 191.803493 
L 165.352038 188.577805 
L 166.464219 186.065011 
L 167.298354 184.682222 
L 168.132489 183.582401 
L 171.747075 172.753066 
L 172.58121 169.954836 
L 173.137301 170.332377 
L 173.693391 170.250146 
L 174.249481 169.74127 
L 174.527526 169.320025 
L 174.805571 168.423935 
L 176.195796 161.351367 
L 177.586022 153.190067 
L 179.254292 141.868519 
L 180.366473 133.959101 
L 180.644518 134.561473 
L 181.478653 138.388205 
L 182.034743 140.055152 
L 182.590833 141.09968 
L 183.146923 141.568674 
L 183.424968 141.599472 
L 183.703013 141.506565 
L 184.259104 140.949412 
L 184.815194 139.9536 
L 185.649329 137.727032 
L 186.483464 135.203363 
L 187.87369 138.866108 
L 188.707825 140.24208 
L 189.54196 141.136492 
L 190.65414 141.888955 
L 192.044366 142.771701 
L 193.156546 134.55175 
L 193.990681 129.937484 
L 194.546771 127.966294 
L 194.824816 127.370562 
L 195.102861 127.076005 
L 195.380907 127.088822 
L 195.658952 126.792586 
L 196.215042 121.982019 
L 196.771132 118.997487 
L 197.049177 119.730442 
L 197.605267 123.505941 
L 198.439402 131.060196 
L 199.551583 143.685433 
L 203.166169 187.56445 
L 204.000304 194.500972 
L 204.556394 197.733414 
L 205.112484 199.628074 
L 205.390529 200.003297 
L 205.668574 199.98642 
L 205.946619 199.499408 
L 206.224664 198.579975 
L 206.780755 195.229843 
L 207.336845 189.745473 
L 207.892935 181.930377 
L 208.72707 182.558622 
L 209.561205 182.933131 
L 211.785566 186.654477 
L 212.063611 187.154533 
L 212.341656 187.035589 
L 213.731881 185.567236 
L 215.122107 184.365425 
L 217.902558 179.617518 
L 219.292783 177.849282 
L 220.961053 176.114964 
L 223.185414 173.848689 
L 223.463459 173.516894 
L 223.741504 172.940759 
L 225.68782 166.87201 
L 226.8 163.693821 
L 227.078045 164.227831 
L 230.136541 178.13423 
L 230.970676 181.146489 
L 231.804811 186.963782 
L 232.638947 191.148886 
L 233.195037 192.941279 
L 233.751127 193.918222 
L 234.029172 194.096931 
L 234.307217 194.042991 
L 234.585262 193.774019 
L 235.141352 192.588609 
L 235.697442 190.54189 
L 236.253533 187.645592 
L 237.087668 181.74296 
L 237.921803 174.114905 
L 239.868119 154.948342 
L 240.702254 149.379247 
L 241.536389 145.094872 
L 242.370524 141.839864 
L 243.204659 139.381549 
L 244.594885 135.849575 
L 246.5412 128.669641 
L 248.209471 122.473642 
L 249.877741 118.235288 
L 250.433831 116.603136 
L 250.711876 116.375097 
L 250.989921 116.586045 
L 251.546012 117.715611 
L 252.102102 118.307533 
L 252.380147 118.368853 
L 252.658192 118.25952 
L 252.936237 117.952721 
L 253.492327 116.653931 
L 254.048417 114.339618 
L 254.604507 110.799437 
L 255.160598 105.808632 
L 255.716688 99.147936 
L 256.272778 91.703089 
L 256.550823 96.263979 
L 257.941048 131.995541 
L 259.331274 162.200922 
L 260.443454 182.355606 
L 261.555634 199.011844 
L 262.667815 211.708913 
L 263.779995 221.209976 
L 264.892175 228.378233 
L 265.448265 231.258706 
L 266.004356 232.427728 
L 266.838491 234.173348 
L 267.116536 232.29088 
L 272.121347 177.689392 
L 273.233527 168.609235 
L 274.067663 163.527453 
L 274.623753 161.199521 
L 274.901798 160.397102 
L 275.735933 152.270872 
L 276.292023 148.338115 
L 276.848113 145.803156 
L 277.126159 145.124279 
L 277.404204 144.858602 
L 277.682249 144.838768 
L 278.238339 143.035373 
L 278.516384 142.858757 
L 278.794429 143.258174 
L 279.906609 146.076326 
L 281.01879 149.843192 
L 282.409015 155.432798 
L 286.023601 170.950712 
L 286.301646 172.486048 
L 291.028412 223.701156 
L 292.696683 238.308897 
L 293.808863 246.565936 
L 294.921043 253.138098 
L 295.477133 255.45216 
L 295.755179 254.820457 
L 298.535629 231.087377 
L 300.2039 218.22686 
L 301.038035 213.255476 
L 301.594125 210.914137 
L 302.150215 209.479614 
L 302.42826 209.134211 
L 302.706305 209.049975 
L 302.98435 209.259519 
L 303.262396 209.754826 
L 303.818486 211.674695 
L 304.374576 214.910733 
L 304.930666 219.572524 
L 305.486756 225.71759 
L 306.320891 237.804218 
L 306.598936 237.290017 
L 307.155027 233.287107 
L 307.711117 230.607294 
L 308.267207 228.981406 
L 308.823297 228.193021 
L 309.379387 227.981471 
L 309.935477 228.116991 
L 311.047658 228.549687 
L 311.603748 228.428151 
L 312.159838 227.829563 
L 312.715928 226.56915 
L 313.272018 224.503675 
L 314.106153 220.859073 
L 314.940289 217.083348 
L 315.774424 212.128078 
L 316.608559 205.85655 
L 317.442694 198.141653 
L 317.720739 195.234855 
L 317.998785 191.146881 
L 319.38901 162.083157 
L 320.223145 165.531596 
L 321.335325 171.180667 
L 322.447506 178.18327 
L 323.559686 186.715171 
L 324.115776 190.841172 
L 325.506002 195.945256 
L 326.340137 198.386143 
L 327.174272 200.094074 
L 327.730362 200.723522 
L 328.008407 200.85383 
L 328.286452 200.85918 
L 328.564497 200.743256 
L 328.842542 200.475549 
L 329.120587 199.987297 
L 330.232768 194.781121 
L 331.066903 191.589287 
L 331.901038 189.949279 
L 332.735173 187.785033 
L 334.125399 183.372669 
L 339.408255 165.414407 
L 340.520436 162.675367 
L 341.354571 161.064252 
L 343.022841 158.220866 
L 343.856976 156.816225 
L 344.691112 155.891931 
L 345.247202 155.586498 
L 345.803292 155.554986 
L 346.359382 155.732655 
L 346.637427 155.551377 
L 346.915472 154.59388 
L 348.305698 148.219397 
L 350.530058 139.445613 
L 351.364193 136.96061 
L 351.920284 135.773421 
L 352.476374 135.025355 
L 353.032464 134.751421 
L 353.310509 134.794297 
L 353.866599 135.240287 
L 354.422689 136.137041 
L 355.256825 138.22398 
L 356.369005 141.929087 
L 357.20314 144.614325 
L 357.481185 144.657151 
L 357.75923 144.52509 
L 358.037275 144.219381 
L 358.593365 142.918473 
L 359.149456 140.555746 
L 359.705546 136.921355 
L 360.261636 131.803939 
L 360.817726 125.004866 
L 361.651861 111.210482 
L 361.929906 112.676267 
L 363.598177 139.804285 
L 364.988402 158.662295 
L 365.822537 168.1337 
L 368.324943 189.611294 
L 371.939529 221.174831 
L 373.051709 227.200904 
L 374.16389 232.106683 
L 374.441935 229.896053 
L 375.83216 184.294758 
L 376.94434 155.39799 
L 377.778476 138.361141 
L 378.612611 125.16755 
L 379.446746 115.684568 
L 380.002836 111.359058 
L 380.558926 108.552383 
L 380.836971 107.687292 
L 381.115016 107.208587 
L 381.393062 107.062793 
L 381.671107 107.271936 
L 381.949152 107.813941 
L 382.505242 109.890216 
L 384.451557 120.977736 
L 385.007648 124.402119 
L 385.285693 124.456647 
L 385.841783 123.82775 
L 386.397873 123.669915 
L 386.953963 123.932924 
L 387.510053 124.564514 
L 388.622233 126.285364 
L 389.734414 127.16945 
L 390.846594 124.837484 
L 391.958774 123.082679 
L 393.070955 121.803435 
L 394.183135 120.91569 
L 395.295315 120.344817 
L 396.685541 119.92861 
L 398.353811 119.652182 
L 400.856217 119.432764 
L 402.802532 120.001106 
L 403.914713 120.512363 
L 404.748848 121.064127 
L 405.582983 121.810602 
L 406.417118 122.825986 
L 407.251253 124.185996 
L 408.085389 125.9776 
L 408.919524 128.292814 
L 409.753659 131.247576 
L 410.587794 134.953748 
L 411.42193 139.557389 
L 412.256065 145.197176 
L 412.812155 149.638358 
L 413.0902 150.550699 
L 413.64629 148.548386 
L 414.20238 147.301768 
L 414.480425 147.141578 
L 414.75847 147.331188 
L 415.314561 148.468948 
L 415.870651 150.302839 
L 416.426741 152.858509 
L 417.260876 158.068807 
L 418.929147 171.334392 
L 420.041327 182.039835 
L 421.987642 202.015947 
L 422.821778 207.644946 
L 423.377868 210.460893 
L 423.933958 212.409993 
L 424.490048 213.387788 
L 424.768093 213.539872 
L 426.158319 217.365502 
L 426.436364 217.697373 
L 426.436364 217.697373 
" clip-path="url(#p7660123627)" style="fill: none; stroke: #ff00ff; stroke-width: 3; stroke-linecap: square"/>
   </g>
   <g id="patch_3">
    <path d="M 7.2 331.2 
L 7.2 7.2 
" style="fill: none; stroke: #000000; stroke-width: 0.8; stroke-linejoin: miter; stroke-linecap: square"/>
   </g>
   <g id="patch_4">
    <path d="M 446.4 331.2 
L 446.4 7.2 
" style="fill: none; stroke: #000000; stroke-width: 0.8; stroke-linejoin: miter; stroke-linecap: square"/>
   </g>
   <g id="patch_5">
    <path d="M 7.2 331.2 
L 446.4 331.2 
" style="fill: none; stroke: #000000; stroke-width: 0.8; stroke-linejoin: miter; stroke-linecap: square"/>
   </g>
   <g id="patch_6">
    <path d="M 7.2 7.2 
L 446.4 7.2 
" style="fill: none; stroke: #000000; stroke-width: 0.8; stroke-linejoin: miter; stroke-linecap: square"/>
   </g>
  </g>
 </g>
 <defs>
  <clipPath id="p7660123627">
   <rect x="7.2" y="7.2" width="439.2" height="324"/>
  </clipPath>
 </defs>
</svg>
