<?xml version="1.0" encoding="utf-8" standalone="no"?>
<!DOCTYPE svg PUBLIC "-//W3C//DTD SVG 1.1//EN"
  "http://www.w3.org/Graphics/SVG/1.1/DTD/svg11.dtd">
<svg xmlns:xlink="http://www.w3.org/1999/xlink" width="453.6pt" height="338.4pt" viewBox="0 0 453.6 338.4" xmlns="http://www.w3.org/2000/svg" version="1.1">
 <metadata>
  <rdf:RDF xmlns:dc="http://purl.org/dc/elements/1.1/" xmlns:cc="http://creativecommons.org/ns#" xmlns:rdf="http://www.w3.org/1999/02/22-rdf-syntax-ns#">
   <cc:Work>
    <dc:type rdf:resource="http://purl.org/dc/dcmitype/StillImage"/>
    <dc:date>2025-05-15T17:29:42.721776</dc:date>
    <dc:format>image/svg+xml</dc:format>
    <dc:creator>
     <cc:Agent>
      <dc:title>Matplotlib v3.10.1, https://matplotlib.org/</dc:title>
     </cc:Agent>
    </dc:creator>
   </cc:Work>
  </rdf:RDF>
 </metadata>
 <defs>
  <style type="text/css">*{stroke-linejoin: round; stroke-linecap: butt}</style>
 </defs>
 <g id="figure_1">
  <g id="patch_1">
   <path d="M 0 338.4 
L 453.6 338.4 
L 453.6 0 
L 0 0 
z
" style="fill: #ffffff"/>
  </g>
  <g id="axes_1">
   <g id="patch_2">
    <path d="M 7.2 331.2 
L 446.4 331.2 
L 446.4 7.2 
L 7.2 7.2 
z
" style="fill: #ffffff"/>
   </g>
   <g id="matplotlib.axis_1"/>
   <g id="matplotlib.axis_2"/>
   <g id="line2d_1">
    <path d="M 27.163636 32.97838 
L 27.719727 29.896931 
L 28.275817 28.250808 
L 28.831907 27.43967 
L 29.666042 26.824286 
L 30.500177 26.183345 
L 32.446493 24.289549 
L 33.002583 24.17258 
L 33.280628 24.272947 
L 33.836718 24.852763 
L 34.392808 25.982912 
L 34.948898 27.670188 
L 35.783034 31.145056 
L 36.895214 37.079146 
L 40.787845 59.446038 
L 41.900025 64.34446 
L 42.734161 67.271107 
L 43.568296 69.490052 
L 44.402431 71.00708 
L 45.236566 71.925528 
L 46.348747 72.643594 
L 47.182882 73.287403 
L 47.738972 73.99601 
L 48.295062 75.041288 
L 49.129197 77.31829 
L 50.241378 81.350234 
L 51.353558 85.187681 
L 51.909648 86.378907 
L 52.187693 86.674524 
L 52.465738 86.731776 
L 52.743783 86.52747 
L 53.021828 86.044903 
L 53.577918 84.21017 
L 54.134009 81.237088 
L 54.968144 74.972213 
L 57.192504 55.760725 
L 57.748595 52.675403 
L 58.304685 51.030337 
L 58.58273 50.823716 
L 58.860775 51.053731 
L 59.13882 51.73009 
L 59.69491 54.42476 
L 60.251 58.842476 
L 61.085135 68.324585 
L 62.197316 84.969791 
L 64.421676 123.864165 
L 66.367992 156.002595 
L 67.758217 175.596912 
L 69.148443 192.346712 
L 71.372803 215.823578 
L 73.319119 234.727952 
L 74.431299 243.53589 
L 75.265434 248.259261 
L 75.821524 250.270579 
L 76.377615 251.286728 
L 76.65566 251.414136 
L 76.933705 251.289545 
L 77.21175 250.917708 
L 77.76784 249.46251 
L 78.32393 247.125162 
L 79.158065 242.177462 
L 79.992201 235.815666 
L 81.104381 225.715859 
L 82.772651 208.361265 
L 84.718967 185.720641 
L 86.109192 167.141014 
L 87.499418 145.339776 
L 89.445733 110.153253 
L 91.114004 81.217819 
L 91.948139 69.604505 
L 92.782274 60.871352 
L 93.338364 56.84449 
L 93.894454 54.303313 
L 94.172499 53.587612 
L 94.450544 53.235849 
L 94.72859 53.24088 
L 95.006635 53.594002 
L 95.28468 54.285856 
L 95.84077 56.637618 
L 96.39686 60.189862 
L 97.230995 67.480494 
L 98.343175 79.976637 
L 101.957761 123.624039 
L 103.347987 136.248823 
L 104.738212 146.553615 
L 105.850393 153.244837 
L 106.684528 157.021435 
L 107.240618 158.726294 
L 107.796708 159.6298 
L 108.074753 159.745008 
L 108.352798 159.620719 
L 108.630843 159.249235 
L 109.186933 157.751977 
L 109.743024 155.271323 
L 110.577159 149.928116 
L 111.689339 140.815203 
L 113.35761 127.123408 
L 114.191745 121.767673 
L 115.02588 117.575293 
L 117.806331 105.065265 
L 118.918511 98.129615 
L 120.864827 85.438926 
L 121.698962 81.270191 
L 122.255052 79.275073 
L 122.811142 78.029513 
L 123.089187 77.71508 
L 123.367232 77.618033 
L 123.645277 77.745769 
L 123.923322 78.103267 
L 124.479413 79.517463 
L 125.035503 81.848095 
L 125.869638 86.883761 
L 126.981818 95.534507 
L 128.372044 106.413455 
L 129.206179 111.301363 
L 129.762269 113.483984 
L 130.318359 114.735178 
L 130.596404 115.019778 
L 130.874449 115.089859 
L 131.152494 114.959558 
L 131.708584 114.163664 
L 132.264675 112.771 
L 133.09881 109.836555 
L 134.21099 104.758881 
L 135.32317 98.55161 
L 137.269486 85.867361 
L 138.381666 79.409399 
L 138.937756 77.065485 
L 139.493847 75.544683 
L 139.771892 75.119821 
L 140.049937 74.91964 
L 140.327982 74.934431 
L 140.606027 75.147239 
L 141.162117 76.060455 
L 143.108433 80.240308 
L 143.386478 80.430377 
L 143.664523 80.440187 
L 143.942568 80.268582 
L 144.498658 79.44376 
L 145.888883 76.767 
L 146.166928 76.718451 
L 146.444973 77.048732 
L 146.723018 77.856399 
L 147.001064 79.236888 
L 147.557154 84.061255 
L 148.113244 92.094453 
L 148.669334 103.657106 
L 149.503469 127.528499 
L 150.61565 168.843785 
L 152.561965 243.870297 
L 153.3961 266.25135 
L 153.95219 275.335763 
L 154.230236 277.896283 
L 154.508281 279.082779 
L 154.786326 278.883982 
L 155.064371 277.310959 
L 155.342416 274.397493 
L 155.898506 264.78858 
L 156.454596 250.724168 
L 157.288731 223.325083 
L 160.347227 112.151742 
L 161.181362 90.002187 
L 162.015498 72.772235 
L 162.849633 59.919399 
L 163.683768 50.781607 
L 164.239858 46.506217 
L 164.795948 43.583242 
L 165.352038 41.967356 
L 165.630084 41.639691 
L 165.908129 41.627063 
L 166.186174 41.924593 
L 166.464219 42.52584 
L 167.020309 44.608396 
L 167.576399 47.797809 
L 168.410534 54.442469 
L 169.24467 62.987113 
L 170.35685 76.650634 
L 172.58121 107.878766 
L 174.249481 130.11113 
L 175.361661 142.099249 
L 176.195796 148.825888 
L 176.751887 152.043977 
L 177.307977 154.200538 
L 177.864067 155.326714 
L 178.142112 155.534869 
L 178.420157 155.533359 
L 178.698202 155.348246 
L 179.254292 154.553283 
L 180.922563 151.359996 
L 181.478653 150.899967 
L 181.756698 150.879718 
L 182.034743 151.006598 
L 182.590833 151.684165 
L 183.146923 152.836199 
L 185.649329 159.074762 
L 186.205419 159.867788 
L 187.039554 160.613876 
L 188.42978 161.669015 
L 188.98587 162.384338 
L 189.54196 163.379407 
L 190.376095 165.394725 
L 193.156546 173.172453 
L 193.712636 173.957807 
L 193.990681 174.143248 
L 194.268726 174.170213 
L 194.546771 174.024643 
L 194.824816 173.693909 
L 195.380907 172.434591 
L 195.936997 170.325295 
L 196.493087 167.330353 
L 197.327222 161.18612 
L 198.161357 153.209016 
L 199.273538 140.287407 
L 203.444214 88.754465 
L 204.278349 81.916013 
L 205.112484 77.135113 
L 205.668574 75.126411 
L 206.224664 74.032837 
L 206.50271 73.813437 
L 206.780755 73.801112 
L 207.0588 73.986502 
L 207.61489 74.910182 
L 208.17098 76.501869 
L 209.005115 79.954652 
L 210.117296 86.060499 
L 212.897746 102.472924 
L 213.453836 104.637333 
L 214.009927 106.049568 
L 214.287972 106.43856 
L 214.566017 106.603373 
L 214.844062 106.53938 
L 215.122107 106.245724 
L 215.678197 104.987738 
L 216.234287 102.912577 
L 217.068422 98.64267 
L 218.736693 89.517607 
L 219.292783 87.665367 
L 219.570828 87.179882 
L 219.848873 87.043594 
L 220.126918 87.289707 
L 220.404963 87.944685 
L 220.961053 90.537881 
L 221.517144 94.83078 
L 222.351279 104.041469 
L 224.019549 127.232629 
L 225.13173 140.768214 
L 225.965865 147.854942 
L 226.521955 150.942655 
L 227.078045 152.82508 
L 227.634135 153.679233 
L 227.91218 153.783725 
L 228.190225 153.706299 
L 228.746316 153.09333 
L 229.302406 151.995177 
L 230.136541 149.715609 
L 231.804811 144.742251 
L 232.360901 143.78255 
L 232.638947 143.594141 
L 232.916992 143.648123 
L 233.195037 143.975637 
L 233.473082 144.603247 
L 234.029172 146.82594 
L 234.585262 150.362512 
L 235.419397 157.850383 
L 238.477893 189.184541 
L 239.033983 192.370961 
L 239.590073 194.351515 
L 239.868119 194.908766 
L 240.146164 195.200209 
L 240.424209 195.249789 
L 240.702254 195.085755 
L 241.258344 194.248506 
L 242.370524 191.594486 
L 242.926614 190.422026 
L 243.482704 189.770696 
L 243.76075 189.726247 
L 244.038795 189.906657 
L 244.31684 190.332551 
L 244.87293 191.96748 
L 245.42902 194.638178 
L 246.263155 200.219474 
L 247.653381 210.368961 
L 248.209471 213.055783 
L 248.487516 213.793243 
L 248.765561 214.033018 
L 249.043606 213.715339 
L 249.321651 212.791483 
L 249.599696 211.225403 
L 250.155786 206.09591 
L 250.711876 198.338759 
L 251.546012 182.387922 
L 252.936237 148.802217 
L 254.604507 108.756564 
L 255.716688 87.074333 
L 256.828868 69.710054 
L 257.941048 55.426218 
L 259.331274 40.528105 
L 260.443454 31.125536 
L 261.277589 26.042629 
L 261.833679 23.758785 
L 262.38977 22.398168 
L 262.667815 22.056115 
L 262.94586 21.927273 
L 263.223905 21.997052 
L 263.50195 22.248045 
L 264.05804 23.204124 
L 264.892175 25.3792 
L 266.282401 29.120506 
L 266.838491 30.131523 
L 267.394581 30.7457 
L 267.950671 31.01239 
L 269.340896 31.302122 
L 269.896987 31.946937 
L 270.453077 33.312283 
L 271.009167 35.62259 
L 271.565257 39.017365 
L 272.399392 46.192135 
L 273.233527 55.545301 
L 274.901798 77.688768 
L 276.292023 95.32673 
L 277.126159 103.934914 
L 277.960294 110.344931 
L 278.516384 113.186555 
L 279.072474 114.79892 
L 279.350519 115.141779 
L 279.628564 115.184894 
L 279.906609 114.942855 
L 280.184654 114.435938 
L 280.740744 112.745443 
L 281.57488 109.111144 
L 282.68706 104.298198 
L 283.24315 102.832284 
L 283.521195 102.486809 
L 283.79924 102.440877 
L 284.077285 102.714459 
L 284.35533 103.31948 
L 284.911421 105.524841 
L 285.467511 108.974051 
L 286.301646 116.026771 
L 287.969916 133.382446 
L 289.638187 150.092351 
L 291.584502 167.017982 
L 292.974728 177.634969 
L 293.808863 182.589889 
L 294.364953 184.811576 
L 294.642998 185.496613 
L 294.921043 185.855445 
L 295.199088 185.859897 
L 295.477133 185.486073 
L 295.755179 184.715007 
L 296.311269 181.936144 
L 296.867359 177.500819 
L 297.701494 167.968427 
L 298.813674 151.158406 
L 301.31608 110.346642 
L 302.150215 99.823783 
L 302.98435 91.710442 
L 303.818486 85.690171 
L 304.930666 79.509514 
L 306.042846 73.296458 
L 306.876982 67.602545 
L 308.267207 56.086177 
L 309.657432 44.603013 
L 310.491567 39.280081 
L 311.047658 36.7219 
L 311.603748 35.018324 
L 312.159838 34.152298 
L 312.437883 34.016463 
L 312.715928 34.066823 
L 312.993973 34.29397 
L 313.550063 35.242653 
L 314.106153 36.798521 
L 314.940289 40.164268 
L 315.774424 44.629023 
L 317.164649 53.793629 
L 318.83292 64.697078 
L 319.667055 68.633836 
L 320.223145 70.390388 
L 320.779235 71.430182 
L 321.335325 71.834367 
L 321.891416 71.769368 
L 323.281641 71.182408 
L 323.559686 71.271255 
L 323.837731 71.507558 
L 324.115776 71.920095 
L 324.671866 73.371268 
L 325.227956 75.777716 
L 325.784047 79.223455 
L 326.618182 86.376341 
L 327.452317 95.808291 
L 328.564497 111.600553 
L 329.676678 130.612966 
L 333.569309 201.106378 
L 334.125399 206.870674 
L 334.681489 210.557319 
L 334.959534 211.614521 
L 335.237579 212.17059 
L 335.515624 212.259663 
L 335.793669 211.928199 
L 336.349759 210.243339 
L 337.183895 206.253454 
L 338.01803 202.379758 
L 338.57412 200.784121 
L 338.852165 200.431679 
L 339.13021 200.414674 
L 339.408255 200.746213 
L 339.6863 201.426068 
L 340.24239 203.7689 
L 340.798481 207.215268 
L 341.910661 215.933454 
L 343.022841 224.375391 
L 343.856976 229.096271 
L 344.413067 231.315669 
L 345.247202 233.594558 
L 346.359382 236.274286 
L 346.915472 238.301326 
L 347.471562 241.247418 
L 348.027653 245.347204 
L 348.861788 253.832809 
L 349.973968 268.820549 
L 352.198329 300.677548 
L 353.032464 309.176435 
L 353.588554 313.091334 
L 354.144644 315.516472 
L 354.422689 316.174191 
L 354.700734 316.472727 
L 354.978779 316.42433 
L 355.256825 316.043488 
L 355.812915 314.352414 
L 356.369005 311.547817 
L 357.20314 305.616821 
L 358.31532 295.449775 
L 361.095771 268.529081 
L 362.207951 260.595546 
L 363.042087 256.187338 
L 363.876222 252.861084 
L 366.100582 245.214186 
L 366.656673 242.447523 
L 367.212763 238.887053 
L 368.046898 231.588572 
L 368.881033 221.375318 
L 369.715168 207.764747 
L 370.549304 190.532556 
L 371.661484 162.259697 
L 373.607799 104.413608 
L 374.998025 66.642743 
L 375.83216 49.846708 
L 376.38825 42.097707 
L 376.94434 37.435437 
L 377.222385 36.296484 
L 377.50043 35.948142 
L 377.778476 36.373708 
L 378.056521 37.545866 
L 378.612611 41.96977 
L 379.168701 48.818385 
L 380.002836 62.496848 
L 383.061332 118.057307 
L 383.895467 127.795189 
L 384.451557 132.177084 
L 385.007648 134.858372 
L 385.285693 135.587104 
L 385.563738 135.932326 
L 385.841783 135.917837 
L 386.119828 135.570451 
L 386.675918 134.000799 
L 387.232008 131.488148 
L 388.066143 126.557729 
L 390.846594 109.037693 
L 391.958774 103.680248 
L 393.627045 97.003943 
L 395.295315 90.175352 
L 396.407496 84.737111 
L 399.744036 67.479136 
L 400.300127 65.925582 
L 400.578172 65.449807 
L 400.856217 65.19665 
L 401.134262 65.179092 
L 401.412307 65.406239 
L 401.690352 65.883474 
L 402.246442 67.588609 
L 402.802532 70.252339 
L 403.636668 75.780785 
L 405.026893 87.313051 
L 406.139073 96.164531 
L 406.973208 101.200399 
L 407.529299 103.448775 
L 408.085389 104.702736 
L 408.363434 104.949252 
L 408.641479 104.945227 
L 408.919524 104.696346 
L 409.197569 104.210106 
L 409.753659 102.560965 
L 410.309749 100.070501 
L 411.143885 94.896584 
L 411.97802 88.128616 
L 413.0902 76.86138 
L 416.426741 40.255579 
L 416.982831 37.427086 
L 417.260876 36.802546 
L 417.538921 36.780611 
L 417.816966 37.412446 
L 418.095011 38.743783 
L 418.651102 43.650858 
L 419.207192 51.708306 
L 419.763282 62.970813 
L 420.597417 85.584069 
L 421.709597 124.541782 
L 425.880273 283.48422 
L 426.436364 299.098664 
L 426.436364 299.098664 
" clip-path="url(#p7a487a7e65)" style="fill: none; stroke-dasharray: 11.1,4.8; stroke-dashoffset: 0; stroke: #000000; stroke-width: 3"/>
   </g>
   <g id="line2d_2">
    <path d="M 27.163636 171.064566 
L 27.441681 172.334098 
L 27.997772 170.139678 
L 28.553862 168.339559 
L 28.831907 166.50709 
L 29.109952 163.806886 
L 29.387997 159.824371 
L 29.944087 149.591873 
L 31.612358 135.68093 
L 32.168448 133.099356 
L 32.446493 132.21874 
L 37.729349 89.365774 
L 38.84153 82.96119 
L 39.675665 81.116697 
L 39.95371 80.076903 
L 40.5098 76.219131 
L 41.06589 72.258375 
L 41.343935 71.075249 
L 41.62198 70.7907 
L 41.900025 70.045115 
L 42.456115 66.603401 
L 43.290251 60.839356 
L 43.568296 59.554102 
L 43.846341 59.52618 
L 44.124386 59.728072 
L 44.680476 60.637062 
L 45.514611 62.687822 
L 46.070701 66.136731 
L 47.738972 78.425649 
L 49.963332 96.490385 
L 51.909648 112.324605 
L 53.299873 122.087842 
L 54.968144 131.410772 
L 56.636414 139.642139 
L 58.860775 149.41237 
L 61.085135 158.538388 
L 63.587541 167.753958 
L 64.143631 169.683926 
L 64.699721 170.563132 
L 66.646037 172.960424 
L 68.314307 174.698386 
L 69.982578 176.135323 
L 72.206938 177.681807 
L 74.431299 178.92626 
L 76.377615 179.774124 
L 78.32393 180.39479 
L 79.158065 180.542851 
L 80.270246 180.400626 
L 81.382426 180.051328 
L 82.494606 179.432926 
L 83.328741 178.746127 
L 84.162877 177.827654 
L 84.997012 176.633058 
L 85.831147 175.111904 
L 86.665282 173.207091 
L 87.499418 170.850399 
L 88.333553 167.86333 
L 90.557913 159.229991 
L 96.118815 140.526326 
L 98.621221 131.486588 
L 99.455356 130.174771 
L 100.289491 128.412686 
L 101.401671 125.409065 
L 102.513852 121.713641 
L 103.904077 116.216236 
L 105.294302 109.836203 
L 106.962573 100.928225 
L 107.240618 99.383124 
L 112.523474 83.841453 
L 113.635655 81.315721 
L 114.747835 79.338362 
L 115.58197 78.296505 
L 115.860015 78.218023 
L 116.69415 78.84201 
L 120.030691 81.794566 
L 120.586781 81.951783 
L 121.142872 81.899109 
L 121.698962 81.585782 
L 122.255052 80.96904 
L 122.811142 79.950728 
L 123.367232 78.440491 
L 123.645277 77.493568 
L 124.479413 72.583575 
L 125.035503 70.356379 
L 125.591593 68.988719 
L 126.147683 68.389685 
L 126.425728 68.342948 
L 126.703773 68.456345 
L 127.259863 69.098796 
L 127.815953 70.229901 
L 128.650089 72.63982 
L 129.762269 76.737267 
L 131.152494 82.345906 
L 131.430539 81.699582 
L 132.54272 77.089131 
L 133.6549 73.311551 
L 134.76708 70.248767 
L 135.879261 67.784866 
L 136.991441 65.80977 
L 138.103621 64.218938 
L 138.937756 63.217882 
L 139.215801 63.363075 
L 141.162117 79.374383 
L 144.498658 107.393482 
L 145.888883 117.254722 
L 147.001064 123.727525 
L 147.835199 127.575991 
L 148.391289 129.224629 
L 149.503469 131.509982 
L 150.337604 132.806454 
L 151.17174 133.762634 
L 152.005875 134.39135 
L 152.84001 134.703973 
L 153.674145 134.712777 
L 154.508281 134.430391 
L 155.342416 133.868083 
L 156.176551 133.036217 
L 157.288731 131.597722 
L 158.678957 129.830856 
L 160.903317 128.088291 
L 164.239858 125.48453 
L 165.908129 124.471299 
L 167.298354 123.875837 
L 168.410534 123.595815 
L 169.522715 123.511698 
L 170.634895 123.639232 
L 171.46903 123.883635 
L 171.747075 124.221161 
L 174.805571 132.99602 
L 176.195796 135.642041 
L 177.586022 137.788893 
L 178.976247 139.514555 
L 180.366473 140.892176 
L 181.756698 141.979563 
L 183.424968 142.979914 
L 185.093239 143.717651 
L 187.039554 144.334494 
L 189.54196 144.862088 
L 192.600456 145.256816 
L 192.878501 145.284687 
L 196.215042 143.741246 
L 199.829628 142.331628 
L 203.444214 141.166865 
L 207.336845 140.159269 
L 210.117296 139.638668 
L 214.566017 139.265473 
L 224.297594 138.561293 
L 227.078045 137.260796 
L 230.970676 135.482007 
L 232.638947 134.98968 
L 234.307217 134.71982 
L 235.975487 134.657688 
L 237.921803 134.82713 
L 239.868119 135.228448 
L 241.536389 135.584186 
L 242.926614 135.576186 
L 244.594885 135.810527 
L 246.263155 136.29385 
L 248.209471 137.113943 
L 250.989921 138.569694 
L 254.326462 140.320863 
L 261.833679 140.849162 
L 263.779995 141.004265 
L 273.233527 142.96789 
L 277.960294 143.681026 
L 281.296835 143.980869 
L 284.077285 144.024538 
L 286.579691 143.853788 
L 288.804052 143.499409 
L 291.028412 142.91748 
L 292.974728 142.344708 
L 295.477133 142.115297 
L 300.75999 143.256616 
L 303.818486 143.608178 
L 306.876982 143.734555 
L 309.935477 143.645457 
L 313.272018 143.31417 
L 316.886604 142.710457 
L 319.110965 142.251938 
L 321.05728 143.458407 
L 325.227956 146.335197 
L 329.398633 149.511932 
L 331.901038 151.631264 
L 334.681489 154.378936 
L 337.46194 157.463378 
L 339.408255 159.896892 
L 342.744796 164.533303 
L 346.081337 169.544393 
L 346.915472 170.7367 
L 347.193517 170.919121 
L 347.749607 170.829923 
L 351.086148 169.812793 
L 355.256825 168.358198 
L 358.037275 165.893543 
L 361.095771 162.852618 
L 366.934718 156.670502 
L 368.881033 153.858359 
L 370.827349 150.607267 
L 372.773664 146.858918 
L 374.441935 143.196245 
L 378.612611 127.456154 
L 386.675918 97.973455 
L 388.622233 90.150147 
L 390.012459 88.706872 
L 391.402684 87.565302 
L 393.349 86.277433 
L 395.57336 84.957113 
L 396.685541 84.847137 
L 397.519676 84.960182 
L 398.075766 85.249562 
L 398.631856 85.819818 
L 399.744036 87.343488 
L 400.856217 89.364868 
L 401.690352 91.312193 
L 402.524487 93.721156 
L 402.802532 94.633416 
L 404.192758 95.816441 
L 406.139073 97.190692 
L 407.807344 98.103756 
L 409.475614 98.753753 
L 410.587794 99.14023 
L 412.256065 100.181684 
L 418.095011 103.502103 
L 418.651102 103.847879 
L 422.265688 105.787154 
L 425.602228 107.482781 
L 426.436364 107.839072 
L 426.436364 107.839072 
" clip-path="url(#p7a487a7e65)" style="fill: none; stroke: #ff00ff; stroke-width: 3; stroke-linecap: square"/>
   </g>
   <g id="patch_3">
    <path d="M 7.2 331.2 
L 7.2 7.2 
" style="fill: none; stroke: #000000; stroke-width: 0.8; stroke-linejoin: miter; stroke-linecap: square"/>
   </g>
   <g id="patch_4">
    <path d="M 446.4 331.2 
L 446.4 7.2 
" style="fill: none; stroke: #000000; stroke-width: 0.8; stroke-linejoin: miter; stroke-linecap: square"/>
   </g>
   <g id="patch_5">
    <path d="M 7.2 331.2 
L 446.4 331.2 
" style="fill: none; stroke: #000000; stroke-width: 0.8; stroke-linejoin: miter; stroke-linecap: square"/>
   </g>
   <g id="patch_6">
    <path d="M 7.2 7.2 
L 446.4 7.2 
" style="fill: none; stroke: #000000; stroke-width: 0.8; stroke-linejoin: miter; stroke-linecap: square"/>
   </g>
  </g>
 </g>
 <defs>
  <clipPath id="p7a487a7e65">
   <rect x="7.2" y="7.2" width="439.2" height="324"/>
  </clipPath>
 </defs>
</svg>
