<?xml version="1.0" encoding="utf-8" standalone="no"?>
<!DOCTYPE svg PUBLIC "-//W3C//DTD SVG 1.1//EN"
  "http://www.w3.org/Graphics/SVG/1.1/DTD/svg11.dtd">
<svg xmlns:xlink="http://www.w3.org/1999/xlink" width="453.6pt" height="338.4pt" viewBox="0 0 453.6 338.4" xmlns="http://www.w3.org/2000/svg" version="1.1">
 <metadata>
  <rdf:RDF xmlns:dc="http://purl.org/dc/elements/1.1/" xmlns:cc="http://creativecommons.org/ns#" xmlns:rdf="http://www.w3.org/1999/02/22-rdf-syntax-ns#">
   <cc:Work>
    <dc:type rdf:resource="http://purl.org/dc/dcmitype/StillImage"/>
    <dc:date>2025-05-15T17:35:38.679672</dc:date>
    <dc:format>image/svg+xml</dc:format>
    <dc:creator>
     <cc:Agent>
      <dc:title>Matplotlib v3.10.1, https://matplotlib.org/</dc:title>
     </cc:Agent>
    </dc:creator>
   </cc:Work>
  </rdf:RDF>
 </metadata>
 <defs>
  <style type="text/css">*{stroke-linejoin: round; stroke-linecap: butt}</style>
 </defs>
 <g id="figure_1">
  <g id="patch_1">
   <path d="M 0 338.4 
L 453.6 338.4 
L 453.6 0 
L 0 0 
z
" style="fill: #ffffff"/>
  </g>
  <g id="axes_1">
   <g id="patch_2">
    <path d="M 7.2 331.2 
L 446.4 331.2 
L 446.4 7.2 
L 7.2 7.2 
z
" style="fill: #ffffff"/>
   </g>
   <g id="matplotlib.axis_1"/>
   <g id="matplotlib.axis_2"/>
   <g id="line2d_1">
    <path d="M 27.163636 228.242053 
L 27.441681 228.457684 
L 27.719727 228.487268 
L 28.275817 228.245713 
L 29.109952 227.809876 
L 29.944087 227.692149 
L 30.778222 227.63298 
L 31.334312 227.261802 
L 31.890403 226.314185 
L 32.446493 224.557724 
L 33.002583 221.847242 
L 33.836718 215.99349 
L 34.948898 205.857621 
L 36.061079 195.764757 
L 36.895214 190.270898 
L 37.451304 188.184434 
L 37.729349 187.657709 
L 38.007394 187.463733 
L 38.285439 187.58024 
L 38.563484 187.966668 
L 39.119575 189.337921 
L 40.231755 192.50925 
L 40.5098 192.945391 
L 40.787845 193.096974 
L 41.06589 192.913062 
L 41.343935 192.351873 
L 41.62198 191.396631 
L 42.17807 188.312531 
L 43.012206 181.353786 
L 44.124386 171.167898 
L 44.680476 167.577203 
L 44.958521 166.499049 
L 45.236566 165.989098 
L 45.514611 166.088831 
L 45.792656 166.814717 
L 46.070701 168.158521 
L 46.626792 172.532137 
L 47.460927 182.103461 
L 48.851152 198.724115 
L 49.407242 203.246872 
L 49.963332 205.931125 
L 50.241378 206.596622 
L 50.519423 206.862882 
L 50.797468 206.786634 
L 51.075513 206.445345 
L 51.909648 204.63917 
L 52.465738 203.581451 
L 52.743783 203.295366 
L 53.021828 203.228572 
L 53.299873 203.407604 
L 53.577918 203.842526 
L 54.134009 205.465704 
L 54.690099 207.966961 
L 55.524234 212.899935 
L 56.914459 222.950711 
L 58.02664 232.466526 
L 59.416865 246.705786 
L 64.977767 308.398771 
L 65.533857 312.662894 
L 66.089947 315.454047 
L 66.367992 316.177493 
L 66.646037 316.404104 
L 66.924082 316.115274 
L 67.202127 315.303837 
L 67.758217 312.148369 
L 68.314307 307.139603 
L 69.148443 296.934958 
L 70.538668 275.940232 
L 72.484984 242.83907 
L 74.987389 198.916261 
L 75.821524 188.504982 
L 76.377615 183.822713 
L 76.933705 181.015547 
L 77.21175 180.263737 
L 77.489795 179.894389 
L 77.76784 179.86084 
L 78.045885 180.10819 
L 78.601975 181.239413 
L 79.43611 183.851993 
L 80.548291 188.13411 
L 81.382426 192.140512 
L 82.216561 197.312297 
L 83.606787 208.036804 
L 84.440922 213.936 
L 84.997012 216.685827 
L 85.275057 217.55933 
L 85.553102 218.05891 
L 85.831147 218.170538 
L 86.109192 217.895738 
L 86.387237 217.252201 
L 86.943327 214.997075 
L 87.777463 210.008896 
L 88.889643 203.300246 
L 89.445733 201.205852 
L 89.723778 200.689192 
L 90.001823 200.593423 
L 90.279868 200.957891 
L 90.557913 201.81767 
L 91.114004 205.120756 
L 91.670094 210.625594 
L 92.226184 218.328525 
L 93.060319 233.609034 
L 94.450544 265.34306 
L 95.562725 290.071828 
L 96.39686 304.164538 
L 96.95295 310.389925 
L 97.50904 313.840781 
L 97.787085 314.556907 
L 98.06513 314.65237 
L 98.343175 314.184814 
L 98.621221 313.223015 
L 99.177311 310.127478 
L 100.011446 303.733581 
L 103.626032 273.392311 
L 104.460167 263.161742 
L 105.572347 245.803918 
L 107.518663 213.363221 
L 108.352798 203.543326 
L 108.908888 199.445426 
L 109.464978 197.4163 
L 109.743024 197.127776 
L 110.021069 197.268073 
L 110.299114 197.775278 
L 110.855204 199.589993 
L 111.967384 203.927314 
L 112.245429 204.612636 
L 112.523474 204.961854 
L 112.801519 204.90116 
L 113.079564 204.37169 
L 113.35761 203.326475 
L 113.9137 199.580538 
L 114.46979 193.636813 
L 115.303925 181.227213 
L 117.528286 143.505239 
L 118.084376 137.097313 
L 118.640466 132.952443 
L 118.918511 131.779741 
L 119.196556 131.199947 
L 119.474601 131.196287 
L 119.752646 131.737957 
L 120.030691 132.789881 
L 120.586781 136.259189 
L 121.142872 141.277257 
L 121.977007 151.166385 
L 122.811142 163.57629 
L 123.923322 184.227745 
L 125.035503 209.672183 
L 128.093998 284.439198 
L 128.928134 298.771632 
L 129.762269 308.780929 
L 130.318359 313.055116 
L 130.874449 315.499034 
L 131.152494 316.063425 
L 131.430539 316.2054 
L 131.708584 315.93609 
L 131.98663 315.267543 
L 132.54272 312.787026 
L 133.09881 308.892862 
L 133.932945 300.824548 
L 135.32317 283.971642 
L 136.435351 270.930399 
L 137.269486 263.27581 
L 137.825576 259.538107 
L 138.381666 256.868799 
L 138.937756 255.073604 
L 140.884072 250.195528 
L 141.440162 247.448446 
L 141.996252 243.521647 
L 142.830387 235.315476 
L 143.942568 221.091467 
L 145.888883 195.60067 
L 148.669334 163.481742 
L 149.503469 148.000852 
L 150.337604 127.202084 
L 151.449785 92.506566 
L 152.84001 48.242163 
L 153.3961 34.629362 
L 153.95219 25.485334 
L 154.230236 22.954188 
L 154.508281 21.927273 
L 154.786326 22.475042 
L 155.064371 24.63379 
L 155.342416 28.401687 
L 155.898506 40.585591 
L 156.454596 58.292634 
L 157.288731 92.410493 
L 159.513092 188.164609 
L 160.347227 212.649535 
L 160.903317 223.951701 
L 161.459407 231.597598 
L 162.015498 236.302742 
L 162.571588 238.994315 
L 164.239858 244.417415 
L 164.795948 247.705556 
L 165.352038 252.269183 
L 166.186174 261.20246 
L 168.132489 283.558985 
L 168.688579 287.827224 
L 169.24467 290.429739 
L 169.522715 291.074497 
L 169.80076 291.29272 
L 170.078805 291.108656 
L 170.35685 290.561344 
L 170.91294 288.567598 
L 171.747075 284.200235 
L 173.137301 276.834322 
L 173.971436 273.597725 
L 175.361661 268.905391 
L 175.917751 266.321176 
L 176.473841 262.870168 
L 177.307977 255.78607 
L 178.420157 243.366405 
L 180.088427 224.171907 
L 180.922563 217.164058 
L 181.478653 213.869511 
L 182.034743 211.538746 
L 182.868878 209.100929 
L 183.703013 206.493839 
L 184.259104 203.822701 
L 184.815194 199.944701 
L 185.371284 194.664338 
L 186.205419 184.278374 
L 188.42978 153.862533 
L 188.98587 149.485563 
L 189.263915 148.218617 
L 189.54196 147.623879 
L 189.820005 147.721782 
L 190.09805 148.513242 
L 190.376095 149.978128 
L 190.932185 154.758301 
L 191.766321 165.514833 
L 193.990681 197.901851 
L 194.824816 205.970469 
L 195.380907 209.657848 
L 195.936997 212.245418 
L 196.771132 214.846102 
L 197.883312 217.903363 
L 198.439402 219.966648 
L 198.995493 222.686891 
L 199.829628 228.314032 
L 200.663763 236.065762 
L 201.497898 246.020159 
L 202.610079 262.100668 
L 204.278349 286.819066 
L 205.112484 295.749751 
L 205.668574 299.324434 
L 205.946619 300.288216 
L 206.224664 300.685318 
L 206.50271 300.517724 
L 206.780755 299.804952 
L 207.336845 296.884787 
L 207.892935 292.322075 
L 209.005115 280.485254 
L 210.117296 268.875196 
L 210.951431 262.356253 
L 211.507521 259.345961 
L 212.063611 257.286946 
L 212.897746 255.342913 
L 213.731881 253.551988 
L 214.287972 251.730258 
L 214.844062 249.000561 
L 215.400152 245.160991 
L 216.234287 237.325692 
L 217.624513 220.891085 
L 218.736693 208.549499 
L 219.570828 201.659988 
L 220.404963 197.044817 
L 221.239099 193.906428 
L 222.351279 189.797852 
L 223.185414 185.51177 
L 225.409775 172.083795 
L 225.965865 170.448112 
L 226.24391 170.158063 
L 226.521955 170.247426 
L 226.8 170.723827 
L 227.35609 172.786807 
L 227.91218 176.129237 
L 228.746316 182.719244 
L 230.692631 198.674706 
L 233.751127 220.525702 
L 234.585262 229.214069 
L 235.697442 243.486573 
L 238.199848 278.053536 
L 239.033983 285.978045 
L 239.590073 289.292111 
L 240.146164 290.918645 
L 240.424209 291.131683 
L 240.702254 290.989251 
L 240.980299 290.541062 
L 241.536389 288.974155 
L 242.648569 285.199243 
L 243.204659 284.085709 
L 243.482704 283.891581 
L 243.76075 283.963254 
L 244.038795 284.296155 
L 244.594885 285.641789 
L 246.263155 290.864813 
L 246.5412 291.147238 
L 246.819245 291.090204 
L 247.09729 290.6533 
L 247.375336 289.815481 
L 247.931426 286.920934 
L 248.487516 282.532222 
L 249.321651 273.884877 
L 252.658192 236.362826 
L 254.604507 217.886284 
L 255.716688 209.117398 
L 256.550823 204.063646 
L 257.384958 200.411952 
L 258.219093 197.9476 
L 258.775184 196.826136 
L 259.331274 196.069446 
L 259.887364 195.703453 
L 260.165409 195.685763 
L 260.443454 195.791596 
L 260.999544 196.420189 
L 261.555634 197.641386 
L 262.111724 199.440241 
L 262.94586 202.969327 
L 264.61413 210.395019 
L 265.448265 213.006683 
L 266.282401 214.707025 
L 269.618942 220.041982 
L 270.453077 221.317162 
L 271.287212 222.21598 
L 272.121347 223.067828 
L 272.677437 223.975186 
L 273.233527 225.456542 
L 273.789618 227.715938 
L 274.345708 230.846703 
L 275.179843 237.001178 
L 277.126159 252.851417 
L 277.682249 256.056295 
L 278.238339 258.147639 
L 278.516384 258.740243 
L 278.794429 259.026632 
L 279.072474 259.011382 
L 279.350519 258.708218 
L 279.906609 257.296706 
L 280.462699 254.941236 
L 281.296835 249.961903 
L 282.13097 243.566786 
L 283.24315 233.054555 
L 284.35533 220.248463 
L 286.301646 194.121144 
L 287.413826 180.660534 
L 287.969916 175.599157 
L 288.526007 172.12131 
L 288.804052 171.045901 
L 289.082097 170.428897 
L 289.360142 170.267251 
L 289.638187 170.542965 
L 289.916232 171.225542 
L 290.472322 173.6292 
L 291.306457 178.878759 
L 292.418638 185.736246 
L 292.974728 187.794956 
L 293.252773 188.293622 
L 293.530818 188.400369 
L 293.808863 188.103 
L 294.086908 187.407309 
L 294.642998 184.901172 
L 295.477133 179.007161 
L 297.145404 165.833856 
L 297.701494 162.891883 
L 298.257584 161.216856 
L 298.535629 160.877702 
L 298.813674 160.855743 
L 299.091719 161.129323 
L 299.64781 162.409383 
L 300.481945 165.431874 
L 301.594125 169.346168 
L 302.150215 170.561875 
L 302.706305 171.164238 
L 303.262396 171.302401 
L 304.096531 171.364619 
L 304.374576 171.561341 
L 304.652621 171.942278 
L 304.930666 172.559891 
L 305.486756 174.687835 
L 306.042846 178.223632 
L 306.598936 183.274639 
L 307.433072 193.487976 
L 308.823297 214.965355 
L 310.213522 236.267058 
L 311.047658 246.522179 
L 311.881793 253.996059 
L 312.437883 257.330865 
L 312.993973 259.388965 
L 313.272018 259.970284 
L 313.550063 260.273143 
L 313.828108 260.315232 
L 314.106153 260.115766 
L 314.384199 259.691519 
L 314.940289 258.243102 
L 315.496379 256.104179 
L 316.330514 251.871471 
L 317.720739 243.209638 
L 318.83292 236.480249 
L 319.667055 232.765725 
L 320.223145 231.295044 
L 320.50119 230.896722 
L 320.779235 230.72135 
L 321.05728 230.753069 
L 321.335325 230.968395 
L 321.891416 231.816584 
L 323.003596 233.860654 
L 323.281641 234.139114 
L 323.559686 234.224817 
L 323.837731 234.076285 
L 324.115776 233.662103 
L 324.671866 231.957186 
L 325.227956 229.049982 
L 326.062092 222.674691 
L 327.174272 211.686974 
L 330.510813 177.150662 
L 331.901038 164.774612 
L 332.735173 158.967524 
L 333.291264 156.259177 
L 333.847354 154.770806 
L 334.125399 154.550295 
L 334.403444 154.705537 
L 334.681489 155.252696 
L 334.959534 156.200008 
L 335.515624 159.303323 
L 336.071714 163.977357 
L 336.90585 173.644755 
L 338.01803 190.369716 
L 342.466751 263.476801 
L 343.856976 280.378049 
L 344.969157 291.323677 
L 345.803292 297.577581 
L 346.359382 300.427293 
L 346.915472 301.918714 
L 347.193517 302.079598 
L 347.471562 301.822336 
L 347.749607 301.134727 
L 348.305698 298.479143 
L 348.861788 294.259702 
L 349.695923 285.841103 
L 351.086148 271.382553 
L 351.642239 267.381335 
L 352.198329 265.116754 
L 352.476374 264.688847 
L 352.754419 264.722397 
L 353.032464 265.187513 
L 353.588554 267.211149 
L 354.422689 271.89113 
L 355.256825 276.464364 
L 355.812915 278.346178 
L 356.09096 278.741603 
L 356.369005 278.714153 
L 356.64705 278.237143 
L 356.925095 277.297456 
L 357.481185 274.044541 
L 358.037275 269.099672 
L 358.87141 259.194379 
L 361.929906 218.676523 
L 362.764042 211.122125 
L 363.598177 205.403485 
L 366.934718 185.405327 
L 368.324943 176.092943 
L 368.881033 173.475483 
L 369.437123 171.996567 
L 369.715168 171.758672 
L 369.993213 171.878534 
L 370.271259 172.364695 
L 370.827349 174.421575 
L 371.383439 177.830494 
L 372.217574 185.04269 
L 373.329754 197.269903 
L 377.50043 245.900296 
L 378.334566 252.962129 
L 379.168701 258.401699 
L 380.002836 262.401697 
L 381.393062 267.453924 
L 382.505242 271.773098 
L 384.451557 280.079459 
L 385.007648 281.581098 
L 385.285693 282.017239 
L 385.563738 282.211368 
L 385.841783 282.150064 
L 386.119828 281.827686 
L 386.675918 280.42822 
L 387.232008 278.151134 
L 388.066143 273.639814 
L 390.568549 259.371885 
L 391.680729 252.719049 
L 392.514865 246.1998 
L 393.349 237.833202 
L 394.739225 220.824597 
L 395.851405 207.614997 
L 396.685541 200.206691 
L 397.241631 197.054272 
L 397.797721 195.451528 
L 398.075766 195.198993 
L 398.353811 195.270056 
L 398.631856 195.61531 
L 399.187946 196.877375 
L 400.022082 199.034294 
L 400.300127 199.48355 
L 400.578172 199.656177 
L 400.856217 199.477755 
L 401.134262 198.880272 
L 401.412307 197.811877 
L 401.968397 194.138223 
L 402.524487 188.39427 
L 403.358622 176.576358 
L 405.026893 150.844617 
L 405.582983 145.203141 
L 405.861028 143.426245 
L 406.139073 142.438064 
L 406.417118 142.283127 
L 406.695163 142.977294 
L 406.973208 144.512634 
L 407.529299 149.945799 
L 408.085389 158.021433 
L 409.475614 183.70163 
L 410.309749 197.700859 
L 410.865839 204.711149 
L 411.42193 209.421782 
L 411.97802 211.88034 
L 412.256065 212.38114 
L 412.53411 212.497038 
L 412.812155 212.325021 
L 413.924335 210.956818 
L 414.20238 211.013242 
L 414.480425 211.437183 
L 414.75847 212.317091 
L 415.036516 213.721284 
L 415.592606 218.287046 
L 416.148696 225.30923 
L 416.982831 240.035565 
L 418.373056 270.942446 
L 419.485237 294.214106 
L 420.319372 307.03133 
L 420.875462 312.597472 
L 421.431552 315.685995 
L 421.709597 316.348595 
L 421.987642 316.472727 
L 422.265688 316.108869 
L 422.543733 315.312072 
L 423.099823 312.660911 
L 423.933958 306.937087 
L 426.436364 286.86695 
L 426.436364 286.86695 
" clip-path="url(#p82cb064cc7)" style="fill: none; stroke-dasharray: 11.1,4.8; stroke-dashoffset: 0; stroke: #000000; stroke-width: 3"/>
   </g>
   <g id="line2d_2">
    <path d="M 27.163636 241.806665 
L 27.997772 248.959387 
L 28.831907 254.048518 
L 29.387997 256.323774 
L 29.944087 257.803301 
L 30.500177 258.617025 
L 31.056267 258.916224 
L 31.612358 258.852785 
L 32.446493 258.355035 
L 33.280628 257.593465 
L 34.114763 256.561365 
L 34.670853 255.600633 
L 35.226944 254.280619 
L 35.783034 252.465294 
L 36.339124 250.031746 
L 37.173259 245.050888 
L 38.007394 238.475215 
L 39.39762 225.063405 
L 41.06589 209.291855 
L 41.900025 203.319156 
L 42.734161 199.134942 
L 43.290251 197.305892 
L 43.846341 196.12831 
L 44.402431 195.457018 
L 44.958521 195.135249 
L 45.792656 195.003797 
L 48.573107 195.058391 
L 49.407242 195.368875 
L 49.963332 195.799221 
L 50.519423 196.463498 
L 51.075513 197.401355 
L 51.909648 199.395712 
L 52.743783 202.185188 
L 53.577918 205.841457 
L 54.690099 212.070656 
L 56.080324 221.571832 
L 58.304685 237.258899 
L 59.416865 243.65981 
L 60.529045 248.729421 
L 61.641226 252.790418 
L 63.865586 259.766548 
L 66.089947 266.302266 
L 67.202127 268.953885 
L 68.036262 270.389797 
L 68.592352 270.995668 
L 69.148443 271.26574 
L 69.704533 271.156705 
L 70.260623 270.632725 
L 70.816713 269.668486 
L 71.372803 268.253618 
L 72.206938 265.312255 
L 73.041074 261.506539 
L 74.431299 253.942685 
L 76.09957 244.997819 
L 76.933705 241.497706 
L 77.76784 239.016884 
L 78.32393 237.974415 
L 78.88002 237.398891 
L 79.43611 237.232364 
L 79.992201 237.391571 
L 80.826336 238.020164 
L 82.494606 239.477426 
L 83.328741 239.833659 
L 83.884832 239.861718 
L 84.718967 239.605523 
L 85.553102 239.072393 
L 88.333553 237.018563 
L 89.167688 236.775788 
L 90.001823 236.802627 
L 90.835958 237.063702 
L 92.504229 237.943305 
L 93.894454 238.579523 
L 95.006635 238.830838 
L 96.118815 238.858288 
L 98.06513 238.631677 
L 100.567536 238.377922 
L 105.572347 238.070183 
L 106.406483 237.597442 
L 106.962573 237.021003 
L 107.518663 236.14506 
L 108.074753 234.893974 
L 108.630843 233.209187 
L 109.464978 229.838087 
L 110.577159 224.103893 
L 111.967384 216.849609 
L 112.523474 214.649991 
L 113.079564 213.14393 
L 113.635655 212.420179 
L 113.9137 212.348811 
L 114.191745 212.454949 
L 114.747835 213.107941 
L 116.416105 216.054489 
L 116.69415 216.275305 
L 116.972195 216.325934 
L 117.250241 216.183197 
L 117.528286 215.831538 
L 118.084376 214.48011 
L 118.640466 212.307332 
L 119.474601 207.872412 
L 121.420917 196.834981 
L 121.977007 194.700023 
L 122.533097 193.319009 
L 122.811142 192.924347 
L 123.089187 192.723051 
L 123.367232 192.707801 
L 123.645277 192.866398 
L 124.201367 193.644133 
L 124.757458 194.912298 
L 125.869638 198.277298 
L 127.259863 202.56826 
L 128.093998 204.609281 
L 128.928134 206.103447 
L 129.762269 207.101692 
L 130.596404 207.749195 
L 133.6549 209.729522 
L 135.879261 211.547896 
L 136.713396 211.913889 
L 137.269486 211.979768 
L 137.825576 211.89254 
L 138.659711 211.492082 
L 139.771892 210.582285 
L 142.830387 207.75194 
L 147.835199 203.84832 
L 150.337604 201.675237 
L 150.893695 200.862428 
L 151.449785 199.629642 
L 152.005875 197.764298 
L 152.561965 195.045276 
L 153.118055 191.275244 
L 153.95219 183.376812 
L 154.786326 172.809986 
L 156.176551 151.346942 
L 157.288731 134.790032 
L 158.122867 125.665829 
L 158.678957 122.081539 
L 158.957002 121.168691 
L 159.235047 120.874067 
L 159.513092 121.206206 
L 159.791137 122.161142 
L 160.347227 125.8595 
L 160.903317 131.688548 
L 161.737453 143.413741 
L 164.239858 181.614861 
L 165.073993 190.047033 
L 165.630084 193.910088 
L 166.186174 196.477833 
L 166.742264 197.957359 
L 167.298354 198.605472 
L 167.854444 198.689345 
L 168.410534 198.45206 
L 170.078805 197.527318 
L 170.634895 197.460219 
L 171.190985 197.564222 
L 172.02512 198.020188 
L 172.859256 198.782063 
L 173.971436 200.175277 
L 175.361661 202.352324 
L 177.029932 205.014923 
L 177.864067 205.920755 
L 178.420157 206.19342 
L 178.976247 206.120526 
L 179.532337 205.655715 
L 180.088427 204.782212 
L 180.644518 203.517707 
L 181.478653 201.00852 
L 184.815194 189.751798 
L 185.649329 188.10056 
L 186.205419 187.417984 
L 186.761509 187.06968 
L 187.317599 187.035521 
L 187.87369 187.280431 
L 188.42978 187.756222 
L 189.263915 188.767277 
L 190.932185 190.943105 
L 191.766321 191.610432 
L 192.322411 191.771774 
L 192.878501 191.680581 
L 193.434591 191.346307 
L 194.268726 190.481954 
L 196.215042 188.197548 
L 196.771132 187.906584 
L 197.327222 187.919394 
L 197.883312 188.269527 
L 198.439402 188.953934 
L 199.273538 190.523128 
L 200.385718 193.2879 
L 202.332033 198.806463 
L 203.444214 202.447483 
L 204.278349 205.782288 
L 205.112484 209.849079 
L 206.224664 216.450676 
L 208.17098 229.938125 
L 209.83925 241.07712 
L 210.951431 247.310894 
L 211.785566 251.095566 
L 212.619701 253.95275 
L 213.175791 255.261785 
L 213.731881 256.0322 
L 214.009927 256.198117 
L 214.287972 256.207572 
L 214.566017 256.054465 
L 214.844062 255.731781 
L 215.400152 254.551149 
L 215.956242 252.627246 
L 216.512332 249.946348 
L 217.346467 244.575097 
L 218.458648 235.466753 
L 220.404963 219.102905 
L 221.239099 214.216595 
L 221.795189 212.11671 
L 222.351279 210.953158 
L 222.629324 210.687813 
L 222.907369 210.600585 
L 223.463459 210.83055 
L 224.853684 211.930969 
L 225.13173 211.930054 
L 225.409775 211.781522 
L 225.68782 211.465243 
L 226.24391 210.283696 
L 226.8 208.375653 
L 227.634135 204.423234 
L 229.302406 195.88096 
L 229.858496 194.008296 
L 230.414586 193.081724 
L 230.692631 193.028045 
L 230.970676 193.26533 
L 231.248721 193.79785 
L 231.804811 195.736392 
L 232.360901 198.757054 
L 233.195037 204.922205 
L 236.531578 232.911208 
L 237.365713 237.323862 
L 237.921803 239.426797 
L 238.477893 240.913338 
L 239.033983 241.864004 
L 239.590073 242.375174 
L 240.146164 242.549936 
L 240.702254 242.489547 
L 241.814434 242.031446 
L 242.926614 241.623059 
L 243.76075 241.602929 
L 244.31684 241.778606 
L 245.150975 242.334915 
L 245.98511 243.188289 
L 248.487516 246.062858 
L 249.043606 246.374867 
L 249.599696 246.412076 
L 250.155786 246.097322 
L 250.711876 245.354662 
L 251.267967 244.121571 
L 251.824057 242.355045 
L 252.658192 238.704876 
L 253.770372 232.346664 
L 255.438643 222.506944 
L 255.994733 220.12311 
L 256.550823 218.561846 
L 256.828868 218.133024 
L 257.106913 217.949112 
L 257.384958 218.009501 
L 257.663003 218.305345 
L 258.219093 219.532032 
L 259.053229 222.518839 
L 260.443454 227.785477 
L 260.999544 228.954519 
L 261.277589 229.18906 
L 261.555634 229.157035 
L 261.833679 228.843501 
L 262.111724 228.240223 
L 262.667815 226.173888 
L 263.223905 223.051054 
L 264.05804 216.849914 
L 266.282401 198.935781 
L 266.838491 195.820266 
L 267.394581 193.675547 
L 267.950671 192.574824 
L 268.228716 192.415617 
L 268.506761 192.507115 
L 268.784806 192.835899 
L 269.340896 194.134563 
L 269.896987 196.138375 
L 271.009167 201.419347 
L 272.677437 209.405008 
L 273.511573 212.323191 
L 274.345708 214.283083 
L 274.901798 215.113277 
L 275.457888 215.653422 
L 276.292023 216.137447 
L 277.682249 216.853574 
L 278.516384 217.580375 
L 279.350519 218.630469 
L 280.462699 220.492458 
L 281.852925 223.349948 
L 285.189466 230.548113 
L 286.301646 232.264315 
L 287.135781 233.135378 
L 287.969916 233.641669 
L 288.804052 233.817345 
L 289.638187 233.709987 
L 290.472322 233.361379 
L 291.306457 232.799885 
L 292.418638 231.77846 
L 294.642998 229.545598 
L 295.477133 229.048457 
L 296.033224 228.92158 
L 296.589314 228.979529 
L 297.145404 229.219559 
L 297.979539 229.874381 
L 299.369764 231.402707 
L 300.481945 232.558635 
L 301.31608 233.164048 
L 302.150215 233.479107 
L 302.98435 233.537361 
L 305.764801 233.387303 
L 308.267207 233.816735 
L 308.823297 233.631604 
L 309.379387 233.219252 
L 309.935477 232.55223 
L 310.769613 231.090088 
L 311.881793 228.543387 
L 313.272018 225.366264 
L 314.106153 223.98586 
L 314.662244 223.398137 
L 315.218334 223.087043 
L 315.774424 223.027264 
L 316.330514 223.167561 
L 317.442694 223.7684 
L 318.554875 224.310374 
L 319.38901 224.412242 
L 319.9451 224.290245 
L 320.779235 223.844648 
L 321.891416 222.931801 
L 323.837731 221.333327 
L 325.784047 219.897415 
L 326.618182 218.86928 
L 327.452317 217.320215 
L 328.286452 215.184036 
L 329.398633 211.613165 
L 331.066903 206.088197 
L 331.901038 203.970013 
L 332.457128 202.957433 
L 333.013219 202.288886 
L 333.569309 201.944242 
L 334.125399 201.872569 
L 334.959534 202.103449 
L 336.349759 202.612484 
L 336.90585 202.619194 
L 337.46194 202.441078 
L 338.296075 201.836884 
L 340.520436 199.794034 
L 341.076526 199.706806 
L 341.632616 199.956901 
L 342.188706 200.579394 
L 342.744796 201.56727 
L 343.578931 203.62903 
L 346.915472 213.029558 
L 347.749607 214.531349 
L 349.695923 217.57641 
L 350.252013 218.879649 
L 350.808103 220.65136 
L 351.364193 223.034279 
L 352.198329 227.991958 
L 353.032464 234.739037 
L 354.144644 246.170826 
L 356.64705 273.889909 
L 357.481185 280.513314 
L 358.037275 283.574082 
L 358.593365 285.437596 
L 358.87141 285.911556 
L 359.149456 286.083726 
L 359.427501 285.960966 
L 359.705546 285.553341 
L 360.261636 283.93672 
L 360.817726 281.361807 
L 361.651861 276.03356 
L 362.764042 267.029982 
L 366.934718 230.694816 
L 367.768853 225.505646 
L 368.602988 221.831077 
L 369.159078 220.349111 
L 369.715168 219.665924 
L 369.993213 219.61194 
L 370.271259 219.735768 
L 370.827349 220.449454 
L 371.383439 221.639541 
L 373.329754 226.479187 
L 373.885845 227.256922 
L 374.441935 227.557646 
L 374.998025 227.38685 
L 375.554115 226.820476 
L 376.666295 225.062185 
L 377.50043 223.856848 
L 378.056521 223.385632 
L 378.612611 223.287119 
L 379.168701 223.586318 
L 379.724791 224.25029 
L 380.558926 225.733172 
L 381.949152 228.40858 
L 382.505242 229.166185 
L 383.061332 229.602937 
L 383.617422 229.684675 
L 384.173512 229.42604 
L 384.729602 228.889556 
L 386.953963 226.318455 
L 387.510053 226.207742 
L 388.066143 226.490167 
L 388.622233 227.176404 
L 389.178324 228.222533 
L 390.290504 230.96443 
L 391.402684 233.5459 
L 391.958774 234.384024 
L 392.514865 234.770757 
L 392.79291 234.778382 
L 393.349 234.428553 
L 393.90509 233.645938 
L 394.739225 231.934007 
L 395.851405 229.567557 
L 396.407496 228.758408 
L 396.963586 228.3915 
L 397.241631 228.40004 
L 397.519676 228.542472 
L 398.075766 229.221084 
L 398.631856 230.369997 
L 399.465991 232.718146 
L 401.134262 237.767324 
L 401.968397 239.616503 
L 402.802532 240.823669 
L 403.636668 241.566635 
L 405.026893 242.694503 
L 405.861028 243.801632 
L 406.695163 245.375401 
L 409.753659 251.88489 
L 410.309749 252.470479 
L 410.865839 252.760223 
L 411.42193 252.781878 
L 412.256065 252.455839 
L 413.64629 251.784547 
L 414.20238 251.776312 
L 414.75847 252.038607 
L 415.314561 252.608641 
L 415.870651 253.484584 
L 416.704786 255.280085 
L 420.597417 264.672683 
L 423.099823 269.170431 
L 424.212003 270.929332 
L 425.046138 271.911718 
L 425.602228 272.335964 
L 426.158319 272.560592 
L 426.436364 272.602224 
L 426.436364 272.602224 
" clip-path="url(#p82cb064cc7)" style="fill: none; stroke: #ff00ff; stroke-width: 3; stroke-linecap: square"/>
   </g>
   <g id="patch_3">
    <path d="M 7.2 331.2 
L 7.2 7.2 
" style="fill: none; stroke: #000000; stroke-width: 0.8; stroke-linejoin: miter; stroke-linecap: square"/>
   </g>
   <g id="patch_4">
    <path d="M 446.4 331.2 
L 446.4 7.2 
" style="fill: none; stroke: #000000; stroke-width: 0.8; stroke-linejoin: miter; stroke-linecap: square"/>
   </g>
   <g id="patch_5">
    <path d="M 7.2 331.2 
L 446.4 331.2 
" style="fill: none; stroke: #000000; stroke-width: 0.8; stroke-linejoin: miter; stroke-linecap: square"/>
   </g>
   <g id="patch_6">
    <path d="M 7.2 7.2 
L 446.4 7.2 
" style="fill: none; stroke: #000000; stroke-width: 0.8; stroke-linejoin: miter; stroke-linecap: square"/>
   </g>
  </g>
 </g>
 <defs>
  <clipPath id="p82cb064cc7">
   <rect x="7.2" y="7.2" width="439.2" height="324"/>
  </clipPath>
 </defs>
</svg>
