<?xml version="1.0" encoding="utf-8" standalone="no"?>
<!DOCTYPE svg PUBLIC "-//W3C//DTD SVG 1.1//EN"
  "http://www.w3.org/Graphics/SVG/1.1/DTD/svg11.dtd">
<svg xmlns:xlink="http://www.w3.org/1999/xlink" width="453.6pt" height="338.4pt" viewBox="0 0 453.6 338.4" xmlns="http://www.w3.org/2000/svg" version="1.1">
 <metadata>
  <rdf:RDF xmlns:dc="http://purl.org/dc/elements/1.1/" xmlns:cc="http://creativecommons.org/ns#" xmlns:rdf="http://www.w3.org/1999/02/22-rdf-syntax-ns#">
   <cc:Work>
    <dc:type rdf:resource="http://purl.org/dc/dcmitype/StillImage"/>
    <dc:date>2025-05-15T18:22:23.380511</dc:date>
    <dc:format>image/svg+xml</dc:format>
    <dc:creator>
     <cc:Agent>
      <dc:title>Matplotlib v3.10.1, https://matplotlib.org/</dc:title>
     </cc:Agent>
    </dc:creator>
   </cc:Work>
  </rdf:RDF>
 </metadata>
 <defs>
  <style type="text/css">*{stroke-linejoin: round; stroke-linecap: butt}</style>
 </defs>
 <g id="figure_1">
  <g id="patch_1">
   <path d="M 0 338.4 
L 453.6 338.4 
L 453.6 0 
L 0 0 
z
" style="fill: #ffffff"/>
  </g>
  <g id="axes_1">
   <g id="patch_2">
    <path d="M 7.2 331.2 
L 446.4 331.2 
L 446.4 7.2 
L 7.2 7.2 
z
" style="fill: #ffffff"/>
   </g>
   <g id="matplotlib.axis_1"/>
   <g id="matplotlib.axis_2"/>
   <g id="line2d_1">
    <path d="M 27.163636 63.485981 
L 28.275817 44.070708 
L 29.109952 33.208635 
L 29.666042 27.934815 
L 30.222132 24.298481 
L 30.778222 22.310185 
L 31.056267 21.927273 
L 31.334312 21.94348 
L 31.612358 22.350925 
L 31.890403 23.138746 
L 32.446493 25.806801 
L 33.002583 29.835487 
L 33.836718 38.141084 
L 34.670853 48.724922 
L 35.783034 65.501838 
L 37.729349 98.986744 
L 40.5098 147.011689 
L 41.900025 167.65758 
L 43.012206 181.441677 
L 44.124386 192.529535 
L 45.236566 201.068375 
L 46.070701 206.00797 
L 46.904837 209.814411 
L 47.738972 212.463298 
L 48.295062 213.50324 
L 48.573107 213.775887 
L 48.851152 213.868788 
L 49.129197 213.770433 
L 49.407242 213.470381 
L 49.963332 212.232193 
L 50.519423 210.113573 
L 51.075513 207.129058 
L 51.909648 201.23492 
L 54.690099 178.994576 
L 55.246189 176.381799 
L 55.802279 174.984747 
L 56.080324 174.776816 
L 56.358369 174.900194 
L 56.636414 175.348736 
L 57.192504 177.161338 
L 57.748595 180.028307 
L 58.58273 185.686598 
L 60.251 197.61083 
L 61.085135 201.716566 
L 61.641226 203.258368 
L 61.919271 203.63104 
L 62.197316 203.732423 
L 62.475361 203.563897 
L 62.753406 203.131473 
L 63.309496 201.517897 
L 63.865586 199.012669 
L 64.699721 193.963499 
L 67.202127 176.903673 
L 67.758217 174.388917 
L 68.314307 172.854038 
L 68.592352 172.506411 
L 68.870398 172.458013 
L 69.148443 172.717102 
L 69.426488 173.286151 
L 69.982578 175.332997 
L 70.538668 178.494452 
L 71.372803 184.856568 
L 73.319119 201.218958 
L 73.875209 204.489633 
L 74.431299 206.483071 
L 74.709344 206.924779 
L 74.987389 206.970127 
L 75.265434 206.608653 
L 75.543479 205.838353 
L 76.09957 203.102398 
L 76.65566 198.904741 
L 77.489795 190.456598 
L 79.992201 162.172802 
L 80.548291 157.894377 
L 81.104381 154.988939 
L 81.382426 154.091142 
L 81.660471 153.57047 
L 81.938516 153.423138 
L 82.216561 153.638749 
L 82.494606 154.20025 
L 83.050696 156.265351 
L 83.606787 159.379722 
L 84.718967 167.570846 
L 86.665282 182.379012 
L 87.777463 188.920339 
L 88.889643 194.039859 
L 90.001823 198.154255 
L 90.835958 200.488263 
L 91.392049 201.466048 
L 91.670094 201.715208 
L 91.948139 201.772779 
L 92.226184 201.616029 
L 92.504229 201.224323 
L 93.060319 199.673861 
L 93.616409 197.045945 
L 94.172499 193.35892 
L 95.006635 186.126635 
L 96.674905 168.52864 
L 98.06513 154.755874 
L 99.177311 145.794539 
L 100.845581 134.707994 
L 102.513852 123.469732 
L 106.128438 97.47306 
L 106.962573 93.717622 
L 107.518663 92.191225 
L 107.796708 91.75072 
L 108.074753 91.532682 
L 108.352798 91.539628 
L 108.630843 91.771246 
L 108.908888 92.225376 
L 109.464978 93.781493 
L 110.021069 96.153146 
L 110.855204 101.076913 
L 111.689339 107.397754 
L 112.801519 117.583096 
L 114.191745 132.603132 
L 115.860015 153.421112 
L 118.084376 184.416196 
L 121.698962 234.856206 
L 124.201367 266.995954 
L 125.591593 282.184628 
L 126.425728 289.250657 
L 126.981818 292.796216 
L 127.537908 295.29077 
L 128.093998 296.698619 
L 128.372044 297.003491 
L 128.650089 297.056475 
L 128.928134 296.87408 
L 129.484224 295.890362 
L 130.040314 294.262727 
L 132.54272 285.605084 
L 133.09881 284.536969 
L 133.6549 283.925834 
L 134.21099 283.687048 
L 135.879261 283.551693 
L 136.435351 283.067153 
L 136.991441 282.096948 
L 137.547531 280.551027 
L 138.103621 278.395084 
L 138.937756 274.06225 
L 140.049937 266.57012 
L 141.440162 255.320548 
L 143.386478 237.429201 
L 145.610838 214.729161 
L 148.669334 183.502393 
L 150.059559 171.681658 
L 151.17174 163.80185 
L 152.561965 155.622859 
L 154.508281 145.84218 
L 156.454596 137.006116 
L 157.566776 132.96641 
L 158.400912 130.851975 
L 158.957002 129.989019 
L 159.513092 129.603613 
L 159.791137 129.594575 
L 160.069182 129.708202 
L 160.625272 130.299067 
L 161.181362 131.361316 
L 161.737453 132.873576 
L 162.571588 135.933916 
L 163.405723 139.871927 
L 164.517903 146.343707 
L 165.908129 156.108646 
L 167.576399 169.826802 
L 169.522715 188.017355 
L 175.917751 250.19032 
L 176.751887 256.338694 
L 177.586022 260.837406 
L 178.142112 262.650052 
L 178.420157 263.156008 
L 178.698202 263.384843 
L 178.976247 263.335643 
L 179.254292 263.01344 
L 179.810382 261.600737 
L 180.366473 259.311566 
L 181.478653 253.205534 
L 182.590833 247.40777 
L 183.146923 245.492294 
L 183.424968 244.897933 
L 183.703013 244.573704 
L 183.981058 244.530515 
L 184.259104 244.770971 
L 184.537149 245.288905 
L 185.093239 247.090375 
L 185.927374 251.247671 
L 187.317599 258.962113 
L 187.87369 261.057046 
L 188.151735 261.685646 
L 188.42978 261.978708 
L 188.707825 261.901925 
L 188.98587 261.42836 
L 189.263915 260.53929 
L 189.820005 257.481199 
L 190.376095 252.745705 
L 191.21023 242.848394 
L 192.322411 225.986147 
L 194.546771 190.897125 
L 195.380907 180.639275 
L 196.215042 173.03659 
L 196.771132 169.584454 
L 197.327222 167.445219 
L 197.605267 166.856937 
L 197.883312 166.577321 
L 198.161357 166.592527 
L 198.439402 166.885566 
L 198.995493 168.218792 
L 199.551583 170.36869 
L 200.663763 176.023798 
L 201.775943 181.325557 
L 202.332033 183.023463 
L 202.610079 183.51034 
L 202.888124 183.719874 
L 203.166169 183.632004 
L 203.444214 183.233285 
L 203.722259 182.516326 
L 204.278349 180.135634 
L 204.834439 176.574903 
L 205.668574 169.46662 
L 208.17098 146.095415 
L 208.72707 142.833823 
L 209.28316 140.882972 
L 209.561205 140.439973 
L 209.83925 140.360029 
L 210.117296 140.640847 
L 210.395341 141.27292 
L 210.951431 143.521641 
L 211.507521 146.909327 
L 212.341656 153.506666 
L 214.287972 169.961913 
L 215.122107 174.910568 
L 215.678197 177.001739 
L 216.234287 178.074028 
L 216.512332 178.244735 
L 216.790377 178.192107 
L 217.068422 177.937626 
L 217.624513 176.929609 
L 218.458648 174.640815 
L 219.570828 171.535572 
L 220.126918 170.492825 
L 220.683008 170.01601 
L 220.961053 170.020663 
L 221.239099 170.195556 
L 221.795189 171.057955 
L 222.351279 172.575736 
L 223.185414 175.925398 
L 224.297594 181.879845 
L 226.521955 195.890261 
L 227.91218 203.881047 
L 228.746316 207.531495 
L 229.302406 209.235145 
L 229.858496 210.226844 
L 230.136541 210.429275 
L 230.414586 210.427049 
L 230.692631 210.21687 
L 230.970676 209.799117 
L 231.526766 208.360701 
L 232.082856 206.188295 
L 232.916992 201.854905 
L 235.975487 184.454109 
L 236.809623 181.320147 
L 237.643758 179.051011 
L 238.477893 177.499169 
L 239.033983 176.81685 
L 239.590073 176.42944 
L 240.146164 176.391394 
L 240.702254 176.788621 
L 241.258344 177.724709 
L 241.814434 179.301107 
L 242.370524 181.596045 
L 243.204659 186.447436 
L 244.038795 192.849601 
L 245.707065 208.174855 
L 246.819245 217.552073 
L 247.653381 222.604026 
L 248.209471 224.623801 
L 248.487516 225.176531 
L 248.765561 225.411778 
L 249.043606 225.326112 
L 249.321651 224.92116 
L 249.877741 223.183159 
L 250.433831 220.299783 
L 251.267967 214.188431 
L 252.380147 203.808805 
L 255.160598 176.617758 
L 256.272778 168.025466 
L 257.106913 162.951183 
L 257.941048 159.234081 
L 258.497139 157.601827 
L 259.053229 156.716142 
L 259.331274 156.571303 
L 259.609319 156.633815 
L 259.887364 156.908778 
L 260.443454 158.111168 
L 260.999544 160.191274 
L 261.555634 163.131486 
L 262.38977 169.032659 
L 263.50195 179.172341 
L 265.17022 197.126067 
L 267.394581 220.85229 
L 268.506761 230.783485 
L 269.340896 236.742629 
L 270.175032 240.993405 
L 270.731122 242.672721 
L 271.009167 243.121286 
L 271.287212 243.29088 
L 271.565257 243.169484 
L 271.843302 242.746655 
L 272.121347 242.013822 
L 272.677437 239.594037 
L 273.233527 235.885684 
L 274.067663 227.950132 
L 274.901798 217.372461 
L 276.013978 199.852183 
L 277.682249 168.887954 
L 280.462699 116.225337 
L 281.852925 93.855248 
L 282.965105 79.039357 
L 284.077285 67.399392 
L 284.911421 60.992285 
L 285.467511 57.931922 
L 286.023601 55.909387 
L 286.301646 55.304697 
L 286.579691 54.979176 
L 286.857736 54.937902 
L 287.135781 55.18448 
L 287.413826 55.721493 
L 287.969916 57.668381 
L 288.526007 60.764318 
L 289.082097 64.965137 
L 289.916232 73.172601 
L 291.028412 87.11868 
L 292.418638 108.005761 
L 294.921043 150.11691 
L 297.145404 186.753855 
L 298.535629 206.317907 
L 299.64781 218.868736 
L 300.481945 226.126399 
L 301.31608 231.425465 
L 301.87217 233.868781 
L 302.42826 235.465905 
L 302.98435 236.257265 
L 303.262396 236.36762 
L 303.540441 236.298584 
L 303.818486 236.059242 
L 304.374576 235.109463 
L 304.930666 233.603169 
L 305.764801 230.498326 
L 306.876982 225.26026 
L 309.935477 210.007582 
L 310.769613 207.224185 
L 311.325703 206.049801 
L 311.881793 205.505331 
L 312.159838 205.480018 
L 312.437883 205.618646 
L 312.993973 206.36517 
L 313.550063 207.664936 
L 314.384199 210.347238 
L 316.052469 215.942794 
L 316.608559 217.115776 
L 317.164649 217.647223 
L 317.442694 217.633887 
L 317.720739 217.42028 
L 317.998785 217.000212 
L 318.554875 215.533011 
L 319.110965 213.252432 
L 319.9451 208.48724 
L 321.05728 200.397588 
L 322.725551 187.865882 
L 323.559686 183.0012 
L 324.115776 180.681907 
L 324.671866 179.226572 
L 324.949911 178.839408 
L 325.227956 178.680989 
L 325.506002 178.748176 
L 325.784047 179.034315 
L 326.340137 180.220253 
L 326.896227 182.122906 
L 327.730362 185.963163 
L 329.954723 197.030784 
L 330.510813 198.829361 
L 331.066903 199.888047 
L 331.344948 200.105461 
L 331.622993 200.103391 
L 331.901038 199.87794 
L 332.179083 199.429064 
L 332.735173 197.881095 
L 333.291264 195.538739 
L 334.125399 190.853669 
L 336.627805 175.479327 
L 337.183895 173.410664 
L 337.739985 172.295787 
L 338.01803 172.135966 
L 338.296075 172.253734 
L 338.57412 172.652208 
L 339.13021 174.277071 
L 339.6863 176.930521 
L 340.520436 182.461049 
L 343.022841 201.106822 
L 343.578931 203.597446 
L 344.135022 204.930138 
L 344.413067 205.123977 
L 344.691112 204.995166 
L 344.969157 204.546135 
L 345.525247 202.729392 
L 346.081337 199.816607 
L 346.915472 193.893528 
L 349.695923 172.002236 
L 350.530058 167.52149 
L 351.364193 164.348859 
L 352.198329 162.130949 
L 353.588554 158.896918 
L 354.144644 157.154109 
L 354.700734 154.860262 
L 355.256825 151.865885 
L 356.09096 145.867248 
L 356.925095 138.037687 
L 358.037275 125.276389 
L 360.817726 91.369989 
L 361.651861 83.507591 
L 362.485996 77.60713 
L 363.042087 74.879056 
L 363.598177 73.146911 
L 363.876222 72.653532 
L 364.154267 72.405218 
L 364.432312 72.397471 
L 364.710357 72.625348 
L 364.988402 73.082038 
L 365.544492 74.654384 
L 366.100582 77.052976 
L 366.934718 82.053636 
L 367.768853 88.531538 
L 368.881033 99.050303 
L 370.549304 117.54496 
L 374.16389 158.636716 
L 377.778476 195.617659 
L 379.168701 208.394451 
L 380.280881 216.659753 
L 381.115016 221.363234 
L 381.949152 224.832867 
L 382.783287 227.370598 
L 384.729602 232.551873 
L 385.563738 235.903917 
L 386.119828 238.956154 
L 386.953963 245.119021 
L 387.788098 253.426266 
L 388.900279 267.647239 
L 391.680729 305.980955 
L 392.236819 311.054425 
L 392.79291 314.517157 
L 393.349 316.253243 
L 393.627045 316.472727 
L 393.90509 316.273902 
L 394.183135 315.675301 
L 394.739225 313.375955 
L 395.295315 309.800319 
L 396.12945 302.581504 
L 397.241631 290.607292 
L 398.631856 273.256686 
L 400.300127 249.459157 
L 402.246442 217.846894 
L 404.470803 181.537472 
L 405.582983 166.303027 
L 406.695163 154.230282 
L 407.529299 147.247225 
L 408.641479 140.074626 
L 410.031704 132.967924 
L 411.699975 125.538417 
L 412.53411 122.667307 
L 413.0902 121.409573 
L 413.368245 121.041665 
L 413.64629 120.872538 
L 413.924335 120.917174 
L 414.20238 121.186504 
L 414.480425 121.686939 
L 415.036516 123.383265 
L 415.592606 125.960645 
L 416.426741 131.200225 
L 417.816966 141.951565 
L 419.485237 154.34333 
L 420.597417 160.913777 
L 421.987642 167.553548 
L 424.212003 177.873466 
L 426.158319 187.031088 
L 426.436364 188.066466 
L 426.436364 188.066466 
" clip-path="url(#pda4589c5a6)" style="fill: none; stroke-dasharray: 11.1,4.8; stroke-dashoffset: 0; stroke: #000000; stroke-width: 3"/>
   </g>
   <g id="line2d_2">
    <path d="M 27.163636 169.393399 
L 28.553862 168.681092 
L 29.666042 167.842847 
L 30.778222 166.677613 
L 31.612358 165.517455 
L 32.168448 164.572707 
L 32.446493 164.462041 
L 33.836718 165.54132 
L 35.783034 167.254587 
L 38.007394 167.879313 
L 40.231755 168.276118 
L 43.012206 168.531756 
L 48.573107 168.74051 
L 51.909648 168.742714 
L 52.465738 168.996862 
L 53.021828 169.31597 
L 53.299873 169.320801 
L 54.968144 168.393552 
L 56.636414 167.681356 
L 58.304685 167.176134 
L 59.972955 166.87094 
L 61.641226 166.757869 
L 63.587541 166.856291 
L 65.533857 167.187577 
L 67.480172 167.73305 
L 69.704533 168.592399 
L 70.538668 168.932056 
L 71.928893 168.839088 
L 73.597164 168.918231 
L 75.265434 169.247847 
L 76.933705 169.808948 
L 78.88002 170.731122 
L 80.826336 171.915724 
L 83.050696 173.552943 
L 85.553102 175.702797 
L 87.777463 177.620054 
L 88.333553 178.024783 
L 91.392049 179.804481 
L 96.674905 182.909435 
L 99.177311 184.092946 
L 101.123626 184.772616 
L 102.513852 185.264436 
L 105.016257 187.249905 
L 107.518663 188.857159 
L 108.352798 189.236799 
L 110.299114 189.735676 
L 112.245429 189.998038 
L 114.191745 190.044544 
L 116.416105 189.864464 
L 118.918511 189.421999 
L 120.308736 189.225311 
L 120.864827 189.161596 
L 124.201367 188.282923 
L 125.869638 188.150284 
L 126.703773 188.056047 
L 131.430539 186.417983 
L 132.54272 185.666584 
L 133.6549 185.173294 
L 134.76708 184.904899 
L 136.991441 184.691938 
L 138.659711 185.302371 
L 140.327982 185.818769 
L 141.440162 186.024496 
L 142.552342 186.601915 
L 143.942568 187.012611 
L 147.557154 187.864747 
L 149.781514 188.71508 
L 152.28392 189.436826 
L 155.064371 190.024307 
L 156.732641 190.088312 
L 158.678957 189.911281 
L 161.459407 189.408308 
L 166.186174 188.532818 
L 168.132489 188.400624 
L 169.24467 188.378429 
L 170.078805 187.725897 
L 172.02512 186.231135 
L 173.971436 184.984287 
L 175.639706 184.145308 
L 177.586022 183.408156 
L 179.810382 182.81807 
L 182.034743 182.471133 
L 184.259104 182.345885 
L 186.761509 182.241163 
L 188.98587 181.575363 
L 191.766321 180.498666 
L 199.551583 177.291684 
L 202.610079 176.256016 
L 209.83925 174.292254 
L 211.507521 174.192407 
L 213.175791 174.288113 
L 214.844062 174.576767 
L 216.790377 175.134238 
L 218.736693 175.936618 
L 220.683008 176.99486 
L 222.629324 178.298944 
L 225.13173 180.128064 
L 227.35609 180.705439 
L 230.970676 181.893336 
L 234.029172 182.8164 
L 235.975487 183.180857 
L 237.643758 183.270107 
L 239.033983 183.141253 
L 240.424209 182.788595 
L 241.814434 182.178517 
L 242.926614 181.475449 
L 243.76075 180.904153 
L 244.31684 180.943535 
L 247.931426 181.745047 
L 254.048417 183.109462 
L 256.550823 183.419577 
L 258.497139 183.459805 
L 268.228716 182.934658 
L 275.179843 182.327853 
L 276.570068 182.596515 
L 277.960294 183.099533 
L 279.628564 183.956144 
L 282.409015 185.732926 
L 285.189466 187.454363 
L 286.857736 188.244921 
L 287.969916 188.571733 
L 289.916232 188.712119 
L 292.140593 188.651566 
L 294.364953 188.356946 
L 296.867359 187.791192 
L 299.925855 186.862429 
L 300.75999 186.513132 
L 302.706305 184.862222 
L 304.374576 183.748325 
L 306.042846 182.919831 
L 307.989162 182.200089 
L 310.213522 181.623472 
L 312.993973 181.150486 
L 314.662244 180.955734 
L 316.052469 181.437603 
L 319.38901 182.490235 
L 323.559686 183.532692 
L 326.618182 184.032972 
L 329.398633 184.267506 
L 330.510813 184.230862 
L 332.179083 183.500322 
L 334.403444 182.753598 
L 336.627805 182.237401 
L 338.852165 181.969028 
L 340.798481 181.954936 
L 342.744796 182.185574 
L 344.691112 182.640305 
L 346.637427 183.329414 
L 348.583743 184.263164 
L 349.973968 184.909463 
L 356.369005 185.862537 
L 363.876222 187.026814 
L 367.768853 187.844956 
L 371.105394 188.552587 
L 372.773664 188.710338 
L 374.71998 189.11164 
L 376.94434 189.797365 
L 380.002836 191.00748 
L 388.622233 194.592789 
L 390.846594 195.20703 
L 391.680729 195.319677 
L 393.070955 194.963257 
L 394.46118 194.398817 
L 396.12945 193.497993 
L 398.353811 192.013672 
L 400.300127 190.454906 
L 401.968397 188.897854 
L 405.582983 185.593073 
L 407.529299 184.071775 
L 409.197569 183.025756 
L 410.587794 182.39582 
L 411.699975 182.08762 
L 412.812155 181.985525 
L 414.20238 182.018651 
L 415.314561 181.638499 
L 416.426741 181.487159 
L 417.538921 181.59315 
L 417.816966 181.663722 
L 418.373056 186.238103 
L 418.651102 191.316237 
L 418.929147 198.514883 
L 419.485237 204.898303 
L 419.763282 208.509035 
L 420.319372 210.805398 
L 420.597417 210.924969 
L 421.153507 209.575447 
L 421.431552 209.505321 
L 421.709597 211.058944 
L 421.987642 213.532381 
L 422.543733 214.54523 
L 422.821778 214.642917 
L 423.377868 206.817385 
L 423.933958 202.520727 
L 424.212003 201.841213 
L 424.490048 202.506413 
L 424.768093 197.533402 
L 425.324183 181.144096 
L 425.602228 175.214672 
L 426.436364 178.744325 
L 426.436364 178.744325 
" clip-path="url(#pda4589c5a6)" style="fill: none; stroke: #ff00ff; stroke-width: 3; stroke-linecap: square"/>
   </g>
   <g id="patch_3">
    <path d="M 7.2 331.2 
L 7.2 7.2 
" style="fill: none; stroke: #000000; stroke-width: 0.8; stroke-linejoin: miter; stroke-linecap: square"/>
   </g>
   <g id="patch_4">
    <path d="M 446.4 331.2 
L 446.4 7.2 
" style="fill: none; stroke: #000000; stroke-width: 0.8; stroke-linejoin: miter; stroke-linecap: square"/>
   </g>
   <g id="patch_5">
    <path d="M 7.2 331.2 
L 446.4 331.2 
" style="fill: none; stroke: #000000; stroke-width: 0.8; stroke-linejoin: miter; stroke-linecap: square"/>
   </g>
   <g id="patch_6">
    <path d="M 7.2 7.2 
L 446.4 7.2 
" style="fill: none; stroke: #000000; stroke-width: 0.8; stroke-linejoin: miter; stroke-linecap: square"/>
   </g>
  </g>
 </g>
 <defs>
  <clipPath id="pda4589c5a6">
   <rect x="7.2" y="7.2" width="439.2" height="324"/>
  </clipPath>
 </defs>
</svg>
