<?xml version="1.0" encoding="utf-8" standalone="no"?>
<!DOCTYPE svg PUBLIC "-//W3C//DTD SVG 1.1//EN"
  "http://www.w3.org/Graphics/SVG/1.1/DTD/svg11.dtd">
<svg xmlns:xlink="http://www.w3.org/1999/xlink" width="453.6pt" height="338.4pt" viewBox="0 0 453.6 338.4" xmlns="http://www.w3.org/2000/svg" version="1.1">
 <metadata>
  <rdf:RDF xmlns:dc="http://purl.org/dc/elements/1.1/" xmlns:cc="http://creativecommons.org/ns#" xmlns:rdf="http://www.w3.org/1999/02/22-rdf-syntax-ns#">
   <cc:Work>
    <dc:type rdf:resource="http://purl.org/dc/dcmitype/StillImage"/>
    <dc:date>2025-05-15T17:55:32.882768</dc:date>
    <dc:format>image/svg+xml</dc:format>
    <dc:creator>
     <cc:Agent>
      <dc:title>Matplotlib v3.10.1, https://matplotlib.org/</dc:title>
     </cc:Agent>
    </dc:creator>
   </cc:Work>
  </rdf:RDF>
 </metadata>
 <defs>
  <style type="text/css">*{stroke-linejoin: round; stroke-linecap: butt}</style>
 </defs>
 <g id="figure_1">
  <g id="patch_1">
   <path d="M 0 338.4 
L 453.6 338.4 
L 453.6 0 
L 0 0 
z
" style="fill: #ffffff"/>
  </g>
  <g id="axes_1">
   <g id="patch_2">
    <path d="M 7.2 331.2 
L 446.4 331.2 
L 446.4 7.2 
L 7.2 7.2 
z
" style="fill: #ffffff"/>
   </g>
   <g id="matplotlib.axis_1"/>
   <g id="matplotlib.axis_2"/>
   <g id="line2d_1">
    <path d="M 27.163636 183.122662 
L 28.553862 162.301364 
L 30.500177 133.458188 
L 31.612358 120.256714 
L 32.446493 112.614675 
L 33.280628 106.932072 
L 34.114763 102.975794 
L 34.948898 100.369412 
L 35.783034 98.687208 
L 36.617169 97.541078 
L 38.007394 96.100045 
L 41.343935 92.991069 
L 43.012206 91.766098 
L 46.348747 89.49099 
L 48.017017 87.975044 
L 49.407242 86.432852 
L 50.797468 84.565792 
L 51.909648 82.734278 
L 53.021828 80.45638 
L 53.855964 78.325003 
L 54.690099 75.692376 
L 55.524234 72.39224 
L 56.358369 68.269601 
L 57.47055 61.334025 
L 58.58273 52.865557 
L 61.363181 30.604157 
L 62.197316 25.893574 
L 62.753406 23.715802 
L 63.309496 22.390395 
L 63.587541 22.052715 
L 63.865586 21.927273 
L 64.143631 22.008386 
L 64.421676 22.283759 
L 64.977767 23.367375 
L 65.533857 25.056192 
L 66.367992 28.422149 
L 68.036262 36.515944 
L 71.094758 52.198462 
L 72.206938 59.409101 
L 73.319119 68.495686 
L 74.431299 79.695152 
L 75.821524 96.067497 
L 82.216561 174.726731 
L 83.884832 192.788512 
L 84.997012 202.634362 
L 85.831147 208.53592 
L 86.665282 213.156296 
L 87.499418 216.631266 
L 88.333553 219.208096 
L 89.445733 221.817681 
L 90.557913 224.357416 
L 91.392049 226.819446 
L 92.226184 230.154198 
L 93.060319 234.563989 
L 94.172499 242.071493 
L 95.84077 255.533771 
L 98.06513 273.19732 
L 99.733401 284.608715 
L 102.791897 303.719083 
L 103.904077 309.595119 
L 104.738212 312.963349 
L 105.294302 314.578182 
L 105.850393 315.667998 
L 106.406483 316.271855 
L 106.962573 316.472727 
L 107.518663 316.387687 
L 108.908888 315.723899 
L 110.299114 315.234117 
L 110.855204 314.982613 
L 111.411294 314.508228 
L 111.967384 313.635404 
L 112.523474 312.179492 
L 113.079564 309.969688 
L 113.635655 306.864742 
L 114.46979 300.329981 
L 115.303925 291.453671 
L 116.13806 280.352058 
L 117.250241 262.615455 
L 118.918511 231.750224 
L 122.255052 168.79934 
L 123.367232 152.495193 
L 124.201367 143.189032 
L 125.035503 136.510747 
L 125.869638 132.040611 
L 126.981818 127.937916 
L 127.815953 124.782854 
L 128.650089 120.503258 
L 129.484224 114.682297 
L 130.596404 105.001981 
L 132.264675 90.473963 
L 133.09881 85.158697 
L 133.6549 82.66949 
L 134.21099 81.002683 
L 134.76708 80.030973 
L 135.32317 79.546977 
L 136.713396 78.747104 
L 137.269486 77.916645 
L 137.825576 76.497932 
L 138.381666 74.403857 
L 139.215801 70.06805 
L 141.718207 55.499321 
L 142.274297 53.998874 
L 142.552342 53.699322 
L 142.830387 53.724844 
L 143.108433 54.085774 
L 143.386478 54.782008 
L 143.942568 57.150112 
L 144.498658 60.68522 
L 145.332793 67.636502 
L 148.113244 93.160323 
L 148.947379 98.81823 
L 149.781514 103.210661 
L 150.61565 106.54531 
L 151.449785 109.10819 
L 152.561965 111.815628 
L 156.176551 119.971732 
L 157.844821 123.788102 
L 158.678957 125.232647 
L 159.235047 125.894989 
L 159.791137 126.267698 
L 160.347227 126.328146 
L 160.903317 126.071786 
L 161.459407 125.508537 
L 162.015498 124.666092 
L 162.849633 122.964772 
L 163.961813 120.102547 
L 165.352038 115.824604 
L 166.464219 111.67324 
L 167.298354 107.788776 
L 168.132489 102.919686 
L 168.966624 96.823352 
L 170.078805 86.705642 
L 172.02512 65.772025 
L 173.137301 54.718047 
L 173.971436 48.26595 
L 174.527526 45.167513 
L 175.083616 43.147112 
L 175.361661 42.550488 
L 175.639706 42.225723 
L 175.917751 42.163726 
L 176.195796 42.353438 
L 176.473841 42.780189 
L 177.029932 44.270096 
L 177.586022 46.466467 
L 178.698202 52.207245 
L 180.644518 62.80399 
L 181.478653 66.333414 
L 182.312788 68.809188 
L 182.868878 69.788337 
L 183.424968 70.207132 
L 183.703013 70.211988 
L 184.259104 69.853332 
L 184.815194 69.103573 
L 186.205419 66.868454 
L 186.483464 66.648155 
L 186.761509 66.604757 
L 187.039554 66.784964 
L 187.317599 67.234447 
L 187.595644 67.998051 
L 188.151735 70.627269 
L 188.707825 74.94861 
L 189.263915 81.142591 
L 190.09805 94.039243 
L 190.932185 110.912839 
L 192.322411 145.210157 
L 194.546771 201.587841 
L 195.380907 218.487786 
L 196.215042 231.174473 
L 196.771132 236.869062 
L 197.327222 240.178188 
L 197.605267 240.92402 
L 197.883312 241.071161 
L 198.161357 240.634697 
L 198.439402 239.637465 
L 198.995493 236.086858 
L 199.551583 230.729329 
L 200.385718 220.135788 
L 201.775943 198.804249 
L 205.112484 143.262086 
L 207.0588 111.483011 
L 207.892935 101.231799 
L 208.449025 96.42698 
L 209.005115 93.498313 
L 209.28316 92.755374 
L 209.561205 92.481035 
L 209.83925 92.651218 
L 210.117296 93.233376 
L 210.673386 95.454856 
L 211.507521 100.602833 
L 213.175791 111.608969 
L 213.731881 114.103239 
L 214.287972 115.675603 
L 214.566017 116.106694 
L 214.844062 116.309116 
L 215.122107 116.295373 
L 215.400152 116.082618 
L 215.956242 115.14015 
L 216.512332 113.655202 
L 217.624513 109.731576 
L 222.907369 89.628315 
L 223.741504 87.27819 
L 224.297594 86.1395 
L 224.853684 85.453495 
L 225.13173 85.306974 
L 225.409775 85.306044 
L 225.68782 85.458869 
L 225.965865 85.774127 
L 226.521955 86.91633 
L 227.078045 88.773367 
L 227.634135 91.358877 
L 228.46827 96.568128 
L 229.302406 103.209938 
L 230.692631 116.462663 
L 232.638947 135.18441 
L 233.751127 143.536633 
L 234.585262 148.276251 
L 235.697442 153.224389 
L 236.809623 158.292698 
L 237.643758 163.464854 
L 238.477893 170.570717 
L 239.312028 179.802583 
L 240.702254 198.638405 
L 242.370524 220.970276 
L 243.204659 229.39204 
L 243.76075 233.504345 
L 244.31684 236.377007 
L 244.87293 238.117178 
L 245.42902 238.942884 
L 245.98511 239.157189 
L 247.09729 239.175582 
L 247.375336 239.353102 
L 247.653381 239.67704 
L 248.209471 240.881758 
L 248.765561 242.955993 
L 249.321651 245.950584 
L 250.155786 251.99918 
L 251.824057 266.985154 
L 252.936237 276.14159 
L 253.770372 281.425858 
L 254.604507 285.211332 
L 255.438643 287.807691 
L 256.550823 290.277368 
L 257.941048 292.782384 
L 258.497139 293.458985 
L 258.775184 293.638055 
L 259.053229 293.668228 
L 259.331274 293.512303 
L 259.609319 293.134014 
L 259.887364 292.494405 
L 260.443454 290.288218 
L 260.999544 286.636349 
L 261.555634 281.357247 
L 262.38977 270.229595 
L 263.223905 255.454104 
L 264.336085 231.355093 
L 267.950671 148.804265 
L 269.062851 130.168592 
L 269.896987 119.560584 
L 270.731122 111.989635 
L 271.287212 108.597536 
L 271.843302 106.432887 
L 272.399392 105.342141 
L 272.677437 105.132383 
L 272.955482 105.10376 
L 273.511573 105.433485 
L 274.623753 106.435057 
L 274.901798 106.490752 
L 275.179843 106.380602 
L 275.457888 106.065448 
L 275.735933 105.510672 
L 276.292023 103.569628 
L 276.848113 100.396691 
L 277.404204 95.941951 
L 278.238339 87.060888 
L 279.628564 68.496409 
L 281.01879 50.223836 
L 281.852925 41.824288 
L 282.409015 37.855817 
L 282.965105 35.352042 
L 283.24315 34.660044 
L 283.521195 34.33466 
L 283.79924 34.363799 
L 284.077285 34.730722 
L 284.633376 36.390813 
L 285.189466 39.104864 
L 286.023601 44.598477 
L 289.360142 69.055215 
L 290.472322 74.969173 
L 291.862547 80.902866 
L 293.808863 88.062151 
L 295.199088 92.435053 
L 296.033224 94.291573 
L 296.589314 95.010126 
L 296.867359 95.17876 
L 297.145404 95.208416 
L 297.423449 95.091653 
L 297.701494 94.82248 
L 298.257584 93.818944 
L 298.813674 92.206695 
L 299.64781 88.777914 
L 300.75999 82.902808 
L 302.42826 73.820253 
L 303.262396 70.298165 
L 303.818486 68.593746 
L 304.374576 67.478718 
L 304.930666 66.97106 
L 305.208711 66.939545 
L 305.486756 67.049487 
L 306.042846 67.663057 
L 306.598936 68.740887 
L 307.433072 71.033044 
L 308.823297 75.873512 
L 311.325703 84.817193 
L 312.715928 89.051014 
L 314.106153 92.533939 
L 315.218334 94.739816 
L 316.330514 96.490011 
L 319.667055 101.233142 
L 320.779235 103.469502 
L 321.61337 105.583209 
L 322.447506 108.193001 
L 323.281641 111.459142 
L 324.115776 115.602136 
L 324.949911 120.872351 
L 325.784047 127.496286 
L 326.896227 138.664236 
L 328.008407 152.379464 
L 329.954723 180.075683 
L 331.622993 202.945797 
L 332.735173 215.454343 
L 333.569309 222.81791 
L 334.403444 228.245186 
L 334.959534 230.708044 
L 335.515624 232.178008 
L 335.793669 232.517859 
L 336.071714 232.5812 
L 336.349759 232.357492 
L 336.627805 231.837434 
L 337.183895 229.878101 
L 337.739985 226.668379 
L 338.296075 222.229759 
L 339.13021 213.484264 
L 340.24239 198.938887 
L 344.135022 144.982108 
L 346.081337 121.396438 
L 347.193517 110.187776 
L 348.027653 103.885093 
L 348.583743 100.893705 
L 349.139833 98.856255 
L 349.695923 97.638208 
L 350.252013 97.007071 
L 351.642239 96.004259 
L 352.198329 95.068301 
L 352.754419 93.522699 
L 353.310509 91.305972 
L 354.144644 86.868282 
L 356.64705 72.051872 
L 357.20314 69.876478 
L 357.75923 68.381714 
L 358.31532 67.555801 
L 358.87141 67.32021 
L 359.427501 67.545262 
L 359.983591 68.075652 
L 361.929906 70.247637 
L 362.485996 70.558659 
L 363.042087 70.672734 
L 363.876222 70.542332 
L 366.656673 69.614641 
L 367.768853 69.668475 
L 369.715168 70.117648 
L 373.329754 70.909669 
L 374.441935 70.917625 
L 375.27607 70.721092 
L 377.778476 69.837419 
L 378.334566 69.98828 
L 378.890656 70.445203 
L 379.446746 71.279175 
L 380.002836 72.539071 
L 380.558926 74.249173 
L 381.393062 77.649435 
L 382.227197 81.96189 
L 383.339377 88.862747 
L 385.007648 100.851133 
L 387.232008 116.850976 
L 388.066143 121.492741 
L 388.622233 123.81972 
L 389.178324 125.443439 
L 389.734414 126.364621 
L 390.290504 126.66903 
L 390.846594 126.528605 
L 391.958774 125.950684 
L 392.236819 125.963186 
L 392.514865 126.112084 
L 392.79291 126.430752 
L 393.349 127.679282 
L 393.90509 129.852817 
L 394.46118 132.980496 
L 395.295315 139.220458 
L 398.075766 162.393224 
L 398.631856 165.365806 
L 399.187946 167.413692 
L 399.744036 168.53399 
L 400.022082 168.759868 
L 400.300127 168.775884 
L 400.578172 168.590511 
L 401.134262 167.65817 
L 401.690352 166.032591 
L 402.246442 163.765233 
L 403.080577 159.22752 
L 403.914713 153.406868 
L 405.026893 143.995312 
L 407.529299 121.775451 
L 408.363434 116.326475 
L 409.197569 112.520128 
L 409.753659 110.856937 
L 410.309749 109.767328 
L 410.865839 109.090107 
L 413.0902 107.087789 
L 413.924335 105.667319 
L 416.704786 100.23157 
L 417.260876 99.746645 
L 417.816966 99.569435 
L 418.373056 99.649309 
L 420.319372 100.378815 
L 420.875462 100.194372 
L 421.431552 99.664188 
L 421.987642 98.767598 
L 422.821778 96.815602 
L 425.324183 90.157259 
L 425.880273 89.351599 
L 426.436364 88.994802 
L 426.436364 88.994802 
" clip-path="url(#p67c14cd094)" style="fill: none; stroke-dasharray: 11.1,4.8; stroke-dashoffset: 0; stroke: #000000; stroke-width: 3"/>
   </g>
   <g id="line2d_2">
    <path d="M 27.163636 127.078525 
L 27.719727 136.15395 
L 28.553862 123.186827 
L 28.831907 121.107426 
L 29.109952 122.176885 
L 29.666042 126.0598 
L 29.944087 126.219134 
L 30.500177 124.035059 
L 30.778222 123.416839 
L 31.612358 129.121761 
L 31.890403 129.209281 
L 32.168448 128.448776 
L 32.446493 129.106468 
L 32.724538 131.054952 
L 33.002583 131.148258 
L 33.836718 123.523681 
L 34.114763 121.995129 
L 34.392808 121.215508 
L 34.670853 121.115279 
L 34.948898 121.667678 
L 35.226944 122.869606 
L 35.504989 122.791799 
L 36.061079 120.395589 
L 36.339124 120.36366 
L 36.617169 119.711135 
L 37.451304 116.430631 
L 37.729349 116.727187 
L 38.007394 116.432698 
L 38.563484 114.409817 
L 39.119575 112.04223 
L 39.39762 111.991805 
L 40.231755 112.259635 
L 41.06589 112.635237 
L 42.17807 110.78192 
L 42.734161 109.535974 
L 43.290251 107.802932 
L 43.568296 106.716733 
L 45.236566 114.175053 
L 46.626792 121.509481 
L 47.182882 124.852808 
L 48.017017 132.119555 
L 48.851152 137.474294 
L 49.685287 141.317943 
L 50.519423 143.999859 
L 51.353558 145.812361 
L 52.187693 146.994966 
L 53.021828 147.731188 
L 55.524234 147.868823 
L 58.860775 147.784196 
L 59.416865 147.690787 
L 62.475361 145.255105 
L 66.646037 141.644257 
L 69.148443 139.484465 
L 74.431299 139.099976 
L 79.43611 138.830906 
L 81.382426 138.693581 
L 83.050696 138.342778 
L 84.440922 137.815281 
L 85.831147 137.011791 
L 88.055508 135.525087 
L 89.723778 135.042849 
L 93.060319 134.446121 
L 95.562725 134.063492 
L 96.39686 133.777166 
L 97.50904 132.896076 
L 97.787085 132.642609 
L 98.343175 132.513137 
L 100.011446 132.474078 
L 102.513852 132.676088 
L 104.182122 133.069359 
L 106.962573 133.782539 
L 111.689339 134.64906 
L 115.58197 134.603078 
L 118.362421 134.21022 
L 119.752646 134.002734 
L 124.757458 134.987051 
L 126.703773 135.590701 
L 128.372044 136.317934 
L 130.040314 137.284064 
L 130.318359 137.471814 
L 131.430539 137.354122 
L 132.820765 137.377371 
L 134.21099 137.640034 
L 135.601215 138.110803 
L 137.269486 138.906027 
L 139.215801 140.079643 
L 140.884072 141.177208 
L 141.996252 140.794889 
L 143.108433 140.195372 
L 144.220613 139.322134 
L 145.332793 138.184064 
L 146.444973 136.764524 
L 147.835199 134.585512 
L 149.225424 131.967557 
L 150.893695 128.296779 
L 152.561965 124.148721 
L 152.84001 123.99786 
L 154.508281 124.391236 
L 156.454596 124.613601 
L 159.235047 124.693578 
L 165.352038 124.586632 
L 168.410534 124.63096 
L 172.58121 124.930099 
L 177.586022 125.51329 
L 178.698202 125.927228 
L 192.322411 132.049808 
L 194.824816 132.597454 
L 198.161357 133.082586 
L 202.332033 133.440209 
L 207.892935 133.67301 
L 224.019549 134.19689 
L 246.263155 135.077051 
L 250.433831 135.412665 
L 264.61413 136.508577 
L 268.506761 137.147256 
L 273.511573 133.842057 
L 275.179843 133.075043 
L 275.735933 132.876133 
L 276.848113 131.840979 
L 277.682249 131.372483 
L 278.516384 131.139475 
L 279.350519 131.095457 
L 280.462699 131.310072 
L 282.68706 131.909383 
L 283.79924 132.183826 
L 285.745556 132.809073 
L 286.579691 132.877167 
L 287.413826 132.716489 
L 288.247962 132.274239 
L 289.082097 131.513321 
L 291.862547 132.1675 
L 294.642998 132.334584 
L 297.423449 132.546616 
L 299.369764 132.785203 
L 302.150215 132.481518 
L 304.374576 132.128958 
L 305.764801 131.698488 
L 307.155027 131.016927 
L 308.267207 130.243506 
L 310.491567 128.522864 
L 311.603748 128.061498 
L 312.715928 127.825183 
L 314.106153 127.773932 
L 317.164649 128.001567 
L 325.506002 128.754632 
L 326.896227 128.731692 
L 329.954723 128.163587 
L 332.457128 127.907743 
L 337.739985 127.613358 
L 341.910661 127.572956 
L 346.081337 127.753886 
L 353.310509 128.17423 
L 365.266447 128.557582 
L 387.232008 128.97989 
L 395.295315 128.954057 
L 401.134262 128.78842 
L 408.085389 128.79524 
L 418.373056 129.06307 
L 426.436364 129.214758 
L 426.436364 129.214758 
" clip-path="url(#p67c14cd094)" style="fill: none; stroke: #ff00ff; stroke-width: 3; stroke-linecap: square"/>
   </g>
   <g id="patch_3">
    <path d="M 7.2 331.2 
L 7.2 7.2 
" style="fill: none; stroke: #000000; stroke-width: 0.8; stroke-linejoin: miter; stroke-linecap: square"/>
   </g>
   <g id="patch_4">
    <path d="M 446.4 331.2 
L 446.4 7.2 
" style="fill: none; stroke: #000000; stroke-width: 0.8; stroke-linejoin: miter; stroke-linecap: square"/>
   </g>
   <g id="patch_5">
    <path d="M 7.2 331.2 
L 446.4 331.2 
" style="fill: none; stroke: #000000; stroke-width: 0.8; stroke-linejoin: miter; stroke-linecap: square"/>
   </g>
   <g id="patch_6">
    <path d="M 7.2 7.2 
L 446.4 7.2 
" style="fill: none; stroke: #000000; stroke-width: 0.8; stroke-linejoin: miter; stroke-linecap: square"/>
   </g>
  </g>
 </g>
 <defs>
  <clipPath id="p67c14cd094">
   <rect x="7.2" y="7.2" width="439.2" height="324"/>
  </clipPath>
 </defs>
</svg>
