<?xml version="1.0" encoding="utf-8" standalone="no"?>
<!DOCTYPE svg PUBLIC "-//W3C//DTD SVG 1.1//EN"
  "http://www.w3.org/Graphics/SVG/1.1/DTD/svg11.dtd">
<svg xmlns:xlink="http://www.w3.org/1999/xlink" width="453.6pt" height="338.4pt" viewBox="0 0 453.6 338.4" xmlns="http://www.w3.org/2000/svg" version="1.1">
 <metadata>
  <rdf:RDF xmlns:dc="http://purl.org/dc/elements/1.1/" xmlns:cc="http://creativecommons.org/ns#" xmlns:rdf="http://www.w3.org/1999/02/22-rdf-syntax-ns#">
   <cc:Work>
    <dc:type rdf:resource="http://purl.org/dc/dcmitype/StillImage"/>
    <dc:date>2025-05-15T17:22:35.550724</dc:date>
    <dc:format>image/svg+xml</dc:format>
    <dc:creator>
     <cc:Agent>
      <dc:title>Matplotlib v3.10.1, https://matplotlib.org/</dc:title>
     </cc:Agent>
    </dc:creator>
   </cc:Work>
  </rdf:RDF>
 </metadata>
 <defs>
  <style type="text/css">*{stroke-linejoin: round; stroke-linecap: butt}</style>
 </defs>
 <g id="figure_1">
  <g id="patch_1">
   <path d="M 0 338.4 
L 453.6 338.4 
L 453.6 0 
L 0 0 
z
" style="fill: #ffffff"/>
  </g>
  <g id="axes_1">
   <g id="patch_2">
    <path d="M 7.2 331.2 
L 446.4 331.2 
L 446.4 7.2 
L 7.2 7.2 
z
" style="fill: #ffffff"/>
   </g>
   <g id="matplotlib.axis_1"/>
   <g id="matplotlib.axis_2"/>
   <g id="line2d_1">
    <path d="M 27.163636 193.099735 
L 28.275817 170.300094 
L 31.612358 95.871071 
L 32.446493 83.398393 
L 33.280628 74.665833 
L 33.836718 70.784216 
L 34.392808 68.303396 
L 34.948898 67.094804 
L 35.226944 66.931789 
L 35.504989 67.04557 
L 35.783034 67.423251 
L 36.339124 68.917013 
L 36.895214 71.290711 
L 37.729349 76.141794 
L 40.231755 92.328589 
L 40.787845 94.614051 
L 41.343935 96.044003 
L 41.62198 96.42708 
L 41.900025 96.59514 
L 42.17807 96.560063 
L 42.456115 96.33909 
L 43.012206 95.434415 
L 44.124386 92.66019 
L 44.680476 91.388312 
L 45.236566 90.61571 
L 45.514611 90.511496 
L 45.792656 90.641466 
L 46.070701 91.036703 
L 46.348747 91.724714 
L 46.904837 94.070273 
L 47.460927 97.81866 
L 48.017017 103.044586 
L 48.851152 113.667932 
L 49.685287 127.460986 
L 50.797468 150.083455 
L 52.465738 189.745778 
L 54.134009 228.301532 
L 54.968144 243.597126 
L 55.802279 254.608928 
L 56.358369 259.29344 
L 56.914459 261.892334 
L 57.192504 262.470524 
L 57.47055 262.61805 
L 57.748595 262.38122 
L 58.02664 261.811755 
L 58.58273 259.896317 
L 59.69491 254.501735 
L 60.80709 249.417116 
L 61.641226 246.787718 
L 62.197316 245.685022 
L 62.753406 245.051203 
L 63.309496 244.814619 
L 63.865586 244.910195 
L 64.421676 245.298669 
L 64.977767 245.974468 
L 65.533857 246.964154 
L 66.089947 248.31428 
L 66.924082 251.123354 
L 67.758217 254.958786 
L 68.870398 261.553708 
L 72.484984 285.168789 
L 73.319119 288.687635 
L 73.875209 290.33856 
L 74.431299 291.41515 
L 74.987389 291.928582 
L 75.265434 291.983826 
L 75.543479 291.912603 
L 76.09957 291.421282 
L 76.65566 290.526735 
L 77.489795 288.621056 
L 80.270246 281.565667 
L 80.826336 280.727905 
L 81.382426 280.207253 
L 81.938516 279.99087 
L 82.494606 280.024002 
L 84.440922 280.517654 
L 84.997012 280.234936 
L 85.553102 279.590798 
L 86.109192 278.576863 
L 86.943327 276.524849 
L 88.333553 273.063366 
L 88.889643 272.251728 
L 89.167688 272.053567 
L 89.445733 272.009256 
L 89.723778 272.122196 
L 90.279868 272.799361 
L 90.835958 273.972211 
L 92.504229 277.939698 
L 92.782274 278.250116 
L 93.060319 278.358833 
L 93.338364 278.23708 
L 93.616409 277.862536 
L 94.172499 276.303665 
L 94.72859 273.660444 
L 95.562725 267.918054 
L 96.95295 255.640927 
L 98.343175 243.56515 
L 99.455356 235.523755 
L 103.347987 209.901759 
L 105.016257 196.214041 
L 110.021069 153.659963 
L 111.133249 146.64708 
L 112.245429 141.285332 
L 114.747835 130.530404 
L 115.58197 125.205309 
L 116.416105 118.342826 
L 117.528286 107.013142 
L 120.864827 70.660694 
L 121.698962 64.466983 
L 122.255052 61.640511 
L 122.811142 60.075859 
L 123.089187 59.822892 
L 123.367232 59.950023 
L 123.645277 60.473478 
L 123.923322 61.406501 
L 124.479413 64.52743 
L 125.035503 69.305172 
L 125.869638 79.285921 
L 126.981818 96.308884 
L 128.928134 126.518221 
L 129.762269 135.986379 
L 130.318359 140.547036 
L 130.874449 143.698066 
L 131.430539 145.572803 
L 131.98663 146.402033 
L 132.264675 146.515218 
L 132.820765 146.338712 
L 134.21099 145.386661 
L 134.489035 145.388518 
L 134.76708 145.520661 
L 135.045125 145.804254 
L 135.601215 146.892723 
L 136.157306 148.751831 
L 136.713396 151.428255 
L 137.547531 156.967034 
L 138.381666 164.190554 
L 139.493847 175.914055 
L 143.942568 226.090551 
L 145.332793 237.645607 
L 147.557154 255.499691 
L 148.669334 266.42254 
L 150.337604 285.662318 
L 152.005875 304.41738 
L 152.84001 311.441389 
L 153.3961 314.609274 
L 153.95219 316.271868 
L 154.230236 316.472727 
L 154.508281 316.225052 
L 154.786326 315.51309 
L 155.342416 312.656709 
L 155.898506 307.877075 
L 156.454596 301.232762 
L 157.288731 288.088981 
L 158.400912 265.762194 
L 159.791137 232.618946 
L 161.737453 180.426302 
L 163.961813 121.260653 
L 164.795948 104.088902 
L 165.352038 95.528643 
L 165.908129 89.701119 
L 166.464219 86.78154 
L 166.742264 86.41672 
L 167.020309 86.762723 
L 167.298354 87.793583 
L 167.854444 91.771004 
L 168.410534 98.02376 
L 169.24467 110.874855 
L 170.35685 132.657196 
L 174.249481 214.609644 
L 175.083616 226.375984 
L 175.917751 235.14865 
L 176.751887 241.599357 
L 177.864067 248.262067 
L 180.922563 264.765482 
L 181.756698 268.039159 
L 182.312788 269.456986 
L 182.868878 270.134099 
L 183.146923 270.171628 
L 183.424968 270.000449 
L 183.703013 269.617284 
L 184.259104 268.211705 
L 184.815194 265.968047 
L 185.649329 261.137358 
L 186.483464 254.815955 
L 188.151735 239.691348 
L 189.54196 227.642203 
L 190.376095 221.91446 
L 191.21023 217.727945 
L 191.766321 215.807811 
L 192.322411 214.513331 
L 192.878501 213.733441 
L 193.434591 213.329304 
L 194.268726 213.102566 
L 195.380907 212.812122 
L 195.936997 212.452522 
L 196.493087 211.876347 
L 197.327222 210.571548 
L 198.161357 208.761253 
L 199.273538 205.662838 
L 200.385718 201.838427 
L 201.497898 197.111847 
L 202.332033 192.680635 
L 203.166169 187.132745 
L 204.000304 180.090076 
L 204.834439 171.215281 
L 205.946619 156.288239 
L 207.336845 133.712025 
L 208.72707 111.33618 
L 209.561205 101.356096 
L 210.117296 97.345491 
L 210.395341 96.31817 
L 210.673386 96.002934 
L 210.951431 96.428517 
L 211.229476 97.607463 
L 211.785566 102.189916 
L 212.341656 109.494102 
L 213.175791 124.276596 
L 214.844062 156.234836 
L 215.400152 163.924902 
L 215.956242 168.83871 
L 216.234287 170.139708 
L 216.512332 170.65745 
L 216.790377 170.41377 
L 217.068422 169.455516 
L 217.624513 165.695775 
L 218.458648 157.057547 
L 219.570828 145.454852 
L 220.126918 141.900982 
L 220.404963 141.018664 
L 220.683008 140.802456 
L 220.961053 141.272612 
L 221.239099 142.421107 
L 221.795189 146.586177 
L 222.629324 156.236447 
L 223.741504 170.163151 
L 224.297594 175.094953 
L 224.575639 176.65123 
L 224.853684 177.504008 
L 225.13173 177.615808 
L 225.409775 176.979747 
L 225.68782 175.62058 
L 226.24391 170.98383 
L 227.078045 160.8565 
L 228.190225 147.594961 
L 228.746316 143.76002 
L 229.024361 142.949923 
L 229.302406 142.971229 
L 229.580451 143.858873 
L 229.858496 145.618673 
L 230.414586 151.642641 
L 230.970676 160.579074 
L 232.082856 183.984641 
L 233.751127 219.649936 
L 234.585262 233.120254 
L 235.419397 242.740318 
L 235.975487 247.176682 
L 236.531578 250.279144 
L 237.087668 252.296782 
L 237.643758 253.472119 
L 238.199848 254.022538 
L 238.755938 254.131869 
L 239.312028 253.950878 
L 240.146164 253.394589 
L 241.536389 252.418254 
L 242.370524 252.128318 
L 242.926614 252.138025 
L 243.482704 252.328109 
L 244.31684 252.923382 
L 245.98511 254.336566 
L 246.263155 254.389181 
L 246.5412 254.316469 
L 246.819245 254.084037 
L 247.09729 253.655475 
L 247.653381 252.058725 
L 248.209471 249.228117 
L 248.765561 244.902538 
L 249.321651 238.904571 
L 250.155786 226.718202 
L 251.267967 205.680639 
L 252.936237 172.578688 
L 253.770372 160.178546 
L 254.326462 154.500791 
L 254.882553 150.919483 
L 255.438643 149.079017 
L 255.994733 148.325127 
L 256.550823 147.802233 
L 256.828868 147.338945 
L 257.106913 146.59301 
L 257.663003 143.877725 
L 258.219093 139.080361 
L 258.775184 131.978472 
L 259.609319 117.495199 
L 261.833679 74.855374 
L 262.38977 68.297579 
L 262.94586 64.709683 
L 263.223905 64.097432 
L 263.50195 64.27138 
L 263.779995 65.209379 
L 264.05804 66.8739 
L 264.61413 72.172082 
L 265.448265 84.019509 
L 268.506761 134.485994 
L 269.062851 139.38971 
L 269.340896 140.8649 
L 269.618942 141.620892 
L 269.896987 141.617178 
L 270.175032 140.824427 
L 270.453077 139.225084 
L 271.009167 133.605253 
L 271.565257 124.906999 
L 272.399392 107.035884 
L 275.179843 40.594152 
L 275.735933 33.619429 
L 276.013978 31.598953 
L 276.292023 30.62798 
L 276.570068 30.735033 
L 276.848113 31.927961 
L 277.126159 34.19394 
L 277.682249 41.791741 
L 278.238339 53.039673 
L 279.072474 75.090119 
L 281.852925 155.96631 
L 282.68706 173.155389 
L 283.521195 185.598526 
L 284.35533 194.033529 
L 285.189466 199.746869 
L 287.691871 214.035659 
L 288.526007 220.818107 
L 289.638187 231.882945 
L 292.140593 258.080941 
L 292.974728 264.491508 
L 293.530818 267.611824 
L 294.086908 269.698722 
L 294.364953 270.334801 
L 294.642998 270.691298 
L 294.921043 270.763169 
L 295.199088 270.545822 
L 295.477133 270.034808 
L 296.033224 268.114604 
L 296.589314 264.968077 
L 297.145404 260.565003 
L 297.979539 251.561552 
L 298.813674 239.678032 
L 299.925855 219.494946 
L 301.038035 194.695329 
L 302.42826 158.167462 
L 305.208711 81.968687 
L 306.042846 66.029813 
L 306.598936 59.163405 
L 306.876982 57.019021 
L 307.155027 55.768799 
L 307.433072 55.416314 
L 307.711117 55.944429 
L 307.989162 57.316176 
L 308.545252 62.350318 
L 309.101342 69.872288 
L 310.213522 88.925433 
L 311.325703 107.465286 
L 312.159838 118.002745 
L 312.715928 123.008048 
L 313.272018 126.549163 
L 313.828108 128.966698 
L 314.662244 131.455998 
L 315.496379 133.894663 
L 316.052469 136.061404 
L 316.886604 140.563366 
L 317.720739 146.562804 
L 320.223145 166.341 
L 320.779235 168.969802 
L 321.05728 169.787713 
L 321.335325 170.230291 
L 321.61337 170.272131 
L 321.891416 169.894099 
L 322.169461 169.085019 
L 322.725551 166.167122 
L 323.281641 161.587227 
L 324.115776 152.046007 
L 325.227956 136.043672 
L 327.174272 107.499767 
L 328.008407 97.921893 
L 328.842542 91.119401 
L 329.398633 88.435409 
L 329.676678 87.708677 
L 329.954723 87.414536 
L 330.232768 87.566827 
L 330.510813 88.17652 
L 330.788858 89.250551 
L 331.344948 92.79878 
L 331.901038 98.174825 
L 332.735173 109.37468 
L 333.847354 128.87601 
L 338.57412 219.152587 
L 340.24239 244.713593 
L 341.632616 263.071316 
L 342.744796 274.781589 
L 343.578931 281.295775 
L 344.413067 285.751429 
L 344.969157 287.672211 
L 345.525247 288.899761 
L 346.081337 289.604347 
L 346.637427 289.975194 
L 348.027653 290.636661 
L 348.583743 291.179511 
L 349.139833 292.019201 
L 349.973968 293.883898 
L 351.086148 297.287737 
L 352.754419 302.63065 
L 353.310509 303.91078 
L 353.866599 304.714692 
L 354.144644 304.904724 
L 354.422689 304.939678 
L 354.700734 304.811863 
L 354.978779 304.516163 
L 355.53487 303.410734 
L 356.09096 301.624057 
L 356.925095 297.737709 
L 357.75923 292.577977 
L 358.87141 284.167048 
L 360.817726 267.133433 
L 363.876222 238.466006 
L 364.988402 225.584214 
L 365.822537 213.566554 
L 366.656673 198.811585 
L 367.768853 174.404314 
L 369.159078 137.364258 
L 371.939529 60.340389 
L 372.773664 42.537466 
L 373.607799 29.617619 
L 374.16389 24.294487 
L 374.441935 22.729064 
L 374.71998 21.932774 
L 374.998025 21.927273 
L 375.27607 22.727733 
L 375.554115 24.341584 
L 376.110205 29.997543 
L 376.666295 38.779967 
L 377.50043 57.187467 
L 378.612611 88.966082 
L 381.115016 165.145618 
L 381.949152 184.562498 
L 382.783287 198.816351 
L 383.339377 205.279025 
L 383.895467 209.371576 
L 384.173512 210.578083 
L 384.451557 211.261329 
L 384.729602 211.453673 
L 385.007648 211.190737 
L 385.285693 210.510453 
L 385.841783 208.056947 
L 386.397873 204.418083 
L 387.232008 197.434705 
L 390.568549 166.972453 
L 391.680729 159.402125 
L 392.79291 153.355695 
L 394.46118 145.832077 
L 396.12945 138.067267 
L 397.797721 128.937999 
L 399.187946 121.644956 
L 399.744036 119.489779 
L 400.300127 118.117472 
L 400.578172 117.794246 
L 400.856217 117.744872 
L 401.134262 117.988833 
L 401.412307 118.540602 
L 401.968397 120.596996 
L 402.524487 123.908797 
L 403.358622 130.958054 
L 404.470803 142.917299 
L 406.139073 160.913654 
L 406.973208 167.886028 
L 407.807344 173.023842 
L 408.641479 176.580375 
L 409.475614 179.076842 
L 410.587794 181.534026 
L 411.42193 182.838458 
L 411.97802 183.270699 
L 412.256065 183.289061 
L 412.53411 183.141552 
L 412.812155 182.803013 
L 413.368245 181.460491 
L 413.924335 179.109886 
L 414.480425 175.668745 
L 415.314561 168.484122 
L 416.148696 159.201826 
L 419.485237 118.876968 
L 420.041327 115.641768 
L 420.319372 114.874913 
L 420.597417 114.762744 
L 420.875462 115.365323 
L 421.153507 116.735668 
L 421.709597 121.942356 
L 422.265688 130.58216 
L 422.821778 142.617937 
L 423.655913 166.315139 
L 425.046138 215.25769 
L 426.436364 264.1642 
L 426.436364 264.1642 
" clip-path="url(#pd32702f57c)" style="fill: none; stroke-dasharray: 11.1,4.8; stroke-dashoffset: 0; stroke: #000000; stroke-width: 3"/>
   </g>
   <g id="line2d_2">
    <path d="M 27.163636 233.309095 
L 28.275817 224.997317 
L 28.553862 224.830167 
L 28.831907 223.903662 
L 29.387997 223.442651 
L 30.222132 220.931555 
L 30.778222 219.413193 
L 31.056267 219.881282 
L 31.334312 218.381773 
L 31.612358 214.848401 
L 31.890403 209.218268 
L 33.002583 198.833662 
L 33.280628 197.728898 
L 33.836718 194.540058 
L 34.948898 189.010075 
L 35.226944 186.323629 
L 36.061079 171.458506 
L 36.339124 168.035412 
L 37.173259 167.281837 
L 38.007394 166.871918 
L 39.39762 166.637383 
L 40.231755 166.724673 
L 41.06589 167.034057 
L 41.900025 167.563924 
L 42.17807 167.790084 
L 42.456115 168.191383 
L 45.514611 177.67149 
L 47.460927 183.652742 
L 49.407242 188.895628 
L 51.353558 193.522865 
L 52.743783 196.231351 
L 53.577918 197.920507 
L 55.802279 202.931206 
L 59.13882 211.327855 
L 61.085135 216.224528 
L 63.031451 220.508811 
L 64.699721 223.677782 
L 66.367992 226.358025 
L 67.758217 228.203187 
L 69.148443 229.679253 
L 71.650848 231.785056 
L 72.484984 232.25791 
L 73.319119 232.495213 
L 73.597164 232.520128 
L 76.65566 234.081556 
L 78.045885 234.480262 
L 79.158065 234.548453 
L 79.992201 234.406499 
L 80.826336 234.061968 
L 81.660471 233.47733 
L 82.494606 232.611202 
L 83.328741 231.421742 
L 84.162877 229.86501 
L 86.109192 225.404923 
L 87.221372 222.061934 
L 88.611598 217.020678 
L 90.279868 210.075391 
L 92.782274 198.574738 
L 96.118815 183.260484 
L 97.787085 176.370948 
L 98.899266 172.748781 
L 99.733401 170.784862 
L 100.289491 169.914879 
L 100.845581 169.447106 
L 101.123626 169.37909 
L 101.401671 169.42948 
L 101.957761 169.904367 
L 102.513852 170.914692 
L 102.791897 171.429947 
L 103.347987 170.005217 
L 104.460167 167.248057 
L 105.572347 165.173617 
L 106.406483 163.954968 
L 107.240618 163.066588 
L 108.074753 162.471788 
L 108.908888 162.135001 
L 109.743024 162.02539 
L 110.577159 162.109911 
L 111.411294 162.217735 
L 112.245429 161.324554 
L 113.35761 159.747462 
L 114.46979 157.788835 
L 115.860015 154.915651 
L 118.084376 149.724908 
L 118.918511 147.730818 
L 119.196556 147.401145 
L 119.474601 147.417965 
L 119.752646 147.733692 
L 120.030691 148.314404 
L 120.586781 150.241073 
L 121.142872 153.051462 
L 121.977007 158.562979 
L 123.089187 167.587437 
L 124.201367 176.351675 
L 125.035503 181.482077 
L 125.313548 182.730792 
L 125.591593 182.486761 
L 126.425728 180.228701 
L 127.537908 177.945412 
L 128.650089 176.253348 
L 130.040314 174.630456 
L 132.264675 172.302593 
L 133.09881 169.893258 
L 133.6549 169.000148 
L 134.21099 168.656668 
L 134.76708 168.791999 
L 135.32317 169.32877 
L 135.879261 170.203729 
L 136.713396 172.001094 
L 137.825576 174.996748 
L 140.049937 181.343557 
L 140.327982 181.88292 
L 141.996252 182.643047 
L 146.723018 184.290748 
L 150.61565 185.413628 
L 151.449785 185.739903 
L 152.561965 186.309262 
L 153.674145 186.658208 
L 154.786326 186.790386 
L 155.898506 186.711121 
L 157.010686 186.421536 
L 158.400912 185.798387 
L 159.791137 184.888667 
L 161.181362 183.694407 
L 162.571588 182.220022 
L 164.239858 180.088569 
L 164.517903 179.740148 
L 165.908129 180.013194 
L 167.854444 180.116392 
L 170.35685 180.275062 
L 171.747075 180.593276 
L 172.859256 181.05348 
L 173.971436 181.742928 
L 175.361661 182.91371 
L 176.751887 184.373868 
L 178.142112 186.162647 
L 179.810382 188.742285 
L 182.034743 192.33288 
L 183.424968 193.602374 
L 184.815194 194.602468 
L 186.205419 195.374789 
L 187.87369 196.048118 
L 190.376095 196.73739 
L 192.322411 197.062263 
L 194.546771 197.188203 
L 197.049177 197.07684 
L 199.829628 196.692081 
L 202.888124 196.019138 
L 206.780755 194.89773 
L 211.785566 193.428147 
L 216.234287 192.460292 
L 222.907369 190.750742 
L 230.692631 188.803363 
L 234.585262 188.062684 
L 237.921803 187.647894 
L 240.424209 187.516137 
L 241.536389 187.685354 
L 247.653381 188.966202 
L 253.214282 190.991619 
L 256.828868 192.085975 
L 259.887364 192.795151 
L 262.667815 193.218491 
L 265.17022 193.384274 
L 267.672626 193.335531 
L 270.175032 193.056353 
L 271.565257 192.931604 
L 272.955482 192.980803 
L 281.296835 194.879298 
L 284.633376 195.407799 
L 287.413826 195.63501 
L 289.916232 195.62681 
L 292.140593 195.415928 
L 293.808863 195.080999 
L 295.755179 194.372523 
L 297.701494 193.421278 
L 299.64781 192.200106 
L 300.481945 191.678123 
L 301.594125 191.416992 
L 306.320891 190.312684 
L 317.720739 187.533693 
L 321.335325 186.958937 
L 324.393821 186.6806 
L 327.174272 186.63063 
L 328.286452 186.758218 
L 335.237579 189.459136 
L 338.57412 191.025259 
L 341.354571 192.591488 
L 343.856976 194.265611 
L 346.359382 196.23391 
L 348.861788 198.518916 
L 350.808103 200.560627 
L 353.032464 203.229938 
L 355.53487 206.402308 
L 356.64705 206.554425 
L 358.037275 206.553724 
L 359.427501 206.361169 
L 360.817726 205.977917 
L 362.207951 205.405333 
L 363.876222 204.471259 
L 365.544492 203.269465 
L 366.934718 202.029755 
L 368.602988 200.263963 
L 371.105394 197.193389 
L 373.051709 194.391516 
L 374.998025 191.190797 
L 376.94434 187.576654 
L 379.168701 182.920228 
L 381.393062 177.670123 
L 382.783287 174.074132 
L 383.061332 173.068222 
L 385.007648 163.450541 
L 386.953963 154.995442 
L 388.622233 148.791569 
L 390.290504 143.38269 
L 391.958774 138.743189 
L 393.627045 134.847941 
L 395.01727 132.150106 
L 396.407496 129.939388 
L 397.519676 128.500186 
L 398.909901 127.1126 
L 400.022082 126.313962 
L 401.134262 125.763526 
L 401.968397 125.527274 
L 402.802532 125.456104 
L 403.636668 125.562806 
L 404.748848 125.97672 
L 405.861028 126.665116 
L 406.973208 127.621863 
L 408.085389 128.833574 
L 409.475614 130.42223 
L 415.592606 135.598536 
L 426.158319 144.543134 
L 426.436364 144.758081 
L 426.436364 144.758081 
" clip-path="url(#pd32702f57c)" style="fill: none; stroke: #ff00ff; stroke-width: 3; stroke-linecap: square"/>
   </g>
   <g id="patch_3">
    <path d="M 7.2 331.2 
L 7.2 7.2 
" style="fill: none; stroke: #000000; stroke-width: 0.8; stroke-linejoin: miter; stroke-linecap: square"/>
   </g>
   <g id="patch_4">
    <path d="M 446.4 331.2 
L 446.4 7.2 
" style="fill: none; stroke: #000000; stroke-width: 0.8; stroke-linejoin: miter; stroke-linecap: square"/>
   </g>
   <g id="patch_5">
    <path d="M 7.2 331.2 
L 446.4 331.2 
" style="fill: none; stroke: #000000; stroke-width: 0.8; stroke-linejoin: miter; stroke-linecap: square"/>
   </g>
   <g id="patch_6">
    <path d="M 7.2 7.2 
L 446.4 7.2 
" style="fill: none; stroke: #000000; stroke-width: 0.8; stroke-linejoin: miter; stroke-linecap: square"/>
   </g>
  </g>
 </g>
 <defs>
  <clipPath id="pd32702f57c">
   <rect x="7.2" y="7.2" width="439.2" height="324"/>
  </clipPath>
 </defs>
</svg>
