<?xml version="1.0" encoding="utf-8" standalone="no"?>
<!DOCTYPE svg PUBLIC "-//W3C//DTD SVG 1.1//EN"
  "http://www.w3.org/Graphics/SVG/1.1/DTD/svg11.dtd">
<svg xmlns:xlink="http://www.w3.org/1999/xlink" width="453.6pt" height="338.4pt" viewBox="0 0 453.6 338.4" xmlns="http://www.w3.org/2000/svg" version="1.1">
 <metadata>
  <rdf:RDF xmlns:dc="http://purl.org/dc/elements/1.1/" xmlns:cc="http://creativecommons.org/ns#" xmlns:rdf="http://www.w3.org/1999/02/22-rdf-syntax-ns#">
   <cc:Work>
    <dc:type rdf:resource="http://purl.org/dc/dcmitype/StillImage"/>
    <dc:date>2025-05-15T17:50:44.926877</dc:date>
    <dc:format>image/svg+xml</dc:format>
    <dc:creator>
     <cc:Agent>
      <dc:title>Matplotlib v3.10.1, https://matplotlib.org/</dc:title>
     </cc:Agent>
    </dc:creator>
   </cc:Work>
  </rdf:RDF>
 </metadata>
 <defs>
  <style type="text/css">*{stroke-linejoin: round; stroke-linecap: butt}</style>
 </defs>
 <g id="figure_1">
  <g id="patch_1">
   <path d="M 0 338.4 
L 453.6 338.4 
L 453.6 0 
L 0 0 
z
" style="fill: #ffffff"/>
  </g>
  <g id="axes_1">
   <g id="patch_2">
    <path d="M 7.2 331.2 
L 446.4 331.2 
L 446.4 7.2 
L 7.2 7.2 
z
" style="fill: #ffffff"/>
   </g>
   <g id="matplotlib.axis_1"/>
   <g id="matplotlib.axis_2"/>
   <g id="line2d_1">
    <path d="M 27.163636 96.389409 
L 27.997772 89.817161 
L 30.222132 70.81542 
L 30.778222 67.919333 
L 31.334312 66.270657 
L 31.612358 65.90652 
L 31.890403 65.81944 
L 32.168448 65.971742 
L 32.724538 66.793585 
L 33.836718 68.758642 
L 34.114763 68.937442 
L 34.392808 68.876761 
L 34.670853 68.533732 
L 34.948898 67.877066 
L 35.504989 65.56389 
L 36.061079 61.955346 
L 36.895214 54.658116 
L 38.563484 38.999238 
L 39.119575 35.330512 
L 39.675665 33.110004 
L 39.95371 32.616919 
L 40.231755 32.557086 
L 40.5098 32.936993 
L 40.787845 33.755342 
L 41.343935 36.669444 
L 41.900025 41.17159 
L 42.734161 50.472751 
L 43.846341 66.422461 
L 45.514611 94.443814 
L 48.295062 141.693914 
L 49.407242 157.742231 
L 50.519423 170.472037 
L 51.353558 177.342352 
L 51.909648 180.599633 
L 52.465738 182.865801 
L 53.021828 184.261971 
L 53.577918 184.949077 
L 54.134009 185.106519 
L 54.690099 184.909405 
L 55.524234 184.26726 
L 58.304685 181.630068 
L 59.416865 180.226013 
L 60.251 178.850952 
L 61.363181 176.523304 
L 62.753406 172.92005 
L 64.143631 169.356719 
L 64.699721 168.405778 
L 64.977767 168.132113 
L 65.255812 168.030412 
L 65.533857 168.12857 
L 65.811902 168.451688 
L 66.089947 169.022522 
L 66.646037 170.969515 
L 67.202127 174.025588 
L 68.036262 180.469687 
L 70.260623 199.694192 
L 70.816713 202.115857 
L 71.094758 202.640481 
L 71.372803 202.664085 
L 71.650848 202.172745 
L 71.928893 201.16806 
L 72.484984 197.705631 
L 73.041074 192.6079 
L 75.543479 166.260423 
L 76.09957 163.410796 
L 76.377615 162.671142 
L 76.65566 162.38091 
L 76.933705 162.512652 
L 77.21175 163.022755 
L 77.76784 164.93272 
L 79.43611 171.967014 
L 79.714155 172.457505 
L 79.992201 172.569935 
L 80.270246 172.259891 
L 80.548291 171.497382 
L 81.104381 168.562522 
L 81.660471 163.795294 
L 82.494606 153.712611 
L 83.606787 136.747387 
L 85.831147 102.022743 
L 86.665282 91.635056 
L 87.499418 83.853124 
L 88.055508 80.468892 
L 88.611598 78.745762 
L 88.889643 78.5474 
L 89.167688 78.801253 
L 89.445733 79.505875 
L 90.001823 82.221016 
L 90.557913 86.513771 
L 91.392049 95.211962 
L 94.172499 127.468732 
L 97.230995 157.314118 
L 98.343175 173.296863 
L 101.123626 217.446178 
L 101.679716 223.177021 
L 102.235807 226.95139 
L 102.513852 228.065212 
L 102.791897 228.666236 
L 103.069942 228.769834 
L 103.347987 228.402502 
L 103.626032 227.598375 
L 104.182122 224.857235 
L 105.016257 218.683807 
L 107.796708 195.485972 
L 108.630843 190.573628 
L 109.464978 187.06963 
L 110.021069 185.628249 
L 110.299114 185.215456 
L 110.577159 185.030767 
L 110.855204 185.09075 
L 111.133249 185.412022 
L 111.411294 186.009004 
L 111.967384 188.064684 
L 112.523474 191.267471 
L 113.35761 197.927148 
L 115.303925 215.531971 
L 115.860015 218.743391 
L 116.13806 219.733255 
L 116.416105 220.256133 
L 116.69415 220.285176 
L 116.972195 219.806462 
L 117.250241 218.821338 
L 117.806331 215.404969 
L 118.362421 210.317568 
L 119.474601 197.114936 
L 120.586781 183.952626 
L 121.420917 176.760939 
L 121.977007 173.869144 
L 122.255052 173.029985 
L 122.533097 172.582161 
L 122.811142 172.501319 
L 123.089187 172.752478 
L 123.645277 174.068604 
L 124.479413 177.24105 
L 125.313548 180.409005 
L 125.869638 181.786861 
L 126.147683 182.126597 
L 126.425728 182.192568 
L 126.703773 181.963316 
L 126.981818 181.424569 
L 127.537908 179.392044 
L 128.093998 176.094193 
L 128.650089 171.589203 
L 129.484224 162.760917 
L 130.596404 147.642531 
L 131.98663 124.899656 
L 133.6549 97.906043 
L 134.489035 88.296784 
L 135.045125 84.558295 
L 135.32317 83.649822 
L 135.601215 83.429103 
L 135.879261 83.915402 
L 136.157306 85.113559 
L 136.713396 89.583818 
L 137.269486 96.558528 
L 138.103621 110.510994 
L 140.049937 145.015519 
L 140.606027 151.511665 
L 141.162117 155.32396 
L 141.440162 156.129235 
L 141.718207 156.186773 
L 141.996252 155.508699 
L 142.274297 154.125304 
L 142.830387 149.442761 
L 143.664523 138.727316 
L 145.888883 105.920022 
L 146.444973 100.22945 
L 147.001064 96.291201 
L 147.557154 94.191856 
L 147.835199 93.825223 
L 148.113244 93.899179 
L 148.391289 94.399301 
L 148.669334 95.307974 
L 149.225424 98.279862 
L 149.781514 102.667432 
L 150.61565 111.56114 
L 151.72783 126.648686 
L 153.3961 150.292 
L 153.95219 156.314473 
L 154.508281 160.438259 
L 154.786326 161.640208 
L 155.064371 162.212539 
L 155.342416 162.1301 
L 155.620461 161.384958 
L 155.898506 159.984896 
L 156.454596 155.341077 
L 157.010686 148.597015 
L 158.122867 131.36636 
L 159.513092 110.199503 
L 160.347227 100.811661 
L 161.181362 94.414671 
L 162.015498 90.295077 
L 162.849633 87.388411 
L 164.239858 83.426309 
L 164.795948 82.21383 
L 165.352038 81.518839 
L 165.630084 81.450872 
L 165.908129 81.613155 
L 166.186174 82.033283 
L 166.742264 83.728318 
L 167.298354 86.623756 
L 167.854444 90.678327 
L 168.688579 98.548138 
L 172.02512 133.203068 
L 172.859256 138.53065 
L 173.415346 140.738483 
L 173.693391 141.381525 
L 173.971436 141.690471 
L 174.249481 141.64511 
L 174.527526 141.226279 
L 174.805571 140.416412 
L 175.361661 137.571176 
L 175.917751 133.052812 
L 176.751887 123.289655 
L 177.864067 106.131059 
L 179.254292 83.95253 
L 180.088427 74.305695 
L 180.644518 70.680434 
L 180.922563 69.864729 
L 181.200608 69.750303 
L 181.478653 70.345439 
L 181.756698 71.641654 
L 182.312788 76.223594 
L 182.868878 83.119908 
L 183.703013 96.482727 
L 185.371284 124.602787 
L 186.205419 134.464302 
L 186.761509 138.328895 
L 187.039554 139.364919 
L 187.317599 139.795626 
L 187.595644 139.631048 
L 187.87369 138.892293 
L 188.42978 135.826438 
L 188.98587 130.952719 
L 189.820005 121.274745 
L 191.766321 96.879301 
L 192.600456 89.55173 
L 193.156546 86.612279 
L 193.434591 85.812493 
L 193.712636 85.485632 
L 193.990681 85.64512 
L 194.268726 86.299939 
L 194.546771 87.454332 
L 195.102861 91.255299 
L 195.658952 96.992729 
L 196.493087 108.938818 
L 197.605267 129.912653 
L 201.219853 205.006853 
L 202.053988 216.479768 
L 202.610079 222.008805 
L 203.166169 225.800441 
L 203.722259 227.926633 
L 204.000304 228.414429 
L 204.278349 228.556202 
L 204.556394 228.387681 
L 204.834439 227.949139 
L 205.390529 226.445379 
L 207.336845 219.91001 
L 207.892935 219.168559 
L 208.17098 219.126292 
L 208.449025 219.307588 
L 209.005115 220.289967 
L 209.561205 221.912394 
L 210.951431 226.293576 
L 211.229476 226.772939 
L 211.507521 226.993058 
L 211.785566 226.909023 
L 212.063611 226.484702 
L 212.341656 225.692502 
L 212.897746 222.946072 
L 213.453836 218.654066 
L 214.287972 209.650472 
L 215.400152 194.427941 
L 217.346467 167.384974 
L 218.180603 158.725758 
L 218.736693 154.64414 
L 219.292783 152.147572 
L 219.570828 151.532475 
L 219.848873 151.347985 
L 220.126918 151.59121 
L 220.404963 152.251668 
L 220.961053 154.738206 
L 221.517144 158.548504 
L 222.629324 168.476689 
L 223.741504 177.954755 
L 224.297594 181.206296 
L 224.853684 182.928977 
L 225.13173 183.142011 
L 225.409775 182.904625 
L 225.68782 182.21702 
L 226.24391 179.546292 
L 226.8 175.337373 
L 227.634135 166.909903 
L 229.858496 142.692112 
L 230.692631 136.661954 
L 231.248721 134.105104 
L 231.804811 132.682886 
L 232.082856 132.351633 
L 232.360901 132.237407 
L 232.638947 132.306721 
L 233.195037 132.84931 
L 234.585262 134.724892 
L 234.863307 134.893064 
L 235.141352 134.919961 
L 235.419397 134.781781 
L 235.697442 134.459462 
L 236.253533 133.208358 
L 236.809623 131.098933 
L 237.365713 128.127045 
L 238.199848 122.176282 
L 239.312028 112.047888 
L 242.648569 79.453228 
L 243.482704 73.741498 
L 244.31684 69.657335 
L 244.87293 67.831555 
L 245.42902 66.660246 
L 245.98511 66.055877 
L 246.5412 65.912707 
L 247.09729 66.121599 
L 247.653381 66.583695 
L 248.487516 67.601505 
L 249.321651 68.949519 
L 250.155786 70.766715 
L 250.989921 73.376262 
L 251.824057 77.150731 
L 252.658192 82.322018 
L 253.770372 91.16787 
L 255.716688 107.573139 
L 256.550823 112.566474 
L 257.106913 114.673404 
L 257.663003 115.71357 
L 257.941048 115.839274 
L 258.219093 115.715516 
L 258.497139 115.357616 
L 259.053229 114.014343 
L 259.609319 111.972536 
L 260.443454 107.946808 
L 261.555634 101.388982 
L 262.94586 91.904879 
L 266.282401 68.030017 
L 267.116536 63.648635 
L 267.950671 60.449391 
L 268.506761 59.00796 
L 269.062851 58.124338 
L 269.618942 57.805511 
L 269.896987 57.863398 
L 270.175032 58.069495 
L 270.731122 58.944734 
L 271.287212 60.46007 
L 271.843302 62.62843 
L 272.677437 67.033466 
L 274.067663 76.345705 
L 275.179843 83.190121 
L 275.735933 85.42006 
L 276.013978 86.073333 
L 276.292023 86.363665 
L 276.570068 86.256973 
L 276.848113 85.726161 
L 277.126159 84.752166 
L 277.682249 81.44698 
L 278.238339 76.392913 
L 279.072474 66.084172 
L 281.296835 35.160495 
L 281.852925 30.176391 
L 282.409015 27.425072 
L 282.68706 26.988026 
L 282.965105 27.203605 
L 283.24315 28.074202 
L 283.521195 29.587193 
L 284.077285 34.424783 
L 284.633376 41.361319 
L 285.467511 54.563002 
L 287.969916 96.527289 
L 289.082097 110.375359 
L 290.472322 124.177668 
L 292.418638 143.487207 
L 294.086908 160.634725 
L 294.921043 167.046836 
L 295.477133 169.666313 
L 295.755179 170.361154 
L 296.033224 170.606624 
L 296.311269 170.382912 
L 296.589314 169.677741 
L 297.145404 166.816636 
L 297.701494 162.091426 
L 298.535629 151.951355 
L 299.64781 134.435458 
L 301.87217 97.412908 
L 302.706305 86.36122 
L 303.540441 77.93869 
L 304.096531 73.862362 
L 304.652621 70.945366 
L 305.208711 69.031958 
L 305.764801 67.890789 
L 306.320891 67.23083 
L 307.155027 66.415674 
L 307.711117 65.495773 
L 308.267207 63.921252 
L 308.823297 61.46765 
L 309.379387 58.014453 
L 310.213522 51.016937 
L 312.993973 24.47504 
L 313.550063 22.252187 
L 313.828108 21.927273 
L 314.106153 22.179629 
L 314.384199 23.036304 
L 314.662244 24.510371 
L 315.218334 29.296512 
L 315.774424 36.369081 
L 316.608559 50.373944 
L 319.110965 95.920825 
L 319.667055 102.468471 
L 320.223145 106.794262 
L 320.50119 108.100557 
L 320.779235 108.850441 
L 321.05728 109.07096 
L 321.335325 108.79994 
L 321.61337 108.084738 
L 322.169461 105.548348 
L 323.003596 99.93782 
L 324.393821 89.975502 
L 325.227956 85.760345 
L 325.784047 84.108724 
L 326.062092 83.644233 
L 326.340137 83.412236 
L 326.618182 83.398264 
L 326.896227 83.584799 
L 327.452317 84.46872 
L 328.286452 86.676703 
L 329.954723 91.519283 
L 330.510813 92.54837 
L 331.066903 93.069102 
L 331.344948 93.122498 
L 331.622993 93.038412 
L 332.179083 92.485793 
L 332.735173 91.51534 
L 334.403444 88.075417 
L 334.959534 87.573299 
L 335.237579 87.575146 
L 335.515624 87.774406 
L 335.793669 88.186301 
L 336.349759 89.678582 
L 336.90585 92.050444 
L 337.739985 97.021872 
L 339.13021 107.451826 
L 343.300886 140.655994 
L 346.081337 166.869383 
L 346.637427 169.490806 
L 346.915472 170.110145 
L 347.193517 170.216837 
L 347.471562 169.786628 
L 347.749607 168.808391 
L 348.305698 165.233282 
L 348.861788 159.683685 
L 349.695923 148.579 
L 351.642239 120.325351 
L 352.476374 111.720079 
L 353.032464 107.877593 
L 353.588554 105.498196 
L 354.144644 104.3458 
L 354.422689 104.122586 
L 354.700734 104.067644 
L 355.256825 104.251684 
L 355.812915 104.483032 
L 356.09096 104.497154 
L 356.369005 104.389015 
L 356.64705 104.123036 
L 357.20314 103.006968 
L 357.75923 100.98103 
L 358.31532 97.961485 
L 359.149456 91.564594 
L 359.983591 83.154291 
L 361.373816 66.244658 
L 362.764042 49.78784 
L 363.598177 42.795813 
L 364.154267 40.247297 
L 364.432312 39.746377 
L 364.710357 39.807358 
L 364.988402 40.454442 
L 365.266447 41.701653 
L 365.822537 45.995257 
L 366.378628 52.572195 
L 367.212763 66.017552 
L 368.881033 99.117973 
L 369.993213 119.11911 
L 370.827349 130.381137 
L 371.383439 135.814611 
L 371.939529 139.723118 
L 372.495619 142.415852 
L 373.329754 145.128198 
L 374.16389 147.673621 
L 374.71998 149.95965 
L 375.27607 153.014027 
L 376.110205 159.130616 
L 378.890656 182.674625 
L 379.446746 185.430536 
L 380.002836 187.099572 
L 380.280881 187.554831 
L 380.558926 187.792616 
L 380.836971 187.851451 
L 381.393062 187.621451 
L 381.949152 187.299082 
L 382.227197 187.253022 
L 382.505242 187.365003 
L 382.783287 187.69351 
L 383.061332 188.292938 
L 383.617422 190.497726 
L 384.173512 194.295699 
L 384.729602 199.877983 
L 385.563738 211.673516 
L 386.397873 227.165521 
L 387.788098 258.169741 
L 389.178324 288.905137 
L 390.012459 303.514567 
L 390.568549 310.552904 
L 391.124639 314.956892 
L 391.402684 316.085335 
L 391.680729 316.472727 
L 391.958774 316.113879 
L 392.236819 315.015527 
L 392.79291 310.689038 
L 393.349 303.790977 
L 394.183135 289.704174 
L 396.963586 237.712346 
L 397.797721 227.967802 
L 398.353811 223.617659 
L 398.909901 220.738589 
L 399.465991 218.974838 
L 400.022082 217.925241 
L 401.134262 216.607368 
L 402.524487 215.111044 
L 403.080577 214.904498 
L 403.358622 215.010141 
L 403.636668 215.297929 
L 403.914713 215.794458 
L 404.470803 217.482157 
L 405.026893 220.109619 
L 405.861028 225.450275 
L 407.251253 234.713311 
L 407.807344 237.010619 
L 408.085389 237.608549 
L 408.363434 237.777719 
L 408.641479 237.485939 
L 408.919524 236.71315 
L 409.475614 233.708726 
L 410.031704 228.857862 
L 410.865839 218.74908 
L 412.53411 193.680802 
L 413.924335 174.067856 
L 415.036516 161.058995 
L 416.982831 141.678195 
L 421.153507 101.772832 
L 421.709597 98.246527 
L 422.265688 95.842479 
L 422.543733 95.139553 
L 422.821778 94.806954 
L 423.099823 94.869731 
L 423.377868 95.348245 
L 423.655913 96.257118 
L 424.212003 99.387895 
L 424.768093 104.219347 
L 425.602228 114.170088 
L 426.436364 126.095218 
L 426.436364 126.095218 
" clip-path="url(#p485a970121)" style="fill: none; stroke-dasharray: 11.1,4.8; stroke-dashoffset: 0; stroke: #000000; stroke-width: 3"/>
   </g>
   <g id="line2d_2">
    <path d="M 27.163636 131.093644 
L 27.441681 133.12557 
L 27.997772 123.998219 
L 28.553862 118.24966 
L 29.109952 114.955053 
L 30.222132 110.655012 
L 30.500177 111.595373 
L 30.778222 113.600153 
L 31.056267 117.046613 
L 31.334312 122.380083 
L 31.890403 140.733792 
L 32.446493 170.561163 
L 34.114763 198.077654 
L 34.392808 198.556567 
L 35.226944 190.059134 
L 35.504989 188.700291 
L 35.783034 188.879241 
L 36.061079 189.416591 
L 36.339124 188.684123 
L 37.173259 183.860606 
L 37.729349 180.939418 
L 38.007394 180.004546 
L 38.285439 179.591254 
L 38.563484 179.640458 
L 39.675665 170.875748 
L 40.231755 168.254075 
L 40.787845 166.798471 
L 41.06589 166.800068 
L 41.343935 167.443161 
L 42.17807 154.289533 
L 42.734161 148.946831 
L 43.290251 145.902784 
L 43.568296 145.094714 
L 43.846341 144.688408 
L 44.402431 144.53421 
L 45.236566 138.833708 
L 45.792656 136.532308 
L 46.348747 135.343583 
L 46.626792 135.089679 
L 46.904837 135.025255 
L 47.182882 135.120169 
L 48.017017 135.919906 
L 48.573107 137.13468 
L 49.963332 140.764132 
L 50.241378 141.086153 
L 50.519423 141.198383 
L 50.797468 141.039145 
L 51.631603 144.239985 
L 52.465738 147.097547 
L 53.021828 148.301094 
L 53.577918 148.543919 
L 54.134009 148.480792 
L 54.690099 148.09839 
L 54.968144 147.783805 
L 55.246189 147.860256 
L 56.358369 148.989098 
L 57.47055 149.730848 
L 58.58273 150.150477 
L 59.69491 150.307969 
L 60.80709 150.259214 
L 62.197316 150.08236 
L 62.753406 150.915781 
L 63.865586 151.586419 
L 64.977767 152.276819 
L 65.811902 153.056195 
L 66.646037 154.247964 
L 67.480172 156.032525 
L 68.314307 158.603098 
L 69.148443 162.175562 
L 69.704533 165.233581 
L 69.982578 162.621789 
L 70.816713 152.616654 
L 71.650848 145.32696 
L 72.484984 139.752511 
L 73.319119 135.511504 
L 74.153254 132.295144 
L 74.709344 130.702059 
L 75.543479 129.368617 
L 76.09957 128.810658 
L 76.933705 128.346865 
L 77.76784 128.208735 
L 78.601975 128.316973 
L 79.714155 128.706661 
L 83.050696 130.096144 
L 84.997012 130.835997 
L 86.109192 130.679653 
L 87.499418 130.725164 
L 89.167688 130.996084 
L 91.670094 131.437272 
L 93.060319 131.474349 
L 94.172499 131.319252 
L 95.28468 131.125381 
L 96.39686 131.183218 
L 97.787085 131.5249 
L 99.455356 132.190299 
L 104.182122 134.466847 
L 105.572347 134.884081 
L 107.796708 135.084639 
L 115.303925 135.965666 
L 117.528286 135.905085 
L 118.918511 135.85608 
L 123.089187 136.728025 
L 125.313548 136.962816 
L 127.259863 136.971 
L 129.206179 136.75642 
L 130.874449 136.370025 
L 132.820765 135.685863 
L 133.376855 135.489847 
L 133.932945 135.672889 
L 135.601215 136.305202 
L 137.269486 136.695938 
L 138.937756 136.867802 
L 140.606027 136.82284 
L 142.552342 136.516639 
L 144.498658 135.987673 
L 146.723018 135.142476 
L 149.225424 133.931843 
L 149.781514 133.68273 
L 151.72783 134.531271 
L 153.674145 135.159742 
L 155.620461 135.579671 
L 157.844821 135.816957 
L 160.069182 135.811068 
L 162.293543 135.595739 
L 164.795948 135.13025 
L 167.854444 134.505022 
L 172.02512 134.351423 
L 185.927374 133.62165 
L 188.151735 133.628287 
L 192.322411 132.61941 
L 198.717447 131.359773 
L 210.673386 129.03472 
L 216.234287 127.748086 
L 219.570828 127.27556 
L 222.907369 127.015369 
L 226.521955 126.949997 
L 230.414586 127.104594 
L 239.590073 127.646934 
L 246.819245 127.956678 
L 252.102102 128.397167 
L 256.550823 128.992902 
L 260.165409 129.513933 
L 268.506761 128.739447 
L 277.404204 127.942256 
L 281.852925 127.767747 
L 287.135781 127.620286 
L 289.638187 127.247465 
L 292.418638 126.597087 
L 294.921043 126.078351 
L 297.701494 125.754035 
L 300.481945 125.657823 
L 303.540441 125.783428 
L 304.652621 125.953296 
L 307.711117 126.63102 
L 310.213522 126.976096 
L 312.437883 127.061329 
L 314.662244 126.894006 
L 316.608559 126.514947 
L 317.998785 126.243977 
L 319.667055 126.246522 
L 321.335325 126.486054 
L 323.003596 126.940964 
L 325.227956 127.636604 
L 332.457128 128.624821 
L 334.125399 128.484546 
L 335.515624 128.148603 
L 336.90585 127.574725 
L 338.296075 126.723689 
L 339.964345 125.563708 
L 341.354571 124.896512 
L 343.022841 124.372038 
L 343.856976 124.219786 
L 344.413067 124.32982 
L 345.803292 124.900754 
L 347.193517 125.680828 
L 349.139833 127.047556 
L 352.198329 129.169955 
L 354.144644 130.260623 
L 355.812915 130.937748 
L 357.20314 131.275588 
L 358.593365 131.36671 
L 359.427501 131.28447 
L 359.983591 130.95746 
L 361.929906 129.047994 
L 362.764042 128.401159 
L 363.876222 127.886565 
L 364.988402 127.592989 
L 365.822537 127.547328 
L 366.656673 127.68955 
L 367.490808 128.026092 
L 368.602988 128.750775 
L 369.715168 129.733952 
L 371.105394 131.328285 
L 372.495619 133.298382 
L 374.16389 136.114525 
L 375.83216 139.396257 
L 377.50043 143.135395 
L 379.168701 147.345961 
L 381.671107 154.339735 
L 381.949152 155.171209 
L 382.227197 155.502012 
L 383.617422 152.350026 
L 385.285693 148.259675 
L 386.953963 144.785019 
L 388.344188 142.385063 
L 389.734414 140.433429 
L 390.846594 139.194951 
L 391.958774 138.288025 
L 393.070955 137.624223 
L 394.183135 137.193315 
L 395.295315 136.963565 
L 396.407496 136.909171 
L 397.797721 137.039466 
L 399.465991 137.401408 
L 401.134262 137.922789 
L 402.246442 138.66364 
L 403.358622 139.729606 
L 404.470803 141.168342 
L 405.582983 143.032397 
L 406.973208 145.895747 
L 408.363434 149.324043 
L 409.753659 153.088631 
L 410.031704 153.259098 
L 410.587794 152.442196 
L 412.53411 149.265807 
L 414.20238 146.905672 
L 415.870651 144.921602 
L 417.260876 143.572391 
L 418.095011 142.818315 
L 422.821778 135.868506 
L 424.212003 134.321382 
L 425.324183 133.375232 
L 426.436364 132.700401 
L 426.436364 132.700401 
" clip-path="url(#p485a970121)" style="fill: none; stroke: #ff00ff; stroke-width: 3; stroke-linecap: square"/>
   </g>
   <g id="patch_3">
    <path d="M 7.2 331.2 
L 7.2 7.2 
" style="fill: none; stroke: #000000; stroke-width: 0.8; stroke-linejoin: miter; stroke-linecap: square"/>
   </g>
   <g id="patch_4">
    <path d="M 446.4 331.2 
L 446.4 7.2 
" style="fill: none; stroke: #000000; stroke-width: 0.8; stroke-linejoin: miter; stroke-linecap: square"/>
   </g>
   <g id="patch_5">
    <path d="M 7.2 331.2 
L 446.4 331.2 
" style="fill: none; stroke: #000000; stroke-width: 0.8; stroke-linejoin: miter; stroke-linecap: square"/>
   </g>
   <g id="patch_6">
    <path d="M 7.2 7.2 
L 446.4 7.2 
" style="fill: none; stroke: #000000; stroke-width: 0.8; stroke-linejoin: miter; stroke-linecap: square"/>
   </g>
  </g>
 </g>
 <defs>
  <clipPath id="p485a970121">
   <rect x="7.2" y="7.2" width="439.2" height="324"/>
  </clipPath>
 </defs>
</svg>
