<?xml version="1.0" encoding="utf-8" standalone="no"?>
<!DOCTYPE svg PUBLIC "-//W3C//DTD SVG 1.1//EN"
  "http://www.w3.org/Graphics/SVG/1.1/DTD/svg11.dtd">
<svg xmlns:xlink="http://www.w3.org/1999/xlink" width="453.6pt" height="338.4pt" viewBox="0 0 453.6 338.4" xmlns="http://www.w3.org/2000/svg" version="1.1">
 <metadata>
  <rdf:RDF xmlns:dc="http://purl.org/dc/elements/1.1/" xmlns:cc="http://creativecommons.org/ns#" xmlns:rdf="http://www.w3.org/1999/02/22-rdf-syntax-ns#">
   <cc:Work>
    <dc:type rdf:resource="http://purl.org/dc/dcmitype/StillImage"/>
    <dc:date>2025-05-15T17:07:35.334002</dc:date>
    <dc:format>image/svg+xml</dc:format>
    <dc:creator>
     <cc:Agent>
      <dc:title>Matplotlib v3.10.1, https://matplotlib.org/</dc:title>
     </cc:Agent>
    </dc:creator>
   </cc:Work>
  </rdf:RDF>
 </metadata>
 <defs>
  <style type="text/css">*{stroke-linejoin: round; stroke-linecap: butt}</style>
 </defs>
 <g id="figure_1">
  <g id="patch_1">
   <path d="M 0 338.4 
L 453.6 338.4 
L 453.6 0 
L 0 0 
z
" style="fill: #ffffff"/>
  </g>
  <g id="axes_1">
   <g id="patch_2">
    <path d="M 7.2 331.2 
L 446.4 331.2 
L 446.4 7.2 
L 7.2 7.2 
z
" style="fill: #ffffff"/>
   </g>
   <g id="matplotlib.axis_1"/>
   <g id="matplotlib.axis_2"/>
   <g id="line2d_1">
    <path d="M 27.163636 204.682592 
L 27.441681 204.501956 
L 27.719727 204.667728 
L 27.997772 205.284459 
L 28.275817 206.405056 
L 28.831907 210.107712 
L 30.778222 226.322358 
L 31.056267 226.9925 
L 31.334312 226.866281 
L 31.612358 225.892813 
L 31.890403 224.061765 
L 32.446493 218.005553 
L 33.280628 204.589628 
L 34.392808 185.698196 
L 34.948898 178.912135 
L 35.504989 175.066129 
L 35.783034 174.307811 
L 36.061079 174.272541 
L 36.339124 174.871133 
L 36.895214 177.453444 
L 38.007394 183.522505 
L 38.285439 184.253866 
L 38.563484 184.400995 
L 38.84153 183.880753 
L 39.119575 182.651573 
L 39.675665 178.117287 
L 40.5098 167.361772 
L 41.62198 152.049298 
L 42.17807 147.056494 
L 42.456115 145.677665 
L 42.734161 145.122406 
L 43.012206 145.397768 
L 43.290251 146.46168 
L 43.846341 150.589095 
L 45.514611 166.987904 
L 45.792656 168.326927 
L 46.070701 168.846916 
L 46.348747 168.465994 
L 46.626792 167.140575 
L 47.182882 161.738633 
L 47.738972 153.247238 
L 49.685287 118.860176 
L 50.241378 113.378371 
L 50.519423 111.824449 
L 50.797468 111.02809 
L 51.075513 110.907918 
L 51.353558 111.33973 
L 51.909648 113.205545 
L 52.465738 115.133838 
L 52.743783 115.631154 
L 53.021828 115.581271 
L 53.299873 114.838069 
L 53.577918 113.294729 
L 54.134009 107.590467 
L 54.690099 98.521642 
L 55.802279 74.075848 
L 56.636414 56.296951 
L 57.192504 47.61963 
L 57.748595 42.58954 
L 58.02664 41.516307 
L 58.304685 41.345748 
L 58.58273 41.975832 
L 59.13882 45.038579 
L 60.251 52.990082 
L 60.529045 54.227071 
L 60.80709 54.851361 
L 61.085135 54.767215 
L 61.363181 53.92702 
L 61.641226 52.329766 
L 62.197316 47.118284 
L 64.143631 24.595997 
L 64.421676 23.459276 
L 64.699721 23.321973 
L 64.977767 24.247322 
L 65.255812 26.248424 
L 65.811902 33.275081 
L 66.646037 49.390718 
L 68.036262 77.377931 
L 68.592352 84.312633 
L 68.870398 86.392086 
L 69.148443 87.529815 
L 69.426488 87.776961 
L 69.704533 87.238077 
L 70.260623 84.416933 
L 71.372803 77.556048 
L 71.650848 76.830229 
L 71.928893 76.857942 
L 72.206938 77.754571 
L 72.484984 79.587382 
L 73.041074 86.058779 
L 73.597164 95.773307 
L 75.543479 134.718337 
L 76.09957 140.822669 
L 76.377615 142.43907 
L 76.65566 143.104424 
L 76.933705 142.890785 
L 77.21175 141.915049 
L 77.76784 138.356247 
L 78.601975 132.195986 
L 78.88002 130.811112 
L 79.158065 130.087561 
L 79.43611 130.171454 
L 79.714155 131.163566 
L 79.992201 133.111258 
L 80.548291 139.779415 
L 81.382426 155.009004 
L 82.494606 176.47922 
L 83.050696 183.58448 
L 83.328741 185.616066 
L 83.606787 186.522269 
L 83.884832 186.287215 
L 84.162877 184.957514 
L 84.718967 179.480495 
L 86.665282 154.218691 
L 86.943327 153.148984 
L 87.221372 153.270164 
L 87.499418 154.640678 
L 87.777463 157.253977 
L 88.333553 165.869071 
L 89.167688 184.537038 
L 90.279868 209.206297 
L 90.835958 216.838601 
L 91.114004 218.885806 
L 91.392049 219.677379 
L 91.670094 219.236497 
L 91.948139 217.650328 
L 92.504229 211.693125 
L 93.894454 192.195795 
L 94.172499 189.712493 
L 94.450544 188.250779 
L 94.72859 187.957026 
L 95.006635 188.917394 
L 95.28468 191.151786 
L 95.84077 199.18693 
L 96.674905 217.643526 
L 97.787085 243.326058 
L 98.343175 251.771601 
L 98.621221 254.213081 
L 98.899266 255.351818 
L 99.177311 255.17874 
L 99.455356 253.754312 
L 100.011446 247.693817 
L 101.123626 229.185575 
L 101.679716 221.19729 
L 102.235807 216.736568 
L 102.513852 216.229175 
L 102.791897 216.966079 
L 103.069942 218.934177 
L 103.626032 226.18833 
L 104.460167 242.529195 
L 105.294302 259.144162 
L 105.850393 266.871948 
L 106.128438 269.154711 
L 106.406483 270.252886 
L 106.684528 270.14783 
L 106.962573 268.887662 
L 107.518663 263.414927 
L 109.186933 240.577471 
L 109.464978 238.707374 
L 109.743024 237.990122 
L 110.021069 238.535052 
L 110.299114 240.386506 
L 110.855204 247.831624 
L 111.689339 265.9141 
L 112.801519 291.396093 
L 113.35761 299.260679 
L 113.635655 301.151687 
L 113.9137 301.520768 
L 114.191745 300.334417 
L 114.46979 297.635209 
L 115.02588 288.225771 
L 115.860015 267.667048 
L 116.69415 246.986389 
L 117.250241 237.317965 
L 117.528286 234.411164 
L 117.806331 232.95071 
L 118.084376 232.964314 
L 118.362421 234.398568 
L 118.640466 237.127756 
L 119.196556 245.627716 
L 120.586781 270.342826 
L 120.864827 273.256429 
L 121.142872 274.853179 
L 121.420917 274.96932 
L 121.698962 273.511133 
L 121.977007 270.462998 
L 122.533097 259.937246 
L 123.367232 236.22105 
L 124.479413 203.387909 
L 125.035503 192.523811 
L 125.313548 189.340641 
L 125.591593 187.804606 
L 125.869638 187.920496 
L 126.147683 189.614744 
L 126.703773 197.028118 
L 128.650089 232.155862 
L 128.928134 233.758155 
L 129.206179 233.740267 
L 129.484224 232.016543 
L 129.762269 228.584211 
L 130.318359 217.026039 
L 131.152494 191.582339 
L 132.264675 157.542188 
L 132.820765 147.013413 
L 133.09881 144.271125 
L 133.376855 143.354341 
L 133.6549 144.259032 
L 133.932945 146.89173 
L 134.489035 156.542771 
L 136.435351 200.519906 
L 136.713396 203.22516 
L 136.991441 204.23264 
L 137.269486 203.454419 
L 137.547531 200.889744 
L 138.103621 190.853749 
L 138.937756 167.2416 
L 140.049937 134.799964 
L 140.606027 124.541512 
L 140.884072 121.744303 
L 141.162117 120.619423 
L 141.440162 121.146718 
L 141.718207 123.217102 
L 142.274297 131.150717 
L 143.942568 161.45017 
L 144.220613 163.708999 
L 144.498658 164.422221 
L 144.776703 163.457066 
L 145.054748 160.762897 
L 145.610838 150.424583 
L 146.166928 134.695411 
L 147.835199 81.131982 
L 148.391289 70.293329 
L 148.669334 67.238392 
L 148.947379 65.8316 
L 149.225424 66.017526 
L 149.503469 67.660632 
L 150.059559 74.407392 
L 151.449785 96.229054 
L 151.72783 98.680108 
L 152.005875 99.837991 
L 152.28392 99.538191 
L 152.561965 97.699334 
L 152.84001 94.32419 
L 153.3961 83.401644 
L 154.230236 60.178228 
L 155.064371 36.978745 
L 155.620461 26.304353 
L 155.898506 23.246645 
L 156.176551 21.927273 
L 156.454596 22.408968 
L 156.732641 24.666034 
L 157.288731 33.986539 
L 158.122867 56.135714 
L 159.235047 86.152246 
L 159.791137 95.323607 
L 160.069182 97.688752 
L 160.347227 98.484608 
L 160.625272 97.754003 
L 160.903317 95.6224 
L 161.459407 88.041238 
L 162.849633 64.804722 
L 163.127678 62.172276 
L 163.405723 60.861973 
L 163.683768 61.034799 
L 163.961813 62.764822 
L 164.239858 66.047758 
L 164.795948 76.822419 
L 165.630084 99.971767 
L 166.742264 129.909696 
L 167.298354 138.725328 
L 167.576399 140.878598 
L 167.854444 141.454516 
L 168.132489 140.500951 
L 168.410534 138.152937 
L 168.966624 130.168179 
L 170.35685 106.116408 
L 170.634895 103.322221 
L 170.91294 101.835818 
L 171.190985 101.805586 
L 171.46903 103.302823 
L 171.747075 106.310396 
L 172.303165 116.38796 
L 173.137301 138.075594 
L 173.971436 159.760204 
L 174.527526 169.826683 
L 174.805571 172.819644 
L 175.083616 174.287909 
L 175.361661 174.207542 
L 175.639706 172.640772 
L 176.195796 165.690198 
L 178.142112 132.418443 
L 178.420157 130.780376 
L 178.698202 130.593442 
L 178.976247 131.916341 
L 179.254292 134.721109 
L 179.810382 144.278683 
L 180.644518 164.8757 
L 181.478653 185.26588 
L 182.034743 194.564215 
L 182.312788 197.2604 
L 182.590833 198.515277 
L 182.868878 198.321541 
L 183.146923 196.756786 
L 183.703013 190.182348 
L 185.371284 163.679019 
L 185.649329 161.585709 
L 185.927374 160.813283 
L 186.205419 161.471836 
L 186.483464 163.595377 
L 187.039554 171.978945 
L 187.87369 192.074615 
L 188.98587 220.539997 
L 189.54196 230.043154 
L 189.820005 232.872863 
L 190.09805 234.312155 
L 190.376095 234.371107 
L 190.65414 233.136384 
L 191.21023 227.481501 
L 192.878501 205.090219 
L 193.156546 203.652942 
L 193.434591 203.454923 
L 193.712636 204.584842 
L 193.990681 207.055295 
L 194.546771 215.714728 
L 195.380907 235.181071 
L 196.493087 261.531477 
L 197.049177 269.913029 
L 197.327222 272.259279 
L 197.605267 273.289936 
L 197.883312 273.027422 
L 198.161357 271.55941 
L 198.717447 265.670733 
L 200.385718 242.665994 
L 200.663763 240.794637 
L 200.941808 239.987445 
L 201.219853 240.312438 
L 201.497898 241.773144 
L 202.053988 247.797613 
L 202.888124 262.027281 
L 203.722259 276.657773 
L 204.278349 283.34281 
L 204.556394 285.219709 
L 204.834439 285.990372 
L 205.112484 285.635902 
L 205.390529 284.194847 
L 205.946619 278.508472 
L 207.892935 251.875901 
L 208.17098 250.369343 
L 208.449025 249.94534 
L 208.72707 250.651508 
L 209.005115 252.468699 
L 209.561205 259.084706 
L 210.395341 273.764073 
L 211.229476 288.240635 
L 211.785566 294.453046 
L 212.063611 295.963635 
L 212.341656 296.271245 
L 212.619701 295.342117 
L 212.897746 293.205223 
L 213.453836 285.699641 
L 214.287972 269.1207 
L 215.400152 247.413667 
L 215.956242 240.875004 
L 216.234287 239.193101 
L 216.512332 238.62474 
L 216.790377 239.140699 
L 217.068422 240.654563 
L 217.624513 246.089005 
L 219.292783 266.187447 
L 219.570828 267.815436 
L 219.848873 268.53672 
L 220.126918 268.29562 
L 220.404963 267.088862 
L 220.961053 262.028288 
L 221.795189 249.969022 
L 222.629324 237.515984 
L 223.185414 231.856566 
L 223.463459 230.309447 
L 223.741504 229.737811 
L 224.019549 230.167357 
L 224.297594 231.570622 
L 224.853684 236.930492 
L 225.965865 253.005568 
L 226.521955 260.183133 
L 227.078045 264.53502 
L 227.35609 265.282504 
L 227.634135 264.968848 
L 227.91218 263.5744 
L 228.46827 257.731827 
L 229.024361 248.605561 
L 230.692631 217.466165 
L 231.248721 211.322028 
L 231.526766 209.665066 
L 231.804811 208.993665 
L 232.082856 209.279105 
L 232.360901 210.442027 
L 232.916992 214.887885 
L 234.585262 231.837671 
L 234.863307 233.220278 
L 235.141352 233.823657 
L 235.419397 233.58936 
L 235.697442 232.503277 
L 236.253533 227.945561 
L 237.087668 216.774358 
L 238.199848 200.872864 
L 238.755938 195.636441 
L 239.033983 194.141472 
L 239.312028 193.473346 
L 239.590073 193.639874 
L 239.868119 194.606792 
L 240.424209 198.610004 
L 241.258344 207.764989 
L 242.092479 216.634283 
L 242.648569 220.245488 
L 242.926614 221.015646 
L 243.204659 221.018921 
L 243.482704 220.24322 
L 243.76075 218.715752 
L 244.31684 213.69977 
L 245.42902 199.420723 
L 246.263155 189.97274 
L 246.819245 186.349695 
L 247.09729 185.575757 
L 247.375336 185.518316 
L 247.653381 186.152935 
L 247.931426 187.422173 
L 248.487516 191.484085 
L 250.155786 206.372053 
L 250.711876 208.884075 
L 250.989921 209.334782 
L 251.267967 209.243835 
L 251.546012 208.646754 
L 252.102102 206.239032 
L 253.492327 198.741261 
L 253.770372 198.056507 
L 254.048417 197.911394 
L 254.326462 198.371927 
L 254.604507 199.476149 
L 255.160598 203.587692 
L 255.716688 209.860314 
L 257.384958 231.664845 
L 257.941048 235.999349 
L 258.219093 237.09702 
L 258.497139 237.421509 
L 258.775184 236.971053 
L 259.053229 235.782435 
L 259.609319 231.527794 
L 261.555634 212.289954 
L 261.833679 211.100327 
L 262.111724 210.6471 
L 262.38977 210.966047 
L 262.667815 212.047595 
L 263.223905 216.292158 
L 264.05804 226.118797 
L 264.892175 236.171923 
L 265.448265 240.71679 
L 265.72631 241.935389 
L 266.004356 242.34352 
L 266.282401 241.90818 
L 266.560446 240.640454 
L 267.116536 235.855747 
L 267.950671 224.937484 
L 268.784806 213.723704 
L 269.340896 208.484005 
L 269.618942 206.95175 
L 269.896987 206.252385 
L 270.175032 206.41463 
L 270.453077 207.422613 
L 271.009167 211.708241 
L 271.843302 221.879524 
L 272.677437 232.356904 
L 273.233527 237.161263 
L 273.511573 238.510615 
L 273.789618 239.059828 
L 274.067663 238.786985 
L 274.345708 237.714003 
L 274.901798 233.46692 
L 275.735933 223.863242 
L 276.570068 214.606728 
L 277.126159 210.90256 
L 277.404204 210.152556 
L 277.682249 210.213776 
L 277.960294 211.091006 
L 278.238339 212.7457 
L 278.794429 218.037297 
L 280.740744 241.175308 
L 281.01879 242.861494 
L 281.296835 243.785835 
L 281.57488 243.909534 
L 281.852925 243.238385 
L 282.13097 241.8195 
L 282.68706 237.117426 
L 284.35533 219.094407 
L 284.911421 216.050555 
L 285.189466 215.586495 
L 285.467511 215.863369 
L 285.745556 216.860267 
L 286.301646 220.729702 
L 287.413826 232.366982 
L 287.969916 237.530344 
L 288.526007 240.614253 
L 288.804052 241.108294 
L 289.082097 240.828144 
L 289.360142 239.766752 
L 289.916232 235.461472 
L 290.750367 225.091919 
L 291.862547 210.501483 
L 292.418638 205.753558 
L 292.696683 204.417306 
L 292.974728 203.840884 
L 293.252773 204.027063 
L 293.530818 204.941579 
L 294.086908 208.638692 
L 294.921043 216.97666 
L 295.755179 224.973258 
L 296.311269 228.23604 
L 296.589314 228.966393 
L 296.867359 229.049531 
L 297.145404 228.494271 
L 297.423449 227.346465 
L 297.979539 223.631968 
L 299.369764 212.342104 
L 299.925855 210.028102 
L 300.2039 209.772642 
L 300.481945 210.176994 
L 300.75999 211.235363 
L 301.31608 215.122686 
L 302.150215 223.844096 
L 302.98435 232.562734 
L 303.540441 236.396395 
L 303.818486 237.384979 
L 304.096531 237.672938 
L 304.374576 237.248935 
L 304.652621 236.133881 
L 305.208711 232.121851 
L 307.155027 213.807597 
L 307.433072 212.680702 
L 307.711117 212.264257 
L 307.989162 212.594541 
L 308.267207 213.669538 
L 308.823297 217.842805 
L 309.657432 227.564135 
L 310.769613 240.629369 
L 311.325703 244.563552 
L 311.603748 245.541555 
L 311.881793 245.820948 
L 312.159838 245.415085 
L 312.437883 244.378633 
L 312.993973 240.79111 
L 314.384199 229.475801 
L 314.940289 227.021472 
L 315.218334 226.651131 
L 315.496379 226.898781 
L 315.774424 227.752581 
L 316.330514 231.047358 
L 318.27683 246.167608 
L 318.554875 246.866218 
L 318.83292 246.872012 
L 319.110965 246.146194 
L 319.38901 244.691282 
L 319.9451 239.792449 
L 320.779235 229.131157 
L 321.61337 218.309888 
L 322.169461 213.209761 
L 322.447506 211.676246 
L 322.725551 210.914653 
L 323.003596 210.94942 
L 323.281641 211.759636 
L 323.837731 215.431052 
L 324.671866 224.16657 
L 325.506002 232.75773 
L 326.062092 236.214247 
L 326.340137 236.90278 
L 326.618182 236.818634 
L 326.896227 235.950726 
L 327.174272 234.33105 
L 327.730362 229.153831 
L 329.676678 206.269768 
L 329.954723 204.52463 
L 330.232768 203.503546 
L 330.510813 203.236246 
L 330.788858 203.711643 
L 331.066903 204.882374 
L 331.622993 208.929171 
L 333.291264 224.133566 
L 333.569309 225.494003 
L 333.847354 226.208989 
L 334.125399 226.230403 
L 334.403444 225.546405 
L 334.681489 224.184457 
L 335.237579 219.717688 
L 337.183895 200.047028 
L 337.46194 198.681553 
L 337.739985 197.995036 
L 338.01803 198.020229 
L 338.296075 198.752094 
L 338.57412 200.150573 
L 339.13021 204.632205 
L 341.354571 226.601752 
L 341.632616 227.865195 
L 341.910661 228.596808 
L 342.188706 228.815485 
L 342.466751 228.568591 
L 342.744796 227.931453 
L 343.300886 225.899615 
L 344.135022 222.753227 
L 344.413067 222.145313 
L 344.691112 221.913787 
L 344.969157 222.120623 
L 345.247202 222.797567 
L 345.803292 225.536328 
L 346.637427 232.247818 
L 347.749607 241.49098 
L 348.305698 244.032478 
L 348.583743 244.455725 
L 348.861788 244.259217 
L 349.139833 243.439932 
L 349.695923 240.084187 
L 350.530058 232.159893 
L 351.364193 224.165562 
L 351.920284 220.843072 
L 352.198329 220.15328 
L 352.476374 220.211981 
L 352.754419 221.048145 
L 353.032464 222.653965 
L 353.588554 227.942538 
L 354.422689 239.336198 
L 355.53487 254.224166 
L 356.09096 258.745604 
L 356.369005 259.925909 
L 356.64705 260.347393 
L 356.925095 260.029958 
L 357.20314 259.036083 
L 357.75923 255.436971 
L 359.149456 244.360746 
L 359.427501 243.121741 
L 359.705546 242.517354 
L 359.983591 242.619638 
L 360.261636 243.456811 
L 360.539681 245.016779 
L 361.095771 250.039059 
L 363.042087 272.032791 
L 363.320132 273.453188 
L 363.598177 274.051781 
L 363.876222 273.784732 
L 364.154267 272.657837 
L 364.710357 268.058804 
L 365.544492 257.289685 
L 366.378628 246.501419 
L 366.934718 242.015 
L 367.212763 241.057403 
L 367.490808 241.07655 
L 367.768853 242.10242 
L 368.046898 244.115867 
L 368.602988 250.764374 
L 369.437123 264.941639 
L 370.271259 279.130746 
L 370.827349 285.849289 
L 371.105394 287.941843 
L 371.383439 289.093176 
L 371.661484 289.29447 
L 371.939529 288.588806 
L 372.217574 287.067384 
L 372.773664 282.158978 
L 373.885845 270.465014 
L 374.441935 267.021344 
L 374.71998 266.473391 
L 374.998025 266.818035 
L 375.27607 268.076691 
L 375.83216 273.1549 
L 376.666295 285.235329 
L 377.50043 297.872278 
L 378.056521 303.728203 
L 378.334566 305.371561 
L 378.612611 306.021799 
L 378.890656 305.642893 
L 379.168701 304.252224 
L 379.724791 298.760845 
L 380.558926 286.141027 
L 381.393062 273.490223 
L 381.949152 267.95274 
L 382.227197 266.527556 
L 382.505242 266.101538 
L 382.783287 266.686022 
L 383.061332 268.236668 
L 383.617422 273.805642 
L 385.563738 298.389748 
L 385.841783 299.741367 
L 386.119828 300.11851 
L 386.397873 299.491954 
L 386.675918 297.890165 
L 387.232008 292.145342 
L 389.178324 266.103049 
L 389.456369 264.660986 
L 389.734414 264.307272 
L 390.012459 265.10212 
L 390.290504 267.042507 
L 390.846594 274.060598 
L 391.680729 289.877443 
L 392.514865 306.073698 
L 393.070955 313.541993 
L 393.349 315.640341 
L 393.627045 316.472727 
L 393.90509 315.983222 
L 394.183135 314.179131 
L 394.739225 306.97864 
L 395.57336 289.944457 
L 396.685541 266.728095 
L 397.241631 259.713782 
L 397.519676 258.001647 
L 397.797721 257.58369 
L 398.075766 258.445804 
L 398.353811 260.514424 
L 398.909901 267.640847 
L 400.578172 294.540215 
L 400.856217 296.883945 
L 401.134262 298.015627 
L 401.412307 297.824914 
L 401.690352 296.265954 
L 401.968397 293.365452 
L 402.524487 283.969115 
L 403.358622 264.021581 
L 404.192758 243.949844 
L 404.748848 234.409149 
L 405.026893 231.45297 
L 405.304938 229.86932 
L 405.582983 229.6907 
L 405.861028 230.877807 
L 406.139073 233.322059 
L 406.695163 241.215869 
L 408.085389 265.157546 
L 408.641479 270.000953 
L 408.919524 270.449394 
L 409.197569 269.432593 
L 409.475614 266.925358 
L 410.031704 257.719986 
L 410.865839 236.225332 
L 411.97802 205.568387 
L 412.53411 195.00938 
L 412.812155 191.730223 
L 413.0902 189.931675 
L 413.368245 189.628852 
L 413.64629 190.763557 
L 413.924335 193.202266 
L 414.480425 201.137645 
L 415.870651 224.823358 
L 416.148696 227.711264 
L 416.426741 229.390396 
L 416.704786 229.712618 
L 416.982831 228.604618 
L 417.260876 226.064883 
L 417.816966 217.055767 
L 418.651102 196.751999 
L 419.763282 169.452563 
L 420.319372 161.011555 
L 420.597417 158.787996 
L 420.875462 157.991384 
L 421.153507 158.600558 
L 421.431552 160.521797 
L 421.987642 167.580702 
L 423.655913 194.245016 
L 423.933958 196.342861 
L 424.212003 197.150557 
L 424.490048 196.563554 
L 424.768093 194.54658 
L 425.324183 186.45072 
L 425.880273 173.989116 
L 426.436364 159.181767 
L 426.436364 159.181767 
" clip-path="url(#pf3bc7622a8)" style="fill: none; stroke-dasharray: 11.1,4.8; stroke-dashoffset: 0; stroke: #000000; stroke-width: 3"/>
   </g>
   <g id="line2d_2">
    <path d="M 27.163636 157.240877 
L 28.553862 155.758504 
L 29.387997 155.099448 
L 30.222132 154.704921 
L 30.778222 154.634128 
L 31.334312 154.736917 
L 31.890403 155.014798 
L 32.724538 155.71492 
L 34.948898 157.987101 
L 35.504989 158.266747 
L 36.061079 158.310835 
L 36.617169 158.098204 
L 37.173259 157.639938 
L 38.007394 156.596936 
L 39.675665 154.267566 
L 40.231755 153.744049 
L 40.787845 153.446769 
L 41.343935 153.385297 
L 41.900025 153.532426 
L 42.734161 154.009335 
L 44.124386 154.813756 
L 44.680476 154.938463 
L 45.236566 154.904452 
L 46.070701 154.601377 
L 47.738972 153.83802 
L 48.295062 153.791161 
L 48.851152 153.922922 
L 49.685287 154.439636 
L 51.909648 156.304946 
L 52.465738 156.478528 
L 53.021828 156.441494 
L 53.577918 156.20115 
L 54.412054 155.558973 
L 56.080324 154.16125 
L 56.914459 153.838272 
L 57.748595 153.851625 
L 60.251 154.334832 
L 61.085135 154.05569 
L 61.919271 153.493124 
L 64.143631 151.786532 
L 64.977767 151.533591 
L 65.811902 151.594055 
L 66.646037 151.909223 
L 69.704533 153.419056 
L 70.816713 153.623878 
L 73.041074 153.911081 
L 73.875209 154.280666 
L 74.709344 154.922843 
L 75.543479 155.866835 
L 76.65566 157.567381 
L 78.045885 160.253237 
L 79.992201 164.638631 
L 81.660471 168.283091 
L 82.494606 169.653101 
L 83.050696 170.257488 
L 83.606787 170.549226 
L 84.162877 170.489014 
L 84.718967 170.059217 
L 85.275057 169.266636 
L 86.109192 167.472875 
L 87.221372 164.27484 
L 89.723778 156.684357 
L 90.557913 154.768408 
L 91.392049 153.313244 
L 92.226184 152.300978 
L 93.060319 151.67165 
L 93.894454 151.361521 
L 94.72859 151.334564 
L 95.562725 151.597078 
L 96.39686 152.191136 
L 97.230995 153.161833 
L 98.06513 154.516475 
L 99.177311 156.799742 
L 101.123626 160.931692 
L 101.957761 162.16062 
L 102.513852 162.653904 
L 103.069942 162.850664 
L 103.626032 162.749135 
L 104.182122 162.372244 
L 105.016257 161.397516 
L 107.518663 157.898925 
L 108.352798 157.283201 
L 108.908888 157.096267 
L 109.743024 157.076364 
L 111.689339 157.278918 
L 112.523474 157.084426 
L 113.35761 156.642284 
L 114.747835 155.547888 
L 116.416105 154.25371 
L 117.528286 153.692151 
L 118.362421 153.479016 
L 119.474601 153.457854 
L 121.142872 153.764204 
L 122.255052 153.899744 
L 123.089187 153.802246 
L 123.923322 153.471206 
L 125.035503 152.695757 
L 127.259863 150.942557 
L 128.093998 150.629656 
L 128.650089 150.602448 
L 129.206179 150.729926 
L 130.040314 151.197261 
L 130.874449 151.948525 
L 131.98663 153.279737 
L 133.376855 155.312079 
L 134.76708 157.697379 
L 136.435351 161.047581 
L 139.493847 167.389233 
L 140.606027 169.070381 
L 141.440162 170.00228 
L 142.552342 170.890091 
L 144.220613 171.826525 
L 146.723018 172.946115 
L 148.391289 173.420252 
L 149.781514 173.592574 
L 150.893695 173.515231 
L 151.72783 173.257755 
L 152.561965 172.784878 
L 153.674145 171.838366 
L 155.898506 169.752867 
L 156.732641 169.339445 
L 157.288731 169.262101 
L 157.844821 169.353805 
L 158.678957 169.79116 
L 159.513092 170.536629 
L 160.625272 171.905884 
L 161.737453 173.662863 
L 162.849633 175.908088 
L 163.961813 178.808339 
L 165.073993 182.422063 
L 167.298354 190.822005 
L 168.688579 195.592857 
L 169.80076 198.589093 
L 170.634895 200.31055 
L 171.46903 201.632945 
L 172.303165 202.629087 
L 173.415346 203.567033 
L 174.527526 204.173939 
L 175.917751 204.634976 
L 178.142112 205.310156 
L 179.810382 206.107523 
L 181.200608 206.680923 
L 182.034743 206.771366 
L 182.868878 206.572591 
L 183.703013 206.075528 
L 184.815194 205.076866 
L 186.483464 203.52093 
L 187.317599 202.987588 
L 188.151735 202.668389 
L 189.820005 202.372872 
L 190.932185 202.084661 
L 193.990681 201.042919 
L 194.546771 201.134622 
L 195.380907 201.563412 
L 196.215042 202.292253 
L 198.439402 204.523118 
L 199.273538 204.989698 
L 200.107673 205.123726 
L 200.941808 204.960222 
L 202.053988 204.440988 
L 205.112484 202.825847 
L 207.61489 201.852631 
L 209.561205 201.297875 
L 211.229476 201.051988 
L 212.897746 201.008656 
L 214.287972 201.193071 
L 215.400152 201.602209 
L 216.234287 202.115648 
L 217.346467 203.088109 
L 218.736693 204.653619 
L 221.517144 207.88894 
L 223.185414 209.412378 
L 225.68782 211.283483 
L 227.35609 212.657524 
L 228.46827 213.822461 
L 229.580451 215.270067 
L 230.970676 217.468936 
L 237.087668 227.891144 
L 238.477893 229.616632 
L 239.590073 230.596146 
L 240.424209 231.048617 
L 241.258344 231.257218 
L 242.092479 231.245629 
L 243.204659 230.964724 
L 244.594885 230.352275 
L 247.375336 229.044744 
L 248.487516 228.738394 
L 249.599696 228.632582 
L 250.989921 228.73789 
L 255.438643 229.292394 
L 257.941048 229.62293 
L 262.38977 230.577503 
L 263.779995 231.063733 
L 265.448265 231.918289 
L 267.116536 232.748912 
L 267.950671 232.960283 
L 268.784806 232.949702 
L 269.618942 232.705327 
L 270.731122 232.081542 
L 275.179843 229.131157 
L 277.404204 228.042304 
L 278.516384 227.698163 
L 279.350519 227.643998 
L 280.184654 227.828413 
L 281.01879 228.275341 
L 281.852925 228.959591 
L 283.24315 230.436421 
L 285.189466 232.496727 
L 286.301646 233.388569 
L 287.413826 234.037548 
L 288.804052 234.571898 
L 290.194277 234.84071 
L 291.306457 234.837687 
L 292.418638 234.609939 
L 293.530818 234.165026 
L 295.199088 233.223049 
L 297.979539 231.635369 
L 299.369764 231.115884 
L 300.75999 230.862691 
L 302.150215 230.848079 
L 304.374576 231.102027 
L 308.545252 231.630078 
L 311.047658 231.66283 
L 312.437883 231.737906 
L 313.550063 232.016543 
L 314.384199 232.425934 
L 315.496379 233.263611 
L 316.886604 234.654783 
L 318.554875 236.313509 
L 319.667055 237.073842 
L 320.50119 237.378681 
L 321.335325 237.464086 
L 322.447506 237.326783 
L 326.896227 236.221553 
L 328.286452 235.672844 
L 329.398633 234.994641 
L 331.344948 233.464905 
L 332.735173 232.521668 
L 333.569309 232.200454 
L 334.403444 232.146037 
L 335.237579 232.404016 
L 336.071714 233.002104 
L 336.90585 233.94786 
L 337.739985 235.228182 
L 338.852165 237.376413 
L 340.798481 241.80262 
L 342.466751 245.461692 
L 343.856976 247.99664 
L 345.247202 250.003537 
L 346.359382 251.262949 
L 347.471562 252.203414 
L 348.305698 252.660924 
L 349.139833 252.867005 
L 349.973968 252.803014 
L 350.808103 252.484067 
L 351.920284 251.760516 
L 354.422689 249.979855 
L 355.53487 249.550309 
L 356.64705 249.389324 
L 359.149456 249.170143 
L 359.983591 248.793251 
L 360.817726 248.079274 
L 361.651861 246.912573 
L 362.485996 245.184818 
L 363.320132 242.831262 
L 364.432312 238.786481 
L 366.934718 229.048775 
L 367.490808 227.709248 
L 368.046898 226.982674 
L 368.324943 226.87913 
L 368.602988 226.957733 
L 368.881033 227.221758 
L 369.437123 228.293732 
L 369.993213 230.035092 
L 370.827349 233.637983 
L 373.885845 248.63529 
L 374.71998 251.445096 
L 375.554115 253.493309 
L 376.110205 254.456197 
L 376.666295 255.09661 
L 377.222385 255.388852 
L 377.778476 255.2843 
L 378.334566 254.717199 
L 378.890656 253.621795 
L 379.446746 251.948961 
L 380.280881 248.335238 
L 381.115016 243.55179 
L 384.451557 222.298992 
L 385.285693 218.716256 
L 386.119828 216.029896 
L 387.232008 213.362432 
L 391.680729 204.103398 
L 392.514865 203.071985 
L 393.070955 202.722303 
L 393.627045 202.657808 
L 394.183135 202.862377 
L 394.739225 203.295198 
L 395.57336 204.247 
L 398.353811 207.738536 
L 400.300127 209.865353 
L 401.134262 211.14366 
L 401.968397 212.920542 
L 402.802532 215.382933 
L 403.636668 218.683504 
L 404.470803 222.902119 
L 405.582983 229.848662 
L 408.641479 250.206846 
L 409.475614 253.675205 
L 410.031704 255.090563 
L 410.587794 255.748612 
L 410.865839 255.795975 
L 411.143885 255.662451 
L 411.42193 255.352825 
L 411.97802 254.239534 
L 412.53411 252.526643 
L 413.368245 248.986736 
L 414.20238 244.475123 
L 415.314561 237.290252 
L 418.929147 212.336058 
L 419.763282 208.37517 
L 420.597417 205.612727 
L 421.153507 204.410252 
L 421.709597 203.644125 
L 422.265688 203.215083 
L 423.099823 202.952821 
L 424.212003 202.718272 
L 424.768093 202.444169 
L 425.324183 201.991446 
L 426.158319 200.948948 
L 426.436364 200.512348 
L 426.436364 200.512348 
" clip-path="url(#pf3bc7622a8)" style="fill: none; stroke: #ff00ff; stroke-width: 3; stroke-linecap: square"/>
   </g>
   <g id="patch_3">
    <path d="M 7.2 331.2 
L 7.2 7.2 
" style="fill: none; stroke: #000000; stroke-width: 0.8; stroke-linejoin: miter; stroke-linecap: square"/>
   </g>
   <g id="patch_4">
    <path d="M 446.4 331.2 
L 446.4 7.2 
" style="fill: none; stroke: #000000; stroke-width: 0.8; stroke-linejoin: miter; stroke-linecap: square"/>
   </g>
   <g id="patch_5">
    <path d="M 7.2 331.2 
L 446.4 331.2 
" style="fill: none; stroke: #000000; stroke-width: 0.8; stroke-linejoin: miter; stroke-linecap: square"/>
   </g>
   <g id="patch_6">
    <path d="M 7.2 7.2 
L 446.4 7.2 
" style="fill: none; stroke: #000000; stroke-width: 0.8; stroke-linejoin: miter; stroke-linecap: square"/>
   </g>
  </g>
 </g>
 <defs>
  <clipPath id="pf3bc7622a8">
   <rect x="7.2" y="7.2" width="439.2" height="324"/>
  </clipPath>
 </defs>
</svg>
